<?xml version="1.0" encoding="UTF-8"?>
<!DOCTYPE svg PUBLIC "-//W3C//DTD SVG 1.1//EN" "http://www.w3.org/Graphics/SVG/1.1/DTD/svg11.dtd">
<svg xmlns="http://www.w3.org/2000/svg" version="1.1" width="120px" height="68px" style="shape-rendering:geometricPrecision; text-rendering:geometricPrecision; image-rendering:optimizeQuality; fill-rule:evenodd; clip-rule:evenodd" xmlns:xlink="http://www.w3.org/1999/xlink">
<g><path style="opacity:1" fill="#081322" d="M -0.5,-0.5 C 7.16667,-0.5 14.8333,-0.5 22.5,-0.5C 22.1961,0.14987 21.8627,0.816537 21.5,1.5C 23.9935,3.24776 23.8268,4.91443 21,6.5C 19.414,5.62404 17.914,4.62404 16.5,3.5C 15.3523,5.14869 14.019,6.64869 12.5,8C 13.4506,8.71752 13.6172,9.55085 13,10.5C 11.292,12.5435 9.29201,14.2101 7,15.5C 5.83333,18.5 4.66667,21.5 3.5,24.5C 3.04311,25.2975 2.37644,25.6309 1.5,25.5C 0.833333,25.1667 0.166667,24.8333 -0.5,24.5C -0.5,16.1667 -0.5,7.83333 -0.5,-0.5 Z"/></g>
<g><path style="opacity:1" fill="#5eeeeb" d="M 41.5,-0.5 C 42.5,-0.5 43.5,-0.5 44.5,-0.5C 43.8333,0.166667 43.1667,0.833333 42.5,1.5C 41.6618,1.15829 41.3284,0.491622 41.5,-0.5 Z"/></g>
<g><path style="opacity:1" fill="#4298d2" d="M 38.5,-0.5 C 39.5,-0.5 40.5,-0.5 41.5,-0.5C 41.3284,0.491622 41.6618,1.15829 42.5,1.5C 42.3284,2.49162 42.6618,3.15829 43.5,3.5C 44.5294,5.5168 45.5294,7.5168 46.5,9.5C 45.8333,9.16667 45.1667,8.83333 44.5,8.5C 42.2519,5.67203 40.2519,2.67203 38.5,-0.5 Z"/></g>
<g><path style="opacity:1" fill="#367877" d="M 44.5,-0.5 C 48.5,-0.5 52.5,-0.5 56.5,-0.5C 56.5,0.166667 56.5,0.833333 56.5,1.5C 55.2223,1.78219 54.2223,2.44886 53.5,3.5C 53.1667,3.5 52.8333,3.5 52.5,3.5C 51.5,2.16667 50.5,2.16667 49.5,3.5C 47.3469,2.42708 45.3469,2.42708 43.5,3.5C 42.6618,3.15829 42.3284,2.49162 42.5,1.5C 43.1667,0.833333 43.8333,0.166667 44.5,-0.5 Z"/></g>
<g><path style="opacity:1" fill="#3b4e6e" d="M 52.5,3.5 C 51.5,6.16667 50.5,6.16667 49.5,3.5C 50.5,2.16667 51.5,2.16667 52.5,3.5 Z"/></g>
<g><path style="opacity:1" fill="#694a9d" d="M 61.5,-0.5 C 62.1667,-0.5 62.8333,-0.5 63.5,-0.5C 66.2183,3.85039 70.2183,5.51706 75.5,4.5C 74.8363,6.86692 73.503,8.86692 71.5,10.5C 71.6236,11.1067 71.9569,11.44 72.5,11.5C 72.44,12.0431 72.1067,12.3764 71.5,12.5C 70.7041,8.53717 68.3708,6.20383 64.5,5.5C 62.9752,3.78368 61.9752,1.78368 61.5,-0.5 Z"/></g>
<g><path style="opacity:1" fill="#161d35" d="M 85.5,-0.5 C 89.5,-0.5 93.5,-0.5 97.5,-0.5C 96.2073,1.29585 94.7073,2.96252 93,4.5C 92.4209,5.92847 92.5876,7.2618 93.5,8.5C 88.1252,10.0088 83.2918,12.6755 79,16.5C 78.3333,15.1667 78.3333,13.8333 79,12.5C 81.2775,9.98602 83.2775,7.31935 85,4.5C 85.4935,2.86586 85.6602,1.19919 85.5,-0.5 Z"/></g>
<g><path style="opacity:1" fill="#0a282e" d="M 56.5,1.5 C 58.8333,3.16667 60.8333,5.16667 62.5,7.5C 61.7611,7.36899 61.0944,7.53566 60.5,8C 62.0854,10.0693 63.4187,12.236 64.5,14.5C 63.6043,13.4937 62.9377,13.4937 62.5,14.5C 59.1518,11.1486 56.1518,7.48189 53.5,3.5C 54.2223,2.44886 55.2223,1.78219 56.5,1.5 Z"/></g>
<g><path style="opacity:1" fill="#9dadee" d="M 56.5,-0.5 C 58.1667,-0.5 59.8333,-0.5 61.5,-0.5C 61.9752,1.78368 62.9752,3.78368 64.5,5.5C 66.0277,8.7487 67.3611,12.082 68.5,15.5C 68.5,16.1667 68.5,16.8333 68.5,17.5C 67.1092,15.0404 65.9425,12.3738 65,9.5C 64.2917,8.61947 63.4584,7.9528 62.5,7.5C 60.8333,5.16667 58.8333,3.16667 56.5,1.5C 56.5,0.833333 56.5,0.166667 56.5,-0.5 Z"/></g>
<g><path style="opacity:1" fill="#0d1e34" d="M 22.5,-0.5 C 26.5,-0.5 30.5,-0.5 34.5,-0.5C 34.5172,1.56475 34.8505,3.56475 35.5,5.5C 32.4928,9.19235 29.8261,13.1923 27.5,17.5C 25.9255,18.6309 24.2588,18.7975 22.5,18C 19.6761,15.012 16.6761,15.012 13.5,18C 11.1667,21 8.83333,24 6.5,27C 7.02527,27.6924 7.69194,28.1924 8.5,28.5C 10.8392,27.276 13.1725,27.276 15.5,28.5C 13.234,29.4324 11.234,30.7658 9.5,32.5C 8.58317,31.8728 7.58317,31.5394 6.5,31.5C 4.08605,30.0892 2.41938,28.0892 1.5,25.5C 2.37644,25.6309 3.04311,25.2975 3.5,24.5C 4.66667,21.5 5.83333,18.5 7,15.5C 9.29201,14.2101 11.292,12.5435 13,10.5C 13.6172,9.55085 13.4506,8.71752 12.5,8C 14.019,6.64869 15.3523,5.14869 16.5,3.5C 17.914,4.62404 19.414,5.62404 21,6.5C 23.8268,4.91443 23.9935,3.24776 21.5,1.5C 21.8627,0.816537 22.1961,0.14987 22.5,-0.5 Z"/></g>
<g><path style="opacity:1" fill="#2a2f57" d="M 71.5,-0.5 C 76.1667,-0.5 80.8333,-0.5 85.5,-0.5C 85.6602,1.19919 85.4935,2.86586 85,4.5C 83.2775,7.31935 81.2775,9.98602 79,12.5C 78.3333,13.8333 78.3333,15.1667 79,16.5C 83.2918,12.6755 88.1252,10.0088 93.5,8.5C 95.9815,9.69619 95.9815,11.1962 93.5,13C 94.5536,14.3876 94.7203,15.8876 94,17.5C 92.1267,16.9109 90.46,17.5776 89,19.5C 88.7902,20.8029 88.9569,22.1362 89.5,23.5C 89.5466,25.0377 88.8799,26.0377 87.5,26.5C 86.8333,26.5 86.1667,26.5 85.5,26.5C 85.1667,26.5 84.8333,26.5 84.5,26.5C 84.5,26.1667 84.5,25.8333 84.5,25.5C 84.8333,25.5 85.1667,25.5 85.5,25.5C 86.9953,25.5852 87.9953,24.9185 88.5,23.5C 87.0475,21.2793 85.8808,18.946 85,16.5C 79.435,21.3023 76.6016,19.969 76.5,12.5C 77.8802,9.76963 79.5468,7.10296 81.5,4.5C 79.0459,2.1791 76.2126,1.84576 73,3.5C 70.9709,2.48613 70.4709,1.1528 71.5,-0.5 Z"/></g>
<g><path style="opacity:1" fill="#423671" d="M 63.5,-0.5 C 66.1667,-0.5 68.8333,-0.5 71.5,-0.5C 70.4709,1.1528 70.9709,2.48613 73,3.5C 76.2126,1.84576 79.0459,2.1791 81.5,4.5C 79.5468,7.10296 77.8802,9.76963 76.5,12.5C 76.1309,8.98681 74.7975,8.65348 72.5,11.5C 71.9569,11.44 71.6236,11.1067 71.5,10.5C 73.503,8.86692 74.8363,6.86692 75.5,4.5C 70.2183,5.51706 66.2183,3.85039 63.5,-0.5 Z"/></g>
<g><path style="opacity:1" fill="#1b7282" d="M 43.5,3.5 C 47.7516,4.41774 50.4183,7.0844 51.5,11.5C 49.146,12.8234 47.4793,12.1567 46.5,9.5C 45.5294,7.5168 44.5294,5.5168 43.5,3.5 Z"/></g>
<g><path style="opacity:1" fill="#9d71d3" d="M 64.5,5.5 C 68.3708,6.20383 70.7041,8.53717 71.5,12.5C 72.1067,12.3764 72.44,12.0431 72.5,11.5C 74.0481,11.8212 74.7148,12.8212 74.5,14.5C 72.7508,16.5314 70.7508,16.8647 68.5,15.5C 67.3611,12.082 66.0277,8.7487 64.5,5.5 Z"/></g>
<g><path style="opacity:1" fill="#20747b" d="M 64.5,14.5 C 65.7384,16.2143 66.405,18.2143 66.5,20.5C 64.8079,18.7952 63.4746,16.7952 62.5,14.5C 62.9377,13.4937 63.6043,13.4937 64.5,14.5 Z"/></g>
<g><path style="opacity:1" fill="#18304c" d="M 35.5,5.5 C 36.1386,6.09682 36.472,6.93015 36.5,8C 35.3425,13.1101 34.6759,18.2767 34.5,23.5C 28.641,27.8944 22.3077,31.5611 15.5,34.5C 14.5,34.5 13.5,34.5 12.5,34.5C 10.0326,34.2451 8.03259,33.2451 6.5,31.5C 7.58317,31.5394 8.58317,31.8728 9.5,32.5C 11.234,30.7658 13.234,29.4324 15.5,28.5C 13.1725,27.276 10.8392,27.276 8.5,28.5C 7.69194,28.1924 7.02527,27.6924 6.5,27C 8.83333,24 11.1667,21 13.5,18C 16.6761,15.012 19.6761,15.012 22.5,18C 24.2588,18.7975 25.9255,18.6309 27.5,17.5C 29.8261,13.1923 32.4928,9.19235 35.5,5.5 Z"/></g>
<g><path style="opacity:1" fill="#161f35" d="M 104.5,-0.5 C 109.5,-0.5 114.5,-0.5 119.5,-0.5C 119.5,11.8333 119.5,24.1667 119.5,36.5C 117.112,35.7813 115.612,34.1146 115,31.5C 114.28,29.8876 114.446,28.3876 115.5,27C 114.134,25.4002 113.134,23.5668 112.5,21.5C 111.201,22.09 110.368,23.09 110,24.5C 109.329,23.7476 108.496,23.4142 107.5,23.5C 105.672,20.865 104.505,17.865 104,14.5C 103.009,15.4296 102.509,16.5962 102.5,18C 103.592,22.3519 105.592,26.1852 108.5,29.5C 107.883,29.6107 107.383,29.944 107,30.5C 106.148,29.4293 105.315,28.4293 104.5,27.5C 97.5119,18.9091 99.1785,12.0758 109.5,7C 109.167,6.66667 108.833,6.33333 108.5,6C 109.308,5.69238 109.975,5.19238 110.5,4.5C 109.372,3.73791 108.205,3.07124 107,2.5C 101.246,4.3774 100.413,3.3774 104.5,-0.5 Z"/></g>
<g><path style="opacity:1" fill="#3b70a0" d="M 34.5,-0.5 C 34.8333,-0.5 35.1667,-0.5 35.5,-0.5C 37.6728,3.78894 38.3395,8.12227 37.5,12.5C 36.5233,15.2869 36.19,18.2869 36.5,21.5C 36.5,26.1667 36.5,30.8333 36.5,35.5C 36.0598,38.3798 35.0598,41.0465 33.5,43.5C 33.1667,43.5 32.8333,43.5 32.5,43.5C 33.1495,41.5648 33.4828,39.5648 33.5,37.5C 34.6227,35.0213 34.6227,32.688 33.5,30.5C 34.3686,28.283 34.702,25.9496 34.5,23.5C 34.6759,18.2767 35.3425,13.1101 36.5,8C 36.472,6.93015 36.1386,6.09682 35.5,5.5C 34.8505,3.56475 34.5172,1.56475 34.5,-0.5 Z"/></g>
<g><path style="opacity:1" fill="#306783" d="M 37.5,12.5 C 38.2323,15.9807 39.5657,19.314 41.5,22.5C 40.3318,23.9056 40.6652,25.0723 42.5,26C 41.365,26.7494 40.365,26.5827 39.5,25.5C 38.4793,24.0986 37.4793,22.7653 36.5,21.5C 36.19,18.2869 36.5233,15.2869 37.5,12.5 Z"/></g>
<g><path style="opacity:1" fill="#4e5598" d="M 76.5,12.5 C 76.6016,19.969 79.435,21.3023 85,16.5C 85.8808,18.946 87.0475,21.2793 88.5,23.5C 87.9953,24.9185 86.9953,25.5852 85.5,25.5C 83.5655,20.6538 80.2322,19.3205 75.5,21.5C 75.0074,19.1944 74.6741,16.861 74.5,14.5C 74.7148,12.8212 74.0481,11.8212 72.5,11.5C 74.7975,8.65348 76.1309,8.98681 76.5,12.5 Z"/></g>
<g><path style="opacity:1" fill="#8c82d2" d="M 74.5,14.5 C 74.6741,16.861 75.0074,19.1944 75.5,21.5C 80.2322,19.3205 83.5655,20.6538 85.5,25.5C 85.1667,25.5 84.8333,25.5 84.5,25.5C 82.7839,25.3713 81.1172,25.038 79.5,24.5C 77.4352,24.4828 75.4352,24.1495 73.5,23.5C 69.725,23.3843 68.0583,21.3843 68.5,17.5C 68.5,16.8333 68.5,16.1667 68.5,15.5C 70.7508,16.8647 72.7508,16.5314 74.5,14.5 Z"/></g>
<g><path style="opacity:1" fill="#64a8e1" d="M 62.5,7.5 C 63.4584,7.9528 64.2917,8.61947 65,9.5C 65.9425,12.3738 67.1092,15.0404 68.5,17.5C 68.0583,21.3843 69.725,23.3843 73.5,23.5C 72.1667,24.8333 72.1667,26.1667 73.5,27.5C 73.5,27.8333 73.5,28.1667 73.5,28.5C 73.5,29.1667 73.8333,29.5 74.5,29.5C 74.5569,30.609 74.8902,31.609 75.5,32.5C 74.5,32.5 73.5,32.5 72.5,32.5C 71.3995,31.3951 70.7329,30.0618 70.5,28.5C 69.6743,25.5152 68.341,22.8485 66.5,20.5C 66.405,18.2143 65.7384,16.2143 64.5,14.5C 63.4187,12.236 62.0854,10.0693 60.5,8C 61.0944,7.53566 61.7611,7.36899 62.5,7.5 Z"/></g>
<g><path style="opacity:1" fill="#12293c" d="M 97.5,-0.5 C 99.8333,-0.5 102.167,-0.5 104.5,-0.5C 100.413,3.3774 101.246,4.3774 107,2.5C 108.205,3.07124 109.372,3.73791 110.5,4.5C 109.975,5.19238 109.308,5.69238 108.5,6C 108.833,6.33333 109.167,6.66667 109.5,7C 99.1785,12.0758 97.5119,18.9091 104.5,27.5C 102.901,27.2322 101.568,27.5655 100.5,28.5C 99.5178,27.8592 98.5178,27.1925 97.5,26.5C 96.8333,27.5 96.1667,28.5 95.5,29.5C 94.549,28.6744 93.549,28.5078 92.5,29C 93.8333,30 95.1667,31 96.5,32C 95.9056,32.4643 95.2389,32.631 94.5,32.5C 93.8333,32.1667 93.1667,31.8333 92.5,31.5C 91.713,29.8958 90.3797,29.2291 88.5,29.5C 87.8902,28.609 87.5569,27.609 87.5,26.5C 88.8799,26.0377 89.5466,25.0377 89.5,23.5C 88.9569,22.1362 88.7902,20.8029 89,19.5C 90.46,17.5776 92.1267,16.9109 94,17.5C 94.7203,15.8876 94.5536,14.3876 93.5,13C 95.9815,11.1962 95.9815,9.69619 93.5,8.5C 92.5876,7.2618 92.4209,5.92847 93,4.5C 94.7073,2.96252 96.2073,1.29585 97.5,-0.5 Z"/></g>
<g><path style="opacity:1" fill="#8af3f9" d="M 73.5,23.5 C 75.4352,24.1495 77.4352,24.4828 79.5,24.5C 79.6107,25.1174 79.944,25.6174 80.5,26C 78.3225,27.2022 75.9892,27.7022 73.5,27.5C 72.1667,26.1667 72.1667,24.8333 73.5,23.5 Z"/></g>
<g><path style="opacity:1" fill="#2dacb4" d="M 66.5,20.5 C 68.341,22.8485 69.6743,25.5152 70.5,28.5C 68.127,26.4208 66.7936,23.7541 66.5,20.5 Z"/></g>
<g><path style="opacity:1" fill="#4c86c3" d="M 107.5,23.5 C 109.701,27.2403 111.368,31.2403 112.5,35.5C 112.737,36.791 112.404,37.791 111.5,38.5C 111.672,37.5084 111.338,36.8417 110.5,36.5C 110.834,33.812 110.168,31.4786 108.5,29.5C 105.592,26.1852 103.592,22.3519 102.5,18C 102.509,16.5962 103.009,15.4296 104,14.5C 104.505,17.865 105.672,20.865 107.5,23.5 Z"/></g>
<g><path style="opacity:1" fill="#01080b" d="M 43.5,3.5 C 45.3469,2.42708 47.3469,2.42708 49.5,3.5C 50.5,6.16667 51.5,6.16667 52.5,3.5C 52.8333,3.5 53.1667,3.5 53.5,3.5C 56.1518,7.48189 59.1518,11.1486 62.5,14.5C 63.4746,16.7952 64.8079,18.7952 66.5,20.5C 66.7936,23.7541 68.127,26.4208 70.5,28.5C 70.7329,30.0618 71.3995,31.3951 72.5,32.5C 73.8021,34.8218 75.8021,36.1551 78.5,36.5C 79.6085,37.29 80.9419,37.79 82.5,38C 80.4636,38.4536 78.6303,39.2869 77,40.5C 75.7753,40.1377 74.6086,39.6377 73.5,39C 70.7074,34.5825 68.0407,30.0825 65.5,25.5C 64.5224,25.9767 63.6891,26.6433 63,27.5C 61.5913,26.2189 60.0913,25.2189 58.5,24.5C 59.388,21.9455 59.7214,19.2788 59.5,16.5C 55.4251,15.659 52.4251,16.9924 50.5,20.5C 48.1416,27.3305 50.4749,29.6638 57.5,27.5C 59.2843,31.1426 58.2843,33.8093 54.5,35.5C 53.8333,35.1667 53.1667,34.8333 52.5,34.5C 51.5067,39.1196 51.1734,43.7863 51.5,48.5C 51.6658,53.1785 51.4992,57.8452 51,62.5C 49.9637,64.299 49.7971,65.9657 50.5,67.5C 43.5,67.5 36.5,67.5 29.5,67.5C 30.3981,65.0948 31.8981,63.0948 34,61.5C 34.4614,56.8159 34.2947,52.1493 33.5,47.5C 34.5,47.8333 35.1667,48.5 35.5,49.5C 34.9865,53.8028 36.1531,57.4695 39,60.5C 40.5557,53.2854 40.3891,46.1187 38.5,39C 40.4951,38.0764 40.8284,36.9097 39.5,35.5C 39.5,34.8333 39.5,34.1667 39.5,33.5C 39.6941,31.0882 41.0274,30.0882 43.5,30.5C 43.5222,24.7982 42.5222,19.2982 40.5,14C 41.4825,11.8504 42.8158,10.0171 44.5,8.5C 45.1667,8.83333 45.8333,9.16667 46.5,9.5C 47.4793,12.1567 49.146,12.8234 51.5,11.5C 50.4183,7.0844 47.7516,4.41774 43.5,3.5 Z"/></g>
<g><path style="opacity:1" fill="#173b4e" d="M 58.5,24.5 C 56.1799,26.2261 53.5133,26.8928 50.5,26.5C 50.5,24.5 50.5,22.5 50.5,20.5C 52.4251,16.9924 55.4251,15.659 59.5,16.5C 59.7214,19.2788 59.388,21.9455 58.5,24.5 Z"/></g>
<g><path style="opacity:1" fill="#bde1f1" d="M 52.5,20.5 C 55.7973,20.3287 56.1306,20.9954 53.5,22.5C 52.7025,22.0431 52.3691,21.3764 52.5,20.5 Z"/></g>
<g><path style="opacity:1" fill="#58adb6" d="M 79.5,24.5 C 81.1172,25.038 82.7839,25.3713 84.5,25.5C 84.5,25.8333 84.5,26.1667 84.5,26.5C 81.0388,28.0911 77.3721,28.7578 73.5,28.5C 73.5,28.1667 73.5,27.8333 73.5,27.5C 75.9892,27.7022 78.3225,27.2022 80.5,26C 79.944,25.6174 79.6107,25.1174 79.5,24.5 Z"/></g>
<g><path style="opacity:1" fill="#53609f" d="M 34.5,23.5 C 34.702,25.9496 34.3686,28.283 33.5,30.5C 30.5,31.1667 27.5,31.8333 24.5,32.5C 22.646,34.5959 20.3127,35.9293 17.5,36.5C 16.2867,36.2528 15.62,35.5862 15.5,34.5C 22.3077,31.5611 28.641,27.8944 34.5,23.5 Z"/></g>
<g><path style="opacity:1" fill="#092128" d="M 50.5,20.5 C 50.5,22.5 50.5,24.5 50.5,26.5C 53.5133,26.8928 56.1799,26.2261 58.5,24.5C 60.0913,25.2189 61.5913,26.2189 63,27.5C 63.6891,26.6433 64.5224,25.9767 65.5,25.5C 68.0407,30.0825 70.7074,34.5825 73.5,39C 74.6086,39.6377 75.7753,40.1377 77,40.5C 78.6303,39.2869 80.4636,38.4536 82.5,38C 80.9419,37.79 79.6085,37.29 78.5,36.5C 79.3764,36.6309 80.0431,36.2975 80.5,35.5C 78.6812,34.6801 77.0145,33.6801 75.5,32.5C 74.8902,31.609 74.5569,30.609 74.5,29.5C 77.1873,29.6641 79.854,29.4974 82.5,29C 83.9423,28.6232 84.9423,27.7899 85.5,26.5C 86.1667,26.5 86.8333,26.5 87.5,26.5C 87.5569,27.609 87.8902,28.609 88.5,29.5C 87.2003,30.601 86.7003,31.9343 87,33.5C 88.9483,32.8906 90.7816,32.224 92.5,31.5C 93.1667,31.8333 93.8333,32.1667 94.5,32.5C 94.5,33.5 94.5,34.5 94.5,35.5C 92.0155,36.7399 92.0155,37.7399 94.5,38.5C 93.5,40.1667 92.1667,41.5 90.5,42.5C 91.3587,38.2486 89.692,37.4153 85.5,40C 84.7476,40.6708 84.4142,41.5041 84.5,42.5C 83.1932,41.8466 81.8599,41.1799 80.5,40.5C 79.452,41.3829 78.2853,42.0496 77,42.5C 70.2512,40.0842 65.9178,35.4176 64,28.5C 63.6667,29.8333 63.3333,31.1667 63,32.5C 62.3457,31.3044 61.8457,31.3044 61.5,32.5C 63.1757,35.5433 65.5091,37.8767 68.5,39.5C 69.7928,41.6365 69.7928,43.6365 68.5,45.5C 68.7254,43.2841 67.8921,41.6174 66,40.5C 63.2945,41.7053 61.4611,43.7053 60.5,46.5C 59.8933,46.3764 59.56,46.0431 59.5,45.5C 57.8736,42.7543 57.2069,39.7543 57.5,36.5C 59.463,33.482 59.963,30.1487 59,26.5C 58.6174,27.056 58.1174,27.3893 57.5,27.5C 50.4749,29.6638 48.1416,27.3305 50.5,20.5 Z"/></g>
<g><path style="opacity:1" fill="#277177" d="M 84.5,26.5 C 84.8333,26.5 85.1667,26.5 85.5,26.5C 84.9423,27.7899 83.9423,28.6232 82.5,29C 79.854,29.4974 77.1873,29.6641 74.5,29.5C 73.8333,29.5 73.5,29.1667 73.5,28.5C 77.3721,28.7578 81.0388,28.0911 84.5,26.5 Z"/></g>
<g><path style="opacity:1" fill="#3f7085" d="M 100.5,28.5 C 100.441,33.1528 98.4413,35.4861 94.5,35.5C 94.5,34.5 94.5,33.5 94.5,32.5C 95.2389,32.631 95.9056,32.4643 96.5,32C 95.1667,31 93.8333,30 92.5,29C 93.549,28.5078 94.549,28.6744 95.5,29.5C 96.1667,28.5 96.8333,27.5 97.5,26.5C 98.5178,27.1925 99.5178,27.8592 100.5,28.5 Z"/></g>
<g><path style="opacity:1" fill="#2d305d" d="M 119.5,36.5 C 119.5,39.1667 119.5,41.8333 119.5,44.5C 118.041,44.5674 116.708,44.2341 115.5,43.5C 115.228,41.6862 115.061,39.6862 115,37.5C 114.583,36.244 113.75,35.5774 112.5,35.5C 111.368,31.2403 109.701,27.2403 107.5,23.5C 108.496,23.4142 109.329,23.7476 110,24.5C 110.368,23.09 111.201,22.09 112.5,21.5C 113.134,23.5668 114.134,25.4002 115.5,27C 114.446,28.3876 114.28,29.8876 115,31.5C 115.612,34.1146 117.112,35.7813 119.5,36.5 Z"/></g>
<g><path style="opacity:1" fill="#3e5d91" d="M -0.5,24.5 C 0.166667,24.8333 0.833333,25.1667 1.5,25.5C 2.41938,28.0892 4.08605,30.0892 6.5,31.5C 8.03259,33.2451 10.0326,34.2451 12.5,34.5C 10.81,35.0171 9.1433,35.3505 7.5,35.5C 4.83333,32.5 2.16667,29.5 -0.5,26.5C -0.5,25.8333 -0.5,25.1667 -0.5,24.5 Z"/></g>
<g><path style="opacity:1" fill="#101d28" d="M 35.5,-0.5 C 36.5,-0.5 37.5,-0.5 38.5,-0.5C 40.2519,2.67203 42.2519,5.67203 44.5,8.5C 42.8158,10.0171 41.4825,11.8504 40.5,14C 42.5222,19.2982 43.5222,24.7982 43.5,30.5C 41.0274,30.0882 39.6941,31.0882 39.5,33.5C 38.5,34.1667 37.5,34.8333 36.5,35.5C 36.5,30.8333 36.5,26.1667 36.5,21.5C 37.4793,22.7653 38.4793,24.0986 39.5,25.5C 40.365,26.5827 41.365,26.7494 42.5,26C 40.6652,25.0723 40.3318,23.9056 41.5,22.5C 39.5657,19.314 38.2323,15.9807 37.5,12.5C 38.3395,8.12227 37.6728,3.78894 35.5,-0.5 Z"/></g>
<g><path style="opacity:1" fill="#5bcdd9" d="M 33.5,30.5 C 34.6227,32.688 34.6227,35.0213 33.5,37.5C 31.8333,36.1667 30.1667,36.1667 28.5,37.5C 27.8333,37.5 27.5,37.1667 27.5,36.5C 33.6267,33.6557 33.6267,32.4891 27.5,33C 25.5359,34.451 24.2026,36.2843 23.5,38.5C 22.8333,38.5 22.5,38.8333 22.5,39.5C 21.609,40.1098 20.609,40.4431 19.5,40.5C 21.1667,37.8333 22.8333,35.1667 24.5,32.5C 27.5,31.8333 30.5,31.1667 33.5,30.5 Z"/></g>
<g><path style="opacity:1" fill="#1d5359" d="M 88.5,29.5 C 90.3797,29.2291 91.713,29.8958 92.5,31.5C 90.7816,32.224 88.9483,32.8906 87,33.5C 86.7003,31.9343 87.2003,30.601 88.5,29.5 Z"/></g>
<g><path style="opacity:1" fill="#475977" d="M 27.5,36.5 C 26.3951,37.6005 25.0618,38.2671 23.5,38.5C 24.2026,36.2843 25.5359,34.451 27.5,33C 33.6267,32.4891 33.6267,33.6557 27.5,36.5 Z"/></g>
<g><path style="opacity:1" fill="#0f5050" d="M 72.5,32.5 C 73.5,32.5 74.5,32.5 75.5,32.5C 77.0145,33.6801 78.6812,34.6801 80.5,35.5C 80.0431,36.2975 79.3764,36.6309 78.5,36.5C 75.8021,36.1551 73.8021,34.8218 72.5,32.5 Z"/></g>
<g><path style="opacity:1" fill="#827dc7" d="M 24.5,32.5 C 22.8333,35.1667 21.1667,37.8333 19.5,40.5C 18.1667,40.5 16.8333,40.5 15.5,40.5C 12.53,39.3468 9.86329,37.6801 7.5,35.5C 9.1433,35.3505 10.81,35.0171 12.5,34.5C 13.5,34.5 14.5,34.5 15.5,34.5C 15.62,35.5862 16.2867,36.2528 17.5,36.5C 20.3127,35.9293 22.646,34.5959 24.5,32.5 Z"/></g>
<g><path style="opacity:1" fill="#279997" d="M 94.5,35.5 C 95.625,36.6522 95.625,37.6522 94.5,38.5C 92.0155,37.7399 92.0155,36.7399 94.5,35.5 Z"/></g>
<g><path style="opacity:1" fill="#292449" d="M -0.5,26.5 C 2.16667,29.5 4.83333,32.5 7.5,35.5C 9.86329,37.6801 12.53,39.3468 15.5,40.5C 13.1432,40.6633 10.8098,40.4966 8.5,40C 5.89343,36.6631 2.89343,33.8297 -0.5,31.5C -0.5,29.8333 -0.5,28.1667 -0.5,26.5 Z"/></g>
<g><path style="opacity:1" fill="#435120" d="M 90.5,42.5 C 88.9723,45.7487 87.6389,49.082 86.5,52.5C 86.4865,49.9702 86.1531,47.3036 85.5,44.5C 85.6716,43.5084 85.3382,42.8417 84.5,42.5C 84.4142,41.5041 84.7476,40.6708 85.5,40C 89.692,37.4153 91.3587,38.2486 90.5,42.5 Z"/></g>
<g><path style="opacity:1" fill="#534e90" d="M 112.5,35.5 C 113.75,35.5774 114.583,36.244 115,37.5C 115.061,39.6862 115.228,41.6862 115.5,43.5C 114.833,43.5 114.167,43.5 113.5,43.5C 113.167,43.5 112.833,43.5 112.5,43.5C 111.549,42.0813 111.216,40.4147 111.5,38.5C 112.404,37.791 112.737,36.791 112.5,35.5 Z"/></g>
<g><path style="opacity:1" fill="#07444b" d="M 57.5,36.5 C 56.4168,36.5394 55.4168,36.8728 54.5,37.5C 53.8332,43.3195 53.1665,48.9861 52.5,54.5C 52.7947,52.2646 52.4614,50.2646 51.5,48.5C 51.1734,43.7863 51.5067,39.1196 52.5,34.5C 53.1667,34.8333 53.8333,35.1667 54.5,35.5C 58.2843,33.8093 59.2843,31.1426 57.5,27.5C 58.1174,27.3893 58.6174,27.056 59,26.5C 59.963,30.1487 59.463,33.482 57.5,36.5 Z"/></g>
<g><path style="opacity:1" fill="#000408" d="M 84.5,42.5 C 85.3382,42.8417 85.6716,43.5084 85.5,44.5C 83.6736,46.1475 82.3403,48.1475 81.5,50.5C 78.3625,55.7828 76.0292,61.4494 74.5,67.5C 66.5,67.5 58.5,67.5 50.5,67.5C 49.7971,65.9657 49.9637,64.299 51,62.5C 51.4992,57.8452 51.6658,53.1785 51.5,48.5C 52.4614,50.2646 52.7947,52.2646 52.5,54.5C 52.3359,57.1873 52.5026,59.854 53,62.5C 55.2645,61.0842 56.4312,59.0842 56.5,56.5C 58.6289,50.7011 62.6289,47.0344 68.5,45.5C 69.7928,43.6365 69.7928,41.6365 68.5,39.5C 65.5091,37.8767 63.1757,35.5433 61.5,32.5C 61.8457,31.3044 62.3457,31.3044 63,32.5C 63.3333,31.1667 63.6667,29.8333 64,28.5C 65.9178,35.4176 70.2512,40.0842 77,42.5C 78.2853,42.0496 79.452,41.3829 80.5,40.5C 81.8599,41.1799 83.1932,41.8466 84.5,42.5 Z"/></g>
<g><path style="opacity:1" fill="#08151d" d="M 104.5,27.5 C 105.315,28.4293 106.148,29.4293 107,30.5C 107.383,29.944 107.883,29.6107 108.5,29.5C 110.168,31.4786 110.834,33.812 110.5,36.5C 110.371,38.2161 110.038,39.8828 109.5,41.5C 108.539,39.7354 108.205,37.7354 108.5,35.5C 107.5,35.5 106.5,35.5 105.5,35.5C 105.519,41.6027 104.019,47.2694 101,52.5C 101,49.1667 101,45.8333 101,42.5C 98.9395,48.6763 97.4395,54.6763 96.5,60.5C 95.5,60.5 94.5,60.5 93.5,60.5C 93.3893,61.1174 93.056,61.6174 92.5,62C 91,62.1667 89.5,62.3333 88,62.5C 86.0194,62.3708 84.3528,61.7042 83,60.5C 82.6667,61.5 82.3333,62.5 82,63.5C 79.833,64.4881 77.9997,65.8214 76.5,67.5C 75.8333,67.5 75.1667,67.5 74.5,67.5C 76.0292,61.4494 78.3625,55.7828 81.5,50.5C 82.0444,52.5795 82.8777,54.5795 84,56.5C 85.0946,55.3066 85.928,53.9733 86.5,52.5C 87.6389,49.082 88.9723,45.7487 90.5,42.5C 92.1667,41.5 93.5,40.1667 94.5,38.5C 95.625,37.6522 95.625,36.6522 94.5,35.5C 98.4413,35.4861 100.441,33.1528 100.5,28.5C 101.568,27.5655 102.901,27.2322 104.5,27.5 Z"/></g>
<g><path style="opacity:1" fill="#a491da" d="M 113.5,43.5 C 114.167,43.5 114.833,43.5 115.5,43.5C 116.708,44.2341 118.041,44.5674 119.5,44.5C 119.5,44.8333 119.5,45.1667 119.5,45.5C 117.102,45.7406 115.102,45.0739 113.5,43.5 Z"/></g>
<g><path style="opacity:1" fill="#81e6ef" d="M 112.5,43.5 C 112.833,43.5 113.167,43.5 113.5,43.5C 115.102,45.0739 117.102,45.7406 119.5,45.5C 119.5,46.5 119.5,47.5 119.5,48.5C 116.978,47.9885 114.645,46.9885 112.5,45.5C 112.5,44.8333 112.5,44.1667 112.5,43.5 Z"/></g>
<g><path style="opacity:1" fill="#063f40" d="M 39.5,33.5 C 39.5,34.1667 39.5,34.8333 39.5,35.5C 38.0677,37.6549 36.9011,39.9882 36,42.5C 36.1049,45.0285 35.9383,47.3618 35.5,49.5C 35.1667,48.5 34.5,47.8333 33.5,47.5C 33.5,46.1667 33.5,44.8333 33.5,43.5C 35.0598,41.0465 36.0598,38.3798 36.5,35.5C 37.5,34.8333 38.5,34.1667 39.5,33.5 Z"/></g>
<g><path style="opacity:1" fill="#033936" d="M 68.5,45.5 C 62.6289,47.0344 58.6289,50.7011 56.5,56.5C 56.7424,52.521 57.7424,48.8544 59.5,45.5C 59.56,46.0431 59.8933,46.3764 60.5,46.5C 61.4611,43.7053 63.2945,41.7053 66,40.5C 67.8921,41.6174 68.7254,43.2841 68.5,45.5 Z"/></g>
<g><path style="opacity:1" fill="#00152a" d="M 93.5,60.5 C 92.1667,60.5 90.8333,60.5 89.5,60.5C 86.5738,54.0404 88.0738,48.7071 94,44.5C 95.0836,45.6651 95.9169,46.9984 96.5,48.5C 94.5911,52.5046 93.5911,56.5046 93.5,60.5 Z"/></g>
<g><path style="opacity:1" fill="#222b4b" d="M -0.5,38.5 C 1.37099,38.8588 2.87099,39.8588 4,41.5C 6.3465,44.1943 8.17984,47.1943 9.5,50.5C 9.63101,51.2389 9.46434,51.9056 9,52.5C 7.95933,50.6885 6.79266,50.3552 5.5,51.5C 4.59603,52.209 4.26269,53.209 4.5,54.5C 2.70848,54.366 1.04181,54.6993 -0.5,55.5C -0.5,49.8333 -0.5,44.1667 -0.5,38.5 Z"/></g>
<g><path style="opacity:1" fill="#184e58" d="M 112.5,45.5 C 114.645,46.9885 116.978,47.9885 119.5,48.5C 119.5,50.1667 119.5,51.8333 119.5,53.5C 115.254,52.2549 112.254,49.5882 110.5,45.5C 110.97,44.537 111.637,44.537 112.5,45.5 Z"/></g>
<g><path style="opacity:1" fill="#031216" d="M -0.5,31.5 C 2.89343,33.8297 5.89343,36.6631 8.5,40C 10.8098,40.4966 13.1432,40.6633 15.5,40.5C 16.8333,40.5 18.1667,40.5 19.5,40.5C 20.609,40.4431 21.609,40.1098 22.5,39.5C 23.0967,39.7352 23.4301,40.2352 23.5,41C 21.7532,43.9803 21.2532,47.147 22,50.5C 24.0043,47.5254 25.0043,44.1921 25,40.5C 26.016,39.3659 26.6827,39.6992 27,41.5C 28.1882,40.4366 28.6882,39.1033 28.5,37.5C 30.1667,36.1667 31.8333,36.1667 33.5,37.5C 33.4828,39.5648 33.1495,41.5648 32.5,43.5C 32.5,44.1667 32.1667,44.5 31.5,44.5C 34.0151,50.3833 32.3484,54.3833 26.5,56.5C 24.9707,56.4712 23.804,55.8045 23,54.5C 19.3853,66.4092 16.552,66.4092 14.5,54.5C 13.4763,53.1468 12.143,52.4802 10.5,52.5C 10.6716,51.5084 10.3382,50.8417 9.5,50.5C 8.17984,47.1943 6.3465,44.1943 4,41.5C 2.87099,39.8588 1.37099,38.8588 -0.5,38.5C -0.5,36.1667 -0.5,33.8333 -0.5,31.5 Z"/></g>
<g><path style="opacity:1" fill="#0e5353" d="M 31.5,44.5 C 30.8423,45.3984 30.1757,46.3984 29.5,47.5C 28.3338,45.6351 28.6671,43.9684 30.5,42.5C 31.2975,42.9569 31.6309,43.6236 31.5,44.5 Z"/></g>
<g><path style="opacity:1" fill="#293e34" d="M 27.5,36.5 C 27.5,37.1667 27.8333,37.5 28.5,37.5C 28.6882,39.1033 28.1882,40.4366 27,41.5C 26.6827,39.6992 26.016,39.3659 25,40.5C 25.0043,44.1921 24.0043,47.5254 22,50.5C 21.2532,47.147 21.7532,43.9803 23.5,41C 23.4301,40.2352 23.0967,39.7352 22.5,39.5C 22.5,38.8333 22.8333,38.5 23.5,38.5C 25.0618,38.2671 26.3951,37.6005 27.5,36.5 Z"/></g>
<g><path style="opacity:1" fill="#022124" d="M 39.5,35.5 C 40.8284,36.9097 40.4951,38.0764 38.5,39C 40.3891,46.1187 40.5557,53.2854 39,60.5C 36.1531,57.4695 34.9865,53.8028 35.5,49.5C 35.9383,47.3618 36.1049,45.0285 36,42.5C 36.9011,39.9882 38.0677,37.6549 39.5,35.5 Z"/></g>
<g><path style="opacity:1" fill="#363a36" d="M 85.5,44.5 C 86.1531,47.3036 86.4865,49.9702 86.5,52.5C 85.928,53.9733 85.0946,55.3066 84,56.5C 82.8777,54.5795 82.0444,52.5795 81.5,50.5C 82.3403,48.1475 83.6736,46.1475 85.5,44.5 Z"/></g>
<g><path style="opacity:1" fill="#298b92" d="M 110.5,36.5 C 111.338,36.8417 111.672,37.5084 111.5,38.5C 111.216,40.4147 111.549,42.0813 112.5,43.5C 112.5,44.1667 112.5,44.8333 112.5,45.5C 111.637,44.537 110.97,44.537 110.5,45.5C 112.254,49.5882 115.254,52.2549 119.5,53.5C 119.5,55.1667 119.5,56.8333 119.5,58.5C 119.167,58.5 118.833,58.5 118.5,58.5C 116.408,55.319 114.075,52.319 111.5,49.5C 110.058,48.1805 109.392,46.5138 109.5,44.5C 109.5,43.5 109.5,42.5 109.5,41.5C 110.038,39.8828 110.371,38.2161 110.5,36.5 Z"/></g>
<g><path style="opacity:1" fill="#032c32" d="M 57.5,36.5 C 57.2069,39.7543 57.8736,42.7543 59.5,45.5C 57.7424,48.8544 56.7424,52.521 56.5,56.5C 56.4312,59.0842 55.2645,61.0842 53,62.5C 52.5026,59.854 52.3359,57.1873 52.5,54.5C 53.1665,48.9861 53.8332,43.3195 54.5,37.5C 55.4168,36.8728 56.4168,36.5394 57.5,36.5 Z"/></g>
<g><path style="opacity:1" fill="#104e57" d="M 109.5,44.5 C 109.392,46.5138 110.058,48.1805 111.5,49.5C 110.888,52.304 110.888,55.304 111.5,58.5C 110.251,55.9127 109.251,53.246 108.5,50.5C 108.205,48.2646 108.539,46.2646 109.5,44.5 Z"/></g>
<g><path style="opacity:1" fill="#021e25" d="M 32.5,43.5 C 32.8333,43.5 33.1667,43.5 33.5,43.5C 33.5,44.8333 33.5,46.1667 33.5,47.5C 34.2947,52.1493 34.4614,56.8159 34,61.5C 31.8981,63.0948 30.3981,65.0948 29.5,67.5C 19.5,67.5 9.5,67.5 -0.5,67.5C -0.5,65.5 -0.5,63.5 -0.5,61.5C 0.28913,61.7828 0.955796,62.2828 1.5,63C 4.80345,63.2152 7.97012,63.3819 11,63.5C 10.7804,59.8039 10.6137,56.1372 10.5,52.5C 12.143,52.4802 13.4763,53.1468 14.5,54.5C 16.552,66.4092 19.3853,66.4092 23,54.5C 23.804,55.8045 24.9707,56.4712 26.5,56.5C 32.3484,54.3833 34.0151,50.3833 31.5,44.5C 32.1667,44.5 32.5,44.1667 32.5,43.5 Z"/></g>
<g><path style="opacity:1" fill="#573f7e" d="M 5.5,51.5 C 9.76416,55.3614 8.93083,58.0281 3,59.5C 1.69736,59.0217 0.530694,58.355 -0.5,57.5C -0.5,56.8333 -0.5,56.1667 -0.5,55.5C 1.04181,54.6993 2.70848,54.366 4.5,54.5C 4.26269,53.209 4.59603,52.209 5.5,51.5 Z"/></g>
<g><path style="opacity:1" fill="#105b68" d="M 118.5,58.5 C 118.833,58.5 119.167,58.5 119.5,58.5C 119.5,61.5 119.5,64.5 119.5,67.5C 119.167,67.5 118.833,67.5 118.5,67.5C 118.66,65.8008 118.494,64.1341 118,62.5C 116.5,61.6667 115.333,60.5 114.5,59C 116.019,59.3308 117.352,59.1641 118.5,58.5 Z"/></g>
<g><path style="opacity:1" fill="#112233" d="M 5.5,51.5 C 6.79266,50.3552 7.95933,50.6885 9,52.5C 9.46434,51.9056 9.63101,51.2389 9.5,50.5C 10.3382,50.8417 10.6716,51.5084 10.5,52.5C 10.6137,56.1372 10.7804,59.8039 11,63.5C 7.97012,63.3819 4.80345,63.2152 1.5,63C 0.955796,62.2828 0.28913,61.7828 -0.5,61.5C -0.5,60.1667 -0.5,58.8333 -0.5,57.5C 0.530694,58.355 1.69736,59.0217 3,59.5C 8.93083,58.0281 9.76416,55.3614 5.5,51.5 Z"/></g>
<g><path style="opacity:1" fill="#00070a" d="M 109.5,41.5 C 109.5,42.5 109.5,43.5 109.5,44.5C 108.539,46.2646 108.205,48.2646 108.5,50.5C 108.5,51.8333 108.5,53.1667 108.5,54.5C 105.675,54.0807 103.509,55.0807 102,57.5C 101.162,60.8516 100.329,64.1849 99.5,67.5C 91.8333,67.5 84.1667,67.5 76.5,67.5C 77.9997,65.8214 79.833,64.4881 82,63.5C 82.3333,62.5 82.6667,61.5 83,60.5C 84.3528,61.7042 86.0194,62.3708 88,62.5C 89.5,62.3333 91,62.1667 92.5,62C 93.056,61.6174 93.3893,61.1174 93.5,60.5C 94.5,60.5 95.5,60.5 96.5,60.5C 97.4395,54.6763 98.9395,48.6763 101,42.5C 101,45.8333 101,49.1667 101,52.5C 104.019,47.2694 105.519,41.6027 105.5,35.5C 106.5,35.5 107.5,35.5 108.5,35.5C 108.205,37.7354 108.539,39.7354 109.5,41.5 Z"/></g>
<g><path style="opacity:1" fill="#031b21" d="M 108.5,50.5 C 109.251,53.246 110.251,55.9127 111.5,58.5C 111.993,60.8056 112.326,63.139 112.5,65.5C 110.302,65.1201 108.635,65.7868 107.5,67.5C 104.833,67.5 102.167,67.5 99.5,67.5C 100.329,64.1849 101.162,60.8516 102,57.5C 103.509,55.0807 105.675,54.0807 108.5,54.5C 108.5,53.1667 108.5,51.8333 108.5,50.5 Z"/></g>
<g><path style="opacity:1" fill="#031632" d="M 111.5,49.5 C 114.075,52.319 116.408,55.319 118.5,58.5C 117.352,59.1641 116.019,59.3308 114.5,59C 115.333,60.5 116.5,61.6667 118,62.5C 118.494,64.1341 118.66,65.8008 118.5,67.5C 114.833,67.5 111.167,67.5 107.5,67.5C 108.635,65.7868 110.302,65.1201 112.5,65.5C 112.326,63.139 111.993,60.8056 111.5,58.5C 110.888,55.304 110.888,52.304 111.5,49.5 Z"/></g>
</svg>
