<?xml version="1.0" encoding="UTF-8"?>
<!DOCTYPE svg PUBLIC "-//W3C//DTD SVG 1.1//EN" "http://www.w3.org/Graphics/SVG/1.1/DTD/svg11.dtd">
<svg xmlns="http://www.w3.org/2000/svg" version="1.1" width="256px" height="144px" style="shape-rendering:geometricPrecision; text-rendering:geometricPrecision; image-rendering:optimizeQuality; fill-rule:evenodd; clip-rule:evenodd" xmlns:xlink="http://www.w3.org/1999/xlink">
<g><path style="opacity:1" fill="#07121f" d="M -0.5,-0.5 C 10.5,-0.5 21.5,-0.5 32.5,-0.5C 33.038,1.11723 33.3713,2.7839 33.5,4.5C 25.6353,5.01636 19.1353,8.34969 14,14.5C 13.0699,16.5431 12.5699,18.3764 12.5,20C 13.8333,20.6667 14.8333,21.6667 15.5,23C 14.3595,23.7412 14.3595,24.5745 15.5,25.5C 13.7299,26.8196 13.3966,28.3196 14.5,30C 12.8333,31 11.5,32.3333 10.5,34C 10.6158,35.2682 10.9491,36.6015 11.5,38C 8.93712,41.235 6.77045,44.735 5,48.5C 4.58605,48.0426 4.08605,47.7093 3.5,47.5C 2.4787,49.188 1.14537,50.5213 -0.5,51.5C -0.5,34.1667 -0.5,16.8333 -0.5,-0.5 Z"/></g>
<g><path style="opacity:1" fill="#0b1a2c" d="M 32.5,-0.5 C 42.5,-0.5 52.5,-0.5 62.5,-0.5C 61.9524,0.688495 61.6191,1.85516 61.5,3C 63.8929,5.39004 65.8929,8.05671 67.5,11C 65.9926,11.8373 65.4926,13.0039 66,14.5C 67.6995,13.5939 69.5328,13.2606 71.5,13.5C 71.8384,16.3252 70.8384,18.4918 68.5,20C 68.8333,20.3333 69.1667,20.6667 69.5,21C 67.6079,21.9734 65.6079,22.6401 63.5,23C 62.8514,25.4808 61.8514,25.8141 60.5,24C 60.5012,22.6012 60.8346,21.1012 61.5,19.5C 61,19.1667 60.5,18.8333 60,18.5C 57.0614,19.456 54.728,21.1226 53,23.5C 50.3443,21.3447 47.8443,19.0113 45.5,16.5C 43.8647,15.3192 42.198,15.3192 40.5,16.5C 39.684,18.2873 38.684,19.9539 37.5,21.5C 31.7223,25.9645 25.7223,29.9645 19.5,33.5C 18.0419,36.3723 16.8752,39.3723 16,42.5C 13.2656,43.3617 13.0989,44.195 15.5,45C 13.246,45.6237 11.5794,46.957 10.5,49C 10.8333,49.3333 11.1667,49.6667 11.5,50C 10.7402,51.4411 10.0736,52.9411 9.5,54.5C 6.95645,54.9491 4.28978,54.9491 1.5,54.5C 1.16667,53.5 0.5,52.8333 -0.5,52.5C -0.5,52.1667 -0.5,51.8333 -0.5,51.5C 1.14537,50.5213 2.4787,49.188 3.5,47.5C 4.08605,47.7093 4.58605,48.0426 5,48.5C 6.77045,44.735 8.93712,41.235 11.5,38C 10.9491,36.6015 10.6158,35.2682 10.5,34C 11.5,32.3333 12.8333,31 14.5,30C 13.3966,28.3196 13.7299,26.8196 15.5,25.5C 14.3595,24.5745 14.3595,23.7412 15.5,23C 14.8333,21.6667 13.8333,20.6667 12.5,20C 12.5699,18.3764 13.0699,16.5431 14,14.5C 19.1353,8.34969 25.6353,5.01636 33.5,4.5C 33.3713,2.7839 33.038,1.11723 32.5,-0.5 Z"/></g>
<g><path style="opacity:1" fill="#4ededd" d="M 88.5,-0.5 C 92.5,-0.5 96.5,-0.5 100.5,-0.5C 102.579,1.87305 105.246,3.20638 108.5,3.5C 111.206,3.6878 113.539,4.6878 115.5,6.5C 115.5,7.16667 115.167,7.5 114.5,7.5C 114.167,7.5 113.833,7.5 113.5,7.5C 112.01,5.72017 110.01,5.05351 107.5,5.5C 103.866,4.12166 100.366,2.45499 97,0.5C 95.1997,1.31952 93.3664,1.98619 91.5,2.5C 90.8333,2.5 90.5,2.83333 90.5,3.5C 88.8958,2.71304 88.2291,1.3797 88.5,-0.5 Z"/></g>
<g><path style="opacity:1" fill="#0e3137" d="M 100.5,-0.5 C 101.5,-0.5 102.5,-0.5 103.5,-0.5C 105.167,0.166667 106.833,0.833333 108.5,1.5C 108.5,2.16667 108.5,2.83333 108.5,3.5C 105.246,3.20638 102.579,1.87305 100.5,-0.5 Z"/></g>
<g><path style="opacity:1" fill="#4fc1c0" d="M 103.5,-0.5 C 106.167,-0.5 108.833,-0.5 111.5,-0.5C 111.179,1.04814 110.179,1.71481 108.5,1.5C 106.833,0.833333 105.167,0.166667 103.5,-0.5 Z"/></g>
<g><path style="opacity:1" fill="#596632" d="M 114.5,-0.5 C 116.167,-0.5 117.833,-0.5 119.5,-0.5C 120.167,0.5 120.833,1.5 121.5,2.5C 120.391,2.55688 119.391,2.89022 118.5,3.5C 116.915,2.46696 115.581,1.13363 114.5,-0.5 Z"/></g>
<g><path style="opacity:1" fill="#353166" d="M 137.5,-0.5 C 141.5,-0.5 145.5,-0.5 149.5,-0.5C 149.33,0.822066 149.663,1.98873 150.5,3C 149.833,3.33333 149.167,3.66667 148.5,4C 150.303,4.63681 151.636,5.80348 152.5,7.5C 154.071,8.30937 155.738,8.64271 157.5,8.5C 157.5,8.83333 157.5,9.16667 157.5,9.5C 153.277,11.5293 149.944,10.6959 147.5,7C 146.5,6.66667 145.5,6.33333 144.5,6C 145.833,5 145.833,4 144.5,3C 142.19,2.50335 139.857,2.33669 137.5,2.5C 137.5,1.5 137.5,0.5 137.5,-0.5 Z"/></g>
<g><path style="opacity:1" fill="#0e2b2f" d="M 107.5,5.5 C 107.5,6.16667 107.5,6.83333 107.5,7.5C 104.22,5.85989 100.886,4.19322 97.5,2.5C 95.2631,4.87818 93.2631,4.87818 91.5,2.5C 93.3664,1.98619 95.1997,1.31952 97,0.5C 100.366,2.45499 103.866,4.12166 107.5,5.5 Z"/></g>
<g><path style="opacity:1" fill="#4f5a56" d="M 111.5,-0.5 C 112.5,-0.5 113.5,-0.5 114.5,-0.5C 115.581,1.13363 116.915,2.46696 118.5,3.5C 117.306,4.27187 116.306,5.27187 115.5,6.5C 113.539,4.6878 111.206,3.6878 108.5,3.5C 108.5,2.83333 108.5,2.16667 108.5,1.5C 110.179,1.71481 111.179,1.04814 111.5,-0.5 Z"/></g>
<g><path style="opacity:1" fill="#0b202a" d="M 121.5,2.5 C 126.194,6.52708 130.527,10.8604 134.5,15.5C 135.925,16.922 136.925,18.5887 137.5,20.5C 135.463,18.4704 133.13,16.8037 130.5,15.5C 130.167,15.8333 129.833,16.1667 129.5,16.5C 131.506,19.8292 133.839,22.8292 136.5,25.5C 137.763,27.6964 138.763,30.0297 139.5,32.5C 139.457,33.4164 139.124,34.0831 138.5,34.5C 138.167,33.8333 137.833,33.1667 137.5,32.5C 134.828,28.7875 131.828,26.1208 128.5,24.5C 124.87,20.369 121.037,16.369 117,12.5C 116.517,11.552 116.351,10.552 116.5,9.5C 117.601,10.7997 118.934,11.2997 120.5,11C 118.963,9.29267 117.296,7.79267 115.5,6.5C 116.306,5.27187 117.306,4.27187 118.5,3.5C 119.391,2.89022 120.391,2.55688 121.5,2.5 Z"/></g>
<g><path style="opacity:1" fill="#32b3b6" d="M 91.5,2.5 C 93.2631,4.87818 95.2631,4.87818 97.5,2.5C 100.886,4.19322 104.22,5.85989 107.5,7.5C 108.506,8.39567 108.506,9.06233 107.5,9.5C 103.978,7.57358 100.312,5.90691 96.5,4.5C 95.1401,5.17994 93.8068,5.84661 92.5,6.5C 91.0937,6.02694 90.427,5.02694 90.5,3.5C 90.5,2.83333 90.8333,2.5 91.5,2.5 Z"/></g>
<g><path style="opacity:1" fill="#63a5eb" d="M 119.5,-0.5 C 122.5,-0.5 125.5,-0.5 128.5,-0.5C 131.062,4.62396 133.062,9.9573 134.5,15.5C 130.527,10.8604 126.194,6.52708 121.5,2.5C 120.833,1.5 120.167,0.5 119.5,-0.5 Z"/></g>
<g><path style="opacity:1" fill="#0b1b2d" d="M 224.5,-0.5 C 225.5,-0.5 226.5,-0.5 227.5,-0.5C 230.542,0.909899 233.709,2.24323 237,3.5C 238.897,1.98368 241.064,1.31701 243.5,1.5C 243.662,3.5273 243.495,5.5273 243,7.5C 238.054,9.17368 233.888,11.8403 230.5,15.5C 225.772,15.4737 221.272,16.4737 217,18.5C 213.23,16.0915 209.397,16.0915 205.5,18.5C 205.167,18.1667 204.833,17.8333 204.5,17.5C 207.242,13.7451 210.242,10.2451 213.5,7C 218.384,6.28176 222.051,3.78176 224.5,-0.5 Z"/></g>
<g><path style="opacity:1" fill="#3d4869" d="M 107.5,5.5 C 110.01,5.05351 112.01,5.72017 113.5,7.5C 111.895,9.47986 110.728,11.8132 110,14.5C 108.628,13.0899 107.795,11.4233 107.5,9.5C 108.506,9.06233 108.506,8.39567 107.5,7.5C 107.5,6.83333 107.5,6.16667 107.5,5.5 Z"/></g>
<g><path style="opacity:1" fill="#346698" d="M 73.5,-0.5 C 74.5,-0.5 75.5,-0.5 76.5,-0.5C 78.5341,6.06554 80.2008,12.7322 81.5,19.5C 80.391,19.5569 79.391,19.8902 78.5,20.5C 79.3543,18.965 79.3543,17.6316 78.5,16.5C 78.7373,15.209 78.404,14.209 77.5,13.5C 75.9637,8.89109 74.6304,4.22443 73.5,-0.5 Z"/></g>
<g><path style="opacity:1" fill="#106465" d="M 115.5,6.5 C 117.296,7.79267 118.963,9.29267 120.5,11C 118.934,11.2997 117.601,10.7997 116.5,9.5C 115.833,8.83333 115.167,8.16667 114.5,7.5C 115.167,7.5 115.5,7.16667 115.5,6.5 Z"/></g>
<g><path style="opacity:1" fill="#614596" d="M 135.5,-0.5 C 136.167,-0.5 136.833,-0.5 137.5,-0.5C 137.5,0.5 137.5,1.5 137.5,2.5C 139.857,2.33669 142.19,2.50335 144.5,3C 145.833,4 145.833,5 144.5,6C 145.5,6.33333 146.5,6.66667 147.5,7C 149.944,10.6959 153.277,11.5293 157.5,9.5C 163.907,9.65637 164.74,11.6564 160,15.5C 154.531,16.1273 152.031,19.1273 152.5,24.5C 153.5,24.5 154.5,24.5 155.5,24.5C 154.365,26.2132 152.698,26.8799 150.5,26.5C 150.724,22.7956 150.89,19.129 151,15.5C 147.299,13.7832 143.466,12.4498 139.5,11.5C 136.945,7.965 135.612,3.965 135.5,-0.5 Z"/></g>
<g><path style="opacity:1" fill="#403166" d="M 167.5,22.5 C 167.165,19.9928 166.165,17.8261 164.5,16C 165.206,14.0903 166.206,12.0903 167.5,10C 164.381,8.59491 161.048,8.09491 157.5,8.5C 158.987,7.19645 160.654,6.02978 162.5,5C 165.89,4.7537 169.223,4.2537 172.5,3.5C 173.386,4.32496 173.719,5.32496 173.5,6.5C 181.452,8.59299 181.452,10.4263 173.5,12C 169.982,14.269 168.649,17.269 169.5,21C 169.164,22.0299 168.497,22.5299 167.5,22.5 Z"/></g>
<g><path style="opacity:1" fill="#30c4ca" d="M 93.5,8.5 C 96.2282,8.17057 98.5615,8.83724 100.5,10.5C 100.279,11.7348 99.6119,12.7348 98.5,13.5C 99.2458,14.7362 99.5792,16.0695 99.5,17.5C 96.7589,15.0246 94.7589,12.0246 93.5,8.5 Z"/></g>
<g><path style="opacity:1" fill="#429cd9" d="M 83.5,-0.5 C 85.1667,-0.5 86.8333,-0.5 88.5,-0.5C 88.2291,1.3797 88.8958,2.71304 90.5,3.5C 90.427,5.02694 91.0937,6.02694 92.5,6.5C 92.3284,7.49162 92.6618,8.15829 93.5,8.5C 94.7589,12.0246 96.7589,15.0246 99.5,17.5C 100.476,18.8149 101.476,20.1482 102.5,21.5C 102.043,22.2975 101.376,22.6309 100.5,22.5C 98.1667,20.5 95.8333,18.5 93.5,16.5C 89.4104,11.3271 86.077,5.66048 83.5,-0.5 Z"/></g>
<g><path style="opacity:1" fill="#111625" d="M 76.5,-0.5 C 78.8333,-0.5 81.1667,-0.5 83.5,-0.5C 86.077,5.66048 89.4104,11.3271 93.5,16.5C 91.2694,18.0762 89.6028,20.2428 88.5,23C 89.0219,23.5613 89.3552,24.228 89.5,25C 88.0056,27.6388 87.3389,30.4721 87.5,33.5C 85.8998,31.2974 84.5665,28.964 83.5,26.5C 83.5905,23.8478 82.9238,21.5145 81.5,19.5C 80.2008,12.7322 78.5341,6.06554 76.5,-0.5 Z"/></g>
<g><path style="opacity:1" fill="#865dbe" d="M 139.5,11.5 C 143.466,12.4498 147.299,13.7832 151,15.5C 150.89,19.129 150.724,22.7956 150.5,26.5C 152.698,26.8799 154.365,26.2132 155.5,24.5C 157.144,24.2865 158.644,24.6198 160,25.5C 160.322,27.6889 159.822,29.6889 158.5,31.5C 158.167,31.5 157.833,31.5 157.5,31.5C 156.554,27.6646 154.221,26.6646 150.5,28.5C 149.729,26.1378 148.895,23.8045 148,21.5C 144.64,18.6381 141.807,15.3047 139.5,11.5 Z"/></g>
<g><path style="opacity:1" fill="#292d54" d="M 149.5,-0.5 C 160.833,-0.5 172.167,-0.5 183.5,-0.5C 183.586,0.495904 183.252,1.32924 182.5,2C 185.284,2.43615 186.45,3.93615 186,6.5C 182.935,9.28322 179.768,11.9499 176.5,14.5C 174.704,15.7927 173.037,17.2927 171.5,19C 172.833,19.3333 174.167,19.6667 175.5,20C 171.743,23.0858 168.743,26.7525 166.5,31C 167.227,32.3988 167.727,33.8988 168,35.5C 169.512,34.7433 170.846,33.7433 172,32.5C 172.333,32.8333 172.667,33.1667 173,33.5C 176.598,31.9502 180.098,30.2836 183.5,28.5C 182.5,29.8333 181.5,31.1667 180.5,32.5C 176.308,34.3365 172.808,37.0032 170,40.5C 168.11,40.2148 166.777,39.2148 166,37.5C 165.39,34.1727 164.89,30.8394 164.5,27.5C 165.752,25.9991 166.752,24.3325 167.5,22.5C 168.497,22.5299 169.164,22.0299 169.5,21C 168.649,17.269 169.982,14.269 173.5,12C 181.452,10.4263 181.452,8.59299 173.5,6.5C 173.719,5.32496 173.386,4.32496 172.5,3.5C 169.223,4.2537 165.89,4.7537 162.5,5C 160.654,6.02978 158.987,7.19645 157.5,8.5C 155.738,8.64271 154.071,8.30937 152.5,7.5C 151.636,5.80348 150.303,4.63681 148.5,4C 149.167,3.66667 149.833,3.33333 150.5,3C 149.663,1.98873 149.33,0.822066 149.5,-0.5 Z"/></g>
<g><path style="opacity:1" fill="#151b32" d="M 183.5,-0.5 C 192.5,-0.5 201.5,-0.5 210.5,-0.5C 206.872,3.45662 202.872,7.12329 198.5,10.5C 197.548,12.0453 197.215,13.712 197.5,15.5C 191.847,18.4176 186.347,21.7509 181,25.5C 180.667,25.1667 180.333,24.8333 180,24.5C 178.416,25.8613 176.582,26.528 174.5,26.5C 174.343,25.1266 174.51,23.7932 175,22.5C 177.786,20.3079 178.286,17.6412 176.5,14.5C 179.768,11.9499 182.935,9.28322 186,6.5C 186.45,3.93615 185.284,2.43615 182.5,2C 183.252,1.32924 183.586,0.495904 183.5,-0.5 Z"/></g>
<g><path style="opacity:1" fill="#437db7" d="M 137.5,20.5 C 137.5,21.1667 137.5,21.8333 137.5,22.5C 136.637,21.537 135.97,21.537 135.5,22.5C 136.127,23.4168 136.461,24.4168 136.5,25.5C 133.839,22.8292 131.506,19.8292 129.5,16.5C 129.833,16.1667 130.167,15.8333 130.5,15.5C 133.13,16.8037 135.463,18.4704 137.5,20.5 Z"/></g>
<g><path style="opacity:1" fill="#4f4185" d="M 157.5,9.5 C 157.5,9.16667 157.5,8.83333 157.5,8.5C 161.048,8.09491 164.381,8.59491 167.5,10C 166.206,12.0903 165.206,14.0903 164.5,16C 166.165,17.8261 167.165,19.9928 167.5,22.5C 166.752,24.3325 165.752,25.9991 164.5,27.5C 163.656,29.8428 162.656,32.1761 161.5,34.5C 160.391,34.5569 159.391,34.8902 158.5,35.5C 158.5,34.1667 158.5,32.8333 158.5,31.5C 159.822,29.6889 160.322,27.6889 160,25.5C 158.644,24.6198 157.144,24.2865 155.5,24.5C 154.5,24.5 153.5,24.5 152.5,24.5C 152.031,19.1273 154.531,16.1273 160,15.5C 164.74,11.6564 163.907,9.65637 157.5,9.5 Z"/></g>
<g><path style="opacity:1" fill="#132d42" d="M 210.5,-0.5 C 215.167,-0.5 219.833,-0.5 224.5,-0.5C 222.051,3.78176 218.384,6.28176 213.5,7C 210.242,10.2451 207.242,13.7451 204.5,17.5C 204.833,17.8333 205.167,18.1667 205.5,18.5C 209.397,16.0915 213.23,16.0915 217,18.5C 221.272,16.4737 225.772,15.4737 230.5,15.5C 229.5,16.8333 228.5,18.1667 227.5,19.5C 225.565,20.81 223.565,22.1433 221.5,23.5C 219.392,27.4005 217.059,31.0672 214.5,34.5C 217.149,26.8176 214.815,24.8176 207.5,28.5C 206.141,30.6922 204.308,32.3589 202,33.5C 200.982,37.6741 202.482,40.6741 206.5,42.5C 207.736,43.2458 209.07,43.5792 210.5,43.5C 212.998,48.823 217.165,52.1563 223,53.5C 223.374,54.4162 223.874,55.2496 224.5,56C 223.748,56.6708 223.414,57.5041 223.5,58.5C 221.83,58.7512 220.33,59.4178 219,60.5C 217.951,58.8934 216.451,58.2267 214.5,58.5C 214.5,63.8333 214.5,69.1667 214.5,74.5C 213.5,74.5 212.5,74.5 211.5,74.5C 211.5,74.1667 211.5,73.8333 211.5,73.5C 212.5,73.1667 213.167,72.5 213.5,71.5C 213.826,67.1161 213.492,62.7828 212.5,58.5C 210.827,56.9137 208.827,56.2471 206.5,56.5C 206.5,58.1667 206.5,59.8333 206.5,61.5C 203.689,57.6534 200.189,54.3201 196,51.5C 195.833,50.6667 195.667,49.8333 195.5,49C 196.97,46.1846 198.47,43.3512 200,40.5C 199.187,37.1615 199.354,33.8281 200.5,30.5C 199.5,30.5 198.5,30.5 197.5,30.5C 197.882,27.1007 199.549,24.434 202.5,22.5C 201.674,21.549 201.508,20.549 202,19.5C 202.654,20.6956 203.154,20.6956 203.5,19.5C 201.089,18.6389 199.089,17.3056 197.5,15.5C 197.215,13.712 197.548,12.0453 198.5,10.5C 202.872,7.12329 206.872,3.45662 210.5,-0.5 Z"/></g>
<g><path style="opacity:1" fill="#171c34" d="M 227.5,-0.5 C 236.833,-0.5 246.167,-0.5 255.5,-0.5C 255.5,2.5 255.5,5.5 255.5,8.5C 251.968,9.85333 248.801,11.8533 246,14.5C 245.586,14.0426 245.086,13.7093 244.5,13.5C 242.533,17.3009 239.7,20.3009 236,22.5C 235.95,24.744 235.117,26.4107 233.5,27.5C 232.883,27.3893 232.383,27.056 232,26.5C 230.663,27.7649 229.163,28.2649 227.5,28C 227.799,26.6796 227.966,25.1796 228,23.5C 231.556,20.3858 231.389,19.0524 227.5,19.5C 228.5,18.1667 229.5,16.8333 230.5,15.5C 233.888,11.8403 238.054,9.17368 243,7.5C 243.495,5.5273 243.662,3.5273 243.5,1.5C 241.064,1.31701 238.897,1.98368 237,3.5C 233.709,2.24323 230.542,0.909899 227.5,-0.5 Z"/></g>
<g><path style="opacity:1" fill="#0b4a51" d="M 104.5,14.5 C 106.558,16.9266 108.391,19.5932 110,22.5C 111.009,24.0249 111.509,25.6916 111.5,27.5C 109.167,27.5 106.833,27.5 104.5,27.5C 104.5,26.8333 104.5,26.1667 104.5,25.5C 105.376,25.6309 106.043,25.2975 106.5,24.5C 105.687,23.1861 104.687,22.0195 103.5,21C 104.624,20.7508 105.624,20.2508 106.5,19.5C 105.05,18.1502 104.383,16.4835 104.5,14.5 Z"/></g>
<g><path style="opacity:1" fill="#102037" d="M 62.5,-0.5 C 66.1667,-0.5 69.8333,-0.5 73.5,-0.5C 74.6304,4.22443 75.9637,8.89109 77.5,13.5C 75.2458,17.2599 72.4124,20.5933 69,23.5C 65.8243,28.6725 62.6577,33.8391 59.5,39C 56.5772,40.6322 53.5772,40.7988 50.5,39.5C 46.9104,37.9068 43.577,35.9068 40.5,33.5C 32.3695,35.6524 26.3695,40.319 22.5,47.5C 24.124,48.8689 24.624,50.5355 24,52.5C 20.727,53.9494 17.8937,55.9494 15.5,58.5C 17.1932,59.2283 18.6932,60.2283 20,61.5C 23.4747,62.1387 26.808,61.4721 30,59.5C 31.3026,59.9783 32.4693,60.645 33.5,61.5C 29.9073,62.6724 26.9073,64.839 24.5,68C 33.8342,67.3463 33.8342,68.013 24.5,70C 22.8333,70.6667 21.1667,70.6667 19.5,70C 16.89,68.5186 14.2234,67.3519 11.5,66.5C 8.16667,62.5 4.83333,58.5 1.5,54.5C 4.28978,54.9491 6.95645,54.9491 9.5,54.5C 10.0736,52.9411 10.7402,51.4411 11.5,50C 11.1667,49.6667 10.8333,49.3333 10.5,49C 11.5794,46.957 13.246,45.6237 15.5,45C 13.0989,44.195 13.2656,43.3617 16,42.5C 16.8752,39.3723 18.0419,36.3723 19.5,33.5C 25.7223,29.9645 31.7223,25.9645 37.5,21.5C 38.684,19.9539 39.684,18.2873 40.5,16.5C 42.198,15.3192 43.8647,15.3192 45.5,16.5C 47.8443,19.0113 50.3443,21.3447 53,23.5C 54.728,21.1226 57.0614,19.456 60,18.5C 60.5,18.8333 61,19.1667 61.5,19.5C 60.8346,21.1012 60.5012,22.6012 60.5,24C 61.8514,25.8141 62.8514,25.4808 63.5,23C 65.6079,22.6401 67.6079,21.9734 69.5,21C 69.1667,20.6667 68.8333,20.3333 68.5,20C 70.8384,18.4918 71.8384,16.3252 71.5,13.5C 69.5328,13.2606 67.6995,13.5939 66,14.5C 65.4926,13.0039 65.9926,11.8373 67.5,11C 65.8929,8.05671 63.8929,5.39004 61.5,3C 61.6191,1.85516 61.9524,0.688495 62.5,-0.5 Z"/></g>
<g><path style="opacity:1" fill="#18687a" d="M 100.5,10.5 C 102.167,11.5 103.5,12.8333 104.5,14.5C 104.383,16.4835 105.05,18.1502 106.5,19.5C 105.624,20.2508 104.624,20.7508 103.5,21C 104.687,22.0195 105.687,23.1861 106.5,24.5C 106.043,25.2975 105.376,25.6309 104.5,25.5C 102.596,25.2624 101.262,24.2624 100.5,22.5C 101.376,22.6309 102.043,22.2975 102.5,21.5C 101.476,20.1482 100.476,18.8149 99.5,17.5C 99.5792,16.0695 99.2458,14.7362 98.5,13.5C 99.6119,12.7348 100.279,11.7348 100.5,10.5 Z"/></g>
<g><path style="opacity:1" fill="#4a8bc0" d="M 81.5,19.5 C 82.9238,21.5145 83.5905,23.8478 83.5,26.5C 82.4721,26.9258 81.1388,26.9258 79.5,26.5C 79.6658,31.1785 79.4992,35.8452 79,40.5C 77.5306,43.9629 76.6972,47.6296 76.5,51.5C 76.5,55.8333 76.5,60.1667 76.5,64.5C 75.8691,67.7016 74.8691,70.7016 73.5,73.5C 73.3444,70.9339 73.6777,68.4339 74.5,66C 74.1639,64.9701 73.4972,64.4701 72.5,64.5C 74.3177,60.8274 74.9843,56.8274 74.5,52.5C 74.5,51.1667 74.5,49.8333 74.5,48.5C 74.5,45.5 74.5,42.5 74.5,39.5C 75.6746,33.1348 77.0079,26.8014 78.5,20.5C 79.391,19.8902 80.391,19.5569 81.5,19.5 Z"/></g>
<g><path style="opacity:1" fill="#177173" d="M 137.5,32.5 C 136.662,32.8417 136.328,33.5084 136.5,34.5C 134.244,30.9026 131.577,27.5693 128.5,24.5C 131.828,26.1208 134.828,28.7875 137.5,32.5 Z"/></g>
<g><path style="opacity:1" fill="#37386a" d="M 185.5,55.5 C 185.167,55.5 184.833,55.5 184.5,55.5C 183.833,55.5 183.167,55.5 182.5,55.5C 184.838,54.3183 186.838,52.6517 188.5,50.5C 187.478,49.646 186.645,48.646 186,47.5C 186.181,42.695 184.347,38.8616 180.5,36C 181.515,34.6269 181.515,33.4602 180.5,32.5C 181.5,31.1667 182.5,29.8333 183.5,28.5C 187.401,23.9595 192.401,21.6261 198.5,21.5C 198.833,22 199.167,22.5 199.5,23C 197.9,24.7479 195.9,25.9146 193.5,26.5C 193.833,27.8333 194.167,29.1667 194.5,30.5C 190.971,34.0677 188.971,38.401 188.5,43.5C 188.728,45.3969 189.728,46.7303 191.5,47.5C 190.383,50.9173 188.383,53.584 185.5,55.5 Z"/></g>
<g><path style="opacity:1" fill="#174659" d="M 214.5,34.5 C 212.909,37.3516 211.576,40.3516 210.5,43.5C 209.07,43.5792 207.736,43.2458 206.5,42.5C 202.482,40.6741 200.982,37.6741 202,33.5C 204.308,32.3589 206.141,30.6922 207.5,28.5C 214.815,24.8176 217.149,26.8176 214.5,34.5 Z"/></g>
<g><path style="opacity:1" fill="#020a0f" d="M 93.5,16.5 C 95.8333,18.5 98.1667,20.5 100.5,22.5C 101.262,24.2624 102.596,25.2624 104.5,25.5C 104.5,26.1667 104.5,26.8333 104.5,27.5C 103.227,28.0768 103.227,28.7435 104.5,29.5C 105.5,30.8333 106.5,30.8333 107.5,29.5C 108.192,30.0253 108.692,30.6919 109,31.5C 112.207,28.8498 112.707,29.0165 110.5,32C 111.996,32.5074 113.163,32.0074 114,30.5C 115.094,32.0779 115.928,33.7446 116.5,35.5C 107.803,39.1985 104.636,45.8652 107,55.5C 107.833,57.6667 109.333,59.1667 111.5,60C 115.715,60.6587 119.715,60.1587 123.5,58.5C 125.041,64.3303 124.041,69.6636 120.5,74.5C 119.833,74.8333 119.167,75.1667 118.5,75.5C 115.902,73.4927 114.902,70.9927 115.5,68C 114.551,67.3828 113.718,67.5494 113,68.5C 111.137,66.6238 109.637,64.4572 108.5,62C 104.737,60.4148 101.07,58.5815 97.5,56.5C 96.138,58.851 94.8047,61.1843 93.5,63.5C 94.9627,68.8176 96.2961,74.1509 97.5,79.5C 93.8333,79.5 90.1667,79.5 86.5,79.5C 85.7611,79.631 85.0944,79.4643 84.5,79C 85.251,74.9202 85.251,70.7536 84.5,66.5C 84.8333,64.5 85.1667,62.5 85.5,60.5C 87.483,60.1852 88.8163,59.1852 89.5,57.5C 89.8333,57.5 90.1667,57.5 90.5,57.5C 91.8976,56.2233 92.5643,54.5566 92.5,52.5C 92.2879,48.0788 90.9546,44.0788 88.5,40.5C 89.3554,39.707 90.1887,40.0403 91,41.5C 91.1667,41 91.3333,40.5 91.5,40C 90.4337,37.5806 89.1004,35.4139 87.5,33.5C 87.3389,30.4721 88.0056,27.6388 89.5,25C 89.3552,24.228 89.0219,23.5613 88.5,23C 89.6028,20.2428 91.2694,18.0762 93.5,16.5 Z"/></g>
<g><path style="opacity:1" fill="#a377d8" d="M 130.5,-0.5 C 132.167,-0.5 133.833,-0.5 135.5,-0.5C 135.612,3.965 136.945,7.965 139.5,11.5C 141.807,15.3047 144.64,18.6381 148,21.5C 148.895,23.8045 149.729,26.1378 150.5,28.5C 154.221,26.6646 156.554,27.6646 157.5,31.5C 155.822,34.5516 155.155,37.8849 155.5,41.5C 154.251,40.2225 152.751,39.2225 151,38.5C 150.667,39.1667 150.333,39.8333 150,40.5C 149.764,38.8807 148.931,37.8807 147.5,37.5C 143.764,23.9522 138.097,11.2856 130.5,-0.5 Z"/></g>
<g><path style="opacity:1" fill="#b1b7f5" d="M 128.5,-0.5 C 129.167,-0.5 129.833,-0.5 130.5,-0.5C 138.097,11.2856 143.764,23.9522 147.5,37.5C 148.273,41.1402 148.94,44.8068 149.5,48.5C 148.685,47.5707 147.852,46.5707 147,45.5C 146.218,38.0281 144.051,31.0281 140.5,24.5C 139.643,23.5748 138.643,22.9081 137.5,22.5C 137.5,21.8333 137.5,21.1667 137.5,20.5C 136.925,18.5887 135.925,16.922 134.5,15.5C 133.062,9.9573 131.062,4.62396 128.5,-0.5 Z"/></g>
<g><path style="opacity:1" fill="#142c46" d="M 77.5,13.5 C 78.404,14.209 78.7373,15.209 78.5,16.5C 76.5593,18.9813 74.3927,21.3147 72,23.5C 70.7331,26.2746 69.2331,28.9413 67.5,31.5C 68.6583,35.1104 69.1583,38.7771 69,42.5C 66.7342,43.9563 64.2342,44.7896 61.5,45C 61.8333,45.3333 62.1667,45.6667 62.5,46C 60.1128,46.9761 58.9461,48.8094 59,51.5C 56.3441,53.9961 53.3441,55.9961 50,57.5C 48.8333,56.3333 47.6667,55.1667 46.5,54C 46.9817,52.9916 47.1484,51.825 47,50.5C 48.8333,48.6667 50.6667,46.8333 52.5,45C 51.5509,44.3828 50.7175,44.5494 50,45.5C 49.3333,44.8333 48.6667,44.1667 48,43.5C 42.4074,46.4958 36.7408,46.8291 31,44.5C 29.6667,46.5 28.3333,48.5 27,50.5C 26.3162,51.7839 26.4829,52.9505 27.5,54C 25.1667,55.5 22.8333,57 20.5,58.5C 21.1667,58.8333 21.8333,59.1667 22.5,59.5C 26.374,57.5153 30.374,57.182 34.5,58.5C 33.8728,59.4168 33.5394,60.4168 33.5,61.5C 32.4693,60.645 31.3026,59.9783 30,59.5C 26.808,61.4721 23.4747,62.1387 20,61.5C 18.6932,60.2283 17.1932,59.2283 15.5,58.5C 17.8937,55.9494 20.727,53.9494 24,52.5C 24.624,50.5355 24.124,48.8689 22.5,47.5C 26.3695,40.319 32.3695,35.6524 40.5,33.5C 43.577,35.9068 46.9104,37.9068 50.5,39.5C 53.5772,40.7988 56.5772,40.6322 59.5,39C 62.6577,33.8391 65.8243,28.6725 69,23.5C 72.4124,20.5933 75.2458,17.2599 77.5,13.5 Z"/></g>
<g><path style="opacity:1" fill="#112432" d="M 87.5,33.5 C 89.1004,35.4139 90.4337,37.5806 91.5,40C 91.3333,40.5 91.1667,41 91,41.5C 90.1887,40.0403 89.3554,39.707 88.5,40.5C 90.9546,44.0788 92.2879,48.0788 92.5,52.5C 92.5643,54.5566 91.8976,56.2233 90.5,57.5C 90.81,54.2869 90.4767,51.2869 89.5,48.5C 89.5,48.1667 89.5,47.8333 89.5,47.5C 88.0531,42.6121 85.5531,38.2787 82,34.5C 81.1635,32.1788 80.8301,29.8454 81,27.5C 81.3173,29.3008 81.984,29.6341 83,28.5C 84.4131,31.6612 86.0797,34.6612 88,37.5C 88.195,36.1807 88.0283,34.8474 87.5,33.5 Z"/></g>
<g><path style="opacity:1" fill="#24536f" d="M 110.5,43.5 C 111.29,42.5987 112.29,41.9321 113.5,41.5C 121.081,38.9967 123.581,41.6634 121,49.5C 112.559,56.3057 109.059,54.3057 110.5,43.5 Z"/></g>
<g><path style="opacity:1" fill="#202c4b" d="M 176.5,14.5 C 178.286,17.6412 177.786,20.3079 175,22.5C 174.51,23.7932 174.343,25.1266 174.5,26.5C 176.582,26.528 178.416,25.8613 180,24.5C 180.333,24.8333 180.667,25.1667 181,25.5C 186.347,21.7509 191.847,18.4176 197.5,15.5C 199.089,17.3056 201.089,18.6389 203.5,19.5C 203.154,20.6956 202.654,20.6956 202,19.5C 201.508,20.549 201.674,21.549 202.5,22.5C 199.549,24.434 197.882,27.1007 197.5,30.5C 198.5,30.5 199.5,30.5 200.5,30.5C 199.354,33.8281 199.187,37.1615 200,40.5C 198.47,43.3512 196.97,46.1846 195.5,49C 195.667,49.8333 195.833,50.6667 196,51.5C 200.189,54.3201 203.689,57.6534 206.5,61.5C 206.631,62.3764 206.298,63.0431 205.5,63.5C 203.22,62.2981 200.886,61.2981 198.5,60.5C 194.538,58.0251 190.205,56.3584 185.5,55.5C 188.383,53.584 190.383,50.9173 191.5,47.5C 189.728,46.7303 188.728,45.3969 188.5,43.5C 188.971,38.401 190.971,34.0677 194.5,30.5C 194.167,29.1667 193.833,27.8333 193.5,26.5C 195.9,25.9146 197.9,24.7479 199.5,23C 199.167,22.5 198.833,22 198.5,21.5C 192.401,21.6261 187.401,23.9595 183.5,28.5C 180.098,30.2836 176.598,31.9502 173,33.5C 172.667,33.1667 172.333,32.8333 172,32.5C 170.846,33.7433 169.512,34.7433 168,35.5C 167.727,33.8988 167.227,32.3988 166.5,31C 168.743,26.7525 171.743,23.0858 175.5,20C 174.167,19.6667 172.833,19.3333 171.5,19C 173.037,17.2927 174.704,15.7927 176.5,14.5 Z"/></g>
<g><path style="opacity:1" fill="#6fc1ed" d="M 113.5,48.5 C 114.936,47.5714 116.269,46.4048 117.5,45C 116.552,44.5172 115.552,44.3505 114.5,44.5C 115.287,42.8958 116.62,42.2291 118.5,42.5C 118.981,46.3491 117.314,48.3491 113.5,48.5 Z"/></g>
<g><path style="opacity:1" fill="#ac99ee" d="M 147.5,37.5 C 148.931,37.8807 149.764,38.8807 150,40.5C 150.333,39.8333 150.667,39.1667 151,38.5C 152.751,39.2225 154.251,40.2225 155.5,41.5C 155.365,44.4175 156.032,47.0842 157.5,49.5C 156.833,49.5 156.167,49.5 155.5,49.5C 153.735,48.5386 151.735,48.2053 149.5,48.5C 148.94,44.8068 148.273,41.1402 147.5,37.5 Z"/></g>
<g><path style="opacity:1" fill="#1b3451" d="M 78.5,16.5 C 79.3543,17.6316 79.3543,18.965 78.5,20.5C 77.0079,26.8014 75.6746,33.1348 74.5,39.5C 73.79,41.8927 73.1233,44.3927 72.5,47C 68.0171,48.1416 64.6838,50.8083 62.5,55C 59.1614,57.5609 55.4947,59.5609 51.5,61C 49.2941,63.0367 47.2941,65.2034 45.5,67.5C 42.4111,68.7389 39.4111,70.2389 36.5,72C 33.9644,72.1862 31.631,72.6862 29.5,73.5C 29.1667,73.5 28.8333,73.5 28.5,73.5C 25.7097,73.7776 23.2097,73.1109 21,71.5C 19.699,71.6387 18.8656,72.3054 18.5,73.5C 15.8333,71.5 13.5,69.1667 11.5,66.5C 14.2234,67.3519 16.89,68.5186 19.5,70C 21.1667,70.6667 22.8333,70.6667 24.5,70C 33.8342,68.013 33.8342,67.3463 24.5,68C 26.9073,64.839 29.9073,62.6724 33.5,61.5C 33.5394,60.4168 33.8728,59.4168 34.5,58.5C 30.374,57.182 26.374,57.5153 22.5,59.5C 21.8333,59.1667 21.1667,58.8333 20.5,58.5C 22.8333,57 25.1667,55.5 27.5,54C 26.4829,52.9505 26.3162,51.7839 27,50.5C 28.3333,48.5 29.6667,46.5 31,44.5C 36.7408,46.8291 42.4074,46.4958 48,43.5C 48.6667,44.1667 49.3333,44.8333 50,45.5C 50.7175,44.5494 51.5509,44.3828 52.5,45C 50.6667,46.8333 48.8333,48.6667 47,50.5C 47.1484,51.825 46.9817,52.9916 46.5,54C 47.6667,55.1667 48.8333,56.3333 50,57.5C 53.3441,55.9961 56.3441,53.9961 59,51.5C 58.9461,48.8094 60.1128,46.9761 62.5,46C 62.1667,45.6667 61.8333,45.3333 61.5,45C 64.2342,44.7896 66.7342,43.9563 69,42.5C 69.1583,38.7771 68.6583,35.1104 67.5,31.5C 69.2331,28.9413 70.7331,26.2746 72,23.5C 74.3927,21.3147 76.5593,18.9813 78.5,16.5 Z"/></g>
<g><path style="opacity:1" fill="#2c254d" d="M 255.5,21.5 C 255.5,31.1667 255.5,40.8333 255.5,50.5C 253.858,48.9192 251.858,48.2525 249.5,48.5C 249.376,43.0688 250.376,37.9021 252.5,33C 249.059,28.4265 250.059,24.5931 255.5,21.5 Z"/></g>
<g><path style="opacity:1" fill="#1e2645" d="M 233.5,27.5 C 231.6,31.281 232.266,34.4476 235.5,37C 234.065,36.6888 232.732,36.8555 231.5,37.5C 230.447,40.8151 230.447,44.1485 231.5,47.5C 233.95,47.702 236.283,47.3686 238.5,46.5C 237.37,48.3146 236.704,50.3146 236.5,52.5C 234.516,52.6168 232.85,51.9501 231.5,50.5C 230.817,50.8627 230.15,51.1961 229.5,51.5C 227.35,46.5695 225.35,41.5695 223.5,36.5C 223.48,30.2469 221.98,29.9135 219,35.5C 218.333,38.1667 218.333,40.8333 219,43.5C 219.383,44.056 219.883,44.3893 220.5,44.5C 224.325,51.4793 228.658,58.146 233.5,64.5C 232.06,63.6371 230.726,63.6371 229.5,64.5C 227.812,62.1455 225.812,60.1455 223.5,58.5C 223.414,57.5041 223.748,56.6708 224.5,56C 223.874,55.2496 223.374,54.4162 223,53.5C 217.165,52.1563 212.998,48.823 210.5,43.5C 211.576,40.3516 212.909,37.3516 214.5,34.5C 217.059,31.0672 219.392,27.4005 221.5,23.5C 223.565,22.1433 225.565,20.81 227.5,19.5C 231.389,19.0524 231.556,20.3858 228,23.5C 227.966,25.1796 227.799,26.6796 227.5,28C 229.163,28.2649 230.663,27.7649 232,26.5C 232.383,27.056 232.883,27.3893 233.5,27.5 Z"/></g>
<g><path style="opacity:1" fill="#446593" d="M 223.5,36.5 C 222.504,36.5858 221.671,36.2524 221,35.5C 220.502,38.4816 220.335,41.4816 220.5,44.5C 219.883,44.3893 219.383,44.056 219,43.5C 218.333,40.8333 218.333,38.1667 219,35.5C 221.98,29.9135 223.48,30.2469 223.5,36.5 Z"/></g>
<g><path style="opacity:1" fill="#508fd1" d="M 223.5,36.5 C 225.35,41.5695 227.35,46.5695 229.5,51.5C 234.3,58.2137 237.967,65.547 240.5,73.5C 239.022,74.4475 238.022,75.7809 237.5,77.5C 238.162,72.505 236.828,68.1716 233.5,64.5C 228.658,58.146 224.325,51.4793 220.5,44.5C 220.335,41.4816 220.502,38.4816 221,35.5C 221.671,36.2524 222.504,36.5858 223.5,36.5 Z"/></g>
<g><path style="opacity:1" fill="#4e8db3" d="M 89.5,47.5 C 89.5,47.8333 89.5,48.1667 89.5,48.5C 85.3526,50.0519 83.3526,48.3853 83.5,43.5C 84.552,43.3505 85.552,43.5172 86.5,44C 87.1634,45.5185 88.1634,46.6851 89.5,47.5 Z"/></g>
<g><path style="opacity:1" fill="#2fb4ba" d="M 137.5,32.5 C 137.833,33.1667 138.167,33.8333 138.5,34.5C 143.162,43.1576 147.829,51.8243 152.5,60.5C 153.349,63.6811 155.015,66.3477 157.5,68.5C 157.062,69.5063 156.396,69.5063 155.5,68.5C 152.203,65.2635 149.37,61.5969 147,57.5C 143.502,49.8378 140.002,42.1711 136.5,34.5C 136.328,33.5084 136.662,32.8417 137.5,32.5 Z"/></g>
<g><path style="opacity:1" fill="#0d232e" d="M 127.5,47.5 C 125.41,44.9561 123.743,42.1227 122.5,39C 118.929,38.141 115.929,38.9743 113.5,41.5C 112.29,41.9321 111.29,42.5987 110.5,43.5C 107.741,47.4177 108.075,51.251 111.5,55C 113.847,55.4361 116.181,55.9361 118.5,56.5C 120.494,55.5108 122.494,54.5108 124.5,53.5C 124.932,54.7095 125.599,55.7095 126.5,56.5C 126.027,57.9063 125.027,58.573 123.5,58.5C 119.715,60.1587 115.715,60.6587 111.5,60C 109.333,59.1667 107.833,57.6667 107,55.5C 104.636,45.8652 107.803,39.1985 116.5,35.5C 118.592,35.4386 120.092,34.4386 121,32.5C 123.57,33.009 125.903,34.009 128,35.5C 128.762,39.5874 128.596,43.5874 127.5,47.5 Z"/></g>
<g><path style="opacity:1" fill="#686ab3" d="M 161.5,34.5 C 161.616,37.8599 161.949,41.1933 162.5,44.5C 168.388,44.3138 174.054,42.9805 179.5,40.5C 180.245,42.7471 181.578,44.5804 183.5,46C 182.167,47.6667 182.167,49.3333 183.5,51C 182.756,52.0386 181.756,52.5386 180.5,52.5C 179.313,50.0246 177.313,49.0246 174.5,49.5C 174.5,48.1667 174.5,46.8333 174.5,45.5C 171.138,45.0695 168.305,46.0695 166,48.5C 165.667,48.1667 165.333,47.8333 165,47.5C 164.311,48.3567 163.478,49.0233 162.5,49.5C 160.893,44.9552 159.559,40.2885 158.5,35.5C 159.391,34.8902 160.391,34.5569 161.5,34.5 Z"/></g>
<g><path style="opacity:1" fill="#8a86d8" d="M 157.5,31.5 C 157.833,31.5 158.167,31.5 158.5,31.5C 158.5,32.8333 158.5,34.1667 158.5,35.5C 159.559,40.2885 160.893,44.9552 162.5,49.5C 163.478,49.0233 164.311,48.3567 165,47.5C 165.333,47.8333 165.667,48.1667 166,48.5C 168.305,46.0695 171.138,45.0695 174.5,45.5C 174.5,46.8333 174.5,48.1667 174.5,49.5C 177.313,49.0246 179.313,50.0246 180.5,52.5C 180.167,53.1667 179.833,53.8333 179.5,54.5C 177.435,54.4828 175.435,54.1495 173.5,53.5C 168.003,52.3705 162.67,51.0371 157.5,49.5C 156.032,47.0842 155.365,44.4175 155.5,41.5C 155.155,37.8849 155.822,34.5516 157.5,31.5 Z"/></g>
<g><path style="opacity:1" fill="#275671" d="M 83.5,26.5 C 84.5665,28.964 85.8998,31.2974 87.5,33.5C 88.0283,34.8474 88.195,36.1807 88,37.5C 86.0797,34.6612 84.4131,31.6612 83,28.5C 81.984,29.6341 81.3173,29.3008 81,27.5C 80.8301,29.8454 81.1635,32.1788 82,34.5C 85.5531,38.2787 88.0531,42.6121 89.5,47.5C 88.1634,46.6851 87.1634,45.5185 86.5,44C 85.552,43.5172 84.552,43.3505 83.5,43.5C 83.3526,48.3853 85.3526,50.0519 89.5,48.5C 90.4767,51.2869 90.81,54.2869 90.5,57.5C 90.1667,57.5 89.8333,57.5 89.5,57.5C 87.629,57.1412 86.129,56.1412 85,54.5C 83.6233,52.2462 82.1233,50.0795 80.5,48C 78.0658,47.6671 77.0658,48.8338 77.5,51.5C 77.1667,51.5 76.8333,51.5 76.5,51.5C 76.6972,47.6296 77.5306,43.9629 79,40.5C 79.4992,35.8452 79.6658,31.1785 79.5,26.5C 81.1388,26.9258 82.4721,26.9258 83.5,26.5 Z"/></g>
<g><path style="opacity:1" fill="#424f8a" d="M 164.5,27.5 C 164.89,30.8394 165.39,34.1727 166,37.5C 166.777,39.2148 168.11,40.2148 170,40.5C 172.808,37.0032 176.308,34.3365 180.5,32.5C 181.515,33.4602 181.515,34.6269 180.5,36C 184.347,38.8616 186.181,42.695 186,47.5C 186.645,48.646 187.478,49.646 188.5,50.5C 186.838,52.6517 184.838,54.3183 182.5,55.5C 181.391,55.4431 180.391,55.1098 179.5,54.5C 179.833,53.8333 180.167,53.1667 180.5,52.5C 181.756,52.5386 182.756,52.0386 183.5,51C 182.167,49.3333 182.167,47.6667 183.5,46C 181.578,44.5804 180.245,42.7471 179.5,40.5C 174.054,42.9805 168.388,44.3138 162.5,44.5C 161.949,41.1933 161.616,37.8599 161.5,34.5C 162.656,32.1761 163.656,29.8428 164.5,27.5 Z"/></g>
<g><path style="opacity:1" fill="#131e31" d="M 255.5,8.5 C 255.5,12.8333 255.5,17.1667 255.5,21.5C 250.059,24.5931 249.059,28.4265 252.5,33C 250.376,37.9021 249.376,43.0688 249.5,48.5C 251.858,48.2525 253.858,48.9192 255.5,50.5C 255.5,56.5 255.5,62.5 255.5,68.5C 254.834,71.3583 254.167,74.3583 253.5,77.5C 251.851,76.3523 250.351,75.019 249,73.5C 246.675,69.8377 245.342,65.8377 245,61.5C 241.923,59.6981 241.757,57.6981 244.5,55.5C 244.471,53.9707 243.804,52.804 242.5,52C 243.308,51.6924 243.975,51.1924 244.5,50.5C 243.25,47.9514 241.25,46.618 238.5,46.5C 236.283,47.3686 233.95,47.702 231.5,47.5C 230.447,44.1485 230.447,40.8151 231.5,37.5C 232.732,36.8555 234.065,36.6888 235.5,37C 232.266,34.4476 231.6,31.281 233.5,27.5C 235.117,26.4107 235.95,24.744 236,22.5C 239.7,20.3009 242.533,17.3009 244.5,13.5C 245.086,13.7093 245.586,14.0426 246,14.5C 248.801,11.8533 251.968,9.85333 255.5,8.5 Z"/></g>
<g><path style="opacity:1" fill="#041016" d="M 107.5,9.5 C 107.795,11.4233 108.628,13.0899 110,14.5C 110.728,11.8132 111.895,9.47986 113.5,7.5C 113.833,7.5 114.167,7.5 114.5,7.5C 115.167,8.16667 115.833,8.83333 116.5,9.5C 116.351,10.552 116.517,11.552 117,12.5C 121.037,16.369 124.87,20.369 128.5,24.5C 131.577,27.5693 134.244,30.9026 136.5,34.5C 140.002,42.1711 143.502,49.8378 147,57.5C 149.37,61.5969 152.203,65.2635 155.5,68.5C 157.529,74.0481 161.529,77.5481 167.5,79C 170.146,79.4974 172.813,79.6641 175.5,79.5C 175.785,77.712 175.452,76.0453 174.5,74.5C 168.535,73.8579 163.868,71.1913 160.5,66.5C 160.5,66.1667 160.5,65.8333 160.5,65.5C 160.735,64.9033 161.235,64.5699 162,64.5C 166.653,68.6672 172.153,71.0006 178.5,71.5C 183.011,70.7915 187.345,69.9581 191.5,69C 191.957,69.414 192.291,69.914 192.5,70.5C 189.102,73.6267 186.435,77.2934 184.5,81.5C 182.348,83.0783 180.014,84.4117 177.5,85.5C 178.602,86.1757 179.602,86.8423 180.5,87.5C 181.044,89.7155 182.044,91.7155 183.5,93.5C 181.833,95.1667 180.167,96.8333 178.5,98.5C 178.833,95.8333 179.167,93.1667 179.5,90.5C 173.58,91.5768 167.747,92.2435 162,92.5C 159.536,91.8392 157.036,91.3392 154.5,91C 152.383,89.2309 150.383,87.3976 148.5,85.5C 147.115,84.3862 145.615,83.3862 144,82.5C 143.779,85.9431 142.779,86.2764 141,83.5C 140.751,84.624 140.251,85.624 139.5,86.5C 138.873,79.4169 136.207,73.2503 131.5,68C 131.667,67.5 131.833,67 132,66.5C 133.154,67.7433 134.488,68.7433 136,69.5C 135.516,66.2541 134.85,62.9208 134,59.5C 133.16,56.5363 132.16,56.203 131,58.5C 130.25,57.8742 129.416,57.3742 128.5,57C 129.595,54.025 129.262,53.8583 127.5,56.5C 127.167,56.5 126.833,56.5 126.5,56.5C 125.599,55.7095 124.932,54.7095 124.5,53.5C 126.385,51.9468 127.385,49.9468 127.5,47.5C 128.596,43.5874 128.762,39.5874 128,35.5C 125.903,34.009 123.57,33.009 121,32.5C 120.092,34.4386 118.592,35.4386 116.5,35.5C 115.928,33.7446 115.094,32.0779 114,30.5C 113.163,32.0074 111.996,32.5074 110.5,32C 112.707,29.0165 112.207,28.8498 109,31.5C 108.692,30.6919 108.192,30.0253 107.5,29.5C 106.5,30.8333 105.5,30.8333 104.5,29.5C 103.227,28.7435 103.227,28.0768 104.5,27.5C 106.833,27.5 109.167,27.5 111.5,27.5C 111.509,25.6916 111.009,24.0249 110,22.5C 108.391,19.5932 106.558,16.9266 104.5,14.5C 103.5,12.8333 102.167,11.5 100.5,10.5C 98.5615,8.83724 96.2282,8.17057 93.5,8.5C 92.6618,8.15829 92.3284,7.49162 92.5,6.5C 93.8068,5.84661 95.1401,5.17994 96.5,4.5C 100.312,5.90691 103.978,7.57358 107.5,9.5 Z"/></g>
<g><path style="opacity:1" fill="#384b78" d="M 74.5,39.5 C 74.5,42.5 74.5,45.5 74.5,48.5C 68.5011,53.1682 62.8344,58.1682 57.5,63.5C 57.1667,63.5 56.8333,63.5 56.5,63.5C 55.2618,62.5876 53.9285,62.4209 52.5,63C 50.2657,64.7498 47.9324,66.2498 45.5,67.5C 47.2941,65.2034 49.2941,63.0367 51.5,61C 55.4947,59.5609 59.1614,57.5609 62.5,55C 64.6838,50.8083 68.0171,48.1416 72.5,47C 73.1233,44.3927 73.79,41.8927 74.5,39.5 Z"/></g>
<g><path style="opacity:1" fill="#5da5e4" d="M 137.5,22.5 C 138.643,22.9081 139.643,23.5748 140.5,24.5C 144.051,31.0281 146.218,38.0281 147,45.5C 147.852,46.5707 148.685,47.5707 149.5,48.5C 149.281,49.675 149.614,50.675 150.5,51.5C 153.083,53.7488 155.417,56.0822 157.5,58.5C 157.833,59.8333 158.167,61.1667 158.5,62.5C 158.5,62.8333 158.5,63.1667 158.5,63.5C 156.941,61.7499 154.941,60.7499 152.5,60.5C 147.829,51.8243 143.162,43.1576 138.5,34.5C 139.124,34.0831 139.457,33.4164 139.5,32.5C 138.763,30.0297 137.763,27.6964 136.5,25.5C 136.461,24.4168 136.127,23.4168 135.5,22.5C 135.97,21.537 136.637,21.537 137.5,22.5 Z"/></g>
<g><path style="opacity:1" fill="#9dc8f9" d="M 149.5,48.5 C 151.735,48.2053 153.735,48.5386 155.5,49.5C 155.062,49.4346 154.728,49.6012 154.5,50C 155.066,50.9947 155.733,51.828 156.5,52.5C 156.325,54.6208 156.659,56.6208 157.5,58.5C 155.417,56.0822 153.083,53.7488 150.5,51.5C 149.614,50.675 149.281,49.675 149.5,48.5 Z"/></g>
<g><path style="opacity:1" fill="#a8f5fa" d="M 155.5,49.5 C 156.167,49.5 156.833,49.5 157.5,49.5C 162.67,51.0371 168.003,52.3705 173.5,53.5C 172.89,54.391 172.557,55.391 172.5,56.5C 171.833,56.5 171.167,56.5 170.5,56.5C 165.663,55.6393 160.996,54.3059 156.5,52.5C 155.733,51.828 155.066,50.9947 154.5,50C 154.728,49.6012 155.062,49.4346 155.5,49.5 Z"/></g>
<g><path style="opacity:1" fill="#173f50" d="M 127.5,47.5 C 127.385,49.9468 126.385,51.9468 124.5,53.5C 122.494,54.5108 120.494,55.5108 118.5,56.5C 116.181,55.9361 113.847,55.4361 111.5,55C 108.075,51.251 107.741,47.4177 110.5,43.5C 109.059,54.3057 112.559,56.3057 121,49.5C 123.581,41.6634 121.081,38.9967 113.5,41.5C 115.929,38.9743 118.929,38.141 122.5,39C 123.743,42.1227 125.41,44.9561 127.5,47.5 Z"/></g>
<g><path style="opacity:1" fill="#e7f5fc" d="M 114.5,44.5 C 115.552,44.3505 116.552,44.5172 117.5,45C 116.269,46.4048 114.936,47.5714 113.5,48.5C 111.14,47.0924 111.474,45.7591 114.5,44.5 Z"/></g>
<g><path style="opacity:1" fill="#7195ad" d="M 173.5,53.5 C 175.435,54.1495 177.435,54.4828 179.5,54.5C 180.391,55.1098 181.391,55.4431 182.5,55.5C 183.167,55.5 183.833,55.5 184.5,55.5C 184.5,55.8333 184.5,56.1667 184.5,56.5C 181.211,57.3739 177.877,58.0405 174.5,58.5C 174.167,57.5 173.5,56.8333 172.5,56.5C 172.557,55.391 172.89,54.391 173.5,53.5 Z"/></g>
<g><path style="opacity:1" fill="#000405" d="M 118.5,75.5 C 117.167,76.8333 115.833,76.8333 114.5,75.5C 113.432,74.5655 112.099,74.2322 110.5,74.5C 110.5,79.5 110.5,84.5 110.5,89.5C 110.479,96.8536 110.813,104.187 111.5,111.5C 110.883,111.389 110.383,111.056 110,110.5C 109.212,116.22 109.379,121.886 110.5,127.5C 104.358,142.041 102.358,141.707 104.5,126.5C 101.003,126.995 100.003,128.828 101.5,132C 98.8374,135.494 96.8374,139.327 95.5,143.5C 91.1667,143.5 86.8333,143.5 82.5,143.5C 81.2129,138.927 79.3796,134.594 77,130.5C 76.5065,128.866 76.3398,127.199 76.5,125.5C 77.5,125.5 78.5,125.5 79.5,125.5C 80.287,127.104 81.6203,127.771 83.5,127.5C 83.4914,129.308 83.9914,130.975 85,132.5C 85.1667,128.667 85.3333,124.833 85.5,121C 84.4209,107.765 84.4209,94.5988 85.5,81.5C 85.8333,80.8333 86.1667,80.1667 86.5,79.5C 90.1667,79.5 93.8333,79.5 97.5,79.5C 96.2961,74.1509 94.9627,68.8176 93.5,63.5C 94.8047,61.1843 96.138,58.851 97.5,56.5C 101.07,58.5815 104.737,60.4148 108.5,62C 109.637,64.4572 111.137,66.6238 113,68.5C 113.718,67.5494 114.551,67.3828 115.5,68C 114.902,70.9927 115.902,73.4927 118.5,75.5 Z"/></g>
<g><path style="opacity:1" fill="#6cf7fa" d="M 156.5,52.5 C 160.996,54.3059 165.663,55.6393 170.5,56.5C 170.389,57.1174 170.056,57.6174 169.5,58C 166.12,58.3386 162.787,58.8386 159.5,59.5C 158.833,59.1667 158.167,58.8333 157.5,58.5C 156.659,56.6208 156.325,54.6208 156.5,52.5 Z"/></g>
<g><path style="opacity:1" fill="#3f3c56" d="M 76.5,51.5 C 76.8333,51.5 77.1667,51.5 77.5,51.5C 79.0265,52.4919 79.6932,53.9919 79.5,56C 79.0828,58.4979 78.7495,60.9979 78.5,63.5C 77.8333,63.8333 77.1667,64.1667 76.5,64.5C 76.5,60.1667 76.5,55.8333 76.5,51.5 Z"/></g>
<g><path style="opacity:1" fill="#4ab6b8" d="M 170.5,56.5 C 171.167,56.5 171.833,56.5 172.5,56.5C 173.5,56.8333 174.167,57.5 174.5,58.5C 171.249,59.9677 167.749,60.9677 164,61.5C 161.992,61.6932 160.492,61.0265 159.5,59.5C 162.787,58.8386 166.12,58.3386 169.5,58C 170.056,57.6174 170.389,57.1174 170.5,56.5 Z"/></g>
<g><path style="opacity:1" fill="#4b5894" d="M 74.5,48.5 C 74.5,49.8333 74.5,51.1667 74.5,52.5C 72.9705,53.0668 71.4705,53.7334 70,54.5C 69.7489,56.433 69.2489,58.2663 68.5,60C 65.2084,62.3107 61.5417,63.4774 57.5,63.5C 62.8344,58.1682 68.5011,53.1682 74.5,48.5 Z"/></g>
<g><path style="opacity:1" fill="#2a6b71" d="M 184.5,56.5 C 182.35,58.6327 179.35,60.4661 175.5,62C 169.843,62.4994 164.176,62.6661 158.5,62.5C 158.167,61.1667 157.833,59.8333 157.5,58.5C 158.167,58.8333 158.833,59.1667 159.5,59.5C 160.492,61.0265 161.992,61.6932 164,61.5C 167.749,60.9677 171.249,59.9677 174.5,58.5C 177.877,58.0405 181.211,57.3739 184.5,56.5 Z"/></g>
<g><path style="opacity:1" fill="#223160" d="M -0.5,55.5 C 2.84815,58.8514 5.84815,62.5181 8.5,66.5C 8.2648,67.0967 7.7648,67.4301 7,67.5C 4.13805,67.1554 1.63805,66.1554 -0.5,64.5C -0.5,61.5 -0.5,58.5 -0.5,55.5 Z"/></g>
<g><path style="opacity:1" fill="#676cb1" d="M 74.5,52.5 C 74.9843,56.8274 74.3177,60.8274 72.5,64.5C 68.1338,66.3713 63.4671,67.038 58.5,66.5C 57.1667,66.5 55.8333,66.5 54.5,66.5C 55.1667,65.5 55.8333,64.5 56.5,63.5C 56.8333,63.5 57.1667,63.5 57.5,63.5C 61.5417,63.4774 65.2084,62.3107 68.5,60C 69.2489,58.2663 69.7489,56.433 70,54.5C 71.4705,53.7334 72.9705,53.0668 74.5,52.5 Z"/></g>
<g><path style="opacity:1" fill="#4572a5" d="M -0.5,52.5 C 0.5,52.8333 1.16667,53.5 1.5,54.5C 4.83333,58.5 8.16667,62.5 11.5,66.5C 13.5,69.1667 15.8333,71.5 18.5,73.5C 18.8333,74.1667 19.1667,74.8333 19.5,75.5C 17.965,74.6457 16.6316,74.6457 15.5,75.5C 14.8333,75.1667 14.1667,74.8333 13.5,74.5C 13.2986,70.8698 11.632,68.2031 8.5,66.5C 5.84815,62.5181 2.84815,58.8514 -0.5,55.5C -0.5,54.5 -0.5,53.5 -0.5,52.5 Z"/></g>
<g><path style="opacity:1" fill="#3f6f83" d="M 213.5,71.5 C 209.85,69.5283 206.184,67.5283 202.5,65.5C 200.5,64.5 198.5,63.5 196.5,62.5C 196.833,61.5 197.5,60.8333 198.5,60.5C 200.886,61.2981 203.22,62.2981 205.5,63.5C 206.298,63.0431 206.631,62.3764 206.5,61.5C 206.5,59.8333 206.5,58.1667 206.5,56.5C 208.827,56.2471 210.827,56.9137 212.5,58.5C 213.492,62.7828 213.826,67.1161 213.5,71.5 Z"/></g>
<g><path style="opacity:1" fill="#41bbf0" d="M 152.5,60.5 C 154.941,60.7499 156.941,61.7499 158.5,63.5C 158.833,64.5 159.5,65.1667 160.5,65.5C 160.5,65.8333 160.5,66.1667 160.5,66.5C 160.179,68.0481 159.179,68.7148 157.5,68.5C 155.015,66.3477 153.349,63.6811 152.5,60.5 Z"/></g>
<g><path style="opacity:1" fill="#0e2b37" d="M 89.5,57.5 C 88.8163,59.1852 87.483,60.1852 85.5,60.5C 85.1667,62.5 84.8333,64.5 84.5,66.5C 85.251,70.7536 85.251,74.9202 84.5,79C 85.0944,79.4643 85.7611,79.631 86.5,79.5C 86.1667,80.1667 85.8333,80.8333 85.5,81.5C 84.1667,79.5 82.8333,77.5 81.5,75.5C 79.78,73.3419 78.9467,70.6752 79,67.5C 78.6174,68.056 78.1174,68.3893 77.5,68.5C 77.6287,66.7839 77.962,65.1172 78.5,63.5C 78.7495,60.9979 79.0828,58.4979 79.5,56C 79.6932,53.9919 79.0265,52.4919 77.5,51.5C 77.0658,48.8338 78.0658,47.6671 80.5,48C 82.1233,50.0795 83.6233,52.2462 85,54.5C 86.129,56.1412 87.629,57.1412 89.5,57.5 Z"/></g>
<g><path style="opacity:1" fill="#112f36" d="M 184.5,56.5 C 184.5,56.1667 184.5,55.8333 184.5,55.5C 184.833,55.5 185.167,55.5 185.5,55.5C 190.205,56.3584 194.538,58.0251 198.5,60.5C 197.5,60.8333 196.833,61.5 196.5,62.5C 194.528,63.451 192.528,64.451 190.5,65.5C 193.083,67.5906 196.083,68.9239 199.5,69.5C 200.117,69.6107 200.617,69.944 201,70.5C 201.278,69.5842 201.778,68.9175 202.5,68.5C 202.5,69.5 202.5,70.5 202.5,71.5C 202.567,72.9587 202.234,74.2921 201.5,75.5C 196.414,74.7968 192.081,76.6301 188.5,81C 187.207,81.49 185.873,81.6567 184.5,81.5C 186.435,77.2934 189.102,73.6267 192.5,70.5C 192.291,69.914 191.957,69.414 191.5,69C 187.345,69.9581 183.011,70.7915 178.5,71.5C 172.153,71.0006 166.653,68.6672 162,64.5C 161.235,64.5699 160.735,64.9033 160.5,65.5C 159.5,65.1667 158.833,64.5 158.5,63.5C 158.5,63.1667 158.5,62.8333 158.5,62.5C 164.176,62.6661 169.843,62.4994 175.5,62C 179.35,60.4661 182.35,58.6327 184.5,56.5 Z"/></g>
<g><path style="opacity:1" fill="#081e25" d="M 183.5,60.5 C 185.482,60.9954 187.482,61.4954 189.5,62C 188.833,63 188.167,64 187.5,65C 182.773,67.2018 177.939,67.7018 173,66.5C 172.833,66.1667 172.667,65.8333 172.5,65.5C 175.441,64.478 178.441,63.6446 181.5,63C 182.381,62.2917 183.047,61.4584 183.5,60.5 Z"/></g>
<g><path style="opacity:1" fill="#0e1926" d="M 223.5,58.5 C 225.812,60.1455 227.812,62.1455 229.5,64.5C 230.726,63.6371 232.06,63.6371 233.5,64.5C 236.828,68.1716 238.162,72.505 237.5,77.5C 236.727,81.1402 236.06,84.8068 235.5,88.5C 235.167,88.5 234.833,88.5 234.5,88.5C 234.167,88.5 233.833,88.5 233.5,88.5C 232.924,84.156 232.591,79.8227 232.5,75.5C 231.273,73.4195 229.773,71.4195 228,69.5C 227.586,69.9574 227.086,70.2907 226.5,70.5C 225.757,69.0921 224.923,67.7588 224,66.5C 223.517,67.448 223.351,68.448 223.5,69.5C 221.548,68.5919 219.548,68.7586 217.5,70C 216.601,71.6516 215.601,73.1516 214.5,74.5C 214.5,69.1667 214.5,63.8333 214.5,58.5C 216.451,58.2267 217.951,58.8934 219,60.5C 220.33,59.4178 221.83,58.7512 223.5,58.5 Z"/></g>
<g><path style="opacity:1" fill="#35858c" d="M 196.5,62.5 C 196.15,65.4534 197.15,67.7867 199.5,69.5C 196.083,68.9239 193.083,67.5906 190.5,65.5C 192.528,64.451 194.528,63.451 196.5,62.5 Z"/></g>
<g><path style="opacity:1" fill="#191830" d="M 196.5,62.5 C 198.5,63.5 200.5,64.5 202.5,65.5C 202.782,66.7777 203.449,67.7777 204.5,68.5C 203.833,68.5 203.167,68.5 202.5,68.5C 201.778,68.9175 201.278,69.5842 201,70.5C 200.617,69.944 200.117,69.6107 199.5,69.5C 197.15,67.7867 196.15,65.4534 196.5,62.5 Z"/></g>
<g><path style="opacity:1" fill="#011118" d="M 223.5,69.5 C 223.703,71.3904 223.037,72.8904 221.5,74C 222.337,75.0113 222.67,76.1779 222.5,77.5C 221.883,77.3893 221.383,77.056 221,76.5C 220.206,79.4715 219.539,82.4715 219,85.5C 213.293,94.4072 210.46,103.741 210.5,113.5C 208.615,114.197 208.282,115.197 209.5,116.5C 208.137,117.893 207.304,119.559 207,121.5C 204.939,122.267 202.772,123.6 200.5,125.5C 200.297,123.956 199.63,122.622 198.5,121.5C 201.421,115.99 204.087,110.323 206.5,104.5C 205.768,100.428 203.768,97.095 200.5,94.5C 198.131,95.9013 195.964,97.5679 194,99.5C 193.346,104.154 191.179,107.821 187.5,110.5C 186.353,112.765 186.186,115.098 187,117.5C 190.298,120.363 191.465,123.696 190.5,127.5C 185.581,124.934 183.248,120.934 183.5,115.5C 183.557,114.391 183.89,113.391 184.5,112.5C 185.5,109.833 186.5,107.167 187.5,104.5C 188.088,101.111 189.421,98.1113 191.5,95.5C 194.681,90.482 198.348,85.8153 202.5,81.5C 204.296,80.2073 205.963,78.7073 207.5,77C 205.775,77.4087 204.108,77.2421 202.5,76.5C 202.855,75.4777 203.522,74.811 204.5,74.5C 206.91,75.4385 209.244,75.4385 211.5,74.5C 212.5,74.5 213.5,74.5 214.5,74.5C 215.601,73.1516 216.601,71.6516 217.5,70C 219.548,68.7586 221.548,68.5919 223.5,69.5 Z"/></g>
<g><path style="opacity:1" fill="#28848d" d="M 202.5,68.5 C 203.167,68.5 203.833,68.5 204.5,68.5C 207.117,69.7859 209.45,71.4525 211.5,73.5C 211.5,73.8333 211.5,74.1667 211.5,74.5C 209.244,75.4385 206.91,75.4385 204.5,74.5C 204.573,72.9731 203.906,71.9731 202.5,71.5C 202.5,70.5 202.5,69.5 202.5,68.5 Z"/></g>
<g><path style="opacity:1" fill="#49ccd4" d="M 72.5,64.5 C 73.4972,64.4701 74.1639,64.9701 74.5,66C 73.6777,68.4339 73.3444,70.9339 73.5,73.5C 73.2041,75.403 72.5375,77.0697 71.5,78.5C 70.2652,78.2786 69.2652,77.6119 68.5,76.5C 65.8068,77.8466 63.1401,79.1799 60.5,80.5C 60.1667,80.5 59.8333,80.5 59.5,80.5C 60.1098,79.609 60.4431,78.609 60.5,77.5C 62.8264,73.8185 66.1597,71.3185 70.5,70C 66.5138,69.5012 62.5138,69.3345 58.5,69.5C 57.4937,69.0623 57.4937,68.3957 58.5,67.5C 58.5,67.1667 58.5,66.8333 58.5,66.5C 63.4671,67.038 68.1338,66.3713 72.5,64.5 Z"/></g>
<g><path style="opacity:1" fill="#5b5180" d="M 202.5,65.5 C 206.184,67.5283 209.85,69.5283 213.5,71.5C 213.167,72.5 212.5,73.1667 211.5,73.5C 209.45,71.4525 207.117,69.7859 204.5,68.5C 203.449,67.7777 202.782,66.7777 202.5,65.5 Z"/></g>
<g><path style="opacity:1" fill="#241e3e" d="M -0.5,64.5 C 1.63805,66.1554 4.13805,67.1554 7,67.5C 7.7648,67.4301 8.2648,67.0967 8.5,66.5C 11.632,68.2031 13.2986,70.8698 13.5,74.5C 14.8851,79.0556 17.8851,82.2223 22.5,84C 27.1709,84.5375 31.8376,85.0375 36.5,85.5C 36.5,86.1667 36.5,86.8333 36.5,87.5C 29.7346,88.0629 23.2346,87.0629 17,84.5C 15.2449,82.0129 13.2449,79.6796 11,77.5C 10.51,76.2068 10.3433,74.8734 10.5,73.5C 8.5,73.8333 6.5,74.1667 4.5,74.5C 4.06033,71.2864 2.39367,68.953 -0.5,67.5C -0.5,66.5 -0.5,65.5 -0.5,64.5 Z"/></g>
<g><path style="opacity:1" fill="#4b5390" d="M 28.5,73.5 C 27.3406,75.2503 25.674,76.2503 23.5,76.5C 22.1667,76.1667 20.8333,75.8333 19.5,75.5C 19.1667,74.8333 18.8333,74.1667 18.5,73.5C 18.8656,72.3054 19.699,71.6387 21,71.5C 23.2097,73.1109 25.7097,73.7776 28.5,73.5 Z"/></g>
<g><path style="opacity:1" fill="#435892" d="M 56.5,63.5 C 55.8333,64.5 55.1667,65.5 54.5,66.5C 50.3384,70.8169 45.6717,74.6502 40.5,78C 38.5,78.6667 36.5,78.6667 34.5,78C 33.2388,75.9404 31.5721,74.4404 29.5,73.5C 31.631,72.6862 33.9644,72.1862 36.5,72C 39.4111,70.2389 42.4111,68.7389 45.5,67.5C 47.9324,66.2498 50.2657,64.7498 52.5,63C 53.9285,62.4209 55.2618,62.5876 56.5,63.5 Z"/></g>
<g><path style="opacity:1" fill="#464e70" d="M 58.5,69.5 C 62.5138,69.3345 66.5138,69.5012 70.5,70C 66.1597,71.3185 62.8264,73.8185 60.5,77.5C 58.8828,78.038 57.2161,78.3713 55.5,78.5C 54.9569,78.44 54.6236,78.1067 54.5,77.5C 56.6159,75.6001 57.9493,73.2668 58.5,70.5C 58.5,70.1667 58.5,69.8333 58.5,69.5 Z"/></g>
<g><path style="opacity:1" fill="#0e4748" d="M 160.5,66.5 C 163.868,71.1913 168.535,73.8579 174.5,74.5C 175.452,76.0453 175.785,77.712 175.5,79.5C 172.813,79.6641 170.146,79.4974 167.5,79C 161.529,77.5481 157.529,74.0481 155.5,68.5C 156.396,69.5063 157.062,69.5063 157.5,68.5C 159.179,68.7148 160.179,68.0481 160.5,66.5 Z"/></g>
<g><path style="opacity:1" fill="#89dbec" d="M 58.5,67.5 C 57.4937,68.3957 57.4937,69.0623 58.5,69.5C 58.5,69.8333 58.5,70.1667 58.5,70.5C 57.5041,70.4142 56.6708,70.7476 56,71.5C 52.8691,77.4683 48.3691,81.8016 42.5,84.5C 42.5,84.1667 42.5,83.8333 42.5,83.5C 45.9751,79.9499 49.4751,76.2832 53,72.5C 53.4637,69.3482 55.297,67.6815 58.5,67.5 Z"/></g>
<g><path style="opacity:1" fill="#29689f" d="M 78.5,63.5 C 77.962,65.1172 77.6287,66.7839 77.5,68.5C 77.1256,76.6633 75.7922,84.6633 73.5,92.5C 72.8826,92.6107 72.3826,92.944 72,93.5C 71.7679,92.2625 71.2679,91.2625 70.5,90.5C 70.5,89.8333 70.5,89.1667 70.5,88.5C 71.8086,87.376 72.4753,85.876 72.5,84C 72.0566,82.175 71.7233,80.3417 71.5,78.5C 72.5375,77.0697 73.2041,75.403 73.5,73.5C 74.8691,70.7016 75.8691,67.7016 76.5,64.5C 77.1667,64.1667 77.8333,63.8333 78.5,63.5 Z"/></g>
<g><path style="opacity:1" fill="#608baa" d="M 58.5,70.5 C 57.9493,73.2668 56.6159,75.6001 54.5,77.5C 54.6236,78.1067 54.9569,78.44 55.5,78.5C 55.0679,79.7095 54.4013,80.7095 53.5,81.5C 53.5654,81.0618 53.3988,80.7284 53,80.5C 50.54,81.9578 48.3734,83.7911 46.5,86C 45.0715,86.5791 43.7382,86.4124 42.5,85.5C 42.5,85.1667 42.5,84.8333 42.5,84.5C 48.3691,81.8016 52.8691,77.4683 56,71.5C 56.6708,70.7476 57.5041,70.4142 58.5,70.5 Z"/></g>
<g><path style="opacity:1" fill="#0f3a43" d="M 149.5,72.5 C 152.324,74.7996 154.157,77.7996 155,81.5C 158.256,83.8793 161.756,85.8793 165.5,87.5C 166.386,88.325 166.719,89.325 166.5,90.5C 162.806,90.1518 159.806,88.4851 157.5,85.5C 154.407,84.6397 151.573,83.3064 149,81.5C 148.219,80.2713 147.719,78.938 147.5,77.5C 148.547,75.9436 149.214,74.2769 149.5,72.5 Z"/></g>
<g><path style="opacity:1" fill="#2f3a2f" d="M 201.5,75.5 C 200.248,77.0009 199.248,78.6675 198.5,80.5C 197.833,80.8333 197.167,81.1667 196.5,81.5C 190.882,82.8146 185.548,84.8146 180.5,87.5C 179.602,86.8423 178.602,86.1757 177.5,85.5C 180.014,84.4117 182.348,83.0783 184.5,81.5C 185.873,81.6567 187.207,81.49 188.5,81C 192.081,76.6301 196.414,74.7968 201.5,75.5 Z"/></g>
<g><path style="opacity:1" fill="#073c41" d="M 81.5,75.5 C 80.3822,85.6449 79.3822,95.8116 78.5,106C 80.0479,109.665 80.7145,113.499 80.5,117.5C 79.5,117.5 78.5,117.5 77.5,117.5C 77.6653,113.818 77.4986,110.152 77,106.5C 75.7225,104.253 74.2225,102.253 72.5,100.5C 73.0916,97.8728 73.4249,95.2062 73.5,92.5C 75.7922,84.6633 77.1256,76.6633 77.5,68.5C 78.1174,68.3893 78.6174,68.056 79,67.5C 78.9467,70.6752 79.78,73.3419 81.5,75.5 Z"/></g>
<g><path style="opacity:1" fill="#032429" d="M 148.5,85.5 C 148.802,88.0593 148.468,90.3926 147.5,92.5C 147.34,88.7636 146.507,88.7636 145,92.5C 143.981,91.3128 142.814,90.3128 141.5,89.5C 139.827,91.0863 137.827,91.7529 135.5,91.5C 133.265,92.2288 131.431,93.5621 130,95.5C 127.366,95.0775 125.366,93.7441 124,91.5C 123.667,92.5 123.333,93.5 123,94.5C 122.667,94.1667 122.333,93.8333 122,93.5C 122.635,102.1 121.301,110.434 118,118.5C 116.806,116.377 116.14,114.043 116,111.5C 114.497,82.2552 113.33,82.2552 112.5,111.5C 112.167,111.5 111.833,111.5 111.5,111.5C 110.813,104.187 110.479,96.8536 110.5,89.5C 111.326,93.9819 111.826,98.6486 112,103.5C 112.301,95.4749 112.801,87.4749 113.5,79.5C 114.93,79.4208 116.264,79.7542 117.5,80.5C 118.085,82.8648 119.252,84.8648 121,86.5C 122.127,83.6229 122.794,80.6229 123,77.5C 123.941,75.9386 125.108,74.6053 126.5,73.5C 127.207,67.7773 127.54,62.1107 127.5,56.5C 129.262,53.8583 129.595,54.025 128.5,57C 129.416,57.3742 130.25,57.8742 131,58.5C 132.16,56.203 133.16,56.5363 134,59.5C 134.85,62.9208 135.516,66.2541 136,69.5C 134.488,68.7433 133.154,67.7433 132,66.5C 131.833,67 131.667,67.5 131.5,68C 136.207,73.2503 138.873,79.4169 139.5,86.5C 140.251,85.624 140.751,84.624 141,83.5C 142.779,86.2764 143.779,85.9431 144,82.5C 145.615,83.3862 147.115,84.3862 148.5,85.5 Z"/></g>
<g><path style="opacity:1" fill="#26acad" d="M 202.5,71.5 C 203.906,71.9731 204.573,72.9731 204.5,74.5C 203.522,74.811 202.855,75.4777 202.5,76.5C 204.108,77.2421 205.775,77.4087 207.5,77C 205.963,78.7073 204.296,80.2073 202.5,81.5C 201.167,81.1667 199.833,80.8333 198.5,80.5C 199.248,78.6675 200.248,77.0009 201.5,75.5C 202.234,74.2921 202.567,72.9587 202.5,71.5 Z"/></g>
<g><path style="opacity:1" fill="#877bc7" d="M 54.5,66.5 C 55.8333,66.5 57.1667,66.5 58.5,66.5C 58.5,66.8333 58.5,67.1667 58.5,67.5C 55.297,67.6815 53.4637,69.3482 53,72.5C 49.4751,76.2832 45.9751,79.9499 42.5,83.5C 36.5583,82.1451 30.5583,80.9784 24.5,80C 22.6269,79.0471 22.2935,77.8804 23.5,76.5C 25.674,76.2503 27.3406,75.2503 28.5,73.5C 28.8333,73.5 29.1667,73.5 29.5,73.5C 31.5721,74.4404 33.2388,75.9404 34.5,78C 36.5,78.6667 38.5,78.6667 40.5,78C 45.6717,74.6502 50.3384,70.8169 54.5,66.5 Z"/></g>
<g><path style="opacity:1" fill="#02090c" d="M 71.5,78.5 C 71.7233,80.3417 72.0566,82.175 72.5,84C 72.4753,85.876 71.8086,87.376 70.5,88.5C 68.5853,88.2155 66.9187,88.5489 65.5,89.5C 64.0549,91.5707 63.0549,93.904 62.5,96.5C 61.2276,99.9673 60.2276,103.634 59.5,107.5C 56.811,110.52 54.1444,113.52 51.5,116.5C 50.0027,114.71 49.336,112.544 49.5,110C 49.7398,105.448 51.0731,101.282 53.5,97.5C 52.6498,93.8675 52.6498,90.2009 53.5,86.5C 54.8333,84.5 56.5,82.8333 58.5,81.5C 57.9426,83.9491 57.9426,86.2825 58.5,88.5C 59.5,87.1667 60.5,85.8333 61.5,84.5C 60.7542,83.2638 60.4208,81.9305 60.5,80.5C 63.1401,79.1799 65.8068,77.8466 68.5,76.5C 69.2652,77.6119 70.2652,78.2786 71.5,78.5 Z"/></g>
<g><path style="opacity:1" fill="#433d75" d="M 246.5,91.5 C 245.206,90.7101 244.039,89.7101 243,88.5C 242.673,84.3709 241.84,80.3709 240.5,76.5C 240.5,76.1667 240.5,75.8333 240.5,75.5C 241.151,74.9094 241.818,74.2427 242.5,73.5C 244.368,73.9461 246.201,74.2795 248,74.5C 249.895,78.8515 249.895,83.1849 248,87.5C 247.25,88.1258 246.416,88.6258 245.5,89C 246.252,89.6708 246.586,90.5041 246.5,91.5 Z"/></g>
<g><path style="opacity:1" fill="#000a0d" d="M 232.5,75.5 C 232.591,79.8227 232.924,84.156 233.5,88.5C 232.867,97.1515 232.367,105.818 232,114.5C 229.151,115.378 226.651,116.711 224.5,118.5C 219.589,122.948 217.589,128.282 218.5,134.5C 217.122,135.234 215.622,135.901 214,136.5C 213.338,138.813 212.838,141.146 212.5,143.5C 196.5,143.5 180.5,143.5 164.5,143.5C 164.414,142.504 164.748,141.671 165.5,141C 170.001,138.584 174.334,135.917 178.5,133C 177.244,132.583 176.577,131.75 176.5,130.5C 177.167,130.5 177.5,130.167 177.5,129.5C 181.025,131.987 185.025,132.987 189.5,132.5C 192.167,132.167 194.833,131.833 197.5,131.5C 197.863,130.817 198.196,130.15 198.5,129.5C 199.674,128.486 200.34,127.153 200.5,125.5C 202.772,123.6 204.939,122.267 207,121.5C 207.304,119.559 208.137,117.893 209.5,116.5C 208.282,115.197 208.615,114.197 210.5,113.5C 210.46,103.741 213.293,94.4072 219,85.5C 219.539,82.4715 220.206,79.4715 221,76.5C 221.383,77.056 221.883,77.3893 222.5,77.5C 222.229,82.5889 220.729,87.2556 218,91.5C 217.664,98.4312 216.497,105.098 214.5,111.5C 216.592,111.439 218.092,110.439 219,108.5C 221.918,98.2442 223.918,87.9109 225,77.5C 225.368,76.09 226.201,75.09 227.5,74.5C 229.071,75.3094 230.738,75.6427 232.5,75.5 Z"/></g>
<g><path style="opacity:1" fill="#5cb0cc" d="M 240.5,73.5 C 240.5,74.1667 240.5,74.8333 240.5,75.5C 240.5,75.8333 240.5,76.1667 240.5,76.5C 239.778,76.9175 239.278,77.5842 239,78.5C 238.58,82.1914 238.08,85.8581 237.5,89.5C 236.508,89.6716 235.842,89.3382 235.5,88.5C 236.06,84.8068 236.727,81.1402 237.5,77.5C 238.022,75.7809 239.022,74.4475 240.5,73.5 Z"/></g>
<g><path style="opacity:1" fill="#4a3669" d="M 13.5,74.5 C 14.1667,74.8333 14.8333,75.1667 15.5,75.5C 21.3681,81.2679 28.3681,84.6012 36.5,85.5C 31.8376,85.0375 27.1709,84.5375 22.5,84C 17.8851,82.2223 14.8851,79.0556 13.5,74.5 Z"/></g>
<g><path style="opacity:1" fill="#7d96d4" d="M 19.5,75.5 C 20.8333,75.8333 22.1667,76.1667 23.5,76.5C 22.2935,77.8804 22.6269,79.0471 24.5,80C 30.5583,80.9784 36.5583,82.1451 42.5,83.5C 42.5,83.8333 42.5,84.1667 42.5,84.5C 42.5,84.8333 42.5,85.1667 42.5,85.5C 40.5,85.5 38.5,85.5 36.5,85.5C 28.3681,84.6012 21.3681,81.2679 15.5,75.5C 16.6316,74.6457 17.965,74.6457 19.5,75.5 Z"/></g>
<g><path style="opacity:1" fill="#4c6b5a" d="M 60.5,77.5 C 60.4431,78.609 60.1098,79.609 59.5,80.5C 58.8333,80.5 58.5,80.8333 58.5,81.5C 56.5,82.8333 54.8333,84.5 53.5,86.5C 52.2513,89.0873 51.2513,91.754 50.5,94.5C 50.5,93.1667 50.5,91.8333 50.5,90.5C 51.3705,87.8877 52.0372,85.221 52.5,82.5C 53.1667,82.5 53.5,82.1667 53.5,81.5C 54.4013,80.7095 55.0679,79.7095 55.5,78.5C 57.2161,78.3713 58.8828,78.038 60.5,77.5 Z"/></g>
<g><path style="opacity:1" fill="#084e54" d="M 126.5,56.5 C 126.833,56.5 127.167,56.5 127.5,56.5C 127.54,62.1107 127.207,67.7773 126.5,73.5C 125.108,74.6053 123.941,75.9386 123,77.5C 122.794,80.6229 122.127,83.6229 121,86.5C 119.252,84.8648 118.085,82.8648 117.5,80.5C 116.264,79.7542 114.93,79.4208 113.5,79.5C 112.801,87.4749 112.301,95.4749 112,103.5C 111.826,98.6486 111.326,93.9819 110.5,89.5C 110.5,84.5 110.5,79.5 110.5,74.5C 112.099,74.2322 113.432,74.5655 114.5,75.5C 113.26,77.3139 113.927,78.3139 116.5,78.5C 118.848,78.1517 120.182,76.8184 120.5,74.5C 124.041,69.6636 125.041,64.3303 123.5,58.5C 125.027,58.573 126.027,57.9063 126.5,56.5 Z"/></g>
<g><path style="opacity:1" fill="#209192" d="M 120.5,74.5 C 120.182,76.8184 118.848,78.1517 116.5,78.5C 113.927,78.3139 113.26,77.3139 114.5,75.5C 115.833,76.8333 117.167,76.8333 118.5,75.5C 119.167,75.1667 119.833,74.8333 120.5,74.5 Z"/></g>
<g><path style="opacity:1" fill="#766dba" d="M 240.5,76.5 C 241.84,80.3709 242.673,84.3709 243,88.5C 244.039,89.7101 245.206,90.7101 246.5,91.5C 248.845,94.075 251.845,95.075 255.5,94.5C 255.5,95.8333 255.5,97.1667 255.5,98.5C 249.907,96.7019 244.573,94.3686 239.5,91.5C 238.5,91.1667 237.833,90.5 237.5,89.5C 238.08,85.8581 238.58,82.1914 239,78.5C 239.278,77.5842 239.778,76.9175 240.5,76.5 Z"/></g>
<g><path style="opacity:1" fill="#1b5867" d="M -0.5,83.5 C -0.5,83.1667 -0.5,82.8333 -0.5,82.5C 2.29484,83.063 4.62817,84.3963 6.5,86.5C 10.9475,91.2836 14.6142,96.6169 17.5,102.5C 17.1667,102.5 16.8333,102.5 16.5,102.5C 13.9344,98.3912 11.1011,94.3912 8,90.5C 5.58378,87.5766 2.75045,85.2433 -0.5,83.5 Z"/></g>
<g><path style="opacity:1" fill="#2d305a" d="M 238.5,46.5 C 241.25,46.618 243.25,47.9514 244.5,50.5C 243.975,51.1924 243.308,51.6924 242.5,52C 243.804,52.804 244.471,53.9707 244.5,55.5C 241.757,57.6981 241.923,59.6981 245,61.5C 245.342,65.8377 246.675,69.8377 249,73.5C 250.351,75.019 251.851,76.3523 253.5,77.5C 254.167,74.3583 254.834,71.3583 255.5,68.5C 255.5,77.1667 255.5,85.8333 255.5,94.5C 251.845,95.075 248.845,94.075 246.5,91.5C 246.586,90.5041 246.252,89.6708 245.5,89C 246.416,88.6258 247.25,88.1258 248,87.5C 249.895,83.1849 249.895,78.8515 248,74.5C 246.201,74.2795 244.368,73.9461 242.5,73.5C 241.818,74.2427 241.151,74.9094 240.5,75.5C 240.5,74.8333 240.5,74.1667 240.5,73.5C 237.967,65.547 234.3,58.2137 229.5,51.5C 230.15,51.1961 230.817,50.8627 231.5,50.5C 232.85,51.9501 234.516,52.6168 236.5,52.5C 236.704,50.3146 237.37,48.3146 238.5,46.5 Z"/></g>
<g><path style="opacity:1" fill="#0c3a3c" d="M 59.5,80.5 C 59.8333,80.5 60.1667,80.5 60.5,80.5C 60.4208,81.9305 60.7542,83.2638 61.5,84.5C 60.5,85.8333 59.5,87.1667 58.5,88.5C 57.9426,86.2825 57.9426,83.9491 58.5,81.5C 58.5,80.8333 58.8333,80.5 59.5,80.5 Z"/></g>
<g><path style="opacity:1" fill="#03090c" d="M 22.5,101.5 C 24.4534,103.912 25.6201,106.579 26,109.5C 24.5198,106.183 22.0198,104.183 18.5,103.5C 18.5,102.833 18.1667,102.5 17.5,102.5C 14.6142,96.6169 10.9475,91.2836 6.5,86.5C 6.55999,85.9569 6.89333,85.6236 7.5,85.5C 10.5,87 13.5,88.5 16.5,90C 18.6253,93.75 20.6253,97.5833 22.5,101.5 Z"/></g>
<g><path style="opacity:1" fill="#000407" d="M 148.5,85.5 C 150.383,87.3976 152.383,89.2309 154.5,91C 157.036,91.3392 159.536,91.8392 162,92.5C 167.747,92.2435 173.58,91.5768 179.5,90.5C 179.167,93.1667 178.833,95.8333 178.5,98.5C 177.321,101.858 175.487,104.858 173,107.5C 172.51,108.793 172.343,110.127 172.5,111.5C 169.378,116.081 167.044,121.081 165.5,126.5C 161.008,131.083 158.675,136.749 158.5,143.5C 137.5,143.5 116.5,143.5 95.5,143.5C 96.8374,139.327 98.8374,135.494 101.5,132C 100.003,128.828 101.003,126.995 104.5,126.5C 102.358,141.707 104.358,142.041 110.5,127.5C 109.379,121.886 109.212,116.22 110,110.5C 110.383,111.056 110.883,111.389 111.5,111.5C 111.833,111.5 112.167,111.5 112.5,111.5C 112.056,118.827 111.723,126.16 111.5,133.5C 116.578,131.078 119.911,127.078 121.5,121.5C 123.548,116.893 125.715,112.227 128,107.5C 131.922,104.789 135.756,101.955 139.5,99C 141.833,98.6667 144.167,98.3333 146.5,98C 147.406,96.3005 147.739,94.4672 147.5,92.5C 148.468,90.3926 148.802,88.0593 148.5,85.5 Z"/></g>
<g><path style="opacity:1" fill="#45541b" d="M 196.5,81.5 C 194.84,86.1562 193.174,90.8228 191.5,95.5C 189.421,98.1113 188.088,101.111 187.5,104.5C 187.254,101.707 187.087,98.7067 187,95.5C 185.887,94.695 184.721,94.0283 183.5,93.5C 182.044,91.7155 181.044,89.7155 180.5,87.5C 185.548,84.8146 190.882,82.8146 196.5,81.5 Z"/></g>
<g><path style="opacity:1" fill="#064045" d="M 198.5,80.5 C 199.833,80.8333 201.167,81.1667 202.5,81.5C 198.348,85.8153 194.681,90.482 191.5,95.5C 193.174,90.8228 194.84,86.1562 196.5,81.5C 197.167,81.1667 197.833,80.8333 198.5,80.5 Z"/></g>
<g><path style="opacity:1" fill="#07111d" d="M -0.5,67.5 C 2.39367,68.953 4.06033,71.2864 4.5,74.5C 6.5,74.1667 8.5,73.8333 10.5,73.5C 10.3433,74.8734 10.51,76.2068 11,77.5C 13.2449,79.6796 15.2449,82.0129 17,84.5C 23.2346,87.0629 29.7346,88.0629 36.5,87.5C 35.7611,91.1763 34.4277,94.5096 32.5,97.5C 26.817,95.6839 22.1503,92.5172 18.5,88C 13.7215,86.4438 9.05484,84.6105 4.5,82.5C 3.01571,79.3831 2.01571,76.0498 1.5,72.5C 0.818153,71.7573 0.151487,71.0906 -0.5,70.5C -0.5,69.5 -0.5,68.5 -0.5,67.5 Z"/></g>
<g><path style="opacity:1" fill="#08393b" d="M 65.5,89.5 C 66.9187,88.5489 68.5853,88.2155 70.5,88.5C 70.5,89.1667 70.5,89.8333 70.5,90.5C 70.3404,92.153 69.6737,93.4863 68.5,94.5C 67.8333,94.5 67.1667,94.5 66.5,94.5C 68.18,92.2736 67.8466,90.6069 65.5,89.5 Z"/></g>
<g><path style="opacity:1" fill="#021e22" d="M 232.5,75.5 C 230.738,75.6427 229.071,75.3094 227.5,74.5C 226.201,75.09 225.368,76.09 225,77.5C 223.918,87.9109 221.918,98.2442 219,108.5C 218.092,110.439 216.592,111.439 214.5,111.5C 216.497,105.098 217.664,98.4312 218,91.5C 220.729,87.2556 222.229,82.5889 222.5,77.5C 222.67,76.1779 222.337,75.0113 221.5,74C 223.037,72.8904 223.703,71.3904 223.5,69.5C 223.351,68.448 223.517,67.448 224,66.5C 224.923,67.7588 225.757,69.0921 226.5,70.5C 227.086,70.2907 227.586,69.9574 228,69.5C 229.773,71.4195 231.273,73.4195 232.5,75.5 Z"/></g>
<g><path style="opacity:1" fill="#146c6c" d="M 65.5,89.5 C 67.8466,90.6069 68.18,92.2736 66.5,94.5C 66.8493,97.4629 65.8493,99.7962 63.5,101.5C 62.5481,99.9547 62.2148,98.288 62.5,96.5C 63.0549,93.904 64.0549,91.5707 65.5,89.5 Z"/></g>
<g><path style="opacity:1" fill="#031b43" d="M 70.5,90.5 C 71.2679,91.2625 71.7679,92.2625 72,93.5C 72.3826,92.944 72.8826,92.6107 73.5,92.5C 73.4249,95.2062 73.0916,97.8728 72.5,100.5C 71.1667,100.167 69.8333,99.8333 68.5,99.5C 68.5,97.8333 68.5,96.1667 68.5,94.5C 69.6737,93.4863 70.3404,92.153 70.5,90.5 Z"/></g>
<g><path style="opacity:1" fill="#072e35" d="M -0.5,70.5 C 0.151487,71.0906 0.818153,71.7573 1.5,72.5C 2.01571,76.0498 3.01571,79.3831 4.5,82.5C 9.05484,84.6105 13.7215,86.4438 18.5,88C 22.1503,92.5172 26.817,95.6839 32.5,97.5C 34.4277,94.5096 35.7611,91.1763 36.5,87.5C 36.5,86.8333 36.5,86.1667 36.5,85.5C 38.5,85.5 40.5,85.5 42.5,85.5C 43.7382,86.4124 45.0715,86.5791 46.5,86C 48.3734,83.7911 50.54,81.9578 53,80.5C 53.3988,80.7284 53.5654,81.0618 53.5,81.5C 53.5,82.1667 53.1667,82.5 52.5,82.5C 48.1862,85.3128 45.1862,89.1461 43.5,94C 45.4054,94.8261 45.7388,95.9928 44.5,97.5C 40.1844,96.5554 39.5177,94.5554 42.5,91.5C 41.7515,89.6675 40.7515,88.0009 39.5,86.5C 37.5334,90.3555 35.8667,94.3555 34.5,98.5C 33.5,99.1667 32.5,99.8333 31.5,100.5C 28.3388,99.0869 25.3388,97.4203 22.5,95.5C 22.1667,95.8333 21.8333,96.1667 21.5,96.5C 22.9501,97.8498 23.6168,99.5165 23.5,101.5C 23.1667,101.5 22.8333,101.5 22.5,101.5C 20.6253,97.5833 18.6253,93.75 16.5,90C 13.5,88.5 10.5,87 7.5,85.5C 6.89333,85.6236 6.55999,85.9569 6.5,86.5C 4.62817,84.3963 2.29484,83.063 -0.5,82.5C -0.5,78.5 -0.5,74.5 -0.5,70.5 Z"/></g>
<g><path style="opacity:1" fill="#01080b" d="M 52.5,82.5 C 52.0372,85.221 51.3705,87.8877 50.5,90.5C 47.1477,95.1945 45.4811,100.528 45.5,106.5C 44.3592,110.313 43.0259,114.146 41.5,118C 38.1597,116.358 34.493,115.192 30.5,114.5C 29.4433,109.452 27.11,105.119 23.5,101.5C 23.6168,99.5165 22.9501,97.8498 21.5,96.5C 21.8333,96.1667 22.1667,95.8333 22.5,95.5C 25.3388,97.4203 28.3388,99.0869 31.5,100.5C 32.5,99.8333 33.5,99.1667 34.5,98.5C 35.8667,94.3555 37.5334,90.3555 39.5,86.5C 40.7515,88.0009 41.7515,89.6675 42.5,91.5C 39.5177,94.5554 40.1844,96.5554 44.5,97.5C 45.7388,95.9928 45.4054,94.8261 43.5,94C 45.1862,89.1461 48.1862,85.3128 52.5,82.5 Z"/></g>
<g><path style="opacity:1" fill="#303c1f" d="M 50.5,90.5 C 50.5,91.8333 50.5,93.1667 50.5,94.5C 50.7063,100.068 49.2063,105.068 46,109.5C 45.5172,108.552 45.3505,107.552 45.5,106.5C 45.4811,100.528 47.1477,95.1945 50.5,90.5 Z"/></g>
<g><path style="opacity:1" fill="#66e5ea" d="M 234.5,88.5 C 234.833,88.5 235.167,88.5 235.5,88.5C 235.842,89.3382 236.508,89.6716 237.5,89.5C 237.833,90.5 238.5,91.1667 239.5,91.5C 244.448,95.6477 249.782,99.3144 255.5,102.5C 255.5,102.833 255.5,103.167 255.5,103.5C 248.194,102.014 241.86,98.6802 236.5,93.5C 236.167,92.5 235.5,91.8333 234.5,91.5C 234.5,90.5 234.5,89.5 234.5,88.5 Z"/></g>
<g><path style="opacity:1" fill="#b0e1f5" d="M 239.5,91.5 C 244.573,94.3686 249.907,96.7019 255.5,98.5C 255.5,99.8333 255.5,101.167 255.5,102.5C 249.782,99.3144 244.448,95.6477 239.5,91.5 Z"/></g>
<g><path style="opacity:1" fill="#444d31" d="M 183.5,93.5 C 184.721,94.0283 185.887,94.695 187,95.5C 187.087,98.7067 187.254,101.707 187.5,104.5C 186.5,107.167 185.5,109.833 184.5,112.5C 183.958,109.339 182.625,106.505 180.5,104C 181.428,100.394 182.428,96.8944 183.5,93.5 Z"/></g>
<g><path style="opacity:1" fill="#1e5f6d" d="M 236.5,93.5 C 241.86,98.6802 248.194,102.014 255.5,103.5C 255.5,104.833 255.5,106.167 255.5,107.5C 251.381,106.394 247.715,104.394 244.5,101.5C 243.833,101.833 243.167,102.167 242.5,102.5C 243.791,103.527 243.791,104.527 242.5,105.5C 240.26,104.432 238.426,102.766 237,100.5C 235.402,98.1055 235.236,95.7721 236.5,93.5 Z"/></g>
<g><path style="opacity:1" fill="#043d39" d="M 147.5,92.5 C 147.739,94.4672 147.406,96.3005 146.5,98C 144.167,98.3333 141.833,98.6667 139.5,99C 135.756,101.955 131.922,104.789 128,107.5C 125.715,112.227 123.548,116.893 121.5,121.5C 120.957,121.44 120.624,121.107 120.5,120.5C 122.809,112.598 124.809,104.598 126.5,96.5C 127.591,98.0148 128.924,98.8481 130.5,99C 132.797,96.9013 134.464,94.4013 135.5,91.5C 137.827,91.7529 139.827,91.0863 141.5,89.5C 142.814,90.3128 143.981,91.3128 145,92.5C 146.507,88.7636 147.34,88.7636 147.5,92.5 Z"/></g>
<g><path style="opacity:1" fill="#1f2849" d="M -0.5,83.5 C 2.75045,85.2433 5.58378,87.5766 8,90.5C 11.1011,94.3912 13.9344,98.3912 16.5,102.5C 16.9924,107.208 15.6591,107.708 12.5,104C 11.5,103.333 10.5,103.333 9.5,104C 10.9555,105.626 12.6221,106.792 14.5,107.5C 13.6618,107.842 13.3284,108.508 13.5,109.5C 12.2649,112.489 10.0982,114.822 7,116.5C 5.16483,114.916 3.16483,113.583 1,112.5C 0.316211,113.784 0.482878,114.951 1.5,116C 0.934056,116.995 0.267389,117.828 -0.5,118.5C -0.5,106.833 -0.5,95.1667 -0.5,83.5 Z"/></g>
<g><path style="opacity:1" fill="#404171" d="M 16.5,102.5 C 16.8333,102.5 17.1667,102.5 17.5,102.5C 18.1667,102.5 18.5,102.833 18.5,103.5C 20.0248,105.216 21.0248,107.216 21.5,109.5C 21.5,110.5 21.5,111.5 21.5,112.5C 19.4099,110.61 17.0765,108.943 14.5,107.5C 12.6221,106.792 10.9555,105.626 9.5,104C 10.5,103.333 11.5,103.333 12.5,104C 15.6591,107.708 16.9924,107.208 16.5,102.5 Z"/></g>
<g><path style="opacity:1" fill="#15434d" d="M 255.5,107.5 C 255.5,109.833 255.5,112.167 255.5,114.5C 250.909,111.915 246.576,108.915 242.5,105.5C 243.791,104.527 243.791,103.527 242.5,102.5C 243.167,102.167 243.833,101.833 244.5,101.5C 247.715,104.394 251.381,106.394 255.5,107.5 Z"/></g>
<g><path style="opacity:1" fill="#011417" d="M 66.5,94.5 C 67.1667,94.5 67.8333,94.5 68.5,94.5C 68.5,96.1667 68.5,97.8333 68.5,99.5C 69.3973,104.14 69.5639,108.806 69,113.5C 68,114.833 67,114.833 66,113.5C 62.9559,116.375 60.1226,119.375 57.5,122.5C 54.5279,121.37 52.5279,119.37 51.5,116.5C 54.1444,113.52 56.811,110.52 59.5,107.5C 60.2276,103.634 61.2276,99.9673 62.5,96.5C 62.2148,98.288 62.5481,99.9547 63.5,101.5C 65.8493,99.7962 66.8493,97.4629 66.5,94.5 Z"/></g>
<g><path style="opacity:1" fill="#363a39" d="M 183.5,93.5 C 182.428,96.8944 181.428,100.394 180.5,104C 182.625,106.505 183.958,109.339 184.5,112.5C 183.89,113.391 183.557,114.391 183.5,115.5C 182.662,115.842 182.328,116.508 182.5,117.5C 179.821,117.475 178.488,116.142 178.5,113.5C 176.114,113.741 174.114,113.075 172.5,111.5C 172.343,110.127 172.51,108.793 173,107.5C 175.487,104.858 177.321,101.858 178.5,98.5C 180.167,96.8333 181.833,95.1667 183.5,93.5 Z"/></g>
<g><path style="opacity:1" fill="#031126" d="M 253.5,124.5 C 253.53,125.497 253.03,126.164 252,126.5C 250.697,126.022 249.531,125.355 248.5,124.5C 245.061,123.981 241.728,122.981 238.5,121.5C 237.863,116.965 236.863,112.632 235.5,108.5C 235.337,106.143 235.503,103.81 236,101.5C 241.666,109.327 247.499,116.994 253.5,124.5 Z"/></g>
<g><path style="opacity:1" fill="#1e8388" d="M 234.5,91.5 C 235.5,91.8333 236.167,92.5 236.5,93.5C 235.236,95.7721 235.402,98.1055 237,100.5C 238.426,102.766 240.26,104.432 242.5,105.5C 246.576,108.915 250.909,111.915 255.5,114.5C 255.5,118.167 255.5,121.833 255.5,125.5C 254.833,125.167 254.167,124.833 253.5,124.5C 247.499,116.994 241.666,109.327 236,101.5C 235.503,103.81 235.337,106.143 235.5,108.5C 235.631,109.239 235.464,109.906 235,110.5C 234.79,108.942 234.29,107.609 233.5,106.5C 233.413,101.463 233.746,96.4635 234.5,91.5 Z"/></g>
<g><path style="opacity:1" fill="#033134" d="M 135.5,91.5 C 134.464,94.4013 132.797,96.9013 130.5,99C 128.924,98.8481 127.591,98.0148 126.5,96.5C 124.809,104.598 122.809,112.598 120.5,120.5C 120.624,121.107 120.957,121.44 121.5,121.5C 119.911,127.078 116.578,131.078 111.5,133.5C 111.723,126.16 112.056,118.827 112.5,111.5C 113.33,82.2552 114.497,82.2552 116,111.5C 116.14,114.043 116.806,116.377 118,118.5C 121.301,110.434 122.635,102.1 122,93.5C 122.333,93.8333 122.667,94.1667 123,94.5C 123.333,93.5 123.667,92.5 124,91.5C 125.366,93.7441 127.366,95.0775 130,95.5C 131.431,93.5621 133.265,92.2288 135.5,91.5 Z"/></g>
<g><path style="opacity:1" fill="#012329" d="M 21.5,109.5 C 24.5377,112.442 28.0377,114.775 32,116.5C 32.3598,121.469 33.0265,126.469 34,131.5C 34.7963,133.967 36.463,135.3 39,135.5C 42.0081,134.821 44.5081,133.321 46.5,131C 47.1667,129.667 47.8333,128.333 48.5,127C 51.9085,127.095 55.2419,126.095 58.5,124C 62.0176,120.064 65.8509,117.231 70,115.5C 72.7358,120.538 72.5691,125.372 69.5,130C 66.3974,131.439 63.5641,133.273 61,135.5C 60.3162,136.784 60.4829,137.951 61.5,139C 59.9632,140.11 59.2965,141.61 59.5,143.5C 46.1667,143.5 32.8333,143.5 19.5,143.5C 21.986,141.845 23.986,139.678 25.5,137C 24.3551,135.598 23.0217,134.431 21.5,133.5C 18.0632,131.326 17.8966,128.992 21,126.5C 22.0424,122.452 22.3757,118.452 22,114.5C 22.6543,115.696 23.1543,115.696 23.5,114.5C 23.1445,113.478 22.4778,112.811 21.5,112.5C 21.5,111.5 21.5,110.5 21.5,109.5 Z"/></g>
<g><path style="opacity:1" fill="#031f21" d="M 81.5,75.5 C 82.8333,77.5 84.1667,79.5 85.5,81.5C 84.4209,94.5988 84.4209,107.765 85.5,121C 85.3333,124.833 85.1667,128.667 85,132.5C 83.9914,130.975 83.4914,129.308 83.5,127.5C 81.6203,127.771 80.287,127.104 79.5,125.5C 78.6993,123.958 78.366,122.292 78.5,120.5C 78.4431,119.391 78.1098,118.391 77.5,117.5C 78.5,117.5 79.5,117.5 80.5,117.5C 80.7145,113.499 80.0479,109.665 78.5,106C 79.3822,95.8116 80.3822,85.6449 81.5,75.5 Z"/></g>
<g><path style="opacity:1" fill="#081a1f" d="M 53.5,86.5 C 52.6498,90.2009 52.6498,93.8675 53.5,97.5C 51.0731,101.282 49.7398,105.448 49.5,110C 49.336,112.544 50.0027,114.71 51.5,116.5C 52.5279,119.37 54.5279,121.37 57.5,122.5C 60.1226,119.375 62.9559,116.375 66,113.5C 67,114.833 68,114.833 69,113.5C 69.5639,108.806 69.3973,104.14 68.5,99.5C 69.8333,99.8333 71.1667,100.167 72.5,100.5C 74.2225,102.253 75.7225,104.253 77,106.5C 77.4986,110.152 77.6653,113.818 77.5,117.5C 78.1098,118.391 78.4431,119.391 78.5,120.5C 77.8826,120.389 77.3826,120.056 77,119.5C 76.2904,120.973 75.1238,121.64 73.5,121.5C 73.6641,124.187 73.4974,126.854 73,129.5C 69.2539,134.238 65.4206,138.905 61.5,143.5C 60.8333,143.5 60.1667,143.5 59.5,143.5C 59.2965,141.61 59.9632,140.11 61.5,139C 60.4829,137.951 60.3162,136.784 61,135.5C 63.5641,133.273 66.3974,131.439 69.5,130C 72.5691,125.372 72.7358,120.538 70,115.5C 65.8509,117.231 62.0176,120.064 58.5,124C 55.2419,126.095 51.9085,127.095 48.5,127C 47.8333,128.333 47.1667,129.667 46.5,131C 44.5081,133.321 42.0081,134.821 39,135.5C 36.463,135.3 34.7963,133.967 34,131.5C 33.0265,126.469 32.3598,121.469 32,116.5C 28.0377,114.775 24.5377,112.442 21.5,109.5C 21.0248,107.216 20.0248,105.216 18.5,103.5C 22.0198,104.183 24.5198,106.183 26,109.5C 25.6201,106.579 24.4534,103.912 22.5,101.5C 22.8333,101.5 23.1667,101.5 23.5,101.5C 27.11,105.119 29.4433,109.452 30.5,114.5C 34.493,115.192 38.1597,116.358 41.5,118C 43.0259,114.146 44.3592,110.313 45.5,106.5C 45.3505,107.552 45.5172,108.552 46,109.5C 49.2063,105.068 50.7063,100.068 50.5,94.5C 51.2513,91.754 52.2513,89.0873 53.5,86.5 Z"/></g>
<g><path style="opacity:1" fill="#105259" d="M 233.5,106.5 C 234.29,107.609 234.79,108.942 235,110.5C 235.464,109.906 235.631,109.239 235.5,108.5C 236.863,112.632 237.863,116.965 238.5,121.5C 238.5,122.833 238.5,124.167 238.5,125.5C 235.249,119.747 233.582,113.414 233.5,106.5 Z"/></g>
<g><path style="opacity:1" fill="#001529" d="M 200.5,125.5 C 200.34,127.153 199.674,128.486 198.5,129.5C 196.955,128.42 195.455,128.42 194,129.5C 192.541,129.192 191.374,128.525 190.5,127.5C 191.465,123.696 190.298,120.363 187,117.5C 186.186,115.098 186.353,112.765 187.5,110.5C 191.179,107.821 193.346,104.154 194,99.5C 195.964,97.5679 198.131,95.9013 200.5,94.5C 203.768,97.095 205.768,100.428 206.5,104.5C 204.087,110.323 201.421,115.99 198.5,121.5C 199.63,122.622 200.297,123.956 200.5,125.5 Z"/></g>
<g><path style="opacity:1" fill="#011b29" d="M 218.5,134.5 C 217.589,128.282 219.589,122.948 224.5,118.5C 226.117,117.962 227.784,117.629 229.5,117.5C 230.248,119.584 230.248,121.584 229.5,123.5C 235.884,128.553 235.551,132.72 228.5,136C 224.851,136.963 221.518,136.463 218.5,134.5 Z"/></g>
<g><path style="opacity:1" fill="#473c6f" d="M 13.5,109.5 C 16.5173,112.198 18.5173,115.531 19.5,119.5C 19.5,120.5 19.5,121.5 19.5,122.5C 17.8008,122.34 16.1341,122.506 14.5,123C 12.2657,124.75 9.93236,126.25 7.5,127.5C 7.16667,127.5 6.83333,127.5 6.5,127.5C 6.5,127.167 6.5,126.833 6.5,126.5C 10.7968,124.582 13.1302,121.249 13.5,116.5C 9.77206,116.795 6.10539,117.461 2.5,118.5C 1.75415,119.736 1.42082,121.07 1.5,122.5C 0.833333,122.167 0.166667,121.833 -0.5,121.5C -0.5,120.5 -0.5,119.5 -0.5,118.5C 0.267389,117.828 0.934056,116.995 1.5,116C 0.482878,114.951 0.316211,113.784 1,112.5C 3.16483,113.583 5.16483,114.916 7,116.5C 10.0982,114.822 12.2649,112.489 13.5,109.5 Z"/></g>
<g><path style="opacity:1" fill="#1f1f27" d="M 172.5,111.5 C 174.114,113.075 176.114,113.741 178.5,113.5C 178.488,116.142 179.821,117.475 182.5,117.5C 180.443,121.338 178.776,125.338 177.5,129.5C 177.5,130.167 177.167,130.5 176.5,130.5C 173.933,125.536 170.266,124.203 165.5,126.5C 167.044,121.081 169.378,116.081 172.5,111.5 Z"/></g>
<g><path style="opacity:1" fill="#6a4691" d="M 6.5,126.5 C 4.17369,125.855 2.50702,124.522 1.5,122.5C 1.42082,121.07 1.75415,119.736 2.5,118.5C 6.10539,117.461 9.77206,116.795 13.5,116.5C 13.1302,121.249 10.7968,124.582 6.5,126.5 Z"/></g>
<g><path style="opacity:1" fill="#24304d" d="M 19.5,119.5 C 21.5466,123.903 20.2133,127.07 15.5,129C 12.5178,129.703 9.85118,129.203 7.5,127.5C 9.93236,126.25 12.2657,124.75 14.5,123C 16.1341,122.506 17.8008,122.34 19.5,122.5C 19.5,121.5 19.5,120.5 19.5,119.5 Z"/></g>
<g><path style="opacity:1" fill="#022127" d="M 183.5,115.5 C 183.248,120.934 185.581,124.934 190.5,127.5C 191.374,128.525 192.541,129.192 194,129.5C 195.455,128.42 196.955,128.42 198.5,129.5C 198.196,130.15 197.863,130.817 197.5,131.5C 194.833,131.833 192.167,132.167 189.5,132.5C 185.025,132.987 181.025,131.987 177.5,129.5C 178.776,125.338 180.443,121.338 182.5,117.5C 182.328,116.508 182.662,115.842 183.5,115.5 Z"/></g>
<g><path style="opacity:1" fill="#282040" d="M -0.5,121.5 C 0.166667,121.833 0.833333,122.167 1.5,122.5C 2.50702,124.522 4.17369,125.855 6.5,126.5C 6.5,126.833 6.5,127.167 6.5,127.5C 4.44183,128.933 2.1085,129.6 -0.5,129.5C -0.5,126.833 -0.5,124.167 -0.5,121.5 Z"/></g>
<g><path style="opacity:1" fill="#022123" d="M 233.5,88.5 C 233.833,88.5 234.167,88.5 234.5,88.5C 234.5,89.5 234.5,90.5 234.5,91.5C 233.746,96.4635 233.413,101.463 233.5,106.5C 233.582,113.414 235.249,119.747 238.5,125.5C 238.263,126.791 238.596,127.791 239.5,128.5C 239.59,130.696 239.923,132.863 240.5,135C 240.178,137.327 238.844,138.494 236.5,138.5C 230.498,139.223 224.498,140.056 218.5,141C 216.934,141.608 215.6,142.442 214.5,143.5C 213.833,143.5 213.167,143.5 212.5,143.5C 212.838,141.146 213.338,138.813 214,136.5C 215.622,135.901 217.122,135.234 218.5,134.5C 221.518,136.463 224.851,136.963 228.5,136C 235.551,132.72 235.884,128.553 229.5,123.5C 230.248,121.584 230.248,119.584 229.5,117.5C 227.784,117.629 226.117,117.962 224.5,118.5C 226.651,116.711 229.151,115.378 232,114.5C 232.367,105.818 232.867,97.1515 233.5,88.5 Z"/></g>
<g><path style="opacity:1" fill="#052f46" d="M 238.5,121.5 C 241.728,122.981 245.061,123.981 248.5,124.5C 247.167,124.5 245.833,124.5 244.5,124.5C 245.702,127.056 247.369,129.389 249.5,131.5C 246.042,130.265 243.042,128.265 240.5,125.5C 239.614,126.325 239.281,127.325 239.5,128.5C 238.596,127.791 238.263,126.791 238.5,125.5C 238.5,124.167 238.5,122.833 238.5,121.5 Z"/></g>
<g><path style="opacity:1" fill="#105a68" d="M 248.5,124.5 C 249.531,125.355 250.697,126.022 252,126.5C 253.03,126.164 253.53,125.497 253.5,124.5C 254.167,124.833 254.833,125.167 255.5,125.5C 255.5,131.5 255.5,137.5 255.5,143.5C 254.833,143.5 254.167,143.5 253.5,143.5C 253.665,140.482 253.498,137.482 253,134.5C 251.855,133.364 250.688,132.364 249.5,131.5C 247.369,129.389 245.702,127.056 244.5,124.5C 245.833,124.5 247.167,124.5 248.5,124.5 Z"/></g>
<g><path style="opacity:1" fill="#000d14" d="M 78.5,120.5 C 78.366,122.292 78.6993,123.958 79.5,125.5C 78.5,125.5 77.5,125.5 76.5,125.5C 76.3398,127.199 76.5065,128.866 77,130.5C 79.3796,134.594 81.2129,138.927 82.5,143.5C 75.5,143.5 68.5,143.5 61.5,143.5C 65.4206,138.905 69.2539,134.238 73,129.5C 73.4974,126.854 73.6641,124.187 73.5,121.5C 75.1238,121.64 76.2904,120.973 77,119.5C 77.3826,120.056 77.8826,120.389 78.5,120.5 Z"/></g>
<g><path style="opacity:1" fill="#11121f" d="M 176.5,130.5 C 176.577,131.75 177.244,132.583 178.5,133C 174.334,135.917 170.001,138.584 165.5,141C 164.748,141.671 164.414,142.504 164.5,143.5C 162.5,143.5 160.5,143.5 158.5,143.5C 158.675,136.749 161.008,131.083 165.5,126.5C 170.266,124.203 173.933,125.536 176.5,130.5 Z"/></g>
<g><path style="opacity:1" fill="#03151c" d="M 21.5,133.5 C 23.0217,134.431 24.3551,135.598 25.5,137C 23.986,139.678 21.986,141.845 19.5,143.5C 12.8333,143.5 6.16667,143.5 -0.5,143.5C -0.5,139.167 -0.5,134.833 -0.5,130.5C 2.38888,132.096 5.05555,131.762 7.5,129.5C 10.5,131.5 13.5,133.5 16.5,135.5C 18.3002,135.098 19.9668,134.431 21.5,133.5 Z"/></g>
<g><path style="opacity:1" fill="#0e202f" d="M 14.5,107.5 C 17.0765,108.943 19.4099,110.61 21.5,112.5C 22.4778,112.811 23.1445,113.478 23.5,114.5C 23.1543,115.696 22.6543,115.696 22,114.5C 22.3757,118.452 22.0424,122.452 21,126.5C 17.8966,128.992 18.0632,131.326 21.5,133.5C 19.9668,134.431 18.3002,135.098 16.5,135.5C 13.5,133.5 10.5,131.5 7.5,129.5C 5.05555,131.762 2.38888,132.096 -0.5,130.5C -0.5,130.167 -0.5,129.833 -0.5,129.5C 2.1085,129.6 4.44183,128.933 6.5,127.5C 6.83333,127.5 7.16667,127.5 7.5,127.5C 9.85118,129.203 12.5178,129.703 15.5,129C 20.2133,127.07 21.5466,123.903 19.5,119.5C 18.5173,115.531 16.5173,112.198 13.5,109.5C 13.3284,108.508 13.6618,107.842 14.5,107.5 Z"/></g>
<g><path style="opacity:1" fill="#021437" d="M 249.5,131.5 C 250.688,132.364 251.855,133.364 253,134.5C 253.498,137.482 253.665,140.482 253.5,143.5C 246.833,143.5 240.167,143.5 233.5,143.5C 234.248,141.668 235.248,140.001 236.5,138.5C 238.844,138.494 240.178,137.327 240.5,135C 239.923,132.863 239.59,130.696 239.5,128.5C 239.281,127.325 239.614,126.325 240.5,125.5C 243.042,128.265 246.042,130.265 249.5,131.5 Z"/></g>
<g><path style="opacity:1" fill="#010b19" d="M 236.5,138.5 C 235.248,140.001 234.248,141.668 233.5,143.5C 227.167,143.5 220.833,143.5 214.5,143.5C 215.6,142.442 216.934,141.608 218.5,141C 224.498,140.056 230.498,139.223 236.5,138.5 Z"/></g>
</svg>
