<?xml version="1.0" encoding="UTF-8"?>
<!DOCTYPE svg PUBLIC "-//W3C//DTD SVG 1.1//EN" "http://www.w3.org/Graphics/SVG/1.1/DTD/svg11.dtd">
<svg xmlns="http://www.w3.org/2000/svg" version="1.1" width="256px" height="144px" style="shape-rendering:geometricPrecision; text-rendering:geometricPrecision; image-rendering:optimizeQuality; fill-rule:evenodd; clip-rule:evenodd" xmlns:xlink="http://www.w3.org/1999/xlink">
<g><path style="opacity:1" fill="#103579" d="M -0.5,-0.5 C 20.1667,-0.5 40.8333,-0.5 61.5,-0.5C 65.3123,0.323821 69.3123,0.823821 73.5,1C 69.0292,2.44514 64.3626,3.27847 59.5,3.5C 56.6401,4.00421 53.9734,5.00421 51.5,6.5C 50.8333,6.16667 50.1667,5.83333 49.5,5.5C 44.1966,8.77447 38.5299,10.2745 32.5,10C 26.8333,12.5802 21.5,14.7469 16.5,16.5C 15.8333,16.1667 15.1667,15.8333 14.5,15.5C 12.2752,14.6679 10.9419,15.6679 10.5,18.5C 10.5,20.1667 10.5,21.8333 10.5,23.5C 10.6716,24.4916 10.3382,25.1583 9.5,25.5C 9.86146,19.158 7.02813,17.158 1,19.5C 0.721579,18.5842 0.221579,17.9175 -0.5,17.5C -0.5,11.5 -0.5,5.5 -0.5,-0.5 Z"/></g>
<g><path style="opacity:1" fill="#183f8d" d="M 122.5,-0.5 C 125.167,-0.5 127.833,-0.5 130.5,-0.5C 127.402,1.89164 124.069,4.05831 120.5,6C 119.117,7.27083 118.117,8.77083 117.5,10.5C 112.54,17.0874 109.207,24.4208 107.5,32.5C 106.596,33.209 106.263,34.209 106.5,35.5C 104.216,36.6774 103.882,38.3441 105.5,40.5C 104.658,43.5244 103.658,46.5244 102.5,49.5C 99.5379,50.0088 96.8712,51.0088 94.5,52.5C 94.5106,54.0174 95.1772,55.1841 96.5,56C 95.8333,56.3333 95.1667,56.6667 94.5,57C 94.7284,57.3988 95.0618,57.5654 95.5,57.5C 97.5,59.1667 99.5,60.8333 101.5,62.5C 101.062,62.4346 100.728,62.6012 100.5,63C 102.155,64.4443 102.822,66.2776 102.5,68.5C 102.167,69.8333 101.833,71.1667 101.5,72.5C 101.737,73.791 101.404,74.791 100.5,75.5C 97.675,73.2389 95.0083,70.7389 92.5,68C 87.0572,65.2198 83.3906,60.8865 81.5,55C 81.8333,54.6667 82.1667,54.3333 82.5,54C 79.3879,53.375 77.5546,51.5417 77,48.5C 76.6667,48.8333 76.3333,49.1667 76,49.5C 75.3333,48.5 75.3333,47.5 76,46.5C 78.0714,45.8971 79.2381,44.5638 79.5,42.5C 80.9543,46.0609 82.9543,49.3943 85.5,52.5C 87.393,50.181 88.7263,47.5143 89.5,44.5C 90.4271,34.2056 90.7604,23.8723 90.5,13.5C 91.2679,14.2625 91.7679,15.2625 92,16.5C 93.8808,13.2251 96.5475,11.8918 100,12.5C 107.469,7.69601 114.969,3.36268 122.5,-0.5 Z"/></g>
<g><path style="opacity:1" fill="#153a83" d="M 61.5,-0.5 C 81.8333,-0.5 102.167,-0.5 122.5,-0.5C 114.969,3.36268 107.469,7.69601 100,12.5C 96.5475,11.8918 93.8808,13.2251 92,16.5C 91.7679,15.2625 91.2679,14.2625 90.5,13.5C 89.1667,10.5 87.8333,7.5 86.5,4.5C 85.4802,2.64802 83.9802,1.31469 82,0.5C 79.5003,3.49885 77.0003,6.49885 74.5,9.5C 72.7345,12.0286 70.7345,14.3619 68.5,16.5C 66.9246,15.5435 65.258,14.8769 63.5,14.5C 63.0159,10.5304 61.6825,6.86371 59.5,3.5C 64.3626,3.27847 69.0292,2.44514 73.5,1C 69.3123,0.823821 65.3123,0.323821 61.5,-0.5 Z"/></g>
<g><path style="opacity:1" fill="#173f8d" d="M 146.5,-0.5 C 152.833,-0.5 159.167,-0.5 165.5,-0.5C 170.441,1.57515 174.775,4.74182 178.5,9C 182.025,9.17871 185.359,9.67871 188.5,10.5C 183.485,10.15 178.652,10.8166 174,12.5C 172.143,18.8713 170.643,25.2047 169.5,31.5C 168.078,31.2914 166.745,30.7914 165.5,30C 165.833,29.6667 166.167,29.3333 166.5,29C 165.207,28.51 163.873,28.3433 162.5,28.5C 162.306,23.597 160.973,23.2637 158.5,27.5C 157.048,22.5968 155.048,17.9301 152.5,13.5C 150.5,8.83333 148.5,4.16667 146.5,-0.5 Z"/></g>
<g><path style="opacity:1" fill="#13377e" d="M 165.5,-0.5 C 171.5,-0.5 177.5,-0.5 183.5,-0.5C 187.827,0.281664 191.327,2.615 194,6.5C 207.643,25.9488 218.809,46.7821 227.5,69C 226.944,69.3826 226.611,69.8826 226.5,70.5C 225.448,69.4695 224.114,68.8029 222.5,68.5C 218.113,69.3471 213.78,70.3471 209.5,71.5C 207.306,63.3527 205.64,55.0193 204.5,46.5C 203.998,44.9153 202.998,44.4153 201.5,45C 199.933,47.9788 198.266,50.8121 196.5,53.5C 196.874,50.0283 195.874,47.0283 193.5,44.5C 194.485,42.9017 194.651,41.235 194,39.5C 190.414,38.0809 187.581,35.7476 185.5,32.5C 186.642,29.6008 187.308,26.6008 187.5,23.5C 187.5,23.1667 187.5,22.8333 187.5,22.5C 188.494,19.1844 189.494,15.851 190.5,12.5C 190.253,11.2867 189.586,10.62 188.5,10.5C 185.359,9.67871 182.025,9.17871 178.5,9C 174.775,4.74182 170.441,1.57515 165.5,-0.5 Z"/></g>
<g><path style="opacity:1" fill="#0d2c69" d="M 189.5,-0.5 C 194.833,-0.5 200.167,-0.5 205.5,-0.5C 207.042,0.163485 208.709,0.830151 210.5,1.5C 216.653,11.1303 222.82,20.797 229,30.5C 236.313,52.0726 243.48,73.7393 250.5,95.5C 252.781,93.674 252.781,91.674 250.5,89.5C 250.833,89.1667 251.167,88.8333 251.5,88.5C 252.931,92.494 253.931,96.494 254.5,100.5C 254.5,114.833 254.5,129.167 254.5,143.5C 248.5,143.5 242.5,143.5 236.5,143.5C 237.568,142.566 238.901,142.232 240.5,142.5C 242.857,142.663 245.19,142.497 247.5,142C 243.326,135.404 241.659,128.571 242.5,121.5C 239.832,113.862 239.499,106.196 241.5,98.5C 241.377,97.0755 241.043,95.7421 240.5,94.5C 241.628,90.9099 243.295,87.5766 245.5,84.5C 245.333,84.1667 245.167,83.8333 245,83.5C 243.698,84.0848 242.531,84.7515 241.5,85.5C 241.167,85.5 240.833,85.5 240.5,85.5C 238.24,84.637 236.74,82.9703 236,80.5C 232.654,71.1602 229.321,61.8268 226,52.5C 221.663,43.118 217.33,33.7847 213,24.5C 208.325,17.8273 203.658,11.1606 199,4.5C 196.502,1.36065 193.335,-0.306013 189.5,-0.5 Z"/></g>
<g><path style="opacity:1" fill="#092760" d="M 205.5,-0.5 C 207.833,-0.5 210.167,-0.5 212.5,-0.5C 214.189,0.303736 215.855,1.30374 217.5,2.5C 224.924,13.4812 231.424,25.1478 237,37.5C 241.375,50.2925 245.542,63.1258 249.5,76C 249.043,76.414 248.709,76.914 248.5,77.5C 249.868,79.637 250.868,81.9703 251.5,84.5C 252.518,85.1925 253.518,85.8592 254.5,86.5C 254.5,91.1667 254.5,95.8333 254.5,100.5C 253.931,96.494 252.931,92.494 251.5,88.5C 251.167,88.8333 250.833,89.1667 250.5,89.5C 252.781,91.674 252.781,93.674 250.5,95.5C 243.48,73.7393 236.313,52.0726 229,30.5C 222.82,20.797 216.653,11.1303 210.5,1.5C 208.709,0.830151 207.042,0.163485 205.5,-0.5 Z"/></g>
<g><path style="opacity:1" fill="#021a44" d="M 225.5,-0.5 C 235.5,-0.5 245.5,-0.5 255.5,-0.5C 255.5,47.5 255.5,95.5 255.5,143.5C 255.167,143.5 254.833,143.5 254.5,143.5C 254.5,129.167 254.5,114.833 254.5,100.5C 254.5,95.8333 254.5,91.1667 254.5,86.5C 254.666,76.8276 254.5,67.1609 254,57.5C 250.238,44.4186 245.571,31.7519 240,19.5C 236.25,13.6694 232.75,7.6694 229.5,1.5C 228.051,0.828112 226.718,0.161445 225.5,-0.5 Z"/></g>
<g><path style="opacity:1" fill="#133780" d="M 59.5,3.5 C 61.6825,6.86371 63.0159,10.5304 63.5,14.5C 61.1105,15.446 58.9438,16.7794 57,18.5C 54.5341,17.2234 52.0341,17.2234 49.5,18.5C 50.8333,20.5 52.1667,22.5 53.5,24.5C 52.1667,25.8333 52.1667,27.1667 53.5,28.5C 53.1445,29.5223 52.4778,30.189 51.5,30.5C 50.3127,28.9275 49.3127,27.2608 48.5,25.5C 48.5,24.8333 48.1667,24.5 47.5,24.5C 45.8556,20.9941 43.1889,19.4941 39.5,20C 36.9459,24.0369 35.9459,28.2036 36.5,32.5C 36.6596,34.153 37.3263,35.4863 38.5,36.5C 40.8658,44.2336 44.5325,51.2336 49.5,57.5C 49.5191,59.0603 49.8524,60.5603 50.5,62C 48.2251,64.6607 49.0585,66.494 53,67.5C 53.4828,68.448 53.6495,69.448 53.5,70.5C 51.8516,69.2228 50.0183,68.2228 48,67.5C 47.7508,68.624 47.2508,69.624 46.5,70.5C 40.7743,68.2751 36.941,64.2751 35,58.5C 33.8333,57.3333 32.6667,56.1667 31.5,55C 30.5632,54.3083 29.8966,54.475 29.5,55.5C 27.8104,51.793 26.6438,47.793 26,43.5C 24.7627,40.5519 23.2627,37.8852 21.5,35.5C 21.2685,31.0583 19.9352,27.0583 17.5,23.5C 17.552,21.0971 17.2186,18.7638 16.5,16.5C 21.5,14.7469 26.8333,12.5802 32.5,10C 38.5299,10.2745 44.1966,8.77447 49.5,5.5C 50.1667,5.83333 50.8333,6.16667 51.5,6.5C 53.9734,5.00421 56.6401,4.00421 59.5,3.5 Z"/></g>
<g><path style="opacity:1" fill="#cae1f9" d="M 86.5,4.5 C 85.4489,5.22235 84.7822,6.22235 84.5,7.5C 84.3964,9.70281 83.7298,11.7028 82.5,13.5C 81.5318,15.6074 81.1984,17.9407 81.5,20.5C 78.4392,20.5557 76.2725,19.2224 75,16.5C 74.6174,17.056 74.1174,17.3893 73.5,17.5C 73.5751,14.7938 73.9084,12.1272 74.5,9.5C 77.0003,6.49885 79.5003,3.49885 82,0.5C 83.9802,1.31469 85.4802,2.64802 86.5,4.5 Z"/></g>
<g><path style="opacity:1" fill="#5788ea" d="M 88.5,44.5 C 85.1058,52.1505 84.1058,51.4839 85.5,42.5C 83.5955,32.93 82.5955,23.2633 82.5,13.5C 83.7298,11.7028 84.3964,9.70281 84.5,7.5C 85.1174,7.38929 85.6174,7.05596 86,6.5C 86.9454,10.1324 88.112,13.6324 89.5,17C 88.5679,26.1366 88.2346,35.3033 88.5,44.5 Z"/></g>
<g><path style="opacity:1" fill="#032358" d="M 212.5,-0.5 C 216.833,-0.5 221.167,-0.5 225.5,-0.5C 226.718,0.161445 228.051,0.828112 229.5,1.5C 232.75,7.6694 236.25,13.6694 240,19.5C 245.571,31.7519 250.238,44.4186 254,57.5C 254.5,67.1609 254.666,76.8276 254.5,86.5C 253.518,85.8592 252.518,85.1925 251.5,84.5C 250.868,81.9703 249.868,79.637 248.5,77.5C 248.709,76.914 249.043,76.414 249.5,76C 245.542,63.1258 241.375,50.2925 237,37.5C 231.424,25.1478 224.924,13.4812 217.5,2.5C 215.855,1.30374 214.189,0.303736 212.5,-0.5 Z"/></g>
<g><path style="opacity:1" fill="#153b87" d="M 74.5,9.5 C 73.9084,12.1272 73.5751,14.7938 73.5,17.5C 75.2452,25.8921 77.2452,34.2255 79.5,42.5C 79.2381,44.5638 78.0714,45.8971 76,46.5C 75.3333,47.5 75.3333,48.5 76,49.5C 76.3333,49.1667 76.6667,48.8333 77,48.5C 77.5546,51.5417 79.3879,53.375 82.5,54C 82.1667,54.3333 81.8333,54.6667 81.5,55C 83.3906,60.8865 87.0572,65.2198 92.5,68C 95.0083,70.7389 97.675,73.2389 100.5,75.5C 99.6295,78.1123 98.9628,80.779 98.5,83.5C 98.1075,85.2838 97.4408,86.9505 96.5,88.5C 95.0687,87.2196 94.4021,85.5529 94.5,83.5C 92.146,83.162 89.8127,82.662 87.5,82C 88.772,79.9555 88.4386,78.1222 86.5,76.5C 86.3062,78.0701 86.3062,79.5701 86.5,81C 83.8199,81.3348 81.4866,80.5014 79.5,78.5C 80.0253,77.8076 80.6919,77.3076 81.5,77C 81.0338,75.7012 81.0338,74.2012 81.5,72.5C 79.7085,72.366 78.0418,72.6993 76.5,73.5C 76.19,72.2617 75.69,72.2617 75,73.5C 74.4818,70.9774 73.1485,68.9774 71,67.5C 70.7521,62.4366 70.0855,57.4366 69,52.5C 68.0168,54.4484 66.8502,56.2817 65.5,58C 65.9574,58.414 66.2907,58.914 66.5,59.5C 65.3966,59.9976 64.3966,60.3309 63.5,60.5C 65.2029,61.8903 65.8696,63.3903 65.5,65C 62.883,64.7395 61.0497,63.2395 60,60.5C 59.2888,62.3668 59.7888,63.8668 61.5,65C 59.7516,68.2602 57.085,70.0935 53.5,70.5C 53.6495,69.448 53.4828,68.448 53,67.5C 49.0585,66.494 48.2251,64.6607 50.5,62C 49.8524,60.5603 49.5191,59.0603 49.5,57.5C 50.5,58.1667 51.5,58.8333 52.5,59.5C 53.5846,61.5869 55.2512,62.9202 57.5,63.5C 58.6341,61.0336 58.8007,58.367 58,55.5C 55.5163,47.2214 53.3497,38.888 51.5,30.5C 52.4778,30.189 53.1445,29.5223 53.5,28.5C 52.1667,27.1667 52.1667,25.8333 53.5,24.5C 52.1667,22.5 50.8333,20.5 49.5,18.5C 52.0341,17.2234 54.5341,17.2234 57,18.5C 58.9438,16.7794 61.1105,15.446 63.5,14.5C 65.258,14.8769 66.9246,15.5435 68.5,16.5C 70.7345,14.3619 72.7345,12.0286 74.5,9.5 Z"/></g>
<g><path style="opacity:1" fill="#bbcbef" d="M 14.5,15.5 C 13.9522,17.5323 12.6188,18.5323 10.5,18.5C 10.9419,15.6679 12.2752,14.6679 14.5,15.5 Z"/></g>
<g><path style="opacity:1" fill="#cfe9f8" d="M 107.5,32.5 C 109.207,24.4208 112.54,17.0874 117.5,10.5C 117.435,10.9382 117.601,11.2716 118,11.5C 119.667,9.83333 121.333,8.16667 123,6.5C 123.167,6.83333 123.333,7.16667 123.5,7.5C 116.275,15.8293 111.942,25.4959 110.5,36.5C 109.141,35.3757 108.141,34.0423 107.5,32.5 Z"/></g>
<g><path style="opacity:1" fill="#96b0ca" d="M 132.5,4.5 C 133.68,13.558 135.514,22.558 138,31.5C 138.556,33.5951 139.056,33.7618 139.5,32C 138.541,29.8801 138.374,27.7135 139,25.5C 140.156,29.1228 141.156,32.7894 142,36.5C 141.506,30.4945 140.673,24.4945 139.5,18.5C 140.117,18.6107 140.617,18.944 141,19.5C 141.723,16.6132 141.223,13.9465 139.5,11.5C 138.614,12.325 138.281,13.325 138.5,14.5C 137.5,14.5 136.5,14.5 135.5,14.5C 135.187,11.7531 135.52,9.08645 136.5,6.5C 139.721,7.28073 142.721,6.61407 145.5,4.5C 146.919,5.00475 147.585,6.00475 147.5,7.5C 146.624,7.36912 145.957,7.70245 145.5,8.5C 149.269,17.4436 151.436,26.7769 152,36.5C 151.098,34.0731 150.264,31.7397 149.5,29.5C 148.769,23.243 147.102,17.243 144.5,11.5C 143.675,10.6143 142.675,10.281 141.5,10.5C 142.823,16.1048 143.823,21.7714 144.5,27.5C 144.903,30.4855 145.903,33.1522 147.5,35.5C 147.663,37.8568 147.497,40.1902 147,42.5C 145.198,43.7893 144.031,45.4559 143.5,47.5C 142.21,48.0577 141.377,49.0577 141,50.5C 140.768,49.2625 140.268,48.2625 139.5,47.5C 139.167,46.5 138.5,45.8333 137.5,45.5C 136.833,45.1667 136.167,44.8333 135.5,44.5C 130.6,43.2001 125.6,43.2001 120.5,44.5C 120.557,43.391 120.89,42.391 121.5,41.5C 121.833,41.5 122.167,41.5 122.5,41.5C 127.229,42.0156 131.896,42.0156 136.5,41.5C 133.495,37.4935 130.995,33.1602 129,28.5C 128,29.5 127,30.5 126,31.5C 125.176,28.1177 125.343,24.7844 126.5,21.5C 130.859,18.0299 132.859,13.6966 132.5,8.5C 132.5,7.16667 132.5,5.83333 132.5,4.5 Z"/></g>
<g><path style="opacity:1" fill="#4f6e93" d="M 139.5,18.5 C 138.766,17.2921 138.433,15.9587 138.5,14.5C 138.281,13.325 138.614,12.325 139.5,11.5C 141.223,13.9465 141.723,16.6132 141,19.5C 140.617,18.944 140.117,18.6107 139.5,18.5 Z"/></g>
<g><path style="opacity:1" fill="#81a7dc" d="M 187.5,22.5 C 187.5,22.8333 187.5,23.1667 187.5,23.5C 184.129,29.0523 180.129,34.2189 175.5,39C 170.805,41.4159 168.805,40.2492 169.5,35.5C 172.231,30.8583 175.065,26.1916 178,21.5C 180.101,19.0115 182.601,17.5115 185.5,17C 186.109,18.9483 186.776,20.7816 187.5,22.5 Z"/></g>
<g><path style="opacity:1" fill="#9cbdf1" d="M 82.5,13.5 C 82.5955,23.2633 83.5955,32.93 85.5,42.5C 84.1058,51.4839 85.1058,52.1505 88.5,44.5C 88.8333,44.5 89.1667,44.5 89.5,44.5C 88.7263,47.5143 87.393,50.181 85.5,52.5C 82.9543,49.3943 80.9543,46.0609 79.5,42.5C 77.2452,34.2255 75.2452,25.8921 73.5,17.5C 74.1174,17.3893 74.6174,17.056 75,16.5C 76.2725,19.2224 78.4392,20.5557 81.5,20.5C 81.1984,17.9407 81.5318,15.6074 82.5,13.5 Z"/></g>
<g><path style="opacity:1" fill="#afc7dd" d="M 188.5,10.5 C 189.586,10.62 190.253,11.2867 190.5,12.5C 189.494,15.851 188.494,19.1844 187.5,22.5C 186.776,20.7816 186.109,18.9483 185.5,17C 182.601,17.5115 180.101,19.0115 178,21.5C 175.065,26.1916 172.231,30.8583 169.5,35.5C 169.5,34.1667 169.5,32.8333 169.5,31.5C 170.643,25.2047 172.143,18.8713 174,12.5C 178.652,10.8166 183.485,10.15 188.5,10.5 Z"/></g>
<g><path style="opacity:1" fill="#b9d0e2" d="M 141.5,-0.5 C 143.167,-0.5 144.833,-0.5 146.5,-0.5C 148.5,4.16667 150.5,8.83333 152.5,13.5C 152.167,13.5 151.833,13.5 151.5,13.5C 150.18,11.5368 148.846,9.53684 147.5,7.5C 147.585,6.00475 146.919,5.00475 145.5,4.5C 142.721,6.61407 139.721,7.28073 136.5,6.5C 135.52,9.08645 135.187,11.7531 135.5,14.5C 136.5,14.5 137.5,14.5 138.5,14.5C 138.433,15.9587 138.766,17.2921 139.5,18.5C 140.673,24.4945 141.506,30.4945 142,36.5C 141.156,32.7894 140.156,29.1228 139,25.5C 138.374,27.7135 138.541,29.8801 139.5,32C 139.056,33.7618 138.556,33.5951 138,31.5C 135.514,22.558 133.68,13.558 132.5,4.5C 135.713,3.51262 139.047,2.51262 142.5,1.5C 142.137,0.816537 141.804,0.14987 141.5,-0.5 Z"/></g>
<g><path style="opacity:1" fill="#4e739a" d="M 149.5,29.5 C 149.66,31.1992 149.494,32.8659 149,34.5C 147.956,32.2852 147.29,29.9519 147,27.5C 146.23,28.5981 145.397,28.5981 144.5,27.5C 143.823,21.7714 142.823,16.1048 141.5,10.5C 142.675,10.281 143.675,10.6143 144.5,11.5C 147.102,17.243 148.769,23.243 149.5,29.5 Z"/></g>
<g><path style="opacity:1" fill="#9aaac9" d="M 47.5,24.5 C 45.6096,24.7035 44.1096,24.0368 43,22.5C 43.1766,26.1965 43.5099,29.8631 44,33.5C 41.6431,31.3542 39.1431,31.0209 36.5,32.5C 35.9459,28.2036 36.9459,24.0369 39.5,20C 43.1889,19.4941 45.8556,20.9941 47.5,24.5 Z"/></g>
<g><path style="opacity:1" fill="#79a0e4" d="M 86.5,4.5 C 87.8333,7.5 89.1667,10.5 90.5,13.5C 90.7604,23.8723 90.4271,34.2056 89.5,44.5C 89.1667,44.5 88.8333,44.5 88.5,44.5C 88.2346,35.3033 88.5679,26.1366 89.5,17C 88.112,13.6324 86.9454,10.1324 86,6.5C 85.6174,7.05596 85.1174,7.38929 84.5,7.5C 84.7822,6.22235 85.4489,5.22235 86.5,4.5 Z"/></g>
<g><path style="opacity:1" fill="#123477" d="M 183.5,-0.5 C 185.5,-0.5 187.5,-0.5 189.5,-0.5C 193.335,-0.306013 196.502,1.36065 199,4.5C 203.658,11.1606 208.325,17.8273 213,24.5C 217.33,33.7847 221.663,43.118 226,52.5C 229.321,61.8268 232.654,71.1602 236,80.5C 236.74,82.9703 238.24,84.637 240.5,85.5C 233.708,88.3953 227.375,92.0619 221.5,96.5C 220.31,94.6455 218.977,92.8121 217.5,91C 221.597,89.0782 223.93,85.9115 224.5,81.5C 225.338,81.1583 225.672,80.4916 225.5,79.5C 225.833,78.1667 226.167,76.8333 226.5,75.5C 227.72,73.9504 227.72,72.2837 226.5,70.5C 226.611,69.8826 226.944,69.3826 227.5,69C 218.809,46.7821 207.643,25.9488 194,6.5C 191.327,2.615 187.827,0.281664 183.5,-0.5 Z"/></g>
<g><path style="opacity:1" fill="#dae8f1" d="M 151.5,13.5 C 151.833,13.5 152.167,13.5 152.5,13.5C 155.048,17.9301 157.048,22.5968 158.5,27.5C 159.976,31.7982 161.476,36.1315 163,40.5C 163.667,42.5 165,43.8333 167,44.5C 167.483,45.448 167.649,46.448 167.5,47.5C 167.869,49.9935 167.203,50.6602 165.5,49.5C 165.068,48.2905 164.401,47.2905 163.5,46.5C 162.069,44.8113 161.236,42.8113 161,40.5C 160.259,39.3595 159.425,39.3595 158.5,40.5C 157.702,40.0431 157.369,39.3764 157.5,38.5C 155.112,32.7989 153.945,26.7989 154,20.5C 153.626,18.5087 152.793,16.842 151.5,15.5C 151.5,14.8333 151.5,14.1667 151.5,13.5 Z"/></g>
<g><path style="opacity:1" fill="#35486e" d="M 10.5,23.5 C 10.8333,23.5 11.1667,23.5 11.5,23.5C 11.6686,28.1811 12.0019,32.8478 12.5,37.5C 11.3924,34.1979 10.0591,30.8646 8.5,27.5C 8.86273,26.8165 9.19607,26.1499 9.5,25.5C 10.3382,25.1583 10.6716,24.4916 10.5,23.5 Z"/></g>
<g><path style="opacity:1" fill="#e9fafd" d="M 130.5,-0.5 C 134.167,-0.5 137.833,-0.5 141.5,-0.5C 141.804,0.14987 142.137,0.816537 142.5,1.5C 139.047,2.51262 135.713,3.51262 132.5,4.5C 132.5,5.83333 132.5,7.16667 132.5,8.5C 131.685,7.57075 130.852,6.57075 130,5.5C 129.743,9.37667 128.743,13.0433 127,16.5C 124.61,20.6904 122.11,24.6904 119.5,28.5C 116.526,32.9966 113.526,37.4966 110.5,42C 110.167,42.1667 109.833,42.3333 109.5,42.5C 107.659,40.4883 106.659,38.155 106.5,35.5C 106.263,34.209 106.596,33.209 107.5,32.5C 108.141,34.0423 109.141,35.3757 110.5,36.5C 111.942,25.4959 116.275,15.8293 123.5,7.5C 123.333,7.16667 123.167,6.83333 123,6.5C 121.333,8.16667 119.667,9.83333 118,11.5C 117.601,11.2716 117.435,10.9382 117.5,10.5C 118.117,8.77083 119.117,7.27083 120.5,6C 124.069,4.05831 127.402,1.89164 130.5,-0.5 Z"/></g>
<g><path style="opacity:1" fill="#a8d0e5" d="M 151.5,15.5 C 152.793,16.842 153.626,18.5087 154,20.5C 153.945,26.7989 155.112,32.7989 157.5,38.5C 155.224,38.2435 154.057,36.9102 154,34.5C 153.001,28.1762 152.168,21.8428 151.5,15.5 Z"/></g>
<g><path style="opacity:1" fill="#658aca" d="M 17.5,23.5 C 19.9352,27.0583 21.2685,31.0583 21.5,35.5C 21.5,36.8333 21.5,38.1667 21.5,39.5C 18.4593,34.7032 17.1259,29.3698 17.5,23.5 Z"/></g>
<g><path style="opacity:1" fill="#153e87" d="M -0.5,17.5 C 0.221579,17.9175 0.721579,18.5842 1,19.5C 7.02813,17.158 9.86146,19.158 9.5,25.5C 9.19607,26.1499 8.86273,26.8165 8.5,27.5C 10.0591,30.8646 11.3924,34.1979 12.5,37.5C 14.2895,45.2702 13.4561,45.9368 10,39.5C 8.74004,50.1228 9.57337,60.4561 12.5,70.5C 8.8718,69.1627 5.3718,66.8294 2,63.5C 1.84421,60.8091 1.01088,58.4758 -0.5,56.5C -0.5,43.5 -0.5,30.5 -0.5,17.5 Z"/></g>
<g><path style="opacity:1" fill="#c1cce4" d="M 47.5,24.5 C 48.1667,24.5 48.5,24.8333 48.5,25.5C 49.1144,30.572 50.1144,35.572 51.5,40.5C 51.4805,41.7261 51.1471,42.7261 50.5,43.5C 49.7862,40.4072 48.2862,37.7405 46,35.5C 43.7311,36.5947 41.5645,36.2614 39.5,34.5C 38.7025,34.9569 38.3691,35.6236 38.5,36.5C 37.3263,35.4863 36.6596,34.153 36.5,32.5C 39.1431,31.0209 41.6431,31.3542 44,33.5C 43.5099,29.8631 43.1766,26.1965 43,22.5C 44.1096,24.0368 45.6096,24.7035 47.5,24.5 Z"/></g>
<g><path style="opacity:1" fill="#688bae" d="M 147.5,7.5 C 148.846,9.53684 150.18,11.5368 151.5,13.5C 151.5,14.1667 151.5,14.8333 151.5,15.5C 152.168,21.8428 153.001,28.1762 154,34.5C 154.057,36.9102 155.224,38.2435 157.5,38.5C 157.369,39.3764 157.702,40.0431 158.5,40.5C 159.425,39.3595 160.259,39.3595 161,40.5C 161.236,42.8113 162.069,44.8113 163.5,46.5C 161.5,46.5 159.5,46.5 157.5,46.5C 157.5,47.5 157.5,48.5 157.5,49.5C 156.54,51.4607 155.207,53.1274 153.5,54.5C 153.012,51.2893 153.679,48.456 155.5,46C 154.552,45.5172 153.552,45.3505 152.5,45.5C 152.142,49.5092 151.642,53.5092 151,57.5C 150.042,55.8008 149.542,53.9674 149.5,52C 151.201,46.0868 150.534,40.5868 147.5,35.5C 145.903,33.1522 144.903,30.4855 144.5,27.5C 145.397,28.5981 146.23,28.5981 147,27.5C 147.29,29.9519 147.956,32.2852 149,34.5C 149.494,32.8659 149.66,31.1992 149.5,29.5C 150.264,31.7397 151.098,34.0731 152,36.5C 151.436,26.7769 149.269,17.4436 145.5,8.5C 145.957,7.70245 146.624,7.36912 147.5,7.5 Z"/></g>
<g><path style="opacity:1" fill="#679df8" d="M 14.5,15.5 C 15.1667,15.8333 15.8333,16.1667 16.5,16.5C 17.2186,18.7638 17.552,21.0971 17.5,23.5C 17.1259,29.3698 18.4593,34.7032 21.5,39.5C 22.4887,42.7263 23.4887,46.0596 24.5,49.5C 25.6903,54.5231 25.6903,59.5231 24.5,64.5C 22.0269,60.2295 19.5269,55.8961 17,51.5C 16.5357,52.0944 16.369,52.7611 16.5,53.5C 14.6384,41.6593 12.9717,31.6593 11.5,23.5C 11.1667,23.5 10.8333,23.5 10.5,23.5C 10.5,21.8333 10.5,20.1667 10.5,18.5C 12.6188,18.5323 13.9522,17.5323 14.5,15.5 Z"/></g>
<g><path style="opacity:1" fill="#bed6e9" d="M 132.5,8.5 C 132.859,13.6966 130.859,18.0299 126.5,21.5C 125.343,24.7844 125.176,28.1177 126,31.5C 127,30.5 128,29.5 129,28.5C 130.995,33.1602 133.495,37.4935 136.5,41.5C 131.896,42.0156 127.229,42.0156 122.5,41.5C 122.389,40.8826 122.056,40.3826 121.5,40C 122.225,35.898 123.225,31.898 124.5,28C 124.333,26.8333 124.167,25.6667 124,24.5C 123.066,25.8584 122.232,27.1917 121.5,28.5C 121.062,27.4937 120.396,27.4937 119.5,28.5C 122.11,24.6904 124.61,20.6904 127,16.5C 128.743,13.0433 129.743,9.37667 130,5.5C 130.852,6.57075 131.685,7.57075 132.5,8.5 Z"/></g>
<g><path style="opacity:1" fill="#e6f7fc" d="M 122.5,41.5 C 122.167,41.5 121.833,41.5 121.5,41.5C 119.05,41.1257 118.05,39.6257 118.5,37C 118.801,33.903 119.801,31.0696 121.5,28.5C 122.232,27.1917 123.066,25.8584 124,24.5C 124.167,25.6667 124.333,26.8333 124.5,28C 123.225,31.898 122.225,35.898 121.5,40C 122.056,40.3826 122.389,40.8826 122.5,41.5 Z"/></g>
<g><path style="opacity:1" fill="#a6c8f0" d="M 121.5,28.5 C 119.801,31.0696 118.801,33.903 118.5,37C 118.05,39.6257 119.05,41.1257 121.5,41.5C 120.89,42.391 120.557,43.391 120.5,44.5C 119.224,47.4772 118.224,50.4772 117.5,53.5C 117.838,50.8431 117.171,48.5098 115.5,46.5C 113.939,48.9732 111.939,50.9732 109.5,52.5C 108.702,50.9223 108.202,49.2556 108,47.5C 107.692,48.3081 107.192,48.9747 106.5,49.5C 106.346,46.3974 106.013,43.3974 105.5,40.5C 103.882,38.3441 104.216,36.6774 106.5,35.5C 106.659,38.155 107.659,40.4883 109.5,42.5C 109.833,42.3333 110.167,42.1667 110.5,42C 113.526,37.4966 116.526,32.9966 119.5,28.5C 120.396,27.4937 121.062,27.4937 121.5,28.5 Z"/></g>
<g><path style="opacity:1" fill="#1b4897" d="M 187.5,23.5 C 187.308,26.6008 186.642,29.6008 185.5,32.5C 187.581,35.7476 190.414,38.0809 194,39.5C 194.651,41.235 194.485,42.9017 193.5,44.5C 195.874,47.0283 196.874,50.0283 196.5,53.5C 195.833,55.1667 195.167,56.8333 194.5,58.5C 192.883,59.038 191.216,59.3713 189.5,59.5C 189.5,61.8333 189.5,64.1667 189.5,66.5C 187.575,74.0587 183.908,75.2254 178.5,70C 176.19,69.5034 173.857,69.3367 171.5,69.5C 169.821,69.2852 168.821,69.9519 168.5,71.5C 166.871,72.6253 165.371,73.9586 164,75.5C 163.506,73.8659 163.34,72.1992 163.5,70.5C 164.251,66.7343 166.251,63.7343 169.5,61.5C 169.008,56.6764 168.341,52.0097 167.5,47.5C 167.649,46.448 167.483,45.448 167,44.5C 165,43.8333 163.667,42.5 163,40.5C 161.476,36.1315 159.976,31.7982 158.5,27.5C 160.973,23.2637 162.306,23.597 162.5,28.5C 163.873,28.3433 165.207,28.51 166.5,29C 166.167,29.3333 165.833,29.6667 165.5,30C 166.745,30.7914 168.078,31.2914 169.5,31.5C 169.5,32.8333 169.5,34.1667 169.5,35.5C 168.805,40.2492 170.805,41.4159 175.5,39C 180.129,34.2189 184.129,29.0523 187.5,23.5 Z"/></g>
<g><path style="opacity:1" fill="#8cb0ed" d="M 16.5,53.5 C 16.5,55.1667 16.5,56.8333 16.5,58.5C 16.6567,59.8734 16.49,61.2068 16,62.5C 15.7935,59.3771 15.1268,56.3771 14,53.5C 13.5006,59.1569 13.3339,64.8236 13.5,70.5C 13.1667,70.5 12.8333,70.5 12.5,70.5C 9.57337,60.4561 8.74004,50.1228 10,39.5C 13.4561,45.9368 14.2895,45.2702 12.5,37.5C 12.0019,32.8478 11.6686,28.1811 11.5,23.5C 12.9717,31.6593 14.6384,41.6593 16.5,53.5 Z"/></g>
<g><path style="opacity:1" fill="#5478d6" d="M 135.5,44.5 C 136.167,44.8333 136.833,45.1667 137.5,45.5C 137.795,47.7354 137.461,49.7354 136.5,51.5C 136.649,50.448 136.483,49.448 136,48.5C 135.31,47.2617 134.81,47.2617 134.5,48.5C 131.551,46.5014 128.551,46.1681 125.5,47.5C 124.833,47.5 124.5,47.8333 124.5,48.5C 123.003,52.6954 124.669,54.6954 129.5,54.5C 128.432,55.4345 127.099,55.7678 125.5,55.5C 124.078,54.075 122.411,53.075 120.5,52.5C 121.126,49.6851 122.46,47.1851 124.5,45C 128.152,44.5014 131.818,44.3347 135.5,44.5 Z"/></g>
<g><path style="opacity:1" fill="#f5ccd2" d="M 125.5,47.5 C 127.167,47.5 128.833,47.5 130.5,47.5C 130.853,49.6348 130.02,50.9681 128,51.5C 126.05,51.2926 124.884,50.2926 124.5,48.5C 124.5,47.8333 124.833,47.5 125.5,47.5 Z"/></g>
<g><path style="opacity:1" fill="#5c8ff5" d="M 50.5,43.5 C 50.5,43.8333 50.5,44.1667 50.5,44.5C 50.703,49.5307 52.0363,54.1973 54.5,58.5C 54.0431,59.2975 53.3764,59.6309 52.5,59.5C 51.5,58.8333 50.5,58.1667 49.5,57.5C 44.5325,51.2336 40.8658,44.2336 38.5,36.5C 38.3691,35.6236 38.7025,34.9569 39.5,34.5C 41.5645,36.2614 43.7311,36.5947 46,35.5C 48.2862,37.7405 49.7862,40.4072 50.5,43.5 Z"/></g>
<g><path style="opacity:1" fill="#d4effa" d="M 105.5,40.5 C 106.013,43.3974 106.346,46.3974 106.5,49.5C 107.192,48.9747 107.692,48.3081 108,47.5C 108.202,49.2556 108.702,50.9223 109.5,52.5C 111.939,50.9732 113.939,48.9732 115.5,46.5C 117.171,48.5098 117.838,50.8431 117.5,53.5C 116.5,54.5 115.5,55.5 114.5,56.5C 109.489,56.6659 104.489,56.4993 99.5,56C 101.833,55.6667 104.167,55.3333 106.5,55C 102.747,53.0111 98.747,52.1778 94.5,52.5C 96.8712,51.0088 99.5379,50.0088 102.5,49.5C 103.658,46.5244 104.658,43.5244 105.5,40.5 Z"/></g>
<g><path style="opacity:1" fill="#e6becd" d="M 163.5,53.5 C 163.167,54.1667 162.833,54.8333 162.5,55.5C 161.5,55.5 160.5,55.5 159.5,55.5C 159.5,54.5 159.5,53.5 159.5,52.5C 162.089,46.8872 163.422,47.2205 163.5,53.5 Z"/></g>
<g><path style="opacity:1" fill="#cf8cb6" d="M 125.5,47.5 C 128.551,46.1681 131.551,46.5014 134.5,48.5C 134.288,51.7124 132.621,53.7124 129.5,54.5C 124.669,54.6954 123.003,52.6954 124.5,48.5C 124.884,50.2926 126.05,51.2926 128,51.5C 130.02,50.9681 130.853,49.6348 130.5,47.5C 128.833,47.5 127.167,47.5 125.5,47.5 Z"/></g>
<g><path style="opacity:1" fill="#2d4bb9" d="M 136.5,51.5 C 136.167,52.1667 135.833,52.8333 135.5,53.5C 134.027,54.072 132.693,54.9054 131.5,56C 129.288,56.7891 127.288,56.6225 125.5,55.5C 127.099,55.7678 128.432,55.4345 129.5,54.5C 132.621,53.7124 134.288,51.7124 134.5,48.5C 134.81,47.2617 135.31,47.2617 136,48.5C 136.483,49.448 136.649,50.448 136.5,51.5 Z"/></g>
<g><path style="opacity:1" fill="#8eb8f2" d="M 94.5,52.5 C 98.747,52.1778 102.747,53.0111 106.5,55C 104.167,55.3333 101.833,55.6667 99.5,56C 104.489,56.4993 109.489,56.6659 114.5,56.5C 111.038,57.4816 107.371,57.815 103.5,57.5C 100.833,57.5 98.1667,57.5 95.5,57.5C 95.0618,57.5654 94.7284,57.3988 94.5,57C 95.1667,56.6667 95.8333,56.3333 96.5,56C 95.1772,55.1841 94.5106,54.0174 94.5,52.5 Z"/></g>
<g><path style="opacity:1" fill="#4c89f9" d="M 24.5,64.5 C 25.9469,70.3472 28.4469,75.6806 32,80.5C 32.4935,82.1341 32.6602,83.8008 32.5,85.5C 32.5,86.1667 32.1667,86.5 31.5,86.5C 29.2821,89.1132 27.6154,92.1132 26.5,95.5C 25.2502,95.4226 24.4169,94.756 24,93.5C 23.6667,93.8333 23.3333,94.1667 23,94.5C 19.8456,82.5388 17.679,70.5388 16.5,58.5C 16.5,56.8333 16.5,55.1667 16.5,53.5C 16.369,52.7611 16.5357,52.0944 17,51.5C 19.5269,55.8961 22.0269,60.2295 24.5,64.5 Z"/></g>
<g><path style="opacity:1" fill="#15347c" d="M 120.5,52.5 C 122.411,53.075 124.078,54.075 125.5,55.5C 127.288,56.6225 129.288,56.7891 131.5,56C 132.693,54.9054 134.027,54.072 135.5,53.5C 134.268,56.2533 132.768,58.92 131,61.5C 130.43,58.1562 129.264,57.8228 127.5,60.5C 125.925,59.5435 124.258,58.8769 122.5,58.5C 121.27,56.7028 120.604,54.7028 120.5,52.5 Z"/></g>
<g><path style="opacity:1" fill="#b2c0d4" d="M 167.5,47.5 C 168.341,52.0097 169.008,56.6764 169.5,61.5C 168.5,61.5 167.5,61.5 166.5,61.5C 165.728,57.5483 165.395,53.5483 165.5,49.5C 167.203,50.6602 167.869,49.9935 167.5,47.5 Z"/></g>
<g><path style="opacity:1" fill="#759ae6" d="M 50.5,44.5 C 53.0091,50.6863 55.3424,57.0196 57.5,63.5C 55.2512,62.9202 53.5846,61.5869 52.5,59.5C 53.3764,59.6309 54.0431,59.2975 54.5,58.5C 52.0363,54.1973 50.703,49.5307 50.5,44.5 Z"/></g>
<g><path style="opacity:1" fill="#446a95" d="M 147.5,35.5 C 150.534,40.5868 151.201,46.0868 149.5,52C 149.542,53.9674 150.042,55.8008 151,57.5C 151.642,53.5092 152.142,49.5092 152.5,45.5C 153.552,45.3505 154.552,45.5172 155.5,46C 153.679,48.456 153.012,51.2893 153.5,54.5C 153.098,57.4766 152.098,60.1433 150.5,62.5C 149.167,61.5 147.833,60.5 146.5,59.5C 146.112,55.2809 145.112,51.2809 143.5,47.5C 144.031,45.4559 145.198,43.7893 147,42.5C 147.497,40.1902 147.663,37.8568 147.5,35.5 Z"/></g>
<g><path style="opacity:1" fill="#74a1e4" d="M 204.5,46.5 C 205.64,55.0193 207.306,63.3527 209.5,71.5C 208.609,72.1098 207.609,72.4431 206.5,72.5C 205.25,72.4226 204.417,71.756 204,70.5C 201.479,71.8807 199.645,73.8807 198.5,76.5C 195.63,77.4333 193.296,79.1 191.5,81.5C 189.97,82.2112 188.637,83.2112 187.5,84.5C 186.878,83.3734 186.045,82.3734 185,81.5C 184.333,80.1667 184.333,78.8333 185,77.5C 187.615,73.2171 190.615,69.2171 194,65.5C 197.054,59.7102 199.554,53.7102 201.5,47.5C 202.325,46.6143 203.325,46.281 204.5,46.5 Z"/></g>
<g><path style="opacity:1" fill="#6a96d9" d="M 135.5,44.5 C 131.818,44.3347 128.152,44.5014 124.5,45C 122.46,47.1851 121.126,49.6851 120.5,52.5C 120.604,54.7028 121.27,56.7028 122.5,58.5C 118.618,58.0411 116.618,59.3745 116.5,62.5C 115.311,63.4287 113.978,63.762 112.5,63.5C 115.168,61.0703 114.501,59.7369 110.5,59.5C 108.167,58.8333 105.833,58.1667 103.5,57.5C 107.371,57.815 111.038,57.4816 114.5,56.5C 115.5,55.5 116.5,54.5 117.5,53.5C 118.224,50.4772 119.224,47.4772 120.5,44.5C 125.6,43.2001 130.6,43.2001 135.5,44.5 Z"/></g>
<g><path style="opacity:1" fill="#1e3a83" d="M 163.5,53.5 C 164.152,54.4486 164.486,55.6153 164.5,57C 164.392,58.6811 163.725,59.8478 162.5,60.5C 160.489,58.4089 160.489,56.7422 162.5,55.5C 162.833,54.8333 163.167,54.1667 163.5,53.5 Z"/></g>
<g><path style="opacity:1" fill="#4d6eac" d="M 163.5,46.5 C 164.401,47.2905 165.068,48.2905 165.5,49.5C 165.395,53.5483 165.728,57.5483 166.5,61.5C 167.5,61.5 168.5,61.5 169.5,61.5C 166.251,63.7343 164.251,66.7343 163.5,70.5C 163.747,67.0613 163.414,63.728 162.5,60.5C 163.725,59.8478 164.392,58.6811 164.5,57C 164.486,55.6153 164.152,54.4486 163.5,53.5C 163.422,47.2205 162.089,46.8872 159.5,52.5C 158.833,51.5 158.167,50.5 157.5,49.5C 157.5,48.5 157.5,47.5 157.5,46.5C 159.5,46.5 161.5,46.5 163.5,46.5 Z"/></g>
<g><path style="opacity:1" fill="#94a5c9" d="M 48.5,25.5 C 49.3127,27.2608 50.3127,28.9275 51.5,30.5C 53.3497,38.888 55.5163,47.2214 58,55.5C 58.8007,58.367 58.6341,61.0336 57.5,63.5C 55.3424,57.0196 53.0091,50.6863 50.5,44.5C 50.5,44.1667 50.5,43.8333 50.5,43.5C 51.1471,42.7261 51.4805,41.7261 51.5,40.5C 50.1144,35.572 49.1144,30.572 48.5,25.5 Z"/></g>
<g><path style="opacity:1" fill="#5991ef" d="M 95.5,57.5 C 98.1667,57.5 100.833,57.5 103.5,57.5C 105.833,58.1667 108.167,58.8333 110.5,59.5C 107.579,60.696 104.579,61.696 101.5,62.5C 99.5,60.8333 97.5,59.1667 95.5,57.5 Z"/></g>
<g><path style="opacity:1" fill="#3f6cad" d="M 137.5,45.5 C 138.5,45.8333 139.167,46.5 139.5,47.5C 140.532,54.4793 141.032,61.4793 141,68.5C 140.667,67.8333 140.333,67.1667 140,66.5C 136.27,74.7989 134.103,74.4656 133.5,65.5C 132.5,65.5 131.5,65.5 130.5,65.5C 130.433,66.9587 130.766,68.2921 131.5,69.5C 129.264,68.6109 127.264,67.2776 125.5,65.5C 124.946,62.9129 123.946,60.5796 122.5,58.5C 124.258,58.8769 125.925,59.5435 127.5,60.5C 129.264,57.8228 130.43,58.1562 131,61.5C 132.768,58.92 134.268,56.2533 135.5,53.5C 135.833,52.8333 136.167,52.1667 136.5,51.5C 137.461,49.7354 137.795,47.7354 137.5,45.5 Z"/></g>
<g><path style="opacity:1" fill="#325b8e" d="M 157.5,49.5 C 158.167,50.5 158.833,51.5 159.5,52.5C 159.5,53.5 159.5,54.5 159.5,55.5C 160.5,55.5 161.5,55.5 162.5,55.5C 160.489,56.7422 160.489,58.4089 162.5,60.5C 161.523,63.2869 161.19,66.2869 161.5,69.5C 160.224,71.5625 159.39,73.8958 159,76.5C 158.004,69.0585 157.171,68.8918 156.5,76C 157.306,84.1476 157.639,92.3143 157.5,100.5C 157.089,105.338 156.422,110.005 155.5,114.5C 155.552,112.097 155.219,109.764 154.5,107.5C 154.5,101.833 154.5,96.1667 154.5,90.5C 154.664,87.8127 154.497,85.146 154,82.5C 152.301,81.5939 150.467,81.2606 148.5,81.5C 148.5,81.1667 148.5,80.8333 148.5,80.5C 148.5,79.1667 148.5,77.8333 148.5,76.5C 149.422,72.0051 150.089,67.3384 150.5,62.5C 152.098,60.1433 153.098,57.4766 153.5,54.5C 155.207,53.1274 156.54,51.4607 157.5,49.5 Z"/></g>
<g><path style="opacity:1" fill="#4e6585" d="M 194.5,58.5 C 192.825,61.245 191.158,63.9117 189.5,66.5C 189.5,64.1667 189.5,61.8333 189.5,59.5C 191.216,59.3713 192.883,59.038 194.5,58.5 Z"/></g>
<g><path style="opacity:1" fill="#c5d7f4" d="M 110.5,59.5 C 114.501,59.7369 115.168,61.0703 112.5,63.5C 111.833,63.5 111.5,63.8333 111.5,64.5C 111.167,64.5 110.833,64.5 110.5,64.5C 108.167,64.5 105.833,64.5 103.5,64.5C 103.768,66.099 103.434,67.4324 102.5,68.5C 102.822,66.2776 102.155,64.4443 100.5,63C 100.728,62.6012 101.062,62.4346 101.5,62.5C 104.579,61.696 107.579,60.696 110.5,59.5 Z"/></g>
<g><path style="opacity:1" fill="#497cca" d="M 24.5,49.5 C 29.8303,60.5028 33.1636,72.1695 34.5,84.5C 34.1583,85.3382 33.4916,85.6716 32.5,85.5C 32.6602,83.8008 32.4935,82.1341 32,80.5C 28.4469,75.6806 25.9469,70.3472 24.5,64.5C 25.6903,59.5231 25.6903,54.5231 24.5,49.5 Z"/></g>
<g><path style="opacity:1" fill="#527cb2" d="M 139.5,47.5 C 140.268,48.2625 140.768,49.2625 141,50.5C 141.377,49.0577 142.21,48.0577 143.5,47.5C 145.112,51.2809 146.112,55.2809 146.5,59.5C 142.749,65.6621 140.749,72.3288 140.5,79.5C 139.833,79.5 139.5,79.1667 139.5,78.5C 139.649,77.448 139.483,76.448 139,75.5C 137.701,75.9662 136.201,75.9662 134.5,75.5C 133.201,73.5877 132.201,71.5877 131.5,69.5C 130.766,68.2921 130.433,66.9587 130.5,65.5C 131.5,65.5 132.5,65.5 133.5,65.5C 134.103,74.4656 136.27,74.7989 140,66.5C 140.333,67.1667 140.667,67.8333 141,68.5C 141.032,61.4793 140.532,54.4793 139.5,47.5 Z"/></g>
<g><path style="opacity:1" fill="#143883" d="M 76.5,73.5 C 73.8437,78.1738 70.1771,79.3405 65.5,77C 67.1793,74.4355 67.846,71.6021 67.5,68.5C 66.448,68.3505 65.448,68.5172 64.5,69C 63.782,70.9874 62.782,72.8208 61.5,74.5C 59.3379,72.9802 57.0046,71.9802 54.5,71.5C 54.9802,74.0046 55.9802,76.3379 57.5,78.5C 56.3408,81.5154 57.3408,83.5154 60.5,84.5C 55.6482,84.5049 51.6482,86.3382 48.5,90C 47.552,90.4828 46.552,90.6495 45.5,90.5C 45.1743,87.6887 44.3409,85.022 43,82.5C 41.8545,81.3157 40.6879,81.3157 39.5,82.5C 39.1667,82.5 38.8333,82.5 38.5,82.5C 37.9552,79.1869 37.4552,75.8536 37,72.5C 33.9383,67.0467 31.4383,61.3801 29.5,55.5C 29.8966,54.475 30.5632,54.3083 31.5,55C 32.6667,56.1667 33.8333,57.3333 35,58.5C 36.941,64.2751 40.7743,68.2751 46.5,70.5C 47.2508,69.624 47.7508,68.624 48,67.5C 50.0183,68.2228 51.8516,69.2228 53.5,70.5C 57.085,70.0935 59.7516,68.2602 61.5,65C 59.7888,63.8668 59.2888,62.3668 60,60.5C 61.0497,63.2395 62.883,64.7395 65.5,65C 65.8696,63.3903 65.2029,61.8903 63.5,60.5C 64.3966,60.3309 65.3966,59.9976 66.5,59.5C 66.2907,58.914 65.9574,58.414 65.5,58C 66.8502,56.2817 68.0168,54.4484 69,52.5C 70.0855,57.4366 70.7521,62.4366 71,67.5C 73.1485,68.9774 74.4818,70.9774 75,73.5C 75.69,72.2617 76.19,72.2617 76.5,73.5 Z"/></g>
<g><path style="opacity:1" fill="#3d6cad" d="M 146.5,59.5 C 147.833,60.5 149.167,61.5 150.5,62.5C 150.089,67.3384 149.422,72.0051 148.5,76.5C 144.284,74.7876 142.284,76.2876 142.5,81C 142.667,82.1667 142.833,83.3333 143,84.5C 144.432,82.5612 146.265,81.2279 148.5,80.5C 148.5,80.8333 148.5,81.1667 148.5,81.5C 149.958,88.5539 149.791,95.5539 148,102.5C 147.333,101.833 146.667,101.167 146,100.5C 145.667,107.167 145.333,113.833 145,120.5C 144.722,121.416 144.222,122.082 143.5,122.5C 143.443,121.391 143.11,120.391 142.5,119.5C 142.5,113.833 142.5,108.167 142.5,102.5C 142.924,94.685 142.257,87.0183 140.5,79.5C 140.749,72.3288 142.749,65.6621 146.5,59.5 Z"/></g>
<g><path style="opacity:1" fill="#7d98b7" d="M -0.5,56.5 C 1.01088,58.4758 1.84421,60.8091 2,63.5C 5.3718,66.8294 8.8718,69.1627 12.5,70.5C 12.8333,70.5 13.1667,70.5 13.5,70.5C 14.4345,71.5676 14.7678,72.901 14.5,74.5C 10.5264,73.3791 6.85968,71.5457 3.5,69C 2.20677,68.51 0.873441,68.3433 -0.5,68.5C -0.5,64.5 -0.5,60.5 -0.5,56.5 Z"/></g>
<g><path style="opacity:1" fill="#57719b" d="M 21.5,35.5 C 23.2627,37.8852 24.7627,40.5519 26,43.5C 26.6438,47.793 27.8104,51.793 29.5,55.5C 31.4383,61.3801 33.9383,67.0467 37,72.5C 37.4552,75.8536 37.9552,79.1869 38.5,82.5C 37.4863,83.6737 36.153,84.3404 34.5,84.5C 33.1636,72.1695 29.8303,60.5028 24.5,49.5C 23.4887,46.0596 22.4887,42.7263 21.5,39.5C 21.5,38.1667 21.5,36.8333 21.5,35.5 Z"/></g>
<g><path style="opacity:1" fill="#4379d4" d="M 122.5,58.5 C 123.946,60.5796 124.946,62.9129 125.5,65.5C 127.264,67.2776 129.264,68.6109 131.5,69.5C 132.201,71.5877 133.201,73.5877 134.5,75.5C 134.5,76.5 134.5,77.5 134.5,78.5C 133.883,78.6107 133.383,78.944 133,79.5C 129.194,75.6937 125.36,71.8604 121.5,68C 118.833,67.6667 116.167,67.3333 113.5,67C 114.5,66.6667 115.5,66.3333 116.5,66C 114.975,64.9914 113.308,64.4914 111.5,64.5C 111.5,63.8333 111.833,63.5 112.5,63.5C 113.978,63.762 115.311,63.4287 116.5,62.5C 116.618,59.3745 118.618,58.0411 122.5,58.5 Z"/></g>
<g><path style="opacity:1" fill="#e1ebf4" d="M 226.5,70.5 C 227.72,72.2837 227.72,73.9504 226.5,75.5C 225.638,69.7664 222.972,68.5997 218.5,72C 220.421,73.2408 220.754,74.7408 219.5,76.5C 218.932,74.5654 217.765,73.2321 216,72.5C 212.686,73.7445 209.519,73.7445 206.5,72.5C 207.609,72.4431 208.609,72.1098 209.5,71.5C 213.78,70.3471 218.113,69.3471 222.5,68.5C 224.114,68.8029 225.448,69.4695 226.5,70.5 Z"/></g>
<g><path style="opacity:1" fill="#6487c0" d="M -0.5,68.5 C 0.873441,68.3433 2.20677,68.51 3.5,69C 6.85968,71.5457 10.5264,73.3791 14.5,74.5C 17.8781,80.9981 19.8781,87.9981 20.5,95.5C 15.2965,90.4768 9.79649,85.4768 4,80.5C 3.60123,80.7284 3.43456,81.0618 3.5,81.5C 2.40698,79.6508 1.07365,77.9842 -0.5,76.5C -0.5,73.8333 -0.5,71.1667 -0.5,68.5 Z"/></g>
<g><path style="opacity:1" fill="#12397f" d="M 76.5,73.5 C 78.0418,72.6993 79.7085,72.366 81.5,72.5C 81.0338,74.2012 81.0338,75.7012 81.5,77C 80.6919,77.3076 80.0253,77.8076 79.5,78.5C 81.4866,80.5014 83.8199,81.3348 86.5,81C 86.3062,79.5701 86.3062,78.0701 86.5,76.5C 88.4386,78.1222 88.772,79.9555 87.5,82C 89.8127,82.662 92.146,83.162 94.5,83.5C 94.4021,85.5529 95.0687,87.2196 96.5,88.5C 95.1363,90.1911 93.803,91.8577 92.5,93.5C 91.1964,92.0131 90.0298,90.3464 89,88.5C 87.8436,92.4183 87.3436,96.4183 87.5,100.5C 85.5,103.5 83.5,106.5 81.5,109.5C 80.0221,108.552 79.0221,107.219 78.5,105.5C 74.795,102.474 70.795,99.8077 66.5,97.5C 65.4253,96.2866 64.7586,94.7866 64.5,93C 65.0936,90.9243 65.0936,89.091 64.5,87.5C 63.7377,85.7376 62.4044,84.7376 60.5,84.5C 57.3408,83.5154 56.3408,81.5154 57.5,78.5C 55.9802,76.3379 54.9802,74.0046 54.5,71.5C 57.0046,71.9802 59.3379,72.9802 61.5,74.5C 62.782,72.8208 63.782,70.9874 64.5,69C 65.448,68.5172 66.448,68.3505 67.5,68.5C 67.846,71.6021 67.1793,74.4355 65.5,77C 70.1771,79.3405 73.8437,78.1738 76.5,73.5 Z"/></g>
<g><path style="opacity:1" fill="#94b7e4" d="M 226.5,75.5 C 226.167,76.8333 225.833,78.1667 225.5,79.5C 223.621,80.3414 221.621,80.6747 219.5,80.5C 219.719,79.325 219.386,78.325 218.5,77.5C 216.232,78.5443 213.899,78.711 211.5,78C 210.663,76.9887 210.33,75.8221 210.5,74.5C 206.227,74.081 202.227,74.7476 198.5,76.5C 199.645,73.8807 201.479,71.8807 204,70.5C 204.417,71.756 205.25,72.4226 206.5,72.5C 209.519,73.7445 212.686,73.7445 216,72.5C 217.765,73.2321 218.932,74.5654 219.5,76.5C 220.754,74.7408 220.421,73.2408 218.5,72C 222.972,68.5997 225.638,69.7664 226.5,75.5 Z"/></g>
<g><path style="opacity:1" fill="#5c92f0" d="M 16.5,58.5 C 17.679,70.5388 19.8456,82.5388 23,94.5C 23.3333,94.1667 23.6667,93.8333 24,93.5C 24.4169,94.756 25.2502,95.4226 26.5,95.5C 26.5,95.8333 26.5,96.1667 26.5,96.5C 25.1667,98.8333 23.8333,101.167 22.5,103.5C 22.8893,100.447 22.2227,97.78 20.5,95.5C 19.8781,87.9981 17.8781,80.9981 14.5,74.5C 14.7678,72.901 14.4345,71.5676 13.5,70.5C 13.3339,64.8236 13.5006,59.1569 14,53.5C 15.1268,56.3771 15.7935,59.3771 16,62.5C 16.49,61.2068 16.6567,59.8734 16.5,58.5 Z"/></g>
<g><path style="opacity:1" fill="#d5ecfa" d="M 204.5,46.5 C 203.325,46.281 202.325,46.6143 201.5,47.5C 199.554,53.7102 197.054,59.7102 194,65.5C 190.615,69.2171 187.615,73.2171 185,77.5C 184.333,78.8333 184.333,80.1667 185,81.5C 186.045,82.3734 186.878,83.3734 187.5,84.5C 187.167,84.5 186.833,84.5 186.5,84.5C 180.95,79.7752 175.283,75.2752 169.5,71C 170.416,70.7216 171.082,70.2216 171.5,69.5C 173.857,69.3367 176.19,69.5034 178.5,70C 183.908,75.2254 187.575,74.0587 189.5,66.5C 191.158,63.9117 192.825,61.245 194.5,58.5C 195.167,56.8333 195.833,55.1667 196.5,53.5C 198.266,50.8121 199.933,47.9788 201.5,45C 202.998,44.4153 203.998,44.9153 204.5,46.5 Z"/></g>
<g><path style="opacity:1" fill="#c3e5f8" d="M 162.5,60.5 C 163.414,63.728 163.747,67.0613 163.5,70.5C 163.34,72.1992 163.506,73.8659 164,75.5C 165.371,73.9586 166.871,72.6253 168.5,71.5C 167.397,77.1152 166.397,82.7819 165.5,88.5C 164.391,88.4431 163.391,88.1098 162.5,87.5C 161.676,84.2356 161.342,80.9023 161.5,77.5C 161.5,74.8333 161.5,72.1667 161.5,69.5C 161.19,66.2869 161.523,63.2869 162.5,60.5 Z"/></g>
<g><path style="opacity:1" fill="#6289b0" d="M 148.5,76.5 C 148.5,77.8333 148.5,79.1667 148.5,80.5C 146.265,81.2279 144.432,82.5612 143,84.5C 142.833,83.3333 142.667,82.1667 142.5,81C 142.284,76.2876 144.284,74.7876 148.5,76.5 Z"/></g>
<g><path style="opacity:1" fill="#54759f" d="M 161.5,69.5 C 161.5,72.1667 161.5,74.8333 161.5,77.5C 160.414,77.62 159.747,78.2867 159.5,79.5C 160.542,83.7988 160.709,88.1321 160,92.5C 159.667,89.8333 159.333,87.1667 159,84.5C 158.827,90.0158 158.327,95.3491 157.5,100.5C 157.639,92.3143 157.306,84.1476 156.5,76C 157.171,68.8918 158.004,69.0585 159,76.5C 159.39,73.8958 160.224,71.5625 161.5,69.5 Z"/></g>
<g><path style="opacity:1" fill="#17408b" d="M 108.5,67.5 C 114.204,70.3581 119.537,73.8581 124.5,78C 126.808,80.1277 128.474,82.6277 129.5,85.5C 126.945,89.0056 123.945,89.339 120.5,86.5C 119.515,84.228 118.681,81.8947 118,79.5C 117.329,78.7476 116.496,78.4142 115.5,78.5C 115.013,77.5266 114.513,76.5266 114,75.5C 112.989,76.3366 111.822,76.67 110.5,76.5C 109.072,73.6967 108.405,70.6967 108.5,67.5 Z"/></g>
<g><path style="opacity:1" fill="#366cd2" d="M 110.5,64.5 C 110.833,64.5 111.167,64.5 111.5,64.5C 113.308,64.4914 114.975,64.9914 116.5,66C 115.5,66.3333 114.5,66.6667 113.5,67C 116.167,67.3333 118.833,67.6667 121.5,68C 125.36,71.8604 129.194,75.6937 133,79.5C 133.383,78.944 133.883,78.6107 134.5,78.5C 136.268,81.1625 136.935,84.1625 136.5,87.5C 135.778,87.0825 135.278,86.4158 135,85.5C 134.667,87.8333 134.333,90.1667 134,92.5C 132.974,89.7613 131.474,87.428 129.5,85.5C 128.474,82.6277 126.808,80.1277 124.5,78C 119.537,73.8581 114.204,70.3581 108.5,67.5C 108.389,66.8826 108.056,66.3826 107.5,66C 108.737,65.7679 109.737,65.2679 110.5,64.5 Z"/></g>
<g><path style="opacity:1" fill="#94b6eb" d="M 171.5,69.5 C 171.082,70.2216 170.416,70.7216 169.5,71C 175.283,75.2752 180.95,79.7752 186.5,84.5C 185.236,88.8434 185.903,92.8434 188.5,96.5C 185.833,96.5 183.167,96.5 180.5,96.5C 183.527,95.3737 183.86,93.8737 181.5,92C 179.162,91.1634 176.828,90.3301 174.5,89.5C 172.896,89.9391 171.396,90.6057 170,91.5C 168.357,90.6854 166.857,89.6854 165.5,88.5C 166.397,82.7819 167.397,77.1152 168.5,71.5C 168.821,69.9519 169.821,69.2852 171.5,69.5 Z"/></g>
<g><path style="opacity:1" fill="#b4dafc" d="M 170.5,79.5 C 176.322,80.5714 180.989,83.4047 184.5,88C 184.167,88.5 183.833,89 183.5,89.5C 181.96,87.6132 180.293,85.7799 178.5,84C 175.883,83.1785 173.216,82.6785 170.5,82.5C 170.5,81.5 170.5,80.5 170.5,79.5 Z"/></g>
<g><path style="opacity:1" fill="#608bc9" d="M 192.5,99.5 C 191.474,98.147 190.141,97.147 188.5,96.5C 185.903,92.8434 185.236,88.8434 186.5,84.5C 186.833,84.5 187.167,84.5 187.5,84.5C 188.637,83.2112 189.97,82.2112 191.5,81.5C 194.601,81.3083 197.601,80.6416 200.5,79.5C 205.457,80.4366 205.791,82.27 201.5,85C 193.497,87.2955 193.497,88.2955 201.5,88C 199.018,92.3065 196.018,96.1399 192.5,99.5 Z"/></g>
<g><path style="opacity:1" fill="#93b1e5" d="M 38.5,82.5 C 38.8333,82.5 39.1667,82.5 39.5,82.5C 40.209,83.404 41.209,83.7373 42.5,83.5C 42.4326,84.9587 42.7659,86.2921 43.5,87.5C 42.8333,87.5 42.1667,87.5 41.5,87.5C 38.3566,89.2417 35.3566,91.2417 32.5,93.5C 31.5258,91.2573 31.1924,88.924 31.5,86.5C 32.1667,86.5 32.5,86.1667 32.5,85.5C 33.4916,85.6716 34.1583,85.3382 34.5,84.5C 36.153,84.3404 37.4863,83.6737 38.5,82.5 Z"/></g>
<g><path style="opacity:1" fill="#6480a2" d="M -0.5,76.5 C 1.07365,77.9842 2.40698,79.6508 3.5,81.5C 6.34968,85.1994 8.68301,89.1994 10.5,93.5C 9.6365,92.537 8.96983,92.537 8.5,93.5C 9.41434,95.6641 10.581,97.6641 12,99.5C 12.7796,101.387 12.6129,103.054 11.5,104.5C 11.1667,103.5 10.5,102.833 9.5,102.5C 9.58577,101.504 9.25244,100.671 8.5,100C 6.54826,99.6339 4.88159,98.8005 3.5,97.5C 2.14728,94.7946 0.81395,92.1279 -0.5,89.5C -0.5,85.1667 -0.5,80.8333 -0.5,76.5 Z"/></g>
<g><path style="opacity:1" fill="#4373b9" d="M 134.5,75.5 C 136.201,75.9662 137.701,75.9662 139,75.5C 139.483,76.448 139.649,77.448 139.5,78.5C 138.957,78.56 138.624,78.8933 138.5,79.5C 140.104,86.7495 140.604,94.0829 140,101.5C 138.132,97.0521 136.965,92.3854 136.5,87.5C 136.935,84.1625 136.268,81.1625 134.5,78.5C 134.5,77.5 134.5,76.5 134.5,75.5 Z"/></g>
<g><path style="opacity:1" fill="#a0b3cc" d="M 161.5,77.5 C 161.342,80.9023 161.676,84.2356 162.5,87.5C 162.5,89.5 162.5,91.5 162.5,93.5C 161.71,94.6085 161.21,95.9419 161,97.5C 160.501,102.155 160.334,106.821 160.5,111.5C 159.414,111.62 158.747,112.287 158.5,113.5C 158.078,117.007 157.244,120.34 156,123.5C 155.536,122.906 155.369,122.239 155.5,121.5C 155.5,119.167 155.5,116.833 155.5,114.5C 156.422,110.005 157.089,105.338 157.5,100.5C 158.327,95.3491 158.827,90.0158 159,84.5C 159.333,87.1667 159.667,89.8333 160,92.5C 160.709,88.1321 160.542,83.7988 159.5,79.5C 159.747,78.2867 160.414,77.62 161.5,77.5 Z"/></g>
<g><path style="opacity:1" fill="#5882be" d="M 224.5,81.5 C 223.93,85.9115 221.597,89.0782 217.5,91C 218.977,92.8121 220.31,94.6455 221.5,96.5C 219.381,98.3998 217.047,100.066 214.5,101.5C 215.213,97.3676 215.88,93.2009 216.5,89C 216.496,86.6392 216.163,84.4726 215.5,82.5C 215.783,81.7109 216.283,81.0442 217,80.5C 217.202,82.2556 217.702,83.9223 218.5,85.5C 219.509,82.663 221.509,81.3297 224.5,81.5 Z"/></g>
<g><path style="opacity:1" fill="#345e9f" d="M 20.5,95.5 C 22.2227,97.78 22.8893,100.447 22.5,103.5C 22.539,106.089 21.539,108.089 19.5,109.5C 17.5095,103.511 14.5095,98.1773 10.5,93.5C 8.68301,89.1994 6.34968,85.1994 3.5,81.5C 3.43456,81.0618 3.60123,80.7284 4,80.5C 9.79649,85.4768 15.2965,90.4768 20.5,95.5 Z"/></g>
<g><path style="opacity:1" fill="#78a1d6" d="M 92.5,93.5 C 91.1891,96.1354 89.5224,98.4687 87.5,100.5C 87.3436,96.4183 87.8436,92.4183 89,88.5C 90.0298,90.3464 91.1964,92.0131 92.5,93.5 Z"/></g>
<g><path style="opacity:1" fill="#31559a" d="M 115.5,78.5 C 115.187,81.5716 115.854,84.405 117.5,87C 115.722,89.225 115.222,91.725 116,94.5C 117,98.5 118,102.5 119,106.5C 120.507,110.236 121.34,110.236 121.5,106.5C 122.27,108.686 123.27,110.852 124.5,113C 124.167,113.5 123.833,114 123.5,114.5C 120.812,113.487 118.146,112.487 115.5,111.5C 115.167,111.5 114.833,111.5 114.5,111.5C 114.551,107.095 113.551,102.928 111.5,99C 115.58,91.2163 115.247,83.7163 110.5,76.5C 111.822,76.67 112.989,76.3366 114,75.5C 114.513,76.5266 115.013,77.5266 115.5,78.5 Z"/></g>
<g><path style="opacity:1" fill="#bee2fe" d="M 241.5,87.5 C 239.89,90.4659 238.223,93.4659 236.5,96.5C 234.469,98.4776 232.803,98.4776 231.5,96.5C 229.971,97.7629 228.305,98.7629 226.5,99.5C 228.557,95.933 231.223,92.7663 234.5,90C 235.549,89.5078 236.549,89.6744 237.5,90.5C 238.283,88.7118 239.616,87.7118 241.5,87.5 Z"/></g>
<g><path style="opacity:1" fill="#8da3c8" d="M 108.5,81.5 C 110.351,86.3692 109.517,90.7025 106,94.5C 105.246,97.6392 104.246,100.639 103,103.5C 102.64,101.579 101.806,99.9122 100.5,98.5C 97.7451,99.5099 95.7451,101.343 94.5,104C 91.5869,105.638 88.5869,107.138 85.5,108.5C 89.7958,103.034 94.2958,97.7006 99,92.5C 100.62,89.4247 102.12,86.258 103.5,83C 103.333,82.5 103.167,82 103,81.5C 101.89,83.0368 100.39,83.7035 98.5,83.5C 98.9628,80.779 99.6295,78.1123 100.5,75.5C 101.404,74.791 101.737,73.791 101.5,72.5C 102.939,71.4908 104.272,71.8241 105.5,73.5C 106.917,76.0923 107.917,78.759 108.5,81.5 Z"/></g>
<g><path style="opacity:1" fill="#2a55a7" d="M 115.5,78.5 C 116.496,78.4142 117.329,78.7476 118,79.5C 118.681,81.8947 119.515,84.228 120.5,86.5C 123.945,89.339 126.945,89.0056 129.5,85.5C 131.474,87.428 132.974,89.7613 134,92.5C 134.333,90.1667 134.667,87.8333 135,85.5C 135.278,86.4158 135.778,87.0825 136.5,87.5C 136.965,92.3854 138.132,97.0521 140,101.5C 140.604,94.0829 140.104,86.7495 138.5,79.5C 138.624,78.8933 138.957,78.56 139.5,78.5C 139.5,79.1667 139.833,79.5 140.5,79.5C 142.257,87.0183 142.924,94.685 142.5,102.5C 140.837,105.052 139.17,104.886 137.5,102C 135.866,101.506 134.199,101.34 132.5,101.5C 128.865,100.886 125.198,100.552 121.5,100.5C 121.5,102.5 121.5,104.5 121.5,106.5C 121.34,110.236 120.507,110.236 119,106.5C 118,102.5 117,98.5 116,94.5C 115.222,91.725 115.722,89.225 117.5,87C 115.854,84.405 115.187,81.5716 115.5,78.5 Z"/></g>
<g><path style="opacity:1" fill="#e0eef7" d="M 85.5,108.5 C 81.4564,111.543 78.1231,115.209 75.5,119.5C 72.8959,121.6 70.3959,123.933 68,126.5C 66.5861,125.587 65.0861,125.587 63.5,126.5C 63.5,125.5 63.5,124.5 63.5,123.5C 65.5739,122.486 67.5739,121.486 69.5,120.5C 74.0531,117.621 78.0531,113.955 81.5,109.5C 83.5,106.5 85.5,103.5 87.5,100.5C 89.5224,98.4687 91.1891,96.1354 92.5,93.5C 93.803,91.8577 95.1363,90.1911 96.5,88.5C 97.4408,86.9505 98.1075,85.2838 98.5,83.5C 100.39,83.7035 101.89,83.0368 103,81.5C 103.167,82 103.333,82.5 103.5,83C 102.12,86.258 100.62,89.4247 99,92.5C 94.2958,97.7006 89.7958,103.034 85.5,108.5 Z"/></g>
<g><path style="opacity:1" fill="#759bca" d="M 225.5,79.5 C 225.672,80.4916 225.338,81.1583 224.5,81.5C 221.509,81.3297 219.509,82.663 218.5,85.5C 217.702,83.9223 217.202,82.2556 217,80.5C 216.283,81.0442 215.783,81.7109 215.5,82.5C 214.833,83.1667 214.167,83.8333 213.5,84.5C 213.769,82.5714 213.269,80.9047 212,79.5C 211.517,80.448 211.351,81.448 211.5,82.5C 208.774,82.2639 206.441,83.0972 204.5,85C 206.488,85.1805 208.488,85.0138 210.5,84.5C 208.862,88.9502 208.029,93.6168 208,98.5C 205.332,100.492 203.832,103.158 203.5,106.5C 204.325,107.386 205.325,107.719 206.5,107.5C 207.64,110.025 208.307,112.692 208.5,115.5C 208.5,115.833 208.5,116.167 208.5,116.5C 207.504,116.414 206.671,116.748 206,117.5C 205.71,119.044 205.044,120.377 204,121.5C 202.734,118.534 201.567,115.534 200.5,112.5C 199.522,112.977 198.689,113.643 198,114.5C 196.961,113.29 195.794,112.29 194.5,111.5C 193.439,107.906 192.105,107.74 190.5,111C 189.552,111.483 188.552,111.649 187.5,111.5C 186.696,108.421 185.696,105.421 184.5,102.5C 187.658,101.53 190.658,102.197 193.5,104.5C 194.652,102.603 194.319,100.936 192.5,99.5C 196.018,96.1399 199.018,92.3065 201.5,88C 193.497,88.2955 193.497,87.2955 201.5,85C 205.791,82.27 205.457,80.4366 200.5,79.5C 197.601,80.6416 194.601,81.3083 191.5,81.5C 193.296,79.1 195.63,77.4333 198.5,76.5C 202.227,74.7476 206.227,74.081 210.5,74.5C 210.33,75.8221 210.663,76.9887 211.5,78C 213.899,78.711 216.232,78.5443 218.5,77.5C 219.386,78.325 219.719,79.325 219.5,80.5C 221.621,80.6747 223.621,80.3414 225.5,79.5 Z"/></g>
<g><path style="opacity:1" fill="#9cd2f4" d="M 213.5,84.5 C 212.5,84.5 211.5,84.5 210.5,84.5C 208.488,85.0138 206.488,85.1805 204.5,85C 206.441,83.0972 208.774,82.2639 211.5,82.5C 211.351,81.448 211.517,80.448 212,79.5C 213.269,80.9047 213.769,82.5714 213.5,84.5 Z"/></g>
<g><path style="opacity:1" fill="#a9c3e0" d="M 60.5,84.5 C 62.4044,84.7376 63.7377,85.7376 64.5,87.5C 61.447,87.3185 58.447,87.1519 55.5,87C 52.2784,91.2884 48.9451,95.455 45.5,99.5C 43.8333,100.833 42.1667,102.167 40.5,103.5C 39.9569,103.44 39.6236,103.107 39.5,102.5C 40.8333,100.5 42.1667,98.5 43.5,96.5C 42.6034,96.3309 41.6034,95.9976 40.5,95.5C 41.5,93.8333 42.8333,92.5 44.5,91.5C 43.7542,90.2638 43.4208,88.9305 43.5,87.5C 42.7659,86.2921 42.4326,84.9587 42.5,83.5C 41.209,83.7373 40.209,83.404 39.5,82.5C 40.6879,81.3157 41.8545,81.3157 43,82.5C 44.3409,85.022 45.1743,87.6887 45.5,90.5C 46.552,90.6495 47.552,90.4828 48.5,90C 51.6482,86.3382 55.6482,84.5049 60.5,84.5 Z"/></g>
<g><path style="opacity:1" fill="#79a6ee" d="M 162.5,87.5 C 163.391,88.1098 164.391,88.4431 165.5,88.5C 166.857,89.6854 168.357,90.6854 170,91.5C 171.396,90.6057 172.896,89.9391 174.5,89.5C 176.828,90.3301 179.162,91.1634 181.5,92C 183.86,93.8737 183.527,95.3737 180.5,96.5C 178.737,98.8852 177.237,101.552 176,104.5C 173.567,106.626 170.734,107.959 167.5,108.5C 166.82,109.86 166.153,111.193 165.5,112.5C 163.024,109.712 162.024,106.378 162.5,102.5C 164.196,102.315 165.529,101.481 166.5,100C 165.906,99.5357 165.239,99.369 164.5,99.5C 162.919,97.8583 162.253,95.8583 162.5,93.5C 162.5,91.5 162.5,89.5 162.5,87.5 Z"/></g>
<g><path style="opacity:1" fill="#3d639b" d="M 215.5,82.5 C 216.163,84.4726 216.496,86.6392 216.5,89C 215.88,93.2009 215.213,97.3676 214.5,101.5C 211.795,103.512 209.128,105.512 206.5,107.5C 205.325,107.719 204.325,107.386 203.5,106.5C 203.832,103.158 205.332,100.492 208,98.5C 208.029,93.6168 208.862,88.9502 210.5,84.5C 211.5,84.5 212.5,84.5 213.5,84.5C 214.167,83.8333 214.833,83.1667 215.5,82.5 Z"/></g>
<g><path style="opacity:1" fill="#d3e3f3" d="M 164.5,99.5 C 165.239,99.369 165.906,99.5357 166.5,100C 165.529,101.481 164.196,102.315 162.5,102.5C 162.285,100.821 162.952,99.8212 164.5,99.5 Z"/></g>
<g><path style="opacity:1" fill="#8caedc" d="M 66.5,97.5 C 70.795,99.8077 74.795,102.474 78.5,105.5C 75.1791,107.266 71.5124,108.599 67.5,109.5C 67.2511,113.458 67.9177,117.124 69.5,120.5C 67.5739,121.486 65.5739,122.486 63.5,123.5C 64.3112,118.994 64.3112,114.66 63.5,110.5C 63.6567,109.127 63.49,107.793 63,106.5C 62.5357,107.094 62.369,107.761 62.5,108.5C 61.8333,109.833 61.1667,111.167 60.5,112.5C 60.3347,108.818 60.5014,105.152 61,101.5C 61.8747,98.7854 63.7081,97.4521 66.5,97.5 Z"/></g>
<g><path style="opacity:1" fill="#3d71c3" d="M 167.5,100.5 C 172.467,101.693 172.633,103.693 168,106.5C 167.505,104.527 167.338,102.527 167.5,100.5 Z"/></g>
<g><path style="opacity:1" fill="#97c7fd" d="M 240.5,94.5 C 237.578,98.024 234.911,101.691 232.5,105.5C 229.956,105.104 227.789,105.771 226,107.5C 222.878,112.426 220.045,117.426 217.5,122.5C 216.883,122.611 216.383,122.944 216,123.5C 214.285,120.283 211.785,117.95 208.5,116.5C 208.5,116.167 208.5,115.833 208.5,115.5C 214.106,109.904 220.106,104.571 226.5,99.5C 228.305,98.7629 229.971,97.7629 231.5,96.5C 232.803,98.4776 234.469,98.4776 236.5,96.5C 238.223,93.4659 239.89,90.4659 241.5,87.5C 242.833,86.8333 242.833,86.1667 241.5,85.5C 242.531,84.7515 243.698,84.0848 245,83.5C 245.167,83.8333 245.333,84.1667 245.5,84.5C 243.295,87.5766 241.628,90.9099 240.5,94.5 Z"/></g>
<g><path style="opacity:1" fill="#a6daf7" d="M 26.5,96.5 C 27.905,98.2251 28.405,100.225 28,102.5C 26.3333,105.167 24.6667,107.833 23,110.5C 22.1841,111.823 21.0174,112.489 19.5,112.5C 19.5,111.5 19.5,110.5 19.5,109.5C 21.539,108.089 22.539,106.089 22.5,103.5C 23.8333,101.167 25.1667,98.8333 26.5,96.5 Z"/></g>
<g><path style="opacity:1" fill="#4c88fa" d="M 45.5,99.5 C 47.5892,102.437 49.0892,105.77 50,109.5C 50.9569,114.555 51.1235,119.555 50.5,124.5C 48.8867,126.088 46.8867,127.088 44.5,127.5C 41.2006,125.038 38.034,122.371 35,119.5C 34.7679,120.737 34.2679,121.737 33.5,122.5C 35.4575,117.006 36.9575,111.34 38,105.5C 38.9947,104.934 39.828,104.267 40.5,103.5C 42.1667,102.167 43.8333,100.833 45.5,99.5 Z"/></g>
<g><path style="opacity:1" fill="#659bf7" d="M 64.5,87.5 C 65.0936,89.091 65.0936,90.9243 64.5,93C 64.7586,94.7866 65.4253,96.2866 66.5,97.5C 63.7081,97.4521 61.8747,98.7854 61,101.5C 60.5014,105.152 60.3347,108.818 60.5,112.5C 57.5136,116.817 54.1803,120.817 50.5,124.5C 51.1235,119.555 50.9569,114.555 50,109.5C 49.0892,105.77 47.5892,102.437 45.5,99.5C 48.9451,95.455 52.2784,91.2884 55.5,87C 58.447,87.1519 61.447,87.3185 64.5,87.5 Z"/></g>
<g><path style="opacity:1" fill="#5671a2" d="M 110.5,64.5 C 109.737,65.2679 108.737,65.7679 107.5,66C 108.056,66.3826 108.389,66.8826 108.5,67.5C 108.405,70.6967 109.072,73.6967 110.5,76.5C 115.247,83.7163 115.58,91.2163 111.5,99C 113.551,102.928 114.551,107.095 114.5,111.5C 114.5,112.833 114.5,114.167 114.5,115.5C 113.46,111.939 111.46,108.939 108.5,106.5C 111.035,98.9697 111.702,91.303 110.5,83.5C 110.253,82.2867 109.586,81.62 108.5,81.5C 107.917,78.759 106.917,76.0923 105.5,73.5C 104.272,71.8241 102.939,71.4908 101.5,72.5C 101.833,71.1667 102.167,69.8333 102.5,68.5C 103.434,67.4324 103.768,66.099 103.5,64.5C 105.833,64.5 108.167,64.5 110.5,64.5 Z"/></g>
<g><path style="opacity:1" fill="#b9eafd" d="M 180.5,96.5 C 183.167,96.5 185.833,96.5 188.5,96.5C 190.141,97.147 191.474,98.147 192.5,99.5C 194.319,100.936 194.652,102.603 193.5,104.5C 190.658,102.197 187.658,101.53 184.5,102.5C 183.566,101.432 183.232,100.099 183.5,98.5C 182.5,98.5 181.5,98.5 180.5,98.5C 180.666,103.844 180.499,109.177 180,114.5C 177.919,113.667 175.752,113.667 173.5,114.5C 173.167,116.5 172.833,118.5 172.5,120.5C 172.167,120.5 171.833,120.5 171.5,120.5C 167.635,119.294 165.635,116.627 165.5,112.5C 166.153,111.193 166.82,109.86 167.5,108.5C 170.734,107.959 173.567,106.626 176,104.5C 177.237,101.552 178.737,98.8852 180.5,96.5 Z"/></g>
<g><path style="opacity:1" fill="#e2f4fb" d="M 240.5,85.5 C 240.833,85.5 241.167,85.5 241.5,85.5C 242.833,86.1667 242.833,86.8333 241.5,87.5C 239.616,87.7118 238.283,88.7118 237.5,90.5C 236.549,89.6744 235.549,89.5078 234.5,90C 231.223,92.7663 228.557,95.933 226.5,99.5C 220.106,104.571 214.106,109.904 208.5,115.5C 208.307,112.692 207.64,110.025 206.5,107.5C 209.128,105.512 211.795,103.512 214.5,101.5C 217.047,100.066 219.381,98.3998 221.5,96.5C 227.375,92.0619 233.708,88.3953 240.5,85.5 Z"/></g>
<g><path style="opacity:1" fill="#13387b" d="M 240.5,94.5 C 241.043,95.7421 241.377,97.0755 241.5,98.5C 239.499,106.196 239.832,113.862 242.5,121.5C 241.659,128.571 243.326,135.404 247.5,142C 245.19,142.497 242.857,142.663 240.5,142.5C 238.453,139.339 236.62,136.005 235,132.5C 234.259,125.584 232.759,118.917 230.5,112.5C 231.981,111.056 231.648,110.389 229.5,110.5C 230.752,108.999 231.752,107.332 232.5,105.5C 234.911,101.691 237.578,98.024 240.5,94.5 Z"/></g>
<g><path style="opacity:1" fill="#748ab1" d="M 108.5,81.5 C 109.586,81.62 110.253,82.2867 110.5,83.5C 111.702,91.303 111.035,98.9697 108.5,106.5C 111.46,108.939 113.46,111.939 114.5,115.5C 115.906,120.15 115.572,124.817 113.5,129.5C 114.613,133.765 117.113,136.765 121,138.5C 121.384,140.197 121.218,141.863 120.5,143.5C 119.5,143.5 118.5,143.5 117.5,143.5C 115.666,141.166 114.333,138.499 113.5,135.5C 112.675,134.614 111.675,134.281 110.5,134.5C 110.666,128.158 110.5,121.825 110,115.5C 109.131,118.763 107.797,119.096 106,116.5C 105.51,115.207 105.343,113.873 105.5,112.5C 104.041,112.433 102.708,112.766 101.5,113.5C 101.672,112.508 101.338,111.842 100.5,111.5C 97.6572,110.127 94.6572,109.127 91.5,108.5C 87.7802,110.861 85.4469,114.194 84.5,118.5C 82.7726,120.567 80.7726,122.233 78.5,123.5C 76.7706,122.764 75.7706,121.43 75.5,119.5C 78.1231,115.209 81.4564,111.543 85.5,108.5C 88.5869,107.138 91.5869,105.638 94.5,104C 95.7451,101.343 97.7451,99.5099 100.5,98.5C 101.806,99.9122 102.64,101.579 103,103.5C 104.246,100.639 105.246,97.6392 106,94.5C 109.517,90.7025 110.351,86.3692 108.5,81.5 Z"/></g>
<g><path style="opacity:1" fill="#325586" d="M 10.5,93.5 C 14.5095,98.1773 17.5095,103.511 19.5,109.5C 19.5,110.5 19.5,111.5 19.5,112.5C 18.8902,113.391 18.5569,114.391 18.5,115.5C 15.9894,112.008 13.6561,108.342 11.5,104.5C 12.6129,103.054 12.7796,101.387 12,99.5C 10.581,97.6641 9.41434,95.6641 8.5,93.5C 8.96983,92.537 9.6365,92.537 10.5,93.5 Z"/></g>
<g><path style="opacity:1" fill="#76aafa" d="M 232.5,105.5 C 231.752,107.332 230.752,108.999 229.5,110.5C 225.14,114.194 221.14,118.194 217.5,122.5C 220.045,117.426 222.878,112.426 226,107.5C 227.789,105.771 229.956,105.104 232.5,105.5 Z"/></g>
<g><path style="opacity:1" fill="#3963ac" d="M 91.5,108.5 C 94.6572,109.127 97.6572,110.127 100.5,111.5C 100.5,112.833 100.5,114.167 100.5,115.5C 99.1667,115.5 97.8333,115.5 96.5,115.5C 94.3003,121.142 93.1336,120.809 93,114.5C 92.3292,113.748 91.4959,113.414 90.5,113.5C 90.6287,111.784 90.962,110.117 91.5,108.5 Z"/></g>
<g><path style="opacity:1" fill="#6185b5" d="M 78.5,105.5 C 79.0221,107.219 80.0221,108.552 81.5,109.5C 78.0531,113.955 74.0531,117.621 69.5,120.5C 67.9177,117.124 67.2511,113.458 67.5,109.5C 71.5124,108.599 75.1791,107.266 78.5,105.5 Z"/></g>
<g><path style="opacity:1" fill="#3b6baf" d="M 154.5,90.5 C 154.5,96.1667 154.5,101.833 154.5,107.5C 153.71,108.609 153.21,109.942 153,111.5C 152.667,111.167 152.333,110.833 152,110.5C 150.768,117.826 149.601,125.159 148.5,132.5C 145.654,121.217 146.821,110.217 152,99.5C 152.333,96.8333 152.667,94.1667 153,91.5C 153.383,90.944 153.883,90.6107 154.5,90.5 Z"/></g>
<g><path style="opacity:1" fill="#518af4" d="M -0.5,89.5 C 0.81395,92.1279 2.14728,94.7946 3.5,97.5C 5.86928,105.232 9.03595,112.566 13,119.5C 13.7805,120.944 13.6139,122.277 12.5,123.5C 10.1667,120.833 7.83333,118.167 5.5,115.5C 3.72578,111.611 1.72578,107.945 -0.5,104.5C -0.5,99.5 -0.5,94.5 -0.5,89.5 Z"/></g>
<g><path style="opacity:1" fill="#5788da" d="M 31.5,86.5 C 31.1924,88.924 31.5258,91.2573 32.5,93.5C 35.3566,91.2417 38.3566,89.2417 41.5,87.5C 42.4015,91.2407 41.0681,93.2407 37.5,93.5C 32.446,104.609 27.1126,115.609 21.5,126.5C 20.8333,126.5 20.5,126.167 20.5,125.5C 20.1489,122.097 19.4822,118.763 18.5,115.5C 18.5569,114.391 18.8902,113.391 19.5,112.5C 21.0174,112.489 22.1841,111.823 23,110.5C 24.6667,107.833 26.3333,105.167 28,102.5C 28.405,100.225 27.905,98.2251 26.5,96.5C 26.5,96.1667 26.5,95.8333 26.5,95.5C 27.6154,92.1132 29.2821,89.1132 31.5,86.5 Z"/></g>
<g><path style="opacity:1" fill="#1f457f" d="M 132.5,101.5 C 134.064,107.026 134.897,113.026 135,119.5C 136.676,120.061 138.009,121.061 139,122.5C 139.671,121.748 140.504,121.414 141.5,121.5C 140.17,123.711 138.67,125.044 137,125.5C 136.709,130.189 136.709,134.856 137,139.5C 135.46,133.507 133.794,127.507 132,121.5C 129.111,124.527 127.444,128.193 127,132.5C 126.821,129.447 126.321,126.447 125.5,123.5C 124.685,125.276 123.518,125.943 122,125.5C 120.405,120.455 118.239,115.788 115.5,111.5C 118.146,112.487 120.812,113.487 123.5,114.5C 123.833,114 124.167,113.5 124.5,113C 123.27,110.852 122.27,108.686 121.5,106.5C 121.5,104.5 121.5,102.5 121.5,100.5C 125.198,100.552 128.865,100.886 132.5,101.5 Z"/></g>
<g><path style="opacity:1" fill="#1d458c" d="M 229.5,110.5 C 231.648,110.389 231.981,111.056 230.5,112.5C 232.759,118.917 234.259,125.584 235,132.5C 236.62,136.005 238.453,139.339 240.5,142.5C 238.901,142.232 237.568,142.566 236.5,143.5C 236.167,143.5 235.833,143.5 235.5,143.5C 233.597,140.252 231.263,137.252 228.5,134.5C 227.743,133.227 227.077,133.227 226.5,134.5C 225.778,135.551 224.778,136.218 223.5,136.5C 222.833,135.5 222.167,134.5 221.5,133.5C 223.179,133.715 224.179,133.048 224.5,131.5C 225.471,130.038 225.138,128.705 223.5,127.5C 221.735,126.539 219.735,126.205 217.5,126.5C 217.5,125.167 217.5,123.833 217.5,122.5C 221.14,118.194 225.14,114.194 229.5,110.5 Z"/></g>
<g><path style="opacity:1" fill="#285097" d="M 132.5,101.5 C 134.199,101.34 135.866,101.506 137.5,102C 139.17,104.886 140.837,105.052 142.5,102.5C 142.5,108.167 142.5,113.833 142.5,119.5C 141.662,119.842 141.328,120.508 141.5,121.5C 140.504,121.414 139.671,121.748 139,122.5C 138.009,121.061 136.676,120.061 135,119.5C 134.897,113.026 134.064,107.026 132.5,101.5 Z"/></g>
<g><path style="opacity:1" fill="#406aad" d="M 41.5,87.5 C 42.1667,87.5 42.8333,87.5 43.5,87.5C 43.4208,88.9305 43.7542,90.2638 44.5,91.5C 42.8333,92.5 41.5,93.8333 40.5,95.5C 41.6034,95.9976 42.6034,96.3309 43.5,96.5C 42.1667,98.5 40.8333,100.5 39.5,102.5C 39.6236,103.107 39.9569,103.44 40.5,103.5C 39.828,104.267 38.9947,104.934 38,105.5C 36.9575,111.34 35.4575,117.006 33.5,122.5C 33.335,125.85 33.5017,129.183 34,132.5C 34.66,134.324 35.8267,135.657 37.5,136.5C 36.2689,137.718 35.1022,139.051 34,140.5C 32.466,135.463 29.2993,131.796 24.5,129.5C 23.1667,128.833 22.1667,127.833 21.5,126.5C 27.1126,115.609 32.446,104.609 37.5,93.5C 41.0681,93.2407 42.4015,91.2407 41.5,87.5 Z"/></g>
<g><path style="opacity:1" fill="#749ee3" d="M 194.5,111.5 C 195.111,115.33 195.777,119.163 196.5,123C 195.009,128.741 194.343,134.574 194.5,140.5C 193.833,140.5 193.167,140.5 192.5,140.5C 192.5,140.167 192.5,139.833 192.5,139.5C 189.393,130.441 187.726,121.108 187.5,111.5C 188.552,111.649 189.552,111.483 190.5,111C 192.105,107.74 193.439,107.906 194.5,111.5 Z"/></g>
<g><path style="opacity:1" fill="#396096" d="M 194.5,111.5 C 195.794,112.29 196.961,113.29 198,114.5C 198.689,113.643 199.522,112.977 200.5,112.5C 201.567,115.534 202.734,118.534 204,121.5C 205.044,120.377 205.71,119.044 206,117.5C 206.671,116.748 207.504,116.414 208.5,116.5C 208.127,119.574 207.461,122.574 206.5,125.5C 206.167,126.833 205.833,128.167 205.5,129.5C 202.504,132.456 200.838,136.123 200.5,140.5C 199.675,141.386 198.675,141.719 197.5,141.5C 196.391,141.443 195.391,141.11 194.5,140.5C 194.343,134.574 195.009,128.741 196.5,123C 195.777,119.163 195.111,115.33 194.5,111.5 Z"/></g>
<g><path style="opacity:1" fill="#588be4" d="M 3.5,97.5 C 4.88159,98.8005 6.54826,99.6339 8.5,100C 9.25244,100.671 9.58577,101.504 9.5,102.5C 11.495,109.498 13.495,116.498 15.5,123.5C 14.4324,124.434 13.099,124.768 11.5,124.5C 9.0846,123.695 6.75127,122.695 4.5,121.5C 3.38954,117.468 1.72287,113.802 -0.5,110.5C -0.5,108.5 -0.5,106.5 -0.5,104.5C 1.72578,107.945 3.72578,111.611 5.5,115.5C 7.83333,118.167 10.1667,120.833 12.5,123.5C 13.6139,122.277 13.7805,120.944 13,119.5C 9.03595,112.566 5.86928,105.232 3.5,97.5 Z"/></g>
<g><path style="opacity:1" fill="#4c80da" d="M 63.5,110.5 C 62.4192,118.853 62.2525,127.186 63,135.5C 59.7312,136.818 56.5645,136.818 53.5,135.5C 53.76,127.153 56.5933,119.819 62,113.5C 62.4935,111.866 62.6602,110.199 62.5,108.5C 62.369,107.761 62.5357,107.094 63,106.5C 63.49,107.793 63.6567,109.127 63.5,110.5 Z"/></g>
<g><path style="opacity:1" fill="#33598b" d="M -0.5,110.5 C 1.72287,113.802 3.38954,117.468 4.5,121.5C 4.5,122.833 4.5,124.167 4.5,125.5C 2.70848,125.366 1.04181,125.699 -0.5,126.5C -0.5,121.167 -0.5,115.833 -0.5,110.5 Z"/></g>
<g><path style="opacity:1" fill="#3868b7" d="M 9.5,102.5 C 10.5,102.833 11.1667,103.5 11.5,104.5C 13.6561,108.342 15.9894,112.008 18.5,115.5C 19.4822,118.763 20.1489,122.097 20.5,125.5C 18.9505,124.559 17.2838,123.893 15.5,123.5C 13.495,116.498 11.495,109.498 9.5,102.5 Z"/></g>
<g><path style="opacity:1" fill="#73acf0" d="M 208.5,116.5 C 211.785,117.95 214.285,120.283 216,123.5C 216.383,122.944 216.883,122.611 217.5,122.5C 217.5,123.833 217.5,125.167 217.5,126.5C 214.001,126.275 210.835,125.275 208,123.5C 207.722,124.416 207.222,125.082 206.5,125.5C 207.461,122.574 208.127,119.574 208.5,116.5 Z"/></g>
<g><path style="opacity:1" fill="#305286" d="M 100.5,111.5 C 101.338,111.842 101.672,112.508 101.5,113.5C 101.296,115.685 100.63,117.685 99.5,119.5C 99.5,120.167 99.5,120.833 99.5,121.5C 96.9577,124.659 93.6244,126.659 89.5,127.5C 87.9891,126.498 86.3224,125.831 84.5,125.5C 86.0488,121.282 88.0488,117.282 90.5,113.5C 91.4959,113.414 92.3292,113.748 93,114.5C 93.1336,120.809 94.3003,121.142 96.5,115.5C 97.8333,115.5 99.1667,115.5 100.5,115.5C 100.5,114.167 100.5,112.833 100.5,111.5 Z"/></g>
<g><path style="opacity:1" fill="#325486" d="M 114.5,111.5 C 114.833,111.5 115.167,111.5 115.5,111.5C 118.239,115.788 120.405,120.455 122,125.5C 123.518,125.943 124.685,125.276 125.5,123.5C 126.321,126.447 126.821,129.447 127,132.5C 127.444,128.193 129.111,124.527 132,121.5C 133.794,127.507 135.46,133.507 137,139.5C 136.709,134.856 136.709,130.189 137,125.5C 138.67,125.044 140.17,123.711 141.5,121.5C 141.328,120.508 141.662,119.842 142.5,119.5C 143.11,120.391 143.443,121.391 143.5,122.5C 141.864,123.749 140.697,125.416 140,127.5C 139.333,131.833 139.333,136.167 140,140.5C 141.353,139.315 142.52,137.981 143.5,136.5C 145.811,137.497 148.144,137.997 150.5,138C 151.38,136.644 151.714,135.144 151.5,133.5C 151.369,132.761 151.536,132.094 152,131.5C 152.939,134.015 154.439,134.682 156.5,133.5C 158.975,136.251 159.975,139.584 159.5,143.5C 146.5,143.5 133.5,143.5 120.5,143.5C 121.218,141.863 121.384,140.197 121,138.5C 117.113,136.765 114.613,133.765 113.5,129.5C 115.572,124.817 115.906,120.15 114.5,115.5C 114.5,114.167 114.5,112.833 114.5,111.5 Z"/></g>
<g><path style="opacity:1" fill="#83b5f7" d="M 184.5,102.5 C 185.696,105.421 186.696,108.421 187.5,111.5C 187.726,121.108 189.393,130.441 192.5,139.5C 186.518,132.52 179.851,126.186 172.5,120.5C 172.833,118.5 173.167,116.5 173.5,114.5C 175.752,113.667 177.919,113.667 180,114.5C 180.499,109.177 180.666,103.844 180.5,98.5C 181.5,98.5 182.5,98.5 183.5,98.5C 183.232,100.099 183.566,101.432 184.5,102.5 Z"/></g>
<g><path style="opacity:1" fill="#5f9afa" d="M 44.5,127.5 C 44.1667,128.167 43.8333,128.833 43.5,129.5C 41.5,131.833 39.5,134.167 37.5,136.5C 35.8267,135.657 34.66,134.324 34,132.5C 33.5017,129.183 33.335,125.85 33.5,122.5C 34.2679,121.737 34.7679,120.737 35,119.5C 38.034,122.371 41.2006,125.038 44.5,127.5 Z"/></g>
<g><path style="opacity:1" fill="#4e6590" d="M 91.5,108.5 C 90.962,110.117 90.6287,111.784 90.5,113.5C 88.0488,117.282 86.0488,121.282 84.5,125.5C 86.3224,125.831 87.9891,126.498 89.5,127.5C 89.38,128.586 88.7133,129.253 87.5,129.5C 83.9017,128.61 80.4017,128.277 77,128.5C 76.0347,130.26 74.868,130.594 73.5,129.5C 73.7803,126.28 75.4469,124.28 78.5,123.5C 80.7726,122.233 82.7726,120.567 84.5,118.5C 85.4469,114.194 87.7802,110.861 91.5,108.5 Z"/></g>
<g><path style="opacity:1" fill="#8c9fbf" d="M 117.5,143.5 C 110.167,143.5 102.833,143.5 95.5,143.5C 97.9458,136.606 100.946,129.94 104.5,123.5C 103.988,120.649 102.321,119.316 99.5,119.5C 100.63,117.685 101.296,115.685 101.5,113.5C 102.708,112.766 104.041,112.433 105.5,112.5C 105.343,113.873 105.51,115.207 106,116.5C 107.797,119.096 109.131,118.763 110,115.5C 110.5,121.825 110.666,128.158 110.5,134.5C 111.675,134.281 112.675,134.614 113.5,135.5C 114.333,138.499 115.666,141.166 117.5,143.5 Z"/></g>
<g><path style="opacity:1" fill="#3762a5" d="M 62.5,108.5 C 62.6602,110.199 62.4935,111.866 62,113.5C 56.5933,119.819 53.76,127.153 53.5,135.5C 53.1667,135.5 52.8333,135.5 52.5,135.5C 50.5302,131.849 47.5302,129.849 43.5,129.5C 43.8333,128.833 44.1667,128.167 44.5,127.5C 46.8867,127.088 48.8867,126.088 50.5,124.5C 54.1803,120.817 57.5136,116.817 60.5,112.5C 61.1667,111.167 61.8333,109.833 62.5,108.5 Z"/></g>
<g><path style="opacity:1" fill="#264d8a" d="M 148.5,81.5 C 150.467,81.2606 152.301,81.5939 154,82.5C 154.497,85.146 154.664,87.8127 154.5,90.5C 153.883,90.6107 153.383,90.944 153,91.5C 152.667,94.1667 152.333,96.8333 152,99.5C 146.821,110.217 145.654,121.217 148.5,132.5C 149.601,125.159 150.768,117.826 152,110.5C 152.333,110.833 152.667,111.167 153,111.5C 153.21,109.942 153.71,108.609 154.5,107.5C 155.219,109.764 155.552,112.097 155.5,114.5C 153.933,118.698 152.433,123.031 151,127.5C 150.211,129.712 150.378,131.712 151.5,133.5C 151.714,135.144 151.38,136.644 150.5,138C 148.144,137.997 145.811,137.497 143.5,136.5C 142.52,137.981 141.353,139.315 140,140.5C 139.333,136.167 139.333,131.833 140,127.5C 140.697,125.416 141.864,123.749 143.5,122.5C 144.222,122.082 144.722,121.416 145,120.5C 145.333,113.833 145.667,107.167 146,100.5C 146.667,101.167 147.333,101.833 148,102.5C 149.791,95.5539 149.958,88.5539 148.5,81.5 Z"/></g>
<g><path style="opacity:1" fill="#285293" d="M 163.5,132.5 C 162.85,132.804 162.183,133.137 161.5,133.5C 158.179,127.596 157.845,121.596 160.5,115.5C 161.688,114.316 162.855,114.316 164,115.5C 167.01,121.849 170.843,127.683 175.5,133C 175.564,139.306 173.064,140.806 168,137.5C 168.709,134.981 170.043,134.981 172,137.5C 171.157,134.149 168.99,131.815 165.5,130.5C 164.287,130.747 163.62,131.414 163.5,132.5 Z"/></g>
<g><path style="opacity:1" fill="#386dc0" d="M 155.5,114.5 C 155.5,116.833 155.5,119.167 155.5,121.5C 154.861,122.097 154.528,122.93 154.5,124C 155.106,127.199 155.773,130.366 156.5,133.5C 154.439,134.682 152.939,134.015 152,131.5C 151.536,132.094 151.369,132.761 151.5,133.5C 150.378,131.712 150.211,129.712 151,127.5C 152.433,123.031 153.933,118.698 155.5,114.5 Z"/></g>
<g><path style="opacity:1" fill="#96bde0" d="M 217.5,126.5 C 219.735,126.205 221.735,126.539 223.5,127.5C 221.696,128.162 219.696,128.495 217.5,128.5C 214.42,128.68 211.587,128.014 209,126.5C 208.283,127.044 207.783,127.711 207.5,128.5C 207.158,129.338 206.492,129.672 205.5,129.5C 205.833,128.167 206.167,126.833 206.5,125.5C 207.222,125.082 207.722,124.416 208,123.5C 210.835,125.275 214.001,126.275 217.5,126.5 Z"/></g>
<g><path style="opacity:1" fill="#51759a" d="M 15.5,123.5 C 17.2838,123.893 18.9505,124.559 20.5,125.5C 20.5,126.167 20.8333,126.5 21.5,126.5C 22.1667,127.833 23.1667,128.833 24.5,129.5C 24.2178,130.778 23.5511,131.778 22.5,132.5C 19.1008,130.969 15.7675,129.135 12.5,127C 11.7476,126.329 11.4142,125.496 11.5,124.5C 13.099,124.768 14.4324,124.434 15.5,123.5 Z"/></g>
<g><path style="opacity:1" fill="#295082" d="M 5.5,132.5 C 3.43525,132.517 1.43525,132.85 -0.5,133.5C -0.5,131.5 -0.5,129.5 -0.5,127.5C 1.5,127.167 3.5,126.833 5.5,126.5C 5.5,128.5 5.5,130.5 5.5,132.5 Z"/></g>
<g><path style="opacity:1" fill="#6a8cb5" d="M 223.5,127.5 C 225.138,128.705 225.471,130.038 224.5,131.5C 223.866,130.053 222.699,129.387 221,129.5C 218.07,131.238 214.903,131.738 211.5,131C 210.529,129.519 209.196,128.685 207.5,128.5C 207.783,127.711 208.283,127.044 209,126.5C 211.587,128.014 214.42,128.68 217.5,128.5C 219.696,128.495 221.696,128.162 223.5,127.5 Z"/></g>
<g><path style="opacity:1" fill="#dbe8f8" d="M 171.5,120.5 C 171.833,120.5 172.167,120.5 172.5,120.5C 179.851,126.186 186.518,132.52 192.5,139.5C 192.5,139.833 192.5,140.167 192.5,140.5C 192.565,140.938 192.399,141.272 192,141.5C 186.167,137 181,131.833 176.5,126C 175.906,125.536 175.239,125.369 174.5,125.5C 173.752,123.668 172.752,122.001 171.5,120.5 Z"/></g>
<g><path style="opacity:1" fill="#b2c7e1" d="M 99.5,119.5 C 102.321,119.316 103.988,120.649 104.5,123.5C 100.946,129.94 97.9458,136.606 95.5,143.5C 94.8333,143.5 94.1667,143.5 93.5,143.5C 94.038,141.883 94.3713,140.216 94.5,138.5C 91.3116,138.488 88.4783,137.488 86,135.5C 80.6761,136.474 79.5094,139.141 82.5,143.5C 80.8333,143.5 79.1667,143.5 77.5,143.5C 77.5,142.833 77.1667,142.5 76.5,142.5C 76.6427,140.738 76.3094,139.071 75.5,137.5C 76.7906,136.175 78.1239,134.842 79.5,133.5C 84.0062,135.194 87.6728,134.028 90.5,130C 92.0249,128.991 93.6916,128.491 95.5,128.5C 95.3379,130.527 95.5045,132.527 96,134.5C 99.0209,130.71 100.188,126.377 99.5,121.5C 99.5,120.833 99.5,120.167 99.5,119.5 Z"/></g>
<g><path style="opacity:1" fill="#4f74a5" d="M 207.5,128.5 C 209.196,128.685 210.529,129.519 211.5,131C 214.903,131.738 218.07,131.238 221,129.5C 222.699,129.387 223.866,130.053 224.5,131.5C 224.179,133.048 223.179,133.715 221.5,133.5C 220.167,133.5 218.833,133.5 217.5,133.5C 215.265,133.205 213.265,133.539 211.5,134.5C 208.759,136.975 206.759,139.975 205.5,143.5C 203.5,143.5 201.5,143.5 199.5,143.5C 198.833,142.833 198.167,142.167 197.5,141.5C 198.675,141.719 199.675,141.386 200.5,140.5C 200.838,136.123 202.504,132.456 205.5,129.5C 206.492,129.672 207.158,129.338 207.5,128.5 Z"/></g>
<g><path style="opacity:1" fill="#5c80b2" d="M 160.5,111.5 C 160.5,112.833 160.5,114.167 160.5,115.5C 157.845,121.596 158.179,127.596 161.5,133.5C 162.183,133.137 162.85,132.804 163.5,132.5C 166.994,135.817 167.327,139.483 164.5,143.5C 162.833,143.5 161.167,143.5 159.5,143.5C 159.975,139.584 158.975,136.251 156.5,133.5C 155.773,130.366 155.106,127.199 154.5,124C 154.528,122.93 154.861,122.097 155.5,121.5C 155.369,122.239 155.536,122.906 156,123.5C 157.244,120.34 158.078,117.007 158.5,113.5C 158.747,112.287 159.414,111.62 160.5,111.5 Z"/></g>
<g><path style="opacity:1" fill="#92a3bf" d="M 75.5,119.5 C 75.7706,121.43 76.7706,122.764 78.5,123.5C 75.4469,124.28 73.7803,126.28 73.5,129.5C 74.868,130.594 76.0347,130.26 77,128.5C 80.4017,128.277 83.9017,128.61 87.5,129.5C 88.7133,129.253 89.38,128.586 89.5,127.5C 93.6244,126.659 96.9577,124.659 99.5,121.5C 100.188,126.377 99.0209,130.71 96,134.5C 95.5045,132.527 95.3379,130.527 95.5,128.5C 93.6916,128.491 92.0249,128.991 90.5,130C 87.6728,134.028 84.0062,135.194 79.5,133.5C 78.1239,134.842 76.7906,136.175 75.5,137.5C 76.3094,139.071 76.6427,140.738 76.5,142.5C 73.4281,142.817 70.4281,142.484 67.5,141.5C 65.7444,136.574 64.4111,131.574 63.5,126.5C 65.0861,125.587 66.5861,125.587 68,126.5C 70.3959,123.933 72.8959,121.6 75.5,119.5 Z"/></g>
<g><path style="opacity:1" fill="#385f96" d="M 162.5,93.5 C 162.253,95.8583 162.919,97.8583 164.5,99.5C 162.952,99.8212 162.285,100.821 162.5,102.5C 162.024,106.378 163.024,109.712 165.5,112.5C 165.635,116.627 167.635,119.294 171.5,120.5C 172.752,122.001 173.752,123.668 174.5,125.5C 176.431,130.085 178.765,134.419 181.5,138.5C 184.69,138.687 186.69,140.354 187.5,143.5C 179.833,143.5 172.167,143.5 164.5,143.5C 167.327,139.483 166.994,135.817 163.5,132.5C 163.62,131.414 164.287,130.747 165.5,130.5C 168.99,131.815 171.157,134.149 172,137.5C 170.043,134.981 168.709,134.981 168,137.5C 173.064,140.806 175.564,139.306 175.5,133C 170.843,127.683 167.01,121.849 164,115.5C 162.855,114.316 161.688,114.316 160.5,115.5C 160.5,114.167 160.5,112.833 160.5,111.5C 160.334,106.821 160.501,102.155 161,97.5C 161.21,95.9419 161.71,94.6085 162.5,93.5 Z"/></g>
<g><path style="opacity:1" fill="#365c8b" d="M 24.5,129.5 C 29.2993,131.796 32.466,135.463 34,140.5C 35.1022,139.051 36.2689,137.718 37.5,136.5C 39.5,134.167 41.5,131.833 43.5,129.5C 47.5302,129.849 50.5302,131.849 52.5,135.5C 54.0908,138.431 56.0908,141.098 58.5,143.5C 49.8333,143.5 41.1667,143.5 32.5,143.5C 29.8705,139.203 26.5372,135.537 22.5,132.5C 23.5511,131.778 24.2178,130.778 24.5,129.5 Z"/></g>
<g><path style="opacity:1" fill="#6a8aad" d="M 63.5,110.5 C 64.3112,114.66 64.3112,118.994 63.5,123.5C 63.5,124.5 63.5,125.5 63.5,126.5C 64.4111,131.574 65.7444,136.574 67.5,141.5C 70.4281,142.484 73.4281,142.817 76.5,142.5C 77.1667,142.5 77.5,142.833 77.5,143.5C 71.1667,143.5 64.8333,143.5 58.5,143.5C 56.0908,141.098 54.0908,138.431 52.5,135.5C 52.8333,135.5 53.1667,135.5 53.5,135.5C 56.5645,136.818 59.7312,136.818 63,135.5C 62.2525,127.186 62.4192,118.853 63.5,110.5 Z"/></g>
<g><path style="opacity:1" fill="#4e8df5" d="M 217.5,133.5 C 218.833,133.5 220.167,133.5 221.5,133.5C 222.167,134.5 222.833,135.5 223.5,136.5C 221.279,140.443 217.946,141.943 213.5,141C 216.397,139.285 217.731,136.785 217.5,133.5 Z"/></g>
<g><path style="opacity:1" fill="#68a4f9" d="M 217.5,133.5 C 217.731,136.785 216.397,139.285 213.5,141C 217.946,141.943 221.279,140.443 223.5,136.5C 224.778,136.218 225.778,135.551 226.5,134.5C 226.833,135.167 227.167,135.833 227.5,136.5C 227.617,138.484 226.95,140.15 225.5,141.5C 220.544,142.494 215.544,142.827 210.5,142.5C 210.833,139.833 211.167,137.167 211.5,134.5C 213.265,133.539 215.265,133.205 217.5,133.5 Z"/></g>
<g><path style="opacity:1" fill="#88b7e4" d="M 235.5,143.5 C 234.833,143.5 234.167,143.5 233.5,143.5C 231.471,141.142 229.471,138.808 227.5,136.5C 227.167,135.833 226.833,135.167 226.5,134.5C 227.077,133.227 227.743,133.227 228.5,134.5C 231.263,137.252 233.597,140.252 235.5,143.5 Z"/></g>
<g><path style="opacity:1" fill="#6a97d8" d="M 4.5,121.5 C 6.75127,122.695 9.0846,123.695 11.5,124.5C 11.4142,125.496 11.7476,126.329 12.5,127C 15.7675,129.135 19.1008,130.969 22.5,132.5C 26.5372,135.537 29.8705,139.203 32.5,143.5C 27.1667,143.5 21.8333,143.5 16.5,143.5C 14.4319,142.625 12.4319,141.459 10.5,140C 9.89586,137.527 8.89586,136.027 7.5,135.5C 6.83333,134.5 6.16667,133.5 5.5,132.5C 5.5,130.5 5.5,128.5 5.5,126.5C 3.5,126.833 1.5,127.167 -0.5,127.5C -0.5,127.167 -0.5,126.833 -0.5,126.5C 1.04181,125.699 2.70848,125.366 4.5,125.5C 4.5,124.167 4.5,122.833 4.5,121.5 Z"/></g>
<g><path style="opacity:1" fill="#d0e3f6" d="M 93.5,143.5 C 89.8333,143.5 86.1667,143.5 82.5,143.5C 79.5094,139.141 80.6761,136.474 86,135.5C 88.4783,137.488 91.3116,138.488 94.5,138.5C 94.3713,140.216 94.038,141.883 93.5,143.5 Z"/></g>
<g><path style="opacity:1" fill="#9db2cd" d="M 174.5,125.5 C 175.239,125.369 175.906,125.536 176.5,126C 181,131.833 186.167,137 192,141.5C 192.399,141.272 192.565,140.938 192.5,140.5C 193.167,140.5 193.833,140.5 194.5,140.5C 195.391,141.11 196.391,141.443 197.5,141.5C 198.167,142.167 198.833,142.833 199.5,143.5C 195.5,143.5 191.5,143.5 187.5,143.5C 186.69,140.354 184.69,138.687 181.5,138.5C 178.765,134.419 176.431,130.085 174.5,125.5 Z"/></g>
<g><path style="opacity:1" fill="#5b93f1" d="M 5.5,132.5 C 6.16667,133.5 6.83333,134.5 7.5,135.5C 7.80729,138.782 9.14062,141.448 11.5,143.5C 7.5,143.5 3.5,143.5 -0.5,143.5C -0.5,140.167 -0.5,136.833 -0.5,133.5C 1.43525,132.85 3.43525,132.517 5.5,132.5 Z"/></g>
<g><path style="opacity:1" fill="#9bc9f9" d="M 16.5,143.5 C 14.8333,143.5 13.1667,143.5 11.5,143.5C 9.14062,141.448 7.80729,138.782 7.5,135.5C 8.89586,136.027 9.89586,137.527 10.5,140C 12.4319,141.459 14.4319,142.625 16.5,143.5 Z"/></g>
<g><path style="opacity:1" fill="#497acd" d="M 211.5,134.5 C 211.167,137.167 210.833,139.833 210.5,142.5C 215.544,142.827 220.544,142.494 225.5,141.5C 226.95,140.15 227.617,138.484 227.5,136.5C 229.471,138.808 231.471,141.142 233.5,143.5C 224.167,143.5 214.833,143.5 205.5,143.5C 206.759,139.975 208.759,136.975 211.5,134.5 Z"/></g>
</svg>
