<?xml version="1.0" encoding="UTF-8"?>
<!DOCTYPE svg PUBLIC "-//W3C//DTD SVG 1.1//EN" "http://www.w3.org/Graphics/SVG/1.1/DTD/svg11.dtd">
<svg xmlns="http://www.w3.org/2000/svg" version="1.1" width="256px" height="144px" style="shape-rendering:geometricPrecision; text-rendering:geometricPrecision; image-rendering:optimizeQuality; fill-rule:evenodd; clip-rule:evenodd" xmlns:xlink="http://www.w3.org/1999/xlink">
<g><path style="opacity:1" fill="#070401" d="M -0.5,-0.5 C 9.5,-0.5 19.5,-0.5 29.5,-0.5C 25.1625,7.67678 19.8292,15.1768 13.5,22C 13.9337,30.0808 13.9337,38.2474 13.5,46.5C 13.0244,49.9271 13.0244,53.2605 13.5,56.5C 12.4573,62.3076 10.4573,67.6409 7.5,72.5C 7.65668,73.8734 7.49001,75.2068 7,76.5C 6.66667,76.1667 6.33333,75.8333 6,75.5C 4.28941,78.0459 2.12274,80.0459 -0.5,81.5C -0.5,54.1667 -0.5,26.8333 -0.5,-0.5 Z"/></g>
<g><path style="opacity:1" fill="#100a05" d="M 29.5,-0.5 C 35.1667,-0.5 40.8333,-0.5 46.5,-0.5C 47.2271,2.63426 47.8937,5.80092 48.5,9C 48.5053,11.1628 47.5053,12.6628 45.5,13.5C 47.4571,18.8826 46.1238,20.216 41.5,17.5C 40.5748,18.3569 39.9081,19.3569 39.5,20.5C 38.1667,17.5 36.8333,14.5 35.5,11.5C 35.5,11.1667 35.5,10.8333 35.5,10.5C 35.8174,7.42814 35.4841,4.42814 34.5,1.5C 32.3886,2.60458 31.0553,4.27124 30.5,6.5C 26.398,12.135 24.0647,18.4683 23.5,25.5C 22.596,26.209 22.2627,27.209 22.5,28.5C 21.8826,28.6107 21.3826,28.944 21,29.5C 21.4659,34.3344 19.4659,37.3344 15,38.5C 14.8171,41.3647 14.3171,44.0314 13.5,46.5C 13.9337,38.2474 13.9337,30.0808 13.5,22C 19.8292,15.1768 25.1625,7.67678 29.5,-0.5 Z"/></g>
<g><path style="opacity:1" fill="#1c1209" d="M 46.5,-0.5 C 56.8333,-0.5 67.1667,-0.5 77.5,-0.5C 77.8204,2.89838 77.487,6.23171 76.5,9.5C 75.2011,8.90999 74.3678,7.90999 74,6.5C 73.7883,9.75767 73.2883,12.9243 72.5,16C 72.8333,16.3333 73.1667,16.6667 73.5,17C 71.6067,19.5567 69.2734,20.0567 66.5,18.5C 66.7036,19.5294 66.2036,20.5294 65,21.5C 59.1896,22.0767 55.1896,25.41 53,31.5C 50.944,32.4397 48.7773,32.4397 46.5,31.5C 42.922,28.689 40.5886,25.0223 39.5,20.5C 39.9081,19.3569 40.5748,18.3569 41.5,17.5C 46.1238,20.216 47.4571,18.8826 45.5,13.5C 47.5053,12.6628 48.5053,11.1628 48.5,9C 47.8937,5.80092 47.2271,2.63426 46.5,-0.5 Z"/></g>
<g><path style="opacity:1" fill="#221609" d="M 113.5,-0.5 C 126.167,-0.5 138.833,-0.5 151.5,-0.5C 156.139,3.96778 160.972,8.30111 166,12.5C 166.163,16.3283 167.497,19.6616 170,22.5C 170.333,22.1667 170.667,21.8333 171,21.5C 174.11,24.9485 177.276,28.4485 180.5,32C 182.833,32.6667 185.167,32.6667 187.5,32C 189.037,30.8904 189.703,29.3904 189.5,27.5C 195.594,30.049 201.26,33.3824 206.5,37.5C 206.88,35.9793 207.046,34.3126 207,32.5C 211.669,35.5269 215.669,39.8603 219,45.5C 219.249,44.376 219.749,43.376 220.5,42.5C 223.569,45.2737 226.903,45.7737 230.5,44C 232.533,41.1041 233.866,37.9374 234.5,34.5C 235.822,34.67 236.989,34.3366 238,33.5C 238.678,30.4791 239.178,27.4791 239.5,24.5C 240.593,26.5561 242.426,27.5561 245,27.5C 249.423,26.8814 252.923,24.8814 255.5,21.5C 255.5,26.5 255.5,31.5 255.5,36.5C 254.325,36.719 253.325,36.3857 252.5,35.5C 251.771,33.2365 250.604,31.9032 249,31.5C 248.138,33.087 247.471,34.7536 247,36.5C 246.333,35.8333 245.667,35.1667 245,34.5C 242.915,35.6469 241.415,34.9803 240.5,32.5C 238.448,35.4876 237.281,38.8209 237,42.5C 235.921,44.3937 234.587,44.727 233,43.5C 232.563,46.7723 230.73,48.439 227.5,48.5C 227.5,49.5 227.5,50.5 227.5,51.5C 225.345,51.628 223.345,51.128 221.5,50C 216.83,44.6396 211.163,40.973 204.5,39C 200.617,35.4496 196.451,32.2829 192,29.5C 191.667,31.0468 192.167,32.3801 193.5,33.5C 191.994,34.7472 190.494,34.7472 189,33.5C 187.336,35.7554 185.503,37.0887 183.5,37.5C 181.114,34.5297 178.114,32.363 174.5,31C 170.881,28.0564 168.047,24.5564 166,20.5C 165.667,20.8333 165.333,21.1667 165,21.5C 155.033,12.4962 143.533,7.66285 130.5,7C 126.608,5.35988 122.608,4.02655 118.5,3C 116.416,2.30276 114.749,1.1361 113.5,-0.5 Z"/></g>
<g><path style="opacity:1" fill="#180f06" d="M 151.5,-0.5 C 158.833,-0.5 166.167,-0.5 173.5,-0.5C 173.703,1.04432 174.37,2.37765 175.5,3.5C 174.624,4.25083 173.624,4.75083 172.5,5C 177.812,10.6436 183.479,15.977 189.5,21C 191.509,20.4064 193.509,20.5731 195.5,21.5C 195.833,21.1667 196.167,20.8333 196.5,20.5C 195.167,19.3801 194.667,18.0468 195,16.5C 196.715,18.7594 198.548,20.9261 200.5,23C 201.167,23.6667 201.833,23.6667 202.5,23C 200.993,22.1627 200.493,20.9961 201,19.5C 208.831,24.5046 216.997,28.8379 225.5,32.5C 226.852,31.4825 227.852,30.1492 228.5,28.5C 229.086,28.7093 229.586,29.0426 230,29.5C 230.923,28.2412 231.757,26.9079 232.5,25.5C 233.895,26.8146 234.895,26.4812 235.5,24.5C 233.359,15.2197 229.359,6.88641 223.5,-0.5C 226.167,-0.5 228.833,-0.5 231.5,-0.5C 232.174,8.5047 234.841,16.838 239.5,24.5C 239.178,27.4791 238.678,30.4791 238,33.5C 236.989,34.3366 235.822,34.67 234.5,34.5C 233.866,37.9374 232.533,41.1041 230.5,44C 226.903,45.7737 223.569,45.2737 220.5,42.5C 219.749,43.376 219.249,44.376 219,45.5C 215.669,39.8603 211.669,35.5269 207,32.5C 207.046,34.3126 206.88,35.9793 206.5,37.5C 201.26,33.3824 195.594,30.049 189.5,27.5C 189.703,29.3904 189.037,30.8904 187.5,32C 185.167,32.6667 182.833,32.6667 180.5,32C 177.276,28.4485 174.11,24.9485 171,21.5C 170.667,21.8333 170.333,22.1667 170,22.5C 167.497,19.6616 166.163,16.3283 166,12.5C 160.972,8.30111 156.139,3.96778 151.5,-0.5 Z"/></g>
<g><path style="opacity:1" fill="#0f0a04" d="M 173.5,-0.5 C 190.167,-0.5 206.833,-0.5 223.5,-0.5C 229.359,6.88641 233.359,15.2197 235.5,24.5C 234.895,26.4812 233.895,26.8146 232.5,25.5C 231.757,26.9079 230.923,28.2412 230,29.5C 229.586,29.0426 229.086,28.7093 228.5,28.5C 227.852,30.1492 226.852,31.4825 225.5,32.5C 216.997,28.8379 208.831,24.5046 201,19.5C 200.493,20.9961 200.993,22.1627 202.5,23C 201.833,23.6667 201.167,23.6667 200.5,23C 198.548,20.9261 196.715,18.7594 195,16.5C 194.667,18.0468 195.167,19.3801 196.5,20.5C 196.167,20.8333 195.833,21.1667 195.5,21.5C 193.509,20.5731 191.509,20.4064 189.5,21C 183.479,15.977 177.812,10.6436 172.5,5C 173.624,4.75083 174.624,4.25083 175.5,3.5C 174.37,2.37765 173.703,1.04432 173.5,-0.5 Z"/></g>
<g><path style="opacity:1" fill="#100b05" d="M 231.5,-0.5 C 239.5,-0.5 247.5,-0.5 255.5,-0.5C 255.5,6.83333 255.5,14.1667 255.5,21.5C 252.923,24.8814 249.423,26.8814 245,27.5C 242.426,27.5561 240.593,26.5561 239.5,24.5C 234.841,16.838 232.174,8.5047 231.5,-0.5 Z"/></g>
<g><path style="opacity:1" fill="#a99f9e" d="M 35.5,10.5 C 34.6862,8.36896 34.1862,6.03563 34,3.5C 32.9609,4.7101 31.7942,5.7101 30.5,6.5C 31.0553,4.27124 32.3886,2.60458 34.5,1.5C 35.4841,4.42814 35.8174,7.42814 35.5,10.5 Z"/></g>
<g><path style="opacity:1" fill="#937171" d="M 92.5,6.5 C 95.2494,10.3815 97.2494,14.7148 98.5,19.5C 97.391,19.4431 96.391,19.1098 95.5,18.5C 94.8826,18.3893 94.3826,18.056 94,17.5C 93.2811,13.8546 92.7811,10.1879 92.5,6.5 Z"/></g>
<g><path style="opacity:1" fill="#e3dae8" d="M 83.5,10.5 C 83.9578,14.1662 84.9578,17.6662 86.5,21C 89.8847,23.0738 92.8847,22.9071 95.5,20.5C 96.4778,20.811 97.1445,21.4777 97.5,22.5C 94.5719,23.4841 91.5719,23.8174 88.5,23.5C 87.4168,23.5394 86.4168,23.8728 85.5,24.5C 83.2706,23.4229 80.9372,22.7563 78.5,22.5C 78.5,20.1667 78.5,17.8333 78.5,15.5C 78.5,14.8333 78.5,14.1667 78.5,13.5C 79.6697,11.7215 81.3364,10.7215 83.5,10.5 Z"/></g>
<g><path style="opacity:1" fill="#574741" d="M 140.5,14.5 C 136.833,14.5 133.167,14.5 129.5,14.5C 125.5,14.5 121.5,14.5 117.5,14.5C 114.287,14.81 111.287,14.4767 108.5,13.5C 113.989,13.0795 119.489,12.7462 125,12.5C 130.411,12.3793 135.577,13.046 140.5,14.5 Z"/></g>
<g><path style="opacity:1" fill="#cfc1da" d="M 117.5,14.5 C 121.5,14.5 125.5,14.5 129.5,14.5C 134.167,15.1667 138.833,15.8333 143.5,16.5C 141.901,16.2322 140.568,16.5655 139.5,17.5C 137.901,17.2322 136.568,17.5655 135.5,18.5C 128.191,17.816 120.858,17.316 113.5,17C 116.167,16.6667 118.833,16.3333 121.5,16C 119.942,15.79 118.609,15.29 117.5,14.5 Z"/></g>
<g><path style="opacity:1" fill="#766e6a" d="M 129.5,14.5 C 133.167,14.5 136.833,14.5 140.5,14.5C 143.271,14.4207 145.937,14.9207 148.5,16C 153.01,17.4182 157.01,19.5849 160.5,22.5C 154.93,20.2147 149.264,18.2147 143.5,16.5C 138.833,15.8333 134.167,15.1667 129.5,14.5 Z"/></g>
<g><path style="opacity:1" fill="#f7f6fb" d="M 97.5,-0.5 C 97.8333,-0.5 98.1667,-0.5 98.5,-0.5C 101.355,4.55661 104.688,9.22327 108.5,13.5C 111.287,14.4767 114.287,14.81 117.5,14.5C 118.609,15.29 119.942,15.79 121.5,16C 118.833,16.3333 116.167,16.6667 113.5,17C 120.858,17.316 128.191,17.816 135.5,18.5C 128.847,19.7025 122.18,21.0358 115.5,22.5C 110.156,22.666 104.823,22.4994 99.5,22C 102.5,21.6667 105.5,21.3333 108.5,21C 108.833,20.6667 109.167,20.3333 109.5,20C 108.207,19.51 106.873,19.3433 105.5,19.5C 106.285,15.4037 105.118,12.0704 102,9.5C 100.231,6.29411 98.7306,2.96078 97.5,-0.5 Z"/></g>
<g><path style="opacity:1" fill="#edb3fc" d="M 35.5,10.5 C 35.5,10.8333 35.5,11.1667 35.5,11.5C 35.5,13.5 35.5,15.5 35.5,17.5C 34.5902,19.0188 33.7568,20.6854 33,22.5C 30.9401,22.8943 28.7734,22.8943 26.5,22.5C 27.0068,16.9356 28.3401,11.6023 30.5,6.5C 31.7942,5.7101 32.9609,4.7101 34,3.5C 34.1862,6.03563 34.6862,8.36896 35.5,10.5 Z"/></g>
<g><path style="opacity:1" fill="#dfdde4" d="M 35.5,11.5 C 36.8333,14.5 38.1667,17.5 39.5,20.5C 40.5886,25.0223 42.922,28.689 46.5,31.5C 47.5,31.8333 48.1667,32.5 48.5,33.5C 46.8828,32.962 45.2161,32.6287 43.5,32.5C 42.4045,30.642 41.0712,28.9754 39.5,27.5C 38.3484,24.0349 37.015,20.7016 35.5,17.5C 35.5,15.5 35.5,13.5 35.5,11.5 Z"/></g>
<g><path style="opacity:1" fill="#e7d6f5" d="M 92.5,-0.5 C 94.1667,-0.5 95.8333,-0.5 97.5,-0.5C 98.7306,2.96078 100.231,6.29411 102,9.5C 105.118,12.0704 106.285,15.4037 105.5,19.5C 106.873,19.3433 108.207,19.51 109.5,20C 109.167,20.3333 108.833,20.6667 108.5,21C 105.5,21.3333 102.5,21.6667 99.5,22C 104.823,22.4994 110.156,22.666 115.5,22.5C 116.772,23.4343 118.272,24.101 120,24.5C 123.368,24.4778 126.868,24.3111 130.5,24C 129.663,25.0113 129.33,26.1779 129.5,27.5C 129.167,27.5 128.833,27.5 128.5,27.5C 124.725,27.9281 121.225,27.2614 118,25.5C 115.738,26.3825 113.571,27.3825 111.5,28.5C 109.243,26.8312 106.909,26.1645 104.5,26.5C 106.113,25.5726 107.779,24.7393 109.5,24C 105.848,23.5014 102.182,23.3347 98.5,23.5C 98.5,22.1667 98.5,20.8333 98.5,19.5C 97.2494,14.7148 95.2494,10.3815 92.5,6.5C 92.5,4.16667 92.5,1.83333 92.5,-0.5 Z"/></g>
<g><path style="opacity:1" fill="#cc92fb" d="M 35.5,17.5 C 37.015,20.7016 38.3484,24.0349 39.5,27.5C 41.0712,28.9754 42.4045,30.642 43.5,32.5C 39.8391,31.3522 36.8391,29.1855 34.5,26C 29.9446,25.8705 29.6113,26.8705 33.5,29C 33,29.1667 32.5,29.3333 32,29.5C 30.016,28.6607 28.1826,27.6607 26.5,26.5C 26.5,25.1667 26.5,23.8333 26.5,22.5C 28.7734,22.8943 30.9401,22.8943 33,22.5C 33.7568,20.6854 34.5902,19.0188 35.5,17.5 Z"/></g>
<g><path style="opacity:1" fill="#2d1c10" d="M 77.5,-0.5 C 82.5,-0.5 87.5,-0.5 92.5,-0.5C 92.5,1.83333 92.5,4.16667 92.5,6.5C 92.7811,10.1879 93.2811,13.8546 94,17.5C 94.3826,18.056 94.8826,18.3893 95.5,18.5C 95.5,19.1667 95.5,19.8333 95.5,20.5C 92.8847,22.9071 89.8847,23.0738 86.5,21C 84.9578,17.6662 83.9578,14.1662 83.5,10.5C 83.0481,7.79701 82.3815,5.13034 81.5,2.5C 80.3414,6.1352 79.3414,9.80186 78.5,13.5C 78.5,14.1667 78.5,14.8333 78.5,15.5C 77.534,20.67 77.534,26.0033 78.5,31.5C 77.8333,31.5 77.5,31.8333 77.5,32.5C 73.5917,34.025 69.5917,35.3583 65.5,36.5C 63.2178,35.7766 60.8845,35.4433 58.5,35.5C 57.1667,35.5 55.8333,35.5 54.5,35.5C 52.8984,33.9261 50.8984,33.2594 48.5,33.5C 48.1667,32.5 47.5,31.8333 46.5,31.5C 48.7773,32.4397 50.944,32.4397 53,31.5C 55.1896,25.41 59.1896,22.0767 65,21.5C 66.2036,20.5294 66.7036,19.5294 66.5,18.5C 69.2734,20.0567 71.6067,19.5567 73.5,17C 73.1667,16.6667 72.8333,16.3333 72.5,16C 73.2883,12.9243 73.7883,9.75767 74,6.5C 74.3678,7.90999 75.2011,8.90999 76.5,9.5C 77.487,6.23171 77.8204,2.89838 77.5,-0.5 Z"/></g>
<g><path style="opacity:1" fill="#ab9fa2" d="M 83.5,10.5 C 81.3364,10.7215 79.6697,11.7215 78.5,13.5C 79.3414,9.80186 80.3414,6.1352 81.5,2.5C 82.3815,5.13034 83.0481,7.79701 83.5,10.5 Z"/></g>
<g><path style="opacity:1" fill="#d0befe" d="M 135.5,18.5 C 139.147,19.3156 142.48,20.8156 145.5,23C 142.72,23.3697 140.72,24.3697 139.5,26C 136.243,27.0429 132.91,27.5429 129.5,27.5C 129.33,26.1779 129.663,25.0113 130.5,24C 126.868,24.3111 123.368,24.4778 120,24.5C 118.272,24.101 116.772,23.4343 115.5,22.5C 122.18,21.0358 128.847,19.7025 135.5,18.5 Z"/></g>
<g><path style="opacity:1" fill="#b9a3f9" d="M 135.5,18.5 C 136.568,17.5655 137.901,17.2322 139.5,17.5C 142.757,18.769 145.757,20.4357 148.5,22.5C 147.611,24.0252 148.278,25.0252 150.5,25.5C 150.5,26.5 150.5,27.5 150.5,28.5C 143.167,28.5 135.833,28.5 128.5,28.5C 128.5,28.1667 128.5,27.8333 128.5,27.5C 128.833,27.5 129.167,27.5 129.5,27.5C 132.91,27.5429 136.243,27.0429 139.5,26C 140.72,24.3697 142.72,23.3697 145.5,23C 142.48,20.8156 139.147,19.3156 135.5,18.5 Z"/></g>
<g><path style="opacity:1" fill="#8458d2" d="M 148.5,22.5 C 150.544,23.5082 152.544,24.5082 154.5,25.5C 154.5,26.1667 154.5,26.8333 154.5,27.5C 153.167,26.8333 151.833,26.1667 150.5,25.5C 148.278,25.0252 147.611,24.0252 148.5,22.5 Z"/></g>
<g><path style="opacity:1" fill="#7d60c1" d="M 78.5,15.5 C 78.5,17.8333 78.5,20.1667 78.5,22.5C 80.5976,23.935 82.9309,25.1016 85.5,26C 83.5779,28.4295 81.2446,30.2628 78.5,31.5C 77.534,26.0033 77.534,20.67 78.5,15.5 Z"/></g>
<g><path style="opacity:1" fill="#e6deeb" d="M 30.5,6.5 C 28.3401,11.6023 27.0068,16.9356 26.5,22.5C 26.5,23.8333 26.5,25.1667 26.5,26.5C 25.7659,27.7079 25.4326,29.0413 25.5,30.5C 26.5,30.5 27.5,30.5 28.5,30.5C 29.1667,34.5 27.5,36.1667 23.5,35.5C 23.5,32.1667 23.5,28.8333 23.5,25.5C 24.0647,18.4683 26.398,12.135 30.5,6.5 Z"/></g>
<g><path style="opacity:1" fill="#c9b0e3" d="M 95.5,18.5 C 96.391,19.1098 97.391,19.4431 98.5,19.5C 98.5,20.8333 98.5,22.1667 98.5,23.5C 102.182,23.3347 105.848,23.5014 109.5,24C 107.779,24.7393 106.113,25.5726 104.5,26.5C 106.909,26.1645 109.243,26.8312 111.5,28.5C 113.571,27.3825 115.738,26.3825 118,25.5C 121.225,27.2614 124.725,27.9281 128.5,27.5C 128.5,27.8333 128.5,28.1667 128.5,28.5C 125.5,28.5 122.5,28.5 119.5,28.5C 119.265,27.9033 118.765,27.5699 118,27.5C 114.634,29.5413 111.134,30.208 107.5,29.5C 106.353,29.8178 105.519,30.4844 105,31.5C 102.163,28.6286 100.496,29.2953 100,33.5C 98.3023,30.8101 96.3023,28.4768 94,26.5C 93.5,26.8333 93,27.1667 92.5,27.5C 93.7378,30.1655 93.7378,32.8322 92.5,35.5C 90.467,33.5485 90.1337,31.3818 91.5,29C 90.8695,26.901 89.8695,25.0677 88.5,23.5C 91.5719,23.8174 94.5719,23.4841 97.5,22.5C 97.1445,21.4777 96.4778,20.811 95.5,20.5C 95.5,19.8333 95.5,19.1667 95.5,18.5 Z"/></g>
<g><path style="opacity:1" fill="#a888f5" d="M 150.5,25.5 C 151.833,26.1667 153.167,26.8333 154.5,27.5C 158.229,33.2809 161.729,39.2809 165,45.5C 165.822,48.1168 166.322,50.7835 166.5,53.5C 166.167,53.5 165.833,53.5 165.5,53.5C 165.167,53.5 164.833,53.5 164.5,53.5C 164.018,46.0369 161.018,39.8702 155.5,35C 150.387,35.259 145.387,34.4257 140.5,32.5C 138.519,32.4371 136.852,33.1038 135.5,34.5C 129.6,31.3861 123.267,30.0528 116.5,30.5C 117.5,29.8333 118.5,29.1667 119.5,28.5C 122.5,28.5 125.5,28.5 128.5,28.5C 135.833,28.5 143.167,28.5 150.5,28.5C 150.5,27.5 150.5,26.5 150.5,25.5 Z"/></g>
<g><path style="opacity:1" fill="#ac92cb" d="M 78.5,22.5 C 80.9372,22.7563 83.2706,23.4229 85.5,24.5C 86.4168,23.8728 87.4168,23.5394 88.5,23.5C 89.8695,25.0677 90.8695,26.901 91.5,29C 90.1337,31.3818 90.467,33.5485 92.5,35.5C 93.7378,32.8322 93.7378,30.1655 92.5,27.5C 93,27.1667 93.5,26.8333 94,26.5C 96.3023,28.4768 98.3023,30.8101 100,33.5C 100.496,29.2953 102.163,28.6286 105,31.5C 105.519,30.4844 106.353,29.8178 107.5,29.5C 111.134,30.208 114.634,29.5413 118,27.5C 118.765,27.5699 119.265,27.9033 119.5,28.5C 118.5,29.1667 117.5,29.8333 116.5,30.5C 110.247,30.9495 104.247,32.2828 98.5,34.5C 96.4115,34.6198 95.0782,35.6198 94.5,37.5C 90.8948,37.5286 87.3948,38.1953 84,39.5C 82.2841,39.2517 80.7841,38.585 79.5,37.5C 77.9291,38.3094 76.2624,38.6427 74.5,38.5C 74.741,41.999 73.9076,42.3323 72,39.5C 68.3786,39.6425 64.5453,39.6425 60.5,39.5C 58.9468,37.615 56.9468,36.615 54.5,36.5C 54.5,36.1667 54.5,35.8333 54.5,35.5C 55.8333,35.5 57.1667,35.5 58.5,35.5C 59.2625,36.2679 60.2625,36.7679 61.5,37C 65.1667,37.6667 68.8333,37.6667 72.5,37C 74.6175,35.9509 76.2842,34.4509 77.5,32.5C 77.5,31.8333 77.8333,31.5 78.5,31.5C 81.2446,30.2628 83.5779,28.4295 85.5,26C 82.9309,25.1016 80.5976,23.935 78.5,22.5 Z"/></g>
<g><path style="opacity:1" fill="#e8e2e5" d="M 139.5,17.5 C 140.568,16.5655 141.901,16.2322 143.5,16.5C 149.264,18.2147 154.93,20.2147 160.5,22.5C 164.573,26.5665 168.24,30.8998 171.5,35.5C 173.945,40.6552 176.111,45.9885 178,51.5C 178.818,57.3487 178.652,63.0154 177.5,68.5C 177.214,66.0673 176.548,66.0673 175.5,68.5C 174.477,61.0334 172.81,53.7 170.5,46.5C 167.326,37.8005 161.992,30.8005 154.5,25.5C 152.544,24.5082 150.544,23.5082 148.5,22.5C 145.757,20.4357 142.757,18.769 139.5,17.5 Z"/></g>
<g><path style="opacity:1" fill="#d2a5e0" d="M 23.5,25.5 C 23.5,28.8333 23.5,32.1667 23.5,35.5C 27.5,36.1667 29.1667,34.5 28.5,30.5C 27.5,30.5 26.5,30.5 25.5,30.5C 25.4326,29.0413 25.7659,27.7079 26.5,26.5C 28.1826,27.6607 30.016,28.6607 32,29.5C 32.5,29.3333 33,29.1667 33.5,29C 29.6113,26.8705 29.9446,25.8705 34.5,26C 36.8391,29.1855 39.8391,31.3522 43.5,32.5C 45.6044,34.5832 45.9377,36.9165 44.5,39.5C 43.5084,39.3284 42.8417,39.6618 42.5,40.5C 41.7611,40.631 41.0944,40.4643 40.5,40C 41.3128,38.6861 42.3128,37.5195 43.5,36.5C 37.9266,32.2107 32.9266,32.8773 28.5,38.5C 29.1667,38.8333 29.8333,39.1667 30.5,39.5C 32.5994,38.0348 34.7661,36.7015 37,35.5C 38.3012,36.0981 39.1345,37.0981 39.5,38.5C 36.8277,40.3399 34.661,42.6732 33,45.5C 30.9734,45.0137 28.8067,45.0137 26.5,45.5C 25.8776,43.8784 24.8776,42.5451 23.5,41.5C 22.5151,37.3656 22.1818,33.0323 22.5,28.5C 22.2627,27.209 22.596,26.209 23.5,25.5 Z"/></g>
<g><path style="opacity:1" fill="#aea6a7" d="M 48.5,33.5 C 50.8984,33.2594 52.8984,33.9261 54.5,35.5C 52.2143,35.405 50.2143,34.7384 48.5,33.5 Z"/></g>
<g><path style="opacity:1" fill="#574c74" d="M 77.5,32.5 C 76.2842,34.4509 74.6175,35.9509 72.5,37C 68.8333,37.6667 65.1667,37.6667 61.5,37C 60.2625,36.7679 59.2625,36.2679 58.5,35.5C 60.8845,35.4433 63.2178,35.7766 65.5,36.5C 69.5917,35.3583 73.5917,34.025 77.5,32.5 Z"/></g>
<g><path style="opacity:1" fill="#120a03" d="M 22.5,28.5 C 22.1818,33.0323 22.5151,37.3656 23.5,41.5C 24.2134,44.5939 25.2134,47.5939 26.5,50.5C 27.0798,52.7488 28.4131,54.4154 30.5,55.5C 34.4937,56.3733 34.4937,57.54 30.5,59C 30.9574,59.414 31.2907,59.914 31.5,60.5C 29.3097,64.3082 28.643,68.3082 29.5,72.5C 29.4142,73.4959 29.7476,74.3292 30.5,75C 29.8333,75.1667 29.1667,75.3333 28.5,75.5C 26.9355,74.2308 25.2688,73.0641 23.5,72C 24.9928,70.8438 24.8261,70.0104 23,69.5C 22.228,69.6448 21.5613,69.9781 21,70.5C 19.9826,67.972 18.8159,67.972 17.5,70.5C 16.8076,69.9747 16.3076,69.3081 16,68.5C 15.6667,68.8333 15.3333,69.1667 15,69.5C 14.2613,68.4258 13.2613,67.7591 12,67.5C 10.2871,69.0425 8.78708,70.7092 7.5,72.5C 10.4573,67.6409 12.4573,62.3076 13.5,56.5C 13.0244,53.2605 13.0244,49.9271 13.5,46.5C 14.3171,44.0314 14.8171,41.3647 15,38.5C 19.4659,37.3344 21.4659,34.3344 21,29.5C 21.3826,28.944 21.8826,28.6107 22.5,28.5 Z"/></g>
<g><path style="opacity:1" fill="#2e1d0c" d="M 98.5,-0.5 C 103.5,-0.5 108.5,-0.5 113.5,-0.5C 114.749,1.1361 116.416,2.30276 118.5,3C 122.608,4.02655 126.608,5.35988 130.5,7C 143.533,7.66285 155.033,12.4962 165,21.5C 165.333,21.1667 165.667,20.8333 166,20.5C 168.047,24.5564 170.881,28.0564 174.5,31C 178.114,32.363 181.114,34.5297 183.5,37.5C 185.503,37.0887 187.336,35.7554 189,33.5C 190.494,34.7472 191.994,34.7472 193.5,33.5C 192.167,32.3801 191.667,31.0468 192,29.5C 196.451,32.2829 200.617,35.4496 204.5,39C 211.163,40.973 216.83,44.6396 221.5,50C 223.345,51.128 225.345,51.628 227.5,51.5C 227.5,50.5 227.5,49.5 227.5,48.5C 230.73,48.439 232.563,46.7723 233,43.5C 234.587,44.727 235.921,44.3937 237,42.5C 237.281,38.8209 238.448,35.4876 240.5,32.5C 241.415,34.9803 242.915,35.6469 245,34.5C 245.667,35.1667 246.333,35.8333 247,36.5C 247.471,34.7536 248.138,33.087 249,31.5C 250.604,31.9032 251.771,33.2365 252.5,35.5C 253.325,36.3857 254.325,36.719 255.5,36.5C 255.5,43.5 255.5,50.5 255.5,57.5C 254.504,57.5858 253.671,57.2524 253,56.5C 251.92,54.0038 250.586,51.6705 249,49.5C 248.667,50.8333 248.333,52.1667 248,53.5C 246.511,50.5222 245.011,47.5222 243.5,44.5C 242.167,48.1667 240.833,51.8333 239.5,55.5C 236.957,57.5654 234.124,58.8988 231,59.5C 229.833,59.3333 228.667,59.1667 227.5,59C 223.356,53.9269 218.023,50.9269 211.5,50C 210.202,47.1028 208.369,44.6028 206,42.5C 199.01,40.1401 192.176,40.4734 185.5,43.5C 180.667,42.3196 177,39.6529 174.5,35.5C 173.5,35.5 172.5,35.5 171.5,35.5C 168.24,30.8998 164.573,26.5665 160.5,22.5C 157.01,19.5849 153.01,17.4182 148.5,16C 145.937,14.9207 143.271,14.4207 140.5,14.5C 135.577,13.046 130.411,12.3793 125,12.5C 119.489,12.7462 113.989,13.0795 108.5,13.5C 104.688,9.22327 101.355,4.55661 98.5,-0.5 Z"/></g>
<g><path style="opacity:1" fill="#785dc5" d="M 116.5,30.5 C 115.737,31.2679 114.737,31.7679 113.5,32C 114.931,32.4652 116.097,33.2986 117,34.5C 117.483,33.552 117.649,32.552 117.5,31.5C 121.823,31.7728 125.99,32.7728 130,34.5C 131.31,35.1301 132.144,36.1301 132.5,37.5C 131.778,37.9175 131.278,38.5842 131,39.5C 126.565,38.4059 122.565,36.4059 119,33.5C 119.096,35.3806 118.929,37.0473 118.5,38.5C 117.5,38.5 116.5,38.5 115.5,38.5C 115.232,40.099 115.566,41.4324 116.5,42.5C 115.22,43.9313 113.553,44.5979 111.5,44.5C 111.5,45.5 111.5,46.5 111.5,47.5C 109.42,46.9556 107.42,46.1223 105.5,45C 109.114,43.3561 109.781,41.1894 107.5,38.5C 106.28,37.2889 105.113,37.2889 104,38.5C 104.004,46.7606 102.837,47.2606 100.5,40C 97.1667,39.6667 93.8333,39.3333 90.5,39C 92.0581,38.79 93.3915,38.29 94.5,37.5C 95.0782,35.6198 96.4115,34.6198 98.5,34.5C 104.247,32.2828 110.247,30.9495 116.5,30.5 Z"/></g>
<g><path style="opacity:1" fill="#5e4aa1" d="M 132.5,37.5 C 136.822,40.4237 141.489,42.757 146.5,44.5C 146.833,45.8333 147.167,47.1667 147.5,48.5C 143.708,47.5513 140.542,45.5513 138,42.5C 136.887,43.7111 135.72,43.7111 134.5,42.5C 133.289,43.2739 133.289,44.1072 134.5,45C 132.803,45.3845 131.137,45.2178 129.5,44.5C 128.416,40.9009 126.083,39.0676 122.5,39C 125.645,41.0679 126.145,43.5679 124,46.5C 121.134,44.4802 119.301,41.8135 118.5,38.5C 118.929,37.0473 119.096,35.3806 119,33.5C 122.565,36.4059 126.565,38.4059 131,39.5C 131.278,38.5842 131.778,37.9175 132.5,37.5 Z"/></g>
<g><path style="opacity:1" fill="#a679d0" d="M 43.5,32.5 C 45.2161,32.6287 46.8828,32.962 48.5,33.5C 50.2143,34.7384 52.2143,35.405 54.5,35.5C 54.5,35.8333 54.5,36.1667 54.5,36.5C 53.094,38.7471 51.2607,39.0804 49,37.5C 47.5936,38.4138 46.0936,39.0805 44.5,39.5C 45.9377,36.9165 45.6044,34.5832 43.5,32.5 Z"/></g>
<g><path style="opacity:1" fill="#845ce1" d="M 116.5,30.5 C 123.267,30.0528 129.6,31.3861 135.5,34.5C 136.852,33.1038 138.519,32.4371 140.5,32.5C 145.387,34.4257 150.387,35.259 155.5,35C 161.018,39.8702 164.018,46.0369 164.5,53.5C 164.167,53.5 163.833,53.5 163.5,53.5C 160.64,49.6451 157.64,45.8118 154.5,42C 153.517,41.4092 152.85,41.7425 152.5,43C 153.606,44.8822 153.606,46.7156 152.5,48.5C 150.45,47.9234 149.45,46.5901 149.5,44.5C 148.5,44.5 147.5,44.5 146.5,44.5C 141.489,42.757 136.822,40.4237 132.5,37.5C 132.144,36.1301 131.31,35.1301 130,34.5C 125.99,32.7728 121.823,31.7728 117.5,31.5C 117.649,32.552 117.483,33.552 117,34.5C 116.097,33.2986 114.931,32.4652 113.5,32C 114.737,31.7679 115.737,31.2679 116.5,30.5 Z"/></g>
<g><path style="opacity:1" fill="#8d48e0" d="M 42.5,40.5 C 43.8333,40.5 45.1667,40.5 46.5,40.5C 45.9054,43.3463 45.9054,46.3463 46.5,49.5C 42.8547,48.0644 39.3547,48.3978 36,50.5C 35.4867,49.4734 34.9867,48.4734 34.5,47.5C 37.1654,45.0696 39.8321,42.7362 42.5,40.5 Z"/></g>
<g><path style="opacity:1" fill="#7549b4" d="M 54.5,36.5 C 56.9468,36.615 58.9468,37.615 60.5,39.5C 59.6868,40.6527 58.6868,40.6527 57.5,39.5C 57.1667,40.1667 56.8333,40.8333 56.5,41.5C 57.2234,43.7822 57.5567,46.1155 57.5,48.5C 55.1739,47.1654 53.0072,45.4988 51,43.5C 49.6667,44.1667 48.6667,45.1667 48,46.5C 47.5017,49.8168 47.335,53.1501 47.5,56.5C 41.9962,55.2736 36.3295,54.4403 30.5,54C 29.2949,52.6244 27.9616,51.4577 26.5,50.5C 25.2134,47.5939 24.2134,44.5939 23.5,41.5C 24.8776,42.5451 25.8776,43.8784 26.5,45.5C 27.9516,46.3019 29.6183,46.8019 31.5,47C 29.1182,49.0497 29.6182,50.5497 33,51.5C 33.5,51.1667 34,50.8333 34.5,50.5C 33.3473,49.3132 33.3473,48.3132 34.5,47.5C 34.9867,48.4734 35.4867,49.4734 36,50.5C 39.3547,48.3978 42.8547,48.0644 46.5,49.5C 45.9054,46.3463 45.9054,43.3463 46.5,40.5C 45.1667,40.5 43.8333,40.5 42.5,40.5C 42.8417,39.6618 43.5084,39.3284 44.5,39.5C 46.0936,39.0805 47.5936,38.4138 49,37.5C 51.2607,39.0804 53.094,38.7471 54.5,36.5 Z"/></g>
<g><path style="opacity:1" fill="#b481d6" d="M 42.5,40.5 C 39.8321,42.7362 37.1654,45.0696 34.5,47.5C 33.3473,48.3132 33.3473,49.3132 34.5,50.5C 34,50.8333 33.5,51.1667 33,51.5C 29.6182,50.5497 29.1182,49.0497 31.5,47C 29.6183,46.8019 27.9516,46.3019 26.5,45.5C 28.8067,45.0137 30.9734,45.0137 33,45.5C 34.661,42.6732 36.8277,40.3399 39.5,38.5C 39.1345,37.0981 38.3012,36.0981 37,35.5C 34.7661,36.7015 32.5994,38.0348 30.5,39.5C 29.8333,39.1667 29.1667,38.8333 28.5,38.5C 32.9266,32.8773 37.9266,32.2107 43.5,36.5C 42.3128,37.5195 41.3128,38.6861 40.5,40C 41.0944,40.4643 41.7611,40.631 42.5,40.5 Z"/></g>
<g><path style="opacity:1" fill="#4a437e" d="M 118.5,38.5 C 119.301,41.8135 121.134,44.4802 124,46.5C 126.145,43.5679 125.645,41.0679 122.5,39C 126.083,39.0676 128.416,40.9009 129.5,44.5C 128.751,45.531 128.085,46.6976 127.5,48C 122.18,49.4232 116.846,50.5899 111.5,51.5C 113.279,49.6565 115.612,48.9898 118.5,49.5C 120.434,46.3783 119.767,44.045 116.5,42.5C 115.566,41.4324 115.232,40.099 115.5,38.5C 116.5,38.5 117.5,38.5 118.5,38.5 Z"/></g>
<g><path style="opacity:1" fill="#5e4797" d="M 94.5,37.5 C 93.3915,38.29 92.0581,38.79 90.5,39C 93.8333,39.3333 97.1667,39.6667 100.5,40C 102.837,47.2606 104.004,46.7606 104,38.5C 105.113,37.2889 106.28,37.2889 107.5,38.5C 109.781,41.1894 109.114,43.3561 105.5,45C 107.42,46.1223 109.42,46.9556 111.5,47.5C 111.5,46.5 111.5,45.5 111.5,44.5C 113.553,44.5979 115.22,43.9313 116.5,42.5C 119.767,44.045 120.434,46.3783 118.5,49.5C 115.612,48.9898 113.279,49.6565 111.5,51.5C 110.685,52.4293 109.852,53.4293 109,54.5C 106.801,52.0191 104.634,49.6858 102.5,47.5C 101.26,46.027 100.26,44.3604 99.5,42.5C 92.4947,39.6707 85.9947,40.3374 80,44.5C 80.0534,46.9359 79.8867,49.2692 79.5,51.5C 77.4939,48.1708 75.1606,45.1708 72.5,42.5C 70.7131,41.1826 69.0464,41.516 67.5,43.5C 66.8333,42.8333 66.1667,42.1667 65.5,41.5C 65.1667,41.8333 64.8333,42.1667 64.5,42.5C 66.2562,44.1913 66.7562,46.1913 66,48.5C 64.1521,46.0471 61.6521,45.0471 58.5,45.5C 58.7678,47.099 58.4345,48.4324 57.5,49.5C 57.5,49.1667 57.5,48.8333 57.5,48.5C 57.5567,46.1155 57.2234,43.7822 56.5,41.5C 56.8333,40.8333 57.1667,40.1667 57.5,39.5C 58.6868,40.6527 59.6868,40.6527 60.5,39.5C 64.5453,39.6425 68.3786,39.6425 72,39.5C 73.9076,42.3323 74.741,41.999 74.5,38.5C 76.2624,38.6427 77.9291,38.3094 79.5,37.5C 80.7841,38.585 82.2841,39.2517 84,39.5C 87.3948,38.1953 90.8948,37.5286 94.5,37.5 Z"/></g>
<g><path style="opacity:1" fill="#4a3a69" d="M 72.5,42.5 C 69.7079,43.3918 68.3746,45.3918 68.5,48.5C 70.7354,48.2053 72.7354,48.5386 74.5,49.5C 70.5175,48.5778 68.1842,50.0778 67.5,54C 68.5708,58.8619 71.5708,60.6953 76.5,59.5C 76.2254,54.7797 77.0588,54.4463 79,58.5C 79.4828,57.552 79.6495,56.552 79.5,55.5C 80.1667,56.5 80.8333,57.5 81.5,58.5C 81.7214,59.7348 82.3881,60.7348 83.5,61.5C 83.3764,62.1067 83.0431,62.44 82.5,62.5C 81.5084,62.6716 80.8417,62.3382 80.5,61.5C 75.799,59.8094 71.4657,60.4761 67.5,63.5C 68.0922,60.3695 67.0922,58.0361 64.5,56.5C 63.7505,52.6791 62.0838,52.0124 59.5,54.5C 58.438,52.9783 57.7713,51.3117 57.5,49.5C 58.4345,48.4324 58.7678,47.099 58.5,45.5C 61.6521,45.0471 64.1521,46.0471 66,48.5C 66.7562,46.1913 66.2562,44.1913 64.5,42.5C 64.8333,42.1667 65.1667,41.8333 65.5,41.5C 66.1667,42.1667 66.8333,42.8333 67.5,43.5C 69.0464,41.516 70.7131,41.1826 72.5,42.5 Z"/></g>
<g><path style="opacity:1" fill="#48325b" d="M 129.5,44.5 C 131.732,48.4189 133.898,48.4189 136,44.5C 140.128,46.9148 141.628,50.5815 140.5,55.5C 138.189,54.0859 136.189,52.2526 134.5,50C 132.251,49.1368 130.418,49.6368 129,51.5C 127.853,50.5419 126.853,50.8753 126,52.5C 125.333,53.8333 125.333,55.1667 126,56.5C 127.828,58.0814 129.828,59.4147 132,60.5C 132.311,62.556 132.811,64.556 133.5,66.5C 130.252,69.4698 127.419,69.1365 125,65.5C 124.503,63.1902 124.337,60.8568 124.5,58.5C 121.229,57.2043 117.895,55.8709 114.5,54.5C 113.28,54.8869 112.613,55.7202 112.5,57C 116.508,61.0017 120.508,65.0017 124.5,69C 126.217,70.5588 128.217,71.3921 130.5,71.5C 127.431,74.1899 123.764,75.5233 119.5,75.5C 126.261,72.6644 125.927,69.9977 118.5,67.5C 111.312,73.9001 108.145,72.2335 109,62.5C 107.476,60.1019 105.976,57.7686 104.5,55.5C 104.142,52.7334 103.475,50.0667 102.5,47.5C 104.634,49.6858 106.801,52.0191 109,54.5C 109.852,53.4293 110.685,52.4293 111.5,51.5C 116.846,50.5899 122.18,49.4232 127.5,48C 128.085,46.6976 128.751,45.531 129.5,44.5 Z"/></g>
<g><path style="opacity:1" fill="#623ba7" d="M 163.5,53.5 C 164.47,57.9315 162.803,60.2648 158.5,60.5C 156.576,57.9087 154.242,55.5754 151.5,53.5C 150.92,51.2512 149.587,49.5846 147.5,48.5C 147.167,47.1667 146.833,45.8333 146.5,44.5C 147.5,44.5 148.5,44.5 149.5,44.5C 149.45,46.5901 150.45,47.9234 152.5,48.5C 153.606,46.7156 153.606,44.8822 152.5,43C 152.85,41.7425 153.517,41.4092 154.5,42C 157.64,45.8118 160.64,49.6451 163.5,53.5 Z"/></g>
<g><path style="opacity:1" fill="#2e1748" d="M 154.5,25.5 C 161.992,30.8005 167.326,37.8005 170.5,46.5C 170.378,53.6745 171.378,60.6745 173.5,67.5C 172.859,65.9577 171.859,64.6243 170.5,63.5C 169.824,64.6016 169.158,65.6016 168.5,66.5C 168.731,62.007 168.064,57.6737 166.5,53.5C 166.322,50.7835 165.822,48.1168 165,45.5C 161.729,39.2809 158.229,33.2809 154.5,27.5C 154.5,26.8333 154.5,26.1667 154.5,25.5 Z"/></g>
<g><path style="opacity:1" fill="#502f66" d="M 147.5,48.5 C 149.587,49.5846 150.92,51.2512 151.5,53.5C 150.883,53.3893 150.383,53.056 150,52.5C 149.043,55.3788 149.543,57.8788 151.5,60C 147.921,59.358 144.254,58.5247 140.5,57.5C 140.5,56.8333 140.5,56.1667 140.5,55.5C 141.628,50.5815 140.128,46.9148 136,44.5C 133.898,48.4189 131.732,48.4189 129.5,44.5C 131.137,45.2178 132.803,45.3845 134.5,45C 133.289,44.1072 133.289,43.2739 134.5,42.5C 135.72,43.7111 136.887,43.7111 138,42.5C 140.542,45.5513 143.708,47.5513 147.5,48.5 Z"/></g>
<g><path style="opacity:1" fill="#3f250c" d="M 174.5,35.5 C 177,39.6529 180.667,42.3196 185.5,43.5C 192.176,40.4734 199.01,40.1401 206,42.5C 208.369,44.6028 210.202,47.1028 211.5,50C 218.023,50.9269 223.356,53.9269 227.5,59C 228.667,59.1667 229.833,59.3333 231,59.5C 234.124,58.8988 236.957,57.5654 239.5,55.5C 240.833,51.8333 242.167,48.1667 243.5,44.5C 245.011,47.5222 246.511,50.5222 248,53.5C 248.333,52.1667 248.667,50.8333 249,49.5C 250.586,51.6705 251.92,54.0038 253,56.5C 253.671,57.2524 254.504,57.5858 255.5,57.5C 255.5,64.1667 255.5,70.8333 255.5,77.5C 254.253,71.9585 251.753,66.9585 248,62.5C 246.601,63.2266 245.101,63.7266 243.5,64C 242.792,66.7676 241.292,67.6009 239,66.5C 236.27,68.0665 233.436,69.3998 230.5,70.5C 230.5,69.5 230.5,68.5 230.5,67.5C 225.249,67.7696 221.249,65.6029 218.5,61C 217.833,60.3333 217.167,60.3333 216.5,61C 217.696,61.6543 217.696,62.1543 216.5,62.5C 214.697,61.8632 213.364,60.6965 212.5,59C 211.216,58.3162 210.049,58.4829 209,59.5C 208.667,58.8333 208.333,58.1667 208,57.5C 206.915,58.2931 205.748,58.9598 204.5,59.5C 200.14,55.9888 195.473,52.9888 190.5,50.5C 188.956,50.7896 187.623,51.4563 186.5,52.5C 185.464,55.4587 183.964,58.1253 182,60.5C 180.981,58.4982 180.148,56.4982 179.5,54.5C 178.122,48.0815 176.455,41.7482 174.5,35.5 Z"/></g>
<g><path style="opacity:1" fill="#4e3183" d="M 57.5,48.5 C 57.5,48.8333 57.5,49.1667 57.5,49.5C 57.7713,51.3117 58.438,52.9783 59.5,54.5C 62.0838,52.0124 63.7505,52.6791 64.5,56.5C 62.4143,54.9766 60.7476,55.31 59.5,57.5C 55.8184,56.7253 53.3184,58.0586 52,61.5C 51.5357,60.9056 51.369,60.2389 51.5,59.5C 49.9236,58.8571 48.5903,57.8571 47.5,56.5C 47.335,53.1501 47.5017,49.8168 48,46.5C 48.6667,45.1667 49.6667,44.1667 51,43.5C 53.0072,45.4988 55.1739,47.1654 57.5,48.5 Z"/></g>
<g><path style="opacity:1" fill="#3f364d" d="M 102.5,47.5 C 103.475,50.0667 104.142,52.7334 104.5,55.5C 103.209,55.2627 102.209,55.596 101.5,56.5C 100.799,53.6652 100.633,50.6652 101,47.5C 99.2,45.117 96.8666,43.4503 94,42.5C 90.5325,44.7172 90.6992,46.5506 94.5,48C 94.0426,48.414 93.7093,48.914 93.5,49.5C 95.4236,50.8765 96.5903,52.5432 97,54.5C 95.3257,55.6765 93.8257,57.0098 92.5,58.5C 91.3753,55.5456 90.3753,52.5456 89.5,49.5C 88.2807,50.2634 87.2807,51.2634 86.5,52.5C 85.6043,51.4937 84.9377,51.4937 84.5,52.5C 85.7287,53.2811 87.062,53.7811 88.5,54C 86.5975,54.1992 85.0975,55.0325 84,56.5C 82.3745,55.5881 81.5412,56.2547 81.5,58.5C 80.8333,57.5 80.1667,56.5 79.5,55.5C 77.8333,53.5 76.1667,51.5 74.5,49.5C 72.7354,48.5386 70.7354,48.2053 68.5,48.5C 68.3746,45.3918 69.7079,43.3918 72.5,42.5C 75.1606,45.1708 77.4939,48.1708 79.5,51.5C 79.8867,49.2692 80.0534,46.9359 80,44.5C 85.9947,40.3374 92.4947,39.6707 99.5,42.5C 100.26,44.3604 101.26,46.027 102.5,47.5 Z"/></g>
<g><path style="opacity:1" fill="#352962" d="M 64.5,56.5 C 67.0922,58.0361 68.0922,60.3695 67.5,63.5C 68.853,64.5261 69.853,65.8595 70.5,67.5C 70.775,71.1087 72.775,73.1087 76.5,73.5C 77.4168,72.8728 78.4168,72.5394 79.5,72.5C 80.5,72.5 81.5,72.5 82.5,72.5C 78.7436,75.088 74.9102,75.088 71,72.5C 70.6667,73.8333 70.3333,75.1667 70,76.5C 69.1004,74.6025 67.9337,72.9358 66.5,71.5C 64.2195,72.7019 61.8862,73.7019 59.5,74.5C 57.2209,73.3485 54.8876,72.3485 52.5,71.5C 60.5783,74.0973 64.245,71.0973 63.5,62.5C 62.6649,61.0568 61.3316,60.0568 59.5,59.5C 60.5498,58.5712 60.5498,57.9046 59.5,57.5C 60.7476,55.31 62.4143,54.9766 64.5,56.5 Z"/></g>
<g><path style="opacity:1" fill="#40347f" d="M 74.5,49.5 C 76.1667,51.5 77.8333,53.5 79.5,55.5C 79.6495,56.552 79.4828,57.552 79,58.5C 77.0588,54.4463 76.2254,54.7797 76.5,59.5C 71.5708,60.6953 68.5708,58.8619 67.5,54C 68.1842,50.0778 70.5175,48.5778 74.5,49.5 Z"/></g>
<g><path style="opacity:1" fill="#4a2a0b" d="M 230.5,70.5 C 229.167,70.5 227.833,70.5 226.5,70.5C 226.04,73.9568 224.04,75.6235 220.5,75.5C 218.5,75.1667 216.5,74.8333 214.5,74.5C 211.642,73.834 208.642,73.1674 205.5,72.5C 203.675,66.1151 200.341,61.4485 195.5,58.5C 190.861,61.3167 185.861,63.3167 180.5,64.5C 179.793,61.2139 179.46,57.8806 179.5,54.5C 180.148,56.4982 180.981,58.4982 182,60.5C 183.964,58.1253 185.464,55.4587 186.5,52.5C 187.623,51.4563 188.956,50.7896 190.5,50.5C 195.473,52.9888 200.14,55.9888 204.5,59.5C 205.748,58.9598 206.915,58.2931 208,57.5C 208.333,58.1667 208.667,58.8333 209,59.5C 210.049,58.4829 211.216,58.3162 212.5,59C 213.364,60.6965 214.697,61.8632 216.5,62.5C 217.696,62.1543 217.696,61.6543 216.5,61C 217.167,60.3333 217.833,60.3333 218.5,61C 221.249,65.6029 225.249,67.7696 230.5,67.5C 230.5,68.5 230.5,69.5 230.5,70.5 Z"/></g>
<g><path style="opacity:1" fill="#4a3d6a" d="M 26.5,50.5 C 27.9616,51.4577 29.2949,52.6244 30.5,54C 36.3295,54.4403 41.9962,55.2736 47.5,56.5C 48.5903,57.8571 49.9236,58.8571 51.5,59.5C 50.1266,59.3433 48.7932,59.51 47.5,60C 46.235,63.8343 43.9016,65.0009 40.5,63.5C 39.7839,61.4437 39.1172,59.277 38.5,57C 35.8832,56.1785 33.2165,55.6785 30.5,55.5C 28.4131,54.4154 27.0798,52.7488 26.5,50.5 Z"/></g>
<g><path style="opacity:1" fill="#472f48" d="M 151.5,53.5 C 152.048,55.3936 153.048,57.0603 154.5,58.5C 153.563,60.9402 154.23,62.9402 156.5,64.5C 156.833,65.1667 157.167,65.8333 157.5,66.5C 154.833,66.1667 152.167,65.8333 149.5,65.5C 148.791,64.596 147.791,64.2627 146.5,64.5C 146.657,65.8734 146.49,67.2068 146,68.5C 145.124,70.6355 143.624,71.9688 141.5,72.5C 142.506,71.6043 142.506,70.9377 141.5,70.5C 140.863,66.3303 140.197,62.1636 139.5,58C 139.728,57.6012 140.062,57.4346 140.5,57.5C 144.254,58.5247 147.921,59.358 151.5,60C 149.543,57.8788 149.043,55.3788 150,52.5C 150.383,53.056 150.883,53.3893 151.5,53.5 Z"/></g>
<g><path style="opacity:1" fill="#2d1f38" d="M 80.5,61.5 C 78.3453,61.372 76.3453,61.872 74.5,63C 73.4019,63.7697 73.4019,64.603 74.5,65.5C 72.9382,65.7329 71.6049,66.3995 70.5,67.5C 69.853,65.8595 68.853,64.5261 67.5,63.5C 71.4657,60.4761 75.799,59.8094 80.5,61.5 Z"/></g>
<g><path style="opacity:1" fill="#302c37" d="M 101.5,56.5 C 101.343,57.8734 101.51,59.2068 102,60.5C 104.029,63.0292 105.862,65.6959 107.5,68.5C 107.333,68.8333 107.167,69.1667 107,69.5C 104.819,66.7859 102.153,64.7859 99,63.5C 98.5304,64.5768 98.6971,65.5768 99.5,66.5C 95.1163,65.8138 90.783,64.8138 86.5,63.5C 86.1667,63.8333 85.8333,64.1667 85.5,64.5C 88.7049,68.8441 87.7049,71.5107 82.5,72.5C 81.5,72.5 80.5,72.5 79.5,72.5C 79.5,71.5 79.5,70.5 79.5,69.5C 83.2401,72.2783 85.0734,71.2783 85,66.5C 84.3378,65.0161 83.5045,63.6828 82.5,62.5C 83.0431,62.44 83.3764,62.1067 83.5,61.5C 82.3881,60.7348 81.7214,59.7348 81.5,58.5C 81.5412,56.2547 82.3745,55.5881 84,56.5C 85.0975,55.0325 86.5975,54.1992 88.5,54C 87.062,53.7811 85.7287,53.2811 84.5,52.5C 84.9377,51.4937 85.6043,51.4937 86.5,52.5C 87.2807,51.2634 88.2807,50.2634 89.5,49.5C 90.3753,52.5456 91.3753,55.5456 92.5,58.5C 93.8257,57.0098 95.3257,55.6765 97,54.5C 96.5903,52.5432 95.4236,50.8765 93.5,49.5C 93.7093,48.914 94.0426,48.414 94.5,48C 90.6992,46.5506 90.5325,44.7172 94,42.5C 96.8666,43.4503 99.2,45.117 101,47.5C 100.633,50.6652 100.799,53.6652 101.5,56.5 Z"/></g>
<g><path style="opacity:1" fill="#121113" d="M 80.5,61.5 C 80.8417,62.3382 81.5084,62.6716 82.5,62.5C 83.5045,63.6828 84.3378,65.0161 85,66.5C 85.0734,71.2783 83.2401,72.2783 79.5,69.5C 78.4154,67.4131 76.7488,66.0798 74.5,65.5C 73.4019,64.603 73.4019,63.7697 74.5,63C 76.3453,61.872 78.3453,61.372 80.5,61.5 Z"/></g>
<g><path style="opacity:1" fill="#713d7c" d="M 151.5,53.5 C 154.242,55.5754 156.576,57.9087 158.5,60.5C 161.469,64.4762 164.469,68.4762 167.5,72.5C 164.703,70.205 162.036,67.705 159.5,65C 158.552,64.5172 157.552,64.3505 156.5,64.5C 154.23,62.9402 153.563,60.9402 154.5,58.5C 153.048,57.0603 152.048,55.3936 151.5,53.5 Z"/></g>
<g><path style="opacity:1" fill="#c85bd9" d="M 163.5,53.5 C 163.833,53.5 164.167,53.5 164.5,53.5C 164.833,53.5 165.167,53.5 165.5,53.5C 166.509,58.2895 167.509,62.9562 168.5,67.5C 168.5,68.5 168.5,69.5 168.5,70.5C 168.5,71.5 168.5,72.5 168.5,73.5C 167.833,73.5 167.5,73.1667 167.5,72.5C 164.469,68.4762 161.469,64.4762 158.5,60.5C 162.803,60.2648 164.47,57.9315 163.5,53.5 Z"/></g>
<g><path style="opacity:1" fill="#623520" d="M 171.5,35.5 C 172.5,35.5 173.5,35.5 174.5,35.5C 176.455,41.7482 178.122,48.0815 179.5,54.5C 179.46,57.8806 179.793,61.2139 180.5,64.5C 185.861,63.3167 190.861,61.3167 195.5,58.5C 200.341,61.4485 203.675,66.1151 205.5,72.5C 208.642,73.1674 211.642,73.834 214.5,74.5C 213.167,74.5 211.833,74.5 210.5,74.5C 202.902,76.4721 195.235,78.4721 187.5,80.5C 186.22,79.0687 184.553,78.4021 182.5,78.5C 181.081,77.5489 179.415,77.2155 177.5,77.5C 177.5,74.5 177.5,71.5 177.5,68.5C 178.652,63.0154 178.818,57.3487 178,51.5C 176.111,45.9885 173.945,40.6552 171.5,35.5 Z"/></g>
<g><path style="opacity:1" fill="#2a170c" d="M 63.5,62.5 C 64.245,71.0973 60.5783,74.0973 52.5,71.5C 52.5,71.1667 52.5,70.8333 52.5,70.5C 54.9619,67.5361 57.6286,64.7028 60.5,62C 61.5768,61.5304 62.5768,61.6971 63.5,62.5 Z"/></g>
<g><path style="opacity:1" fill="#b696e3" d="M 165.5,53.5 C 165.833,53.5 166.167,53.5 166.5,53.5C 168.064,57.6737 168.731,62.007 168.5,66.5C 168.5,66.8333 168.5,67.1667 168.5,67.5C 167.509,62.9562 166.509,58.2895 165.5,53.5 Z"/></g>
<g><path style="opacity:1" fill="#150b04" d="M 29.5,72.5 C 34.9552,77.7333 37.2885,84.0666 36.5,91.5C 32.479,90.4063 28.979,88.4063 26,85.5C 20.8161,85.605 15.6494,86.605 10.5,88.5C 9.44606,88.3201 8.44606,87.9867 7.5,87.5C 6.0945,82.4786 3.42783,81.4786 -0.5,84.5C -0.5,83.5 -0.5,82.5 -0.5,81.5C 2.12274,80.0459 4.28941,78.0459 6,75.5C 6.33333,75.8333 6.66667,76.1667 7,76.5C 7.49001,75.2068 7.65668,73.8734 7.5,72.5C 8.78708,70.7092 10.2871,69.0425 12,67.5C 13.2613,67.7591 14.2613,68.4258 15,69.5C 15.3333,69.1667 15.6667,68.8333 16,68.5C 16.3076,69.3081 16.8076,69.9747 17.5,70.5C 18.8159,67.972 19.9826,67.972 21,70.5C 21.5613,69.9781 22.228,69.6448 23,69.5C 24.8261,70.0104 24.9928,70.8438 23.5,72C 25.2688,73.0641 26.9355,74.2308 28.5,75.5C 29.1667,75.3333 29.8333,75.1667 30.5,75C 29.7476,74.3292 29.4142,73.4959 29.5,72.5 Z"/></g>
<g><path style="opacity:1" fill="#4e526e" d="M 74.5,65.5 C 76.7488,66.0798 78.4154,67.4131 79.5,69.5C 77.2512,68.9202 75.5846,67.5869 74.5,65.5 Z"/></g>
<g><path style="opacity:1" fill="#342b31" d="M 140.5,55.5 C 140.5,56.1667 140.5,56.8333 140.5,57.5C 140.062,57.4346 139.728,57.6012 139.5,58C 140.197,62.1636 140.863,66.3303 141.5,70.5C 137.692,69.1268 134.026,69.4602 130.5,71.5C 128.217,71.3921 126.217,70.5588 124.5,69C 120.508,65.0017 116.508,61.0017 112.5,57C 112.613,55.7202 113.28,54.8869 114.5,54.5C 117.895,55.8709 121.229,57.2043 124.5,58.5C 124.337,60.8568 124.503,63.1902 125,65.5C 127.419,69.1365 130.252,69.4698 133.5,66.5C 132.811,64.556 132.311,62.556 132,60.5C 129.828,59.4147 127.828,58.0814 126,56.5C 125.333,55.1667 125.333,53.8333 126,52.5C 126.853,50.8753 127.853,50.5419 129,51.5C 130.418,49.6368 132.251,49.1368 134.5,50C 136.189,52.2526 138.189,54.0859 140.5,55.5 Z"/></g>
<g><path style="opacity:1" fill="#312226" d="M 59.5,57.5 C 60.5498,57.9046 60.5498,58.5712 59.5,59.5C 61.3316,60.0568 62.6649,61.0568 63.5,62.5C 62.5768,61.6971 61.5768,61.5304 60.5,62C 57.6286,64.7028 54.9619,67.5361 52.5,70.5C 50.1667,70.5 47.8333,70.5 45.5,70.5C 45.4326,71.9587 45.7659,73.2921 46.5,74.5C 45.1667,74.5 43.8333,74.5 42.5,74.5C 41.9586,71.3484 42.9586,68.8484 45.5,67C 44.1667,66.6667 42.8333,66.3333 41.5,66C 40.7476,65.3292 40.4142,64.4959 40.5,63.5C 43.9016,65.0009 46.235,63.8343 47.5,60C 48.7932,59.51 50.1266,59.3433 51.5,59.5C 51.369,60.2389 51.5357,60.9056 52,61.5C 53.3184,58.0586 55.8184,56.7253 59.5,57.5 Z"/></g>
<g><path style="opacity:1" fill="#391d0f" d="M 74.5,65.5 C 75.5846,67.5869 77.2512,68.9202 79.5,69.5C 79.5,70.5 79.5,71.5 79.5,72.5C 78.4168,72.5394 77.4168,72.8728 76.5,73.5C 72.775,73.1087 70.775,71.1087 70.5,67.5C 71.6049,66.3995 72.9382,65.7329 74.5,65.5 Z"/></g>
<g><path style="opacity:1" fill="#201a20" d="M 149.5,65.5 C 152.167,65.8333 154.833,66.1667 157.5,66.5C 161.167,68.1667 163.833,70.8333 165.5,74.5C 165.565,74.9382 165.399,75.2716 165,75.5C 160.673,72.4667 156.173,69.8 151.5,67.5C 149.599,69.7284 148.599,72.3951 148.5,75.5C 146.62,75.2291 145.287,75.8958 144.5,77.5C 143.833,79.5 143.167,81.5 142.5,83.5C 138.957,80.6493 136.957,81.6493 136.5,86.5C 135.094,86.0269 134.427,85.0269 134.5,83.5C 133.432,82.5655 132.099,82.2322 130.5,82.5C 130.215,80.712 130.548,79.0453 131.5,77.5C 134.271,75.8917 136.605,73.8917 138.5,71.5C 139.391,72.1098 140.391,72.4431 141.5,72.5C 142.002,74.0847 143.002,74.5847 144.5,74C 146.824,71.5192 148.491,68.6859 149.5,65.5 Z"/></g>
<g><path style="opacity:1" fill="#1b1619" d="M 104.5,55.5 C 105.976,57.7686 107.476,60.1019 109,62.5C 108.145,72.2335 111.312,73.9001 118.5,67.5C 125.927,69.9977 126.261,72.6644 119.5,75.5C 125.967,76.3562 131.967,74.6895 137.5,70.5C 138.107,70.6236 138.44,70.9569 138.5,71.5C 136.605,73.8917 134.271,75.8917 131.5,77.5C 130.548,79.0453 130.215,80.712 130.5,82.5C 132.099,82.2322 133.432,82.5655 134.5,83.5C 132.656,85.2789 131.99,87.6122 132.5,90.5C 135.167,90.5 137.833,90.5 140.5,90.5C 140.5,91.5 140.5,92.5 140.5,93.5C 143.237,93.4013 145.904,93.7347 148.5,94.5C 148.5,96.5 148.5,98.5 148.5,100.5C 150.722,99.6138 152.888,99.6138 155,100.5C 156.31,99.8699 157.144,98.8699 157.5,97.5C 158.721,96.5354 160.054,96.702 161.5,98C 161.272,98.3988 160.938,98.5654 160.5,98.5C 158.57,98.7706 157.236,99.7706 156.5,101.5C 152.919,102.652 149.252,103.152 145.5,103C 143.393,101.736 142.393,99.9032 142.5,97.5C 140.833,97.5 139.167,97.5 137.5,97.5C 133.668,96.1816 130.501,93.8483 128,90.5C 125.281,82.6125 119.781,78.2791 111.5,77.5C 110.206,78.2899 109.039,79.2899 108,80.5C 107.626,79.5838 107.126,78.7504 106.5,78C 107.87,76.5587 108.87,74.892 109.5,73C 107.018,72.3229 105.185,73.1563 104,75.5C 103.231,79.7099 102.731,84.0432 102.5,88.5C 104.753,90.5973 105.42,92.9306 104.5,95.5C 103.542,95.0472 102.708,94.3805 102,93.5C 99.8666,89.0212 98.1999,84.3546 97,79.5C 96.2825,80.4506 95.4491,80.6172 94.5,80C 93.8333,78.6667 93.1667,77.3333 92.5,76C 93.8333,74.6667 93.8333,73.3333 92.5,72C 93.0944,71.5357 93.7611,71.369 94.5,71.5C 97.6362,74.5945 99.9696,74.0945 101.5,70C 101.022,68.6974 100.355,67.5307 99.5,66.5C 98.6971,65.5768 98.5304,64.5768 99,63.5C 102.153,64.7859 104.819,66.7859 107,69.5C 107.167,69.1667 107.333,68.8333 107.5,68.5C 105.862,65.6959 104.029,63.0292 102,60.5C 101.51,59.2068 101.343,57.8734 101.5,56.5C 102.209,55.596 103.209,55.2627 104.5,55.5 Z"/></g>
<g><path style="opacity:1" fill="#747075" d="M 149.5,65.5 C 148.491,68.6859 146.824,71.5192 144.5,74C 143.002,74.5847 142.002,74.0847 141.5,72.5C 143.624,71.9688 145.124,70.6355 146,68.5C 146.49,67.2068 146.657,65.8734 146.5,64.5C 147.791,64.2627 148.791,64.596 149.5,65.5 Z"/></g>
<g><path style="opacity:1" fill="#9996c1" d="M 156.5,64.5 C 157.552,64.3505 158.552,64.5172 159.5,65C 162.036,67.705 164.703,70.205 167.5,72.5C 167.5,73.1667 167.833,73.5 168.5,73.5C 168.649,74.552 168.483,75.552 168,76.5C 167.292,75.6195 166.458,74.9528 165.5,74.5C 163.833,70.8333 161.167,68.1667 157.5,66.5C 157.167,65.8333 156.833,65.1667 156.5,64.5 Z"/></g>
<g><path style="opacity:1" fill="#170f17" d="M 173.5,67.5 C 173.5,69.8333 173.5,72.1667 173.5,74.5C 172.141,75.0065 171.141,76.0065 170.5,77.5C 169.832,75.0312 169.165,72.6979 168.5,70.5C 168.5,69.5 168.5,68.5 168.5,67.5C 168.5,67.1667 168.5,66.8333 168.5,66.5C 169.158,65.6016 169.824,64.6016 170.5,63.5C 171.859,64.6243 172.859,65.9577 173.5,67.5 Z"/></g>
<g><path style="opacity:1" fill="#8c52a2" d="M 170.5,46.5 C 172.81,53.7 174.477,61.0334 175.5,68.5C 174.793,71.7861 174.46,75.1194 174.5,78.5C 174.214,80.9327 173.548,80.9327 172.5,78.5C 172.833,77.1667 173.167,75.8333 173.5,74.5C 173.5,72.1667 173.5,69.8333 173.5,67.5C 171.378,60.6745 170.378,53.6745 170.5,46.5 Z"/></g>
<g><path style="opacity:1" fill="#573cac" d="M 52.5,71.5 C 54.8876,72.3485 57.2209,73.3485 59.5,74.5C 59.5,75.1667 59.5,75.8333 59.5,76.5C 58.8423,77.3984 58.1757,78.3984 57.5,79.5C 56.4104,78.6086 56.4104,77.6086 57.5,76.5C 57.0233,75.5224 56.3567,74.6891 55.5,74C 52.8333,73.3333 50.1667,72.6667 47.5,72C 49.1341,71.5065 50.8008,71.3398 52.5,71.5 Z"/></g>
<g><path style="opacity:1" fill="#605c60" d="M 141.5,70.5 C 142.506,70.9377 142.506,71.6043 141.5,72.5C 140.391,72.4431 139.391,72.1098 138.5,71.5C 138.44,70.9569 138.107,70.6236 137.5,70.5C 131.967,74.6895 125.967,76.3562 119.5,75.5C 123.764,75.5233 127.431,74.1899 130.5,71.5C 134.026,69.4602 137.692,69.1268 141.5,70.5 Z"/></g>
<g><path style="opacity:1" fill="#5a321b" d="M 255.5,77.5 C 255.5,82.5 255.5,87.5 255.5,92.5C 253.343,90.5879 251.009,88.9213 248.5,87.5C 246.585,84.039 243.585,82.3723 239.5,82.5C 233.155,80.0046 226.822,77.6712 220.5,75.5C 224.04,75.6235 226.04,73.9568 226.5,70.5C 227.833,70.5 229.167,70.5 230.5,70.5C 233.436,69.3998 236.27,68.0665 239,66.5C 241.292,67.6009 242.792,66.7676 243.5,64C 245.101,63.7266 246.601,63.2266 248,62.5C 251.753,66.9585 254.253,71.9585 255.5,77.5 Z"/></g>
<g><path style="opacity:1" fill="#382a48" d="M 165.5,74.5 C 166.458,74.9528 167.292,75.6195 168,76.5C 168.483,75.552 168.649,74.552 168.5,73.5C 168.5,72.5 168.5,71.5 168.5,70.5C 169.165,72.6979 169.832,75.0312 170.5,77.5C 171.141,76.0065 172.141,75.0065 173.5,74.5C 173.167,75.8333 172.833,77.1667 172.5,78.5C 169.732,80.8429 167.066,80.5095 164.5,77.5C 163.126,78.7113 161.626,79.7113 160,80.5C 158.036,79.536 156.37,78.2026 155,76.5C 153.97,76.8361 153.47,77.5028 153.5,78.5C 152.833,79.1667 152.167,79.8333 151.5,80.5C 150.075,79.078 149.075,77.4113 148.5,75.5C 148.599,72.3951 149.599,69.7284 151.5,67.5C 156.173,69.8 160.673,72.4667 165,75.5C 165.399,75.2716 165.565,74.9382 165.5,74.5 Z"/></g>
<g><path style="opacity:1" fill="#423346" d="M 177.5,68.5 C 177.5,71.5 177.5,74.5 177.5,77.5C 177.158,78.3382 176.492,78.6716 175.5,78.5C 175.167,78.5 174.833,78.5 174.5,78.5C 174.46,75.1194 174.793,71.7861 175.5,68.5C 176.548,66.0673 177.214,66.0673 177.5,68.5 Z"/></g>
<g><path style="opacity:1" fill="#251f29" d="M 94.5,71.5 C 93.7611,71.369 93.0944,71.5357 92.5,72C 93.8333,73.3333 93.8333,74.6667 92.5,76C 93.1667,77.3333 93.8333,78.6667 94.5,80C 95.4491,80.6172 96.2825,80.4506 97,79.5C 98.1999,84.3546 99.8666,89.0212 102,93.5C 102.708,94.3805 103.542,95.0472 104.5,95.5C 105.791,95.2627 106.791,95.596 107.5,96.5C 107.5,96.8333 107.5,97.1667 107.5,97.5C 104.794,97.3122 102.461,96.3122 100.5,94.5C 100.291,93.0783 99.7914,91.745 99,90.5C 96,88.8333 93.6667,86.5 92,83.5C 90.9614,84.2438 90.4614,85.2438 90.5,86.5C 84.0151,83.4137 78.0151,84.4137 72.5,89.5C 71.1401,88.8201 69.8068,88.1534 68.5,87.5C 67.3702,85.6854 66.7036,83.6854 66.5,81.5C 67.5,81.5 68.5,81.5 69.5,81.5C 69.281,80.325 69.6143,79.325 70.5,78.5C 71.6477,80.1487 72.981,81.6487 74.5,83C 74.1667,83.3333 73.8333,83.6667 73.5,84C 74.7932,84.49 76.1266,84.6567 77.5,84.5C 77.5198,82.857 76.8532,81.5237 75.5,80.5C 80.017,78.4072 84.017,75.5738 87.5,72C 88.448,71.5172 89.448,71.3505 90.5,71.5C 90.5,70.1667 90.5,68.8333 90.5,67.5C 91.5,67.5 92.5,67.5 93.5,67.5C 93.4326,68.9587 93.7659,70.2921 94.5,71.5 Z"/></g>
<g><path style="opacity:1" fill="#312240" d="M 99.5,66.5 C 100.355,67.5307 101.022,68.6974 101.5,70C 99.9696,74.0945 97.6362,74.5945 94.5,71.5C 93.7659,70.2921 93.4326,68.9587 93.5,67.5C 92.5,67.5 91.5,67.5 90.5,67.5C 90.5,68.8333 90.5,70.1667 90.5,71.5C 89.448,71.3505 88.448,71.5172 87.5,72C 84.017,75.5738 80.017,78.4072 75.5,80.5C 76.8532,81.5237 77.5198,82.857 77.5,84.5C 76.1266,84.6567 74.7932,84.49 73.5,84C 73.8333,83.6667 74.1667,83.3333 74.5,83C 72.981,81.6487 71.6477,80.1487 70.5,78.5C 69.6143,79.325 69.281,80.325 69.5,81.5C 68.5,81.5 67.5,81.5 66.5,81.5C 66.7036,83.6854 67.3702,85.6854 68.5,87.5C 67.2921,86.7659 65.9587,86.4326 64.5,86.5C 61.7844,84.8749 59.4511,85.2082 57.5,87.5C 57.5,86.1667 57.5,84.8333 57.5,83.5C 58.552,83.6495 59.552,83.4828 60.5,83C 59.5769,80.9592 59.2436,78.7925 59.5,76.5C 59.5,75.8333 59.5,75.1667 59.5,74.5C 61.8862,73.7019 64.2195,72.7019 66.5,71.5C 67.9337,72.9358 69.1004,74.6025 70,76.5C 70.3333,75.1667 70.6667,73.8333 71,72.5C 74.9102,75.088 78.7436,75.088 82.5,72.5C 87.7049,71.5107 88.7049,68.8441 85.5,64.5C 85.8333,64.1667 86.1667,63.8333 86.5,63.5C 90.783,64.8138 95.1163,65.8138 99.5,66.5 Z"/></g>
<g><path style="opacity:1" fill="#3c3374" d="M 52.5,70.5 C 52.5,70.8333 52.5,71.1667 52.5,71.5C 50.8008,71.3398 49.1341,71.5065 47.5,72C 50.1667,72.6667 52.8333,73.3333 55.5,74C 56.3567,74.6891 57.0233,75.5224 57.5,76.5C 56.4104,77.6086 56.4104,78.6086 57.5,79.5C 58.1757,78.3984 58.8423,77.3984 59.5,76.5C 59.2436,78.7925 59.5769,80.9592 60.5,83C 59.552,83.4828 58.552,83.6495 57.5,83.5C 57.5,84.8333 57.5,86.1667 57.5,87.5C 55.8031,85.6948 54.9698,83.3615 55,80.5C 52.7131,78.9456 50.5465,77.2789 48.5,75.5C 48.1583,74.6618 47.4916,74.3284 46.5,74.5C 45.7659,73.2921 45.4326,71.9587 45.5,70.5C 47.8333,70.5 50.1667,70.5 52.5,70.5 Z"/></g>
<g><path style="opacity:1" fill="#23152b" d="M 111.5,77.5 C 111.026,80.763 109.693,83.5963 107.5,86C 107.379,89.5224 108.046,93.0224 109.5,96.5C 108.833,96.5 108.167,96.5 107.5,96.5C 106.791,95.596 105.791,95.2627 104.5,95.5C 105.42,92.9306 104.753,90.5973 102.5,88.5C 102.731,84.0432 103.231,79.7099 104,75.5C 105.185,73.1563 107.018,72.3229 109.5,73C 108.87,74.892 107.87,76.5587 106.5,78C 107.126,78.7504 107.626,79.5838 108,80.5C 109.039,79.2899 110.206,78.2899 111.5,77.5 Z"/></g>
<g><path style="opacity:1" fill="#e9e3df" d="M 148.5,75.5 C 149.075,77.4113 150.075,79.078 151.5,80.5C 152.569,83.408 152.736,86.408 152,89.5C 149.984,87.316 147.817,85.316 145.5,83.5C 144.534,81.604 144.201,79.604 144.5,77.5C 145.287,75.8958 146.62,75.2291 148.5,75.5 Z"/></g>
<g><path style="opacity:1" fill="#513940" d="M 210.5,75.5 C 222.864,78.9008 234.864,83.4008 246.5,89C 249.365,92.6919 252.365,96.1919 255.5,99.5C 255.5,105.5 255.5,111.5 255.5,117.5C 251.392,108.715 245.392,101.381 237.5,95.5C 232.434,92.8018 227.1,90.4685 221.5,88.5C 220.893,88.6236 220.56,88.9569 220.5,89.5C 217.37,87.9774 214.037,87.3107 210.5,87.5C 211.263,86.7321 212.263,86.2321 213.5,86C 208.378,85.5272 203.378,86.1938 198.5,88C 202.596,87.9938 206.596,88.1604 210.5,88.5C 215.225,90.8922 218.558,94.5588 220.5,99.5C 222.151,104.328 222.817,109.328 222.5,114.5C 222.5,115.5 222.5,116.5 222.5,117.5C 221.677,120.977 221.177,124.644 221,128.5C 219.061,133.485 217.228,138.485 215.5,143.5C 215.167,143.5 214.833,143.5 214.5,143.5C 213.011,140.296 212.011,136.963 211.5,133.5C 213.904,125.249 214.071,116.916 212,108.5C 210.629,106.959 209.129,105.625 207.5,104.5C 206.426,103.115 205.093,101.949 203.5,101C 197.565,99.7614 191.565,99.2614 185.5,99.5C 185.5,98.8333 185.5,98.1667 185.5,97.5C 186.434,96.4324 186.768,95.099 186.5,93.5C 187.833,93.5 189.167,93.5 190.5,93.5C 190.67,92.1779 190.337,91.0113 189.5,90C 190.167,89.6667 190.833,89.3333 191.5,89C 187.541,89.2087 185.874,87.3754 186.5,83.5C 188.881,82.5804 191.214,82.5804 193.5,83.5C 195.051,81.4547 197.051,79.9547 199.5,79C 203.188,77.8182 206.855,76.6516 210.5,75.5 Z"/></g>
<g><path style="opacity:1" fill="#ded1cc" d="M 142.5,83.5 C 143.341,85.3792 143.675,87.3792 143.5,89.5C 140.482,89.6646 137.482,89.498 134.5,89C 135.381,88.2917 136.047,87.4584 136.5,86.5C 136.957,81.6493 138.957,80.6493 142.5,83.5 Z"/></g>
<g><path style="opacity:1" fill="#b3a8a9" d="M 210.5,75.5 C 210.5,75.1667 210.5,74.8333 210.5,74.5C 211.833,74.5 213.167,74.5 214.5,74.5C 216.5,74.8333 218.5,75.1667 220.5,75.5C 226.822,77.6712 233.155,80.0046 239.5,82.5C 241.859,83.337 243.859,84.837 245.5,87C 246.448,87.4828 247.448,87.6495 248.5,87.5C 251.009,88.9213 253.343,90.5879 255.5,92.5C 255.5,94.8333 255.5,97.1667 255.5,99.5C 252.365,96.1919 249.365,92.6919 246.5,89C 234.864,83.4008 222.864,78.9008 210.5,75.5 Z"/></g>
<g><path style="opacity:1" fill="#886e57" d="M 239.5,82.5 C 243.585,82.3723 246.585,84.039 248.5,87.5C 247.448,87.6495 246.448,87.4828 245.5,87C 243.859,84.837 241.859,83.337 239.5,82.5 Z"/></g>
<g><path style="opacity:1" fill="#694a47" d="M 210.5,74.5 C 210.5,74.8333 210.5,75.1667 210.5,75.5C 206.855,76.6516 203.188,77.8182 199.5,79C 197.051,79.9547 195.051,81.4547 193.5,83.5C 191.214,82.5804 188.881,82.5804 186.5,83.5C 185.874,87.3754 187.541,89.2087 191.5,89C 190.833,89.3333 190.167,89.6667 189.5,90C 190.337,91.0113 190.67,92.1779 190.5,93.5C 189.167,93.5 187.833,93.5 186.5,93.5C 186.768,95.099 186.434,96.4324 185.5,97.5C 185.665,94.1501 185.498,90.8168 185,87.5C 183.759,85.5794 182.259,85.246 180.5,86.5C 181.843,90.8613 183.177,95.1946 184.5,99.5C 183.807,102.838 182.14,103.338 179.5,101C 178.624,99.414 177.624,97.914 176.5,96.5C 174.214,97.4196 171.881,97.4196 169.5,96.5C 170.5,95.8333 171.5,95.1667 172.5,94.5C 173.793,93.158 174.626,91.4913 175,89.5C 175.499,85.8484 175.665,82.1817 175.5,78.5C 176.492,78.6716 177.158,78.3382 177.5,77.5C 179.415,77.2155 181.081,77.5489 182.5,78.5C 181.325,78.281 180.325,78.6143 179.5,79.5C 182.199,81.1986 184.866,81.5319 187.5,80.5C 195.235,78.4721 202.902,76.4721 210.5,74.5 Z"/></g>
<g><path style="opacity:1" fill="#c0b1aa" d="M 182.5,78.5 C 184.553,78.4021 186.22,79.0687 187.5,80.5C 184.866,81.5319 182.199,81.1986 179.5,79.5C 180.325,78.6143 181.325,78.281 182.5,78.5 Z"/></g>
<g><path style="opacity:1" fill="#2d1706" d="M 48.5,75.5 C 50.5465,77.2789 52.7131,78.9456 55,80.5C 54.9698,83.3615 55.8031,85.6948 57.5,87.5C 59.4511,85.2082 61.7844,84.8749 64.5,86.5C 72.2071,90.8208 80.2071,94.8208 88.5,98.5C 87.3739,102.749 85.7072,106.749 83.5,110.5C 81.7376,111.262 80.7376,112.596 80.5,114.5C 78.8333,115.5 77.5,116.833 76.5,118.5C 74.8333,117.167 73.1667,117.167 71.5,118.5C 67.7055,112.411 64.0388,106.245 60.5,100C 57.3318,100.003 54.1651,100.17 51,100.5C 49.6801,98.3456 47.8468,96.8456 45.5,96C 48.2146,95.1253 49.5479,93.2919 49.5,90.5C 44.8112,90.3154 42.1445,87.8154 41.5,83C 42.1905,81.9326 42.6905,80.7659 43,79.5C 43.6667,78.1667 44.3333,78.1667 45,79.5C 45.66,77.6763 46.8267,76.343 48.5,75.5 Z"/></g>
<g><path style="opacity:1" fill="#a79494" d="M 144.5,77.5 C 144.201,79.604 144.534,81.604 145.5,83.5C 147.817,85.316 149.984,87.316 152,89.5C 152.736,86.408 152.569,83.408 151.5,80.5C 152.167,79.8333 152.833,79.1667 153.5,78.5C 153.594,82.1358 154.261,85.6358 155.5,89C 159.845,89.5596 163.512,91.3929 166.5,94.5C 167.719,93.7366 168.719,92.7366 169.5,91.5C 170.288,92.7701 171.288,93.7701 172.5,94.5C 171.5,95.1667 170.5,95.8333 169.5,96.5C 169.5,97.1667 169.167,97.5 168.5,97.5C 164.231,95.6167 159.898,93.6167 155.5,91.5C 153.585,93.0712 152.585,95.0712 152.5,97.5C 154.167,97.5 155.833,97.5 157.5,97.5C 157.144,98.8699 156.31,99.8699 155,100.5C 152.888,99.6138 150.722,99.6138 148.5,100.5C 148.5,98.5 148.5,96.5 148.5,94.5C 148.585,93.0047 147.919,92.0047 146.5,91.5C 144.902,92.4847 143.235,92.6514 141.5,92C 144.949,91.2997 146.283,89.4664 145.5,86.5C 144.824,87.6016 144.158,88.6016 143.5,89.5C 143.675,87.3792 143.341,85.3792 142.5,83.5C 143.167,81.5 143.833,79.5 144.5,77.5 Z"/></g>
<g><path style="opacity:1" fill="#e4dce0" d="M 172.5,78.5 C 173.548,80.9327 174.214,80.9327 174.5,78.5C 174.833,78.5 175.167,78.5 175.5,78.5C 175.665,82.1817 175.499,85.8484 175,89.5C 174.626,91.4913 173.793,93.158 172.5,94.5C 171.288,93.7701 170.288,92.7701 169.5,91.5C 168.719,92.7366 167.719,93.7366 166.5,94.5C 163.512,91.3929 159.845,89.5596 155.5,89C 154.261,85.6358 153.594,82.1358 153.5,78.5C 153.47,77.5028 153.97,76.8361 155,76.5C 156.37,78.2026 158.036,79.536 160,80.5C 161.626,79.7113 163.126,78.7113 164.5,77.5C 167.066,80.5095 169.732,80.8429 172.5,78.5 Z"/></g>
<g><path style="opacity:1" fill="#8162a0" d="M 210.5,87.5 C 210.5,87.8333 210.5,88.1667 210.5,88.5C 206.596,88.1604 202.596,87.9938 198.5,88C 203.378,86.1938 208.378,85.5272 213.5,86C 212.263,86.2321 211.263,86.7321 210.5,87.5 Z"/></g>
<g><path style="opacity:1" fill="#4b475e" d="M 90.5,86.5 C 91.6005,87.6049 92.2671,88.9382 92.5,90.5C 88.6539,89.6672 84.8205,88.6672 81,87.5C 80.1667,87.8333 79.3333,88.1667 78.5,88.5C 80.322,90.0101 82.322,91.3434 84.5,92.5C 86.2776,94.264 87.6109,96.264 88.5,98.5C 80.2071,94.8208 72.2071,90.8208 64.5,86.5C 65.9587,86.4326 67.2921,86.7659 68.5,87.5C 69.8068,88.1534 71.1401,88.8201 72.5,89.5C 78.0151,84.4137 84.0151,83.4137 90.5,86.5 Z"/></g>
<g><path style="opacity:1" fill="#291d2e" d="M 92.5,90.5 C 92.1961,91.1499 91.8627,91.8165 91.5,92.5C 93.5576,99.2307 95.2243,106.064 96.5,113C 95.7748,120.163 95.1081,127.33 94.5,134.5C 91.7569,134.923 90.4235,133.756 90.5,131C 94.2452,121.497 94.0785,111.997 90,102.5C 88.0539,105.42 85.8872,108.087 83.5,110.5C 85.7072,106.749 87.3739,102.749 88.5,98.5C 87.6109,96.264 86.2776,94.264 84.5,92.5C 82.322,91.3434 80.322,90.0101 78.5,88.5C 79.3333,88.1667 80.1667,87.8333 81,87.5C 84.8205,88.6672 88.6539,89.6672 92.5,90.5 Z"/></g>
<g><path style="opacity:1" fill="#77545a" d="M 134.5,83.5 C 134.427,85.0269 135.094,86.0269 136.5,86.5C 136.047,87.4584 135.381,88.2917 134.5,89C 137.482,89.498 140.482,89.6646 143.5,89.5C 144.158,88.6016 144.824,87.6016 145.5,86.5C 146.283,89.4664 144.949,91.2997 141.5,92C 143.235,92.6514 144.902,92.4847 146.5,91.5C 147.919,92.0047 148.585,93.0047 148.5,94.5C 145.904,93.7347 143.237,93.4013 140.5,93.5C 140.5,92.5 140.5,91.5 140.5,90.5C 137.833,90.5 135.167,90.5 132.5,90.5C 131.99,87.6122 132.656,85.2789 134.5,83.5 Z"/></g>
<g><path style="opacity:1" fill="#21120a" d="M 30.5,55.5 C 33.2165,55.6785 35.8832,56.1785 38.5,57C 39.1172,59.277 39.7839,61.4437 40.5,63.5C 40.4142,64.4959 40.7476,65.3292 41.5,66C 42.8333,66.3333 44.1667,66.6667 45.5,67C 42.9586,68.8484 41.9586,71.3484 42.5,74.5C 43.8333,74.5 45.1667,74.5 46.5,74.5C 47.4916,74.3284 48.1583,74.6618 48.5,75.5C 46.8267,76.343 45.66,77.6763 45,79.5C 44.3333,78.1667 43.6667,78.1667 43,79.5C 42.6905,80.7659 42.1905,81.9326 41.5,83C 42.1445,87.8154 44.8112,90.3154 49.5,90.5C 49.5479,93.2919 48.2146,95.1253 45.5,96C 47.8468,96.8456 49.6801,98.3456 51,100.5C 54.1651,100.17 57.3318,100.003 60.5,100C 64.0388,106.245 67.7055,112.411 71.5,118.5C 70.0536,119.613 68.3869,119.78 66.5,119C 63.6548,113.697 59.4881,110.864 54,110.5C 49.8323,109.555 45.6656,108.555 41.5,107.5C 39.0741,107.404 36.9074,108.07 35,109.5C 32.6425,106.909 29.8092,105.242 26.5,104.5C 26.5807,95.6559 22.2474,90.6559 13.5,89.5C 9.01407,91.0499 4.3474,92.0499 -0.5,92.5C -0.5,89.8333 -0.5,87.1667 -0.5,84.5C 3.42783,81.4786 6.0945,82.4786 7.5,87.5C 8.44606,87.9867 9.44606,88.3201 10.5,88.5C 15.6494,86.605 20.8161,85.605 26,85.5C 28.979,88.4063 32.479,90.4063 36.5,91.5C 37.2885,84.0666 34.9552,77.7333 29.5,72.5C 28.643,68.3082 29.3097,64.3082 31.5,60.5C 31.2907,59.914 30.9574,59.414 30.5,59C 34.4937,57.54 34.4937,56.3733 30.5,55.5 Z"/></g>
<g><path style="opacity:1" fill="#b4a4a7" d="M 210.5,88.5 C 210.5,88.1667 210.5,87.8333 210.5,87.5C 214.037,87.3107 217.37,87.9774 220.5,89.5C 222.009,92.6777 223.342,96.0111 224.5,99.5C 225.103,102.041 225.103,104.374 224.5,106.5C 223.404,103.968 222.071,101.635 220.5,99.5C 218.558,94.5588 215.225,90.8922 210.5,88.5 Z"/></g>
<g><path style="opacity:1" fill="#302041" d="M 111.5,77.5 C 119.781,78.2791 125.281,82.6125 128,90.5C 130.501,93.8483 133.668,96.1816 137.5,97.5C 136.34,99.2027 137.007,99.8693 139.5,99.5C 139.993,101.806 140.326,104.139 140.5,106.5C 137.989,110.919 136.989,115.586 137.5,120.5C 136.117,123.076 135.283,122.742 135,119.5C 134.617,120.056 134.117,120.389 133.5,120.5C 134.959,113.719 136.625,107.052 138.5,100.5C 136.856,100.714 135.356,100.38 134,99.5C 134.803,103.317 134.137,106.984 132,110.5C 130.305,105.809 129.305,101.142 129,96.5C 128.282,95.5494 127.449,95.3828 126.5,96C 126.374,99.0782 126.541,102.245 127,105.5C 125.731,104.095 125.231,102.429 125.5,100.5C 122.976,100.571 120.976,99.5713 119.5,97.5C 118.818,98.2427 118.151,98.9094 117.5,99.5C 114.833,98.5 112.167,97.5 109.5,96.5C 108.046,93.0224 107.379,89.5224 107.5,86C 109.693,83.5963 111.026,80.763 111.5,77.5 Z"/></g>
<g><path style="opacity:1" fill="#d6cece" d="M 185.5,97.5 C 185.5,98.1667 185.5,98.8333 185.5,99.5C 185.167,99.5 184.833,99.5 184.5,99.5C 183.177,95.1946 181.843,90.8613 180.5,86.5C 182.259,85.246 183.759,85.5794 185,87.5C 185.498,90.8168 185.665,94.1501 185.5,97.5 Z"/></g>
<g><path style="opacity:1" fill="#22131c" d="M 100.5,94.5 C 102.461,96.3122 104.794,97.3122 107.5,97.5C 115.515,99.9957 121.849,104.662 126.5,111.5C 126.53,112.497 126.03,113.164 125,113.5C 120.672,110.668 116.005,108.668 111,107.5C 114.837,112.506 117.67,118.173 119.5,124.5C 116.111,123.562 113.611,121.562 112,118.5C 111.667,119.167 111.333,119.833 111,120.5C 110.009,119.061 108.676,118.061 107,117.5C 106.215,119.286 105.049,120.786 103.5,122C 104.056,122.383 104.389,122.883 104.5,123.5C 104.265,124.097 103.765,124.43 103,124.5C 101.523,123.556 100.523,122.223 100,120.5C 99.3983,115.435 98.8983,110.602 98.5,106C 99.91,105.632 100.91,104.799 101.5,103.5C 99.3676,100.595 99.0343,97.5955 100.5,94.5 Z"/></g>
<g><path style="opacity:1" fill="#c1b3b8" d="M 168.5,97.5 C 168.5,97.8333 168.5,98.1667 168.5,98.5C 167.833,98.5 167.5,98.8333 167.5,99.5C 166.196,100.987 165.03,102.654 164,104.5C 163.667,102.5 163.333,100.5 163,98.5C 162.138,104.977 161.305,111.311 160.5,117.5C 160.5,116.5 160.5,115.5 160.5,114.5C 160.5,109.167 160.5,103.833 160.5,98.5C 160.938,98.5654 161.272,98.3988 161.5,98C 160.054,96.702 158.721,96.5354 157.5,97.5C 155.833,97.5 154.167,97.5 152.5,97.5C 152.585,95.0712 153.585,93.0712 155.5,91.5C 159.898,93.6167 164.231,95.6167 168.5,97.5 Z"/></g>
<g><path style="opacity:1" fill="#464965" d="M 107.5,97.5 C 107.5,97.1667 107.5,96.8333 107.5,96.5C 108.167,96.5 108.833,96.5 109.5,96.5C 112.167,97.5 114.833,98.5 117.5,99.5C 125.542,104.874 130.876,112.207 133.5,121.5C 133.5,123.5 133.5,125.5 133.5,127.5C 133.217,128.289 132.717,128.956 132,129.5C 131.879,127.273 131.046,125.44 129.5,124C 130.576,122.274 130.743,120.441 130,118.5C 129.14,115.916 127.973,113.583 126.5,111.5C 121.849,104.662 115.515,99.9957 107.5,97.5 Z"/></g>
<g><path style="opacity:1" fill="#a444cc" d="M 160.5,98.5 C 160.5,103.833 160.5,109.167 160.5,114.5C 160.098,111.523 159.098,108.857 157.5,106.5C 157.371,104.784 157.038,103.117 156.5,101.5C 157.236,99.7706 158.57,98.7706 160.5,98.5 Z"/></g>
<g><path style="opacity:1" fill="#341a13" d="M 71.5,118.5 C 73.1667,117.167 74.8333,117.167 76.5,118.5C 74.8333,120.833 72.8333,122.833 70.5,124.5C 66.1669,123 62.5002,120.5 59.5,117C 51.4387,114.001 43.4387,114.334 35.5,118C 32.2616,120.145 30.595,123.145 30.5,127C 32.2208,132.571 34.2208,138.071 36.5,143.5C 33.8333,143.5 31.1667,143.5 28.5,143.5C 26.1902,138.089 24.8569,132.589 24.5,127C 28.2027,123.604 29.3694,119.437 28,114.5C 24.9165,110.746 21.2498,107.746 17,105.5C 16.6765,98.6784 13.1765,95.0117 6.5,94.5C 7.0147,99.4797 6.34803,104.146 4.5,108.5C 2.04112,108.69 0.374458,107.69 -0.5,105.5C -0.5,101.167 -0.5,96.8333 -0.5,92.5C 4.3474,92.0499 9.01407,91.0499 13.5,89.5C 22.2474,90.6559 26.5807,95.6559 26.5,104.5C 29.8092,105.242 32.6425,106.909 35,109.5C 36.9074,108.07 39.0741,107.404 41.5,107.5C 45.6656,108.555 49.8323,109.555 54,110.5C 59.4881,110.864 63.6548,113.697 66.5,119C 68.3869,119.78 70.0536,119.613 71.5,118.5 Z"/></g>
<g><path style="opacity:1" fill="#4f2e0d" d="M 169.5,96.5 C 171.881,97.4196 174.214,97.4196 176.5,96.5C 177.624,97.914 178.624,99.414 179.5,101C 182.14,103.338 183.807,102.838 184.5,99.5C 184.833,99.5 185.167,99.5 185.5,99.5C 191.565,99.2614 197.565,99.7614 203.5,101C 205.093,101.949 206.426,103.115 207.5,104.5C 207.539,105.583 207.873,106.583 208.5,107.5C 205.17,112.643 202.504,118.143 200.5,124C 201.056,124.383 201.389,124.883 201.5,125.5C 197.08,129.389 196.746,133.556 200.5,138C 199.241,138.982 197.908,139.315 196.5,139C 193.545,136.419 192.045,133.253 192,129.5C 192.414,129.957 192.914,130.291 193.5,130.5C 194.357,129.264 195.023,127.931 195.5,126.5C 194.469,125.3 193.635,123.966 193,122.5C 192.212,118.427 191.212,114.427 190,110.5C 188.333,107.833 186.667,107.833 185,110.5C 183.667,109.167 182.333,109.167 181,110.5C 180.531,108.892 179.865,107.225 179,105.5C 174.51,109.613 173.677,114.946 176.5,121.5C 173.923,121.455 171.923,122.455 170.5,124.5C 172.871,117.104 173.871,109.437 173.5,101.5C 172.209,101.263 171.209,101.596 170.5,102.5C 169.326,101.486 168.66,100.153 168.5,98.5C 168.5,98.1667 168.5,97.8333 168.5,97.5C 169.167,97.5 169.5,97.1667 169.5,96.5 Z"/></g>
<g><path style="opacity:1" fill="#8437a7" d="M 137.5,97.5 C 139.167,97.5 140.833,97.5 142.5,97.5C 142.393,99.9032 143.393,101.736 145.5,103C 149.252,103.152 152.919,102.652 156.5,101.5C 157.038,103.117 157.371,104.784 157.5,106.5C 156.167,106.5 154.833,106.5 153.5,106.5C 153.167,110.5 152.833,110.5 152.5,106.5C 151.167,106.5 149.833,106.5 148.5,106.5C 146.973,106.427 145.973,107.094 145.5,108.5C 145.167,108.5 144.833,108.5 144.5,108.5C 143.279,109.028 142.113,109.695 141,110.5C 140.51,109.207 140.343,107.873 140.5,106.5C 140.326,104.139 139.993,101.806 139.5,99.5C 137.007,99.8693 136.34,99.2027 137.5,97.5 Z"/></g>
<g><path style="opacity:1" fill="#532f0d" d="M 237.5,95.5 C 245.392,101.381 251.392,108.715 255.5,117.5C 255.5,121.167 255.5,124.833 255.5,128.5C 251.591,126.061 248.091,123.061 245,119.5C 242.348,115.527 239.348,111.86 236,108.5C 235.5,107.5 235,106.5 234.5,105.5C 235.706,102.921 237.039,100.421 238.5,98C 237.748,97.3292 237.414,96.4959 237.5,95.5 Z"/></g>
<g><path style="opacity:1" fill="#797cb6" d="M -0.5,105.5 C 0.374458,107.69 2.04112,108.69 4.5,108.5C 7.33883,110.42 10.3388,112.087 13.5,113.5C 12.209,113.263 11.209,113.596 10.5,114.5C 8.45592,113.969 6.78925,112.802 5.5,111C 3.5273,110.505 1.5273,110.338 -0.5,110.5C -0.5,108.833 -0.5,107.167 -0.5,105.5 Z"/></g>
<g><path style="opacity:1" fill="#1f1109" d="M 28.5,143.5 C 28.1667,143.5 27.8333,143.5 27.5,143.5C 21.5936,136.683 15.927,129.683 10.5,122.5C 10.5,122.167 10.5,121.833 10.5,121.5C 15.6156,121.431 20.6156,122.098 25.5,123.5C 25.7373,122.209 25.404,121.209 24.5,120.5C 23.8333,119.167 22.8333,118.167 21.5,117.5C 19.9478,114.888 17.6145,113.555 14.5,113.5C 14.1667,113.5 13.8333,113.5 13.5,113.5C 10.3388,112.087 7.33883,110.42 4.5,108.5C 6.34803,104.146 7.0147,99.4797 6.5,94.5C 13.1765,95.0117 16.6765,98.6784 17,105.5C 21.2498,107.746 24.9165,110.746 28,114.5C 29.3694,119.437 28.2027,123.604 24.5,127C 24.8569,132.589 26.1902,138.089 28.5,143.5 Z"/></g>
<g><path style="opacity:1" fill="#b559c7" d="M 168.5,98.5 C 168.66,100.153 169.326,101.486 170.5,102.5C 170.779,107.327 170.113,111.993 168.5,116.5C 166.744,115.448 166.077,113.781 166.5,111.5C 166.833,107.5 167.167,103.5 167.5,99.5C 167.5,98.8333 167.833,98.5 168.5,98.5 Z"/></g>
<g><path style="opacity:1" fill="#7e527b" d="M 220.5,99.5 C 222.071,101.635 223.404,103.968 224.5,106.5C 224.198,109.373 223.531,112.039 222.5,114.5C 222.817,109.328 222.151,104.328 220.5,99.5 Z"/></g>
<g><path style="opacity:1" fill="#969cc4" d="M 14.5,113.5 C 17.6145,113.555 19.9478,114.888 21.5,117.5C 18.9959,116.416 16.6626,115.083 14.5,113.5 Z"/></g>
<g><path style="opacity:1" fill="#d5cad8" d="M 170.5,124.5 C 169.357,127.068 169.524,129.735 171,132.5C 172.661,136.492 174.827,140.158 177.5,143.5C 176.833,143.5 176.167,143.5 175.5,143.5C 172.262,141.935 169.595,139.602 167.5,136.5C 166.162,138.864 164.829,141.198 163.5,143.5C 163.167,143.5 162.833,143.5 162.5,143.5C 163.15,141.565 163.483,139.565 163.5,137.5C 165.328,134.865 166.495,131.865 167,128.5C 167.501,124.49 168.001,120.49 168.5,116.5C 170.113,111.993 170.779,107.327 170.5,102.5C 171.209,101.596 172.209,101.263 173.5,101.5C 173.871,109.437 172.871,117.104 170.5,124.5 Z"/></g>
<g><path style="opacity:1" fill="#89665e" d="M 224.5,99.5 C 227.303,107.212 226.803,114.879 223,122.5C 222.506,120.866 222.34,119.199 222.5,117.5C 222.5,116.5 222.5,115.5 222.5,114.5C 223.531,112.039 224.198,109.373 224.5,106.5C 225.103,104.374 225.103,102.041 224.5,99.5 Z"/></g>
<g><path style="opacity:1" fill="#472462" d="M -0.5,110.5 C 1.5273,110.338 3.5273,110.505 5.5,111C 6.78925,112.802 8.45592,113.969 10.5,114.5C 14.5998,115.429 18.0998,117.429 21,120.5C 22.3731,121.515 23.5398,121.515 24.5,120.5C 25.404,121.209 25.7373,122.209 25.5,123.5C 20.6156,122.098 15.6156,121.431 10.5,121.5C 8.08953,119.511 5.92286,117.178 4,114.5C 4.3594,117.112 4.8594,119.779 5.5,122.5C 3.31455,122.296 1.31455,121.63 -0.5,120.5C -0.5,117.167 -0.5,113.833 -0.5,110.5 Z"/></g>
<g><path style="opacity:1" fill="#2c1f44" d="M 144.5,108.5 C 144.833,108.5 145.167,108.5 145.5,108.5C 146.757,113.703 146.757,119.036 145.5,124.5C 145.665,127.518 145.498,130.518 145,133.5C 144.617,132.944 144.117,132.611 143.5,132.5C 142.585,130.246 141.252,128.246 139.5,126.5C 139.335,123.482 139.502,120.482 140,117.5C 142.047,114.834 143.547,111.834 144.5,108.5 Z"/></g>
<g><path style="opacity:1" fill="#272736" d="M 133.5,120.5 C 133.5,120.833 133.5,121.167 133.5,121.5C 130.876,112.207 125.542,104.874 117.5,99.5C 118.151,98.9094 118.818,98.2427 119.5,97.5C 120.976,99.5713 122.976,100.571 125.5,100.5C 125.231,102.429 125.731,104.095 127,105.5C 126.541,102.245 126.374,99.0782 126.5,96C 127.449,95.3828 128.282,95.5494 129,96.5C 129.305,101.142 130.305,105.809 132,110.5C 134.137,106.984 134.803,103.317 134,99.5C 135.356,100.38 136.856,100.714 138.5,100.5C 136.625,107.052 134.959,113.719 133.5,120.5 Z"/></g>
<g><path style="opacity:1" fill="#381f56" d="M 140.5,106.5 C 140.343,107.873 140.51,109.207 141,110.5C 142.113,109.695 143.279,109.028 144.5,108.5C 143.547,111.834 142.047,114.834 140,117.5C 139.502,120.482 139.335,123.482 139.5,126.5C 138.039,125.314 136.705,125.314 135.5,126.5C 134.833,126.833 134.167,127.167 133.5,127.5C 133.5,125.5 133.5,123.5 133.5,121.5C 133.5,121.167 133.5,120.833 133.5,120.5C 134.117,120.389 134.617,120.056 135,119.5C 135.283,122.742 136.117,123.076 137.5,120.5C 136.989,115.586 137.989,110.919 140.5,106.5 Z"/></g>
<g><path style="opacity:1" fill="#a250e1" d="M 10.5,114.5 C 11.209,113.596 12.209,113.263 13.5,113.5C 13.8333,113.5 14.1667,113.5 14.5,113.5C 16.6626,115.083 18.9959,116.416 21.5,117.5C 22.8333,118.167 23.8333,119.167 24.5,120.5C 23.5398,121.515 22.3731,121.515 21,120.5C 18.0998,117.429 14.5998,115.429 10.5,114.5 Z"/></g>
<g><path style="opacity:1" fill="#231828" d="M 167.5,99.5 C 167.167,103.5 166.833,107.5 166.5,111.5C 164.003,116.763 162.67,122.43 162.5,128.5C 161.209,133.394 159.876,138.394 158.5,143.5C 157.833,143.5 157.167,143.5 156.5,143.5C 158.779,134.997 160.112,126.331 160.5,117.5C 161.305,111.311 162.138,104.977 163,98.5C 163.333,100.5 163.667,102.5 164,104.5C 165.03,102.654 166.196,100.987 167.5,99.5 Z"/></g>
<g><path style="opacity:1" fill="#6158a1" d="M 10.5,121.5 C 10.5,121.833 10.5,122.167 10.5,122.5C 10.1667,122.5 9.83333,122.5 9.5,122.5C 8.16667,122.5 6.83333,122.5 5.5,122.5C 4.8594,119.779 4.3594,117.112 4,114.5C 5.92286,117.178 8.08953,119.511 10.5,121.5 Z"/></g>
<g><path style="opacity:1" fill="#553691" d="M 148.5,106.5 C 149.833,106.5 151.167,106.5 152.5,106.5C 152.833,110.5 153.167,110.5 153.5,106.5C 154.833,106.5 156.167,106.5 157.5,106.5C 159.098,108.857 160.098,111.523 160.5,114.5C 160.5,115.5 160.5,116.5 160.5,117.5C 160.112,126.331 158.779,134.997 156.5,143.5C 155.833,143.5 155.167,143.5 154.5,143.5C 154.942,141.028 155.275,138.528 155.5,136C 151.621,128.371 150.621,120.371 152.5,112C 150.899,111.727 149.399,111.227 148,110.5C 147.544,109.256 148.044,108.423 149.5,108C 148.944,107.617 148.611,107.117 148.5,106.5 Z"/></g>
<g><path style="opacity:1" fill="#532a28" d="M 70.5,124.5 C 70.5,125.167 70.5,125.833 70.5,126.5C 68.5,128.167 66.5,129.833 64.5,131.5C 61.1464,128.49 57.1464,126.49 52.5,125.5C 50.8333,125.833 49.8333,126.833 49.5,128.5C 51.3932,131.618 52.7265,134.952 53.5,138.5C 54.2298,139.934 55.2298,141.1 56.5,142C 55.944,142.383 55.6107,142.883 55.5,143.5C 49.1667,143.5 42.8333,143.5 36.5,143.5C 34.2208,138.071 32.2208,132.571 30.5,127C 30.595,123.145 32.2616,120.145 35.5,118C 43.4387,114.334 51.4387,114.001 59.5,117C 62.5002,120.5 66.1669,123 70.5,124.5 Z"/></g>
<g><path style="opacity:1" fill="#5b301b" d="M 207.5,104.5 C 209.129,105.625 210.629,106.959 212,108.5C 214.071,116.916 213.904,125.249 211.5,133.5C 211.324,136.727 210.657,139.727 209.5,142.5C 209.243,139.074 207.577,136.574 204.5,135C 204.833,134.667 205.167,134.333 205.5,134C 202.679,131.859 201.346,129.025 201.5,125.5C 201.389,124.883 201.056,124.383 200.5,124C 202.504,118.143 205.17,112.643 208.5,107.5C 207.873,106.583 207.539,105.583 207.5,104.5 Z"/></g>
<g><path style="opacity:1" fill="#27171e" d="M 83.5,110.5 C 85.6455,112.079 85.8122,114.079 84,116.5C 82.0628,120.435 79.3961,123.768 76,126.5C 74.7069,130.582 75.8735,133.749 79.5,136C 78.5494,136.718 78.3828,137.551 79,138.5C 80.7583,140.083 82.2583,141.75 83.5,143.5C 80.8333,143.5 78.1667,143.5 75.5,143.5C 73.4203,139.472 72.087,135.139 71.5,130.5C 72.6005,129.395 73.2671,128.062 73.5,126.5C 75.845,122.472 78.1783,118.472 80.5,114.5C 80.7376,112.596 81.7376,111.262 83.5,110.5 Z"/></g>
<g><path style="opacity:1" fill="#452708" d="M 201.5,125.5 C 201.346,129.025 202.679,131.859 205.5,134C 205.167,134.333 204.833,134.667 204.5,135C 207.577,136.574 209.243,139.074 209.5,142.5C 209.5,142.833 209.5,143.167 209.5,143.5C 198.833,143.5 188.167,143.5 177.5,143.5C 174.827,140.158 172.661,136.492 171,132.5C 169.524,129.735 169.357,127.068 170.5,124.5C 171.923,122.455 173.923,121.455 176.5,121.5C 173.677,114.946 174.51,109.613 179,105.5C 179.865,107.225 180.531,108.892 181,110.5C 182.333,109.167 183.667,109.167 185,110.5C 186.667,107.833 188.333,107.833 190,110.5C 191.212,114.427 192.212,118.427 193,122.5C 193.635,123.966 194.469,125.3 195.5,126.5C 195.023,127.931 194.357,129.264 193.5,130.5C 192.914,130.291 192.414,129.957 192,129.5C 192.045,133.253 193.545,136.419 196.5,139C 197.908,139.315 199.241,138.982 200.5,138C 196.746,133.556 197.08,129.389 201.5,125.5 Z"/></g>
<g><path style="opacity:1" fill="#3c436b" d="M -0.5,120.5 C 1.31455,121.63 3.31455,122.296 5.5,122.5C 6.83333,122.5 8.16667,122.5 9.5,122.5C 6.34428,123.434 3.01095,124.101 -0.5,124.5C -0.5,123.167 -0.5,121.833 -0.5,120.5 Z"/></g>
<g><path style="opacity:1" fill="#463d6a" d="M 80.5,114.5 C 78.1783,118.472 75.845,122.472 73.5,126.5C 72.5416,126.953 71.7083,127.619 71,128.5C 70.5357,127.906 70.369,127.239 70.5,126.5C 70.5,125.833 70.5,125.167 70.5,124.5C 72.8333,122.833 74.8333,120.833 76.5,118.5C 77.5,116.833 78.8333,115.5 80.5,114.5 Z"/></g>
<g><path style="opacity:1" fill="#331d2a" d="M 126.5,111.5 C 127.973,113.583 129.14,115.916 130,118.5C 130.743,120.441 130.576,122.274 129.5,124C 131.046,125.44 131.879,127.273 132,129.5C 132.717,128.956 133.217,128.289 133.5,127.5C 134.167,127.167 134.833,126.833 135.5,126.5C 137.479,127.812 139.145,129.479 140.5,131.5C 139.975,132.192 139.308,132.692 138.5,133C 140.659,134.059 142.326,135.559 143.5,137.5C 143.5,137.833 143.5,138.167 143.5,138.5C 142.033,141.258 141.367,140.925 141.5,137.5C 139.345,137.628 137.345,137.128 135.5,136C 130.067,132.292 124.734,128.459 119.5,124.5C 117.67,118.173 114.837,112.506 111,107.5C 116.005,108.668 120.672,110.668 125,113.5C 126.03,113.164 126.53,112.497 126.5,111.5 Z"/></g>
<g><path style="opacity:1" fill="#3d236e" d="M 148.5,106.5 C 148.611,107.117 148.944,107.617 149.5,108C 148.044,108.423 147.544,109.256 148,110.5C 149.399,111.227 150.899,111.727 152.5,112C 150.621,120.371 151.621,128.371 155.5,136C 155.275,138.528 154.942,141.028 154.5,143.5C 151.167,143.5 147.833,143.5 144.5,143.5C 144.262,139.901 145.262,139.567 147.5,142.5C 148.167,140.833 148.833,139.167 149.5,137.5C 150.281,138.729 150.781,140.062 151,141.5C 154.01,136.165 152.51,133.165 146.5,132.5C 146.806,129.615 146.473,126.948 145.5,124.5C 146.757,119.036 146.757,113.703 145.5,108.5C 145.973,107.094 146.973,106.427 148.5,106.5 Z"/></g>
<g><path style="opacity:1" fill="#794aa9" d="M 166.5,111.5 C 166.077,113.781 166.744,115.448 168.5,116.5C 168.001,120.49 167.501,124.49 167,128.5C 166.495,131.865 165.328,134.865 163.5,137.5C 163.037,134.518 162.704,131.518 162.5,128.5C 162.67,122.43 164.003,116.763 166.5,111.5 Z"/></g>
<g><path style="opacity:1" fill="#210c2f" d="M 106.5,143.5 C 106.167,143.5 105.833,143.5 105.5,143.5C 105.014,138.301 105.681,133.301 107.5,128.5C 107.137,127.817 106.804,127.15 106.5,126.5C 108.827,126.335 110.993,125.669 113,124.5C 114.067,125.191 115.234,125.691 116.5,126C 115.5,127 114.5,128 113.5,129C 114.951,128.737 116.284,128.904 117.5,129.5C 116.877,131.711 115.877,133.711 114.5,135.5C 115.887,139.074 114.554,140.741 110.5,140.5C 110.657,139.127 110.49,137.793 110,136.5C 108.093,138.456 106.926,140.79 106.5,143.5 Z"/></g>
<g><path style="opacity:1" fill="#654059" d="M 70.5,126.5 C 70.369,127.239 70.5357,127.906 71,128.5C 71.7083,127.619 72.5416,126.953 73.5,126.5C 73.2671,128.062 72.6005,129.395 71.5,130.5C 68.8714,131.96 66.3714,133.626 64,135.5C 63.5,135.333 63,135.167 62.5,135C 63.8228,134.184 64.4894,133.017 64.5,131.5C 66.5,129.833 68.5,128.167 70.5,126.5 Z"/></g>
<g><path style="opacity:1" fill="#5a5982" d="M 135.5,126.5 C 136.705,125.314 138.039,125.314 139.5,126.5C 141.252,128.246 142.585,130.246 143.5,132.5C 143.5,134.167 143.5,135.833 143.5,137.5C 142.326,135.559 140.659,134.059 138.5,133C 139.308,132.692 139.975,132.192 140.5,131.5C 139.145,129.479 137.479,127.812 135.5,126.5 Z"/></g>
<g><path style="opacity:1" fill="#6c3927" d="M 220.5,89.5 C 220.56,88.9569 220.893,88.6236 221.5,88.5C 227.1,90.4685 232.434,92.8018 237.5,95.5C 237.414,96.4959 237.748,97.3292 238.5,98C 237.039,100.421 235.706,102.921 234.5,105.5C 235,106.5 235.5,107.5 236,108.5C 239.348,111.86 242.348,115.527 245,119.5C 248.091,123.061 251.591,126.061 255.5,128.5C 255.5,133.5 255.5,138.5 255.5,143.5C 242.167,143.5 228.833,143.5 215.5,143.5C 217.228,138.485 219.061,133.485 221,128.5C 221.177,124.644 221.677,120.977 222.5,117.5C 222.34,119.199 222.506,120.866 223,122.5C 226.803,114.879 227.303,107.212 224.5,99.5C 223.342,96.0111 222.009,92.6777 220.5,89.5 Z"/></g>
<g><path style="opacity:1" fill="#643436" d="M 64.5,131.5 C 64.4894,133.017 63.8228,134.184 62.5,135C 63,135.167 63.5,135.333 64,135.5C 66.3714,133.626 68.8714,131.96 71.5,130.5C 72.087,135.139 73.4203,139.472 75.5,143.5C 68.8333,143.5 62.1667,143.5 55.5,143.5C 55.6107,142.883 55.944,142.383 56.5,142C 55.2298,141.1 54.2298,139.934 53.5,138.5C 52.7265,134.952 51.3932,131.618 49.5,128.5C 49.8333,126.833 50.8333,125.833 52.5,125.5C 57.1464,126.49 61.1464,128.49 64.5,131.5 Z"/></g>
<g><path style="opacity:1" fill="#100812" d="M 100.5,94.5 C 99.0343,97.5955 99.3676,100.595 101.5,103.5C 100.91,104.799 99.91,105.632 98.5,106C 98.8983,110.602 99.3983,115.435 100,120.5C 100.523,122.223 101.523,123.556 103,124.5C 103.765,124.43 104.265,124.097 104.5,123.5C 105.397,124.598 106.23,124.598 107,123.5C 107.47,124.577 107.303,125.577 106.5,126.5C 106.804,127.15 107.137,127.817 107.5,128.5C 105.681,133.301 105.014,138.301 105.5,143.5C 98.1667,143.5 90.8333,143.5 83.5,143.5C 82.2583,141.75 80.7583,140.083 79,138.5C 78.3828,137.551 78.5494,136.718 79.5,136C 75.8735,133.749 74.7069,130.582 76,126.5C 79.3961,123.768 82.0628,120.435 84,116.5C 85.8122,114.079 85.6455,112.079 83.5,110.5C 85.8872,108.087 88.0539,105.42 90,102.5C 94.0785,111.997 94.2452,121.497 90.5,131C 90.4235,133.756 91.7569,134.923 94.5,134.5C 95.1081,127.33 95.7748,120.163 96.5,113C 95.2243,106.064 93.5576,99.2307 91.5,92.5C 91.8627,91.8165 92.1961,91.1499 92.5,90.5C 92.2671,88.9382 91.6005,87.6049 90.5,86.5C 90.4614,85.2438 90.9614,84.2438 92,83.5C 93.6667,86.5 96,88.8333 99,90.5C 99.7914,91.745 100.291,93.0783 100.5,94.5 Z"/></g>
<g><path style="opacity:1" fill="#231229" d="M 119.5,124.5 C 124.734,128.459 130.067,132.292 135.5,136C 137.345,137.128 139.345,137.628 141.5,137.5C 141.367,140.925 142.033,141.258 143.5,138.5C 143.5,140.167 143.5,141.833 143.5,143.5C 131.167,143.5 118.833,143.5 106.5,143.5C 106.926,140.79 108.093,138.456 110,136.5C 110.49,137.793 110.657,139.127 110.5,140.5C 114.554,140.741 115.887,139.074 114.5,135.5C 115.877,133.711 116.877,131.711 117.5,129.5C 116.284,128.904 114.951,128.737 113.5,129C 114.5,128 115.5,127 116.5,126C 115.234,125.691 114.067,125.191 113,124.5C 110.993,125.669 108.827,126.335 106.5,126.5C 107.303,125.577 107.47,124.577 107,123.5C 106.23,124.598 105.397,124.598 104.5,123.5C 104.389,122.883 104.056,122.383 103.5,122C 105.049,120.786 106.215,119.286 107,117.5C 108.676,118.061 110.009,119.061 111,120.5C 111.333,119.833 111.667,119.167 112,118.5C 113.611,121.562 116.111,123.562 119.5,124.5 Z"/></g>
<g><path style="opacity:1" fill="#352058" d="M 145.5,124.5 C 146.473,126.948 146.806,129.615 146.5,132.5C 152.51,133.165 154.01,136.165 151,141.5C 150.781,140.062 150.281,138.729 149.5,137.5C 148.833,139.167 148.167,140.833 147.5,142.5C 145.262,139.567 144.262,139.901 144.5,143.5C 144.167,143.5 143.833,143.5 143.5,143.5C 143.5,141.833 143.5,140.167 143.5,138.5C 143.5,138.167 143.5,137.833 143.5,137.5C 143.5,135.833 143.5,134.167 143.5,132.5C 144.117,132.611 144.617,132.944 145,133.5C 145.498,130.518 145.665,127.518 145.5,124.5 Z"/></g>
<g><path style="opacity:1" fill="#633570" d="M -0.5,137.5 C 1.3264,139.147 2.65974,141.147 3.5,143.5C 2.16667,143.5 0.833333,143.5 -0.5,143.5C -0.5,141.5 -0.5,139.5 -0.5,137.5 Z"/></g>
<g><path style="opacity:1" fill="#9374b5" d="M -0.5,133.5 C 1.99975,136.494 3.99975,139.827 5.5,143.5C 4.83333,143.5 4.16667,143.5 3.5,143.5C 2.65974,141.147 1.3264,139.147 -0.5,137.5C -0.5,136.167 -0.5,134.833 -0.5,133.5 Z"/></g>
<g><path style="opacity:1" fill="#0f0513" d="M 9.5,122.5 C 9.83333,122.5 10.1667,122.5 10.5,122.5C 15.927,129.683 21.5936,136.683 27.5,143.5C 20.1667,143.5 12.8333,143.5 5.5,143.5C 3.99975,139.827 1.99975,136.494 -0.5,133.5C -0.5,130.5 -0.5,127.5 -0.5,124.5C 3.01095,124.101 6.34428,123.434 9.5,122.5 Z"/></g>
<g><path style="opacity:1" fill="#854489" d="M 211.5,133.5 C 212.011,136.963 213.011,140.296 214.5,143.5C 212.833,143.5 211.167,143.5 209.5,143.5C 209.5,143.167 209.5,142.833 209.5,142.5C 210.657,139.727 211.324,136.727 211.5,133.5 Z"/></g>
<g><path style="opacity:1" fill="#7e4281" d="M 162.5,128.5 C 162.704,131.518 163.037,134.518 163.5,137.5C 163.483,139.565 163.15,141.565 162.5,143.5C 161.167,143.5 159.833,143.5 158.5,143.5C 159.876,138.394 161.209,133.394 162.5,128.5 Z"/></g>
<g><path style="opacity:1" fill="#784d70" d="M 175.5,143.5 C 171.5,143.5 167.5,143.5 163.5,143.5C 164.829,141.198 166.162,138.864 167.5,136.5C 169.595,139.602 172.262,141.935 175.5,143.5 Z"/></g>
</svg>
