<?xml version="1.0" encoding="UTF-8"?>
<!DOCTYPE svg PUBLIC "-//W3C//DTD SVG 1.1//EN" "http://www.w3.org/Graphics/SVG/1.1/DTD/svg11.dtd">
<svg xmlns="http://www.w3.org/2000/svg" version="1.1" width="256px" height="144px" style="shape-rendering:geometricPrecision; text-rendering:geometricPrecision; image-rendering:optimizeQuality; fill-rule:evenodd; clip-rule:evenodd" xmlns:xlink="http://www.w3.org/1999/xlink">
<g><path style="opacity:1" fill="#50140c" d="M -0.5,-0.5 C 6.16667,-0.5 12.8333,-0.5 19.5,-0.5C 19.5,0.5 19.5,1.5 19.5,2.5C 19.448,4.90291 19.7814,7.23625 20.5,9.5C 13.8067,6.49318 6.80669,4.49318 -0.5,3.5C -0.5,2.16667 -0.5,0.833333 -0.5,-0.5 Z"/></g>
<g><path style="opacity:1" fill="#cfbdac" d="M 161.5,-0.5 C 164.833,-0.5 168.167,-0.5 171.5,-0.5C 171.833,0.166667 172.167,0.833333 172.5,1.5C 173.321,4.5535 173.321,7.5535 172.5,10.5C 168.479,7.14563 164.812,3.47896 161.5,-0.5 Z"/></g>
<g><path style="opacity:1" fill="#221a16" d="M 171.5,-0.5 C 177.167,-0.5 182.833,-0.5 188.5,-0.5C 187.4,0.60486 186.733,1.93819 186.5,3.5C 185.275,4.93698 184.275,6.60365 183.5,8.5C 185.038,10.2433 186.038,12.2433 186.5,14.5C 184.833,13.1667 183.167,11.8333 181.5,10.5C 180.581,7.91083 178.914,5.91083 176.5,4.5C 175.455,3.12236 174.122,2.12236 172.5,1.5C 172.167,0.833333 171.833,0.166667 171.5,-0.5 Z"/></g>
<g><path style="opacity:1" fill="#b1a188" d="M 188.5,-0.5 C 191.5,-0.5 194.5,-0.5 197.5,-0.5C 196.118,3.15126 194.451,6.65126 192.5,10C 190.888,10.7203 189.388,10.5536 188,9.5C 187.495,7.48174 186.995,5.48174 186.5,3.5C 186.733,1.93819 187.4,0.60486 188.5,-0.5 Z"/></g>
<g><path style="opacity:1" fill="#322b27" d="M 22.5,-0.5 C 24.8333,-0.5 27.1667,-0.5 29.5,-0.5C 30.5981,0.396953 30.5981,1.23029 29.5,2C 30.8544,3.29369 32.1877,3.46036 33.5,2.5C 34.3857,3.32496 34.719,4.32496 34.5,5.5C 40.2102,5.52901 45.8769,5.02901 51.5,4C 52.8333,3.33333 52.8333,2.66667 51.5,2C 49.1667,1.66667 46.8333,1.33333 44.5,1C 45.056,0.617425 45.3893,0.117425 45.5,-0.5C 63.1667,-0.5 80.8333,-0.5 98.5,-0.5C 97.7659,0.707917 97.4326,2.04125 97.5,3.5C 96.5,3.83333 95.8333,4.5 95.5,5.5C 92.769,6.37391 90.6024,5.37391 89,2.5C 88.1097,6.13306 88.943,9.29973 91.5,12C 89.08,11.6284 87.08,10.2951 85.5,8C 83.4636,7.54643 81.6303,6.7131 80,5.5C 79.5,5.83333 79,6.16667 78.5,6.5C 81.0048,8.2533 83.6714,9.7533 86.5,11C 85.062,11.2189 83.7287,11.7189 82.5,12.5C 84.1878,14.8545 86.1878,16.8545 88.5,18.5C 88.5,19.1667 88.1667,19.5 87.5,19.5C 80.7695,19.7736 74.1028,19.2736 67.5,18C 69.1161,17.3848 70.4495,16.3848 71.5,15C 67.077,14.7988 62.7437,15.2988 58.5,16.5C 50.4126,12.4575 42.0792,8.95751 33.5,6C 29.4078,4.27799 25.7412,2.11132 22.5,-0.5 Z"/></g>
<g><path style="opacity:1" fill="#42372d" d="M 29.5,-0.5 C 34.8333,-0.5 40.1667,-0.5 45.5,-0.5C 45.3893,0.117425 45.056,0.617425 44.5,1C 46.8333,1.33333 49.1667,1.66667 51.5,2C 52.8333,2.66667 52.8333,3.33333 51.5,4C 45.8769,5.02901 40.2102,5.52901 34.5,5.5C 34.719,4.32496 34.3857,3.32496 33.5,2.5C 32.1877,3.46036 30.8544,3.29369 29.5,2C 30.5981,1.23029 30.5981,0.396953 29.5,-0.5 Z"/></g>
<g><path style="opacity:1" fill="#6e1911" d="M 98.5,-0.5 C 101.833,-0.5 105.167,-0.5 108.5,-0.5C 108.5,-0.166667 108.5,0.166667 108.5,0.5C 107.167,0.5 105.833,0.5 104.5,0.5C 105.131,4.69144 103.465,6.52477 99.5,6C 98.244,5.58309 97.5774,4.74975 97.5,3.5C 97.4326,2.04125 97.7659,0.707917 98.5,-0.5 Z"/></g>
<g><path style="opacity:1" fill="#932921" d="M 114.5,2.5 C 117.5,2.5 120.5,2.5 123.5,2.5C 123.5,2.83333 123.5,3.16667 123.5,3.5C 119.766,3.32274 116.099,3.65608 112.5,4.5C 112.833,3.5 113.5,2.83333 114.5,2.5 Z"/></g>
<g><path style="opacity:1" fill="#9c8577" d="M 153.5,-0.5 C 156.167,-0.5 158.833,-0.5 161.5,-0.5C 164.812,3.47896 168.479,7.14563 172.5,10.5C 173.321,7.5535 173.321,4.5535 172.5,1.5C 174.122,2.12236 175.455,3.12236 176.5,4.5C 175.503,4.47008 174.836,4.97008 174.5,6C 175.273,9.26719 176.273,12.4339 177.5,15.5C 176.833,15.5 176.167,15.5 175.5,15.5C 170.763,11.9465 166.096,8.11319 161.5,4C 158.367,3.14041 155.7,1.64041 153.5,-0.5 Z"/></g>
<g><path style="opacity:1" fill="#946559" d="M 199.5,-0.5 C 205.5,-0.5 211.5,-0.5 217.5,-0.5C 214.886,3.45077 211.886,7.11743 208.5,10.5C 205.362,9.31868 202.362,9.31868 199.5,10.5C 199.167,10.5 198.833,10.5 198.5,10.5C 197.903,10.2648 197.57,9.7648 197.5,9C 198.62,7.26258 199.62,5.42925 200.5,3.5C 199.754,2.26381 199.421,0.930472 199.5,-0.5 Z"/></g>
<g><path style="opacity:1" fill="#4e0f10" d="M 108.5,0.5 C 107.551,2.77725 106.218,4.77725 104.5,6.5C 101.838,8.26808 98.8375,8.93475 95.5,8.5C 95.5,7.5 95.5,6.5 95.5,5.5C 95.8333,4.5 96.5,3.83333 97.5,3.5C 97.5774,4.74975 98.244,5.58309 99.5,6C 103.465,6.52477 105.131,4.69144 104.5,0.5C 105.833,0.5 107.167,0.5 108.5,0.5 Z"/></g>
<g><path style="opacity:1" fill="#3b0d06" d="M 19.5,2.5 C 24.4626,3.98582 29.1293,5.98582 33.5,8.5C 29.8129,8.49204 27.4796,10.1587 26.5,13.5C 26.1667,13.5 25.8333,13.5 25.5,13.5C 24.791,12.596 23.791,12.2627 22.5,12.5C 22.2178,11.2223 21.5511,10.2223 20.5,9.5C 19.7814,7.23625 19.448,4.90291 19.5,2.5 Z"/></g>
<g><path style="opacity:1" fill="#c21100" d="M 125.5,4.5 C 128.271,4.42074 130.937,4.92074 133.5,6C 137.906,9.8506 142.239,13.6839 146.5,17.5C 142.212,20.4936 137.545,21.1602 132.5,19.5C 129.55,18.6916 126.883,17.3582 124.5,15.5C 124.335,13.1732 123.669,11.0065 122.5,9C 123.053,7.12219 124.053,5.62219 125.5,4.5 Z"/></g>
<g><path style="opacity:1" fill="#ed5340" d="M 176.5,4.5 C 178.914,5.91083 180.581,7.91083 181.5,10.5C 182.953,13.2976 183.953,16.2976 184.5,19.5C 184.53,20.4972 184.03,21.1639 183,21.5C 181.233,20.66 179.899,19.3266 179,17.5C 178.536,18.0944 178.369,18.7611 178.5,19.5C 177.566,18.4324 177.232,17.099 177.5,15.5C 176.273,12.4339 175.273,9.26719 174.5,6C 174.836,4.97008 175.503,4.47008 176.5,4.5 Z"/></g>
<g><path style="opacity:1" fill="#70453b" d="M 217.5,-0.5 C 222.5,-0.5 227.5,-0.5 232.5,-0.5C 227.658,5.21536 223.658,10.882 220.5,16.5C 216.207,14.8208 212.207,12.8208 208.5,10.5C 211.886,7.11743 214.886,3.45077 217.5,-0.5 Z"/></g>
<g><path style="opacity:1" fill="#502c24" d="M 232.5,-0.5 C 237.833,-0.5 243.167,-0.5 248.5,-0.5C 243.02,7.95471 236.686,16.288 229.5,24.5C 227.146,21.1485 224.146,18.4819 220.5,16.5C 223.658,10.882 227.658,5.21536 232.5,-0.5 Z"/></g>
<g><path style="opacity:1" fill="#e7cebf" d="M 199.5,10.5 C 202.362,9.31868 205.362,9.31868 208.5,10.5C 212.207,12.8208 216.207,14.8208 220.5,16.5C 219.666,17.7479 218.333,18.4146 216.5,18.5C 214.142,18.2471 211.808,17.9138 209.5,17.5C 206.048,17.5517 203.881,15.885 203,12.5C 201.887,11.695 200.721,11.0283 199.5,10.5 Z"/></g>
<g><path style="opacity:1" fill="#eed7c8" d="M -0.5,3.5 C 6.80669,4.49318 13.8067,6.49318 20.5,9.5C 21.5511,10.2223 22.2178,11.2223 22.5,12.5C 15.727,13.8472 9.06036,14.5138 2.5,14.5C 1.5,14.5 0.5,14.5 -0.5,14.5C -0.5,10.8333 -0.5,7.16667 -0.5,3.5 Z"/></g>
<g><path style="opacity:1" fill="#520b04" d="M 33.5,8.5 C 34.8333,8.83333 36.1667,9.16667 37.5,9.5C 37.5,14.8333 37.5,20.1667 37.5,25.5C 36.6862,23.369 36.1862,21.0356 36,18.5C 32.9023,16.8607 29.7356,15.5274 26.5,14.5C 26.5,14.1667 26.5,13.8333 26.5,13.5C 27.4796,10.1587 29.8129,8.49204 33.5,8.5 Z"/></g>
<g><path style="opacity:1" fill="#543d2a" d="M 113.5,-0.5 C 126.833,-0.5 140.167,-0.5 153.5,-0.5C 155.7,1.64041 158.367,3.14041 161.5,4C 166.096,8.11319 170.763,11.9465 175.5,15.5C 170.87,14.7705 166.203,14.4372 161.5,14.5C 158.753,14.8134 156.086,14.48 153.5,13.5C 154.668,11.7826 156.335,11.1159 158.5,11.5C 158.67,10.1779 158.337,9.01127 157.5,8C 155.479,7.85983 153.645,7.69317 152,7.5C 151.51,6.20677 151.343,4.87344 151.5,3.5C 147.224,2.19218 142.891,1.19218 138.5,0.5C 138.5,1.5 138.5,2.5 138.5,3.5C 135.356,3.04441 132.356,2.04441 129.5,0.5C 127.675,1.65112 125.675,2.31779 123.5,2.5C 120.5,2.5 117.5,2.5 114.5,2.5C 114.443,1.39105 114.11,0.391047 113.5,-0.5 Z"/></g>
<g><path style="opacity:1" fill="#a81508" d="M 123.5,3.5 C 124.492,3.32842 125.158,3.66175 125.5,4.5C 124.053,5.62219 123.053,7.12219 122.5,9C 123.669,11.0065 124.335,13.1732 124.5,15.5C 117.162,15.4949 115.829,12.8282 120.5,7.5C 121.043,7.44001 121.376,7.10667 121.5,6.5C 118.358,5.83262 115.358,5.16596 112.5,4.5C 116.099,3.65608 119.766,3.32274 123.5,3.5 Z"/></g>
<g><path style="opacity:1" fill="#2e1712" d="M 255.5,1.5 C 255.5,15.1667 255.5,28.8333 255.5,42.5C 252.694,38.8627 249.361,35.6961 245.5,33C 243.975,31.9914 242.308,31.4914 240.5,31.5C 238.78,30.6923 237.113,29.6923 235.5,28.5C 241.742,19.8187 248.409,10.8187 255.5,1.5 Z"/></g>
<g><path style="opacity:1" fill="#3b2e28" d="M 108.5,-0.5 C 110.167,-0.5 111.833,-0.5 113.5,-0.5C 114.11,0.391047 114.443,1.39105 114.5,2.5C 113.5,2.83333 112.833,3.5 112.5,4.5C 115.358,5.16596 118.358,5.83262 121.5,6.5C 121.376,7.10667 121.043,7.44001 120.5,7.5C 119.432,6.56552 118.099,6.23219 116.5,6.5C 116.5,8.16667 116.5,9.83333 116.5,11.5C 115.761,11.369 115.094,11.5357 114.5,12C 111.604,15.2277 109.104,18.7277 107,22.5C 105.871,24.1412 104.371,25.1412 102.5,25.5C 103.11,24.609 103.443,23.609 103.5,22.5C 104.937,18.8879 106.437,15.2212 108,11.5C 108.75,10.8742 109.584,10.3742 110.5,10C 109.167,9 109.167,8 110.5,7C 109.668,6.31232 109.002,6.47899 108.5,7.5C 105.218,11.7566 102.885,16.4232 101.5,21.5C 100.833,21.5 100.5,21.8333 100.5,22.5C 99.5,22.5 98.5,22.5 97.5,22.5C 97.5,20.1667 97.5,17.8333 97.5,15.5C 101.468,13.9529 103.801,10.9529 104.5,6.5C 106.218,4.77725 107.551,2.77725 108.5,0.5C 108.5,0.166667 108.5,-0.166667 108.5,-0.5 Z"/></g>
<g><path style="opacity:1" fill="#15100d" d="M 103.5,22.5 C 102.508,22.6716 101.842,22.3382 101.5,21.5C 102.885,16.4232 105.218,11.7566 108.5,7.5C 109.002,6.47899 109.668,6.31232 110.5,7C 109.167,8 109.167,9 110.5,10C 109.584,10.3742 108.75,10.8742 108,11.5C 106.437,15.2212 104.937,18.8879 103.5,22.5 Z"/></g>
<g><path style="opacity:1" fill="#3d2019" d="M 248.5,-0.5 C 250.833,-0.5 253.167,-0.5 255.5,-0.5C 255.5,0.166667 255.5,0.833333 255.5,1.5C 248.409,10.8187 241.742,19.8187 235.5,28.5C 233.118,27.6493 231.118,26.316 229.5,24.5C 236.686,16.288 243.02,7.95471 248.5,-0.5 Z"/></g>
<g><path style="opacity:1" fill="#dbb89f" d="M 22.5,12.5 C 23.791,12.2627 24.791,12.596 25.5,13.5C 25.762,14.9778 25.4287,16.3112 24.5,17.5C 17.0267,16.614 9.69338,15.614 2.5,14.5C 9.06036,14.5138 15.727,13.8472 22.5,12.5 Z"/></g>
<g><path style="opacity:1" fill="#26201a" d="M 87.5,19.5 C 87.4431,20.609 87.1098,21.609 86.5,22.5C 85.1851,23.4756 83.8518,24.4756 82.5,25.5C 80.8849,24.846 79.2182,24.346 77.5,24C 76.1667,23 76.1667,22 77.5,21C 72.1851,20.1872 66.8517,19.5206 61.5,19C 60.0577,18.6232 59.0577,17.7899 58.5,16.5C 62.7437,15.2988 67.077,14.7988 71.5,15C 70.4495,16.3848 69.1161,17.3848 67.5,18C 74.1028,19.2736 80.7695,19.7736 87.5,19.5 Z"/></g>
<g><path style="opacity:1" fill="#553619" d="M 161.5,14.5 C 163.122,16.9332 164.789,19.4332 166.5,22C 164.567,22.2511 162.734,22.7511 161,23.5C 160.812,25.0613 161.645,25.728 163.5,25.5C 162.752,27.5841 162.752,29.5841 163.5,31.5C 161.977,31.7928 160.643,31.7928 159.5,31.5C 155.945,27.4157 152.611,23.0824 149.5,18.5C 148.675,17.6143 147.675,17.281 146.5,17.5C 142.239,13.6839 137.906,9.8506 133.5,6C 130.937,4.92074 128.271,4.42074 125.5,4.5C 125.158,3.66175 124.492,3.32842 123.5,3.5C 123.5,3.16667 123.5,2.83333 123.5,2.5C 125.675,2.31779 127.675,1.65112 129.5,0.5C 132.356,2.04441 135.356,3.04441 138.5,3.5C 138.5,2.5 138.5,1.5 138.5,0.5C 142.891,1.19218 147.224,2.19218 151.5,3.5C 151.343,4.87344 151.51,6.20677 152,7.5C 153.645,7.69317 155.479,7.85983 157.5,8C 158.337,9.01127 158.67,10.1779 158.5,11.5C 156.335,11.1159 154.668,11.7826 153.5,13.5C 156.086,14.48 158.753,14.8134 161.5,14.5 Z"/></g>
<g><path style="opacity:1" fill="#362a24" d="M 197.5,-0.5 C 198.167,-0.5 198.833,-0.5 199.5,-0.5C 199.421,0.930472 199.754,2.26381 200.5,3.5C 199.62,5.42925 198.62,7.26258 197.5,9C 197.57,9.7648 197.903,10.2648 198.5,10.5C 200.758,13.3566 202.758,16.3566 204.5,19.5C 203.07,19.5792 201.736,19.2458 200.5,18.5C 199.466,16.4545 198.466,15.1212 197.5,14.5C 196.042,12.1451 194.708,12.4785 193.5,15.5C 192.407,17.3492 191.074,19.0158 189.5,20.5C 188.471,18.4832 187.471,16.4832 186.5,14.5C 186.038,12.2433 185.038,10.2433 183.5,8.5C 184.275,6.60365 185.275,4.93698 186.5,3.5C 186.995,5.48174 187.495,7.48174 188,9.5C 189.388,10.5536 190.888,10.7203 192.5,10C 194.451,6.65126 196.118,3.15126 197.5,-0.5 Z"/></g>
<g><path style="opacity:1" fill="#90362e" d="M 198.5,10.5 C 198.833,10.5 199.167,10.5 199.5,10.5C 200.721,11.0283 201.887,11.695 203,12.5C 203.881,15.885 206.048,17.5517 209.5,17.5C 209.557,18.609 209.89,19.609 210.5,20.5C 210.5,20.8333 210.5,21.1667 210.5,21.5C 208.629,21.1412 207.129,20.1412 206,18.5C 205.517,19.448 205.351,20.448 205.5,21.5C 204.662,21.1583 204.328,20.4916 204.5,19.5C 202.758,16.3566 200.758,13.3566 198.5,10.5 Z"/></g>
<g><path style="opacity:1" fill="#2c100d" d="M 37.5,9.5 C 41.0317,9.75174 43.0317,11.5851 43.5,15C 45.0894,22.972 44.7561,30.8054 42.5,38.5C 41.1667,38.5 39.8333,38.5 38.5,38.5C 38.8182,33.9677 38.4849,29.6344 37.5,25.5C 37.5,20.1667 37.5,14.8333 37.5,9.5 Z"/></g>
<g><path style="opacity:1" fill="#29180e" d="M 120.5,7.5 C 115.829,12.8282 117.162,15.4949 124.5,15.5C 126.883,17.3582 129.55,18.6916 132.5,19.5C 132.833,20.1667 133.167,20.8333 133.5,21.5C 133.167,22.1667 132.833,22.8333 132.5,23.5C 130.609,24.5361 128.776,24.5361 127,23.5C 126.5,24 126,24.5 125.5,25C 128.125,27.7445 130.125,30.9111 131.5,34.5C 130.726,35.7112 129.893,35.7112 129,34.5C 128.517,35.448 128.351,36.448 128.5,37.5C 126.932,36.5269 125.265,36.3603 123.5,37C 122.837,38.5185 121.837,39.6851 120.5,40.5C 119.374,39.1417 119.374,37.8084 120.5,36.5C 123.1,34.7166 125.434,32.7166 127.5,30.5C 126.865,29.0337 126.031,27.7003 125,26.5C 123.506,27.7472 122.006,27.7472 120.5,26.5C 121.982,24.5171 123.649,22.6837 125.5,21C 122.762,20.0173 120.095,18.8506 117.5,17.5C 116.264,18.2458 114.93,18.5792 113.5,18.5C 113.627,21.245 112.46,23.245 110,24.5C 111.58,20.0071 113.746,15.6738 116.5,11.5C 116.5,9.83333 116.5,8.16667 116.5,6.5C 118.099,6.23219 119.432,6.56552 120.5,7.5 Z"/></g>
<g><path style="opacity:1" fill="#cd9b6f" d="M 25.5,13.5 C 25.8333,13.5 26.1667,13.5 26.5,13.5C 26.5,13.8333 26.5,14.1667 26.5,14.5C 25.2475,21.8536 25.2475,29.1869 26.5,36.5C 23.9327,36.2785 21.5994,35.6118 19.5,34.5C 20.5077,32.6614 22.0077,31.3281 24,30.5C 24.7494,29.365 24.5827,28.365 23.5,27.5C 20.5877,30.2096 17.921,30.0429 15.5,27C 14.5,26.3333 13.5,26.3333 12.5,27C 14.2134,28.3782 15.5467,30.0448 16.5,32C 15.1971,32.2098 13.8638,32.0431 12.5,31.5C 11.2867,31.7472 10.62,32.4138 10.5,33.5C 6.89871,32.651 3.23205,31.9843 -0.5,31.5C -0.5,25.8333 -0.5,20.1667 -0.5,14.5C 0.5,14.5 1.5,14.5 2.5,14.5C 9.69338,15.614 17.0267,16.614 24.5,17.5C 25.4287,16.3112 25.762,14.9778 25.5,13.5 Z"/></g>
<g><path style="opacity:1" fill="#c8a183" d="M 220.5,16.5 C 224.146,18.4819 227.146,21.1485 229.5,24.5C 231.118,26.316 233.118,27.6493 235.5,28.5C 237.113,29.6923 238.78,30.6923 240.5,31.5C 239.637,32.9403 239.637,34.2736 240.5,35.5C 239.757,36.1818 239.091,36.8485 238.5,37.5C 236.05,37.298 233.717,37.6314 231.5,38.5C 231.664,35.8127 231.497,33.146 231,30.5C 227.719,27.4302 224.553,24.2635 221.5,21C 217.848,20.5014 214.182,20.3347 210.5,20.5C 209.89,19.609 209.557,18.609 209.5,17.5C 211.808,17.9138 214.142,18.2471 216.5,18.5C 218.333,18.4146 219.666,17.7479 220.5,16.5 Z"/></g>
<g><path style="opacity:1" fill="#4d0706" d="M 91.5,31.5 C 89.8007,31.4729 88.4674,30.8062 87.5,29.5C 87.0074,27.1944 86.6741,24.861 86.5,22.5C 87.1098,21.609 87.4431,20.609 87.5,19.5C 88.1667,19.5 88.5,19.1667 88.5,18.5C 94.135,10.9973 96.635,11.9973 96,21.5C 95.1575,25.2207 93.6575,28.554 91.5,31.5 Z"/></g>
<g><path style="opacity:1" fill="#160904" d="M 19.5,-0.5 C 20.5,-0.5 21.5,-0.5 22.5,-0.5C 25.7412,2.11132 29.4078,4.27799 33.5,6C 42.0792,8.95751 50.4126,12.4575 58.5,16.5C 59.0577,17.7899 60.0577,18.6232 61.5,19C 66.8517,19.5206 72.1851,20.1872 77.5,21C 76.1667,22 76.1667,23 77.5,24C 79.2182,24.346 80.8849,24.846 82.5,25.5C 83.8518,24.4756 85.1851,23.4756 86.5,22.5C 86.6741,24.861 87.0074,27.1944 87.5,29.5C 86.0695,29.4208 84.7362,29.7542 83.5,30.5C 78.8818,26.5241 73.5485,24.1908 67.5,23.5C 67.5,24.8333 67.5,26.1667 67.5,27.5C 68.5,27.5 69.5,27.5 70.5,27.5C 69.906,32.2747 68.906,36.9414 67.5,41.5C 65.139,41.3259 62.8056,40.9926 60.5,40.5C 60.7828,39.7109 61.2828,39.0442 62,38.5C 62.313,33.0182 62.9797,27.6849 64,22.5C 62.7581,21.1279 61.2581,20.1279 59.5,19.5C 58.0633,22.0409 56.8966,24.7076 56,27.5C 57.1147,19.5778 53.948,14.5778 46.5,12.5C 45.502,21.1411 45.1686,29.8078 45.5,38.5C 44.5,38.5 43.5,38.5 42.5,38.5C 44.7561,30.8054 45.0894,22.972 43.5,15C 43.0317,11.5851 41.0317,9.75174 37.5,9.5C 36.1667,9.16667 34.8333,8.83333 33.5,8.5C 29.1293,5.98582 24.4626,3.98582 19.5,2.5C 19.5,1.5 19.5,0.5 19.5,-0.5 Z"/></g>
<g><path style="opacity:1" fill="#46250c" d="M 161.5,14.5 C 166.203,14.4372 170.87,14.7705 175.5,15.5C 176.167,15.5 176.833,15.5 177.5,15.5C 177.232,17.099 177.566,18.4324 178.5,19.5C 179.138,26.6767 179.138,33.6767 178.5,40.5C 178.262,38.5956 177.262,37.2623 175.5,36.5C 173.814,34.9835 171.981,33.6502 170,32.5C 167.722,34.9729 165.222,37.3062 162.5,39.5C 161.824,38.3984 161.158,37.3984 160.5,36.5C 160.371,34.7839 160.038,33.1172 159.5,31.5C 160.643,31.7928 161.977,31.7928 163.5,31.5C 162.752,29.5841 162.752,27.5841 163.5,25.5C 161.645,25.728 160.812,25.0613 161,23.5C 162.734,22.7511 164.567,22.2511 166.5,22C 164.789,19.4332 163.122,16.9332 161.5,14.5 Z"/></g>
<g><path style="opacity:1" fill="#b7a093" d="M 181.5,10.5 C 183.167,11.8333 184.833,13.1667 186.5,14.5C 187.471,16.4832 188.471,18.4832 189.5,20.5C 189.557,21.609 189.89,22.609 190.5,23.5C 190.647,26.7916 191.647,29.7916 193.5,32.5C 193.567,33.9587 193.234,35.2921 192.5,36.5C 190.225,35.8888 188.559,34.5554 187.5,32.5C 187.802,29.9407 187.468,27.6074 186.5,25.5C 186.741,23.1016 186.074,21.1016 184.5,19.5C 183.953,16.2976 182.953,13.2976 181.5,10.5 Z"/></g>
<g><path style="opacity:1" fill="#190f0c" d="M 95.5,5.5 C 95.5,6.5 95.5,7.5 95.5,8.5C 98.8375,8.93475 101.838,8.26808 104.5,6.5C 103.801,10.9529 101.468,13.9529 97.5,15.5C 97.5,17.8333 97.5,20.1667 97.5,22.5C 98.5,22.5 99.5,22.5 100.5,22.5C 100.975,25.0821 100.308,27.0821 98.5,28.5C 97.4964,31.0452 97.163,34.3786 97.5,38.5C 96.596,37.791 96.2627,36.791 96.5,35.5C 93.6,35.5922 91.9333,34.2589 91.5,31.5C 93.6575,28.554 95.1575,25.2207 96,21.5C 96.635,11.9973 94.135,10.9973 88.5,18.5C 86.1878,16.8545 84.1878,14.8545 82.5,12.5C 83.7287,11.7189 85.062,11.2189 86.5,11C 83.6714,9.7533 81.0048,8.2533 78.5,6.5C 79,6.16667 79.5,5.83333 80,5.5C 81.6303,6.7131 83.4636,7.54643 85.5,8C 87.08,10.2951 89.08,11.6284 91.5,12C 88.943,9.29973 88.1097,6.13306 89,2.5C 90.6024,5.37391 92.769,6.37391 95.5,5.5 Z"/></g>
<g><path style="opacity:1" fill="#a06556" d="M 190.5,23.5 C 192.592,26.0884 193.925,29.0884 194.5,32.5C 194.167,32.5 193.833,32.5 193.5,32.5C 191.647,29.7916 190.647,26.7916 190.5,23.5 Z"/></g>
<g><path style="opacity:1" fill="#300d0b" d="M 204.5,19.5 C 204.328,20.4916 204.662,21.1583 205.5,21.5C 206.165,28.4803 206.498,35.4803 206.5,42.5C 205.833,42.5 205.167,42.5 204.5,42.5C 203.167,42.5 201.833,42.5 200.5,42.5C 200.756,38.1382 200.923,33.8049 201,29.5C 200.722,30.4158 200.222,31.0825 199.5,31.5C 199.688,25.7119 199.022,20.0452 197.5,14.5C 198.466,15.1212 199.466,16.4545 200.5,18.5C 201.736,19.2458 203.07,19.5792 204.5,19.5 Z"/></g>
<g><path style="opacity:1" fill="#992114" d="M 26.5,14.5 C 29.7356,15.5274 32.9023,16.8607 36,18.5C 36.1862,21.0356 36.6862,23.369 37.5,25.5C 37.6633,27.8568 37.4966,30.1902 37,32.5C 35.9887,33.3366 34.8221,33.67 33.5,33.5C 33.5,34.8333 33.5,36.1667 33.5,37.5C 31.0504,37.702 28.717,37.3686 26.5,36.5C 25.2475,29.1869 25.2475,21.8536 26.5,14.5 Z"/></g>
<g><path style="opacity:1" fill="#7b2e2a" d="M 101.5,21.5 C 101.842,22.3382 102.508,22.6716 103.5,22.5C 103.443,23.609 103.11,24.609 102.5,25.5C 101.377,27.9787 101.377,30.312 102.5,32.5C 102.5,33.5 102.5,34.5 102.5,35.5C 100.917,33.3374 99.5839,31.0041 98.5,28.5C 100.308,27.0821 100.975,25.0821 100.5,22.5C 100.5,21.8333 100.833,21.5 101.5,21.5 Z"/></g>
<g><path style="opacity:1" fill="#5c0801" d="M 197.5,14.5 C 199.022,20.0452 199.688,25.7119 199.5,31.5C 199.663,33.8568 199.497,36.1902 199,38.5C 198.667,38.1667 198.333,37.8333 198,37.5C 197.212,33.0272 195.878,28.6938 194,24.5C 193.502,21.5184 193.335,18.5184 193.5,15.5C 194.708,12.4785 196.042,12.1451 197.5,14.5 Z"/></g>
<g><path style="opacity:1" fill="#3d0905" d="M 60.5,40.5 C 60.1667,40.5 59.8333,40.5 59.5,40.5C 54.7632,40.049 50.0965,39.3823 45.5,38.5C 45.1686,29.8078 45.502,21.1411 46.5,12.5C 53.948,14.5778 57.1147,19.5778 56,27.5C 56.8966,24.7076 58.0633,22.0409 59.5,19.5C 61.2581,20.1279 62.7581,21.1279 64,22.5C 62.9797,27.6849 62.313,33.0182 62,38.5C 61.2828,39.0442 60.7828,39.7109 60.5,40.5 Z"/></g>
<g><path style="opacity:1" fill="#e6b88d" d="M 19.5,34.5 C 16.5448,33.8413 13.5448,33.5079 10.5,33.5C 10.62,32.4138 11.2867,31.7472 12.5,31.5C 13.8638,32.0431 15.1971,32.2098 16.5,32C 15.5467,30.0448 14.2134,28.3782 12.5,27C 13.5,26.3333 14.5,26.3333 15.5,27C 17.921,30.0429 20.5877,30.2096 23.5,27.5C 24.5827,28.365 24.7494,29.365 24,30.5C 22.0077,31.3281 20.5077,32.6614 19.5,34.5 Z"/></g>
<g><path style="opacity:1" fill="#d8312a" d="M 146.5,17.5 C 147.675,17.281 148.675,17.6143 149.5,18.5C 152.611,23.0824 155.945,27.4157 159.5,31.5C 160.038,33.1172 160.371,34.7839 160.5,36.5C 160.5,37.5 160.5,38.5 160.5,39.5C 157.996,40.6392 155.33,41.3059 152.5,41.5C 151.167,40.1667 149.833,38.8333 148.5,37.5C 145.914,34.2797 143.414,30.9464 141,27.5C 138.894,24.8823 136.394,22.8823 133.5,21.5C 133.167,20.8333 132.833,20.1667 132.5,19.5C 137.545,21.1602 142.212,20.4936 146.5,17.5 Z"/></g>
<g><path style="opacity:1" fill="#53382b" d="M 133.5,21.5 C 136.394,22.8823 138.894,24.8823 141,27.5C 143.414,30.9464 145.914,34.2797 148.5,37.5C 148.5,38.5 148.5,39.5 148.5,40.5C 148.179,42.0481 147.179,42.7148 145.5,42.5C 143.799,39.7564 142.466,36.7564 141.5,33.5C 139.856,33.7135 138.356,33.3802 137,32.5C 136.64,30.3921 135.973,28.3921 135,26.5C 133.989,27.3366 132.822,27.67 131.5,27.5C 131.433,26.0413 131.766,24.7079 132.5,23.5C 132.833,22.8333 133.167,22.1667 133.5,21.5 Z"/></g>
<g><path style="opacity:1" fill="#60130f" d="M 52.5,22.5 C 53.6408,25.6399 53.8075,28.9733 53,32.5C 51.9887,33.3366 50.8221,33.67 49.5,33.5C 49.762,34.9778 49.4287,36.3112 48.5,37.5C 46.8058,34.3355 46.3058,31.0022 47,27.5C 48.0495,28.5171 49.2161,28.6838 50.5,28C 51.464,26.2745 52.1307,24.4412 52.5,22.5 Z"/></g>
<g><path style="opacity:1" fill="#bb8a59" d="M 210.5,20.5 C 214.182,20.3347 217.848,20.5014 221.5,21C 224.553,24.2635 227.719,27.4302 231,30.5C 231.497,33.146 231.664,35.8127 231.5,38.5C 228.99,38.9267 226.657,39.5933 224.5,40.5C 219.537,41.4258 214.537,42.0925 209.5,42.5C 210.568,41.5655 211.901,41.2322 213.5,41.5C 213.151,34.6965 212.151,28.0298 210.5,21.5C 210.5,21.1667 210.5,20.8333 210.5,20.5 Z"/></g>
<g><path style="opacity:1" fill="#403027" d="M 132.5,23.5 C 131.766,24.7079 131.433,26.0413 131.5,27.5C 132.822,27.67 133.989,27.3366 135,26.5C 135.973,28.3921 136.64,30.3921 137,32.5C 138.356,33.3802 139.856,33.7135 141.5,33.5C 142.466,36.7564 143.799,39.7564 145.5,42.5C 142.947,43.2549 140.28,43.9216 137.5,44.5C 134.407,42.3452 131.407,40.0119 128.5,37.5C 128.351,36.448 128.517,35.448 129,34.5C 129.893,35.7112 130.726,35.7112 131.5,34.5C 130.125,30.9111 128.125,27.7445 125.5,25C 126,24.5 126.5,24 127,23.5C 128.776,24.5361 130.609,24.5361 132.5,23.5 Z"/></g>
<g><path style="opacity:1" fill="#20110f" d="M 193.5,15.5 C 193.335,18.5184 193.502,21.5184 194,24.5C 195.878,28.6938 197.212,33.0272 198,37.5C 198.333,37.8333 198.667,38.1667 199,38.5C 199.497,36.1902 199.663,33.8568 199.5,31.5C 200.222,31.0825 200.722,30.4158 201,29.5C 200.923,33.8049 200.756,38.1382 200.5,42.5C 199.833,42.5 199.167,42.5 198.5,42.5C 197.539,44.2646 197.205,46.2646 197.5,48.5C 196.833,45.1667 196.167,41.8333 195.5,38.5C 195.675,36.3792 195.341,34.3792 194.5,32.5C 193.925,29.0884 192.592,26.0884 190.5,23.5C 189.89,22.609 189.557,21.609 189.5,20.5C 191.074,19.0158 192.407,17.3492 193.5,15.5 Z"/></g>
<g><path style="opacity:1" fill="#7c231c" d="M 37.5,25.5 C 38.4849,29.6344 38.8182,33.9677 38.5,38.5C 36.8828,37.962 35.2161,37.6287 33.5,37.5C 33.5,36.1667 33.5,34.8333 33.5,33.5C 34.8221,33.67 35.9887,33.3366 37,32.5C 37.4966,30.1902 37.6633,27.8568 37.5,25.5 Z"/></g>
<g><path style="opacity:1" fill="#850e03" d="M 210.5,21.5 C 212.151,28.0298 213.151,34.6965 213.5,41.5C 211.901,41.2322 210.568,41.5655 209.5,42.5C 208.5,42.5 207.5,42.5 206.5,42.5C 206.498,35.4803 206.165,28.4803 205.5,21.5C 205.351,20.448 205.517,19.448 206,18.5C 207.129,20.1412 208.629,21.1412 210.5,21.5 Z"/></g>
<g><path style="opacity:1" fill="#bcaa8e" d="M -0.5,32.5 C -0.5,32.1667 -0.5,31.8333 -0.5,31.5C 3.23205,31.9843 6.89871,32.651 10.5,33.5C 13.5448,33.5079 16.5448,33.8413 19.5,34.5C 21.5994,35.6118 23.9327,36.2785 26.5,36.5C 28.717,37.3686 31.0504,37.702 33.5,37.5C 35.2161,37.6287 36.8828,37.962 38.5,38.5C 39.8333,38.5 41.1667,38.5 42.5,38.5C 43.5,38.5 44.5,38.5 45.5,38.5C 50.0965,39.3823 54.7632,40.049 59.5,40.5C 60.209,41.404 61.209,41.7373 62.5,41.5C 62.7373,42.791 62.404,43.791 61.5,44.5C 46.3865,41.189 31.0532,38.5224 15.5,36.5C 15.238,37.9778 15.5713,39.3112 16.5,40.5C 19.3451,40.7657 21.6784,41.7657 23.5,43.5C 22.1667,43.5 20.8333,43.5 19.5,43.5C 18.391,43.4431 17.391,43.1098 16.5,42.5C 12.8362,39.6654 8.83616,37.332 4.5,35.5C 3.34062,33.7497 1.67396,32.7497 -0.5,32.5 Z"/></g>
<g><path style="opacity:1" fill="#64160f" d="M 186.5,25.5 C 187.468,27.6074 187.802,29.9407 187.5,32.5C 187.048,36.1629 186.548,39.8296 186,43.5C 185.722,44.4158 185.222,45.0825 184.5,45.5C 185.822,38.9082 186.489,32.2415 186.5,25.5 Z"/></g>
<g><path style="opacity:1" fill="#b3937d" d="M 240.5,31.5 C 242.308,31.4914 243.975,31.9914 245.5,33C 249.361,35.6961 252.694,38.8627 255.5,42.5C 255.5,43.8333 255.5,45.1667 255.5,46.5C 254.067,45.1667 252.733,43.6667 251.5,42C 250.184,41.4719 249.517,41.9719 249.5,43.5C 249.052,45.4646 248.052,45.7979 246.5,44.5C 244.566,42.2757 242.899,39.9424 241.5,37.5C 240.833,37.8333 240.167,38.1667 239.5,38.5C 239.5,37.8333 239.167,37.5 238.5,37.5C 239.091,36.8485 239.757,36.1818 240.5,35.5C 239.637,34.2736 239.637,32.9403 240.5,31.5 Z"/></g>
<g><path style="opacity:1" fill="#eec999" d="M 4.5,35.5 C 8.83616,37.332 12.8362,39.6654 16.5,42.5C 16.5,43.1667 16.5,43.8333 16.5,44.5C 16.631,45.2389 16.4643,45.9056 16,46.5C 15.7508,45.376 15.2508,44.376 14.5,43.5C 13.6893,45.3909 12.3559,46.7242 10.5,47.5C 9.49367,47.0623 9.49367,46.3957 10.5,45.5C 8.83333,44.5 7.5,43.1667 6.5,41.5C 4.71104,39.9668 2.71104,38.9668 0.5,38.5C 0.28099,37.325 0.614324,36.325 1.5,35.5C 2.68677,36.6527 3.68677,36.6527 4.5,35.5 Z"/></g>
<g><path style="opacity:1" fill="#620903" d="M 98.5,28.5 C 99.5839,31.0041 100.917,33.3374 102.5,35.5C 102.194,38.3854 102.527,41.0521 103.5,43.5C 103.471,49.2102 103.971,54.8769 105,60.5C 108.047,67.4003 108.88,74.4003 107.5,81.5C 106.742,72.7353 104.408,64.4019 100.5,56.5C 99.1799,50.5531 98.1799,44.5531 97.5,38.5C 97.163,34.3786 97.4964,31.0452 98.5,28.5 Z"/></g>
<g><path style="opacity:1" fill="#0b0301" d="M 87.5,29.5 C 88.4674,30.8062 89.8007,31.4729 91.5,31.5C 91.9333,34.2589 93.6,35.5922 96.5,35.5C 96.2627,36.791 96.596,37.791 97.5,38.5C 98.1799,44.5531 99.1799,50.5531 100.5,56.5C 99.9442,63.3447 98.4442,70.0114 96,76.5C 95,75.5 94,74.5 93,73.5C 92.801,70.2777 91.9676,67.2777 90.5,64.5C 91.9663,63.653 92.7996,62.3197 93,60.5C 93.7268,55.3143 93.0601,50.3143 91,45.5C 89.9887,44.6634 88.8221,44.33 87.5,44.5C 87.5,48.1667 87.5,51.8333 87.5,55.5C 86.8826,55.6107 86.3826,55.944 86,56.5C 85.5906,62.5043 85.7572,68.5043 86.5,74.5C 86.5632,78.7884 85.8965,82.9551 84.5,87C 85.9593,90.6194 88.2927,93.4528 91.5,95.5C 89.3529,97.7368 87.0196,99.7368 84.5,101.5C 83.5,101.833 82.8333,102.5 82.5,103.5C 80.1184,104.351 78.1184,105.684 76.5,107.5C 73.0105,110.411 69.3438,113.078 65.5,115.5C 61.4171,113.274 57.4171,110.774 53.5,108C 52.0157,105.023 50.0157,102.523 47.5,100.5C 46.3995,99.3951 45.7329,98.0618 45.5,96.5C 49.1545,96.0578 52.8212,95.7244 56.5,95.5C 57.2344,94.1225 57.9011,92.6225 58.5,91C 61.3945,89.4334 64.3945,89.2667 67.5,90.5C 67.5,88.1667 67.5,85.8333 67.5,83.5C 67.5,80.5 67.5,77.5 67.5,74.5C 66.5,74.5 65.5,74.5 64.5,74.5C 62.5853,74.7845 60.9187,74.4511 59.5,73.5C 59.2605,69.1578 58.9272,64.8244 58.5,60.5C 61.0248,61.64 63.6915,62.3067 66.5,62.5C 66.5,64.1667 66.5,65.8333 66.5,67.5C 67.8333,67.5 69.1667,67.5 70.5,67.5C 70.8333,65.5 71.1667,63.5 71.5,61.5C 73.8568,61.6633 76.1902,61.4966 78.5,61C 77.1699,56.1148 77.5032,51.2815 79.5,46.5C 78.8999,44.5323 77.5666,43.5323 75.5,43.5C 72.8333,42.8333 70.1667,42.1667 67.5,41.5C 68.906,36.9414 69.906,32.2747 70.5,27.5C 69.5,27.5 68.5,27.5 67.5,27.5C 67.5,26.1667 67.5,24.8333 67.5,23.5C 73.5485,24.1908 78.8818,26.5241 83.5,30.5C 84.7362,29.7542 86.0695,29.4208 87.5,29.5 Z"/></g>
<g><path style="opacity:1" fill="#e65c47" d="M 193.5,32.5 C 193.833,32.5 194.167,32.5 194.5,32.5C 195.341,34.3792 195.675,36.3792 195.5,38.5C 195.665,41.5184 195.498,44.5184 195,47.5C 194.329,48.2524 193.496,48.5858 192.5,48.5C 192.5,46.8333 192.5,45.1667 192.5,43.5C 192.5,41.1667 192.5,38.8333 192.5,36.5C 193.234,35.2921 193.567,33.9587 193.5,32.5 Z"/></g>
<g><path style="opacity:1" fill="#a70e00" d="M 175.5,36.5 C 177.262,37.2623 178.262,38.5956 178.5,40.5C 180.14,43.405 179.473,45.7384 176.5,47.5C 175.707,47.0688 174.873,46.7355 174,46.5C 172.054,48.9622 169.554,50.2955 166.5,50.5C 166.383,52.4835 167.05,54.1502 168.5,55.5C 168.192,56.3081 167.692,56.9747 167,57.5C 165.172,55.9186 163.172,54.5853 161,53.5C 160.781,54.938 160.281,56.2713 159.5,57.5C 158.697,54.9784 157.364,52.9784 155.5,51.5C 152.917,48.0026 150.584,44.3359 148.5,40.5C 148.5,39.5 148.5,38.5 148.5,37.5C 149.833,38.8333 151.167,40.1667 152.5,41.5C 153.14,44.7741 154.807,47.4408 157.5,49.5C 158.192,48.9747 158.692,48.3081 159,47.5C 161.791,54.3514 163.791,54.018 165,46.5C 166.812,43.7198 168.979,41.2198 171.5,39C 173.903,38.3698 175.737,39.2031 177,41.5C 176.866,39.8107 176.366,38.144 175.5,36.5 Z"/></g>
<g><path style="opacity:1" fill="#e6d1c2" d="M 224.5,40.5 C 226.604,40.2011 228.604,40.5344 230.5,41.5C 220.953,46.2254 210.953,47.5587 200.5,45.5C 201.448,44.0221 202.781,43.0221 204.5,42.5C 205.167,42.5 205.833,42.5 206.5,42.5C 207.5,42.5 208.5,42.5 209.5,42.5C 214.537,42.0925 219.537,41.4258 224.5,40.5 Z"/></g>
<g><path style="opacity:1" fill="#dfd1bc" d="M 61.5,44.5 C 61.5,45.8333 61.5,47.1667 61.5,48.5C 59.9582,49.3007 58.2915,49.634 56.5,49.5C 56.5,48.5 56.5,47.5 56.5,46.5C 45.4679,45.8511 34.4679,44.8511 23.5,43.5C 21.6784,41.7657 19.3451,40.7657 16.5,40.5C 15.5713,39.3112 15.238,37.9778 15.5,36.5C 31.0532,38.5224 46.3865,41.189 61.5,44.5 Z"/></g>
<g><path style="opacity:1" fill="#2e1c0e" d="M 112.5,54.5 C 112.34,56.1992 112.506,57.8659 113,59.5C 113.671,60.2524 114.504,60.5858 115.5,60.5C 114.316,61.6879 114.316,62.8545 115.5,64C 113.311,64.677 112.978,65.8437 114.5,67.5C 117.002,67.6213 119.668,67.7879 122.5,68C 120.147,69.9637 117.647,70.4637 115,69.5C 114.211,71.7116 114.378,73.7116 115.5,75.5C 115.5,77.1667 115.5,78.8333 115.5,80.5C 114.539,76.4853 112.706,72.8186 110,69.5C 106.888,61.0113 104.721,52.3446 103.5,43.5C 102.527,41.0521 102.194,38.3854 102.5,35.5C 102.5,34.5 102.5,33.5 102.5,32.5C 104.512,30.867 106.179,28.867 107.5,26.5C 113.075,28.3387 114.075,31.6721 110.5,36.5C 110.833,36.8333 111.167,37.1667 111.5,37.5C 112.167,36.5 112.833,35.5 113.5,34.5C 114.817,36.8762 114.15,38.5429 111.5,39.5C 110.522,39.0233 109.689,38.3567 109,37.5C 108.833,37.8333 108.667,38.1667 108.5,38.5C 110.483,40.0245 112.816,41.0245 115.5,41.5C 116.137,44.1386 115.303,46.4719 113,48.5C 112.189,47.0403 111.355,46.707 110.5,47.5C 111.17,49.8631 111.837,52.1964 112.5,54.5 Z"/></g>
<g><path style="opacity:1" fill="#935d34" d="M 241.5,37.5 C 242.219,42.097 243.886,46.2637 246.5,50C 246.167,50.8333 245.833,51.6667 245.5,52.5C 244.5,51.8333 243.5,51.1667 242.5,50.5C 241.682,53.1071 241.182,55.7737 241,58.5C 239.989,59.3366 238.822,59.67 237.5,59.5C 237.753,61.8273 237.086,63.8273 235.5,65.5C 234.614,64.675 234.281,63.675 234.5,62.5C 233.5,62.5 232.5,62.5 231.5,62.5C 233.312,60.5395 234.312,58.2061 234.5,55.5C 234.724,51.8212 235.058,48.1545 235.5,44.5C 236.11,43.609 236.443,42.609 236.5,41.5C 237.167,40.1667 238.167,39.1667 239.5,38.5C 240.167,38.1667 240.833,37.8333 241.5,37.5 Z"/></g>
<g><path style="opacity:1" fill="#302921" d="M 59.5,40.5 C 59.8333,40.5 60.1667,40.5 60.5,40.5C 62.8056,40.9926 65.139,41.3259 67.5,41.5C 70.1667,42.1667 72.8333,42.8333 75.5,43.5C 76.6111,48.4158 76.7777,53.4158 76,58.5C 74.951,60.1066 73.451,60.7733 71.5,60.5C 73.2787,55.2602 72.7787,50.2602 70,45.5C 69.501,49.8206 69.3343,54.1539 69.5,58.5C 64.9725,58.2296 60.6391,57.5629 56.5,56.5C 58.4832,56.8432 59.8166,56.1765 60.5,54.5C 60.5,53.1667 60.5,51.8333 60.5,50.5C 61.3382,50.1583 61.6716,49.4916 61.5,48.5C 61.5,47.1667 61.5,45.8333 61.5,44.5C 62.404,43.791 62.7373,42.791 62.5,41.5C 61.209,41.7373 60.209,41.404 59.5,40.5 Z"/></g>
<g><path style="opacity:1" fill="#341e0a" d="M 90.5,64.5 C 89.391,64.4431 88.391,64.1098 87.5,63.5C 87.5,60.8333 87.5,58.1667 87.5,55.5C 87.5,51.8333 87.5,48.1667 87.5,44.5C 88.8221,44.33 89.9887,44.6634 91,45.5C 93.0601,50.3143 93.7268,55.3143 93,60.5C 92.7996,62.3197 91.9663,63.653 90.5,64.5 Z"/></g>
<g><path style="opacity:1" fill="#7e0b00" d="M 120.5,42.5 C 120.07,47.4964 121.403,48.3298 124.5,45C 125.749,44.2599 126.749,44.4265 127.5,45.5C 125.5,45.5 124.5,46.5 124.5,48.5C 119.674,51.8066 117.84,50.4733 119,44.5C 119.278,43.5842 119.778,42.9175 120.5,42.5 Z"/></g>
<g><path style="opacity:1" fill="#c0b4a1" d="M 238.5,37.5 C 239.167,37.5 239.5,37.8333 239.5,38.5C 238.167,39.1667 237.167,40.1667 236.5,41.5C 229.808,45.8715 223.141,50.2049 216.5,54.5C 214.901,54.2322 213.568,54.5655 212.5,55.5C 211.833,55.5 211.167,55.5 210.5,55.5C 208.451,55.2942 208.117,54.4609 209.5,53C 213.544,52.1442 217.211,50.4776 220.5,48C 213.9,48.808 207.234,49.6413 200.5,50.5C 200.5,48.8333 200.5,47.1667 200.5,45.5C 210.953,47.5587 220.953,46.2254 230.5,41.5C 228.604,40.5344 226.604,40.2011 224.5,40.5C 226.657,39.5933 228.99,38.9267 231.5,38.5C 233.717,37.6314 236.05,37.298 238.5,37.5 Z"/></g>
<g><path style="opacity:1" fill="#996336" d="M 255.5,46.5 C 255.5,50.8333 255.5,55.1667 255.5,59.5C 253.833,60.8333 252.167,62.1667 250.5,63.5C 249.668,62.6715 250.001,61.8382 251.5,61C 250.09,60.6322 249.09,59.7989 248.5,58.5C 249.716,56.038 250.382,53.3713 250.5,50.5C 250.497,47.9746 250.163,45.6413 249.5,43.5C 249.517,41.9719 250.184,41.4719 251.5,42C 252.733,43.6667 254.067,45.1667 255.5,46.5 Z"/></g>
<g><path style="opacity:1" fill="#940d01" d="M 128.5,37.5 C 131.407,40.0119 134.407,42.3452 137.5,44.5C 140.083,47.2955 142.417,50.2955 144.5,53.5C 145.486,56.493 146.486,59.493 147.5,62.5C 144.642,62.9717 142.642,61.9717 141.5,59.5C 136.446,55.1125 131.779,50.4458 127.5,45.5C 126.749,44.4265 125.749,44.2599 124.5,45C 121.403,48.3298 120.07,47.4964 120.5,42.5C 120.5,41.8333 120.5,41.1667 120.5,40.5C 121.837,39.6851 122.837,38.5185 123.5,37C 125.265,36.3603 126.932,36.5269 128.5,37.5 Z"/></g>
<g><path style="opacity:1" fill="#bdb19d" d="M 23.5,43.5 C 34.4679,44.8511 45.4679,45.8511 56.5,46.5C 56.5,47.5 56.5,48.5 56.5,49.5C 58.2915,49.634 59.9582,49.3007 61.5,48.5C 61.6716,49.4916 61.3382,50.1583 60.5,50.5C 59.4168,50.5394 58.4168,50.8728 57.5,51.5C 48.2285,49.8029 38.8951,48.4695 29.5,47.5C 27.4632,46.1535 25.4632,44.8202 23.5,43.5 Z"/></g>
<g><path style="opacity:1" fill="#cc1003" d="M 175.5,36.5 C 176.366,38.144 176.866,39.8107 177,41.5C 175.737,39.2031 173.903,38.3698 171.5,39C 168.979,41.2198 166.812,43.7198 165,46.5C 163.791,54.018 161.791,54.3514 159,47.5C 158.692,48.3081 158.192,48.9747 157.5,49.5C 154.807,47.4408 153.14,44.7741 152.5,41.5C 155.33,41.3059 157.996,40.6392 160.5,39.5C 160.5,38.5 160.5,37.5 160.5,36.5C 161.158,37.3984 161.824,38.3984 162.5,39.5C 165.222,37.3062 167.722,34.9729 170,32.5C 171.981,33.6502 173.814,34.9835 175.5,36.5 Z"/></g>
<g><path style="opacity:1" fill="#dfb88d" d="M 235.5,44.5 C 235.058,48.1545 234.724,51.8212 234.5,55.5C 231.884,56.4798 229.551,57.9798 227.5,60C 225.421,60.8077 223.421,60.641 221.5,59.5C 224.633,56.2703 227.133,52.6037 229,48.5C 231.063,46.0871 233.23,44.7538 235.5,44.5 Z"/></g>
<g><path style="opacity:1" fill="#af6050" d="M 195.5,38.5 C 196.167,41.8333 196.833,45.1667 197.5,48.5C 197.5,55.1667 197.5,61.8333 197.5,68.5C 196.5,68.5 195.5,68.5 194.5,68.5C 194.815,64.6286 194.482,60.9619 193.5,57.5C 193.5,57.1667 193.5,56.8333 193.5,56.5C 193.5,54.5 193.5,52.5 193.5,50.5C 193.167,49.8333 192.833,49.1667 192.5,48.5C 193.496,48.5858 194.329,48.2524 195,47.5C 195.498,44.5184 195.665,41.5184 195.5,38.5 Z"/></g>
<g><path style="opacity:1" fill="#948b7a" d="M 198.5,42.5 C 199.167,42.5 199.833,42.5 200.5,42.5C 201.833,42.5 203.167,42.5 204.5,42.5C 202.781,43.0221 201.448,44.0221 200.5,45.5C 200.5,47.1667 200.5,48.8333 200.5,50.5C 207.234,49.6413 213.9,48.808 220.5,48C 217.211,50.4776 213.544,52.1442 209.5,53C 208.117,54.4609 208.451,55.2942 210.5,55.5C 208.972,56.3092 207.306,56.9759 205.5,57.5C 204.167,57.8333 202.833,58.1667 201.5,58.5C 200.25,58.4226 199.417,57.756 199,56.5C 198.501,51.8452 198.334,47.1785 198.5,42.5 Z"/></g>
<g><path style="opacity:1" fill="#7f735e" d="M 19.5,43.5 C 20.8333,43.5 22.1667,43.5 23.5,43.5C 25.4632,44.8202 27.4632,46.1535 29.5,47.5C 36.5622,49.7862 43.8955,51.6195 51.5,53C 54.0365,55.5888 57.0365,56.0888 60.5,54.5C 59.8166,56.1765 58.4832,56.8432 56.5,56.5C 55.1667,56.5 53.8333,56.5 52.5,56.5C 51.0813,55.5489 49.4147,55.2155 47.5,55.5C 44.4954,53.7234 41.1621,52.7234 37.5,52.5C 37.1667,52.5 36.8333,52.5 36.5,52.5C 34.0209,51.2051 31.3542,50.2051 28.5,49.5C 26.5368,48.1798 24.5368,46.8465 22.5,45.5C 21.2905,45.0679 20.2905,44.4013 19.5,43.5 Z"/></g>
<g><path style="opacity:1" fill="#d4a76e" d="M -0.5,32.5 C 1.67396,32.7497 3.34062,33.7497 4.5,35.5C 3.68677,36.6527 2.68677,36.6527 1.5,35.5C 0.614324,36.325 0.28099,37.325 0.5,38.5C 2.71104,38.9668 4.71104,39.9668 6.5,41.5C 7.5,43.1667 8.83333,44.5 10.5,45.5C 9.49367,46.3957 9.49367,47.0623 10.5,47.5C 12.3559,46.7242 13.6893,45.3909 14.5,43.5C 15.2508,44.376 15.7508,45.376 16,46.5C 16.4643,45.9056 16.631,45.2389 16.5,44.5C 17.4682,46.6074 17.8016,48.9407 17.5,51.5C 15.8561,51.7135 14.3561,51.3802 13,50.5C 12.5983,51.8721 12.0983,53.2054 11.5,54.5C 13.8507,55.0118 15.8507,56.0118 17.5,57.5C 15.2894,58.6595 13.2894,59.9928 11.5,61.5C 9.5,61.5 7.5,61.5 5.5,61.5C 3.72145,60.3303 2.72145,58.6636 2.5,56.5C 5.24688,56.8134 7.91355,56.48 10.5,55.5C 9.83333,54.1667 8.83333,53.1667 7.5,52.5C 5.90167,53.4847 4.23501,53.6514 2.5,53C 1.83663,51.4815 0.836628,50.3149 -0.5,49.5C -0.5,43.8333 -0.5,38.1667 -0.5,32.5 Z"/></g>
<g><path style="opacity:1" fill="#958b79" d="M 29.5,47.5 C 38.8951,48.4695 48.2285,49.8029 57.5,51.5C 58.4168,50.8728 59.4168,50.5394 60.5,50.5C 60.5,51.8333 60.5,53.1667 60.5,54.5C 57.0365,56.0888 54.0365,55.5888 51.5,53C 43.8955,51.6195 36.5622,49.7862 29.5,47.5 Z"/></g>
<g><path style="opacity:1" fill="#4e362e" d="M 193.5,50.5 C 193.5,52.5 193.5,54.5 193.5,56.5C 192.503,56.5299 191.836,56.0299 191.5,55C 191.899,53.2725 192.566,51.7725 193.5,50.5 Z"/></g>
<g><path style="opacity:1" fill="#746b58" d="M 65.5,44.5 C 66.5,44.5 67.5,44.5 68.5,44.5C 68.6653,48.1817 68.4986,51.8484 68,55.5C 67.586,55.9574 67.086,56.2907 66.5,56.5C 65.5091,52.5546 65.1758,48.5546 65.5,44.5 Z"/></g>
<g><path style="opacity:1" fill="#271709" d="M 148.5,40.5 C 150.584,44.3359 152.917,48.0026 155.5,51.5C 157.301,57.098 159.634,62.4313 162.5,67.5C 161.819,69.1585 160.985,70.8251 160,72.5C 159.189,70.3299 157.855,68.6632 156,67.5C 153.845,68.5792 151.845,69.9126 150,71.5C 149.868,69.5934 150.702,68.0934 152.5,67C 151.599,62.8976 150.766,62.7309 150,66.5C 149.517,65.552 149.351,64.552 149.5,63.5C 148.873,59.5799 147.207,56.2466 144.5,53.5C 142.417,50.2955 140.083,47.2955 137.5,44.5C 140.28,43.9216 142.947,43.2549 145.5,42.5C 147.179,42.7148 148.179,42.0481 148.5,40.5 Z"/></g>
<g><path style="opacity:1" fill="#331b15" d="M 187.5,32.5 C 188.559,34.5554 190.225,35.8888 192.5,36.5C 192.5,38.8333 192.5,41.1667 192.5,43.5C 188.39,49.3905 186.39,56.0572 186.5,63.5C 185.085,63.094 183.919,63.7607 183,65.5C 182.667,64.5 182.333,63.5 182,62.5C 180.395,65.1915 178.895,67.8582 177.5,70.5C 178.438,66.0199 179.772,61.6866 181.5,57.5C 183.112,53.7191 184.112,49.7191 184.5,45.5C 185.222,45.0825 185.722,44.4158 186,43.5C 186.548,39.8296 187.048,36.1629 187.5,32.5 Z"/></g>
<g><path style="opacity:1" fill="#c18d57" d="M 16.5,42.5 C 17.391,43.1098 18.391,43.4431 19.5,43.5C 20.2905,44.4013 21.2905,45.0679 22.5,45.5C 22.5,46.8333 22.5,48.1667 22.5,49.5C 21.0992,49.9709 19.7658,50.6376 18.5,51.5C 19.325,52.3857 20.325,52.719 21.5,52.5C 21.0074,54.8056 20.6741,57.139 20.5,59.5C 17.4261,59.8726 14.4261,60.5392 11.5,61.5C 13.2894,59.9928 15.2894,58.6595 17.5,57.5C 15.8507,56.0118 13.8507,55.0118 11.5,54.5C 12.0983,53.2054 12.5983,51.8721 13,50.5C 14.3561,51.3802 15.8561,51.7135 17.5,51.5C 17.8016,48.9407 17.4682,46.6074 16.5,44.5C 16.5,43.8333 16.5,43.1667 16.5,42.5 Z"/></g>
<g><path style="opacity:1" fill="#5b4c43" d="M 198.5,42.5 C 198.334,47.1785 198.501,51.8452 199,56.5C 199.417,57.756 200.25,58.4226 201.5,58.5C 200.992,60.2327 200.159,60.566 199,59.5C 198.501,63.4862 198.334,67.4862 198.5,71.5C 197.596,70.791 197.263,69.791 197.5,68.5C 197.5,61.8333 197.5,55.1667 197.5,48.5C 197.205,46.2646 197.539,44.2646 198.5,42.5 Z"/></g>
<g><path style="opacity:1" fill="#970e01" d="M 184.5,19.5 C 186.074,21.1016 186.741,23.1016 186.5,25.5C 186.489,32.2415 185.822,38.9082 184.5,45.5C 184.112,49.7191 183.112,53.7191 181.5,57.5C 180.504,57.5858 179.671,57.2524 179,56.5C 176.205,58.5032 173.038,59.8365 169.5,60.5C 168.753,62.2894 169.086,63.9561 170.5,65.5C 170.5,66.1667 170.5,66.8333 170.5,67.5C 170.189,71.6804 170.855,75.6804 172.5,79.5C 172.253,80.7133 171.586,81.38 170.5,81.5C 169.347,79.364 168.014,77.364 166.5,75.5C 164.836,73.0033 163.503,70.3367 162.5,67.5C 159.634,62.4313 157.301,57.098 155.5,51.5C 157.364,52.9784 158.697,54.9784 159.5,57.5C 160.281,56.2713 160.781,54.938 161,53.5C 163.172,54.5853 165.172,55.9186 167,57.5C 167.692,56.9747 168.192,56.3081 168.5,55.5C 167.05,54.1502 166.383,52.4835 166.5,50.5C 169.554,50.2955 172.054,48.9622 174,46.5C 174.873,46.7355 175.707,47.0688 176.5,47.5C 179.473,45.7384 180.14,43.405 178.5,40.5C 179.138,33.6767 179.138,26.6767 178.5,19.5C 178.369,18.7611 178.536,18.0944 179,17.5C 179.899,19.3266 181.233,20.66 183,21.5C 184.03,21.1639 184.53,20.4972 184.5,19.5 Z"/></g>
<g><path style="opacity:1" fill="#800e03" d="M 181.5,57.5 C 179.772,61.6866 178.438,66.0199 177.5,70.5C 175.92,73.6592 174.92,76.9925 174.5,80.5C 173.844,81.2778 173.011,81.9444 172,82.5C 171.235,82.4301 170.735,82.0967 170.5,81.5C 171.586,81.38 172.253,80.7133 172.5,79.5C 170.855,75.6804 170.189,71.6804 170.5,67.5C 171.309,69.2922 171.809,71.2922 172,73.5C 174.05,69.6983 175.05,65.6983 175,61.5C 173.644,62.3802 172.144,62.7135 170.5,62.5C 170.5,63.5 170.5,64.5 170.5,65.5C 169.086,63.9561 168.753,62.2894 169.5,60.5C 173.038,59.8365 176.205,58.5032 179,56.5C 179.671,57.2524 180.504,57.5858 181.5,57.5 Z"/></g>
<g><path style="opacity:1" fill="#750e01" d="M 112.5,54.5 C 114.288,54.2148 115.955,54.5481 117.5,55.5C 116.544,57.0754 115.877,58.742 115.5,60.5C 114.504,60.5858 113.671,60.2524 113,59.5C 112.506,57.8659 112.34,56.1992 112.5,54.5 Z"/></g>
<g><path style="opacity:1" fill="#340300" d="M 47.5,55.5 C 49.4147,55.2155 51.0813,55.5489 52.5,56.5C 51.9907,57.3413 52.6573,57.8413 54.5,58C 54.0426,58.414 53.7093,58.914 53.5,59.5C 54.6888,60.4287 56.0222,60.762 57.5,60.5C 57.6653,64.1817 57.4986,67.8484 57,71.5C 54.6194,72.435 52.1194,72.7683 49.5,72.5C 48.9492,69.1933 48.6159,65.8599 48.5,62.5C 47.7814,60.2362 47.448,57.9029 47.5,55.5 Z"/></g>
<g><path style="opacity:1" fill="#942722" d="M 192.5,43.5 C 192.5,45.1667 192.5,46.8333 192.5,48.5C 192.833,49.1667 193.167,49.8333 193.5,50.5C 192.566,51.7725 191.899,53.2725 191.5,55C 191.836,56.0299 192.503,56.5299 193.5,56.5C 193.5,56.8333 193.5,57.1667 193.5,57.5C 192.415,61.0453 190.082,63.0453 186.5,63.5C 186.39,56.0572 188.39,49.3905 192.5,43.5 Z"/></g>
<g><path style="opacity:1" fill="#220f01" d="M 103.5,43.5 C 104.721,52.3446 106.888,61.0113 110,69.5C 112.706,72.8186 114.539,76.4853 115.5,80.5C 116.287,87.4848 116.953,94.4848 117.5,101.5C 116.698,100.048 116.198,98.3817 116,96.5C 115.282,97.4506 114.449,97.6172 113.5,97C 111.937,96.2411 110.937,95.0744 110.5,93.5C 111.097,93.2648 111.43,92.7648 111.5,92C 110.292,88.4237 108.959,84.9237 107.5,81.5C 108.88,74.4003 108.047,67.4003 105,60.5C 103.971,54.8769 103.471,49.2102 103.5,43.5 Z"/></g>
<g><path style="opacity:1" fill="#c68d56" d="M -0.5,49.5 C 0.836628,50.3149 1.83663,51.4815 2.5,53C 4.23501,53.6514 5.90167,53.4847 7.5,52.5C 8.83333,53.1667 9.83333,54.1667 10.5,55.5C 7.91355,56.48 5.24688,56.8134 2.5,56.5C 2.72145,58.6636 3.72145,60.3303 5.5,61.5C 3.88669,63.0879 1.88669,64.0879 -0.5,64.5C -0.5,59.5 -0.5,54.5 -0.5,49.5 Z"/></g>
<g><path style="opacity:1" fill="#8f0f01" d="M 28.5,49.5 C 31.3542,50.2051 34.0209,51.2051 36.5,52.5C 36.3877,59.1802 36.0543,65.8469 35.5,72.5C 32.8333,72.5 30.1667,72.5 27.5,72.5C 26.3703,65.2465 26.2036,57.9131 27,50.5C 27.3826,49.944 27.8826,49.6107 28.5,49.5 Z"/></g>
<g><path style="opacity:1" fill="#855731" d="M 241.5,37.5 C 242.899,39.9424 244.566,42.2757 246.5,44.5C 248.052,45.7979 249.052,45.4646 249.5,43.5C 250.163,45.6413 250.497,47.9746 250.5,50.5C 250.382,53.3713 249.716,56.038 248.5,58.5C 249.09,59.7989 250.09,60.6322 251.5,61C 250.001,61.8382 249.668,62.6715 250.5,63.5C 245.397,68.2252 239.731,72.2252 233.5,75.5C 231.482,73.4717 229.815,71.1383 228.5,68.5C 229.5,66.5 230.5,64.5 231.5,62.5C 232.5,62.5 233.5,62.5 234.5,62.5C 234.281,63.675 234.614,64.675 235.5,65.5C 237.086,63.8273 237.753,61.8273 237.5,59.5C 238.822,59.67 239.989,59.3366 241,58.5C 241.182,55.7737 241.682,53.1071 242.5,50.5C 243.5,51.1667 244.5,51.8333 245.5,52.5C 245.833,51.6667 246.167,50.8333 246.5,50C 243.886,46.2637 242.219,42.097 241.5,37.5 Z"/></g>
<g><path style="opacity:1" fill="#250705" d="M 37.5,52.5 C 41.1621,52.7234 44.4954,53.7234 47.5,55.5C 47.448,57.9029 47.7814,60.2362 48.5,62.5C 47.3882,64.5994 46.7215,66.9327 46.5,69.5C 45.5,69.5 44.5,69.5 43.5,69.5C 43.5,70.5 43.5,71.5 43.5,72.5C 42.5,72.5 41.5,72.5 40.5,72.5C 40.6621,70.4727 40.4955,68.4727 40,66.5C 39.6667,66.8333 39.3333,67.1667 39,67.5C 38.5012,71.4862 38.3345,75.4862 38.5,79.5C 37.5067,70.6822 37.1734,61.6822 37.5,52.5 Z"/></g>
<g><path style="opacity:1" fill="#690b00" d="M 144.5,53.5 C 147.207,56.2466 148.873,59.5799 149.5,63.5C 148.612,66.9867 146.279,68.3201 142.5,67.5C 139.487,66.4872 137.487,64.4872 136.5,61.5C 137.93,61.4208 139.264,61.7542 140.5,62.5C 141.386,61.675 141.719,60.675 141.5,59.5C 142.642,61.9717 144.642,62.9717 147.5,62.5C 146.486,59.493 145.486,56.493 144.5,53.5 Z"/></g>
<g><path style="opacity:1" fill="#b9916b" d="M 236.5,41.5 C 236.443,42.609 236.11,43.609 235.5,44.5C 233.23,44.7538 231.063,46.0871 229,48.5C 227.133,52.6037 224.633,56.2703 221.5,59.5C 223.421,60.641 225.421,60.8077 227.5,60C 229.551,57.9798 231.884,56.4798 234.5,55.5C 234.312,58.2061 233.312,60.5395 231.5,62.5C 230.5,64.5 229.5,66.5 228.5,68.5C 227.833,69.8333 226.833,70.8333 225.5,71.5C 224.91,70.234 224.41,68.9007 224,67.5C 223.667,67.8333 223.333,68.1667 223,68.5C 220.167,72.6667 217.333,76.8333 214.5,81C 215.448,81.4828 216.448,81.6495 217.5,81.5C 216.833,82.5 216.167,83.5 215.5,84.5C 214.167,85.1667 213.167,86.1667 212.5,87.5C 210.25,86.8698 208.25,85.8698 206.5,84.5C 207.167,84.1667 207.833,83.8333 208.5,83.5C 210.017,83.4894 211.184,82.8228 212,81.5C 214.833,76 217.667,70.5 220.5,65C 216.95,62.4536 215.617,58.9536 216.5,54.5C 223.141,50.2049 229.808,45.8715 236.5,41.5 Z"/></g>
<g><path style="opacity:1" fill="#332421" d="M 193.5,57.5 C 194.482,60.9619 194.815,64.6286 194.5,68.5C 190.817,72.1803 186.817,75.5136 182.5,78.5C 180.33,80.0862 177.996,81.4196 175.5,82.5C 174.662,82.1583 174.328,81.4916 174.5,80.5C 174.92,76.9925 175.92,73.6592 177.5,70.5C 178.895,67.8582 180.395,65.1915 182,62.5C 182.333,63.5 182.667,64.5 183,65.5C 183.919,63.7607 185.085,63.094 186.5,63.5C 190.082,63.0453 192.415,61.0453 193.5,57.5 Z"/></g>
<g><path style="opacity:1" fill="#2f1401" d="M 170.5,67.5 C 170.5,66.8333 170.5,66.1667 170.5,65.5C 170.5,64.5 170.5,63.5 170.5,62.5C 172.144,62.7135 173.644,62.3802 175,61.5C 175.05,65.6983 174.05,69.6983 172,73.5C 171.809,71.2922 171.309,69.2922 170.5,67.5 Z"/></g>
<g><path style="opacity:1" fill="#87211c" d="M 210.5,55.5 C 211.167,55.5 211.833,55.5 212.5,55.5C 213.376,55.3691 214.043,55.7025 214.5,56.5C 213.833,62.1965 213.166,67.8631 212.5,73.5C 209.833,73.5 207.167,73.5 204.5,73.5C 204.5,70.1667 204.5,66.8333 204.5,63.5C 205.461,61.7354 205.795,59.7354 205.5,57.5C 207.306,56.9759 208.972,56.3092 210.5,55.5 Z"/></g>
<g><path style="opacity:1" fill="#271507" d="M 127.5,45.5 C 131.779,50.4458 136.446,55.1125 141.5,59.5C 141.719,60.675 141.386,61.675 140.5,62.5C 139.264,61.7542 137.93,61.4208 136.5,61.5C 137.487,64.4872 139.487,66.4872 142.5,67.5C 142.881,68.9311 143.881,69.7645 145.5,70C 144.663,71.0113 144.33,72.1779 144.5,73.5C 142.901,73.2322 141.568,73.5655 140.5,74.5C 130.232,73.6035 127.232,68.6035 131.5,59.5C 131.938,59.5654 132.272,59.3988 132.5,59C 130.382,55.0527 127.715,51.5527 124.5,48.5C 124.5,46.5 125.5,45.5 127.5,45.5 Z"/></g>
<g><path style="opacity:1" fill="#1e1006" d="M 149.5,63.5 C 149.351,64.552 149.517,65.552 150,66.5C 150.766,62.7309 151.599,62.8976 152.5,67C 150.702,68.0934 149.868,69.5934 150,71.5C 151.845,69.9126 153.845,68.5792 156,67.5C 157.855,68.6632 159.189,70.3299 160,72.5C 160.985,70.8251 161.819,69.1585 162.5,67.5C 163.503,70.3367 164.836,73.0033 166.5,75.5C 166.894,76.9672 167.227,78.4672 167.5,80C 167.316,81.3756 166.649,82.2089 165.5,82.5C 156.891,80.5997 148.558,77.933 140.5,74.5C 141.568,73.5655 142.901,73.2322 144.5,73.5C 144.33,72.1779 144.663,71.0113 145.5,70C 143.881,69.7645 142.881,68.9311 142.5,67.5C 146.279,68.3201 148.612,66.9867 149.5,63.5 Z"/></g>
<g><path style="opacity:1" fill="#9e6f43" d="M 22.5,49.5 C 22.6653,53.1817 22.4986,56.8484 22,60.5C 21.3333,61.1667 20.6667,61.8333 20,62.5C 19.7685,66.5548 19.2685,70.5548 18.5,74.5C 10.0458,78.726 6.04584,76.0594 6.5,66.5C 5.70651,66.0688 4.87318,65.7355 4,65.5C 2.69981,66.7073 1.19981,67.3739 -0.5,67.5C -0.5,66.5 -0.5,65.5 -0.5,64.5C 1.88669,64.0879 3.88669,63.0879 5.5,61.5C 7.5,61.5 9.5,61.5 11.5,61.5C 14.4261,60.5392 17.4261,59.8726 20.5,59.5C 20.6741,57.139 21.0074,54.8056 21.5,52.5C 20.325,52.719 19.325,52.3857 18.5,51.5C 19.7658,50.6376 21.0992,49.9709 22.5,49.5 Z"/></g>
<g><path style="opacity:1" fill="#190706" d="M 75.5,43.5 C 77.5666,43.5323 78.8999,44.5323 79.5,46.5C 77.5032,51.2815 77.1699,56.1148 78.5,61C 76.1902,61.4966 73.8568,61.6633 71.5,61.5C 71.1667,63.5 70.8333,65.5 70.5,67.5C 69.1667,67.5 67.8333,67.5 66.5,67.5C 66.5,65.8333 66.5,64.1667 66.5,62.5C 63.6915,62.3067 61.0248,61.64 58.5,60.5C 58.9272,64.8244 59.2605,69.1578 59.5,73.5C 58.5,74.5 57.5,75.5 56.5,76.5C 53.7212,76.2786 51.0545,76.612 48.5,77.5C 45.0272,77.5758 41.6939,78.2424 38.5,79.5C 38.3345,75.4862 38.5012,71.4862 39,67.5C 39.3333,67.1667 39.6667,66.8333 40,66.5C 40.4955,68.4727 40.6621,70.4727 40.5,72.5C 41.5,72.5 42.5,72.5 43.5,72.5C 43.5,71.5 43.5,70.5 43.5,69.5C 44.5,69.5 45.5,69.5 46.5,69.5C 46.7215,66.9327 47.3882,64.5994 48.5,62.5C 48.6159,65.8599 48.9492,69.1933 49.5,72.5C 52.1194,72.7683 54.6194,72.435 57,71.5C 57.4986,67.8484 57.6653,64.1817 57.5,60.5C 56.0222,60.762 54.6888,60.4287 53.5,59.5C 53.7093,58.914 54.0426,58.414 54.5,58C 52.6573,57.8413 51.9907,57.3413 52.5,56.5C 53.8333,56.5 55.1667,56.5 56.5,56.5C 60.6391,57.5629 64.9725,58.2296 69.5,58.5C 69.3343,54.1539 69.501,49.8206 70,45.5C 72.7787,50.2602 73.2787,55.2602 71.5,60.5C 73.451,60.7733 74.951,60.1066 76,58.5C 76.7777,53.4158 76.6111,48.4158 75.5,43.5 Z"/></g>
<g><path style="opacity:1" fill="#8c624a" d="M 212.5,55.5 C 213.568,54.5655 214.901,54.2322 216.5,54.5C 215.617,58.9536 216.95,62.4536 220.5,65C 217.667,70.5 214.833,76 212,81.5C 211.184,82.8228 210.017,83.4894 208.5,83.5C 209.282,79.9368 210.616,76.6035 212.5,73.5C 213.166,67.8631 213.833,62.1965 214.5,56.5C 214.043,55.7025 213.376,55.3691 212.5,55.5 Z"/></g>
<g><path style="opacity:1" fill="#1a0d05" d="M 116.5,11.5 C 113.746,15.6738 111.58,20.0071 110,24.5C 112.46,23.245 113.627,21.245 113.5,18.5C 114.93,18.5792 116.264,18.2458 117.5,17.5C 120.095,18.8506 122.762,20.0173 125.5,21C 123.649,22.6837 121.982,24.5171 120.5,26.5C 122.006,27.7472 123.506,27.7472 125,26.5C 126.031,27.7003 126.865,29.0337 127.5,30.5C 125.434,32.7166 123.1,34.7166 120.5,36.5C 119.374,37.8084 119.374,39.1417 120.5,40.5C 120.5,41.1667 120.5,41.8333 120.5,42.5C 119.778,42.9175 119.278,43.5842 119,44.5C 117.84,50.4733 119.674,51.8066 124.5,48.5C 127.715,51.5527 130.382,55.0527 132.5,59C 132.272,59.3988 131.938,59.5654 131.5,59.5C 128.156,59.6504 125.823,61.317 124.5,64.5C 125.95,65.8498 126.617,67.5165 126.5,69.5C 123.001,69.259 122.668,70.0924 125.5,72C 130.332,74.3323 135.332,76.1657 140.5,77.5C 140.167,78.8333 139.833,80.1667 139.5,81.5C 130.458,82.0555 126.125,86.8889 126.5,96C 126.423,98.0507 126.923,99.884 128,101.5C 129.043,98.2432 129.543,94.9099 129.5,91.5C 132.14,91.046 134.473,89.8793 136.5,88C 140.152,87.5014 143.818,87.3347 147.5,87.5C 149.103,87.3118 150.437,87.8118 151.5,89C 150.906,89.4643 150.239,89.631 149.5,89.5C 147.833,89.5 146.167,89.5 144.5,89.5C 137.793,86.8604 134.459,89.1937 134.5,96.5C 136.292,96.366 137.958,96.6993 139.5,97.5C 139.5,97.8333 139.5,98.1667 139.5,98.5C 139.5,98.8333 139.5,99.1667 139.5,99.5C 138.417,99.4606 137.417,99.1272 136.5,98.5C 135.438,99.4246 135.438,100.425 136.5,101.5C 135.616,104.023 134.782,106.69 134,109.5C 132.415,108.624 131.415,107.291 131,105.5C 129.635,106.593 129.301,107.926 130,109.5C 131.62,111.241 133.12,113.075 134.5,115C 136.788,115.822 139.122,116.489 141.5,117C 141.043,117.414 140.709,117.914 140.5,118.5C 142.844,119.551 144.511,121.218 145.5,123.5C 143.956,123.297 142.622,122.63 141.5,121.5C 136.476,122.408 131.476,123.408 126.5,124.5C 126.737,123.209 126.404,122.209 125.5,121.5C 123.838,107.551 122.838,93.5506 122.5,79.5C 122.5,76.5 122.5,73.5 122.5,70.5C 120.167,71.1667 117.833,71.8333 115.5,72.5C 115.5,73.5 115.5,74.5 115.5,75.5C 114.378,73.7116 114.211,71.7116 115,69.5C 117.647,70.4637 120.147,69.9637 122.5,68C 119.668,67.7879 117.002,67.6213 114.5,67.5C 112.978,65.8437 113.311,64.677 115.5,64C 114.316,62.8545 114.316,61.6879 115.5,60.5C 115.877,58.742 116.544,57.0754 117.5,55.5C 115.955,54.5481 114.288,54.2148 112.5,54.5C 111.837,52.1964 111.17,49.8631 110.5,47.5C 111.355,46.707 112.189,47.0403 113,48.5C 115.303,46.4719 116.137,44.1386 115.5,41.5C 112.816,41.0245 110.483,40.0245 108.5,38.5C 108.667,38.1667 108.833,37.8333 109,37.5C 109.689,38.3567 110.522,39.0233 111.5,39.5C 114.15,38.5429 114.817,36.8762 113.5,34.5C 112.833,35.5 112.167,36.5 111.5,37.5C 111.167,37.1667 110.833,36.8333 110.5,36.5C 114.075,31.6721 113.075,28.3387 107.5,26.5C 106.179,28.867 104.512,30.867 102.5,32.5C 101.377,30.312 101.377,27.9787 102.5,25.5C 104.371,25.1412 105.871,24.1412 107,22.5C 109.104,18.7277 111.604,15.2277 114.5,12C 115.094,11.5357 115.761,11.369 116.5,11.5 Z"/></g>
<g><path style="opacity:1" fill="#690a02" d="M 120.5,57.5 C 121.497,57.4701 122.164,57.9701 122.5,59C 121.924,60.7144 120.757,61.8811 119,62.5C 118.387,60.5048 118.887,58.8381 120.5,57.5 Z"/></g>
<g><path style="opacity:1" fill="#281615" d="M 205.5,57.5 C 205.795,59.7354 205.461,61.7354 204.5,63.5C 203.731,68.7843 202.565,74.1176 201,79.5C 200.583,80.756 199.75,81.4226 198.5,81.5C 197.833,81.5 197.167,81.5 196.5,81.5C 197.294,78.198 197.96,74.8647 198.5,71.5C 198.334,67.4862 198.501,63.4862 199,59.5C 200.159,60.566 200.992,60.2327 201.5,58.5C 202.833,58.1667 204.167,57.8333 205.5,57.5 Z"/></g>
<g><path style="opacity:1" fill="#684220" d="M 228.5,68.5 C 229.815,71.1383 231.482,73.4717 233.5,75.5C 229.503,77.4889 225.17,78.4889 220.5,78.5C 222.412,76.3428 224.079,74.0094 225.5,71.5C 226.833,70.8333 227.833,69.8333 228.5,68.5 Z"/></g>
<g><path style="opacity:1" fill="#dbb48c" d="M 225.5,71.5 C 224.079,74.0094 222.412,76.3428 220.5,78.5C 220.167,79.1667 219.833,79.8333 219.5,80.5C 218.833,80.8333 218.167,81.1667 217.5,81.5C 216.448,81.6495 215.448,81.4828 214.5,81C 217.333,76.8333 220.167,72.6667 223,68.5C 223.333,68.1667 223.667,67.8333 224,67.5C 224.41,68.9007 224.91,70.234 225.5,71.5 Z"/></g>
<g><path style="opacity:1" fill="#630e03" d="M -0.5,75.5 C 1.16667,76.5 2.5,77.8333 3.5,79.5C 2.67526,83.6472 2.17526,87.9805 2,92.5C 1.62638,94.4913 0.793048,96.158 -0.5,97.5C -0.5,90.1667 -0.5,82.8333 -0.5,75.5 Z"/></g>
<g><path style="opacity:1" fill="#6f0e02" d="M 131.5,59.5 C 127.232,68.6035 130.232,73.6035 140.5,74.5C 148.558,77.933 156.891,80.5997 165.5,82.5C 168.833,85.1667 172.167,85.1667 175.5,82.5C 177.996,81.4196 180.33,80.0862 182.5,78.5C 182.5,79.1667 182.833,79.5 183.5,79.5C 183.5,80.1667 183.167,80.5 182.5,80.5C 178.974,83.0938 175.308,85.4271 171.5,87.5C 162.966,83.9487 153.966,81.4487 144.5,80C 143.016,79.3378 141.683,78.5045 140.5,77.5C 135.332,76.1657 130.332,74.3323 125.5,72C 122.668,70.0924 123.001,69.259 126.5,69.5C 126.617,67.5165 125.95,65.8498 124.5,64.5C 125.823,61.317 128.156,59.6504 131.5,59.5 Z"/></g>
<g><path style="opacity:1" fill="#5d1815" d="M 204.5,63.5 C 204.5,66.8333 204.5,70.1667 204.5,73.5C 207.167,73.5 209.833,73.5 212.5,73.5C 210.616,76.6035 209.282,79.9368 208.5,83.5C 207.833,83.8333 207.167,84.1667 206.5,84.5C 205.5,84.5 204.5,84.5 203.5,84.5C 202.087,83.0652 200.42,82.0652 198.5,81.5C 199.75,81.4226 200.583,80.756 201,79.5C 202.565,74.1176 203.731,68.7843 204.5,63.5 Z"/></g>
<g><path style="opacity:1" fill="#5c0801" d="M 36.5,52.5 C 36.8333,52.5 37.1667,52.5 37.5,52.5C 37.1734,61.6822 37.5067,70.6822 38.5,79.5C 36.1098,81.0198 33.4432,82.0198 30.5,82.5C 28.8993,79.4498 27.8993,76.1165 27.5,72.5C 30.1667,72.5 32.8333,72.5 35.5,72.5C 36.0543,65.8469 36.3877,59.1802 36.5,52.5 Z"/></g>
<g><path style="opacity:1" fill="#8d836b" d="M 64.5,74.5 C 65.5,74.5 66.5,74.5 67.5,74.5C 67.5,77.5 67.5,80.5 67.5,83.5C 66.6909,85.2922 66.1909,87.2922 66,89.5C 65.6667,89.1667 65.3333,88.8333 65,88.5C 64.5008,83.8452 64.3342,79.1785 64.5,74.5 Z"/></g>
<g><path style="opacity:1" fill="#362e24" d="M 73.5,74.5 C 74.8333,74.5 76.1667,74.5 77.5,74.5C 77.7233,76.3417 78.0566,78.175 78.5,80C 76.9211,85.061 75.9211,90.2276 75.5,95.5C 74.1667,95.5 72.8333,95.5 71.5,95.5C 71.3338,89.4908 71.5005,83.4908 72,77.5C 72.5133,76.4734 73.0133,75.4734 73.5,74.5 Z"/></g>
<g><path style="opacity:1" fill="#230f03" d="M 140.5,77.5 C 141.683,78.5045 143.016,79.3378 144.5,80C 153.966,81.4487 162.966,83.9487 171.5,87.5C 168.797,88.963 165.797,89.7963 162.5,90C 163.167,90.3333 163.833,90.6667 164.5,91C 162.866,91.4935 161.199,91.6602 159.5,91.5C 155.878,91.678 152.544,91.0114 149.5,89.5C 150.239,89.631 150.906,89.4643 151.5,89C 150.437,87.8118 149.103,87.3118 147.5,87.5C 148.718,86.8386 150.051,86.1719 151.5,85.5C 147.683,84.3483 143.85,84.3483 140,85.5C 139.167,85.1667 138.333,84.8333 137.5,84.5C 138.5,83.6667 139.5,82.8333 140.5,82C 140.272,81.6012 139.938,81.4346 139.5,81.5C 139.833,80.1667 140.167,78.8333 140.5,77.5 Z"/></g>
<g><path style="opacity:1" fill="#17120e" d="M 255.5,59.5 C 255.5,61.5 255.5,63.5 255.5,65.5C 246.598,71.451 237.264,76.6177 227.5,81C 229.235,81.6514 230.902,81.4847 232.5,80.5C 233.645,81.7757 233.645,83.109 232.5,84.5C 235.822,85.2191 238.488,86.8857 240.5,89.5C 243.676,90.9971 246.342,90.3304 248.5,87.5C 249.386,88.325 249.719,89.325 249.5,90.5C 245.726,90.4836 244.726,92.1503 246.5,95.5C 243.553,96.3214 240.553,96.8214 237.5,97C 243.301,99.1338 249.301,100.3 255.5,100.5C 255.5,102.5 255.5,104.5 255.5,106.5C 253.952,106.179 253.285,105.179 253.5,103.5C 250.71,103.778 248.21,103.111 246,101.5C 245.098,101.743 244.265,102.077 243.5,102.5C 240.123,102.041 236.789,101.374 233.5,100.5C 232.589,96.0017 231.089,91.6683 229,87.5C 225.877,85.9022 225.044,86.5689 226.5,89.5C 225.833,89.1667 225.167,88.8333 224.5,88.5C 224.5,88.1667 224.5,87.8333 224.5,87.5C 223,84.9556 221.333,82.6223 219.5,80.5C 219.833,79.8333 220.167,79.1667 220.5,78.5C 225.17,78.4889 229.503,77.4889 233.5,75.5C 239.731,72.2252 245.397,68.2252 250.5,63.5C 252.167,62.1667 253.833,60.8333 255.5,59.5 Z"/></g>
<g><path style="opacity:1" fill="#450e0b" d="M 166.5,75.5 C 168.014,77.364 169.347,79.364 170.5,81.5C 170.735,82.0967 171.235,82.4301 172,82.5C 173.011,81.9444 173.844,81.2778 174.5,80.5C 174.328,81.4916 174.662,82.1583 175.5,82.5C 172.167,85.1667 168.833,85.1667 165.5,82.5C 166.649,82.2089 167.316,81.3756 167.5,80C 167.227,78.4672 166.894,76.9672 166.5,75.5 Z"/></g>
<g><path style="opacity:1" fill="#851208" d="M 194.5,68.5 C 195.5,68.5 196.5,68.5 197.5,68.5C 197.263,69.791 197.596,70.791 198.5,71.5C 197.96,74.8647 197.294,78.198 196.5,81.5C 195.549,82.9187 195.216,84.5853 195.5,86.5C 193.96,88.8383 193.294,91.5049 193.5,94.5C 193.167,95.1667 192.833,95.8333 192.5,96.5C 191.624,96.6309 190.957,96.2975 190.5,95.5C 191.623,93.5184 191.623,91.5184 190.5,89.5C 191.553,84.1945 192.053,78.8612 192,73.5C 189.287,75.7195 186.454,77.7195 183.5,79.5C 182.833,79.5 182.5,79.1667 182.5,78.5C 186.817,75.5136 190.817,72.1803 194.5,68.5 Z"/></g>
<g><path style="opacity:1" fill="#d0c4aa" d="M 56.5,76.5 C 56.8652,78.588 56.8652,80.9213 56.5,83.5C 50.0781,85.6568 43.4115,87.3235 36.5,88.5C 33.17,87.8493 32.8367,86.516 35.5,84.5C 40.6249,83.4407 44.9583,81.1073 48.5,77.5C 51.0545,76.612 53.7212,76.2786 56.5,76.5 Z"/></g>
<g><path style="opacity:1" fill="#3d100b" d="M 219.5,80.5 C 221.333,82.6223 223,84.9556 224.5,87.5C 222.167,87.5 219.833,87.5 217.5,87.5C 216.599,86.7095 215.932,85.7095 215.5,84.5C 216.167,83.5 216.833,82.5 217.5,81.5C 218.167,81.1667 218.833,80.8333 219.5,80.5 Z"/></g>
<g><path style="opacity:1" fill="#100b06" d="M 190.5,89.5 C 189.136,97.0887 186.636,104.422 183,111.5C 181.985,115.44 181.485,119.44 181.5,123.5C 180.732,124.263 180.232,125.263 180,126.5C 178.725,120.846 177.559,115.18 176.5,109.5C 175.167,103.833 175.167,98.1667 176.5,92.5C 177.636,88.0412 179.636,84.0412 182.5,80.5C 183.167,80.5 183.5,80.1667 183.5,79.5C 186.454,77.7195 189.287,75.7195 192,73.5C 192.053,78.8612 191.553,84.1945 190.5,89.5 Z"/></g>
<g><path style="opacity:1" fill="#201a13" d="M 255.5,65.5 C 255.5,77.1667 255.5,88.8333 255.5,100.5C 249.301,100.3 243.301,99.1338 237.5,97C 240.553,96.8214 243.553,96.3214 246.5,95.5C 244.726,92.1503 245.726,90.4836 249.5,90.5C 249.719,89.325 249.386,88.325 248.5,87.5C 246.342,90.3304 243.676,90.9971 240.5,89.5C 238.488,86.8857 235.822,85.2191 232.5,84.5C 233.645,83.109 233.645,81.7757 232.5,80.5C 230.902,81.4847 229.235,81.6514 227.5,81C 237.264,76.6177 246.598,71.451 255.5,65.5 Z"/></g>
<g><path style="opacity:1" fill="#7e4f2b" d="M 22.5,45.5 C 24.5368,46.8465 26.5368,48.1798 28.5,49.5C 27.8826,49.6107 27.3826,49.944 27,50.5C 26.2036,57.9131 26.3703,65.2465 27.5,72.5C 27.8993,76.1165 28.8993,79.4498 30.5,82.5C 26.7335,84.5572 23.0668,86.8906 19.5,89.5C 18.8333,89.8333 18.1667,90.1667 17.5,90.5C 12.8145,86.8096 8.14786,83.1429 3.5,79.5C 2.5,77.8333 1.16667,76.5 -0.5,75.5C -0.5,72.8333 -0.5,70.1667 -0.5,67.5C 1.19981,67.3739 2.69981,66.7073 4,65.5C 4.87318,65.7355 5.70651,66.0688 6.5,66.5C 6.04584,76.0594 10.0458,78.726 18.5,74.5C 19.2685,70.5548 19.7685,66.5548 20,62.5C 20.6667,61.8333 21.3333,61.1667 22,60.5C 22.4986,56.8484 22.6653,53.1817 22.5,49.5C 22.5,48.1667 22.5,46.8333 22.5,45.5 Z"/></g>
<g><path style="opacity:1" fill="#24201c" d="M 59.5,73.5 C 60.9187,74.4511 62.5853,74.7845 64.5,74.5C 64.3342,79.1785 64.5008,83.8452 65,88.5C 65.3333,88.8333 65.6667,89.1667 66,89.5C 66.1909,87.2922 66.6909,85.2922 67.5,83.5C 67.5,85.8333 67.5,88.1667 67.5,90.5C 64.3945,89.2667 61.3945,89.4334 58.5,91C 57.9011,92.6225 57.2344,94.1225 56.5,95.5C 56.5,93.8333 56.5,92.1667 56.5,90.5C 56.5,88.1667 56.5,85.8333 56.5,83.5C 56.8652,80.9213 56.8652,78.588 56.5,76.5C 57.5,75.5 58.5,74.5 59.5,73.5 Z"/></g>
<g><path style="opacity:1" fill="#311a06" d="M 139.5,81.5 C 139.938,81.4346 140.272,81.6012 140.5,82C 139.5,82.8333 138.5,83.6667 137.5,84.5C 138.333,84.8333 139.167,85.1667 140,85.5C 143.85,84.3483 147.683,84.3483 151.5,85.5C 150.051,86.1719 148.718,86.8386 147.5,87.5C 143.818,87.3347 140.152,87.5014 136.5,88C 134.473,89.8793 132.14,91.046 129.5,91.5C 129.543,94.9099 129.043,98.2432 128,101.5C 126.923,99.884 126.423,98.0507 126.5,96C 126.125,86.8889 130.458,82.0555 139.5,81.5 Z"/></g>
<g><path style="opacity:1" fill="#190b03" d="M 100.5,56.5 C 104.408,64.4019 106.742,72.7353 107.5,81.5C 108.959,84.9237 110.292,88.4237 111.5,92C 111.43,92.7648 111.097,93.2648 110.5,93.5C 109.531,91.337 108.698,89.0037 108,86.5C 107.667,89.5 107.333,92.5 107,95.5C 104.561,93.9732 102.561,91.9732 101,89.5C 100.667,89.8333 100.333,90.1667 100,90.5C 96.2017,87.7925 92.2017,85.4592 88,83.5C 87.5004,76.8417 87.3337,70.175 87.5,63.5C 88.391,64.1098 89.391,64.4431 90.5,64.5C 91.9676,67.2777 92.801,70.2777 93,73.5C 94,74.5 95,75.5 96,76.5C 98.4442,70.0114 99.9442,63.3447 100.5,56.5 Z"/></g>
<g><path style="opacity:1" fill="#e3cfc1" d="M 203.5,84.5 C 204.5,84.5 205.5,84.5 206.5,84.5C 208.25,85.8698 210.25,86.8698 212.5,87.5C 213.922,88.925 215.589,89.925 217.5,90.5C 218.779,93.1117 220.445,95.4451 222.5,97.5C 222.157,99.2252 221.157,99.7252 219.5,99C 214.316,93.2379 207.982,89.2379 200.5,87C 199.833,86.3333 199.167,85.6667 198.5,85C 200.134,84.5065 201.801,84.3398 203.5,84.5 Z"/></g>
<g><path style="opacity:1" fill="#1c1817" d="M 215.5,84.5 C 215.932,85.7095 216.599,86.7095 217.5,87.5C 217.5,88.5 217.5,89.5 217.5,90.5C 215.589,89.925 213.922,88.925 212.5,87.5C 213.167,86.1667 214.167,85.1667 215.5,84.5 Z"/></g>
<g><path style="opacity:1" fill="#b4a186" d="M 48.5,77.5 C 44.9583,81.1073 40.6249,83.4407 35.5,84.5C 32.8367,86.516 33.17,87.8493 36.5,88.5C 30.8888,91.7065 24.8888,93.0399 18.5,92.5C 19.1272,91.5832 19.4606,90.5832 19.5,89.5C 23.0668,86.8906 26.7335,84.5572 30.5,82.5C 33.4432,82.0198 36.1098,81.0198 38.5,79.5C 41.6939,78.2424 45.0272,77.5758 48.5,77.5 Z"/></g>
<g><path style="opacity:1" fill="#4a2c14" d="M 182.5,80.5 C 179.636,84.0412 177.636,88.0412 176.5,92.5C 176.5,91.8333 176.5,91.1667 176.5,90.5C 176.649,89.448 176.483,88.448 176,87.5C 173.574,89.4524 171.074,91.119 168.5,92.5C 165.287,92.81 162.287,92.4767 159.5,91.5C 161.199,91.6602 162.866,91.4935 164.5,91C 163.833,90.6667 163.167,90.3333 162.5,90C 165.797,89.7963 168.797,88.963 171.5,87.5C 175.308,85.4271 178.974,83.0938 182.5,80.5 Z"/></g>
<g><path style="opacity:1" fill="#800b02" d="M 122.5,79.5 C 121.163,81.3495 120.497,83.5161 120.5,86C 121.316,96.4919 121.983,106.992 122.5,117.5C 121.728,116.306 120.728,115.306 119.5,114.5C 119.091,110.124 118.425,105.79 117.5,101.5C 116.953,94.4848 116.287,87.4848 115.5,80.5C 115.5,78.8333 115.5,77.1667 115.5,75.5C 115.5,74.5 115.5,73.5 115.5,72.5C 117.833,71.8333 120.167,71.1667 122.5,70.5C 122.5,73.5 122.5,76.5 122.5,79.5 Z"/></g>
<g><path style="opacity:1" fill="#410e07" d="M 144.5,89.5 C 142.801,89.3398 141.134,89.5065 139.5,90C 142.084,90.8602 144.417,92.0269 146.5,93.5C 144.194,93.0074 141.861,92.6741 139.5,92.5C 139.5,94.1667 139.5,95.8333 139.5,97.5C 137.958,96.6993 136.292,96.366 134.5,96.5C 134.459,89.1937 137.793,86.8604 144.5,89.5 Z"/></g>
<g><path style="opacity:1" fill="#887e6b" d="M 56.5,83.5 C 56.5,85.8333 56.5,88.1667 56.5,90.5C 41.6204,91.4148 26.9537,93.7482 12.5,97.5C 11.8933,97.3764 11.56,97.0431 11.5,96.5C 13.8061,94.8606 15.8061,92.8606 17.5,90.5C 18.1667,90.1667 18.8333,89.8333 19.5,89.5C 19.4606,90.5832 19.1272,91.5832 18.5,92.5C 24.8888,93.0399 30.8888,91.7065 36.5,88.5C 43.4115,87.3235 50.0781,85.6568 56.5,83.5 Z"/></g>
<g><path style="opacity:1" fill="#814946" d="M 176.5,90.5 C 175.833,90.5 175.167,90.5 174.5,90.5C 173.288,91.2299 172.288,92.2299 171.5,93.5C 170.583,92.8728 169.583,92.5394 168.5,92.5C 171.074,91.119 173.574,89.4524 176,87.5C 176.483,88.448 176.649,89.448 176.5,90.5 Z"/></g>
<g><path style="opacity:1" fill="#5c1e0e" d="M 217.5,87.5 C 219.833,87.5 222.167,87.5 224.5,87.5C 224.5,87.8333 224.5,88.1667 224.5,88.5C 221.954,89.9787 221.954,91.4787 224.5,93C 221.972,94.3159 221.972,95.4826 224.5,96.5C 225.736,95.7542 227.07,95.4208 228.5,95.5C 227.789,97.0301 226.789,98.3634 225.5,99.5C 225.167,99.5 224.833,99.5 224.5,99.5C 224.167,98.5 223.5,97.8333 222.5,97.5C 220.445,95.4451 218.779,93.1117 217.5,90.5C 217.5,89.5 217.5,88.5 217.5,87.5 Z"/></g>
<g><path style="opacity:1" fill="#692a23" d="M 144.5,89.5 C 146.167,89.5 147.833,89.5 149.5,89.5C 152.544,91.0114 155.878,91.678 159.5,91.5C 162.287,92.4767 165.287,92.81 168.5,92.5C 168.443,93.609 168.11,94.609 167.5,95.5C 166.609,96.1098 165.609,96.4431 164.5,96.5C 163.012,94.1546 161.012,93.8212 158.5,95.5C 157.833,94.8333 157.167,94.1667 156.5,93.5C 154.872,92.1472 153.538,92.4805 152.5,94.5C 151.609,93.8902 150.609,93.5569 149.5,93.5C 148.5,93.5 147.5,93.5 146.5,93.5C 144.417,92.0269 142.084,90.8602 139.5,90C 141.134,89.5065 142.801,89.3398 144.5,89.5 Z"/></g>
<g><path style="opacity:1" fill="#898171" d="M 195.5,86.5 C 197.305,88.1969 199.639,89.0302 202.5,89C 204.865,90.7895 206.532,92.9561 207.5,95.5C 202.672,97.1227 198.005,96.7894 193.5,94.5C 193.294,91.5049 193.96,88.8383 195.5,86.5 Z"/></g>
<g><path style="opacity:1" fill="#3b342c" d="M 56.5,90.5 C 56.5,92.1667 56.5,93.8333 56.5,95.5C 52.8212,95.7244 49.1545,96.0578 45.5,96.5C 37.3363,97.2761 29.3363,98.2761 21.5,99.5C 17.2447,99.5842 13.078,100.251 9,101.5C 7.81487,99.3657 8.64821,97.699 11.5,96.5C 11.56,97.0431 11.8933,97.3764 12.5,97.5C 26.9537,93.7482 41.6204,91.4148 56.5,90.5 Z"/></g>
<g><path style="opacity:1" fill="#a99b86" d="M 196.5,81.5 C 197.167,81.5 197.833,81.5 198.5,81.5C 200.42,82.0652 202.087,83.0652 203.5,84.5C 201.801,84.3398 200.134,84.5065 198.5,85C 199.167,85.6667 199.833,86.3333 200.5,87C 207.982,89.2379 214.316,93.2379 219.5,99C 221.157,99.7252 222.157,99.2252 222.5,97.5C 223.5,97.8333 224.167,98.5 224.5,99.5C 223.081,100.451 221.415,100.784 219.5,100.5C 218.167,100.5 216.833,100.5 215.5,100.5C 209.03,99.3044 202.363,98.6377 195.5,98.5C 193.821,98.7148 192.821,98.0481 192.5,96.5C 192.833,95.8333 193.167,95.1667 193.5,94.5C 198.005,96.7894 202.672,97.1227 207.5,95.5C 206.532,92.9561 204.865,90.7895 202.5,89C 199.639,89.0302 197.305,88.1969 195.5,86.5C 195.216,84.5853 195.549,82.9187 196.5,81.5 Z"/></g>
<g><path style="opacity:1" fill="#5d3129" d="M 224.5,88.5 C 225.167,88.8333 225.833,89.1667 226.5,89.5C 226.971,91.5786 227.637,93.5786 228.5,95.5C 227.07,95.4208 225.736,95.7542 224.5,96.5C 221.972,95.4826 221.972,94.3159 224.5,93C 221.954,91.4787 221.954,89.9787 224.5,88.5 Z"/></g>
<g><path style="opacity:1" fill="#a9926a" d="M 149.5,94.5 C 149.674,96.861 150.007,99.1944 150.5,101.5C 148.901,101.768 147.568,101.434 146.5,100.5C 146.5,98.5 146.5,96.5 146.5,94.5C 147.5,94.5 148.5,94.5 149.5,94.5 Z"/></g>
<g><path style="opacity:1" fill="#755e41" d="M 146.5,93.5 C 147.5,93.5 148.5,93.5 149.5,93.5C 149.5,93.8333 149.5,94.1667 149.5,94.5C 148.5,94.5 147.5,94.5 146.5,94.5C 146.5,96.5 146.5,98.5 146.5,100.5C 145.417,100.539 144.417,100.873 143.5,101.5C 142.148,100.476 140.815,99.4756 139.5,98.5C 139.5,98.1667 139.5,97.8333 139.5,97.5C 139.5,95.8333 139.5,94.1667 139.5,92.5C 141.861,92.6741 144.194,93.0074 146.5,93.5 Z"/></g>
<g><path style="opacity:1" fill="#9c835c" d="M 156.5,93.5 C 156.975,96.0821 156.308,98.0821 154.5,99.5C 152.744,98.4479 152.077,96.7812 152.5,94.5C 153.538,92.4805 154.872,92.1472 156.5,93.5 Z"/></g>
<g><path style="opacity:1" fill="#b3a482" d="M 164.5,96.5 C 164.5,98.1667 164.5,99.8333 164.5,101.5C 162.5,101.5 160.5,101.5 158.5,101.5C 158.5,101.167 158.5,100.833 158.5,100.5C 158.5,98.8333 158.5,97.1667 158.5,95.5C 161.012,93.8212 163.012,94.1546 164.5,96.5 Z"/></g>
<g><path style="opacity:1" fill="#c4b2a8" d="M 174.5,90.5 C 174.02,95.6406 171.354,98.9739 166.5,100.5C 166.629,98.7839 166.962,97.1172 167.5,95.5C 168.11,94.609 168.443,93.609 168.5,92.5C 169.583,92.5394 170.583,92.8728 171.5,93.5C 172.288,92.2299 173.288,91.2299 174.5,90.5 Z"/></g>
<g><path style="opacity:1" fill="#231d17" d="M 91.5,95.5 C 97.0617,96.6361 100.395,99.9694 101.5,105.5C 101.43,106.772 101.097,107.938 100.5,109C 96.3431,111.664 92.3431,114.497 88.5,117.5C 88.1667,117.5 87.8333,117.5 87.5,117.5C 86.1667,116.167 84.8333,114.833 83.5,113.5C 81.5818,110.974 79.2485,108.974 76.5,107.5C 78.1184,105.684 80.1184,104.351 82.5,103.5C 83.7915,106.401 85.7915,108.734 88.5,110.5C 88.8333,110.167 89.1667,109.833 89.5,109.5C 87.4572,106.989 85.7906,104.322 84.5,101.5C 87.0196,99.7368 89.3529,97.7368 91.5,95.5 Z"/></g>
<g><path style="opacity:1" fill="#564335" d="M 156.5,93.5 C 157.167,94.1667 157.833,94.8333 158.5,95.5C 158.5,97.1667 158.5,98.8333 158.5,100.5C 156.901,100.768 155.568,100.434 154.5,99.5C 156.308,98.0821 156.975,96.0821 156.5,93.5 Z"/></g>
<g><path style="opacity:1" fill="#998375" d="M 174.5,90.5 C 175.167,90.5 175.833,90.5 176.5,90.5C 176.5,91.1667 176.5,91.8333 176.5,92.5C 175.167,98.1667 175.167,103.833 176.5,109.5C 175.662,109.842 175.328,110.508 175.5,111.5C 174.833,111.5 174.5,111.167 174.5,110.5C 174.675,108.379 174.341,106.379 173.5,104.5C 173.719,103.325 173.386,102.325 172.5,101.5C 171.735,102.612 170.735,103.279 169.5,103.5C 168.9,102.1 167.9,101.1 166.5,100.5C 171.354,98.9739 174.02,95.6406 174.5,90.5 Z"/></g>
<g><path style="opacity:1" fill="#7f2723" d="M 122.5,79.5 C 122.838,93.5506 123.838,107.551 125.5,121.5C 125.719,122.675 125.386,123.675 124.5,124.5C 123.056,122.392 122.39,120.059 122.5,117.5C 121.983,106.992 121.316,96.4919 120.5,86C 120.497,83.5161 121.163,81.3495 122.5,79.5 Z"/></g>
<g><path style="opacity:1" fill="#2f211a" d="M 149.5,93.5 C 150.609,93.5569 151.609,93.8902 152.5,94.5C 152.077,96.7812 152.744,98.4479 154.5,99.5C 155.568,100.434 156.901,100.768 158.5,100.5C 158.5,100.833 158.5,101.167 158.5,101.5C 158.5,101.833 158.5,102.167 158.5,102.5C 158.167,102.5 157.833,102.5 157.5,102.5C 156.081,101.549 154.415,101.216 152.5,101.5C 152.992,105.29 152.159,105.956 150,103.5C 149.667,103.833 149.333,104.167 149,104.5C 146.734,103.044 144.234,102.21 141.5,102C 140.619,101.292 139.953,100.458 139.5,99.5C 139.5,99.1667 139.5,98.8333 139.5,98.5C 140.815,99.4756 142.148,100.476 143.5,101.5C 144.417,100.873 145.417,100.539 146.5,100.5C 147.568,101.434 148.901,101.768 150.5,101.5C 150.007,99.1944 149.674,96.861 149.5,94.5C 149.5,94.1667 149.5,93.8333 149.5,93.5 Z"/></g>
<g><path style="opacity:1" fill="#1e0e08" d="M 215.5,100.5 C 216.833,100.5 218.167,100.5 219.5,100.5C 219.918,101.222 220.584,101.722 221.5,102C 219.683,103.8 218.516,105.966 218,108.5C 216.185,110.405 214.185,112.072 212,113.5C 211.501,117.821 211.334,122.154 211.5,126.5C 210.572,129.454 209.739,132.454 209,135.5C 206.92,138.065 205.087,140.732 203.5,143.5C 195.5,143.5 187.5,143.5 179.5,143.5C 181.452,140.336 184.119,137.836 187.5,136C 186.328,135.581 185.328,134.915 184.5,134C 187.879,132.361 190.212,129.861 191.5,126.5C 192.5,126.5 193.5,126.5 194.5,126.5C 194.622,122.853 196.288,120.019 199.5,118C 199.167,117.667 198.833,117.333 198.5,117C 200.246,116.529 201.913,115.862 203.5,115C 202.672,114.085 201.672,113.419 200.5,113C 202.5,111.333 204.5,109.667 206.5,108C 205.346,107.086 205.513,106.253 207,105.5C 207.333,105.833 207.667,106.167 208,106.5C 209.694,104.76 210.861,102.76 211.5,100.5C 212.833,100.5 214.167,100.5 215.5,100.5 Z"/></g>
<g><path style="opacity:1" fill="#2d0600" d="M 47.5,100.5 C 50.0157,102.523 52.0157,105.023 53.5,108C 57.4171,110.774 61.4171,113.274 65.5,115.5C 65.5,115.833 65.5,116.167 65.5,116.5C 64.1667,117.5 62.8333,118.5 61.5,119.5C 59.9382,119.267 58.6049,118.6 57.5,117.5C 51.238,113.246 45.238,108.58 39.5,103.5C 39.5,102.5 39.5,101.5 39.5,100.5C 42.1667,100.5 44.8333,100.5 47.5,100.5 Z"/></g>
<g><path style="opacity:1" fill="#634c45" d="M 167.5,95.5 C 166.962,97.1172 166.629,98.7839 166.5,100.5C 167.9,101.1 168.9,102.1 169.5,103.5C 169.167,103.5 168.833,103.5 168.5,103.5C 166.167,103.5 163.833,103.5 161.5,103.5C 160.391,103.443 159.391,103.11 158.5,102.5C 158.5,102.167 158.5,101.833 158.5,101.5C 160.5,101.5 162.5,101.5 164.5,101.5C 164.5,99.8333 164.5,98.1667 164.5,96.5C 165.609,96.4431 166.609,96.1098 167.5,95.5 Z"/></g>
<g><path style="opacity:1" fill="#221309" d="M 45.5,96.5 C 45.7329,98.0618 46.3995,99.3951 47.5,100.5C 44.8333,100.5 42.1667,100.5 39.5,100.5C 39.5,101.5 39.5,102.5 39.5,103.5C 38.325,103.281 37.325,103.614 36.5,104.5C 37.6155,105.598 37.6155,106.765 36.5,108C 36.7591,109.261 37.4258,110.261 38.5,111C 36.5826,110.973 34.916,110.139 33.5,108.5C 33.1667,108.833 32.8333,109.167 32.5,109.5C 33.3829,110.548 34.0496,111.715 34.5,113C 34.1639,114.03 33.4972,114.53 32.5,114.5C 31.607,112.703 30.2737,111.37 28.5,110.5C 28.6309,109.624 28.2975,108.957 27.5,108.5C 26.3914,109.59 25.3914,109.59 24.5,108.5C 26.5204,105.784 26.8537,102.784 25.5,99.5C 24.1667,99.5 22.8333,99.5 21.5,99.5C 29.3363,98.2761 37.3363,97.2761 45.5,96.5 Z"/></g>
<g><path style="opacity:1" fill="#6e4a3b" d="M 139.5,99.5 C 139.953,100.458 140.619,101.292 141.5,102C 144.234,102.21 146.734,103.044 149,104.5C 149.333,104.167 149.667,103.833 150,103.5C 152.159,105.956 152.992,105.29 152.5,101.5C 154.415,101.216 156.081,101.549 157.5,102.5C 157.5,104.167 157.5,105.833 157.5,107.5C 156.167,107.5 154.833,107.5 153.5,107.5C 149.71,108.101 146.544,107.101 144,104.5C 143.29,105.973 142.124,106.64 140.5,106.5C 140.33,103.796 138.997,102.129 136.5,101.5C 135.438,100.425 135.438,99.4246 136.5,98.5C 137.417,99.1272 138.417,99.4606 139.5,99.5 Z"/></g>
<g><path style="opacity:1" fill="#645844" d="M 84.5,101.5 C 85.7906,104.322 87.4572,106.989 89.5,109.5C 89.1667,109.833 88.8333,110.167 88.5,110.5C 85.7915,108.734 83.7915,106.401 82.5,103.5C 82.8333,102.5 83.5,101.833 84.5,101.5 Z"/></g>
<g><path style="opacity:1" fill="#0e0804" d="M 3.5,79.5 C 8.14786,83.1429 12.8145,86.8096 17.5,90.5C 15.8061,92.8606 13.8061,94.8606 11.5,96.5C 8.64821,97.699 7.81487,99.3657 9,101.5C 13.078,100.251 17.2447,99.5842 21.5,99.5C 22.8333,99.5 24.1667,99.5 25.5,99.5C 26.8537,102.784 26.5204,105.784 24.5,108.5C 25.3914,109.59 26.3914,109.59 27.5,108.5C 28.2975,108.957 28.6309,109.624 28.5,110.5C 26.0365,112.461 23.7032,114.628 21.5,117C 12.1561,117.833 4.82274,122 -0.5,129.5C -0.5,118.833 -0.5,108.167 -0.5,97.5C 0.793048,96.158 1.62638,94.4913 2,92.5C 2.17526,87.9805 2.67526,83.6472 3.5,79.5 Z"/></g>
<g><path style="opacity:1" fill="#5d3029" d="M 173.5,104.5 C 169.507,106.899 165.173,108.565 160.5,109.5C 157.92,109.276 155.586,108.609 153.5,107.5C 154.833,107.5 156.167,107.5 157.5,107.5C 157.5,105.833 157.5,104.167 157.5,102.5C 157.833,102.5 158.167,102.5 158.5,102.5C 159.391,103.11 160.391,103.443 161.5,103.5C 161.141,105.371 160.141,106.871 158.5,108C 161.491,107.695 164.491,107.028 167.5,106C 168.252,105.329 168.586,104.496 168.5,103.5C 168.833,103.5 169.167,103.5 169.5,103.5C 170.735,103.279 171.735,102.612 172.5,101.5C 173.386,102.325 173.719,103.325 173.5,104.5 Z"/></g>
<g><path style="opacity:1" fill="#6f241c" d="M 161.5,103.5 C 163.833,103.5 166.167,103.5 168.5,103.5C 168.586,104.496 168.252,105.329 167.5,106C 164.491,107.028 161.491,107.695 158.5,108C 160.141,106.871 161.141,105.371 161.5,103.5 Z"/></g>
<g><path style="opacity:1" fill="#281715" d="M 153.5,107.5 C 155.586,108.609 157.92,109.276 160.5,109.5C 165.173,108.565 169.507,106.899 173.5,104.5C 174.341,106.379 174.675,108.379 174.5,110.5C 170.132,110.976 165.799,111.31 161.5,111.5C 154.218,112.994 146.885,113.827 139.5,114C 138.643,113.311 137.977,112.478 137.5,111.5C 137.784,109.241 138.784,107.574 140.5,106.5C 142.124,106.64 143.29,105.973 144,104.5C 146.544,107.101 149.71,108.101 153.5,107.5 Z"/></g>
<g><path style="opacity:1" fill="#3a322d" d="M 224.5,99.5 C 224.833,99.5 225.167,99.5 225.5,99.5C 227.113,100.838 227.613,102.505 227,104.5C 224.487,108.858 221.487,112.858 218,116.5C 217.506,118.134 217.34,119.801 217.5,121.5C 215.958,120.699 214.292,120.366 212.5,120.5C 212.5,122.5 212.5,124.5 212.5,126.5C 212.167,126.5 211.833,126.5 211.5,126.5C 211.334,122.154 211.501,117.821 212,113.5C 214.185,112.072 216.185,110.405 218,108.5C 218.516,105.966 219.683,103.8 221.5,102C 220.584,101.722 219.918,101.222 219.5,100.5C 221.415,100.784 223.081,100.451 224.5,99.5 Z"/></g>
<g><path style="opacity:1" fill="#352f2a" d="M 243.5,102.5 C 247.929,105.093 251.596,108.593 254.5,113C 250.947,113.003 247.447,113.836 244,115.5C 242.56,114.852 241.06,114.519 239.5,114.5C 236.668,111.822 233.501,109.488 230,107.5C 229.667,105.953 230.167,104.62 231.5,103.5C 229.736,101.722 227.736,100.389 225.5,99.5C 226.789,98.3634 227.789,97.0301 228.5,95.5C 227.637,93.5786 226.971,91.5786 226.5,89.5C 225.044,86.5689 225.877,85.9022 229,87.5C 231.089,91.6683 232.589,96.0017 233.5,100.5C 236.789,101.374 240.123,102.041 243.5,102.5 Z"/></g>
<g><path style="opacity:1" fill="#3b2514" d="M 39.5,103.5 C 45.238,108.58 51.238,113.246 57.5,117.5C 56.6015,121.914 54.2682,122.747 50.5,120C 49.2904,116.887 47.2904,114.387 44.5,112.5C 43.0981,112.865 42.0981,113.699 41.5,115C 42.1476,116.44 42.4809,117.94 42.5,119.5C 41.5,119.5 40.5,119.5 39.5,119.5C 39.7845,121.415 39.4511,123.081 38.5,124.5C 36.5,123.833 35.1667,122.5 34.5,120.5C 33.2702,118.703 32.6036,116.703 32.5,114.5C 33.4972,114.53 34.1639,114.03 34.5,113C 34.0496,111.715 33.3829,110.548 32.5,109.5C 32.8333,109.167 33.1667,108.833 33.5,108.5C 34.916,110.139 36.5826,110.973 38.5,111C 37.4258,110.261 36.7591,109.261 36.5,108C 37.6155,106.765 37.6155,105.598 36.5,104.5C 37.325,103.614 38.325,103.281 39.5,103.5 Z"/></g>
<g><path style="opacity:1" fill="#554433" d="M 76.5,107.5 C 76.2914,108.922 75.7914,110.255 75,111.5C 72.8697,112.141 71.3697,113.474 70.5,115.5C 68.9547,116.452 67.288,116.785 65.5,116.5C 65.5,116.167 65.5,115.833 65.5,115.5C 69.3438,113.078 73.0105,110.411 76.5,107.5 Z"/></g>
<g><path style="opacity:1" fill="#c2b4a1" d="M 189.5,107.5 C 192.786,110.4 194.786,114.067 195.5,118.5C 192.211,117.626 188.877,116.959 185.5,116.5C 186.452,113.303 187.785,110.303 189.5,107.5 Z"/></g>
<g><path style="opacity:1" fill="#0e0503" d="M 87.5,55.5 C 87.5,58.1667 87.5,60.8333 87.5,63.5C 87.3337,70.175 87.5004,76.8417 88,83.5C 92.2017,85.4592 96.2017,87.7925 100,90.5C 100.333,90.1667 100.667,89.8333 101,89.5C 102.561,91.9732 104.561,93.9732 107,95.5C 107.333,92.5 107.667,89.5 108,86.5C 108.698,89.0037 109.531,91.337 110.5,93.5C 110.937,95.0744 111.937,96.2411 113.5,97C 114.449,97.6172 115.282,97.4506 116,96.5C 116.198,98.3817 116.698,100.048 117.5,101.5C 118.425,105.79 119.091,110.124 119.5,114.5C 119.704,117.518 120.037,120.518 120.5,123.5C 119.026,122.564 118.026,121.23 117.5,119.5C 116.66,117.147 115.326,115.147 113.5,113.5C 112.018,115.483 110.351,117.316 108.5,119C 110.211,121.519 112.545,123.019 115.5,123.5C 117.123,124.779 118.79,126.113 120.5,127.5C 121.298,127.043 121.631,126.376 121.5,125.5C 123.532,126.048 124.532,127.381 124.5,129.5C 122.5,129.5 120.5,129.5 118.5,129.5C 115.323,128.553 112.323,127.219 109.5,125.5C 108.479,126.002 108.312,126.668 109,127.5C 111.438,128.568 113.605,129.902 115.5,131.5C 115.414,132.496 115.748,133.329 116.5,134C 115.833,134.333 115.167,134.667 114.5,135C 117.695,135.181 120.695,135.681 123.5,136.5C 119.167,136.5 114.833,136.5 110.5,136.5C 108.309,132.955 105.642,129.622 102.5,126.5C 98.6822,128.805 96.3488,132.138 95.5,136.5C 94.3556,138.1 93.1889,139.767 92,141.5C 90.5187,140.529 89.6854,139.196 89.5,137.5C 90.5,137.5 91.5,137.5 92.5,137.5C 92.67,136.178 92.3366,135.011 91.5,134C 85.7587,131.808 80.7587,128.641 76.5,124.5C 78.7128,123.227 81.0462,122.227 83.5,121.5C 86.6114,125.319 90.6114,127.652 95.5,128.5C 95.7989,126.396 95.4656,124.396 94.5,122.5C 92.0592,121.291 90.0592,119.624 88.5,117.5C 92.3431,114.497 96.3431,111.664 100.5,109C 101.097,107.938 101.43,106.772 101.5,105.5C 100.395,99.9694 97.0617,96.6361 91.5,95.5C 88.2927,93.4528 85.9593,90.6194 84.5,87C 85.8965,82.9551 86.5632,78.7884 86.5,74.5C 85.7572,68.5043 85.5906,62.5043 86,56.5C 86.3826,55.944 86.8826,55.6107 87.5,55.5 Z"/></g>
<g><path style="opacity:1" fill="#630e03" d="M 28.5,110.5 C 30.2737,111.37 31.607,112.703 32.5,114.5C 32.6036,116.703 33.2702,118.703 34.5,120.5C 32.5956,120.738 31.2623,121.738 30.5,123.5C 27.6394,127.888 25.3061,132.554 23.5,137.5C 22.2616,139.214 21.595,141.214 21.5,143.5C 14.1667,143.5 6.83333,143.5 -0.5,143.5C -0.5,138.833 -0.5,134.167 -0.5,129.5C 4.82274,122 12.1561,117.833 21.5,117C 23.7032,114.628 26.0365,112.461 28.5,110.5 Z"/></g>
<g><path style="opacity:1" fill="#2e1d0f" d="M 57.5,117.5 C 58.6049,118.6 59.9382,119.267 61.5,119.5C 57.1667,124.167 52.8333,128.833 48.5,133.5C 45.1667,130.5 41.8333,127.5 38.5,124.5C 39.4511,123.081 39.7845,121.415 39.5,119.5C 40.5,119.5 41.5,119.5 42.5,119.5C 42.4809,117.94 42.1476,116.44 41.5,115C 42.0981,113.699 43.0981,112.865 44.5,112.5C 47.2904,114.387 49.2904,116.887 50.5,120C 54.2682,122.747 56.6015,121.914 57.5,117.5 Z"/></g>
<g><path style="opacity:1" fill="#463d29" d="M 117.5,119.5 C 116.325,119.281 115.325,119.614 114.5,120.5C 115.127,121.417 115.461,122.417 115.5,123.5C 112.545,123.019 110.211,121.519 108.5,119C 110.351,117.316 112.018,115.483 113.5,113.5C 115.326,115.147 116.66,117.147 117.5,119.5 Z"/></g>
<g><path style="opacity:1" fill="#492b13" d="M 174.5,110.5 C 174.5,111.167 174.833,111.5 175.5,111.5C 174.299,113.909 172.633,115.909 170.5,117.5C 170.414,116.504 170.748,115.671 171.5,115C 168.94,115.214 166.274,115.214 163.5,115C 164.022,115.561 164.355,116.228 164.5,117C 163.402,119.46 162.402,121.96 161.5,124.5C 161.624,125.107 161.957,125.44 162.5,125.5C 162.167,126.167 161.833,126.833 161.5,127.5C 159.5,127.5 157.5,127.5 155.5,127.5C 156.765,126.521 158.099,125.521 159.5,124.5C 159.333,124.167 159.167,123.833 159,123.5C 153.73,125.931 150.896,124.265 150.5,118.5C 153.286,117.044 156.286,116.044 159.5,115.5C 160.853,114.476 161.52,113.143 161.5,111.5C 165.799,111.31 170.132,110.976 174.5,110.5 Z"/></g>
<g><path style="opacity:1" fill="#24100a" d="M 195.5,98.5 C 202.363,98.6377 209.03,99.3044 215.5,100.5C 214.167,100.5 212.833,100.5 211.5,100.5C 210.861,102.76 209.694,104.76 208,106.5C 207.667,106.167 207.333,105.833 207,105.5C 205.513,106.253 205.346,107.086 206.5,108C 204.5,109.667 202.5,111.333 200.5,113C 201.672,113.419 202.672,114.085 203.5,115C 201.913,115.862 200.246,116.529 198.5,117C 198.833,117.333 199.167,117.667 199.5,118C 196.288,120.019 194.622,122.853 194.5,126.5C 193.5,126.5 192.5,126.5 191.5,126.5C 190.212,129.861 187.879,132.361 184.5,134C 185.328,134.915 186.328,135.581 187.5,136C 184.119,137.836 181.452,140.336 179.5,143.5C 172.167,143.5 164.833,143.5 157.5,143.5C 157.5,143.167 157.5,142.833 157.5,142.5C 159.841,137.783 161.174,132.783 161.5,127.5C 161.833,126.833 162.167,126.167 162.5,125.5C 166.145,123.855 168.812,121.188 170.5,117.5C 172.633,115.909 174.299,113.909 175.5,111.5C 175.328,110.508 175.662,109.842 176.5,109.5C 177.559,115.18 178.725,120.846 180,126.5C 180.232,125.263 180.732,124.263 181.5,123.5C 181.343,124.873 181.51,126.207 182,127.5C 183.325,123.861 184.492,120.194 185.5,116.5C 188.877,116.959 192.211,117.626 195.5,118.5C 194.786,114.067 192.786,110.4 189.5,107.5C 189.932,103.41 191.932,100.41 195.5,98.5 Z"/></g>
<g><path style="opacity:1" fill="#796e5f" d="M 76.5,107.5 C 79.2485,108.974 81.5818,110.974 83.5,113.5C 83.5858,114.496 83.2524,115.329 82.5,116C 77.8757,117.31 73.8757,119.644 70.5,123C 68.0481,123.29 65.7148,123.956 63.5,125C 60.9167,126.776 58.4167,128.609 56,130.5C 55.5,130.333 55,130.167 54.5,130C 58.3135,125.491 61.9802,120.991 65.5,116.5C 67.288,116.785 68.9547,116.452 70.5,115.5C 71.3697,113.474 72.8697,112.141 75,111.5C 75.7914,110.255 76.2914,108.922 76.5,107.5 Z"/></g>
<g><path style="opacity:1" fill="#321909" d="M 136.5,101.5 C 138.997,102.129 140.33,103.796 140.5,106.5C 138.784,107.574 137.784,109.241 137.5,111.5C 137.977,112.478 138.643,113.311 139.5,114C 146.885,113.827 154.218,112.994 161.5,111.5C 161.52,113.143 160.853,114.476 159.5,115.5C 156.286,116.044 153.286,117.044 150.5,118.5C 150.896,124.265 153.73,125.931 159,123.5C 159.167,123.833 159.333,124.167 159.5,124.5C 158.099,125.521 156.765,126.521 155.5,127.5C 153.035,127.233 150.701,126.566 148.5,125.5C 147.778,124.449 146.778,123.782 145.5,123.5C 144.511,121.218 142.844,119.551 140.5,118.5C 140.709,117.914 141.043,117.414 141.5,117C 139.122,116.489 136.788,115.822 134.5,115C 133.12,113.075 131.62,111.241 130,109.5C 129.301,107.926 129.635,106.593 131,105.5C 131.415,107.291 132.415,108.624 134,109.5C 134.782,106.69 135.616,104.023 136.5,101.5 Z"/></g>
<g><path style="opacity:1" fill="#731009" d="M 190.5,89.5 C 191.623,91.5184 191.623,93.5184 190.5,95.5C 190.957,96.2975 191.624,96.6309 192.5,96.5C 192.821,98.0481 193.821,98.7148 195.5,98.5C 191.932,100.41 189.932,103.41 189.5,107.5C 187.785,110.303 186.452,113.303 185.5,116.5C 184.492,120.194 183.325,123.861 182,127.5C 181.51,126.207 181.343,124.873 181.5,123.5C 181.485,119.44 181.985,115.44 183,111.5C 186.636,104.422 189.136,97.0887 190.5,89.5 Z"/></g>
<g><path style="opacity:1" fill="#290500" d="M 87.5,117.5 C 87.8333,117.5 88.1667,117.5 88.5,117.5C 90.0592,119.624 92.0592,121.291 94.5,122.5C 95.4656,124.396 95.7989,126.396 95.5,128.5C 90.6114,127.652 86.6114,125.319 83.5,121.5C 84.8333,120.167 86.1667,118.833 87.5,117.5 Z"/></g>
<g><path style="opacity:1" fill="#865632" d="M 217.5,121.5 C 219.181,125.349 221.848,128.349 225.5,130.5C 223.562,132.163 221.228,132.829 218.5,132.5C 218.5,133.5 218.5,134.5 218.5,135.5C 216.856,135.714 215.356,135.38 214,134.5C 213.433,131.832 212.933,129.166 212.5,126.5C 212.5,124.5 212.5,122.5 212.5,120.5C 214.292,120.366 215.958,120.699 217.5,121.5 Z"/></g>
<g><path style="opacity:1" fill="#7f755e" d="M 117.5,119.5 C 118.026,121.23 119.026,122.564 120.5,123.5C 120.328,124.492 120.662,125.158 121.5,125.5C 121.631,126.376 121.298,127.043 120.5,127.5C 118.79,126.113 117.123,124.779 115.5,123.5C 115.461,122.417 115.127,121.417 114.5,120.5C 115.325,119.614 116.325,119.281 117.5,119.5 Z"/></g>
<g><path style="opacity:1" fill="#360804" d="M 119.5,114.5 C 120.728,115.306 121.728,116.306 122.5,117.5C 122.39,120.059 123.056,122.392 124.5,124.5C 125.386,123.675 125.719,122.675 125.5,121.5C 126.404,122.209 126.737,123.209 126.5,124.5C 131.476,123.408 136.476,122.408 141.5,121.5C 142.622,122.63 143.956,123.297 145.5,123.5C 144.263,125.097 142.596,126.263 140.5,127C 133.422,129.574 126.088,131.407 118.5,132.5C 117.584,132.457 116.917,132.124 116.5,131.5C 117.5,131.167 118.167,130.5 118.5,129.5C 120.5,129.5 122.5,129.5 124.5,129.5C 124.532,127.381 123.532,126.048 121.5,125.5C 120.662,125.158 120.328,124.492 120.5,123.5C 120.037,120.518 119.704,117.518 119.5,114.5 Z"/></g>
<g><path style="opacity:1" fill="#614b3c" d="M 170.5,117.5 C 168.812,121.188 166.145,123.855 162.5,125.5C 161.957,125.44 161.624,125.107 161.5,124.5C 162.402,121.96 163.402,119.46 164.5,117C 164.355,116.228 164.022,115.561 163.5,115C 166.274,115.214 168.94,115.214 171.5,115C 170.748,115.671 170.414,116.504 170.5,117.5 Z"/></g>
<g><path style="opacity:1" fill="#53463a" d="M 148.5,125.5 C 150.701,126.566 153.035,127.233 155.5,127.5C 156.516,132.667 157.182,137.667 157.5,142.5C 157.5,142.833 157.5,143.167 157.5,143.5C 155.5,143.5 153.5,143.5 151.5,143.5C 150.869,140.298 149.869,137.298 148.5,134.5C 148.5,133.167 148.5,131.833 148.5,130.5C 148.5,128.833 148.5,127.167 148.5,125.5 Z"/></g>
<g><path style="opacity:1" fill="#271e16" d="M 255.5,106.5 C 255.5,118.833 255.5,131.167 255.5,143.5C 252.833,143.5 250.167,143.5 247.5,143.5C 247.649,142.448 247.483,141.448 247,140.5C 245.287,139.122 243.953,137.455 243,135.5C 241.644,134.62 240.144,134.286 238.5,134.5C 239.219,132.305 238.219,130.805 235.5,130C 235.833,129.667 236.167,129.333 236.5,129C 232.707,127.932 229.041,126.432 225.5,124.5C 223.995,123.158 223.328,121.492 223.5,119.5C 226.397,119.875 229.063,119.375 231.5,118C 229.653,115.421 229.153,112.588 230,109.5C 233.076,111.426 236.242,113.092 239.5,114.5C 241.06,114.519 242.56,114.852 244,115.5C 247.447,113.836 250.947,113.003 254.5,113C 251.596,108.593 247.929,105.093 243.5,102.5C 244.265,102.077 245.098,101.743 246,101.5C 248.21,103.111 250.71,103.778 253.5,103.5C 253.285,105.179 253.952,106.179 255.5,106.5 Z"/></g>
<g><path style="opacity:1" fill="#370801" d="M 76.5,124.5 C 80.7587,128.641 85.7587,131.808 91.5,134C 92.3366,135.011 92.67,136.178 92.5,137.5C 91.5,137.5 90.5,137.5 89.5,137.5C 84.5556,135.028 79.5556,132.528 74.5,130C 73.1772,129.184 72.5106,128.017 72.5,126.5C 73.8333,125.833 75.1667,125.167 76.5,124.5 Z"/></g>
<g><path style="opacity:1" fill="#5e5647" d="M 118.5,129.5 C 118.167,130.5 117.5,131.167 116.5,131.5C 116.167,131.5 115.833,131.5 115.5,131.5C 113.605,129.902 111.438,128.568 109,127.5C 108.312,126.668 108.479,126.002 109.5,125.5C 112.323,127.219 115.323,128.553 118.5,129.5 Z"/></g>
<g><path style="opacity:1" fill="#887864" d="M 155.5,127.5 C 157.5,127.5 159.5,127.5 161.5,127.5C 161.174,132.783 159.841,137.783 157.5,142.5C 157.182,137.667 156.516,132.667 155.5,127.5 Z"/></g>
<g><path style="opacity:1" fill="#5a5245" d="M 83.5,113.5 C 84.8333,114.833 86.1667,116.167 87.5,117.5C 86.1667,118.833 84.8333,120.167 83.5,121.5C 81.0462,122.227 78.7128,123.227 76.5,124.5C 75.1667,125.167 73.8333,125.833 72.5,126.5C 65.0791,129.552 57.7458,132.552 50.5,135.5C 48.0065,135.869 47.3398,135.203 48.5,133.5C 52.8333,128.833 57.1667,124.167 61.5,119.5C 62.8333,118.5 64.1667,117.5 65.5,116.5C 61.9802,120.991 58.3135,125.491 54.5,130C 55,130.167 55.5,130.333 56,130.5C 58.4167,128.609 60.9167,126.776 63.5,125C 65.7148,123.956 68.0481,123.29 70.5,123C 73.8757,119.644 77.8757,117.31 82.5,116C 83.2524,115.329 83.5858,114.496 83.5,113.5 Z"/></g>
<g><path style="opacity:1" fill="#78291a" d="M 141.5,131.5 C 143.607,130.532 145.941,130.198 148.5,130.5C 148.5,131.833 148.5,133.167 148.5,134.5C 147.167,134.5 145.833,134.5 144.5,134.5C 144.5,133.5 144.5,132.5 144.5,131.5C 143.5,131.5 142.5,131.5 141.5,131.5 Z"/></g>
<g><path style="opacity:1" fill="#24100d" d="M 145.5,123.5 C 146.778,123.782 147.778,124.449 148.5,125.5C 148.5,127.167 148.5,128.833 148.5,130.5C 145.941,130.198 143.607,130.532 141.5,131.5C 139.421,131.971 137.421,132.637 135.5,133.5C 131.353,133.995 127.353,134.995 123.5,136.5C 120.695,135.681 117.695,135.181 114.5,135C 115.167,134.667 115.833,134.333 116.5,134C 115.748,133.329 115.414,132.496 115.5,131.5C 115.833,131.5 116.167,131.5 116.5,131.5C 116.917,132.124 117.584,132.457 118.5,132.5C 126.088,131.407 133.422,129.574 140.5,127C 142.596,126.263 144.263,125.097 145.5,123.5 Z"/></g>
<g><path style="opacity:1" fill="#6c3f1e" d="M 211.5,126.5 C 211.833,126.5 212.167,126.5 212.5,126.5C 212.933,129.166 213.433,131.832 214,134.5C 215.356,135.38 216.856,135.714 218.5,135.5C 218.5,134.5 218.5,133.5 218.5,132.5C 221.228,132.829 223.562,132.163 225.5,130.5C 230.865,132.652 230.698,134.652 225,136.5C 224.503,138.81 224.337,141.143 224.5,143.5C 217.5,143.5 210.5,143.5 203.5,143.5C 205.087,140.732 206.92,138.065 209,135.5C 209.739,132.454 210.572,129.454 211.5,126.5 Z"/></g>
<g><path style="opacity:1" fill="#1a0c0a" d="M 30.5,123.5 C 32.975,127.496 36.1416,131.163 40,134.5C 41.3876,133.446 42.8876,133.28 44.5,134C 47.4116,138.11 51.0783,141.277 55.5,143.5C 47.5,143.5 39.5,143.5 31.5,143.5C 29.6282,140.277 26.9615,138.277 23.5,137.5C 25.3061,132.554 27.6394,127.888 30.5,123.5 Z"/></g>
<g><path style="opacity:1" fill="#94150e" d="M 141.5,131.5 C 142.5,131.5 143.5,131.5 144.5,131.5C 144.5,132.5 144.5,133.5 144.5,134.5C 142.833,135.167 141.167,135.833 139.5,136.5C 137.194,136.993 134.861,137.326 132.5,137.5C 132.771,135.57 133.771,134.236 135.5,133.5C 137.421,132.637 139.421,131.971 141.5,131.5 Z"/></g>
<g><path style="opacity:1" fill="#2d0f09" d="M 144.5,134.5 C 145.833,134.5 147.167,134.5 148.5,134.5C 149.869,137.298 150.869,140.298 151.5,143.5C 145.167,143.5 138.833,143.5 132.5,143.5C 134.527,140.806 136.861,138.473 139.5,136.5C 141.167,135.833 142.833,135.167 144.5,134.5 Z"/></g>
<g><path style="opacity:1" fill="#484136" d="M 110.5,136.5 C 109.026,137.436 108.026,138.77 107.5,140.5C 106.094,140.973 105.427,141.973 105.5,143.5C 102.833,143.5 100.167,143.5 97.5,143.5C 97.33,142.178 97.6634,141.011 98.5,140C 97.2899,138.961 96.2899,137.794 95.5,136.5C 96.3488,132.138 98.6822,128.805 102.5,126.5C 105.642,129.622 108.309,132.955 110.5,136.5 Z"/></g>
<g><path style="opacity:1" fill="#1f1711" d="M 225.5,99.5 C 227.736,100.389 229.736,101.722 231.5,103.5C 230.167,104.62 229.667,105.953 230,107.5C 233.501,109.488 236.668,111.822 239.5,114.5C 236.242,113.092 233.076,111.426 230,109.5C 229.153,112.588 229.653,115.421 231.5,118C 229.063,119.375 226.397,119.875 223.5,119.5C 223.328,121.492 223.995,123.158 225.5,124.5C 229.041,126.432 232.707,127.932 236.5,129C 236.167,129.333 235.833,129.667 235.5,130C 238.219,130.805 239.219,132.305 238.5,134.5C 234.596,136.182 232.929,139.182 233.5,143.5C 230.5,143.5 227.5,143.5 224.5,143.5C 224.337,141.143 224.503,138.81 225,136.5C 230.698,134.652 230.865,132.652 225.5,130.5C 221.848,128.349 219.181,125.349 217.5,121.5C 217.34,119.801 217.506,118.134 218,116.5C 221.487,112.858 224.487,108.858 227,104.5C 227.613,102.505 227.113,100.838 225.5,99.5 Z"/></g>
<g><path style="opacity:1" fill="#332012" d="M 72.5,126.5 C 72.5106,128.017 73.1772,129.184 74.5,130C 79.5556,132.528 84.5556,135.028 89.5,137.5C 89.6854,139.196 90.5187,140.529 92,141.5C 93.1889,139.767 94.3556,138.1 95.5,136.5C 96.2899,137.794 97.2899,138.961 98.5,140C 97.6634,141.011 97.33,142.178 97.5,143.5C 86.1667,143.5 74.8333,143.5 63.5,143.5C 59.4162,140.615 55.0828,137.948 50.5,135.5C 57.7458,132.552 65.0791,129.552 72.5,126.5 Z"/></g>
<g><path style="opacity:1" fill="#470d09" d="M 135.5,133.5 C 133.771,134.236 132.771,135.57 132.5,137.5C 131.167,138.167 129.833,138.833 128.5,139.5C 123.035,139.366 117.702,140.033 112.5,141.5C 110.631,141.493 108.964,141.16 107.5,140.5C 108.026,138.77 109.026,137.436 110.5,136.5C 114.833,136.5 119.167,136.5 123.5,136.5C 127.353,134.995 131.353,133.995 135.5,133.5 Z"/></g>
<g><path style="opacity:1" fill="#3b0c09" d="M 238.5,134.5 C 240.144,134.286 241.644,134.62 243,135.5C 243.953,137.455 245.287,139.122 247,140.5C 247.483,141.448 247.649,142.448 247.5,143.5C 242.833,143.5 238.167,143.5 233.5,143.5C 232.929,139.182 234.596,136.182 238.5,134.5 Z"/></g>
<g><path style="opacity:1" fill="#36110b" d="M 34.5,120.5 C 35.1667,122.5 36.5,123.833 38.5,124.5C 41.8333,127.5 45.1667,130.5 48.5,133.5C 47.3398,135.203 48.0065,135.869 50.5,135.5C 55.0828,137.948 59.4162,140.615 63.5,143.5C 60.8333,143.5 58.1667,143.5 55.5,143.5C 51.0783,141.277 47.4116,138.11 44.5,134C 42.8876,133.28 41.3876,133.446 40,134.5C 36.1416,131.163 32.975,127.496 30.5,123.5C 31.2623,121.738 32.5956,120.738 34.5,120.5 Z"/></g>
<g><path style="opacity:1" fill="#704d35" d="M 139.5,136.5 C 136.861,138.473 134.527,140.806 132.5,143.5C 130.167,143.5 127.833,143.5 125.5,143.5C 126.5,142.167 127.5,140.833 128.5,139.5C 129.833,138.833 131.167,138.167 132.5,137.5C 134.861,137.326 137.194,136.993 139.5,136.5 Z"/></g>
<g><path style="opacity:1" fill="#47140f" d="M 23.5,137.5 C 26.9615,138.277 29.6282,140.277 31.5,143.5C 28.1667,143.5 24.8333,143.5 21.5,143.5C 21.595,141.214 22.2616,139.214 23.5,137.5 Z"/></g>
<g><path style="opacity:1" fill="#3f2a1c" d="M 128.5,139.5 C 127.5,140.833 126.5,142.167 125.5,143.5C 118.833,143.5 112.167,143.5 105.5,143.5C 105.427,141.973 106.094,140.973 107.5,140.5C 108.964,141.16 110.631,141.493 112.5,141.5C 117.702,140.033 123.035,139.366 128.5,139.5 Z"/></g>
</svg>
