<?xml version="1.0" encoding="UTF-8"?>
<!DOCTYPE svg PUBLIC "-//W3C//DTD SVG 1.1//EN" "http://www.w3.org/Graphics/SVG/1.1/DTD/svg11.dtd">
<svg xmlns="http://www.w3.org/2000/svg" version="1.1" width="256px" height="144px" style="shape-rendering:geometricPrecision; text-rendering:geometricPrecision; image-rendering:optimizeQuality; fill-rule:evenodd; clip-rule:evenodd" xmlns:xlink="http://www.w3.org/1999/xlink">
<g><path style="opacity:1" fill="#100d0b" d="M -0.5,-0.5 C 5.83333,-0.5 12.1667,-0.5 18.5,-0.5C 15.1193,4.27027 13.4526,9.6036 13.5,15.5C 14.1855,25.2274 16.5189,34.5607 20.5,43.5C 14.4883,48.9963 7.98831,53.9963 1,58.5C 0.617425,57.944 0.117425,57.6107 -0.5,57.5C -0.5,38.1667 -0.5,18.8333 -0.5,-0.5 Z"/></g>
<g><path style="opacity:1" fill="#191106" d="M 20.5,-0.5 C 29.5,-0.5 38.5,-0.5 47.5,-0.5C 38.301,6.65087 32.6344,15.6509 30.5,26.5C 32.5914,26.6816 34.5914,26.3482 36.5,25.5C 37.5063,25.9377 37.5063,26.6043 36.5,27.5C 33.3706,29.0216 30.0373,29.855 26.5,30C 31.1695,30.8882 35.5028,32.5549 39.5,35C 36.0812,37.3514 32.4146,38.0181 28.5,37C 29.7101,38.0391 30.7101,39.2058 31.5,40.5C 28.7925,39.5508 26.1258,39.5508 23.5,40.5C 25.174,42.4301 25.5073,44.4301 24.5,46.5C 23.1667,45.5 21.8333,44.5 20.5,43.5C 16.5189,34.5607 14.1855,25.2274 13.5,15.5C 16.1276,10.3693 18.461,5.03593 20.5,-0.5 Z"/></g>
<g><path style="opacity:1" fill="#121614" d="M 63.5,-0.5 C 84.1667,-0.5 104.833,-0.5 125.5,-0.5C 122.463,3.06379 119.963,7.06379 118,11.5C 115.399,8.69582 113.899,9.02915 113.5,12.5C 110.643,10.3191 107.476,8.65241 104,7.5C 91.1094,12.043 78.6094,17.543 66.5,24C 67.7383,24.69 67.7383,25.19 66.5,25.5C 65.391,25.4431 64.391,25.1098 63.5,24.5C 61.5615,20.5657 59.2281,16.899 56.5,13.5C 55.5269,11.9317 55.3603,10.265 56,8.5C 58.3644,5.3098 60.8644,2.3098 63.5,-0.5 Z"/></g>
<g><path style="opacity:1" fill="#1d1a13" d="M 127.5,-0.5 C 131.5,-0.5 135.5,-0.5 139.5,-0.5C 137.363,3.15763 135.03,6.8243 132.5,10.5C 133.11,13.0279 132.443,15.3612 130.5,17.5C 129.833,17.8333 129.167,18.1667 128.5,18.5C 128.257,13.5525 128.757,8.55251 130,3.5C 129.667,2.83333 129.333,2.16667 129,1.5C 127.933,3.28261 126.433,3.78261 124.5,3C 126.426,2.57756 127.426,1.4109 127.5,-0.5 Z"/></g>
<g><path style="opacity:1" fill="#263331" d="M 145.5,-0.5 C 161.833,-0.5 178.167,-0.5 194.5,-0.5C 179.626,2.59351 164.626,5.59351 149.5,8.5C 149.103,7.47498 148.437,7.30831 147.5,8C 146.274,9.63492 144.941,11.1349 143.5,12.5C 142.713,11.7579 142.047,10.9246 141.5,10C 143.018,6.91099 144.351,3.74432 145.5,0.5C 145.5,0.166667 145.5,-0.166667 145.5,-0.5 Z"/></g>
<g><path style="opacity:1" fill="#c2b89f" d="M 225.5,-0.5 C 226.167,-0.5 226.833,-0.5 227.5,-0.5C 230.527,3.19379 233.86,6.52712 237.5,9.5C 237.631,10.3764 237.298,11.0431 236.5,11.5C 234.147,9.47728 231.814,7.47728 229.5,5.5C 228.193,3.51776 226.859,1.51776 225.5,-0.5 Z"/></g>
<g><path style="opacity:1" fill="#344543" d="M 194.5,-0.5 C 202.167,-0.5 209.833,-0.5 217.5,-0.5C 217.326,1.86105 216.993,4.19438 216.5,6.5C 214.928,11.3266 213.594,16.3266 212.5,21.5C 210.852,20.2228 209.018,19.2228 207,18.5C 206.722,19.4158 206.222,20.0825 205.5,20.5C 204.843,17.4405 202.843,15.9405 199.5,16C 199.833,15 200.167,14 200.5,13C 197.216,11.5327 194.216,11.6994 191.5,13.5C 189.902,12.5153 188.235,12.3486 186.5,13C 187.696,13.6543 187.696,14.1543 186.5,14.5C 185.522,14.0233 184.689,13.3567 184,12.5C 180.091,13.8584 176.258,15.5251 172.5,17.5C 168.75,16.4372 165.25,17.1038 162,19.5C 158.936,18.5665 156.269,17.5665 154,16.5C 151.179,18.1814 149.346,20.5147 148.5,23.5C 148.031,19.0896 149.031,15.0896 151.5,11.5C 151.154,10.3044 150.654,10.3044 150,11.5C 148.098,13.8841 146.931,16.5508 146.5,19.5C 145.609,18.7387 144.942,17.7387 144.5,16.5C 145.807,13.5314 147.473,10.8648 149.5,8.5C 164.626,5.59351 179.626,2.59351 194.5,-0.5 Z"/></g>
<g><path style="opacity:1" fill="#9e8860" d="M 229.5,5.5 C 231.814,7.47728 234.147,9.47728 236.5,11.5C 237.298,11.0431 237.631,10.3764 237.5,9.5C 242.586,13.6734 245.586,19.0068 246.5,25.5C 246.5,28.5 246.5,31.5 246.5,34.5C 245.675,37.3718 244.841,40.3718 244,43.5C 243.667,36.1667 243.333,28.8333 243,21.5C 242.241,19.9371 241.074,18.9371 239.5,18.5C 236.168,15.1752 232.501,12.1752 228.5,9.5C 229.246,8.26381 229.579,6.93047 229.5,5.5 Z"/></g>
<g><path style="opacity:1" fill="#251c16" d="M 145.5,0.5 C 144.351,3.74432 143.018,6.91099 141.5,10C 142.047,10.9246 142.713,11.7579 143.5,12.5C 144.941,11.1349 146.274,9.63492 147.5,8C 148.437,7.30831 149.103,7.47498 149.5,8.5C 147.473,10.8648 145.807,13.5314 144.5,16.5C 144.942,17.7387 145.609,18.7387 146.5,19.5C 146.674,21.861 147.007,24.1944 147.5,26.5C 145.035,26.233 142.701,25.5664 140.5,24.5C 139.025,22.3101 137.025,20.9767 134.5,20.5C 135.5,20.5 136.5,20.5 137.5,20.5C 136.867,12.4427 139.534,5.77608 145.5,0.5 Z"/></g>
<g><path style="opacity:1" fill="#504e45" d="M 18.5,-0.5 C 19.1667,-0.5 19.8333,-0.5 20.5,-0.5C 18.461,5.03593 16.1276,10.3693 13.5,15.5C 13.4526,9.6036 15.1193,4.27027 18.5,-0.5 Z"/></g>
<g><path style="opacity:1" fill="#231f15" d="M 125.5,-0.5 C 126.167,-0.5 126.833,-0.5 127.5,-0.5C 127.426,1.4109 126.426,2.57756 124.5,3C 126.433,3.78261 127.933,3.28261 129,1.5C 129.333,2.16667 129.667,2.83333 130,3.5C 128.757,8.55251 128.257,13.5525 128.5,18.5C 127.508,18.3284 126.842,18.6618 126.5,19.5C 124.379,19.3253 122.379,19.6586 120.5,20.5C 120.44,19.9569 120.107,19.6236 119.5,19.5C 116.741,20.8793 114.075,22.2126 111.5,23.5C 110.833,23.5 110.167,23.5 109.5,23.5C 108.761,23.631 108.094,23.4643 107.5,23C 110.64,21.9996 111.973,19.8329 111.5,16.5C 112.803,16.3784 114.136,16.3784 115.5,16.5C 114.82,15.1401 114.153,13.8068 113.5,12.5C 113.899,9.02915 115.399,8.69582 118,11.5C 119.963,7.06379 122.463,3.06379 125.5,-0.5 Z"/></g>
<g><path style="opacity:1" fill="#3b2e24" d="M 139.5,-0.5 C 141.5,-0.5 143.5,-0.5 145.5,-0.5C 145.5,-0.166667 145.5,0.166667 145.5,0.5C 139.534,5.77608 136.867,12.4427 137.5,20.5C 136.5,20.5 135.5,20.5 134.5,20.5C 134.082,19.7784 133.416,19.2784 132.5,19C 132.833,18.6667 133.167,18.3333 133.5,18C 132.552,17.5172 131.552,17.3505 130.5,17.5C 132.443,15.3612 133.11,13.0279 132.5,10.5C 135.03,6.8243 137.363,3.15763 139.5,-0.5 Z"/></g>
<g><path style="opacity:1" fill="#3b4d4b" d="M 205.5,20.5 C 204.05,19.3424 203.05,19.8424 202.5,22C 205.01,23.3594 207.176,24.5261 209,25.5C 209.52,27.2889 209.187,28.9556 208,30.5C 207.667,29.8333 207.333,29.1667 207,28.5C 206.333,29.8333 205.667,29.8333 205,28.5C 202.697,31.4044 199.364,33.7377 195,35.5C 194.282,34.5494 193.449,34.3828 192.5,35C 193.833,36.8402 193.666,37.3402 192,36.5C 190.933,37.1905 189.766,37.6905 188.5,38C 189.604,39.1313 189.271,39.9646 187.5,40.5C 184.661,39.4991 181.994,39.4991 179.5,40.5C 178.304,40.8457 178.304,41.3457 179.5,42C 177.48,43.2166 175.48,43.3833 173.5,42.5C 170.545,44.7685 167.711,46.4352 165,47.5C 164,46.1667 163,44.8333 162,43.5C 161.601,43.7284 161.435,44.0618 161.5,44.5C 160.167,43.5 158.833,42.5 157.5,41.5C 155.138,37.4323 152.805,33.4323 150.5,29.5C 150.029,27.4214 149.363,25.4214 148.5,23.5C 149.346,20.5147 151.179,18.1814 154,16.5C 156.269,17.5665 158.936,18.5665 162,19.5C 165.25,17.1038 168.75,16.4372 172.5,17.5C 176.258,15.5251 180.091,13.8584 184,12.5C 184.689,13.3567 185.522,14.0233 186.5,14.5C 187.696,14.1543 187.696,13.6543 186.5,13C 188.235,12.3486 189.902,12.5153 191.5,13.5C 194.216,11.6994 197.216,11.5327 200.5,13C 200.167,14 199.833,15 199.5,16C 202.843,15.9405 204.843,17.4405 205.5,20.5 Z"/></g>
<g><path style="opacity:1" fill="#8c6c4a" d="M 220.5,-0.5 C 222.167,-0.5 223.833,-0.5 225.5,-0.5C 226.859,1.51776 228.193,3.51776 229.5,5.5C 229.579,6.93047 229.246,8.26381 228.5,9.5C 232.501,12.1752 236.168,15.1752 239.5,18.5C 239.5,19.1667 239.167,19.5 238.5,19.5C 237.033,19.1062 235.533,18.7728 234,18.5C 232.106,18.5394 231.106,19.2061 231,20.5C 227.97,18.1391 225.636,15.1391 224,11.5C 223.106,7.3901 221.939,3.3901 220.5,-0.5 Z"/></g>
<g><path style="opacity:1" fill="#c4a985" d="M 216.5,6.5 C 216.666,10.5138 216.499,14.5138 216,18.5C 215.041,22.168 213.541,24.8347 211.5,26.5C 211.629,24.7839 211.962,23.1172 212.5,21.5C 213.594,16.3266 214.928,11.3266 216.5,6.5 Z"/></g>
<g><path style="opacity:1" fill="#222824" d="M 227.5,-0.5 C 236.833,-0.5 246.167,-0.5 255.5,-0.5C 255.5,13.1667 255.5,26.8333 255.5,40.5C 253.848,36.9035 253.015,33.2368 253,29.5C 251.989,30.3366 250.822,30.67 249.5,30.5C 249.662,28.4727 249.495,26.4727 249,24.5C 248.667,28.8333 248.333,33.1667 248,37.5C 247.824,33.3123 247.324,29.3123 246.5,25.5C 245.586,19.0068 242.586,13.6734 237.5,9.5C 233.86,6.52712 230.527,3.19379 227.5,-0.5 Z"/></g>
<g><path style="opacity:1" fill="#645e58" d="M 56.5,13.5 C 59.2281,16.899 61.5615,20.5657 63.5,24.5C 62.8333,24.5 62.5,24.8333 62.5,25.5C 60.2632,23.3529 58.2632,21.0196 56.5,18.5C 55.506,16.6656 55.506,14.9989 56.5,13.5 Z"/></g>
<g><path style="opacity:1" fill="#654c25" d="M 217.5,-0.5 C 218.5,-0.5 219.5,-0.5 220.5,-0.5C 221.939,3.3901 223.106,7.3901 224,11.5C 225.636,15.1391 227.97,18.1391 231,20.5C 231.106,19.2061 232.106,18.5394 234,18.5C 235.533,18.7728 237.033,19.1062 238.5,19.5C 238.5,19.8333 238.5,20.1667 238.5,20.5C 236.25,20.1814 234.25,20.6814 232.5,22C 233.5,22.3333 234.5,22.6667 235.5,23C 233.899,23.2734 232.399,23.7734 231,24.5C 229.148,29.023 226.482,33.023 223,36.5C 222.604,27.4271 221.938,18.4271 221,9.5C 221.654,10.6956 222.154,10.6956 222.5,9.5C 221.833,8.16667 220.833,7.16667 219.5,6.5C 218.872,14.2379 217.872,21.9045 216.5,29.5C 216.833,30.1667 217.167,30.8333 217.5,31.5C 215.918,33.0147 214.584,34.6814 213.5,36.5C 212.85,36.8039 212.183,37.1373 211.5,37.5C 211.24,36.0951 210.907,34.7618 210.5,33.5C 210.5,32.8333 210.5,32.1667 210.5,31.5C 210.216,29.5853 210.549,27.9187 211.5,26.5C 213.541,24.8347 215.041,22.168 216,18.5C 216.499,14.5138 216.666,10.5138 216.5,6.5C 216.993,4.19438 217.326,1.86105 217.5,-0.5 Z"/></g>
<g><path style="opacity:1" fill="#69594f" d="M 130.5,17.5 C 131.552,17.3505 132.552,17.5172 133.5,18C 133.167,18.3333 132.833,18.6667 132.5,19C 133.416,19.2784 134.082,19.7784 134.5,20.5C 137.025,20.9767 139.025,22.3101 140.5,24.5C 137.692,23.0712 134.692,22.4045 131.5,22.5C 128.949,21.9379 127.282,20.9379 126.5,19.5C 126.842,18.6618 127.508,18.3284 128.5,18.5C 129.167,18.1667 129.833,17.8333 130.5,17.5 Z"/></g>
<g><path style="opacity:1" fill="#2c3a38" d="M 111.5,16.5 C 111.973,19.8329 110.64,21.9996 107.5,23C 108.094,23.4643 108.761,23.631 109.5,23.5C 105.5,25.1667 101.5,26.8333 97.5,28.5C 94.4785,29.9257 91.3118,30.9257 88,31.5C 83.5302,30.7363 79.0302,30.403 74.5,30.5C 74.5,30.1667 74.5,29.8333 74.5,29.5C 77.1873,29.6641 79.854,29.4974 82.5,29C 81.5,28.6667 80.5,28.3333 79.5,28C 89.8085,23.0864 100.309,18.9197 111,15.5C 111.399,15.7284 111.565,16.0618 111.5,16.5 Z"/></g>
<g><path style="opacity:1" fill="#1e2826" d="M 113.5,12.5 C 114.153,13.8068 114.82,15.1401 115.5,16.5C 114.136,16.3784 112.803,16.3784 111.5,16.5C 111.565,16.0618 111.399,15.7284 111,15.5C 100.309,18.9197 89.8085,23.0864 79.5,28C 80.5,28.3333 81.5,28.6667 82.5,29C 79.854,29.4974 77.1873,29.6641 74.5,29.5C 71.5578,28.6955 68.8911,27.3622 66.5,25.5C 67.7383,25.19 67.7383,24.69 66.5,24C 78.6094,17.543 91.1094,12.043 104,7.5C 107.476,8.65241 110.643,10.3191 113.5,12.5 Z"/></g>
<g><path style="opacity:1" fill="#928373" d="M 120.5,20.5 C 120.047,21.4584 119.381,22.2917 118.5,23C 116.19,23.4966 113.857,23.6633 111.5,23.5C 114.075,22.2126 116.741,20.8793 119.5,19.5C 120.107,19.6236 120.44,19.9569 120.5,20.5 Z"/></g>
<g><path style="opacity:1" fill="#c8b4a1" d="M 126.5,19.5 C 127.282,20.9379 128.949,21.9379 131.5,22.5C 129.738,22.3573 128.071,22.6906 126.5,23.5C 125.808,22.9747 125.308,22.3081 125,21.5C 121.418,23.4049 117.585,24.5715 113.5,25C 111.273,25.941 109.273,27.1077 107.5,28.5C 104.167,29.1667 100.833,29.8333 97.5,30.5C 97.9175,29.7784 98.5842,29.2784 99.5,29C 98.9056,28.5357 98.2389,28.369 97.5,28.5C 101.5,26.8333 105.5,25.1667 109.5,23.5C 110.167,23.5 110.833,23.5 111.5,23.5C 113.857,23.6633 116.19,23.4966 118.5,23C 119.381,22.2917 120.047,21.4584 120.5,20.5C 122.379,19.6586 124.379,19.3253 126.5,19.5 Z"/></g>
<g><path style="opacity:1" fill="#e9cda9" d="M 131.5,22.5 C 134.692,22.4045 137.692,23.0712 140.5,24.5C 142.701,25.5664 145.035,26.233 147.5,26.5C 148.167,27.8333 149.167,28.8333 150.5,29.5C 152.805,33.4323 155.138,37.4323 157.5,41.5C 160.012,45.1899 162.012,49.1899 163.5,53.5C 161.937,52.0552 160.604,50.3885 159.5,48.5C 157.546,44.3396 155.213,40.3396 152.5,36.5C 149.316,36.2134 147.316,34.5467 146.5,31.5C 144.359,30.1924 142.359,28.6924 140.5,27C 136.309,26.9262 132.309,26.0929 128.5,24.5C 127.41,25.3914 127.41,26.3914 128.5,27.5C 127.675,28.3857 126.675,28.719 125.5,28.5C 125.5,29.8333 125.5,31.1667 125.5,32.5C 124.839,31.2825 124.172,29.9492 123.5,28.5C 122.707,28.9312 121.873,29.2645 121,29.5C 119.217,28.0471 117.217,27.0471 115,26.5C 113.124,26.5247 111.624,27.1914 110.5,28.5C 109.5,28.5 108.5,28.5 107.5,28.5C 109.273,27.1077 111.273,25.941 113.5,25C 117.585,24.5715 121.418,23.4049 125,21.5C 125.308,22.3081 125.808,22.9747 126.5,23.5C 128.071,22.6906 129.738,22.3573 131.5,22.5 Z"/></g>
<g><path style="opacity:1" fill="#807454" d="M 148.5,23.5 C 149.363,25.4214 150.029,27.4214 150.5,29.5C 149.167,28.8333 148.167,27.8333 147.5,26.5C 147.007,24.1944 146.674,21.861 146.5,19.5C 146.931,16.5508 148.098,13.8841 150,11.5C 150.654,10.3044 151.154,10.3044 151.5,11.5C 149.031,15.0896 148.031,19.0896 148.5,23.5 Z"/></g>
<g><path style="opacity:1" fill="#120c03" d="M 47.5,-0.5 C 52.8333,-0.5 58.1667,-0.5 63.5,-0.5C 60.8644,2.3098 58.3644,5.3098 56,8.5C 55.3603,10.265 55.5269,11.9317 56.5,13.5C 55.506,14.9989 55.506,16.6656 56.5,18.5C 56.9661,22.162 56.2994,25.4954 54.5,28.5C 53.6981,29.9516 53.1981,31.6183 53,33.5C 52.6667,33.1667 52.3333,32.8333 52,32.5C 49.0016,34.4026 46.1683,36.4026 43.5,38.5C 39.7121,40.2558 35.7121,40.9225 31.5,40.5C 30.7101,39.2058 29.7101,38.0391 28.5,37C 32.4146,38.0181 36.0812,37.3514 39.5,35C 35.5028,32.5549 31.1695,30.8882 26.5,30C 30.0373,29.855 33.3706,29.0216 36.5,27.5C 37.5063,26.6043 37.5063,25.9377 36.5,25.5C 34.5914,26.3482 32.5914,26.6816 30.5,26.5C 32.6344,15.6509 38.301,6.65087 47.5,-0.5 Z"/></g>
<g><path style="opacity:1" fill="#9d9994" d="M 63.5,24.5 C 64.391,25.1098 65.391,25.4431 66.5,25.5C 68.8911,27.3622 71.5578,28.6955 74.5,29.5C 74.5,29.8333 74.5,30.1667 74.5,30.5C 74.5,30.8333 74.5,31.1667 74.5,31.5C 74.1667,31.5 73.8333,31.5 73.5,31.5C 72.0813,30.5489 70.4147,30.2155 68.5,30.5C 67.391,30.4431 66.391,30.1098 65.5,29.5C 64.147,28.4739 63.147,27.1405 62.5,25.5C 62.5,24.8333 62.8333,24.5 63.5,24.5 Z"/></g>
<g><path style="opacity:1" fill="#3b4948" d="M 212.5,21.5 C 211.962,23.1172 211.629,24.7839 211.5,26.5C 210.549,27.9187 210.216,29.5853 210.5,31.5C 207.865,35.1431 205.199,38.8098 202.5,42.5C 198.625,46.0682 194.292,48.7348 189.5,50.5C 189.167,50.5 188.833,50.5 188.5,50.5C 184.774,51.9507 181.107,53.284 177.5,54.5C 177.167,54.5 176.833,54.5 176.5,54.5C 173.615,54.1936 170.948,54.5269 168.5,55.5C 167.833,55.1667 167.167,54.8333 166.5,54.5C 164.833,51.1667 163.167,47.8333 161.5,44.5C 161.435,44.0618 161.601,43.7284 162,43.5C 163,44.8333 164,46.1667 165,47.5C 167.711,46.4352 170.545,44.7685 173.5,42.5C 175.48,43.3833 177.48,43.2166 179.5,42C 178.304,41.3457 178.304,40.8457 179.5,40.5C 181.994,39.4991 184.661,39.4991 187.5,40.5C 189.271,39.9646 189.604,39.1313 188.5,38C 189.766,37.6905 190.933,37.1905 192,36.5C 193.666,37.3402 193.833,36.8402 192.5,35C 193.449,34.3828 194.282,34.5494 195,35.5C 199.364,33.7377 202.697,31.4044 205,28.5C 205.667,29.8333 206.333,29.8333 207,28.5C 207.333,29.1667 207.667,29.8333 208,30.5C 209.187,28.9556 209.52,27.2889 209,25.5C 207.176,24.5261 205.01,23.3594 202.5,22C 203.05,19.8424 204.05,19.3424 205.5,20.5C 206.222,20.0825 206.722,19.4158 207,18.5C 209.018,19.2228 210.852,20.2228 212.5,21.5 Z"/></g>
<g><path style="opacity:1" fill="#462a14" d="M 241.5,22.5 C 240.19,26.3091 240.523,29.9758 242.5,33.5C 241.608,38.7414 240.275,43.7414 238.5,48.5C 239.034,40.9398 237.867,40.6064 235,47.5C 234.667,46.8333 234.333,46.1667 234,45.5C 233.64,47.4211 232.806,49.0878 231.5,50.5C 231.63,47.6161 231.13,44.6161 230,41.5C 229.617,42.056 229.117,42.3893 228.5,42.5C 231.709,36.9911 233.042,30.9911 232.5,24.5C 235.785,24.7896 238.785,24.123 241.5,22.5 Z"/></g>
<g><path style="opacity:1" fill="#321c0a" d="M 56.5,18.5 C 58.2632,21.0196 60.2632,23.3529 62.5,25.5C 63.147,27.1405 64.147,28.4739 65.5,29.5C 65.5,31.5 65.5,33.5 65.5,35.5C 64.1667,36.8333 62.8333,38.1667 61.5,39.5C 58.6582,36.0254 56.3249,32.3588 54.5,28.5C 56.2994,25.4954 56.9661,22.162 56.5,18.5 Z"/></g>
<g><path style="opacity:1" fill="#cccac8" d="M 97.5,28.5 C 98.2389,28.369 98.9056,28.5357 99.5,29C 98.5842,29.2784 97.9175,29.7784 97.5,30.5C 94.3815,31.3173 91.3815,32.3173 88.5,33.5C 84.3656,32.5151 80.0323,32.1818 75.5,32.5C 74.8333,32.5 74.5,32.1667 74.5,31.5C 74.5,31.1667 74.5,30.8333 74.5,30.5C 79.0302,30.403 83.5302,30.7363 88,31.5C 91.3118,30.9257 94.4785,29.9257 97.5,28.5 Z"/></g>
<g><path style="opacity:1" fill="#ac7b49" d="M 65.5,29.5 C 66.391,30.1098 67.391,30.4431 68.5,30.5C 70.262,34.1793 69.4287,37.1793 66,39.5C 65.51,38.2068 65.3433,36.8734 65.5,35.5C 65.5,33.5 65.5,31.5 65.5,29.5 Z"/></g>
<g><path style="opacity:1" fill="#502f10" d="M 73.5,31.5 C 73.8333,31.5 74.1667,31.5 74.5,31.5C 74.5,32.1667 74.8333,32.5 75.5,32.5C 75.9166,36.8171 75.2499,40.8171 73.5,44.5C 73.6621,42.4727 73.4955,40.4727 73,38.5C 72.8008,40.4025 71.9675,41.9025 70.5,43C 67.854,43.4974 65.1873,43.6641 62.5,43.5C 62.5,43.1667 62.5,42.8333 62.5,42.5C 66.1816,43.2747 68.6816,41.9414 70,38.5C 70.4966,36.1902 70.6633,33.8568 70.5,31.5C 71.5,31.5 72.5,31.5 73.5,31.5 Z"/></g>
<g><path style="opacity:1" fill="#e4b88f" d="M 107.5,28.5 C 108.5,28.5 109.5,28.5 110.5,28.5C 110.933,31.1656 111.433,33.8323 112,36.5C 113.011,37.3366 114.178,37.67 115.5,37.5C 120.25,39.0308 125.25,39.6975 130.5,39.5C 130.5,40.5 130.5,41.5 130.5,42.5C 128.265,42.2053 126.265,42.5386 124.5,43.5C 121.708,40.0619 118.041,38.7286 113.5,39.5C 111.167,39.6667 108.833,39.8333 106.5,40C 106.043,40.414 105.709,40.914 105.5,41.5C 108.642,42.1674 111.642,42.834 114.5,43.5C 112.167,43.5 109.833,43.5 107.5,43.5C 105.847,43.6596 104.514,44.3263 103.5,45.5C 100.389,44.0556 97.0561,43.2223 93.5,43C 92.5209,41.2215 92.8542,39.5548 94.5,38C 92.1489,38.1404 89.8155,38.6404 87.5,39.5C 87.8333,37.5 88.1667,35.5 88.5,33.5C 91.3815,32.3173 94.3815,31.3173 97.5,30.5C 100.833,29.8333 104.167,29.1667 107.5,28.5 Z"/></g>
<g><path style="opacity:1" fill="#f8dcbe" d="M 125.5,32.5 C 127.484,32.3832 129.15,33.0499 130.5,34.5C 127.109,35.7169 123.776,36.7169 120.5,37.5C 118.833,37.5 117.167,37.5 115.5,37.5C 114.178,37.67 113.011,37.3366 112,36.5C 111.433,33.8323 110.933,31.1656 110.5,28.5C 111.624,27.1914 113.124,26.5247 115,26.5C 117.217,27.0471 119.217,28.0471 121,29.5C 121.873,29.2645 122.707,28.9312 123.5,28.5C 124.172,29.9492 124.839,31.2825 125.5,32.5 Z"/></g>
<g><path style="opacity:1" fill="#f4c294" d="M 159.5,48.5 C 155.635,46.9751 152.302,44.6417 149.5,41.5C 147.071,38.9743 144.071,38.141 140.5,39C 141.759,39.9234 143.092,40.7568 144.5,41.5C 141.844,42.6145 139.177,42.6145 136.5,41.5C 135.041,41.5674 133.708,41.2341 132.5,40.5C 133.174,38.9755 134.174,37.6422 135.5,36.5C 134.424,35.3441 133.424,35.5108 132.5,37C 128.514,37.4988 124.514,37.6655 120.5,37.5C 123.776,36.7169 127.109,35.7169 130.5,34.5C 129.15,33.0499 127.484,32.3832 125.5,32.5C 125.5,31.1667 125.5,29.8333 125.5,28.5C 126.675,28.719 127.675,28.3857 128.5,27.5C 127.41,26.3914 127.41,25.3914 128.5,24.5C 132.309,26.0929 136.309,26.9262 140.5,27C 142.359,28.6924 144.359,30.1924 146.5,31.5C 147.316,34.5467 149.316,36.2134 152.5,36.5C 155.213,40.3396 157.546,44.3396 159.5,48.5 Z"/></g>
<g><path style="opacity:1" fill="#845932" d="M 68.5,30.5 C 70.4147,30.2155 72.0813,30.5489 73.5,31.5C 72.5,31.5 71.5,31.5 70.5,31.5C 70.6633,33.8568 70.4966,36.1902 70,38.5C 68.6816,41.9414 66.1816,43.2747 62.5,42.5C 62.5,41.8333 62.1667,41.5 61.5,41.5C 61.5,40.8333 61.5,40.1667 61.5,39.5C 62.8333,38.1667 64.1667,36.8333 65.5,35.5C 65.3433,36.8734 65.51,38.2068 66,39.5C 69.4287,37.1793 70.262,34.1793 68.5,30.5 Z"/></g>
<g><path style="opacity:1" fill="#ada986" d="M 210.5,31.5 C 210.5,32.1667 210.5,32.8333 210.5,33.5C 208.167,36.8333 205.833,40.1667 203.5,43.5C 202.833,43.5 202.5,43.1667 202.5,42.5C 205.199,38.8098 207.865,35.1431 210.5,31.5 Z"/></g>
<g><path style="opacity:1" fill="#c48e67" d="M 132.5,40.5 C 132.989,41.7357 132.989,43.2357 132.5,45C 127.845,45.4992 123.179,45.6658 118.5,45.5C 117.005,45.0113 115.671,44.3446 114.5,43.5C 118.015,44.239 121.348,44.239 124.5,43.5C 126.265,42.5386 128.265,42.2053 130.5,42.5C 130.5,41.5 130.5,40.5 130.5,39.5C 125.25,39.6975 120.25,39.0308 115.5,37.5C 117.167,37.5 118.833,37.5 120.5,37.5C 124.514,37.6655 128.514,37.4988 132.5,37C 133.424,35.5108 134.424,35.3441 135.5,36.5C 134.174,37.6422 133.174,38.9755 132.5,40.5 Z"/></g>
<g><path style="opacity:1" fill="#4d3b19" d="M 238.5,20.5 C 239.71,20.9321 240.71,21.5987 241.5,22.5C 238.785,24.123 235.785,24.7896 232.5,24.5C 233.042,30.9911 231.709,36.9911 228.5,42.5C 226.003,44.9413 223.669,47.608 221.5,50.5C 217.95,49.0941 214.616,49.4275 211.5,51.5C 211.739,49.5328 211.406,47.6995 210.5,46C 211.861,44.4157 212.528,42.5824 212.5,40.5C 213.5,40.5 214.5,40.5 215.5,40.5C 215.843,38.5168 215.176,37.1834 213.5,36.5C 214.584,34.6814 215.918,33.0147 217.5,31.5C 217.167,30.8333 216.833,30.1667 216.5,29.5C 217.872,21.9045 218.872,14.2379 219.5,6.5C 220.833,7.16667 221.833,8.16667 222.5,9.5C 222.154,10.6956 221.654,10.6956 221,9.5C 221.938,18.4271 222.604,27.4271 223,36.5C 226.482,33.023 229.148,29.023 231,24.5C 232.399,23.7734 233.899,23.2734 235.5,23C 234.5,22.6667 233.5,22.3333 232.5,22C 234.25,20.6814 236.25,20.1814 238.5,20.5 Z"/></g>
<g><path style="opacity:1" fill="#fad2b0" d="M 124.5,43.5 C 121.348,44.239 118.015,44.239 114.5,43.5C 111.642,42.834 108.642,42.1674 105.5,41.5C 105.709,40.914 106.043,40.414 106.5,40C 108.833,39.8333 111.167,39.6667 113.5,39.5C 118.041,38.7286 121.708,40.0619 124.5,43.5 Z"/></g>
<g><path style="opacity:1" fill="#c99166" d="M 149.5,41.5 C 148.957,41.56 148.624,41.8933 148.5,42.5C 149.853,43.5237 150.52,44.857 150.5,46.5C 148.409,46.6816 146.409,46.3482 144.5,45.5C 142.342,48.3304 139.676,48.9971 136.5,47.5C 137.248,45.5841 137.248,43.5841 136.5,41.5C 139.177,42.6145 141.844,42.6145 144.5,41.5C 143.092,40.7568 141.759,39.9234 140.5,39C 144.071,38.141 147.071,38.9743 149.5,41.5 Z"/></g>
<g><path style="opacity:1" fill="#1f1506" d="M 54.5,28.5 C 56.3249,32.3588 58.6582,36.0254 61.5,39.5C 61.5,40.1667 61.5,40.8333 61.5,41.5C 60.279,45.3851 57.9457,48.3851 54.5,50.5C 51.5029,51.8281 48.5029,53.1614 45.5,54.5C 44.3172,53.4955 42.9839,52.6622 41.5,52C 42.91,51.6322 43.91,50.7989 44.5,49.5C 41.7869,47.1459 38.7869,45.3126 35.5,44C 36.6721,43.5814 37.6721,42.9147 38.5,42C 35.9644,41.8138 33.631,41.3138 31.5,40.5C 35.7121,40.9225 39.7121,40.2558 43.5,38.5C 46.1683,36.4026 49.0016,34.4026 52,32.5C 52.3333,32.8333 52.6667,33.1667 53,33.5C 53.1981,31.6183 53.6981,29.9516 54.5,28.5 Z"/></g>
<g><path style="opacity:1" fill="#ba875b" d="M 75.5,32.5 C 80.0323,32.1818 84.3656,32.5151 88.5,33.5C 88.1667,35.5 87.8333,37.5 87.5,39.5C 86.6971,40.4232 86.5304,41.4232 87,42.5C 88.0113,41.6634 89.1779,41.33 90.5,41.5C 88.4256,45.1662 86.4256,48.9996 84.5,53C 86.5061,55.6713 88.5061,58.338 90.5,61C 92.6775,62.2022 95.0108,62.7022 97.5,62.5C 95.6976,63.4582 93.6976,64.1249 91.5,64.5C 88.5,62.5 85.5,60.5 82.5,58.5C 81.8501,58.8039 81.1835,59.1373 80.5,59.5C 78.0976,57.0908 75.4309,55.0908 72.5,53.5C 71.8333,53.1667 71.1667,52.8333 70.5,52.5C 70.5,52.1667 70.5,51.8333 70.5,51.5C 73.4769,52.0708 76.3103,53.0708 79,54.5C 80.705,52.4234 81.8717,50.09 82.5,47.5C 85.05,44.308 86.2167,40.6413 86,36.5C 85.7216,37.4158 85.2216,38.0825 84.5,38.5C 82.7103,35.953 81.0436,36.2863 79.5,39.5C 80.6888,40.4287 82.0222,40.762 83.5,40.5C 82.7101,41.7942 81.7101,42.9609 80.5,44C 78.3474,44.0995 76.6808,44.9328 75.5,46.5C 74.0755,48.0311 73.4088,47.6977 73.5,45.5C 73.5,45.1667 73.5,44.8333 73.5,44.5C 75.2499,40.8171 75.9166,36.8171 75.5,32.5 Z"/></g>
<g><path style="opacity:1" fill="#835426" d="M 82.5,47.5 C 81.2749,47.9689 80.2749,47.3022 79.5,45.5C 78.2638,46.2458 76.9305,46.5792 75.5,46.5C 76.6808,44.9328 78.3474,44.0995 80.5,44C 81.7101,42.9609 82.7101,41.7942 83.5,40.5C 83.8333,39.8333 84.1667,39.1667 84.5,38.5C 85.2216,38.0825 85.7216,37.4158 86,36.5C 86.2167,40.6413 85.05,44.308 82.5,47.5 Z"/></g>
<g><path style="opacity:1" fill="#e9c06e" d="M 84.5,38.5 C 84.1667,39.1667 83.8333,39.8333 83.5,40.5C 82.0222,40.762 80.6888,40.4287 79.5,39.5C 81.0436,36.2863 82.7103,35.953 84.5,38.5 Z"/></g>
<g><path style="opacity:1" fill="#553413" d="M 210.5,33.5 C 210.907,34.7618 211.24,36.0951 211.5,37.5C 212.183,37.1373 212.85,36.8039 213.5,36.5C 215.176,37.1834 215.843,38.5168 215.5,40.5C 214.5,40.5 213.5,40.5 212.5,40.5C 212.528,42.5824 211.861,44.4157 210.5,46C 211.406,47.6995 211.739,49.5328 211.5,51.5C 208.16,53.8437 205.493,56.8437 203.5,60.5C 203.167,60.5 202.833,60.5 202.5,60.5C 202.167,60.5 201.833,60.5 201.5,60.5C 200.974,58.7697 199.974,57.4363 198.5,56.5C 198.167,55.1667 197.833,53.8333 197.5,52.5C 198.719,48.9537 200.719,45.9537 203.5,43.5C 205.833,40.1667 208.167,36.8333 210.5,33.5 Z"/></g>
<g><path style="opacity:1" fill="#222929" d="M 255.5,46.5 C 255.5,51.8333 255.5,57.1667 255.5,62.5C 252.926,66.2967 250.592,70.13 248.5,74C 249.38,75.3561 249.714,76.8561 249.5,78.5C 245.438,78.7241 242.605,80.7241 241,84.5C 240.259,83.3595 239.425,83.3595 238.5,84.5C 237.453,85.9223 237.453,87.4223 238.5,89C 236.631,90.4404 234.965,92.107 233.5,94C 234.167,94.3333 234.833,94.6667 235.5,95C 229.752,95.4336 225.752,98.6003 223.5,104.5C 221.253,105.245 219.42,106.578 218,108.5C 217.244,105.208 215.411,104.208 212.5,105.5C 213.908,106.243 215.241,107.077 216.5,108C 213.924,108.782 211.924,110.282 210.5,112.5C 209.808,111.975 209.308,111.308 209,110.5C 207.758,111.872 206.258,112.872 204.5,113.5C 203.784,115.482 202.617,117.149 201,118.5C 200.085,117.672 199.419,116.672 199,115.5C 194.145,118.474 189.645,121.141 185.5,123.5C 183.844,121.54 182.177,119.54 180.5,117.5C 180.721,114.903 181.221,114.903 182,117.5C 185.208,115.134 188.375,112.634 191.5,110C 193.5,109.5 195.5,109 197.5,108.5C 198.647,108.818 199.481,109.484 200,110.5C 200.879,107.654 202.546,106.987 205,108.5C 206.99,106.344 209.157,104.344 211.5,102.5C 212.086,102.709 212.586,103.043 213,103.5C 213.513,101.479 214.68,99.9794 216.5,99C 215.328,98.5814 214.328,97.9147 213.5,97C 216.933,93.8658 220.433,90.0325 224,85.5C 224.414,85.9574 224.914,86.2907 225.5,86.5C 226.711,85.7261 226.711,84.8928 225.5,84C 226.784,83.3162 227.951,83.4829 229,84.5C 231.096,83.2845 230.929,82.4512 228.5,82C 229.126,81.2496 229.626,80.4162 230,79.5C 236.067,77.6004 239.9,73.6004 241.5,67.5C 240.5,67.5 239.5,67.5 238.5,67.5C 239.09,66.2011 240.09,65.3678 241.5,65C 241.043,64.586 240.709,64.086 240.5,63.5C 241.522,62.646 242.355,61.646 243,60.5C 243.333,60.8333 243.667,61.1667 244,61.5C 244.569,57.6395 245.402,57.6395 246.5,61.5C 248.824,61.1227 249.491,60.1227 248.5,58.5C 249.025,57.8076 249.692,57.3076 250.5,57C 250.167,56.6667 249.833,56.3333 249.5,56C 250.191,54.9326 250.691,53.7659 251,52.5C 252.666,53.3402 252.833,52.8402 251.5,51C 252.328,49.0077 253.661,47.5077 255.5,46.5 Z"/></g>
<g><path style="opacity:1" fill="#3c1e08" d="M 73.5,44.5 C 73.5,44.8333 73.5,45.1667 73.5,45.5C 73.0276,47.5313 72.0276,49.1979 70.5,50.5C 69.0328,50.1062 67.5328,49.7728 66,49.5C 64.3009,49.3866 63.1342,50.0532 62.5,51.5C 62.1667,51.5 61.8333,51.5 61.5,51.5C 61.1961,50.8501 60.8627,50.1835 60.5,49.5C 62.0863,47.8273 62.7529,45.8273 62.5,43.5C 65.1873,43.6641 67.854,43.4974 70.5,43C 71.9675,41.9025 72.8008,40.4025 73,38.5C 73.4955,40.4727 73.6621,42.4727 73.5,44.5 Z"/></g>
<g><path style="opacity:1" fill="#896343" d="M 202.5,42.5 C 202.5,43.1667 202.833,43.5 203.5,43.5C 200.719,45.9537 198.719,48.9537 197.5,52.5C 196.5,51.8333 195.5,51.1667 194.5,50.5C 192.833,50.5 191.167,50.5 189.5,50.5C 194.292,48.7348 198.625,46.0682 202.5,42.5 Z"/></g>
<g><path style="opacity:1" fill="#986644" d="M 132.5,40.5 C 133.708,41.2341 135.041,41.5674 136.5,41.5C 137.248,43.5841 137.248,45.5841 136.5,47.5C 139.676,48.9971 142.342,48.3304 144.5,45.5C 146.409,46.3482 148.409,46.6816 150.5,46.5C 150.52,44.857 149.853,43.5237 148.5,42.5C 148.624,41.8933 148.957,41.56 149.5,41.5C 152.302,44.6417 155.635,46.9751 159.5,48.5C 160.604,50.3885 161.937,52.0552 163.5,53.5C 164.11,54.391 164.443,55.391 164.5,56.5C 163.833,56.1667 163.167,55.8333 162.5,55.5C 160.428,53.2741 157.928,51.6074 155,50.5C 154.411,52.8633 152.911,53.8633 150.5,53.5C 150.5,51.5 150.5,49.5 150.5,47.5C 146.341,48.7416 142.007,49.575 137.5,50C 139.708,50.1909 141.708,50.6909 143.5,51.5C 140.833,51.5 138.167,51.5 135.5,51.5C 134.5,51.5 133.5,51.5 132.5,51.5C 132.5,50.1667 132.5,48.8333 132.5,47.5C 127.381,48.1031 122.715,47.4364 118.5,45.5C 123.179,45.6658 127.845,45.4992 132.5,45C 132.989,43.2357 132.989,41.7357 132.5,40.5 Z"/></g>
<g><path style="opacity:1" fill="#d0ab90" d="M 70.5,50.5 C 70.5,50.8333 70.5,51.1667 70.5,51.5C 67.5229,51.6845 64.8562,51.6845 62.5,51.5C 63.1342,50.0532 64.3009,49.3866 66,49.5C 67.5328,49.7728 69.0328,50.1062 70.5,50.5 Z"/></g>
<g><path style="opacity:1" fill="#593214" d="M 73.5,45.5 C 73.4088,47.6977 74.0755,48.0311 75.5,46.5C 76.9305,46.5792 78.2638,46.2458 79.5,45.5C 80.2749,47.3022 81.2749,47.9689 82.5,47.5C 81.8717,50.09 80.705,52.4234 79,54.5C 76.3103,53.0708 73.4769,52.0708 70.5,51.5C 70.5,51.1667 70.5,50.8333 70.5,50.5C 72.0276,49.1979 73.0276,47.5313 73.5,45.5 Z"/></g>
<g><path style="opacity:1" fill="#794c34" d="M 107.5,43.5 C 106.276,45.8197 104.942,48.153 103.5,50.5C 103.65,53.0287 104.65,53.6954 106.5,52.5C 106.703,54.0443 107.37,55.3777 108.5,56.5C 108.167,56.8333 107.833,57.1667 107.5,57.5C 104.939,55.9204 102.939,53.9204 101.5,51.5C 99.3502,51.9052 97.3502,52.4052 95.5,53C 98.105,50.2443 100.772,47.7443 103.5,45.5C 104.514,44.3263 105.847,43.6596 107.5,43.5 Z"/></g>
<g><path style="opacity:1" fill="#472e1e" d="M 107.5,43.5 C 109.833,43.5 112.167,43.5 114.5,43.5C 115.671,44.3446 117.005,45.0113 118.5,45.5C 122.715,47.4364 127.381,48.1031 132.5,47.5C 132.5,48.8333 132.5,50.1667 132.5,51.5C 128.601,53.3856 124.934,55.7189 121.5,58.5C 120.575,57.6431 119.908,56.6431 119.5,55.5C 121.552,54.9473 121.885,53.9473 120.5,52.5C 119.564,51.0256 118.23,50.0256 116.5,49.5C 113.446,47.8256 110.112,47.3256 106.5,48C 105.2,49.5788 105.534,50.7455 107.5,51.5C 107.5,52.1667 107.167,52.5 106.5,52.5C 104.65,53.6954 103.65,53.0287 103.5,50.5C 104.942,48.153 106.276,45.8197 107.5,43.5 Z"/></g>
<g><path style="opacity:1" fill="#5f513a" d="M 239.5,18.5 C 241.074,18.9371 242.241,19.9371 243,21.5C 243.333,28.8333 243.667,36.1667 244,43.5C 244.841,40.3718 245.675,37.3718 246.5,34.5C 246.481,42.2207 244.814,49.554 241.5,56.5C 238.5,58.6676 236,61.3343 234,64.5C 233.601,64.2716 233.435,63.9382 233.5,63.5C 236.744,59.0865 238.411,54.0865 238.5,48.5C 240.275,43.7414 241.608,38.7414 242.5,33.5C 240.523,29.9758 240.19,26.3091 241.5,22.5C 240.71,21.5987 239.71,20.9321 238.5,20.5C 238.5,20.1667 238.5,19.8333 238.5,19.5C 239.167,19.5 239.5,19.1667 239.5,18.5 Z"/></g>
<g><path style="opacity:1" fill="#262625" d="M 20.5,43.5 C 21.8333,44.5 23.1667,45.5 24.5,46.5C 25.8333,48.1667 27.1667,49.8333 28.5,51.5C 26.3144,54.6113 23.3144,56.778 19.5,58C 18.2986,58.9025 17.4652,60.0692 17,61.5C 16.586,61.0426 16.086,60.7093 15.5,60.5C 14.3049,62.297 12.6382,63.297 10.5,63.5C 8.28192,68.0624 4.61526,71.0624 -0.5,72.5C -0.5,67.5 -0.5,62.5 -0.5,57.5C 0.117425,57.6107 0.617425,57.944 1,58.5C 7.98831,53.9963 14.4883,48.9963 20.5,43.5 Z"/></g>
<g><path style="opacity:1" fill="#2d1a09" d="M 31.5,40.5 C 33.631,41.3138 35.9644,41.8138 38.5,42C 37.6721,42.9147 36.6721,43.5814 35.5,44C 38.7869,45.3126 41.7869,47.1459 44.5,49.5C 43.91,50.7989 42.91,51.6322 41.5,52C 42.9839,52.6622 44.3172,53.4955 45.5,54.5C 42.6946,55.3195 39.6946,55.8195 36.5,56C 39.242,57.8864 40.9087,60.3864 41.5,63.5C 40.1667,62.5 38.8333,61.5 37.5,60.5C 36.8333,59.1667 35.8333,58.1667 34.5,57.5C 32.8333,55.1667 30.8333,53.1667 28.5,51.5C 27.1667,49.8333 25.8333,48.1667 24.5,46.5C 25.5073,44.4301 25.174,42.4301 23.5,40.5C 26.1258,39.5508 28.7925,39.5508 31.5,40.5 Z"/></g>
<g><path style="opacity:1" fill="#ece0cb" d="M 116.5,49.5 C 116.771,51.3797 116.104,52.713 114.5,53.5C 112.035,53.233 109.701,52.5664 107.5,51.5C 105.534,50.7455 105.2,49.5788 106.5,48C 110.112,47.3256 113.446,47.8256 116.5,49.5 Z"/></g>
<g><path style="opacity:1" fill="#c9996e" d="M 103.5,45.5 C 100.772,47.7443 98.105,50.2443 95.5,53C 97.3502,52.4052 99.3502,51.9052 101.5,51.5C 101.083,54.0792 101.75,56.2458 103.5,58C 101.184,59.2982 99.1843,60.7982 97.5,62.5C 95.0108,62.7022 92.6775,62.2022 90.5,61C 88.5061,58.338 86.5061,55.6713 84.5,53C 86.4256,48.9996 88.4256,45.1662 90.5,41.5C 89.1779,41.33 88.0113,41.6634 87,42.5C 86.5304,41.4232 86.6971,40.4232 87.5,39.5C 89.8155,38.6404 92.1489,38.1404 94.5,38C 92.8542,39.5548 92.5209,41.2215 93.5,43C 97.0561,43.2223 100.389,44.0556 103.5,45.5 Z"/></g>
<g><path style="opacity:1" fill="#dfbf8a" d="M 116.5,49.5 C 118.23,50.0256 119.564,51.0256 120.5,52.5C 119.082,54.3079 117.082,54.9746 114.5,54.5C 114.5,54.1667 114.5,53.8333 114.5,53.5C 116.104,52.713 116.771,51.3797 116.5,49.5 Z"/></g>
<g><path style="opacity:1" fill="#a67f5b" d="M 188.5,50.5 C 188.5,50.8333 188.5,51.1667 188.5,51.5C 186.547,52.2439 185.547,53.7439 185.5,56C 185.788,58.187 186.122,60.3537 186.5,62.5C 185.15,61.5169 184.15,60.1836 183.5,58.5C 182.41,59.3914 182.41,60.3914 183.5,61.5C 183.145,62.5223 182.478,63.189 181.5,63.5C 179.116,62.9575 176.116,62.9575 172.5,63.5C 170.935,61.4907 169.935,59.1573 169.5,56.5C 170.5,56.5 171.5,56.5 172.5,56.5C 172.496,60.6046 174.496,62.1046 178.5,61C 180.1,58.3599 179.766,56.1933 177.5,54.5C 181.107,53.284 184.774,51.9507 188.5,50.5 Z"/></g>
<g><path style="opacity:1" fill="#f7cc88" d="M 194.5,50.5 C 195.5,51.1667 196.5,51.8333 197.5,52.5C 197.833,53.8333 198.167,55.1667 198.5,56.5C 196.091,58.2905 194.424,57.7905 193.5,55C 193.905,54.0546 194.572,53.3879 195.5,53C 194.748,52.3292 194.414,51.4959 194.5,50.5 Z"/></g>
<g><path style="opacity:1" fill="#3d1e0c" d="M 70.5,52.5 C 71.1667,52.8333 71.8333,53.1667 72.5,53.5C 72.7329,55.0618 73.3995,56.3951 74.5,57.5C 73.1986,58.64 72.0319,59.9733 71,61.5C 70.4361,66.1935 70.6027,70.8602 71.5,75.5C 64.2173,69.9088 61.7173,62.5755 64,53.5C 66.0408,52.5769 68.2075,52.2436 70.5,52.5 Z"/></g>
<g><path style="opacity:1" fill="#51321c" d="M 162.5,55.5 C 160.088,55.6695 157.921,55.0028 156,53.5C 153.214,55.2274 151.047,56.8941 149.5,58.5C 148.277,55.6018 146.277,53.2685 143.5,51.5C 141.708,50.6909 139.708,50.1909 137.5,50C 142.007,49.575 146.341,48.7416 150.5,47.5C 150.5,49.5 150.5,51.5 150.5,53.5C 152.911,53.8633 154.411,52.8633 155,50.5C 157.928,51.6074 160.428,53.2741 162.5,55.5 Z"/></g>
<g><path style="opacity:1" fill="#f0d4b5" d="M 168.5,55.5 C 170.948,54.5269 173.615,54.1936 176.5,54.5C 175.329,55.3446 173.995,56.0113 172.5,56.5C 171.5,56.5 170.5,56.5 169.5,56.5C 169.5,55.8333 169.167,55.5 168.5,55.5 Z"/></g>
<g><path style="opacity:1" fill="#2f2f2e" d="M 28.5,51.5 C 30.8333,53.1667 32.8333,55.1667 34.5,57.5C 30.863,58.9855 27.5296,60.9855 24.5,63.5C 23.914,63.2907 23.414,62.9574 23,62.5C 18.1299,66.3583 12.9632,69.8583 7.5,73C 6.62404,74.586 5.62404,76.086 4.5,77.5C 5.2739,78.7112 6.10723,78.7112 7,77.5C 7.46434,78.0944 7.63101,78.7611 7.5,79.5C 4.64611,80.0256 1.97944,81.0256 -0.5,82.5C -0.5,79.1667 -0.5,75.8333 -0.5,72.5C 4.61526,71.0624 8.28192,68.0624 10.5,63.5C 12.6382,63.297 14.3049,62.297 15.5,60.5C 16.086,60.7093 16.586,61.0426 17,61.5C 17.4652,60.0692 18.2986,58.9025 19.5,58C 23.3144,56.778 26.3144,54.6113 28.5,51.5 Z"/></g>
<g><path style="opacity:1" fill="#a67556" d="M 101.5,51.5 C 102.939,53.9204 104.939,55.9204 107.5,57.5C 107.833,57.1667 108.167,56.8333 108.5,56.5C 107.37,55.3777 106.703,54.0443 106.5,52.5C 107.167,52.5 107.5,52.1667 107.5,51.5C 109.701,52.5664 112.035,53.233 114.5,53.5C 114.5,53.8333 114.5,54.1667 114.5,54.5C 113.262,54.81 113.262,55.31 114.5,56C 113.167,56.3333 111.833,56.6667 110.5,57C 112.107,58.049 112.773,59.549 112.5,61.5C 110.508,61.6715 108.842,61.0049 107.5,59.5C 103.219,61.6297 99.3854,64.2964 96,67.5C 94.0188,67.1015 92.5188,66.1015 91.5,64.5C 93.6976,64.1249 95.6976,63.4582 97.5,62.5C 99.1843,60.7982 101.184,59.2982 103.5,58C 101.75,56.2458 101.083,54.0792 101.5,51.5 Z"/></g>
<g><path style="opacity:1" fill="#372417" d="M 162.5,55.5 C 163.167,55.8333 163.833,56.1667 164.5,56.5C 165.434,57.5676 165.768,58.901 165.5,60.5C 165.5,61.1667 165.167,61.5 164.5,61.5C 164.389,60.8826 164.056,60.3826 163.5,60C 160.408,59.2642 157.408,59.4309 154.5,60.5C 153.391,60.5569 152.391,60.8902 151.5,61.5C 150.599,60.7095 149.932,59.7095 149.5,58.5C 151.047,56.8941 153.214,55.2274 156,53.5C 157.921,55.0028 160.088,55.6695 162.5,55.5 Z"/></g>
<g><path style="opacity:1" fill="#ce9d7f" d="M 132.5,51.5 C 133.5,51.5 134.5,51.5 135.5,51.5C 136.028,52.7206 136.695,53.8873 137.5,55C 135.5,55.3333 133.5,55.6667 131.5,56C 137.324,56.9153 137.657,58.2487 132.5,60C 133.416,60.2784 134.082,60.7784 134.5,61.5C 131.593,61.4248 128.927,60.5914 126.5,59C 128.8,56.7119 131.467,55.0452 134.5,54C 133.244,53.5831 132.577,52.7498 132.5,51.5 Z"/></g>
<g><path style="opacity:1" fill="#2f1d09" d="M 61.5,41.5 C 62.1667,41.5 62.5,41.8333 62.5,42.5C 62.5,42.8333 62.5,43.1667 62.5,43.5C 62.7529,45.8273 62.0863,47.8273 60.5,49.5C 60.8627,50.1835 61.1961,50.8501 61.5,51.5C 61.4372,57.2691 62.1039,62.9358 63.5,68.5C 62.7387,69.3909 61.7387,70.0576 60.5,70.5C 57.1247,69.2936 54.1247,67.4602 51.5,65C 49.8333,64.6667 48.1667,64.3333 46.5,64C 48.5767,63.8078 50.5767,63.3078 52.5,62.5C 51.7366,61.2807 50.7366,60.2807 49.5,59.5C 50.6155,58.4016 50.6155,57.2349 49.5,56C 51.4679,54.3417 53.4679,52.675 55.5,51C 55.2716,50.6012 54.9382,50.4346 54.5,50.5C 57.9457,48.3851 60.279,45.3851 61.5,41.5 Z"/></g>
<g><path style="opacity:1" fill="#f0c5a7" d="M 135.5,51.5 C 138.167,51.5 140.833,51.5 143.5,51.5C 146.277,53.2685 148.277,55.6018 149.5,58.5C 149.932,59.7095 150.599,60.7095 151.5,61.5C 153.984,63.5452 154.984,66.2118 154.5,69.5C 154.44,70.0431 154.107,70.3764 153.5,70.5C 152.818,69.7573 152.151,69.0906 151.5,68.5C 150.837,66.9581 150.17,65.2914 149.5,63.5C 147.571,64.3802 145.737,65.3802 144,66.5C 141.286,64.5488 138.453,62.8822 135.5,61.5C 135.167,61.5 134.833,61.5 134.5,61.5C 134.082,60.7784 133.416,60.2784 132.5,60C 137.657,58.2487 137.324,56.9153 131.5,56C 133.5,55.6667 135.5,55.3333 137.5,55C 136.695,53.8873 136.028,52.7206 135.5,51.5 Z"/></g>
<g><path style="opacity:1" fill="#c7b49a" d="M 164.5,61.5 C 164.649,62.552 164.483,63.552 164,64.5C 161.049,62.9239 157.883,62.2572 154.5,62.5C 154.5,61.8333 154.5,61.1667 154.5,60.5C 157.408,59.4309 160.408,59.2642 163.5,60C 164.056,60.3826 164.389,60.8826 164.5,61.5 Z"/></g>
<g><path style="opacity:1" fill="#c4ad73" d="M 157.5,41.5 C 158.833,42.5 160.167,43.5 161.5,44.5C 163.167,47.8333 164.833,51.1667 166.5,54.5C 167.681,58.7426 168.348,63.076 168.5,67.5C 166.917,65.4922 165.917,63.1589 165.5,60.5C 165.768,58.901 165.434,57.5676 164.5,56.5C 164.443,55.391 164.11,54.391 163.5,53.5C 162.012,49.1899 160.012,45.1899 157.5,41.5 Z"/></g>
<g><path style="opacity:1" fill="#f3b068" d="M 176.5,54.5 C 176.833,54.5 177.167,54.5 177.5,54.5C 179.766,56.1933 180.1,58.3599 178.5,61C 174.496,62.1046 172.496,60.6046 172.5,56.5C 173.995,56.0113 175.329,55.3446 176.5,54.5 Z"/></g>
<g><path style="opacity:1" fill="#e49f59" d="M 188.5,51.5 C 188.5,51.1667 188.5,50.8333 188.5,50.5C 188.833,50.5 189.167,50.5 189.5,50.5C 191.167,50.5 192.833,50.5 194.5,50.5C 194.414,51.4959 194.748,52.3292 195.5,53C 194.572,53.3879 193.905,54.0546 193.5,55C 194.424,57.7905 196.091,58.2905 198.5,56.5C 199.686,60.2644 198.353,61.2644 194.5,59.5C 192.976,58.8262 191.642,57.8262 190.5,56.5C 189.253,54.9936 189.253,53.4936 190.5,52C 189.906,51.5357 189.239,51.369 188.5,51.5 Z"/></g>
<g><path style="opacity:1" fill="#35260f" d="M 238.5,48.5 C 238.411,54.0865 236.744,59.0865 233.5,63.5C 231.167,65.5 228.833,67.5 226.5,69.5C 226.343,68.1266 226.51,66.7932 227,65.5C 230.656,61.5215 233.822,57.1881 236.5,52.5C 237.228,50.8453 237.395,49.1786 237,47.5C 234.447,53.0521 230.78,57.7187 226,61.5C 226.214,57.6665 226.881,53.9998 228,50.5C 224.933,53.7064 222.599,57.3731 221,61.5C 219.04,63.7855 216.874,65.7855 214.5,67.5C 213.304,67.1543 213.304,66.6543 214.5,66C 212.833,65.6667 211.167,65.3333 209.5,65C 207.886,62.8733 205.886,61.3733 203.5,60.5C 205.493,56.8437 208.16,53.8437 211.5,51.5C 214.616,49.4275 217.95,49.0941 221.5,50.5C 223.669,47.608 226.003,44.9413 228.5,42.5C 229.117,42.3893 229.617,42.056 230,41.5C 231.13,44.6161 231.63,47.6161 231.5,50.5C 232.806,49.0878 233.64,47.4211 234,45.5C 234.333,46.1667 234.667,46.8333 235,47.5C 237.867,40.6064 239.034,40.9398 238.5,48.5 Z"/></g>
<g><path style="opacity:1" fill="#211d0a" d="M 226.5,69.5 C 224.329,71.5002 221.996,73.3335 219.5,75C 220.448,75.4828 221.448,75.6495 222.5,75.5C 221.71,76.4013 220.71,77.0679 219.5,77.5C 219.158,76.6618 218.492,76.3284 217.5,76.5C 218.031,74.4559 219.198,72.7893 221,71.5C 221.193,67.7403 220.359,67.5736 218.5,71C 216.541,71.9309 214.541,72.7643 212.5,73.5C 210.517,72.018 208.684,70.3513 207,68.5C 205.444,69.5196 204.278,70.853 203.5,72.5C 204.732,74.0499 205.232,75.7166 205,77.5C 202.882,79.363 200.716,80.0296 198.5,79.5C 198.938,79.5654 199.272,79.3988 199.5,79C 197.561,78.0922 196.561,76.5922 196.5,74.5C 198.5,74.1667 200.5,73.8333 202.5,73.5C 203.335,69.6603 203.335,65.9937 202.5,62.5C 202.5,61.8333 202.5,61.1667 202.5,60.5C 202.833,60.5 203.167,60.5 203.5,60.5C 205.886,61.3733 207.886,62.8733 209.5,65C 211.167,65.3333 212.833,65.6667 214.5,66C 213.304,66.6543 213.304,67.1543 214.5,67.5C 216.874,65.7855 219.04,63.7855 221,61.5C 222.599,57.3731 224.933,53.7064 228,50.5C 226.881,53.9998 226.214,57.6665 226,61.5C 230.78,57.7187 234.447,53.0521 237,47.5C 237.395,49.1786 237.228,50.8453 236.5,52.5C 233.822,57.1881 230.656,61.5215 227,65.5C 226.51,66.7932 226.343,68.1266 226.5,69.5 Z"/></g>
<g><path style="opacity:1" fill="#825436" d="M 61.5,51.5 C 61.8333,51.5 62.1667,51.5 62.5,51.5C 64.8562,51.6845 67.5229,51.6845 70.5,51.5C 70.5,51.8333 70.5,52.1667 70.5,52.5C 68.2075,52.2436 66.0408,52.5769 64,53.5C 61.7173,62.5755 64.2173,69.9088 71.5,75.5C 71.5,76.1667 71.5,76.8333 71.5,77.5C 68.0904,75.0944 65.4237,72.0944 63.5,68.5C 62.1039,62.9358 61.4372,57.2691 61.5,51.5 Z"/></g>
<g><path style="opacity:1" fill="#6d4413" d="M 188.5,51.5 C 189.239,51.369 189.906,51.5357 190.5,52C 189.253,53.4936 189.253,54.9936 190.5,56.5C 191.642,57.8262 192.976,58.8262 194.5,59.5C 195.871,61.1412 197.704,62.1412 200,62.5C 201.03,62.1639 201.53,61.4972 201.5,60.5C 201.833,60.5 202.167,60.5 202.5,60.5C 202.5,61.1667 202.5,61.8333 202.5,62.5C 202.649,63.552 202.483,64.552 202,65.5C 198,64.8333 194,64.1667 190,63.5C 189.586,63.9574 189.086,64.2907 188.5,64.5C 187.818,63.7573 187.151,63.0906 186.5,62.5C 186.122,60.3537 185.788,58.187 185.5,56C 185.547,53.7439 186.547,52.2439 188.5,51.5 Z"/></g>
<g><path style="opacity:1" fill="#bb8b5e" d="M 198.5,56.5 C 199.974,57.4363 200.974,58.7697 201.5,60.5C 201.53,61.4972 201.03,62.1639 200,62.5C 197.704,62.1412 195.871,61.1412 194.5,59.5C 198.353,61.2644 199.686,60.2644 198.5,56.5 Z"/></g>
<g><path style="opacity:1" fill="#a97555" d="M 117.5,59.5 C 118.289,59.7828 118.956,60.2828 119.5,61C 117.386,64.9033 114.386,67.9033 110.5,70C 108.243,73.6787 105.41,76.8454 102,79.5C 101.601,79.2716 101.435,78.9382 101.5,78.5C 102.441,76.9505 103.107,75.2838 103.5,73.5C 106.14,70.1938 109.14,67.1938 112.5,64.5C 114.333,62.8883 116,61.2216 117.5,59.5 Z"/></g>
<g><path style="opacity:1" fill="#383939" d="M 34.5,57.5 C 35.8333,58.1667 36.8333,59.1667 37.5,60.5C 35.1955,63.2791 32.8622,66.1125 30.5,69C 29.5,69.3333 28.5,69.6667 27.5,70C 27.8333,70.3333 28.1667,70.6667 28.5,71C 27.5838,71.3742 26.7504,71.8742 26,72.5C 25.9005,74.6526 25.0672,76.3192 23.5,77.5C 18.2408,77.0164 13.2408,77.6831 8.5,79.5C 8.16667,79.5 7.83333,79.5 7.5,79.5C 7.63101,78.7611 7.46434,78.0944 7,77.5C 6.10723,78.7112 5.2739,78.7112 4.5,77.5C 5.62404,76.086 6.62404,74.586 7.5,73C 12.9632,69.8583 18.1299,66.3583 23,62.5C 23.414,62.9574 23.914,63.2907 24.5,63.5C 27.5296,60.9855 30.863,58.9855 34.5,57.5 Z"/></g>
<g><path style="opacity:1" fill="#44280f" d="M 54.5,50.5 C 54.9382,50.4346 55.2716,50.6012 55.5,51C 53.4679,52.675 51.4679,54.3417 49.5,56C 50.6155,57.2349 50.6155,58.4016 49.5,59.5C 50.7366,60.2807 51.7366,61.2807 52.5,62.5C 50.5767,63.3078 48.5767,63.8078 46.5,64C 48.1667,64.3333 49.8333,64.6667 51.5,65C 54.1247,67.4602 57.1247,69.2936 60.5,70.5C 61.7387,70.0576 62.7387,69.3909 63.5,68.5C 65.4237,72.0944 68.0904,75.0944 71.5,77.5C 71.5594,79.7645 70.7261,80.0978 69,78.5C 67.5405,78.8082 66.3739,79.4749 65.5,80.5C 64.8333,80.5 64.5,80.8333 64.5,81.5C 63.0783,81.2914 61.745,80.7914 60.5,80C 54.1353,74.4923 47.8019,68.9923 41.5,63.5C 40.9087,60.3864 39.242,57.8864 36.5,56C 39.6946,55.8195 42.6946,55.3195 45.5,54.5C 48.5029,53.1614 51.5029,51.8281 54.5,50.5 Z"/></g>
<g><path style="opacity:1" fill="#a87758" d="M 135.5,61.5 C 138.453,62.8822 141.286,64.5488 144,66.5C 145.737,65.3802 147.571,64.3802 149.5,63.5C 150.17,65.2914 150.837,66.9581 151.5,68.5C 151.167,69.5 150.5,70.1667 149.5,70.5C 148.226,69.8106 148.226,68.9772 149.5,68C 145.415,67.7668 141.415,67.2668 137.5,66.5C 136.833,64.8333 136.167,63.1667 135.5,61.5 Z"/></g>
<g><path style="opacity:1" fill="#684222" d="M 181.5,63.5 C 181.662,65.5273 181.495,67.5273 181,69.5C 180.333,68.8333 179.667,68.1667 179,67.5C 177.89,69.0368 176.39,69.7035 174.5,69.5C 174.029,67.4214 173.363,65.4214 172.5,63.5C 176.116,62.9575 179.116,62.9575 181.5,63.5 Z"/></g>
<g><path style="opacity:1" fill="#443d2a" d="M 241.5,56.5 C 237.522,65.145 231.188,71.4783 222.5,75.5C 221.448,75.6495 220.448,75.4828 219.5,75C 221.996,73.3335 224.329,71.5002 226.5,69.5C 228.833,67.5 231.167,65.5 233.5,63.5C 233.435,63.9382 233.601,64.2716 234,64.5C 236,61.3343 238.5,58.6676 241.5,56.5 Z"/></g>
<g><path style="opacity:1" fill="#8c5638" d="M 120.5,52.5 C 121.885,53.9473 121.552,54.9473 119.5,55.5C 118.127,55.3433 116.793,55.51 115.5,56C 116.305,57.1127 116.972,58.2794 117.5,59.5C 116,61.2216 114.333,62.8883 112.5,64.5C 112.03,63.3065 111.03,62.6399 109.5,62.5C 108.5,62.6667 107.5,62.8333 106.5,63C 101.978,67.023 97.6447,71.1896 93.5,75.5C 91.6634,74.1621 89.9967,72.6621 88.5,71C 88.7591,69.7387 89.4258,68.7387 90.5,68C 89.552,67.5172 88.552,67.3505 87.5,67.5C 87.6162,64.0897 85.9496,62.7564 82.5,63.5C 82.5,61.8333 82.5,60.1667 82.5,58.5C 85.5,60.5 88.5,62.5 91.5,64.5C 92.5188,66.1015 94.0188,67.1015 96,67.5C 99.3854,64.2964 103.219,61.6297 107.5,59.5C 108.842,61.0049 110.508,61.6715 112.5,61.5C 112.773,59.549 112.107,58.049 110.5,57C 111.833,56.6667 113.167,56.3333 114.5,56C 113.262,55.31 113.262,54.81 114.5,54.5C 117.082,54.9746 119.082,54.3079 120.5,52.5 Z"/></g>
<g><path style="opacity:1" fill="#6c3f23" d="M 137.5,66.5 C 141.415,67.2668 145.415,67.7668 149.5,68C 148.226,68.9772 148.226,69.8106 149.5,70.5C 148.521,72.9896 147.354,72.9896 146,70.5C 141.24,72.7453 138.407,71.412 137.5,66.5 Z"/></g>
<g><path style="opacity:1" fill="#7b6344" d="M 165.5,60.5 C 165.917,63.1589 166.917,65.4922 168.5,67.5C 168.5,68.1667 168.5,68.8333 168.5,69.5C 167.833,69.5 167.167,69.5 166.5,69.5C 165.5,69.5 164.5,69.5 163.5,69.5C 163.67,68.1779 163.337,67.0113 162.5,66C 159.208,65.9964 156.542,64.8297 154.5,62.5C 157.883,62.2572 161.049,62.9239 164,64.5C 164.483,63.552 164.649,62.552 164.5,61.5C 165.167,61.5 165.5,61.1667 165.5,60.5 Z"/></g>
<g><path style="opacity:1" fill="#2a2513" d="M 166.5,54.5 C 167.167,54.8333 167.833,55.1667 168.5,55.5C 169.167,55.5 169.5,55.8333 169.5,56.5C 169.935,59.1573 170.935,61.4907 172.5,63.5C 173.363,65.4214 174.029,67.4214 174.5,69.5C 174.989,70.9952 175.655,72.3285 176.5,73.5C 176.5,73.8333 176.5,74.1667 176.5,74.5C 175.07,74.5792 173.736,74.2458 172.5,73.5C 171.265,74.3398 170.265,75.3398 169.5,76.5C 169.702,74.0504 169.369,71.717 168.5,69.5C 168.5,68.8333 168.5,68.1667 168.5,67.5C 168.348,63.076 167.681,58.7426 166.5,54.5 Z"/></g>
<g><path style="opacity:1" fill="#272e2e" d="M 255.5,40.5 C 255.5,42.5 255.5,44.5 255.5,46.5C 253.661,47.5077 252.328,49.0077 251.5,51C 252.833,52.8402 252.666,53.3402 251,52.5C 250.691,53.7659 250.191,54.9326 249.5,56C 249.833,56.3333 250.167,56.6667 250.5,57C 249.692,57.3076 249.025,57.8076 248.5,58.5C 249.491,60.1227 248.824,61.1227 246.5,61.5C 245.402,57.6395 244.569,57.6395 244,61.5C 243.667,61.1667 243.333,60.8333 243,60.5C 242.355,61.646 241.522,62.646 240.5,63.5C 240.709,64.086 241.043,64.586 241.5,65C 240.09,65.3678 239.09,66.2011 238.5,67.5C 239.5,67.5 240.5,67.5 241.5,67.5C 239.9,73.6004 236.067,77.6004 230,79.5C 229.626,80.4162 229.126,81.2496 228.5,82C 230.929,82.4512 231.096,83.2845 229,84.5C 227.951,83.4829 226.784,83.3162 225.5,84C 226.711,84.8928 226.711,85.7261 225.5,86.5C 224.914,86.2907 224.414,85.9574 224,85.5C 220.433,90.0325 216.933,93.8658 213.5,97C 214.328,97.9147 215.328,98.5814 216.5,99C 214.68,99.9794 213.513,101.479 213,103.5C 212.586,103.043 212.086,102.709 211.5,102.5C 209.157,104.344 206.99,106.344 205,108.5C 202.546,106.987 200.879,107.654 200,110.5C 199.481,109.484 198.647,108.818 197.5,108.5C 195.5,109 193.5,109.5 191.5,110C 188.375,112.634 185.208,115.134 182,117.5C 181.221,114.903 180.721,114.903 180.5,117.5C 179.508,117.328 178.842,117.662 178.5,118.5C 176.287,117.227 173.954,116.227 171.5,115.5C 170.147,113.485 170.647,111.818 173,110.5C 173.419,111.672 174.085,112.672 175,113.5C 176.734,112.751 178.567,112.251 180.5,112C 182.029,108.971 184.362,106.805 187.5,105.5C 188.806,104.088 189.64,102.421 190,100.5C 190.333,100.833 190.667,101.167 191,101.5C 192.333,100.167 193.667,98.8333 195,97.5C 194.021,95.7215 194.354,94.0548 196,92.5C 196.308,93.3081 196.808,93.9747 197.5,94.5C 200.26,91.9378 203.26,90.6045 206.5,90.5C 208.701,88.9435 208.701,87.7768 206.5,87C 207.167,86 207.833,85 208.5,84C 208.272,83.6012 207.938,83.4346 207.5,83.5C 209.463,82.1798 211.463,80.8465 213.5,79.5C 215.684,80.1081 217.684,79.4414 219.5,77.5C 220.71,77.0679 221.71,76.4013 222.5,75.5C 231.188,71.4783 237.522,65.145 241.5,56.5C 244.814,49.554 246.481,42.2207 246.5,34.5C 246.5,31.5 246.5,28.5 246.5,25.5C 247.324,29.3123 247.824,33.3123 248,37.5C 248.333,33.1667 248.667,28.8333 249,24.5C 249.495,26.4727 249.662,28.4727 249.5,30.5C 250.822,30.67 251.989,30.3366 253,29.5C 253.015,33.2368 253.848,36.9035 255.5,40.5 Z"/></g>
<g><path style="opacity:1" fill="#43270d" d="M 186.5,62.5 C 187.151,63.0906 187.818,63.7573 188.5,64.5C 189.086,64.2907 189.586,63.9574 190,63.5C 194,64.1667 198,64.8333 202,65.5C 202.483,64.552 202.649,63.552 202.5,62.5C 203.335,65.9937 203.335,69.6603 202.5,73.5C 200.5,73.8333 198.5,74.1667 196.5,74.5C 196.561,76.5922 197.561,78.0922 199.5,79C 199.272,79.3988 198.938,79.5654 198.5,79.5C 195.911,78.5806 193.911,76.914 192.5,74.5C 191.243,72.32 189.743,70.32 188,68.5C 183.05,69.029 180.883,71.6957 181.5,76.5C 180.078,75.075 178.411,74.075 176.5,73.5C 175.655,72.3285 174.989,70.9952 174.5,69.5C 176.39,69.7035 177.89,69.0368 179,67.5C 179.667,68.1667 180.333,68.8333 181,69.5C 181.495,67.5273 181.662,65.5273 181.5,63.5C 182.478,63.189 183.145,62.5223 183.5,61.5C 182.41,60.3914 182.41,59.3914 183.5,58.5C 184.15,60.1836 185.15,61.5169 186.5,62.5 Z"/></g>
<g><path style="opacity:1" fill="#5e3b22" d="M 154.5,60.5 C 154.5,61.1667 154.5,61.8333 154.5,62.5C 156.542,64.8297 159.208,65.9964 162.5,66C 163.337,67.0113 163.67,68.1779 163.5,69.5C 164.5,69.5 165.5,69.5 166.5,69.5C 168.198,74.2657 167.531,78.599 164.5,82.5C 164.322,76.3901 162.655,76.0567 159.5,81.5C 158.732,80.7375 158.232,79.7375 158,78.5C 157.329,77.7476 156.496,77.4142 155.5,77.5C 154.723,74.692 154.39,72.0253 154.5,69.5C 154.984,66.2118 153.984,63.5452 151.5,61.5C 152.391,60.8902 153.391,60.5569 154.5,60.5 Z"/></g>
<g><path style="opacity:1" fill="#301404" d="M 192.5,74.5 C 187.937,75.448 183.937,77.448 180.5,80.5C 180.833,79.1667 181.167,77.8333 181.5,76.5C 180.883,71.6957 183.05,69.029 188,68.5C 189.743,70.32 191.243,72.32 192.5,74.5 Z"/></g>
<g><path style="opacity:1" fill="#3a2c1b" d="M 137.5,66.5 C 138.407,71.412 141.24,72.7453 146,70.5C 147.354,72.9896 148.521,72.9896 149.5,70.5C 150.5,70.1667 151.167,69.5 151.5,68.5C 152.151,69.0906 152.818,69.7573 153.5,70.5C 154.107,70.3764 154.44,70.0431 154.5,69.5C 154.39,72.0253 154.723,74.692 155.5,77.5C 154.427,80.6439 153.093,83.6439 151.5,86.5C 147.755,85.1875 147.089,85.8542 149.5,88.5C 148.167,88.5 146.833,88.5 145.5,88.5C 146.109,85.1216 144.776,83.1216 141.5,82.5C 141.5,81.8333 141.167,81.5 140.5,81.5C 139.833,81.5 139.5,81.1667 139.5,80.5C 143.487,81.6655 147.487,82.4989 151.5,83C 147.381,80.6818 143.047,78.8485 138.5,77.5C 134.423,73.7542 131.09,69.4209 128.5,64.5C 132.042,62.9218 135.042,63.5885 137.5,66.5 Z"/></g>
<g><path style="opacity:1" fill="#7c4628" d="M 72.5,53.5 C 75.4309,55.0908 78.0976,57.0908 80.5,59.5C 81.1835,59.1373 81.8501,58.8039 82.5,58.5C 82.5,60.1667 82.5,61.8333 82.5,63.5C 85.9496,62.7564 87.6162,64.0897 87.5,67.5C 88.552,67.3505 89.552,67.5172 90.5,68C 89.4258,68.7387 88.7591,69.7387 88.5,71C 89.9967,72.6621 91.6634,74.1621 93.5,75.5C 97.6447,71.1896 101.978,67.023 106.5,63C 107.5,62.8333 108.5,62.6667 109.5,62.5C 111.03,62.6399 112.03,63.3065 112.5,64.5C 109.14,67.1938 106.14,70.1938 103.5,73.5C 101.807,74.4749 100.307,75.8082 99,77.5C 98.6667,77.1667 98.3333,76.8333 98,76.5C 96.53,78.1519 94.6967,79.1519 92.5,79.5C 90.4845,77.7612 88.8179,75.7612 87.5,73.5C 87.5,72.8333 87.1667,72.5 86.5,72.5C 85.0582,71.1805 84.3915,69.5138 84.5,67.5C 81.6421,67.9717 79.6421,66.9717 78.5,64.5C 78.0023,61.6737 76.6689,59.3403 74.5,57.5C 73.3995,56.3951 72.7329,55.0618 72.5,53.5 Z"/></g>
<g><path style="opacity:1" fill="#a69474" d="M 166.5,69.5 C 167.167,69.5 167.833,69.5 168.5,69.5C 169.369,71.717 169.702,74.0504 169.5,76.5C 168.265,79.3013 166.765,81.9679 165,84.5C 164.536,83.9056 164.369,83.2389 164.5,82.5C 167.531,78.599 168.198,74.2657 166.5,69.5 Z"/></g>
<g><path style="opacity:1" fill="#41311b" d="M 176.5,74.5 C 177.158,78.305 177.491,81.9717 177.5,85.5C 176.685,86.8366 175.518,87.8366 174,88.5C 173.634,90.4517 172.801,92.1184 171.5,93.5C 167.959,96.863 164.626,100.53 161.5,104.5C 160.911,107.64 160.244,110.64 159.5,113.5C 159.514,106.996 159.181,100.329 158.5,93.5C 157.833,99.8333 157.167,106.167 156.5,112.5C 156.032,104.357 155.032,96.3572 153.5,88.5C 155.255,86.1965 156.422,83.5298 157,80.5C 157.497,82.8098 157.663,85.1432 157.5,87.5C 156.527,89.0683 156.36,90.735 157,92.5C 158.523,90.4308 159.357,88.0974 159.5,85.5C 159.5,84.1667 159.5,82.8333 159.5,81.5C 162.655,76.0567 164.322,76.3901 164.5,82.5C 164.369,83.2389 164.536,83.9056 165,84.5C 166.765,81.9679 168.265,79.3013 169.5,76.5C 170.265,75.3398 171.265,74.3398 172.5,73.5C 173.736,74.2458 175.07,74.5792 176.5,74.5 Z"/></g>
<g><path style="opacity:1" fill="#6f3417" d="M 78.5,64.5 C 79.6421,66.9717 81.6421,67.9717 84.5,67.5C 84.3915,69.5138 85.0582,71.1805 86.5,72.5C 83.8333,73.1667 82.1667,74.8333 81.5,77.5C 80.6568,79.4872 79.9902,81.6539 79.5,84C 80.4297,86.6775 79.4297,87.1775 76.5,85.5C 71.5749,80.3534 71.2415,75.6867 75.5,71.5C 76.5237,72.8532 77.857,73.5198 79.5,73.5C 79.6567,72.1266 79.49,70.7932 79,69.5C 78.3457,70.6956 77.8457,70.6956 77.5,69.5C 78.3094,67.9291 78.6427,66.2624 78.5,64.5 Z"/></g>
<g><path style="opacity:1" fill="#78543e" d="M 118.5,69.5 C 117.341,71.8546 116.341,74.1879 115.5,76.5C 115.631,75.7611 115.464,75.0944 115,74.5C 111.308,77.6931 108.142,81.3598 105.5,85.5C 104.222,85.2178 103.222,84.5511 102.5,83.5C 106.914,77.7508 112.247,73.0841 118.5,69.5 Z"/></g>
<g><path style="opacity:1" fill="#6d633d" d="M 217.5,76.5 C 218.492,76.3284 219.158,76.6618 219.5,77.5C 217.684,79.4414 215.684,80.1081 213.5,79.5C 214.545,78.1224 215.878,77.1224 217.5,76.5 Z"/></g>
<g><path style="opacity:1" fill="#484948" d="M 37.5,60.5 C 38.8333,61.5 40.1667,62.5 41.5,63.5C 47.8019,68.9923 54.1353,74.4923 60.5,80C 61.745,80.7914 63.0783,81.2914 64.5,81.5C 64.552,83.9029 64.2186,86.2362 63.5,88.5C 62.3583,92.1168 60.6916,95.4502 58.5,98.5C 51.371,89.7637 42.371,83.7637 31.5,80.5C 28.3642,80.3969 25.6975,79.3969 23.5,77.5C 25.0672,76.3192 25.9005,74.6526 26,72.5C 26.7504,71.8742 27.5838,71.3742 28.5,71C 28.1667,70.6667 27.8333,70.3333 27.5,70C 28.5,69.6667 29.5,69.3333 30.5,69C 32.8622,66.1125 35.1955,63.2791 37.5,60.5 Z"/></g>
<g><path style="opacity:1" fill="#141204" d="M 217.5,76.5 C 215.878,77.1224 214.545,78.1224 213.5,79.5C 211.463,80.8465 209.463,82.1798 207.5,83.5C 205.323,83.5861 203.323,84.2528 201.5,85.5C 198.523,84.7958 195.856,85.6292 193.5,88C 186.126,89.7372 178.792,91.5706 171.5,93.5C 172.801,92.1184 173.634,90.4517 174,88.5C 175.518,87.8366 176.685,86.8366 177.5,85.5C 178.248,83.6675 179.248,82.0009 180.5,80.5C 183.937,77.448 187.937,75.448 192.5,74.5C 193.911,76.914 195.911,78.5806 198.5,79.5C 200.716,80.0296 202.882,79.363 205,77.5C 205.232,75.7166 204.732,74.0499 203.5,72.5C 204.278,70.853 205.444,69.5196 207,68.5C 208.684,70.3513 210.517,72.018 212.5,73.5C 214.541,72.7643 216.541,71.9309 218.5,71C 220.359,67.5736 221.193,67.7403 221,71.5C 219.198,72.7893 218.031,74.4559 217.5,76.5 Z"/></g>
<g><path style="opacity:1" fill="#c5c8bc" d="M 23.5,77.5 C 25.6975,79.3969 28.3642,80.3969 31.5,80.5C 31.7148,82.1788 31.0481,83.1788 29.5,83.5C 25.7196,82.5974 21.8862,81.9308 18,81.5C 14.5368,81.8524 11.3701,82.8524 8.5,84.5C 6.89674,84.6882 5.56341,84.1882 4.5,83C 6.09309,82.0513 7.42643,80.8846 8.5,79.5C 13.2408,77.6831 18.2408,77.0164 23.5,77.5 Z"/></g>
<g><path style="opacity:1" fill="#724125" d="M 132.5,51.5 C 132.577,52.7498 133.244,53.5831 134.5,54C 131.467,55.0452 128.8,56.7119 126.5,59C 128.927,60.5914 131.593,61.4248 134.5,61.5C 134.833,61.5 135.167,61.5 135.5,61.5C 136.167,63.1667 136.833,64.8333 137.5,66.5C 135.042,63.5885 132.042,62.9218 128.5,64.5C 131.09,69.4209 134.423,73.7542 138.5,77.5C 135.482,77.3354 132.482,77.502 129.5,78C 127.881,78.2355 126.881,79.0689 126.5,80.5C 125.5,81.1667 124.5,81.8333 123.5,82.5C 122.761,82.631 122.094,82.4643 121.5,82C 121.179,79.2665 121.179,76.4331 121.5,73.5C 125.653,81.3551 126.486,80.6884 124,71.5C 123,70.1667 122,68.8333 121,67.5C 120.601,67.7284 120.435,68.0618 120.5,68.5C 119.508,68.3284 118.842,68.6618 118.5,69.5C 112.247,73.0841 106.914,77.7508 102.5,83.5C 101.483,85.5995 100.15,86.5995 98.5,86.5C 99.2132,84.2241 99.7132,81.8907 100,79.5C 100.383,78.944 100.883,78.6107 101.5,78.5C 101.435,78.9382 101.601,79.2716 102,79.5C 105.41,76.8454 108.243,73.6787 110.5,70C 114.386,67.9033 117.386,64.9033 119.5,61C 118.956,60.2828 118.289,59.7828 117.5,59.5C 116.972,58.2794 116.305,57.1127 115.5,56C 116.793,55.51 118.127,55.3433 119.5,55.5C 119.908,56.6431 120.575,57.6431 121.5,58.5C 124.934,55.7189 128.601,53.3856 132.5,51.5 Z"/></g>
<g><path style="opacity:1" fill="#c7ac80" d="M 120.5,68.5 C 118.566,73.2428 116.899,77.9095 115.5,82.5C 115.5,80.5 115.5,78.5 115.5,76.5C 116.341,74.1879 117.341,71.8546 118.5,69.5C 118.842,68.6618 119.508,68.3284 120.5,68.5 Z"/></g>
<g><path style="opacity:1" fill="#7c5c3e" d="M 123.5,82.5 C 120.995,84.0114 118.328,85.3447 115.5,86.5C 115.5,85.1667 115.5,83.8333 115.5,82.5C 116.899,77.9095 118.566,73.2428 120.5,68.5C 120.435,68.0618 120.601,67.7284 121,67.5C 122,68.8333 123,70.1667 124,71.5C 126.486,80.6884 125.653,81.3551 121.5,73.5C 121.179,76.4331 121.179,79.2665 121.5,82C 122.094,82.4643 122.761,82.631 123.5,82.5 Z"/></g>
<g><path style="opacity:1" fill="#301d15" d="M 138.5,77.5 C 143.047,78.8485 147.381,80.6818 151.5,83C 147.487,82.4989 143.487,81.6655 139.5,80.5C 135.167,80.5 130.833,80.5 126.5,80.5C 126.881,79.0689 127.881,78.2355 129.5,78C 132.482,77.502 135.482,77.3354 138.5,77.5 Z"/></g>
<g><path style="opacity:1" fill="#9c8c5f" d="M 176.5,73.5 C 178.411,74.075 180.078,75.075 181.5,76.5C 181.167,77.8333 180.833,79.1667 180.5,80.5C 179.248,82.0009 178.248,83.6675 177.5,85.5C 177.491,81.9717 177.158,78.305 176.5,74.5C 176.5,74.1667 176.5,73.8333 176.5,73.5 Z"/></g>
<g><path style="opacity:1" fill="#2a1813" d="M 29.5,83.5 C 32.4279,84.8167 35.4279,86.15 38.5,87.5C 38.3893,88.1174 38.056,88.6174 37.5,89C 39.6558,90.9904 41.6558,93.1571 43.5,95.5C 42.1483,96.0339 40.815,95.5339 39.5,94C 38.2068,93.51 36.8734,93.3433 35.5,93.5C 29.4182,90.803 23.0849,88.803 16.5,87.5C 13.9709,88.0255 11.6376,89.0255 9.5,90.5C 8.22999,88.4523 7.89665,86.4523 8.5,84.5C 11.3701,82.8524 14.5368,81.8524 18,81.5C 21.8862,81.9308 25.7196,82.5974 29.5,83.5 Z"/></g>
<g><path style="opacity:1" fill="#816f5a" d="M 155.5,77.5 C 156.496,77.4142 157.329,77.7476 158,78.5C 158.232,79.7375 158.732,80.7375 159.5,81.5C 159.5,82.8333 159.5,84.1667 159.5,85.5C 158.833,86.1667 158.167,86.8333 157.5,87.5C 157.663,85.1432 157.497,82.8098 157,80.5C 156.422,83.5298 155.255,86.1965 153.5,88.5C 152.5,88.1667 151.833,87.5 151.5,86.5C 153.093,83.6439 154.427,80.6439 155.5,77.5 Z"/></g>
<g><path style="opacity:1" fill="#303535" d="M 207.5,83.5 C 207.938,83.4346 208.272,83.6012 208.5,84C 207.833,85 207.167,86 206.5,87C 208.701,87.7768 208.701,88.9435 206.5,90.5C 203.26,90.6045 200.26,91.9378 197.5,94.5C 196.808,93.9747 196.308,93.3081 196,92.5C 194.354,94.0548 194.021,95.7215 195,97.5C 193.667,98.8333 192.333,100.167 191,101.5C 190.667,101.167 190.333,100.833 190,100.5C 189.64,102.421 188.806,104.088 187.5,105.5C 184.362,106.805 182.029,108.971 180.5,112C 178.567,112.251 176.734,112.751 175,113.5C 174.085,112.672 173.419,111.672 173,110.5C 170.647,111.818 170.147,113.485 171.5,115.5C 171.5,115.833 171.5,116.167 171.5,116.5C 167.681,116.414 164.015,117.081 160.5,118.5C 159.778,118.082 159.278,117.416 159,116.5C 158.667,118.167 158.333,119.833 158,121.5C 157.487,120.473 156.987,119.473 156.5,118.5C 157.062,115.949 158.062,114.282 159.5,113.5C 160.244,110.64 160.911,107.64 161.5,104.5C 164.626,100.53 167.959,96.863 171.5,93.5C 178.792,91.5706 186.126,89.7372 193.5,88C 195.856,85.6292 198.523,84.7958 201.5,85.5C 203.323,84.2528 205.323,83.5861 207.5,83.5 Z"/></g>
<g><path style="opacity:1" fill="#dda589" d="M 126.5,80.5 C 130.833,80.5 135.167,80.5 139.5,80.5C 139.5,81.1667 139.833,81.5 140.5,81.5C 140.494,83.8444 139.327,85.1777 137,85.5C 132.677,84.3022 128.51,84.3022 124.5,85.5C 121.31,85.5129 118.476,86.5129 116,88.5C 115.235,88.4301 114.735,88.0967 114.5,87.5C 115.167,87.5 115.5,87.1667 115.5,86.5C 118.328,85.3447 120.995,84.0114 123.5,82.5C 124.5,81.8333 125.5,81.1667 126.5,80.5 Z"/></g>
<g><path style="opacity:1" fill="#5b2915" d="M 115.5,76.5 C 115.5,78.5 115.5,80.5 115.5,82.5C 115.5,83.8333 115.5,85.1667 115.5,86.5C 115.5,87.1667 115.167,87.5 114.5,87.5C 111.562,88.622 109.562,90.622 108.5,93.5C 107.603,94.5981 106.77,94.5981 106,93.5C 105.667,91.8333 105.333,90.1667 105,88.5C 102.25,91.4163 101.083,94.9163 101.5,99C 101.506,101.033 101.839,102.866 102.5,104.5C 101.167,105.933 99.6667,107.267 98,108.5C 98.0052,105.464 98.5052,102.464 99.5,99.5C 99.3726,93.8712 101.373,89.2045 105.5,85.5C 108.142,81.3598 111.308,77.6931 115,74.5C 115.464,75.0944 115.631,75.7611 115.5,76.5 Z"/></g>
<g><path style="opacity:1" fill="#926347" d="M 140.5,81.5 C 141.167,81.5 141.5,81.8333 141.5,82.5C 142.146,84.1561 142.813,85.8228 143.5,87.5C 143.253,88.7133 142.586,89.38 141.5,89.5C 140.833,89.5 140.5,89.1667 140.5,88.5C 139.848,87.2749 138.681,86.6083 137,86.5C 132.863,85.7625 128.697,85.4292 124.5,85.5C 128.51,84.3022 132.677,84.3022 137,85.5C 139.327,85.1777 140.494,83.8444 140.5,81.5 Z"/></g>
<g><path style="opacity:1" fill="#9c6448" d="M 124.5,85.5 C 123.013,86.8036 121.346,87.9702 119.5,89C 117.859,90.129 116.859,91.629 116.5,93.5C 114.754,95.2516 112.754,96.5849 110.5,97.5C 110.473,95.8007 109.806,94.4674 108.5,93.5C 109.562,90.622 111.562,88.622 114.5,87.5C 114.735,88.0967 115.235,88.4301 116,88.5C 118.476,86.5129 121.31,85.5129 124.5,85.5 Z"/></g>
<g><path style="opacity:1" fill="#7b4730" d="M 124.5,85.5 C 128.697,85.4292 132.863,85.7625 137,86.5C 138.681,86.6083 139.848,87.2749 140.5,88.5C 139.5,88.5 138.5,88.5 137.5,88.5C 137.693,92.5662 137.36,96.5662 136.5,100.5C 135.21,101.058 134.377,102.058 134,103.5C 133.667,103.167 133.333,102.833 133,102.5C 131.894,105.726 130.061,108.393 127.5,110.5C 126.833,109.5 126.167,108.5 125.5,107.5C 124.914,107.709 124.414,108.043 124,108.5C 123.696,106.559 122.863,104.893 121.5,103.5C 122.519,101.396 123.519,99.396 124.5,97.5C 124.343,98.8734 124.51,100.207 125,101.5C 126.147,100.542 127.147,100.875 128,102.5C 128.862,100.913 129.529,99.2464 130,97.5C 131.011,96.6634 132.178,96.33 133.5,96.5C 133.351,97.552 133.517,98.552 134,99.5C 134.5,97 135,94.5 135.5,92C 135.532,90.0289 134.698,88.5289 133,87.5C 131.829,88.8932 130.329,89.7265 128.5,90C 127.748,90.6708 127.414,91.5041 127.5,92.5C 123.369,93.8162 119.536,95.8162 116,98.5C 115.289,96.6332 115.789,95.1332 117.5,94C 117.272,93.6012 116.938,93.4346 116.5,93.5C 116.859,91.629 117.859,90.129 119.5,89C 121.346,87.9702 123.013,86.8036 124.5,85.5 Z"/></g>
<g><path style="opacity:1" fill="#542a16" d="M 74.5,57.5 C 76.6689,59.3403 78.0023,61.6737 78.5,64.5C 78.6427,66.2624 78.3094,67.9291 77.5,69.5C 77.8457,70.6956 78.3457,70.6956 79,69.5C 79.49,70.7932 79.6567,72.1266 79.5,73.5C 77.857,73.5198 76.5237,72.8532 75.5,71.5C 71.2415,75.6867 71.5749,80.3534 76.5,85.5C 79.4297,87.1775 80.4297,86.6775 79.5,84C 79.9902,81.6539 80.6568,79.4872 81.5,77.5C 81.5712,80.7421 82.5712,83.5755 84.5,86C 83.9152,87.3024 83.2485,88.469 82.5,89.5C 80.7131,88.1826 79.0464,88.516 77.5,90.5C 76.2888,89.7261 76.2888,88.8928 77.5,88C 74.2679,85.6862 71.2679,83.1862 68.5,80.5C 67.5,80.5 66.5,80.5 65.5,80.5C 66.3739,79.4749 67.5405,78.8082 69,78.5C 70.7261,80.0978 71.5594,79.7645 71.5,77.5C 71.5,76.8333 71.5,76.1667 71.5,75.5C 70.6027,70.8602 70.4361,66.1935 71,61.5C 72.0319,59.9733 73.1986,58.64 74.5,57.5 Z"/></g>
<g><path style="opacity:1" fill="#503c24" d="M 141.5,82.5 C 144.776,83.1216 146.109,85.1216 145.5,88.5C 146.833,88.5 148.167,88.5 149.5,88.5C 150.23,89.7124 151.23,90.7124 152.5,91.5C 151.933,93.9823 151.266,96.3157 150.5,98.5C 150.628,96.3453 150.128,94.3453 149,92.5C 146.442,95.7314 144.942,99.3981 144.5,103.5C 143.357,100.024 143.19,96.3575 144,92.5C 144.5,92 145,91.5 145.5,91C 144.207,90.51 142.873,90.3433 141.5,90.5C 141.5,90.1667 141.5,89.8333 141.5,89.5C 142.586,89.38 143.253,88.7133 143.5,87.5C 142.813,85.8228 142.146,84.1561 141.5,82.5 Z"/></g>
<g><path style="opacity:1" fill="#1c2626" d="M 255.5,62.5 C 255.5,68.5 255.5,74.5 255.5,80.5C 250.802,87.8882 246.469,95.5549 242.5,103.5C 236.995,112.508 231.995,121.841 227.5,131.5C 225.252,134.328 223.252,137.328 221.5,140.5C 220.354,137.041 219.354,133.541 218.5,130C 219.329,127.284 219.663,124.617 219.5,122C 218.299,121.097 217.465,119.931 217,118.5C 212.581,122.419 208.248,125.752 204,128.5C 201.232,127.008 198.899,128.008 197,131.5C 196.383,130.551 196.549,129.718 197.5,129C 196.975,128.308 196.308,127.808 195.5,127.5C 192.869,128.344 190.369,128.677 188,128.5C 186.628,127.09 185.795,125.423 185.5,123.5C 189.645,121.141 194.145,118.474 199,115.5C 199.419,116.672 200.085,117.672 201,118.5C 202.617,117.149 203.784,115.482 204.5,113.5C 206.258,112.872 207.758,111.872 209,110.5C 209.308,111.308 209.808,111.975 210.5,112.5C 211.924,110.282 213.924,108.782 216.5,108C 215.241,107.077 213.908,106.243 212.5,105.5C 215.411,104.208 217.244,105.208 218,108.5C 219.42,106.578 221.253,105.245 223.5,104.5C 225.752,98.6003 229.752,95.4336 235.5,95C 234.833,94.6667 234.167,94.3333 233.5,94C 234.965,92.107 236.631,90.4404 238.5,89C 237.453,87.4223 237.453,85.9223 238.5,84.5C 239.425,83.3595 240.259,83.3595 241,84.5C 242.605,80.7241 245.438,78.7241 249.5,78.5C 249.714,76.8561 249.38,75.3561 248.5,74C 250.592,70.13 252.926,66.2967 255.5,62.5 Z"/></g>
<g><path style="opacity:1" fill="#c9b181" d="M 159.5,85.5 C 159.357,88.0974 158.523,90.4308 157,92.5C 156.36,90.735 156.527,89.0683 157.5,87.5C 158.167,86.8333 158.833,86.1667 159.5,85.5 Z"/></g>
<g><path style="opacity:1" fill="#4d1c0f" d="M 35.5,93.5 C 37.8648,95.5265 40.5314,97.1932 43.5,98.5C 44.4287,99.6888 44.762,101.022 44.5,102.5C 42.704,102.606 40.704,102.772 38.5,103C 33.4957,100.68 28.9957,97.5137 25,93.5C 25.4087,95.2251 25.2421,96.8918 24.5,98.5C 23.2997,97.4688 21.9663,96.6355 20.5,96C 17.5694,88.53 15.236,88.6967 13.5,96.5C 11.6736,94.8525 10.3403,92.8525 9.5,90.5C 11.6376,89.0255 13.9709,88.0255 16.5,87.5C 23.0849,88.803 29.4182,90.803 35.5,93.5 Z"/></g>
<g><path style="opacity:1" fill="#d9d1c8" d="M 59.5,98.5 C 59.1667,98.5 58.8333,98.5 58.5,98.5C 60.6916,95.4502 62.3583,92.1168 63.5,88.5C 64.1174,88.3893 64.6174,88.056 65,87.5C 66.1121,92.5744 64.2788,96.2411 59.5,98.5 Z"/></g>
<g><path style="opacity:1" fill="#818172" d="M 31.5,80.5 C 42.371,83.7637 51.371,89.7637 58.5,98.5C 58.8333,98.5 59.1667,98.5 59.5,98.5C 59.8333,99.1667 60.1667,99.8333 60.5,100.5C 60.5,101.167 60.1667,101.5 59.5,101.5C 59.1667,101.5 58.8333,101.5 58.5,101.5C 54.4295,99.2668 51.0961,96.1001 48.5,92C 45.2941,90.2306 41.9608,88.7306 38.5,87.5C 35.4279,86.15 32.4279,84.8167 29.5,83.5C 31.0481,83.1788 31.7148,82.1788 31.5,80.5 Z"/></g>
<g><path style="opacity:1" fill="#9b6143" d="M 124.5,97.5 C 125.759,96.0209 126.759,94.3542 127.5,92.5C 127.414,91.5041 127.748,90.6708 128.5,90C 130.329,89.7265 131.829,88.8932 133,87.5C 134.698,88.5289 135.532,90.0289 135.5,92C 135,94.5 134.5,97 134,99.5C 133.517,98.552 133.351,97.552 133.5,96.5C 132.178,96.33 131.011,96.6634 130,97.5C 129.529,99.2464 128.862,100.913 128,102.5C 127.147,100.875 126.147,100.542 125,101.5C 124.51,100.207 124.343,98.8734 124.5,97.5 Z"/></g>
<g><path style="opacity:1" fill="#793c1f" d="M 108.5,93.5 C 109.806,94.4674 110.473,95.8007 110.5,97.5C 108.431,100.573 105.764,102.906 102.5,104.5C 101.839,102.866 101.506,101.033 101.5,99C 101.083,94.9163 102.25,91.4163 105,88.5C 105.333,90.1667 105.667,91.8333 106,93.5C 106.77,94.5981 107.603,94.5981 108.5,93.5 Z"/></g>
<g><path style="opacity:1" fill="#a4a398" d="M 255.5,80.5 C 255.5,82.5 255.5,84.5 255.5,86.5C 251.984,90.1914 249.484,94.5247 248,99.5C 245.957,101.208 244.29,103.208 243,105.5C 242.536,104.906 242.369,104.239 242.5,103.5C 246.469,95.5549 250.802,87.8882 255.5,80.5 Z"/></g>
<g><path style="opacity:1" fill="#473433" d="M 7.5,79.5 C 7.83333,79.5 8.16667,79.5 8.5,79.5C 7.42643,80.8846 6.09309,82.0513 4.5,83C 5.56341,84.1882 6.89674,84.6882 8.5,84.5C 7.89665,86.4523 8.22999,88.4523 9.5,90.5C 10.3403,92.8525 11.6736,94.8525 13.5,96.5C 14.9094,100.316 16.576,103.983 18.5,107.5C 17.2632,108.965 16.2632,110.632 15.5,112.5C 10.1667,114.833 4.83333,117.167 -0.5,119.5C -0.5,107.167 -0.5,94.8333 -0.5,82.5C 1.97944,81.0256 4.64611,80.0256 7.5,79.5 Z"/></g>
<g><path style="opacity:1" fill="#956c5d" d="M 65.5,80.5 C 66.5,80.5 67.5,80.5 68.5,80.5C 67.0506,85.0284 66.2172,89.6951 66,94.5C 64.669,96.9962 62.8356,98.9962 60.5,100.5C 60.1667,99.8333 59.8333,99.1667 59.5,98.5C 64.2788,96.2411 66.1121,92.5744 65,87.5C 64.6174,88.056 64.1174,88.3893 63.5,88.5C 64.2186,86.2362 64.552,83.9029 64.5,81.5C 64.5,80.8333 64.8333,80.5 65.5,80.5 Z"/></g>
<g><path style="opacity:1" fill="#625140" d="M 255.5,86.5 C 255.5,88.5 255.5,90.5 255.5,92.5C 253.929,94.6351 252.596,96.9684 251.5,99.5C 250.357,99.9081 249.357,100.575 248.5,101.5C 241.958,111.954 234.958,121.954 227.5,131.5C 231.995,121.841 236.995,112.508 242.5,103.5C 242.369,104.239 242.536,104.906 243,105.5C 244.29,103.208 245.957,101.208 248,99.5C 249.484,94.5247 251.984,90.1914 255.5,86.5 Z"/></g>
<g><path style="opacity:1" fill="#5a3223" d="M 87.5,73.5 C 88.8179,75.7612 90.4845,77.7612 92.5,79.5C 94.6967,79.1519 96.53,78.1519 98,76.5C 98.3333,76.8333 98.6667,77.1667 99,77.5C 100.307,75.8082 101.807,74.4749 103.5,73.5C 103.107,75.2838 102.441,76.9505 101.5,78.5C 100.883,78.6107 100.383,78.944 100,79.5C 99.7132,81.8907 99.2132,84.2241 98.5,86.5C 100.15,86.5995 101.483,85.5995 102.5,83.5C 103.222,84.5511 104.222,85.2178 105.5,85.5C 101.373,89.2045 99.3726,93.8712 99.5,99.5C 98.5041,99.4142 97.6708,99.7476 97,100.5C 96.3645,104.14 94.5311,106.806 91.5,108.5C 91.5,107.833 91.1667,107.5 90.5,107.5C 93.3544,101.13 96.6877,94.9635 100.5,89C 99.5509,88.3828 98.7175,88.5494 98,89.5C 97.3161,87.641 96.3161,85.9743 95,84.5C 92.928,87.1537 91.2613,86.8204 90,83.5C 89.6667,83.8333 89.3333,84.1667 89,84.5C 88.6397,82.5789 87.8064,80.9122 86.5,79.5C 87.3482,77.5914 87.6816,75.5914 87.5,73.5 Z"/></g>
<g><path style="opacity:1" fill="#6b3926" d="M 68.5,80.5 C 71.2679,83.1862 74.2679,85.6862 77.5,88C 76.2888,88.8928 76.2888,89.7261 77.5,90.5C 79.0464,88.516 80.7131,88.1826 82.5,89.5C 82.6495,90.552 82.4828,91.552 82,92.5C 79.5393,95.434 77.3726,98.434 75.5,101.5C 77.1388,101.926 78.4721,101.926 79.5,101.5C 80.5593,103.07 80.0593,104.403 78,105.5C 77.3086,103.109 76.3086,103.109 75,105.5C 72.9015,107.974 72.4015,110.641 73.5,113.5C 74.1924,112.975 74.6924,112.308 75,111.5C 75.2488,114.832 76.0821,117.999 77.5,121C 77.4301,121.765 77.0967,122.265 76.5,122.5C 75.2504,119.994 74.5838,117.327 74.5,114.5C 71.1667,115.167 67.8333,115.833 64.5,116.5C 61.7655,111.912 60.0989,106.912 59.5,101.5C 60.1667,101.5 60.5,101.167 60.5,100.5C 62.8356,98.9962 64.669,96.9962 66,94.5C 66.2172,89.6951 67.0506,85.0284 68.5,80.5 Z"/></g>
<g><path style="opacity:1" fill="#471e14" d="M 86.5,72.5 C 87.1667,72.5 87.5,72.8333 87.5,73.5C 87.6816,75.5914 87.3482,77.5914 86.5,79.5C 87.8064,80.9122 88.6397,82.5789 89,84.5C 89.3333,84.1667 89.6667,83.8333 90,83.5C 91.2613,86.8204 92.928,87.1537 95,84.5C 96.3161,85.9743 97.3161,87.641 98,89.5C 98.7175,88.5494 99.5509,88.3828 100.5,89C 96.6877,94.9635 93.3544,101.13 90.5,107.5C 89.8333,108.833 89.1667,110.167 88.5,111.5C 87.7321,110.737 87.2321,109.737 87,108.5C 86.586,108.957 86.086,109.291 85.5,109.5C 84.6858,107.234 84.1858,104.9 84,102.5C 82.4815,102.943 81.3148,102.276 80.5,100.5C 79.8933,100.624 79.56,100.957 79.5,101.5C 78.4721,101.926 77.1388,101.926 75.5,101.5C 77.3726,98.434 79.5393,95.434 82,92.5C 82.4828,91.552 82.6495,90.552 82.5,89.5C 83.2485,88.469 83.9152,87.3024 84.5,86C 82.5712,83.5755 81.5712,80.7421 81.5,77.5C 82.1667,74.8333 83.8333,73.1667 86.5,72.5 Z"/></g>
<g><path style="opacity:1" fill="#41241e" d="M 38.5,87.5 C 41.9608,88.7306 45.2941,90.2306 48.5,92C 51.0961,96.1001 54.4295,99.2668 58.5,101.5C 54.0668,101.777 51.7334,104.277 51.5,109C 53.6123,112.927 52.6123,115.427 48.5,116.5C 47.8086,111.764 46.4752,107.098 44.5,102.5C 44.762,101.022 44.4287,99.6888 43.5,98.5C 40.5314,97.1932 37.8648,95.5265 35.5,93.5C 36.8734,93.3433 38.2068,93.51 39.5,94C 40.815,95.5339 42.1483,96.0339 43.5,95.5C 41.6558,93.1571 39.6558,90.9904 37.5,89C 38.056,88.6174 38.3893,88.1174 38.5,87.5 Z"/></g>
<g><path style="opacity:1" fill="#502810" d="M 150.5,98.5 C 151.466,103.997 151.466,109.33 150.5,114.5C 149.469,113.751 148.302,113.085 147,112.5C 145.869,109.555 145.036,106.555 144.5,103.5C 144.942,99.3981 146.442,95.7314 149,92.5C 150.128,94.3453 150.628,96.3453 150.5,98.5 Z"/></g>
<g><path style="opacity:1" fill="#1d160f" d="M 255.5,92.5 C 255.5,103.833 255.5,115.167 255.5,126.5C 254.25,126.423 253.417,125.756 253,124.5C 252.845,122.144 252.845,119.811 253,117.5C 249.563,120.322 246.563,123.655 244,127.5C 243.667,126.833 243.333,126.167 243,125.5C 241.649,127.019 240.149,128.352 238.5,129.5C 238.167,129 237.833,128.5 237.5,128C 238.624,124.062 239.957,120.228 241.5,116.5C 245.658,111.337 248.991,105.67 251.5,99.5C 252.596,96.9684 253.929,94.6351 255.5,92.5 Z"/></g>
<g><path style="opacity:1" fill="#5c271d" d="M 79.5,101.5 C 79.56,100.957 79.8933,100.624 80.5,100.5C 81.3148,102.276 82.4815,102.943 84,102.5C 84.1858,104.9 84.6858,107.234 85.5,109.5C 86.086,109.291 86.586,108.957 87,108.5C 87.2321,109.737 87.7321,110.737 88.5,111.5C 86.7121,114.24 85.0454,117.073 83.5,120C 83.9783,121.303 84.645,122.469 85.5,123.5C 81.7043,123.838 78.7043,123.505 76.5,122.5C 77.0967,122.265 77.4301,121.765 77.5,121C 76.0821,117.999 75.2488,114.832 75,111.5C 74.6924,112.308 74.1924,112.975 73.5,113.5C 72.4015,110.641 72.9015,107.974 75,105.5C 76.3086,103.109 77.3086,103.109 78,105.5C 80.0593,104.403 80.5593,103.07 79.5,101.5 Z"/></g>
<g><path style="opacity:1" fill="#4f241a" d="M 127.5,92.5 C 126.759,94.3542 125.759,96.0209 124.5,97.5C 123.519,99.396 122.519,101.396 121.5,103.5C 122.863,104.893 123.696,106.559 124,108.5C 124.414,108.043 124.914,107.709 125.5,107.5C 126.167,108.5 126.833,109.5 127.5,110.5C 130.061,108.393 131.894,105.726 133,102.5C 133.333,102.833 133.667,103.167 134,103.5C 134.377,102.058 135.21,101.058 136.5,100.5C 135.972,101.847 135.805,103.181 136,104.5C 137.867,102.192 138.867,99.5251 139,96.5C 139.847,104.165 136.68,109.498 129.5,112.5C 128.833,112.167 128.167,111.833 127.5,111.5C 127.063,115.179 126.73,118.846 126.5,122.5C 126.434,117.767 124.101,115.434 119.5,115.5C 119.81,118.713 119.477,121.713 118.5,124.5C 114.592,126.446 113.592,129.446 115.5,133.5C 114.307,133.97 113.64,134.97 113.5,136.5C 114.021,138.524 114.188,140.524 114,142.5C 111.639,138.967 109.472,135.3 107.5,131.5C 110.474,132.917 112.474,131.917 113.5,128.5C 112.927,125.915 111.261,124.915 108.5,125.5C 107.883,121.578 107.216,121.578 106.5,125.5C 106.728,127.207 107.062,128.874 107.5,130.5C 106.25,130.577 105.417,131.244 105,132.5C 104.333,128.5 104.333,124.5 105,120.5C 106.688,117.475 108.021,114.475 109,111.5C 105.278,116.456 101.445,121.289 97.5,126C 96.681,130.046 96.681,134.213 97.5,138.5C 96.8826,138.389 96.3826,138.056 96,137.5C 95.8333,135.5 95.6667,133.5 95.5,131.5C 95.5771,127.368 96.2437,123.368 97.5,119.5C 96.5,119.5 95.5,119.5 94.5,119.5C 94.6495,118.448 94.4828,117.448 94,116.5C 93.3457,117.696 92.8457,117.696 92.5,116.5C 93.6405,114.922 94.1405,113.256 94,111.5C 92.6667,113.5 91.3333,115.5 90,117.5C 89.4029,114.319 89.9029,111.319 91.5,108.5C 94.5311,106.806 96.3645,104.14 97,100.5C 97.6708,99.7476 98.5041,99.4142 99.5,99.5C 98.5052,102.464 98.0052,105.464 98,108.5C 99.6667,107.267 101.167,105.933 102.5,104.5C 105.764,102.906 108.431,100.573 110.5,97.5C 112.754,96.5849 114.754,95.2516 116.5,93.5C 116.938,93.4346 117.272,93.6012 117.5,94C 115.789,95.1332 115.289,96.6332 116,98.5C 119.536,95.8162 123.369,93.8162 127.5,92.5 Z"/></g>
<g><path style="opacity:1" fill="#4e1f17" d="M 58.5,101.5 C 58.8333,101.5 59.1667,101.5 59.5,101.5C 60.0989,106.912 61.7655,111.912 64.5,116.5C 66.1667,119.167 67.8333,121.833 69.5,124.5C 67.1667,126.167 64.8333,127.833 62.5,129.5C 61.9423,128.21 60.9423,127.377 59.5,127C 52.0451,127.377 48.3785,123.877 48.5,116.5C 52.6123,115.427 53.6123,112.927 51.5,109C 51.7334,104.277 54.0668,101.777 58.5,101.5 Z"/></g>
<g><path style="opacity:1" fill="#784436" d="M 90.5,107.5 C 91.1667,107.5 91.5,107.833 91.5,108.5C 89.9029,111.319 89.4029,114.319 90,117.5C 91.3333,115.5 92.6667,113.5 94,111.5C 94.1405,113.256 93.6405,114.922 92.5,116.5C 92.8457,117.696 93.3457,117.696 94,116.5C 94.4828,117.448 94.6495,118.448 94.5,119.5C 95.5,119.5 96.5,119.5 97.5,119.5C 96.2437,123.368 95.5771,127.368 95.5,131.5C 95.6667,133.5 95.8333,135.5 96,137.5C 96.3826,138.056 96.8826,138.389 97.5,138.5C 97.8039,139.15 98.1373,139.817 98.5,140.5C 97.6034,140.669 96.6034,141.002 95.5,141.5C 95.8627,142.183 96.1961,142.85 96.5,143.5C 95.1667,143.5 93.8333,143.5 92.5,143.5C 90.8333,140.167 89.1667,136.833 87.5,133.5C 89.1271,131.37 90.9604,129.37 93,127.5C 93.5281,126.184 93.0281,125.517 91.5,125.5C 89.7354,124.539 87.7354,124.205 85.5,124.5C 85.5,124.167 85.5,123.833 85.5,123.5C 84.645,122.469 83.9783,121.303 83.5,120C 85.0454,117.073 86.7121,114.24 88.5,111.5C 89.1667,110.167 89.8333,108.833 90.5,107.5 Z"/></g>
<g><path style="opacity:1" fill="#d9dfc1" d="M 15.5,112.5 C 16.609,112.557 17.609,112.89 18.5,113.5C 16.0267,115.347 13.5267,117.347 11,119.5C 9.56025,118.852 8.06025,118.519 6.5,118.5C 6.56745,119.959 6.23411,121.292 5.5,122.5C 3.70281,123.73 1.70281,124.396 -0.5,124.5C -0.5,122.833 -0.5,121.167 -0.5,119.5C 4.83333,117.167 10.1667,114.833 15.5,112.5 Z"/></g>
<g><path style="opacity:1" fill="#8c432e" d="M 76.5,122.5 C 78.7043,123.505 81.7043,123.838 85.5,123.5C 85.5,123.833 85.5,124.167 85.5,124.5C 80.1667,124.5 74.8333,124.5 69.5,124.5C 67.8333,121.833 66.1667,119.167 64.5,116.5C 67.8333,115.833 71.1667,115.167 74.5,114.5C 74.5838,117.327 75.2504,119.994 76.5,122.5 Z"/></g>
<g><path style="opacity:1" fill="#321a13" d="M 141.5,90.5 C 142.873,90.3433 144.207,90.51 145.5,91C 145,91.5 144.5,92 144,92.5C 143.19,96.3575 143.357,100.024 144.5,103.5C 145.036,106.555 145.869,109.555 147,112.5C 148.302,113.085 149.469,113.751 150.5,114.5C 149.957,114.56 149.624,114.893 149.5,115.5C 152.227,120.066 153.227,125.066 152.5,130.5C 152.631,131.239 152.464,131.906 152,132.5C 150.991,130.975 150.491,129.308 150.5,127.5C 150.646,125.058 149.813,124.391 148,125.5C 146.846,123.043 145.512,123.043 144,125.5C 142.913,122.272 140.747,120.272 137.5,119.5C 134.555,115.837 134.888,112.504 138.5,109.5C 139.842,110.902 140.676,110.569 141,108.5C 141.275,102.298 141.441,96.2976 141.5,90.5 Z"/></g>
<g><path style="opacity:1" fill="#a9a888" d="M 18.5,113.5 C 19.0967,113.735 19.4301,114.235 19.5,115C 15.8343,119.993 11.1677,122.493 5.5,122.5C 6.23411,121.292 6.56745,119.959 6.5,118.5C 8.06025,118.519 9.56025,118.852 11,119.5C 13.5267,117.347 16.0267,115.347 18.5,113.5 Z"/></g>
<g><path style="opacity:1" fill="#1e1e18" d="M 171.5,116.5 C 176.328,118.662 179.328,122.329 180.5,127.5C 181.11,128.391 181.443,129.391 181.5,130.5C 179.5,131.833 177.833,133.5 176.5,135.5C 174.271,136.055 172.605,137.389 171.5,139.5C 170.749,138.624 170.249,137.624 170,136.5C 169.333,137.833 168.667,139.167 168,140.5C 166.02,135.893 164.353,131.226 163,126.5C 162.536,127.094 162.369,127.761 162.5,128.5C 161.469,126.039 160.802,123.373 160.5,120.5C 160.5,119.833 160.5,119.167 160.5,118.5C 164.015,117.081 167.681,116.414 171.5,116.5 Z"/></g>
<g><path style="opacity:1" fill="#b8dabe" d="M 171.5,116.5 C 171.5,116.167 171.5,115.833 171.5,115.5C 173.954,116.227 176.287,117.227 178.5,118.5C 182.336,121.678 185.002,125.678 186.5,130.5C 184.947,128.615 182.947,127.615 180.5,127.5C 179.328,122.329 176.328,118.662 171.5,116.5 Z"/></g>
<g><path style="opacity:1" fill="#573626" d="M 22.5,119.5 C 24.7271,120.401 25.7271,122.067 25.5,124.5C 23.3578,127.102 20.5245,128.769 17,129.5C 16.8462,132.232 17.3462,134.898 18.5,137.5C 18.1667,137.833 17.8333,138.167 17.5,138.5C 16.0435,135.228 14.7102,131.894 13.5,128.5C 14.2389,128.631 14.9056,128.464 15.5,128C 14.5494,127.282 14.3828,126.449 15,125.5C 16.3988,124.773 17.8988,124.273 19.5,124C 19.1667,123.667 18.8333,123.333 18.5,123C 19.5908,121.45 20.9242,120.283 22.5,119.5 Z"/></g>
<g><path style="opacity:1" fill="#402217" d="M 140.5,88.5 C 140.5,89.1667 140.833,89.5 141.5,89.5C 141.5,89.8333 141.5,90.1667 141.5,90.5C 141.441,96.2976 141.275,102.298 141,108.5C 140.676,110.569 139.842,110.902 138.5,109.5C 134.888,112.504 134.555,115.837 137.5,119.5C 139.205,122.042 140.705,124.708 142,127.5C 142.244,132.969 143.078,138.302 144.5,143.5C 140.167,143.5 135.833,143.5 131.5,143.5C 127.964,139.907 123.964,137.74 119.5,137C 119.957,136.586 120.291,136.086 120.5,135.5C 119.648,131.869 118.981,128.202 118.5,124.5C 119.477,121.713 119.81,118.713 119.5,115.5C 124.101,115.434 126.434,117.767 126.5,122.5C 126.73,118.846 127.063,115.179 127.5,111.5C 128.167,111.833 128.833,112.167 129.5,112.5C 136.68,109.498 139.847,104.165 139,96.5C 138.867,99.5251 137.867,102.192 136,104.5C 135.805,103.181 135.972,101.847 136.5,100.5C 137.36,96.5662 137.693,92.5662 137.5,88.5C 138.5,88.5 139.5,88.5 140.5,88.5 Z"/></g>
<g><path style="opacity:1" fill="#2d1f13" d="M 151.5,86.5 C 151.833,87.5 152.5,88.1667 153.5,88.5C 155.032,96.3572 156.032,104.357 156.5,112.5C 157.167,106.167 157.833,99.8333 158.5,93.5C 159.181,100.329 159.514,106.996 159.5,113.5C 158.062,114.282 157.062,115.949 156.5,118.5C 156.031,117.255 155.697,117.421 155.5,119C 156.551,121.361 157.551,123.694 158.5,126C 157.886,128.169 157.553,130.335 157.5,132.5C 158.067,134.982 158.734,137.316 159.5,139.5C 159.167,140.833 158.833,142.167 158.5,143.5C 155.5,143.5 152.5,143.5 149.5,143.5C 150.167,142.167 150.833,140.833 151.5,139.5C 152.75,139.423 153.583,138.756 154,137.5C 154.667,134.5 154.667,131.5 154,128.5C 153.722,129.416 153.222,130.082 152.5,130.5C 153.227,125.066 152.227,120.066 149.5,115.5C 149.624,114.893 149.957,114.56 150.5,114.5C 151.466,109.33 151.466,103.997 150.5,98.5C 151.266,96.3157 151.933,93.9823 152.5,91.5C 151.23,90.7124 150.23,89.7124 149.5,88.5C 147.089,85.8542 147.755,85.1875 151.5,86.5 Z"/></g>
<g><path style="opacity:1" fill="#765c48" d="M 22.5,119.5 C 20.9242,120.283 19.5908,121.45 18.5,123C 18.8333,123.333 19.1667,123.667 19.5,124C 17.8988,124.273 16.3988,124.773 15,125.5C 14.3828,126.449 14.5494,127.282 15.5,128C 14.9056,128.464 14.2389,128.631 13.5,128.5C 13.2648,127.903 12.7648,127.57 12,127.5C 10.1886,128.078 8.35529,128.578 6.5,129C 5.51103,131.158 3.84436,132.325 1.5,132.5C 0.833333,132.5 0.166667,132.5 -0.5,132.5C -0.5,129.833 -0.5,127.167 -0.5,124.5C 1.70281,124.396 3.70281,123.73 5.5,122.5C 11.1677,122.493 15.8343,119.993 19.5,115C 19.4301,114.235 19.0967,113.735 18.5,113.5C 17.609,112.89 16.609,112.557 15.5,112.5C 16.2632,110.632 17.2632,108.965 18.5,107.5C 20.0174,107.489 21.1841,106.823 22,105.5C 22.1667,105.833 22.3333,106.167 22.5,106.5C 20.005,110.763 20.005,115.096 22.5,119.5 Z"/></g>
<g><path style="opacity:1" fill="#8c794f" d="M 160.5,120.5 C 160.802,123.373 161.469,126.039 162.5,128.5C 162.371,130.216 162.038,131.883 161.5,133.5C 159.744,129.227 159.41,124.894 160.5,120.5 Z"/></g>
<g><path style="opacity:1" fill="#172627" d="M 178.5,118.5 C 178.842,117.662 179.508,117.328 180.5,117.5C 182.177,119.54 183.844,121.54 185.5,123.5C 185.795,125.423 186.628,127.09 188,128.5C 190.369,128.677 192.869,128.344 195.5,127.5C 196.308,127.808 196.975,128.308 197.5,129C 196.549,129.718 196.383,130.551 197,131.5C 198.899,128.008 201.232,127.008 204,128.5C 208.248,125.752 212.581,122.419 217,118.5C 217.465,119.931 218.299,121.097 219.5,122C 219.663,124.617 219.329,127.284 218.5,130C 219.354,133.541 220.354,137.041 221.5,140.5C 220.89,141.391 220.557,142.391 220.5,143.5C 206.833,143.5 193.167,143.5 179.5,143.5C 180.038,141.883 180.371,140.216 180.5,138.5C 182.275,135.789 184.609,133.789 187.5,132.5C 187.672,131.508 187.338,130.842 186.5,130.5C 185.002,125.678 182.336,121.678 178.5,118.5 Z"/></g>
<g><path style="opacity:1" fill="#b2b290" d="M 69.5,124.5 C 74.8333,124.5 80.1667,124.5 85.5,124.5C 87.7354,124.205 89.7354,124.539 91.5,125.5C 88.1606,125.89 84.8273,126.39 81.5,127C 80.0577,127.377 79.0577,128.21 78.5,129.5C 74.8819,130.538 71.2153,131.705 67.5,133C 65.6763,133.66 64.343,134.827 63.5,136.5C 58.5068,136.916 53.5068,137.249 48.5,137.5C 55.4435,135.042 62.4435,132.542 69.5,130C 67.1152,129.444 64.7819,129.61 62.5,130.5C 62.5,130.167 62.5,129.833 62.5,129.5C 64.8333,127.833 67.1667,126.167 69.5,124.5 Z"/></g>
<g><path style="opacity:1" fill="#583b2f" d="M 137.5,119.5 C 140.747,120.272 142.913,122.272 144,125.5C 145.512,123.043 146.846,123.043 148,125.5C 149.813,124.391 150.646,125.058 150.5,127.5C 149.269,129.994 147.935,131.827 146.5,133C 147.078,134.811 147.578,136.645 148,138.5C 148.308,137.692 148.808,137.025 149.5,136.5C 150.176,137.602 150.842,138.602 151.5,139.5C 150.833,140.833 150.167,142.167 149.5,143.5C 147.833,143.5 146.167,143.5 144.5,143.5C 143.078,138.302 142.244,132.969 142,127.5C 140.705,124.708 139.205,122.042 137.5,119.5 Z"/></g>
<g><path style="opacity:1" fill="#665444" d="M 91.5,125.5 C 87.561,127.781 83.2277,129.114 78.5,129.5C 79.0577,128.21 80.0577,127.377 81.5,127C 84.8273,126.39 88.1606,125.89 91.5,125.5 Z"/></g>
<g><path style="opacity:1" fill="#714336" d="M 107.5,131.5 C 107.5,131.167 107.5,130.833 107.5,130.5C 107.062,128.874 106.728,127.207 106.5,125.5C 107.216,121.578 107.883,121.578 108.5,125.5C 111.261,124.915 112.927,125.915 113.5,128.5C 112.474,131.917 110.474,132.917 107.5,131.5 Z"/></g>
<g><path style="opacity:1" fill="#9d886d" d="M 62.5,129.5 C 62.5,129.833 62.5,130.167 62.5,130.5C 60.7839,130.629 59.1172,130.962 57.5,131.5C 56.2474,129.497 54.5808,129.497 52.5,131.5C 51.8933,131.376 51.56,131.043 51.5,130.5C 52.6222,129.053 54.1222,128.053 56,127.5C 57.897,129.016 60.0637,129.683 62.5,129.5 Z"/></g>
<g><path style="opacity:1" fill="#49976f" d="M 180.5,127.5 C 182.947,127.615 184.947,128.615 186.5,130.5C 187.338,130.842 187.672,131.508 187.5,132.5C 185.703,131.27 183.703,130.604 181.5,130.5C 181.443,129.391 181.11,128.391 180.5,127.5 Z"/></g>
<g><path style="opacity:1" fill="#502117" d="M 25.5,124.5 C 26.4111,126.916 27.4111,129.416 28.5,132C 27.6058,135.776 27.2725,139.61 27.5,143.5C 26.5,143.5 25.5,143.5 24.5,143.5C 22.8148,141.182 20.4815,140.182 17.5,140.5C 17.5,141.5 17.5,142.5 17.5,143.5C 17.1667,143.5 16.8333,143.5 16.5,143.5C 16.7135,141.856 16.3802,140.356 15.5,139C 9.88235,138.616 5.21568,136.449 1.5,132.5C 3.84436,132.325 5.51103,131.158 6.5,129C 8.35529,128.578 10.1886,128.078 12,127.5C 12.7648,127.57 13.2648,127.903 13.5,128.5C 14.7102,131.894 16.0435,135.228 17.5,138.5C 17.8333,138.167 18.1667,137.833 18.5,137.5C 17.3462,134.898 16.8462,132.232 17,129.5C 20.5245,128.769 23.3578,127.102 25.5,124.5 Z"/></g>
<g><path style="opacity:1" fill="#5e1e14" d="M 44.5,102.5 C 46.4752,107.098 47.8086,111.764 48.5,116.5C 48.3785,123.877 52.0451,127.377 59.5,127C 60.9423,127.377 61.9423,128.21 62.5,129.5C 60.0637,129.683 57.897,129.016 56,127.5C 54.1222,128.053 52.6222,129.053 51.5,130.5C 49.9317,131.473 48.265,131.64 46.5,131C 49.1208,130.094 48.9541,129.594 46,129.5C 42.424,132.04 38.5906,134.207 34.5,136C 37.5638,136.149 40.5638,135.649 43.5,134.5C 44.7261,134.52 45.7261,134.853 46.5,135.5C 43.3093,136.092 40.3093,137.259 37.5,139C 38.448,139.483 39.448,139.649 40.5,139.5C 46.1518,138.698 51.8185,138.531 57.5,139C 56.2625,139.232 55.2625,139.732 54.5,140.5C 50.5732,140.926 46.9065,141.926 43.5,143.5C 38.1667,143.5 32.8333,143.5 27.5,143.5C 27.2725,139.61 27.6058,135.776 28.5,132C 27.4111,129.416 26.4111,126.916 25.5,124.5C 25.7271,122.067 24.7271,120.401 22.5,119.5C 20.005,115.096 20.005,110.763 22.5,106.5C 22.3333,106.167 22.1667,105.833 22,105.5C 21.1841,106.823 20.0174,107.489 18.5,107.5C 16.576,103.983 14.9094,100.316 13.5,96.5C 15.236,88.6967 17.5694,88.53 20.5,96C 21.9663,96.6355 23.2997,97.4688 24.5,98.5C 25.2421,96.8918 25.4087,95.2251 25,93.5C 28.9957,97.5137 33.4957,100.68 38.5,103C 40.704,102.772 42.704,102.606 44.5,102.5 Z"/></g>
<g><path style="opacity:1" fill="#503f2c" d="M 160.5,118.5 C 160.5,119.167 160.5,119.833 160.5,120.5C 159.41,124.894 159.744,129.227 161.5,133.5C 160.833,135.5 160.167,137.5 159.5,139.5C 158.734,137.316 158.067,134.982 157.5,132.5C 157.553,130.335 157.886,128.169 158.5,126C 157.551,123.694 156.551,121.361 155.5,119C 155.697,117.421 156.031,117.255 156.5,118.5C 156.987,119.473 157.487,120.473 158,121.5C 158.333,119.833 158.667,118.167 159,116.5C 159.278,117.416 159.778,118.082 160.5,118.5 Z"/></g>
<g><path style="opacity:1" fill="#4f392a" d="M 251.5,99.5 C 248.991,105.67 245.658,111.337 241.5,116.5C 238.139,119.363 235.972,123.03 235,127.5C 230.266,132.085 226.433,137.419 223.5,143.5C 222.5,143.5 221.5,143.5 220.5,143.5C 220.557,142.391 220.89,141.391 221.5,140.5C 223.252,137.328 225.252,134.328 227.5,131.5C 234.958,121.954 241.958,111.954 248.5,101.5C 249.357,100.575 250.357,99.9081 251.5,99.5 Z"/></g>
<g><path style="opacity:1" fill="#754334" d="M 51.5,130.5 C 51.56,131.043 51.8933,131.376 52.5,131.5C 54.5808,129.497 56.2474,129.497 57.5,131.5C 56.8333,131.833 56.1667,132.167 55.5,132.5C 53.1432,132.337 50.8098,132.503 48.5,133C 49.5981,133.77 49.5981,134.603 48.5,135.5C 47.8333,135.5 47.1667,135.5 46.5,135.5C 45.7261,134.853 44.7261,134.52 43.5,134.5C 40.5638,135.649 37.5638,136.149 34.5,136C 38.5906,134.207 42.424,132.04 46,129.5C 48.9541,129.594 49.1208,130.094 46.5,131C 48.265,131.64 49.9317,131.473 51.5,130.5 Z"/></g>
<g><path style="opacity:1" fill="#a49276" d="M 55.5,132.5 C 53.351,133.736 51.0177,134.736 48.5,135.5C 49.5981,134.603 49.5981,133.77 48.5,133C 50.8098,132.503 53.1432,132.337 55.5,132.5 Z"/></g>
<g><path style="opacity:1" fill="#30110c" d="M 118.5,124.5 C 118.981,128.202 119.648,131.869 120.5,135.5C 120.291,136.086 119.957,136.586 119.5,137C 123.964,137.74 127.964,139.907 131.5,143.5C 126.5,143.5 121.5,143.5 116.5,143.5C 116.804,142.85 117.137,142.183 117.5,141.5C 114.976,139.169 114.309,136.503 115.5,133.5C 113.592,129.446 114.592,126.446 118.5,124.5 Z"/></g>
<g><path style="opacity:1" fill="#7a5845" d="M 134.5,124.5 C 135.397,125.598 136.23,125.598 137,124.5C 141.269,129.683 141.602,134.35 138,138.5C 136.488,136.043 135.154,136.043 134,138.5C 130.946,136.634 129.446,133.967 129.5,130.5C 131.124,130.64 132.29,129.973 133,128.5C 133.414,128.957 133.914,129.291 134.5,129.5C 135.434,127.905 135.434,126.239 134.5,124.5 Z"/></g>
<g><path style="opacity:1" fill="#e1e9cf" d="M 48.5,137.5 C 45.5049,137.294 42.8383,137.96 40.5,139.5C 39.448,139.649 38.448,139.483 37.5,139C 40.3093,137.259 43.3093,136.092 46.5,135.5C 47.1667,135.5 47.8333,135.5 48.5,135.5C 51.0177,134.736 53.351,133.736 55.5,132.5C 56.1667,132.167 56.8333,131.833 57.5,131.5C 59.1172,130.962 60.7839,130.629 62.5,130.5C 64.7819,129.61 67.1152,129.444 69.5,130C 62.4435,132.542 55.4435,135.042 48.5,137.5 Z"/></g>
<g><path style="opacity:1" fill="#71301f" d="M 181.5,130.5 C 183.703,130.604 185.703,131.27 187.5,132.5C 184.609,133.789 182.275,135.789 180.5,138.5C 179.527,139.791 178.527,139.791 177.5,138.5C 176.667,139.5 175.833,140.5 175,141.5C 174.591,139.305 175.091,137.305 176.5,135.5C 177.833,133.5 179.5,131.833 181.5,130.5 Z"/></g>
<g><path style="opacity:1" fill="#5c2c21" d="M 91.5,125.5 C 93.0281,125.517 93.5281,126.184 93,127.5C 90.9604,129.37 89.1271,131.37 87.5,133.5C 83.1667,135.833 79.8333,139.167 77.5,143.5C 76.5,143.5 75.5,143.5 74.5,143.5C 74.5394,142.417 74.8728,141.417 75.5,140.5C 73.4904,139.935 71.8237,138.935 70.5,137.5C 71.0253,136.808 71.6919,136.308 72.5,136C 69.553,136.152 66.553,136.319 63.5,136.5C 64.343,134.827 65.6763,133.66 67.5,133C 71.2153,131.705 74.8819,130.538 78.5,129.5C 83.2277,129.114 87.561,127.781 91.5,125.5 Z"/></g>
<g><path style="opacity:1" fill="#3b0d08" d="M 107.5,130.5 C 107.5,130.833 107.5,131.167 107.5,131.5C 109.472,135.3 111.639,138.967 114,142.5C 114.188,140.524 114.021,138.524 113.5,136.5C 113.64,134.97 114.307,133.97 115.5,133.5C 114.309,136.503 114.976,139.169 117.5,141.5C 117.137,142.183 116.804,142.85 116.5,143.5C 109.833,143.5 103.167,143.5 96.5,143.5C 96.1961,142.85 95.8627,142.183 95.5,141.5C 96.6034,141.002 97.6034,140.669 98.5,140.5C 98.1373,139.817 97.8039,139.15 97.5,138.5C 96.681,134.213 96.681,130.046 97.5,126C 101.445,121.289 105.278,116.456 109,111.5C 108.021,114.475 106.688,117.475 105,120.5C 104.333,124.5 104.333,128.5 105,132.5C 105.417,131.244 106.25,130.577 107.5,130.5 Z"/></g>
<g><path style="opacity:1" fill="#7a6051" d="M 150.5,127.5 C 150.491,129.308 150.991,130.975 152,132.5C 152.464,131.906 152.631,131.239 152.5,130.5C 153.222,130.082 153.722,129.416 154,128.5C 154.667,131.5 154.667,134.5 154,137.5C 153.583,138.756 152.75,139.423 151.5,139.5C 150.842,138.602 150.176,137.602 149.5,136.5C 148.808,137.025 148.308,137.692 148,138.5C 147.578,136.645 147.078,134.811 146.5,133C 147.935,131.827 149.269,129.994 150.5,127.5 Z"/></g>
<g><path style="opacity:1" fill="#2a190f" d="M 241.5,116.5 C 239.957,120.228 238.624,124.062 237.5,128C 237.833,128.5 238.167,129 238.5,129.5C 240.149,128.352 241.649,127.019 243,125.5C 243.333,126.167 243.667,126.833 244,127.5C 246.563,123.655 249.563,120.322 253,117.5C 252.845,119.811 252.845,122.144 253,124.5C 253.417,125.756 254.25,126.423 255.5,126.5C 255.5,132.167 255.5,137.833 255.5,143.5C 244.833,143.5 234.167,143.5 223.5,143.5C 226.433,137.419 230.266,132.085 235,127.5C 235.972,123.03 238.139,119.363 241.5,116.5 Z"/></g>
<g><path style="opacity:1" fill="#713325" d="M 74.5,143.5 C 68.8333,143.5 63.1667,143.5 57.5,143.5C 57.5,142.5 57.5,141.5 57.5,140.5C 56.5,140.5 55.5,140.5 54.5,140.5C 55.2625,139.732 56.2625,139.232 57.5,139C 51.8185,138.531 46.1518,138.698 40.5,139.5C 42.8383,137.96 45.5049,137.294 48.5,137.5C 53.5068,137.249 58.5068,136.916 63.5,136.5C 66.553,136.319 69.553,136.152 72.5,136C 71.6919,136.308 71.0253,136.808 70.5,137.5C 71.8237,138.935 73.4904,139.935 75.5,140.5C 74.8728,141.417 74.5394,142.417 74.5,143.5 Z"/></g>
<g><path style="opacity:1" fill="#581a0f" d="M 87.5,133.5 C 89.1667,136.833 90.8333,140.167 92.5,143.5C 87.5,143.5 82.5,143.5 77.5,143.5C 79.8333,139.167 83.1667,135.833 87.5,133.5 Z"/></g>
<g><path style="opacity:1" fill="#802b1b" d="M 54.5,140.5 C 55.5,140.5 56.5,140.5 57.5,140.5C 57.5,141.5 57.5,142.5 57.5,143.5C 52.8333,143.5 48.1667,143.5 43.5,143.5C 46.9065,141.926 50.5732,140.926 54.5,140.5 Z"/></g>
<g><path style="opacity:1" fill="#201613" d="M 176.5,135.5 C 175.091,137.305 174.591,139.305 175,141.5C 175.833,140.5 176.667,139.5 177.5,138.5C 178.527,139.791 179.527,139.791 180.5,138.5C 180.371,140.216 180.038,141.883 179.5,143.5C 172.5,143.5 165.5,143.5 158.5,143.5C 158.833,142.167 159.167,140.833 159.5,139.5C 160.167,137.5 160.833,135.5 161.5,133.5C 162.038,131.883 162.371,130.216 162.5,128.5C 162.369,127.761 162.536,127.094 163,126.5C 164.353,131.226 166.02,135.893 168,140.5C 168.667,139.167 169.333,137.833 170,136.5C 170.249,137.624 170.749,138.624 171.5,139.5C 172.605,137.389 174.271,136.055 176.5,135.5 Z"/></g>
<g><path style="opacity:1" fill="#a54331" d="M -0.5,132.5 C 0.166667,132.5 0.833333,132.5 1.5,132.5C 5.21568,136.449 9.88235,138.616 15.5,139C 16.3802,140.356 16.7135,141.856 16.5,143.5C 10.8333,143.5 5.16667,143.5 -0.5,143.5C -0.5,139.833 -0.5,136.167 -0.5,132.5 Z"/></g>
<g><path style="opacity:1" fill="#bddbb7" d="M 24.5,143.5 C 22.1667,143.5 19.8333,143.5 17.5,143.5C 17.5,142.5 17.5,141.5 17.5,140.5C 20.4815,140.182 22.8148,141.182 24.5,143.5 Z"/></g>
</svg>
