<?xml version="1.0" encoding="UTF-8"?>
<!DOCTYPE svg PUBLIC "-//W3C//DTD SVG 1.1//EN" "http://www.w3.org/Graphics/SVG/1.1/DTD/svg11.dtd">
<svg xmlns="http://www.w3.org/2000/svg" version="1.1" width="256px" height="144px" style="shape-rendering:geometricPrecision; text-rendering:geometricPrecision; image-rendering:optimizeQuality; fill-rule:evenodd; clip-rule:evenodd" xmlns:xlink="http://www.w3.org/1999/xlink">
<g><path style="opacity:1" fill="#182a29" d="M -0.5,-0.5 C 20.5,-0.5 41.5,-0.5 62.5,-0.5C 59.4499,0.898668 56.4499,1.89867 53.5,2.5C 53.1667,2.5 52.8333,2.5 52.5,2.5C 49.3923,2.94426 46.7256,4.27759 44.5,6.5C 42.8437,4.97762 41.677,5.31095 41,7.5C 36.5218,6.31185 32.0218,6.31185 27.5,7.5C 27.4042,3.68926 26.7376,3.68926 25.5,7.5C 25.5105,6.55855 25.0105,5.89188 24,5.5C 20.9688,5.89819 17.9688,6.23153 15,6.5C 12.0459,6.4056 11.8792,5.9056 14.5,5C 12.8204,4.96566 11.3204,4.799 10,4.5C 9.66667,5.16667 9.33333,5.83333 9,6.5C 7.32635,4.99073 5.65969,4.32406 4,4.5C 3.14748,6.12472 2.14748,6.45805 1,5.5C 0.76791,6.73747 0.26791,7.73747 -0.5,8.5C -0.5,5.5 -0.5,2.5 -0.5,-0.5 Z"/></g>
<g><path style="opacity:1" fill="#ebebb7" d="M 216.5,-0.5 C 218.5,-0.5 220.5,-0.5 222.5,-0.5C 215.263,7.90894 209.263,16.7423 204.5,26C 204.343,29.3531 204.843,32.8531 206,36.5C 206.333,36.1667 206.667,35.8333 207,35.5C 208.312,38.5809 210.645,40.2476 214,40.5C 215.316,37.972 216.483,37.972 217.5,40.5C 218.425,39.3595 219.259,39.3595 220,40.5C 221.328,38.331 222.994,37.9977 225,39.5C 227.515,38.8853 229.848,37.8853 232,36.5C 232.333,36.8333 232.667,37.1667 233,37.5C 237.887,34.4717 243.054,32.1383 248.5,30.5C 249.239,30.369 249.906,30.5357 250.5,31C 243.495,35.995 235.328,40.1617 226,43.5C 225.667,43.1667 225.333,42.8333 225,42.5C 217.895,45.4726 210.728,47.4726 203.5,48.5C 202.575,47.3595 201.741,47.3595 201,48.5C 199.96,45.9595 198.126,44.2929 195.5,43.5C 194.115,42.4495 193.115,41.1161 192.5,39.5C 191.496,35.9946 191.496,32.6613 192.5,29.5C 196.62,25.1911 199.787,20.1911 202,14.5C 204.457,13.3626 206.624,11.8626 208.5,10C 208.167,9.66667 207.833,9.33333 207.5,9C 211.076,6.32058 214.076,3.15391 216.5,-0.5 Z"/></g>
<g><path style="opacity:1" fill="#f1f1be" d="M 222.5,-0.5 C 224.167,-0.5 225.833,-0.5 227.5,-0.5C 225.212,4.2579 221.712,8.59123 217,12.5C 215.86,16.4914 215.693,20.3247 216.5,24C 216.325,25.6581 215.658,26.9914 214.5,28C 215.987,30.4852 217.821,32.6518 220,34.5C 223.102,34.2173 226.102,34.2173 229,34.5C 231.718,33.6532 234.384,32.6532 237,31.5C 237.333,31.8333 237.667,32.1667 238,32.5C 243.811,29.1228 249.645,26.1228 255.5,23.5C 255.5,24.1667 255.5,24.8333 255.5,25.5C 252.953,26.9336 250.619,28.6002 248.5,30.5C 243.054,32.1383 237.887,34.4717 233,37.5C 232.667,37.1667 232.333,36.8333 232,36.5C 229.848,37.8853 227.515,38.8853 225,39.5C 222.994,37.9977 221.328,38.331 220,40.5C 219.259,39.3595 218.425,39.3595 217.5,40.5C 216.483,37.972 215.316,37.972 214,40.5C 210.645,40.2476 208.312,38.5809 207,35.5C 206.667,35.8333 206.333,36.1667 206,36.5C 204.843,32.8531 204.343,29.3531 204.5,26C 209.263,16.7423 215.263,7.90894 222.5,-0.5 Z"/></g>
<g><path style="opacity:1" fill="#f5f5c4" d="M 227.5,-0.5 C 230.5,-0.5 233.5,-0.5 236.5,-0.5C 234.821,2.23126 232.488,5.06459 229.5,8C 229.833,8.33333 230.167,8.66667 230.5,9C 229.601,11.4681 228.267,14.1348 226.5,17C 227.358,18.7882 228.358,20.6215 229.5,22.5C 231.398,21.2655 233.065,21.5989 234.5,23.5C 238.684,22.108 242.517,20.7747 246,19.5C 248.759,20.4562 250.759,19.4562 252,16.5C 252.986,17.1712 254.153,17.1712 255.5,16.5C 255.5,18.8333 255.5,21.1667 255.5,23.5C 249.645,26.1228 243.811,29.1228 238,32.5C 237.667,32.1667 237.333,31.8333 237,31.5C 234.384,32.6532 231.718,33.6532 229,34.5C 226.102,34.2173 223.102,34.2173 220,34.5C 217.821,32.6518 215.987,30.4852 214.5,28C 215.658,26.9914 216.325,25.6581 216.5,24C 215.693,20.3247 215.86,16.4914 217,12.5C 221.712,8.59123 225.212,4.2579 227.5,-0.5 Z"/></g>
<g><path style="opacity:1" fill="#f9f9ca" d="M 236.5,-0.5 C 242.833,-0.5 249.167,-0.5 255.5,-0.5C 255.5,5.16667 255.5,10.8333 255.5,16.5C 254.153,17.1712 252.986,17.1712 252,16.5C 250.759,19.4562 248.759,20.4562 246,19.5C 242.517,20.7747 238.684,22.108 234.5,23.5C 233.065,21.5989 231.398,21.2655 229.5,22.5C 228.358,20.6215 227.358,18.7882 226.5,17C 228.267,14.1348 229.601,11.4681 230.5,9C 230.167,8.66667 229.833,8.33333 229.5,8C 232.488,5.06459 234.821,2.23126 236.5,-0.5 Z"/></g>
<g><path style="opacity:1" fill="#27322b" d="M 62.5,-0.5 C 79.8333,-0.5 97.1667,-0.5 114.5,-0.5C 112.709,0.391268 110.876,1.39127 109,2.5C 108.333,1.83333 107.667,1.16667 107,0.5C 103.667,1.16667 100.333,1.83333 97,2.5C 91.0104,1.51136 85.1771,1.51136 79.5,2.5C 72.2015,3.3498 64.8681,3.68314 57.5,3.5C 56.4324,2.56552 55.099,2.23219 53.5,2.5C 56.4499,1.89867 59.4499,0.898668 62.5,-0.5 Z"/></g>
<g><path style="opacity:1" fill="#7f8060" d="M 157.5,-0.5 C 159.5,-0.5 161.5,-0.5 163.5,-0.5C 162.316,2.84859 159.983,5.01525 156.5,6C 154.126,8.03895 152.126,10.3723 150.5,13C 149.552,13.4828 148.552,13.6495 147.5,13.5C 146.016,11.0814 144.349,8.74809 142.5,6.5C 144.441,6.8693 146.275,7.53597 148,8.5C 150.43,4.56573 153.597,1.56573 157.5,-0.5 Z"/></g>
<g><path style="opacity:1" fill="#363f33" d="M 114.5,-0.5 C 115.833,-0.5 117.167,-0.5 118.5,-0.5C 118.511,1.01739 119.177,2.18405 120.5,3C 116.492,6.14394 112.325,6.3106 108,3.5C 107,4.16667 106,4.83333 105,5.5C 102.88,4.3947 100.713,4.3947 98.5,5.5C 96.0347,5.23303 93.7014,4.56637 91.5,3.5C 87.2984,3.81675 83.2984,3.48342 79.5,2.5C 85.1771,1.51136 91.0104,1.51136 97,2.5C 100.333,1.83333 103.667,1.16667 107,0.5C 107.667,1.16667 108.333,1.83333 109,2.5C 110.876,1.39127 112.709,0.391268 114.5,-0.5 Z"/></g>
<g><path style="opacity:1" fill="#6c512a" d="M 123.5,-0.5 C 125.167,-0.5 126.833,-0.5 128.5,-0.5C 130.115,2.44951 132.115,5.11618 134.5,7.5C 137.038,12.1559 138.704,17.1559 139.5,22.5C 137.292,21.977 135.792,20.6437 135,18.5C 133.801,15.2744 133.301,11.941 133.5,8.5C 131.012,8.31668 129.012,7.31668 127.5,5.5C 126.559,3.22794 125.226,1.22794 123.5,-0.5 Z"/></g>
<g><path style="opacity:1" fill="#deddd7" d="M 79.5,2.5 C 83.2984,3.48342 87.2984,3.81675 91.5,3.5C 93.3167,5.01222 94.3167,7.01222 94.5,9.5C 92.8211,9.89233 91.1545,10.3923 89.5,11C 93.1941,15.7127 97.6941,19.2127 103,21.5C 103.383,20.944 103.883,20.6107 104.5,20.5C 106.948,21.4731 109.615,21.8064 112.5,21.5C 112.631,22.2389 112.464,22.9056 112,23.5C 110.644,22.6198 109.144,22.2865 107.5,22.5C 102.833,21.3905 98.4995,21.3905 94.5,22.5C 94.1667,21.8333 93.8333,21.1667 93.5,20.5C 94.2389,20.631 94.9056,20.4643 95.5,20C 91.9604,15.2952 87.6271,11.4619 82.5,8.5C 79.9159,9.39276 77.2492,9.72609 74.5,9.5C 72.742,9.12312 71.0754,8.45645 69.5,7.5C 68.8933,7.62358 68.56,7.95691 68.5,8.5C 66.5,8.5 64.5,8.5 62.5,8.5C 60.5,7.5 58.5,6.5 56.5,5.5C 54.9689,4.07546 55.3023,3.40879 57.5,3.5C 64.8681,3.68314 72.2015,3.3498 79.5,2.5 Z"/></g>
<g><path style="opacity:1" fill="#e1daae" d="M 128.5,-0.5 C 131.167,-0.5 133.833,-0.5 136.5,-0.5C 138.5,1.83333 140.5,4.16667 142.5,6.5C 144.349,8.74809 146.016,11.0814 147.5,13.5C 147.433,14.9587 147.766,16.2921 148.5,17.5C 148.672,18.4916 148.338,19.1583 147.5,19.5C 145.694,12.6915 141.36,8.69151 134.5,7.5C 132.115,5.11618 130.115,2.44951 128.5,-0.5 Z"/></g>
<g><path style="opacity:1" fill="#a2a279" d="M 170.5,-0.5 C 172.833,-0.5 175.167,-0.5 177.5,-0.5C 172.536,4.96467 167.37,10.298 162,15.5C 160.292,20.7164 158.792,25.7164 157.5,30.5C 156.14,29.8201 154.807,29.1534 153.5,28.5C 152.883,28.3893 152.383,28.056 152,27.5C 151.506,29.1341 151.34,30.8008 151.5,32.5C 150.833,31.5 150.167,30.5 149.5,29.5C 149.212,26.0611 148.546,22.7278 147.5,19.5C 148.338,19.1583 148.672,18.4916 148.5,17.5C 149.161,18.7175 149.828,20.0508 150.5,21.5C 151.5,21 152.5,20.5 153.5,20C 154.833,19.3333 154.833,18.6667 153.5,18C 156.268,17.2924 157.101,15.7924 156,13.5C 156.75,12.8742 157.584,12.3742 158.5,12C 158.167,11.6667 157.833,11.3333 157.5,11C 162.35,7.64408 166.683,3.81075 170.5,-0.5 Z"/></g>
<g><path style="opacity:1" fill="#182e2e" d="M 52.5,2.5 C 52.5,3.83333 52.5,5.16667 52.5,6.5C 48.5799,7.12663 45.2466,8.7933 42.5,11.5C 41.8333,11.5 41.1667,11.5 40.5,11.5C 40.2172,10.7109 39.7172,10.0442 39,9.5C 35.1556,11.4999 32.6556,14.4999 31.5,18.5C 28.6062,18.0423 26.1062,18.709 24,20.5C 23.586,20.0426 23.086,19.7093 22.5,19.5C 21.7836,20.311 20.9503,20.9777 20,21.5C 18.9895,21.1081 18.4895,20.4415 18.5,19.5C 15.9721,20.2131 13.3055,20.5464 10.5,20.5C 9.80762,19.9747 9.30762,19.3081 9,18.5C 7.31227,20.0449 5.31227,21.0449 3,21.5C 2.66667,20.8333 2.33333,20.1667 2,19.5C 1.62325,20.9423 0.789915,21.9423 -0.5,22.5C -0.5,17.8333 -0.5,13.1667 -0.5,8.5C 0.26791,7.73747 0.76791,6.73747 1,5.5C 2.14748,6.45805 3.14748,6.12472 4,4.5C 5.65969,4.32406 7.32635,4.99073 9,6.5C 9.33333,5.83333 9.66667,5.16667 10,4.5C 11.3204,4.799 12.8204,4.96566 14.5,5C 11.8792,5.9056 12.0459,6.4056 15,6.5C 17.9688,6.23153 20.9688,5.89819 24,5.5C 25.0105,5.89188 25.5105,6.55855 25.5,7.5C 26.7376,3.68926 27.4042,3.68926 27.5,7.5C 32.0218,6.31185 36.5218,6.31185 41,7.5C 41.677,5.31095 42.8437,4.97762 44.5,6.5C 46.7256,4.27759 49.3923,2.94426 52.5,2.5 Z"/></g>
<g><path style="opacity:1" fill="#6a6c51" d="M 136.5,-0.5 C 143.5,-0.5 150.5,-0.5 157.5,-0.5C 153.597,1.56573 150.43,4.56573 148,8.5C 146.275,7.53597 144.441,6.8693 142.5,6.5C 140.5,4.16667 138.5,1.83333 136.5,-0.5 Z"/></g>
<g><path style="opacity:1" fill="#4b4f3e" d="M 118.5,-0.5 C 118.833,-0.5 119.167,-0.5 119.5,-0.5C 122.614,3.39331 124.947,7.72665 126.5,12.5C 126.145,13.5223 125.478,14.189 124.5,14.5C 124.152,12.2872 123.319,10.2872 122,8.5C 117.645,8.1807 113.145,8.51404 108.5,9.5C 104.851,8.73328 101.518,7.39994 98.5,5.5C 100.713,4.3947 102.88,4.3947 105,5.5C 106,4.83333 107,4.16667 108,3.5C 112.325,6.3106 116.492,6.14394 120.5,3C 119.177,2.18405 118.511,1.01739 118.5,-0.5 Z"/></g>
<g><path style="opacity:1" fill="#cdccc7" d="M 52.5,2.5 C 52.8333,2.5 53.1667,2.5 53.5,2.5C 55.099,2.23219 56.4324,2.56552 57.5,3.5C 55.3023,3.40879 54.9689,4.07546 56.5,5.5C 56.8102,7.14363 57.8102,8.14363 59.5,8.5C 59.5792,9.93047 59.2458,11.2638 58.5,12.5C 51.9679,17.4241 44.6345,19.2574 36.5,18C 39.2937,16.4645 41.2937,14.2978 42.5,11.5C 45.2466,8.7933 48.5799,7.12663 52.5,6.5C 52.5,5.16667 52.5,3.83333 52.5,2.5 Z"/></g>
<g><path style="opacity:1" fill="#4c3b24" d="M 119.5,-0.5 C 120.833,-0.5 122.167,-0.5 123.5,-0.5C 125.226,1.22794 126.559,3.22794 127.5,5.5C 128.248,7.33246 129.248,8.99913 130.5,10.5C 129.514,14.97 129.181,19.6367 129.5,24.5C 128.833,24.5 128.167,24.5 127.5,24.5C 125.89,21.7967 124.89,18.7967 124.5,15.5C 124.5,15.1667 124.5,14.8333 124.5,14.5C 125.478,14.189 126.145,13.5223 126.5,12.5C 124.947,7.72665 122.614,3.39331 119.5,-0.5 Z"/></g>
<g><path style="opacity:1" fill="#dcd8c3" d="M 91.5,3.5 C 93.7014,4.56637 96.0347,5.23303 98.5,5.5C 101.518,7.39994 104.851,8.73328 108.5,9.5C 111.167,10.8333 113.833,12.1667 116.5,13.5C 114.326,13.0798 112.326,13.0798 110.5,13.5C 112.566,16.6058 114.899,19.4392 117.5,22C 115.735,22.6397 114.068,22.4731 112.5,21.5C 109.615,21.8064 106.948,21.4731 104.5,20.5C 103.048,19.6981 101.382,19.1981 99.5,19C 100.167,18.6667 100.833,18.3333 101.5,18C 99.3024,14.9772 96.969,12.1438 94.5,9.5C 94.3167,7.01222 93.3167,5.01222 91.5,3.5 Z"/></g>
<g><path style="opacity:1" fill="#c9c9c7" d="M 62.5,8.5 C 64.5,8.5 66.5,8.5 68.5,8.5C 75.1667,12.5 81.8333,16.5 88.5,20.5C 87.7784,20.9175 87.2784,21.5842 87,22.5C 86.3292,21.7476 85.4959,21.4142 84.5,21.5C 76.829,17.6673 69.4957,13.334 62.5,8.5 Z"/></g>
<g><path style="opacity:1" fill="#b4b1a5" d="M 93.5,20.5 C 86.6678,17.5876 80.3344,13.9209 74.5,9.5C 77.2492,9.72609 79.9159,9.39276 82.5,8.5C 87.6271,11.4619 91.9604,15.2952 95.5,20C 94.9056,20.4643 94.2389,20.631 93.5,20.5 Z"/></g>
<g><path style="opacity:1" fill="#676d55" d="M 124.5,14.5 C 124.5,14.8333 124.5,15.1667 124.5,15.5C 121.67,15.3059 119.004,14.6392 116.5,13.5C 113.833,12.1667 111.167,10.8333 108.5,9.5C 113.145,8.51404 117.645,8.1807 122,8.5C 123.319,10.2872 124.152,12.2872 124.5,14.5 Z"/></g>
<g><path style="opacity:1" fill="#8e906c" d="M 163.5,-0.5 C 165.833,-0.5 168.167,-0.5 170.5,-0.5C 166.683,3.81075 162.35,7.64408 157.5,11C 157.833,11.3333 158.167,11.6667 158.5,12C 157.584,12.3742 156.75,12.8742 156,13.5C 157.101,15.7924 156.268,17.2924 153.5,18C 154.833,18.6667 154.833,19.3333 153.5,20C 152.5,20.5 151.5,21 150.5,21.5C 149.828,20.0508 149.161,18.7175 148.5,17.5C 147.766,16.2921 147.433,14.9587 147.5,13.5C 148.552,13.6495 149.552,13.4828 150.5,13C 152.126,10.3723 154.126,8.03895 156.5,6C 159.983,5.01525 162.316,2.84859 163.5,-0.5 Z"/></g>
<g><path style="opacity:1" fill="#adaca5" d="M 59.5,8.5 C 62.16,11.1335 64.8267,13.8001 67.5,16.5C 68.3857,17.325 68.719,18.325 68.5,19.5C 66.8967,19.3118 65.5634,19.8118 64.5,21C 66.1066,22.049 66.7733,23.549 66.5,25.5C 65.453,23.8494 64.2863,22.1828 63,20.5C 62.7811,21.938 62.2811,23.2713 61.5,24.5C 56.4551,21.0375 50.7884,19.3709 44.5,19.5C 42.6307,19.5068 40.964,19.8401 39.5,20.5C 37.7376,20.6427 36.0709,20.3094 34.5,19.5C 32.8849,20.154 31.2182,20.654 29.5,21C 31.5767,21.1922 33.5767,21.6922 35.5,22.5C 36.6119,23.2652 37.2786,24.2652 37.5,25.5C 36.1667,25.5 34.8333,25.5 33.5,25.5C 30.9188,24.5115 28.2521,23.5115 25.5,22.5C 25.4142,21.5041 25.7476,20.6708 26.5,20C 32.2762,18.9473 36.9428,16.114 40.5,11.5C 41.1667,11.5 41.8333,11.5 42.5,11.5C 41.2937,14.2978 39.2937,16.4645 36.5,18C 44.6345,19.2574 51.9679,17.4241 58.5,12.5C 59.2458,11.2638 59.5792,9.93047 59.5,8.5 Z"/></g>
<g><path style="opacity:1" fill="#b8b5a7" d="M 94.5,9.5 C 96.969,12.1438 99.3024,14.9772 101.5,18C 100.833,18.3333 100.167,18.6667 99.5,19C 101.382,19.1981 103.048,19.6981 104.5,20.5C 103.883,20.6107 103.383,20.944 103,21.5C 97.6941,19.2127 93.1941,15.7127 89.5,11C 91.1545,10.3923 92.8211,9.89233 94.5,9.5 Z"/></g>
<g><path style="opacity:1" fill="#696e6e" d="M 56.5,5.5 C 58.5,6.5 60.5,7.5 62.5,8.5C 69.4957,13.334 76.829,17.6673 84.5,21.5C 85.625,22.6522 85.625,23.6522 84.5,24.5C 82.9991,23.2485 81.3325,22.2485 79.5,21.5C 78.0813,20.5489 76.4147,20.2155 74.5,20.5C 72.7354,19.5386 70.7354,19.2053 68.5,19.5C 68.719,18.325 68.3857,17.325 67.5,16.5C 64.8267,13.8001 62.16,11.1335 59.5,8.5C 57.8102,8.14363 56.8102,7.14363 56.5,5.5 Z"/></g>
<g><path style="opacity:1" fill="#e8e2c7" d="M 74.5,9.5 C 80.3344,13.9209 86.6678,17.5876 93.5,20.5C 93.8333,21.1667 94.1667,21.8333 94.5,22.5C 92.5,21.8333 90.5,21.1667 88.5,20.5C 81.8333,16.5 75.1667,12.5 68.5,8.5C 68.56,7.95691 68.8933,7.62358 69.5,7.5C 71.0754,8.45645 72.742,9.12312 74.5,9.5 Z"/></g>
<g><path style="opacity:1" fill="#1a3536" d="M 40.5,11.5 C 36.9428,16.114 32.2762,18.9473 26.5,20C 25.7476,20.6708 25.4142,21.5041 25.5,22.5C 24.9569,22.56 24.6236,22.8933 24.5,23.5C 25.2427,24.1818 25.9094,24.8485 26.5,25.5C 26.1667,26.8333 25.8333,28.1667 25.5,29.5C 23.5891,29.5743 22.4224,30.5743 22,32.5C 21,29.8333 20,29.8333 19,32.5C 17.2927,31.5415 15.4594,30.8748 13.5,30.5C 8.81067,31.4071 4.14401,32.0737 -0.5,32.5C -0.5,29.1667 -0.5,25.8333 -0.5,22.5C 0.789915,21.9423 1.62325,20.9423 2,19.5C 2.33333,20.1667 2.66667,20.8333 3,21.5C 5.31227,21.0449 7.31227,20.0449 9,18.5C 9.30762,19.3081 9.80762,19.9747 10.5,20.5C 13.3055,20.5464 15.9721,20.2131 18.5,19.5C 18.4895,20.4415 18.9895,21.1081 20,21.5C 20.9503,20.9777 21.7836,20.311 22.5,19.5C 23.086,19.7093 23.586,20.0426 24,20.5C 26.1062,18.709 28.6062,18.0423 31.5,18.5C 32.6556,14.4999 35.1556,11.4999 39,9.5C 39.7172,10.0442 40.2172,10.7109 40.5,11.5 Z"/></g>
<g><path style="opacity:1" fill="#a39157" d="M 134.5,7.5 C 141.36,8.69151 145.694,12.6915 147.5,19.5C 148.546,22.7278 149.212,26.0611 149.5,29.5C 148.194,26.8582 147.194,24.0249 146.5,21C 146,20.8333 145.5,20.6667 145,20.5C 143.674,21.7989 142.34,23.1322 141,24.5C 140.722,23.5842 140.222,22.9175 139.5,22.5C 138.704,17.1559 137.038,12.1559 134.5,7.5 Z"/></g>
<g><path style="opacity:1" fill="#94928b" d="M 66.5,25.5 C 66.8333,25.5 67.1667,25.5 67.5,25.5C 68.1667,26.5 68.8333,27.5 69.5,28.5C 66.5979,27.4222 63.5979,26.7556 60.5,26.5C 53.356,24.6342 46.356,22.6342 39.5,20.5C 40.964,19.8401 42.6307,19.5068 44.5,19.5C 50.7884,19.3709 56.4551,21.0375 61.5,24.5C 62.2811,23.2713 62.7811,21.938 63,20.5C 64.2863,22.1828 65.453,23.8494 66.5,25.5 Z"/></g>
<g><path style="opacity:1" fill="#b8d1d3" d="M 68.5,19.5 C 70.7354,19.2053 72.7354,19.5386 74.5,20.5C 72.847,20.6596 71.5137,21.3263 70.5,22.5C 69.7281,23.6935 68.7281,24.6935 67.5,25.5C 67.1667,25.5 66.8333,25.5 66.5,25.5C 66.7733,23.549 66.1066,22.049 64.5,21C 65.5634,19.8118 66.8967,19.3118 68.5,19.5 Z"/></g>
<g><path style="opacity:1" fill="#1e1910" d="M 130.5,10.5 C 131.993,13.5832 132.993,16.9165 133.5,20.5C 133.851,22.8695 134.018,25.2028 134,27.5C 133.082,25.6243 131.582,24.6243 129.5,24.5C 129.181,19.6367 129.514,14.97 130.5,10.5 Z"/></g>
<g><path style="opacity:1" fill="#c5c8d0" d="M 39.5,20.5 C 46.356,22.6342 53.356,24.6342 60.5,26.5C 60.4701,27.4972 60.9701,28.1639 62,28.5C 68.3335,30.923 74.8335,32.5896 81.5,33.5C 80.4478,38.4932 80.2811,43.4932 81,48.5C 80.9005,46.3474 80.0672,44.6808 78.5,43.5C 75.594,40.0346 71.9273,37.5346 67.5,36C 57.2607,32.7558 47.2607,29.2558 37.5,25.5C 37.2786,24.2652 36.6119,23.2652 35.5,22.5C 33.5767,21.6922 31.5767,21.1922 29.5,21C 31.2182,20.654 32.8849,20.154 34.5,19.5C 36.0709,20.3094 37.7376,20.6427 39.5,20.5 Z"/></g>
<g><path style="opacity:1" fill="#5ad7ee" d="M 74.5,20.5 C 76.4147,20.2155 78.0813,20.5489 79.5,21.5C 78.1266,21.3433 76.7932,21.51 75.5,22C 77.6577,22.9589 77.991,24.4589 76.5,26.5C 77.0728,29.0853 78.7395,30.0853 81.5,29.5C 81.5,29.8333 81.5,30.1667 81.5,30.5C 77.9219,30.4512 74.5885,29.7846 71.5,28.5C 72.3764,28.6309 73.0431,28.2975 73.5,27.5C 72.3037,25.8554 71.3037,24.1887 70.5,22.5C 71.5137,21.3263 72.847,20.6596 74.5,20.5 Z"/></g>
<g><path style="opacity:1" fill="#afafae" d="M 88.5,20.5 C 90.5,21.1667 92.5,21.8333 94.5,22.5C 98.4995,21.3905 102.833,21.3905 107.5,22.5C 106.68,24.1401 105.847,25.8068 105,27.5C 102.504,26.9012 100.004,27.2346 97.5,28.5C 96.2789,27.5354 94.9456,27.702 93.5,29C 88.4382,33.2435 86.4382,38.4102 87.5,44.5C 87.5651,47.4282 88.2318,50.0948 89.5,52.5C 89.5,54.1667 89.5,55.8333 89.5,57.5C 88.1667,57.5 86.8333,57.5 85.5,57.5C 82.7628,57.4013 80.0961,57.7347 77.5,58.5C 75.8333,58.5 74.1667,58.5 72.5,58.5C 73.6002,57.4415 74.9336,56.6082 76.5,56C 75.0745,54.2859 75.4078,52.9525 77.5,52C 76.552,51.5172 75.552,51.3505 74.5,51.5C 76.8907,49.3852 78.2241,46.7186 78.5,43.5C 80.0672,44.6808 80.9005,46.3474 81,48.5C 80.2811,43.4932 80.4478,38.4932 81.5,33.5C 87.5782,32.9622 89.7449,29.9622 88,24.5C 87.9005,26.6526 87.0672,28.3192 85.5,29.5C 85.7373,28.209 85.404,27.209 84.5,26.5C 84.5,25.8333 84.5,25.1667 84.5,24.5C 85.625,23.6522 85.625,22.6522 84.5,21.5C 85.4959,21.4142 86.3292,21.7476 87,22.5C 87.2784,21.5842 87.7784,20.9175 88.5,20.5 Z"/></g>
<g><path style="opacity:1" fill="#efeacf" d="M 116.5,13.5 C 119.004,14.6392 121.67,15.3059 124.5,15.5C 124.89,18.7967 125.89,21.7967 127.5,24.5C 127.5,25.8333 127.5,27.1667 127.5,28.5C 124.833,28.5 122.167,28.5 119.5,28.5C 114.261,27.9633 109.261,28.63 104.5,30.5C 103.833,30.1667 103.167,29.8333 102.5,29.5C 98.783,31.0454 95.4497,33.2121 92.5,36C 91.5632,36.6917 90.8966,36.525 90.5,35.5C 92.5,32.8333 94.8333,30.5 97.5,28.5C 100.004,27.2346 102.504,26.9012 105,27.5C 105.847,25.8068 106.68,24.1401 107.5,22.5C 109.144,22.2865 110.644,22.6198 112,23.5C 112.464,22.9056 112.631,22.2389 112.5,21.5C 114.068,22.4731 115.735,22.6397 117.5,22C 114.899,19.4392 112.566,16.6058 110.5,13.5C 112.326,13.0798 114.326,13.0798 116.5,13.5 Z"/></g>
<g><path style="opacity:1" fill="#646566" d="M 25.5,22.5 C 28.2521,23.5115 30.9188,24.5115 33.5,25.5C 31.1667,25.5 28.8333,25.5 26.5,25.5C 25.9094,24.8485 25.2427,24.1818 24.5,23.5C 24.6236,22.8933 24.9569,22.56 25.5,22.5 Z"/></g>
<g><path style="opacity:1" fill="#b5b688" d="M 177.5,-0.5 C 182.5,-0.5 187.5,-0.5 192.5,-0.5C 188.607,3.1787 184.273,6.51204 179.5,9.5C 176.392,12.8666 173.392,16.3666 170.5,20C 169.551,20.6172 168.718,20.4506 168,19.5C 167.45,22.2634 166.617,24.9301 165.5,27.5C 165.353,31.9256 166.353,36.2589 168.5,40.5C 163.342,40.114 160.008,37.4473 158.5,32.5C 156.925,31.5435 155.258,30.8769 153.5,30.5C 153.5,29.8333 153.5,29.1667 153.5,28.5C 154.807,29.1534 156.14,29.8201 157.5,30.5C 158.792,25.7164 160.292,20.7164 162,15.5C 167.37,10.298 172.536,4.96467 177.5,-0.5 Z"/></g>
<g><path style="opacity:1" fill="#46f4f9" d="M 79.5,21.5 C 81.3325,22.2485 82.9991,23.2485 84.5,24.5C 84.5,25.1667 84.5,25.8333 84.5,26.5C 84.1898,28.1436 83.1898,29.1436 81.5,29.5C 78.7395,30.0853 77.0728,29.0853 76.5,26.5C 77.991,24.4589 77.6577,22.9589 75.5,22C 76.7932,21.51 78.1266,21.3433 79.5,21.5 Z"/></g>
<g><path style="opacity:1" fill="#4da5c5" d="M 70.5,22.5 C 71.3037,24.1887 72.3037,25.8554 73.5,27.5C 73.0431,28.2975 72.3764,28.6309 71.5,28.5C 70.8333,28.5 70.1667,28.5 69.5,28.5C 68.8333,27.5 68.1667,26.5 67.5,25.5C 68.7281,24.6935 69.7281,23.6935 70.5,22.5 Z"/></g>
<g><path style="opacity:1" fill="#525352" d="M 33.5,26.5 C 33.5,26.1667 33.5,25.8333 33.5,25.5C 34.8333,25.5 36.1667,25.5 37.5,25.5C 47.2607,29.2558 57.2607,32.7558 67.5,36C 71.9273,37.5346 75.594,40.0346 78.5,43.5C 78.2241,46.7186 76.8907,49.3852 74.5,51.5C 72.8333,51.5 71.1667,51.5 69.5,51.5C 65.414,52.1544 62.0807,50.9878 59.5,48C 59.7284,47.6012 60.0618,47.4346 60.5,47.5C 65.6396,50.1353 70.8063,50.1353 76,47.5C 76.7796,45.6131 76.6129,43.9464 75.5,42.5C 71.935,39.0853 67.6017,37.4187 62.5,37.5C 60.4862,37.3915 58.8195,38.0582 57.5,39.5C 56.8106,38.2264 55.9772,38.2264 55,39.5C 54.3131,41.9203 54.8131,44.087 56.5,46C 56.2716,46.3988 55.9382,46.5654 55.5,46.5C 52.3024,45.1463 51.1358,42.8129 52,39.5C 54.1922,37.7647 56.6922,36.598 59.5,36C 51.0781,32.1374 42.4114,28.9707 33.5,26.5 Z"/></g>
<g><path style="opacity:1" fill="#988b68" d="M 127.5,24.5 C 128.167,24.5 128.833,24.5 129.5,24.5C 129.833,25.1667 130.167,25.8333 130.5,26.5C 129.05,28.3826 127.05,29.3826 124.5,29.5C 120.332,30.5418 116.332,30.5418 112.5,29.5C 115.059,29.8016 117.393,29.4682 119.5,28.5C 122.167,28.5 124.833,28.5 127.5,28.5C 127.5,27.1667 127.5,25.8333 127.5,24.5 Z"/></g>
<g><path style="opacity:1" fill="#574223" d="M 127.5,5.5 C 129.012,7.31668 131.012,8.31668 133.5,8.5C 133.301,11.941 133.801,15.2744 135,18.5C 135.792,20.6437 137.292,21.977 139.5,22.5C 139.595,24.7857 140.262,26.7857 141.5,28.5C 142.082,33.9131 143.082,39.2464 144.5,44.5C 142.264,41.0559 139.764,37.7225 137,34.5C 136.242,29.5968 135.075,24.9301 133.5,20.5C 132.993,16.9165 131.993,13.5832 130.5,10.5C 129.248,8.99913 128.248,7.33246 127.5,5.5 Z"/></g>
<g><path style="opacity:1" fill="#898c90" d="M 26.5,25.5 C 28.8333,25.5 31.1667,25.5 33.5,25.5C 33.5,25.8333 33.5,26.1667 33.5,26.5C 32.1667,26.5 31.5,27.1667 31.5,28.5C 28.0969,38.5243 26.9302,48.8576 28,59.5C 26.9887,60.3366 25.8221,60.67 24.5,60.5C 24.5,54.8333 24.5,49.1667 24.5,43.5C 24.6686,38.8189 25.0019,34.1522 25.5,29.5C 25.8333,28.1667 26.1667,26.8333 26.5,25.5 Z"/></g>
<g><path style="opacity:1" fill="#e3e3b0" d="M 207.5,-0.5 C 210.5,-0.5 213.5,-0.5 216.5,-0.5C 214.076,3.15391 211.076,6.32058 207.5,9C 207.833,9.33333 208.167,9.66667 208.5,10C 206.624,11.8626 204.457,13.3626 202,14.5C 199.787,20.1911 196.62,25.1911 192.5,29.5C 191.496,32.6613 191.496,35.9946 192.5,39.5C 193.115,41.1161 194.115,42.4495 195.5,43.5C 198.126,44.2929 199.96,45.9595 201,48.5C 201.741,47.3595 202.575,47.3595 203.5,48.5C 210.728,47.4726 217.895,45.4726 225,42.5C 225.333,42.8333 225.667,43.1667 226,43.5C 235.328,40.1617 243.495,35.995 250.5,31C 249.906,30.5357 249.239,30.369 248.5,30.5C 250.619,28.6002 252.953,26.9336 255.5,25.5C 255.5,28.1667 255.5,30.8333 255.5,33.5C 254.883,33.3893 254.383,33.056 254,32.5C 249.631,36.2749 244.798,39.4416 239.5,42C 230.576,45.7139 221.743,49.5472 213,53.5C 210.667,53.1667 208.333,52.8333 206,52.5C 203.524,54.8155 201.191,54.4822 199,51.5C 198.667,51.8333 198.333,52.1667 198,52.5C 193.476,49.4865 190.309,45.4865 188.5,40.5C 186.897,40.6882 185.563,40.1882 184.5,39C 185.731,37.8173 185.731,36.6507 184.5,35.5C 183.365,36.1027 182.365,36.4361 181.5,36.5C 182.873,38.4899 183.873,40.6566 184.5,43C 182.715,42.9167 181.382,41.9167 180.5,40C 180.316,35.6097 180.316,31.2764 180.5,27C 183.11,25.6158 184.61,23.4491 185,20.5C 185.333,20.8333 185.667,21.1667 186,21.5C 186.333,20.5 186.667,19.5 187,18.5C 187.333,18.8333 187.667,19.1667 188,19.5C 188.333,18.5 188.667,17.5 189,16.5C 194.337,12.4318 199.503,8.26511 204.5,4C 205.883,2.72917 206.883,1.22917 207.5,-0.5 Z"/></g>
<g><path style="opacity:1" fill="#d3d3c5" d="M 81.5,33.5 C 74.8335,32.5896 68.3335,30.923 62,28.5C 60.9701,28.1639 60.4701,27.4972 60.5,26.5C 63.5979,26.7556 66.5979,27.4222 69.5,28.5C 70.1667,28.5 70.8333,28.5 71.5,28.5C 74.5885,29.7846 77.9219,30.4512 81.5,30.5C 82.9587,30.5674 84.2921,30.2341 85.5,29.5C 87.0672,28.3192 87.9005,26.6526 88,24.5C 89.7449,29.9622 87.5782,32.9622 81.5,33.5 Z"/></g>
<g><path style="opacity:1" fill="#5c7679" d="M 84.5,26.5 C 85.404,27.209 85.7373,28.209 85.5,29.5C 84.2921,30.2341 82.9587,30.5674 81.5,30.5C 81.5,30.1667 81.5,29.8333 81.5,29.5C 83.1898,29.1436 84.1898,28.1436 84.5,26.5 Z"/></g>
<g><path style="opacity:1" fill="#66522b" d="M 132.5,28.5 C 134.786,29.3402 135.119,30.8402 133.5,33C 135.043,35.0417 136.376,37.2083 137.5,39.5C 135.282,39.6138 133.282,40.2804 131.5,41.5C 129.062,39.7328 126.395,38.3994 123.5,37.5C 120.898,36.3389 118.231,35.1723 115.5,34C 118.157,33.8253 120.824,33.9919 123.5,34.5C 123.5,33.1667 123.5,31.8333 123.5,30.5C 125.591,30.3184 127.591,30.6518 129.5,31.5C 130.548,30.452 131.548,29.452 132.5,28.5 Z"/></g>
<g><path style="opacity:1" fill="#65625c" d="M 97.5,28.5 C 94.8333,30.5 92.5,32.8333 90.5,35.5C 89.596,36.209 89.2627,37.209 89.5,38.5C 90.5,38.5 91.5,38.5 92.5,38.5C 91.2886,40.9498 89.622,42.9498 87.5,44.5C 86.4382,38.4102 88.4382,33.2435 93.5,29C 94.9456,27.702 96.2789,27.5354 97.5,28.5 Z"/></g>
<g><path style="opacity:1" fill="#8c6e3c" d="M 149.5,29.5 C 150.167,30.5 150.833,31.5 151.5,32.5C 151.5,33.5 151.5,34.5 151.5,35.5C 151.5,37.8333 151.5,40.1667 151.5,42.5C 150.698,43.9516 150.198,45.6183 150,47.5C 147.58,40.7393 144.914,34.0727 142,27.5C 141.601,27.7284 141.435,28.0618 141.5,28.5C 140.262,26.7857 139.595,24.7857 139.5,22.5C 140.222,22.9175 140.722,23.5842 141,24.5C 142.34,23.1322 143.674,21.7989 145,20.5C 145.5,20.6667 146,20.8333 146.5,21C 147.194,24.0249 148.194,26.8582 149.5,29.5 Z"/></g>
<g><path style="opacity:1" fill="#183c3e" d="M 25.5,29.5 C 25.0019,34.1522 24.6686,38.8189 24.5,43.5C 23.8343,46.0277 23.1676,48.6944 22.5,51.5C 20.9411,52.0736 19.4411,52.7402 18,53.5C 17.6667,52.8333 17.3333,52.1667 17,51.5C 15.6667,52.8333 14.3333,54.1667 13,55.5C 12.6667,54.8333 12.3333,54.1667 12,53.5C 11.3333,54.8333 10.6667,54.8333 10,53.5C 8.88298,54.9494 8.21631,56.6161 8,58.5C 7.66667,57.8333 7.33333,57.1667 7,56.5C 6.09748,57.7014 4.93081,58.5348 3.5,59C 4.16667,59.3333 4.83333,59.6667 5.5,60C 3.35943,60.5725 1.35943,61.4058 -0.5,62.5C -0.5,52.5 -0.5,42.5 -0.5,32.5C 4.14401,32.0737 8.81067,31.4071 13.5,30.5C 15.4594,30.8748 17.2927,31.5415 19,32.5C 20,29.8333 21,29.8333 22,32.5C 22.4224,30.5743 23.5891,29.5743 25.5,29.5 Z"/></g>
<g><path style="opacity:1" fill="#656755" d="M 106.5,31.5 C 107.494,33.3344 107.494,35.0011 106.5,36.5C 104.059,35.2437 101.726,35.2437 99.5,36.5C 96.8915,36.4003 94.5582,37.0669 92.5,38.5C 92.9528,37.5416 93.6195,36.7083 94.5,36C 98.213,33.8003 102.213,32.3003 106.5,31.5 Z"/></g>
<g><path style="opacity:1" fill="#a4a28e" d="M 119.5,28.5 C 117.393,29.4682 115.059,29.8016 112.5,29.5C 110.833,29.5 109.167,29.5 107.5,29.5C 106.662,29.8417 106.328,30.5084 106.5,31.5C 102.213,32.3003 98.213,33.8003 94.5,36C 93.6195,36.7083 92.9528,37.5416 92.5,38.5C 91.5,38.5 90.5,38.5 89.5,38.5C 89.2627,37.209 89.596,36.209 90.5,35.5C 90.8966,36.525 91.5632,36.6917 92.5,36C 95.4497,33.2121 98.783,31.0454 102.5,29.5C 103.167,29.8333 103.833,30.1667 104.5,30.5C 109.261,28.63 114.261,27.9633 119.5,28.5 Z"/></g>
<g><path style="opacity:1" fill="#382c1d" d="M 133.5,20.5 C 135.075,24.9301 136.242,29.5968 137,34.5C 139.764,37.7225 142.264,41.0559 144.5,44.5C 145.338,44.8417 145.672,45.5084 145.5,46.5C 145.649,47.552 145.483,48.552 145,49.5C 144.303,47.4156 143.136,45.7489 141.5,44.5C 140.203,42.8388 138.87,41.1722 137.5,39.5C 136.376,37.2083 135.043,35.0417 133.5,33C 135.119,30.8402 134.786,29.3402 132.5,28.5C 132.167,27.5 131.5,26.8333 130.5,26.5C 130.167,25.8333 129.833,25.1667 129.5,24.5C 131.582,24.6243 133.082,25.6243 134,27.5C 134.018,25.2028 133.851,22.8695 133.5,20.5 Z"/></g>
<g><path style="opacity:1" fill="#eae5c7" d="M 153.5,28.5 C 153.5,29.1667 153.5,29.8333 153.5,30.5C 157.439,36.1082 162.106,41.1082 167.5,45.5C 164.938,46.6409 162.272,47.4743 159.5,48C 158.671,49.8161 157.837,51.6494 157,53.5C 155.989,52.6634 154.822,52.33 153.5,52.5C 153.335,48.8183 153.501,45.1516 154,41.5C 154.718,42.4506 155.551,42.6172 156.5,42C 154.174,40.1951 152.508,38.0284 151.5,35.5C 151.5,34.5 151.5,33.5 151.5,32.5C 151.34,30.8008 151.506,29.1341 152,27.5C 152.383,28.056 152.883,28.3893 153.5,28.5 Z"/></g>
<g><path style="opacity:1" fill="#9ea1a4" d="M 33.5,26.5 C 42.4114,28.9707 51.0781,32.1374 59.5,36C 56.6922,36.598 54.1922,37.7647 52,39.5C 51.1358,42.8129 52.3024,45.1463 55.5,46.5C 56.5736,47.8846 57.9069,49.0513 59.5,50C 50.7497,50.4616 42.0831,51.4616 33.5,53C 32.7476,53.6708 32.4142,54.5041 32.5,55.5C 31.8826,55.3893 31.3826,55.056 31,54.5C 30.5007,49.5111 30.3341,44.5111 30.5,39.5C 38.3955,42.62 39.0621,41.7867 32.5,37C 32.7523,34.5317 33.0856,32.0317 33.5,29.5C 33.0431,28.7025 32.3764,28.3691 31.5,28.5C 31.5,27.1667 32.1667,26.5 33.5,26.5 Z"/></g>
<g><path style="opacity:1" fill="#514128" d="M 107.5,29.5 C 109.568,30.3748 111.568,31.5415 113.5,33C 112.207,33.49 110.873,33.6567 109.5,33.5C 109.421,34.9305 109.754,36.2638 110.5,37.5C 110.154,38.6956 109.654,38.6956 109,37.5C 107.828,42.8515 106.662,48.1848 105.5,53.5C 104.853,52.7261 104.52,51.7261 104.5,50.5C 105.985,45.9541 106.652,41.2874 106.5,36.5C 107.494,35.0011 107.494,33.3344 106.5,31.5C 106.328,30.5084 106.662,29.8417 107.5,29.5 Z"/></g>
<g><path style="opacity:1" fill="#817040" d="M 130.5,26.5 C 131.5,26.8333 132.167,27.5 132.5,28.5C 131.548,29.452 130.548,30.452 129.5,31.5C 127.591,30.6518 125.591,30.3184 123.5,30.5C 123.5,31.8333 123.5,33.1667 123.5,34.5C 120.824,33.9919 118.157,33.8253 115.5,34C 118.231,35.1723 120.898,36.3389 123.5,37.5C 122.375,38.3478 122.375,39.3478 123.5,40.5C 119.215,39.7051 114.881,39.3718 110.5,39.5C 110.5,41.1667 110.5,42.8333 110.5,44.5C 107.811,51.3956 106.144,58.5623 105.5,66C 105.667,67.5 105.833,69 106,70.5C 108.844,74.8618 111.677,79.1951 114.5,83.5C 114.216,85.4147 114.549,87.0813 115.5,88.5C 115.738,93.3602 116.738,98.0268 118.5,102.5C 118.591,104.698 117.925,105.031 116.5,103.5C 114.218,96.7091 112.718,89.7091 112,82.5C 109.333,78.5 106.667,74.5 104,70.5C 103.412,65.4724 103.578,60.4724 104.5,55.5C 105.338,55.1583 105.672,54.4916 105.5,53.5C 106.662,48.1848 107.828,42.8515 109,37.5C 109.654,38.6956 110.154,38.6956 110.5,37.5C 109.754,36.2638 109.421,34.9305 109.5,33.5C 110.873,33.6567 112.207,33.49 113.5,33C 111.568,31.5415 109.568,30.3748 107.5,29.5C 109.167,29.5 110.833,29.5 112.5,29.5C 116.332,30.5418 120.332,30.5418 124.5,29.5C 127.05,29.3826 129.05,28.3826 130.5,26.5 Z"/></g>
<g><path style="opacity:1" fill="#39d3e3" d="M 62.5,37.5 C 67.6017,37.4187 71.935,39.0853 75.5,42.5C 75.762,43.9778 75.4287,45.3112 74.5,46.5C 72.4475,41.1313 68.4475,38.798 62.5,39.5C 62.5,38.8333 62.5,38.1667 62.5,37.5 Z"/></g>
<g><path style="opacity:1" fill="#867642" d="M 124.5,40.5 C 129.381,42.7094 133.381,46.0427 136.5,50.5C 134.956,50.2969 133.622,49.6302 132.5,48.5C 130.084,45.4175 127.418,42.7508 124.5,40.5 Z"/></g>
<g><path style="opacity:1" fill="#e7dc81" d="M 123.5,37.5 C 126.395,38.3994 129.062,39.7328 131.5,41.5C 133.5,43.8333 135.5,46.1667 137.5,48.5C 137.5,48.8333 137.5,49.1667 137.5,49.5C 137.5,50.1667 137.167,50.5 136.5,50.5C 133.381,46.0427 129.381,42.7094 124.5,40.5C 124.167,40.5 123.833,40.5 123.5,40.5C 122.375,39.3478 122.375,38.3478 123.5,37.5 Z"/></g>
<g><path style="opacity:1" fill="#8ab3c1" d="M 62.5,37.5 C 62.5,38.1667 62.5,38.8333 62.5,39.5C 61.5489,40.9187 61.2155,42.5853 61.5,44.5C 59.7839,44.3713 58.1172,44.038 56.5,43.5C 56.4326,42.0413 56.7659,40.7079 57.5,39.5C 58.8195,38.0582 60.4862,37.3915 62.5,37.5 Z"/></g>
<g><path style="opacity:1" fill="#c1c392" d="M 192.5,-0.5 C 193.833,-0.5 195.167,-0.5 196.5,-0.5C 190.237,4.69317 183.57,10.3598 176.5,16.5C 174.808,18.3586 173.308,20.3586 172,22.5C 171.28,24.1124 171.446,25.6124 172.5,27C 171.833,27.6667 171.167,28.3333 170.5,29C 171.607,33.7424 172.441,38.5757 173,43.5C 174.783,46.6179 176.95,49.4513 179.5,52C 178.906,52.4643 178.239,52.631 177.5,52.5C 175.454,49.8079 172.954,47.4746 170,45.5C 168.991,43.9751 168.491,42.3084 168.5,40.5C 166.353,36.2589 165.353,31.9256 165.5,27.5C 166.617,24.9301 167.45,22.2634 168,19.5C 168.718,20.4506 169.551,20.6172 170.5,20C 173.392,16.3666 176.392,12.8666 179.5,9.5C 184.273,6.51204 188.607,3.1787 192.5,-0.5 Z"/></g>
<g><path style="opacity:1" fill="#2d98b4" d="M 62.5,39.5 C 68.4475,38.798 72.4475,41.1313 74.5,46.5C 75.4287,45.3112 75.762,43.9778 75.5,42.5C 76.6129,43.9464 76.7796,45.6131 76,47.5C 70.8063,50.1353 65.6396,50.1353 60.5,47.5C 59.1667,46.1667 57.8333,44.8333 56.5,43.5C 58.1172,44.038 59.7839,44.3713 61.5,44.5C 61.2155,42.5853 61.5489,40.9187 62.5,39.5 Z"/></g>
<g><path style="opacity:1" fill="#775e32" d="M 106.5,36.5 C 106.652,41.2874 105.985,45.9541 104.5,50.5C 104.52,51.7261 104.853,52.7261 105.5,53.5C 105.672,54.4916 105.338,55.1583 104.5,55.5C 103.668,55.754 103.001,56.754 102.5,58.5C 102.664,55.8127 102.497,53.146 102,50.5C 101.667,51.5 101.333,52.5 101,53.5C 99.7892,49.5375 97.7892,48.8709 95,51.5C 94.6667,50.8333 94.3333,50.1667 94,49.5C 93.2917,50.3805 92.4584,51.0472 91.5,51.5C 91.5172,49.4352 91.8505,47.4352 92.5,45.5C 92.5394,44.4168 92.8728,43.4168 93.5,42.5C 95.215,40.1182 97.215,38.1182 99.5,36.5C 101.726,35.2437 104.059,35.2437 106.5,36.5 Z"/></g>
<g><path style="opacity:1" fill="#b07940" d="M 137.5,39.5 C 138.87,41.1722 140.203,42.8388 141.5,44.5C 141.649,45.552 141.483,46.552 141,47.5C 139.665,48.0795 138.498,48.4128 137.5,48.5C 135.5,46.1667 133.5,43.8333 131.5,41.5C 133.282,40.2804 135.282,39.6138 137.5,39.5 Z"/></g>
<g><path style="opacity:1" fill="#2e2119" d="M 134.5,52.5 C 131.859,51.7369 129.192,51.5702 126.5,52C 127.756,52.4169 128.423,53.2502 128.5,54.5C 125.332,53.1362 121.999,52.3028 118.5,52C 120.5,51.1667 122.5,50.3333 124.5,49.5C 124.291,48.914 123.957,48.414 123.5,48C 119.854,46.5471 116.188,46.3805 112.5,47.5C 109.491,54.5507 108.325,61.8841 109,69.5C 110.419,71.9929 111.919,74.3263 113.5,76.5C 114.11,77.391 114.443,78.391 114.5,79.5C 115.354,81.035 115.354,82.3684 114.5,83.5C 111.677,79.1951 108.844,74.8618 106,70.5C 105.833,69 105.667,67.5 105.5,66C 106.144,58.5623 107.811,51.3956 110.5,44.5C 111.29,43.3915 111.79,42.0581 112,40.5C 120.977,41.7386 128.477,45.7386 134.5,52.5 Z"/></g>
<g><path style="opacity:1" fill="#51422b" d="M 99.5,36.5 C 97.215,38.1182 95.215,40.1182 93.5,42.5C 92.8728,43.4168 92.5394,44.4168 92.5,45.5C 90.5516,47.3204 89.5516,49.6538 89.5,52.5C 88.2318,50.0948 87.5651,47.4282 87.5,44.5C 89.622,42.9498 91.2886,40.9498 92.5,38.5C 94.5582,37.0669 96.8915,36.4003 99.5,36.5 Z"/></g>
<g><path style="opacity:1" fill="#dadba9" d="M 204.5,-0.5 C 205.5,-0.5 206.5,-0.5 207.5,-0.5C 206.883,1.22917 205.883,2.72917 204.5,4C 199.503,8.26511 194.337,12.4318 189,16.5C 188.667,17.5 188.333,18.5 188,19.5C 187.667,19.1667 187.333,18.8333 187,18.5C 186.667,19.5 186.333,20.5 186,21.5C 185.667,21.1667 185.333,20.8333 185,20.5C 184.61,23.4491 183.11,25.6158 180.5,27C 180.316,31.2764 180.316,35.6097 180.5,40C 181.382,41.9167 182.715,42.9167 184.5,43C 183.873,40.6566 182.873,38.4899 181.5,36.5C 182.365,36.4361 183.365,36.1027 184.5,35.5C 185.731,36.6507 185.731,37.8173 184.5,39C 185.563,40.1882 186.897,40.6882 188.5,40.5C 190.309,45.4865 193.476,49.4865 198,52.5C 198.333,52.1667 198.667,51.8333 199,51.5C 201.191,54.4822 203.524,54.8155 206,52.5C 208.333,52.8333 210.667,53.1667 213,53.5C 221.743,49.5472 230.576,45.7139 239.5,42C 244.798,39.4416 249.631,36.2749 254,32.5C 254.383,33.056 254.883,33.3893 255.5,33.5C 255.5,34.5 255.5,35.5 255.5,36.5C 246.387,41.2563 237.887,46.2563 230,51.5C 226.76,51.6045 223.76,52.9378 221,55.5C 220.439,54.9781 219.772,54.6448 219,54.5C 213.511,58.1467 207.678,60.1467 201.5,60.5C 200.201,59.91 199.368,58.91 199,57.5C 194.772,58.7289 191.439,57.3955 189,53.5C 178.166,46.857 174.666,37.1903 178.5,24.5C 180.719,21.4032 183.386,18.7365 186.5,16.5C 187.386,15.675 187.719,14.675 187.5,13.5C 188.873,13.6567 190.207,13.49 191.5,13C 195.784,8.22039 200.117,3.72039 204.5,-0.5 Z"/></g>
<g><path style="opacity:1" fill="#7b7c7c" d="M 57.5,39.5 C 56.7659,40.7079 56.4326,42.0413 56.5,43.5C 57.8333,44.8333 59.1667,46.1667 60.5,47.5C 60.0618,47.4346 59.7284,47.6012 59.5,48C 62.0807,50.9878 65.414,52.1544 69.5,51.5C 67.3926,52.4682 65.0593,52.8016 62.5,52.5C 52.3707,53.8658 42.3707,55.8658 32.5,58.5C 31.913,57.7666 31.913,56.7666 32.5,55.5C 32.4142,54.5041 32.7476,53.6708 33.5,53C 42.0831,51.4616 50.7497,50.4616 59.5,50C 57.9069,49.0513 56.5736,47.8846 55.5,46.5C 55.9382,46.5654 56.2716,46.3988 56.5,46C 54.8131,44.087 54.3131,41.9203 55,39.5C 55.9772,38.2264 56.8106,38.2264 57.5,39.5 Z"/></g>
<g><path style="opacity:1" fill="#f5f0d0" d="M 178.5,71.5 C 179.847,72.0283 181.181,72.195 182.5,72C 179.489,67.9946 175.489,65.8279 170.5,65.5C 170.657,64.1266 170.49,62.7932 170,61.5C 169.329,62.2524 168.496,62.5858 167.5,62.5C 164.744,59.4847 162.077,56.4847 159.5,53.5C 160.167,53.5 160.833,53.5 161.5,53.5C 162.482,54.1408 163.482,54.8075 164.5,55.5C 165.318,52.8671 166.984,51.7005 169.5,52C 174.402,57.146 179.069,62.4794 183.5,68C 184.448,68.4828 185.448,68.6495 186.5,68.5C 186.393,70.9032 187.393,72.7365 189.5,74C 188.466,76.664 186.8,76.8307 184.5,74.5C 183.914,74.7093 183.414,75.0426 183,75.5C 181.333,74.2668 179.833,72.9335 178.5,71.5 Z"/></g>
<g><path style="opacity:1" fill="#8a6134" d="M 102.5,58.5 C 102.492,61.5448 102.159,64.5448 101.5,67.5C 99.6923,68.3168 98.1923,67.6502 97,65.5C 94.8502,60.8813 93.0169,56.2146 91.5,51.5C 92.4584,51.0472 93.2917,50.3805 94,49.5C 94.3333,50.1667 94.6667,50.8333 95,51.5C 97.7892,48.8709 99.7892,49.5375 101,53.5C 101.333,52.5 101.667,51.5 102,50.5C 102.497,53.146 102.664,55.8127 102.5,58.5 Z"/></g>
<g><path style="opacity:1" fill="#52472f" d="M 123.5,40.5 C 123.833,40.5 124.167,40.5 124.5,40.5C 127.418,42.7508 130.084,45.4175 132.5,48.5C 133.622,49.6302 134.956,50.2969 136.5,50.5C 140.059,55.8798 145.226,58.5465 152,58.5C 154.449,58.3418 156.616,57.6752 158.5,56.5C 158.5,56.8333 158.5,57.1667 158.5,57.5C 158.815,61.3714 158.482,65.0381 157.5,68.5C 156.549,67.0813 156.216,65.4147 156.5,63.5C 157.791,62.4583 157.791,61.2917 156.5,60C 147.876,60.8551 140.543,58.3551 134.5,52.5C 128.477,45.7386 120.977,41.7386 112,40.5C 111.79,42.0581 111.29,43.3915 110.5,44.5C 110.5,42.8333 110.5,41.1667 110.5,39.5C 114.881,39.3718 119.215,39.7051 123.5,40.5 Z"/></g>
<g><path style="opacity:1" fill="#664b2a" d="M 141.5,44.5 C 143.136,45.7489 144.303,47.4156 145,49.5C 145.483,48.552 145.649,47.552 145.5,46.5C 147.265,49.1226 147.932,52.1226 147.5,55.5C 146.127,55.6567 144.793,55.49 143.5,55C 141.304,53.3007 139.304,51.4673 137.5,49.5C 137.5,49.1667 137.5,48.8333 137.5,48.5C 138.498,48.4128 139.665,48.0795 141,47.5C 141.483,46.552 141.649,45.552 141.5,44.5 Z"/></g>
<g><path style="opacity:1" fill="#9c8854" d="M 151.5,42.5 C 152.053,47.482 152.387,52.482 152.5,57.5C 154.685,57.2964 156.685,56.6298 158.5,55.5C 158.5,55.8333 158.5,56.1667 158.5,56.5C 156.616,57.6752 154.449,58.3418 152,58.5C 145.226,58.5465 140.059,55.8798 136.5,50.5C 137.167,50.5 137.5,50.1667 137.5,49.5C 139.304,51.4673 141.304,53.3007 143.5,55C 144.793,55.49 146.127,55.6567 147.5,55.5C 147.932,52.1226 147.265,49.1226 145.5,46.5C 145.672,45.5084 145.338,44.8417 144.5,44.5C 143.082,39.2464 142.082,33.9131 141.5,28.5C 141.435,28.0618 141.601,27.7284 142,27.5C 144.914,34.0727 147.58,40.7393 150,47.5C 150.198,45.6183 150.698,43.9516 151.5,42.5 Z"/></g>
<g><path style="opacity:1" fill="#c5c4a4" d="M 153.5,30.5 C 155.258,30.8769 156.925,31.5435 158.5,32.5C 160.008,37.4473 163.342,40.114 168.5,40.5C 168.491,42.3084 168.991,43.9751 170,45.5C 172.954,47.4746 175.454,49.8079 177.5,52.5C 179.167,54.8333 181.167,56.8333 183.5,58.5C 185.716,62.3077 188.383,65.641 191.5,68.5C 193.238,70.9214 194.571,73.5881 195.5,76.5C 186.357,66.9682 177.19,57.3015 168,47.5C 165.553,48.4056 163.053,49.2389 160.5,50C 160.043,50.414 159.709,50.914 159.5,51.5C 160.243,52.1818 160.909,52.8485 161.5,53.5C 160.833,53.5 160.167,53.5 159.5,53.5C 158.662,53.8417 158.328,54.5084 158.5,55.5C 156.685,56.6298 154.685,57.2964 152.5,57.5C 152.387,52.482 152.053,47.482 151.5,42.5C 151.5,40.1667 151.5,37.8333 151.5,35.5C 152.508,38.0284 154.174,40.1951 156.5,42C 155.551,42.6172 154.718,42.4506 154,41.5C 153.501,45.1516 153.335,48.8183 153.5,52.5C 154.822,52.33 155.989,52.6634 157,53.5C 157.837,51.6494 158.671,49.8161 159.5,48C 162.272,47.4743 164.938,46.6409 167.5,45.5C 162.106,41.1082 157.439,36.1082 153.5,30.5 Z"/></g>
<g><path style="opacity:1" fill="#a1a37c" d="M 255.5,48.5 C 255.5,48.8333 255.5,49.1667 255.5,49.5C 252.21,51.3157 249.544,53.8157 247.5,57C 242.13,59.7885 237.13,63.1218 232.5,67C 231.167,67.3333 229.833,67.6667 228.5,68C 222.82,72.5047 216.82,76.5047 210.5,80C 207.447,80.1786 204.447,80.6786 201.5,81.5C 200.873,82.4168 200.539,83.4168 200.5,84.5C 200.167,84.5 199.833,84.5 199.5,84.5C 199.425,81.7938 199.092,79.1272 198.5,76.5C 205.092,78.4154 210.925,77.0821 216,72.5C 221.603,72.4795 224.77,69.8128 225.5,64.5C 235.54,61.9634 243.873,57.2967 250.5,50.5C 252.022,49.438 253.688,48.7713 255.5,48.5 Z"/></g>
<g><path style="opacity:1" fill="#ccd0da" d="M 69.5,51.5 C 71.1667,51.5 72.8333,51.5 74.5,51.5C 75.552,51.3505 76.552,51.5172 77.5,52C 75.4078,52.9525 75.0745,54.2859 76.5,56C 74.9336,56.6082 73.6002,57.4415 72.5,58.5C 65.7899,58.7758 59.1232,59.4425 52.5,60.5C 50.1992,59.9396 47.8659,59.4396 45.5,59C 51.5589,57.5421 57.2256,55.3754 62.5,52.5C 65.0593,52.8016 67.3926,52.4682 69.5,51.5 Z"/></g>
<g><path style="opacity:1" fill="#26211e" d="M 134.5,52.5 C 140.543,58.3551 147.876,60.8551 156.5,60C 157.791,61.2917 157.791,62.4583 156.5,63.5C 153.842,62.4773 151.175,62.8106 148.5,64.5C 148.5,64.1667 148.5,63.8333 148.5,63.5C 145.218,63.7229 141.885,63.0562 138.5,61.5C 138.822,63.4752 138.822,65.1418 138.5,66.5C 138.167,66.5 137.833,66.5 137.5,66.5C 136.833,65.1667 135.833,64.1667 134.5,63.5C 133.461,61.4689 131.795,60.1355 129.5,59.5C 131.031,58.0755 130.698,57.4088 128.5,57.5C 128.5,56.5 128.5,55.5 128.5,54.5C 128.423,53.2502 127.756,52.4169 126.5,52C 129.192,51.5702 131.859,51.7369 134.5,52.5 Z"/></g>
<g><path style="opacity:1" fill="#cfd09e" d="M 196.5,-0.5 C 199.167,-0.5 201.833,-0.5 204.5,-0.5C 200.117,3.72039 195.784,8.22039 191.5,13C 190.207,13.49 188.873,13.6567 187.5,13.5C 187.719,14.675 187.386,15.675 186.5,16.5C 183.386,18.7365 180.719,21.4032 178.5,24.5C 174.666,37.1903 178.166,46.857 189,53.5C 191.439,57.3955 194.772,58.7289 199,57.5C 199.368,58.91 200.201,59.91 201.5,60.5C 207.678,60.1467 213.511,58.1467 219,54.5C 219.772,54.6448 220.439,54.9781 221,55.5C 223.76,52.9378 226.76,51.6045 230,51.5C 237.887,46.2563 246.387,41.2563 255.5,36.5C 255.5,37.8333 255.5,39.1667 255.5,40.5C 251.08,41.902 246.747,43.7353 242.5,46C 235.045,51.3798 227.379,55.5465 219.5,58.5C 218.289,59.2739 218.289,60.1072 219.5,61C 215.084,62.7296 210.584,64.2296 206,65.5C 198.12,64.8145 190.62,62.4812 183.5,58.5C 181.167,56.8333 179.167,54.8333 177.5,52.5C 178.239,52.631 178.906,52.4643 179.5,52C 176.95,49.4513 174.783,46.6179 173,43.5C 172.441,38.5757 171.607,33.7424 170.5,29C 171.167,28.3333 171.833,27.6667 172.5,27C 171.446,25.6124 171.28,24.1124 172,22.5C 173.308,20.3586 174.808,18.3586 176.5,16.5C 183.57,10.3598 190.237,4.69317 196.5,-0.5 Z"/></g>
<g><path style="opacity:1" fill="#1f4d50" d="M 24.5,43.5 C 24.5,49.1667 24.5,54.8333 24.5,60.5C 22.847,60.6596 21.5137,61.3263 20.5,62.5C 19.5318,64.6074 19.1984,66.9407 19.5,69.5C 22.3356,69.2022 22.8356,69.8689 21,71.5C 20.6667,71.1667 20.3333,70.8333 20,70.5C 17.5378,71.6498 15.2045,72.9831 13,74.5C 12.6667,74.1667 12.3333,73.8333 12,73.5C 10.3523,74.717 8.51898,75.5503 6.5,76C 5.85336,77.6095 5.02003,79.1095 4,80.5C 3.66667,80.1667 3.33333,79.8333 3,79.5C 1.64116,80.365 0.47449,81.365 -0.5,82.5C -0.5,75.8333 -0.5,69.1667 -0.5,62.5C 1.35943,61.4058 3.35943,60.5725 5.5,60C 4.83333,59.6667 4.16667,59.3333 3.5,59C 4.93081,58.5348 6.09748,57.7014 7,56.5C 7.33333,57.1667 7.66667,57.8333 8,58.5C 8.21631,56.6161 8.88298,54.9494 10,53.5C 10.6667,54.8333 11.3333,54.8333 12,53.5C 12.3333,54.1667 12.6667,54.8333 13,55.5C 14.3333,54.1667 15.6667,52.8333 17,51.5C 17.3333,52.1667 17.6667,52.8333 18,53.5C 19.4411,52.7402 20.9411,52.0736 22.5,51.5C 23.1676,48.6944 23.8343,46.0277 24.5,43.5 Z"/></g>
<g><path style="opacity:1" fill="#654a33" d="M 128.5,54.5 C 128.5,55.5 128.5,56.5 128.5,57.5C 123.962,56.8724 120.295,58.3724 117.5,62C 118.066,62.9947 118.733,63.828 119.5,64.5C 119.158,65.3382 118.492,65.6716 117.5,65.5C 116.5,65.5 115.5,65.5 114.5,65.5C 114.011,62.676 112.344,61.3426 109.5,61.5C 109.138,66.0993 110.471,70.0993 113.5,73.5C 113.5,74.5 113.5,75.5 113.5,76.5C 111.919,74.3263 110.419,71.9929 109,69.5C 108.325,61.8841 109.491,54.5507 112.5,47.5C 116.188,46.3805 119.854,46.5471 123.5,48C 123.957,48.414 124.291,48.914 124.5,49.5C 122.5,50.3333 120.5,51.1667 118.5,52C 121.999,52.3028 125.332,53.1362 128.5,54.5 Z"/></g>
<g><path style="opacity:1" fill="#efebd5" d="M 195.5,76.5 C 197.356,78.9897 198.69,81.6563 199.5,84.5C 201.129,86.1959 200.796,87.1959 198.5,87.5C 193.68,84.3233 188.68,81.3233 183.5,78.5C 182.024,76.5 180.191,74.8334 178,73.5C 177.308,72.5632 177.475,71.8966 178.5,71.5C 179.833,72.9335 181.333,74.2668 183,75.5C 183.414,75.0426 183.914,74.7093 184.5,74.5C 186.8,76.8307 188.466,76.664 189.5,74C 187.393,72.7365 186.393,70.9032 186.5,68.5C 185.448,68.6495 184.448,68.4828 183.5,68C 179.069,62.4794 174.402,57.146 169.5,52C 166.984,51.7005 165.318,52.8671 164.5,55.5C 163.482,54.8075 162.482,54.1408 161.5,53.5C 160.909,52.8485 160.243,52.1818 159.5,51.5C 159.709,50.914 160.043,50.414 160.5,50C 163.053,49.2389 165.553,48.4056 168,47.5C 177.19,57.3015 186.357,66.9682 195.5,76.5 Z"/></g>
<g><path style="opacity:1" fill="#b4b8c1" d="M 31.5,28.5 C 32.3764,28.3691 33.0431,28.7025 33.5,29.5C 33.0856,32.0317 32.7523,34.5317 32.5,37C 39.0621,41.7867 38.3955,42.62 30.5,39.5C 30.3341,44.5111 30.5007,49.5111 31,54.5C 31.3826,55.056 31.8826,55.3893 32.5,55.5C 31.913,56.7666 31.913,57.7666 32.5,58.5C 42.3707,55.8658 52.3707,53.8658 62.5,52.5C 57.2256,55.3754 51.5589,57.5421 45.5,59C 47.8659,59.4396 50.1992,59.9396 52.5,60.5C 44.9869,62.3952 37.3203,64.0618 29.5,65.5C 27.2655,65.3801 25.0989,65.7135 23,66.5C 20.9803,65.9681 20.147,64.6348 20.5,62.5C 21.5137,61.3263 22.847,60.6596 24.5,60.5C 25.8221,60.67 26.9887,60.3366 28,59.5C 26.9302,48.8576 28.0969,38.5243 31.5,28.5 Z"/></g>
<g><path style="opacity:1" fill="#63adbc" d="M 159.5,53.5 C 162.077,56.4847 164.744,59.4847 167.5,62.5C 167.5,63.8333 166.833,64.5 165.5,64.5C 164.167,64.1667 162.833,63.8333 161.5,63.5C 161.5,63.1667 161.5,62.8333 161.5,62.5C 161.047,60.4348 160.047,58.7682 158.5,57.5C 158.5,57.1667 158.5,56.8333 158.5,56.5C 158.5,56.1667 158.5,55.8333 158.5,55.5C 158.328,54.5084 158.662,53.8417 159.5,53.5 Z"/></g>
<g><path style="opacity:1" fill="#4d4638" d="M 85.5,57.5 C 82.7587,61.3086 80.2587,65.3086 78,69.5C 77.5831,68.244 76.7498,67.5774 75.5,67.5C 71.5,67.5 67.5,67.5 63.5,67.5C 64.0283,66.2794 64.695,65.1127 65.5,64C 69.2492,61.479 73.2492,59.6457 77.5,58.5C 80.0961,57.7347 82.7628,57.4013 85.5,57.5 Z"/></g>
<g><path style="opacity:1" fill="#657379" d="M 129.5,59.5 C 131.795,60.1355 133.461,61.4689 134.5,63.5C 134.631,64.2389 134.464,64.9056 134,65.5C 129.79,65.6715 125.623,65.3382 121.5,64.5C 121.694,62.0882 123.027,61.0882 125.5,61.5C 125.5,60.5 125.5,59.5 125.5,58.5C 126.959,58.4326 128.292,58.7659 129.5,59.5 Z"/></g>
<g><path style="opacity:1" fill="#d8e6f0" d="M 125.5,61.5 C 126.5,61.5 127.5,61.5 128.5,61.5C 128.5,62.5 128.5,63.5 128.5,64.5C 127.5,64.5 126.5,64.5 125.5,64.5C 125.5,63.5 125.5,62.5 125.5,61.5 Z"/></g>
<g><path style="opacity:1" fill="#c2c496" d="M 255.5,40.5 C 255.5,42.1667 255.5,43.8333 255.5,45.5C 240.613,53.5546 225.613,61.3879 210.5,69C 204.085,69.7902 197.752,69.6235 191.5,68.5C 188.383,65.641 185.716,62.3077 183.5,58.5C 190.62,62.4812 198.12,64.8145 206,65.5C 210.584,64.2296 215.084,62.7296 219.5,61C 218.289,60.1072 218.289,59.2739 219.5,58.5C 227.379,55.5465 235.045,51.3798 242.5,46C 246.747,43.7353 251.08,41.902 255.5,40.5 Z"/></g>
<g><path style="opacity:1" fill="#3f4142" d="M 72.5,58.5 C 74.1667,58.5 75.8333,58.5 77.5,58.5C 73.2492,59.6457 69.2492,61.479 65.5,64C 64.695,65.1127 64.0283,66.2794 63.5,67.5C 62.5,67.5 61.5,67.5 60.5,67.5C 49.495,67.6665 38.495,67.4998 27.5,67C 28.4158,66.7216 29.0825,66.2216 29.5,65.5C 37.3203,64.0618 44.9869,62.3952 52.5,60.5C 59.1232,59.4425 65.7899,58.7758 72.5,58.5 Z"/></g>
<g><path style="opacity:1" fill="#454844" d="M 128.5,57.5 C 130.698,57.4088 131.031,58.0755 129.5,59.5C 128.292,58.7659 126.959,58.4326 125.5,58.5C 125.5,59.5 125.5,60.5 125.5,61.5C 123.027,61.0882 121.694,62.0882 121.5,64.5C 120.833,64.5 120.167,64.5 119.5,64.5C 118.733,63.828 118.066,62.9947 117.5,62C 120.295,58.3724 123.962,56.8724 128.5,57.5 Z"/></g>
<g><path style="opacity:1" fill="#586464" d="M 156.5,63.5 C 156.216,65.4147 156.549,67.0813 157.5,68.5C 158.573,70.6531 158.573,72.6531 157.5,74.5C 153.078,72.4134 150.078,69.08 148.5,64.5C 151.175,62.8106 153.842,62.4773 156.5,63.5 Z"/></g>
<g><path style="opacity:1" fill="#463529" d="M 148.5,63.5 C 146.952,63.8212 146.285,64.8212 146.5,66.5C 148.081,70.9234 146.415,72.5901 141.5,71.5C 141.771,69.6203 141.104,68.287 139.5,67.5C 138.833,67.5 138.5,67.1667 138.5,66.5C 138.822,65.1418 138.822,63.4752 138.5,61.5C 141.885,63.0562 145.218,63.7229 148.5,63.5 Z"/></g>
<g><path style="opacity:1" fill="#dfe0dc" d="M 161.5,63.5 C 162.833,63.8333 164.167,64.1667 165.5,64.5C 169.132,64.7987 171.132,66.7987 171.5,70.5C 169.833,70.5 168.167,70.5 166.5,70.5C 165.167,70.1667 163.833,69.8333 162.5,69.5C 161.659,67.6208 161.325,65.6208 161.5,63.5 Z"/></g>
<g><path style="opacity:1" fill="#cfccbb" d="M 178.5,71.5 C 177.475,71.8966 177.308,72.5632 178,73.5C 180.191,74.8334 182.024,76.5 183.5,78.5C 177.966,75.4717 172.3,72.8051 166.5,70.5C 168.167,70.5 169.833,70.5 171.5,70.5C 171.132,66.7987 169.132,64.7987 165.5,64.5C 166.833,64.5 167.5,63.8333 167.5,62.5C 168.496,62.5858 169.329,62.2524 170,61.5C 170.49,62.7932 170.657,64.1266 170.5,65.5C 175.489,65.8279 179.489,67.9946 182.5,72C 181.181,72.195 179.847,72.0283 178.5,71.5 Z"/></g>
<g><path style="opacity:1" fill="#5d4729" d="M 89.5,60.5 C 88.3166,63.7037 86.9832,66.8703 85.5,70C 87.689,70.677 88.0224,71.8437 86.5,73.5C 87.5439,76.5085 89.3772,78.8418 92,80.5C 92.8624,82.087 93.5291,83.7536 94,85.5C 94.3333,85.1667 94.6667,84.8333 95,84.5C 97.283,87.4246 99.783,90.0913 102.5,92.5C 98.93,93.1144 98.5966,94.4477 101.5,96.5C 102.478,96.0233 103.311,95.3567 104,94.5C 104.39,96.4216 105.39,98.4216 107,100.5C 110.944,101.943 113.777,104.609 115.5,108.5C 116.251,107.624 116.751,106.624 117,105.5C 118.522,107.741 119.855,110.074 121,112.5C 121.464,111.906 121.631,111.239 121.5,110.5C 121.833,110.5 122.167,110.5 122.5,110.5C 122.5,111.5 122.5,112.5 122.5,113.5C 120.309,112.709 118.309,112.709 116.5,113.5C 114.167,112.167 111.833,110.833 109.5,109.5C 107.777,107.782 105.777,106.449 103.5,105.5C 100.124,102.122 96.4572,99.1218 92.5,96.5C 88.8627,93.694 85.6961,90.3607 83,86.5C 81.964,84.1299 81.464,81.6299 81.5,79C 82.6325,74.2462 83.7992,69.4128 85,64.5C 86.3073,62.8082 87.8073,61.4749 89.5,60.5 Z"/></g>
<g><path style="opacity:1" fill="#b3c0c7" d="M 152.5,65.5 C 153.5,65.5 154.5,65.5 155.5,65.5C 155.5,66.5 155.5,67.5 155.5,68.5C 154.5,68.5 153.5,68.5 152.5,68.5C 152.5,67.5 152.5,66.5 152.5,65.5 Z"/></g>
<g><path style="opacity:1" fill="#969772" d="M 255.5,49.5 C 255.5,52.1667 255.5,54.8333 255.5,57.5C 249.807,60.4614 243.807,62.9614 237.5,65C 228.806,70.6766 220.14,76.3433 211.5,82C 209.888,82.7203 208.388,82.5536 207,81.5C 204.883,82.1802 202.717,83.1802 200.5,84.5C 200.539,83.4168 200.873,82.4168 201.5,81.5C 204.447,80.6786 207.447,80.1786 210.5,80C 216.82,76.5047 222.82,72.5047 228.5,68C 229.833,67.6667 231.167,67.3333 232.5,67C 237.13,63.1218 242.13,59.7885 247.5,57C 249.544,53.8157 252.21,51.3157 255.5,49.5 Z"/></g>
<g><path style="opacity:1" fill="#636556" d="M 134.5,63.5 C 135.833,64.1667 136.833,65.1667 137.5,66.5C 135.952,66.8212 135.285,67.8212 135.5,69.5C 131.102,69.7059 126.768,69.3726 122.5,68.5C 120.632,67.7368 118.965,66.7368 117.5,65.5C 118.492,65.6716 119.158,65.3382 119.5,64.5C 120.167,64.5 120.833,64.5 121.5,64.5C 125.623,65.3382 129.79,65.6715 134,65.5C 134.464,64.9056 134.631,64.2389 134.5,63.5 Z"/></g>
<g><path style="opacity:1" fill="#b0b288" d="M 255.5,45.5 C 255.5,46.5 255.5,47.5 255.5,48.5C 253.688,48.7713 252.022,49.438 250.5,50.5C 243.873,57.2967 235.54,61.9634 225.5,64.5C 224.77,69.8128 221.603,72.4795 216,72.5C 210.925,77.0821 205.092,78.4154 198.5,76.5C 199.092,79.1272 199.425,81.7938 199.5,84.5C 198.69,81.6563 197.356,78.9897 195.5,76.5C 194.571,73.5881 193.238,70.9214 191.5,68.5C 197.752,69.6235 204.085,69.7902 210.5,69C 225.613,61.3879 240.613,53.5546 255.5,45.5 Z"/></g>
<g><path style="opacity:1" fill="#7b6b57" d="M 137.5,66.5 C 137.833,66.5 138.167,66.5 138.5,66.5C 138.5,67.1667 138.833,67.5 139.5,67.5C 140.039,71.4157 138.706,74.4157 135.5,76.5C 135.5,76.1667 135.5,75.8333 135.5,75.5C 135.302,69.7377 133.302,69.0711 129.5,73.5C 128.614,72.675 128.281,71.675 128.5,70.5C 125.99,70.9465 123.99,70.2798 122.5,68.5C 126.768,69.3726 131.102,69.7059 135.5,69.5C 135.285,67.8212 135.952,66.8212 137.5,66.5 Z"/></g>
<g><path style="opacity:1" fill="#3d311f" d="M 85.5,57.5 C 86.8333,57.5 88.1667,57.5 89.5,57.5C 90.625,58.3478 90.625,59.3478 89.5,60.5C 87.8073,61.4749 86.3073,62.8082 85,64.5C 83.7992,69.4128 82.6325,74.2462 81.5,79C 81.464,81.6299 81.964,84.1299 83,86.5C 85.6961,90.3607 88.8627,93.694 92.5,96.5C 91.5084,96.3284 90.8417,96.6618 90.5,97.5C 88.6284,96.4886 86.6284,95.6552 84.5,95C 79.6549,91.6436 74.9883,88.1436 70.5,84.5C 70.1667,83.5 69.5,82.8333 68.5,82.5C 68.3297,79.5095 69.663,77.5095 72.5,76.5C 71.3505,73.4415 72.0172,70.7748 74.5,68.5C 75.1667,68.5 75.5,68.1667 75.5,67.5C 76.7498,67.5774 77.5831,68.244 78,69.5C 80.2587,65.3086 82.7587,61.3086 85.5,57.5 Z"/></g>
<g><path style="opacity:1" fill="#544026" d="M 104.5,55.5 C 103.578,60.4724 103.412,65.4724 104,70.5C 106.667,74.5 109.333,78.5 112,82.5C 112.718,89.7091 114.218,96.7091 116.5,103.5C 114.641,101.383 113.141,98.3831 112,94.5C 112.402,86.2238 109.569,79.3904 103.5,74C 102.391,71.9534 101.724,69.7867 101.5,67.5C 102.159,64.5448 102.492,61.5448 102.5,58.5C 103.001,56.754 103.668,55.754 104.5,55.5 Z"/></g>
<g><path style="opacity:1" fill="#67452f" d="M 146.5,66.5 C 147.906,66.9731 148.573,67.9731 148.5,69.5C 148.586,70.4959 148.252,71.3292 147.5,72C 143.106,71.503 140.772,73.3363 140.5,77.5C 145.251,76.8054 149.917,76.8054 154.5,77.5C 152.882,78.4511 151.549,79.7844 150.5,81.5C 149.614,80.675 149.281,79.675 149.5,78.5C 147.396,78.2011 145.396,78.5344 143.5,79.5C 145.29,81.3157 147.29,82.6491 149.5,83.5C 146.15,83.665 142.817,83.4983 139.5,83C 137.561,81.5679 136.228,79.7346 135.5,77.5C 135.5,77.1667 135.5,76.8333 135.5,76.5C 138.706,74.4157 140.039,71.4157 139.5,67.5C 141.104,68.287 141.771,69.6203 141.5,71.5C 146.415,72.5901 148.081,70.9234 146.5,66.5 Z"/></g>
<g><path style="opacity:1" fill="#cdc2a6" d="M 148.5,63.5 C 148.5,63.8333 148.5,64.1667 148.5,64.5C 150.078,69.08 153.078,72.4134 157.5,74.5C 157.672,75.4916 157.338,76.1583 156.5,76.5C 154.86,75.6799 153.193,74.8466 151.5,74C 150.947,72.1222 149.947,70.6222 148.5,69.5C 148.573,67.9731 147.906,66.9731 146.5,66.5C 146.285,64.8212 146.952,63.8212 148.5,63.5 Z"/></g>
<g><path style="opacity:1" fill="#97765b" d="M 148.5,69.5 C 149.947,70.6222 150.947,72.1222 151.5,74C 153.193,74.8466 154.86,75.6799 156.5,76.5C 156.5,76.8333 156.5,77.1667 156.5,77.5C 155.833,77.5 155.167,77.5 154.5,77.5C 149.917,76.8054 145.251,76.8054 140.5,77.5C 140.772,73.3363 143.106,71.503 147.5,72C 148.252,71.3292 148.586,70.4959 148.5,69.5 Z"/></g>
<g><path style="opacity:1" fill="#93826c" d="M 158.5,57.5 C 160.047,58.7682 161.047,60.4348 161.5,62.5C 160.223,63.6936 159.556,65.3603 159.5,67.5C 160.65,72.5256 160.65,77.5256 159.5,82.5C 158.5,82.5 157.5,82.5 156.5,82.5C 156.5,83.8333 156.5,85.1667 156.5,86.5C 155.566,85.4324 155.232,84.099 155.5,82.5C 156.301,80.9582 156.634,79.2915 156.5,77.5C 156.5,77.1667 156.5,76.8333 156.5,76.5C 157.338,76.1583 157.672,75.4916 157.5,74.5C 158.573,72.6531 158.573,70.6531 157.5,68.5C 158.482,65.0381 158.815,61.3714 158.5,57.5 Z"/></g>
<g><path style="opacity:1" fill="#a4846e" d="M 114.5,65.5 C 115.5,65.5 116.5,65.5 117.5,65.5C 118.965,66.7368 120.632,67.7368 122.5,68.5C 123.99,70.2798 125.99,70.9465 128.5,70.5C 128.281,71.675 128.614,72.675 129.5,73.5C 133.302,69.0711 135.302,69.7377 135.5,75.5C 133.114,76.3733 131.114,77.8733 129.5,80C 128.5,80.6667 127.5,80.6667 126.5,80C 125.426,77.544 124.426,75.044 123.5,72.5C 118.295,72.731 114.295,70.731 111.5,66.5C 112.325,65.6143 113.325,65.281 114.5,65.5 Z"/></g>
<g><path style="opacity:1" fill="#295e60" d="M 20.5,62.5 C 20.147,64.6348 20.9803,65.9681 23,66.5C 25.0989,65.7135 27.2655,65.3801 29.5,65.5C 29.0825,66.2216 28.4158,66.7216 27.5,67C 38.495,67.4998 49.495,67.6665 60.5,67.5C 55.6511,68.1665 50.6511,68.8332 45.5,69.5C 45.0814,70.6721 44.4147,71.6721 43.5,72.5C 39.9277,73.7514 36.5943,75.4181 33.5,77.5C 33.0618,77.5654 32.7284,77.3988 32.5,77C 33.3279,76.0853 34.3279,75.4186 35.5,75C 33.0973,71.8221 31.264,71.9887 30,75.5C 29.6667,75.1667 29.3333,74.8333 29,74.5C 27.6646,76.6048 25.9979,77.2714 24,76.5C 19.453,80.0863 14.7864,82.7529 10,84.5C 9.55815,86.6785 8.55815,87.3452 7,86.5C 4.60039,88.4146 2.10039,90.0812 -0.5,91.5C -0.5,88.5 -0.5,85.5 -0.5,82.5C 0.47449,81.365 1.64116,80.365 3,79.5C 3.33333,79.8333 3.66667,80.1667 4,80.5C 5.02003,79.1095 5.85336,77.6095 6.5,76C 8.51898,75.5503 10.3523,74.717 12,73.5C 12.3333,73.8333 12.6667,74.1667 13,74.5C 15.2045,72.9831 17.5378,71.6498 20,70.5C 20.3333,70.8333 20.6667,71.1667 21,71.5C 22.8356,69.8689 22.3356,69.2022 19.5,69.5C 19.1984,66.9407 19.5318,64.6074 20.5,62.5 Z"/></g>
<g><path style="opacity:1" fill="#684c2c" d="M 92.5,45.5 C 91.8505,47.4352 91.5172,49.4352 91.5,51.5C 93.0169,56.2146 94.8502,60.8813 97,65.5C 98.1923,67.6502 99.6923,68.3168 101.5,67.5C 101.724,69.7867 102.391,71.9534 103.5,74C 109.569,79.3904 112.402,86.2238 112,94.5C 113.141,98.3831 114.641,101.383 116.5,103.5C 117.925,105.031 118.591,104.698 118.5,102.5C 119.488,105.081 120.488,107.748 121.5,110.5C 121.631,111.239 121.464,111.906 121,112.5C 119.855,110.074 118.522,107.741 117,105.5C 116.751,106.624 116.251,107.624 115.5,108.5C 113.777,104.609 110.944,101.943 107,100.5C 105.39,98.4216 104.39,96.4216 104,94.5C 103.311,95.3567 102.478,96.0233 101.5,96.5C 98.5966,94.4477 98.93,93.1144 102.5,92.5C 99.783,90.0913 97.283,87.4246 95,84.5C 94.6667,84.8333 94.3333,85.1667 94,85.5C 93.5291,83.7536 92.8624,82.087 92,80.5C 89.3772,78.8418 87.5439,76.5085 86.5,73.5C 88.0224,71.8437 87.689,70.677 85.5,70C 86.9832,66.8703 88.3166,63.7037 89.5,60.5C 90.625,59.3478 90.625,58.3478 89.5,57.5C 89.5,55.8333 89.5,54.1667 89.5,52.5C 89.5516,49.6538 90.5516,47.3204 92.5,45.5 Z"/></g>
<g><path style="opacity:1" fill="#3e3f3c" d="M 162.5,69.5 C 163.833,69.8333 165.167,70.1667 166.5,70.5C 172.3,72.8051 177.966,75.4717 183.5,78.5C 188.68,81.3233 193.68,84.3233 198.5,87.5C 197.833,87.5 197.167,87.5 196.5,87.5C 190.19,86.4079 183.856,85.4079 177.5,84.5C 172.798,84.0496 168.132,83.383 163.5,82.5C 163.802,79.9407 163.468,77.6074 162.5,75.5C 162.5,73.5 162.5,71.5 162.5,69.5 Z"/></g>
<g><path style="opacity:1" fill="#4e786e" d="M 60.5,67.5 C 61.5,67.5 62.5,67.5 63.5,67.5C 67.5,67.5 71.5,67.5 75.5,67.5C 75.5,68.1667 75.1667,68.5 74.5,68.5C 68.1708,68.9008 62.1708,70.5674 56.5,73.5C 53.959,75.9092 52.6257,78.5758 52.5,81.5C 49.5751,83.0036 46.9084,84.0036 44.5,84.5C 41.5689,85.9559 40.9022,85.1226 42.5,82C 42,81.8333 41.5,81.6667 41,81.5C 39.85,82.4239 38.85,82.4239 38,81.5C 37.6667,82.5 37.3333,83.5 37,84.5C 36.0138,83.8288 34.8471,83.8288 33.5,84.5C 34.7401,83.027 35.7401,81.3604 36.5,79.5C 35.3984,78.8243 34.3984,78.1577 33.5,77.5C 36.5943,75.4181 39.9277,73.7514 43.5,72.5C 44.4147,71.6721 45.0814,70.6721 45.5,69.5C 50.6511,68.8332 55.6511,68.1665 60.5,67.5 Z"/></g>
<g><path style="opacity:1" fill="#8a684e" d="M 114.5,65.5 C 113.325,65.281 112.325,65.6143 111.5,66.5C 114.295,70.731 118.295,72.731 123.5,72.5C 124.426,75.044 125.426,77.544 126.5,80C 127.5,80.6667 128.5,80.6667 129.5,80C 131.114,77.8733 133.114,76.3733 135.5,75.5C 135.5,75.8333 135.5,76.1667 135.5,76.5C 135.5,76.8333 135.5,77.1667 135.5,77.5C 132.381,80.3325 129.381,83.3325 126.5,86.5C 122.165,84.2057 119.498,80.5391 118.5,75.5C 118.709,74.914 119.043,74.414 119.5,74C 117.527,73.5045 115.527,73.3379 113.5,73.5C 110.471,70.0993 109.138,66.0993 109.5,61.5C 112.344,61.3426 114.011,62.676 114.5,65.5 Z"/></g>
<g><path style="opacity:1" fill="#4c3121" d="M 154.5,77.5 C 155.167,77.5 155.833,77.5 156.5,77.5C 156.634,79.2915 156.301,80.9582 155.5,82.5C 153.652,85.4785 151.652,85.8118 149.5,83.5C 147.29,82.6491 145.29,81.3157 143.5,79.5C 145.396,78.5344 147.396,78.2011 149.5,78.5C 149.281,79.675 149.614,80.675 150.5,81.5C 151.549,79.7844 152.882,78.4511 154.5,77.5 Z"/></g>
<g><path style="opacity:1" fill="#668d7d" d="M 74.5,68.5 C 72.0172,70.7748 71.3505,73.4415 72.5,76.5C 69.663,77.5095 68.3297,79.5095 68.5,82.5C 67.1047,84.6926 66.1047,87.0259 65.5,89.5C 65.6641,86.8127 65.4974,84.146 65,81.5C 61.3333,85.5 57.6667,89.5 54,93.5C 53.51,94.7932 53.3433,96.1266 53.5,97.5C 48.8333,97.5 44.1667,97.5 39.5,97.5C 39.5,97.1667 39.5,96.8333 39.5,96.5C 40.8081,92.3624 42.4748,88.3624 44.5,84.5C 46.9084,84.0036 49.5751,83.0036 52.5,81.5C 52.6257,78.5758 53.959,75.9092 56.5,73.5C 62.1708,70.5674 68.1708,68.9008 74.5,68.5 Z"/></g>
<g><path style="opacity:1" fill="#969f80" d="M 162.5,75.5 C 163.468,77.6074 163.802,79.9407 163.5,82.5C 168.132,83.383 172.798,84.0496 177.5,84.5C 177.611,85.1174 177.944,85.6174 178.5,86C 177.151,86.7724 176.318,87.9391 176,89.5C 175.586,89.0426 175.086,88.7093 174.5,88.5C 173.251,90.4755 171.751,90.8088 170,89.5C 169.692,90.3081 169.192,90.9747 168.5,91.5C 167.575,90.3595 166.741,90.3595 166,91.5C 163.477,95.7052 162.977,100.039 164.5,104.5C 164.5,106.5 164.5,108.5 164.5,110.5C 161.71,108.72 159.71,106.387 158.5,103.5C 162.055,94.6992 163.388,85.3658 162.5,75.5 Z"/></g>
<g><path style="opacity:1" fill="#e4dbb8" d="M 161.5,62.5 C 161.5,62.8333 161.5,63.1667 161.5,63.5C 161.325,65.6208 161.659,67.6208 162.5,69.5C 162.5,71.5 162.5,73.5 162.5,75.5C 163.388,85.3658 162.055,94.6992 158.5,103.5C 158.5,101.167 158.5,98.8333 158.5,96.5C 158.69,92.9682 158.023,89.6348 156.5,86.5C 156.5,85.1667 156.5,83.8333 156.5,82.5C 157.5,82.5 158.5,82.5 159.5,82.5C 160.65,77.5256 160.65,72.5256 159.5,67.5C 159.556,65.3603 160.223,63.6936 161.5,62.5 Z"/></g>
<g><path style="opacity:1" fill="#808667" d="M 255.5,57.5 C 255.5,59.1667 255.5,60.8333 255.5,62.5C 251.351,64.7216 247.351,67.2216 243.5,70C 239.353,69.8145 236.52,71.6479 235,75.5C 233.251,74.701 231.918,75.3676 231,77.5C 229.493,76.4652 227.993,76.6319 226.5,78C 220.601,85.1911 213.101,90.0244 204,92.5C 200.811,94.991 197.644,97.3244 194.5,99.5C 192.089,100.268 189.756,100.602 187.5,100.5C 186.016,99.5267 185.516,98.1933 186,96.5C 186.333,96.8333 186.667,97.1667 187,97.5C 188.31,94.5268 190.31,92.1935 193,90.5C 193.333,90.8333 193.667,91.1667 194,91.5C 194.662,90.0161 195.496,88.6828 196.5,87.5C 197.167,87.5 197.833,87.5 198.5,87.5C 200.796,87.1959 201.129,86.1959 199.5,84.5C 199.833,84.5 200.167,84.5 200.5,84.5C 202.717,83.1802 204.883,82.1802 207,81.5C 208.388,82.5536 209.888,82.7203 211.5,82C 220.14,76.3433 228.806,70.6766 237.5,65C 243.807,62.9614 249.807,60.4614 255.5,57.5 Z"/></g>
<g><path style="opacity:1" fill="#5e493c" d="M 155.5,82.5 C 155.232,84.099 155.566,85.4324 156.5,86.5C 158.023,89.6348 158.69,92.9682 158.5,96.5C 158.167,96.5 157.833,96.5 157.5,96.5C 157.5,94.8333 157.5,93.1667 157.5,91.5C 155.61,91.7035 154.11,91.0368 153,89.5C 151.951,90.5171 150.784,90.6838 149.5,90C 148.402,89.2303 148.402,88.397 149.5,87.5C 149.926,86.4721 149.926,85.1388 149.5,83.5C 151.652,85.8118 153.652,85.4785 155.5,82.5 Z"/></g>
<g><path style="opacity:1" fill="#5c6049" d="M 255.5,64.5 C 255.5,67.1667 255.5,69.8333 255.5,72.5C 249.898,75.3064 244.565,78.6397 239.5,82.5C 236.165,86.2372 231.832,89.4038 226.5,92C 227.258,93.3639 226.758,94.5305 225,95.5C 224.667,95.1667 224.333,94.8333 224,94.5C 219.954,98.0861 215.454,101.086 210.5,103.5C 209.817,103.137 209.15,102.804 208.5,102.5C 207.833,102.5 207.5,102.167 207.5,101.5C 207.5,100.167 207.5,98.8333 207.5,97.5C 210.024,97.5713 212.024,96.5713 213.5,94.5C 215.214,95.6085 215.881,94.9418 215.5,92.5C 217.143,92.5198 218.476,91.8532 219.5,90.5C 220.086,90.7093 220.586,91.0426 221,91.5C 222.332,90.8384 223.498,89.6718 224.5,88C 226.256,87.7978 227.922,87.2978 229.5,86.5C 237.237,78.0982 245.904,70.7649 255.5,64.5 Z"/></g>
<g><path style="opacity:1" fill="#76a18f" d="M 65.5,89.5 C 64.9431,94.1646 63.6098,98.4979 61.5,102.5C 60.7261,101.853 59.7261,101.52 58.5,101.5C 56.6305,102.068 54.7972,102.734 53,103.5C 47.4912,100.39 41.6578,99.7229 35.5,101.5C 35.5,100.5 35.5,99.5 35.5,98.5C 37.099,98.7678 38.4324,98.4345 39.5,97.5C 44.1667,97.5 48.8333,97.5 53.5,97.5C 53.3433,96.1266 53.51,94.7932 54,93.5C 57.6667,89.5 61.3333,85.5 65,81.5C 65.4974,84.146 65.6641,86.8127 65.5,89.5 Z"/></g>
<g><path style="opacity:1" fill="#59564e" d="M 71.5,86.5 C 72.9063,86.9731 73.573,87.9731 73.5,89.5C 73.4729,91.1993 72.8062,92.5326 71.5,93.5C 68.1252,91.4096 66.9586,88.4096 68,84.5C 68.7393,86.2205 69.5726,87.8872 70.5,89.5C 71.3857,88.675 71.719,87.675 71.5,86.5 Z"/></g>
<g><path style="opacity:1" fill="#755642" d="M 113.5,73.5 C 115.527,73.3379 117.527,73.5045 119.5,74C 119.043,74.414 118.709,74.914 118.5,75.5C 119.498,80.5391 122.165,84.2057 126.5,86.5C 129.381,83.3325 132.381,80.3325 135.5,77.5C 136.228,79.7346 137.561,81.5679 139.5,83C 142.817,83.4983 146.15,83.665 149.5,83.5C 149.926,85.1388 149.926,86.4721 149.5,87.5C 146.951,87.3874 144.618,88.0541 142.5,89.5C 140.96,91.4372 138.96,92.6039 136.5,93C 139.167,93.6667 139.167,94.3333 136.5,95C 138.576,96.6933 140.909,97.36 143.5,97C 142.289,96.1072 142.289,95.2739 143.5,94.5C 147.442,93.4001 151.442,93.2334 155.5,94C 156.066,94.9947 156.733,95.828 157.5,96.5C 157.946,99.0101 157.28,101.01 155.5,102.5C 155.5,101.167 155.5,99.8333 155.5,98.5C 152.751,98.7261 150.084,98.3928 147.5,97.5C 146.755,99.7471 145.422,101.58 143.5,103C 146.365,103.183 149.031,103.683 151.5,104.5C 148.833,104.5 146.167,104.5 143.5,104.5C 141.213,103.381 139.379,101.715 138,99.5C 137.667,99.8333 137.333,100.167 137,100.5C 135.601,99.7734 134.101,99.2734 132.5,99C 129.43,97.0596 126.43,95.2263 123.5,93.5C 123.481,91.9397 123.148,90.4397 122.5,89C 119.92,85.7454 117.253,82.5788 114.5,79.5C 114.443,78.391 114.11,77.391 113.5,76.5C 113.5,75.5 113.5,74.5 113.5,73.5 Z"/></g>
<g><path style="opacity:1" fill="#2f6c6f" d="M 33.5,77.5 C 34.3984,78.1577 35.3984,78.8243 36.5,79.5C 35.7401,81.3604 34.7401,83.027 33.5,84.5C 31.9249,88.2733 29.2583,89.9399 25.5,89.5C 25.5105,90.4415 25.0105,91.1081 24,91.5C 23.228,91.3552 22.5613,91.0219 22,90.5C 20.2382,92.463 18.5715,93.7963 17,94.5C 16.6667,93.5 16.3333,92.5 16,91.5C 15.3333,92.8333 14.6667,92.8333 14,91.5C 9.96025,96.2929 5.12692,99.9596 -0.5,102.5C -0.5,98.8333 -0.5,95.1667 -0.5,91.5C 2.10039,90.0812 4.60039,88.4146 7,86.5C 8.55815,87.3452 9.55815,86.6785 10,84.5C 14.7864,82.7529 19.453,80.0863 24,76.5C 25.9979,77.2714 27.6646,76.6048 29,74.5C 29.3333,74.8333 29.6667,75.1667 30,75.5C 31.264,71.9887 33.0973,71.8221 35.5,75C 34.3279,75.4186 33.3279,76.0853 32.5,77C 32.7284,77.3988 33.0618,77.5654 33.5,77.5 Z"/></g>
<g><path style="opacity:1" fill="#4a3023" d="M 149.5,87.5 C 148.402,88.397 148.402,89.2303 149.5,90C 150.784,90.6838 151.951,90.5171 153,89.5C 154.11,91.0368 155.61,91.7035 157.5,91.5C 157.5,93.1667 157.5,94.8333 157.5,96.5C 156.733,95.828 156.066,94.9947 155.5,94C 151.442,93.2334 147.442,93.4001 143.5,94.5C 142.289,95.2739 142.289,96.1072 143.5,97C 140.909,97.36 138.576,96.6933 136.5,95C 139.167,94.3333 139.167,93.6667 136.5,93C 138.96,92.6039 140.96,91.4372 142.5,89.5C 144.618,88.0541 146.951,87.3874 149.5,87.5 Z"/></g>
<g><path style="opacity:1" fill="#604833" d="M 114.5,79.5 C 117.253,82.5788 119.92,85.7454 122.5,89C 123.148,90.4397 123.481,91.9397 123.5,93.5C 126.43,95.2263 129.43,97.0596 132.5,99C 134.101,99.2734 135.601,99.7734 137,100.5C 137.333,100.167 137.667,99.8333 138,99.5C 139.379,101.715 141.213,103.381 143.5,104.5C 143.5,104.833 143.5,105.167 143.5,105.5C 141.321,106.059 139.154,106.726 137,107.5C 133.96,105.426 130.627,104.093 127,103.5C 126.51,104.793 126.343,106.127 126.5,107.5C 123.763,103.526 120.93,99.5259 118,95.5C 117.899,92.3004 117.232,89.3004 116,86.5C 115.536,87.0944 115.369,87.7611 115.5,88.5C 114.549,87.0813 114.216,85.4147 114.5,83.5C 115.354,82.3684 115.354,81.035 114.5,79.5 Z"/></g>
<g><path style="opacity:1" fill="#3c7c7d" d="M 44.5,84.5 C 42.4748,88.3624 40.8081,92.3624 39.5,96.5C 35.8183,96.3347 32.1516,96.5014 28.5,97C 25.8742,99.1457 22.8742,100.479 19.5,101C 14.2453,107.247 7.57865,110.747 -0.5,111.5C -0.5,108.5 -0.5,105.5 -0.5,102.5C 5.12692,99.9596 9.96025,96.2929 14,91.5C 14.6667,92.8333 15.3333,92.8333 16,91.5C 16.3333,92.5 16.6667,93.5 17,94.5C 18.5715,93.7963 20.2382,92.463 22,90.5C 22.5613,91.0219 23.228,91.3552 24,91.5C 25.0105,91.1081 25.5105,90.4415 25.5,89.5C 29.2583,89.9399 31.9249,88.2733 33.5,84.5C 34.8471,83.8288 36.0138,83.8288 37,84.5C 37.3333,83.5 37.6667,82.5 38,81.5C 38.85,82.4239 39.85,82.4239 41,81.5C 41.5,81.6667 42,81.8333 42.5,82C 40.9022,85.1226 41.5689,85.9559 44.5,84.5 Z"/></g>
<g><path style="opacity:1" fill="#818e70" d="M 177.5,84.5 C 183.856,85.4079 190.19,86.4079 196.5,87.5C 195.496,88.6828 194.662,90.0161 194,91.5C 193.667,91.1667 193.333,90.8333 193,90.5C 190.31,92.1935 188.31,94.5268 187,97.5C 186.667,97.1667 186.333,96.8333 186,96.5C 185.516,98.1933 186.016,99.5267 187.5,100.5C 185.028,102.5 182.862,104.833 181,107.5C 174.884,104.254 171.051,105.92 169.5,112.5C 167.465,110.062 165.799,107.395 164.5,104.5C 162.977,100.039 163.477,95.7052 166,91.5C 166.741,90.3595 167.575,90.3595 168.5,91.5C 169.192,90.9747 169.692,90.3081 170,89.5C 171.751,90.8088 173.251,90.4755 174.5,88.5C 175.086,88.7093 175.586,89.0426 176,89.5C 176.318,87.9391 177.151,86.7724 178.5,86C 177.944,85.6174 177.611,85.1174 177.5,84.5 Z"/></g>
<g><path style="opacity:1" fill="#797258" d="M 92.5,96.5 C 96.4572,99.1218 100.124,102.122 103.5,105.5C 98.9914,103.081 94.658,100.414 90.5,97.5C 90.8417,96.6618 91.5084,96.3284 92.5,96.5 Z"/></g>
<g><path style="opacity:1" fill="#3c4032" d="M 255.5,76.5 C 255.5,79.8333 255.5,83.1667 255.5,86.5C 254.25,86.5774 253.417,87.244 253,88.5C 251.16,87.1669 250.66,87.3335 251.5,89C 247.81,90.3339 245.31,92.8339 244,96.5C 243.282,95.5494 242.449,95.3828 241.5,96C 238.468,99.7429 235.635,103.576 233,107.5C 232.333,106.833 231.667,106.167 231,105.5C 229.325,106.595 228.158,108.095 227.5,110C 226.552,110.483 225.552,110.649 224.5,110.5C 224.179,108.952 223.179,108.285 221.5,108.5C 221.649,109.552 221.483,110.552 221,111.5C 220.667,111.167 220.333,110.833 220,110.5C 219,111.833 218,113.167 217,114.5C 216.722,113.584 216.222,112.918 215.5,112.5C 215.918,111.778 216.584,111.278 217.5,111C 216.402,110.23 216.402,109.397 217.5,108.5C 224.705,103.428 231.038,97.4279 236.5,90.5C 237.425,89.3595 238.259,89.3595 239,90.5C 240.863,87.8309 242.863,85.1642 245,82.5C 245.333,82.8333 245.667,83.1667 246,83.5C 249.326,81.335 252.492,79.0017 255.5,76.5 Z"/></g>
<g><path style="opacity:1" fill="#5f5130" d="M 70.5,84.5 C 74.9883,88.1436 79.6549,91.6436 84.5,95C 86.6284,95.6552 88.6284,96.4886 90.5,97.5C 94.658,100.414 98.9914,103.081 103.5,105.5C 103.167,106.833 102.833,108.167 102.5,109.5C 97.3242,107.228 92.6576,104.228 88.5,100.5C 87.3112,99.5713 85.9778,99.238 84.5,99.5C 81.4575,95.4564 77.7908,92.1231 73.5,89.5C 73.573,87.9731 72.9063,86.9731 71.5,86.5C 71.1667,85.8333 70.8333,85.1667 70.5,84.5 Z"/></g>
<g><path style="opacity:1" fill="#523a2b" d="M 155.5,102.5 C 154.596,103.209 154.263,104.209 154.5,105.5C 153.609,104.89 152.609,104.557 151.5,104.5C 149.031,103.683 146.365,103.183 143.5,103C 145.422,101.58 146.755,99.7471 147.5,97.5C 150.084,98.3928 152.751,98.7261 155.5,98.5C 155.5,99.8333 155.5,101.167 155.5,102.5 Z"/></g>
<g><path style="opacity:1" fill="#6b7157" d="M 255.5,62.5 C 255.5,63.1667 255.5,63.8333 255.5,64.5C 245.904,70.7649 237.237,78.0982 229.5,86.5C 227.922,87.2978 226.256,87.7978 224.5,88C 223.498,89.6718 222.332,90.8384 221,91.5C 220.586,91.0426 220.086,90.7093 219.5,90.5C 218.476,91.8532 217.143,92.5198 215.5,92.5C 215.881,94.9418 215.214,95.6085 213.5,94.5C 212.024,96.5713 210.024,97.5713 207.5,97.5C 207.5,98.8333 207.5,100.167 207.5,101.5C 206.078,101.709 204.745,102.209 203.5,103C 203.833,103.333 204.167,103.667 204.5,104C 201.473,104.545 199.14,106.045 197.5,108.5C 196.721,107.08 195.721,106.246 194.5,106C 194.82,104.347 195.82,103.347 197.5,103C 196.552,102.517 195.552,102.351 194.5,102.5C 194.5,101.5 194.5,100.5 194.5,99.5C 197.644,97.3244 200.811,94.991 204,92.5C 213.101,90.0244 220.601,85.1911 226.5,78C 227.993,76.6319 229.493,76.4652 231,77.5C 231.918,75.3676 233.251,74.701 235,75.5C 236.52,71.6479 239.353,69.8145 243.5,70C 247.351,67.2216 251.351,64.7216 255.5,62.5 Z"/></g>
<g><path style="opacity:1" fill="#7db1a7" d="M 61.5,102.5 C 61.7947,104.735 61.4614,106.735 60.5,108.5C 50.6875,103.819 40.3542,102.485 29.5,104.5C 22.7137,105.563 16.7137,108.23 11.5,112.5C 11.0269,113.906 10.0269,114.573 8.5,114.5C 8.75115,112.83 9.41782,111.33 10.5,110C 13.5652,108.956 16.2319,107.29 18.5,105C 21.1768,104.751 23.5101,103.751 25.5,102C 28.8168,101.502 32.1501,101.335 35.5,101.5C 41.6578,99.7229 47.4912,100.39 53,103.5C 54.7972,102.734 56.6305,102.068 58.5,101.5C 59.7261,101.52 60.7261,101.853 61.5,102.5 Z"/></g>
<g><path style="opacity:1" fill="#7f8886" d="M 68.5,82.5 C 69.5,82.8333 70.1667,83.5 70.5,84.5C 70.8333,85.1667 71.1667,85.8333 71.5,86.5C 71.719,87.675 71.3857,88.675 70.5,89.5C 69.5726,87.8872 68.7393,86.2205 68,84.5C 66.9586,88.4096 68.1252,91.4096 71.5,93.5C 71.8333,94.1667 72.1667,94.8333 72.5,95.5C 71.0403,99.596 69.7069,103.763 68.5,108C 69.5015,110.168 70.5015,112.335 71.5,114.5C 71.1373,115.183 70.8039,115.85 70.5,116.5C 66.8085,114.459 63.1419,112.459 59.5,110.5C 60.3382,110.158 60.6716,109.492 60.5,108.5C 61.4614,106.735 61.7947,104.735 61.5,102.5C 63.6098,98.4979 64.9431,94.1646 65.5,89.5C 66.1047,87.0259 67.1047,84.6926 68.5,82.5 Z"/></g>
<g><path style="opacity:1" fill="#b4a790" d="M 157.5,96.5 C 157.833,96.5 158.167,96.5 158.5,96.5C 158.5,98.8333 158.5,101.167 158.5,103.5C 157.29,103.932 156.29,104.599 155.5,105.5C 155.167,105.5 154.833,105.5 154.5,105.5C 154.263,104.209 154.596,103.209 155.5,102.5C 157.28,101.01 157.946,99.0101 157.5,96.5 Z"/></g>
<g><path style="opacity:1" fill="#494f3d" d="M 255.5,72.5 C 255.5,73.8333 255.5,75.1667 255.5,76.5C 252.492,79.0017 249.326,81.335 246,83.5C 245.667,83.1667 245.333,82.8333 245,82.5C 242.863,85.1642 240.863,87.8309 239,90.5C 238.259,89.3595 237.425,89.3595 236.5,90.5C 231.038,97.4279 224.705,103.428 217.5,108.5C 215.609,109.536 213.776,109.536 212,108.5C 210.667,109.833 209.333,111.167 208,112.5C 207.586,112.043 207.086,111.709 206.5,111.5C 203.787,112.914 201.12,114.247 198.5,115.5C 200.348,113.53 202.348,111.53 204.5,109.5C 206.289,107.39 207.622,105.056 208.5,102.5C 209.15,102.804 209.817,103.137 210.5,103.5C 215.454,101.086 219.954,98.0861 224,94.5C 224.333,94.8333 224.667,95.1667 225,95.5C 226.758,94.5305 227.258,93.3639 226.5,92C 231.832,89.4038 236.165,86.2372 239.5,82.5C 244.565,78.6397 249.898,75.3064 255.5,72.5 Z"/></g>
<g><path style="opacity:1" fill="#2d291c" d="M 73.5,89.5 C 77.7908,92.1231 81.4575,95.4564 84.5,99.5C 88.2712,102.768 91.9378,106.268 95.5,110C 106.667,115.275 116,122.941 123.5,133C 122.906,133.464 122.239,133.631 121.5,133.5C 115.351,126.188 108.351,119.688 100.5,114C 97.5032,112.673 94.5032,111.339 91.5,110C 85.3142,104.982 78.9809,100.149 72.5,95.5C 72.1667,94.8333 71.8333,94.1667 71.5,93.5C 72.8062,92.5326 73.4729,91.1993 73.5,89.5 Z"/></g>
<g><path style="opacity:1" fill="#2e3328" d="M 255.5,86.5 C 255.5,88.8333 255.5,91.1667 255.5,93.5C 252.982,97.7657 249.315,100.599 244.5,102C 242.66,104.177 240.493,106.011 238,107.5C 235.922,106.057 235.089,106.724 235.5,109.5C 234.448,109.351 233.448,109.517 232.5,110C 232.833,110.333 233.167,110.667 233.5,111C 229.515,112.731 225.848,114.898 222.5,117.5C 222.389,116.883 222.056,116.383 221.5,116C 223.398,115.1 225.064,113.934 226.5,112.5C 225.757,111.818 225.091,111.151 224.5,110.5C 225.552,110.649 226.552,110.483 227.5,110C 228.158,108.095 229.325,106.595 231,105.5C 231.667,106.167 232.333,106.833 233,107.5C 235.635,103.576 238.468,99.7429 241.5,96C 242.449,95.3828 243.282,95.5494 244,96.5C 245.31,92.8339 247.81,90.3339 251.5,89C 250.66,87.3335 251.16,87.1669 253,88.5C 253.417,87.244 254.25,86.5774 255.5,86.5 Z"/></g>
<g><path style="opacity:1" fill="#c2b27a" d="M 35.5,104.5 C 42.898,103.905 49.5647,105.572 55.5,109.5C 55.5,109.833 55.5,110.167 55.5,110.5C 53.1944,110.007 50.861,109.674 48.5,109.5C 47.3192,107.933 45.6526,107.099 43.5,107C 39.5138,106.501 35.5138,106.334 31.5,106.5C 32.8333,105.833 34.1667,105.167 35.5,104.5 Z"/></g>
<g><path style="opacity:1" fill="#705744" d="M 143.5,105.5 C 140.603,107.818 139.937,110.651 141.5,114C 146.401,115.325 151.401,115.825 156.5,115.5C 156.027,116.906 155.027,117.573 153.5,117.5C 149.154,117.666 144.821,117.499 140.5,117C 135.952,113.612 131.286,110.445 126.5,107.5C 126.343,106.127 126.51,104.793 127,103.5C 130.627,104.093 133.96,105.426 137,107.5C 139.154,106.726 141.321,106.059 143.5,105.5 Z"/></g>
<g><path style="opacity:1" fill="#776740" d="M 31.5,106.5 C 35.5138,106.334 39.5138,106.501 43.5,107C 45.6526,107.099 47.3192,107.933 48.5,109.5C 46.965,108.646 45.6316,108.646 44.5,109.5C 37.6314,107.85 30.9648,108.183 24.5,110.5C 23.8333,109.833 23.1667,109.167 22.5,108.5C 25.3084,107.071 28.3084,106.405 31.5,106.5 Z"/></g>
<g><path style="opacity:1" fill="#a5c8ba" d="M 29.5,104.5 C 40.3542,102.485 50.6875,103.819 60.5,108.5C 60.6716,109.492 60.3382,110.158 59.5,110.5C 58.2921,109.766 56.9587,109.433 55.5,109.5C 49.5647,105.572 42.898,103.905 35.5,104.5C 33.5,104.5 31.5,104.5 29.5,104.5 Z"/></g>
<g><path style="opacity:1" fill="#7f7249" d="M 103.5,105.5 C 105.777,106.449 107.777,107.782 109.5,109.5C 108.599,110.29 107.932,111.29 107.5,112.5C 105.999,111.248 104.332,110.248 102.5,109.5C 102.833,108.167 103.167,106.833 103.5,105.5 Z"/></g>
<g><path style="opacity:1" fill="#8a6c57" d="M 143.5,104.5 C 146.167,104.5 148.833,104.5 151.5,104.5C 152.609,104.557 153.609,104.89 154.5,105.5C 154.833,105.5 155.167,105.5 155.5,105.5C 155.592,107.848 156.592,109.514 158.5,110.5C 157.89,111.391 157.557,112.391 157.5,113.5C 157.672,114.492 157.338,115.158 156.5,115.5C 151.401,115.825 146.401,115.325 141.5,114C 139.937,110.651 140.603,107.818 143.5,105.5C 143.5,105.167 143.5,104.833 143.5,104.5 Z"/></g>
<g><path style="opacity:1" fill="#c1c8a7" d="M 29.5,104.5 C 31.5,104.5 33.5,104.5 35.5,104.5C 34.1667,105.167 32.8333,105.833 31.5,106.5C 28.3084,106.405 25.3084,107.071 22.5,108.5C 18.6848,109.581 15.0181,110.914 11.5,112.5C 16.7137,108.23 22.7137,105.563 29.5,104.5 Z"/></g>
<g><path style="opacity:1" fill="#4c8f8f" d="M 39.5,96.5 C 39.5,96.8333 39.5,97.1667 39.5,97.5C 38.4324,98.4345 37.099,98.7678 35.5,98.5C 35.5,99.5 35.5,100.5 35.5,101.5C 32.1501,101.335 28.8168,101.502 25.5,102C 23.5101,103.751 21.1768,104.751 18.5,105C 16.2319,107.29 13.5652,108.956 10.5,110C 9.41782,111.33 8.75115,112.83 8.5,114.5C 5.5,116.5 2.5,118.5 -0.5,120.5C -0.5,117.5 -0.5,114.5 -0.5,111.5C 7.57865,110.747 14.2453,107.247 19.5,101C 22.8742,100.479 25.8742,99.1457 28.5,97C 32.1516,96.5014 35.8183,96.3347 39.5,96.5 Z"/></g>
<g><path style="opacity:1" fill="#7d9c86" d="M 164.5,104.5 C 165.799,107.395 167.465,110.062 169.5,112.5C 172.646,116.622 175.646,120.955 178.5,125.5C 179.025,129.333 180.025,133 181.5,136.5C 179.683,135.184 178.017,133.684 176.5,132C 174.95,123.393 170.95,116.227 164.5,110.5C 164.5,108.5 164.5,106.5 164.5,104.5 Z"/></g>
<g><path style="opacity:1" fill="#687b65" d="M 194.5,99.5 C 194.5,100.5 194.5,101.5 194.5,102.5C 195.552,102.351 196.552,102.517 197.5,103C 195.82,103.347 194.82,104.347 194.5,106C 195.721,106.246 196.721,107.08 197.5,108.5C 196.972,109.721 196.305,110.887 195.5,112C 192.981,112.586 190.981,113.753 189.5,115.5C 186.676,116.945 183.676,118.111 180.5,119C 178.771,120.789 178.104,122.956 178.5,125.5C 175.646,120.955 172.646,116.622 169.5,112.5C 171.051,105.92 174.884,104.254 181,107.5C 182.862,104.833 185.028,102.5 187.5,100.5C 189.756,100.602 192.089,100.268 194.5,99.5 Z"/></g>
<g><path style="opacity:1" fill="#677275" d="M 54.5,125.5 C 48.9804,122.574 43.3137,119.907 37.5,117.5C 34.779,117.037 32.1123,116.371 29.5,115.5C 26.3586,114.679 23.0252,114.179 19.5,114C 20.6226,112.956 21.9559,112.29 23.5,112C 31.9661,111.05 40.2994,111.717 48.5,114C 50.9944,115.946 51.6611,118.279 50.5,121C 52.0414,122.371 53.3747,123.871 54.5,125.5 Z"/></g>
<g><path style="opacity:1" fill="#41341b" d="M 84.5,99.5 C 85.9778,99.238 87.3112,99.5713 88.5,100.5C 92.6576,104.228 97.3242,107.228 102.5,109.5C 104.332,110.248 105.999,111.248 107.5,112.5C 119.544,120.877 129.544,131.21 137.5,143.5C 134.5,143.5 131.5,143.5 128.5,143.5C 126.938,139.608 124.605,136.275 121.5,133.5C 122.239,133.631 122.906,133.464 123.5,133C 116,122.941 106.667,115.275 95.5,110C 91.9378,106.268 88.2712,102.768 84.5,99.5 Z"/></g>
<g><path style="opacity:1" fill="#232720" d="M 255.5,93.5 C 255.5,99.1667 255.5,104.833 255.5,110.5C 254.009,110.901 252.342,111.068 250.5,111C 247.456,114.275 244.29,117.442 241,120.5C 240.667,120.167 240.333,119.833 240,119.5C 239.494,121.848 238.328,124.182 236.5,126.5C 235.417,126.539 234.417,126.873 233.5,127.5C 232.749,126.624 232.249,125.624 232,124.5C 230.559,125.87 228.892,126.87 227,127.5C 227.387,125.349 228.053,123.349 229,121.5C 226.797,121.312 224.631,121.979 222.5,123.5C 222.5,122.167 222.5,120.833 222.5,119.5C 222.5,118.833 222.5,118.167 222.5,117.5C 225.848,114.898 229.515,112.731 233.5,111C 233.167,110.667 232.833,110.333 232.5,110C 233.448,109.517 234.448,109.351 235.5,109.5C 235.089,106.724 235.922,106.057 238,107.5C 240.493,106.011 242.66,104.177 244.5,102C 249.315,100.599 252.982,97.7657 255.5,93.5 Z"/></g>
<g><path style="opacity:1" fill="#4c5c58" d="M 110.5,143.5 C 107.5,143.5 104.5,143.5 101.5,143.5C 96.6044,137.78 91.9377,131.946 87.5,126C 85.0558,126.553 82.8891,125.719 81,123.5C 80.6012,123.728 80.4346,124.062 80.5,124.5C 77.5526,123.219 75.2193,121.219 73.5,118.5C 71.9687,108.189 75.6354,105.689 84.5,111C 85.9691,114.93 87.1357,115.097 88,111.5C 89.7909,113.029 91.4576,114.696 93,116.5C 93.413,119.232 94.0797,121.899 95,124.5C 100.076,131.06 105.243,137.393 110.5,143.5 Z"/></g>
<g><path style="opacity:1" fill="#516251" d="M 207.5,101.5 C 207.5,102.167 207.833,102.5 208.5,102.5C 207.622,105.056 206.289,107.39 204.5,109.5C 202.348,111.53 200.348,113.53 198.5,115.5C 195.808,117.862 193.141,120.196 190.5,122.5C 189.055,124.063 187.389,125.396 185.5,126.5C 186.961,123.871 188.627,121.371 190.5,119C 189.833,118.667 189.167,118.333 188.5,118C 189.252,117.329 189.586,116.496 189.5,115.5C 190.981,113.753 192.981,112.586 195.5,112C 196.305,110.887 196.972,109.721 197.5,108.5C 199.14,106.045 201.473,104.545 204.5,104C 204.167,103.667 203.833,103.333 203.5,103C 204.745,102.209 206.078,101.709 207.5,101.5 Z"/></g>
<g><path style="opacity:1" fill="#99926e" d="M 22.5,108.5 C 23.1667,109.167 23.8333,109.833 24.5,110.5C 20.5002,111.004 16.8335,112.337 13.5,114.5C 10.5266,115.987 7.52656,117.487 4.5,119C 5.44802,119.483 6.44802,119.649 7.5,119.5C 5.31553,121.585 2.64886,122.585 -0.5,122.5C -0.5,121.833 -0.5,121.167 -0.5,120.5C 2.5,118.5 5.5,116.5 8.5,114.5C 10.0269,114.573 11.0269,113.906 11.5,112.5C 15.0181,110.914 18.6848,109.581 22.5,108.5 Z"/></g>
<g><path style="opacity:1" fill="#1f2422" d="M 157.5,113.5 C 158.552,113.351 159.552,113.517 160.5,114C 162.703,116.372 165.037,118.539 167.5,120.5C 169.964,124.444 171.63,128.777 172.5,133.5C 172.5,136.833 172.5,140.167 172.5,143.5C 164.167,143.5 155.833,143.5 147.5,143.5C 147.106,136.504 146.773,129.504 146.5,122.5C 146.5,121.5 146.5,120.5 146.5,119.5C 149.228,119.829 151.562,119.163 153.5,117.5C 155.027,117.573 156.027,116.906 156.5,115.5C 157.338,115.158 157.672,114.492 157.5,113.5 Z"/></g>
<g><path style="opacity:1" fill="#a8ac93" d="M 13.5,114.5 C 18.6405,115.488 23.9738,115.821 29.5,115.5C 32.1123,116.371 34.779,117.037 37.5,117.5C 37.1583,118.338 36.4916,118.672 35.5,118.5C 26.1012,117.012 16.7679,117.346 7.5,119.5C 6.44802,119.649 5.44802,119.483 4.5,119C 7.52656,117.487 10.5266,115.987 13.5,114.5 Z"/></g>
<g><path style="opacity:1" fill="#5b563a" d="M 167.5,117.5 C 167.5,118.5 167.5,119.5 167.5,120.5C 165.037,118.539 162.703,116.372 160.5,114C 159.552,113.517 158.552,113.351 157.5,113.5C 157.557,112.391 157.89,111.391 158.5,110.5C 158.369,109.761 158.536,109.094 159,108.5C 162.066,111.396 164.899,114.396 167.5,117.5 Z"/></g>
<g><path style="opacity:1" fill="#aaa07e" d="M 55.5,109.5 C 56.9587,109.433 58.2921,109.766 59.5,110.5C 63.1419,112.459 66.8085,114.459 70.5,116.5C 70.9731,117.906 71.9731,118.573 73.5,118.5C 75.2193,121.219 77.5526,123.219 80.5,124.5C 81.1667,125.5 81.8333,126.5 82.5,127.5C 81.8333,127.5 81.5,127.833 81.5,128.5C 74.4985,122.663 66.8319,117.83 58.5,114C 57.2899,112.961 56.2899,111.794 55.5,110.5C 55.5,110.167 55.5,109.833 55.5,109.5 Z"/></g>
<g><path style="opacity:1" fill="#3d4e42" d="M 217.5,108.5 C 216.402,109.397 216.402,110.23 217.5,111C 216.584,111.278 215.918,111.778 215.5,112.5C 214.402,113.397 214.402,114.23 215.5,115C 214.551,115.617 213.718,115.451 213,114.5C 210.325,117.416 207.825,120.582 205.5,124C 204.231,123.891 203.231,124.058 202.5,124.5C 200.205,126.773 198.038,126.773 196,124.5C 195.439,125.022 194.772,125.355 194,125.5C 192.826,124.456 191.659,123.456 190.5,122.5C 193.141,120.196 195.808,117.862 198.5,115.5C 201.12,114.247 203.787,112.914 206.5,111.5C 207.086,111.709 207.586,112.043 208,112.5C 209.333,111.167 210.667,109.833 212,108.5C 213.776,109.536 215.609,109.536 217.5,108.5 Z"/></g>
<g><path style="opacity:1" fill="#262621" d="M 124.5,121.5 C 121.5,119.167 118.833,116.5 116.5,113.5C 118.309,112.709 120.309,112.709 122.5,113.5C 122.5,112.5 122.5,111.5 122.5,110.5C 122.272,108.645 122.939,107.812 124.5,108C 125.227,109.399 125.727,110.899 126,112.5C 129.167,114.333 131.667,116.833 133.5,120C 134.938,120.219 136.271,120.719 137.5,121.5C 136.634,123.582 135.134,124.915 133,125.5C 130.29,123.971 127.457,122.637 124.5,121.5 Z"/></g>
<g><path style="opacity:1" fill="#5a5038" d="M 35.5,118.5 C 41.4732,120.819 46.8065,124.153 51.5,128.5C 48.8069,127.448 46.1402,126.448 43.5,125.5C 32.18,119.263 20.18,118.096 7.5,122C 6.94404,122.383 6.61071,122.883 6.5,123.5C 4.13895,123.674 1.80562,124.007 -0.5,124.5C -0.5,123.833 -0.5,123.167 -0.5,122.5C 2.64886,122.585 5.31553,121.585 7.5,119.5C 16.7679,117.346 26.1012,117.012 35.5,118.5 Z"/></g>
<g><path style="opacity:1" fill="#3f3024" d="M 126.5,107.5 C 131.286,110.445 135.952,113.612 140.5,117C 144.821,117.499 149.154,117.666 153.5,117.5C 151.562,119.163 149.228,119.829 146.5,119.5C 146.5,120.5 146.5,121.5 146.5,122.5C 144.952,122.821 144.285,123.821 144.5,125.5C 141.346,125.659 138.846,126.993 137,129.5C 135.184,129.351 133.351,129.351 131.5,129.5C 129.167,126.833 126.833,124.167 124.5,121.5C 127.457,122.637 130.29,123.971 133,125.5C 135.134,124.915 136.634,123.582 137.5,121.5C 136.271,120.719 134.938,120.219 133.5,120C 131.667,116.833 129.167,114.333 126,112.5C 125.727,110.899 125.227,109.399 124.5,108C 122.939,107.812 122.272,108.645 122.5,110.5C 122.167,110.5 121.833,110.5 121.5,110.5C 120.488,107.748 119.488,105.081 118.5,102.5C 116.738,98.0268 115.738,93.3602 115.5,88.5C 115.369,87.7611 115.536,87.0944 116,86.5C 117.232,89.3004 117.899,92.3004 118,95.5C 120.93,99.5259 123.763,103.526 126.5,107.5 Z"/></g>
<g><path style="opacity:1" fill="#4e6d60" d="M 189.5,115.5 C 189.586,116.496 189.252,117.329 188.5,118C 189.167,118.333 189.833,118.667 190.5,119C 188.627,121.371 186.961,123.871 185.5,126.5C 184.175,127.953 183.342,127.619 183,125.5C 182.333,127.167 182.333,128.833 183,130.5C 186.031,134.566 188.531,138.9 190.5,143.5C 189.5,143.5 188.5,143.5 187.5,143.5C 186.2,140.568 184.2,138.234 181.5,136.5C 180.025,133 179.025,129.333 178.5,125.5C 178.104,122.956 178.771,120.789 180.5,119C 183.676,118.111 186.676,116.945 189.5,115.5 Z"/></g>
<g><path style="opacity:1" fill="#1a201a" d="M 255.5,110.5 C 255.5,121.5 255.5,132.5 255.5,143.5C 249.833,143.5 244.167,143.5 238.5,143.5C 236.273,141.771 235.273,139.438 235.5,136.5C 234.448,136.649 233.448,136.483 232.5,136C 236.73,134.563 237.397,132.229 234.5,129C 235.381,128.292 236.047,127.458 236.5,126.5C 238.328,124.182 239.494,121.848 240,119.5C 240.333,119.833 240.667,120.167 241,120.5C 244.29,117.442 247.456,114.275 250.5,111C 252.342,111.068 254.009,110.901 255.5,110.5 Z"/></g>
<g><path style="opacity:1" fill="#4c4d4a" d="M 43.5,125.5 C 45.0699,127.947 47.0699,129.947 49.5,131.5C 42.9709,127.816 35.9709,124.983 28.5,123C 21.1175,122.237 13.7842,122.403 6.5,123.5C 6.61071,122.883 6.94404,122.383 7.5,122C 20.18,118.096 32.18,119.263 43.5,125.5 Z"/></g>
<g><path style="opacity:1" fill="#828d8f" d="M 44.5,109.5 C 57.7672,115.09 69.4339,123.09 79.5,133.5C 79.5,134.5 79.5,135.5 79.5,136.5C 71.337,135.878 64.337,132.711 58.5,127C 57.255,126.209 55.9217,125.709 54.5,125.5C 53.3747,123.871 52.0414,122.371 50.5,121C 51.6611,118.279 50.9944,115.946 48.5,114C 40.2994,111.717 31.9661,111.05 23.5,112C 21.9559,112.29 20.6226,112.956 19.5,114C 23.0252,114.179 26.3586,114.679 29.5,115.5C 23.9738,115.821 18.6405,115.488 13.5,114.5C 16.8335,112.337 20.5002,111.004 24.5,110.5C 30.9648,108.183 37.6314,107.85 44.5,109.5 Z"/></g>
<g><path style="opacity:1" fill="#d0ce9a" d="M 109.5,109.5 C 111.833,110.833 114.167,112.167 116.5,113.5C 118.833,116.5 121.5,119.167 124.5,121.5C 126.833,124.167 129.167,126.833 131.5,129.5C 134.5,134.167 137.5,138.833 140.5,143.5C 139.5,143.5 138.5,143.5 137.5,143.5C 129.544,131.21 119.544,120.877 107.5,112.5C 107.932,111.29 108.599,110.29 109.5,109.5 Z"/></g>
<g><path style="opacity:1" fill="#6f7c7b" d="M 49.5,131.5 C 54.4031,134.802 58.7364,138.802 62.5,143.5C 54.1667,143.5 45.8333,143.5 37.5,143.5C 34.9036,142.074 32.737,140.074 31,137.5C 30.6667,137.833 30.3333,138.167 30,138.5C 27.8343,134.889 24.6677,132.723 20.5,132C 19.1667,131.333 19.1667,130.667 20.5,130C 19.1667,129.333 17.8333,128.667 16.5,128C 17.3081,127.692 17.9747,127.192 18.5,126.5C 15.9717,123.961 12.9717,123.128 9.5,124C 5.80906,124.836 2.47572,126.336 -0.5,128.5C -0.5,127.167 -0.5,125.833 -0.5,124.5C 1.80562,124.007 4.13895,123.674 6.5,123.5C 13.7842,122.403 21.1175,122.237 28.5,123C 35.9709,124.983 42.9709,127.816 49.5,131.5 Z"/></g>
<g><path style="opacity:1" fill="#596664" d="M 72.5,95.5 C 78.9809,100.149 85.3142,104.982 91.5,110C 94.5032,111.339 97.5032,112.673 100.5,114C 108.351,119.688 115.351,126.188 121.5,133.5C 124.605,136.275 126.938,139.608 128.5,143.5C 122.5,143.5 116.5,143.5 110.5,143.5C 105.243,137.393 100.076,131.06 95,124.5C 94.0797,121.899 93.413,119.232 93,116.5C 91.4576,114.696 89.7909,113.029 88,111.5C 87.1357,115.097 85.9691,114.93 84.5,111C 75.6354,105.689 71.9687,108.189 73.5,118.5C 71.9731,118.573 70.9731,117.906 70.5,116.5C 70.8039,115.85 71.1373,115.183 71.5,114.5C 70.5015,112.335 69.5015,110.168 68.5,108C 69.7069,103.763 71.0403,99.596 72.5,95.5 Z"/></g>
<g><path style="opacity:1" fill="#1d2924" d="M 236.5,126.5 C 236.047,127.458 235.381,128.292 234.5,129C 237.397,132.229 236.73,134.563 232.5,136C 233.448,136.483 234.448,136.649 235.5,136.5C 235.273,139.438 236.273,141.771 238.5,143.5C 231.5,143.5 224.5,143.5 217.5,143.5C 216.933,141.97 216.267,140.47 215.5,139C 219.33,138.593 219.997,137.26 217.5,135C 218.833,133 218.833,131 217.5,129C 219.384,128.784 221.051,128.117 222.5,127C 221.316,125.855 221.316,124.688 222.5,123.5C 224.631,121.979 226.797,121.312 229,121.5C 228.053,123.349 227.387,125.349 227,127.5C 228.892,126.87 230.559,125.87 232,124.5C 232.249,125.624 232.749,126.624 233.5,127.5C 234.417,126.873 235.417,126.539 236.5,126.5 Z"/></g>
<g><path style="opacity:1" fill="#8e8d6a" d="M 37.5,117.5 C 43.3137,119.907 48.9804,122.574 54.5,125.5C 56.8061,127.139 58.8061,129.139 60.5,131.5C 59.209,131.263 58.209,131.596 57.5,132.5C 55.7278,130.71 53.7278,129.377 51.5,128.5C 46.8065,124.153 41.4732,120.819 35.5,118.5C 36.4916,118.672 37.1583,118.338 37.5,117.5 Z"/></g>
<g><path style="opacity:1" fill="#3e3f32" d="M 101.5,143.5 C 100.833,143.5 100.167,143.5 99.5,143.5C 94.066,137.944 88.3993,132.611 82.5,127.5C 81.8333,126.5 81.1667,125.5 80.5,124.5C 80.4346,124.062 80.6012,123.728 81,123.5C 82.8891,125.719 85.0558,126.553 87.5,126C 91.9377,131.946 96.6044,137.78 101.5,143.5 Z"/></g>
<g><path style="opacity:1" fill="#2b3d36" d="M 224.5,110.5 C 225.091,111.151 225.757,111.818 226.5,112.5C 225.064,113.934 223.398,115.1 221.5,116C 222.056,116.383 222.389,116.883 222.5,117.5C 222.5,118.167 222.5,118.833 222.5,119.5C 219.93,121.696 217.43,123.363 215,124.5C 213.416,129.5 210.916,134 207.5,138C 207.833,138.333 208.167,138.667 208.5,139C 207.267,140.667 205.933,142.167 204.5,143.5C 201.167,143.5 197.833,143.5 194.5,143.5C 195.207,140.357 196.373,137.357 198,134.5C 199.666,135.34 199.833,134.84 198.5,133C 201.321,130.859 202.654,128.025 202.5,124.5C 203.231,124.058 204.231,123.891 205.5,124C 207.825,120.582 210.325,117.416 213,114.5C 213.718,115.451 214.551,115.617 215.5,115C 214.402,114.23 214.402,113.397 215.5,112.5C 216.222,112.918 216.722,113.584 217,114.5C 218,113.167 219,111.833 220,110.5C 220.333,110.833 220.667,111.167 221,111.5C 221.483,110.552 221.649,109.552 221.5,108.5C 223.179,108.285 224.179,108.952 224.5,110.5 Z"/></g>
<g><path style="opacity:1" fill="#66797b" d="M 37.5,143.5 C 24.8333,143.5 12.1667,143.5 -0.5,143.5C -0.5,138.5 -0.5,133.5 -0.5,128.5C 2.47572,126.336 5.80906,124.836 9.5,124C 12.9717,123.128 15.9717,123.961 18.5,126.5C 17.9747,127.192 17.3081,127.692 16.5,128C 17.8333,128.667 19.1667,129.333 20.5,130C 19.1667,130.667 19.1667,131.333 20.5,132C 24.6677,132.723 27.8343,134.889 30,138.5C 30.3333,138.167 30.6667,137.833 31,137.5C 32.737,140.074 34.9036,142.074 37.5,143.5 Z"/></g>
<g><path style="opacity:1" fill="#534328" d="M 44.5,109.5 C 45.6316,108.646 46.965,108.646 48.5,109.5C 50.861,109.674 53.1944,110.007 55.5,110.5C 56.2899,111.794 57.2899,112.961 58.5,114C 66.8319,117.83 74.4985,122.663 81.5,128.5C 86.26,132.923 90.26,137.923 93.5,143.5C 92.1667,143.5 90.8333,143.5 89.5,143.5C 86.5,139.833 83.1667,136.5 79.5,133.5C 69.4339,123.09 57.7672,115.09 44.5,109.5 Z"/></g>
<g><path style="opacity:1" fill="#cfc68f" d="M 167.5,117.5 C 171.493,122.458 173.826,128.125 174.5,134.5C 174.5,135.167 174.167,135.5 173.5,135.5C 173.672,134.508 173.338,133.842 172.5,133.5C 171.63,128.777 169.964,124.444 167.5,120.5C 167.5,119.5 167.5,118.5 167.5,117.5 Z"/></g>
<g><path style="opacity:1" fill="#334d46" d="M 190.5,122.5 C 191.659,123.456 192.826,124.456 194,125.5C 194.772,125.355 195.439,125.022 196,124.5C 198.038,126.773 200.205,126.773 202.5,124.5C 202.654,128.025 201.321,130.859 198.5,133C 199.833,134.84 199.666,135.34 198,134.5C 196.373,137.357 195.207,140.357 194.5,143.5C 193.167,143.5 191.833,143.5 190.5,143.5C 188.531,138.9 186.031,134.566 183,130.5C 182.333,128.833 182.333,127.167 183,125.5C 183.342,127.619 184.175,127.953 185.5,126.5C 187.389,125.396 189.055,124.063 190.5,122.5 Z"/></g>
<g><path style="opacity:1" fill="#23332e" d="M 222.5,119.5 C 222.5,120.833 222.5,122.167 222.5,123.5C 221.316,124.688 221.316,125.855 222.5,127C 221.051,128.117 219.384,128.784 217.5,129C 218.833,131 218.833,133 217.5,135C 219.997,137.26 219.33,138.593 215.5,139C 216.267,140.47 216.933,141.97 217.5,143.5C 213.167,143.5 208.833,143.5 204.5,143.5C 205.933,142.167 207.267,140.667 208.5,139C 208.167,138.667 207.833,138.333 207.5,138C 210.916,134 213.416,129.5 215,124.5C 217.43,123.363 219.93,121.696 222.5,119.5 Z"/></g>
<g><path style="opacity:1" fill="#433f30" d="M 43.5,125.5 C 46.1402,126.448 48.8069,127.448 51.5,128.5C 53.7278,129.377 55.7278,130.71 57.5,132.5C 61.5372,135.537 64.8705,139.203 67.5,143.5C 65.8333,143.5 64.1667,143.5 62.5,143.5C 58.7364,138.802 54.4031,134.802 49.5,131.5C 47.0699,129.947 45.0699,127.947 43.5,125.5 Z"/></g>
<g><path style="opacity:1" fill="#d5d4aa" d="M 82.5,127.5 C 88.3993,132.611 94.066,137.944 99.5,143.5C 97.5,143.5 95.5,143.5 93.5,143.5C 90.26,137.923 86.26,132.923 81.5,128.5C 81.5,127.833 81.8333,127.5 82.5,127.5 Z"/></g>
<g><path style="opacity:1" fill="#4e3c2f" d="M 146.5,122.5 C 146.773,129.504 147.106,136.504 147.5,143.5C 145.167,143.5 142.833,143.5 140.5,143.5C 137.5,138.833 134.5,134.167 131.5,129.5C 133.351,129.351 135.184,129.351 137,129.5C 138.846,126.993 141.346,125.659 144.5,125.5C 144.285,123.821 144.952,122.821 146.5,122.5 Z"/></g>
<g><path style="opacity:1" fill="#cccd97" d="M 60.5,131.5 C 64.9301,134.984 68.9301,138.984 72.5,143.5C 70.8333,143.5 69.1667,143.5 67.5,143.5C 64.8705,139.203 61.5372,135.537 57.5,132.5C 58.209,131.596 59.209,131.263 60.5,131.5 Z"/></g>
<g><path style="opacity:1" fill="#ada98f" d="M 174.5,134.5 C 175.833,135.167 176.833,136.167 177.5,137.5C 176.542,139.302 175.875,141.302 175.5,143.5C 175.167,143.5 174.833,143.5 174.5,143.5C 174.425,140.794 174.092,138.127 173.5,135.5C 174.167,135.5 174.5,135.167 174.5,134.5 Z"/></g>
<g><path style="opacity:1" fill="#6a6e69" d="M 54.5,125.5 C 55.9217,125.709 57.255,126.209 58.5,127C 64.337,132.711 71.337,135.878 79.5,136.5C 79.5,135.5 79.5,134.5 79.5,133.5C 83.1667,136.5 86.5,139.833 89.5,143.5C 83.8333,143.5 78.1667,143.5 72.5,143.5C 68.9301,138.984 64.9301,134.984 60.5,131.5C 58.8061,129.139 56.8061,127.139 54.5,125.5 Z"/></g>
<g><path style="opacity:1" fill="#655633" d="M 172.5,133.5 C 173.338,133.842 173.672,134.508 173.5,135.5C 174.092,138.127 174.425,140.794 174.5,143.5C 173.833,143.5 173.167,143.5 172.5,143.5C 172.5,140.167 172.5,136.833 172.5,133.5 Z"/></g>
<g><path style="opacity:1" fill="#e5e4ce" d="M 158.5,103.5 C 159.71,106.387 161.71,108.72 164.5,110.5C 170.95,116.227 174.95,123.393 176.5,132C 178.017,133.684 179.683,135.184 181.5,136.5C 184.2,138.234 186.2,140.568 187.5,143.5C 186.167,143.5 184.833,143.5 183.5,143.5C 182.522,140.522 180.522,138.522 177.5,137.5C 176.833,136.167 175.833,135.167 174.5,134.5C 173.826,128.125 171.493,122.458 167.5,117.5C 164.899,114.396 162.066,111.396 159,108.5C 158.536,109.094 158.369,109.761 158.5,110.5C 156.592,109.514 155.592,107.848 155.5,105.5C 156.29,104.599 157.29,103.932 158.5,103.5 Z"/></g>
<g><path style="opacity:1" fill="#3e4540" d="M 177.5,137.5 C 180.522,138.522 182.522,140.522 183.5,143.5C 180.833,143.5 178.167,143.5 175.5,143.5C 175.875,141.302 176.542,139.302 177.5,137.5 Z"/></g>
</svg>
