<?xml version="1.0" encoding="UTF-8"?>
<!DOCTYPE svg PUBLIC "-//W3C//DTD SVG 1.1//EN" "http://www.w3.org/Graphics/SVG/1.1/DTD/svg11.dtd">
<svg xmlns="http://www.w3.org/2000/svg" version="1.1" width="256px" height="144px" style="shape-rendering:geometricPrecision; text-rendering:geometricPrecision; image-rendering:optimizeQuality; fill-rule:evenodd; clip-rule:evenodd" xmlns:xlink="http://www.w3.org/1999/xlink">
<g><path style="opacity:1" fill="#2c3237" d="M -0.5,-0.5 C 9.5,-0.5 19.5,-0.5 29.5,-0.5C 30.7956,1.57924 32.4622,3.24591 34.5,4.5C 24.9505,2.51201 15.2839,2.01201 5.5,3C 3.18867,3.23593 1.18867,4.06927 -0.5,5.5C -0.5,3.5 -0.5,1.5 -0.5,-0.5 Z"/></g>
<g><path style="opacity:1" fill="#6b96a9" d="M 29.5,-0.5 C 31.8333,-0.5 34.1667,-0.5 36.5,-0.5C 38.6195,1.39976 40.9528,3.06643 43.5,4.5C 40.6727,5.36834 37.6727,5.36834 34.5,4.5C 32.4622,3.24591 30.7956,1.57924 29.5,-0.5 Z"/></g>
<g><path style="opacity:1" fill="#020302" d="M 36.5,-0.5 C 72.8333,-0.5 109.167,-0.5 145.5,-0.5C 145.5,0.166667 145.5,0.833333 145.5,1.5C 144.512,4.08124 143.512,6.74791 142.5,9.5C 141.609,8.89022 140.609,8.55688 139.5,8.5C 138.378,7.84417 137.045,7.51084 135.5,7.5C 131.5,8 127.5,8.5 123.5,9C 122.619,9.7083 121.953,10.5416 121.5,11.5C 119.833,12.5 118.5,13.8333 117.5,15.5C 113.879,18.7829 110.213,22.1162 106.5,25.5C 104.66,27.168 102.66,28.668 100.5,30C 98.5359,31.451 97.2026,33.2843 96.5,35.5C 95.391,35.4431 94.391,35.1098 93.5,34.5C 91.7059,32.2034 89.7059,30.0367 87.5,28C 83.3431,25.3359 79.3431,22.5025 75.5,19.5C 73.0535,16.6896 70.7202,16.8563 68.5,20C 69.7577,21.7409 70.7577,23.5742 71.5,25.5C 66.8333,21.8333 62.1667,18.1667 57.5,14.5C 53.1117,10.7786 48.4451,7.44532 43.5,4.5C 40.9528,3.06643 38.6195,1.39976 36.5,-0.5 Z"/></g>
<g><path style="opacity:1" fill="#010202" d="M 151.5,-0.5 C 168.833,-0.5 186.167,-0.5 203.5,-0.5C 203.167,0.166667 202.833,0.833333 202.5,1.5C 196.684,12.4645 190.35,23.1311 183.5,33.5C 182.407,27.7737 180.407,22.4404 177.5,17.5C 176.614,16.2241 175.614,16.2241 174.5,17.5C 172.719,20.0912 170.719,22.4245 168.5,24.5C 166.479,19.2759 163.979,14.2759 161,9.5C 157.657,6.32385 154.49,2.99052 151.5,-0.5 Z"/></g>
<g><path style="opacity:1" fill="#413c1c" d="M 209.5,-0.5 C 212.833,-0.5 216.167,-0.5 219.5,-0.5C 221.496,7.87316 218.996,14.5398 212,19.5C 211.601,19.2716 211.435,18.9382 211.5,18.5C 212.266,14.9374 213.266,11.4374 214.5,8C 214.415,6.8926 214.081,5.8926 213.5,5C 211.196,4.10483 208.862,3.2715 206.5,2.5C 207.77,1.71237 208.77,0.712371 209.5,-0.5 Z"/></g>
<g><path style="opacity:1" fill="#0a0607" d="M 251.5,-0.5 C 252.833,-0.5 254.167,-0.5 255.5,-0.5C 255.5,7.83333 255.5,16.1667 255.5,24.5C 253.072,25.2122 250.739,26.2122 248.5,27.5C 247.702,27.0431 247.369,26.3764 247.5,25.5C 247.557,24.391 247.89,23.391 248.5,22.5C 249.6,20.7226 250.434,18.7226 251,16.5C 251.499,10.8431 251.666,5.17645 251.5,-0.5 Z"/></g>
<g><path style="opacity:1" fill="#0f1213" d="M 203.5,-0.5 C 205.5,-0.5 207.5,-0.5 209.5,-0.5C 208.77,0.712371 207.77,1.71237 206.5,2.5C 208.862,3.2715 211.196,4.10483 213.5,5C 214.081,5.8926 214.415,6.8926 214.5,8C 213.266,11.4374 212.266,14.9374 211.5,18.5C 210.583,20.6618 210.583,22.9952 211.5,25.5C 210.662,25.8417 210.328,26.5084 210.5,27.5C 212.917,29.4962 212.25,30.4962 208.5,30.5C 208.492,33.5448 208.159,36.5448 207.5,39.5C 203.167,39.5 198.833,39.5 194.5,39.5C 194.52,37.857 193.853,36.5237 192.5,35.5C 195.176,27.6426 198.342,19.976 202,12.5C 202.679,9.45009 203.512,6.45009 204.5,3.5C 203.757,2.81815 203.091,2.15149 202.5,1.5C 202.833,0.833333 203.167,0.166667 203.5,-0.5 Z"/></g>
<g><path style="opacity:1" fill="#3b391b" d="M 222.5,-0.5 C 224.833,-0.5 227.167,-0.5 229.5,-0.5C 230.016,3.13975 229.516,6.80642 228,10.5C 224.635,16.8713 220.135,22.3713 214.5,27C 213.207,27.49 211.873,27.6567 210.5,27.5C 210.328,26.5084 210.662,25.8417 211.5,25.5C 214.49,20.9124 217.99,16.5791 222,12.5C 222.499,8.17944 222.666,3.84611 222.5,-0.5 Z"/></g>
<g><path style="opacity:1" fill="#282f34" d="M 233.5,-0.5 C 237.167,-0.5 240.833,-0.5 244.5,-0.5C 243.862,1.46001 243.862,3.29334 244.5,5C 239.563,5.0587 238.563,6.89204 241.5,10.5C 240.826,12.5165 239.659,14.1832 238,15.5C 237.505,17.4727 237.338,19.4727 237.5,21.5C 238.5,21.5 239.5,21.5 240.5,21.5C 242.076,22.2832 243.409,23.4499 244.5,25C 245.448,25.4828 246.448,25.6495 247.5,25.5C 247.369,26.3764 247.702,27.0431 248.5,27.5C 250.739,26.2122 253.072,25.2122 255.5,24.5C 255.5,24.8333 255.5,25.1667 255.5,25.5C 251.799,27.0116 248.466,29.0116 245.5,31.5C 241.528,29.1783 237.528,26.845 233.5,24.5C 232.702,24.9569 232.369,25.6236 232.5,26.5C 231.068,24.6729 229.401,23.0063 227.5,21.5C 228.53,21.4455 229.697,21.1122 231,20.5C 232.882,13.6338 233.715,6.63384 233.5,-0.5 Z"/></g>
<g><path style="opacity:1" fill="#445c66" d="M 34.5,4.5 C 37.6727,5.36834 40.6727,5.36834 43.5,4.5C 48.4451,7.44532 53.1117,10.7786 57.5,14.5C 57.5,15.1667 57.1667,15.5 56.5,15.5C 53.7139,13.8874 51.0472,12.054 48.5,10C 43.4185,8.94956 38.7519,7.11622 34.5,4.5 Z"/></g>
<g><path style="opacity:1" fill="#170d0a" d="M 34.5,4.5 C 38.7519,7.11622 43.4185,8.94956 48.5,10C 51.0472,12.054 53.7139,13.8874 56.5,15.5C 57.4787,17.1454 58.812,18.4787 60.5,19.5C 58.6385,20.5283 57.3052,22.0283 56.5,24C 52.6049,25.2662 48.6049,25.7662 44.5,25.5C 44.7778,27.3464 44.1112,28.6798 42.5,29.5C 40.2706,28.4229 37.9372,27.7563 35.5,27.5C 27.7662,25.4183 19.7662,24.9183 11.5,26C 7.55317,27.4838 3.55317,28.6505 -0.5,29.5C -0.5,21.5 -0.5,13.5 -0.5,5.5C 1.18867,4.06927 3.18867,3.23593 5.5,3C 15.2839,2.01201 24.9505,2.51201 34.5,4.5 Z"/></g>
<g><path style="opacity:1" fill="#201c0e" d="M 219.5,-0.5 C 220.5,-0.5 221.5,-0.5 222.5,-0.5C 222.666,3.84611 222.499,8.17944 222,12.5C 217.99,16.5791 214.49,20.9124 211.5,25.5C 210.583,22.9952 210.583,20.6618 211.5,18.5C 211.435,18.9382 211.601,19.2716 212,19.5C 218.996,14.5398 221.496,7.87316 219.5,-0.5 Z"/></g>
<g><path style="opacity:1" fill="#f2dd8b" d="M 139.5,8.5 C 137.794,11.8629 135.461,14.5296 132.5,16.5C 130.473,16.6621 128.473,16.4955 126.5,16C 125.22,14.0336 123.553,12.5336 121.5,11.5C 121.953,10.5416 122.619,9.7083 123.5,9C 127.5,8.5 131.5,8 135.5,7.5C 137.045,7.51084 138.378,7.84417 139.5,8.5 Z"/></g>
<g><path style="opacity:1" fill="#4b5961" d="M 244.5,-0.5 C 246.833,-0.5 249.167,-0.5 251.5,-0.5C 251.666,5.17645 251.499,10.8431 251,16.5C 250.434,18.7226 249.6,20.7226 248.5,22.5C 248.719,21.325 248.386,20.325 247.5,19.5C 245.191,18.3492 243.024,17.0159 241,15.5C 237.911,17.2044 237.745,19.2044 240.5,21.5C 239.5,21.5 238.5,21.5 237.5,21.5C 237.338,19.4727 237.505,17.4727 238,15.5C 239.659,14.1832 240.826,12.5165 241.5,10.5C 238.563,6.89204 239.563,5.0587 244.5,5C 243.862,3.29334 243.862,1.46001 244.5,-0.5 Z"/></g>
<g><path style="opacity:1" fill="#7ea2b2" d="M 243.5,6.5 C 246.655,6.98422 248.988,8.65088 250.5,11.5C 245.36,14.3953 243.027,12.7286 243.5,6.5 Z"/></g>
<g><path style="opacity:1" fill="#e1c647" d="M 121.5,11.5 C 123.553,12.5336 125.22,14.0336 126.5,16C 128.473,16.4955 130.473,16.6621 132.5,16.5C 132.833,17.1667 133.167,17.8333 133.5,18.5C 132.167,18.5 130.833,18.5 129.5,18.5C 127.94,18.5191 126.44,18.8524 125,19.5C 123.7,18.2927 122.2,17.6261 120.5,17.5C 119.127,17.6567 117.793,17.49 116.5,17C 117.056,16.6174 117.389,16.1174 117.5,15.5C 118.5,13.8333 119.833,12.5 121.5,11.5 Z"/></g>
<g><path style="opacity:1" fill="#8cbad1" d="M 248.5,22.5 C 247.89,23.391 247.557,24.391 247.5,25.5C 246.448,25.6495 245.448,25.4828 244.5,25C 243.409,23.4499 242.076,22.2832 240.5,21.5C 237.745,19.2044 237.911,17.2044 241,15.5C 243.024,17.0159 245.191,18.3492 247.5,19.5C 248.386,20.325 248.719,21.325 248.5,22.5 Z"/></g>
<g><path style="opacity:1" fill="#eef6d2" d="M 117.5,15.5 C 117.389,16.1174 117.056,16.6174 116.5,17C 117.793,17.49 119.127,17.6567 120.5,17.5C 121.303,18.4232 121.47,19.4232 121,20.5C 116.609,23.3101 111.776,24.9768 106.5,25.5C 110.213,22.1162 113.879,18.7829 117.5,15.5 Z"/></g>
<g><path style="opacity:1" fill="#a7b5bf" d="M 145.5,-0.5 C 145.833,-0.5 146.167,-0.5 146.5,-0.5C 149.447,3.59089 152.114,7.92423 154.5,12.5C 153.617,14.4798 153.783,16.4798 155,18.5C 157.087,21.6728 158.921,25.0061 160.5,28.5C 161.325,29.3857 162.325,29.719 163.5,29.5C 163.429,32.0241 164.429,34.0241 166.5,35.5C 166.137,36.1835 165.804,36.8501 165.5,37.5C 160.684,34.2524 156.018,30.7524 151.5,27C 152.793,26.51 154.127,26.3433 155.5,26.5C 153.785,21.6746 152.452,16.6746 151.5,11.5C 150.25,8.95137 148.25,7.61803 145.5,7.5C 145.5,5.5 145.5,3.5 145.5,1.5C 145.5,0.833333 145.5,0.166667 145.5,-0.5 Z"/></g>
<g><path style="opacity:1" fill="#eef2ae" d="M 120.5,17.5 C 122.2,17.6261 123.7,18.2927 125,19.5C 126.44,18.8524 127.94,18.5191 129.5,18.5C 127.235,20.642 124.568,22.3087 121.5,23.5C 121.003,25.216 120.669,26.8827 120.5,28.5C 119.583,27.8728 118.583,27.5394 117.5,27.5C 117.167,27.5 116.833,27.5 116.5,27.5C 113.257,26.42 109.924,26.2534 106.5,27C 103.572,29.09 101.239,31.59 99.5,34.5C 98.3263,35.5137 97.6596,36.847 97.5,38.5C 96.596,37.791 96.2627,36.791 96.5,35.5C 97.2026,33.2843 98.5359,31.451 100.5,30C 102.66,28.668 104.66,27.168 106.5,25.5C 111.776,24.9768 116.609,23.3101 121,20.5C 121.47,19.4232 121.303,18.4232 120.5,17.5 Z"/></g>
<g><path style="opacity:1" fill="#d6c977" d="M 129.5,18.5 C 130.833,18.5 132.167,18.5 133.5,18.5C 134.289,18.7828 134.956,19.2828 135.5,20C 130.107,20.5681 126.774,23.4015 125.5,28.5C 124.135,30.8598 122.135,32.5265 119.5,33.5C 119.747,31.1417 119.081,29.1417 117.5,27.5C 118.583,27.5394 119.583,27.8728 120.5,28.5C 120.669,26.8827 121.003,25.216 121.5,23.5C 124.568,22.3087 127.235,20.642 129.5,18.5 Z"/></g>
<g><path style="opacity:1" fill="#775b18" d="M 140.5,17.5 C 140.5,17.8333 140.5,18.1667 140.5,18.5C 139.833,19.5 139.167,20.5 138.5,21.5C 131.833,28.4932 124.499,34.8266 116.5,40.5C 117.957,38.3718 118.957,36.0384 119.5,33.5C 122.135,32.5265 124.135,30.8598 125.5,28.5C 129.062,27.4716 131.728,25.3049 133.5,22C 134.448,21.5172 135.448,21.3505 136.5,21.5C 136.488,18.858 137.821,17.5246 140.5,17.5 Z"/></g>
<g><path style="opacity:1" fill="#a5b7c0" d="M 140.5,18.5 C 143.21,22.3988 146.21,26.2322 149.5,30C 148.622,35.4632 148.288,40.9632 148.5,46.5C 143.65,45.7904 138.817,45.457 134,45.5C 133.5,45.6667 133,45.8333 132.5,46C 134.025,47.0086 135.692,47.5086 137.5,47.5C 137.567,48.9587 137.234,50.2921 136.5,51.5C 135.081,52.4511 133.415,52.7845 131.5,52.5C 129.313,51.242 126.98,50.242 124.5,49.5C 124.491,47.6916 124.991,46.0249 126,44.5C 127.037,47.3838 128.871,48.0504 131.5,46.5C 131.291,45.914 130.957,45.414 130.5,45C 132.076,44.5604 133.41,43.727 134.5,42.5C 137.208,44.4357 140.208,44.9357 143.5,44C 142.789,42.7453 141.956,41.5786 141,40.5C 140.237,35.5463 138.737,30.8797 136.5,26.5C 137.5,25.1667 138.5,23.8333 139.5,22.5C 139.376,21.8933 139.043,21.56 138.5,21.5C 139.167,20.5 139.833,19.5 140.5,18.5 Z"/></g>
<g><path style="opacity:1" fill="#b09835" d="M 139.5,8.5 C 140.609,8.55688 141.609,8.89022 142.5,9.5C 142.037,12.221 141.371,14.8877 140.5,17.5C 137.821,17.5246 136.488,18.858 136.5,21.5C 135.448,21.3505 134.448,21.5172 133.5,22C 131.728,25.3049 129.062,27.4716 125.5,28.5C 126.774,23.4015 130.107,20.5681 135.5,20C 134.956,19.2828 134.289,18.7828 133.5,18.5C 133.167,17.8333 132.833,17.1667 132.5,16.5C 135.461,14.5296 137.794,11.8629 139.5,8.5 Z"/></g>
<g><path style="opacity:1" fill="#82b8d0" d="M 245.5,31.5 C 246.872,32.5116 248.205,33.5116 249.5,34.5C 249.631,35.3764 249.298,36.0431 248.5,36.5C 245.78,35.1401 243.114,33.8068 240.5,32.5C 237.833,30.5 235.167,28.5 232.5,26.5C 232.369,25.6236 232.702,24.9569 233.5,24.5C 237.528,26.845 241.528,29.1783 245.5,31.5 Z"/></g>
<g><path style="opacity:1" fill="#050506" d="M 255.5,25.5 C 255.5,29.8333 255.5,34.1667 255.5,38.5C 253.246,37.5849 251.246,36.2516 249.5,34.5C 248.205,33.5116 246.872,32.5116 245.5,31.5C 248.466,29.0116 251.799,27.0116 255.5,25.5 Z"/></g>
<g><path style="opacity:1" fill="#807f7a" d="M 177.5,17.5 C 176.624,17.3691 175.957,17.7025 175.5,18.5C 177.15,23.7686 178.484,29.102 179.5,34.5C 174.532,32.5291 170.865,29.1958 168.5,24.5C 170.719,22.4245 172.719,20.0912 174.5,17.5C 175.614,16.2241 176.614,16.2241 177.5,17.5 Z"/></g>
<g><path style="opacity:1" fill="#85939f" d="M 75.5,19.5 C 73.6453,19.272 72.8119,19.9387 73,21.5C 78.65,25.3217 83.8166,29.6551 88.5,34.5C 87.1722,36.7446 85.3388,37.0779 83,35.5C 82.338,37.8127 81.838,40.146 81.5,42.5C 80.596,41.791 80.2627,40.791 80.5,39.5C 79.3077,37.8869 78.3077,36.2202 77.5,34.5C 76.2768,30.9505 74.2768,27.9505 71.5,25.5C 70.7577,23.5742 69.7577,21.7409 68.5,20C 70.7202,16.8563 73.0535,16.6896 75.5,19.5 Z"/></g>
<g><path style="opacity:1" fill="#111416" d="M 35.5,27.5 C 40.0628,29.5286 44.3961,32.0286 48.5,35C 47.2875,37.2619 45.9541,39.4285 44.5,41.5C 41.5885,39.1977 39.2552,36.3644 37.5,33C 36.2559,32.5439 35.4226,33.0439 35,34.5C 34.3581,32.2381 33.5248,30.0715 32.5,28C 28.1667,27.3333 23.8333,27.3333 19.5,28C 17.261,32.3145 15.4277,36.8145 14,41.5C 9.28629,45.0539 4.45295,48.3872 -0.5,51.5C -0.5,44.1667 -0.5,36.8333 -0.5,29.5C 3.55317,28.6505 7.55317,27.4838 11.5,26C 19.7662,24.9183 27.7662,25.4183 35.5,27.5 Z"/></g>
<g><path style="opacity:1" fill="#f3ef63" d="M 116.5,27.5 C 116.607,29.3786 116.107,29.7119 115,28.5C 112.113,29.5478 109.613,31.2145 107.5,33.5C 104.557,32.0248 101.891,32.3581 99.5,34.5C 101.239,31.59 103.572,29.09 106.5,27C 109.924,26.2534 113.257,26.42 116.5,27.5 Z"/></g>
<g><path style="opacity:1" fill="#c5e4ef" d="M 146.5,-0.5 C 148.167,-0.5 149.833,-0.5 151.5,-0.5C 154.49,2.99052 157.657,6.32385 161,9.5C 163.979,14.2759 166.479,19.2759 168.5,24.5C 170.865,29.1958 174.532,32.5291 179.5,34.5C 180.833,35.5 182.167,36.5 183.5,37.5C 185.773,37.9568 187.106,39.2901 187.5,41.5C 187.177,48.0221 187.51,54.3554 188.5,60.5C 188.813,64.0419 188.479,67.3752 187.5,70.5C 184.722,70.0217 182.722,71.0217 181.5,73.5C 179.132,71.777 176.466,71.1103 173.5,71.5C 173.827,62.3178 173.493,53.3178 172.5,44.5C 170.5,41.8333 168.167,39.5 165.5,37.5C 165.804,36.8501 166.137,36.1835 166.5,35.5C 164.429,34.0241 163.429,32.0241 163.5,29.5C 162.325,29.719 161.325,29.3857 160.5,28.5C 158.921,25.0061 157.087,21.6728 155,18.5C 153.783,16.4798 153.617,14.4798 154.5,12.5C 152.114,7.92423 149.447,3.59089 146.5,-0.5 Z"/></g>
<g><path style="opacity:1" fill="#373f46" d="M 58.5,53.5 C 59.4916,53.3284 60.1583,53.6618 60.5,54.5C 55.3844,54.431 50.3844,55.0976 45.5,56.5C 44.674,54.7356 43.3407,53.4023 41.5,52.5C 45.718,44.778 50.5513,37.4447 56,30.5C 57.1058,33.9917 56.1058,36.6583 53,38.5C 51.2257,41.7148 49.7257,45.0482 48.5,48.5C 50.8304,52.061 54.1638,53.7277 58.5,53.5 Z"/></g>
<g><path style="opacity:1" fill="#597784" d="M 77.5,34.5 C 78.3077,36.2202 79.3077,37.8869 80.5,39.5C 76.772,36.4411 72.772,33.7744 68.5,31.5C 65.5743,28.6828 62.5743,25.8494 59.5,23C 60.4162,22.6258 61.2496,22.1258 62,21.5C 66.3314,26.6509 71.4981,30.9843 77.5,34.5 Z"/></g>
<g><path style="opacity:1" fill="#c1d4d9" d="M 75.5,19.5 C 79.3431,22.5025 83.3431,25.3359 87.5,28C 89.7059,30.0367 91.7059,32.2034 93.5,34.5C 93.719,35.675 93.3857,36.675 92.5,37.5C 91.4305,36.0905 90.0972,35.0905 88.5,34.5C 83.8166,29.6551 78.65,25.3217 73,21.5C 72.8119,19.9387 73.6453,19.272 75.5,19.5 Z"/></g>
<g><path style="opacity:1" fill="#dcc93a" d="M 116.5,27.5 C 116.833,27.5 117.167,27.5 117.5,27.5C 119.081,29.1417 119.747,31.1417 119.5,33.5C 118.957,36.0384 117.957,38.3718 116.5,40.5C 114.656,39.8397 112.99,38.8397 111.5,37.5C 106.698,36.1393 102.031,36.4727 97.5,38.5C 97.6596,36.847 98.3263,35.5137 99.5,34.5C 101.891,32.3581 104.557,32.0248 107.5,33.5C 109.613,31.2145 112.113,29.5478 115,28.5C 116.107,29.7119 116.607,29.3786 116.5,27.5 Z"/></g>
<g><path style="opacity:1" fill="#87b6ca" d="M 177.5,17.5 C 180.407,22.4404 182.407,27.7737 183.5,33.5C 183.5,33.8333 183.5,34.1667 183.5,34.5C 183.5,35.5 183.5,36.5 183.5,37.5C 182.167,36.5 180.833,35.5 179.5,34.5C 178.484,29.102 177.15,23.7686 175.5,18.5C 175.957,17.7025 176.624,17.3691 177.5,17.5 Z"/></g>
<g><path style="opacity:1" fill="#1e180f" d="M 229.5,-0.5 C 230.167,-0.5 230.833,-0.5 231.5,-0.5C 232.005,2.84115 232.172,6.17448 232,9.5C 229.75,13.6682 227.25,17.6682 224.5,21.5C 225.326,22.451 225.492,23.451 225,24.5C 216.558,34.433 208.724,44.7663 201.5,55.5C 202.997,59.8204 205.497,63.487 209,66.5C 213.546,59.2785 218.879,52.6118 225,46.5C 227.998,43.1704 230.498,39.5037 232.5,35.5C 233.609,34.4104 234.609,34.4104 235.5,35.5C 238.206,37.5237 239.539,40.1903 239.5,43.5C 236.143,43.7394 233.476,45.0728 231.5,47.5C 225.577,55.2677 219.41,62.9344 213,70.5C 212.517,71.448 212.351,72.448 212.5,73.5C 210.712,73.7852 209.045,73.4519 207.5,72.5C 203.773,66.7991 199.773,61.4658 195.5,56.5C 195.5,56.1667 195.5,55.8333 195.5,55.5C 197.918,54.2969 199.918,52.6303 201.5,50.5C 201.405,48.1309 200.405,46.4642 198.5,45.5C 196.181,45.0075 194.181,44.0075 192.5,42.5C 189.526,39.8621 186.526,37.1954 183.5,34.5C 183.5,34.1667 183.5,33.8333 183.5,33.5C 190.35,23.1311 196.684,12.4645 202.5,1.5C 203.091,2.15149 203.757,2.81815 204.5,3.5C 203.512,6.45009 202.679,9.45009 202,12.5C 198.342,19.976 195.176,27.6426 192.5,35.5C 193.853,36.5237 194.52,37.857 194.5,39.5C 198.833,39.5 203.167,39.5 207.5,39.5C 208.159,36.5448 208.492,33.5448 208.5,30.5C 212.25,30.4962 212.917,29.4962 210.5,27.5C 211.873,27.6567 213.207,27.49 214.5,27C 220.135,22.3713 224.635,16.8713 228,10.5C 229.516,6.80642 230.016,3.13975 229.5,-0.5 Z"/></g>
<g><path style="opacity:1" fill="#252b2f" d="M 57.5,14.5 C 62.1667,18.1667 66.8333,21.8333 71.5,25.5C 74.2768,27.9505 76.2768,30.9505 77.5,34.5C 71.4981,30.9843 66.3314,26.6509 62,21.5C 61.2496,22.1258 60.4162,22.6258 59.5,23C 62.5743,25.8494 65.5743,28.6828 68.5,31.5C 65.1486,38.3618 61.1486,44.8618 56.5,51C 57.3805,51.7083 58.0472,52.5416 58.5,53.5C 54.1638,53.7277 50.8304,52.061 48.5,48.5C 49.7257,45.0482 51.2257,41.7148 53,38.5C 56.1058,36.6583 57.1058,33.9917 56,30.5C 50.5513,37.4447 45.718,44.778 41.5,52.5C 40.3734,51.8783 39.3734,51.045 38.5,50C 40.7195,47.2872 42.7195,44.4539 44.5,41.5C 45.9541,39.4285 47.2875,37.2619 48.5,35C 44.3961,32.0286 40.0628,29.5286 35.5,27.5C 37.9372,27.7563 40.2706,28.4229 42.5,29.5C 44.1112,28.6798 44.7778,27.3464 44.5,25.5C 48.6049,25.7662 52.6049,25.2662 56.5,24C 57.3052,22.0283 58.6385,20.5283 60.5,19.5C 58.812,18.4787 57.4787,17.1454 56.5,15.5C 57.1667,15.5 57.5,15.1667 57.5,14.5 Z"/></g>
<g><path style="opacity:1" fill="#634f2f" d="M 183.5,34.5 C 186.526,37.1954 189.526,39.8621 192.5,42.5C 190.883,41.962 189.216,41.6287 187.5,41.5C 187.106,39.2901 185.773,37.9568 183.5,37.5C 183.5,36.5 183.5,35.5 183.5,34.5 Z"/></g>
<g><path style="opacity:1" fill="#1c100b" d="M 68.5,31.5 C 72.772,33.7744 76.772,36.4411 80.5,39.5C 80.2627,40.791 80.596,41.791 81.5,42.5C 81.8511,45.9032 82.5178,49.2365 83.5,52.5C 83.5858,53.4959 83.2524,54.3292 82.5,55C 77.3521,55.963 72.1854,56.7963 67,57.5C 64.2821,57.4363 62.1155,56.4363 60.5,54.5C 60.1583,53.6618 59.4916,53.3284 58.5,53.5C 58.0472,52.5416 57.3805,51.7083 56.5,51C 61.1486,44.8618 65.1486,38.3618 68.5,31.5 Z"/></g>
<g><path style="opacity:1" fill="#c0d6df" d="M 138.5,21.5 C 139.043,21.56 139.376,21.8933 139.5,22.5C 138.5,23.8333 137.5,25.1667 136.5,26.5C 138.737,30.8797 140.237,35.5463 141,40.5C 141.956,41.5786 142.789,42.7453 143.5,44C 140.208,44.9357 137.208,44.4357 134.5,42.5C 133.41,43.727 132.076,44.5604 130.5,45C 130.957,45.414 131.291,45.914 131.5,46.5C 128.871,48.0504 127.037,47.3838 126,44.5C 124.991,46.0249 124.491,47.6916 124.5,49.5C 124.833,50.8333 125.167,52.1667 125.5,53.5C 124.5,53.5 123.5,53.5 122.5,53.5C 121.167,50.8333 119.833,48.1667 118.5,45.5C 116.901,45.7678 115.568,45.4345 114.5,44.5C 114.5,44.1667 114.5,43.8333 114.5,43.5C 115.167,42.5 115.833,41.5 116.5,40.5C 124.499,34.8266 131.833,28.4932 138.5,21.5 Z"/></g>
<g><path style="opacity:1" fill="#0f1112" d="M 231.5,-0.5 C 232.167,-0.5 232.833,-0.5 233.5,-0.5C 233.715,6.63384 232.882,13.6338 231,20.5C 229.697,21.1122 228.53,21.4455 227.5,21.5C 229.401,23.0063 231.068,24.6729 232.5,26.5C 235.167,28.5 237.833,30.5 240.5,32.5C 242.144,34.4807 243.81,36.4807 245.5,38.5C 244.975,39.1924 244.308,39.6924 243.5,40C 244.252,40.6708 244.586,41.5041 244.5,42.5C 243.041,42.4326 241.708,42.7659 240.5,43.5C 240.167,43.5 239.833,43.5 239.5,43.5C 239.539,40.1903 238.206,37.5237 235.5,35.5C 234.609,34.4104 233.609,34.4104 232.5,35.5C 230.498,39.5037 227.998,43.1704 225,46.5C 218.879,52.6118 213.546,59.2785 209,66.5C 205.497,63.487 202.997,59.8204 201.5,55.5C 208.724,44.7663 216.558,34.433 225,24.5C 225.492,23.451 225.326,22.451 224.5,21.5C 227.25,17.6682 229.75,13.6682 232,9.5C 232.172,6.17448 232.005,2.84115 231.5,-0.5 Z"/></g>
<g><path style="opacity:1" fill="#2d373c" d="M 240.5,32.5 C 243.114,33.8068 245.78,35.1401 248.5,36.5C 249.298,36.0431 249.631,35.3764 249.5,34.5C 251.246,36.2516 253.246,37.5849 255.5,38.5C 255.5,38.8333 255.5,39.1667 255.5,39.5C 251.717,40.1224 248.05,41.1224 244.5,42.5C 244.586,41.5041 244.252,40.6708 243.5,40C 244.308,39.6924 244.975,39.1924 245.5,38.5C 243.81,36.4807 242.144,34.4807 240.5,32.5 Z"/></g>
<g><path style="opacity:1" fill="#739bae" d="M 255.5,39.5 C 255.5,40.5 255.5,41.5 255.5,42.5C 250.972,42.9619 246.472,43.6286 242,44.5C 241.235,44.4301 240.735,44.0967 240.5,43.5C 241.708,42.7659 243.041,42.4326 244.5,42.5C 248.05,41.1224 251.717,40.1224 255.5,39.5 Z"/></g>
<g><path style="opacity:1" fill="#98a9b6" d="M 88.5,34.5 C 90.0972,35.0905 91.4305,36.0905 92.5,37.5C 93.3857,36.675 93.719,35.675 93.5,34.5C 94.391,35.1098 95.391,35.4431 96.5,35.5C 96.2627,36.791 96.596,37.791 97.5,38.5C 97.7376,40.4044 98.7376,41.7377 100.5,42.5C 101.752,44.0009 102.752,45.6675 103.5,47.5C 103.231,50.5255 104.064,53.1922 106,55.5C 106.805,58.6965 106.638,61.6965 105.5,64.5C 105.291,63.0783 104.791,61.745 104,60.5C 101.522,58.3606 99.0216,56.3606 96.5,54.5C 94.6568,53.7171 92.6568,53.0505 90.5,52.5C 89.0295,53.3805 88.1962,54.7139 88,56.5C 86.6288,54.9586 85.1288,53.6253 83.5,52.5C 82.5178,49.2365 81.8511,45.9032 81.5,42.5C 81.838,40.146 82.338,37.8127 83,35.5C 85.3388,37.0779 87.1722,36.7446 88.5,34.5 Z"/></g>
<g><path style="opacity:1" fill="#29343a" d="M 44.5,41.5 C 42.7195,44.4539 40.7195,47.2872 38.5,50C 39.3734,51.045 40.3734,51.8783 41.5,52.5C 43.3407,53.4023 44.674,54.7356 45.5,56.5C 39.1136,57.5773 32.7803,58.9106 26.5,60.5C 20.9324,61.9623 15.2657,63.129 9.5,64C 8.42138,64.956 7.25471,65.7894 6,66.5C 6.98809,64.0801 6.65475,61.7467 5,59.5C 3.29617,61.3734 1.46283,63.0401 -0.5,64.5C -0.5,60.1667 -0.5,55.8333 -0.5,51.5C 4.45295,48.3872 9.28629,45.0539 14,41.5C 15.4277,36.8145 17.261,32.3145 19.5,28C 23.8333,27.3333 28.1667,27.3333 32.5,28C 33.5248,30.0715 34.3581,32.2381 35,34.5C 35.4226,33.0439 36.2559,32.5439 37.5,33C 39.2552,36.3644 41.5885,39.1977 44.5,41.5 Z"/></g>
<g><path style="opacity:1" fill="#b79e44" d="M 116.5,40.5 C 115.833,41.5 115.167,42.5 114.5,43.5C 112.473,43.6621 110.473,43.4955 108.5,43C 109.647,41.0964 109.147,39.5964 107,38.5C 105.118,39.0933 104.118,40.4267 104,42.5C 102.855,41.3157 101.688,41.3157 100.5,42.5C 98.7376,41.7377 97.7376,40.4044 97.5,38.5C 102.031,36.4727 106.698,36.1393 111.5,37.5C 112.99,38.8397 114.656,39.8397 116.5,40.5 Z"/></g>
<g><path style="opacity:1" fill="#a88857" d="M 114.5,43.5 C 114.5,43.8333 114.5,44.1667 114.5,44.5C 114.167,44.5 113.833,44.5 113.5,44.5C 110.341,45.3307 107.341,46.3307 104.5,47.5C 104.167,47.5 103.833,47.5 103.5,47.5C 102.752,45.6675 101.752,44.0009 100.5,42.5C 101.688,41.3157 102.855,41.3157 104,42.5C 104.118,40.4267 105.118,39.0933 107,38.5C 109.147,39.5964 109.647,41.0964 108.5,43C 110.473,43.4955 112.473,43.6621 114.5,43.5 Z"/></g>
<g><path style="opacity:1" fill="#808a96" d="M 145.5,1.5 C 145.5,3.5 145.5,5.5 145.5,7.5C 148.25,7.61803 150.25,8.95137 151.5,11.5C 152.452,16.6746 153.785,21.6746 155.5,26.5C 154.127,26.3433 152.793,26.51 151.5,27C 156.018,30.7524 160.684,34.2524 165.5,37.5C 168.167,39.5 170.5,41.8333 172.5,44.5C 173.483,59.4534 172.15,74.1201 168.5,88.5C 167.833,88.5 167.5,88.1667 167.5,87.5C 166.701,83.5556 167.034,79.5556 168.5,75.5C 166.64,74.0613 164.973,72.3947 163.5,70.5C 164.476,68.8767 163.976,67.5433 162,66.5C 163.601,58.9131 160.934,53.9131 154,51.5C 150.275,52.4948 146.608,52.1615 143,50.5C 141.469,51.2173 140.136,52.2173 139,53.5C 137.989,52.9444 137.156,52.2778 136.5,51.5C 137.234,50.2921 137.567,48.9587 137.5,47.5C 135.692,47.5086 134.025,47.0086 132.5,46C 133,45.8333 133.5,45.6667 134,45.5C 138.817,45.457 143.65,45.7904 148.5,46.5C 148.288,40.9632 148.622,35.4632 149.5,30C 146.21,26.2322 143.21,22.3988 140.5,18.5C 140.5,18.1667 140.5,17.8333 140.5,17.5C 141.371,14.8877 142.037,12.221 142.5,9.5C 143.512,6.74791 144.512,4.08124 145.5,1.5 Z"/></g>
<g><path style="opacity:1" fill="#82afc8" d="M 187.5,41.5 C 189.216,41.6287 190.883,41.962 192.5,42.5C 194.181,44.0075 196.181,45.0075 198.5,45.5C 198.53,46.4972 198.03,47.1639 197,47.5C 194.02,48.4356 191.186,49.4356 188.5,50.5C 188.5,53.5 188.5,56.5 188.5,59.5C 188.5,59.8333 188.5,60.1667 188.5,60.5C 187.51,54.3554 187.177,48.0221 187.5,41.5 Z"/></g>
<g><path style="opacity:1" fill="#5f3c13" d="M 113.5,44.5 C 112.974,46.2303 111.974,47.5637 110.5,48.5C 110.565,48.0618 110.399,47.7284 110,47.5C 109.066,48.8584 108.232,50.1917 107.5,51.5C 106.512,50.205 105.512,48.8717 104.5,47.5C 107.341,46.3307 110.341,45.3307 113.5,44.5 Z"/></g>
<g><path style="opacity:1" fill="#26282b" d="M 255.5,42.5 C 255.5,49.8333 255.5,57.1667 255.5,64.5C 246.881,66.1123 238.214,67.4457 229.5,68.5C 229.05,61.3511 229.716,54.3511 231.5,47.5C 233.476,45.0728 236.143,43.7394 239.5,43.5C 239.833,43.5 240.167,43.5 240.5,43.5C 240.735,44.0967 241.235,44.4301 242,44.5C 246.472,43.6286 250.972,42.9619 255.5,42.5 Z"/></g>
<g><path style="opacity:1" fill="#757d80" d="M 113.5,44.5 C 113.833,44.5 114.167,44.5 114.5,44.5C 115.568,45.4345 116.901,45.7678 118.5,45.5C 119.833,48.1667 121.167,50.8333 122.5,53.5C 123.5,53.5 124.5,53.5 125.5,53.5C 125.833,53.5 126.167,53.5 126.5,53.5C 125.89,54.391 125.557,55.391 125.5,56.5C 123.75,57.6594 122.75,59.326 122.5,61.5C 121.213,62.7683 120.213,62.435 119.5,60.5C 118.438,61.4246 118.438,62.4246 119.5,63.5C 118.984,65.1998 117.984,66.5331 116.5,67.5C 115.347,64.5539 114.347,61.5539 113.5,58.5C 111.493,56.9918 109.826,55.1584 108.5,53C 110.107,51.951 110.773,50.451 110.5,48.5C 111.974,47.5637 112.974,46.2303 113.5,44.5 Z"/></g>
<g><path style="opacity:1" fill="#b2c7d2" d="M 175.5,42.5 C 177.167,42.5 178.833,42.5 180.5,42.5C 181.358,50.1322 181.691,57.7989 181.5,65.5C 182.978,65.238 184.311,65.5713 185.5,66.5C 182.872,68.6327 180.039,68.966 177,67.5C 176.519,59.1603 176.019,50.827 175.5,42.5 Z"/></g>
<g><path style="opacity:1" fill="#596578" d="M 198.5,45.5 C 200.405,46.4642 201.405,48.1309 201.5,50.5C 199.918,52.6303 197.918,54.2969 195.5,55.5C 194.292,56.2341 192.959,56.5674 191.5,56.5C 191.969,53.6067 190.969,51.6067 188.5,50.5C 191.186,49.4356 194.02,48.4356 197,47.5C 198.03,47.1639 198.53,46.4972 198.5,45.5 Z"/></g>
<g><path style="opacity:1" fill="#1c303f" d="M 188.5,50.5 C 190.969,51.6067 191.969,53.6067 191.5,56.5C 192.959,56.5674 194.292,56.2341 195.5,55.5C 195.5,55.8333 195.5,56.1667 195.5,56.5C 195.5,58.5 195.5,60.5 195.5,62.5C 195.649,63.552 195.483,64.552 195,65.5C 194.319,62.3993 193.485,60.0659 192.5,58.5C 191.167,58.8333 189.833,59.1667 188.5,59.5C 188.5,56.5 188.5,53.5 188.5,50.5 Z"/></g>
<g><path style="opacity:1" fill="#63606d" d="M 167.5,87.5 C 163.363,87.8537 159.363,87.3537 155.5,86C 153.552,84.561 152.219,82.7277 151.5,80.5C 151.453,78.9623 152.12,77.9623 153.5,77.5C 156.285,77.067 158.619,75.7337 160.5,73.5C 160.405,68.5864 160.239,63.5864 160,58.5C 158.985,62.4402 158.485,66.4402 158.5,70.5C 157.167,70.5 155.833,70.5 154.5,70.5C 154.5,67.5 154.5,64.5 154.5,61.5C 151.119,61.5405 147.786,61.2071 144.5,60.5C 140.334,57.5825 136.001,54.9159 131.5,52.5C 133.415,52.7845 135.081,52.4511 136.5,51.5C 137.156,52.2778 137.989,52.9444 139,53.5C 140.136,52.2173 141.469,51.2173 143,50.5C 146.608,52.1615 150.275,52.4948 154,51.5C 160.934,53.9131 163.601,58.9131 162,66.5C 163.976,67.5433 164.476,68.8767 163.5,70.5C 164.973,72.3947 166.64,74.0613 168.5,75.5C 167.034,79.5556 166.701,83.5556 167.5,87.5 Z"/></g>
<g><path style="opacity:1" fill="#7e1409" d="M 60.5,57.5 C 60.2294,59.4305 59.2294,60.7638 57.5,61.5C 54.1721,62.5042 50.8387,63.5042 47.5,64.5C 47.1667,63.8333 46.8333,63.1667 46.5,62.5C 47.3589,59.5479 49.3589,57.7146 52.5,57C 55.367,56.1993 58.0336,56.3659 60.5,57.5 Z"/></g>
<g><path style="opacity:1" fill="#e0c643" d="M 126.5,53.5 C 128.5,54.8333 130.5,56.1667 132.5,57.5C 132.5,59.8333 132.5,62.1667 132.5,64.5C 131.5,64.5 130.5,64.5 129.5,64.5C 129.452,61.3648 127.785,59.6981 124.5,59.5C 125.127,58.5832 125.461,57.5832 125.5,56.5C 125.557,55.391 125.89,54.391 126.5,53.5 Z"/></g>
<g><path style="opacity:1" fill="#020303" d="M 231.5,47.5 C 229.716,54.3511 229.05,61.3511 229.5,68.5C 238.214,67.4457 246.881,66.1123 255.5,64.5C 255.5,90.8333 255.5,117.167 255.5,143.5C 246.167,143.5 236.833,143.5 227.5,143.5C 227.833,142.833 228.167,142.167 228.5,141.5C 230.96,137.228 232.293,132.561 232.5,127.5C 233.756,125.274 233.756,122.941 232.5,120.5C 232.437,115.872 230.437,112.372 226.5,110C 233.333,109.971 239.5,112.471 245,117.5C 248.052,114.15 249.219,110.483 248.5,106.5C 247.788,104.072 246.788,101.739 245.5,99.5C 242.779,97.8121 240.112,96.1454 237.5,94.5C 237.063,92.9256 236.063,91.7589 234.5,91C 229.248,87.2168 223.915,84.3835 218.5,82.5C 219.981,83.4803 221.315,84.647 222.5,86C 221.906,86.4643 221.239,86.631 220.5,86.5C 219.833,86.5 219.167,86.5 218.5,86.5C 214.151,83.6589 209.484,81.3255 204.5,79.5C 203.5,79.1667 202.833,78.5 202.5,77.5C 202.665,74.1501 202.498,70.8168 202,67.5C 201.617,66.944 201.117,66.6107 200.5,66.5C 199.763,64.6954 198.763,63.0287 197.5,61.5C 196.817,61.8627 196.15,62.1961 195.5,62.5C 195.5,60.5 195.5,58.5 195.5,56.5C 199.773,61.4658 203.773,66.7991 207.5,72.5C 209.045,73.4519 210.712,73.7852 212.5,73.5C 212.351,72.448 212.517,71.448 213,70.5C 219.41,62.9344 225.577,55.2677 231.5,47.5 Z"/></g>
<g><path style="opacity:1" fill="#9d9883" d="M 91.5,56.5 C 91.5,57.1667 91.5,57.8333 91.5,58.5C 89.321,58.84 87.4877,59.84 86,61.5C 84.6068,65.6276 84.4401,69.6276 85.5,73.5C 86.3585,77.8896 88.6919,81.2229 92.5,83.5C 92.9731,84.9063 93.9731,85.573 95.5,85.5C 94.6935,86.7281 93.6935,87.7281 92.5,88.5C 88.596,87.7185 86.2627,85.3852 85.5,81.5C 84.5929,78.9416 83.5929,76.4416 82.5,74C 82.9434,72.175 83.2767,70.3417 83.5,68.5C 83.5,67.5 83.5,66.5 83.5,65.5C 84.1646,63.6309 84.8313,61.6309 85.5,59.5C 87.5266,58.4867 89.5266,57.4867 91.5,56.5 Z"/></g>
<g><path style="opacity:1" fill="#180b07" d="M 83.5,65.5 C 83.5,66.5 83.5,67.5 83.5,68.5C 82.2719,67.6935 81.2719,66.6935 80.5,65.5C 79.937,62.7052 78.6037,60.3718 76.5,58.5C 78.7014,57.4336 81.0347,56.767 83.5,56.5C 83.5,59.5 83.5,62.5 83.5,65.5 Z"/></g>
<g><path style="opacity:1" fill="#7fa8c5" d="M 46.5,62.5 C 46.8333,63.1667 47.1667,63.8333 47.5,64.5C 47.5,64.8333 47.5,65.1667 47.5,65.5C 46.2058,64.7101 45.0391,63.7101 44,62.5C 37.6445,64.0639 31.1445,64.8973 24.5,65C 23.5291,66.4813 22.1958,67.3146 20.5,67.5C 19.5,66.8333 18.5,66.1667 17.5,65.5C 20.0534,63.4163 23.0534,62.083 26.5,61.5C 31.9998,60.9697 37.4998,60.6364 43,60.5C 44.4343,60.8618 45.6009,61.5285 46.5,62.5 Z"/></g>
<g><path style="opacity:1" fill="#c6a759" d="M 125.5,56.5 C 125.461,57.5832 125.127,58.5832 124.5,59.5C 127.785,59.6981 129.452,61.3648 129.5,64.5C 129.5,64.8333 129.5,65.1667 129.5,65.5C 126.599,64.8928 124.266,63.5595 122.5,61.5C 122.75,59.326 123.75,57.6594 125.5,56.5 Z"/></g>
<g><path style="opacity:1" fill="#42505e" d="M 26.5,60.5 C 26.5,60.8333 26.5,61.1667 26.5,61.5C 23.0534,62.083 20.0534,63.4163 17.5,65.5C 16.1266,65.3433 14.7932,65.51 13.5,66C 9.22462,69.3033 4.55796,71.8033 -0.5,73.5C -0.5,70.5 -0.5,67.5 -0.5,64.5C 1.46283,63.0401 3.29617,61.3734 5,59.5C 6.65475,61.7467 6.98809,64.0801 6,66.5C 7.25471,65.7894 8.42138,64.956 9.5,64C 15.2657,63.129 20.9324,61.9623 26.5,60.5 Z"/></g>
<g><path style="opacity:1" fill="#410b08" d="M 76.5,58.5 C 78.6037,60.3718 79.937,62.7052 80.5,65.5C 79.6016,66.1577 78.6016,66.8243 77.5,67.5C 76.8641,69.78 75.8641,71.78 74.5,73.5C 74.0237,71.9336 73.357,71.6002 72.5,72.5C 74.0208,77.7439 73.6875,82.7439 71.5,87.5C 71.3542,83.4809 71.0209,79.4809 70.5,75.5C 70.8432,73.5168 70.1765,72.1834 68.5,71.5C 68.3573,69.7376 68.6906,68.0709 69.5,66.5C 71.4986,64.5065 72.9986,62.1732 74,59.5C 74.6708,58.7476 75.5041,58.4142 76.5,58.5 Z"/></g>
<g><path style="opacity:1" fill="#652427" d="M 57.5,61.5 C 55.545,64.3211 53.8784,67.3211 52.5,70.5C 51.0613,68.6397 49.3947,66.973 47.5,65.5C 47.5,65.1667 47.5,64.8333 47.5,64.5C 50.8387,63.5042 54.1721,62.5042 57.5,61.5 Z"/></g>
<g><path style="opacity:1" fill="#757d81" d="M 103.5,47.5 C 103.833,47.5 104.167,47.5 104.5,47.5C 105.512,48.8717 106.512,50.205 107.5,51.5C 108.737,55.4968 108.737,59.4968 107.5,63.5C 109.269,67.0924 109.603,70.7591 108.5,74.5C 107.522,74.0233 106.689,73.3567 106,72.5C 106.223,69.7428 106.056,67.0761 105.5,64.5C 106.638,61.6965 106.805,58.6965 106,55.5C 104.064,53.1922 103.231,50.5255 103.5,47.5 Z"/></g>
<g><path style="opacity:1" fill="#342229" d="M 60.5,57.5 C 63.0365,59.7159 66.0365,60.8826 69.5,61C 66.7513,62.1227 64.2513,63.6227 62,65.5C 61.1368,67.7489 61.6368,69.5822 63.5,71C 62.8921,71.8699 62.0588,72.3699 61,72.5C 58.0044,71.9646 55.1711,71.2979 52.5,70.5C 53.8784,67.3211 55.545,64.3211 57.5,61.5C 59.2294,60.7638 60.2294,59.4305 60.5,57.5 Z"/></g>
<g><path style="opacity:1" fill="#657585" d="M 83.5,52.5 C 85.1288,53.6253 86.6288,54.9586 88,56.5C 88.1962,54.7139 89.0295,53.3805 90.5,52.5C 92.6568,53.0505 94.6568,53.7171 96.5,54.5C 95.5084,54.3284 94.8417,54.6618 94.5,55.5C 93.209,55.2627 92.209,55.596 91.5,56.5C 89.5266,57.4867 87.5266,58.4867 85.5,59.5C 84.8313,61.6309 84.1646,63.6309 83.5,65.5C 83.5,62.5 83.5,59.5 83.5,56.5C 81.0347,56.767 78.7014,57.4336 76.5,58.5C 75.5041,58.4142 74.6708,58.7476 74,59.5C 72.9986,62.1732 71.4986,64.5065 69.5,66.5C 68.6906,68.0709 68.3573,69.7376 68.5,71.5C 67.5655,72.5676 67.2322,73.901 67.5,75.5C 66.1779,75.67 65.0113,75.3366 64,74.5C 63.5172,75.448 63.3505,76.448 63.5,77.5C 55.3966,77.1494 50.0633,73.1494 47.5,65.5C 49.3947,66.973 51.0613,68.6397 52.5,70.5C 55.1711,71.2979 58.0044,71.9646 61,72.5C 62.0588,72.3699 62.8921,71.8699 63.5,71C 61.6368,69.5822 61.1368,67.7489 62,65.5C 64.2513,63.6227 66.7513,62.1227 69.5,61C 66.0365,60.8826 63.0365,59.7159 60.5,57.5C 58.0336,56.3659 55.367,56.1993 52.5,57C 49.3589,57.7146 47.3589,59.5479 46.5,62.5C 45.6009,61.5285 44.4343,60.8618 43,60.5C 37.4998,60.6364 31.9998,60.9697 26.5,61.5C 26.5,61.1667 26.5,60.8333 26.5,60.5C 32.7803,58.9106 39.1136,57.5773 45.5,56.5C 50.3844,55.0976 55.3844,54.431 60.5,54.5C 62.1155,56.4363 64.2821,57.4363 67,57.5C 72.1854,56.7963 77.3521,55.963 82.5,55C 83.2524,54.3292 83.5858,53.4959 83.5,52.5 Z"/></g>
<g><path style="opacity:1" fill="#896c47" d="M 122.5,61.5 C 124.266,63.5595 126.599,64.8928 129.5,65.5C 131.226,67.8201 131.893,70.4867 131.5,73.5C 130.07,73.4208 128.736,73.7542 127.5,74.5C 125.677,73.2528 123.677,72.5861 121.5,72.5C 120.192,69.3735 119.525,66.3735 119.5,63.5C 118.438,62.4246 118.438,61.4246 119.5,60.5C 120.213,62.435 121.213,62.7683 122.5,61.5 Z"/></g>
<g><path style="opacity:1" fill="#61555b" d="M 47.5,65.5 C 50.0633,73.1494 55.3966,77.1494 63.5,77.5C 63.3505,76.448 63.5172,75.448 64,74.5C 65.0113,75.3366 66.1779,75.67 67.5,75.5C 67.5524,79.1981 67.8857,82.8648 68.5,86.5C 65.0504,87.2436 63.3838,85.9103 63.5,82.5C 59.6877,81.6762 55.6877,81.1762 51.5,81C 48.9627,78.0937 46.796,74.927 45,71.5C 44.0228,70.2264 43.1894,70.2264 42.5,71.5C 34.8508,72.3546 27.1841,73.0213 19.5,73.5C 19.8543,70.5065 18.8543,69.5065 16.5,70.5C 16.5,69.5 16.5,68.5 16.5,67.5C 17.8333,67.5 19.1667,67.5 20.5,67.5C 22.1958,67.3146 23.5291,66.4813 24.5,65C 31.1445,64.8973 37.6445,64.0639 44,62.5C 45.0391,63.7101 46.2058,64.7101 47.5,65.5 Z"/></g>
<g><path style="opacity:1" fill="#808aa4" d="M 17.5,65.5 C 18.5,66.1667 19.5,66.8333 20.5,67.5C 19.1667,67.5 17.8333,67.5 16.5,67.5C 16.5,68.5 16.5,69.5 16.5,70.5C 15.3501,73.1458 13.3501,74.9791 10.5,76C 6.84841,76.4986 3.18174,76.6653 -0.5,76.5C -0.5,75.5 -0.5,74.5 -0.5,73.5C 4.55796,71.8033 9.22462,69.3033 13.5,66C 14.7932,65.51 16.1266,65.3433 17.5,65.5 Z"/></g>
<g><path style="opacity:1" fill="#926542" d="M 99.5,82.5 C 98.1667,83.5 96.8333,84.5 95.5,85.5C 93.9731,85.573 92.9731,84.9063 92.5,83.5C 100.339,76.2267 100.339,68.7267 92.5,61C 90.255,61.1953 88.4216,62.3619 87,64.5C 86.0467,67.4318 85.5467,70.4318 85.5,73.5C 84.4401,69.6276 84.6068,65.6276 86,61.5C 87.4877,59.84 89.321,58.84 91.5,58.5C 93.2741,57.119 94.7741,57.4523 96,59.5C 97.8998,63.4774 99.3998,67.644 100.5,72C 99.6308,75.6014 99.2975,79.1014 99.5,82.5 Z"/></g>
<g><path style="opacity:1" fill="#f9f275" d="M 92.5,83.5 C 88.6919,81.2229 86.3585,77.8896 85.5,73.5C 85.5467,70.4318 86.0467,67.4318 87,64.5C 88.4216,62.3619 90.255,61.1953 92.5,61C 100.339,68.7267 100.339,76.2267 92.5,83.5 Z"/></g>
<g><path style="opacity:1" fill="#743e47" d="M 42.5,71.5 C 45.3229,74.4751 47.6563,77.8084 49.5,81.5C 48.9084,84.1272 48.5751,86.7938 48.5,89.5C 46.8639,88.2511 45.6972,86.5844 45,84.5C 44.6012,84.7284 44.4346,85.0618 44.5,85.5C 43.3907,81.3117 42.0574,77.3117 40.5,73.5C 36.9419,73.4052 33.9419,74.5718 31.5,77C 32.9442,79.0345 34.9442,79.8678 37.5,79.5C 40.9103,79.3838 42.2436,81.0504 41.5,84.5C 40.5732,82.4238 38.9065,81.2572 36.5,81C 32.8333,80.6667 29.1667,80.3333 25.5,80C 18.6498,75.6796 11.6498,75.513 4.5,79.5C 2.7839,79.3713 1.11723,79.038 -0.5,78.5C -0.5,77.8333 -0.5,77.1667 -0.5,76.5C 3.18174,76.6653 6.84841,76.4986 10.5,76C 13.3501,74.9791 15.3501,73.1458 16.5,70.5C 18.8543,69.5065 19.8543,70.5065 19.5,73.5C 27.1841,73.0213 34.8508,72.3546 42.5,71.5 Z"/></g>
<g><path style="opacity:1" fill="#1a1416" d="M 42.5,71.5 C 43.1894,70.2264 44.0228,70.2264 45,71.5C 46.796,74.927 48.9627,78.0937 51.5,81C 55.6877,81.1762 59.6877,81.6762 63.5,82.5C 58.5768,84.1406 53.9101,83.8073 49.5,81.5C 47.6563,77.8084 45.3229,74.4751 42.5,71.5 Z"/></g>
<g><path style="opacity:1" fill="#393133" d="M 110.5,48.5 C 110.773,50.451 110.107,51.951 108.5,53C 109.826,55.1584 111.493,56.9918 113.5,58.5C 114.347,61.5539 115.347,64.5539 116.5,67.5C 117.984,66.5331 118.984,65.1998 119.5,63.5C 119.525,66.3735 120.192,69.3735 121.5,72.5C 122.26,75.8562 124.26,77.8562 127.5,78.5C 123.66,77.6648 119.994,77.6648 116.5,78.5C 112.128,78.0637 108.294,76.397 105,73.5C 104.82,70.0445 104.153,66.7111 103,63.5C 100.297,60.6286 97.4639,57.9619 94.5,55.5C 94.8417,54.6618 95.5084,54.3284 96.5,54.5C 99.0216,56.3606 101.522,58.3606 104,60.5C 104.791,61.745 105.291,63.0783 105.5,64.5C 106.056,67.0761 106.223,69.7428 106,72.5C 106.689,73.3567 107.522,74.0233 108.5,74.5C 109.603,70.7591 109.269,67.0924 107.5,63.5C 108.737,59.4968 108.737,55.4968 107.5,51.5C 108.232,50.1917 109.066,48.8584 110,47.5C 110.399,47.7284 110.565,48.0618 110.5,48.5 Z"/></g>
<g><path style="opacity:1" fill="#a07927" d="M 132.5,57.5 C 133.5,57.8333 134.167,58.5 134.5,59.5C 133.765,64.7846 133.265,70.118 133,75.5C 132.722,74.5842 132.222,73.9175 131.5,73.5C 131.893,70.4867 131.226,67.8201 129.5,65.5C 129.5,65.1667 129.5,64.8333 129.5,64.5C 130.5,64.5 131.5,64.5 132.5,64.5C 132.5,62.1667 132.5,59.8333 132.5,57.5 Z"/></g>
<g><path style="opacity:1" fill="#766e6c" d="M 200.5,66.5 C 201.117,66.6107 201.617,66.944 202,67.5C 202.498,70.8168 202.665,74.1501 202.5,77.5C 201.5,77.5 200.5,77.5 199.5,77.5C 198.307,77.0296 197.64,76.0296 197.5,74.5C 197.737,71.4452 198.737,68.7785 200.5,66.5 Z"/></g>
<g><path style="opacity:1" fill="#44301f" d="M 80.5,65.5 C 81.2719,66.6935 82.2719,67.6935 83.5,68.5C 83.2767,70.3417 82.9434,72.175 82.5,74C 83.5929,76.4416 84.5929,78.9416 85.5,81.5C 83.8212,81.2852 82.8212,81.9519 82.5,83.5C 80.9826,83.4894 79.8159,82.8228 79,81.5C 78.0467,79.5448 76.7134,77.8782 75,76.5C 74.5172,75.552 74.3505,74.552 74.5,73.5C 75.8641,71.78 76.8641,69.78 77.5,67.5C 78.6016,66.8243 79.6016,66.1577 80.5,65.5 Z"/></g>
<g><path style="opacity:1" fill="#8c97b2" d="M 40.5,73.5 C 40.5,75.1667 40.5,76.8333 40.5,78.5C 39.209,78.2627 38.209,78.596 37.5,79.5C 34.9442,79.8678 32.9442,79.0345 31.5,77C 33.9419,74.5718 36.9419,73.4052 40.5,73.5 Z"/></g>
<g><path style="opacity:1" fill="#673c26" d="M 134.5,59.5 C 134.328,65.6769 134.661,72.0103 135.5,78.5C 132.833,78.5 130.167,78.5 127.5,78.5C 124.26,77.8562 122.26,75.8562 121.5,72.5C 123.677,72.5861 125.677,73.2528 127.5,74.5C 128.736,73.7542 130.07,73.4208 131.5,73.5C 132.222,73.9175 132.722,74.5842 133,75.5C 133.265,70.118 133.765,64.7846 134.5,59.5 Z"/></g>
<g><path style="opacity:1" fill="#111114" d="M 124.5,49.5 C 126.98,50.242 129.313,51.242 131.5,52.5C 136.001,54.9159 140.334,57.5825 144.5,60.5C 143.833,60.5 143.167,60.5 142.5,60.5C 140.847,59.2006 139.347,59.5339 138,61.5C 136,65.8333 136,70.1667 138,74.5C 138.816,75.8228 139.983,76.4894 141.5,76.5C 145.311,78.1179 148.811,77.4513 152,74.5C 151.89,70.871 151.724,67.2044 151.5,63.5C 151.56,62.9569 151.893,62.6236 152.5,62.5C 152.994,66.3839 153.994,70.0505 155.5,73.5C 154.37,74.6223 153.703,75.9557 153.5,77.5C 152.12,77.9623 151.453,78.9623 151.5,80.5C 152.219,82.7277 153.552,84.561 155.5,86C 159.363,87.3537 163.363,87.8537 167.5,87.5C 167.5,88.1667 167.833,88.5 168.5,88.5C 169.816,90.3166 171.316,91.9833 173,93.5C 174.872,92.9318 176.705,92.2651 178.5,91.5C 181.319,85.023 184.319,78.6897 187.5,72.5C 191.365,68.7429 193.031,64.0762 192.5,58.5C 193.485,60.0659 194.319,62.3993 195,65.5C 195.483,64.552 195.649,63.552 195.5,62.5C 196.15,62.1961 196.817,61.8627 197.5,61.5C 198.763,63.0287 199.763,64.6954 200.5,66.5C 198.737,68.7785 197.737,71.4452 197.5,74.5C 197.64,76.0296 198.307,77.0296 199.5,77.5C 199.672,78.4916 199.338,79.1583 198.5,79.5C 196.331,81.3403 194.998,83.6737 194.5,86.5C 191.5,86.1667 190.167,87.5 190.5,90.5C 189.9,91.9002 188.9,92.9002 187.5,93.5C 186.518,92.8592 185.518,92.1925 184.5,91.5C 180.988,93.641 177.154,94.9743 173,95.5C 169.957,93.2776 167.123,90.9443 164.5,88.5C 159.828,89.8345 155.161,91.1679 150.5,92.5C 148.625,88.85 146.958,85.1834 145.5,81.5C 145.158,80.6618 144.492,80.3284 143.5,80.5C 139.917,81.194 136.417,82.194 133,83.5C 128.399,82.3929 123.899,81.0596 119.5,79.5C 118.209,79.7373 117.209,79.404 116.5,78.5C 119.994,77.6648 123.66,77.6648 127.5,78.5C 130.167,78.5 132.833,78.5 135.5,78.5C 134.661,72.0103 134.328,65.6769 134.5,59.5C 134.167,58.5 133.5,57.8333 132.5,57.5C 130.5,56.1667 128.5,54.8333 126.5,53.5C 126.167,53.5 125.833,53.5 125.5,53.5C 125.167,52.1667 124.833,50.8333 124.5,49.5 Z"/></g>
<g><path style="opacity:1" fill="#265075" d="M 147.5,62.5 C 148.959,62.4326 150.292,62.7659 151.5,63.5C 151.724,67.2044 151.89,70.871 152,74.5C 148.811,77.4513 145.311,78.1179 141.5,76.5C 147.19,76.646 150.19,73.8127 150.5,68C 150.137,65.8077 149.137,63.9744 147.5,62.5 Z"/></g>
<g><path style="opacity:1" fill="#35333e" d="M 153.5,77.5 C 153.703,75.9557 154.37,74.6223 155.5,73.5C 153.994,70.0505 152.994,66.3839 152.5,62.5C 151.893,62.6236 151.56,62.9569 151.5,63.5C 150.292,62.7659 148.959,62.4326 147.5,62.5C 145.447,62.5979 143.78,61.9313 142.5,60.5C 143.167,60.5 143.833,60.5 144.5,60.5C 147.786,61.2071 151.119,61.5405 154.5,61.5C 154.5,64.5 154.5,67.5 154.5,70.5C 155.833,70.5 157.167,70.5 158.5,70.5C 158.485,66.4402 158.985,62.4402 160,58.5C 160.239,63.5864 160.405,68.5864 160.5,73.5C 158.619,75.7337 156.285,77.067 153.5,77.5 Z"/></g>
<g><path style="opacity:1" fill="#76baf1" d="M 192.5,58.5 C 193.031,64.0762 191.365,68.7429 187.5,72.5C 187.5,71.8333 187.5,71.1667 187.5,70.5C 188.479,67.3752 188.813,64.0419 188.5,60.5C 188.5,60.1667 188.5,59.8333 188.5,59.5C 189.833,59.1667 191.167,58.8333 192.5,58.5 Z"/></g>
<g><path style="opacity:1" fill="#79bff6" d="M 142.5,60.5 C 143.78,61.9313 145.447,62.5979 147.5,62.5C 149.137,63.9744 150.137,65.8077 150.5,68C 150.19,73.8127 147.19,76.646 141.5,76.5C 139.983,76.4894 138.816,75.8228 138,74.5C 136,70.1667 136,65.8333 138,61.5C 139.347,59.5339 140.847,59.2006 142.5,60.5 Z"/></g>
<g><path style="opacity:1" fill="#7e1105" d="M 37.5,99.5 C 39.1561,101.06 41.1561,102.06 43.5,102.5C 42.9158,110.417 40.0825,111.417 35,105.5C 32.6483,105.735 30.1483,105.901 27.5,106C 26.5842,106.278 25.9175,106.778 25.5,107.5C 23.611,110.939 20.611,112.939 16.5,113.5C 15.8333,111.833 15.1667,110.167 14.5,108.5C 12.7809,111.909 10.6142,112.242 8,109.5C 5.99255,110.94 5.15922,110.273 5.5,107.5C 9.58467,102.356 10.418,96.6897 8,90.5C 4.61982,89.2638 2.78648,86.9304 2.5,83.5C 1.5,83.5 0.5,83.5 -0.5,83.5C -0.5,81.8333 -0.5,80.1667 -0.5,78.5C 1.11723,79.038 2.7839,79.3713 4.5,79.5C 8.529,79.047 12.529,78.3803 16.5,77.5C 20.7181,77.5779 21.2181,78.5779 18,80.5C 17.5172,81.448 17.3505,82.448 17.5,83.5C 23.2042,84.0861 29.7042,84.0861 37,83.5C 38.063,88.6063 36.2296,92.273 31.5,94.5C 30.5481,96.0453 30.2148,97.712 30.5,99.5C 32.8333,99.5 35.1667,99.5 37.5,99.5 Z"/></g>
<g><path style="opacity:1" fill="#adcbd3" d="M 172.5,44.5 C 173.493,53.3178 173.827,62.3178 173.5,71.5C 176.466,71.1103 179.132,71.777 181.5,73.5C 182.722,71.0217 184.722,70.0217 187.5,70.5C 187.5,71.1667 187.5,71.8333 187.5,72.5C 184.319,78.6897 181.319,85.023 178.5,91.5C 176.705,92.2651 174.872,92.9318 173,93.5C 171.316,91.9833 169.816,90.3166 168.5,88.5C 172.15,74.1201 173.483,59.4534 172.5,44.5 Z"/></g>
<g><path style="opacity:1" fill="#3f191c" d="M 68.5,71.5 C 70.1765,72.1834 70.8432,73.5168 70.5,75.5C 69.7784,75.0825 69.2784,74.4158 69,73.5C 68.5196,78.2668 69.0196,82.9335 70.5,87.5C 69.596,88.209 69.2627,89.209 69.5,90.5C 63.3317,88.981 56.9984,87.981 50.5,87.5C 49.7492,88.376 49.2492,89.376 49,90.5C 48.6012,90.2716 48.4346,89.9382 48.5,89.5C 48.5751,86.7938 48.9084,84.1272 49.5,81.5C 53.9101,83.8073 58.5768,84.1406 63.5,82.5C 63.3838,85.9103 65.0504,87.2436 68.5,86.5C 67.8857,82.8648 67.5524,79.1981 67.5,75.5C 67.2322,73.901 67.5655,72.5676 68.5,71.5 Z"/></g>
<g><path style="opacity:1" fill="#8a7b6e" d="M 119.5,79.5 C 123.899,81.0596 128.399,82.3929 133,83.5C 136.417,82.194 139.917,81.194 143.5,80.5C 142.641,85.5336 139.641,88.2003 134.5,88.5C 129.566,88.1919 125.233,86.5252 121.5,83.5C 120.325,83.719 119.325,83.3857 118.5,82.5C 119.127,81.5832 119.461,80.5832 119.5,79.5 Z"/></g>
<g><path style="opacity:1" fill="#c6dae3" d="M 199.5,77.5 C 200.5,77.5 201.5,77.5 202.5,77.5C 202.833,78.5 203.5,79.1667 204.5,79.5C 205.742,81.6112 205.742,83.6112 204.5,85.5C 201.392,85.9443 198.726,87.2776 196.5,89.5C 195.637,86.4482 196.637,83.9482 199.5,82C 198.748,81.3292 198.414,80.4959 198.5,79.5C 199.338,79.1583 199.672,78.4916 199.5,77.5 Z"/></g>
<g><path style="opacity:1" fill="#b4c7cd" d="M 94.5,55.5 C 97.4639,57.9619 100.297,60.6286 103,63.5C 104.153,66.7111 104.82,70.0445 105,73.5C 108.294,76.397 112.128,78.0637 116.5,78.5C 117.209,79.404 118.209,79.7373 119.5,79.5C 119.461,80.5832 119.127,81.5832 118.5,82.5C 119.325,83.3857 120.325,83.719 121.5,83.5C 121.751,85.1703 122.418,86.6703 123.5,88C 130.844,87.0135 134.344,90.1802 134,97.5C 137.267,100.37 136.767,102.703 132.5,104.5C 131.833,103.5 131.167,102.5 130.5,101.5C 128.442,103.077 126.108,104.077 123.5,104.5C 117.784,102.755 112.118,101.088 106.5,99.5C 105.749,100.376 105.249,101.376 105,102.5C 102.162,95.7859 100.328,89.1192 99.5,82.5C 99.2975,79.1014 99.6308,75.6014 100.5,72C 99.3998,67.644 97.8998,63.4774 96,59.5C 94.7741,57.4523 93.2741,57.119 91.5,58.5C 91.5,57.8333 91.5,57.1667 91.5,56.5C 92.209,55.596 93.209,55.2627 94.5,55.5 Z"/></g>
<g><path style="opacity:1" fill="#2e0a07" d="M 74.5,73.5 C 74.3505,74.552 74.5172,75.552 75,76.5C 76.7134,77.8782 78.0467,79.5448 79,81.5C 79.8159,82.8228 80.9826,83.4894 82.5,83.5C 82.0825,84.2216 81.4158,84.7216 80.5,85C 82.4988,87.2552 83.8321,89.7552 84.5,92.5C 83.8902,93.391 83.5569,94.391 83.5,95.5C 82.6059,97.3085 81.6059,99.1418 80.5,101C 84.717,111.941 91.0503,121.441 99.5,129.5C 99.5654,129.938 99.3988,130.272 99,130.5C 93.3333,124.167 87.6667,117.833 82,111.5C 78.6729,103.367 75.1729,95.3667 71.5,87.5C 73.6875,82.7439 74.0208,77.7439 72.5,72.5C 73.357,71.6002 74.0237,71.9336 74.5,73.5 Z"/></g>
<g><path style="opacity:1" fill="#a5b6bd" d="M 198.5,79.5 C 198.414,80.4959 198.748,81.3292 199.5,82C 196.637,83.9482 195.637,86.4482 196.5,89.5C 198.726,87.2776 201.392,85.9443 204.5,85.5C 204.5,86.1667 204.5,86.8333 204.5,87.5C 202.716,88.956 200.716,89.956 198.5,90.5C 198.671,93.7973 198.005,94.1306 196.5,91.5C 193.952,93.1852 191.952,92.8519 190.5,90.5C 190.167,87.5 191.5,86.1667 194.5,86.5C 194.998,83.6737 196.331,81.3403 198.5,79.5 Z"/></g>
<g><path style="opacity:1" fill="#7a1d1a" d="M 41.5,84.5 C 42.1098,85.391 42.4431,86.391 42.5,87.5C 41.2216,88.7908 40.5549,90.7908 40.5,93.5C 37.0283,93.1262 34.0283,94.1262 31.5,96.5C 33.2818,97.9841 35.2818,98.9841 37.5,99.5C 35.1667,99.5 32.8333,99.5 30.5,99.5C 30.2148,97.712 30.5481,96.0453 31.5,94.5C 36.2296,92.273 38.063,88.6063 37,83.5C 29.7042,84.0861 23.2042,84.0861 17.5,83.5C 17.3505,82.448 17.5172,81.448 18,80.5C 21.2181,78.5779 20.7181,77.5779 16.5,77.5C 12.529,78.3803 8.529,79.047 4.5,79.5C 11.6498,75.513 18.6498,75.6796 25.5,80C 29.1667,80.3333 32.8333,80.6667 36.5,81C 38.9065,81.2572 40.5732,82.4238 41.5,84.5 Z"/></g>
<g><path style="opacity:1" fill="#c1dce3" d="M 145.5,81.5 C 146.958,85.1834 148.625,88.85 150.5,92.5C 155.161,91.1679 159.828,89.8345 164.5,88.5C 167.123,90.9443 169.957,93.2776 173,95.5C 177.154,94.9743 180.988,93.641 184.5,91.5C 185.518,92.1925 186.518,92.8592 187.5,93.5C 187.833,94.1667 188.167,94.8333 188.5,95.5C 188.5,96.8333 188.5,98.1667 188.5,99.5C 184.093,99.711 180.093,101.044 176.5,103.5C 174.087,101.611 171.754,99.4442 169.5,97C 168.5,96.6667 167.5,96.3333 166.5,96C 161.234,96.2128 155.9,96.0461 150.5,95.5C 150.719,96.675 150.386,97.675 149.5,98.5C 147.947,97.561 146.613,96.3943 145.5,95C 145.546,90.3563 145.546,85.8563 145.5,81.5 Z"/></g>
<g><path style="opacity:1" fill="#253b45" d="M 237.5,94.5 C 231.379,92.5821 225.712,89.9154 220.5,86.5C 221.239,86.631 221.906,86.4643 222.5,86C 221.315,84.647 219.981,83.4803 218.5,82.5C 223.915,84.3835 229.248,87.2168 234.5,91C 236.063,91.7589 237.063,92.9256 237.5,94.5 Z"/></g>
<g><path style="opacity:1" fill="#90c2db" d="M 218.5,86.5 C 219.167,86.5 219.833,86.5 220.5,86.5C 225.712,89.9154 231.379,92.5821 237.5,94.5C 240.112,96.1454 242.779,97.8121 245.5,99.5C 246.788,101.739 247.788,104.072 248.5,106.5C 243.27,106.398 238.603,104.231 234.5,100C 232.192,99.0093 229.859,98.176 227.5,97.5C 226.402,96.603 226.402,95.7697 227.5,95C 222.019,95.4303 218.352,93.0969 216.5,88C 216.836,86.9701 217.503,86.4701 218.5,86.5 Z"/></g>
<g><path style="opacity:1" fill="#4a0c0a" d="M 217.5,93.5 C 218.058,94.7899 219.058,95.6232 220.5,96C 222.586,96.3153 224.586,96.8153 226.5,97.5C 225.551,100.707 223.551,101.374 220.5,99.5C 218.668,100.821 216.668,101.821 214.5,102.5C 213.5,99.1667 212.5,95.8333 211.5,92.5C 211.47,91.5028 211.97,90.8361 213,90.5C 214.386,91.7286 215.886,92.7286 217.5,93.5 Z"/></g>
<g><path style="opacity:1" fill="#869da7" d="M 187.5,103.5 C 187.116,108.862 185.783,113.862 183.5,118.5C 182.427,122.108 180.76,125.442 178.5,128.5C 175.378,127.439 172.378,126.106 169.5,124.5C 168.186,125.313 167.019,126.313 166,127.5C 165.825,124.843 165.992,122.176 166.5,119.5C 164.833,119.5 163.167,119.5 161.5,119.5C 161.665,122.518 161.498,125.518 161,128.5C 159.488,129.257 158.154,130.257 157,131.5C 156.176,130.192 155.676,128.692 155.5,127C 154.584,126.626 153.75,126.126 153,125.5C 152.329,126.252 151.496,126.586 150.5,126.5C 152.311,121.187 155.478,116.854 160,113.5C 161.971,115.1 163.804,115.266 165.5,114C 160.497,108.45 160.997,103.284 167,98.5C 169.981,100.08 172.481,102.246 174.5,105C 178.91,105.317 183.243,104.817 187.5,103.5 Z"/></g>
<g><path style="opacity:1" fill="#838d9b" d="M 97.5,108.5 C 96.7494,109.573 95.7494,109.74 94.5,109C 91.6516,104.564 87.6516,101.564 82.5,100C 83.3802,98.6439 83.7135,97.1439 83.5,95.5C 83.5569,94.391 83.8902,93.391 84.5,92.5C 85.484,89.9296 86.6507,89.9296 88,92.5C 89.8877,98.6112 93.0543,103.944 97.5,108.5 Z"/></g>
<g><path style="opacity:1" fill="#264149" d="M 214.5,104.5 C 215.285,106.374 215.952,108.374 216.5,110.5C 210.401,112.256 207.401,116.256 207.5,122.5C 206.167,122.5 204.833,122.5 203.5,122.5C 202.363,118.421 201.029,114.421 199.5,110.5C 198.833,110.167 198.167,109.833 197.5,109.5C 199.849,102.121 202.183,94.7875 204.5,87.5C 205.423,86.6971 206.423,86.5304 207.5,87C 208.459,88.7073 209.125,90.5406 209.5,92.5C 208.28,96.2239 207.28,99.8905 206.5,103.5C 206.833,104.5 207.167,105.5 207.5,106.5C 208.941,105.696 210.441,105.029 212,104.5C 212.945,104.905 213.612,105.572 214,106.5C 214.464,105.906 214.631,105.239 214.5,104.5 Z"/></g>
<g><path style="opacity:1" fill="#6895a7" d="M 204.5,79.5 C 209.484,81.3255 214.151,83.6589 218.5,86.5C 217.503,86.4701 216.836,86.9701 216.5,88C 218.352,93.0969 222.019,95.4303 227.5,95C 226.402,95.7697 226.402,96.603 227.5,97.5C 227.167,97.5 226.833,97.5 226.5,97.5C 224.586,96.8153 222.586,96.3153 220.5,96C 219.058,95.6232 218.058,94.7899 217.5,93.5C 216.292,89.456 213.792,86.456 210,84.5C 209.5,84.8333 209,85.1667 208.5,85.5C 209.661,87.8852 210.661,90.2186 211.5,92.5C 212.5,95.8333 213.5,99.1667 214.5,102.5C 214.5,103.167 214.5,103.833 214.5,104.5C 214.631,105.239 214.464,105.906 214,106.5C 213.612,105.572 212.945,104.905 212,104.5C 210.441,105.029 208.941,105.696 207.5,106.5C 207.167,105.5 206.833,104.5 206.5,103.5C 207.28,99.8905 208.28,96.2239 209.5,92.5C 209.125,90.5406 208.459,88.7073 207.5,87C 206.423,86.5304 205.423,86.6971 204.5,87.5C 204.5,86.8333 204.5,86.1667 204.5,85.5C 205.742,83.6112 205.742,81.6112 204.5,79.5 Z"/></g>
<g><path style="opacity:1" fill="#423c46" d="M 217.5,93.5 C 215.886,92.7286 214.386,91.7286 213,90.5C 211.97,90.8361 211.47,91.5028 211.5,92.5C 210.661,90.2186 209.661,87.8852 208.5,85.5C 209,85.1667 209.5,84.8333 210,84.5C 213.792,86.456 216.292,89.456 217.5,93.5 Z"/></g>
<g><path style="opacity:1" fill="#1d1d20" d="M 85.5,81.5 C 86.2627,85.3852 88.596,87.7185 92.5,88.5C 97.2801,95.7257 101.28,103.392 104.5,111.5C 103.506,112.999 103.506,114.666 104.5,116.5C 101.421,114.425 99.0875,111.758 97.5,108.5C 93.0543,103.944 89.8877,98.6112 88,92.5C 86.6507,89.9296 85.484,89.9296 84.5,92.5C 83.8321,89.7552 82.4988,87.2552 80.5,85C 81.4158,84.7216 82.0825,84.2216 82.5,83.5C 82.8212,81.9519 83.8212,81.2852 85.5,81.5 Z"/></g>
<g><path style="opacity:1" fill="#690f08" d="M 43.5,102.5 C 44.9778,102.238 46.3112,102.571 47.5,103.5C 48.0149,105.225 48.6816,106.892 49.5,108.5C 50.7362,107.754 52.0695,107.421 53.5,107.5C 53.6236,109.952 54.6236,111.952 56.5,113.5C 55.6604,116.17 53.827,117.503 51,117.5C 46.5684,115.548 42.0684,113.881 37.5,112.5C 34.3388,111.087 31.3388,109.42 28.5,107.5C 27.5,107.5 26.5,107.5 25.5,107.5C 25.9175,106.778 26.5842,106.278 27.5,106C 30.1483,105.901 32.6483,105.735 35,105.5C 40.0825,111.417 42.9158,110.417 43.5,102.5 Z"/></g>
<g><path style="opacity:1" fill="#506e77" d="M 204.5,87.5 C 202.183,94.7875 199.849,102.121 197.5,109.5C 196.327,117.857 192.16,124.19 185,128.5C 184.209,129.745 183.709,131.078 183.5,132.5C 180.57,133.299 177.57,133.632 174.5,133.5C 174.5,132.5 174.5,131.5 174.5,130.5C 182.278,130.322 185.278,126.322 183.5,118.5C 185.783,113.862 187.116,108.862 187.5,103.5C 187.369,102.761 187.536,102.094 188,101.5C 190.395,102.798 191.562,101.965 191.5,99C 191.285,97.0922 190.285,95.9256 188.5,95.5C 188.167,94.8333 187.833,94.1667 187.5,93.5C 188.9,92.9002 189.9,91.9002 190.5,90.5C 191.952,92.8519 193.952,93.1852 196.5,91.5C 198.005,94.1306 198.671,93.7973 198.5,90.5C 200.716,89.956 202.716,88.956 204.5,87.5 Z"/></g>
<g><path style="opacity:1" fill="#457b8f" d="M 199.5,110.5 C 199.106,107.288 200.272,104.954 203,103.5C 205.201,104.962 205.867,106.962 205,109.5C 203.301,110.406 201.467,110.739 199.5,110.5 Z"/></g>
<g><path style="opacity:1" fill="#7f292c" d="M -0.5,84.5 C -0.5,84.1667 -0.5,83.8333 -0.5,83.5C 0.5,83.5 1.5,83.5 2.5,83.5C 2.78648,86.9304 4.61982,89.2638 8,90.5C 10.418,96.6897 9.58467,102.356 5.5,107.5C 5.15922,110.273 5.99255,110.94 8,109.5C 10.6142,112.242 12.7809,111.909 14.5,108.5C 15.1667,110.167 15.8333,111.833 16.5,113.5C 20.611,112.939 23.611,110.939 25.5,107.5C 26.5,107.5 27.5,107.5 28.5,107.5C 25.4905,110.874 22.4905,114.208 19.5,117.5C 16.2084,117.88 13.8751,116.547 12.5,113.5C 11.8165,113.863 11.1499,114.196 10.5,114.5C 7.83333,114.833 5.16667,115.167 2.5,115.5C 1.66925,111.661 1.66925,107.995 2.5,104.5C 3.75437,102.677 4.75437,100.677 5.5,98.5C 4.74858,94.0939 3.08191,90.0939 0.5,86.5C 1.98103,85.056 1.64769,84.3894 -0.5,84.5 Z"/></g>
<g><path style="opacity:1" fill="#96a9b0" d="M 143.5,80.5 C 144.492,80.3284 145.158,80.6618 145.5,81.5C 145.546,85.8563 145.546,90.3563 145.5,95C 146.613,96.3943 147.947,97.561 149.5,98.5C 150.386,97.675 150.719,96.675 150.5,95.5C 155.9,96.0461 161.234,96.2128 166.5,96C 167.5,96.3333 168.5,96.6667 169.5,97C 171.754,99.4442 174.087,101.611 176.5,103.5C 180.093,101.044 184.093,99.711 188.5,99.5C 188.5,98.1667 188.5,96.8333 188.5,95.5C 190.285,95.9256 191.285,97.0922 191.5,99C 191.562,101.965 190.395,102.798 188,101.5C 187.536,102.094 187.369,102.761 187.5,103.5C 183.243,104.817 178.91,105.317 174.5,105C 172.481,102.246 169.981,100.08 167,98.5C 160.997,103.284 160.497,108.45 165.5,114C 163.804,115.266 161.971,115.1 160,113.5C 155.478,116.854 152.311,121.187 150.5,126.5C 149.127,126.657 147.793,126.49 146.5,126C 144.418,121.742 141.085,119.242 136.5,118.5C 136.5,116.833 136.5,115.167 136.5,113.5C 131.821,113.334 127.155,113.501 122.5,114C 123.167,114.667 123.833,115.333 124.5,116C 127.7,116.101 130.7,116.768 133.5,118C 131.527,118.495 129.527,118.662 127.5,118.5C 121.147,117.496 114.814,116.329 108.5,115C 106.907,114.051 105.574,112.885 104.5,111.5C 101.28,103.392 97.2801,95.7257 92.5,88.5C 93.6935,87.7281 94.6935,86.7281 95.5,85.5C 96.8333,84.5 98.1667,83.5 99.5,82.5C 100.328,89.1192 102.162,95.7859 105,102.5C 105.249,101.376 105.749,100.376 106.5,99.5C 112.118,101.088 117.784,102.755 123.5,104.5C 126.108,104.077 128.442,103.077 130.5,101.5C 131.167,102.5 131.833,103.5 132.5,104.5C 136.767,102.703 137.267,100.37 134,97.5C 134.344,90.1802 130.844,87.0135 123.5,88C 122.418,86.6703 121.751,85.1703 121.5,83.5C 125.233,86.5252 129.566,88.1919 134.5,88.5C 139.641,88.2003 142.641,85.5336 143.5,80.5 Z"/></g>
<g><path style="opacity:1" fill="#44211f" d="M 226.5,97.5 C 226.833,97.5 227.167,97.5 227.5,97.5C 229.859,98.176 232.192,99.0093 234.5,100C 238.603,104.231 243.27,106.398 248.5,106.5C 249.219,110.483 248.052,114.15 245,117.5C 239.5,112.471 233.333,109.971 226.5,110C 230.437,112.372 232.437,115.872 232.5,120.5C 230.304,120.435 228.304,119.768 226.5,118.5C 217.141,104.854 215.474,105.854 221.5,121.5C 221.5,121.833 221.5,122.167 221.5,122.5C 220.833,122.167 220.167,121.833 219.5,121.5C 218.21,117.918 217.21,114.251 216.5,110.5C 215.952,108.374 215.285,106.374 214.5,104.5C 214.5,103.833 214.5,103.167 214.5,102.5C 216.668,101.821 218.668,100.821 220.5,99.5C 223.551,101.374 225.551,100.707 226.5,97.5 Z"/></g>
<g><path style="opacity:1" fill="#07090a" d="M 104.5,111.5 C 105.574,112.885 106.907,114.051 108.5,115C 114.814,116.329 121.147,117.496 127.5,118.5C 134.746,120.968 141.413,124.801 147.5,130C 150.03,130.379 152.363,131.213 154.5,132.5C 150.685,132.869 146.685,133.035 142.5,133C 146.512,134.803 146.178,135.803 141.5,136C 139.939,136.941 138.605,138.108 137.5,139.5C 140.263,140.252 142.93,141.252 145.5,142.5C 146.748,141.96 147.915,141.293 149,140.5C 149.483,141.448 149.649,142.448 149.5,143.5C 143.5,143.5 137.5,143.5 131.5,143.5C 130.923,141.348 129.756,141.015 128,142.5C 127.262,140.119 127.762,138.119 129.5,136.5C 131.942,136.646 132.609,135.813 131.5,134C 121.786,129.091 112.786,123.258 104.5,116.5C 103.506,114.666 103.506,112.999 104.5,111.5 Z"/></g>
<g><path style="opacity:1" fill="#3b0905" d="M 48.5,89.5 C 48.4346,89.9382 48.6012,90.2716 49,90.5C 49.2492,89.376 49.7492,88.376 50.5,87.5C 56.9984,87.981 63.3317,88.981 69.5,90.5C 69.2627,89.209 69.596,88.209 70.5,87.5C 71.3497,92.2321 72.5164,96.8988 74,101.5C 83.9497,118.277 96.783,132.277 112.5,143.5C 107.167,143.5 101.833,143.5 96.5,143.5C 96.1788,141.952 95.1788,141.285 93.5,141.5C 92.1631,137.888 89.6631,135.221 86,133.5C 85.6905,132.234 85.1905,131.067 84.5,130C 82.1667,130.333 79.8333,130.667 77.5,131C 76.253,129.054 74.9197,127.22 73.5,125.5C 71.8888,126.32 71.2222,127.654 71.5,129.5C 71.7845,131.415 71.4511,133.081 70.5,134.5C 69.7326,135.172 69.0659,136.005 68.5,137C 67.5632,137.692 66.8966,137.525 66.5,136.5C 67.8996,129.9 70.0663,123.567 73,117.5C 73.5556,119.595 74.0556,119.762 74.5,118C 70.4036,113.841 65.4036,110.008 59.5,106.5C 51.8036,101.446 46.8036,94.4458 44.5,85.5C 44.4346,85.0618 44.6012,84.7284 45,84.5C 45.6972,86.5844 46.8639,88.2511 48.5,89.5 Z"/></g>
<g><path style="opacity:1" fill="#86424c" d="M -0.5,84.5 C 1.64769,84.3894 1.98103,85.056 0.5,86.5C 3.08191,90.0939 4.74858,94.0939 5.5,98.5C 4.75437,100.677 3.75437,102.677 2.5,104.5C 1.66925,107.995 1.66925,111.661 2.5,115.5C 5.16667,115.167 7.83333,114.833 10.5,114.5C 9.76294,116.305 8.76294,117.971 7.5,119.5C 6.15017,118.05 4.4835,117.383 2.5,117.5C 3.09219,120.631 2.09219,122.964 -0.5,124.5C -0.5,111.167 -0.5,97.8333 -0.5,84.5 Z"/></g>
<g><path style="opacity:1" fill="#6d626b" d="M 28.5,107.5 C 31.3388,109.42 34.3388,111.087 37.5,112.5C 43.5956,118.262 50.2623,123.262 57.5,127.5C 58.8333,129.5 60.5,131.167 62.5,132.5C 62.524,136.041 60.6906,138.708 57,140.5C 51.9632,138.141 47.6299,134.807 44,130.5C 43.5172,129.552 43.3505,128.552 43.5,127.5C 42.0222,127.762 40.6888,127.429 39.5,126.5C 39.7093,125.914 40.0426,125.414 40.5,125C 39.257,122.51 38.0904,120.01 37,117.5C 36.8019,119.382 36.3019,121.048 35.5,122.5C 35.5,120.5 35.5,118.5 35.5,116.5C 32.7531,116.187 30.0865,116.52 27.5,117.5C 26.8728,118.417 26.5394,119.417 26.5,120.5C 24.9826,120.511 23.8159,121.177 23,122.5C 21.9887,121.663 20.8221,121.33 19.5,121.5C 19.1667,121.5 18.8333,121.5 18.5,121.5C 17.9569,121.44 17.6236,121.107 17.5,120.5C 18.6119,119.735 19.2786,118.735 19.5,117.5C 22.4905,114.208 25.4905,110.874 28.5,107.5 Z"/></g>
<g><path style="opacity:1" fill="#8c8d94" d="M 216.5,110.5 C 217.21,114.251 218.21,117.918 219.5,121.5C 219.704,124.518 220.037,127.518 220.5,130.5C 216.881,129.756 213.215,129.423 209.5,129.5C 207.5,129.5 205.5,129.5 203.5,129.5C 202.583,126.995 202.583,124.662 203.5,122.5C 204.833,122.5 206.167,122.5 207.5,122.5C 207.401,116.256 210.401,112.256 216.5,110.5 Z"/></g>
<g><path style="opacity:1" fill="#755d48" d="M 232.5,120.5 C 233.756,122.941 233.756,125.274 232.5,127.5C 229.331,124.681 225.664,122.681 221.5,121.5C 215.474,105.854 217.141,104.854 226.5,118.5C 228.304,119.768 230.304,120.435 232.5,120.5 Z"/></g>
<g><path style="opacity:1" fill="#909387" d="M 35.5,122.5 C 34.8658,123.947 33.6991,124.613 32,124.5C 29.9707,123.45 28.1374,122.116 26.5,120.5C 26.5394,119.417 26.8728,118.417 27.5,117.5C 30.0865,116.52 32.7531,116.187 35.5,116.5C 35.5,118.5 35.5,120.5 35.5,122.5 Z"/></g>
<g><path style="opacity:1" fill="#66656d" d="M 83.5,95.5 C 83.7135,97.1439 83.3802,98.6439 82.5,100C 87.6516,101.564 91.6516,104.564 94.5,109C 95.7494,109.74 96.7494,109.573 97.5,108.5C 99.0875,111.758 101.421,114.425 104.5,116.5C 112.786,123.258 121.786,129.091 131.5,134C 132.609,135.813 131.942,136.646 129.5,136.5C 125.948,133.592 121.948,132.425 117.5,133C 115.754,130.508 113.754,128.341 111.5,126.5C 109.629,125.146 107.963,123.479 106.5,121.5C 105.675,120.614 104.675,120.281 103.5,120.5C 104.413,122.835 105.747,125.001 107.5,127C 105.866,127.494 104.199,127.66 102.5,127.5C 102.598,130.248 101.598,130.914 99.5,129.5C 91.0503,121.441 84.717,111.941 80.5,101C 81.6059,99.1418 82.6059,97.3085 83.5,95.5 Z"/></g>
<g><path style="opacity:1" fill="#662224" d="M 42.5,87.5 C 46.8576,96.1795 52.6909,103.846 60,110.5C 61.2727,113.489 62.4394,116.489 63.5,119.5C 61.8031,121.305 60.9698,123.639 61,126.5C 59.9887,127.337 58.8221,127.67 57.5,127.5C 50.2623,123.262 43.5956,118.262 37.5,112.5C 42.0684,113.881 46.5684,115.548 51,117.5C 53.827,117.503 55.6604,116.17 56.5,113.5C 54.6236,111.952 53.6236,109.952 53.5,107.5C 52.0695,107.421 50.7362,107.754 49.5,108.5C 48.6816,106.892 48.0149,105.225 47.5,103.5C 46.3112,102.571 44.9778,102.238 43.5,102.5C 41.1561,102.06 39.1561,101.06 37.5,99.5C 35.2818,98.9841 33.2818,97.9841 31.5,96.5C 34.0283,94.1262 37.0283,93.1262 40.5,93.5C 40.5549,90.7908 41.2216,88.7908 42.5,87.5 Z"/></g>
<g><path style="opacity:1" fill="#7b6779" d="M 41.5,93.5 C 45.3591,93.8948 46.6925,95.8948 45.5,99.5C 43.0671,98.977 41.0671,97.8104 39.5,96C 40.0556,94.9889 40.7222,94.1556 41.5,93.5 Z"/></g>
<g><path style="opacity:1" fill="#29191e" d="M 18.5,121.5 C 18.8333,121.5 19.1667,121.5 19.5,121.5C 23.2684,125.892 27.9351,129.059 33.5,131C 39.5899,134.699 45.2566,138.866 50.5,143.5C 47.8333,143.5 45.1667,143.5 42.5,143.5C 39.4797,140.484 36.1464,137.817 32.5,135.5C 27.874,132.046 23.374,128.379 19,124.5C 18.5172,123.552 18.3505,122.552 18.5,121.5 Z"/></g>
<g><path style="opacity:1" fill="#847074" d="M 40.5,73.5 C 42.0574,77.3117 43.3907,81.3117 44.5,85.5C 46.8036,94.4458 51.8036,101.446 59.5,106.5C 61.4076,110.08 64.0743,113.08 67.5,115.5C 67.8333,116.5 68.1667,117.5 68.5,118.5C 67.0897,122.398 66.0897,126.398 65.5,130.5C 64.8333,130.5 64.1667,130.5 63.5,130.5C 62.2722,126.85 62.2722,123.184 63.5,119.5C 62.4394,116.489 61.2727,113.489 60,110.5C 52.6909,103.846 46.8576,96.1795 42.5,87.5C 42.4431,86.391 42.1098,85.391 41.5,84.5C 42.2436,81.0504 40.9103,79.3838 37.5,79.5C 38.209,78.596 39.209,78.2627 40.5,78.5C 40.5,76.8333 40.5,75.1667 40.5,73.5 Z"/></g>
<g><path style="opacity:1" fill="#4c2426" d="M 59.5,106.5 C 65.4036,110.008 70.4036,113.841 74.5,118C 74.0556,119.762 73.5556,119.595 73,117.5C 70.0663,123.567 67.8996,129.9 66.5,136.5C 64.2712,134.901 63.9378,132.901 65.5,130.5C 66.0897,126.398 67.0897,122.398 68.5,118.5C 68.1667,117.5 67.8333,116.5 67.5,115.5C 64.0743,113.08 61.4076,110.08 59.5,106.5 Z"/></g>
<g><path style="opacity:1" fill="#595158" d="M 70.5,75.5 C 71.0209,79.4809 71.3542,83.4809 71.5,87.5C 75.1729,95.3667 78.6729,103.367 82,111.5C 87.6667,117.833 93.3333,124.167 99,130.5C 99.3988,130.272 99.5654,129.938 99.5,129.5C 101.598,130.914 102.598,130.248 102.5,127.5C 104.199,127.66 105.866,127.494 107.5,127C 105.747,125.001 104.413,122.835 103.5,120.5C 104.675,120.281 105.675,120.614 106.5,121.5C 107.963,123.479 109.629,125.146 111.5,126.5C 110.957,126.56 110.624,126.893 110.5,127.5C 113.205,131.602 115.539,135.935 117.5,140.5C 118.833,141.833 120.167,141.833 121.5,140.5C 122.562,141.425 122.562,142.425 121.5,143.5C 118.5,143.5 115.5,143.5 112.5,143.5C 96.783,132.277 83.9497,118.277 74,101.5C 72.5164,96.8988 71.3497,92.2321 70.5,87.5C 69.0196,82.9335 68.5196,78.2668 69,73.5C 69.2784,74.4158 69.7784,75.0825 70.5,75.5 Z"/></g>
<g><path style="opacity:1" fill="#411d21" d="M 63.5,119.5 C 62.2722,123.184 62.2722,126.85 63.5,130.5C 63.6716,131.492 63.3382,132.158 62.5,132.5C 60.5,131.167 58.8333,129.5 57.5,127.5C 58.8221,127.67 59.9887,127.337 61,126.5C 60.9698,123.639 61.8031,121.305 63.5,119.5 Z"/></g>
<g><path style="opacity:1" fill="#7b868b" d="M 150.5,126.5 C 151.496,126.586 152.329,126.252 153,125.5C 153.75,126.126 154.584,126.626 155.5,127C 155.676,128.692 156.176,130.192 157,131.5C 158.154,130.257 159.488,129.257 161,128.5C 161.498,125.518 161.665,122.518 161.5,119.5C 163.167,119.5 164.833,119.5 166.5,119.5C 165.992,122.176 165.825,124.843 166,127.5C 167.019,126.313 168.186,125.313 169.5,124.5C 172.378,126.106 175.378,127.439 178.5,128.5C 180.76,125.442 182.427,122.108 183.5,118.5C 185.278,126.322 182.278,130.322 174.5,130.5C 174.5,131.5 174.5,132.5 174.5,133.5C 172.102,133.259 170.102,133.926 168.5,135.5C 166.5,135.5 164.5,135.5 162.5,135.5C 159.919,134.512 157.252,133.512 154.5,132.5C 152.363,131.213 150.03,130.379 147.5,130C 141.413,124.801 134.746,120.968 127.5,118.5C 129.527,118.662 131.527,118.495 133.5,118C 130.7,116.768 127.7,116.101 124.5,116C 123.833,115.333 123.167,114.667 122.5,114C 127.155,113.501 131.821,113.334 136.5,113.5C 136.5,115.167 136.5,116.833 136.5,118.5C 141.085,119.242 144.418,121.742 146.5,126C 147.793,126.49 149.127,126.657 150.5,126.5 Z"/></g>
<g><path style="opacity:1" fill="#7f5463" d="M 19.5,117.5 C 19.2786,118.735 18.6119,119.735 17.5,120.5C 17.6236,121.107 17.9569,121.44 18.5,121.5C 18.3505,122.552 18.5172,123.552 19,124.5C 23.374,128.379 27.874,132.046 32.5,135.5C 33.1495,137.435 33.4828,139.435 33.5,141.5C 29.7744,141.426 26.7744,139.926 24.5,137C 21.1745,136.828 17.8411,136.995 14.5,137.5C 14.6633,135.143 14.4966,132.81 14,130.5C 12.3005,129.594 10.4672,129.261 8.5,129.5C 8.5,128.5 8.5,127.5 8.5,126.5C 5.5,127.167 2.5,127.833 -0.5,128.5C -0.5,127.167 -0.5,125.833 -0.5,124.5C 2.09219,122.964 3.09219,120.631 2.5,117.5C 4.4835,117.383 6.15017,118.05 7.5,119.5C 8.76294,117.971 9.76294,116.305 10.5,114.5C 11.1499,114.196 11.8165,113.863 12.5,113.5C 13.8751,116.547 16.2084,117.88 19.5,117.5 Z"/></g>
<g><path style="opacity:1" fill="#6e3740" d="M 32.5,135.5 C 36.1464,137.817 39.4797,140.484 42.5,143.5C 37.1667,143.5 31.8333,143.5 26.5,143.5C 26.2435,141.224 24.9102,140.057 22.5,140C 16.8367,139.674 11.17,139.34 5.5,139C 4.46776,136.126 2.46776,134.626 -0.5,134.5C -0.5,132.5 -0.5,130.5 -0.5,128.5C 2.5,127.833 5.5,127.167 8.5,126.5C 8.5,127.5 8.5,128.5 8.5,129.5C 10.4672,129.261 12.3005,129.594 14,130.5C 14.4966,132.81 14.6633,135.143 14.5,137.5C 17.8411,136.995 21.1745,136.828 24.5,137C 26.7744,139.926 29.7744,141.426 33.5,141.5C 33.4828,139.435 33.1495,137.435 32.5,135.5 Z"/></g>
<g><path style="opacity:1" fill="#445957" d="M 219.5,121.5 C 220.167,121.833 220.833,122.167 221.5,122.5C 222.835,128.171 224.335,133.837 226,139.5C 226.417,140.756 227.25,141.423 228.5,141.5C 228.167,142.167 227.833,142.833 227.5,143.5C 222.5,143.5 217.5,143.5 212.5,143.5C 212.5,141.833 212.5,140.167 212.5,138.5C 211.209,138.737 210.209,138.404 209.5,137.5C 210.833,137.5 212.167,137.5 213.5,137.5C 213.5,135.167 213.5,132.833 213.5,130.5C 211.901,130.768 210.568,130.434 209.5,129.5C 213.215,129.423 216.881,129.756 220.5,130.5C 220.037,127.518 219.704,124.518 219.5,121.5 Z"/></g>
<g><path style="opacity:1" fill="#50323a" d="M 96.5,143.5 C 93.8333,143.5 91.1667,143.5 88.5,143.5C 83.3945,138.119 77.7278,133.452 71.5,129.5C 71.2222,127.654 71.8888,126.32 73.5,125.5C 74.9197,127.22 76.253,129.054 77.5,131C 79.8333,130.667 82.1667,130.333 84.5,130C 85.1905,131.067 85.6905,132.234 86,133.5C 89.6631,135.221 92.1631,137.888 93.5,141.5C 95.1788,141.285 96.1788,141.952 96.5,143.5 Z"/></g>
<g><path style="opacity:1" fill="#484840" d="M 183.5,132.5 C 182.547,134.61 180.881,135.777 178.5,136C 174.973,136.808 171.64,136.641 168.5,135.5C 170.102,133.926 172.102,133.259 174.5,133.5C 177.57,133.632 180.57,133.299 183.5,132.5 Z"/></g>
<g><path style="opacity:1" fill="#889190" d="M 71.5,129.5 C 77.7278,133.452 83.3945,138.119 88.5,143.5C 84.1667,143.5 79.8333,143.5 75.5,143.5C 74.2073,141.704 72.7073,140.037 71,138.5C 70.51,137.207 70.3433,135.873 70.5,134.5C 71.4511,133.081 71.7845,131.415 71.5,129.5 Z"/></g>
<g><path style="opacity:1" fill="#0c0808" d="M 197.5,109.5 C 198.167,109.833 198.833,110.167 199.5,110.5C 201.029,114.421 202.363,118.421 203.5,122.5C 202.583,124.662 202.583,126.995 203.5,129.5C 205.5,129.5 207.5,129.5 209.5,129.5C 210.568,130.434 211.901,130.768 213.5,130.5C 213.5,132.833 213.5,135.167 213.5,137.5C 212.167,137.5 210.833,137.5 209.5,137.5C 208.5,137.5 207.5,137.5 206.5,137.5C 206.616,134.09 204.95,132.756 201.5,133.5C 200.689,137.297 199.022,140.631 196.5,143.5C 194.833,143.5 193.167,143.5 191.5,143.5C 192.344,138.434 193.178,133.434 194,128.5C 191.641,133.715 188.808,138.715 185.5,143.5C 174.5,143.5 163.5,143.5 152.5,143.5C 155.781,140.898 159.115,138.231 162.5,135.5C 164.5,135.5 166.5,135.5 168.5,135.5C 171.64,136.641 174.973,136.808 178.5,136C 180.881,135.777 182.547,134.61 183.5,132.5C 183.709,131.078 184.209,129.745 185,128.5C 192.16,124.19 196.327,117.857 197.5,109.5 Z"/></g>
<g><path style="opacity:1" fill="#1b323a" d="M 191.5,143.5 C 189.5,143.5 187.5,143.5 185.5,143.5C 188.808,138.715 191.641,133.715 194,128.5C 193.178,133.434 192.344,138.434 191.5,143.5 Z"/></g>
<g><path style="opacity:1" fill="#998f7c" d="M 221.5,121.5 C 225.664,122.681 229.331,124.681 232.5,127.5C 232.293,132.561 230.96,137.228 228.5,141.5C 227.25,141.423 226.417,140.756 226,139.5C 224.335,133.837 222.835,128.171 221.5,122.5C 221.5,122.167 221.5,121.833 221.5,121.5 Z"/></g>
<g><path style="opacity:1" fill="#3a3b40" d="M 111.5,126.5 C 113.754,128.341 115.754,130.508 117.5,133C 121.948,132.425 125.948,133.592 129.5,136.5C 127.762,138.119 127.262,140.119 128,142.5C 129.756,141.015 130.923,141.348 131.5,143.5C 128.167,143.5 124.833,143.5 121.5,143.5C 122.562,142.425 122.562,141.425 121.5,140.5C 120.167,141.833 118.833,141.833 117.5,140.5C 115.539,135.935 113.205,131.602 110.5,127.5C 110.624,126.893 110.957,126.56 111.5,126.5 Z"/></g>
<g><path style="opacity:1" fill="#152334" d="M 154.5,132.5 C 157.252,133.512 159.919,134.512 162.5,135.5C 159.115,138.231 155.781,140.898 152.5,143.5C 151.5,143.5 150.5,143.5 149.5,143.5C 149.649,142.448 149.483,141.448 149,140.5C 147.915,141.293 146.748,141.96 145.5,142.5C 142.93,141.252 140.263,140.252 137.5,139.5C 138.605,138.108 139.939,136.941 141.5,136C 146.178,135.803 146.512,134.803 142.5,133C 146.685,133.035 150.685,132.869 154.5,132.5 Z"/></g>
<g><path style="opacity:1" fill="#5e4b50" d="M 62.5,132.5 C 63.3382,132.158 63.6716,131.492 63.5,130.5C 64.1667,130.5 64.8333,130.5 65.5,130.5C 63.9378,132.901 64.2712,134.901 66.5,136.5C 66.8966,137.525 67.5632,137.692 68.5,137C 69.0659,136.005 69.7326,135.172 70.5,134.5C 70.3433,135.873 70.51,137.207 71,138.5C 72.7073,140.037 74.2073,141.704 75.5,143.5C 67.1667,143.5 58.8333,143.5 50.5,143.5C 45.2566,138.866 39.5899,134.699 33.5,131C 27.9351,129.059 23.2684,125.892 19.5,121.5C 20.8221,121.33 21.9887,121.663 23,122.5C 23.8159,121.177 24.9826,120.511 26.5,120.5C 28.1374,122.116 29.9707,123.45 32,124.5C 33.6991,124.613 34.8658,123.947 35.5,122.5C 36.3019,121.048 36.8019,119.382 37,117.5C 38.0904,120.01 39.257,122.51 40.5,125C 40.0426,125.414 39.7093,125.914 39.5,126.5C 40.6888,127.429 42.0222,127.762 43.5,127.5C 43.3505,128.552 43.5172,129.552 44,130.5C 47.6299,134.807 51.9632,138.141 57,140.5C 60.6906,138.708 62.524,136.041 62.5,132.5 Z"/></g>
<g><path style="opacity:1" fill="#5b1614" d="M -0.5,134.5 C 2.46776,134.626 4.46776,136.126 5.5,139C 11.17,139.34 16.8367,139.674 22.5,140C 24.9102,140.057 26.2435,141.224 26.5,143.5C 17.5,143.5 8.5,143.5 -0.5,143.5C -0.5,140.5 -0.5,137.5 -0.5,134.5 Z"/></g>
<g><path style="opacity:1" fill="#66604c" d="M 209.5,137.5 C 210.209,138.404 211.209,138.737 212.5,138.5C 212.5,140.167 212.5,141.833 212.5,143.5C 207.167,143.5 201.833,143.5 196.5,143.5C 199.022,140.631 200.689,137.297 201.5,133.5C 204.95,132.756 206.616,134.09 206.5,137.5C 207.5,137.5 208.5,137.5 209.5,137.5 Z"/></g>
</svg>
