<?xml version="1.0" encoding="UTF-8"?>
<!DOCTYPE svg PUBLIC "-//W3C//DTD SVG 1.1//EN" "http://www.w3.org/Graphics/SVG/1.1/DTD/svg11.dtd">
<svg xmlns="http://www.w3.org/2000/svg" version="1.1" width="256px" height="144px" style="shape-rendering:geometricPrecision; text-rendering:geometricPrecision; image-rendering:optimizeQuality; fill-rule:evenodd; clip-rule:evenodd" xmlns:xlink="http://www.w3.org/1999/xlink">
<g><path style="opacity:1" fill="#0a0202" d="M 82.5,-0.5 C 85.5,-0.5 88.5,-0.5 91.5,-0.5C 90.2418,3.71366 89.2418,8.047 88.5,12.5C 87.7659,13.7079 87.4326,15.0413 87.5,16.5C 86.1667,16.5 84.8333,16.5 83.5,16.5C 83.8076,14.076 83.4742,11.7427 82.5,9.5C 81.7825,12.058 80.4491,12.7247 78.5,11.5C 80.05,7.51677 81.3833,3.51677 82.5,-0.5 Z"/></g>
<g><path style="opacity:1" fill="#2f1411" d="M 177.5,-0.5 C 179.833,-0.5 182.167,-0.5 184.5,-0.5C 185.179,1.81386 186.512,2.14719 188.5,0.5C 189.806,3.97983 189.806,7.31316 188.5,10.5C 189.034,2.93977 187.867,2.60644 185,9.5C 184.333,8.16667 183.667,8.16667 183,9.5C 181.808,13.6227 180.641,17.6227 179.5,21.5C 179.36,14.0985 178.693,6.76519 177.5,-0.5 Z"/></g>
<g><path style="opacity:1" fill="#0f0303" d="M 184.5,-0.5 C 192.833,-0.5 201.167,-0.5 209.5,-0.5C 209.5,-0.166667 209.5,0.166667 209.5,0.5C 208.541,6.24174 207.541,12.0751 206.5,18C 206.833,18.3333 207.167,18.6667 207.5,19C 206.707,20.0852 206.04,21.2519 205.5,22.5C 207.889,23.6022 209.723,25.2689 211,27.5C 212.868,26.3281 214.702,26.4947 216.5,28C 215.542,29.1475 215.875,30.1475 217.5,31C 214.818,33.3303 215.151,33.8303 218.5,32.5C 219.418,34.8386 221.084,36.3386 223.5,37C 222.044,37.4226 221.544,38.2559 222,39.5C 223.011,38.6634 224.178,38.33 225.5,38.5C 225.351,39.552 225.517,40.552 226,41.5C 226.667,42.8333 227.333,42.8333 228,41.5C 229.044,42.6226 229.71,43.9559 230,45.5C 231.871,44.3322 233.371,44.8322 234.5,47C 233.833,47.3333 233.167,47.6667 232.5,48C 232.982,49.0084 233.148,50.175 233,51.5C 233.915,50.6721 234.581,49.6721 235,48.5C 237.848,49.4333 238.014,50.9333 235.5,53C 237.131,55.4509 238.964,55.9509 241,54.5C 242.824,55.7487 242.657,56.9153 240.5,58C 241.469,59.7583 242.636,60.2583 244,59.5C 243.454,64.3593 245.62,67.8593 250.5,70C 250.028,72.3987 251.028,74.3987 253.5,76C 250.833,76.6667 250.833,77.3333 253.5,78C 252.304,78.6543 252.304,79.1543 253.5,79.5C 254.172,78.0508 254.839,76.7175 255.5,75.5C 255.5,84.1667 255.5,92.8333 255.5,101.5C 254.837,103.042 254.17,104.709 253.5,106.5C 252.666,104.166 251.333,102.166 249.5,100.5C 250.694,98.2296 250.694,96.063 249.5,94C 246.424,91.715 245.257,88.8816 246,85.5C 243.476,84.3242 241.976,82.8242 241.5,81C 242.167,80.6667 242.833,80.3333 243.5,80C 242.796,78.4285 241.463,76.7618 239.5,75C 240.673,71.8897 240.173,71.723 238,74.5C 237.51,73.2068 237.343,71.8734 237.5,70.5C 233.551,70.3068 233.551,69.8068 237.5,69C 234.314,66.8116 231.814,63.9783 230,60.5C 229.549,62.9288 228.715,63.0955 227.5,61C 229.768,58.968 229.102,57.6346 225.5,57C 226.634,55.984 226.301,55.3173 224.5,55C 224.833,54.6667 225.167,54.3333 225.5,54C 224.299,53.0975 223.465,51.9308 223,50.5C 222.333,49.1667 221.667,49.1667 221,50.5C 220.641,47.4557 219.974,47.1224 219,49.5C 217.956,48.3774 217.29,47.0441 217,45.5C 216.667,46.1667 216.333,46.8333 216,47.5C 214.89,45.6031 214.724,43.7698 215.5,42C 213.754,41.5291 212.087,40.8624 210.5,40C 211.654,39.0862 211.487,38.2529 210,37.5C 208.951,38.5171 207.784,38.6838 206.5,38C 207.641,37.2588 207.641,36.4255 206.5,35.5C 205.088,34.1936 203.421,33.3603 201.5,33C 202.517,31.9505 202.684,30.7839 202,29.5C 200.992,29.9817 199.825,30.1484 198.5,30C 197.361,31.7804 196.361,33.6137 195.5,35.5C 193.375,36.6888 191.375,36.3555 189.5,34.5C 187.308,34.7573 185.641,35.7573 184.5,37.5C 183.039,38.6857 181.705,38.6857 180.5,37.5C 182.425,28.2915 185.092,19.2915 188.5,10.5C 189.806,7.31316 189.806,3.97983 188.5,0.5C 186.512,2.14719 185.179,1.81386 184.5,-0.5 Z"/></g>
<g><path style="opacity:1" fill="#040100" d="M 209.5,-0.5 C 224.833,-0.5 240.167,-0.5 255.5,-0.5C 255.5,15.8333 255.5,32.1667 255.5,48.5C 253.242,49.4473 252.075,48.4473 252,45.5C 251.097,44.2986 249.931,43.4652 248.5,43C 248.833,42.6667 249.167,42.3333 249.5,42C 248.167,41 246.833,40 245.5,39C 245.833,38.6667 246.167,38.3333 246.5,38C 243.751,35.5774 240.751,33.5774 237.5,32C 238.167,31.6667 238.833,31.3333 239.5,31C 237.346,29.6801 235.846,27.8468 235,25.5C 234,25.8333 233,26.1667 232,26.5C 229.085,23.4909 225.918,19.9909 222.5,16C 220.913,15.1376 219.246,14.4709 217.5,14C 219.044,13.7104 220.377,13.0437 221.5,12C 220.451,11.5078 219.451,11.6744 218.5,12.5C 216.729,11.9646 216.396,11.1313 217.5,10C 215.481,9.55034 213.648,8.717 212,7.5C 211.667,7.83333 211.333,8.16667 211,8.5C 210.178,5.88317 209.678,3.2165 209.5,0.5C 209.5,0.166667 209.5,-0.166667 209.5,-0.5 Z"/></g>
<g><path style="opacity:1" fill="#612b00" d="M 98.5,-0.5 C 102.167,-0.5 105.833,-0.5 109.5,-0.5C 109.5,0.833333 109.5,2.16667 109.5,3.5C 107.766,8.7017 105.1,13.3684 101.5,17.5C 101.657,16.1266 101.49,14.7932 101,13.5C 98.8914,13.5661 96.7247,13.8995 94.5,14.5C 94.1667,13.6667 93.8333,12.8333 93.5,12C 94.6892,7.58997 96.3559,3.4233 98.5,-0.5 Z"/></g>
<g><path style="opacity:1" fill="#090101" d="M 209.5,0.5 C 209.678,3.2165 210.178,5.88317 211,8.5C 211.333,8.16667 211.667,7.83333 212,7.5C 213.648,8.717 215.481,9.55034 217.5,10C 216.396,11.1313 216.729,11.9646 218.5,12.5C 219.451,11.6744 220.451,11.5078 221.5,12C 220.377,13.0437 219.044,13.7104 217.5,14C 219.246,14.4709 220.913,15.1376 222.5,16C 225.918,19.9909 229.085,23.4909 232,26.5C 233,26.1667 234,25.8333 235,25.5C 235.846,27.8468 237.346,29.6801 239.5,31C 238.833,31.3333 238.167,31.6667 237.5,32C 240.751,33.5774 243.751,35.5774 246.5,38C 246.167,38.3333 245.833,38.6667 245.5,39C 246.833,40 248.167,41 249.5,42C 249.167,42.3333 248.833,42.6667 248.5,43C 249.931,43.4652 251.097,44.2986 252,45.5C 252.075,48.4473 253.242,49.4473 255.5,48.5C 255.5,57.5 255.5,66.5 255.5,75.5C 254.839,76.7175 254.172,78.0508 253.5,79.5C 252.304,79.1543 252.304,78.6543 253.5,78C 250.833,77.3333 250.833,76.6667 253.5,76C 251.028,74.3987 250.028,72.3987 250.5,70C 245.62,67.8593 243.454,64.3593 244,59.5C 242.636,60.2583 241.469,59.7583 240.5,58C 242.657,56.9153 242.824,55.7487 241,54.5C 238.964,55.9509 237.131,55.4509 235.5,53C 238.014,50.9333 237.848,49.4333 235,48.5C 234.581,49.6721 233.915,50.6721 233,51.5C 233.148,50.175 232.982,49.0084 232.5,48C 233.167,47.6667 233.833,47.3333 234.5,47C 233.371,44.8322 231.871,44.3322 230,45.5C 229.71,43.9559 229.044,42.6226 228,41.5C 227.333,42.8333 226.667,42.8333 226,41.5C 225.517,40.552 225.351,39.552 225.5,38.5C 224.178,38.33 223.011,38.6634 222,39.5C 221.544,38.2559 222.044,37.4226 223.5,37C 221.084,36.3386 219.418,34.8386 218.5,32.5C 215.151,33.8303 214.818,33.3303 217.5,31C 215.875,30.1475 215.542,29.1475 216.5,28C 214.702,26.4947 212.868,26.3281 211,27.5C 209.723,25.2689 207.889,23.6022 205.5,22.5C 206.04,21.2519 206.707,20.0852 207.5,19C 207.167,18.6667 206.833,18.3333 206.5,18C 207.541,12.0751 208.541,6.24174 209.5,0.5 Z"/></g>
<g><path style="opacity:1" fill="#1d0908" d="M 109.5,-0.5 C 119.5,-0.5 129.5,-0.5 139.5,-0.5C 136.901,4.42778 133.568,8.76111 129.5,12.5C 123.843,11.9709 117.51,10.1376 110.5,7C 110.833,6.66667 111.167,6.33333 111.5,6C 110.244,5.58309 109.577,4.74975 109.5,3.5C 109.5,2.16667 109.5,0.833333 109.5,-0.5 Z"/></g>
<g><path style="opacity:1" fill="#320e0d" d="M -0.5,-0.5 C 14.1667,-0.5 28.8333,-0.5 43.5,-0.5C 45.0808,1.14166 45.7475,3.14166 45.5,5.5C 45.7852,7.28801 45.4519,8.95467 44.5,10.5C 43.8076,9.97473 43.3076,9.30806 43,8.5C 40.9077,9.63988 38.741,9.63988 36.5,8.5C 36.1667,9.16667 35.8333,9.83333 35.5,10.5C 34.8076,9.97473 34.3076,9.30806 34,8.5C 31.0278,10.1789 28.3612,10.5122 26,9.5C 23,10.1667 20,10.8333 17,11.5C 16.3333,10.8333 15.6667,10.1667 15,9.5C 13.7827,10.3859 12.4493,11.3859 11,12.5C 8.66667,9.5 7,9.83333 6,13.5C 5.66667,12.8333 5.33333,12.1667 5,11.5C 3.54148,13.8096 1.70814,14.1429 -0.5,12.5C -0.5,8.16667 -0.5,3.83333 -0.5,-0.5 Z"/></g>
<g><path style="opacity:1" fill="#512827" d="M 65.5,-0.5 C 71.1667,-0.5 76.8333,-0.5 82.5,-0.5C 81.3833,3.51677 80.05,7.51677 78.5,11.5C 77.2589,13.8628 75.5923,15.8628 73.5,17.5C 69.2527,12.3277 66.586,6.32772 65.5,-0.5 Z"/></g>
<g><path style="opacity:1" fill="#2c0f0e" d="M 109.5,3.5 C 109.577,4.74975 110.244,5.58309 111.5,6C 111.167,6.33333 110.833,6.66667 110.5,7C 117.51,10.1376 123.843,11.9709 129.5,12.5C 128.167,14.5 126.5,16.1667 124.5,17.5C 123.391,17.4431 122.391,17.1098 121.5,16.5C 117.041,14.6586 113.041,15.3253 109.5,18.5C 106.975,19.6808 104.475,21.0142 102,22.5C 102.331,20.9813 102.164,19.648 101.5,18.5C 101.5,18.1667 101.5,17.8333 101.5,17.5C 105.1,13.3684 107.766,8.7017 109.5,3.5 Z"/></g>
<g><path style="opacity:1" fill="#d9c4ce" d="M 139.5,-0.5 C 140.833,-0.5 142.167,-0.5 143.5,-0.5C 138.937,6.90371 133.77,13.9037 128,20.5C 126.644,21.3802 125.144,21.7135 123.5,21.5C 123.433,20.0413 123.766,18.7079 124.5,17.5C 126.5,16.1667 128.167,14.5 129.5,12.5C 133.568,8.76111 136.901,4.42778 139.5,-0.5 Z"/></g>
<g><path style="opacity:1" fill="#431d00" d="M 91.5,-0.5 C 93.8333,-0.5 96.1667,-0.5 98.5,-0.5C 96.3559,3.4233 94.6892,7.58997 93.5,12C 93.8333,12.8333 94.1667,13.6667 94.5,14.5C 96.7247,13.8995 98.8914,13.5661 101,13.5C 101.49,14.7932 101.657,16.1266 101.5,17.5C 101.5,17.8333 101.5,18.1667 101.5,18.5C 99.487,20.4974 97.1537,22.164 94.5,23.5C 93.9348,21.4565 92.9348,19.7898 91.5,18.5C 91.2451,16.0326 90.2451,14.0326 88.5,12.5C 89.2418,8.047 90.2418,3.71366 91.5,-0.5 Z"/></g>
<g><path style="opacity:1" fill="#3f2426" d="M 143.5,-0.5 C 144.5,-0.5 145.5,-0.5 146.5,-0.5C 143.111,9.5978 143.944,19.2645 149,28.5C 151.086,31.0939 153.586,33.0939 156.5,34.5C 156.53,35.4972 156.03,36.1639 155,36.5C 151.267,34.599 147.433,32.9323 143.5,31.5C 140.557,27.383 137.391,23.383 134,19.5C 130.438,20.8303 128.938,23.1637 129.5,26.5C 129.043,27.2975 128.376,27.6309 127.5,27.5C 124.402,22.2792 119.736,19.6125 113.5,19.5C 116.477,19.0984 119.143,18.0984 121.5,16.5C 122.391,17.1098 123.391,17.4431 124.5,17.5C 123.766,18.7079 123.433,20.0413 123.5,21.5C 125.144,21.7135 126.644,21.3802 128,20.5C 133.77,13.9037 138.937,6.90371 143.5,-0.5 Z"/></g>
<g><path style="opacity:1" fill="#25100f" d="M 88.5,12.5 C 90.2451,14.0326 91.2451,16.0326 91.5,18.5C 90.8692,20.9028 89.8692,23.2361 88.5,25.5C 82.9984,23.5717 77.9984,20.905 73.5,17.5C 75.5923,15.8628 77.2589,13.8628 78.5,11.5C 80.4491,12.7247 81.7825,12.058 82.5,9.5C 83.4742,11.7427 83.8076,14.076 83.5,16.5C 84.8333,16.5 86.1667,16.5 87.5,16.5C 87.4326,15.0413 87.7659,13.7079 88.5,12.5 Z"/></g>
<g><path style="opacity:1" fill="#927275" d="M 121.5,16.5 C 119.143,18.0984 116.477,19.0984 113.5,19.5C 112.167,19.8333 110.833,20.1667 109.5,20.5C 109.5,19.8333 109.5,19.1667 109.5,18.5C 113.041,15.3253 117.041,14.6586 121.5,16.5 Z"/></g>
<g><path style="opacity:1" fill="#090302" d="M 60.5,-0.5 C 62.1667,-0.5 63.8333,-0.5 65.5,-0.5C 66.586,6.32772 69.2527,12.3277 73.5,17.5C 77.9984,20.905 82.9984,23.5717 88.5,25.5C 89.8692,23.2361 90.8692,20.9028 91.5,18.5C 92.9348,19.7898 93.9348,21.4565 94.5,23.5C 97.1537,22.164 99.487,20.4974 101.5,18.5C 102.164,19.648 102.331,20.9813 102,22.5C 104.475,21.0142 106.975,19.6808 109.5,18.5C 109.5,19.1667 109.5,19.8333 109.5,20.5C 108.782,22.1368 108.616,23.8034 109,25.5C 111.22,24.013 113.22,22.3463 115,20.5C 116.3,21.7073 117.8,22.3739 119.5,22.5C 120.415,27.6634 121.415,32.83 122.5,38C 121.852,39.4397 121.519,40.9397 121.5,42.5C 119.683,44.8176 117.683,46.9843 115.5,49C 117.868,53.353 120.535,57.5197 123.5,61.5C 122.85,61.8039 122.183,62.1373 121.5,62.5C 120.012,60.7294 118.179,59.3961 116,58.5C 116.795,61.9069 115.295,63.9069 111.5,64.5C 110.71,63.2058 109.71,62.0391 108.5,61C 109.167,60.6667 109.833,60.3333 110.5,60C 109.736,57.9307 109.236,55.764 109,53.5C 106.03,52.3633 103.864,50.3633 102.5,47.5C 103.167,46.8333 103.833,46.1667 104.5,45.5C 104.167,45.1667 103.833,44.8333 103.5,44.5C 99.1909,45.3782 94.8576,46.2116 90.5,47C 89.244,47.4169 88.5774,48.2502 88.5,49.5C 87.8333,49.8333 87.1667,50.1667 86.5,50.5C 81.9242,50.4379 77.5909,51.1045 73.5,52.5C 70.9333,53.475 68.2666,54.1417 65.5,54.5C 65.838,56.854 66.338,59.1873 67,61.5C 68.8358,62.6694 70.0024,64.336 70.5,66.5C 69.675,67.3857 68.675,67.719 67.5,67.5C 66.609,68.1098 65.609,68.4431 64.5,68.5C 65.2341,67.2921 65.5674,65.9587 65.5,64.5C 63.7777,60.3836 63.2777,56.0503 64,51.5C 64.7247,52.0585 65.5581,52.3918 66.5,52.5C 70.678,49.9869 75.0114,47.6536 79.5,45.5C 80.2807,46.7366 81.2807,47.7366 82.5,48.5C 82.8333,47.6667 83.1667,46.8333 83.5,46C 80.8428,42.2973 77.3428,38.464 73,34.5C 70.5066,28.8428 67.5066,23.5095 64,18.5C 62.1237,12.2858 60.957,5.95248 60.5,-0.5 Z"/></g>
<g><path style="opacity:1" fill="#471716" d="M 45.5,5.5 C 46.3382,5.84171 46.6716,6.50838 46.5,7.5C 46.193,11.7338 46.8597,15.7338 48.5,19.5C 47.6967,21.9953 46.1967,23.9953 44,25.5C 40.5895,24.9315 37.2562,24.5982 34,24.5C 31.3315,26.4497 28.4982,26.783 25.5,25.5C 22.7924,26.0411 20.1257,26.7077 17.5,27.5C 15.939,26.6527 14.439,26.9861 13,28.5C 10.7472,28.3686 8.58055,28.0353 6.5,27.5C 5.49678,29.542 4.16344,29.8754 2.5,28.5C 1.78703,30.435 0.787033,30.7683 -0.5,29.5C -0.5,23.8333 -0.5,18.1667 -0.5,12.5C 1.70814,14.1429 3.54148,13.8096 5,11.5C 5.33333,12.1667 5.66667,12.8333 6,13.5C 7,9.83333 8.66667,9.5 11,12.5C 12.4493,11.3859 13.7827,10.3859 15,9.5C 15.6667,10.1667 16.3333,10.8333 17,11.5C 20,10.8333 23,10.1667 26,9.5C 28.3612,10.5122 31.0278,10.1789 34,8.5C 34.3076,9.30806 34.8076,9.97473 35.5,10.5C 35.8333,9.83333 36.1667,9.16667 36.5,8.5C 38.741,9.63988 40.9077,9.63988 43,8.5C 43.3076,9.30806 43.8076,9.97473 44.5,10.5C 45.4519,8.95467 45.7852,7.28801 45.5,5.5 Z"/></g>
<g><path style="opacity:1" fill="#150505" d="M 255.5,101.5 C 255.5,114.5 255.5,127.5 255.5,140.5C 253.188,142.367 250.521,142.867 247.5,142C 249.158,141.275 249.658,140.108 249,138.5C 248.195,140.901 247.362,140.734 246.5,138C 247.167,137.333 247.833,136.667 248.5,136C 247.529,134.796 246.529,134.296 245.5,134.5C 247.04,133.468 247.54,132.135 247,130.5C 246.444,132.595 245.944,132.762 245.5,131C 247.023,128.645 247.69,126.312 247.5,124C 243.193,123.134 242.86,122.134 246.5,121C 245.12,119.676 244.786,118.343 245.5,117C 244.833,115.667 244.167,114.333 243.5,113C 244.239,110.765 244.239,108.765 243.5,107C 242.833,106.333 242.167,105.667 241.5,105C 242.428,104.612 243.095,103.945 243.5,103C 242.11,101.311 240.11,99.4774 237.5,97.5C 240.181,94.8678 240.014,92.5344 237,90.5C 236.667,91.1667 236.333,91.8333 236,92.5C 235.661,89.964 235.161,87.464 234.5,85C 234.095,84.0546 233.428,83.3879 232.5,83C 233.167,82.6667 233.833,82.3333 234.5,82C 232.754,81.5291 231.087,80.8624 229.5,80C 231.767,78.9188 231.934,77.4188 230,75.5C 229.667,75.8333 229.333,76.1667 229,76.5C 228.316,75.2161 228.483,74.0495 229.5,73C 227.56,73.1781 225.893,72.1781 224.5,70C 225.554,68.6124 225.72,67.1124 225,65.5C 221.488,62.0158 217.654,58.8491 213.5,56C 214.517,54.9505 214.684,53.7839 214,52.5C 211.417,51.1258 208.917,49.6258 206.5,48C 207.167,47.6667 207.833,47.3333 208.5,47C 205.588,45.7604 202.921,44.0937 200.5,42C 201.167,41.6667 201.833,41.3333 202.5,41C 200.5,40 198.5,39 196.5,38C 197.167,37.6667 197.833,37.3333 198.5,37C 197.498,35.8437 196.498,35.3437 195.5,35.5C 196.361,33.6137 197.361,31.7804 198.5,30C 199.825,30.1484 200.992,29.9817 202,29.5C 202.684,30.7839 202.517,31.9505 201.5,33C 203.421,33.3603 205.088,34.1936 206.5,35.5C 207.641,36.4255 207.641,37.2588 206.5,38C 207.784,38.6838 208.951,38.5171 210,37.5C 211.487,38.2529 211.654,39.0862 210.5,40C 212.087,40.8624 213.754,41.5291 215.5,42C 214.724,43.7698 214.89,45.6031 216,47.5C 216.333,46.8333 216.667,46.1667 217,45.5C 217.29,47.0441 217.956,48.3774 219,49.5C 219.974,47.1224 220.641,47.4557 221,50.5C 221.667,49.1667 222.333,49.1667 223,50.5C 223.465,51.9308 224.299,53.0975 225.5,54C 225.167,54.3333 224.833,54.6667 224.5,55C 226.301,55.3173 226.634,55.984 225.5,57C 229.102,57.6346 229.768,58.968 227.5,61C 228.715,63.0955 229.549,62.9288 230,60.5C 231.814,63.9783 234.314,66.8116 237.5,69C 233.551,69.8068 233.551,70.3068 237.5,70.5C 237.343,71.8734 237.51,73.2068 238,74.5C 240.173,71.723 240.673,71.8897 239.5,75C 241.463,76.7618 242.796,78.4285 243.5,80C 242.833,80.3333 242.167,80.6667 241.5,81C 241.976,82.8242 243.476,84.3242 246,85.5C 245.257,88.8816 246.424,91.715 249.5,94C 250.694,96.063 250.694,98.2296 249.5,100.5C 251.333,102.166 252.666,104.166 253.5,106.5C 254.17,104.709 254.837,103.042 255.5,101.5 Z"/></g>
<g><path style="opacity:1" fill="#330803" d="M 95.5,25.5 C 96.8333,25.5 98.1667,25.5 99.5,25.5C 97.5295,29.441 95.5295,33.441 93.5,37.5C 90.872,39.6327 88.0387,39.966 85,38.5C 84.3131,36.4325 84.4798,34.4325 85.5,32.5C 83.0807,29.9736 83.7473,28.1403 87.5,27C 89.5269,26.5022 91.5269,26.6689 93.5,27.5C 94.7133,27.2528 95.38,26.5862 95.5,25.5 Z"/></g>
<g><path style="opacity:1" fill="#612423" d="M 46.5,7.5 C 48.6772,13.1908 50.0105,19.1908 50.5,25.5C 51.0827,29.5858 52.0827,33.5858 53.5,37.5C 53.1667,38.1667 52.8333,38.8333 52.5,39.5C 45.1961,38.4961 37.6961,38.1627 30,38.5C 25.9769,39.393 21.9769,40.393 18,41.5C 14.6667,41.5 11.3333,41.5 8,41.5C 6.48779,42.2567 5.15445,43.2567 4,44.5C 2.70119,44.0338 1.20119,44.0338 -0.5,44.5C -0.5,39.5 -0.5,34.5 -0.5,29.5C 0.787033,30.7683 1.78703,30.435 2.5,28.5C 4.16344,29.8754 5.49678,29.542 6.5,27.5C 8.58055,28.0353 10.7472,28.3686 13,28.5C 14.439,26.9861 15.939,26.6527 17.5,27.5C 20.1257,26.7077 22.7924,26.0411 25.5,25.5C 28.4982,26.783 31.3315,26.4497 34,24.5C 37.2562,24.5982 40.5895,24.9315 44,25.5C 46.1967,23.9953 47.6967,21.9953 48.5,19.5C 46.8597,15.7338 46.193,11.7338 46.5,7.5 Z"/></g>
<g><path style="opacity:1" fill="#31191b" d="M 53.5,-0.5 C 55.8333,-0.5 58.1667,-0.5 60.5,-0.5C 60.957,5.95248 62.1237,12.2858 64,18.5C 67.5066,23.5095 70.5066,28.8428 73,34.5C 77.3428,38.464 80.8428,42.2973 83.5,46C 83.1667,46.8333 82.8333,47.6667 82.5,48.5C 81.2807,47.7366 80.2807,46.7366 79.5,45.5C 75.0114,47.6536 70.678,49.9869 66.5,52.5C 65.5581,52.3918 64.7247,52.0585 64,51.5C 63.2777,56.0503 63.7777,60.3836 65.5,64.5C 64.5041,64.5858 63.6708,64.2524 63,63.5C 62.338,61.1873 61.838,58.854 61.5,56.5C 61.6655,52.4862 61.4988,48.4862 61,44.5C 54.0554,30.3375 51.5554,15.3375 53.5,-0.5 Z"/></g>
<g><path style="opacity:1" fill="#450a05" d="M 188.5,10.5 C 185.092,19.2915 182.425,28.2915 180.5,37.5C 178.992,39.1815 177.992,41.1815 177.5,43.5C 175.638,46.5411 173.305,49.2078 170.5,51.5C 169.604,52.5063 168.938,52.5063 168.5,51.5C 166.786,50.2616 164.786,49.595 162.5,49.5C 162.84,41.3253 167.007,36.3253 175,34.5C 177.234,35.7054 178.901,35.0387 180,32.5C 180.667,31.5 180.667,30.5 180,29.5C 178.667,30.1667 177.333,30.8333 176,31.5C 175.833,31.1667 175.667,30.8333 175.5,30.5C 177.658,27.8515 178.992,24.8515 179.5,21.5C 180.641,17.6227 181.808,13.6227 183,9.5C 183.667,8.16667 184.333,8.16667 185,9.5C 187.867,2.60644 189.034,2.93977 188.5,10.5 Z"/></g>
<g><path style="opacity:1" fill="#722f2f" d="M 50.5,25.5 C 52.7387,30.2159 54.4054,35.2159 55.5,40.5C 55.8244,43.694 54.6578,44.694 52,43.5C 51.5814,44.6721 50.9147,45.6721 50,46.5C 40.6457,45.5229 31.6457,45.1895 23,45.5C 22.3946,47.4812 21.3946,47.8146 20,46.5C 16.7414,48.3223 13.4081,48.989 10,48.5C 6.66756,50.1995 3.16756,51.5329 -0.5,52.5C -0.5,49.8333 -0.5,47.1667 -0.5,44.5C 1.20119,44.0338 2.70119,44.0338 4,44.5C 5.15445,43.2567 6.48779,42.2567 8,41.5C 11.3333,41.5 14.6667,41.5 18,41.5C 21.9769,40.393 25.9769,39.393 30,38.5C 37.6961,38.1627 45.1961,38.4961 52.5,39.5C 52.8333,38.8333 53.1667,38.1667 53.5,37.5C 52.0827,33.5858 51.0827,29.5858 50.5,25.5 Z"/></g>
<g><path style="opacity:1" fill="#230502" d="M 123.5,61.5 C 120.535,57.5197 117.868,53.353 115.5,49C 117.683,46.9843 119.683,44.8176 121.5,42.5C 124.525,42.1231 127.525,41.9565 130.5,42C 132.703,44.7007 134.703,47.5341 136.5,50.5C 133.636,56.0399 129.303,59.7066 123.5,61.5 Z"/></g>
<g><path style="opacity:1" fill="#803a3a" d="M 55.5,40.5 C 57.1936,42.7156 58.5269,45.2156 59.5,48C 58.2927,49.3002 57.6261,50.8002 57.5,52.5C 56.6981,53.9516 56.1981,55.6183 56,57.5C 53.5017,58.1212 51.1684,57.4545 49,55.5C 47.8675,57.5217 46.2009,57.8551 44,56.5C 36.5699,57.1169 29.2366,58.1169 22,59.5C 21.586,59.0426 21.086,58.7093 20.5,58.5C 15.7358,59.8294 10.7358,61.3294 5.5,63C 3.33579,64.0222 1.33579,65.1889 -0.5,66.5C -0.5,61.8333 -0.5,57.1667 -0.5,52.5C 3.16756,51.5329 6.66756,50.1995 10,48.5C 13.4081,48.989 16.7414,48.3223 20,46.5C 21.3946,47.8146 22.3946,47.4812 23,45.5C 31.6457,45.1895 40.6457,45.5229 50,46.5C 50.9147,45.6721 51.5814,44.6721 52,43.5C 54.6578,44.694 55.8244,43.694 55.5,40.5 Z"/></g>
<g><path style="opacity:1" fill="#1c0706" d="M 195.5,35.5 C 196.498,35.3437 197.498,35.8437 198.5,37C 197.833,37.3333 197.167,37.6667 196.5,38C 198.5,39 200.5,40 202.5,41C 201.833,41.3333 201.167,41.6667 200.5,42C 202.921,44.0937 205.588,45.7604 208.5,47C 207.833,47.3333 207.167,47.6667 206.5,48C 208.917,49.6258 211.417,51.1258 214,52.5C 214.684,53.7839 214.517,54.9505 213.5,56C 217.654,58.8491 221.488,62.0158 225,65.5C 225.72,67.1124 225.554,68.6124 224.5,70C 225.893,72.1781 227.56,73.1781 229.5,73C 228.483,74.0495 228.316,75.2161 229,76.5C 229.333,76.1667 229.667,75.8333 230,75.5C 231.934,77.4188 231.767,78.9188 229.5,80C 231.087,80.8624 232.754,81.5291 234.5,82C 233.833,82.3333 233.167,82.6667 232.5,83C 233.428,83.3879 234.095,84.0546 234.5,85C 235.161,87.464 235.661,89.964 236,92.5C 236.333,91.8333 236.667,91.1667 237,90.5C 240.014,92.5344 240.181,94.8678 237.5,97.5C 240.11,99.4774 242.11,101.311 243.5,103C 243.095,103.945 242.428,104.612 241.5,105C 242.167,105.667 242.833,106.333 243.5,107C 244.239,108.765 244.239,110.765 243.5,113C 244.167,114.333 244.833,115.667 245.5,117C 244.786,118.343 245.12,119.676 246.5,121C 242.86,122.134 243.193,123.134 247.5,124C 247.69,126.312 247.023,128.645 245.5,131C 245.944,132.762 246.444,132.595 247,130.5C 247.54,132.135 247.04,133.468 245.5,134.5C 246.529,134.296 247.529,134.796 248.5,136C 247.833,136.667 247.167,137.333 246.5,138C 247.362,140.734 248.195,140.901 249,138.5C 249.658,140.108 249.158,141.275 247.5,142C 250.521,142.867 253.188,142.367 255.5,140.5C 255.5,141.5 255.5,142.5 255.5,143.5C 251.5,143.5 247.5,143.5 243.5,143.5C 241.622,142.792 239.955,141.626 238.5,140C 241.464,139.16 241.797,138.16 239.5,137C 242.167,136.333 242.167,135.667 239.5,135C 240.665,133.132 240.332,131.298 238.5,129.5C 239.167,128.833 239.833,128.167 240.5,127.5C 238.422,125.572 237.755,123.405 238.5,121C 237.629,117.663 236.629,114.329 235.5,111C 235.645,110.228 235.978,109.561 236.5,109C 233.079,106.46 232.079,103.626 233.5,100.5C 232.5,99.6667 231.5,98.8333 230.5,98C 231.451,97.2825 231.617,96.4491 231,95.5C 230.282,96.4506 229.449,96.6172 228.5,96C 229.833,95 229.833,94 228.5,93C 229.5,92.6667 230.5,92.3333 231.5,92C 230.062,91.7811 228.729,91.2811 227.5,90.5C 225.86,87.2208 224.027,83.5541 222,79.5C 221.667,79.8333 221.333,80.1667 221,80.5C 219.887,79.2396 219.72,78.073 220.5,77C 219.809,75.9326 219.309,74.7659 219,73.5C 218.667,74.1667 218.333,74.8333 218,75.5C 217.51,74.2068 217.343,72.8734 217.5,71.5C 216.448,71.6495 215.448,71.4828 214.5,71C 215.196,69.512 214.862,68.012 213.5,66.5C 211.504,63.6726 209.004,61.3392 206,59.5C 205.667,58.5 205.333,57.5 205,56.5C 204.667,56.8333 204.333,57.1667 204,57.5C 203.138,55.913 202.471,54.2464 202,52.5C 200.16,53.8331 199.66,53.6665 200.5,52C 194.575,46.9833 189.241,42.15 184.5,37.5C 185.641,35.7573 187.308,34.7573 189.5,34.5C 191.375,36.3555 193.375,36.6888 195.5,35.5 Z"/></g>
<g><path style="opacity:1" fill="#794008" d="M 101.5,54.5 C 100.167,54.5 98.8333,54.5 97.5,54.5C 97.5,56.1667 97.5,57.8333 97.5,59.5C 99.1667,59.5 100.833,59.5 102.5,59.5C 99.1446,61.9211 95.6446,61.9211 92,59.5C 91.1041,56.975 91.6041,54.8083 93.5,53C 96.4822,52.2971 99.1488,52.7971 101.5,54.5 Z"/></g>
<g><path style="opacity:1" fill="#e77a06" d="M 101.5,54.5 C 102.167,54.8333 102.833,55.1667 103.5,55.5C 103.5,55.8333 103.5,56.1667 103.5,56.5C 103.737,57.791 103.404,58.791 102.5,59.5C 100.833,59.5 99.1667,59.5 97.5,59.5C 97.5,57.8333 97.5,56.1667 97.5,54.5C 98.8333,54.5 100.167,54.5 101.5,54.5 Z"/></g>
<g><path style="opacity:1" fill="#914b4b" d="M 57.5,52.5 C 57.5,56.5 57.5,60.5 57.5,64.5C 53.6521,64.7603 49.9855,64.0936 46.5,62.5C 36.8107,65.0909 27.1441,65.0909 17.5,62.5C 16.2867,62.7472 15.62,63.4138 15.5,64.5C 13.3793,68.7415 11.2126,73.0748 9,77.5C 8.69238,76.6919 8.19238,76.0253 7.5,75.5C 4.96464,76.9 2.29797,77.9 -0.5,78.5C -0.5,74.5 -0.5,70.5 -0.5,66.5C 1.33579,65.1889 3.33579,64.0222 5.5,63C 10.7358,61.3294 15.7358,59.8294 20.5,58.5C 21.086,58.7093 21.586,59.0426 22,59.5C 29.2366,58.1169 36.5699,57.1169 44,56.5C 46.2009,57.8551 47.8675,57.5217 49,55.5C 51.1684,57.4545 53.5017,58.1212 56,57.5C 56.1981,55.6183 56.6981,53.9516 57.5,52.5 Z"/></g>
<g><path style="opacity:1" fill="#401513" d="M 168.5,51.5 C 168.938,52.5063 169.604,52.5063 170.5,51.5C 170.393,53.3786 170.893,53.7119 172,52.5C 178.579,59.2432 185.412,65.9099 192.5,72.5C 189.482,72.2962 186.482,71.9629 183.5,71.5C 182.749,70.4265 181.749,70.2599 180.5,71C 179.736,73.0693 179.236,75.236 179,77.5C 178.683,75.6992 178.016,75.3659 177,76.5C 176.781,75.062 176.281,73.7287 175.5,72.5C 174.135,70.1402 172.135,68.4735 169.5,67.5C 168.451,65.472 167.451,63.472 166.5,61.5C 167.063,59.09 167.563,56.7567 168,54.5C 165.539,58.3967 163.372,62.3967 161.5,66.5C 160.539,64.7354 160.205,62.7354 160.5,60.5C 162.397,56.9292 165.064,53.9292 168.5,51.5 Z"/></g>
<g><path style="opacity:1" fill="#110604" d="M 146.5,-0.5 C 147.5,-0.5 148.5,-0.5 149.5,-0.5C 146.761,7.79436 146.928,16.1277 150,24.5C 151.045,25.3734 151.878,26.3734 152.5,27.5C 154.087,31.0557 156.754,32.2223 160.5,31C 162.269,28.2995 163.602,25.4662 164.5,22.5C 168.708,22.7937 169.375,24.4604 166.5,27.5C 169.321,28.9705 171.821,28.6372 174,26.5C 175.137,23.2317 175.97,19.8983 176.5,16.5C 175.624,10.7889 174.624,5.12223 173.5,-0.5C 174.833,-0.5 176.167,-0.5 177.5,-0.5C 178.693,6.76519 179.36,14.0985 179.5,21.5C 178.992,24.8515 177.658,27.8515 175.5,30.5C 175.667,30.8333 175.833,31.1667 176,31.5C 177.333,30.8333 178.667,30.1667 180,29.5C 180.667,30.5 180.667,31.5 180,32.5C 178.901,35.0387 177.234,35.7054 175,34.5C 167.007,36.3253 162.84,41.3253 162.5,49.5C 164.786,49.595 166.786,50.2616 168.5,51.5C 165.064,53.9292 162.397,56.9292 160.5,60.5C 156.651,61.5233 154.485,59.8566 154,55.5C 152.89,53.9632 151.39,53.2965 149.5,53.5C 149.439,51.4078 148.439,49.9078 146.5,49C 145.451,48.5078 144.451,48.6744 143.5,49.5C 139.944,46.7408 139.277,47.0741 141.5,50.5C 136.814,52.6917 133.981,56.3583 133,61.5C 131.698,62.0848 130.531,62.7515 129.5,63.5C 129.719,64.675 129.386,65.675 128.5,66.5C 127.071,65.065 125.405,64.065 123.5,63.5C 119.825,65.181 116.159,66.8477 112.5,68.5C 112.167,67.1667 111.833,65.8333 111.5,64.5C 115.295,63.9069 116.795,61.9069 116,58.5C 118.179,59.3961 120.012,60.7294 121.5,62.5C 122.183,62.1373 122.85,61.8039 123.5,61.5C 129.303,59.7066 133.636,56.0399 136.5,50.5C 134.703,47.5341 132.703,44.7007 130.5,42C 127.525,41.9565 124.525,42.1231 121.5,42.5C 121.519,40.9397 121.852,39.4397 122.5,38C 121.415,32.83 120.415,27.6634 119.5,22.5C 117.8,22.3739 116.3,21.7073 115,20.5C 113.22,22.3463 111.22,24.013 109,25.5C 108.616,23.8034 108.782,22.1368 109.5,20.5C 110.833,20.1667 112.167,19.8333 113.5,19.5C 119.736,19.6125 124.402,22.2792 127.5,27.5C 128.077,29.6516 129.244,29.985 131,28.5C 134.137,32.3086 137.303,36.1419 140.5,40C 148.058,43.7057 155.058,42.8724 161.5,37.5C 160.312,35.7377 158.645,34.7377 156.5,34.5C 153.586,33.0939 151.086,31.0939 149,28.5C 143.944,19.2645 143.111,9.5978 146.5,-0.5 Z"/></g>
<g><path style="opacity:1" fill="#291516" d="M 156.5,34.5 C 158.645,34.7377 160.312,35.7377 161.5,37.5C 155.058,42.8724 148.058,43.7057 140.5,40C 137.303,36.1419 134.137,32.3086 131,28.5C 129.244,29.985 128.077,29.6516 127.5,27.5C 128.376,27.6309 129.043,27.2975 129.5,26.5C 128.938,23.1637 130.438,20.8303 134,19.5C 137.391,23.383 140.557,27.383 143.5,31.5C 147.433,32.9323 151.267,34.599 155,36.5C 156.03,36.1639 156.53,35.4972 156.5,34.5 Z"/></g>
<g><path style="opacity:1" fill="#3b1c1b" d="M 166.5,-0.5 C 168.833,-0.5 171.167,-0.5 173.5,-0.5C 174.624,5.12223 175.624,10.7889 176.5,16.5C 175.97,19.8983 175.137,23.2317 174,26.5C 171.821,28.6372 169.321,28.9705 166.5,27.5C 169.375,24.4604 168.708,22.7937 164.5,22.5C 163.602,25.4662 162.269,28.2995 160.5,31C 156.754,32.2223 154.087,31.0557 152.5,27.5C 158.185,29.0164 160.185,26.8497 158.5,21C 160.532,17.0473 162.032,12.8806 163,8.5C 163.333,12.1667 163.667,15.8333 164,19.5C 164.333,19.1667 164.667,18.8333 165,18.5C 166.317,12.2425 166.817,5.90921 166.5,-0.5 Z"/></g>
<g><path style="opacity:1" fill="#562c2b" d="M 149.5,-0.5 C 155.167,-0.5 160.833,-0.5 166.5,-0.5C 166.817,5.90921 166.317,12.2425 165,18.5C 164.667,18.8333 164.333,19.1667 164,19.5C 163.667,15.8333 163.333,12.1667 163,8.5C 162.032,12.8806 160.532,17.0473 158.5,21C 160.185,26.8497 158.185,29.0164 152.5,27.5C 151.878,26.3734 151.045,25.3734 150,24.5C 146.928,16.1277 146.761,7.79436 149.5,-0.5 Z"/></g>
<g><path style="opacity:1" fill="#522c11" d="M 103.5,55.5 C 102.833,55.1667 102.167,54.8333 101.5,54.5C 99.1488,52.7971 96.4822,52.2971 93.5,53C 91.6041,54.8083 91.1041,56.975 92,59.5C 95.6446,61.9211 99.1446,61.9211 102.5,59.5C 103.404,58.791 103.737,57.791 103.5,56.5C 104.848,57.5268 105.348,58.8602 105,60.5C 102.037,63.2353 98.7036,64.2353 95,63.5C 94.3828,64.4491 94.5494,65.2825 95.5,66C 94.9056,66.4643 94.2389,66.631 93.5,66.5C 93.0572,62.705 91.2239,61.705 88,63.5C 86.6739,63.2451 85.6739,62.5784 85,61.5C 84.0386,57.5081 84.5386,53.8415 86.5,50.5C 87.1667,50.1667 87.8333,49.8333 88.5,49.5C 92.5431,48.0993 96.5431,48.266 100.5,50C 102.16,51.4877 103.16,53.321 103.5,55.5 Z"/></g>
<g><path style="opacity:1" fill="#201309" d="M 160.5,60.5 C 160.205,62.7354 160.539,64.7354 161.5,66.5C 161.629,68.2161 161.962,69.8828 162.5,71.5C 160.703,72.7298 158.703,73.3964 156.5,73.5C 155.597,70.6085 155.264,67.6085 155.5,64.5C 153.972,56.8165 149.306,53.6499 141.5,55C 140.619,55.7083 139.953,56.5416 139.5,57.5C 138.883,57.6107 138.383,57.944 138,58.5C 136.197,67.3639 139.697,70.8639 148.5,69C 147.199,70.6155 147.199,72.1155 148.5,73.5C 148.833,74.1667 149.167,74.8333 149.5,75.5C 146.561,75.082 144.228,73.582 142.5,71C 140.481,70.5503 138.648,69.717 137,68.5C 136.19,71.887 137.356,74.387 140.5,76C 139.309,76.6979 138.309,77.5313 137.5,78.5C 137.025,76.2163 136.025,74.2163 134.5,72.5C 134.573,70.9731 133.906,69.9731 132.5,69.5C 135.352,65.9579 134.352,63.9579 129.5,63.5C 130.531,62.7515 131.698,62.0848 133,61.5C 133.981,56.3583 136.814,52.6917 141.5,50.5C 139.277,47.0741 139.944,46.7408 143.5,49.5C 144.451,48.6744 145.451,48.5078 146.5,49C 148.439,49.9078 149.439,51.4078 149.5,53.5C 151.39,53.2965 152.89,53.9632 154,55.5C 154.485,59.8566 156.651,61.5233 160.5,60.5 Z"/></g>
<g><path style="opacity:1" fill="#ccacb4" d="M 43.5,-0.5 C 46.8333,-0.5 50.1667,-0.5 53.5,-0.5C 51.5554,15.3375 54.0554,30.3375 61,44.5C 61.4988,48.4862 61.6655,52.4862 61.5,56.5C 60.2521,57.3339 59.5854,58.6672 59.5,60.5C 59.1674,64.5158 60.834,67.1825 64.5,68.5C 65.609,68.4431 66.609,68.1098 67.5,67.5C 67.6085,69.5138 66.9418,71.1805 65.5,72.5C 64.5,72.5 63.5,72.5 62.5,72.5C 62.4606,71.4168 62.1272,70.4168 61.5,69.5C 57.8667,68.5881 54.2001,67.9215 50.5,67.5C 45.5,67.5 40.5,67.5 35.5,67.5C 30.8333,67.5 26.1667,67.5 21.5,67.5C 20.0772,65.4551 18.0772,64.4551 15.5,64.5C 15.62,63.4138 16.2867,62.7472 17.5,62.5C 27.1441,65.0909 36.8107,65.0909 46.5,62.5C 49.9855,64.0936 53.6521,64.7603 57.5,64.5C 57.5,60.5 57.5,56.5 57.5,52.5C 57.6261,50.8002 58.2927,49.3002 59.5,48C 58.5269,45.2156 57.1936,42.7156 55.5,40.5C 54.4054,35.2159 52.7387,30.2159 50.5,25.5C 50.0105,19.1908 48.6772,13.1908 46.5,7.5C 46.6716,6.50838 46.3382,5.84171 45.5,5.5C 45.7475,3.14166 45.0808,1.14166 43.5,-0.5 Z"/></g>
<g><path style="opacity:1" fill="#a76c6f" d="M 61.5,56.5 C 61.838,58.854 62.338,61.1873 63,63.5C 63.6708,64.2524 64.5041,64.5858 65.5,64.5C 65.5674,65.9587 65.2341,67.2921 64.5,68.5C 60.834,67.1825 59.1674,64.5158 59.5,60.5C 59.5854,58.6672 60.2521,57.3339 61.5,56.5 Z"/></g>
<g><path style="opacity:1" fill="#502703" d="M 166.5,61.5 C 165.781,65.1738 164.448,68.5071 162.5,71.5C 161.962,69.8828 161.629,68.2161 161.5,66.5C 163.372,62.3967 165.539,58.3967 168,54.5C 167.563,56.7567 167.063,59.09 166.5,61.5 Z"/></g>
<g><path style="opacity:1" fill="#130a08" d="M 111.5,64.5 C 111.833,65.8333 112.167,67.1667 112.5,68.5C 111.962,70.1172 111.629,71.7839 111.5,73.5C 112.5,73.5 113.5,73.5 114.5,73.5C 112.807,76.1841 111.14,78.8508 109.5,81.5C 108.057,80.6649 107.057,79.3316 106.5,77.5C 104.418,78.3656 103.085,79.8656 102.5,82C 104.53,84.3793 106.197,87.046 107.5,90C 104.989,91.8536 103.656,94.3536 103.5,97.5C 102.726,105.699 106.06,111.365 113.5,114.5C 115.167,114.5 116.833,114.5 118.5,114.5C 119.167,115.5 119.833,116.5 120.5,117.5C 118.772,118.379 116.939,119.046 115,119.5C 110.523,118.82 106.023,118.32 101.5,118C 100.944,117.617 100.611,117.117 100.5,116.5C 99.7488,114.287 98.5821,112.287 97,110.5C 94.9572,100.631 93.9572,90.6305 94,80.5C 92.108,81.13 90.4413,82.13 89,83.5C 88.5357,82.9056 88.369,82.2389 88.5,81.5C 90.1804,79.4726 91.3471,77.1392 92,74.5C 93.3068,73.2283 94.8068,72.2283 96.5,71.5C 95.3112,70.5713 93.9778,70.238 92.5,70.5C 92.2322,68.901 92.5655,67.5676 93.5,66.5C 94.2389,66.631 94.9056,66.4643 95.5,66C 94.5494,65.2825 94.3828,64.4491 95,63.5C 98.7036,64.2353 102.037,63.2353 105,60.5C 105.348,58.8602 104.848,57.5268 103.5,56.5C 103.5,56.1667 103.5,55.8333 103.5,55.5C 103.16,53.321 102.16,51.4877 100.5,50C 96.5431,48.266 92.5431,48.0993 88.5,49.5C 88.5774,48.2502 89.244,47.4169 90.5,47C 94.8576,46.2116 99.1909,45.3782 103.5,44.5C 103.833,44.8333 104.167,45.1667 104.5,45.5C 103.833,46.1667 103.167,46.8333 102.5,47.5C 103.864,50.3633 106.03,52.3633 109,53.5C 109.236,55.764 109.736,57.9307 110.5,60C 109.833,60.3333 109.167,60.6667 108.5,61C 109.71,62.0391 110.71,63.2058 111.5,64.5 Z"/></g>
<g><path style="opacity:1" fill="#3d210b" d="M 155.5,64.5 C 153.692,65.9179 153.025,67.9179 153.5,70.5C 151.585,70.2155 149.919,70.5489 148.5,71.5C 148.5,72.1667 148.5,72.8333 148.5,73.5C 147.199,72.1155 147.199,70.6155 148.5,69C 139.697,70.8639 136.197,67.3639 138,58.5C 138.383,57.944 138.883,57.6107 139.5,57.5C 139.953,56.5416 140.619,55.7083 141.5,55C 149.306,53.6499 153.972,56.8165 155.5,64.5 Z"/></g>
<g><path style="opacity:1" fill="#5e3208" d="M 140.5,63.5 C 139.539,61.7354 139.205,59.7354 139.5,57.5C 146.194,54.6727 150.527,56.6727 152.5,63.5C 151.372,65.5563 149.538,66.5563 147,66.5C 145.5,66.3333 144,66.1667 142.5,66C 141.244,65.5831 140.577,64.7498 140.5,63.5 Z"/></g>
<g><path style="opacity:1" fill="#f68000" d="M 140.5,63.5 C 140.167,60.5 141.5,59.1667 144.5,59.5C 144.833,62.5 143.5,63.8333 140.5,63.5 Z"/></g>
<g><path style="opacity:1" fill="#321110" d="M 177.5,43.5 C 179.38,48.7668 183.046,52.2668 188.5,54C 188.167,54.3333 187.833,54.6667 187.5,55C 189.049,56.214 190.215,57.714 191,59.5C 191.333,58.8333 191.667,58.1667 192,57.5C 193.044,58.6226 193.71,59.9559 194,61.5C 194.423,60.0439 195.256,59.5439 196.5,60C 196.835,61.164 196.835,62.4974 196.5,64C 198.994,65.9891 200.827,68.4891 202,71.5C 202.333,70.5 202.667,69.5 203,68.5C 203.273,70.3289 204.107,71.8289 205.5,73C 204.833,73.3333 204.167,73.6667 203.5,74C 204.849,74.7724 205.682,75.9391 206,77.5C 206.333,76.8333 206.667,76.1667 207,75.5C 207.606,78.3856 209.106,80.5522 211.5,82C 209.099,82.805 209.266,83.6383 212,84.5C 214.303,87.4056 215.637,90.4056 216,93.5C 218.018,95.3501 219.851,97.3501 221.5,99.5C 220.36,103.072 220.36,106.572 221.5,110C 222.524,112.378 223.858,113.712 225.5,114C 225.095,114.945 224.428,115.612 223.5,116C 225.022,118.305 227.022,119.805 229.5,120.5C 229.5,121.833 229.5,123.167 229.5,124.5C 228.733,123.828 228.066,122.995 227.5,122C 226.167,122 224.833,122 223.5,122C 220.29,119.283 216.956,116.783 213.5,114.5C 213.167,113.833 212.833,113.167 212.5,112.5C 212.167,109.833 211.833,107.167 211.5,104.5C 210.024,90.7458 203.691,80.0791 192.5,72.5C 185.412,65.9099 178.579,59.2432 172,52.5C 170.893,53.7119 170.393,53.3786 170.5,51.5C 173.305,49.2078 175.638,46.5411 177.5,43.5 Z"/></g>
<g><path style="opacity:1" fill="#432d0b" d="M 129.5,63.5 C 134.352,63.9579 135.352,65.9579 132.5,69.5C 131.162,67.8872 129.495,67.3872 127.5,68C 128.056,68.3826 128.389,68.8826 128.5,69.5C 127.761,69.369 127.094,69.5357 126.5,70C 128.872,71.4705 128.872,72.6372 126.5,73.5C 123.885,72.7308 121.219,72.3975 118.5,72.5C 116.872,71.1472 115.538,71.4805 114.5,73.5C 113.5,73.5 112.5,73.5 111.5,73.5C 111.629,71.7839 111.962,70.1172 112.5,68.5C 116.159,66.8477 119.825,65.181 123.5,63.5C 125.405,64.065 127.071,65.065 128.5,66.5C 129.386,65.675 129.719,64.675 129.5,63.5 Z"/></g>
<g><path style="opacity:1" fill="#9b4647" d="M 21.5,67.5 C 26.1667,67.5 30.8333,67.5 35.5,67.5C 29.9643,68.207 24.2976,68.8737 18.5,69.5C 16.5712,74.3533 14.4045,79.0199 12,83.5C 11.5034,85.8098 11.3367,88.1432 11.5,90.5C 7.68774,81.5803 9.68774,74.0803 17.5,68C 18.7932,67.51 20.1266,67.3433 21.5,67.5 Z"/></g>
<g><path style="opacity:1" fill="#791b0c" d="M 50.5,67.5 C 54.2001,67.9215 57.8667,68.5881 61.5,69.5C 62.1272,70.4168 62.4606,71.4168 62.5,72.5C 62.5751,75.2062 62.9084,77.8728 63.5,80.5C 62.1006,78.0576 60.434,75.7243 58.5,73.5C 58.1667,74 57.8333,74.5 57.5,75C 60.7977,79.3312 63.2977,84.1646 65,89.5C 67.8106,94.1341 71.3106,98.1341 75.5,101.5C 76.8333,102.5 78.1667,103.5 79.5,104.5C 81.5,106.833 83.5,109.167 85.5,111.5C 81.9852,108.826 78.3185,106.326 74.5,104C 73.0237,101.357 71.0237,99.1901 68.5,97.5C 67.6099,99.8261 67.4433,102.159 68,104.5C 65.4839,103.749 62.9839,102.749 60.5,101.5C 57.8489,96.1978 55.1822,90.8644 52.5,85.5C 50.5,81.5 48.5,77.5 46.5,73.5C 47.325,71.1898 48.6583,69.1898 50.5,67.5 Z"/></g>
<g><path style="opacity:1" fill="#2c1618" d="M 73.5,52.5 C 73.8333,54.5 74.1667,56.5 74.5,58.5C 73.325,58.281 72.325,58.6143 71.5,59.5C 77.0118,60.3152 80.5118,63.3152 82,68.5C 83,67.1667 84,67.1667 85,68.5C 85.4561,69.7441 84.9561,70.5774 83.5,71C 84.1667,71.6667 84.8333,72.3333 85.5,73C 83.3119,76.0218 80.6452,78.5218 77.5,80.5C 75.8573,78.0232 74.024,75.6898 72,73.5C 71.51,74.7932 71.3433,76.1266 71.5,77.5C 69.8333,78.8333 68.1667,80.1667 66.5,81.5C 65.701,78.5701 65.3677,75.5701 65.5,72.5C 66.9418,71.1805 67.6085,69.5138 67.5,67.5C 68.675,67.719 69.675,67.3857 70.5,66.5C 70.0024,64.336 68.8358,62.6694 67,61.5C 66.338,59.1873 65.838,56.854 65.5,54.5C 68.2666,54.1417 70.9333,53.475 73.5,52.5 Z"/></g>
<g><path style="opacity:1" fill="#260b0a" d="M 180.5,37.5 C 181.705,38.6857 183.039,38.6857 184.5,37.5C 189.241,42.15 194.575,46.9833 200.5,52C 199.66,53.6665 200.16,53.8331 202,52.5C 202.471,54.2464 203.138,55.913 204,57.5C 204.333,57.1667 204.667,56.8333 205,56.5C 205.333,57.5 205.667,58.5 206,59.5C 209.004,61.3392 211.504,63.6726 213.5,66.5C 214.862,68.012 215.196,69.512 214.5,71C 215.448,71.4828 216.448,71.6495 217.5,71.5C 217.343,72.8734 217.51,74.2068 218,75.5C 218.333,74.8333 218.667,74.1667 219,73.5C 219.309,74.7659 219.809,75.9326 220.5,77C 219.72,78.073 219.887,79.2396 221,80.5C 221.333,80.1667 221.667,79.8333 222,79.5C 224.027,83.5541 225.86,87.2208 227.5,90.5C 228.729,91.2811 230.062,91.7811 231.5,92C 230.5,92.3333 229.5,92.6667 228.5,93C 229.833,94 229.833,95 228.5,96C 229.449,96.6172 230.282,96.4506 231,95.5C 231.617,96.4491 231.451,97.2825 230.5,98C 231.5,98.8333 232.5,99.6667 233.5,100.5C 232.079,103.626 233.079,106.46 236.5,109C 235.978,109.561 235.645,110.228 235.5,111C 236.629,114.329 237.629,117.663 238.5,121C 237.755,123.405 238.422,125.572 240.5,127.5C 239.833,128.167 239.167,128.833 238.5,129.5C 240.332,131.298 240.665,133.132 239.5,135C 242.167,135.667 242.167,136.333 239.5,137C 241.797,138.16 241.464,139.16 238.5,140C 239.955,141.626 241.622,142.792 243.5,143.5C 241.5,143.5 239.5,143.5 237.5,143.5C 237.5,142.833 237.5,142.167 237.5,141.5C 235.104,135.708 232.437,130.041 229.5,124.5C 229.5,123.167 229.5,121.833 229.5,120.5C 227.022,119.805 225.022,118.305 223.5,116C 224.428,115.612 225.095,114.945 225.5,114C 223.858,113.712 222.524,112.378 221.5,110C 220.36,106.572 220.36,103.072 221.5,99.5C 219.851,97.3501 218.018,95.3501 216,93.5C 215.637,90.4056 214.303,87.4056 212,84.5C 209.266,83.6383 209.099,82.805 211.5,82C 209.106,80.5522 207.606,78.3856 207,75.5C 206.667,76.1667 206.333,76.8333 206,77.5C 205.682,75.9391 204.849,74.7724 203.5,74C 204.167,73.6667 204.833,73.3333 205.5,73C 204.107,71.8289 203.273,70.3289 203,68.5C 202.667,69.5 202.333,70.5 202,71.5C 200.827,68.4891 198.994,65.9891 196.5,64C 196.835,62.4974 196.835,61.164 196.5,60C 195.256,59.5439 194.423,60.0439 194,61.5C 193.71,59.9559 193.044,58.6226 192,57.5C 191.667,58.1667 191.333,58.8333 191,59.5C 190.215,57.714 189.049,56.214 187.5,55C 187.833,54.6667 188.167,54.3333 188.5,54C 183.046,52.2668 179.38,48.7668 177.5,43.5C 177.992,41.1815 178.992,39.1815 180.5,37.5 Z"/></g>
<g><path style="opacity:1" fill="#a87a76" d="M 155.5,64.5 C 155.264,67.6085 155.597,70.6085 156.5,73.5C 157.11,74.391 157.443,75.391 157.5,76.5C 157.167,76.5 156.833,76.5 156.5,76.5C 154.371,74.0499 151.704,72.3833 148.5,71.5C 149.919,70.5489 151.585,70.2155 153.5,70.5C 153.025,67.9179 153.692,65.9179 155.5,64.5 Z"/></g>
<g><path style="opacity:1" fill="#170e07" d="M 128.5,69.5 C 130.805,71.0803 131.472,73.0803 130.5,75.5C 128.883,76.038 127.216,76.3713 125.5,76.5C 122.442,73.5967 119.776,73.9301 117.5,77.5C 116.637,78.463 115.97,78.463 115.5,77.5C 116.763,75.9713 117.763,74.3046 118.5,72.5C 121.219,72.3975 123.885,72.7308 126.5,73.5C 128.872,72.6372 128.872,71.4705 126.5,70C 127.094,69.5357 127.761,69.369 128.5,69.5 Z"/></g>
<g><path style="opacity:1" fill="#dc931d" d="M 148.5,71.5 C 151.704,72.3833 154.371,74.0499 156.5,76.5C 153.86,75.5515 151.193,74.5515 148.5,73.5C 148.5,72.8333 148.5,72.1667 148.5,71.5 Z"/></g>
<g><path style="opacity:1" fill="#4a2e2d" d="M 118.5,72.5 C 117.763,74.3046 116.763,75.9713 115.5,77.5C 115.97,78.463 116.637,78.463 117.5,77.5C 118.167,79.1667 118.833,80.8333 119.5,82.5C 117.801,82.4729 116.467,81.8062 115.5,80.5C 115.5,79.8333 115.167,79.5 114.5,79.5C 113.883,79.3893 113.383,79.056 113,78.5C 111.961,79.7101 110.794,80.7101 109.5,81.5C 111.14,78.8508 112.807,76.1841 114.5,73.5C 115.538,71.4805 116.872,71.1472 118.5,72.5 Z"/></g>
<g><path style="opacity:1" fill="#ad696d" d="M 15.5,64.5 C 18.0772,64.4551 20.0772,65.4551 21.5,67.5C 20.1266,67.3433 18.7932,67.51 17.5,68C 9.68774,74.0803 7.68774,81.5803 11.5,90.5C 11.5,91.8333 11.5,93.1667 11.5,94.5C 9.30202,94.8799 7.63535,94.2132 6.5,92.5C 7.84736,93.0283 9.1807,93.195 10.5,93C 8.16658,89.0356 7.33325,84.869 8,80.5C 6.95911,84.7586 4.79244,88.2586 1.5,91C 2.4158,91.2784 3.08247,91.7784 3.5,92.5C 2.16667,93.1667 2.16667,93.8333 3.5,94.5C 2.43236,95.4345 1.09903,95.7678 -0.5,95.5C -0.5,89.8333 -0.5,84.1667 -0.5,78.5C 2.29797,77.9 4.96464,76.9 7.5,75.5C 8.19238,76.0253 8.69238,76.6919 9,77.5C 11.2126,73.0748 13.3793,68.7415 15.5,64.5 Z"/></g>
<g><path style="opacity:1" fill="#c47520" d="M 134.5,72.5 C 136.025,74.2163 137.025,76.2163 137.5,78.5C 137.5,78.8333 137.5,79.1667 137.5,79.5C 135.696,78.5056 134.03,76.6723 132.5,74C 132.836,72.9701 133.503,72.4701 134.5,72.5 Z"/></g>
<g><path style="opacity:1" fill="#7c4408" d="M 148.5,73.5 C 151.193,74.5515 153.86,75.5515 156.5,76.5C 156.833,76.5 157.167,76.5 157.5,76.5C 158.797,77.8488 158.63,79.1821 157,80.5C 156.517,79.552 156.351,78.552 156.5,77.5C 153.892,77.5997 151.558,76.9331 149.5,75.5C 149.167,74.8333 148.833,74.1667 148.5,73.5 Z"/></g>
<g><path style="opacity:1" fill="#e28323" d="M 130.5,75.5 C 132.515,77.2195 134.181,79.2195 135.5,81.5C 134.101,84.7189 132.101,86.8856 129.5,88C 129.833,88.8333 130.167,89.6667 130.5,90.5C 131.167,89.5 131.833,88.5 132.5,87.5C 133.521,88.9014 134.521,90.2347 135.5,91.5C 135.88,93.698 135.213,95.3646 133.5,96.5C 132.292,97.2341 130.959,97.5674 129.5,97.5C 129.511,95.9826 130.177,94.8159 131.5,94C 129.866,93.5065 128.199,93.3398 126.5,93.5C 126.457,90.9122 125.457,88.7456 123.5,87C 129.063,83.4253 128.729,82.2586 122.5,83.5C 122.5,81.5 122.5,79.5 122.5,77.5C 123.209,76.596 124.209,76.2627 125.5,76.5C 127.216,76.3713 128.883,76.038 130.5,75.5 Z"/></g>
<g><path style="opacity:1" fill="#5c2523" d="M 166.5,61.5 C 167.451,63.472 168.451,65.472 169.5,67.5C 172.135,68.4735 174.135,70.1402 175.5,72.5C 176.281,73.7287 176.781,75.062 177,76.5C 178.016,75.3659 178.683,75.6992 179,77.5C 179.236,75.236 179.736,73.0693 180.5,71C 181.749,70.2599 182.749,70.4265 183.5,71.5C 182.25,71.5774 181.417,72.244 181,73.5C 180.589,81.5841 177.756,88.5841 172.5,94.5C 171.448,94.6495 170.448,94.4828 169.5,94C 166.13,89.3496 162.296,85.1829 158,81.5C 156.961,82.7101 155.794,83.7101 154.5,84.5C 155.15,82.5648 155.483,80.5648 155.5,78.5C 152.687,78.9754 150.687,77.9754 149.5,75.5C 151.558,76.9331 153.892,77.5997 156.5,77.5C 156.351,78.552 156.517,79.552 157,80.5C 158.63,79.1821 158.797,77.8488 157.5,76.5C 157.443,75.391 157.11,74.391 156.5,73.5C 158.703,73.3964 160.703,72.7298 162.5,71.5C 164.448,68.5071 165.781,65.1738 166.5,61.5 Z"/></g>
<g><path style="opacity:1" fill="#801913" d="M 35.5,67.5 C 40.5,67.5 45.5,67.5 50.5,67.5C 48.6583,69.1898 47.325,71.1898 46.5,73.5C 44.6932,74.8362 43.1932,76.5029 42,78.5C 41.6667,78.1667 41.3333,77.8333 41,77.5C 39.9164,78.6651 39.0831,79.9984 38.5,81.5C 41.2526,82.4981 43.2526,84.3315 44.5,87C 42.1527,87.3336 39.8194,87.167 37.5,86.5C 37.5,87.8333 37.5,89.1667 37.5,90.5C 36.448,90.3505 35.448,90.5172 34.5,91C 32.6285,93.37 30.9619,95.87 29.5,98.5C 27.9291,97.6906 26.2624,97.3573 24.5,97.5C 22.513,96.8358 20.8463,95.6692 19.5,94C 17.4817,93.4954 15.4817,92.9954 13.5,92.5C 12.8333,91.8333 12.1667,91.1667 11.5,90.5C 11.3367,88.1432 11.5034,85.8098 12,83.5C 14.4045,79.0199 16.5712,74.3533 18.5,69.5C 24.2976,68.8737 29.9643,68.207 35.5,67.5 Z"/></g>
<g><path style="opacity:1" fill="#c24808" d="M 63.5,80.5 C 64.9922,84.8178 66.9922,88.8178 69.5,92.5C 71.5258,95.5178 73.5258,98.5178 75.5,101.5C 71.3106,98.1341 67.8106,94.1341 65,89.5C 63.2977,84.1646 60.7977,79.3312 57.5,75C 57.8333,74.5 58.1667,74 58.5,73.5C 60.434,75.7243 62.1006,78.0576 63.5,80.5 Z"/></g>
<g><path style="opacity:1" fill="#894f48" d="M 125.5,76.5 C 124.209,76.2627 123.209,76.596 122.5,77.5C 121.883,77.6107 121.383,77.944 121,78.5C 120.667,81.1667 120.333,83.8333 120,86.5C 119.51,85.2068 119.343,83.8734 119.5,82.5C 118.833,80.8333 118.167,79.1667 117.5,77.5C 119.776,73.9301 122.442,73.5967 125.5,76.5 Z"/></g>
<g><path style="opacity:1" fill="#422526" d="M 86.5,50.5 C 84.5386,53.8415 84.0386,57.5081 85,61.5C 85.6739,62.5784 86.6739,63.2451 88,63.5C 91.2239,61.705 93.0572,62.705 93.5,66.5C 92.5655,67.5676 92.2322,68.901 92.5,70.5C 93.9778,70.238 95.3112,70.5713 96.5,71.5C 94.8068,72.2283 93.3068,73.2283 92,74.5C 91.3471,77.1392 90.1804,79.4726 88.5,81.5C 83.3305,86.4915 79.6638,92.4915 77.5,99.5C 73.6911,94.5674 70.3577,89.234 67.5,83.5C 69.1487,82.3523 70.6487,81.019 72,79.5C 72.6917,78.5632 72.525,77.8966 71.5,77.5C 71.3433,76.1266 71.51,74.7932 72,73.5C 74.024,75.6898 75.8573,78.0232 77.5,80.5C 80.6452,78.5218 83.3119,76.0218 85.5,73C 84.8333,72.3333 84.1667,71.6667 83.5,71C 84.9561,70.5774 85.4561,69.7441 85,68.5C 84,67.1667 83,67.1667 82,68.5C 80.5118,63.3152 77.0118,60.3152 71.5,59.5C 72.325,58.6143 73.325,58.281 74.5,58.5C 74.1667,56.5 73.8333,54.5 73.5,52.5C 77.5909,51.1045 81.9242,50.4379 86.5,50.5 Z"/></g>
<g><path style="opacity:1" fill="#8e5529" d="M 132.5,69.5 C 133.906,69.9731 134.573,70.9731 134.5,72.5C 133.503,72.4701 132.836,72.9701 132.5,74C 134.03,76.6723 135.696,78.5056 137.5,79.5C 138.869,82.2984 139.869,85.2984 140.5,88.5C 139.833,88.5 139.167,88.5 138.5,88.5C 138.969,85.6067 137.969,83.6067 135.5,82.5C 135.5,82.1667 135.5,81.8333 135.5,81.5C 134.181,79.2195 132.515,77.2195 130.5,75.5C 131.472,73.0803 130.805,71.0803 128.5,69.5C 128.389,68.8826 128.056,68.3826 127.5,68C 129.495,67.3872 131.162,67.8872 132.5,69.5 Z"/></g>
<g><path style="opacity:1" fill="#63100b" d="M 46.5,73.5 C 48.5,77.5 50.5,81.5 52.5,85.5C 50.1104,85.6848 49.1104,87.0182 49.5,89.5C 50.9228,92.2746 51.5895,95.2746 51.5,98.5C 50.1779,98.33 49.0113,98.6634 48,99.5C 46.1893,95.345 43.0226,93.345 38.5,93.5C 38.5871,96.7387 37.9205,99.7387 36.5,102.5C 35.5,102.5 34.5,102.5 33.5,102.5C 30.2718,101.057 27.2718,99.3904 24.5,97.5C 26.2624,97.3573 27.9291,97.6906 29.5,98.5C 30.9619,95.87 32.6285,93.37 34.5,91C 35.448,90.5172 36.448,90.3505 37.5,90.5C 37.5,89.1667 37.5,87.8333 37.5,86.5C 39.8194,87.167 42.1527,87.3336 44.5,87C 43.2526,84.3315 41.2526,82.4981 38.5,81.5C 39.0831,79.9984 39.9164,78.6651 41,77.5C 41.3333,77.8333 41.6667,78.1667 42,78.5C 43.1932,76.5029 44.6932,74.8362 46.5,73.5 Z"/></g>
<g><path style="opacity:1" fill="#a04c46" d="M 62.5,72.5 C 63.5,72.5 64.5,72.5 65.5,72.5C 65.3677,75.5701 65.701,78.5701 66.5,81.5C 67.2074,85.2476 68.2074,88.9143 69.5,92.5C 66.9922,88.8178 64.9922,84.8178 63.5,80.5C 62.9084,77.8728 62.5751,75.2062 62.5,72.5 Z"/></g>
<g><path style="opacity:1" fill="#31191a" d="M 100.5,116.5 C 95.735,114.618 91.0683,112.452 86.5,110C 84.6671,107.002 82.3338,104.502 79.5,102.5C 79.0679,101.29 78.4013,100.29 77.5,99.5C 79.6638,92.4915 83.3305,86.4915 88.5,81.5C 88.369,82.2389 88.5357,82.9056 89,83.5C 90.4413,82.13 92.108,81.13 94,80.5C 93.9572,90.6305 94.9572,100.631 97,110.5C 98.5821,112.287 99.7488,114.287 100.5,116.5 Z"/></g>
<g><path style="opacity:1" fill="#f3be43" d="M 135.5,81.5 C 135.5,81.8333 135.5,82.1667 135.5,82.5C 134.167,85.1667 134.167,87.8333 135.5,90.5C 135.5,90.8333 135.5,91.1667 135.5,91.5C 134.521,90.2347 133.521,88.9014 132.5,87.5C 131.833,88.5 131.167,89.5 130.5,90.5C 130.167,89.6667 129.833,88.8333 129.5,88C 132.101,86.8856 134.101,84.7189 135.5,81.5 Z"/></g>
<g><path style="opacity:1" fill="#783837" d="M 172.5,94.5 C 169.487,99.144 165.32,102.477 160,104.5C 159.065,101.405 157.231,99.0714 154.5,97.5C 153.264,93.2988 153.264,88.9655 154.5,84.5C 155.794,83.7101 156.961,82.7101 158,81.5C 162.296,85.1829 166.13,89.3496 169.5,94C 170.448,94.4828 171.448,94.6495 172.5,94.5 Z"/></g>
<g><path style="opacity:1" fill="#c35b19" d="M 197.5,83.5 C 202.757,88.3955 206.257,94.3955 208,101.5C 209.039,102.71 210.206,103.71 211.5,104.5C 211.833,107.167 212.167,109.833 212.5,112.5C 211.833,112.5 211.167,112.5 210.5,112.5C 209.883,112.611 209.383,112.944 209,113.5C 208.506,111.866 208.34,110.199 208.5,108.5C 206.801,108.473 205.467,107.806 204.5,106.5C 203.74,101.85 203.074,97.1831 202.5,92.5C 199.708,92.5479 197.875,91.2146 197,88.5C 195.699,86.6354 195.365,84.6354 196,82.5C 196.383,83.056 196.883,83.3893 197.5,83.5 Z"/></g>
<g><path style="opacity:1" fill="#c5858b" d="M 71.5,77.5 C 72.525,77.8966 72.6917,78.5632 72,79.5C 70.6487,81.019 69.1487,82.3523 67.5,83.5C 70.3577,89.234 73.6911,94.5674 77.5,99.5C 78.4013,100.29 79.0679,101.29 79.5,102.5C 79.5,103.167 79.5,103.833 79.5,104.5C 78.1667,103.5 76.8333,102.5 75.5,101.5C 73.5258,98.5178 71.5258,95.5178 69.5,92.5C 68.2074,88.9143 67.2074,85.2476 66.5,81.5C 68.1667,80.1667 69.8333,78.8333 71.5,77.5 Z"/></g>
<g><path style="opacity:1" fill="#d38864" d="M 122.5,77.5 C 122.5,79.5 122.5,81.5 122.5,83.5C 121.645,85.7868 121.478,88.1201 122,90.5C 120.687,91.2871 119.52,90.9538 118.5,89.5C 118.167,88.5 117.5,87.8333 116.5,87.5C 115.923,86.2267 115.257,86.2267 114.5,87.5C 113.691,89.0709 113.357,90.7376 113.5,92.5C 112.85,94.4352 112.517,96.4352 112.5,98.5C 111.5,98.5 110.5,98.5 109.5,98.5C 110.93,92.3073 112.93,86.3073 115.5,80.5C 116.467,81.8062 117.801,82.4729 119.5,82.5C 119.343,83.8734 119.51,85.2068 120,86.5C 120.333,83.8333 120.667,81.1667 121,78.5C 121.383,77.944 121.883,77.6107 122.5,77.5 Z"/></g>
<g><path style="opacity:1" fill="#864825" d="M 129.5,97.5 C 128.952,100.084 127.285,101.084 124.5,100.5C 124.357,98.7376 124.691,97.0709 125.5,95.5C 124.998,94.479 124.332,94.3123 123.5,95C 122.809,96.0674 122.309,97.2341 122,98.5C 121.138,96.913 120.471,95.2464 120,93.5C 119.692,94.3081 119.192,94.9747 118.5,95.5C 117.207,93.3635 117.207,91.3635 118.5,89.5C 119.52,90.9538 120.687,91.2871 122,90.5C 121.478,88.1201 121.645,85.7868 122.5,83.5C 128.729,82.2586 129.063,83.4253 123.5,87C 125.457,88.7456 126.457,90.9122 126.5,93.5C 128.199,93.3398 129.866,93.5065 131.5,94C 130.177,94.8159 129.511,95.9826 129.5,97.5 Z"/></g>
<g><path style="opacity:1" fill="#431f1a" d="M 135.5,82.5 C 137.969,83.6067 138.969,85.6067 138.5,88.5C 138.5,90.1667 138.5,91.8333 138.5,93.5C 137.883,93.6107 137.383,93.944 137,94.5C 136.79,92.9419 136.29,91.6085 135.5,90.5C 134.167,87.8333 134.167,85.1667 135.5,82.5 Z"/></g>
<g><path style="opacity:1" fill="#8a5357" d="M 109.5,81.5 C 110.794,80.7101 111.961,79.7101 113,78.5C 113.383,79.056 113.883,79.3893 114.5,79.5C 112.381,83.6818 110.548,88.0151 109,92.5C 108.211,94.7116 108.378,96.7116 109.5,98.5C 110.5,98.5 111.5,98.5 112.5,98.5C 112.167,99.1667 111.833,99.8333 111.5,100.5C 111.737,101.791 111.404,102.791 110.5,103.5C 109.172,101.255 107.339,100.922 105,102.5C 104.802,100.618 104.302,98.9516 103.5,97.5C 103.656,94.3536 104.989,91.8536 107.5,90C 106.197,87.046 104.53,84.3793 102.5,82C 103.085,79.8656 104.418,78.3656 106.5,77.5C 107.057,79.3316 108.057,80.6649 109.5,81.5 Z"/></g>
<g><path style="opacity:1" fill="#a25726" d="M 114.5,79.5 C 115.167,79.5 115.5,79.8333 115.5,80.5C 112.93,86.3073 110.93,92.3073 109.5,98.5C 108.378,96.7116 108.211,94.7116 109,92.5C 110.548,88.0151 112.381,83.6818 114.5,79.5 Z"/></g>
<g><path style="opacity:1" fill="#f4c9d3" d="M 6.5,92.5 C 5.5,92.5 4.5,92.5 3.5,92.5C 3.08247,91.7784 2.4158,91.2784 1.5,91C 4.79244,88.2586 6.95911,84.7586 8,80.5C 7.33325,84.869 8.16658,89.0356 10.5,93C 9.1807,93.195 7.84736,93.0283 6.5,92.5 Z"/></g>
<g><path style="opacity:1" fill="#ecc944" d="M 140.5,89.5 C 141.404,90.209 141.737,91.209 141.5,92.5C 141.587,95.5983 141.087,95.9316 140,93.5C 139.235,91.9343 139.402,90.6009 140.5,89.5 Z"/></g>
<g><path style="opacity:1" fill="#d1872e" d="M 116.5,87.5 C 116.5,90.1667 116.5,92.8333 116.5,95.5C 115.1,94.9002 114.1,93.9002 113.5,92.5C 113.357,90.7376 113.691,89.0709 114.5,87.5C 115.257,86.2267 115.923,86.2267 116.5,87.5 Z"/></g>
<g><path style="opacity:1" fill="#c9a9b0" d="M 183.5,71.5 C 186.482,71.9629 189.482,72.2962 192.5,72.5C 203.691,80.0791 210.024,90.7458 211.5,104.5C 210.206,103.71 209.039,102.71 208,101.5C 206.257,94.3955 202.757,88.3955 197.5,83.5C 196.146,79.9683 194.146,76.8016 191.5,74C 189.19,73.5034 186.857,73.3367 184.5,73.5C 183.642,77.6732 182.976,82.0065 182.5,86.5C 180.859,90.3997 179.192,94.3997 177.5,98.5C 175.381,99.5211 173.714,101.021 172.5,103C 171.451,103.492 170.451,103.326 169.5,102.5C 167.018,104.344 164.351,105.677 161.5,106.5C 160.504,106.586 159.671,106.252 159,105.5C 157.644,102.671 156.144,100.004 154.5,97.5C 157.231,99.0714 159.065,101.405 160,104.5C 165.32,102.477 169.487,99.144 172.5,94.5C 177.756,88.5841 180.589,81.5841 181,73.5C 181.417,72.244 182.25,71.5774 183.5,71.5 Z"/></g>
<g><path style="opacity:1" fill="#0b0101" d="M 184.5,73.5 C 187.071,76.9163 189.904,80.2496 193,83.5C 195.239,88.0774 197.905,92.4107 201,96.5C 202.818,103.044 203.985,109.71 204.5,116.5C 203.247,125.696 201.247,134.696 198.5,143.5C 195.5,143.5 192.5,143.5 189.5,143.5C 190.199,140.427 191.199,137.427 192.5,134.5C 192.333,134.167 192.167,133.833 192,133.5C 190.019,135.657 187.686,137.324 185,138.5C 186.681,135.454 188.181,132.12 189.5,128.5C 189.444,127.263 188.944,126.263 188,125.5C 186.316,127.351 184.483,129.018 182.5,130.5C 182.167,130 181.833,129.5 181.5,129C 182.687,126.276 183.353,123.443 183.5,120.5C 178.726,119.07 174.726,116.403 171.5,112.5C 174.306,111.832 176.972,111.166 179.5,110.5C 178.782,108.863 178.616,107.197 179,105.5C 179.414,105.957 179.914,106.291 180.5,106.5C 181.167,104.5 181.833,102.5 182.5,100.5C 183.48,101.981 184.647,103.315 186,104.5C 185.512,100.042 184.012,95.8756 181.5,92C 182.233,90.2341 182.567,88.4008 182.5,86.5C 182.976,82.0065 183.642,77.6732 184.5,73.5 Z"/></g>
<g><path style="opacity:1" fill="#d58736" d="M 138.5,88.5 C 139.167,88.5 139.833,88.5 140.5,88.5C 140.5,88.8333 140.5,89.1667 140.5,89.5C 139.402,90.6009 139.235,91.9343 140,93.5C 141.087,95.9316 141.587,95.5983 141.5,92.5C 142.573,94.3469 142.573,96.3469 141.5,98.5C 140.833,98.5 140.167,98.5 139.5,98.5C 139.634,96.7085 139.301,95.0418 138.5,93.5C 138.5,91.8333 138.5,90.1667 138.5,88.5 Z"/></g>
<g><path style="opacity:1" fill="#4a240d" d="M 154.5,84.5 C 153.264,88.9655 153.264,93.2988 154.5,97.5C 156.144,100.004 157.644,102.671 159,105.5C 159.671,106.252 160.504,106.586 161.5,106.5C 162.672,108.844 162.672,111.177 161.5,113.5C 162.347,114.845 163.513,115.845 165,116.5C 165.765,118.066 165.598,119.399 164.5,120.5C 162.925,117.418 160.758,114.751 158,112.5C 157.517,111.552 157.351,110.552 157.5,109.5C 155.019,109.323 153.186,110.323 152,112.5C 151.814,115.036 151.314,117.369 150.5,119.5C 149.596,118.791 149.263,117.791 149.5,116.5C 149.731,107.971 149.731,99.6377 149.5,91.5C 149.611,87.9736 151.278,85.6403 154.5,84.5 Z"/></g>
<g><path style="opacity:1" fill="#56393c" d="M 11.5,90.5 C 12.1667,91.1667 12.8333,91.8333 13.5,92.5C 16.0752,94.3327 18.5752,96.3327 21,98.5C 21.5281,99.816 21.0281,100.483 19.5,100.5C 16.8455,98.5851 14.1788,96.5851 11.5,94.5C 11.5,93.1667 11.5,91.8333 11.5,90.5 Z"/></g>
<g><path style="opacity:1" fill="#673820" d="M 135.5,90.5 C 136.29,91.6085 136.79,92.9419 137,94.5C 137.383,93.944 137.883,93.6107 138.5,93.5C 139.301,95.0418 139.634,96.7085 139.5,98.5C 139.5,99.5 139.5,100.5 139.5,101.5C 137.517,101.157 136.183,101.824 135.5,103.5C 135.217,104.289 134.717,104.956 134,105.5C 133.502,102.518 133.335,99.5184 133.5,96.5C 135.213,95.3646 135.88,93.698 135.5,91.5C 135.5,91.1667 135.5,90.8333 135.5,90.5 Z"/></g>
<g><path style="opacity:1" fill="#942e06" d="M 184.5,73.5 C 186.857,73.3367 189.19,73.5034 191.5,74C 194.146,76.8016 196.146,79.9683 197.5,83.5C 196.883,83.3893 196.383,83.056 196,82.5C 195.365,84.6354 195.699,86.6354 197,88.5C 197.875,91.2146 199.708,92.5479 202.5,92.5C 203.074,97.1831 203.74,101.85 204.5,106.5C 206.304,118.611 205.637,130.444 202.5,142C 203.056,142.383 203.389,142.883 203.5,143.5C 201.833,143.5 200.167,143.5 198.5,143.5C 201.247,134.696 203.247,125.696 204.5,116.5C 203.985,109.71 202.818,103.044 201,96.5C 197.905,92.4107 195.239,88.0774 193,83.5C 189.904,80.2496 187.071,76.9163 184.5,73.5 Z"/></g>
<g><path style="opacity:1" fill="#7a4017" d="M 113.5,92.5 C 114.1,93.9002 115.1,94.9002 116.5,95.5C 116.896,98.4822 116.229,101.149 114.5,103.5C 113.83,101.709 113.163,100.042 112.5,98.5C 112.517,96.4352 112.85,94.4352 113.5,92.5 Z"/></g>
<g><path style="opacity:1" fill="#611812" d="M 3.5,92.5 C 4.5,92.5 5.5,92.5 6.5,92.5C 7.63535,94.2132 9.30202,94.8799 11.5,94.5C 14.1788,96.5851 16.8455,98.5851 19.5,100.5C 19.3284,101.492 19.6618,102.158 20.5,102.5C 20.5,103.5 20.5,104.5 20.5,105.5C 16.3598,102.858 12.6931,99.6915 9.5,96C 7.48174,95.4954 5.48174,94.9954 3.5,94.5C 2.16667,93.8333 2.16667,93.1667 3.5,92.5 Z"/></g>
<g><path style="opacity:1" fill="#aa6b0c" d="M 133.5,96.5 C 133.335,99.5184 133.502,102.518 134,105.5C 134.717,104.956 135.217,104.289 135.5,103.5C 136.895,101.946 137.561,102.279 137.5,104.5C 136.837,107.806 136.337,111.139 136,114.5C 134.599,116.192 132.766,116.859 130.5,116.5C 130.158,115.662 129.492,115.328 128.5,115.5C 128.5,115.167 128.5,114.833 128.5,114.5C 130.5,114.5 132.5,114.5 134.5,114.5C 133.196,110.292 132.03,105.959 131,101.5C 129.175,102.103 127.341,102.77 125.5,103.5C 126.168,107.197 126.835,110.863 127.5,114.5C 125.482,113.377 123.482,113.377 121.5,114.5C 120.498,110.514 121.164,106.847 123.5,103.5C 124.404,102.791 124.737,101.791 124.5,100.5C 127.285,101.084 128.952,100.084 129.5,97.5C 130.959,97.5674 132.292,97.2341 133.5,96.5 Z"/></g>
<g><path style="opacity:1" fill="#543535" d="M 116.5,87.5 C 117.5,87.8333 118.167,88.5 118.5,89.5C 117.207,91.3635 117.207,93.3635 118.5,95.5C 119.192,94.9747 119.692,94.3081 120,93.5C 120.471,95.2464 121.138,96.913 122,98.5C 122.309,97.2341 122.809,96.0674 123.5,95C 124.332,94.3123 124.998,94.479 125.5,95.5C 124.691,97.0709 124.357,98.7376 124.5,100.5C 124.737,101.791 124.404,102.791 123.5,103.5C 122.652,102.375 121.652,102.375 120.5,103.5C 120.617,101.516 119.95,99.8498 118.5,98.5C 118.101,101.422 117.934,104.422 118,107.5C 116.989,108.337 115.822,108.67 114.5,108.5C 114.023,105.562 113.023,102.896 111.5,100.5C 111.833,99.8333 112.167,99.1667 112.5,98.5C 113.163,100.042 113.83,101.709 114.5,103.5C 116.229,101.149 116.896,98.4822 116.5,95.5C 116.5,92.8333 116.5,90.1667 116.5,87.5 Z"/></g>
<g><path style="opacity:1" fill="#8b5110" d="M 149.5,91.5 C 149.731,99.6377 149.731,107.971 149.5,116.5C 148.094,116.027 147.427,115.027 147.5,113.5C 147.336,106.798 147.669,100.131 148.5,93.5C 148.833,92.8333 149.167,92.1667 149.5,91.5 Z"/></g>
<g><path style="opacity:1" fill="#fb3c05" d="M 3.5,94.5 C 5.48174,94.9954 7.48174,95.4954 9.5,96C 12.6931,99.6915 16.3598,102.858 20.5,105.5C 20.8333,105.5 21.1667,105.5 21.5,105.5C 24.493,109.823 27.8264,113.823 31.5,117.5C 30.8166,119.176 29.4832,119.843 27.5,119.5C 23.6304,118.574 19.7971,117.574 16,116.5C 12.0394,118.962 9.7061,117.629 9,112.5C 4.69388,109.558 2.36054,105.558 2,100.5C 1.32924,99.7476 0.495904,99.4142 -0.5,99.5C -0.5,98.1667 -0.5,96.8333 -0.5,95.5C 1.09903,95.7678 2.43236,95.4345 3.5,94.5 Z"/></g>
<g><path style="opacity:1" fill="#470905" d="M 52.5,85.5 C 55.1822,90.8644 57.8489,96.1978 60.5,101.5C 63.1218,105.457 66.1218,109.124 69.5,112.5C 69.0401,113.999 67.7067,114.999 65.5,115.5C 65.2993,111.65 63.4659,110.65 60,112.5C 58.1746,111.897 56.3413,111.23 54.5,110.5C 52.0733,109.038 50.2399,107.038 49,104.5C 46.9592,105.423 44.7925,105.756 42.5,105.5C 38.9557,105.868 35.9557,104.868 33.5,102.5C 34.5,102.5 35.5,102.5 36.5,102.5C 37.9205,99.7387 38.5871,96.7387 38.5,93.5C 43.0226,93.345 46.1893,95.345 48,99.5C 49.0113,98.6634 50.1779,98.33 51.5,98.5C 51.5895,95.2746 50.9228,92.2746 49.5,89.5C 49.1104,87.0182 50.1104,85.6848 52.5,85.5 Z"/></g>
<g><path style="opacity:1" fill="#482a30" d="M 103.5,97.5 C 104.302,98.9516 104.802,100.618 105,102.5C 107.339,100.922 109.172,101.255 110.5,103.5C 111.373,107.198 112.373,110.865 113.5,114.5C 106.06,111.365 102.726,105.699 103.5,97.5 Z"/></g>
<g><path style="opacity:1" fill="#391b0d" d="M 148.5,93.5 C 147.669,100.131 147.336,106.798 147.5,113.5C 146.883,113.389 146.383,113.056 146,112.5C 145.71,104.983 145.21,97.4828 144.5,90C 144.789,87.8955 145.622,86.0621 147,84.5C 147.499,87.0217 147.332,89.5217 146.5,92C 146.324,94.3595 146.991,94.8595 148.5,93.5 Z"/></g>
<g><path style="opacity:1" fill="#210908" d="M 182.5,86.5 C 182.567,88.4008 182.233,90.2341 181.5,92C 184.012,95.8756 185.512,100.042 186,104.5C 184.647,103.315 183.48,101.981 182.5,100.5C 181.833,102.5 181.167,104.5 180.5,106.5C 179.914,106.291 179.414,105.957 179,105.5C 178.616,107.197 178.782,108.863 179.5,110.5C 175.908,110.286 172.408,109.619 169,108.5C 167.564,108.559 166.231,108.892 165,109.5C 164.675,111.553 165.009,113.553 166,115.5C 168.167,119.167 170.333,122.833 172.5,126.5C 172.192,127.308 171.692,127.975 171,128.5C 168.123,126.458 165.957,123.792 164.5,120.5C 165.598,119.399 165.765,118.066 165,116.5C 163.513,115.845 162.347,114.845 161.5,113.5C 162.672,111.177 162.672,108.844 161.5,106.5C 164.351,105.677 167.018,104.344 169.5,102.5C 170.451,103.326 171.451,103.492 172.5,103C 173.714,101.021 175.381,99.5211 177.5,98.5C 179.192,94.3997 180.859,90.3997 182.5,86.5 Z"/></g>
<g><path style="opacity:1" fill="#631708" d="M 21.5,105.5 C 22.8734,105.343 24.2068,105.51 25.5,106C 30.0944,109.091 33.7611,112.924 36.5,117.5C 35.9569,117.56 35.6236,117.893 35.5,118.5C 37.2776,120.264 38.6109,122.264 39.5,124.5C 38.6522,125.625 37.6522,125.625 36.5,124.5C 35.2141,121.883 33.5475,119.55 31.5,117.5C 27.8264,113.823 24.493,109.823 21.5,105.5 Z"/></g>
<g><path style="opacity:1" fill="#ce8201" d="M 128.5,114.5 C 128.167,114.5 127.833,114.5 127.5,114.5C 126.835,110.863 126.168,107.197 125.5,103.5C 127.341,102.77 129.175,102.103 131,101.5C 132.03,105.959 133.196,110.292 134.5,114.5C 132.5,114.5 130.5,114.5 128.5,114.5 Z"/></g>
<g><path style="opacity:1" fill="#703f02" d="M 139.5,98.5 C 140.167,98.5 140.833,98.5 141.5,98.5C 140.634,105.297 139.134,111.964 137,118.5C 135.172,118.69 133.338,119.023 131.5,119.5C 131.672,118.508 131.338,117.842 130.5,117.5C 130.5,117.167 130.5,116.833 130.5,116.5C 132.766,116.859 134.599,116.192 136,114.5C 136.337,111.139 136.837,107.806 137.5,104.5C 137.561,102.279 136.895,101.946 135.5,103.5C 136.183,101.824 137.517,101.157 139.5,101.5C 139.5,100.5 139.5,99.5 139.5,98.5 Z"/></g>
<g><path style="opacity:1" fill="#130303" d="M 179.5,110.5 C 176.972,111.166 174.306,111.832 171.5,112.5C 174.726,116.403 178.726,119.07 183.5,120.5C 183.353,123.443 182.687,126.276 181.5,129C 181.833,129.5 182.167,130 182.5,130.5C 184.483,129.018 186.316,127.351 188,125.5C 188.944,126.263 189.444,127.263 189.5,128.5C 188.181,132.12 186.681,135.454 185,138.5C 187.686,137.324 190.019,135.657 192,133.5C 192.167,133.833 192.333,134.167 192.5,134.5C 191.199,137.427 190.199,140.427 189.5,143.5C 174.167,143.5 158.833,143.5 143.5,143.5C 145.194,140.68 147.027,140.347 149,142.5C 150.722,142.389 150.888,141.889 149.5,141C 154.767,139.733 158.101,136.4 159.5,131C 157.702,127.914 155.536,125.081 153,122.5C 152.647,123.672 152.813,124.838 153.5,126C 152.99,127.826 152.156,127.993 151,126.5C 150.503,124.19 150.337,121.857 150.5,119.5C 151.314,117.369 151.814,115.036 152,112.5C 153.186,110.323 155.019,109.323 157.5,109.5C 157.351,110.552 157.517,111.552 158,112.5C 160.758,114.751 162.925,117.418 164.5,120.5C 165.957,123.792 168.123,126.458 171,128.5C 171.692,127.975 172.192,127.308 172.5,126.5C 170.333,122.833 168.167,119.167 166,115.5C 165.009,113.553 164.675,111.553 165,109.5C 166.231,108.892 167.564,108.559 169,108.5C 172.408,109.619 175.908,110.286 179.5,110.5 Z"/></g>
<g><path style="opacity:1" fill="#1c0202" d="M 13.5,92.5 C 15.4817,92.9954 17.4817,93.4954 19.5,94C 20.8463,95.6692 22.513,96.8358 24.5,97.5C 27.2718,99.3904 30.2718,101.057 33.5,102.5C 35.9557,104.868 38.9557,105.868 42.5,105.5C 46.7586,109.651 51.0919,113.818 55.5,118C 58.1909,118.156 60.5242,118.989 62.5,120.5C 58.9206,120.766 58.5873,122.099 61.5,124.5C 60.5153,126.098 60.3486,127.765 61,129.5C 65.0688,134.06 68.9021,138.726 72.5,143.5C 71.5,143.5 70.5,143.5 69.5,143.5C 61.0863,134.918 53.5863,125.584 47,115.5C 44.5,113 42,110.5 39.5,108C 32.7948,107.223 26.4614,105.39 20.5,102.5C 19.6618,102.158 19.3284,101.492 19.5,100.5C 21.0281,100.483 21.5281,99.816 21,98.5C 18.5752,96.3327 16.0752,94.3327 13.5,92.5 Z"/></g>
<g><path style="opacity:1" fill="#6a4b55" d="M 120.5,103.5 C 119.627,107.121 118.961,110.788 118.5,114.5C 116.833,114.5 115.167,114.5 113.5,114.5C 112.373,110.865 111.373,107.198 110.5,103.5C 111.404,102.791 111.737,101.791 111.5,100.5C 113.023,102.896 114.023,105.562 114.5,108.5C 115.822,108.67 116.989,108.337 118,107.5C 117.934,104.422 118.101,101.422 118.5,98.5C 119.95,99.8498 120.617,101.516 120.5,103.5 Z"/></g>
<g><path style="opacity:1" fill="#560b03" d="M 85.5,111.5 C 85.4142,112.496 85.7476,113.329 86.5,114C 90.9926,116.079 95.326,118.412 99.5,121C 103.486,121.031 107.152,122.031 110.5,124C 115.217,124.476 119.883,124.476 124.5,124C 125.826,128.532 126.826,133.032 127.5,137.5C 127.167,139.5 126.833,141.5 126.5,143.5C 125.833,143.5 125.167,143.5 124.5,143.5C 124.666,139.486 124.499,135.486 124,131.5C 123.722,130.584 123.222,129.918 122.5,129.5C 122.5,128.5 122.5,127.5 122.5,126.5C 119.603,126.681 116.77,126.348 114,125.5C 110.283,126.869 106.45,127.536 102.5,127.5C 102.567,128.959 102.234,130.292 101.5,131.5C 99.1137,131.741 97.1137,131.075 95.5,129.5C 90.3781,126.775 85.0447,124.275 79.5,122C 76.2975,118.629 72.9641,115.462 69.5,112.5C 66.1218,109.124 63.1218,105.457 60.5,101.5C 62.9839,102.749 65.4839,103.749 68,104.5C 67.4433,102.159 67.6099,99.8261 68.5,97.5C 71.0237,99.1901 73.0237,101.357 74.5,104C 78.3185,106.326 81.9852,108.826 85.5,111.5 Z"/></g>
<g><path style="opacity:1" fill="#804e1d" d="M 123.5,103.5 C 121.164,106.847 120.498,110.514 121.5,114.5C 123.482,113.377 125.482,113.377 127.5,114.5C 127.833,114.5 128.167,114.5 128.5,114.5C 128.5,114.833 128.5,115.167 128.5,115.5C 125.833,116.167 123.167,116.833 120.5,117.5C 119.833,116.5 119.167,115.5 118.5,114.5C 118.961,110.788 119.627,107.121 120.5,103.5C 121.652,102.375 122.652,102.375 123.5,103.5 Z"/></g>
<g><path style="opacity:1" fill="#0a0301" d="M 149.5,75.5 C 150.687,77.9754 152.687,78.9754 155.5,78.5C 155.483,80.5648 155.15,82.5648 154.5,84.5C 151.278,85.6403 149.611,87.9736 149.5,91.5C 149.167,92.1667 148.833,92.8333 148.5,93.5C 146.991,94.8595 146.324,94.3595 146.5,92C 147.332,89.5217 147.499,87.0217 147,84.5C 145.622,86.0621 144.789,87.8955 144.5,90C 145.21,97.4828 145.71,104.983 146,112.5C 146.383,113.056 146.883,113.389 147.5,113.5C 147.427,115.027 148.094,116.027 149.5,116.5C 149.263,117.791 149.596,118.791 150.5,119.5C 150.337,121.857 150.503,124.19 151,126.5C 152.156,127.993 152.99,127.826 153.5,126C 152.813,124.838 152.647,123.672 153,122.5C 155.536,125.081 157.702,127.914 159.5,131C 158.101,136.4 154.767,139.733 149.5,141C 150.888,141.889 150.722,142.389 149,142.5C 147.027,140.347 145.194,140.68 143.5,143.5C 137.833,143.5 132.167,143.5 126.5,143.5C 126.833,141.5 127.167,139.5 127.5,137.5C 128.212,131.363 129.546,125.363 131.5,119.5C 133.338,119.023 135.172,118.69 137,118.5C 139.134,111.964 140.634,105.297 141.5,98.5C 142.573,96.3469 142.573,94.3469 141.5,92.5C 141.737,91.209 141.404,90.209 140.5,89.5C 140.5,89.1667 140.5,88.8333 140.5,88.5C 139.869,85.2984 138.869,82.2984 137.5,79.5C 137.5,79.1667 137.5,78.8333 137.5,78.5C 138.309,77.5313 139.309,76.6979 140.5,76C 137.356,74.387 136.19,71.887 137,68.5C 138.648,69.717 140.481,70.5503 142.5,71C 144.228,73.582 146.561,75.082 149.5,75.5 Z"/></g>
<g><path style="opacity:1" fill="#d3a1a8" d="M 79.5,102.5 C 82.3338,104.502 84.6671,107.002 86.5,110C 91.0683,112.452 95.735,114.618 100.5,116.5C 100.611,117.117 100.944,117.617 101.5,118C 106.023,118.32 110.523,118.82 115,119.5C 116.939,119.046 118.772,118.379 120.5,117.5C 123.167,116.833 125.833,116.167 128.5,115.5C 129.492,115.328 130.158,115.662 130.5,116.5C 130.5,116.833 130.5,117.167 130.5,117.5C 125.432,118.885 120.266,120.218 115,121.5C 110.856,120.836 106.689,120.336 102.5,120C 96.8068,117.153 91.1401,114.32 85.5,111.5C 83.5,109.167 81.5,106.833 79.5,104.5C 79.5,103.833 79.5,103.167 79.5,102.5 Z"/></g>
<g><path style="opacity:1" fill="#060000" d="M 62.5,120.5 C 63.4674,121.806 64.8007,122.473 66.5,122.5C 66.1667,125.5 67.5,126.833 70.5,126.5C 70.3505,127.552 70.5172,128.552 71,129.5C 74.1657,132.932 77.3323,136.432 80.5,140C 82.7756,139.426 85.1089,139.592 87.5,140.5C 87.5,141.5 87.5,142.5 87.5,143.5C 82.5,143.5 77.5,143.5 72.5,143.5C 68.9021,138.726 65.0688,134.06 61,129.5C 60.3486,127.765 60.5153,126.098 61.5,124.5C 58.5873,122.099 58.9206,120.766 62.5,120.5 Z"/></g>
<g><path style="opacity:1" fill="#340702" d="M 20.5,102.5 C 26.4614,105.39 32.7948,107.223 39.5,108C 42,110.5 44.5,113 47,115.5C 53.5863,125.584 61.0863,134.918 69.5,143.5C 67.8333,143.5 66.1667,143.5 64.5,143.5C 63.5,142.167 62.5,140.833 61.5,139.5C 59.1002,136.097 56.1002,133.43 52.5,131.5C 52.0269,130.094 51.0269,129.427 49.5,129.5C 47.8333,125.833 45.1667,123.167 41.5,121.5C 40.4154,119.413 38.7488,118.08 36.5,117.5C 33.7611,112.924 30.0944,109.091 25.5,106C 24.2068,105.51 22.8734,105.343 21.5,105.5C 21.1667,105.5 20.8333,105.5 20.5,105.5C 20.5,104.5 20.5,103.5 20.5,102.5 Z"/></g>
<g><path style="opacity:1" fill="#761708" d="M 85.5,111.5 C 91.1401,114.32 96.8068,117.153 102.5,120C 106.689,120.336 110.856,120.836 115,121.5C 120.266,120.218 125.432,118.885 130.5,117.5C 131.338,117.842 131.672,118.508 131.5,119.5C 129.546,125.363 128.212,131.363 127.5,137.5C 126.826,133.032 125.826,128.532 124.5,124C 119.883,124.476 115.217,124.476 110.5,124C 107.152,122.031 103.486,121.031 99.5,121C 95.326,118.412 90.9926,116.079 86.5,114C 85.7476,113.329 85.4142,112.496 85.5,111.5 Z"/></g>
<g><path style="opacity:1" fill="#fdadab" d="M 213.5,118.5 C 214.766,119.09 216.099,119.59 217.5,120C 220.9,123.739 224.567,127.072 228.5,130C 227.044,130.423 226.544,131.256 227,132.5C 229.4,134.729 231.567,137.063 233.5,139.5C 234.434,140.568 234.768,141.901 234.5,143.5C 234.167,143.5 233.833,143.5 233.5,143.5C 229.635,137.76 225.302,132.427 220.5,127.5C 215.055,118.055 214.389,118.388 218.5,128.5C 217.167,128.5 215.833,128.5 214.5,128.5C 214.634,126.708 214.301,125.042 213.5,123.5C 213.5,121.833 213.5,120.167 213.5,118.5 Z"/></g>
<g><path style="opacity:1" fill="#f65001" d="M -0.5,99.5 C 0.495904,99.4142 1.32924,99.7476 2,100.5C 2.36054,105.558 4.69388,109.558 9,112.5C 9.7061,117.629 12.0394,118.962 16,116.5C 19.7971,117.574 23.6304,118.574 27.5,119.5C 30.0828,120.539 32.5828,121.872 35,123.5C 35.4955,125.473 35.6621,127.473 35.5,129.5C 36.5,129.5 37.5,129.5 38.5,129.5C 38.9153,131.948 37.9153,133.281 35.5,133.5C 33.0597,132.107 30.3931,131.273 27.5,131C 26.9415,130.275 26.6082,129.442 26.5,128.5C 27.5471,126.944 28.2137,125.277 28.5,123.5C 26.2776,123.178 24.4443,123.845 23,125.5C 22.2018,128.711 22.7018,131.711 24.5,134.5C 23.3717,135.262 22.2051,135.929 21,136.5C 20.8091,138.708 20.3091,140.708 19.5,142.5C 18.4419,138.156 17.2752,133.822 16,129.5C 14.7741,127.452 13.2741,127.119 11.5,128.5C 10.7934,126.866 9.62678,125.532 8,124.5C 7.11802,119.187 5.45135,114.187 3,109.5C 1.9609,108.29 0.794229,107.29 -0.5,106.5C -0.5,104.167 -0.5,101.833 -0.5,99.5 Z"/></g>
<g><path style="opacity:1" fill="#742602" d="M 41.5,121.5 C 45.1667,123.167 47.8333,125.833 49.5,129.5C 46.3173,127.263 43.6506,124.597 41.5,121.5 Z"/></g>
<g><path style="opacity:1" fill="#d14e00" d="M 36.5,117.5 C 38.7488,118.08 40.4154,119.413 41.5,121.5C 43.6506,124.597 46.3173,127.263 49.5,129.5C 50.6138,130.885 51.6138,132.385 52.5,134C 50.6891,133.293 48.6891,132.793 46.5,132.5C 44.1667,129.833 41.8333,127.167 39.5,124.5C 38.6109,122.264 37.2776,120.264 35.5,118.5C 35.6236,117.893 35.9569,117.56 36.5,117.5 Z"/></g>
<g><path style="opacity:1" fill="#2d0503" d="M 69.5,112.5 C 72.9641,115.462 76.2975,118.629 79.5,122C 85.0447,124.275 90.3781,126.775 95.5,129.5C 92.5422,133.691 90.5422,138.358 89.5,143.5C 88.8333,143.5 88.1667,143.5 87.5,143.5C 87.5,142.5 87.5,141.5 87.5,140.5C 85.1089,139.592 82.7756,139.426 80.5,140C 77.3323,136.432 74.1657,132.932 71,129.5C 70.5172,128.552 70.3505,127.552 70.5,126.5C 67.5,126.833 66.1667,125.5 66.5,122.5C 64.8007,122.473 63.4674,121.806 62.5,120.5C 60.5242,118.989 58.1909,118.156 55.5,118C 51.0919,113.818 46.7586,109.651 42.5,105.5C 44.7925,105.756 46.9592,105.423 49,104.5C 50.2399,107.038 52.0733,109.038 54.5,110.5C 56.3413,111.23 58.1746,111.897 60,112.5C 63.4659,110.65 65.2993,111.65 65.5,115.5C 67.7067,114.999 69.0401,113.999 69.5,112.5 Z"/></g>
<g><path style="opacity:1" fill="#3c0600" d="M 122.5,129.5 C 118.053,129.986 113.886,131.32 110,133.5C 107.519,131.686 104.685,131.02 101.5,131.5C 102.234,130.292 102.567,128.959 102.5,127.5C 106.45,127.536 110.283,126.869 114,125.5C 116.77,126.348 119.603,126.681 122.5,126.5C 122.5,127.5 122.5,128.5 122.5,129.5 Z"/></g>
<g><path style="opacity:1" fill="#f6e9e5" d="M 213.5,114.5 C 216.956,116.783 220.29,119.283 223.5,122C 224.833,122 226.167,122 227.5,122C 228.066,122.995 228.733,123.828 229.5,124.5C 232.437,130.041 235.104,135.708 237.5,141.5C 236.115,140.426 234.949,139.093 234,137.5C 233.536,138.094 233.369,138.761 233.5,139.5C 231.567,137.063 229.4,134.729 227,132.5C 226.544,131.256 227.044,130.423 228.5,130C 224.567,127.072 220.9,123.739 217.5,120C 216.099,119.59 214.766,119.09 213.5,118.5C 213.5,117.167 213.5,115.833 213.5,114.5 Z"/></g>
<g><path style="opacity:1" fill="#e77169" d="M 220.5,127.5 C 220.751,129.17 221.418,130.67 222.5,132C 220.633,132.711 219.133,132.211 218,130.5C 217.833,131 217.667,131.5 217.5,132C 218.669,135.823 219.669,139.656 220.5,143.5C 219.833,143.5 219.167,143.5 218.5,143.5C 217.404,137.747 215.404,132.414 212.5,127.5C 212.232,125.901 212.566,124.568 213.5,123.5C 214.301,125.042 214.634,126.708 214.5,128.5C 215.833,128.5 217.167,128.5 218.5,128.5C 214.389,118.388 215.055,118.055 220.5,127.5 Z"/></g>
<g><path style="opacity:1" fill="#c52700" d="M -0.5,110.5 C 4.21811,120.659 7.55144,131.325 9.5,142.5C 7.4727,142.662 5.4727,142.495 3.5,142C 2.52912,140.519 1.19578,139.685 -0.5,139.5C -0.5,129.833 -0.5,120.167 -0.5,110.5 Z"/></g>
<g><path style="opacity:1" fill="#7c1901" d="M 36.5,124.5 C 37.6522,125.625 38.6522,125.625 39.5,124.5C 41.8333,127.167 44.1667,129.833 46.5,132.5C 47.9002,133.1 48.9002,134.1 49.5,135.5C 49.1961,136.15 48.8627,136.817 48.5,137.5C 50.0383,139.243 51.0383,141.243 51.5,143.5C 50.5,143.5 49.5,143.5 48.5,143.5C 45.5862,136.331 41.5862,129.997 36.5,124.5 Z"/></g>
<g><path style="opacity:1" fill="#660f01" d="M 52.5,131.5 C 56.1002,133.43 59.1002,136.097 61.5,139.5C 57.8998,137.57 54.8998,134.903 52.5,131.5 Z"/></g>
<g><path style="opacity:1" fill="#9d2103" d="M -0.5,106.5 C 0.794229,107.29 1.9609,108.29 3,109.5C 5.45135,114.187 7.11802,119.187 8,124.5C 9.62678,125.532 10.7934,126.866 11.5,128.5C 12.7871,133.42 13.7871,138.42 14.5,143.5C 9.5,143.5 4.5,143.5 -0.5,143.5C -0.5,142.167 -0.5,140.833 -0.5,139.5C 1.19578,139.685 2.52912,140.519 3.5,142C 5.4727,142.495 7.4727,142.662 9.5,142.5C 7.55144,131.325 4.21811,120.659 -0.5,110.5C -0.5,109.167 -0.5,107.833 -0.5,106.5 Z"/></g>
<g><path style="opacity:1" fill="#d33b01" d="M 31.5,117.5 C 33.5475,119.55 35.2141,121.883 36.5,124.5C 41.5862,129.997 45.5862,136.331 48.5,143.5C 38.8333,143.5 29.1667,143.5 19.5,143.5C 19.5,143.167 19.5,142.833 19.5,142.5C 20.3091,140.708 20.8091,138.708 21,136.5C 22.2051,135.929 23.3717,135.262 24.5,134.5C 22.7018,131.711 22.2018,128.711 23,125.5C 24.4443,123.845 26.2776,123.178 28.5,123.5C 28.2137,125.277 27.5471,126.944 26.5,128.5C 26.6082,129.442 26.9415,130.275 27.5,131C 30.3931,131.273 33.0597,132.107 35.5,133.5C 37.9153,133.281 38.9153,131.948 38.5,129.5C 37.5,129.5 36.5,129.5 35.5,129.5C 35.6621,127.473 35.4955,125.473 35,123.5C 32.5828,121.872 30.0828,120.539 27.5,119.5C 29.4832,119.843 30.8166,119.176 31.5,117.5 Z"/></g>
<g><path style="opacity:1" fill="#fb7800" d="M 19.5,142.5 C 19.5,142.833 19.5,143.167 19.5,143.5C 17.8333,143.5 16.1667,143.5 14.5,143.5C 13.7871,138.42 12.7871,133.42 11.5,128.5C 13.2741,127.119 14.7741,127.452 16,129.5C 17.2752,133.822 18.4419,138.156 19.5,142.5 Z"/></g>
<g><path style="opacity:1" fill="#bf4507" d="M 204.5,106.5 C 205.467,107.806 206.801,108.473 208.5,108.5C 208.34,110.199 208.506,111.866 209,113.5C 209.383,112.944 209.883,112.611 210.5,112.5C 210.523,119.821 209.523,126.988 207.5,134C 207.735,134.873 208.069,135.707 208.5,136.5C 206.553,138.276 206.22,140.276 207.5,142.5C 208.086,142.291 208.586,141.957 209,141.5C 209.979,136.764 211.146,132.098 212.5,127.5C 215.404,132.414 217.404,137.747 218.5,143.5C 213.5,143.5 208.5,143.5 203.5,143.5C 203.389,142.883 203.056,142.383 202.5,142C 205.637,130.444 206.304,118.611 204.5,106.5 Z"/></g>
<g><path style="opacity:1" fill="#380501" d="M 122.5,129.5 C 123.222,129.918 123.722,130.584 124,131.5C 124.499,135.486 124.666,139.486 124.5,143.5C 121.5,143.5 118.5,143.5 115.5,143.5C 115.643,140.903 116.477,138.569 118,136.5C 118.333,137.5 118.667,138.5 119,139.5C 120.47,136.292 121.637,132.959 122.5,129.5 Z"/></g>
<g><path style="opacity:1" fill="#ed740b" d="M 210.5,112.5 C 211.167,112.5 211.833,112.5 212.5,112.5C 212.833,113.167 213.167,113.833 213.5,114.5C 213.5,115.833 213.5,117.167 213.5,118.5C 213.5,120.167 213.5,121.833 213.5,123.5C 212.566,124.568 212.232,125.901 212.5,127.5C 211.146,132.098 209.979,136.764 209,141.5C 208.586,141.957 208.086,142.291 207.5,142.5C 206.22,140.276 206.553,138.276 208.5,136.5C 208.069,135.707 207.735,134.873 207.5,134C 209.523,126.988 210.523,119.821 210.5,112.5 Z"/></g>
<g><path style="opacity:1" fill="#ab2100" d="M 49.5,129.5 C 51.0269,129.427 52.0269,130.094 52.5,131.5C 54.8998,134.903 57.8998,137.57 61.5,139.5C 62.5,140.833 63.5,142.167 64.5,143.5C 61.8333,143.5 59.1667,143.5 56.5,143.5C 55.9994,139.132 53.6661,136.465 49.5,135.5C 48.9002,134.1 47.9002,133.1 46.5,132.5C 48.6891,132.793 50.6891,133.293 52.5,134C 51.6138,132.385 50.6138,130.885 49.5,129.5 Z"/></g>
<g><path style="opacity:1" fill="#180302" d="M 95.5,129.5 C 97.1137,131.075 99.1137,131.741 101.5,131.5C 104.685,131.02 107.519,131.686 110,133.5C 113.886,131.32 118.053,129.986 122.5,129.5C 121.637,132.959 120.47,136.292 119,139.5C 118.667,138.5 118.333,137.5 118,136.5C 116.477,138.569 115.643,140.903 115.5,143.5C 106.833,143.5 98.1667,143.5 89.5,143.5C 90.5422,138.358 92.5422,133.691 95.5,129.5 Z"/></g>
<g><path style="opacity:1" fill="#c25000" d="M 49.5,135.5 C 53.6661,136.465 55.9994,139.132 56.5,143.5C 54.8333,143.5 53.1667,143.5 51.5,143.5C 51.0383,141.243 50.0383,139.243 48.5,137.5C 48.8627,136.817 49.1961,136.15 49.5,135.5 Z"/></g>
<g><path style="opacity:1" fill="#fc5a1d" d="M 220.5,127.5 C 225.302,132.427 229.635,137.76 233.5,143.5C 229.167,143.5 224.833,143.5 220.5,143.5C 219.669,139.656 218.669,135.823 217.5,132C 217.667,131.5 217.833,131 218,130.5C 219.133,132.211 220.633,132.711 222.5,132C 221.418,130.67 220.751,129.17 220.5,127.5 Z"/></g>
<g><path style="opacity:1" fill="#ed931b" d="M 237.5,141.5 C 237.5,142.167 237.5,142.833 237.5,143.5C 236.5,143.5 235.5,143.5 234.5,143.5C 234.768,141.901 234.434,140.568 233.5,139.5C 233.369,138.761 233.536,138.094 234,137.5C 234.949,139.093 236.115,140.426 237.5,141.5 Z"/></g>
</svg>
