<?xml version="1.0" encoding="UTF-8"?>
<!DOCTYPE svg PUBLIC "-//W3C//DTD SVG 1.1//EN" "http://www.w3.org/Graphics/SVG/1.1/DTD/svg11.dtd">
<svg xmlns="http://www.w3.org/2000/svg" version="1.1" width="256px" height="144px" style="shape-rendering:geometricPrecision; text-rendering:geometricPrecision; image-rendering:optimizeQuality; fill-rule:evenodd; clip-rule:evenodd" xmlns:xlink="http://www.w3.org/1999/xlink">
<g><path style="opacity:1" fill="#121922" d="M -0.5,-0.5 C 14.1667,-0.5 28.8333,-0.5 43.5,-0.5C 42.5,1.5 41.5,3.5 40.5,5.5C 37.8154,8.18965 35.4821,11.1897 33.5,14.5C 30.7795,17.894 28.4462,21.5606 26.5,25.5C 25.6618,25.8417 25.3284,26.5084 25.5,27.5C 23.4463,31.1925 21.9463,35.1925 21,39.5C 17.8423,43.6103 13.6757,45.9436 8.5,46.5C 5.58638,44.6432 2.58638,42.9765 -0.5,41.5C -0.5,27.5 -0.5,13.5 -0.5,-0.5 Z"/></g>
<g><path style="opacity:1" fill="#202027" d="M 140.5,-0.5 C 141.167,-0.5 141.833,-0.5 142.5,-0.5C 144.58,1.57324 146.246,3.90657 147.5,6.5C 144.833,4.5 142.5,2.16667 140.5,-0.5 Z"/></g>
<g><path style="opacity:1" fill="#4c6f76" d="M 206.5,-0.5 C 207.833,-0.5 209.167,-0.5 210.5,-0.5C 211.15,1.43525 211.483,3.43525 211.5,5.5C 210.167,5.5 208.833,5.5 207.5,5.5C 207.167,3.5 206.833,1.5 206.5,-0.5 Z"/></g>
<g><path style="opacity:1" fill="#374b78" d="M 74.5,-0.5 C 80.1667,-0.5 85.8333,-0.5 91.5,-0.5C 91.3404,1.15298 90.6737,2.48631 89.5,3.5C 89.5654,3.06178 89.3988,2.72845 89,2.5C 84.0328,6.95826 78.8661,11.2916 73.5,15.5C 73.2281,11.7551 72.2281,8.42178 70.5,5.5C 72.2255,3.77206 73.5589,1.77206 74.5,-0.5 Z"/></g>
<g><path style="opacity:1" fill="#d0d4e3" d="M 106.5,-0.5 C 108.167,-0.5 109.833,-0.5 111.5,-0.5C 112.398,1.90525 113.898,3.90525 116,5.5C 116.692,6.43677 116.525,7.10343 115.5,7.5C 112.474,4.80461 109.474,2.13794 106.5,-0.5 Z"/></g>
<g><path style="opacity:1" fill="#374a6a" d="M 147.5,-0.5 C 152.833,-0.5 158.167,-0.5 163.5,-0.5C 161.833,2.16667 160.167,4.83333 158.5,7.5C 157.599,8.29049 156.932,9.29049 156.5,10.5C 153.152,7.14856 150.152,3.48189 147.5,-0.5 Z"/></g>
<g><path style="opacity:1" fill="#c0baef" d="M 43.5,-0.5 C 50.8333,-0.5 58.1667,-0.5 65.5,-0.5C 65.2624,1.40435 64.2624,2.73769 62.5,3.5C 56.8238,8.48114 51.8238,14.1478 47.5,20.5C 45.5259,22.428 44.0259,24.7613 43,27.5C 42.308,30.9364 41.308,34.2698 40,37.5C 39.5065,35.8659 39.3398,34.1992 39.5,32.5C 40.1996,28.7627 41.1996,25.0961 42.5,21.5C 43.6506,17.5027 45.1506,13.5027 47,9.5C 50.8842,7.85373 52.7175,5.18706 52.5,1.5C 49.1956,3.13979 46.529,5.47312 44.5,8.5C 42.8561,8.28649 41.3561,8.61983 40,9.5C 39.805,8.1807 39.9717,6.84736 40.5,5.5C 41.5,3.5 42.5,1.5 43.5,-0.5 Z"/></g>
<g><path style="opacity:1" fill="#263c65" d="M 163.5,-0.5 C 173.5,-0.5 183.5,-0.5 193.5,-0.5C 197.976,17.9065 199.476,36.5732 198,55.5C 198.333,55.8333 198.667,56.1667 199,56.5C 199.232,55.2625 199.732,54.2625 200.5,53.5C 200.5,55.8333 200.5,58.1667 200.5,60.5C 200.036,65.0303 201.036,69.0303 203.5,72.5C 203.5,73.8333 203.5,75.1667 203.5,76.5C 204.833,76.5 206.167,76.5 207.5,76.5C 207.167,77.5 206.5,78.1667 205.5,78.5C 204.74,80.2238 204.407,81.8905 204.5,83.5C 202.022,81.2196 200.022,78.553 198.5,75.5C 197.672,70.8685 197.172,66.2018 197,61.5C 196.667,61.8333 196.333,62.1667 196,62.5C 195.847,55.7738 194.681,49.2738 192.5,43C 193.214,41.6569 192.88,40.3236 191.5,39C 191.665,37.8831 191.998,36.7164 192.5,35.5C 190.995,32.8694 190.329,33.2027 190.5,36.5C 186.976,36.0711 183.976,34.5711 181.5,32C 181.833,31.6667 182.167,31.3333 182.5,31C 181.643,30.3109 180.977,29.4776 180.5,28.5C 181.747,26.9579 181.747,25.4579 180.5,24C 178.324,23.8371 176.491,23.0037 175,21.5C 174.977,24.051 175.477,26.551 176.5,29C 176.167,29.1667 175.833,29.3333 175.5,29.5C 174.304,27.8554 173.304,26.1887 172.5,24.5C 172.176,19.9954 170.009,17.9954 166,18.5C 164.54,16.028 163.54,13.3613 163,10.5C 161.871,8.85883 160.371,7.85883 158.5,7.5C 160.167,4.83333 161.833,2.16667 163.5,-0.5 Z"/></g>
<g><path style="opacity:1" fill="#2072c5" d="M 219.5,-0.5 C 221.167,-0.5 222.833,-0.5 224.5,-0.5C 224.755,1.96741 225.755,3.96741 227.5,5.5C 227.5,6.5 227.5,7.5 227.5,8.5C 225.929,10.6351 224.596,12.9684 223.5,15.5C 222.833,15.5 222.167,15.5 221.5,15.5C 221.666,10.8215 221.499,6.1548 221,1.5C 220.283,0.955796 219.783,0.28913 219.5,-0.5 Z"/></g>
<g><path style="opacity:1" fill="#2b3743" d="M 224.5,-0.5 C 228.833,-0.5 233.167,-0.5 237.5,-0.5C 237.337,1.85684 237.503,4.19018 238,6.5C 240.325,4.49918 242.158,2.16584 243.5,-0.5C 247.5,-0.5 251.5,-0.5 255.5,-0.5C 255.5,12.1667 255.5,24.8333 255.5,37.5C 249.946,37.2549 244.612,36.2549 239.5,34.5C 240.919,33.5489 242.585,33.2155 244.5,33.5C 243.719,27.434 241.886,21.7674 239,16.5C 237.714,11.9041 236.881,7.23744 236.5,2.5C 235.5,2.5 234.5,2.5 233.5,2.5C 231.5,2.5 229.5,2.5 227.5,2.5C 227.5,3.5 227.5,4.5 227.5,5.5C 225.755,3.96741 224.755,1.96741 224.5,-0.5 Z"/></g>
<g><path style="opacity:1" fill="#2066b7" d="M 237.5,-0.5 C 239.5,-0.5 241.5,-0.5 243.5,-0.5C 242.158,2.16584 240.325,4.49918 238,6.5C 237.503,4.19018 237.337,1.85684 237.5,-0.5 Z"/></g>
<g><path style="opacity:1" fill="#9fa7c2" d="M 142.5,-0.5 C 144.167,-0.5 145.833,-0.5 147.5,-0.5C 150.152,3.48189 153.152,7.14856 156.5,10.5C 162.433,17.3614 167.1,25.028 170.5,33.5C 170.158,34.3382 169.492,34.6716 168.5,34.5C 164.693,25.7058 159.359,18.0392 152.5,11.5C 151.167,9.5 149.5,7.83333 147.5,6.5C 146.246,3.90657 144.58,1.57324 142.5,-0.5 Z"/></g>
<g><path style="opacity:1" fill="#98a0bd" d="M 111.5,-0.5 C 115.167,-0.5 118.833,-0.5 122.5,-0.5C 123.169,4.5143 124.003,9.5143 125,14.5C 130.833,21 136.667,27.5 142.5,34C 144.89,35.5212 147.223,37.0212 149.5,38.5C 147.85,39.0478 146.183,39.3811 144.5,39.5C 134.833,28.8333 125.167,18.1667 115.5,7.5C 116.525,7.10343 116.692,6.43677 116,5.5C 113.898,3.90525 112.398,1.90525 111.5,-0.5 Z"/></g>
<g><path style="opacity:1" fill="#2b3c6a" d="M 91.5,-0.5 C 95.8333,-0.5 100.167,-0.5 104.5,-0.5C 111.14,5.47293 117.473,11.8063 123.5,18.5C 122.178,18.67 121.011,18.3366 120,17.5C 119.5,18 119,18.5 118.5,19C 119.056,21.2365 120.056,23.2365 121.5,25C 120.906,25.4643 120.239,25.631 119.5,25.5C 119.167,25.5 118.833,25.5 118.5,25.5C 116.467,22.4771 114.467,19.4771 112.5,16.5C 112.092,15.3569 111.425,14.3569 110.5,13.5C 104.538,16.8208 98.205,19.1541 91.5,20.5C 91.5,22.1667 91.5,23.8333 91.5,25.5C 91.3691,26.3764 91.7025,27.0431 92.5,27.5C 95.4221,28.0071 98.0887,29.0071 100.5,30.5C 101.08,33.1853 101.414,35.852 101.5,38.5C 101.44,39.0431 101.107,39.3764 100.5,39.5C 99.5258,37.2573 99.1924,34.924 99.5,32.5C 96.5,32.5 93.5,32.5 90.5,32.5C 90.0463,29.1349 89.3797,25.8015 88.5,22.5C 88.5984,20.0632 89.5984,18.0632 91.5,16.5C 88.6582,15.9955 87.3249,14.3289 87.5,11.5C 85.8333,11.5 84.1667,11.5 82.5,11.5C 84.8333,8.83333 87.1667,6.16667 89.5,3.5C 90.6737,2.48631 91.3404,1.15298 91.5,-0.5 Z"/></g>
<g><path style="opacity:1" fill="#526aa1" d="M 42.5,21.5 C 41.2223,21.7822 40.2223,22.4489 39.5,23.5C 38.7611,23.631 38.0944,23.4643 37.5,23C 39.3513,21.3163 41.018,19.4829 42.5,17.5C 41.277,16.3861 39.9437,16.2195 38.5,17C 34.6126,20.8874 30.7792,24.7208 27,28.5C 26.5172,27.552 26.3505,26.552 26.5,25.5C 28.4462,21.5606 30.7795,17.894 33.5,14.5C 33.3505,15.552 33.5172,16.552 34,17.5C 38.0373,15.0739 41.5373,12.0739 44.5,8.5C 46.529,5.47312 49.1956,3.13979 52.5,1.5C 52.7175,5.18706 50.8842,7.85373 47,9.5C 45.1506,13.5027 43.6506,17.5027 42.5,21.5 Z"/></g>
<g><path style="opacity:1" fill="#e3dfea" d="M 65.5,-0.5 C 68.5,-0.5 71.5,-0.5 74.5,-0.5C 73.5589,1.77206 72.2255,3.77206 70.5,5.5C 67.4534,8.54476 64.7867,11.8781 62.5,15.5C 61.3263,16.5137 60.6596,17.847 60.5,19.5C 59.6618,19.8417 59.3284,20.5084 59.5,21.5C 57.7919,25.9194 55.7919,30.2527 53.5,34.5C 52.596,33.791 52.2627,32.791 52.5,31.5C 54.0692,21.4539 57.4025,12.1206 62.5,3.5C 64.2624,2.73769 65.2624,1.40435 65.5,-0.5 Z"/></g>
<g><path style="opacity:1" fill="#313f5e" d="M 70.5,5.5 C 72.2281,8.42178 73.2281,11.7551 73.5,15.5C 71.8608,16.4725 70.5274,17.8058 69.5,19.5C 68.8333,20.5 68.1667,21.5 67.5,22.5C 66.2058,23.2899 65.0391,24.2899 64,25.5C 63.7003,23.9343 64.2003,22.601 65.5,21.5C 66.6266,20.8783 67.6266,20.045 68.5,19C 66.6125,17.6063 64.6125,16.4396 62.5,15.5C 64.7867,11.8781 67.4534,8.54476 70.5,5.5 Z"/></g>
<g><path style="opacity:1" fill="#bdbbc5" d="M 89.5,3.5 C 87.1667,6.16667 84.8333,8.83333 82.5,11.5C 78.2934,13.4354 74.6267,16.1021 71.5,19.5C 70.8333,19.5 70.1667,19.5 69.5,19.5C 70.5274,17.8058 71.8608,16.4725 73.5,15.5C 78.8661,11.2916 84.0328,6.95826 89,2.5C 89.3988,2.72845 89.5654,3.06178 89.5,3.5 Z"/></g>
<g><path style="opacity:1" fill="#8d99cb" d="M 40.5,5.5 C 39.9717,6.84736 39.805,8.1807 40,9.5C 41.3561,8.61983 42.8561,8.28649 44.5,8.5C 41.5373,12.0739 38.0373,15.0739 34,17.5C 33.5172,16.552 33.3505,15.552 33.5,14.5C 35.4821,11.1897 37.8154,8.18965 40.5,5.5 Z"/></g>
<g><path style="opacity:1" fill="#090b10" d="M 62.5,15.5 C 64.6125,16.4396 66.6125,17.6063 68.5,19C 67.6266,20.045 66.6266,20.8783 65.5,21.5C 64.2196,20.0687 62.5529,19.4021 60.5,19.5C 60.6596,17.847 61.3263,16.5137 62.5,15.5 Z"/></g>
<g><path style="opacity:1" fill="#67677a" d="M 122.5,-0.5 C 123.833,-0.5 125.167,-0.5 126.5,-0.5C 126.641,5.73509 128.474,11.4018 132,16.5C 137.354,22.3526 142.52,28.3526 147.5,34.5C 148.429,33.3112 148.762,31.9778 148.5,30.5C 149.833,30.5 151.167,30.5 152.5,30.5C 152.666,35.1785 152.499,39.8452 152,44.5C 150.905,43.3066 150.072,41.9733 149.5,40.5C 152.187,38.6061 152.187,37.9394 149.5,38.5C 147.223,37.0212 144.89,35.5212 142.5,34C 136.667,27.5 130.833,21 125,14.5C 124.003,9.5143 123.169,4.5143 122.5,-0.5 Z"/></g>
<g><path style="opacity:1" fill="#1c2c4d" d="M 158.5,7.5 C 160.371,7.85883 161.871,8.85883 163,10.5C 163.54,13.3613 164.54,16.028 166,18.5C 170.009,17.9954 172.176,19.9954 172.5,24.5C 171.316,26.854 171.482,29.1874 173,31.5C 175.316,33.6117 176.65,36.2784 177,39.5C 177.718,38.5494 178.551,38.3828 179.5,39C 178.483,40.0495 178.316,41.2161 179,42.5C 180.829,44.1558 182.163,46.1558 183,48.5C 184.085,49.2931 185.252,49.9598 186.5,50.5C 187.674,47.8464 189.174,46.1797 191,45.5C 192.167,51 193.333,56.5 194.5,62C 194.486,63.3847 194.152,64.5514 193.5,65.5C 192.306,62.9824 191.14,62.9824 190,65.5C 189.374,63.0087 188.541,63.0087 187.5,65.5C 186.818,64.7573 186.151,64.0906 185.5,63.5C 185.672,62.5084 185.338,61.8417 184.5,61.5C 180.874,51.5811 176.207,42.2477 170.5,33.5C 167.1,25.028 162.433,17.3614 156.5,10.5C 156.932,9.29049 157.599,8.29049 158.5,7.5 Z"/></g>
<g><path style="opacity:1" fill="#1a1b27" d="M 233.5,2.5 C 235.169,13.1945 236.835,23.8611 238.5,34.5C 237.833,34.5 237.5,34.8333 237.5,35.5C 235.5,35.5 233.5,35.5 231.5,35.5C 229.619,26.6688 228.286,17.6688 227.5,8.5C 227.5,7.5 227.5,6.5 227.5,5.5C 227.5,4.5 227.5,3.5 227.5,2.5C 229.5,2.5 231.5,2.5 233.5,2.5 Z"/></g>
<g><path style="opacity:1" fill="#050510" d="M 112.5,16.5 C 106.896,19.639 101.229,22.8057 95.5,26C 94.0715,26.5791 92.7382,26.4124 91.5,25.5C 91.5,23.8333 91.5,22.1667 91.5,20.5C 98.205,19.1541 104.538,16.8208 110.5,13.5C 111.425,14.3569 112.092,15.3569 112.5,16.5 Z"/></g>
<g><path style="opacity:1" fill="#3a62a8" d="M 193.5,-0.5 C 195.833,-0.5 198.167,-0.5 200.5,-0.5C 201.224,17.4763 201.224,35.4763 200.5,53.5C 199.732,54.2625 199.232,55.2625 199,56.5C 198.667,56.1667 198.333,55.8333 198,55.5C 199.476,36.5732 197.976,17.9065 193.5,-0.5 Z"/></g>
<g><path style="opacity:1" fill="#0e0c14" d="M 69.5,19.5 C 70.1667,19.5 70.8333,19.5 71.5,19.5C 72.7079,20.2341 74.0413,20.5674 75.5,20.5C 75.4326,21.9587 75.7659,23.2921 76.5,24.5C 76.44,25.0431 76.1067,25.3764 75.5,25.5C 73.0207,23.9239 70.354,22.9239 67.5,22.5C 68.1667,21.5 68.8333,20.5 69.5,19.5 Z"/></g>
<g><path style="opacity:1" fill="#595765" d="M 134.5,1.5 C 143.207,10.7074 151.374,20.374 159,30.5C 160.992,38.3611 161.992,46.3611 162,54.5C 163.618,57.9429 165.785,60.9429 168.5,63.5C 173,61.2936 173.334,58.2936 169.5,54.5C 168.833,55.1667 168.167,55.8333 167.5,56.5C 166.548,54.9547 166.215,53.288 166.5,51.5C 166.338,49.4727 166.505,47.4727 167,45.5C 170.351,51.2068 173.518,57.0402 176.5,63C 176.355,63.772 176.022,64.4387 175.5,65C 172.379,65.7261 169.713,67.2261 167.5,69.5C 166.824,68.3984 166.158,67.3984 165.5,66.5C 163.671,62.1718 161.338,58.1718 158.5,54.5C 158.666,47.4921 158.5,40.4921 158,33.5C 157.333,32.1667 156.667,30.8333 156,29.5C 150.333,23.1667 144.667,16.8333 139,10.5C 140.339,16.3347 143.173,21.5014 147.5,26C 145.097,26.6302 143.263,25.7969 142,23.5C 140.248,20.328 138.248,17.328 136,14.5C 135.485,10.4227 134.651,6.42274 133.5,2.5C 133.624,1.89333 133.957,1.55999 134.5,1.5 Z"/></g>
<g><path style="opacity:1" fill="#353b4e" d="M 210.5,-0.5 C 213.5,-0.5 216.5,-0.5 219.5,-0.5C 219.783,0.28913 220.283,0.955796 221,1.5C 221.499,6.1548 221.666,10.8215 221.5,15.5C 219.023,15.0508 217.023,15.7175 215.5,17.5C 217.129,21.7539 218.462,26.0872 219.5,30.5C 221.833,30.5 224.167,30.5 226.5,30.5C 225.121,25.6027 224.121,20.6027 223.5,15.5C 224.596,12.9684 225.929,10.6351 227.5,8.5C 228.286,17.6688 229.619,26.6688 231.5,35.5C 233.5,35.5 235.5,35.5 237.5,35.5C 237.5,36.5 237.5,37.5 237.5,38.5C 233.466,38.5045 229.466,38.8379 225.5,39.5C 225.307,36.6915 224.64,34.0248 223.5,31.5C 222.167,31.5 220.833,31.5 219.5,31.5C 219.34,33.1992 219.506,34.8659 220,36.5C 221.879,39.4605 223.379,42.6272 224.5,46C 223.991,47.1685 223.158,48.0019 222,48.5C 219.195,46.8695 217.362,44.5361 216.5,41.5C 217.555,38.9272 217.722,36.2605 217,33.5C 213.413,24.5585 210.247,15.5585 207.5,6.5C 207.5,6.16667 207.5,5.83333 207.5,5.5C 208.833,5.5 210.167,5.5 211.5,5.5C 211.483,3.43525 211.15,1.43525 210.5,-0.5 Z"/></g>
<g><path style="opacity:1" fill="#426172" d="M 221.5,15.5 C 222.167,15.5 222.833,15.5 223.5,15.5C 224.121,20.6027 225.121,25.6027 226.5,30.5C 224.167,30.5 221.833,30.5 219.5,30.5C 218.462,26.0872 217.129,21.7539 215.5,17.5C 217.023,15.7175 219.023,15.0508 221.5,15.5 Z"/></g>
<g><path style="opacity:1" fill="#34424f" d="M 200.5,-0.5 C 202.5,-0.5 204.5,-0.5 206.5,-0.5C 206.833,1.5 207.167,3.5 207.5,5.5C 207.5,5.83333 207.5,6.16667 207.5,6.5C 205.833,6.5 204.167,6.5 202.5,6.5C 204.098,14.2911 206.098,21.9577 208.5,29.5C 209.833,29.5 211.167,29.5 212.5,29.5C 211.292,34.5693 211.626,39.5693 213.5,44.5C 210.507,46.6369 207.34,48.6369 204,50.5C 203.506,52.1341 203.34,53.8008 203.5,55.5C 202.308,57.1131 201.308,58.7798 200.5,60.5C 200.5,58.1667 200.5,55.8333 200.5,53.5C 201.224,35.4763 201.224,17.4763 200.5,-0.5 Z"/></g>
<g><path style="opacity:1" fill="#151d3a" d="M 112.5,16.5 C 114.467,19.4771 116.467,22.4771 118.5,25.5C 114.908,25.7143 111.408,26.3809 108,27.5C 104.064,25.3927 101.564,26.3927 100.5,30.5C 98.0887,29.0071 95.4221,28.0071 92.5,27.5C 91.7025,27.0431 91.3691,26.3764 91.5,25.5C 92.7382,26.4124 94.0715,26.5791 95.5,26C 101.229,22.8057 106.896,19.639 112.5,16.5 Z"/></g>
<g><path style="opacity:1" fill="#878da9" d="M 126.5,-0.5 C 130.833,-0.5 135.167,-0.5 139.5,-0.5C 138.448,1.25605 136.781,1.92271 134.5,1.5C 133.957,1.55999 133.624,1.89333 133.5,2.5C 134.651,6.42274 135.485,10.4227 136,14.5C 138.248,17.328 140.248,20.328 142,23.5C 143.263,25.7969 145.097,26.6302 147.5,26C 143.173,21.5014 140.339,16.3347 139,10.5C 144.667,16.8333 150.333,23.1667 156,29.5C 156.667,30.8333 157.333,32.1667 158,33.5C 158.5,40.4921 158.666,47.4921 158.5,54.5C 157.566,55.5676 157.232,56.901 157.5,58.5C 153.829,52.8415 149.829,47.5081 145.5,42.5C 144.5,42.5 143.5,42.5 142.5,42.5C 140.901,42.7678 139.568,42.4345 138.5,41.5C 142.234,41.6773 145.901,41.3439 149.5,40.5C 150.072,41.9733 150.905,43.3066 152,44.5C 152.499,39.8452 152.666,35.1785 152.5,30.5C 151.167,30.5 149.833,30.5 148.5,30.5C 148.762,31.9778 148.429,33.3112 147.5,34.5C 142.52,28.3526 137.354,22.3526 132,16.5C 128.474,11.4018 126.641,5.73509 126.5,-0.5 Z"/></g>
<g><path style="opacity:1" fill="#1b1d21" d="M 42.5,21.5 C 41.1996,25.0961 40.1996,28.7627 39.5,32.5C 38.8333,32.5 38.5,32.8333 38.5,33.5C 37.27,30.1574 37.6033,26.8241 39.5,23.5C 40.2223,22.4489 41.2223,21.7822 42.5,21.5 Z"/></g>
<g><path style="opacity:1" fill="#1b2644" d="M 60.5,19.5 C 62.5529,19.4021 64.2196,20.0687 65.5,21.5C 64.2003,22.601 63.7003,23.9343 64,25.5C 65.0391,24.2899 66.2058,23.2899 67.5,22.5C 70.354,22.9239 73.0207,23.9239 75.5,25.5C 76.1067,25.3764 76.44,25.0431 76.5,24.5C 77.6737,25.5137 78.3404,26.847 78.5,28.5C 72.9277,28.2065 67.261,28.2065 61.5,28.5C 62.0102,25.6122 61.3435,23.2789 59.5,21.5C 59.3284,20.5084 59.6618,19.8417 60.5,19.5 Z"/></g>
<g><path style="opacity:1" fill="#161b27" d="M 118.5,25.5 C 118.833,25.5 119.167,25.5 119.5,25.5C 120.882,28.3943 122.882,30.8943 125.5,33C 123.807,33.484 122.473,32.984 121.5,31.5C 118.214,30.7929 114.881,30.4595 111.5,30.5C 110.508,30.3284 109.842,30.6618 109.5,31.5C 107.167,31.8333 105.833,33.1667 105.5,35.5C 104.167,36.5 102.833,37.5 101.5,38.5C 101.414,35.852 101.08,33.1853 100.5,30.5C 101.564,26.3927 104.064,25.3927 108,27.5C 111.408,26.3809 114.908,25.7143 118.5,25.5 Z"/></g>
<g><path style="opacity:1" fill="#201e2e" d="M 152.5,11.5 C 159.359,18.0392 164.693,25.7058 168.5,34.5C 170.153,37.8068 171.82,41.1401 173.5,44.5C 173.154,45.6956 172.654,45.6956 172,44.5C 170.974,41.7613 169.474,39.428 167.5,37.5C 163.601,28.7061 158.434,20.7061 152,13.5C 151.308,12.5632 151.475,11.8966 152.5,11.5 Z"/></g>
<g><path style="opacity:1" fill="#2c2d40" d="M 233.5,2.5 C 234.5,2.5 235.5,2.5 236.5,2.5C 236.881,7.23744 237.714,11.9041 239,16.5C 241.886,21.7674 243.719,27.434 244.5,33.5C 242.585,33.2155 240.919,33.5489 239.5,34.5C 239.167,34.5 238.833,34.5 238.5,34.5C 236.835,23.8611 235.169,13.1945 233.5,2.5 Z"/></g>
<g><path style="opacity:1" fill="#131620" d="M 78.5,28.5 C 79.5,29.8333 80.5,31.1667 81.5,32.5C 81.5,33.5 81.5,34.5 81.5,35.5C 80.3951,34.3995 79.0618,33.7329 77.5,33.5C 76.2921,32.7659 74.9587,32.4326 73.5,32.5C 73.1583,31.6618 72.4916,31.3284 71.5,31.5C 70.5,31.5 69.5,31.5 68.5,31.5C 68.5,32.5 68.5,33.5 68.5,34.5C 64.5003,34.5408 62.1669,32.5408 61.5,28.5C 67.261,28.2065 72.9277,28.2065 78.5,28.5 Z"/></g>
<g><path style="opacity:1" fill="#1a191e" d="M 104.5,-0.5 C 105.167,-0.5 105.833,-0.5 106.5,-0.5C 109.474,2.13794 112.474,4.80461 115.5,7.5C 125.167,18.1667 134.833,28.8333 144.5,39.5C 142.302,39.8799 140.635,39.2132 139.5,37.5C 133.469,31.6249 128.135,25.2916 123.5,18.5C 117.473,11.8063 111.14,5.47293 104.5,-0.5 Z"/></g>
<g><path style="opacity:1" fill="#d3c8bd" d="M 111.5,30.5 C 111.719,31.675 111.386,32.675 110.5,33.5C 109.702,33.0431 109.369,32.3764 109.5,31.5C 109.842,30.6618 110.508,30.3284 111.5,30.5 Z"/></g>
<g><path style="opacity:1" fill="#c2a7a4" d="M 71.5,31.5 C 72.4916,31.3284 73.1583,31.6618 73.5,32.5C 72.3774,33.7574 71.7107,33.4241 71.5,31.5 Z"/></g>
<g><path style="opacity:1" fill="#7e89a1" d="M 207.5,30.5 C 208.5,30.5 209.5,30.5 210.5,30.5C 210.967,33.3795 210.134,35.7129 208,37.5C 204.897,35.3633 204.73,33.03 207.5,30.5 Z"/></g>
<g><path style="opacity:1" fill="#1e3c64" d="M 25.5,27.5 C 25.3016,29.5753 25.1349,31.5753 25,33.5C 25.9234,32.2412 26.7568,30.9079 27.5,29.5C 29.0026,30.0522 30.6693,30.0522 32.5,29.5C 32.6657,33.8461 32.499,38.1794 32,42.5C 28.2275,46.4338 26.0609,51.1005 25.5,56.5C 23.901,56.2322 22.5676,56.5655 21.5,57.5C 19.4727,57.6621 17.4727,57.4955 15.5,57C 13.682,54.5103 11.3487,52.6769 8.5,51.5C 7.33363,49.8327 7.33363,48.166 8.5,46.5C 13.6757,45.9436 17.8423,43.6103 21,39.5C 21.9463,35.1925 23.4463,31.1925 25.5,27.5 Z"/></g>
<g><path style="opacity:1" fill="#4c82d7" d="M 71.5,31.5 C 71.7107,33.4241 72.3774,33.7574 73.5,32.5C 74.9587,32.4326 76.2921,32.7659 77.5,33.5C 77.6716,34.4916 77.3382,35.1583 76.5,35.5C 76.5654,35.0618 76.3988,34.7284 76,34.5C 73.724,37.0636 71.724,36.7303 70,33.5C 69.6012,33.7284 69.4346,34.0618 69.5,34.5C 69.1667,34.5 68.8333,34.5 68.5,34.5C 68.5,33.5 68.5,32.5 68.5,31.5C 69.5,31.5 70.5,31.5 71.5,31.5 Z"/></g>
<g><path style="opacity:1" fill="#3f82dc" d="M 111.5,30.5 C 114.881,30.4595 118.214,30.7929 121.5,31.5C 120.303,35.3543 117.636,37.3543 113.5,37.5C 115.319,36.0638 115.652,34.3971 114.5,32.5C 113.614,33.325 113.281,34.325 113.5,35.5C 111.278,35.822 109.444,35.1554 108,33.5C 107.805,34.8193 107.972,36.1526 108.5,37.5C 107.5,36.8333 106.5,36.1667 105.5,35.5C 105.833,33.1667 107.167,31.8333 109.5,31.5C 109.369,32.3764 109.702,33.0431 110.5,33.5C 111.386,32.675 111.719,31.675 111.5,30.5 Z"/></g>
<g><path style="opacity:1" fill="#dcdcd2" d="M 113.5,37.5 C 113.167,37.5 112.833,37.5 112.5,37.5C 111.167,37.5 109.833,37.5 108.5,37.5C 107.972,36.1526 107.805,34.8193 108,33.5C 109.444,35.1554 111.278,35.822 113.5,35.5C 113.281,34.325 113.614,33.325 114.5,32.5C 115.652,34.3971 115.319,36.0638 113.5,37.5 Z"/></g>
<g><path style="opacity:1" fill="#1e1d2d" d="M 207.5,6.5 C 210.247,15.5585 213.413,24.5585 217,33.5C 217.722,36.2605 217.555,38.9272 216.5,41.5C 215.728,42.6935 214.728,43.6935 213.5,44.5C 211.626,39.5693 211.292,34.5693 212.5,29.5C 211.167,29.5 209.833,29.5 208.5,29.5C 206.098,21.9577 204.098,14.2911 202.5,6.5C 204.167,6.5 205.833,6.5 207.5,6.5 Z"/></g>
<g><path style="opacity:1" fill="#394970" d="M 123.5,18.5 C 128.135,25.2916 133.469,31.6249 139.5,37.5C 136.557,37.3535 133.724,36.6868 131,35.5C 130.5,35.6667 130,35.8333 129.5,36C 130.705,37.3756 132.038,38.5423 133.5,39.5C 136.35,44.509 136.016,49.1756 132.5,53.5C 131.89,52.609 131.557,51.609 131.5,50.5C 133.027,47.2044 132.693,44.0377 130.5,41C 124.507,39.18 118.507,38.0133 112.5,37.5C 112.833,37.5 113.167,37.5 113.5,37.5C 117.636,37.3543 120.303,35.3543 121.5,31.5C 122.473,32.984 123.807,33.484 125.5,33C 122.882,30.8943 120.882,28.3943 119.5,25.5C 120.239,25.631 120.906,25.4643 121.5,25C 120.056,23.2365 119.056,21.2365 118.5,19C 119,18.5 119.5,18 120,17.5C 121.011,18.3366 122.178,18.67 123.5,18.5 Z"/></g>
<g><path style="opacity:1" fill="#213458" d="M 205.5,78.5 C 206.294,82.2872 207.961,85.6205 210.5,88.5C 205.786,88.3531 201.119,88.6864 196.5,89.5C 196.62,86.7952 195.62,86.1285 193.5,87.5C 192.334,85.6351 192.667,83.9684 194.5,82.5C 192.195,80.3142 192.195,77.9809 194.5,75.5C 193.249,74.3689 192.249,73.0356 191.5,71.5C 192.178,69.484 192.844,67.484 193.5,65.5C 194.152,64.5514 194.486,63.3847 194.5,62C 193.333,56.5 192.167,51 191,45.5C 189.174,46.1797 187.674,47.8464 186.5,50.5C 185.252,49.9598 184.085,49.2931 183,48.5C 182.163,46.1558 180.829,44.1558 179,42.5C 178.316,41.2161 178.483,40.0495 179.5,39C 178.551,38.3828 177.718,38.5494 177,39.5C 176.65,36.2784 175.316,33.6117 173,31.5C 171.482,29.1874 171.316,26.854 172.5,24.5C 173.304,26.1887 174.304,27.8554 175.5,29.5C 175.833,29.3333 176.167,29.1667 176.5,29C 175.477,26.551 174.977,24.051 175,21.5C 176.491,23.0037 178.324,23.8371 180.5,24C 181.747,25.4579 181.747,26.9579 180.5,28.5C 180.977,29.4776 181.643,30.3109 182.5,31C 182.167,31.3333 181.833,31.6667 181.5,32C 183.976,34.5711 186.976,36.0711 190.5,36.5C 190.329,33.2027 190.995,32.8694 192.5,35.5C 191.998,36.7164 191.665,37.8831 191.5,39C 192.88,40.3236 193.214,41.6569 192.5,43C 194.681,49.2738 195.847,55.7738 196,62.5C 196.333,62.1667 196.667,61.8333 197,61.5C 197.172,66.2018 197.672,70.8685 198.5,75.5C 200.022,78.553 202.022,81.2196 204.5,83.5C 204.407,81.8905 204.74,80.2238 205.5,78.5 Z"/></g>
<g><path style="opacity:1" fill="#728597" d="M 238.5,34.5 C 238.833,34.5 239.167,34.5 239.5,34.5C 244.612,36.2549 249.946,37.2549 255.5,37.5C 255.5,39.1667 255.5,40.8333 255.5,42.5C 252.426,40.698 249.092,39.698 245.5,39.5C 245.5,41.1667 245.5,42.8333 245.5,44.5C 242.682,44.3426 240.682,43.0092 239.5,40.5C 239.167,39.5 238.5,38.8333 237.5,38.5C 237.5,37.5 237.5,36.5 237.5,35.5C 237.5,34.8333 237.833,34.5 238.5,34.5 Z"/></g>
<g><path style="opacity:1" fill="#c3c4cd" d="M 139.5,37.5 C 140.635,39.2132 142.302,39.8799 144.5,39.5C 146.183,39.3811 147.85,39.0478 149.5,38.5C 152.187,37.9394 152.187,38.6061 149.5,40.5C 145.901,41.3439 142.234,41.6773 138.5,41.5C 136.716,41.1075 135.05,40.4408 133.5,39.5C 132.038,38.5423 130.705,37.3756 129.5,36C 130,35.8333 130.5,35.6667 131,35.5C 133.724,36.6868 136.557,37.3535 139.5,37.5 Z"/></g>
<g><path style="opacity:1" fill="#7d8198" d="M 139.5,-0.5 C 139.833,-0.5 140.167,-0.5 140.5,-0.5C 142.5,2.16667 144.833,4.5 147.5,6.5C 149.5,7.83333 151.167,9.5 152.5,11.5C 151.475,11.8966 151.308,12.5632 152,13.5C 158.434,20.7061 163.601,28.7061 167.5,37.5C 167.321,39.9541 167.987,42.1208 169.5,44C 169.333,44.5 169.167,45 169,45.5C 167.989,44.6634 166.822,44.33 165.5,44.5C 165.198,47.0593 165.532,49.3926 166.5,51.5C 166.215,53.288 166.548,54.9547 167.5,56.5C 168.167,55.8333 168.833,55.1667 169.5,54.5C 173.334,58.2936 173,61.2936 168.5,63.5C 165.785,60.9429 163.618,57.9429 162,54.5C 161.992,46.3611 160.992,38.3611 159,30.5C 151.374,20.374 143.207,10.7074 134.5,1.5C 136.781,1.92271 138.448,1.25605 139.5,-0.5 Z"/></g>
<g><path style="opacity:1" fill="#32435d" d="M 255.5,42.5 C 255.5,46.5 255.5,50.5 255.5,54.5C 252.946,53.5282 250.28,52.8615 247.5,52.5C 243.535,53.2739 239.535,53.6073 235.5,53.5C 229.571,53.7953 228.904,51.962 233.5,48C 237.5,47.6667 241.5,47.3333 245.5,47C 241.901,46.2364 239.901,44.0698 239.5,40.5C 240.682,43.0092 242.682,44.3426 245.5,44.5C 245.5,42.8333 245.5,41.1667 245.5,39.5C 249.092,39.698 252.426,40.698 255.5,42.5 Z"/></g>
<g><path style="opacity:1" fill="#ac9ac5" d="M 99.5,42.5 C 105.176,41.7614 110.843,41.7614 116.5,42.5C 119.522,43.6299 122.522,44.6299 125.5,45.5C 121.833,45.5 118.167,45.5 114.5,45.5C 113.167,45.5 111.833,45.5 110.5,45.5C 106.593,45.2739 102.926,44.2739 99.5,42.5 Z"/></g>
<g><path style="opacity:1" fill="#e8baf4" d="M 88.5,33.5 C 92.5216,35.5216 95.5216,38.5216 97.5,42.5C 95.6204,44.8574 94.9537,47.3574 95.5,50C 96.251,52.5161 97.251,55.0161 98.5,57.5C 94.0564,56.2238 91.0564,53.3905 89.5,49C 85.0233,48.8355 83.5233,51.0022 85,55.5C 87.405,56.2744 89.905,56.7744 92.5,57C 95.2098,58.4598 95.8765,60.4598 94.5,63C 90.6437,63.1773 86.977,63.6773 83.5,64.5C 80.5,64.5 77.5,64.5 74.5,64.5C 74.5,63.8333 74.5,63.1667 74.5,62.5C 77.6521,62.9529 80.1521,61.9529 82,59.5C 82.3333,55.8333 82.6667,52.1667 83,48.5C 83.6667,47.8333 84.3333,47.1667 85,46.5C 86.6242,42.34 87.7909,38.0066 88.5,33.5 Z"/></g>
<g><path style="opacity:1" fill="#fce3fb" d="M 98.5,42.5 C 98.8333,42.5 99.1667,42.5 99.5,42.5C 102.926,44.2739 106.593,45.2739 110.5,45.5C 112.428,49.2854 113.762,53.2854 114.5,57.5C 113.434,58.6921 112.601,58.3588 112,56.5C 110.04,58.8985 107.874,59.0652 105.5,57C 103.767,54.3669 102.434,51.5336 101.5,48.5C 100.675,47.6143 99.675,47.281 98.5,47.5C 98.5,45.8333 98.5,44.1667 98.5,42.5 Z"/></g>
<g><path style="opacity:1" fill="#555b87" d="M 82.5,11.5 C 84.1667,11.5 85.8333,11.5 87.5,11.5C 87.3249,14.3289 88.6582,15.9955 91.5,16.5C 89.5984,18.0632 88.5984,20.0632 88.5,22.5C 89.3797,25.8015 90.0463,29.1349 90.5,32.5C 93.5,32.5 96.5,32.5 99.5,32.5C 99.1924,34.924 99.5258,37.2573 100.5,39.5C 101.107,39.3764 101.44,39.0431 101.5,38.5C 102.833,37.5 104.167,36.5 105.5,35.5C 106.5,36.1667 107.5,36.8333 108.5,37.5C 109.833,37.5 111.167,37.5 112.5,37.5C 118.507,38.0133 124.507,39.18 130.5,41C 132.693,44.0377 133.027,47.2044 131.5,50.5C 130.833,49.5 130.167,48.5 129.5,47.5C 128.713,45.8958 127.38,45.2291 125.5,45.5C 122.522,44.6299 119.522,43.6299 116.5,42.5C 110.843,41.7614 105.176,41.7614 99.5,42.5C 99.1667,42.5 98.8333,42.5 98.5,42.5C 98.1667,42.5 97.8333,42.5 97.5,42.5C 95.5216,38.5216 92.5216,35.5216 88.5,33.5C 86.3452,31.466 84.0118,31.1326 81.5,32.5C 80.5,31.1667 79.5,29.8333 78.5,28.5C 78.3404,26.847 77.6737,25.5137 76.5,24.5C 75.7659,23.2921 75.4326,21.9587 75.5,20.5C 74.0413,20.5674 72.7079,20.2341 71.5,19.5C 74.6267,16.1021 78.2934,13.4354 82.5,11.5 Z"/></g>
<g><path style="opacity:1" fill="#18212d" d="M -0.5,41.5 C 2.58638,42.9765 5.58638,44.6432 8.5,46.5C 7.33363,48.166 7.33363,49.8327 8.5,51.5C 11.3487,52.6769 13.682,54.5103 15.5,57C 17.4727,57.4955 19.4727,57.6621 21.5,57.5C 22.2389,57.369 22.9056,57.5357 23.5,58C 22.086,59.9935 21.086,62.1602 20.5,64.5C 19.6909,66.2922 19.1909,68.2922 19,70.5C 18.5,71.6667 17.6667,72.5 16.5,73C 17.4506,73.7175 17.6172,74.5509 17,75.5C 14.5038,73.1348 11.6705,71.6348 8.5,71C 9.5,70.6667 10.5,70.3333 11.5,70C 9.57889,69.6397 7.91223,68.8064 6.5,67.5C 7.76698,65.6293 7.76698,63.7959 6.5,62C 4.24329,62.4371 1.90996,62.9371 -0.5,63.5C -0.5,56.1667 -0.5,48.8333 -0.5,41.5 Z"/></g>
<g><path style="opacity:1" fill="#5c688d" d="M 81.5,36.5 C 80.3721,41.9779 79.0388,47.3112 77.5,52.5C 74.1342,50.9306 72.9675,48.2639 74,44.5C 77.0451,42.1229 79.5451,39.4562 81.5,36.5 Z"/></g>
<g><path style="opacity:1" fill="#cca1e3" d="M 98.5,57.5 C 99.4967,60.3283 99.4967,62.995 98.5,65.5C 98.7895,61.446 98.1229,60.946 96.5,64C 92.1794,64.499 87.8461,64.6657 83.5,64.5C 86.977,63.6773 90.6437,63.1773 94.5,63C 95.8765,60.4598 95.2098,58.4598 92.5,57C 89.905,56.7744 87.405,56.2744 85,55.5C 83.5233,51.0022 85.0233,48.8355 89.5,49C 91.0564,53.3905 94.0564,56.2238 98.5,57.5 Z"/></g>
<g><path style="opacity:1" fill="#fbd5f9" d="M 114.5,45.5 C 118.167,45.5 121.833,45.5 125.5,45.5C 127.38,45.2291 128.713,45.8958 129.5,47.5C 129.5,48.1667 129.5,48.8333 129.5,49.5C 128.325,49.281 127.325,49.6143 126.5,50.5C 124.929,53.1089 123.429,55.7755 122,58.5C 118.971,54.4385 116.471,50.1051 114.5,45.5 Z"/></g>
<g><path style="opacity:1" fill="#213046" d="M 237.5,38.5 C 238.5,38.8333 239.167,39.5 239.5,40.5C 239.901,44.0698 241.901,46.2364 245.5,47C 241.5,47.3333 237.5,47.6667 233.5,48C 228.904,51.962 229.571,53.7953 235.5,53.5C 227.672,55.8251 220.172,59.1584 213,63.5C 210.254,60.2472 207.087,57.5805 203.5,55.5C 203.34,53.8008 203.506,52.1341 204,50.5C 207.34,48.6369 210.507,46.6369 213.5,44.5C 214.728,43.6935 215.728,42.6935 216.5,41.5C 217.362,44.5361 219.195,46.8695 222,48.5C 223.158,48.0019 223.991,47.1685 224.5,46C 223.379,42.6272 221.879,39.4605 220,36.5C 219.506,34.8659 219.34,33.1992 219.5,31.5C 220.833,31.5 222.167,31.5 223.5,31.5C 224.64,34.0248 225.307,36.6915 225.5,39.5C 229.466,38.8379 233.466,38.5045 237.5,38.5 Z"/></g>
<g><path style="opacity:1" fill="#2f476b" d="M 59.5,21.5 C 61.3435,23.2789 62.0102,25.6122 61.5,28.5C 62.1669,32.5408 64.5003,34.5408 68.5,34.5C 68.8333,34.5 69.1667,34.5 69.5,34.5C 69.5,35.5 69.5,36.5 69.5,37.5C 71.5273,37.6621 73.5273,37.4955 75.5,37C 76.056,36.6174 76.3893,36.1174 76.5,35.5C 77.3382,35.1583 77.6716,34.4916 77.5,33.5C 79.0618,33.7329 80.3951,34.3995 81.5,35.5C 81.5,35.8333 81.5,36.1667 81.5,36.5C 79.5451,39.4562 77.0451,42.1229 74,44.5C 72.9675,48.2639 74.1342,50.9306 77.5,52.5C 77.2927,55.2406 76.2927,57.5739 74.5,59.5C 73.791,58.596 72.791,58.2627 71.5,58.5C 71.6646,55.4816 71.498,52.4816 71,49.5C 70.6667,49.8333 70.3333,50.1667 70,50.5C 69.6667,49.5 69.3333,48.5 69,47.5C 67.5092,51.5313 66.3425,55.5313 65.5,59.5C 64.0689,59.8807 63.2355,60.8807 63,62.5C 63.2366,54.8441 63.2366,47.1775 63,39.5C 61.0472,35.9255 59.5472,35.9255 58.5,39.5C 57.5,39.5 56.5,39.5 55.5,39.5C 55.6567,40.8734 55.49,42.2068 55,43.5C 54.3333,41.1667 54.3333,38.8333 55,36.5C 57.2132,31.6955 58.7132,26.6955 59.5,21.5 Z"/></g>
<g><path style="opacity:1" fill="#aac7e0" d="M 76.5,35.5 C 76.3893,36.1174 76.056,36.6174 75.5,37C 73.5273,37.4955 71.5273,37.6621 69.5,37.5C 69.5,36.5 69.5,35.5 69.5,34.5C 69.4346,34.0618 69.6012,33.7284 70,33.5C 71.724,36.7303 73.724,37.0636 76,34.5C 76.3988,34.7284 76.5654,35.0618 76.5,35.5 Z"/></g>
<g><path style="opacity:1" fill="#fcd1fa" d="M 97.5,42.5 C 97.8333,42.5 98.1667,42.5 98.5,42.5C 98.5,44.1667 98.5,45.8333 98.5,47.5C 99.675,47.281 100.675,47.6143 101.5,48.5C 102.434,51.5336 103.767,54.3669 105.5,57C 107.874,59.0652 110.04,58.8985 112,56.5C 112.601,58.3588 113.434,58.6921 114.5,57.5C 115.451,58.9187 115.784,60.5853 115.5,62.5C 115.209,63.6491 114.376,64.3158 113,64.5C 110.176,63.9461 107.343,63.4461 104.5,63C 102.63,60.9604 100.63,59.1271 98.5,57.5C 97.251,55.0161 96.251,52.5161 95.5,50C 94.9537,47.3574 95.6204,44.8574 97.5,42.5 Z"/></g>
<g><path style="opacity:1" fill="#2c2f52" d="M 133.5,39.5 C 135.05,40.4408 136.716,41.1075 138.5,41.5C 139.568,42.4345 140.901,42.7678 142.5,42.5C 141.745,47.5224 140.745,52.5224 139.5,57.5C 139.21,60.7951 137.543,62.7951 134.5,63.5C 134.706,60.5049 134.04,57.8383 132.5,55.5C 132.5,54.8333 132.5,54.1667 132.5,53.5C 136.016,49.1756 136.35,44.509 133.5,39.5 Z"/></g>
<g><path style="opacity:1" fill="#686676" d="M 170.5,33.5 C 176.207,42.2477 180.874,51.5811 184.5,61.5C 183.516,69.3204 182.683,69.3204 182,61.5C 180,57.5 178,53.5 176,49.5C 176.765,54.0548 178.432,58.3882 181,62.5C 181.851,65.053 181.518,67.3863 180,69.5C 179.692,68.6919 179.192,68.0253 178.5,67.5C 175.863,68.5687 173.53,70.0687 171.5,72C 172.108,72.8699 172.941,73.3699 174,73.5C 175.44,72.8524 176.94,72.5191 178.5,72.5C 178.371,74.2161 178.038,75.8828 177.5,77.5C 176.596,78.209 176.263,79.209 176.5,80.5C 175.883,80.6107 175.383,80.944 175,81.5C 170.303,72.1926 169.47,72.6926 172.5,83C 169.531,93.1503 167.864,92.9837 167.5,82.5C 166.899,79.0321 165.899,75.6988 164.5,72.5C 165.461,70.7354 165.795,68.7354 165.5,66.5C 166.158,67.3984 166.824,68.3984 167.5,69.5C 169.713,67.2261 172.379,65.7261 175.5,65C 176.022,64.4387 176.355,63.772 176.5,63C 173.518,57.0402 170.351,51.2068 167,45.5C 166.505,47.4727 166.338,49.4727 166.5,51.5C 165.532,49.3926 165.198,47.0593 165.5,44.5C 166.822,44.33 167.989,44.6634 169,45.5C 169.167,45 169.333,44.5 169.5,44C 167.987,42.1208 167.321,39.9541 167.5,37.5C 169.474,39.428 170.974,41.7613 172,44.5C 172.654,45.6956 173.154,45.6956 173.5,44.5C 171.82,41.1401 170.153,37.8068 168.5,34.5C 169.492,34.6716 170.158,34.3382 170.5,33.5 Z"/></g>
<g><path style="opacity:1" fill="#f3e2f3" d="M 88.5,33.5 C 87.7909,38.0066 86.6242,42.34 85,46.5C 84.3333,47.1667 83.6667,47.8333 83,48.5C 82.6667,52.1667 82.3333,55.8333 82,59.5C 80.1521,61.9529 77.6521,62.9529 74.5,62.5C 74.5,62.1667 74.5,61.8333 74.5,61.5C 74.5,60.8333 74.5,60.1667 74.5,59.5C 76.2927,57.5739 77.2927,55.2406 77.5,52.5C 79.0388,47.3112 80.3721,41.9779 81.5,36.5C 81.5,36.1667 81.5,35.8333 81.5,35.5C 81.5,34.5 81.5,33.5 81.5,32.5C 84.0118,31.1326 86.3452,31.466 88.5,33.5 Z"/></g>
<g><path style="opacity:1" fill="#192336" d="M 255.5,54.5 C 255.5,55.1667 255.5,55.8333 255.5,56.5C 249.974,56.1786 244.64,56.5119 239.5,57.5C 238.078,57.7086 236.745,58.2086 235.5,59C 233.477,62.0203 230.81,64.3536 227.5,66C 224.375,68.5766 221.708,71.5766 219.5,75C 219.735,75.8732 220.069,76.7065 220.5,77.5C 223.07,78.2229 225.403,79.3896 227.5,81C 229.235,81.6514 230.902,81.4847 232.5,80.5C 234.203,82.5731 235.37,84.9064 236,87.5C 237.255,88.2106 238.421,89.044 239.5,90C 238.975,90.6924 238.308,91.1924 237.5,91.5C 229.825,90.5599 222.158,89.5599 214.5,88.5C 213.167,88.5 211.833,88.5 210.5,88.5C 207.961,85.6205 206.294,82.2872 205.5,78.5C 206.5,78.1667 207.167,77.5 207.5,76.5C 209.924,73.9319 209.257,71.9319 205.5,70.5C 204.478,70.8555 203.811,71.5222 203.5,72.5C 201.036,69.0303 200.036,65.0303 200.5,60.5C 201.308,58.7798 202.308,57.1131 203.5,55.5C 207.087,57.5805 210.254,60.2472 213,63.5C 220.172,59.1584 227.672,55.8251 235.5,53.5C 239.535,53.6073 243.535,53.2739 247.5,52.5C 250.28,52.8615 252.946,53.5282 255.5,54.5 Z"/></g>
<g><path style="opacity:1" fill="#48658c" d="M 47.5,20.5 C 46.3799,24.1004 45.2132,27.7671 44,31.5C 43.3333,39.8333 43.3333,48.1667 44,56.5C 45.8358,57.6694 47.0024,59.336 47.5,61.5C 48.6888,62.4287 50.0222,62.762 51.5,62.5C 51.3135,67.8446 50.9801,73.1779 50.5,78.5C 50.7441,83.4342 49.7441,88.1009 47.5,92.5C 46.6143,91.675 46.281,90.675 46.5,89.5C 48.5093,81.4367 49.176,73.4367 48.5,65.5C 45.5509,61.9131 42.3843,58.5798 39,55.5C 38.5003,48.1742 38.3337,40.8409 38.5,33.5C 38.5,32.8333 38.8333,32.5 39.5,32.5C 39.3398,34.1992 39.5065,35.8659 40,37.5C 41.308,34.2698 42.308,30.9364 43,27.5C 44.0259,24.7613 45.5259,22.428 47.5,20.5 Z"/></g>
<g><path style="opacity:1" fill="#d29fde" d="M 110.5,45.5 C 111.833,45.5 113.167,45.5 114.5,45.5C 116.471,50.1051 118.971,54.4385 122,58.5C 123.429,55.7755 124.929,53.1089 126.5,50.5C 127.325,49.6143 128.325,49.281 129.5,49.5C 127.261,55.3228 123.594,59.9895 118.5,63.5C 117.672,68.1315 117.172,72.7982 117,77.5C 115.315,79.0175 113.815,80.6841 112.5,82.5C 110.051,79.9523 107.718,79.9523 105.5,82.5C 105.238,81.0222 105.571,79.6888 106.5,78.5C 111.312,75.8493 114.478,71.8493 116,66.5C 116.765,64.9343 116.598,63.6009 115.5,62.5C 115.784,60.5853 115.451,58.9187 114.5,57.5C 113.762,53.2854 112.428,49.2854 110.5,45.5 Z"/></g>
<g><path style="opacity:1" fill="#1d3355" d="M 74.5,59.5 C 74.5,60.1667 74.5,60.8333 74.5,61.5C 74.1667,61.5 73.8333,61.5 73.5,61.5C 72.5041,61.5858 71.6708,61.2524 71,60.5C 70.8603,57.9568 70.1937,55.6234 69,53.5C 68.011,56.4557 67.1777,59.4557 66.5,62.5C 68.732,67.2862 70.0653,72.2862 70.5,77.5C 69.1805,76.0582 67.5138,75.3915 65.5,75.5C 64.7081,81.1302 64.3748,86.7969 64.5,92.5C 63.3377,99.3743 62.171,106.374 61,113.5C 60.6369,109.134 60.6369,104.801 61,100.5C 59.8277,103.231 58.6611,105.898 57.5,108.5C 59.0974,100.568 59.5974,92.5676 59,84.5C 57.541,90.0848 55.041,95.0848 51.5,99.5C 51.1667,99.5 50.8333,99.5 50.5,99.5C 53.3481,93.1209 55.5148,86.4542 57,79.5C 58.016,78.3659 58.6827,78.6992 59,80.5C 61.4763,73.5726 63.643,66.5726 65.5,59.5C 66.3425,55.5313 67.5092,51.5313 69,47.5C 69.3333,48.5 69.6667,49.5 70,50.5C 70.3333,50.1667 70.6667,49.8333 71,49.5C 71.498,52.4816 71.6646,55.4816 71.5,58.5C 72.791,58.2627 73.791,58.596 74.5,59.5 Z"/></g>
<g><path style="opacity:1" fill="#26446c" d="M 39.5,23.5 C 37.6033,26.8241 37.27,30.1574 38.5,33.5C 38.3337,40.8409 38.5003,48.1742 39,55.5C 42.3843,58.5798 45.5509,61.9131 48.5,65.5C 47.9634,68.643 46.9634,71.643 45.5,74.5C 43.4788,75.8545 41.8121,77.5212 40.5,79.5C 39.0512,82.3383 37.3846,85.1716 35.5,88C 30.9034,91.3434 25.9034,92.1767 20.5,90.5C 21.325,89.6143 22.325,89.281 23.5,89.5C 23.7678,87.901 23.4345,86.5676 22.5,85.5C 20.6649,78.6768 19.9982,71.6768 20.5,64.5C 21.086,62.1602 22.086,59.9935 23.5,58C 22.9056,57.5357 22.2389,57.369 21.5,57.5C 22.5676,56.5655 23.901,56.2322 25.5,56.5C 26.0609,51.1005 28.2275,46.4338 32,42.5C 32.499,38.1794 32.6657,33.8461 32.5,29.5C 30.6693,30.0522 29.0026,30.0522 27.5,29.5C 26.7568,30.9079 25.9234,32.2412 25,33.5C 25.1349,31.5753 25.3016,29.5753 25.5,27.5C 25.3284,26.5084 25.6618,25.8417 26.5,25.5C 26.3505,26.552 26.5172,27.552 27,28.5C 30.7792,24.7208 34.6126,20.8874 38.5,17C 39.9437,16.2195 41.277,16.3861 42.5,17.5C 41.018,19.4829 39.3513,21.3163 37.5,23C 38.0944,23.4643 38.7611,23.631 39.5,23.5 Z"/></g>
<g><path style="opacity:1" fill="#8f76a3" d="M 98.5,65.5 C 98.6716,66.4916 98.3382,67.1583 97.5,67.5C 95.6028,66.1952 93.2695,65.5286 90.5,65.5C 85.4948,66.0857 80.4948,66.2524 75.5,66C 74.944,65.6174 74.6107,65.1174 74.5,64.5C 77.5,64.5 80.5,64.5 83.5,64.5C 87.8461,64.6657 92.1794,64.499 96.5,64C 98.1229,60.946 98.7895,61.446 98.5,65.5 Z"/></g>
<g><path style="opacity:1" fill="#94abdc" d="M 158.5,54.5 C 161.338,58.1718 163.671,62.1718 165.5,66.5C 165.795,68.7354 165.461,70.7354 164.5,72.5C 162.692,67.5499 160.358,62.8832 157.5,58.5C 157.232,56.901 157.566,55.5676 158.5,54.5 Z"/></g>
<g><path style="opacity:1" fill="#476383" d="M 142.5,42.5 C 143.5,42.5 144.5,42.5 145.5,42.5C 151.735,54.6373 158.235,66.6373 165,78.5C 166.829,84.1152 166.995,89.7819 165.5,95.5C 163.652,97.7331 161.985,100.066 160.5,102.5C 160.5,101.833 160.5,101.167 160.5,100.5C 161.096,99.0646 161.096,97.398 160.5,95.5C 160.644,87.4882 159.31,79.8216 156.5,72.5C 153.886,72.7229 152.219,71.5562 151.5,69C 150.062,68.7811 148.729,68.2811 147.5,67.5C 146.108,64.8395 144.274,62.5062 142,60.5C 141.617,61.056 141.117,61.3893 140.5,61.5C 140.768,59.901 140.434,58.5676 139.5,57.5C 140.745,52.5224 141.745,47.5224 142.5,42.5 Z"/></g>
<g><path style="opacity:1" fill="#6a5483" d="M 132.5,55.5 C 134.04,57.8383 134.706,60.5049 134.5,63.5C 137.543,62.7951 139.21,60.7951 139.5,57.5C 140.434,58.5676 140.768,59.901 140.5,61.5C 140.007,63.8056 139.674,66.139 139.5,68.5C 139.5,69.5 139.5,70.5 139.5,71.5C 139.167,71.5 138.833,71.5 138.5,71.5C 138.672,70.5084 138.338,69.8417 137.5,69.5C 138.412,68.2618 138.579,66.9285 138,65.5C 137.066,66.8584 136.232,68.1917 135.5,69.5C 135.762,68.0222 135.429,66.6888 134.5,65.5C 129.839,69.827 125.173,74.1604 120.5,78.5C 119.883,78.6107 119.383,78.944 119,79.5C 118.333,75.1667 118.333,70.8333 119,66.5C 121.12,63.5703 123.953,61.737 127.5,61C 128.664,58.6716 130.33,56.8382 132.5,55.5 Z"/></g>
<g><path style="opacity:1" fill="#28486e" d="M 62.5,3.5 C 57.4025,12.1206 54.0692,21.4539 52.5,31.5C 51.3475,37.3188 51.1808,43.3188 52,49.5C 52.6107,44.504 53.1107,39.504 53.5,34.5C 55.7919,30.2527 57.7919,25.9194 59.5,21.5C 58.7132,26.6955 57.2132,31.6955 55,36.5C 54.3333,38.8333 54.3333,41.1667 55,43.5C 55.49,42.2068 55.6567,40.8734 55.5,39.5C 56.5,39.5 57.5,39.5 58.5,39.5C 58.6582,42.5455 57.9915,45.3788 56.5,48C 56.8333,49.6667 57.1667,51.3333 57.5,53C 55.305,57.0688 53.6384,61.4021 52.5,66C 52.7852,67.8895 53.7852,69.2229 55.5,70C 54.6634,71.0113 54.33,72.1779 54.5,73.5C 53.5,73.5 52.5,73.5 51.5,73.5C 51.7845,75.4147 51.4511,77.0813 50.5,78.5C 50.9801,73.1779 51.3135,67.8446 51.5,62.5C 50.0222,62.762 48.6888,62.4287 47.5,61.5C 47.0024,59.336 45.8358,57.6694 44,56.5C 43.3333,48.1667 43.3333,39.8333 44,31.5C 45.2132,27.7671 46.3799,24.1004 47.5,20.5C 51.8238,14.1478 56.8238,8.48114 62.5,3.5 Z"/></g>
<g><path style="opacity:1" fill="#9699c3" d="M 52.5,31.5 C 52.2627,32.791 52.596,33.791 53.5,34.5C 53.1107,39.504 52.6107,44.504 52,49.5C 51.1808,43.3188 51.3475,37.3188 52.5,31.5 Z"/></g>
<g><path style="opacity:1" fill="#222d37" d="M 39.5,63.5 C 40.7251,64.1522 41.3917,65.3189 41.5,67C 41.6008,70.3 40.2675,72.8 37.5,74.5C 37.1667,73.6667 36.8333,72.8333 36.5,72C 37.9114,69.3373 38.9114,66.5039 39.5,63.5 Z"/></g>
<g><path style="opacity:1" fill="#a2a2ab" d="M 137.5,69.5 C 137.784,71.4147 137.451,73.0813 136.5,74.5C 136.737,73.209 136.404,72.209 135.5,71.5C 135.5,70.8333 135.5,70.1667 135.5,69.5C 136.232,68.1917 137.066,66.8584 138,65.5C 138.579,66.9285 138.412,68.2618 137.5,69.5 Z"/></g>
<g><path style="opacity:1" fill="#e5bfee" d="M 98.5,57.5 C 100.63,59.1271 102.63,60.9604 104.5,63C 107.343,63.4461 110.176,63.9461 113,64.5C 114.376,64.3158 115.209,63.6491 115.5,62.5C 116.598,63.6009 116.765,64.9343 116,66.5C 114.478,71.8493 111.312,75.8493 106.5,78.5C 105.571,79.6888 105.238,81.0222 105.5,82.5C 104.833,82.5 104.167,82.5 103.5,82.5C 97.7247,80.2861 91.7247,79.2861 85.5,79.5C 87.219,75.3883 89.8856,72.055 93.5,69.5C 95.153,69.3404 96.4863,68.6737 97.5,67.5C 98.3382,67.1583 98.6716,66.4916 98.5,65.5C 99.4967,62.995 99.4967,60.3283 98.5,57.5 Z"/></g>
<g><path style="opacity:1" fill="#151114" d="M 145.5,42.5 C 149.829,47.5081 153.829,52.8415 157.5,58.5C 160.358,62.8832 162.692,67.5499 164.5,72.5C 165.899,75.6988 166.899,79.0321 167.5,82.5C 167.665,86.1817 167.499,89.8484 167,93.5C 166.722,94.4158 166.222,95.0825 165.5,95.5C 166.995,89.7819 166.829,84.1152 165,78.5C 158.235,66.6373 151.735,54.6373 145.5,42.5 Z"/></g>
<g><path style="opacity:1" fill="#234062" d="M 65.5,59.5 C 63.643,66.5726 61.4763,73.5726 59,80.5C 58.6827,78.6992 58.016,78.3659 57,79.5C 55.5148,86.4542 53.3481,93.1209 50.5,99.5C 47.6806,101.419 45.014,103.585 42.5,106C 40.1341,106.44 37.8008,106.94 35.5,107.5C 39.1607,104.835 42.1607,101.502 44.5,97.5C 44.1667,97.1667 43.8333,96.8333 43.5,96.5C 42.8333,97.1667 42.1667,97.8333 41.5,98.5C 39.79,97.1128 38.1233,95.7794 36.5,94.5C 40.1587,94.8506 43.1587,93.8506 45.5,91.5C 45.3284,90.5084 45.6618,89.8417 46.5,89.5C 46.281,90.675 46.6143,91.675 47.5,92.5C 49.7441,88.1009 50.7441,83.4342 50.5,78.5C 51.4511,77.0813 51.7845,75.4147 51.5,73.5C 52.5,73.5 53.5,73.5 54.5,73.5C 54.33,72.1779 54.6634,71.0113 55.5,70C 53.7852,69.2229 52.7852,67.8895 52.5,66C 53.6384,61.4021 55.305,57.0688 57.5,53C 57.1667,51.3333 56.8333,49.6667 56.5,48C 57.9915,45.3788 58.6582,42.5455 58.5,39.5C 59.5472,35.9255 61.0472,35.9255 63,39.5C 63.2366,47.1775 63.2366,54.8441 63,62.5C 63.2355,60.8807 64.0689,59.8807 65.5,59.5 Z"/></g>
<g><path style="opacity:1" fill="#43436f" d="M 73.5,61.5 C 73.8333,61.5 74.1667,61.5 74.5,61.5C 74.5,61.8333 74.5,62.1667 74.5,62.5C 74.5,63.1667 74.5,63.8333 74.5,64.5C 74.6107,65.1174 74.944,65.6174 75.5,66C 80.4948,66.2524 85.4948,66.0857 90.5,65.5C 93.2695,65.5286 95.6028,66.1952 97.5,67.5C 96.4863,68.6737 95.153,69.3404 93.5,69.5C 88.8333,69.8333 84.1667,70.1667 79.5,70.5C 79.5152,73.8791 80.5152,76.8791 82.5,79.5C 81.5084,79.3284 80.8417,79.6618 80.5,80.5C 79.8485,81.0906 79.1818,81.7573 78.5,82.5C 77.6667,81.5 76.8333,80.5 76,79.5C 74.1987,73.63 73.3654,67.63 73.5,61.5 Z"/></g>
<g><path style="opacity:1" fill="#6c6d98" d="M 93.5,69.5 C 89.8856,72.055 87.219,75.3883 85.5,79.5C 84.5,79.5 83.5,79.5 82.5,79.5C 80.5152,76.8791 79.5152,73.8791 79.5,70.5C 84.1667,70.1667 88.8333,69.8333 93.5,69.5 Z"/></g>
<g><path style="opacity:1" fill="#b1c2cf" d="M 139.5,68.5 C 142.252,70.3818 144.252,72.8818 145.5,76C 152.099,76.4382 154.766,79.9382 153.5,86.5C 152.185,85.5244 150.852,84.5244 149.5,83.5C 148.571,84.6888 148.238,86.0222 148.5,87.5C 147.833,86.5 147.167,85.5 146.5,84.5C 144.542,81.2085 142.209,78.2085 139.5,75.5C 139.5,74.1667 139.5,72.8333 139.5,71.5C 139.5,70.5 139.5,69.5 139.5,68.5 Z"/></g>
<g><path style="opacity:1" fill="#353745" d="M 184.5,61.5 C 185.338,61.8417 185.672,62.5084 185.5,63.5C 184.464,70.3097 182.798,76.9763 180.5,83.5C 179.709,81.6907 179.709,79.6907 180.5,77.5C 179.5,77.5 178.5,77.5 177.5,77.5C 178.038,75.8828 178.371,74.2161 178.5,72.5C 176.94,72.5191 175.44,72.8524 174,73.5C 172.941,73.3699 172.108,72.8699 171.5,72C 173.53,70.0687 175.863,68.5687 178.5,67.5C 179.192,68.0253 179.692,68.6919 180,69.5C 181.518,67.3863 181.851,65.053 181,62.5C 178.432,58.3882 176.765,54.0548 176,49.5C 178,53.5 180,57.5 182,61.5C 182.683,69.3204 183.516,69.3204 184.5,61.5 Z"/></g>
<g><path style="opacity:1" fill="#283549" d="M 239.5,57.5 C 239.414,59.677 238.747,61.677 237.5,63.5C 238.5,64.1667 239.5,64.8333 240.5,65.5C 240.431,67.2781 240.097,69.1114 239.5,71C 240.167,71.6667 240.833,72.3333 241.5,73C 240.405,74.6753 238.905,75.842 237,76.5C 236.167,78.1667 235.333,79.8333 234.5,81.5C 235.325,82.3857 236.325,82.719 237.5,82.5C 237.5,83.5 237.5,84.5 237.5,85.5C 243.427,84.2638 245.76,86.4305 244.5,92C 242.866,92.4935 241.199,92.6602 239.5,92.5C 238.127,92.3433 236.793,92.51 235.5,93C 236.416,93.2784 237.082,93.7784 237.5,94.5C 233.174,93.8373 228.841,93.1706 224.5,92.5C 222.833,92.6667 221.167,92.8333 219.5,93C 220.448,93.4828 221.448,93.6495 222.5,93.5C 222.5,95.5 222.5,97.5 222.5,99.5C 223.791,99.2627 224.791,99.596 225.5,100.5C 220.114,99.3389 214.78,99.3389 209.5,100.5C 209.179,98.9519 208.179,98.2852 206.5,98.5C 206.216,96.5853 206.549,94.9187 207.5,93.5C 207.5,94.5 207.5,95.5 207.5,96.5C 210.247,96.8134 212.914,96.48 215.5,95.5C 214.768,93.0394 214.435,90.7061 214.5,88.5C 222.158,89.5599 229.825,90.5599 237.5,91.5C 238.308,91.1924 238.975,90.6924 239.5,90C 238.421,89.044 237.255,88.2106 236,87.5C 235.37,84.9064 234.203,82.5731 232.5,80.5C 230.902,81.4847 229.235,81.6514 227.5,81C 225.403,79.3896 223.07,78.2229 220.5,77.5C 220.069,76.7065 219.735,75.8732 219.5,75C 221.708,71.5766 224.375,68.5766 227.5,66C 230.81,64.3536 233.477,62.0203 235.5,59C 236.745,58.2086 238.078,57.7086 239.5,57.5 Z"/></g>
<g><path style="opacity:1" fill="#778fa6" d="M 160.5,95.5 C 159.683,93.0314 159.183,90.3647 159,87.5C 158.433,85.0167 157.267,84.35 155.5,85.5C 154.833,85.5 154.5,85.8333 154.5,86.5C 154.167,86.5 153.833,86.5 153.5,86.5C 154.766,79.9382 152.099,76.4382 145.5,76C 144.252,72.8818 142.252,70.3818 139.5,68.5C 139.674,66.139 140.007,63.8056 140.5,61.5C 141.117,61.3893 141.617,61.056 142,60.5C 144.274,62.5062 146.108,64.8395 147.5,67.5C 148.729,68.2811 150.062,68.7811 151.5,69C 152.219,71.5562 153.886,72.7229 156.5,72.5C 159.31,79.8216 160.644,87.4882 160.5,95.5 Z"/></g>
<g><path style="opacity:1" fill="#88899b" d="M 207.5,76.5 C 206.167,76.5 204.833,76.5 203.5,76.5C 203.5,75.1667 203.5,73.8333 203.5,72.5C 203.811,71.5222 204.478,70.8555 205.5,70.5C 209.257,71.9319 209.924,73.9319 207.5,76.5 Z"/></g>
<g><path style="opacity:1" fill="#413493" d="M 137.5,69.5 C 138.338,69.8417 138.672,70.5084 138.5,71.5C 138.665,75.1817 138.499,78.8484 138,82.5C 137.722,83.4158 137.222,84.0825 136.5,84.5C 136.5,81.1667 136.5,77.8333 136.5,74.5C 137.451,73.0813 137.784,71.4147 137.5,69.5 Z"/></g>
<g><path style="opacity:1" fill="#8369ae" d="M 135.5,69.5 C 135.5,70.1667 135.5,70.8333 135.5,71.5C 134.6,76.772 134.267,82.1053 134.5,87.5C 133.5,87.5 132.5,87.5 131.5,87.5C 131.66,85.8008 131.494,84.1341 131,82.5C 128.337,84.2489 125.503,85.5822 122.5,86.5C 121.355,85.2073 121.689,84.0407 123.5,83C 121.859,81.871 120.859,80.371 120.5,78.5C 125.173,74.1604 129.839,69.827 134.5,65.5C 135.429,66.6888 135.762,68.0222 135.5,69.5 Z"/></g>
<g><path style="opacity:1" fill="#212c37" d="M 20.5,64.5 C 19.9982,71.6768 20.6649,78.6768 22.5,85.5C 22.6495,86.552 22.4828,87.552 22,88.5C 20.5587,87.13 18.892,86.13 17,85.5C 15.2111,87.229 13.0444,87.8957 10.5,87.5C 10.5,85.5 10.5,83.5 10.5,81.5C 8.5,81.5 6.5,81.5 4.5,81.5C 4.5,83.1667 4.5,84.8333 4.5,86.5C 3.32496,86.281 2.32496,86.6143 1.5,87.5C 2.12723,88.4168 2.46056,89.4168 2.5,90.5C 2.02694,91.9063 1.02694,92.573 -0.5,92.5C -0.5,82.8333 -0.5,73.1667 -0.5,63.5C 1.90996,62.9371 4.24329,62.4371 6.5,62C 7.76698,63.7959 7.76698,65.6293 6.5,67.5C 7.91223,68.8064 9.57889,69.6397 11.5,70C 10.5,70.3333 9.5,70.6667 8.5,71C 11.6705,71.6348 14.5038,73.1348 17,75.5C 17.6172,74.5509 17.4506,73.7175 16.5,73C 17.6667,72.5 18.5,71.6667 19,70.5C 19.1909,68.2922 19.6909,66.2922 20.5,64.5 Z"/></g>
<g><path style="opacity:1" fill="#2d3b50" d="M 255.5,56.5 C 255.5,70.8333 255.5,85.1667 255.5,99.5C 250.211,97.1667 244.878,94.8334 239.5,92.5C 241.199,92.6602 242.866,92.4935 244.5,92C 245.76,86.4305 243.427,84.2638 237.5,85.5C 237.5,84.5 237.5,83.5 237.5,82.5C 236.325,82.719 235.325,82.3857 234.5,81.5C 235.333,79.8333 236.167,78.1667 237,76.5C 238.905,75.842 240.405,74.6753 241.5,73C 240.833,72.3333 240.167,71.6667 239.5,71C 240.097,69.1114 240.431,67.2781 240.5,65.5C 239.5,64.8333 238.5,64.1667 237.5,63.5C 238.747,61.677 239.414,59.677 239.5,57.5C 244.64,56.5119 249.974,56.1786 255.5,56.5 Z"/></g>
<g><path style="opacity:1" fill="#0c0e0f" d="M 48.5,65.5 C 49.176,73.4367 48.5093,81.4367 46.5,89.5C 45.6618,89.8417 45.3284,90.5084 45.5,91.5C 43.1119,90.7813 41.6119,89.1146 41,86.5C 40.5034,84.1902 40.3367,81.8568 40.5,79.5C 41.8121,77.5212 43.4788,75.8545 45.5,74.5C 46.9634,71.643 47.9634,68.643 48.5,65.5 Z"/></g>
<g><path style="opacity:1" fill="#f5f3f0" d="M 135.5,71.5 C 136.404,72.209 136.737,73.209 136.5,74.5C 136.5,77.8333 136.5,81.1667 136.5,84.5C 136.646,97.0151 137.979,97.3485 140.5,85.5C 139.947,82.1833 139.614,78.85 139.5,75.5C 142.209,78.2085 144.542,81.2085 146.5,84.5C 145.359,88.6245 145.859,92.6245 148,96.5C 148.498,93.5184 148.665,90.5184 148.5,87.5C 148.238,86.0222 148.571,84.6888 149.5,83.5C 150.852,84.5244 152.185,85.5244 153.5,86.5C 153.833,86.5 154.167,86.5 154.5,86.5C 154.334,90.8461 154.501,95.1794 155,99.5C 155.424,102.025 156.59,104.025 158.5,105.5C 160.376,108.175 161.876,107.842 163,104.5C 163.464,105.094 163.631,105.761 163.5,106.5C 163.586,107.496 163.252,108.329 162.5,109C 160.5,109.333 158.5,109.667 156.5,110C 158.455,112.071 160.788,112.738 163.5,112C 165.692,111.074 167.692,109.907 169.5,108.5C 169.938,108.435 170.272,108.601 170.5,109C 168.959,110.371 167.625,111.871 166.5,113.5C 162.833,114.833 159.167,114.833 155.5,113.5C 153.786,110.787 151.453,108.787 148.5,107.5C 147.207,105.704 145.707,104.037 144,102.5C 143.489,100.122 142.822,97.7885 142,95.5C 139.287,102.519 136.121,109.185 132.5,115.5C 132.5,114.833 132.5,114.167 132.5,113.5C 136.138,106.338 136.805,99.0047 134.5,91.5C 134.5,90.1667 134.5,88.8333 134.5,87.5C 134.267,82.1053 134.6,76.772 135.5,71.5 Z"/></g>
<g><path style="opacity:1" fill="#a8aae6" d="M 138.5,71.5 C 138.833,71.5 139.167,71.5 139.5,71.5C 139.5,72.8333 139.5,74.1667 139.5,75.5C 139.614,78.85 139.947,82.1833 140.5,85.5C 137.979,97.3485 136.646,97.0151 136.5,84.5C 137.222,84.0825 137.722,83.4158 138,82.5C 138.499,78.8484 138.665,75.1817 138.5,71.5 Z"/></g>
<g><path style="opacity:1" fill="#785d94" d="M 104.5,83.5 C 106.924,83.1924 109.257,83.5258 111.5,84.5C 107.002,89.6717 101.668,93.6717 95.5,96.5C 95.1667,96.5 94.8333,96.5 94.5,96.5C 94.3491,92.686 92.3491,91.0193 88.5,91.5C 88.5,90.5 88.5,89.5 88.5,88.5C 95.135,87.3809 101.802,86.3809 108.5,85.5C 107.051,84.8281 105.718,84.1614 104.5,83.5 Z"/></g>
<g><path style="opacity:1" fill="#223761" d="M 73.5,61.5 C 73.3654,67.63 74.1987,73.63 76,79.5C 76.8333,80.5 77.6667,81.5 78.5,82.5C 79.1818,81.7573 79.8485,81.0906 80.5,80.5C 80.2746,82.7159 81.1079,84.3826 83,85.5C 82.063,94.0621 85.8964,97.7287 94.5,96.5C 94.8333,96.5 95.1667,96.5 95.5,96.5C 95.5,96.8333 95.5,97.1667 95.5,97.5C 94.1984,98.8069 92.865,98.8069 91.5,97.5C 86.4117,104.989 88.4117,108.656 97.5,108.5C 97.5,108.833 97.5,109.167 97.5,109.5C 97.5,109.833 97.5,110.167 97.5,110.5C 95.0971,110.552 92.7638,110.219 90.5,109.5C 89.5416,109.047 88.7083,108.381 88,107.5C 87.8508,110.279 87.0174,110.779 85.5,109C 86.5914,106.936 86.7581,104.769 86,102.5C 85.586,102.957 85.086,103.291 84.5,103.5C 83.2888,102.726 83.2888,101.893 84.5,101C 82.3333,100.167 80.8333,98.6667 80,96.5C 78.2784,96.9615 76.445,97.1282 74.5,97C 74.8333,97.3333 75.1667,97.6667 75.5,98C 74.0692,98.4652 72.9025,99.2986 72,100.5C 72.4186,96.0605 73.5852,91.7272 75.5,87.5C 74.7382,83.8889 74.2382,80.2222 74,76.5C 72.9887,77.3366 71.8221,77.67 70.5,77.5C 70.0653,72.2862 68.732,67.2862 66.5,62.5C 67.1777,59.4557 68.011,56.4557 69,53.5C 70.1937,55.6234 70.8603,57.9568 71,60.5C 71.6708,61.2524 72.5041,61.5858 73.5,61.5 Z"/></g>
<g><path style="opacity:1" fill="#9d9afd" d="M 146.5,84.5 C 147.167,85.5 147.833,86.5 148.5,87.5C 148.665,90.5184 148.498,93.5184 148,96.5C 145.859,92.6245 145.359,88.6245 146.5,84.5 Z"/></g>
<g><path style="opacity:1" fill="#263441" d="M 40.5,79.5 C 40.3367,81.8568 40.5034,84.1902 41,86.5C 41.6119,89.1146 43.1119,90.7813 45.5,91.5C 43.1587,93.8506 40.1587,94.8506 36.5,94.5C 30.3549,92.4458 25.0215,93.7792 20.5,98.5C 18.857,98.4802 17.5237,99.1468 16.5,100.5C 12.9562,97.8516 9.95619,94.685 7.5,91C 5.86586,90.5065 4.19919,90.3398 2.5,90.5C 2.46056,89.4168 2.12723,88.4168 1.5,87.5C 2.32496,86.6143 3.32496,86.281 4.5,86.5C 4.5,84.8333 4.5,83.1667 4.5,81.5C 6.5,81.5 8.5,81.5 10.5,81.5C 10.5,83.5 10.5,85.5 10.5,87.5C 13.0444,87.8957 15.2111,87.229 17,85.5C 18.892,86.13 20.5587,87.13 22,88.5C 22.4828,87.552 22.6495,86.552 22.5,85.5C 23.4345,86.5676 23.7678,87.901 23.5,89.5C 22.325,89.281 21.325,89.6143 20.5,90.5C 25.9034,92.1767 30.9034,91.3434 35.5,88C 37.3846,85.1716 39.0512,82.3383 40.5,79.5 Z"/></g>
<g><path style="opacity:1" fill="#b2bdc9" d="M 155.5,85.5 C 157.267,84.35 158.433,85.0167 159,87.5C 159.183,90.3647 159.683,93.0314 160.5,95.5C 161.096,97.398 161.096,99.0646 160.5,100.5C 157.336,95.9663 155.669,90.9663 155.5,85.5 Z"/></g>
<g><path style="opacity:1" fill="#32264c" d="M 82.5,79.5 C 83.5,79.5 84.5,79.5 85.5,79.5C 91.7247,79.2861 97.7247,80.2861 103.5,82.5C 103.5,83.1667 103.833,83.5 104.5,83.5C 105.718,84.1614 107.051,84.8281 108.5,85.5C 101.802,86.3809 95.135,87.3809 88.5,88.5C 88.5,89.5 88.5,90.5 88.5,91.5C 92.3491,91.0193 94.3491,92.686 94.5,96.5C 85.8964,97.7287 82.063,94.0621 83,85.5C 81.1079,84.3826 80.2746,82.7159 80.5,80.5C 80.8417,79.6618 81.5084,79.3284 82.5,79.5 Z"/></g>
<g><path style="opacity:1" fill="#977eb9" d="M 129.5,47.5 C 130.167,48.5 130.833,49.5 131.5,50.5C 131.557,51.609 131.89,52.609 132.5,53.5C 132.5,54.1667 132.5,54.8333 132.5,55.5C 130.33,56.8382 128.664,58.6716 127.5,61C 123.953,61.737 121.12,63.5703 119,66.5C 118.333,70.8333 118.333,75.1667 119,79.5C 119.383,78.944 119.883,78.6107 120.5,78.5C 120.859,80.371 121.859,81.871 123.5,83C 121.689,84.0407 121.355,85.2073 122.5,86.5C 121.894,91.291 119.727,95.291 116,98.5C 115.973,102.386 114.473,105.552 111.5,108C 106.934,109.309 102.267,109.809 97.5,109.5C 97.5,109.167 97.5,108.833 97.5,108.5C 96.9736,104.688 96.3069,101.021 95.5,97.5C 95.5,97.1667 95.5,96.8333 95.5,96.5C 101.668,93.6717 107.002,89.6717 111.5,84.5C 109.257,83.5258 106.924,83.1924 104.5,83.5C 103.833,83.5 103.5,83.1667 103.5,82.5C 104.167,82.5 104.833,82.5 105.5,82.5C 107.718,79.9523 110.051,79.9523 112.5,82.5C 113.815,80.6841 115.315,79.0175 117,77.5C 117.172,72.7982 117.672,68.1315 118.5,63.5C 123.594,59.9895 127.261,55.3228 129.5,49.5C 129.5,48.8333 129.5,48.1667 129.5,47.5 Z"/></g>
<g><path style="opacity:1" fill="#313643" d="M 176.5,80.5 C 172.11,89.199 167.777,97.8657 163.5,106.5C 163.631,105.761 163.464,105.094 163,104.5C 161.876,107.842 160.376,108.175 158.5,105.5C 159.906,105.027 160.573,104.027 160.5,102.5C 161.985,100.066 163.652,97.7331 165.5,95.5C 166.222,95.0825 166.722,94.4158 167,93.5C 167.499,89.8484 167.665,86.1817 167.5,82.5C 167.864,92.9837 169.531,93.1503 172.5,83C 169.47,72.6926 170.303,72.1926 175,81.5C 175.383,80.944 175.883,80.6107 176.5,80.5 Z"/></g>
<g><path style="opacity:1" fill="#0a0d0f" d="M 57.5,108.5 C 55.6923,109.317 54.1923,108.65 53,106.5C 50.6972,104.453 50.1972,102.119 51.5,99.5C 55.041,95.0848 57.541,90.0848 59,84.5C 59.5974,92.5676 59.0974,100.568 57.5,108.5 Z"/></g>
<g><path style="opacity:1" fill="#10192e" d="M 185.5,63.5 C 186.151,64.0906 186.818,64.7573 187.5,65.5C 188.541,63.0087 189.374,63.0087 190,65.5C 191.14,62.9824 192.306,62.9824 193.5,65.5C 192.844,67.484 192.178,69.484 191.5,71.5C 192.249,73.0356 193.249,74.3689 194.5,75.5C 192.195,77.9809 192.195,80.3142 194.5,82.5C 192.667,83.9684 192.334,85.6351 193.5,87.5C 195.62,86.1285 196.62,86.7952 196.5,89.5C 188.236,94.7675 180.569,100.767 173.5,107.5C 173.167,107.5 172.833,107.5 172.5,107.5C 172.528,105.418 171.861,103.584 170.5,102C 173.167,98.6667 175.833,95.3333 178.5,92C 177.941,91.2753 177.608,90.4419 177.5,89.5C 178.489,87.5061 179.489,85.5061 180.5,83.5C 182.798,76.9763 184.464,70.3097 185.5,63.5 Z"/></g>
<g><path style="opacity:1" fill="#596278" d="M 210.5,88.5 C 211.833,88.5 213.167,88.5 214.5,88.5C 214.435,90.7061 214.768,93.0394 215.5,95.5C 212.914,96.48 210.247,96.8134 207.5,96.5C 207.5,95.5 207.5,94.5 207.5,93.5C 207.5,93.1667 207.5,92.8333 207.5,92.5C 208.5,91.1667 209.5,89.8333 210.5,88.5 Z"/></g>
<g><path style="opacity:1" fill="#456780" d="M 36.5,94.5 C 38.1233,95.7794 39.79,97.1128 41.5,98.5C 42.1667,97.8333 42.8333,97.1667 43.5,96.5C 43.8333,96.8333 44.1667,97.1667 44.5,97.5C 42.1607,101.502 39.1607,104.835 35.5,107.5C 29.8094,107.452 28.1427,104.785 30.5,99.5C 31.2621,100.628 31.9288,101.795 32.5,103C 33.3317,103.688 33.9984,103.521 34.5,102.5C 32.8955,100.821 32.2289,98.8211 32.5,96.5C 28.284,96.4657 24.6173,97.7991 21.5,100.5C 20.7025,100.043 20.3691,99.3764 20.5,98.5C 25.0215,93.7792 30.3549,92.4458 36.5,94.5 Z"/></g>
<g><path style="opacity:1" fill="#233f63" d="M 70.5,77.5 C 71.8221,77.67 72.9887,77.3366 74,76.5C 74.2382,80.2222 74.7382,83.8889 75.5,87.5C 73.5852,91.7272 72.4186,96.0605 72,100.5C 72.9025,99.2986 74.0692,98.4652 75.5,98C 75.1667,97.6667 74.8333,97.3333 74.5,97C 76.445,97.1282 78.2784,96.9615 80,96.5C 80.8333,98.6667 82.3333,100.167 84.5,101C 83.2888,101.893 83.2888,102.726 84.5,103.5C 85.086,103.291 85.586,102.957 86,102.5C 86.7581,104.769 86.5914,106.936 85.5,109C 87.0174,110.779 87.8508,110.279 88,107.5C 88.7083,108.381 89.5416,109.047 90.5,109.5C 92.5843,112.706 95.5843,114.039 99.5,113.5C 99.6399,115.124 98.9733,116.29 97.5,117C 98.6039,118.131 98.2705,118.965 96.5,119.5C 95.1575,118.098 94.3242,118.431 94,120.5C 92.6414,126.219 91.4747,131.719 90.5,137C 90.6667,137.833 90.8333,138.667 91,139.5C 92.9734,138.36 94.8067,137.027 96.5,135.5C 98.2623,136.688 99.2623,138.355 99.5,140.5C 97.9275,141.687 96.2608,142.687 94.5,143.5C 91.5,143.5 88.5,143.5 85.5,143.5C 87.2593,138.211 88.2593,132.711 88.5,127C 87.4211,123.147 87.2544,119.314 88,115.5C 87.0857,117.664 85.919,119.664 84.5,121.5C 82.395,118.333 80.0617,118 77.5,120.5C 75.4549,118.525 73.7883,118.525 72.5,120.5C 70.9291,119.691 69.2624,119.357 67.5,119.5C 67.1958,116.421 66.1958,113.587 64.5,111C 68.2011,105.246 70.8677,98.9125 72.5,92C 71.5765,90.1886 70.7431,90.3553 70,92.5C 68.3745,92.1459 66.5412,92.1459 64.5,92.5C 64.3748,86.7969 64.7081,81.1302 65.5,75.5C 67.5138,75.3915 69.1805,76.0582 70.5,77.5 Z"/></g>
<g><path style="opacity:1" fill="#1b212e" d="M 177.5,77.5 C 178.5,77.5 179.5,77.5 180.5,77.5C 179.709,79.6907 179.709,81.6907 180.5,83.5C 179.489,85.5061 178.489,87.5061 177.5,89.5C 177.608,90.4419 177.941,91.2753 178.5,92C 175.833,95.3333 173.167,98.6667 170.5,102C 171.861,103.584 172.528,105.418 172.5,107.5C 171.209,107.263 170.209,107.596 169.5,108.5C 167.692,109.907 165.692,111.074 163.5,112C 160.788,112.738 158.455,112.071 156.5,110C 158.5,109.667 160.5,109.333 162.5,109C 163.252,108.329 163.586,107.496 163.5,106.5C 167.777,97.8657 172.11,89.199 176.5,80.5C 176.263,79.209 176.596,78.209 177.5,77.5 Z"/></g>
<g><path style="opacity:1" fill="#37496d" d="M 210.5,88.5 C 209.5,89.8333 208.5,91.1667 207.5,92.5C 204.302,93.7868 200.969,94.4535 197.5,94.5C 197.714,96.1439 197.38,97.6439 196.5,99C 199.028,100.017 199.028,101.184 196.5,102.5C 195.167,103.833 193.833,103.833 192.5,102.5C 191.5,101.833 190.5,101.167 189.5,100.5C 190.506,99.6043 190.506,98.9377 189.5,98.5C 183.454,100.203 178.454,103.537 174.5,108.5C 173.893,108.376 173.56,108.043 173.5,107.5C 180.569,100.767 188.236,94.7675 196.5,89.5C 201.119,88.6864 205.786,88.3531 210.5,88.5 Z"/></g>
<g><path style="opacity:1" fill="#556880" d="M 239.5,92.5 C 244.878,94.8334 250.211,97.1667 255.5,99.5C 255.5,100.833 255.5,102.167 255.5,103.5C 250.452,99.8141 244.786,97.4808 238.5,96.5C 238.137,95.8165 237.804,95.1499 237.5,94.5C 237.082,93.7784 236.416,93.2784 235.5,93C 236.793,92.51 238.127,92.3433 239.5,92.5 Z"/></g>
<g><path style="opacity:1" fill="#141b2c" d="M 237.5,94.5 C 237.804,95.1499 238.137,95.8165 238.5,96.5C 244.786,97.4808 250.452,99.8141 255.5,103.5C 255.5,109.167 255.5,114.833 255.5,120.5C 252.835,118.36 250.502,115.86 248.5,113C 246.138,111.489 243.805,109.989 241.5,108.5C 236.07,105.785 230.737,103.118 225.5,100.5C 224.791,99.596 223.791,99.2627 222.5,99.5C 222.5,97.5 222.5,95.5 222.5,93.5C 221.448,93.6495 220.448,93.4828 219.5,93C 221.167,92.8333 222.833,92.6667 224.5,92.5C 228.841,93.1706 233.174,93.8373 237.5,94.5 Z"/></g>
<g><path style="opacity:1" fill="#75659b" d="M 134.5,87.5 C 134.5,88.8333 134.5,90.1667 134.5,91.5C 132.5,94.5 130.5,97.5 128.5,100.5C 123.89,102.473 119.557,104.806 115.5,107.5C 114.5,107.833 113.833,108.5 113.5,109.5C 109.665,111.002 105.665,112.002 101.5,112.5C 99.6455,112.66 98.3121,111.993 97.5,110.5C 97.5,110.167 97.5,109.833 97.5,109.5C 102.267,109.809 106.934,109.309 111.5,108C 114.473,105.552 115.973,102.386 116,98.5C 119.727,95.291 121.894,91.291 122.5,86.5C 125.503,85.5822 128.337,84.2489 131,82.5C 131.494,84.1341 131.66,85.8008 131.5,87.5C 132.5,87.5 133.5,87.5 134.5,87.5 Z"/></g>
<g><path style="opacity:1" fill="#92a7d2" d="M 155.5,85.5 C 155.669,90.9663 157.336,95.9663 160.5,100.5C 160.5,101.167 160.5,101.833 160.5,102.5C 160.573,104.027 159.906,105.027 158.5,105.5C 156.59,104.025 155.424,102.025 155,99.5C 154.501,95.1794 154.334,90.8461 154.5,86.5C 154.5,85.8333 154.833,85.5 155.5,85.5 Z"/></g>
<g><path style="opacity:1" fill="#ced1d6" d="M 225.5,100.5 C 230.737,103.118 236.07,105.785 241.5,108.5C 241.631,109.376 241.298,110.043 240.5,110.5C 227.734,101.933 214.4,100.6 200.5,106.5C 198.5,106.833 196.5,107.167 194.5,107.5C 193.833,107.5 193.5,107.167 193.5,106.5C 198.44,103.593 203.774,101.593 209.5,100.5C 214.78,99.3389 220.114,99.3389 225.5,100.5 Z"/></g>
<g><path style="opacity:1" fill="#343a8e" d="M 128.5,100.5 C 127.5,103.167 126.5,105.833 125.5,108.5C 122.14,108.384 118.807,108.051 115.5,107.5C 119.557,104.806 123.89,102.473 128.5,100.5 Z"/></g>
<g><path style="opacity:1" fill="#5f5677" d="M 95.5,97.5 C 96.3069,101.021 96.9736,104.688 97.5,108.5C 88.4117,108.656 86.4117,104.989 91.5,97.5C 92.865,98.8069 94.1984,98.8069 95.5,97.5 Z"/></g>
<g><path style="opacity:1" fill="#708199" d="M 241.5,108.5 C 243.805,109.989 246.138,111.489 248.5,113C 250.502,115.86 252.835,118.36 255.5,120.5C 255.5,122.167 255.5,123.833 255.5,125.5C 254.833,125.167 254.167,124.833 253.5,124.5C 252.797,122.284 251.464,120.451 249.5,119C 244.04,115.098 238.373,111.431 232.5,108C 226.642,104.853 220.642,104.02 214.5,105.5C 211.733,105.858 209.067,106.525 206.5,107.5C 204.265,107.795 202.265,107.461 200.5,106.5C 214.4,100.6 227.734,101.933 240.5,110.5C 241.298,110.043 241.631,109.376 241.5,108.5 Z"/></g>
<g><path style="opacity:1" fill="#31404c" d="M 2.5,90.5 C 4.19919,90.3398 5.86586,90.5065 7.5,91C 9.95619,94.685 12.9562,97.8516 16.5,100.5C 17.5237,99.1468 18.857,98.4802 20.5,98.5C 20.3691,99.3764 20.7025,100.043 21.5,100.5C 24.6173,97.7991 28.284,96.4657 32.5,96.5C 32.2289,98.8211 32.8955,100.821 34.5,102.5C 33.9984,103.521 33.3317,103.688 32.5,103C 31.9288,101.795 31.2621,100.628 30.5,99.5C 28.1427,104.785 29.8094,107.452 35.5,107.5C 37.8008,106.94 40.1341,106.44 42.5,106C 45.014,103.585 47.6806,101.419 50.5,99.5C 50.8333,99.5 51.1667,99.5 51.5,99.5C 50.1972,102.119 50.6972,104.453 53,106.5C 54.1923,108.65 55.6923,109.317 57.5,108.5C 56.1346,110.591 55.4679,112.924 55.5,115.5C 55.5,116.167 55.1667,116.5 54.5,116.5C 54.3385,114.176 53.1718,112.509 51,111.5C 49,112.167 47,112.833 45,113.5C 38.8085,112.571 32.6419,112.571 26.5,113.5C 23.4109,112.79 20.4109,111.79 17.5,110.5C 16.5836,110.543 15.9169,110.876 15.5,111.5C 12.8333,111.5 10.1667,111.5 7.5,111.5C 8.5,106.5 6.5,104.5 1.5,105.5C 1.71481,107.179 1.04814,108.179 -0.5,108.5C -0.5,103.167 -0.5,97.8333 -0.5,92.5C 1.02694,92.573 2.02694,91.9063 2.5,90.5 Z"/></g>
<g><path style="opacity:1" fill="#cdc6ee" d="M 134.5,91.5 C 136.805,99.0047 136.138,106.338 132.5,113.5C 128.483,110.782 126.483,112.115 126.5,117.5C 124.486,117.392 122.82,118.058 121.5,119.5C 122.441,115.675 123.774,112.009 125.5,108.5C 126.5,105.833 127.5,103.167 128.5,100.5C 130.5,97.5 132.5,94.5 134.5,91.5 Z"/></g>
<g><path style="opacity:1" fill="#1c3253" d="M 90.5,109.5 C 92.7638,110.219 95.0971,110.552 97.5,110.5C 98.3121,111.993 99.6455,112.66 101.5,112.5C 105.665,112.002 109.665,111.002 113.5,109.5C 113.5,116.167 113.5,122.833 113.5,129.5C 109.599,134.12 104.932,137.787 99.5,140.5C 99.2623,138.355 98.2623,136.688 96.5,135.5C 94.8067,137.027 92.9734,138.36 91,139.5C 90.8333,138.667 90.6667,137.833 90.5,137C 91.4747,131.719 92.6414,126.219 94,120.5C 94.3242,118.431 95.1575,118.098 96.5,119.5C 98.2705,118.965 98.6039,118.131 97.5,117C 98.9733,116.29 99.6399,115.124 99.5,113.5C 95.5843,114.039 92.5843,112.706 90.5,109.5 Z"/></g>
<g><path style="opacity:1" fill="#7995c1" d="M 193.5,106.5 C 193.5,107.167 193.833,107.5 194.5,107.5C 185.738,111.717 177.404,116.717 169.5,122.5C 169.167,122.5 168.833,122.5 168.5,122.5C 175.977,115.922 184.31,110.589 193.5,106.5 Z"/></g>
<g><path style="opacity:1" fill="#14181c" d="M 115.5,107.5 C 118.807,108.051 122.14,108.384 125.5,108.5C 123.774,112.009 122.441,115.675 121.5,119.5C 119.833,122.167 118.167,124.833 116.5,127.5C 115.5,128.167 114.5,128.833 113.5,129.5C 113.5,122.833 113.5,116.167 113.5,109.5C 113.833,108.5 114.5,107.833 115.5,107.5 Z"/></g>
<g><path style="opacity:1" fill="#e7e6fb" d="M 132.5,113.5 C 132.5,114.167 132.5,114.833 132.5,115.5C 131.448,118.193 130.448,120.86 129.5,123.5C 130.833,123.5 132.167,123.5 133.5,123.5C 130.794,125.86 128.294,128.527 126,131.5C 125.282,130.549 124.449,130.383 123.5,131C 119.997,135.335 116.33,139.501 112.5,143.5C 111.5,143.5 110.5,143.5 109.5,143.5C 113.852,138.649 118.352,133.982 123,129.5C 123.562,125.7 122.562,125.033 120,127.5C 119.667,126.833 119.333,126.167 119,125.5C 118.583,126.756 117.75,127.423 116.5,127.5C 118.167,124.833 119.833,122.167 121.5,119.5C 122.82,118.058 124.486,117.392 126.5,117.5C 126.483,112.115 128.483,110.782 132.5,113.5 Z"/></g>
<g><path style="opacity:1" fill="#414f63" d="M 214.5,105.5 C 220.642,104.02 226.642,104.853 232.5,108C 238.373,111.431 244.04,115.098 249.5,119C 251.464,120.451 252.797,122.284 253.5,124.5C 245.538,118.513 237.205,113.013 228.5,108C 224.037,106.025 219.371,105.192 214.5,105.5 Z"/></g>
<g><path style="opacity:1" fill="#3f4f5d" d="M 15.5,111.5 C 15.9169,110.876 16.5836,110.543 17.5,110.5C 20.4109,111.79 23.4109,112.79 26.5,113.5C 32.6419,112.571 38.8085,112.571 45,113.5C 47,112.833 49,112.167 51,111.5C 53.1718,112.509 54.3385,114.176 54.5,116.5C 54.4216,121.001 52.7549,124.668 49.5,127.5C 49.6309,126.624 49.2975,125.957 48.5,125.5C 43.4855,128.732 39.6521,127.732 37,122.5C 35.0448,123.453 33.3782,124.787 32,126.5C 30.3005,125.594 28.4672,125.261 26.5,125.5C 26.5,124.5 26.5,123.5 26.5,122.5C 22.0105,121.943 19.5105,119.277 19,114.5C 17.9609,113.29 16.7942,112.29 15.5,111.5 Z"/></g>
<g><path style="opacity:1" fill="#97a3b5" d="M 147.5,111.5 C 148.475,115.265 149.808,115.265 151.5,111.5C 152.711,112.274 152.711,113.107 151.5,114C 152.167,114.333 152.833,114.667 153.5,115C 150.688,118.812 148.021,122.646 145.5,126.5C 144.027,124.407 144.527,122.74 147,121.5C 147.346,119.782 147.846,118.115 148.5,116.5C 147.767,115.913 146.767,115.913 145.5,116.5C 146.791,115.527 146.791,114.527 145.5,113.5C 145.855,112.478 146.522,111.811 147.5,111.5 Z"/></g>
<g><path style="opacity:1" fill="#435469" d="M 200.5,106.5 C 202.265,107.461 204.265,107.795 206.5,107.5C 199.817,110 193.151,112.833 186.5,116C 180.344,119.997 174.344,124.164 168.5,128.5C 168.607,126.621 168.107,126.288 167,127.5C 166.5,127 166,126.5 165.5,126C 167.093,125.051 168.426,123.885 169.5,122.5C 177.404,116.717 185.738,111.717 194.5,107.5C 196.5,107.167 198.5,106.833 200.5,106.5 Z"/></g>
<g><path style="opacity:1" fill="#223c5d" d="M 85.5,143.5 C 77.1667,143.5 68.8333,143.5 60.5,143.5C 61.6888,139.15 61.6888,134.817 60.5,130.5C 65.1927,130.945 67.026,128.611 66,123.5C 64.984,122.366 64.3173,122.699 64,124.5C 63.5,124 63,123.5 62.5,123C 63.7159,121.406 65.0493,119.906 66.5,118.5C 64.8333,117.5 63.5,116.167 62.5,114.5C 61.0035,118.335 60.0035,118.335 59.5,114.5C 58.0413,114.433 56.7079,114.766 55.5,115.5C 55.4679,112.924 56.1346,110.591 57.5,108.5C 58.6611,105.898 59.8277,103.231 61,100.5C 60.6369,104.801 60.6369,109.134 61,113.5C 62.171,106.374 63.3377,99.3743 64.5,92.5C 66.5412,92.1459 68.3745,92.1459 70,92.5C 70.7431,90.3553 71.5765,90.1886 72.5,92C 70.8677,98.9125 68.2011,105.246 64.5,111C 66.1958,113.587 67.1958,116.421 67.5,119.5C 69.2624,119.357 70.9291,119.691 72.5,120.5C 73.7883,118.525 75.4549,118.525 77.5,120.5C 80.0617,118 82.395,118.333 84.5,121.5C 85.919,119.664 87.0857,117.664 88,115.5C 87.2544,119.314 87.4211,123.147 88.5,127C 88.2593,132.711 87.2593,138.211 85.5,143.5 Z"/></g>
<g><path style="opacity:1" fill="#c9c4f0" d="M 148.5,107.5 C 148.567,108.959 148.234,110.292 147.5,111.5C 146.522,111.811 145.855,112.478 145.5,113.5C 146.791,114.527 146.791,115.527 145.5,116.5C 145.5,116.833 145.5,117.167 145.5,117.5C 141.779,120.027 137.779,122.027 133.5,123.5C 132.167,123.5 130.833,123.5 129.5,123.5C 130.448,120.86 131.448,118.193 132.5,115.5C 136.121,109.185 139.287,102.519 142,95.5C 142.822,97.7885 143.489,100.122 144,102.5C 145.707,104.037 147.207,105.704 148.5,107.5 Z"/></g>
<g><path style="opacity:1" fill="#1b2b42" d="M 207.5,92.5 C 207.5,92.8333 207.5,93.1667 207.5,93.5C 206.549,94.9187 206.216,96.5853 206.5,98.5C 208.179,98.2852 209.179,98.9519 209.5,100.5C 203.774,101.593 198.44,103.593 193.5,106.5C 192.282,105.839 190.949,105.172 189.5,104.5C 190.894,103.313 190.727,102.646 189,102.5C 178.769,109.392 169.102,117.058 160,125.5C 157.878,131.623 154.212,136.623 149,140.5C 148.333,139.167 148.333,137.833 149,136.5C 150.308,134.359 151.808,132.359 153.5,130.5C 153.333,130.167 153.167,129.833 153,129.5C 149.613,132.392 148.613,132.059 150,128.5C 155.695,123.634 161.195,118.634 166.5,113.5C 167.625,111.871 168.959,110.371 170.5,109C 170.272,108.601 169.938,108.435 169.5,108.5C 170.209,107.596 171.209,107.263 172.5,107.5C 172.833,107.5 173.167,107.5 173.5,107.5C 173.56,108.043 173.893,108.376 174.5,108.5C 178.454,103.537 183.454,100.203 189.5,98.5C 190.506,98.9377 190.506,99.6043 189.5,100.5C 190.5,101.167 191.5,101.833 192.5,102.5C 193.833,103.833 195.167,103.833 196.5,102.5C 199.028,101.184 199.028,100.017 196.5,99C 197.38,97.6439 197.714,96.1439 197.5,94.5C 200.969,94.4535 204.302,93.7868 207.5,92.5 Z"/></g>
<g><path style="opacity:1" fill="#345a81" d="M 251.5,133.5 C 251.083,134.124 250.416,134.457 249.5,134.5C 242.559,132.236 235.559,132.236 228.5,134.5C 220.758,134.99 213.091,135.99 205.5,137.5C 205.229,136.448 205.062,135.115 205,133.5C 203.315,131.983 201.815,130.316 200.5,128.5C 201.002,127.479 201.668,127.312 202.5,128C 205.106,129.938 206.939,132.438 208,135.5C 208.5,135 209,134.5 209.5,134C 208.862,132.293 208.862,130.46 209.5,128.5C 211.315,129.63 213.315,130.296 215.5,130.5C 216.193,134.278 217.36,134.278 219,130.5C 219.978,126.1 219.478,121.933 217.5,118C 216.207,117.51 214.873,117.343 213.5,117.5C 213.571,120.311 214.238,122.978 215.5,125.5C 215.167,126.167 214.833,126.833 214.5,127.5C 212.571,126.62 210.737,125.62 209,124.5C 206.72,124.894 206.22,125.894 207.5,127.5C 201.875,125.03 202.209,123.53 208.5,123C 207.663,121.989 207.33,120.822 207.5,119.5C 209.167,119.5 210.833,119.5 212.5,119.5C 212.5,118.5 212.5,117.5 212.5,116.5C 216.833,116.5 221.167,116.5 225.5,116.5C 225.343,117.873 225.51,119.207 226,120.5C 227.11,118.963 228.61,118.297 230.5,118.5C 230.617,120.484 229.95,122.15 228.5,123.5C 228.833,123.833 229.167,124.167 229.5,124.5C 231.381,122.266 233.715,120.933 236.5,120.5C 234.101,126.44 236.101,128.773 242.5,127.5C 242.281,128.675 242.614,129.675 243.5,130.5C 243.669,129.603 244.002,128.603 244.5,127.5C 246.776,128.213 249.109,128.713 251.5,129C 250.692,129.308 250.025,129.808 249.5,130.5C 250.612,131.265 251.279,132.265 251.5,133.5 Z"/></g>
<g><path style="opacity:1" fill="#f8f9fa" d="M 145.5,117.5 C 145.938,117.435 146.272,117.601 146.5,118C 144.333,120.167 142.167,122.333 140,124.5C 139.047,127.432 138.547,130.432 138.5,133.5C 138.047,134.458 137.381,135.292 136.5,136C 137.451,136.718 137.617,137.551 137,138.5C 134.809,139.833 132.976,141.5 131.5,143.5C 125.167,143.5 118.833,143.5 112.5,143.5C 116.33,139.501 119.997,135.335 123.5,131C 124.449,130.383 125.282,130.549 126,131.5C 128.294,128.527 130.794,125.86 133.5,123.5C 137.779,122.027 141.779,120.027 145.5,117.5 Z"/></g>
<g><path style="opacity:1" fill="#27415e" d="M 60.5,143.5 C 54.5,143.5 48.5,143.5 42.5,143.5C 42.8583,140.733 43.525,138.067 44.5,135.5C 46.653,133.206 48.3197,130.54 49.5,127.5C 52.7549,124.668 54.4216,121.001 54.5,116.5C 55.1667,116.5 55.5,116.167 55.5,115.5C 56.7079,114.766 58.0413,114.433 59.5,114.5C 60.0035,118.335 61.0035,118.335 62.5,114.5C 63.5,116.167 64.8333,117.5 66.5,118.5C 65.0493,119.906 63.7159,121.406 62.5,123C 63,123.5 63.5,124 64,124.5C 64.3173,122.699 64.984,122.366 66,123.5C 67.026,128.611 65.1927,130.945 60.5,130.5C 61.6888,134.817 61.6888,139.15 60.5,143.5 Z"/></g>
<g><path style="opacity:1" fill="#0f1721" d="M 214.5,105.5 C 219.371,105.192 224.037,106.025 228.5,108C 237.205,113.013 245.538,118.513 253.5,124.5C 254.167,124.833 254.833,125.167 255.5,125.5C 255.5,127.167 255.5,128.833 255.5,130.5C 248.61,123.986 240.61,118.986 231.5,115.5C 229.047,114.783 226.713,113.616 224.5,112C 214.102,111.097 204.102,112.764 194.5,117C 184.599,121.899 174.932,127.232 165.5,133C 162.664,136.667 159.664,140.167 156.5,143.5C 155.5,143.5 154.5,143.5 153.5,143.5C 154.779,140.888 156.445,138.555 158.5,136.5C 161.794,133.844 165.127,131.178 168.5,128.5C 174.344,124.164 180.344,119.997 186.5,116C 193.151,112.833 199.817,110 206.5,107.5C 209.067,106.525 211.733,105.858 214.5,105.5 Z"/></g>
<g><path style="opacity:1" fill="#475765" d="M 15.5,111.5 C 16.7942,112.29 17.9609,113.29 19,114.5C 19.5105,119.277 22.0105,121.943 26.5,122.5C 26.5,123.5 26.5,124.5 26.5,125.5C 28.4672,125.261 30.3005,125.594 32,126.5C 33.3782,124.787 35.0448,123.453 37,122.5C 39.6521,127.732 43.4855,128.732 48.5,125.5C 49.2975,125.957 49.6309,126.624 49.5,127.5C 48.3197,130.54 46.653,133.206 44.5,135.5C 44.3508,131.877 43.1842,131.543 41,134.5C 39.2041,134.087 37.5374,134.087 36,134.5C 34.3831,133.464 34.2164,132.297 35.5,131C 35,130.833 34.5,130.667 34,130.5C 30.6405,132.144 27.1405,132.644 23.5,132C 22.9103,130.491 22.2436,128.991 21.5,127.5C 20.914,127.709 20.414,128.043 20,128.5C 20.4471,124.114 19.7804,119.78 18,115.5C 11.7589,111.035 8.25894,112.702 7.5,120.5C 8.82207,120.33 9.98873,120.663 11,121.5C 12.6642,128.899 9.83091,132.899 2.5,133.5C 2.5,132.5 2.5,131.5 2.5,130.5C 1.5,130.5 0.5,130.5 -0.5,130.5C -0.5,123.167 -0.5,115.833 -0.5,108.5C 1.04814,108.179 1.71481,107.179 1.5,105.5C 6.5,104.5 8.5,106.5 7.5,111.5C 10.1667,111.5 12.8333,111.5 15.5,111.5 Z"/></g>
<g><path style="opacity:1" fill="#c9d3db" d="M 145.5,126.5 C 143.5,129.167 141.167,131.5 138.5,133.5C 138.547,130.432 139.047,127.432 140,124.5C 142.167,122.333 144.333,120.167 146.5,118C 146.272,117.601 145.938,117.435 145.5,117.5C 145.5,117.167 145.5,116.833 145.5,116.5C 146.767,115.913 147.767,115.913 148.5,116.5C 147.846,118.115 147.346,119.782 147,121.5C 144.527,122.74 144.027,124.407 145.5,126.5 Z"/></g>
<g><path style="opacity:1" fill="#f4f5f7" d="M 109.5,143.5 C 104.5,143.5 99.5,143.5 94.5,143.5C 96.2608,142.687 97.9275,141.687 99.5,140.5C 104.932,137.787 109.599,134.12 113.5,129.5C 114.5,128.833 115.5,128.167 116.5,127.5C 117.75,127.423 118.583,126.756 119,125.5C 119.333,126.167 119.667,126.833 120,127.5C 122.562,125.033 123.562,125.7 123,129.5C 118.352,133.982 113.852,138.649 109.5,143.5 Z"/></g>
<g><path style="opacity:1" fill="#182c4d" d="M 168.5,122.5 C 168.833,122.5 169.167,122.5 169.5,122.5C 168.426,123.885 167.093,125.051 165.5,126C 166,126.5 166.5,127 167,127.5C 168.107,126.288 168.607,126.621 168.5,128.5C 165.127,131.178 161.794,133.844 158.5,136.5C 157.624,136.631 156.957,136.298 156.5,135.5C 157.531,134.3 158.365,132.966 159,131.5C 161.379,127.62 164.546,124.62 168.5,122.5 Z"/></g>
<g><path style="opacity:1" fill="#4c5e78" d="M 148.5,107.5 C 151.453,108.787 153.786,110.787 155.5,113.5C 153.342,119.979 150.009,125.812 145.5,131C 146.416,131.278 147.082,131.778 147.5,132.5C 142.549,133.755 142.216,135.755 146.5,138.5C 145.559,140.05 144.893,141.716 144.5,143.5C 140.167,143.5 135.833,143.5 131.5,143.5C 132.976,141.5 134.809,139.833 137,138.5C 137.617,137.551 137.451,136.718 136.5,136C 137.381,135.292 138.047,134.458 138.5,133.5C 141.167,131.5 143.5,129.167 145.5,126.5C 148.021,122.646 150.688,118.812 153.5,115C 152.833,114.667 152.167,114.333 151.5,114C 152.711,113.107 152.711,112.274 151.5,111.5C 149.808,115.265 148.475,115.265 147.5,111.5C 148.234,110.292 148.567,108.959 148.5,107.5 Z"/></g>
<g><path style="opacity:1" fill="#c6ccd5" d="M 251.5,133.5 C 252.833,133.167 254.167,132.833 255.5,132.5C 255.5,133.5 255.5,134.5 255.5,135.5C 252.933,135.855 250.433,136.521 248,137.5C 242.093,135.058 236.259,135.058 230.5,137.5C 225.188,137.826 220.188,139.16 215.5,141.5C 213.279,141.561 212.946,140.895 214.5,139.5C 219.209,137.827 223.876,136.16 228.5,134.5C 235.559,132.236 242.559,132.236 249.5,134.5C 250.416,134.457 251.083,134.124 251.5,133.5 Z"/></g>
<g><path style="opacity:1" fill="#9fa3a9" d="M 147.5,132.5 C 147.795,134.735 147.461,136.735 146.5,138.5C 142.216,135.755 142.549,133.755 147.5,132.5 Z"/></g>
<g><path style="opacity:1" fill="#3d74bf" d="M 228.5,134.5 C 223.876,136.16 219.209,137.827 214.5,139.5C 211.053,140.083 208.053,141.416 205.5,143.5C 203.5,143.5 201.5,143.5 199.5,143.5C 200.598,142.603 200.598,141.77 199.5,141C 201.618,139.918 203.618,138.751 205.5,137.5C 213.091,135.99 220.758,134.99 228.5,134.5 Z"/></g>
<g><path style="opacity:1" fill="#1e3c5d" d="M 231.5,115.5 C 240.61,118.986 248.61,123.986 255.5,130.5C 255.5,131.167 255.5,131.833 255.5,132.5C 254.167,132.833 252.833,133.167 251.5,133.5C 251.279,132.265 250.612,131.265 249.5,130.5C 250.025,129.808 250.692,129.308 251.5,129C 249.109,128.713 246.776,128.213 244.5,127.5C 244.002,128.603 243.669,129.603 243.5,130.5C 242.614,129.675 242.281,128.675 242.5,127.5C 236.101,128.773 234.101,126.44 236.5,120.5C 233.715,120.933 231.381,122.266 229.5,124.5C 229.167,124.167 228.833,123.833 228.5,123.5C 229.95,122.15 230.617,120.484 230.5,118.5C 228.61,118.297 227.11,118.963 226,120.5C 225.51,119.207 225.343,117.873 225.5,116.5C 221.167,116.5 216.833,116.5 212.5,116.5C 212.5,117.5 212.5,118.5 212.5,119.5C 210.833,119.5 209.167,119.5 207.5,119.5C 207.33,120.822 207.663,121.989 208.5,123C 202.209,123.53 201.875,125.03 207.5,127.5C 208.167,127.833 208.833,128.167 209.5,128.5C 208.862,130.46 208.862,132.293 209.5,134C 209,134.5 208.5,135 208,135.5C 206.939,132.438 205.106,129.938 202.5,128C 201.668,127.312 201.002,127.479 200.5,128.5C 201.815,130.316 203.315,131.983 205,133.5C 205.062,135.115 205.229,136.448 205.5,137.5C 203.618,138.751 201.618,139.918 199.5,141C 200.598,141.77 200.598,142.603 199.5,143.5C 197.167,143.5 194.833,143.5 192.5,143.5C 192.918,142.778 193.584,142.278 194.5,142C 188.953,135.789 189.62,130.123 196.5,125C 197.448,124.517 198.448,124.351 199.5,124.5C 199.33,123.178 199.663,122.011 200.5,121C 204.081,119.397 207.748,117.897 211.5,116.5C 218.134,115.503 224.8,115.17 231.5,115.5 Z"/></g>
<g><path style="opacity:1" fill="#436e9a" d="M 209.5,128.5 C 208.833,128.167 208.167,127.833 207.5,127.5C 206.22,125.894 206.72,124.894 209,124.5C 210.737,125.62 212.571,126.62 214.5,127.5C 214.833,126.833 215.167,126.167 215.5,125.5C 214.238,122.978 213.571,120.311 213.5,117.5C 214.873,117.343 216.207,117.51 217.5,118C 219.478,121.933 219.978,126.1 219,130.5C 217.36,134.278 216.193,134.278 215.5,130.5C 213.315,130.296 211.315,129.63 209.5,128.5 Z"/></g>
<g><path style="opacity:1" fill="#13233a" d="M 255.5,136.5 C 255.5,138.833 255.5,141.167 255.5,143.5C 251.833,143.5 248.167,143.5 244.5,143.5C 247.65,140.421 251.317,138.087 255.5,136.5 Z"/></g>
<g><path style="opacity:1" fill="#5c6b7a" d="M 44.5,135.5 C 43.525,138.067 42.8583,140.733 42.5,143.5C 28.1667,143.5 13.8333,143.5 -0.5,143.5C -0.5,139.167 -0.5,134.833 -0.5,130.5C 0.5,130.5 1.5,130.5 2.5,130.5C 2.5,131.5 2.5,132.5 2.5,133.5C 9.83091,132.899 12.6642,128.899 11,121.5C 9.98873,120.663 8.82207,120.33 7.5,120.5C 8.25894,112.702 11.7589,111.035 18,115.5C 19.7804,119.78 20.4471,124.114 20,128.5C 20.414,128.043 20.914,127.709 21.5,127.5C 22.2436,128.991 22.9103,130.491 23.5,132C 27.1405,132.644 30.6405,132.144 34,130.5C 34.5,130.667 35,130.833 35.5,131C 34.2164,132.297 34.3831,133.464 36,134.5C 37.5374,134.087 39.2041,134.087 41,134.5C 43.1842,131.543 44.3508,131.877 44.5,135.5 Z"/></g>
<g><path style="opacity:1" fill="#41526b" d="M 235.5,143.5 C 234.833,143.5 234.167,143.5 233.5,143.5C 234.29,142.206 235.29,141.039 236.5,140C 235.5,139.833 234.5,139.667 233.5,139.5C 228.986,140.592 224.653,141.926 220.5,143.5C 215.5,143.5 210.5,143.5 205.5,143.5C 208.053,141.416 211.053,140.083 214.5,139.5C 212.946,140.895 213.279,141.561 215.5,141.5C 220.188,139.16 225.188,137.826 230.5,137.5C 234.893,137.457 239.226,137.291 243.5,137C 240.213,138.467 237.546,140.634 235.5,143.5 Z"/></g>
<g><path style="opacity:1" fill="#0e121b" d="M 233.5,143.5 C 229.167,143.5 224.833,143.5 220.5,143.5C 224.653,141.926 228.986,140.592 233.5,139.5C 234.5,139.667 235.5,139.833 236.5,140C 235.29,141.039 234.29,142.206 233.5,143.5 Z"/></g>
<g><path style="opacity:1" fill="#546a86" d="M 255.5,135.5 C 255.5,135.833 255.5,136.167 255.5,136.5C 251.317,138.087 247.65,140.421 244.5,143.5C 241.5,143.5 238.5,143.5 235.5,143.5C 237.546,140.634 240.213,138.467 243.5,137C 239.226,137.291 234.893,137.457 230.5,137.5C 236.259,135.058 242.093,135.058 248,137.5C 250.433,136.521 252.933,135.855 255.5,135.5 Z"/></g>
<g><path style="opacity:1" fill="#101723" d="M 193.5,106.5 C 184.31,110.589 175.977,115.922 168.5,122.5C 164.546,124.62 161.379,127.62 159,131.5C 158.365,132.966 157.531,134.3 156.5,135.5C 156.957,136.298 157.624,136.631 158.5,136.5C 156.445,138.555 154.779,140.888 153.5,143.5C 150.5,143.5 147.5,143.5 144.5,143.5C 144.893,141.716 145.559,140.05 146.5,138.5C 147.461,136.735 147.795,134.735 147.5,132.5C 147.082,131.778 146.416,131.278 145.5,131C 150.009,125.812 153.342,119.979 155.5,113.5C 159.167,114.833 162.833,114.833 166.5,113.5C 161.195,118.634 155.695,123.634 150,128.5C 148.613,132.059 149.613,132.392 153,129.5C 153.167,129.833 153.333,130.167 153.5,130.5C 151.808,132.359 150.308,134.359 149,136.5C 148.333,137.833 148.333,139.167 149,140.5C 154.212,136.623 157.878,131.623 160,125.5C 169.102,117.058 178.769,109.392 189,102.5C 190.727,102.646 190.894,103.313 189.5,104.5C 190.949,105.172 192.282,105.839 193.5,106.5 Z"/></g>
<g><path style="opacity:1" fill="#0a1a2f" d="M 231.5,115.5 C 224.8,115.17 218.134,115.503 211.5,116.5C 207.748,117.897 204.081,119.397 200.5,121C 199.663,122.011 199.33,123.178 199.5,124.5C 198.448,124.351 197.448,124.517 196.5,125C 189.62,130.123 188.953,135.789 194.5,142C 193.584,142.278 192.918,142.778 192.5,143.5C 180.5,143.5 168.5,143.5 156.5,143.5C 159.664,140.167 162.664,136.667 165.5,133C 174.932,127.232 184.599,121.899 194.5,117C 204.102,112.764 214.102,111.097 224.5,112C 226.713,113.616 229.047,114.783 231.5,115.5 Z"/></g>
</svg>
