<?xml version="1.0" encoding="UTF-8"?>
<!DOCTYPE svg PUBLIC "-//W3C//DTD SVG 1.1//EN" "http://www.w3.org/Graphics/SVG/1.1/DTD/svg11.dtd">
<svg xmlns="http://www.w3.org/2000/svg" version="1.1" width="256px" height="144px" style="shape-rendering:geometricPrecision; text-rendering:geometricPrecision; image-rendering:optimizeQuality; fill-rule:evenodd; clip-rule:evenodd" xmlns:xlink="http://www.w3.org/1999/xlink">
<g><path style="opacity:1" fill="#020302" d="M -0.5,-0.5 C 29.8333,-0.5 60.1667,-0.5 90.5,-0.5C 88.8333,1.83333 86.8333,3.83333 84.5,5.5C 84.0296,4.30652 83.0296,3.63985 81.5,3.5C 80.2739,3.51954 79.2739,3.85287 78.5,4.5C 70.2681,5.4539 63.6014,9.28723 58.5,16C 54.9618,16.5348 51.6284,17.3681 48.5,18.5C 40.7295,19.8592 33.0628,21.6925 25.5,24C 23.6266,25.7038 21.9599,27.5372 20.5,29.5C 19.8333,29.5 19.1667,29.5 18.5,29.5C 12.1667,29.5 5.83333,29.5 -0.5,29.5C -0.5,19.5 -0.5,9.5 -0.5,-0.5 Z"/></g>
<g><path style="opacity:1" fill="#d2e7f3" d="M 90.5,-0.5 C 108.833,-0.5 127.167,-0.5 145.5,-0.5C 146.686,1.87444 146.686,4.20778 145.5,6.5C 144.781,8.76375 144.448,11.0971 144.5,13.5C 144.5,14.5 144.5,15.5 144.5,16.5C 143.097,13.0915 142.43,9.42479 142.5,5.5C 138.311,5.42799 134.311,6.26133 130.5,8C 128.968,13.4566 127.635,13.6233 126.5,8.5C 125.167,8.5 123.833,8.5 122.5,8.5C 122.167,12.5 121.833,12.5 121.5,8.5C 115.544,9.18405 109.544,9.18405 103.5,8.5C 103.725,10.7159 102.892,12.3826 101,13.5C 100.722,12.5842 100.222,11.9175 99.5,11.5C 99.7678,9.90097 99.4345,8.56764 98.5,7.5C 98.5,5.16667 98.5,2.83333 98.5,0.5C 94.9647,1.26549 91.6314,2.59883 88.5,4.5C 89.5,5.33333 90.5,6.16667 91.5,7C 90.5971,10.2082 89.5971,13.3749 88.5,16.5C 87.5,16.5 86.5,16.5 85.5,16.5C 85.5405,13.1194 85.2071,9.78611 84.5,6.5C 84.5,6.16667 84.5,5.83333 84.5,5.5C 86.8333,3.83333 88.8333,1.83333 90.5,-0.5 Z"/></g>
<g><path style="opacity:1" fill="#040404" d="M 173.5,-0.5 C 200.833,-0.5 228.167,-0.5 255.5,-0.5C 255.5,7.83333 255.5,16.1667 255.5,24.5C 245.046,19.897 234.046,18.2303 222.5,19.5C 217.541,17.511 212.541,15.511 207.5,13.5C 196.176,8.61953 184.843,3.95287 173.5,-0.5 Z"/></g>
<g><path style="opacity:1" fill="#82bbdc" d="M 145.5,-0.5 C 147.833,-0.5 150.167,-0.5 152.5,-0.5C 154.094,0.983048 155.76,2.48305 157.5,4C 156.289,4.89277 156.289,5.7261 157.5,6.5C 159.214,5.39149 159.881,6.05815 159.5,8.5C 159.5,10.8333 159.5,13.1667 159.5,15.5C 156.203,15.3287 155.869,15.9954 158.5,17.5C 158.167,17.8333 157.833,18.1667 157.5,18.5C 155.249,17.3052 152.915,16.3052 150.5,15.5C 148.529,12.548 146.862,9.54803 145.5,6.5C 146.686,4.20778 146.686,1.87444 145.5,-0.5 Z"/></g>
<g><path style="opacity:1" fill="#504229" d="M 78.5,4.5 C 79.2739,3.85287 80.2739,3.51954 81.5,3.5C 83.0296,3.63985 84.0296,4.30652 84.5,5.5C 84.5,5.83333 84.5,6.16667 84.5,6.5C 83.5116,7.79502 82.5116,9.12835 81.5,10.5C 80.5,10.5 79.5,10.5 78.5,10.5C 77.6935,9.27187 76.6935,8.27187 75.5,7.5C 77.2554,6.92783 78.9221,6.0945 80.5,5C 79.9056,4.53566 79.2389,4.36899 78.5,4.5 Z"/></g>
<g><path style="opacity:1" fill="#bddfe5" d="M 152.5,-0.5 C 153.5,-0.5 154.5,-0.5 155.5,-0.5C 156.167,0.833333 157.167,1.83333 158.5,2.5C 159.925,3.92203 160.925,5.5887 161.5,7.5C 161.66,9.19919 161.494,10.8659 161,12.5C 160.79,10.9419 160.29,9.60853 159.5,8.5C 159.881,6.05815 159.214,5.39149 157.5,6.5C 156.289,5.7261 156.289,4.89277 157.5,4C 155.76,2.48305 154.094,0.983048 152.5,-0.5 Z"/></g>
<g><path style="opacity:1" fill="#ccebeb" d="M 171.5,-0.5 C 172.167,-0.5 172.833,-0.5 173.5,-0.5C 184.843,3.95287 196.176,8.61953 207.5,13.5C 208.087,14.7666 208.087,15.7666 207.5,16.5C 205.253,15.6258 202.92,15.2924 200.5,15.5C 199.417,15.4606 198.417,15.1272 197.5,14.5C 196.289,15.2739 196.289,16.1072 197.5,17C 196.906,17.4643 196.239,17.631 195.5,17.5C 194.371,14.9312 192.704,12.7645 190.5,11C 188.511,10.4808 187.511,11.3141 187.5,13.5C 186.833,13.5 186.167,13.5 185.5,13.5C 184.928,11.7446 184.094,10.0779 183,8.5C 178.693,6.01775 174.86,3.01775 171.5,-0.5 Z"/></g>
<g><path style="opacity:1" fill="#b1d2e4" d="M 144.5,16.5 C 144.5,17.1667 144.5,17.8333 144.5,18.5C 142.574,17.7577 140.741,16.7577 139,15.5C 137.938,16.0968 136.772,16.4302 135.5,16.5C 130.632,14.8554 125.632,14.1888 120.5,14.5C 116.103,14.7431 111.77,15.4098 107.5,16.5C 104.802,15.8086 102.135,15.1419 99.5,14.5C 99.5,13.5 99.5,12.5 99.5,11.5C 100.222,11.9175 100.722,12.5842 101,13.5C 102.892,12.3826 103.725,10.7159 103.5,8.5C 109.544,9.18405 115.544,9.18405 121.5,8.5C 121.833,12.5 122.167,12.5 122.5,8.5C 123.833,8.5 125.167,8.5 126.5,8.5C 127.635,13.6233 128.968,13.4566 130.5,8C 134.311,6.26133 138.311,5.42799 142.5,5.5C 142.43,9.42479 143.097,13.0915 144.5,16.5 Z"/></g>
<g><path style="opacity:1" fill="#232118" d="M 155.5,-0.5 C 160.833,-0.5 166.167,-0.5 171.5,-0.5C 174.86,3.01775 178.693,6.01775 183,8.5C 184.094,10.0779 184.928,11.7446 185.5,13.5C 189.488,21.1477 192.655,29.1477 195,37.5C 195.377,38.9423 196.21,39.9423 197.5,40.5C 198.167,40.5 198.5,40.8333 198.5,41.5C 198.719,42.675 198.386,43.675 197.5,44.5C 196.667,43.5 195.833,42.5 195,41.5C 194.8,44.9032 193.3,45.9032 190.5,44.5C 188.828,31.3222 183.495,19.8222 174.5,10C 169.526,6.6792 164.193,4.1792 158.5,2.5C 157.167,1.83333 156.167,0.833333 155.5,-0.5 Z"/></g>
<g><path style="opacity:1" fill="#99ceef" d="M 98.5,7.5 C 97.8354,9.3691 97.1687,11.3691 96.5,13.5C 95.914,13.2907 95.414,12.9574 95,12.5C 92.7218,13.719 90.5551,15.0523 88.5,16.5C 89.5971,13.3749 90.5971,10.2082 91.5,7C 90.5,6.16667 89.5,5.33333 88.5,4.5C 91.6314,2.59883 94.9647,1.26549 98.5,0.5C 98.5,2.83333 98.5,5.16667 98.5,7.5 Z"/></g>
<g><path style="opacity:1" fill="#71adcf" d="M 84.5,6.5 C 85.2071,9.78611 85.5405,13.1194 85.5,16.5C 86.5,16.5 87.5,16.5 88.5,16.5C 90.5551,15.0523 92.7218,13.719 95,12.5C 95.414,12.9574 95.914,13.2907 96.5,13.5C 97.1687,11.3691 97.8354,9.3691 98.5,7.5C 99.4345,8.56764 99.7678,9.90097 99.5,11.5C 99.5,12.5 99.5,13.5 99.5,14.5C 99.5,14.8333 99.5,15.1667 99.5,15.5C 99.6646,18.5184 99.498,21.5184 99,24.5C 96.5335,23.2117 94.0335,23.2117 91.5,24.5C 89.3257,23.1366 87.159,22.8033 85,23.5C 84.8728,19.2584 84.2061,14.925 83,10.5C 82.7216,11.4158 82.2216,12.0825 81.5,12.5C 81.5,11.8333 81.5,11.1667 81.5,10.5C 82.5116,9.12835 83.5116,7.79502 84.5,6.5 Z"/></g>
<g><path style="opacity:1" fill="#93b5c4" d="M 120.5,14.5 C 125.632,14.1888 130.632,14.8554 135.5,16.5C 136.772,16.4302 137.938,16.0968 139,15.5C 140.741,16.7577 142.574,17.7577 144.5,18.5C 144.5,18.8333 144.5,19.1667 144.5,19.5C 137.5,19.5 130.5,19.5 123.5,19.5C 123.062,19.5654 122.728,19.3988 122.5,19C 124.002,18.4169 125.335,17.5836 126.5,16.5C 124.369,15.8313 122.369,15.1646 120.5,14.5 Z"/></g>
<g><path style="opacity:1" fill="#86adb5" d="M 161.5,7.5 C 163.196,8.83448 164.862,10.1678 166.5,11.5C 167.048,13.3936 168.048,15.0603 169.5,16.5C 168.689,17.2164 168.022,18.0497 167.5,19C 168.459,21.1199 168.626,23.2865 168,25.5C 167.617,24.944 167.117,24.6107 166.5,24.5C 166.409,20.4599 165.242,16.7932 163,13.5C 161.97,17.7727 161.303,22.106 161,26.5C 159.961,25.7562 159.461,24.7562 159.5,23.5C 160.254,20.7444 160.254,18.0777 159.5,15.5C 159.5,13.1667 159.5,10.8333 159.5,8.5C 160.29,9.60853 160.79,10.9419 161,12.5C 161.494,10.8659 161.66,9.19919 161.5,7.5 Z"/></g>
<g><path style="opacity:1" fill="#9fd8da" d="M 207.5,13.5 C 212.541,15.511 217.541,17.511 222.5,19.5C 222.5,20.8333 222.5,22.1667 222.5,23.5C 222.167,23.5 221.833,23.5 221.5,23.5C 219.539,21.8872 217.206,20.8872 214.5,20.5C 209.645,19.2529 204.978,17.5862 200.5,15.5C 202.92,15.2924 205.253,15.6258 207.5,16.5C 208.087,15.7666 208.087,14.7666 207.5,13.5 Z"/></g>
<g><path style="opacity:1" fill="#588066" d="M 200.5,15.5 C 204.978,17.5862 209.645,19.2529 214.5,20.5C 214.5,22.1667 214.5,23.8333 214.5,25.5C 211.261,23.6294 208.094,21.6294 205,19.5C 202.976,21.0159 200.809,22.3492 198.5,23.5C 197.491,21.4823 196.491,19.4823 195.5,17.5C 196.239,17.631 196.906,17.4643 197.5,17C 196.289,16.1072 196.289,15.2739 197.5,14.5C 198.417,15.1272 199.417,15.4606 200.5,15.5 Z"/></g>
<g><path style="opacity:1" fill="#7a979d" d="M 99.5,15.5 C 99.5,15.1667 99.5,14.8333 99.5,14.5C 102.135,15.1419 104.802,15.8086 107.5,16.5C 111.77,15.4098 116.103,14.7431 120.5,14.5C 122.369,15.1646 124.369,15.8313 126.5,16.5C 125.335,17.5836 124.002,18.4169 122.5,19C 122.728,19.3988 123.062,19.5654 123.5,19.5C 122.158,20.793 120.491,21.6264 118.5,22C 112.843,22.4994 107.176,22.6661 101.5,22.5C 101.5,21.8333 101.5,21.1667 101.5,20.5C 100.976,18.6943 100.309,17.0276 99.5,15.5 Z"/></g>
<g><path style="opacity:1" fill="#8a9d8d" d="M 185.5,13.5 C 186.167,13.5 186.833,13.5 187.5,13.5C 189.86,15.7126 191.694,18.3793 193,21.5C 195.639,27.5795 197.139,33.9129 197.5,40.5C 196.21,39.9423 195.377,38.9423 195,37.5C 192.655,29.1477 189.488,21.1477 185.5,13.5 Z"/></g>
<g><path style="opacity:1" fill="#6595ab" d="M 145.5,6.5 C 146.862,9.54803 148.529,12.548 150.5,15.5C 152.915,16.3052 155.249,17.3052 157.5,18.5C 157.833,18.1667 158.167,17.8333 158.5,17.5C 155.869,15.9954 156.203,15.3287 159.5,15.5C 160.254,18.0777 160.254,20.7444 159.5,23.5C 156.208,23.5869 152.875,23.7535 149.5,24C 147.84,22.5123 146.84,20.679 146.5,18.5C 146.665,15.4816 146.498,12.4816 146,9.5C 145.79,11.0581 145.29,12.3915 144.5,13.5C 144.448,11.0971 144.781,8.76375 145.5,6.5 Z"/></g>
<g><path style="opacity:1" fill="#304e4a" d="M 78.5,10.5 C 77.5133,12.4734 76.5133,14.4734 75.5,16.5C 69.3553,19.9749 65.0219,24.9749 62.5,31.5C 62.7472,32.7133 63.4138,33.38 64.5,33.5C 63.713,35.1042 62.3797,35.7709 60.5,35.5C 60.5,34.1667 60.5,32.8333 60.5,31.5C 63.2196,25.063 66.7196,19.063 71,13.5C 73.2354,11.7976 75.7354,10.7976 78.5,10.5 Z"/></g>
<g><path style="opacity:1" fill="#b2d5de" d="M 78.5,10.5 C 79.5,10.5 80.5,10.5 81.5,10.5C 81.5,11.1667 81.5,11.8333 81.5,12.5C 81.1667,13.8333 80.8333,15.1667 80.5,16.5C 79.2616,18.2143 78.595,20.2143 78.5,22.5C 75.3272,23.8301 72.3272,25.4967 69.5,27.5C 68.8333,27.1667 68.1667,26.8333 67.5,26.5C 66.2172,28.7301 65.2172,31.0634 64.5,33.5C 63.4138,33.38 62.7472,32.7133 62.5,31.5C 65.0219,24.9749 69.3553,19.9749 75.5,16.5C 76.5133,14.4734 77.5133,12.4734 78.5,10.5 Z"/></g>
<g><path style="opacity:1" fill="#cff3e7" d="M 222.5,19.5 C 234.046,18.2303 245.046,19.897 255.5,24.5C 255.5,25.5 255.5,26.5 255.5,27.5C 254.711,27.2172 254.044,26.7172 253.5,26C 247.811,25.6266 242.145,25.1266 236.5,24.5C 235.609,23.8902 234.609,23.5569 233.5,23.5C 232.223,22.1024 230.557,21.4357 228.5,21.5C 226.465,22.2043 224.465,22.871 222.5,23.5C 222.5,22.1667 222.5,20.8333 222.5,19.5 Z"/></g>
<g><path style="opacity:1" fill="#87adb4" d="M 78.5,4.5 C 79.2389,4.36899 79.9056,4.53566 80.5,5C 78.9221,6.0945 77.2554,6.92783 75.5,7.5C 73.8297,7.75115 72.3297,8.41782 71,9.5C 70.586,9.04265 70.086,8.70931 69.5,8.5C 60.8953,14.7637 54.562,22.7637 50.5,32.5C 48.1394,34.1939 46.1394,36.1939 44.5,38.5C 41.5118,36.727 38.1785,36.0604 34.5,36.5C 37.977,35.6773 41.6437,35.1773 45.5,35C 47.0368,33.8904 47.7035,32.3904 47.5,30.5C 45.1667,30.5 42.8333,30.5 40.5,30.5C 42.6038,28.9013 44.6038,27.068 46.5,25C 42.5122,27.7408 38.0122,29.9074 33,31.5C 32.5,31.3333 32,31.1667 31.5,31C 33.3492,29.907 35.0158,28.5737 36.5,27C 35.552,26.5172 34.552,26.3505 33.5,26.5C 39.7348,24.0604 46.0681,21.5604 52.5,19C 51.2068,18.51 49.8734,18.3433 48.5,18.5C 51.6284,17.3681 54.9618,16.5348 58.5,16C 63.6014,9.28723 70.2681,5.4539 78.5,4.5 Z"/></g>
<g><path style="opacity:1" fill="#667565" d="M 123.5,19.5 C 130.5,19.5 137.5,19.5 144.5,19.5C 143.833,24.1667 143.167,28.8333 142.5,33.5C 142.5,34.5 142.5,35.5 142.5,36.5C 141.539,38.2646 141.205,40.2646 141.5,42.5C 140.833,42.5 140.5,42.8333 140.5,43.5C 138.421,43.9707 136.421,44.6373 134.5,45.5C 133.833,45.5 133.167,45.5 132.5,45.5C 134.395,43.9017 136.562,42.5684 139,41.5C 141.142,36.9722 141.642,32.3055 140.5,27.5C 136.95,29.6193 133.283,31.1193 129.5,32C 133.517,29.9933 137.183,27.4933 140.5,24.5C 131.51,24.4991 122.51,24.4991 113.5,24.5C 111.167,25.1667 108.833,25.8333 106.5,26.5C 105.184,23.972 104.017,23.972 103,26.5C 102.209,25.255 101.709,23.9217 101.5,22.5C 107.176,22.6661 112.843,22.4994 118.5,22C 120.491,21.6264 122.158,20.793 123.5,19.5 Z"/></g>
<g><path style="opacity:1" fill="#344543" d="M 168.5,11.5 C 171.861,12.684 174.861,14.5173 177.5,17C 178.305,18.1127 178.972,19.2794 179.5,20.5C 179.311,23.624 179.144,26.9574 179,30.5C 177.16,31.8331 176.66,31.6665 177.5,30C 176.552,29.5172 175.552,29.3505 174.5,29.5C 175.263,28.7321 176.263,28.2321 177.5,28C 177.272,27.6012 176.938,27.4346 176.5,27.5C 175.34,26.735 174.34,25.735 173.5,24.5C 174.833,24.1667 176.167,23.8333 177.5,23.5C 177.013,22.5539 176.68,21.5539 176.5,20.5C 174.285,17.0684 171.618,14.0684 168.5,11.5 Z"/></g>
<g><path style="opacity:1" fill="#575e3e" d="M 101.5,20.5 C 101.5,21.1667 101.5,21.8333 101.5,22.5C 101.709,23.9217 102.209,25.255 103,26.5C 104.017,23.972 105.184,23.972 106.5,26.5C 108.833,25.8333 111.167,25.1667 113.5,24.5C 122.51,24.4991 131.51,24.4991 140.5,24.5C 137.183,27.4933 133.517,29.9933 129.5,32C 133.283,31.1193 136.95,29.6193 140.5,27.5C 141.642,32.3055 141.142,36.9722 139,41.5C 136.562,42.5684 134.395,43.9017 132.5,45.5C 130.887,45.0557 129.72,44.0557 129,42.5C 128.667,39.8333 128.333,37.1667 128,34.5C 121.014,37.9959 120.848,37.3293 127.5,32.5C 128.466,30.604 128.799,28.604 128.5,26.5C 123.668,26.7733 121.668,29.4399 122.5,34.5C 117.953,35.6913 113.453,37.0246 109,38.5C 105.482,38.1634 103.815,36.1634 104,32.5C 103.517,33.448 103.351,34.448 103.5,35.5C 102.655,34.3285 101.989,32.9952 101.5,31.5C 101.737,30.209 101.404,29.209 100.5,28.5C 100.194,25.6146 100.527,22.9479 101.5,20.5 Z"/></g>
<g><path style="opacity:1" fill="#466566" d="M 166.5,24.5 C 165.167,24.5 163.833,24.5 162.5,24.5C 162.785,26.288 162.452,27.9547 161.5,29.5C 160.893,29.3764 160.56,29.0431 160.5,28.5C 159.469,27.7515 158.302,27.0848 157,26.5C 156.667,26.8333 156.333,27.1667 156,27.5C 154.211,25.771 152.044,25.1043 149.5,25.5C 149.5,26.5 149.5,27.5 149.5,28.5C 147.833,28.5 146.167,28.5 144.5,28.5C 144.899,24.9891 145.566,21.6557 146.5,18.5C 146.84,20.679 147.84,22.5123 149.5,24C 152.875,23.7535 156.208,23.5869 159.5,23.5C 159.461,24.7562 159.961,25.7562 161,26.5C 161.303,22.106 161.97,17.7727 163,13.5C 165.242,16.7932 166.409,20.4599 166.5,24.5 Z"/></g>
<g><path style="opacity:1" fill="#1f2513" d="M 75.5,7.5 C 76.6935,8.27187 77.6935,9.27187 78.5,10.5C 75.7354,10.7976 73.2354,11.7976 71,13.5C 66.7196,19.063 63.2196,25.063 60.5,31.5C 59.5,33.5 58.5,35.5 57.5,37.5C 57.631,36.7611 57.4643,36.0944 57,35.5C 54.9864,37.1829 53.3198,39.1829 52,41.5C 51.6667,40.5 51.3333,39.5 51,38.5C 49.2905,42.7109 47.9572,47.0443 47,51.5C 46.6174,52.056 46.1174,52.3893 45.5,52.5C 45.5,51.8333 45.5,51.1667 45.5,50.5C 46.5299,44.3867 48.1966,38.3867 50.5,32.5C 54.562,22.7637 60.8953,14.7637 69.5,8.5C 70.086,8.70931 70.586,9.04265 71,9.5C 72.3297,8.41782 73.8297,7.75115 75.5,7.5 Z"/></g>
<g><path style="opacity:1" fill="#4a7383" d="M 99.5,15.5 C 100.309,17.0276 100.976,18.6943 101.5,20.5C 100.527,22.9479 100.194,25.6146 100.5,28.5C 99.5798,29.0674 99.2465,28.4008 99.5,26.5C 94.8273,25.5092 91.494,27.1759 89.5,31.5C 87.7281,29.38 85.7281,27.7133 83.5,26.5C 83.9745,22.5842 82.9745,19.2509 80.5,16.5C 80.8333,15.1667 81.1667,13.8333 81.5,12.5C 82.2216,12.0825 82.7216,11.4158 83,10.5C 84.2061,14.925 84.8728,19.2584 85,23.5C 87.159,22.8033 89.3257,23.1366 91.5,24.5C 94.0335,23.2117 96.5335,23.2117 99,24.5C 99.498,21.5184 99.6646,18.5184 99.5,15.5 Z"/></g>
<g><path style="opacity:1" fill="#6b9a79" d="M 214.5,20.5 C 217.206,20.8872 219.539,21.8872 221.5,23.5C 221.062,23.4346 220.728,23.6012 220.5,24C 224.199,26.6288 224.366,29.4621 221,32.5C 219.296,30.6266 217.463,28.9599 215.5,27.5C 215.167,26.8333 214.833,26.1667 214.5,25.5C 214.5,23.8333 214.5,22.1667 214.5,20.5 Z"/></g>
<g><path style="opacity:1" fill="#71a27a" d="M 236.5,24.5 C 242.145,25.1266 247.811,25.6266 253.5,26C 254.044,26.7172 254.711,27.2172 255.5,27.5C 255.5,28.5 255.5,29.5 255.5,30.5C 255.167,30.5 254.833,30.5 254.5,30.5C 249.778,29.5513 245.111,28.2179 240.5,26.5C 239.005,26.0113 237.671,25.3446 236.5,24.5 Z"/></g>
<g><path style="opacity:1" fill="#badbdd" d="M 48.5,18.5 C 49.8734,18.3433 51.2068,18.51 52.5,19C 46.0681,21.5604 39.7348,24.0604 33.5,26.5C 30.7743,26.8551 28.7743,28.1885 27.5,30.5C 24.7201,30.8069 22.2201,31.8069 20,33.5C 19.5,33.3333 19,33.1667 18.5,33C 19.305,31.8873 19.9717,30.7206 20.5,29.5C 21.9599,27.5372 23.6266,25.7038 25.5,24C 33.0628,21.6925 40.7295,19.8592 48.5,18.5 Z"/></g>
<g><path style="opacity:1" fill="#5e777d" d="M 78.5,22.5 C 77.8505,24.4352 77.5172,26.4352 77.5,28.5C 76.0048,28.9887 74.6715,29.6554 73.5,30.5C 72.8333,30.5 72.5,30.8333 72.5,31.5C 70.9317,30.5269 69.265,30.3603 67.5,31C 68.056,31.3826 68.3893,31.8826 68.5,32.5C 67.1667,32.8333 65.8333,33.1667 64.5,33.5C 65.2172,31.0634 66.2172,28.7301 67.5,26.5C 68.1667,26.8333 68.8333,27.1667 69.5,27.5C 72.3272,25.4967 75.3272,23.8301 78.5,22.5 Z"/></g>
<g><path style="opacity:1" fill="#769d96" d="M 40.5,30.5 C 34.7961,32.065 29.4627,34.3983 24.5,37.5C 24.0618,37.5654 23.7284,37.3988 23.5,37C 24.5,36.1667 25.5,35.3333 26.5,34.5C 25.5672,33.0153 25.9005,31.6819 27.5,30.5C 28.7743,28.1885 30.7743,26.8551 33.5,26.5C 34.552,26.3505 35.552,26.5172 36.5,27C 35.0158,28.5737 33.3492,29.907 31.5,31C 32,31.1667 32.5,31.3333 33,31.5C 38.0122,29.9074 42.5122,27.7408 46.5,25C 44.6038,27.068 42.6038,28.9013 40.5,30.5 Z"/></g>
<g><path style="opacity:1" fill="#bddddb" d="M 176.5,27.5 C 176.938,27.4346 177.272,27.6012 177.5,28C 176.263,28.2321 175.263,28.7321 174.5,29.5C 174.167,29.5 173.833,29.5 173.5,29.5C 172.262,29.19 172.262,28.69 173.5,28C 174.448,27.5172 175.448,27.3505 176.5,27.5 Z"/></g>
<g><path style="opacity:1" fill="#4e794f" d="M 240.5,26.5 C 245.111,28.2179 249.778,29.5513 254.5,30.5C 250.884,31.5433 247.217,32.0433 243.5,32C 242.242,30.2591 241.242,28.4258 240.5,26.5 Z"/></g>
<g><path style="opacity:1" fill="#daecea" d="M -0.5,29.5 C 5.83333,29.5 12.1667,29.5 18.5,29.5C 18.5858,30.4959 18.2524,31.3292 17.5,32C 15.9419,32.21 14.6085,32.71 13.5,33.5C 12.1667,33.5 10.8333,33.5 9.5,33.5C 6.16667,33.5 2.83333,33.5 -0.5,33.5C -0.5,32.1667 -0.5,30.8333 -0.5,29.5 Z"/></g>
<g><path style="opacity:1" fill="#22302f" d="M 166.5,24.5 C 168.648,29.2778 169.981,34.2778 170.5,39.5C 170.495,42.5318 170.162,45.5318 169.5,48.5C 169.36,50.0296 168.693,51.0296 167.5,51.5C 168.626,50.1417 168.626,48.8084 167.5,47.5C 165.898,48.55 165.065,47.8833 165,45.5C 164.333,46.1667 163.667,46.8333 163,47.5C 161.386,44.446 159.886,41.446 158.5,38.5C 157.719,39.7287 157.219,41.062 157,42.5C 152.055,40.3541 147.555,41.3541 143.5,45.5C 142.516,42.5719 142.183,39.5719 142.5,36.5C 142.5,35.5 142.5,34.5 142.5,33.5C 144.117,34.038 145.784,34.3713 147.5,34.5C 147.995,37.9971 149.828,38.9971 153,37.5C 153.494,35.8659 153.66,34.1992 153.5,32.5C 156.216,31.7987 158.55,30.4654 160.5,28.5C 160.56,29.0431 160.893,29.3764 161.5,29.5C 162.452,27.9547 162.785,26.288 162.5,24.5C 163.833,24.5 165.167,24.5 166.5,24.5 Z"/></g>
<g><path style="opacity:1" fill="#577f53" d="M 233.5,23.5 C 224.546,23.2482 222.546,26.7482 227.5,34C 227.149,36.5891 226.482,39.0891 225.5,41.5C 221.729,37.0753 218.395,32.4087 215.5,27.5C 217.463,28.9599 219.296,30.6266 221,32.5C 224.366,29.4621 224.199,26.6288 220.5,24C 220.728,23.6012 221.062,23.4346 221.5,23.5C 221.833,23.5 222.167,23.5 222.5,23.5C 224.465,22.871 226.465,22.2043 228.5,21.5C 230.557,21.4357 232.223,22.1024 233.5,23.5 Z"/></g>
<g><path style="opacity:1" fill="#a1c9d2" d="M 72.5,31.5 C 71.4324,32.4345 70.099,32.7678 68.5,32.5C 68.3893,31.8826 68.056,31.3826 67.5,31C 69.265,30.3603 70.9317,30.5269 72.5,31.5 Z"/></g>
<g><path style="opacity:1" fill="#4e6766" d="M 166.5,11.5 C 167.167,11.5 167.833,11.5 168.5,11.5C 171.618,14.0684 174.285,17.0684 176.5,20.5C 176.68,21.5539 177.013,22.5539 177.5,23.5C 176.167,23.8333 174.833,24.1667 173.5,24.5C 174.34,25.735 175.34,26.735 176.5,27.5C 175.448,27.3505 174.448,27.5172 173.5,28C 172.262,28.69 172.262,29.19 173.5,29.5C 172.811,30.7736 171.977,30.7736 171,29.5C 171.161,32.8318 171.661,36.1651 172.5,39.5C 171.833,39.5 171.167,39.5 170.5,39.5C 169.981,34.2778 168.648,29.2778 166.5,24.5C 167.117,24.6107 167.617,24.944 168,25.5C 168.626,23.2865 168.459,21.1199 167.5,19C 168.022,18.0497 168.689,17.2164 169.5,16.5C 168.048,15.0603 167.048,13.3936 166.5,11.5 Z"/></g>
<g><path style="opacity:1" fill="#2d4847" d="M 146.5,18.5 C 145.566,21.6557 144.899,24.9891 144.5,28.5C 146.167,28.5 147.833,28.5 149.5,28.5C 149.5,27.5 149.5,26.5 149.5,25.5C 152.044,25.1043 154.211,25.771 156,27.5C 156.333,27.1667 156.667,26.8333 157,26.5C 158.302,27.0848 159.469,27.7515 160.5,28.5C 158.55,30.4654 156.216,31.7987 153.5,32.5C 153.66,34.1992 153.494,35.8659 153,37.5C 149.828,38.9971 147.995,37.9971 147.5,34.5C 145.784,34.3713 144.117,34.038 142.5,33.5C 143.167,28.8333 143.833,24.1667 144.5,19.5C 144.5,19.1667 144.5,18.8333 144.5,18.5C 144.5,17.8333 144.5,17.1667 144.5,16.5C 144.5,15.5 144.5,14.5 144.5,13.5C 145.29,12.3915 145.79,11.0581 146,9.5C 146.498,12.4816 146.665,15.4816 146.5,18.5 Z"/></g>
<g><path style="opacity:1" fill="#89a8a0" d="M -0.5,33.5 C 2.83333,33.5 6.16667,33.5 9.5,33.5C 6.4557,35.0114 3.12237,35.678 -0.5,35.5C -0.5,34.8333 -0.5,34.1667 -0.5,33.5 Z"/></g>
<g><path style="opacity:1" fill="#b3d4d4" d="M 40.5,30.5 C 42.8333,30.5 45.1667,30.5 47.5,30.5C 47.7035,32.3904 47.0368,33.8904 45.5,35C 41.6437,35.1773 37.977,35.6773 34.5,36.5C 32.0462,37.2271 29.7128,38.2271 27.5,39.5C 25.8828,40.038 24.2161,40.3713 22.5,40.5C 22.7822,39.2223 23.4489,38.2223 24.5,37.5C 29.4627,34.3983 34.7961,32.065 40.5,30.5 Z"/></g>
<g><path style="opacity:1" fill="#213437" d="M 101.5,31.5 C 101.989,32.9952 102.655,34.3285 103.5,35.5C 103.5,36.1667 103.5,36.8333 103.5,37.5C 104.035,40.2385 103.035,42.0718 100.5,43C 96.5138,43.4988 92.5138,43.6655 88.5,43.5C 88.1796,40.1016 88.513,36.7683 89.5,33.5C 92.1846,32.8749 94.6846,31.8749 97,30.5C 98.4397,31.1476 99.9397,31.4809 101.5,31.5 Z"/></g>
<g><path style="opacity:1" fill="#191b0a" d="M 57.5,37.5 C 56.5,42.1667 55.5,46.8333 54.5,51.5C 53.2766,59.493 53.2766,67.493 54.5,75.5C 52.9081,74.3984 52.0748,75.065 52,77.5C 49.1724,76.0043 47.5057,73.671 47,70.5C 46.6174,71.056 46.1174,71.3893 45.5,71.5C 44.4035,65.1355 44.4035,58.8022 45.5,52.5C 46.1174,52.3893 46.6174,52.056 47,51.5C 47.9572,47.0443 49.2905,42.7109 51,38.5C 51.3333,39.5 51.6667,40.5 52,41.5C 53.3198,39.1829 54.9864,37.1829 57,35.5C 57.4643,36.0944 57.631,36.7611 57.5,37.5 Z"/></g>
<g><path style="opacity:1" fill="#287152" d="M 9.5,33.5 C 10.8333,33.5 12.1667,33.5 13.5,33.5C 14.2389,33.369 14.9056,33.5357 15.5,34C 13.7774,37.8079 10.7774,39.4746 6.5,39C 4.93356,39.6082 3.60023,40.4415 2.5,41.5C 1.39105,41.5569 0.391047,41.8902 -0.5,42.5C -0.5,40.1667 -0.5,37.8333 -0.5,35.5C 3.12237,35.678 6.4557,35.0114 9.5,33.5 Z"/></g>
<g><path style="opacity:1" fill="#283d12" d="M 195.5,17.5 C 196.491,19.4823 197.491,21.4823 198.5,23.5C 200.809,22.3492 202.976,21.0159 205,19.5C 208.094,21.6294 211.261,23.6294 214.5,25.5C 214.833,26.1667 215.167,26.8333 215.5,27.5C 218.395,32.4087 221.729,37.0753 225.5,41.5C 226.482,39.0891 227.149,36.5891 227.5,34C 222.546,26.7482 224.546,23.2482 233.5,23.5C 234.609,23.5569 235.609,23.8902 236.5,24.5C 237.671,25.3446 239.005,26.0113 240.5,26.5C 241.242,28.4258 242.242,30.2591 243.5,32C 247.217,32.0433 250.884,31.5433 254.5,30.5C 254.833,30.5 255.167,30.5 255.5,30.5C 255.5,35.1667 255.5,39.8333 255.5,44.5C 252.715,43.6945 249.881,43.0278 247,42.5C 244.058,43.9949 241.391,43.6615 239,41.5C 237.401,43.056 235.901,44.7227 234.5,46.5C 233.833,45.8333 233.167,45.1667 232.5,44.5C 230.271,45.5771 227.937,46.2437 225.5,46.5C 225.5,47.8333 225.5,49.1667 225.5,50.5C 221.085,49.7351 217.085,48.0684 213.5,45.5C 212.081,46.0047 211.415,47.0047 211.5,48.5C 210.198,47.1931 208.865,47.1931 207.5,48.5C 206.795,50.6721 205.795,52.6721 204.5,54.5C 203.455,49.3116 201.955,44.3116 200,39.5C 199.536,40.0944 199.369,40.7611 199.5,41.5C 199.167,41.5 198.833,41.5 198.5,41.5C 198.5,40.8333 198.167,40.5 197.5,40.5C 197.139,33.9129 195.639,27.5795 193,21.5C 191.694,18.3793 189.86,15.7126 187.5,13.5C 187.511,11.3141 188.511,10.4808 190.5,11C 192.704,12.7645 194.371,14.9312 195.5,17.5 Z"/></g>
<g><path style="opacity:1" fill="#162b2a" d="M 73.5,30.5 C 74.3764,30.3691 75.0431,30.7025 75.5,31.5C 74.5102,35.1051 73.8436,38.7717 73.5,42.5C 73.7198,50.0347 73.7198,57.3681 73.5,64.5C 72.1667,64.5 70.8333,64.5 69.5,64.5C 69.6646,61.4816 69.498,58.4816 69,55.5C 66.3846,50.5291 64.8846,45.1958 64.5,39.5C 63.5159,42.4281 63.1826,45.4281 63.5,48.5C 60.6448,49.8336 58.1448,51.8336 56,54.5C 55.7679,53.2625 55.2679,52.2625 54.5,51.5C 55.5,46.8333 56.5,42.1667 57.5,37.5C 58.5,35.5 59.5,33.5 60.5,31.5C 60.5,32.8333 60.5,34.1667 60.5,35.5C 62.3797,35.7709 63.713,35.1042 64.5,33.5C 65.8333,33.1667 67.1667,32.8333 68.5,32.5C 70.099,32.7678 71.4324,32.4345 72.5,31.5C 72.5,30.8333 72.8333,30.5 73.5,30.5 Z"/></g>
<g><path style="opacity:1" fill="#1f3134" d="M 80.5,16.5 C 82.9745,19.2509 83.9745,22.5842 83.5,26.5C 83.5,27.8333 83.5,29.1667 83.5,30.5C 86.488,30.1547 87.8213,31.488 87.5,34.5C 86.8219,39.8142 86.3219,45.1475 86,50.5C 85.0754,51.0465 84.2421,51.7132 83.5,52.5C 84.4066,55.4212 84.7399,58.4212 84.5,61.5C 79.4928,61.7903 77.4928,59.6236 78.5,55C 74.9337,46.4138 74.6004,37.5805 77.5,28.5C 77.5172,26.4352 77.8505,24.4352 78.5,22.5C 78.595,20.2143 79.2616,18.2143 80.5,16.5 Z"/></g>
<g><path style="opacity:1" fill="#656631" d="M 132.5,45.5 C 133.167,45.5 133.833,45.5 134.5,45.5C 133.883,47.2292 132.883,48.7292 131.5,50C 129.324,50.1629 127.491,50.9963 126,52.5C 124.71,62.6975 120.876,71.8641 114.5,80C 113.517,80.5908 112.85,80.2575 112.5,79C 115.515,74.3072 118.348,69.4738 121,64.5C 122.772,60.687 123.605,56.687 123.5,52.5C 129.503,48.0606 128.669,45.7273 121,45.5C 120.349,43.765 120.515,42.0983 121.5,40.5C 120.277,39.3861 118.944,39.2195 117.5,40C 116.335,41.0836 115.002,41.9169 113.5,42.5C 112.614,43.325 112.281,44.325 112.5,45.5C 110.5,45.5 108.5,45.5 106.5,45.5C 106.5,47.8333 106.5,50.1667 106.5,52.5C 105.596,51.791 105.263,50.791 105.5,49.5C 105.802,45.2095 105.136,41.2095 103.5,37.5C 103.5,36.8333 103.5,36.1667 103.5,35.5C 103.351,34.448 103.517,33.448 104,32.5C 103.815,36.1634 105.482,38.1634 109,38.5C 113.453,37.0246 117.953,35.6913 122.5,34.5C 121.668,29.4399 123.668,26.7733 128.5,26.5C 128.799,28.604 128.466,30.604 127.5,32.5C 120.848,37.3293 121.014,37.9959 128,34.5C 128.333,37.1667 128.667,39.8333 129,42.5C 129.72,44.0557 130.887,45.0557 132.5,45.5 Z"/></g>
<g><path style="opacity:1" fill="#f1f9ef" d="M 8.5,42.5 C 5.31905,44.5917 2.31905,46.925 -0.5,49.5C -0.5,47.1667 -0.5,44.8333 -0.5,42.5C 0.391047,41.8902 1.39105,41.5569 2.5,41.5C 5.1569,41.838 7.49024,41.1713 9.5,39.5C 9.83333,39.6667 10.1667,39.8333 10.5,40C 9.61947,40.7083 8.9528,41.5416 8.5,42.5 Z"/></g>
<g><path style="opacity:1" fill="#9ac2a0" d="M 18.5,29.5 C 19.1667,29.5 19.8333,29.5 20.5,29.5C 19.9717,30.7206 19.305,31.8873 18.5,33C 19,33.1667 19.5,33.3333 20,33.5C 22.2201,31.8069 24.7201,30.8069 27.5,30.5C 25.9005,31.6819 25.5672,33.0153 26.5,34.5C 25.5,35.3333 24.5,36.1667 23.5,37C 23.7284,37.3988 24.0618,37.5654 24.5,37.5C 23.4489,38.2223 22.7822,39.2223 22.5,40.5C 21.8501,40.1961 21.1835,39.8627 20.5,39.5C 18.3446,41.9895 15.678,43.6561 12.5,44.5C 11.4763,43.1468 10.143,42.4802 8.5,42.5C 8.9528,41.5416 9.61947,40.7083 10.5,40C 10.1667,39.8333 9.83333,39.6667 9.5,39.5C 7.49024,41.1713 5.1569,41.838 2.5,41.5C 3.60023,40.4415 4.93356,39.6082 6.5,39C 10.7774,39.4746 13.7774,37.8079 15.5,34C 14.9056,33.5357 14.2389,33.369 13.5,33.5C 14.6085,32.71 15.9419,32.21 17.5,32C 18.2524,31.3292 18.5858,30.4959 18.5,29.5 Z"/></g>
<g><path style="opacity:1" fill="#141508" d="M 198.5,41.5 C 198.833,41.5 199.167,41.5 199.5,41.5C 200.414,56.142 200.747,70.8086 200.5,85.5C 200.567,86.9587 200.234,88.2921 199.5,89.5C 196.522,107.371 193.522,125.371 190.5,143.5C 185.167,143.5 179.833,143.5 174.5,143.5C 174.334,139.486 174.501,135.486 175,131.5C 175.333,132.167 175.667,132.833 176,133.5C 178.132,121.506 180.132,109.506 182,97.5C 182.344,105.05 181.844,112.55 180.5,120C 180.833,120.5 181.167,121 181.5,121.5C 182.321,118.553 182.821,115.553 183,112.5C 183.333,116.5 183.667,120.5 184,124.5C 184.791,123.255 185.291,121.922 185.5,120.5C 188.198,109.317 190.365,97.9833 192,86.5C 192.667,74.1667 192.667,61.8333 192,49.5C 190.731,48.0953 190.231,46.4286 190.5,44.5C 193.3,45.9032 194.8,44.9032 195,41.5C 195.833,42.5 196.667,43.5 197.5,44.5C 198.386,43.675 198.719,42.675 198.5,41.5 Z"/></g>
<g><path style="opacity:1" fill="#273e09" d="M 255.5,44.5 C 255.5,47.1667 255.5,49.8333 255.5,52.5C 252.482,52.3354 249.482,52.502 246.5,53C 245.842,54.9045 244.675,56.4045 243,57.5C 242.364,65.4234 240.03,72.7567 236,79.5C 235.46,75.6487 235.626,71.8153 236.5,68C 235.987,64.3126 234.654,60.9792 232.5,58C 232.957,57.586 233.291,57.086 233.5,56.5C 228.572,51.4661 224.238,52.1327 220.5,58.5C 219.522,58.0233 218.689,57.3567 218,56.5C 218.046,54.6874 217.88,53.0207 217.5,51.5C 215.447,50.4734 213.447,49.4734 211.5,48.5C 211.415,47.0047 212.081,46.0047 213.5,45.5C 217.085,48.0684 221.085,49.7351 225.5,50.5C 225.5,49.1667 225.5,47.8333 225.5,46.5C 227.937,46.2437 230.271,45.5771 232.5,44.5C 233.167,45.1667 233.833,45.8333 234.5,46.5C 235.901,44.7227 237.401,43.056 239,41.5C 241.391,43.6615 244.058,43.9949 247,42.5C 249.881,43.0278 252.715,43.6945 255.5,44.5 Z"/></g>
<g><path style="opacity:1" fill="#195042" d="M 34.5,36.5 C 38.1785,36.0604 41.5118,36.727 44.5,38.5C 44.6104,41.0588 43.9438,43.3921 42.5,45.5C 41.8333,45.1667 41.1667,44.8333 40.5,44.5C 38.1019,47.1993 35.1019,48.5326 31.5,48.5C 30.5041,48.5858 29.6708,48.2524 29,47.5C 26.5255,48.9858 24.0255,50.3192 21.5,51.5C 19.139,51.6741 16.8056,52.0074 14.5,52.5C 14.3893,51.8826 14.056,51.3826 13.5,51C 14.8333,50.3333 16.1667,49.6667 17.5,49C 16.2625,48.7679 15.2625,48.2679 14.5,47.5C 18.1952,46.1548 21.8619,44.6548 25.5,43C 26.305,41.8873 26.9717,40.7206 27.5,39.5C 29.7128,38.2271 32.0462,37.2271 34.5,36.5 Z"/></g>
<g><path style="opacity:1" fill="#2d4e49" d="M 83.5,26.5 C 85.7281,27.7133 87.7281,29.38 89.5,31.5C 91.494,27.1759 94.8273,25.5092 99.5,26.5C 99.2465,28.4008 99.5798,29.0674 100.5,28.5C 101.404,29.209 101.737,30.209 101.5,31.5C 99.9397,31.4809 98.4397,31.1476 97,30.5C 94.6846,31.8749 92.1846,32.8749 89.5,33.5C 88.513,36.7683 88.1796,40.1016 88.5,43.5C 92.5138,43.6655 96.5138,43.4988 100.5,43C 103.035,42.0718 104.035,40.2385 103.5,37.5C 105.136,41.2095 105.802,45.2095 105.5,49.5C 101.259,46.7459 96.592,45.9126 91.5,47C 89.8446,48.4443 89.178,50.2776 89.5,52.5C 89.5,52.8333 89.5,53.1667 89.5,53.5C 88.5515,54.9228 87.5515,56.4228 86.5,58C 87.3479,59.6664 88.3479,61.1664 89.5,62.5C 89.5394,63.5832 89.8728,64.5832 90.5,65.5C 89.1468,66.5237 88.4802,67.857 88.5,69.5C 87.5,69.5 86.5,69.5 85.5,69.5C 81.7008,68.2251 78.5341,65.8917 76,62.5C 75.3131,60.4325 75.4798,58.4325 76.5,56.5C 75.2089,51.7656 74.2089,47.0989 73.5,42.5C 73.8436,38.7717 74.5102,35.1051 75.5,31.5C 75.0431,30.7025 74.3764,30.3691 73.5,30.5C 74.6715,29.6554 76.0048,28.9887 77.5,28.5C 74.6004,37.5805 74.9337,46.4138 78.5,55C 77.4928,59.6236 79.4928,61.7903 84.5,61.5C 84.7399,58.4212 84.4066,55.4212 83.5,52.5C 84.2421,51.7132 85.0754,51.0465 86,50.5C 86.3219,45.1475 86.8219,39.8142 87.5,34.5C 87.8213,31.488 86.488,30.1547 83.5,30.5C 83.5,29.1667 83.5,27.8333 83.5,26.5 Z"/></g>
<g><path style="opacity:1" fill="#49875e" d="M 22.5,40.5 C 24.2161,40.3713 25.8828,40.038 27.5,39.5C 26.9717,40.7206 26.305,41.8873 25.5,43C 21.8619,44.6548 18.1952,46.1548 14.5,47.5C 9.29031,48.5699 4.29031,50.2366 -0.5,52.5C -0.5,51.5 -0.5,50.5 -0.5,49.5C 2.31905,46.925 5.31905,44.5917 8.5,42.5C 10.143,42.4802 11.4763,43.1468 12.5,44.5C 15.678,43.6561 18.3446,41.9895 20.5,39.5C 21.1835,39.8627 21.8501,40.1961 22.5,40.5 Z"/></g>
<g><path style="opacity:1" fill="#726e29" d="M 123.5,52.5 C 120.383,52.8723 117.383,52.8723 114.5,52.5C 112.829,50.4902 112.162,48.1569 112.5,45.5C 112.281,44.325 112.614,43.325 113.5,42.5C 115.002,41.9169 116.335,41.0836 117.5,40C 118.944,39.2195 120.277,39.3861 121.5,40.5C 120.515,42.0983 120.349,43.765 121,45.5C 128.669,45.7273 129.503,48.0606 123.5,52.5 Z"/></g>
<g><path style="opacity:1" fill="#17211f" d="M 179.5,20.5 C 185.671,31.1869 187.004,42.5203 183.5,54.5C 181.775,51.3755 180.275,48.0421 179,44.5C 178.311,43.6433 177.478,42.9767 176.5,42.5C 175.806,48.9385 175.473,55.6052 175.5,62.5C 174.5,62.5 173.5,62.5 172.5,62.5C 173.509,54.7686 173.509,47.1019 172.5,39.5C 171.661,36.1651 171.161,32.8318 171,29.5C 171.977,30.7736 172.811,30.7736 173.5,29.5C 173.833,29.5 174.167,29.5 174.5,29.5C 175.552,29.3505 176.552,29.5172 177.5,30C 176.66,31.6665 177.16,31.8331 179,30.5C 179.144,26.9574 179.311,23.624 179.5,20.5 Z"/></g>
<g><path style="opacity:1" fill="#344b14" d="M 158.5,2.5 C 164.193,4.1792 169.526,6.6792 174.5,10C 183.495,19.8222 188.828,31.3222 190.5,44.5C 190.231,46.4286 190.731,48.0953 192,49.5C 192.667,61.8333 192.667,74.1667 192,86.5C 190.365,97.9833 188.198,109.317 185.5,120.5C 184.579,109.169 184.579,97.6688 185.5,86C 185.266,75.4645 184.6,64.9645 183.5,54.5C 187.004,42.5203 185.671,31.1869 179.5,20.5C 178.972,19.2794 178.305,18.1127 177.5,17C 174.861,14.5173 171.861,12.684 168.5,11.5C 167.833,11.5 167.167,11.5 166.5,11.5C 164.862,10.1678 163.196,8.83448 161.5,7.5C 160.925,5.5887 159.925,3.92203 158.5,2.5 Z"/></g>
<g><path style="opacity:1" fill="#579e7a" d="M 101.5,53.5 C 97.9009,52.6561 94.2343,52.3227 90.5,52.5C 93.8392,48.2173 97.8392,47.5506 102.5,50.5C 100.565,51.213 100.232,52.213 101.5,53.5 Z"/></g>
<g><path style="opacity:1" fill="#1a2831" d="M 69.5,64.5 C 67.4166,65.0289 65.5833,66.0289 64,67.5C 63.3092,71.0213 63.8092,74.3546 65.5,77.5C 63.1432,77.3367 60.8098,77.5034 58.5,78C 56.8807,78.2355 55.8807,79.0689 55.5,80.5C 54.5489,79.0813 54.2155,77.4147 54.5,75.5C 53.2766,67.493 53.2766,59.493 54.5,51.5C 55.2679,52.2625 55.7679,53.2625 56,54.5C 58.1448,51.8336 60.6448,49.8336 63.5,48.5C 63.1826,45.4281 63.5159,42.4281 64.5,39.5C 64.8846,45.1958 66.3846,50.5291 69,55.5C 69.498,58.4816 69.6646,61.4816 69.5,64.5 Z"/></g>
<g><path style="opacity:1" fill="#2a473b" d="M 142.5,36.5 C 142.183,39.5719 142.516,42.5719 143.5,45.5C 147.555,41.3541 152.055,40.3541 157,42.5C 157.219,41.062 157.719,39.7287 158.5,38.5C 159.886,41.446 161.386,44.446 163,47.5C 163.667,46.8333 164.333,46.1667 165,45.5C 165.065,47.8833 165.898,48.55 167.5,47.5C 168.626,48.8084 168.626,50.1417 167.5,51.5C 166.91,52.766 166.41,54.0993 166,55.5C 165,53.1667 164,50.8333 163,48.5C 161.259,49.7577 159.426,50.7577 157.5,51.5C 157.5,49.8333 157.5,48.1667 157.5,46.5C 151.943,46.1534 146.61,46.8201 141.5,48.5C 141.5,46.5 141.5,44.5 141.5,42.5C 141.205,40.2646 141.539,38.2646 142.5,36.5 Z"/></g>
<g><path style="opacity:1" fill="#122a2a" d="M 50.5,32.5 C 48.1966,38.3867 46.5299,44.3867 45.5,50.5C 45.631,49.7611 45.4643,49.0944 45,48.5C 44,49.5 43,50.5 42,51.5C 41.6667,50.8333 41.3333,50.1667 41,49.5C 40.1184,52.7895 39.4517,56.1228 39,59.5C 38.6667,59.1667 38.3333,58.8333 38,58.5C 37,60.1667 36,61.8333 35,63.5C 34.6667,62.8333 34.3333,62.1667 34,61.5C 33.5814,62.6721 32.9147,63.6721 32,64.5C 30.9292,60.9589 29.2626,60.2922 27,62.5C 25.657,68.4508 27.8237,71.7841 33.5,72.5C 28.1345,72.9564 22.8012,73.623 17.5,74.5C 13.9007,74.7381 13.5673,73.7381 16.5,71.5C 16.2907,70.914 15.9574,70.414 15.5,70C 17.0456,68.5604 17.879,66.7271 18,64.5C 20.4433,63.4067 22.9433,62.4067 25.5,61.5C 26.3184,58.8929 26.8184,56.2263 27,53.5C 27.7404,51.0297 29.2404,49.363 31.5,48.5C 35.1019,48.5326 38.1019,47.1993 40.5,44.5C 41.1667,44.8333 41.8333,45.1667 42.5,45.5C 43.9438,43.3921 44.6104,41.0588 44.5,38.5C 46.1394,36.1939 48.1394,34.1939 50.5,32.5 Z"/></g>
<g><path style="opacity:1" fill="#dbe7be" d="M 157.5,51.5 C 157.5,52.1667 157.5,52.8333 157.5,53.5C 152.874,55.5898 148.207,56.2565 143.5,55.5C 147.79,53.1102 152.457,51.7769 157.5,51.5 Z"/></g>
<g><path style="opacity:1" fill="#2d4607" d="M 211.5,48.5 C 213.447,49.4734 215.447,50.4734 217.5,51.5C 217.88,53.0207 218.046,54.6874 218,56.5C 218.689,57.3567 219.522,58.0233 220.5,58.5C 224.238,52.1327 228.572,51.4661 233.5,56.5C 233.291,57.086 232.957,57.586 232.5,58C 234.654,60.9792 235.987,64.3126 236.5,68C 235.626,71.8153 235.46,75.6487 236,79.5C 240.03,72.7567 242.364,65.4234 243,57.5C 244.675,56.4045 245.842,54.9045 246.5,53C 249.482,52.502 252.482,52.3354 255.5,52.5C 255.5,62.1667 255.5,71.8333 255.5,81.5C 253.986,80.3199 252.319,79.3199 250.5,78.5C 251.711,77.2798 251.711,76.1131 250.5,75C 255.649,73.1404 255.816,70.9737 251,68.5C 249.812,69.5634 249.312,70.8967 249.5,72.5C 248.448,72.6495 247.448,72.4828 246.5,72C 245.845,70.5134 244.845,69.3467 243.5,68.5C 242.503,75.8032 242.169,83.1365 242.5,90.5C 242.425,93.2062 242.092,95.8728 241.5,98.5C 240.833,98.5 240.5,98.8333 240.5,99.5C 239.642,93.9834 238.809,88.3168 238,82.5C 237.027,84.3921 236.36,86.3921 236,88.5C 235,88.5 234,88.5 233,88.5C 232.751,91.1768 231.751,93.5101 230,95.5C 229.699,92.4929 229.865,89.4929 230.5,86.5C 232.828,85.2644 233.994,83.2644 234,80.5C 234.667,75.1667 234.667,69.8333 234,64.5C 231.876,61.6753 229.376,59.1753 226.5,57C 230.353,56.3376 230.353,55.5043 226.5,54.5C 225.833,54.8333 225.167,55.1667 224.5,55.5C 222.952,58.8233 221.619,62.1566 220.5,65.5C 218.833,65.5 217.167,65.5 215.5,65.5C 216.607,59.4857 214.274,56.3191 208.5,56C 204.556,57.9652 203.556,60.9652 205.5,65C 203.524,71.7602 201.858,78.5936 200.5,85.5C 200.747,70.8086 200.414,56.142 199.5,41.5C 199.369,40.7611 199.536,40.0944 200,39.5C 201.955,44.3116 203.455,49.3116 204.5,54.5C 205.795,52.6721 206.795,50.6721 207.5,48.5C 208.865,47.1931 210.198,47.1931 211.5,48.5 Z"/></g>
<g><path style="opacity:1" fill="#ebf2d7" d="M 89.5,52.5 C 89.8333,52.5 90.1667,52.5 90.5,52.5C 94.2343,52.3227 97.9009,52.6561 101.5,53.5C 102.906,53.9731 103.573,54.9731 103.5,56.5C 103.423,57.7498 102.756,58.5831 101.5,59C 95.5883,60.9608 91.5883,59.1274 89.5,53.5C 89.5,53.1667 89.5,52.8333 89.5,52.5 Z"/></g>
<g><path style="opacity:1" fill="#3c654e" d="M 141.5,42.5 C 141.5,44.5 141.5,46.5 141.5,48.5C 146.61,46.8201 151.943,46.1534 157.5,46.5C 157.5,48.1667 157.5,49.8333 157.5,51.5C 152.457,51.7769 147.79,53.1102 143.5,55.5C 142.957,55.56 142.624,55.8933 142.5,56.5C 144.045,57.4519 145.712,57.7852 147.5,57.5C 147.5,58.5 147.5,59.5 147.5,60.5C 145.602,59.9035 143.935,59.9035 142.5,60.5C 141.833,60.5 141.167,60.5 140.5,60.5C 140.5,54.8333 140.5,49.1667 140.5,43.5C 140.5,42.8333 140.833,42.5 141.5,42.5 Z"/></g>
<g><path style="opacity:1" fill="#173f27" d="M 21.5,51.5 C 19.0722,53.6141 17.4056,56.2808 16.5,59.5C 10.5432,62.18 5.87654,66.18 2.5,71.5C 0.973503,70.5081 0.306836,69.0081 0.5,67C 0.748311,65.2841 1.41498,63.7841 2.5,62.5C 2.29069,61.914 1.95735,61.414 1.5,61C 6.22636,58.6137 10.5597,55.7804 14.5,52.5C 16.8056,52.0074 19.139,51.6741 21.5,51.5 Z"/></g>
<g><path style="opacity:1" fill="#13252a" d="M 45.5,50.5 C 45.5,51.1667 45.5,51.8333 45.5,52.5C 44.4035,58.8022 44.4035,65.1355 45.5,71.5C 44.8902,72.391 44.5569,73.391 44.5,74.5C 43.8501,74.8039 43.1835,75.1373 42.5,75.5C 40.0798,72.9228 37.0798,71.9228 33.5,72.5C 27.8237,71.7841 25.657,68.4508 27,62.5C 29.2626,60.2922 30.9292,60.9589 32,64.5C 32.9147,63.6721 33.5814,62.6721 34,61.5C 34.3333,62.1667 34.6667,62.8333 35,63.5C 36,61.8333 37,60.1667 38,58.5C 38.3333,58.8333 38.6667,59.1667 39,59.5C 39.4517,56.1228 40.1184,52.7895 41,49.5C 41.3333,50.1667 41.6667,50.8333 42,51.5C 43,50.5 44,49.5 45,48.5C 45.4643,49.0944 45.631,49.7611 45.5,50.5 Z"/></g>
<g><path style="opacity:1" fill="#3f696a" d="M 73.5,42.5 C 74.2089,47.0989 75.2089,51.7656 76.5,56.5C 75.4798,58.4325 75.3131,60.4325 76,62.5C 78.5341,65.8917 81.7008,68.2251 85.5,69.5C 85.1788,71.0481 84.1788,71.7148 82.5,71.5C 80.2459,70.5849 78.2459,69.2516 76.5,67.5C 75.5,66.5 74.5,65.5 73.5,64.5C 73.7198,57.3681 73.7198,50.0347 73.5,42.5 Z"/></g>
<g><path style="opacity:1" fill="#497b62" d="M 105.5,49.5 C 105.263,50.791 105.596,51.791 106.5,52.5C 107.057,60.1771 107.724,67.8438 108.5,75.5C 107.983,73.4905 107.316,72.1571 106.5,71.5C 105.265,71.7214 104.265,72.3881 103.5,73.5C 103.167,72.8333 102.833,72.1667 102.5,71.5C 103.648,69.3728 104.648,67.2061 105.5,65C 103.527,64.5045 101.527,64.3379 99.5,64.5C 101.369,63.8354 103.369,63.1687 105.5,62.5C 104.95,60.3432 104.283,58.3432 103.5,56.5C 103.573,54.9731 102.906,53.9731 101.5,53.5C 100.232,52.213 100.565,51.213 102.5,50.5C 97.8392,47.5506 93.8392,48.2173 90.5,52.5C 90.1667,52.5 89.8333,52.5 89.5,52.5C 89.178,50.2776 89.8446,48.4443 91.5,47C 96.592,45.9126 101.259,46.7459 105.5,49.5 Z"/></g>
<g><path style="opacity:1" fill="#457c4f" d="M 157.5,53.5 C 157.905,54.5498 158.571,54.5498 159.5,53.5C 160.491,56.2441 160.157,58.9107 158.5,61.5C 155.158,62.8653 151.825,63.8653 148.5,64.5C 146.5,64.5 144.5,64.5 142.5,64.5C 141.646,63.3684 141.646,62.035 142.5,60.5C 143.935,59.9035 145.602,59.9035 147.5,60.5C 147.5,59.5 147.5,58.5 147.5,57.5C 145.712,57.7852 144.045,57.4519 142.5,56.5C 142.624,55.8933 142.957,55.56 143.5,55.5C 148.207,56.2565 152.874,55.5898 157.5,53.5 Z"/></g>
<g><path style="opacity:1" fill="#215531" d="M 14.5,47.5 C 15.2625,48.2679 16.2625,48.7679 17.5,49C 16.1667,49.6667 14.8333,50.3333 13.5,51C 14.056,51.3826 14.3893,51.8826 14.5,52.5C 10.5597,55.7804 6.22636,58.6137 1.5,61C 1.95735,61.414 2.29069,61.914 2.5,62.5C 1.41498,63.7841 0.748311,65.2841 0.5,67C 0.306836,69.0081 0.973503,70.5081 2.5,71.5C 2.27858,72.7348 1.61191,73.7348 0.5,74.5C 0.862734,75.1835 1.19607,75.8501 1.5,76.5C 1.15829,77.3382 0.491622,77.6716 -0.5,77.5C -0.5,69.1667 -0.5,60.8333 -0.5,52.5C 4.29031,50.2366 9.29031,48.5699 14.5,47.5 Z"/></g>
<g><path style="opacity:1" fill="#3b5d4c" d="M 170.5,39.5 C 171.167,39.5 171.833,39.5 172.5,39.5C 173.509,47.1019 173.509,54.7686 172.5,62.5C 173.5,62.5 174.5,62.5 175.5,62.5C 176.167,62.5 176.5,62.8333 176.5,63.5C 174.708,63.366 173.042,63.6993 171.5,64.5C 170.5,64.8333 169.833,65.5 169.5,66.5C 169.167,67.1667 168.833,67.8333 168.5,68.5C 167.193,69.1534 165.86,69.8201 164.5,70.5C 159.967,66.367 154.634,64.367 148.5,64.5C 151.825,63.8653 155.158,62.8653 158.5,61.5C 160.157,58.9107 160.491,56.2441 159.5,53.5C 158.571,54.5498 157.905,54.5498 157.5,53.5C 157.5,52.8333 157.5,52.1667 157.5,51.5C 159.426,50.7577 161.259,49.7577 163,48.5C 164,50.8333 165,53.1667 166,55.5C 166.41,54.0993 166.91,52.766 167.5,51.5C 168.693,51.0296 169.36,50.0296 169.5,48.5C 170.162,45.5318 170.495,42.5318 170.5,39.5 Z"/></g>
<g><path style="opacity:1" fill="#559b65" d="M 89.5,53.5 C 91.5883,59.1274 95.5883,60.9608 101.5,59C 102.756,58.5831 103.423,57.7498 103.5,56.5C 104.283,58.3432 104.95,60.3432 105.5,62.5C 103.369,63.1687 101.369,63.8354 99.5,64.5C 95.838,64.9661 92.5046,64.2994 89.5,62.5C 88.3479,61.1664 87.3479,59.6664 86.5,58C 87.5515,56.4228 88.5515,54.9228 89.5,53.5 Z"/></g>
<g><path style="opacity:1" fill="#345107" d="M 230.5,86.5 C 231.522,82.076 231.022,77.7427 229,73.5C 227.708,75.2487 226.542,77.082 225.5,79C 223.444,79.3108 221.444,79.8108 219.5,80.5C 218.808,79.9747 218.308,79.3081 218,78.5C 217.667,78.8333 217.333,79.1667 217,79.5C 216.667,78.5 216.333,77.5 216,76.5C 212.477,78.8417 208.643,80.5084 204.5,81.5C 203.548,83.0453 203.215,84.712 203.5,86.5C 202.596,87.209 202.263,88.209 202.5,89.5C 201.5,89.5 200.5,89.5 199.5,89.5C 200.234,88.2921 200.567,86.9587 200.5,85.5C 201.858,78.5936 203.524,71.7602 205.5,65C 203.556,60.9652 204.556,57.9652 208.5,56C 214.274,56.3191 216.607,59.4857 215.5,65.5C 217.167,65.5 218.833,65.5 220.5,65.5C 221.619,62.1566 222.952,58.8233 224.5,55.5C 225.167,55.1667 225.833,54.8333 226.5,54.5C 230.353,55.5043 230.353,56.3376 226.5,57C 229.376,59.1753 231.876,61.6753 234,64.5C 234.667,69.8333 234.667,75.1667 234,80.5C 233.994,83.2644 232.828,85.2644 230.5,86.5 Z"/></g>
<g><path style="opacity:1" fill="#365c45" d="M 89.5,62.5 C 92.5046,64.2994 95.838,64.9661 99.5,64.5C 101.527,64.3379 103.527,64.5045 105.5,65C 104.648,67.2061 103.648,69.3728 102.5,71.5C 102.833,72.1667 103.167,72.8333 103.5,73.5C 104.265,72.3881 105.265,71.7214 106.5,71.5C 106.445,75.3904 104.445,77.5571 100.5,78C 98.8771,81.054 98.2105,80.554 98.5,76.5C 99.038,74.8828 99.3713,73.2161 99.5,71.5C 94.1779,71.9801 88.8446,72.3135 83.5,72.5C 82.8333,72.5 82.5,72.1667 82.5,71.5C 84.1788,71.7148 85.1788,71.0481 85.5,69.5C 86.5,69.5 87.5,69.5 88.5,69.5C 88.4802,67.857 89.1468,66.5237 90.5,65.5C 89.8728,64.5832 89.5394,63.5832 89.5,62.5 Z"/></g>
<g><path style="opacity:1" fill="#46826b" d="M 140.5,60.5 C 141.167,60.5 141.833,60.5 142.5,60.5C 141.646,62.035 141.646,63.3684 142.5,64.5C 142.351,65.552 142.517,66.552 143,67.5C 145.758,69.7512 147.925,72.4179 149.5,75.5C 149.631,76.2389 149.464,76.9056 149,77.5C 145.699,75.0356 142.532,72.3689 139.5,69.5C 139.5,67.8333 139.5,66.1667 139.5,64.5C 139.833,63.1667 140.167,61.8333 140.5,60.5 Z"/></g>
<g><path style="opacity:1" fill="#86864a" d="M 140.5,43.5 C 140.5,49.1667 140.5,54.8333 140.5,60.5C 140.167,61.8333 139.833,63.1667 139.5,64.5C 136.428,65.3178 136.095,66.4845 138.5,68C 137.584,68.2784 136.918,68.7784 136.5,69.5C 133.944,70.5434 131.777,72.2101 130,74.5C 127.825,83.8531 121.992,89.5198 112.5,91.5C 111.329,90.6554 109.995,89.9887 108.5,89.5C 108.5,84.8333 108.5,80.1667 108.5,75.5C 107.724,67.8438 107.057,60.1771 106.5,52.5C 106.5,50.1667 106.5,47.8333 106.5,45.5C 108.5,45.5 110.5,45.5 112.5,45.5C 112.162,48.1569 112.829,50.4902 114.5,52.5C 117.383,52.8723 120.383,52.8723 123.5,52.5C 123.605,56.687 122.772,60.687 121,64.5C 118.348,69.4738 115.515,74.3072 112.5,79C 112.85,80.2575 113.517,80.5908 114.5,80C 120.876,71.8641 124.71,62.6975 126,52.5C 127.491,50.9963 129.324,50.1629 131.5,50C 132.883,48.7292 133.883,47.2292 134.5,45.5C 136.421,44.6373 138.421,43.9707 140.5,43.5 Z"/></g>
<g><path style="opacity:1" fill="#283d33" d="M 142.5,64.5 C 144.5,64.5 146.5,64.5 148.5,64.5C 154.634,64.367 159.967,66.367 164.5,70.5C 165.86,69.8201 167.193,69.1534 168.5,68.5C 167.64,70.2879 166.64,71.9545 165.5,73.5C 163.205,71.615 160.538,71.115 157.5,72C 155.5,73.3333 153.5,74.6667 151.5,76C 152.305,77.1127 152.972,78.2794 153.5,79.5C 152.833,79.5 152.5,79.8333 152.5,80.5C 152.167,80.5 151.833,80.5 151.5,80.5C 151.598,78.4471 150.931,76.7804 149.5,75.5C 147.925,72.4179 145.758,69.7512 143,67.5C 142.517,66.552 142.351,65.552 142.5,64.5 Z"/></g>
<g><path style="opacity:1" fill="#4d512a" d="M 171.5,64.5 C 172.382,66.3838 173.882,67.7171 176,68.5C 177.309,66.1088 178.309,66.1088 179,68.5C 179.333,68.1667 179.667,67.8333 180,67.5C 180.667,69.5 180.667,71.5 180,73.5C 178.062,74.8602 176.396,74.5268 175,72.5C 174.536,73.0944 174.369,73.7611 174.5,74.5C 173.417,74.4606 172.417,74.1272 171.5,73.5C 170.832,71.0312 170.165,68.6979 169.5,66.5C 169.833,65.5 170.5,64.8333 171.5,64.5 Z"/></g>
<g><path style="opacity:1" fill="#133225" d="M 31.5,48.5 C 29.2404,49.363 27.7404,51.0297 27,53.5C 26.8184,56.2263 26.3184,58.8929 25.5,61.5C 22.9433,62.4067 20.4433,63.4067 18,64.5C 17.879,66.7271 17.0456,68.5604 15.5,70C 15.9574,70.414 16.2907,70.914 16.5,71.5C 13.5673,73.7381 13.9007,74.7381 17.5,74.5C 15.8632,75.3796 14.0299,76.0463 12,76.5C 8.85423,74.6784 5.68756,73.0117 2.5,71.5C 5.87654,66.18 10.5432,62.18 16.5,59.5C 17.4056,56.2808 19.0722,53.6141 21.5,51.5C 24.0255,50.3192 26.5255,48.9858 29,47.5C 29.6708,48.2524 30.5041,48.5858 31.5,48.5 Z"/></g>
<g><path style="opacity:1" fill="#606c42" d="M 176.5,63.5 C 178.527,63.3379 180.527,63.5045 182.5,64C 183.022,64.5613 183.355,65.228 183.5,66C 182.839,68.464 182.339,70.964 182,73.5C 180.736,75.607 178.903,76.607 176.5,76.5C 175.5,76.1667 174.833,75.5 174.5,74.5C 174.369,73.7611 174.536,73.0944 175,72.5C 176.396,74.5268 178.062,74.8602 180,73.5C 180.667,71.5 180.667,69.5 180,67.5C 179.667,67.8333 179.333,68.1667 179,68.5C 178.309,66.1088 177.309,66.1088 176,68.5C 173.882,67.7171 172.382,66.3838 171.5,64.5C 173.042,63.6993 174.708,63.366 176.5,63.5 Z"/></g>
<g><path style="opacity:1" fill="#1c1e08" d="M 183.5,54.5 C 184.6,64.9645 185.266,75.4645 185.5,86C 184.579,97.6688 184.579,109.169 185.5,120.5C 185.291,121.922 184.791,123.255 184,124.5C 183.667,120.5 183.333,116.5 183,112.5C 182.821,115.553 182.321,118.553 181.5,121.5C 181.167,121 180.833,120.5 180.5,120C 181.844,112.55 182.344,105.05 182,97.5C 180.132,109.506 178.132,121.506 176,133.5C 175.667,132.833 175.333,132.167 175,131.5C 174.501,135.486 174.334,139.486 174.5,143.5C 174.167,143.5 173.833,143.5 173.5,143.5C 173.379,135.142 173.712,126.809 174.5,118.5C 175.286,112.862 175.952,107.195 176.5,101.5C 177.165,98.3509 177.498,95.0175 177.5,91.5C 177.486,87.7614 176.82,84.428 175.5,81.5C 176.301,79.9582 176.634,78.2915 176.5,76.5C 178.903,76.607 180.736,75.607 182,73.5C 182.339,70.964 182.839,68.464 183.5,66C 183.355,65.228 183.022,64.5613 182.5,64C 180.527,63.5045 178.527,63.3379 176.5,63.5C 176.5,62.8333 176.167,62.5 175.5,62.5C 175.473,55.6052 175.806,48.9385 176.5,42.5C 177.478,42.9767 178.311,43.6433 179,44.5C 180.275,48.0421 181.775,51.3755 183.5,54.5 Z"/></g>
<g><path style="opacity:1" fill="#b7ba92" d="M 139.5,64.5 C 139.5,66.1667 139.5,67.8333 139.5,69.5C 139.5,75.1667 139.5,80.8333 139.5,86.5C 136.208,86.1196 133.875,87.4529 132.5,90.5C 132.167,90.1667 131.833,89.8333 131.5,89.5C 132.861,87.9716 134.028,86.3049 135,84.5C 135.272,79.4512 135.772,74.4512 136.5,69.5C 136.918,68.7784 137.584,68.2784 138.5,68C 136.095,66.4845 136.428,65.3178 139.5,64.5 Z"/></g>
<g><path style="opacity:1" fill="#466c69" d="M 139.5,69.5 C 142.532,72.3689 145.699,75.0356 149,77.5C 149.464,76.9056 149.631,76.2389 149.5,75.5C 150.931,76.7804 151.598,78.4471 151.5,80.5C 150.883,80.3893 150.383,80.056 150,79.5C 147.613,81.1704 145.279,82.837 143,84.5C 142.798,82.7444 142.298,81.0777 141.5,79.5C 140.505,84.7921 140.172,90.1254 140.5,95.5C 143.482,95.0371 146.482,94.7038 149.5,94.5C 150.627,95.1217 151.627,95.955 152.5,97C 148.321,96.9358 144.655,98.1024 141.5,100.5C 140.833,100.167 140.167,99.8333 139.5,99.5C 139.5,95.1667 139.5,90.8333 139.5,86.5C 139.5,80.8333 139.5,75.1667 139.5,69.5 Z"/></g>
<g><path style="opacity:1" fill="#385703" d="M 230.5,86.5 C 229.865,89.4929 229.699,92.4929 230,95.5C 231.751,93.5101 232.751,91.1768 233,88.5C 234,88.5 235,88.5 236,88.5C 236.36,86.3921 237.027,84.3921 238,82.5C 238.809,88.3168 239.642,93.9834 240.5,99.5C 240.44,100.043 240.107,100.376 239.5,100.5C 238.852,96.3621 237.185,95.6955 234.5,98.5C 233.653,100.872 232.319,102.872 230.5,104.5C 229.749,103.624 229.249,102.624 229,101.5C 225.346,108.796 222.679,116.462 221,124.5C 219.748,126.001 218.748,127.668 218,129.5C 217.517,128.552 217.351,127.552 217.5,126.5C 218.492,123.177 219.492,119.844 220.5,116.5C 223.772,110.101 224.772,103.268 223.5,96C 226.048,91.4343 227.215,86.601 227,81.5C 226.25,82.1258 225.416,82.6258 224.5,83C 222.335,86.1475 220.168,89.3141 218,92.5C 217.228,91.1509 216.061,90.3176 214.5,90C 215,89.5 215.5,89 216,88.5C 217.011,89.3366 218.178,89.67 219.5,89.5C 219.815,87.7741 219.981,86.1075 220,84.5C 219.586,84.0426 219.086,83.7093 218.5,83.5C 216.793,87.1358 215.626,87.1358 215,83.5C 212.402,81.6407 209.568,81.6407 206.5,83.5C 205.712,84.7701 204.712,85.7701 203.5,86.5C 203.215,84.712 203.548,83.0453 204.5,81.5C 208.643,80.5084 212.477,78.8417 216,76.5C 216.333,77.5 216.667,78.5 217,79.5C 217.333,79.1667 217.667,78.8333 218,78.5C 218.308,79.3081 218.808,79.9747 219.5,80.5C 221.444,79.8108 223.444,79.3108 225.5,79C 226.542,77.082 227.708,75.2487 229,73.5C 231.022,77.7427 231.522,82.076 230.5,86.5 Z"/></g>
<g><path style="opacity:1" fill="#5d614c" d="M 69.5,64.5 C 70.8333,64.5 72.1667,64.5 73.5,64.5C 74.5,65.5 75.5,66.5 76.5,67.5C 76.3801,69.7345 76.7135,71.9011 77.5,74C 76.3551,75.4021 75.0217,76.5688 73.5,77.5C 72.0937,77.9731 71.427,78.9731 71.5,80.5C 70.8333,80.5 70.1667,80.5 69.5,80.5C 68.5637,79.0256 67.2303,78.0256 65.5,77.5C 63.8092,74.3546 63.3092,71.0213 64,67.5C 65.5833,66.0289 67.4166,65.0289 69.5,64.5 Z"/></g>
<g><path style="opacity:1" fill="#253934" d="M 98.5,76.5 C 96.351,81.9763 96.0177,87.643 97.5,93.5C 95.2036,92.267 93.8702,90.267 93.5,87.5C 95.2185,85.0738 95.7185,82.4071 95,79.5C 94.044,80.5786 93.2106,81.7453 92.5,83C 87.8759,83.6043 87.3759,82.4376 91,79.5C 91.49,78.2068 91.6567,76.8734 91.5,75.5C 88.1694,75.9819 85.5027,74.9819 83.5,72.5C 88.8446,72.3135 94.1779,71.9801 99.5,71.5C 99.3713,73.2161 99.038,74.8828 98.5,76.5 Z"/></g>
<g><path style="opacity:1" fill="#1f412c" d="M 2.5,71.5 C 5.68756,73.0117 8.85423,74.6784 12,76.5C 14.0299,76.0463 15.8632,75.3796 17.5,74.5C 22.8012,73.623 28.1345,72.9564 33.5,72.5C 37.0798,71.9228 40.0798,72.9228 42.5,75.5C 43.1835,75.1373 43.8501,74.8039 44.5,74.5C 45.5664,76.7014 46.233,79.0347 46.5,81.5C 46.4236,83.9229 47.4236,85.7562 49.5,87C 49.2568,87.9021 48.9234,88.7354 48.5,89.5C 46.8998,87.2974 45.5665,84.964 44.5,82.5C 44.5,82.1667 44.5,81.8333 44.5,81.5C 43.7261,80.8529 42.7261,80.5195 41.5,80.5C 34.9845,81.4545 28.4845,82.4545 22,83.5C 19.4667,82.0102 17.6334,82.6769 16.5,85.5C 14.1667,84 11.8333,82.5 9.5,81C 8.25057,80.2599 7.25057,80.4265 6.5,81.5C 5.76109,81.631 5.09442,81.4643 4.5,81C 4.08527,78.9737 3.08527,77.4737 1.5,76.5C 1.19607,75.8501 0.862734,75.1835 0.5,74.5C 1.61191,73.7348 2.27858,72.7348 2.5,71.5 Z"/></g>
<g><path style="opacity:1" fill="#101d1d" d="M 76.5,67.5 C 78.2459,69.2516 80.2459,70.5849 82.5,71.5C 82.5,72.1667 82.8333,72.5 83.5,72.5C 85.5027,74.9819 88.1694,75.9819 91.5,75.5C 91.6567,76.8734 91.49,78.2068 91,79.5C 87.3759,82.4376 87.8759,83.6043 92.5,83C 93.2106,81.7453 94.044,80.5786 95,79.5C 95.7185,82.4071 95.2185,85.0738 93.5,87.5C 92.0689,87.8807 91.2355,88.8807 91,90.5C 89.0596,100.182 90.8929,109.015 96.5,117C 96.2645,117.873 95.9312,118.707 95.5,119.5C 96.5244,120.852 97.5244,122.185 98.5,123.5C 97.8166,125.176 96.4832,125.843 94.5,125.5C 92.1667,123.5 89.8333,121.5 87.5,119.5C 85.4855,118.076 83.1522,117.41 80.5,117.5C 80.5,115.833 80.5,114.167 80.5,112.5C 78.9193,101.589 78.0859,90.5888 78,79.5C 76.3775,78.9011 74.8775,78.2344 73.5,77.5C 75.0217,76.5688 76.3551,75.4021 77.5,74C 76.7135,71.9011 76.3801,69.7345 76.5,67.5 Z"/></g>
<g><path style="opacity:1" fill="#3d574e" d="M 165.5,73.5 C 164.909,74.1515 164.243,74.8182 163.5,75.5C 165.177,79.2689 164.677,82.6022 162,85.5C 160.415,84.9561 158.915,84.2894 157.5,83.5C 155.833,82.5 154.5,81.1667 153.5,79.5C 152.972,78.2794 152.305,77.1127 151.5,76C 153.5,74.6667 155.5,73.3333 157.5,72C 160.538,71.115 163.205,71.615 165.5,73.5 Z"/></g>
<g><path style="opacity:1" fill="#a6cec5" d="M 65.5,77.5 C 67.2303,78.0256 68.5637,79.0256 69.5,80.5C 64.8333,80.5 60.1667,80.5 55.5,80.5C 55.8807,79.0689 56.8807,78.2355 58.5,78C 60.8098,77.5034 63.1432,77.3367 65.5,77.5 Z"/></g>
<g><path style="opacity:1" fill="#1d1d0c" d="M 73.5,77.5 C 74.8775,78.2344 76.3775,78.9011 78,79.5C 78.0859,90.5888 78.9193,101.589 80.5,112.5C 75.8837,113.658 73.217,111.992 72.5,107.5C 71.959,98.5094 71.6256,89.5094 71.5,80.5C 71.427,78.9731 72.0937,77.9731 73.5,77.5 Z"/></g>
<g><path style="opacity:1" fill="#385701" d="M 255.5,81.5 C 255.5,93.1667 255.5,104.833 255.5,116.5C 253.983,116.489 252.816,115.823 252,114.5C 251.08,111.204 249.913,108.037 248.5,105C 249.777,103.112 250.777,101.112 251.5,99C 250.577,96.9592 250.244,94.7925 250.5,92.5C 254.449,92.3068 254.449,91.8068 250.5,91C 249.299,90.0975 248.465,88.9308 248,87.5C 247.997,83.4334 247.83,79.4334 247.5,75.5C 246.201,76.09 245.368,77.09 245,78.5C 244.295,82.6653 243.461,86.6653 242.5,90.5C 242.169,83.1365 242.503,75.8032 243.5,68.5C 244.845,69.3467 245.845,70.5134 246.5,72C 247.448,72.4828 248.448,72.6495 249.5,72.5C 249.312,70.8967 249.812,69.5634 251,68.5C 255.816,70.9737 255.649,73.1404 250.5,75C 251.711,76.1131 251.711,77.2798 250.5,78.5C 252.319,79.3199 253.986,80.3199 255.5,81.5 Z"/></g>
<g><path style="opacity:1" fill="#3f5a63" d="M 151.5,80.5 C 151.833,80.5 152.167,80.5 152.5,80.5C 150.364,83.4335 150.031,86.6002 151.5,90C 150.956,91.585 150.289,93.085 149.5,94.5C 146.482,94.7038 143.482,95.0371 140.5,95.5C 140.172,90.1254 140.505,84.7921 141.5,79.5C 142.298,81.0777 142.798,82.7444 143,84.5C 145.279,82.837 147.613,81.1704 150,79.5C 150.383,80.056 150.883,80.3893 151.5,80.5 Z"/></g>
<g><path style="opacity:1" fill="#2d572c" d="M 6.5,81.5 C 7.25057,80.4265 8.25057,80.2599 9.5,81C 11.8333,82.5 14.1667,84 16.5,85.5C 17.6334,82.6769 19.4667,82.0102 22,83.5C 28.4845,82.4545 34.9845,81.4545 41.5,80.5C 42.7261,80.5195 43.7261,80.8529 44.5,81.5C 39.067,81.9765 33.7337,82.9765 28.5,84.5C 27.7025,84.9569 27.3691,85.6236 27.5,86.5C 25.364,87.6528 23.364,88.9862 21.5,90.5C 18.4983,87.997 15.1649,85.997 11.5,84.5C 9.66754,83.7515 8.00087,82.7515 6.5,81.5 Z"/></g>
<g><path style="opacity:1" fill="#43752f" d="M 44.5,81.5 C 44.5,81.8333 44.5,82.1667 44.5,82.5C 43.8333,84.5 43.1667,86.5 42.5,88.5C 41.8333,88.1667 41.1667,87.8333 40.5,87.5C 38.367,85.6611 35.7004,84.6611 32.5,84.5C 30.8228,85.1869 29.1561,85.8535 27.5,86.5C 27.3691,85.6236 27.7025,84.9569 28.5,84.5C 33.7337,82.9765 39.067,81.9765 44.5,81.5 Z"/></g>
<g><path style="opacity:1" fill="#3c595b" d="M 108.5,75.5 C 108.5,80.1667 108.5,84.8333 108.5,89.5C 108.664,92.1873 108.497,94.854 108,97.5C 106.246,95.75 104.079,95.0833 101.5,95.5C 100.486,94.3263 99.153,93.6596 97.5,93.5C 96.0177,87.643 96.351,81.9763 98.5,76.5C 98.2105,80.554 98.8771,81.054 100.5,78C 104.445,77.5571 106.445,75.3904 106.5,71.5C 107.316,72.1571 107.983,73.4905 108.5,75.5 Z"/></g>
<g><path style="opacity:1" fill="#112918" d="M 1.5,76.5 C 3.08527,77.4737 4.08527,78.9737 4.5,81C 5.09442,81.4643 5.76109,81.631 6.5,81.5C 8.00087,82.7515 9.66754,83.7515 11.5,84.5C 11.7086,85.9217 12.2086,87.255 13,88.5C 22.8841,94.5265 24.0508,101.86 16.5,110.5C 18.0778,106.289 18.5778,101.956 18,97.5C 13.0476,94.6041 8.54765,91.1041 4.5,87C 5.54896,86.5078 6.54896,86.6744 7.5,87.5C 8.69559,87.1543 8.69559,86.6543 7.5,86C 4.64408,84.7413 1.97741,83.2413 -0.5,81.5C -0.5,80.1667 -0.5,78.8333 -0.5,77.5C 0.491622,77.6716 1.15829,77.3382 1.5,76.5 Z"/></g>
<g><path style="opacity:1" fill="#65a62f" d="M 40.5,87.5 C 36.3951,87.2338 32.3951,87.7338 28.5,89C 27.695,90.1127 27.0283,91.2794 26.5,92.5C 24.8333,91.8333 23.1667,91.1667 21.5,90.5C 23.364,88.9862 25.364,87.6528 27.5,86.5C 29.1561,85.8535 30.8228,85.1869 32.5,84.5C 35.7004,84.6611 38.367,85.6611 40.5,87.5 Z"/></g>
<g><path style="opacity:1" fill="#131f21" d="M 55.5,80.5 C 60.1667,80.5 64.8333,80.5 69.5,80.5C 70.1667,80.5 70.8333,80.5 71.5,80.5C 71.6256,89.5094 71.959,98.5094 72.5,107.5C 70.5842,105.884 69.0842,106.218 68,108.5C 65.4572,107.793 63.2905,106.46 61.5,104.5C 58.8658,96.6299 56.8658,88.6299 55.5,80.5 Z"/></g>
<g><path style="opacity:1" fill="#1c2c32" d="M 153.5,79.5 C 154.5,81.1667 155.833,82.5 157.5,83.5C 156.624,83.3691 155.957,83.7025 155.5,84.5C 156.143,89.6984 156.81,94.8651 157.5,100C 155.692,102.835 154.692,106.002 154.5,109.5C 156.181,116.471 154.181,122.137 148.5,126.5C 147.564,122.265 147.231,117.931 147.5,113.5C 147.5,112.167 147.5,110.833 147.5,109.5C 146.448,109.649 145.448,109.483 144.5,109C 146.146,105.69 148.48,103.023 151.5,101C 148.169,101.818 144.836,101.651 141.5,100.5C 144.655,98.1024 148.321,96.9358 152.5,97C 151.627,95.955 150.627,95.1217 149.5,94.5C 150.289,93.085 150.956,91.585 151.5,90C 150.031,86.6002 150.364,83.4335 152.5,80.5C 152.5,79.8333 152.833,79.5 153.5,79.5 Z"/></g>
<g><path style="opacity:1" fill="#0b1611" d="M -0.5,81.5 C 1.97741,83.2413 4.64408,84.7413 7.5,86C 8.69559,86.6543 8.69559,87.1543 7.5,87.5C 6.54896,86.6744 5.54896,86.5078 4.5,87C 8.54765,91.1041 13.0476,94.6041 18,97.5C 18.5778,101.956 18.0778,106.289 16.5,110.5C 14.8036,112.525 13.137,114.525 11.5,116.5C 7.5,119.5 3.5,122.5 -0.5,125.5C -0.5,110.833 -0.5,96.1667 -0.5,81.5 Z"/></g>
<g><path style="opacity:1" fill="#a0a173" d="M 136.5,69.5 C 135.772,74.4512 135.272,79.4512 135,84.5C 134.028,86.3049 132.861,87.9716 131.5,89.5C 131.833,89.8333 132.167,90.1667 132.5,90.5C 133.875,87.4529 136.208,86.1196 139.5,86.5C 139.5,90.8333 139.5,95.1667 139.5,99.5C 138.423,98.9816 137.256,98.6483 136,98.5C 131.606,100.195 127.106,101.028 122.5,101C 123.696,100.346 123.696,99.8457 122.5,99.5C 121.088,100.806 119.421,101.64 117.5,102C 120.817,102.498 124.15,102.665 127.5,102.5C 121.599,103.806 115.599,103.806 109.5,102.5C 109.5,101.833 109.5,101.167 109.5,100.5C 109.187,97.7531 109.52,95.0865 110.5,92.5C 111.183,92.1373 111.85,91.8039 112.5,91.5C 121.992,89.5198 127.825,83.8531 130,74.5C 131.777,72.2101 133.944,70.5434 136.5,69.5 Z"/></g>
<g><path style="opacity:1" fill="#2e5528" d="M 44.5,82.5 C 45.5665,84.964 46.8998,87.2974 48.5,89.5C 49.4822,92.7635 50.1489,96.0968 50.5,99.5C 48.8958,98.713 48.2291,97.3797 48.5,95.5C 44.2855,95.1932 42.2855,92.8599 42.5,88.5C 43.1667,86.5 43.8333,84.5 44.5,82.5 Z"/></g>
<g><path style="opacity:1" fill="#9fdd59" d="M 40.5,87.5 C 41.038,89.1172 41.3713,90.7839 41.5,92.5C 38.1086,89.948 34.6086,89.948 31,92.5C 30.5172,93.448 30.3505,94.448 30.5,95.5C 28.7697,94.9744 27.4363,93.9744 26.5,92.5C 27.0283,91.2794 27.695,90.1127 28.5,89C 32.3951,87.7338 36.3951,87.2338 40.5,87.5 Z"/></g>
<g><path style="opacity:1" fill="#354f15" d="M 175.5,81.5 C 176.82,84.428 177.486,87.7614 177.5,91.5C 177.498,95.0175 177.165,98.3509 176.5,101.5C 176.631,100.761 176.464,100.094 176,99.5C 175.361,102.112 174.194,104.446 172.5,106.5C 171.476,105.147 170.143,104.48 168.5,104.5C 170.028,96.4817 172.361,88.815 175.5,81.5 Z"/></g>
<g><path style="opacity:1" fill="#446a01" d="M 255.5,116.5 C 255.5,118.833 255.5,121.167 255.5,123.5C 253.833,123.5 252.167,123.5 250.5,123.5C 250.66,125.199 250.494,126.866 250,128.5C 249.667,128.167 249.333,127.833 249,127.5C 247.197,132.682 246.364,138.016 246.5,143.5C 238.833,143.5 231.167,143.5 223.5,143.5C 224.761,139.547 225.928,135.547 227,131.5C 227.637,129.697 228.803,128.364 230.5,127.5C 230.291,126.914 229.957,126.414 229.5,126C 232.44,123.375 235.607,121.208 239,119.5C 239.667,118.5 239.667,117.5 239,116.5C 237.137,119.904 235.303,120.071 233.5,117C 234.38,115.644 234.714,114.144 234.5,112.5C 236.855,111.215 238.688,111.215 240,112.5C 240.994,107.882 241.494,103.215 241.5,98.5C 242.092,95.8728 242.425,93.2062 242.5,90.5C 243.461,86.6653 244.295,82.6653 245,78.5C 245.368,77.09 246.201,76.09 247.5,75.5C 247.83,79.4334 247.997,83.4334 248,87.5C 248.465,88.9308 249.299,90.0975 250.5,91C 254.449,91.8068 254.449,92.3068 250.5,92.5C 250.244,94.7925 250.577,96.9592 251.5,99C 250.777,101.112 249.777,103.112 248.5,105C 249.913,108.037 251.08,111.204 252,114.5C 252.816,115.823 253.983,116.489 255.5,116.5 Z"/></g>
<g><path style="opacity:1" fill="#233a0d" d="M 46.5,81.5 C 47.2389,81.369 47.9056,81.5357 48.5,82C 49.4664,84.099 50.7997,85.9324 52.5,87.5C 54.6317,93.7612 57.2983,99.7612 60.5,105.5C 63.4052,107.921 66.4052,110.088 69.5,112C 70.2524,112.671 70.5858,113.504 70.5,114.5C 67.257,113.961 64.757,112.294 63,109.5C 62.5045,111.473 62.3379,113.473 62.5,115.5C 62.6641,118.187 62.4974,120.854 62,123.5C 61.4444,121.405 60.9444,121.238 60.5,123C 62.119,125.16 61.7856,126.66 59.5,127.5C 58.8333,126.833 58.1667,126.167 57.5,125.5C 57.5,124.833 57.5,124.167 57.5,123.5C 56.7903,119.975 55.7903,116.642 54.5,113.5C 54.7678,111.901 54.4345,110.568 53.5,109.5C 53.7678,107.901 53.4345,106.568 52.5,105.5C 52.405,103.214 51.7384,101.214 50.5,99.5C 50.1489,96.0968 49.4822,92.7635 48.5,89.5C 48.9234,88.7354 49.2568,87.9021 49.5,87C 47.4236,85.7562 46.4236,83.9229 46.5,81.5 Z"/></g>
<g><path style="opacity:1" fill="#131c1a" d="M 169.5,66.5 C 170.165,68.6979 170.832,71.0312 171.5,73.5C 172.417,74.1272 173.417,74.4606 174.5,74.5C 174.833,75.5 175.5,76.1667 176.5,76.5C 176.634,78.2915 176.301,79.9582 175.5,81.5C 172.361,88.815 170.028,96.4817 168.5,104.5C 166.487,111.187 164.153,117.854 161.5,124.5C 158.548,125.411 155.548,125.578 152.5,125C 150.153,128.587 147.487,131.754 144.5,134.5C 144.557,133.391 144.89,132.391 145.5,131.5C 146.89,130.101 147.89,128.434 148.5,126.5C 154.181,122.137 156.181,116.471 154.5,109.5C 154.692,106.002 155.692,102.835 157.5,100C 156.81,94.8651 156.143,89.6984 155.5,84.5C 155.957,83.7025 156.624,83.3691 157.5,83.5C 158.915,84.2894 160.415,84.9561 162,85.5C 164.677,82.6022 165.177,79.2689 163.5,75.5C 164.243,74.8182 164.909,74.1515 165.5,73.5C 166.64,71.9545 167.64,70.2879 168.5,68.5C 168.833,67.8333 169.167,67.1667 169.5,66.5 Z"/></g>
<g><path style="opacity:1" fill="#e7fed3" d="M 41.5,92.5 C 41.3398,94.1992 41.5065,95.8659 42,97.5C 42.6708,98.2524 43.5041,98.5858 44.5,98.5C 46.5272,101.194 48.8605,103.527 51.5,105.5C 47.3141,104.099 42.9808,103.266 38.5,103C 35.474,100.695 32.8074,98.1947 30.5,95.5C 30.3505,94.448 30.5172,93.448 31,92.5C 34.6086,89.948 38.1086,89.948 41.5,92.5 Z"/></g>
<g><path style="opacity:1" fill="#ade569" d="M 41.5,92.5 C 42.4918,94.4561 43.4918,96.4561 44.5,98.5C 43.5041,98.5858 42.6708,98.2524 42,97.5C 41.5065,95.8659 41.3398,94.1992 41.5,92.5 Z"/></g>
<g><path style="opacity:1" fill="#13242c" d="M 93.5,87.5 C 93.8702,90.267 95.2036,92.267 97.5,93.5C 99.153,93.6596 100.486,94.3263 101.5,95.5C 99.3352,95.1159 97.6685,95.7826 96.5,97.5C 100.577,98.3174 104.577,99.3174 108.5,100.5C 106.619,102.828 104.286,103.161 101.5,101.5C 100.263,101.556 99.263,102.056 98.5,103C 100.044,108.057 101.378,113.223 102.5,118.5C 102.423,120.299 101.923,121.966 101,123.5C 100.23,124.598 99.397,124.598 98.5,123.5C 97.5244,122.185 96.5244,120.852 95.5,119.5C 95.9312,118.707 96.2645,117.873 96.5,117C 90.8929,109.015 89.0596,100.182 91,90.5C 91.2355,88.8807 92.0689,87.8807 93.5,87.5 Z"/></g>
<g><path style="opacity:1" fill="#557875" d="M 108.5,89.5 C 109.995,89.9887 111.329,90.6554 112.5,91.5C 111.85,91.8039 111.183,92.1373 110.5,92.5C 109.52,95.0865 109.187,97.7531 109.5,100.5C 109.167,100.5 108.833,100.5 108.5,100.5C 104.577,99.3174 100.577,98.3174 96.5,97.5C 97.6685,95.7826 99.3352,95.1159 101.5,95.5C 104.079,95.0833 106.246,95.75 108,97.5C 108.497,94.854 108.664,92.1873 108.5,89.5 Z"/></g>
<g><path style="opacity:1" fill="#426605" d="M 220.5,116.5 C 220.374,114.8 219.707,113.3 218.5,112C 220.859,107.399 222.026,102.565 222,97.5C 220.701,97.9662 219.201,97.9662 217.5,97.5C 217.307,101.449 216.807,101.449 216,97.5C 215,98.1667 214,98.8333 213,99.5C 208.417,111.279 203.084,122.613 197,133.5C 196.175,135.701 196.675,137.534 198.5,139C 197.552,139.483 196.552,139.649 195.5,139.5C 195.5,140.833 195.5,142.167 195.5,143.5C 193.833,143.5 192.167,143.5 190.5,143.5C 193.522,125.371 196.522,107.371 199.5,89.5C 200.5,89.5 201.5,89.5 202.5,89.5C 202.263,88.209 202.596,87.209 203.5,86.5C 204.712,85.7701 205.712,84.7701 206.5,83.5C 209.568,81.6407 212.402,81.6407 215,83.5C 215.626,87.1358 216.793,87.1358 218.5,83.5C 219.086,83.7093 219.586,84.0426 220,84.5C 219.981,86.1075 219.815,87.7741 219.5,89.5C 218.178,89.67 217.011,89.3366 216,88.5C 215.5,89 215,89.5 214.5,90C 216.061,90.3176 217.228,91.1509 218,92.5C 220.168,89.3141 222.335,86.1475 224.5,83C 225.416,82.6258 226.25,82.1258 227,81.5C 227.215,86.601 226.048,91.4343 223.5,96C 224.772,103.268 223.772,110.101 220.5,116.5 Z"/></g>
<g><path style="opacity:1" fill="#eaeee0" d="M 139.5,99.5 C 140.167,99.8333 140.833,100.167 141.5,100.5C 141.5,101.167 141.167,101.5 140.5,101.5C 136.102,101.294 131.768,101.627 127.5,102.5C 124.15,102.665 120.817,102.498 117.5,102C 119.421,101.64 121.088,100.806 122.5,99.5C 123.696,99.8457 123.696,100.346 122.5,101C 127.106,101.028 131.606,100.195 136,98.5C 137.256,98.6483 138.423,98.9816 139.5,99.5 Z"/></g>
<g><path style="opacity:1" fill="#619f2f" d="M 40.5,87.5 C 41.1667,87.8333 41.8333,88.1667 42.5,88.5C 42.2855,92.8599 44.2855,95.1932 48.5,95.5C 48.2291,97.3797 48.8958,98.713 50.5,99.5C 51.7384,101.214 52.405,103.214 52.5,105.5C 52.1667,105.5 51.8333,105.5 51.5,105.5C 48.8605,103.527 46.5272,101.194 44.5,98.5C 43.4918,96.4561 42.4918,94.4561 41.5,92.5C 41.3713,90.7839 41.038,89.1172 40.5,87.5 Z"/></g>
<g><path style="opacity:1" fill="#4a7504" d="M 220.5,116.5 C 219.492,119.844 218.492,123.177 217.5,126.5C 214.87,130.431 213.37,134.764 213,139.5C 213.667,138.167 214.333,136.833 215,135.5C 215.602,138.221 215.435,140.887 214.5,143.5C 208.167,143.5 201.833,143.5 195.5,143.5C 195.5,142.167 195.5,140.833 195.5,139.5C 196.552,139.649 197.552,139.483 198.5,139C 196.675,137.534 196.175,135.701 197,133.5C 203.084,122.613 208.417,111.279 213,99.5C 214,98.8333 215,98.1667 216,97.5C 216.807,101.449 217.307,101.449 217.5,97.5C 219.201,97.9662 220.701,97.9662 222,97.5C 222.026,102.565 220.859,107.399 218.5,112C 219.707,113.3 220.374,114.8 220.5,116.5 Z"/></g>
<g><path style="opacity:1" fill="#205020" d="M 21.5,90.5 C 23.1667,91.1667 24.8333,91.8333 26.5,92.5C 27.4363,93.9744 28.7697,94.9744 30.5,95.5C 30.5871,98.7387 29.9205,101.739 28.5,104.5C 27.596,105.209 27.2627,106.209 27.5,107.5C 26.6618,107.842 26.3284,108.508 26.5,109.5C 24.527,105.293 23.3604,100.626 23,95.5C 22.5348,94.0692 21.7014,92.9025 20.5,92C 21.056,91.6174 21.3893,91.1174 21.5,90.5 Z"/></g>
<g><path style="opacity:1" fill="#3f4930" d="M 140.5,101.5 C 139.952,103.626 139.285,105.626 138.5,107.5C 138.5,106.5 138.5,105.5 138.5,104.5C 129.548,106.497 120.548,106.83 111.5,105.5C 111.5,108.167 111.5,110.833 111.5,113.5C 111.167,113.5 110.833,113.5 110.5,113.5C 110.058,109.846 109.724,106.179 109.5,102.5C 115.599,103.806 121.599,103.806 127.5,102.5C 131.768,101.627 136.102,101.294 140.5,101.5 Z"/></g>
<g><path style="opacity:1" fill="#9dde6a" d="M 30.5,95.5 C 32.8074,98.1947 35.474,100.695 38.5,103C 42.9808,103.266 47.3141,104.099 51.5,105.5C 51.8333,105.5 52.1667,105.5 52.5,105.5C 53.4345,106.568 53.7678,107.901 53.5,109.5C 50.2356,108.676 46.9023,108.342 43.5,108.5C 38.9533,107.324 34.4533,107.324 30,108.5C 28.8118,107.437 28.3118,106.103 28.5,104.5C 29.9205,101.739 30.5871,98.7387 30.5,95.5 Z"/></g>
<g><path style="opacity:1" fill="#305958" d="M 141.5,100.5 C 144.836,101.651 148.169,101.818 151.5,101C 148.48,103.023 146.146,105.69 144.5,109C 145.448,109.483 146.448,109.649 147.5,109.5C 147.5,110.833 147.5,112.167 147.5,113.5C 144.946,114.388 142.279,114.721 139.5,114.5C 139.5,116.5 139.5,118.5 139.5,120.5C 138.532,118.393 138.198,116.059 138.5,113.5C 138.5,111.5 138.5,109.5 138.5,107.5C 139.285,105.626 139.952,103.626 140.5,101.5C 141.167,101.5 141.5,101.167 141.5,100.5 Z"/></g>
<g><path style="opacity:1" fill="#696f35" d="M 128.5,111.5 C 124.756,116.737 119.923,120.737 114,123.5C 113.53,122.423 113.697,121.423 114.5,120.5C 115.267,119.828 115.934,118.995 116.5,118C 115.549,114.943 115.216,111.777 115.5,108.5C 120.56,108.492 125.56,108.326 130.5,108C 129.177,108.816 128.511,109.983 128.5,111.5 Z"/></g>
<g><path style="opacity:1" fill="#3b7537" d="M 28.5,104.5 C 28.3118,106.103 28.8118,107.437 30,108.5C 34.4533,107.324 38.9533,107.324 43.5,108.5C 45.2922,109.309 47.2922,109.809 49.5,110C 50.2228,112.018 51.2228,113.852 52.5,115.5C 46.6787,116.111 41.512,114.777 37,111.5C 36.1268,111.735 35.2935,112.069 34.5,112.5C 32.3821,111.054 30.0488,110.387 27.5,110.5C 27.5,109.5 27.5,108.5 27.5,107.5C 27.2627,106.209 27.596,105.209 28.5,104.5 Z"/></g>
<g><path style="opacity:1" fill="#79824f" d="M 138.5,107.5 C 138.5,109.5 138.5,111.5 138.5,113.5C 137.819,111.842 136.985,110.175 136,108.5C 135.914,111.446 135.081,114.446 133.5,117.5C 131.314,118.221 129.147,118.887 127,119.5C 126.25,118.874 125.416,118.374 124.5,118C 126.923,116.429 128.256,114.263 128.5,111.5C 128.511,109.983 129.177,108.816 130.5,108C 125.56,108.326 120.56,108.492 115.5,108.5C 115.216,111.777 115.549,114.943 116.5,118C 115.934,118.995 115.267,119.828 114.5,120.5C 114.808,118.076 114.474,115.743 113.5,113.5C 112.818,114.243 112.151,114.909 111.5,115.5C 111.5,114.833 111.5,114.167 111.5,113.5C 111.5,110.833 111.5,108.167 111.5,105.5C 120.548,106.83 129.548,106.497 138.5,104.5C 138.5,105.5 138.5,106.5 138.5,107.5 Z"/></g>
<g><path style="opacity:1" fill="#589335" d="M 43.5,108.5 C 46.9023,108.342 50.2356,108.676 53.5,109.5C 54.4345,110.568 54.7678,111.901 54.5,113.5C 54.5,114.833 53.8333,115.5 52.5,115.5C 51.2228,113.852 50.2228,112.018 49.5,110C 47.2922,109.809 45.2922,109.309 43.5,108.5 Z"/></g>
<g><path style="opacity:1" fill="#507615" d="M 176.5,101.5 C 175.952,107.195 175.286,112.862 174.5,118.5C 172.234,118.859 170.401,118.192 169,116.5C 166.363,120.072 164.697,124.072 164,128.5C 163.925,126.065 163.092,125.398 161.5,126.5C 161.5,125.833 161.5,125.167 161.5,124.5C 164.153,117.854 166.487,111.187 168.5,104.5C 170.143,104.48 171.476,105.147 172.5,106.5C 174.194,104.446 175.361,102.112 176,99.5C 176.464,100.094 176.631,100.761 176.5,101.5 Z"/></g>
<g><path style="opacity:1" fill="#254a47" d="M 108.5,100.5 C 108.833,100.5 109.167,100.5 109.5,100.5C 109.5,101.167 109.5,101.833 109.5,102.5C 109.724,106.179 110.058,109.846 110.5,113.5C 110.665,117.182 110.499,120.848 110,124.5C 108.211,122.771 106.044,122.104 103.5,122.5C 103.808,124.924 103.474,127.257 102.5,129.5C 101.264,128.754 99.9305,128.421 98.5,128.5C 97.5,127.833 96.5,127.167 95.5,126.5C 94.8333,126.5 94.5,126.167 94.5,125.5C 96.4832,125.843 97.8166,125.176 98.5,123.5C 99.397,124.598 100.23,124.598 101,123.5C 101.923,121.966 102.423,120.299 102.5,118.5C 101.378,113.223 100.044,108.057 98.5,103C 99.263,102.056 100.263,101.556 101.5,101.5C 104.286,103.161 106.619,102.828 108.5,100.5 Z"/></g>
<g><path style="opacity:1" fill="#2a6040" d="M 27.5,107.5 C 27.5,108.5 27.5,109.5 27.5,110.5C 30.0488,110.387 32.3821,111.054 34.5,112.5C 35.2935,112.069 36.1268,111.735 37,111.5C 41.512,114.777 46.6787,116.111 52.5,115.5C 53.8333,115.5 54.5,114.833 54.5,113.5C 55.7903,116.642 56.7903,119.975 57.5,123.5C 50.1152,120.865 42.4486,120.032 34.5,121C 32.583,123.498 30.9164,126.165 29.5,129C 30.42,132.34 31.7533,135.507 33.5,138.5C 32.8333,138.5 32.1667,138.5 31.5,138.5C 31.1583,137.662 30.4916,137.328 29.5,137.5C 29.8039,136.85 30.1373,136.183 30.5,135.5C 29.3906,133.615 28.5573,131.615 28,129.5C 25.2727,127.774 23.2727,125.441 22,122.5C 21.6174,123.056 21.1174,123.389 20.5,123.5C 22.5062,118.823 24.5062,114.156 26.5,109.5C 26.3284,108.508 26.6618,107.842 27.5,107.5 Z"/></g>
<g><path style="opacity:1" fill="#3e6202" d="M 240.5,99.5 C 240.5,98.8333 240.833,98.5 241.5,98.5C 241.494,103.215 240.994,107.882 240,112.5C 238.688,111.215 236.855,111.215 234.5,112.5C 234.714,114.144 234.38,115.644 233.5,117C 235.303,120.071 237.137,119.904 239,116.5C 239.667,117.5 239.667,118.5 239,119.5C 235.607,121.208 232.44,123.375 229.5,126C 229.957,126.414 230.291,126.914 230.5,127.5C 228.803,128.364 227.637,129.697 227,131.5C 225.928,135.547 224.761,139.547 223.5,143.5C 220.5,143.5 217.5,143.5 214.5,143.5C 215.435,140.887 215.602,138.221 215,135.5C 214.333,136.833 213.667,138.167 213,139.5C 213.37,134.764 214.87,130.431 217.5,126.5C 217.351,127.552 217.517,128.552 218,129.5C 218.748,127.668 219.748,126.001 221,124.5C 222.679,116.462 225.346,108.796 229,101.5C 229.249,102.624 229.749,103.624 230.5,104.5C 232.319,102.872 233.653,100.872 234.5,98.5C 237.185,95.6955 238.852,96.3621 239.5,100.5C 240.107,100.376 240.44,100.043 240.5,99.5 Z"/></g>
<g><path style="opacity:1" fill="#619b5d" d="M 70.5,114.5 C 71.7298,116.297 72.3964,118.297 72.5,120.5C 72.6309,121.376 72.2975,122.043 71.5,122.5C 69.2706,121.423 66.9372,120.756 64.5,120.5C 64.5979,118.447 63.9313,116.78 62.5,115.5C 62.3379,113.473 62.5045,111.473 63,109.5C 64.757,112.294 67.257,113.961 70.5,114.5 Z"/></g>
<g><path style="opacity:1" fill="#173d28" d="M 11.5,84.5 C 15.1649,85.997 18.4983,87.997 21.5,90.5C 21.3893,91.1174 21.056,91.6174 20.5,92C 21.7014,92.9025 22.5348,94.0692 23,95.5C 23.3604,100.626 24.527,105.293 26.5,109.5C 24.5062,114.156 22.5062,118.823 20.5,123.5C 18.1933,123.986 16.0266,123.986 14,123.5C 11.6182,125.389 9.1182,127.055 6.5,128.5C 7.62614,124.251 9.29281,120.251 11.5,116.5C 13.137,114.525 14.8036,112.525 16.5,110.5C 24.0508,101.86 22.8841,94.5265 13,88.5C 12.2086,87.255 11.7086,85.9217 11.5,84.5 Z"/></g>
<g><path style="opacity:1" fill="#808e4c" d="M 138.5,113.5 C 138.198,116.059 138.532,118.393 139.5,120.5C 139.5,123.5 139.5,126.5 139.5,129.5C 138.833,130.5 138.167,131.5 137.5,132.5C 137.665,129.482 137.498,126.482 137,123.5C 136.692,122.692 136.192,122.025 135.5,121.5C 133.572,123.05 131.739,124.717 130,126.5C 126.135,125.544 122.468,126.21 119,128.5C 118.775,124.001 116.941,122.835 113.5,125C 112.915,126.302 112.249,127.469 111.5,128.5C 111.5,124.167 111.5,119.833 111.5,115.5C 112.151,114.909 112.818,114.243 113.5,113.5C 114.474,115.743 114.808,118.076 114.5,120.5C 113.697,121.423 113.53,122.423 114,123.5C 119.923,120.737 124.756,116.737 128.5,111.5C 128.256,114.263 126.923,116.429 124.5,118C 125.416,118.374 126.25,118.874 127,119.5C 129.147,118.887 131.314,118.221 133.5,117.5C 135.081,114.446 135.914,111.446 136,108.5C 136.985,110.175 137.819,111.842 138.5,113.5 Z"/></g>
<g><path style="opacity:1" fill="#5a8711" d="M 174.5,118.5 C 173.712,126.809 173.379,135.142 173.5,143.5C 167.833,143.5 162.167,143.5 156.5,143.5C 157.111,140.279 158.278,137.279 160,134.5C 160.556,136.595 161.056,136.762 161.5,135C 160.69,132.217 160.69,129.383 161.5,126.5C 163.092,125.398 163.925,126.065 164,128.5C 164.697,124.072 166.363,120.072 169,116.5C 170.401,118.192 172.234,118.859 174.5,118.5 Z"/></g>
<g><path style="opacity:1" fill="#1d2810" d="M 54.5,75.5 C 54.2155,77.4147 54.5489,79.0813 55.5,80.5C 56.8658,88.6299 58.8658,96.6299 61.5,104.5C 63.2905,106.46 65.4572,107.793 68,108.5C 69.0842,106.218 70.5842,105.884 72.5,107.5C 73.217,111.992 75.8837,113.658 80.5,112.5C 80.5,114.167 80.5,115.833 80.5,117.5C 81.2186,119.764 81.552,122.097 81.5,124.5C 82.392,130.852 83.392,137.185 84.5,143.5C 81.8333,143.5 79.1667,143.5 76.5,143.5C 76.1375,138.248 75.1375,133.248 73.5,128.5C 73.8064,125.615 73.4731,122.948 72.5,120.5C 72.3964,118.297 71.7298,116.297 70.5,114.5C 70.5858,113.504 70.2524,112.671 69.5,112C 66.4052,110.088 63.4052,107.921 60.5,105.5C 57.2983,99.7612 54.6317,93.7612 52.5,87.5C 50.7997,85.9324 49.4664,84.099 48.5,82C 47.9056,81.5357 47.2389,81.369 46.5,81.5C 46.233,79.0347 45.5664,76.7014 44.5,74.5C 44.5569,73.391 44.8902,72.391 45.5,71.5C 46.1174,71.3893 46.6174,71.056 47,70.5C 47.5057,73.671 49.1724,76.0043 52,77.5C 52.0748,75.065 52.9081,74.3984 54.5,75.5 Z"/></g>
<g><path style="opacity:1" fill="#79df95" d="M 87.5,119.5 C 89.8333,121.5 92.1667,123.5 94.5,125.5C 94.5,126.167 94.8333,126.5 95.5,126.5C 95.44,127.043 95.1067,127.376 94.5,127.5C 90.3318,125.25 86.3318,122.75 82.5,120C 84.1341,119.506 85.8008,119.34 87.5,119.5 Z"/></g>
<g><path style="opacity:1" fill="#182d21" d="M 11.5,116.5 C 9.29281,120.251 7.62614,124.251 6.5,128.5C 4.30207,130.098 1.96874,131.431 -0.5,132.5C -0.5,130.167 -0.5,127.833 -0.5,125.5C 3.5,122.5 7.5,119.5 11.5,116.5 Z"/></g>
<g><path style="opacity:1" fill="#1f4d3f" d="M 57.5,123.5 C 57.5,124.167 57.5,124.833 57.5,125.5C 55.5853,125.216 53.9187,125.549 52.5,126.5C 48.4706,123.036 44.8039,123.202 41.5,127C 40.175,126.852 39.0084,127.018 38,127.5C 39.4415,129.637 39.7748,131.97 39,134.5C 40,135.833 41,135.833 42,134.5C 41.932,136.342 42.0986,138.009 42.5,139.5C 41.1224,140.545 40.1224,141.878 39.5,143.5C 36.8333,143.5 34.1667,143.5 31.5,143.5C 32.5676,142.566 33.901,142.232 35.5,142.5C 35.7678,140.901 35.4345,139.568 34.5,138.5C 34.1667,138.5 33.8333,138.5 33.5,138.5C 31.7533,135.507 30.42,132.34 29.5,129C 30.9164,126.165 32.583,123.498 34.5,121C 42.4486,120.032 50.1152,120.865 57.5,123.5 Z"/></g>
<g><path style="opacity:1" fill="#24453f" d="M 147.5,113.5 C 147.231,117.931 147.564,122.265 148.5,126.5C 147.89,128.434 146.89,130.101 145.5,131.5C 145.565,131.062 145.399,130.728 145,130.5C 142.688,133.102 140.855,132.768 139.5,129.5C 139.5,126.5 139.5,123.5 139.5,120.5C 139.5,118.5 139.5,116.5 139.5,114.5C 142.279,114.721 144.946,114.388 147.5,113.5 Z"/></g>
<g><path style="opacity:1" fill="#1a4243" d="M 52.5,126.5 C 52.9561,130.119 51.4561,132.452 48,133.5C 48.0312,136.201 49.5312,137.701 52.5,138C 54.8333,138.333 57.1667,138.667 59.5,139C 53.8431,139.499 48.1764,139.666 42.5,139.5C 42.0986,138.009 41.932,136.342 42,134.5C 41,135.833 40,135.833 39,134.5C 39.7748,131.97 39.4415,129.637 38,127.5C 39.0084,127.018 40.175,126.852 41.5,127C 44.8039,123.202 48.4706,123.036 52.5,126.5 Z"/></g>
<g><path style="opacity:1" fill="#1b2e10" d="M 62.5,115.5 C 63.9313,116.78 64.5979,118.447 64.5,120.5C 64.7315,124.942 66.0648,128.942 68.5,132.5C 69.8951,136.29 71.5617,139.957 73.5,143.5C 71.1667,143.5 68.8333,143.5 66.5,143.5C 64.1495,138.136 61.8161,132.803 59.5,127.5C 61.7856,126.66 62.119,125.16 60.5,123C 60.9444,121.238 61.4444,121.405 62,123.5C 62.4974,120.854 62.6641,118.187 62.5,115.5 Z"/></g>
<g><path style="opacity:1" fill="#16392c" d="M 64.5,120.5 C 66.9372,120.756 69.2706,121.423 71.5,122.5C 72.2975,122.043 72.6309,121.376 72.5,120.5C 73.4731,122.948 73.8064,125.615 73.5,128.5C 71.8089,129.864 70.1423,131.197 68.5,132.5C 66.0648,128.942 64.7315,124.942 64.5,120.5 Z"/></g>
<g><path style="opacity:1" fill="#487a4d" d="M 80.5,117.5 C 83.1522,117.41 85.4855,118.076 87.5,119.5C 85.8008,119.34 84.1341,119.506 82.5,120C 86.3318,122.75 90.3318,125.25 94.5,127.5C 95.1067,127.376 95.44,127.043 95.5,126.5C 96.5,127.167 97.5,127.833 98.5,128.5C 99.9575,130.011 101.791,131.011 104,131.5C 104.47,132.577 104.303,133.577 103.5,134.5C 100.537,134.047 98.2037,132.547 96.5,130C 93.2321,128.85 89.8988,128.016 86.5,127.5C 85.0351,126.263 83.3684,125.263 81.5,124.5C 81.552,122.097 81.2186,119.764 80.5,117.5 Z"/></g>
<g><path style="opacity:1" fill="#7e9545" d="M 137.5,132.5 C 135.103,137.78 130.936,139.78 125,138.5C 119.452,139.469 114.952,137.803 111.5,133.5C 111.5,131.833 111.5,130.167 111.5,128.5C 112.249,127.469 112.915,126.302 113.5,125C 116.941,122.835 118.775,124.001 119,128.5C 122.468,126.21 126.135,125.544 130,126.5C 131.739,124.717 133.572,123.05 135.5,121.5C 136.192,122.025 136.692,122.692 137,123.5C 137.498,126.482 137.665,129.482 137.5,132.5 Z"/></g>
<g><path style="opacity:1" fill="#447f38" d="M 29.5,137.5 C 30.4916,137.328 31.1583,137.662 31.5,138.5C 25.3923,138.659 20.7257,136.325 17.5,131.5C 17.5,130.167 17.5,128.833 17.5,127.5C 18.8734,127.343 20.2068,127.51 21.5,128C 22.3333,130.167 23.8333,131.667 26,132.5C 26.3333,133.833 26.6667,135.167 27,136.5C 27.6708,137.252 28.5041,137.586 29.5,137.5 Z"/></g>
<g><path style="opacity:1" fill="#0e3230" d="M 57.5,125.5 C 58.1667,126.167 58.8333,126.833 59.5,127.5C 61.8161,132.803 64.1495,138.136 66.5,143.5C 57.5,143.5 48.5,143.5 39.5,143.5C 40.1224,141.878 41.1224,140.545 42.5,139.5C 48.1764,139.666 53.8431,139.499 59.5,139C 57.1667,138.667 54.8333,138.333 52.5,138C 49.5312,137.701 48.0312,136.201 48,133.5C 51.4561,132.452 52.9561,130.119 52.5,126.5C 53.9187,125.549 55.5853,125.216 57.5,125.5 Z"/></g>
<g><path style="opacity:1" fill="#112920" d="M 81.5,124.5 C 83.3684,125.263 85.0351,126.263 86.5,127.5C 89.6478,129.429 92.8145,131.429 96,133.5C 96.0038,135.368 95.5038,137.202 94.5,139C 95.4138,140.406 96.0805,141.906 96.5,143.5C 92.5,143.5 88.5,143.5 84.5,143.5C 83.392,137.185 82.392,130.852 81.5,124.5 Z"/></g>
<g><path style="opacity:1" fill="#264d37" d="M 110.5,113.5 C 110.833,113.5 111.167,113.5 111.5,113.5C 111.5,114.167 111.5,114.833 111.5,115.5C 111.5,119.833 111.5,124.167 111.5,128.5C 111.5,130.167 111.5,131.833 111.5,133.5C 111.5,135.5 111.5,137.5 111.5,139.5C 113.378,140.532 115.045,141.866 116.5,143.5C 112.167,143.5 107.833,143.5 103.5,143.5C 104.673,141.496 106.34,139.996 108.5,139C 106.34,138.004 104.673,136.504 103.5,134.5C 104.303,133.577 104.47,132.577 104,131.5C 101.791,131.011 99.9575,130.011 98.5,128.5C 99.9305,128.421 101.264,128.754 102.5,129.5C 103.474,127.257 103.808,124.924 103.5,122.5C 106.044,122.104 108.211,122.771 110,124.5C 110.499,120.848 110.665,117.182 110.5,113.5 Z"/></g>
<g><path style="opacity:1" fill="#152d23" d="M 161.5,124.5 C 161.5,125.167 161.5,125.833 161.5,126.5C 158.954,131.945 156.621,137.611 154.5,143.5C 152.833,143.5 151.167,143.5 149.5,143.5C 150.355,142.469 151.022,141.303 151.5,140C 149.551,137.536 147.217,135.703 144.5,134.5C 147.487,131.754 150.153,128.587 152.5,125C 155.548,125.578 158.548,125.411 161.5,124.5 Z"/></g>
<g><path style="opacity:1" fill="#365401" d="M 255.5,123.5 C 255.5,130.167 255.5,136.833 255.5,143.5C 252.5,143.5 249.5,143.5 246.5,143.5C 246.364,138.016 247.197,132.682 249,127.5C 249.333,127.833 249.667,128.167 250,128.5C 250.494,126.866 250.66,125.199 250.5,123.5C 252.167,123.5 253.833,123.5 255.5,123.5 Z"/></g>
<g><path style="opacity:1" fill="#336438" d="M 29.5,137.5 C 28.5041,137.586 27.6708,137.252 27,136.5C 26.6667,135.167 26.3333,133.833 26,132.5C 23.8333,131.667 22.3333,130.167 21.5,128C 20.2068,127.51 18.8734,127.343 17.5,127.5C 17.5,128.833 17.5,130.167 17.5,131.5C 14.1667,134.167 11.1667,137.167 8.5,140.5C 8.81335,137.753 8.48002,135.086 7.5,132.5C 4.92607,134.024 2.2594,135.358 -0.5,136.5C -0.5,135.167 -0.5,133.833 -0.5,132.5C 1.96874,131.431 4.30207,130.098 6.5,128.5C 9.1182,127.055 11.6182,125.389 14,123.5C 16.0266,123.986 18.1933,123.986 20.5,123.5C 21.1174,123.389 21.6174,123.056 22,122.5C 23.2727,125.441 25.2727,127.774 28,129.5C 28.5573,131.615 29.3906,133.615 30.5,135.5C 30.1373,136.183 29.8039,136.85 29.5,137.5 Z"/></g>
<g><path style="opacity:1" fill="#19382a" d="M 86.5,127.5 C 89.8988,128.016 93.2321,128.85 96.5,130C 98.2037,132.547 100.537,134.047 103.5,134.5C 104.673,136.504 106.34,138.004 108.5,139C 106.34,139.996 104.673,141.496 103.5,143.5C 101.167,143.5 98.8333,143.5 96.5,143.5C 96.0805,141.906 95.4138,140.406 94.5,139C 95.5038,137.202 96.0038,135.368 96,133.5C 92.8145,131.429 89.6478,129.429 86.5,127.5 Z"/></g>
<g><path style="opacity:1" fill="#476a18" d="M 161.5,126.5 C 160.69,129.383 160.69,132.217 161.5,135C 161.056,136.762 160.556,136.595 160,134.5C 158.278,137.279 157.111,140.279 156.5,143.5C 155.833,143.5 155.167,143.5 154.5,143.5C 156.621,137.611 158.954,131.945 161.5,126.5 Z"/></g>
<g><path style="opacity:1" fill="#285236" d="M 8.5,140.5 C 7.16667,141.167 6.16667,142.167 5.5,143.5C 3.5,143.5 1.5,143.5 -0.5,143.5C -0.5,141.167 -0.5,138.833 -0.5,136.5C 2.2594,135.358 4.92607,134.024 7.5,132.5C 8.48002,135.086 8.81335,137.753 8.5,140.5 Z"/></g>
<g><path style="opacity:1" fill="#20432d" d="M 139.5,129.5 C 140.855,132.768 142.688,133.102 145,130.5C 145.399,130.728 145.565,131.062 145.5,131.5C 144.89,132.391 144.557,133.391 144.5,134.5C 147.217,135.703 149.551,137.536 151.5,140C 151.022,141.303 150.355,142.469 149.5,143.5C 145.833,143.5 142.167,143.5 138.5,143.5C 138.5,142.167 138.5,140.833 138.5,139.5C 139.414,136.272 139.747,132.939 139.5,129.5 Z"/></g>
<g><path style="opacity:1" fill="#0f2c2b" d="M 73.5,128.5 C 75.1375,133.248 76.1375,138.248 76.5,143.5C 75.5,143.5 74.5,143.5 73.5,143.5C 71.5617,139.957 69.8951,136.29 68.5,132.5C 70.1423,131.197 71.8089,129.864 73.5,128.5 Z"/></g>
<g><path style="opacity:1" fill="#ceeba6" d="M 139.5,129.5 C 139.747,132.939 139.414,136.272 138.5,139.5C 135.833,139.5 133.167,139.5 130.5,139.5C 126.833,139.5 123.167,139.5 119.5,139.5C 116.833,139.5 114.167,139.5 111.5,139.5C 111.5,137.5 111.5,135.5 111.5,133.5C 114.952,137.803 119.452,139.469 125,138.5C 130.936,139.78 135.103,137.78 137.5,132.5C 138.167,131.5 138.833,130.5 139.5,129.5 Z"/></g>
<g><path style="opacity:1" fill="#8fe785" d="M 119.5,139.5 C 123.167,139.5 126.833,139.5 130.5,139.5C 129.766,140.708 129.433,142.041 129.5,143.5C 126.5,143.5 123.5,143.5 120.5,143.5C 119.766,142.292 119.433,140.959 119.5,139.5 Z"/></g>
<g><path style="opacity:1" fill="#96dd75" d="M 17.5,131.5 C 20.7257,136.325 25.3923,138.659 31.5,138.5C 32.1667,138.5 32.8333,138.5 33.5,138.5C 33.8333,138.5 34.1667,138.5 34.5,138.5C 30.7631,140.531 26.7631,142.198 22.5,143.5C 16.8333,143.5 11.1667,143.5 5.5,143.5C 6.16667,142.167 7.16667,141.167 8.5,140.5C 11.1667,137.167 14.1667,134.167 17.5,131.5 Z"/></g>
<g><path style="opacity:1" fill="#3b753b" d="M 130.5,139.5 C 133.167,139.5 135.833,139.5 138.5,139.5C 138.5,140.833 138.5,142.167 138.5,143.5C 135.5,143.5 132.5,143.5 129.5,143.5C 129.433,142.041 129.766,140.708 130.5,139.5 Z"/></g>
<g><path style="opacity:1" fill="#4b8548" d="M 111.5,139.5 C 114.167,139.5 116.833,139.5 119.5,139.5C 119.433,140.959 119.766,142.292 120.5,143.5C 119.167,143.5 117.833,143.5 116.5,143.5C 115.045,141.866 113.378,140.532 111.5,139.5 Z"/></g>
<g><path style="opacity:1" fill="#3b7346" d="M 34.5,138.5 C 35.4345,139.568 35.7678,140.901 35.5,142.5C 33.901,142.232 32.5676,142.566 31.5,143.5C 28.5,143.5 25.5,143.5 22.5,143.5C 26.7631,142.198 30.7631,140.531 34.5,138.5 Z"/></g>
</svg>
