<?xml version="1.0" encoding="UTF-8"?>
<!DOCTYPE svg PUBLIC "-//W3C//DTD SVG 1.1//EN" "http://www.w3.org/Graphics/SVG/1.1/DTD/svg11.dtd">
<svg xmlns="http://www.w3.org/2000/svg" version="1.1" width="256px" height="144px" style="shape-rendering:geometricPrecision; text-rendering:geometricPrecision; image-rendering:optimizeQuality; fill-rule:evenodd; clip-rule:evenodd" xmlns:xlink="http://www.w3.org/1999/xlink">
<g><path style="opacity:1" fill="#13232e" d="M 96.5,-0.5 C 101.5,-0.5 106.5,-0.5 111.5,-0.5C 111.953,0.458367 112.619,1.2917 113.5,2C 108.964,3.37886 104.297,3.87886 99.5,3.5C 99.1667,3.5 98.8333,3.5 98.5,3.5C 98.2671,1.93819 97.6005,0.60486 96.5,-0.5 Z"/></g>
<g><path style="opacity:1" fill="#2f1818" d="M 77.5,-0.5 C 79.5,-0.5 81.5,-0.5 83.5,-0.5C 85.1667,1.83333 87.1667,3.83333 89.5,5.5C 86.8333,6.83333 84.1667,8.16667 81.5,9.5C 78.6688,6.91216 77.3355,3.57883 77.5,-0.5 Z"/></g>
<g><path style="opacity:1" fill="#403f43" d="M 83.5,-0.5 C 87.8333,-0.5 92.1667,-0.5 96.5,-0.5C 97.6005,0.60486 98.2671,1.93819 98.5,3.5C 95.4606,4.00997 92.4606,4.67664 89.5,5.5C 87.1667,3.83333 85.1667,1.83333 83.5,-0.5 Z"/></g>
<g><path style="opacity:1" fill="#b3bacc" d="M 43.5,-0.5 C 46.8333,-0.5 50.1667,-0.5 53.5,-0.5C 53.5,0.166667 53.5,0.833333 53.5,1.5C 53.8333,4.16667 54.1667,6.83333 54.5,9.5C 53.5,9.5 52.5,9.5 51.5,9.5C 49.2437,5.90259 46.5771,2.56926 43.5,-0.5 Z"/></g>
<g><path style="opacity:1" fill="#0f1f2a" d="M -0.5,-0.5 C 14.1667,-0.5 28.8333,-0.5 43.5,-0.5C 46.5771,2.56926 49.2437,5.90259 51.5,9.5C 52.1237,11.754 53.457,13.4206 55.5,14.5C 56.8333,15.8333 58.1667,17.1667 59.5,18.5C 58.9569,18.56 58.6236,18.8933 58.5,19.5C 60.8559,20.6539 61.0226,21.9873 59,23.5C 55.7053,22.4685 53.0387,23.4685 51,26.5C 49.324,25.9389 47.9906,24.9389 47,23.5C 45.2784,23.9615 43.445,24.1282 41.5,24C 40.8742,24.7504 40.3742,25.5838 40,26.5C 37.7635,25.9437 35.7635,24.9437 34,23.5C 33.3457,24.6956 32.8457,24.6956 32.5,23.5C 33.376,22.7492 34.376,22.2492 35.5,22C 32.7606,20.8265 30.2606,19.9932 28,19.5C 27.3086,21.8912 26.3086,21.8912 25,19.5C 24.6667,20.1667 24.3333,20.8333 24,21.5C 18.7294,20.9643 13.3961,20.2976 8,19.5C 5.54862,21.5948 2.71529,22.5948 -0.5,22.5C -0.5,14.8333 -0.5,7.16667 -0.5,-0.5 Z"/></g>
<g><path style="opacity:1" fill="#580e10" d="M 185.5,-0.5 C 196.5,-0.5 207.5,-0.5 218.5,-0.5C 216.523,1.81382 214.523,4.14715 212.5,6.5C 214.396,7.46557 216.396,7.7989 218.5,7.5C 217.948,9.33073 217.948,10.9974 218.5,12.5C 217.281,16.3945 215.614,20.0611 213.5,23.5C 210.694,20.2721 207.694,17.2721 204.5,14.5C 202.784,14.0028 201.117,13.6694 199.5,13.5C 200.025,12.8076 200.692,12.3076 201.5,12C 199.726,11.1192 199.06,9.95252 199.5,8.5C 198.006,11.0542 196.34,13.3876 194.5,15.5C 193.687,14.3473 192.687,14.3473 191.5,15.5C 190.573,13.8872 189.739,12.2205 189,10.5C 189.337,14.1827 187.837,16.516 184.5,17.5C 184.149,12.5637 184.816,7.56367 186.5,2.5C 186.315,1.41635 185.982,0.416349 185.5,-0.5 Z"/></g>
<g><path style="opacity:1" fill="#3a3645" d="M 111.5,-0.5 C 114.833,-0.5 118.167,-0.5 121.5,-0.5C 113.7,5.24001 105.366,10.24 96.5,14.5C 95.2617,14.19 95.2617,13.69 96.5,13C 100.381,11.599 103.047,9.09901 104.5,5.5C 105.873,5.65668 107.207,5.49001 108.5,5C 105.305,4.81948 102.305,4.31948 99.5,3.5C 104.297,3.87886 108.964,3.37886 113.5,2C 112.619,1.2917 111.953,0.458367 111.5,-0.5 Z"/></g>
<g><path style="opacity:1" fill="#cdaed5" d="M 137.5,-0.5 C 141.167,-0.5 144.833,-0.5 148.5,-0.5C 148.357,1.26241 148.691,2.92908 149.5,4.5C 148.603,4.66906 147.603,5.00239 146.5,5.5C 145.811,7.44397 145.311,9.44397 145,11.5C 143.43,10.386 142.097,9.05264 141,7.5C 140.28,9.11238 140.446,10.6124 141.5,12C 140.5,12.3333 139.5,12.6667 138.5,13C 141.02,14.6971 143.353,16.5305 145.5,18.5C 141.833,17.1667 138.167,15.8333 134.5,14.5C 133.29,14.0679 132.29,13.4013 131.5,12.5C 135.584,13.0547 136.251,12.0547 133.5,9.5C 136.167,7.16667 136.167,4.83333 133.5,2.5C 134.391,1.41043 135.391,1.41043 136.5,2.5C 137.386,1.67504 137.719,0.675044 137.5,-0.5 Z"/></g>
<g><path style="opacity:1" fill="#342022" d="M 72.5,14.5 C 70.8615,15.9136 69.5282,15.5803 68.5,13.5C 67.5,14.8333 66.5,14.8333 65.5,13.5C 64.7025,13.9569 64.3691,14.6236 64.5,15.5C 63.8333,15.8333 63.1667,16.1667 62.5,16.5C 61.5416,16.0472 60.7083,15.3805 60,14.5C 59.3333,10.5 59.3333,6.5 60,2.5C 62.5551,0.350445 65.3884,0.0171122 68.5,1.5C 70.6558,3.49043 72.6558,5.65709 74.5,8C 73.1667,8.66667 73.1667,9.33333 74.5,10C 73.062,10.2189 71.7287,10.7189 70.5,11.5C 71.6119,12.2652 72.2786,13.2652 72.5,14.5 Z"/></g>
<g><path style="opacity:1" fill="#7a1011" d="M 159.5,-0.5 C 168.167,-0.5 176.833,-0.5 185.5,-0.5C 185.982,0.416349 186.315,1.41635 186.5,2.5C 184.816,7.56367 184.149,12.5637 184.5,17.5C 184.672,18.4916 184.338,19.1583 183.5,19.5C 182.737,18.7321 181.737,18.2321 180.5,18C 181.167,17.6667 181.833,17.3333 182.5,17C 181.897,15.1746 181.23,13.3413 180.5,11.5C 178.085,8.9198 175.251,6.9198 172,5.5C 171.692,6.30806 171.192,6.97473 170.5,7.5C 169.154,5.98663 167.654,4.65329 166,3.5C 164.941,3.63008 164.108,4.13008 163.5,5C 166.189,7.6949 169.189,10.0282 172.5,12C 171.675,13.6883 170.675,13.8549 169.5,12.5C 168.808,13.0253 168.308,13.6919 168,14.5C 166.667,13.1667 165.333,11.8333 164,10.5C 163.329,11.2524 162.496,11.5858 161.5,11.5C 160.859,10.5178 160.193,9.51776 159.5,8.5C 160.616,8.59801 161.616,8.09801 162.5,7C 161.013,4.70922 160.013,2.20922 159.5,-0.5 Z"/></g>
<g><path style="opacity:1" fill="#564861" d="M 53.5,-0.5 C 61.5,-0.5 69.5,-0.5 77.5,-0.5C 77.3355,3.57883 78.6688,6.91216 81.5,9.5C 78.7282,11.3904 75.7282,13.057 72.5,14.5C 72.2786,13.2652 71.6119,12.2652 70.5,11.5C 71.7287,10.7189 73.062,10.2189 74.5,10C 73.1667,9.33333 73.1667,8.66667 74.5,8C 72.6558,5.65709 70.6558,3.49043 68.5,1.5C 65.3884,0.0171122 62.5551,0.350445 60,2.5C 59.3333,6.5 59.3333,10.5 60,14.5C 60.7083,15.3805 61.5416,16.0472 62.5,16.5C 62.0269,17.9063 61.0269,18.573 59.5,18.5C 58.1667,17.1667 56.8333,15.8333 55.5,14.5C 56.6378,11.6965 56.8045,8.69646 56,5.5C 55.7996,3.68034 54.9663,2.347 53.5,1.5C 53.5,0.833333 53.5,0.166667 53.5,-0.5 Z"/></g>
<g><path style="opacity:1" fill="#8d8ea9" d="M 53.5,1.5 C 54.9663,2.347 55.7996,3.68034 56,5.5C 56.8045,8.69646 56.6378,11.6965 55.5,14.5C 53.457,13.4206 52.1237,11.754 51.5,9.5C 52.5,9.5 53.5,9.5 54.5,9.5C 54.1667,6.83333 53.8333,4.16667 53.5,1.5 Z"/></g>
<g><path style="opacity:1" fill="#8f3c38" d="M 155.5,-0.5 C 156.833,-0.5 158.167,-0.5 159.5,-0.5C 160.013,2.20922 161.013,4.70922 162.5,7C 161.616,8.09801 160.616,8.59801 159.5,8.5C 160.193,9.51776 160.859,10.5178 161.5,11.5C 162.648,14.2895 163.981,16.9561 165.5,19.5C 163.589,18.925 161.922,17.925 160.5,16.5C 160.095,13.0135 159.095,9.68013 157.5,6.5C 158.025,5.80762 158.692,5.30762 159.5,5C 157.898,3.35839 156.565,1.52505 155.5,-0.5 Z"/></g>
<g><path style="opacity:1" fill="#08131a" d="M 255.5,4.5 C 255.5,13.1667 255.5,21.8333 255.5,30.5C 251.122,26.1007 247.455,21.1007 244.5,15.5C 243.398,14.8243 242.398,14.1577 241.5,13.5C 243.909,12.2993 245.909,10.6326 247.5,8.5C 250.167,7.16667 252.833,5.83333 255.5,4.5 Z"/></g>
<g><path style="opacity:1" fill="#b67675" d="M 247.5,8.5 C 245.909,10.6326 243.909,12.2993 241.5,13.5C 238.738,15.5958 235.738,17.2625 232.5,18.5C 236.976,14.4254 241.976,11.0921 247.5,8.5 Z"/></g>
<g><path style="opacity:1" fill="#eedff7" d="M 121.5,-0.5 C 126.833,-0.5 132.167,-0.5 137.5,-0.5C 137.719,0.675044 137.386,1.67504 136.5,2.5C 135.391,1.41043 134.391,1.41043 133.5,2.5C 136.167,4.83333 136.167,7.16667 133.5,9.5C 136.251,12.0547 135.584,13.0547 131.5,12.5C 128.222,10.8933 125.222,11.2267 122.5,13.5C 122.44,12.9569 122.107,12.6236 121.5,12.5C 119.116,14.0514 116.616,15.3847 114,16.5C 112.437,15.8979 112.604,15.0646 114.5,14C 112.155,13.8301 109.821,14.1635 107.5,15C 106.874,15.7504 106.374,16.5838 106,17.5C 104.184,17.6491 102.351,17.6491 100.5,17.5C 102.031,16.0755 101.698,15.4088 99.5,15.5C 98.5,15.5 97.5,15.5 96.5,15.5C 96.5,15.1667 96.5,14.8333 96.5,14.5C 105.366,10.24 113.7,5.24001 121.5,-0.5 Z"/></g>
<g><path style="opacity:1" fill="#af8991" d="M 131.5,12.5 C 132.29,13.4013 133.29,14.0679 134.5,14.5C 132.156,14.9397 130.156,15.9397 128.5,17.5C 127.167,16.5 125.833,15.5 124.5,14.5C 123.833,14.5 123.167,14.5 122.5,14.5C 122.5,14.1667 122.5,13.8333 122.5,13.5C 125.222,11.2267 128.222,10.8933 131.5,12.5 Z"/></g>
<g><path style="opacity:1" fill="#6f1113" d="M 183.5,19.5 C 182.4,20.6049 181.733,21.9382 181.5,23.5C 175.775,27.6552 170.442,27.1552 165.5,22C 166.598,21.2303 166.598,20.397 165.5,19.5C 163.981,16.9561 162.648,14.2895 161.5,11.5C 162.496,11.5858 163.329,11.2524 164,10.5C 165.333,11.8333 166.667,13.1667 168,14.5C 168.308,13.6919 168.808,13.0253 169.5,12.5C 170.675,13.8549 171.675,13.6883 172.5,12C 169.189,10.0282 166.189,7.6949 163.5,5C 164.108,4.13008 164.941,3.63008 166,3.5C 167.654,4.65329 169.154,5.98663 170.5,7.5C 171.192,6.97473 171.692,6.30806 172,5.5C 175.251,6.9198 178.085,8.9198 180.5,11.5C 181.23,13.3413 181.897,15.1746 182.5,17C 181.833,17.3333 181.167,17.6667 180.5,18C 181.737,18.2321 182.737,18.7321 183.5,19.5 Z"/></g>
<g><path style="opacity:1" fill="#681516" d="M 218.5,-0.5 C 230.833,-0.5 243.167,-0.5 255.5,-0.5C 255.5,1.16667 255.5,2.83333 255.5,4.5C 252.833,5.83333 250.167,7.16667 247.5,8.5C 241.976,11.0921 236.976,14.4254 232.5,18.5C 229.738,19.3795 227.071,20.5462 224.5,22C 222.996,23.4907 222.163,25.324 222,27.5C 221.617,26.944 221.117,26.6107 220.5,26.5C 219.359,25.661 218.026,24.9943 216.5,24.5C 215.702,24.9569 215.369,25.6236 215.5,26.5C 213.753,27.9807 212.586,29.9807 212,32.5C 211.667,31.1667 211.333,29.8333 211,28.5C 210.667,28.8333 210.333,29.1667 210,29.5C 209.5,28.3333 208.667,27.5 207.5,27C 208.938,26.7811 210.271,26.2811 211.5,25.5C 210.354,24.2813 209.354,22.9479 208.5,21.5C 206.668,23.9572 205.001,23.9572 203.5,21.5C 201.604,20.5344 199.604,20.2011 197.5,20.5C 197.298,19.6364 196.964,18.6364 196.5,17.5C 194.786,18.6085 194.119,17.9418 194.5,15.5C 196.34,13.3876 198.006,11.0542 199.5,8.5C 199.06,9.95252 199.726,11.1192 201.5,12C 200.692,12.3076 200.025,12.8076 199.5,13.5C 201.117,13.6694 202.784,14.0028 204.5,14.5C 207.694,17.2721 210.694,20.2721 213.5,23.5C 215.614,20.0611 217.281,16.3945 218.5,12.5C 217.948,10.9974 217.948,9.33073 218.5,7.5C 216.396,7.7989 214.396,7.46557 212.5,6.5C 214.523,4.14715 216.523,1.81382 218.5,-0.5 Z"/></g>
<g><path style="opacity:1" fill="#a9868d" d="M 148.5,-0.5 C 149.167,-0.5 149.833,-0.5 150.5,-0.5C 150.063,2.80662 150.73,5.80662 152.5,8.5C 151.358,11.3992 150.692,14.3992 150.5,17.5C 147.001,17.259 146.668,18.0924 149.5,20C 147.86,20.3478 146.527,19.8478 145.5,18.5C 143.353,16.5305 141.02,14.6971 138.5,13C 139.5,12.6667 140.5,12.3333 141.5,12C 140.446,10.6124 140.28,9.11238 141,7.5C 142.097,9.05264 143.43,10.386 145,11.5C 145.311,9.44397 145.811,7.44397 146.5,5.5C 147.603,5.00239 148.603,4.66906 149.5,4.5C 148.691,2.92908 148.357,1.26241 148.5,-0.5 Z"/></g>
<g><path style="opacity:1" fill="#c8a5a7" d="M 96.5,15.5 C 97.5,15.5 98.5,15.5 99.5,15.5C 96.3119,17.9319 93.3119,20.5985 90.5,23.5C 89.2485,25.0009 88.2485,26.6675 87.5,28.5C 86.291,26.5654 86.4577,24.5654 88,22.5C 90.4356,19.5532 93.2689,17.2199 96.5,15.5 Z"/></g>
<g><path style="opacity:1" fill="#0c1922" d="M 64.5,15.5 C 65.9314,17.437 67.5981,19.2703 69.5,21C 63.3402,25.5804 57.0069,29.9138 50.5,34C 46.1667,35 41.8333,36 37.5,37C 39.1667,38.1667 40.8333,39.3333 42.5,40.5C 46.1309,39.6479 49.7976,38.9812 53.5,38.5C 54.2389,38.369 54.9056,38.5357 55.5,39C 49.118,48.4222 40.118,52.5889 28.5,51.5C 26.742,51.1231 25.0754,50.4565 23.5,49.5C 21.7049,50.2651 19.8716,50.9318 18,51.5C 17.0546,51.0946 16.3879,50.428 16,49.5C 15.4309,53.3605 14.5976,53.3605 13.5,49.5C 11.259,50.6399 9.09233,50.6399 7,49.5C 6.66667,50.1667 6.33333,50.8333 6,51.5C 4.16667,51.3333 2.33333,51.1667 0.5,51C 1.566,52.159 1.23267,52.9924 -0.5,53.5C -0.5,43.1667 -0.5,32.8333 -0.5,22.5C 2.71529,22.5948 5.54862,21.5948 8,19.5C 13.3961,20.2976 18.7294,20.9643 24,21.5C 24.3333,20.8333 24.6667,20.1667 25,19.5C 26.3086,21.8912 27.3086,21.8912 28,19.5C 30.2606,19.9932 32.7606,20.8265 35.5,22C 34.376,22.2492 33.376,22.7492 32.5,23.5C 32.8457,24.6956 33.3457,24.6956 34,23.5C 35.7635,24.9437 37.7635,25.9437 40,26.5C 40.3742,25.5838 40.8742,24.7504 41.5,24C 43.445,24.1282 45.2784,23.9615 47,23.5C 47.9906,24.9389 49.324,25.9389 51,26.5C 53.0387,23.4685 55.7053,22.4685 59,23.5C 61.0226,21.9873 60.8559,20.6539 58.5,19.5C 58.6236,18.8933 58.9569,18.56 59.5,18.5C 61.0269,18.573 62.0269,17.9063 62.5,16.5C 63.1667,16.1667 63.8333,15.8333 64.5,15.5 Z"/></g>
<g><path style="opacity:1" fill="#785657" d="M 150.5,-0.5 C 151.833,-0.5 153.167,-0.5 154.5,-0.5C 155.03,3.28486 156.03,6.95153 157.5,10.5C 155.034,14.8983 153.368,19.565 152.5,24.5C 151.549,25.9187 151.216,27.5853 151.5,29.5C 149.697,26.8362 148.03,24.0029 146.5,21C 144.26,19.1929 141.927,19.0262 139.5,20.5C 138.878,19.3734 138.045,18.3734 137,17.5C 136.115,20.538 136.615,23.2046 138.5,25.5C 139.5,28.1667 140.5,30.8333 141.5,33.5C 138.959,29.7482 135.959,26.4148 132.5,23.5C 131.54,21.5393 130.207,19.8726 128.5,18.5C 128.5,18.1667 128.5,17.8333 128.5,17.5C 130.156,15.9397 132.156,14.9397 134.5,14.5C 138.167,15.8333 141.833,17.1667 145.5,18.5C 146.527,19.8478 147.86,20.3478 149.5,20C 146.668,18.0924 147.001,17.259 150.5,17.5C 150.692,14.3992 151.358,11.3992 152.5,8.5C 150.73,5.80662 150.063,2.80662 150.5,-0.5 Z"/></g>
<g><path style="opacity:1" fill="#6f4243" d="M 98.5,3.5 C 98.8333,3.5 99.1667,3.5 99.5,3.5C 102.305,4.31948 105.305,4.81948 108.5,5C 107.207,5.49001 105.873,5.65668 104.5,5.5C 103.047,9.09901 100.381,11.599 96.5,13C 95.2617,13.69 95.2617,14.19 96.5,14.5C 96.5,14.8333 96.5,15.1667 96.5,15.5C 93.2689,17.2199 90.4356,19.5532 88,22.5C 86.4577,24.5654 86.291,26.5654 87.5,28.5C 85.2354,32.8347 81.5687,35.168 76.5,35.5C 77.643,32.8851 78.4763,30.2184 79,27.5C 76.4393,28.2341 74.2726,29.5675 72.5,31.5C 71.2876,32.2299 70.2876,33.2299 69.5,34.5C 67.9579,35.7468 66.4579,35.7468 65,34.5C 64.3333,35.1667 63.6667,35.8333 63,36.5C 63.2218,34.5436 64.0552,32.7103 65.5,31C 65.1667,30.8333 64.8333,30.6667 64.5,30.5C 60.7915,33.2233 57.1249,35.8899 53.5,38.5C 49.7976,38.9812 46.1309,39.6479 42.5,40.5C 40.8333,39.3333 39.1667,38.1667 37.5,37C 41.8333,36 46.1667,35 50.5,34C 57.0069,29.9138 63.3402,25.5804 69.5,21C 67.5981,19.2703 65.9314,17.437 64.5,15.5C 64.3691,14.6236 64.7025,13.9569 65.5,13.5C 66.5,14.8333 67.5,14.8333 68.5,13.5C 69.5282,15.5803 70.8615,15.9136 72.5,14.5C 75.7282,13.057 78.7282,11.3904 81.5,9.5C 84.1667,8.16667 86.8333,6.83333 89.5,5.5C 92.4606,4.67664 95.4606,4.00997 98.5,3.5 Z"/></g>
<g><path style="opacity:1" fill="#9a76a7" d="M 139.5,20.5 C 139.5,20.8333 139.5,21.1667 139.5,21.5C 138.566,22.5676 138.232,23.901 138.5,25.5C 136.615,23.2046 136.115,20.538 137,17.5C 138.045,18.3734 138.878,19.3734 139.5,20.5 Z"/></g>
<g><path style="opacity:1" fill="#c02f2b" d="M 154.5,-0.5 C 154.833,-0.5 155.167,-0.5 155.5,-0.5C 156.565,1.52505 157.898,3.35839 159.5,5C 158.692,5.30762 158.025,5.80762 157.5,6.5C 159.095,9.68013 160.095,13.0135 160.5,16.5C 159.518,15.8592 158.518,15.1925 157.5,14.5C 156.058,16.316 155.558,18.316 156,20.5C 157.016,19.3659 157.683,19.6992 158,21.5C 158.333,20.5 158.667,19.5 159,18.5C 161.198,20.8455 163.364,23.1789 165.5,25.5C 164.91,26.7989 163.91,27.6322 162.5,28C 164.058,28.21 165.391,28.71 166.5,29.5C 166.5,29.8333 166.5,30.1667 166.5,30.5C 165.5,30.8333 164.833,31.5 164.5,32.5C 163.732,33.2625 163.232,34.2625 163,35.5C 162.722,34.5842 162.222,33.9175 161.5,33.5C 160.763,31.6954 159.763,30.0287 158.5,28.5C 157.509,32.4454 157.176,36.4454 157.5,40.5C 156.957,40.56 156.624,40.8933 156.5,41.5C 158.914,45.9958 161.581,50.3291 164.5,54.5C 162.883,53.962 161.216,53.6287 159.5,53.5C 159.5,55.1667 159.5,56.8333 159.5,58.5C 158.839,59.7175 158.172,61.0508 157.5,62.5C 153.369,57.5045 152.369,51.8378 154.5,45.5C 152.777,38.6985 152.11,31.6985 152.5,24.5C 153.368,19.565 155.034,14.8983 157.5,10.5C 156.03,6.95153 155.03,3.28486 154.5,-0.5 Z"/></g>
<g><path style="opacity:1" fill="#6c4343" d="M 99.5,15.5 C 101.698,15.4088 102.031,16.0755 100.5,17.5C 95.795,19.2005 93.4617,22.5339 93.5,27.5C 92.8333,28.1667 92.1667,28.8333 91.5,29.5C 91.7947,27.2646 91.4614,25.2646 90.5,23.5C 93.3119,20.5985 96.3119,17.9319 99.5,15.5 Z"/></g>
<g><path style="opacity:1" fill="#adb0e8" d="M 124.5,14.5 C 125.833,15.5 127.167,16.5 128.5,17.5C 128.5,17.8333 128.5,18.1667 128.5,18.5C 127.417,18.4606 126.417,18.1272 125.5,17.5C 125.167,18 124.833,18.5 124.5,19C 126.819,21.989 129.153,24.989 131.5,28C 130.906,28.4643 130.239,28.631 129.5,28.5C 129.672,27.5084 129.338,26.8417 128.5,26.5C 127.292,23.9558 125.292,22.6225 122.5,22.5C 123.167,19.8333 123.833,17.1667 124.5,14.5 Z"/></g>
<g><path style="opacity:1" fill="#6776b0" d="M 128.5,18.5 C 130.207,19.8726 131.54,21.5393 132.5,23.5C 134.461,26.6411 136.128,29.9745 137.5,33.5C 136.637,34.7264 136.637,36.0597 137.5,37.5C 135.605,36.027 133.939,34.3603 132.5,32.5C 131.5,31.1667 130.5,29.8333 129.5,28.5C 130.239,28.631 130.906,28.4643 131.5,28C 129.153,24.989 126.819,21.989 124.5,19C 124.833,18.5 125.167,18 125.5,17.5C 126.417,18.1272 127.417,18.4606 128.5,18.5 Z"/></g>
<g><path style="opacity:1" fill="#f8eefc" d="M 122.5,13.5 C 122.5,13.8333 122.5,14.1667 122.5,14.5C 110.91,19.2679 104.41,27.9346 103,40.5C 102.051,42.0931 100.885,43.4264 99.5,44.5C 97.8372,42.5615 97.1706,40.2282 97.5,37.5C 97.4698,33.7211 98.4698,30.2211 100.5,27C 100.333,26.5 100.167,26 100,25.5C 98.6244,26.7051 97.4577,28.0384 96.5,29.5C 94.8212,29.7148 93.8212,29.0481 93.5,27.5C 93.4617,22.5339 95.795,19.2005 100.5,17.5C 102.351,17.6491 104.184,17.6491 106,17.5C 106.374,16.5838 106.874,15.7504 107.5,15C 109.821,14.1635 112.155,13.8301 114.5,14C 112.604,15.0646 112.437,15.8979 114,16.5C 116.616,15.3847 119.116,14.0514 121.5,12.5C 122.107,12.6236 122.44,12.9569 122.5,13.5 Z"/></g>
<g><path style="opacity:1" fill="#20272d" d="M 241.5,13.5 C 242.398,14.1577 243.398,14.8243 244.5,15.5C 247.455,21.1007 251.122,26.1007 255.5,30.5C 255.5,33.1667 255.5,35.8333 255.5,38.5C 254.691,40.2922 254.191,42.2922 254,44.5C 252.129,42.9352 250.296,42.2685 248.5,42.5C 249.032,44.7411 250.365,46.2411 252.5,47C 250.324,47.1629 248.491,47.9963 247,49.5C 245.701,49.0338 244.201,49.0338 242.5,49.5C 242.798,46.6644 242.131,46.1644 240.5,48C 240.833,48.3333 241.167,48.6667 241.5,49C 240.167,49.3333 238.833,49.6667 237.5,50C 237.957,50.414 238.291,50.914 238.5,51.5C 236.851,52.1476 235.518,53.1476 234.5,54.5C 233.349,55.731 232.183,55.731 231,54.5C 229.847,56.497 228.347,56.8304 226.5,55.5C 227.63,54.3777 228.297,53.0443 228.5,51.5C 230.428,49.2192 231.428,46.5525 231.5,43.5C 229.833,43.5 228.167,43.5 226.5,43.5C 226.768,41.901 226.434,40.5676 225.5,39.5C 225.5,37.5 225.5,35.5 225.5,33.5C 224.992,30.6114 224.325,27.7781 223.5,25C 226.567,22.8118 229.567,20.6452 232.5,18.5C 235.738,17.2625 238.738,15.5958 241.5,13.5 Z"/></g>
<g><path style="opacity:1" fill="#7b2f2b" d="M 220.5,26.5 C 222.317,28.0122 223.317,30.0122 223.5,32.5C 223.5,32.8333 223.5,33.1667 223.5,33.5C 222.883,33.3893 222.383,33.056 222,32.5C 220.816,35.9419 219.65,39.2752 218.5,42.5C 217.679,39.3586 217.179,36.0252 217,32.5C 216.617,33.056 216.117,33.3893 215.5,33.5C 214.897,31.3743 214.897,29.0409 215.5,26.5C 215.369,25.6236 215.702,24.9569 216.5,24.5C 218.026,24.9943 219.359,25.661 220.5,26.5 Z"/></g>
<g><path style="opacity:1" fill="#b43c3c" d="M 160.5,16.5 C 161.922,17.925 163.589,18.925 165.5,19.5C 166.598,20.397 166.598,21.2303 165.5,22C 170.442,27.1552 175.775,27.6552 181.5,23.5C 183.472,21.6815 185.805,20.6815 188.5,20.5C 190.334,25.117 193.001,29.2837 196.5,33C 182.411,33.1698 182.078,35.5031 195.5,40C 192.901,40.769 190.401,40.6023 188,39.5C 187.29,40.9733 186.124,41.6399 184.5,41.5C 184.374,43.1998 183.707,44.6998 182.5,46C 182.989,47.1385 183.322,48.3052 183.5,49.5C 181.706,44.2132 179.539,38.8799 177,33.5C 174.303,30.1295 170.803,28.7962 166.5,29.5C 165.391,28.71 164.058,28.21 162.5,28C 163.91,27.6322 164.91,26.7989 165.5,25.5C 163.364,23.1789 161.198,20.8455 159,18.5C 158.667,19.5 158.333,20.5 158,21.5C 157.683,19.6992 157.016,19.3659 156,20.5C 155.558,18.316 156.058,16.316 157.5,14.5C 158.518,15.1925 159.518,15.8592 160.5,16.5 Z"/></g>
<g><path style="opacity:1" fill="#85497d" d="M 128.5,26.5 C 129.338,26.8417 129.672,27.5084 129.5,28.5C 128.13,28.8565 127.13,29.6898 126.5,31C 125.965,33.9956 125.298,36.8289 124.5,39.5C 124.173,34.7863 124.507,30.1196 125.5,25.5C 126.417,26.1272 127.417,26.4606 128.5,26.5 Z"/></g>
<g><path style="opacity:1" fill="#7b1012" d="M 197.5,20.5 C 199.604,20.2011 201.604,20.5344 203.5,21.5C 205.001,23.9572 206.668,23.9572 208.5,21.5C 209.354,22.9479 210.354,24.2813 211.5,25.5C 210.271,26.2811 208.938,26.7811 207.5,27C 208.667,27.5 209.5,28.3333 210,29.5C 210.333,29.1667 210.667,28.8333 211,28.5C 211.333,29.8333 211.667,31.1667 212,32.5C 212.586,29.9807 213.753,27.9807 215.5,26.5C 214.897,29.0409 214.897,31.3743 215.5,33.5C 214.042,35.0108 212.209,36.0108 210,36.5C 209.282,35.5494 208.449,35.3828 207.5,36C 208.184,37.6934 209.184,39.1934 210.5,40.5C 209.24,41.3816 208.074,42.3816 207,43.5C 206.774,40.905 206.274,38.405 205.5,36C 201.833,35.6667 198.167,35.3333 194.5,35C 197.882,34.8236 201.215,34.3236 204.5,33.5C 202.083,32.9278 199.916,31.9278 198,30.5C 197.984,27.0594 197.817,23.7261 197.5,20.5 Z"/></g>
<g><path style="opacity:1" fill="#9f6e79" d="M 232.5,18.5 C 229.567,20.6452 226.567,22.8118 223.5,25C 224.325,27.7781 224.992,30.6114 225.5,33.5C 224.833,33.1667 224.167,32.8333 223.5,32.5C 223.317,30.0122 222.317,28.0122 220.5,26.5C 221.117,26.6107 221.617,26.944 222,27.5C 222.163,25.324 222.996,23.4907 224.5,22C 227.071,20.5462 229.738,19.3795 232.5,18.5 Z"/></g>
<g><path style="opacity:1" fill="#ac8c96" d="M 151.5,29.5 C 151.599,32.2372 151.265,34.9039 150.5,37.5C 149.883,37.6107 149.383,37.944 149,38.5C 147.018,46.4575 145.018,54.4575 143,62.5C 142.148,63.5707 141.315,64.5707 140.5,65.5C 140.851,62.7623 141.518,60.0956 142.5,57.5C 142.161,51.0088 142.161,44.6754 142.5,38.5C 141.962,36.8828 141.629,35.2161 141.5,33.5C 142.458,33.9528 143.292,34.6195 144,35.5C 143.996,39.1921 144.996,42.5254 147,45.5C 147.614,36.4267 145.114,28.4267 139.5,21.5C 139.5,21.1667 139.5,20.8333 139.5,20.5C 141.927,19.0262 144.26,19.1929 146.5,21C 148.03,24.0029 149.697,26.8362 151.5,29.5 Z"/></g>
<g><path style="opacity:1" fill="#d4a689" d="M 166.5,30.5 C 168.621,30.3253 170.621,30.6586 172.5,31.5C 172.5,31.8333 172.5,32.1667 172.5,32.5C 169.05,31.7564 167.384,33.0897 167.5,36.5C 166.5,36.5 165.5,36.5 164.5,36.5C 164.5,35.1667 164.5,33.8333 164.5,32.5C 164.833,31.5 165.5,30.8333 166.5,30.5 Z"/></g>
<g><path style="opacity:1" fill="#513233" d="M 97.5,37.5 C 96.8826,37.6107 96.3826,37.944 96,38.5C 95.2642,35.408 95.4309,32.408 96.5,29.5C 97.4577,28.0384 98.6244,26.7051 100,25.5C 100.167,26 100.333,26.5 100.5,27C 98.4698,30.2211 97.4698,33.7211 97.5,37.5 Z"/></g>
<g><path style="opacity:1" fill="#442a22" d="M 72.5,31.5 C 73.0906,32.1515 73.7573,32.8182 74.5,33.5C 72.1333,36.3471 69.1333,38.1804 65.5,39C 61.6119,44.3896 56.9452,48.8896 51.5,52.5C 50.6143,53.325 50.281,54.325 50.5,55.5C 48.7839,55.6287 47.1172,55.962 45.5,56.5C 44.8333,56.5 44.1667,56.5 43.5,56.5C 37.4245,57.6279 32.4245,55.9612 28.5,51.5C 40.118,52.5889 49.118,48.4222 55.5,39C 54.9056,38.5357 54.2389,38.369 53.5,38.5C 57.1249,35.8899 60.7915,33.2233 64.5,30.5C 64.8333,30.6667 65.1667,30.8333 65.5,31C 64.0552,32.7103 63.2218,34.5436 63,36.5C 63.6667,35.8333 64.3333,35.1667 65,34.5C 66.4579,35.7468 67.9579,35.7468 69.5,34.5C 70.2876,33.2299 71.2876,32.2299 72.5,31.5 Z"/></g>
<g><path style="opacity:1" fill="#65333d" d="M 129.5,28.5 C 130.5,29.8333 131.5,31.1667 132.5,32.5C 132.649,35.9653 130.982,37.9653 127.5,38.5C 126.824,39.6016 126.158,40.6016 125.5,41.5C 124.662,41.1583 124.328,40.4916 124.5,39.5C 125.298,36.8289 125.965,33.9956 126.5,31C 127.13,29.6898 128.13,28.8565 129.5,28.5 Z"/></g>
<g><path style="opacity:1" fill="#d68f51" d="M 166.5,30.5 C 166.5,30.1667 166.5,29.8333 166.5,29.5C 170.803,28.7962 174.303,30.1295 177,33.5C 179.539,38.8799 181.706,44.2132 183.5,49.5C 184.5,50.8333 185.5,52.1667 186.5,53.5C 184.956,53.2969 183.622,52.6302 182.5,51.5C 181.893,51.6236 181.56,51.9569 181.5,52.5C 180.655,51.3285 179.989,49.9952 179.5,48.5C 179.822,44.253 178.989,40.253 177,36.5C 176.004,34.3395 174.504,32.6728 172.5,31.5C 170.621,30.6586 168.621,30.3253 166.5,30.5 Z"/></g>
<g><path style="opacity:1" fill="#dac7ea" d="M 139.5,21.5 C 145.114,28.4267 147.614,36.4267 147,45.5C 144.996,42.5254 143.996,39.1921 144,35.5C 143.292,34.6195 142.458,33.9528 141.5,33.5C 140.5,30.8333 139.5,28.1667 138.5,25.5C 138.232,23.901 138.566,22.5676 139.5,21.5 Z"/></g>
<g><path style="opacity:1" fill="#684948" d="M 121.5,32.5 C 121.325,34.6208 121.659,36.6208 122.5,38.5C 121.936,43.0087 120.269,47.1753 117.5,51C 117.728,51.3988 118.062,51.5654 118.5,51.5C 117.71,52.4013 116.71,53.0679 115.5,53.5C 115.062,53.5654 114.728,53.3988 114.5,53C 116.101,49.3691 117.768,45.7025 119.5,42C 117.877,40.1237 118.21,38.7904 120.5,38C 112.769,37.5328 112.769,36.3662 120.5,34.5C 119.019,33.056 119.352,32.3894 121.5,32.5 Z"/></g>
<g><path style="opacity:1" fill="#534e75" d="M 132.5,23.5 C 135.959,26.4148 138.959,29.7482 141.5,33.5C 141.629,35.2161 141.962,36.8828 142.5,38.5C 141.743,41.7911 141.076,45.1244 140.5,48.5C 139.777,44.8607 138.777,41.1941 137.5,37.5C 136.637,36.0597 136.637,34.7264 137.5,33.5C 136.128,29.9745 134.461,26.6411 132.5,23.5 Z"/></g>
<g><path style="opacity:1" fill="#232529" d="M 255.5,38.5 C 255.5,53.1667 255.5,67.8333 255.5,82.5C 252.492,81.5798 249.659,80.2465 247,78.5C 245.867,80.2112 244.367,80.7112 242.5,80C 235.637,73.9672 228.97,67.8005 222.5,61.5C 222.5,60.8333 222.5,60.1667 222.5,59.5C 224.003,56.5106 226.003,53.8439 228.5,51.5C 228.297,53.0443 227.63,54.3777 226.5,55.5C 228.347,56.8304 229.847,56.497 231,54.5C 232.183,55.731 233.349,55.731 234.5,54.5C 235.518,53.1476 236.851,52.1476 238.5,51.5C 238.291,50.914 237.957,50.414 237.5,50C 238.833,49.6667 240.167,49.3333 241.5,49C 241.167,48.6667 240.833,48.3333 240.5,48C 242.131,46.1644 242.798,46.6644 242.5,49.5C 244.201,49.0338 245.701,49.0338 247,49.5C 248.491,47.9963 250.324,47.1629 252.5,47C 250.365,46.2411 249.032,44.7411 248.5,42.5C 250.296,42.2685 252.129,42.9352 254,44.5C 254.191,42.2922 254.691,40.2922 255.5,38.5 Z"/></g>
<g><path style="opacity:1" fill="#a88490" d="M 112.5,37.5 C 114.867,38.8708 116.533,40.8708 117.5,43.5C 117.145,44.5223 116.478,45.189 115.5,45.5C 115.5,44.5 115.5,43.5 115.5,42.5C 111.526,42.987 107.859,44.3203 104.5,46.5C 104.167,46.1667 103.833,45.8333 103.5,45.5C 104.628,44.7379 105.795,44.0712 107,43.5C 107.32,40.4601 107.32,37.4601 107,34.5C 108.741,35.7577 110.574,36.7577 112.5,37.5 Z"/></g>
<g><path style="opacity:1" fill="#918bcd" d="M 122.5,22.5 C 125.292,22.6225 127.292,23.9558 128.5,26.5C 127.417,26.4606 126.417,26.1272 125.5,25.5C 124.507,30.1196 124.173,34.7863 124.5,39.5C 124.328,40.4916 124.662,41.1583 125.5,41.5C 125.368,44.5701 125.701,47.5701 126.5,50.5C 125.21,49.9423 124.377,48.9423 124,47.5C 123.498,44.4869 122.998,41.4869 122.5,38.5C 121.659,36.6208 121.325,34.6208 121.5,32.5C 121.5,31.5 121.5,30.5 121.5,29.5C 122.468,27.3926 122.802,25.0593 122.5,22.5 Z"/></g>
<g><path style="opacity:1" fill="#dbc5e9" d="M 122.5,14.5 C 123.167,14.5 123.833,14.5 124.5,14.5C 123.833,17.1667 123.167,19.8333 122.5,22.5C 122.802,25.0593 122.468,27.3926 121.5,29.5C 121.217,28.7109 120.717,28.0442 120,27.5C 117.097,30.5338 114.597,33.8671 112.5,37.5C 110.574,36.7577 108.741,35.7577 107,34.5C 107.32,37.4601 107.32,40.4601 107,43.5C 105.795,44.0712 104.628,44.7379 103.5,45.5C 103.833,45.8333 104.167,46.1667 104.5,46.5C 107.859,44.3203 111.526,42.987 115.5,42.5C 115.5,43.5 115.5,44.5 115.5,45.5C 113.404,47.4333 111.904,49.7666 111,52.5C 109.4,53.8659 107.567,54.8659 105.5,55.5C 106.325,56.3857 107.325,56.719 108.5,56.5C 107.791,57.404 106.791,57.7373 105.5,57.5C 103.833,57.5 102.167,57.5 100.5,57.5C 100.5,55.8333 100.5,54.1667 100.5,52.5C 99.1667,52.5 97.8333,52.5 96.5,52.5C 96.722,49.4958 97.722,46.8292 99.5,44.5C 100.885,43.4264 102.051,42.0931 103,40.5C 104.41,27.9346 110.91,19.2679 122.5,14.5 Z"/></g>
<g><path style="opacity:1" fill="#e0b1db" d="M 223.5,32.5 C 224.167,32.8333 224.833,33.1667 225.5,33.5C 225.5,35.5 225.5,37.5 225.5,39.5C 225.552,41.9029 225.219,44.2362 224.5,46.5C 223.069,45.2196 222.402,43.5529 222.5,41.5C 223.388,38.9455 223.721,36.2788 223.5,33.5C 223.5,33.1667 223.5,32.8333 223.5,32.5 Z"/></g>
<g><path style="opacity:1" fill="#301314" d="M 132.5,32.5 C 133.939,34.3603 135.605,36.027 137.5,37.5C 138.777,41.1941 139.777,44.8607 140.5,48.5C 140.293,51.2406 139.293,53.5739 137.5,55.5C 133.199,55.182 129.532,53.5153 126.5,50.5C 125.701,47.5701 125.368,44.5701 125.5,41.5C 126.158,40.6016 126.824,39.6016 127.5,38.5C 130.982,37.9653 132.649,35.9653 132.5,32.5 Z"/></g>
<g><path style="opacity:1" fill="#e3b76e" d="M 161.5,33.5 C 162.52,38.525 164.853,42.8583 168.5,46.5C 168.517,48.5648 168.85,50.5648 169.5,52.5C 165.167,48.8333 161.167,44.8333 157.5,40.5C 157.176,36.4454 157.509,32.4454 158.5,28.5C 159.763,30.0287 160.763,31.6954 161.5,33.5 Z"/></g>
<g><path style="opacity:1" fill="#91201e" d="M 194.5,15.5 C 194.119,17.9418 194.786,18.6085 196.5,17.5C 196.964,18.6364 197.298,19.6364 197.5,20.5C 197.817,23.7261 197.984,27.0594 198,30.5C 199.916,31.9278 202.083,32.9278 204.5,33.5C 201.215,34.3236 197.882,34.8236 194.5,35C 198.167,35.3333 201.833,35.6667 205.5,36C 206.274,38.405 206.774,40.905 207,43.5C 208.074,42.3816 209.24,41.3816 210.5,40.5C 209.184,39.1934 208.184,37.6934 207.5,36C 208.449,35.3828 209.282,35.5494 210,36.5C 212.209,36.0108 214.042,35.0108 215.5,33.5C 216.117,33.3893 216.617,33.056 217,32.5C 217.179,36.0252 217.679,39.3586 218.5,42.5C 218.768,44.099 218.434,45.4324 217.5,46.5C 217.119,45.0689 216.119,44.2355 214.5,44C 212.613,43.2204 210.946,43.3871 209.5,44.5C 207.178,45.8021 205.845,47.8021 205.5,50.5C 204.655,51.6715 203.989,53.0048 203.5,54.5C 203.167,54.5 202.833,54.5 202.5,54.5C 202.294,52.4508 201.461,52.1175 200,53.5C 198.289,55.9562 196.956,58.6229 196,61.5C 194.69,60.1031 193.19,59.1031 191.5,58.5C 192.5,58.1667 193.167,57.5 193.5,56.5C 198.434,53.269 198.767,49.4356 194.5,45C 191.947,44.1487 189.614,44.482 187.5,46C 193.646,45.1431 195.813,47.6431 194,53.5C 193.184,54.8228 192.017,55.4894 190.5,55.5C 188.801,55.4729 187.467,54.8062 186.5,53.5C 185.5,52.1667 184.5,50.8333 183.5,49.5C 183.322,48.3052 182.989,47.1385 182.5,46C 183.707,44.6998 184.374,43.1998 184.5,41.5C 186.124,41.6399 187.29,40.9733 188,39.5C 190.401,40.6023 192.901,40.769 195.5,40C 182.078,35.5031 182.411,33.1698 196.5,33C 193.001,29.2837 190.334,25.117 188.5,20.5C 185.805,20.6815 183.472,21.6815 181.5,23.5C 181.733,21.9382 182.4,20.6049 183.5,19.5C 184.338,19.1583 184.672,18.4916 184.5,17.5C 187.837,16.516 189.337,14.1827 189,10.5C 189.739,12.2205 190.573,13.8872 191.5,15.5C 192.687,14.3473 193.687,14.3473 194.5,15.5 Z"/></g>
<g><path style="opacity:1" fill="#8e241c" d="M 172.5,31.5 C 174.504,32.6728 176.004,34.3395 177,36.5C 178.989,40.253 179.822,44.253 179.5,48.5C 178.251,47.2225 176.751,46.2225 175,45.5C 174.164,41.1467 173.331,36.8134 172.5,32.5C 172.5,32.1667 172.5,31.8333 172.5,31.5 Z"/></g>
<g><path style="opacity:1" fill="#c55a53" d="M 157.5,40.5 C 161.167,44.8333 165.167,48.8333 169.5,52.5C 170.167,53.8333 171.167,54.8333 172.5,55.5C 170.418,57.6343 168.418,57.6343 166.5,55.5C 165.817,55.8627 165.15,56.1961 164.5,56.5C 164.5,55.8333 164.5,55.1667 164.5,54.5C 161.581,50.3291 158.914,45.9958 156.5,41.5C 156.624,40.8933 156.957,40.56 157.5,40.5 Z"/></g>
<g><path style="opacity:1" fill="#ecdcf2" d="M 93.5,27.5 C 93.8212,29.0481 94.8212,29.7148 96.5,29.5C 95.4309,32.408 95.2642,35.408 96,38.5C 96.3826,37.944 96.8826,37.6107 97.5,37.5C 97.1706,40.2282 97.8372,42.5615 99.5,44.5C 97.722,46.8292 96.722,49.4958 96.5,52.5C 97.8333,52.5 99.1667,52.5 100.5,52.5C 100.5,54.1667 100.5,55.8333 100.5,57.5C 102.167,57.5 103.833,57.5 105.5,57.5C 101.981,58.8077 98.3147,58.8077 94.5,57.5C 95.5063,56.6043 95.5063,55.9377 94.5,55.5C 89.9142,58.0894 85.2475,60.5894 80.5,63C 79.1819,65.8239 77.5152,68.3239 75.5,70.5C 74.8106,69.2264 73.9772,69.2264 73,70.5C 72.4719,71.816 72.9719,72.4827 74.5,72.5C 74.5,72.8333 74.5,73.1667 74.5,73.5C 72.2972,73.6036 70.2972,74.2702 68.5,75.5C 68.8333,72.8333 69.1667,70.1667 69.5,67.5C 73.4865,62.5164 78.1531,58.1831 83.5,54.5C 87.8557,53.8313 90.8557,51.498 92.5,47.5C 93.9459,45.4204 94.9459,43.0871 95.5,40.5C 94.8551,39.354 94.0217,38.354 93,37.5C 92.3333,38.8333 91.6667,38.8333 91,37.5C 90.3985,34.7795 90.5651,32.1128 91.5,29.5C 92.1667,28.8333 92.8333,28.1667 93.5,27.5 Z"/></g>
<g><path style="opacity:1" fill="#8a686d" d="M 121.5,29.5 C 121.5,30.5 121.5,31.5 121.5,32.5C 119.352,32.3894 119.019,33.056 120.5,34.5C 112.769,36.3662 112.769,37.5328 120.5,38C 118.21,38.7904 117.877,40.1237 119.5,42C 117.768,45.7025 116.101,49.3691 114.5,53C 114.728,53.3988 115.062,53.5654 115.5,53.5C 113.574,55.2927 111.241,56.2927 108.5,56.5C 107.325,56.719 106.325,56.3857 105.5,55.5C 107.567,54.8659 109.4,53.8659 111,52.5C 111.904,49.7666 113.404,47.4333 115.5,45.5C 116.478,45.189 117.145,44.5223 117.5,43.5C 116.533,40.8708 114.867,38.8708 112.5,37.5C 114.597,33.8671 117.097,30.5338 120,27.5C 120.717,28.0442 121.217,28.7109 121.5,29.5 Z"/></g>
<g><path style="opacity:1" fill="#d7a770" d="M 209.5,44.5 C 210.376,44.3691 211.043,44.7025 211.5,45.5C 209.649,47.7759 207.982,50.1093 206.5,52.5C 205.702,52.0431 205.369,51.3764 205.5,50.5C 205.845,47.8021 207.178,45.8021 209.5,44.5 Z"/></g>
<g><path style="opacity:1" fill="#936532" d="M 223.5,33.5 C 223.721,36.2788 223.388,38.9455 222.5,41.5C 221.11,46.997 219.11,52.3304 216.5,57.5C 215.542,57.9528 214.708,58.6195 214,59.5C 213.329,58.7476 212.496,58.4142 211.5,58.5C 211.67,57.1779 211.337,56.0113 210.5,55C 215.534,54.4459 217.868,51.6126 217.5,46.5C 218.434,45.4324 218.768,44.099 218.5,42.5C 219.65,39.2752 220.816,35.9419 222,32.5C 222.383,33.056 222.883,33.3893 223.5,33.5 Z"/></g>
<g><path style="opacity:1" fill="#bb9cbc" d="M 92.5,47.5 C 90.8557,51.498 87.8557,53.8313 83.5,54.5C 83.6107,53.8826 83.944,53.3826 84.5,53C 82.9651,52.5038 81.4651,52.6705 80,53.5C 78.2785,53.3893 78.1118,52.8893 79.5,52C 83.8031,50.343 88.1364,48.843 92.5,47.5 Z"/></g>
<g><path style="opacity:1" fill="#ad7d8b" d="M 225.5,39.5 C 226.434,40.5676 226.768,41.901 226.5,43.5C 228.167,43.5 229.833,43.5 231.5,43.5C 231.428,46.5525 230.428,49.2192 228.5,51.5C 226.003,53.8439 224.003,56.5106 222.5,59.5C 221.427,58.7494 221.26,57.7494 222,56.5C 223.42,52.6549 225.587,49.3216 228.5,46.5C 227.3,45.7084 225.967,45.7084 224.5,46.5C 225.219,44.2362 225.552,41.9029 225.5,39.5 Z"/></g>
<g><path style="opacity:1" fill="#edb85d" d="M 193.5,56.5 C 192.209,56.7373 191.209,56.404 190.5,55.5C 192.017,55.4894 193.184,54.8228 194,53.5C 195.813,47.6431 193.646,45.1431 187.5,46C 189.614,44.482 191.947,44.1487 194.5,45C 198.767,49.4356 198.434,53.269 193.5,56.5 Z"/></g>
<g><path style="opacity:1" fill="#bd8285" d="M 222.5,41.5 C 222.402,43.5529 223.069,45.2196 224.5,46.5C 222.592,50.4137 220.259,54.0803 217.5,57.5C 217.167,57.5 216.833,57.5 216.5,57.5C 219.11,52.3304 221.11,46.997 222.5,41.5 Z"/></g>
<g><path style="opacity:1" fill="#f6cb9f" d="M 168.5,46.5 C 172.588,50.5985 176.921,54.2652 181.5,57.5C 181.631,58.3764 181.298,59.0431 180.5,59.5C 178.132,58.1111 175.799,56.7778 173.5,55.5C 173.167,55.5 172.833,55.5 172.5,55.5C 171.167,54.8333 170.167,53.8333 169.5,52.5C 168.85,50.5648 168.517,48.5648 168.5,46.5 Z"/></g>
<g><path style="opacity:1" fill="#783020" d="M 209.5,44.5 C 210.946,43.3871 212.613,43.2204 214.5,44C 216.119,44.2355 217.119,45.0689 217.5,46.5C 217.868,51.6126 215.534,54.4459 210.5,55C 211.337,56.0113 211.67,57.1779 211.5,58.5C 211.19,60.1436 210.19,61.1436 208.5,61.5C 207.685,60.1634 206.518,59.1634 205,58.5C 204.59,57.0993 204.09,55.766 203.5,54.5C 203.989,53.0048 204.655,51.6715 205.5,50.5C 205.369,51.3764 205.702,52.0431 206.5,52.5C 207.982,50.1093 209.649,47.7759 211.5,45.5C 211.043,44.7025 210.376,44.3691 209.5,44.5 Z"/></g>
<g><path style="opacity:1" fill="#64649f" d="M 126.5,50.5 C 129.532,53.5153 133.199,55.182 137.5,55.5C 136.92,57.7488 135.587,59.4154 133.5,60.5C 130.785,57.7861 128.451,54.7861 126.5,51.5C 126.5,51.1667 126.5,50.8333 126.5,50.5 Z"/></g>
<g><path style="opacity:1" fill="#591d1e" d="M 164.5,54.5 C 164.5,55.1667 164.5,55.8333 164.5,56.5C 164.5,56.8333 164.5,57.1667 164.5,57.5C 163.596,58.209 163.263,59.209 163.5,60.5C 162.5,60.5 161.5,60.5 160.5,60.5C 160.167,59.8333 159.833,59.1667 159.5,58.5C 159.5,56.8333 159.5,55.1667 159.5,53.5C 161.216,53.6287 162.883,53.962 164.5,54.5 Z"/></g>
<g><path style="opacity:1" fill="#ecba8d" d="M 186.5,53.5 C 187.467,54.8062 188.801,55.4729 190.5,55.5C 191.209,56.404 192.209,56.7373 193.5,56.5C 193.167,57.5 192.5,58.1667 191.5,58.5C 186.945,58.625 183.612,56.625 181.5,52.5C 181.56,51.9569 181.893,51.6236 182.5,51.5C 183.622,52.6302 184.956,53.2969 186.5,53.5 Z"/></g>
<g><path style="opacity:1" fill="#9b5536" d="M 222.5,59.5 C 222.5,60.1667 222.5,60.8333 222.5,61.5C 222.167,61.5 221.833,61.5 221.5,61.5C 220.609,62.1098 219.609,62.4431 218.5,62.5C 218.634,60.7085 218.301,59.0418 217.5,57.5C 220.259,54.0803 222.592,50.4137 224.5,46.5C 225.967,45.7084 227.3,45.7084 228.5,46.5C 225.587,49.3216 223.42,52.6549 222,56.5C 221.26,57.7494 221.427,58.7494 222.5,59.5 Z"/></g>
<g><path style="opacity:1" fill="#b89cb3" d="M 142.5,38.5 C 142.161,44.6754 142.161,51.0088 142.5,57.5C 141.518,60.0956 140.851,62.7623 140.5,65.5C 139.778,65.9175 139.278,66.5842 139,67.5C 138.667,67.1667 138.333,66.8333 138,66.5C 137.506,68.1341 137.34,69.8008 137.5,71.5C 135.892,77.9436 131.892,81.777 125.5,83C 128.259,81.4712 130.259,79.3045 131.5,76.5C 132.773,74.2872 133.773,71.9538 134.5,69.5C 135.613,68.0536 135.78,66.3869 135,64.5C 131.877,66.0978 131.044,65.4311 132.5,62.5C 132.833,61.8333 133.167,61.1667 133.5,60.5C 135.587,59.4154 136.92,57.7488 137.5,55.5C 139.293,53.5739 140.293,51.2406 140.5,48.5C 141.076,45.1244 141.743,41.7911 142.5,38.5 Z"/></g>
<g><path style="opacity:1" fill="#e48b58" d="M 172.5,55.5 C 172.833,55.5 173.167,55.5 173.5,55.5C 174.167,56.5 174.833,57.5 175.5,58.5C 174.549,59.9187 174.216,61.5853 174.5,63.5C 173.866,64.9468 172.699,65.6134 171,65.5C 169.93,65.472 169.097,65.1386 168.5,64.5C 170.144,64.7135 171.644,64.3802 173,63.5C 173.585,62.0024 173.085,61.0024 171.5,60.5C 171.027,59.0937 170.027,58.427 168.5,58.5C 167.5,58.5 166.5,58.5 165.5,58.5C 165.5,59.5 165.5,60.5 165.5,61.5C 164.566,60.4324 164.232,59.099 164.5,57.5C 164.5,57.1667 164.5,56.8333 164.5,56.5C 165.15,56.1961 165.817,55.8627 166.5,55.5C 168.418,57.6343 170.418,57.6343 172.5,55.5 Z"/></g>
<g><path style="opacity:1" fill="#d65e58" d="M 152.5,24.5 C 152.11,31.6985 152.777,38.6985 154.5,45.5C 152.369,51.8378 153.369,57.5045 157.5,62.5C 158.172,61.0508 158.839,59.7175 159.5,58.5C 159.833,59.1667 160.167,59.8333 160.5,60.5C 161.264,64.2699 162.931,67.6033 165.5,70.5C 162.492,70.2563 159.659,68.923 157,66.5C 157.355,67.9594 157.189,69.2928 156.5,70.5C 153.6,67.0419 151.433,63.0419 150,58.5C 149.24,51.4505 149.407,44.4505 150.5,37.5C 151.265,34.9039 151.599,32.2372 151.5,29.5C 151.216,27.5853 151.549,25.9187 152.5,24.5 Z"/></g>
<g><path style="opacity:1" fill="#0d151b" d="M 28.5,51.5 C 32.4245,55.9612 37.4245,57.6279 43.5,56.5C 41.1885,63.0511 40.5218,69.7178 41.5,76.5C 40.209,76.2627 39.209,76.596 38.5,77.5C 34.9175,78.194 31.4175,79.194 28,80.5C 20.9443,78.2964 15.111,79.9631 10.5,85.5C 8.73758,86.2623 7.73758,87.5956 7.5,89.5C 5.36187,91.2092 3.02854,92.5426 0.5,93.5C 0.166667,93.5 -0.166667,93.5 -0.5,93.5C -0.5,80.1667 -0.5,66.8333 -0.5,53.5C 1.23267,52.9924 1.566,52.159 0.5,51C 2.33333,51.1667 4.16667,51.3333 6,51.5C 6.33333,50.8333 6.66667,50.1667 7,49.5C 9.09233,50.6399 11.259,50.6399 13.5,49.5C 14.5976,53.3605 15.4309,53.3605 16,49.5C 16.3879,50.428 17.0546,51.0946 18,51.5C 19.8716,50.9318 21.7049,50.2651 23.5,49.5C 25.0754,50.4565 26.742,51.1231 28.5,51.5 Z"/></g>
<g><path style="opacity:1" fill="#fffcdd" d="M 168.5,58.5 C 170.027,58.427 171.027,59.0937 171.5,60.5C 171.189,61.4778 170.522,62.1445 169.5,62.5C 168.571,61.3112 168.238,59.9778 168.5,58.5 Z"/></g>
<g><path style="opacity:1" fill="#371e16" d="M 90.5,23.5 C 91.4614,25.2646 91.7947,27.2646 91.5,29.5C 90.5651,32.1128 90.3985,34.7795 91,37.5C 91.6667,38.8333 92.3333,38.8333 93,37.5C 94.0217,38.354 94.8551,39.354 95.5,40.5C 94.9459,43.0871 93.9459,45.4204 92.5,47.5C 88.1364,48.843 83.8031,50.343 79.5,52C 78.1118,52.8893 78.2785,53.3893 80,53.5C 81.4651,52.6705 82.9651,52.5038 84.5,53C 83.944,53.3826 83.6107,53.8826 83.5,54.5C 78.1531,58.1831 73.4865,62.5164 69.5,67.5C 68.7281,68.6935 67.7281,69.6935 66.5,70.5C 66.335,67.1501 66.5017,63.8168 67,60.5C 68.8559,55.2286 70.8559,50.2286 73,45.5C 69.1595,51.1777 65.8261,57.1777 63,63.5C 62.3457,64.6956 61.8457,64.6956 61.5,63.5C 62.4279,62.2322 62.5946,60.8989 62,59.5C 60.8608,62.5833 59.5275,65.5833 58,68.5C 57.7479,66.0687 58.2479,63.7354 59.5,61.5C 58.4699,61.4455 57.3033,61.1122 56,60.5C 52.9209,64.3244 50.0876,68.3244 47.5,72.5C 46.6816,69.8929 46.1816,67.2263 46,64.5C 45.0853,65.3279 44.4186,66.3279 44,67.5C 43.8333,66.6667 43.6667,65.8333 43.5,65C 44.2755,62.1776 44.9421,59.3443 45.5,56.5C 47.1172,55.962 48.7839,55.6287 50.5,55.5C 50.281,54.325 50.6143,53.325 51.5,52.5C 56.9452,48.8896 61.6119,44.3896 65.5,39C 69.1333,38.1804 72.1333,36.3471 74.5,33.5C 73.7573,32.8182 73.0906,32.1515 72.5,31.5C 74.2726,29.5675 76.4393,28.2341 79,27.5C 78.4763,30.2184 77.643,32.8851 76.5,35.5C 81.5687,35.168 85.2354,32.8347 87.5,28.5C 88.2485,26.6675 89.2485,25.0009 90.5,23.5 Z"/></g>
<g><path style="opacity:1" fill="#a78fba" d="M 121.5,51.5 C 122.625,52.3478 122.625,53.3478 121.5,54.5C 117.473,57.8604 113.806,61.5271 110.5,65.5C 111.087,64.2334 111.087,63.2334 110.5,62.5C 108.37,63.4672 106.37,64.6338 104.5,66C 103.251,66.7401 102.251,66.5735 101.5,65.5C 109.02,61.9686 115.686,57.3019 121.5,51.5 Z"/></g>
<g><path style="opacity:1" fill="#b73b38" d="M 164.5,32.5 C 164.5,33.8333 164.5,35.1667 164.5,36.5C 165.5,36.5 166.5,36.5 167.5,36.5C 167.384,33.0897 169.05,31.7564 172.5,32.5C 173.331,36.8134 174.164,41.1467 175,45.5C 176.751,46.2225 178.251,47.2225 179.5,48.5C 179.989,49.9952 180.655,51.3285 181.5,52.5C 183.612,56.625 186.945,58.625 191.5,58.5C 193.19,59.1031 194.69,60.1031 196,61.5C 196.956,58.6229 198.289,55.9562 200,53.5C 201.461,52.1175 202.294,52.4508 202.5,54.5C 202.219,58.8821 200.885,62.8821 198.5,66.5C 200.089,70.3289 199.089,73.3289 195.5,75.5C 192.924,74.1166 193.258,73.2833 196.5,73C 194.113,71.4534 192.78,69.2867 192.5,66.5C 194.769,65.0242 197.102,63.5242 199.5,62C 196.381,62.316 193.381,63.1493 190.5,64.5C 190.833,63.8333 191.167,63.1667 191.5,62.5C 192.043,62.44 192.376,62.1067 192.5,61.5C 188.329,61.2122 184.663,59.8789 181.5,57.5C 176.921,54.2652 172.588,50.5985 168.5,46.5C 164.853,42.8583 162.52,38.525 161.5,33.5C 162.222,33.9175 162.722,34.5842 163,35.5C 163.232,34.2625 163.732,33.2625 164.5,32.5 Z"/></g>
<g><path style="opacity:1" fill="#ce7d44" d="M 216.5,57.5 C 216.833,57.5 217.167,57.5 217.5,57.5C 218.301,59.0418 218.634,60.7085 218.5,62.5C 217.167,63.8333 215.833,65.1667 214.5,66.5C 213.167,66.5 211.833,66.5 210.5,66.5C 210.833,65.5 211.5,64.8333 212.5,64.5C 214.273,63.6857 214.773,62.3524 214,60.5C 213.283,61.0442 212.783,61.7109 212.5,62.5C 211.292,63.2341 209.959,63.5674 208.5,63.5C 208.5,62.8333 208.5,62.1667 208.5,61.5C 210.19,61.1436 211.19,60.1436 211.5,58.5C 212.496,58.4142 213.329,58.7476 214,59.5C 214.708,58.6195 215.542,57.9528 216.5,57.5 Z"/></g>
<g><path style="opacity:1" fill="#6a5252" d="M 150.5,37.5 C 149.407,44.4505 149.24,51.4505 150,58.5C 151.433,63.0419 153.6,67.0419 156.5,70.5C 156.833,71.1667 157.167,71.8333 157.5,72.5C 152.334,70.8422 148.5,67.5088 146,62.5C 145.503,65.146 145.336,67.8127 145.5,70.5C 145.5,70.8333 145.5,71.1667 145.5,71.5C 143.507,73.4668 141.507,75.4668 139.5,77.5C 138.394,75.7156 138.394,73.8822 139.5,72C 139.317,70.3164 138.65,70.1498 137.5,71.5C 137.34,69.8008 137.506,68.1341 138,66.5C 138.333,66.8333 138.667,67.1667 139,67.5C 139.278,66.5842 139.778,65.9175 140.5,65.5C 141.315,64.5707 142.148,63.5707 143,62.5C 145.018,54.4575 147.018,46.4575 149,38.5C 149.383,37.944 149.883,37.6107 150.5,37.5 Z"/></g>
<g><path style="opacity:1" fill="#f1af61" d="M 173.5,55.5 C 175.799,56.7778 178.132,58.1111 180.5,59.5C 181.298,59.0431 181.631,58.3764 181.5,57.5C 184.663,59.8789 188.329,61.2122 192.5,61.5C 192.376,62.1067 192.043,62.44 191.5,62.5C 188.308,62.8162 185.141,62.8162 182,62.5C 179.738,61.2875 177.571,59.9541 175.5,58.5C 174.833,57.5 174.167,56.5 173.5,55.5 Z"/></g>
<g><path style="opacity:1" fill="#fad158" d="M 168.5,58.5 C 168.238,59.9778 168.571,61.3112 169.5,62.5C 170.522,62.1445 171.189,61.4778 171.5,60.5C 173.085,61.0024 173.585,62.0024 173,63.5C 171.644,64.3802 170.144,64.7135 168.5,64.5C 167.167,63.8333 166.167,62.8333 165.5,61.5C 165.5,60.5 165.5,59.5 165.5,58.5C 166.5,58.5 167.5,58.5 168.5,58.5 Z"/></g>
<g><path style="opacity:1" fill="#d54b34" d="M 175.5,58.5 C 177.571,59.9541 179.738,61.2875 182,62.5C 185.141,62.8162 188.308,62.8162 191.5,62.5C 191.167,63.1667 190.833,63.8333 190.5,64.5C 189.167,64.8333 187.833,65.1667 186.5,65.5C 184.5,65.5 182.5,65.5 180.5,65.5C 179.508,65.6716 178.842,65.3382 178.5,64.5C 177.432,63.5655 176.099,63.2322 174.5,63.5C 174.216,61.5853 174.549,59.9187 175.5,58.5 Z"/></g>
<g><path style="opacity:1" fill="#f5eee2" d="M 212.5,64.5 C 212.5,63.8333 212.5,63.1667 212.5,62.5C 212.783,61.7109 213.283,61.0442 214,60.5C 214.773,62.3524 214.273,63.6857 212.5,64.5 Z"/></g>
<g><path style="opacity:1" fill="#785b75" d="M 121.5,54.5 C 119.848,58.3437 117.515,61.8437 114.5,65C 116.833,64 119.167,63 121.5,62C 119.636,64.6877 117.636,67.1877 115.5,69.5C 115.53,68.5028 115.03,67.8361 114,67.5C 112.003,68.6601 110.169,68.6601 108.5,67.5C 109.5,67.1667 110.167,66.5 110.5,65.5C 113.806,61.5271 117.473,57.8604 121.5,54.5 Z"/></g>
<g><path style="opacity:1" fill="#f1e9f9" d="M 118.5,51.5 C 119.5,51.5 120.5,51.5 121.5,51.5C 115.686,57.3019 109.02,61.9686 101.5,65.5C 94.1484,66.8368 86.8151,68.3368 79.5,70C 80.9733,70.7096 81.6399,71.8762 81.5,73.5C 81.7373,74.791 81.404,75.791 80.5,76.5C 80.6716,75.5084 80.3382,74.8417 79.5,74.5C 79.6716,73.5084 79.3382,72.8417 78.5,72.5C 77.791,71.596 76.791,71.2627 75.5,71.5C 75.5,71.1667 75.5,70.8333 75.5,70.5C 77.5152,68.3239 79.1819,65.8239 80.5,63C 85.2475,60.5894 89.9142,58.0894 94.5,55.5C 95.5063,55.9377 95.5063,56.6043 94.5,57.5C 98.3147,58.8077 101.981,58.8077 105.5,57.5C 106.791,57.7373 107.791,57.404 108.5,56.5C 111.241,56.2927 113.574,55.2927 115.5,53.5C 116.71,53.0679 117.71,52.4013 118.5,51.5 Z"/></g>
<g><path style="opacity:1" fill="#442d2e" d="M 122.5,38.5 C 122.998,41.4869 123.498,44.4869 124,47.5C 124.377,48.9423 125.21,49.9423 126.5,50.5C 126.5,50.8333 126.5,51.1667 126.5,51.5C 125.347,52.3132 125.347,53.3132 126.5,54.5C 123.768,58.5723 121.768,62.9057 120.5,67.5C 113.797,76.8802 104.797,82.5469 93.5,84.5C 98.1126,81.1878 103.113,78.3545 108.5,76C 109.71,74.9609 110.71,73.7942 111.5,72.5C 112.833,71.5 114.167,70.5 115.5,69.5C 117.636,67.1877 119.636,64.6877 121.5,62C 119.167,63 116.833,64 114.5,65C 117.515,61.8437 119.848,58.3437 121.5,54.5C 122.625,53.3478 122.625,52.3478 121.5,51.5C 120.5,51.5 119.5,51.5 118.5,51.5C 118.062,51.5654 117.728,51.3988 117.5,51C 120.269,47.1753 121.936,43.0087 122.5,38.5 Z"/></g>
<g><path style="opacity:1" fill="#88656e" d="M 132.5,62.5 C 131.044,65.4311 131.877,66.0978 135,64.5C 135.78,66.3869 135.613,68.0536 134.5,69.5C 133.739,68.6091 132.739,67.9424 131.5,67.5C 130.232,68.4279 128.899,68.5946 127.5,68C 128.664,65.6716 130.33,63.8382 132.5,62.5 Z"/></g>
<g><path style="opacity:1" fill="#6d1b1d" d="M 178.5,64.5 C 178.842,65.3382 179.508,65.6716 180.5,65.5C 180.863,67.9115 179.863,69.4115 177.5,70C 174.446,70.8214 171.446,70.6548 168.5,69.5C 172.018,67.9131 175.352,66.2464 178.5,64.5 Z"/></g>
<g><path style="opacity:1" fill="#b37784" d="M 212.5,62.5 C 212.5,63.1667 212.5,63.8333 212.5,64.5C 211.5,64.8333 210.833,65.5 210.5,66.5C 209.167,66.5 207.833,66.5 206.5,66.5C 206.978,70.3375 205.978,73.6709 203.5,76.5C 202.833,76.5 202.167,76.5 201.5,76.5C 203.514,73.2905 204.848,69.7905 205.5,66C 206.13,64.6898 207.13,63.8565 208.5,63.5C 209.959,63.5674 211.292,63.2341 212.5,62.5 Z"/></g>
<g><path style="opacity:1" fill="#b4959a" d="M 220.5,64.5 C 220.702,66.9496 220.369,69.283 219.5,71.5C 219.5,72.1667 219.167,72.5 218.5,72.5C 218.5,70.8333 218.5,69.1667 218.5,67.5C 218.351,66.448 218.517,65.448 219,64.5C 219.69,63.2617 220.19,63.2617 220.5,64.5 Z"/></g>
<g><path style="opacity:1" fill="#2b140e" d="M 66.5,70.5 C 64.8193,73.2028 63.1526,75.8695 61.5,78.5C 60.4693,79.355 59.3026,80.0217 58,80.5C 52.1769,79.1348 46.3436,78.1348 40.5,77.5C 39.8333,77.5 39.1667,77.5 38.5,77.5C 39.209,76.596 40.209,76.2627 41.5,76.5C 40.5218,69.7178 41.1885,63.0511 43.5,56.5C 44.1667,56.5 44.8333,56.5 45.5,56.5C 44.9421,59.3443 44.2755,62.1776 43.5,65C 43.6667,65.8333 43.8333,66.6667 44,67.5C 44.4186,66.3279 45.0853,65.3279 46,64.5C 46.1816,67.2263 46.6816,69.8929 47.5,72.5C 50.0876,68.3244 52.9209,64.3244 56,60.5C 57.3033,61.1122 58.4699,61.4455 59.5,61.5C 58.2479,63.7354 57.7479,66.0687 58,68.5C 59.5275,65.5833 60.8608,62.5833 62,59.5C 62.5946,60.8989 62.4279,62.2322 61.5,63.5C 61.8457,64.6956 62.3457,64.6956 63,63.5C 65.8261,57.1777 69.1595,51.1777 73,45.5C 70.8559,50.2286 68.8559,55.2286 67,60.5C 66.5017,63.8168 66.335,67.1501 66.5,70.5 Z"/></g>
<g><path style="opacity:1" fill="#6d2a1f" d="M 221.5,61.5 C 221.737,62.791 221.404,63.791 220.5,64.5C 220.19,63.2617 219.69,63.2617 219,64.5C 218.517,65.448 218.351,66.448 218.5,67.5C 216.016,71.4948 212.516,72.8281 208,71.5C 207.141,67.5456 208.474,66.5456 212,68.5C 213.376,68.3158 214.209,67.6491 214.5,66.5C 215.833,65.1667 217.167,63.8333 218.5,62.5C 219.609,62.4431 220.609,62.1098 221.5,61.5 Z"/></g>
<g><path style="opacity:1" fill="#382a30" d="M 75.5,70.5 C 75.5,70.8333 75.5,71.1667 75.5,71.5C 74.8333,71.5 74.5,71.8333 74.5,72.5C 72.9719,72.4827 72.4719,71.816 73,70.5C 73.9772,69.2264 74.8106,69.2264 75.5,70.5 Z"/></g>
<g><path style="opacity:1" fill="#2d1112" d="M 126.5,51.5 C 128.451,54.7861 130.785,57.7861 133.5,60.5C 133.167,61.1667 132.833,61.8333 132.5,62.5C 130.33,63.8382 128.664,65.6716 127.5,68C 128.899,68.5946 130.232,68.4279 131.5,67.5C 132.739,67.9424 133.739,68.6091 134.5,69.5C 133.773,71.9538 132.773,74.2872 131.5,76.5C 129.57,76.7706 128.236,77.7706 127.5,79.5C 125.708,78.6909 123.708,78.1909 121.5,78C 124.099,74.2715 123.766,70.7715 120.5,67.5C 121.768,62.9057 123.768,58.5723 126.5,54.5C 125.347,53.3132 125.347,52.3132 126.5,51.5 Z"/></g>
<g><path style="opacity:1" fill="#c2a6af" d="M 69.5,67.5 C 69.1667,70.1667 68.8333,72.8333 68.5,75.5C 66.4451,77.5547 64.1117,79.2213 61.5,80.5C 61.5,79.8333 61.5,79.1667 61.5,78.5C 63.1526,75.8695 64.8193,73.2028 66.5,70.5C 67.7281,69.6935 68.7281,68.6935 69.5,67.5 Z"/></g>
<g><path style="opacity:1" fill="#d3c2ec" d="M 110.5,65.5 C 110.167,66.5 109.5,67.1667 108.5,67.5C 105.875,68.4657 105.875,69.4657 108.5,70.5C 104.87,74.1481 100.537,76.4815 95.5,77.5C 94.0222,77.762 92.6888,77.4287 91.5,76.5C 92.0253,75.8076 92.6919,75.3076 93.5,75C 89.5092,74.3583 85.5092,73.8583 81.5,73.5C 81.6399,71.8762 80.9733,70.7096 79.5,70C 86.8151,68.3368 94.1484,66.8368 101.5,65.5C 102.251,66.5735 103.251,66.7401 104.5,66C 106.37,64.6338 108.37,63.4672 110.5,62.5C 111.087,63.2334 111.087,64.2334 110.5,65.5 Z"/></g>
<g><path style="opacity:1" fill="#ab2626" d="M 164.5,57.5 C 164.232,59.099 164.566,60.4324 165.5,61.5C 166.167,62.8333 167.167,63.8333 168.5,64.5C 169.097,65.1386 169.93,65.472 171,65.5C 172.699,65.6134 173.866,64.9468 174.5,63.5C 176.099,63.2322 177.432,63.5655 178.5,64.5C 175.352,66.2464 172.018,67.9131 168.5,69.5C 171.446,70.6548 174.446,70.8214 177.5,70C 179.863,69.4115 180.863,67.9115 180.5,65.5C 182.5,65.5 184.5,65.5 186.5,65.5C 186.082,66.2216 185.416,66.7216 184.5,67C 185.554,69.3822 186.221,71.8822 186.5,74.5C 183.57,75.5895 180.736,76.9228 178,78.5C 175.953,77.4553 173.953,77.4553 172,78.5C 168.752,75.8554 164.918,74.522 160.5,74.5C 159.5,73.8333 158.5,73.1667 157.5,72.5C 157.167,71.8333 156.833,71.1667 156.5,70.5C 157.189,69.2928 157.355,67.9594 157,66.5C 159.659,68.923 162.492,70.2563 165.5,70.5C 162.931,67.6033 161.264,64.2699 160.5,60.5C 161.5,60.5 162.5,60.5 163.5,60.5C 163.263,59.209 163.596,58.209 164.5,57.5 Z"/></g>
<g><path style="opacity:1" fill="#705573" d="M 111.5,72.5 C 110.71,73.7942 109.71,74.9609 108.5,76C 103.113,78.3545 98.1126,81.1878 93.5,84.5C 90.0859,85.2466 86.7525,85.2466 83.5,84.5C 82.8333,84.5 82.5,84.1667 82.5,83.5C 83.1667,83.5 83.8333,83.5 84.5,83.5C 87.8221,82.7766 91.1555,81.9433 94.5,81C 100.22,78.1401 105.886,75.3068 111.5,72.5 Z"/></g>
<g><path style="opacity:1" fill="#5e4347" d="M 145.5,71.5 C 144.391,73.5544 143.391,75.7211 142.5,78C 145.584,85.2539 144.417,86.0872 139,80.5C 139.638,86.3089 138.805,91.9756 136.5,97.5C 135.428,99.8823 134.262,102.216 133,104.5C 132.616,102.803 132.782,101.137 133.5,99.5C 134.711,95.1076 135.878,90.7743 137,86.5C 133.406,91.3506 129.572,96.0173 125.5,100.5C 124.386,99.277 124.219,97.9437 125,96.5C 127.165,92.6729 128.498,88.6729 129,84.5C 128.311,85.3567 127.478,86.0233 126.5,86.5C 125.41,85.273 124.076,84.4396 122.5,84C 123.598,83.2303 123.598,82.397 122.5,81.5C 124.284,81.1075 125.95,80.4408 127.5,79.5C 128.236,77.7706 129.57,76.7706 131.5,76.5C 130.259,79.3045 128.259,81.4712 125.5,83C 131.892,81.777 135.892,77.9436 137.5,71.5C 138.65,70.1498 139.317,70.3164 139.5,72C 138.394,73.8822 138.394,75.7156 139.5,77.5C 141.507,75.4668 143.507,73.4668 145.5,71.5 Z"/></g>
<g><path style="opacity:1" fill="#a82224" d="M 202.5,54.5 C 202.833,54.5 203.167,54.5 203.5,54.5C 204.09,55.766 204.59,57.0993 205,58.5C 206.518,59.1634 207.685,60.1634 208.5,61.5C 208.5,62.1667 208.5,62.8333 208.5,63.5C 207.13,63.8565 206.13,64.6898 205.5,66C 204.848,69.7905 203.514,73.2905 201.5,76.5C 201.5,77.1667 201.5,77.8333 201.5,78.5C 201.205,80.7354 201.539,82.7354 202.5,84.5C 201.666,85.7479 200.333,86.4146 198.5,86.5C 192.855,85.5835 187.355,84.2502 182,82.5C 181.578,78.9339 183.078,76.6006 186.5,75.5C 187.647,75.8178 188.481,76.4844 189,77.5C 189.333,77.1667 189.667,76.8333 190,76.5C 189.801,73.9013 188.967,71.4013 187.5,69C 189.078,67.9055 190.745,67.0722 192.5,66.5C 192.78,69.2867 194.113,71.4534 196.5,73C 193.258,73.2833 192.924,74.1166 195.5,75.5C 199.089,73.3289 200.089,70.3289 198.5,66.5C 200.885,62.8821 202.219,58.8821 202.5,54.5 Z"/></g>
<g><path style="opacity:1" fill="#656f50" d="M 75.5,71.5 C 76.791,71.2627 77.791,71.596 78.5,72.5C 78.5,75.5 78.5,78.5 78.5,81.5C 77.4061,88.3203 76.5728,95.3203 76,102.5C 75.3678,104.965 73.8678,106.631 71.5,107.5C 70.6143,106.675 70.281,105.675 70.5,104.5C 66.9825,104.649 64.9825,102.982 64.5,99.5C 67.4353,93.7816 69.7686,87.7816 71.5,81.5C 72.7284,78.9249 74.3951,76.5916 76.5,74.5C 76.0431,73.7025 75.3764,73.3691 74.5,73.5C 74.5,73.1667 74.5,72.8333 74.5,72.5C 74.5,71.8333 74.8333,71.5 75.5,71.5 Z"/></g>
<g><path style="opacity:1" fill="#bea7d1" d="M 81.5,73.5 C 85.5092,73.8583 89.5092,74.3583 93.5,75C 92.6919,75.3076 92.0253,75.8076 91.5,76.5C 92.6888,77.4287 94.0222,77.762 95.5,77.5C 91.3273,78.7496 87.6606,80.7496 84.5,83.5C 83.8333,83.5 83.1667,83.5 82.5,83.5C 81.8333,81.1667 81.1667,78.8333 80.5,76.5C 81.404,75.791 81.7373,74.791 81.5,73.5 Z"/></g>
<g><path style="opacity:1" fill="#9982b1" d="M 108.5,67.5 C 110.169,68.6601 112.003,68.6601 114,67.5C 115.03,67.8361 115.53,68.5028 115.5,69.5C 114.167,70.5 112.833,71.5 111.5,72.5C 105.886,75.3068 100.22,78.1401 94.5,81C 91.1555,81.9433 87.8221,82.7766 84.5,83.5C 87.6606,80.7496 91.3273,78.7496 95.5,77.5C 100.537,76.4815 104.87,74.1481 108.5,70.5C 105.875,69.4657 105.875,68.4657 108.5,67.5 Z"/></g>
<g><path style="opacity:1" fill="#9a2a26" d="M 210.5,66.5 C 211.833,66.5 213.167,66.5 214.5,66.5C 214.209,67.6491 213.376,68.3158 212,68.5C 208.474,66.5456 207.141,67.5456 208,71.5C 212.516,72.8281 216.016,71.4948 218.5,67.5C 218.5,69.1667 218.5,70.8333 218.5,72.5C 213.913,74.7579 209.913,77.7579 206.5,81.5C 206.727,79.0672 205.727,77.4006 203.5,76.5C 205.978,73.6709 206.978,70.3375 206.5,66.5C 207.833,66.5 209.167,66.5 210.5,66.5 Z"/></g>
<g><path style="opacity:1" fill="#d7add2" d="M 201.5,76.5 C 202.167,76.5 202.833,76.5 203.5,76.5C 205.727,77.4006 206.727,79.0672 206.5,81.5C 206.565,81.9382 206.399,82.2716 206,82.5C 205,79.8333 204,79.8333 203,82.5C 202.79,80.9419 202.29,79.6085 201.5,78.5C 201.5,77.8333 201.5,77.1667 201.5,76.5 Z"/></g>
<g><path style="opacity:1" fill="#33363f" d="M 221.5,61.5 C 221.833,61.5 222.167,61.5 222.5,61.5C 228.97,67.8005 235.637,73.9672 242.5,80C 244.367,80.7112 245.867,80.2112 247,78.5C 249.659,80.2465 252.492,81.5798 255.5,82.5C 255.5,84.5 255.5,86.5 255.5,88.5C 252.837,88.8985 250.337,88.8985 248,88.5C 246.395,89.1007 245.062,90.1007 244,91.5C 239.603,89.6149 235.77,86.9483 232.5,83.5C 232.089,84.2624 231.923,85.2624 232,86.5C 231.667,86.1667 231.333,85.8333 231,85.5C 230.768,86.7375 230.268,87.7375 229.5,88.5C 227.59,83.432 224.424,80.0987 220,78.5C 220.105,75.9715 219.938,73.6382 219.5,71.5C 220.369,69.283 220.702,66.9496 220.5,64.5C 221.404,63.791 221.737,62.791 221.5,61.5 Z"/></g>
<g><path style="opacity:1" fill="#5f6e68" d="M 40.5,77.5 C 46.3436,78.1348 52.1769,79.1348 58,80.5C 59.3026,80.0217 60.4693,79.355 61.5,78.5C 61.5,79.1667 61.5,79.8333 61.5,80.5C 59.5,81.1667 57.5,81.8333 55.5,82.5C 54.9032,81.8614 54.0698,81.528 53,81.5C 48.5589,82.622 44.0589,83.2886 39.5,83.5C 39.5,82.8333 39.1667,82.5 38.5,82.5C 39.1223,80.665 40.4556,79.4983 42.5,79C 41.5842,78.7216 40.9175,78.2216 40.5,77.5 Z"/></g>
<g><path style="opacity:1" fill="#1e0f0f" d="M 120.5,67.5 C 123.766,70.7715 124.099,74.2715 121.5,78C 123.708,78.1909 125.708,78.6909 127.5,79.5C 125.95,80.4408 124.284,81.1075 122.5,81.5C 119.482,81.3354 116.482,81.502 113.5,82C 116.544,82.3589 116.878,83.0255 114.5,84C 117.793,84.8256 121.126,85.3256 124.5,85.5C 123.138,88.7308 121.471,91.8975 119.5,95C 120.876,97.5425 122.043,97.7092 123,95.5C 123.167,96.3333 123.333,97.1667 123.5,98C 121.09,105.425 120.923,112.925 123,120.5C 124.333,121.833 125.667,123.167 127,124.5C 129.251,121.983 130.084,118.983 129.5,115.5C 131.308,116.317 132.808,115.65 134,113.5C 134.585,115.129 135.419,116.629 136.5,118C 135.074,123.009 135.574,127.843 138,132.5C 139,134.833 140.667,136.5 143,137.5C 143.573,139.641 144.406,141.641 145.5,143.5C 141.833,143.5 138.167,143.5 134.5,143.5C 134.572,137.639 132.072,133.306 127,130.5C 123.94,124.336 120.44,118.669 116.5,113.5C 108.374,107.213 100.374,100.713 92.5,94C 91.2506,93.2599 90.2506,93.4265 89.5,94.5C 87.1394,92.8061 85.1394,90.8061 83.5,88.5C 82.3143,87.2946 82.3143,85.9613 83.5,84.5C 86.7525,85.2466 90.0859,85.2466 93.5,84.5C 104.797,82.5469 113.797,76.8802 120.5,67.5 Z"/></g>
<g><path style="opacity:1" fill="#d9c3c2" d="M 38.5,77.5 C 39.1667,77.5 39.8333,77.5 40.5,77.5C 40.9175,78.2216 41.5842,78.7216 42.5,79C 40.4556,79.4983 39.1223,80.665 38.5,82.5C 35.7387,83.9205 32.7387,84.5871 29.5,84.5C 25.1018,84.2941 20.7685,84.6274 16.5,85.5C 14.5,85.5 12.5,85.5 10.5,85.5C 15.111,79.9631 20.9443,78.2964 28,80.5C 31.4175,79.194 34.9175,78.194 38.5,77.5 Z"/></g>
<g><path style="opacity:1" fill="#921e21" d="M 192.5,66.5 C 190.745,67.0722 189.078,67.9055 187.5,69C 188.967,71.4013 189.801,73.9013 190,76.5C 189.667,76.8333 189.333,77.1667 189,77.5C 188.481,76.4844 187.647,75.8178 186.5,75.5C 183.078,76.6006 181.578,78.9339 182,82.5C 187.355,84.2502 192.855,85.5835 198.5,86.5C 200.333,86.4146 201.666,85.7479 202.5,84.5C 203.496,84.5858 204.329,84.2524 205,83.5C 205.333,85.5 205.667,87.5 206,89.5C 207.736,91.0632 209.236,92.7299 210.5,94.5C 211.383,99.1031 211.717,103.77 211.5,108.5C 210.027,112.101 210.361,115.434 212.5,118.5C 212.5,119.167 212.5,119.833 212.5,120.5C 210.39,119.547 209.223,117.881 209,115.5C 208.501,111.514 208.334,107.514 208.5,103.5C 209.573,101.347 209.573,99.3469 208.5,97.5C 207.581,94.9108 205.914,92.9108 203.5,91.5C 203.5,90.8333 203.167,90.5 202.5,90.5C 196.355,89.5098 190.022,89.1765 183.5,89.5C 182.749,88.4265 181.749,88.2599 180.5,89C 179.295,90.3756 177.962,91.5423 176.5,92.5C 175.391,92.4431 174.391,92.1098 173.5,91.5C 174.369,89.283 174.702,86.9496 174.5,84.5C 169.167,82.1609 164.501,78.8275 160.5,74.5C 164.918,74.522 168.752,75.8554 172,78.5C 173.953,77.4553 175.953,77.4553 178,78.5C 180.736,76.9228 183.57,75.5895 186.5,74.5C 186.221,71.8822 185.554,69.3822 184.5,67C 185.416,66.7216 186.082,66.2216 186.5,65.5C 187.833,65.1667 189.167,64.8333 190.5,64.5C 193.381,63.1493 196.381,62.316 199.5,62C 197.102,63.5242 194.769,65.0242 192.5,66.5 Z"/></g>
<g><path style="opacity:1" fill="#bfddbd" d="M 38.5,82.5 C 39.1667,82.5 39.5,82.8333 39.5,83.5C 36.8333,85.1667 34.1667,86.8333 31.5,88.5C 28.6725,87.0648 26.3391,87.7315 24.5,90.5C 21.1337,91.2403 17.8004,91.907 14.5,92.5C 13.6618,92.1583 13.3284,91.4916 13.5,90.5C 14.791,90.7373 15.791,90.404 16.5,89.5C 21.8037,90.1614 26.1371,88.4947 29.5,84.5C 32.7387,84.5871 35.7387,83.9205 38.5,82.5 Z"/></g>
<g><path style="opacity:1" fill="#56403e" d="M 157.5,72.5 C 158.5,73.1667 159.5,73.8333 160.5,74.5C 164.501,78.8275 169.167,82.1609 174.5,84.5C 174.702,86.9496 174.369,89.283 173.5,91.5C 172.061,93.3603 170.395,95.027 168.5,96.5C 168.405,94.2143 167.738,92.2143 166.5,90.5C 166.511,88.9826 167.177,87.8159 168.5,87C 165.898,86.065 164.398,84.2317 164,81.5C 163.311,80.6433 162.478,79.9767 161.5,79.5C 160.5,80.8333 159.5,80.8333 158.5,79.5C 156.155,75.779 153.155,72.779 149.5,70.5C 149.828,74.8904 148.995,79.2237 147,83.5C 146.501,79.9843 146.667,76.4843 147.5,73C 147.333,71.8333 147.167,70.6667 147,69.5C 146.617,70.056 146.117,70.3893 145.5,70.5C 145.336,67.8127 145.503,65.146 146,62.5C 148.5,67.5088 152.334,70.8422 157.5,72.5 Z"/></g>
<g><path style="opacity:1" fill="#bcd6b2" d="M 74.5,73.5 C 67.2489,80.4631 59.2489,86.4631 50.5,91.5C 49.5481,89.9547 49.2148,88.288 49.5,86.5C 51.2279,84.7745 53.2279,83.4411 55.5,82.5C 57.5,81.8333 59.5,81.1667 61.5,80.5C 64.1117,79.2213 66.4451,77.5547 68.5,75.5C 70.2972,74.2702 72.2972,73.6036 74.5,73.5 Z"/></g>
<g><path style="opacity:1" fill="#ac7b7d" d="M 218.5,72.5 C 218.5,73.1667 218.5,73.8333 218.5,74.5C 216.611,75.604 214.945,76.9373 213.5,78.5C 210.411,80.4927 208.411,83.326 207.5,87C 208.151,89.558 209.485,90.3913 211.5,89.5C 211.5,90.8333 211.5,92.1667 211.5,93.5C 210.833,93.5 210.5,93.8333 210.5,94.5C 209.236,92.7299 207.736,91.0632 206,89.5C 205.667,87.5 205.333,85.5 205,83.5C 204.329,84.2524 203.496,84.5858 202.5,84.5C 201.539,82.7354 201.205,80.7354 201.5,78.5C 202.29,79.6085 202.79,80.9419 203,82.5C 204,79.8333 205,79.8333 206,82.5C 206.399,82.2716 206.565,81.9382 206.5,81.5C 209.913,77.7579 213.913,74.7579 218.5,72.5 Z"/></g>
<g><path style="opacity:1" fill="#6b4039" d="M 29.5,84.5 C 26.1371,88.4947 21.8037,90.1614 16.5,89.5C 14.3352,89.8841 12.6685,89.2174 11.5,87.5C 13.4185,88.0111 15.0852,87.3444 16.5,85.5C 20.7685,84.6274 25.1018,84.2941 29.5,84.5 Z"/></g>
<g><path style="opacity:1" fill="#40231c" d="M 213.5,78.5 C 213.442,80.2813 213.775,82.2813 214.5,84.5C 215.478,84.0233 216.311,83.3567 217,82.5C 217.167,83 217.333,83.5 217.5,84C 215.625,86.0451 213.625,87.8785 211.5,89.5C 209.485,90.3913 208.151,89.558 207.5,87C 208.411,83.326 210.411,80.4927 213.5,78.5 Z"/></g>
<g><path style="opacity:1" fill="#a58588" d="M 10.5,85.5 C 12.5,85.5 14.5,85.5 16.5,85.5C 15.0852,87.3444 13.4185,88.0111 11.5,87.5C 12.6685,89.2174 14.3352,89.8841 16.5,89.5C 15.791,90.404 14.791,90.7373 13.5,90.5C 13.1667,90.5 12.8333,90.5 12.5,90.5C 10.5853,90.7845 8.91866,90.4511 7.5,89.5C 7.73758,87.5956 8.73758,86.2623 10.5,85.5 Z"/></g>
<g><path style="opacity:1" fill="#303a44" d="M 55.5,82.5 C 53.2279,83.4411 51.2279,84.7745 49.5,86.5C 47.8372,88.4385 47.1706,90.7718 47.5,93.5C 44.2869,93.19 41.2869,93.5233 38.5,94.5C 36.5853,94.2155 34.9187,94.5489 33.5,95.5C 29.4629,96.2037 27.1295,98.537 26.5,102.5C 24.2736,100.82 22.6069,101.153 21.5,103.5C 20.6554,102.329 19.9887,100.995 19.5,99.5C 24.1053,96.5643 28.1053,92.8976 31.5,88.5C 34.1667,86.8333 36.8333,85.1667 39.5,83.5C 44.0589,83.2886 48.5589,82.622 53,81.5C 54.0698,81.528 54.9032,81.8614 55.5,82.5 Z"/></g>
<g><path style="opacity:1" fill="#6d3536" d="M 183.5,89.5 C 190.022,89.1765 196.355,89.5098 202.5,90.5C 199.813,90.3359 197.146,90.5026 194.5,91C 195.381,91.7083 196.047,92.5416 196.5,93.5C 190.935,91.3767 185.268,91.0433 179.5,92.5C 180.262,90.7376 181.596,89.7376 183.5,89.5 Z"/></g>
<g><path style="opacity:1" fill="#bc2427" d="M 183.5,89.5 C 181.596,89.7376 180.262,90.7376 179.5,92.5C 178.5,92.8333 177.833,93.5 177.5,94.5C 174.263,96.6304 172.263,99.6304 171.5,103.5C 171.167,103.5 170.833,103.5 170.5,103.5C 171.198,99.1026 173.198,95.4359 176.5,92.5C 177.962,91.5423 179.295,90.3756 180.5,89C 181.749,88.2599 182.749,88.4265 183.5,89.5 Z"/></g>
<g><path style="opacity:1" fill="#c6a9ab" d="M 219.5,90.5 C 220.213,93.5939 221.213,96.5939 222.5,99.5C 221.833,99.5 221.5,99.8333 221.5,100.5C 219.905,98.1715 218.905,95.5048 218.5,92.5C 218.543,91.5836 218.876,90.9169 219.5,90.5 Z"/></g>
<g><path style="opacity:1" fill="#9eb89e" d="M 31.5,88.5 C 28.1053,92.8976 24.1053,96.5643 19.5,99.5C 18.2213,96.8883 16.5547,94.5549 14.5,92.5C 17.8004,91.907 21.1337,91.2403 24.5,90.5C 26.3391,87.7315 28.6725,87.0648 31.5,88.5 Z"/></g>
<g><path style="opacity:1" fill="#985847" d="M 196.5,93.5 C 196.587,96.5983 196.087,96.9316 195,94.5C 189.225,95.5929 183.391,95.5929 177.5,94.5C 177.833,93.5 178.5,92.8333 179.5,92.5C 185.268,91.0433 190.935,91.3767 196.5,93.5 Z"/></g>
<g><path style="opacity:1" fill="#604f4f" d="M 202.5,90.5 C 203.167,90.5 203.5,90.8333 203.5,91.5C 202.943,95.0698 201.776,98.4031 200,101.5C 199.667,99.1667 199.333,96.8333 199,94.5C 198.329,93.7476 197.496,93.4142 196.5,93.5C 196.047,92.5416 195.381,91.7083 194.5,91C 197.146,90.5026 199.813,90.3359 202.5,90.5 Z"/></g>
<g><path style="opacity:1" fill="#dbc4c2" d="M -0.5,93.5 C -0.166667,93.5 0.166667,93.5 0.5,93.5C 4.8068,95.8476 4.47346,97.5143 -0.5,98.5C -0.5,96.8333 -0.5,95.1667 -0.5,93.5 Z"/></g>
<g><path style="opacity:1" fill="#bb5d59" d="M 173.5,91.5 C 174.391,92.1098 175.391,92.4431 176.5,92.5C 173.198,95.4359 171.198,99.1026 170.5,103.5C 169.685,104.429 168.852,105.429 168,106.5C 168.29,103.587 168.457,100.587 168.5,97.5C 168.5,97.1667 168.5,96.8333 168.5,96.5C 170.395,95.027 172.061,93.3603 173.5,91.5 Z"/></g>
<g><path style="opacity:1" fill="#d1a0c4" d="M 211.5,93.5 C 212.414,96.728 212.747,100.061 212.5,103.5C 212.5,105.167 212.5,106.833 212.5,108.5C 212.167,108.5 211.833,108.5 211.5,108.5C 211.717,103.77 211.383,99.1031 210.5,94.5C 210.5,93.8333 210.833,93.5 211.5,93.5 Z"/></g>
<g><path style="opacity:1" fill="#421515" d="M 203.5,91.5 C 205.914,92.9108 207.581,94.9108 208.5,97.5C 205.739,102.096 202.073,105.93 197.5,109C 198.448,109.483 199.448,109.649 200.5,109.5C 200.5,109.833 200.5,110.167 200.5,110.5C 194.491,110.701 188.491,111.034 182.5,111.5C 183.078,109.557 184.078,109.223 185.5,110.5C 186.478,110.023 187.311,109.357 188,108.5C 188.718,109.451 189.551,109.617 190.5,109C 191.731,107.817 191.731,106.651 190.5,105.5C 185.621,105.687 180.621,105.687 175.5,105.5C 175.5,106.833 175.5,108.167 175.5,109.5C 176.822,109.67 177.989,109.337 179,108.5C 179.5,109 180,109.5 180.5,110C 178.19,110.497 175.857,110.663 173.5,110.5C 173.834,107.812 173.168,105.479 171.5,103.5C 172.263,99.6304 174.263,96.6304 177.5,94.5C 183.391,95.5929 189.225,95.5929 195,94.5C 196.087,96.9316 196.587,96.5983 196.5,93.5C 197.496,93.4142 198.329,93.7476 199,94.5C 199.333,96.8333 199.667,99.1667 200,101.5C 201.776,98.4031 202.943,95.0698 203.5,91.5 Z"/></g>
<g><path style="opacity:1" fill="#423935" d="M 12.5,90.5 C 12.8333,90.5 13.1667,90.5 13.5,90.5C 13.3284,91.4916 13.6618,92.1583 14.5,92.5C 16.5547,94.5549 18.2213,96.8883 19.5,99.5C 18.7451,102.053 18.0784,104.72 17.5,107.5C 16.6907,105.987 16.5241,104.32 17,102.5C 15.9326,101.809 14.7659,101.309 13.5,101C 12.7476,100.329 12.4142,99.4959 12.5,98.5C 12.5,95.8333 12.5,93.1667 12.5,90.5 Z"/></g>
<g><path style="opacity:1" fill="#90a08e" d="M 33.5,95.5 C 34.8734,95.3433 36.2068,95.51 37.5,96C 33.8571,97.8048 31.5237,100.638 30.5,104.5C 29.5416,104.047 28.7083,103.381 28,102.5C 27.6012,102.728 27.4346,103.062 27.5,103.5C 26.8333,103.5 26.5,103.167 26.5,102.5C 27.1295,98.537 29.4629,96.2037 33.5,95.5 Z"/></g>
<g><path style="opacity:1" fill="#2f3039" d="M 79.5,74.5 C 80.3382,74.8417 80.6716,75.5084 80.5,76.5C 81.1667,78.8333 81.8333,81.1667 82.5,83.5C 82.5,84.1667 82.8333,84.5 83.5,84.5C 82.3143,85.9613 82.3143,87.2946 83.5,88.5C 83.5622,91.753 84.3956,94.753 86,97.5C 86.6667,100.167 86.6667,102.833 86,105.5C 82.4863,108.158 80.653,107.158 80.5,102.5C 79.5534,93.2197 79.2201,83.8864 79.5,74.5 Z"/></g>
<g><path style="opacity:1" fill="#3f2e2c" d="M 166.5,90.5 C 165.19,94.1446 163.856,97.8112 162.5,101.5C 160.17,103.542 159.004,106.208 159,109.5C 158.71,107.048 158.044,104.715 157,102.5C 156.667,103.167 156.333,103.833 156,104.5C 154.055,99.2763 150.722,95.2763 146,92.5C 145.506,94.1341 145.34,95.8008 145.5,97.5C 143.139,96.2121 141.639,94.2121 141,91.5C 139.723,93.7472 138.223,95.7472 136.5,97.5C 138.805,91.9756 139.638,86.3089 139,80.5C 144.417,86.0872 145.584,85.2539 142.5,78C 143.391,75.7211 144.391,73.5544 145.5,71.5C 145.5,71.1667 145.5,70.8333 145.5,70.5C 146.117,70.3893 146.617,70.056 147,69.5C 147.167,70.6667 147.333,71.8333 147.5,73C 146.667,76.4843 146.501,79.9843 147,83.5C 148.995,79.2237 149.828,74.8904 149.5,70.5C 153.155,72.779 156.155,75.779 158.5,79.5C 159.5,80.8333 160.5,80.8333 161.5,79.5C 162.478,79.9767 163.311,80.6433 164,81.5C 164.398,84.2317 165.898,86.065 168.5,87C 167.177,87.8159 166.511,88.9826 166.5,90.5 Z"/></g>
<g><path style="opacity:1" fill="#24272f" d="M 255.5,88.5 C 255.5,106.833 255.5,125.167 255.5,143.5C 255.167,143.5 254.833,143.5 254.5,143.5C 250.83,140.166 246.83,136 242.5,131C 242.833,130.667 243.167,130.333 243.5,130C 239.01,125.145 237.01,119.645 237.5,113.5C 235.611,112.396 233.945,111.063 232.5,109.5C 232.808,108.692 233.308,108.025 234,107.5C 234.051,104.723 234.218,102.057 234.5,99.5C 239.552,102.578 240.385,101.911 237,97.5C 233.938,99.1305 232.271,98.1305 232,94.5C 231.667,94.8333 231.333,95.1667 231,95.5C 230.56,93.1341 230.06,90.8008 229.5,88.5C 230.268,87.7375 230.768,86.7375 231,85.5C 231.333,85.8333 231.667,86.1667 232,86.5C 231.923,85.2624 232.089,84.2624 232.5,83.5C 235.77,86.9483 239.603,89.6149 244,91.5C 245.062,90.1007 246.395,89.1007 248,88.5C 250.337,88.8985 252.837,88.8985 255.5,88.5 Z"/></g>
<g><path style="opacity:1" fill="#3d4133" d="M 33.5,95.5 C 34.9187,94.5489 36.5853,94.2155 38.5,94.5C 43.2398,93.9207 45.9064,95.9207 46.5,100.5C 45.4551,106.541 41.7884,109.541 35.5,109.5C 35.762,108.022 35.4287,106.689 34.5,105.5C 33.2638,106.246 31.9305,106.579 30.5,106.5C 30.5,105.833 30.5,105.167 30.5,104.5C 31.5237,100.638 33.8571,97.8048 37.5,96C 36.2068,95.51 34.8734,95.3433 33.5,95.5 Z"/></g>
<g><path style="opacity:1" fill="#572826" d="M 166.5,90.5 C 167.738,92.2143 168.405,94.2143 168.5,96.5C 168.5,96.8333 168.5,97.1667 168.5,97.5C 167.607,101.191 166.607,104.858 165.5,108.5C 165.657,107.127 165.49,105.793 165,104.5C 164.586,104.957 164.086,105.291 163.5,105.5C 162.571,104.311 162.238,102.978 162.5,101.5C 163.856,97.8112 165.19,94.1446 166.5,90.5 Z"/></g>
<g><path style="opacity:1" fill="#262520" d="M 78.5,72.5 C 79.3382,72.8417 79.6716,73.5084 79.5,74.5C 79.2201,83.8864 79.5534,93.2197 80.5,102.5C 79.2584,104.389 79.2584,106.389 80.5,108.5C 79.791,109.404 78.791,109.737 77.5,109.5C 77.719,110.675 77.3857,111.675 76.5,112.5C 72.1605,110.552 67.6605,108.885 63,107.5C 62.228,107.645 61.5613,107.978 61,108.5C 59.6487,106.981 58.1487,105.648 56.5,104.5C 55.8076,105.025 55.3076,105.692 55,106.5C 53.2458,104.75 51.0792,104.083 48.5,104.5C 48.8432,102.517 48.1765,101.183 46.5,100.5C 45.9064,95.9207 43.2398,93.9207 38.5,94.5C 41.2869,93.5233 44.2869,93.19 47.5,93.5C 47.1706,90.7718 47.8372,88.4385 49.5,86.5C 49.2148,88.288 49.5481,89.9547 50.5,91.5C 59.2489,86.4631 67.2489,80.4631 74.5,73.5C 75.3764,73.3691 76.0431,73.7025 76.5,74.5C 74.3951,76.5916 72.7284,78.9249 71.5,81.5C 65.6689,87.5338 61.6689,94.7005 59.5,103C 63.1037,106.408 67.437,108.241 72.5,108.5C 74.9199,108.018 76.7532,106.685 78,104.5C 78.4997,96.8406 78.6664,89.1739 78.5,81.5C 78.5,78.5 78.5,75.5 78.5,72.5 Z"/></g>
<g><path style="opacity:1" fill="#4c503d" d="M 71.5,81.5 C 69.7686,87.7816 67.4353,93.7816 64.5,99.5C 64.9825,102.982 66.9825,104.649 70.5,104.5C 70.281,105.675 70.6143,106.675 71.5,107.5C 73.8678,106.631 75.3678,104.965 76,102.5C 76.5728,95.3203 77.4061,88.3203 78.5,81.5C 78.6664,89.1739 78.4997,96.8406 78,104.5C 76.7532,106.685 74.9199,108.018 72.5,108.5C 67.437,108.241 63.1037,106.408 59.5,103C 61.6689,94.7005 65.6689,87.5338 71.5,81.5 Z"/></g>
<g><path style="opacity:1" fill="#b5a7a3" d="M 73.5,82.5 C 74.6935,82.9704 75.3601,83.9704 75.5,85.5C 74.9045,90.3113 73.7378,94.9779 72,99.5C 70.1406,98.3545 69.3073,96.6878 69.5,94.5C 71.3793,90.7278 72.7126,86.7278 73.5,82.5 Z"/></g>
<g><path style="opacity:1" fill="#7c6888" d="M 19.5,99.5 C 19.9887,100.995 20.6554,102.329 21.5,103.5C 21.8204,106.898 21.487,110.232 20.5,113.5C 19.8182,112.757 19.1515,112.091 18.5,111.5C 18.1667,110.167 17.8333,108.833 17.5,107.5C 18.0784,104.72 18.7451,102.053 19.5,99.5 Z"/></g>
<g><path style="opacity:1" fill="#222122" d="M 83.5,88.5 C 85.1394,90.8061 87.1394,92.8061 89.5,94.5C 100.643,105.459 106.31,118.792 106.5,134.5C 106.666,137.168 107.666,139.502 109.5,141.5C 109.333,141.833 109.167,142.167 109,142.5C 106.903,139.742 105.403,140.075 104.5,143.5C 103.833,143.5 103.167,143.5 102.5,143.5C 103.888,136.454 104.388,129.12 104,121.5C 102.333,117.167 100.667,112.833 99,108.5C 95.6667,105.167 92.3333,101.833 89,98.5C 88.6076,101.188 88.1076,103.855 87.5,106.5C 88.8229,108.165 90.1562,109.832 91.5,111.5C 89.5,111.5 87.5,111.5 85.5,111.5C 85.1723,115.407 85.1723,119.407 85.5,123.5C 86.5589,127.78 88.7256,128.446 92,125.5C 92.6667,126.167 93.3333,126.833 94,127.5C 95.2156,125.038 95.8823,122.371 96,119.5C 96.2784,120.416 96.7784,121.082 97.5,121.5C 97.4591,126.934 94.9591,130.6 90,132.5C 89.6667,132.167 89.3333,131.833 89,131.5C 88.5983,132.872 88.0983,134.205 87.5,135.5C 88.2624,135.911 89.2624,136.077 90.5,136C 90.1667,136.333 89.8333,136.667 89.5,137C 90.7282,137.779 91.7282,138.779 92.5,140C 91.3421,141.261 91.3421,142.427 92.5,143.5C 87.1667,143.5 81.8333,143.5 76.5,143.5C 78.5313,139.289 81.198,135.456 84.5,132C 82.0688,130.908 82.0688,129.741 84.5,128.5C 83.5248,124.532 82.5248,120.532 81.5,116.5C 81.9397,114.235 82.6064,112.068 83.5,110C 82.7562,108.961 81.7562,108.461 80.5,108.5C 79.2584,106.389 79.2584,104.389 80.5,102.5C 80.653,107.158 82.4863,108.158 86,105.5C 86.6667,102.833 86.6667,100.167 86,97.5C 84.3956,94.753 83.5622,91.753 83.5,88.5 Z"/></g>
<g><path style="opacity:1" fill="#442a20" d="M 7.5,89.5 C 8.91866,90.4511 10.5853,90.7845 12.5,90.5C 12.5,93.1667 12.5,95.8333 12.5,98.5C 11.7269,96.4506 10.2269,95.1173 8,94.5C 6.72024,94.6135 5.88691,95.2801 5.5,96.5C 8.53763,100.709 10.5376,105.376 11.5,110.5C 7.97265,112.659 3.97265,113.993 -0.5,114.5C -0.5,109.167 -0.5,103.833 -0.5,98.5C 4.47346,97.5143 4.8068,95.8476 0.5,93.5C 3.02854,92.5426 5.36187,91.2092 7.5,89.5 Z"/></g>
<g><path style="opacity:1" fill="#7d1a1b" d="M 168.5,97.5 C 168.457,100.587 168.29,103.587 168,106.5C 168.852,105.429 169.685,104.429 170.5,103.5C 170.233,105.965 169.566,108.299 168.5,110.5C 167.4,111.605 166.733,112.938 166.5,114.5C 164.463,116.53 162.13,118.196 159.5,119.5C 159.167,119.167 158.833,118.833 158.5,118.5C 161.637,115.701 163.971,112.368 165.5,108.5C 166.607,104.858 167.607,101.191 168.5,97.5 Z"/></g>
<g><path style="opacity:1" fill="#5f3830" d="M 170.5,103.5 C 170.833,103.5 171.167,103.5 171.5,103.5C 173.168,105.479 173.834,107.812 173.5,110.5C 175.857,110.663 178.19,110.497 180.5,110C 180,109.5 179.5,109 179,108.5C 177.989,109.337 176.822,109.67 175.5,109.5C 175.5,108.167 175.5,106.833 175.5,105.5C 180.621,105.687 185.621,105.687 190.5,105.5C 191.731,106.651 191.731,107.817 190.5,109C 189.551,109.617 188.718,109.451 188,108.5C 187.311,109.357 186.478,110.023 185.5,110.5C 184.078,109.223 183.078,109.557 182.5,111.5C 177.737,111.774 173.07,111.441 168.5,110.5C 169.566,108.299 170.233,105.965 170.5,103.5 Z"/></g>
<g><path style="opacity:1" fill="#d6b9e5" d="M 222.5,99.5 C 225.203,104.377 228.536,108.877 232.5,113C 230.544,112.778 228.71,111.945 227,110.5C 226.503,112.81 226.337,115.143 226.5,117.5C 224.675,112.01 223.008,106.343 221.5,100.5C 221.5,99.8333 221.833,99.5 222.5,99.5 Z"/></g>
<g><path style="opacity:1" fill="#926468" d="M 208.5,97.5 C 209.573,99.3469 209.573,101.347 208.5,103.5C 206.142,105.529 203.808,107.529 201.5,109.5C 201.167,109.5 200.833,109.5 200.5,109.5C 199.448,109.649 198.448,109.483 197.5,109C 202.073,105.93 205.739,102.096 208.5,97.5 Z"/></g>
<g><path style="opacity:1" fill="#563833" d="M 218.5,74.5 C 218.392,79.8699 218.725,85.2032 219.5,90.5C 218.876,90.9169 218.543,91.5836 218.5,92.5C 218.905,95.5048 219.905,98.1715 221.5,100.5C 223.008,106.343 224.675,112.01 226.5,117.5C 226.5,118.5 226.5,119.5 226.5,120.5C 225.21,119.942 224.377,118.942 224,117.5C 224.666,121.662 225.832,125.662 227.5,129.5C 228.482,132.962 228.815,136.629 228.5,140.5C 228.164,135.34 226.331,130.673 223,126.5C 222.601,126.728 222.435,127.062 222.5,127.5C 220.226,125.855 220.226,124.355 222.5,123C 214.884,115.74 212.884,107.907 216.5,99.5C 216.081,98.3279 215.415,97.3279 214.5,96.5C 213.832,98.9688 213.165,101.302 212.5,103.5C 212.747,100.061 212.414,96.728 211.5,93.5C 211.5,92.1667 211.5,90.8333 211.5,89.5C 213.625,87.8785 215.625,86.0451 217.5,84C 217.333,83.5 217.167,83 217,82.5C 216.311,83.3567 215.478,84.0233 214.5,84.5C 213.775,82.2813 213.442,80.2813 213.5,78.5C 214.945,76.9373 216.611,75.604 218.5,74.5 Z"/></g>
<g><path style="opacity:1" fill="#846374" d="M 211.5,108.5 C 211.833,108.5 212.167,108.5 212.5,108.5C 212.5,111.833 212.5,115.167 212.5,118.5C 210.361,115.434 210.027,112.101 211.5,108.5 Z"/></g>
<g><path style="opacity:1" fill="#2d1618" d="M 122.5,81.5 C 123.598,82.397 123.598,83.2303 122.5,84C 124.076,84.4396 125.41,85.273 126.5,86.5C 127.478,86.0233 128.311,85.3567 129,84.5C 128.498,88.6729 127.165,92.6729 125,96.5C 124.219,97.9437 124.386,99.277 125.5,100.5C 129.572,96.0173 133.406,91.3506 137,86.5C 135.878,90.7743 134.711,95.1076 133.5,99.5C 132.883,99.6107 132.383,99.944 132,100.5C 131.145,105.525 130.312,110.525 129.5,115.5C 130.084,118.983 129.251,121.983 127,124.5C 125.667,123.167 124.333,121.833 123,120.5C 120.923,112.925 121.09,105.425 123.5,98C 123.333,97.1667 123.167,96.3333 123,95.5C 122.043,97.7092 120.876,97.5425 119.5,95C 121.471,91.8975 123.138,88.7308 124.5,85.5C 121.126,85.3256 117.793,84.8256 114.5,84C 116.878,83.0255 116.544,82.3589 113.5,82C 116.482,81.502 119.482,81.3354 122.5,81.5 Z"/></g>
<g><path style="opacity:1" fill="#1d1413" d="M 46.5,100.5 C 48.1765,101.183 48.8432,102.517 48.5,104.5C 47.1943,105.968 45.6943,107.301 44,108.5C 44,109.833 44,111.167 44,112.5C 41.8773,110.328 39.7106,110.161 37.5,112C 39.3551,113.855 41.1884,115.688 43,117.5C 44.15,118.424 45.15,118.424 46,117.5C 46.4901,119.545 46.3235,121.545 45.5,123.5C 44.9033,123.735 44.5699,124.235 44.5,125C 45.5038,126.798 46.0038,128.632 46,130.5C 45.0853,129.672 44.4186,128.672 44,127.5C 42.9887,128.337 41.8221,128.67 40.5,128.5C 40.2627,129.791 40.596,130.791 41.5,131.5C 43.5331,135.021 45.1998,138.688 46.5,142.5C 46.5,142.833 46.5,143.167 46.5,143.5C 44.8333,143.5 43.1667,143.5 41.5,143.5C 40.0274,140.439 38.3607,137.439 36.5,134.5C 33.8333,133.167 31.1667,131.833 28.5,130.5C 26.2545,125.674 23.7545,121.008 21,116.5C 20.6012,116.728 20.4346,117.062 20.5,117.5C 18.7202,116.01 18.0535,114.01 18.5,111.5C 19.1515,112.091 19.8182,112.757 20.5,113.5C 21.487,110.232 21.8204,106.898 21.5,103.5C 22.6069,101.153 24.2736,100.82 26.5,102.5C 26.5,103.167 26.8333,103.5 27.5,103.5C 27.5,105.5 27.5,107.5 27.5,109.5C 28.5,109.5 29.5,109.5 30.5,109.5C 30.5,108.5 30.5,107.5 30.5,106.5C 31.9305,106.579 33.2638,106.246 34.5,105.5C 35.4287,106.689 35.762,108.022 35.5,109.5C 41.7884,109.541 45.4551,106.541 46.5,100.5 Z"/></g>
<g><path style="opacity:1" fill="#6f5a73" d="M 30.5,104.5 C 30.5,105.167 30.5,105.833 30.5,106.5C 30.5,107.5 30.5,108.5 30.5,109.5C 29.5,109.5 28.5,109.5 27.5,109.5C 27.5,107.5 27.5,105.5 27.5,103.5C 27.4346,103.062 27.6012,102.728 28,102.5C 28.7083,103.381 29.5416,104.047 30.5,104.5 Z"/></g>
<g><path style="opacity:1" fill="#675655" d="M 197.5,113.5 C 196.685,114.837 195.518,115.837 194,116.5C 193.503,118.81 193.337,121.143 193.5,123.5C 192.997,128.5 192.664,128.167 192.5,122.5C 191.5,122.5 190.5,122.5 189.5,122.5C 188.895,120.974 187.729,119.974 186,119.5C 184.989,120.337 183.822,120.67 182.5,120.5C 182.574,118.589 183.574,117.422 185.5,117C 183.139,116.803 181.472,115.636 180.5,113.5C 186.188,112.258 191.855,112.258 197.5,113.5 Z"/></g>
<g><path style="opacity:1" fill="#1b0a05" d="M 12.5,98.5 C 12.4142,99.4959 12.7476,100.329 13.5,101C 14.7659,101.309 15.9326,101.809 17,102.5C 16.5241,104.32 16.6907,105.987 17.5,107.5C 17.8333,108.833 18.1667,110.167 18.5,111.5C 18.0535,114.01 18.7202,116.01 20.5,117.5C 23.5148,123.579 26.5148,129.579 29.5,135.5C 30.5,138.167 31.5,140.833 32.5,143.5C 30.1667,143.5 27.8333,143.5 25.5,143.5C 23.3911,140.03 21.5577,136.363 20,132.5C 17.8526,131.887 15.686,131.221 13.5,130.5C 14.6143,125.554 14.781,120.554 14,115.5C 13.6264,113.509 12.793,111.842 11.5,110.5C 10.5376,105.376 8.53763,100.709 5.5,96.5C 5.88691,95.2801 6.72024,94.6135 8,94.5C 10.2269,95.1173 11.7269,96.4506 12.5,98.5 Z"/></g>
<g><path style="opacity:1" fill="#1f2625" d="M 48.5,104.5 C 51.0792,104.083 53.2458,104.75 55,106.5C 55.3076,105.692 55.8076,105.025 56.5,104.5C 58.1487,105.648 59.6487,106.981 61,108.5C 61.5613,107.978 62.228,107.645 63,107.5C 67.6605,108.885 72.1605,110.552 76.5,112.5C 77.3857,111.675 77.719,110.675 77.5,109.5C 78.791,109.737 79.791,109.404 80.5,108.5C 81.7562,108.461 82.7562,108.961 83.5,110C 82.6064,112.068 81.9397,114.235 81.5,116.5C 82.5248,120.532 83.5248,124.532 84.5,128.5C 80.4493,128.494 77.116,126.994 74.5,124C 72.3921,123.64 70.3921,122.973 68.5,122C 69.6039,120.869 69.2705,120.035 67.5,119.5C 66.914,119.709 66.414,120.043 66,120.5C 62.8929,119.748 59.8929,118.748 57,117.5C 56.1667,117.667 55.3333,117.833 54.5,118C 53.1667,118.667 53.1667,119.333 54.5,120C 49.6667,119.5 47.5,121.667 48,126.5C 47.1482,125.429 46.3149,124.429 45.5,123.5C 46.3235,121.545 46.4901,119.545 46,117.5C 45.15,118.424 44.15,118.424 43,117.5C 41.1884,115.688 39.3551,113.855 37.5,112C 39.7106,110.161 41.8773,110.328 44,112.5C 44,111.167 44,109.833 44,108.5C 45.6943,107.301 47.1943,105.968 48.5,104.5 Z"/></g>
<g><path style="opacity:1" fill="#463533" d="M 168.5,110.5 C 173.07,111.441 177.737,111.774 182.5,111.5C 188.491,111.034 194.491,110.701 200.5,110.5C 199.833,111.833 198.833,112.833 197.5,113.5C 191.855,112.258 186.188,112.258 180.5,113.5C 181.472,115.636 183.139,116.803 185.5,117C 183.574,117.422 182.574,118.589 182.5,120.5C 180.883,121.038 179.216,121.371 177.5,121.5C 174.541,122.36 171.874,122.36 169.5,121.5C 168.199,119.328 167.199,116.995 166.5,114.5C 166.733,112.938 167.4,111.605 168.5,110.5 Z"/></g>
<g><path style="opacity:1" fill="#371e14" d="M 89.5,94.5 C 90.2506,93.4265 91.2506,93.2599 92.5,94C 100.374,100.713 108.374,107.213 116.5,113.5C 116.611,114.117 116.944,114.617 117.5,115C 115.833,115.333 114.167,115.667 112.5,116C 115.383,120.24 117.217,124.74 118,129.5C 114.668,129.767 111.501,129.767 108.5,129.5C 112.128,132.954 115.962,136.288 120,139.5C 120.791,140.745 121.291,142.078 121.5,143.5C 119.833,143.5 118.167,143.5 116.5,143.5C 114.252,139.746 111.419,136.412 108,133.5C 107.617,134.056 107.117,134.389 106.5,134.5C 106.31,118.792 100.643,105.459 89.5,94.5 Z"/></g>
<g><path style="opacity:1" fill="#271213" d="M 162.5,101.5 C 162.238,102.978 162.571,104.311 163.5,105.5C 164.086,105.291 164.586,104.957 165,104.5C 165.49,105.793 165.657,107.127 165.5,108.5C 163.971,112.368 161.637,115.701 158.5,118.5C 158.833,118.833 159.167,119.167 159.5,119.5C 162.13,118.196 164.463,116.53 166.5,114.5C 167.199,116.995 168.199,119.328 169.5,121.5C 168.35,120.15 167.683,120.316 167.5,122C 168.953,126.367 170.786,130.534 173,134.5C 174.264,136.607 176.097,137.607 178.5,137.5C 178.5,139.5 178.5,141.5 178.5,143.5C 173.5,143.5 168.5,143.5 163.5,143.5C 160.448,135.728 157.115,128.061 153.5,120.5C 154.325,119.614 155.325,119.281 156.5,119.5C 156.75,116.495 155.417,114.662 152.5,114C 152.957,113.586 153.291,113.086 153.5,112.5C 150.024,107.879 147.358,102.879 145.5,97.5C 145.34,95.8008 145.506,94.1341 146,92.5C 150.722,95.2763 154.055,99.2763 156,104.5C 156.333,103.833 156.667,103.167 157,102.5C 158.044,104.715 158.71,107.048 159,109.5C 159.004,106.208 160.17,103.542 162.5,101.5 Z"/></g>
<g><path style="opacity:1" fill="#b796bf" d="M 200.5,109.5 C 200.833,109.5 201.167,109.5 201.5,109.5C 202.111,112.961 200.944,115.628 198,117.5C 197.478,121.584 196.645,125.584 195.5,129.5C 194.833,127.5 194.167,125.5 193.5,123.5C 193.337,121.143 193.503,118.81 194,116.5C 195.518,115.837 196.685,114.837 197.5,113.5C 198.833,112.833 199.833,111.833 200.5,110.5C 200.5,110.167 200.5,109.833 200.5,109.5 Z"/></g>
<g><path style="opacity:1" fill="#281010" d="M 208.5,103.5 C 208.334,107.514 208.501,111.514 209,115.5C 209.223,117.881 210.39,119.547 212.5,120.5C 212.489,122.017 211.823,123.184 210.5,124C 214.104,129.497 215.271,135.33 214,141.5C 213.667,141.167 213.333,140.833 213,140.5C 212.517,141.448 212.351,142.448 212.5,143.5C 204.5,143.5 196.5,143.5 188.5,143.5C 188.34,141.801 188.506,140.134 189,138.5C 191.666,135.824 193.833,132.824 195.5,129.5C 196.645,125.584 197.478,121.584 198,117.5C 200.944,115.628 202.111,112.961 201.5,109.5C 203.808,107.529 206.142,105.529 208.5,103.5 Z"/></g>
<g><path style="opacity:1" fill="#381e13" d="M 11.5,110.5 C 12.793,111.842 13.6264,113.509 14,115.5C 14.781,120.554 14.6143,125.554 13.5,130.5C 15.686,131.221 17.8526,131.887 20,132.5C 21.5577,136.363 23.3911,140.03 25.5,143.5C 16.8333,143.5 8.16667,143.5 -0.5,143.5C -0.5,133.833 -0.5,124.167 -0.5,114.5C 3.97265,113.993 7.97265,112.659 11.5,110.5 Z"/></g>
<g><path style="opacity:1" fill="#28272f" d="M 219.5,71.5 C 219.938,73.6382 220.105,75.9715 220,78.5C 224.424,80.0987 227.59,83.432 229.5,88.5C 230.06,90.8008 230.56,93.1341 231,95.5C 231.333,95.1667 231.667,94.8333 232,94.5C 232.271,98.1305 233.938,99.1305 237,97.5C 240.385,101.911 239.552,102.578 234.5,99.5C 234.218,102.057 234.051,104.723 234,107.5C 233.308,108.025 232.808,108.692 232.5,109.5C 233.945,111.063 235.611,112.396 237.5,113.5C 237.01,119.645 239.01,125.145 243.5,130C 243.167,130.333 242.833,130.667 242.5,131C 246.83,136 250.83,140.166 254.5,143.5C 245.833,143.5 237.167,143.5 228.5,143.5C 228.5,142.5 228.5,141.5 228.5,140.5C 228.815,136.629 228.482,132.962 227.5,129.5C 227.296,126.482 226.963,123.482 226.5,120.5C 226.5,119.5 226.5,118.5 226.5,117.5C 226.337,115.143 226.503,112.81 227,110.5C 228.71,111.945 230.544,112.778 232.5,113C 228.536,108.877 225.203,104.377 222.5,99.5C 221.213,96.5939 220.213,93.5939 219.5,90.5C 218.725,85.2032 218.392,79.8699 218.5,74.5C 218.5,73.8333 218.5,73.1667 218.5,72.5C 219.167,72.5 219.5,72.1667 219.5,71.5 Z"/></g>
<g><path style="opacity:1" fill="#33272c" d="M 145.5,97.5 C 147.358,102.879 150.024,107.879 153.5,112.5C 153.291,113.086 152.957,113.586 152.5,114C 155.417,114.662 156.75,116.495 156.5,119.5C 155.325,119.281 154.325,119.614 153.5,120.5C 157.115,128.061 160.448,135.728 163.5,143.5C 157.5,143.5 151.5,143.5 145.5,143.5C 144.406,141.641 143.573,139.641 143,137.5C 140.667,136.5 139,134.833 138,132.5C 135.574,127.843 135.074,123.009 136.5,118C 135.419,116.629 134.585,115.129 134,113.5C 132.808,115.65 131.308,116.317 129.5,115.5C 130.312,110.525 131.145,105.525 132,100.5C 132.383,99.944 132.883,99.6107 133.5,99.5C 132.782,101.137 132.616,102.803 133,104.5C 134.262,102.216 135.428,99.8823 136.5,97.5C 138.223,95.7472 139.723,93.7472 141,91.5C 141.639,94.2121 143.139,96.2121 145.5,97.5 Z"/></g>
<g><path style="opacity:1" fill="#55484e" d="M 141.5,99.5 C 142.748,100.334 143.415,101.667 143.5,103.5C 144.46,109.149 144.627,114.815 144,120.5C 142.853,119.542 141.853,119.875 141,121.5C 140.779,118.057 139.779,117.724 138,120.5C 137.833,120 137.667,119.5 137.5,119C 139.945,112.723 141.278,106.223 141.5,99.5 Z"/></g>
<g><path style="opacity:1" fill="#3b463f" d="M 91.5,111.5 C 95.0231,113.873 97.0231,117.207 97.5,121.5C 96.7784,121.082 96.2784,120.416 96,119.5C 95.8823,122.371 95.2156,125.038 94,127.5C 93.3333,126.833 92.6667,126.167 92,125.5C 88.7256,128.446 86.5589,127.78 85.5,123.5C 85.1723,119.407 85.1723,115.407 85.5,111.5C 87.5,111.5 89.5,111.5 91.5,111.5 Z"/></g>
<g><path style="opacity:1" fill="#a2be93" d="M 85.5,123.5 C 85.2011,121.396 85.5344,119.396 86.5,117.5C 87.9911,118.348 88.6578,119.681 88.5,121.5C 88.3333,122.5 88.1667,123.5 88,124.5C 87.3292,123.748 86.4959,123.414 85.5,123.5 Z"/></g>
<g><path style="opacity:1" fill="#2a1309" d="M 116.5,113.5 C 120.44,118.669 123.94,124.336 127,130.5C 132.072,133.306 134.572,137.639 134.5,143.5C 130.167,143.5 125.833,143.5 121.5,143.5C 121.291,142.078 120.791,140.745 120,139.5C 115.962,136.288 112.128,132.954 108.5,129.5C 111.501,129.767 114.668,129.767 118,129.5C 117.217,124.74 115.383,120.24 112.5,116C 114.167,115.667 115.833,115.333 117.5,115C 116.944,114.617 116.611,114.117 116.5,113.5 Z"/></g>
<g><path style="opacity:1" fill="#b189b8" d="M 226.5,120.5 C 226.963,123.482 227.296,126.482 227.5,129.5C 225.832,125.662 224.666,121.662 224,117.5C 224.377,118.942 225.21,119.942 226.5,120.5 Z"/></g>
<g><path style="opacity:1" fill="#371e18" d="M 222.5,127.5 C 222.5,127.833 222.5,128.167 222.5,128.5C 222.279,131.097 221.779,131.097 221,128.5C 220.833,129.167 220.667,129.833 220.5,130.5C 221.043,131.864 221.21,133.197 221,134.5C 219.89,132.963 218.39,132.297 216.5,132.5C 216.5,136.167 216.5,139.833 216.5,143.5C 215.167,143.5 213.833,143.5 212.5,143.5C 212.351,142.448 212.517,141.448 213,140.5C 213.333,140.833 213.667,141.167 214,141.5C 215.271,135.33 214.104,129.497 210.5,124C 211.823,123.184 212.489,122.017 212.5,120.5C 212.5,119.833 212.5,119.167 212.5,118.5C 212.5,115.167 212.5,111.833 212.5,108.5C 212.5,106.833 212.5,105.167 212.5,103.5C 213.165,101.302 213.832,98.9688 214.5,96.5C 215.415,97.3279 216.081,98.3279 216.5,99.5C 212.884,107.907 214.884,115.74 222.5,123C 220.226,124.355 220.226,125.855 222.5,127.5 Z"/></g>
<g><path style="opacity:1" fill="#242a3b" d="M 102.5,143.5 C 99.1667,143.5 95.8333,143.5 92.5,143.5C 91.3421,142.427 91.3421,141.261 92.5,140C 91.7282,138.779 90.7282,137.779 89.5,137C 89.8333,136.667 90.1667,136.333 90.5,136C 89.2624,136.077 88.2624,135.911 87.5,135.5C 88.0983,134.205 88.5983,132.872 89,131.5C 89.3333,131.833 89.6667,132.167 90,132.5C 94.9591,130.6 97.4591,126.934 97.5,121.5C 97.0231,117.207 95.0231,113.873 91.5,111.5C 90.1562,109.832 88.8229,108.165 87.5,106.5C 88.1076,103.855 88.6076,101.188 89,98.5C 92.3333,101.833 95.6667,105.167 99,108.5C 100.667,112.833 102.333,117.167 104,121.5C 104.388,129.12 103.888,136.454 102.5,143.5 Z"/></g>
<g><path style="opacity:1" fill="#835959" d="M 189.5,122.5 C 190.5,122.5 191.5,122.5 192.5,122.5C 192.664,128.167 192.997,128.5 193.5,123.5C 194.167,125.5 194.833,127.5 195.5,129.5C 193.833,132.824 191.666,135.824 189,138.5C 188.506,140.134 188.34,141.801 188.5,143.5C 187.833,143.5 187.167,143.5 186.5,143.5C 186.5,141.833 186.5,140.167 186.5,138.5C 189.705,134.757 191.205,130.424 191,125.5C 190.667,126.167 190.333,126.833 190,127.5C 189.506,125.866 189.34,124.199 189.5,122.5 Z"/></g>
<g><path style="opacity:1" fill="#401e19" d="M 169.5,121.5 C 171.874,122.36 174.541,122.36 177.5,121.5C 177.392,125.247 177.892,128.914 179,132.5C 182.592,132.926 184.092,134.926 183.5,138.5C 180.916,139.048 179.916,140.715 180.5,143.5C 179.833,143.5 179.167,143.5 178.5,143.5C 178.5,141.5 178.5,139.5 178.5,137.5C 176.097,137.607 174.264,136.607 173,134.5C 170.786,130.534 168.953,126.367 167.5,122C 167.683,120.316 168.35,120.15 169.5,121.5 Z"/></g>
<g><path style="opacity:1" fill="#724437" d="M 189.5,122.5 C 189.34,124.199 189.506,125.866 190,127.5C 190.333,126.833 190.667,126.167 191,125.5C 191.205,130.424 189.705,134.757 186.5,138.5C 185.5,138.5 184.5,138.5 183.5,138.5C 184.092,134.926 182.592,132.926 179,132.5C 177.892,128.914 177.392,125.247 177.5,121.5C 179.216,121.371 180.883,121.038 182.5,120.5C 183.822,120.67 184.989,120.337 186,119.5C 187.729,119.974 188.895,120.974 189.5,122.5 Z"/></g>
<g><path style="opacity:1" fill="#2d342f" d="M 84.5,128.5 C 82.0688,129.741 82.0688,130.908 84.5,132C 81.198,135.456 78.5313,139.289 76.5,143.5C 66.5,143.5 56.5,143.5 46.5,143.5C 46.5,143.167 46.5,142.833 46.5,142.5C 47.6935,142.03 48.3601,141.03 48.5,139.5C 48.1092,136.219 46.7759,133.385 44.5,131C 43.2506,130.26 42.2506,130.427 41.5,131.5C 40.596,130.791 40.2627,129.791 40.5,128.5C 41.8221,128.67 42.9887,128.337 44,127.5C 44.4186,128.672 45.0853,129.672 46,130.5C 46.0038,128.632 45.5038,126.798 44.5,125C 44.5699,124.235 44.9033,123.735 45.5,123.5C 46.3149,124.429 47.1482,125.429 48,126.5C 47.5,121.667 49.6667,119.5 54.5,120C 53.1667,119.333 53.1667,118.667 54.5,118C 55.3333,117.833 56.1667,117.667 57,117.5C 59.8929,118.748 62.8929,119.748 66,120.5C 66.414,120.043 66.914,119.709 67.5,119.5C 69.2705,120.035 69.6039,120.869 68.5,122C 70.3921,122.973 72.3921,123.64 74.5,124C 77.116,126.994 80.4493,128.494 84.5,128.5 Z"/></g>
<g><path style="opacity:1" fill="#d1b3d8" d="M 228.5,140.5 C 228.5,141.5 228.5,142.5 228.5,143.5C 227.5,143.5 226.5,143.5 225.5,143.5C 225.875,138.089 224.875,133.089 222.5,128.5C 222.5,128.167 222.5,127.833 222.5,127.5C 222.435,127.062 222.601,126.728 223,126.5C 226.331,130.673 228.164,135.34 228.5,140.5 Z"/></g>
<g><path style="opacity:1" fill="#5c3f42" d="M 41.5,143.5 C 39.8333,143.5 38.1667,143.5 36.5,143.5C 34.1667,140.833 31.8333,138.167 29.5,135.5C 26.5148,129.579 23.5148,123.579 20.5,117.5C 20.4346,117.062 20.6012,116.728 21,116.5C 23.7545,121.008 26.2545,125.674 28.5,130.5C 31.1667,131.833 33.8333,133.167 36.5,134.5C 38.3607,137.439 40.0274,140.439 41.5,143.5 Z"/></g>
<g><path style="opacity:1" fill="#7d6584" d="M 46.5,142.5 C 45.1998,138.688 43.5331,135.021 41.5,131.5C 42.2506,130.427 43.2506,130.26 44.5,131C 46.7759,133.385 48.1092,136.219 48.5,139.5C 48.3601,141.03 47.6935,142.03 46.5,142.5 Z"/></g>
<g><path style="opacity:1" fill="#4f332f" d="M 222.5,128.5 C 224.875,133.089 225.875,138.089 225.5,143.5C 222.5,143.5 219.5,143.5 216.5,143.5C 216.5,139.833 216.5,136.167 216.5,132.5C 218.39,132.297 219.89,132.963 221,134.5C 221.21,133.197 221.043,131.864 220.5,130.5C 220.667,129.833 220.833,129.167 221,128.5C 221.779,131.097 222.279,131.097 222.5,128.5 Z"/></g>
<g><path style="opacity:1" fill="#3e4940" d="M 59.5,121.5 C 61.371,121.859 62.871,122.859 64,124.5C 64.8372,126.844 66.1706,128.844 68,130.5C 67.7374,129.049 67.9041,127.716 68.5,126.5C 69.4776,126.977 70.3109,127.643 71,128.5C 71.9417,131.443 73.1084,134.276 74.5,137C 67.1197,144.744 60.9531,143.911 56,134.5C 55.4427,132.385 54.6094,130.385 53.5,128.5C 55.2955,127.859 56.7955,126.859 58,125.5C 59.4886,127.332 61.322,128.165 63.5,128C 61.2663,126.362 59.933,124.195 59.5,121.5 Z"/></g>
<g><path style="opacity:1" fill="#9a7da4" d="M 29.5,135.5 C 31.8333,138.167 34.1667,140.833 36.5,143.5C 35.1667,143.5 33.8333,143.5 32.5,143.5C 31.5,140.833 30.5,138.167 29.5,135.5 Z"/></g>
<g><path style="opacity:1" fill="#593d31" d="M 116.5,143.5 C 112.5,143.5 108.5,143.5 104.5,143.5C 105.403,140.075 106.903,139.742 109,142.5C 109.167,142.167 109.333,141.833 109.5,141.5C 107.666,139.502 106.666,137.168 106.5,134.5C 107.117,134.389 107.617,134.056 108,133.5C 111.419,136.412 114.252,139.746 116.5,143.5 Z"/></g>
<g><path style="opacity:1" fill="#787131" d="M 183.5,138.5 C 184.5,138.5 185.5,138.5 186.5,138.5C 186.5,140.167 186.5,141.833 186.5,143.5C 184.5,143.5 182.5,143.5 180.5,143.5C 179.916,140.715 180.916,139.048 183.5,138.5 Z"/></g>
</svg>
