<?xml version="1.0" encoding="UTF-8"?>
<!DOCTYPE svg PUBLIC "-//W3C//DTD SVG 1.1//EN" "http://www.w3.org/Graphics/SVG/1.1/DTD/svg11.dtd">
<svg xmlns="http://www.w3.org/2000/svg" version="1.1" width="256px" height="144px" style="shape-rendering:geometricPrecision; text-rendering:geometricPrecision; image-rendering:optimizeQuality; fill-rule:evenodd; clip-rule:evenodd" xmlns:xlink="http://www.w3.org/1999/xlink">
<g><path style="opacity:1" fill="#09111b" d="M -0.5,-0.5 C 16.8333,-0.5 34.1667,-0.5 51.5,-0.5C 48.2473,1.24603 45.414,3.57936 43,6.5C 42.6667,6.16667 42.3333,5.83333 42,5.5C 40.675,9.50154 38.3417,11.8349 35,12.5C 33.3003,16.4691 30.8003,19.8024 27.5,22.5C 29.9288,23.8813 29.5954,24.8813 26.5,25.5C 25.5,25.5 24.5,25.5 23.5,25.5C 21.3926,24.5318 19.0593,24.1984 16.5,24.5C 18.186,31.5577 20.8526,38.2244 24.5,44.5C 24.6287,46.2161 24.962,47.8828 25.5,49.5C 25.5,49.8333 25.5,50.1667 25.5,50.5C 23.8333,50.5 22.1667,50.5 20.5,50.5C 17.8478,50.4095 15.5145,51.0762 13.5,52.5C 11.8828,53.038 10.2161,53.3713 8.5,53.5C 5.66902,51.5832 2.66902,49.9166 -0.5,48.5C -0.5,32.1667 -0.5,15.8333 -0.5,-0.5 Z"/></g>
<g><path style="opacity:1" fill="#071829" d="M 51.5,-0.5 C 66.1667,-0.5 80.8333,-0.5 95.5,-0.5C 94.1667,0.5 92.8333,1.5 91.5,2.5C 89.9731,2.42702 88.9731,3.09368 88.5,4.5C 87.209,4.26269 86.209,4.59603 85.5,5.5C 84.391,5.55688 83.391,5.89022 82.5,6.5C 77.2045,6.64927 72.5379,8.31594 68.5,11.5C 67.2905,11.9321 66.2905,12.5987 65.5,13.5C 64.8333,14.5 64.1667,15.5 63.5,16.5C 62.5,16.8333 61.8333,17.5 61.5,18.5C 59.086,19.9108 57.4194,21.9108 56.5,24.5C 53.3185,27.3303 50.9851,30.6637 49.5,34.5C 42.1187,30.4894 34.452,27.4894 26.5,25.5C 29.5954,24.8813 29.9288,23.8813 27.5,22.5C 30.8003,19.8024 33.3003,16.4691 35,12.5C 38.3417,11.8349 40.675,9.50154 42,5.5C 42.3333,5.83333 42.6667,6.16667 43,6.5C 45.414,3.57936 48.2473,1.24603 51.5,-0.5 Z"/></g>
<g><path style="opacity:1" fill="#0f2135" d="M 187.5,-0.5 C 196.167,-0.5 204.833,-0.5 213.5,-0.5C 216.97,3.06621 220.803,7.06621 225,11.5C 225.871,15.3398 228.038,18.8398 231.5,22C 231.746,23.0601 231.746,24.2268 231.5,25.5C 232.975,27.8092 234.642,29.9759 236.5,32C 232.71,33.8195 232.71,35.8195 236.5,38C 235.903,42.8851 236.57,47.7184 238.5,52.5C 237.5,53.3333 236.5,54.1667 235.5,55C 237.539,56.3243 238.539,57.8243 238.5,59.5C 236.362,60.8081 234.362,60.4748 232.5,58.5C 230.708,57.6909 228.708,57.1909 226.5,57C 228.283,55.9335 228.783,54.4335 228,52.5C 226.43,46.8423 224.263,41.509 221.5,36.5C 218.79,35.0858 217.79,33.0858 218.5,30.5C 218.154,29.3044 217.654,29.3044 217,30.5C 216.759,27.7111 216.092,25.0444 215,22.5C 210.067,17.7194 205.234,12.886 200.5,8C 198.754,7.52907 197.087,6.86241 195.5,6C 196.167,5.66667 196.833,5.33333 197.5,5C 195.608,4.02655 193.608,3.35989 191.5,3C 189.681,2.25974 188.348,1.09307 187.5,-0.5 Z"/></g>
<g><path style="opacity:1" fill="#101d2d" d="M 213.5,-0.5 C 227.5,-0.5 241.5,-0.5 255.5,-0.5C 255.5,19.1667 255.5,38.8333 255.5,58.5C 255.167,58.5 254.833,58.5 254.5,58.5C 249.195,59.1942 243.862,59.5276 238.5,59.5C 238.539,57.8243 237.539,56.3243 235.5,55C 236.5,54.1667 237.5,53.3333 238.5,52.5C 236.57,47.7184 235.903,42.8851 236.5,38C 232.71,35.8195 232.71,33.8195 236.5,32C 234.642,29.9759 232.975,27.8092 231.5,25.5C 231.746,24.2268 231.746,23.0601 231.5,22C 228.038,18.8398 225.871,15.3398 225,11.5C 220.803,7.06621 216.97,3.06621 213.5,-0.5 Z"/></g>
<g><path style="opacity:1" fill="#0e253f" d="M 95.5,-0.5 C 126.167,-0.5 156.833,-0.5 187.5,-0.5C 188.348,1.09307 189.681,2.25974 191.5,3C 193.608,3.35989 195.608,4.02655 197.5,5C 196.833,5.33333 196.167,5.66667 195.5,6C 197.087,6.86241 198.754,7.52907 200.5,8C 205.234,12.886 210.067,17.7194 215,22.5C 216.092,25.0444 216.759,27.7111 217,30.5C 217.654,29.3044 218.154,29.3044 218.5,30.5C 217.79,33.0858 218.79,35.0858 221.5,36.5C 224.263,41.509 226.43,46.8423 228,52.5C 228.783,54.4335 228.283,55.9335 226.5,57C 228.708,57.1909 230.708,57.6909 232.5,58.5C 228.151,57.5769 224.817,58.9102 222.5,62.5C 221.675,63.3857 220.675,63.719 219.5,63.5C 219.341,62.0823 218.674,60.4157 217.5,58.5C 216.476,57.1468 215.143,56.4802 213.5,56.5C 212.393,52.9523 210.726,49.6189 208.5,46.5C 208.833,45.8333 209.167,45.1667 209.5,44.5C 208.092,43.7568 206.759,42.9234 205.5,42C 206.956,41.5774 207.456,40.7441 207,39.5C 197.66,25.535 184.827,14.8683 168.5,7.5C 167.033,7.723 165.533,8.05634 164,8.5C 159.197,6.18406 154.53,5.51739 150,6.5C 148.527,6.09693 147.194,5.43026 146,4.5C 143.778,6.27806 141.612,6.44473 139.5,5C 140.328,4.08529 141.328,3.41862 142.5,3C 140.797,2.25469 139.13,1.42135 137.5,0.5C 132.318,1.78879 126.818,2.78879 121,3.5C 114.342,2.75457 107.342,2.08791 100,1.5C 97.1523,1.79783 94.3189,2.13116 91.5,2.5C 92.8333,1.5 94.1667,0.5 95.5,-0.5 Z"/></g>
<g><path style="opacity:1" fill="#a6e9ed" d="M 85.5,5.5 C 92.0221,5.1765 98.3554,5.50984 104.5,6.5C 101.615,6.1936 98.9479,6.52693 96.5,7.5C 92.1667,7.5 87.8333,7.5 83.5,7.5C 82.8333,7.5 82.5,7.16667 82.5,6.5C 83.391,5.89022 84.391,5.55688 85.5,5.5 Z"/></g>
<g><path style="opacity:1" fill="#0e2b49" d="M 219.5,63.5 C 218.542,64.9616 217.376,66.2949 216,67.5C 215.028,71.4359 213.528,75.1026 211.5,78.5C 210.425,79.5624 209.425,79.5624 208.5,78.5C 212.618,75.3723 212.285,72.7056 207.5,70.5C 207.833,69.8333 208.167,69.1667 208.5,68.5C 206.459,67.293 205.126,65.6263 204.5,63.5C 203.533,62.1938 202.199,61.5271 200.5,61.5C 200.5,60.5 200.5,59.5 200.5,58.5C 199.5,58.5 198.5,58.5 197.5,58.5C 197.189,54.8298 195.522,51.8298 192.5,49.5C 190.191,44.3416 186.858,39.8416 182.5,36C 183.167,35.6667 183.833,35.3333 184.5,35C 182.538,32.5022 180.205,31.5022 177.5,32C 178.258,30.6361 177.758,29.4695 176,28.5C 175.667,28.8333 175.333,29.1667 175,29.5C 170.828,27.0814 166.828,24.4148 163,21.5C 160.544,21.3775 158.044,21.3775 155.5,21.5C 152.885,19.7212 150.218,19.0546 147.5,19.5C 145.291,18.8938 143.124,18.2272 141,17.5C 140.333,18.1667 139.667,18.8333 139,19.5C 137.223,17.2101 135.056,15.5434 132.5,14.5C 128.104,12.6792 123.937,10.3458 120,7.5C 109.82,3.45075 99.3199,2.45075 88.5,4.5C 88.9731,3.09368 89.9731,2.42702 91.5,2.5C 94.3189,2.13116 97.1523,1.79783 100,1.5C 107.342,2.08791 114.342,2.75457 121,3.5C 126.818,2.78879 132.318,1.78879 137.5,0.5C 139.13,1.42135 140.797,2.25469 142.5,3C 141.328,3.41862 140.328,4.08529 139.5,5C 141.612,6.44473 143.778,6.27806 146,4.5C 147.194,5.43026 148.527,6.09693 150,6.5C 154.53,5.51739 159.197,6.18406 164,8.5C 165.533,8.05634 167.033,7.723 168.5,7.5C 184.827,14.8683 197.66,25.535 207,39.5C 207.456,40.7441 206.956,41.5774 205.5,42C 206.759,42.9234 208.092,43.7568 209.5,44.5C 209.167,45.1667 208.833,45.8333 208.5,46.5C 210.726,49.6189 212.393,52.9523 213.5,56.5C 215.143,56.4802 216.476,57.1468 217.5,58.5C 218.674,60.4157 219.341,62.0823 219.5,63.5 Z"/></g>
<g><path style="opacity:1" fill="#e6f8f9" d="M 96.5,7.5 C 98.9479,6.52693 101.615,6.1936 104.5,6.5C 107.598,6.75556 110.598,7.42222 113.5,8.5C 114.167,9.83333 114.833,11.1667 115.5,12.5C 115.44,13.0431 115.107,13.3764 114.5,13.5C 108.669,10.8897 102.669,8.8897 96.5,7.5 Z"/></g>
<g><path style="opacity:1" fill="#47cac0" d="M 83.5,7.5 C 87.8333,7.5 92.1667,7.5 96.5,7.5C 102.669,8.8897 108.669,10.8897 114.5,13.5C 115.107,13.3764 115.44,13.0431 115.5,12.5C 116.434,13.5676 116.768,14.901 116.5,16.5C 114.214,16.595 112.214,17.2616 110.5,18.5C 109.494,18.9377 109.494,19.6043 110.5,20.5C 109.129,21.7868 107.295,22.4535 105,22.5C 102.468,22.3761 99.9683,22.0427 97.5,21.5C 92.9477,22.9857 88.281,23.6523 83.5,23.5C 83.5,24.5 83.5,25.5 83.5,26.5C 82.5,26.5 81.5,26.5 80.5,26.5C 78.7431,23.1205 79.4097,20.4538 82.5,18.5C 84.2132,17.3646 84.8799,15.698 84.5,13.5C 82.1667,13.5 79.8333,13.5 77.5,13.5C 77.3433,12.1266 77.51,10.7932 78,9.5C 79.9483,8.89064 81.7816,8.22398 83.5,7.5 Z"/></g>
<g><path style="opacity:1" fill="#61aca2" d="M 82.5,6.5 C 82.5,7.16667 82.8333,7.5 83.5,7.5C 81.7816,8.22398 79.9483,8.89064 78,9.5C 77.51,10.7932 77.3433,12.1266 77.5,13.5C 79.8333,13.5 82.1667,13.5 84.5,13.5C 84.8799,15.698 84.2132,17.3646 82.5,18.5C 82.5,17.8333 82.1667,17.5 81.5,17.5C 81.6495,16.448 81.4828,15.448 81,14.5C 79.3853,15.3862 77.8853,16.3862 76.5,17.5C 73.8333,15.5 71.1667,13.5 68.5,11.5C 72.5379,8.31594 77.2045,6.64927 82.5,6.5 Z"/></g>
<g><path style="opacity:1" fill="#d6eef0" d="M 117.5,9.5 C 124.866,13.1818 131.533,17.8485 137.5,23.5C 139.769,27.0383 141.769,30.705 143.5,34.5C 142.833,34.5 142.167,34.5 141.5,34.5C 140.833,33.1667 140.167,31.8333 139.5,30.5C 136.351,24.7799 131.684,21.2799 125.5,20C 126.5,21 127.5,22 128.5,23C 127.906,23.4643 127.239,23.631 126.5,23.5C 125.833,23.1667 125.167,22.8333 124.5,22.5C 123.136,20.8089 121.803,19.1423 120.5,17.5C 119.443,15.0587 118.11,12.7254 116.5,10.5C 116.624,9.89333 116.957,9.55999 117.5,9.5 Z"/></g>
<g><path style="opacity:1" fill="#194c73" d="M 132.5,14.5 C 134.215,17.2008 136.215,19.7008 138.5,22C 137.944,22.3826 137.611,22.8826 137.5,23.5C 131.533,17.8485 124.866,13.1818 117.5,9.5C 116.432,8.56552 115.099,8.23219 113.5,8.5C 110.598,7.42222 107.598,6.75556 104.5,6.5C 98.3554,5.50984 92.0221,5.1765 85.5,5.5C 86.209,4.59603 87.209,4.26269 88.5,4.5C 99.3199,2.45075 109.82,3.45075 120,7.5C 123.937,10.3458 128.104,12.6792 132.5,14.5 Z"/></g>
<g><path style="opacity:1" fill="#3b7790" d="M 113.5,8.5 C 115.099,8.23219 116.432,8.56552 117.5,9.5C 116.957,9.55999 116.624,9.89333 116.5,10.5C 118.11,12.7254 119.443,15.0587 120.5,17.5C 119.041,17.5674 117.708,17.2341 116.5,16.5C 116.768,14.901 116.434,13.5676 115.5,12.5C 114.833,11.1667 114.167,9.83333 113.5,8.5 Z"/></g>
<g><path style="opacity:1" fill="#20302f" d="M 68.5,11.5 C 71.1667,13.5 73.8333,15.5 76.5,17.5C 73.4649,17.4607 70.7982,16.4607 68.5,14.5C 67.791,13.596 66.791,13.2627 65.5,13.5C 66.2905,12.5987 67.2905,11.9321 68.5,11.5 Z"/></g>
<g><path style="opacity:1" fill="#af955f" d="M 81.5,17.5 C 79.9505,18.4408 78.2838,19.1075 76.5,19.5C 75.4937,19.0623 75.4937,18.3957 76.5,17.5C 77.8853,16.3862 79.3853,15.3862 81,14.5C 81.4828,15.448 81.6495,16.448 81.5,17.5 Z"/></g>
<g><path style="opacity:1" fill="#98865c" d="M 63.5,16.5 C 64.5593,18.0699 64.0593,19.4032 62,20.5C 61.5357,19.9056 61.369,19.2389 61.5,18.5C 61.8333,17.5 62.5,16.8333 63.5,16.5 Z"/></g>
<g><path style="opacity:1" fill="#909b6c" d="M 116.5,16.5 C 117.708,17.2341 119.041,17.5674 120.5,17.5C 121.803,19.1423 123.136,20.8089 124.5,22.5C 119.326,22.4566 114.659,21.1233 110.5,18.5C 112.214,17.2616 114.214,16.595 116.5,16.5 Z"/></g>
<g><path style="opacity:1" fill="#263932" d="M 81.5,17.5 C 82.1667,17.5 82.5,17.8333 82.5,18.5C 79.4097,20.4538 78.7431,23.1205 80.5,26.5C 80.5,26.8333 80.5,27.1667 80.5,27.5C 80.1667,27.5 79.8333,27.5 79.5,27.5C 79.1667,26.5 78.5,25.8333 77.5,25.5C 77.762,24.0222 77.4287,22.6888 76.5,21.5C 75.3777,22.6302 74.0443,23.2969 72.5,23.5C 70.0299,22.6397 69.8632,21.3064 72,19.5C 73.3554,21.7737 74.8554,21.7737 76.5,19.5C 78.2838,19.1075 79.9505,18.4408 81.5,17.5 Z"/></g>
<g><path style="opacity:1" fill="#34978f" d="M 110.5,20.5 C 111.267,21.172 111.934,22.0053 112.5,23C 115.365,23.1829 118.031,23.6829 120.5,24.5C 118.369,25.3138 116.036,25.8138 113.5,26C 112.944,26.3826 112.611,26.8826 112.5,27.5C 107.658,27.1664 103.158,25.8331 99,23.5C 93.7286,24.1795 88.5619,25.1795 83.5,26.5C 83.5,25.5 83.5,24.5 83.5,23.5C 88.281,23.6523 92.9477,22.9857 97.5,21.5C 99.9683,22.0427 102.468,22.3761 105,22.5C 107.295,22.4535 109.129,21.7868 110.5,20.5 Z"/></g>
<g><path style="opacity:1" fill="#1f3132" d="M 110.5,18.5 C 114.659,21.1233 119.326,22.4566 124.5,22.5C 125.167,22.8333 125.833,23.1667 126.5,23.5C 127.398,24.1577 128.398,24.8243 129.5,25.5C 127.709,26.1698 126.042,26.8365 124.5,27.5C 123.209,27.7373 122.209,27.404 121.5,26.5C 121.672,25.5084 121.338,24.8417 120.5,24.5C 118.031,23.6829 115.365,23.1829 112.5,23C 111.934,22.0053 111.267,21.172 110.5,20.5C 109.494,19.6043 109.494,18.9377 110.5,18.5 Z"/></g>
<g><path style="opacity:1" fill="#39ab9f" d="M 77.5,25.5 C 75.8229,28.0245 74.3229,30.6912 73,33.5C 72.3292,34.2524 71.4959,34.5858 70.5,34.5C 69.7106,33.085 69.0439,31.585 68.5,30C 69.7125,27.7381 71.0459,25.5715 72.5,23.5C 74.0443,23.2969 75.3777,22.6302 76.5,21.5C 77.4287,22.6888 77.762,24.0222 77.5,25.5 Z"/></g>
<g><path style="opacity:1" fill="#f5cdb0" d="M 89.5,29.5 C 88.8333,29.1667 88.1667,28.8333 87.5,28.5C 87.5,28.1667 87.5,27.8333 87.5,27.5C 90.1346,26.2706 92.8013,26.2706 95.5,27.5C 93.3691,28.1687 91.3691,28.8354 89.5,29.5 Z"/></g>
<g><path style="opacity:1" fill="#0e3359" d="M 132.5,14.5 C 135.056,15.5434 137.223,17.2101 139,19.5C 139.667,18.8333 140.333,18.1667 141,17.5C 143.124,18.2272 145.291,18.8938 147.5,19.5C 150.218,19.0546 152.885,19.7212 155.5,21.5C 158.044,21.3775 160.544,21.3775 163,21.5C 166.828,24.4148 170.828,27.0814 175,29.5C 175.333,29.1667 175.667,28.8333 176,28.5C 177.758,29.4695 178.258,30.6361 177.5,32C 180.205,31.5022 182.538,32.5022 184.5,35C 183.833,35.3333 183.167,35.6667 182.5,36C 186.858,39.8416 190.191,44.3416 192.5,49.5C 195.522,51.8298 197.189,54.8298 197.5,58.5C 198.5,58.5 199.5,58.5 200.5,58.5C 200.5,59.5 200.5,60.5 200.5,61.5C 202.199,61.5271 203.533,62.1938 204.5,63.5C 202.231,64.8214 199.897,65.3214 197.5,65C 198.328,65.9147 199.328,66.5814 200.5,67C 200,67.5 199.5,68 199,68.5C 197.667,67.1667 196.333,67.1667 195,68.5C 192.966,67.2787 191.133,65.9454 189.5,64.5C 184.751,59.5465 179.751,54.0465 174.5,48C 168.445,46.2441 162.778,43.0775 157.5,38.5C 156.311,37.5713 154.978,37.238 153.5,37.5C 149.903,37.1317 146.569,36.1317 143.5,34.5C 141.769,30.705 139.769,27.0383 137.5,23.5C 137.611,22.8826 137.944,22.3826 138.5,22C 136.215,19.7008 134.215,17.2008 132.5,14.5 Z"/></g>
<g><path style="opacity:1" fill="#396257" d="M 56.5,24.5 C 58.519,27.038 59.6857,30.038 60,33.5C 61.8075,35.4029 63.8075,37.0696 66,38.5C 67.301,38.3613 68.1344,37.6946 68.5,36.5C 68.8333,35.5 69.5,34.8333 70.5,34.5C 71.4959,34.5858 72.3292,34.2524 73,33.5C 74.3229,30.6912 75.8229,28.0245 77.5,25.5C 78.5,25.8333 79.1667,26.5 79.5,27.5C 78.8333,27.5 78.5,27.8333 78.5,28.5C 76.6736,30.1475 75.3403,32.1475 74.5,34.5C 71.742,36.3791 70.0753,39.0458 69.5,42.5C 66.728,40.719 63.728,39.3857 60.5,38.5C 60.322,42.1021 59.322,42.1021 57.5,38.5C 56.3132,37.3473 55.3132,37.3473 54.5,38.5C 52.246,37.8763 50.5794,36.543 49.5,34.5C 50.9851,30.6637 53.3185,27.3303 56.5,24.5 Z"/></g>
<g><path style="opacity:1" fill="#336e63" d="M 65.5,13.5 C 66.791,13.2627 67.791,13.596 68.5,14.5C 67.0047,14.4148 66.0047,15.0815 65.5,16.5C 67.1679,18.3417 68.1679,20.5083 68.5,23C 67.1078,27.4032 66.1078,31.9032 65.5,36.5C 66.5,36.5 67.5,36.5 68.5,36.5C 68.1344,37.6946 67.301,38.3613 66,38.5C 63.8075,37.0696 61.8075,35.4029 60,33.5C 59.6857,30.038 58.519,27.038 56.5,24.5C 57.4194,21.9108 59.086,19.9108 61.5,18.5C 61.369,19.2389 61.5357,19.9056 62,20.5C 64.0593,19.4032 64.5593,18.0699 63.5,16.5C 64.1667,15.5 64.8333,14.5 65.5,13.5 Z"/></g>
<g><path style="opacity:1" fill="#d4dad2" d="M 112.5,27.5 C 114.663,29.0828 116.996,30.4161 119.5,31.5C 119.5,32.1667 119.833,32.5 120.5,32.5C 120.833,33.1667 121.167,33.8333 121.5,34.5C 120.5,34.5 119.5,34.5 118.5,34.5C 116.252,31.6066 113.252,29.9399 109.5,29.5C 104.384,28.1903 99.7177,29.1903 95.5,32.5C 93.1097,33.8908 91.4431,35.8908 90.5,38.5C 89.596,37.791 89.2627,36.791 89.5,35.5C 90.9319,33.6729 92.5986,32.0063 94.5,30.5C 92.9547,29.5481 91.288,29.2148 89.5,29.5C 91.3691,28.8354 93.3691,28.1687 95.5,27.5C 92.8013,26.2706 90.1346,26.2706 87.5,27.5C 85.1667,27.5 82.8333,27.5 80.5,27.5C 80.5,27.1667 80.5,26.8333 80.5,26.5C 81.5,26.5 82.5,26.5 83.5,26.5C 88.5619,25.1795 93.7286,24.1795 99,23.5C 103.158,25.8331 107.658,27.1664 112.5,27.5 Z"/></g>
<g><path style="opacity:1" fill="#465e4c" d="M 120.5,24.5 C 121.338,24.8417 121.672,25.5084 121.5,26.5C 119.396,26.2011 117.396,26.5344 115.5,27.5C 118.092,28.9173 120.759,29.9173 123.5,30.5C 121.901,30.2322 120.568,30.5655 119.5,31.5C 116.996,30.4161 114.663,29.0828 112.5,27.5C 112.611,26.8826 112.944,26.3826 113.5,26C 116.036,25.8138 118.369,25.3138 120.5,24.5 Z"/></g>
<g><path style="opacity:1" fill="#908657" d="M 121.5,26.5 C 122.209,27.404 123.209,27.7373 124.5,27.5C 125.167,27.8333 125.833,28.1667 126.5,28.5C 126.833,29.1667 127.167,29.8333 127.5,30.5C 126.167,30.5 124.833,30.5 123.5,30.5C 120.759,29.9173 118.092,28.9173 115.5,27.5C 117.396,26.5344 119.396,26.2011 121.5,26.5 Z"/></g>
<g><path style="opacity:1" fill="#34aeab" d="M 139.5,30.5 C 136.5,30.5 133.5,30.5 130.5,30.5C 129.395,29.3995 128.062,28.7329 126.5,28.5C 125.833,28.1667 125.167,27.8333 124.5,27.5C 126.042,26.8365 127.709,26.1698 129.5,25.5C 128.398,24.8243 127.398,24.1577 126.5,23.5C 127.239,23.631 127.906,23.4643 128.5,23C 127.5,22 126.5,21 125.5,20C 131.684,21.2799 136.351,24.7799 139.5,30.5 Z"/></g>
<g><path style="opacity:1" fill="#8e6760" d="M 23.5,25.5 C 21.901,25.2322 20.5676,25.5655 19.5,26.5C 20.3065,27.7281 21.3065,28.7281 22.5,29.5C 24.9553,34.3032 25.622,39.3032 24.5,44.5C 20.8526,38.2244 18.186,31.5577 16.5,24.5C 19.0593,24.1984 21.3926,24.5318 23.5,25.5 Z"/></g>
<g><path style="opacity:1" fill="#cbd4cb" d="M 126.5,28.5 C 128.062,28.7329 129.395,29.3995 130.5,30.5C 130.5,31.8333 129.833,32.5 128.5,32.5C 128.167,31.8333 127.833,31.1667 127.5,30.5C 127.167,29.8333 126.833,29.1667 126.5,28.5 Z"/></g>
<g><path style="opacity:1" fill="#ecd5d2" d="M 19.5,26.5 C 20.5676,25.5655 21.901,25.2322 23.5,25.5C 24.5,25.5 25.5,25.5 26.5,25.5C 34.452,27.4894 42.1187,30.4894 49.5,34.5C 50.5794,36.543 52.246,37.8763 54.5,38.5C 55.5,38.8333 56.1667,39.5 56.5,40.5C 55.8501,40.8039 55.1835,41.1373 54.5,41.5C 52.3102,39.476 49.9768,37.6427 47.5,36C 38.3326,32.1113 28.9992,28.9446 19.5,26.5 Z"/></g>
<g><path style="opacity:1" fill="#46697c" d="M 109.5,29.5 C 109.5,29.8333 109.5,30.1667 109.5,30.5C 105.258,30.1505 101.258,30.8172 97.5,32.5C 96.8333,32.5 96.1667,32.5 95.5,32.5C 99.7177,29.1903 104.384,28.1903 109.5,29.5 Z"/></g>
<g><path style="opacity:1" fill="#1f2627" d="M 123.5,30.5 C 124.833,30.5 126.167,30.5 127.5,30.5C 127.833,31.1667 128.167,31.8333 128.5,32.5C 127.791,33.404 126.791,33.7373 125.5,33.5C 123.784,33.3713 122.117,33.038 120.5,32.5C 119.833,32.5 119.5,32.1667 119.5,31.5C 120.568,30.5655 121.901,30.2322 123.5,30.5 Z"/></g>
<g><path style="opacity:1" fill="#2b645a" d="M 130.5,30.5 C 133.5,30.5 136.5,30.5 139.5,30.5C 140.167,31.8333 140.833,33.1667 141.5,34.5C 137.5,34.5 133.5,34.5 129.5,34.5C 127.901,34.7678 126.568,34.4345 125.5,33.5C 126.791,33.7373 127.791,33.404 128.5,32.5C 129.833,32.5 130.5,31.8333 130.5,30.5 Z"/></g>
<g><path style="opacity:1" fill="#339084" d="M 68.5,14.5 C 70.7982,16.4607 73.4649,17.4607 76.5,17.5C 75.4937,18.3957 75.4937,19.0623 76.5,19.5C 74.8554,21.7737 73.3554,21.7737 72,19.5C 69.8632,21.3064 70.0299,22.6397 72.5,23.5C 71.0459,25.5715 69.7125,27.7381 68.5,30C 69.0439,31.585 69.7106,33.085 70.5,34.5C 69.5,34.8333 68.8333,35.5 68.5,36.5C 67.5,36.5 66.5,36.5 65.5,36.5C 66.1078,31.9032 67.1078,27.4032 68.5,23C 68.1679,20.5083 67.1679,18.3417 65.5,16.5C 66.0047,15.0815 67.0047,14.4148 68.5,14.5 Z"/></g>
<g><path style="opacity:1" fill="#7e4116" d="M 79.5,27.5 C 79.8333,27.5 80.1667,27.5 80.5,27.5C 82.8333,27.5 85.1667,27.5 87.5,27.5C 87.5,27.8333 87.5,28.1667 87.5,28.5C 86.5178,29.1408 85.5178,29.8075 84.5,30.5C 83.3238,34.3573 81.6572,38.024 79.5,41.5C 79.9569,42.2975 80.6236,42.6309 81.5,42.5C 81.6641,45.1873 81.4974,47.854 81,50.5C 77.5139,44.7151 77.6805,39.0485 81.5,33.5C 80.132,32.4063 78.9653,32.7397 78,34.5C 78.1349,32.5753 78.3016,30.5753 78.5,28.5C 78.5,27.8333 78.8333,27.5 79.5,27.5 Z"/></g>
<g><path style="opacity:1" fill="#eacc89" d="M 120.5,32.5 C 122.117,33.038 123.784,33.3713 125.5,33.5C 126.568,34.4345 127.901,34.7678 129.5,34.5C 129.5,34.8333 129.5,35.1667 129.5,35.5C 126.763,35.5987 124.096,35.2653 121.5,34.5C 121.167,33.8333 120.833,33.1667 120.5,32.5 Z"/></g>
<g><path style="opacity:1" fill="#a0571b" d="M 87.5,28.5 C 88.1667,28.8333 88.8333,29.1667 89.5,29.5C 86.1438,32.8757 83.8105,36.8757 82.5,41.5C 81.8333,41.5 81.5,41.8333 81.5,42.5C 80.6236,42.6309 79.9569,42.2975 79.5,41.5C 81.6572,38.024 83.3238,34.3573 84.5,30.5C 85.5178,29.8075 86.5178,29.1408 87.5,28.5 Z"/></g>
<g><path style="opacity:1" fill="#b0714c" d="M 121.5,34.5 C 124.096,35.2653 126.763,35.5987 129.5,35.5C 133.56,35.4847 137.56,35.9847 141.5,37C 140.207,37.49 138.873,37.6567 137.5,37.5C 137.167,37.5 136.833,37.5 136.5,37.5C 135.508,37.3284 134.842,37.6618 134.5,38.5C 130.972,36.3248 127.305,35.9915 123.5,37.5C 122.599,36.7095 121.932,35.7095 121.5,34.5 Z"/></g>
<g><path style="opacity:1" fill="#a65241" d="M 22.5,29.5 C 24.5529,29.4021 26.2196,30.0687 27.5,31.5C 26.2437,33.7257 26.2437,36.059 27.5,38.5C 27.4021,40.5529 28.0687,42.2196 29.5,43.5C 29.3915,45.5138 30.0582,47.1805 31.5,48.5C 29.7354,49.4614 27.7354,49.7947 25.5,49.5C 24.962,47.8828 24.6287,46.2161 24.5,44.5C 25.622,39.3032 24.9553,34.3032 22.5,29.5 Z"/></g>
<g><path style="opacity:1" fill="#5b2620" d="M 27.5,31.5 C 28.609,31.5569 29.609,31.8902 30.5,32.5C 31.8001,33.8267 33.1335,35.16 34.5,36.5C 32.3921,37.9438 30.0588,38.6104 27.5,38.5C 26.2437,36.059 26.2437,33.7257 27.5,31.5 Z"/></g>
<g><path style="opacity:1" fill="#80301b" d="M 134.5,38.5 C 133.079,41.0094 131.412,43.3428 129.5,45.5C 128.167,45.5 126.833,45.5 125.5,45.5C 124.745,42.9471 124.078,40.2804 123.5,37.5C 127.305,35.9915 130.972,36.3248 134.5,38.5 Z"/></g>
<g><path style="opacity:1" fill="#843c2c" d="M 30.5,32.5 C 37.8145,33.8093 43.1479,37.8093 46.5,44.5C 44.0372,44.2189 41.8705,43.2189 40,41.5C 40.2626,42.9506 40.0959,44.2839 39.5,45.5C 38.5224,45.0233 37.6891,44.3567 37,43.5C 37.4387,45.7587 37.9387,48.092 38.5,50.5C 37.2905,50.0679 36.2905,49.4013 35.5,48.5C 35.112,45.1212 34.4453,41.7879 33.5,38.5C 31.0392,39.2914 29.7059,40.9581 29.5,43.5C 28.0687,42.2196 27.4021,40.5529 27.5,38.5C 30.0588,38.6104 32.3921,37.9438 34.5,36.5C 33.1335,35.16 31.8001,33.8267 30.5,32.5 Z"/></g>
<g><path style="opacity:1" fill="#e37b55" d="M 19.5,26.5 C 28.9992,28.9446 38.3326,32.1113 47.5,36C 49.9768,37.6427 52.3102,39.476 54.5,41.5C 55.1835,41.1373 55.8501,40.8039 56.5,40.5C 56.5,40.8333 56.5,41.1667 56.5,41.5C 56.5,42.8333 56.5,44.1667 56.5,45.5C 54.7376,45.6427 53.0709,45.3094 51.5,44.5C 50.2613,44.9424 49.2613,45.6091 48.5,46.5C 47.5,46.1667 46.8333,45.5 46.5,44.5C 43.1479,37.8093 37.8145,33.8093 30.5,32.5C 29.609,31.8902 28.609,31.5569 27.5,31.5C 26.2196,30.0687 24.5529,29.4021 22.5,29.5C 21.3065,28.7281 20.3065,27.7281 19.5,26.5 Z"/></g>
<g><path style="opacity:1" fill="#c2cccb" d="M 129.5,35.5 C 129.5,35.1667 129.5,34.8333 129.5,34.5C 133.5,34.5 137.5,34.5 141.5,34.5C 142.167,34.5 142.833,34.5 143.5,34.5C 146.569,36.1317 149.903,37.1317 153.5,37.5C 154.167,38.1667 154.833,38.8333 155.5,39.5C 155.5,40.1667 155.5,40.8333 155.5,41.5C 152.482,39.537 149.149,39.037 145.5,40C 144.619,40.7083 143.953,41.5416 143.5,42.5C 142.833,42.5 142.5,42.1667 142.5,41.5C 140.833,40.1667 139.167,38.8333 137.5,37.5C 138.873,37.6567 140.207,37.49 141.5,37C 137.56,35.9847 133.56,35.4847 129.5,35.5 Z"/></g>
<g><path style="opacity:1" fill="#0f3862" d="M 153.5,37.5 C 154.978,37.238 156.311,37.5713 157.5,38.5C 162.778,43.0775 168.445,46.2441 174.5,48C 179.751,54.0465 184.751,59.5465 189.5,64.5C 180.671,63.8549 180.337,65.3549 188.5,69C 186.527,69.4955 184.527,69.6621 182.5,69.5C 182.611,68.8826 182.944,68.3826 183.5,68C 177.409,65.6005 171.076,63.9338 164.5,63C 163.299,62.0975 162.465,60.9308 162,59.5C 160.913,61.9316 160.413,61.5983 160.5,58.5C 161.457,51.3204 159.791,44.9871 155.5,39.5C 154.833,38.8333 154.167,38.1667 153.5,37.5 Z"/></g>
<g><path style="opacity:1" fill="#43494a" d="M 136.5,37.5 C 136.833,37.5 137.167,37.5 137.5,37.5C 139.167,38.8333 140.833,40.1667 142.5,41.5C 140.864,42.7489 139.697,44.4156 139,46.5C 138.501,50.1516 138.335,53.8183 138.5,57.5C 137.776,55.7816 137.109,53.9483 136.5,52C 134.866,51.5065 133.199,51.3398 131.5,51.5C 129.485,50.0762 127.152,49.4095 124.5,49.5C 124.328,48.5084 124.662,47.8417 125.5,47.5C 128.493,48.1346 131.493,48.3013 134.5,48C 132.825,47.0147 131.158,46.1814 129.5,45.5C 130.822,45.67 131.989,45.3366 133,44.5C 134.646,42.3907 135.812,40.0573 136.5,37.5 Z"/></g>
<g><path style="opacity:1" fill="#422b24" d="M 136.5,37.5 C 135.812,40.0573 134.646,42.3907 133,44.5C 131.989,45.3366 130.822,45.67 129.5,45.5C 131.412,43.3428 133.079,41.0094 134.5,38.5C 134.842,37.6618 135.508,37.3284 136.5,37.5 Z"/></g>
<g><path style="opacity:1" fill="#9d624d" d="M 35.5,48.5 C 34.1667,48.5 32.8333,48.5 31.5,48.5C 30.0582,47.1805 29.3915,45.5138 29.5,43.5C 29.7059,40.9581 31.0392,39.2914 33.5,38.5C 34.4453,41.7879 35.112,45.1212 35.5,48.5 Z"/></g>
<g><path style="opacity:1" fill="#2f3842" d="M 155.5,41.5 C 155.703,43.0443 156.37,44.3777 157.5,45.5C 157.376,46.1067 157.043,46.44 156.5,46.5C 154.824,44.1663 152.491,43.1663 149.5,43.5C 147.418,43.472 145.584,44.1387 144,45.5C 143.19,49.3575 143.357,53.0242 144.5,56.5C 145.83,62.8364 149.497,64.8364 155.5,62.5C 155.5,63.5 155.5,64.5 155.5,65.5C 153.008,69.2659 149.674,70.2659 145.5,68.5C 138.68,60.2648 138.013,51.5982 143.5,42.5C 143.953,41.5416 144.619,40.7083 145.5,40C 149.149,39.037 152.482,39.537 155.5,41.5 Z"/></g>
<g><path style="opacity:1" fill="#b1bcb7" d="M 149.5,43.5 C 152.491,43.1663 154.824,44.1663 156.5,46.5C 158.113,47.8381 158.613,49.5048 158,51.5C 157.617,50.944 157.117,50.6107 156.5,50.5C 155.577,46.7356 153.244,45.2356 149.5,46C 147.859,47.129 146.859,48.629 146.5,50.5C 145.833,52.5 145.167,54.5 144.5,56.5C 143.373,50.9141 145.04,46.5808 149.5,43.5 Z"/></g>
<g><path style="opacity:1" fill="#d4dddb" d="M 125.5,45.5 C 126.833,45.5 128.167,45.5 129.5,45.5C 131.158,46.1814 132.825,47.0147 134.5,48C 131.493,48.3013 128.493,48.1346 125.5,47.5C 125.5,46.8333 125.5,46.1667 125.5,45.5 Z"/></g>
<g><path style="opacity:1" fill="#616660" d="M 149.5,43.5 C 145.04,46.5808 143.373,50.9141 144.5,56.5C 143.357,53.0242 143.19,49.3575 144,45.5C 145.584,44.1387 147.418,43.472 149.5,43.5 Z"/></g>
<g><path style="opacity:1" fill="#5a3112" d="M 78.5,28.5 C 78.3016,30.5753 78.1349,32.5753 78,34.5C 78.9653,32.7397 80.132,32.4063 81.5,33.5C 77.6805,39.0485 77.5139,44.7151 81,50.5C 81.4974,47.854 81.6641,45.1873 81.5,42.5C 81.5,41.8333 81.8333,41.5 82.5,41.5C 82.1502,46.0361 82.8169,50.3694 84.5,54.5C 84.5299,55.4972 84.0299,56.1639 83,56.5C 80.8882,55.6138 78.7216,55.6138 76.5,56.5C 74.8828,54.8791 73.7162,52.8791 73,50.5C 72.0701,44.9856 72.5701,39.6523 74.5,34.5C 75.3403,32.1475 76.6736,30.1475 78.5,28.5 Z"/></g>
<g><path style="opacity:1" fill="#1d232b" d="M 109.5,30.5 C 113.071,32.3972 116.071,35.0639 118.5,38.5C 115.573,39.2247 112.906,38.3913 110.5,36C 108.613,35.2204 106.946,35.3871 105.5,36.5C 102.695,39.2456 101.861,42.5789 103,46.5C 104.584,47.8613 106.418,48.528 108.5,48.5C 107.432,49.4345 106.099,49.7678 104.5,49.5C 104.5,50.5 104.5,51.5 104.5,52.5C 101.901,52.4506 99.7342,51.4506 98,49.5C 97.3378,50.9839 96.5045,52.3172 95.5,53.5C 91.835,49.9611 90.6683,45.6278 92,40.5C 93.2734,37.4027 95.1067,34.7361 97.5,32.5C 101.258,30.8172 105.258,30.1505 109.5,30.5 Z"/></g>
<g><path style="opacity:1" fill="#71362d" d="M 46.5,44.5 C 46.8333,45.5 47.5,46.1667 48.5,46.5C 49.299,49.4299 49.6323,52.4299 49.5,55.5C 48.5084,55.6716 47.8417,55.3382 47.5,54.5C 48.0967,54.2648 48.4301,53.7648 48.5,53C 47.1005,50.2566 45.4339,47.7566 43.5,45.5C 42.5258,47.7427 42.1924,50.076 42.5,52.5C 41.1667,51.8333 39.8333,51.1667 38.5,50.5C 37.9387,48.092 37.4387,45.7587 37,43.5C 37.6891,44.3567 38.5224,45.0233 39.5,45.5C 40.0959,44.2839 40.2626,42.9506 40,41.5C 41.8705,43.2189 44.0372,44.2189 46.5,44.5 Z"/></g>
<g><path style="opacity:1" fill="#adc5cc" d="M -0.5,48.5 C 2.66902,49.9166 5.66902,51.5832 8.5,53.5C 7.22235,53.7822 6.22235,54.4489 5.5,55.5C 4.73221,52.4384 2.73221,50.7717 -0.5,50.5C -0.5,49.8333 -0.5,49.1667 -0.5,48.5 Z"/></g>
<g><path style="opacity:1" fill="#d68a6d" d="M 56.5,45.5 C 56.1628,49.8451 54.8294,53.8451 52.5,57.5C 51.2905,57.0679 50.2905,56.4013 49.5,55.5C 49.6323,52.4299 49.299,49.4299 48.5,46.5C 49.2613,45.6091 50.2613,44.9424 51.5,44.5C 53.0709,45.3094 54.7376,45.6427 56.5,45.5 Z"/></g>
<g><path style="opacity:1" fill="#6f7063" d="M 118.5,34.5 C 119.5,34.5 120.5,34.5 121.5,34.5C 121.932,35.7095 122.599,36.7095 123.5,37.5C 124.078,40.2804 124.745,42.9471 125.5,45.5C 125.5,46.1667 125.5,46.8333 125.5,47.5C 124.662,47.8417 124.328,48.5084 124.5,49.5C 123.374,53.4076 121.041,56.4076 117.5,58.5C 117.5,57.8333 117.167,57.5 116.5,57.5C 123.526,50.3068 124.193,42.6402 118.5,34.5 Z"/></g>
<g><path style="opacity:1" fill="#313a3f" d="M 156.5,50.5 C 156.5,52.5 156.5,54.5 156.5,56.5C 155.314,61.0501 152.647,62.3834 148.5,60.5C 149.978,60.762 151.311,60.4287 152.5,59.5C 154.224,56.05 154.891,52.3834 154.5,48.5C 151.956,48.1043 149.789,48.771 148,50.5C 147.502,53.4816 147.335,56.4816 147.5,59.5C 146.523,56.7131 146.19,53.7131 146.5,50.5C 146.859,48.629 147.859,47.129 149.5,46C 153.244,45.2356 155.577,46.7356 156.5,50.5 Z"/></g>
<g><path style="opacity:1" fill="#a8aaad" d="M 20.5,50.5 C 18.4855,51.9238 16.1522,52.5905 13.5,52.5C 15.5145,51.0762 17.8478,50.4095 20.5,50.5 Z"/></g>
<g><path style="opacity:1" fill="#3c2220" d="M 47.5,54.5 C 45.7162,54.1075 44.0495,53.4408 42.5,52.5C 42.1924,50.076 42.5258,47.7427 43.5,45.5C 45.4339,47.7566 47.1005,50.2566 48.5,53C 48.4301,53.7648 48.0967,54.2648 47.5,54.5 Z"/></g>
<g><path style="opacity:1" fill="#6a6c62" d="M 89.5,35.5 C 89.2627,36.791 89.596,37.791 90.5,38.5C 87.8696,48.5711 91.203,55.9044 100.5,60.5C 100.833,61.1667 101.167,61.8333 101.5,62.5C 97.306,60.8169 93.4727,58.4836 90,55.5C 88.7081,51.4194 87.8748,47.2528 87.5,43C 87.2999,40.1345 87.9666,37.6345 89.5,35.5 Z"/></g>
<g><path style="opacity:1" fill="#80887c" d="M 142.5,41.5 C 142.5,42.1667 142.833,42.5 143.5,42.5C 138.013,51.5982 138.68,60.2648 145.5,68.5C 144.833,68.5 144.5,68.8333 144.5,69.5C 140.432,66.6242 138.432,62.6242 138.5,57.5C 138.335,53.8183 138.501,50.1516 139,46.5C 139.697,44.4156 140.864,42.7489 142.5,41.5 Z"/></g>
<g><path style="opacity:1" fill="#e2e3e6" d="M 31.5,48.5 C 32.8333,48.5 34.1667,48.5 35.5,48.5C 36.2905,49.4013 37.2905,50.0679 38.5,50.5C 39.8333,51.1667 41.1667,51.8333 42.5,52.5C 44.0495,53.4408 45.7162,54.1075 47.5,54.5C 47.8417,55.3382 48.5084,55.6716 49.5,55.5C 50.2905,56.4013 51.2905,57.0679 52.5,57.5C 53.1667,57.8333 53.8333,58.1667 54.5,58.5C 57.0739,60.0243 59.7406,61.3576 62.5,62.5C 62.4142,63.4959 62.7476,64.3292 63.5,65C 68.2679,66.8077 72.7679,68.9744 77,71.5C 77.3742,72.4162 77.8742,73.2496 78.5,74C 76.8632,74.6012 75.1966,75.1012 73.5,75.5C 59.4417,72.9794 45.775,69.1461 32.5,64C 27.7792,64.1872 23.1125,64.0206 18.5,63.5C 14.9975,62.0825 11.3309,61.4158 7.5,61.5C 8.13419,60.0532 9.30085,59.3866 11,59.5C 13.5421,60.6828 16.2088,61.6828 19,62.5C 19.9454,62.0946 20.6121,61.428 21,60.5C 22.8348,61.1193 25.0014,61.286 27.5,61C 26.1667,60.3333 25.1667,59.3333 24.5,58C 26.1922,56.5993 26.8588,54.7659 26.5,52.5C 28.4286,52.7692 30.0953,52.2692 31.5,51C 29.5273,50.5045 27.5273,50.3379 25.5,50.5C 25.5,50.1667 25.5,49.8333 25.5,49.5C 27.7354,49.7947 29.7354,49.4614 31.5,48.5 Z"/></g>
<g><path style="opacity:1" fill="#5c372e" d="M 56.5,41.5 C 58.1196,47.3231 57.4529,52.9897 54.5,58.5C 53.8333,58.1667 53.1667,57.8333 52.5,57.5C 54.8294,53.8451 56.1628,49.8451 56.5,45.5C 56.5,44.1667 56.5,42.8333 56.5,41.5 Z"/></g>
<g><path style="opacity:1" fill="#3b504c" d="M 54.5,38.5 C 55.3132,37.3473 56.3132,37.3473 57.5,38.5C 59.322,42.1021 60.322,42.1021 60.5,38.5C 63.728,39.3857 66.728,40.719 69.5,42.5C 70.6403,51.7522 73.307,60.4188 77.5,68.5C 72.4951,66.4987 67.4951,64.4987 62.5,62.5C 59.7406,61.3576 57.0739,60.0243 54.5,58.5C 57.4529,52.9897 58.1196,47.3231 56.5,41.5C 56.5,41.1667 56.5,40.8333 56.5,40.5C 56.1667,39.5 55.5,38.8333 54.5,38.5 Z"/></g>
<g><path style="opacity:1" fill="#757c7f" d="M -0.5,50.5 C 2.73221,50.7717 4.73221,52.4384 5.5,55.5C 3.56475,56.1495 1.56475,56.4828 -0.5,56.5C -0.5,54.5 -0.5,52.5 -0.5,50.5 Z"/></g>
<g><path style="opacity:1" fill="#35332d" d="M 89.5,29.5 C 91.288,29.2148 92.9547,29.5481 94.5,30.5C 92.5986,32.0063 90.9319,33.6729 89.5,35.5C 87.9666,37.6345 87.2999,40.1345 87.5,43C 87.8748,47.2528 88.7081,51.4194 90,55.5C 93.4727,58.4836 97.306,60.8169 101.5,62.5C 102.609,63.29 103.942,63.79 105.5,64C 104.906,64.4643 104.239,64.631 103.5,64.5C 98.9766,63.7138 94.6433,62.2138 90.5,60C 88.1953,58.3736 86.1953,56.5402 84.5,54.5C 82.8169,50.3694 82.1502,46.0361 82.5,41.5C 83.8105,36.8757 86.1438,32.8757 89.5,29.5 Z"/></g>
<g><path style="opacity:1" fill="#1b2633" d="M 148.5,60.5 C 147.833,60.5 147.5,60.1667 147.5,59.5C 147.335,56.4816 147.502,53.4816 148,50.5C 149.789,48.771 151.956,48.1043 154.5,48.5C 154.891,52.3834 154.224,56.05 152.5,59.5C 151.311,60.4287 149.978,60.762 148.5,60.5 Z"/></g>
<g><path style="opacity:1" fill="#46332b" d="M 124.5,49.5 C 127.152,49.4095 129.485,50.0762 131.5,51.5C 131.5,53.1667 131.5,54.8333 131.5,56.5C 129.666,55.506 127.999,55.506 126.5,56.5C 125.5,56.5 124.5,56.5 123.5,56.5C 123.5,57.5 123.5,58.5 123.5,59.5C 121.709,61.4133 119.709,63.08 117.5,64.5C 116.833,64.5 116.167,64.5 115.5,64.5C 115.5,63.8333 115.5,63.1667 115.5,62.5C 115.5,61.8333 115.5,61.1667 115.5,60.5C 115.833,59.5 116.5,58.8333 117.5,58.5C 121.041,56.4076 123.374,53.4076 124.5,49.5 Z"/></g>
<g><path style="opacity:1" fill="#7e877c" d="M 155.5,39.5 C 159.791,44.9871 161.457,51.3204 160.5,58.5C 159.651,60.8876 158.651,63.2209 157.5,65.5C 157.5,64.8333 157.167,64.5 156.5,64.5C 157.714,61.8707 157.714,59.204 156.5,56.5C 156.5,54.5 156.5,52.5 156.5,50.5C 157.117,50.6107 157.617,50.944 158,51.5C 158.613,49.5048 158.113,47.8381 156.5,46.5C 157.043,46.44 157.376,46.1067 157.5,45.5C 156.37,44.3777 155.703,43.0443 155.5,41.5C 155.5,40.8333 155.5,40.1667 155.5,39.5 Z"/></g>
<g><path style="opacity:1" fill="#eeeff2" d="M 20.5,50.5 C 22.1667,50.5 23.8333,50.5 25.5,50.5C 27.5273,50.3379 29.5273,50.5045 31.5,51C 30.0953,52.2692 28.4286,52.7692 26.5,52.5C 26.8588,54.7659 26.1922,56.5993 24.5,58C 25.1667,59.3333 26.1667,60.3333 27.5,61C 25.0014,61.286 22.8348,61.1193 21,60.5C 20.6121,61.428 19.9454,62.0946 19,62.5C 16.2088,61.6828 13.5421,60.6828 11,59.5C 9.30085,59.3866 8.13419,60.0532 7.5,61.5C 5.5,61.5 3.5,61.5 1.5,61.5C 0.833333,61.1667 0.166667,60.8333 -0.5,60.5C -0.5,59.1667 -0.5,57.8333 -0.5,56.5C 1.56475,56.4828 3.56475,56.1495 5.5,55.5C 6.22235,54.4489 7.22235,53.7822 8.5,53.5C 10.2161,53.3713 11.8828,53.038 13.5,52.5C 16.1522,52.5905 18.4855,51.9238 20.5,50.5 Z"/></g>
<g><path style="opacity:1" fill="#3e4346" d="M 109.5,29.5 C 113.252,29.9399 116.252,31.6066 118.5,34.5C 124.193,42.6402 123.526,50.3068 116.5,57.5C 111.546,60.0691 106.212,61.0691 100.5,60.5C 91.203,55.9044 87.8696,48.5711 90.5,38.5C 91.4431,35.8908 93.1097,33.8908 95.5,32.5C 96.1667,32.5 96.8333,32.5 97.5,32.5C 95.1067,34.7361 93.2734,37.4027 92,40.5C 90.6683,45.6278 91.835,49.9611 95.5,53.5C 101.573,59.5865 108.239,60.0865 115.5,55C 119.569,50.1338 120.569,44.6338 118.5,38.5C 116.071,35.0639 113.071,32.3972 109.5,30.5C 109.5,30.1667 109.5,29.8333 109.5,29.5 Z"/></g>
<g><path style="opacity:1" fill="#9aa39e" d="M 105.5,36.5 C 111.303,36.81 113.47,39.81 112,45.5C 111.28,47.0557 110.113,48.0557 108.5,48.5C 106.418,48.528 104.584,47.8613 103,46.5C 101.861,42.5789 102.695,39.2456 105.5,36.5 Z"/></g>
<g><path style="opacity:1" fill="#182836" d="M 105.5,36.5 C 106.946,35.3871 108.613,35.2204 110.5,36C 112.906,38.3913 115.573,39.2247 118.5,38.5C 120.569,44.6338 119.569,50.1338 115.5,55C 108.239,60.0865 101.573,59.5865 95.5,53.5C 96.5045,52.3172 97.3378,50.9839 98,49.5C 99.7342,51.4506 101.901,52.4506 104.5,52.5C 104.5,51.5 104.5,50.5 104.5,49.5C 106.099,49.7678 107.432,49.4345 108.5,48.5C 110.113,48.0557 111.28,47.0557 112,45.5C 113.47,39.81 111.303,36.81 105.5,36.5 Z"/></g>
<g><path style="opacity:1" fill="#1a2228" d="M 105.5,38.5 C 111.02,39.0435 112.354,41.5435 109.5,46C 103.403,46.1475 102.07,43.6475 105.5,38.5 Z"/></g>
<g><path style="opacity:1" fill="#3a2915" d="M 84.5,54.5 C 86.1953,56.5402 88.1953,58.3736 90.5,60C 94.6433,62.2138 98.9766,63.7138 103.5,64.5C 103.842,65.3382 104.508,65.6716 105.5,65.5C 102.677,66.6633 99.6768,67.6633 96.5,68.5C 90.2875,64.8942 83.9542,61.5609 77.5,58.5C 77.1667,57.8333 76.8333,57.1667 76.5,56.5C 78.7216,55.6138 80.8882,55.6138 83,56.5C 84.0299,56.1639 84.5299,55.4972 84.5,54.5 Z"/></g>
<g><path style="opacity:1" fill="#575d55" d="M 146.5,50.5 C 146.19,53.7131 146.523,56.7131 147.5,59.5C 147.5,60.1667 147.833,60.5 148.5,60.5C 152.647,62.3834 155.314,61.0501 156.5,56.5C 157.714,59.204 157.714,61.8707 156.5,64.5C 156.5,65.1667 156.167,65.5 155.5,65.5C 155.5,64.5 155.5,63.5 155.5,62.5C 149.497,64.8364 145.83,62.8364 144.5,56.5C 145.167,54.5 145.833,52.5 146.5,50.5 Z"/></g>
<g><path style="opacity:1" fill="#cbb2b4" d="M 126.5,56.5 C 127.999,55.506 129.666,55.506 131.5,56.5C 132.167,58.1667 132.833,59.8333 133.5,61.5C 131.427,59.4202 129.093,57.7536 126.5,56.5 Z"/></g>
<g><path style="opacity:1" fill="#b5bfb9" d="M 116.5,57.5 C 117.167,57.5 117.5,57.8333 117.5,58.5C 116.5,58.8333 115.833,59.5 115.5,60.5C 110.967,61.9836 106.3,62.6503 101.5,62.5C 101.167,61.8333 100.833,61.1667 100.5,60.5C 106.212,61.0691 111.546,60.0691 116.5,57.5 Z"/></g>
<g><path style="opacity:1" fill="#5b4e3a" d="M 115.5,60.5 C 115.5,61.1667 115.5,61.8333 115.5,62.5C 112.27,63.808 108.936,64.808 105.5,65.5C 104.508,65.6716 103.842,65.3382 103.5,64.5C 104.239,64.631 104.906,64.4643 105.5,64C 103.942,63.79 102.609,63.29 101.5,62.5C 106.3,62.6503 110.967,61.9836 115.5,60.5 Z"/></g>
<g><path style="opacity:1" fill="#ecbbb4" d="M 128.5,62.5 C 129.468,64.6074 129.802,66.9407 129.5,69.5C 128.041,69.5674 126.708,69.2341 125.5,68.5C 125.167,66.5 124.833,64.5 124.5,62.5C 125.833,62.5 127.167,62.5 128.5,62.5 Z"/></g>
<g><path style="opacity:1" fill="#a9beca" d="M 254.5,58.5 C 254.833,58.5 255.167,58.5 255.5,58.5C 255.5,62.8333 255.5,67.1667 255.5,71.5C 252.352,74.2483 252.019,77.2483 254.5,80.5C 253.264,81.3567 251.931,82.0234 250.5,82.5C 250.596,80.7853 250.596,79.1186 250.5,77.5C 248.81,76.8969 247.31,75.8969 246,74.5C 241.935,75.9145 240.768,78.5812 242.5,82.5C 240.516,83.7059 238.516,83.7059 236.5,82.5C 235.511,84.5878 235.844,86.5878 237.5,88.5C 235.577,89.3078 233.577,89.8078 231.5,90C 229.933,92.5685 227.767,94.4018 225,95.5C 224.055,95.0946 223.388,94.428 223,93.5C 222.667,90.5 222.333,87.5 222,84.5C 220.938,83.9032 219.772,83.5698 218.5,83.5C 214.673,86.0522 210.34,87.5522 205.5,88C 202.261,90.2188 201.594,93.0522 203.5,96.5C 201.167,96.5 198.833,96.5 196.5,96.5C 196.489,94.4534 196.156,92.4534 195.5,90.5C 195.529,88.9707 196.196,87.804 197.5,87C 195.866,86.5065 194.199,86.3398 192.5,86.5C 192.912,88.9726 191.912,90.3059 189.5,90.5C 190.341,88.6208 190.675,86.6208 190.5,84.5C 191.5,84.5 192.5,84.5 193.5,84.5C 193.408,81.6 194.741,79.9333 197.5,79.5C 198.167,79.5 198.833,79.5 199.5,79.5C 203.311,79.5958 203.311,80.2624 199.5,81.5C 204.074,82.8201 208.74,83.4867 213.5,83.5C 212.993,78.8453 214.826,75.512 219,73.5C 219.657,69.3298 221.157,65.6632 223.5,62.5C 224.5,62.5 225.5,62.5 226.5,62.5C 226.5,61.5 226.5,60.5 226.5,59.5C 228.167,59.5 229.833,59.5 231.5,59.5C 231.351,60.552 231.517,61.552 232,62.5C 236.08,61.749 240.246,61.749 244.5,62.5C 246.5,62.1667 248.5,61.8333 250.5,61.5C 251.624,60.1408 252.958,59.1408 254.5,58.5 Z"/></g>
<g><path style="opacity:1" fill="#e89984" d="M 128.5,62.5 C 127.167,62.5 125.833,62.5 124.5,62.5C 124.833,64.5 125.167,66.5 125.5,68.5C 121.871,67.8998 118.204,67.2332 114.5,66.5C 115.602,65.8243 116.602,65.1577 117.5,64.5C 119.709,63.08 121.709,61.4133 123.5,59.5C 124.708,58.7659 126.041,58.4326 127.5,58.5C 127.433,59.9587 127.766,61.2921 128.5,62.5 Z"/></g>
<g><path style="opacity:1" fill="#2f2524" d="M 131.5,51.5 C 133.199,51.3398 134.866,51.5065 136.5,52C 137.109,53.9483 137.776,55.7816 138.5,57.5C 138.432,62.6242 140.432,66.6242 144.5,69.5C 144.833,70.5 145.5,71.1667 146.5,71.5C 146.167,72.5 145.5,73.1667 144.5,73.5C 142.539,75.3122 140.206,76.3122 137.5,76.5C 136.5,76.5 135.5,76.5 134.5,76.5C 134.158,75.6618 133.492,75.3284 132.5,75.5C 132.433,74.0413 132.766,72.7079 133.5,71.5C 133.5,68.1667 133.5,64.8333 133.5,61.5C 132.833,59.8333 132.167,58.1667 131.5,56.5C 131.5,54.8333 131.5,53.1667 131.5,51.5 Z"/></g>
<g><path style="opacity:1" fill="#747a82" d="M 1.5,61.5 C 3.5,61.5 5.5,61.5 7.5,61.5C 11.3309,61.4158 14.9975,62.0825 18.5,63.5C 19.8333,64.9335 21.3333,66.2668 23,67.5C 23.4828,68.448 23.6495,69.448 23.5,70.5C 25.099,70.2322 26.4324,70.5655 27.5,71.5C 25.712,71.7852 24.0453,71.4519 22.5,70.5C 21.6872,69.1861 20.6872,68.0195 19.5,67C 13.4957,64.8424 7.49572,63.0091 1.5,61.5 Z"/></g>
<g><path style="opacity:1" fill="#1b4670" d="M 160.5,58.5 C 160.413,61.5983 160.913,61.9316 162,59.5C 162.465,60.9308 163.299,62.0975 164.5,63C 171.076,63.9338 177.409,65.6005 183.5,68C 182.944,68.3826 182.611,68.8826 182.5,69.5C 184.747,70.2194 187.08,71.886 189.5,74.5C 190.086,74.2907 190.586,73.9574 191,73.5C 192.444,75.1554 194.278,75.822 196.5,75.5C 196.5,76.5 196.5,77.5 196.5,78.5C 192.567,76.122 188.234,75.122 183.5,75.5C 177.037,68.0056 170.203,67.6723 163,74.5C 159.423,72.5458 155.59,72.0458 151.5,73C 149.114,74.1932 146.78,75.3599 144.5,76.5C 144.5,75.5 144.5,74.5 144.5,73.5C 145.5,73.1667 146.167,72.5 146.5,71.5C 151.475,71.8465 155.142,69.8465 157.5,65.5C 158.651,63.2209 159.651,60.8876 160.5,58.5 Z"/></g>
<g><path style="opacity:1" fill="#172624" d="M 74.5,34.5 C 72.5701,39.6523 72.0701,44.9856 73,50.5C 73.7162,52.8791 74.8828,54.8791 76.5,56.5C 76.8333,57.1667 77.1667,57.8333 77.5,58.5C 80.6954,62.8584 84.6954,66.3584 89.5,69C 90.8228,69.8159 91.4894,70.9826 91.5,72.5C 86.7314,71.3528 82.0648,70.0195 77.5,68.5C 73.307,60.4188 70.6403,51.7522 69.5,42.5C 70.0753,39.0458 71.742,36.3791 74.5,34.5 Z"/></g>
<g><path style="opacity:1" fill="#1c1c1a" d="M 77.5,58.5 C 83.9542,61.5609 90.2875,64.8942 96.5,68.5C 99.6768,67.6633 102.677,66.6633 105.5,65.5C 108.936,64.808 112.27,63.808 115.5,62.5C 115.5,63.1667 115.5,63.8333 115.5,64.5C 114.508,64.3284 113.842,64.6618 113.5,65.5C 107.244,68.9591 100.577,71.2925 93.5,72.5C 92.8333,72.5 92.1667,72.5 91.5,72.5C 91.4894,70.9826 90.8228,69.8159 89.5,69C 84.6954,66.3584 80.6954,62.8584 77.5,58.5 Z"/></g>
<g><path style="opacity:1" fill="#be675c" d="M 126.5,56.5 C 129.093,57.7536 131.427,59.4202 133.5,61.5C 133.5,64.8333 133.5,68.1667 133.5,71.5C 126.797,70.4246 120.131,69.4246 113.5,68.5C 113.5,67.5 113.5,66.5 113.5,65.5C 113.842,64.6618 114.508,64.3284 115.5,64.5C 116.167,64.5 116.833,64.5 117.5,64.5C 116.602,65.1577 115.602,65.8243 114.5,66.5C 118.204,67.2332 121.871,67.8998 125.5,68.5C 126.708,69.2341 128.041,69.5674 129.5,69.5C 129.802,66.9407 129.468,64.6074 128.5,62.5C 127.766,61.2921 127.433,59.9587 127.5,58.5C 126.041,58.4326 124.708,58.7659 123.5,59.5C 123.5,58.5 123.5,57.5 123.5,56.5C 124.5,56.5 125.5,56.5 126.5,56.5 Z"/></g>
<g><path style="opacity:1" fill="#4d3638" d="M 113.5,65.5 C 113.5,66.5 113.5,67.5 113.5,68.5C 120.131,69.4246 126.797,70.4246 133.5,71.5C 132.766,72.7079 132.433,74.0413 132.5,75.5C 125.627,73.6997 118.627,72.6997 111.5,72.5C 110.5,71.1667 109.5,71.1667 108.5,72.5C 103.327,73.2931 98.3273,73.2931 93.5,72.5C 100.577,71.2925 107.244,68.9591 113.5,65.5 Z"/></g>
<g><path style="opacity:1" fill="#c4d3d6" d="M 156.5,64.5 C 157.167,64.5 157.5,64.8333 157.5,65.5C 155.142,69.8465 151.475,71.8465 146.5,71.5C 145.5,71.1667 144.833,70.5 144.5,69.5C 144.5,68.8333 144.833,68.5 145.5,68.5C 149.674,70.2659 153.008,69.2659 155.5,65.5C 156.167,65.5 156.5,65.1667 156.5,64.5 Z"/></g>
<g><path style="opacity:1" fill="#183c5e" d="M 204.5,63.5 C 205.126,65.6263 206.459,67.293 208.5,68.5C 208.167,69.1667 207.833,69.8333 207.5,70.5C 212.285,72.7056 212.618,75.3723 208.5,78.5C 209.425,79.5624 210.425,79.5624 211.5,78.5C 211.649,79.552 211.483,80.552 211,81.5C 208.635,80.7109 206.468,79.5442 204.5,78C 202.735,77.3603 201.068,77.5269 199.5,78.5C 198.5,78.5 197.5,78.5 196.5,78.5C 196.5,77.5 196.5,76.5 196.5,75.5C 194.278,75.822 192.444,75.1554 191,73.5C 190.586,73.9574 190.086,74.2907 189.5,74.5C 187.08,71.886 184.747,70.2194 182.5,69.5C 184.527,69.6621 186.527,69.4955 188.5,69C 180.337,65.3549 180.671,63.8549 189.5,64.5C 191.133,65.9454 192.966,67.2787 195,68.5C 196.333,67.1667 197.667,67.1667 199,68.5C 199.5,68 200,67.5 200.5,67C 199.328,66.5814 198.328,65.9147 197.5,65C 199.897,65.3214 202.231,64.8214 204.5,63.5 Z"/></g>
<g><path style="opacity:1" fill="#535863" d="M 77.5,68.5 C 82.0648,70.0195 86.7314,71.3528 91.5,72.5C 92.1667,72.5 92.8333,72.5 93.5,72.5C 98.3273,73.2931 103.327,73.2931 108.5,72.5C 108.426,74.4109 107.426,75.5776 105.5,76C 102.077,77.9039 98.4102,78.7372 94.5,78.5C 88.0018,76.4235 82.3351,73.0902 77.5,68.5 Z"/></g>
<g><path style="opacity:1" fill="#484e59" d="M 111.5,72.5 C 118.627,72.6997 125.627,73.6997 132.5,75.5C 133.492,75.3284 134.158,75.6618 134.5,76.5C 131.129,78.2334 127.795,79.9001 124.5,81.5C 120.386,81.2508 116.72,79.7508 113.5,77C 111.963,75.8904 111.297,74.3904 111.5,72.5 Z"/></g>
<g><path style="opacity:1" fill="#183439" d="M 144.5,73.5 C 144.5,74.5 144.5,75.5 144.5,76.5C 143.549,77.9187 143.216,79.5853 143.5,81.5C 143.167,81.5 142.833,81.5 142.5,81.5C 141.139,79.4727 139.473,77.806 137.5,76.5C 140.206,76.3122 142.539,75.3122 144.5,73.5 Z"/></g>
<g><path style="opacity:1" fill="#3a4450" d="M -0.5,60.5 C 0.166667,60.8333 0.833333,61.1667 1.5,61.5C 7.49572,63.0091 13.4957,64.8424 19.5,67C 20.6872,68.0195 21.6872,69.1861 22.5,70.5C 24.0453,71.4519 25.712,71.7852 27.5,71.5C 31.0419,71.1872 34.3752,71.5206 37.5,72.5C 30.8011,73.2074 24.4677,72.2074 18.5,69.5C 17.9757,71.5631 18.9757,73.0631 21.5,74C 32.7334,75.2517 43.7334,77.4184 54.5,80.5C 56.4695,82.6467 58.3029,84.98 60,87.5C 62.2976,92.9533 64.7976,98.2867 67.5,103.5C 68.1098,104.391 68.4431,105.391 68.5,106.5C 67.2058,105.71 66.0391,104.71 65,103.5C 61.5627,97.0679 57.7294,90.9013 53.5,85C 52.3284,84.6466 51.1618,84.8132 50,85.5C 48.7263,84.4647 47.5596,83.298 46.5,82C 41.9796,81.1864 37.6463,81.353 33.5,82.5C 28.6744,82.7794 24.0077,82.1127 19.5,80.5C 17.0239,80.2326 16.3572,80.8993 17.5,82.5C 11.4952,80.8234 5.49517,79.1567 -0.5,77.5C -0.5,71.8333 -0.5,66.1667 -0.5,60.5 Z"/></g>
<g><path style="opacity:1" fill="#353843" d="M 37.5,72.5 C 38.5,72.5 39.5,72.5 40.5,72.5C 53.7364,75.1537 67.0697,77.8204 80.5,80.5C 81.391,81.1098 82.391,81.4431 83.5,81.5C 83.8417,82.3382 84.5084,82.6716 85.5,82.5C 87.8083,83.7928 90.1417,85.1261 92.5,86.5C 94.2922,87.3091 96.2922,87.8091 98.5,88C 94.5063,89.46 94.5063,90.6267 98.5,91.5C 95.5,91.5 92.5,91.5 89.5,91.5C 83.4894,89.1601 77.4894,86.8268 71.5,84.5C 70.4583,83.2089 69.2917,83.2089 68,84.5C 67.2754,86.9494 66.2754,89.2827 65,91.5C 64.9076,88.4533 65.4076,85.4533 66.5,82.5C 62.9051,81.0162 59.2385,79.6829 55.5,78.5C 54.7025,78.9569 54.3691,79.6236 54.5,80.5C 43.7334,77.4184 32.7334,75.2517 21.5,74C 18.9757,73.0631 17.9757,71.5631 18.5,69.5C 24.4677,72.2074 30.8011,73.2074 37.5,72.5 Z"/></g>
<g><path style="opacity:1" fill="#7d8288" d="M 40.5,72.5 C 51.7969,73.5328 63.1302,75.0328 74.5,77C 76.7274,77.941 78.7274,79.1077 80.5,80.5C 67.0697,77.8204 53.7364,75.1537 40.5,72.5 Z"/></g>
<g><path style="opacity:1" fill="#b7babc" d="M 111.5,72.5 C 111.297,74.3904 111.963,75.8904 113.5,77C 116.72,79.7508 120.386,81.2508 124.5,81.5C 127.167,81.5 129.833,81.5 132.5,81.5C 132.238,80.0222 132.571,78.6888 133.5,77.5C 134.522,77.8555 135.189,78.5222 135.5,79.5C 134.522,79.811 133.855,80.4777 133.5,81.5C 135.91,83.3263 137.577,85.6596 138.5,88.5C 135.962,87.9573 133.628,86.9573 131.5,85.5C 131.389,84.8826 131.056,84.3826 130.5,84C 129.167,83.8333 127.833,83.6667 126.5,83.5C 123.173,84.2238 119.839,84.3904 116.5,84C 117.706,82.9823 117.373,82.4823 115.5,82.5C 113.617,83.0243 111.784,83.6909 110,84.5C 108.908,83.7039 107.741,83.0372 106.5,82.5C 105.584,82.5427 104.917,82.8761 104.5,83.5C 103.167,83.8333 101.833,84.1667 100.5,84.5C 95.6786,82.8647 90.6786,82.198 85.5,82.5C 84.5084,82.6716 83.8417,82.3382 83.5,81.5C 88.8968,81.2154 94.2302,81.5488 99.5,82.5C 100.386,81.675 100.719,80.675 100.5,79.5C 98.2646,79.7947 96.2646,79.4614 94.5,78.5C 98.4102,78.7372 102.077,77.9039 105.5,76C 107.426,75.5776 108.426,74.4109 108.5,72.5C 109.5,71.1667 110.5,71.1667 111.5,72.5 Z"/></g>
<g><path style="opacity:1" fill="#386082" d="M 183.5,75.5 C 188.234,75.122 192.567,76.122 196.5,78.5C 197.5,78.5 198.5,78.5 199.5,78.5C 199.5,78.8333 199.5,79.1667 199.5,79.5C 198.833,79.5 198.167,79.5 197.5,79.5C 193.098,80.7115 188.765,80.3782 184.5,78.5C 183.873,77.5832 183.539,76.5832 183.5,75.5 Z"/></g>
<g><path style="opacity:1" fill="#c9cbce" d="M 62.5,62.5 C 67.4951,64.4987 72.4951,66.4987 77.5,68.5C 82.3351,73.0902 88.0018,76.4235 94.5,78.5C 96.2646,79.4614 98.2646,79.7947 100.5,79.5C 100.719,80.675 100.386,81.675 99.5,82.5C 94.2302,81.5488 88.8968,81.2154 83.5,81.5C 82.391,81.4431 81.391,81.1098 80.5,80.5C 78.7274,79.1077 76.7274,77.941 74.5,77C 63.1302,75.0328 51.7969,73.5328 40.5,72.5C 39.5,72.5 38.5,72.5 37.5,72.5C 34.3752,71.5206 31.0419,71.1872 27.5,71.5C 26.4324,70.5655 25.099,70.2322 23.5,70.5C 23.6495,69.448 23.4828,68.448 23,67.5C 21.3333,66.2668 19.8333,64.9335 18.5,63.5C 23.1125,64.0206 27.7792,64.1872 32.5,64C 45.775,69.1461 59.4417,72.9794 73.5,75.5C 75.1966,75.1012 76.8632,74.6012 78.5,74C 77.8742,73.2496 77.3742,72.4162 77,71.5C 72.7679,68.9744 68.2679,66.8077 63.5,65C 62.7476,64.3292 62.4142,63.4959 62.5,62.5 Z"/></g>
<g><path style="opacity:1" fill="#8fa6b5" d="M 232.5,58.5 C 234.362,60.4748 236.362,60.8081 238.5,59.5C 243.862,59.5276 249.195,59.1942 254.5,58.5C 252.958,59.1408 251.624,60.1408 250.5,61.5C 248.5,61.8333 246.5,62.1667 244.5,62.5C 240.246,61.749 236.08,61.749 232,62.5C 231.517,61.552 231.351,60.552 231.5,59.5C 229.833,59.5 228.167,59.5 226.5,59.5C 226.5,60.5 226.5,61.5 226.5,62.5C 225.5,62.5 224.5,62.5 223.5,62.5C 221.157,65.6632 219.657,69.3298 219,73.5C 214.826,75.512 212.993,78.8453 213.5,83.5C 208.74,83.4867 204.074,82.8201 199.5,81.5C 203.311,80.2624 203.311,79.5958 199.5,79.5C 199.5,79.1667 199.5,78.8333 199.5,78.5C 201.068,77.5269 202.735,77.3603 204.5,78C 206.468,79.5442 208.635,80.7109 211,81.5C 211.483,80.552 211.649,79.552 211.5,78.5C 213.528,75.1026 215.028,71.4359 216,67.5C 217.376,66.2949 218.542,64.9616 219.5,63.5C 220.675,63.719 221.675,63.3857 222.5,62.5C 224.817,58.9102 228.151,57.5769 232.5,58.5 Z"/></g>
<g><path style="opacity:1" fill="#898e95" d="M 134.5,76.5 C 135.5,76.5 136.5,76.5 137.5,76.5C 139.473,77.806 141.139,79.4727 142.5,81.5C 139.812,81.8342 137.479,81.1675 135.5,79.5C 135.189,78.5222 134.522,77.8555 133.5,77.5C 132.571,78.6888 132.238,80.0222 132.5,81.5C 129.833,81.5 127.167,81.5 124.5,81.5C 127.795,79.9001 131.129,78.2334 134.5,76.5 Z"/></g>
<g><path style="opacity:1" fill="#769cb5" d="M 183.5,75.5 C 183.539,76.5832 183.873,77.5832 184.5,78.5C 188.765,80.3782 193.098,80.7115 197.5,79.5C 194.741,79.9333 193.408,81.6 193.5,84.5C 192.5,84.5 191.5,84.5 190.5,84.5C 190.675,86.6208 190.341,88.6208 189.5,90.5C 184.403,90.2741 181.403,92.6075 180.5,97.5C 178.5,97.5 176.5,97.5 174.5,97.5C 177.258,96.0335 176.925,95.3668 173.5,95.5C 174.209,94.596 175.209,94.2627 176.5,94.5C 175.113,89.226 172.78,84.3927 169.5,80C 167.414,79.3734 167.081,79.8734 168.5,81.5C 167.423,82.7051 166.09,83.3718 164.5,83.5C 157.819,80.459 150.819,79.7924 143.5,81.5C 143.216,79.5853 143.549,77.9187 144.5,76.5C 146.78,75.3599 149.114,74.1932 151.5,73C 155.59,72.0458 159.423,72.5458 163,74.5C 170.203,67.6723 177.037,68.0056 183.5,75.5 Z"/></g>
<g><path style="opacity:1" fill="#2a3036" d="M -0.5,80.5 C 3.14194,81.0804 6.80861,81.5804 10.5,82C 13.0193,82.5864 15.0193,83.7531 16.5,85.5C 11.9284,90.2799 6.26169,92.6132 -0.5,92.5C -0.5,88.5 -0.5,84.5 -0.5,80.5 Z"/></g>
<g><path style="opacity:1" fill="#848d8e" d="M 33.5,82.5 C 37.1064,82.2108 40.6064,82.5442 44,83.5C 45.7289,87.5077 47.5623,91.5077 49.5,95.5C 48.0663,96.2298 46.8996,97.2298 46,98.5C 44.6703,97.4178 43.1703,96.7512 41.5,96.5C 34.124,90.8103 26.124,86.1437 17.5,82.5C 16.3572,80.8993 17.0239,80.2326 19.5,80.5C 24.0077,82.1127 28.6744,82.7794 33.5,82.5 Z"/></g>
<g><path style="opacity:1" fill="#67808e" d="M 255.5,71.5 C 255.5,78.1667 255.5,84.8333 255.5,91.5C 254.844,92.2778 254.011,92.9444 253,93.5C 251.132,91.9658 249.632,90.1325 248.5,88C 248.645,87.228 248.978,86.5613 249.5,86C 247.506,83.1726 245.172,80.6726 242.5,78.5C 242.833,78.1667 243.167,77.8333 243.5,77.5C 244.5,78.1667 245.5,78.8333 246.5,79.5C 247.696,79.1543 247.696,78.6543 246.5,78C 247.793,77.51 249.127,77.3433 250.5,77.5C 250.596,79.1186 250.596,80.7853 250.5,82.5C 251.931,82.0234 253.264,81.3567 254.5,80.5C 252.019,77.2483 252.352,74.2483 255.5,71.5 Z"/></g>
<g><path style="opacity:1" fill="#19282a" d="M 71.5,84.5 C 69.7739,86.8201 69.1072,89.4867 69.5,92.5C 68.7784,92.9175 68.2784,93.5842 68,94.5C 67.9127,97.7067 67.746,100.707 67.5,103.5C 64.7976,98.2867 62.2976,92.9533 60,87.5C 58.3029,84.98 56.4695,82.6467 54.5,80.5C 54.3691,79.6236 54.7025,78.9569 55.5,78.5C 59.2385,79.6829 62.9051,81.0162 66.5,82.5C 65.4076,85.4533 64.9076,88.4533 65,91.5C 66.2754,89.2827 67.2754,86.9494 68,84.5C 69.2917,83.2089 70.4583,83.2089 71.5,84.5 Z"/></g>
<g><path style="opacity:1" fill="#7e8188" d="M 85.5,82.5 C 90.6786,82.198 95.6786,82.8647 100.5,84.5C 98.1617,86.0395 95.4951,86.7062 92.5,86.5C 90.1417,85.1261 87.8083,83.7928 85.5,82.5 Z"/></g>
<g><path style="opacity:1" fill="#68676f" d="M 104.5,83.5 C 104.917,82.8761 105.584,82.5427 106.5,82.5C 107.741,83.0372 108.908,83.7039 110,84.5C 111.784,83.6909 113.617,83.0243 115.5,82.5C 117.373,82.4823 117.706,82.9823 116.5,84C 119.839,84.3904 123.173,84.2238 126.5,83.5C 127.833,83.6667 129.167,83.8333 130.5,84C 131.056,84.3826 131.389,84.8826 131.5,85.5C 129.456,86.5082 127.456,87.5082 125.5,88.5C 124.833,88.5 124.167,88.5 123.5,88.5C 120.482,88.6646 117.482,88.498 114.5,88C 116.087,87.1376 117.754,86.4709 119.5,86C 118.667,85.8333 117.833,85.6667 117,85.5C 113.196,86.4787 109.362,86.6454 105.5,86C 108.332,84.0924 107.999,83.259 104.5,83.5 Z"/></g>
<g><path style="opacity:1" fill="#3c2e2e" d="M 123.5,88.5 C 124.167,88.5 124.833,88.5 125.5,88.5C 128.344,88.3426 130.011,89.676 130.5,92.5C 126.757,92.4592 126.59,93.1259 130,94.5C 130.667,95.1667 130.667,95.8333 130,96.5C 125.421,94.4851 120.588,93.4851 115.5,93.5C 115.586,92.5041 115.252,91.6708 114.5,91C 117.797,90.7963 120.797,89.963 123.5,88.5 Z"/></g>
<g><path style="opacity:1" fill="#8ca9b9" d="M 250.5,77.5 C 249.127,77.3433 247.793,77.51 246.5,78C 247.696,78.6543 247.696,79.1543 246.5,79.5C 245.5,78.8333 244.5,78.1667 243.5,77.5C 243.167,77.8333 242.833,78.1667 242.5,78.5C 245.172,80.6726 247.506,83.1726 249.5,86C 248.978,86.5613 248.645,87.228 248.5,88C 249.632,90.1325 251.132,91.9658 253,93.5C 254.011,92.9444 254.844,92.2778 255.5,91.5C 255.5,96.5 255.5,101.5 255.5,106.5C 252.069,105.929 248.902,104.596 246,102.5C 244.667,103.167 243.333,103.833 242,104.5C 239.719,102.471 237.219,102.138 234.5,103.5C 231.197,102.463 228.697,100.463 227,97.5C 226.751,98.624 226.251,99.624 225.5,100.5C 223.618,98.3918 221.285,97.0585 218.5,96.5C 215.942,97.6962 213.442,99.0296 211,100.5C 208.85,98.5175 206.35,97.1842 203.5,96.5C 201.594,93.0522 202.261,90.2188 205.5,88C 210.34,87.5522 214.673,86.0522 218.5,83.5C 219.772,83.5698 220.938,83.9032 222,84.5C 222.333,87.5 222.667,90.5 223,93.5C 223.388,94.428 224.055,95.0946 225,95.5C 227.767,94.4018 229.933,92.5685 231.5,90C 233.577,89.8078 235.577,89.3078 237.5,88.5C 235.844,86.5878 235.511,84.5878 236.5,82.5C 238.516,83.7059 240.516,83.7059 242.5,82.5C 240.768,78.5812 241.935,75.9145 246,74.5C 247.31,75.8969 248.81,76.8969 250.5,77.5 Z"/></g>
<g><path style="opacity:1" fill="#467886" d="M 16.5,85.5 C 20.1513,86.6589 23.4846,88.3256 26.5,90.5C 26.5299,91.4972 26.0299,92.1639 25,92.5C 20.8203,92.1075 16.6537,91.7742 12.5,91.5C 9.13315,93.5775 5.46649,94.9108 1.5,95.5C 0.437636,96.4246 0.437636,97.4246 1.5,98.5C 1.5,99.1667 1.16667,99.5 0.5,99.5C 0.166667,99.5 -0.166667,99.5 -0.5,99.5C -0.5,97.1667 -0.5,94.8333 -0.5,92.5C 6.26169,92.6132 11.9284,90.2799 16.5,85.5 Z"/></g>
<g><path style="opacity:1" fill="#514850" d="M 104.5,83.5 C 107.999,83.259 108.332,84.0924 105.5,86C 109.362,86.6454 113.196,86.4787 117,85.5C 117.833,85.6667 118.667,85.8333 119.5,86C 117.754,86.4709 116.087,87.1376 114.5,88C 117.482,88.498 120.482,88.6646 123.5,88.5C 120.797,89.963 117.797,90.7963 114.5,91C 115.252,91.6708 115.586,92.5041 115.5,93.5C 113.167,93.5 110.833,93.5 108.5,93.5C 105.411,92.2154 102.078,91.5488 98.5,91.5C 94.5063,90.6267 94.5063,89.46 98.5,88C 96.2922,87.8091 94.2922,87.3091 92.5,86.5C 95.4951,86.7062 98.1617,86.0395 100.5,84.5C 101.833,84.1667 103.167,83.8333 104.5,83.5 Z"/></g>
<g><path style="opacity:1" fill="#c8ced1" d="M 135.5,79.5 C 137.479,81.1675 139.812,81.8342 142.5,81.5C 143.167,82.5 143.833,83.5 144.5,84.5C 144.062,84.4346 143.728,84.6012 143.5,85C 144.878,86.7134 146.545,88.0467 148.5,89C 151.758,89.2117 154.924,89.7117 158,90.5C 160.386,89.2367 162.219,87.4033 163.5,85C 162.552,84.5172 161.552,84.3505 160.5,84.5C 161.568,83.5655 162.901,83.2322 164.5,83.5C 166.09,83.3718 167.423,82.7051 168.5,81.5C 167.081,79.8734 167.414,79.3734 169.5,80C 172.78,84.3927 175.113,89.226 176.5,94.5C 175.209,94.2627 174.209,94.596 173.5,95.5C 163.066,97.3408 152.732,96.5075 142.5,93C 140.93,91.6032 139.596,90.1032 138.5,88.5C 137.577,85.6596 135.91,83.3263 133.5,81.5C 133.855,80.4777 134.522,79.811 135.5,79.5 Z"/></g>
<g><path style="opacity:1" fill="#dee7ea" d="M 144.5,84.5 C 149.833,84.5 155.167,84.5 160.5,84.5C 161.552,84.3505 162.552,84.5172 163.5,85C 162.219,87.4033 160.386,89.2367 158,90.5C 154.924,89.7117 151.758,89.2117 148.5,89C 146.545,88.0467 144.878,86.7134 143.5,85C 143.728,84.6012 144.062,84.4346 144.5,84.5 Z"/></g>
<g><path style="opacity:1" fill="#77838e" d="M 164.5,83.5 C 162.901,83.2322 161.568,83.5655 160.5,84.5C 155.167,84.5 149.833,84.5 144.5,84.5C 143.833,83.5 143.167,82.5 142.5,81.5C 142.833,81.5 143.167,81.5 143.5,81.5C 150.819,79.7924 157.819,80.459 164.5,83.5 Z"/></g>
<g><path style="opacity:1" fill="#265c68" d="M 26.5,90.5 C 28.2303,91.0256 29.5637,92.0256 30.5,93.5C 28.4271,95.3587 27.0937,97.692 26.5,100.5C 25.7261,101.711 24.8928,101.711 24,100.5C 23.5172,101.448 23.3505,102.448 23.5,103.5C 22.5,103.5 21.5,103.5 20.5,103.5C 21.0632,110.879 25.0632,114.545 32.5,114.5C 34.7354,114.205 36.7354,114.539 38.5,115.5C 29.8333,115.5 21.1667,115.5 12.5,115.5C 13.5676,114.566 14.901,114.232 16.5,114.5C 17.8734,114.657 19.2068,114.49 20.5,114C 16.551,107.716 11.551,102.383 5.5,98C 4.07153,97.4209 2.7382,97.5876 1.5,98.5C 0.437636,97.4246 0.437636,96.4246 1.5,95.5C 5.46649,94.9108 9.13315,93.5775 12.5,91.5C 16.6537,91.7742 20.8203,92.1075 25,92.5C 26.0299,92.1639 26.5299,91.4972 26.5,90.5 Z"/></g>
<g><path style="opacity:1" fill="#1b1e1c" d="M 71.5,84.5 C 77.4894,86.8268 83.4894,89.1601 89.5,91.5C 92.4509,92.1653 94.4509,93.9986 95.5,97C 91.2317,96.0675 87.065,95.5675 83,95.5C 82.1301,96.1079 81.6301,96.9412 81.5,98C 85.1011,101.44 89.1011,104.274 93.5,106.5C 96.6293,107.899 99.6293,109.565 102.5,111.5C 100.216,111.975 98.2163,112.975 96.5,114.5C 93.5,114.5 90.5,114.5 87.5,114.5C 81.0918,107.433 75.0918,100.099 69.5,92.5C 69.1072,89.4867 69.7739,86.8201 71.5,84.5 Z"/></g>
<g><path style="opacity:1" fill="#1b2b37" d="M 69.5,92.5 C 75.0918,100.099 81.0918,107.433 87.5,114.5C 83.4862,114.666 79.4862,114.499 75.5,114C 72.9614,111.63 70.6281,109.13 68.5,106.5C 68.4431,105.391 68.1098,104.391 67.5,103.5C 67.746,100.707 67.9127,97.7067 68,94.5C 68.2784,93.5842 68.7784,92.9175 69.5,92.5 Z"/></g>
<g><path style="opacity:1" fill="#2c2926" d="M 89.5,91.5 C 92.5,91.5 95.5,91.5 98.5,91.5C 102.078,91.5488 105.411,92.2154 108.5,93.5C 110.833,94.1667 113.167,94.8333 115.5,95.5C 113.173,95.2471 111.173,95.9137 109.5,97.5C 109.942,98.7387 110.609,99.7387 111.5,100.5C 111.5,101.5 111.5,102.5 111.5,103.5C 117.94,103.586 124.273,104.253 130.5,105.5C 130.167,106.167 129.833,106.833 129.5,107.5C 119.535,105.78 109.701,103.447 100,100.5C 96.2948,100.882 93.1281,101.716 90.5,103C 91.7101,104.039 92.7101,105.206 93.5,106.5C 89.1011,104.274 85.1011,101.44 81.5,98C 81.6301,96.9412 82.1301,96.1079 83,95.5C 87.065,95.5675 91.2317,96.0675 95.5,97C 94.4509,93.9986 92.4509,92.1653 89.5,91.5 Z"/></g>
<g><path style="opacity:1" fill="#bfd1db" d="M 203.5,96.5 C 206.35,97.1842 208.85,98.5175 211,100.5C 213.442,99.0296 215.942,97.6962 218.5,96.5C 221.285,97.0585 223.618,98.3918 225.5,100.5C 226.251,99.624 226.751,98.624 227,97.5C 228.697,100.463 231.197,102.463 234.5,103.5C 237.219,102.138 239.719,102.471 242,104.5C 243.333,103.833 244.667,103.167 246,102.5C 248.902,104.596 252.069,105.929 255.5,106.5C 255.5,107.167 255.5,107.833 255.5,108.5C 250.187,108.52 244.854,108.52 239.5,108.5C 236.102,108.18 232.768,108.513 229.5,109.5C 229.977,110.478 230.643,111.311 231.5,112C 229.924,112.44 228.59,113.273 227.5,114.5C 225.591,113.652 223.591,113.318 221.5,113.5C 221.169,115.322 220.502,116.989 219.5,118.5C 218.5,118.5 217.5,118.5 216.5,118.5C 216.367,115.104 215.367,114.771 213.5,117.5C 212.638,116.234 211.971,114.901 211.5,113.5C 213.144,113.286 214.644,113.62 216,114.5C 216.5,114 217,113.5 217.5,113C 215.975,111.991 214.308,111.491 212.5,111.5C 214.265,110.539 216.265,110.205 218.5,110.5C 218.5,109.5 218.5,108.5 218.5,107.5C 219.833,107.5 221.167,107.5 222.5,107.5C 221.329,99.9469 217.662,98.6135 211.5,103.5C 208.722,101.975 205.722,100.975 202.5,100.5C 202.331,102.117 201.997,103.784 201.5,105.5C 199.29,104.018 197.624,104.518 196.5,107C 193.518,107.498 190.518,107.665 187.5,107.5C 187.334,110.168 186.334,112.502 184.5,114.5C 186.007,115.389 187.34,116.389 188.5,117.5C 187.5,118.833 186.5,120.167 185.5,121.5C 174.676,119.515 165.009,115.015 156.5,108C 154.288,107.211 152.288,107.378 150.5,108.5C 148.95,107.559 147.284,106.893 145.5,106.5C 145.62,105.414 146.287,104.747 147.5,104.5C 149.697,105.066 151.864,105.732 154,106.5C 157.987,105.247 161.987,105.247 166,106.5C 169.063,105.119 171.896,103.286 174.5,101C 176.473,100.505 178.473,100.338 180.5,100.5C 180.5,99.5 180.5,98.5 180.5,97.5C 181.403,92.6075 184.403,90.2741 189.5,90.5C 191.912,90.3059 192.912,88.9726 192.5,86.5C 194.199,86.3398 195.866,86.5065 197.5,87C 196.196,87.804 195.529,88.9707 195.5,90.5C 196.156,92.4534 196.489,94.4534 196.5,96.5C 198.833,96.5 201.167,96.5 203.5,96.5 Z"/></g>
<g><path style="opacity:1" fill="#b17267" d="M 117.5,96.5 C 121.466,97.1621 125.466,97.4955 129.5,97.5C 129.5,98.1667 129.5,98.8333 129.5,99.5C 124.156,99.666 118.823,99.4994 113.5,99C 113.043,98.586 112.709,98.086 112.5,97.5C 114.045,96.5481 115.712,96.2148 117.5,96.5 Z"/></g>
<g><path style="opacity:1" fill="#854e45" d="M 115.5,95.5 C 116.492,95.3284 117.158,95.6618 117.5,96.5C 115.712,96.2148 114.045,96.5481 112.5,97.5C 112.709,98.086 113.043,98.586 113.5,99C 118.823,99.4994 124.156,99.666 129.5,99.5C 126.877,100.268 124.211,101.268 121.5,102.5C 118.218,101.512 114.885,100.846 111.5,100.5C 110.609,99.7387 109.942,98.7387 109.5,97.5C 111.173,95.9137 113.173,95.2471 115.5,95.5 Z"/></g>
<g><path style="opacity:1" fill="#1a1b1d" d="M 130.5,92.5 C 131.865,94.8598 133.865,96.5265 136.5,97.5C 137.209,98.404 138.209,98.7373 139.5,98.5C 139.5,101.833 139.5,105.167 139.5,108.5C 138.833,108.5 138.167,108.5 137.5,108.5C 135.052,107.527 132.385,107.194 129.5,107.5C 129.833,106.833 130.167,106.167 130.5,105.5C 137.079,101.225 136.746,98.5583 129.5,97.5C 125.466,97.4955 121.466,97.1621 117.5,96.5C 117.158,95.6618 116.492,95.3284 115.5,95.5C 113.167,94.8333 110.833,94.1667 108.5,93.5C 110.833,93.5 113.167,93.5 115.5,93.5C 120.588,93.4851 125.421,94.4851 130,96.5C 130.667,95.8333 130.667,95.1667 130,94.5C 126.59,93.1259 126.757,92.4592 130.5,92.5 Z"/></g>
<g><path style="opacity:1" fill="#43454c" d="M 131.5,85.5 C 133.628,86.9573 135.962,87.9573 138.5,88.5C 139.596,90.1032 140.93,91.6032 142.5,93C 152.732,96.5075 163.066,97.3408 173.5,95.5C 176.925,95.3668 177.258,96.0335 174.5,97.5C 170.259,97.848 166.259,99.0147 162.5,101C 156.496,101.3 150.496,101.134 144.5,100.5C 142.383,98.3455 139.716,97.3455 136.5,97.5C 133.865,96.5265 131.865,94.8598 130.5,92.5C 130.011,89.676 128.344,88.3426 125.5,88.5C 127.456,87.5082 129.456,86.5082 131.5,85.5 Z"/></g>
<g><path style="opacity:1" fill="#13273b" d="M -0.5,99.5 C -0.166667,99.5 0.166667,99.5 0.5,99.5C 5.83333,104.5 11.1667,109.5 16.5,114.5C 14.901,114.232 13.5676,114.566 12.5,115.5C 10.1667,115.5 7.83333,115.5 5.5,115.5C 3.92961,111.925 1.92961,108.592 -0.5,105.5C -0.5,103.5 -0.5,101.5 -0.5,99.5 Z"/></g>
<g><path style="opacity:1" fill="#184354" d="M 16.5,114.5 C 11.1667,109.5 5.83333,104.5 0.5,99.5C 1.16667,99.5 1.5,99.1667 1.5,98.5C 2.7382,97.5876 4.07153,97.4209 5.5,98C 11.551,102.383 16.551,107.716 20.5,114C 19.2068,114.49 17.8734,114.657 16.5,114.5 Z"/></g>
<g><path style="opacity:1" fill="#2d2f34" d="M 129.5,107.5 C 132.385,107.194 135.052,107.527 137.5,108.5C 133.833,108.5 130.167,108.5 126.5,108.5C 120.671,108.968 115.004,109.635 109.5,110.5C 107.097,110.448 104.764,110.781 102.5,111.5C 99.6293,109.565 96.6293,107.899 93.5,106.5C 92.7101,105.206 91.7101,104.039 90.5,103C 93.1281,101.716 96.2948,100.882 100,100.5C 109.701,103.447 119.535,105.78 129.5,107.5 Z"/></g>
<g><path style="opacity:1" fill="#1b3945" d="M 136.5,97.5 C 139.716,97.3455 142.383,98.3455 144.5,100.5C 143.516,102.598 143.849,104.598 145.5,106.5C 145.5,108.833 145.5,111.167 145.5,113.5C 144.5,113.5 143.5,113.5 142.5,113.5C 141.935,111.58 140.935,109.913 139.5,108.5C 139.5,105.167 139.5,101.833 139.5,98.5C 138.209,98.7373 137.209,98.404 136.5,97.5 Z"/></g>
<g><path style="opacity:1" fill="#4b3027" d="M 129.5,97.5 C 136.746,98.5583 137.079,101.225 130.5,105.5C 124.273,104.253 117.94,103.586 111.5,103.5C 111.5,102.5 111.5,101.5 111.5,100.5C 114.885,100.846 118.218,101.512 121.5,102.5C 124.211,101.268 126.877,100.268 129.5,99.5C 129.5,98.8333 129.5,98.1667 129.5,97.5 Z"/></g>
<g><path style="opacity:1" fill="#8eacbe" d="M 174.5,97.5 C 176.5,97.5 178.5,97.5 180.5,97.5C 180.5,98.5 180.5,99.5 180.5,100.5C 178.473,100.338 176.473,100.505 174.5,101C 171.896,103.286 169.063,105.119 166,106.5C 161.987,105.247 157.987,105.247 154,106.5C 151.864,105.732 149.697,105.066 147.5,104.5C 146.287,104.747 145.62,105.414 145.5,106.5C 143.849,104.598 143.516,102.598 144.5,100.5C 150.496,101.134 156.496,101.3 162.5,101C 166.259,99.0147 170.259,97.848 174.5,97.5 Z"/></g>
<g><path style="opacity:1" fill="#1a4151" d="M 30.5,93.5 C 33.6748,93.8399 35.8415,95.5066 37,98.5C 37.2315,102.555 37.7315,106.555 38.5,110.5C 36.9766,112.396 34.9766,113.73 32.5,114.5C 25.0632,114.545 21.0632,110.879 20.5,103.5C 21.5,103.5 22.5,103.5 23.5,103.5C 23.3505,102.448 23.5172,101.448 24,100.5C 24.8928,101.711 25.7261,101.711 26.5,100.5C 27.0937,97.692 28.4271,95.3587 30.5,93.5 Z"/></g>
<g><path style="opacity:1" fill="#65717c" d="M 33.5,82.5 C 37.6463,81.353 41.9796,81.1864 46.5,82C 47.5596,83.298 48.7263,84.4647 50,85.5C 51.1618,84.8132 52.3284,84.6466 53.5,85C 57.7294,90.9013 61.5627,97.0679 65,103.5C 66.0391,104.71 67.2058,105.71 68.5,106.5C 70.6281,109.13 72.9614,111.63 75.5,114C 79.4862,114.499 83.4862,114.666 87.5,114.5C 90.5,114.5 93.5,114.5 96.5,114.5C 83.674,115.535 70.674,116.201 57.5,116.5C 51.5,116.5 45.5,116.5 39.5,116.5C 39.5,116.167 39.5,115.833 39.5,115.5C 41.1667,115.5 42.8333,115.5 44.5,115.5C 46.8333,115.5 49.1667,115.5 51.5,115.5C 52.5,115.5 53.5,115.5 54.5,115.5C 51.4051,108.39 47.0718,102.057 41.5,96.5C 43.1703,96.7512 44.6703,97.4178 46,98.5C 46.8996,97.2298 48.0663,96.2298 49.5,95.5C 47.5623,91.5077 45.7289,87.5077 44,83.5C 40.6064,82.5442 37.1064,82.2108 33.5,82.5 Z"/></g>
<g><path style="opacity:1" fill="#354355" d="M 50.5,98.5 C 51.552,98.3505 52.552,98.5172 53.5,99C 59.537,103.504 64.8703,108.67 69.5,114.5C 67.2351,115.647 64.9018,115.814 62.5,115C 56.6688,110.693 52.6688,105.193 50.5,98.5 Z"/></g>
<g><path style="opacity:1" fill="#737b86" d="M 126.5,108.5 C 126.5,109.167 126.5,109.833 126.5,110.5C 125.508,110.328 124.842,110.662 124.5,111.5C 119.595,110.555 114.595,110.221 109.5,110.5C 115.004,109.635 120.671,108.968 126.5,108.5 Z"/></g>
<g><path style="opacity:1" fill="#1f3345" d="M -0.5,77.5 C 5.49517,79.1567 11.4952,80.8234 17.5,82.5C 26.124,86.1437 34.124,90.8103 41.5,96.5C 47.0718,102.057 51.4051,108.39 54.5,115.5C 53.5,115.5 52.5,115.5 51.5,115.5C 49.105,109.052 45.4384,103.385 40.5,98.5C 39.4173,99.365 39.2506,100.365 40,101.5C 45.1881,104.999 46.6881,109.666 44.5,115.5C 42.8333,115.5 41.1667,115.5 39.5,115.5C 39.1667,115.5 38.8333,115.5 38.5,115.5C 36.7354,114.539 34.7354,114.205 32.5,114.5C 34.9766,113.73 36.9766,112.396 38.5,110.5C 37.7315,106.555 37.2315,102.555 37,98.5C 35.8415,95.5066 33.6748,93.8399 30.5,93.5C 29.5637,92.0256 28.2303,91.0256 26.5,90.5C 23.4846,88.3256 20.1513,86.6589 16.5,85.5C 15.0193,83.7531 13.0193,82.5864 10.5,82C 6.80861,81.5804 3.14194,81.0804 -0.5,80.5C -0.5,79.5 -0.5,78.5 -0.5,77.5 Z"/></g>
<g><path style="opacity:1" fill="#11242a" d="M 51.5,115.5 C 49.1667,115.5 46.8333,115.5 44.5,115.5C 46.6881,109.666 45.1881,104.999 40,101.5C 39.2506,100.365 39.4173,99.365 40.5,98.5C 45.4384,103.385 49.105,109.052 51.5,115.5 Z"/></g>
<g><path style="opacity:1" fill="#d0d3d0" d="M 126.5,108.5 C 130.167,108.5 133.833,108.5 137.5,108.5C 138.167,108.5 138.833,108.5 139.5,108.5C 140.935,109.913 141.935,111.58 142.5,113.5C 142.5,113.833 142.5,114.167 142.5,114.5C 137.936,115.184 137.603,116.184 141.5,117.5C 136.859,116.873 132.193,116.54 127.5,116.5C 121.644,115.244 115.811,113.911 110,112.5C 104.329,112.585 99.1623,114.251 94.5,117.5C 88.9738,117.179 83.6405,117.512 78.5,118.5C 71.1667,118.5 63.8333,118.5 56.5,118.5C 56.8333,117.833 57.1667,117.167 57.5,116.5C 70.674,116.201 83.674,115.535 96.5,114.5C 98.2163,112.975 100.216,111.975 102.5,111.5C 104.764,110.781 107.097,110.448 109.5,110.5C 114.595,110.221 119.595,110.555 124.5,111.5C 124.833,112.5 125.5,113.167 126.5,113.5C 130.524,114.945 134.524,114.612 138.5,112.5C 136.067,110.946 133.4,110.28 130.5,110.5C 129.167,110.5 127.833,110.5 126.5,110.5C 126.5,109.833 126.5,109.167 126.5,108.5 Z"/></g>
<g><path style="opacity:1" fill="#192529" d="M 126.5,110.5 C 127.833,110.5 129.167,110.5 130.5,110.5C 131.718,111.161 133.051,111.828 134.5,112.5C 131.914,113.48 129.247,113.813 126.5,113.5C 125.5,113.167 124.833,112.5 124.5,111.5C 124.842,110.662 125.508,110.328 126.5,110.5 Z"/></g>
<g><path style="opacity:1" fill="#82a3b9" d="M 212.5,111.5 C 208.955,102.292 206.955,102.625 206.5,112.5C 205.167,112.5 203.833,112.5 202.5,112.5C 202.778,114.346 202.111,115.68 200.5,116.5C 198.49,114.829 196.157,114.162 193.5,114.5C 193.5,113.5 193.5,112.5 193.5,111.5C 190.043,111.96 188.377,113.96 188.5,117.5C 187.34,116.389 186.007,115.389 184.5,114.5C 186.334,112.502 187.334,110.168 187.5,107.5C 190.518,107.665 193.518,107.498 196.5,107C 197.624,104.518 199.29,104.018 201.5,105.5C 201.997,103.784 202.331,102.117 202.5,100.5C 205.722,100.975 208.722,101.975 211.5,103.5C 217.662,98.6135 221.329,99.9469 222.5,107.5C 221.167,107.5 219.833,107.5 218.5,107.5C 218.5,108.5 218.5,109.5 218.5,110.5C 216.265,110.205 214.265,110.539 212.5,111.5 Z"/></g>
<g><path style="opacity:1" fill="#a8bcc6" d="M 255.5,108.5 C 255.5,111.5 255.5,114.5 255.5,117.5C 253.184,118.806 250.85,120.139 248.5,121.5C 246.879,121.213 245.879,120.213 245.5,118.5C 246.681,116.802 246.681,115.135 245.5,113.5C 243.059,112.291 241.059,110.624 239.5,108.5C 244.854,108.52 250.187,108.52 255.5,108.5 Z"/></g>
<g><path style="opacity:1" fill="#4d97a8" d="M 145.5,106.5 C 147.284,106.893 148.95,107.559 150.5,108.5C 156.994,111.917 162.994,116.084 168.5,121C 173.434,121.116 178.1,121.949 182.5,123.5C 180.821,123.285 179.821,123.952 179.5,125.5C 178.508,125.328 177.842,125.662 177.5,126.5C 175.801,126.66 174.134,126.494 172.5,126C 168.849,122.339 164.683,119.506 160,117.5C 158.97,117.836 158.47,118.503 158.5,119.5C 154.855,118.013 151.188,116.513 147.5,115C 145.866,114.506 144.199,114.34 142.5,114.5C 142.5,114.167 142.5,113.833 142.5,113.5C 143.5,113.5 144.5,113.5 145.5,113.5C 145.5,111.167 145.5,108.833 145.5,106.5 Z"/></g>
<g><path style="opacity:1" fill="#4f5559" d="M 130.5,110.5 C 133.4,110.28 136.067,110.946 138.5,112.5C 134.524,114.612 130.524,114.945 126.5,113.5C 129.247,113.813 131.914,113.48 134.5,112.5C 133.051,111.828 131.718,111.161 130.5,110.5 Z"/></g>
<g><path style="opacity:1" fill="#295361" d="M -0.5,105.5 C 1.92961,108.592 3.92961,111.925 5.5,115.5C 3.62642,116.285 1.62642,116.952 -0.5,117.5C -0.5,113.5 -0.5,109.5 -0.5,105.5 Z"/></g>
<g><path style="opacity:1" fill="#e3f5f6" d="M 150.5,108.5 C 152.288,107.378 154.288,107.211 156.5,108C 165.009,115.015 174.676,119.515 185.5,121.5C 185.842,122.338 186.508,122.672 187.5,122.5C 186.791,123.404 185.791,123.737 184.5,123.5C 183.833,123.5 183.167,123.5 182.5,123.5C 178.1,121.949 173.434,121.116 168.5,121C 162.994,116.084 156.994,111.917 150.5,108.5 Z"/></g>
<g><path style="opacity:1" fill="#8aa8ba" d="M 211.5,113.5 C 211.971,114.901 212.638,116.234 213.5,117.5C 215.367,114.771 216.367,115.104 216.5,118.5C 217.5,118.5 218.5,118.5 219.5,118.5C 218.53,119.629 217.364,120.629 216,121.5C 214.594,120.586 213.094,119.92 211.5,119.5C 211.5,118.5 211.5,117.5 211.5,116.5C 206.362,116.001 206.362,115.001 211.5,113.5 Z"/></g>
<g><path style="opacity:1" fill="#a0b5bf" d="M 5.5,115.5 C 7.83333,115.5 10.1667,115.5 12.5,115.5C 21.1667,115.5 29.8333,115.5 38.5,115.5C 38.8333,115.5 39.1667,115.5 39.5,115.5C 39.5,115.833 39.5,116.167 39.5,116.5C 27.1256,115.437 15.1256,116.937 3.5,121C 7.59847,121.472 11.5985,120.972 15.5,119.5C 17.2073,119.728 18.874,120.062 20.5,120.5C 18.1667,121.167 15.8333,121.833 13.5,122.5C 8.83333,122.5 4.16667,122.5 -0.5,122.5C -0.5,120.833 -0.5,119.167 -0.5,117.5C 1.62642,116.952 3.62642,116.285 5.5,115.5 Z"/></g>
<g><path style="opacity:1" fill="#5e829c" d="M 212.5,111.5 C 214.308,111.491 215.975,111.991 217.5,113C 217,113.5 216.5,114 216,114.5C 214.644,113.62 213.144,113.286 211.5,113.5C 206.362,115.001 206.362,116.001 211.5,116.5C 211.5,117.5 211.5,118.5 211.5,119.5C 210.735,119.077 209.902,118.743 209,118.5C 205.242,121.551 201.075,122.217 196.5,120.5C 193.425,120.704 192.425,122.037 193.5,124.5C 191.5,123.833 189.5,123.167 187.5,122.5C 186.508,122.672 185.842,122.338 185.5,121.5C 186.5,120.167 187.5,118.833 188.5,117.5C 188.377,113.96 190.043,111.96 193.5,111.5C 193.5,112.5 193.5,113.5 193.5,114.5C 196.157,114.162 198.49,114.829 200.5,116.5C 202.111,115.68 202.778,114.346 202.5,112.5C 203.833,112.5 205.167,112.5 206.5,112.5C 206.955,102.625 208.955,102.292 212.5,111.5 Z"/></g>
<g><path style="opacity:1" fill="#6c8798" d="M 239.5,108.5 C 241.059,110.624 243.059,112.291 245.5,113.5C 246.681,115.135 246.681,116.802 245.5,118.5C 245.879,120.213 246.879,121.213 248.5,121.5C 247.158,123.361 246.158,125.361 245.5,127.5C 244.701,124.102 243.701,120.769 242.5,117.5C 240.473,117.662 238.473,117.495 236.5,117C 235.244,116.583 234.577,115.75 234.5,114.5C 236.138,113.086 237.472,113.42 238.5,115.5C 240.115,114.846 241.782,114.346 243.5,114C 240.107,111.587 236.44,111.087 232.5,112.5C 232.863,113.183 233.196,113.85 233.5,114.5C 232.448,114.351 231.448,114.517 230.5,115C 231.451,115.718 231.617,116.551 231,117.5C 228.861,116.231 226.695,116.231 224.5,117.5C 223.754,118.736 223.421,120.07 223.5,121.5C 218.878,124.679 214.878,124.012 211.5,119.5C 213.094,119.92 214.594,120.586 216,121.5C 217.364,120.629 218.53,119.629 219.5,118.5C 220.502,116.989 221.169,115.322 221.5,113.5C 223.591,113.318 225.591,113.652 227.5,114.5C 228.59,113.273 229.924,112.44 231.5,112C 230.643,111.311 229.977,110.478 229.5,109.5C 232.768,108.513 236.102,108.18 239.5,108.5 Z"/></g>
<g><path style="opacity:1" fill="#aec2cc" d="M 234.5,114.5 C 234.167,114.5 233.833,114.5 233.5,114.5C 233.196,113.85 232.863,113.183 232.5,112.5C 236.44,111.087 240.107,111.587 243.5,114C 241.782,114.346 240.115,114.846 238.5,115.5C 237.472,113.42 236.138,113.086 234.5,114.5 Z"/></g>
<g><path style="opacity:1" fill="#b5c6ce" d="M 39.5,116.5 C 45.5,116.5 51.5,116.5 57.5,116.5C 57.1667,117.167 56.8333,117.833 56.5,118.5C 52.5752,118.43 48.9085,119.097 45.5,120.5C 40.5,120.5 35.5,120.5 30.5,120.5C 27.1667,120.5 23.8333,120.5 20.5,120.5C 18.874,120.062 17.2073,119.728 15.5,119.5C 11.5985,120.972 7.59847,121.472 3.5,121C 15.1256,116.937 27.1256,115.437 39.5,116.5 Z"/></g>
<g><path style="opacity:1" fill="#5c4934" d="M 56.5,118.5 C 63.8333,118.5 71.1667,118.5 78.5,118.5C 78.5,118.833 78.5,119.167 78.5,119.5C 70.6281,121.272 62.6281,121.938 54.5,121.5C 51.7131,120.523 48.7131,120.19 45.5,120.5C 48.9085,119.097 52.5752,118.43 56.5,118.5 Z"/></g>
<g><path style="opacity:1" fill="#95561e" d="M 127.5,116.5 C 129.948,117.473 132.615,117.806 135.5,117.5C 135.5,118.5 135.5,119.5 135.5,120.5C 133.143,120.337 130.81,120.503 128.5,121C 130.586,121.315 132.586,121.815 134.5,122.5C 135.038,124.117 135.371,125.784 135.5,127.5C 135.167,127.5 134.833,127.5 134.5,127.5C 128.616,125.42 122.616,124.92 116.5,126C 114.947,124.903 113.614,123.57 112.5,122C 112.833,121.667 113.167,121.333 113.5,121C 111.866,120.506 110.199,120.34 108.5,120.5C 106.857,120.52 105.524,119.853 104.5,118.5C 100.724,120.186 97.3908,119.853 94.5,117.5C 99.1623,114.251 104.329,112.585 110,112.5C 115.811,113.911 121.644,115.244 127.5,116.5 Z"/></g>
<g><path style="opacity:1" fill="#e9f1f2" d="M 142.5,114.5 C 144.199,114.34 145.866,114.506 147.5,115C 151.188,116.513 154.855,118.013 158.5,119.5C 163.725,123.745 168.392,128.412 172.5,133.5C 174.08,136.659 175.08,139.993 175.5,143.5C 174.833,143.5 174.167,143.5 173.5,143.5C 169.948,134.616 163.948,127.949 155.5,123.5C 150.904,121.377 146.237,119.377 141.5,117.5C 137.603,116.184 137.936,115.184 142.5,114.5 Z"/></g>
<g><path style="opacity:1" fill="#32485c" d="M 233.5,114.5 C 233.833,114.5 234.167,114.5 234.5,114.5C 234.577,115.75 235.244,116.583 236.5,117C 238.473,117.495 240.473,117.662 242.5,117.5C 243.701,120.769 244.701,124.102 245.5,127.5C 245.467,131.869 245.8,136.202 246.5,140.5C 242.833,139.833 239.167,139.167 235.5,138.5C 229.917,137.037 224.584,135.037 219.5,132.5C 218.014,130.381 216.014,128.881 213.5,128C 215.301,127.683 215.634,127.016 214.5,126C 217.959,125.137 221.293,123.97 224.5,122.5C 224.376,121.893 224.043,121.56 223.5,121.5C 223.421,120.07 223.754,118.736 224.5,117.5C 226.695,116.231 228.861,116.231 231,117.5C 231.617,116.551 231.451,115.718 230.5,115C 231.448,114.517 232.448,114.351 233.5,114.5 Z"/></g>
<g><path style="opacity:1" fill="#665a50" d="M 20.5,120.5 C 23.8333,120.5 27.1667,120.5 30.5,120.5C 25.0399,121.737 19.3732,122.404 13.5,122.5C 15.8333,121.833 18.1667,121.167 20.5,120.5 Z"/></g>
<g><path style="opacity:1" fill="#5e350f" d="M 78.5,119.5 C 79.7429,121.578 81.4095,123.412 83.5,125C 81.7536,125.471 80.087,126.138 78.5,127C 82.4754,126.983 86.4754,126.816 90.5,126.5C 90.762,127.978 90.4287,129.311 89.5,130.5C 87.9411,131.074 86.4411,131.74 85,132.5C 80.3366,131.662 76.1699,132.995 72.5,136.5C 70.5494,135.744 68.7161,135.411 67,135.5C 66.8333,135.833 66.6667,136.167 66.5,136.5C 68.772,137.485 71.1053,138.319 73.5,139C 71.1667,139.333 68.8333,139.667 66.5,140C 65.695,141.113 65.0283,142.279 64.5,143.5C 61.5,143.5 58.5,143.5 55.5,143.5C 56.2796,140.899 57.9463,138.899 60.5,137.5C 59.2865,135.149 59.9532,133.316 62.5,132C 57.8983,129.469 52.8983,127.636 47.5,126.5C 46.6371,125.274 46.6371,123.94 47.5,122.5C 49.6074,121.532 51.9407,121.198 54.5,121.5C 62.6281,121.938 70.6281,121.272 78.5,119.5 Z"/></g>
<g><path style="opacity:1" fill="#375772" d="M 211.5,119.5 C 214.878,124.012 218.878,124.679 223.5,121.5C 224.043,121.56 224.376,121.893 224.5,122.5C 221.293,123.97 217.959,125.137 214.5,126C 215.634,127.016 215.301,127.683 213.5,128C 216.014,128.881 218.014,130.381 219.5,132.5C 210.312,131.044 201.645,128.377 193.5,124.5C 192.425,122.037 193.425,120.704 196.5,120.5C 201.075,122.217 205.242,121.551 209,118.5C 209.902,118.743 210.735,119.077 211.5,119.5 Z"/></g>
<g><path style="opacity:1" fill="#2d2208" d="M -0.5,123.5 C 8.83928,123.334 18.1726,123.5 27.5,124C 22.6776,127.911 17.6776,131.578 12.5,135C 13.8333,135.667 13.8333,136.333 12.5,137C 13.624,137.249 14.624,137.749 15.5,138.5C 13.4881,140.106 11.1547,141.273 8.5,142C 9.73747,142.232 10.7375,142.732 11.5,143.5C 7.5,143.5 3.5,143.5 -0.5,143.5C -0.5,136.833 -0.5,130.167 -0.5,123.5 Z"/></g>
<g><path style="opacity:1" fill="#38260c" d="M 30.5,120.5 C 35.5,120.5 40.5,120.5 45.5,120.5C 48.7131,120.19 51.7131,120.523 54.5,121.5C 51.9407,121.198 49.6074,121.532 47.5,122.5C 43.4659,122.505 39.4659,122.838 35.5,123.5C 35.5,124.833 35.5,126.167 35.5,127.5C 37.8568,127.337 40.1902,127.503 42.5,128C 39.7846,129.908 36.7846,131.241 33.5,132C 33.0426,132.414 32.7093,132.914 32.5,133.5C 34.1667,134.167 35.8333,134.833 37.5,135.5C 35.2052,137.48 32.5385,138.647 29.5,139C 28.7775,140.751 27.7775,142.251 26.5,143.5C 21.5,143.5 16.5,143.5 11.5,143.5C 10.7375,142.732 9.73747,142.232 8.5,142C 11.1547,141.273 13.4881,140.106 15.5,138.5C 14.624,137.749 13.624,137.249 12.5,137C 13.8333,136.333 13.8333,135.667 12.5,135C 17.6776,131.578 22.6776,127.911 27.5,124C 18.1726,123.5 8.83928,123.334 -0.5,123.5C -0.5,123.167 -0.5,122.833 -0.5,122.5C 4.16667,122.5 8.83333,122.5 13.5,122.5C 19.3732,122.404 25.0399,121.737 30.5,120.5 Z"/></g>
<g><path style="opacity:1" fill="#31727b" d="M 177.5,126.5 C 177.001,129.389 175.501,130.056 173,128.5C 172.506,130.134 172.34,131.801 172.5,133.5C 168.392,128.412 163.725,123.745 158.5,119.5C 158.47,118.503 158.97,117.836 160,117.5C 164.683,119.506 168.849,122.339 172.5,126C 174.134,126.494 175.801,126.66 177.5,126.5 Z"/></g>
<g><path style="opacity:1" fill="#251d11" d="M 255.5,117.5 C 255.5,126.167 255.5,134.833 255.5,143.5C 252.833,143.5 250.167,143.5 247.5,143.5C 247.443,142.391 247.11,141.391 246.5,140.5C 245.8,136.202 245.467,131.869 245.5,127.5C 246.158,125.361 247.158,123.361 248.5,121.5C 250.85,120.139 253.184,118.806 255.5,117.5 Z"/></g>
<g><path style="opacity:1" fill="#69390f" d="M 78.5,118.5 C 82.5138,118.334 86.5138,118.501 90.5,119C 88.2852,119.17 86.2852,119.837 84.5,121C 89.1232,121.958 93.7899,122.625 98.5,123C 99.3521,125.206 100.352,127.373 101.5,129.5C 101.182,130.647 100.516,131.481 99.5,132C 99.8333,132.333 100.167,132.667 100.5,133C 97.4557,133.359 97.1224,134.026 99.5,135C 99.0426,135.414 98.7093,135.914 98.5,136.5C 94.8776,137.325 91.211,137.825 87.5,138C 86.3659,139.016 86.6992,139.683 88.5,140C 86.5743,140.422 85.5743,141.589 85.5,143.5C 78.5,143.5 71.5,143.5 64.5,143.5C 65.0283,142.279 65.695,141.113 66.5,140C 68.8333,139.667 71.1667,139.333 73.5,139C 71.1053,138.319 68.772,137.485 66.5,136.5C 66.6667,136.167 66.8333,135.833 67,135.5C 68.7161,135.411 70.5494,135.744 72.5,136.5C 76.1699,132.995 80.3366,131.662 85,132.5C 86.4411,131.74 87.9411,131.074 89.5,130.5C 90.4287,129.311 90.762,127.978 90.5,126.5C 86.4754,126.816 82.4754,126.983 78.5,127C 80.087,126.138 81.7536,125.471 83.5,125C 81.4095,123.412 79.7429,121.578 78.5,119.5C 78.5,119.167 78.5,118.833 78.5,118.5 Z"/></g>
<g><path style="opacity:1" fill="#784112" d="M 78.5,118.5 C 83.6405,117.512 88.9738,117.179 94.5,117.5C 97.3908,119.853 100.724,120.186 104.5,118.5C 105.524,119.853 106.857,120.52 108.5,120.5C 110.522,122.419 110.856,124.586 109.5,127C 115.659,129.012 116.993,132.678 113.5,138C 116.964,139.759 120.63,140.926 124.5,141.5C 124.863,142.183 125.196,142.85 125.5,143.5C 112.167,143.5 98.8333,143.5 85.5,143.5C 85.5743,141.589 86.5743,140.422 88.5,140C 86.6992,139.683 86.3659,139.016 87.5,138C 91.211,137.825 94.8776,137.325 98.5,136.5C 98.7093,135.914 99.0426,135.414 99.5,135C 97.1224,134.026 97.4557,133.359 100.5,133C 100.167,132.667 99.8333,132.333 99.5,132C 100.516,131.481 101.182,130.647 101.5,129.5C 100.352,127.373 99.3521,125.206 98.5,123C 93.7899,122.625 89.1232,121.958 84.5,121C 86.2852,119.837 88.2852,119.17 90.5,119C 86.5138,118.501 82.5138,118.334 78.5,118.5 Z"/></g>
<g><path style="opacity:1" fill="#c3a89c" d="M 155.5,123.5 C 163.948,127.949 169.948,134.616 173.5,143.5C 172.833,143.5 172.167,143.5 171.5,143.5C 170.191,140.222 168.358,137.222 166,134.5C 162.296,130.964 158.796,127.298 155.5,123.5 Z"/></g>
<g><path style="opacity:1" fill="#b46b2d" d="M 134.5,122.5 C 137.568,122.547 140.568,123.047 143.5,124C 148.277,125.862 152.944,127.862 157.5,130C 161.611,134.337 165.277,138.837 168.5,143.5C 167.5,143.5 166.5,143.5 165.5,143.5C 163.995,139.007 160.995,137.34 156.5,138.5C 155.201,137.91 154.368,136.91 154,135.5C 153.781,136.938 153.281,138.271 152.5,139.5C 150.271,138.423 147.937,137.756 145.5,137.5C 144.51,131.843 141.176,128.51 135.5,127.5C 135.371,125.784 135.038,124.117 134.5,122.5 Z"/></g>
<g><path style="opacity:1" fill="#894811" d="M 108.5,120.5 C 110.199,120.34 111.866,120.506 113.5,121C 113.167,121.333 112.833,121.667 112.5,122C 113.614,123.57 114.947,124.903 116.5,126C 122.616,124.92 128.616,125.42 134.5,127.5C 135.738,132.351 138.072,136.518 141.5,140C 144.592,139.893 146.925,141.059 148.5,143.5C 140.833,143.5 133.167,143.5 125.5,143.5C 125.196,142.85 124.863,142.183 124.5,141.5C 120.63,140.926 116.964,139.759 113.5,138C 116.993,132.678 115.659,129.012 109.5,127C 110.856,124.586 110.522,122.419 108.5,120.5 Z"/></g>
<g><path style="opacity:1" fill="#9d5415" d="M 134.5,127.5 C 134.833,127.5 135.167,127.5 135.5,127.5C 141.176,128.51 144.51,131.843 145.5,137.5C 147.937,137.756 150.271,138.423 152.5,139.5C 153.281,138.271 153.781,136.938 154,135.5C 154.368,136.91 155.201,137.91 156.5,138.5C 160.995,137.34 163.995,139.007 165.5,143.5C 159.833,143.5 154.167,143.5 148.5,143.5C 146.925,141.059 144.592,139.893 141.5,140C 138.072,136.518 135.738,132.351 134.5,127.5 Z"/></g>
<g><path style="opacity:1" fill="#ba7b4f" d="M 127.5,116.5 C 132.193,116.54 136.859,116.873 141.5,117.5C 146.237,119.377 150.904,121.377 155.5,123.5C 158.796,127.298 162.296,130.964 166,134.5C 168.358,137.222 170.191,140.222 171.5,143.5C 170.5,143.5 169.5,143.5 168.5,143.5C 165.277,138.837 161.611,134.337 157.5,130C 152.944,127.862 148.277,125.862 143.5,124C 140.568,123.047 137.568,122.547 134.5,122.5C 132.586,121.815 130.586,121.315 128.5,121C 130.81,120.503 133.143,120.337 135.5,120.5C 135.5,119.5 135.5,118.5 135.5,117.5C 132.615,117.806 129.948,117.473 127.5,116.5 Z"/></g>
<g><path style="opacity:1" fill="#46280a" d="M 47.5,122.5 C 46.6371,123.94 46.6371,125.274 47.5,126.5C 52.8983,127.636 57.8983,129.469 62.5,132C 59.9532,133.316 59.2865,135.149 60.5,137.5C 57.9463,138.899 56.2796,140.899 55.5,143.5C 45.8333,143.5 36.1667,143.5 26.5,143.5C 27.7775,142.251 28.7775,140.751 29.5,139C 32.5385,138.647 35.2052,137.48 37.5,135.5C 35.8333,134.833 34.1667,134.167 32.5,133.5C 32.7093,132.914 33.0426,132.414 33.5,132C 36.7846,131.241 39.7846,129.908 42.5,128C 40.1902,127.503 37.8568,127.337 35.5,127.5C 35.5,126.167 35.5,124.833 35.5,123.5C 39.4659,122.838 43.4659,122.505 47.5,122.5 Z"/></g>
<g><path style="opacity:1" fill="#1c4f59" d="M 179.5,125.5 C 181.792,125.244 183.959,125.577 186,126.5C 187.316,129.688 187.816,133.022 187.5,136.5C 188.93,136.579 190.264,136.246 191.5,135.5C 192.381,138.13 193.048,140.797 193.5,143.5C 187.5,143.5 181.5,143.5 175.5,143.5C 175.08,139.993 174.08,136.659 172.5,133.5C 172.34,131.801 172.506,130.134 173,128.5C 175.501,130.056 177.001,129.389 177.5,126.5C 177.842,125.662 178.508,125.328 179.5,125.5 Z"/></g>
<g><path style="opacity:1" fill="#30828b" d="M 188.5,125.5 C 195.651,127.876 202.651,130.709 209.5,134C 213.28,134.918 216.946,135.751 220.5,136.5C 214.532,135.459 211.199,137.792 210.5,143.5C 209.167,143.5 207.833,143.5 206.5,143.5C 205.609,142.739 204.942,141.739 204.5,140.5C 205.043,139.136 205.21,137.803 205,136.5C 200.476,134.601 195.976,132.601 191.5,130.5C 190.68,128.681 189.68,127.014 188.5,125.5 Z"/></g>
<g><path style="opacity:1" fill="#c4e2e6" d="M 187.5,122.5 C 189.5,123.167 191.5,123.833 193.5,124.5C 201.645,128.377 210.312,131.044 219.5,132.5C 224.584,135.037 229.917,137.037 235.5,138.5C 238.258,139.967 237.925,140.633 234.5,140.5C 229.649,139.737 224.982,138.404 220.5,136.5C 216.946,135.751 213.28,134.918 209.5,134C 202.651,130.709 195.651,127.876 188.5,125.5C 186.847,125.34 185.514,124.674 184.5,123.5C 185.791,123.737 186.791,123.404 187.5,122.5 Z"/></g>
<g><path style="opacity:1" fill="#296b73" d="M 182.5,123.5 C 183.167,123.5 183.833,123.5 184.5,123.5C 185.514,124.674 186.847,125.34 188.5,125.5C 189.68,127.014 190.68,128.681 191.5,130.5C 195.976,132.601 200.476,134.601 205,136.5C 205.21,137.803 205.043,139.136 204.5,140.5C 204.942,141.739 205.609,142.739 206.5,143.5C 202.167,143.5 197.833,143.5 193.5,143.5C 193.048,140.797 192.381,138.13 191.5,135.5C 190.264,136.246 188.93,136.579 187.5,136.5C 187.816,133.022 187.316,129.688 186,126.5C 183.959,125.577 181.792,125.244 179.5,125.5C 179.821,123.952 180.821,123.285 182.5,123.5 Z"/></g>
<g><path style="opacity:1" fill="#1c525d" d="M 220.5,136.5 C 220.5,138.833 220.5,141.167 220.5,143.5C 217.167,143.5 213.833,143.5 210.5,143.5C 211.199,137.792 214.532,135.459 220.5,136.5 Z"/></g>
<g><path style="opacity:1" fill="#31737c" d="M 220.5,136.5 C 224.982,138.404 229.649,139.737 234.5,140.5C 233.449,141.222 232.782,142.222 232.5,143.5C 228.5,143.5 224.5,143.5 220.5,143.5C 220.5,141.167 220.5,138.833 220.5,136.5 Z"/></g>
<g><path style="opacity:1" fill="#70a4ac" d="M 235.5,138.5 C 239.167,139.167 242.833,139.833 246.5,140.5C 247.11,141.391 247.443,142.391 247.5,143.5C 242.5,143.5 237.5,143.5 232.5,143.5C 232.782,142.222 233.449,141.222 234.5,140.5C 237.925,140.633 238.258,139.967 235.5,138.5 Z"/></g>
</svg>
