<?xml version="1.0" encoding="UTF-8"?>
<!DOCTYPE svg PUBLIC "-//W3C//DTD SVG 1.1//EN" "http://www.w3.org/Graphics/SVG/1.1/DTD/svg11.dtd">
<svg xmlns="http://www.w3.org/2000/svg" version="1.1" width="256px" height="144px" style="shape-rendering:geometricPrecision; text-rendering:geometricPrecision; image-rendering:optimizeQuality; fill-rule:evenodd; clip-rule:evenodd" xmlns:xlink="http://www.w3.org/1999/xlink">
<g><path style="opacity:1" fill="#090607" d="M -0.5,-0.5 C 21.5,-0.5 43.5,-0.5 65.5,-0.5C 62.2642,2.20148 58.5976,4.36815 54.5,6C 52.8588,7.12901 51.8588,8.62901 51.5,10.5C 45.6583,11.5075 41.825,14.8408 40,20.5C 31.9417,26.7207 23.1083,30.554 13.5,32C 8.3963,34.1918 3.72963,37.0251 -0.5,40.5C -0.5,26.8333 -0.5,13.1667 -0.5,-0.5 Z"/></g>
<g><path style="opacity:1" fill="#030203" d="M 157.5,-0.5 C 190.167,-0.5 222.833,-0.5 255.5,-0.5C 255.5,9.5 255.5,19.5 255.5,29.5C 246.2,28.7477 236.866,28.2477 227.5,28C 223.541,27.7205 219.708,26.8872 216,25.5C 212.146,26.0917 208.146,26.0917 204,25.5C 202.649,27.0097 200.982,28.0097 199,28.5C 197.56,27.3929 196.06,27.3929 194.5,28.5C 189.636,28.7166 186.136,26.7166 184,22.5C 183.848,24.382 183.015,26.0486 181.5,27.5C 180.883,25.6792 180.716,23.6792 181,21.5C 179.033,19.0489 177.367,16.3822 176,13.5C 171.756,11.1326 168.256,7.9659 165.5,4C 162.199,3.51282 159.533,2.01282 157.5,-0.5 Z"/></g>
<g><path style="opacity:1" fill="#9f9993" d="M 126.5,3.5 C 127.791,3.26269 128.791,3.59603 129.5,4.5C 123.807,4.37381 118.14,4.70714 112.5,5.5C 109.741,5.75747 107.407,6.75747 105.5,8.5C 91.2827,13.458 80.2827,22.458 72.5,35.5C 70.9263,36.9842 69.593,38.6508 68.5,40.5C 68.523,38.0733 69.023,35.74 70,33.5C 71.7398,32.2842 72.7398,30.6175 73,28.5C 76.7051,23.9671 80.5384,19.6338 84.5,15.5C 91.1848,12.4941 97.5181,8.9941 103.5,5C 111.145,4.11288 118.811,3.61288 126.5,3.5 Z"/></g>
<g><path style="opacity:1" fill="#453f3f" d="M 82.5,-0.5 C 101.5,-0.5 120.5,-0.5 139.5,-0.5C 144.759,-0.406268 149.426,1.42707 153.5,5C 154.47,6.67966 155.47,8.17966 156.5,9.5C 154.139,9.32588 151.806,8.99255 149.5,8.5C 149.158,7.66175 148.492,7.32842 147.5,7.5C 146.652,5.90693 145.319,4.74026 143.5,4C 138.531,2.84107 133.531,1.84107 128.5,1C 114.431,0.0531212 100.431,0.386455 86.5,2C 84.6241,3.01725 82.6241,3.85059 80.5,4.5C 75.3345,7.82454 70.8345,11.8245 67,16.5C 65.7793,24.1435 65.2793,31.8101 65.5,39.5C 65.5,41.1667 65.5,42.8333 65.5,44.5C 64.8333,44.8333 64.1667,45.1667 63.5,45.5C 62.609,46.1098 61.609,46.4431 60.5,46.5C 61.1217,45.3734 61.955,44.3734 63,43.5C 63.8119,39.3112 63.6453,35.3112 62.5,31.5C 62.324,27.9671 60.9906,24.9671 58.5,22.5C 59.8248,17.9012 62.4915,13.7346 66.5,10C 69.6121,9.37505 71.4454,7.54171 72,4.5C 72.3333,4.83333 72.6667,5.16667 73,5.5C 76.3197,3.66798 79.4864,1.66798 82.5,-0.5 Z"/></g>
<g><path style="opacity:1" fill="#bab3ad" d="M 129.5,4.5 C 135.312,6.11268 141.312,7.11268 147.5,7.5C 148.492,7.32842 149.158,7.66175 149.5,8.5C 145.833,8.5 142.167,8.5 138.5,8.5C 137.737,7.73209 136.737,7.23209 135.5,7C 125.416,6.17086 115.416,6.67086 105.5,8.5C 107.407,6.75747 109.741,5.75747 112.5,5.5C 118.14,4.70714 123.807,4.37381 129.5,4.5 Z"/></g>
<g><path style="opacity:1" fill="#373031" d="M 77.5,-0.5 C 79.1667,-0.5 80.8333,-0.5 82.5,-0.5C 79.4864,1.66798 76.3197,3.66798 73,5.5C 72.6667,5.16667 72.3333,4.83333 72,4.5C 71.4454,7.54171 69.6121,9.37505 66.5,10C 62.4915,13.7346 59.8248,17.9012 58.5,22.5C 60.9906,24.9671 62.324,27.9671 62.5,31.5C 62.6495,32.552 62.4828,33.552 62,34.5C 61.5814,33.3279 60.9147,32.3279 60,31.5C 59.2303,32.5981 58.397,32.5981 57.5,31.5C 55.502,29.4002 53.3353,27.4002 51,25.5C 50.3623,24.3914 49.8623,23.2247 49.5,22C 50.7558,20.1551 51.7558,18.1551 52.5,16C 57.0418,11.2922 62.0418,7.12554 67.5,3.5C 70.8646,1.94095 74.1979,0.607612 77.5,-0.5 Z"/></g>
<g><path style="opacity:1" fill="#575350" d="M 147.5,7.5 C 141.312,7.11268 135.312,6.11268 129.5,4.5C 128.791,3.59603 127.791,3.26269 126.5,3.5C 112.762,1.63136 99.2621,2.96469 86,7.5C 81.7663,10.4106 77.5997,13.4106 73.5,16.5C 70.1112,24.0155 67.4445,31.6822 65.5,39.5C 65.2793,31.8101 65.7793,24.1435 67,16.5C 70.8345,11.8245 75.3345,7.82454 80.5,4.5C 82.6241,3.85059 84.6241,3.01725 86.5,2C 100.431,0.386455 114.431,0.0531212 128.5,1C 133.531,1.84107 138.531,2.84107 143.5,4C 145.319,4.74026 146.652,5.90693 147.5,7.5 Z"/></g>
<g><path style="opacity:1" fill="#efe4da" d="M 138.5,8.5 C 142.167,8.5 145.833,8.5 149.5,8.5C 151.806,8.99255 154.139,9.32588 156.5,9.5C 156.5,10.1667 156.833,10.5 157.5,10.5C 159.517,14.2174 160.85,18.2174 161.5,22.5C 160.426,23.0798 159.426,22.5798 158.5,21C 156.866,20.5065 155.199,20.3398 153.5,20.5C 154.617,25.1918 154.617,29.8585 153.5,34.5C 154.946,36.6179 155.613,38.9512 155.5,41.5C 148.863,42.0694 143.529,39.7361 139.5,34.5C 141.27,33.1804 141.603,31.6804 140.5,30C 137.179,29.1872 134.179,27.6872 131.5,25.5C 125.911,27.0221 121.578,25.3555 118.5,20.5C 118.863,19.8165 119.196,19.1499 119.5,18.5C 119.631,17.6236 119.298,16.9569 118.5,16.5C 115.846,17.836 113.513,19.5026 111.5,21.5C 106.5,24.5 102.5,28.5 99.5,33.5C 98.1667,34.1667 97.1667,35.1667 96.5,36.5C 95.3473,35.6868 95.3473,34.6868 96.5,33.5C 95.3493,32.269 94.1827,32.269 93,33.5C 92.6667,31.1667 92.3333,28.8333 92,26.5C 90.6124,27.5536 89.1124,27.7203 87.5,27C 91.2038,22.6352 94.8705,18.3018 98.5,14C 101.866,11.8159 105.533,10.4825 109.5,10C 119.126,8.75591 128.792,8.25591 138.5,8.5 Z"/></g>
<g><path style="opacity:1" fill="#746e6b" d="M 126.5,3.5 C 118.811,3.61288 111.145,4.11288 103.5,5C 97.5181,8.9941 91.1848,12.4941 84.5,15.5C 80.5384,19.6338 76.7051,23.9671 73,28.5C 72.7398,30.6175 71.7398,32.2842 70,33.5C 69.023,35.74 68.523,38.0733 68.5,40.5C 68.1667,41.1667 67.8333,41.8333 67.5,42.5C 66.8333,43.1667 66.1667,43.8333 65.5,44.5C 65.5,42.8333 65.5,41.1667 65.5,39.5C 67.4445,31.6822 70.1112,24.0155 73.5,16.5C 77.5997,13.4106 81.7663,10.4106 86,7.5C 99.2621,2.96469 112.762,1.63136 126.5,3.5 Z"/></g>
<g><path style="opacity:1" fill="#dbd2c8" d="M 138.5,8.5 C 128.792,8.25591 119.126,8.75591 109.5,10C 105.533,10.4825 101.866,11.8159 98.5,14C 94.8705,18.3018 91.2038,22.6352 87.5,27C 89.1124,27.7203 90.6124,27.5536 92,26.5C 92.3333,28.8333 92.6667,31.1667 93,33.5C 94.1827,32.269 95.3493,32.269 96.5,33.5C 95.3473,34.6868 95.3473,35.6868 96.5,36.5C 95.3832,39.2791 94.2166,39.6124 93,37.5C 90.3805,40.406 88.5472,43.7393 87.5,47.5C 86.6424,44.1802 87.1424,40.8469 89,37.5C 89.6667,35.1667 89.6667,32.8333 89,30.5C 86.9824,32.3501 85.1491,34.3501 83.5,36.5C 82.7189,35.2713 82.2189,33.938 82,32.5C 80.2567,34.3211 78.7567,36.3211 77.5,38.5C 76.675,39.3857 75.675,39.719 74.5,39.5C 74.4621,37.3639 73.7954,36.0306 72.5,35.5C 80.2827,22.458 91.2827,13.458 105.5,8.5C 115.416,6.67086 125.416,6.17086 135.5,7C 136.737,7.23209 137.737,7.73209 138.5,8.5 Z"/></g>
<g><path style="opacity:1" fill="#211e1d" d="M 139.5,-0.5 C 145.5,-0.5 151.5,-0.5 157.5,-0.5C 159.533,2.01282 162.199,3.51282 165.5,4C 168.256,7.9659 171.756,11.1326 176,13.5C 177.367,16.3822 179.033,19.0489 181,21.5C 180.716,23.6792 180.883,25.6792 181.5,27.5C 181.631,28.2389 181.464,28.9056 181,29.5C 180.333,28.1667 179.667,28.1667 179,29.5C 178.517,30.448 178.351,31.448 178.5,32.5C 177.89,33.391 177.557,34.391 177.5,35.5C 176.5,36.1667 175.5,36.8333 174.5,37.5C 174.167,37.5 173.833,37.5 173.5,37.5C 173.125,35.3024 172.458,33.3024 171.5,31.5C 171.205,27.2062 169.538,23.5395 166.5,20.5C 164.212,16.5442 161.212,13.2109 157.5,10.5C 156.833,10.5 156.5,10.1667 156.5,9.5C 155.47,8.17966 154.47,6.67966 153.5,5C 149.426,1.42707 144.759,-0.406268 139.5,-0.5 Z"/></g>
<g><path style="opacity:1" fill="#2d2326" d="M 65.5,-0.5 C 69.5,-0.5 73.5,-0.5 77.5,-0.5C 74.1979,0.607612 70.8646,1.94095 67.5,3.5C 62.0418,7.12554 57.0418,11.2922 52.5,16C 51.7558,18.1551 50.7558,20.1551 49.5,22C 49.8623,23.2247 50.3623,24.3914 51,25.5C 53.3353,27.4002 55.502,29.4002 57.5,31.5C 57.9189,36.6978 55.7523,38.3645 51,36.5C 50.6237,33.9899 49.7904,31.6565 48.5,29.5C 44.9902,28.7039 40.6568,28.7039 35.5,29.5C 38.7255,27.7869 41.5588,25.4536 44,22.5C 45.9018,18.1041 48.4018,14.1041 51.5,10.5C 51.8588,8.62901 52.8588,7.12901 54.5,6C 58.5976,4.36815 62.2642,2.20148 65.5,-0.5 Z"/></g>
<g><path style="opacity:1" fill="#1e1317" d="M 51.5,10.5 C 48.4018,14.1041 45.9018,18.1041 44,22.5C 41.5588,25.4536 38.7255,27.7869 35.5,29.5C 25.3274,32.5863 15.9941,37.253 7.5,43.5C 5.42081,45.873 2.75414,47.2064 -0.5,47.5C -0.5,45.1667 -0.5,42.8333 -0.5,40.5C 3.72963,37.0251 8.3963,34.1918 13.5,32C 23.1083,30.554 31.9417,26.7207 40,20.5C 41.825,14.8408 45.6583,11.5075 51.5,10.5 Z"/></g>
<g><path style="opacity:1" fill="#827166" d="M 111.5,21.5 C 111.938,21.4346 112.272,21.6012 112.5,22C 106.22,27.4128 101.553,33.9128 98.5,41.5C 98.1667,41.5 97.8333,41.5 97.5,41.5C 96.9033,41.2648 96.5699,40.7648 96.5,40C 97.3914,37.7211 98.3914,35.5544 99.5,33.5C 102.5,28.5 106.5,24.5 111.5,21.5 Z"/></g>
<g><path style="opacity:1" fill="#14080e" d="M 255.5,29.5 C 255.5,32.8333 255.5,36.1667 255.5,39.5C 246.494,36.2619 237.161,34.7619 227.5,35C 231.123,33.8443 234.789,32.8443 238.5,32C 231.825,31.6105 225.158,31.1105 218.5,30.5C 216.833,30.8333 215.167,31.1667 213.5,31.5C 214.804,33.0157 214.304,33.6824 212,33.5C 201.084,32.1686 189.917,31.8353 178.5,32.5C 178.351,31.448 178.517,30.448 179,29.5C 179.667,28.1667 180.333,28.1667 181,29.5C 181.464,28.9056 181.631,28.2389 181.5,27.5C 183.015,26.0486 183.848,24.382 184,22.5C 186.136,26.7166 189.636,28.7166 194.5,28.5C 196.06,27.3929 197.56,27.3929 199,28.5C 200.982,28.0097 202.649,27.0097 204,25.5C 208.146,26.0917 212.146,26.0917 216,25.5C 219.708,26.8872 223.541,27.7205 227.5,28C 236.866,28.2477 246.2,28.7477 255.5,29.5 Z"/></g>
<g><path style="opacity:1" fill="#e4cec0" d="M 157.5,10.5 C 161.212,13.2109 164.212,16.5442 166.5,20.5C 166.25,21.9221 165.417,22.9221 164,23.5C 163.833,24.6667 163.667,25.8333 163.5,27C 164.677,31.194 166.01,35.3607 167.5,39.5C 166.954,41.1347 166.62,42.8014 166.5,44.5C 162.198,45.6063 157.864,46.6063 153.5,47.5C 151.651,46.407 149.984,45.0737 148.5,43.5C 147.554,43.9867 146.554,44.3201 145.5,44.5C 141.503,43.3634 137.503,42.3634 133.5,41.5C 129.753,38.1488 125.42,36.1488 120.5,35.5C 120.5,32.8333 120.5,30.1667 120.5,27.5C 117.183,27.8425 114.849,26.5092 113.5,23.5C 114.289,20.432 116.289,18.7653 119.5,18.5C 119.196,19.1499 118.863,19.8165 118.5,20.5C 121.578,25.3555 125.911,27.0221 131.5,25.5C 134.179,27.6872 137.179,29.1872 140.5,30C 141.603,31.6804 141.27,33.1804 139.5,34.5C 143.529,39.7361 148.863,42.0694 155.5,41.5C 155.613,38.9512 154.946,36.6179 153.5,34.5C 154.617,29.8585 154.617,25.1918 153.5,20.5C 155.199,20.3398 156.866,20.5065 158.5,21C 159.426,22.5798 160.426,23.0798 161.5,22.5C 160.85,18.2174 159.517,14.2174 157.5,10.5 Z"/></g>
<g><path style="opacity:1" fill="#351e29" d="M 57.5,31.5 C 58.397,32.5981 59.2303,32.5981 60,31.5C 60.9147,32.3279 61.5814,33.3279 62,34.5C 62.4828,33.552 62.6495,32.552 62.5,31.5C 63.6453,35.3112 63.8119,39.3112 63,43.5C 61.955,44.3734 61.1217,45.3734 60.5,46.5C 59.609,47.1098 58.609,47.4431 57.5,47.5C 55.0576,47.6463 54.3909,46.813 55.5,45C 52.5395,44.2737 50.5395,42.4404 49.5,39.5C 41.9116,37.7675 34.2449,37.2675 26.5,38C 20.222,40.3164 13.8887,42.1498 7.5,43.5C 15.9941,37.253 25.3274,32.5863 35.5,29.5C 40.6568,28.7039 44.9902,28.7039 48.5,29.5C 49.7904,31.6565 50.6237,33.9899 51,36.5C 55.7523,38.3645 57.9189,36.6978 57.5,31.5 Z"/></g>
<g><path style="opacity:1" fill="#1e0a14" d="M 255.5,39.5 C 255.5,43.5 255.5,47.5 255.5,51.5C 254.167,51.5 252.833,51.5 251.5,51.5C 251.248,46.1654 248.248,42.4987 242.5,40.5C 238.812,39.941 235.146,39.2743 231.5,38.5C 227.914,38.5423 224.414,38.8756 221,39.5C 206.836,35.0265 192.336,33.6932 177.5,35.5C 177.557,34.391 177.89,33.391 178.5,32.5C 189.917,31.8353 201.084,32.1686 212,33.5C 214.304,33.6824 214.804,33.0157 213.5,31.5C 215.167,31.1667 216.833,30.8333 218.5,30.5C 225.158,31.1105 231.825,31.6105 238.5,32C 234.789,32.8443 231.123,33.8443 227.5,35C 237.161,34.7619 246.494,36.2619 255.5,39.5 Z"/></g>
<g><path style="opacity:1" fill="#c4afa2" d="M 119.5,18.5 C 116.289,18.7653 114.289,20.432 113.5,23.5C 114.849,26.5092 117.183,27.8425 120.5,27.5C 120.5,30.1667 120.5,32.8333 120.5,35.5C 116.746,35.5036 113.079,35.337 109.5,35C 107.008,38.1935 105.342,41.6935 104.5,45.5C 102.787,44.3646 102.12,42.698 102.5,40.5C 101.041,40.4326 99.7079,40.7659 98.5,41.5C 101.553,33.9128 106.22,27.4128 112.5,22C 112.272,21.6012 111.938,21.4346 111.5,21.5C 113.513,19.5026 115.846,17.836 118.5,16.5C 119.298,16.9569 119.631,17.6236 119.5,18.5 Z"/></g>
<g><path style="opacity:1" fill="#aa9486" d="M 120.5,35.5 C 125.42,36.1488 129.753,38.1488 133.5,41.5C 132.5,41.5 131.5,41.5 130.5,41.5C 130.38,40.4138 129.713,39.7472 128.5,39.5C 125.465,38.9392 122.465,38.2725 119.5,37.5C 116.468,40.5106 112.801,42.1773 108.5,42.5C 108.023,43.4776 107.357,44.3109 106.5,45C 108.342,47.0738 110.342,48.9071 112.5,50.5C 111.5,50.5 110.5,50.5 109.5,50.5C 107.089,49.483 105.422,47.8163 104.5,45.5C 105.342,41.6935 107.008,38.1935 109.5,35C 113.079,35.337 116.746,35.5036 120.5,35.5 Z"/></g>
<g><path style="opacity:1" fill="#361124" d="M 237.5,53.5 C 228.985,55.5847 220.319,56.418 211.5,56C 203.46,50.7539 195.126,46.2539 186.5,42.5C 190.463,41.1919 194.463,39.8586 198.5,38.5C 200.638,38.6381 202.805,38.6381 205,38.5C 212.581,41.3478 220.414,43.1811 228.5,44C 233.022,45.6898 236.022,48.8565 237.5,53.5 Z"/></g>
<g><path style="opacity:1" fill="#2d0f1f" d="M 255.5,51.5 C 255.5,52.1667 255.5,52.8333 255.5,53.5C 249.5,53.5 243.5,53.5 237.5,53.5C 236.022,48.8565 233.022,45.6898 228.5,44C 220.414,43.1811 212.581,41.3478 205,38.5C 202.805,38.6381 200.638,38.6381 198.5,38.5C 194.463,39.8586 190.463,41.1919 186.5,42.5C 185.735,42.0766 184.902,41.7432 184,41.5C 181.755,43.3937 179.255,44.727 176.5,45.5C 175.833,45.5 175.167,45.5 174.5,45.5C 174.5,42.8333 174.5,40.1667 174.5,37.5C 175.5,36.8333 176.5,36.1667 177.5,35.5C 192.336,33.6932 206.836,35.0265 221,39.5C 224.414,38.8756 227.914,38.5423 231.5,38.5C 235.146,39.2743 238.812,39.941 242.5,40.5C 248.248,42.4987 251.248,46.1654 251.5,51.5C 252.833,51.5 254.167,51.5 255.5,51.5 Z"/></g>
<g><path style="opacity:1" fill="#3f1d2e" d="M 57.5,47.5 C 56.4324,48.4345 55.099,48.7678 53.5,48.5C 48.4999,48.4632 43.9999,47.1299 40,44.5C 32.0307,44.5358 23.8641,45.0358 15.5,46C 9.69601,47.064 5.02934,49.8973 1.5,54.5C 2.63943,56.3957 1.97276,57.3957 -0.5,57.5C -0.5,54.1667 -0.5,50.8333 -0.5,47.5C 2.75414,47.2064 5.42081,45.873 7.5,43.5C 13.8887,42.1498 20.222,40.3164 26.5,38C 34.2449,37.2675 41.9116,37.7675 49.5,39.5C 50.5395,42.4404 52.5395,44.2737 55.5,45C 54.3909,46.813 55.0576,47.6463 57.5,47.5 Z"/></g>
<g><path style="opacity:1" fill="#c4b6a6" d="M 87.5,47.5 C 85.2112,52.9775 83.3778,58.6441 82,64.5C 81.491,58.3633 82.6577,52.5299 85.5,47C 85.4519,45.967 85.1186,45.6337 84.5,46C 83.37,48.4281 81.87,50.5947 80,52.5C 79.5065,50.8659 79.3398,49.1992 79.5,47.5C 76.5131,47.0022 73.5131,46.5022 70.5,46C 69.2899,44.9609 68.2899,43.7942 67.5,42.5C 67.8333,41.8333 68.1667,41.1667 68.5,40.5C 69.593,38.6508 70.9263,36.9842 72.5,35.5C 73.7954,36.0306 74.4621,37.3639 74.5,39.5C 75.675,39.719 76.675,39.3857 77.5,38.5C 78.7567,36.3211 80.2567,34.3211 82,32.5C 82.2189,33.938 82.7189,35.2713 83.5,36.5C 85.1491,34.3501 86.9824,32.3501 89,30.5C 89.6667,32.8333 89.6667,35.1667 89,37.5C 87.1424,40.8469 86.6424,44.1802 87.5,47.5 Z"/></g>
<g><path style="opacity:1" fill="#66544a" d="M 130.5,41.5 C 128.69,40.0449 127.023,40.2116 125.5,42C 131.78,43.1286 136.113,46.6286 138.5,52.5C 137.388,53.2652 136.721,54.2652 136.5,55.5C 136.5,55.8333 136.5,56.1667 136.5,56.5C 135.833,57.1667 135.167,57.8333 134.5,58.5C 129.386,58.6505 128.719,57.6505 132.5,55.5C 132.833,55.5 133.167,55.5 133.5,55.5C 137.583,52.4068 137.25,49.5734 132.5,47C 128.928,45.5951 125.261,45.2617 121.5,46C 120.944,46.3826 120.611,46.8826 120.5,47.5C 119.833,47.8333 119.167,48.1667 118.5,48.5C 117.978,50.2191 116.978,51.5525 115.5,52.5C 114.5,51.8333 113.5,51.1667 112.5,50.5C 110.342,48.9071 108.342,47.0738 106.5,45C 107.357,44.3109 108.023,43.4776 108.5,42.5C 112.801,42.1773 116.468,40.5106 119.5,37.5C 122.465,38.2725 125.465,38.9392 128.5,39.5C 129.713,39.7472 130.38,40.4138 130.5,41.5 Z"/></g>
<g><path style="opacity:1" fill="#491f35" d="M 53.5,48.5 C 50.8402,50.4967 47.8402,51.9967 44.5,53C 39.4702,53.4477 34.4702,54.1144 29.5,55C 28.5842,55.2784 27.9175,55.7784 27.5,56.5C 18.2631,58.3726 8.92979,59.3726 -0.5,59.5C -0.5,58.8333 -0.5,58.1667 -0.5,57.5C 1.97276,57.3957 2.63943,56.3957 1.5,54.5C 5.02934,49.8973 9.69601,47.064 15.5,46C 23.8641,45.0358 32.0307,44.5358 40,44.5C 43.9999,47.1299 48.4999,48.4632 53.5,48.5 Z"/></g>
<g><path style="opacity:1" fill="#493f3a" d="M 130.5,41.5 C 131.5,41.5 132.5,41.5 133.5,41.5C 135.121,43.1172 137.121,44.2838 139.5,45C 141.141,46.129 142.141,47.629 142.5,49.5C 146.317,51.3081 146.317,53.1414 142.5,55C 140.527,55.4955 138.527,55.6621 136.5,55.5C 136.721,54.2652 137.388,53.2652 138.5,52.5C 136.113,46.6286 131.78,43.1286 125.5,42C 127.023,40.2116 128.69,40.0449 130.5,41.5 Z"/></g>
<g><path style="opacity:1" fill="#71234a" d="M 174.5,45.5 C 175.167,45.5 175.833,45.5 176.5,45.5C 182.551,45.4492 188.218,46.7826 193.5,49.5C 194.768,48.5721 196.101,48.4054 197.5,49C 200.99,51.9113 204.656,54.578 208.5,57C 224.252,58.028 239.918,57.528 255.5,55.5C 255.5,61.1667 255.5,66.8333 255.5,72.5C 253.17,69.4388 250.003,67.7721 246,67.5C 238.851,68.6149 231.851,70.2816 225,72.5C 221.161,72.1596 218.661,70.1596 217.5,66.5C 215.659,65.7696 213.825,65.1029 212,64.5C 206.181,65.5712 200.348,66.7379 194.5,68C 191.191,69.6392 188.358,71.8059 186,74.5C 184.324,71.84 182.657,71.84 181,74.5C 179.16,71.9957 176.66,70.6623 173.5,70.5C 173.174,61.9832 173.507,53.6499 174.5,45.5 Z"/></g>
<g><path style="opacity:1" fill="#ecebea" d="M 120.5,47.5 C 122.857,47.3367 125.19,47.5034 127.5,48C 129.217,49.5588 131.217,50.3921 133.5,50.5C 133.5,52.1667 133.5,53.8333 133.5,55.5C 133.167,55.5 132.833,55.5 132.5,55.5C 128.178,54.0074 123.844,52.5074 119.5,51C 118.748,50.3292 118.414,49.4959 118.5,48.5C 119.167,48.1667 119.833,47.8333 120.5,47.5 Z"/></g>
<g><path style="opacity:1" fill="#c1a899" d="M 166.5,20.5 C 169.538,23.5395 171.205,27.2062 171.5,31.5C 170.69,33.7983 169.856,36.1316 169,38.5C 168.667,43.5 168.333,48.5 168,53.5C 167.703,50.136 165.869,48.8026 162.5,49.5C 159.167,50.5 155.833,51.5 152.5,52.5C 149.439,50.5683 146.105,49.5683 142.5,49.5C 142.141,47.629 141.141,46.129 139.5,45C 137.121,44.2838 135.121,43.1172 133.5,41.5C 137.503,42.3634 141.503,43.3634 145.5,44.5C 146.554,44.3201 147.554,43.9867 148.5,43.5C 149.984,45.0737 151.651,46.407 153.5,47.5C 157.864,46.6063 162.198,45.6063 166.5,44.5C 166.62,42.8014 166.954,41.1347 167.5,39.5C 166.01,35.3607 164.677,31.194 163.5,27C 163.667,25.8333 163.833,24.6667 164,23.5C 165.417,22.9221 166.25,21.9221 166.5,20.5 Z"/></g>
<g><path style="opacity:1" fill="#88807c" d="M 133.5,55.5 C 133.5,53.8333 133.5,52.1667 133.5,50.5C 131.217,50.3921 129.217,49.5588 127.5,48C 125.19,47.5034 122.857,47.3367 120.5,47.5C 120.611,46.8826 120.944,46.3826 121.5,46C 125.261,45.2617 128.928,45.5951 132.5,47C 137.25,49.5734 137.583,52.4068 133.5,55.5 Z"/></g>
<g><path style="opacity:1" fill="#967c6f" d="M 118.5,48.5 C 118.414,49.4959 118.748,50.3292 119.5,51C 123.844,52.5074 128.178,54.0074 132.5,55.5C 128.719,57.6505 129.386,58.6505 134.5,58.5C 132.698,59.4582 130.698,60.1249 128.5,60.5C 127.5,60.5 126.5,60.5 125.5,60.5C 125.649,61.552 125.483,62.552 125,63.5C 123.951,61.3825 122.451,59.7158 120.5,58.5C 119.55,55.8851 117.883,53.8851 115.5,52.5C 116.978,51.5525 117.978,50.2191 118.5,48.5 Z"/></g>
<g><path style="opacity:1" fill="#8b3b63" d="M 63.5,45.5 C 62.9099,49.6033 61.9099,53.6033 60.5,57.5C 59.7784,57.9175 59.2784,58.5842 59,59.5C 58.502,62.4816 58.3354,65.4816 58.5,68.5C 57.0271,72.2508 55.3604,75.9175 53.5,79.5C 52.5,79.5 51.5,79.5 50.5,79.5C 42.6758,78.9901 35.6758,80.9901 29.5,85.5C 29.1788,83.9519 28.1788,83.2852 26.5,83.5C 26.33,82.1779 26.6634,81.0113 27.5,80C 23.3505,78.2632 19.0172,77.2632 14.5,77C 13.0692,76.5348 11.9025,75.7014 11,74.5C 10.6667,74.8333 10.3333,75.1667 10,75.5C 9.66667,74.5 9.33333,73.5 9,72.5C 8.58138,73.6721 7.91471,74.6721 7,75.5C 6.38277,74.5509 6.54943,73.7175 7.5,73C 5.5,71.3333 3.5,69.6667 1.5,68C 2.37573,66.4152 3.70906,65.4152 5.5,65C 5.16667,64.6667 4.83333,64.3333 4.5,64C 12.3854,61.8033 20.052,59.3033 27.5,56.5C 27.9175,55.7784 28.5842,55.2784 29.5,55C 34.4702,54.1144 39.4702,53.4477 44.5,53C 47.8402,51.9967 50.8402,50.4967 53.5,48.5C 55.099,48.7678 56.4324,48.4345 57.5,47.5C 58.609,47.4431 59.609,47.1098 60.5,46.5C 61.609,46.4431 62.609,46.1098 63.5,45.5 Z"/></g>
<g><path style="opacity:1" fill="#5b1e3d" d="M 186.5,42.5 C 195.126,46.2539 203.46,50.7539 211.5,56C 220.319,56.418 228.985,55.5847 237.5,53.5C 243.5,53.5 249.5,53.5 255.5,53.5C 255.5,54.1667 255.5,54.8333 255.5,55.5C 239.918,57.528 224.252,58.028 208.5,57C 204.656,54.578 200.99,51.9113 197.5,49C 196.101,48.4054 194.768,48.5721 193.5,49.5C 188.218,46.7826 182.551,45.4492 176.5,45.5C 179.255,44.727 181.755,43.3937 184,41.5C 184.902,41.7432 185.735,42.0766 186.5,42.5 Z"/></g>
<g><path style="opacity:1" fill="#e8d2c7" d="M 104.5,45.5 C 105.422,47.8163 107.089,49.483 109.5,50.5C 112.686,52.5475 114.019,55.5475 113.5,59.5C 110.187,58.9552 106.854,58.4552 103.5,58C 99.9429,53.1558 98.2762,47.6558 98.5,41.5C 99.7079,40.7659 101.041,40.4326 102.5,40.5C 102.12,42.698 102.787,44.3646 104.5,45.5 Z"/></g>
<g><path style="opacity:1" fill="#a99785" d="M 99.5,33.5 C 98.3914,35.5544 97.3914,37.7211 96.5,40C 96.5699,40.7648 96.9033,41.2648 97.5,41.5C 96.1721,45.1486 94.8388,48.8153 93.5,52.5C 94.7592,56.6713 97.0925,60.0047 100.5,62.5C 102.367,63.7598 103.7,65.4265 104.5,67.5C 103.395,66.3995 102.062,65.7329 100.5,65.5C 96.516,65.2154 93.516,63.2154 91.5,59.5C 90.0815,60.0047 89.4148,61.0047 89.5,62.5C 86.7103,70.017 84.3769,77.6837 82.5,85.5C 81.71,86.6085 81.21,87.9419 81,89.5C 81.005,81.8429 79.6717,74.5096 77,67.5C 76.5814,68.6721 75.9147,69.6721 75,70.5C 74.2539,65.9578 74.4206,61.4578 75.5,57C 73.234,55.4774 72.0673,53.3108 72,50.5C 68.0268,50.3576 65.8601,48.3576 65.5,44.5C 66.1667,43.8333 66.8333,43.1667 67.5,42.5C 68.2899,43.7942 69.2899,44.9609 70.5,46C 73.5131,46.5022 76.5131,47.0022 79.5,47.5C 79.3398,49.1992 79.5065,50.8659 80,52.5C 81.87,50.5947 83.37,48.4281 84.5,46C 85.1186,45.6337 85.4519,45.967 85.5,47C 82.6577,52.5299 81.491,58.3633 82,64.5C 83.3778,58.6441 85.2112,52.9775 87.5,47.5C 88.5472,43.7393 90.3805,40.406 93,37.5C 94.2166,39.6124 95.3832,39.2791 96.5,36.5C 97.1667,35.1667 98.1667,34.1667 99.5,33.5 Z"/></g>
<g><path style="opacity:1" fill="#816655" d="M 173.5,37.5 C 173.833,37.5 174.167,37.5 174.5,37.5C 174.5,40.1667 174.5,42.8333 174.5,45.5C 173.507,53.6499 173.174,61.9832 173.5,70.5C 172.956,74.6803 172.29,78.847 171.5,83C 172.056,84.0111 172.722,84.8444 173.5,85.5C 172.596,86.209 172.263,87.209 172.5,88.5C 171.685,87.5707 170.852,86.5707 170,85.5C 169.767,81.4155 169.267,77.4155 168.5,73.5C 169.395,68.8837 170.395,64.2171 171.5,59.5C 167.411,59.1119 163.744,58.1119 160.5,56.5C 164.078,57.5887 167.745,57.7554 171.5,57C 171,56.5 170.5,56 170,55.5C 169.333,51.5 169.333,47.5 170,43.5C 171.309,41.1088 172.309,41.1088 173,43.5C 173.495,41.5273 173.662,39.5273 173.5,37.5 Z"/></g>
<g><path style="opacity:1" fill="#d7bcad" d="M 97.5,41.5 C 97.8333,41.5 98.1667,41.5 98.5,41.5C 98.2762,47.6558 99.9429,53.1558 103.5,58C 106.854,58.4552 110.187,58.9552 113.5,59.5C 114.019,55.5475 112.686,52.5475 109.5,50.5C 110.5,50.5 111.5,50.5 112.5,50.5C 113.5,51.1667 114.5,51.8333 115.5,52.5C 117.883,53.8851 119.55,55.8851 120.5,58.5C 122.123,61.2153 122.79,64.2153 122.5,67.5C 117.501,68.0845 112.501,68.2511 107.5,68C 106.149,64.805 103.815,62.9717 100.5,62.5C 97.0925,60.0047 94.7592,56.6713 93.5,52.5C 94.8388,48.8153 96.1721,45.1486 97.5,41.5 Z"/></g>
<g><path style="opacity:1" fill="#f0eeed" d="M 155.5,62.5 C 157.167,62.5 158.833,62.5 160.5,62.5C 162.081,64.1417 162.747,66.1417 162.5,68.5C 160.708,68.634 159.042,68.3007 157.5,67.5C 154.677,66.6149 154.01,64.9483 155.5,62.5 Z"/></g>
<g><path style="opacity:1" fill="#813157" d="M 27.5,56.5 C 20.052,59.3033 12.3854,61.8033 4.5,64C 4.83333,64.3333 5.16667,64.6667 5.5,65C 3.70906,65.4152 2.37573,66.4152 1.5,68C 3.5,69.6667 5.5,71.3333 7.5,73C 6.54943,73.7175 6.38277,74.5509 7,75.5C 7.91471,74.6721 8.58138,73.6721 9,72.5C 9.33333,73.5 9.66667,74.5 10,75.5C 10.3333,75.1667 10.6667,74.8333 11,74.5C 11.9025,75.7014 13.0692,76.5348 14.5,77C 19.0172,77.2632 23.3505,78.2632 27.5,80C 26.6634,81.0113 26.33,82.1779 26.5,83.5C 28.1788,83.2852 29.1788,83.9519 29.5,85.5C 28.278,87.2857 27.6113,89.2857 27.5,91.5C 28.1616,94.4682 28.495,97.4682 28.5,100.5C 27.6909,102.292 27.1909,104.292 27,106.5C 22.2174,92.8827 13.0507,88.5494 -0.5,93.5C -0.5,82.1667 -0.5,70.8333 -0.5,59.5C 8.92979,59.3726 18.2631,58.3726 27.5,56.5 Z"/></g>
<g><path style="opacity:1" fill="#5f4c42" d="M 160.5,56.5 C 163.744,58.1119 167.411,59.1119 171.5,59.5C 170.395,64.2171 169.395,68.8837 168.5,73.5C 167.662,73.1583 167.328,72.4916 167.5,71.5C 167.672,70.5084 167.338,69.8417 166.5,69.5C 166.045,65.9184 164.045,63.5851 160.5,62.5C 158.833,62.5 157.167,62.5 155.5,62.5C 154.022,61.5525 153.022,60.2191 152.5,58.5C 152.5,57.8333 152.5,57.1667 152.5,56.5C 155.382,56.0139 158.048,56.0139 160.5,56.5 Z"/></g>
<g><path style="opacity:1" fill="#9a8176" d="M 160.5,62.5 C 164.045,63.5851 166.045,65.9184 166.5,69.5C 164.034,70.6341 161.367,70.8007 158.5,70C 157.748,69.3292 157.414,68.4959 157.5,67.5C 159.042,68.3007 160.708,68.634 162.5,68.5C 162.747,66.1417 162.081,64.1417 160.5,62.5 Z"/></g>
<g><path style="opacity:1" fill="#ab9082" d="M 69.5,76.5 C 69.1788,78.0481 68.1788,78.7148 66.5,78.5C 65.2719,77.6935 64.2719,76.6935 63.5,75.5C 61.5756,73.305 59.9089,70.9717 58.5,68.5C 58.3354,65.4816 58.502,62.4816 59,59.5C 59.2784,58.5842 59.7784,57.9175 60.5,57.5C 62.8201,55.7739 65.4867,55.1072 68.5,55.5C 66.7755,57.9138 65.4422,60.5804 64.5,63.5C 66.7224,63.178 68.5557,63.8446 70,65.5C 70.6781,69.2211 70.5114,72.8878 69.5,76.5 Z"/></g>
<g><path style="opacity:1" fill="#816151" d="M 152.5,58.5 C 153.022,60.2191 154.022,61.5525 155.5,62.5C 154.01,64.9483 154.677,66.6149 157.5,67.5C 157.414,68.4959 157.748,69.3292 158.5,70C 161.367,70.8007 164.034,70.6341 166.5,69.5C 167.338,69.8417 167.672,70.5084 167.5,71.5C 165.694,72.0241 164.028,72.6908 162.5,73.5C 160.585,73.2155 158.919,73.5489 157.5,74.5C 155.833,74.5 154.167,74.5 152.5,74.5C 152.5,69.1667 152.5,63.8333 152.5,58.5 Z"/></g>
<g><path style="opacity:1" fill="#877464" d="M 65.5,44.5 C 65.8601,48.3576 68.0268,50.3576 72,50.5C 72.0673,53.3108 73.234,55.4774 75.5,57C 74.4206,61.4578 74.2539,65.9578 75,70.5C 75.9147,69.6721 76.5814,68.6721 77,67.5C 79.6717,74.5096 81.005,81.8429 81,89.5C 81.21,87.9419 81.71,86.6085 82.5,85.5C 83.1045,90.1943 82.2711,94.5276 80,98.5C 79.7498,89.1783 78.7498,81.1783 77,74.5C 75.9082,77.9858 74.0749,78.3191 71.5,75.5C 70.8165,75.8627 70.1499,76.1961 69.5,76.5C 70.5114,72.8878 70.6781,69.2211 70,65.5C 68.5557,63.8446 66.7224,63.178 64.5,63.5C 65.4422,60.5804 66.7755,57.9138 68.5,55.5C 65.4867,55.1072 62.8201,55.7739 60.5,57.5C 61.9099,53.6033 62.9099,49.6033 63.5,45.5C 64.1667,45.1667 64.8333,44.8333 65.5,44.5 Z"/></g>
<g><path style="opacity:1" fill="#cdae9c" d="M 136.5,56.5 C 137.5,56.5 138.5,56.5 139.5,56.5C 137.38,63.2588 134.046,69.2588 129.5,74.5C 132.953,80.2281 131.287,82.7281 124.5,82C 123.106,81.044 122.439,79.7106 122.5,78C 125.188,72.3747 127.188,66.5414 128.5,60.5C 130.698,60.1249 132.698,59.4582 134.5,58.5C 135.167,57.8333 135.833,57.1667 136.5,56.5 Z"/></g>
<g><path style="opacity:1" fill="#501131" d="M 255.5,76.5 C 255.5,81.5 255.5,86.5 255.5,91.5C 252.167,92.8333 249.833,95.1667 248.5,98.5C 247.167,99.5 245.833,100.5 244.5,101.5C 244.436,97.7802 243.936,94.1135 243,90.5C 242.333,89.1667 241.333,88.1667 240,87.5C 239.505,84.4686 239.671,81.4686 240.5,78.5C 236.928,78.9376 233.428,79.6042 230,80.5C 225.518,77.725 221.351,78.225 217.5,82C 207.774,82.1084 198.107,82.7751 188.5,84C 187.517,86.984 185.517,88.8174 182.5,89.5C 185.098,83.1042 189.932,79.7708 197,79.5C 198.398,80.0509 199.732,80.3842 201,80.5C 204.192,78.6257 207.359,76.7924 210.5,75C 216.83,75.066 223.163,75.066 229.5,75C 236.161,71.7684 243.161,70.7684 250.5,72C 252.037,73.7073 253.704,75.2073 255.5,76.5 Z"/></g>
<g><path style="opacity:1" fill="#866454" d="M 100.5,65.5 C 106.79,72.923 109.29,81.5897 108,91.5C 111.339,94.7908 115.172,95.4574 119.5,93.5C 120.833,93.5 122.167,93.5 123.5,93.5C 121.369,94.3138 119.036,94.8138 116.5,95C 115.48,96.5557 114.147,97.7224 112.5,98.5C 109.269,97.2728 106.269,95.6061 103.5,93.5C 102.915,95.8997 101.748,97.8997 100,99.5C 98.7387,99.2409 97.7387,98.5742 97,97.5C 95.1861,93.5469 93.6861,89.5469 92.5,85.5C 95.1667,85.5 97.8333,85.5 100.5,85.5C 101.129,80.1405 101.629,74.8072 102,69.5C 99.8587,66.6792 97.0254,65.3459 93.5,65.5C 92.8333,65.5 92.1667,65.5 91.5,65.5C 91.0679,64.2905 90.4013,63.2905 89.5,62.5C 89.4148,61.0047 90.0815,60.0047 91.5,59.5C 93.516,63.2154 96.516,65.2154 100.5,65.5 Z"/></g>
<g><path style="opacity:1" fill="#9a7665" d="M 100.5,65.5 C 102.062,65.7329 103.395,66.3995 104.5,67.5C 108.175,71.5074 111.841,75.5074 115.5,79.5C 114.538,82.2454 112.705,84.2454 110,85.5C 109.333,87.1667 109.333,88.8333 110,90.5C 113.134,91.9089 116.301,92.9089 119.5,93.5C 115.172,95.4574 111.339,94.7908 108,91.5C 109.29,81.5897 106.79,72.923 100.5,65.5 Z"/></g>
<g><path style="opacity:1" fill="#d5b4a0" d="M 152.5,56.5 C 152.5,57.1667 152.5,57.8333 152.5,58.5C 152.5,63.8333 152.5,69.1667 152.5,74.5C 154.167,74.5 155.833,74.5 157.5,74.5C 159.527,74.3379 161.527,74.5045 163.5,75C 160.376,78.7396 157.876,82.9063 156,87.5C 154.628,86.0899 153.795,84.4233 153.5,82.5C 153.5,81.5 153.5,80.5 153.5,79.5C 149.375,76.9271 145.041,74.4271 140.5,72C 146.286,71.4811 148.62,68.3145 147.5,62.5C 146.5,62.5 145.5,62.5 144.5,62.5C 144.694,59.6703 145.361,57.0037 146.5,54.5C 148.703,54.6036 150.703,55.2702 152.5,56.5 Z"/></g>
<g><path style="opacity:1" fill="#621a3d" d="M 255.5,72.5 C 255.5,73.8333 255.5,75.1667 255.5,76.5C 253.704,75.2073 252.037,73.7073 250.5,72C 243.161,70.7684 236.161,71.7684 229.5,75C 223.163,75.066 216.83,75.066 210.5,75C 207.359,76.7924 204.192,78.6257 201,80.5C 199.732,80.3842 198.398,80.0509 197,79.5C 189.932,79.7708 185.098,83.1042 182.5,89.5C 180.302,87.9019 177.969,86.5686 175.5,85.5C 174.833,85.5 174.167,85.5 173.5,85.5C 172.722,84.8444 172.056,84.0111 171.5,83C 172.29,78.847 172.956,74.6803 173.5,70.5C 176.66,70.6623 179.16,71.9957 181,74.5C 182.657,71.84 184.324,71.84 186,74.5C 188.358,71.8059 191.191,69.6392 194.5,68C 200.348,66.7379 206.181,65.5712 212,64.5C 213.825,65.1029 215.659,65.7696 217.5,66.5C 218.661,70.1596 221.161,72.1596 225,72.5C 231.851,70.2816 238.851,68.6149 246,67.5C 250.003,67.7721 253.17,69.4388 255.5,72.5 Z"/></g>
<g><path style="opacity:1" fill="#b79482" d="M 171.5,31.5 C 172.458,33.3024 173.125,35.3024 173.5,37.5C 173.662,39.5273 173.495,41.5273 173,43.5C 172.309,41.1088 171.309,41.1088 170,43.5C 169.333,47.5 169.333,51.5 170,55.5C 170.5,56 171,56.5 171.5,57C 167.745,57.7554 164.078,57.5887 160.5,56.5C 158.048,56.0139 155.382,56.0139 152.5,56.5C 150.703,55.2702 148.703,54.6036 146.5,54.5C 145.361,57.0037 144.694,59.6703 144.5,62.5C 145.5,62.5 146.5,62.5 147.5,62.5C 148.62,68.3145 146.286,71.4811 140.5,72C 145.041,74.4271 149.375,76.9271 153.5,79.5C 148.139,77.7112 142.806,75.7112 137.5,73.5C 131.822,75.7053 131.155,78.872 135.5,83C 139.197,85.3922 143.197,87.0589 147.5,88C 148.781,89.4087 149.781,90.9087 150.5,92.5C 150.672,93.4916 150.338,94.1583 149.5,94.5C 148.833,94.5 148.167,94.5 147.5,94.5C 140.367,91.0395 133.034,90.7061 125.5,93.5C 124.833,93.5 124.167,93.5 123.5,93.5C 122.167,93.5 120.833,93.5 119.5,93.5C 116.301,92.9089 113.134,91.9089 110,90.5C 109.333,88.8333 109.333,87.1667 110,85.5C 112.705,84.2454 114.538,82.2454 115.5,79.5C 111.841,75.5074 108.175,71.5074 104.5,67.5C 103.7,65.4265 102.367,63.7598 100.5,62.5C 103.815,62.9717 106.149,64.805 107.5,68C 112.501,68.2511 117.501,68.0845 122.5,67.5C 122.79,64.2153 122.123,61.2153 120.5,58.5C 122.451,59.7158 123.951,61.3825 125,63.5C 125.483,62.552 125.649,61.552 125.5,60.5C 126.5,60.5 127.5,60.5 128.5,60.5C 127.188,66.5414 125.188,72.3747 122.5,78C 122.439,79.7106 123.106,81.044 124.5,82C 131.287,82.7281 132.953,80.2281 129.5,74.5C 134.046,69.2588 137.38,63.2588 139.5,56.5C 138.5,56.5 137.5,56.5 136.5,56.5C 136.5,56.1667 136.5,55.8333 136.5,55.5C 138.527,55.6621 140.527,55.4955 142.5,55C 146.317,53.1414 146.317,51.3081 142.5,49.5C 146.105,49.5683 149.439,50.5683 152.5,52.5C 155.833,51.5 159.167,50.5 162.5,49.5C 165.869,48.8026 167.703,50.136 168,53.5C 168.333,48.5 168.667,43.5 169,38.5C 169.856,36.1316 170.69,33.7983 171.5,31.5 Z"/></g>
<g><path style="opacity:1" fill="#786554" d="M 58.5,68.5 C 59.9089,70.9717 61.5756,73.305 63.5,75.5C 63.2776,79.335 61.7776,83.0017 59,86.5C 54.8474,104.689 52.6807,104.689 52.5,86.5C 52.9926,84.1944 53.3259,81.861 53.5,79.5C 55.3604,75.9175 57.0271,72.2508 58.5,68.5 Z"/></g>
<g><path style="opacity:1" fill="#3e3834" d="M 50.5,79.5 C 51.5,79.5 52.5,79.5 53.5,79.5C 53.3259,81.861 52.9926,84.1944 52.5,86.5C 51.4224,91.9858 50.589,97.6524 50,103.5C 49.5068,106.675 48.3402,109.341 46.5,111.5C 41.5732,107.659 37.5732,102.992 34.5,97.5C 33.0392,93.5937 33.5392,89.9271 36,86.5C 40.9047,83.9885 45.738,81.6551 50.5,79.5 Z"/></g>
<g><path style="opacity:1" fill="#6e4a37" d="M 153.5,79.5 C 153.5,80.5 153.5,81.5 153.5,82.5C 152.596,83.209 152.263,84.209 152.5,85.5C 153.01,88.3878 152.344,90.7211 150.5,92.5C 149.781,90.9087 148.781,89.4087 147.5,88C 143.197,87.0589 139.197,85.3922 135.5,83C 131.155,78.872 131.822,75.7053 137.5,73.5C 142.806,75.7112 148.139,77.7112 153.5,79.5 Z"/></g>
<g><path style="opacity:1" fill="#4a3023" d="M 136.5,76.5 C 138.527,76.3379 140.527,76.5045 142.5,77C 143.337,78.0113 143.67,79.1779 143.5,80.5C 140.859,81.2631 138.192,81.4298 135.5,81C 134.419,79.2894 134.752,77.7894 136.5,76.5 Z"/></g>
<g><path style="opacity:1" fill="#b8957f" d="M 157.5,74.5 C 158.919,73.5489 160.585,73.2155 162.5,73.5C 164.027,73.427 165.027,74.0937 165.5,75.5C 165.665,78.8499 165.498,82.1832 165,85.5C 162.5,86.6667 160.667,88.5 159.5,91C 157.564,91.813 155.564,92.313 153.5,92.5C 153.802,89.9407 153.468,87.6074 152.5,85.5C 152.263,84.209 152.596,83.209 153.5,82.5C 153.795,84.4233 154.628,86.0899 156,87.5C 157.876,82.9063 160.376,78.7396 163.5,75C 161.527,74.5045 159.527,74.3379 157.5,74.5 Z"/></g>
<g><path style="opacity:1" fill="#cab388" d="M 173.5,85.5 C 174.167,85.5 174.833,85.5 175.5,85.5C 176.562,87.0992 176.562,88.7659 175.5,90.5C 174.391,90.4431 173.391,90.1098 172.5,89.5C 172.5,89.1667 172.5,88.8333 172.5,88.5C 172.263,87.209 172.596,86.209 173.5,85.5 Z"/></g>
<g><path style="opacity:1" fill="#b38157" d="M 50.5,79.5 C 45.738,81.6551 40.9047,83.9885 36,86.5C 33.5392,89.9271 33.0392,93.5937 34.5,97.5C 33.0267,98.0715 31.36,98.0715 29.5,97.5C 29.5,98.8333 29.5,100.167 29.5,101.5C 29.1667,101.5 28.8333,101.5 28.5,101.5C 28.5,101.167 28.5,100.833 28.5,100.5C 28.495,97.4682 28.1616,94.4682 27.5,91.5C 27.6113,89.2857 28.278,87.2857 29.5,85.5C 35.6758,80.9901 42.6758,78.9901 50.5,79.5 Z"/></g>
<g><path style="opacity:1" fill="#450c2a" d="M 244.5,101.5 C 242.806,103.861 240.806,105.861 238.5,107.5C 235.167,109.833 231.833,112.167 228.5,114.5C 227.351,111.903 227.684,109.403 229.5,107C 228.351,105.27 228.351,103.604 229.5,102C 225.737,100.371 221.904,98.8706 218,97.5C 209.804,101.928 201.804,106.595 194,111.5C 190.825,109.839 187.658,109.006 184.5,109C 185.8,107.421 185.466,106.255 183.5,105.5C 183.5,104.833 183.5,104.167 183.5,103.5C 183.397,100.781 183.731,98.1147 184.5,95.5C 183.822,93.484 183.156,91.484 182.5,89.5C 185.517,88.8174 187.517,86.984 188.5,84C 198.107,82.7751 207.774,82.1084 217.5,82C 221.351,78.225 225.518,77.725 230,80.5C 233.428,79.6042 236.928,78.9376 240.5,78.5C 239.671,81.4686 239.505,84.4686 240,87.5C 241.333,88.1667 242.333,89.1667 243,90.5C 243.936,94.1135 244.436,97.7802 244.5,101.5 Z"/></g>
<g><path style="opacity:1" fill="#846352" d="M 165.5,75.5 C 168.284,80.395 167.951,85.2283 164.5,90C 158.635,92.5406 155.302,97.0406 154.5,103.5C 153.5,103.5 152.5,103.5 151.5,103.5C 151.793,100.246 151.126,97.2457 149.5,94.5C 150.338,94.1583 150.672,93.4916 150.5,92.5C 152.344,90.7211 153.01,88.3878 152.5,85.5C 153.468,87.6074 153.802,89.9407 153.5,92.5C 155.564,92.313 157.564,91.813 159.5,91C 160.667,88.5 162.5,86.6667 165,85.5C 165.498,82.1832 165.665,78.8499 165.5,75.5 Z"/></g>
<g><path style="opacity:1" fill="#7a592b" d="M 175.5,85.5 C 177.969,86.5686 180.302,87.9019 182.5,89.5C 183.156,91.484 183.822,93.484 184.5,95.5C 183.731,98.1147 183.397,100.781 183.5,103.5C 179.188,107.146 175.188,111.146 171.5,115.5C 171.5,114.167 171.5,112.833 171.5,111.5C 167.788,111.877 164.788,113.544 162.5,116.5C 161.833,116.5 161.167,116.5 160.5,116.5C 163.027,114.395 165.36,112.061 167.5,109.5C 170.815,106.875 173.149,103.542 174.5,99.5C 176.673,96.7778 177.006,93.7778 175.5,90.5C 176.562,88.7659 176.562,87.0992 175.5,85.5 Z"/></g>
<g><path style="opacity:1" fill="#946a67" d="M 255.5,91.5 C 255.5,91.8333 255.5,92.1667 255.5,92.5C 253.807,95.1897 251.473,97.1897 248.5,98.5C 249.833,95.1667 252.167,92.8333 255.5,91.5 Z"/></g>
<g><path style="opacity:1" fill="#613421" d="M 147.5,94.5 C 149.388,97.9312 149.888,101.598 149,105.5C 148.722,104.584 148.222,103.918 147.5,103.5C 146.657,101.827 145.324,100.66 143.5,100C 139.038,98.2179 134.371,97.0512 129.5,96.5C 128.048,95.6981 126.382,95.1981 124.5,95C 125.056,94.6174 125.389,94.1174 125.5,93.5C 133.034,90.7061 140.367,91.0395 147.5,94.5 Z"/></g>
<g><path style="opacity:1" fill="#5d1c3a" d="M 28.5,100.5 C 28.5,100.833 28.5,101.167 28.5,101.5C 28.666,106.844 28.4994,112.177 28,117.5C 25.7361,113.113 24.4027,108.446 24,103.5C 21.5,102.333 19.6667,100.5 18.5,98C 12.2732,93.5942 5.93985,93.4275 -0.5,97.5C -0.5,96.1667 -0.5,94.8333 -0.5,93.5C 13.0507,88.5494 22.2174,92.8827 27,106.5C 27.1909,104.292 27.6909,102.292 28.5,100.5 Z"/></g>
<g><path style="opacity:1" fill="#443324" d="M 172.5,89.5 C 173.391,90.1098 174.391,90.4431 175.5,90.5C 177.006,93.7778 176.673,96.7778 174.5,99.5C 173.735,97.071 172.069,95.7377 169.5,95.5C 169.128,99.6548 168.128,103.655 166.5,107.5C 166.543,108.416 166.876,109.083 167.5,109.5C 165.36,112.061 163.027,114.395 160.5,116.5C 160.5,117.167 160.167,117.5 159.5,117.5C 161.307,110.211 163.974,103.211 167.5,96.5C 165.905,95.5661 164.239,95.5661 162.5,96.5C 163.199,93.7891 164.865,91.7891 167.5,90.5C 168.251,91.376 168.751,92.376 169,93.5C 169.498,91.4556 170.665,90.1223 172.5,89.5 Z"/></g>
<g><path style="opacity:1" fill="#4f3f2e" d="M 63.5,75.5 C 64.2719,76.6935 65.2719,77.6935 66.5,78.5C 66.7822,79.7777 67.4489,80.7777 68.5,81.5C 66.9784,91.817 65.6451,102.15 64.5,112.5C 66.1667,112.5 67.8333,112.5 69.5,112.5C 69.3505,111.448 69.5172,110.448 70,109.5C 71.7665,112.33 71.9332,115.33 70.5,118.5C 70.5565,119.737 71.0565,120.737 72,121.5C 72.2597,117.576 73.2597,113.909 75,110.5C 75.3562,114.354 76.8562,117.687 79.5,120.5C 80.1818,119.757 80.8485,119.091 81.5,118.5C 80.1713,124.401 79.1713,130.401 78.5,136.5C 77.8076,135.975 77.3076,135.308 77,134.5C 75.8372,136.285 75.1705,138.285 75,140.5C 74.3333,141.833 73.6667,141.833 73,140.5C 72.7834,135.708 71.95,131.042 70.5,126.5C 68.5766,125.352 66.5766,124.852 64.5,125C 66.3137,127.481 66.9804,130.315 66.5,133.5C 65.0075,131.098 64.0075,128.431 63.5,125.5C 61.8266,122.833 59.4933,120.833 56.5,119.5C 53.8333,117.5 51.1667,115.5 48.5,113.5C 47.8333,112.833 47.1667,112.167 46.5,111.5C 48.3402,109.341 49.5068,106.675 50,103.5C 50.589,97.6524 51.4224,91.9858 52.5,86.5C 52.6807,104.689 54.8474,104.689 59,86.5C 61.7776,83.0017 63.2776,79.335 63.5,75.5 Z"/></g>
<g><path style="opacity:1" fill="#390a23" d="M 228.5,114.5 C 220.463,119.846 212.463,125.18 204.5,130.5C 203.167,130.833 201.833,131.167 200.5,131.5C 198.801,131.66 197.134,131.494 195.5,131C 197.833,128.667 200.167,126.333 202.5,124C 197.655,121.962 192.988,119.628 188.5,117C 186.833,116.667 185.167,116.333 183.5,116C 183.833,115.667 184.167,115.333 184.5,115C 183.139,113.416 182.472,111.582 182.5,109.5C 182.232,107.901 182.566,106.568 183.5,105.5C 185.466,106.255 185.8,107.421 184.5,109C 187.658,109.006 190.825,109.839 194,111.5C 201.804,106.595 209.804,101.928 218,97.5C 221.904,98.8706 225.737,100.371 229.5,102C 228.351,103.604 228.351,105.27 229.5,107C 227.684,109.403 227.351,111.903 228.5,114.5 Z"/></g>
<g><path style="opacity:1" fill="#360b22" d="M 28.5,101.5 C 28.8333,101.5 29.1667,101.5 29.5,101.5C 29.5,102.167 29.5,102.833 29.5,103.5C 29.5,105.833 29.5,108.167 29.5,110.5C 29.7204,121.716 31.3871,132.716 34.5,143.5C 26.1667,143.5 17.8333,143.5 9.5,143.5C 8.5,141.833 7.16667,140.5 5.5,139.5C 4.94622,134.96 2.94622,131.294 -0.5,128.5C -0.5,118.167 -0.5,107.833 -0.5,97.5C 5.93985,93.4275 12.2732,93.5942 18.5,98C 19.6667,100.5 21.5,102.333 24,103.5C 24.4027,108.446 25.7361,113.113 28,117.5C 28.4994,112.177 28.666,106.844 28.5,101.5 Z"/></g>
<g><path style="opacity:1" fill="#caa271" d="M 34.5,97.5 C 37.5732,102.992 41.5732,107.659 46.5,111.5C 47.1667,112.167 47.8333,112.833 48.5,113.5C 46.2166,113.392 44.2166,112.559 42.5,111C 39.3242,106.994 35.9908,103.16 32.5,99.5C 31.4173,100.365 31.2506,101.365 32,102.5C 34.5739,107.313 37.4073,111.979 40.5,116.5C 35.7064,113.046 32.0397,108.713 29.5,103.5C 29.5,102.833 29.5,102.167 29.5,101.5C 29.5,100.167 29.5,98.8333 29.5,97.5C 31.36,98.0715 33.0267,98.0715 34.5,97.5 Z"/></g>
<g><path style="opacity:1" fill="#6d4b3d" d="M 91.5,65.5 C 92.1667,65.5 92.8333,65.5 93.5,65.5C 94.6808,67.0672 96.3474,67.9005 98.5,68C 100.1,74.8518 97.933,80.3518 92,84.5C 89.4359,91.8568 90.1025,98.8568 94,105.5C 96.9625,107.244 100.129,107.744 103.5,107C 102.903,105.372 103.237,103.705 104.5,102C 107.475,101.956 110.475,102.123 113.5,102.5C 113.995,107.691 111.662,110.191 106.5,110C 104.545,110.953 102.878,112.287 101.5,114C 105.659,116.274 109.659,118.774 113.5,121.5C 103.574,119.791 95.4073,115.124 89,107.5C 88.1816,104.893 87.6816,102.226 87.5,99.5C 88.3803,95.529 89.047,91.529 89.5,87.5C 89.6432,84.9026 90.4766,82.5692 92,80.5C 92.6631,75.4626 92.4964,70.4626 91.5,65.5 Z"/></g>
<g><path style="opacity:1" fill="#1e190e" d="M 174.5,99.5 C 173.149,103.542 170.815,106.875 167.5,109.5C 166.876,109.083 166.543,108.416 166.5,107.5C 168.128,103.655 169.128,99.6548 169.5,95.5C 172.069,95.7377 173.735,97.071 174.5,99.5 Z"/></g>
<g><path style="opacity:1" fill="#937043" d="M 255.5,92.5 C 255.5,95.8333 255.5,99.1667 255.5,102.5C 252.5,104.5 249.5,106.5 246.5,108.5C 246.5,107.5 246.5,106.5 246.5,105.5C 243.673,105.584 241.006,106.25 238.5,107.5C 240.806,105.861 242.806,103.861 244.5,101.5C 245.833,100.5 247.167,99.5 248.5,98.5C 251.473,97.1897 253.807,95.1897 255.5,92.5 Z"/></g>
<g><path style="opacity:1" fill="#9c6f5d" d="M 129.5,96.5 C 134.371,97.0512 139.038,98.2179 143.5,100C 145.324,100.66 146.657,101.827 147.5,103.5C 147.66,105.199 147.494,106.866 147,108.5C 144.961,107.022 144.128,105.022 144.5,102.5C 141.275,102.589 138.275,101.923 135.5,100.5C 134.274,100.52 133.274,100.853 132.5,101.5C 129.91,102.128 127.577,103.295 125.5,105C 117.277,106.802 115.61,104.469 120.5,98C 123.393,96.8512 126.393,96.3512 129.5,96.5 Z"/></g>
<g><path style="opacity:1" fill="#5d4d3b" d="M 68.5,81.5 C 69.9931,82.3121 70.6598,83.6455 70.5,85.5C 68.8358,90.1239 68.5025,94.7906 69.5,99.5C 70.2508,98.624 70.7508,97.624 71,96.5C 71.3333,99.5 71.6667,102.5 72,105.5C 73.2542,101.23 74.2542,96.8964 75,92.5C 75.3333,92.8333 75.6667,93.1667 76,93.5C 76.3333,97.1667 76.6667,100.833 77,104.5C 77.6667,105.167 78.3333,105.833 79,106.5C 79.3333,109.167 79.6667,111.833 80,114.5C 80.3375,107.427 81.8375,100.76 84.5,94.5C 82.7542,102.389 81.7542,110.389 81.5,118.5C 80.8485,119.091 80.1818,119.757 79.5,120.5C 76.8562,117.687 75.3562,114.354 75,110.5C 73.2597,113.909 72.2597,117.576 72,121.5C 71.0565,120.737 70.5565,119.737 70.5,118.5C 71.9332,115.33 71.7665,112.33 70,109.5C 69.5172,110.448 69.3505,111.448 69.5,112.5C 67.8333,112.5 66.1667,112.5 64.5,112.5C 65.6451,102.15 66.9784,91.817 68.5,81.5 Z"/></g>
<g><path style="opacity:1" fill="#71614f" d="M 89.5,62.5 C 86.7186,72.9679 85.0519,83.6345 84.5,94.5C 81.8375,100.76 80.3375,107.427 80,114.5C 79.6667,111.833 79.3333,109.167 79,106.5C 78.3333,105.833 77.6667,105.167 77,104.5C 76.6667,100.833 76.3333,97.1667 76,93.5C 75.6667,93.1667 75.3333,92.8333 75,92.5C 74.2542,96.8964 73.2542,101.23 72,105.5C 71.6667,102.5 71.3333,99.5 71,96.5C 70.7508,97.624 70.2508,98.624 69.5,99.5C 68.5025,94.7906 68.8358,90.1239 70.5,85.5C 70.6598,83.6455 69.9931,82.3121 68.5,81.5C 67.4489,80.7777 66.7822,79.7777 66.5,78.5C 68.1788,78.7148 69.1788,78.0481 69.5,76.5C 70.1499,76.1961 70.8165,75.8627 71.5,75.5C 74.0749,78.3191 75.9082,77.9858 77,74.5C 78.7498,81.1783 79.7498,89.1783 80,98.5C 82.2711,94.5276 83.1045,90.1943 82.5,85.5C 84.3769,77.6837 86.7103,70.017 89.5,62.5 Z"/></g>
<g><path style="opacity:1" fill="#010000" d="M 255.5,106.5 C 255.5,118.833 255.5,131.167 255.5,143.5C 247.5,143.5 239.5,143.5 231.5,143.5C 228.033,141.952 224.699,140.118 221.5,138C 222.741,136.269 223.741,134.436 224.5,132.5C 234.808,123.863 245.142,115.196 255.5,106.5 Z"/></g>
<g><path style="opacity:1" fill="#332119" d="M 86.5,109.5 C 91.7816,114.146 97.4482,118.312 103.5,122C 106.525,122.361 109.525,122.861 112.5,123.5C 114.253,125.7 116.586,126.867 119.5,127C 128.476,128.123 137.476,128.957 146.5,129.5C 146.163,133.171 144.163,135.171 140.5,135.5C 138.801,135.34 137.134,135.506 135.5,136C 131.522,138.572 127.355,140.739 123,142.5C 118.539,141.753 114.039,141.253 109.5,141C 105.317,138.743 100.984,136.743 96.5,135C 91.964,130.791 87.6307,126.624 83.5,122.5C 83.3342,117.821 83.5008,113.155 84,108.5C 84.6708,109.252 85.5041,109.586 86.5,109.5 Z"/></g>
<g><path style="opacity:1" fill="#b48f60" d="M 246.5,108.5 C 244.806,110.861 242.806,112.861 240.5,114.5C 235.635,116.763 231.302,119.763 227.5,123.5C 222.762,126.898 217.762,129.898 212.5,132.5C 212.265,131.903 211.765,131.57 211,131.5C 209.433,132.856 207.6,133.523 205.5,133.5C 205.737,132.209 205.404,131.209 204.5,130.5C 212.463,125.18 220.463,119.846 228.5,114.5C 231.833,112.167 235.167,109.833 238.5,107.5C 241.006,106.25 243.673,105.584 246.5,105.5C 246.5,106.5 246.5,107.5 246.5,108.5 Z"/></g>
<g><path style="opacity:1" fill="#7d5747" d="M 93.5,65.5 C 97.0254,65.3459 99.8587,66.6792 102,69.5C 101.629,74.8072 101.129,80.1405 100.5,85.5C 97.8333,85.5 95.1667,85.5 92.5,85.5C 93.6861,89.5469 95.1861,93.5469 97,97.5C 97.7387,98.5742 98.7387,99.2409 100,99.5C 101.748,97.8997 102.915,95.8997 103.5,93.5C 106.269,95.6061 109.269,97.2728 112.5,98.5C 114.147,97.7224 115.48,96.5557 116.5,95C 119.036,94.8138 121.369,94.3138 123.5,93.5C 124.167,93.5 124.833,93.5 125.5,93.5C 125.389,94.1174 125.056,94.6174 124.5,95C 126.382,95.1981 128.048,95.6981 129.5,96.5C 126.393,96.3512 123.393,96.8512 120.5,98C 115.61,104.469 117.277,106.802 125.5,105C 127.577,103.295 129.91,102.128 132.5,101.5C 130.673,102.932 129.006,104.599 127.5,106.5C 126.571,107.689 126.238,109.022 126.5,110.5C 127.5,110.5 128.5,110.5 129.5,110.5C 128.71,111.401 127.71,112.068 126.5,112.5C 122.971,110.193 119.304,110.193 115.5,112.5C 113.734,117.945 115.734,121.445 121.5,123C 124.726,124.199 128.059,124.699 131.5,124.5C 131.5,124.833 131.5,125.167 131.5,125.5C 125.169,125.611 119.169,124.277 113.5,121.5C 109.659,118.774 105.659,116.274 101.5,114C 102.878,112.287 104.545,110.953 106.5,110C 111.662,110.191 113.995,107.691 113.5,102.5C 110.475,102.123 107.475,101.956 104.5,102C 103.237,103.705 102.903,105.372 103.5,107C 100.129,107.744 96.9625,107.244 94,105.5C 90.1025,98.8568 89.4359,91.8568 92,84.5C 97.933,80.3518 100.1,74.8518 98.5,68C 96.3474,67.9005 94.6808,67.0672 93.5,65.5 Z"/></g>
<g><path style="opacity:1" fill="#e3c495" d="M 48.5,113.5 C 51.1667,115.5 53.8333,117.5 56.5,119.5C 56.6567,120.873 56.49,122.207 56,123.5C 52.2586,122.629 48.9253,120.963 46,118.5C 44.9701,118.836 44.4701,119.503 44.5,120.5C 42.8333,119.5 41.5,118.167 40.5,116.5C 37.4073,111.979 34.5739,107.313 32,102.5C 31.2506,101.365 31.4173,100.365 32.5,99.5C 35.9908,103.16 39.3242,106.994 42.5,111C 44.2166,112.559 46.2166,113.392 48.5,113.5 Z"/></g>
<g><path style="opacity:1" fill="#654031" d="M 167.5,71.5 C 167.328,72.4916 167.662,73.1583 168.5,73.5C 169.267,77.4155 169.767,81.4155 170,85.5C 170.852,86.5707 171.685,87.5707 172.5,88.5C 172.5,88.8333 172.5,89.1667 172.5,89.5C 170.665,90.1223 169.498,91.4556 169,93.5C 168.751,92.376 168.251,91.376 167.5,90.5C 164.865,91.7891 163.199,93.7891 162.5,96.5C 157.663,106.307 152.996,116.307 148.5,126.5C 144.958,126.38 141.458,126.714 138,127.5C 135.914,126.582 133.747,125.915 131.5,125.5C 131.5,125.167 131.5,124.833 131.5,124.5C 133.954,124.321 136.121,124.987 138,126.5C 142.819,126.355 144.485,124.021 143,119.5C 141.953,117.292 140.453,115.626 138.5,114.5C 136.575,110.992 133.575,109.659 129.5,110.5C 128.5,110.5 127.5,110.5 126.5,110.5C 126.238,109.022 126.571,107.689 127.5,106.5C 129.006,104.599 130.673,102.932 132.5,101.5C 133.274,100.853 134.274,100.52 135.5,100.5C 138.275,101.923 141.275,102.589 144.5,102.5C 144.128,105.022 144.961,107.022 147,108.5C 147.494,106.866 147.66,105.199 147.5,103.5C 148.222,103.918 148.722,104.584 149,105.5C 149.888,101.598 149.388,97.9312 147.5,94.5C 148.167,94.5 148.833,94.5 149.5,94.5C 151.126,97.2457 151.793,100.246 151.5,103.5C 152.5,103.5 153.5,103.5 154.5,103.5C 155.302,97.0406 158.635,92.5406 164.5,90C 167.951,85.2283 168.284,80.395 165.5,75.5C 165.027,74.0937 164.027,73.427 162.5,73.5C 164.028,72.6908 165.694,72.0241 167.5,71.5 Z"/></g>
<g><path style="opacity:1" fill="#ab8c5b" d="M 171.5,115.5 C 169.833,117.833 167.833,119.833 165.5,121.5C 165.5,119.833 165.5,118.167 165.5,116.5C 164.5,116.5 163.5,116.5 162.5,116.5C 164.788,113.544 167.788,111.877 171.5,111.5C 171.5,112.833 171.5,114.167 171.5,115.5 Z"/></g>
<g><path style="opacity:1" fill="#d3b482" d="M 160.5,116.5 C 161.167,116.5 161.833,116.5 162.5,116.5C 163.5,116.5 164.5,116.5 165.5,116.5C 165.5,118.167 165.5,119.833 165.5,121.5C 164.833,121.833 164.167,122.167 163.5,122.5C 161.958,123.301 160.292,123.634 158.5,123.5C 158.5,122.167 158.5,120.833 158.5,119.5C 158.833,118.833 159.167,118.167 159.5,117.5C 160.167,117.5 160.5,117.167 160.5,116.5 Z"/></g>
<g><path style="opacity:1" fill="#c1947f" d="M 129.5,110.5 C 133.575,109.659 136.575,110.992 138.5,114.5C 138.863,116.911 137.863,118.411 135.5,119C 131.903,120.277 128.236,120.61 124.5,120C 122.84,116.777 123.506,114.277 126.5,112.5C 127.71,112.068 128.71,111.401 129.5,110.5 Z"/></g>
<g><path style="opacity:1" fill="#a27764" d="M 126.5,112.5 C 123.506,114.277 122.84,116.777 124.5,120C 128.236,120.61 131.903,120.277 135.5,119C 137.863,118.411 138.863,116.911 138.5,114.5C 140.453,115.626 141.953,117.292 143,119.5C 144.485,124.021 142.819,126.355 138,126.5C 136.121,124.987 133.954,124.321 131.5,124.5C 128.059,124.699 124.726,124.199 121.5,123C 115.734,121.445 113.734,117.945 115.5,112.5C 119.304,110.193 122.971,110.193 126.5,112.5 Z"/></g>
<g><path style="opacity:1" fill="#58401a" d="M 240.5,114.5 C 236.97,118.703 232.636,121.703 227.5,123.5C 231.302,119.763 235.635,116.763 240.5,114.5 Z"/></g>
<g><path style="opacity:1" fill="#cdaf8e" d="M 56.5,119.5 C 59.4933,120.833 61.8266,122.833 63.5,125.5C 59.7604,125.241 56.0938,125.574 52.5,126.5C 50.0976,124.091 47.4309,122.091 44.5,120.5C 44.4701,119.503 44.9701,118.836 46,118.5C 48.9253,120.963 52.2586,122.629 56,123.5C 56.49,122.207 56.6567,120.873 56.5,119.5 Z"/></g>
<g><path style="opacity:1" fill="#53372c" d="M 89.5,87.5 C 89.047,91.529 88.3803,95.529 87.5,99.5C 87.6816,102.226 88.1816,104.893 89,107.5C 95.4073,115.124 103.574,119.791 113.5,121.5C 119.169,124.277 125.169,125.611 131.5,125.5C 133.747,125.915 135.914,126.582 138,127.5C 141.458,126.714 144.958,126.38 148.5,126.5C 148.5,126.833 148.5,127.167 148.5,127.5C 147.833,128.167 147.167,128.833 146.5,129.5C 137.476,128.957 128.476,128.123 119.5,127C 116.586,126.867 114.253,125.7 112.5,123.5C 109.525,122.861 106.525,122.361 103.5,122C 97.4482,118.312 91.7816,114.146 86.5,109.5C 85.5398,101.844 86.5398,94.5102 89.5,87.5 Z"/></g>
<g><path style="opacity:1" fill="#36261b" d="M 159.5,117.5 C 159.167,118.167 158.833,118.833 158.5,119.5C 156.596,119.738 155.262,120.738 154.5,122.5C 152.394,125.254 150.728,128.254 149.5,131.5C 149.768,129.901 149.434,128.568 148.5,127.5C 148.5,127.167 148.5,126.833 148.5,126.5C 152.996,116.307 157.663,106.307 162.5,96.5C 164.239,95.5661 165.905,95.5661 167.5,96.5C 163.974,103.211 161.307,110.211 159.5,117.5 Z"/></g>
<g><path style="opacity:1" fill="#230819" d="M 182.5,109.5 C 182.472,111.582 183.139,113.416 184.5,115C 184.167,115.333 183.833,115.667 183.5,116C 185.167,116.333 186.833,116.667 188.5,117C 192.988,119.628 197.655,121.962 202.5,124C 200.167,126.333 197.833,128.667 195.5,131C 197.134,131.494 198.801,131.66 200.5,131.5C 193.337,135.247 186.337,139.247 179.5,143.5C 178.833,143.5 178.167,143.5 177.5,143.5C 177.334,137.158 177.5,130.825 178,124.5C 179.738,119.976 180.905,115.31 181.5,110.5C 181.5,109.833 181.833,109.5 182.5,109.5 Z"/></g>
<g><path style="opacity:1" fill="#967447" d="M 158.5,119.5 C 158.5,120.833 158.5,122.167 158.5,123.5C 160.292,123.634 161.958,123.301 163.5,122.5C 163.038,124.757 162.038,126.757 160.5,128.5C 158.793,126.024 156.793,124.024 154.5,122.5C 155.262,120.738 156.596,119.738 158.5,119.5 Z"/></g>
<g><path style="opacity:1" fill="#402e09" d="M 29.5,103.5 C 32.0397,108.713 35.7064,113.046 40.5,116.5C 41.5,118.167 42.8333,119.5 44.5,120.5C 47.4309,122.091 50.0976,124.091 52.5,126.5C 56.0938,125.574 59.7604,125.241 63.5,125.5C 64.0075,128.431 65.0075,131.098 66.5,133.5C 67.4794,136.625 67.8128,139.958 67.5,143.5C 62.1667,143.5 56.8333,143.5 51.5,143.5C 50.5596,140.286 49.0596,137.286 47,134.5C 40.9168,126.598 35.0835,118.598 29.5,110.5C 29.5,108.167 29.5,105.833 29.5,103.5 Z"/></g>
<g><path style="opacity:1" fill="#43310c" d="M 183.5,103.5 C 183.5,104.167 183.5,104.833 183.5,105.5C 182.566,106.568 182.232,107.901 182.5,109.5C 181.833,109.5 181.5,109.833 181.5,110.5C 176.264,117.944 170.764,125.277 165,132.5C 162.628,135.91 160.795,139.577 159.5,143.5C 154.833,143.5 150.167,143.5 145.5,143.5C 146.833,139.5 148.167,135.5 149.5,131.5C 150.728,128.254 152.394,125.254 154.5,122.5C 156.793,124.024 158.793,126.024 160.5,128.5C 162.038,126.757 163.038,124.757 163.5,122.5C 164.167,122.167 164.833,121.833 165.5,121.5C 167.833,119.833 169.833,117.833 171.5,115.5C 175.188,111.146 179.188,107.146 183.5,103.5 Z"/></g>
<g><path style="opacity:1" fill="#514f49" d="M 181.5,110.5 C 180.905,115.31 179.738,119.976 178,124.5C 177.5,130.825 177.334,137.158 177.5,143.5C 171.5,143.5 165.5,143.5 159.5,143.5C 160.795,139.577 162.628,135.91 165,132.5C 170.764,125.277 176.264,117.944 181.5,110.5 Z"/></g>
<g><path style="opacity:1" fill="#2b200d" d="M 255.5,102.5 C 255.5,103.833 255.5,105.167 255.5,106.5C 245.142,115.196 234.808,123.863 224.5,132.5C 221.6,133.895 218.6,135.061 215.5,136C 211.639,138.688 207.639,141.188 203.5,143.5C 199.5,143.5 195.5,143.5 191.5,143.5C 198.339,139.58 205.339,135.913 212.5,132.5C 217.762,129.898 222.762,126.898 227.5,123.5C 232.636,121.703 236.97,118.703 240.5,114.5C 242.806,112.861 244.806,110.861 246.5,108.5C 249.5,106.5 252.5,104.5 255.5,102.5 Z"/></g>
<g><path style="opacity:1" fill="#48272e" d="M -0.5,128.5 C 2.94622,131.294 4.94622,134.96 5.5,139.5C 3.13942,137.806 1.13942,135.806 -0.5,133.5C -0.5,131.833 -0.5,130.167 -0.5,128.5 Z"/></g>
<g><path style="opacity:1" fill="#cdc0a8" d="M 204.5,130.5 C 205.404,131.209 205.737,132.209 205.5,133.5C 207.6,133.523 209.433,132.856 211,131.5C 211.765,131.57 212.265,131.903 212.5,132.5C 205.339,135.913 198.339,139.58 191.5,143.5C 187.5,143.5 183.5,143.5 179.5,143.5C 186.337,139.247 193.337,135.247 200.5,131.5C 201.833,131.167 203.167,130.833 204.5,130.5 Z"/></g>
<g><path style="opacity:1" fill="#0e0a07" d="M 148.5,127.5 C 149.434,128.568 149.768,129.901 149.5,131.5C 148.167,135.5 146.833,139.5 145.5,143.5C 140.5,143.5 135.5,143.5 130.5,143.5C 133.022,139.627 136.355,136.96 140.5,135.5C 144.163,135.171 146.163,133.171 146.5,129.5C 147.167,128.833 147.833,128.167 148.5,127.5 Z"/></g>
<g><path style="opacity:1" fill="#ad8357" d="M -0.5,133.5 C 1.13942,135.806 3.13942,137.806 5.5,139.5C 7.16667,140.5 8.5,141.833 9.5,143.5C 6.16667,143.5 2.83333,143.5 -0.5,143.5C -0.5,140.167 -0.5,136.833 -0.5,133.5 Z"/></g>
<g><path style="opacity:1" fill="#1f1510" d="M 83.5,122.5 C 87.6307,126.624 91.964,130.791 96.5,135C 100.984,136.743 105.317,138.743 109.5,141C 114.039,141.253 118.539,141.753 123,142.5C 127.355,140.739 131.522,138.572 135.5,136C 137.134,135.506 138.801,135.34 140.5,135.5C 136.355,136.96 133.022,139.627 130.5,143.5C 114.833,143.5 99.1667,143.5 83.5,143.5C 83.5,136.5 83.5,129.5 83.5,122.5 Z"/></g>
<g><path style="opacity:1" fill="#252421" d="M 224.5,132.5 C 223.741,134.436 222.741,136.269 221.5,138C 224.699,140.118 228.033,141.952 231.5,143.5C 222.167,143.5 212.833,143.5 203.5,143.5C 207.639,141.188 211.639,138.688 215.5,136C 218.6,135.061 221.6,133.895 224.5,132.5 Z"/></g>
<g><path style="opacity:1" fill="#3d3b37" d="M 29.5,110.5 C 35.0835,118.598 40.9168,126.598 47,134.5C 49.0596,137.286 50.5596,140.286 51.5,143.5C 45.8333,143.5 40.1667,143.5 34.5,143.5C 31.3871,132.716 29.7204,121.716 29.5,110.5 Z"/></g>
<g><path style="opacity:1" fill="#3c2e22" d="M 89.5,62.5 C 90.4013,63.2905 91.0679,64.2905 91.5,65.5C 92.4964,70.4626 92.6631,75.4626 92,80.5C 90.4766,82.5692 89.6432,84.9026 89.5,87.5C 86.5398,94.5102 85.5398,101.844 86.5,109.5C 85.5041,109.586 84.6708,109.252 84,108.5C 83.5008,113.155 83.3342,117.821 83.5,122.5C 83.5,129.5 83.5,136.5 83.5,143.5C 78.1667,143.5 72.8333,143.5 67.5,143.5C 67.8128,139.958 67.4794,136.625 66.5,133.5C 66.9804,130.315 66.3137,127.481 64.5,125C 66.5766,124.852 68.5766,125.352 70.5,126.5C 71.95,131.042 72.7834,135.708 73,140.5C 73.6667,141.833 74.3333,141.833 75,140.5C 75.1705,138.285 75.8372,136.285 77,134.5C 77.3076,135.308 77.8076,135.975 78.5,136.5C 79.1713,130.401 80.1713,124.401 81.5,118.5C 81.7542,110.389 82.7542,102.389 84.5,94.5C 85.0519,83.6345 86.7186,72.9679 89.5,62.5 Z"/></g>
</svg>
