<?xml version="1.0" encoding="UTF-8"?>
<!DOCTYPE svg PUBLIC "-//W3C//DTD SVG 1.1//EN" "http://www.w3.org/Graphics/SVG/1.1/DTD/svg11.dtd">
<svg xmlns="http://www.w3.org/2000/svg" version="1.1" width="256px" height="144px" style="shape-rendering:geometricPrecision; text-rendering:geometricPrecision; image-rendering:optimizeQuality; fill-rule:evenodd; clip-rule:evenodd" xmlns:xlink="http://www.w3.org/1999/xlink">
<g><path style="opacity:1" fill="#262218" d="M 142.5,-0.5 C 145.833,-0.5 149.167,-0.5 152.5,-0.5C 150.923,2.04994 148.923,4.04994 146.5,5.5C 144.808,3.79525 143.475,1.79525 142.5,-0.5 Z"/></g>
<g><path style="opacity:1" fill="#fd7712" d="M 159.5,-0.5 C 160.5,-0.5 161.5,-0.5 162.5,-0.5C 161.406,1.35943 160.573,3.35943 160,5.5C 156.349,7.73267 152.849,10.066 149.5,12.5C 149.167,12.5 148.833,12.5 148.5,12.5C 148.5,12.1667 148.5,11.8333 148.5,11.5C 148.167,10.1667 147.833,8.83333 147.5,7.5C 152.845,6.81689 156.845,4.15023 159.5,-0.5 Z"/></g>
<g><path style="opacity:1" fill="#070504" d="M 179.5,-0.5 C 204.833,-0.5 230.167,-0.5 255.5,-0.5C 255.5,10.1667 255.5,20.8333 255.5,31.5C 254.504,31.4142 253.671,31.7476 253,32.5C 249.206,30.2728 245.206,29.6061 241,30.5C 239.541,30.1918 238.374,29.5251 237.5,28.5C 238.167,27.1667 238.833,25.8333 239.5,24.5C 240.782,23.2918 240.782,21.9584 239.5,20.5C 237.37,22.8984 234.703,24.2317 231.5,24.5C 226.868,23.6849 222.201,23.3516 217.5,23.5C 218.833,21.8333 218.833,20.1667 217.5,18.5C 217.38,17.4138 216.713,16.7472 215.5,16.5C 212.651,16.0356 209.984,15.3689 207.5,14.5C 208.167,14.5 208.833,14.5 209.5,14.5C 211.484,14.6168 213.15,13.9501 214.5,12.5C 214.043,11.7025 213.376,11.3691 212.5,11.5C 210.473,11.6621 208.473,11.4955 206.5,11C 207.96,10.1887 208.293,9.35538 207.5,8.5C 204.914,10.0426 202.414,11.7093 200,13.5C 199.79,11.9419 199.29,10.6085 198.5,9.5C 198.5,8.83333 198.167,8.5 197.5,8.5C 197.238,7.02218 197.571,5.68884 198.5,4.5C 200.628,3.46249 201.628,2.12916 201.5,0.5C 197.525,2.65062 193.691,4.98395 190,7.5C 188.415,6.95611 186.915,6.28944 185.5,5.5C 184.713,0.604213 183.046,0.27088 180.5,4.5C 179.962,2.88277 179.629,1.2161 179.5,-0.5 Z"/></g>
<g><path style="opacity:1" fill="#ebecd8" d="M 14.5,-0.5 C 17.5,-0.5 20.5,-0.5 23.5,-0.5C 24.9431,1.54351 26.2764,3.71017 27.5,6C 27,7.5 26.5,9 26,10.5C 25.6667,10.1667 25.3333,9.83333 25,9.5C 24.8333,10.8333 24.6667,12.1667 24.5,13.5C 26.1563,20.4394 26.9896,27.4394 27,34.5C 23.4764,42.1645 17.8098,47.8311 10,51.5C 10.8099,59.8439 7.30986,62.5106 -0.5,59.5C -0.5,54.1667 -0.5,48.8333 -0.5,43.5C 3.15962,42.5099 5.82628,40.3432 7.5,37C 6.57614,35.85 6.57614,34.85 7.5,34C 5.45654,32.292 3.78987,30.292 2.5,28C 6.56056,24.7864 8.56056,20.6197 8.5,15.5C 6.5,15.5 4.5,15.5 2.5,15.5C 0.731337,11.0075 0.231337,6.34083 1,1.5C 2.06171,0.903165 3.22838,0.569832 4.5,0.5C 6.75442,0.930574 8.92108,1.59724 11,2.5C 13.2747,2.72239 14.4413,1.72239 14.5,-0.5 Z"/></g>
<g><path style="opacity:1" fill="#97754f" d="M 68.5,-0.5 C 80.5,-0.5 92.5,-0.5 104.5,-0.5C 104.5,0.166667 104.5,0.833333 104.5,1.5C 97.1104,1.65459 89.7771,2.32125 82.5,3.5C 82.1961,2.85013 81.8627,2.18346 81.5,1.5C 77.0178,0.833078 72.6845,0.166411 68.5,-0.5 Z"/></g>
<g><path style="opacity:1" fill="#3f3224" d="M 169.5,-0.5 C 170.5,-0.5 171.5,-0.5 172.5,-0.5C 172.5,-0.166667 172.5,0.166667 172.5,0.5C 171.5,1.16667 170.5,1.83333 169.5,2.5C 169.5,1.5 169.5,0.5 169.5,-0.5 Z"/></g>
<g><path style="opacity:1" fill="#f76f10" d="M 172.5,0.5 C 172.5,0.166667 172.5,-0.166667 172.5,-0.5C 174.5,-0.5 176.5,-0.5 178.5,-0.5C 178.12,1.69798 178.787,3.36465 180.5,4.5C 181.919,5.45115 183.585,5.78448 185.5,5.5C 185.414,6.4959 185.748,7.32924 186.5,8C 188.929,8.70331 191.262,8.53664 193.5,7.5C 194.259,12.8327 192.926,17.4994 189.5,21.5C 189.167,21.1667 188.833,20.8333 188.5,20.5C 189.167,19.5 189.833,18.5 190.5,17.5C 185.533,16.671 180.533,16.171 175.5,16C 174.627,14.955 173.627,14.1217 172.5,13.5C 172.238,11.4362 171.071,10.1029 169,9.5C 168.505,7.5273 168.338,5.5273 168.5,3.5C 171.033,4.85372 172.7,4.02039 173.5,1C 173.272,0.601226 172.938,0.434559 172.5,0.5 Z"/></g>
<g><path style="opacity:1" fill="#fadfa4" d="M 172.5,0.5 C 172.938,0.434559 173.272,0.601226 173.5,1C 172.7,4.02039 171.033,4.85372 168.5,3.5C 167.443,2.79405 167.776,2.46072 169.5,2.5C 170.5,1.83333 171.5,1.16667 172.5,0.5 Z"/></g>
<g><path style="opacity:1" fill="#af8356" d="M 178.5,-0.5 C 178.833,-0.5 179.167,-0.5 179.5,-0.5C 179.629,1.2161 179.962,2.88277 180.5,4.5C 178.787,3.36465 178.12,1.69798 178.5,-0.5 Z"/></g>
<g><path style="opacity:1" fill="#987854" d="M 185.5,5.5 C 183.585,5.78448 181.919,5.45115 180.5,4.5C 183.046,0.27088 184.713,0.604213 185.5,5.5 Z"/></g>
<g><path style="opacity:1" fill="#e2d4b4" d="M 139.5,0.5 C 141.531,1.5387 142.864,3.20537 143.5,5.5C 142.041,5.56745 140.708,5.23411 139.5,4.5C 136.253,2.26197 136.253,0.928632 139.5,0.5 Z"/></g>
<g><path style="opacity:1" fill="#da570b" d="M 162.5,-0.5 C 164.833,-0.5 167.167,-0.5 169.5,-0.5C 169.5,0.5 169.5,1.5 169.5,2.5C 167.776,2.46072 167.443,2.79405 168.5,3.5C 168.338,5.5273 168.505,7.5273 169,9.5C 171.071,10.1029 172.238,11.4362 172.5,13.5C 169.889,12.6487 167.223,12.482 164.5,13C 166.068,7.37261 165.068,7.03928 161.5,12C 158.059,14.0539 154.392,15.5539 150.5,16.5C 150.167,15.1667 149.833,13.8333 149.5,12.5C 152.849,10.066 156.349,7.73267 160,5.5C 160.573,3.35943 161.406,1.35943 162.5,-0.5 Z"/></g>
<g><path style="opacity:1" fill="#f3efd5" d="M 121.5,-0.5 C 123.833,-0.5 126.167,-0.5 128.5,-0.5C 129.369,1.71702 129.702,4.05035 129.5,6.5C 128.475,7.37386 127.808,8.54053 127.5,10C 127.923,13.4778 128.923,16.6444 130.5,19.5C 130.5,19.8333 130.5,20.1667 130.5,20.5C 130.785,22.288 130.452,23.9547 129.5,25.5C 128.893,25.3764 128.56,25.0431 128.5,24.5C 126.326,16.1406 123.993,7.80731 121.5,-0.5 Z"/></g>
<g><path style="opacity:1" fill="#6a524c" d="M 130.5,-0.5 C 133.5,-0.5 136.5,-0.5 139.5,-0.5C 139.5,-0.166667 139.5,0.166667 139.5,0.5C 136.253,0.928632 136.253,2.26197 139.5,4.5C 141.86,9.76772 140.194,12.4344 134.5,12.5C 134.444,7.98275 133.111,3.64942 130.5,-0.5 Z"/></g>
<g><path style="opacity:1" fill="#f1c86d" d="M 139.5,0.5 C 139.5,0.166667 139.5,-0.166667 139.5,-0.5C 140.5,-0.5 141.5,-0.5 142.5,-0.5C 143.475,1.79525 144.808,3.79525 146.5,5.5C 146.328,6.49162 146.662,7.15829 147.5,7.5C 147.833,8.83333 148.167,10.1667 148.5,11.5C 146.833,9.5 145.167,7.5 143.5,5.5C 142.864,3.20537 141.531,1.5387 139.5,0.5 Z"/></g>
<g><path style="opacity:1" fill="#faefb3" d="M 152.5,-0.5 C 153.167,-0.5 153.833,-0.5 154.5,-0.5C 154.717,3.05953 155.717,3.05953 157.5,-0.5C 158.167,-0.5 158.833,-0.5 159.5,-0.5C 156.845,4.15023 152.845,6.81689 147.5,7.5C 146.662,7.15829 146.328,6.49162 146.5,5.5C 148.923,4.04994 150.923,2.04994 152.5,-0.5 Z"/></g>
<g><path style="opacity:1" fill="#e4802b" d="M 154.5,-0.5 C 155.5,-0.5 156.5,-0.5 157.5,-0.5C 155.717,3.05953 154.717,3.05953 154.5,-0.5 Z"/></g>
<g><path style="opacity:1" fill="#e3af73" d="M 197.5,8.5 C 196.528,6.50691 195.195,6.17357 193.5,7.5C 191.262,8.53664 188.929,8.70331 186.5,8C 185.748,7.32924 185.414,6.4959 185.5,5.5C 186.915,6.28944 188.415,6.95611 190,7.5C 193.691,4.98395 197.525,2.65062 201.5,0.5C 201.628,2.12916 200.628,3.46249 198.5,4.5C 197.571,5.68884 197.238,7.02218 197.5,8.5 Z"/></g>
<g><path style="opacity:1" fill="#f9f8d4" d="M 62.5,-0.5 C 63.5,-0.5 64.5,-0.5 65.5,-0.5C 66.9933,6.47243 68.3266,13.4724 69.5,20.5C 68.8333,21.8333 68.1667,23.1667 67.5,24.5C 66.4799,16.066 64.8132,7.73262 62.5,-0.5 Z"/></g>
<g><path style="opacity:1" fill="#b79e71" d="M 65.5,-0.5 C 66.5,-0.5 67.5,-0.5 68.5,-0.5C 72.6845,0.166411 77.0178,0.833078 81.5,1.5C 81.8627,2.18346 82.1961,2.85013 82.5,3.5C 74.9119,1.89182 72.2452,4.55848 74.5,11.5C 74.9621,17.2736 75.9621,22.9402 77.5,28.5C 73.1617,28.6219 72.8284,28.9553 76.5,29.5C 76.482,35.508 77.1487,41.3413 78.5,47C 78.0005,52.8272 77.6671,58.6605 77.5,64.5C 76.6762,60.6877 76.1762,56.6877 76,52.5C 75.7216,51.5842 75.2216,50.9175 74.5,50.5C 73.2994,46.7366 71.7994,43.07 70,39.5C 69.5034,37.1902 69.3367,34.8568 69.5,32.5C 70.1174,32.6107 70.6174,32.944 71,33.5C 72.527,38.9426 74.3603,44.276 76.5,49.5C 76.8333,48.8333 77.1667,48.1667 77.5,47.5C 74.6562,38.439 71.9896,29.439 69.5,20.5C 68.3266,13.4724 66.9933,6.47243 65.5,-0.5 Z"/></g>
<g><path style="opacity:1" fill="#8f816a" d="M 104.5,1.5 C 104.03,2.69348 103.03,3.36015 101.5,3.5C 97.3192,3.84955 93.3192,4.68288 89.5,6C 90.4158,6.27842 91.0825,6.77842 91.5,7.5C 85.8333,7.5 80.1667,7.5 74.5,7.5C 74.5,8.83333 74.5,10.1667 74.5,11.5C 72.2452,4.55848 74.9119,1.89182 82.5,3.5C 89.7771,2.32125 97.1104,1.65459 104.5,1.5 Z"/></g>
<g><path style="opacity:1" fill="#795a41" d="M 104.5,-0.5 C 105.833,-0.5 107.167,-0.5 108.5,-0.5C 108.823,3.22605 108.489,6.89272 107.5,10.5C 106.808,9.97473 106.308,9.30806 106,8.5C 105.833,9.66667 105.667,10.8333 105.5,12C 106.501,15.3394 106.501,18.506 105.5,21.5C 104.941,17.1474 104.275,12.814 103.5,8.5C 99.4659,8.49546 95.4659,8.16213 91.5,7.5C 91.0825,6.77842 90.4158,6.27842 89.5,6C 93.3192,4.68288 97.3192,3.84955 101.5,3.5C 103.03,3.36015 104.03,2.69348 104.5,1.5C 104.5,0.833333 104.5,0.166667 104.5,-0.5 Z"/></g>
<g><path style="opacity:1" fill="#9a8aa8" d="M 128.5,-0.5 C 129.167,-0.5 129.833,-0.5 130.5,-0.5C 133.111,3.64942 134.444,7.98275 134.5,12.5C 133.662,12.8417 133.328,13.5084 133.5,14.5C 130.863,12.5182 129.53,9.85152 129.5,6.5C 129.702,4.05035 129.369,1.71702 128.5,-0.5 Z"/></g>
<g><path style="opacity:1" fill="#b0a9df" d="M 139.5,4.5 C 140.708,5.23411 142.041,5.56745 143.5,5.5C 144.517,8.02668 144.517,10.5267 143.5,13C 142.644,14.5947 141.311,15.428 139.5,15.5C 137.435,15.4828 135.435,15.1495 133.5,14.5C 133.328,13.5084 133.662,12.8417 134.5,12.5C 140.194,12.4344 141.86,9.76772 139.5,4.5 Z"/></g>
<g><path style="opacity:1" fill="#e2b4c6" d="M 143.5,5.5 C 145.167,7.5 146.833,9.5 148.5,11.5C 148.5,11.8333 148.5,12.1667 148.5,12.5C 148.5,15.1667 148.5,17.8333 148.5,20.5C 143.918,21.3611 140.918,19.6945 139.5,15.5C 141.311,15.428 142.644,14.5947 143.5,13C 144.517,10.5267 144.517,8.02668 143.5,5.5 Z"/></g>
<g><path style="opacity:1" fill="#a5784e" d="M 212.5,11.5 C 212.5,12.1667 212.167,12.5 211.5,12.5C 209.473,12.3379 207.473,12.5045 205.5,13C 203.023,15.7075 200.023,17.0408 196.5,17C 197.24,15.2151 197.907,13.3817 198.5,11.5C 196.075,10.3507 196.075,9.68402 198.5,9.5C 199.29,10.6085 199.79,11.9419 200,13.5C 202.414,11.7093 204.914,10.0426 207.5,8.5C 208.293,9.35538 207.96,10.1887 206.5,11C 208.473,11.4955 210.473,11.6621 212.5,11.5 Z"/></g>
<g><path style="opacity:1" fill="#531e03" d="M 212.5,11.5 C 213.376,11.3691 214.043,11.7025 214.5,12.5C 213.15,13.9501 211.484,14.6168 209.5,14.5C 210.167,13.8333 210.833,13.1667 211.5,12.5C 212.167,12.5 212.5,12.1667 212.5,11.5 Z"/></g>
<g><path style="opacity:1" fill="#ecbc70" d="M 148.5,12.5 C 148.833,12.5 149.167,12.5 149.5,12.5C 149.833,13.8333 150.167,15.1667 150.5,16.5C 150.5,17.5 150.5,18.5 150.5,19.5C 150.5,20.1667 150.5,20.8333 150.5,21.5C 149.833,21.1667 149.167,20.8333 148.5,20.5C 148.5,17.8333 148.5,15.1667 148.5,12.5 Z"/></g>
<g><path style="opacity:1" fill="#a17b5e" d="M 91.5,7.5 C 95.4659,8.16213 99.4659,8.49546 103.5,8.5C 104.275,12.814 104.941,17.1474 105.5,21.5C 103.038,24.4639 100.371,27.2972 97.5,30C 96.365,30.7494 95.365,30.5827 94.5,29.5C 95.6283,28.7379 96.7949,28.0712 98,27.5C 98.5588,23.8136 99.2255,20.147 100,16.5C 100.308,17.3081 100.808,17.9747 101.5,18.5C 102.652,15.8938 102.818,13.2272 102,10.5C 99.2574,11.6286 96.5908,11.2953 94,9.5C 91.1826,9.54374 89.0159,10.7104 87.5,13C 90.2263,13.1816 92.8929,13.6816 95.5,14.5C 91.7652,15.1527 88.0985,15.9861 84.5,17C 83.5868,18.4139 83.5868,19.9139 84.5,21.5C 82.7202,20.0101 82.0535,18.0101 82.5,15.5C 86.7895,15.2558 87.4561,13.5891 84.5,10.5C 82.7536,9.60469 80.9203,8.93802 79,8.5C 78.0546,8.90536 77.3879,9.57203 77,10.5C 76.7427,16.0421 77.2427,21.5421 78.5,27C 78.519,28.7918 78.1857,29.2918 77.5,28.5C 75.9621,22.9402 74.9621,17.2736 74.5,11.5C 74.5,10.1667 74.5,8.83333 74.5,7.5C 80.1667,7.5 85.8333,7.5 91.5,7.5 Z"/></g>
<g><path style="opacity:1" fill="#b1713e" d="M 207.5,14.5 C 209.984,15.3689 212.651,16.0356 215.5,16.5C 216.713,16.7472 217.38,17.4138 217.5,18.5C 212.477,17.3423 207.477,17.1756 202.5,18C 203.846,16.3308 205.513,15.1642 207.5,14.5 Z"/></g>
<g><path style="opacity:1" fill="#9f4303" d="M 205.5,31.5 C 203.643,32.7537 201.643,32.7537 199.5,31.5C 199.167,31.8333 198.833,32.1667 198.5,32.5C 199.325,33.3857 200.325,33.719 201.5,33.5C 201.5,34.8333 201.5,36.1667 201.5,37.5C 200.226,38.1894 200.226,39.0228 201.5,40C 199.866,40.4935 198.199,40.6602 196.5,40.5C 196.167,40.5 195.833,40.5 195.5,40.5C 194.474,37.6277 192.808,35.1277 190.5,33C 185.479,30.8211 180.479,28.6544 175.5,26.5C 173.167,25.8333 170.833,25.1667 168.5,24.5C 167.21,23.0652 165.544,22.0652 163.5,21.5C 165.108,18.4093 167.441,17.7427 170.5,19.5C 171.833,18.8333 173.167,18.1667 174.5,17.5C 177.733,18.197 180.9,18.5303 184,18.5C 185.041,21.6363 184.207,24.1363 181.5,26C 181.833,26.1667 182.167,26.3333 182.5,26.5C 185.276,24.8702 188.276,24.2035 191.5,24.5C 191.5,26.1667 191.5,27.8333 191.5,29.5C 196.409,29.1204 201.076,29.787 205.5,31.5 Z"/></g>
<g><path style="opacity:1" fill="#c75305" d="M 197.5,8.5 C 198.167,8.5 198.5,8.83333 198.5,9.5C 196.075,9.68402 196.075,10.3507 198.5,11.5C 197.907,13.3817 197.24,15.2151 196.5,17C 200.023,17.0408 203.023,15.7075 205.5,13C 207.473,12.5045 209.473,12.3379 211.5,12.5C 210.833,13.1667 210.167,13.8333 209.5,14.5C 208.833,14.5 208.167,14.5 207.5,14.5C 205.513,15.1642 203.846,16.3308 202.5,18C 207.477,17.1756 212.477,17.3423 217.5,18.5C 218.833,20.1667 218.833,21.8333 217.5,23.5C 216.022,23.238 214.689,23.5713 213.5,24.5C 215.396,25.4656 217.396,25.7989 219.5,25.5C 220.807,26.1534 222.14,26.8201 223.5,27.5C 229.102,25.7092 229.769,26.7092 225.5,30.5C 226.5,31.3333 227.5,32.1667 228.5,33C 226.559,33.7429 224.726,33.5762 223,32.5C 223.081,36.2627 225.081,38.596 229,39.5C 229.167,40.3333 229.333,41.1667 229.5,42C 229.316,43.3756 228.649,44.2089 227.5,44.5C 226.542,44.0472 225.708,43.3805 225,42.5C 224.068,39.1096 222.568,36.1096 220.5,33.5C 218.058,33.6463 217.391,32.813 218.5,31C 214.113,30.2938 209.78,30.4604 205.5,31.5C 201.076,29.787 196.409,29.1204 191.5,29.5C 191.5,27.8333 191.5,26.1667 191.5,24.5C 188.276,24.2035 185.276,24.8702 182.5,26.5C 182.167,26.3333 181.833,26.1667 181.5,26C 184.207,24.1363 185.041,21.6363 184,18.5C 180.9,18.5303 177.733,18.197 174.5,17.5C 173.167,18.1667 171.833,18.8333 170.5,19.5C 167.441,17.7427 165.108,18.4093 163.5,21.5C 165.544,22.0652 167.21,23.0652 168.5,24.5C 167.833,24.5 167.167,24.5 166.5,24.5C 164.393,23.5318 162.059,23.1984 159.5,23.5C 159.5,23.1667 159.5,22.8333 159.5,22.5C 160.292,21.0331 160.292,19.6998 159.5,18.5C 156.767,20.7496 153.767,21.083 150.5,19.5C 150.5,18.5 150.5,17.5 150.5,16.5C 154.392,15.5539 158.059,14.0539 161.5,12C 165.068,7.03928 166.068,7.37261 164.5,13C 167.223,12.482 169.889,12.6487 172.5,13.5C 173.627,14.1217 174.627,14.955 175.5,16C 180.533,16.171 185.533,16.671 190.5,17.5C 189.833,18.5 189.167,19.5 188.5,20.5C 188.833,20.8333 189.167,21.1667 189.5,21.5C 192.926,17.4994 194.259,12.8327 193.5,7.5C 195.195,6.17357 196.528,6.50691 197.5,8.5 Z"/></g>
<g><path style="opacity:1" fill="#ad8c96" d="M 133.5,14.5 C 135.435,15.1495 137.435,15.4828 139.5,15.5C 140.918,19.6945 143.918,21.3611 148.5,20.5C 149.167,20.8333 149.833,21.1667 150.5,21.5C 153.455,22.1587 156.455,22.4921 159.5,22.5C 159.5,22.8333 159.5,23.1667 159.5,23.5C 153.112,23.6881 146.778,23.1881 140.5,22C 137.989,19.6565 135.656,17.1565 133.5,14.5 Z"/></g>
<g><path style="opacity:1" fill="#2a1108" d="M 159.5,22.5 C 156.455,22.4921 153.455,22.1587 150.5,21.5C 150.5,20.8333 150.5,20.1667 150.5,19.5C 153.767,21.083 156.767,20.7496 159.5,18.5C 160.292,19.6998 160.292,21.0331 159.5,22.5 Z"/></g>
<g><path style="opacity:1" fill="#94614b" d="M 132.5,19.5 C 133.537,21.7375 133.703,24.0709 133,26.5C 132.434,24.2774 131.6,22.2774 130.5,20.5C 130.5,20.1667 130.5,19.8333 130.5,19.5C 131.167,18.1667 131.833,18.1667 132.5,19.5 Z"/></g>
<g><path style="opacity:1" fill="#a089a2" d="M 110.5,-0.5 C 112.5,-0.5 114.5,-0.5 116.5,-0.5C 116.351,0.551975 116.517,1.55198 117,2.5C 117.71,1.02674 118.876,0.360072 120.5,0.5C 121.021,7.35056 122.355,14.0172 124.5,20.5C 122.946,24.3901 123.279,28.0568 125.5,31.5C 126.738,28.8322 126.738,26.1655 125.5,23.5C 125.833,23.1667 126.167,22.8333 126.5,22.5C 127.182,23.2427 127.849,23.9094 128.5,24.5C 128.56,25.0431 128.893,25.3764 129.5,25.5C 130.452,23.9547 130.785,22.288 130.5,20.5C 131.6,22.2774 132.434,24.2774 133,26.5C 133.703,24.0709 133.537,21.7375 132.5,19.5C 135.175,21.1698 137.841,22.8365 140.5,24.5C 137.815,30.437 135.815,36.6037 134.5,43C 135.167,44 135.833,45 136.5,46C 136.43,46.7648 136.097,47.2648 135.5,47.5C 135.631,46.6236 135.298,45.9569 134.5,45.5C 133.939,49.481 132.939,53.3143 131.5,57C 131.989,58.1385 132.322,59.3052 132.5,60.5C 130.5,62.1667 128.5,63.8333 126.5,65.5C 126.834,63.3342 126.834,61.0009 126.5,58.5C 126.5,57.5 126.5,56.5 126.5,55.5C 127.833,55.5 129.167,55.5 130.5,55.5C 130.373,51.7382 129.706,48.0715 128.5,44.5C 127.377,42.711 126.044,42.3776 124.5,43.5C 125.5,44.3333 126.5,45.1667 127.5,46C 124.694,45.9 122.028,45.0667 119.5,43.5C 119.709,42.914 120.043,42.414 120.5,42C 117.698,39.8948 116.365,37.0614 116.5,33.5C 117.552,33.6495 118.552,33.4828 119.5,33C 117.322,28.4503 116.155,23.617 116,18.5C 115.292,17.6195 114.458,16.9528 113.5,16.5C 112.584,10.8534 111.584,5.18671 110.5,-0.5 Z"/></g>
<g><path style="opacity:1" fill="#e7df97" d="M 129.5,6.5 C 129.53,9.85152 130.863,12.5182 133.5,14.5C 135.656,17.1565 137.989,19.6565 140.5,22C 146.778,23.1881 153.112,23.6881 159.5,23.5C 162.059,23.1984 164.393,23.5318 166.5,24.5C 165.833,24.5 165.5,24.8333 165.5,25.5C 157.112,25.7729 148.779,25.4396 140.5,24.5C 137.841,22.8365 135.175,21.1698 132.5,19.5C 131.833,18.1667 131.167,18.1667 130.5,19.5C 128.923,16.6444 127.923,13.4778 127.5,10C 127.808,8.54053 128.475,7.37386 129.5,6.5 Z"/></g>
<g><path style="opacity:1" fill="#b37b49" d="M 239.5,24.5 C 239.631,23.7611 239.464,23.0944 239,22.5C 238.097,23.7014 236.931,24.5348 235.5,25C 229.995,24.7869 224.662,24.9536 219.5,25.5C 217.396,25.7989 215.396,25.4656 213.5,24.5C 214.689,23.5713 216.022,23.238 217.5,23.5C 222.201,23.3516 226.868,23.6849 231.5,24.5C 234.703,24.2317 237.37,22.8984 239.5,20.5C 240.782,21.9584 240.782,23.2918 239.5,24.5 Z"/></g>
<g><path style="opacity:1" fill="#f4f6d0" d="M -0.5,-0.5 C 4.5,-0.5 9.5,-0.5 14.5,-0.5C 14.4413,1.72239 13.2747,2.72239 11,2.5C 8.92108,1.59724 6.75442,0.930574 4.5,0.5C 3.22838,0.569832 2.06171,0.903165 1,1.5C 0.231337,6.34083 0.731337,11.0075 2.5,15.5C 4.5,15.5 6.5,15.5 8.5,15.5C 8.56056,20.6197 6.56056,24.7864 2.5,28C 3.78987,30.292 5.45654,32.292 7.5,34C 6.57614,34.85 6.57614,35.85 7.5,37C 5.82628,40.3432 3.15962,42.5099 -0.5,43.5C -0.5,28.8333 -0.5,14.1667 -0.5,-0.5 Z"/></g>
<g><path style="opacity:1" fill="#f8f3e7" d="M 165.5,25.5 C 165.5,24.8333 165.833,24.5 166.5,24.5C 167.167,24.5 167.833,24.5 168.5,24.5C 170.833,25.1667 173.167,25.8333 175.5,26.5C 175.158,27.3382 174.492,27.6716 173.5,27.5C 170.659,27.4403 167.993,26.7736 165.5,25.5 Z"/></g>
<g><path style="opacity:1" fill="#947c80" d="M 116.5,-0.5 C 118.167,-0.5 119.833,-0.5 121.5,-0.5C 123.993,7.80731 126.326,16.1406 128.5,24.5C 127.849,23.9094 127.182,23.2427 126.5,22.5C 126.167,22.8333 125.833,23.1667 125.5,23.5C 126.738,26.1655 126.738,28.8322 125.5,31.5C 123.279,28.0568 122.946,24.3901 124.5,20.5C 122.355,14.0172 121.021,7.35056 120.5,0.5C 118.876,0.360072 117.71,1.02674 117,2.5C 116.517,1.55198 116.351,0.551975 116.5,-0.5 Z"/></g>
<g><path style="opacity:1" fill="#cf7335" d="M 108.5,24.5 C 106.573,27.7673 104.239,30.7673 101.5,33.5C 100.417,33.5394 99.4168,33.8728 98.5,34.5C 97.1667,33.5 97.1667,32.5 98.5,31.5C 102.883,28.3672 106.05,24.3672 108,19.5C 108.494,21.1341 108.66,22.8008 108.5,24.5 Z"/></g>
<g><path style="opacity:1" fill="#fdfdf9" d="M 69.5,20.5 C 68.3749,24.5213 68.3749,28.5213 69.5,32.5C 69.3367,34.8568 69.5034,37.1902 70,39.5C 71.7994,43.07 73.2994,46.7366 74.5,50.5C 74.6338,54.3136 73.3005,57.3136 70.5,59.5C 68.8333,58.5 67.5,57.1667 66.5,55.5C 66.2605,51.1578 65.9272,46.8244 65.5,42.5C 63.4078,42.4386 61.9078,41.4386 61,39.5C 60.1618,40.999 59.3285,41.3324 58.5,40.5C 60.2066,37.1302 62.8733,34.7968 66.5,33.5C 67.4841,30.5719 67.8174,27.5719 67.5,24.5C 68.1667,23.1667 68.8333,21.8333 69.5,20.5 Z"/></g>
<g><path style="opacity:1" fill="#9e7c7c" d="M 113.5,16.5 C 114.458,16.9528 115.292,17.6195 116,18.5C 116.155,23.617 117.322,28.4503 119.5,33C 118.552,33.4828 117.552,33.6495 116.5,33.5C 116.365,37.0614 117.698,39.8948 120.5,42C 120.043,42.414 119.709,42.914 119.5,43.5C 122.028,45.0667 124.694,45.9 127.5,46C 126.5,45.1667 125.5,44.3333 124.5,43.5C 126.044,42.3776 127.377,42.711 128.5,44.5C 129.706,48.0715 130.373,51.7382 130.5,55.5C 129.167,55.5 127.833,55.5 126.5,55.5C 126.5,56.5 126.5,57.5 126.5,58.5C 125.512,57.205 124.512,55.8717 123.5,54.5C 123.158,53.6618 122.492,53.3284 121.5,53.5C 123.931,52.2591 123.931,51.0924 121.5,50C 122.731,48.8173 122.731,47.6507 121.5,46.5C 116.172,42.6366 114.005,37.3032 115,30.5C 114.667,30.1667 114.333,29.8333 114,29.5C 113.833,30.3333 113.667,31.1667 113.5,32C 114.57,36.8121 115.07,41.6455 115,46.5C 111.023,42.0232 109.356,36.6899 110,30.5C 108.989,31.3366 107.822,31.67 106.5,31.5C 106.565,31.0618 106.399,30.7284 106,30.5C 105.059,32.0614 103.892,33.3947 102.5,34.5C 101.893,34.3764 101.56,34.0431 101.5,33.5C 104.239,30.7673 106.573,27.7673 108.5,24.5C 109.833,24.5 111.167,24.5 112.5,24.5C 112.714,22.8561 112.38,21.3561 111.5,20C 112.823,19.1841 113.489,18.0174 113.5,16.5 Z"/></g>
<g><path style="opacity:1" fill="#242521" d="M 237.5,28.5 C 238.374,29.5251 239.541,30.1918 241,30.5C 245.206,29.6061 249.206,30.2728 253,32.5C 253.671,31.7476 254.504,31.4142 255.5,31.5C 255.5,35.5 255.5,39.5 255.5,43.5C 250.904,42.2333 246.237,41.7333 241.5,42C 240.287,44.6865 239.62,47.5198 239.5,50.5C 238.817,45.9382 237.983,41.2716 237,36.5C 235.926,35.3816 234.76,34.3816 233.5,33.5C 234.887,31.79 236.221,30.1233 237.5,28.5 Z"/></g>
<g><path style="opacity:1" fill="#936966" d="M 140.5,24.5 C 148.779,25.4396 157.112,25.7729 165.5,25.5C 167.993,26.7736 170.659,27.4403 173.5,27.5C 176.606,29.2679 179.939,30.7679 183.5,32C 184.71,33.0391 185.71,34.2058 186.5,35.5C 181.69,34.0186 177.023,34.3519 172.5,36.5C 168.993,36.9205 165.659,37.9205 162.5,39.5C 162.5,38.1667 162.5,36.8333 162.5,35.5C 160.345,35.372 158.345,35.872 156.5,37C 154.741,39.3816 152.741,41.5483 150.5,43.5C 149.522,43.0233 148.689,42.3567 148,41.5C 147.129,45.3277 144.629,47.3277 140.5,47.5C 139.687,48.8139 138.687,49.9805 137.5,51C 136.184,51.5281 135.517,51.0281 135.5,49.5C 135.5,48.8333 135.5,48.1667 135.5,47.5C 136.097,47.2648 136.43,46.7648 136.5,46C 135.833,45 135.167,44 134.5,43C 135.815,36.6037 137.815,30.437 140.5,24.5 Z"/></g>
<g><path style="opacity:1" fill="#c05106" d="M 239.5,24.5 C 238.833,25.8333 238.167,27.1667 237.5,28.5C 236.221,30.1233 234.887,31.79 233.5,33.5C 234.76,34.3816 235.926,35.3816 237,36.5C 237.983,41.2716 238.817,45.9382 239.5,50.5C 240.129,53.1289 241.795,54.7956 244.5,55.5C 242.855,56.6963 241.189,57.6963 239.5,58.5C 238.247,63.5265 236.914,68.5265 235.5,73.5C 232.875,69.2337 231.042,64.5671 230,59.5C 228.995,62.6723 227.828,65.0056 226.5,66.5C 225.521,68.1454 224.188,69.4787 222.5,70.5C 221.679,67.5535 221.179,64.5535 221,61.5C 219.981,60.3128 218.814,59.3128 217.5,58.5C 215.976,61.0739 214.642,63.7406 213.5,66.5C 212.503,66.5299 211.836,66.0299 211.5,65C 210.849,60.5495 209.516,56.3828 207.5,52.5C 210.122,54.4125 212.289,56.7458 214,59.5C 216.257,57.9758 218.59,56.6425 221,55.5C 222.261,55.7591 223.261,56.4258 224,57.5C 224.333,57.1667 224.667,56.8333 225,56.5C 225.29,58.0441 225.956,59.3774 227,60.5C 228.825,55.2625 228.991,49.9291 227.5,44.5C 228.649,44.2089 229.316,43.3756 229.5,42C 229.333,41.1667 229.167,40.3333 229,39.5C 225.081,38.596 223.081,36.2627 223,32.5C 224.726,33.5762 226.559,33.7429 228.5,33C 227.5,32.1667 226.5,31.3333 225.5,30.5C 229.769,26.7092 229.102,25.7092 223.5,27.5C 222.14,26.8201 220.807,26.1534 219.5,25.5C 224.662,24.9536 229.995,24.7869 235.5,25C 236.931,24.5348 238.097,23.7014 239,22.5C 239.464,23.0944 239.631,23.7611 239.5,24.5 Z"/></g>
<g><path style="opacity:1" fill="#ffc68a" d="M 212.5,36.5 C 211.5,37.1667 210.5,37.8333 209.5,38.5C 206.615,38.8064 203.948,38.4731 201.5,37.5C 203.568,36.2594 205.735,35.2594 208,34.5C 209.876,34.5247 211.376,35.1914 212.5,36.5 Z"/></g>
<g><path style="opacity:1" fill="#9a9c81" d="M 51.5,-0.5 C 54.5,-0.5 57.5,-0.5 60.5,-0.5C 60.1525,5.35999 57.8192,10.1933 53.5,14C 54.6427,18.4577 55.6427,22.9577 56.5,27.5C 55.6842,31.3298 54.3509,34.9964 52.5,38.5C 51.0921,39.2432 49.7588,40.0766 48.5,41C 48.8333,41.3333 49.1667,41.6667 49.5,42C 47.9617,43.9321 46.795,46.0988 46,48.5C 44.0448,49.4533 42.3782,50.7866 41,52.5C 39.1656,57.6616 36.4989,62.3283 33,66.5C 28.8959,69.3194 24.3959,72.4861 19.5,76C 22.1059,77.9384 23.9392,80.4384 25,83.5C 25.2599,87.2498 25.9266,90.9164 27,94.5C 28.0674,95.1905 29.2341,95.6905 30.5,96C 31.8333,96.6667 31.8333,97.3333 30.5,98C 32.7554,98.4526 34.0888,99.7859 34.5,102C 33.131,105.714 32.4643,109.547 32.5,113.5C 28.8733,112.679 25.54,111.346 22.5,109.5C 22.0248,106.115 23.3582,103.782 26.5,102.5C 25.7401,100.64 24.7401,98.973 23.5,97.5C 22.7724,92.5488 22.2724,87.5488 22,82.5C 19.7895,78.945 16.6229,77.1116 12.5,77C 12.9426,75.4815 12.2759,74.3148 10.5,73.5C 13.1437,72.1782 16.1437,70.6782 19.5,69C 22.3932,65.0112 26.3932,62.6779 31.5,62C 36.2911,54.9186 40.9578,47.752 45.5,40.5C 45.2907,39.914 44.9574,39.414 44.5,39C 46.2932,36.2047 48.4598,33.7047 51,31.5C 52.3994,28.9794 52.8994,26.4794 52.5,24C 47.8288,16.7179 48.4954,10.0512 54.5,4C 53.1667,3.33333 53.1667,2.66667 54.5,2C 53.0577,1.62325 52.0577,0.789915 51.5,-0.5 Z"/></g>
<g><path style="opacity:1" fill="#987366" d="M 121.5,53.5 C 120.167,53.5 118.833,53.5 117.5,53.5C 115.735,52.5386 113.735,52.2053 111.5,52.5C 109.709,45.5459 108.042,38.5459 106.5,31.5C 107.822,31.67 108.989,31.3366 110,30.5C 109.356,36.6899 111.023,42.0232 115,46.5C 115.07,41.6455 114.57,36.8121 113.5,32C 113.667,31.1667 113.833,30.3333 114,29.5C 114.333,29.8333 114.667,30.1667 115,30.5C 114.005,37.3032 116.172,42.6366 121.5,46.5C 122.731,47.6507 122.731,48.8173 121.5,50C 123.931,51.0924 123.931,52.2591 121.5,53.5 Z"/></g>
<g><path style="opacity:1" fill="#eddf85" d="M 175.5,26.5 C 180.479,28.6544 185.479,30.8211 190.5,33C 192.808,35.1277 194.474,37.6277 195.5,40.5C 196.044,44.6399 195.044,45.3065 192.5,42.5C 191.833,41.1667 190.833,40.1667 189.5,39.5C 188.5,38.1667 187.5,36.8333 186.5,35.5C 185.71,34.2058 184.71,33.0391 183.5,32C 179.939,30.7679 176.606,29.2679 173.5,27.5C 174.492,27.6716 175.158,27.3382 175.5,26.5 Z"/></g>
<g><path style="opacity:1" fill="#f3f1d7" d="M 69.5,20.5 C 71.9896,29.439 74.6562,38.439 77.5,47.5C 77.1667,48.1667 76.8333,48.8333 76.5,49.5C 74.3603,44.276 72.527,38.9426 71,33.5C 70.6174,32.944 70.1174,32.6107 69.5,32.5C 68.3749,28.5213 68.3749,24.5213 69.5,20.5 Z"/></g>
<g><path style="opacity:1" fill="#dddebb" d="M 23.5,-0.5 C 24.5,-0.5 25.5,-0.5 26.5,-0.5C 29.4627,1.78552 32.796,3.61885 36.5,5C 37.7014,5.90252 38.5348,7.06919 39,8.5C 39.6667,11.8333 39.6667,15.1667 39,18.5C 36.4816,20.6818 35.3149,23.1818 35.5,26C 34.8405,31.5655 33.6739,37.0655 32,42.5C 28.5206,45.6495 25.354,49.1495 22.5,53C 19.5564,53.9704 16.5564,54.8038 13.5,55.5C 13.0769,58.6026 12.0769,61.436 10.5,64C 6.77888,64.6781 3.11222,64.5114 -0.5,63.5C -0.5,62.1667 -0.5,60.8333 -0.5,59.5C 7.30986,62.5106 10.8099,59.8439 10,51.5C 17.8098,47.8311 23.4764,42.1645 27,34.5C 26.9896,27.4394 26.1563,20.4394 24.5,13.5C 24.6667,12.1667 24.8333,10.8333 25,9.5C 25.3333,9.83333 25.6667,10.1667 26,10.5C 26.5,9 27,7.5 27.5,6C 26.2764,3.71017 24.9431,1.54351 23.5,-0.5 Z"/></g>
<g><path style="opacity:1" fill="#ffbb45" d="M 212.5,36.5 C 216.8,35.7988 219.466,37.4655 220.5,41.5C 219.167,40.8333 217.833,40.1667 216.5,39.5C 213.941,39.8016 211.607,39.4682 209.5,38.5C 210.5,37.8333 211.5,37.1667 212.5,36.5 Z"/></g>
<g><path style="opacity:1" fill="#bd683a" d="M 80.5,32.5 C 84.8647,34.0402 88.8647,36.2069 92.5,39C 94.5781,40.4858 95.9115,42.4858 96.5,45C 97.448,45.4828 98.448,45.6495 99.5,45.5C 100.644,55.0326 102.644,64.3659 105.5,73.5C 103.908,72.3984 103.075,73.065 103,75.5C 102.768,74.2625 102.268,73.2625 101.5,72.5C 98.8362,62.763 96.1695,53.0964 93.5,43.5C 91.8577,42.197 90.1911,40.8637 88.5,39.5C 86.1932,38.3466 83.8599,37.1799 81.5,36C 80.6634,34.9887 80.33,33.8221 80.5,32.5 Z"/></g>
<g><path style="opacity:1" fill="#9d6e46" d="M 108.5,-0.5 C 109.167,-0.5 109.833,-0.5 110.5,-0.5C 111.584,5.18671 112.584,10.8534 113.5,16.5C 113.489,18.0174 112.823,19.1841 111.5,20C 112.38,21.3561 112.714,22.8561 112.5,24.5C 111.167,24.5 109.833,24.5 108.5,24.5C 108.66,22.8008 108.494,21.1341 108,19.5C 106.05,24.3672 102.883,28.3672 98.5,31.5C 97.1667,32.5 97.1667,33.5 98.5,34.5C 99.4168,33.8728 100.417,33.5394 101.5,33.5C 101.56,34.0431 101.893,34.3764 102.5,34.5C 103.892,33.3947 105.059,32.0614 106,30.5C 106.399,30.7284 106.565,31.0618 106.5,31.5C 108.042,38.5459 109.709,45.5459 111.5,52.5C 113.735,52.2053 115.735,52.5386 117.5,53.5C 116.127,53.3433 114.793,53.51 113.5,54C 112.837,55.5185 111.837,56.6851 110.5,57.5C 108.458,50.6922 106.958,43.6922 106,36.5C 104.927,35.7203 103.76,35.887 102.5,37C 103.517,38.0495 103.684,39.2161 103,40.5C 101.513,39.2586 100.68,39.7586 100.5,42C 101.029,45.541 101.696,49.041 102.5,52.5C 104.606,53.3648 104.939,52.6981 103.5,50.5C 105.26,47.6524 106.26,47.9857 106.5,51.5C 106.931,54.3889 107.597,57.2222 108.5,60C 107.244,61.8449 106.244,63.8449 105.5,66C 105.639,67.301 106.305,68.1344 107.5,68.5C 108.676,77.534 110.01,86.534 111.5,95.5C 108.896,88.4253 106.896,81.0919 105.5,73.5C 102.644,64.3659 100.644,55.0326 99.5,45.5C 98.448,45.6495 97.448,45.4828 96.5,45C 95.9115,42.4858 94.5781,40.4858 92.5,39C 88.8647,36.2069 84.8647,34.0402 80.5,32.5C 80.9169,31.8761 81.5836,31.5427 82.5,31.5C 84.7617,32.4669 87.095,33.1336 89.5,33.5C 87.8464,29.5069 86.1797,25.5069 84.5,21.5C 83.5868,19.9139 83.5868,18.4139 84.5,17C 88.0985,15.9861 91.7652,15.1527 95.5,14.5C 92.8929,13.6816 90.2263,13.1816 87.5,13C 89.0159,10.7104 91.1826,9.54374 94,9.5C 96.5908,11.2953 99.2574,11.6286 102,10.5C 102.818,13.2272 102.652,15.8938 101.5,18.5C 100.808,17.9747 100.308,17.3081 100,16.5C 99.2255,20.147 98.5588,23.8136 98,27.5C 96.7949,28.0712 95.6283,28.7379 94.5,29.5C 95.365,30.5827 96.365,30.7494 97.5,30C 100.371,27.2972 103.038,24.4639 105.5,21.5C 106.501,18.506 106.501,15.3394 105.5,12C 105.667,10.8333 105.833,9.66667 106,8.5C 106.308,9.30806 106.808,9.97473 107.5,10.5C 108.489,6.89272 108.823,3.22605 108.5,-0.5 Z"/></g>
<g><path style="opacity:1" fill="#5c4d69" d="M 186.5,35.5 C 187.5,36.8333 188.5,38.1667 189.5,39.5C 191.079,42.1 190.745,44.4334 188.5,46.5C 186.261,45.2122 183.928,44.2122 181.5,43.5C 180.5,43.5 179.5,43.5 178.5,43.5C 176.052,42.5269 173.385,42.1936 170.5,42.5C 173.398,40.2275 173.064,38.7275 169.5,38C 170.737,37.7679 171.737,37.2679 172.5,36.5C 177.023,34.3519 181.69,34.0186 186.5,35.5 Z"/></g>
<g><path style="opacity:1" fill="#947685" d="M 162.5,39.5 C 160.924,40.1429 159.59,41.1429 158.5,42.5C 151.129,47.5244 143.129,50.8577 134.5,52.5C 134.263,51.209 134.596,50.209 135.5,49.5C 135.517,51.0281 136.184,51.5281 137.5,51C 138.687,49.9805 139.687,48.8139 140.5,47.5C 144.629,47.3277 147.129,45.3277 148,41.5C 148.689,42.3567 149.522,43.0233 150.5,43.5C 152.741,41.5483 154.741,39.3816 156.5,37C 158.345,35.872 160.345,35.372 162.5,35.5C 162.5,36.8333 162.5,38.1667 162.5,39.5 Z"/></g>
<g><path style="opacity:1" fill="#ffa87a" d="M 216.5,39.5 C 217.833,40.1667 219.167,40.8333 220.5,41.5C 221.058,42.7899 222.058,43.6232 223.5,44C 222.906,44.4643 222.239,44.631 221.5,44.5C 219.999,43.2485 218.332,42.2485 216.5,41.5C 216.5,40.8333 216.5,40.1667 216.5,39.5 Z"/></g>
<g><path style="opacity:1" fill="#fe8e23" d="M 201.5,37.5 C 203.948,38.4731 206.615,38.8064 209.5,38.5C 211.607,39.4682 213.941,39.8016 216.5,39.5C 216.5,40.1667 216.5,40.8333 216.5,41.5C 213.257,40.42 209.924,40.2534 206.5,41C 212.932,42.9606 212.932,44.1273 206.5,44.5C 204.703,43.2702 202.703,42.6036 200.5,42.5C 200.5,43.5 200.5,44.5 200.5,45.5C 199.5,45.5 198.5,45.5 197.5,45.5C 197.634,43.7085 197.301,42.0418 196.5,40.5C 198.199,40.6602 199.866,40.4935 201.5,40C 200.226,39.0228 200.226,38.1894 201.5,37.5 Z"/></g>
<g><path style="opacity:1" fill="#fcfcd4" d="M 66.5,55.5 C 65.3468,52.53 63.6801,49.8633 61.5,47.5C 59.9699,45.6535 57.9699,44.6535 55.5,44.5C 55.1667,44.5 54.8333,44.5 54.5,44.5C 55.5,42.8333 56.8333,41.5 58.5,40.5C 59.3285,41.3324 60.1618,40.999 61,39.5C 61.9078,41.4386 63.4078,42.4386 65.5,42.5C 65.9272,46.8244 66.2605,51.1578 66.5,55.5 Z"/></g>
<g><path style="opacity:1" fill="#8a5b3d" d="M 195.5,40.5 C 195.833,40.5 196.167,40.5 196.5,40.5C 197.301,42.0418 197.634,43.7085 197.5,45.5C 196.527,47.1392 195.194,48.4726 193.5,49.5C 193.414,48.5041 193.748,47.6708 194.5,47C 193.418,45.6703 192.751,44.1703 192.5,42.5C 195.044,45.3065 196.044,44.6399 195.5,40.5 Z"/></g>
<g><path style="opacity:1" fill="#8c8e75" d="M 60.5,-0.5 C 61.1667,-0.5 61.8333,-0.5 62.5,-0.5C 64.8132,7.73262 66.4799,16.066 67.5,24.5C 67.8174,27.5719 67.4841,30.5719 66.5,33.5C 62.8733,34.7968 60.2066,37.1302 58.5,40.5C 56.8333,41.5 55.5,42.8333 54.5,44.5C 51.0146,48.399 49.348,53.0657 49.5,58.5C 48.7784,58.0825 48.2784,57.4158 48,56.5C 44.7107,62.7931 41.8774,69.2931 39.5,76C 41.3653,79.3403 41.3653,82.507 39.5,85.5C 39.7093,86.086 40.0426,86.586 40.5,87C 39.376,87.2492 38.376,87.7492 37.5,88.5C 37.2954,92.2817 37.6288,96.115 38.5,100C 36.7725,104.415 35.4392,108.915 34.5,113.5C 33.8333,113.5 33.1667,113.5 32.5,113.5C 32.4643,109.547 33.131,105.714 34.5,102C 34.0888,99.7859 32.7554,98.4526 30.5,98C 31.8333,97.3333 31.8333,96.6667 30.5,96C 29.2341,95.6905 28.0674,95.1905 27,94.5C 25.9266,90.9164 25.2599,87.2498 25,83.5C 23.9392,80.4384 22.1059,77.9384 19.5,76C 24.3959,72.4861 28.8959,69.3194 33,66.5C 36.4989,62.3283 39.1656,57.6616 41,52.5C 42.3782,50.7866 44.0448,49.4533 46,48.5C 46.795,46.0988 47.9617,43.9321 49.5,42C 49.1667,41.6667 48.8333,41.3333 48.5,41C 49.7588,40.0766 51.0921,39.2432 52.5,38.5C 54.3509,34.9964 55.6842,31.3298 56.5,27.5C 55.6427,22.9577 54.6427,18.4577 53.5,14C 57.8192,10.1933 60.1525,5.35999 60.5,-0.5 Z"/></g>
<g><path style="opacity:1" fill="#957259" d="M 110.5,57.5 C 109.699,59.0418 109.366,60.7085 109.5,62.5C 107.72,63.9899 107.054,65.9899 107.5,68.5C 106.305,68.1344 105.639,67.301 105.5,66C 106.244,63.8449 107.244,61.8449 108.5,60C 107.597,57.2222 106.931,54.3889 106.5,51.5C 106.26,47.9857 105.26,47.6524 103.5,50.5C 104.939,52.6981 104.606,53.3648 102.5,52.5C 101.696,49.041 101.029,45.541 100.5,42C 100.68,39.7586 101.513,39.2586 103,40.5C 103.684,39.2161 103.517,38.0495 102.5,37C 103.76,35.887 104.927,35.7203 106,36.5C 106.958,43.6922 108.458,50.6922 110.5,57.5 Z"/></g>
<g><path style="opacity:1" fill="#dc610c" d="M 227.5,44.5 C 228.991,49.9291 228.825,55.2625 227,60.5C 225.956,59.3774 225.29,58.0441 225,56.5C 224.667,56.8333 224.333,57.1667 224,57.5C 223.261,56.4258 222.261,55.7591 221,55.5C 218.59,56.6425 216.257,57.9758 214,59.5C 212.289,56.7458 210.122,54.4125 207.5,52.5C 204.864,49.3489 201.531,48.1822 197.5,49C 197.043,49.414 196.709,49.914 196.5,50.5C 199.378,52.1059 202.378,53.4392 205.5,54.5C 203.141,55.7143 200.808,55.7143 198.5,54.5C 196.167,53.1667 193.833,53.1667 191.5,54.5C 190.662,54.1583 190.328,53.4916 190.5,52.5C 191.833,51.8333 192.833,50.8333 193.5,49.5C 195.194,48.4726 196.527,47.1392 197.5,45.5C 198.5,45.5 199.5,45.5 200.5,45.5C 200.5,44.5 200.5,43.5 200.5,42.5C 202.703,42.6036 204.703,43.2702 206.5,44.5C 208.531,48.0336 211.531,50.2003 215.5,51C 216.685,52.353 218.019,53.5197 219.5,54.5C 219.833,54 220.167,53.5 220.5,53C 218.424,51.7562 217.424,49.9229 217.5,47.5C 219.681,47.2837 221.347,48.117 222.5,50C 224.167,50.6667 225.833,50.6667 227.5,50C 225.623,48.8147 223.623,47.8147 221.5,47C 222.598,46.2303 222.598,45.397 221.5,44.5C 222.239,44.631 222.906,44.4643 223.5,44C 222.058,43.6232 221.058,42.7899 220.5,41.5C 219.466,37.4655 216.8,35.7988 212.5,36.5C 211.376,35.1914 209.876,34.5247 208,34.5C 205.735,35.2594 203.568,36.2594 201.5,37.5C 201.5,36.1667 201.5,34.8333 201.5,33.5C 200.325,33.719 199.325,33.3857 198.5,32.5C 198.833,32.1667 199.167,31.8333 199.5,31.5C 201.643,32.7537 203.643,32.7537 205.5,31.5C 209.78,30.4604 214.113,30.2938 218.5,31C 217.391,32.813 218.058,33.6463 220.5,33.5C 222.568,36.1096 224.068,39.1096 225,42.5C 225.708,43.3805 226.542,44.0472 227.5,44.5 Z"/></g>
<g><path style="opacity:1" fill="#7e7caa" d="M 172.5,36.5 C 171.737,37.2679 170.737,37.7679 169.5,38C 173.064,38.7275 173.398,40.2275 170.5,42.5C 168.928,43.6873 167.261,44.6873 165.5,45.5C 162.167,47.1667 158.833,48.8333 155.5,50.5C 156.999,47.0138 159.333,44.1805 162.5,42C 161.181,41.805 159.847,41.9717 158.5,42.5C 159.59,41.1429 160.924,40.1429 162.5,39.5C 165.659,37.9205 168.993,36.9205 172.5,36.5 Z"/></g>
<g><path style="opacity:1" fill="#674141" d="M 189.5,39.5 C 190.833,40.1667 191.833,41.1667 192.5,42.5C 192.751,44.1703 193.418,45.6703 194.5,47C 193.748,47.6708 193.414,48.5041 193.5,49.5C 192.833,50.8333 191.833,51.8333 190.5,52.5C 188.281,54.6061 185.615,55.6061 182.5,55.5C 180.906,52.2358 178.573,49.5691 175.5,47.5C 177.833,46.8333 180.167,46.1667 182.5,45.5C 182.137,44.8165 181.804,44.1499 181.5,43.5C 183.928,44.2122 186.261,45.2122 188.5,46.5C 190.745,44.4334 191.079,42.1 189.5,39.5 Z"/></g>
<g><path style="opacity:1" fill="#a8a98b" d="M 39.5,-0.5 C 43.5,-0.5 47.5,-0.5 51.5,-0.5C 52.0577,0.789915 53.0577,1.62325 54.5,2C 53.1667,2.66667 53.1667,3.33333 54.5,4C 48.4954,10.0512 47.8288,16.7179 52.5,24C 52.8994,26.4794 52.3994,28.9794 51,31.5C 48.4598,33.7047 46.2932,36.2047 44.5,39C 44.9574,39.414 45.2907,39.914 45.5,40.5C 40.9578,47.752 36.2911,54.9186 31.5,62C 26.3932,62.6779 22.3932,65.0112 19.5,69C 16.1437,70.6782 13.1437,72.1782 10.5,73.5C 12.2759,74.3148 12.9426,75.4815 12.5,77C 16.6229,77.1116 19.7895,78.945 22,82.5C 22.2724,87.5488 22.7724,92.5488 23.5,97.5C 19.4727,96.3902 17.306,93.7235 17,89.5C 15.8455,88.2567 14.5122,87.2567 13,86.5C 9.8003,91.2655 5.3003,93.5988 -0.5,93.5C -0.5,84.1667 -0.5,74.8333 -0.5,65.5C 3.08406,66.9749 6.75073,67.8082 10.5,68C 13.4323,66.7003 15.7656,64.7003 17.5,62C 21.1341,61.8444 24.4674,60.8444 27.5,59C 34.2143,53.3001 38.881,46.3001 41.5,38C 41.3059,35.198 42.4726,32.698 45,30.5C 46.7007,28.1 47.534,25.4334 47.5,22.5C 46.7134,16.4936 45.88,10.4936 45,4.5C 43.1528,2.75441 41.3194,1.08774 39.5,-0.5 Z"/></g>
<g><path style="opacity:1" fill="#b18c5f" d="M 84.5,21.5 C 86.1797,25.5069 87.8464,29.5069 89.5,33.5C 87.095,33.1336 84.7617,32.4669 82.5,31.5C 81.5836,31.5427 80.9169,31.8761 80.5,32.5C 80.33,33.8221 80.6634,34.9887 81.5,36C 83.8599,37.1799 86.1932,38.3466 88.5,39.5C 86.4861,45.2491 85.4861,51.2491 85.5,57.5C 79.5999,57.3109 77.5999,59.9775 79.5,65.5C 78.5084,65.6716 77.8417,65.3382 77.5,64.5C 77.6671,58.6605 78.0005,52.8272 78.5,47C 77.1487,41.3413 76.482,35.508 76.5,29.5C 72.8284,28.9553 73.1617,28.6219 77.5,28.5C 78.1857,29.2918 78.519,28.7918 78.5,27C 77.2427,21.5421 76.7427,16.0421 77,10.5C 77.3879,9.57203 78.0546,8.90536 79,8.5C 80.9203,8.93802 82.7536,9.60469 84.5,10.5C 87.4561,13.5891 86.7895,15.2558 82.5,15.5C 82.0535,18.0101 82.7202,20.0101 84.5,21.5 Z"/></g>
<g><path style="opacity:1" fill="#9e9dd6" d="M 155.5,50.5 C 150.657,52.4176 146.323,55.0843 142.5,58.5C 140.833,58.5 139.167,58.5 137.5,58.5C 135.486,58.3915 133.82,59.0582 132.5,60.5C 132.322,59.3052 131.989,58.1385 131.5,57C 132.939,53.3143 133.939,49.481 134.5,45.5C 135.298,45.9569 135.631,46.6236 135.5,47.5C 135.5,48.1667 135.5,48.8333 135.5,49.5C 134.596,50.209 134.263,51.209 134.5,52.5C 143.129,50.8577 151.129,47.5244 158.5,42.5C 159.847,41.9717 161.181,41.805 162.5,42C 159.333,44.1805 156.999,47.0138 155.5,50.5 Z"/></g>
<g><path style="opacity:1" fill="#b9ba99" d="M 26.5,-0.5 C 30.8333,-0.5 35.1667,-0.5 39.5,-0.5C 41.3194,1.08774 43.1528,2.75441 45,4.5C 45.88,10.4936 46.7134,16.4936 47.5,22.5C 47.534,25.4334 46.7007,28.1 45,30.5C 42.4726,32.698 41.3059,35.198 41.5,38C 38.881,46.3001 34.2143,53.3001 27.5,59C 24.4674,60.8444 21.1341,61.8444 17.5,62C 15.7656,64.7003 13.4323,66.7003 10.5,68C 6.75073,67.8082 3.08406,66.9749 -0.5,65.5C -0.5,64.8333 -0.5,64.1667 -0.5,63.5C 3.11222,64.5114 6.77888,64.6781 10.5,64C 12.0769,61.436 13.0769,58.6026 13.5,55.5C 16.5564,54.8038 19.5564,53.9704 22.5,53C 25.354,49.1495 28.5206,45.6495 32,42.5C 33.6739,37.0655 34.8405,31.5655 35.5,26C 35.3149,23.1818 36.4816,20.6818 39,18.5C 39.6667,15.1667 39.6667,11.8333 39,8.5C 38.5348,7.06919 37.7014,5.90252 36.5,5C 32.796,3.61885 29.4627,1.78552 26.5,-0.5 Z"/></g>
<g><path style="opacity:1" fill="#fa700e" d="M 216.5,41.5 C 218.332,42.2485 219.999,43.2485 221.5,44.5C 222.598,45.397 222.598,46.2303 221.5,47C 223.623,47.8147 225.623,48.8147 227.5,50C 225.833,50.6667 224.167,50.6667 222.5,50C 221.347,48.117 219.681,47.2837 217.5,47.5C 217.424,49.9229 218.424,51.7562 220.5,53C 220.167,53.5 219.833,54 219.5,54.5C 218.019,53.5197 216.685,52.353 215.5,51C 211.531,50.2003 208.531,48.0336 206.5,44.5C 212.932,44.1273 212.932,42.9606 206.5,41C 209.924,40.2534 213.257,40.42 216.5,41.5 Z"/></g>
<g><path style="opacity:1" fill="#3f433c" d="M 255.5,43.5 C 255.5,48.5 255.5,53.5 255.5,58.5C 254.842,57.6016 254.176,56.6016 253.5,55.5C 248.936,52.7325 245.936,53.7325 244.5,58.5C 243.583,59.1272 242.583,59.4606 241.5,59.5C 240.508,59.6716 239.842,59.3382 239.5,58.5C 241.189,57.6963 242.855,56.6963 244.5,55.5C 241.795,54.7956 240.129,53.1289 239.5,50.5C 239.62,47.5198 240.287,44.6865 241.5,42C 246.237,41.7333 250.904,42.2333 255.5,43.5 Z"/></g>
<g><path style="opacity:1" fill="#e2853f" d="M 169.5,45.5 C 173.524,50.5189 177.524,55.5189 181.5,60.5C 179.629,60.1412 178.129,59.1412 177,57.5C 173.951,53.9574 171.118,50.2907 168.5,46.5C 168.5,45.8333 168.833,45.5 169.5,45.5 Z"/></g>
<g><path style="opacity:1" fill="#ba4e0a" d="M 178.5,43.5 C 179.5,43.5 180.5,43.5 181.5,43.5C 181.804,44.1499 182.137,44.8165 182.5,45.5C 180.167,46.1667 177.833,46.8333 175.5,47.5C 178.573,49.5691 180.906,52.2358 182.5,55.5C 182.784,57.4147 182.451,59.0813 181.5,60.5C 177.524,55.5189 173.524,50.5189 169.5,45.5C 172.303,44.0721 175.303,43.4054 178.5,43.5 Z"/></g>
<g><path style="opacity:1" fill="#faed8c" d="M 54.5,44.5 C 54.8333,44.5 55.1667,44.5 55.5,44.5C 53.3105,47.4148 52.6438,50.5814 53.5,54C 54.7932,54.49 56.1266,54.6567 57.5,54.5C 57.5326,58.1019 56.1993,61.1019 53.5,63.5C 51.4478,62.3892 50.1145,60.7225 49.5,58.5C 49.348,53.0657 51.0146,48.399 54.5,44.5 Z"/></g>
<g><path style="opacity:1" fill="#45272f" d="M 168.5,53.5 C 168.45,56.1977 169.45,58.3644 171.5,60C 168.657,63.01 165.657,65.8433 162.5,68.5C 160.208,68.7564 158.041,68.4231 156,67.5C 154.782,58.529 158.949,53.8623 168.5,53.5 Z"/></g>
<g><path style="opacity:1" fill="#8a370c" d="M 168.5,46.5 C 171.118,50.2907 173.951,53.9574 177,57.5C 178.129,59.1412 179.629,60.1412 181.5,60.5C 182.451,59.0813 182.784,57.4147 182.5,55.5C 185.615,55.6061 188.281,54.6061 190.5,52.5C 190.328,53.4916 190.662,54.1583 191.5,54.5C 191.5,54.8333 191.5,55.1667 191.5,55.5C 188.041,57.3166 184.708,59.3166 181.5,61.5C 179.952,61.8212 179.285,62.8212 179.5,64.5C 178.325,64.719 177.325,64.3857 176.5,63.5C 174.159,59.8346 171.493,56.5012 168.5,53.5C 167.377,51.0213 167.377,48.688 168.5,46.5 Z"/></g>
<g><path style="opacity:1" fill="#897155" d="M 85.5,57.5 C 88.3416,59.9895 90.3416,63.1562 91.5,67C 90.9293,68.5991 89.9293,69.7658 88.5,70.5C 88.1583,71.3382 87.4916,71.6716 86.5,71.5C 84.1667,69.5 81.8333,67.5 79.5,65.5C 77.5999,59.9775 79.5999,57.3109 85.5,57.5 Z"/></g>
<g><path style="opacity:1" fill="#545a52" d="M 255.5,58.5 C 255.5,64.8333 255.5,71.1667 255.5,77.5C 252.986,77.2461 250.652,76.4127 248.5,75C 248.1,72.6572 246.767,70.4905 244.5,68.5C 243.345,65.5431 242.345,62.5431 241.5,59.5C 242.583,59.4606 243.583,59.1272 244.5,58.5C 245.936,53.7325 248.936,52.7325 253.5,55.5C 254.176,56.6016 254.842,57.6016 255.5,58.5 Z"/></g>
<g><path style="opacity:1" fill="#f0ece8" d="M 82.5,58.5 C 84.9052,59.3981 86.9052,60.8981 88.5,63C 84.0571,65.2581 82.0571,63.7581 82.5,58.5 Z"/></g>
<g><path style="opacity:1" fill="#656a57" d="M 61.5,47.5 C 63.6801,49.8633 65.3468,52.53 66.5,55.5C 67.5,57.1667 68.8333,58.5 70.5,59.5C 71.4499,62.1149 73.1165,64.1149 75.5,65.5C 73.5,65.5 71.5,65.5 69.5,65.5C 68.1996,71.594 65.1996,76.7606 60.5,81C 60.2549,82.9114 60.2549,84.9114 60.5,87C 59.2766,89.0521 58.2766,91.2188 57.5,93.5C 52.7479,95.2725 49.9145,98.6058 49,103.5C 44.1978,107.943 43.6978,112.609 47.5,117.5C 45.7085,117.634 44.0418,117.301 42.5,116.5C 41.653,115.034 40.3197,114.2 38.5,114C 40.7848,104.762 44.4514,96.0954 49.5,88C 48.7039,86.9079 48.0372,85.7412 47.5,84.5C 49.5769,81.3639 49.9103,78.0305 48.5,74.5C 51.2793,72.9567 53.1126,70.6233 54,67.5C 54.3333,67.8333 54.6667,68.1667 55,68.5C 56.8509,64.6569 58.6842,60.8235 60.5,57C 58.8275,54.9952 57.1609,52.9952 55.5,51C 56.9375,49.7592 58.4375,49.2592 60,49.5C 60.3333,50.5 60.6667,51.5 61,52.5C 61.1618,50.5459 61.3285,48.8793 61.5,47.5 Z"/></g>
<g><path style="opacity:1" fill="#210100" d="M 187.5,69.5 C 185.952,69.8212 185.285,70.8212 185.5,72.5C 181.893,74.317 178.226,75.9836 174.5,77.5C 172.895,78.9687 172.395,78.6354 173,76.5C 174.579,74.9588 176.413,73.7922 178.5,73C 176.527,72.5045 174.527,72.3379 172.5,72.5C 172.695,67.3035 175.362,64.9701 180.5,65.5C 180.433,64.0413 180.766,62.7079 181.5,61.5C 184.708,59.3166 188.041,57.3166 191.5,55.5C 193.117,54.962 194.784,54.6287 196.5,54.5C 196.441,58.548 198.108,61.7146 201.5,64C 197.575,63.4816 193.575,63.4816 189.5,64C 187.845,65.4443 187.178,67.2776 187.5,69.5 Z"/></g>
<g><path style="opacity:1" fill="#2b1811" d="M 165.5,45.5 C 165.586,46.4959 165.252,47.3292 164.5,48C 156.232,52.084 148.732,57.2507 142,63.5C 138.931,68.0247 138.764,72.6914 141.5,77.5C 140.672,83.6534 140.172,89.9867 140,96.5C 136.435,108.312 131.602,119.146 125.5,129C 126.464,127.275 127.131,125.441 127.5,123.5C 131.398,114.371 134.731,105.038 137.5,95.5C 139.889,87.251 140.055,78.9177 138,70.5C 137.617,69.944 137.117,69.6107 136.5,69.5C 136.5,68.8333 136.5,68.1667 136.5,67.5C 138.252,64.328 140.252,61.328 142.5,58.5C 146.323,55.0843 150.657,52.4176 155.5,50.5C 158.833,48.8333 162.167,47.1667 165.5,45.5 Z"/></g>
<g><path style="opacity:1" fill="#676683" d="M 137.5,58.5 C 139.167,58.5 140.833,58.5 142.5,58.5C 140.252,61.328 138.252,64.328 136.5,67.5C 135.167,68.5 133.833,69.5 132.5,70.5C 130.488,70.9462 128.488,70.2795 126.5,68.5C 130.388,65.3929 134.055,62.0595 137.5,58.5 Z"/></g>
<g><path style="opacity:1" fill="#7b7d67" d="M 55.5,44.5 C 57.9699,44.6535 59.9699,45.6535 61.5,47.5C 61.3285,48.8793 61.1618,50.5459 61,52.5C 60.6667,51.5 60.3333,50.5 60,49.5C 58.4375,49.2592 56.9375,49.7592 55.5,51C 57.1609,52.9952 58.8275,54.9952 60.5,57C 58.6842,60.8235 56.8509,64.6569 55,68.5C 54.6667,68.1667 54.3333,67.8333 54,67.5C 53.1126,70.6233 51.2793,72.9567 48.5,74.5C 49.9103,78.0305 49.5769,81.3639 47.5,84.5C 48.0372,85.7412 48.7039,86.9079 49.5,88C 44.4514,96.0954 40.7848,104.762 38.5,114C 40.3197,114.2 41.653,115.034 42.5,116.5C 39.6733,115.892 37.0067,114.892 34.5,113.5C 35.4392,108.915 36.7725,104.415 38.5,100C 37.6288,96.115 37.2954,92.2817 37.5,88.5C 38.376,87.7492 39.376,87.2492 40.5,87C 40.0426,86.586 39.7093,86.086 39.5,85.5C 41.3653,82.507 41.3653,79.3403 39.5,76C 41.8774,69.2931 44.7107,62.7931 48,56.5C 48.2784,57.4158 48.7784,58.0825 49.5,58.5C 50.1145,60.7225 51.4478,62.3892 53.5,63.5C 56.1993,61.1019 57.5326,58.1019 57.5,54.5C 56.1266,54.6567 54.7932,54.49 53.5,54C 52.6438,50.5814 53.3105,47.4148 55.5,44.5 Z"/></g>
<g><path style="opacity:1" fill="#65362a" d="M 123.5,54.5 C 124.512,55.8717 125.512,57.205 126.5,58.5C 126.834,61.0009 126.834,63.3342 126.5,65.5C 124.025,66.6874 123.025,68.6874 123.5,71.5C 122.778,70.4489 121.778,69.7822 120.5,69.5C 118.171,67.722 115.504,66.722 112.5,66.5C 110.405,57.5847 114.072,53.5847 123.5,54.5 Z"/></g>
<g><path style="opacity:1" fill="#aa6f71" d="M 122.5,61.5 C 121.618,65.1431 119.284,66.3098 115.5,65C 116.833,64.6667 118.167,64.3333 119.5,64C 118.263,63.7679 117.263,63.2679 116.5,62.5C 118.565,62.4828 120.565,62.1495 122.5,61.5 Z"/></g>
<g><path style="opacity:1" fill="#f0eae8" d="M 122.5,61.5 C 120.565,62.1495 118.565,62.4828 116.5,62.5C 114.915,61.9976 114.415,60.9976 115,59.5C 119.14,54.8395 121.64,55.5062 122.5,61.5 Z"/></g>
<g><path style="opacity:1" fill="#391a0f" d="M 170.5,42.5 C 173.385,42.1936 176.052,42.5269 178.5,43.5C 175.303,43.4054 172.303,44.0721 169.5,45.5C 168.833,45.5 168.5,45.8333 168.5,46.5C 167.377,48.688 167.377,51.0213 168.5,53.5C 158.949,53.8623 154.782,58.529 156,67.5C 158.041,68.4231 160.208,68.7564 162.5,68.5C 161.758,70.4258 160.758,72.2591 159.5,74C 161.25,75.7542 161.917,77.9208 161.5,80.5C 156.9,78.3979 153.9,74.8979 152.5,70C 149.666,67.816 148.332,68.316 148.5,71.5C 146.396,71.2011 144.396,71.5344 142.5,72.5C 143.582,72.7486 144.915,72.9152 146.5,73C 149.269,77.7658 147.936,80.9325 142.5,82.5C 142.371,80.7839 142.038,79.1172 141.5,77.5C 138.764,72.6914 138.931,68.0247 142,63.5C 148.732,57.2507 156.232,52.084 164.5,48C 165.252,47.3292 165.586,46.4959 165.5,45.5C 167.261,44.6873 168.928,43.6873 170.5,42.5 Z"/></g>
<g><path style="opacity:1" fill="#9f7546" d="M 88.5,39.5 C 90.1911,40.8637 91.8577,42.197 93.5,43.5C 94.0492,54.5814 96.3825,65.248 100.5,75.5C 97.6903,72.0082 94.5236,71.6749 91,74.5C 90.0656,73.1416 89.2323,71.8083 88.5,70.5C 89.9293,69.7658 90.9293,68.5991 91.5,67C 90.3416,63.1562 88.3416,59.9895 85.5,57.5C 85.4861,51.2491 86.4861,45.2491 88.5,39.5 Z"/></g>
<g><path style="opacity:1" fill="#51574a" d="M 75.5,65.5 C 78.7504,67.2433 81.5838,69.5766 84,72.5C 86.3427,78.6938 88.176,85.0272 89.5,91.5C 87.6948,93.1969 85.3615,94.0302 82.5,94C 76.6112,100.955 71.6112,108.455 67.5,116.5C 60.556,117.596 60.2226,118.596 66.5,119.5C 67.355,120.531 68.0217,121.697 68.5,123C 68.4301,123.765 68.0967,124.265 67.5,124.5C 63.6273,122.57 59.294,121.903 54.5,122.5C 51.2461,124.337 47.9127,126.003 44.5,127.5C 42.2997,127.096 39.9664,126.93 37.5,127C 38.756,126.583 39.4226,125.75 39.5,124.5C 42.3157,122.667 45.3157,121.334 48.5,120.5C 52.4761,121.331 56.4761,121.497 60.5,121C 56.1489,119.832 51.8155,118.665 47.5,117.5C 43.6978,112.609 44.1978,107.943 49,103.5C 49.9145,98.6058 52.7479,95.2725 57.5,93.5C 58.2766,91.2188 59.2766,89.0521 60.5,87C 60.2549,84.9114 60.2549,82.9114 60.5,81C 65.1996,76.7606 68.1996,71.594 69.5,65.5C 71.5,65.5 73.5,65.5 75.5,65.5 Z"/></g>
<g><path style="opacity:1" fill="#8984ad" d="M 137.5,58.5 C 134.055,62.0595 130.388,65.3929 126.5,68.5C 128.488,70.2795 130.488,70.9462 132.5,70.5C 131.307,74.5493 129.307,78.216 126.5,81.5C 124.577,78.4794 123.577,75.1461 123.5,71.5C 123.025,68.6874 124.025,66.6874 126.5,65.5C 128.5,63.8333 130.5,62.1667 132.5,60.5C 133.82,59.0582 135.486,58.3915 137.5,58.5 Z"/></g>
<g><path style="opacity:1" fill="#370908" d="M 168.5,53.5 C 171.493,56.5012 174.159,59.8346 176.5,63.5C 177.325,64.3857 178.325,64.719 179.5,64.5C 179.285,62.8212 179.952,61.8212 181.5,61.5C 180.766,62.7079 180.433,64.0413 180.5,65.5C 175.362,64.9701 172.695,67.3035 172.5,72.5C 174.527,72.3379 176.527,72.5045 178.5,73C 176.413,73.7922 174.579,74.9588 173,76.5C 172.395,78.6354 172.895,78.9687 174.5,77.5C 174.5,78.1667 174.5,78.8333 174.5,79.5C 172.442,82.5076 170.442,85.5076 168.5,88.5C 168.5,87.5 168.5,86.5 168.5,85.5C 165.357,85.031 163.023,83.3644 161.5,80.5C 161.917,77.9208 161.25,75.7542 159.5,74C 160.758,72.2591 161.758,70.4258 162.5,68.5C 165.657,65.8433 168.657,63.01 171.5,60C 169.45,58.3644 168.45,56.1977 168.5,53.5 Z"/></g>
<g><path style="opacity:1" fill="#5d2206" d="M 198.5,54.5 C 201.487,55.9578 204.154,58.1245 206.5,61C 205.941,61.7247 205.608,62.5581 205.5,63.5C 206.345,66.1926 206.845,68.8593 207,71.5C 203.51,67.9527 199.343,66.786 194.5,68C 196.336,69.419 198.336,70.5857 200.5,71.5C 201.321,74.4465 201.821,77.4465 202,80.5C 202.49,79.2068 202.657,77.8734 202.5,76.5C 204.467,76.7394 206.301,76.4061 208,75.5C 209.242,77.5407 211.075,78.7073 213.5,79C 214.304,80.7713 215.471,82.2713 217,83.5C 217.667,82.1667 217.667,80.8333 217,79.5C 214.885,77.9375 213.885,75.9375 214,73.5C 215.955,75.9112 217.789,78.4112 219.5,81C 221.821,81.8365 224.155,82.1699 226.5,82C 223.221,79.2108 220.221,76.2108 217.5,73C 218.308,72.6924 218.975,72.1924 219.5,71.5C 217.748,69.4033 215.748,67.7366 213.5,66.5C 214.642,63.7406 215.976,61.0739 217.5,58.5C 218.814,59.3128 219.981,60.3128 221,61.5C 221.179,64.5535 221.679,67.5535 222.5,70.5C 224.188,69.4787 225.521,68.1454 226.5,66.5C 227.117,66.3893 227.617,66.056 228,65.5C 228.695,67.7221 229.528,69.8887 230.5,72C 229.852,73.4397 229.519,74.9397 229.5,76.5C 232.313,76.9754 234.313,75.9754 235.5,73.5C 236.914,68.5265 238.247,63.5265 239.5,58.5C 239.842,59.3382 240.508,59.6716 241.5,59.5C 242.345,62.5431 243.345,65.5431 244.5,68.5C 243.21,67.9423 242.377,66.9423 242,65.5C 241.333,67.1667 241.333,68.8333 242,70.5C 244.991,73.7339 247.824,77.0673 250.5,80.5C 252.36,81.2599 254.027,82.2599 255.5,83.5C 255.5,86.1667 255.5,88.8333 255.5,91.5C 252.157,90.7761 248.824,89.9428 245.5,89C 240.723,86.5465 236.223,83.7131 232,80.5C 231.5,80.6667 231,80.8333 230.5,81C 233.5,84.6667 236.5,88.3333 239.5,92C 238.906,92.4643 238.239,92.631 237.5,92.5C 235.046,91.7729 232.713,90.7729 230.5,89.5C 228.269,85.6033 224.935,83.27 220.5,82.5C 219.09,82.8678 218.09,83.7011 217.5,85C 221.75,89.599 220.75,91.099 214.5,89.5C 214.804,88.8501 215.137,88.1835 215.5,87.5C 213.108,82.7749 209.441,79.4416 204.5,77.5C 204.091,81.0698 204.091,84.7365 204.5,88.5C 203.5,88.5 202.5,88.5 201.5,88.5C 200.599,87.7095 199.932,86.7095 199.5,85.5C 199.114,83.0634 197.947,81.0634 196,79.5C 195.667,79.8333 195.333,80.1667 195,80.5C 195.712,84.4197 196.045,88.4197 196,92.5C 195.129,88.016 193.796,83.6827 192,79.5C 190.104,77.4701 187.937,75.8034 185.5,74.5C 186.174,72.8045 186.841,71.1379 187.5,69.5C 187.178,67.2776 187.845,65.4443 189.5,64C 193.575,63.4816 197.575,63.4816 201.5,64C 198.108,61.7146 196.441,58.548 196.5,54.5C 194.784,54.6287 193.117,54.962 191.5,55.5C 191.5,55.1667 191.5,54.8333 191.5,54.5C 193.833,53.1667 196.167,53.1667 198.5,54.5 Z"/></g>
<g><path style="opacity:1" fill="#853305" d="M 235.5,73.5 C 234.313,75.9754 232.313,76.9754 229.5,76.5C 229.519,74.9397 229.852,73.4397 230.5,72C 229.528,69.8887 228.695,67.7221 228,65.5C 227.617,66.056 227.117,66.3893 226.5,66.5C 227.828,65.0056 228.995,62.6723 230,59.5C 231.042,64.5671 232.875,69.2337 235.5,73.5 Z"/></g>
<g><path style="opacity:1" fill="#2d120d" d="M 161.5,80.5 C 163.023,83.3644 165.357,85.031 168.5,85.5C 168.5,86.5 168.5,87.5 168.5,88.5C 168.5,88.8333 168.5,89.1667 168.5,89.5C 166.442,87.0035 165.276,87.6702 165,91.5C 163.961,92.7101 162.794,93.7101 161.5,94.5C 161.5,93.5 161.5,92.5 161.5,91.5C 163.832,86.4892 162.165,83.6559 156.5,83C 155.663,81.9887 155.33,80.8221 155.5,79.5C 153.278,79.178 151.444,79.8446 150,81.5C 149.902,87.3994 148.069,92.566 144.5,97C 144.82,98.6532 145.82,99.6532 147.5,100C 149.81,100.497 152.143,100.663 154.5,100.5C 153.909,101.151 153.243,101.818 152.5,102.5C 148.142,103.165 144.142,104.332 140.5,106C 141.998,103.583 142.665,100.917 142.5,98C 141.327,92.8135 141.327,87.6468 142.5,82.5C 147.936,80.9325 149.269,77.7658 146.5,73C 144.915,72.9152 143.582,72.7486 142.5,72.5C 144.396,71.5344 146.396,71.2011 148.5,71.5C 148.332,68.316 149.666,67.816 152.5,70C 153.9,74.8979 156.9,78.3979 161.5,80.5 Z"/></g>
<g><path style="opacity:1" fill="#8a6041" d="M 88.5,70.5 C 89.2323,71.8083 90.0656,73.1416 91,74.5C 94.5236,71.6749 97.6903,72.0082 100.5,75.5C 101.53,81.2846 103.03,86.9513 105,92.5C 105.399,92.2716 105.565,91.9382 105.5,91.5C 108.293,101.667 110.959,112 113.5,122.5C 115.179,122.715 116.179,122.048 116.5,120.5C 116.833,120.5 117.167,120.5 117.5,120.5C 117.5,121.5 117.5,122.5 117.5,123.5C 115.833,123.5 114.167,123.5 112.5,123.5C 112.372,118.634 110.872,114.301 108,110.5C 107.906,114.874 108.406,119.208 109.5,123.5C 109.158,124.338 108.492,124.672 107.5,124.5C 106.209,124.737 105.209,124.404 104.5,123.5C 105.5,123.5 106.5,123.5 107.5,123.5C 105.729,116.174 103.729,108.841 101.5,101.5C 102.5,101.5 103.5,101.5 104.5,101.5C 103.614,93.2889 101.781,85.2889 99,77.5C 98.6667,79.1667 98.3333,80.8333 98,82.5C 97,79.8333 96,77.1667 95,74.5C 95.5558,81.279 96.8891,87.9456 99,94.5C 99.9056,91.8792 100.406,92.0459 100.5,95C 100.333,95.8333 100.167,96.6667 100,97.5C 99.3333,96.1667 98.6667,96.1667 98,97.5C 97.3988,99.1368 96.8988,100.803 96.5,102.5C 97.4669,104.762 98.1336,107.095 98.5,109.5C 97.2101,108.942 96.3768,107.942 96,106.5C 95.7206,103.543 94.8873,100.877 93.5,98.5C 93.1667,96.5 92.8333,94.5 92.5,92.5C 93.1386,91.9032 93.472,91.0698 93.5,90C 93,87.5 92.5,85 92,82.5C 91.6779,79.3337 90.5113,76.667 88.5,74.5C 87.5987,73.7095 86.9321,72.7095 86.5,71.5C 87.4916,71.6716 88.1583,71.3382 88.5,70.5 Z"/></g>
<g><path style="opacity:1" fill="#8e6861" d="M 107.5,68.5 C 111.383,75.375 113.05,83.0417 112.5,91.5C 113.5,91.5 114.5,91.5 115.5,91.5C 115.46,96.1925 115.127,100.859 114.5,105.5C 113.982,102.021 112.982,98.6881 111.5,95.5C 110.01,86.534 108.676,77.534 107.5,68.5 Z"/></g>
<g><path style="opacity:1" fill="#6a2704" d="M 207.5,52.5 C 209.516,56.3828 210.849,60.5495 211.5,65C 211.836,66.0299 212.503,66.5299 213.5,66.5C 215.748,67.7366 217.748,69.4033 219.5,71.5C 218.975,72.1924 218.308,72.6924 217.5,73C 220.221,76.2108 223.221,79.2108 226.5,82C 224.155,82.1699 221.821,81.8365 219.5,81C 217.789,78.4112 215.955,75.9112 214,73.5C 213.885,75.9375 214.885,77.9375 217,79.5C 217.667,80.8333 217.667,82.1667 217,83.5C 215.471,82.2713 214.304,80.7713 213.5,79C 211.075,78.7073 209.242,77.5407 208,75.5C 206.301,76.4061 204.467,76.7394 202.5,76.5C 202.657,77.8734 202.49,79.2068 202,80.5C 201.821,77.4465 201.321,74.4465 200.5,71.5C 198.336,70.5857 196.336,69.419 194.5,68C 199.343,66.786 203.51,67.9527 207,71.5C 206.845,68.8593 206.345,66.1926 205.5,63.5C 205.608,62.5581 205.941,61.7247 206.5,61C 204.154,58.1245 201.487,55.9578 198.5,54.5C 200.808,55.7143 203.141,55.7143 205.5,54.5C 202.378,53.4392 199.378,52.1059 196.5,50.5C 196.709,49.914 197.043,49.414 197.5,49C 201.531,48.1822 204.864,49.3489 207.5,52.5 Z"/></g>
<g><path style="opacity:1" fill="#2a1b20" d="M 244.5,68.5 C 246.767,70.4905 248.1,72.6572 248.5,75C 250.652,76.4127 252.986,77.2461 255.5,77.5C 255.5,79.5 255.5,81.5 255.5,83.5C 254.027,82.2599 252.36,81.2599 250.5,80.5C 247.824,77.0673 244.991,73.7339 242,70.5C 241.333,68.8333 241.333,67.1667 242,65.5C 242.377,66.9423 243.21,67.9423 244.5,68.5 Z"/></g>
<g><path style="opacity:1" fill="#c17648" d="M 88.5,74.5 C 90.5113,76.667 91.6779,79.3337 92,82.5C 92.5,85 93,87.5 93.5,90C 93.472,91.0698 93.1386,91.9032 92.5,92.5C 90.9579,86.5419 89.6246,80.5419 88.5,74.5 Z"/></g>
<g><path style="opacity:1" fill="#883930" d="M 136.5,67.5 C 136.5,68.1667 136.5,68.8333 136.5,69.5C 134.808,71.2048 133.475,73.2048 132.5,75.5C 130.5,78.5 128.5,81.5 126.5,84.5C 125.176,85.8499 124.176,85.6833 123.5,84C 122.552,79.139 121.552,74.3057 120.5,69.5C 121.778,69.7822 122.778,70.4489 123.5,71.5C 123.577,75.1461 124.577,78.4794 126.5,81.5C 129.307,78.216 131.307,74.5493 132.5,70.5C 133.833,69.5 135.167,68.5 136.5,67.5 Z"/></g>
<g><path style="opacity:1" fill="#e6e3c8" d="M 74.5,50.5 C 75.2216,50.9175 75.7216,51.5842 76,52.5C 76.1762,56.6877 76.6762,60.6877 77.5,64.5C 77.8417,65.3382 78.5084,65.6716 79.5,65.5C 81.8333,67.5 84.1667,69.5 86.5,71.5C 86.9321,72.7095 87.5987,73.7095 88.5,74.5C 89.6246,80.5419 90.9579,86.5419 92.5,92.5C 92.8333,94.5 93.1667,96.5 93.5,98.5C 94.1032,101.041 94.1032,103.374 93.5,105.5C 92.2318,103.095 91.5651,100.428 91.5,97.5C 91.405,95.2143 90.7384,93.2143 89.5,91.5C 88.176,85.0272 86.3427,78.6938 84,72.5C 81.5838,69.5766 78.7504,67.2433 75.5,65.5C 73.1165,64.1149 71.4499,62.1149 70.5,59.5C 73.3005,57.3136 74.6338,54.3136 74.5,50.5 Z"/></g>
<g><path style="opacity:1" fill="#9f705a" d="M 93.5,43.5 C 96.1695,53.0964 98.8362,62.763 101.5,72.5C 103.244,78.7367 104.578,85.07 105.5,91.5C 105.565,91.9382 105.399,92.2716 105,92.5C 103.03,86.9513 101.53,81.2846 100.5,75.5C 96.3825,65.248 94.0492,54.5814 93.5,43.5 Z"/></g>
<g><path style="opacity:1" fill="#591f00" d="M 187.5,89.5 C 183.289,87.9222 178.956,87.4222 174.5,88C 173.676,91.0544 172.009,91.8878 169.5,90.5C 168.833,90.5 168.5,90.1667 168.5,89.5C 168.5,89.1667 168.5,88.8333 168.5,88.5C 170.442,85.5076 172.442,82.5076 174.5,79.5C 176.468,77.685 178.802,77.185 181.5,78C 183.751,80.7948 186.418,83.1281 189.5,85C 188.833,85.3333 188.167,85.6667 187.5,86C 188.684,87.1455 188.684,88.3121 187.5,89.5 Z"/></g>
<g><path style="opacity:1" fill="#491900" d="M 187.5,69.5 C 186.841,71.1379 186.174,72.8045 185.5,74.5C 187.937,75.8034 190.104,77.4701 192,79.5C 193.796,83.6827 195.129,88.016 196,92.5C 196.045,88.4197 195.712,84.4197 195,80.5C 195.333,80.1667 195.667,79.8333 196,79.5C 197.947,81.0634 199.114,83.0634 199.5,85.5C 198.637,84.537 197.97,84.537 197.5,85.5C 198.167,86.8333 198.833,88.1667 199.5,89.5C 199.154,90.6956 198.654,90.6956 198,89.5C 197.79,91.0581 197.29,92.3915 196.5,93.5C 195.609,94.1098 194.609,94.4431 193.5,94.5C 191.5,92.8333 189.5,91.1667 187.5,89.5C 188.684,88.3121 188.684,87.1455 187.5,86C 188.167,85.6667 188.833,85.3333 189.5,85C 186.418,83.1281 183.751,80.7948 181.5,78C 178.802,77.185 176.468,77.685 174.5,79.5C 174.5,78.8333 174.5,78.1667 174.5,77.5C 178.226,75.9836 181.893,74.317 185.5,72.5C 185.285,70.8212 185.952,69.8212 187.5,69.5 Z"/></g>
<g><path style="opacity:1" fill="#5d5b77" d="M 136.5,69.5 C 137.117,69.6107 137.617,69.944 138,70.5C 140.055,78.9177 139.889,87.251 137.5,95.5C 136.469,93.0392 135.802,90.3725 135.5,87.5C 135.245,83.1997 134.245,79.1997 132.5,75.5C 133.475,73.2048 134.808,71.2048 136.5,69.5 Z"/></g>
<g><path style="opacity:1" fill="#8b6e78" d="M 109.5,62.5 C 109.856,67.8779 111.856,72.5445 115.5,76.5C 115.32,77.5539 114.987,78.5539 114.5,79.5C 115.658,84.0042 117.324,88.3375 119.5,92.5C 117.936,93.4943 116.936,95.4943 116.5,98.5C 116.833,98.8333 117.167,99.1667 117.5,99.5C 118.333,98.5 119.167,97.5 120,96.5C 119.947,98.788 119.614,101.121 119,103.5C 117.617,100.924 116.783,101.258 116.5,104.5C 117.829,108.513 117.829,112.513 116.5,116.5C 115.097,113.091 114.43,109.425 114.5,105.5C 115.127,100.859 115.46,96.1925 115.5,91.5C 114.5,91.5 113.5,91.5 112.5,91.5C 113.05,83.0417 111.383,75.375 107.5,68.5C 107.054,65.9899 107.72,63.9899 109.5,62.5 Z"/></g>
<g><path style="opacity:1" fill="#331a1f" d="M 161.5,91.5 C 161.354,83.9566 158.687,82.7899 153.5,88C 152.106,91.7448 151.106,95.5782 150.5,99.5C 152.167,99.5 153.833,99.5 155.5,99.5C 155.5,100.167 155.167,100.5 154.5,100.5C 152.143,100.663 149.81,100.497 147.5,100C 145.82,99.6532 144.82,98.6532 144.5,97C 148.069,92.566 149.902,87.3994 150,81.5C 151.444,79.8446 153.278,79.178 155.5,79.5C 155.33,80.8221 155.663,81.9887 156.5,83C 162.165,83.6559 163.832,86.4892 161.5,91.5 Z"/></g>
<g><path style="opacity:1" fill="#3f2734" d="M 161.5,91.5 C 161.5,92.5 161.5,93.5 161.5,94.5C 160.109,96.8903 158.109,98.5569 155.5,99.5C 153.833,99.5 152.167,99.5 150.5,99.5C 151.106,95.5782 152.106,91.7448 153.5,88C 158.687,82.7899 161.354,83.9566 161.5,91.5 Z"/></g>
<g><path style="opacity:1" fill="#280a00" d="M 230.5,89.5 C 227.91,89.0818 225.577,88.0818 223.5,86.5C 223.512,88.4121 223.179,90.4121 222.5,92.5C 219.564,93.1151 216.897,94.2817 214.5,96C 210.514,96.4988 206.514,96.6655 202.5,96.5C 205.625,95.5206 208.958,95.1872 212.5,95.5C 212.5,94.5 212.5,93.5 212.5,92.5C 209.173,92.0135 206.839,90.1802 205.5,87C 205.833,86.5 206.167,86 206.5,85.5C 209.472,86.3195 212.139,87.6529 214.5,89.5C 220.75,91.099 221.75,89.599 217.5,85C 218.09,83.7011 219.09,82.8678 220.5,82.5C 224.935,83.27 228.269,85.6033 230.5,89.5 Z"/></g>
<g><path style="opacity:1" fill="#1e0200" d="M 187.5,89.5 C 189.5,91.1667 191.5,92.8333 193.5,94.5C 190.377,93.767 187.377,92.767 184.5,91.5C 182.579,91.8603 180.912,92.6936 179.5,94C 181.974,94.0367 183.974,94.87 185.5,96.5C 182.653,96.2176 179.987,96.2176 177.5,96.5C 179.063,99.0289 181.396,100.029 184.5,99.5C 184.421,100.93 184.754,102.264 185.5,103.5C 181.17,103.031 180.67,104.365 184,107.5C 183.322,110.69 183.489,113.524 184.5,116C 181.785,116.875 180.452,118.708 180.5,121.5C 178.708,121.366 177.042,121.699 175.5,122.5C 177.744,121.07 179.577,119.07 181,116.5C 181.667,115.5 181.667,114.5 181,113.5C 177.179,110.257 173.179,107.257 169,104.5C 168.329,105.252 167.496,105.586 166.5,105.5C 166.957,102.976 166.957,100.309 166.5,97.5C 169.265,97.7976 171.765,98.7976 174,100.5C 173.406,96.8468 171.906,93.5135 169.5,90.5C 172.009,91.8878 173.676,91.0544 174.5,88C 178.956,87.4222 183.289,87.9222 187.5,89.5 Z"/></g>
<g><path style="opacity:1" fill="#471500" d="M 214.5,89.5 C 212.139,87.6529 209.472,86.3195 206.5,85.5C 206.167,86 205.833,86.5 205.5,87C 206.839,90.1802 209.173,92.0135 212.5,92.5C 212.5,93.5 212.5,94.5 212.5,95.5C 208.958,95.1872 205.625,95.5206 202.5,96.5C 201.527,94.0521 201.194,91.3854 201.5,88.5C 202.5,88.5 203.5,88.5 204.5,88.5C 204.091,84.7365 204.091,81.0698 204.5,77.5C 209.441,79.4416 213.108,82.7749 215.5,87.5C 215.137,88.1835 214.804,88.8501 214.5,89.5 Z"/></g>
<g><path style="opacity:1" fill="#953a18" d="M 101.5,72.5 C 102.268,73.2625 102.768,74.2625 103,75.5C 103.075,73.065 103.908,72.3984 105.5,73.5C 106.896,81.0919 108.896,88.4253 111.5,95.5C 112.982,98.6881 113.982,102.021 114.5,105.5C 114.43,109.425 115.097,113.091 116.5,116.5C 116.5,117.833 116.5,119.167 116.5,120.5C 116.179,122.048 115.179,122.715 113.5,122.5C 110.959,112 108.293,101.667 105.5,91.5C 104.578,85.07 103.244,78.7367 101.5,72.5 Z"/></g>
<g><path style="opacity:1" fill="#8e7992" d="M 117.5,53.5 C 118.833,53.5 120.167,53.5 121.5,53.5C 122.492,53.3284 123.158,53.6618 123.5,54.5C 114.072,53.5847 110.405,57.5847 112.5,66.5C 115.504,66.722 118.171,67.722 120.5,69.5C 121.552,74.3057 122.552,79.139 123.5,84C 124.176,85.6833 125.176,85.8499 126.5,84.5C 126.179,86.0481 125.179,86.7148 123.5,86.5C 124.135,89.4929 124.301,92.4929 124,95.5C 123.586,95.0426 123.086,94.7093 122.5,94.5C 121.349,99.1671 121.349,103.834 122.5,108.5C 118.512,110.619 116.846,114.619 117.5,120.5C 117.167,120.5 116.833,120.5 116.5,120.5C 116.5,119.167 116.5,117.833 116.5,116.5C 117.829,112.513 117.829,108.513 116.5,104.5C 116.783,101.258 117.617,100.924 119,103.5C 119.614,101.121 119.947,98.788 120,96.5C 119.167,97.5 118.333,98.5 117.5,99.5C 117.167,99.1667 116.833,98.8333 116.5,98.5C 116.936,95.4943 117.936,93.4943 119.5,92.5C 117.324,88.3375 115.658,84.0042 114.5,79.5C 114.987,78.5539 115.32,77.5539 115.5,76.5C 111.856,72.5445 109.856,67.8779 109.5,62.5C 109.366,60.7085 109.699,59.0418 110.5,57.5C 111.837,56.6851 112.837,55.5185 113.5,54C 114.793,53.51 116.127,53.3433 117.5,53.5 Z"/></g>
<g><path style="opacity:1" fill="#331100" d="M 193.5,94.5 C 194.609,94.4431 195.609,94.1098 196.5,93.5C 196.281,94.675 196.614,95.675 197.5,96.5C 199.541,97.2357 201.541,98.0691 203.5,99C 199.871,98.8903 196.204,98.7236 192.5,98.5C 190.079,98.1218 187.746,97.4552 185.5,96.5C 183.974,94.87 181.974,94.0367 179.5,94C 180.912,92.6936 182.579,91.8603 184.5,91.5C 187.377,92.767 190.377,93.767 193.5,94.5 Z"/></g>
<g><path style="opacity:1" fill="#2a131c" d="M 255.5,91.5 C 255.5,92.5 255.5,93.5 255.5,94.5C 254.178,94.33 253.011,94.6634 252,95.5C 251.808,97.5767 251.308,99.5767 250.5,101.5C 247.824,100.162 245.158,98.8289 242.5,97.5C 241.755,94.7543 240.088,93.0876 237.5,92.5C 238.239,92.631 238.906,92.4643 239.5,92C 236.5,88.3333 233.5,84.6667 230.5,81C 231,80.8333 231.5,80.6667 232,80.5C 236.223,83.7131 240.723,86.5465 245.5,89C 248.824,89.9428 252.157,90.7761 255.5,91.5 Z"/></g>
<g><path style="opacity:1" fill="#d7e1d4" d="M -0.5,96.5 C 5.73163,96.0362 11.7316,96.7029 17.5,98.5C 17.5,100.167 17.5,101.833 17.5,103.5C 16.1266,103.343 14.7932,103.51 13.5,104C 12.4019,104.77 12.4019,105.603 13.5,106.5C 8.62137,104.944 3.95471,102.944 -0.5,100.5C -0.5,99.1667 -0.5,97.8333 -0.5,96.5 Z"/></g>
<g><path style="opacity:1" fill="#45473e" d="M 91.5,97.5 C 91.5651,100.428 92.2318,103.095 93.5,105.5C 93.5,105.833 93.5,106.167 93.5,106.5C 93.9658,110.988 92.9658,114.988 90.5,118.5C 88.5648,119.15 86.5648,119.483 84.5,119.5C 83.1667,119.5 81.8333,119.5 80.5,119.5C 81.5521,117.744 83.2188,117.077 85.5,117.5C 85.5952,114.728 86.9285,112.728 89.5,111.5C 85.8212,110.151 84.1545,107.484 84.5,103.5C 82.4862,103.392 80.8195,104.058 79.5,105.5C 79.6854,103.804 80.5187,102.471 82,101.5C 82.4935,99.8659 82.6602,98.1992 82.5,96.5C 85.1194,96.7683 87.6194,96.435 90,95.5C 90.2784,96.4158 90.7784,97.0825 91.5,97.5 Z"/></g>
<g><path style="opacity:1" fill="#0b0503" d="M 141.5,77.5 C 142.038,79.1172 142.371,80.7839 142.5,82.5C 141.327,87.6468 141.327,92.8135 142.5,98C 142.665,100.917 141.998,103.583 140.5,106C 144.142,104.332 148.142,103.165 152.5,102.5C 153.243,101.818 153.909,101.151 154.5,100.5C 155.167,100.5 155.5,100.167 155.5,99.5C 158.109,98.5569 160.109,96.8903 161.5,94.5C 162.794,93.7101 163.961,92.7101 165,91.5C 165.276,87.6702 166.442,87.0035 168.5,89.5C 168.5,90.1667 168.833,90.5 169.5,90.5C 171.906,93.5135 173.406,96.8468 174,100.5C 171.765,98.7976 169.265,97.7976 166.5,97.5C 166.957,100.309 166.957,102.976 166.5,105.5C 161.847,108.172 157.513,111.172 153.5,114.5C 152.167,114.833 150.833,115.167 149.5,115.5C 146.944,113.255 144.278,113.089 141.5,115C 139.089,116.955 136.589,118.789 134,120.5C 132.562,121.9 131.729,123.567 131.5,125.5C 134.711,124.307 137.711,122.641 140.5,120.5C 142.698,120.409 143.031,121.075 141.5,122.5C 135.491,127.169 129.491,131.836 123.5,136.5C 130.828,137.998 138.161,139.498 145.5,141C 147.119,141.236 148.119,142.069 148.5,143.5C 123.167,143.5 97.8333,143.5 72.5,143.5C 67.3491,142.673 62.0158,142.173 56.5,142C 58.1193,141.764 59.1193,140.931 59.5,139.5C 62.7861,138.793 66.1194,138.46 69.5,138.5C 70.6948,138.678 71.8615,139.011 73,139.5C 77.1128,137.861 81.2795,136.361 85.5,135C 88.3576,133.306 90.691,131.139 92.5,128.5C 92.2627,129.791 92.596,130.791 93.5,131.5C 96.3833,132.606 99.2166,133.939 102,135.5C 101.376,130.457 103.21,126.79 107.5,124.5C 108.492,124.672 109.158,124.338 109.5,123.5C 110.5,123.5 111.5,123.5 112.5,123.5C 114.167,123.5 115.833,123.5 117.5,123.5C 120.833,123.5 124.167,123.5 127.5,123.5C 127.131,125.441 126.464,127.275 125.5,129C 131.602,119.146 136.435,108.312 140,96.5C 140.172,89.9867 140.672,83.6534 141.5,77.5 Z"/></g>
<g><path style="opacity:1" fill="#130301" d="M 199.5,85.5 C 199.932,86.7095 200.599,87.7095 201.5,88.5C 201.194,91.3854 201.527,94.0521 202.5,96.5C 206.514,96.6655 210.514,96.4988 214.5,96C 216.897,94.2817 219.564,93.1151 222.5,92.5C 223.179,90.4121 223.512,88.4121 223.5,86.5C 225.577,88.0818 227.91,89.0818 230.5,89.5C 232.713,90.7729 235.046,91.7729 237.5,92.5C 240.088,93.0876 241.755,94.7543 242.5,97.5C 245.158,98.8289 247.824,100.162 250.5,101.5C 251.308,99.5767 251.808,97.5767 252,95.5C 253.011,94.6634 254.178,94.33 255.5,94.5C 255.5,99.8333 255.5,105.167 255.5,110.5C 251.897,108.237 248.564,105.57 245.5,102.5C 244.264,101.754 242.93,101.421 241.5,101.5C 240.791,100.596 239.791,100.263 238.5,100.5C 238.34,104.236 237.507,104.236 236,100.5C 234.812,101.563 234.312,102.897 234.5,104.5C 233.2,105.108 231.867,105.775 230.5,106.5C 228.167,106.167 227.833,105.167 229.5,103.5C 228.726,102.289 227.893,102.289 227,103.5C 226.667,101.5 226.333,99.5 226,97.5C 224.667,96.1667 223.333,96.1667 222,97.5C 220.601,100.363 219.601,103.363 219,106.5C 217.686,107.313 216.519,108.313 215.5,109.5C 213.42,109.42 211.254,108.754 209,107.5C 206.991,107.758 205.157,108.425 203.5,109.5C 202.94,107.199 202.44,104.866 202,102.5C 198.805,101.117 195.638,99.7837 192.5,98.5C 196.204,98.7236 199.871,98.8903 203.5,99C 201.541,98.0691 199.541,97.2357 197.5,96.5C 196.614,95.675 196.281,94.675 196.5,93.5C 197.29,92.3915 197.79,91.0581 198,89.5C 198.654,90.6956 199.154,90.6956 199.5,89.5C 198.833,88.1667 198.167,86.8333 197.5,85.5C 197.97,84.537 198.637,84.537 199.5,85.5 Z"/></g>
<g><path style="opacity:1" fill="#876662" d="M 104.5,123.5 C 103.833,123.5 103.5,123.167 103.5,122.5C 103.5,122.167 103.5,121.833 103.5,121.5C 101.797,117.48 100.13,113.48 98.5,109.5C 98.1336,107.095 97.4669,104.762 96.5,102.5C 96.8988,100.803 97.3988,99.1368 98,97.5C 98.6667,96.1667 99.3333,96.1667 100,97.5C 100.167,96.6667 100.333,95.8333 100.5,95C 100.406,92.0459 99.9056,91.8792 99,94.5C 96.8891,87.9456 95.5558,81.279 95,74.5C 96,77.1667 97,79.8333 98,82.5C 98.3333,80.8333 98.6667,79.1667 99,77.5C 101.781,85.2889 103.614,93.2889 104.5,101.5C 103.5,101.5 102.5,101.5 101.5,101.5C 103.729,108.841 105.729,116.174 107.5,123.5C 106.5,123.5 105.5,123.5 104.5,123.5 Z"/></g>
<g><path style="opacity:1" fill="#8781ac" d="M 132.5,75.5 C 134.245,79.1997 135.245,83.1997 135.5,87.5C 134.71,88.6085 134.21,89.9419 134,91.5C 133.085,90.6721 132.419,89.6721 132,88.5C 131.936,91.7631 131.102,94.7631 129.5,97.5C 130.537,101.087 132.037,101.087 134,97.5C 134.229,100.502 132.729,101.835 129.5,101.5C 128.996,105.335 127.996,105.335 126.5,101.5C 125.833,104.167 125.167,106.833 124.5,109.5C 123.817,109.137 123.15,108.804 122.5,108.5C 121.349,103.834 121.349,99.1671 122.5,94.5C 123.086,94.7093 123.586,95.0426 124,95.5C 124.301,92.4929 124.135,89.4929 123.5,86.5C 125.179,86.7148 126.179,86.0481 126.5,84.5C 128.5,81.5 130.5,78.5 132.5,75.5 Z"/></g>
<g><path style="opacity:1" fill="#b9beaa" d="M 23.5,97.5 C 24.7401,98.973 25.7401,100.64 26.5,102.5C 23.3582,103.782 22.0248,106.115 22.5,109.5C 19.2854,109.095 16.2854,108.095 13.5,106.5C 12.4019,105.603 12.4019,104.77 13.5,104C 14.7932,103.51 16.1266,103.343 17.5,103.5C 17.5,101.833 17.5,100.167 17.5,98.5C 11.7316,96.7029 5.73163,96.0362 -0.5,96.5C -0.5,95.5 -0.5,94.5 -0.5,93.5C 5.3003,93.5988 9.8003,91.2655 13,86.5C 14.5122,87.2567 15.8455,88.2567 17,89.5C 17.306,93.7235 19.4727,96.3902 23.5,97.5 Z"/></g>
<g><path style="opacity:1" fill="#c8b995" d="M 93.5,98.5 C 94.8873,100.877 95.7206,103.543 96,106.5C 96.3768,107.942 97.2101,108.942 98.5,109.5C 100.13,113.48 101.797,117.48 103.5,121.5C 99.4378,116.968 96.1045,111.968 93.5,106.5C 93.5,106.167 93.5,105.833 93.5,105.5C 94.1032,103.374 94.1032,101.041 93.5,98.5 Z"/></g>
<g><path style="opacity:1" fill="#a2a982" d="M 89.5,91.5 C 90.7384,93.2143 91.405,95.2143 91.5,97.5C 90.7784,97.0825 90.2784,96.4158 90,95.5C 87.6194,96.435 85.1194,96.7683 82.5,96.5C 82.6602,98.1992 82.4935,99.8659 82,101.5C 80.5187,102.471 79.6854,103.804 79.5,105.5C 76.0436,109.302 73.3769,113.635 71.5,118.5C 69.6203,118.771 68.287,118.104 67.5,116.5C 71.6112,108.455 76.6112,100.955 82.5,94C 85.3615,94.0302 87.6948,93.1969 89.5,91.5 Z"/></g>
<g><path style="opacity:1" fill="#858abe" d="M 135.5,87.5 C 135.802,90.3725 136.469,93.0392 137.5,95.5C 134.731,105.038 131.398,114.371 127.5,123.5C 124.167,123.5 120.833,123.5 117.5,123.5C 117.5,122.5 117.5,121.5 117.5,120.5C 116.846,114.619 118.512,110.619 122.5,108.5C 123.15,108.804 123.817,109.137 124.5,109.5C 125.167,106.833 125.833,104.167 126.5,101.5C 127.996,105.335 128.996,105.335 129.5,101.5C 132.729,101.835 134.229,100.502 134,97.5C 132.037,101.087 130.537,101.087 129.5,97.5C 131.102,94.7631 131.936,91.7631 132,88.5C 132.419,89.6721 133.085,90.6721 134,91.5C 134.21,89.9419 134.71,88.6085 135.5,87.5 Z"/></g>
<g><path style="opacity:1" fill="#2a0400" d="M 175.5,122.5 C 172.65,124.592 169.65,126.092 166.5,127C 163.956,125.245 161.623,123.245 159.5,121C 154.878,121.198 152.878,119.032 153.5,114.5C 157.513,111.172 161.847,108.172 166.5,105.5C 167.496,105.586 168.329,105.252 169,104.5C 173.179,107.257 177.179,110.257 181,113.5C 181.667,114.5 181.667,115.5 181,116.5C 179.577,119.07 177.744,121.07 175.5,122.5 Z"/></g>
<g><path style="opacity:1" fill="#f9f7e3" d="M -0.5,100.5 C 3.95471,102.944 8.62137,104.944 13.5,106.5C 16.2854,108.095 19.2854,109.095 22.5,109.5C 25.54,111.346 28.8733,112.679 32.5,113.5C 33.1667,113.5 33.8333,113.5 34.5,113.5C 37.0067,114.892 39.6733,115.892 42.5,116.5C 44.0418,117.301 45.7085,117.634 47.5,117.5C 44.3188,118.59 40.9855,118.59 37.5,117.5C 24.9615,113.322 12.2948,109.322 -0.5,105.5C -0.5,103.833 -0.5,102.167 -0.5,100.5 Z"/></g>
<g><path style="opacity:1" fill="#330f00" d="M 234.5,104.5 C 232.691,106.474 230.691,108.14 228.5,109.5C 228.167,109.5 227.833,109.5 227.5,109.5C 226.919,106.828 226.085,103.828 225,100.5C 221.122,102.711 219.622,106.045 220.5,110.5C 215.879,112.561 211.212,113.894 206.5,114.5C 205.713,115.242 205.047,116.075 204.5,117C 199.206,118.135 195.206,120.969 192.5,125.5C 190.177,127.322 188.011,129.322 186,131.5C 185.517,130.552 185.351,129.552 185.5,128.5C 186.29,127.391 186.79,126.058 187,124.5C 192.663,119.67 198.163,114.67 203.5,109.5C 205.157,108.425 206.991,107.758 209,107.5C 211.254,108.754 213.42,109.42 215.5,109.5C 216.519,108.313 217.686,107.313 219,106.5C 219.601,103.363 220.601,100.363 222,97.5C 223.333,96.1667 224.667,96.1667 226,97.5C 226.333,99.5 226.667,101.5 227,103.5C 227.893,102.289 228.726,102.289 229.5,103.5C 227.833,105.167 228.167,106.167 230.5,106.5C 231.867,105.775 233.2,105.108 234.5,104.5 Z"/></g>
<g><path style="opacity:1" fill="#812d01" d="M 226.5,122.5 C 226.092,119.275 225.092,116.275 223.5,113.5C 223.453,111.962 224.12,110.962 225.5,110.5C 226.492,110.672 227.158,110.338 227.5,109.5C 227.833,109.5 228.167,109.5 228.5,109.5C 231.335,108.214 234.168,108.214 237,109.5C 237.667,113.5 237.667,117.5 237,121.5C 235.66,122.868 234.326,124.201 233,125.5C 230.965,124.211 228.799,123.211 226.5,122.5 Z"/></g>
<g><path style="opacity:1" fill="#5c2c21" d="M 241.5,101.5 C 242.916,103.179 244.25,104.846 245.5,106.5C 244.076,108.725 243.409,111.225 243.5,114C 244.79,123.852 244.79,133.685 243.5,143.5C 242.833,143.5 242.167,143.5 241.5,143.5C 244.638,130.972 243.805,118.639 239,106.5C 237.89,104.963 236.39,104.297 234.5,104.5C 234.312,102.897 234.812,101.563 236,100.5C 237.507,104.236 238.34,104.236 238.5,100.5C 239.791,100.263 240.791,100.596 241.5,101.5 Z"/></g>
<g><path style="opacity:1" fill="#b6a185" d="M -0.5,105.5 C 12.2948,109.322 24.9615,113.322 37.5,117.5C 33.4003,117.476 29.4003,116.809 25.5,115.5C 20.8673,116.553 16.2007,116.719 11.5,116C 7.70368,114.012 3.70368,112.512 -0.5,111.5C -0.5,109.5 -0.5,107.5 -0.5,105.5 Z"/></g>
<g><path style="opacity:1" fill="#573329" d="M 80.5,119.5 C 77.4824,119.296 74.4824,118.963 71.5,118.5C 73.3769,113.635 76.0436,109.302 79.5,105.5C 80.8195,104.058 82.4862,103.392 84.5,103.5C 84.1545,107.484 85.8212,110.151 89.5,111.5C 86.9285,112.728 85.5952,114.728 85.5,117.5C 83.2188,117.077 81.5521,117.744 80.5,119.5 Z"/></g>
<g><path style="opacity:1" fill="#2c1a1e" d="M 149.5,115.5 C 154.142,121.815 158.809,128.148 163.5,134.5C 157.165,135.691 153.332,133.024 152,126.5C 149.833,124.333 147.667,122.167 145.5,120C 143.613,119.22 141.946,119.387 140.5,120.5C 137.711,122.641 134.711,124.307 131.5,125.5C 131.729,123.567 132.562,121.9 134,120.5C 136.589,118.789 139.089,116.955 141.5,115C 144.278,113.089 146.944,113.255 149.5,115.5 Z"/></g>
<g><path style="opacity:1" fill="#0f0100" d="M 185.5,96.5 C 187.746,97.4552 190.079,98.1218 192.5,98.5C 195.638,99.7837 198.805,101.117 202,102.5C 202.44,104.866 202.94,107.199 203.5,109.5C 198.163,114.67 192.663,119.67 187,124.5C 186.79,126.058 186.29,127.391 185.5,128.5C 183.965,127.212 182.299,127.212 180.5,128.5C 179.5,130.5 178.5,132.5 177.5,134.5C 176.675,135.386 175.675,135.719 174.5,135.5C 174.762,134.022 174.429,132.689 173.5,131.5C 172.914,131.709 172.414,132.043 172,132.5C 170.663,136.026 170.163,139.692 170.5,143.5C 168.5,143.5 166.5,143.5 164.5,143.5C 164.586,142.504 164.252,141.671 163.5,141C 160.833,140.667 158.167,140.333 155.5,140C 155.018,138.992 154.852,137.825 155,136.5C 151.243,133.414 148.243,129.748 146,125.5C 144.871,123.859 143.371,122.859 141.5,122.5C 143.031,121.075 142.698,120.409 140.5,120.5C 141.946,119.387 143.613,119.22 145.5,120C 147.667,122.167 149.833,124.333 152,126.5C 153.332,133.024 157.165,135.691 163.5,134.5C 158.809,128.148 154.142,121.815 149.5,115.5C 150.833,115.167 152.167,114.833 153.5,114.5C 152.878,119.032 154.878,121.198 159.5,121C 161.623,123.245 163.956,125.245 166.5,127C 169.65,126.092 172.65,124.592 175.5,122.5C 177.042,121.699 178.708,121.366 180.5,121.5C 180.452,118.708 181.785,116.875 184.5,116C 183.489,113.524 183.322,110.69 184,107.5C 180.67,104.365 181.17,103.031 185.5,103.5C 184.754,102.264 184.421,100.93 184.5,99.5C 181.396,100.029 179.063,99.0289 177.5,96.5C 179.987,96.2176 182.653,96.2176 185.5,96.5 Z"/></g>
<g><path style="opacity:1" fill="#e54e35" d="M 67.5,116.5 C 68.287,118.104 69.6203,118.771 71.5,118.5C 74.4824,118.963 77.4824,119.296 80.5,119.5C 81.8333,119.5 83.1667,119.5 84.5,119.5C 85.2625,120.268 86.2625,120.768 87.5,121C 80.33,122.001 73.33,121.501 66.5,119.5C 60.2226,118.596 60.556,117.596 67.5,116.5 Z"/></g>
<g><path style="opacity:1" fill="#917f66" d="M -0.5,111.5 C 3.70368,112.512 7.70368,114.012 11.5,116C 16.2007,116.719 20.8673,116.553 25.5,115.5C 29.4003,116.809 33.4003,117.476 37.5,117.5C 40.9855,118.59 44.3188,118.59 47.5,117.5C 51.8155,118.665 56.1489,119.832 60.5,121C 56.4761,121.497 52.4761,121.331 48.5,120.5C 43.074,119.031 37.7407,119.697 32.5,122.5C 27.9888,120.727 23.9888,121.393 20.5,124.5C 13.2558,123.605 6.25581,121.938 -0.5,119.5C -0.5,116.833 -0.5,114.167 -0.5,111.5 Z"/></g>
<g><path style="opacity:1" fill="#806973" d="M 112.5,123.5 C 111.5,123.5 110.5,123.5 109.5,123.5C 108.406,119.208 107.906,114.874 108,110.5C 110.872,114.301 112.372,118.634 112.5,123.5 Z"/></g>
<g><path style="opacity:1" fill="#642404" d="M 225.5,110.5 C 224.12,110.962 223.453,111.962 223.5,113.5C 225.092,116.275 226.092,119.275 226.5,122.5C 224.896,121.713 224.229,120.38 224.5,118.5C 221.041,119.436 218.207,121.436 216,124.5C 215.823,128.356 215.323,132.023 214.5,135.5C 214.649,136.552 214.483,137.552 214,138.5C 211.585,139.411 210.085,141.078 209.5,143.5C 205.5,143.5 201.5,143.5 197.5,143.5C 196.909,142.849 196.243,142.182 195.5,141.5C 196.112,140.005 196.112,138.338 195.5,136.5C 196.192,131.844 197.692,127.511 200,123.5C 202.167,122.667 203.667,121.167 204.5,119C 209.779,116.451 215.446,114.951 221.5,114.5C 222.123,112.034 222.957,109.701 224,107.5C 224.513,108.527 225.013,109.527 225.5,110.5 Z"/></g>
<g><path style="opacity:1" fill="#8f3e2c" d="M 90.5,118.5 C 92.0481,118.821 92.7148,119.821 92.5,121.5C 91.209,121.263 90.209,121.596 89.5,122.5C 83.4908,122.334 77.4908,122.501 71.5,123C 72.4506,123.718 72.6172,124.551 72,125.5C 70.5295,126.267 69.0295,126.933 67.5,127.5C 67.5,126.5 67.5,125.5 67.5,124.5C 68.0967,124.265 68.4301,123.765 68.5,123C 68.0217,121.697 67.355,120.531 66.5,119.5C 73.33,121.501 80.33,122.001 87.5,121C 86.2625,120.768 85.2625,120.268 84.5,119.5C 86.5648,119.483 88.5648,119.15 90.5,118.5 Z"/></g>
<g><path style="opacity:1" fill="#6d604d" d="M 48.5,120.5 C 45.3157,121.334 42.3157,122.667 39.5,124.5C 32.0998,127.13 24.4331,128.13 16.5,127.5C 18.0764,126.857 19.4097,125.857 20.5,124.5C 23.9888,121.393 27.9888,120.727 32.5,122.5C 37.7407,119.697 43.074,119.031 48.5,120.5 Z"/></g>
<g><path style="opacity:1" fill="#593828" d="M 93.5,106.5 C 96.1045,111.968 99.4378,116.968 103.5,121.5C 103.5,121.833 103.5,122.167 103.5,122.5C 102.178,122.33 101.011,122.663 100,123.5C 99.7811,122.062 99.2811,120.729 98.5,119.5C 97.7637,122.757 96.7637,125.924 95.5,129C 96.943,131.078 96.2763,131.911 93.5,131.5C 92.596,130.791 92.2627,129.791 92.5,128.5C 92.7989,126.396 92.4656,124.396 91.5,122.5C 90.8658,124.772 89.5324,126.439 87.5,127.5C 83.6691,127.416 80.0025,128.083 76.5,129.5C 77.7401,128.027 78.7401,126.36 79.5,124.5C 82.9773,123.833 86.3107,123.166 89.5,122.5C 90.209,121.596 91.209,121.263 92.5,121.5C 92.7148,119.821 92.0481,118.821 90.5,118.5C 92.9658,114.988 93.9658,110.988 93.5,106.5 Z"/></g>
<g><path style="opacity:1" fill="#3a392a" d="M 54.5,122.5 C 59.294,121.903 63.6273,122.57 67.5,124.5C 65.0761,128.154 62.0761,131.321 58.5,134C 55.3117,135.316 51.9783,135.816 48.5,135.5C 46.8333,135.5 45.1667,135.5 43.5,135.5C 41.0314,134.683 38.3647,134.183 35.5,134C 40.4222,132.25 45.4222,130.584 50.5,129C 52.7337,127.362 54.067,125.195 54.5,122.5 Z"/></g>
<g><path style="opacity:1" fill="#641d02" d="M 234.5,104.5 C 236.39,104.297 237.89,104.963 239,106.5C 243.805,118.639 244.638,130.972 241.5,143.5C 238.167,143.5 234.833,143.5 231.5,143.5C 231.665,140.15 231.498,136.817 231,133.5C 230.617,132.944 230.117,132.611 229.5,132.5C 228.101,129.301 227.101,125.968 226.5,122.5C 228.799,123.211 230.965,124.211 233,125.5C 234.326,124.201 235.66,122.868 237,121.5C 237.667,117.5 237.667,113.5 237,109.5C 234.168,108.214 231.335,108.214 228.5,109.5C 230.691,108.14 232.691,106.474 234.5,104.5 Z"/></g>
<g><path style="opacity:1" fill="#3b2717" d="M 103.5,122.5 C 103.5,123.167 103.833,123.5 104.5,123.5C 105.209,124.404 106.209,124.737 107.5,124.5C 103.21,126.79 101.376,130.457 102,135.5C 99.2166,133.939 96.3833,132.606 93.5,131.5C 96.2763,131.911 96.943,131.078 95.5,129C 96.7637,125.924 97.7637,122.757 98.5,119.5C 99.2811,120.729 99.7811,122.062 100,123.5C 101.011,122.663 102.178,122.33 103.5,122.5 Z"/></g>
<g><path style="opacity:1" fill="#541b01" d="M 227.5,109.5 C 227.158,110.338 226.492,110.672 225.5,110.5C 225.013,109.527 224.513,108.527 224,107.5C 222.957,109.701 222.123,112.034 221.5,114.5C 215.446,114.951 209.779,116.451 204.5,119C 203.667,121.167 202.167,122.667 200,123.5C 197.692,127.511 196.192,131.844 195.5,136.5C 196.112,138.338 196.112,140.005 195.5,141.5C 196.243,142.182 196.909,142.849 197.5,143.5C 193.5,143.5 189.5,143.5 185.5,143.5C 191.724,141.3 193.058,137.3 189.5,131.5C 191.038,129.757 192.038,127.757 192.5,125.5C 195.206,120.969 199.206,118.135 204.5,117C 205.047,116.075 205.713,115.242 206.5,114.5C 211.212,113.894 215.879,112.561 220.5,110.5C 219.622,106.045 221.122,102.711 225,100.5C 226.085,103.828 226.919,106.828 227.5,109.5 Z"/></g>
<g><path style="opacity:1" fill="#56414c" d="M 241.5,101.5 C 242.93,101.421 244.264,101.754 245.5,102.5C 248.564,105.57 251.897,108.237 255.5,110.5C 255.5,118.833 255.5,127.167 255.5,135.5C 253.814,132.297 251.481,129.464 248.5,127C 248.957,126.586 249.291,126.086 249.5,125.5C 247.247,121.266 246.58,116.933 247.5,112.5C 247.639,110.117 246.972,108.117 245.5,106.5C 244.25,104.846 242.916,103.179 241.5,101.5 Z"/></g>
<g><path style="opacity:1" fill="#745639" d="M -0.5,119.5 C 6.25581,121.938 13.2558,123.605 20.5,124.5C 19.4097,125.857 18.0764,126.857 16.5,127.5C 13.963,127.791 11.2963,127.958 8.5,128C 10.549,130.907 13.2157,132.74 16.5,133.5C 10.7669,133.353 5.10022,132.686 -0.5,131.5C -0.5,127.5 -0.5,123.5 -0.5,119.5 Z"/></g>
<g><path style="opacity:1" fill="#732902" d="M 214.5,135.5 C 212.188,137.146 210.188,139.146 208.5,141.5C 205.628,142.783 202.795,142.783 200,141.5C 199.548,138.851 198.714,136.351 197.5,134C 200.206,131.629 202.539,128.963 204.5,126C 207.13,125.155 209.464,125.655 211.5,127.5C 212.478,127.023 213.311,126.357 214,125.5C 214.498,128.817 214.665,132.15 214.5,135.5 Z"/></g>
<g><path style="opacity:1" fill="#524634" d="M 54.5,122.5 C 54.067,125.195 52.7337,127.362 50.5,129C 45.4222,130.584 40.4222,132.25 35.5,134C 38.3647,134.183 41.0314,134.683 43.5,135.5C 35.1416,135.094 26.8083,134.428 18.5,133.5C 17.8333,133.5 17.1667,133.5 16.5,133.5C 13.2157,132.74 10.549,130.907 8.5,128C 11.2963,127.958 13.963,127.791 16.5,127.5C 24.4331,128.13 32.0998,127.13 39.5,124.5C 39.4226,125.75 38.756,126.583 37.5,127C 39.9664,126.93 42.2997,127.096 44.5,127.5C 47.9127,126.003 51.2461,124.337 54.5,122.5 Z"/></g>
<g><path style="opacity:1" fill="#65352f" d="M 226.5,122.5 C 227.101,125.968 228.101,129.301 229.5,132.5C 227.472,134.959 225.472,134.959 223.5,132.5C 222.914,132.709 222.414,133.043 222,133.5C 220.684,136.688 220.184,140.022 220.5,143.5C 216.833,143.5 213.167,143.5 209.5,143.5C 210.085,141.078 211.585,139.411 214,138.5C 214.483,137.552 214.649,136.552 214.5,135.5C 215.323,132.023 215.823,128.356 216,124.5C 218.207,121.436 221.041,119.436 224.5,118.5C 224.229,120.38 224.896,121.713 226.5,122.5 Z"/></g>
<g><path style="opacity:1" fill="#652c1f" d="M 89.5,122.5 C 86.3107,123.166 82.9773,123.833 79.5,124.5C 78.7401,126.36 77.7401,128.027 76.5,129.5C 72.0817,134.593 66.4151,137.093 59.5,137C 63.4316,134.901 66.0983,131.735 67.5,127.5C 69.0295,126.933 70.5295,126.267 72,125.5C 72.6172,124.551 72.4506,123.718 71.5,123C 77.4908,122.501 83.4908,122.334 89.5,122.5 Z"/></g>
<g><path style="opacity:1" fill="#301f17" d="M 92.5,128.5 C 90.691,131.139 88.3576,133.306 85.5,135C 81.2795,136.361 77.1128,137.861 73,139.5C 71.8615,139.011 70.6948,138.678 69.5,138.5C 73.9403,136.376 78.6069,134.543 83.5,133C 85.4388,131.568 86.7721,129.735 87.5,127.5C 89.5324,126.439 90.8658,124.772 91.5,122.5C 92.4656,124.396 92.7989,126.396 92.5,128.5 Z"/></g>
<g><path style="opacity:1" fill="#220300" d="M 141.5,122.5 C 143.371,122.859 144.871,123.859 146,125.5C 148.243,129.748 151.243,133.414 155,136.5C 154.852,137.825 155.018,138.992 155.5,140C 158.167,140.333 160.833,140.667 163.5,141C 164.252,141.671 164.586,142.504 164.5,143.5C 159.167,143.5 153.833,143.5 148.5,143.5C 148.119,142.069 147.119,141.236 145.5,141C 138.161,139.498 130.828,137.998 123.5,136.5C 129.491,131.836 135.491,127.169 141.5,122.5 Z"/></g>
<g><path style="opacity:1" fill="#563737" d="M 245.5,106.5 C 246.972,108.117 247.639,110.117 247.5,112.5C 246.58,116.933 247.247,121.266 249.5,125.5C 249.291,126.086 248.957,126.586 248.5,127C 251.481,129.464 253.814,132.297 255.5,135.5C 255.5,138.167 255.5,140.833 255.5,143.5C 251.5,143.5 247.5,143.5 243.5,143.5C 244.79,133.685 244.79,123.852 243.5,114C 243.409,111.225 244.076,108.725 245.5,106.5 Z"/></g>
<g><path style="opacity:1" fill="#928d2e" d="M -0.5,131.5 C 5.10022,132.686 10.7669,133.353 16.5,133.5C 17.1667,133.5 17.8333,133.5 18.5,133.5C 21.9416,134.748 25.6083,135.581 29.5,136C 27.1902,136.497 24.8568,136.663 22.5,136.5C 14.7455,135.88 7.07887,134.88 -0.5,133.5C -0.5,132.833 -0.5,132.167 -0.5,131.5 Z"/></g>
<g><path style="opacity:1" fill="#4b261a" d="M 67.5,124.5 C 67.5,125.5 67.5,126.5 67.5,127.5C 66.0983,131.735 63.4316,134.901 59.5,137C 66.4151,137.093 72.0817,134.593 76.5,129.5C 80.0025,128.083 83.6691,127.416 87.5,127.5C 86.7721,129.735 85.4388,131.568 83.5,133C 78.6069,134.543 73.9403,136.376 69.5,138.5C 66.1194,138.46 62.7861,138.793 59.5,139.5C 55.4729,139.949 51.4729,140.616 47.5,141.5C 45.9623,141.547 44.9623,140.88 44.5,139.5C 47.179,139.475 48.5123,138.142 48.5,135.5C 51.9783,135.816 55.3117,135.316 58.5,134C 62.0761,131.321 65.0761,128.154 67.5,124.5 Z"/></g>
<g><path style="opacity:1" fill="#836d27" d="M 18.5,133.5 C 26.8083,134.428 35.1416,135.094 43.5,135.5C 45.1667,135.5 46.8333,135.5 48.5,135.5C 48.5123,138.142 47.179,139.475 44.5,139.5C 43.7375,138.732 42.7375,138.232 41.5,138C 34.9867,137.828 28.6534,137.328 22.5,136.5C 24.8568,136.663 27.1902,136.497 29.5,136C 25.6083,135.581 21.9416,134.748 18.5,133.5 Z"/></g>
<g><path style="opacity:1" fill="#400801" d="M 192.5,125.5 C 192.038,127.757 191.038,129.757 189.5,131.5C 193.058,137.3 191.724,141.3 185.5,143.5C 180.5,143.5 175.5,143.5 170.5,143.5C 170.163,139.692 170.663,136.026 172,132.5C 172.414,132.043 172.914,131.709 173.5,131.5C 174.429,132.689 174.762,134.022 174.5,135.5C 175.675,135.719 176.675,135.386 177.5,134.5C 178.5,132.5 179.5,130.5 180.5,128.5C 182.299,127.212 183.965,127.212 185.5,128.5C 185.351,129.552 185.517,130.552 186,131.5C 188.011,129.322 190.177,127.322 192.5,125.5 Z"/></g>
<g><path style="opacity:1" fill="#323224" d="M -0.5,133.5 C 7.07887,134.88 14.7455,135.88 22.5,136.5C 28.6534,137.328 34.9867,137.828 41.5,138C 42.7375,138.232 43.7375,138.732 44.5,139.5C 44.9623,140.88 45.9623,141.547 47.5,141.5C 51.4729,140.616 55.4729,139.949 59.5,139.5C 59.1193,140.931 58.1193,141.764 56.5,142C 62.0158,142.173 67.3491,142.673 72.5,143.5C 48.1667,143.5 23.8333,143.5 -0.5,143.5C -0.5,140.167 -0.5,136.833 -0.5,133.5 Z"/></g>
<g><path style="opacity:1" fill="#5c383e" d="M 229.5,132.5 C 230.117,132.611 230.617,132.944 231,133.5C 231.498,136.817 231.665,140.15 231.5,143.5C 227.833,143.5 224.167,143.5 220.5,143.5C 220.184,140.022 220.684,136.688 222,133.5C 222.414,133.043 222.914,132.709 223.5,132.5C 225.472,134.959 227.472,134.959 229.5,132.5 Z"/></g>
</svg>
