<?xml version="1.0" encoding="UTF-8"?>
<!DOCTYPE svg PUBLIC "-//W3C//DTD SVG 1.1//EN" "http://www.w3.org/Graphics/SVG/1.1/DTD/svg11.dtd">
<svg xmlns="http://www.w3.org/2000/svg" version="1.1" width="256px" height="144px" style="shape-rendering:geometricPrecision; text-rendering:geometricPrecision; image-rendering:optimizeQuality; fill-rule:evenodd; clip-rule:evenodd" xmlns:xlink="http://www.w3.org/1999/xlink">
<g><path style="opacity:1" fill="#4a482b" d="M -0.5,-0.5 C 8.16667,-0.5 16.8333,-0.5 25.5,-0.5C 25.6399,1.12377 24.9733,2.29044 23.5,3C 23.6479,6.10612 23.9812,9.27278 24.5,12.5C 23.91,13.7989 22.91,14.6322 21.5,15C 23.7682,17.032 23.1015,18.3654 19.5,19C 19.6916,22.7586 19.6916,26.4253 19.5,30C 17.6558,32.3429 15.6558,34.5096 13.5,36.5C 14.0016,37.7164 14.3349,38.8831 14.5,40C 13.8333,40.3333 13.1667,40.6667 12.5,41C 13.8333,41.6667 13.8333,42.3333 12.5,43C 14.8307,44.7998 14.8307,46.7998 12.5,49C 13.1667,51 13.8333,53 14.5,55C 13.6721,55.9147 12.6721,56.5814 11.5,57C 12.1667,57.3333 12.8333,57.6667 13.5,58C 13.5796,60.2796 12.9129,62.6129 11.5,65C 11.4525,67.4759 11.7858,69.8092 12.5,72C 11.6383,74.7344 10.805,74.9011 10,72.5C 9.62576,73.4162 9.12576,74.2496 8.5,75C 9.23154,80.4607 9.56487,86.1274 9.5,92C 8.85608,97.7328 7.52274,103.233 5.5,108.5C 6.26061,114.548 6.26061,120.381 5.5,126C 6.50161,132.186 8.50161,138.019 11.5,143.5C 7.5,143.5 3.5,143.5 -0.5,143.5C -0.5,95.5 -0.5,47.5 -0.5,-0.5 Z"/></g>
<g><path style="opacity:1" fill="#2f2a14" d="M 137.5,-0.5 C 142.833,-0.5 148.167,-0.5 153.5,-0.5C 152.119,1.27413 152.452,2.77413 154.5,4C 152.541,6.31579 152.541,8.31579 154.5,10C 153.745,14.4426 153.078,18.9426 152.5,23.5C 152.818,24.6473 153.484,25.4806 154.5,26C 154.745,27.9114 154.745,29.9114 154.5,32C 158.807,37.6414 164.14,42.9747 170.5,48C 170.167,48.3333 169.833,48.6667 169.5,49C 170.973,49.7096 171.64,50.8762 171.5,52.5C 173.592,52.5614 175.092,53.5614 176,55.5C 176.333,55.1667 176.667,54.8333 177,54.5C 179.681,57.9225 182.681,60.2559 186,61.5C 186.308,60.6919 186.808,60.0253 187.5,59.5C 187.736,60.2472 188.07,61.0805 188.5,62C 189.784,62.6838 190.951,62.5171 192,61.5C 202.508,67.1055 213.175,73.1055 224,79.5C 225.727,78.626 227.56,78.7926 229.5,80C 233.334,82.8724 236.5,85.7057 239,88.5C 241.848,94.8732 245.348,100.873 249.5,106.5C 251.304,107.768 253.304,108.435 255.5,108.5C 255.5,112.167 255.5,115.833 255.5,119.5C 254.732,120.263 254.232,121.263 254,122.5C 253.017,120.552 251.85,118.718 250.5,117C 242.378,114.94 234.711,111.106 227.5,105.5C 225.281,106.346 223.114,106.012 221,104.5C 219.238,104.944 219.405,105.444 221.5,106C 219.005,106.157 216.672,106.324 214.5,106.5C 214.81,108.201 214.31,109.868 213,111.5C 211.869,110.396 211.035,110.729 210.5,112.5C 211.18,113.86 211.847,115.193 212.5,116.5C 210.833,116.5 209.167,116.5 207.5,116.5C 206.167,116.5 204.833,116.5 203.5,116.5C 201.047,110.643 198.88,104.643 197,98.5C 196.34,96.6763 195.173,95.343 193.5,94.5C 193.672,93.5084 193.338,92.8417 192.5,92.5C 192.167,91.8333 191.833,91.1667 191.5,90.5C 190.265,88.2271 190.598,86.3938 192.5,85C 191.216,84.3162 190.049,84.4829 189,85.5C 188.691,84.2341 188.191,83.0674 187.5,82C 185.939,81.6824 184.772,80.8491 184,79.5C 183.667,79.8333 183.333,80.1667 183,80.5C 182,79.1667 181,77.8333 180,76.5C 179.667,76.8333 179.333,77.1667 179,77.5C 177.632,76.0069 177.465,74.5069 178.5,73C 175.456,72.6411 175.122,71.9745 177.5,71C 173.325,69.2961 169.158,66.7961 165,63.5C 164.383,62.5509 164.549,61.7175 165.5,61C 164,59.1667 162.5,57.3333 161,55.5C 160.667,55.8333 160.333,56.1667 160,56.5C 159.802,54.6183 159.302,52.9516 158.5,51.5C 152.33,50.6805 146.997,48.3472 142.5,44.5C 141,40.827 139,37.4937 136.5,34.5C 136.5,33.8333 136.5,33.1667 136.5,32.5C 136.553,26.8044 136.22,21.1377 135.5,15.5C 135.5,13.5 135.5,11.5 135.5,9.5C 136.785,6.41148 137.451,3.07815 137.5,-0.5 Z"/></g>
<g><path style="opacity:1" fill="#e7c872" d="M 109.5,-0.5 C 110.5,-0.5 111.5,-0.5 112.5,-0.5C 114.497,1.51299 116.164,3.84632 117.5,6.5C 117.5,6.83333 117.5,7.16667 117.5,7.5C 114.5,5.16667 111.833,2.5 109.5,-0.5 Z"/></g>
<g><path style="opacity:1" fill="#272311" d="M 153.5,-0.5 C 156.167,-0.5 158.833,-0.5 161.5,-0.5C 162.883,2.46056 164.55,5.29389 166.5,8C 166.167,9.66667 165.833,11.3333 165.5,13C 166.851,16.8749 168.684,20.7083 171,24.5C 172.666,23.6598 172.833,24.1598 171.5,26C 172.701,26.9025 173.535,28.0692 174,29.5C 175.081,27.2329 176.581,27.0662 178.5,29C 178.167,29.3333 177.833,29.6667 177.5,30C 180.167,31.6667 182.833,33.3333 185.5,35C 185.167,35.3333 184.833,35.6667 184.5,36C 185.787,37.4095 186.954,38.9095 188,40.5C 188.333,40.1667 188.667,39.8333 189,39.5C 190.097,41.0526 191.43,42.386 193,43.5C 193.333,43.1667 193.667,42.8333 194,42.5C 194.967,43.6776 195.467,45.011 195.5,46.5C 203.336,51.3442 211.169,56.3442 219,61.5C 225.224,64.3187 231.224,66.652 237,68.5C 246.107,73.6094 251.774,81.2761 254,91.5C 254.186,88.9644 254.686,86.631 255.5,84.5C 255.5,92.5 255.5,100.5 255.5,108.5C 253.304,108.435 251.304,107.768 249.5,106.5C 245.348,100.873 241.848,94.8732 239,88.5C 236.5,85.7057 233.334,82.8724 229.5,80C 227.56,78.7926 225.727,78.626 224,79.5C 213.175,73.1055 202.508,67.1055 192,61.5C 190.951,62.5171 189.784,62.6838 188.5,62C 188.07,61.0805 187.736,60.2472 187.5,59.5C 186.808,60.0253 186.308,60.6919 186,61.5C 182.681,60.2559 179.681,57.9225 177,54.5C 176.667,54.8333 176.333,55.1667 176,55.5C 175.092,53.5614 173.592,52.5614 171.5,52.5C 171.64,50.8762 170.973,49.7096 169.5,49C 169.833,48.6667 170.167,48.3333 170.5,48C 164.14,42.9747 158.807,37.6414 154.5,32C 154.745,29.9114 154.745,27.9114 154.5,26C 153.484,25.4806 152.818,24.6473 152.5,23.5C 153.078,18.9426 153.745,14.4426 154.5,10C 152.541,8.31579 152.541,6.31579 154.5,4C 152.452,2.77413 152.119,1.27413 153.5,-0.5 Z"/></g>
<g><path style="opacity:1" fill="#201c0e" d="M 161.5,-0.5 C 166.833,-0.5 172.167,-0.5 177.5,-0.5C 176.048,0.301916 174.382,0.801916 172.5,1C 176.187,4.74116 178.854,8.57449 180.5,12.5C 181.552,12.3505 182.552,12.5172 183.5,13C 189.389,18.7671 195.056,24.7671 200.5,31C 200.167,31.3333 199.833,31.6667 199.5,32C 206.28,38.4026 212.947,44.9026 219.5,51.5C 229.456,56.7623 239.456,61.9289 249.5,67C 250.652,69.1487 252.152,70.982 254,72.5C 254.179,68.9748 254.679,65.6414 255.5,62.5C 255.5,69.8333 255.5,77.1667 255.5,84.5C 254.686,86.631 254.186,88.9644 254,91.5C 251.774,81.2761 246.107,73.6094 237,68.5C 231.224,66.652 225.224,64.3187 219,61.5C 211.169,56.3442 203.336,51.3442 195.5,46.5C 195.467,45.011 194.967,43.6776 194,42.5C 193.667,42.8333 193.333,43.1667 193,43.5C 191.43,42.386 190.097,41.0526 189,39.5C 188.667,39.8333 188.333,40.1667 188,40.5C 186.954,38.9095 185.787,37.4095 184.5,36C 184.833,35.6667 185.167,35.3333 185.5,35C 182.833,33.3333 180.167,31.6667 177.5,30C 177.833,29.6667 178.167,29.3333 178.5,29C 176.581,27.0662 175.081,27.2329 174,29.5C 173.535,28.0692 172.701,26.9025 171.5,26C 172.833,24.1598 172.666,23.6598 171,24.5C 168.684,20.7083 166.851,16.8749 165.5,13C 165.833,11.3333 166.167,9.66667 166.5,8C 164.55,5.29389 162.883,2.46056 161.5,-0.5 Z"/></g>
<g><path style="opacity:1" fill="#17150a" d="M 177.5,-0.5 C 177.833,-0.5 178.167,-0.5 178.5,-0.5C 185.726,4.88252 192.559,10.8825 199,17.5C 203.456,23.6249 208.289,29.4583 213.5,35C 213.167,35.3333 212.833,35.6667 212.5,36C 217.317,40.4829 222.151,44.9829 227,49.5C 229.61,49.6532 231.943,50.9865 234,53.5C 236.186,54.0217 238.519,54.0217 241,53.5C 245.466,55.9844 249.799,58.6511 254,61.5C 254.497,58.854 254.664,56.1873 254.5,53.5C 254.833,53.5 255.167,53.5 255.5,53.5C 255.5,56.5 255.5,59.5 255.5,62.5C 254.679,65.6414 254.179,68.9748 254,72.5C 252.152,70.982 250.652,69.1487 249.5,67C 239.456,61.9289 229.456,56.7623 219.5,51.5C 212.947,44.9026 206.28,38.4026 199.5,32C 199.833,31.6667 200.167,31.3333 200.5,31C 195.056,24.7671 189.389,18.7671 183.5,13C 182.552,12.5172 181.552,12.3505 180.5,12.5C 178.854,8.57449 176.187,4.74116 172.5,1C 174.382,0.801916 176.048,0.301916 177.5,-0.5 Z"/></g>
<g><path style="opacity:1" fill="#0c0b05" d="M 178.5,-0.5 C 184.5,-0.5 190.5,-0.5 196.5,-0.5C 200.895,-0.130692 204.895,1.36931 208.5,4C 215.652,14.4391 223.652,24.2725 232.5,33.5C 237.695,37.3771 242.528,41.0437 247,44.5C 248.873,43.9109 250.54,44.5776 252,46.5C 252.333,46.1667 252.667,45.8333 253,45.5C 254.252,48.0135 254.752,50.6802 254.5,53.5C 254.664,56.1873 254.497,58.854 254,61.5C 249.799,58.6511 245.466,55.9844 241,53.5C 238.519,54.0217 236.186,54.0217 234,53.5C 231.943,50.9865 229.61,49.6532 227,49.5C 222.151,44.9829 217.317,40.4829 212.5,36C 212.833,35.6667 213.167,35.3333 213.5,35C 208.289,29.4583 203.456,23.6249 199,17.5C 192.559,10.8825 185.726,4.88252 178.5,-0.5 Z"/></g>
<g><path style="opacity:1" fill="#020201" d="M 196.5,-0.5 C 216.167,-0.5 235.833,-0.5 255.5,-0.5C 255.5,17.5 255.5,35.5 255.5,53.5C 255.167,53.5 254.833,53.5 254.5,53.5C 254.752,50.6802 254.252,48.0135 253,45.5C 252.667,45.8333 252.333,46.1667 252,46.5C 250.54,44.5776 248.873,43.9109 247,44.5C 242.528,41.0437 237.695,37.3771 232.5,33.5C 223.652,24.2725 215.652,14.4391 208.5,4C 204.895,1.36931 200.895,-0.130692 196.5,-0.5 Z"/></g>
<g><path style="opacity:1" fill="#1d1713" d="M 82.5,10.5 C 80.3915,9.76262 78.2248,9.09595 76,8.5C 71.1418,9.04496 66.6418,10.3783 62.5,12.5C 58.5471,13.6392 55.5471,15.9726 53.5,19.5C 52.1103,20.8993 51.1103,22.5659 50.5,24.5C 49.2101,25.0577 48.3768,26.0577 48,27.5C 47.5015,31.4914 46.3348,35.158 44.5,38.5C 42.5516,40.3204 41.5516,42.6538 41.5,45.5C 39.9671,52.7751 38.6337,60.1084 37.5,67.5C 37.5,68.1667 37.8333,68.5 38.5,68.5C 38.5,69.1667 38.5,69.8333 38.5,70.5C 37.9573,73.2184 37.2906,75.885 36.5,78.5C 34.1749,83.1228 31.8416,87.7895 29.5,92.5C 28.3622,89.6965 28.1955,86.6965 29,83.5C 31.5001,74.4983 34.0001,65.4983 36.5,56.5C 38.7629,48.0847 40.4296,39.418 41.5,30.5C 45.9857,19.5016 52.9857,10.3349 62.5,3C 64.7538,1.8495 67.0871,1.51617 69.5,2C 74.6272,4.39735 79.6272,7.06402 84.5,10C 83.9056,10.4643 83.2389,10.631 82.5,10.5 Z"/></g>
<g><path style="opacity:1" fill="#785b58" d="M 132.5,-0.5 C 134.167,-0.5 135.833,-0.5 137.5,-0.5C 137.451,3.07815 136.785,6.41148 135.5,9.5C 135.107,7.7162 134.441,6.04953 133.5,4.5C 132.962,2.88277 132.629,1.2161 132.5,-0.5 Z"/></g>
<g><path style="opacity:1" fill="#b7a388" d="M 123.5,-0.5 C 126.5,-0.5 129.5,-0.5 132.5,-0.5C 132.629,1.2161 132.962,2.88277 133.5,4.5C 132.022,5.96992 130.689,7.63659 129.5,9.5C 127.683,6.04096 125.683,2.70763 123.5,-0.5 Z"/></g>
<g><path style="opacity:1" fill="#b9924a" d="M 48.5,-0.5 C 49.5,-0.5 50.5,-0.5 51.5,-0.5C 45.5182,4.484 40.1849,10.1507 35.5,16.5C 35.5,15.5 35.5,14.5 35.5,13.5C 39.1549,8.17938 43.4882,3.51271 48.5,-0.5 Z"/></g>
<g><path style="opacity:1" fill="#37210e" d="M 51.5,-0.5 C 61.1667,-0.5 70.8333,-0.5 80.5,-0.5C 87.9341,5.08907 95.2675,10.9224 102.5,17C 106.445,20.9459 109.611,25.4459 112,30.5C 113.11,32.0368 114.61,32.7035 116.5,32.5C 116.831,40.5277 116.498,48.5277 115.5,56.5C 114.881,49.7821 114.048,43.1154 113,36.5C 112,34.1667 110.333,32.5 108,31.5C 108.498,28.7954 107.498,26.4621 105,24.5C 104.29,25.9733 103.124,26.6399 101.5,26.5C 96.3084,19.6277 89.975,14.2944 82.5,10.5C 83.2389,10.631 83.9056,10.4643 84.5,10C 79.6272,7.06402 74.6272,4.39735 69.5,2C 67.0871,1.51617 64.7538,1.8495 62.5,3C 52.9857,10.3349 45.9857,19.5016 41.5,30.5C 41.5,29.5 41.5,28.5 41.5,27.5C 39.8762,27.6399 38.7096,26.9733 38,25.5C 36.7901,30.8596 35.4568,36.193 34,41.5C 33.3333,42.8333 32.6667,42.8333 32,41.5C 30.8582,45.0621 29.3582,47.7288 27.5,49.5C 28.3098,43.8541 28.9765,38.1874 29.5,32.5C 29.5,31.8333 29.5,31.1667 29.5,30.5C 31.0739,28.8984 31.7406,26.8984 31.5,24.5C 32.3257,21.5152 33.659,18.8485 35.5,16.5C 40.1849,10.1507 45.5182,4.484 51.5,-0.5 Z"/></g>
<g><path style="opacity:1" fill="#d0c59b" d="M 112.5,-0.5 C 116.167,-0.5 119.833,-0.5 123.5,-0.5C 125.683,2.70763 127.683,6.04096 129.5,9.5C 130.689,7.63659 132.022,5.96992 133.5,4.5C 134.441,6.04953 135.107,7.7162 135.5,9.5C 135.5,11.5 135.5,13.5 135.5,15.5C 134.686,13.369 134.186,11.0356 134,8.5C 133.667,11.5 133.333,14.5 133,17.5C 130.867,15.8624 128.367,15.029 125.5,15C 124.291,11.9627 123.457,8.79602 123,5.5C 120.04,-1.16745 118.206,-0.834113 117.5,6.5C 116.164,3.84632 114.497,1.51299 112.5,-0.5 Z"/></g>
<g><path style="opacity:1" fill="#f5ec89" d="M 38.5,-0.5 C 41.8333,-0.5 45.1667,-0.5 48.5,-0.5C 43.4882,3.51271 39.1549,8.17938 35.5,13.5C 34.8333,12.5 34.1667,11.5 33.5,10.5C 35.4466,6.9415 37.1133,3.27483 38.5,-0.5 Z"/></g>
<g><path style="opacity:1" fill="#d4a754" d="M 85.5,-0.5 C 92.5,-0.5 99.5,-0.5 106.5,-0.5C 106.528,1.58236 105.861,3.4157 104.5,5C 102.5,4.66667 100.5,4.33333 98.5,4C 102.868,8.03296 106.868,12.3663 110.5,17C 110,17.5 109.5,18 109,18.5C 108.184,17.1772 107.017,16.5106 105.5,16.5C 99.2049,10.3589 92.5382,4.69222 85.5,-0.5 Z"/></g>
<g><path style="opacity:1" fill="#8b5a41" d="M 62.5,12.5 C 68.8421,12.3338 75.1754,12.5005 81.5,13C 83.2738,13.9704 85.1072,14.8037 87,15.5C 89.6447,19.478 92.978,22.8113 97,25.5C 97.7914,26.745 98.2914,28.0783 98.5,29.5C 96.1667,27.5 93.8333,25.5 91.5,23.5C 89.249,22.1825 87.249,20.5158 85.5,18.5C 78.88,13.5927 71.5466,12.426 63.5,15C 60.4671,17.2077 57.1337,18.7077 53.5,19.5C 55.5471,15.9726 58.5471,13.6392 62.5,12.5 Z"/></g>
<g><path style="opacity:1" fill="#eeead5" d="M 35.5,-0.5 C 36.5,-0.5 37.5,-0.5 38.5,-0.5C 37.1133,3.27483 35.4466,6.9415 33.5,10.5C 31.7685,14.295 29.7685,17.9617 27.5,21.5C 29.5625,13.8967 32.2291,6.56339 35.5,-0.5 Z"/></g>
<g><path style="opacity:1" fill="#c68b61" d="M 85.5,18.5 C 77.2148,17.3941 68.8815,17.2274 60.5,18C 59.944,18.3826 59.6107,18.8826 59.5,19.5C 57.0326,19.7549 55.0326,20.7549 53.5,22.5C 52.5,23.1667 51.5,23.8333 50.5,24.5C 51.1103,22.5659 52.1103,20.8993 53.5,19.5C 57.1337,18.7077 60.4671,17.2077 63.5,15C 71.5466,12.426 78.88,13.5927 85.5,18.5 Z"/></g>
<g><path style="opacity:1" fill="#ba8d37" d="M 106.5,-0.5 C 107.5,-0.5 108.5,-0.5 109.5,-0.5C 111.833,2.5 114.5,5.16667 117.5,7.5C 119.262,8.26231 120.262,9.59565 120.5,11.5C 119.206,10.7101 118.039,9.7101 117,8.5C 118.916,12.9772 121.416,17.3106 124.5,21.5C 123.645,22.293 122.811,21.9597 122,20.5C 120.887,21.7111 119.72,21.7111 118.5,20.5C 117.054,21.1709 116.388,22.3376 116.5,24C 117.507,26.517 118.674,29.017 120,31.5C 120.823,39.6775 120.656,47.6775 119.5,55.5C 119.666,48.825 119.5,42.1583 119,35.5C 118.821,39.0252 118.321,42.3586 117.5,45.5C 117.666,40.4889 117.499,35.4889 117,30.5C 114.058,25.0621 110.225,20.3954 105.5,16.5C 107.017,16.5106 108.184,17.1772 109,18.5C 109.5,18 110,17.5 110.5,17C 106.868,12.3663 102.868,8.03296 98.5,4C 100.5,4.33333 102.5,4.66667 104.5,5C 105.861,3.4157 106.528,1.58236 106.5,-0.5 Z"/></g>
<g><path style="opacity:1" fill="#eceab5" d="M 135.5,15.5 C 136.22,21.1377 136.553,26.8044 136.5,32.5C 131.409,25.3202 126.076,18.3202 120.5,11.5C 120.262,9.59565 119.262,8.26231 117.5,7.5C 117.5,7.16667 117.5,6.83333 117.5,6.5C 118.206,-0.834113 120.04,-1.16745 123,5.5C 123.457,8.79602 124.291,11.9627 125.5,15C 128.367,15.029 130.867,15.8624 133,17.5C 133.333,14.5 133.667,11.5 134,8.5C 134.186,11.0356 134.686,13.369 135.5,15.5 Z"/></g>
<g><path style="opacity:1" fill="#764835" d="M 82.5,10.5 C 89.975,14.2944 96.3084,19.6277 101.5,26.5C 103.934,30.2717 105.934,34.2717 107.5,38.5C 106.5,38.5 105.5,38.5 104.5,38.5C 104.279,36.3364 103.279,34.6697 101.5,33.5C 101.262,31.5956 100.262,30.2623 98.5,29.5C 98.2914,28.0783 97.7914,26.745 97,25.5C 92.978,22.8113 89.6447,19.478 87,15.5C 85.1072,14.8037 83.2738,13.9704 81.5,13C 75.1754,12.5005 68.8421,12.3338 62.5,12.5C 66.6418,10.3783 71.1418,9.04496 76,8.5C 78.2248,9.09595 80.3915,9.76262 82.5,10.5 Z"/></g>
<g><path style="opacity:1" fill="#fab983" d="M 84.5,31.5 C 83.5084,31.3284 82.8417,31.6618 82.5,32.5C 78.669,32.6591 76.3356,34.6591 75.5,38.5C 73.8794,39.695 72.2128,40.695 70.5,41.5C 70.1788,39.9519 69.1788,39.2852 67.5,39.5C 67.33,38.1779 67.6634,37.0113 68.5,36C 67.9747,35.3076 67.3081,34.8076 66.5,34.5C 65.1936,35.9122 64.3603,37.5789 64,39.5C 62.6976,40.0848 61.531,40.7515 60.5,41.5C 59.8333,41.5 59.1667,41.5 58.5,41.5C 57.4324,40.5655 56.099,40.2322 54.5,40.5C 54.5191,38.9397 54.8524,37.4397 55.5,36C 54.2985,33.7661 52.9652,31.5994 51.5,29.5C 51.9702,27.2262 52.9702,25.2262 54.5,23.5C 54.3764,22.8933 54.0431,22.56 53.5,22.5C 55.0326,20.7549 57.0326,19.7549 59.5,19.5C 67.173,19.0543 74.8396,18.8876 82.5,19C 84.386,21.7634 86.7193,24.0968 89.5,26C 88.2068,26.49 86.8734,26.6567 85.5,26.5C 85.634,28.2915 85.3007,29.9582 84.5,31.5 Z"/></g>
<g><path style="opacity:1" fill="#f5daa5" d="M 53.5,22.5 C 54.0431,22.56 54.3764,22.8933 54.5,23.5C 52.9702,25.2262 51.9702,27.2262 51.5,29.5C 52.9652,31.5994 54.2985,33.7661 55.5,36C 54.8524,37.4397 54.5191,38.9397 54.5,40.5C 56.099,40.2322 57.4324,40.5655 58.5,41.5C 58.5,43.1667 58.5,44.8333 58.5,46.5C 56.6096,46.7035 55.1096,46.0368 54,44.5C 54.0094,34.6004 51.0094,33.267 45,40.5C 44.5357,39.9056 44.369,39.2389 44.5,38.5C 46.3348,35.158 47.5015,31.4914 48,27.5C 48.3768,26.0577 49.2101,25.0577 50.5,24.5C 51.5,23.8333 52.5,23.1667 53.5,22.5 Z"/></g>
<g><path style="opacity:1" fill="#9c6e22" d="M 120.5,11.5 C 124.203,18.4168 128.369,25.0834 133,31.5C 134.813,36.6135 136.813,41.6135 139,46.5C 143.01,51.3411 148.176,54.0078 154.5,54.5C 154.376,55.1067 154.043,55.44 153.5,55.5C 148.365,55.429 143.865,53.7623 140,50.5C 137.649,50.8201 135.316,51.1535 133,51.5C 130.618,48.709 127.785,47.709 124.5,48.5C 123.808,47.9747 123.308,47.3081 123,46.5C 121.695,54.0982 120.861,61.7648 120.5,69.5C 123.479,67.908 126.312,65.908 129,63.5C 130.491,65.0037 132.324,65.8371 134.5,66C 135.774,66.9772 135.774,67.8106 134.5,68.5C 133.399,67.4017 132.066,67.235 130.5,68C 126.244,71.0453 122.077,74.212 118,77.5C 117.982,75.2028 118.149,72.8695 118.5,70.5C 118.413,65.4635 118.746,60.4635 119.5,55.5C 120.656,47.6775 120.823,39.6775 120,31.5C 118.674,29.017 117.507,26.517 116.5,24C 116.388,22.3376 117.054,21.1709 118.5,20.5C 119.72,21.7111 120.887,21.7111 122,20.5C 122.811,21.9597 123.645,22.293 124.5,21.5C 121.416,17.3106 118.916,12.9772 117,8.5C 118.039,9.7101 119.206,10.7101 120.5,11.5 Z"/></g>
<g><path style="opacity:1" fill="#ded46c" d="M 33.5,10.5 C 34.1667,11.5 34.8333,12.5 35.5,13.5C 35.5,14.5 35.5,15.5 35.5,16.5C 33.659,18.8485 32.3257,21.5152 31.5,24.5C 30.0687,25.7804 29.4021,27.4471 29.5,29.5C 28.391,29.5569 27.391,29.8902 26.5,30.5C 26.9629,27.5176 27.2962,24.5176 27.5,21.5C 29.7685,17.9617 31.7685,14.295 33.5,10.5 Z"/></g>
<g><path style="opacity:1" fill="#de9c6c" d="M 85.5,18.5 C 87.249,20.5158 89.249,22.1825 91.5,23.5C 92.0476,25.3936 93.0476,27.0603 94.5,28.5C 94.1667,29.1667 93.8333,29.8333 93.5,30.5C 94.6872,31.5195 95.6872,32.6861 96.5,34C 95.244,34.4169 94.5774,35.2502 94.5,36.5C 94.1667,36.5 93.8333,36.5 93.5,36.5C 91.107,33.9093 88.107,32.2426 84.5,31.5C 85.3007,29.9582 85.634,28.2915 85.5,26.5C 86.8734,26.6567 88.2068,26.49 89.5,26C 86.7193,24.0968 84.386,21.7634 82.5,19C 74.8396,18.8876 67.173,19.0543 59.5,19.5C 59.6107,18.8826 59.944,18.3826 60.5,18C 68.8815,17.2274 77.2148,17.3941 85.5,18.5 Z"/></g>
<g><path style="opacity:1" fill="#7d5f26" d="M 31.5,24.5 C 31.7406,26.8984 31.0739,28.8984 29.5,30.5C 29.5,30.1667 29.5,29.8333 29.5,29.5C 29.4021,27.4471 30.0687,25.7804 31.5,24.5 Z"/></g>
<g><path style="opacity:1" fill="#cfa249" d="M 120.5,11.5 C 126.076,18.3202 131.409,25.3202 136.5,32.5C 136.5,33.1667 136.5,33.8333 136.5,34.5C 137.51,38.5349 139.51,41.8682 142.5,44.5C 146.997,48.3472 152.33,50.6805 158.5,51.5C 155.4,56.6568 151.567,61.3234 147,65.5C 146.209,66.745 145.709,68.0783 145.5,69.5C 143.086,70.9108 141.419,72.9108 140.5,75.5C 139.167,76.1667 138.167,77.1667 137.5,78.5C 136.833,78.5 136.5,78.8333 136.5,79.5C 134.972,79.4827 134.472,78.816 135,77.5C 137.669,74.0003 140.502,70.667 143.5,67.5C 147.18,63.817 150.514,59.817 153.5,55.5C 154.043,55.44 154.376,55.1067 154.5,54.5C 148.176,54.0078 143.01,51.3411 139,46.5C 136.813,41.6135 134.813,36.6135 133,31.5C 128.369,25.0834 124.203,18.4168 120.5,11.5 Z"/></g>
<g><path style="opacity:1" fill="#fedfb6" d="M 82.5,32.5 C 82.9382,32.4346 83.2716,32.6012 83.5,33C 81.981,34.3513 80.6477,35.8513 79.5,37.5C 80.2427,38.1818 80.9094,38.8485 81.5,39.5C 77.8955,42.0148 74.3955,44.6814 71,47.5C 70.5065,45.8659 70.3398,44.1992 70.5,42.5C 70.5,42.1667 70.5,41.8333 70.5,41.5C 72.2128,40.695 73.8794,39.695 75.5,38.5C 76.3356,34.6591 78.669,32.6591 82.5,32.5 Z"/></g>
<g><path style="opacity:1" fill="#e3dec2" d="M 27.5,21.5 C 27.2962,24.5176 26.9629,27.5176 26.5,30.5C 25.4222,33.4021 24.7556,36.4021 24.5,39.5C 23.8333,39.5 23.1667,39.5 22.5,39.5C 22.6869,32.9786 24.3535,26.9786 27.5,21.5 Z"/></g>
<g><path style="opacity:1" fill="#f8c7a2" d="M 82.5,32.5 C 82.8417,31.6618 83.5084,31.3284 84.5,31.5C 88.107,32.2426 91.107,33.9093 93.5,36.5C 93.6309,37.3764 93.2975,38.0431 92.5,38.5C 88.725,37.386 85.0583,37.7193 81.5,39.5C 80.9094,38.8485 80.2427,38.1818 79.5,37.5C 80.6477,35.8513 81.981,34.3513 83.5,33C 83.2716,32.6012 82.9382,32.4346 82.5,32.5 Z"/></g>
<g><path style="opacity:1" fill="#472e15" d="M 80.5,-0.5 C 82.1667,-0.5 83.8333,-0.5 85.5,-0.5C 92.5382,4.69222 99.2049,10.3589 105.5,16.5C 110.225,20.3954 114.058,25.0621 117,30.5C 117.499,35.4889 117.666,40.4889 117.5,45.5C 117.744,52.6923 117.077,59.6923 115.5,66.5C 114.833,66.8333 114.167,67.1667 113.5,67.5C 112.727,60.8694 112.56,54.2027 113,47.5C 112.661,43.4704 110.827,40.4704 107.5,38.5C 105.934,34.2717 103.934,30.2717 101.5,26.5C 103.124,26.6399 104.29,25.9733 105,24.5C 107.498,26.4621 108.498,28.7954 108,31.5C 110.333,32.5 112,34.1667 113,36.5C 114.048,43.1154 114.881,49.7821 115.5,56.5C 116.498,48.5277 116.831,40.5277 116.5,32.5C 114.61,32.7035 113.11,32.0368 112,30.5C 109.611,25.4459 106.445,20.9459 102.5,17C 95.2675,10.9224 87.9341,5.08907 80.5,-0.5 Z"/></g>
<g><path style="opacity:1" fill="#614518" d="M 29.5,32.5 C 28.9765,38.1874 28.3098,43.8541 27.5,49.5C 26.8333,49.5 26.1667,49.5 25.5,49.5C 25.0717,43.2861 26.405,37.6194 29.5,32.5 Z"/></g>
<g><path style="opacity:1" fill="#ded08b" d="M 136.5,34.5 C 139,37.4937 141,40.827 142.5,44.5C 139.51,41.8682 137.51,38.5349 136.5,34.5 Z"/></g>
<g><path style="opacity:1" fill="#e39e71" d="M 70.5,41.5 C 70.5,41.8333 70.5,42.1667 70.5,42.5C 68.3311,44.3403 66.9977,46.6737 66.5,49.5C 65.2101,50.0577 64.3768,51.0577 64,52.5C 63.2411,50.9371 62.0744,49.9371 60.5,49.5C 60.0312,46.6613 60.0312,43.9946 60.5,41.5C 61.531,40.7515 62.6976,40.0848 64,39.5C 64.3603,37.5789 65.1936,35.9122 66.5,34.5C 67.3081,34.8076 67.9747,35.3076 68.5,36C 67.6634,37.0113 67.33,38.1779 67.5,39.5C 69.1788,39.2852 70.1788,39.9519 70.5,41.5 Z"/></g>
<g><path style="opacity:1" fill="#412a13" d="M 41.5,30.5 C 40.4296,39.418 38.7629,48.0847 36.5,56.5C 37.205,53.7557 37.205,51.089 36.5,48.5C 35.2638,49.2458 33.9305,49.5792 32.5,49.5C 32.1468,55.8495 30.6468,61.8495 28,67.5C 26.8438,68.9928 26.0104,68.8261 25.5,67C 26.9316,64.4892 26.5983,62.3226 24.5,60.5C 24.5524,56.8019 24.8857,53.1352 25.5,49.5C 26.1667,49.5 26.8333,49.5 27.5,49.5C 29.3582,47.7288 30.8582,45.0621 32,41.5C 32.6667,42.8333 33.3333,42.8333 34,41.5C 35.4568,36.193 36.7901,30.8596 38,25.5C 38.7096,26.9733 39.8762,27.6399 41.5,27.5C 41.5,28.5 41.5,29.5 41.5,30.5 Z"/></g>
<g><path style="opacity:1" fill="#daac8b" d="M 93.5,36.5 C 93.8333,36.5 94.1667,36.5 94.5,36.5C 97.5237,37.2024 99.1904,39.2024 99.5,42.5C 98.3112,43.4287 96.9778,43.762 95.5,43.5C 91.2981,40.6391 86.6314,39.8058 81.5,41C 80.944,41.3826 80.6107,41.8826 80.5,42.5C 78.215,44.1182 76.215,46.1182 74.5,48.5C 72.5107,49.4814 70.5107,50.4814 68.5,51.5C 67.2867,51.2528 66.62,50.5862 66.5,49.5C 66.9977,46.6737 68.3311,44.3403 70.5,42.5C 70.3398,44.1992 70.5065,45.8659 71,47.5C 74.3955,44.6814 77.8955,42.0148 81.5,39.5C 85.0583,37.7193 88.725,37.386 92.5,38.5C 93.2975,38.0431 93.6309,37.3764 93.5,36.5 Z"/></g>
<g><path style="opacity:1" fill="#bda248" d="M 29.5,29.5 C 29.5,29.8333 29.5,30.1667 29.5,30.5C 29.5,31.1667 29.5,31.8333 29.5,32.5C 26.405,37.6194 25.0717,43.2861 25.5,49.5C 24.8857,53.1352 24.5524,56.8019 24.5,60.5C 24.7947,62.7354 24.4614,64.7354 23.5,66.5C 23.5,64.5 23.5,62.5 23.5,60.5C 23.8936,53.5036 24.2269,46.5036 24.5,39.5C 24.7556,36.4021 25.4222,33.4021 26.5,30.5C 27.391,29.8902 28.391,29.5569 29.5,29.5 Z"/></g>
<g><path style="opacity:1" fill="#b37852" d="M 91.5,23.5 C 93.8333,25.5 96.1667,27.5 98.5,29.5C 100.262,30.2623 101.262,31.5956 101.5,33.5C 103.201,41.3686 105.367,49.0353 108,56.5C 108.388,59.8492 108.221,63.1825 107.5,66.5C 102.902,68.6464 98.2358,68.9797 93.5,67.5C 97.3076,67.8368 100.974,67.3368 104.5,66C 106.078,63.6612 105.745,61.8278 103.5,60.5C 102.249,59.528 102.582,58.8614 104.5,58.5C 105.442,58.6082 106.275,58.9415 107,59.5C 107.667,58.8333 107.667,58.1667 107,57.5C 104.619,56.565 102.119,56.2317 99.5,56.5C 104.799,53.8845 104.799,51.2179 99.5,48.5C 98.1667,46.8333 96.8333,45.1667 95.5,43.5C 96.9778,43.762 98.3112,43.4287 99.5,42.5C 99.1904,39.2024 97.5237,37.2024 94.5,36.5C 94.5774,35.2502 95.244,34.4169 96.5,34C 95.6872,32.6861 94.6872,31.5195 93.5,30.5C 93.8333,29.8333 94.1667,29.1667 94.5,28.5C 93.0476,27.0603 92.0476,25.3936 91.5,23.5 Z"/></g>
<g><path style="opacity:1" fill="#966343" d="M 95.5,43.5 C 96.8333,45.1667 98.1667,46.8333 99.5,48.5C 99.6309,49.3764 99.2975,50.0431 98.5,50.5C 97.3914,49.4104 96.3914,49.4104 95.5,50.5C 96.6302,51.6223 97.2969,52.9557 97.5,54.5C 93.0799,49.2922 87.4132,46.7922 80.5,47C 82.0919,44.7816 84.0919,43.115 86.5,42C 84.4546,41.5099 82.4546,41.6765 80.5,42.5C 80.6107,41.8826 80.944,41.3826 81.5,41C 86.6314,39.8058 91.2981,40.6391 95.5,43.5 Z"/></g>
<g><path style="opacity:1" fill="#e3bb93" d="M 58.5,41.5 C 59.1667,41.5 59.8333,41.5 60.5,41.5C 60.0312,43.9946 60.0312,46.6613 60.5,49.5C 60.189,50.4778 59.5223,51.1445 58.5,51.5C 57.0953,50.0063 55.4287,49.0063 53.5,48.5C 52.1886,45.1886 49.8553,42.8552 46.5,41.5C 45.5748,42.3569 44.9081,43.3569 44.5,44.5C 43.8333,46.8333 43.1667,49.1667 42.5,51.5C 42.7947,49.2646 42.4614,47.2646 41.5,45.5C 41.5516,42.6538 42.5516,40.3204 44.5,38.5C 44.369,39.2389 44.5357,39.9056 45,40.5C 51.0094,33.267 54.0094,34.6004 54,44.5C 55.1096,46.0368 56.6096,46.7035 58.5,46.5C 58.5,44.8333 58.5,43.1667 58.5,41.5 Z"/></g>
<g><path style="opacity:1" fill="#aa7828" d="M 153.5,55.5 C 150.514,59.817 147.18,63.817 143.5,67.5C 142.883,67.3893 142.383,67.056 142,66.5C 140.281,69.2195 137.947,71.2195 135,72.5C 130.408,80.0236 125.575,87.357 120.5,94.5C 117.928,97.9692 115.594,101.636 113.5,105.5C 115.149,106.648 116.649,107.981 118,109.5C 118.308,108.692 118.808,108.025 119.5,107.5C 120.452,109.045 120.785,110.712 120.5,112.5C 122.833,112.5 125.167,112.5 127.5,112.5C 127.232,110.901 127.566,109.568 128.5,108.5C 129.338,108.842 129.672,109.508 129.5,110.5C 129.62,112.199 129.954,113.865 130.5,115.5C 130.332,117.171 129.665,118.504 128.5,119.5C 127.883,119.611 127.383,119.944 127,120.5C 126.136,126.953 124.803,133.287 123,139.5C 122.308,138.975 121.808,138.308 121.5,137.5C 122.065,134.492 123.065,131.659 124.5,129C 121.771,128.995 119.771,127.829 118.5,125.5C 119.783,120.521 119.783,115.521 118.5,110.5C 117.893,110.624 117.56,110.957 117.5,111.5C 115.475,109.804 113.475,108.137 111.5,106.5C 113.767,101.576 116.433,96.9092 119.5,92.5C 124.182,86.3235 128.515,79.8235 132.5,73C 131.423,72.5304 130.423,72.6971 129.5,73.5C 129.5,72.8333 129.167,72.5 128.5,72.5C 130.636,71.3472 132.636,70.0138 134.5,68.5C 135.774,67.8106 135.774,66.9772 134.5,66C 132.324,65.8371 130.491,65.0037 129,63.5C 126.312,65.908 123.479,67.908 120.5,69.5C 120.861,61.7648 121.695,54.0982 123,46.5C 123.308,47.3081 123.808,47.9747 124.5,48.5C 127.785,47.709 130.618,48.709 133,51.5C 135.316,51.1535 137.649,50.8201 140,50.5C 143.865,53.7623 148.365,55.429 153.5,55.5 Z"/></g>
<g><path style="opacity:1" fill="#784d35" d="M 97.5,54.5 C 97.5386,57.1522 96.3719,57.1522 94,54.5C 92.6703,55.5822 91.1703,56.2488 89.5,56.5C 90.2341,55.2921 90.5674,53.9587 90.5,52.5C 91.1499,52.8039 91.8165,53.1373 92.5,53.5C 93.6956,53.1543 93.6956,52.6543 92.5,52C 90.3772,51.1853 88.3772,50.1853 86.5,49C 85.0715,48.4209 83.7382,48.5876 82.5,49.5C 81.7494,48.4265 80.7494,48.2599 79.5,49C 78.6028,51.1265 77.2695,51.6265 75.5,50.5C 76.981,49.056 76.6477,48.3894 74.5,48.5C 76.215,46.1182 78.215,44.1182 80.5,42.5C 82.4546,41.6765 84.4546,41.5099 86.5,42C 84.0919,43.115 82.0919,44.7816 80.5,47C 87.4132,46.7922 93.0799,49.2922 97.5,54.5 Z"/></g>
<g><path style="opacity:1" fill="#905e3e" d="M 101.5,33.5 C 103.279,34.6697 104.279,36.3364 104.5,38.5C 105.5,38.5 106.5,38.5 107.5,38.5C 108.996,46.3559 109.996,54.3559 110.5,62.5C 109.873,67.1408 109.54,71.8075 109.5,76.5C 108.833,76.5 108.167,76.5 107.5,76.5C 108.782,73.0641 108.782,69.7307 107.5,66.5C 108.221,63.1825 108.388,59.8492 108,56.5C 105.367,49.0353 103.201,41.3686 101.5,33.5 Z"/></g>
<g><path style="opacity:1" fill="#5c3b20" d="M 107.5,38.5 C 110.827,40.4704 112.661,43.4704 113,47.5C 112.56,54.2027 112.727,60.8694 113.5,67.5C 112.063,66.6819 111.063,65.0152 110.5,62.5C 109.996,54.3559 108.996,46.3559 107.5,38.5 Z"/></g>
<g><path style="opacity:1" fill="#774d34" d="M 53.5,48.5 C 55.0552,51.2622 57.0552,53.5956 59.5,55.5C 59.5,55.8333 59.5,56.1667 59.5,56.5C 59.4431,57.609 59.1098,58.609 58.5,59.5C 56.5168,59.8432 55.1834,59.1765 54.5,57.5C 55.7911,56.4583 55.7911,55.2917 54.5,54C 52.8659,53.5065 51.1992,53.3398 49.5,53.5C 52.1247,52.198 52.1247,50.8647 49.5,49.5C 46.9666,51.394 45.2999,53.894 44.5,57C 42.9387,57.1881 42.272,56.3547 42.5,54.5C 44.633,50.9617 46.9664,47.6283 49.5,44.5C 47.5248,44.8222 45.8582,44.8222 44.5,44.5C 44.9081,43.3569 45.5748,42.3569 46.5,41.5C 49.8553,42.8552 52.1886,45.1886 53.5,48.5 Z"/></g>
<g><path style="opacity:1" fill="#a9824f" d="M 44.5,44.5 C 45.8582,44.8222 47.5248,44.8222 49.5,44.5C 46.9664,47.6283 44.633,50.9617 42.5,54.5C 42.5,53.5 42.5,52.5 42.5,51.5C 43.1667,49.1667 43.8333,46.8333 44.5,44.5 Z"/></g>
<g><path style="opacity:1" fill="#9a6949" d="M 53.5,48.5 C 55.4287,49.0063 57.0953,50.0063 58.5,51.5C 59.5223,51.1445 60.189,50.4778 60.5,49.5C 62.0744,49.9371 63.2411,50.9371 64,52.5C 64.3768,51.0577 65.2101,50.0577 66.5,49.5C 66.62,50.5862 67.2867,51.2528 68.5,51.5C 70.5107,50.4814 72.5107,49.4814 74.5,48.5C 72.8564,50.4807 71.1897,52.4807 69.5,54.5C 72.0795,55.5488 74.7462,56.2155 77.5,56.5C 77.5,57.5 77.5,58.5 77.5,59.5C 76.8333,59.5 76.5,59.8333 76.5,60.5C 74.9557,60.2969 73.6223,59.6302 72.5,58.5C 71.2638,59.2458 69.9305,59.5792 68.5,59.5C 68.7845,57.5853 68.4511,55.9187 67.5,54.5C 64.5891,53.0165 61.9225,53.3498 59.5,55.5C 57.0552,53.5956 55.0552,51.2622 53.5,48.5 Z"/></g>
<g><path style="opacity:1" fill="#643a2d" d="M 74.5,48.5 C 76.6477,48.3894 76.981,49.056 75.5,50.5C 77.2695,51.6265 78.6028,51.1265 79.5,49C 80.7494,48.2599 81.7494,48.4265 82.5,49.5C 81.9338,53.2105 80.6005,56.5438 78.5,59.5C 78.1667,59.5 77.8333,59.5 77.5,59.5C 77.5,58.5 77.5,57.5 77.5,56.5C 74.7462,56.2155 72.0795,55.5488 69.5,54.5C 71.1897,52.4807 72.8564,50.4807 74.5,48.5 Z"/></g>
<g><path style="opacity:1" fill="#353018" d="M 158.5,51.5 C 159.302,52.9516 159.802,54.6183 160,56.5C 160.333,56.1667 160.667,55.8333 161,55.5C 162.5,57.3333 164,59.1667 165.5,61C 164.549,61.7175 164.383,62.5509 165,63.5C 169.158,66.7961 173.325,69.2961 177.5,71C 175.122,71.9745 175.456,72.6411 178.5,73C 177.465,74.5069 177.632,76.0069 179,77.5C 179.333,77.1667 179.667,76.8333 180,76.5C 181,77.8333 182,79.1667 183,80.5C 183.333,80.1667 183.667,79.8333 184,79.5C 184.772,80.8491 185.939,81.6824 187.5,82C 188.191,83.0674 188.691,84.2341 189,85.5C 190.049,84.4829 191.216,84.3162 192.5,85C 190.598,86.3938 190.265,88.2271 191.5,90.5C 190.833,90.5 190.5,90.1667 190.5,89.5C 187.491,85.837 183.824,84.837 179.5,86.5C 177.999,87.7515 176.332,88.7515 174.5,89.5C 169.356,88.5477 165.023,86.0477 161.5,82C 159.167,81.3333 156.833,81.3333 154.5,82C 153.619,82.7083 152.953,83.5416 152.5,84.5C 149.936,87.2802 147.603,90.2802 145.5,93.5C 143.744,92.4479 143.077,90.7812 143.5,88.5C 143.729,82.1025 144.396,75.7692 145.5,69.5C 145.709,68.0783 146.209,66.745 147,65.5C 151.567,61.3234 155.4,56.6568 158.5,51.5 Z"/></g>
<g><path style="opacity:1" fill="#54484b" d="M 49.5,53.5 C 51.1992,53.3398 52.8659,53.5065 54.5,54C 55.7911,55.2917 55.7911,56.4583 54.5,57.5C 52.8333,57.5 51.1667,57.5 49.5,57.5C 49.5,56.1667 49.5,54.8333 49.5,53.5 Z"/></g>
<g><path style="opacity:1" fill="#a96d4b" d="M 90.5,52.5 C 88.076,52.1924 85.7427,52.5258 83.5,53.5C 84.2458,54.7362 84.5792,56.0695 84.5,57.5C 86.2915,57.634 87.9582,57.3007 89.5,56.5C 91.1703,56.2488 92.6703,55.5822 94,54.5C 96.3719,57.1522 97.5386,57.1522 97.5,54.5C 97.2969,52.9557 96.6302,51.6223 95.5,50.5C 96.3914,49.4104 97.3914,49.4104 98.5,50.5C 99.2975,50.0431 99.6309,49.3764 99.5,48.5C 104.799,51.2179 104.799,53.8845 99.5,56.5C 98.791,57.404 97.791,57.7373 96.5,57.5C 96.2008,61.1326 94.2008,63.1326 90.5,63.5C 88.6208,64.3414 86.6208,64.6747 84.5,64.5C 81.9108,63.5806 79.9108,61.914 78.5,59.5C 80.6005,56.5438 81.9338,53.2105 82.5,49.5C 83.7382,48.5876 85.0715,48.4209 86.5,49C 88.3772,50.1853 90.3772,51.1853 92.5,52C 93.6956,52.6543 93.6956,53.1543 92.5,53.5C 91.8165,53.1373 91.1499,52.8039 90.5,52.5 Z"/></g>
<g><path style="opacity:1" fill="#625959" d="M 90.5,52.5 C 90.5674,53.9587 90.2341,55.2921 89.5,56.5C 87.9582,57.3007 86.2915,57.634 84.5,57.5C 84.5792,56.0695 84.2458,54.7362 83.5,53.5C 85.7427,52.5258 88.076,52.1924 90.5,52.5 Z"/></g>
<g><path style="opacity:1" fill="#d6cf72" d="M 22.5,39.5 C 23.1667,39.5 23.8333,39.5 24.5,39.5C 24.2269,46.5036 23.8936,53.5036 23.5,60.5C 21.8714,62.8577 20.7048,65.5243 20,68.5C 19.5026,65.854 19.3359,63.1873 19.5,60.5C 20.8889,53.5557 21.8889,46.5557 22.5,39.5 Z"/></g>
<g><path style="opacity:1" fill="#ac734c" d="M 49.5,53.5 C 49.5,54.8333 49.5,56.1667 49.5,57.5C 51.1667,57.5 52.8333,57.5 54.5,57.5C 55.1834,59.1765 56.5168,59.8432 58.5,59.5C 58.4431,60.609 58.1098,61.609 57.5,62.5C 54.3566,64.2417 51.3566,66.2417 48.5,68.5C 46.0467,67.3549 43.7134,67.6883 41.5,69.5C 40.7784,69.9175 40.2784,70.5842 40,71.5C 39.6174,70.944 39.1174,70.6107 38.5,70.5C 38.5,69.8333 38.5,69.1667 38.5,68.5C 41.0087,67.2548 43.6754,66.2548 46.5,65.5C 44.1,63.7036 42.4333,61.3702 41.5,58.5C 41.2322,56.901 41.5655,55.5676 42.5,54.5C 42.272,56.3547 42.9387,57.1881 44.5,57C 45.2999,53.894 46.9666,51.394 49.5,49.5C 52.1247,50.8647 52.1247,52.198 49.5,53.5 Z"/></g>
<g><path style="opacity:1" fill="#4e351a" d="M 36.5,56.5 C 34.0001,65.4983 31.5001,74.4983 29,83.5C 28.1955,86.6965 28.3622,89.6965 29.5,92.5C 28.4043,95.0316 27.0709,97.3649 25.5,99.5C 25.2786,98.2652 24.6119,97.2652 23.5,96.5C 24.2981,89.5496 24.7981,82.5496 25,75.5C 25.6924,74.9747 26.1924,74.3081 26.5,73.5C 25.7542,72.2638 25.4208,70.9305 25.5,69.5C 23.3364,69.7215 21.6697,70.7215 20.5,72.5C 20.7549,70.0326 21.7549,68.0326 23.5,66.5C 24.4614,64.7354 24.7947,62.7354 24.5,60.5C 26.5983,62.3226 26.9316,64.4892 25.5,67C 26.0104,68.8261 26.8438,68.9928 28,67.5C 30.6468,61.8495 32.1468,55.8495 32.5,49.5C 33.9305,49.5792 35.2638,49.2458 36.5,48.5C 37.205,51.089 37.205,53.7557 36.5,56.5 Z"/></g>
<g><path style="opacity:1" fill="#4e4d31" d="M 25.5,-0.5 C 28.8333,-0.5 32.1667,-0.5 35.5,-0.5C 32.2291,6.56339 29.5625,13.8967 27.5,21.5C 24.3535,26.9786 22.6869,32.9786 22.5,39.5C 18.8576,53.6435 15.5243,67.9768 12.5,82.5C 13.1882,83.8549 14.1882,84.8549 15.5,85.5C 16.6358,87.0461 17.3025,88.8794 17.5,91C 17.1408,94.5721 16.4741,98.0721 15.5,101.5C 14.1914,102.624 13.5247,104.124 13.5,106C 14.3078,110.489 14.9745,114.989 15.5,119.5C 15.1667,121.5 14.8333,123.5 14.5,125.5C 12.9814,128.526 12.3148,131.859 12.5,135.5C 12.5511,138.253 12.8844,140.92 13.5,143.5C 12.8333,143.5 12.1667,143.5 11.5,143.5C 8.50161,138.019 6.50161,132.186 5.5,126C 6.26061,120.381 6.26061,114.548 5.5,108.5C 7.52274,103.233 8.85608,97.7328 9.5,92C 9.56487,86.1274 9.23154,80.4607 8.5,75C 9.12576,74.2496 9.62576,73.4162 10,72.5C 10.805,74.9011 11.6383,74.7344 12.5,72C 11.7858,69.8092 11.4525,67.4759 11.5,65C 12.9129,62.6129 13.5796,60.2796 13.5,58C 12.8333,57.6667 12.1667,57.3333 11.5,57C 12.6721,56.5814 13.6721,55.9147 14.5,55C 13.8333,53 13.1667,51 12.5,49C 14.8307,46.7998 14.8307,44.7998 12.5,43C 13.8333,42.3333 13.8333,41.6667 12.5,41C 13.1667,40.6667 13.8333,40.3333 14.5,40C 14.3349,38.8831 14.0016,37.7164 13.5,36.5C 15.6558,34.5096 17.6558,32.3429 19.5,30C 19.6916,26.4253 19.6916,22.7586 19.5,19C 23.1015,18.3654 23.7682,17.032 21.5,15C 22.91,14.6322 23.91,13.7989 24.5,12.5C 23.9812,9.27278 23.6479,6.10612 23.5,3C 24.9733,2.29044 25.6399,1.12377 25.5,-0.5 Z"/></g>
<g><path style="opacity:1" fill="#e8d8aa" d="M 41.5,45.5 C 42.4614,47.2646 42.7947,49.2646 42.5,51.5C 42.5,52.5 42.5,53.5 42.5,54.5C 41.5655,55.5676 41.2322,56.901 41.5,58.5C 41.0973,61.9063 39.764,64.9063 37.5,67.5C 38.6337,60.1084 39.9671,52.7751 41.5,45.5 Z"/></g>
<g><path style="opacity:1" fill="#e5a370" d="M 41.5,58.5 C 42.4333,61.3702 44.1,63.7036 46.5,65.5C 43.6754,66.2548 41.0087,67.2548 38.5,68.5C 37.8333,68.5 37.5,68.1667 37.5,67.5C 39.764,64.9063 41.0973,61.9063 41.5,58.5 Z"/></g>
<g><path style="opacity:1" fill="#e69f6d" d="M 99.5,56.5 C 102.119,56.2317 104.619,56.565 107,57.5C 107.667,58.1667 107.667,58.8333 107,59.5C 106.275,58.9415 105.442,58.6082 104.5,58.5C 102.582,58.8614 102.249,59.528 103.5,60.5C 103.109,64.9206 100.609,66.5873 96,65.5C 93.7047,65.4535 91.8714,64.7868 90.5,63.5C 94.2008,63.1326 96.2008,61.1326 96.5,57.5C 97.791,57.7373 98.791,57.404 99.5,56.5 Z"/></g>
<g><path style="opacity:1" fill="#f5dea8" d="M 59.5,56.5 C 60.5,56.5 61.5,56.5 62.5,56.5C 60.5786,64.7149 58.912,73.0483 57.5,81.5C 57.1667,81.5 56.8333,81.5 56.5,81.5C 56.0679,80.2905 55.4013,79.2905 54.5,78.5C 54.5549,74.8183 55.5549,71.485 57.5,68.5C 56.3586,66.5487 56.3586,64.5487 57.5,62.5C 58.1098,61.609 58.4431,60.609 58.5,59.5C 59.1098,58.609 59.4431,57.609 59.5,56.5 Z"/></g>
<g><path style="opacity:1" fill="#e7a171" d="M 77.5,59.5 C 77.8333,59.5 78.1667,59.5 78.5,59.5C 79.9108,61.914 81.9108,63.5806 84.5,64.5C 88.2681,67.1472 88.2681,69.8139 84.5,72.5C 83.3777,71.3698 82.0443,70.7031 80.5,70.5C 78.9991,69.2485 77.3325,68.2485 75.5,67.5C 74.9094,66.8485 74.2427,66.1818 73.5,65.5C 75.297,64.3049 76.297,62.6382 76.5,60.5C 76.5,59.8333 76.8333,59.5 77.5,59.5 Z"/></g>
<g><path style="opacity:1" fill="#ecdea1" d="M 19.5,60.5 C 19.3359,63.1873 19.5026,65.854 20,68.5C 20.7048,65.5243 21.8714,62.8577 23.5,60.5C 23.5,62.5 23.5,64.5 23.5,66.5C 21.7549,68.0326 20.7549,70.0326 20.5,72.5C 19.8333,73.1667 19.1667,73.8333 18.5,74.5C 18.1805,69.6367 18.5139,64.97 19.5,60.5 Z"/></g>
<g><path style="opacity:1" fill="#412b16" d="M 25.5,99.5 C 25.5,99.8333 25.5,100.167 25.5,100.5C 21.6717,105.096 19.3383,110.429 18.5,116.5C 17.8333,115.167 17.1667,113.833 16.5,112.5C 16.5,111.833 16.5,111.167 16.5,110.5C 18.8933,97.8975 20.2267,85.2308 20.5,72.5C 21.6697,70.7215 23.3364,69.7215 25.5,69.5C 25.4208,70.9305 25.7542,72.2638 26.5,73.5C 26.1924,74.3081 25.6924,74.9747 25,75.5C 24.7981,82.5496 24.2981,89.5496 23.5,96.5C 24.6119,97.2652 25.2786,98.2652 25.5,99.5 Z"/></g>
<g><path style="opacity:1" fill="#6e4330" d="M 107.5,66.5 C 108.782,69.7307 108.782,73.0641 107.5,76.5C 106.279,77.0283 105.113,77.695 104,78.5C 101.653,76.2345 99.1529,74.2345 96.5,72.5C 96.3893,71.8826 96.056,71.3826 95.5,71C 98.914,70.7031 102.247,70.0365 105.5,69C 106.381,68.2917 107.047,67.4584 107.5,66.5 Z"/></g>
<g><path style="opacity:1" fill="#e49669" d="M 67.5,54.5 C 65.219,60.245 64.219,66.245 64.5,72.5C 68.2253,72.7796 69.392,74.7796 68,78.5C 65.0164,81.1001 61.5164,82.1001 57.5,81.5C 58.912,73.0483 60.5786,64.7149 62.5,56.5C 61.5,56.5 60.5,56.5 59.5,56.5C 59.5,56.1667 59.5,55.8333 59.5,55.5C 61.9225,53.3498 64.5891,53.0165 67.5,54.5 Z"/></g>
<g><path style="opacity:1" fill="#e9cb7d" d="M 119.5,55.5 C 118.746,60.4635 118.413,65.4635 118.5,70.5C 116.783,73.8448 116.116,77.5115 116.5,81.5C 115.833,81.5 115.5,81.8333 115.5,82.5C 114.504,82.4142 113.671,82.7476 113,83.5C 113.371,77.8003 114.205,72.1336 115.5,66.5C 117.077,59.6923 117.744,52.6923 117.5,45.5C 118.321,42.3586 118.821,39.0252 119,35.5C 119.5,42.1583 119.666,48.825 119.5,55.5 Z"/></g>
<g><path style="opacity:1" fill="#c99d44" d="M 134.5,68.5 C 132.636,70.0138 130.636,71.3472 128.5,72.5C 124.5,75.5 120.5,78.5 116.5,81.5C 116.116,77.5115 116.783,73.8448 118.5,70.5C 118.149,72.8695 117.982,75.2028 118,77.5C 122.077,74.212 126.244,71.0453 130.5,68C 132.066,67.235 133.399,67.4017 134.5,68.5 Z"/></g>
<g><path style="opacity:1" fill="#cb895e" d="M 103.5,60.5 C 105.745,61.8278 106.078,63.6612 104.5,66C 100.974,67.3368 97.3076,67.8368 93.5,67.5C 91.834,66.3336 90.1673,66.3336 88.5,67.5C 88.6236,68.1067 88.9569,68.44 89.5,68.5C 89.5445,74.601 90.0445,80.601 91,86.5C 89.8608,83.4167 88.5275,80.4167 87,77.5C 84.6278,75.2968 82.4611,72.9635 80.5,70.5C 82.0443,70.7031 83.3777,71.3698 84.5,72.5C 88.2681,69.8139 88.2681,67.1472 84.5,64.5C 86.6208,64.6747 88.6208,64.3414 90.5,63.5C 91.8714,64.7868 93.7047,65.4535 96,65.5C 100.609,66.5873 103.109,64.9206 103.5,60.5 Z"/></g>
<g><path style="opacity:1" fill="#cf9061" d="M 57.5,62.5 C 56.3586,64.5487 56.3586,66.5487 57.5,68.5C 56.5041,68.4142 55.6708,68.7476 55,69.5C 52.5207,72.9601 50.5207,76.6268 49,80.5C 48.023,78.26 47.523,75.9267 47.5,73.5C 47.6287,71.7839 47.962,70.1172 48.5,68.5C 51.3566,66.2417 54.3566,64.2417 57.5,62.5 Z"/></g>
<g><path style="opacity:1" fill="#bc704b" d="M 67.5,54.5 C 68.4511,55.9187 68.7845,57.5853 68.5,59.5C 69.9305,59.5792 71.2638,59.2458 72.5,58.5C 73.6223,59.6302 74.9557,60.2969 76.5,60.5C 76.297,62.6382 75.297,64.3049 73.5,65.5C 74.2427,66.1818 74.9094,66.8485 75.5,67.5C 74.7611,67.369 74.0944,67.5357 73.5,68C 77.1905,70.1693 78.8571,73.336 78.5,77.5C 75.5611,77.918 73.2278,79.418 71.5,82C 66.8627,82.8294 62.196,83.3294 57.5,83.5C 57.5,83.1667 57.5,82.8333 57.5,82.5C 57.5,82.1667 57.5,81.8333 57.5,81.5C 61.5164,82.1001 65.0164,81.1001 68,78.5C 69.392,74.7796 68.2253,72.7796 64.5,72.5C 64.219,66.245 65.219,60.245 67.5,54.5 Z"/></g>
<g><path style="opacity:1" fill="#f2eccd" d="M 22.5,39.5 C 21.8889,46.5557 20.8889,53.5557 19.5,60.5C 18.5139,64.97 18.1805,69.6367 18.5,74.5C 18.2992,78.6098 17.2992,82.2765 15.5,85.5C 14.1882,84.8549 13.1882,83.8549 12.5,82.5C 15.5243,67.9768 18.8576,53.6435 22.5,39.5 Z"/></g>
<g><path style="opacity:1" fill="#8b6a50" d="M 110.5,62.5 C 111.063,65.0152 112.063,66.6819 113.5,67.5C 114.167,67.1667 114.833,66.8333 115.5,66.5C 114.205,72.1336 113.371,77.8003 113,83.5C 113.671,82.7476 114.504,82.4142 115.5,82.5C 113.999,85.837 114.999,88.1703 118.5,89.5C 116.683,93.8006 114.35,97.8006 111.5,101.5C 110.707,97.0923 109.707,92.5923 108.5,88C 108.611,86.2785 109.111,86.1118 110,87.5C 110.473,89.779 111.473,91.779 113,93.5C 113.167,93 113.333,92.5 113.5,92C 111.261,87.0652 109.928,81.8986 109.5,76.5C 109.54,71.8075 109.873,67.1408 110.5,62.5 Z"/></g>
<g><path style="opacity:1" fill="#4d351c" d="M 128.5,72.5 C 129.167,72.5 129.5,72.8333 129.5,73.5C 125.705,78.6104 122.372,83.9438 119.5,89.5C 119.167,89.5 118.833,89.5 118.5,89.5C 114.999,88.1703 113.999,85.837 115.5,82.5C 115.5,81.8333 115.833,81.5 116.5,81.5C 120.5,78.5 124.5,75.5 128.5,72.5 Z"/></g>
<g><path style="opacity:1" fill="#8e6248" d="M 93.5,67.5 C 98.2358,68.9797 102.902,68.6464 107.5,66.5C 107.047,67.4584 106.381,68.2917 105.5,69C 102.247,70.0365 98.914,70.7031 95.5,71C 96.056,71.3826 96.3893,71.8826 96.5,72.5C 95.9569,72.56 95.6236,72.8933 95.5,73.5C 97.0267,76.6596 97.6933,79.993 97.5,83.5C 96.0995,86.3274 96.4328,88.994 98.5,91.5C 98.1667,91.8333 97.8333,92.1667 97.5,92.5C 96.4793,91.0986 95.4793,89.7653 94.5,88.5C 92.6322,81.6533 90.9655,74.9866 89.5,68.5C 88.9569,68.44 88.6236,68.1067 88.5,67.5C 90.1673,66.3336 91.834,66.3336 93.5,67.5 Z"/></g>
<g><path style="opacity:1" fill="#dade9a" d="M 41.5,74.5 C 42.4511,75.9187 42.7845,77.5853 42.5,79.5C 40.0919,83.0181 38.7586,87.0181 38.5,91.5C 37.2505,92.7775 35.7505,93.7775 34,94.5C 33.8333,94.1667 33.6667,93.8333 33.5,93.5C 36.455,87.2605 39.1216,80.9271 41.5,74.5 Z"/></g>
<g><path style="opacity:1" fill="#6e3f2d" d="M 78.5,77.5 C 79.7879,79.0348 79.7879,80.7015 78.5,82.5C 77.1482,83.5244 75.8149,84.5244 74.5,85.5C 72.0587,86.5566 69.7254,87.89 67.5,89.5C 63.3833,88.6992 60.05,86.6992 57.5,83.5C 62.196,83.3294 66.8627,82.8294 71.5,82C 73.2278,79.418 75.5611,77.918 78.5,77.5 Z"/></g>
<g><path style="opacity:1" fill="#e7c573" d="M 119.5,92.5 C 119.5,91.5 119.5,90.5 119.5,89.5C 122.372,83.9438 125.705,78.6104 129.5,73.5C 130.423,72.6971 131.423,72.5304 132.5,73C 128.515,79.8235 124.182,86.3235 119.5,92.5 Z"/></g>
<g><path style="opacity:1" fill="#c38e34" d="M 143.5,67.5 C 140.502,70.667 137.669,74.0003 135,77.5C 134.472,78.816 134.972,79.4827 136.5,79.5C 135.226,81.9925 134.56,84.6592 134.5,87.5C 134.59,90.1522 133.924,92.4855 132.5,94.5C 132.785,92.712 132.452,91.0453 131.5,89.5C 127.961,91.4358 124.295,93.1025 120.5,94.5C 125.575,87.357 130.408,80.0236 135,72.5C 137.947,71.2195 140.281,69.2195 142,66.5C 142.383,67.056 142.883,67.3893 143.5,67.5 Z"/></g>
<g><path style="opacity:1" fill="#dbe0a9" d="M 145.5,69.5 C 144.396,75.7692 143.729,82.1025 143.5,88.5C 142.833,88.5 142.5,88.8333 142.5,89.5C 140.896,85.1004 140.229,80.4338 140.5,75.5C 141.419,72.9108 143.086,70.9108 145.5,69.5 Z"/></g>
<g><path style="opacity:1" fill="#455346" d="M 174.5,89.5 C 173.167,91.5 171.5,93.1667 169.5,94.5C 169.068,89.91 166.402,87.5767 161.5,87.5C 162.225,92.4519 163.059,97.1185 164,101.5C 165.699,99.3039 167.533,97.3039 169.5,95.5C 169.918,96.2216 170.584,96.7216 171.5,97C 170.777,99.0183 169.777,100.852 168.5,102.5C 163.228,117.364 155.561,131.031 145.5,143.5C 144.833,143.5 144.167,143.5 143.5,143.5C 147.097,137.97 150.43,132.304 153.5,126.5C 157.98,119.413 161.314,111.746 163.5,103.5C 162.279,102.535 160.946,102.702 159.5,104C 158.601,105.652 157.601,107.152 156.5,108.5C 156.831,100.804 156.497,93.1378 155.5,85.5C 153.775,87.0916 152.775,86.7583 152.5,84.5C 152.953,83.5416 153.619,82.7083 154.5,82C 156.833,81.3333 159.167,81.3333 161.5,82C 165.023,86.0477 169.356,88.5477 174.5,89.5 Z"/></g>
<g><path style="opacity:1" fill="#cbad6e" d="M 54.5,78.5 C 55.4013,79.2905 56.0679,80.2905 56.5,81.5C 54.9256,81.9371 53.7589,82.9371 53,84.5C 51.8451,88.6742 50.1785,92.6742 48,96.5C 48.2777,89.8347 50.4444,83.8347 54.5,78.5 Z"/></g>
<g><path style="opacity:1" fill="#ac876e" d="M 96.5,72.5 C 99.1529,74.2345 101.653,76.2345 104,78.5C 105.113,77.695 106.279,77.0283 107.5,76.5C 108.167,76.5 108.833,76.5 109.5,76.5C 109.928,81.8986 111.261,87.0652 113.5,92C 113.333,92.5 113.167,93 113,93.5C 111.473,91.779 110.473,89.779 110,87.5C 109.111,86.1118 108.611,86.2785 108.5,88C 109.707,92.5923 110.707,97.0923 111.5,101.5C 110.058,102.82 109.392,104.486 109.5,106.5C 107.402,105.086 106.402,105.752 106.5,108.5C 104.911,107.128 103.578,105.461 102.5,103.5C 101.513,106.768 101.18,110.102 101.5,113.5C 101.167,113.5 100.833,113.5 100.5,113.5C 100.666,106.825 100.5,100.158 100,93.5C 99.8511,89.8675 99.0177,86.5341 97.5,83.5C 97.6933,79.993 97.0267,76.6596 95.5,73.5C 95.6236,72.8933 95.9569,72.56 96.5,72.5 Z"/></g>
<g><path style="opacity:1" fill="#886048" d="M 48.5,68.5 C 47.962,70.1172 47.6287,71.7839 47.5,73.5C 46.2556,83.9787 45.5889,94.6454 45.5,105.5C 42.7508,108.467 41.2508,107.8 41,103.5C 41.0712,95.4913 41.5712,87.4913 42.5,79.5C 42.7845,77.5853 42.4511,75.9187 41.5,74.5C 41.5,72.8333 41.5,71.1667 41.5,69.5C 43.7134,67.6883 46.0467,67.3549 48.5,68.5 Z"/></g>
<g><path style="opacity:1" fill="#667562" d="M 179.5,86.5 C 183.824,84.837 187.491,85.837 190.5,89.5C 187.813,89.3359 185.146,89.5026 182.5,90C 181.773,91.3988 181.273,92.8988 181,94.5C 179.134,95.5266 177.3,96.5266 175.5,97.5C 177.142,94.1806 178.809,90.8472 180.5,87.5C 180.376,86.8933 180.043,86.56 179.5,86.5 Z"/></g>
<g><path style="opacity:1" fill="#ccc99b" d="M 36.5,78.5 C 37.5735,79.2506 37.7401,80.2506 37,81.5C 33.3988,88.1559 29.8988,94.8226 26.5,101.5C 26.5,100.833 26.1667,100.5 25.5,100.5C 25.5,100.167 25.5,99.8333 25.5,99.5C 27.0709,97.3649 28.4043,95.0316 29.5,92.5C 31.8416,87.7895 34.1749,83.1228 36.5,78.5 Z"/></g>
<g><path style="opacity:1" fill="#83523d" d="M 57.5,82.5 C 57.5,82.8333 57.5,83.1667 57.5,83.5C 60.05,86.6992 63.3833,88.6992 67.5,89.5C 69.7254,87.89 72.0587,86.5566 74.5,85.5C 74.2011,87.604 74.5344,89.604 75.5,91.5C 79.4295,92.4328 83.4295,92.7662 87.5,92.5C 87.5,94.8333 87.5,97.1667 87.5,99.5C 82.7064,100.373 80.373,98.3731 80.5,93.5C 76.8183,93.3347 73.1516,93.5014 69.5,94C 65.3294,98.3617 60.996,98.5283 56.5,94.5C 55.4777,94.8555 54.811,95.5222 54.5,96.5C 53.0937,96.9731 52.427,97.9731 52.5,99.5C 50.6231,98.3409 50.1231,96.6742 51,94.5C 52.6995,93.5939 54.5328,93.2606 56.5,93.5C 56.185,89.6286 56.5184,85.9619 57.5,82.5 Z"/></g>
<g><path style="opacity:1" fill="#a67751" d="M 57.5,68.5 C 55.5549,71.485 54.5549,74.8183 54.5,78.5C 50.4444,83.8347 48.2777,89.8347 48,96.5C 50.1785,92.6742 51.8451,88.6742 53,84.5C 53.7589,82.9371 54.9256,81.9371 56.5,81.5C 56.8333,81.5 57.1667,81.5 57.5,81.5C 57.5,81.8333 57.5,82.1667 57.5,82.5C 56.5184,85.9619 56.185,89.6286 56.5,93.5C 54.5328,93.2606 52.6995,93.5939 51,94.5C 50.1231,96.6742 50.6231,98.3409 52.5,99.5C 51.8972,102.308 50.8972,104.974 49.5,107.5C 48.4822,106.807 47.4822,106.141 46.5,105.5C 46.1667,105.5 45.8333,105.5 45.5,105.5C 45.5889,94.6454 46.2556,83.9787 47.5,73.5C 47.523,75.9267 48.023,78.26 49,80.5C 50.5207,76.6268 52.5207,72.9601 55,69.5C 55.6708,68.7476 56.5041,68.4142 57.5,68.5 Z"/></g>
<g><path style="opacity:1" fill="#77745a" d="M 143.5,88.5 C 143.077,90.7812 143.744,92.4479 145.5,93.5C 145.833,94.1667 146.167,94.8333 146.5,95.5C 145.391,95.5569 144.391,95.8902 143.5,96.5C 142.532,94.3926 142.198,92.0593 142.5,89.5C 142.5,88.8333 142.833,88.5 143.5,88.5 Z"/></g>
<g><path style="opacity:1" fill="#5d655e" d="M 190.5,89.5 C 190.5,90.1667 190.833,90.5 191.5,90.5C 191.833,91.1667 192.167,91.8333 192.5,92.5C 190.661,93.7525 188.828,93.7525 187,92.5C 186.727,94.1012 186.227,95.6012 185.5,97C 182.146,97.4552 178.813,97.9552 175.5,98.5C 175.5,98.1667 175.5,97.8333 175.5,97.5C 177.3,96.5266 179.134,95.5266 181,94.5C 181.273,92.8988 181.773,91.3988 182.5,90C 185.146,89.5026 187.813,89.3359 190.5,89.5 Z"/></g>
<g><path style="opacity:1" fill="#c5ad87" d="M 20.5,72.5 C 20.2267,85.2308 18.8933,97.8975 16.5,110.5C 15.5233,107.713 15.19,104.713 15.5,101.5C 16.4741,98.0721 17.1408,94.5721 17.5,91C 17.3025,88.8794 16.6358,87.0461 15.5,85.5C 17.2992,82.2765 18.2992,78.6098 18.5,74.5C 19.1667,73.8333 19.8333,73.1667 20.5,72.5 Z"/></g>
<g><path style="opacity:1" fill="#424445" d="M 169.5,94.5 C 169.5,94.8333 169.5,95.1667 169.5,95.5C 167.533,97.3039 165.699,99.3039 164,101.5C 163.059,97.1185 162.225,92.4519 161.5,87.5C 166.402,87.5767 169.068,89.91 169.5,94.5 Z"/></g>
<g><path style="opacity:1" fill="#e4cd94" d="M 118.5,89.5 C 118.833,89.5 119.167,89.5 119.5,89.5C 119.5,90.5 119.5,91.5 119.5,92.5C 116.433,96.9092 113.767,101.576 111.5,106.5C 110.833,106.5 110.167,106.5 109.5,106.5C 109.392,104.486 110.058,102.82 111.5,101.5C 114.35,97.8006 116.683,93.8006 118.5,89.5 Z"/></g>
<g><path style="opacity:1" fill="#583e2b" d="M 134.5,87.5 C 135.675,93.3187 135.008,98.9854 132.5,104.5C 132.5,102.5 132.5,100.5 132.5,98.5C 132.5,97.1667 132.5,95.8333 132.5,94.5C 133.924,92.4855 134.59,90.1522 134.5,87.5 Z"/></g>
<g><path style="opacity:1" fill="#354336" d="M 152.5,84.5 C 152.775,86.7583 153.775,87.0916 155.5,85.5C 156.497,93.1378 156.831,100.804 156.5,108.5C 156.034,112.886 154.701,116.886 152.5,120.5C 152.5,120.167 152.5,119.833 152.5,119.5C 152.575,116.794 152.908,114.127 153.5,111.5C 153.889,108.447 153.223,105.78 151.5,103.5C 149.833,100.833 148.167,98.1667 146.5,95.5C 146.167,94.8333 145.833,94.1667 145.5,93.5C 147.603,90.2802 149.936,87.2802 152.5,84.5 Z"/></g>
<g><path style="opacity:1" fill="#fcdb56" d="M 132.5,94.5 C 132.5,95.8333 132.5,97.1667 132.5,98.5C 131.677,101.977 131.177,105.644 131,109.5C 130.617,110.056 130.117,110.389 129.5,110.5C 129.672,109.508 129.338,108.842 128.5,108.5C 128.5,106.833 128.5,105.167 128.5,103.5C 125.436,103.928 122.436,104.594 119.5,105.5C 119.5,103.833 119.5,102.167 119.5,100.5C 122.967,100.554 125.634,99.0543 127.5,96C 129.247,95.6481 130.914,95.1481 132.5,94.5 Z"/></g>
<g><path style="opacity:1" fill="#bebb93" d="M 140.5,75.5 C 140.229,80.4338 140.896,85.1004 142.5,89.5C 142.198,92.0593 142.532,94.3926 143.5,96.5C 143.567,97.9587 143.234,99.2921 142.5,100.5C 142.167,100.5 141.833,100.5 141.5,100.5C 140.972,93.6699 139.972,87.0032 138.5,80.5C 138.672,79.5084 138.338,78.8417 137.5,78.5C 138.167,77.1667 139.167,76.1667 140.5,75.5 Z"/></g>
<g><path style="opacity:1" fill="#f2b242" d="M 132.5,94.5 C 130.914,95.1481 129.247,95.6481 127.5,96C 125.634,99.0543 122.967,100.554 119.5,100.5C 119.5,102.167 119.5,103.833 119.5,105.5C 122.436,104.594 125.436,103.928 128.5,103.5C 128.5,105.167 128.5,106.833 128.5,108.5C 127.566,109.568 127.232,110.901 127.5,112.5C 125.167,112.5 122.833,112.5 120.5,112.5C 120.785,110.712 120.452,109.045 119.5,107.5C 118.808,108.025 118.308,108.692 118,109.5C 116.649,107.981 115.149,106.648 113.5,105.5C 115.594,101.636 117.928,97.9692 120.5,94.5C 124.295,93.1025 127.961,91.4358 131.5,89.5C 132.452,91.0453 132.785,92.712 132.5,94.5 Z"/></g>
<g><path style="opacity:1" fill="#d9e5aa" d="M 146.5,95.5 C 148.167,98.1667 149.833,100.833 151.5,103.5C 151.5,104.167 151.5,104.833 151.5,105.5C 149.177,104.25 146.844,102.917 144.5,101.5C 143.508,101.672 142.842,101.338 142.5,100.5C 143.234,99.2921 143.567,97.9587 143.5,96.5C 144.391,95.8902 145.391,95.5569 146.5,95.5 Z"/></g>
<g><path style="opacity:1" fill="#688265" d="M 179.5,86.5 C 180.043,86.56 180.376,86.8933 180.5,87.5C 178.809,90.8472 177.142,94.1806 175.5,97.5C 175.5,97.8333 175.5,98.1667 175.5,98.5C 172.378,99.9498 170.378,102.283 169.5,105.5C 168.596,104.791 168.263,103.791 168.5,102.5C 169.777,100.852 170.777,99.0183 171.5,97C 170.584,96.7216 169.918,96.2216 169.5,95.5C 169.5,95.1667 169.5,94.8333 169.5,94.5C 171.5,93.1667 173.167,91.5 174.5,89.5C 176.332,88.7515 177.999,87.7515 179.5,86.5 Z"/></g>
<g><path style="opacity:1" fill="#a07c73" d="M 138.5,80.5 C 139.972,87.0032 140.972,93.6699 141.5,100.5C 141.343,101.873 141.51,103.207 142,104.5C 143.156,103.007 143.99,103.174 144.5,105C 142.822,106.875 141.822,109.042 141.5,111.5C 138.448,112.777 137.115,115.11 137.5,118.5C 137.575,121.206 137.908,123.873 138.5,126.5C 138.189,127.478 137.522,128.145 136.5,128.5C 135.828,127.051 135.161,125.718 134.5,124.5C 134.334,117.825 134.5,111.158 135,104.5C 136.758,96.5784 137.925,88.5784 138.5,80.5 Z"/></g>
<g><path style="opacity:1" fill="#b9b58d" d="M 144.5,101.5 C 146.844,102.917 149.177,104.25 151.5,105.5C 151.631,106.376 151.298,107.043 150.5,107.5C 147.607,106.369 145.607,104.369 144.5,101.5 Z"/></g>
<g><path style="opacity:1" fill="#342f17" d="M 255.5,119.5 C 255.5,127.5 255.5,135.5 255.5,143.5C 251.167,143.5 246.833,143.5 242.5,143.5C 242.822,141.278 242.155,139.444 240.5,138C 231.291,130.618 221.957,123.451 212.5,116.5C 211.847,115.193 211.18,113.86 210.5,112.5C 211.035,110.729 211.869,110.396 213,111.5C 214.31,109.868 214.81,108.201 214.5,106.5C 216.672,106.324 219.005,106.157 221.5,106C 219.405,105.444 219.238,104.944 221,104.5C 223.114,106.012 225.281,106.346 227.5,105.5C 234.711,111.106 242.378,114.94 250.5,117C 251.85,118.718 253.017,120.552 254,122.5C 254.232,121.263 254.732,120.263 255.5,119.5 Z"/></g>
<g><path style="opacity:1" fill="#a7846a" d="M 42.5,79.5 C 41.5712,87.4913 41.0712,95.4913 41,103.5C 41.2508,107.8 42.7508,108.467 45.5,105.5C 45.8333,105.5 46.1667,105.5 46.5,105.5C 46.2924,107.92 46.6258,110.253 47.5,112.5C 46.4756,113.852 45.4756,115.185 44.5,116.5C 43.197,118.142 41.8637,119.809 40.5,121.5C 39.9033,121.265 39.5699,120.765 39.5,120C 41.4536,117.867 42.787,115.367 43.5,112.5C 41.1713,111.229 40.0047,109.229 40,106.5C 39.3333,107.167 38.6667,107.833 38,108.5C 37.7435,112.377 36.7435,116.043 35,119.5C 34.501,115.179 34.3343,110.846 34.5,106.5C 36.5873,101.826 37.9206,96.8257 38.5,91.5C 38.7586,87.0181 40.0919,83.0181 42.5,79.5 Z"/></g>
<g><path style="opacity:1" fill="#865d43" d="M 94.5,92.5 C 95.2216,92.9175 95.7216,93.5842 96,94.5C 96.6692,99.5135 97.0025,104.513 97,109.5C 96.6924,108.692 96.1924,108.025 95.5,107.5C 94.1119,111.943 92.4452,116.276 90.5,120.5C 89.8333,119.167 89.1667,117.833 88.5,116.5C 87.8933,116.624 87.56,116.957 87.5,117.5C 85.7162,117.893 84.0495,118.559 82.5,119.5C 82.0825,118.778 81.4158,118.278 80.5,118C 81.9389,117.009 82.9389,115.676 83.5,114C 85.4211,113.64 87.0878,112.806 88.5,111.5C 85.7144,108.644 85.8811,105.978 89,103.5C 89.8333,100.5 90.6667,97.5 91.5,94.5C 93.6198,95.8715 94.6198,95.2048 94.5,92.5 Z"/></g>
<g><path style="opacity:1" fill="#ab7351" d="M 75.5,67.5 C 77.3325,68.2485 78.9991,69.2485 80.5,70.5C 82.4611,72.9635 84.6278,75.2968 87,77.5C 88.5275,80.4167 89.8608,83.4167 91,86.5C 90.0445,80.601 89.5445,74.601 89.5,68.5C 90.9655,74.9866 92.6322,81.6533 94.5,88.5C 94.5,89.8333 94.5,91.1667 94.5,92.5C 94.6198,95.2048 93.6198,95.8715 91.5,94.5C 90.6667,97.5 89.8333,100.5 89,103.5C 85.8811,105.978 85.7144,108.644 88.5,111.5C 87.0878,112.806 85.4211,113.64 83.5,114C 82.9389,115.676 81.9389,117.009 80.5,118C 81.4158,118.278 82.0825,118.778 82.5,119.5C 78.8026,118.992 75.1359,118.326 71.5,117.5C 71.2601,114.421 71.5934,111.421 72.5,108.5C 72.0431,107.702 71.3764,107.369 70.5,107.5C 70.821,106.183 71.1543,104.849 71.5,103.5C 71.1822,102.353 70.5156,101.519 69.5,101C 58.9301,99.9897 54.9301,104.823 57.5,115.5C 57.5,115.833 57.5,116.167 57.5,116.5C 56.5178,117.141 55.5178,117.807 54.5,118.5C 53.5832,117.873 52.5832,117.539 51.5,117.5C 51.4889,115.453 51.1556,113.453 50.5,111.5C 51.4702,108.226 52.9702,105.226 55,102.5C 55.7891,100.288 55.6225,98.2884 54.5,96.5C 54.811,95.5222 55.4777,94.8555 56.5,94.5C 60.996,98.5283 65.3294,98.3617 69.5,94C 73.1516,93.5014 76.8183,93.3347 80.5,93.5C 80.373,98.3731 82.7064,100.373 87.5,99.5C 87.5,97.1667 87.5,94.8333 87.5,92.5C 83.4295,92.7662 79.4295,92.4328 75.5,91.5C 74.5344,89.604 74.2011,87.604 74.5,85.5C 75.8149,84.5244 77.1482,83.5244 78.5,82.5C 79.7879,80.7015 79.7879,79.0348 78.5,77.5C 78.8571,73.336 77.1905,70.1693 73.5,68C 74.0944,67.5357 74.7611,67.369 75.5,67.5 Z"/></g>
<g><path style="opacity:1" fill="#f6efd9" d="M 15.5,101.5 C 15.19,104.713 15.5233,107.713 16.5,110.5C 16.5,111.167 16.5,111.833 16.5,112.5C 16.8016,115.059 16.4682,117.393 15.5,119.5C 14.9745,114.989 14.3078,110.489 13.5,106C 13.5247,104.124 14.1914,102.624 15.5,101.5 Z"/></g>
<g><path style="opacity:1" fill="#2a2c2c" d="M 163.5,103.5 C 161.314,111.746 157.98,119.413 153.5,126.5C 156.356,120.097 158.523,113.431 160,106.5C 161.039,105.29 162.206,104.29 163.5,103.5 Z"/></g>
<g><path style="opacity:1" fill="#97755f" d="M 97.5,83.5 C 99.0177,86.5341 99.8511,89.8675 100,93.5C 100.5,100.158 100.666,106.825 100.5,113.5C 97.6934,116.426 95.36,119.76 93.5,123.5C 91.9808,123.876 90.3142,123.876 88.5,123.5C 88.7947,121.265 88.4614,119.265 87.5,117.5C 87.56,116.957 87.8933,116.624 88.5,116.5C 89.1667,117.833 89.8333,119.167 90.5,120.5C 92.4452,116.276 94.1119,111.943 95.5,107.5C 96.1924,108.025 96.6924,108.692 97,109.5C 97.0025,104.513 96.6692,99.5135 96,94.5C 95.7216,93.5842 95.2216,92.9175 94.5,92.5C 94.5,91.1667 94.5,89.8333 94.5,88.5C 95.4793,89.7653 96.4793,91.0986 97.5,92.5C 97.8333,92.1667 98.1667,91.8333 98.5,91.5C 96.4328,88.994 96.0995,86.3274 97.5,83.5 Z"/></g>
<g><path style="opacity:1" fill="#ccaa95" d="M 137.5,118.5 C 137.115,115.11 138.448,112.777 141.5,111.5C 143.277,111.214 144.944,110.547 146.5,109.5C 147.167,109.833 147.833,110.167 148.5,110.5C 146.851,111.148 145.518,112.148 144.5,113.5C 145.274,114.711 146.107,114.711 147,113.5C 147.492,114.549 147.326,115.549 146.5,116.5C 145.167,117.167 143.833,117.833 142.5,118.5C 142.833,119.167 143.167,119.833 143.5,120.5C 142.264,121.357 140.931,122.023 139.5,122.5C 138.828,121.051 138.161,119.718 137.5,118.5 Z"/></g>
<g><path style="opacity:1" fill="#484c4e" d="M 163.5,103.5 C 162.206,104.29 161.039,105.29 160,106.5C 158.523,113.431 156.356,120.097 153.5,126.5C 151.797,127.66 151.131,126.993 151.5,124.5C 151.833,123.167 152.167,121.833 152.5,120.5C 154.701,116.886 156.034,112.886 156.5,108.5C 157.601,107.152 158.601,105.652 159.5,104C 160.946,102.702 162.279,102.535 163.5,103.5 Z"/></g>
<g><path style="opacity:1" fill="#b3945e" d="M 54.5,96.5 C 55.6225,98.2884 55.7891,100.288 55,102.5C 52.9702,105.226 51.4702,108.226 50.5,111.5C 51.1556,113.453 51.4889,115.453 51.5,117.5C 49.7085,117.366 48.0418,117.699 46.5,118.5C 46.5,117.167 45.8333,116.5 44.5,116.5C 45.4756,115.185 46.4756,113.852 47.5,112.5C 46.6258,110.253 46.2924,107.92 46.5,105.5C 47.4822,106.141 48.4822,106.807 49.5,107.5C 50.8972,104.974 51.8972,102.308 52.5,99.5C 52.427,97.9731 53.0937,96.9731 54.5,96.5 Z"/></g>
<g><path style="opacity:1" fill="#7b5c43" d="M 137.5,78.5 C 138.338,78.8417 138.672,79.5084 138.5,80.5C 137.925,88.5784 136.758,96.5784 135,104.5C 134.5,111.158 134.334,117.825 134.5,124.5C 134.5,125.833 134.5,127.167 134.5,128.5C 133.85,128.804 133.183,129.137 132.5,129.5C 131.83,131.291 131.163,132.958 130.5,134.5C 132.052,124.569 132.718,114.569 132.5,104.5C 135.008,98.9854 135.675,93.3187 134.5,87.5C 134.56,84.6592 135.226,81.9925 136.5,79.5C 136.5,78.8333 136.833,78.5 137.5,78.5 Z"/></g>
<g><path style="opacity:1" fill="#b0ad90" d="M 16.5,112.5 C 17.1667,113.833 17.8333,115.167 18.5,116.5C 17.5383,119.739 16.2049,122.739 14.5,125.5C 14.8333,123.5 15.1667,121.5 15.5,119.5C 16.4682,117.393 16.8016,115.059 16.5,112.5 Z"/></g>
<g><path style="opacity:1" fill="#e6bfa5" d="M 100.5,113.5 C 100.833,113.5 101.167,113.5 101.5,113.5C 102.796,117.369 102.796,121.369 101.5,125.5C 101.957,126.298 102.624,126.631 103.5,126.5C 103.5,127.833 103.5,129.167 103.5,130.5C 100.948,133.756 100.948,137.09 103.5,140.5C 102.873,141.417 102.539,142.417 102.5,143.5C 100.833,143.5 99.1667,143.5 97.5,143.5C 97.6741,141.139 98.0074,138.806 98.5,136.5C 97.5,136.5 96.5,136.5 95.5,136.5C 95.3359,133.813 95.5026,131.146 96,128.5C 97.8356,123.502 99.3356,118.502 100.5,113.5 Z"/></g>
<g><path style="opacity:1" fill="#6f5440" d="M 109.5,106.5 C 110.833,108.5 112.167,110.5 113.5,112.5C 113.056,118.832 112.556,125.165 112,131.5C 111.8,133.32 110.966,134.653 109.5,135.5C 110.77,129.037 110.77,122.704 109.5,116.5C 108.752,113.83 107.752,111.163 106.5,108.5C 106.402,105.752 107.402,105.086 109.5,106.5 Z"/></g>
<g><path style="opacity:1" fill="#d0a13f" d="M 109.5,106.5 C 110.167,106.5 110.833,106.5 111.5,106.5C 113.475,108.137 115.475,109.804 117.5,111.5C 117.982,112.416 118.315,113.416 118.5,114.5C 117.114,124.127 116.114,133.794 115.5,143.5C 114.167,143.5 112.833,143.5 111.5,143.5C 113.675,133.103 114.342,122.77 113.5,112.5C 112.167,110.5 110.833,108.5 109.5,106.5 Z"/></g>
<g><path style="opacity:1" fill="#a68e7a" d="M 141.5,100.5 C 141.833,100.5 142.167,100.5 142.5,100.5C 142.842,101.338 143.508,101.672 144.5,101.5C 145.607,104.369 147.607,106.369 150.5,107.5C 151.298,107.043 151.631,106.376 151.5,105.5C 151.5,104.833 151.5,104.167 151.5,103.5C 153.223,105.78 153.889,108.447 153.5,111.5C 151.383,113.7 149.716,116.367 148.5,119.5C 147.069,119.977 145.736,120.643 144.5,121.5C 145.811,122.258 146.311,123.258 146,124.5C 143.486,125.089 141.486,126.422 140,128.5C 139.722,127.584 139.222,126.918 138.5,126.5C 137.908,123.873 137.575,121.206 137.5,118.5C 138.161,119.718 138.828,121.051 139.5,122.5C 140.931,122.023 142.264,121.357 143.5,120.5C 143.167,119.833 142.833,119.167 142.5,118.5C 143.833,117.833 145.167,117.167 146.5,116.5C 147.326,115.549 147.492,114.549 147,113.5C 146.107,114.711 145.274,114.711 144.5,113.5C 145.518,112.148 146.851,111.148 148.5,110.5C 147.833,110.167 147.167,109.833 146.5,109.5C 144.944,110.547 143.277,111.214 141.5,111.5C 141.822,109.042 142.822,106.875 144.5,105C 143.99,103.174 143.156,103.007 142,104.5C 141.51,103.207 141.343,101.873 141.5,100.5 Z"/></g>
<g><path style="opacity:1" fill="#7b966e" d="M 203.5,116.5 C 204.833,116.5 206.167,116.5 207.5,116.5C 205.427,119.037 202.76,120.204 199.5,120C 200.056,119.617 200.389,119.117 200.5,118.5C 201.5,117.833 202.5,117.167 203.5,116.5 Z"/></g>
<g><path style="opacity:1" fill="#b9a37d" d="M 41.5,69.5 C 41.5,71.1667 41.5,72.8333 41.5,74.5C 39.1216,80.9271 36.455,87.2605 33.5,93.5C 33.6667,93.8333 33.8333,94.1667 34,94.5C 35.7505,93.7775 37.2505,92.7775 38.5,91.5C 37.9206,96.8257 36.5873,101.826 34.5,106.5C 34.7852,104.712 34.4519,103.045 33.5,101.5C 31.5102,107.185 29.8435,112.852 28.5,118.5C 28.631,117.761 28.4643,117.094 28,116.5C 26.6667,118.5 25.3333,120.5 24,122.5C 23.8333,121.833 23.6667,121.167 23.5,120.5C 25.0574,114.269 26.0574,107.935 26.5,101.5C 29.8988,94.8226 33.3988,88.1559 37,81.5C 37.7401,80.2506 37.5735,79.2506 36.5,78.5C 37.2906,75.885 37.9573,73.2184 38.5,70.5C 39.1174,70.6107 39.6174,70.944 40,71.5C 40.2784,70.5842 40.7784,69.9175 41.5,69.5 Z"/></g>
<g><path style="opacity:1" fill="#ececb8" d="M 44.5,116.5 C 45.8333,116.5 46.5,117.167 46.5,118.5C 45.1667,120.167 43.8333,121.833 42.5,123.5C 40.9363,126.274 39.103,128.941 37,131.5C 36.6012,131.272 36.4346,130.938 36.5,130.5C 36.5,129.833 36.5,129.167 36.5,128.5C 38.588,126.664 39.9213,124.331 40.5,121.5C 41.8637,119.809 43.197,118.142 44.5,116.5 Z"/></g>
<g><path style="opacity:1" fill="#9f7f64" d="M 57.5,116.5 C 56.5101,120.786 55.3434,125.12 54,129.5C 53.5008,134.155 53.3342,138.821 53.5,143.5C 52.1667,143.5 50.8333,143.5 49.5,143.5C 49.4107,140.291 49.744,137.125 50.5,134C 50.1667,133.167 49.8333,132.333 49.5,131.5C 47.1453,135.773 46.1453,135.439 46.5,130.5C 46.5177,127.476 47.5177,124.81 49.5,122.5C 48.9984,121.479 48.3317,121.312 47.5,122C 46.4404,123.298 45.2737,124.465 44,125.5C 42.9701,125.164 42.4701,124.497 42.5,123.5C 43.8333,121.833 45.1667,120.167 46.5,118.5C 48.0418,117.699 49.7085,117.366 51.5,117.5C 52.5832,117.539 53.5832,117.873 54.5,118.5C 55.5178,117.807 56.5178,117.141 57.5,116.5 Z"/></g>
<g><path style="opacity:1" fill="#766156" d="M 153.5,111.5 C 152.908,114.127 152.575,116.794 152.5,119.5C 151.519,121.309 150.019,122.643 148,123.5C 147.837,125.676 147.004,127.509 145.5,129C 141.785,130.295 138.118,131.462 134.5,132.5C 134.5,131.167 134.5,129.833 134.5,128.5C 134.5,127.167 134.5,125.833 134.5,124.5C 135.161,125.718 135.828,127.051 136.5,128.5C 137.522,128.145 138.189,127.478 138.5,126.5C 139.222,126.918 139.722,127.584 140,128.5C 141.486,126.422 143.486,125.089 146,124.5C 146.311,123.258 145.811,122.258 144.5,121.5C 145.736,120.643 147.069,119.977 148.5,119.5C 149.716,116.367 151.383,113.7 153.5,111.5 Z"/></g>
<g><path style="opacity:1" fill="#4e5258" d="M 192.5,92.5 C 193.338,92.8417 193.672,93.5084 193.5,94.5C 192.011,96.8051 190.511,99.1384 189,101.5C 186.314,102.676 183.981,104.343 182,106.5C 177.758,113.412 174.425,120.746 172,128.5C 169.129,134.209 165.295,139.209 160.5,143.5C 156.167,143.5 151.833,143.5 147.5,143.5C 156.999,132.022 164.332,119.355 169.5,105.5C 170.378,102.283 172.378,99.9498 175.5,98.5C 178.813,97.9552 182.146,97.4552 185.5,97C 186.227,95.6012 186.727,94.1012 187,92.5C 188.828,93.7525 190.661,93.7525 192.5,92.5 Z"/></g>
<g><path style="opacity:1" fill="#977768" d="M 109.5,116.5 C 110.77,122.704 110.77,129.037 109.5,135.5C 108.833,136.5 108.167,137.5 107.5,138.5C 109.112,131.279 109.778,123.946 109.5,116.5 Z"/></g>
<g><path style="opacity:1" fill="#576d59" d="M 168.5,102.5 C 168.263,103.791 168.596,104.791 169.5,105.5C 164.332,119.355 156.999,132.022 147.5,143.5C 146.833,143.5 146.167,143.5 145.5,143.5C 155.561,131.031 163.228,117.364 168.5,102.5 Z"/></g>
<g><path style="opacity:1" fill="#26282b" d="M 196.5,119.5 C 194.267,121.348 191.934,123.015 189.5,124.5C 187.359,126.968 184.692,128.634 181.5,129.5C 178.835,132.157 176.169,134.824 173.5,137.5C 172.475,137.103 172.308,136.437 173,135.5C 177.701,132.43 180.035,128.097 180,122.5C 183.338,119.992 186.505,117.325 189.5,114.5C 190.386,113.675 190.719,112.675 190.5,111.5C 192.911,111.863 194.411,110.863 195,108.5C 196.113,109.711 197.28,109.711 198.5,108.5C 199.484,111.428 199.817,114.428 199.5,117.5C 197.821,117.285 196.821,117.952 196.5,119.5 Z"/></g>
<g><path style="opacity:1" fill="#eae5b4" d="M 25.5,100.5 C 26.1667,100.5 26.5,100.833 26.5,101.5C 26.0574,107.935 25.0574,114.269 23.5,120.5C 23.6667,121.167 23.8333,121.833 24,122.5C 25.3333,120.5 26.6667,118.5 28,116.5C 28.4643,117.094 28.631,117.761 28.5,118.5C 24.9072,124.685 21.5738,131.019 18.5,137.5C 18.8333,138.167 19.1667,138.833 19.5,139.5C 21.1881,137.971 22.5214,136.137 23.5,134C 24.1667,133.333 24.8333,133.333 25.5,134C 24.3899,137.049 23.7233,140.216 23.5,143.5C 20.1667,143.5 16.8333,143.5 13.5,143.5C 12.8844,140.92 12.5511,138.253 12.5,135.5C 12.3148,131.859 12.9814,128.526 14.5,125.5C 16.2049,122.739 17.5383,119.739 18.5,116.5C 19.3383,110.429 21.6717,105.096 25.5,100.5 Z"/></g>
<g><path style="opacity:1" fill="#c6b78e" d="M 20.5,117.5 C 21.1239,117.917 21.4573,118.584 21.5,119.5C 19.6535,125.186 17.8202,130.852 16,136.5C 16.5596,129.979 18.0596,123.645 20.5,117.5 Z"/></g>
<g><path style="opacity:1" fill="#c79f84" d="M 70.5,107.5 C 69.0458,110.718 68.3791,114.218 68.5,118C 68.9581,122.829 69.2914,127.662 69.5,132.5C 69.5,134.167 69.5,135.833 69.5,137.5C 68.7513,133.946 67.918,130.28 67,126.5C 66.6667,128.833 66.3333,131.167 66,133.5C 64.8732,130.623 64.2065,127.623 64,124.5C 62.0682,133.696 61.2348,133.362 61.5,123.5C 60.5,123.5 59.5,123.5 58.5,123.5C 58.8064,120.615 58.4731,117.948 57.5,115.5C 54.9301,104.823 58.9301,99.9897 69.5,101C 70.5156,101.519 71.1822,102.353 71.5,103.5C 71.1543,104.849 70.821,106.183 70.5,107.5 Z"/></g>
<g><path style="opacity:1" fill="#2f3336" d="M 193.5,94.5 C 195.173,95.343 196.34,96.6763 197,98.5C 198.88,104.643 201.047,110.643 203.5,116.5C 202.5,117.167 201.5,117.833 200.5,118.5C 199.167,118.833 197.833,119.167 196.5,119.5C 196.821,117.952 197.821,117.285 199.5,117.5C 199.817,114.428 199.484,111.428 198.5,108.5C 197.28,109.711 196.113,109.711 195,108.5C 194.411,110.863 192.911,111.863 190.5,111.5C 190.719,112.675 190.386,113.675 189.5,114.5C 186.505,117.325 183.338,119.992 180,122.5C 180.035,128.097 177.701,132.43 173,135.5C 172.308,136.437 172.475,137.103 173.5,137.5C 171.806,139.861 169.806,141.861 167.5,143.5C 165.167,143.5 162.833,143.5 160.5,143.5C 165.295,139.209 169.129,134.209 172,128.5C 174.425,120.746 177.758,113.412 182,106.5C 183.981,104.343 186.314,102.676 189,101.5C 190.511,99.1384 192.011,96.8051 193.5,94.5 Z"/></g>
<g><path style="opacity:1" fill="#cdaa8f" d="M 34.5,106.5 C 34.3343,110.846 34.501,115.179 35,119.5C 36.7435,116.043 37.7435,112.377 38,108.5C 38.6667,107.833 39.3333,107.167 40,106.5C 40.0047,109.229 41.1713,111.229 43.5,112.5C 42.787,115.367 41.4536,117.867 39.5,120C 39.5699,120.765 39.9033,121.265 40.5,121.5C 39.9213,124.331 38.588,126.664 36.5,128.5C 35.6715,127.668 34.8382,128.001 34,129.5C 32.8529,132.618 31.5196,135.618 30,138.5C 29.6667,137.167 29.3333,135.833 29,134.5C 27.3459,137.293 26.1792,140.293 25.5,143.5C 24.8333,143.5 24.1667,143.5 23.5,143.5C 23.7233,140.216 24.3899,137.049 25.5,134C 24.8333,133.333 24.1667,133.333 23.5,134C 22.5214,136.137 21.1881,137.971 19.5,139.5C 19.1667,138.833 18.8333,138.167 18.5,137.5C 21.5738,131.019 24.9072,124.685 28.5,118.5C 29.8435,112.852 31.5102,107.185 33.5,101.5C 34.4519,103.045 34.7852,104.712 34.5,106.5 Z"/></g>
<g><path style="opacity:1" fill="#ddb89e" d="M 87.5,117.5 C 88.4614,119.265 88.7947,121.265 88.5,123.5C 90.3183,130.015 91.6517,136.682 92.5,143.5C 90.5,143.5 88.5,143.5 86.5,143.5C 87.4699,134.918 87.8032,126.251 87.5,117.5 Z"/></g>
<g><path style="opacity:1" fill="#ab867a" d="M 103.5,130.5 C 103.5,129.167 103.5,127.833 103.5,126.5C 103.334,121.821 103.501,117.155 104,112.5C 105.075,116.355 106.242,120.188 107.5,124C 107.322,127.613 106.156,130.78 104,133.5C 103.517,132.552 103.351,131.552 103.5,130.5 Z"/></g>
<g><path style="opacity:1" fill="#ccac8f" d="M 49.5,143.5 C 47.5,143.5 45.5,143.5 43.5,143.5C 44.4675,140.555 44.6342,137.555 44,134.5C 41.1666,136.836 39.9999,139.836 40.5,143.5C 36.5,143.5 32.5,143.5 28.5,143.5C 31.909,139.58 34.5756,135.247 36.5,130.5C 36.4346,130.938 36.6012,131.272 37,131.5C 39.103,128.941 40.9363,126.274 42.5,123.5C 42.4701,124.497 42.9701,125.164 44,125.5C 45.2737,124.465 46.4404,123.298 47.5,122C 48.3317,121.312 48.9984,121.479 49.5,122.5C 47.5177,124.81 46.5177,127.476 46.5,130.5C 46.1453,135.439 47.1453,135.773 49.5,131.5C 49.8333,132.333 50.1667,133.167 50.5,134C 49.744,137.125 49.4107,140.291 49.5,143.5 Z"/></g>
<g><path style="opacity:1" fill="#91715c" d="M 70.5,107.5 C 71.3764,107.369 72.0431,107.702 72.5,108.5C 71.5934,111.421 71.2601,114.421 71.5,117.5C 75.1359,118.326 78.8026,118.992 82.5,119.5C 84.0495,118.559 85.7162,117.893 87.5,117.5C 87.8032,126.251 87.4699,134.918 86.5,143.5C 84.5,143.5 82.5,143.5 80.5,143.5C 81.3686,141.283 81.702,138.95 81.5,136.5C 81.9226,132.102 82.4226,127.768 83,123.5C 82.6667,123.167 82.3333,122.833 82,122.5C 81.7497,125.754 80.7497,128.754 79,131.5C 79.7448,127.907 80.0782,124.24 80,120.5C 79.7167,123.742 78.8834,124.076 77.5,121.5C 75.6329,124.229 74.6329,123.896 74.5,120.5C 73.5,120.5 72.5,120.5 71.5,120.5C 72.1132,123.635 73.1132,126.635 74.5,129.5C 74.2042,133.238 73.5376,136.905 72.5,140.5C 71.92,137.553 70.92,134.886 69.5,132.5C 69.2914,127.662 68.9581,122.829 68.5,118C 68.3791,114.218 69.0458,110.718 70.5,107.5 Z"/></g>
<g><path style="opacity:1" fill="#ae8a73" d="M 81.5,136.5 C 79.857,136.52 78.5237,135.853 77.5,134.5C 75.6393,137.439 73.9726,140.439 72.5,143.5C 71.5,143.5 70.5,143.5 69.5,143.5C 69.5,141.5 69.5,139.5 69.5,137.5C 69.5,135.833 69.5,134.167 69.5,132.5C 70.92,134.886 71.92,137.553 72.5,140.5C 73.5376,136.905 74.2042,133.238 74.5,129.5C 73.1132,126.635 72.1132,123.635 71.5,120.5C 72.5,120.5 73.5,120.5 74.5,120.5C 74.6329,123.896 75.6329,124.229 77.5,121.5C 78.8834,124.076 79.7167,123.742 80,120.5C 80.0782,124.24 79.7448,127.907 79,131.5C 80.7497,128.754 81.7497,125.754 82,122.5C 82.3333,122.833 82.6667,123.167 83,123.5C 82.4226,127.768 81.9226,132.102 81.5,136.5 Z"/></g>
<g><path style="opacity:1" fill="#d9b59b" d="M 57.5,115.5 C 58.4731,117.948 58.8064,120.615 58.5,123.5C 59.5,123.5 60.5,123.5 61.5,123.5C 61.2348,133.362 62.0682,133.696 64,124.5C 64.2065,127.623 64.8732,130.623 66,133.5C 66.3333,131.167 66.6667,128.833 67,126.5C 67.918,130.28 68.7513,133.946 69.5,137.5C 69.5,139.5 69.5,141.5 69.5,143.5C 64.1667,143.5 58.8333,143.5 53.5,143.5C 53.3342,138.821 53.5008,134.155 54,129.5C 55.3434,125.12 56.5101,120.786 57.5,116.5C 57.5,116.167 57.5,115.833 57.5,115.5 Z"/></g>
<g><path style="opacity:1" fill="#cda791" d="M 106.5,108.5 C 107.752,111.163 108.752,113.83 109.5,116.5C 109.778,123.946 109.112,131.279 107.5,138.5C 106.699,140.042 106.366,141.708 106.5,143.5C 105.167,143.5 103.833,143.5 102.5,143.5C 102.539,142.417 102.873,141.417 103.5,140.5C 100.948,137.09 100.948,133.756 103.5,130.5C 103.351,131.552 103.517,132.552 104,133.5C 106.156,130.78 107.322,127.613 107.5,124C 106.242,120.188 105.075,116.355 104,112.5C 103.501,117.155 103.334,121.821 103.5,126.5C 102.624,126.631 101.957,126.298 101.5,125.5C 102.796,121.369 102.796,117.369 101.5,113.5C 101.18,110.102 101.513,106.768 102.5,103.5C 103.578,105.461 104.911,107.128 106.5,108.5 Z"/></g>
<g><path style="opacity:1" fill="#d4a13e" d="M 132.5,98.5 C 132.5,100.5 132.5,102.5 132.5,104.5C 132.718,114.569 132.052,124.569 130.5,134.5C 130.3,137.63 129.634,140.63 128.5,143.5C 127.5,143.5 126.5,143.5 125.5,143.5C 126.501,135.495 127.501,127.495 128.5,119.5C 129.665,118.504 130.332,117.171 130.5,115.5C 129.954,113.865 129.62,112.199 129.5,110.5C 130.117,110.389 130.617,110.056 131,109.5C 131.177,105.644 131.677,101.977 132.5,98.5 Z"/></g>
<g><path style="opacity:1" fill="#484b4e" d="M 207.5,116.5 C 209.167,116.5 210.833,116.5 212.5,116.5C 221.957,123.451 231.291,130.618 240.5,138C 242.155,139.444 242.822,141.278 242.5,143.5C 241.167,143.5 239.833,143.5 238.5,143.5C 237.298,141.608 235.965,139.774 234.5,138C 228.229,133.696 222.563,128.696 217.5,123C 213.688,121.793 210.688,122.793 208.5,126C 203.754,126.848 200.42,129.348 198.5,133.5C 213.307,134.852 213.973,137.519 200.5,141.5C 198.62,141.229 197.287,141.896 196.5,143.5C 188.833,143.5 181.167,143.5 173.5,143.5C 175.636,141.188 177.636,138.688 179.5,136C 180.833,135.667 182.167,135.333 183.5,135C 186.111,130.552 189.778,127.385 194.5,125.5C 192.955,124.548 191.288,124.215 189.5,124.5C 191.934,123.015 194.267,121.348 196.5,119.5C 197.833,119.167 199.167,118.833 200.5,118.5C 200.389,119.117 200.056,119.617 199.5,120C 202.76,120.204 205.427,119.037 207.5,116.5 Z"/></g>
<g><path style="opacity:1" fill="#282a2d" d="M 238.5,143.5 C 234.5,143.5 230.5,143.5 226.5,143.5C 226.082,142.778 225.416,142.278 224.5,142C 216.507,141.5 208.507,141.334 200.5,141.5C 213.973,137.519 213.307,134.852 198.5,133.5C 200.42,129.348 203.754,126.848 208.5,126C 210.688,122.793 213.688,121.793 217.5,123C 222.563,128.696 228.229,133.696 234.5,138C 235.965,139.774 237.298,141.608 238.5,143.5 Z"/></g>
<g><path style="opacity:1" fill="#9d6b21" d="M 128.5,119.5 C 127.501,127.495 126.501,135.495 125.5,143.5C 122.167,143.5 118.833,143.5 115.5,143.5C 116.114,133.794 117.114,124.127 118.5,114.5C 118.315,113.416 117.982,112.416 117.5,111.5C 117.56,110.957 117.893,110.624 118.5,110.5C 119.783,115.521 119.783,120.521 118.5,125.5C 119.771,127.829 121.771,128.995 124.5,129C 123.065,131.659 122.065,134.492 121.5,137.5C 121.808,138.308 122.308,138.975 123,139.5C 124.803,133.287 126.136,126.953 127,120.5C 127.383,119.944 127.883,119.611 128.5,119.5 Z"/></g>
<g><path style="opacity:1" fill="#5e4843" d="M 152.5,119.5 C 152.5,119.833 152.5,120.167 152.5,120.5C 152.167,121.833 151.833,123.167 151.5,124.5C 146.15,130.522 141.15,136.855 136.5,143.5C 133.833,143.5 131.167,143.5 128.5,143.5C 129.634,140.63 130.3,137.63 130.5,134.5C 131.163,132.958 131.83,131.291 132.5,129.5C 133.183,129.137 133.85,128.804 134.5,128.5C 134.5,129.833 134.5,131.167 134.5,132.5C 138.118,131.462 141.785,130.295 145.5,129C 147.004,127.509 147.837,125.676 148,123.5C 150.019,122.643 151.519,121.309 152.5,119.5 Z"/></g>
<g><path style="opacity:1" fill="#64696e" d="M 189.5,124.5 C 191.288,124.215 192.955,124.548 194.5,125.5C 189.778,127.385 186.111,130.552 183.5,135C 182.167,135.333 180.833,135.667 179.5,136C 177.636,138.688 175.636,141.188 173.5,143.5C 171.5,143.5 169.5,143.5 167.5,143.5C 169.806,141.861 171.806,139.861 173.5,137.5C 176.169,134.824 178.835,132.157 181.5,129.5C 184.692,128.634 187.359,126.968 189.5,124.5 Z"/></g>
<g><path style="opacity:1" fill="#bf9b86" d="M 100.5,113.5 C 99.3356,118.502 97.8356,123.502 96,128.5C 95.5026,131.146 95.3359,133.813 95.5,136.5C 96.5,136.5 97.5,136.5 98.5,136.5C 98.0074,138.806 97.6741,141.139 97.5,143.5C 95.8333,143.5 94.1667,143.5 92.5,143.5C 91.6517,136.682 90.3183,130.015 88.5,123.5C 90.3142,123.876 91.9808,123.876 93.5,123.5C 95.36,119.76 97.6934,116.426 100.5,113.5 Z"/></g>
<g><path style="opacity:1" fill="#343634" d="M 151.5,124.5 C 151.131,126.993 151.797,127.66 153.5,126.5C 150.43,132.304 147.097,137.97 143.5,143.5C 141.167,143.5 138.833,143.5 136.5,143.5C 141.15,136.855 146.15,130.522 151.5,124.5 Z"/></g>
<g><path style="opacity:1" fill="#cca891" d="M 81.5,136.5 C 81.702,138.95 81.3686,141.283 80.5,143.5C 77.8333,143.5 75.1667,143.5 72.5,143.5C 73.9726,140.439 75.6393,137.439 77.5,134.5C 78.5237,135.853 79.857,136.52 81.5,136.5 Z"/></g>
<g><path style="opacity:1" fill="#a88a73" d="M 36.5,128.5 C 36.5,129.167 36.5,129.833 36.5,130.5C 34.5756,135.247 31.909,139.58 28.5,143.5C 27.5,143.5 26.5,143.5 25.5,143.5C 26.1792,140.293 27.3459,137.293 29,134.5C 29.3333,135.833 29.6667,137.167 30,138.5C 31.5196,135.618 32.8529,132.618 34,129.5C 34.8382,128.001 35.6715,127.668 36.5,128.5 Z"/></g>
<g><path style="opacity:1" fill="#a98771" d="M 43.5,143.5 C 42.5,143.5 41.5,143.5 40.5,143.5C 39.9999,139.836 41.1666,136.836 44,134.5C 44.6342,137.555 44.4675,140.555 43.5,143.5 Z"/></g>
<g><path style="opacity:1" fill="#634725" d="M 113.5,112.5 C 114.342,122.77 113.675,133.103 111.5,143.5C 109.833,143.5 108.167,143.5 106.5,143.5C 106.366,141.708 106.699,140.042 107.5,138.5C 108.167,137.5 108.833,136.5 109.5,135.5C 110.966,134.653 111.8,133.32 112,131.5C 112.556,125.165 113.056,118.832 113.5,112.5 Z"/></g>
<g><path style="opacity:1" fill="#0a0a0b" d="M 200.5,141.5 C 208.507,141.334 216.507,141.5 224.5,142C 225.416,142.278 226.082,142.778 226.5,143.5C 216.5,143.5 206.5,143.5 196.5,143.5C 197.287,141.896 198.62,141.229 200.5,141.5 Z"/></g>
</svg>
