<?xml version="1.0" encoding="UTF-8"?>
<!DOCTYPE svg PUBLIC "-//W3C//DTD SVG 1.1//EN" "http://www.w3.org/Graphics/SVG/1.1/DTD/svg11.dtd">
<svg xmlns="http://www.w3.org/2000/svg" version="1.1" width="256px" height="144px" style="shape-rendering:geometricPrecision; text-rendering:geometricPrecision; image-rendering:optimizeQuality; fill-rule:evenodd; clip-rule:evenodd" xmlns:xlink="http://www.w3.org/1999/xlink">
<g><path style="opacity:1" fill="#3d332c" d="M 53.5,-0.5 C 58.5,-0.5 63.5,-0.5 68.5,-0.5C 67.8333,0.833333 66.8333,1.83333 65.5,2.5C 62.2885,0.347154 58.9552,0.0138206 55.5,1.5C 54.5,1.5 53.5,1.5 52.5,1.5C 52.8333,0.833333 53.1667,0.166667 53.5,-0.5 Z"/></g>
<g><path style="opacity:1" fill="#778288" d="M -0.5,0.5 C -0.5,0.166667 -0.5,-0.166667 -0.5,-0.5C 17.5,-0.5 35.5,-0.5 53.5,-0.5C 53.1667,0.166667 52.8333,0.833333 52.5,1.5C 47.2945,3.25057 42.9611,5.58391 39.5,8.5C 39.1583,9.33825 38.4916,9.67158 37.5,9.5C 36.9032,8.86137 36.0698,8.52804 35,8.5C 25.677,14.0224 20.5104,11.3557 19.5,0.5C 12.8333,0.5 6.16667,0.5 -0.5,0.5 Z"/></g>
<g><path style="opacity:1" fill="#6d7e8c" d="M 119.5,-0.5 C 120.167,-0.5 120.833,-0.5 121.5,-0.5C 125.298,0.483418 129.298,0.816751 133.5,0.5C 136.06,1.22031 137.893,2.88698 139,5.5C 142.581,5.18847 145.748,6.5218 148.5,9.5C 149.216,8.68895 150.05,8.02229 151,7.5C 154.362,10.0153 158.029,12.0153 162,13.5C 162.333,12.8333 162.667,12.1667 163,11.5C 164.079,13.3937 165.413,13.727 167,12.5C 168.648,15.5528 170.982,16.5528 174,15.5C 174.667,16.8333 175.333,18.1667 176,19.5C 177.563,16.9557 179.063,16.9557 180.5,19.5C 181.086,19.2907 181.586,18.9574 182,18.5C 182.918,20.6324 184.251,21.299 186,20.5C 186.915,21.3279 187.581,22.3279 188,23.5C 190.685,20.6955 192.352,21.3621 193,25.5C 196.525,24.4519 199.525,25.4519 202,28.5C 202.333,27.8333 202.667,27.1667 203,26.5C 204.555,28.1458 206.221,28.4791 208,27.5C 210.26,28.6729 212.426,30.0062 214.5,31.5C 215.773,31.2545 216.94,31.2545 218,31.5C 219.333,32.8333 220.667,34.1667 222,35.5C 225.763,34.8482 229.43,35.5149 233,37.5C 233.772,37.3552 234.439,37.0219 235,36.5C 237.212,37.6502 239.379,38.6502 241.5,39.5C 241.833,38.8333 242.167,38.1667 242.5,37.5C 243.59,38.727 244.924,39.5604 246.5,40C 244.405,40.5556 244.238,41.0556 246,41.5C 247.956,41.3393 249.956,41.0059 252,40.5C 252.667,41.1667 253.333,41.8333 254,42.5C 254.499,46.4862 254.666,50.4862 254.5,54.5C 252.35,55.0756 250.35,54.4089 248.5,52.5C 246.452,53.083 244.619,53.083 243,52.5C 242.612,53.428 241.945,54.0946 241,54.5C 239.51,53.6831 238.01,52.8498 236.5,52C 237.34,50.3335 236.84,50.1669 235,51.5C 234.374,49.0087 233.541,49.0087 232.5,51.5C 228.993,48.9134 225.326,46.58 221.5,44.5C 219.415,45.6469 217.915,44.9803 217,42.5C 216.333,46.5 215.667,46.5 215,42.5C 214.667,42.8333 214.333,43.1667 214,43.5C 212.601,42.7734 211.101,42.2734 209.5,42C 208.333,41.5 207.5,40.6667 207,39.5C 205.732,39.6158 204.398,39.9491 203,40.5C 202.691,39.2341 202.191,38.0674 201.5,37C 199.567,36.7489 197.734,36.2489 196,35.5C 193.263,36.4677 191.263,35.4677 190,32.5C 189.586,32.9574 189.086,33.2907 188.5,33.5C 184.926,32.6868 181.426,31.6868 178,30.5C 177.667,30.8333 177.333,31.1667 177,31.5C 175.412,29.1919 173.412,28.5252 171,29.5C 167.661,27.9526 164.327,26.2859 161,24.5C 157.654,26.0601 154.654,25.0601 152,21.5C 150.732,21.6158 149.398,21.9491 148,22.5C 147.085,21.6721 146.419,20.6721 146,19.5C 145.586,19.9574 145.086,20.2907 144.5,20.5C 142.73,18.0966 140.397,16.4299 137.5,15.5C 136.139,13.9716 134.972,12.3049 134,10.5C 133.667,10.8333 133.333,11.1667 133,11.5C 130.892,9.20567 128.392,7.53901 125.5,6.5C 125.167,6.5 124.833,6.5 124.5,6.5C 123.246,3.90657 121.58,1.57324 119.5,-0.5 Z"/></g>
<g><path style="opacity:1" fill="#667989" d="M 133.5,0.5 C 150.837,0.333395 168.17,0.500062 185.5,1C 186.56,2.29799 187.726,3.46465 189,4.5C 190.057,3.37263 191.223,2.87263 192.5,3C 192.167,3.33333 191.833,3.66667 191.5,4C 192.667,4.5 193.5,5.33333 194,6.5C 194.333,6.16667 194.667,5.83333 195,5.5C 195.249,6.62402 195.749,7.62402 196.5,8.5C 197.833,7.5 199.167,6.5 200.5,5.5C 200.109,6.89051 200.942,7.89051 203,8.5C 204.373,8.5963 205.873,8.42963 207.5,8C 208.112,9.30326 208.446,10.4699 208.5,11.5C 211.222,11.5442 214.388,11.5442 218,11.5C 220.535,12.7607 222.202,14.7607 223,17.5C 224.316,14.972 225.483,14.972 226.5,17.5C 228.5,16.5 230.5,15.5 232.5,14.5C 232.998,15.6034 233.331,16.6034 233.5,17.5C 236.552,16.6893 239.385,16.6893 242,17.5C 243.019,18.6872 244.186,19.6872 245.5,20.5C 246.192,19.9747 246.692,19.3081 247,18.5C 248.353,19.6853 249.52,21.0186 250.5,22.5C 251.428,20.6652 252.594,20.3318 254,21.5C 254.173,27.3482 254.673,33.0149 255.5,38.5C 255.5,48.8333 255.5,59.1667 255.5,69.5C 254.596,68.791 254.263,67.791 254.5,66.5C 254.5,62.5 254.5,58.5 254.5,54.5C 254.666,50.4862 254.499,46.4862 254,42.5C 253.333,41.8333 252.667,41.1667 252,40.5C 249.956,41.0059 247.956,41.3393 246,41.5C 244.238,41.0556 244.405,40.5556 246.5,40C 244.924,39.5604 243.59,38.727 242.5,37.5C 242.167,38.1667 241.833,38.8333 241.5,39.5C 239.379,38.6502 237.212,37.6502 235,36.5C 234.439,37.0219 233.772,37.3552 233,37.5C 229.43,35.5149 225.763,34.8482 222,35.5C 220.667,34.1667 219.333,32.8333 218,31.5C 216.94,31.2545 215.773,31.2545 214.5,31.5C 212.426,30.0062 210.26,28.6729 208,27.5C 206.221,28.4791 204.555,28.1458 203,26.5C 202.667,27.1667 202.333,27.8333 202,28.5C 199.525,25.4519 196.525,24.4519 193,25.5C 192.352,21.3621 190.685,20.6955 188,23.5C 187.581,22.3279 186.915,21.3279 186,20.5C 184.251,21.299 182.918,20.6324 182,18.5C 181.586,18.9574 181.086,19.2907 180.5,19.5C 179.063,16.9557 177.563,16.9557 176,19.5C 175.333,18.1667 174.667,16.8333 174,15.5C 170.982,16.5528 168.648,15.5528 167,12.5C 165.413,13.727 164.079,13.3937 163,11.5C 162.667,12.1667 162.333,12.8333 162,13.5C 158.029,12.0153 154.362,10.0153 151,7.5C 150.05,8.02229 149.216,8.68895 148.5,9.5C 145.748,6.5218 142.581,5.18847 139,5.5C 137.893,2.88698 136.06,1.22031 133.5,0.5 Z"/></g>
<g><path style="opacity:1" fill="#5e7386" d="M 121.5,-0.5 C 166.167,-0.5 210.833,-0.5 255.5,-0.5C 255.5,12.5 255.5,25.5 255.5,38.5C 254.673,33.0149 254.173,27.3482 254,21.5C 252.594,20.3318 251.428,20.6652 250.5,22.5C 249.52,21.0186 248.353,19.6853 247,18.5C 246.692,19.3081 246.192,19.9747 245.5,20.5C 244.186,19.6872 243.019,18.6872 242,17.5C 239.385,16.6893 236.552,16.6893 233.5,17.5C 233.331,16.6034 232.998,15.6034 232.5,14.5C 230.5,15.5 228.5,16.5 226.5,17.5C 225.483,14.972 224.316,14.972 223,17.5C 222.202,14.7607 220.535,12.7607 218,11.5C 214.388,11.5442 211.222,11.5442 208.5,11.5C 208.446,10.4699 208.112,9.30326 207.5,8C 205.873,8.42963 204.373,8.5963 203,8.5C 200.942,7.89051 200.109,6.89051 200.5,5.5C 199.167,6.5 197.833,7.5 196.5,8.5C 195.749,7.62402 195.249,6.62402 195,5.5C 194.667,5.83333 194.333,6.16667 194,6.5C 193.5,5.33333 192.667,4.5 191.5,4C 191.833,3.66667 192.167,3.33333 192.5,3C 191.223,2.87263 190.057,3.37263 189,4.5C 187.726,3.46465 186.56,2.29799 185.5,1C 168.17,0.500062 150.837,0.333395 133.5,0.5C 129.298,0.816751 125.298,0.483418 121.5,-0.5 Z"/></g>
<g><path style="opacity:1" fill="#afb7ba" d="M 52.5,1.5 C 53.5,1.5 54.5,1.5 55.5,1.5C 57.5,1.5 59.5,1.5 61.5,1.5C 61.7373,2.79105 61.404,3.79105 60.5,4.5C 53.3262,4.92017 46.3262,6.2535 39.5,8.5C 42.9611,5.58391 47.2945,3.25057 52.5,1.5 Z"/></g>
<g><path style="opacity:1" fill="#898783" d="M 55.5,1.5 C 58.9552,0.0138206 62.2885,0.347154 65.5,2.5C 64.0582,3.81953 63.3915,5.4862 63.5,7.5C 61.5853,7.78448 59.9187,7.45115 58.5,6.5C 59.8333,6.5 60.5,5.83333 60.5,4.5C 61.404,3.79105 61.7373,2.79105 61.5,1.5C 59.5,1.5 57.5,1.5 55.5,1.5 Z"/></g>
<g><path style="opacity:1" fill="#e0d1c3" d="M 68.5,-0.5 C 74.8333,-0.5 81.1667,-0.5 87.5,-0.5C 87.5,-0.166667 87.5,0.166667 87.5,0.5C 84.5635,3.63053 80.8969,5.13053 76.5,5C 72.4235,7.70494 68.0901,9.87161 63.5,11.5C 63.5,10.1667 63.5,8.83333 63.5,7.5C 63.3915,5.4862 64.0582,3.81953 65.5,2.5C 66.8333,1.83333 67.8333,0.833333 68.5,-0.5 Z"/></g>
<g><path style="opacity:1" fill="#848c90" d="M -0.5,0.5 C 6.16667,0.5 12.8333,0.5 19.5,0.5C 20.5104,11.3557 25.677,14.0224 35,8.5C 36.0698,8.52804 36.9032,8.86137 37.5,9.5C 31.4439,12.1848 25.1106,13.8514 18.5,14.5C 17.6332,11.0917 16.4665,7.75836 15,4.5C 12.0039,9.46146 11.8372,14.4615 14.5,19.5C 16.1964,21.5248 17.863,23.5248 19.5,25.5C 20.6668,27.0414 22.0001,28.3748 23.5,29.5C 23.8039,30.1499 24.1373,30.8165 24.5,31.5C 22.9223,32.2978 21.2556,32.7978 19.5,33C 20.3402,34.6665 19.8402,34.8331 18,33.5C 17.805,34.8193 17.9717,36.1526 18.5,37.5C 16.8588,36.1295 15.8588,34.2961 15.5,32C 16.2865,29.9011 16.6199,27.7345 16.5,25.5C 14.0607,24.9475 11.7273,24.9475 9.5,25.5C 8.31752,23.3546 6.81752,23.3546 5,25.5C 4.69238,24.6919 4.19238,24.0253 3.5,23.5C 2.57451,24.6405 1.74117,24.6405 1,23.5C 0.76791,24.7375 0.26791,25.7375 -0.5,26.5C -0.5,17.8333 -0.5,9.16667 -0.5,0.5 Z"/></g>
<g><path style="opacity:1" fill="#9fa4a6" d="M 58.5,6.5 C 59.9187,7.45115 61.5853,7.78448 63.5,7.5C 63.5,8.83333 63.5,10.1667 63.5,11.5C 63.5,11.8333 63.5,12.1667 63.5,12.5C 57.5592,10.3035 51.5592,9.97012 45.5,11.5C 43.1944,11.9926 40.861,12.3259 38.5,12.5C 44.6878,9.10585 51.3545,7.10585 58.5,6.5 Z"/></g>
<g><path style="opacity:1" fill="#c89f6f" d="M 87.5,0.5 C 87.5,0.166667 87.5,-0.166667 87.5,-0.5C 98.1667,-0.5 108.833,-0.5 119.5,-0.5C 121.58,1.57324 123.246,3.90657 124.5,6.5C 124.34,8.19919 124.506,9.86586 125,11.5C 126.65,15.6051 128.483,19.6051 130.5,23.5C 127.167,23.5 123.833,23.5 120.5,23.5C 116.992,21.4165 113.325,20.7498 109.5,21.5C 109.167,21.5 108.833,21.5 108.5,21.5C 108.167,20.8333 107.833,20.1667 107.5,19.5C 109.482,18.1835 111.482,18.1835 113.5,19.5C 115.99,18.0049 118.657,17.0049 121.5,16.5C 122.465,15.2789 122.298,13.9456 121,12.5C 118.667,10.1667 116.333,7.83333 114,5.5C 113.289,3.63318 113.789,2.13318 115.5,1C 113.609,0.69134 112.275,1.52467 111.5,3.5C 110.354,2.85506 109.354,2.02173 108.5,1C 101.508,0.500377 94.5079,0.333711 87.5,0.5 Z"/></g>
<g><path style="opacity:1" fill="#6d7071" d="M 37.5,9.5 C 38.4916,9.67158 39.1583,9.33825 39.5,8.5C 46.3262,6.2535 53.3262,4.92017 60.5,4.5C 60.5,5.83333 59.8333,6.5 58.5,6.5C 51.3545,7.10585 44.6878,9.10585 38.5,12.5C 33.9211,13.8145 29.2544,15.1478 24.5,16.5C 20.529,17.2423 17.6957,15.909 16,12.5C 15.023,14.74 14.523,17.0733 14.5,19.5C 11.8372,14.4615 12.0039,9.46146 15,4.5C 16.4665,7.75836 17.6332,11.0917 18.5,14.5C 25.1106,13.8514 31.4439,12.1848 37.5,9.5 Z"/></g>
<g><path style="opacity:1" fill="#4a413b" d="M 45.5,11.5 C 51.5592,9.97012 57.5592,10.3035 63.5,12.5C 64.4706,14.4832 65.4706,16.4832 66.5,18.5C 65.0821,20.3079 63.0821,20.9746 60.5,20.5C 60.5,19.5 60.5,18.5 60.5,17.5C 58.4727,17.6621 56.4727,17.4955 54.5,17C 55.7059,15.9823 55.3726,15.4823 53.5,15.5C 51.2178,16.2234 48.8845,16.5567 46.5,16.5C 46.5,15.5 46.5,14.5 46.5,13.5C 53.0086,12.0381 52.6753,11.3714 45.5,11.5 Z"/></g>
<g><path style="opacity:1" fill="#edd7b9" d="M 98.5,17.5 C 97.8333,17.5 97.5,17.8333 97.5,18.5C 96.8333,17.8333 96.1667,17.1667 95.5,16.5C 91.1158,14.6555 87.4491,15.6555 84.5,19.5C 83.5,19.8333 82.8333,20.5 82.5,21.5C 81.9569,21.44 81.6236,21.1067 81.5,20.5C 83.9045,18.3577 85.2378,15.691 85.5,12.5C 89.9971,11.9445 94.1638,12.6112 98,14.5C 99.9756,13.4567 100.476,12.1233 99.5,10.5C 101.167,9.16667 102.833,9.16667 104.5,10.5C 104.023,11.4776 103.357,12.3109 102.5,13C 105.965,13.9336 106.298,15.4336 103.5,17.5C 101.684,16.2651 100.017,16.2651 98.5,17.5 Z"/></g>
<g><path style="opacity:1" fill="#e2ddd6" d="M 124.5,6.5 C 124.833,6.5 125.167,6.5 125.5,6.5C 126.827,9.47067 128.16,12.4707 129.5,15.5C 129.263,16.791 129.596,17.791 130.5,18.5C 131.096,20.398 131.096,22.0646 130.5,23.5C 128.483,19.6051 126.65,15.6051 125,11.5C 124.506,9.86586 124.34,8.19919 124.5,6.5 Z"/></g>
<g><path style="opacity:1" fill="#72838f" d="M 125.5,6.5 C 128.392,7.53901 130.892,9.20567 133,11.5C 133.333,11.1667 133.667,10.8333 134,10.5C 134.972,12.3049 136.139,13.9716 137.5,15.5C 140.397,16.4299 142.73,18.0966 144.5,20.5C 145.086,20.2907 145.586,19.9574 146,19.5C 146.419,20.6721 147.085,21.6721 148,22.5C 149.398,21.9491 150.732,21.6158 152,21.5C 154.654,25.0601 157.654,26.0601 161,24.5C 164.327,26.2859 167.661,27.9526 171,29.5C 173.412,28.5252 175.412,29.1919 177,31.5C 177.333,31.1667 177.667,30.8333 178,30.5C 181.426,31.6868 184.926,32.6868 188.5,33.5C 189.086,33.2907 189.586,32.9574 190,32.5C 191.263,35.4677 193.263,36.4677 196,35.5C 197.734,36.2489 199.567,36.7489 201.5,37C 202.191,38.0674 202.691,39.2341 203,40.5C 204.398,39.9491 205.732,39.6158 207,39.5C 207.5,40.6667 208.333,41.5 209.5,42C 211.101,42.2734 212.601,42.7734 214,43.5C 214.333,43.1667 214.667,42.8333 215,42.5C 215.667,46.5 216.333,46.5 217,42.5C 217.915,44.9803 219.415,45.6469 221.5,44.5C 225.326,46.58 228.993,48.9134 232.5,51.5C 233.541,49.0087 234.374,49.0087 235,51.5C 236.84,50.1669 237.34,50.3335 236.5,52C 238.01,52.8498 239.51,53.6831 241,54.5C 241.945,54.0946 242.612,53.428 243,52.5C 244.619,53.083 246.452,53.083 248.5,52.5C 250.35,54.4089 252.35,55.0756 254.5,54.5C 254.5,58.5 254.5,62.5 254.5,66.5C 252.219,65.7929 250.052,64.7929 248,63.5C 246.201,63.7205 244.368,64.0539 242.5,64.5C 241.749,63.624 241.249,62.624 241,61.5C 239.605,62.8146 238.605,62.4812 238,60.5C 235.616,62.1706 233.449,61.5039 231.5,58.5C 207.382,46.7892 182.049,37.7892 155.5,31.5C 154.353,31.1822 153.519,30.5156 153,29.5C 152.667,30.1667 152.333,30.8333 152,31.5C 150.324,30.9389 148.991,29.9389 148,28.5C 146.984,29.6341 146.317,29.3008 146,27.5C 145.195,29.9011 144.362,29.7344 143.5,27C 140.89,25.5186 138.223,24.3519 135.5,23.5C 134.471,20.1092 132.471,17.4426 129.5,15.5C 128.16,12.4707 126.827,9.47067 125.5,6.5 Z"/></g>
<g><path style="opacity:1" fill="#6c5e54" d="M 95.5,16.5 C 95.6716,17.4916 95.3382,18.1583 94.5,18.5C 93.5514,17.8476 92.3847,17.5143 91,17.5C 88.5582,17.4823 86.3915,18.149 84.5,19.5C 87.4491,15.6555 91.1158,14.6555 95.5,16.5 Z"/></g>
<g><path style="opacity:1" fill="#dbb37d" d="M 121.5,16.5 C 118.657,17.0049 115.99,18.0049 113.5,19.5C 111.482,18.1835 109.482,18.1835 107.5,19.5C 105.901,19.7678 104.568,19.4345 103.5,18.5C 104.496,18.5858 105.329,18.2524 106,17.5C 106.346,15.7818 106.846,14.1151 107.5,12.5C 106.833,11.8333 106.167,11.1667 105.5,10.5C 113.022,6.45083 118.355,8.45083 121.5,16.5 Z"/></g>
<g><path style="opacity:1" fill="#4c4643" d="M 24.5,16.5 C 24.2381,18.5638 23.0714,19.8971 21,20.5C 19.9914,22.0249 19.4914,23.6916 19.5,25.5C 17.863,23.5248 16.1964,21.5248 14.5,19.5C 14.523,17.0733 15.023,14.74 16,12.5C 17.6957,15.909 20.529,17.2423 24.5,16.5 Z"/></g>
<g><path style="opacity:1" fill="#e1c092" d="M 87.5,0.5 C 94.5079,0.333711 101.508,0.500377 108.5,1C 109.354,2.02173 110.354,2.85506 111.5,3.5C 112.275,1.52467 113.609,0.69134 115.5,1C 113.789,2.13318 113.289,3.63318 114,5.5C 116.333,7.83333 118.667,10.1667 121,12.5C 122.298,13.9456 122.465,15.2789 121.5,16.5C 118.355,8.45083 113.022,6.45083 105.5,10.5C 106.167,11.1667 106.833,11.8333 107.5,12.5C 106.846,14.1151 106.346,15.7818 106,17.5C 105.329,18.2524 104.496,18.5858 103.5,18.5C 101.883,17.962 100.216,17.6287 98.5,17.5C 100.017,16.2651 101.684,16.2651 103.5,17.5C 106.298,15.4336 105.965,13.9336 102.5,13C 103.357,12.3109 104.023,11.4776 104.5,10.5C 102.833,9.16667 101.167,9.16667 99.5,10.5C 100.476,12.1233 99.9756,13.4567 98,14.5C 94.1638,12.6112 89.9971,11.9445 85.5,12.5C 85.2378,15.691 83.9045,18.3577 81.5,20.5C 81.6236,21.1067 81.9569,21.44 82.5,21.5C 81.1938,22.4674 80.5271,23.8007 80.5,25.5C 78.1756,25.3385 76.5089,24.1718 75.5,22C 73.1902,21.5034 70.8568,21.3367 68.5,21.5C 68.573,19.9731 67.9063,18.9731 66.5,18.5C 65.4706,16.4832 64.4706,14.4832 63.5,12.5C 63.5,12.1667 63.5,11.8333 63.5,11.5C 68.0901,9.87161 72.4235,7.70494 76.5,5C 80.8969,5.13053 84.5635,3.63053 87.5,0.5 Z"/></g>
<g><path style="opacity:1" fill="#3b3027" d="M 94.5,18.5 C 91.7217,19.3057 88.8884,20.3057 86,21.5C 84.9701,21.1639 84.4701,20.4972 84.5,19.5C 86.3915,18.149 88.5582,17.4823 91,17.5C 92.3847,17.5143 93.5514,17.8476 94.5,18.5 Z"/></g>
<g><path style="opacity:1" fill="#807f7f" d="M 66.5,18.5 C 67.9063,18.9731 68.573,19.9731 68.5,21.5C 68.5,21.8333 68.5,22.1667 68.5,22.5C 65.9407,22.1984 63.6074,22.5318 61.5,23.5C 55.2912,25.0076 54.9578,24.0076 60.5,20.5C 63.0821,20.9746 65.0821,20.3079 66.5,18.5 Z"/></g>
<g><path style="opacity:1" fill="#2b231b" d="M 97.5,18.5 C 100.636,21.0553 104.303,22.0553 108.5,21.5C 108.833,21.5 109.167,21.5 109.5,21.5C 109.5,21.8333 109.5,22.1667 109.5,22.5C 109.573,24.0269 108.906,25.0269 107.5,25.5C 103.311,24.7795 99.6448,23.1128 96.5,20.5C 96.8333,19.8333 97.1667,19.1667 97.5,18.5 Z"/></g>
<g><path style="opacity:1" fill="#56473d" d="M 97.5,18.5 C 97.5,17.8333 97.8333,17.5 98.5,17.5C 100.216,17.6287 101.883,17.962 103.5,18.5C 104.568,19.4345 105.901,19.7678 107.5,19.5C 107.833,20.1667 108.167,20.8333 108.5,21.5C 104.303,22.0553 100.636,21.0553 97.5,18.5 Z"/></g>
<g><path style="opacity:1" fill="#b07c4e" d="M 120.5,23.5 C 120.5,23.8333 120.5,24.1667 120.5,24.5C 119.508,24.3284 118.842,24.6618 118.5,25.5C 117.566,26.5676 117.232,27.901 117.5,29.5C 116.277,26.5533 114.277,25.5533 111.5,26.5C 111.843,24.5168 111.176,23.1834 109.5,22.5C 109.5,22.1667 109.5,21.8333 109.5,21.5C 113.325,20.7498 116.992,21.4165 120.5,23.5 Z"/></g>
<g><path style="opacity:1" fill="#7d6755" d="M 130.5,18.5 C 132.043,19.7358 133.043,21.4024 133.5,23.5C 133.376,24.1067 133.043,24.44 132.5,24.5C 128.5,24.5 124.5,24.5 120.5,24.5C 120.5,24.1667 120.5,23.8333 120.5,23.5C 123.833,23.5 127.167,23.5 130.5,23.5C 131.096,22.0646 131.096,20.398 130.5,18.5 Z"/></g>
<g><path style="opacity:1" fill="#798893" d="M 135.5,23.5 C 138.223,24.3519 140.89,25.5186 143.5,27C 144.362,29.7344 145.195,29.9011 146,27.5C 146.317,29.3008 146.984,29.6341 148,28.5C 148.991,29.9389 150.324,30.9389 152,31.5C 152.333,30.8333 152.667,30.1667 153,29.5C 153.519,30.5156 154.353,31.1822 155.5,31.5C 182.049,37.7892 207.382,46.7892 231.5,58.5C 233.449,61.5039 235.616,62.1706 238,60.5C 238.605,62.4812 239.605,62.8146 241,61.5C 241.249,62.624 241.749,63.624 242.5,64.5C 244.368,64.0539 246.201,63.7205 248,63.5C 250.052,64.7929 252.219,65.7929 254.5,66.5C 254.263,67.791 254.596,68.791 255.5,69.5C 255.5,76.1667 255.5,82.8333 255.5,89.5C 255.167,89.5 254.833,89.5 254.5,89.5C 254.666,84.1563 254.499,78.8229 254,73.5C 252.606,75.4019 250.773,75.7353 248.5,74.5C 248.543,70.1074 248.043,69.7741 247,73.5C 244.929,72.4752 242.762,71.6419 240.5,71C 240.833,70.6667 241.167,70.3333 241.5,70C 240.584,69.6258 239.75,69.1258 239,68.5C 237.381,67.917 235.548,67.917 233.5,68.5C 231.742,67.8721 230.242,66.8721 229,65.5C 228.667,65.8333 228.333,66.1667 228,66.5C 226.807,64.3949 225.14,62.7282 223,61.5C 214.674,58.1759 206.341,54.1759 198,49.5C 197.586,49.9574 197.086,50.2907 196.5,50.5C 193.89,50.3468 191.557,49.0135 189.5,46.5C 188.833,46.8333 188.167,47.1667 187.5,47.5C 180.08,44.8512 172.58,42.5179 165,40.5C 162.923,39.6217 160.59,39.6217 158,40.5C 156.653,36.625 155.486,36.625 154.5,40.5C 149.13,37.6398 143.464,34.3065 137.5,30.5C 136.725,28.1568 136.058,25.8234 135.5,23.5 Z"/></g>
<g><path style="opacity:1" fill="#a47b54" d="M 95.5,16.5 C 96.1667,17.1667 96.8333,17.8333 97.5,18.5C 97.1667,19.1667 96.8333,19.8333 96.5,20.5C 94.6565,22.2789 93.9898,24.6122 94.5,27.5C 92.4727,27.3379 90.4727,27.5045 88.5,28C 85.9466,30.4252 83.2799,32.5919 80.5,34.5C 80.129,31.6108 80.129,28.6108 80.5,25.5C 80.5271,23.8007 81.1938,22.4674 82.5,21.5C 82.8333,20.5 83.5,19.8333 84.5,19.5C 84.4701,20.4972 84.9701,21.1639 86,21.5C 88.8884,20.3057 91.7217,19.3057 94.5,18.5C 95.3382,18.1583 95.6716,17.4916 95.5,16.5 Z"/></g>
<g><path style="opacity:1" fill="#251e18" d="M 120.5,24.5 C 124.5,24.5 128.5,24.5 132.5,24.5C 134.081,26.1417 134.747,28.1417 134.5,30.5C 132.971,29.6532 131.304,28.9865 129.5,28.5C 127.182,28.9971 124.848,29.3305 122.5,29.5C 121.167,29.5 119.833,29.5 118.5,29.5C 118.5,28.1667 118.5,26.8333 118.5,25.5C 118.842,24.6618 119.508,24.3284 120.5,24.5 Z"/></g>
<g><path style="opacity:1" fill="#52311e" d="M 96.5,20.5 C 99.6448,23.1128 103.311,24.7795 107.5,25.5C 106.307,28.0524 104.973,30.5524 103.5,33C 101.097,33.6302 99.2633,32.7969 98,30.5C 98.1085,31.7688 97.9418,32.7688 97.5,33.5C 97.1667,33.5 96.8333,33.5 96.5,33.5C 94.604,30.7397 91.9374,29.9063 88.5,31C 89.4158,31.2784 90.0825,31.7784 90.5,32.5C 87.4127,34.017 84.0794,34.6837 80.5,34.5C 83.2799,32.5919 85.9466,30.4252 88.5,28C 90.4727,27.5045 92.4727,27.3379 94.5,27.5C 93.9898,24.6122 94.6565,22.2789 96.5,20.5 Z"/></g>
<g><path style="opacity:1" fill="#694c31" d="M 134.5,30.5 C 134.5,30.8333 134.5,31.1667 134.5,31.5C 134.5,31.8333 134.5,32.1667 134.5,32.5C 132.612,34.9878 131.945,37.9878 132.5,41.5C 131.209,41.7373 130.209,41.404 129.5,40.5C 130.693,40.0296 131.36,39.0296 131.5,37.5C 130.165,33.9804 127.498,32.147 123.5,32C 122.748,31.3292 122.414,30.4959 122.5,29.5C 124.848,29.3305 127.182,28.9971 129.5,28.5C 131.304,28.9865 132.971,29.6532 134.5,30.5 Z"/></g>
<g><path style="opacity:1" fill="#302925" d="M 45.5,11.5 C 52.6753,11.3714 53.0086,12.0381 46.5,13.5C 46.5,14.5 46.5,15.5 46.5,16.5C 48.8845,16.5567 51.2178,16.2234 53.5,15.5C 55.3726,15.4823 55.7059,15.9823 54.5,17C 56.4727,17.4955 58.4727,17.6621 60.5,17.5C 60.5,18.5 60.5,19.5 60.5,20.5C 54.9578,24.0076 55.2912,25.0076 61.5,23.5C 62.552,23.3505 63.552,23.5172 64.5,24C 60.9084,26.921 58.0751,30.421 56,34.5C 56.2514,31.1694 57.7514,28.3361 60.5,26C 57.5656,26.2946 54.8989,27.4612 52.5,29.5C 51.5091,33.4454 51.1758,37.4454 51.5,41.5C 50.5084,41.6716 49.8417,41.3382 49.5,40.5C 50.1239,40.0831 50.4573,39.4164 50.5,38.5C 48.951,36.0983 48.2843,33.4317 48.5,30.5C 46.6693,31.0522 45.0026,31.0522 43.5,30.5C 44.9072,26.3436 45.9072,22.3436 46.5,18.5C 38.6844,20.7567 30.6844,21.9234 22.5,22C 22.1667,22.3333 21.8333,22.6667 21.5,23C 25.2192,23.3884 28.8859,24.0551 32.5,25C 29.1182,25.1764 25.7848,25.6764 22.5,26.5C 23.376,27.2508 24.376,27.7508 25.5,28C 24.5842,28.2784 23.9175,28.7784 23.5,29.5C 22.0001,28.3748 20.6668,27.0414 19.5,25.5C 19.4914,23.6916 19.9914,22.0249 21,20.5C 23.0714,19.8971 24.2381,18.5638 24.5,16.5C 29.2544,15.1478 33.9211,13.8145 38.5,12.5C 40.861,12.3259 43.1944,11.9926 45.5,11.5 Z"/></g>
<g><path style="opacity:1" fill="#828f99" d="M 129.5,15.5 C 132.471,17.4426 134.471,20.1092 135.5,23.5C 136.058,25.8234 136.725,28.1568 137.5,30.5C 143.464,34.3065 149.13,37.6398 154.5,40.5C 155.486,36.625 156.653,36.625 158,40.5C 160.59,39.6217 162.923,39.6217 165,40.5C 172.58,42.5179 180.08,44.8512 187.5,47.5C 188.167,47.1667 188.833,46.8333 189.5,46.5C 191.557,49.0135 193.89,50.3468 196.5,50.5C 197.086,50.2907 197.586,49.9574 198,49.5C 206.341,54.1759 214.674,58.1759 223,61.5C 225.14,62.7282 226.807,64.3949 228,66.5C 228.333,66.1667 228.667,65.8333 229,65.5C 230.242,66.8721 231.742,67.8721 233.5,68.5C 235.548,67.917 237.381,67.917 239,68.5C 239.75,69.1258 240.584,69.6258 241.5,70C 241.167,70.3333 240.833,70.6667 240.5,71C 242.762,71.6419 244.929,72.4752 247,73.5C 248.043,69.7741 248.543,70.1074 248.5,74.5C 250.773,75.7353 252.606,75.4019 254,73.5C 254.499,78.8229 254.666,84.1563 254.5,89.5C 247.066,87.4472 239.9,83.7806 233,78.5C 232.586,78.9574 232.086,79.2907 231.5,79.5C 230.147,78.3147 228.98,76.9814 228,75.5C 226.612,76.5536 225.112,76.7203 223.5,76C 216.09,72.2077 208.923,68.7077 202,65.5C 201.667,65.8333 201.333,66.1667 201,66.5C 198.759,63.7728 196.093,63.1062 193,64.5C 188.847,61.7862 184.514,59.4529 180,57.5C 179.586,57.9574 179.086,58.2907 178.5,58.5C 174.4,56.6523 170.4,55.4856 166.5,55C 167.34,53.3335 166.84,53.1669 165,54.5C 163.184,52.5586 161.184,51.8919 159,52.5C 153.174,49.2065 147.007,46.5398 140.5,44.5C 140.242,40.5598 139.076,36.8931 137,33.5C 136.601,33.7284 136.435,34.0618 136.5,34.5C 135.833,33.5 135.167,32.5 134.5,31.5C 134.5,31.1667 134.5,30.8333 134.5,30.5C 134.747,28.1417 134.081,26.1417 132.5,24.5C 133.043,24.44 133.376,24.1067 133.5,23.5C 133.043,21.4024 132.043,19.7358 130.5,18.5C 129.596,17.791 129.263,16.791 129.5,15.5 Z"/></g>
<g><path style="opacity:1" fill="#70492d" d="M 109.5,22.5 C 111.176,23.1834 111.843,24.5168 111.5,26.5C 111.167,26.5 110.833,26.5 110.5,26.5C 109.659,28.8121 108.659,31.1454 107.5,33.5C 103.653,33.7639 100.319,35.0972 97.5,37.5C 96.8333,37.1667 96.1667,36.8333 95.5,36.5C 96.6119,35.7348 97.2786,34.7348 97.5,33.5C 97.9418,32.7688 98.1085,31.7688 98,30.5C 99.2633,32.7969 101.097,33.6302 103.5,33C 104.973,30.5524 106.307,28.0524 107.5,25.5C 108.906,25.0269 109.573,24.0269 109.5,22.5 Z"/></g>
<g><path style="opacity:1" fill="#2a2a29" d="M 96.5,33.5 C 94.4436,34.161 92.4436,33.8277 90.5,32.5C 90.0825,31.7784 89.4158,31.2784 88.5,31C 91.9374,29.9063 94.604,30.7397 96.5,33.5 Z"/></g>
<g><path style="opacity:1" fill="#3f352e" d="M 61.5,23.5 C 63.6074,22.5318 65.9407,22.1984 68.5,22.5C 69.3382,22.8417 69.6716,23.5084 69.5,24.5C 66.8315,29.372 65.8315,34.7053 66.5,40.5C 65.7784,40.0825 65.2784,39.4158 65,38.5C 62.3659,43.1466 59.6992,47.8133 57,52.5C 56.2303,53.5981 55.397,53.5981 54.5,52.5C 57.6941,47.9877 59.1941,42.9877 59,37.5C 57.7485,39.0009 56.7485,40.6675 56,42.5C 55.3486,40.765 55.5153,39.0983 56.5,37.5C 56.1543,36.3044 55.6543,36.3044 55,37.5C 54.0136,41.0037 52.8469,44.337 51.5,47.5C 51.5,45.5 51.5,43.5 51.5,41.5C 51.1758,37.4454 51.5091,33.4454 52.5,29.5C 54.8989,27.4612 57.5656,26.2946 60.5,26C 57.7514,28.3361 56.2514,31.1694 56,34.5C 58.0751,30.421 60.9084,26.921 64.5,24C 63.552,23.5172 62.552,23.3505 61.5,23.5 Z"/></g>
<g><path style="opacity:1" fill="#291a13" d="M 128.5,39.5 C 126.887,37.9121 124.887,36.9121 122.5,36.5C 121.147,35.4739 120.147,34.1405 119.5,32.5C 119.56,31.9569 119.893,31.6236 120.5,31.5C 122.938,33.5346 125.605,35.2013 128.5,36.5C 129.776,37.6136 129.776,38.6136 128.5,39.5 Z"/></g>
<g><path style="opacity:1" fill="#482d1a" d="M 118.5,25.5 C 118.5,26.8333 118.5,28.1667 118.5,29.5C 119.833,29.5 121.167,29.5 122.5,29.5C 122.414,30.4959 122.748,31.3292 123.5,32C 127.498,32.147 130.165,33.9804 131.5,37.5C 131.36,39.0296 130.693,40.0296 129.5,40.5C 128.833,40.5 128.5,40.1667 128.5,39.5C 129.776,38.6136 129.776,37.6136 128.5,36.5C 125.605,35.2013 122.938,33.5346 120.5,31.5C 119.893,31.6236 119.56,31.9569 119.5,32.5C 118.599,31.7095 117.932,30.7095 117.5,29.5C 117.232,27.901 117.566,26.5676 118.5,25.5 Z"/></g>
<g><path style="opacity:1" fill="#906545" d="M 90.5,32.5 C 92.4436,33.8277 94.4436,34.161 96.5,33.5C 96.8333,33.5 97.1667,33.5 97.5,33.5C 97.2786,34.7348 96.6119,35.7348 95.5,36.5C 96.1667,36.8333 96.8333,37.1667 97.5,37.5C 100.319,35.0972 103.653,33.7639 107.5,33.5C 105.513,36.4847 102.846,38.4847 99.5,39.5C 93.301,36.8746 86.9676,35.2079 80.5,34.5C 84.0794,34.6837 87.4127,34.017 90.5,32.5 Z"/></g>
<g><path style="opacity:1" fill="#25201c" d="M 49.5,40.5 C 45.6837,39.3797 42.0171,39.3797 38.5,40.5C 35.5451,42.1223 32.8785,44.1223 30.5,46.5C 26.9109,44.9077 23.5776,42.9077 20.5,40.5C 19.8333,39.5 19.1667,38.5 18.5,37.5C 17.9717,36.1526 17.805,34.8193 18,33.5C 19.8402,34.8331 20.3402,34.6665 19.5,33C 21.2556,32.7978 22.9223,32.2978 24.5,31.5C 24.1373,30.8165 23.8039,30.1499 23.5,29.5C 23.9175,28.7784 24.5842,28.2784 25.5,28C 24.376,27.7508 23.376,27.2508 22.5,26.5C 25.7848,25.6764 29.1182,25.1764 32.5,25C 28.8859,24.0551 25.2192,23.3884 21.5,23C 21.8333,22.6667 22.1667,22.3333 22.5,22C 30.6844,21.9234 38.6844,20.7567 46.5,18.5C 45.9072,22.3436 44.9072,26.3436 43.5,30.5C 45.0026,31.0522 46.6693,31.0522 48.5,30.5C 48.2843,33.4317 48.951,36.0983 50.5,38.5C 50.4573,39.4164 50.1239,40.0831 49.5,40.5 Z"/></g>
<g><path style="opacity:1" fill="#be7a4f" d="M 123.5,46.5 C 124.338,46.8417 124.672,47.5084 124.5,48.5C 117.671,47.5007 111.005,47.5007 104.5,48.5C 100.865,48.3444 100.532,47.1777 103.5,45C 102.906,44.5357 102.239,44.369 101.5,44.5C 102.29,43.5987 103.29,42.9321 104.5,42.5C 106.599,40.0062 108.932,37.6729 111.5,35.5C 112.5,35.8333 113.167,36.5 113.5,37.5C 112.469,38.7003 111.635,40.0337 111,41.5C 108.594,42.5647 106.427,43.8981 104.5,45.5C 110.798,46.4963 117.132,46.8297 123.5,46.5 Z"/></g>
<g><path style="opacity:1" fill="#989e9d" d="M 18.5,37.5 C 19.1667,38.5 19.8333,39.5 20.5,40.5C 13.6699,41.5831 7.00327,42.2498 0.5,42.5C 0.767809,44.099 0.434475,45.4324 -0.5,46.5C -0.5,39.8333 -0.5,33.1667 -0.5,26.5C 0.26791,25.7375 0.76791,24.7375 1,23.5C 1.74117,24.6405 2.57451,24.6405 3.5,23.5C 4.19238,24.0253 4.69238,24.6919 5,25.5C 6.81752,23.3546 8.31752,23.3546 9.5,25.5C 11.7273,24.9475 14.0607,24.9475 16.5,25.5C 16.6199,27.7345 16.2865,29.9011 15.5,32C 15.8588,34.2961 16.8588,36.1295 18.5,37.5 Z"/></g>
<g><path style="opacity:1" fill="#98785a" d="M 134.5,32.5 C 134.5,35.1667 134.5,37.8333 134.5,40.5C 133.833,40.8333 133.167,41.1667 132.5,41.5C 131.945,37.9878 132.612,34.9878 134.5,32.5 Z"/></g>
<g><path style="opacity:1" fill="#d3a66f" d="M 68.5,22.5 C 68.5,22.1667 68.5,21.8333 68.5,21.5C 70.8568,21.3367 73.1902,21.5034 75.5,22C 76.5089,24.1718 78.1756,25.3385 80.5,25.5C 80.129,28.6108 80.129,31.6108 80.5,34.5C 86.9676,35.2079 93.301,36.8746 99.5,39.5C 101.201,39.9662 102.701,39.9662 104,39.5C 104.483,40.448 104.649,41.448 104.5,42.5C 103.29,42.9321 102.29,43.5987 101.5,44.5C 99.5,45.8333 97.8333,47.5 96.5,49.5C 94.4727,49.6621 92.4727,49.4955 90.5,49C 88.3345,47.0067 86.0011,45.1733 83.5,43.5C 80.0136,42.7243 76.5136,42.0576 73,41.5C 71.699,39.8446 70.199,38.5113 68.5,37.5C 68.4672,33.1311 68.8005,28.7978 69.5,24.5C 69.6716,23.5084 69.3382,22.8417 68.5,22.5 Z"/></g>
<g><path style="opacity:1" fill="#d7ab81" d="M 117.5,29.5 C 117.932,30.7095 118.599,31.7095 119.5,32.5C 120.147,34.1405 121.147,35.4739 122.5,36.5C 123.105,40.5517 124.438,44.3851 126.5,48C 126.43,48.7648 126.097,49.2648 125.5,49.5C 124.833,49.5 124.5,49.1667 124.5,48.5C 124.672,47.5084 124.338,46.8417 123.5,46.5C 123.159,43.4842 121.993,40.8175 120,38.5C 119.798,40.2556 119.298,41.9223 118.5,43.5C 118.167,43.3333 117.833,43.1667 117.5,43C 116.726,40.595 116.226,38.095 116,35.5C 114.736,33.393 112.903,32.393 110.5,32.5C 110.5,30.5 110.5,28.5 110.5,26.5C 110.833,26.5 111.167,26.5 111.5,26.5C 114.277,25.5533 116.277,26.5533 117.5,29.5 Z"/></g>
<g><path style="opacity:1" fill="#a0714a" d="M 69.5,24.5 C 68.8005,28.7978 68.4672,33.1311 68.5,37.5C 68.2796,40.4005 68.9462,43.0671 70.5,45.5C 74.1111,46.2618 77.7778,46.7618 81.5,47C 82.056,47.3826 82.3893,47.8826 82.5,48.5C 78.8778,48.1317 75.3778,48.1317 72,48.5C 69.6451,47.3076 67.8118,45.641 66.5,43.5C 66.5,42.5 66.5,41.5 66.5,40.5C 65.8315,34.7053 66.8315,29.372 69.5,24.5 Z"/></g>
<g><path style="opacity:1" fill="#cd8f5f" d="M 110.5,26.5 C 110.5,28.5 110.5,30.5 110.5,32.5C 112.903,32.393 114.736,33.393 116,35.5C 116.226,38.095 116.726,40.595 117.5,43C 117.833,43.1667 118.167,43.3333 118.5,43.5C 119.298,41.9223 119.798,40.2556 120,38.5C 121.993,40.8175 123.159,43.4842 123.5,46.5C 117.132,46.8297 110.798,46.4963 104.5,45.5C 106.427,43.8981 108.594,42.5647 111,41.5C 111.635,40.0337 112.469,38.7003 113.5,37.5C 113.167,36.5 112.5,35.8333 111.5,35.5C 108.932,37.6729 106.599,40.0062 104.5,42.5C 104.649,41.448 104.483,40.448 104,39.5C 102.701,39.9662 101.201,39.9662 99.5,39.5C 102.846,38.4847 105.513,36.4847 107.5,33.5C 108.659,31.1454 109.659,28.8121 110.5,26.5 Z"/></g>
<g><path style="opacity:1" fill="#a3774f" d="M 122.5,36.5 C 124.887,36.9121 126.887,37.9121 128.5,39.5C 128.5,40.1667 128.833,40.5 129.5,40.5C 130.209,41.404 131.209,41.7373 132.5,41.5C 133.011,44.0215 134.011,46.3549 135.5,48.5C 135.5,51.1667 135.5,53.8333 135.5,56.5C 134.19,54.5654 132.857,52.5654 131.5,50.5C 131.269,52.2959 131.935,54.1292 133.5,56C 132.906,56.4643 132.239,56.631 131.5,56.5C 129.973,56.573 128.973,55.9063 128.5,54.5C 129.239,54.631 129.906,54.4643 130.5,54C 128.937,52.264 127.27,50.764 125.5,49.5C 126.097,49.2648 126.43,48.7648 126.5,48C 124.438,44.3851 123.105,40.5517 122.5,36.5 Z"/></g>
<g><path style="opacity:1" fill="#d2cac1" d="M 134.5,40.5 C 135.059,42.6792 135.726,44.8458 136.5,47C 136.43,47.7648 136.097,48.2648 135.5,48.5C 134.011,46.3549 133.011,44.0215 132.5,41.5C 133.167,41.1667 133.833,40.8333 134.5,40.5 Z"/></g>
<g><path style="opacity:1" fill="#8c98a0" d="M 140.5,44.5 C 147.007,46.5398 153.174,49.2065 159,52.5C 161.184,51.8919 163.184,52.5586 165,54.5C 166.84,53.1669 167.34,53.3335 166.5,55C 170.4,55.4856 174.4,56.6523 178.5,58.5C 179.086,58.2907 179.586,57.9574 180,57.5C 184.514,59.4529 188.847,61.7862 193,64.5C 196.093,63.1062 198.759,63.7728 201,66.5C 201.333,66.1667 201.667,65.8333 202,65.5C 208.923,68.7077 216.09,72.2077 223.5,76C 225.112,76.7203 226.612,76.5536 228,75.5C 228.98,76.9814 230.147,78.3147 231.5,79.5C 232.086,79.2907 232.586,78.9574 233,78.5C 239.9,83.7806 247.066,87.4472 254.5,89.5C 254.833,89.5 255.167,89.5 255.5,89.5C 255.5,96.8333 255.5,104.167 255.5,111.5C 254.566,110.432 254.232,109.099 254.5,107.5C 254.797,103.233 254.464,99.0659 253.5,95C 245.284,92.31 237.784,88.4766 231,83.5C 229.612,84.5536 228.112,84.7203 226.5,84C 218.827,80.3593 211.327,77.1926 204,74.5C 199.314,75.1661 195.314,73.1661 192,68.5C 190.249,69.1737 188.583,69.507 187,69.5C 185.579,66.3778 183.913,66.0444 182,68.5C 181.612,67.572 180.945,66.9054 180,66.5C 166.192,63.0112 153.692,57.0112 142.5,48.5C 141.37,47.3777 140.703,46.0443 140.5,44.5 Z"/></g>
<g><path style="opacity:1" fill="#986743" d="M 38.5,40.5 C 42.0171,39.3797 45.6837,39.3797 49.5,40.5C 49.8417,41.3382 50.5084,41.6716 51.5,41.5C 51.5,43.5 51.5,45.5 51.5,47.5C 51.3259,49.861 50.9926,52.1944 50.5,54.5C 49.3054,54.1344 48.6387,53.301 48.5,52C 49.6891,47.6537 48.0224,44.8203 43.5,43.5C 42.0813,42.5489 40.4147,42.2155 38.5,42.5C 39.5063,41.6043 39.5063,40.9377 38.5,40.5 Z"/></g>
<g><path style="opacity:1" fill="#9e5736" d="M 101.5,44.5 C 102.239,44.369 102.906,44.5357 103.5,45C 100.532,47.1777 100.865,48.3444 104.5,48.5C 103.89,49.391 103.557,50.391 103.5,51.5C 102.833,51.5 102.5,51.8333 102.5,52.5C 102.167,52.5 101.833,52.5 101.5,52.5C 101.013,51.5266 100.513,50.5266 100,49.5C 97.9798,51.5506 96.4798,53.8839 95.5,56.5C 94.5,57.1667 93.5,57.8333 92.5,58.5C 93.4433,55.3405 94.7767,52.3405 96.5,49.5C 97.8333,47.5 99.5,45.8333 101.5,44.5 Z"/></g>
<g><path style="opacity:1" fill="#aeb1ac" d="M 20.5,40.5 C 23.5776,42.9077 26.9109,44.9077 30.5,46.5C 32.8785,44.1223 35.5451,42.1223 38.5,40.5C 39.5063,40.9377 39.5063,41.6043 38.5,42.5C 35.6144,43.5964 33.6144,45.5964 32.5,48.5C 31.6034,51.1643 30.27,53.4976 28.5,55.5C 28.0618,55.5654 27.7284,55.3988 27.5,55C 28.3081,54.6924 28.9747,54.1924 29.5,53.5C 28.5731,51.5095 28.4064,49.5095 29,47.5C 19.7591,51.2914 10.2591,54.2914 0.5,56.5C 0.814971,60.3714 0.481638,64.0381 -0.5,67.5C -0.5,60.5 -0.5,53.5 -0.5,46.5C 0.434475,45.4324 0.767809,44.099 0.5,42.5C 7.00327,42.2498 13.6699,41.5831 20.5,40.5 Z"/></g>
<g><path style="opacity:1" fill="#caa789" d="M 39.5,47.5 C 38.4909,50.0486 37.6575,52.7152 37,55.5C 36.6174,54.944 36.1174,54.6107 35.5,54.5C 35.584,51.3183 36.9173,48.985 39.5,47.5 Z"/></g>
<g><path style="opacity:1" fill="#623925" d="M 104.5,48.5 C 111.005,47.5007 117.671,47.5007 124.5,48.5C 124.5,49.1667 124.833,49.5 125.5,49.5C 127.27,50.764 128.937,52.264 130.5,54C 129.906,54.4643 129.239,54.631 128.5,54.5C 127.391,54.4431 126.391,54.1098 125.5,53.5C 122.376,53.311 119.043,53.1443 115.5,53C 112.75,49.2928 109.084,47.7928 104.5,48.5 Z"/></g>
<g><path style="opacity:1" fill="#97a2a7" d="M 140.5,44.5 C 140.703,46.0443 141.37,47.3777 142.5,48.5C 153.692,57.0112 166.192,63.0112 180,66.5C 180.945,66.9054 181.612,67.572 182,68.5C 183.913,66.0444 185.579,66.3778 187,69.5C 188.583,69.507 190.249,69.1737 192,68.5C 195.314,73.1661 199.314,75.1661 204,74.5C 211.327,77.1926 218.827,80.3593 226.5,84C 228.112,84.7203 229.612,84.5536 231,83.5C 237.784,88.4766 245.284,92.31 253.5,95C 254.464,99.0659 254.797,103.233 254.5,107.5C 242.472,100.819 230.139,94.6527 217.5,89C 203.29,85.5924 189.623,82.2591 176.5,79C 162.526,71.3629 149.86,62.8629 138.5,53.5C 137.757,47.2996 137.09,40.9663 136.5,34.5C 136.435,34.0618 136.601,33.7284 137,33.5C 139.076,36.8931 140.242,40.5598 140.5,44.5 Z"/></g>
<g><path style="opacity:1" fill="#c08152" d="M 68.5,37.5 C 70.199,38.5113 71.699,39.8446 73,41.5C 76.5136,42.0576 80.0136,42.7243 83.5,43.5C 86.0011,45.1733 88.3345,47.0067 90.5,49C 92.4727,49.4955 94.4727,49.6621 96.5,49.5C 94.7767,52.3405 93.4433,55.3405 92.5,58.5C 89.6769,59.9923 88.0102,62.3257 87.5,65.5C 86.7777,66.5511 85.7777,67.2178 84.5,67.5C 82.9257,65.357 81.5923,63.0237 80.5,60.5C 80.572,56.3735 81.2387,52.3735 82.5,48.5C 82.3893,47.8826 82.056,47.3826 81.5,47C 77.7778,46.7618 74.1111,46.2618 70.5,45.5C 68.9462,43.0671 68.2796,40.4005 68.5,37.5 Z"/></g>
<g><path style="opacity:1" fill="#746d6a" d="M 54.5,52.5 C 53.1363,54.1911 51.803,55.8577 50.5,57.5C 50.5,56.5 50.5,55.5 50.5,54.5C 50.9926,52.1944 51.3259,49.861 51.5,47.5C 52.8469,44.337 54.0136,41.0037 55,37.5C 55.6543,36.3044 56.1543,36.3044 56.5,37.5C 55.5153,39.0983 55.3486,40.765 56,42.5C 56.7485,40.6675 57.7485,39.0009 59,37.5C 59.1941,42.9877 57.6941,47.9877 54.5,52.5 Z"/></g>
<g><path style="opacity:1" fill="#c68c5a" d="M 101.5,52.5 C 99.5,53.8333 97.5,55.1667 95.5,56.5C 96.4798,53.8839 97.9798,51.5506 100,49.5C 100.513,50.5266 101.013,51.5266 101.5,52.5 Z"/></g>
<g><path style="opacity:1" fill="#8e4328" d="M 38.5,42.5 C 40.4147,42.2155 42.0813,42.5489 43.5,43.5C 37.0755,43.8101 36.4088,45.1434 41.5,47.5C 40.8333,47.5 40.1667,47.5 39.5,47.5C 36.9173,48.985 35.584,51.3183 35.5,54.5C 36.0679,58.2373 37.7346,61.4039 40.5,64C 38.1226,63.1726 35.7892,62.0059 33.5,60.5C 33.6716,59.5084 33.3382,58.8417 32.5,58.5C 32.5,55.1667 32.5,51.8333 32.5,48.5C 33.6144,45.5964 35.6144,43.5964 38.5,42.5 Z"/></g>
<g><path style="opacity:1" fill="#2f2720" d="M 134.5,31.5 C 135.167,32.5 135.833,33.5 136.5,34.5C 137.09,40.9663 137.757,47.2996 138.5,53.5C 138.539,54.5832 138.873,55.5832 139.5,56.5C 138.833,56.8333 138.167,57.1667 137.5,57.5C 138.5,59.8132 139.834,61.8132 141.5,63.5C 141.769,65.4286 141.269,67.0953 140,68.5C 138.002,64.6701 136.502,60.6701 135.5,56.5C 135.5,53.8333 135.5,51.1667 135.5,48.5C 136.097,48.2648 136.43,47.7648 136.5,47C 135.726,44.8458 135.059,42.6792 134.5,40.5C 134.5,37.8333 134.5,35.1667 134.5,32.5C 134.5,32.1667 134.5,31.8333 134.5,31.5 Z"/></g>
<g><path style="opacity:1" fill="#857d75" d="M 32.5,48.5 C 32.5,51.8333 32.5,55.1667 32.5,58.5C 31.1283,57.4884 29.795,56.4884 28.5,55.5C 30.27,53.4976 31.6034,51.1643 32.5,48.5 Z"/></g>
<g><path style="opacity:1" fill="#65331c" d="M 43.5,43.5 C 48.0224,44.8203 49.6891,47.6537 48.5,52C 48.6387,53.301 49.3054,54.1344 50.5,54.5C 50.5,55.5 50.5,56.5 50.5,57.5C 51.4408,59.0495 52.1075,60.7162 52.5,62.5C 49.4583,61.1308 46.2916,60.1308 43,59.5C 40.7214,55.7298 41.2214,52.3965 44.5,49.5C 43.6431,48.5748 42.6431,47.9081 41.5,47.5C 36.4088,45.1434 37.0755,43.8101 43.5,43.5 Z"/></g>
<g><path style="opacity:1" fill="#261f19" d="M 66.5,40.5 C 66.5,41.5 66.5,42.5 66.5,43.5C 64.6415,45.8484 63.4748,49.1818 63,53.5C 60.1742,56.4835 57.8409,59.8168 56,63.5C 55.586,63.9574 55.086,64.2907 54.5,64.5C 53.8182,63.7573 53.1515,63.0906 52.5,62.5C 52.1075,60.7162 51.4408,59.0495 50.5,57.5C 51.803,55.8577 53.1363,54.1911 54.5,52.5C 55.397,53.5981 56.2303,53.5981 57,52.5C 59.6992,47.8133 62.3659,43.1466 65,38.5C 65.2784,39.4158 65.7784,40.0825 66.5,40.5 Z"/></g>
<g><path style="opacity:1" fill="#706259" d="M 102.5,52.5 C 102.5,51.8333 102.833,51.5 103.5,51.5C 107.647,51.1257 111.314,52.1257 114.5,54.5C 108.574,58.4403 101.907,60.7736 94.5,61.5C 98.1479,58.0031 102.481,55.5031 107.5,54C 105.846,53.3923 104.179,52.8923 102.5,52.5 Z"/></g>
<g><path style="opacity:1" fill="#c1c3bb" d="M 28.5,55.5 C 29.795,56.4884 31.1283,57.4884 32.5,58.5C 32.5,59.5 32.5,60.5 32.5,61.5C 31.1266,61.3433 29.7932,61.51 28.5,62C 31.0635,62.763 31.0635,63.263 28.5,63.5C 23.3735,61.7796 23.3735,62.7796 28.5,66.5C 30.7463,67.2096 33.0796,67.7096 35.5,68C 36.3805,68.7083 37.0472,69.5416 37.5,70.5C 33.7309,70.1854 30.2309,69.1854 27,67.5C 23.6349,69.1115 20.1349,69.9448 16.5,70C 18.359,69.3161 20.0257,68.3161 21.5,67C 20.5,66.8333 19.5,66.6667 18.5,66.5C 12.4628,68.243 6.46282,69.9096 0.5,71.5C 0.737305,72.791 0.403972,73.791 -0.5,74.5C -0.5,72.1667 -0.5,69.8333 -0.5,67.5C 0.481638,64.0381 0.814971,60.3714 0.5,56.5C 10.2591,54.2914 19.7591,51.2914 29,47.5C 28.4064,49.5095 28.5731,51.5095 29.5,53.5C 28.9747,54.1924 28.3081,54.6924 27.5,55C 27.7284,55.3988 28.0618,55.5654 28.5,55.5 Z"/></g>
<g><path style="opacity:1" fill="#908279" d="M 101.5,52.5 C 101.833,52.5 102.167,52.5 102.5,52.5C 104.179,52.8923 105.846,53.3923 107.5,54C 102.481,55.5031 98.1479,58.0031 94.5,61.5C 91.4143,61.5989 89.081,62.9322 87.5,65.5C 88.0102,62.3257 89.6769,59.9923 92.5,58.5C 93.5,57.8333 94.5,57.1667 95.5,56.5C 97.5,55.1667 99.5,53.8333 101.5,52.5 Z"/></g>
<g><path style="opacity:1" fill="#433830" d="M 125.5,53.5 C 126.391,54.1098 127.391,54.4431 128.5,54.5C 128.973,55.9063 129.973,56.573 131.5,56.5C 134.797,59.4243 136.797,63.091 137.5,67.5C 135.805,66.9886 134.139,66.3219 132.5,65.5C 131.42,63.0038 130.086,60.6705 128.5,58.5C 127.904,59.7161 127.737,61.0494 128,62.5C 126.615,61.4495 125.615,60.1161 125,58.5C 122.866,61.0836 121.032,60.7503 119.5,57.5C 121.911,56.6389 123.911,55.3056 125.5,53.5 Z"/></g>
<g><path style="opacity:1" fill="#42372f" d="M 66.5,43.5 C 67.8118,45.641 69.6451,47.3076 72,48.5C 75.3778,48.1317 78.8778,48.1317 82.5,48.5C 81.2387,52.3735 80.572,56.3735 80.5,60.5C 72.24,68.9599 62.9067,75.9599 52.5,81.5C 52.2025,80.184 51.8692,78.8506 51.5,77.5C 50.0603,78.9524 48.3936,79.9524 46.5,80.5C 49.4789,76.8544 52.8123,73.521 56.5,70.5C 56.1667,70.1667 55.8333,69.8333 55.5,69.5C 50.1476,73.8567 44.8143,78.19 39.5,82.5C 38.1418,82.1778 36.4752,82.1778 34.5,82.5C 33.8333,82.5 33.5,82.1667 33.5,81.5C 34.791,81.7373 35.791,81.404 36.5,80.5C 37.1667,80.5 37.5,80.1667 37.5,79.5C 38.8734,79.6567 40.2068,79.49 41.5,79C 46.3959,75.0583 51.0626,70.8916 55.5,66.5C 54.675,65.6143 53.675,65.281 52.5,65.5C 52.5,64.5 52.5,63.5 52.5,62.5C 53.1515,63.0906 53.8182,63.7573 54.5,64.5C 55.086,64.2907 55.586,63.9574 56,63.5C 57.8409,59.8168 60.1742,56.4835 63,53.5C 63.4748,49.1818 64.6415,45.8484 66.5,43.5 Z"/></g>
<g><path style="opacity:1" fill="#2b2019" d="M 104.5,48.5 C 109.084,47.7928 112.75,49.2928 115.5,53C 119.043,53.1443 122.376,53.311 125.5,53.5C 123.911,55.3056 121.911,56.6389 119.5,57.5C 121.032,60.7503 122.866,61.0836 125,58.5C 125.615,60.1161 126.615,61.4495 128,62.5C 127.737,61.0494 127.904,59.7161 128.5,58.5C 130.086,60.6705 131.42,63.0038 132.5,65.5C 134.139,66.3219 135.805,66.9886 137.5,67.5C 137.5,67.8333 137.5,68.1667 137.5,68.5C 136.833,73.5 136.167,78.5 135.5,83.5C 134.662,83.1583 134.328,82.4916 134.5,81.5C 133.35,78.5727 132.35,75.5727 131.5,72.5C 130.675,71.6143 129.675,71.281 128.5,71.5C 128.5,71.1667 128.5,70.8333 128.5,70.5C 126.972,65.8004 123.805,62.4671 119,60.5C 113.788,62.4035 108.622,64.4035 103.5,66.5C 102.807,67.5178 102.141,68.5178 101.5,69.5C 99.7549,71.0326 98.7549,73.0326 98.5,75.5C 97.2632,76.9649 96.2632,78.6316 95.5,80.5C 94.4265,79.7494 94.2599,78.7494 95,77.5C 96.25,73.3925 98.4167,69.8925 101.5,67C 100.167,66 100.167,65 101.5,64C 107.106,61.5679 112.606,59.7346 118,58.5C 118.124,56.2594 116.958,54.9261 114.5,54.5C 111.314,52.1257 107.647,51.1257 103.5,51.5C 103.557,50.391 103.89,49.391 104.5,48.5 Z"/></g>
<g><path style="opacity:1" fill="#542d1a" d="M 128.5,70.5 C 123.796,68.4108 118.796,67.4108 113.5,67.5C 109.859,67.3148 106.526,67.9814 103.5,69.5C 102.833,69.5 102.167,69.5 101.5,69.5C 102.141,68.5178 102.807,67.5178 103.5,66.5C 108.622,64.4035 113.788,62.4035 119,60.5C 123.805,62.4671 126.972,65.8004 128.5,70.5 Z"/></g>
<g><path style="opacity:1" fill="#a46b40" d="M 39.5,47.5 C 40.1667,47.5 40.8333,47.5 41.5,47.5C 42.6431,47.9081 43.6431,48.5748 44.5,49.5C 41.2214,52.3965 40.7214,55.7298 43,59.5C 46.2916,60.1308 49.4583,61.1308 52.5,62.5C 52.5,63.5 52.5,64.5 52.5,65.5C 50.4969,68.4975 47.8303,70.8309 44.5,72.5C 40.498,70.1607 37.1647,67.1607 34.5,63.5C 34.4431,62.391 34.1098,61.391 33.5,60.5C 35.7892,62.0059 38.1226,63.1726 40.5,64C 37.7346,61.4039 36.0679,58.2373 35.5,54.5C 36.1174,54.6107 36.6174,54.944 37,55.5C 37.6575,52.7152 38.4909,50.0486 39.5,47.5 Z"/></g>
<g><path style="opacity:1" fill="#898782" d="M 32.5,58.5 C 33.3382,58.8417 33.6716,59.5084 33.5,60.5C 34.1098,61.391 34.4431,62.391 34.5,63.5C 32.2504,64.1302 30.2504,65.1302 28.5,66.5C 23.3735,62.7796 23.3735,61.7796 28.5,63.5C 31.0635,63.263 31.0635,62.763 28.5,62C 29.7932,61.51 31.1266,61.3433 32.5,61.5C 32.5,60.5 32.5,59.5 32.5,58.5 Z"/></g>
<g><path style="opacity:1" fill="#dcdbcf" d="M 37.5,70.5 C 42.2845,72.7056 42.6178,75.3723 38.5,78.5C 36.9522,77.2057 34.9522,76.5391 32.5,76.5C 21.2475,78.2661 10.2475,80.5994 -0.5,83.5C -0.5,80.5 -0.5,77.5 -0.5,74.5C 0.403972,73.791 0.737305,72.791 0.5,71.5C 6.46282,69.9096 12.4628,68.243 18.5,66.5C 19.5,66.6667 20.5,66.8333 21.5,67C 20.0257,68.3161 18.359,69.3161 16.5,70C 20.1349,69.9448 23.6349,69.1115 27,67.5C 30.2309,69.1854 33.7309,70.1854 37.5,70.5 Z"/></g>
<g><path style="opacity:1" fill="#b77c50" d="M 120.5,71.5 C 117.653,71.7824 114.987,71.7824 112.5,71.5C 111.803,73.3845 110.803,73.7178 109.5,72.5C 108.059,73.8651 106.726,75.3651 105.5,77C 104.333,77.1667 103.167,77.3333 102,77.5C 100.319,77.3917 99.1522,76.7251 98.5,75.5C 98.7549,73.0326 99.7549,71.0326 101.5,69.5C 102.167,69.5 102.833,69.5 103.5,69.5C 110.246,68.3458 116.913,68.8458 123.5,71C 122.552,71.4828 121.552,71.6495 120.5,71.5 Z"/></g>
<g><path style="opacity:1" fill="#9e613b" d="M 128.5,70.5 C 128.5,70.8333 128.5,71.1667 128.5,71.5C 132.616,81.2128 131.616,81.7128 125.5,73C 123.618,72.8019 121.952,72.3019 120.5,71.5C 121.552,71.6495 122.552,71.4828 123.5,71C 116.913,68.8458 110.246,68.3458 103.5,69.5C 106.526,67.9814 109.859,67.3148 113.5,67.5C 118.796,67.4108 123.796,68.4108 128.5,70.5 Z"/></g>
<g><path style="opacity:1" fill="#625f5c" d="M 34.5,63.5 C 37.1647,67.1607 40.498,70.1607 44.5,72.5C 47.8303,70.8309 50.4969,68.4975 52.5,65.5C 53.675,65.281 54.675,65.6143 55.5,66.5C 51.0626,70.8916 46.3959,75.0583 41.5,79C 40.2068,79.49 38.8734,79.6567 37.5,79.5C 37.5,78.8333 37.8333,78.5 38.5,78.5C 42.6178,75.3723 42.2845,72.7056 37.5,70.5C 37.0472,69.5416 36.3805,68.7083 35.5,68C 33.0796,67.7096 30.7463,67.2096 28.5,66.5C 30.2504,65.1302 32.2504,64.1302 34.5,63.5 Z"/></g>
<g><path style="opacity:1" fill="#858482" d="M 80.5,60.5 C 81.5923,63.0237 82.9257,65.357 84.5,67.5C 82.5,69.8333 80.5,72.1667 78.5,74.5C 74.4242,77.9154 70.0908,80.9154 65.5,83.5C 65.6309,82.6236 65.2975,81.9569 64.5,81.5C 62.0554,82.3124 59.7221,83.3124 57.5,84.5C 57.44,83.9569 57.1067,83.6236 56.5,83.5C 52.2858,85.9497 47.9525,87.783 43.5,89C 46.6902,86.6356 49.6902,84.1356 52.5,81.5C 62.9067,75.9599 72.24,68.9599 80.5,60.5 Z"/></g>
<g><path style="opacity:1" fill="#382e27" d="M 137.5,68.5 C 138.737,69.9649 139.737,71.6316 140.5,73.5C 140.5,73.8333 140.5,74.1667 140.5,74.5C 140.548,77.3128 141.215,79.9795 142.5,82.5C 141.5,82.5 140.5,82.5 139.5,82.5C 140.275,84.3964 141.275,86.063 142.5,87.5C 144.485,91.4556 146.985,95.1223 150,98.5C 150.399,98.2716 150.565,97.9382 150.5,97.5C 151.167,97.5 151.5,97.8333 151.5,98.5C 151.5,99.1667 151.833,99.5 152.5,99.5C 152.833,100.167 153.167,100.833 153.5,101.5C 154.925,102.922 155.925,104.589 156.5,106.5C 155.504,106.586 154.671,106.252 154,105.5C 152.54,105.982 151.04,107.149 149.5,109C 151.421,112.018 151.754,115.185 150.5,118.5C 148.262,115.567 147.262,115.901 147.5,119.5C 145.236,114.709 141.903,110.542 137.5,107C 138.308,106.692 138.975,106.192 139.5,105.5C 136.32,100.377 132.32,95.8774 127.5,92C 131.456,92.6732 134.956,94.5065 138,97.5C 138.915,96.6721 139.581,95.6721 140,94.5C 140.941,96.7274 142.108,98.7274 143.5,100.5C 144.226,103.179 145.059,105.846 146,108.5C 146.864,104.966 146.031,101.966 143.5,99.5C 142.17,93.3984 139.503,88.0651 135.5,83.5C 136.167,78.5 136.833,73.5 137.5,68.5 Z"/></g>
<g><path style="opacity:1" fill="#eae7d5" d="M 38.5,78.5 C 37.8333,78.5 37.5,78.8333 37.5,79.5C 37.5,80.1667 37.1667,80.5 36.5,80.5C 32.8183,80.3347 29.1516,80.5014 25.5,81C 23.9336,81.6082 22.6002,82.4415 21.5,83.5C 21.5,83.8333 21.5,84.1667 21.5,84.5C 20.8333,84.8333 20.1667,85.1667 19.5,85.5C 18.7261,84.8529 17.7261,84.5195 16.5,84.5C 11.1794,85.3317 5.84605,85.9984 0.5,86.5C 0.171739,98.3453 0.505072,110.012 1.5,121.5C 1.15829,122.338 0.491622,122.672 -0.5,122.5C -0.5,109.5 -0.5,96.5 -0.5,83.5C 10.2475,80.5994 21.2475,78.2661 32.5,76.5C 34.9522,76.5391 36.9522,77.2057 38.5,78.5 Z"/></g>
<g><path style="opacity:1" fill="#3d332c" d="M 69.5,101.5 C 68.0852,99.6556 66.4185,98.9889 64.5,99.5C 67.3557,97.478 69.689,94.978 71.5,92C 71.0019,90.8419 70.1685,90.0085 69,89.5C 66.9814,91.8508 64.6481,93.8508 62,95.5C 60.0624,94.1398 58.3957,94.4732 57,96.5C 56.7207,94.5878 57.5541,93.2544 59.5,92.5C 59.4346,92.9382 59.6012,93.2716 60,93.5C 61.6374,91.1898 63.804,89.6898 66.5,89C 67.6872,87.9805 68.6872,86.8139 69.5,85.5C 68.635,84.4173 67.635,84.2506 66.5,85C 64.2968,87.3722 61.9635,89.5389 59.5,91.5C 59.5,90.8333 59.1667,90.5 58.5,90.5C 59.6935,89.7281 60.6935,88.7281 61.5,87.5C 63.1392,86.5275 64.4726,85.1942 65.5,83.5C 70.0908,80.9154 74.4242,77.9154 78.5,74.5C 79.1499,74.8039 79.8165,75.1373 80.5,75.5C 81.6667,73.8333 82.8333,72.1667 84,70.5C 84.1667,71 84.3333,71.5 84.5,72C 82.3849,77.7963 80.2183,83.6296 78,89.5C 77.1072,88.2888 76.2739,88.2888 75.5,89.5C 72.9477,93.3396 70.9477,97.3396 69.5,101.5 Z"/></g>
<g><path style="opacity:1" fill="#5e5046" d="M 120.5,71.5 C 121.952,72.3019 123.618,72.8019 125.5,73C 131.616,81.7128 132.616,81.2128 128.5,71.5C 129.675,71.281 130.675,71.6143 131.5,72.5C 132.35,75.5727 133.35,78.5727 134.5,81.5C 131.899,82.0303 129.566,82.0303 127.5,81.5C 129.192,83.3586 130.692,85.3586 132,87.5C 132.749,88.635 132.583,89.635 131.5,90.5C 130.186,89.6872 129.019,88.6872 128,87.5C 127.667,88.1667 127.333,88.8333 127,89.5C 126,88.5 125,87.5 124,86.5C 125.001,88.9085 126.168,91.4085 127.5,94C 126.975,94.6924 126.308,95.1924 125.5,95.5C 123.443,93.731 121.61,91.731 120,89.5C 117.448,95.6832 114.115,96.0166 110,90.5C 110.591,93.3876 111.591,96.0543 113,98.5C 109.479,95.1444 106.979,91.1444 105.5,86.5C 104.41,84.997 103.243,84.6637 102,85.5C 101.701,82.2018 100.867,81.8685 99.5,84.5C 99.1667,86.5 98.8333,88.5 98.5,90.5C 97.7784,90.9175 97.2784,91.5842 97,92.5C 96.6667,89.8333 96.3333,87.1667 96,84.5C 94.9823,85.7059 94.4823,85.3726 94.5,83.5C 94.685,82.4163 95.0183,81.4163 95.5,80.5C 96.2632,78.6316 97.2632,76.9649 98.5,75.5C 99.1522,76.7251 100.319,77.3917 102,77.5C 103.167,77.3333 104.333,77.1667 105.5,77C 106.726,75.3651 108.059,73.8651 109.5,72.5C 110.803,73.7178 111.803,73.3845 112.5,71.5C 114.987,71.7824 117.653,71.7824 120.5,71.5 Z"/></g>
<g><path style="opacity:1" fill="#473914" d="M 142.5,76.5 C 143.966,77.347 144.8,78.6803 145,80.5C 145.497,83.146 145.664,85.8127 145.5,88.5C 144.662,88.1583 144.328,87.4916 144.5,86.5C 144.309,83.0173 143.643,79.6839 142.5,76.5 Z"/></g>
<g><path style="opacity:1" fill="#796618" d="M 32.5,81.5 C 32.8333,81.5 33.1667,81.5 33.5,81.5C 33.5,82.1667 33.8333,82.5 34.5,82.5C 34.2785,84.6636 33.2785,86.3303 31.5,87.5C 30.8761,87.0831 30.5427,86.4164 30.5,85.5C 31.2255,84.1331 31.8921,82.7997 32.5,81.5 Z"/></g>
<g><path style="opacity:1" fill="#68645e" d="M 140.5,74.5 C 141.167,75.1667 141.833,75.8333 142.5,76.5C 143.643,79.6839 144.309,83.0173 144.5,86.5C 143.508,86.3284 142.842,86.6618 142.5,87.5C 141.275,86.063 140.275,84.3964 139.5,82.5C 140.5,82.5 141.5,82.5 142.5,82.5C 141.215,79.9795 140.548,77.3128 140.5,74.5 Z"/></g>
<g><path style="opacity:1" fill="#554c45" d="M 46.5,80.5 C 44.1663,83.6662 41.3329,86.3329 38,88.5C 37.3333,89.1667 37.3333,89.8333 38,90.5C 38.7175,89.5494 39.5509,89.3828 40.5,90C 39.3066,91.0946 37.9733,91.928 36.5,92.5C 35.0937,92.0269 34.427,91.0269 34.5,89.5C 36.4121,87.3428 38.0787,85.0094 39.5,82.5C 44.8143,78.19 50.1476,73.8567 55.5,69.5C 55.8333,69.8333 56.1667,70.1667 56.5,70.5C 52.8123,73.521 49.4789,76.8544 46.5,80.5 Z"/></g>
<g><path style="opacity:1" fill="#b5bec3" d="M 65.5,83.5 C 64.4726,85.1942 63.1392,86.5275 61.5,87.5C 56.8333,89.5 52.1667,91.5 47.5,93.5C 47.2965,91.6096 47.9632,90.1096 49.5,89C 52.0321,87.2347 54.6987,85.7347 57.5,84.5C 59.7221,83.3124 62.0554,82.3124 64.5,81.5C 65.2975,81.9569 65.6309,82.6236 65.5,83.5 Z"/></g>
<g><path style="opacity:1" fill="#958334" d="M 140.5,74.5 C 140.5,74.1667 140.5,73.8333 140.5,73.5C 142.918,74.7031 144.918,76.3697 146.5,78.5C 147.58,81.7431 147.747,85.0764 147,88.5C 146.31,89.7383 145.81,89.7383 145.5,88.5C 145.664,85.8127 145.497,83.146 145,80.5C 144.8,78.6803 143.966,77.347 142.5,76.5C 141.833,75.8333 141.167,75.1667 140.5,74.5 Z"/></g>
<g><path style="opacity:1" fill="#bbc3c2" d="M 254.5,122.5 C 254.5,123.167 254.5,123.833 254.5,124.5C 254.5,125.167 254.167,125.5 253.5,125.5C 249.404,127.28 245.071,127.946 240.5,127.5C 232.981,121.841 224.647,117.674 215.5,115C 204.516,108.344 192.85,103.011 180.5,99C 176.179,98.501 171.846,98.3343 167.5,98.5C 161.64,96.6842 155.64,95.8508 149.5,96C 150.056,96.3826 150.389,96.8826 150.5,97.5C 150.565,97.9382 150.399,98.2716 150,98.5C 146.985,95.1223 144.485,91.4556 142.5,87.5C 142.842,86.6618 143.508,86.3284 144.5,86.5C 144.328,87.4916 144.662,88.1583 145.5,88.5C 145.81,89.7383 146.31,89.7383 147,88.5C 147.747,85.0764 147.58,81.7431 146.5,78.5C 146.843,76.7748 147.843,76.2748 149.5,77C 158.29,82.5666 167.29,87.9 176.5,93C 199.498,97.8413 220.832,106.508 240.5,119C 244.803,121.653 249.469,122.82 254.5,122.5 Z"/></g>
<g><path style="opacity:1" fill="#a1acaf" d="M 254.5,107.5 C 254.232,109.099 254.566,110.432 255.5,111.5C 255.5,115.833 255.5,120.167 255.5,124.5C 255.167,124.5 254.833,124.5 254.5,124.5C 254.5,123.833 254.5,123.167 254.5,122.5C 254.5,120.5 254.5,118.5 254.5,116.5C 252.201,115.862 250.034,114.862 248,113.5C 247.667,113.833 247.333,114.167 247,114.5C 244.693,113.167 242.859,111.334 241.5,109C 231.017,102.748 220.35,97.748 209.5,94C 198.497,92.1945 187.663,89.6945 177,86.5C 164.057,79.515 152.224,71.8483 141.5,63.5C 139.834,61.8132 138.5,59.8132 137.5,57.5C 138.167,57.1667 138.833,56.8333 139.5,56.5C 138.873,55.5832 138.539,54.5832 138.5,53.5C 149.86,62.8629 162.526,71.3629 176.5,79C 189.623,82.2591 203.29,85.5924 217.5,89C 230.139,94.6527 242.472,100.819 254.5,107.5 Z"/></g>
<g><path style="opacity:1" fill="#cbc38b" d="M 36.5,80.5 C 35.791,81.404 34.791,81.7373 33.5,81.5C 33.1667,81.5 32.8333,81.5 32.5,81.5C 27.719,81.1666 26.3857,83.1666 28.5,87.5C 28.2648,88.0967 27.7648,88.4301 27,88.5C 24.7597,87.1551 22.9264,85.4884 21.5,83.5C 22.6002,82.4415 23.9336,81.6082 25.5,81C 29.1516,80.5014 32.8183,80.3347 36.5,80.5 Z"/></g>
<g><path style="opacity:1" fill="#1d2117" d="M 39.5,82.5 C 38.0787,85.0094 36.4121,87.3428 34.5,89.5C 32.9731,89.573 31.9731,88.9063 31.5,87.5C 33.2785,86.3303 34.2785,84.6636 34.5,82.5C 36.4752,82.1778 38.1418,82.1778 39.5,82.5 Z"/></g>
<g><path style="opacity:1" fill="#707272" d="M 59.5,92.5 C 59.5,92.1667 59.5,91.8333 59.5,91.5C 61.9635,89.5389 64.2968,87.3722 66.5,85C 67.635,84.2506 68.635,84.4173 69.5,85.5C 68.6872,86.8139 67.6872,87.9805 66.5,89C 63.804,89.6898 61.6374,91.1898 60,93.5C 59.6012,93.2716 59.4346,92.9382 59.5,92.5 Z"/></g>
<g><path style="opacity:1" fill="#b8b064" d="M 21.5,83.5 C 22.9264,85.4884 24.7597,87.1551 27,88.5C 27.7648,88.4301 28.2648,88.0967 28.5,87.5C 31.0118,90.1132 33.0118,92.6132 34.5,95C 33.2625,95.2321 32.2625,95.7321 31.5,96.5C 27.4497,93.1147 24.1164,89.1147 21.5,84.5C 21.5,84.1667 21.5,83.8333 21.5,83.5 Z"/></g>
<g><path style="opacity:1" fill="#fbfbe5" d="M 19.5,85.5 C 17.4284,95.7284 15.7617,106.062 14.5,116.5C 14.1667,117.167 13.8333,117.833 13.5,118.5C 13.1667,118.5 12.8333,118.5 12.5,118.5C 10.6943,119.024 9.02763,119.691 7.5,120.5C 6.20895,120.263 5.20895,120.596 4.5,121.5C 3.5,121.5 2.5,121.5 1.5,121.5C 0.505072,110.012 0.171739,98.3453 0.5,86.5C 5.84605,85.9984 11.1794,85.3317 16.5,84.5C 17.7261,84.5195 18.7261,84.8529 19.5,85.5 Z"/></g>
<g><path style="opacity:1" fill="#706d67" d="M 52.5,81.5 C 49.6902,84.1356 46.6902,86.6356 43.5,89C 47.9525,87.783 52.2858,85.9497 56.5,83.5C 57.1067,83.6236 57.44,83.9569 57.5,84.5C 54.6987,85.7347 52.0321,87.2347 49.5,89C 47.9632,90.1096 47.2965,91.6096 47.5,93.5C 52.1667,91.5 56.8333,89.5 61.5,87.5C 60.6935,88.7281 59.6935,89.7281 58.5,90.5C 53.5315,93.4775 48.8648,96.8108 44.5,100.5C 43.1667,99.8333 42.1667,98.8333 41.5,97.5C 43.1139,95.5441 44.7806,93.5441 46.5,91.5C 43.0396,90.2253 40.3729,91.2253 38.5,94.5C 37.5,94.1667 36.8333,93.5 36.5,92.5C 37.9733,91.928 39.3066,91.0946 40.5,90C 39.5509,89.3828 38.7175,89.5494 38,90.5C 37.3333,89.8333 37.3333,89.1667 38,88.5C 41.3329,86.3329 44.1663,83.6662 46.5,80.5C 48.3936,79.9524 50.0603,78.9524 51.5,77.5C 51.8692,78.8506 52.2025,80.184 52.5,81.5 Z"/></g>
<g><path style="opacity:1" fill="#b7a743" d="M 32.5,81.5 C 31.8921,82.7997 31.2255,84.1331 30.5,85.5C 30.5427,86.4164 30.8761,87.0831 31.5,87.5C 31.9731,88.9063 32.9731,89.573 34.5,89.5C 34.427,91.0269 35.0937,92.0269 36.5,92.5C 36.8333,93.5 37.5,94.1667 38.5,94.5C 39.1667,95.8333 40.1667,96.8333 41.5,97.5C 42.1667,98.8333 43.1667,99.8333 44.5,100.5C 45.8333,102.167 47.1667,103.833 48.5,105.5C 45.9325,106.232 43.2658,106.232 40.5,105.5C 37.7279,102.306 34.7279,99.3063 31.5,96.5C 32.2625,95.7321 33.2625,95.2321 34.5,95C 33.0118,92.6132 31.0118,90.1132 28.5,87.5C 26.3857,83.1666 27.719,81.1666 32.5,81.5 Z"/></g>
<g><path style="opacity:1" fill="#524d3b" d="M 41.5,97.5 C 40.1667,96.8333 39.1667,95.8333 38.5,94.5C 40.3729,91.2253 43.0396,90.2253 46.5,91.5C 44.7806,93.5441 43.1139,95.5441 41.5,97.5 Z"/></g>
<g><path style="opacity:1" fill="#52463d" d="M 94.5,61.5 C 89.0258,68.5846 85.6924,76.5846 84.5,85.5C 84.6621,87.5273 84.4955,89.5273 84,91.5C 80.8269,97.8468 78.4935,104.513 77,111.5C 76.8333,111 76.6667,110.5 76.5,110C 77.6948,101.897 79.5281,94.0636 82,86.5C 80.076,90.0171 78.4094,93.6837 77,97.5C 76.6115,102.718 75.4449,107.718 73.5,112.5C 71.0155,111.036 71.0155,109.369 73.5,107.5C 73.1667,107.167 72.8333,106.833 72.5,106.5C 70.9991,107.752 69.3325,108.752 67.5,109.5C 67.4827,108.606 67.1494,107.606 66.5,106.5C 67.925,105.078 68.925,103.411 69.5,101.5C 70.9477,97.3396 72.9477,93.3396 75.5,89.5C 76.2739,88.2888 77.1072,88.2888 78,89.5C 80.2183,83.6296 82.3849,77.7963 84.5,72C 84.3333,71.5 84.1667,71 84,70.5C 82.8333,72.1667 81.6667,73.8333 80.5,75.5C 79.8165,75.1373 79.1499,74.8039 78.5,74.5C 80.5,72.1667 82.5,69.8333 84.5,67.5C 85.7777,67.2178 86.7777,66.5511 87.5,65.5C 89.081,62.9322 91.4143,61.5989 94.5,61.5 Z"/></g>
<g><path style="opacity:1" fill="#379dbd" d="M 21.5,84.5 C 24.1164,89.1147 27.4497,93.1147 31.5,96.5C 34.7279,99.3063 37.7279,102.306 40.5,105.5C 40.5,105.833 40.5,106.167 40.5,106.5C 36.8887,105.693 33.8887,103.86 31.5,101C 29.8333,100.333 28.1667,100.333 26.5,101C 22.3516,105.473 19.5182,110.639 18,116.5C 17.0138,115.829 15.8471,115.829 14.5,116.5C 15.7617,106.062 17.4284,95.7284 19.5,85.5C 20.1667,85.1667 20.8333,84.8333 21.5,84.5 Z"/></g>
<g><path style="opacity:1" fill="#725d0f" d="M 167.5,98.5 C 167.842,99.3382 168.508,99.6716 169.5,99.5C 171.222,101.45 173.388,102.783 176,103.5C 176.678,106.303 177.844,108.803 179.5,111C 177.518,113.081 176.184,115.581 175.5,118.5C 175.709,119.086 176.043,119.586 176.5,120C 175.244,120.417 174.577,121.25 174.5,122.5C 173.513,124.551 172.18,126.218 170.5,127.5C 171.633,123.433 172.967,119.433 174.5,115.5C 176.967,112.184 176.634,109.017 173.5,106C 173.833,105.667 174.167,105.333 174.5,105C 172.5,104.333 170.5,103.667 168.5,103C 169.634,101.984 169.301,101.317 167.5,101C 162.314,99.2154 156.98,98.3821 151.5,98.5C 151.5,97.8333 151.167,97.5 150.5,97.5C 150.389,96.8826 150.056,96.3826 149.5,96C 155.64,95.8508 161.64,96.6842 167.5,98.5 Z"/></g>
<g><path style="opacity:1" fill="#1f1912" d="M 69.5,101.5 C 68.925,103.411 67.925,105.078 66.5,106.5C 63.8112,108.11 60.8112,108.943 57.5,109C 56.244,109.417 55.5774,110.25 55.5,111.5C 53.1667,109.5 50.8333,107.5 48.5,105.5C 47.1667,103.833 45.8333,102.167 44.5,100.5C 48.8648,96.8108 53.5315,93.4775 58.5,90.5C 59.1667,90.5 59.5,90.8333 59.5,91.5C 59.5,91.8333 59.5,92.1667 59.5,92.5C 57.5541,93.2544 56.7207,94.5878 57,96.5C 58.3957,94.4732 60.0624,94.1398 62,95.5C 64.6481,93.8508 66.9814,91.8508 69,89.5C 70.1685,90.0085 71.0019,90.8419 71.5,92C 69.689,94.978 67.3557,97.478 64.5,99.5C 66.4185,98.9889 68.0852,99.6556 69.5,101.5 Z"/></g>
<g><path style="opacity:1" fill="#564308" d="M 151.5,98.5 C 156.98,98.3821 162.314,99.2154 167.5,101C 169.301,101.317 169.634,101.984 168.5,103C 170.5,103.667 172.5,104.333 174.5,105C 174.167,105.333 173.833,105.667 173.5,106C 176.634,109.017 176.967,112.184 174.5,115.5C 174.839,108.332 171.505,103.832 164.5,102C 160.553,100.846 156.553,100.013 152.5,99.5C 151.833,99.5 151.5,99.1667 151.5,98.5 Z"/></g>
<g><path style="opacity:1" fill="#3b322b" d="M 138.5,118.5 C 135.994,117.25 133.327,116.584 130.5,116.5C 122.37,112.385 115.036,107.052 108.5,100.5C 111.545,99.6336 114.378,100.3 117,102.5C 117.507,101.004 117.007,99.8373 115.5,99C 117.471,98.9856 119.471,99.3189 121.5,100C 127.398,105.734 133.731,110.901 140.5,115.5C 139.738,115.911 138.738,116.077 137.5,116C 138.252,116.671 138.586,117.504 138.5,118.5 Z"/></g>
<g><path style="opacity:1" fill="#443931" d="M 114.5,54.5 C 116.958,54.9261 118.124,56.2594 118,58.5C 112.606,59.7346 107.106,61.5679 101.5,64C 100.167,65 100.167,66 101.5,67C 98.4167,69.8925 96.25,73.3925 95,77.5C 94.2599,78.7494 94.4265,79.7494 95.5,80.5C 95.0183,81.4163 94.685,82.4163 94.5,83.5C 94.4823,85.3726 94.9823,85.7059 96,84.5C 96.3333,87.1667 96.6667,89.8333 97,92.5C 97.2784,91.5842 97.7784,90.9175 98.5,90.5C 98.1399,100.254 98.1399,109.921 98.5,119.5C 98.8333,120.167 99.1667,120.833 99.5,121.5C 99.631,122.239 99.4643,122.906 99,123.5C 98,122.167 97,122.167 96,123.5C 94.9614,122.756 94.4614,121.756 94.5,120.5C 94.4431,119.391 94.1098,118.391 93.5,117.5C 92.1953,112.691 92.1953,107.857 93.5,103C 93.3333,102.167 93.1667,101.333 93,100.5C 92.6667,100.833 92.3333,101.167 92,101.5C 91.6667,97.5 91.3333,93.5 91,89.5C 90.1779,91.7885 89.5112,94.1218 89,96.5C 88.6667,94.5 88.3333,92.5 88,90.5C 87.0124,93.4245 86.3457,96.4245 86,99.5C 85.8255,94.6486 85.3255,89.9819 84.5,85.5C 85.6924,76.5846 89.0258,68.5846 94.5,61.5C 101.907,60.7736 108.574,58.4403 114.5,54.5 Z"/></g>
<g><path style="opacity:1" fill="#218cb0" d="M 40.5,106.5 C 40.8333,106.5 41.1667,106.5 41.5,106.5C 41.631,107.239 41.4643,107.906 41,108.5C 38.0496,107.608 35.3829,106.275 33,104.5C 28.6747,109.329 24.508,114.329 20.5,119.5C 19.9724,121.336 19.3058,123.003 18.5,124.5C 16.823,122.46 15.1563,120.46 13.5,118.5C 13.8333,117.833 14.1667,117.167 14.5,116.5C 15.8471,115.829 17.0138,115.829 18,116.5C 19.5182,110.639 22.3516,105.473 26.5,101C 28.1667,100.333 29.8333,100.333 31.5,101C 33.8887,103.86 36.8887,105.693 40.5,106.5 Z"/></g>
<g><path style="opacity:1" fill="#4a3f38" d="M 134.5,81.5 C 134.328,82.4916 134.662,83.1583 135.5,83.5C 139.503,88.0651 142.17,93.3984 143.5,99.5C 143.5,99.8333 143.5,100.167 143.5,100.5C 142.108,98.7274 140.941,96.7274 140,94.5C 139.581,95.6721 138.915,96.6721 138,97.5C 134.956,94.5065 131.456,92.6732 127.5,92C 132.32,95.8774 136.32,100.377 139.5,105.5C 138.975,106.192 138.308,106.692 137.5,107C 141.903,110.542 145.236,114.709 147.5,119.5C 147.833,120.833 148.167,122.167 148.5,123.5C 147.143,124.59 146.143,125.924 145.5,127.5C 145.723,122.4 143.389,119.4 138.5,118.5C 138.586,117.504 138.252,116.671 137.5,116C 138.738,116.077 139.738,115.911 140.5,115.5C 133.731,110.901 127.398,105.734 121.5,100C 119.471,99.3189 117.471,98.9856 115.5,99C 117.007,99.8373 117.507,101.004 117,102.5C 114.378,100.3 111.545,99.6336 108.5,100.5C 107.093,98.6917 105.926,96.6917 105,94.5C 104.259,93.3595 103.425,93.3595 102.5,94.5C 101.487,91.0468 100.487,87.7135 99.5,84.5C 100.867,81.8685 101.701,82.2018 102,85.5C 103.243,84.6637 104.41,84.997 105.5,86.5C 106.979,91.1444 109.479,95.1444 113,98.5C 111.591,96.0543 110.591,93.3876 110,90.5C 114.115,96.0166 117.448,95.6832 120,89.5C 121.61,91.731 123.443,93.731 125.5,95.5C 126.308,95.1924 126.975,94.6924 127.5,94C 126.168,91.4085 125.001,88.9085 124,86.5C 125,87.5 126,88.5 127,89.5C 127.333,88.8333 127.667,88.1667 128,87.5C 129.019,88.6872 130.186,89.6872 131.5,90.5C 132.583,89.635 132.749,88.635 132,87.5C 130.692,85.3586 129.192,83.3586 127.5,81.5C 129.566,82.0303 131.899,82.0303 134.5,81.5 Z"/></g>
<g><path style="opacity:1" fill="#807d79" d="M 143.5,99.5 C 146.031,101.966 146.864,104.966 146,108.5C 145.059,105.846 144.226,103.179 143.5,100.5C 143.5,100.167 143.5,99.8333 143.5,99.5 Z"/></g>
<g><path style="opacity:1" fill="#28201a" d="M 99.5,84.5 C 100.487,87.7135 101.487,91.0468 102.5,94.5C 103.425,93.3595 104.259,93.3595 105,94.5C 105.926,96.6917 107.093,98.6917 108.5,100.5C 115.036,107.052 122.37,112.385 130.5,116.5C 119.259,117.234 109.425,113.9 101,106.5C 100.516,108.193 101.016,109.527 102.5,110.5C 101.5,110.5 100.5,110.5 99.5,110.5C 99.81,113.713 99.4767,116.713 98.5,119.5C 98.1399,109.921 98.1399,100.254 98.5,90.5C 98.8333,88.5 99.1667,86.5 99.5,84.5 Z"/></g>
<g><path style="opacity:1" fill="#081e19" d="M 153.5,101.5 C 160.142,101.946 165.976,104.279 171,108.5C 173.285,115.001 172.452,121.001 168.5,126.5C 167.01,123.108 164.343,121.774 160.5,122.5C 160.5,119.167 160.5,115.833 160.5,112.5C 160.155,109.802 158.822,107.802 156.5,106.5C 155.925,104.589 154.925,102.922 153.5,101.5 Z"/></g>
<g><path style="opacity:1" fill="#aeb7b8" d="M 135.5,56.5 C 136.502,60.6701 138.002,64.6701 140,68.5C 141.269,67.0953 141.769,65.4286 141.5,63.5C 152.224,71.8483 164.057,79.515 177,86.5C 187.663,89.6945 198.497,92.1945 209.5,94C 220.35,97.748 231.017,102.748 241.5,109C 242.859,111.334 244.693,113.167 247,114.5C 247.333,114.167 247.667,113.833 248,113.5C 250.034,114.862 252.201,115.862 254.5,116.5C 254.5,118.5 254.5,120.5 254.5,122.5C 249.469,122.82 244.803,121.653 240.5,119C 220.832,106.508 199.498,97.8413 176.5,93C 167.29,87.9 158.29,82.5666 149.5,77C 147.843,76.2748 146.843,76.7748 146.5,78.5C 144.918,76.3697 142.918,74.7031 140.5,73.5C 139.737,71.6316 138.737,69.9649 137.5,68.5C 137.5,68.1667 137.5,67.8333 137.5,67.5C 136.797,63.091 134.797,59.4243 131.5,56.5C 132.239,56.631 132.906,56.4643 133.5,56C 131.935,54.1292 131.269,52.2959 131.5,50.5C 132.857,52.5654 134.19,54.5654 135.5,56.5 Z"/></g>
<g><path style="opacity:1" fill="#c5ccc7" d="M 167.5,98.5 C 171.846,98.3343 176.179,98.501 180.5,99C 192.85,103.011 204.516,108.344 215.5,115C 224.647,117.674 232.981,121.841 240.5,127.5C 238.823,129.54 237.156,131.54 235.5,133.5C 228.904,130.023 221.904,127.857 214.5,127C 212.105,124.31 209.105,122.643 205.5,122C 199.996,115.938 193.496,111.104 186,107.5C 185.235,107.57 184.735,107.903 184.5,108.5C 180.589,103.71 175.589,100.71 169.5,99.5C 168.508,99.6716 167.842,99.3382 167.5,98.5 Z"/></g>
<g><path style="opacity:1" fill="#a08e33" d="M 40.5,106.5 C 40.5,106.167 40.5,105.833 40.5,105.5C 43.2658,106.232 45.9325,106.232 48.5,105.5C 50.8333,107.5 53.1667,109.5 55.5,111.5C 56.1667,112.833 57.1667,113.833 58.5,114.5C 59.1667,115.5 59.8333,116.5 60.5,117.5C 57.9226,118.729 55.9226,117.895 54.5,115C 52.8455,114.392 51.1789,113.892 49.5,113.5C 46.853,111.189 44.1864,108.856 41.5,106.5C 41.1667,106.5 40.8333,106.5 40.5,106.5 Z"/></g>
<g><path style="opacity:1" fill="#342a23" d="M 84.5,85.5 C 85.3255,89.9819 85.8255,94.6486 86,99.5C 86.3457,96.4245 87.0124,93.4245 88,90.5C 88.3333,92.5 88.6667,94.5 89,96.5C 89.5112,94.1218 90.1779,91.7885 91,89.5C 91.3333,93.5 91.6667,97.5 92,101.5C 92.3333,101.167 92.6667,100.833 93,100.5C 93.1667,101.333 93.3333,102.167 93.5,103C 92.1953,107.857 92.1953,112.691 93.5,117.5C 88.7599,115.156 83.7599,114.49 78.5,115.5C 77.3049,113.703 75.6382,112.703 73.5,112.5C 75.4449,107.718 76.6115,102.718 77,97.5C 78.4094,93.6837 80.076,90.0171 82,86.5C 79.5281,94.0636 77.6948,101.897 76.5,110C 76.6667,110.5 76.8333,111 77,111.5C 78.4935,104.513 80.8269,97.8468 84,91.5C 84.4955,89.5273 84.6621,87.5273 84.5,85.5 Z"/></g>
<g><path style="opacity:1" fill="#2e1e0e" d="M 102.5,110.5 C 105.32,114.403 108.987,117.069 113.5,118.5C 113.933,123.113 115.933,126.946 119.5,130C 118.748,130.671 118.414,131.504 118.5,132.5C 118.34,134.153 117.674,135.486 116.5,136.5C 112.175,132.625 108.175,128.292 104.5,123.5C 102.925,122.544 101.258,121.877 99.5,121.5C 99.1667,120.833 98.8333,120.167 98.5,119.5C 99.4767,116.713 99.81,113.713 99.5,110.5C 100.5,110.5 101.5,110.5 102.5,110.5 Z"/></g>
<g><path style="opacity:1" fill="#99851d" d="M 169.5,99.5 C 175.589,100.71 180.589,103.71 184.5,108.5C 184.5,109.167 184.5,109.833 184.5,110.5C 184.806,113.385 184.473,116.052 183.5,118.5C 181.686,120.764 179.853,123.097 178,125.5C 176.961,124.29 175.794,123.29 174.5,122.5C 174.577,121.25 175.244,120.417 176.5,120C 176.043,119.586 175.709,119.086 175.5,118.5C 176.184,115.581 177.518,113.081 179.5,111C 177.844,108.803 176.678,106.303 176,103.5C 173.388,102.783 171.222,101.45 169.5,99.5 Z"/></g>
<g><path style="opacity:1" fill="#292119" d="M 156.5,106.5 C 158.822,107.802 160.155,109.802 160.5,112.5C 159.883,112.389 159.383,112.056 159,111.5C 158.667,113.167 158.333,114.833 158,116.5C 157.667,115.5 157.333,114.5 157,113.5C 156.259,114.641 155.425,114.641 154.5,113.5C 153.373,117.528 154.039,121.194 156.5,124.5C 155.837,126.042 155.17,127.709 154.5,129.5C 152.118,127.785 150.118,125.785 148.5,123.5C 148.167,122.167 147.833,120.833 147.5,119.5C 147.262,115.901 148.262,115.567 150.5,118.5C 151.754,115.185 151.421,112.018 149.5,109C 151.04,107.149 152.54,105.982 154,105.5C 154.671,106.252 155.504,106.586 156.5,106.5 Z"/></g>
<g><path style="opacity:1" fill="#177599" d="M 41.5,106.5 C 44.1864,108.856 46.853,111.189 49.5,113.5C 50.6005,114.605 51.2671,115.938 51.5,117.5C 47.6176,115.314 43.6176,113.314 39.5,111.5C 31.9857,115.352 26.9857,121.352 24.5,129.5C 24.0431,130.298 23.3764,130.631 22.5,130.5C 20.7745,128.772 19.4411,126.772 18.5,124.5C 19.3058,123.003 19.9724,121.336 20.5,119.5C 24.508,114.329 28.6747,109.329 33,104.5C 35.3829,106.275 38.0496,107.608 41,108.5C 41.4643,107.906 41.631,107.239 41.5,106.5 Z"/></g>
<g><path style="opacity:1" fill="#605847" d="M 70.5,114.5 C 68.9397,114.481 67.4397,114.148 66,113.5C 64.7202,113.613 63.8869,114.28 63.5,115.5C 65.1776,118.195 66.8442,120.861 68.5,123.5C 65.5691,121.909 62.9024,119.909 60.5,117.5C 59.8333,116.5 59.1667,115.5 58.5,114.5C 58.8628,112.195 60.0294,110.528 62,109.5C 64.9928,111.014 67.8261,112.681 70.5,114.5 Z"/></g>
<g><path style="opacity:1" fill="#362718" d="M 66.5,106.5 C 67.1494,107.606 67.4827,108.606 67.5,109.5C 69.3325,108.752 70.9991,107.752 72.5,106.5C 72.8333,106.833 73.1667,107.167 73.5,107.5C 71.0155,109.369 71.0155,111.036 73.5,112.5C 75.6382,112.703 77.3049,113.703 78.5,115.5C 83.7599,114.49 88.7599,115.156 93.5,117.5C 94.1098,118.391 94.4431,119.391 94.5,120.5C 91.7212,120.279 89.0545,120.612 86.5,121.5C 84.8828,120.962 83.2161,120.629 81.5,120.5C 79.0846,119.695 76.7513,118.695 74.5,117.5C 73.5637,116.026 72.2303,115.026 70.5,114.5C 67.8261,112.681 64.9928,111.014 62,109.5C 60.0294,110.528 58.8628,112.195 58.5,114.5C 57.1667,113.833 56.1667,112.833 55.5,111.5C 55.5774,110.25 56.244,109.417 57.5,109C 60.8112,108.943 63.8112,108.11 66.5,106.5 Z"/></g>
<g><path style="opacity:1" fill="#bdb8ad" d="M 74.5,117.5 C 76.7513,118.695 79.0846,119.695 81.5,120.5C 78.6965,121.638 75.6965,121.805 72.5,121C 69.8059,118.448 70.4726,117.281 74.5,117.5 Z"/></g>
<g><path style="opacity:1" fill="#0f0c07" d="M 130.5,116.5 C 133.327,116.584 135.994,117.25 138.5,118.5C 143.389,119.4 145.723,122.4 145.5,127.5C 145.5,128.167 145.5,128.833 145.5,129.5C 144.475,129.897 144.308,130.563 145,131.5C 150.182,136.394 156.349,138.394 163.5,137.5C 163.5,137.833 163.5,138.167 163.5,138.5C 162.685,139.429 161.852,140.429 161,141.5C 157.6,140.46 154.1,139.794 150.5,139.5C 149.432,138.566 148.099,138.232 146.5,138.5C 140.701,136.717 134.701,135.217 128.5,134C 126.963,132.89 126.297,131.39 126.5,129.5C 131.122,125.845 136.122,125.511 141.5,128.5C 142.843,124.808 141.51,122.474 137.5,121.5C 132.651,121.5 128.651,123.167 125.5,126.5C 125.167,126.5 124.833,126.5 124.5,126.5C 123.469,124.039 122.802,121.373 122.5,118.5C 115.133,117.48 108.466,114.813 102.5,110.5C 101.016,109.527 100.516,108.193 101,106.5C 109.425,113.9 119.259,117.234 130.5,116.5 Z"/></g>
<g><path style="opacity:1" fill="#1f5a64" d="M 152.5,99.5 C 156.553,100.013 160.553,100.846 164.5,102C 171.505,103.832 174.839,108.332 174.5,115.5C 172.967,119.433 171.633,123.433 170.5,127.5C 169.833,127.833 169.167,128.167 168.5,128.5C 168.5,127.833 168.5,127.167 168.5,126.5C 172.452,121.001 173.285,115.001 171,108.5C 165.976,104.279 160.142,101.946 153.5,101.5C 153.167,100.833 152.833,100.167 152.5,99.5 Z"/></g>
<g><path style="opacity:1" fill="#185871" d="M 184.5,110.5 C 185.479,113.625 185.813,116.958 185.5,120.5C 181.241,128.017 177.241,135.683 173.5,143.5C 172.833,143.5 172.167,143.5 171.5,143.5C 175.869,135.422 179.869,127.089 183.5,118.5C 184.473,116.052 184.806,113.385 184.5,110.5 Z"/></g>
<g><path style="opacity:1" fill="#d2d6ce" d="M 235.5,133.5 C 234.564,134.974 233.23,135.974 231.5,136.5C 229.585,136.216 227.919,136.549 226.5,137.5C 226.167,137.5 225.833,137.5 225.5,137.5C 219.637,136.325 214.303,133.992 209.5,130.5C 208.146,132.184 206.479,132.684 204.5,132C 199.167,128.454 193.667,125.287 188,122.5C 187.667,120.167 187.333,117.833 187,115.5C 186.501,120.489 186.334,125.489 186.5,130.5C 185.521,127.375 185.187,124.042 185.5,120.5C 185.813,116.958 185.479,113.625 184.5,110.5C 184.5,109.833 184.5,109.167 184.5,108.5C 184.735,107.903 185.235,107.57 186,107.5C 193.496,111.104 199.996,115.938 205.5,122C 209.105,122.643 212.105,124.31 214.5,127C 221.904,127.857 228.904,130.023 235.5,133.5 Z"/></g>
<g><path style="opacity:1" fill="#89782a" d="M 49.5,113.5 C 51.1789,113.892 52.8455,114.392 54.5,115C 55.9226,117.895 57.9226,118.729 60.5,117.5C 62.9024,119.909 65.5691,121.909 68.5,123.5C 69.1667,124.833 70.1667,125.833 71.5,126.5C 72.5274,128.194 73.8608,129.527 75.5,130.5C 75.1583,131.338 74.4916,131.672 73.5,131.5C 72.8333,131.5 72.1667,131.5 71.5,131.5C 71.1667,131.5 70.8333,131.5 70.5,131.5C 68.5414,128.452 66.2081,125.619 63.5,123C 61.0912,121.293 58.4245,120.46 55.5,120.5C 55.6716,119.508 55.3382,118.842 54.5,118.5C 53.609,117.89 52.609,117.557 51.5,117.5C 51.2671,115.938 50.6005,114.605 49.5,113.5 Z"/></g>
<g><path style="opacity:1" fill="#1c1309" d="M 102.5,110.5 C 108.466,114.813 115.133,117.48 122.5,118.5C 122.802,121.373 123.469,124.039 124.5,126.5C 122.833,128.833 120.833,130.833 118.5,132.5C 118.414,131.504 118.748,130.671 119.5,130C 115.933,126.946 113.933,123.113 113.5,118.5C 108.987,117.069 105.32,114.403 102.5,110.5 Z"/></g>
<g><path style="opacity:1" fill="#0d5c7b" d="M 51.5,117.5 C 52.609,117.557 53.609,117.89 54.5,118.5C 54.6495,119.552 54.4828,120.552 54,121.5C 51.1585,119.218 48.1585,118.218 45,118.5C 41.0486,120.95 37.5486,123.95 34.5,127.5C 33.427,131.85 31.7603,135.85 29.5,139.5C 26.925,136.681 24.5917,133.681 22.5,130.5C 23.3764,130.631 24.0431,130.298 24.5,129.5C 26.9857,121.352 31.9857,115.352 39.5,111.5C 43.6176,113.314 47.6176,115.314 51.5,117.5 Z"/></g>
<g><path style="opacity:1" fill="#625a44" d="M 89.5,124.5 C 91.385,126.053 92.385,128.053 92.5,130.5C 86.3422,124.359 79.3422,123.026 71.5,126.5C 70.1667,125.833 69.1667,124.833 68.5,123.5C 75.6305,121.961 82.6305,122.294 89.5,124.5 Z"/></g>
<g><path style="opacity:1" fill="#9c9483" d="M 70.5,114.5 C 72.2303,115.026 73.5637,116.026 74.5,117.5C 70.4726,117.281 69.8059,118.448 72.5,121C 75.6965,121.805 78.6965,121.638 81.5,120.5C 83.2161,120.629 84.8828,120.962 86.5,121.5C 87.6935,122.272 88.6935,123.272 89.5,124.5C 82.6305,122.294 75.6305,121.961 68.5,123.5C 66.8442,120.861 65.1776,118.195 63.5,115.5C 63.8869,114.28 64.7202,113.613 66,113.5C 67.4397,114.148 68.9397,114.481 70.5,114.5 Z"/></g>
<g><path style="opacity:1" fill="#08110f" d="M 160.5,112.5 C 160.5,115.833 160.5,119.167 160.5,122.5C 164.343,121.774 167.01,123.108 168.5,126.5C 168.5,127.167 168.5,127.833 168.5,128.5C 167.326,129.514 166.66,130.847 166.5,132.5C 165.883,132.611 165.383,132.944 165,133.5C 162.151,130.426 159.317,127.426 156.5,124.5C 154.039,121.194 153.373,117.528 154.5,113.5C 155.425,114.641 156.259,114.641 157,113.5C 157.333,114.5 157.667,115.5 158,116.5C 158.333,114.833 158.667,113.167 159,111.5C 159.383,112.056 159.883,112.389 160.5,112.5 Z"/></g>
<g><path style="opacity:1" fill="#e1e2d6" d="M 225.5,137.5 C 224.471,139.517 223.471,141.517 222.5,143.5C 219.833,143.5 217.167,143.5 214.5,143.5C 210.565,141.533 206.565,139.533 202.5,137.5C 197.09,135.148 191.756,132.815 186.5,130.5C 186.334,125.489 186.501,120.489 187,115.5C 187.333,117.833 187.667,120.167 188,122.5C 193.667,125.287 199.167,128.454 204.5,132C 206.479,132.684 208.146,132.184 209.5,130.5C 214.303,133.992 219.637,136.325 225.5,137.5 Z"/></g>
<g><path style="opacity:1" fill="#4b9bb3" d="M 1.5,121.5 C 2.5,121.5 3.5,121.5 4.5,121.5C 4.22829,124.732 2.56163,126.732 -0.5,127.5C -0.5,125.833 -0.5,124.167 -0.5,122.5C 0.491622,122.672 1.15829,122.338 1.5,121.5 Z"/></g>
<g><path style="opacity:1" fill="#4294ad" d="M 12.5,118.5 C 13.7064,123.243 15.7064,127.577 18.5,131.5C 14.1161,131.826 9.7828,131.492 5.5,130.5C 7.36313,128.107 8.69647,125.44 9.5,122.5C 9.25284,121.287 8.58617,120.62 7.5,120.5C 9.02763,119.691 10.6943,119.024 12.5,118.5 Z"/></g>
<g><path style="opacity:1" fill="#0b475f" d="M 54.5,118.5 C 55.3382,118.842 55.6716,119.508 55.5,120.5C 56.6002,121.558 57.9336,122.392 59.5,123C 60.2524,123.671 60.5858,124.504 60.5,125.5C 58.3581,125.69 56.0248,125.856 53.5,126C 53.9574,126.414 54.2907,126.914 54.5,127.5C 53.2048,129.328 52.2048,131.328 51.5,133.5C 49.0843,132.681 48.9176,133.348 51,135.5C 51.8928,134.289 52.7261,134.289 53.5,135.5C 52.3717,136.262 51.2051,136.929 50,137.5C 48.3498,137.068 46.8498,135.735 45.5,133.5C 43.0748,135.145 40.4081,136.311 37.5,137C 36.1495,139.264 34.4828,141.098 32.5,142.5C 31.1667,141.833 30.1667,140.833 29.5,139.5C 31.7603,135.85 33.427,131.85 34.5,127.5C 37.5486,123.95 41.0486,120.95 45,118.5C 48.1585,118.218 51.1585,119.218 54,121.5C 54.4828,120.552 54.6495,119.552 54.5,118.5 Z"/></g>
<g><path style="opacity:1" fill="#50493a" d="M 126.5,129.5 C 126.737,128.209 126.404,127.209 125.5,126.5C 128.651,123.167 132.651,121.5 137.5,121.5C 141.51,122.474 142.843,124.808 141.5,128.5C 136.122,125.511 131.122,125.845 126.5,129.5 Z"/></g>
<g><path style="opacity:1" fill="#093b4f" d="M 60.5,125.5 C 61.766,126.09 63.0993,126.59 64.5,127C 64.8333,128 65.1667,129 65.5,130C 67.1545,130.608 68.8211,131.108 70.5,131.5C 70.8333,131.5 71.1667,131.5 71.5,131.5C 71.281,132.675 71.6143,133.675 72.5,134.5C 76.4237,137.352 80.4237,140.019 84.5,142.5C 85.4916,142.328 86.1583,142.662 86.5,143.5C 68.5,143.5 50.5,143.5 32.5,143.5C 32.5,143.167 32.5,142.833 32.5,142.5C 34.4828,141.098 36.1495,139.264 37.5,137C 40.4081,136.311 43.0748,135.145 45.5,133.5C 46.8498,135.735 48.3498,137.068 50,137.5C 51.2051,136.929 52.3717,136.262 53.5,135.5C 52.7261,134.289 51.8928,134.289 51,135.5C 48.9176,133.348 49.0843,132.681 51.5,133.5C 52.2048,131.328 53.2048,129.328 54.5,127.5C 54.2907,126.914 53.9574,126.414 53.5,126C 56.0248,125.856 58.3581,125.69 60.5,125.5 Z"/></g>
<g><path style="opacity:1" fill="#574d1b" d="M 55.5,120.5 C 58.4245,120.46 61.0912,121.293 63.5,123C 66.2081,125.619 68.5414,128.452 70.5,131.5C 68.8211,131.108 67.1545,130.608 65.5,130C 65.1667,129 64.8333,128 64.5,127C 63.0993,126.59 61.766,126.09 60.5,125.5C 60.5858,124.504 60.2524,123.671 59.5,123C 57.9336,122.392 56.6002,121.558 55.5,120.5 Z"/></g>
<g><path style="opacity:1" fill="#8c791b" d="M 183.5,118.5 C 179.869,127.089 175.869,135.422 171.5,143.5C 168.167,143.5 164.833,143.5 161.5,143.5C 162.942,142.18 163.608,140.514 163.5,138.5C 165.539,137.089 166.539,135.089 166.5,132.5C 168.104,131.713 168.771,130.38 168.5,128.5C 169.167,128.167 169.833,127.833 170.5,127.5C 172.18,126.218 173.513,124.551 174.5,122.5C 175.794,123.29 176.961,124.29 178,125.5C 179.853,123.097 181.686,120.764 183.5,118.5 Z"/></g>
<g><path style="opacity:1" fill="#8b8678" d="M 89.5,124.5 C 96.8788,129.545 102.879,135.878 107.5,143.5C 106.5,143.5 105.5,143.5 104.5,143.5C 101.208,138.54 97.2077,134.207 92.5,130.5C 92.385,128.053 91.385,126.053 89.5,124.5 Z"/></g>
<g><path style="opacity:1" fill="#462d16" d="M 94.5,120.5 C 94.4614,121.756 94.9614,122.756 96,123.5C 97,122.167 98,122.167 99,123.5C 99.4643,122.906 99.631,122.239 99.5,121.5C 101.258,121.877 102.925,122.544 104.5,123.5C 108.175,128.292 112.175,132.625 116.5,136.5C 115.061,138.588 114.394,140.921 114.5,143.5C 112.167,143.5 109.833,143.5 107.5,143.5C 102.879,135.878 96.8788,129.545 89.5,124.5C 88.6935,123.272 87.6935,122.272 86.5,121.5C 89.0545,120.612 91.7212,120.279 94.5,120.5 Z"/></g>
<g><path style="opacity:1" fill="#78705d" d="M 148.5,123.5 C 150.118,125.785 152.118,127.785 154.5,129.5C 155.17,127.709 155.837,126.042 156.5,124.5C 159.317,127.426 162.151,130.426 165,133.5C 165.383,132.944 165.883,132.611 166.5,132.5C 166.539,135.089 165.539,137.089 163.5,138.5C 163.5,138.167 163.5,137.833 163.5,137.5C 156.948,136.2 150.948,133.533 145.5,129.5C 145.5,128.833 145.5,128.167 145.5,127.5C 146.143,125.924 147.143,124.59 148.5,123.5 Z"/></g>
<g><path style="opacity:1" fill="#292d3a" d="M 12.5,118.5 C 12.8333,118.5 13.1667,118.5 13.5,118.5C 15.1563,120.46 16.823,122.46 18.5,124.5C 19.4411,126.772 20.7745,128.772 22.5,130.5C 24.5917,133.681 26.925,136.681 29.5,139.5C 30.1667,140.833 31.1667,141.833 32.5,142.5C 32.5,142.833 32.5,143.167 32.5,143.5C 31.1667,143.5 29.8333,143.5 28.5,143.5C 25.5136,139.183 22.1803,135.183 18.5,131.5C 15.7064,127.577 13.7064,123.243 12.5,118.5 Z"/></g>
<g><path style="opacity:1" fill="#423926" d="M 145.5,129.5 C 150.948,133.533 156.948,136.2 163.5,137.5C 156.349,138.394 150.182,136.394 145,131.5C 144.308,130.563 144.475,129.897 145.5,129.5 Z"/></g>
<g><path style="opacity:1" fill="#898034" d="M 254.5,124.5 C 254.833,124.5 255.167,124.5 255.5,124.5C 255.5,127.833 255.5,131.167 255.5,134.5C 254.833,134.5 254.167,134.5 253.5,134.5C 253.5,131.5 253.5,128.5 253.5,125.5C 254.167,125.5 254.5,125.167 254.5,124.5 Z"/></g>
<g><path style="opacity:1" fill="#18160e" d="M 92.5,130.5 C 91.8166,132.176 90.4832,132.843 88.5,132.5C 88.7409,135.034 87.7409,136.7 85.5,137.5C 82.1667,135.167 78.8333,132.833 75.5,130.5C 73.8608,129.527 72.5274,128.194 71.5,126.5C 79.3422,123.026 86.3422,124.359 92.5,130.5 Z"/></g>
<g><path style="opacity:1" fill="#1a6677" d="M 168.5,128.5 C 168.771,130.38 168.104,131.713 166.5,132.5C 166.66,130.847 167.326,129.514 168.5,128.5 Z"/></g>
<g><path style="opacity:1" fill="#062f3f" d="M 185.5,120.5 C 185.187,124.042 185.521,127.375 186.5,130.5C 191.756,132.815 197.09,135.148 202.5,137.5C 201.019,138.421 199.686,139.588 198.5,141C 198.743,141.902 199.077,142.735 199.5,143.5C 190.833,143.5 182.167,143.5 173.5,143.5C 177.241,135.683 181.241,128.017 185.5,120.5 Z"/></g>
<g><path style="opacity:1" fill="#342e1f" d="M 92.5,130.5 C 97.2077,134.207 101.208,138.54 104.5,143.5C 101.167,143.5 97.8333,143.5 94.5,143.5C 91.6385,141.24 88.6385,139.24 85.5,137.5C 87.7409,136.7 88.7409,135.034 88.5,132.5C 90.4832,132.843 91.8166,132.176 92.5,130.5 Z"/></g>
<g><path style="opacity:1" fill="#a49b59" d="M 253.5,125.5 C 253.5,128.5 253.5,131.5 253.5,134.5C 252.609,135.11 251.609,135.443 250.5,135.5C 249.833,134.833 249.167,134.167 248.5,133.5C 249.833,133.5 251.167,133.5 252.5,133.5C 252.5,131.833 252.5,130.167 252.5,128.5C 250.508,128.328 248.842,128.995 247.5,130.5C 245.114,129.012 244.448,129.345 245.5,131.5C 239.742,129.922 238.075,131.922 240.5,137.5C 240.027,138.906 239.027,139.573 237.5,139.5C 237.5,138.5 237.5,137.5 237.5,136.5C 235.259,136.954 233.259,136.954 231.5,136.5C 233.23,135.974 234.564,134.974 235.5,133.5C 237.156,131.54 238.823,129.54 240.5,127.5C 245.071,127.946 249.404,127.28 253.5,125.5 Z"/></g>
<g><path style="opacity:1" fill="#c1bd98" d="M 248.5,133.5 C 247.5,132.833 246.5,132.167 245.5,131.5C 244.448,129.345 245.114,129.012 247.5,130.5C 248.842,128.995 250.508,128.328 252.5,128.5C 252.5,130.167 252.5,131.833 252.5,133.5C 251.167,133.5 249.833,133.5 248.5,133.5 Z"/></g>
<g><path style="opacity:1" fill="#7d711c" d="M 245.5,131.5 C 246.5,132.167 247.5,132.833 248.5,133.5C 249.167,134.167 249.833,134.833 250.5,135.5C 247.167,136.167 243.833,136.833 240.5,137.5C 238.075,131.922 239.742,129.922 245.5,131.5 Z"/></g>
<g><path style="opacity:1" fill="#3787a0" d="M -0.5,134.5 C 7.30796,135.091 14.9746,136.425 22.5,138.5C 22.5,139.833 22.5,141.167 22.5,142.5C 14.5117,142.281 6.84502,140.614 -0.5,137.5C -0.5,136.5 -0.5,135.5 -0.5,134.5 Z"/></g>
<g><path style="opacity:1" fill="#557d8c" d="M 253.5,134.5 C 254.167,134.5 254.833,134.5 255.5,134.5C 255.5,137.5 255.5,140.5 255.5,143.5C 247.833,143.5 240.167,143.5 232.5,143.5C 233.29,142.599 234.29,141.932 235.5,141.5C 236.5,141.167 237.167,140.5 237.5,139.5C 239.027,139.573 240.027,138.906 240.5,137.5C 243.833,136.833 247.167,136.167 250.5,135.5C 251.609,135.443 252.609,135.11 253.5,134.5 Z"/></g>
<g><path style="opacity:1" fill="#342c1d" d="M 126.5,129.5 C 126.297,131.39 126.963,132.89 128.5,134C 134.701,135.217 140.701,136.717 146.5,138.5C 139.825,138.666 133.158,138.5 126.5,138C 124.676,137.34 123.343,136.173 122.5,134.5C 123.08,132.251 124.413,130.585 126.5,129.5 Z"/></g>
<g><path style="opacity:1" fill="#c3c1a0" d="M 226.5,137.5 C 227.919,136.549 229.585,136.216 231.5,136.5C 233.259,136.954 235.259,136.954 237.5,136.5C 237.5,137.5 237.5,138.5 237.5,139.5C 237.167,140.5 236.5,141.167 235.5,141.5C 232.645,139.907 229.645,138.574 226.5,137.5 Z"/></g>
<g><path style="opacity:1" fill="#938f85" d="M 124.5,126.5 C 124.833,126.5 125.167,126.5 125.5,126.5C 126.404,127.209 126.737,128.209 126.5,129.5C 124.413,130.585 123.08,132.251 122.5,134.5C 119.595,136.756 117.928,139.756 117.5,143.5C 116.5,143.5 115.5,143.5 114.5,143.5C 114.394,140.921 115.061,138.588 116.5,136.5C 117.674,135.486 118.34,134.153 118.5,132.5C 120.833,130.833 122.833,128.833 124.5,126.5 Z"/></g>
<g><path style="opacity:1" fill="#493f12" d="M 71.5,131.5 C 72.1667,131.5 72.8333,131.5 73.5,131.5C 73.3691,132.376 73.7025,133.043 74.5,133.5C 78.8211,134.674 82.4878,136.841 85.5,140C 84.7476,140.671 84.4142,141.504 84.5,142.5C 80.4237,140.019 76.4237,137.352 72.5,134.5C 71.6143,133.675 71.281,132.675 71.5,131.5 Z"/></g>
<g><path style="opacity:1" fill="#695b1c" d="M 75.5,130.5 C 78.8333,132.833 82.1667,135.167 85.5,137.5C 88.6385,139.24 91.6385,141.24 94.5,143.5C 91.8333,143.5 89.1667,143.5 86.5,143.5C 86.1583,142.662 85.4916,142.328 84.5,142.5C 84.4142,141.504 84.7476,140.671 85.5,140C 82.4878,136.841 78.8211,134.674 74.5,133.5C 73.7025,133.043 73.3691,132.376 73.5,131.5C 74.4916,131.672 75.1583,131.338 75.5,130.5 Z"/></g>
<g><path style="opacity:1" fill="#115b76" d="M 202.5,137.5 C 206.565,139.533 210.565,141.533 214.5,143.5C 209.5,143.5 204.5,143.5 199.5,143.5C 199.077,142.735 198.743,141.902 198.5,141C 199.686,139.588 201.019,138.421 202.5,137.5 Z"/></g>
<g><path style="opacity:1" fill="#877d2a" d="M 225.5,137.5 C 225.833,137.5 226.167,137.5 226.5,137.5C 229.645,138.574 232.645,139.907 235.5,141.5C 234.29,141.932 233.29,142.599 232.5,143.5C 229.167,143.5 225.833,143.5 222.5,143.5C 223.471,141.517 224.471,139.517 225.5,137.5 Z"/></g>
<g><path style="opacity:1" fill="#564e3e" d="M 122.5,134.5 C 123.343,136.173 124.676,137.34 126.5,138C 133.158,138.5 139.825,138.666 146.5,138.5C 148.099,138.232 149.432,138.566 150.5,139.5C 146.652,139.24 142.985,139.906 139.5,141.5C 139.863,142.183 140.196,142.85 140.5,143.5C 132.833,143.5 125.167,143.5 117.5,143.5C 117.928,139.756 119.595,136.756 122.5,134.5 Z"/></g>
<g><path style="opacity:1" fill="#296178" d="M 7.5,120.5 C 8.58617,120.62 9.25284,121.287 9.5,122.5C 8.69647,125.44 7.36313,128.107 5.5,130.5C 9.7828,131.492 14.1161,131.826 18.5,131.5C 22.1803,135.183 25.5136,139.183 28.5,143.5C 18.8333,143.5 9.16667,143.5 -0.5,143.5C -0.5,141.5 -0.5,139.5 -0.5,137.5C 6.84502,140.614 14.5117,142.281 22.5,142.5C 22.5,141.167 22.5,139.833 22.5,138.5C 14.9746,136.425 7.30796,135.091 -0.5,134.5C -0.5,132.167 -0.5,129.833 -0.5,127.5C 2.56163,126.732 4.22829,124.732 4.5,121.5C 5.20895,120.596 6.20895,120.263 7.5,120.5 Z"/></g>
<g><path style="opacity:1" fill="#7b7562" d="M 163.5,138.5 C 163.608,140.514 162.942,142.18 161.5,143.5C 154.5,143.5 147.5,143.5 140.5,143.5C 140.196,142.85 139.863,142.183 139.5,141.5C 142.985,139.906 146.652,139.24 150.5,139.5C 154.1,139.794 157.6,140.46 161,141.5C 161.852,140.429 162.685,139.429 163.5,138.5 Z"/></g>
</svg>
