<?xml version="1.0" encoding="UTF-8"?>
<!DOCTYPE svg PUBLIC "-//W3C//DTD SVG 1.1//EN" "http://www.w3.org/Graphics/SVG/1.1/DTD/svg11.dtd">
<svg xmlns="http://www.w3.org/2000/svg" version="1.1" width="256px" height="144px" style="shape-rendering:geometricPrecision; text-rendering:geometricPrecision; image-rendering:optimizeQuality; fill-rule:evenodd; clip-rule:evenodd" xmlns:xlink="http://www.w3.org/1999/xlink">
<g><path style="opacity:1" fill="#210901" d="M -0.5,-0.5 C 15.5,-0.5 31.5,-0.5 47.5,-0.5C 48.3629,0.940261 48.3629,2.27359 47.5,3.5C 49.6499,5.14905 51.6499,6.98239 53.5,9C 48.2521,14.5739 44.2521,20.9072 41.5,28C 42.0944,28.4643 42.7611,28.631 43.5,28.5C 42.7095,29.4013 41.7095,30.0679 40.5,30.5C 39.3994,29.1516 38.3994,27.6516 37.5,26C 35.5352,23.8926 33.2018,22.8926 30.5,23C 25.3716,31.4256 19.8716,39.5923 14,47.5C 13.2409,38.3707 13.5742,29.3707 15,20.5C 11.2213,22.6918 8.88801,26.0251 8,30.5C 6.30776,32.8222 4.47443,33.3222 2.5,32C 4.43163,26.7011 5.09829,21.7011 4.5,17C 2.86205,15.2981 1.19539,13.7981 -0.5,12.5C -0.5,8.16667 -0.5,3.83333 -0.5,-0.5 Z"/></g>
<g><path style="opacity:1" fill="#1d0902" d="M 47.5,-0.5 C 65.1667,-0.5 82.8333,-0.5 100.5,-0.5C 99.6205,2.26219 98.4538,4.92885 97,7.5C 94.7162,5.01552 92.2162,4.84886 89.5,7C 87.3425,8.98116 85.6759,11.3145 84.5,14C 80.388,15.0952 77.0547,17.4285 74.5,21C 67.5885,23.3413 60.5885,23.8413 53.5,22.5C 51.8849,23.154 50.2182,23.654 48.5,24C 46.9625,25.7073 45.2959,27.2073 43.5,28.5C 42.7611,28.631 42.0944,28.4643 41.5,28C 44.2521,20.9072 48.2521,14.5739 53.5,9C 51.6499,6.98239 49.6499,5.14905 47.5,3.5C 48.3629,2.27359 48.3629,0.940261 47.5,-0.5 Z"/></g>
<g><path style="opacity:1" fill="#1b0e09" d="M 115.5,-0.5 C 120.167,-0.5 124.833,-0.5 129.5,-0.5C 129.5,-0.166667 129.5,0.166667 129.5,0.5C 126.818,3.24263 124.151,5.9093 121.5,8.5C 120.136,6.80893 118.803,5.14226 117.5,3.5C 116.833,2.16667 116.167,0.833333 115.5,-0.5 Z"/></g>
<g><path style="opacity:1" fill="#180701" d="M 189.5,-0.5 C 211.5,-0.5 233.5,-0.5 255.5,-0.5C 255.5,4.16667 255.5,8.83333 255.5,13.5C 251.506,16.7976 247.506,20.131 243.5,23.5C 243.167,24.5 242.5,25.1667 241.5,25.5C 236.406,27.8817 231.406,30.5484 226.5,33.5C 225.328,33.0814 224.328,32.4147 223.5,31.5C 228.59,23.5747 234.257,16.0747 240.5,9C 240.167,8.83333 239.833,8.66667 239.5,8.5C 231.715,14.7827 224.382,21.6161 217.5,29C 214.972,29.5138 212.805,30.6805 211,32.5C 212.149,26.8145 209.983,24.8145 204.5,26.5C 204.141,35.1124 204.141,43.7791 204.5,52.5C 203.704,46.6496 203.037,40.6496 202.5,34.5C 202.378,30.1869 203.044,26.0202 204.5,22C 204.486,20.6153 204.152,19.4486 203.5,18.5C 202.97,16.0763 202.136,13.743 201,11.5C 197.372,7.19142 193.539,3.19142 189.5,-0.5 Z"/></g>
<g><path style="opacity:1" fill="#b24f2a" d="M 180.5,0.5 C 180.5,0.166667 180.5,-0.166667 180.5,-0.5C 181.5,-0.5 182.5,-0.5 183.5,-0.5C 186.822,2.26342 189.822,5.43008 192.5,9C 192.167,9.16667 191.833,9.33333 191.5,9.5C 187.986,6.25258 184.32,3.25258 180.5,0.5 Z"/></g>
<g><path style="opacity:1" fill="#bff1df" d="M 129.5,0.5 C 131.167,0.5 132.833,0.5 134.5,0.5C 134.414,1.4959 134.748,2.32924 135.5,3C 133.393,4.26351 132.393,6.09685 132.5,8.5C 131.41,9.85706 130.076,10.8571 128.5,11.5C 128.062,11.4346 127.728,11.6012 127.5,12C 128.416,12.2784 129.082,12.7784 129.5,13.5C 127.5,13.5 125.5,13.5 123.5,13.5C 122.178,13.33 121.011,13.6634 120,14.5C 119.812,12.9387 120.645,12.272 122.5,12.5C 122.567,11.0413 122.234,9.70792 121.5,8.5C 124.151,5.9093 126.818,3.24263 129.5,0.5 Z"/></g>
<g><path style="opacity:1" fill="#eac17c" d="M 171.5,0.5 C 172.514,1.67373 173.847,2.3404 175.5,2.5C 178.115,6.78286 181.115,10.7829 184.5,14.5C 183.293,13.8112 181.959,13.6446 180.5,14C 179.044,12.2552 177.711,10.4219 176.5,8.5C 176.167,8.66667 175.833,8.83333 175.5,9C 180.044,14.9754 179.544,16.1421 174,12.5C 173.667,13.1667 173.333,13.8333 173,14.5C 169.6,11.143 165.933,10.8097 162,13.5C 160.093,11.897 158.593,12.2303 157.5,14.5C 156.016,12.7182 155.016,10.7182 154.5,8.5C 154.341,5.34649 153.007,2.84649 150.5,1C 157.492,0.500377 164.492,0.333711 171.5,0.5 Z"/></g>
<g><path style="opacity:1" fill="#cbeee9" d="M 183.5,-0.5 C 185.5,-0.5 187.5,-0.5 189.5,-0.5C 193.539,3.19142 197.372,7.19142 201,11.5C 202.136,13.743 202.97,16.0763 203.5,18.5C 203.799,20.604 203.466,22.604 202.5,24.5C 199.53,23.3633 197.364,21.3633 196,18.5C 195.536,19.0944 195.369,19.7611 195.5,20.5C 194.596,19.791 194.263,18.791 194.5,17.5C 194.714,15.8561 194.38,14.3561 193.5,13C 190.195,10.5867 186.529,8.92006 182.5,8C 180.559,5.54638 178.225,3.71304 175.5,2.5C 173.847,2.3404 172.514,1.67373 171.5,0.5C 174.5,0.5 177.5,0.5 180.5,0.5C 184.32,3.25258 187.986,6.25258 191.5,9.5C 191.833,9.33333 192.167,9.16667 192.5,9C 189.822,5.43008 186.822,2.26342 183.5,-0.5 Z"/></g>
<g><path style="opacity:1" fill="#d2dbb2" d="M 134.5,0.5 C 138.205,0.720503 141.539,1.2205 144.5,2C 141.307,3.02553 139.974,5.19219 140.5,8.5C 138.323,8.58613 136.323,9.25279 134.5,10.5C 133.304,10.1543 133.304,9.65431 134.5,9C 133.906,8.53566 133.239,8.36899 132.5,8.5C 132.393,6.09685 133.393,4.26351 135.5,3C 134.748,2.32924 134.414,1.4959 134.5,0.5 Z"/></g>
<g><path style="opacity:1" fill="#b09f73" d="M 129.5,0.5 C 129.5,0.166667 129.5,-0.166667 129.5,-0.5C 146.5,-0.5 163.5,-0.5 180.5,-0.5C 180.5,-0.166667 180.5,0.166667 180.5,0.5C 177.5,0.5 174.5,0.5 171.5,0.5C 164.492,0.333711 157.492,0.500377 150.5,1C 153.007,2.84649 154.341,5.34649 154.5,8.5C 155.01,11.3878 154.344,13.7211 152.5,15.5C 149.09,15.2181 145.757,14.5514 142.5,13.5C 140.786,14.6085 140.119,13.9418 140.5,11.5C 136.5,11.5 132.5,11.5 128.5,11.5C 130.076,10.8571 131.41,9.85706 132.5,8.5C 133.239,8.36899 133.906,8.53566 134.5,9C 133.304,9.65431 133.304,10.1543 134.5,10.5C 136.323,9.25279 138.323,8.58613 140.5,8.5C 139.974,5.19219 141.307,3.02553 144.5,2C 141.539,1.2205 138.205,0.720503 134.5,0.5C 132.833,0.5 131.167,0.5 129.5,0.5 Z"/></g>
<g><path style="opacity:1" fill="#d7f1c8" d="M 175.5,2.5 C 178.225,3.71304 180.559,5.54638 182.5,8C 186.529,8.92006 190.195,10.5867 193.5,13C 194.38,14.3561 194.714,15.8561 194.5,17.5C 192.727,15.5675 190.561,14.2341 188,13.5C 187.536,14.0944 187.369,14.7611 187.5,15.5C 187.795,17.7354 187.461,19.7354 186.5,21.5C 186.073,18.9902 185.407,16.6568 184.5,14.5C 181.115,10.7829 178.115,6.78286 175.5,2.5 Z"/></g>
<g><path style="opacity:1" fill="#cb9850" d="M 154.5,8.5 C 155.016,10.7182 156.016,12.7182 157.5,14.5C 158.593,12.2303 160.093,11.897 162,13.5C 165.933,10.8097 169.6,11.143 173,14.5C 173.333,13.8333 173.667,13.1667 174,12.5C 179.544,16.1421 180.044,14.9754 175.5,9C 175.833,8.83333 176.167,8.66667 176.5,8.5C 177.711,10.4219 179.044,12.2552 180.5,14C 181.959,13.6446 183.293,13.8112 184.5,14.5C 185.407,16.6568 186.073,18.9902 186.5,21.5C 186.167,21.5 185.833,21.5 185.5,21.5C 183.496,18.113 181.162,17.7797 178.5,20.5C 177.5,20.3333 176.5,20.1667 175.5,20C 174.833,18.6667 173.833,17.6667 172.5,17C 169.141,16.2287 165.808,15.3953 162.5,14.5C 160.179,17.2263 157.179,18.7263 153.5,19C 155.276,20.6708 155.61,22.5041 154.5,24.5C 154.855,25.5223 155.522,26.189 156.5,26.5C 156.5,27.5 156.5,28.5 156.5,29.5C 151.853,28.3758 147.187,28.3758 142.5,29.5C 141.134,26.1421 139.301,25.4755 137,27.5C 136.8,25.6803 135.966,24.347 134.5,23.5C 134.5,22.8333 134.167,22.5 133.5,22.5C 133.5,22.1667 133.5,21.8333 133.5,21.5C 133.703,19.6096 133.037,18.1096 131.5,17C 128.47,16.4218 125.803,15.2552 123.5,13.5C 125.5,13.5 127.5,13.5 129.5,13.5C 132.522,13.9808 135.522,14.6475 138.5,15.5C 138.884,20.2187 140.217,23.8853 142.5,26.5C 143.736,27.2458 145.07,27.5792 146.5,27.5C 148.749,26.9202 150.415,25.5869 151.5,23.5C 152.473,21.0521 152.806,18.3854 152.5,15.5C 154.344,13.7211 155.01,11.3878 154.5,8.5 Z"/></g>
<g><path style="opacity:1" fill="#9c7c52" d="M 128.5,11.5 C 132.5,11.5 136.5,11.5 140.5,11.5C 140.119,13.9418 140.786,14.6085 142.5,13.5C 145.757,14.5514 149.09,15.2181 152.5,15.5C 152.806,18.3854 152.473,21.0521 151.5,23.5C 151.326,21.139 150.993,18.8056 150.5,16.5C 148.473,16.3379 146.473,16.5045 144.5,17C 145.423,19.0408 145.756,21.2075 145.5,23.5C 146.675,23.281 147.675,23.6143 148.5,24.5C 147.807,25.5178 147.141,26.5178 146.5,27.5C 145.07,27.5792 143.736,27.2458 142.5,26.5C 140.217,23.8853 138.884,20.2187 138.5,15.5C 135.522,14.6475 132.522,13.9808 129.5,13.5C 129.082,12.7784 128.416,12.2784 127.5,12C 127.728,11.6012 128.062,11.4346 128.5,11.5 Z"/></g>
<g><path style="opacity:1" fill="#b7cbb6" d="M 100.5,-0.5 C 101.167,-0.5 101.833,-0.5 102.5,-0.5C 102.5,0.166667 102.833,0.5 103.5,0.5C 102.664,5.83661 103.998,6.66994 107.5,3C 106.944,2.61742 106.611,2.11742 106.5,1.5C 108.958,2.62013 110.958,1.95346 112.5,-0.5C 113.5,-0.5 114.5,-0.5 115.5,-0.5C 116.167,0.833333 116.833,2.16667 117.5,3.5C 116.596,4.20895 116.263,5.20895 116.5,6.5C 115.5,6.5 114.5,6.5 113.5,6.5C 113.762,5.02218 113.429,3.68884 112.5,2.5C 109.256,4.66187 106.256,6.99521 103.5,9.5C 100.628,10.5256 98.1277,12.1923 96,14.5C 95.6012,14.2716 95.4346,13.9382 95.5,13.5C 95.6602,11.8008 95.4935,10.1341 95,8.5C 93.9505,7.48288 92.7839,7.31621 91.5,8C 89.2618,13.5813 85.2618,16.9146 79.5,18C 77.9886,21.6631 75.6553,24.4965 72.5,26.5C 71.9569,26.56 71.6236,26.8933 71.5,27.5C 73,27.8333 74.5,28.1667 76,28.5C 79.9886,28.2288 83.4886,27.0621 86.5,25C 84.5951,26.8153 82.9284,28.8153 81.5,31C 78.6353,31.1829 75.9686,31.6829 73.5,32.5C 60.2339,33.8819 50.0672,40.2152 43,51.5C 42.4062,54.2189 43.2395,54.8856 45.5,53.5C 46.391,52.8902 47.391,52.5569 48.5,52.5C 48.1667,53.1667 47.8333,53.8333 47.5,54.5C 38.0598,60.9426 30.7265,69.2759 25.5,79.5C 26.7865,74.7538 28.7865,70.2538 31.5,66C 31.4301,65.2352 31.0967,64.7352 30.5,64.5C 34.5758,63.0598 36.7425,60.0598 37,55.5C 40.2467,51.3409 43.2467,47.0076 46,42.5C 48.0367,40.2941 50.2034,38.2941 52.5,36.5C 56.2795,34.2228 59.6128,31.3895 62.5,28C 57.6423,27.1188 52.9756,27.6188 48.5,29.5C 45.1395,32.1938 42.1395,35.1938 39.5,38.5C 39.5654,38.0618 39.3988,37.7284 39,37.5C 37.7365,39.607 35.9032,40.607 33.5,40.5C 34.7016,36.3104 37.035,32.9771 40.5,30.5C 41.7095,30.0679 42.7095,29.4013 43.5,28.5C 45.2959,27.2073 46.9625,25.7073 48.5,24C 50.2182,23.654 51.8849,23.154 53.5,22.5C 60.5885,23.8413 67.5885,23.3413 74.5,21C 77.0547,17.4285 80.388,15.0952 84.5,14C 85.6759,11.3145 87.3425,8.98116 89.5,7C 92.2162,4.84886 94.7162,5.01552 97,7.5C 98.4538,4.92885 99.6205,2.26219 100.5,-0.5 Z"/></g>
<g><path style="opacity:1" fill="#db9c6a" d="M 103.5,0.5 C 104.791,0.262695 105.791,0.596028 106.5,1.5C 106.611,2.11742 106.944,2.61742 107.5,3C 103.998,6.66994 102.664,5.83661 103.5,0.5 Z"/></g>
<g><path style="opacity:1" fill="#1a1410" d="M 102.5,-0.5 C 105.833,-0.5 109.167,-0.5 112.5,-0.5C 110.958,1.95346 108.958,2.62013 106.5,1.5C 105.791,0.596028 104.791,0.262695 103.5,0.5C 102.833,0.5 102.5,0.166667 102.5,-0.5 Z"/></g>
<g><path style="opacity:1" fill="#75421f" d="M 95.5,13.5 C 92.8621,16.4744 90.1954,19.4744 87.5,22.5C 84.4838,23.3431 81.8171,24.8431 79.5,27C 76.9615,27.7958 74.6282,27.6291 72.5,26.5C 75.6553,24.4965 77.9886,21.6631 79.5,18C 85.2618,16.9146 89.2618,13.5813 91.5,8C 92.7839,7.31621 93.9505,7.48288 95,8.5C 95.4935,10.1341 95.6602,11.8008 95.5,13.5 Z"/></g>
<g><path style="opacity:1" fill="#966127" d="M 185.5,21.5 C 184.721,23.9272 183.554,23.9272 182,21.5C 181.311,22.3567 180.478,23.0233 179.5,23.5C 177.253,22.6258 174.92,22.2924 172.5,22.5C 167.91,18.2984 163.744,18.6317 160,23.5C 159.383,24.4491 159.549,25.2825 160.5,26C 162.727,26.941 164.727,28.1077 166.5,29.5C 167.23,31.045 168.563,31.8784 170.5,32C 169.095,33.2692 167.429,33.7692 165.5,33.5C 165.088,35.9726 166.088,37.3059 168.5,37.5C 169.833,38.5 171.167,39.5 172.5,40.5C 169.5,39.8333 166.5,39.1667 163.5,38.5C 164.138,36.54 164.138,34.7067 163.5,33C 164.308,32.6924 164.975,32.1924 165.5,31.5C 163.082,30.5854 161.082,29.0854 159.5,27C 158.552,26.5172 157.552,26.3505 156.5,26.5C 155.522,26.189 154.855,25.5223 154.5,24.5C 155.61,22.5041 155.276,20.6708 153.5,19C 157.179,18.7263 160.179,17.2263 162.5,14.5C 165.808,15.3953 169.141,16.2287 172.5,17C 173.833,17.6667 174.833,18.6667 175.5,20C 176.5,20.1667 177.5,20.3333 178.5,20.5C 181.162,17.7797 183.496,18.113 185.5,21.5 Z"/></g>
<g><path style="opacity:1" fill="#c69852" d="M 194.5,17.5 C 194.263,18.791 194.596,19.791 195.5,20.5C 195.5,22.1667 195.5,23.8333 195.5,25.5C 192.775,25.063 190.775,23.7296 189.5,21.5C 189.946,18.9899 189.28,16.9899 187.5,15.5C 187.369,14.7611 187.536,14.0944 188,13.5C 190.561,14.2341 192.727,15.5675 194.5,17.5 Z"/></g>
<g><path style="opacity:1" fill="#2a0d03" d="M -0.5,12.5 C 1.19539,13.7981 2.86205,15.2981 4.5,17C 5.09829,21.7011 4.43163,26.7011 2.5,32C 4.47443,33.3222 6.30776,32.8222 8,30.5C 8.88801,26.0251 11.2213,22.6918 15,20.5C 13.5742,29.3707 13.2409,38.3707 14,47.5C 19.8716,39.5923 25.3716,31.4256 30.5,23C 33.2018,22.8926 35.5352,23.8926 37.5,26C 38.3994,27.6516 39.3994,29.1516 40.5,30.5C 37.035,32.9771 34.7016,36.3104 33.5,40.5C 32.8333,40.5 32.5,40.8333 32.5,41.5C 31.0384,40.5423 29.7051,39.3756 28.5,38C 26.9556,36.8129 25.2889,36.4795 23.5,37C 19.3533,42.7926 15.8533,48.9593 13,55.5C 11.9805,56.6872 10.8139,57.6872 9.5,58.5C 8.94926,54.0655 8.94926,49.5655 9.5,45C 8.87424,44.2496 8.37424,43.4162 8,42.5C 5.15794,50.5573 2.32461,58.5573 -0.5,66.5C -0.5,48.5 -0.5,30.5 -0.5,12.5 Z"/></g>
<g><path style="opacity:1" fill="#705538" d="M 151.5,23.5 C 150.415,25.5869 148.749,26.9202 146.5,27.5C 147.141,26.5178 147.807,25.5178 148.5,24.5C 147.675,23.6143 146.675,23.281 145.5,23.5C 145.756,21.2075 145.423,19.0408 144.5,17C 146.473,16.5045 148.473,16.3379 150.5,16.5C 150.993,18.8056 151.326,21.139 151.5,23.5 Z"/></g>
<g><path style="opacity:1" fill="#572a0f" d="M 133.5,21.5 C 133.5,21.8333 133.5,22.1667 133.5,22.5C 133.937,25.8066 133.27,28.8066 131.5,31.5C 130.817,31.1373 130.15,30.8039 129.5,30.5C 129.238,28.4362 128.071,27.1029 126,26.5C 125.599,20.7853 128.099,19.1187 133.5,21.5 Z"/></g>
<g><path style="opacity:1" fill="#1b0e03" d="M 172.5,22.5 C 173.674,26.9131 176.008,27.5798 179.5,24.5C 179.736,25.2472 180.07,26.0805 180.5,27C 176.594,31.9755 171.927,32.8088 166.5,29.5C 164.727,28.1077 162.727,26.941 160.5,26C 159.549,25.2825 159.383,24.4491 160,23.5C 163.744,18.6317 167.91,18.2984 172.5,22.5 Z"/></g>
<g><path style="opacity:1" fill="#8d6d38" d="M 189.5,21.5 C 190.775,23.7296 192.775,25.063 195.5,25.5C 195.205,27.7354 195.539,29.7354 196.5,31.5C 196.44,32.0431 196.107,32.3764 195.5,32.5C 191.984,31.2441 188.984,29.2441 186.5,26.5C 187.716,25.9041 189.049,25.7374 190.5,26C 188.534,24.6534 188.201,23.1534 189.5,21.5 Z"/></g>
<g><path style="opacity:1" fill="#eacf00" d="M 165.5,24.5 C 168.421,24.1459 170.754,25.1459 172.5,27.5C 168.867,29.3172 166.533,28.3172 165.5,24.5 Z"/></g>
<g><path style="opacity:1" fill="#ad9575" d="M 87.5,22.5 C 88.552,22.3505 89.552,22.5172 90.5,23C 87.1102,25.5326 84.7769,28.6993 83.5,32.5C 80.1667,32.5 76.8333,32.5 73.5,32.5C 75.9686,31.6829 78.6353,31.1829 81.5,31C 82.9284,28.8153 84.5951,26.8153 86.5,25C 83.4886,27.0621 79.9886,28.2288 76,28.5C 74.5,28.1667 73,27.8333 71.5,27.5C 71.6236,26.8933 71.9569,26.56 72.5,26.5C 74.6282,27.6291 76.9615,27.7958 79.5,27C 81.8171,24.8431 84.4838,23.3431 87.5,22.5 Z"/></g>
<g><path style="opacity:1" fill="#503119" d="M 187.5,15.5 C 189.28,16.9899 189.946,18.9899 189.5,21.5C 188.201,23.1534 188.534,24.6534 190.5,26C 189.049,25.7374 187.716,25.9041 186.5,26.5C 188.984,29.2441 191.984,31.2441 195.5,32.5C 196.107,32.3764 196.44,32.0431 196.5,31.5C 197.625,32.3478 197.625,33.3478 196.5,34.5C 192.458,32.3968 188.291,30.3968 184,28.5C 182.72,28.6135 181.887,29.2801 181.5,30.5C 187.089,31.6257 191.756,34.2924 195.5,38.5C 190.16,36.9604 185.66,38.2937 182,42.5C 181.517,43.448 181.351,44.448 181.5,45.5C 184.219,45.3975 186.885,45.7308 189.5,46.5C 191.577,45.0629 193.91,44.3962 196.5,44.5C 195.562,46.3257 194.562,48.159 193.5,50C 193.758,52.0093 194.425,53.8427 195.5,55.5C 194.5,55.5 193.5,55.5 192.5,55.5C 193.387,50.5921 191.387,47.9255 186.5,47.5C 184.833,47.5 183.167,47.5 181.5,47.5C 180.292,48.2341 178.959,48.5674 177.5,48.5C 177.672,47.5084 177.338,46.8417 176.5,46.5C 178.487,40.6873 182.487,37.1873 188.5,36C 185.605,34.6871 182.605,33.5204 179.5,32.5C 178.478,32.8555 177.811,33.5222 177.5,34.5C 173.902,33.455 170.902,34.455 168.5,37.5C 166.088,37.3059 165.088,35.9726 165.5,33.5C 167.429,33.7692 169.095,33.2692 170.5,32C 168.563,31.8784 167.23,31.045 166.5,29.5C 171.927,32.8088 176.594,31.9755 180.5,27C 180.07,26.0805 179.736,25.2472 179.5,24.5C 176.008,27.5798 173.674,26.9131 172.5,22.5C 174.92,22.2924 177.253,22.6258 179.5,23.5C 180.478,23.0233 181.311,22.3567 182,21.5C 183.554,23.9272 184.721,23.9272 185.5,21.5C 185.833,21.5 186.167,21.5 186.5,21.5C 187.461,19.7354 187.795,17.7354 187.5,15.5 Z"/></g>
<g><path style="opacity:1" fill="#628e6b" d="M 203.5,18.5 C 204.152,19.4486 204.486,20.6153 204.5,22C 203.044,26.0202 202.378,30.1869 202.5,34.5C 201.71,33.3915 201.21,32.0581 201,30.5C 200.535,31.9308 199.701,33.0975 198.5,34C 199.423,36.0408 199.756,38.2075 199.5,40.5C 198.609,39.8902 197.609,39.5569 196.5,39.5C 196.5,39.1667 196.5,38.8333 196.5,38.5C 196.888,37.0241 196.888,35.6908 196.5,34.5C 197.625,33.3478 197.625,32.3478 196.5,31.5C 195.539,29.7354 195.205,27.7354 195.5,25.5C 195.5,23.8333 195.5,22.1667 195.5,20.5C 195.369,19.7611 195.536,19.0944 196,18.5C 197.364,21.3633 199.53,23.3633 202.5,24.5C 203.466,22.604 203.799,20.604 203.5,18.5 Z"/></g>
<g><path style="opacity:1" fill="#8f5f2b" d="M 134.5,23.5 C 135.966,24.347 136.8,25.6803 137,27.5C 139.301,25.4755 141.134,26.1421 142.5,29.5C 145.762,30.1349 148.428,31.8016 150.5,34.5C 148.708,34.634 147.042,34.3007 145.5,33.5C 144.833,33.5 144.167,33.5 143.5,33.5C 143.158,32.6618 142.492,32.3284 141.5,32.5C 139.786,31.2616 137.786,30.595 135.5,30.5C 135.326,28.139 134.993,25.8056 134.5,23.5 Z"/></g>
<g><path style="opacity:1" fill="#250a01" d="M 241.5,25.5 C 232.68,32.4199 224.013,39.5866 215.5,47C 212.394,52.6075 208.061,57.1075 202.5,60.5C 202.557,59.391 202.89,58.391 203.5,57.5C 204.038,55.8828 204.371,54.2161 204.5,52.5C 204.141,43.7791 204.141,35.1124 204.5,26.5C 209.983,24.8145 212.149,26.8145 211,32.5C 212.805,30.6805 214.972,29.5138 217.5,29C 224.382,21.6161 231.715,14.7827 239.5,8.5C 239.833,8.66667 240.167,8.83333 240.5,9C 234.257,16.0747 228.59,23.5747 223.5,31.5C 224.328,32.4147 225.328,33.0814 226.5,33.5C 231.406,30.5484 236.406,27.8817 241.5,25.5 Z"/></g>
<g><path style="opacity:1" fill="#b3813f" d="M 156.5,26.5 C 157.552,26.3505 158.552,26.5172 159.5,27C 161.082,29.0854 163.082,30.5854 165.5,31.5C 164.975,32.1924 164.308,32.6924 163.5,33C 164.138,34.7067 164.138,36.54 163.5,38.5C 166.5,39.1667 169.5,39.8333 172.5,40.5C 174.167,40.5 175.833,40.5 177.5,40.5C 177.626,38.8002 178.293,37.3002 179.5,36C 179.164,34.9701 178.497,34.4701 177.5,34.5C 177.811,33.5222 178.478,32.8555 179.5,32.5C 182.605,33.5204 185.605,34.6871 188.5,36C 182.487,37.1873 178.487,40.6873 176.5,46.5C 175.167,46.5 173.833,46.5 172.5,46.5C 172.768,48.099 172.434,49.4324 171.5,50.5C 170.271,47.1997 168.605,44.1997 166.5,41.5C 161.167,39.1667 155.833,36.8333 150.5,34.5C 148.428,31.8016 145.762,30.1349 142.5,29.5C 147.187,28.3758 151.853,28.3758 156.5,29.5C 156.5,28.5 156.5,27.5 156.5,26.5 Z"/></g>
<g><path style="opacity:1" fill="#aa8442" d="M 196.5,34.5 C 196.888,35.6908 196.888,37.0241 196.5,38.5C 196.167,38.5 195.833,38.5 195.5,38.5C 191.756,34.2924 187.089,31.6257 181.5,30.5C 181.887,29.2801 182.72,28.6135 184,28.5C 188.291,30.3968 192.458,32.3968 196.5,34.5 Z"/></g>
<g><path style="opacity:1" fill="#92643f" d="M 103.5,9.5 C 100.044,12.4535 96.711,15.6202 93.5,19C 93.9459,20.7259 94.7792,22.2259 96,23.5C 98.8349,22.0836 101.502,20.417 104,18.5C 104.635,19.9663 105.469,21.2997 106.5,22.5C 102.718,23.7054 99.0516,25.2054 95.5,27C 93.5614,27.9078 92.5614,29.4078 92.5,31.5C 94.5273,31.6621 96.5273,31.4955 98.5,31C 101.406,28.3805 104.739,26.5472 108.5,25.5C 107.697,26.4232 107.53,27.4232 108,28.5C 108.816,27.1772 109.983,26.5106 111.5,26.5C 110.375,28.1288 109.041,29.6288 107.5,31C 102.793,32.4161 98.1262,33.7495 93.5,35C 89.9196,37.2774 86.5863,39.7774 83.5,42.5C 82.448,42.6495 81.448,42.4828 80.5,42C 82.2395,40.483 83.9062,38.983 85.5,37.5C 87.5323,36.9522 88.5323,35.6188 88.5,33.5C 91.9877,33.1009 92.1544,32.4342 89,31.5C 87.175,31.9434 85.3417,32.2767 83.5,32.5C 84.7769,28.6993 87.1102,25.5326 90.5,23C 89.552,22.5172 88.552,22.3505 87.5,22.5C 90.1954,19.4744 92.8621,16.4744 95.5,13.5C 95.4346,13.9382 95.6012,14.2716 96,14.5C 98.1277,12.1923 100.628,10.5256 103.5,9.5 Z"/></g>
<g><path style="opacity:1" fill="#6f4121" d="M 52.5,36.5 C 52.8948,33.4775 51.8948,32.4775 49.5,33.5C 47.2997,32.6754 46.9663,31.3421 48.5,29.5C 52.9756,27.6188 57.6423,27.1188 62.5,28C 59.6128,31.3895 56.2795,34.2228 52.5,36.5 Z"/></g>
<g><path style="opacity:1" fill="#7d441e" d="M 85.5,37.5 C 81.8546,38.9873 78.188,40.4873 74.5,42C 70.0823,42.2077 65.749,42.8744 61.5,44C 59.0244,46.5711 56.0244,48.0711 52.5,48.5C 52.369,47.7611 52.5357,47.0944 53,46.5C 55.7953,44.7068 58.2953,42.5402 60.5,40C 59.9056,39.5357 59.2389,39.369 58.5,39.5C 63.2448,36.5867 68.2448,34.2534 73.5,32.5C 76.8333,32.5 80.1667,32.5 83.5,32.5C 85.3417,32.2767 87.175,31.9434 89,31.5C 92.1544,32.4342 91.9877,33.1009 88.5,33.5C 88.5323,35.6188 87.5323,36.9522 85.5,37.5 Z"/></g>
<g><path style="opacity:1" fill="#431705" d="M 145.5,33.5 C 147.042,34.3007 148.708,34.634 150.5,34.5C 155.833,36.8333 161.167,39.1667 166.5,41.5C 168.287,48.6921 167.287,49.1921 163.5,43C 162.167,42.3333 160.833,42.3333 159.5,43C 160.78,44.9664 162.447,46.4664 164.5,47.5C 165.167,49.8194 165.334,52.1527 165,54.5C 164.013,50.2332 163.179,49.8998 162.5,53.5C 159.801,50.7986 157.467,47.7986 155.5,44.5C 154.126,43.2887 152.626,42.2887 151,41.5C 147.985,44.0199 145.485,47.0199 143.5,50.5C 140.625,52.2485 139.292,54.9152 139.5,58.5C 138.022,58.762 136.689,58.4287 135.5,57.5C 138.059,53.7145 140.059,49.7145 141.5,45.5C 141.942,41.8455 142.276,38.1788 142.5,34.5C 143.791,34.7373 144.791,34.404 145.5,33.5 Z"/></g>
<g><path style="opacity:1" fill="#270a01" d="M 255.5,13.5 C 255.5,30.1667 255.5,46.8333 255.5,63.5C 253.25,60.6658 251.084,57.6658 249,54.5C 248.282,55.4506 247.449,55.6172 246.5,55C 247.167,54 247.833,53 248.5,52C 244.112,50.0842 239.779,48.9176 235.5,48.5C 233.247,49.2531 231.413,50.5864 230,52.5C 227.912,51.6919 225.912,50.6919 224,49.5C 223.549,51.9288 222.715,52.0955 221.5,50C 226.821,45.9019 231.821,42.2353 236.5,39C 235.833,38.6667 235.167,38.3333 234.5,38C 235.701,37.0975 236.535,35.9308 237,34.5C 242.045,28.7876 247.712,23.7876 254,19.5C 254.688,18.6683 254.521,18.0016 253.5,17.5C 251.35,19.1491 249.35,20.9824 247.5,23C 246.207,23.49 244.873,23.6567 243.5,23.5C 247.506,20.131 251.506,16.7976 255.5,13.5 Z"/></g>
<g><path style="opacity:1" fill="#180801" d="M 143.5,33.5 C 144.167,33.5 144.833,33.5 145.5,33.5C 144.791,34.404 143.791,34.7373 142.5,34.5C 142.276,38.1788 141.942,41.8455 141.5,45.5C 139.211,48.6268 136.711,51.6268 134,54.5C 133.184,55.8228 132.017,56.4894 130.5,56.5C 130.618,53.3117 131.451,50.3117 133,47.5C 136.099,42.2748 139.599,37.6081 143.5,33.5 Z"/></g>
<g><path style="opacity:1" fill="#cc9a55" d="M 177.5,34.5 C 178.497,34.4701 179.164,34.9701 179.5,36C 178.293,37.3002 177.626,38.8002 177.5,40.5C 175.833,40.5 174.167,40.5 172.5,40.5C 171.167,39.5 169.833,38.5 168.5,37.5C 170.902,34.455 173.902,33.455 177.5,34.5 Z"/></g>
<g><path style="opacity:1" fill="#8b4e22" d="M 117.5,3.5 C 118.803,5.14226 120.136,6.80893 121.5,8.5C 122.234,9.70792 122.567,11.0413 122.5,12.5C 120.645,12.272 119.812,12.9387 120,14.5C 121.011,13.6634 122.178,13.33 123.5,13.5C 125.803,15.2552 128.47,16.4218 131.5,17C 133.037,18.1096 133.703,19.6096 133.5,21.5C 128.099,19.1187 125.599,20.7853 126,26.5C 128.071,27.1029 129.238,28.4362 129.5,30.5C 129.631,31.2389 129.464,31.9056 129,32.5C 127.829,31.1068 126.329,30.2735 124.5,30C 121.984,27.6203 119.817,25.1203 118,22.5C 116.127,23.8677 114.46,25.5343 113,27.5C 112.809,29.7078 112.309,31.7078 111.5,33.5C 105.035,33.7014 100.035,36.868 96.5,43C 95.552,43.4828 94.552,43.6495 93.5,43.5C 93.5086,45.3084 93.0086,46.9751 92,48.5C 86.8187,53.7553 80.8187,57.7553 74,60.5C 71.3957,63.6972 70.229,67.3638 70.5,71.5C 69.1667,71.5 67.8333,71.5 66.5,71.5C 65.5798,70.9326 65.2465,71.5992 65.5,73.5C 62.9111,72.5621 60.4111,72.2288 58,72.5C 57.3346,76.4423 57.5012,80.2756 58.5,84C 49.9885,87.9402 45.8218,94.4402 46,103.5C 43.3284,103.676 40.4951,104.343 37.5,105.5C 36.9921,107.904 35.8255,108.571 34,107.5C 33.4867,108.527 32.9867,109.527 32.5,110.5C 31.7611,110.631 31.0944,110.464 30.5,110C 31.8621,107.966 32.8621,105.799 33.5,103.5C 36.4198,98.7323 39.5865,94.0656 43,89.5C 44.0113,88.6634 45.1779,88.33 46.5,88.5C 46.6287,86.7839 46.962,85.1172 47.5,83.5C 48.1667,82.1667 49.1667,81.1667 50.5,80.5C 55.3591,82.2241 56.3591,81.0574 53.5,77C 55.0462,73.446 57.3795,70.446 60.5,68C 60.1667,67.6667 59.8333,67.3333 59.5,67C 60.4162,66.6258 61.2496,66.1258 62,65.5C 62.8261,67.4054 63.9928,67.7388 65.5,66.5C 65.1667,65.8333 64.8333,65.1667 64.5,64.5C 65.9501,63.1502 66.6168,61.4835 66.5,59.5C 68.4672,59.2606 70.3005,59.5939 72,60.5C 73.3104,58.8678 73.8104,57.2012 73.5,55.5C 74.086,55.7093 74.586,56.0426 75,56.5C 79.7189,53.8861 84.2189,50.8861 88.5,47.5C 89.8333,46.5 89.8333,45.5 88.5,44.5C 86.9246,43.5435 85.258,42.8769 83.5,42.5C 86.5863,39.7774 89.9196,37.2774 93.5,35C 98.1262,33.7495 102.793,32.4161 107.5,31C 109.041,29.6288 110.375,28.1288 111.5,26.5C 113.628,23.8697 115.961,21.3697 118.5,19C 118.167,18.8333 117.833,18.6667 117.5,18.5C 114.748,21.2634 111.748,23.5967 108.5,25.5C 104.739,26.5472 101.406,28.3805 98.5,31C 96.5273,31.4955 94.5273,31.6621 92.5,31.5C 92.5614,29.4078 93.5614,27.9078 95.5,27C 99.0516,25.2054 102.718,23.7054 106.5,22.5C 105.469,21.2997 104.635,19.9663 104,18.5C 101.502,20.417 98.8349,22.0836 96,23.5C 94.7792,22.2259 93.9459,20.7259 93.5,19C 96.711,15.6202 100.044,12.4535 103.5,9.5C 106.256,6.99521 109.256,4.66187 112.5,2.5C 113.429,3.68884 113.762,5.02218 113.5,6.5C 114.5,6.5 115.5,6.5 116.5,6.5C 116.263,5.20895 116.596,4.20895 117.5,3.5 Z"/></g>
<g><path style="opacity:1" fill="#bdc8b1" d="M 111.5,26.5 C 109.983,26.5106 108.816,27.1772 108,28.5C 107.53,27.4232 107.697,26.4232 108.5,25.5C 111.748,23.5967 114.748,21.2634 117.5,18.5C 117.833,18.6667 118.167,18.8333 118.5,19C 115.961,21.3697 113.628,23.8697 111.5,26.5 Z"/></g>
<g><path style="opacity:1" fill="#ac5933" d="M 195.5,38.5 C 195.833,38.5 196.167,38.5 196.5,38.5C 196.5,38.8333 196.5,39.1667 196.5,39.5C 197.355,40.5307 198.022,41.6974 198.5,43C 198.164,44.0299 197.497,44.5299 196.5,44.5C 193.91,44.3962 191.577,45.0629 189.5,46.5C 186.885,45.7308 184.219,45.3975 181.5,45.5C 181.351,44.448 181.517,43.448 182,42.5C 185.66,38.2937 190.16,36.9604 195.5,38.5 Z"/></g>
<g><path style="opacity:1" fill="#8bb6a7" d="M 202.5,34.5 C 203.037,40.6496 203.704,46.6496 204.5,52.5C 204.371,54.2161 204.038,55.8828 203.5,57.5C 202.778,57.0825 202.278,56.4158 202,55.5C 201.667,55.8333 201.333,56.1667 201,56.5C 200.551,53.868 199.717,51.368 198.5,49C 198.833,48.5 199.167,48 199.5,47.5C 200.771,52.6621 201.438,52.6621 201.5,47.5C 201.558,44.922 200.891,42.5887 199.5,40.5C 199.756,38.2075 199.423,36.0408 198.5,34C 199.701,33.0975 200.535,31.9308 201,30.5C 201.21,32.0581 201.71,33.3915 202.5,34.5 Z"/></g>
<g><path style="opacity:1" fill="#553720" d="M 58.5,39.5 C 59.2389,39.369 59.9056,39.5357 60.5,40C 58.2953,42.5402 55.7953,44.7068 53,46.5C 52.5357,47.0944 52.369,47.7611 52.5,48.5C 50.8333,49.5 49.5,50.8333 48.5,52.5C 47.391,52.5569 46.391,52.8902 45.5,53.5C 47.7112,46.9523 52.0445,42.2856 58.5,39.5 Z"/></g>
<g><path style="opacity:1" fill="#a97e58" d="M 73.5,32.5 C 68.2448,34.2534 63.2448,36.5867 58.5,39.5C 52.0445,42.2856 47.7112,46.9523 45.5,53.5C 43.2395,54.8856 42.4062,54.2189 43,51.5C 50.0672,40.2152 60.2339,33.8819 73.5,32.5 Z"/></g>
<g><path style="opacity:1" fill="#77b7a7" d="M 39.5,38.5 C 35.2065,46.2901 31.2065,54.2901 27.5,62.5C 27.7472,63.7133 28.4138,64.38 29.5,64.5C 28.791,65.404 27.791,65.7373 26.5,65.5C 26.7989,63.396 26.4656,61.396 25.5,59.5C 24.8165,59.8627 24.1499,60.1961 23.5,60.5C 25.1122,58.7024 26.6122,56.7024 28,54.5C 28.8196,49.8491 30.3196,45.5158 32.5,41.5C 32.5,40.8333 32.8333,40.5 33.5,40.5C 35.9032,40.607 37.7365,39.607 39,37.5C 39.3988,37.7284 39.5654,38.0618 39.5,38.5 Z"/></g>
<g><path style="opacity:1" fill="#320d02" d="M 255.5,63.5 C 255.5,66.8333 255.5,70.1667 255.5,73.5C 246.803,77.1744 238.803,81.8411 231.5,87.5C 228.807,88.5515 226.14,89.5515 223.5,90.5C 223.744,87.7374 225.077,85.5707 227.5,84C 233.505,78.2428 240.005,73.0761 247,68.5C 248.123,65.7513 249.623,63.2513 251.5,61C 249.711,60.4795 248.044,60.8129 246.5,62C 239.62,67.0538 232.62,71.8871 225.5,76.5C 223.202,76.4301 220.868,76.4301 218.5,76.5C 219.5,75.1667 220.5,73.8333 221.5,72.5C 220.603,72.3309 219.603,71.9976 218.5,71.5C 222.612,65.8853 227.278,60.7187 232.5,56C 231.725,54.7705 230.725,54.4372 229.5,55C 225.318,57.9259 221.318,61.0925 217.5,64.5C 216.833,63.5 216.167,62.5 215.5,61.5C 213.587,62.373 211.753,63.373 210,64.5C 209.147,62.8753 208.147,62.5419 207,63.5C 206.051,59.6221 204.885,59.6221 203.5,63.5C 202.702,63.0431 202.369,62.3764 202.5,61.5C 202.5,61.1667 202.5,60.8333 202.5,60.5C 208.061,57.1075 212.394,52.6075 215.5,47C 224.013,39.5866 232.68,32.4199 241.5,25.5C 242.5,25.1667 243.167,24.5 243.5,23.5C 244.873,23.6567 246.207,23.49 247.5,23C 249.35,20.9824 251.35,19.1491 253.5,17.5C 254.521,18.0016 254.688,18.6683 254,19.5C 247.712,23.7876 242.045,28.7876 237,34.5C 236.535,35.9308 235.701,37.0975 234.5,38C 235.167,38.3333 235.833,38.6667 236.5,39C 231.821,42.2353 226.821,45.9019 221.5,50C 222.715,52.0955 223.549,51.9288 224,49.5C 225.912,50.6919 227.912,51.6919 230,52.5C 231.413,50.5864 233.247,49.2531 235.5,48.5C 239.779,48.9176 244.112,50.0842 248.5,52C 247.833,53 247.167,54 246.5,55C 247.449,55.6172 248.282,55.4506 249,54.5C 251.084,57.6658 253.25,60.6658 255.5,63.5 Z"/></g>
<g><path style="opacity:1" fill="#3e1203" d="M 32.5,41.5 C 30.3196,45.5158 28.8196,49.8491 28,54.5C 26.6122,56.7024 25.1122,58.7024 23.5,60.5C 22.5,63.1667 21.5,65.8333 20.5,68.5C 20.7852,66.712 20.4519,65.0453 19.5,63.5C 17.393,65.5302 15.393,67.6969 13.5,70C 12.6683,70.6877 12.0016,70.521 11.5,69.5C 13.3031,66.0607 14.9697,62.5607 16.5,59C 14.8788,55.6876 14.5455,55.6876 15.5,59C 13.1873,59.662 10.854,60.162 8.5,60.5C 6.72832,66.264 3.72832,71.264 -0.5,75.5C -0.5,72.5 -0.5,69.5 -0.5,66.5C 2.32461,58.5573 5.15794,50.5573 8,42.5C 8.37424,43.4162 8.87424,44.2496 9.5,45C 8.94926,49.5655 8.94926,54.0655 9.5,58.5C 10.8139,57.6872 11.9805,56.6872 13,55.5C 15.8533,48.9593 19.3533,42.7926 23.5,37C 25.2889,36.4795 26.9556,36.8129 28.5,38C 29.7051,39.3756 31.0384,40.5423 32.5,41.5 Z"/></g>
<g><path style="opacity:1" fill="#43301e" d="M 48.5,29.5 C 46.9663,31.3421 47.2997,32.6754 49.5,33.5C 51.8948,32.4775 52.8948,33.4775 52.5,36.5C 50.2034,38.2941 48.0367,40.2941 46,42.5C 43.2467,47.0076 40.2467,51.3409 37,55.5C 36.7425,60.0598 34.5758,63.0598 30.5,64.5C 30.1667,64.5 29.8333,64.5 29.5,64.5C 28.4138,64.38 27.7472,63.7133 27.5,62.5C 31.2065,54.2901 35.2065,46.2901 39.5,38.5C 42.1395,35.1938 45.1395,32.1938 48.5,29.5 Z"/></g>
<g><path style="opacity:1" fill="#2d1105" d="M 141.5,32.5 C 142.492,32.3284 143.158,32.6618 143.5,33.5C 139.599,37.6081 136.099,42.2748 133,47.5C 131.451,50.3117 130.618,53.3117 130.5,56.5C 129.833,57.8333 129.167,59.1667 128.5,60.5C 127.833,60.5 127.5,60.8333 127.5,61.5C 123.99,57.4215 123.157,52.7549 125,47.5C 127.078,43.7498 129.244,40.0831 131.5,36.5C 133.517,35.8257 135.183,34.6591 136.5,33C 138.134,32.5065 139.801,32.3398 141.5,32.5 Z"/></g>
<g><path style="opacity:1" fill="#775f34" d="M 181.5,47.5 C 181.5,49.5 181.5,51.5 181.5,53.5C 182.833,53.5 184.167,53.5 185.5,53.5C 185.325,51.3792 185.659,49.3792 186.5,47.5C 191.387,47.9255 193.387,50.5921 192.5,55.5C 191.883,55.6107 191.383,55.944 191,56.5C 186.348,54.8166 181.515,54.15 176.5,54.5C 176.5,53.5 176.5,52.5 176.5,51.5C 176.557,50.391 176.89,49.391 177.5,48.5C 178.959,48.5674 180.292,48.2341 181.5,47.5 Z"/></g>
<g><path style="opacity:1" fill="#b4934e" d="M 181.5,47.5 C 183.167,47.5 184.833,47.5 186.5,47.5C 185.659,49.3792 185.325,51.3792 185.5,53.5C 184.167,53.5 182.833,53.5 181.5,53.5C 181.5,51.5 181.5,49.5 181.5,47.5 Z"/></g>
<g><path style="opacity:1" fill="#391f0d" d="M 129.5,30.5 C 130.15,30.8039 130.817,31.1373 131.5,31.5C 133.27,28.8066 133.937,25.8066 133.5,22.5C 134.167,22.5 134.5,22.8333 134.5,23.5C 134.993,25.8056 135.326,28.139 135.5,30.5C 137.786,30.595 139.786,31.2616 141.5,32.5C 139.801,32.3398 138.134,32.5065 136.5,33C 135.183,34.6591 133.517,35.8257 131.5,36.5C 129.244,40.0831 127.078,43.7498 125,47.5C 123.157,52.7549 123.99,57.4215 127.5,61.5C 126.739,62.3909 125.739,63.0576 124.5,63.5C 122.393,60.6715 120.726,57.6715 119.5,54.5C 122.326,48.4927 124.326,42.1594 125.5,35.5C 122.728,33.5662 120.895,34.2329 120,37.5C 116.432,48.8841 112.099,59.8841 107,70.5C 105.353,77.0697 104.353,83.7364 104,90.5C 102.188,92.3003 100.355,93.9669 98.5,95.5C 98.1667,95.5 97.8333,95.5 97.5,95.5C 98.0159,86.0375 99.3493,76.7042 101.5,67.5C 98.3661,68.9256 95.0327,69.7589 91.5,70C 87.6178,74.1157 82.9511,75.6157 77.5,74.5C 76.696,73.0589 76.0294,71.5589 75.5,70C 76.7073,68.6998 77.3739,67.1998 77.5,65.5C 80.9536,65.7332 81.9536,64.3999 80.5,61.5C 84.4392,58.5801 88.4392,55.5801 92.5,52.5C 95.2608,48.6496 98.2608,44.9829 101.5,41.5C 103.81,39.5175 106.477,38.5175 109.5,38.5C 107.91,40.2338 105.91,41.4005 103.5,42C 99.1376,47.0253 94.8042,52.0253 90.5,57C 88.247,58.7489 85.9137,60.2489 83.5,61.5C 83.7589,64.4797 82.4256,66.313 79.5,67C 76.9688,72.1277 77.8022,72.6277 82,68.5C 81.9725,70.4174 81.1392,72.084 79.5,73.5C 79.8333,73.8333 80.1667,74.1667 80.5,74.5C 83.0717,70.761 86.405,67.9276 90.5,66C 96.366,60.4687 101.866,54.6353 107,48.5C 110.066,43.6083 112.899,38.6083 115.5,33.5C 115.167,33.1667 114.833,32.8333 114.5,32.5C 113.712,33.7701 112.712,34.7701 111.5,35.5C 111.5,34.8333 111.5,34.1667 111.5,33.5C 112.309,31.7078 112.809,29.7078 113,27.5C 114.46,25.5343 116.127,23.8677 118,22.5C 119.817,25.1203 121.984,27.6203 124.5,30C 126.329,30.2735 127.829,31.1068 129,32.5C 129.464,31.9056 129.631,31.2389 129.5,30.5 Z"/></g>
<g><path style="opacity:1" fill="#824013" d="M 166.5,41.5 C 168.605,44.1997 170.271,47.1997 171.5,50.5C 169.649,53.3724 167.983,56.3724 166.5,59.5C 166.012,56.2893 166.679,53.456 168.5,51C 167.295,49.6244 165.962,48.4577 164.5,47.5C 162.447,46.4664 160.78,44.9664 159.5,43C 160.833,42.3333 162.167,42.3333 163.5,43C 167.287,49.1921 168.287,48.6921 166.5,41.5 Z"/></g>
<g><path style="opacity:1" fill="#676753" d="M 196.5,39.5 C 197.609,39.5569 198.609,39.8902 199.5,40.5C 200.891,42.5887 201.558,44.922 201.5,47.5C 201.438,52.6621 200.771,52.6621 199.5,47.5C 199.167,48 198.833,48.5 198.5,49C 199.717,51.368 200.551,53.868 201,56.5C 201.333,56.1667 201.667,55.8333 202,55.5C 202.278,56.4158 202.778,57.0825 203.5,57.5C 202.89,58.391 202.557,59.391 202.5,60.5C 202.5,60.8333 202.5,61.1667 202.5,61.5C 202.167,61.5 201.833,61.5 201.5,61.5C 201.5,60.8333 201.167,60.5 200.5,60.5C 199.761,60.631 199.094,60.4643 198.5,60C 199.849,58.3646 199.682,56.8646 198,55.5C 196.608,57.8418 195.775,57.8418 195.5,55.5C 194.425,53.8427 193.758,52.0093 193.5,50C 194.562,48.159 195.562,46.3257 196.5,44.5C 197.497,44.5299 198.164,44.0299 198.5,43C 198.022,41.6974 197.355,40.5307 196.5,39.5 Z"/></g>
<g><path style="opacity:1" fill="#0c0502" d="M 162.5,53.5 C 163.992,54.6074 164.992,56.1074 165.5,58C 164.418,61.8277 163.418,65.661 162.5,69.5C 161.801,62.8868 158.134,60.7201 151.5,63C 147.077,64.579 146.744,66.4123 150.5,68.5C 151.63,69.6223 152.297,70.9557 152.5,72.5C 152.167,73.5 151.5,74.1667 150.5,74.5C 149.167,73.5 147.833,72.5 146.5,71.5C 146.167,70.5 145.5,69.8333 144.5,69.5C 143.5,68.8333 142.5,68.1667 141.5,67.5C 140.833,67.5 140.167,67.5 139.5,67.5C 139.018,66.5837 138.685,65.5837 138.5,64.5C 139.864,59.7033 141.53,55.0366 143.5,50.5C 145.485,47.0199 147.985,44.0199 151,41.5C 152.626,42.2887 154.126,43.2887 155.5,44.5C 157.467,47.7986 159.801,50.7986 162.5,53.5 Z"/></g>
<g><path style="opacity:1" fill="#231f1b" d="M 176.5,51.5 C 176.5,52.5 176.5,53.5 176.5,54.5C 181.515,54.15 186.348,54.8166 191,56.5C 191.383,55.944 191.883,55.6107 192.5,55.5C 193.5,55.5 194.5,55.5 195.5,55.5C 195.775,57.8418 196.608,57.8418 198,55.5C 199.682,56.8646 199.849,58.3646 198.5,60C 199.094,60.4643 199.761,60.631 200.5,60.5C 198.269,67.6585 196.935,74.9918 196.5,82.5C 193.875,83.4657 193.875,84.4657 196.5,85.5C 194.97,87.2262 193.97,89.2262 193.5,91.5C 193.624,92.1067 193.957,92.44 194.5,92.5C 193.248,94.0009 192.248,95.6675 191.5,97.5C 190.292,96.7659 188.959,96.4326 187.5,96.5C 188.364,92.3181 189.697,88.3181 191.5,84.5C 192.695,84.1344 193.361,83.301 193.5,82C 192.491,80.8319 191.491,79.6652 190.5,78.5C 190.624,77.8933 190.957,77.56 191.5,77.5C 193.195,76.1786 194.195,73.8453 194.5,70.5C 194.333,69.8333 194.167,69.1667 194,68.5C 193.722,69.4158 193.222,70.0825 192.5,70.5C 191.833,70.5 191.5,70.1667 191.5,69.5C 191.665,66.4816 191.498,63.4816 191,60.5C 187.076,57.9359 184.076,58.9359 182,63.5C 180.474,68.7611 181.974,72.7611 186.5,75.5C 186.291,76.9217 185.791,78.255 185,79.5C 183.369,75.8788 181.035,72.8788 178,70.5C 177.667,71.1667 177.333,71.8333 177,72.5C 176.245,66.434 178.078,61.2674 182.5,57C 179.832,56.433 177.166,55.933 174.5,55.5C 174.229,53.6203 174.896,52.287 176.5,51.5 Z"/></g>
<g><path style="opacity:1" fill="#b26b36" d="M 85.5,37.5 C 83.9062,38.983 82.2395,40.483 80.5,42C 81.448,42.4828 82.448,42.6495 83.5,42.5C 85.258,42.8769 86.9246,43.5435 88.5,44.5C 89.8333,45.5 89.8333,46.5 88.5,47.5C 84.2189,50.8861 79.7189,53.8861 75,56.5C 74.586,56.0426 74.086,55.7093 73.5,55.5C 73.8104,57.2012 73.3104,58.8678 72,60.5C 70.3005,59.5939 68.4672,59.2606 66.5,59.5C 66.6168,61.4835 65.9501,63.1502 64.5,64.5C 64.8333,65.1667 65.1667,65.8333 65.5,66.5C 63.9928,67.7388 62.8261,67.4054 62,65.5C 61.2496,66.1258 60.4162,66.6258 59.5,67C 59.8333,67.3333 60.1667,67.6667 60.5,68C 57.3795,70.446 55.0462,73.446 53.5,77C 56.3591,81.0574 55.3591,82.2241 50.5,80.5C 52.0873,77.8306 52.9206,74.8306 53,71.5C 60.3006,62.8624 68.8006,55.6957 78.5,50C 79.3366,48.9887 79.67,47.8221 79.5,46.5C 75.624,44.8782 71.9574,45.2115 68.5,47.5C 64.4546,49.0496 60.788,51.2162 57.5,54C 56.2539,56.5934 54.9206,59.0934 53.5,61.5C 52.1779,61.33 51.0113,61.6634 50,62.5C 48.4579,66.1508 46.7912,69.8175 45,73.5C 42.4377,71.4926 39.6044,71.1593 36.5,72.5C 37.4463,66.6962 40.613,62.3629 46,59.5C 46.8271,58.3379 47.6604,57.1712 48.5,56C 48.4301,55.2352 48.0967,54.7352 47.5,54.5C 47.8333,53.8333 48.1667,53.1667 48.5,52.5C 49.5,50.8333 50.8333,49.5 52.5,48.5C 56.0244,48.0711 59.0244,46.5711 61.5,44C 65.749,42.8744 70.0823,42.2077 74.5,42C 78.188,40.4873 81.8546,38.9873 85.5,37.5 Z"/></g>
<g><path style="opacity:1" fill="#ceb190" d="M 68.5,47.5 C 66.1928,50.1692 64.1928,53.1692 62.5,56.5C 59.2052,58.2968 56.3719,60.6302 54,63.5C 53.5357,62.9056 53.369,62.2389 53.5,61.5C 54.9206,59.0934 56.2539,56.5934 57.5,54C 60.788,51.2162 64.4546,49.0496 68.5,47.5 Z"/></g>
<g><path style="opacity:1" fill="#240e02" d="M 109.5,38.5 C 109.932,37.2905 110.599,36.2905 111.5,35.5C 112.712,34.7701 113.712,33.7701 114.5,32.5C 114.833,32.8333 115.167,33.1667 115.5,33.5C 112.899,38.6083 110.066,43.6083 107,48.5C 101.866,54.6353 96.366,60.4687 90.5,66C 86.405,67.9276 83.0717,70.761 80.5,74.5C 80.1667,74.1667 79.8333,73.8333 79.5,73.5C 81.1392,72.084 81.9725,70.4174 82,68.5C 77.8022,72.6277 76.9688,72.1277 79.5,67C 82.4256,66.313 83.7589,64.4797 83.5,61.5C 85.9137,60.2489 88.247,58.7489 90.5,57C 94.8042,52.0253 99.1376,47.0253 103.5,42C 105.91,41.4005 107.91,40.2338 109.5,38.5 Z"/></g>
<g><path style="opacity:1" fill="#110905" d="M 176.5,46.5 C 177.338,46.8417 177.672,47.5084 177.5,48.5C 176.89,49.391 176.557,50.391 176.5,51.5C 174.896,52.287 174.229,53.6203 174.5,55.5C 177.166,55.933 179.832,56.433 182.5,57C 178.078,61.2674 176.245,66.434 177,72.5C 177.333,71.8333 177.667,71.1667 178,70.5C 181.035,72.8788 183.369,75.8788 185,79.5C 185.791,78.255 186.291,76.9217 186.5,75.5C 187.822,75.67 188.989,75.3366 190,74.5C 190.198,72.6183 190.698,70.9516 191.5,69.5C 191.5,70.1667 191.833,70.5 192.5,70.5C 192.326,72.861 191.993,75.1944 191.5,77.5C 190.957,77.56 190.624,77.8933 190.5,78.5C 191.491,79.6652 192.491,80.8319 193.5,82C 193.361,83.301 192.695,84.1344 191.5,84.5C 191.5,84.1667 191.5,83.8333 191.5,83.5C 191.38,82.4138 190.713,81.7472 189.5,81.5C 187.578,81.8008 185.912,82.4675 184.5,83.5C 183.193,84.1534 181.86,84.8201 180.5,85.5C 179.702,85.0431 179.369,84.3764 179.5,83.5C 179.5,81.5 179.5,79.5 179.5,77.5C 174.823,77.6715 171.156,79.6715 168.5,83.5C 167.893,83.3764 167.56,83.0431 167.5,82.5C 167.672,81.5084 167.338,80.8417 166.5,80.5C 165.61,78.2181 165.444,75.8848 166,73.5C 169.018,64.2744 172.518,55.2744 176.5,46.5 Z"/></g>
<g><path style="opacity:1" fill="#391002" d="M 173.5,57.5 C 174.5,57.5 175.5,57.5 176.5,57.5C 176.037,60.4824 175.704,63.4824 175.5,66.5C 173.052,66.9153 171.719,65.9153 171.5,63.5C 172.178,61.484 172.844,59.484 173.5,57.5 Z"/></g>
<g><path style="opacity:1" fill="#759886" d="M 200.5,60.5 C 201.167,60.5 201.5,60.8333 201.5,61.5C 200.008,68.4686 198.675,75.4686 197.5,82.5C 197.167,82.5 196.833,82.5 196.5,82.5C 196.935,74.9918 198.269,67.6585 200.5,60.5 Z"/></g>
<g><path style="opacity:1" fill="#421303" d="M 191.5,69.5 C 190.698,70.9516 190.198,72.6183 190,74.5C 188.989,75.3366 187.822,75.67 186.5,75.5C 181.974,72.7611 180.474,68.7611 182,63.5C 184.076,58.9359 187.076,57.9359 191,60.5C 191.498,63.4816 191.665,66.4816 191.5,69.5 Z"/></g>
<g><path style="opacity:1" fill="#69d8d4" d="M 29.5,64.5 C 29.8333,64.5 30.1667,64.5 30.5,64.5C 31.0967,64.7352 31.4301,65.2352 31.5,66C 28.7865,70.2538 26.7865,74.7538 25.5,79.5C 22.1013,81.947 19.9346,85.2803 19,89.5C 17.9893,94.7873 17.156,100.121 16.5,105.5C 15.8165,105.137 15.1499,104.804 14.5,104.5C 14.8404,98.792 15.507,93.1253 16.5,87.5C 18.2146,83.0686 20.2146,78.7353 22.5,74.5C 19.3514,73.9164 17.0181,75.2498 15.5,78.5C 13.3302,79.8382 11.6635,81.6716 10.5,84C 6.79261,84.9358 3.62595,86.7692 1,89.5C 0.50999,88.2068 0.343323,86.8734 0.5,85.5C 3.37597,82.7579 6.70931,80.5912 10.5,79C 13.4124,74.9251 16.7457,71.4251 20.5,68.5C 21.5,65.8333 22.5,63.1667 23.5,60.5C 24.1499,60.1961 24.8165,59.8627 25.5,59.5C 26.4656,61.396 26.7989,63.396 26.5,65.5C 27.791,65.7373 28.791,65.404 29.5,64.5 Z"/></g>
<g><path style="opacity:1" fill="#511a08" d="M 20.5,68.5 C 16.7457,71.4251 13.4124,74.9251 10.5,79C 6.70931,80.5912 3.37597,82.7579 0.5,85.5C 0.166667,85.5 -0.166667,85.5 -0.5,85.5C -0.5,82.1667 -0.5,78.8333 -0.5,75.5C 3.72832,71.264 6.72832,66.264 8.5,60.5C 10.854,60.162 13.1873,59.662 15.5,59C 14.5455,55.6876 14.8788,55.6876 16.5,59C 14.9697,62.5607 13.3031,66.0607 11.5,69.5C 12.0016,70.521 12.6683,70.6877 13.5,70C 15.393,67.6969 17.393,65.5302 19.5,63.5C 20.4519,65.0453 20.7852,66.712 20.5,68.5 Z"/></g>
<g><path style="opacity:1" fill="#6ca494" d="M 191.5,77.5 C 191.993,75.1944 192.326,72.861 192.5,70.5C 193.222,70.0825 193.722,69.4158 194,68.5C 194.167,69.1667 194.333,69.8333 194.5,70.5C 194.195,73.8453 193.195,76.1786 191.5,77.5 Z"/></g>
<g><path style="opacity:1" fill="#906d3a" d="M 176.5,46.5 C 172.518,55.2744 169.018,64.2744 166,73.5C 165.444,75.8848 165.61,78.2181 166.5,80.5C 165.167,80.5 163.833,80.5 162.5,80.5C 162.5,79.1667 162.5,77.8333 162.5,76.5C 163.677,70.7922 165.01,65.1255 166.5,59.5C 167.983,56.3724 169.649,53.3724 171.5,50.5C 172.434,49.4324 172.768,48.099 172.5,46.5C 173.833,46.5 175.167,46.5 176.5,46.5 Z"/></g>
<g><path style="opacity:1" fill="#d78c4e" d="M 50.5,80.5 C 49.1667,81.1667 48.1667,82.1667 47.5,83.5C 41.9584,86.3084 38.1251,90.6418 36,96.5C 33.4533,94.251 30.9533,94.5843 28.5,97.5C 27.1973,96.2822 26.1973,96.6155 25.5,98.5C 24.549,97.6744 23.549,97.5078 22.5,98C 21.565,100.381 21.2317,102.881 21.5,105.5C 21.1667,105.5 20.8333,105.5 20.5,105.5C 20.447,99.8044 20.7803,94.1377 21.5,88.5C 23.2038,85.7442 24.5371,82.7442 25.5,79.5C 30.7265,69.2759 38.0598,60.9426 47.5,54.5C 48.0967,54.7352 48.4301,55.2352 48.5,56C 47.6604,57.1712 46.8271,58.3379 46,59.5C 40.613,62.3629 37.4463,66.6962 36.5,72.5C 39.6044,71.1593 42.4377,71.4926 45,73.5C 46.7912,69.8175 48.4579,66.1508 50,62.5C 51.0113,61.6634 52.1779,61.33 53.5,61.5C 53.369,62.2389 53.5357,62.9056 54,63.5C 56.3719,60.6302 59.2052,58.2968 62.5,56.5C 64.1928,53.1692 66.1928,50.1692 68.5,47.5C 71.9574,45.2115 75.624,44.8782 79.5,46.5C 79.67,47.8221 79.3366,48.9887 78.5,50C 68.8006,55.6957 60.3006,62.8624 53,71.5C 52.9206,74.8306 52.0873,77.8306 50.5,80.5 Z"/></g>
<g><path style="opacity:1" fill="#4a280f" d="M 80.5,61.5 C 81.9536,64.3999 80.9536,65.7332 77.5,65.5C 77.3739,67.1998 76.7073,68.6998 75.5,70C 76.0294,71.5589 76.696,73.0589 77.5,74.5C 82.9511,75.6157 87.6178,74.1157 91.5,70C 95.0327,69.7589 98.3661,68.9256 101.5,67.5C 99.3493,76.7042 98.0159,86.0375 97.5,95.5C 97.41,97.6963 97.0767,99.863 96.5,102C 97.0735,103.607 97.7402,105.107 98.5,106.5C 92.327,103.344 86.6603,99.3445 81.5,94.5C 83.8594,94.5438 86.3594,94.2105 89,93.5C 92.2059,86.8751 93.5392,79.8751 93,72.5C 90.517,75.4887 87.3504,76.8221 83.5,76.5C 83.5,78.8333 83.5,81.1667 83.5,83.5C 78.6269,83.373 76.6269,85.7064 77.5,90.5C 74.9855,88.8184 72.9855,86.6517 71.5,84C 71.7591,82.7387 72.4258,81.7387 73.5,81C 76.633,80.6075 79.633,79.7741 82.5,78.5C 77.9005,77.8732 74.9005,75.3732 73.5,71C 75.0168,67.0909 77.3502,63.9243 80.5,61.5 Z"/></g>
<g><path style="opacity:1" fill="#441405" d="M 225.5,76.5 C 223.396,78.0987 221.396,79.932 219.5,82C 217.888,82.7203 216.388,82.5536 215,81.5C 213.349,84.8022 211.682,88.1356 210,91.5C 208.549,93.4641 206.716,94.7974 204.5,95.5C 205.864,93.8089 207.197,92.1423 208.5,90.5C 209.481,88.604 210.481,86.604 211.5,84.5C 210.078,83.4528 208.578,83.4528 207,84.5C 205.357,83.6854 203.857,82.6854 202.5,81.5C 202.44,80.9569 202.107,80.6236 201.5,80.5C 200.735,81.6119 199.735,82.2786 198.5,82.5C 198.167,82.5 197.833,82.5 197.5,82.5C 198.675,75.4686 200.008,68.4686 201.5,61.5C 201.833,61.5 202.167,61.5 202.5,61.5C 202.369,62.3764 202.702,63.0431 203.5,63.5C 204.885,59.6221 206.051,59.6221 207,63.5C 208.147,62.5419 209.147,62.8753 210,64.5C 211.753,63.373 213.587,62.373 215.5,61.5C 216.167,62.5 216.833,63.5 217.5,64.5C 221.318,61.0925 225.318,57.9259 229.5,55C 230.725,54.4372 231.725,54.7705 232.5,56C 227.278,60.7187 222.612,65.8853 218.5,71.5C 219.603,71.9976 220.603,72.3309 221.5,72.5C 220.5,73.8333 219.5,75.1667 218.5,76.5C 220.868,76.4301 223.202,76.4301 225.5,76.5 Z"/></g>
<g><path style="opacity:1" fill="#231407" d="M 81.5,94.5 C 79.1667,94.1667 77.8333,92.8333 77.5,90.5C 76.6269,85.7064 78.6269,83.373 83.5,83.5C 83.5,81.1667 83.5,78.8333 83.5,76.5C 87.3504,76.8221 90.517,75.4887 93,72.5C 93.5392,79.8751 92.2059,86.8751 89,93.5C 86.3594,94.2105 83.8594,94.5438 81.5,94.5 Z"/></g>
<g><path style="opacity:1" fill="#a37c48" d="M 196.5,82.5 C 196.833,82.5 197.167,82.5 197.5,82.5C 197.833,82.5 198.167,82.5 198.5,82.5C 198.5,84.1667 198.5,85.8333 198.5,87.5C 197.197,89.1423 195.864,90.8089 194.5,92.5C 193.957,92.44 193.624,92.1067 193.5,91.5C 193.97,89.2262 194.97,87.2262 196.5,85.5C 193.875,84.4657 193.875,83.4657 196.5,82.5 Z"/></g>
<g><path style="opacity:1" fill="#191513" d="M 202.5,81.5 C 203.857,82.6854 205.357,83.6854 207,84.5C 208.578,83.4528 210.078,83.4528 211.5,84.5C 210.481,86.604 209.481,88.604 208.5,90.5C 208.5,89.5 208.5,88.5 208.5,87.5C 206.507,86.4633 204.507,86.7966 202.5,88.5C 202.162,86.3448 202.162,84.0115 202.5,81.5 Z"/></g>
<g><path style="opacity:1" fill="#b49259" d="M 191.5,83.5 C 190.107,86.9277 187.774,89.5944 184.5,91.5C 184.051,88.9564 184.051,86.2898 184.5,83.5C 185.912,82.4675 187.578,81.8008 189.5,81.5C 190.713,81.7472 191.38,82.4138 191.5,83.5 Z"/></g>
<g><path style="opacity:1" fill="#5f5139" d="M 179.5,83.5 C 179.369,84.3764 179.702,85.0431 180.5,85.5C 181.86,84.8201 183.193,84.1534 184.5,83.5C 184.051,86.2898 184.051,88.9564 184.5,91.5C 187.774,89.5944 190.107,86.9277 191.5,83.5C 191.5,83.8333 191.5,84.1667 191.5,84.5C 189.697,88.3181 188.364,92.3181 187.5,96.5C 188.959,96.4326 190.292,96.7659 191.5,97.5C 192.492,97.3284 193.158,97.6618 193.5,98.5C 190.689,101.816 187.023,103.816 182.5,104.5C 183.683,101.865 184.516,99.1985 185,96.5C 183.94,96.2545 182.773,96.2545 181.5,96.5C 180.833,93.8333 180.167,91.1667 179.5,88.5C 178.583,89.1272 177.583,89.4606 176.5,89.5C 176.992,87.1815 177.992,85.1815 179.5,83.5 Z"/></g>
<g><path style="opacity:1" fill="#5b3519" d="M 141.5,45.5 C 140.059,49.7145 138.059,53.7145 135.5,57.5C 136.689,58.4287 138.022,58.762 139.5,58.5C 139.292,54.9152 140.625,52.2485 143.5,50.5C 141.53,55.0366 139.864,59.7033 138.5,64.5C 138.685,65.5837 139.018,66.5837 139.5,67.5C 136.803,69.7035 135.137,72.5369 134.5,76C 135.966,78.4261 137.966,80.4261 140.5,82C 139.459,90.161 140.626,89.9944 144,81.5C 144.495,78.4686 144.329,75.4686 143.5,72.5C 144.791,72.7373 145.791,72.404 146.5,71.5C 147.833,72.5 149.167,73.5 150.5,74.5C 149.791,75.404 148.791,75.7373 147.5,75.5C 147.338,77.5273 147.505,79.5273 148,81.5C 149.856,78.4443 151.689,75.4443 153.5,72.5C 155.696,76.2407 156.029,80.2407 154.5,84.5C 155.376,84.6309 156.043,84.2975 156.5,83.5C 158.131,78.5811 160.131,73.9144 162.5,69.5C 163.418,65.661 164.418,61.8277 165.5,58C 164.992,56.1074 163.992,54.6074 162.5,53.5C 163.179,49.8998 164.013,50.2332 165,54.5C 165.334,52.1527 165.167,49.8194 164.5,47.5C 165.962,48.4577 167.295,49.6244 168.5,51C 166.679,53.456 166.012,56.2893 166.5,59.5C 165.01,65.1255 163.677,70.7922 162.5,76.5C 159.57,77.7007 158.904,79.7007 160.5,82.5C 159.524,88.4571 156.857,93.4571 152.5,97.5C 150.827,95.9137 148.827,95.2471 146.5,95.5C 146.715,93.8212 146.048,92.8212 144.5,92.5C 141.878,91.9669 139.378,90.9669 137,89.5C 135.352,85.0402 133.852,80.5402 132.5,76C 133.03,73.7927 134.03,71.7927 135.5,70C 134.856,67.26 133.689,64.76 132,62.5C 131.184,61.1772 130.017,60.5106 128.5,60.5C 129.167,59.1667 129.833,57.8333 130.5,56.5C 132.017,56.4894 133.184,55.8228 134,54.5C 136.711,51.6268 139.211,48.6268 141.5,45.5 Z"/></g>
<g><path style="opacity:1" fill="#c9a564" d="M 154.5,84.5 C 154.5,85.8333 154.5,87.1667 154.5,88.5C 153.5,88.5 152.5,88.5 151.5,88.5C 151.502,90.8309 150.669,92.8309 149,94.5C 148.703,91.0154 149.369,87.6821 151,84.5C 152.145,83.3157 153.312,83.3157 154.5,84.5 Z"/></g>
<g><path style="opacity:1" fill="#debb73" d="M 152.5,72.5 C 152.833,72.5 153.167,72.5 153.5,72.5C 151.689,75.4443 149.856,78.4443 148,81.5C 147.505,79.5273 147.338,77.5273 147.5,75.5C 148.791,75.7373 149.791,75.404 150.5,74.5C 151.5,74.1667 152.167,73.5 152.5,72.5 Z"/></g>
<g><path style="opacity:1" fill="#815d34" d="M 139.5,67.5 C 140.167,67.5 140.833,67.5 141.5,67.5C 140.207,69.2959 138.707,70.9625 137,72.5C 136.517,73.448 136.351,74.448 136.5,75.5C 138.124,75.3601 139.29,76.0267 140,77.5C 139.938,73.77 141.438,71.1033 144.5,69.5C 145.5,69.8333 146.167,70.5 146.5,71.5C 145.791,72.404 144.791,72.7373 143.5,72.5C 144.329,75.4686 144.495,78.4686 144,81.5C 140.626,89.9944 139.459,90.161 140.5,82C 137.966,80.4261 135.966,78.4261 134.5,76C 135.137,72.5369 136.803,69.7035 139.5,67.5 Z"/></g>
<g><path style="opacity:1" fill="#c19b5f" d="M 141.5,67.5 C 142.5,68.1667 143.5,68.8333 144.5,69.5C 141.438,71.1033 139.938,73.77 140,77.5C 139.29,76.0267 138.124,75.3601 136.5,75.5C 136.351,74.448 136.517,73.448 137,72.5C 138.707,70.9625 140.207,69.2959 141.5,67.5 Z"/></g>
<g><path style="opacity:1" fill="#241208" d="M 162.5,69.5 C 160.131,73.9144 158.131,78.5811 156.5,83.5C 156.043,84.2975 155.376,84.6309 154.5,84.5C 156.029,80.2407 155.696,76.2407 153.5,72.5C 153.167,72.5 152.833,72.5 152.5,72.5C 152.297,70.9557 151.63,69.6223 150.5,68.5C 146.744,66.4123 147.077,64.579 151.5,63C 158.134,60.7201 161.801,62.8868 162.5,69.5 Z"/></g>
<g><path style="opacity:1" fill="#3b473c" d="M 15.5,78.5 C 14.2222,80.7991 12.8889,83.1324 11.5,85.5C 9.95467,86.4519 8.28801,86.7852 6.5,86.5C 6.88077,88.9418 6.2141,89.6085 4.5,88.5C 3.5502,92.0824 1.88353,95.0824 -0.5,97.5C -0.5,93.5 -0.5,89.5 -0.5,85.5C -0.166667,85.5 0.166667,85.5 0.5,85.5C 0.343323,86.8734 0.50999,88.2068 1,89.5C 3.62595,86.7692 6.79261,84.9358 10.5,84C 11.6635,81.6716 13.3302,79.8382 15.5,78.5 Z"/></g>
<g><path style="opacity:1" fill="#2c2116" d="M 16.5,87.5 C 15.2237,89.5625 14.3903,91.8958 14,94.5C 13.5005,100.491 13.3338,106.491 13.5,112.5C 13.5,113.167 13.5,113.833 13.5,114.5C 10.8286,116.773 9.49525,119.773 9.5,123.5C 7.29918,130.103 5.29918,136.769 3.5,143.5C 2.16667,143.5 0.833333,143.5 -0.5,143.5C -0.5,128.167 -0.5,112.833 -0.5,97.5C 1.88353,95.0824 3.5502,92.0824 4.5,88.5C 6.2141,89.6085 6.88077,88.9418 6.5,86.5C 8.28801,86.7852 9.95467,86.4519 11.5,85.5C 12.8889,83.1324 14.2222,80.7991 15.5,78.5C 17.0181,75.2498 19.3514,73.9164 22.5,74.5C 20.2146,78.7353 18.2146,83.0686 16.5,87.5 Z"/></g>
<g><path style="opacity:1" fill="#6db1a3" d="M 202.5,81.5 C 202.162,84.0115 202.162,86.3448 202.5,88.5C 204.507,86.7966 206.507,86.4633 208.5,87.5C 207.833,87.5 207.5,87.8333 207.5,88.5C 204.821,88.6726 202.487,89.6726 200.5,91.5C 199.289,92.2739 199.289,93.1072 200.5,94C 199.054,95.298 197.721,95.4646 196.5,94.5C 197.117,92.7708 198.117,91.2708 199.5,90C 198.748,89.3292 198.414,88.4959 198.5,87.5C 198.5,85.8333 198.5,84.1667 198.5,82.5C 199.735,82.2786 200.735,81.6119 201.5,80.5C 202.107,80.6236 202.44,80.9569 202.5,81.5 Z"/></g>
<g><path style="opacity:1" fill="#5b1a04" d="M 231.5,87.5 C 232.675,87.281 233.675,87.6143 234.5,88.5C 233.674,89.451 233.508,90.451 234,91.5C 238.551,88.7209 243.051,85.2209 247.5,81C 248.448,80.5172 249.448,80.3505 250.5,80.5C 250.256,83.2626 248.923,85.4293 246.5,87C 241.833,90 237.167,93 232.5,96C 232.833,96.3333 233.167,96.6667 233.5,97C 226.755,104.527 219.088,110.86 210.5,116C 211.77,116.9 212.77,118.066 213.5,119.5C 227.508,112.485 241.508,105.485 255.5,98.5C 255.5,103.167 255.5,107.833 255.5,112.5C 248.295,114.767 241.295,117.6 234.5,121C 229.003,123.245 224.003,126.245 219.5,130C 222.077,131.25 224.743,131.584 227.5,131C 235.118,128.179 242.784,125.513 250.5,123C 249.5,122.667 248.5,122.333 247.5,122C 252.046,121.283 254.713,118.783 255.5,114.5C 255.5,118.833 255.5,123.167 255.5,127.5C 252.821,128.226 250.154,129.059 247.5,130C 237.376,130.806 227.376,131.639 217.5,132.5C 216.386,131.277 216.219,129.944 217,128.5C 218,126.833 219,125.167 220,123.5C 220.333,123.833 220.667,124.167 221,124.5C 224.617,120.888 228.783,118.054 233.5,116C 232.737,115.056 231.737,114.556 230.5,114.5C 227.128,115.701 224.128,117.534 221.5,120C 219.5,120 217.5,120 215.5,120C 213.281,125.225 210.614,130.225 207.5,135C 209.668,137.998 212.001,140.831 214.5,143.5C 205.5,143.5 196.5,143.5 187.5,143.5C 185.445,137.846 183.778,132.18 182.5,126.5C 183.412,124.405 184.579,122.405 186,120.5C 194.169,113.428 200.336,105.095 204.5,95.5C 206.716,94.7974 208.549,93.4641 210,91.5C 211.682,88.1356 213.349,84.8022 215,81.5C 216.388,82.5536 217.888,82.7203 219.5,82C 221.396,79.932 223.396,78.0987 225.5,76.5C 232.62,71.8871 239.62,67.0538 246.5,62C 248.044,60.8129 249.711,60.4795 251.5,61C 249.623,63.2513 248.123,65.7513 247,68.5C 240.005,73.0761 233.505,78.2428 227.5,84C 225.077,85.5707 223.744,87.7374 223.5,90.5C 226.14,89.5515 228.807,88.5515 231.5,87.5 Z"/></g>
<g><path style="opacity:1" fill="#140d04" d="M 115.5,72.5 C 118.962,78.07 122.462,83.7366 126,89.5C 128.217,96.6533 130.717,103.653 133.5,110.5C 133.953,113.463 135.453,115.796 138,117.5C 138.333,117.167 138.667,116.833 139,116.5C 144.009,121.676 149.175,126.676 154.5,131.5C 149.841,134.088 144.841,135.921 139.5,137C 140.167,137.333 140.833,137.667 141.5,138C 138.047,140.24 134.381,141.573 130.5,142C 131.07,139.771 132.737,137.938 135.5,136.5C 134.738,136.089 133.738,135.923 132.5,136C 133.944,134.237 134.944,132.237 135.5,130C 133.21,129.21 132.877,127.876 134.5,126C 133.815,123.205 133.315,120.372 133,117.5C 130.455,116.478 127.955,115.312 125.5,114C 126.34,112.334 125.84,112.167 124,113.5C 122.495,111.702 122.328,109.868 123.5,108C 121.675,106.534 121.175,104.701 122,102.5C 123.046,104.09 124.213,105.59 125.5,107C 129.011,107.12 129.345,105.786 126.5,103C 127.308,102.692 127.975,102.192 128.5,101.5C 127.235,98.2043 126.068,94.871 125,91.5C 123.836,91.8346 122.503,91.8346 121,91.5C 118.558,94.0482 116.892,97.0482 116,100.5C 113.386,98.5755 111.219,96.2422 109.5,93.5C 109.818,92.3527 110.484,91.5194 111.5,91C 110.452,89.2438 110.452,87.4104 111.5,85.5C 111.081,84.3279 110.415,83.3279 109.5,82.5C 111.01,78.8039 113.01,75.4706 115.5,72.5 Z"/></g>
<g><path style="opacity:1" fill="#907145" d="M 179.5,83.5 C 177.992,85.1815 176.992,87.1815 176.5,89.5C 175.728,90.6935 174.728,91.6935 173.5,92.5C 170.703,92.0334 169.369,90.3667 169.5,87.5C 167.833,87.5 166.167,87.5 164.5,87.5C 164.496,89.8421 163.663,91.8421 162,93.5C 161.331,90.9722 160.498,90.9722 159.5,93.5C 160.853,94.5237 161.52,95.857 161.5,97.5C 160.167,97.5 158.833,97.5 157.5,97.5C 158.587,90.9905 161.92,85.9905 167.5,82.5C 167.56,83.0431 167.893,83.3764 168.5,83.5C 171.156,79.6715 174.823,77.6715 179.5,77.5C 179.5,79.5 179.5,81.5 179.5,83.5 Z"/></g>
<g><path style="opacity:1" fill="#3f1102" d="M 255.5,73.5 C 255.5,81.8333 255.5,90.1667 255.5,98.5C 241.508,105.485 227.508,112.485 213.5,119.5C 212.77,118.066 211.77,116.9 210.5,116C 219.088,110.86 226.755,104.527 233.5,97C 233.167,96.6667 232.833,96.3333 232.5,96C 237.167,93 241.833,90 246.5,87C 248.923,85.4293 250.256,83.2626 250.5,80.5C 249.448,80.3505 248.448,80.5172 247.5,81C 243.051,85.2209 238.551,88.7209 234,91.5C 233.508,90.451 233.674,89.451 234.5,88.5C 233.675,87.6143 232.675,87.281 231.5,87.5C 238.803,81.8411 246.803,77.1744 255.5,73.5 Z"/></g>
<g><path style="opacity:1" fill="#2b4536" d="M 198.5,87.5 C 198.414,88.4959 198.748,89.3292 199.5,90C 198.117,91.2708 197.117,92.7708 196.5,94.5C 195.226,95.1894 195.226,96.0228 196.5,97C 195.756,98.0386 194.756,98.5386 193.5,98.5C 193.158,97.6618 192.492,97.3284 191.5,97.5C 192.248,95.6675 193.248,94.0009 194.5,92.5C 195.864,90.8089 197.197,89.1423 198.5,87.5 Z"/></g>
<g><path style="opacity:1" fill="#855c2c" d="M 119.5,54.5 C 120.726,57.6715 122.393,60.6715 124.5,63.5C 125.739,63.0576 126.739,62.3909 127.5,61.5C 127.5,60.8333 127.833,60.5 128.5,60.5C 130.017,60.5106 131.184,61.1772 132,62.5C 133.689,64.76 134.856,67.26 135.5,70C 134.03,71.7927 133.03,73.7927 132.5,76C 133.852,80.5402 135.352,85.0402 137,89.5C 139.378,90.9669 141.878,91.9669 144.5,92.5C 144.146,99.8148 147.146,101.815 153.5,98.5C 154.852,99.5244 156.185,100.524 157.5,101.5C 157.631,102.239 157.464,102.906 157,103.5C 155.989,102.663 154.822,102.33 153.5,102.5C 154.244,105.95 152.91,107.616 149.5,107.5C 149.785,105.712 149.452,104.045 148.5,102.5C 147.614,103.325 147.281,104.325 147.5,105.5C 143.803,106.008 140.136,106.674 136.5,107.5C 136.879,110.567 135.879,111.567 133.5,110.5C 130.717,103.653 128.217,96.6533 126,89.5C 122.462,83.7366 118.962,78.07 115.5,72.5C 114.569,70.9668 113.902,69.3002 113.5,67.5C 115.141,62.8659 117.141,58.5326 119.5,54.5 Z"/></g>
<g><path style="opacity:1" fill="#692e0e" d="M 162.5,76.5 C 162.5,77.8333 162.5,79.1667 162.5,80.5C 163.833,80.5 165.167,80.5 166.5,80.5C 167.338,80.8417 167.672,81.5084 167.5,82.5C 161.92,85.9905 158.587,90.9905 157.5,97.5C 158.278,98.1556 158.944,98.9889 159.5,100C 159.164,101.03 158.497,101.53 157.5,101.5C 156.185,100.524 154.852,99.5244 153.5,98.5C 147.146,101.815 144.146,99.8148 144.5,92.5C 146.048,92.8212 146.715,93.8212 146.5,95.5C 148.827,95.2471 150.827,95.9137 152.5,97.5C 156.857,93.4571 159.524,88.4571 160.5,82.5C 158.904,79.7007 159.57,77.7007 162.5,76.5 Z"/></g>
<g><path style="opacity:1" fill="#a7602a" d="M 47.5,83.5 C 46.962,85.1172 46.6287,86.7839 46.5,88.5C 45.1779,88.33 44.0113,88.6634 43,89.5C 39.5865,94.0656 36.4198,98.7323 33.5,103.5C 29.0657,104.386 26.3991,107.053 25.5,111.5C 24.5344,109.604 24.2011,107.604 24.5,105.5C 23.5,105.5 22.5,105.5 21.5,105.5C 21.2317,102.881 21.565,100.381 22.5,98C 23.549,97.5078 24.549,97.6744 25.5,98.5C 26.1973,96.6155 27.1973,96.2822 28.5,97.5C 30.9533,94.5843 33.4533,94.251 36,96.5C 38.1251,90.6418 41.9584,86.3084 47.5,83.5 Z"/></g>
<g><path style="opacity:1" fill="#4f857e" d="M 16.5,87.5 C 15.507,93.1253 14.8404,98.792 14.5,104.5C 14.8064,107.385 14.4731,110.052 13.5,112.5C 13.3338,106.491 13.5005,100.491 14,94.5C 14.3903,91.8958 15.2237,89.5625 16.5,87.5 Z"/></g>
<g><path style="opacity:1" fill="#723a0e" d="M 66.5,71.5 C 66.5,72.8333 66.5,74.1667 66.5,75.5C 64.2195,75.2537 62.2195,75.2537 60.5,75.5C 64.1803,82.0073 69.0136,87.3406 75,91.5C 76.1113,95.4722 74.9446,96.8056 71.5,95.5C 69.9991,94.2485 68.3325,93.2485 66.5,92.5C 64.8333,91.8333 63.1667,91.1667 61.5,90.5C 60.3121,91.6843 59.1455,91.6843 58,90.5C 57,92.8333 56,95.1667 55,97.5C 52.6421,99.0243 50.8088,101.024 49.5,103.5C 51.3249,106.222 53.6582,106.889 56.5,105.5C 57.0522,107.003 57.0522,108.669 56.5,110.5C 59.1761,109.992 61.8428,109.825 64.5,110C 66.0805,113.084 68.4138,115.251 71.5,116.5C 69.8333,117.833 68.1667,119.167 66.5,120.5C 65.2638,119.754 63.9305,119.421 62.5,119.5C 61.3866,113.741 58.0533,112.074 52.5,114.5C 51.9127,118.47 49.9127,119.804 46.5,118.5C 45.062,118.719 43.7287,119.219 42.5,120C 36.3926,126.029 33.2259,133.196 33,141.5C 33.7172,142.044 34.2172,142.711 34.5,143.5C 33.1667,143.5 31.8333,143.5 30.5,143.5C 29.3911,142.121 28.7245,140.455 28.5,138.5C 29.138,135.497 29.3047,132.497 29,129.5C 27.3361,131.805 25.8361,131.472 24.5,128.5C 27.1667,126.167 27.1667,123.833 24.5,121.5C 31.8361,121.148 34.5028,117.481 32.5,110.5C 32.9867,109.527 33.4867,108.527 34,107.5C 35.8255,108.571 36.9921,107.904 37.5,105.5C 40.4951,104.343 43.3284,103.676 46,103.5C 45.8218,94.4402 49.9885,87.9402 58.5,84C 57.5012,80.2756 57.3346,76.4423 58,72.5C 60.4111,72.2288 62.9111,72.5621 65.5,73.5C 65.2465,71.5992 65.5798,70.9326 66.5,71.5 Z"/></g>
<g><path style="opacity:1" fill="#7d5e30" d="M 169.5,92.5 C 169.664,95.1873 169.497,97.854 169,100.5C 167.121,102.527 165.954,104.86 165.5,107.5C 165.167,107.5 164.833,107.5 164.5,107.5C 163.265,107.721 162.265,108.388 161.5,109.5C 160.167,106.167 160.167,102.833 161.5,99.5C 164.186,97.1442 166.853,94.8109 169.5,92.5 Z"/></g>
<g><path style="opacity:1" fill="#3a1e06" d="M 61.5,90.5 C 63.1667,91.1667 64.8333,91.8333 66.5,92.5C 69.2748,98.7919 73.4414,104.125 79,108.5C 80.1178,110.765 80.9512,113.099 81.5,115.5C 74.6135,113.39 67.9469,110.724 61.5,107.5C 59.2086,105.183 59.2086,103.016 61.5,101C 60.1667,101 58.8333,101 57.5,101C 59.2537,97.6594 60.5871,94.1594 61.5,90.5 Z"/></g>
<g><path style="opacity:1" fill="#61330b" d="M 111.5,33.5 C 111.5,34.1667 111.5,34.8333 111.5,35.5C 110.599,36.2905 109.932,37.2905 109.5,38.5C 106.477,38.5175 103.81,39.5175 101.5,41.5C 98.2608,44.9829 95.2608,48.6496 92.5,52.5C 88.4392,55.5801 84.4392,58.5801 80.5,61.5C 77.3502,63.9243 75.0168,67.0909 73.5,71C 74.9005,75.3732 77.9005,77.8732 82.5,78.5C 79.633,79.7741 76.633,80.6075 73.5,81C 72.4258,81.7387 71.7591,82.7387 71.5,84C 72.9855,86.6517 74.9855,88.8184 77.5,90.5C 77.8333,92.8333 79.1667,94.1667 81.5,94.5C 86.6603,99.3445 92.327,103.344 98.5,106.5C 98.5,107.5 98.5,108.5 98.5,109.5C 99.5729,111.653 99.5729,113.653 98.5,115.5C 92.7058,110.877 87.0391,106.044 81.5,101C 78.1819,98.8709 74.8486,97.0376 71.5,95.5C 74.9446,96.8056 76.1113,95.4722 75,91.5C 69.0136,87.3406 64.1803,82.0073 60.5,75.5C 62.2195,75.2537 64.2195,75.2537 66.5,75.5C 66.5,74.1667 66.5,72.8333 66.5,71.5C 67.8333,71.5 69.1667,71.5 70.5,71.5C 70.229,67.3638 71.3957,63.6972 74,60.5C 80.8187,57.7553 86.8187,53.7553 92,48.5C 93.0086,46.9751 93.5086,45.3084 93.5,43.5C 94.552,43.6495 95.552,43.4828 96.5,43C 100.035,36.868 105.035,33.7014 111.5,33.5 Z"/></g>
<g><path style="opacity:1" fill="#72c5ba" d="M 25.5,79.5 C 24.5371,82.7442 23.2038,85.7442 21.5,88.5C 20.207,89.842 19.3736,91.5087 19,93.5C 18.3235,99.6873 18.4902,105.854 19.5,112C 19.3917,113.681 18.7251,114.848 17.5,115.5C 16.4138,115.62 15.7472,116.287 15.5,117.5C 12.3828,125.889 10.7161,134.556 10.5,143.5C 8.16667,143.5 5.83333,143.5 3.5,143.5C 5.29918,136.769 7.29918,130.103 9.5,123.5C 11.6246,120.912 12.9579,117.912 13.5,114.5C 13.5,113.833 13.5,113.167 13.5,112.5C 14.4731,110.052 14.8064,107.385 14.5,104.5C 15.1499,104.804 15.8165,105.137 16.5,105.5C 17.156,100.121 17.9893,94.7873 19,89.5C 19.9346,85.2803 22.1013,81.947 25.5,79.5 Z"/></g>
<g><path style="opacity:1" fill="#2c3d30" d="M 196.5,102.5 C 196.33,103.822 196.663,104.989 197.5,106C 190.514,112.965 183.848,120.132 177.5,127.5C 177.833,124.167 178.167,120.833 178.5,117.5C 179.5,115.833 180.833,114.5 182.5,113.5C 181.071,115.678 180.237,118.011 180,120.5C 186.082,114.923 191.582,108.923 196.5,102.5 Z"/></g>
<g><path style="opacity:1" fill="#251713" d="M 193.5,98.5 C 194.756,98.5386 195.756,98.0386 196.5,97C 195.226,96.0228 195.226,95.1894 196.5,94.5C 197.721,95.4646 199.054,95.298 200.5,94C 199.289,93.1072 199.289,92.2739 200.5,91.5C 202.487,89.6726 204.821,88.6726 207.5,88.5C 204.565,93.765 200.899,98.4317 196.5,102.5C 191.582,108.923 186.082,114.923 180,120.5C 180.237,118.011 181.071,115.678 182.5,113.5C 183.635,111.787 185.302,111.12 187.5,111.5C 187.33,110.178 187.663,109.011 188.5,108C 186.444,107.689 184.444,107.189 182.5,106.5C 178.238,109.083 175.571,112.75 174.5,117.5C 175.398,118.158 176.398,118.824 177.5,119.5C 175.604,120.466 173.604,120.799 171.5,120.5C 171.738,113.158 174.238,106.825 179,101.5C 179.667,99.5 179.667,97.5 179,95.5C 178.586,95.0426 178.086,94.7093 177.5,94.5C 175.959,97.9736 173.792,100.974 171,103.5C 169.882,105.765 169.049,108.099 168.5,110.5C 167.5,110.5 166.5,110.5 165.5,110.5C 165.5,109.5 165.5,108.5 165.5,107.5C 165.954,104.86 167.121,102.527 169,100.5C 169.497,97.854 169.664,95.1873 169.5,92.5C 170.794,93.2899 171.961,94.2899 173,95.5C 173.483,94.552 173.649,93.552 173.5,92.5C 174.728,91.6935 175.728,90.6935 176.5,89.5C 177.583,89.4606 178.583,89.1272 179.5,88.5C 180.167,91.1667 180.833,93.8333 181.5,96.5C 182.773,96.2545 183.94,96.2545 185,96.5C 184.516,99.1985 183.683,101.865 182.5,104.5C 187.023,103.816 190.689,101.816 193.5,98.5 Z"/></g>
<g><path style="opacity:1" fill="#2e1909" d="M 66.5,92.5 C 68.3325,93.2485 69.9991,94.2485 71.5,95.5C 74.8486,97.0376 78.1819,98.8709 81.5,101C 87.0391,106.044 92.7058,110.877 98.5,115.5C 98.0825,116.222 97.4158,116.722 96.5,117C 96.8333,117.333 97.1667,117.667 97.5,118C 91.8307,119.068 86.4973,118.235 81.5,115.5C 80.9512,113.099 80.1178,110.765 79,108.5C 73.4414,104.125 69.2748,98.7919 66.5,92.5 Z"/></g>
<g><path style="opacity:1" fill="#1e0f06" d="M 119.5,54.5 C 117.141,58.5326 115.141,62.8659 113.5,67.5C 113.902,69.3002 114.569,70.9668 115.5,72.5C 113.01,75.4706 111.01,78.8039 109.5,82.5C 110.415,83.3279 111.081,84.3279 111.5,85.5C 110.452,87.4104 110.452,89.2438 111.5,91C 110.484,91.5194 109.818,92.3527 109.5,93.5C 111.219,96.2422 113.386,98.5755 116,100.5C 116.892,97.0482 118.558,94.0482 121,91.5C 122.503,91.8346 123.836,91.8346 125,91.5C 126.068,94.871 127.235,98.2043 128.5,101.5C 127.975,102.192 127.308,102.692 126.5,103C 129.345,105.786 129.011,107.12 125.5,107C 124.213,105.59 123.046,104.09 122,102.5C 121.175,104.701 121.675,106.534 123.5,108C 122.328,109.868 122.495,111.702 124,113.5C 125.84,112.167 126.34,112.334 125.5,114C 127.955,115.312 130.455,116.478 133,117.5C 133.315,120.372 133.815,123.205 134.5,126C 132.877,127.876 133.21,129.21 135.5,130C 134.944,132.237 133.944,134.237 132.5,136C 133.738,135.923 134.738,136.089 135.5,136.5C 132.737,137.938 131.07,139.771 130.5,142C 134.381,141.573 138.047,140.24 141.5,138C 140.833,137.667 140.167,137.333 139.5,137C 144.841,135.921 149.841,134.088 154.5,131.5C 156.555,133.555 158.888,135.221 161.5,136.5C 162.718,137.161 164.051,137.828 165.5,138.5C 164.446,140.201 163.446,141.868 162.5,143.5C 139.5,143.5 116.5,143.5 93.5,143.5C 99.1621,138.304 103.495,131.638 106.5,123.5C 108.115,122.846 109.782,122.346 111.5,122C 108.118,118.642 106.618,114.475 107,109.5C 104.479,106.685 102.813,107.018 102,110.5C 101.333,109.833 100.667,109.167 100,108.5C 99.0775,104.21 98.5775,99.8766 98.5,95.5C 100.355,93.9669 102.188,92.3003 104,90.5C 104.353,83.7364 105.353,77.0697 107,70.5C 112.099,59.8841 116.432,48.8841 120,37.5C 120.895,34.2329 122.728,33.5662 125.5,35.5C 124.326,42.1594 122.326,48.4927 119.5,54.5 Z"/></g>
<g><path style="opacity:1" fill="#481403" d="M 255.5,112.5 C 255.5,113.167 255.5,113.833 255.5,114.5C 254.713,118.783 252.046,121.283 247.5,122C 248.5,122.333 249.5,122.667 250.5,123C 242.784,125.513 235.118,128.179 227.5,131C 224.743,131.584 222.077,131.25 219.5,130C 224.003,126.245 229.003,123.245 234.5,121C 241.295,117.6 248.295,114.767 255.5,112.5 Z"/></g>
<g><path style="opacity:1" fill="#735936" d="M 182.5,113.5 C 180.833,114.5 179.5,115.833 178.5,117.5C 177.167,117.5 175.833,117.5 174.5,117.5C 175.571,112.75 178.238,109.083 182.5,106.5C 184.444,107.189 186.444,107.689 188.5,108C 187.663,109.011 187.33,110.178 187.5,111.5C 185.302,111.12 183.635,111.787 182.5,113.5 Z"/></g>
<g><path style="opacity:1" fill="#661d04" d="M 255.5,127.5 C 255.5,132.833 255.5,138.167 255.5,143.5C 241.833,143.5 228.167,143.5 214.5,143.5C 212.001,140.831 209.668,137.998 207.5,135C 210.614,130.225 213.281,125.225 215.5,120C 217.5,120 219.5,120 221.5,120C 224.128,117.534 227.128,115.701 230.5,114.5C 231.737,114.556 232.737,115.056 233.5,116C 228.783,118.054 224.617,120.888 221,124.5C 220.667,124.167 220.333,123.833 220,123.5C 219,125.167 218,126.833 217,128.5C 216.219,129.944 216.386,131.277 217.5,132.5C 227.376,131.639 237.376,130.806 247.5,130C 250.154,129.059 252.821,128.226 255.5,127.5 Z"/></g>
<g><path style="opacity:1" fill="#8b440f" d="M 33.5,103.5 C 32.8621,105.799 31.8621,107.966 30.5,110C 31.0944,110.464 31.7611,110.631 32.5,110.5C 34.5028,117.481 31.8361,121.148 24.5,121.5C 27.1667,123.833 27.1667,126.167 24.5,128.5C 25.8361,131.472 27.3361,131.805 29,129.5C 29.3047,132.497 29.138,135.497 28.5,138.5C 28.7245,140.455 29.3911,142.121 30.5,143.5C 28.8333,143.5 27.1667,143.5 25.5,143.5C 24.4183,142.406 23.7517,141.073 23.5,139.5C 25.1251,136.765 25.7918,133.765 25.5,130.5C 23.5,130.5 21.5,130.5 19.5,130.5C 20.3786,126.253 20.3786,122.253 19.5,118.5C 20.3864,119.776 21.3864,119.776 22.5,118.5C 21.0886,114.287 20.4219,109.954 20.5,105.5C 20.8333,105.5 21.1667,105.5 21.5,105.5C 22.5,105.5 23.5,105.5 24.5,105.5C 24.2011,107.604 24.5344,109.604 25.5,111.5C 26.3991,107.053 29.0657,104.386 33.5,103.5 Z"/></g>
<g><path style="opacity:1" fill="#7ca288" d="M 21.5,88.5 C 20.7803,94.1377 20.447,99.8044 20.5,105.5C 20.4219,109.954 21.0886,114.287 22.5,118.5C 21.3864,119.776 20.3864,119.776 19.5,118.5C 18.8333,117.5 18.1667,116.5 17.5,115.5C 18.7251,114.848 19.3917,113.681 19.5,112C 18.4902,105.854 18.3235,99.6873 19,93.5C 19.3736,91.5087 20.207,89.842 21.5,88.5 Z"/></g>
<g><path style="opacity:1" fill="#43716a" d="M 13.5,114.5 C 12.9579,117.912 11.6246,120.912 9.5,123.5C 9.49525,119.773 10.8286,116.773 13.5,114.5 Z"/></g>
<g><path style="opacity:1" fill="#4f2908" d="M 61.5,90.5 C 60.5871,94.1594 59.2537,97.6594 57.5,101C 58.8333,101 60.1667,101 61.5,101C 59.2086,103.016 59.2086,105.183 61.5,107.5C 67.9469,110.724 74.6135,113.39 81.5,115.5C 86.4973,118.235 91.8307,119.068 97.5,118C 97.1667,117.667 96.8333,117.333 96.5,117C 97.4158,116.722 98.0825,116.222 98.5,115.5C 99.5729,113.653 99.5729,111.653 98.5,109.5C 102.082,111.283 104.749,113.95 106.5,117.5C 106.333,118.167 106.167,118.833 106,119.5C 104.667,118.833 103.333,118.167 102,117.5C 101.682,119.061 100.849,120.228 99.5,121C 101.053,122.097 102.386,123.43 103.5,125C 102.551,125.617 101.718,125.451 101,124.5C 98.4814,127.54 96.4814,130.873 95,134.5C 93.9805,135.687 92.8139,136.687 91.5,137.5C 81.9963,132.593 72.3296,127.76 62.5,123C 61.1068,121.829 60.2735,120.329 60,118.5C 57.7787,119.406 55.6121,120.406 53.5,121.5C 52.448,121.351 51.448,121.517 50.5,122C 52.6355,122.876 53.9688,124.376 54.5,126.5C 53.4246,125.438 52.4246,125.438 51.5,126.5C 49.8849,132.348 47.8849,138.014 45.5,143.5C 41.8333,143.5 38.1667,143.5 34.5,143.5C 34.2172,142.711 33.7172,142.044 33,141.5C 33.2259,133.196 36.3926,126.029 42.5,120C 43.7287,119.219 45.062,118.719 46.5,118.5C 49.9127,119.804 51.9127,118.47 52.5,114.5C 58.0533,112.074 61.3866,113.741 62.5,119.5C 63.9305,119.421 65.2638,119.754 66.5,120.5C 68.1667,119.167 69.8333,117.833 71.5,116.5C 68.4138,115.251 66.0805,113.084 64.5,110C 61.8428,109.825 59.1761,109.992 56.5,110.5C 57.0522,108.669 57.0522,107.003 56.5,105.5C 53.6582,106.889 51.3249,106.222 49.5,103.5C 50.8088,101.024 52.6421,99.0243 55,97.5C 56,95.1667 57,92.8333 58,90.5C 59.1455,91.6843 60.3121,91.6843 61.5,90.5 Z"/></g>
<g><path style="opacity:1" fill="#869d92" d="M 208.5,87.5 C 208.5,88.5 208.5,89.5 208.5,90.5C 207.197,92.1423 205.864,93.8089 204.5,95.5C 200.336,105.095 194.169,113.428 186,120.5C 184.579,122.405 183.412,124.405 182.5,126.5C 180.457,127.579 179.124,129.246 178.5,131.5C 177.196,134.801 174.863,136.634 171.5,137C 173.65,133.853 175.65,130.687 177.5,127.5C 183.848,120.132 190.514,112.965 197.5,106C 196.663,104.989 196.33,103.822 196.5,102.5C 200.899,98.4317 204.565,93.765 207.5,88.5C 207.5,87.8333 207.833,87.5 208.5,87.5 Z"/></g>
<g><path style="opacity:1" fill="#1c1106" d="M 53.5,121.5 C 58.8091,123 63.4757,125.834 67.5,130C 65.3313,130.429 63.3313,129.929 61.5,128.5C 60.1667,129.5 58.8333,130.5 57.5,131.5C 56.3691,133.074 56.2025,134.741 57,136.5C 59.2379,138.309 60.4046,140.642 60.5,143.5C 58.8333,143.5 57.1667,143.5 55.5,143.5C 55.7857,137.741 55.4524,132.075 54.5,126.5C 53.9688,124.376 52.6355,122.876 50.5,122C 51.448,121.517 52.448,121.351 53.5,121.5 Z"/></g>
<g><path style="opacity:1" fill="#3c2519" d="M 174.5,117.5 C 175.833,117.5 177.167,117.5 178.5,117.5C 178.167,120.833 177.833,124.167 177.5,127.5C 175.65,130.687 173.65,133.853 171.5,137C 174.863,136.634 177.196,134.801 178.5,131.5C 182.093,134.59 183.759,138.59 183.5,143.5C 176.5,143.5 169.5,143.5 162.5,143.5C 163.446,141.868 164.446,140.201 165.5,138.5C 164.051,137.828 162.718,137.161 161.5,136.5C 167.768,135.924 171.768,132.257 173.5,125.5C 172.942,121.648 171.442,120.981 169,123.5C 166.167,121.164 165,118.164 165.5,114.5C 163.167,114.5 160.833,114.5 158.5,114.5C 157.833,112.181 157.666,109.847 158,107.5C 158.333,107.167 158.667,106.833 159,106.5C 160.002,113.936 161.836,114.27 164.5,107.5C 164.833,107.5 165.167,107.5 165.5,107.5C 165.5,108.5 165.5,109.5 165.5,110.5C 166.5,110.5 167.5,110.5 168.5,110.5C 169.049,108.099 169.882,105.765 171,103.5C 173.792,100.974 175.959,97.9736 177.5,94.5C 178.086,94.7093 178.586,95.0426 179,95.5C 179.667,97.5 179.667,99.5 179,101.5C 174.238,106.825 171.738,113.158 171.5,120.5C 173.604,120.799 175.604,120.466 177.5,119.5C 176.398,118.824 175.398,118.158 174.5,117.5 Z"/></g>
<g><path style="opacity:1" fill="#321a09" d="M 97.5,95.5 C 97.8333,95.5 98.1667,95.5 98.5,95.5C 98.5775,99.8766 99.0775,104.21 100,108.5C 100.667,109.167 101.333,109.833 102,110.5C 102.813,107.018 104.479,106.685 107,109.5C 106.618,114.475 108.118,118.642 111.5,122C 109.782,122.346 108.115,122.846 106.5,123.5C 103.495,131.638 99.1621,138.304 93.5,143.5C 82.5,143.5 71.5,143.5 60.5,143.5C 60.4046,140.642 59.2379,138.309 57,136.5C 56.2025,134.741 56.3691,133.074 57.5,131.5C 58.8333,130.5 60.1667,129.5 61.5,128.5C 63.3313,129.929 65.3313,130.429 67.5,130C 63.4757,125.834 58.8091,123 53.5,121.5C 55.6121,120.406 57.7787,119.406 60,118.5C 60.2735,120.329 61.1068,121.829 62.5,123C 72.3296,127.76 81.9963,132.593 91.5,137.5C 92.8139,136.687 93.9805,135.687 95,134.5C 96.4814,130.873 98.4814,127.54 101,124.5C 101.718,125.451 102.551,125.617 103.5,125C 102.386,123.43 101.053,122.097 99.5,121C 100.849,120.228 101.682,119.061 102,117.5C 103.333,118.167 104.667,118.833 106,119.5C 106.167,118.833 106.333,118.167 106.5,117.5C 104.749,113.95 102.082,111.283 98.5,109.5C 98.5,108.5 98.5,107.5 98.5,106.5C 97.7402,105.107 97.0735,103.607 96.5,102C 97.0767,99.863 97.41,97.6963 97.5,95.5 Z"/></g>
<g><path style="opacity:1" fill="#5d3e1c" d="M 173.5,92.5 C 173.649,93.552 173.483,94.552 173,95.5C 171.961,94.2899 170.794,93.2899 169.5,92.5C 166.853,94.8109 164.186,97.1442 161.5,99.5C 160.167,102.833 160.167,106.167 161.5,109.5C 162.265,108.388 163.265,107.721 164.5,107.5C 161.836,114.27 160.002,113.936 159,106.5C 158.667,106.833 158.333,107.167 158,107.5C 157.666,109.847 157.833,112.181 158.5,114.5C 160.833,114.5 163.167,114.5 165.5,114.5C 165,118.164 166.167,121.164 169,123.5C 171.442,120.981 172.942,121.648 173.5,125.5C 171.768,132.257 167.768,135.924 161.5,136.5C 158.888,135.221 156.555,133.555 154.5,131.5C 149.175,126.676 144.009,121.676 139,116.5C 138.667,116.833 138.333,117.167 138,117.5C 135.453,115.796 133.953,113.463 133.5,110.5C 135.879,111.567 136.879,110.567 136.5,107.5C 140.136,106.674 143.803,106.008 147.5,105.5C 147.281,104.325 147.614,103.325 148.5,102.5C 149.452,104.045 149.785,105.712 149.5,107.5C 152.91,107.616 154.244,105.95 153.5,102.5C 154.822,102.33 155.989,102.663 157,103.5C 157.464,102.906 157.631,102.239 157.5,101.5C 158.497,101.53 159.164,101.03 159.5,100C 158.944,98.9889 158.278,98.1556 157.5,97.5C 158.833,97.5 160.167,97.5 161.5,97.5C 161.52,95.857 160.853,94.5237 159.5,93.5C 160.498,90.9722 161.331,90.9722 162,93.5C 163.663,91.8421 164.496,89.8421 164.5,87.5C 166.167,87.5 167.833,87.5 169.5,87.5C 169.369,90.3667 170.703,92.0334 173.5,92.5 Z"/></g>
<g><path style="opacity:1" fill="#2d390e" d="M 54.5,126.5 C 55.4524,132.075 55.7857,137.741 55.5,143.5C 52.1667,143.5 48.8333,143.5 45.5,143.5C 47.8849,138.014 49.8849,132.348 51.5,126.5C 52.4246,125.438 53.4246,125.438 54.5,126.5 Z"/></g>
<g><path style="opacity:1" fill="#b96c3a" d="M 17.5,115.5 C 18.1667,116.5 18.8333,117.5 19.5,118.5C 20.3786,122.253 20.3786,126.253 19.5,130.5C 21.5,130.5 23.5,130.5 25.5,130.5C 25.7918,133.765 25.1251,136.765 23.5,139.5C 23.7517,141.073 24.4183,142.406 25.5,143.5C 20.5,143.5 15.5,143.5 10.5,143.5C 10.7161,134.556 12.3828,125.889 15.5,117.5C 15.7472,116.287 16.4138,115.62 17.5,115.5 Z"/></g>
<g><path style="opacity:1" fill="#54977e" d="M 182.5,126.5 C 183.778,132.18 185.445,137.846 187.5,143.5C 186.167,143.5 184.833,143.5 183.5,143.5C 183.759,138.59 182.093,134.59 178.5,131.5C 179.124,129.246 180.457,127.579 182.5,126.5 Z"/></g>
</svg>
