<?xml version="1.0" encoding="UTF-8"?>
<!DOCTYPE svg PUBLIC "-//W3C//DTD SVG 1.1//EN" "http://www.w3.org/Graphics/SVG/1.1/DTD/svg11.dtd">
<svg xmlns="http://www.w3.org/2000/svg" version="1.1" width="256px" height="144px" style="shape-rendering:geometricPrecision; text-rendering:geometricPrecision; image-rendering:optimizeQuality; fill-rule:evenodd; clip-rule:evenodd" xmlns:xlink="http://www.w3.org/1999/xlink">
<g><path style="opacity:1" fill="#2f3705" d="M -0.5,-0.5 C 6.5,-0.5 13.5,-0.5 20.5,-0.5C 17.4382,-0.158603 15.2716,1.50806 14,4.5C 12.7533,7.32858 11.2533,9.99525 9.5,12.5C 10.2427,13.1818 10.9094,13.8485 11.5,14.5C 7.22275,14.9912 3.22275,16.3245 -0.5,18.5C -0.5,12.1667 -0.5,5.83333 -0.5,-0.5 Z"/></g>
<g><path style="opacity:1" fill="#434709" d="M 20.5,-0.5 C 25.5,-0.5 30.5,-0.5 35.5,-0.5C 32.4133,0.0530108 29.9133,1.71968 28,4.5C 25.8333,7.33333 23.6667,10.1667 21.5,13C 24.0972,13.7792 24.0972,14.2792 21.5,14.5C 18.1667,14.5 14.8333,14.5 11.5,14.5C 10.9094,13.8485 10.2427,13.1818 9.5,12.5C 11.2533,9.99525 12.7533,7.32858 14,4.5C 15.2716,1.50806 17.4382,-0.158603 20.5,-0.5 Z"/></g>
<g><path style="opacity:1" fill="#8a7912" d="M 192.5,-0.5 C 193.167,-0.5 193.833,-0.5 194.5,-0.5C 198.97,0.486123 203.637,0.819456 208.5,0.5C 208.953,1.45837 209.619,2.2917 210.5,3C 212.608,3.35989 214.608,4.02655 216.5,5C 219.965,9.46678 223.798,13.6334 228,17.5C 234.886,27.7792 236.219,38.7792 232,50.5C 230.054,55.3957 228.387,60.3957 227,65.5C 225.67,66.5822 224.17,67.2488 222.5,67.5C 220.935,65.4907 219.935,63.1573 219.5,60.5C 220.306,59.2719 221.306,58.2719 222.5,57.5C 224.117,56.962 225.784,56.6287 227.5,56.5C 227.768,54.901 227.434,53.5676 226.5,52.5C 222.823,46.6439 219.323,40.6439 216,34.5C 214.973,27.1251 211.14,21.6251 204.5,18C 195.108,15.3925 191.108,9.2258 192.5,-0.5 Z"/></g>
<g><path style="opacity:1" fill="#80710f" d="M 208.5,0.5 C 211.518,0.335374 214.518,0.50204 217.5,1C 226,6.16667 232.833,13 238,21.5C 241.726,31.2777 242.393,41.2777 240,51.5C 238.66,57.5633 236.826,63.0633 234.5,68C 235.056,68.3826 235.389,68.8826 235.5,69.5C 232.518,69.0371 229.518,68.7038 226.5,68.5C 225.167,68.5 223.833,68.5 222.5,68.5C 222.5,68.1667 222.5,67.8333 222.5,67.5C 224.17,67.2488 225.67,66.5822 227,65.5C 228.387,60.3957 230.054,55.3957 232,50.5C 236.219,38.7792 234.886,27.7792 228,17.5C 223.798,13.6334 219.965,9.46678 216.5,5C 214.608,4.02655 212.608,3.35989 210.5,3C 209.619,2.2917 208.953,1.45837 208.5,0.5 Z"/></g>
<g><path style="opacity:1" fill="#796c0d" d="M 194.5,-0.5 C 202.833,-0.5 211.167,-0.5 219.5,-0.5C 221.74,0.264404 224.073,1.09774 226.5,2C 248.687,21.2217 252.687,43.7217 238.5,69.5C 237.5,69.5 236.5,69.5 235.5,69.5C 235.389,68.8826 235.056,68.3826 234.5,68C 236.826,63.0633 238.66,57.5633 240,51.5C 242.393,41.2777 241.726,31.2777 238,21.5C 232.833,13 226,6.16667 217.5,1C 214.518,0.50204 211.518,0.335374 208.5,0.5C 203.637,0.819456 198.97,0.486123 194.5,-0.5 Z"/></g>
<g><path style="opacity:1" fill="#6f650c" d="M 219.5,-0.5 C 222.5,-0.5 225.5,-0.5 228.5,-0.5C 231.023,0.253707 233.689,0.920374 236.5,1.5C 251.718,16.603 257.385,34.4363 253.5,55C 251.537,60.4331 249.704,65.9331 248,71.5C 247.31,70.2617 246.81,70.2617 246.5,71.5C 244.784,71.3713 243.117,71.038 241.5,70.5C 240.791,69.596 239.791,69.2627 238.5,69.5C 252.687,43.7217 248.687,21.2217 226.5,2C 224.073,1.09774 221.74,0.264404 219.5,-0.5 Z"/></g>
<g><path style="opacity:1" fill="#645d0a" d="M 228.5,-0.5 C 237.5,-0.5 246.5,-0.5 255.5,-0.5C 255.5,24.8333 255.5,50.1667 255.5,75.5C 249.792,87.2595 244.292,99.2595 239,111.5C 235.575,115.919 232.575,120.585 230,125.5C 225.431,130.57 219.931,134.237 213.5,136.5C 212.824,135.398 212.158,134.398 211.5,133.5C 211.517,131.435 211.85,129.435 212.5,127.5C 219.203,121.798 225.203,115.464 230.5,108.5C 239.894,98.0331 245.228,85.6997 246.5,71.5C 246.81,70.2617 247.31,70.2617 248,71.5C 249.704,65.9331 251.537,60.4331 253.5,55C 257.385,34.4363 251.718,16.603 236.5,1.5C 233.689,0.920374 231.023,0.253707 228.5,-0.5 Z"/></g>
<g><path style="opacity:1" fill="#5f5c0f" d="M 35.5,-0.5 C 41.1667,-0.5 46.8333,-0.5 52.5,-0.5C 49.3586,0.321287 46.0252,0.821287 42.5,1C 37.9146,6.51223 33.248,11.6789 28.5,16.5C 25.9902,16.0733 23.6568,15.4067 21.5,14.5C 24.0972,14.2792 24.0972,13.7792 21.5,13C 23.6667,10.1667 25.8333,7.33333 28,4.5C 29.9133,1.71968 32.4133,0.0530108 35.5,-0.5 Z"/></g>
<g><path style="opacity:1" fill="#663d19" d="M 67.5,-0.5 C 69.5,-0.5 71.5,-0.5 73.5,-0.5C 72.5,0.833333 71.5,2.16667 70.5,3.5C 69.8761,3.91695 69.5427,4.58362 69.5,5.5C 70.9708,11.2436 72.6375,16.9103 74.5,22.5C 72.5372,21.0401 70.7038,19.3734 69,17.5C 68.6827,19.3008 68.016,19.6341 67,18.5C 66.5005,24.4908 66.3338,30.4908 66.5,36.5C 64.857,36.4802 63.5237,37.1468 62.5,38.5C 58.9695,49.3756 57.8028,49.0423 59,37.5C 61.5054,32.1586 62.1721,26.492 61,20.5C 59.6667,23.8333 58.3333,27.1667 57,30.5C 55.8873,31.305 54.7206,31.9717 53.5,32.5C 52.9232,29.4503 54.0899,27.4503 57,26.5C 57.6077,24.8455 58.1077,23.1789 58.5,21.5C 60.4414,17.2819 62.1081,12.9485 63.5,8.5C 65.2038,5.74418 66.5371,2.74418 67.5,-0.5 Z"/></g>
<g><path style="opacity:1" fill="#170902" d="M 73.5,-0.5 C 81.5,-0.5 89.5,-0.5 97.5,-0.5C 96.2264,6.29598 96.2264,12.9626 97.5,19.5C 99.448,23.7287 101.115,28.062 102.5,32.5C 102.5,33.1667 102.5,33.8333 102.5,34.5C 102.167,34.5 101.833,34.5 101.5,34.5C 101.672,33.5084 101.338,32.8417 100.5,32.5C 99.4264,31.1154 98.0931,29.9487 96.5,29C 93.1832,28.5017 89.8499,28.335 86.5,28.5C 85.5713,25.3246 84.738,21.9913 84,18.5C 81.5393,15.2418 79.8726,11.5752 79,7.5C 77.0811,3.30278 74.4145,2.63612 71,5.5C 70.5357,4.90558 70.369,4.23891 70.5,3.5C 71.5,2.16667 72.5,0.833333 73.5,-0.5 Z"/></g>
<g><path style="opacity:1" fill="#261b18" d="M 70.5,3.5 C 70.369,4.23891 70.5357,4.90558 71,5.5C 74.4145,2.63612 77.0811,3.30278 79,7.5C 79.8726,11.5752 81.5393,15.2418 84,18.5C 84.738,21.9913 85.5713,25.3246 86.5,28.5C 86.5,28.8333 86.5,29.1667 86.5,29.5C 83.7052,30.063 81.3718,31.3963 79.5,33.5C 76.5403,30.571 74.8737,26.9043 74.5,22.5C 72.6375,16.9103 70.9708,11.2436 69.5,5.5C 69.5427,4.58362 69.8761,3.91695 70.5,3.5 Z"/></g>
<g><path style="opacity:1" fill="#181a04" d="M 126.5,-0.5 C 128.833,-0.5 131.167,-0.5 133.5,-0.5C 132.631,8.21187 128.964,15.2119 122.5,20.5C 123.043,13.3311 124.377,6.33113 126.5,-0.5 Z"/></g>
<g><path style="opacity:1" fill="#2b251f" d="M 140.5,-0.5 C 142.833,-0.5 145.167,-0.5 147.5,-0.5C 148.167,1.83333 148.833,4.16667 149.5,6.5C 149.5,7.16667 149.167,7.5 148.5,7.5C 146.832,5.65996 145.332,3.65996 144,1.5C 142.402,3.89455 142.236,6.22788 143.5,8.5C 143.387,11.0488 144.054,13.3821 145.5,15.5C 145.376,16.1067 145.043,16.44 144.5,16.5C 142.652,13.4382 140.985,10.2715 139.5,7C 140.435,4.6194 140.768,2.1194 140.5,-0.5 Z"/></g>
<g><path style="opacity:1" fill="#c3aa27" d="M 99.5,-0.5 C 107.833,-0.5 116.167,-0.5 124.5,-0.5C 122.928,4.31483 120.595,8.64817 117.5,12.5C 111.94,11.6573 106.44,11.6573 101,12.5C 100.768,11.2625 100.268,10.2625 99.5,9.5C 99.5,6.16667 99.5,2.83333 99.5,-0.5 Z"/></g>
<g><path style="opacity:1" fill="#907341" d="M 147.5,-0.5 C 149.5,-0.5 151.5,-0.5 153.5,-0.5C 155.928,3.45657 159.262,5.95657 163.5,7C 160.334,4.99994 157.668,2.49994 155.5,-0.5C 156.167,-0.5 156.833,-0.5 157.5,-0.5C 161.395,3.79277 166.061,7.1261 171.5,9.5C 172.739,11.0072 172.405,12.1739 170.5,13C 174.004,13.9864 177.337,15.1531 180.5,16.5C 179.508,16.3284 178.842,16.6618 178.5,17.5C 176.938,17.2671 175.605,16.6005 174.5,15.5C 169.284,14.077 163.951,13.2437 158.5,13C 155.471,10.8239 152.471,8.65727 149.5,6.5C 148.833,4.16667 148.167,1.83333 147.5,-0.5 Z"/></g>
<g><path style="opacity:1" fill="#bcb082" d="M 153.5,-0.5 C 154.167,-0.5 154.833,-0.5 155.5,-0.5C 157.668,2.49994 160.334,4.99994 163.5,7C 159.262,5.95657 155.928,3.45657 153.5,-0.5 Z"/></g>
<g><path style="opacity:1" fill="#663b21" d="M 93.5,3.5 C 94.7479,4.3339 95.4146,5.66723 95.5,7.5C 95.3333,8.83333 95.1667,10.1667 95,11.5C 93.191,8.95853 92.691,6.29186 93.5,3.5 Z"/></g>
<g><path style="opacity:1" fill="#6e4426" d="M 97.5,-0.5 C 98.1667,-0.5 98.8333,-0.5 99.5,-0.5C 99.5,2.83333 99.5,6.16667 99.5,9.5C 98.2066,12.6791 97.5399,16.0124 97.5,19.5C 96.2264,12.9626 96.2264,6.29598 97.5,-0.5 Z"/></g>
<g><path style="opacity:1" fill="#776f15" d="M 52.5,-0.5 C 55.1667,-0.5 57.8333,-0.5 60.5,-0.5C 49.4581,2.56439 41.7914,9.56439 37.5,20.5C 34.5697,18.8652 31.5697,17.5318 28.5,16.5C 33.248,11.6789 37.9146,6.51223 42.5,1C 46.0252,0.821287 49.3586,0.321287 52.5,-0.5 Z"/></g>
<g><path style="opacity:1" fill="#547644" d="M 124.5,-0.5 C 125.167,-0.5 125.833,-0.5 126.5,-0.5C 124.377,6.33113 123.043,13.3311 122.5,20.5C 120.558,25.6634 119.225,30.9968 118.5,36.5C 118.167,36.5 117.833,36.5 117.5,36.5C 116.883,36.6107 116.383,36.944 116,37.5C 115.51,36.2068 115.343,34.8734 115.5,33.5C 116.117,33.3893 116.617,33.056 117,32.5C 117.667,29.1667 117.667,25.8333 117,22.5C 116.282,21.5494 115.449,21.3828 114.5,22C 113.915,23.3024 113.249,24.469 112.5,25.5C 110.882,28.1709 110.215,31.1709 110.5,34.5C 109.316,32.5901 107.816,32.2568 106,33.5C 105.503,35.8098 105.337,38.1432 105.5,40.5C 105.06,38.1561 104.06,36.1561 102.5,34.5C 102.5,33.8333 102.5,33.1667 102.5,32.5C 103.822,32.67 104.989,32.3366 106,31.5C 110.483,25.5263 114.317,19.1929 117.5,12.5C 120.595,8.64817 122.928,4.31483 124.5,-0.5 Z"/></g>
<g><path style="opacity:1" fill="#91831a" d="M 60.5,-0.5 C 62.8333,-0.5 65.1667,-0.5 67.5,-0.5C 66.5371,2.74418 65.2038,5.74418 63.5,8.5C 54.6227,9.35084 48.9561,14.3508 46.5,23.5C 42.6942,25.0467 39.6942,24.0467 37.5,20.5C 41.7914,9.56439 49.4581,2.56439 60.5,-0.5 Z"/></g>
<g><path style="opacity:1" fill="#a59321" d="M 63.5,8.5 C 62.1081,12.9485 60.4414,17.2819 58.5,21.5C 58.1667,21.5 57.8333,21.5 57.5,21.5C 53.7379,21.6911 50.0712,22.3578 46.5,23.5C 48.9561,14.3508 54.6227,9.35084 63.5,8.5 Z"/></g>
<g><path style="opacity:1" fill="#746542" d="M 148.5,7.5 C 147.903,7.7352 147.57,8.2352 147.5,9C 148.119,11.5318 149.119,13.8651 150.5,16C 150.43,16.7648 150.097,17.2648 149.5,17.5C 146.654,14.4468 144.821,10.7801 144,6.5C 143.536,7.09442 143.369,7.76109 143.5,8.5C 142.236,6.22788 142.402,3.89455 144,1.5C 145.332,3.65996 146.832,5.65996 148.5,7.5 Z"/></g>
<g><path style="opacity:1" fill="#725429" d="M 149.5,6.5 C 152.471,8.65727 155.471,10.8239 158.5,13C 163.951,13.2437 169.284,14.077 174.5,15.5C 174.631,16.3764 174.298,17.0431 173.5,17.5C 167.879,17.3575 162.212,16.3575 156.5,14.5C 155.833,14.8333 155.167,15.1667 154.5,15.5C 152.122,13.1215 150.122,10.4549 148.5,7.5C 149.167,7.5 149.5,7.16667 149.5,6.5 Z"/></g>
<g><path style="opacity:1" fill="#d5bb2e" d="M 99.5,9.5 C 100.268,10.2625 100.768,11.2625 101,12.5C 106.44,11.6573 111.94,11.6573 117.5,12.5C 114.317,19.1929 110.483,25.5263 106,31.5C 104.989,32.3366 103.822,32.67 102.5,32.5C 101.115,28.062 99.448,23.7287 97.5,19.5C 97.5399,16.0124 98.2066,12.6791 99.5,9.5 Z"/></g>
<g><path style="opacity:1" fill="#745228" d="M 178.5,17.5 C 178.842,16.6618 179.508,16.3284 180.5,16.5C 188.7,18.1139 196.034,21.4472 202.5,26.5C 204.31,28.3816 205.977,30.3816 207.5,32.5C 206.833,32.5 206.167,32.5 205.5,32.5C 204.833,32.1667 204.167,31.8333 203.5,31.5C 202.833,30.5 202.167,29.5 201.5,28.5C 200.284,26.5491 198.618,25.0491 196.5,24C 191.765,22.2567 187.098,20.4234 182.5,18.5C 181.292,17.7659 179.959,17.4326 178.5,17.5 Z"/></g>
<g><path style="opacity:1" fill="#f1eee3" d="M 157.5,-0.5 C 163.5,-0.5 169.5,-0.5 175.5,-0.5C 177.239,2.24269 179.573,4.24269 182.5,5.5C 183.5,6.16667 184.5,6.83333 185.5,7.5C 185.56,8.04309 185.893,8.37642 186.5,8.5C 187.458,5.2751 188.792,2.2751 190.5,-0.5C 191.167,-0.5 191.833,-0.5 192.5,-0.5C 191.108,9.2258 195.108,15.3925 204.5,18C 211.14,21.6251 214.973,27.1251 216,34.5C 219.323,40.6439 222.823,46.6439 226.5,52.5C 226.672,53.4916 226.338,54.1583 225.5,54.5C 224.069,52.8113 223.236,50.8113 223,48.5C 221.27,48.4908 219.437,48.1575 217.5,47.5C 217.006,45.9745 216.339,44.6412 215.5,43.5C 215.5,43.1667 215.5,42.8333 215.5,42.5C 214.799,38.6992 213.632,35.0325 212,31.5C 211.692,32.3081 211.192,32.9747 210.5,33.5C 209.512,29.847 207.345,27.1803 204,25.5C 203.617,26.056 203.117,26.3893 202.5,26.5C 196.034,21.4472 188.7,18.1139 180.5,16.5C 177.337,15.1531 174.004,13.9864 170.5,13C 172.405,12.1739 172.739,11.0072 171.5,9.5C 166.061,7.1261 161.395,3.79277 157.5,-0.5 Z"/></g>
<g><path style="opacity:1" fill="#969997" d="M 175.5,-0.5 C 177.167,-0.5 178.833,-0.5 180.5,-0.5C 181.167,1.5 181.833,3.5 182.5,5.5C 179.573,4.24269 177.239,2.24269 175.5,-0.5 Z"/></g>
<g><path style="opacity:1" fill="#a1de9a" d="M 180.5,-0.5 C 180.833,-0.5 181.167,-0.5 181.5,-0.5C 182.847,2.19322 184.18,4.85989 185.5,7.5C 184.5,6.83333 183.5,6.16667 182.5,5.5C 181.833,3.5 181.167,1.5 180.5,-0.5 Z"/></g>
<g><path style="opacity:1" fill="#92811c" d="M 181.5,-0.5 C 184.5,-0.5 187.5,-0.5 190.5,-0.5C 188.792,2.2751 187.458,5.2751 186.5,8.5C 185.893,8.37642 185.56,8.04309 185.5,7.5C 184.18,4.85989 182.847,2.19322 181.5,-0.5 Z"/></g>
<g><path style="opacity:1" fill="#0b0705" d="M 133.5,-0.5 C 135.5,-0.5 137.5,-0.5 139.5,-0.5C 136.638,4.76382 135.805,10.4305 137,16.5C 139.37,18.8486 139.87,21.5153 138.5,24.5C 136.541,23.2519 135.041,21.5852 134,19.5C 133.658,23.1448 135.158,25.8115 138.5,27.5C 138.5,28.5 138.5,29.5 138.5,30.5C 136.512,30.1729 134.512,29.8396 132.5,29.5C 130.443,29.4357 128.777,30.1024 127.5,31.5C 127.229,33.3797 127.896,34.713 129.5,35.5C 131.193,38.1841 132.86,40.8508 134.5,43.5C 132.369,44.3138 130.036,44.8138 127.5,45C 126.366,46.016 126.699,46.6827 128.5,47C 127.058,47.3768 126.058,48.2101 125.5,49.5C 124.167,49.5 122.833,49.5 121.5,49.5C 121.81,52.7131 121.477,55.7131 120.5,58.5C 119.732,57.7375 119.232,56.7375 119,55.5C 118.5,49.1754 118.334,42.8421 118.5,36.5C 119.225,30.9968 120.558,25.6634 122.5,20.5C 128.964,15.2119 132.631,8.21187 133.5,-0.5 Z"/></g>
<g><path style="opacity:1" fill="#af9351" d="M 148.5,7.5 C 150.122,10.4549 152.122,13.1215 154.5,15.5C 155.167,15.1667 155.833,14.8333 156.5,14.5C 162.212,16.3575 167.879,17.3575 173.5,17.5C 174.298,17.0431 174.631,16.3764 174.5,15.5C 175.605,16.6005 176.938,17.2671 178.5,17.5C 179.959,17.4326 181.292,17.7659 182.5,18.5C 181.306,19.7773 179.64,20.4439 177.5,20.5C 174.791,20.127 172.124,19.9603 169.5,20C 171.002,20.5831 172.335,21.4164 173.5,22.5C 172.223,23.9217 172.557,24.9217 174.5,25.5C 173.531,26.3094 172.698,27.3094 172,28.5C 171.023,27.2264 170.189,27.2264 169.5,28.5C 166.561,28.082 164.228,26.582 162.5,24C 159.808,23.5702 157.141,23.7369 154.5,24.5C 151.624,23.0971 149.957,20.7637 149.5,17.5C 150.097,17.2648 150.43,16.7648 150.5,16C 149.119,13.8651 148.119,11.5318 147.5,9C 147.57,8.2352 147.903,7.7352 148.5,7.5 Z"/></g>
<g><path style="opacity:1" fill="#9d7b40" d="M 12.5,16.5 C 12.5,16.8333 12.5,17.1667 12.5,17.5C 14.4927,19.1632 16.8261,20.3299 19.5,21C 20.3366,22.0113 20.67,23.1779 20.5,24.5C 15.1482,23.4843 9.81486,22.4843 4.5,21.5C 4.5,20.5 4.5,19.5 4.5,18.5C 7.16667,17.8333 9.83333,17.1667 12.5,16.5 Z"/></g>
<g><path style="opacity:1" fill="#282809" d="M 115.5,33.5 C 112.828,31.6086 111.828,28.9419 112.5,25.5C 113.249,24.469 113.915,23.3024 114.5,22C 115.449,21.3828 116.282,21.5494 117,22.5C 117.667,25.8333 117.667,29.1667 117,32.5C 116.617,33.056 116.117,33.3893 115.5,33.5 Z"/></g>
<g><path style="opacity:1" fill="#968859" d="M 139.5,-0.5 C 139.833,-0.5 140.167,-0.5 140.5,-0.5C 140.768,2.1194 140.435,4.6194 139.5,7C 140.985,10.2715 142.652,13.4382 144.5,16.5C 143.448,16.3505 142.448,16.5172 141.5,17C 143.554,19.5441 145.887,21.8774 148.5,24C 144.891,24.7013 141.558,25.8679 138.5,27.5C 135.158,25.8115 133.658,23.1448 134,19.5C 135.041,21.5852 136.541,23.2519 138.5,24.5C 139.87,21.5153 139.37,18.8486 137,16.5C 135.805,10.4305 136.638,4.76382 139.5,-0.5 Z"/></g>
<g><path style="opacity:1" fill="#baa275" d="M 11.5,14.5 C 14.8333,14.5 18.1667,14.5 21.5,14.5C 23.6568,15.4067 25.9902,16.0733 28.5,16.5C 31.5697,17.5318 34.5697,18.8652 37.5,20.5C 39.6942,24.0467 42.6942,25.0467 46.5,23.5C 50.0712,22.3578 53.7379,21.6911 57.5,21.5C 54.0982,22.6346 50.7649,23.9679 47.5,25.5C 44.0955,26.0378 41.0955,27.3712 38.5,29.5C 38.1667,29.5 37.8333,29.5 37.5,29.5C 38.4293,28.6851 39.4293,27.8518 40.5,27C 32.5868,19.8604 23.2535,16.3604 12.5,16.5C 9.83333,17.1667 7.16667,17.8333 4.5,18.5C 2.83333,19.1667 1.16667,19.8333 -0.5,20.5C -0.5,19.8333 -0.5,19.1667 -0.5,18.5C 3.22275,16.3245 7.22275,14.9912 11.5,14.5 Z"/></g>
<g><path style="opacity:1" fill="#946e38" d="M 182.5,18.5 C 187.098,20.4234 191.765,22.2567 196.5,24C 198.618,25.0491 200.284,26.5491 201.5,28.5C 199.236,27.7814 196.903,27.448 194.5,27.5C 193.657,25.8267 192.324,24.66 190.5,24C 185.89,22.7095 181.223,22.3762 176.5,23C 176.833,23.3333 177.167,23.6667 177.5,24C 176.263,24.2321 175.263,24.7321 174.5,25.5C 172.557,24.9217 172.223,23.9217 173.5,22.5C 172.335,21.4164 171.002,20.5831 169.5,20C 172.124,19.9603 174.791,20.127 177.5,20.5C 179.64,20.4439 181.306,19.7773 182.5,18.5 Z"/></g>
<g><path style="opacity:1" fill="#42460a" d="M -0.5,24.5 C 4.53123,24.4433 9.1979,25.4433 13.5,27.5C 12.5028,27.4701 11.8361,27.9701 11.5,29C 10.4478,32.5947 9.78109,36.2614 9.5,40C 9.56865,41.9855 10.2353,43.4855 11.5,44.5C 8.45337,47.5448 5.7867,50.8781 3.5,54.5C 2.16667,56.1667 0.833333,57.8333 -0.5,59.5C -0.5,47.8333 -0.5,36.1667 -0.5,24.5 Z"/></g>
<g><path style="opacity:1" fill="#412107" d="M 12.5,17.5 C 12.5,17.1667 12.5,16.8333 12.5,16.5C 23.2535,16.3604 32.5868,19.8604 40.5,27C 39.4293,27.8518 38.4293,28.6851 37.5,29.5C 35.6336,30.0138 33.8003,30.6805 32,31.5C 28.6402,27.3232 25.1402,23.1566 21.5,19C 18.6074,17.8512 15.6074,17.3512 12.5,17.5 Z"/></g>
<g><path style="opacity:1" fill="#b4a566" d="M 149.5,17.5 C 149.957,20.7637 151.624,23.0971 154.5,24.5C 148.833,24.6636 148.5,24.9969 153.5,25.5C 153.719,26.675 153.386,27.675 152.5,28.5C 150.224,29.2132 147.891,29.7132 145.5,30C 148.882,30.1764 152.215,30.6764 155.5,31.5C 151.639,32.5976 151.639,33.4309 155.5,34C 154.5,34.3333 153.5,34.6667 152.5,35C 153.337,36.0113 153.67,37.1779 153.5,38.5C 148.372,35.9351 143.038,33.9351 137.5,32.5C 137.917,31.8761 138.584,31.5427 139.5,31.5C 142.444,32.875 145.444,33.7083 148.5,34C 144.742,32.3945 141.409,30.2278 138.5,27.5C 141.558,25.8679 144.891,24.7013 148.5,24C 145.887,21.8774 143.554,19.5441 141.5,17C 142.448,16.5172 143.448,16.3505 144.5,16.5C 145.043,16.44 145.376,16.1067 145.5,15.5C 144.054,13.3821 143.387,11.0488 143.5,8.5C 143.369,7.76109 143.536,7.09442 144,6.5C 144.821,10.7801 146.654,14.4468 149.5,17.5 Z"/></g>
<g><path style="opacity:1" fill="#664d2a" d="M 12.5,17.5 C 15.6074,17.3512 18.6074,17.8512 21.5,19C 25.1402,23.1566 28.6402,27.3232 32,31.5C 33.8003,30.6805 35.6336,30.0138 37.5,29.5C 37.8333,29.5 38.1667,29.5 38.5,29.5C 34.3608,32.0716 30.0274,34.4049 25.5,36.5C 24.1667,36.8333 22.8333,37.1667 21.5,37.5C 21.8333,36.8333 22.1667,36.1667 22.5,35.5C 22.4894,33.9826 21.8228,32.8159 20.5,32C 18.2833,30.2765 15.95,28.7765 13.5,27.5C 9.1979,25.4433 4.53123,24.4433 -0.5,24.5C -0.5,23.1667 -0.5,21.8333 -0.5,20.5C 1.16667,19.8333 2.83333,19.1667 4.5,18.5C 4.5,19.5 4.5,20.5 4.5,21.5C 9.81486,22.4843 15.1482,23.4843 20.5,24.5C 20.67,23.1779 20.3366,22.0113 19.5,21C 16.8261,20.3299 14.4927,19.1632 12.5,17.5 Z"/></g>
<g><path style="opacity:1" fill="#a45117" d="M 194.5,27.5 C 192.063,27.2437 189.729,26.5771 187.5,25.5C 184.487,26.5605 184.154,28.5605 186.5,31.5C 189.297,34.726 192.297,37.726 195.5,40.5C 194.127,40.6567 192.793,40.49 191.5,40C 186.204,34.6922 180.537,29.8589 174.5,25.5C 175.263,24.7321 176.263,24.2321 177.5,24C 177.167,23.6667 176.833,23.3333 176.5,23C 181.223,22.3762 185.89,22.7095 190.5,24C 192.324,24.66 193.657,25.8267 194.5,27.5 Z"/></g>
<g><path style="opacity:1" fill="#7e7156" d="M 215.5,42.5 C 212.844,39.2059 210.178,35.8726 207.5,32.5C 205.977,30.3816 204.31,28.3816 202.5,26.5C 203.117,26.3893 203.617,26.056 204,25.5C 207.345,27.1803 209.512,29.847 210.5,33.5C 211.192,32.9747 211.692,32.3081 212,31.5C 213.632,35.0325 214.799,38.6992 215.5,42.5 Z"/></g>
<g><path style="opacity:1" fill="#852901" d="M 203.5,31.5 C 204.167,31.8333 204.833,32.1667 205.5,32.5C 206.398,34.9052 207.898,36.9052 210,38.5C 210.49,39.7932 210.657,41.1266 210.5,42.5C 209.325,42.281 208.325,42.6143 207.5,43.5C 208.653,44.6868 208.653,45.6868 207.5,46.5C 206.833,46.5 206.167,46.5 205.5,46.5C 202.601,41.594 198.934,37.2606 194.5,33.5C 194.833,32.5 195.5,31.8333 196.5,31.5C 198.733,32.7422 200.899,34.0755 203,35.5C 204.511,34.436 204.677,33.1026 203.5,31.5 Z"/></g>
<g><path style="opacity:1" fill="#774216" d="M 74.5,22.5 C 74.8737,26.9043 76.5403,30.571 79.5,33.5C 79.5,34.5 79.5,35.5 79.5,36.5C 79.5,37.8333 79.5,39.1667 79.5,40.5C 78.596,41.209 78.2627,42.209 78.5,43.5C 76.6916,43.4914 75.0249,43.9914 73.5,45C 71.2567,47.4878 69.2567,50.1544 67.5,53C 68.9301,62.1581 68.2634,62.4914 65.5,54C 67.156,51.8276 66.8227,49.9943 64.5,48.5C 62.5539,50.0437 62.0539,52.0437 63,54.5C 64.8027,57.0215 65.3027,59.6881 64.5,62.5C 63.3774,61.4563 62.0441,60.7896 60.5,60.5C 57.7668,61.1466 55.1001,61.6466 52.5,62C 50.981,58.9491 49.981,55.7824 49.5,52.5C 49.5394,51.4168 49.8728,50.4168 50.5,49.5C 48.8794,48.305 47.2128,47.305 45.5,46.5C 47.5143,41.6649 49.8476,36.9982 52.5,32.5C 52.8333,32.5 53.1667,32.5 53.5,32.5C 54.7206,31.9717 55.8873,31.305 57,30.5C 58.3333,27.1667 59.6667,23.8333 61,20.5C 62.1721,26.492 61.5054,32.1586 59,37.5C 57.8028,49.0423 58.9695,49.3756 62.5,38.5C 63.5237,37.1468 64.857,36.4802 66.5,36.5C 66.3338,30.4908 66.5005,24.4908 67,18.5C 68.016,19.6341 68.6827,19.3008 69,17.5C 70.7038,19.3734 72.5372,21.0401 74.5,22.5 Z"/></g>
<g><path style="opacity:1" fill="#867e55" d="M 138.5,27.5 C 141.409,30.2278 144.742,32.3945 148.5,34C 145.444,33.7083 142.444,32.875 139.5,31.5C 138.584,31.5427 137.917,31.8761 137.5,32.5C 134.236,31.6758 130.902,31.3424 127.5,31.5C 128.777,30.1024 130.443,29.4357 132.5,29.5C 134.512,29.8396 136.512,30.1729 138.5,30.5C 138.5,29.5 138.5,28.5 138.5,27.5 Z"/></g>
<g><path style="opacity:1" fill="#cd7c31" d="M 174.5,25.5 C 180.537,29.8589 186.204,34.6922 191.5,40C 192.793,40.49 194.127,40.6567 195.5,40.5C 195.557,41.609 195.89,42.609 196.5,43.5C 197.205,46.2443 197.205,48.911 196.5,51.5C 194.821,53.1045 192.821,53.7711 190.5,53.5C 192.336,51.9908 194.336,50.4908 196.5,49C 188.541,47.3711 183.541,42.7044 181.5,35C 179.934,34.235 178.601,34.4017 177.5,35.5C 175.938,35.2671 174.605,34.6005 173.5,33.5C 172.167,31.8333 170.833,30.1667 169.5,28.5C 170.189,27.2264 171.023,27.2264 172,28.5C 172.698,27.3094 173.531,26.3094 174.5,25.5 Z"/></g>
<g><path style="opacity:1" fill="#7e2307" d="M 137.5,44.5 C 135.496,40.8336 132.829,37.8336 129.5,35.5C 129.791,34.3509 130.624,33.6842 132,33.5C 134.724,33.8025 137.224,34.6359 139.5,36C 138.872,38.9386 138.205,41.7719 137.5,44.5 Z"/></g>
<g><path style="opacity:1" fill="#53530f" d="M 13.5,27.5 C 15.95,28.7765 18.2833,30.2765 20.5,32C 21.8228,32.8159 22.4894,33.9826 22.5,35.5C 18.562,38.0985 14.8953,41.0985 11.5,44.5C 10.2353,43.4855 9.56865,41.9855 9.5,40C 9.78109,36.2614 10.4478,32.5947 11.5,29C 11.8361,27.9701 12.5028,27.4701 13.5,27.5 Z"/></g>
<g><path style="opacity:1" fill="#aac593" d="M 112.5,25.5 C 111.828,28.9419 112.828,31.6086 115.5,33.5C 115.343,34.8734 115.51,36.2068 116,37.5C 116.383,36.944 116.883,36.6107 117.5,36.5C 117.666,40.5138 117.499,44.5138 117,48.5C 116.617,49.056 116.117,49.3893 115.5,49.5C 114.883,49.3893 114.383,49.056 114,48.5C 113.25,43.924 112.083,39.5907 110.5,35.5C 110.5,35.1667 110.5,34.8333 110.5,34.5C 110.215,31.1709 110.882,28.1709 112.5,25.5 Z"/></g>
<g><path style="opacity:1" fill="#d4a652" d="M 173.5,33.5 C 174.605,34.6005 175.938,35.2671 177.5,35.5C 181.776,39.2772 181.109,41.6106 175.5,42.5C 173.876,42.3601 172.71,43.0267 172,44.5C 170.625,48.8985 171.958,52.2318 176,54.5C 176.16,60.6541 177.827,66.3208 181,71.5C 181.69,70.2617 182.19,70.2617 182.5,71.5C 181.766,72.7079 181.433,74.0413 181.5,75.5C 182.5,75.5 183.5,75.5 184.5,75.5C 184.715,77.1788 184.048,78.1788 182.5,78.5C 181.833,78.5 181.5,78.1667 181.5,77.5C 181.938,77.5654 182.272,77.3988 182.5,77C 181.5,76.6667 180.5,76.3333 179.5,76C 180.602,73.6091 179.936,73.1091 177.5,74.5C 176.678,72.8614 176.011,71.1947 175.5,69.5C 175.5,66.1667 175.5,62.8333 175.5,59.5C 172.95,59.4392 171.45,58.1059 171,55.5C 170.768,51.4452 170.268,47.4452 169.5,43.5C 170.09,42.2011 171.09,41.3678 172.5,41C 171.672,40.0853 170.672,39.4186 169.5,39C 171.167,38.6667 172.833,38.3333 174.5,38C 173.62,36.6439 173.286,35.1439 173.5,33.5 Z"/></g>
<g><path style="opacity:1" fill="#6aa950" d="M 110.5,35.5 C 112.083,39.5907 113.25,43.924 114,48.5C 114.383,49.056 114.883,49.3893 115.5,49.5C 115.5,49.8333 115.5,50.1667 115.5,50.5C 114.033,50.1062 112.533,49.7728 111,49.5C 109.674,49.7549 108.674,50.4216 108,51.5C 107.421,49.3513 106.921,47.1846 106.5,45C 108.488,42.1561 109.821,38.9894 110.5,35.5 Z"/></g>
<g><path style="opacity:1" fill="#ce7e34" d="M 159.5,42.5 C 160.638,45.3035 160.805,48.3035 160,51.5C 159.586,51.0426 159.086,50.7093 158.5,50.5C 157.431,51.9095 156.097,52.9095 154.5,53.5C 152.842,52.8186 151.175,51.9853 149.5,51C 151.112,50.2797 152.612,50.4464 154,51.5C 154.847,48.5096 153.68,47.1762 150.5,47.5C 142.626,40.9961 139.626,42.9961 141.5,53.5C 140.767,51.7056 139.767,50.0389 138.5,48.5C 139.166,44.9792 139.833,41.3125 140.5,37.5C 141.216,36.689 142.05,36.0223 143,35.5C 144.893,36.1963 146.726,37.0296 148.5,38C 152.005,40.6752 155.339,43.5085 158.5,46.5C 159.429,45.3112 159.762,43.9778 159.5,42.5 Z"/></g>
<g><path style="opacity:1" fill="#a54613" d="M 127.5,31.5 C 130.902,31.3424 134.236,31.6758 137.5,32.5C 143.038,33.9351 148.372,35.9351 153.5,38.5C 155.5,39.8333 157.5,41.1667 159.5,42.5C 159.762,43.9778 159.429,45.3112 158.5,46.5C 155.339,43.5085 152.005,40.6752 148.5,38C 146.726,37.0296 144.893,36.1963 143,35.5C 142.05,36.0223 141.216,36.689 140.5,37.5C 139.833,41.3125 139.166,44.9792 138.5,48.5C 138.567,47.0413 138.234,45.7079 137.5,44.5C 138.205,41.7719 138.872,38.9386 139.5,36C 137.224,34.6359 134.724,33.8025 132,33.5C 130.624,33.6842 129.791,34.3509 129.5,35.5C 127.896,34.713 127.229,33.3797 127.5,31.5 Z"/></g>
<g><path style="opacity:1" fill="#a48b63" d="M 22.5,35.5 C 22.1667,36.1667 21.8333,36.8333 21.5,37.5C 20.1667,38.1667 19.1667,39.1667 18.5,40.5C 13.7923,44.2066 9.7923,48.5399 6.5,53.5C 5.68509,54.4293 4.85175,55.4293 4,56.5C 3.53566,55.9056 3.36899,55.2389 3.5,54.5C 5.7867,50.8781 8.45337,47.5448 11.5,44.5C 14.8953,41.0985 18.562,38.0985 22.5,35.5 Z"/></g>
<g><path style="opacity:1" fill="#632f0e" d="M 47.5,25.5 C 48.4972,25.4701 49.1639,25.9701 49.5,27C 46.5918,31.1332 42.5918,33.7999 37.5,35C 35.6667,36.8333 33.8333,38.6667 32,40.5C 31.8047,38.7928 31.8047,37.1261 32,35.5C 29.5667,39.3674 27.4,43.3674 25.5,47.5C 23.9907,48.8595 23.324,48.3595 23.5,46C 24.4831,42.8882 25.1497,39.7215 25.5,36.5C 30.0274,34.4049 34.3608,32.0716 38.5,29.5C 41.0955,27.3712 44.0955,26.0378 47.5,25.5 Z"/></g>
<g><path style="opacity:1" fill="#896c41" d="M 57.5,21.5 C 57.8333,21.5 58.1667,21.5 58.5,21.5C 58.1077,23.1789 57.6077,24.8455 57,26.5C 54.0899,27.4503 52.9232,29.4503 53.5,32.5C 53.1667,32.5 52.8333,32.5 52.5,32.5C 52.44,31.9569 52.1067,31.6236 51.5,31.5C 48.1053,32.7269 45.9386,35.0602 45,38.5C 40.5656,42.8102 35.3989,45.4769 29.5,46.5C 28.2058,47.2899 27.0391,48.2899 26,49.5C 25.5357,48.9056 25.369,48.2389 25.5,47.5C 27.4,43.3674 29.5667,39.3674 32,35.5C 31.8047,37.1261 31.8047,38.7928 32,40.5C 33.8333,38.6667 35.6667,36.8333 37.5,35C 42.5918,33.7999 46.5918,31.1332 49.5,27C 49.1639,25.9701 48.4972,25.4701 47.5,25.5C 50.7649,23.9679 54.0982,22.6346 57.5,21.5 Z"/></g>
<g><path style="opacity:1" fill="#e19e43" d="M 190.5,53.5 C 189.167,53.5 187.833,53.5 186.5,53.5C 185.5,52.8333 184.5,52.1667 183.5,51.5C 180.862,48.5256 178.195,45.5256 175.5,42.5C 181.109,41.6106 181.776,39.2772 177.5,35.5C 178.601,34.4017 179.934,34.235 181.5,35C 183.541,42.7044 188.541,47.3711 196.5,49C 194.336,50.4908 192.336,51.9908 190.5,53.5 Z"/></g>
<g><path style="opacity:1" fill="#904920" d="M 205.5,32.5 C 206.167,32.5 206.833,32.5 207.5,32.5C 210.178,35.8726 212.844,39.2059 215.5,42.5C 215.5,42.8333 215.5,43.1667 215.5,43.5C 215.108,45.1789 214.608,46.8455 214,48.5C 212.647,47.3147 211.48,45.9814 210.5,44.5C 209.702,44.9569 209.369,45.6236 209.5,46.5C 208.833,47.8333 208.167,47.8333 207.5,46.5C 208.653,45.6868 208.653,44.6868 207.5,43.5C 208.325,42.6143 209.325,42.281 210.5,42.5C 210.657,41.1266 210.49,39.7932 210,38.5C 207.898,36.9052 206.398,34.9052 205.5,32.5 Z"/></g>
<g><path style="opacity:1" fill="#da9f38" d="M 86.5,29.5 C 87.1667,29.5 87.8333,29.5 88.5,29.5C 88.6716,30.4916 88.3382,31.1583 87.5,31.5C 86.8442,32.6216 86.5108,33.9549 86.5,35.5C 87.3423,46.7307 88.009,57.7307 88.5,68.5C 90.1042,69.287 90.7709,70.6203 90.5,72.5C 88.5,72.5 86.5,72.5 84.5,72.5C 84.5,72.1667 84.5,71.8333 84.5,71.5C 85.7698,60.0076 85.4365,48.6743 83.5,37.5C 82.7784,37.0825 82.2784,36.4158 82,35.5C 81.3292,36.2524 80.4959,36.5858 79.5,36.5C 79.5,35.5 79.5,34.5 79.5,33.5C 81.3718,31.3963 83.7052,30.063 86.5,29.5 Z"/></g>
<g><path style="opacity:1" fill="#691904" d="M 150.5,47.5 C 149.817,49.1765 148.483,49.8432 146.5,49.5C 146.33,50.8221 146.663,51.9887 147.5,53C 149.382,53.1981 151.048,53.6981 152.5,54.5C 152.629,56.2161 152.962,57.8828 153.5,59.5C 152.749,60.5735 151.749,60.7401 150.5,60C 147.824,57.3339 144.824,55.1673 141.5,53.5C 139.626,42.9961 142.626,40.9961 150.5,47.5 Z"/></g>
<g><path style="opacity:1" fill="#72411b" d="M 18.5,40.5 C 15.7483,47.2822 14.7483,54.2822 15.5,61.5C 16.1835,61.1373 16.8501,60.8039 17.5,60.5C 18.209,61.404 19.209,61.7373 20.5,61.5C 19.1938,62.4674 18.5271,63.8007 18.5,65.5C 20.7354,65.2053 22.7354,65.5386 24.5,66.5C 17.6267,66.2888 11.6267,68.2888 6.5,72.5C 6.16667,72.5 5.83333,72.5 5.5,72.5C 4.34732,71.6868 4.34732,70.6868 5.5,69.5C 11.8135,65.9651 14.3135,60.6317 13,53.5C 10.4728,57.2211 8.47277,61.2211 7,65.5C 5.33333,67.1667 3.66667,68.8333 2,70.5C 3.75336,65.0455 5.25336,59.3788 6.5,53.5C 9.7923,48.5399 13.7923,44.2066 18.5,40.5 Z"/></g>
<g><path style="opacity:1" fill="#f8e6b9" d="M 215.5,43.5 C 216.339,44.6412 217.006,45.9745 217.5,47.5C 219.437,48.1575 221.27,48.4908 223,48.5C 223.236,50.8113 224.069,52.8113 225.5,54.5C 223.4,54.5228 221.567,53.8561 220,52.5C 218.351,53.8977 217.018,53.5644 216,51.5C 215.667,51.8333 215.333,52.1667 215,52.5C 212.932,50.6038 211.099,48.6038 209.5,46.5C 209.369,45.6236 209.702,44.9569 210.5,44.5C 211.48,45.9814 212.647,47.3147 214,48.5C 214.608,46.8455 215.108,45.1789 215.5,43.5 Z"/></g>
<g><path style="opacity:1" fill="#d28126" d="M 87.5,31.5 C 89.4996,43.8146 89.833,56.148 88.5,68.5C 88.009,57.7307 87.3423,46.7307 86.5,35.5C 86.5108,33.9549 86.8442,32.6216 87.5,31.5 Z"/></g>
<g><path style="opacity:1" fill="#a16323" d="M 52.5,32.5 C 49.8476,36.9982 47.5143,41.6649 45.5,46.5C 45.1667,47.5 44.5,48.1667 43.5,48.5C 42.8826,48.6107 42.3826,48.944 42,49.5C 41.3333,52.1667 40.6667,54.8333 40,57.5C 38.3005,58.4061 36.4672,58.7394 34.5,58.5C 33.8333,58.5 33.1667,58.5 32.5,58.5C 32.33,57.1779 32.6634,56.0113 33.5,55C 32.8095,53.9326 32.3095,52.7659 32,51.5C 30.8668,53.2112 29.3668,53.7112 27.5,53C 28.6399,51.0266 29.9733,49.1933 31.5,47.5C 31.0431,46.7025 30.3764,46.3691 29.5,46.5C 35.3989,45.4769 40.5656,42.8102 45,38.5C 45.9386,35.0602 48.1053,32.7269 51.5,31.5C 52.1067,31.6236 52.44,31.9569 52.5,32.5 Z"/></g>
<g><path style="opacity:1" fill="#b16422" d="M 83.5,37.5 C 83.79,48.8841 83.4567,60.2175 82.5,71.5C 81.7444,61.1465 80.7444,50.8132 79.5,40.5C 79.5,39.1667 79.5,37.8333 79.5,36.5C 80.4959,36.5858 81.3292,36.2524 82,35.5C 82.2784,36.4158 82.7784,37.0825 83.5,37.5 Z"/></g>
<g><path style="opacity:1" fill="#761f00" d="M 86.5,29.5 C 86.5,29.1667 86.5,28.8333 86.5,28.5C 89.8499,28.335 93.1832,28.5017 96.5,29C 98.0931,29.9487 99.4264,31.1154 100.5,32.5C 100.214,34.2769 99.5471,35.9436 98.5,37.5C 99.4544,48.134 99.7878,58.8007 99.5,69.5C 99.7148,71.1788 99.0481,72.1788 97.5,72.5C 96.9101,71.234 96.4101,69.9007 96,68.5C 95.7508,69.624 95.2508,70.624 94.5,71.5C 93.71,60.4957 92.8767,49.4957 92,38.5C 90.9328,37.0569 89.7662,35.7236 88.5,34.5C 89.0736,32.9411 89.7402,31.4411 90.5,30C 89.9056,29.5357 89.2389,29.369 88.5,29.5C 87.8333,29.5 87.1667,29.5 86.5,29.5 Z"/></g>
<g><path style="opacity:1" fill="#5a7e31" d="M 110.5,34.5 C 110.5,34.8333 110.5,35.1667 110.5,35.5C 109.821,38.9894 108.488,42.1561 106.5,45C 106.921,47.1846 107.421,49.3513 108,51.5C 108.674,50.4216 109.674,49.7549 111,49.5C 112.533,49.7728 114.033,50.1062 115.5,50.5C 115.401,53.2372 115.735,55.9039 116.5,58.5C 116.637,62.8757 116.804,67.2091 117,71.5C 116.439,68.71 115.106,66.3766 113,64.5C 112.655,72.9378 114.155,80.9378 117.5,88.5C 117.608,93.7051 118.608,98.7051 120.5,103.5C 120.5,105.5 120.5,107.5 120.5,109.5C 120.672,110.492 120.338,111.158 119.5,111.5C 116.294,95.342 112.46,79.342 108,63.5C 106.69,55.8804 105.857,48.2137 105.5,40.5C 105.337,38.1432 105.503,35.8098 106,33.5C 107.816,32.2568 109.316,32.5901 110.5,34.5 Z"/></g>
<g><path style="opacity:1" fill="#b3501a" d="M 150.5,47.5 C 153.68,47.1762 154.847,48.5096 154,51.5C 152.612,50.4464 151.112,50.2797 149.5,51C 151.175,51.9853 152.842,52.8186 154.5,53.5C 154.158,54.3382 153.492,54.6716 152.5,54.5C 151.048,53.6981 149.382,53.1981 147.5,53C 146.663,51.9887 146.33,50.8221 146.5,49.5C 148.483,49.8432 149.817,49.1765 150.5,47.5 Z"/></g>
<g><path style="opacity:1" fill="#daa779" d="M 205.5,46.5 C 206.167,46.5 206.833,46.5 207.5,46.5C 208.167,47.8333 208.833,47.8333 209.5,46.5C 211.099,48.6038 212.932,50.6038 215,52.5C 215.333,52.1667 215.667,51.8333 216,51.5C 217.018,53.5644 218.351,53.8977 220,52.5C 221.567,53.8561 223.4,54.5228 225.5,54.5C 226.338,54.1583 226.672,53.4916 226.5,52.5C 227.434,53.5676 227.768,54.901 227.5,56.5C 225.784,56.6287 224.117,56.962 222.5,57.5C 221.596,56.791 221.263,55.791 221.5,54.5C 217.876,56.0261 214.876,55.1928 212.5,52C 211.207,51.51 209.873,51.3433 208.5,51.5C 205.035,51.1434 204.035,49.4767 205.5,46.5 Z"/></g>
<g><path style="opacity:1" fill="#622a0b" d="M 18.5,40.5 C 20.045,41.2297 20.8784,42.563 21,44.5C 21.6477,49.2041 21.481,53.8708 20.5,58.5C 19.7095,59.4013 18.7095,60.0679 17.5,60.5C 16.8501,60.8039 16.1835,61.1373 15.5,61.5C 14.7483,54.2822 15.7483,47.2822 18.5,40.5 Z"/></g>
<g><path style="opacity:1" fill="#501300" d="M 100.5,32.5 C 101.338,32.8417 101.672,33.5084 101.5,34.5C 101.223,37.4475 101.556,40.2809 102.5,43C 101.887,51.9702 100.887,60.8035 99.5,69.5C 99.7878,58.8007 99.4544,48.134 98.5,37.5C 99.5471,35.9436 100.214,34.2769 100.5,32.5 Z"/></g>
<g><path style="opacity:1" fill="#b96023" d="M 196.5,43.5 C 198.792,47.2322 201.458,50.7322 204.5,54C 204.43,54.7648 204.097,55.2648 203.5,55.5C 200.17,54.3342 196.837,54.3342 193.5,55.5C 193.855,56.5223 194.522,57.189 195.5,57.5C 194.622,62.3991 192.955,62.7324 190.5,58.5C 190.762,57.0222 190.429,55.6888 189.5,54.5C 188.078,55.7768 187.078,55.4435 186.5,53.5C 187.833,53.5 189.167,53.5 190.5,53.5C 192.821,53.7711 194.821,53.1045 196.5,51.5C 197.205,48.911 197.205,46.2443 196.5,43.5 Z"/></g>
<g><path style="opacity:1" fill="#7e4b22" d="M 25.5,36.5 C 25.1497,39.7215 24.4831,42.8882 23.5,46C 23.324,48.3595 23.9907,48.8595 25.5,47.5C 25.369,48.2389 25.5357,48.9056 26,49.5C 27.0391,48.2899 28.2058,47.2899 29.5,46.5C 30.3764,46.3691 31.0431,46.7025 31.5,47.5C 29.9733,49.1933 28.6399,51.0266 27.5,53C 29.3668,53.7112 30.8668,53.2112 32,51.5C 32.3095,52.7659 32.8095,53.9326 33.5,55C 32.6634,56.0113 32.33,57.1779 32.5,58.5C 28.5,58.5 24.5,58.5 20.5,58.5C 21.481,53.8708 21.6477,49.2041 21,44.5C 20.8784,42.563 20.045,41.2297 18.5,40.5C 19.1667,39.1667 20.1667,38.1667 21.5,37.5C 22.8333,37.1667 24.1667,36.8333 25.5,36.5 Z"/></g>
<g><path style="opacity:1" fill="#703a11" d="M 79.5,40.5 C 80.7444,50.8132 81.7444,61.1465 82.5,71.5C 83.1667,71.5 83.8333,71.5 84.5,71.5C 84.5,71.8333 84.5,72.1667 84.5,72.5C 82.549,72.2267 81.049,72.8934 80,74.5C 79.6256,80.5855 78.7923,86.5855 77.5,92.5C 76.7656,91.1225 76.0989,89.6225 75.5,88C 75.897,85.3015 74.7303,83.1349 72,81.5C 70.9242,78.3516 69.5909,75.3516 68,72.5C 67.0709,76.5813 66.4042,80.5813 66,84.5C 61.4443,85.6845 59.2777,88.6845 59.5,93.5C 58.8165,93.1373 58.1499,92.8039 57.5,92.5C 56.7677,91.1917 55.9344,89.8584 55,88.5C 53.2753,76.4158 51.442,64.4158 49.5,52.5C 49.981,55.7824 50.981,58.9491 52.5,62C 55.1001,61.6466 57.7668,61.1466 60.5,60.5C 62.0441,60.7896 63.3774,61.4563 64.5,62.5C 65.3027,59.6881 64.8027,57.0215 63,54.5C 62.0539,52.0437 62.5539,50.0437 64.5,48.5C 66.8227,49.9943 67.156,51.8276 65.5,54C 68.2634,62.4914 68.9301,62.1581 67.5,53C 69.2567,50.1544 71.2567,47.4878 73.5,45C 75.0249,43.9914 76.6916,43.4914 78.5,43.5C 78.2627,42.209 78.596,41.209 79.5,40.5 Z"/></g>
<g><path style="opacity:1" fill="#6f4b32" d="M 208.5,51.5 C 209.873,51.3433 211.207,51.51 212.5,52C 214.876,55.1928 217.876,56.0261 221.5,54.5C 221.263,55.791 221.596,56.791 222.5,57.5C 221.306,58.2719 220.306,59.2719 219.5,60.5C 218.5,60.1667 217.833,59.5 217.5,58.5C 216.038,57.5291 214.705,57.8624 213.5,59.5C 213.167,59.5 212.833,59.5 212.5,59.5C 211.016,56.8145 209.683,54.1478 208.5,51.5 Z"/></g>
<g><path style="opacity:1" fill="#805f36" d="M 6.5,53.5 C 5.25336,59.3788 3.75336,65.0455 2,70.5C 3.66667,68.8333 5.33333,67.1667 7,65.5C 8.47277,61.2211 10.4728,57.2211 13,53.5C 14.3135,60.6317 11.8135,65.9651 5.5,69.5C 4.34732,70.6868 4.34732,71.6868 5.5,72.5C 3.73535,73.4614 1.73535,73.7947 -0.5,73.5C -0.5,68.8333 -0.5,64.1667 -0.5,59.5C 0.833333,57.8333 2.16667,56.1667 3.5,54.5C 3.36899,55.2389 3.53566,55.9056 4,56.5C 4.85175,55.4293 5.68509,54.4293 6.5,53.5 Z"/></g>
<g><path style="opacity:1" fill="#8c2e02" d="M 88.5,29.5 C 89.2389,29.369 89.9056,29.5357 90.5,30C 89.7402,31.4411 89.0736,32.9411 88.5,34.5C 89.7662,35.7236 90.9328,37.0569 92,38.5C 92.8767,49.4957 93.71,60.4957 94.5,71.5C 95.2508,70.624 95.7508,69.624 96,68.5C 96.4101,69.9007 96.9101,71.234 97.5,72.5C 95.1667,72.5 92.8333,72.5 90.5,72.5C 90.7709,70.6203 90.1042,69.287 88.5,68.5C 89.833,56.148 89.4996,43.8146 87.5,31.5C 88.3382,31.1583 88.6716,30.4916 88.5,29.5 Z"/></g>
<g><path style="opacity:1" fill="#28161c" d="M 134.5,43.5 C 135.117,43.6107 135.617,43.944 136,44.5C 136.29,46.9204 136.79,49.2537 137.5,51.5C 133.946,62.1731 132.612,73.1731 133.5,84.5C 133.819,89.3633 133.486,94.03 132.5,98.5C 132.176,97.1879 131.509,96.3546 130.5,96C 131.378,92.7138 131.711,89.5471 131.5,86.5C 130.478,85.646 129.645,84.646 129,83.5C 127.929,79.7961 127.762,76.1294 128.5,72.5C 126.933,70.1039 126.1,67.4372 126,64.5C 124.989,63.6634 123.822,63.33 122.5,63.5C 122.444,60.4392 123.778,58.2725 126.5,57C 125.552,56.5172 124.552,56.3505 123.5,56.5C 123.878,54.079 124.545,51.7457 125.5,49.5C 126.058,48.2101 127.058,47.3768 128.5,47C 126.699,46.6827 126.366,46.016 127.5,45C 130.036,44.8138 132.369,44.3138 134.5,43.5 Z"/></g>
<g><path style="opacity:1" fill="#d88a3a" d="M 175.5,42.5 C 178.195,45.5256 180.862,48.5256 183.5,51.5C 179.485,50.4089 175.985,48.4089 173,45.5C 172.316,46.7839 172.483,47.9505 173.5,49C 176.417,50.5275 179.417,51.8608 182.5,53C 177.373,53.4741 177.373,54.4741 182.5,56C 182.167,56.3333 181.833,56.6667 181.5,57C 183.178,59.1937 184.178,61.6937 184.5,64.5C 184.662,66.5273 184.495,68.5273 184,70.5C 183.617,71.056 183.117,71.3893 182.5,71.5C 182.19,70.2617 181.69,70.2617 181,71.5C 177.827,66.3208 176.16,60.6541 176,54.5C 171.958,52.2318 170.625,48.8985 172,44.5C 172.71,43.0267 173.876,42.3601 175.5,42.5 Z"/></g>
<g><path style="opacity:1" fill="#d6c778" d="M 169.5,28.5 C 170.833,30.1667 172.167,31.8333 173.5,33.5C 173.286,35.1439 173.62,36.6439 174.5,38C 172.833,38.3333 171.167,38.6667 169.5,39C 170.672,39.4186 171.672,40.0853 172.5,41C 171.09,41.3678 170.09,42.2011 169.5,43.5C 170.268,47.4452 170.768,51.4452 171,55.5C 171.45,58.1059 172.95,59.4392 175.5,59.5C 175.5,62.8333 175.5,66.1667 175.5,69.5C 174.279,70.0283 173.113,70.695 172,71.5C 172.077,70.2624 171.911,69.2624 171.5,68.5C 170.52,69.9814 169.353,71.3147 168,72.5C 168.625,69.8536 169.291,67.1869 170,64.5C 165.733,70.6332 161.9,76.9666 158.5,83.5C 156.247,81.5497 155.914,79.2163 157.5,76.5C 156.831,73.8035 156.164,71.1368 155.5,68.5C 157.351,65.6223 159.018,62.6223 160.5,59.5C 157.891,58.9155 155.557,58.9155 153.5,59.5C 152.962,57.8828 152.629,56.2161 152.5,54.5C 153.492,54.6716 154.158,54.3382 154.5,53.5C 156.097,52.9095 157.431,51.9095 158.5,50.5C 159.086,50.7093 159.586,51.0426 160,51.5C 160.805,48.3035 160.638,45.3035 159.5,42.5C 157.5,41.1667 155.5,39.8333 153.5,38.5C 153.67,37.1779 153.337,36.0113 152.5,35C 153.5,34.6667 154.5,34.3333 155.5,34C 151.639,33.4309 151.639,32.5976 155.5,31.5C 152.215,30.6764 148.882,30.1764 145.5,30C 147.891,29.7132 150.224,29.2132 152.5,28.5C 153.386,27.675 153.719,26.675 153.5,25.5C 148.5,24.9969 148.833,24.6636 154.5,24.5C 157.141,23.7369 159.808,23.5702 162.5,24C 164.228,26.582 166.561,28.082 169.5,28.5 Z"/></g>
<g><path style="opacity:1" fill="#92794d" d="M 20.5,58.5 C 24.5,58.5 28.5,58.5 32.5,58.5C 33.1667,58.5 33.8333,58.5 34.5,58.5C 34.1898,60.1436 33.1898,61.1436 31.5,61.5C 27.8333,61.5 24.1667,61.5 20.5,61.5C 19.209,61.7373 18.209,61.404 17.5,60.5C 18.7095,60.0679 19.7095,59.4013 20.5,58.5 Z"/></g>
<g><path style="opacity:1" fill="#1a0d04" d="M 102.5,34.5 C 104.06,36.1561 105.06,38.1561 105.5,40.5C 105.857,48.2137 106.69,55.8804 108,63.5C 112.46,79.342 116.294,95.342 119.5,111.5C 120.977,122.091 121.644,132.757 121.5,143.5C 118.5,143.5 115.5,143.5 112.5,143.5C 113.399,134.18 113.566,124.847 113,115.5C 112.044,114.106 110.711,113.439 109,113.5C 105.715,114.206 102.548,115.206 99.5,116.5C 99.0742,115.472 99.0742,114.139 99.5,112.5C 101.423,112.205 103.09,111.372 104.5,110C 104.167,109.667 103.833,109.333 103.5,109C 104.525,106.929 105.358,104.762 106,102.5C 107.914,100.252 109.414,97.7519 110.5,95C 109.073,88.0541 107.24,81.2207 105,74.5C 104.826,69.6486 104.326,64.9819 103.5,60.5C 103.632,51.8089 103.299,43.1423 102.5,34.5 Z"/></g>
<g><path style="opacity:1" fill="#d7b356" d="M 142.5,60.5 C 142.5,60.1667 142.5,59.8333 142.5,59.5C 147.026,60.0409 150.026,62.3743 151.5,66.5C 150.448,66.6495 149.448,66.4828 148.5,66C 146.195,64.3736 144.195,62.5402 142.5,60.5 Z"/></g>
<g><path style="opacity:1" fill="#cb7624" d="M 83.5,37.5 C 85.4365,48.6743 85.7698,60.0076 84.5,71.5C 83.8333,71.5 83.1667,71.5 82.5,71.5C 83.4567,60.2175 83.79,48.8841 83.5,37.5 Z"/></g>
<g><path style="opacity:1" fill="#f4efda" d="M 217.5,58.5 C 217.833,59.5 218.5,60.1667 219.5,60.5C 219.935,63.1573 220.935,65.4907 222.5,67.5C 222.5,67.8333 222.5,68.1667 222.5,68.5C 222.5,68.8333 222.5,69.1667 222.5,69.5C 219.295,66.9465 217.295,63.6131 216.5,59.5C 216.624,58.8933 216.957,58.56 217.5,58.5 Z"/></g>
<g><path style="opacity:1" fill="#592203" d="M 45.5,46.5 C 47.2128,47.305 48.8794,48.305 50.5,49.5C 49.8728,50.4168 49.5394,51.4168 49.5,52.5C 51.442,64.4158 53.2753,76.4158 55,88.5C 55.9344,89.8584 56.7677,91.1917 57.5,92.5C 60.1609,98.4448 60.8275,104.445 59.5,110.5C 55.6852,104.791 53.0185,98.4575 51.5,91.5C 50.3717,90.7379 49.2051,90.0712 48,89.5C 47.7837,87.6161 47.117,85.9494 46,84.5C 45.095,89.239 43.7617,93.9056 42,98.5C 41.5004,91.5079 41.3337,84.5079 41.5,77.5C 44.7609,77.8995 45.4276,76.7329 43.5,74C 43.8646,71.7395 44.5313,69.5728 45.5,67.5C 42.5221,61.3868 41.8555,55.0535 43.5,48.5C 44.5,48.1667 45.1667,47.5 45.5,46.5 Z"/></g>
<g><path style="opacity:1" fill="#cb8d41" d="M 129.5,35.5 C 132.829,37.8336 135.496,40.8336 137.5,44.5C 138.234,45.7079 138.567,47.0413 138.5,48.5C 139.767,50.0389 140.767,51.7056 141.5,53.5C 144.824,55.1673 147.824,57.3339 150.5,60C 151.749,60.7401 152.749,60.5735 153.5,59.5C 155.557,58.9155 157.891,58.9155 160.5,59.5C 159.018,62.6223 157.351,65.6223 155.5,68.5C 155.167,68.5 154.833,68.5 154.5,68.5C 154.179,66.9519 153.179,66.2852 151.5,66.5C 150.026,62.3743 147.026,60.0409 142.5,59.5C 142.167,59.5 141.833,59.5 141.5,59.5C 140.833,58.1667 140.167,56.8333 139.5,55.5C 139.011,54.0048 138.345,52.6715 137.5,51.5C 136.79,49.2537 136.29,46.9204 136,44.5C 135.617,43.944 135.117,43.6107 134.5,43.5C 132.86,40.8508 131.193,38.1841 129.5,35.5 Z"/></g>
<g><path style="opacity:1" fill="#a5611b" d="M 20.5,61.5 C 24.1667,61.5 27.8333,61.5 31.5,61.5C 32.5,63.1667 33.8333,64.5 35.5,65.5C 35.3205,67.9541 35.9872,70.1208 37.5,72C 37.3333,72.5 37.1667,73 37,73.5C 36.5831,72.244 35.7498,71.5774 34.5,71.5C 31.6699,68.7516 28.3365,67.0849 24.5,66.5C 22.7354,65.5386 20.7354,65.2053 18.5,65.5C 18.5271,63.8007 19.1938,62.4674 20.5,61.5 Z"/></g>
<g><path style="opacity:1" fill="#1b1f11" d="M 117.5,36.5 C 117.833,36.5 118.167,36.5 118.5,36.5C 118.334,42.8421 118.5,49.1754 119,55.5C 119.232,56.7375 119.732,57.7375 120.5,58.5C 121.058,64.8455 121.724,71.1789 122.5,77.5C 121.596,78.209 121.263,79.209 121.5,80.5C 120.833,78.8333 120.167,77.1667 119.5,75.5C 118.951,69.6261 117.951,63.9595 116.5,58.5C 115.735,55.9039 115.401,53.2372 115.5,50.5C 115.5,50.1667 115.5,49.8333 115.5,49.5C 116.117,49.3893 116.617,49.056 117,48.5C 117.499,44.5138 117.666,40.5138 117.5,36.5 Z"/></g>
<g><path style="opacity:1" fill="#370e01" d="M 139.5,55.5 C 140.167,56.8333 140.833,58.1667 141.5,59.5C 140.962,61.1172 140.629,62.7839 140.5,64.5C 139.176,75.0157 138.009,85.6823 137,96.5C 136.5,87.5062 136.334,78.5062 136.5,69.5C 136.765,65.1467 137.265,60.8134 138,56.5C 138.383,55.944 138.883,55.6107 139.5,55.5 Z"/></g>
<g><path style="opacity:1" fill="#3f1606" d="M 101.5,34.5 C 101.833,34.5 102.167,34.5 102.5,34.5C 103.299,43.1423 103.632,51.8089 103.5,60.5C 102.833,64.8333 102.167,69.1667 101.5,73.5C 95.642,73.8222 89.9753,73.4889 84.5,72.5C 86.5,72.5 88.5,72.5 90.5,72.5C 92.8333,72.5 95.1667,72.5 97.5,72.5C 99.0481,72.1788 99.7148,71.1788 99.5,69.5C 100.887,60.8035 101.887,51.9702 102.5,43C 101.556,40.2809 101.223,37.4475 101.5,34.5 Z"/></g>
<g><path style="opacity:1" fill="#ba8560" d="M 217.5,58.5 C 216.957,58.56 216.624,58.8933 216.5,59.5C 217.295,63.6131 219.295,66.9465 222.5,69.5C 222.884,74.0102 223.551,78.3435 224.5,82.5C 224.631,85.3667 223.297,87.0334 220.5,87.5C 220.815,83.6286 220.482,79.9619 219.5,76.5C 219.672,75.5084 219.338,74.8417 218.5,74.5C 217.453,69.3602 215.787,64.3602 213.5,59.5C 214.705,57.8624 216.038,57.5291 217.5,58.5 Z"/></g>
<g><path style="opacity:1" fill="#829073" d="M 226.5,68.5 C 229.518,68.7038 232.518,69.0371 235.5,69.5C 236.5,69.5 237.5,69.5 238.5,69.5C 239.791,69.2627 240.791,69.596 241.5,70.5C 240.833,70.5 240.5,70.8333 240.5,71.5C 236.585,70.7332 232.585,70.2332 228.5,70C 227.584,69.7216 226.918,69.2216 226.5,68.5 Z"/></g>
<g><path style="opacity:1" fill="#44561b" d="M 116.5,58.5 C 117.951,63.9595 118.951,69.6261 119.5,75.5C 119.344,78.0661 119.678,80.5661 120.5,83C 118.424,84.2438 117.424,86.0771 117.5,88.5C 114.155,80.9378 112.655,72.9378 113,64.5C 115.106,66.3766 116.439,68.71 117,71.5C 116.804,67.2091 116.637,62.8757 116.5,58.5 Z"/></g>
<g><path style="opacity:1" fill="#923305" d="M 194.5,27.5 C 196.903,27.448 199.236,27.7814 201.5,28.5C 202.167,29.5 202.833,30.5 203.5,31.5C 204.677,33.1026 204.511,34.436 203,35.5C 200.899,34.0755 198.733,32.7422 196.5,31.5C 195.5,31.8333 194.833,32.5 194.5,33.5C 198.934,37.2606 202.601,41.594 205.5,46.5C 204.035,49.4767 205.035,51.1434 208.5,51.5C 209.683,54.1478 211.016,56.8145 212.5,59.5C 211.883,59.6107 211.383,59.944 211,60.5C 210.503,63.146 210.336,65.8127 210.5,68.5C 207.819,68.5379 205.319,67.8713 203,66.5C 202.5,66.8333 202,67.1667 201.5,67.5C 204.879,68.6884 207.713,70.6884 210,73.5C 210.594,76.2189 209.76,76.8856 207.5,75.5C 206.194,73.5273 204.527,71.8606 202.5,70.5C 202.103,69.475 201.437,69.3083 200.5,70C 198.131,73.2258 195.131,75.3924 191.5,76.5C 192.341,74.6208 192.675,72.6208 192.5,70.5C 190.5,70.8333 188.5,71.1667 186.5,71.5C 186.662,69.4727 186.495,67.4727 186,65.5C 185.617,64.944 185.117,64.6107 184.5,64.5C 184.178,61.6937 183.178,59.1937 181.5,57C 181.833,56.6667 182.167,56.3333 182.5,56C 177.373,54.4741 177.373,53.4741 182.5,53C 179.417,51.8608 176.417,50.5275 173.5,49C 172.483,47.9505 172.316,46.7839 173,45.5C 175.985,48.4089 179.485,50.4089 183.5,51.5C 184.5,52.1667 185.5,52.8333 186.5,53.5C 187.078,55.4435 188.078,55.7768 189.5,54.5C 190.429,55.6888 190.762,57.0222 190.5,58.5C 189.009,55.7704 187.675,55.937 186.5,59C 187.623,60.0437 188.956,60.7104 190.5,61C 192.005,63.6696 194.005,65.8363 196.5,67.5C 200.094,65.8998 203.427,63.8998 206.5,61.5C 207.942,58.4908 206.942,56.8241 203.5,56.5C 203.5,56.1667 203.5,55.8333 203.5,55.5C 204.097,55.2648 204.43,54.7648 204.5,54C 201.458,50.7322 198.792,47.2322 196.5,43.5C 195.89,42.609 195.557,41.609 195.5,40.5C 192.297,37.726 189.297,34.726 186.5,31.5C 184.154,28.5605 184.487,26.5605 187.5,25.5C 189.729,26.5771 192.063,27.2437 194.5,27.5 Z"/></g>
<g><path style="opacity:1" fill="#6b1f02" d="M 190.5,58.5 C 192.955,62.7324 194.622,62.3991 195.5,57.5C 198.546,58.3854 201.546,59.3854 204.5,60.5C 204.567,59.0413 204.234,57.7079 203.5,56.5C 206.942,56.8241 207.942,58.4908 206.5,61.5C 203.427,63.8998 200.094,65.8998 196.5,67.5C 194.005,65.8363 192.005,63.6696 190.5,61C 188.956,60.7104 187.623,60.0437 186.5,59C 187.675,55.937 189.009,55.7704 190.5,58.5 Z"/></g>
<g><path style="opacity:1" fill="#411e0b" d="M 203.5,55.5 C 203.5,55.8333 203.5,56.1667 203.5,56.5C 204.234,57.7079 204.567,59.0413 204.5,60.5C 201.546,59.3854 198.546,58.3854 195.5,57.5C 194.522,57.189 193.855,56.5223 193.5,55.5C 196.837,54.3342 200.17,54.3342 203.5,55.5 Z"/></g>
<g><path style="opacity:1" fill="#6a6142" d="M 15.5,71.5 C 18.1873,71.3359 20.854,71.5026 23.5,72C 22.5842,72.2784 21.9175,72.7784 21.5,73.5C 18.7938,73.5751 16.1272,73.9084 13.5,74.5C 8.81367,75.0373 4.14701,75.704 -0.5,76.5C -0.5,75.5 -0.5,74.5 -0.5,73.5C 1.73535,73.7947 3.73535,73.4614 5.5,72.5C 5.83333,72.5 6.16667,72.5 6.5,72.5C 9.48237,72.0371 12.4824,71.7038 15.5,71.5 Z"/></g>
<g><path style="opacity:1" fill="#b6581f" d="M 212.5,59.5 C 212.833,59.5 213.167,59.5 213.5,59.5C 215.787,64.3602 217.453,69.3602 218.5,74.5C 215.389,77.0007 213.723,80.3341 213.5,84.5C 211.146,82.8122 209.146,80.8122 207.5,78.5C 208.116,77.7978 208.116,76.7978 207.5,75.5C 209.76,76.8856 210.594,76.2189 210,73.5C 207.713,70.6884 204.879,68.6884 201.5,67.5C 202,67.1667 202.5,66.8333 203,66.5C 205.319,67.8713 207.819,68.5379 210.5,68.5C 210.336,65.8127 210.503,63.146 211,60.5C 211.383,59.944 211.883,59.6107 212.5,59.5 Z"/></g>
<g><path style="opacity:1" fill="#b9672a" d="M 184.5,64.5 C 185.117,64.6107 185.617,64.944 186,65.5C 186.495,67.4727 186.662,69.4727 186.5,71.5C 188.5,71.1667 190.5,70.8333 192.5,70.5C 192.675,72.6208 192.341,74.6208 191.5,76.5C 188.412,76.7311 186.079,78.0645 184.5,80.5C 183.167,80.5 182.5,79.8333 182.5,78.5C 184.048,78.1788 184.715,77.1788 184.5,75.5C 183.5,75.5 182.5,75.5 181.5,75.5C 181.433,74.0413 181.766,72.7079 182.5,71.5C 183.117,71.3893 183.617,71.056 184,70.5C 184.495,68.5273 184.662,66.5273 184.5,64.5 Z"/></g>
<g><path style="opacity:1" fill="#241813" d="M 84.5,72.5 C 89.9753,73.4889 95.642,73.8222 101.5,73.5C 97.4345,74.1933 93.2679,74.8599 89,75.5C 88.3291,84.197 87.4958,92.8637 86.5,101.5C 84.3812,101.468 83.0478,102.468 82.5,104.5C 81.1667,103.833 80.1667,102.833 79.5,101.5C 79.1667,100.5 78.5,99.8333 77.5,99.5C 77.5,98.5 77.5,97.5 77.5,96.5C 77.5,95.1667 77.5,93.8333 77.5,92.5C 78.7923,86.5855 79.6256,80.5855 80,74.5C 81.049,72.8934 82.549,72.2267 84.5,72.5 Z"/></g>
<g><path style="opacity:1" fill="#160700" d="M 103.5,60.5 C 104.326,64.9819 104.826,69.6486 105,74.5C 107.24,81.2207 109.073,88.0541 110.5,95C 109.414,97.7519 107.914,100.252 106,102.5C 105.358,104.762 104.525,106.929 103.5,109C 103.833,109.333 104.167,109.667 104.5,110C 103.09,111.372 101.423,112.205 99.5,112.5C 97.4334,112.468 96.1001,111.468 95.5,109.5C 96.8449,107.677 97.3449,105.677 97,103.5C 96.5,104 96,104.5 95.5,105C 91.8484,105.499 88.1817,105.665 84.5,105.5C 83.5084,105.672 82.8417,105.338 82.5,104.5C 83.0478,102.468 84.3812,101.468 86.5,101.5C 87.4958,92.8637 88.3291,84.197 89,75.5C 93.2679,74.8599 97.4345,74.1933 101.5,73.5C 102.167,69.1667 102.833,64.8333 103.5,60.5 Z"/></g>
<g><path style="opacity:1" fill="#742909" d="M 202.5,70.5 C 198.65,72.5225 197.317,75.5225 198.5,79.5C 196.336,79.7215 194.67,80.7215 193.5,82.5C 193.158,81.6618 192.492,81.3284 191.5,81.5C 188.941,81.8016 186.607,81.4682 184.5,80.5C 186.079,78.0645 188.412,76.7311 191.5,76.5C 195.131,75.3924 198.131,73.2258 200.5,70C 201.437,69.3083 202.103,69.475 202.5,70.5 Z"/></g>
<g><path style="opacity:1" fill="#d57f30" d="M 202.5,70.5 C 204.527,71.8606 206.194,73.5273 207.5,75.5C 208.116,76.7978 208.116,77.7978 207.5,78.5C 205.265,78.2053 203.265,78.5386 201.5,79.5C 200.5,79.5 199.5,79.5 198.5,79.5C 197.317,75.5225 198.65,72.5225 202.5,70.5 Z"/></g>
<g><path style="opacity:1" fill="#9d471c" d="M 218.5,74.5 C 219.338,74.8417 219.672,75.5084 219.5,76.5C 218.358,80.0712 217.691,83.7379 217.5,87.5C 215.143,87.6633 212.81,87.4966 210.5,87C 209.792,81.795 206.792,79.295 201.5,79.5C 203.265,78.5386 205.265,78.2053 207.5,78.5C 209.146,80.8122 211.146,82.8122 213.5,84.5C 213.723,80.3341 215.389,77.0007 218.5,74.5 Z"/></g>
<g><path style="opacity:1" fill="#e7d5b3" d="M 222.5,69.5 C 223.736,71.649 224.736,73.9823 225.5,76.5C 225.167,78.5 224.833,80.5 224.5,82.5C 223.551,78.3435 222.884,74.0102 222.5,69.5 Z"/></g>
<g><path style="opacity:1" fill="#34412c" d="M 122.5,77.5 C 124.282,85.9651 125.616,94.6318 126.5,103.5C 124.65,97.5359 122.983,91.5359 121.5,85.5C 121.5,83.8333 121.5,82.1667 121.5,80.5C 121.263,79.209 121.596,78.209 122.5,77.5 Z"/></g>
<g><path style="opacity:1" fill="#c1b16e" d="M 175.5,69.5 C 176.011,71.1947 176.678,72.8614 177.5,74.5C 179.936,73.1091 180.602,73.6091 179.5,76C 180.5,76.3333 181.5,76.6667 182.5,77C 182.272,77.3988 181.938,77.5654 181.5,77.5C 179.95,78.4408 178.284,79.1075 176.5,79.5C 176.265,78.9033 175.765,78.5699 175,78.5C 172.953,79.6094 170.787,80.2761 168.5,80.5C 167.722,79.8444 167.056,79.0111 166.5,78C 169.313,73.1056 168.813,72.6056 165,76.5C 163.684,79.6883 163.184,83.0217 163.5,86.5C 160.188,86.7893 157.188,87.1226 154.5,87.5C 153.348,88.625 152.348,88.625 151.5,87.5C 153.697,83.885 154.03,80.0517 152.5,76C 154.278,73.8646 154.945,71.3646 154.5,68.5C 154.833,68.5 155.167,68.5 155.5,68.5C 156.164,71.1368 156.831,73.8035 157.5,76.5C 155.914,79.2163 156.247,81.5497 158.5,83.5C 161.9,76.9666 165.733,70.6332 170,64.5C 169.291,67.1869 168.625,69.8536 168,72.5C 169.353,71.3147 170.52,69.9814 171.5,68.5C 171.911,69.2624 172.077,70.2624 172,71.5C 173.113,70.695 174.279,70.0283 175.5,69.5 Z"/></g>
<g><path style="opacity:1" fill="#331602" d="M 15.5,71.5 C 19.1046,70.1329 22.7713,70.2996 26.5,72C 35.7708,81.9793 35.7708,91.8127 26.5,101.5C 25.0807,99.7853 23.7473,97.9519 22.5,96C 25.072,95.7582 26.7386,94.4249 27.5,92C 26.6431,90.0315 25.6431,88.0315 24.5,86C 26.5582,84.1921 26.8916,82.0254 25.5,79.5C 27.1992,79.6602 28.8659,79.4935 30.5,79C 27.1182,78.8236 23.7848,78.3236 20.5,77.5C 22.5096,76.9347 24.1763,75.9347 25.5,74.5C 24.3112,73.5713 22.9778,73.238 21.5,73.5C 21.9175,72.7784 22.5842,72.2784 23.5,72C 20.854,71.5026 18.1873,71.3359 15.5,71.5 Z"/></g>
<g><path style="opacity:1" fill="#582f14" d="M 219.5,76.5 C 220.482,79.9619 220.815,83.6286 220.5,87.5C 219.833,87.5 219.5,87.8333 219.5,88.5C 218.833,88.5 218.167,88.5 217.5,88.5C 215.396,88.2011 213.396,88.5344 211.5,89.5C 212.309,91.0709 212.643,92.7376 212.5,94.5C 211.833,94.5 211.5,94.8333 211.5,95.5C 211.705,93.8627 211.205,92.196 210,90.5C 208.644,89.6198 207.144,89.2865 205.5,89.5C 206.038,87.8828 206.371,86.2161 206.5,84.5C 204.416,83.7517 202.416,83.7517 200.5,84.5C 199.009,81.8023 196.676,81.8023 193.5,84.5C 192.893,84.3764 192.56,84.0431 192.5,83.5C 192.5,82.8333 192.833,82.5 193.5,82.5C 194.67,80.7215 196.336,79.7215 198.5,79.5C 199.5,79.5 200.5,79.5 201.5,79.5C 206.792,79.295 209.792,81.795 210.5,87C 212.81,87.4966 215.143,87.6633 217.5,87.5C 217.691,83.7379 218.358,80.0712 219.5,76.5 Z"/></g>
<g><path style="opacity:1" fill="#9f6c20" d="M 137.5,51.5 C 138.345,52.6715 139.011,54.0048 139.5,55.5C 138.883,55.6107 138.383,55.944 138,56.5C 137.265,60.8134 136.765,65.1467 136.5,69.5C 135.507,77.9839 135.174,86.6506 135.5,95.5C 134.833,91.8333 134.167,88.1667 133.5,84.5C 132.612,73.1731 133.946,62.1731 137.5,51.5 Z"/></g>
<g><path style="opacity:1" fill="#aa6028" d="M 142.5,60.5 C 144.195,62.5402 146.195,64.3736 148.5,66C 149.448,66.4828 150.448,66.6495 151.5,66.5C 153.179,66.2852 154.179,66.9519 154.5,68.5C 154.945,71.3646 154.278,73.8646 152.5,76C 154.03,80.0517 153.697,83.885 151.5,87.5C 150.577,88.3029 149.577,88.4696 148.5,88C 147.789,86.7453 146.956,85.5786 146,84.5C 144.693,86.1918 143.193,87.5251 141.5,88.5C 141.35,79.1425 141.683,69.8092 142.5,60.5 Z"/></g>
<g><path style="opacity:1" fill="#b5a86e" d="M 176.5,79.5 C 177.672,80.7053 179.005,80.7053 180.5,79.5C 181.429,80.6888 181.762,82.0222 181.5,83.5C 182.978,83.238 184.311,83.5713 185.5,84.5C 182.812,87.354 180.312,90.354 178,93.5C 174.794,91.8756 172.128,92.5422 170,95.5C 169.623,94.0577 168.79,93.0577 167.5,92.5C 167.414,90.323 166.747,88.323 165.5,86.5C 166.09,85.2011 167.09,84.3678 168.5,84C 166.641,83.3992 166.308,82.5659 167.5,81.5C 168.167,81.5 168.5,81.1667 168.5,80.5C 170.787,80.2761 172.953,79.6094 175,78.5C 175.765,78.5699 176.265,78.9033 176.5,79.5 Z"/></g>
<g><path style="opacity:1" fill="#754314" d="M 35.5,65.5 C 36.8565,67.2935 38.0232,69.2935 39,71.5C 41.0778,81.5607 40.9111,91.5607 38.5,101.5C 37.4763,102.853 36.143,103.52 34.5,103.5C 34.5,102.167 34.5,100.833 34.5,99.5C 38.3659,90.1626 38.3659,80.8293 34.5,71.5C 35.7498,71.5774 36.5831,72.244 37,73.5C 37.1667,73 37.3333,72.5 37.5,72C 35.9872,70.1208 35.3205,67.9541 35.5,65.5 Z"/></g>
<g><path style="opacity:1" fill="#5f2c00" d="M 13.5,74.5 C 14.2778,75.1556 14.9444,75.9889 15.5,77C 14.5761,78.15 14.5761,79.15 15.5,80C 17.5868,79.7821 19.5868,79.9488 21.5,80.5C 17.7219,81.5551 14.3886,83.3884 11.5,86C 13.5847,86.5288 15.418,86.0288 17,84.5C 17.5,84.8333 18,85.1667 18.5,85.5C 17.2528,89.0057 17.2528,92.5057 18.5,96C 14.0843,98.2414 9.41761,99.7414 4.5,100.5C 4.37654,96.9601 6.04321,94.9601 9.5,94.5C 9.74381,91.7374 11.0771,89.5707 13.5,88C 11.1009,87.289 8.76761,87.4557 6.5,88.5C 5.5,88 4.5,87.5 3.5,87C 5.38389,86.7837 7.05056,86.117 8.5,85C -1.59107,84.1775 -1.9244,82.5108 7.5,80C 4.85397,79.5026 2.1873,79.3359 -0.5,79.5C -0.5,78.5 -0.5,77.5 -0.5,76.5C 4.14701,75.704 8.81367,75.0373 13.5,74.5 Z"/></g>
<g><path style="opacity:1" fill="#915c2c" d="M 151.5,87.5 C 152.348,88.625 153.348,88.625 154.5,87.5C 155.097,87.7352 155.43,88.2352 155.5,89C 154.944,90.0111 154.278,90.8444 153.5,91.5C 151.833,93.5 150.167,95.5 148.5,97.5C 147.883,97.6107 147.383,97.944 147,98.5C 146.268,95.2894 144.434,93.2894 141.5,92.5C 141.5,91.1667 141.5,89.8333 141.5,88.5C 143.193,87.5251 144.693,86.1918 146,84.5C 146.956,85.5786 147.789,86.7453 148.5,88C 149.577,88.4696 150.577,88.3029 151.5,87.5 Z"/></g>
<g><path style="opacity:1" fill="#161414" d="M 225.5,76.5 C 228.916,75.8663 230.916,77.1996 231.5,80.5C 229.728,88.0439 226.395,94.7105 221.5,100.5C 221.81,96.3005 221.143,92.3005 219.5,88.5C 219.5,87.8333 219.833,87.5 220.5,87.5C 223.297,87.0334 224.631,85.3667 224.5,82.5C 224.833,80.5 225.167,78.5 225.5,76.5 Z"/></g>
<g><path style="opacity:1" fill="#703400" d="M -0.5,79.5 C 2.1873,79.3359 4.85397,79.5026 7.5,80C -1.9244,82.5108 -1.59107,84.1775 8.5,85C 7.05056,86.117 5.38389,86.7837 3.5,87C 4.5,87.5 5.5,88 6.5,88.5C 8.76761,87.4557 11.1009,87.289 13.5,88C 11.0771,89.5707 9.74381,91.7374 9.5,94.5C 6.04321,94.9601 4.37654,96.9601 4.5,100.5C 2.83333,100.5 1.16667,100.5 -0.5,100.5C -0.5,93.5 -0.5,86.5 -0.5,79.5 Z"/></g>
<g><path style="opacity:1" fill="#1d1014" d="M 125.5,49.5 C 124.545,51.7457 123.878,54.079 123.5,56.5C 124.552,56.3505 125.552,56.5172 126.5,57C 123.778,58.2725 122.444,60.4392 122.5,63.5C 123.822,63.33 124.989,63.6634 126,64.5C 126.1,67.4372 126.933,70.1039 128.5,72.5C 127.762,76.1294 127.929,79.7961 129,83.5C 129.645,84.646 130.478,85.646 131.5,86.5C 131.711,89.5471 131.378,92.7138 130.5,96C 131.509,96.3546 132.176,97.1879 132.5,98.5C 132.245,100.967 131.245,102.967 129.5,104.5C 128.209,104.737 127.209,104.404 126.5,103.5C 125.616,94.6318 124.282,85.9651 122.5,77.5C 121.724,71.1789 121.058,64.8455 120.5,58.5C 121.477,55.7131 121.81,52.7131 121.5,49.5C 122.833,49.5 124.167,49.5 125.5,49.5 Z"/></g>
<g><path style="opacity:1" fill="#594830" d="M 217.5,88.5 C 218.014,90.3664 218.68,92.1997 219.5,94C 219.056,95.7618 218.556,95.5951 218,93.5C 217.925,95.935 217.092,96.6016 215.5,95.5C 214.791,94.596 213.791,94.2627 212.5,94.5C 212.643,92.7376 212.309,91.0709 211.5,89.5C 213.396,88.5344 215.396,88.2011 217.5,88.5 Z"/></g>
<g><path style="opacity:1" fill="#74a772" d="M 240.5,71.5 C 240.5,70.8333 240.833,70.5 241.5,70.5C 243.117,71.038 244.784,71.3713 246.5,71.5C 245.228,85.6997 239.894,98.0331 230.5,108.5C 230.5,107.5 230.5,106.5 230.5,105.5C 234.687,96.4395 238.187,87.1061 241,77.5C 241.789,75.2884 241.622,73.2884 240.5,71.5 Z"/></g>
<g><path style="opacity:1" fill="#3c3a08" d="M 119.5,75.5 C 120.167,77.1667 120.833,78.8333 121.5,80.5C 121.5,82.1667 121.5,83.8333 121.5,85.5C 120.413,90.3229 121.079,94.9895 123.5,99.5C 123.246,101.417 122.246,102.751 120.5,103.5C 118.608,98.7051 117.608,93.7051 117.5,88.5C 117.424,86.0771 118.424,84.2438 120.5,83C 119.678,80.5661 119.344,78.0661 119.5,75.5 Z"/></g>
<g><path style="opacity:1" fill="#7e431c" d="M 141.5,59.5 C 141.833,59.5 142.167,59.5 142.5,59.5C 142.5,59.8333 142.5,60.1667 142.5,60.5C 141.683,69.8092 141.35,79.1425 141.5,88.5C 141.5,89.8333 141.5,91.1667 141.5,92.5C 144.434,93.2894 146.268,95.2894 147,98.5C 147.383,97.944 147.883,97.6107 148.5,97.5C 148.5,98.1667 148.5,98.8333 148.5,99.5C 148.167,99.5 147.833,99.5 147.5,99.5C 145.194,99.0074 142.861,98.6741 140.5,98.5C 140.5,87.1667 140.5,75.8333 140.5,64.5C 140.629,62.7839 140.962,61.1172 141.5,59.5 Z"/></g>
<g><path style="opacity:1" fill="#beb172" d="M 153.5,91.5 C 154.117,91.6107 154.617,91.944 155,92.5C 155.567,95.1677 156.067,97.8344 156.5,100.5C 153.677,101.217 151.01,102.217 148.5,103.5C 148.5,102.167 148.5,100.833 148.5,99.5C 148.5,98.8333 148.5,98.1667 148.5,97.5C 150.167,95.5 151.833,93.5 153.5,91.5 Z"/></g>
<g><path style="opacity:1" fill="#c2b36e" d="M 191.5,81.5 C 192.492,81.3284 193.158,81.6618 193.5,82.5C 192.833,82.5 192.5,82.8333 192.5,83.5C 189.982,84.6937 189.982,85.8604 192.5,87C 192.167,87.3333 191.833,87.6667 191.5,88C 196.281,88.5182 196.614,89.8515 192.5,92C 193.549,92.4922 194.549,92.3256 195.5,91.5C 196.521,92.0016 196.688,92.6683 196,93.5C 191.43,96.1379 187.096,99.1379 183,102.5C 182.667,101.833 182.333,101.167 182,100.5C 179.546,102.441 177.713,104.775 176.5,107.5C 175.542,107.953 174.708,108.619 174,109.5C 173.536,108.906 173.369,108.239 173.5,107.5C 176.082,105.003 177.582,102.003 178,98.5C 175.139,102.723 173.639,102.39 173.5,97.5C 174.552,97.6495 175.552,97.4828 176.5,97C 181.18,91.4277 186.18,86.2611 191.5,81.5 Z"/></g>
<g><path style="opacity:1" fill="#672204" d="M 205.5,89.5 C 207.144,89.2865 208.644,89.6198 210,90.5C 211.205,92.196 211.705,93.8627 211.5,95.5C 211.5,97.5 210.5,98.5 208.5,98.5C 204.689,97.3547 200.689,97.1881 196.5,98C 194.034,100.479 191.701,102.979 189.5,105.5C 188.566,104.432 188.232,103.099 188.5,101.5C 193.991,97.2541 199.658,93.2541 205.5,89.5 Z"/></g>
<g><path style="opacity:1" fill="#545108" d="M 255.5,75.5 C 255.5,83.8333 255.5,92.1667 255.5,100.5C 250.025,111.443 243.525,121.777 236,131.5C 232.799,135.036 229.299,138.203 225.5,141C 221.974,142.337 218.308,142.837 214.5,142.5C 213.5,141.167 212.5,139.833 211.5,138.5C 211.5,136.833 211.5,135.167 211.5,133.5C 212.158,134.398 212.824,135.398 213.5,136.5C 219.931,134.237 225.431,130.57 230,125.5C 232.575,120.585 235.575,115.919 239,111.5C 244.292,99.2595 249.792,87.2595 255.5,75.5 Z"/></g>
<g><path style="opacity:1" fill="#754e19" d="M 133.5,84.5 C 134.167,88.1667 134.833,91.8333 135.5,95.5C 135.416,98.3274 134.75,100.994 133.5,103.5C 132.318,106.009 130.318,107.343 127.5,107.5C 126.957,107.44 126.624,107.107 126.5,106.5C 127.602,105.824 128.602,105.158 129.5,104.5C 131.245,102.967 132.245,100.967 132.5,98.5C 133.486,94.03 133.819,89.3633 133.5,84.5 Z"/></g>
<g><path style="opacity:1" fill="#421d02" d="M 21.5,73.5 C 22.9778,73.238 24.3112,73.5713 25.5,74.5C 24.1763,75.9347 22.5096,76.9347 20.5,77.5C 23.7848,78.3236 27.1182,78.8236 30.5,79C 28.8659,79.4935 27.1992,79.6602 25.5,79.5C 26.8916,82.0254 26.5582,84.1921 24.5,86C 25.6431,88.0315 26.6431,90.0315 27.5,92C 26.7386,94.4249 25.072,95.7582 22.5,96C 23.7473,97.9519 25.0807,99.7853 26.5,101.5C 24.9739,103.13 22.9739,103.963 20.5,104C 16.5138,104.499 12.5138,104.666 8.5,104.5C 7.32496,104.281 6.32496,104.614 5.5,105.5C 6.45645,107.075 7.12312,108.742 7.5,110.5C 6.74021,111.893 6.07355,113.393 5.5,115C 5.9543,116.939 6.62097,118.772 7.5,120.5C 5.08699,119.32 4.08699,117.32 4.5,114.5C 3.5,114.5 2.5,114.5 1.5,114.5C 1.27852,111.933 0.611848,109.599 -0.5,107.5C -0.5,105.167 -0.5,102.833 -0.5,100.5C 1.16667,100.5 2.83333,100.5 4.5,100.5C 9.41761,99.7414 14.0843,98.2414 18.5,96C 17.2528,92.5057 17.2528,89.0057 18.5,85.5C 18,85.1667 17.5,84.8333 17,84.5C 15.418,86.0288 13.5847,86.5288 11.5,86C 14.3886,83.3884 17.7219,81.5551 21.5,80.5C 19.5868,79.9488 17.5868,79.7821 15.5,80C 14.5761,79.15 14.5761,78.15 15.5,77C 14.9444,75.9889 14.2778,75.1556 13.5,74.5C 16.1272,73.9084 18.7938,73.5751 21.5,73.5 Z"/></g>
<g><path style="opacity:1" fill="#582a0f" d="M 140.5,64.5 C 140.5,75.8333 140.5,87.1667 140.5,98.5C 142.861,98.6741 145.194,99.0074 147.5,99.5C 147.5,100.167 147.5,100.833 147.5,101.5C 146.596,102.209 146.263,103.209 146.5,104.5C 142.578,104.155 138.745,103.488 135,102.5C 134.617,103.056 134.117,103.389 133.5,103.5C 134.75,100.994 135.416,98.3274 135.5,95.5C 135.174,86.6506 135.507,77.9839 136.5,69.5C 136.334,78.5062 136.5,87.5062 137,96.5C 138.009,85.6823 139.176,75.0157 140.5,64.5 Z"/></g>
<g><path style="opacity:1" fill="#b98e6a" d="M 212.5,94.5 C 213.791,94.2627 214.791,94.596 215.5,95.5C 215.527,97.1993 216.194,98.5326 217.5,99.5C 216.21,100.058 215.377,101.058 215,102.5C 214.768,101.263 214.268,100.263 213.5,99.5C 212.699,97.9582 212.366,96.2915 212.5,94.5 Z"/></g>
<g><path style="opacity:1" fill="#b1672b" d="M 208.5,98.5 C 205.653,100.983 202.32,102.65 198.5,103.5C 195.682,104.97 192.682,105.97 189.5,106.5C 189.5,106.167 189.5,105.833 189.5,105.5C 191.701,102.979 194.034,100.479 196.5,98C 200.689,97.1881 204.689,97.3547 208.5,98.5 Z"/></g>
<g><path style="opacity:1" fill="#bab9b0" d="M 217.5,88.5 C 218.167,88.5 218.833,88.5 219.5,88.5C 221.143,92.3005 221.81,96.3005 221.5,100.5C 220.628,104.862 219.628,109.196 218.5,113.5C 217.883,113.389 217.383,113.056 217,112.5C 216.392,114.066 215.558,115.4 214.5,116.5C 215.498,112.342 216.998,108.342 219,104.5C 219.765,102.934 219.598,101.601 218.5,100.5C 218.5,99.8333 218.167,99.5 217.5,99.5C 216.194,98.5326 215.527,97.1993 215.5,95.5C 217.092,96.6016 217.925,95.935 218,93.5C 218.556,95.5951 219.056,95.7618 219.5,94C 218.68,92.1997 218.014,90.3664 217.5,88.5 Z"/></g>
<g><path style="opacity:1" fill="#66300a" d="M 43.5,48.5 C 41.8555,55.0535 42.5221,61.3868 45.5,67.5C 44.5313,69.5728 43.8646,71.7395 43.5,74C 45.4276,76.7329 44.7609,77.8995 41.5,77.5C 41.3337,84.5079 41.5004,91.5079 42,98.5C 43.7617,93.9056 45.095,89.239 46,84.5C 47.117,85.9494 47.7837,87.6161 48,89.5C 49.2051,90.0712 50.3717,90.7379 51.5,91.5C 53.0185,98.4575 55.6852,104.791 59.5,110.5C 60.3215,115.466 61.6548,120.299 63.5,125C 63.472,126.07 63.1386,126.903 62.5,127.5C 61.2865,124.447 59.1199,122.113 56,120.5C 55.8195,123.695 55.3195,126.695 54.5,129.5C 54.665,126.15 54.4983,122.817 54,119.5C 51.9063,117.079 50.2396,114.412 49,111.5C 45.555,109.378 42.055,108.711 38.5,109.5C 35.7212,109.279 33.0545,109.612 30.5,110.5C 28.5,110.5 26.5,110.5 24.5,110.5C 24.5,109.5 24.5,108.5 24.5,107.5C 26.9726,107.912 28.3059,106.912 28.5,104.5C 30.4752,102.863 32.4752,101.196 34.5,99.5C 34.5,100.833 34.5,102.167 34.5,103.5C 36.143,103.52 37.4763,102.853 38.5,101.5C 40.9111,91.5607 41.0778,81.5607 39,71.5C 38.0232,69.2935 36.8565,67.2935 35.5,65.5C 33.8333,64.5 32.5,63.1667 31.5,61.5C 33.1898,61.1436 34.1898,60.1436 34.5,58.5C 36.4672,58.7394 38.3005,58.4061 40,57.5C 40.6667,54.8333 41.3333,52.1667 42,49.5C 42.3826,48.944 42.8826,48.6107 43.5,48.5 Z"/></g>
<g><path style="opacity:1" fill="#52290d" d="M 77.5,96.5 C 77.5,97.5 77.5,98.5 77.5,99.5C 76.5655,100.568 76.2322,101.901 76.5,103.5C 74.2593,110.252 72.5926,117.252 71.5,124.5C 70.2223,124.782 69.2223,125.449 68.5,126.5C 67.6802,124.193 68.0135,121.859 69.5,119.5C 68.4683,117.383 68.4683,115.217 69.5,113C 67.6851,107.873 66.0184,102.706 64.5,97.5C 66.9661,95.0317 69.9661,94.0317 73.5,94.5C 74.0619,98.1304 75.3952,98.797 77.5,96.5 Z"/></g>
<g><path style="opacity:1" fill="#947641" d="M 205.5,89.5 C 199.658,93.2541 193.991,97.2541 188.5,101.5C 187.167,102.5 185.833,103.5 184.5,104.5C 181.359,104.41 178.692,105.41 176.5,107.5C 177.713,104.775 179.546,102.441 182,100.5C 182.333,101.167 182.667,101.833 183,102.5C 187.096,99.1379 191.43,96.1379 196,93.5C 196.688,92.6683 196.521,92.0016 195.5,91.5C 194.549,92.3256 193.549,92.4922 192.5,92C 196.614,89.8515 196.281,88.5182 191.5,88C 191.833,87.6667 192.167,87.3333 192.5,87C 189.982,85.8604 189.982,84.6937 192.5,83.5C 192.56,84.0431 192.893,84.3764 193.5,84.5C 196.676,81.8023 199.009,81.8023 200.5,84.5C 202.416,83.7517 204.416,83.7517 206.5,84.5C 206.371,86.2161 206.038,87.8828 205.5,89.5 Z"/></g>
<g><path style="opacity:1" fill="#8e5e30" d="M 212.5,94.5 C 212.366,96.2915 212.699,97.9582 213.5,99.5C 211.517,99.1568 210.183,99.8235 209.5,101.5C 208.127,101.343 206.793,101.51 205.5,102C 203.365,102.876 202.031,104.376 201.5,106.5C 200.041,106.433 198.708,106.766 197.5,107.5C 197.433,106.041 197.766,104.708 198.5,103.5C 202.32,102.65 205.653,100.983 208.5,98.5C 210.5,98.5 211.5,97.5 211.5,95.5C 211.5,94.8333 211.833,94.5 212.5,94.5 Z"/></g>
<g><path style="opacity:1" fill="#140801" d="M 24.5,66.5 C 28.3365,67.0849 31.6699,68.7516 34.5,71.5C 38.3659,80.8293 38.3659,90.1626 34.5,99.5C 32.4752,101.196 30.4752,102.863 28.5,104.5C 26.7028,105.73 24.7028,106.396 22.5,106.5C 18.1539,106.666 13.8206,106.499 9.5,106C 8.94404,105.617 8.61071,105.117 8.5,104.5C 12.5138,104.666 16.5138,104.499 20.5,104C 22.9739,103.963 24.9739,103.13 26.5,101.5C 35.7708,91.8127 35.7708,81.9793 26.5,72C 22.7713,70.2996 19.1046,70.1329 15.5,71.5C 12.4824,71.7038 9.48237,72.0371 6.5,72.5C 11.6267,68.2888 17.6267,66.2888 24.5,66.5 Z"/></g>
<g><path style="opacity:1" fill="#99814d" d="M 181.5,77.5 C 181.5,78.1667 181.833,78.5 182.5,78.5C 182.5,79.8333 183.167,80.5 184.5,80.5C 186.607,81.4682 188.941,81.8016 191.5,81.5C 186.18,86.2611 181.18,91.4277 176.5,97C 175.552,97.4828 174.552,97.6495 173.5,97.5C 173.639,102.39 175.139,102.723 178,98.5C 177.582,102.003 176.082,105.003 173.5,107.5C 173.631,106.624 173.298,105.957 172.5,105.5C 171.549,106.326 170.549,106.492 169.5,106C 171.76,102.775 171.593,99.9412 169,97.5C 168.292,98.3805 167.458,99.0472 166.5,99.5C 166.703,97.9557 167.37,96.6223 168.5,95.5C 167.873,94.5832 167.539,93.5832 167.5,92.5C 168.79,93.0577 169.623,94.0577 170,95.5C 172.128,92.5422 174.794,91.8756 178,93.5C 180.312,90.354 182.812,87.354 185.5,84.5C 184.311,83.5713 182.978,83.238 181.5,83.5C 181.762,82.0222 181.429,80.6888 180.5,79.5C 179.005,80.7053 177.672,80.7053 176.5,79.5C 178.284,79.1075 179.95,78.4408 181.5,77.5 Z"/></g>
<g><path style="opacity:1" fill="#320e00" d="M 146.5,104.5 C 146.5,107.5 146.5,110.5 146.5,113.5C 145.833,113.5 145.167,113.5 144.5,113.5C 144.565,113.062 144.399,112.728 144,112.5C 139.299,116.866 134.966,121.533 131,126.5C 130.233,130.558 130.4,134.558 131.5,138.5C 131.833,138.833 132.167,139.167 132.5,139.5C 133.873,137.793 135.539,136.46 137.5,135.5C 137.5,137.833 137.5,140.167 137.5,142.5C 136.833,142.5 136.5,142.833 136.5,143.5C 134.167,143.5 131.833,143.5 129.5,143.5C 129.688,131.442 129.021,119.442 127.5,107.5C 130.318,107.343 132.318,106.009 133.5,103.5C 134.117,103.389 134.617,103.056 135,102.5C 138.745,103.488 142.578,104.155 146.5,104.5 Z"/></g>
<g><path style="opacity:1" fill="#867040" d="M 168.5,80.5 C 168.5,81.1667 168.167,81.5 167.5,81.5C 166.811,80.2264 165.977,80.2264 165,81.5C 164.852,87.2488 164.186,92.9155 163,98.5C 160.479,101.315 158.813,100.982 158,97.5C 157.36,99.265 157.527,100.932 158.5,102.5C 156.926,103.984 155.593,105.651 154.5,107.5C 149.069,108.906 146.735,106.906 147.5,101.5C 147.5,100.833 147.5,100.167 147.5,99.5C 147.833,99.5 148.167,99.5 148.5,99.5C 148.5,100.833 148.5,102.167 148.5,103.5C 151.01,102.217 153.677,101.217 156.5,100.5C 156.067,97.8344 155.567,95.1677 155,92.5C 154.617,91.944 154.117,91.6107 153.5,91.5C 154.278,90.8444 154.944,90.0111 155.5,89C 155.43,88.2352 155.097,87.7352 154.5,87.5C 157.188,87.1226 160.188,86.7893 163.5,86.5C 163.184,83.0217 163.684,79.6883 165,76.5C 168.813,72.6056 169.313,73.1056 166.5,78C 167.056,79.0111 167.722,79.8444 168.5,80.5 Z"/></g>
<g><path style="opacity:1" fill="#585145" d="M 218.5,100.5 C 219.598,101.601 219.765,102.934 219,104.5C 216.998,108.342 215.498,112.342 214.5,116.5C 213.833,117.167 213.167,117.833 212.5,118.5C 213.914,112.257 215.914,106.257 218.5,100.5 Z"/></g>
<g><path style="opacity:1" fill="#2e0c00" d="M 8.5,104.5 C 8.61071,105.117 8.94404,105.617 9.5,106C 13.8206,106.499 18.1539,106.666 22.5,106.5C 21.7688,108.889 20.1021,110.223 17.5,110.5C 14.1013,111.632 10.768,111.632 7.5,110.5C 7.12312,108.742 6.45645,107.075 5.5,105.5C 6.32496,104.614 7.32496,104.281 8.5,104.5 Z"/></g>
<g><path style="opacity:1" fill="#b9782a" d="M 79.5,101.5 C 80.1667,102.833 81.1667,103.833 82.5,104.5C 82.8417,105.338 83.5084,105.672 84.5,105.5C 84.5,106.167 84.8333,106.5 85.5,106.5C 83.6481,107.518 81.9814,108.851 80.5,110.5C 79.6737,108.041 79.007,105.541 78.5,103C 78.5699,102.235 78.9033,101.735 79.5,101.5 Z"/></g>
<g><path style="opacity:1" fill="#642500" d="M 93.5,106.5 C 95.0505,111.096 94.2172,115.429 91,119.5C 89.2912,122.418 87.4579,125.252 85.5,128C 84.2068,128.49 82.8734,128.657 81.5,128.5C 81.6716,127.508 81.3382,126.842 80.5,126.5C 82.4674,120.666 83.8007,114.666 84.5,108.5C 87.6888,108.142 90.6888,107.475 93.5,106.5 Z"/></g>
<g><path style="opacity:1" fill="#60573d" d="M 213.5,99.5 C 211.195,102.407 209.862,105.741 209.5,109.5C 208.883,109.389 208.383,109.056 208,108.5C 206.289,110.956 204.956,113.623 204,116.5C 204.666,111.151 206.499,106.151 209.5,101.5C 210.183,99.8235 211.517,99.1568 213.5,99.5 Z"/></g>
<g><path style="opacity:1" fill="#3e4105" d="M 255.5,100.5 C 255.5,114.833 255.5,129.167 255.5,143.5C 241.833,143.5 228.167,143.5 214.5,143.5C 214.5,143.167 214.5,142.833 214.5,142.5C 218.308,142.837 221.974,142.337 225.5,141C 229.299,138.203 232.799,135.036 236,131.5C 243.525,121.777 250.025,111.443 255.5,100.5 Z"/></g>
<g><path style="opacity:1" fill="#371200" d="M 38.5,109.5 C 41.0359,110.037 43.0359,111.37 44.5,113.5C 39.5523,112.441 34.5523,112.274 29.5,113C 26.5914,114.406 24.5914,116.572 23.5,119.5C 22.3709,121.628 22.2042,123.961 23,126.5C 25.6933,126.953 27.5266,128.453 28.5,131C 29.8333,131.333 31.1667,131.667 32.5,132C 33.0219,132.561 33.3552,133.228 33.5,134C 33.2095,137.739 31.8762,140.906 29.5,143.5C 27.8333,143.5 26.1667,143.5 24.5,143.5C 24.7239,141.213 25.3906,139.047 26.5,137C 25.2335,135.333 23.7335,133.833 22,132.5C 18.3294,122.306 21.1627,114.973 30.5,110.5C 33.0545,109.612 35.7212,109.279 38.5,109.5 Z"/></g>
<g><path style="opacity:1" fill="#864b17" d="M 77.5,99.5 C 78.5,99.8333 79.1667,100.5 79.5,101.5C 78.9033,101.735 78.5699,102.235 78.5,103C 79.007,105.541 79.6737,108.041 80.5,110.5C 81.9814,108.851 83.6481,107.518 85.5,106.5C 88.1667,106.5 90.8333,106.5 93.5,106.5C 90.6888,107.475 87.6888,108.142 84.5,108.5C 83.8007,114.666 82.4674,120.666 80.5,126.5C 78.0677,125.159 76.7344,122.992 76.5,120C 76.8461,114.57 76.8461,109.07 76.5,103.5C 76.2322,101.901 76.5655,100.568 77.5,99.5 Z"/></g>
<g><path style="opacity:1" fill="#615031" d="M 188.5,101.5 C 188.232,103.099 188.566,104.432 189.5,105.5C 189.5,105.833 189.5,106.167 189.5,106.5C 187.197,108.978 185.031,111.645 183,114.5C 182.683,112.699 182.016,112.366 181,113.5C 179.594,118.639 177.427,123.305 174.5,127.5C 174.815,123.629 174.482,119.962 173.5,116.5C 177.167,112.5 180.833,108.5 184.5,104.5C 185.833,103.5 187.167,102.5 188.5,101.5 Z"/></g>
<g><path style="opacity:1" fill="#060201" d="M 44.5,113.5 C 47.1708,115.934 50.0042,118.267 53,120.5C 53.6667,123.833 53.6667,127.167 53,130.5C 50.1414,133.825 47.6414,136.659 45.5,139C 45.5186,140.833 46.1852,142.333 47.5,143.5C 45.5,143.5 43.5,143.5 41.5,143.5C 41.8468,138.921 41.1802,134.588 39.5,130.5C 33.9853,130.904 29.8187,128.904 27,124.5C 25.9887,125.337 24.8221,125.67 23.5,125.5C 23.5,123.5 23.5,121.5 23.5,119.5C 24.5914,116.572 26.5914,114.406 29.5,113C 34.5523,112.274 39.5523,112.441 44.5,113.5 Z"/></g>
<g><path style="opacity:1" fill="#352502" d="M 121.5,85.5 C 122.983,91.5359 124.65,97.5359 126.5,103.5C 127.209,104.404 128.209,104.737 129.5,104.5C 128.602,105.158 127.602,105.824 126.5,106.5C 126.624,107.107 126.957,107.44 127.5,107.5C 129.021,119.442 129.688,131.442 129.5,143.5C 127.5,143.5 125.5,143.5 123.5,143.5C 123.897,131.893 122.897,120.56 120.5,109.5C 120.5,107.5 120.5,105.5 120.5,103.5C 122.246,102.751 123.246,101.417 123.5,99.5C 121.079,94.9895 120.413,90.3229 121.5,85.5 Z"/></g>
<g><path style="opacity:1" fill="#7f6b43" d="M 173.5,107.5 C 173.369,108.239 173.536,108.906 174,109.5C 174.708,108.619 175.542,107.953 176.5,107.5C 178.692,105.41 181.359,104.41 184.5,104.5C 180.833,108.5 177.167,112.5 173.5,116.5C 167.998,124.61 165.998,133.61 167.5,143.5C 166.833,143.5 166.167,143.5 165.5,143.5C 165.007,141.194 164.674,138.861 164.5,136.5C 164.5,134.5 164.5,132.5 164.5,130.5C 165.1,126.671 166.434,123.004 168.5,119.5C 171.151,117.539 170.984,115.872 168,114.5C 167.333,115.167 166.667,115.833 166,116.5C 166,113.833 166,111.167 166,108.5C 165.027,110.392 164.36,112.392 164,114.5C 162.986,109.068 163.819,104.068 166.5,99.5C 167.458,99.0472 168.292,98.3805 169,97.5C 171.593,99.9412 171.76,102.775 169.5,106C 170.549,106.492 171.549,106.326 172.5,105.5C 173.298,105.957 173.631,106.624 173.5,107.5 Z"/></g>
<g><path style="opacity:1" fill="#6a5735" d="M 167.5,81.5 C 166.308,82.5659 166.641,83.3992 168.5,84C 167.09,84.3678 166.09,85.2011 165.5,86.5C 166.747,88.323 167.414,90.323 167.5,92.5C 167.539,93.5832 167.873,94.5832 168.5,95.5C 167.37,96.6223 166.703,97.9557 166.5,99.5C 163.819,104.068 162.986,109.068 164,114.5C 164.36,112.392 165.027,110.392 166,108.5C 166,111.167 166,113.833 166,116.5C 166.667,115.833 167.333,115.167 168,114.5C 170.984,115.872 171.151,117.539 168.5,119.5C 168.19,118.262 167.69,118.262 167,119.5C 164.316,123.863 162.482,128.53 161.5,133.5C 161.5,136.167 161.5,138.833 161.5,141.5C 161.5,142.167 161.5,142.833 161.5,143.5C 161.167,143.5 160.833,143.5 160.5,143.5C 159.482,137.543 159.315,131.543 160,125.5C 157.74,130.131 155.24,134.631 152.5,139C 151.552,139.483 150.552,139.649 149.5,139.5C 149.523,137.4 148.856,135.567 147.5,134C 147.57,133.235 147.903,132.735 148.5,132.5C 149.455,134.71 150.955,135.043 153,133.5C 153.837,131.179 154.17,128.845 154,126.5C 153.586,126.043 153.086,125.709 152.5,125.5C 151.818,126.243 151.151,126.909 150.5,127.5C 149.185,128.476 147.852,129.476 146.5,130.5C 143.453,127.073 142.12,123.073 142.5,118.5C 142.893,116.716 143.559,115.05 144.5,113.5C 145.167,113.5 145.833,113.5 146.5,113.5C 146.5,110.5 146.5,107.5 146.5,104.5C 146.263,103.209 146.596,102.209 147.5,101.5C 146.735,106.906 149.069,108.906 154.5,107.5C 153.94,112.707 155.607,113.707 159.5,110.5C 162.381,107.189 162.048,104.523 158.5,102.5C 157.527,100.932 157.36,99.265 158,97.5C 158.813,100.982 160.479,101.315 163,98.5C 164.186,92.9155 164.852,87.2488 165,81.5C 165.977,80.2264 166.811,80.2264 167.5,81.5 Z"/></g>
<g><path style="opacity:1" fill="#b9ac70" d="M 158.5,102.5 C 162.048,104.523 162.381,107.189 159.5,110.5C 155.607,113.707 153.94,112.707 154.5,107.5C 155.593,105.651 156.926,103.984 158.5,102.5 Z"/></g>
<g><path style="opacity:1" fill="#2c4321" d="M 222.5,69.5 C 222.5,69.1667 222.5,68.8333 222.5,68.5C 223.833,68.5 225.167,68.5 226.5,68.5C 226.918,69.2216 227.584,69.7216 228.5,70C 232.585,70.2332 236.585,70.7332 240.5,71.5C 241.622,73.2884 241.789,75.2884 241,77.5C 238.187,87.1061 234.687,96.4395 230.5,105.5C 226.321,112.192 221.154,118.192 215,123.5C 215.832,120.144 216.999,116.811 218.5,113.5C 219.628,109.196 220.628,104.862 221.5,100.5C 226.395,94.7105 229.728,88.0439 231.5,80.5C 230.916,77.1996 228.916,75.8663 225.5,76.5C 224.736,73.9823 223.736,71.649 222.5,69.5 Z"/></g>
<g><path style="opacity:1" fill="#2d3913" d="M 112.5,143.5 C 109.167,143.5 105.833,143.5 102.5,143.5C 104.471,139.292 105.137,134.959 104.5,130.5C 103.828,131.949 103.161,133.282 102.5,134.5C 102.5,133.5 102.5,132.5 102.5,131.5C 98.7624,132.079 95.0957,132.079 91.5,131.5C 93.9099,126.346 96.5766,121.346 99.5,116.5C 102.548,115.206 105.715,114.206 109,113.5C 110.711,113.439 112.044,114.106 113,115.5C 113.566,124.847 113.399,134.18 112.5,143.5 Z"/></g>
<g><path style="opacity:1" fill="#c4b773" d="M 201.5,106.5 C 201.167,107.167 200.833,107.833 200.5,108.5C 198.847,111.131 197.181,113.797 195.5,116.5C 192.426,121.645 189.593,126.978 187,132.5C 186.303,125.88 187.97,119.88 192,114.5C 194.325,112.499 196.158,110.166 197.5,107.5C 198.708,106.766 200.041,106.433 201.5,106.5 Z"/></g>
<g><path style="opacity:1" fill="#5a785f" d="M 230.5,105.5 C 230.5,106.5 230.5,107.5 230.5,108.5C 225.203,115.464 219.203,121.798 212.5,127.5C 213.621,122.833 213.621,119.833 212.5,118.5C 213.167,117.833 213.833,117.167 214.5,116.5C 215.558,115.4 216.392,114.066 217,112.5C 217.383,113.056 217.883,113.389 218.5,113.5C 216.999,116.811 215.832,120.144 215,123.5C 221.154,118.192 226.321,112.192 230.5,105.5 Z"/></g>
<g><path style="opacity:1" fill="#48280f" d="M 38.5,109.5 C 42.055,108.711 45.555,109.378 49,111.5C 50.2396,114.412 51.9063,117.079 54,119.5C 54.4983,122.817 54.665,126.15 54.5,129.5C 53.2138,132.575 51.5471,135.408 49.5,138C 49.9543,139.939 50.621,141.772 51.5,143.5C 50.1667,143.5 48.8333,143.5 47.5,143.5C 46.1852,142.333 45.5186,140.833 45.5,139C 47.6414,136.659 50.1414,133.825 53,130.5C 53.6667,127.167 53.6667,123.833 53,120.5C 50.0042,118.267 47.1708,115.934 44.5,113.5C 43.0359,111.37 41.0359,110.037 38.5,109.5 Z"/></g>
<g><path style="opacity:1" fill="#76623e" d="M 200.5,108.5 C 197.142,119.876 195.809,131.543 196.5,143.5C 193.5,143.5 190.5,143.5 187.5,143.5C 187.112,136.25 189.278,129.917 194,124.5C 194.822,121.883 195.322,119.216 195.5,116.5C 197.181,113.797 198.847,111.131 200.5,108.5 Z"/></g>
<g><path style="opacity:1" fill="#90835a" d="M 146.5,113.5 C 147.82,112.058 149.486,111.392 151.5,111.5C 151.854,115.637 151.354,119.637 150,123.5C 149.667,122.833 149.333,122.167 149,121.5C 148.333,122.833 147.667,124.167 147,125.5C 146.667,123.167 146.333,120.833 146,118.5C 144.982,119.706 144.482,119.373 144.5,117.5C 144.752,115.927 145.418,114.594 146.5,113.5 Z"/></g>
<g><path style="opacity:1" fill="#95875d" d="M 209.5,101.5 C 206.499,106.151 204.666,111.151 204,116.5C 204.956,113.623 206.289,110.956 208,108.5C 208.383,109.056 208.883,109.389 209.5,109.5C 208.073,112.024 206.906,114.69 206,117.5C 205.289,126.194 205.456,134.861 206.5,143.5C 203.167,143.5 199.833,143.5 196.5,143.5C 195.809,131.543 197.142,119.876 200.5,108.5C 200.833,107.833 201.167,107.167 201.5,106.5C 202.031,104.376 203.365,102.876 205.5,102C 206.793,101.51 208.127,101.343 209.5,101.5 Z"/></g>
<g><path style="opacity:1" fill="#e8e5de" d="M 217.5,99.5 C 218.167,99.5 218.5,99.8333 218.5,100.5C 215.914,106.257 213.914,112.257 212.5,118.5C 213.621,119.833 213.621,122.833 212.5,127.5C 211.85,129.435 211.517,131.435 211.5,133.5C 211.5,135.167 211.5,136.833 211.5,138.5C 210.699,140.042 210.366,141.708 210.5,143.5C 210.167,143.5 209.833,143.5 209.5,143.5C 207.694,134.956 207.194,126.289 208,117.5C 211.443,111.694 214.609,105.694 217.5,99.5 Z"/></g>
<g><path style="opacity:1" fill="#2e2606" d="M 173.5,116.5 C 174.482,119.962 174.815,123.629 174.5,127.5C 173.193,130.114 171.86,132.78 170.5,135.5C 170.833,135.833 171.167,136.167 171.5,136.5C 172.622,135.37 173.956,134.703 175.5,134.5C 174.496,135.683 173.662,137.016 173,138.5C 171.817,137.269 170.651,137.269 169.5,138.5C 168.691,140.071 168.357,141.738 168.5,143.5C 168.167,143.5 167.833,143.5 167.5,143.5C 165.998,133.61 167.998,124.61 173.5,116.5 Z"/></g>
<g><path style="opacity:1" fill="#511c00" d="M 28.5,104.5 C 28.3059,106.912 26.9726,107.912 24.5,107.5C 24.5,108.5 24.5,109.5 24.5,110.5C 26.5,110.5 28.5,110.5 30.5,110.5C 21.1627,114.973 18.3294,122.306 22,132.5C 23.7335,133.833 25.2335,135.333 26.5,137C 25.3906,139.047 24.7239,141.213 24.5,143.5C 22.5,143.5 20.5,143.5 18.5,143.5C 12.411,136.989 8.7443,129.322 7.5,120.5C 6.62097,118.772 5.9543,116.939 5.5,115C 6.07355,113.393 6.74021,111.893 7.5,110.5C 10.768,111.632 14.1013,111.632 17.5,110.5C 20.1021,110.223 21.7688,108.889 22.5,106.5C 24.7028,106.396 26.7028,105.73 28.5,104.5 Z"/></g>
<g><path style="opacity:1" fill="#260800" d="M 144.5,113.5 C 143.559,115.05 142.893,116.716 142.5,118.5C 140.99,119.836 139.323,121.003 137.5,122C 138.784,122.684 139.951,122.517 141,121.5C 141.495,123.473 141.662,125.473 141.5,127.5C 140.599,128.29 139.932,129.29 139.5,130.5C 138.069,131.78 137.402,133.447 137.5,135.5C 135.539,136.46 133.873,137.793 132.5,139.5C 132.167,139.167 131.833,138.833 131.5,138.5C 130.4,134.558 130.233,130.558 131,126.5C 134.966,121.533 139.299,116.866 144,112.5C 144.399,112.728 144.565,113.062 144.5,113.5 Z"/></g>
<g><path style="opacity:1" fill="#6e421c" d="M 76.5,103.5 C 76.8461,109.07 76.8461,114.57 76.5,120C 76.7344,122.992 78.0677,125.159 80.5,126.5C 81.3382,126.842 81.6716,127.508 81.5,128.5C 77.2246,129.25 73.8913,127.917 71.5,124.5C 72.5926,117.252 74.2593,110.252 76.5,103.5 Z"/></g>
<g><path style="opacity:1" fill="#452d15" d="M 168.5,119.5 C 166.434,123.004 165.1,126.671 164.5,130.5C 163.728,131.694 162.728,132.694 161.5,133.5C 162.482,128.53 164.316,123.863 167,119.5C 167.69,118.262 168.19,118.262 168.5,119.5 Z"/></g>
<g><path style="opacity:1" fill="#3f4518" d="M 120.5,109.5 C 122.897,120.56 123.897,131.893 123.5,143.5C 122.833,143.5 122.167,143.5 121.5,143.5C 121.644,132.757 120.977,122.091 119.5,111.5C 120.338,111.158 120.672,110.492 120.5,109.5 Z"/></g>
<g><path style="opacity:1" fill="#7f5826" d="M 62.5,127.5 C 62.9898,134.521 60.3231,139.854 54.5,143.5C 53.5,143.5 52.5,143.5 51.5,143.5C 50.621,141.772 49.9543,139.939 49.5,138C 51.5471,135.408 53.2138,132.575 54.5,129.5C 55.3195,126.695 55.8195,123.695 56,120.5C 59.1199,122.113 61.2865,124.447 62.5,127.5 Z"/></g>
<g><path style="opacity:1" fill="#1f0e05" d="M -0.5,113.5 C 3.01628,122.197 7.34961,130.531 12.5,138.5C 10.2422,139.447 9.07549,138.447 9,135.5C 8.66667,136.167 8.33333,136.833 8,137.5C 6.64699,136.315 5.48032,134.981 4.5,133.5C 2.81439,134.857 1.14772,136.19 -0.5,137.5C -0.5,129.5 -0.5,121.5 -0.5,113.5 Z"/></g>
<g><path style="opacity:1" fill="#5f300f" d="M 77.5,92.5 C 77.5,93.8333 77.5,95.1667 77.5,96.5C 75.3952,98.797 74.0619,98.1304 73.5,94.5C 69.9661,94.0317 66.9661,95.0317 64.5,97.5C 66.0184,102.706 67.6851,107.873 69.5,113C 68.4683,115.217 68.4683,117.383 69.5,119.5C 68.0135,121.859 67.6802,124.193 68.5,126.5C 67.1284,132.843 64.4617,138.51 60.5,143.5C 58.5,143.5 56.5,143.5 54.5,143.5C 60.3231,139.854 62.9898,134.521 62.5,127.5C 63.1386,126.903 63.472,126.07 63.5,125C 61.6548,120.299 60.3215,115.466 59.5,110.5C 60.8275,104.445 60.1609,98.4448 57.5,92.5C 58.1499,92.8039 58.8165,93.1373 59.5,93.5C 59.2777,88.6845 61.4443,85.6845 66,84.5C 66.4042,80.5813 67.0709,76.5813 68,72.5C 69.5909,75.3516 70.9242,78.3516 72,81.5C 74.7303,83.1349 75.897,85.3015 75.5,88C 76.0989,89.6225 76.7656,91.1225 77.5,92.5 Z"/></g>
<g><path style="opacity:1" fill="#8b7e57" d="M 141.5,127.5 C 143.262,128.262 144.262,129.596 144.5,131.5C 144.66,133.199 144.494,134.866 144,136.5C 143.667,135.833 143.333,135.167 143,134.5C 142.781,135.938 142.281,137.271 141.5,138.5C 140.451,135.92 139.784,133.254 139.5,130.5C 139.932,129.29 140.599,128.29 141.5,127.5 Z"/></g>
<g><path style="opacity:1" fill="#989085" d="M 213.5,99.5 C 214.268,100.263 214.768,101.263 215,102.5C 215.377,101.058 216.21,100.058 217.5,99.5C 214.609,105.694 211.443,111.694 208,117.5C 207.194,126.289 207.694,134.956 209.5,143.5C 208.5,143.5 207.5,143.5 206.5,143.5C 205.456,134.861 205.289,126.194 206,117.5C 206.906,114.69 208.073,112.024 209.5,109.5C 209.862,105.741 211.195,102.407 213.5,99.5 Z"/></g>
<g><path style="opacity:1" fill="#220d00" d="M 23.5,119.5 C 23.5,121.5 23.5,123.5 23.5,125.5C 24.8221,125.67 25.9887,125.337 27,124.5C 29.8187,128.904 33.9853,130.904 39.5,130.5C 41.1802,134.588 41.8468,138.921 41.5,143.5C 37.5,143.5 33.5,143.5 29.5,143.5C 31.8762,140.906 33.2095,137.739 33.5,134C 33.3552,133.228 33.0219,132.561 32.5,132C 31.1667,131.667 29.8333,131.333 28.5,131C 27.5266,128.453 25.6933,126.953 23,126.5C 22.2042,123.961 22.3709,121.628 23.5,119.5 Z"/></g>
<g><path style="opacity:1" fill="#060201" d="M 12.5,138.5 C 13.8333,140.167 15.1667,141.833 16.5,143.5C 10.8333,143.5 5.16667,143.5 -0.5,143.5C -0.5,141.5 -0.5,139.5 -0.5,137.5C 1.14772,136.19 2.81439,134.857 4.5,133.5C 5.48032,134.981 6.64699,136.315 8,137.5C 8.33333,136.833 8.66667,136.167 9,135.5C 9.07549,138.447 10.2422,139.447 12.5,138.5 Z"/></g>
<g><path style="opacity:1" fill="#1c1005" d="M 99.5,112.5 C 99.0742,114.139 99.0742,115.472 99.5,116.5C 96.5766,121.346 93.9099,126.346 91.5,131.5C 95.0957,132.079 98.7624,132.079 102.5,131.5C 102.5,132.5 102.5,133.5 102.5,134.5C 101.833,137.5 101.167,140.5 100.5,143.5C 87.1667,143.5 73.8333,143.5 60.5,143.5C 64.4617,138.51 67.1284,132.843 68.5,126.5C 69.2223,125.449 70.2223,124.782 71.5,124.5C 73.8913,127.917 77.2246,129.25 81.5,128.5C 82.8734,128.657 84.2068,128.49 85.5,128C 87.4579,125.252 89.2912,122.418 91,119.5C 94.2172,115.429 95.0505,111.096 93.5,106.5C 90.8333,106.5 88.1667,106.5 85.5,106.5C 84.8333,106.5 84.5,106.167 84.5,105.5C 88.1817,105.665 91.8484,105.499 95.5,105C 96,104.5 96.5,104 97,103.5C 97.3449,105.677 96.8449,107.677 95.5,109.5C 96.1001,111.468 97.4334,112.468 99.5,112.5 Z"/></g>
<g><path style="opacity:1" fill="#180a02" d="M 164.5,130.5 C 164.5,132.5 164.5,134.5 164.5,136.5C 163.687,138.261 162.687,139.928 161.5,141.5C 161.5,138.833 161.5,136.167 161.5,133.5C 162.728,132.694 163.728,131.694 164.5,130.5 Z"/></g>
<g><path style="opacity:1" fill="#683d17" d="M -0.5,107.5 C 0.611848,109.599 1.27852,111.933 1.5,114.5C 2.5,114.5 3.5,114.5 4.5,114.5C 4.08699,117.32 5.08699,119.32 7.5,120.5C 8.7443,129.322 12.411,136.989 18.5,143.5C 17.8333,143.5 17.1667,143.5 16.5,143.5C 15.1667,141.833 13.8333,140.167 12.5,138.5C 7.34961,130.531 3.01628,122.197 -0.5,113.5C -0.5,111.5 -0.5,109.5 -0.5,107.5 Z"/></g>
<g><path style="opacity:1" fill="#1b0e03" d="M 175.5,134.5 C 176.477,137.287 176.81,140.287 176.5,143.5C 173.833,143.5 171.167,143.5 168.5,143.5C 168.357,141.738 168.691,140.071 169.5,138.5C 170.651,137.269 171.817,137.269 173,138.5C 173.662,137.016 174.496,135.683 175.5,134.5 Z"/></g>
<g><path style="opacity:1" fill="#8f8055" d="M 198.5,103.5 C 197.766,104.708 197.433,106.041 197.5,107.5C 196.158,110.166 194.325,112.499 192,114.5C 187.97,119.88 186.303,125.88 187,132.5C 189.593,126.978 192.426,121.645 195.5,116.5C 195.322,119.216 194.822,121.883 194,124.5C 189.278,129.917 187.112,136.25 187.5,143.5C 185.167,143.5 182.833,143.5 180.5,143.5C 180.299,133.031 179.632,133.031 178.5,143.5C 177.833,143.5 177.167,143.5 176.5,143.5C 176.81,140.287 176.477,137.287 175.5,134.5C 173.956,134.703 172.622,135.37 171.5,136.5C 171.167,136.167 170.833,135.833 170.5,135.5C 171.86,132.78 173.193,130.114 174.5,127.5C 177.427,123.305 179.594,118.639 181,113.5C 182.016,112.366 182.683,112.699 183,114.5C 185.031,111.645 187.197,108.978 189.5,106.5C 192.682,105.97 195.682,104.97 198.5,103.5 Z"/></g>
<g><path style="opacity:1" fill="#cfc279" d="M 191.5,107.5 C 194.998,107.565 195.498,108.899 193,111.5C 189.568,115.364 186.901,119.698 185,124.5C 183.989,125.337 182.822,125.67 181.5,125.5C 183.258,118.652 186.592,112.652 191.5,107.5 Z"/></g>
<g><path style="opacity:1" fill="#6a5938" d="M 139.5,130.5 C 139.784,133.254 140.451,135.92 141.5,138.5C 142.281,137.271 142.781,135.938 143,134.5C 143.333,135.167 143.667,135.833 144,136.5C 144.494,134.866 144.66,133.199 144.5,131.5C 145.788,134.7 145.788,138.033 144.5,141.5C 142.257,142.474 139.924,142.808 137.5,142.5C 137.5,140.167 137.5,137.833 137.5,135.5C 137.402,133.447 138.069,131.78 139.5,130.5 Z"/></g>
<g><path style="opacity:1" fill="#365932" d="M 102.5,143.5 C 101.833,143.5 101.167,143.5 100.5,143.5C 101.167,140.5 101.833,137.5 102.5,134.5C 103.161,133.282 103.828,131.949 104.5,130.5C 105.137,134.959 104.471,139.292 102.5,143.5 Z"/></g>
<g><path style="opacity:1" fill="#2b2a05" d="M 164.5,136.5 C 164.674,138.861 165.007,141.194 165.5,143.5C 164.167,143.5 162.833,143.5 161.5,143.5C 161.5,142.833 161.5,142.167 161.5,141.5C 162.687,139.928 163.687,138.261 164.5,136.5 Z"/></g>
<g><path style="opacity:1" fill="#372816" d="M 180.5,143.5 C 179.833,143.5 179.167,143.5 178.5,143.5C 179.632,133.031 180.299,133.031 180.5,143.5 Z"/></g>
<g><path style="opacity:1" fill="#9a9388" d="M 211.5,138.5 C 212.5,139.833 213.5,141.167 214.5,142.5C 214.5,142.833 214.5,143.167 214.5,143.5C 213.167,143.5 211.833,143.5 210.5,143.5C 210.366,141.708 210.699,140.042 211.5,138.5 Z"/></g>
<g><path style="opacity:1" fill="#473218" d="M 142.5,118.5 C 142.12,123.073 143.453,127.073 146.5,130.5C 147.852,129.476 149.185,128.476 150.5,127.5C 149.833,129.167 149.167,130.833 148.5,132.5C 147.903,132.735 147.57,133.235 147.5,134C 148.856,135.567 149.523,137.4 149.5,139.5C 150.552,139.649 151.552,139.483 152.5,139C 155.24,134.631 157.74,130.131 160,125.5C 159.315,131.543 159.482,137.543 160.5,143.5C 152.5,143.5 144.5,143.5 136.5,143.5C 136.5,142.833 136.833,142.5 137.5,142.5C 139.924,142.808 142.257,142.474 144.5,141.5C 145.788,138.033 145.788,134.7 144.5,131.5C 144.262,129.596 143.262,128.262 141.5,127.5C 141.662,125.473 141.495,123.473 141,121.5C 139.951,122.517 138.784,122.684 137.5,122C 139.323,121.003 140.99,119.836 142.5,118.5 Z"/></g>
<g><path style="opacity:1" fill="#887b54" d="M 148.5,132.5 C 149.167,130.833 149.833,129.167 150.5,127.5C 151.151,126.909 151.818,126.243 152.5,125.5C 153.086,125.709 153.586,126.043 154,126.5C 154.17,128.845 153.837,131.179 153,133.5C 150.955,135.043 149.455,134.71 148.5,132.5 Z"/></g>
</svg>
