<?xml version="1.0" encoding="UTF-8"?>
<!DOCTYPE svg PUBLIC "-//W3C//DTD SVG 1.1//EN" "http://www.w3.org/Graphics/SVG/1.1/DTD/svg11.dtd">
<svg xmlns="http://www.w3.org/2000/svg" version="1.1" width="256px" height="144px" style="shape-rendering:geometricPrecision; text-rendering:geometricPrecision; image-rendering:optimizeQuality; fill-rule:evenodd; clip-rule:evenodd" xmlns:xlink="http://www.w3.org/1999/xlink">
<g><path style="opacity:1" fill="#453953" d="M 31.5,-0.5 C 35.1667,-0.5 38.8333,-0.5 42.5,-0.5C 35.0762,8.13134 28.7429,17.4647 23.5,27.5C 18.1996,27.7342 13.6996,29.7342 10,33.5C 9.47445,35.55 8.64112,37.3834 7.5,39C 7.84828,46.014 8.01495,53.514 8,61.5C 6.03647,66.1472 4.03647,70.8138 2,75.5C 1.49442,81.3752 1.66109,87.3752 2.5,93.5C 2.52787,98.5648 1.52787,99.2314 -0.5,95.5C -0.5,72.8333 -0.5,50.1667 -0.5,27.5C 3.17662,23.4327 7.84328,21.4327 13.5,21.5C 15.3359,20.081 17.3359,18.9143 19.5,18C 23.4012,11.6786 27.4012,5.51194 31.5,-0.5 Z"/></g>
<g><path style="opacity:1" fill="#4d415a" d="M 42.5,-0.5 C 43.1667,-0.5 43.8333,-0.5 44.5,-0.5C 40.9863,6.18849 36.4863,12.1885 31,17.5C 28.9099,24.3819 24.9099,29.7152 19,33.5C 18.6667,33.1667 18.3333,32.8333 18,32.5C 16.5331,35.2664 14.6998,37.7664 12.5,40C 13.1667,40.3333 13.8333,40.6667 14.5,41C 13.8333,43 13.1667,45 12.5,47C 12.2993,50.1768 12.6326,53.1768 13.5,56C 11.2258,61.7885 8.72581,67.6218 6,73.5C 6.37139,77.098 5.87139,80.7647 4.5,84.5C 5.98213,88.3437 6.81547,92.3437 7,96.5C 10.2265,101.721 12.3931,107.387 13.5,113.5C 9.31125,107.123 5.64458,100.456 2.5,93.5C 1.66109,87.3752 1.49442,81.3752 2,75.5C 4.03647,70.8138 6.03647,66.1472 8,61.5C 8.01495,53.514 7.84828,46.014 7.5,39C 8.64112,37.3834 9.47445,35.55 10,33.5C 13.6996,29.7342 18.1996,27.7342 23.5,27.5C 28.7429,17.4647 35.0762,8.13134 42.5,-0.5 Z"/></g>
<g><path style="opacity:1" fill="#0a0c0e" d="M 67.5,-0.5 C 69.5,-0.5 71.5,-0.5 73.5,-0.5C 69.7449,8.10434 67.4115,17.1043 66.5,26.5C 67.2334,31.4484 68.5668,36.1151 70.5,40.5C 71.5132,46.3788 73.3465,52.0455 76,57.5C 75.2764,50.1704 73.4431,43.1704 70.5,36.5C 69.833,34.1806 69.6664,31.8473 70,29.5C 71.1127,30.305 72.2794,30.9717 73.5,31.5C 80.4434,35.777 86.4434,41.1104 91.5,47.5C 91.5,48.1667 91.1667,48.5 90.5,48.5C 87.8752,47.0761 85.5419,47.4094 83.5,49.5C 81.8587,52.0462 81.5253,54.7129 82.5,57.5C 82.3338,63.8421 82.5005,70.1754 83,76.5C 83.5133,77.5266 84.0133,78.5266 84.5,79.5C 84.6596,81.153 85.3263,82.4863 86.5,83.5C 89.2875,88.2877 91.6208,93.2877 93.5,98.5C 92.6773,101.977 92.1773,105.644 92,109.5C 88.011,103.683 83.511,98.3492 78.5,93.5C 78.573,91.9731 77.9063,90.9731 76.5,90.5C 73.5759,84.802 71.5759,78.802 70.5,72.5C 68.4842,66.7657 66.3176,61.0991 64,55.5C 63.5002,44.505 63.3335,33.505 63.5,22.5C 64.5743,14.7946 65.9076,7.12794 67.5,-0.5 Z"/></g>
<g><path style="opacity:1" fill="#41507e" d="M 162.5,-0.5 C 164.833,-0.5 167.167,-0.5 169.5,-0.5C 168.677,1.98722 167.677,4.32055 166.5,6.5C 164.412,4.66439 163.079,2.33105 162.5,-0.5 Z"/></g>
<g><path style="opacity:1" fill="#2f2f35" d="M 114.5,-0.5 C 128.167,-0.5 141.833,-0.5 155.5,-0.5C 155.869,1.99349 155.203,2.66015 153.5,1.5C 153.265,0.903259 152.765,0.569925 152,0.5C 148.159,1.20857 144.326,1.87523 140.5,2.5C 137.231,2.92301 134.064,2.92301 131,2.5C 127.743,3.92732 124.91,5.92732 122.5,8.5C 121.925,4.7263 119.925,3.2263 116.5,4C 120.528,1.3015 120.195,0.468163 115.5,1.5C 114.702,1.04311 114.369,0.376442 114.5,-0.5 Z"/></g>
<g><path style="opacity:1" fill="#6f7c90" d="M 153.5,1.5 C 153.461,2.58317 153.127,3.58317 152.5,4.5C 153.889,6.86757 155.222,9.2009 156.5,11.5C 153.939,9.36035 151.605,7.02701 149.5,4.5C 146.5,3.83333 143.5,3.16667 140.5,2.5C 144.326,1.87523 148.159,1.20857 152,0.5C 152.765,0.569925 153.265,0.903259 153.5,1.5 Z"/></g>
<g><path style="opacity:1" fill="#484662" d="M 171.5,-0.5 C 171.833,-0.5 172.167,-0.5 172.5,-0.5C 172.118,3.33164 170.785,6.66497 168.5,9.5C 168.924,5.98816 169.924,2.65483 171.5,-0.5 Z"/></g>
<g><path style="opacity:1" fill="#191a1f" d="M 169.5,-0.5 C 170.167,-0.5 170.833,-0.5 171.5,-0.5C 169.924,2.65483 168.924,5.98816 168.5,9.5C 166.833,12.1667 165.167,14.8333 163.5,17.5C 160.546,13.4029 161.546,10.7362 166.5,9.5C 166.5,8.5 166.5,7.5 166.5,6.5C 167.677,4.32055 168.677,1.98722 169.5,-0.5 Z"/></g>
<g><path style="opacity:1" fill="#31399c" d="M 186.5,-0.5 C 189.167,-0.5 191.833,-0.5 194.5,-0.5C 195.051,2.80673 195.384,6.14006 195.5,9.5C 194.833,9.5 194.5,9.83333 194.5,10.5C 191.022,12.3822 187.355,13.5489 183.5,14C 186.056,9.52791 187.056,4.69458 186.5,-0.5 Z"/></g>
<g><path style="opacity:1" fill="#a8b6be" d="M 83.5,-0.5 C 84.5,-0.5 85.5,-0.5 86.5,-0.5C 85.8505,1.43525 85.5172,3.43525 85.5,5.5C 87.9363,5.68299 90.103,5.01632 92,3.5C 91.8071,1.91759 90.9738,0.584254 89.5,-0.5C 91.5,-0.5 93.5,-0.5 95.5,-0.5C 96.6665,4.87493 94.6665,7.87493 89.5,8.5C 89.6822,10.6746 90.3489,12.6746 91.5,14.5C 91.4573,15.4164 91.1239,16.0831 90.5,16.5C 89.71,17.6085 89.21,18.9419 89,20.5C 88.0853,19.6721 87.4186,18.6721 87,17.5C 86.6667,14.8333 86.3333,12.1667 86,9.5C 84.9887,10.3366 83.8221,10.67 82.5,10.5C 82.3571,14.7557 80.8571,18.4223 78,21.5C 78.7471,16.3944 78.5804,11.3944 77.5,6.5C 76.596,5.79105 76.2627,4.79105 76.5,3.5C 78.7224,3.17798 80.5557,3.84464 82,5.5C 83.128,3.65472 83.628,1.65472 83.5,-0.5 Z"/></g>
<g><path style="opacity:1" fill="#2d3234" d="M 86.5,-0.5 C 87.5,-0.5 88.5,-0.5 89.5,-0.5C 90.9738,0.584254 91.8071,1.91759 92,3.5C 90.103,5.01632 87.9363,5.68299 85.5,5.5C 85.5172,3.43525 85.8505,1.43525 86.5,-0.5 Z"/></g>
<g><path style="opacity:1" fill="#63646a" d="M 103.5,-0.5 C 107.167,-0.5 110.833,-0.5 114.5,-0.5C 114.369,0.376442 114.702,1.04311 115.5,1.5C 120.195,0.468163 120.528,1.3015 116.5,4C 119.925,3.2263 121.925,4.7263 122.5,8.5C 121.167,10.5 119.5,12.1667 117.5,13.5C 115.857,13.5198 114.524,12.8532 113.5,11.5C 112.817,11.8627 112.15,12.1961 111.5,12.5C 106.067,9.98361 103.4,5.65028 103.5,-0.5 Z"/></g>
<g><path style="opacity:1" fill="#40454d" d="M 155.5,-0.5 C 157.833,-0.5 160.167,-0.5 162.5,-0.5C 163.079,2.33105 164.412,4.66439 166.5,6.5C 166.5,7.5 166.5,8.5 166.5,9.5C 161.546,10.7362 160.546,13.4029 163.5,17.5C 162.488,18.8717 161.488,20.205 160.5,21.5C 159.626,17.9673 158.293,14.634 156.5,11.5C 155.222,9.2009 153.889,6.86757 152.5,4.5C 153.127,3.58317 153.461,2.58317 153.5,1.5C 155.203,2.66015 155.869,1.99349 155.5,-0.5 Z"/></g>
<g><path style="opacity:1" fill="#312541" d="M -0.5,-0.5 C 10.1667,-0.5 20.8333,-0.5 31.5,-0.5C 27.4012,5.51194 23.4012,11.6786 19.5,18C 17.3359,18.9143 15.3359,20.081 13.5,21.5C 7.84328,21.4327 3.17662,23.4327 -0.5,27.5C -0.5,18.1667 -0.5,8.83333 -0.5,-0.5 Z"/></g>
<g><path style="opacity:1" fill="#d2dfe6" d="M 97.5,-0.5 C 99.5,-0.5 101.5,-0.5 103.5,-0.5C 103.4,5.65028 106.067,9.98361 111.5,12.5C 101.487,14.1586 96.8201,9.82528 97.5,-0.5 Z"/></g>
<g><path style="opacity:1" fill="#111127" d="M 149.5,4.5 C 151.605,7.02701 153.939,9.36035 156.5,11.5C 158.293,14.634 159.626,17.9673 160.5,21.5C 159.833,21.5 159.5,21.8333 159.5,22.5C 158.833,22.1667 158.167,21.8333 157.5,21.5C 151.272,6.05034 141.272,3.21701 127.5,13C 121.924,18.0713 116.924,23.5713 112.5,29.5C 107.35,33.8171 104.35,39.1505 103.5,45.5C 103.5,44.5 103.5,43.5 103.5,42.5C 103.259,39.2065 104.092,36.2065 106,33.5C 108.969,29.0296 112.136,24.6962 115.5,20.5C 120.758,14.7416 126.758,9.90829 133.5,6C 138.736,4.661 144.07,4.161 149.5,4.5 Z"/></g>
<g><path style="opacity:1" fill="#607f8d" d="M 243.5,11.5 C 246.665,19.8521 247.999,28.5188 247.5,37.5C 247.666,43.1764 247.499,48.8431 247,54.5C 245,55.8333 243,55.8333 241,54.5C 240.667,55.5 240.333,56.5 240,57.5C 239.31,56.2617 238.81,56.2617 238.5,57.5C 234.833,54.5 231.5,51.1667 228.5,47.5C 230.256,46.4479 230.923,44.7812 230.5,42.5C 231.167,42.5 231.5,42.8333 231.5,43.5C 234.623,44.7602 237.29,47.2602 239.5,51C 241.218,51.346 242.885,51.846 244.5,52.5C 245.491,49.0654 246.157,45.5654 246.5,42C 245.683,34.2718 244.017,26.7718 241.5,19.5C 238.174,15.3418 234.341,11.6751 230,8.5C 228.559,9.25978 227.059,9.92644 225.5,10.5C 224.831,12.6309 224.165,14.6309 223.5,16.5C 222.347,14.0698 221.347,14.0698 220.5,16.5C 221.333,19.8333 222.167,23.1667 223,26.5C 225.372,29.9099 227.205,33.5766 228.5,37.5C 226.551,36.2753 225.218,36.942 224.5,39.5C 220.704,34.538 217.537,29.2047 215,23.5C 214.186,21.0982 214.353,18.7649 215.5,16.5C 216.086,16.7093 216.586,17.0426 217,17.5C 216.93,14.008 217.763,11.008 219.5,8.5C 220.072,9.97332 220.905,11.3066 222,12.5C 222.333,9.83333 222.667,7.16667 223,4.5C 226.018,5.02783 228.851,6.02783 231.5,7.5C 232.967,6.30466 234.467,6.30466 236,7.5C 237.549,10.3685 239.382,13.0352 241.5,15.5C 241.88,13.9793 242.046,12.3126 242,10.5C 242.383,11.056 242.883,11.3893 243.5,11.5 Z"/></g>
<g><path style="opacity:1" fill="#4a3b33" d="M 157.5,21.5 C 154.149,20.1025 150.816,18.6025 147.5,17C 144.633,16.1993 141.966,16.3659 139.5,17.5C 135.912,16.1329 132.245,15.2996 128.5,15C 123.36,20.1877 118.36,25.3544 113.5,30.5C 112.833,30.5 112.5,30.1667 112.5,29.5C 116.924,23.5713 121.924,18.0713 127.5,13C 141.272,3.21701 151.272,6.05034 157.5,21.5 Z"/></g>
<g><path style="opacity:1" fill="#cde1e8" d="M 172.5,-0.5 C 174.5,-0.5 176.5,-0.5 178.5,-0.5C 175.382,9.23549 171.049,18.4022 165.5,27C 161.642,27.8099 157.976,27.6433 154.5,26.5C 156.191,25.1363 157.858,23.803 159.5,22.5C 159.5,21.8333 159.833,21.5 160.5,21.5C 161.488,20.205 162.488,18.8717 163.5,17.5C 165.167,14.8333 166.833,12.1667 168.5,9.5C 170.785,6.66497 172.118,3.33164 172.5,-0.5 Z"/></g>
<g><path style="opacity:1" fill="#484952" d="M 95.5,-0.5 C 96.1667,-0.5 96.8333,-0.5 97.5,-0.5C 96.8201,9.82528 101.487,14.1586 111.5,12.5C 112.15,12.1961 112.817,11.8627 113.5,11.5C 114.524,12.8532 115.857,13.5198 117.5,13.5C 113.986,15.4213 113.319,17.7546 115.5,20.5C 112.136,24.6962 108.969,29.0296 106,33.5C 104.092,36.2065 103.259,39.2065 103.5,42.5C 102.778,41.4489 101.778,40.7822 100.5,40.5C 102.803,33.1761 106.803,26.8427 112.5,21.5C 111.711,19.5121 110.545,19.1787 109,20.5C 108.316,19.2161 108.483,18.0495 109.5,17C 107.406,18.0943 105.073,18.4277 102.5,18C 102.833,17.6667 103.167,17.3333 103.5,17C 100.887,14.8774 98.554,12.5441 96.5,10C 94.3225,8.79777 91.9892,8.29777 89.5,8.5C 94.6665,7.87493 96.6665,4.87493 95.5,-0.5 Z"/></g>
<g><path style="opacity:1" fill="#393d5e" d="M 140.5,2.5 C 143.5,3.16667 146.5,3.83333 149.5,4.5C 144.07,4.161 138.736,4.661 133.5,6C 126.758,9.90829 120.758,14.7416 115.5,20.5C 113.319,17.7546 113.986,15.4213 117.5,13.5C 119.5,12.1667 121.167,10.5 122.5,8.5C 124.91,5.92732 127.743,3.92732 131,2.5C 134.064,2.92301 137.231,2.92301 140.5,2.5 Z"/></g>
<g><path style="opacity:1" fill="#2b3c42" d="M 194.5,-0.5 C 207.5,-0.5 220.5,-0.5 233.5,-0.5C 233.949,1.53289 234.949,3.19956 236.5,4.5C 237.251,3.62402 237.751,2.62402 238,1.5C 240.112,4.72707 241.945,8.06041 243.5,11.5C 242.883,11.3893 242.383,11.056 242,10.5C 242.046,12.3126 241.88,13.9793 241.5,15.5C 239.382,13.0352 237.549,10.3685 236,7.5C 234.467,6.30466 232.967,6.30466 231.5,7.5C 228.851,6.02783 226.018,5.02783 223,4.5C 222.667,7.16667 222.333,9.83333 222,12.5C 220.905,11.3066 220.072,9.97332 219.5,8.5C 218.878,7.37344 218.045,6.37344 217,5.5C 216.794,8.62293 216.127,11.6229 215,14.5C 213.471,13.2713 212.304,11.7713 211.5,10C 210.517,9.40921 209.85,9.74254 209.5,11C 209.924,14.4829 211.09,17.6496 213,20.5C 213.288,28.1061 211.788,28.2728 208.5,21C 207.517,20.4092 206.85,20.7425 206.5,22C 208.741,27.4976 210.741,32.9976 212.5,38.5C 211.5,38.5 210.5,38.5 209.5,38.5C 204.997,38.1335 200.664,37.1335 196.5,35.5C 195.597,32.6085 195.264,29.6085 195.5,26.5C 196.804,20.734 196.804,15.0673 195.5,9.5C 195.384,6.14006 195.051,2.80673 194.5,-0.5 Z"/></g>
<g><path style="opacity:1" fill="#181128" d="M 241.5,-0.5 C 246.167,-0.5 250.833,-0.5 255.5,-0.5C 255.5,14.1667 255.5,28.8333 255.5,43.5C 252.354,36.9749 250.521,29.9749 250,22.5C 247.316,14.7521 244.482,7.08546 241.5,-0.5 Z"/></g>
<g><path style="opacity:1" fill="#4b54b2" d="M 180.5,-0.5 C 182.5,-0.5 184.5,-0.5 186.5,-0.5C 187.056,4.69458 186.056,9.52791 183.5,14C 187.355,13.5489 191.022,12.3822 194.5,10.5C 194.063,12.0744 193.063,13.2411 191.5,14C 188.474,15.1825 185.474,16.3492 182.5,17.5C 181.85,17.1961 181.183,16.8627 180.5,16.5C 177.171,19.1645 174.838,22.4979 173.5,26.5C 171.398,29.9079 171.065,33.5745 172.5,37.5C 172.145,38.5223 171.478,39.189 170.5,39.5C 170.533,35.1311 170.2,30.7978 169.5,26.5C 171.727,25.5994 172.727,23.9328 172.5,21.5C 172.357,19.7376 172.691,18.0709 173.5,16.5C 175.149,15.3523 176.649,14.019 178,12.5C 178.418,8.06611 179.251,3.73277 180.5,-0.5 Z"/></g>
<g><path style="opacity:1" fill="#544660" d="M 44.5,-0.5 C 46.8333,-0.5 49.1667,-0.5 51.5,-0.5C 48.2632,3.63011 45.2632,7.96344 42.5,12.5C 39.5758,12.6257 36.9092,13.959 34.5,16.5C 31.0174,24.7787 26.5174,32.4454 21,39.5C 19.2822,46.394 18.2822,53.394 18,60.5C 15.9273,64.9099 13.4273,69.0765 10.5,73C 8.31564,81.9154 8.81564,91.0821 12,100.5C 19.8698,112.413 24.7031,124.913 26.5,138C 25.8333,138.333 25.1667,138.667 24.5,139C 26.7823,140.084 27.1157,141.584 25.5,143.5C 22.1667,143.5 18.8333,143.5 15.5,143.5C 16.1969,138.574 17.1969,134.074 18.5,130C 16.8848,124.37 15.2181,118.87 13.5,113.5C 12.3931,107.387 10.2265,101.721 7,96.5C 6.81547,92.3437 5.98213,88.3437 4.5,84.5C 5.87139,80.7647 6.37139,77.098 6,73.5C 8.72581,67.6218 11.2258,61.7885 13.5,56C 12.6326,53.1768 12.2993,50.1768 12.5,47C 13.1667,45 13.8333,43 14.5,41C 13.8333,40.6667 13.1667,40.3333 12.5,40C 14.6998,37.7664 16.5331,35.2664 18,32.5C 18.3333,32.8333 18.6667,33.1667 19,33.5C 24.9099,29.7152 28.9099,24.3819 31,17.5C 36.4863,12.1885 40.9863,6.18849 44.5,-0.5 Z"/></g>
<g><path style="opacity:1" fill="#8c7781" d="M 139.5,19.5 C 138.5,19.5 137.5,19.5 136.5,19.5C 134.851,20.4728 133.184,21.4728 131.5,22.5C 129.664,21.6043 127.997,20.6043 126.5,19.5C 130.811,17.1597 135.144,17.1597 139.5,19.5 Z"/></g>
<g><path style="opacity:1" fill="#13181b" d="M 75.5,-0.5 C 78.1667,-0.5 80.8333,-0.5 83.5,-0.5C 83.628,1.65472 83.128,3.65472 82,5.5C 80.5557,3.84464 78.7224,3.17798 76.5,3.5C 76.2627,4.79105 76.596,5.79105 77.5,6.5C 77.7212,11.4512 77.0545,16.2845 75.5,21C 76.4966,23.8329 77.4966,26.6662 78.5,29.5C 80.9931,30.2294 83.3264,31.0628 85.5,32C 85.9764,28.3202 86.9764,24.8202 88.5,21.5C 89.3579,29.2613 90.6912,36.9279 92.5,44.5C 89.3338,42.1663 86.6671,39.3329 84.5,36C 81.4706,33.8239 78.4706,31.6573 75.5,29.5C 73.825,27.998 71.9917,26.6647 70,25.5C 69.8333,24.1667 69.6667,22.8333 69.5,21.5C 70.8965,13.9807 72.8965,6.64741 75.5,-0.5 Z"/></g>
<g><path style="opacity:1" fill="#a17f79" d="M 139.5,17.5 C 141.966,16.3659 144.633,16.1993 147.5,17C 150.816,18.6025 154.149,20.1025 157.5,21.5C 158.167,21.8333 158.833,22.1667 159.5,22.5C 157.858,23.803 156.191,25.1363 154.5,26.5C 152.5,26.5 150.5,26.5 148.5,26.5C 148.657,25.1266 148.49,23.7932 148,22.5C 147.392,24.0664 146.558,25.3998 145.5,26.5C 145.657,25.1266 145.49,23.7932 145,22.5C 143.482,21.8366 142.315,20.8366 141.5,19.5C 141.167,18.5 140.5,17.8333 139.5,17.5 Z"/></g>
<g><path style="opacity:1" fill="#1d1d22" d="M 89.5,8.5 C 91.9892,8.29777 94.3225,8.79777 96.5,10C 98.554,12.5441 100.887,14.8774 103.5,17C 103.167,17.3333 102.833,17.6667 102.5,18C 105.073,18.4277 107.406,18.0943 109.5,17C 108.483,18.0495 108.316,19.2161 109,20.5C 110.545,19.1787 111.711,19.5121 112.5,21.5C 106.803,26.8427 102.803,33.1761 100.5,40.5C 99.3738,42.5363 97.7071,43.8697 95.5,44.5C 92.0494,35.6153 90.3827,26.282 90.5,16.5C 91.1239,16.0831 91.4573,15.4164 91.5,14.5C 90.3489,12.6746 89.6822,10.6746 89.5,8.5 Z"/></g>
<g><path style="opacity:1" fill="#171313" d="M 139.5,17.5 C 140.5,17.8333 141.167,18.5 141.5,19.5C 140.833,19.5 140.167,19.5 139.5,19.5C 135.144,17.1597 130.811,17.1597 126.5,19.5C 125.11,20.8993 124.11,22.5659 123.5,24.5C 122.333,27.848 120.166,30.5146 117,32.5C 115.991,34.0249 115.491,35.6916 115.5,37.5C 113.396,37.7989 111.396,37.4656 109.5,36.5C 110.467,34.2099 111.8,32.2099 113.5,30.5C 118.36,25.3544 123.36,20.1877 128.5,15C 132.245,15.2996 135.912,16.1329 139.5,17.5 Z"/></g>
<g><path style="opacity:1" fill="#a684b3" d="M 136.5,19.5 C 137.5,19.5 138.5,19.5 139.5,19.5C 140.167,19.5 140.833,19.5 141.5,19.5C 142.315,20.8366 143.482,21.8366 145,22.5C 145.49,23.7932 145.657,25.1266 145.5,26.5C 145.443,27.609 145.11,28.609 144.5,29.5C 142.952,29.1788 142.285,28.1788 142.5,26.5C 136.102,27.7739 134.102,25.4406 136.5,19.5 Z"/></g>
<g><path style="opacity:1" fill="#ccd0e7" d="M 172.5,21.5 C 172.727,23.9328 171.727,25.5994 169.5,26.5C 168.475,26.1034 168.308,25.4368 169,24.5C 169.759,22.9371 170.926,21.9371 172.5,21.5 Z"/></g>
<g><path style="opacity:1" fill="#7da0b0" d="M 231.5,43.5 C 233.13,41.9739 233.963,39.9739 234,37.5C 242.111,53.6261 245.445,52.9594 244,35.5C 242.756,30.4334 240.923,25.6001 238.5,21C 236.641,19.3076 234.641,17.8076 232.5,16.5C 230.356,17.9535 228.523,17.6201 227,15.5C 228.231,25.6165 227.064,25.9499 223.5,16.5C 224.165,14.6309 224.831,12.6309 225.5,10.5C 227.059,9.92644 228.559,9.25978 230,8.5C 234.341,11.6751 238.174,15.3418 241.5,19.5C 244.017,26.7718 245.683,34.2718 246.5,42C 246.157,45.5654 245.491,49.0654 244.5,52.5C 242.885,51.846 241.218,51.346 239.5,51C 237.29,47.2602 234.623,44.7602 231.5,43.5 Z"/></g>
<g><path style="opacity:1" fill="#dee9ed" d="M 66.5,-0.5 C 66.8333,-0.5 67.1667,-0.5 67.5,-0.5C 65.9076,7.12794 64.5743,14.7946 63.5,22.5C 62.5054,33.3206 62.1721,44.3206 62.5,55.5C 61.1001,54.9002 60.1001,53.9002 59.5,52.5C 59.5,45.5 59.5,38.5 59.5,31.5C 59.5,30.1667 59.5,28.8333 59.5,27.5C 59.9111,23.7785 60.5778,20.1119 61.5,16.5C 62.5633,10.6446 64.23,4.97797 66.5,-0.5 Z"/></g>
<g><path style="opacity:1" fill="#242e34" d="M 77.5,6.5 C 78.5804,11.3944 78.7471,16.3944 78,21.5C 80.8571,18.4223 82.3571,14.7557 82.5,10.5C 83.8221,10.67 84.9887,10.3366 86,9.5C 86.3333,12.1667 86.6667,14.8333 87,17.5C 87.4186,18.6721 88.0853,19.6721 89,20.5C 89.21,18.9419 89.71,17.6085 90.5,16.5C 90.3827,26.282 92.0494,35.6153 95.5,44.5C 94.6522,45.625 93.6522,45.625 92.5,44.5C 90.6912,36.9279 89.3579,29.2613 88.5,21.5C 86.9764,24.8202 85.9764,28.3202 85.5,32C 83.3264,31.0628 80.9931,30.2294 78.5,29.5C 77.4966,26.6662 76.4966,23.8329 75.5,21C 77.0545,16.2845 77.7212,11.4512 77.5,6.5 Z"/></g>
<g><path style="opacity:1" fill="#5f4b65" d="M 126.5,19.5 C 127.997,20.6043 129.664,21.6043 131.5,22.5C 133.184,21.4728 134.851,20.4728 136.5,19.5C 134.102,25.4406 136.102,27.7739 142.5,26.5C 142.285,28.1788 142.952,29.1788 144.5,29.5C 142.795,32.2869 141.628,31.9535 141,28.5C 140.617,29.056 140.117,29.3893 139.5,29.5C 134.123,29.1192 128.79,28.4525 123.5,27.5C 123.5,26.5 123.5,25.5 123.5,24.5C 124.11,22.5659 125.11,20.8993 126.5,19.5 Z"/></g>
<g><path style="opacity:1" fill="#635e71" d="M 178.5,-0.5 C 179.167,-0.5 179.833,-0.5 180.5,-0.5C 179.251,3.73277 178.418,8.06611 178,12.5C 176.649,14.019 175.149,15.3523 173.5,16.5C 172.691,18.0709 172.357,19.7376 172.5,21.5C 170.926,21.9371 169.759,22.9371 169,24.5C 168.308,25.4368 168.475,26.1034 169.5,26.5C 170.2,30.7978 170.533,35.1311 170.5,39.5C 170.5,39.8333 170.5,40.1667 170.5,40.5C 169.833,41.1667 169.167,41.8333 168.5,42.5C 168.19,41.2617 167.69,41.2617 167,42.5C 166.517,43.448 166.351,44.448 166.5,45.5C 165.022,45.238 163.689,45.5713 162.5,46.5C 161.965,48.261 160.965,49.5943 159.5,50.5C 161.881,46.5138 162.881,42.1805 162.5,37.5C 163.29,38.6085 163.79,39.9419 164,41.5C 164.051,38.7234 164.218,36.0567 164.5,33.5C 165.934,35.2199 166.767,37.2199 167,39.5C 168.442,30.0351 164.609,26.7017 155.5,29.5C 156.34,30.735 157.34,31.735 158.5,32.5C 155.197,33.1514 152.53,34.818 150.5,37.5C 147.266,39.6866 143.933,41.6866 140.5,43.5C 144.806,38.6262 147.472,32.9595 148.5,26.5C 150.5,26.5 152.5,26.5 154.5,26.5C 157.976,27.6433 161.642,27.8099 165.5,27C 171.049,18.4022 175.382,9.23549 178.5,-0.5 Z"/></g>
<g><path style="opacity:1" fill="#3b48ba" d="M 195.5,9.5 C 196.804,15.0673 196.804,20.734 195.5,26.5C 194.903,30.2672 193.903,33.9339 192.5,37.5C 191.194,38.9678 189.694,40.3012 188,41.5C 187.781,40.062 187.281,38.7287 186.5,37.5C 185.808,38.0253 185.308,38.6919 185,39.5C 184.833,39 184.667,38.5 184.5,38C 186.456,31.0609 187.79,24.2276 188.5,17.5C 185.162,17.1091 184.162,18.2757 185.5,21C 185.054,22.7259 184.221,24.2259 183,25.5C 182.503,22.854 182.336,20.1873 182.5,17.5C 185.474,16.3492 188.474,15.1825 191.5,14C 193.063,13.2411 194.063,12.0744 194.5,10.5C 194.5,9.83333 194.833,9.5 195.5,9.5 Z"/></g>
<g><path style="opacity:1" fill="#5b4d66" d="M 51.5,-0.5 C 52.5,-0.5 53.5,-0.5 54.5,-0.5C 50.765,5.43141 46.4316,10.9314 41.5,16C 39.8988,16.2734 38.3988,16.7734 37,17.5C 31.9176,26.8277 27.5842,36.4944 24,46.5C 22.8631,51.057 22.6964,55.557 23.5,60C 21.2699,64.4603 18.2699,68.7936 14.5,73C 13.8847,81.2306 13.8847,89.2306 14.5,97C 17.1579,103.831 20.4912,110.331 24.5,116.5C 24.3054,120.268 25.972,123.435 29.5,126C 29.1667,126.333 28.8333,126.667 28.5,127C 28.9278,129.629 29.9278,131.962 31.5,134C 31.0712,137.047 31.0712,140.214 31.5,143.5C 29.5,143.5 27.5,143.5 25.5,143.5C 27.1157,141.584 26.7823,140.084 24.5,139C 25.1667,138.667 25.8333,138.333 26.5,138C 24.7031,124.913 19.8698,112.413 12,100.5C 8.81564,91.0821 8.31564,81.9154 10.5,73C 13.4273,69.0765 15.9273,64.9099 18,60.5C 18.2822,53.394 19.2822,46.394 21,39.5C 26.5174,32.4454 31.0174,24.7787 34.5,16.5C 36.9092,13.959 39.5758,12.6257 42.5,12.5C 45.2632,7.96344 48.2632,3.63011 51.5,-0.5 Z"/></g>
<g><path style="opacity:1" fill="#a4bbc2" d="M 73.5,-0.5 C 74.1667,-0.5 74.8333,-0.5 75.5,-0.5C 72.8965,6.64741 70.8965,13.9807 69.5,21.5C 69.6667,22.8333 69.8333,24.1667 70,25.5C 71.9917,26.6647 73.825,27.998 75.5,29.5C 75.5,30.8333 74.8333,31.5 73.5,31.5C 72.2794,30.9717 71.1127,30.305 70,29.5C 69.6664,31.8473 69.833,34.1806 70.5,36.5C 70.5,37.8333 70.5,39.1667 70.5,40.5C 68.5668,36.1151 67.2334,31.4484 66.5,26.5C 67.4115,17.1043 69.7449,8.10434 73.5,-0.5 Z"/></g>
<g><path style="opacity:1" fill="#5a6e7f" d="M 75.5,29.5 C 78.4706,31.6573 81.4706,33.8239 84.5,36C 86.6671,39.3329 89.3338,42.1663 92.5,44.5C 93.6522,45.625 94.6522,45.625 95.5,44.5C 97.7071,43.8697 99.3738,42.5363 100.5,40.5C 101.778,40.7822 102.778,41.4489 103.5,42.5C 103.5,43.5 103.5,44.5 103.5,45.5C 100.323,46.4473 97.3232,47.7807 94.5,49.5C 93.4822,48.8075 92.4822,48.1408 91.5,47.5C 86.4434,41.1104 80.4434,35.777 73.5,31.5C 74.8333,31.5 75.5,30.8333 75.5,29.5 Z"/></g>
<g><path style="opacity:1" fill="#191518" d="M 148.5,26.5 C 147.472,32.9595 144.806,38.6262 140.5,43.5C 133.704,43.9151 133.038,42.4151 138.5,39C 137.627,37.955 136.627,37.1217 135.5,36.5C 135.167,36.5 134.833,36.5 134.5,36.5C 132.307,35.2031 129.973,35.2031 127.5,36.5C 126.209,37.5272 126.209,38.5272 127.5,39.5C 125.084,36.6917 123.084,37.025 121.5,40.5C 120.209,41.5417 120.209,42.7083 121.5,44C 120.207,44.49 118.873,44.6567 117.5,44.5C 120.132,36.2055 125.799,31.5388 134.5,30.5C 136.542,33.0038 138.208,32.6704 139.5,29.5C 140.117,29.3893 140.617,29.056 141,28.5C 141.628,31.9535 142.795,32.2869 144.5,29.5C 145.11,28.609 145.443,27.609 145.5,26.5C 146.558,25.3998 147.392,24.0664 148,22.5C 148.49,23.7932 148.657,25.1266 148.5,26.5 Z"/></g>
<g><path style="opacity:1" fill="#47616c" d="M 219.5,8.5 C 217.763,11.008 216.93,14.008 217,17.5C 216.586,17.0426 216.086,16.7093 215.5,16.5C 214.353,18.7649 214.186,21.0982 215,23.5C 217.537,29.2047 220.704,34.538 224.5,39.5C 225.218,36.942 226.551,36.2753 228.5,37.5C 229.441,39.0495 230.107,40.7162 230.5,42.5C 230.923,44.7812 230.256,46.4479 228.5,47.5C 226.329,45.4998 223.996,43.6665 221.5,42C 219.613,41.2204 217.946,41.3871 216.5,42.5C 215.833,42.5 215.167,42.5 214.5,42.5C 213.564,41.0256 212.23,40.0256 210.5,39.5C 209.833,39.5 209.5,39.1667 209.5,38.5C 210.5,38.5 211.5,38.5 212.5,38.5C 210.741,32.9976 208.741,27.4976 206.5,22C 206.85,20.7425 207.517,20.4092 208.5,21C 211.788,28.2728 213.288,28.1061 213,20.5C 211.09,17.6496 209.924,14.4829 209.5,11C 209.85,9.74254 210.517,9.40921 211.5,10C 212.304,11.7713 213.471,13.2713 215,14.5C 216.127,11.6229 216.794,8.62293 217,5.5C 218.045,6.37344 218.878,7.37344 219.5,8.5 Z"/></g>
<g><path style="opacity:1" fill="#39225b" d="M 134.5,36.5 C 131.918,36.0254 129.918,36.6921 128.5,38.5C 128.5,39.1667 128.167,39.5 127.5,39.5C 126.209,38.5272 126.209,37.5272 127.5,36.5C 129.973,35.2031 132.307,35.2031 134.5,36.5 Z"/></g>
<g><path style="opacity:1" fill="#caa4e2" d="M 134.5,36.5 C 134.833,36.5 135.167,36.5 135.5,36.5C 135.727,38.9328 134.727,40.5994 132.5,41.5C 132.306,39.0882 130.973,38.0882 128.5,38.5C 129.918,36.6921 131.918,36.0254 134.5,36.5 Z"/></g>
<g><path style="opacity:1" fill="#393750" d="M 162.5,37.5 C 161.791,36.596 160.791,36.2627 159.5,36.5C 159.768,34.901 159.434,33.5676 158.5,32.5C 157.34,31.735 156.34,30.735 155.5,29.5C 164.609,26.7017 168.442,30.0351 167,39.5C 166.767,37.2199 165.934,35.2199 164.5,33.5C 164.218,36.0567 164.051,38.7234 164,41.5C 163.79,39.9419 163.29,38.6085 162.5,37.5 Z"/></g>
<g><path style="opacity:1" fill="#92b6c7" d="M 223.5,16.5 C 227.064,25.9499 228.231,25.6165 227,15.5C 228.523,17.6201 230.356,17.9535 232.5,16.5C 234.641,17.8076 236.641,19.3076 238.5,21C 240.923,25.6001 242.756,30.4334 244,35.5C 245.445,52.9594 242.111,53.6261 234,37.5C 233.963,39.9739 233.13,41.9739 231.5,43.5C 231.5,42.8333 231.167,42.5 230.5,42.5C 230.107,40.7162 229.441,39.0495 228.5,37.5C 227.205,33.5766 225.372,29.9099 223,26.5C 222.167,23.1667 221.333,19.8333 220.5,16.5C 221.347,14.0698 222.347,14.0698 223.5,16.5 Z"/></g>
<g><path style="opacity:1" fill="#32282b" d="M 123.5,24.5 C 123.5,25.5 123.5,26.5 123.5,27.5C 128.79,28.4525 134.123,29.1192 139.5,29.5C 138.208,32.6704 136.542,33.0038 134.5,30.5C 125.799,31.5388 120.132,36.2055 117.5,44.5C 117.167,44.5 116.833,44.5 116.5,44.5C 115.039,43.3143 113.705,43.3143 112.5,44.5C 109.626,45.0634 106.96,46.0634 104.5,47.5C 99.1451,47.7026 94.8117,49.8692 91.5,54C 90.2068,54.49 88.8734,54.6567 87.5,54.5C 87.8417,53.6618 88.5084,53.3284 89.5,53.5C 90.4511,52.0813 90.7845,50.4147 90.5,48.5C 91.1667,48.5 91.5,48.1667 91.5,47.5C 92.4822,48.1408 93.4822,48.8075 94.5,49.5C 97.3232,47.7807 100.323,46.4473 103.5,45.5C 104.35,39.1505 107.35,33.8171 112.5,29.5C 112.5,30.1667 112.833,30.5 113.5,30.5C 111.8,32.2099 110.467,34.2099 109.5,36.5C 111.396,37.4656 113.396,37.7989 115.5,37.5C 115.491,35.6916 115.991,34.0249 117,32.5C 120.166,30.5146 122.333,27.848 123.5,24.5 Z"/></g>
<g><path style="opacity:1" fill="#4954ba" d="M 182.5,17.5 C 182.336,20.1873 182.503,22.854 183,25.5C 184.221,24.2259 185.054,22.7259 185.5,21C 184.162,18.2757 185.162,17.1091 188.5,17.5C 187.79,24.2276 186.456,31.0609 184.5,38C 184.667,38.5 184.833,39 185,39.5C 185.308,38.6919 185.808,38.0253 186.5,37.5C 187.281,38.7287 187.781,40.062 188,41.5C 189.694,40.3012 191.194,38.9678 192.5,37.5C 191.035,42.4266 189.035,47.0932 186.5,51.5C 186.565,51.0618 186.399,50.7284 186,50.5C 185.804,52.2861 184.971,53.6195 183.5,54.5C 182.728,51.8653 182.562,49.1986 183,46.5C 182.167,47.5 181.333,48.5 180.5,49.5C 179.808,46.0636 178.808,42.7302 177.5,39.5C 178.67,36.151 178.67,32.8177 177.5,29.5C 175.323,30.5042 174.989,29.8375 176.5,27.5C 175.675,26.6143 174.675,26.281 173.5,26.5C 174.838,22.4979 177.171,19.1645 180.5,16.5C 181.183,16.8627 181.85,17.1961 182.5,17.5 Z"/></g>
<g><path style="opacity:1" fill="#697e87" d="M 76.5,37.5 C 77.7647,38.5145 78.4313,40.0145 78.5,42C 79.0206,44.3414 79.0206,46.5081 78.5,48.5C 77.8076,47.9747 77.3076,47.3081 77,46.5C 76.502,43.5184 76.3354,40.5184 76.5,37.5 Z"/></g>
<g><path style="opacity:1" fill="#8b3bcd" d="M 127.5,39.5 C 128.167,39.5 128.5,39.1667 128.5,38.5C 130.973,38.0882 132.306,39.0882 132.5,41.5C 128.446,44.452 124.779,44.1187 121.5,40.5C 123.084,37.025 125.084,36.6917 127.5,39.5 Z"/></g>
<g><path style="opacity:1" fill="#a78576" d="M 135.5,36.5 C 136.627,37.1217 137.627,37.955 138.5,39C 133.038,42.4151 133.704,43.9151 140.5,43.5C 143.933,41.6866 147.266,39.6866 150.5,37.5C 150.719,38.675 150.386,39.675 149.5,40.5C 146.159,42.1151 142.992,44.1151 140,46.5C 133.871,47.8234 127.704,48.8234 121.5,49.5C 120.653,48.0337 119.32,47.2004 117.5,47C 116.748,46.3292 116.414,45.4959 116.5,44.5C 116.833,44.5 117.167,44.5 117.5,44.5C 118.873,44.6567 120.207,44.49 121.5,44C 120.209,42.7083 120.209,41.5417 121.5,40.5C 124.779,44.1187 128.446,44.452 132.5,41.5C 134.727,40.5994 135.727,38.9328 135.5,36.5 Z"/></g>
<g><path style="opacity:1" fill="#393961" d="M 195.5,26.5 C 195.264,29.6085 195.597,32.6085 196.5,35.5C 196.285,44.5125 195.785,53.5125 195,62.5C 191.998,68.8874 187.831,74.2208 182.5,78.5C 180.5,78.5 178.5,78.5 176.5,78.5C 180.232,69.6362 183.565,60.6362 186.5,51.5C 189.035,47.0932 191.035,42.4266 192.5,37.5C 193.903,33.9339 194.903,30.2672 195.5,26.5 Z"/></g>
<g><path style="opacity:1" fill="#656dc0" d="M 213.5,42.5 C 213.833,42.5 214.167,42.5 214.5,42.5C 215.167,42.5 215.833,42.5 216.5,42.5C 218.01,43.8361 219.677,45.0027 221.5,46C 222.823,46.8159 223.489,47.9826 223.5,49.5C 219.5,48.8333 215.5,48.1667 211.5,47.5C 210.674,45.4515 211.341,43.7849 213.5,42.5 Z"/></g>
<g><path style="opacity:1" fill="#654c81" d="M 90.5,48.5 C 90.7845,50.4147 90.4511,52.0813 89.5,53.5C 89.5,52.5 89.5,51.5 89.5,50.5C 87.4352,50.4828 85.4352,50.1495 83.5,49.5C 85.5419,47.4094 87.8752,47.0761 90.5,48.5 Z"/></g>
<g><path style="opacity:1" fill="#5b69f2" d="M 173.5,26.5 C 174.675,26.281 175.675,26.6143 176.5,27.5C 174.989,29.8375 175.323,30.5042 177.5,29.5C 178.67,32.8177 178.67,36.151 177.5,39.5C 178.808,42.7302 179.808,46.0636 180.5,49.5C 181.333,48.5 182.167,47.5 183,46.5C 182.562,49.1986 182.728,51.8653 183.5,54.5C 184.971,53.6195 185.804,52.2861 186,50.5C 186.399,50.7284 186.565,51.0618 186.5,51.5C 183.565,60.6362 180.232,69.6362 176.5,78.5C 175.027,82.2508 173.36,85.9175 171.5,89.5C 170.371,87.3718 170.204,85.0385 171,82.5C 173.51,78.4291 175.343,74.0958 176.5,69.5C 176.148,68.2141 175.482,67.3808 174.5,67C 175.335,59.7942 175.668,52.6276 175.5,45.5C 174.282,45.891 173.448,45.2244 173,43.5C 172.333,44.1667 171.667,44.8333 171,45.5C 170.506,43.8659 170.34,42.1992 170.5,40.5C 170.5,40.1667 170.5,39.8333 170.5,39.5C 171.478,39.189 172.145,38.5223 172.5,37.5C 171.065,33.5745 171.398,29.9079 173.5,26.5 Z"/></g>
<g><path style="opacity:1" fill="#536570" d="M 63.5,22.5 C 63.3335,33.505 63.5002,44.505 64,55.5C 66.3176,61.0991 68.4842,66.7657 70.5,72.5C 69.8333,72.5 69.1667,72.5 68.5,72.5C 66.7549,70.9674 65.7549,68.9674 65.5,66.5C 64.7206,63.4553 63.3873,60.7886 61.5,58.5C 61.5569,57.391 61.8902,56.391 62.5,55.5C 62.1721,44.3206 62.5054,33.3206 63.5,22.5 Z"/></g>
<g><path style="opacity:1" fill="#4a5f74" d="M 70.5,36.5 C 73.4431,43.1704 75.2764,50.1704 76,57.5C 73.3465,52.0455 71.5132,46.3788 70.5,40.5C 70.5,39.1667 70.5,37.8333 70.5,36.5 Z"/></g>
<g><path style="opacity:1" fill="#6b27a0" d="M 83.5,49.5 C 85.4352,50.1495 87.4352,50.4828 89.5,50.5C 89.5,51.5 89.5,52.5 89.5,53.5C 88.5084,53.3284 87.8417,53.6618 87.5,54.5C 86.8333,54.5 86.1667,54.5 85.5,54.5C 84.8333,52.8333 84.1667,51.1667 83.5,49.5 Z"/></g>
<g><path style="opacity:1" fill="#32387d" d="M 213.5,42.5 C 211.341,43.7849 210.674,45.4515 211.5,47.5C 208.427,49.5691 206.094,52.2358 204.5,55.5C 204.167,55.5 203.833,55.5 203.5,55.5C 204.433,50.9665 206.433,46.9665 209.5,43.5C 210.736,42.7542 212.07,42.4208 213.5,42.5 Z"/></g>
<g><path style="opacity:1" fill="#d8b4a1" d="M 118.5,65.5 C 119.301,63.9582 119.634,62.2915 119.5,60.5C 120.5,60.5 121.5,60.5 122.5,60.5C 121.949,57.1933 121.616,53.8599 121.5,50.5C 124.434,51.2894 126.268,53.2894 127,56.5C 128.681,54.4518 130.181,52.2852 131.5,50C 139,49.59 145.833,47.4233 152,43.5C 153.356,44.3802 154.856,44.7135 156.5,44.5C 153.637,51.885 148.97,58.0517 142.5,63C 139.411,63.1475 136.578,63.9808 134,65.5C 130.915,63.9587 128.415,64.6254 126.5,67.5C 124.898,66.45 124.065,67.1167 124,69.5C 122.588,67.548 120.755,66.2147 118.5,65.5 Z"/></g>
<g><path style="opacity:1" fill="#3844b9" d="M 211.5,47.5 C 215.5,48.1667 219.5,48.8333 223.5,49.5C 223.489,51.0174 222.823,52.1841 221.5,53C 222.99,53.7455 223.99,54.9121 224.5,56.5C 225.607,59.904 226.774,63.2373 228,66.5C 228.333,64.1667 228.667,61.8333 229,59.5C 229.186,62.0356 229.686,64.369 230.5,66.5C 230.296,69.5176 229.963,72.5176 229.5,75.5C 228.677,77.9872 227.677,80.3206 226.5,82.5C 224.991,83.8595 224.324,83.3595 224.5,81C 224.645,79.7741 224.978,78.6074 225.5,77.5C 224.875,71.8542 224.208,66.1875 223.5,60.5C 222.28,60.8869 221.613,61.7202 221.5,63C 222.762,66.9785 222.762,70.8118 221.5,74.5C 220.82,70.8809 220.32,67.2142 220,63.5C 219.333,62.8333 218.667,62.1667 218,61.5C 217.667,63.1667 217.333,64.8333 217,66.5C 216.587,63.7679 215.92,61.1013 215,58.5C 214.952,61.3294 213.952,63.6627 212,65.5C 211.022,63.5249 209.689,61.8582 208,60.5C 207.228,60.6448 206.561,60.9781 206,61.5C 204.872,59.6547 204.372,57.6547 204.5,55.5C 206.094,52.2358 208.427,49.5691 211.5,47.5 Z"/></g>
<g><path style="opacity:1" fill="#6e7a7b" d="M 83.5,49.5 C 84.1667,51.1667 84.8333,52.8333 85.5,54.5C 85.5,55.1667 85.5,55.8333 85.5,56.5C 84.8826,56.3893 84.3826,56.056 84,55.5C 83.7216,56.4158 83.2216,57.0825 82.5,57.5C 81.5253,54.7129 81.8587,52.0462 83.5,49.5 Z"/></g>
<g><path style="opacity:1" fill="#484daa" d="M 223.5,49.5 C 227.091,52.3449 229.424,56.0116 230.5,60.5C 230.5,62.5 230.5,64.5 230.5,66.5C 229.686,64.369 229.186,62.0356 229,59.5C 228.667,61.8333 228.333,64.1667 228,66.5C 226.774,63.2373 225.607,59.904 224.5,56.5C 223.99,54.9121 222.99,53.7455 221.5,53C 222.823,52.1841 223.489,51.0174 223.5,49.5 Z"/></g>
<g><path style="opacity:1" fill="#af9da3" d="M 59.5,52.5 C 60.1001,53.9002 61.1001,54.9002 62.5,55.5C 61.8902,56.391 61.5569,57.391 61.5,58.5C 60.6942,59.9972 60.0276,61.6639 59.5,63.5C 60.4709,64.9621 60.1376,66.2954 58.5,67.5C 58.7093,68.086 59.0426,68.586 59.5,69C 58.7042,73.2673 58.0375,77.6006 57.5,82C 57.8646,84.2605 58.5313,86.4272 59.5,88.5C 59.1667,89.8333 58.8333,91.1667 58.5,92.5C 59.9468,99.7422 60.7801,107.076 61,114.5C 63.6301,122.447 66.2968,130.447 69,138.5C 70.7073,140.037 72.2073,141.704 73.5,143.5C 70.8333,143.5 68.1667,143.5 65.5,143.5C 64.1819,136.377 62.3486,129.377 60,122.5C 57.8333,119.667 55.6667,116.833 53.5,114C 53.1897,109.403 53.1897,105.07 53.5,101C 51.6992,100.683 51.3659,100.016 52.5,99C 50.6316,98.101 49.6316,96.601 49.5,94.5C 49.3148,90.5401 49.9815,86.5401 51.5,82.5C 50.5765,80.8715 50.2432,79.3715 50.5,78C 52.3261,73.1258 53.6594,68.2925 54.5,63.5C 53.6527,61.939 53.9861,60.439 55.5,59C 55.1667,58.6667 54.8333,58.3333 54.5,58C 56.3003,56.1881 57.9669,54.3548 59.5,52.5 Z"/></g>
<g><path style="opacity:1" fill="#5a392b" d="M 104.5,47.5 C 102.109,48.9823 99.7759,50.6489 97.5,52.5C 96.8826,52.6107 96.3826,52.944 96,53.5C 95.5034,55.8098 95.3367,58.1432 95.5,60.5C 94.1779,60.33 93.0113,60.6634 92,61.5C 89.9906,59.478 88.4906,57.1446 87.5,54.5C 88.8734,54.6567 90.2068,54.49 91.5,54C 94.8117,49.8692 99.1451,47.7026 104.5,47.5 Z"/></g>
<g><path style="opacity:1" fill="#746579" d="M 63.5,-0.5 C 64.5,-0.5 65.5,-0.5 66.5,-0.5C 64.23,4.97797 62.5633,10.6446 61.5,16.5C 59.1867,17.3917 58.8534,16.5584 60.5,14C 60.1501,12.7425 59.4835,12.4092 58.5,13C 58.8333,13.3333 59.1667,13.6667 59.5,14C 54.6438,19.8542 49.4771,25.3542 44,30.5C 40.1881,41.8124 38.0214,52.979 37.5,64C 33.2128,71.1022 30.5461,78.7689 29.5,87C 29.6938,88.4299 29.6938,89.9299 29.5,91.5C 32.9466,105.507 37.4466,119.174 43,132.5C 44.1667,133.667 45.3333,134.833 46.5,136C 45.2982,138.181 45.2982,140.681 46.5,143.5C 43.8333,143.5 41.1667,143.5 38.5,143.5C 38.0388,141.45 37.3721,139.45 36.5,137.5C 38.6878,135.245 38.3545,133.078 35.5,131C 35.9574,130.586 36.2907,130.086 36.5,129.5C 31.138,117.32 25.8047,104.82 20.5,92C 20.0644,84.2997 22.3978,77.2997 27.5,71C 29.8833,70.935 30.55,70.1017 29.5,68.5C 30.0689,64.7761 31.2356,61.1095 33,57.5C 33.574,46.4618 35.4074,35.9618 38.5,26C 39.6699,24.4134 40.6699,22.7467 41.5,21C 44.1494,20.5477 46.6494,19.7143 49,18.5C 53.3889,11.6697 58.2223,5.3364 63.5,-0.5 Z"/></g>
<g><path style="opacity:1" fill="#e3b699" d="M 116.5,44.5 C 116.414,45.4959 116.748,46.3292 117.5,47C 119.32,47.2004 120.653,48.0337 121.5,49.5C 121.5,49.8333 121.5,50.1667 121.5,50.5C 121.616,53.8599 121.949,57.1933 122.5,60.5C 121.5,60.5 120.5,60.5 119.5,60.5C 119.634,62.2915 119.301,63.9582 118.5,65.5C 117.624,65.3691 116.957,65.7025 116.5,66.5C 117.423,68.9242 118.923,70.9242 121,72.5C 121.49,73.7932 121.657,75.1266 121.5,76.5C 120.167,77.8333 118.833,77.8333 117.5,76.5C 117.5,75.8333 117.5,75.1667 117.5,74.5C 116.989,68.8121 113.989,64.9788 108.5,63C 106.444,62.6892 104.444,62.1892 102.5,61.5C 100.984,62.8038 100.318,62.3038 100.5,60C 102.223,52.1534 105.889,51.3201 111.5,57.5C 111.833,57.1667 112.167,56.8333 112.5,56.5C 113.151,52.5158 113.151,48.5158 112.5,44.5C 113.705,43.3143 115.039,43.3143 116.5,44.5 Z"/></g>
<g><path style="opacity:1" fill="#47606b" d="M 247.5,37.5 C 248.364,43.3769 249.364,49.3769 250.5,55.5C 250.042,60.5139 249.709,65.5139 249.5,70.5C 247.914,68.8273 247.247,66.8273 247.5,64.5C 245.61,64.7035 244.11,64.0368 243,62.5C 242.667,62.8333 242.333,63.1667 242,63.5C 241.826,68.3514 241.326,73.0181 240.5,77.5C 240.872,70.6993 240.206,64.0326 238.5,57.5C 238.81,56.2617 239.31,56.2617 240,57.5C 240.333,56.5 240.667,55.5 241,54.5C 243,55.8333 245,55.8333 247,54.5C 247.499,48.8431 247.666,43.1764 247.5,37.5 Z"/></g>
<g><path style="opacity:1" fill="#a5c6c6" d="M 85.5,56.5 C 85.8938,57.9672 86.2272,59.4672 86.5,61C 85.4599,63.7372 84.7933,66.5705 84.5,69.5C 85.0898,73.0373 85.0898,76.3706 84.5,79.5C 84.0133,78.5266 83.5133,77.5266 83,76.5C 82.5005,70.1754 82.3338,63.8421 82.5,57.5C 83.2216,57.0825 83.7216,56.4158 84,55.5C 84.3826,56.056 84.8826,56.3893 85.5,56.5 Z"/></g>
<g><path style="opacity:1" fill="#868a9c" d="M 164.5,51.5 C 164.665,54.8499 164.498,58.1832 164,61.5C 163,60.1667 162,60.1667 161,61.5C 160.51,62.7932 160.343,64.1266 160.5,65.5C 159.5,65.5 158.5,65.5 157.5,65.5C 157.167,65.5 156.833,65.5 156.5,65.5C 158.24,60.2526 160.907,55.5859 164.5,51.5 Z"/></g>
<g><path style="opacity:1" fill="#54568b" d="M 166.5,48.5 C 166.052,52.9905 165.719,57.4905 165.5,62C 164.184,63.6587 162.518,64.8254 160.5,65.5C 160.343,64.1266 160.51,62.7932 161,61.5C 162,60.1667 163,60.1667 164,61.5C 164.498,58.1832 164.665,54.8499 164.5,51.5C 164.932,50.2905 165.599,49.2905 166.5,48.5 Z"/></g>
<g><path style="opacity:1" fill="#7d88a5" d="M 230.5,60.5 C 231.162,62.3035 231.495,64.3035 231.5,66.5C 231.657,69.8136 230.991,72.8136 229.5,75.5C 229.963,72.5176 230.296,69.5176 230.5,66.5C 230.5,64.5 230.5,62.5 230.5,60.5 Z"/></g>
<g><path style="opacity:1" fill="#d09875" d="M 112.5,44.5 C 113.151,48.5158 113.151,52.5158 112.5,56.5C 112.167,56.8333 111.833,57.1667 111.5,57.5C 105.889,51.3201 102.223,52.1534 100.5,60C 100.318,62.3038 100.984,62.8038 102.5,61.5C 104.444,62.1892 106.444,62.6892 108.5,63C 113.989,64.9788 116.989,68.8121 117.5,74.5C 115.901,74.7678 114.568,74.4345 113.5,73.5C 117.193,72.7529 117.193,71.4196 113.5,69.5C 108.388,68.5763 103.388,67.5763 98.5,66.5C 98.5792,67.9305 98.2458,69.2638 97.5,70.5C 102.534,71.9152 107.534,72.9152 112.5,73.5C 109.941,73.1984 107.607,73.5318 105.5,74.5C 103.599,74.4332 101.766,74.7665 100,75.5C 98.1084,75.2231 96.7751,74.2231 96,72.5C 95.5357,73.0944 95.369,73.7611 95.5,74.5C 94.06,70.735 94.56,67.0683 97,63.5C 97.4986,59.8484 97.6653,56.1817 97.5,52.5C 99.7759,50.6489 102.109,48.9823 104.5,47.5C 106.96,46.0634 109.626,45.0634 112.5,44.5 Z"/></g>
<g><path style="opacity:1" fill="#f2c1a0" d="M 113.5,73.5 C 113.167,73.5 112.833,73.5 112.5,73.5C 107.534,72.9152 102.534,71.9152 97.5,70.5C 98.2458,69.2638 98.5792,67.9305 98.5,66.5C 103.388,67.5763 108.388,68.5763 113.5,69.5C 117.193,71.4196 117.193,72.7529 113.5,73.5 Z"/></g>
<g><path style="opacity:1" fill="#8b736f" d="M 159.5,36.5 C 160.791,36.2627 161.791,36.596 162.5,37.5C 162.881,42.1805 161.881,46.5138 159.5,50.5C 152.633,61.3712 144.633,71.3712 135.5,80.5C 138.173,74.5076 142.007,69.1742 147,64.5C 152.957,57.082 157.457,48.9153 160.5,40C 160.352,38.7441 160.018,37.5774 159.5,36.5 Z"/></g>
<g><path style="opacity:1" fill="#243338" d="M 233.5,-0.5 C 236.167,-0.5 238.833,-0.5 241.5,-0.5C 244.482,7.08546 247.316,14.7521 250,22.5C 250.521,29.9749 252.354,36.9749 255.5,43.5C 255.5,60.5 255.5,77.5 255.5,94.5C 249.099,95.5929 243.099,97.5929 237.5,100.5C 235.94,100.519 234.44,100.852 233,101.5C 231.97,101.164 231.47,100.497 231.5,99.5C 235.05,92.3986 238.05,85.0653 240.5,77.5C 241.326,73.0181 241.826,68.3514 242,63.5C 242.333,63.1667 242.667,62.8333 243,62.5C 244.11,64.0368 245.61,64.7035 247.5,64.5C 247.247,66.8273 247.914,68.8273 249.5,70.5C 249.709,65.5139 250.042,60.5139 250.5,55.5C 249.364,49.3769 248.364,43.3769 247.5,37.5C 247.999,28.5188 246.665,19.8521 243.5,11.5C 241.945,8.06041 240.112,4.72707 238,1.5C 237.751,2.62402 237.251,3.62402 236.5,4.5C 234.949,3.19956 233.949,1.53289 233.5,-0.5 Z"/></g>
<g><path style="opacity:1" fill="#c5a291" d="M 158.5,32.5 C 159.434,33.5676 159.768,34.901 159.5,36.5C 160.018,37.5774 160.352,38.7441 160.5,40C 157.457,48.9153 152.957,57.082 147,64.5C 142.007,69.1742 138.173,74.5076 135.5,80.5C 133.607,85.5113 131.941,90.5113 130.5,95.5C 128.492,93.9174 126.159,92.9174 123.5,92.5C 125.199,92.6602 126.866,92.4935 128.5,92C 128.167,91.6667 127.833,91.3333 127.5,91C 128.981,90.0197 130.315,88.853 131.5,87.5C 129.949,84.641 128.949,81.641 128.5,78.5C 125.892,78.5997 123.558,77.9331 121.5,76.5C 121.657,75.1266 121.49,73.7932 121,72.5C 118.923,70.9242 117.423,68.9242 116.5,66.5C 116.957,65.7025 117.624,65.3691 118.5,65.5C 120.755,66.2147 122.588,67.548 124,69.5C 124.065,67.1167 124.898,66.45 126.5,67.5C 128.415,64.6254 130.915,63.9587 134,65.5C 136.578,63.9808 139.411,63.1475 142.5,63C 148.97,58.0517 153.637,51.885 156.5,44.5C 154.856,44.7135 153.356,44.3802 152,43.5C 145.833,47.4233 139,49.59 131.5,50C 130.181,52.2852 128.681,54.4518 127,56.5C 126.268,53.2894 124.434,51.2894 121.5,50.5C 121.5,50.1667 121.5,49.8333 121.5,49.5C 127.704,48.8234 133.871,47.8234 140,46.5C 142.992,44.1151 146.159,42.1151 149.5,40.5C 150.386,39.675 150.719,38.675 150.5,37.5C 152.53,34.818 155.197,33.1514 158.5,32.5 Z"/></g>
<g><path style="opacity:1" fill="#374c86" d="M 213.5,75.5 C 213.378,79.8383 213.045,80.1716 212.5,76.5C 211.209,76.2627 210.209,76.596 209.5,77.5C 207.621,76.1032 205.954,74.4365 204.5,72.5C 204.5,72.1667 204.5,71.8333 204.5,71.5C 205.999,70.3218 206.999,68.6551 207.5,66.5C 209.388,68.7938 210.722,71.4605 211.5,74.5C 211.957,75.2975 212.624,75.6309 213.5,75.5 Z"/></g>
<g><path style="opacity:1" fill="#32419b" d="M 203.5,55.5 C 203.833,55.5 204.167,55.5 204.5,55.5C 204.372,57.6547 204.872,59.6547 206,61.5C 206.561,60.9781 207.228,60.6448 208,60.5C 209.689,61.8582 211.022,63.5249 212,65.5C 213.952,63.6627 214.952,61.3294 215,58.5C 215.92,61.1013 216.587,63.7679 217,66.5C 217.333,64.8333 217.667,63.1667 218,61.5C 218.667,62.1667 219.333,62.8333 220,63.5C 220.32,67.2142 220.82,70.8809 221.5,74.5C 220.833,78.1667 220.167,81.8333 219.5,85.5C 219.854,81.3628 219.354,77.3628 218,73.5C 217.667,73.1667 217.333,72.8333 217,72.5C 216.015,73.8141 214.848,74.8141 213.5,75.5C 212.624,75.6309 211.957,75.2975 211.5,74.5C 210.722,71.4605 209.388,68.7938 207.5,66.5C 206.999,68.6551 205.999,70.3218 204.5,71.5C 203.001,69.1464 201.667,66.6464 200.5,64C 201.367,61.1042 202.367,58.2709 203.5,55.5 Z"/></g>
<g><path style="opacity:1" fill="#252946" d="M 156.5,65.5 C 156.833,65.5 157.167,65.5 157.5,65.5C 155.416,69.3359 153.083,73.0026 150.5,76.5C 146.006,79.6499 142.672,83.6499 140.5,88.5C 138.825,91.8884 137.658,95.555 137,99.5C 136.617,100.056 136.117,100.389 135.5,100.5C 135.966,95.3339 137.133,90.3339 139,85.5C 145.086,78.9486 150.92,72.2819 156.5,65.5 Z"/></g>
<g><path style="opacity:1" fill="#62546b" d="M 54.5,-0.5 C 55.5,-0.5 56.5,-0.5 57.5,-0.5C 54.6942,4.86168 51.5275,10.195 48,15.5C 45.3245,18.6734 42.1578,19.6734 38.5,18.5C 35.5693,23.7457 32.9026,29.2457 30.5,35C 31.1667,35.6667 31.8333,36.3333 32.5,37C 31.1667,38 31.1667,39 32.5,40C 30.5663,41.7287 30.5663,43.7287 32.5,46C 30.4146,48.8365 30.0813,51.8365 31.5,55C 29.6992,55.3173 29.3659,55.984 30.5,57C 29.1062,61.0717 27.9395,65.2384 27,69.5C 25.4369,71.9848 23.7702,73.6515 22,74.5C 20.5108,79.1886 19.3441,83.6886 18.5,88C 20.4396,100.752 25.1062,113.085 32.5,125C 32.0426,125.414 31.7093,125.914 31.5,126.5C 32.5627,131.898 33.5627,137.565 34.5,143.5C 33.5,143.5 32.5,143.5 31.5,143.5C 31.0712,140.214 31.0712,137.047 31.5,134C 29.9278,131.962 28.9278,129.629 28.5,127C 28.8333,126.667 29.1667,126.333 29.5,126C 25.972,123.435 24.3054,120.268 24.5,116.5C 20.4912,110.331 17.1579,103.831 14.5,97C 13.8847,89.2306 13.8847,81.2306 14.5,73C 18.2699,68.7936 21.2699,64.4603 23.5,60C 22.6964,55.557 22.8631,51.057 24,46.5C 27.5842,36.4944 31.9176,26.8277 37,17.5C 38.3988,16.7734 39.8988,16.2734 41.5,16C 46.4316,10.9314 50.765,5.43141 54.5,-0.5 Z"/></g>
<g><path style="opacity:1" fill="#55534a" d="M 85.5,54.5 C 86.1667,54.5 86.8333,54.5 87.5,54.5C 88.4906,57.1446 89.9906,59.478 92,61.5C 93.0113,60.6634 94.1779,60.33 95.5,60.5C 94.5081,63.8221 93.5081,67.1555 92.5,70.5C 94.2492,74.9955 96.2492,79.3288 98.5,83.5C 97.8826,83.6107 97.3826,83.944 97,84.5C 95.0751,80.8315 93.4085,80.8315 92,84.5C 90.8063,82.3766 90.1397,80.0432 90,77.5C 88.324,76.9389 86.9906,75.9389 86,74.5C 85.5149,69.9191 86.0149,65.4191 87.5,61C 87.4313,59.0145 86.7647,57.5145 85.5,56.5C 85.5,55.8333 85.5,55.1667 85.5,54.5 Z"/></g>
<g><path style="opacity:1" fill="#181d4a" d="M 210.5,39.5 C 212.23,40.0256 213.564,41.0256 214.5,42.5C 214.167,42.5 213.833,42.5 213.5,42.5C 212.07,42.4208 210.736,42.7542 209.5,43.5C 206.433,46.9665 204.433,50.9665 203.5,55.5C 202.367,58.2709 201.367,61.1042 200.5,64C 201.667,66.6464 203.001,69.1464 204.5,71.5C 204.5,71.8333 204.5,72.1667 204.5,72.5C 205.262,74.9564 205.929,77.4564 206.5,80C 206.316,81.3756 205.649,82.2089 204.5,82.5C 202.287,83.6053 200.12,83.6053 198,82.5C 198.23,73.4816 198.063,64.4816 197.5,55.5C 197.606,52.0667 198.773,49.0667 201,46.5C 201.423,47.9561 202.256,48.4561 203.5,48C 205.748,45.0356 208.081,42.2023 210.5,39.5 Z"/></g>
<g><path style="opacity:1" fill="#34489d" d="M 226.5,82.5 C 226.107,84.2838 225.441,85.9505 224.5,87.5C 223.265,87.7214 222.265,88.3881 221.5,89.5C 221.167,89.1667 220.833,88.8333 220.5,88.5C 222.756,84.0102 223.089,79.3435 221.5,74.5C 222.762,70.8118 222.762,66.9785 221.5,63C 221.613,61.7202 222.28,60.8869 223.5,60.5C 224.208,66.1875 224.875,71.8542 225.5,77.5C 224.978,78.6074 224.645,79.7741 224.5,81C 224.324,83.3595 224.991,83.8595 226.5,82.5 Z"/></g>
<g><path style="opacity:1" fill="#6a5a71" d="M 57.5,-0.5 C 59.5,-0.5 61.5,-0.5 63.5,-0.5C 58.2223,5.3364 53.3889,11.6697 49,18.5C 46.6494,19.7143 44.1494,20.5477 41.5,21C 40.6699,22.7467 39.6699,24.4134 38.5,26C 35.4074,35.9618 33.574,46.4618 33,57.5C 31.2356,61.1095 30.0689,64.7761 29.5,68.5C 30.55,70.1017 29.8833,70.935 27.5,71C 22.3978,77.2997 20.0644,84.2997 20.5,92C 25.8047,104.82 31.138,117.32 36.5,129.5C 36.2907,130.086 35.9574,130.586 35.5,131C 38.3545,133.078 38.6878,135.245 36.5,137.5C 37.3721,139.45 38.0388,141.45 38.5,143.5C 37.1667,143.5 35.8333,143.5 34.5,143.5C 33.5627,137.565 32.5627,131.898 31.5,126.5C 31.7093,125.914 32.0426,125.414 32.5,125C 25.1062,113.085 20.4396,100.752 18.5,88C 19.3441,83.6886 20.5108,79.1886 22,74.5C 23.7702,73.6515 25.4369,71.9848 27,69.5C 27.9395,65.2384 29.1062,61.0717 30.5,57C 29.3659,55.984 29.6992,55.3173 31.5,55C 30.0813,51.8365 30.4146,48.8365 32.5,46C 30.5663,43.7287 30.5663,41.7287 32.5,40C 31.1667,39 31.1667,38 32.5,37C 31.8333,36.3333 31.1667,35.6667 30.5,35C 32.9026,29.2457 35.5693,23.7457 38.5,18.5C 42.1578,19.6734 45.3245,18.6734 48,15.5C 51.5275,10.195 54.6942,4.86168 57.5,-0.5 Z"/></g>
<g><path style="opacity:1" fill="#b28874" d="M 105.5,74.5 C 107.607,73.5318 109.941,73.1984 112.5,73.5C 112.833,73.5 113.167,73.5 113.5,73.5C 114.568,74.4345 115.901,74.7678 117.5,74.5C 117.5,75.1667 117.5,75.8333 117.5,76.5C 117.579,77.9305 117.246,79.2638 116.5,80.5C 113.5,81.0061 111.167,82.5061 109.5,85C 111.123,86.8763 110.79,88.2096 108.5,89C 110.382,89.1981 112.048,89.6981 113.5,90.5C 109.785,90.423 106.119,90.7564 102.5,91.5C 102.34,89.8008 102.506,88.1341 103,86.5C 106.953,84.0543 110.786,81.3876 114.5,78.5C 112.455,75.2544 109.455,73.9211 105.5,74.5 Z"/></g>
<g><path style="opacity:1" fill="#d9b7a5" d="M 117.5,76.5 C 118.833,77.8333 120.167,77.8333 121.5,76.5C 123.558,77.9331 125.892,78.5997 128.5,78.5C 128.949,81.641 129.949,84.641 131.5,87.5C 130.315,88.853 128.981,90.0197 127.5,91C 127.833,91.3333 128.167,91.6667 128.5,92C 126.866,92.4935 125.199,92.6602 123.5,92.5C 120.027,92.4242 116.694,91.7576 113.5,90.5C 112.048,89.6981 110.382,89.1981 108.5,89C 110.79,88.2096 111.123,86.8763 109.5,85C 111.167,82.5061 113.5,81.0061 116.5,80.5C 117.246,79.2638 117.579,77.9305 117.5,76.5 Z"/></g>
<g><path style="opacity:1" fill="#507491" d="M 219.5,85.5 C 218.432,86.4345 217.099,86.7678 215.5,86.5C 212.993,85.4771 210.827,86.1438 209,88.5C 207.087,84.5571 207.253,80.8904 209.5,77.5C 210.209,76.596 211.209,76.2627 212.5,76.5C 213.045,80.1716 213.378,79.8383 213.5,75.5C 214.848,74.8141 216.015,73.8141 217,72.5C 217.333,72.8333 217.667,73.1667 218,73.5C 219.354,77.3628 219.854,81.3628 219.5,85.5 Z"/></g>
<g><path style="opacity:1" fill="#616a64" d="M 85.5,56.5 C 86.7647,57.5145 87.4313,59.0145 87.5,61C 86.0149,65.4191 85.5149,69.9191 86,74.5C 86.9906,75.9389 88.324,76.9389 90,77.5C 90.1397,80.0432 90.8063,82.3766 92,84.5C 93.4085,80.8315 95.0751,80.8315 97,84.5C 97.3826,83.944 97.8826,83.6107 98.5,83.5C 96.166,93.332 93.3326,93.6653 90,84.5C 89,83.5 88,82.5 87,81.5C 86.5357,82.0944 86.369,82.7611 86.5,83.5C 85.3263,82.4863 84.6596,81.153 84.5,79.5C 85.0898,76.3706 85.0898,73.0373 84.5,69.5C 84.7933,66.5705 85.4599,63.7372 86.5,61C 86.2272,59.4672 85.8938,57.9672 85.5,56.5 Z"/></g>
<g><path style="opacity:1" fill="#815541" d="M 105.5,74.5 C 109.455,73.9211 112.455,75.2544 114.5,78.5C 110.786,81.3876 106.953,84.0543 103,86.5C 102.506,88.1341 102.34,89.8008 102.5,91.5C 102.167,91.5 101.833,91.5 101.5,91.5C 101.681,88.447 101.848,85.447 102,82.5C 99.2415,80.2488 97.0748,77.5821 95.5,74.5C 95.369,73.7611 95.5357,73.0944 96,72.5C 96.7751,74.2231 98.1084,75.2231 100,75.5C 101.766,74.7665 103.599,74.4332 105.5,74.5 Z"/></g>
<g><path style="opacity:1" fill="#92b1ae" d="M 97.5,52.5 C 97.6653,56.1817 97.4986,59.8484 97,63.5C 94.56,67.0683 94.06,70.735 95.5,74.5C 97.0748,77.5821 99.2415,80.2488 102,82.5C 101.848,85.447 101.681,88.447 101.5,91.5C 100.037,96.1116 101.037,100.112 104.5,103.5C 104.156,110.142 105.823,116.142 109.5,121.5C 109.376,122.107 109.043,122.44 108.5,122.5C 105.493,118.489 102.993,114.155 101,109.5C 99.187,108.391 98.3537,109.058 98.5,111.5C 98.7678,113.099 98.4345,114.432 97.5,115.5C 97.2601,112.421 97.5934,109.421 98.5,106.5C 96.8213,103.723 95.1546,101.056 93.5,98.5C 91.6208,93.2877 89.2875,88.2877 86.5,83.5C 86.369,82.7611 86.5357,82.0944 87,81.5C 88,82.5 89,83.5 90,84.5C 93.3326,93.6653 96.166,93.332 98.5,83.5C 96.2492,79.3288 94.2492,74.9955 92.5,70.5C 93.5081,67.1555 94.5081,63.8221 95.5,60.5C 95.3367,58.1432 95.5034,55.8098 96,53.5C 96.3826,52.944 96.8826,52.6107 97.5,52.5 Z"/></g>
<g><path style="opacity:1" fill="#d0e6ed" d="M 168.5,42.5 C 168.029,44.5786 167.363,46.5786 166.5,48.5C 165.599,49.2905 164.932,50.2905 164.5,51.5C 160.907,55.5859 158.24,60.2526 156.5,65.5C 150.92,72.2819 145.086,78.9486 139,85.5C 137.133,90.3339 135.966,95.3339 135.5,100.5C 133.054,105.421 132.054,110.755 132.5,116.5C 131.672,122.653 131.172,128.987 131,135.5C 130.722,134.584 130.222,133.918 129.5,133.5C 129.5,133.167 129.5,132.833 129.5,132.5C 129.5,123.833 129.5,115.167 129.5,106.5C 129.253,103.061 129.586,99.728 130.5,96.5C 130.5,96.1667 130.5,95.8333 130.5,95.5C 131.941,90.5113 133.607,85.5113 135.5,80.5C 144.633,71.3712 152.633,61.3712 159.5,50.5C 160.965,49.5943 161.965,48.261 162.5,46.5C 163.689,45.5713 165.022,45.238 166.5,45.5C 166.351,44.448 166.517,43.448 167,42.5C 167.69,41.2617 168.19,41.2617 168.5,42.5 Z"/></g>
<g><path style="opacity:1" fill="#c9b6b6" d="M 65.5,66.5 C 65.7549,68.9674 66.7549,70.9674 68.5,72.5C 68.533,80.3113 70.8663,87.3113 75.5,93.5C 76.3857,92.675 76.719,91.675 76.5,90.5C 77.9063,90.9731 78.573,91.9731 78.5,93.5C 78.7709,95.3797 78.1042,96.713 76.5,97.5C 75.1154,96.4264 73.9487,95.0931 73,93.5C 72.8333,94.5 72.6667,95.5 72.5,96.5C 73.6046,98.9674 73.6046,101.134 72.5,103C 74.2464,105.374 74.5798,107.874 73.5,110.5C 76.5884,120.361 81.9218,128.694 89.5,135.5C 89.5,138.167 89.5,140.833 89.5,143.5C 86.5,143.5 83.5,143.5 80.5,143.5C 80.33,142.178 80.6634,141.011 81.5,140C 80.2341,139.691 79.0674,139.191 78,138.5C 74.4924,134.149 71.4924,129.483 69,124.5C 67.4071,118.337 65.9071,112.171 64.5,106C 65.3696,101.432 65.703,96.4321 65.5,91C 64.6233,88.0852 63.9566,85.0852 63.5,82C 64.0434,76.672 64.7101,71.5053 65.5,66.5 Z"/></g>
<g><path style="opacity:1" fill="#95504e" d="M 113.5,90.5 C 116.694,91.7576 120.027,92.4242 123.5,92.5C 126.159,92.9174 128.492,93.9174 130.5,95.5C 130.5,95.8333 130.5,96.1667 130.5,96.5C 129.5,96.5 128.5,96.5 127.5,96.5C 127.167,96.5 126.833,96.5 126.5,96.5C 126.389,95.8826 126.056,95.3826 125.5,95C 118.5,94.6667 111.5,94.3333 104.5,94C 103.619,93.2917 102.953,92.4584 102.5,91.5C 106.119,90.7564 109.785,90.423 113.5,90.5 Z"/></g>
<g><path style="opacity:1" fill="#454f8a" d="M 221.5,74.5 C 223.089,79.3435 222.756,84.0102 220.5,88.5C 220.833,88.8333 221.167,89.1667 221.5,89.5C 222.265,88.3881 223.265,87.7214 224.5,87.5C 223.428,90.6297 221.594,93.2964 219,95.5C 218.027,97.3921 217.36,99.3921 217,101.5C 213.918,104.076 211.418,107.076 209.5,110.5C 203.871,114.794 198.537,119.461 193.5,124.5C 198.774,117.698 204.94,111.031 212,104.5C 213.586,102.33 214.92,99.9962 216,97.5C 216.78,95.6131 216.613,93.9464 215.5,92.5C 214.258,90.6112 214.258,88.6112 215.5,86.5C 217.099,86.7678 218.432,86.4345 219.5,85.5C 220.167,81.8333 220.833,78.1667 221.5,74.5 Z"/></g>
<g><path style="opacity:1" fill="#cadfe5" d="M 68.5,72.5 C 69.1667,72.5 69.8333,72.5 70.5,72.5C 71.5759,78.802 73.5759,84.802 76.5,90.5C 76.719,91.675 76.3857,92.675 75.5,93.5C 70.8663,87.3113 68.533,80.3113 68.5,72.5 Z"/></g>
<g><path style="opacity:1" fill="#33529d" d="M 150.5,76.5 C 148.787,78.9074 147.453,81.574 146.5,84.5C 147.693,89.5138 147.36,94.5138 145.5,99.5C 145.482,101.373 145.982,101.706 147,100.5C 147.5,101 148,101.5 148.5,102C 147.269,103.183 147.269,104.349 148.5,105.5C 155.612,98.8641 156.279,99.6974 150.5,108C 151.102,109.563 151.935,109.396 153,107.5C 153.167,108.167 153.333,108.833 153.5,109.5C 152.612,111.155 152.112,112.822 152,114.5C 153,113.833 154,113.167 155,112.5C 158.032,107.48 161.032,102.48 164,97.5C 164.494,99.1341 164.66,100.801 164.5,102.5C 164.296,104.685 163.63,106.685 162.5,108.5C 160.161,112.357 157.994,116.357 156,120.5C 154.729,121.883 153.229,122.883 151.5,123.5C 149.194,123.993 146.861,124.326 144.5,124.5C 143.319,122.933 141.653,122.099 139.5,122C 141.332,120.511 142.165,118.678 142,116.5C 140.005,118.829 138.838,118.162 138.5,114.5C 140.125,110.921 141.458,107.255 142.5,103.5C 141.958,100.122 141.291,96.789 140.5,93.5C 140.5,91.8333 140.5,90.1667 140.5,88.5C 142.672,83.6499 146.006,79.6499 150.5,76.5 Z"/></g>
<g><path style="opacity:1" fill="#827283" d="M 61.5,16.5 C 60.5778,20.1119 59.9111,23.7785 59.5,27.5C 58.596,26.791 58.2627,25.791 58.5,24.5C 56.3043,24.5652 54.3043,25.2319 52.5,26.5C 46.9543,33.863 44.621,42.0297 45.5,51C 43.6407,56.3115 42.4741,61.8115 42,67.5C 38.6839,72.772 37.0172,78.4387 37,84.5C 39.603,86.4362 41.4363,88.9362 42.5,92C 40.2684,94.1182 38.6017,96.6182 37.5,99.5C 39.5664,106.42 41.8998,113.587 44.5,121C 44.1667,121.333 43.8333,121.667 43.5,122C 44.7717,123.307 45.7717,124.807 46.5,126.5C 47.7362,127.246 49.0695,127.579 50.5,127.5C 50.4553,131.578 52.122,134.744 55.5,137C 56.2865,139.099 56.6199,141.266 56.5,143.5C 53.1667,143.5 49.8333,143.5 46.5,143.5C 45.2982,140.681 45.2982,138.181 46.5,136C 45.3333,134.833 44.1667,133.667 43,132.5C 37.4466,119.174 32.9466,105.507 29.5,91.5C 29.6938,89.9299 29.6938,88.4299 29.5,87C 30.5461,78.7689 33.2128,71.1022 37.5,64C 38.0214,52.979 40.1881,41.8124 44,30.5C 49.4771,25.3542 54.6438,19.8542 59.5,14C 59.1667,13.6667 58.8333,13.3333 58.5,13C 59.4835,12.4092 60.1501,12.7425 60.5,14C 58.8534,16.5584 59.1867,17.3917 61.5,16.5 Z"/></g>
<g><path style="opacity:1" fill="#796252" d="M 178.5,109.5 C 178.699,106.059 178.199,102.726 177,99.5C 176.586,99.0426 176.086,98.7093 175.5,98.5C 174.095,99.9937 172.429,100.994 170.5,101.5C 173.446,94.2743 176.946,87.2743 181,80.5C 181.475,86.9221 182.975,93.0887 185.5,99C 184.146,103.181 181.812,106.681 178.5,109.5 Z"/></g>
<g><path style="opacity:1" fill="#3d4c5e" d="M 204.5,72.5 C 205.954,74.4365 207.621,76.1032 209.5,77.5C 207.253,80.8904 207.087,84.5571 209,88.5C 210.827,86.1438 212.993,85.4771 215.5,86.5C 214.258,88.6112 214.258,90.6112 215.5,92.5C 213.662,97.6654 210.662,101.999 206.5,105.5C 207.004,101.493 207.17,97.4934 207,93.5C 205.989,94.3366 204.822,94.67 203.5,94.5C 203.664,97.1873 203.497,99.854 203,102.5C 202.617,101.944 202.117,101.611 201.5,101.5C 200.427,100.749 200.26,99.7494 201,98.5C 201.333,98.8333 201.667,99.1667 202,99.5C 202.272,96.7462 202.772,94.0795 203.5,91.5C 202.129,88.3435 202.462,85.3435 204.5,82.5C 205.649,82.2089 206.316,81.3756 206.5,80C 205.929,77.4564 205.262,74.9564 204.5,72.5 Z"/></g>
<g><path style="opacity:1" fill="#91808e" d="M 59.5,27.5 C 59.5,28.8333 59.5,30.1667 59.5,31.5C 58.6745,35.9819 58.1745,40.6486 58,45.5C 57.586,45.0426 57.086,44.7093 56.5,44.5C 55.147,45.6853 53.9803,47.0186 53,48.5C 50.9215,59.09 47.7548,69.59 43.5,80C 44.3998,83.5323 45.3998,87.0323 46.5,90.5C 45.7721,93.9122 45.6054,97.5788 46,101.5C 49.4245,107.384 50.2578,113.384 48.5,119.5C 49.7613,122.82 51.428,123.154 53.5,120.5C 57.4764,127.759 60.4764,135.425 62.5,143.5C 60.5,143.5 58.5,143.5 56.5,143.5C 56.6199,141.266 56.2865,139.099 55.5,137C 52.122,134.744 50.4553,131.578 50.5,127.5C 49.0695,127.579 47.7362,127.246 46.5,126.5C 45.7717,124.807 44.7717,123.307 43.5,122C 43.8333,121.667 44.1667,121.333 44.5,121C 41.8998,113.587 39.5664,106.42 37.5,99.5C 38.6017,96.6182 40.2684,94.1182 42.5,92C 41.4363,88.9362 39.603,86.4362 37,84.5C 37.0172,78.4387 38.6839,72.772 42,67.5C 42.4741,61.8115 43.6407,56.3115 45.5,51C 44.621,42.0297 46.9543,33.863 52.5,26.5C 54.3043,25.2319 56.3043,24.5652 58.5,24.5C 58.2627,25.791 58.596,26.791 59.5,27.5 Z"/></g>
<g><path style="opacity:1" fill="#543838" d="M 101.5,91.5 C 101.833,91.5 102.167,91.5 102.5,91.5C 102.953,92.4584 103.619,93.2917 104.5,94C 111.5,94.3333 118.5,94.6667 125.5,95C 126.056,95.3826 126.389,95.8826 126.5,96.5C 119.575,95.9663 112.908,96.7996 106.5,99C 104.963,100.11 104.297,101.61 104.5,103.5C 101.037,100.112 100.037,96.1116 101.5,91.5 Z"/></g>
<g><path style="opacity:1" fill="#203037" d="M 203.5,91.5 C 202.772,94.0795 202.272,96.7462 202,99.5C 201.667,99.1667 201.333,98.8333 201,98.5C 200.26,99.7494 200.427,100.749 201.5,101.5C 201.5,104.167 201.5,106.833 201.5,109.5C 200.167,109.5 198.833,109.5 197.5,109.5C 197.5,111.5 197.5,113.5 197.5,115.5C 196.209,115.737 195.209,115.404 194.5,114.5C 195.01,110.44 195.844,106.44 197,102.5C 197.333,102.833 197.667,103.167 198,103.5C 198.92,100.899 199.587,98.2321 200,95.5C 200.74,93.6813 201.907,92.3479 203.5,91.5 Z"/></g>
<g><path style="opacity:1" fill="#131527" d="M 196.5,35.5 C 200.664,37.1335 204.997,38.1335 209.5,38.5C 209.5,39.1667 209.833,39.5 210.5,39.5C 208.081,42.2023 205.748,45.0356 203.5,48C 202.256,48.4561 201.423,47.9561 201,46.5C 198.773,49.0667 197.606,52.0667 197.5,55.5C 198.063,64.4816 198.23,73.4816 198,82.5C 200.12,83.6053 202.287,83.6053 204.5,82.5C 202.462,85.3435 202.129,88.3435 203.5,91.5C 201.907,92.3479 200.74,93.6813 200,95.5C 199.587,98.2321 198.92,100.899 198,103.5C 197.667,103.167 197.333,102.833 197,102.5C 195.844,106.44 195.01,110.44 194.5,114.5C 193.59,112.981 192.757,111.315 192,109.5C 190.787,101.48 188.953,93.6471 186.5,86C 188.052,82.0357 186.719,79.5357 182.5,78.5C 187.831,74.2208 191.998,68.8874 195,62.5C 195.785,53.5125 196.285,44.5125 196.5,35.5 Z"/></g>
<g><path style="opacity:1" fill="#b57378" d="M 126.5,96.5 C 126.833,96.5 127.167,96.5 127.5,96.5C 125.837,98.5329 123.837,100.366 121.5,102C 120.552,102.483 119.552,102.649 118.5,102.5C 114.02,104.641 109.353,104.974 104.5,103.5C 104.297,101.61 104.963,100.11 106.5,99C 112.908,96.7996 119.575,95.9663 126.5,96.5 Z"/></g>
<g><path style="opacity:1" fill="#252d5d" d="M 140.5,88.5 C 140.5,90.1667 140.5,91.8333 140.5,93.5C 140.58,97.6581 140.246,101.991 139.5,106.5C 138.184,106.568 136.85,106.568 135.5,106.5C 133.973,109.66 133.307,112.993 133.5,116.5C 133.167,116.5 132.833,116.5 132.5,116.5C 132.054,110.755 133.054,105.421 135.5,100.5C 136.117,100.389 136.617,100.056 137,99.5C 137.658,95.555 138.825,91.8884 140.5,88.5 Z"/></g>
<g><path style="opacity:1" fill="#2e3792" d="M 170.5,40.5 C 170.34,42.1992 170.506,43.8659 171,45.5C 171.667,44.8333 172.333,44.1667 173,43.5C 173.448,45.2244 174.282,45.891 175.5,45.5C 175.668,52.6276 175.335,59.7942 174.5,67C 175.482,67.3808 176.148,68.2141 176.5,69.5C 175.343,74.0958 173.51,78.4291 171,82.5C 170.204,85.0385 170.371,87.3718 171.5,89.5C 170.013,93.1454 168.513,96.812 167,100.5C 166.292,101.381 165.458,102.047 164.5,102.5C 164.66,100.801 164.494,99.1341 164,97.5C 161.032,102.48 158.032,107.48 155,112.5C 154,113.167 153,113.833 152,114.5C 152.112,112.822 152.612,111.155 153.5,109.5C 153.333,108.833 153.167,108.167 153,107.5C 151.935,109.396 151.102,109.563 150.5,108C 156.279,99.6974 155.612,98.8641 148.5,105.5C 147.269,104.349 147.269,103.183 148.5,102C 148,101.5 147.5,101 147,100.5C 145.982,101.706 145.482,101.373 145.5,99.5C 147.36,94.5138 147.693,89.5138 146.5,84.5C 147.453,81.574 148.787,78.9074 150.5,76.5C 153.083,73.0026 155.416,69.3359 157.5,65.5C 158.5,65.5 159.5,65.5 160.5,65.5C 162.518,64.8254 164.184,63.6587 165.5,62C 165.719,57.4905 166.052,52.9905 166.5,48.5C 167.363,46.5786 168.029,44.5786 168.5,42.5C 169.167,41.8333 169.833,41.1667 170.5,40.5 Z"/></g>
<g><path style="opacity:1" fill="#8192ad" d="M 215.5,92.5 C 216.613,93.9464 216.78,95.6131 216,97.5C 214.92,99.9962 213.586,102.33 212,104.5C 204.94,111.031 198.774,117.698 193.5,124.5C 192.421,126.543 190.754,127.876 188.5,128.5C 190.706,123.953 193.706,119.953 197.5,116.5C 200.094,112.565 203.094,108.899 206.5,105.5C 210.662,101.999 213.662,97.6654 215.5,92.5 Z"/></g>
<g><path style="opacity:1" fill="#d4dcdc" d="M 216.5,42.5 C 217.946,41.3871 219.613,41.2204 221.5,42C 223.996,43.6665 226.329,45.4998 228.5,47.5C 231.5,51.1667 234.833,54.5 238.5,57.5C 240.206,64.0326 240.872,70.6993 240.5,77.5C 238.05,85.0653 235.05,92.3986 231.5,99.5C 230.751,102.201 229.751,104.868 228.5,107.5C 227.026,108.436 226.026,109.77 225.5,111.5C 223.697,109.519 222.03,107.352 220.5,105C 222.329,103.887 223.163,102.387 223,100.5C 217.808,103.001 213.308,106.334 209.5,110.5C 211.418,107.076 213.918,104.076 217,101.5C 217.36,99.3921 218.027,97.3921 219,95.5C 221.594,93.2964 223.428,90.6297 224.5,87.5C 225.441,85.9505 226.107,84.2838 226.5,82.5C 227.677,80.3206 228.677,77.9872 229.5,75.5C 230.991,72.8136 231.657,69.8136 231.5,66.5C 231.495,64.3035 231.162,62.3035 230.5,60.5C 229.424,56.0116 227.091,52.3449 223.5,49.5C 223.489,47.9826 222.823,46.8159 221.5,46C 219.677,45.0027 218.01,43.8361 216.5,42.5 Z"/></g>
<g><path style="opacity:1" fill="#b4c3bd" d="M 255.5,94.5 C 255.5,96.5 255.5,98.5 255.5,100.5C 253.901,100.232 252.568,100.566 251.5,101.5C 247.958,101.38 244.458,101.714 241,102.5C 239.301,102.613 238.134,101.947 237.5,100.5C 243.099,97.5929 249.099,95.5929 255.5,94.5 Z"/></g>
<g><path style="opacity:1" fill="#bba9ad" d="M 61.5,58.5 C 63.3873,60.7886 64.7206,63.4553 65.5,66.5C 64.7101,71.5053 64.0434,76.672 63.5,82C 63.9566,85.0852 64.6233,88.0852 65.5,91C 65.703,96.4321 65.3696,101.432 64.5,106C 65.9071,112.171 67.4071,118.337 69,124.5C 71.4924,129.483 74.4924,134.149 78,138.5C 79.0674,139.191 80.2341,139.691 81.5,140C 80.6634,141.011 80.33,142.178 80.5,143.5C 78.1667,143.5 75.8333,143.5 73.5,143.5C 72.2073,141.704 70.7073,140.037 69,138.5C 66.2968,130.447 63.6301,122.447 61,114.5C 60.7801,107.076 59.9468,99.7422 58.5,92.5C 58.8333,91.1667 59.1667,89.8333 59.5,88.5C 58.5313,86.4272 57.8646,84.2605 57.5,82C 58.0375,77.6006 58.7042,73.2673 59.5,69C 59.0426,68.586 58.7093,68.086 58.5,67.5C 60.1376,66.2954 60.4709,64.9621 59.5,63.5C 60.0276,61.6639 60.6942,59.9972 61.5,58.5 Z"/></g>
<g><path style="opacity:1" fill="#ebddd4" d="M 93.5,98.5 C 95.1546,101.056 96.8213,103.723 98.5,106.5C 97.5934,109.421 97.2601,112.421 97.5,115.5C 96.8333,115.5 96.5,115.833 96.5,116.5C 95.4415,115.4 94.6082,114.066 94,112.5C 93.5008,107.845 93.3342,103.179 93.5,98.5 Z"/></g>
<g><path style="opacity:1" fill="#dac6c1" d="M 76.5,97.5 C 77.2632,99.3684 78.2632,101.035 79.5,102.5C 83.8384,111.17 88.1717,119.836 92.5,128.5C 91.3414,130.855 90.3414,133.188 89.5,135.5C 81.9218,128.694 76.5884,120.361 73.5,110.5C 74.5798,107.874 74.2464,105.374 72.5,103C 73.6046,101.134 73.6046,98.9674 72.5,96.5C 72.6667,95.5 72.8333,94.5 73,93.5C 73.9487,95.0931 75.1154,96.4264 76.5,97.5 Z"/></g>
<g><path style="opacity:1" fill="#8ba099" d="M 231.5,99.5 C 231.47,100.497 231.97,101.164 233,101.5C 234.44,100.852 235.94,100.519 237.5,100.5C 238.134,101.947 239.301,102.613 241,102.5C 244.458,101.714 247.958,101.38 251.5,101.5C 243.931,103.643 236.264,105.643 228.5,107.5C 229.751,104.868 230.751,102.201 231.5,99.5 Z"/></g>
<g><path style="opacity:1" fill="#a18f9a" d="M 59.5,31.5 C 59.5,38.5 59.5,45.5 59.5,52.5C 57.9669,54.3548 56.3003,56.1881 54.5,58C 54.8333,58.3333 55.1667,58.6667 55.5,59C 53.9861,60.439 53.6527,61.939 54.5,63.5C 53.6594,68.2925 52.3261,73.1258 50.5,78C 50.2432,79.3715 50.5765,80.8715 51.5,82.5C 49.9815,86.5401 49.3148,90.5401 49.5,94.5C 49.6316,96.601 50.6316,98.101 52.5,99C 51.3659,100.016 51.6992,100.683 53.5,101C 53.1897,105.07 53.1897,109.403 53.5,114C 55.6667,116.833 57.8333,119.667 60,122.5C 62.3486,129.377 64.1819,136.377 65.5,143.5C 64.5,143.5 63.5,143.5 62.5,143.5C 60.4764,135.425 57.4764,127.759 53.5,120.5C 51.428,123.154 49.7613,122.82 48.5,119.5C 50.2578,113.384 49.4245,107.384 46,101.5C 45.6054,97.5788 45.7721,93.9122 46.5,90.5C 45.3998,87.0323 44.3998,83.5323 43.5,80C 47.7548,69.59 50.9215,59.09 53,48.5C 53.9803,47.0186 55.147,45.6853 56.5,44.5C 57.086,44.7093 57.586,45.0426 58,45.5C 58.1745,40.6486 58.6745,35.9819 59.5,31.5 Z"/></g>
<g><path style="opacity:1" fill="#bb9a88" d="M 127.5,96.5 C 128.5,96.5 129.5,96.5 130.5,96.5C 129.586,99.728 129.253,103.061 129.5,106.5C 128.521,109.625 128.187,112.958 128.5,116.5C 124.908,118.711 121.075,119.044 117,117.5C 115.156,115.829 114.49,113.829 115,111.5C 117.707,110.385 120.207,109.052 122.5,107.5C 121.479,105.812 120.145,104.479 118.5,103.5C 118.5,103.167 118.5,102.833 118.5,102.5C 119.552,102.649 120.552,102.483 121.5,102C 123.837,100.366 125.837,98.5329 127.5,96.5 Z"/></g>
<g><path style="opacity:1" fill="#324139" d="M 255.5,100.5 C 255.5,109.167 255.5,117.833 255.5,126.5C 253.784,126.371 252.117,126.038 250.5,125.5C 244.811,124.773 238.978,124.106 233,123.5C 231.019,123.899 229.519,124.899 228.5,126.5C 224.5,130.167 220.5,133.833 216.5,137.5C 215.147,136.133 215.481,135.133 217.5,134.5C 218.271,130.576 219.271,126.743 220.5,123C 219.038,121.372 217.372,121.205 215.5,122.5C 219.515,119.484 222.848,115.817 225.5,111.5C 226.026,109.77 227.026,108.436 228.5,107.5C 236.264,105.643 243.931,103.643 251.5,101.5C 252.568,100.566 253.901,100.232 255.5,100.5 Z"/></g>
<g><path style="opacity:1" fill="#5c8286" d="M 206.5,105.5 C 203.094,108.899 200.094,112.565 197.5,116.5C 197.5,116.167 197.5,115.833 197.5,115.5C 197.5,113.5 197.5,111.5 197.5,109.5C 198.833,109.5 200.167,109.5 201.5,109.5C 201.5,106.833 201.5,104.167 201.5,101.5C 202.117,101.611 202.617,101.944 203,102.5C 203.497,99.854 203.664,97.1873 203.5,94.5C 204.822,94.67 205.989,94.3366 207,93.5C 207.17,97.4934 207.004,101.493 206.5,105.5 Z"/></g>
<g><path style="opacity:1" fill="#6d5a50" d="M 118.5,102.5 C 118.5,102.833 118.5,103.167 118.5,103.5C 116.815,104.184 115.815,105.517 115.5,107.5C 108.804,107.348 106.804,110.348 109.5,116.5C 110.704,119.415 112.704,121.581 115.5,123C 119.92,123.768 124.253,123.602 128.5,122.5C 128.5,123.5 128.5,124.5 128.5,125.5C 127.041,125.433 125.708,125.766 124.5,126.5C 123.542,126.953 122.708,127.619 122,128.5C 119.595,127.726 117.095,127.226 114.5,127C 112.253,125.723 110.253,124.223 108.5,122.5C 109.043,122.44 109.376,122.107 109.5,121.5C 105.823,116.142 104.156,110.142 104.5,103.5C 109.353,104.974 114.02,104.641 118.5,102.5 Z"/></g>
<g><path style="opacity:1" fill="#463957" d="M 2.5,93.5 C 5.64458,100.456 9.31125,107.123 13.5,113.5C 15.2181,118.87 16.8848,124.37 18.5,130C 17.1969,134.074 16.1969,138.574 15.5,143.5C 10.1667,143.5 4.83333,143.5 -0.5,143.5C -0.5,127.5 -0.5,111.5 -0.5,95.5C 1.52787,99.2314 2.52787,98.5648 2.5,93.5 Z"/></g>
<g><path style="opacity:1" fill="#95705c" d="M 118.5,103.5 C 120.145,104.479 121.479,105.812 122.5,107.5C 120.207,109.052 117.707,110.385 115,111.5C 114.49,113.829 115.156,115.829 117,117.5C 121.075,119.044 124.908,118.711 128.5,116.5C 128.5,118.5 128.5,120.5 128.5,122.5C 124.253,123.602 119.92,123.768 115.5,123C 112.704,121.581 110.704,119.415 109.5,116.5C 106.804,110.348 108.804,107.348 115.5,107.5C 115.815,105.517 116.815,104.184 118.5,103.5 Z"/></g>
<g><path style="opacity:1" fill="#232a72" d="M 140.5,93.5 C 141.291,96.789 141.958,100.122 142.5,103.5C 141.458,107.255 140.125,110.921 138.5,114.5C 138.838,118.162 140.005,118.829 142,116.5C 142.165,118.678 141.332,120.511 139.5,122C 141.653,122.099 143.319,122.933 144.5,124.5C 138.631,124.975 134.964,122.309 133.5,116.5C 133.307,112.993 133.973,109.66 135.5,106.5C 136.85,106.568 138.184,106.568 139.5,106.5C 140.246,101.991 140.58,97.6581 140.5,93.5 Z"/></g>
<g><path style="opacity:1" fill="#8d7162" d="M 166.5,105.5 C 164.966,110.065 163.299,114.565 161.5,119C 161.684,120.376 162.351,121.209 163.5,121.5C 158.335,125.586 152.668,128.92 146.5,131.5C 145.508,131.672 144.842,131.338 144.5,130.5C 144.5,130.167 144.5,129.833 144.5,129.5C 147.447,128.219 149.781,126.219 151.5,123.5C 153.229,122.883 154.729,121.883 156,120.5C 157.994,116.357 160.161,112.357 162.5,108.5C 163.833,107.5 165.167,106.5 166.5,105.5 Z"/></g>
<g><path style="opacity:1" fill="#ad8b77" d="M 178.5,109.5 C 174.087,114.21 169.087,118.21 163.5,121.5C 162.351,121.209 161.684,120.376 161.5,119C 163.299,114.565 164.966,110.065 166.5,105.5C 168.194,104.473 169.527,103.139 170.5,101.5C 172.429,100.994 174.095,99.9937 175.5,98.5C 176.086,98.7093 176.586,99.0426 177,99.5C 178.199,102.726 178.699,106.059 178.5,109.5 Z"/></g>
<g><path style="opacity:1" fill="#4e6071" d="M 78.5,93.5 C 83.511,98.3492 88.011,103.683 92,109.5C 92.1773,105.644 92.6773,101.977 93.5,98.5C 93.3342,103.179 93.5008,107.845 94,112.5C 94.6082,114.066 95.4415,115.4 96.5,116.5C 99.2472,125.308 101.247,134.308 102.5,143.5C 101.833,143.5 101.167,143.5 100.5,143.5C 100.662,141.473 100.495,139.473 100,137.5C 98.1125,136.98 96.7792,135.314 96,132.5C 93.5798,120.659 88.2465,110.326 80,101.5C 79.6012,101.728 79.4346,102.062 79.5,102.5C 78.2632,101.035 77.2632,99.3684 76.5,97.5C 78.1042,96.713 78.7709,95.3797 78.5,93.5 Z"/></g>
<g><path style="opacity:1" fill="#6b787d" d="M 129.5,106.5 C 129.5,115.167 129.5,123.833 129.5,132.5C 127.164,131.155 125.497,129.155 124.5,126.5C 125.708,125.766 127.041,125.433 128.5,125.5C 128.5,124.5 128.5,123.5 128.5,122.5C 128.5,120.5 128.5,118.5 128.5,116.5C 128.187,112.958 128.521,109.625 129.5,106.5 Z"/></g>
<g><path style="opacity:1" fill="#17204d" d="M 100.5,143.5 C 98.8333,143.5 97.1667,143.5 95.5,143.5C 94.9401,138.695 94.2735,134.029 93.5,129.5C 93.5,128.833 93.1667,128.5 92.5,128.5C 88.1717,119.836 83.8384,111.17 79.5,102.5C 79.4346,102.062 79.6012,101.728 80,101.5C 88.2465,110.326 93.5798,120.659 96,132.5C 96.7792,135.314 98.1125,136.98 100,137.5C 100.495,139.473 100.662,141.473 100.5,143.5 Z"/></g>
<g><path style="opacity:1" fill="#101128" d="M 108.5,122.5 C 110.253,124.223 112.253,125.723 114.5,127C 117.095,127.226 119.595,127.726 122,128.5C 122.708,127.619 123.542,126.953 124.5,126.5C 125.497,129.155 127.164,131.155 129.5,132.5C 129.5,132.833 129.5,133.167 129.5,133.5C 129.031,136.393 130.031,138.393 132.5,139.5C 133.167,139.167 133.833,138.833 134.5,138.5C 135.752,140.001 136.752,141.668 137.5,143.5C 126.833,143.5 116.167,143.5 105.5,143.5C 105.5,141.833 105.5,140.167 105.5,138.5C 106.675,138.719 107.675,138.386 108.5,137.5C 107.014,131.184 105.514,124.851 104,118.5C 102.684,115.692 100.85,113.359 98.5,111.5C 98.3537,109.058 99.187,108.391 101,109.5C 102.993,114.155 105.493,118.489 108.5,122.5 Z"/></g>
<g><path style="opacity:1" fill="#d5ded7" d="M 225.5,111.5 C 222.848,115.817 219.515,119.484 215.5,122.5C 205.617,128.385 196.617,135.385 188.5,143.5C 184.5,143.5 180.5,143.5 176.5,143.5C 180.271,138.278 184.271,133.278 188.5,128.5C 190.754,127.876 192.421,126.543 193.5,124.5C 198.537,119.461 203.871,114.794 209.5,110.5C 213.308,106.334 217.808,103.001 223,100.5C 223.163,102.387 222.329,103.887 220.5,105C 222.03,107.352 223.697,109.519 225.5,111.5 Z"/></g>
<g><path style="opacity:1" fill="#11100f" d="M 176.5,78.5 C 178.5,78.5 180.5,78.5 182.5,78.5C 186.719,79.5357 188.052,82.0357 186.5,86C 188.953,93.6471 190.787,101.48 192,109.5C 192.757,111.315 193.59,112.981 194.5,114.5C 195.209,115.404 196.209,115.737 197.5,115.5C 197.5,115.833 197.5,116.167 197.5,116.5C 193.706,119.953 190.706,123.953 188.5,128.5C 184.271,133.278 180.271,138.278 176.5,143.5C 164.833,143.5 153.167,143.5 141.5,143.5C 142.213,139.115 143.879,135.115 146.5,131.5C 152.668,128.92 158.335,125.586 163.5,121.5C 169.087,118.21 174.087,114.21 178.5,109.5C 181.812,106.681 184.146,103.181 185.5,99C 182.975,93.0887 181.475,86.9221 181,80.5C 176.946,87.2743 173.446,94.2743 170.5,101.5C 169.527,103.139 168.194,104.473 166.5,105.5C 165.167,106.5 163.833,107.5 162.5,108.5C 163.63,106.685 164.296,104.685 164.5,102.5C 165.458,102.047 166.292,101.381 167,100.5C 168.513,96.812 170.013,93.1454 171.5,89.5C 173.36,85.9175 175.027,82.2508 176.5,78.5 Z"/></g>
<g><path style="opacity:1" fill="#93999b" d="M 250.5,125.5 C 252.117,126.038 253.784,126.371 255.5,126.5C 255.5,127.833 255.5,129.167 255.5,130.5C 254.373,129.878 253.373,129.045 252.5,128C 248.713,127.84 245.046,127.174 241.5,126C 244.482,125.502 247.482,125.335 250.5,125.5 Z"/></g>
<g><path style="opacity:1" fill="#0b0f40" d="M 98.5,111.5 C 100.85,113.359 102.684,115.692 104,118.5C 105.514,124.851 107.014,131.184 108.5,137.5C 107.675,138.386 106.675,138.719 105.5,138.5C 105.5,140.167 105.5,141.833 105.5,143.5C 104.5,143.5 103.5,143.5 102.5,143.5C 101.247,134.308 99.2472,125.308 96.5,116.5C 96.5,115.833 96.8333,115.5 97.5,115.5C 98.4345,114.432 98.7678,113.099 98.5,111.5 Z"/></g>
<g><path style="opacity:1" fill="#222e26" d="M 216.5,137.5 C 214.833,139.5 213.167,141.5 211.5,143.5C 203.833,143.5 196.167,143.5 188.5,143.5C 196.617,135.385 205.617,128.385 215.5,122.5C 217.372,121.205 219.038,121.372 220.5,123C 219.271,126.743 218.271,130.576 217.5,134.5C 215.481,135.133 215.147,136.133 216.5,137.5 Z"/></g>
<g><path style="opacity:1" fill="#49565a" d="M 250.5,125.5 C 247.482,125.335 244.482,125.502 241.5,126C 245.046,127.174 248.713,127.84 252.5,128C 253.373,129.045 254.373,129.878 255.5,130.5C 255.5,131.5 255.5,132.5 255.5,133.5C 251.582,137.063 246.915,138.396 241.5,137.5C 237.847,135.847 235.18,133.18 233.5,129.5C 233.919,128.328 234.585,127.328 235.5,126.5C 233.189,125.425 230.856,125.425 228.5,126.5C 229.519,124.899 231.019,123.899 233,123.5C 238.978,124.106 244.811,124.773 250.5,125.5 Z"/></g>
<g><path style="opacity:1" fill="#adafa9" d="M 241.5,137.5 C 242.392,139.813 241.558,140.147 239,138.5C 237.415,139.044 235.915,139.711 234.5,140.5C 232.814,138.984 230.981,137.65 229,136.5C 225.406,137.929 222.573,140.262 220.5,143.5C 217.5,143.5 214.5,143.5 211.5,143.5C 213.167,141.5 214.833,139.5 216.5,137.5C 220.5,133.833 224.5,130.167 228.5,126.5C 230.856,125.425 233.189,125.425 235.5,126.5C 234.585,127.328 233.919,128.328 233.5,129.5C 235.18,133.18 237.847,135.847 241.5,137.5 Z"/></g>
<g><path style="opacity:1" fill="#3a508b" d="M 144.5,129.5 C 144.5,129.833 144.5,130.167 144.5,130.5C 141.167,133.167 137.833,135.833 134.5,138.5C 133.833,138.833 133.167,139.167 132.5,139.5C 132.334,133.491 132.501,127.491 133,121.5C 136.195,125.327 140.029,127.993 144.5,129.5 Z"/></g>
<g><path style="opacity:1" fill="#6d798f" d="M 132.5,116.5 C 132.833,116.5 133.167,116.5 133.5,116.5C 134.964,122.309 138.631,124.975 144.5,124.5C 146.861,124.326 149.194,123.993 151.5,123.5C 149.781,126.219 147.447,128.219 144.5,129.5C 140.029,127.993 136.195,125.327 133,121.5C 132.501,127.491 132.334,133.491 132.5,139.5C 130.031,138.393 129.031,136.393 129.5,133.5C 130.222,133.918 130.722,134.584 131,135.5C 131.172,128.987 131.672,122.653 132.5,116.5 Z"/></g>
<g><path style="opacity:1" fill="#625045" d="M 144.5,130.5 C 144.842,131.338 145.508,131.672 146.5,131.5C 143.879,135.115 142.213,139.115 141.5,143.5C 140.167,143.5 138.833,143.5 137.5,143.5C 136.752,141.668 135.752,140.001 134.5,138.5C 137.833,135.833 141.167,133.167 144.5,130.5 Z"/></g>
<g><path style="opacity:1" fill="#485c7b" d="M 93.5,129.5 C 94.2735,134.029 94.9401,138.695 95.5,143.5C 94.5,143.5 93.5,143.5 92.5,143.5C 92.5401,138.807 92.8734,134.141 93.5,129.5 Z"/></g>
<g><path style="opacity:1" fill="#d5f4f5" d="M 92.5,128.5 C 93.1667,128.5 93.5,128.833 93.5,129.5C 92.8734,134.141 92.5401,138.807 92.5,143.5C 91.5,143.5 90.5,143.5 89.5,143.5C 89.5,140.833 89.5,138.167 89.5,135.5C 90.3414,133.188 91.3414,130.855 92.5,128.5 Z"/></g>
<g><path style="opacity:1" fill="#404e4f" d="M 234.5,140.5 C 238.024,142.003 241.69,143.003 245.5,143.5C 237.167,143.5 228.833,143.5 220.5,143.5C 222.573,140.262 225.406,137.929 229,136.5C 230.981,137.65 232.814,138.984 234.5,140.5 Z"/></g>
<g><path style="opacity:1" fill="#848580" d="M 255.5,133.5 C 255.5,136.833 255.5,140.167 255.5,143.5C 252.167,143.5 248.833,143.5 245.5,143.5C 241.69,143.003 238.024,142.003 234.5,140.5C 235.915,139.711 237.415,139.044 239,138.5C 241.558,140.147 242.392,139.813 241.5,137.5C 246.915,138.396 251.582,137.063 255.5,133.5 Z"/></g>
</svg>
