<?xml version="1.0" encoding="UTF-8"?>
<!DOCTYPE svg PUBLIC "-//W3C//DTD SVG 1.1//EN" "http://www.w3.org/Graphics/SVG/1.1/DTD/svg11.dtd">
<svg xmlns="http://www.w3.org/2000/svg" version="1.1" width="256px" height="144px" style="shape-rendering:geometricPrecision; text-rendering:geometricPrecision; image-rendering:optimizeQuality; fill-rule:evenodd; clip-rule:evenodd" xmlns:xlink="http://www.w3.org/1999/xlink">
<g><path style="opacity:1" fill="#151814" d="M 129.5,-0.5 C 146.833,-0.5 164.167,-0.5 181.5,-0.5C 182.758,1.68686 183.758,4.0202 184.5,6.5C 183.577,5.69708 182.577,5.53042 181.5,6C 180.968,12.265 177.635,15.765 171.5,16.5C 167.14,12.9888 162.473,9.98882 157.5,7.5C 155.819,5.99249 153.819,4.99249 151.5,4.5C 150.205,3.51163 148.872,2.51163 147.5,1.5C 142.561,0.643455 137.561,1.14345 132.5,3C 129.772,5.39224 126.772,7.39224 123.5,9C 122.695,10.1127 122.028,11.2794 121.5,12.5C 120.844,11.7222 120.011,11.0556 119,10.5C 110.369,12.1393 106.536,17.4726 107.5,26.5C 106.833,26.5 106.167,26.5 105.5,26.5C 103.139,26.3259 100.806,25.9926 98.5,25.5C 104.124,24.307 106.791,20.6403 106.5,14.5C 108.709,13.08 110.709,11.4133 112.5,9.5C 115.768,8.51298 119.102,8.17964 122.5,8.5C 122.5,6.83333 122.5,5.16667 122.5,3.5C 123.552,3.64945 124.552,3.48278 125.5,3C 127.319,2.25974 128.652,1.09307 129.5,-0.5 Z"/></g>
<g><path style="opacity:1" fill="#010202" d="M 208.5,-0.5 C 224.167,-0.5 239.833,-0.5 255.5,-0.5C 255.5,47.5 255.5,95.5 255.5,143.5C 247.167,143.5 238.833,143.5 230.5,143.5C 230.603,137.139 231.103,130.806 232,124.5C 232.5,124 233,123.5 233.5,123C 229.237,116.911 227.07,110.077 227,102.5C 225.18,99.6872 223.013,97.1872 220.5,95C 221,93.5 221.5,92 222,90.5C 229.317,99.4823 237.65,107.482 247,114.5C 247.761,111.947 248.594,109.447 249.5,107C 248.069,106.535 246.903,105.701 246,104.5C 245.667,104.833 245.333,105.167 245,105.5C 243.887,104.24 243.72,103.073 244.5,102C 241.86,99.3604 239.194,96.6937 236.5,94C 236.972,91.6013 235.972,89.6013 233.5,88C 234,87.5 234.5,87 235,86.5C 236.621,90.491 239.454,92.3243 243.5,92C 240.305,90.3054 237.972,87.8054 236.5,84.5C 237.381,83.0295 238.714,82.1962 240.5,82C 239.241,81.0766 237.908,80.2432 236.5,79.5C 236.709,78.914 237.043,78.414 237.5,78C 239.456,78.2218 241.29,79.0552 243,80.5C 242.995,77.1364 241.328,74.803 238,73.5C 237.598,72.1279 237.098,70.7946 236.5,69.5C 240.168,67.2251 240.168,64.7251 236.5,62C 238.598,62.0322 240.598,62.6989 242.5,64C 243.112,65.3033 243.446,66.4699 243.5,67.5C 244.747,65.9936 244.747,64.4936 243.5,63C 245.5,62 247.5,61 249.5,60C 244.031,59.9173 238.697,60.0839 233.5,60.5C 232.213,56.8777 230.879,53.2111 229.5,49.5C 230.311,42.9506 231.311,36.6173 232.5,30.5C 230.675,29.4291 229.508,30.0958 229,32.5C 228.5,32 228,31.5 227.5,31C 228.517,29.9505 228.684,28.7839 228,27.5C 225.412,25.587 222.912,23.587 220.5,21.5C 219.453,24.5188 217.453,24.8521 214.5,22.5C 215.305,20.5283 216.639,19.0283 218.5,18C 215.93,18.0465 213.93,19.2132 212.5,21.5C 211.542,21.9528 210.708,22.6195 210,23.5C 208.951,22.4829 207.784,22.3162 206.5,23C 205.219,24.4087 204.219,25.9087 203.5,27.5C 202.883,27.3893 202.383,27.056 202,26.5C 201.252,28.3325 200.252,29.9991 199,31.5C 198.098,29.5692 196.931,27.9025 195.5,26.5C 194.903,21.9831 193.237,17.9831 190.5,14.5C 189.5,13.1667 188.5,11.8333 187.5,10.5C 187.414,9.5041 187.748,8.67076 188.5,8C 191.513,7.49782 194.513,6.99782 197.5,6.5C 204.138,7.61609 210.804,8.11609 217.5,8C 214.85,4.69667 211.85,1.86333 208.5,-0.5 Z"/></g>
<g><path style="opacity:1" fill="#0a1614" d="M 194.5,-0.5 C 199.167,-0.5 203.833,-0.5 208.5,-0.5C 211.85,1.86333 214.85,4.69667 217.5,8C 210.804,8.11609 204.138,7.61609 197.5,6.5C 197.918,5.77842 198.584,5.27842 199.5,5C 197.407,3.53936 195.74,1.70602 194.5,-0.5 Z"/></g>
<g><path style="opacity:1" fill="#25453d" d="M 181.5,-0.5 C 185.833,-0.5 190.167,-0.5 194.5,-0.5C 195.74,1.70602 197.407,3.53936 199.5,5C 198.584,5.27842 197.918,5.77842 197.5,6.5C 194.513,6.99782 191.513,7.49782 188.5,8C 187.748,8.67076 187.414,9.5041 187.5,10.5C 186.512,9.20498 185.512,7.87165 184.5,6.5C 183.758,4.0202 182.758,1.68686 181.5,-0.5 Z"/></g>
<g><path style="opacity:1" fill="#54543d" d="M 147.5,1.5 C 138.672,4.74922 130.339,8.74922 122.5,13.5C 121.701,16.4299 121.368,19.4299 121.5,22.5C 119.997,21.3184 118.33,20.8184 116.5,21C 112.685,22.0345 110.018,24.2012 108.5,27.5C 107.938,18.2158 111.771,15.5491 120,19.5C 120.44,17.1341 120.94,14.8008 121.5,12.5C 122.028,11.2794 122.695,10.1127 123.5,9C 126.772,7.39224 129.772,5.39224 132.5,3C 137.561,1.14345 142.561,0.643455 147.5,1.5 Z"/></g>
<g><path style="opacity:1" fill="#736745" d="M 147.5,1.5 C 148.872,2.51163 150.205,3.51163 151.5,4.5C 143.281,6.03324 135.614,8.86657 128.5,13C 126.527,13.4955 124.527,13.6621 122.5,13.5C 130.339,8.74922 138.672,4.74922 147.5,1.5 Z"/></g>
<g><path style="opacity:1" fill="#ab9969" d="M 157.5,7.5 C 162.473,9.98882 167.14,12.9888 171.5,16.5C 173.607,17.4682 175.941,17.8016 178.5,17.5C 180.067,19.8569 181.067,22.5236 181.5,25.5C 180.975,26.1924 180.308,26.6924 179.5,27C 183.106,28.0759 184.106,30.2426 182.5,33.5C 179.97,34.1319 177.637,35.1319 175.5,36.5C 179.07,36.9086 182.736,36.9086 186.5,36.5C 186.038,41.0281 185.371,45.5281 184.5,50C 182.574,52.797 179.907,54.297 176.5,54.5C 177.249,50.1813 177.415,45.848 177,41.5C 175.698,44.3751 174.865,47.3751 174.5,50.5C 174.512,54.4459 172.512,56.1126 168.5,55.5C 168.541,51.7566 167.874,51.5899 166.5,55C 163.183,55.4983 159.85,55.665 156.5,55.5C 159.546,54.0133 162.879,53.0133 166.5,52.5C 167.595,48.865 168.929,48.6983 170.5,52C 171.448,52.4828 172.448,52.6495 173.5,52.5C 173.666,48.1539 173.499,43.8206 173,39.5C 171.823,37.8243 170.323,36.4909 168.5,35.5C 169.323,33.3595 170.323,31.1928 171.5,29C 171.241,27.7387 170.574,26.7387 169.5,26C 174.207,20.8779 172.873,18.3779 165.5,18.5C 164.833,17.5 164.167,16.5 163.5,15.5C 160.473,14.639 157.806,13.139 155.5,11C 152.833,10.3333 150.167,10.3333 147.5,11C 141.995,16.8381 136.162,22.3381 130,27.5C 128.763,31.0601 128.263,34.7267 128.5,38.5C 124.995,38.6941 124.662,39.6941 127.5,41.5C 127.932,42.7095 128.599,43.7095 129.5,44.5C 129.5,45.1667 129.833,45.5 130.5,45.5C 129.365,46.4745 128.365,47.6412 127.5,49C 127.833,49.3333 128.167,49.6667 128.5,50C 131.696,50.8045 134.696,50.6378 137.5,49.5C 139.735,49.2053 141.735,49.5386 143.5,50.5C 141.801,50.3398 140.134,50.5065 138.5,51C 139.056,51.3826 139.389,51.8826 139.5,52.5C 138.694,53.8675 137.694,55.2008 136.5,56.5C 136.863,57.1835 137.196,57.8501 137.5,58.5C 136.5,58.5 135.5,58.5 134.5,58.5C 134.771,56.6203 134.104,55.287 132.5,54.5C 130.668,53.7515 129.001,52.7515 127.5,51.5C 125.081,49.1376 122.081,48.1376 118.5,48.5C 117.756,56.0041 120.089,62.3374 125.5,67.5C 122.5,67.5 119.5,67.5 116.5,67.5C 116.167,67.5 115.833,67.5 115.5,67.5C 115.08,65.9064 114.414,64.4064 113.5,63C 116.996,54.5141 118.663,45.6808 118.5,36.5C 120.698,32.2031 121.698,27.5364 121.5,22.5C 122.302,21.0484 122.802,19.3817 123,17.5C 125.147,18.4757 127.314,18.309 129.5,17C 135.5,14 141.5,11 147.5,8C 150.817,7.50166 154.15,7.33499 157.5,7.5 Z"/></g>
<g><path style="opacity:1" fill="#c0b084" d="M 156.5,55.5 C 155.833,55.5 155.167,55.5 154.5,55.5C 153.833,55.1667 153.167,54.8333 152.5,54.5C 152.167,53.8333 151.833,53.1667 151.5,52.5C 156.167,52.1667 160.833,51.8333 165.5,51.5C 165.357,49.7376 165.691,48.0709 166.5,46.5C 165.137,45.1072 164.304,43.4405 164,41.5C 163.259,40.3595 162.425,40.3595 161.5,41.5C 160.833,42.8333 160.167,44.1667 159.5,45.5C 158.5,43.5 157.5,41.5 156.5,39.5C 156.722,37.9446 157.389,36.6113 158.5,35.5C 156.942,32.8955 157.275,30.5622 159.5,28.5C 158.833,27.5 158.167,26.5 157.5,25.5C 159.423,24.6922 161.423,24.1922 163.5,24C 162.335,22.9164 161.002,22.0831 159.5,21.5C 158.614,20.675 158.281,19.675 158.5,18.5C 157.5,18.5 156.5,18.5 155.5,18.5C 155.5,17.1667 155.5,15.8333 155.5,14.5C 151.518,13.5778 149.184,15.0778 148.5,19C 147.207,19.49 145.873,19.6567 144.5,19.5C 144.97,25.8132 141.97,29.4799 135.5,30.5C 133.913,32.4461 134.246,33.9461 136.5,35C 135.418,36.3297 134.751,37.8297 134.5,39.5C 132.373,38.8506 130.373,38.5173 128.5,38.5C 128.263,34.7267 128.763,31.0601 130,27.5C 136.162,22.3381 141.995,16.8381 147.5,11C 150.167,10.3333 152.833,10.3333 155.5,11C 157.806,13.139 160.473,14.639 163.5,15.5C 164.167,16.5 164.833,17.5 165.5,18.5C 172.873,18.3779 174.207,20.8779 169.5,26C 170.574,26.7387 171.241,27.7387 171.5,29C 170.323,31.1928 169.323,33.3595 168.5,35.5C 170.323,36.4909 171.823,37.8243 173,39.5C 173.499,43.8206 173.666,48.1539 173.5,52.5C 172.448,52.6495 171.448,52.4828 170.5,52C 168.929,48.6983 167.595,48.865 166.5,52.5C 162.879,53.0133 159.546,54.0133 156.5,55.5 Z"/></g>
<g><path style="opacity:1" fill="#2d372d" d="M 121.5,12.5 C 120.94,14.8008 120.44,17.1341 120,19.5C 111.771,15.5491 107.938,18.2158 108.5,27.5C 107.833,27.5 107.5,27.1667 107.5,26.5C 106.536,17.4726 110.369,12.1393 119,10.5C 120.011,11.0556 120.844,11.7222 121.5,12.5 Z"/></g>
<g><path style="opacity:1" fill="#908056" d="M 151.5,4.5 C 153.819,4.99249 155.819,5.99249 157.5,7.5C 154.15,7.33499 150.817,7.50166 147.5,8C 141.5,11 135.5,14 129.5,17C 127.314,18.309 125.147,18.4757 123,17.5C 122.802,19.3817 122.302,21.0484 121.5,22.5C 121.368,19.4299 121.701,16.4299 122.5,13.5C 124.527,13.6621 126.527,13.4955 128.5,13C 135.614,8.86657 143.281,6.03324 151.5,4.5 Z"/></g>
<g><path style="opacity:1" fill="#704e12" d="M 190.5,14.5 C 193.237,17.9831 194.903,21.9831 195.5,26.5C 195.5,26.8333 195.5,27.1667 195.5,27.5C 194.883,27.3893 194.383,27.056 194,26.5C 193.824,30.6877 193.324,34.6877 192.5,38.5C 192.666,33.4889 192.499,28.4889 192,23.5C 191.768,22.2625 191.268,21.2625 190.5,20.5C 189.258,18.3888 189.258,16.3888 190.5,14.5 Z"/></g>
<g><path style="opacity:1" fill="#5f735c" d="M 121.5,22.5 C 121.698,27.5364 120.698,32.2031 118.5,36.5C 118.158,35.6618 117.492,35.3284 116.5,35.5C 118.765,32.4485 119.431,29.1151 118.5,25.5C 115.056,27.0236 111.722,28.6903 108.5,30.5C 108.5,29.5 108.5,28.5 108.5,27.5C 110.018,24.2012 112.685,22.0345 116.5,21C 118.33,20.8184 119.997,21.3184 121.5,22.5 Z"/></g>
<g><path style="opacity:1" fill="#99c4bc" d="M 98.5,25.5 C 100.806,25.9926 103.139,26.3259 105.5,26.5C 105.5,26.8333 105.5,27.1667 105.5,27.5C 104.903,28.1386 104.07,28.472 103,28.5C 99.9735,28.0877 97.1401,27.421 94.5,26.5C 95.5676,25.5655 96.901,25.2322 98.5,25.5 Z"/></g>
<g><path style="opacity:1" fill="#917e53" d="M 182.5,56.5 C 179.592,57.5691 176.592,57.7358 173.5,57C 175.418,54.8912 175.751,52.7246 174.5,50.5C 174.865,47.3751 175.698,44.3751 177,41.5C 177.415,45.848 177.249,50.1813 176.5,54.5C 179.907,54.297 182.574,52.797 184.5,50C 185.371,45.5281 186.038,41.0281 186.5,36.5C 182.736,36.9086 179.07,36.9086 175.5,36.5C 177.637,35.1319 179.97,34.1319 182.5,33.5C 184.106,30.2426 183.106,28.0759 179.5,27C 180.308,26.6924 180.975,26.1924 181.5,25.5C 181.067,22.5236 180.067,19.8569 178.5,17.5C 178.783,16.7109 179.283,16.0442 180,15.5C 181.755,18.0439 183.755,20.3773 186,22.5C 186.72,24.1124 186.554,25.6124 185.5,27C 189.469,30.4699 188.802,33.1366 183.5,35C 185.134,35.4935 186.801,35.6602 188.5,35.5C 189.139,43.4591 187.139,50.4591 182.5,56.5 Z"/></g>
<g><path style="opacity:1" fill="#79633d" d="M 184.5,6.5 C 185.512,7.87165 186.512,9.20498 187.5,10.5C 188.5,11.8333 189.5,13.1667 190.5,14.5C 189.258,16.3888 189.258,18.3888 190.5,20.5C 190.003,29.8892 189.836,39.5558 190,49.5C 188.319,51.5482 186.819,53.7148 185.5,56C 184.552,56.4828 183.552,56.6495 182.5,56.5C 187.139,50.4591 189.139,43.4591 188.5,35.5C 186.801,35.6602 185.134,35.4935 183.5,35C 188.802,33.1366 189.469,30.4699 185.5,27C 186.554,25.6124 186.72,24.1124 186,22.5C 183.755,20.3773 181.755,18.0439 180,15.5C 179.283,16.0442 178.783,16.7109 178.5,17.5C 175.941,17.8016 173.607,17.4682 171.5,16.5C 177.635,15.765 180.968,12.265 181.5,6C 182.577,5.53042 183.577,5.69708 184.5,6.5 Z"/></g>
<g><path style="opacity:1" fill="#7c6346" d="M 105.5,27.5 C 105.5,27.1667 105.5,26.8333 105.5,26.5C 106.167,26.5 106.833,26.5 107.5,26.5C 107.5,27.1667 107.833,27.5 108.5,27.5C 108.5,28.5 108.5,29.5 108.5,30.5C 107.699,32.0418 107.366,33.7085 107.5,35.5C 106.687,37.2608 105.687,38.9275 104.5,40.5C 103.833,39.5 103.167,38.5 102.5,37.5C 103.5,37.5 104.5,37.5 105.5,37.5C 105.5,35.5 105.5,33.5 105.5,31.5C 104.325,31.719 103.325,31.3857 102.5,30.5C 103.833,29.8333 105.167,29.1667 106.5,28.5C 106.376,27.8933 106.043,27.56 105.5,27.5 Z"/></g>
<g><path style="opacity:1" fill="#1c2218" d="M 91.5,27.5 C 90.0582,28.8195 89.3915,30.4862 89.5,32.5C 84.1857,33.8286 78.8523,35.1619 73.5,36.5C 69.8045,35.9138 66.1379,35.2472 62.5,34.5C 59.2765,35.9409 56.2765,37.6076 53.5,39.5C 51.2512,40.0798 49.5846,41.4131 48.5,43.5C 44.7929,45.6885 41.4595,48.3552 38.5,51.5C 35.5608,53.9883 33.0608,56.9883 31,60.5C 30.0379,64.9732 30.8713,68.9732 33.5,72.5C 31.0433,78.3682 28.8766,84.3682 27,90.5C 26.6667,88.1667 26.3333,85.8333 26,83.5C 25,84.8333 24,84.8333 23,83.5C 21.4227,88.1019 19.5894,92.4353 17.5,96.5C 16.5358,89.5268 18.0358,83.1934 22,77.5C 22.1489,73.8675 22.9823,70.5341 24.5,67.5C 26.5499,63.0437 28.3832,58.3771 30,53.5C 31.6437,50.6894 33.8103,48.356 36.5,46.5C 35.6744,45.549 35.5078,44.549 36,43.5C 40.3672,40.8696 44.2006,37.703 47.5,34C 50.9714,32.4108 54.4714,31.9108 58,32.5C 59.5589,31.9706 61.0589,31.304 62.5,30.5C 70.1014,32.1993 77.4347,31.366 84.5,28C 86.8098,27.5034 89.1432,27.3367 91.5,27.5 Z"/></g>
<g><path style="opacity:1" fill="#759277" d="M 116.5,35.5 C 113.86,36.8201 111.193,38.1534 108.5,39.5C 107.571,38.3112 107.238,36.9778 107.5,35.5C 107.366,33.7085 107.699,32.0418 108.5,30.5C 111.722,28.6903 115.056,27.0236 118.5,25.5C 119.431,29.1151 118.765,32.4485 116.5,35.5 Z"/></g>
<g><path style="opacity:1" fill="#af7104" d="M 195.5,27.5 C 197.565,34.3412 198.898,41.3412 199.5,48.5C 199.564,50.5566 198.898,52.2233 197.5,53.5C 196.791,52.596 195.791,52.2627 194.5,52.5C 195.005,49.1589 195.172,45.8255 195,42.5C 194.692,43.3081 194.192,43.9747 193.5,44.5C 192.534,42.604 192.201,40.604 192.5,38.5C 193.324,34.6877 193.824,30.6877 194,26.5C 194.383,27.056 194.883,27.3893 195.5,27.5 Z"/></g>
<g><path style="opacity:1" fill="#2b2d13" d="M 89.5,32.5 C 89.5,33.1667 89.5,33.8333 89.5,34.5C 82.6437,35.8968 75.977,37.8968 69.5,40.5C 66.9714,39.5511 64.6381,40.2178 62.5,42.5C 61.6143,41.675 61.281,40.675 61.5,39.5C 58.8333,39.5 56.1667,39.5 53.5,39.5C 56.2765,37.6076 59.2765,35.9409 62.5,34.5C 66.1379,35.2472 69.8045,35.9138 73.5,36.5C 78.8523,35.1619 84.1857,33.8286 89.5,32.5 Z"/></g>
<g><path style="opacity:1" fill="#1a251e" d="M 212.5,21.5 C 212.671,22.8793 212.838,24.5459 213,26.5C 213.689,25.6433 214.522,24.9767 215.5,24.5C 216.044,27.7139 217.044,30.7139 218.5,33.5C 217.689,34.2164 217.022,35.0497 216.5,36C 217.233,37.7659 217.567,39.5992 217.5,41.5C 215.61,38.8623 214.277,35.8623 213.5,32.5C 212.147,35.5454 212.48,38.3788 214.5,41C 213.991,42.1685 213.158,43.0019 212,43.5C 211.802,41.6183 211.302,39.9516 210.5,38.5C 209.885,34.276 209.552,29.9427 209.5,25.5C 209.619,29.8011 207.619,31.8011 203.5,31.5C 203.737,32.791 203.404,33.791 202.5,34.5C 202.674,32.139 203.007,29.8056 203.5,27.5C 204.219,25.9087 205.219,24.4087 206.5,23C 207.784,22.3162 208.951,22.4829 210,23.5C 210.708,22.6195 211.542,21.9528 212.5,21.5 Z"/></g>
<g><path style="opacity:1" fill="#141302" d="M 89.5,34.5 C 89.5,37.1667 89.5,39.8333 89.5,42.5C 85.9016,47.7682 81.5683,52.4348 76.5,56.5C 64.6924,59.6319 55.3591,66.2986 48.5,76.5C 47.9865,73.4173 46.3198,71.0839 43.5,69.5C 44.8549,68.3247 44.6883,67.3247 43,66.5C 42.6667,66.8333 42.3333,67.1667 42,67.5C 41.8784,65.563 41.045,64.2297 39.5,63.5C 39.5,63.1667 39.5,62.8333 39.5,62.5C 46.1821,55.3156 53.8488,49.3156 62.5,44.5C 64.6705,42.9138 67.0038,41.5804 69.5,40.5C 75.977,37.8968 82.6437,35.8968 89.5,34.5 Z"/></g>
<g><path style="opacity:1" fill="#cfc29e" d="M 151.5,52.5 C 148.795,50.4884 146.128,48.4884 143.5,46.5C 144.496,46.5858 145.329,46.2524 146,45.5C 146.219,44.062 146.719,42.7287 147.5,41.5C 148.794,43.9617 150.294,46.2951 152,48.5C 152.925,47.9535 153.758,47.2868 154.5,46.5C 153.196,40.6147 151.863,34.7813 150.5,29C 152.125,26.8635 151.792,25.1968 149.5,24C 149.766,20.7993 148.6,20.6327 146,23.5C 145.303,28.0316 143.136,31.6983 139.5,34.5C 140.824,37.1977 140.824,39.8643 139.5,42.5C 137.668,41.7515 136.001,40.7515 134.5,39.5C 134.751,37.8297 135.418,36.3297 136.5,35C 134.246,33.9461 133.913,32.4461 135.5,30.5C 141.97,29.4799 144.97,25.8132 144.5,19.5C 145.873,19.6567 147.207,19.49 148.5,19C 149.184,15.0778 151.518,13.5778 155.5,14.5C 155.5,15.8333 155.5,17.1667 155.5,18.5C 156.5,18.5 157.5,18.5 158.5,18.5C 158.281,19.675 158.614,20.675 159.5,21.5C 161.002,22.0831 162.335,22.9164 163.5,24C 161.423,24.1922 159.423,24.6922 157.5,25.5C 158.167,26.5 158.833,27.5 159.5,28.5C 157.275,30.5622 156.942,32.8955 158.5,35.5C 157.389,36.6113 156.722,37.9446 156.5,39.5C 157.5,41.5 158.5,43.5 159.5,45.5C 160.167,44.1667 160.833,42.8333 161.5,41.5C 162.425,40.3595 163.259,40.3595 164,41.5C 164.304,43.4405 165.137,45.1072 166.5,46.5C 165.691,48.0709 165.357,49.7376 165.5,51.5C 160.833,51.8333 156.167,52.1667 151.5,52.5 Z"/></g>
<g><path style="opacity:1" fill="#ddd5bc" d="M 143.5,46.5 C 141.833,45.5 140.5,44.1667 139.5,42.5C 140.824,39.8643 140.824,37.1977 139.5,34.5C 143.136,31.6983 145.303,28.0316 146,23.5C 148.6,20.6327 149.766,20.7993 149.5,24C 151.792,25.1968 152.125,26.8635 150.5,29C 151.863,34.7813 153.196,40.6147 154.5,46.5C 153.758,47.2868 152.925,47.9535 152,48.5C 150.294,46.2951 148.794,43.9617 147.5,41.5C 146.719,42.7287 146.219,44.062 146,45.5C 145.329,46.2524 144.496,46.5858 143.5,46.5 Z"/></g>
<g><path style="opacity:1" fill="#51705c" d="M 210.5,38.5 C 210.5,40.8333 210.5,43.1667 210.5,45.5C 209.549,44.0813 209.216,42.4147 209.5,40.5C 207.208,40.7564 205.041,40.4231 203,39.5C 202.517,40.448 202.351,41.448 202.5,42.5C 202.5,44.1667 202.5,45.8333 202.5,47.5C 201.429,43.3224 201.429,38.9891 202.5,34.5C 203.404,33.791 203.737,32.791 203.5,31.5C 207.619,31.8011 209.619,29.8011 209.5,25.5C 209.552,29.9427 209.885,34.276 210.5,38.5 Z"/></g>
<g><path style="opacity:1" fill="#4e542a" d="M 53.5,39.5 C 56.1667,39.5 58.8333,39.5 61.5,39.5C 61.281,40.675 61.6143,41.675 62.5,42.5C 64.6381,40.2178 66.9714,39.5511 69.5,40.5C 67.0038,41.5804 64.6705,42.9138 62.5,44.5C 61.2541,41.7677 59.0875,40.4344 56,40.5C 53.1955,40.8209 50.6955,41.8209 48.5,43.5C 49.5846,41.4131 51.2512,40.0798 53.5,39.5 Z"/></g>
<g><path style="opacity:1" fill="#0f1612" d="M 92.5,26.5 C 92.5,27.1667 92.1667,27.5 91.5,27.5C 89.1432,27.3367 86.8098,27.5034 84.5,28C 77.4347,31.366 70.1014,32.1993 62.5,30.5C 61.0589,31.304 59.5589,31.9706 58,32.5C 54.4714,31.9108 50.9714,32.4108 47.5,34C 44.2006,37.703 40.3672,40.8696 36,43.5C 35.5078,44.549 35.6744,45.549 36.5,46.5C 33.8103,48.356 31.6437,50.6894 30,53.5C 28.3832,58.3771 26.5499,63.0437 24.5,67.5C 24.9651,63.6006 25.6318,59.7672 26.5,56C 25.1354,54.3181 23.6354,54.1514 22,55.5C 21.8333,55 21.6667,54.5 21.5,54C 27.1791,43.9891 35.1791,36.3224 45.5,31C 53.5992,29.1325 61.5992,26.9659 69.5,24.5C 69.4609,26.3588 70.2942,27.6921 72,28.5C 78.631,27.8881 85.4643,27.2214 92.5,26.5 Z"/></g>
<g><path style="opacity:1" fill="#a08465" d="M 92.5,26.5 C 93.1667,26.5 93.8333,26.5 94.5,26.5C 97.1401,27.421 99.9735,28.0877 103,28.5C 104.07,28.472 104.903,28.1386 105.5,27.5C 106.043,27.56 106.376,27.8933 106.5,28.5C 105.167,29.1667 103.833,29.8333 102.5,30.5C 103.325,31.3857 104.325,31.719 105.5,31.5C 105.5,33.5 105.5,35.5 105.5,37.5C 104.5,37.5 103.5,37.5 102.5,37.5C 100.116,33.1104 96.4495,30.777 91.5,30.5C 91.1924,32.924 91.5258,35.2573 92.5,37.5C 93.3857,36.675 93.719,35.675 93.5,34.5C 96.1008,35.2796 98.1008,36.9463 99.5,39.5C 99.0133,40.4461 98.6799,41.4461 98.5,42.5C 98.6762,46.0042 99.6762,49.0042 101.5,51.5C 102.404,52.209 102.737,53.209 102.5,54.5C 101.61,57.9484 99.9432,60.9484 97.5,63.5C 95.4832,62.4706 93.4832,61.4706 91.5,60.5C 91.7947,58.2646 91.4614,56.2646 90.5,54.5C 90.5,52.8333 90.5,51.1667 90.5,49.5C 90.8016,46.9407 90.4682,44.6074 89.5,42.5C 89.5,39.8333 89.5,37.1667 89.5,34.5C 89.5,33.8333 89.5,33.1667 89.5,32.5C 89.3915,30.4862 90.0582,28.8195 91.5,27.5C 92.1667,27.5 92.5,27.1667 92.5,26.5 Z"/></g>
<g><path style="opacity:1" fill="#63644c" d="M 140.5,47.5 C 137.247,46.4683 134.081,45.135 131,43.5C 130.235,43.5699 129.735,43.9033 129.5,44.5C 128.599,43.7095 127.932,42.7095 127.5,41.5C 129.418,42.0113 131.585,42.0113 134,41.5C 135.3,43.4593 137.133,44.626 139.5,45C 140.252,45.6708 140.586,46.5041 140.5,47.5 Z"/></g>
<g><path style="opacity:1" fill="#332b1f" d="M 140.5,47.5 C 143.267,48.0507 145.6,49.3841 147.5,51.5C 147.043,52.2975 146.376,52.6309 145.5,52.5C 144.833,51.8333 144.167,51.1667 143.5,50.5C 141.735,49.5386 139.735,49.2053 137.5,49.5C 135.65,47.4284 133.317,46.0951 130.5,45.5C 129.833,45.5 129.5,45.1667 129.5,44.5C 129.735,43.9033 130.235,43.5699 131,43.5C 134.081,45.135 137.247,46.4683 140.5,47.5 Z"/></g>
<g><path style="opacity:1" fill="#8c8963" d="M 128.5,38.5 C 130.373,38.5173 132.373,38.8506 134.5,39.5C 136.001,40.7515 137.668,41.7515 139.5,42.5C 140.5,44.1667 141.833,45.5 143.5,46.5C 146.128,48.4884 148.795,50.4884 151.5,52.5C 151.833,53.1667 152.167,53.8333 152.5,54.5C 151.833,54.5 151.167,54.5 150.5,54.5C 148.5,54.5 146.5,54.5 144.5,54.5C 143.833,54.5 143.5,54.1667 143.5,53.5C 144.492,53.6716 145.158,53.3382 145.5,52.5C 146.376,52.6309 147.043,52.2975 147.5,51.5C 145.6,49.3841 143.267,48.0507 140.5,47.5C 140.586,46.5041 140.252,45.6708 139.5,45C 137.133,44.626 135.3,43.4593 134,41.5C 131.585,42.0113 129.418,42.0113 127.5,41.5C 124.662,39.6941 124.995,38.6941 128.5,38.5 Z"/></g>
<g><path style="opacity:1" fill="#451d14" d="M 102.5,37.5 C 103.167,38.5 103.833,39.5 104.5,40.5C 104.577,44.5322 103.577,48.1989 101.5,51.5C 99.6762,49.0042 98.6762,46.0042 98.5,42.5C 98.6799,41.4461 99.0133,40.4461 99.5,39.5C 98.1008,36.9463 96.1008,35.2796 93.5,34.5C 93.719,35.675 93.3857,36.675 92.5,37.5C 91.5258,35.2573 91.1924,32.924 91.5,30.5C 96.4495,30.777 100.116,33.1104 102.5,37.5 Z"/></g>
<g><path style="opacity:1" fill="#4a6a54" d="M 95.5,67.5 C 96.1667,66.1667 96.8333,64.8333 97.5,63.5C 99.9432,60.9484 101.61,57.9484 102.5,54.5C 104.5,53.024 106.167,51.1906 107.5,49C 108.793,48.51 110.127,48.3433 111.5,48.5C 111.662,50.5273 111.495,52.5273 111,54.5C 107.933,57.7064 105.599,61.3731 104,65.5C 101.594,68.3108 98.761,68.9775 95.5,67.5 Z"/></g>
<g><path style="opacity:1" fill="#4d2d1b" d="M 130.5,45.5 C 133.317,46.0951 135.65,47.4284 137.5,49.5C 134.696,50.6378 131.696,50.8045 128.5,50C 128.167,49.6667 127.833,49.3333 127.5,49C 128.365,47.6412 129.365,46.4745 130.5,45.5 Z"/></g>
<g><path style="opacity:1" fill="#798242" d="M 62.5,44.5 C 53.8488,49.3156 46.1821,55.3156 39.5,62.5C 38.6491,60.2903 37.3157,58.2903 35.5,56.5C 36.7629,54.9713 37.7629,53.3046 38.5,51.5C 41.4595,48.3552 44.7929,45.6885 48.5,43.5C 50.6955,41.8209 53.1955,40.8209 56,40.5C 59.0875,40.4344 61.2541,41.7677 62.5,44.5 Z"/></g>
<g><path style="opacity:1" fill="#c5d394" d="M 143.5,50.5 C 144.167,51.1667 144.833,51.8333 145.5,52.5C 145.158,53.3382 144.492,53.6716 143.5,53.5C 142.041,53.5674 140.708,53.2341 139.5,52.5C 139.389,51.8826 139.056,51.3826 138.5,51C 140.134,50.5065 141.801,50.3398 143.5,50.5 Z"/></g>
<g><path style="opacity:1" fill="#7f3629" d="M 89.5,42.5 C 90.4682,44.6074 90.8016,46.9407 90.5,49.5C 89.5,50.1667 88.5,50.8333 87.5,51.5C 88.2178,49.8632 88.3845,48.1966 88,46.5C 85.4765,50.8882 82.9765,55.2215 80.5,59.5C 79.0384,60.4577 77.7051,61.6244 76.5,63C 75.2068,63.49 73.8734,63.6567 72.5,63.5C 74.2516,61.7541 75.5849,59.7541 76.5,57.5C 76.5,57.1667 76.5,56.8333 76.5,56.5C 81.5683,52.4348 85.9016,47.7682 89.5,42.5 Z"/></g>
<g><path style="opacity:1" fill="#df8a01" d="M 194.5,52.5 C 195.791,52.2627 196.791,52.596 197.5,53.5C 196.89,54.391 196.557,55.391 196.5,56.5C 195.739,57.3909 194.739,58.0576 193.5,58.5C 192.133,57.7745 190.8,57.1079 189.5,56.5C 190.507,54.478 192.174,53.1447 194.5,52.5 Z"/></g>
<g><path style="opacity:1" fill="#7c5f40" d="M 139.5,52.5 C 140.708,53.2341 142.041,53.5674 143.5,53.5C 143.5,54.1667 143.833,54.5 144.5,54.5C 143.665,55.9432 142.332,56.9432 140.5,57.5C 141.602,58.1757 142.602,58.8423 143.5,59.5C 141.435,59.4828 139.435,59.1495 137.5,58.5C 137.196,57.8501 136.863,57.1835 136.5,56.5C 137.694,55.2008 138.694,53.8675 139.5,52.5 Z"/></g>
<g><path style="opacity:1" fill="#5a3e22" d="M 190.5,20.5 C 191.268,21.2625 191.768,22.2625 192,23.5C 192.499,28.4889 192.666,33.4889 192.5,38.5C 192.201,40.604 192.534,42.604 193.5,44.5C 194.192,43.9747 194.692,43.3081 195,42.5C 195.172,45.8255 195.005,49.1589 194.5,52.5C 192.174,53.1447 190.507,54.478 189.5,56.5C 189.34,58.153 188.674,59.4863 187.5,60.5C 183.906,58.7303 180.24,58.3969 176.5,59.5C 175.833,59.5 175.167,59.5 174.5,59.5C 174.167,59.5 173.833,59.5 173.5,59.5C 167.392,56.2644 162.059,57.2644 157.5,62.5C 157.167,62.5 156.833,62.5 156.5,62.5C 152.269,61.3849 147.936,60.3849 143.5,59.5C 142.602,58.8423 141.602,58.1757 140.5,57.5C 142.332,56.9432 143.665,55.9432 144.5,54.5C 146.5,54.5 148.5,54.5 150.5,54.5C 149.048,55.3019 147.382,55.8019 145.5,56C 149.679,59.0865 154.346,59.9198 159.5,58.5C 158.053,57.0652 156.386,56.0652 154.5,55.5C 155.167,55.5 155.833,55.5 156.5,55.5C 159.85,55.665 163.183,55.4983 166.5,55C 167.874,51.5899 168.541,51.7566 168.5,55.5C 172.512,56.1126 174.512,54.4459 174.5,50.5C 175.751,52.7246 175.418,54.8912 173.5,57C 176.592,57.7358 179.592,57.5691 182.5,56.5C 183.552,56.6495 184.552,56.4828 185.5,56C 186.819,53.7148 188.319,51.5482 190,49.5C 189.836,39.5558 190.003,29.8892 190.5,20.5 Z"/></g>
<g><path style="opacity:1" fill="#aea68b" d="M 92.5,50.5 C 93.4959,50.4142 94.3292,50.7476 95,51.5C 95.2949,53.9306 96.4616,55.764 98.5,57C 97.0448,59.0162 95.0448,59.8495 92.5,59.5C 92.5,56.5 92.5,53.5 92.5,50.5 Z"/></g>
<g><path style="opacity:1" fill="#bfab84" d="M 127.5,51.5 C 125.914,50.5868 124.414,50.5868 123,51.5C 120.941,58.5729 123.441,62.5729 130.5,63.5C 131.167,60.5 131.833,57.5 132.5,54.5C 134.104,55.287 134.771,56.6203 134.5,58.5C 135.5,58.5 136.5,58.5 137.5,58.5C 137.821,60.0481 138.821,60.7148 140.5,60.5C 140.5,61.5 140.5,62.5 140.5,63.5C 136.545,62.8625 133.878,64.3625 132.5,68C 130.071,68.7033 127.738,68.5366 125.5,67.5C 120.089,62.3374 117.756,56.0041 118.5,48.5C 122.081,48.1376 125.081,49.1376 127.5,51.5 Z"/></g>
<g><path style="opacity:1" fill="#39180c" d="M 150.5,54.5 C 151.167,54.5 151.833,54.5 152.5,54.5C 153.167,54.8333 153.833,55.1667 154.5,55.5C 156.386,56.0652 158.053,57.0652 159.5,58.5C 154.346,59.9198 149.679,59.0865 145.5,56C 147.382,55.8019 149.048,55.3019 150.5,54.5 Z"/></g>
<g><path style="opacity:1" fill="#734a0e" d="M 189.5,56.5 C 190.8,57.1079 192.133,57.7745 193.5,58.5C 194.739,58.0576 195.739,57.3909 196.5,56.5C 196.954,58.7411 196.954,60.7411 196.5,62.5C 196.5,61.8333 196.167,61.5 195.5,61.5C 193.417,58.9178 191.083,58.9178 188.5,61.5C 187.893,61.3764 187.56,61.0431 187.5,60.5C 188.674,59.4863 189.34,58.153 189.5,56.5 Z"/></g>
<g><path style="opacity:1" fill="#d8d1bc" d="M 127.5,51.5 C 129.001,52.7515 130.668,53.7515 132.5,54.5C 131.833,57.5 131.167,60.5 130.5,63.5C 123.441,62.5729 120.941,58.5729 123,51.5C 124.414,50.5868 125.914,50.5868 127.5,51.5 Z"/></g>
<g><path style="opacity:1" fill="#9c382b" d="M 80.5,59.5 C 80.2714,61.433 79.4381,63.0997 78,64.5C 76.0549,73.4959 76.0549,82.4959 78,91.5C 78.3826,92.056 78.8826,92.3893 79.5,92.5C 79.0679,93.7095 78.4013,94.7095 77.5,95.5C 76.448,95.6495 75.448,95.4828 74.5,95C 74.8333,94.6667 75.1667,94.3333 75.5,94C 73.9903,92.6487 72.9903,90.982 72.5,89C 72.3157,86.057 72.3157,83.057 72.5,80C 70.8216,77.1422 69.8216,73.9756 69.5,70.5C 70.5,69.6667 71.5,68.8333 72.5,68C 71.5868,66.5861 71.5868,65.0861 72.5,63.5C 73.8734,63.6567 75.2068,63.49 76.5,63C 77.7051,61.6244 79.0384,60.4577 80.5,59.5 Z"/></g>
<g><path style="opacity:1" fill="#55614b" d="M 107.5,35.5 C 107.238,36.9778 107.571,38.3112 108.5,39.5C 111.193,38.1534 113.86,36.8201 116.5,35.5C 117.492,35.3284 118.158,35.6618 118.5,36.5C 118.663,45.6808 116.996,54.5141 113.5,63C 114.414,64.4064 115.08,65.9064 115.5,67.5C 113.983,67.5106 112.816,68.1772 112,69.5C 110.75,68.4267 109.416,68.4267 108,69.5C 107.5,69.3333 107,69.1667 106.5,69C 107.517,67.9505 107.684,66.7839 107,65.5C 104.5,67.3333 102.333,69.5 100.5,72C 94.6757,73.4874 91.3424,77.154 90.5,83C 93.3161,82.006 96.3161,81.1727 99.5,80.5C 103.662,81.7792 107.829,81.7792 112,80.5C 113.167,80.6667 114.333,80.8333 115.5,81C 112.861,82.9464 109.861,83.9464 106.5,84C 110.025,84.1787 113.359,84.6787 116.5,85.5C 116.167,85.5 115.833,85.5 115.5,85.5C 112.833,85.8333 110.167,86.1667 107.5,86.5C 101.144,85.2497 95.144,86.583 89.5,90.5C 89.5222,89.2599 88.8556,87.9266 87.5,86.5C 88.2217,84.0557 89.2217,81.7223 90.5,79.5C 90.3764,78.8933 90.0431,78.56 89.5,78.5C 89.5,78.1667 89.5,77.8333 89.5,77.5C 90.4977,73.4945 92.4977,70.1612 95.5,67.5C 98.761,68.9775 101.594,68.3108 104,65.5C 105.599,61.3731 107.933,57.7064 111,54.5C 111.495,52.5273 111.662,50.5273 111.5,48.5C 110.127,48.3433 108.793,48.51 107.5,49C 106.167,51.1906 104.5,53.024 102.5,54.5C 102.737,53.209 102.404,52.209 101.5,51.5C 103.577,48.1989 104.577,44.5322 104.5,40.5C 105.687,38.9275 106.687,37.2608 107.5,35.5 Z"/></g>
<g><path style="opacity:1" fill="#424926" d="M 38.5,51.5 C 37.7629,53.3046 36.7629,54.9713 35.5,56.5C 37.3157,58.2903 38.6491,60.2903 39.5,62.5C 39.5,62.8333 39.5,63.1667 39.5,63.5C 37.2651,66.2911 35.2651,69.2911 33.5,72.5C 30.8713,68.9732 30.0379,64.9732 31,60.5C 33.0608,56.9883 35.5608,53.9883 38.5,51.5 Z"/></g>
<g><path style="opacity:1" fill="#0c0b01" d="M 39.5,63.5 C 41.045,64.2297 41.8784,65.563 42,67.5C 42.3333,67.1667 42.6667,66.8333 43,66.5C 44.6883,67.3247 44.8549,68.3247 43.5,69.5C 46.3198,71.0839 47.9865,73.4173 48.5,76.5C 37.1211,97.7632 34.1211,120.097 39.5,143.5C 33.1667,143.5 26.8333,143.5 20.5,143.5C 17.9535,140.384 16.4535,136.717 16,132.5C 15.2608,120.43 15.7608,108.43 17.5,96.5C 19.5894,92.4353 21.4227,88.1019 23,83.5C 24,84.8333 25,84.8333 26,83.5C 26.3333,85.8333 26.6667,88.1667 27,90.5C 28.8766,84.3682 31.0433,78.3682 33.5,72.5C 35.2651,69.2911 37.2651,66.2911 39.5,63.5 Z"/></g>
<g><path style="opacity:1" fill="#b49d6d" d="M 91.5,60.5 C 93.4832,61.4706 95.4832,62.4706 97.5,63.5C 96.8333,64.8333 96.1667,66.1667 95.5,67.5C 92.4977,70.1612 90.4977,73.4945 89.5,77.5C 88.3567,74.0242 88.1901,70.3575 89,66.5C 89.2401,64.1484 90.0735,62.1484 91.5,60.5 Z"/></g>
<g><path style="opacity:1" fill="#a9865f" d="M 137.5,58.5 C 139.435,59.1495 141.435,59.4828 143.5,59.5C 147.936,60.3849 152.269,61.3849 156.5,62.5C 149.791,63.7954 143.124,65.6288 136.5,68C 134.686,70.4815 134.02,73.3148 134.5,76.5C 137.5,76.5 140.5,76.5 143.5,76.5C 142.494,77.3957 142.494,78.0623 143.5,78.5C 141.833,80.8333 139.833,82.8333 137.5,84.5C 135.632,83.7368 133.965,82.7368 132.5,81.5C 131.859,80.5178 131.193,79.5178 130.5,78.5C 131.407,75.5788 131.74,72.5788 131.5,69.5C 126.821,69.6658 122.155,69.4992 117.5,69C 116.944,68.6174 116.611,68.1174 116.5,67.5C 119.5,67.5 122.5,67.5 125.5,67.5C 127.738,68.5366 130.071,68.7033 132.5,68C 133.878,64.3625 136.545,62.8625 140.5,63.5C 140.5,62.5 140.5,61.5 140.5,60.5C 138.821,60.7148 137.821,60.0481 137.5,58.5 Z"/></g>
<g><path style="opacity:1" fill="#2e130d" d="M 90.5,54.5 C 91.4614,56.2646 91.7947,58.2646 91.5,60.5C 90.0735,62.1484 89.2401,64.1484 89,66.5C 88.1901,70.3575 88.3567,74.0242 89.5,77.5C 89.5,77.8333 89.5,78.1667 89.5,78.5C 88.1667,80.5 86.8333,82.5 85.5,84.5C 85.3337,77.825 85.5004,71.1583 86,64.5C 86.8523,60.7359 88.3523,57.4026 90.5,54.5 Z"/></g>
<g><path style="opacity:1" fill="#896c4a" d="M 115.5,67.5 C 115.833,67.5 116.167,67.5 116.5,67.5C 116.611,68.1174 116.944,68.6174 117.5,69C 122.155,69.4992 126.821,69.6658 131.5,69.5C 131.74,72.5788 131.407,75.5788 130.5,78.5C 131.193,79.5178 131.859,80.5178 132.5,81.5C 126.649,79.5705 121.315,76.5705 116.5,72.5C 115.548,70.9547 115.215,69.288 115.5,67.5 Z"/></g>
<g><path style="opacity:1" fill="#9d562e" d="M 153.5,67.5 C 153.938,67.4346 154.272,67.6012 154.5,68C 153.29,69.0391 152.29,70.2058 151.5,71.5C 149.477,74.5203 146.81,76.8536 143.5,78.5C 142.494,78.0623 142.494,77.3957 143.5,76.5C 146.833,73.5 150.167,70.5 153.5,67.5 Z"/></g>
<g><path style="opacity:1" fill="#0c0e09" d="M 230.5,143.5 C 221.5,143.5 212.5,143.5 203.5,143.5C 203.709,142.078 204.209,140.745 205,139.5C 205.667,138.167 206.333,138.167 207,139.5C 209.303,138.256 209.803,136.589 208.5,134.5C 209.085,131.497 209.752,128.497 210.5,125.5C 211.167,126.5 211.833,127.5 212.5,128.5C 213.917,119.109 213.75,109.776 212,100.5C 208.619,99.9513 206.786,97.9513 206.5,94.5C 205.817,94.1373 205.15,93.8039 204.5,93.5C 203.584,84.5821 200.418,76.5821 195,69.5C 194.391,66.9348 194.891,64.6015 196.5,62.5C 196.954,60.7411 196.954,58.7411 196.5,56.5C 196.557,55.391 196.89,54.391 197.5,53.5C 198.898,52.2233 199.564,50.5566 199.5,48.5C 198.898,41.3412 197.565,34.3412 195.5,27.5C 195.5,27.1667 195.5,26.8333 195.5,26.5C 196.931,27.9025 198.098,29.5692 199,31.5C 200.252,29.9991 201.252,28.3325 202,26.5C 202.383,27.056 202.883,27.3893 203.5,27.5C 203.007,29.8056 202.674,32.139 202.5,34.5C 201.429,38.9891 201.429,43.3224 202.5,47.5C 202.983,53.0823 204.316,58.4156 206.5,63.5C 206.66,65.153 207.326,66.4863 208.5,67.5C 209.642,71.1168 211.308,74.4502 213.5,77.5C 215.28,80.4539 217.28,83.2872 219.5,86C 222.517,86.8218 224.183,85.6551 224.5,82.5C 222.912,78.3462 221.746,74.0129 221,69.5C 219.113,67.9739 218.113,65.9739 218,63.5C 217.329,62.7476 216.496,62.4142 215.5,62.5C 215.5,62.1667 215.5,61.8333 215.5,61.5C 215.47,60.5028 215.97,59.8361 217,59.5C 220.014,62.8472 223.348,65.8472 227,68.5C 227.483,67.552 227.649,66.552 227.5,65.5C 228.552,65.6495 229.552,65.4828 230.5,65C 228.833,64.6667 227.167,64.3333 225.5,64C 222.631,60.7959 219.465,57.9626 216,55.5C 213.608,51.3435 214.108,50.3435 217.5,52.5C 218.167,51.8333 218.833,51.1667 219.5,50.5C 220.891,51.6446 222.224,51.6446 223.5,50.5C 221.535,49.7078 219.535,49.0412 217.5,48.5C 216.614,47.675 216.281,46.675 216.5,45.5C 218.226,45.8146 219.893,45.9813 221.5,46C 219.93,44.6032 218.596,43.1032 217.5,41.5C 217.567,39.5992 217.233,37.7659 216.5,36C 217.022,35.0497 217.689,34.2164 218.5,33.5C 217.044,30.7139 216.044,27.7139 215.5,24.5C 214.522,24.9767 213.689,25.6433 213,26.5C 212.838,24.5459 212.671,22.8793 212.5,21.5C 213.93,19.2132 215.93,18.0465 218.5,18C 216.639,19.0283 215.305,20.5283 214.5,22.5C 217.453,24.8521 219.453,24.5188 220.5,21.5C 222.912,23.587 225.412,25.587 228,27.5C 228.684,28.7839 228.517,29.9505 227.5,31C 228,31.5 228.5,32 229,32.5C 229.508,30.0958 230.675,29.4291 232.5,30.5C 231.311,36.6173 230.311,42.9506 229.5,49.5C 230.879,53.2111 232.213,56.8777 233.5,60.5C 238.697,60.0839 244.031,59.9173 249.5,60C 247.5,61 245.5,62 243.5,63C 244.747,64.4936 244.747,65.9936 243.5,67.5C 243.446,66.4699 243.112,65.3033 242.5,64C 240.598,62.6989 238.598,62.0322 236.5,62C 240.168,64.7251 240.168,67.2251 236.5,69.5C 237.098,70.7946 237.598,72.1279 238,73.5C 241.328,74.803 242.995,77.1364 243,80.5C 241.29,79.0552 239.456,78.2218 237.5,78C 237.043,78.414 236.709,78.914 236.5,79.5C 237.908,80.2432 239.241,81.0766 240.5,82C 238.714,82.1962 237.381,83.0295 236.5,84.5C 237.972,87.8054 240.305,90.3054 243.5,92C 239.454,92.3243 236.621,90.491 235,86.5C 234.5,87 234,87.5 233.5,88C 235.972,89.6013 236.972,91.6013 236.5,94C 239.194,96.6937 241.86,99.3604 244.5,102C 243.72,103.073 243.887,104.24 245,105.5C 245.333,105.167 245.667,104.833 246,104.5C 246.903,105.701 248.069,106.535 249.5,107C 248.594,109.447 247.761,111.947 247,114.5C 237.65,107.482 229.317,99.4823 222,90.5C 221.5,92 221,93.5 220.5,95C 223.013,97.1872 225.18,99.6872 227,102.5C 227.07,110.077 229.237,116.911 233.5,123C 233,123.5 232.5,124 232,124.5C 231.103,130.806 230.603,137.139 230.5,143.5 Z"/></g>
<g><path style="opacity:1" fill="#4f6e5a" d="M 213.5,60.5 C 214.167,60.8333 214.833,61.1667 215.5,61.5C 215.5,61.8333 215.5,62.1667 215.5,62.5C 217.952,64.754 217.952,66.9207 215.5,69C 217.206,72.5169 216.539,75.3502 213.5,77.5C 211.308,74.4502 209.642,71.1168 208.5,67.5C 209.302,66.0484 209.802,64.3817 210,62.5C 211.302,61.9152 212.469,61.2485 213.5,60.5 Z"/></g>
<g><path style="opacity:1" fill="#78a08e" d="M 210.5,45.5 C 210.973,50.6862 211.973,55.6862 213.5,60.5C 212.469,61.2485 211.302,61.9152 210,62.5C 209.802,64.3817 209.302,66.0484 208.5,67.5C 207.326,66.4863 206.66,65.153 206.5,63.5C 207.374,59.6292 208.708,55.7959 210.5,52C 210.01,48.8555 208.843,46.0221 207,43.5C 205.644,42.6198 204.144,42.2865 202.5,42.5C 202.351,41.448 202.517,40.448 203,39.5C 205.041,40.4231 207.208,40.7564 209.5,40.5C 209.216,42.4147 209.549,44.0813 210.5,45.5 Z"/></g>
<g><path style="opacity:1" fill="#25342a" d="M 217.5,41.5 C 218.596,43.1032 219.93,44.6032 221.5,46C 219.893,45.9813 218.226,45.8146 216.5,45.5C 216.281,46.675 216.614,47.675 217.5,48.5C 219.535,49.0412 221.535,49.7078 223.5,50.5C 222.224,51.6446 220.891,51.6446 219.5,50.5C 218.833,51.1667 218.167,51.8333 217.5,52.5C 214.108,50.3435 213.608,51.3435 216,55.5C 219.465,57.9626 222.631,60.7959 225.5,64C 227.167,64.3333 228.833,64.6667 230.5,65C 229.552,65.4828 228.552,65.6495 227.5,65.5C 227.649,66.552 227.483,67.552 227,68.5C 223.348,65.8472 220.014,62.8472 217,59.5C 215.97,59.8361 215.47,60.5028 215.5,61.5C 214.833,61.1667 214.167,60.8333 213.5,60.5C 211.973,55.6862 210.973,50.6862 210.5,45.5C 210.5,43.1667 210.5,40.8333 210.5,38.5C 211.302,39.9516 211.802,41.6183 212,43.5C 213.158,43.0019 213.991,42.1685 214.5,41C 212.48,38.3788 212.147,35.5454 213.5,32.5C 214.277,35.8623 215.61,38.8623 217.5,41.5 Z"/></g>
<g><path style="opacity:1" fill="#92beb6" d="M 202.5,42.5 C 204.144,42.2865 205.644,42.6198 207,43.5C 208.843,46.0221 210.01,48.8555 210.5,52C 208.708,55.7959 207.374,59.6292 206.5,63.5C 204.316,58.4156 202.983,53.0823 202.5,47.5C 202.5,45.8333 202.5,44.1667 202.5,42.5 Z"/></g>
<g><path style="opacity:1" fill="#cbb897" d="M 156.5,62.5 C 156.833,62.5 157.167,62.5 157.5,62.5C 158.675,62.281 159.675,62.6143 160.5,63.5C 157.498,63.8699 155.165,65.2032 153.5,67.5C 150.167,70.5 146.833,73.5 143.5,76.5C 140.5,76.5 137.5,76.5 134.5,76.5C 134.02,73.3148 134.686,70.4815 136.5,68C 143.124,65.6288 149.791,63.7954 156.5,62.5 Z"/></g>
<g><path style="opacity:1" fill="#ad4c3a" d="M 87.5,51.5 C 85.7021,56.5396 84.0354,61.5396 82.5,66.5C 80.7847,74.2643 80.118,82.2643 80.5,90.5C 80.1667,91.1667 79.8333,91.8333 79.5,92.5C 78.8826,92.3893 78.3826,92.056 78,91.5C 76.0549,82.4959 76.0549,73.4959 78,64.5C 79.4381,63.0997 80.2714,61.433 80.5,59.5C 82.9765,55.2215 85.4765,50.8882 88,46.5C 88.3845,48.1966 88.2178,49.8632 87.5,51.5 Z"/></g>
<g><path style="opacity:1" fill="#0d0000" d="M 76.5,56.5 C 76.5,56.8333 76.5,57.1667 76.5,57.5C 68.6382,62.8514 63.3049,70.0181 60.5,79C 57.8207,90.7269 57.1541,102.56 58.5,114.5C 60.6158,119.733 62.4491,125.066 64,130.5C 67.5362,134.239 70.0362,138.573 71.5,143.5C 60.8333,143.5 50.1667,143.5 39.5,143.5C 34.1211,120.097 37.1211,97.7632 48.5,76.5C 55.3591,66.2986 64.6924,59.6319 76.5,56.5 Z"/></g>
<g><path style="opacity:1" fill="#607258" d="M 115.5,67.5 C 115.215,69.288 115.548,70.9547 116.5,72.5C 121.315,76.5705 126.649,79.5705 132.5,81.5C 133.965,82.7368 135.632,83.7368 137.5,84.5C 137.158,85.3382 136.492,85.6716 135.5,85.5C 131.808,83.0668 127.641,82.0668 123,82.5C 120.5,82.6667 118,82.8333 115.5,83C 117.9,83.1858 120.234,83.6858 122.5,84.5C 120.604,85.4656 118.604,85.7989 116.5,85.5C 113.359,84.6787 110.025,84.1787 106.5,84C 109.861,83.9464 112.861,82.9464 115.5,81C 114.333,80.8333 113.167,80.6667 112,80.5C 107.829,81.7792 103.662,81.7792 99.5,80.5C 96.3161,81.1727 93.3161,82.006 90.5,83C 91.3424,77.154 94.6757,73.4874 100.5,72C 102.333,69.5 104.5,67.3333 107,65.5C 107.684,66.7839 107.517,67.9505 106.5,69C 107,69.1667 107.5,69.3333 108,69.5C 109.416,68.4267 110.75,68.4267 112,69.5C 112.816,68.1772 113.983,67.5106 115.5,67.5 Z"/></g>
<g><path style="opacity:1" fill="#bba17e" d="M 173.5,59.5 C 173.666,66.175 173.5,72.8417 173,79.5C 171.624,80.7051 170.458,82.0384 169.5,83.5C 167.184,82.1944 164.85,80.8611 162.5,79.5C 160.791,76.4649 158.457,75.4649 155.5,76.5C 153.926,75.0158 152.593,73.3492 151.5,71.5C 152.29,70.2058 153.29,69.0391 154.5,68C 154.272,67.6012 153.938,67.4346 153.5,67.5C 155.165,65.2032 157.498,63.8699 160.5,63.5C 159.675,62.6143 158.675,62.281 157.5,62.5C 162.059,57.2644 167.392,56.2644 173.5,59.5 Z"/></g>
<g><path style="opacity:1" fill="#d9cdb7" d="M 165.5,58.5 C 166.5,58.5 167.5,58.5 168.5,58.5C 168.666,63.8437 168.499,69.1771 168,74.5C 166.222,77.1321 164.722,76.9654 163.5,74C 165.214,68.9834 165.881,63.8167 165.5,58.5 Z"/></g>
<g><path style="opacity:1" fill="#895d34" d="M 173.5,59.5 C 173.833,59.5 174.167,59.5 174.5,59.5C 174.441,64.6899 174.775,69.8565 175.5,75C 175.664,77.5437 174.997,79.7103 173.5,81.5C 172.395,82.6005 171.062,83.2671 169.5,83.5C 170.458,82.0384 171.624,80.7051 173,79.5C 173.5,72.8417 173.666,66.175 173.5,59.5 Z"/></g>
<g><path style="opacity:1" fill="#35493d" d="M 215.5,62.5 C 216.496,62.4142 217.329,62.7476 218,63.5C 218.113,65.9739 219.113,67.9739 221,69.5C 221.746,74.0129 222.912,78.3462 224.5,82.5C 224.183,85.6551 222.517,86.8218 219.5,86C 217.28,83.2872 215.28,80.4539 213.5,77.5C 216.539,75.3502 217.206,72.5169 215.5,69C 217.952,66.9207 217.952,64.754 215.5,62.5 Z"/></g>
<g><path style="opacity:1" fill="#be7e09" d="M 174.5,59.5 C 175.167,59.5 175.833,59.5 176.5,59.5C 177.314,61.631 177.814,63.9644 178,66.5C 179.442,68.3911 180.609,70.3911 181.5,72.5C 182.72,74.2837 182.72,75.9504 181.5,77.5C 178.405,68.5068 177.238,68.5068 178,77.5C 177.031,79.7339 175.698,81.7339 174,83.5C 173.536,82.9056 173.369,82.2389 173.5,81.5C 174.997,79.7103 175.664,77.5437 175.5,75C 174.775,69.8565 174.441,64.6899 174.5,59.5 Z"/></g>
<g><path style="opacity:1" fill="#845c12" d="M 192.5,70.5 C 192.325,72.6208 192.659,74.6208 193.5,76.5C 192.616,79.0232 191.782,81.6898 191,84.5C 190.31,85.7383 189.81,85.7383 189.5,84.5C 190.266,79.661 191.266,74.9943 192.5,70.5 Z"/></g>
<g><path style="opacity:1" fill="#c78504" d="M 195.5,61.5 C 196.167,61.5 196.5,61.8333 196.5,62.5C 194.891,64.6015 194.391,66.9348 195,69.5C 200.418,76.5821 203.584,84.5821 204.5,93.5C 204.656,104.52 205.99,115.353 208.5,126C 208.065,129.063 207.232,129.23 206,126.5C 204.353,130.107 203.019,133.774 202,137.5C 202.045,128.164 200.545,119.164 197.5,110.5C 196.697,109.577 196.53,108.577 197,107.5C 199,110.167 201,112.833 203,115.5C 202.27,108.248 200.437,101.248 197.5,94.5C 196.833,93.5 196.167,92.5 195.5,91.5C 193.064,88.4959 193.898,87.8292 198,89.5C 198.227,84.61 196.727,80.2767 193.5,76.5C 192.659,74.6208 192.325,72.6208 192.5,70.5C 192.129,66.9966 193.129,63.9966 195.5,61.5 Z"/></g>
<g><path style="opacity:1" fill="#7d2a20" d="M 82.5,66.5 C 81.4482,73.848 81.4482,81.1813 82.5,88.5C 82.1667,89.5 81.5,90.1667 80.5,90.5C 80.118,82.2643 80.7847,74.2643 82.5,66.5 Z"/></g>
<g><path style="opacity:1" fill="#481510" d="M 90.5,49.5 C 90.5,51.1667 90.5,52.8333 90.5,54.5C 88.3523,57.4026 86.8523,60.7359 86,64.5C 85.5004,71.1583 85.3337,77.825 85.5,84.5C 84.8333,85.5 84.1667,86.5 83.5,87.5C 83.5,88.1667 83.1667,88.5 82.5,88.5C 81.4482,81.1813 81.4482,73.848 82.5,66.5C 84.0354,61.5396 85.7021,56.5396 87.5,51.5C 88.5,50.8333 89.5,50.1667 90.5,49.5 Z"/></g>
<g><path style="opacity:1" fill="#bdbda1" d="M 151.5,71.5 C 152.593,73.3492 153.926,75.0158 155.5,76.5C 156.167,77.5 156.833,78.5 157.5,79.5C 157.649,80.552 157.483,81.552 157,82.5C 154.796,84.6929 152.296,86.5263 149.5,88C 149.833,88.3333 150.167,88.6667 150.5,89C 148.893,90.049 148.227,91.549 148.5,93.5C 152.674,93.3336 156.674,94.0003 160.5,95.5C 160.5,96.1667 160.167,96.5 159.5,96.5C 157.435,96.4828 155.435,96.1495 153.5,95.5C 151.735,94.5386 149.735,94.2053 147.5,94.5C 147.66,92.8008 147.494,91.1341 147,89.5C 146.617,90.056 146.117,90.3893 145.5,90.5C 145.631,89.6236 145.298,88.9569 144.5,88.5C 141.454,90.345 138.12,91.345 134.5,91.5C 133.737,90.7321 132.737,90.2321 131.5,90C 134.447,89.8882 135.78,88.3882 135.5,85.5C 136.492,85.6716 137.158,85.3382 137.5,84.5C 139.833,82.8333 141.833,80.8333 143.5,78.5C 146.81,76.8536 149.477,74.5203 151.5,71.5 Z"/></g>
<g><path style="opacity:1" fill="#704c36" d="M 162.5,79.5 C 164.85,80.8611 167.184,82.1944 169.5,83.5C 169.5,83.8333 169.5,84.1667 169.5,84.5C 165.149,85.467 162.815,83.8004 162.5,79.5 Z"/></g>
<g><path style="opacity:1" fill="#372213" d="M 176.5,59.5 C 180.24,58.3969 183.906,58.7303 187.5,60.5C 187.56,61.0431 187.893,61.3764 188.5,61.5C 191.083,58.9178 193.417,58.9178 195.5,61.5C 193.129,63.9966 192.129,66.9966 192.5,70.5C 191.266,74.9943 190.266,79.661 189.5,84.5C 186.734,87.5491 183.4,89.8824 179.5,91.5C 178.876,93.8337 178.043,96.1671 177,98.5C 174.96,96.6298 173.127,94.6298 171.5,92.5C 172.725,91.8478 173.392,90.6811 173.5,89C 174.068,85.7366 172.734,84.2366 169.5,84.5C 169.5,84.1667 169.5,83.8333 169.5,83.5C 171.062,83.2671 172.395,82.6005 173.5,81.5C 173.369,82.2389 173.536,82.9056 174,83.5C 175.698,81.7339 177.031,79.7339 178,77.5C 177.238,68.5068 178.405,68.5068 181.5,77.5C 182.566,78.6921 183.399,78.3588 184,76.5C 184.718,77.4506 185.551,77.6172 186.5,77C 190.272,72.8874 190.272,68.8874 186.5,65C 185.207,64.51 183.873,64.3433 182.5,64.5C 182.38,66.7345 182.713,68.9011 183.5,71C 183.164,72.0299 182.497,72.5299 181.5,72.5C 180.609,70.3911 179.442,68.3911 178,66.5C 177.814,63.9644 177.314,61.631 176.5,59.5 Z"/></g>
<g><path style="opacity:1" fill="#684927" d="M 181.5,77.5 C 182.72,75.9504 182.72,74.2837 181.5,72.5C 182.497,72.5299 183.164,72.0299 183.5,71C 182.713,68.9011 182.38,66.7345 182.5,64.5C 183.873,64.3433 185.207,64.51 186.5,65C 190.272,68.8874 190.272,72.8874 186.5,77C 185.551,77.6172 184.718,77.4506 184,76.5C 183.399,78.3588 182.566,78.6921 181.5,77.5 Z"/></g>
<g><path style="opacity:1" fill="#3a110a" d="M 162.5,79.5 C 162.815,83.8004 165.149,85.467 169.5,84.5C 172.734,84.2366 174.068,85.7366 173.5,89C 173.392,90.6811 172.725,91.8478 171.5,92.5C 170.833,92.1667 170.167,91.8333 169.5,91.5C 166.527,90.1897 164.193,88.1897 162.5,85.5C 161.28,83.0189 159.614,81.0189 157.5,79.5C 156.833,78.5 156.167,77.5 155.5,76.5C 158.457,75.4649 160.791,76.4649 162.5,79.5 Z"/></g>
<g><path style="opacity:1" fill="#812e22" d="M 72.5,63.5 C 71.5868,65.0861 71.5868,66.5861 72.5,68C 71.5,68.8333 70.5,69.6667 69.5,70.5C 69.8216,73.9756 70.8216,77.1422 72.5,80C 72.3157,83.057 72.3157,86.057 72.5,89C 72.9903,90.982 73.9903,92.6487 75.5,94C 75.1667,94.3333 74.8333,94.6667 74.5,95C 75.448,95.4828 76.448,95.6495 77.5,95.5C 76.3164,100.018 74.6498,104.351 72.5,108.5C 71.8826,108.611 71.3826,108.944 71,109.5C 68.0727,105.099 65.5727,100.432 63.5,95.5C 63.6131,90.0144 63.6131,84.3478 63.5,78.5C 65.4056,74.0778 67.5723,69.7444 70,65.5C 70.7083,64.6195 71.5416,63.9528 72.5,63.5 Z"/></g>
<g><path style="opacity:1" fill="#263328" d="M 89.5,78.5 C 90.0431,78.56 90.3764,78.8933 90.5,79.5C 89.2217,81.7223 88.2217,84.0557 87.5,86.5C 88.8556,87.9266 89.5222,89.2599 89.5,90.5C 95.144,86.583 101.144,85.2497 107.5,86.5C 107.167,86.5 106.833,86.5 106.5,86.5C 100.038,87.4468 94.0378,89.6135 88.5,93C 86.688,94.6269 86.5213,96.1269 88,97.5C 90.235,95.6294 92.735,94.1294 95.5,93C 96.7494,92.2599 97.7494,92.4265 98.5,93.5C 96.3635,94.4026 94.3635,95.5693 92.5,97C 95.4072,96.2636 98.4072,95.9303 101.5,96C 99.8333,97 98.1667,98 96.5,99C 97.3333,99.1667 98.1667,99.3333 99,99.5C 108.842,96.595 118.676,94.2616 128.5,92.5C 130.527,92.3379 132.527,92.5045 134.5,93C 124.249,95.0767 114.249,97.5767 104.5,100.5C 101.208,100.647 98.2084,101.647 95.5,103.5C 93.3285,102.755 90.9952,102.588 88.5,103C 89.3279,102.085 90.3279,101.419 91.5,101C 91,100.5 90.5,100 90,99.5C 88.1019,102.13 86.2686,102.463 84.5,100.5C 83.5224,100.977 82.6891,101.643 82,102.5C 82.8992,99.3676 84.3992,96.3676 86.5,93.5C 85.6872,92.1861 84.6872,91.0195 83.5,90C 84.7736,89.0228 84.7736,88.1894 83.5,87.5C 84.1667,86.5 84.8333,85.5 85.5,84.5C 86.8333,82.5 88.1667,80.5 89.5,78.5 Z"/></g>
<g><path style="opacity:1" fill="#60775f" d="M 115.5,85.5 C 112.851,87.7781 109.851,89.7781 106.5,91.5C 107.5,91.8333 108.5,92.1667 109.5,92.5C 117.805,91.5922 126.139,91.2589 134.5,91.5C 138.12,91.345 141.454,90.345 144.5,88.5C 145.298,88.9569 145.631,89.6236 145.5,90.5C 144.5,92.1667 143.167,93.5 141.5,94.5C 141.631,93.6236 141.298,92.9569 140.5,92.5C 138.739,93.0351 137.406,94.0351 136.5,95.5C 132.042,97.2288 127.709,99.2288 123.5,101.5C 118.183,101.119 113.017,101.786 108,103.5C 107.793,102.095 106.627,101.095 104.5,100.5C 114.249,97.5767 124.249,95.0767 134.5,93C 132.527,92.5045 130.527,92.3379 128.5,92.5C 120.865,91.8973 113.532,92.8973 106.5,95.5C 103.651,95.0356 100.984,94.3689 98.5,93.5C 102.581,92.6776 105.248,90.3443 106.5,86.5C 106.833,86.5 107.167,86.5 107.5,86.5C 110.167,86.1667 112.833,85.8333 115.5,85.5 Z"/></g>
<g><path style="opacity:1" fill="#7d947a" d="M 135.5,85.5 C 135.78,88.3882 134.447,89.8882 131.5,90C 132.737,90.2321 133.737,90.7321 134.5,91.5C 126.139,91.2589 117.805,91.5922 109.5,92.5C 108.5,92.1667 107.5,91.8333 106.5,91.5C 109.851,89.7781 112.851,87.7781 115.5,85.5C 115.833,85.5 116.167,85.5 116.5,85.5C 118.604,85.7989 120.604,85.4656 122.5,84.5C 120.234,83.6858 117.9,83.1858 115.5,83C 118,82.8333 120.5,82.6667 123,82.5C 127.641,82.0668 131.808,83.0668 135.5,85.5 Z"/></g>
<g><path style="opacity:1" fill="#41493d" d="M 193.5,76.5 C 196.727,80.2767 198.227,84.61 198,89.5C 193.898,87.8292 193.064,88.4959 195.5,91.5C 192.111,89.7951 189.445,90.6284 187.5,94C 185.292,94.1909 183.292,94.6909 181.5,95.5C 181.5,96.1667 181.167,96.5 180.5,96.5C 179.549,95.0813 179.216,93.4147 179.5,91.5C 183.4,89.8824 186.734,87.5491 189.5,84.5C 189.81,85.7383 190.31,85.7383 191,84.5C 191.782,81.6898 192.616,79.0232 193.5,76.5 Z"/></g>
<g><path style="opacity:1" fill="#a09970" d="M 157.5,79.5 C 159.614,81.0189 161.28,83.0189 162.5,85.5C 160.977,88.6348 160.31,91.9682 160.5,95.5C 156.674,94.0003 152.674,93.3336 148.5,93.5C 148.227,91.549 148.893,90.049 150.5,89C 150.167,88.6667 149.833,88.3333 149.5,88C 152.296,86.5263 154.796,84.6929 157,82.5C 157.483,81.552 157.649,80.552 157.5,79.5 Z"/></g>
<g><path style="opacity:1" fill="#475442" d="M 106.5,86.5 C 105.248,90.3443 102.581,92.6776 98.5,93.5C 97.7494,92.4265 96.7494,92.2599 95.5,93C 92.735,94.1294 90.235,95.6294 88,97.5C 86.5213,96.1269 86.688,94.6269 88.5,93C 94.0378,89.6135 100.038,87.4468 106.5,86.5 Z"/></g>
<g><path style="opacity:1" fill="#4b5e4c" d="M 128.5,92.5 C 118.676,94.2616 108.842,96.595 99,99.5C 98.1667,99.3333 97.3333,99.1667 96.5,99C 98.1667,98 99.8333,97 101.5,96C 98.4072,95.9303 95.4072,96.2636 92.5,97C 94.3635,95.5693 96.3635,94.4026 98.5,93.5C 100.984,94.3689 103.651,95.0356 106.5,95.5C 113.532,92.8973 120.865,91.8973 128.5,92.5 Z"/></g>
<g><path style="opacity:1" fill="#887a55" d="M 162.5,85.5 C 164.193,88.1897 166.527,90.1897 169.5,91.5C 169.5,93.5 169.5,95.5 169.5,97.5C 167.323,97.5861 165.323,98.2528 163.5,99.5C 162.099,98.4793 160.765,97.4793 159.5,96.5C 160.167,96.5 160.5,96.1667 160.5,95.5C 160.31,91.9682 160.977,88.6348 162.5,85.5 Z"/></g>
<g><path style="opacity:1" fill="#637660" d="M 195.5,91.5 C 196.167,92.5 196.833,93.5 197.5,94.5C 197.018,97.0459 196.018,99.3792 194.5,101.5C 191.573,100.199 188.573,99.199 185.5,98.5C 185.392,101.382 184.226,103.715 182,105.5C 181.506,107.134 181.34,108.801 181.5,110.5C 181.167,110.5 180.833,110.5 180.5,110.5C 180.5,109.833 180.167,109.5 179.5,109.5C 180.644,104.945 181.978,100.445 183.5,96C 182.906,95.5357 182.239,95.369 181.5,95.5C 183.292,94.6909 185.292,94.1909 187.5,94C 189.445,90.6284 192.111,89.7951 195.5,91.5 Z"/></g>
<g><path style="opacity:1" fill="#7b7250" d="M 147.5,94.5 C 149.735,94.2053 151.735,94.5386 153.5,95.5C 155.121,97.1172 157.121,98.2838 159.5,99C 160.712,100.107 160.379,100.607 158.5,100.5C 155.447,100.089 152.447,99.4226 149.5,98.5C 148.818,99.2427 148.151,99.9094 147.5,100.5C 147.5,98.5 147.5,96.5 147.5,94.5 Z"/></g>
<g><path style="opacity:1" fill="#493c29" d="M 169.5,91.5 C 170.167,91.8333 170.833,92.1667 171.5,92.5C 173.127,94.6298 174.96,96.6298 177,98.5C 178.043,96.1671 178.876,93.8337 179.5,91.5C 179.216,93.4147 179.549,95.0813 180.5,96.5C 179.92,98.7488 178.587,100.415 176.5,101.5C 176.217,100.711 175.717,100.044 175,99.5C 173.649,101.019 172.149,102.352 170.5,103.5C 166.552,101.969 162.552,100.969 158.5,100.5C 160.379,100.607 160.712,100.107 159.5,99C 157.121,98.2838 155.121,97.1172 153.5,95.5C 155.435,96.1495 157.435,96.4828 159.5,96.5C 160.765,97.4793 162.099,98.4793 163.5,99.5C 165.323,98.2528 167.323,97.5861 169.5,97.5C 169.5,95.5 169.5,93.5 169.5,91.5 Z"/></g>
<g><path style="opacity:1" fill="#201c11" d="M 204.5,93.5 C 205.15,93.8039 205.817,94.1373 206.5,94.5C 206.786,97.9513 208.619,99.9513 212,100.5C 213.75,109.776 213.917,119.109 212.5,128.5C 211.833,127.5 211.167,126.5 210.5,125.5C 209.752,128.497 209.085,131.497 208.5,134.5C 209.803,136.589 209.303,138.256 207,139.5C 206.333,138.167 205.667,138.167 205,139.5C 204.209,140.745 203.709,142.078 203.5,143.5C 202.833,143.5 202.167,143.5 201.5,143.5C 200.854,141.844 200.187,140.177 199.5,138.5C 200.988,134.076 200.821,129.743 199,125.5C 197.667,128.167 196.333,128.167 195,125.5C 192.663,119.583 189.163,114.583 184.5,110.5C 184.068,109.29 183.401,108.29 182.5,107.5C 182.56,106.957 182.893,106.624 183.5,106.5C 187.844,109.736 192.511,111.069 197.5,110.5C 200.545,119.164 202.045,128.164 202,137.5C 203.019,133.774 204.353,130.107 206,126.5C 207.232,129.23 208.065,129.063 208.5,126C 205.99,115.353 204.656,104.52 204.5,93.5 Z"/></g>
<g><path style="opacity:1" fill="#cae1bf" d="M 147.5,94.5 C 145.735,97.1226 145.068,100.123 145.5,103.5C 143.473,103.662 141.473,103.495 139.5,103C 138.944,102.617 138.611,102.117 138.5,101.5C 140.319,99.5284 141.319,97.1951 141.5,94.5C 143.167,93.5 144.5,92.1667 145.5,90.5C 146.117,90.3893 146.617,90.056 147,89.5C 147.494,91.1341 147.66,92.8008 147.5,94.5 Z"/></g>
<g><path style="opacity:1" fill="#4d1913" d="M 63.5,78.5 C 63.6131,84.3478 63.6131,90.0144 63.5,95.5C 65.5727,100.432 68.0727,105.099 71,109.5C 71.3826,108.944 71.8826,108.611 72.5,108.5C 72.5,108.833 72.5,109.167 72.5,109.5C 71.2229,113.189 70.2229,116.856 69.5,120.5C 68.5326,119.194 67.1993,118.527 65.5,118.5C 65.1142,115.263 63.6142,112.597 61,110.5C 60.6667,110.833 60.3333,111.167 60,111.5C 59.3333,103.167 59.3333,94.8333 60,86.5C 60.3874,83.4006 61.5541,80.734 63.5,78.5 Z"/></g>
<g><path style="opacity:1" fill="#200604" d="M 158.5,100.5 C 162.552,100.969 166.552,101.969 170.5,103.5C 172.149,102.352 173.649,101.019 175,99.5C 175.717,100.044 176.217,100.711 176.5,101.5C 174.833,103.833 172.833,105.833 170.5,107.5C 169.833,106.5 169.167,105.5 168.5,104.5C 167.5,104.5 166.5,104.5 165.5,104.5C 164.833,104.5 164.167,104.5 163.5,104.5C 161.833,104.5 160.167,104.5 158.5,104.5C 157.081,103.549 155.415,103.216 153.5,103.5C 152.432,102.566 151.099,102.232 149.5,102.5C 148.778,102.918 148.278,103.584 148,104.5C 147.51,103.207 147.343,101.873 147.5,100.5C 148.151,99.9094 148.818,99.2427 149.5,98.5C 152.447,99.4226 155.447,100.089 158.5,100.5 Z"/></g>
<g><path style="opacity:1" fill="#a3b494" d="M 149.5,102.5 C 151.099,102.232 152.432,102.566 153.5,103.5C 152.817,105.176 151.483,105.843 149.5,105.5C 149.5,104.5 149.5,103.5 149.5,102.5 Z"/></g>
<g><path style="opacity:1" fill="#3c4b3c" d="M 104.5,100.5 C 106.627,101.095 107.793,102.095 108,103.5C 113.017,101.786 118.183,101.119 123.5,101.5C 121.343,103.412 119.009,105.079 116.5,106.5C 115.167,106.833 113.833,107.167 112.5,107.5C 108.623,108.937 104.623,109.437 100.5,109C 101.5,108 102.5,107 103.5,106C 100.833,105.333 100.833,104.667 103.5,104C 101.217,103.709 99.0503,104.209 97,105.5C 95.9701,105.164 95.4701,104.497 95.5,103.5C 98.2084,101.647 101.208,100.647 104.5,100.5 Z"/></g>
<g><path style="opacity:1" fill="#1f271e" d="M 83.5,87.5 C 84.7736,88.1894 84.7736,89.0228 83.5,90C 84.6872,91.0195 85.6872,92.1861 86.5,93.5C 84.3992,96.3676 82.8992,99.3676 82,102.5C 82.6891,101.643 83.5224,100.977 84.5,100.5C 86.2686,102.463 88.1019,102.13 90,99.5C 90.5,100 91,100.5 91.5,101C 90.3279,101.419 89.3279,102.085 88.5,103C 90.9952,102.588 93.3285,102.755 95.5,103.5C 95.4701,104.497 95.9701,105.164 97,105.5C 99.0503,104.209 101.217,103.709 103.5,104C 100.833,104.667 100.833,105.333 103.5,106C 102.5,107 101.5,108 100.5,109C 104.623,109.437 108.623,108.937 112.5,107.5C 109.068,109.752 105.734,112.252 102.5,115C 100.655,116.128 98.6547,116.628 96.5,116.5C 95.1667,113.833 95.1667,111.167 96.5,108.5C 94.5,108.5 92.5,108.5 90.5,108.5C 90.762,107.022 90.4287,105.689 89.5,104.5C 85.6733,106.246 82.0066,108.246 78.5,110.5C 78.0894,109.738 77.9227,108.738 78,107.5C 76.6667,108.833 75.3333,110.167 74,111.5C 73.7216,110.584 73.2216,109.918 72.5,109.5C 72.5,109.167 72.5,108.833 72.5,108.5C 74.6498,104.351 76.3164,100.018 77.5,95.5C 78.4013,94.7095 79.0679,93.7095 79.5,92.5C 79.8333,91.8333 80.1667,91.1667 80.5,90.5C 81.5,90.1667 82.1667,89.5 82.5,88.5C 83.1667,88.5 83.5,88.1667 83.5,87.5 Z"/></g>
<g><path style="opacity:1" fill="#c0d3ab" d="M 181.5,95.5 C 182.239,95.369 182.906,95.5357 183.5,96C 181.978,100.445 180.644,104.945 179.5,109.5C 176.311,109.142 173.311,108.475 170.5,107.5C 172.833,105.833 174.833,103.833 176.5,101.5C 178.587,100.415 179.92,98.7488 180.5,96.5C 181.167,96.5 181.5,96.1667 181.5,95.5 Z"/></g>
<g><path style="opacity:1" fill="#30332d" d="M 197.5,94.5 C 200.437,101.248 202.27,108.248 203,115.5C 201,112.833 199,110.167 197,107.5C 196.53,108.577 196.697,109.577 197.5,110.5C 192.511,111.069 187.844,109.736 183.5,106.5C 182.893,106.624 182.56,106.957 182.5,107.5C 182.737,108.791 182.404,109.791 181.5,110.5C 181.34,108.801 181.506,107.134 182,105.5C 184.226,103.715 185.392,101.382 185.5,98.5C 188.573,99.199 191.573,100.199 194.5,101.5C 196.018,99.3792 197.018,97.0459 197.5,94.5 Z"/></g>
<g><path style="opacity:1" fill="#050604" d="M -0.5,-0.5 C 19.1667,-0.5 38.8333,-0.5 58.5,-0.5C 57.236,2.43312 55.236,4.76646 52.5,6.5C 56.0606,8.44777 59.7272,10.1144 63.5,11.5C 65.7722,12.3186 68.1055,12.9853 70.5,13.5C 74.9825,15.4381 79.6491,16.7714 84.5,17.5C 89.5509,19.3444 94.8843,20.3444 100.5,20.5C 100.336,17.8127 100.503,15.146 101,12.5C 102.372,11.0899 103.205,9.42325 103.5,7.5C 104.895,4.40961 106.895,1.74294 109.5,-0.5C 116.167,-0.5 122.833,-0.5 129.5,-0.5C 128.652,1.09307 127.319,2.25974 125.5,3C 124.552,3.48278 123.552,3.64945 122.5,3.5C 122.5,5.16667 122.5,6.83333 122.5,8.5C 119.102,8.17964 115.768,8.51298 112.5,9.5C 110.709,11.4133 108.709,13.08 106.5,14.5C 106.791,20.6403 104.124,24.307 98.5,25.5C 96.901,25.2322 95.5676,25.5655 94.5,26.5C 93.8333,26.5 93.1667,26.5 92.5,26.5C 85.4643,27.2214 78.631,27.8881 72,28.5C 70.2942,27.6921 69.4609,26.3588 69.5,24.5C 61.5992,26.9659 53.5992,29.1325 45.5,31C 35.1791,36.3224 27.1791,43.9891 21.5,54C 21.6667,54.5 21.8333,55 22,55.5C 23.6354,54.1514 25.1354,54.3181 26.5,56C 25.6318,59.7672 24.9651,63.6006 24.5,67.5C 22.9823,70.5341 22.1489,73.8675 22,77.5C 18.0358,83.1934 16.5358,89.5268 17.5,96.5C 15.7608,108.43 15.2608,120.43 16,132.5C 16.4535,136.717 17.9535,140.384 20.5,143.5C 13.5,143.5 6.5,143.5 -0.5,143.5C -0.5,95.5 -0.5,47.5 -0.5,-0.5 Z"/></g>
<g><path style="opacity:1" fill="#1a1c0d" d="M 45.5,28.5 C 45.3893,27.8826 45.056,27.3826 44.5,27C 38.8826,26.7015 33.3826,26.5348 28,26.5C 25.3727,28.9634 22.8727,31.6301 20.5,34.5C 21.8549,37.1882 23.8549,39.1882 26.5,40.5C 24.5654,41.709 22.5654,41.5423 20.5,40C 19.3595,39.2588 19.3595,38.4255 20.5,37.5C 18.8333,36.1667 17.1667,34.8333 15.5,33.5C 18.354,30.8116 21.354,28.3116 24.5,26C 36.4116,23.4221 48.4116,23.0887 60.5,25C 55.5344,26.3595 50.5344,27.5261 45.5,28.5 Z"/></g>
<g><path style="opacity:1" fill="#252713" d="M 45.5,28.5 C 38.6783,31.6409 32.345,35.6409 26.5,40.5C 23.8549,39.1882 21.8549,37.1882 20.5,34.5C 22.8727,31.6301 25.3727,28.9634 28,26.5C 33.3826,26.5348 38.8826,26.7015 44.5,27C 45.056,27.3826 45.3893,27.8826 45.5,28.5 Z"/></g>
<g><path style="opacity:1" fill="#3d7265" d="M 103.5,7.5 C 103.205,9.42325 102.372,11.0899 101,12.5C 100.503,15.146 100.336,17.8127 100.5,20.5C 94.8843,20.3444 89.5509,19.3444 84.5,17.5C 82.7226,16.3995 80.7226,15.5662 78.5,15C 86.9407,12.5292 95.1074,9.36257 103,5.5C 103.464,6.09442 103.631,6.76109 103.5,7.5 Z"/></g>
<g><path style="opacity:1" fill="#163430" d="M 90.5,-0.5 C 94.8333,-0.5 99.1667,-0.5 103.5,-0.5C 101.142,1.12857 98.4757,2.29523 95.5,3C 87.2965,3.72563 79.2965,5.39229 71.5,8C 69.3652,9.55574 69.0319,11.3891 70.5,13.5C 68.1055,12.9853 65.7722,12.3186 63.5,11.5C 63.1961,10.8501 62.8627,10.1835 62.5,9.5C 65.1233,6.85092 68.1233,4.68425 71.5,3C 77.9962,1.95853 84.3296,0.79186 90.5,-0.5 Z"/></g>
<g><path style="opacity:1" fill="#0d2320" d="M 58.5,-0.5 C 69.1667,-0.5 79.8333,-0.5 90.5,-0.5C 84.3296,0.79186 77.9962,1.95853 71.5,3C 68.1233,4.68425 65.1233,6.85092 62.5,9.5C 62.8627,10.1835 63.1961,10.8501 63.5,11.5C 59.7272,10.1144 56.0606,8.44777 52.5,6.5C 55.236,4.76646 57.236,2.43312 58.5,-0.5 Z"/></g>
<g><path style="opacity:1" fill="#254d45" d="M 103.5,-0.5 C 105.5,-0.5 107.5,-0.5 109.5,-0.5C 106.895,1.74294 104.895,4.40961 103.5,7.5C 103.631,6.76109 103.464,6.09442 103,5.5C 95.1074,9.36257 86.9407,12.5292 78.5,15C 80.7226,15.5662 82.7226,16.3995 84.5,17.5C 79.6491,16.7714 74.9825,15.4381 70.5,13.5C 69.0319,11.3891 69.3652,9.55574 71.5,8C 79.2965,5.39229 87.2965,3.72563 95.5,3C 98.4757,2.29523 101.142,1.12857 103.5,-0.5 Z"/></g>
<g><path style="opacity:1" fill="#3a2519" d="M 141.5,94.5 C 141.319,97.1951 140.319,99.5284 138.5,101.5C 136.585,101.216 134.919,101.549 133.5,102.5C 130.575,102.46 127.909,103.293 125.5,105C 121.824,108.68 119.157,113.014 117.5,118C 120.746,122.278 124.413,126.112 128.5,129.5C 120.662,126.997 114.995,121.997 111.5,114.5C 112.648,112.851 113.981,111.351 115.5,110C 122.566,105.144 129.566,100.311 136.5,95.5C 137.406,94.0351 138.739,93.0351 140.5,92.5C 141.298,92.9569 141.631,93.6236 141.5,94.5 Z"/></g>
<g><path style="opacity:1" fill="#9a8a61" d="M 147.5,94.5 C 147.5,96.5 147.5,98.5 147.5,100.5C 146.566,101.568 146.232,102.901 146.5,104.5C 145.127,104.343 143.793,104.51 142.5,105C 146.146,107.248 150.146,108.582 154.5,109C 155.833,109.667 155.833,110.333 154.5,111C 156.384,111.216 158.051,111.883 159.5,113C 154.833,113.333 150.167,113.667 145.5,114C 144.316,115.145 144.316,116.312 145.5,117.5C 139.824,117.334 134.157,117.501 128.5,118C 127.269,119.405 125.936,120.571 124.5,121.5C 123.188,120.855 122.188,119.855 121.5,118.5C 124.394,117.601 127.061,116.268 129.5,114.5C 129.585,110.274 130.918,106.274 133.5,102.5C 134.919,101.549 136.585,101.216 138.5,101.5C 138.611,102.117 138.944,102.617 139.5,103C 141.473,103.495 143.473,103.662 145.5,103.5C 145.068,100.123 145.735,97.1226 147.5,94.5 Z"/></g>
<g><path style="opacity:1" fill="#191c17" d="M 112.5,107.5 C 113.833,107.167 115.167,106.833 116.5,106.5C 109.601,111.463 103.268,117.13 97.5,123.5C 91.3732,126.156 85.0399,127.989 78.5,129C 83.6205,125.712 82.9538,124.712 76.5,126C 77.5,125 78.5,124 79.5,123C 77.6133,122.837 76.1133,123.671 75,125.5C 76.8515,120.608 80.0181,116.441 84.5,113C 77.2778,116.58 72.4444,122.414 70,130.5C 69.5017,127.183 69.335,123.85 69.5,120.5C 70.2229,116.856 71.2229,113.189 72.5,109.5C 73.2216,109.918 73.7216,110.584 74,111.5C 75.3333,110.167 76.6667,108.833 78,107.5C 77.9227,108.738 78.0894,109.738 78.5,110.5C 82.0066,108.246 85.6733,106.246 89.5,104.5C 90.4287,105.689 90.762,107.022 90.5,108.5C 92.5,108.5 94.5,108.5 96.5,108.5C 95.1667,111.167 95.1667,113.833 96.5,116.5C 98.6547,116.628 100.655,116.128 102.5,115C 105.734,112.252 109.068,109.752 112.5,107.5 Z"/></g>
<g><path style="opacity:1" fill="#846c4a" d="M 147.5,100.5 C 147.343,101.873 147.51,103.207 148,104.5C 148.278,103.584 148.778,102.918 149.5,102.5C 149.5,103.5 149.5,104.5 149.5,105.5C 151.483,105.843 152.817,105.176 153.5,103.5C 155.415,103.216 157.081,103.549 158.5,104.5C 157.325,104.281 156.325,104.614 155.5,105.5C 157.246,106.395 159.08,107.062 161,107.5C 162.749,107.252 163.582,106.252 163.5,104.5C 164.167,104.5 164.833,104.5 165.5,104.5C 164.766,105.708 164.433,107.041 164.5,108.5C 167.142,108.512 168.475,107.179 168.5,104.5C 169.167,105.5 169.833,106.5 170.5,107.5C 173.311,108.475 176.311,109.142 179.5,109.5C 180.167,109.5 180.5,109.833 180.5,110.5C 177.917,111.421 175.584,112.754 173.5,114.5C 164.808,114.169 156.141,114.502 147.5,115.5C 147.709,116.086 148.043,116.586 148.5,117C 152.025,117.179 155.359,117.679 158.5,118.5C 154.069,118.769 149.735,118.436 145.5,117.5C 144.316,116.312 144.316,115.145 145.5,114C 150.167,113.667 154.833,113.333 159.5,113C 158.051,111.883 156.384,111.216 154.5,111C 155.833,110.333 155.833,109.667 154.5,109C 150.146,108.582 146.146,107.248 142.5,105C 143.793,104.51 145.127,104.343 146.5,104.5C 146.232,102.901 146.566,101.568 147.5,100.5 Z"/></g>
<g><path style="opacity:1" fill="#9da779" d="M 165.5,104.5 C 166.5,104.5 167.5,104.5 168.5,104.5C 168.475,107.179 167.142,108.512 164.5,108.5C 164.433,107.041 164.766,105.708 165.5,104.5 Z"/></g>
<g><path style="opacity:1" fill="#9da77f" d="M 158.5,104.5 C 160.167,104.5 161.833,104.5 163.5,104.5C 163.582,106.252 162.749,107.252 161,107.5C 159.08,107.062 157.246,106.395 155.5,105.5C 156.325,104.614 157.325,104.281 158.5,104.5 Z"/></g>
<g><path style="opacity:1" fill="#1a0f09" d="M 136.5,95.5 C 129.566,100.311 122.566,105.144 115.5,110C 113.981,111.351 112.648,112.851 111.5,114.5C 114.995,121.997 120.662,126.997 128.5,129.5C 130.404,129.738 131.738,130.738 132.5,132.5C 133.508,134.339 135.008,135.672 137,136.5C 137.991,138.808 138.824,141.141 139.5,143.5C 131.167,143.5 122.833,143.5 114.5,143.5C 109.11,137.73 104.444,131.397 100.5,124.5C 99.675,123.614 98.675,123.281 97.5,123.5C 103.268,117.13 109.601,111.463 116.5,106.5C 119.009,105.079 121.343,103.412 123.5,101.5C 127.709,99.2288 132.042,97.2288 136.5,95.5 Z"/></g>
<g><path style="opacity:1" fill="#7a6748" d="M 133.5,102.5 C 130.918,106.274 129.585,110.274 129.5,114.5C 127.061,116.268 124.394,117.601 121.5,118.5C 122.188,119.855 123.188,120.855 124.5,121.5C 129.099,124.95 133.432,128.616 137.5,132.5C 136.001,133.494 134.334,133.494 132.5,132.5C 131.738,130.738 130.404,129.738 128.5,129.5C 124.413,126.112 120.746,122.278 117.5,118C 119.157,113.014 121.824,108.68 125.5,105C 127.909,103.293 130.575,102.46 133.5,102.5 Z"/></g>
<g><path style="opacity:1" fill="#503b2a" d="M 173.5,114.5 C 169.353,115.325 165.019,115.825 160.5,116C 167.226,116.718 171.559,120.385 173.5,127C 172.624,128.586 171.624,130.086 170.5,131.5C 170.624,132.107 170.957,132.44 171.5,132.5C 171.5,133.167 171.833,133.5 172.5,133.5C 171.833,134.167 171.167,134.833 170.5,135.5C 169.771,132.459 168.604,129.459 167,126.5C 166.329,125.748 165.496,125.414 164.5,125.5C 164.768,123.901 164.434,122.568 163.5,121.5C 162.599,119.273 160.933,118.273 158.5,118.5C 155.359,117.679 152.025,117.179 148.5,117C 148.043,116.586 147.709,116.086 147.5,115.5C 156.141,114.502 164.808,114.169 173.5,114.5 Z"/></g>
<g><path style="opacity:1" fill="#b3a57a" d="M 145.5,117.5 C 149.735,118.436 154.069,118.769 158.5,118.5C 160.933,118.273 162.599,119.273 163.5,121.5C 162.432,122.434 161.099,122.768 159.5,122.5C 159.158,121.662 158.492,121.328 157.5,121.5C 157.082,120.778 156.416,120.278 155.5,120C 150.833,119.333 146.167,119.333 141.5,120C 140.426,120.739 139.759,121.739 139.5,123C 140.736,124.856 140.736,126.689 139.5,128.5C 140.786,128.476 142.12,128.81 143.5,129.5C 141.819,131.008 139.819,132.008 137.5,132.5C 133.432,128.616 129.099,124.95 124.5,121.5C 125.936,120.571 127.269,119.405 128.5,118C 134.157,117.501 139.824,117.334 145.5,117.5 Z"/></g>
<g><path style="opacity:1" fill="#c9c3a7" d="M 157.5,121.5 C 152.812,122.252 149.145,124.585 146.5,128.5C 145.391,128.557 144.391,128.89 143.5,129.5C 142.12,128.81 140.786,128.476 139.5,128.5C 140.736,126.689 140.736,124.856 139.5,123C 139.759,121.739 140.426,120.739 141.5,120C 146.167,119.333 150.833,119.333 155.5,120C 156.416,120.278 157.082,120.778 157.5,121.5 Z"/></g>
<g><path style="opacity:1" fill="#342116" d="M 182.5,107.5 C 183.401,108.29 184.068,109.29 184.5,110.5C 183.249,115.878 181.249,120.878 178.5,125.5C 178.649,124.448 178.483,123.448 178,122.5C 176.072,126.032 173.905,129.366 171.5,132.5C 170.957,132.44 170.624,132.107 170.5,131.5C 171.624,130.086 172.624,128.586 173.5,127C 171.559,120.385 167.226,116.718 160.5,116C 165.019,115.825 169.353,115.325 173.5,114.5C 175.584,112.754 177.917,111.421 180.5,110.5C 180.833,110.5 181.167,110.5 181.5,110.5C 182.404,109.791 182.737,108.791 182.5,107.5 Z"/></g>
<g><path style="opacity:1" fill="#190200" d="M 184.5,110.5 C 189.163,114.583 192.663,119.583 195,125.5C 196.333,128.167 197.667,128.167 199,125.5C 200.821,129.743 200.988,134.076 199.5,138.5C 200.187,140.177 200.854,141.844 201.5,143.5C 191.167,143.5 180.833,143.5 170.5,143.5C 170.5,140.833 170.5,138.167 170.5,135.5C 171.167,134.833 171.833,134.167 172.5,133.5C 174.853,131.14 176.853,128.473 178.5,125.5C 181.249,120.878 183.249,115.878 184.5,110.5 Z"/></g>
<g><path style="opacity:1" fill="#627a62" d="M 157.5,121.5 C 158.492,121.328 159.158,121.662 159.5,122.5C 160.229,127.13 160.563,131.797 160.5,136.5C 159.5,136.5 158.5,136.5 157.5,136.5C 156.196,137.987 155.03,139.654 154,141.5C 153.899,138.3 153.232,135.3 152,132.5C 151.667,134.833 151.333,137.167 151,139.5C 150.586,139.957 150.086,140.291 149.5,140.5C 149.118,136.084 148.118,132.084 146.5,128.5C 149.145,124.585 152.812,122.252 157.5,121.5 Z"/></g>
<g><path style="opacity:1" fill="#3a4131" d="M 163.5,121.5 C 164.434,122.568 164.768,123.901 164.5,125.5C 167.144,131.165 168.144,137.165 167.5,143.5C 166.833,143.5 166.167,143.5 165.5,143.5C 164.833,132.833 164.167,132.833 163.5,143.5C 161.5,143.5 159.5,143.5 157.5,143.5C 157.5,141.167 157.5,138.833 157.5,136.5C 158.5,136.5 159.5,136.5 160.5,136.5C 160.563,131.797 160.229,127.13 159.5,122.5C 161.099,122.768 162.432,122.434 163.5,121.5 Z"/></g>
<g><path style="opacity:1" fill="#2d0705" d="M 76.5,57.5 C 75.5849,59.7541 74.2516,61.7541 72.5,63.5C 71.5416,63.9528 70.7083,64.6195 70,65.5C 67.5723,69.7444 65.4056,74.0778 63.5,78.5C 61.5541,80.734 60.3874,83.4006 60,86.5C 59.3333,94.8333 59.3333,103.167 60,111.5C 60.3333,111.167 60.6667,110.833 61,110.5C 63.6142,112.597 65.1142,115.263 65.5,118.5C 67.1993,118.527 68.5326,119.194 69.5,120.5C 69.335,123.85 69.5017,127.183 70,130.5C 72.4444,122.414 77.2778,116.58 84.5,113C 80.0181,116.441 76.8515,120.608 75,125.5C 76.1133,123.671 77.6133,122.837 79.5,123C 78.5,124 77.5,125 76.5,126C 82.9538,124.712 83.6205,125.712 78.5,129C 85.0399,127.989 91.3732,126.156 97.5,123.5C 98.675,123.281 99.675,123.614 100.5,124.5C 104.444,131.397 109.11,137.73 114.5,143.5C 100.167,143.5 85.8333,143.5 71.5,143.5C 70.0362,138.573 67.5362,134.239 64,130.5C 62.4491,125.066 60.6158,119.733 58.5,114.5C 57.1541,102.56 57.8207,90.7269 60.5,79C 63.3049,70.0181 68.6382,62.8514 76.5,57.5 Z"/></g>
<g><path style="opacity:1" fill="#a06705" d="M 178.5,125.5 C 176.853,128.473 174.853,131.14 172.5,133.5C 171.833,133.5 171.5,133.167 171.5,132.5C 173.905,129.366 176.072,126.032 178,122.5C 178.483,123.448 178.649,124.448 178.5,125.5 Z"/></g>
<g><path style="opacity:1" fill="#4d5a46" d="M 146.5,128.5 C 148.118,132.084 149.118,136.084 149.5,140.5C 150.086,140.291 150.586,139.957 151,139.5C 151.333,137.167 151.667,134.833 152,132.5C 153.232,135.3 153.899,138.3 154,141.5C 155.03,139.654 156.196,137.987 157.5,136.5C 157.5,138.833 157.5,141.167 157.5,143.5C 151.5,143.5 145.5,143.5 139.5,143.5C 138.824,141.141 137.991,138.808 137,136.5C 135.008,135.672 133.508,134.339 132.5,132.5C 134.334,133.494 136.001,133.494 137.5,132.5C 139.819,132.008 141.819,131.008 143.5,129.5C 144.391,128.89 145.391,128.557 146.5,128.5 Z"/></g>
<g><path style="opacity:1" fill="#77560d" d="M 165.5,143.5 C 164.833,143.5 164.167,143.5 163.5,143.5C 164.167,132.833 164.833,132.833 165.5,143.5 Z"/></g>
<g><path style="opacity:1" fill="#ae7507" d="M 164.5,125.5 C 165.496,125.414 166.329,125.748 167,126.5C 168.604,129.459 169.771,132.459 170.5,135.5C 170.5,138.167 170.5,140.833 170.5,143.5C 169.5,143.5 168.5,143.5 167.5,143.5C 168.144,137.165 167.144,131.165 164.5,125.5 Z"/></g>
</svg>
