<?xml version="1.0" encoding="UTF-8"?>
<!DOCTYPE svg PUBLIC "-//W3C//DTD SVG 1.1//EN" "http://www.w3.org/Graphics/SVG/1.1/DTD/svg11.dtd">
<svg xmlns="http://www.w3.org/2000/svg" version="1.1" width="256px" height="144px" style="shape-rendering:geometricPrecision; text-rendering:geometricPrecision; image-rendering:optimizeQuality; fill-rule:evenodd; clip-rule:evenodd" xmlns:xlink="http://www.w3.org/1999/xlink">
<g><path style="opacity:1" fill="#23302d" d="M 129.5,-0.5 C 136.833,-0.5 144.167,-0.5 151.5,-0.5C 148.926,0.880961 146.426,2.54763 144,4.5C 143.617,3.94404 143.117,3.61071 142.5,3.5C 141.462,1.48052 140.128,1.14719 138.5,2.5C 135.453,0.887158 132.953,1.55382 131,4.5C 129.812,3.43659 129.312,2.10326 129.5,0.5C 129.5,0.166667 129.5,-0.166667 129.5,-0.5 Z"/></g>
<g><path style="opacity:1" fill="#031419" d="M 3.5,0.5 C 5.08449,2.42221 6.91782,4.08888 9,5.5C 9.33333,5.16667 9.66667,4.83333 10,4.5C 10.5074,5.99608 10.0074,7.16274 8.5,8C 10.9628,10.7944 13.9628,12.7944 17.5,14C 16.572,14.3879 15.9054,15.0546 15.5,16C 16.8582,17.6887 18.5249,19.022 20.5,20C 17.7406,22.4837 18.074,23.6503 21.5,23.5C 21.1459,25.5412 21.1459,27.3745 21.5,29C 20.7069,30.0852 20.0402,31.2519 19.5,32.5C 20.7111,33.7202 20.7111,34.8869 19.5,36C 20.5742,36.7387 21.2409,37.7387 21.5,39C 21.229,41.9272 21.229,44.7605 21.5,47.5C 20.9747,48.1924 20.3081,48.6924 19.5,49C 20.3081,49.3076 20.9747,49.8076 21.5,50.5C 20.5,52.5 19.5,54.5 18.5,56.5C 18.7093,57.086 19.0426,57.586 19.5,58C 18.0611,58.9906 17.0611,60.324 16.5,62C 16.0306,63.962 16.6973,65.7953 18.5,67.5C 16.575,70.3027 16.575,73.3027 18.5,76.5C 17.0685,79.7717 15.4019,82.9384 13.5,86C 13.6834,88.3437 14.6834,90.6771 16.5,93C 15.3513,95.4684 14.3513,98.3018 13.5,101.5C 13.3262,103.693 13.9929,105.527 15.5,107C 13.203,108.16 13.5363,109.16 16.5,110C 16.5,111.667 16.5,113.333 16.5,115C 13.9357,116.851 13.9357,118.684 16.5,120.5C 15.7366,121.719 14.7366,122.719 13.5,123.5C 13.8333,125.5 14.1667,127.5 14.5,129.5C 13.4825,130.852 12.1492,131.852 10.5,132.5C 11.3128,133.814 12.3128,134.981 13.5,136C 12.1667,137.667 12.1667,139.333 13.5,141C 12.244,141.417 11.5774,142.25 11.5,143.5C 7.83333,143.5 4.16667,143.5 0.5,143.5C 0.5,95.8333 0.5,48.1667 0.5,0.5C 1.5,0.5 2.5,0.5 3.5,0.5 Z"/></g>
<g><path style="opacity:1" fill="#031a21" d="M 3.5,0.5 C 9.16667,0.5 14.8333,0.5 20.5,0.5C 22.8783,1.69238 24.8783,3.35905 26.5,5.5C 25.8333,6.16667 25.1667,6.83333 24.5,7.5C 25.4655,8.91403 26.4655,9.74736 27.5,10C 26.0506,12.2892 26.5506,14.1225 29,15.5C 29.5946,16.8989 29.4279,18.2322 28.5,19.5C 29.1667,20.5 29.8333,21.5 30.5,22.5C 30.1667,24.5 29.8333,26.5 29.5,28.5C 30.0253,29.1924 30.6919,29.6924 31.5,30C 31.1054,33.0573 30.1054,36.224 28.5,39.5C 29.1667,39.8333 29.8333,40.1667 30.5,40.5C 27.6458,45.3979 26.6458,50.5646 27.5,56C 27.4606,57.8939 26.7939,58.8939 25.5,59C 25.7355,59.8732 26.0688,60.7065 26.5,61.5C 23.8333,64.5 23.8333,67.5 26.5,70.5C 25.1054,73.6198 23.7721,76.7865 22.5,80C 23.3081,80.3076 23.9747,80.8076 24.5,81.5C 23.6328,85.8982 22.2995,90.3982 20.5,95C 21.767,96.7959 21.767,98.6293 20.5,100.5C 20.9767,101.478 21.6433,102.311 22.5,103C 20.9679,106.964 21.6346,110.631 24.5,114C 23.0545,120.571 23.7211,127.237 26.5,134C 24.8769,135.876 25.2102,137.21 27.5,138C 25.5781,140.279 25.5781,142.113 27.5,143.5C 22.1667,143.5 16.8333,143.5 11.5,143.5C 11.5774,142.25 12.244,141.417 13.5,141C 12.1667,139.333 12.1667,137.667 13.5,136C 12.3128,134.981 11.3128,133.814 10.5,132.5C 12.1492,131.852 13.4825,130.852 14.5,129.5C 14.1667,127.5 13.8333,125.5 13.5,123.5C 14.7366,122.719 15.7366,121.719 16.5,120.5C 13.9357,118.684 13.9357,116.851 16.5,115C 16.5,113.333 16.5,111.667 16.5,110C 13.5363,109.16 13.203,108.16 15.5,107C 13.9929,105.527 13.3262,103.693 13.5,101.5C 14.3513,98.3018 15.3513,95.4684 16.5,93C 14.6834,90.6771 13.6834,88.3437 13.5,86C 15.4019,82.9384 17.0685,79.7717 18.5,76.5C 16.575,73.3027 16.575,70.3027 18.5,67.5C 16.6973,65.7953 16.0306,63.962 16.5,62C 17.0611,60.324 18.0611,58.9906 19.5,58C 19.0426,57.586 18.7093,57.086 18.5,56.5C 19.5,54.5 20.5,52.5 21.5,50.5C 20.9747,49.8076 20.3081,49.3076 19.5,49C 20.3081,48.6924 20.9747,48.1924 21.5,47.5C 21.229,44.7605 21.229,41.9272 21.5,39C 21.2409,37.7387 20.5742,36.7387 19.5,36C 20.7111,34.8869 20.7111,33.7202 19.5,32.5C 20.0402,31.2519 20.7069,30.0852 21.5,29C 21.1459,27.3745 21.1459,25.5412 21.5,23.5C 18.074,23.6503 17.7406,22.4837 20.5,20C 18.5249,19.022 16.8582,17.6887 15.5,16C 15.9054,15.0546 16.572,14.3879 17.5,14C 13.9628,12.7944 10.9628,10.7944 8.5,8C 10.0074,7.16274 10.5074,5.99608 10,4.5C 9.66667,4.83333 9.33333,5.16667 9,5.5C 6.91782,4.08888 5.08449,2.42221 3.5,0.5 Z"/></g>
<g><path style="opacity:1" fill="#064c60" d="M 85.5,-0.5 C 98.1667,-0.5 110.833,-0.5 123.5,-0.5C 123.62,2.20485 122.62,2.87151 120.5,1.5C 115.101,2.69855 110.434,5.19855 106.5,9C 104.527,9.49546 102.527,9.66212 100.5,9.5C 100.226,11.9806 98.8927,13.6473 96.5,14.5C 92.4471,9.78082 88.7804,4.78082 85.5,-0.5 Z"/></g>
<g><path style="opacity:1" fill="#8f9352" d="M 124.5,-0.5 C 126.167,-0.5 127.833,-0.5 129.5,-0.5C 129.5,-0.166667 129.5,0.166667 129.5,0.5C 128.566,1.56764 128.232,2.90097 128.5,4.5C 125.53,4.25422 124.197,2.58755 124.5,-0.5 Z"/></g>
<g><path style="opacity:1" fill="#0b2d36" d="M 188.5,-0.5 C 199.167,-0.5 209.833,-0.5 220.5,-0.5C 221.919,0.451145 223.585,0.784479 225.5,0.5C 227.277,4.1028 228.11,7.76947 228,11.5C 228.77,10.4019 229.603,10.4019 230.5,11.5C 226.607,13.8757 222.273,14.8757 217.5,14.5C 211.792,13.323 206.126,11.9897 200.5,10.5C 196.897,8.35962 193.23,6.19296 189.5,4C 188.62,2.64387 188.286,1.14387 188.5,-0.5 Z"/></g>
<g><path style="opacity:1" fill="#091f24" d="M 220.5,-0.5 C 232.167,-0.5 243.833,-0.5 255.5,-0.5C 255.5,8.83333 255.5,18.1667 255.5,27.5C 254.5,27.5 253.5,27.5 252.5,27.5C 250.708,27.634 249.042,27.3007 247.5,26.5C 244.962,23.2144 241.629,20.8811 237.5,19.5C 237.709,18.914 238.043,18.414 238.5,18C 235.99,17.6237 233.657,16.7904 231.5,15.5C 232.128,13.7419 233.128,12.2419 234.5,11C 233.181,10.805 231.847,10.9717 230.5,11.5C 229.603,10.4019 228.77,10.4019 228,11.5C 228.11,7.76947 227.277,4.1028 225.5,0.5C 223.585,0.784479 221.919,0.451145 220.5,-0.5 Z"/></g>
<g><path style="opacity:1" fill="#6f4e39" d="M 151.5,-0.5 C 152.833,-0.5 154.167,-0.5 155.5,-0.5C 151.609,1.37337 147.942,3.7067 144.5,6.5C 143.094,6.02694 142.427,5.02694 142.5,3.5C 143.117,3.61071 143.617,3.94404 144,4.5C 146.426,2.54763 148.926,0.880961 151.5,-0.5 Z"/></g>
<g><path style="opacity:1" fill="#b4b0ab" d="M 163.5,-0.5 C 168.167,-0.5 172.833,-0.5 177.5,-0.5C 176.85,1.43525 176.517,3.43525 176.5,5.5C 175.5,5.5 174.5,5.5 173.5,5.5C 175.351,4.13362 175.684,2.46695 174.5,0.5C 171.717,1.46289 169.05,2.62956 166.5,4C 167.416,4.27842 168.082,4.77842 168.5,5.5C 167.475,5.89657 167.308,6.56323 168,7.5C 169.085,8.29311 170.252,8.95978 171.5,9.5C 173.823,8.32835 176.156,8.32835 178.5,9.5C 176.708,10.3091 174.708,10.8091 172.5,11C 173.999,11.8382 174.332,12.6715 173.5,13.5C 173.167,13.5 172.833,13.5 172.5,13.5C 169.233,11.1889 165.9,8.85556 162.5,6.5C 163.641,5.57451 163.641,4.74117 162.5,4C 163.167,3.66667 163.833,3.33333 164.5,3C 163.663,1.98873 163.33,0.822066 163.5,-0.5 Z"/></g>
<g><path style="opacity:1" fill="#433125" d="M 180.5,-0.5 C 182.5,-0.5 184.5,-0.5 186.5,-0.5C 184.932,1.84375 185.265,3.84375 187.5,5.5C 185.116,6.01078 183.116,7.01078 181.5,8.5C 181.167,8.5 180.833,8.5 180.5,8.5C 179.448,8.64945 178.448,8.48278 177.5,8C 178.732,5.23437 179.732,2.40103 180.5,-0.5 Z"/></g>
<g><path style="opacity:1" fill="#e2e4e2" d="M 173.5,5.5 C 171.833,6.83333 170.167,6.83333 168.5,5.5C 168.082,4.77842 167.416,4.27842 166.5,4C 169.05,2.62956 171.717,1.46289 174.5,0.5C 175.684,2.46695 175.351,4.13362 173.5,5.5 Z"/></g>
<g><path style="opacity:1" fill="#825d4f" d="M 177.5,-0.5 C 178.5,-0.5 179.5,-0.5 180.5,-0.5C 179.732,2.40103 178.732,5.23437 177.5,8C 178.448,8.48278 179.448,8.64945 180.5,8.5C 180.5,8.83333 180.5,9.16667 180.5,9.5C 179.833,9.5 179.167,9.5 178.5,9.5C 176.156,8.32835 173.823,8.32835 171.5,9.5C 170.252,8.95978 169.085,8.29311 168,7.5C 167.308,6.56323 167.475,5.89657 168.5,5.5C 170.167,6.83333 171.833,6.83333 173.5,5.5C 174.5,5.5 175.5,5.5 176.5,5.5C 176.517,3.43525 176.85,1.43525 177.5,-0.5 Z"/></g>
<g><path style="opacity:1" fill="#8b7d38" d="M 138.5,2.5 C 140.128,1.14719 141.462,1.48052 142.5,3.5C 142.427,5.02694 143.094,6.02694 144.5,6.5C 143.205,7.48837 141.872,8.48837 140.5,9.5C 140.784,7.58533 140.451,5.91866 139.5,4.5C 139.672,3.50838 139.338,2.84171 138.5,2.5 Z"/></g>
<g><path style="opacity:1" fill="#253a41" d="M 38.5,-0.5 C 43.8333,-0.5 49.1667,-0.5 54.5,-0.5C 55.6723,3.17801 57.3389,6.51135 59.5,9.5C 56.5857,11.262 54.0857,13.5953 52,16.5C 50.6569,15.7865 49.3236,16.1198 48,17.5C 47.3828,16.5509 47.5494,15.7175 48.5,15C 47.552,14.5172 46.552,14.3505 45.5,14.5C 45.5,13.5 45.5,12.5 45.5,11.5C 48.1142,11.7229 49.7809,10.5562 50.5,8C 49.9056,7.53566 49.2389,7.36899 48.5,7.5C 48.5,6.16667 48.5,4.83333 48.5,3.5C 45.5,3.16667 44.1667,4.5 44.5,7.5C 45.5,7.5 46.5,7.5 47.5,7.5C 46.36,8.80142 45.0267,9.96809 43.5,11C 44.7911,12.2917 44.7911,13.4583 43.5,14.5C 42.8333,13.5 42.1667,12.5 41.5,11.5C 40.5,7.5 39.5,3.5 38.5,-0.5 Z"/></g>
<g><path style="opacity:1" fill="#946449" d="M 157.5,-0.5 C 159.5,-0.5 161.5,-0.5 163.5,-0.5C 163.33,0.822066 163.663,1.98873 164.5,3C 163.833,3.33333 163.167,3.66667 162.5,4C 163.641,4.74117 163.641,5.57451 162.5,6.5C 165.9,8.85556 169.233,11.1889 172.5,13.5C 172.5,14.5 172.5,15.5 172.5,16.5C 172.383,18.4835 173.05,20.1502 174.5,21.5C 174.376,22.1067 174.043,22.44 173.5,22.5C 172.883,22.6107 172.383,22.944 172,23.5C 169.672,18.6727 166.172,15.006 161.5,12.5C 160.421,10.457 158.754,9.1237 156.5,8.5C 154.614,7.93483 152.947,6.93483 151.5,5.5C 153.533,3.49336 155.533,1.49336 157.5,-0.5 Z"/></g>
<g><path style="opacity:1" fill="#d9bf3d" d="M 33.5,-0.5 C 35.1667,-0.5 36.8333,-0.5 38.5,-0.5C 39.5,3.5 40.5,7.5 41.5,11.5C 41.5,11.8333 41.5,12.1667 41.5,12.5C 40.0014,13.6782 39.0014,15.3449 38.5,17.5C 35.9002,11.7683 34.2335,5.76825 33.5,-0.5 Z"/></g>
<g><path style="opacity:1" fill="#6a744c" d="M 48.5,7.5 C 48.1667,7.5 47.8333,7.5 47.5,7.5C 46.5,7.5 45.5,7.5 44.5,7.5C 44.1667,4.5 45.5,3.16667 48.5,3.5C 48.5,4.83333 48.5,6.16667 48.5,7.5 Z"/></g>
<g><path style="opacity:1" fill="#0a596f" d="M 123.5,-0.5 C 123.833,-0.5 124.167,-0.5 124.5,-0.5C 124.197,2.58755 125.53,4.25422 128.5,4.5C 128.232,2.90097 128.566,1.56764 129.5,0.5C 129.312,2.10326 129.812,3.43659 131,4.5C 132.953,1.55382 135.453,0.887158 138.5,2.5C 139.338,2.84171 139.672,3.50838 139.5,4.5C 138.387,6.75694 136.721,7.4236 134.5,6.5C 127.639,8.59993 120.639,10.0999 113.5,11C 111.652,13.1792 109.485,15.0126 107,16.5C 106.414,19.0193 105.247,21.0193 103.5,22.5C 100.705,20.2486 98.3719,17.5819 96.5,14.5C 98.8927,13.6473 100.226,11.9806 100.5,9.5C 102.527,9.66212 104.527,9.49546 106.5,9C 110.434,5.19855 115.101,2.69855 120.5,1.5C 122.62,2.87151 123.62,2.20485 123.5,-0.5 Z"/></g>
<g><path style="opacity:1" fill="#865f31" d="M 186.5,-0.5 C 187.167,-0.5 187.833,-0.5 188.5,-0.5C 188.286,1.14387 188.62,2.64387 189.5,4C 193.23,6.19296 196.897,8.35962 200.5,10.5C 196.22,9.34706 191.887,8.34706 187.5,7.5C 185.488,7.83956 183.488,8.1729 181.5,8.5C 183.116,7.01078 185.116,6.01078 187.5,5.5C 185.265,3.84375 184.932,1.84375 186.5,-0.5 Z"/></g>
<g><path style="opacity:1" fill="#0a6a82" d="M 139.5,4.5 C 140.451,5.91866 140.784,7.58533 140.5,9.5C 139.833,9.5 139.167,9.5 138.5,9.5C 135.552,9.22288 132.719,9.55621 130,10.5C 129.37,12.9034 130.203,14.7367 132.5,16C 130.833,17 129.167,18 127.5,19C 129.381,18.904 131.047,19.0707 132.5,19.5C 131.89,20.391 131.557,21.391 131.5,22.5C 129.207,26.7576 126.207,30.4242 122.5,33.5C 119.721,33.2786 117.054,33.612 114.5,34.5C 110.102,31.1053 106.436,27.1053 103.5,22.5C 105.247,21.0193 106.414,19.0193 107,16.5C 109.485,15.0126 111.652,13.1792 113.5,11C 120.639,10.0999 127.639,8.59993 134.5,6.5C 136.721,7.4236 138.387,6.75694 139.5,4.5 Z"/></g>
<g><path style="opacity:1" fill="#798777" d="M 138.5,9.5 C 136.02,12.6237 134.02,15.9571 132.5,19.5C 131.047,19.0707 129.381,18.904 127.5,19C 129.167,18 130.833,17 132.5,16C 130.203,14.7367 129.37,12.9034 130,10.5C 132.719,9.55621 135.552,9.22288 138.5,9.5 Z"/></g>
<g><path style="opacity:1" fill="#bec7bd" d="M 155.5,-0.5 C 156.167,-0.5 156.833,-0.5 157.5,-0.5C 155.533,1.49336 153.533,3.49336 151.5,5.5C 152.947,6.93483 154.614,7.93483 156.5,8.5C 151.04,9.04255 146.04,10.8759 141.5,14C 139.887,16.2276 139.22,18.7276 139.5,21.5C 137.833,22.5 136.5,23.8333 135.5,25.5C 133.75,26.6594 132.75,28.326 132.5,30.5C 131.391,30.4431 130.391,30.1098 129.5,29.5C 130.644,26.5534 132.311,23.8867 134.5,21.5C 134.333,21.1667 134.167,20.8333 134,20.5C 133.292,21.3805 132.458,22.0472 131.5,22.5C 131.557,21.391 131.89,20.391 132.5,19.5C 134.02,15.9571 136.02,12.6237 138.5,9.5C 139.167,9.5 139.833,9.5 140.5,9.5C 141.872,8.48837 143.205,7.48837 144.5,6.5C 147.942,3.7067 151.609,1.37337 155.5,-0.5 Z"/></g>
<g><path style="opacity:1" fill="#e89959" d="M 178.5,9.5 C 179.167,9.5 179.833,9.5 180.5,9.5C 183.707,10.1792 186.707,11.3459 189.5,13C 184.895,13.3044 180.395,14.1377 176,15.5C 174.624,15.3158 173.791,14.6491 173.5,13.5C 174.332,12.6715 173.999,11.8382 172.5,11C 174.708,10.8091 176.708,10.3091 178.5,9.5 Z"/></g>
<g><path style="opacity:1" fill="#9baac8" d="M 156.5,8.5 C 158.754,9.1237 160.421,10.457 161.5,12.5C 161.5,13.5 161.5,14.5 161.5,15.5C 160.209,15.2627 159.209,15.596 158.5,16.5C 155.214,15.7929 151.881,15.4595 148.5,15.5C 148.5,16.5 148.5,17.5 148.5,18.5C 144.997,18.1289 141.997,19.1289 139.5,21.5C 139.22,18.7276 139.887,16.2276 141.5,14C 146.04,10.8759 151.04,9.04255 156.5,8.5 Z"/></g>
<g><path style="opacity:1" fill="#b77040" d="M 200.5,10.5 C 206.126,11.9897 211.792,13.323 217.5,14.5C 223.664,16.5397 229.997,18.3731 236.5,20C 232.143,19.8254 227.809,19.492 223.5,19C 227.061,20.2321 230.394,21.7321 233.5,23.5C 235.598,24.935 237.931,26.1016 240.5,27C 238.479,27.4012 237.145,28.5679 236.5,30.5C 238.5,31.1667 240.5,31.8333 242.5,32.5C 240.955,33.4519 239.288,33.7852 237.5,33.5C 237.167,33.5 236.833,33.5 236.5,33.5C 233.78,29.4563 230.113,26.4563 225.5,24.5C 223.117,22.8113 220.451,21.9779 217.5,22C 219,24.1667 218.5,25.6667 216,26.5C 214.237,26.0245 212.57,25.3578 211,24.5C 210.309,26.8912 209.309,26.8912 208,24.5C 207.308,25.0253 206.808,25.6919 206.5,26.5C 207.887,28.21 209.221,29.8767 210.5,31.5C 210.5,32.8333 210.5,34.1667 210.5,35.5C 208.64,36.0715 206.973,36.0715 205.5,35.5C 203.761,32.7573 201.427,30.7573 198.5,29.5C 190.783,22.9748 182.116,18.6414 172.5,16.5C 172.5,15.5 172.5,14.5 172.5,13.5C 172.833,13.5 173.167,13.5 173.5,13.5C 173.791,14.6491 174.624,15.3158 176,15.5C 180.395,14.1377 184.895,13.3044 189.5,13C 186.707,11.3459 183.707,10.1792 180.5,9.5C 180.5,9.16667 180.5,8.83333 180.5,8.5C 180.833,8.5 181.167,8.5 181.5,8.5C 183.488,8.1729 185.488,7.83956 187.5,7.5C 191.887,8.34706 196.22,9.34706 200.5,10.5 Z"/></g>
<g><path style="opacity:1" fill="#273030" d="M 247.5,26.5 C 242.839,25.5028 238.173,24.5028 233.5,23.5C 230.394,21.7321 227.061,20.2321 223.5,19C 227.809,19.492 232.143,19.8254 236.5,20C 229.997,18.3731 223.664,16.5397 217.5,14.5C 222.273,14.8757 226.607,13.8757 230.5,11.5C 231.847,10.9717 233.181,10.805 234.5,11C 233.128,12.2419 232.128,13.7419 231.5,15.5C 233.657,16.7904 235.99,17.6237 238.5,18C 238.043,18.414 237.709,18.914 237.5,19.5C 241.629,20.8811 244.962,23.2144 247.5,26.5 Z"/></g>
<g><path style="opacity:1" fill="#a0a470" d="M 32.5,-0.5 C 32.8333,-0.5 33.1667,-0.5 33.5,-0.5C 34.2335,5.76825 35.9002,11.7683 38.5,17.5C 39.0014,15.3449 40.0014,13.6782 41.5,12.5C 40.4066,16.3939 39.7399,20.3939 39.5,24.5C 39.1667,24.5 38.8333,24.5 38.5,24.5C 35.6747,16.3589 33.6747,8.02558 32.5,-0.5 Z"/></g>
<g><path style="opacity:1" fill="#4a6a84" d="M 78.5,-0.5 C 78.8333,-0.5 79.1667,-0.5 79.5,-0.5C 85.9224,10.6129 93.5891,20.9462 102.5,30.5C 102.631,31.2389 102.464,31.9056 102,32.5C 99.9835,30.316 97.8169,28.316 95.5,26.5C 94.4063,27.868 94.7397,29.0347 96.5,30C 94.5826,29.9725 92.916,29.1392 91.5,27.5C 90.2888,28.2739 90.2888,29.1072 91.5,30C 90.5842,30.2784 89.9175,30.7784 89.5,31.5C 87.1712,29.1587 85.1712,26.4921 83.5,23.5C 84.8114,22.7425 85.3114,21.7425 85,20.5C 81.0011,16.4627 77.5011,12.1294 74.5,7.5C 73.1995,6.11841 72.3661,4.45174 72,2.5C 70.6626,3.76492 69.1626,4.26492 67.5,4C 69.3933,1.44332 71.7266,0.943323 74.5,2.5C 75.9014,1.47934 77.2347,0.479345 78.5,-0.5 Z"/></g>
<g><path style="opacity:1" fill="#a9c6d6" d="M 158.5,16.5 C 158.611,17.1174 158.944,17.6174 159.5,18C 154.719,18.5182 154.386,19.8515 158.5,22C 154.299,22.9224 150.299,22.4224 146.5,20.5C 143.23,22.2667 140.397,24.6 138,27.5C 137.583,26.244 136.75,25.5774 135.5,25.5C 136.5,23.8333 137.833,22.5 139.5,21.5C 141.997,19.1289 144.997,18.1289 148.5,18.5C 148.5,17.5 148.5,16.5 148.5,15.5C 151.881,15.4595 155.214,15.7929 158.5,16.5 Z"/></g>
<g><path style="opacity:1" fill="#334d5f" d="M 54.5,-0.5 C 62.5,-0.5 70.5,-0.5 78.5,-0.5C 77.2347,0.479345 75.9014,1.47934 74.5,2.5C 71.7266,0.943323 69.3933,1.44332 67.5,4C 69.1626,4.26492 70.6626,3.76492 72,2.5C 72.3661,4.45174 73.1995,6.11841 74.5,7.5C 74.5,8.83333 74.5,10.1667 74.5,11.5C 71.8992,10.7204 69.8992,9.05369 68.5,6.5C 68.1667,6.83333 67.8333,7.16667 67.5,7.5C 68.5575,11.2834 70.3908,14.6168 73,17.5C 73.195,21.5743 72.695,25.5743 71.5,29.5C 70.2715,27.2375 69.2715,24.9042 68.5,22.5C 66.2076,20.9756 64.2076,21.3089 62.5,23.5C 61.5224,23.0233 60.6891,22.3567 60,21.5C 59.6667,22.1667 59.3333,22.8333 59,23.5C 57.7327,21.1856 56.566,18.8522 55.5,16.5C 57.6676,13.5001 60.3343,11.0001 63.5,9C 62.1807,8.80503 60.8474,8.97169 59.5,9.5C 57.3389,6.51135 55.6723,3.17801 54.5,-0.5 Z"/></g>
<g><path style="opacity:1" fill="#6c7137" d="M 41.5,11.5 C 42.1667,12.5 42.8333,13.5 43.5,14.5C 45.7385,19.3642 44.4052,22.6976 39.5,24.5C 39.7399,20.3939 40.4066,16.3939 41.5,12.5C 41.5,12.1667 41.5,11.8333 41.5,11.5 Z"/></g>
<g><path style="opacity:1" fill="#062932" d="M 47.5,7.5 C 47.8333,7.5 48.1667,7.5 48.5,7.5C 49.2389,7.36899 49.9056,7.53566 50.5,8C 49.7809,10.5562 48.1142,11.7229 45.5,11.5C 45.5,12.5 45.5,13.5 45.5,14.5C 46.552,14.3505 47.552,14.5172 48.5,15C 47.5494,15.7175 47.3828,16.5509 48,17.5C 49.3236,16.1198 50.6569,15.7865 52,16.5C 54.0857,13.5953 56.5857,11.262 59.5,9.5C 60.8474,8.97169 62.1807,8.80503 63.5,9C 60.3343,11.0001 57.6676,13.5001 55.5,16.5C 53.2512,17.0798 51.5846,18.4131 50.5,20.5C 49.9035,21.9354 49.9035,23.602 50.5,25.5C 49.4371,28.2173 48.4371,31.0506 47.5,34C 48.2583,35.3639 47.7583,36.5305 46,37.5C 43.5677,45.4095 41.0677,53.2429 38.5,61C 38.5012,62.3988 38.8346,63.8988 39.5,65.5C 37.407,68.6308 36.7403,71.9642 37.5,75.5C 34.9404,81.9754 33.607,88.9754 33.5,96.5C 34.0114,100.591 34.0114,104.591 33.5,108.5C 35.4385,110.34 37.4385,112.006 39.5,113.5C 37.9461,117.39 38.2794,121.057 40.5,124.5C 38.1708,126.35 37.8375,128.517 39.5,131C 39.1557,132.365 38.4891,133.532 37.5,134.5C 39.2041,136.602 40.5374,138.935 41.5,141.5C 42.9492,142.172 44.2825,142.839 45.5,143.5C 41.8333,143.5 38.1667,143.5 34.5,143.5C 33.1967,140.293 32.1967,136.96 31.5,133.5C 33.363,131.96 34.363,129.96 34.5,127.5C 34.1462,124.558 33.4795,121.725 32.5,119C 32.8333,118.667 33.1667,118.333 33.5,118C 32.0082,114.69 30.0082,111.69 27.5,109C 28.1667,108.667 28.8333,108.333 29.5,108C 28.2233,104.458 27.5566,100.958 27.5,97.5C 28.311,96.7836 28.9777,95.9503 29.5,95C 29.3511,89.9288 29.3511,84.9288 29.5,80C 31.5127,79.1247 31.5127,77.7913 29.5,76C 32.2918,74.5887 32.9585,72.5887 31.5,70C 31.7549,68.6739 32.4216,67.6739 33.5,67C 33.4121,65.0539 33.0788,63.0539 32.5,61C 35.7169,50.774 39.3836,40.774 43.5,31C 42.7471,29.513 41.9138,29.3463 41,30.5C 40.4054,29.1011 40.5721,27.7678 41.5,26.5C 40.3984,25.8243 39.3984,25.1577 38.5,24.5C 38.8333,24.5 39.1667,24.5 39.5,24.5C 44.4052,22.6976 45.7385,19.3642 43.5,14.5C 44.7911,13.4583 44.7911,12.2917 43.5,11C 45.0267,9.96809 46.36,8.80142 47.5,7.5 Z"/></g>
<g><path style="opacity:1" fill="#5b5c41" d="M 50.5,20.5 C 52.942,22.1209 54.2753,24.4542 54.5,27.5C 53.5,26.8333 52.5,26.1667 51.5,25.5C 51.1667,25.5 50.8333,25.5 50.5,25.5C 49.9035,23.602 49.9035,21.9354 50.5,20.5 Z"/></g>
<g><path style="opacity:1" fill="#2d414e" d="M 55.5,16.5 C 56.566,18.8522 57.7327,21.1856 59,23.5C 59.3333,22.8333 59.6667,22.1667 60,21.5C 60.6891,22.3567 61.5224,23.0233 62.5,23.5C 64.2076,21.3089 66.2076,20.9756 68.5,22.5C 69.2715,24.9042 70.2715,27.2375 71.5,29.5C 73.7563,33.0974 76.4229,36.4307 79.5,39.5C 77.8561,39.2865 76.3561,39.6198 75,40.5C 73.4686,36.9714 71.3019,36.638 68.5,39.5C 67.8358,37.513 66.6692,35.8463 65,34.5C 64.7122,37.4724 65.5455,40.139 67.5,42.5C 67.1667,42.8333 66.8333,43.1667 66.5,43.5C 64.7965,41.3585 63.1298,39.3585 61.5,37.5C 60.2869,34.3635 58.7869,31.3635 57,28.5C 56.3292,27.7476 55.4959,27.4142 54.5,27.5C 54.2753,24.4542 52.942,22.1209 50.5,20.5C 51.5846,18.4131 53.2512,17.0798 55.5,16.5 Z"/></g>
<g><path style="opacity:1" fill="#6f7990" d="M 161.5,12.5 C 166.172,15.006 169.672,18.6727 172,23.5C 172.383,22.944 172.883,22.6107 173.5,22.5C 173.629,24.2161 173.962,25.8828 174.5,27.5C 172.393,27.7221 170.726,28.7221 169.5,30.5C 166.732,35.288 164.732,40.288 163.5,45.5C 163.423,44.2502 162.756,43.4169 161.5,43C 158.182,42.1208 154.848,41.2875 151.5,40.5C 153.078,39.7022 154.744,39.2022 156.5,39C 155.062,38.7811 153.729,38.2811 152.5,37.5C 152.833,36.8333 153.167,36.1667 153.5,35.5C 155.958,34.081 158.625,33.081 161.5,32.5C 163.297,31.3049 164.297,29.6382 164.5,27.5C 162.801,27.6602 161.134,27.4935 159.5,27C 157.835,25.1599 155.835,24.4932 153.5,25C 156.028,25.9978 156.028,26.8311 153.5,27.5C 150.949,26.6414 148.449,25.6414 146,24.5C 144.055,25.9406 142.221,27.6073 140.5,29.5C 139.549,28.6744 138.549,28.5078 137.5,29C 136.732,34.2101 135.065,34.7101 132.5,30.5C 132.75,28.326 133.75,26.6594 135.5,25.5C 136.75,25.5774 137.583,26.244 138,27.5C 140.397,24.6 143.23,22.2667 146.5,20.5C 150.299,22.4224 154.299,22.9224 158.5,22C 154.386,19.8515 154.719,18.5182 159.5,18C 158.944,17.6174 158.611,17.1174 158.5,16.5C 159.209,15.596 160.209,15.2627 161.5,15.5C 161.5,14.5 161.5,13.5 161.5,12.5 Z"/></g>
<g><path style="opacity:1" fill="#042129" d="M 20.5,0.5 C 20.5,0.166667 20.5,-0.166667 20.5,-0.5C 24.5,-0.5 28.5,-0.5 32.5,-0.5C 33.6747,8.02558 35.6747,16.3589 38.5,24.5C 39.3984,25.1577 40.3984,25.8243 41.5,26.5C 40.5721,27.7678 40.4054,29.1011 41,30.5C 41.9138,29.3463 42.7471,29.513 43.5,31C 39.3836,40.774 35.7169,50.774 32.5,61C 33.0788,63.0539 33.4121,65.0539 33.5,67C 32.4216,67.6739 31.7549,68.6739 31.5,70C 32.9585,72.5887 32.2918,74.5887 29.5,76C 31.5127,77.7913 31.5127,79.1247 29.5,80C 29.3511,84.9288 29.3511,89.9288 29.5,95C 28.9777,95.9503 28.311,96.7836 27.5,97.5C 27.5566,100.958 28.2233,104.458 29.5,108C 28.8333,108.333 28.1667,108.667 27.5,109C 30.0082,111.69 32.0082,114.69 33.5,118C 33.1667,118.333 32.8333,118.667 32.5,119C 33.4795,121.725 34.1462,124.558 34.5,127.5C 34.363,129.96 33.363,131.96 31.5,133.5C 32.1967,136.96 33.1967,140.293 34.5,143.5C 32.1667,143.5 29.8333,143.5 27.5,143.5C 25.5781,142.113 25.5781,140.279 27.5,138C 25.2102,137.21 24.8769,135.876 26.5,134C 23.7211,127.237 23.0545,120.571 24.5,114C 21.6346,110.631 20.9679,106.964 22.5,103C 21.6433,102.311 20.9767,101.478 20.5,100.5C 21.767,98.6293 21.767,96.7959 20.5,95C 22.2995,90.3982 23.6328,85.8982 24.5,81.5C 23.9747,80.8076 23.3081,80.3076 22.5,80C 23.7721,76.7865 25.1054,73.6198 26.5,70.5C 23.8333,67.5 23.8333,64.5 26.5,61.5C 26.0688,60.7065 25.7355,59.8732 25.5,59C 26.7939,58.8939 27.4606,57.8939 27.5,56C 26.6458,50.5646 27.6458,45.3979 30.5,40.5C 29.8333,40.1667 29.1667,39.8333 28.5,39.5C 30.1054,36.224 31.1054,33.0573 31.5,30C 30.6919,29.6924 30.0253,29.1924 29.5,28.5C 29.8333,26.5 30.1667,24.5 30.5,22.5C 29.8333,21.5 29.1667,20.5 28.5,19.5C 29.4279,18.2322 29.5946,16.8989 29,15.5C 26.5506,14.1225 26.0506,12.2892 27.5,10C 26.4655,9.74736 25.4655,8.91403 24.5,7.5C 25.1667,6.83333 25.8333,6.16667 26.5,5.5C 24.8783,3.35905 22.8783,1.69238 20.5,0.5 Z"/></g>
<g><path style="opacity:1" fill="#754224" d="M 225.5,24.5 C 230.113,26.4563 233.78,29.4563 236.5,33.5C 232.721,33.5302 229.221,32.5302 226,30.5C 225.235,30.5699 224.735,30.9033 224.5,31.5C 222.014,30.5384 222.014,29.7051 224.5,29C 223.315,27.647 221.981,26.4803 220.5,25.5C 222.045,24.5481 223.712,24.2148 225.5,24.5 Z"/></g>
<g><path style="opacity:1" fill="#04303d" d="M 50.5,25.5 C 50.8333,25.5 51.1667,25.5 51.5,25.5C 53.1849,30.859 54.8516,36.1924 56.5,41.5C 55.7321,40.7375 55.2321,39.7375 55,38.5C 49.2734,51.8504 44.7734,65.1838 41.5,78.5C 41.5593,80.8912 41.8926,83.2246 42.5,85.5C 41.4511,88.0472 40.1178,90.2139 38.5,92C 39.0604,96.418 39.5604,100.918 40,105.5C 40.2213,108.943 41.2213,109.276 43,106.5C 43.8408,112.288 45.3408,118.121 47.5,124C 46.8333,124.667 46.1667,125.333 45.5,126C 46.0779,127.811 46.5779,129.645 47,131.5C 48.1703,135.175 50.0036,138.842 52.5,142.5C 52.5,142.833 52.5,143.167 52.5,143.5C 50.1667,143.5 47.8333,143.5 45.5,143.5C 44.2825,142.839 42.9492,142.172 41.5,141.5C 40.5374,138.935 39.2041,136.602 37.5,134.5C 38.4891,133.532 39.1557,132.365 39.5,131C 37.8375,128.517 38.1708,126.35 40.5,124.5C 38.2794,121.057 37.9461,117.39 39.5,113.5C 37.4385,112.006 35.4385,110.34 33.5,108.5C 34.0114,104.591 34.0114,100.591 33.5,96.5C 33.607,88.9754 34.9404,81.9754 37.5,75.5C 36.7403,71.9642 37.407,68.6308 39.5,65.5C 38.8346,63.8988 38.5012,62.3988 38.5,61C 41.0677,53.2429 43.5677,45.4095 46,37.5C 47.7583,36.5305 48.2583,35.3639 47.5,34C 48.4371,31.0506 49.4371,28.2173 50.5,25.5 Z"/></g>
<g><path style="opacity:1" fill="#cbc27e" d="M 129.5,29.5 C 128.15,30.4831 127.15,31.8164 126.5,33.5C 125.005,34.7053 123.672,34.7053 122.5,33.5C 126.207,30.4242 129.207,26.7576 131.5,22.5C 132.458,22.0472 133.292,21.3805 134,20.5C 134.167,20.8333 134.333,21.1667 134.5,21.5C 132.311,23.8867 130.644,26.5534 129.5,29.5 Z"/></g>
<g><path style="opacity:1" fill="#a97a5b" d="M 172.5,16.5 C 182.116,18.6414 190.783,22.9748 198.5,29.5C 200.85,31.2133 201.85,33.5466 201.5,36.5C 198.447,36.9107 195.447,37.5774 192.5,38.5C 191.571,39.6888 191.238,41.0222 191.5,42.5C 190.833,42.5 190.5,42.1667 190.5,41.5C 189.772,39.4885 188.938,37.4885 188,35.5C 186.667,34.1667 185.333,34.1667 184,35.5C 182.811,33.7669 181.644,32.1002 180.5,30.5C 179.01,28.7202 177.01,28.0535 174.5,28.5C 174.5,28.1667 174.5,27.8333 174.5,27.5C 173.962,25.8828 173.629,24.2161 173.5,22.5C 174.043,22.44 174.376,22.1067 174.5,21.5C 173.05,20.1502 172.383,18.4835 172.5,16.5 Z"/></g>
<g><path style="opacity:1" fill="#95552f" d="M 225.5,24.5 C 223.712,24.2148 222.045,24.5481 220.5,25.5C 221.981,26.4803 223.315,27.647 224.5,29C 222.014,29.7051 222.014,30.5384 224.5,31.5C 225.167,31.8333 225.833,32.1667 226.5,32.5C 225.395,34.3 226.061,35.4666 228.5,36C 226.114,35.6487 223.781,35.8153 221.5,36.5C 222.532,41.1947 221.699,41.5281 219,37.5C 218.834,32.8337 216.834,29.167 213,26.5C 213.333,29.5 213.667,32.5 214,35.5C 213.667,35.8333 213.333,36.1667 213,36.5C 212.667,34.8333 212.333,33.1667 212,31.5C 211.31,30.2617 210.81,30.2617 210.5,31.5C 209.221,29.8767 207.887,28.21 206.5,26.5C 206.808,25.6919 207.308,25.0253 208,24.5C 209.309,26.8912 210.309,26.8912 211,24.5C 212.57,25.3578 214.237,26.0245 216,26.5C 218.5,25.6667 219,24.1667 217.5,22C 220.451,21.9779 223.117,22.8113 225.5,24.5 Z"/></g>
<g><path style="opacity:1" fill="#969a7a" d="M 129.5,29.5 C 130.391,30.1098 131.391,30.4431 132.5,30.5C 132.657,31.8734 132.49,33.2068 132,34.5C 130.658,33.0977 129.824,33.4311 129.5,35.5C 130.905,37.9071 132.905,39.5738 135.5,40.5C 136.574,41.8846 137.907,43.0513 139.5,44C 135.061,42.7688 131.061,40.4354 127.5,37C 125.26,36.023 122.927,35.523 120.5,35.5C 118.621,36.3414 116.621,36.6747 114.5,36.5C 114.5,35.8333 114.5,35.1667 114.5,34.5C 117.054,33.612 119.721,33.2786 122.5,33.5C 123.672,34.7053 125.005,34.7053 126.5,33.5C 127.15,31.8164 128.15,30.4831 129.5,29.5 Z"/></g>
<g><path style="opacity:1" fill="#b8a440" d="M 51.5,25.5 C 52.5,26.1667 53.5,26.8333 54.5,27.5C 55.2382,31.7146 56.5715,35.7146 58.5,39.5C 57.6618,39.8417 57.3284,40.5084 57.5,41.5C 57.1667,41.5 56.8333,41.5 56.5,41.5C 54.8516,36.1924 53.1849,30.859 51.5,25.5 Z"/></g>
<g><path style="opacity:1" fill="#9e592e" d="M 233.5,23.5 C 238.173,24.5028 242.839,25.5028 247.5,26.5C 249.042,27.3007 250.708,27.634 252.5,27.5C 253.091,28.1515 253.757,28.8182 254.5,29.5C 253.833,29.8333 253.167,30.1667 252.5,30.5C 245.168,28.4997 244.501,29.833 250.5,34.5C 246.301,35.1292 242.968,36.1292 240.5,37.5C 239.026,36.5637 238.026,35.2303 237.5,33.5C 239.288,33.7852 240.955,33.4519 242.5,32.5C 240.5,31.8333 238.5,31.1667 236.5,30.5C 237.145,28.5679 238.479,27.4012 240.5,27C 237.931,26.1016 235.598,24.935 233.5,23.5 Z"/></g>
<g><path style="opacity:1" fill="#ba9e87" d="M 180.5,30.5 C 181.644,32.1002 182.811,33.7669 184,35.5C 185.333,34.1667 186.667,34.1667 188,35.5C 188.938,37.4885 189.772,39.4885 190.5,41.5C 189.485,42.4602 189.485,43.6269 190.5,45C 188.973,47.12 187.64,49.2866 186.5,51.5C 184.704,50.2073 183.037,48.7073 181.5,47C 182.624,46.7508 183.624,46.2508 184.5,45.5C 180.279,40.8783 178.946,35.8783 180.5,30.5 Z"/></g>
<g><path style="opacity:1" fill="#794324" d="M 226.5,32.5 C 229.301,33.7347 231.968,35.2347 234.5,37C 237.418,40.0967 240.418,42.9301 243.5,45.5C 246.501,48.4926 249.835,51.1593 253.5,53.5C 253.833,54.3333 254.167,55.1667 254.5,56C 254.316,57.3756 253.649,58.2089 252.5,58.5C 251.66,56.1475 250.326,54.1475 248.5,52.5C 247.594,51.0351 246.261,50.0351 244.5,49.5C 242.269,50.9034 239.936,52.0701 237.5,53C 235.826,54.5059 234.826,56.3393 234.5,58.5C 233.5,58.5 232.5,58.5 231.5,58.5C 229.644,56.0103 228.31,53.3437 227.5,50.5C 225.509,47.8631 223.509,45.1964 221.5,42.5C 220.065,43.9285 219.065,45.5952 218.5,47.5C 219.861,50.2223 221.194,52.8889 222.5,55.5C 223.527,59.446 223.694,63.446 223,67.5C 220.674,71.3185 218.174,74.9852 215.5,78.5C 214.5,78.8333 213.833,79.5 213.5,80.5C 212.957,80.44 212.624,80.1067 212.5,79.5C 214.223,77.2224 215.556,74.7224 216.5,72C 215.083,68.2526 213.916,64.4193 213,60.5C 212.583,59.244 211.75,58.5774 210.5,58.5C 207.801,54.7338 206.467,50.4005 206.5,45.5C 206.433,43.5992 206.767,41.7659 207.5,40C 206.293,38.6998 205.626,37.1998 205.5,35.5C 206.973,36.0715 208.64,36.0715 210.5,35.5C 210.5,34.1667 210.5,32.8333 210.5,31.5C 210.81,30.2617 211.31,30.2617 212,31.5C 212.333,33.1667 212.667,34.8333 213,36.5C 213.333,36.1667 213.667,35.8333 214,35.5C 213.667,32.5 213.333,29.5 213,26.5C 216.834,29.167 218.834,32.8337 219,37.5C 221.699,41.5281 222.532,41.1947 221.5,36.5C 223.781,35.8153 226.114,35.6487 228.5,36C 226.061,35.4666 225.395,34.3 226.5,32.5 Z"/></g>
<g><path style="opacity:1" fill="#7c4521" d="M 252.5,27.5 C 253.5,27.5 254.5,27.5 255.5,27.5C 255.5,31.8333 255.5,36.1667 255.5,40.5C 250.291,39.942 245.291,38.942 240.5,37.5C 242.968,36.1292 246.301,35.1292 250.5,34.5C 244.501,29.833 245.168,28.4997 252.5,30.5C 253.167,30.1667 253.833,29.8333 254.5,29.5C 253.757,28.8182 253.091,28.1515 252.5,27.5 Z"/></g>
<g><path style="opacity:1" fill="#353a47" d="M 163.5,45.5 C 163.196,46.1499 162.863,46.8165 162.5,47.5C 164.055,49.943 164.722,52.6097 164.5,55.5C 164.103,56.525 163.437,56.6917 162.5,56C 159.872,54.3745 157.539,52.3745 155.5,50C 151.528,48.6806 147.861,46.8472 144.5,44.5C 142.236,41.8743 139.236,40.541 135.5,40.5C 132.905,39.5738 130.905,37.9071 129.5,35.5C 129.824,33.4311 130.658,33.0977 132,34.5C 132.49,33.2068 132.657,31.8734 132.5,30.5C 135.065,34.7101 136.732,34.2101 137.5,29C 138.549,28.5078 139.549,28.6744 140.5,29.5C 142.221,27.6073 144.055,25.9406 146,24.5C 148.449,25.6414 150.949,26.6414 153.5,27.5C 156.028,26.8311 156.028,25.9978 153.5,25C 155.835,24.4932 157.835,25.1599 159.5,27C 161.134,27.4935 162.801,27.6602 164.5,27.5C 164.297,29.6382 163.297,31.3049 161.5,32.5C 158.625,33.081 155.958,34.081 153.5,35.5C 153.167,36.1667 152.833,36.8333 152.5,37.5C 153.729,38.2811 155.062,38.7811 156.5,39C 154.744,39.2022 153.078,39.7022 151.5,40.5C 154.848,41.2875 158.182,42.1208 161.5,43C 162.756,43.4169 163.423,44.2502 163.5,45.5 Z"/></g>
<g><path style="opacity:1" fill="#23313d" d="M 79.5,39.5 C 80.4013,40.2905 81.0679,41.2905 81.5,42.5C 80.5,42.5 79.5,42.5 78.5,42.5C 78.6399,44.1238 77.9733,45.2904 76.5,46C 81.0138,48.8497 84.5138,52.6831 87,57.5C 89.917,60.6928 93.0837,63.5262 96.5,66C 96.1667,66.5 95.8333,67 95.5,67.5C 93.1987,66.6751 90.8654,66.0084 88.5,65.5C 87.8333,65.5 87.1667,65.5 86.5,65.5C 79.3584,57.6801 73.3584,49.0135 68.5,39.5C 71.3019,36.638 73.4686,36.9714 75,40.5C 76.3561,39.6198 77.8561,39.2865 79.5,39.5 Z"/></g>
<g><path style="opacity:1" fill="#7091a0" d="M 102.5,30.5 C 107.804,36.461 113.638,42.1277 120,47.5C 120.494,45.8659 120.66,44.1992 120.5,42.5C 122.259,43.8714 124.259,44.8714 126.5,45.5C 129.175,48.1912 128.842,50.5246 125.5,52.5C 124.261,50.9928 124.595,49.8261 126.5,49C 123.205,43.9844 121.038,44.4844 120,50.5C 118.108,49.87 116.441,48.87 115,47.5C 114.536,48.0944 114.369,48.7611 114.5,49.5C 111.531,47.0081 108.531,44.5081 105.5,42C 104.833,41.3333 104.167,41.3333 103.5,42C 105,43.5 106.5,45 108,46.5C 109.275,51.7142 111.108,56.7142 113.5,61.5C 109.833,58.1667 106.167,54.8333 102.5,51.5C 98.5236,46.5189 94.5236,41.5189 90.5,36.5C 90.6667,36.1667 90.8333,35.8333 91,35.5C 94.7673,40.0233 98.7673,44.3566 103,48.5C 103.667,47.8333 103.667,47.1667 103,46.5C 98.6629,41.3308 94.1629,36.3308 89.5,31.5C 89.9175,30.7784 90.5842,30.2784 91.5,30C 90.2888,29.1072 90.2888,28.2739 91.5,27.5C 92.916,29.1392 94.5826,29.9725 96.5,30C 94.7397,29.0347 94.4063,27.868 95.5,26.5C 97.8169,28.316 99.9835,30.316 102,32.5C 102.464,31.9056 102.631,31.2389 102.5,30.5 Z"/></g>
<g><path style="opacity:1" fill="#311c0f" d="M 224.5,31.5 C 224.735,30.9033 225.235,30.5699 226,30.5C 229.221,32.5302 232.721,33.5302 236.5,33.5C 236.833,33.5 237.167,33.5 237.5,33.5C 238.026,35.2303 239.026,36.5637 240.5,37.5C 245.291,38.942 250.291,39.942 255.5,40.5C 255.5,41.5 255.5,42.5 255.5,43.5C 251.186,42.2032 246.852,41.3699 242.5,41C 243.743,42.1545 244.743,43.4878 245.5,45C 244.906,45.4643 244.239,45.631 243.5,45.5C 240.418,42.9301 237.418,40.0967 234.5,37C 231.968,35.2347 229.301,33.7347 226.5,32.5C 225.833,32.1667 225.167,31.8333 224.5,31.5 Z"/></g>
<g><path style="opacity:1" fill="#9a6342" d="M 198.5,29.5 C 201.427,30.7573 203.761,32.7573 205.5,35.5C 205.626,37.1998 206.293,38.6998 207.5,40C 206.767,41.7659 206.433,43.5992 206.5,45.5C 205.849,44.9094 205.182,44.2427 204.5,43.5C 202.771,45.8511 202.104,48.5178 202.5,51.5C 199.626,49.688 197.293,46.688 195.5,42.5C 194.167,42.5 192.833,42.5 191.5,42.5C 191.238,41.0222 191.571,39.6888 192.5,38.5C 195.447,37.5774 198.447,36.9107 201.5,36.5C 201.85,33.5466 200.85,31.2133 198.5,29.5 Z"/></g>
<g><path style="opacity:1" fill="#746930" d="M 54.5,27.5 C 55.4959,27.4142 56.3292,27.7476 57,28.5C 58.7869,31.3635 60.2869,34.3635 61.5,37.5C 61.8923,39.1789 62.3923,40.8455 63,42.5C 66.3555,48.004 69.8555,53.3373 73.5,58.5C 74.9532,61.2976 75.9532,64.2976 76.5,67.5C 76.3225,68.6948 75.9891,69.8615 75.5,71C 76.8561,72.5671 77.5228,74.4004 77.5,76.5C 76.5275,74.8608 75.1942,73.5274 73.5,72.5C 71.4335,68.0344 69.1002,63.701 66.5,59.5C 69.4366,55.5244 68.6033,52.191 64,49.5C 62.4082,45.9789 60.5749,42.6456 58.5,39.5C 56.5715,35.7146 55.2382,31.7146 54.5,27.5 Z"/></g>
<g><path style="opacity:1" fill="#63a5b6" d="M 79.5,-0.5 C 81.5,-0.5 83.5,-0.5 85.5,-0.5C 88.7804,4.78082 92.4471,9.78082 96.5,14.5C 98.3719,17.5819 100.705,20.2486 103.5,22.5C 106.436,27.1053 110.102,31.1053 114.5,34.5C 114.5,35.1667 114.5,35.8333 114.5,36.5C 116.167,38.8333 118.167,40.8333 120.5,42.5C 120.66,44.1992 120.494,45.8659 120,47.5C 113.638,42.1277 107.804,36.461 102.5,30.5C 93.5891,20.9462 85.9224,10.6129 79.5,-0.5 Z"/></g>
<g><path style="opacity:1" fill="#868749" d="M 57.5,43.5 C 59.2503,44.6594 60.2503,46.326 60.5,48.5C 60.1667,48.5 59.8333,48.5 59.5,48.5C 58.5592,46.9505 57.8925,45.2838 57.5,43.5 Z"/></g>
<g><path style="opacity:1" fill="#5a3019" d="M 227.5,50.5 C 226.839,51.7175 226.172,53.0508 225.5,54.5C 224.376,52.6314 223.543,50.6314 223,48.5C 222.503,50.8098 222.337,53.1432 222.5,55.5C 221.194,52.8889 219.861,50.2223 218.5,47.5C 219.065,45.5952 220.065,43.9285 221.5,42.5C 223.509,45.1964 225.509,47.8631 227.5,50.5 Z"/></g>
<g><path style="opacity:1" fill="#415b75" d="M 74.5,7.5 C 77.5011,12.1294 81.0011,16.4627 85,20.5C 85.3114,21.7425 84.8114,22.7425 83.5,23.5C 85.1712,26.4921 87.1712,29.1587 89.5,31.5C 94.1629,36.3308 98.6629,41.3308 103,46.5C 103.667,47.1667 103.667,47.8333 103,48.5C 98.7673,44.3566 94.7673,40.0233 91,35.5C 90.8333,35.8333 90.6667,36.1667 90.5,36.5C 94.5236,41.5189 98.5236,46.5189 102.5,51.5C 101.835,53.3691 101.169,55.3691 100.5,57.5C 93.4742,53.1623 87.1408,48.1623 81.5,42.5C 81.0679,41.2905 80.4013,40.2905 79.5,39.5C 76.4229,36.4307 73.7563,33.0974 71.5,29.5C 72.695,25.5743 73.195,21.5743 73,17.5C 70.3908,14.6168 68.5575,11.2834 67.5,7.5C 67.8333,7.16667 68.1667,6.83333 68.5,6.5C 69.8992,9.05369 71.8992,10.7204 74.5,11.5C 74.5,10.1667 74.5,8.83333 74.5,7.5 Z"/></g>
<g><path style="opacity:1" fill="#243748" d="M 78.5,25.5 C 80.4628,26.9599 82.2962,28.6266 84,30.5C 87.2306,36.399 91.2306,41.7324 96,46.5C 96.6667,47.1667 96.6667,47.8333 96,48.5C 93.6032,45.6 90.7698,43.2667 87.5,41.5C 85.4945,37.4866 82.9945,33.8199 80,30.5C 78.9914,28.9751 78.4914,27.3084 78.5,25.5 Z"/></g>
<g><path style="opacity:1" fill="#e0d4c6" d="M 174.5,28.5 C 177.01,28.0535 179.01,28.7202 180.5,30.5C 178.946,35.8783 180.279,40.8783 184.5,45.5C 183.624,46.2508 182.624,46.7508 181.5,47C 183.037,48.7073 184.704,50.2073 186.5,51.5C 189.169,56.372 190.169,61.7053 189.5,67.5C 187.923,63.7584 186.756,59.7584 186,55.5C 185.385,53.8839 184.385,52.5505 183,51.5C 183.263,52.9506 183.096,54.2839 182.5,55.5C 177.022,52.8408 171.356,50.6741 165.5,49C 166.167,48.6667 166.833,48.3333 167.5,48C 166.269,46.8173 166.269,45.6507 167.5,44.5C 168.62,45.8334 169.953,46.3334 171.5,46C 170.132,44.6598 168.799,43.3264 167.5,42C 169.066,39.0876 169.899,35.9209 170,32.5C 170.667,33.1667 171.333,33.8333 172,34.5C 171.805,32.8739 171.805,31.2072 172,29.5C 172.333,29.8333 172.667,30.1667 173,30.5C 173.278,29.5842 173.778,28.9175 174.5,28.5 Z"/></g>
<g><path style="opacity:1" fill="#593117" d="M 255.5,43.5 C 255.5,50.5 255.5,57.5 255.5,64.5C 253.087,63.3202 252.087,61.3202 252.5,58.5C 253.649,58.2089 254.316,57.3756 254.5,56C 254.167,55.1667 253.833,54.3333 253.5,53.5C 249.835,51.1593 246.501,48.4926 243.5,45.5C 244.239,45.631 244.906,45.4643 245.5,45C 244.743,43.4878 243.743,42.1545 242.5,41C 246.852,41.3699 251.186,42.2032 255.5,43.5 Z"/></g>
<g><path style="opacity:1" fill="#061e18" d="M -0.5,-0.5 C 6.5,-0.5 13.5,-0.5 20.5,-0.5C 20.5,-0.166667 20.5,0.166667 20.5,0.5C 14.8333,0.5 9.16667,0.5 3.5,0.5C 2.5,0.5 1.5,0.5 0.5,0.5C 0.5,48.1667 0.5,95.8333 0.5,143.5C 0.166667,143.5 -0.166667,143.5 -0.5,143.5C -0.5,95.5 -0.5,47.5 -0.5,-0.5 Z"/></g>
<g><path style="opacity:1" fill="#202723" d="M 68.5,39.5 C 73.3584,49.0135 79.3584,57.6801 86.5,65.5C 84.8297,65.2488 83.3297,64.5822 82,63.5C 83.0221,67.2403 85.0221,70.5736 88,73.5C 88.9819,74.7589 89.3152,76.0922 89,77.5C 83.9692,70.9778 78.8025,64.6445 73.5,58.5C 69.8555,53.3373 66.3555,48.004 63,42.5C 62.3923,40.8455 61.8923,39.1789 61.5,37.5C 63.1298,39.3585 64.7965,41.3585 66.5,43.5C 66.8333,43.1667 67.1667,42.8333 67.5,42.5C 65.5455,40.139 64.7122,37.4724 65,34.5C 66.6692,35.8463 67.8358,37.513 68.5,39.5 Z"/></g>
<g><path style="opacity:1" fill="#ceaf2a" d="M 58.5,39.5 C 60.5749,42.6456 62.4082,45.9789 64,49.5C 68.6033,52.191 69.4366,55.5244 66.5,59.5C 66.0679,58.2905 65.4013,57.2905 64.5,56.5C 63.1667,53.8333 61.8333,51.1667 60.5,48.5C 60.2503,46.326 59.2503,44.6594 57.5,43.5C 57.5,42.8333 57.5,42.1667 57.5,41.5C 57.3284,40.5084 57.6618,39.8417 58.5,39.5 Z"/></g>
<g><path style="opacity:1" fill="#1c2632" d="M 81.5,42.5 C 81.4802,44.143 82.1468,45.4763 83.5,46.5C 82.1865,48.5184 82.8532,49.6851 85.5,50C 85.1667,50.3333 84.8333,50.6667 84.5,51C 86.8833,51.065 87.55,51.8983 86.5,53.5C 90.2119,57.5074 94.2119,61.1741 98.5,64.5C 104.609,65.7183 109.609,68.7183 113.5,73.5C 114.408,72.21 114.241,70.8767 113,69.5C 110.126,67.4231 107.959,64.7564 106.5,61.5C 108.562,60.2391 110.228,60.7391 111.5,63C 112.793,63.49 114.127,63.6567 115.5,63.5C 116.859,67.6985 119.526,70.8652 123.5,73C 120.885,73.6119 119.219,75.1119 118.5,77.5C 117.5,78.1667 116.5,78.8333 115.5,79.5C 113.385,81.8907 110.719,83.2241 107.5,83.5C 109.163,81.5096 111.163,79.843 113.5,78.5C 111.303,76.4816 108.636,75.315 105.5,75C 106.579,74.044 107.745,73.2106 109,72.5C 109.617,71.5509 109.451,70.7175 108.5,70C 106.579,69.6397 104.912,68.8064 103.5,67.5C 98.8986,69.4344 94.232,69.2677 89.5,67C 88.944,66.6174 88.6107,66.1174 88.5,65.5C 90.8654,66.0084 93.1987,66.6751 95.5,67.5C 95.8333,67 96.1667,66.5 96.5,66C 93.0837,63.5262 89.917,60.6928 87,57.5C 84.5138,52.6831 81.0138,48.8497 76.5,46C 77.9733,45.2904 78.6399,44.1238 78.5,42.5C 79.5,42.5 80.5,42.5 81.5,42.5 Z"/></g>
<g><path style="opacity:1" fill="#848ea7" d="M 120.5,35.5 C 122.927,35.523 125.26,36.023 127.5,37C 131.061,40.4354 135.061,42.7688 139.5,44C 137.907,43.0513 136.574,41.8846 135.5,40.5C 139.236,40.541 142.236,41.8743 144.5,44.5C 143.261,45.212 142.761,46.212 143,47.5C 143.414,47.0426 143.914,46.7093 144.5,46.5C 146.867,49.3471 149.867,51.1804 153.5,52C 155.303,57.0014 158.636,60.3347 163.5,62C 159.5,62.6667 159.5,63.3333 163.5,64C 160.4,65.7802 160.4,68.1135 163.5,71C 159.5,71.6667 155.5,71.6667 151.5,71C 151.833,70.6667 152.167,70.3333 152.5,70C 150.503,68.8068 148.836,67.3068 147.5,65.5C 147.138,61.0217 146.138,56.6883 144.5,52.5C 136.122,47.316 128.122,41.6493 120.5,35.5 Z"/></g>
<g><path style="opacity:1" fill="#574d41" d="M 173.5,63.5 C 173.784,65.4147 173.451,67.0813 172.5,68.5C 170.167,64.5 167.833,60.5 165.5,56.5C 165.5,56.1667 165.5,55.8333 165.5,55.5C 165.565,52.0017 166.899,51.5017 169.5,54C 170.035,57.5588 171.368,60.7254 173.5,63.5 Z"/></g>
<g><path style="opacity:1" fill="#38485a" d="M 114.5,49.5 C 116.122,52.2901 118.288,54.6235 121,56.5C 121.232,55.2625 121.732,54.2625 122.5,53.5C 122.049,57.104 123.049,60.104 125.5,62.5C 124.761,62.369 124.094,62.5357 123.5,63C 124.5,64 125.5,65 126.5,66C 125.44,68.7367 124.606,71.57 124,74.5C 122.259,75.7577 120.426,76.7577 118.5,77.5C 119.219,75.1119 120.885,73.6119 123.5,73C 119.526,70.8652 116.859,67.6985 115.5,63.5C 114.833,62.8333 114.167,62.1667 113.5,61.5C 111.108,56.7142 109.275,51.7142 108,46.5C 106.5,45 105,43.5 103.5,42C 104.167,41.3333 104.833,41.3333 105.5,42C 108.531,44.5081 111.531,47.0081 114.5,49.5 Z"/></g>
<g><path style="opacity:1" fill="#512b16" d="M 248.5,52.5 C 246.936,55.2743 245.103,57.941 243,60.5C 242.751,59.376 242.251,58.376 241.5,57.5C 240.5,58.8333 239.5,58.8333 238.5,57.5C 237.801,64.9145 235.468,65.2479 231.5,58.5C 232.5,58.5 233.5,58.5 234.5,58.5C 234.826,56.3393 235.826,54.5059 237.5,53C 239.936,52.0701 242.269,50.9034 244.5,49.5C 246.261,50.0351 247.594,51.0351 248.5,52.5 Z"/></g>
<g><path style="opacity:1" fill="#52321d" d="M 206.5,45.5 C 206.467,50.4005 207.801,54.7338 210.5,58.5C 210.068,59.7095 209.401,60.7095 208.5,61.5C 208.167,61.5 207.833,61.5 207.5,61.5C 207.719,60.325 207.386,59.325 206.5,58.5C 203.506,62.0818 200.006,65.0818 196,67.5C 195.601,67.2716 195.435,66.9382 195.5,66.5C 197.325,64.1969 199.158,61.8636 201,59.5C 201.822,56.8832 202.322,54.2165 202.5,51.5C 202.104,48.5178 202.771,45.8511 204.5,43.5C 205.182,44.2427 205.849,44.9094 206.5,45.5 Z"/></g>
<g><path style="opacity:1" fill="#a39891" d="M 195.5,42.5 C 197.293,46.688 199.626,49.688 202.5,51.5C 202.322,54.2165 201.822,56.8832 201,59.5C 199.158,61.8636 197.325,64.1969 195.5,66.5C 194.5,66.5 193.5,66.5 192.5,66.5C 193.851,62.7895 194.851,58.9561 195.5,55C 194.64,50.6555 194.64,46.4889 195.5,42.5 Z"/></g>
<g><path style="opacity:1" fill="#dfd0c1" d="M 182.5,70.5 C 182.737,69.209 182.404,68.209 181.5,67.5C 180.66,65.1475 179.326,63.1475 177.5,61.5C 177.053,58.4761 176.22,58.1428 175,60.5C 172.832,59.3709 172.332,57.8709 173.5,56C 175.81,55.5034 178.143,55.3367 180.5,55.5C 179.845,60.0497 181.679,63.0497 186,64.5C 186.903,68.0332 186.57,71.3665 185,74.5C 184.8,72.6803 183.966,71.347 182.5,70.5 Z"/></g>
<g><path style="opacity:1" fill="#2c3b4b" d="M 81.5,42.5 C 87.1408,48.1623 93.4742,53.1623 100.5,57.5C 101.169,55.3691 101.835,53.3691 102.5,51.5C 106.167,54.8333 109.833,58.1667 113.5,61.5C 114.167,62.1667 114.833,62.8333 115.5,63.5C 114.127,63.6567 112.793,63.49 111.5,63C 110.228,60.7391 108.562,60.2391 106.5,61.5C 107.959,64.7564 110.126,67.4231 113,69.5C 114.241,70.8767 114.408,72.21 113.5,73.5C 109.609,68.7183 104.609,65.7183 98.5,64.5C 94.2119,61.1741 90.2119,57.5074 86.5,53.5C 87.55,51.8983 86.8833,51.065 84.5,51C 84.8333,50.6667 85.1667,50.3333 85.5,50C 82.8532,49.6851 82.1865,48.5184 83.5,46.5C 82.1468,45.4763 81.4802,44.143 81.5,42.5 Z"/></g>
<g><path style="opacity:1" fill="#353848" d="M 122.5,53.5 C 126.992,54.2745 130.992,56.1079 134.5,59C 137.095,58.8693 139.595,59.036 142,59.5C 142.465,60.9308 143.299,62.0975 144.5,63C 143.997,66.5602 142.663,70.0602 140.5,73.5C 139.833,74.8333 139.167,76.1667 138.5,77.5C 137.432,76.5655 136.099,76.2322 134.5,76.5C 134.5,75.5 134.5,74.5 134.5,73.5C 130.029,73.7857 126.696,75.9524 124.5,80C 122.803,80.3845 121.137,80.2178 119.5,79.5C 120.878,78.7656 122.378,78.0989 124,77.5C 126.167,72.8229 128.334,68.1562 130.5,63.5C 128.823,61.4602 127.156,59.4602 125.5,57.5C 125.167,57.6667 124.833,57.8333 124.5,58C 125.376,59.586 126.376,61.086 127.5,62.5C 126.743,63.7733 126.077,63.7733 125.5,62.5C 123.049,60.104 122.049,57.104 122.5,53.5 Z"/></g>
<g><path style="opacity:1" fill="#484c60" d="M 165.5,56.5 C 167.833,60.5 170.167,64.5 172.5,68.5C 172.167,69.8333 171.833,71.1667 171.5,72.5C 168.91,71.8717 166.577,70.705 164.5,69C 166.18,68.6532 167.18,67.6532 167.5,66C 167.433,62.9172 166.767,59.7506 165.5,56.5 Z"/></g>
<g><path style="opacity:1" fill="#576573" d="M 119.5,79.5 C 117.965,80.3543 116.632,80.3543 115.5,79.5C 116.5,78.8333 117.5,78.1667 118.5,77.5C 120.426,76.7577 122.259,75.7577 124,74.5C 124.606,71.57 125.44,68.7367 126.5,66C 125.5,65 124.5,64 123.5,63C 124.094,62.5357 124.761,62.369 125.5,62.5C 126.077,63.7733 126.743,63.7733 127.5,62.5C 126.376,61.086 125.376,59.586 124.5,58C 124.833,57.8333 125.167,57.6667 125.5,57.5C 127.156,59.4602 128.823,61.4602 130.5,63.5C 128.334,68.1562 126.167,72.8229 124,77.5C 122.378,78.0989 120.878,78.7656 119.5,79.5 Z"/></g>
<g><path style="opacity:1" fill="#948676" d="M 177.5,61.5 C 179.326,63.1475 180.66,65.1475 181.5,67.5C 180.178,67.67 179.011,67.3366 178,66.5C 177.333,74.5 176.667,74.5 176,66.5C 175.209,67.745 174.709,69.0783 174.5,70.5C 173.662,70.8417 173.328,71.5084 173.5,72.5C 172.833,72.5 172.167,72.5 171.5,72.5C 171.833,71.1667 172.167,69.8333 172.5,68.5C 173.451,67.0813 173.784,65.4147 173.5,63.5C 177.699,66.5693 179.033,65.9026 177.5,61.5 Z"/></g>
<g><path style="opacity:1" fill="#816452" d="M 190.5,41.5 C 190.5,42.1667 190.833,42.5 191.5,42.5C 192.833,42.5 194.167,42.5 195.5,42.5C 194.64,46.4889 194.64,50.6555 195.5,55C 194.851,58.9561 193.851,62.7895 192.5,66.5C 193.5,66.5 194.5,66.5 195.5,66.5C 195.435,66.9382 195.601,67.2716 196,67.5C 200.006,65.0818 203.506,62.0818 206.5,58.5C 207.386,59.325 207.719,60.325 207.5,61.5C 206.518,62.1408 205.518,62.8075 204.5,63.5C 202.228,67.7122 200.562,72.0455 199.5,76.5C 199.539,78.9522 200.206,80.9522 201.5,82.5C 200.587,87.3618 200.587,92.1951 201.5,97C 200.348,100.689 199.015,104.189 197.5,107.5C 197.666,99.8261 197.5,92.1594 197,84.5C 196.824,88.6877 196.324,92.6877 195.5,96.5C 195.334,89.4921 195.5,82.4921 196,75.5C 197.983,73.0703 197.817,70.7369 195.5,68.5C 193.79,69.8872 192.123,71.2206 190.5,72.5C 189.549,71.0813 189.216,69.4147 189.5,67.5C 190.169,61.7053 189.169,56.372 186.5,51.5C 187.64,49.2866 188.973,47.12 190.5,45C 189.485,43.6269 189.485,42.4602 190.5,41.5 Z"/></g>
<g><path style="opacity:1" fill="#311a0f" d="M 248.5,52.5 C 250.326,54.1475 251.66,56.1475 252.5,58.5C 252.087,61.3202 253.087,63.3202 255.5,64.5C 255.5,66.5 255.5,68.5 255.5,70.5C 252.833,70.5 250.167,70.5 247.5,70.5C 249.953,69.7828 252.287,68.6162 254.5,67C 253.552,66.5172 252.552,66.3505 251.5,66.5C 251.662,64.4727 251.495,62.4727 251,60.5C 247.899,62.7201 244.565,63.0535 241,61.5C 240.667,65.8333 240.333,70.1667 240,74.5C 238.484,64.0323 237.317,64.0323 236.5,74.5C 235.695,72.7872 234.695,71.1206 233.5,69.5C 231.292,72.0536 228.959,74.5536 226.5,77C 224.35,78.5899 222.017,79.2566 219.5,79C 226.77,74.5353 230.27,68.7019 230,61.5C 230.232,60.2625 230.732,59.2625 231.5,58.5C 235.468,65.2479 237.801,64.9145 238.5,57.5C 239.5,58.8333 240.5,58.8333 241.5,57.5C 242.251,58.376 242.751,59.376 243,60.5C 245.103,57.941 246.936,55.2743 248.5,52.5 Z"/></g>
<g><path style="opacity:1" fill="#6e7794" d="M 144.5,44.5 C 147.861,46.8472 151.528,48.6806 155.5,50C 157.539,52.3745 159.872,54.3745 162.5,56C 163.437,56.6917 164.103,56.525 164.5,55.5C 164.833,55.5 165.167,55.5 165.5,55.5C 165.5,55.8333 165.5,56.1667 165.5,56.5C 166.767,59.7506 167.433,62.9172 167.5,66C 167.18,67.6532 166.18,68.6532 164.5,69C 166.577,70.705 168.91,71.8717 171.5,72.5C 172.167,72.5 172.833,72.5 173.5,72.5C 172.548,73.452 171.548,74.452 170.5,75.5C 168.786,74.3915 168.119,75.0582 168.5,77.5C 166.5,77.5 164.5,77.5 162.5,77.5C 159.904,76.9451 157.571,75.9451 155.5,74.5C 152.825,73.6446 150.158,72.478 147.5,71C 146.167,70 146.167,69 147.5,68C 143.585,68.2753 143.585,67.4419 147.5,65.5C 148.836,67.3068 150.503,68.8068 152.5,70C 152.167,70.3333 151.833,70.6667 151.5,71C 155.5,71.6667 159.5,71.6667 163.5,71C 160.4,68.1135 160.4,65.7802 163.5,64C 159.5,63.3333 159.5,62.6667 163.5,62C 158.636,60.3347 155.303,57.0014 153.5,52C 149.867,51.1804 146.867,49.3471 144.5,46.5C 143.914,46.7093 143.414,47.0426 143,47.5C 142.761,46.212 143.261,45.212 144.5,44.5 Z"/></g>
<g><path style="opacity:1" fill="#35484c" d="M 247.5,70.5 C 250.167,70.5 252.833,70.5 255.5,70.5C 255.5,71.5 255.5,72.5 255.5,73.5C 252.5,73.5 249.5,73.5 246.5,73.5C 246.263,72.209 246.596,71.209 247.5,70.5 Z"/></g>
<g><path style="opacity:1" fill="#5d4f41" d="M 181.5,67.5 C 182.404,68.209 182.737,69.209 182.5,70.5C 182.808,72.924 182.474,75.2573 181.5,77.5C 180.808,76.9747 180.308,76.3081 180,75.5C 179.809,77.7078 179.309,79.7078 178.5,81.5C 176.377,78.1326 175.044,74.466 174.5,70.5C 174.709,69.0783 175.209,67.745 176,66.5C 176.667,74.5 177.333,74.5 178,66.5C 179.011,67.3366 180.178,67.67 181.5,67.5 Z"/></g>
<g><path style="opacity:1" fill="#5e571e" d="M 76.5,67.5 C 81.4703,74.6574 86.3037,81.9907 91,89.5C 92.0113,90.3366 93.1779,90.67 94.5,90.5C 94.5514,92.5695 93.8847,94.4029 92.5,96C 93.7286,97.3864 94.7286,98.8864 95.5,100.5C 94.391,100.443 93.391,100.11 92.5,99.5C 91.8333,98.5 91.1667,97.5 90.5,96.5C 91.4345,95.4324 91.7678,94.099 91.5,92.5C 90.5,92.5 89.5,92.5 88.5,92.5C 88.6716,91.5084 88.3382,90.8417 87.5,90.5C 85.5179,87.1897 83.1846,84.1897 80.5,81.5C 79.7515,79.6675 78.7515,78.0009 77.5,76.5C 77.5228,74.4004 76.8561,72.5671 75.5,71C 75.9891,69.8615 76.3225,68.6948 76.5,67.5 Z"/></g>
<g><path style="opacity:1" fill="#585f76" d="M 120.5,35.5 C 128.122,41.6493 136.122,47.316 144.5,52.5C 146.138,56.6883 147.138,61.0217 147.5,65.5C 143.585,67.4419 143.585,68.2753 147.5,68C 146.167,69 146.167,70 147.5,71C 150.158,72.478 152.825,73.6446 155.5,74.5C 153.14,75.865 151.473,77.865 150.5,80.5C 149.431,79.2517 148.431,77.9183 147.5,76.5C 145.726,76.8868 144.059,77.5535 142.5,78.5C 141.438,76.9783 140.771,75.3117 140.5,73.5C 142.663,70.0602 143.997,66.5602 144.5,63C 143.299,62.0975 142.465,60.9308 142,59.5C 139.595,59.036 137.095,58.8693 134.5,59C 130.992,56.1079 126.992,54.2745 122.5,53.5C 121.732,54.2625 121.232,55.2625 121,56.5C 118.288,54.6235 116.122,52.2901 114.5,49.5C 114.369,48.7611 114.536,48.0944 115,47.5C 116.441,48.87 118.108,49.87 120,50.5C 121.038,44.4844 123.205,43.9844 126.5,49C 124.595,49.8261 124.261,50.9928 125.5,52.5C 128.842,50.5246 129.175,48.1912 126.5,45.5C 124.259,44.8714 122.259,43.8714 120.5,42.5C 118.167,40.8333 116.167,38.8333 114.5,36.5C 116.621,36.6747 118.621,36.3414 120.5,35.5 Z"/></g>
<g><path style="opacity:1" fill="#91664d" d="M 207.5,61.5 C 207.833,61.5 208.167,61.5 208.5,61.5C 209.58,64.7431 209.747,68.0764 209,71.5C 207.1,77.0109 205.767,82.6776 205,88.5C 204.667,88.8333 204.333,89.1667 204,89.5C 203.833,88.5 203.667,87.5 203.5,86.5C 204.379,83.1879 204.546,79.8546 204,76.5C 203.427,78.6406 202.594,80.6406 201.5,82.5C 200.206,80.9522 199.539,78.9522 199.5,76.5C 200.562,72.0455 202.228,67.7122 204.5,63.5C 205.518,62.8075 206.518,62.1408 207.5,61.5 Z"/></g>
<g><path style="opacity:1" fill="#2c2a17" d="M 73.5,58.5 C 78.8025,64.6445 83.9692,70.9778 89,77.5C 89.3152,76.0922 88.9819,74.7589 88,73.5C 85.0221,70.5736 83.0221,67.2403 82,63.5C 83.3297,64.5822 84.8297,65.2488 86.5,65.5C 88.1696,68.0016 90.3363,70.0016 93,71.5C 93.9299,73.9361 95.0966,76.2695 96.5,78.5C 94.5269,79.3311 92.5269,79.4978 90.5,79C 93.0332,82.0309 95.6998,84.8643 98.5,87.5C 98.5,88.1667 98.5,88.8333 98.5,89.5C 97.9569,89.56 97.6236,89.8933 97.5,90.5C 99.7328,95.401 103.066,99.401 107.5,102.5C 106.051,103.172 104.718,103.839 103.5,104.5C 101.833,103.833 100.167,103.167 98.5,102.5C 96.9731,102.573 95.9731,101.906 95.5,100.5C 94.7286,98.8864 93.7286,97.3864 92.5,96C 93.8847,94.4029 94.5514,92.5695 94.5,90.5C 93.1779,90.67 92.0113,90.3366 91,89.5C 86.3037,81.9907 81.4703,74.6574 76.5,67.5C 75.9532,64.2976 74.9532,61.2976 73.5,58.5 Z"/></g>
<g><path style="opacity:1" fill="#7a5038" d="M 210.5,58.5 C 211.75,58.5774 212.583,59.244 213,60.5C 213.916,64.4193 215.083,68.2526 216.5,72C 215.556,74.7224 214.223,77.2224 212.5,79.5C 212.624,80.1067 212.957,80.44 213.5,80.5C 211.27,84.6166 208.77,88.6166 206,92.5C 204.551,99.366 202.051,105.699 198.5,111.5C 197.566,110.432 197.232,109.099 197.5,107.5C 199.015,104.189 200.348,100.689 201.5,97C 200.587,92.1951 200.587,87.3618 201.5,82.5C 202.594,80.6406 203.427,78.6406 204,76.5C 204.546,79.8546 204.379,83.1879 203.5,86.5C 203.667,87.5 203.833,88.5 204,89.5C 204.333,89.1667 204.667,88.8333 205,88.5C 205.767,82.6776 207.1,77.0109 209,71.5C 209.747,68.0764 209.58,64.7431 208.5,61.5C 209.401,60.7095 210.068,59.7095 210.5,58.5 Z"/></g>
<g><path style="opacity:1" fill="#066780" d="M 73.5,72.5 C 75.1942,73.5274 76.5275,74.8608 77.5,76.5C 78.7515,78.0009 79.7515,79.6675 80.5,81.5C 78.776,84.8349 76.776,88.0016 74.5,91C 74.8333,91.3333 75.1667,91.6667 75.5,92C 73.3534,96.3272 72.0201,100.661 71.5,105C 72.8557,107.414 72.5224,109.581 70.5,111.5C 68.7705,112.641 67.7705,114.307 67.5,116.5C 67.6667,117.5 67.8333,118.5 68,119.5C 70.5632,123.345 73.5632,126.678 77,129.5C 78.6667,128.167 80.3333,126.833 82,125.5C 83.6667,126.833 85.3333,128.167 87,129.5C 87.6172,130.449 87.4506,131.282 86.5,132C 87.9893,133.468 89.3226,134.968 90.5,136.5C 90.1667,136.5 89.8333,136.5 89.5,136.5C 88.2618,137.412 86.9285,137.579 85.5,137C 83.3102,134.976 80.9768,133.143 78.5,131.5C 76.2324,132.544 73.8991,132.711 71.5,132C 67.8739,127.071 65.2072,121.737 63.5,116C 64.1667,115 64.8333,114 65.5,113C 64.1276,110.467 63.1276,107.8 62.5,105C 63.7797,102.868 63.7797,100.702 62.5,98.5C 64.3647,95.1823 65.0313,91.849 64.5,88.5C 65.0725,83.2484 67.0725,78.5817 70.5,74.5C 71.3569,73.5748 72.3569,72.9081 73.5,72.5 Z"/></g>
<g><path style="opacity:1" fill="#45495b" d="M 140.5,73.5 C 140.771,75.3117 141.438,76.9783 142.5,78.5C 144.059,77.5535 145.726,76.8868 147.5,76.5C 148.431,77.9183 149.431,79.2517 150.5,80.5C 149.972,81.7206 149.305,82.8873 148.5,84C 147.256,84.4561 146.423,83.9561 146,82.5C 143.936,84.5675 141.602,86.2342 139,87.5C 134.816,86.4701 134.15,84.8034 137,82.5C 138.009,80.9751 138.509,79.3084 138.5,77.5C 139.167,76.1667 139.833,74.8333 140.5,73.5 Z"/></g>
<g><path style="opacity:1" fill="#c3b0a1" d="M 174.5,27.5 C 174.5,27.8333 174.5,28.1667 174.5,28.5C 173.778,28.9175 173.278,29.5842 173,30.5C 172.667,30.1667 172.333,29.8333 172,29.5C 171.805,31.2072 171.805,32.8739 172,34.5C 171.333,33.8333 170.667,33.1667 170,32.5C 169.899,35.9209 169.066,39.0876 167.5,42C 168.799,43.3264 170.132,44.6598 171.5,46C 169.953,46.3334 168.62,45.8334 167.5,44.5C 166.269,45.6507 166.269,46.8173 167.5,48C 166.833,48.3333 166.167,48.6667 165.5,49C 171.356,50.6741 177.022,52.8408 182.5,55.5C 183.096,54.2839 183.263,52.9506 183,51.5C 184.385,52.5505 185.385,53.8839 186,55.5C 186.756,59.7584 187.923,63.7584 189.5,67.5C 189.216,69.4147 189.549,71.0813 190.5,72.5C 192.197,74.3052 193.03,76.6385 193,79.5C 193.763,76.9365 194.263,76.9365 194.5,79.5C 193.094,82.3368 192.261,85.3368 192,88.5C 189.964,90.5922 188.464,92.9255 187.5,95.5C 187.47,91.7211 188.47,88.2211 190.5,85C 190.167,84.5 189.833,84 189.5,83.5C 188.59,85.6549 187.423,87.6549 186,89.5C 186.333,85.8333 186.667,82.1667 187,78.5C 185.806,80.5254 184.306,80.8587 182.5,79.5C 181.326,84.441 179.659,89.1076 177.5,93.5C 178.953,97.2359 180.953,100.569 183.5,103.5C 183.489,105.017 182.823,106.184 181.5,107C 182.831,108.659 184.165,110.326 185.5,112C 183.756,116.233 181.422,120.066 178.5,123.5C 177.624,123.631 176.957,123.298 176.5,122.5C 178.116,119.83 179.449,116.996 180.5,114C 180.237,111.568 179.237,109.568 177.5,108C 178.38,106.644 178.714,105.144 178.5,103.5C 175.365,103.452 173.698,101.785 173.5,98.5C 172.893,98.6236 172.56,98.9569 172.5,99.5C 172.436,103.22 171.936,106.886 171,110.5C 170.503,108.19 170.337,105.857 170.5,103.5C 170.5,103.167 170.5,102.833 170.5,102.5C 171.223,98.8607 172.223,95.1941 173.5,91.5C 175.694,88.4456 177.361,85.1122 178.5,81.5C 179.309,79.7078 179.809,77.7078 180,75.5C 180.308,76.3081 180.808,76.9747 181.5,77.5C 182.474,75.2573 182.808,72.924 182.5,70.5C 183.966,71.347 184.8,72.6803 185,74.5C 186.57,71.3665 186.903,68.0332 186,64.5C 181.679,63.0497 179.845,60.0497 180.5,55.5C 178.143,55.3367 175.81,55.5034 173.5,56C 172.332,57.8709 172.832,59.3709 175,60.5C 176.22,58.1428 177.053,58.4761 177.5,61.5C 179.033,65.9026 177.699,66.5693 173.5,63.5C 171.368,60.7254 170.035,57.5588 169.5,54C 166.899,51.5017 165.565,52.0017 165.5,55.5C 165.167,55.5 164.833,55.5 164.5,55.5C 164.722,52.6097 164.055,49.943 162.5,47.5C 162.863,46.8165 163.196,46.1499 163.5,45.5C 164.732,40.288 166.732,35.288 169.5,30.5C 170.726,28.7221 172.393,27.7221 174.5,27.5 Z"/></g>
<g><path style="opacity:1" fill="#22120b" d="M 247.5,70.5 C 246.596,71.209 246.263,72.209 246.5,73.5C 249.5,73.5 252.5,73.5 255.5,73.5C 255.5,73.8333 255.5,74.1667 255.5,74.5C 254.508,81.9818 254.175,89.6484 254.5,97.5C 249.5,96.8333 244.5,96.1667 239.5,95.5C 240.619,89.8645 242.285,84.3645 244.5,79C 242.706,77.4395 241.206,77.9395 240,80.5C 239.667,79.1667 239.333,77.8333 239,76.5C 236.791,80.705 235.958,85.0383 236.5,89.5C 234.726,93.3888 232.726,97.0554 230.5,100.5C 229.489,98.5976 229.322,96.5976 230,94.5C 232.288,87.8055 234.454,81.1389 236.5,74.5C 237.317,64.0323 238.484,64.0323 240,74.5C 240.333,70.1667 240.667,65.8333 241,61.5C 244.565,63.0535 247.899,62.7201 251,60.5C 251.495,62.4727 251.662,64.4727 251.5,66.5C 252.552,66.3505 253.552,66.5172 254.5,67C 252.287,68.6162 249.953,69.7828 247.5,70.5 Z"/></g>
<g><path style="opacity:1" fill="#065064" d="M 64.5,56.5 C 65.4013,57.2905 66.0679,58.2905 66.5,59.5C 69.1002,63.701 71.4335,68.0344 73.5,72.5C 72.3569,72.9081 71.3569,73.5748 70.5,74.5C 67.0725,78.5817 65.0725,83.2484 64.5,88.5C 62.9328,89.6808 62.0995,91.3474 62,93.5C 61.9817,89.9292 60.315,87.5958 57,86.5C 56.9117,89.3559 57.7451,92.0226 59.5,94.5C 58.9968,103.154 58.9968,111.987 59.5,121C 61.5364,128.586 65.8697,134.42 72.5,138.5C 73.8139,137.687 74.9805,136.687 76,135.5C 77.9842,137.763 80.1509,139.93 82.5,142C 79.9644,142.186 77.631,142.686 75.5,143.5C 72.8333,143.5 70.1667,143.5 67.5,143.5C 64.7131,139.519 61.5465,135.852 58,132.5C 57.2111,129.166 56.0444,125.999 54.5,123C 55.5728,121.687 56.2395,120.187 56.5,118.5C 54.243,110.663 53.0764,102.663 53,94.5C 51.1282,92.5618 50.2948,90.2285 50.5,87.5C 51.1277,81.4264 52.961,75.4264 56,69.5C 56.9147,70.3279 57.5814,71.3279 58,72.5C 59.8782,67.0281 62.0448,61.6948 64.5,56.5 Z"/></g>
<g><path style="opacity:1" fill="#0c1216" d="M 86.5,65.5 C 87.1667,65.5 87.8333,65.5 88.5,65.5C 88.6107,66.1174 88.944,66.6174 89.5,67C 94.232,69.2677 98.8986,69.4344 103.5,67.5C 104.912,68.8064 106.579,69.6397 108.5,70C 109.451,70.7175 109.617,71.5509 109,72.5C 107.745,73.2106 106.579,74.044 105.5,75C 108.636,75.315 111.303,76.4816 113.5,78.5C 111.163,79.843 109.163,81.5096 107.5,83.5C 104.378,84.5612 101.378,85.8946 98.5,87.5C 95.6998,84.8643 93.0332,82.0309 90.5,79C 92.5269,79.4978 94.5269,79.3311 96.5,78.5C 95.0966,76.2695 93.9299,73.9361 93,71.5C 90.3363,70.0016 88.1696,68.0016 86.5,65.5 Z"/></g>
<g><path style="opacity:1" fill="#565970" d="M 174.5,70.5 C 175.044,74.466 176.377,78.1326 178.5,81.5C 177.361,85.1122 175.694,88.4456 173.5,91.5C 172.883,91.6107 172.383,91.944 172,92.5C 172.227,90.4259 172.061,88.4259 171.5,86.5C 170.726,85.2888 169.893,85.2888 169,86.5C 167.833,84.8333 166.667,83.1667 165.5,81.5C 166.09,80.2011 167.09,79.3678 168.5,79C 166.292,78.8091 164.292,78.3091 162.5,77.5C 164.5,77.5 166.5,77.5 168.5,77.5C 168.119,75.0582 168.786,74.3915 170.5,75.5C 171.548,74.452 172.548,73.452 173.5,72.5C 173.328,71.5084 173.662,70.8417 174.5,70.5 Z"/></g>
<g><path style="opacity:1" fill="#3c1e0f" d="M 227.5,50.5 C 228.31,53.3437 229.644,56.0103 231.5,58.5C 230.732,59.2625 230.232,60.2625 230,61.5C 230.27,68.7019 226.77,74.5353 219.5,79C 222.017,79.2566 224.35,78.5899 226.5,77C 228.959,74.5536 231.292,72.0536 233.5,69.5C 234.695,71.1206 235.695,72.7872 236.5,74.5C 234.454,81.1389 232.288,87.8055 230,94.5C 229.322,96.5976 229.489,98.5976 230.5,100.5C 230.16,102.679 229.16,104.512 227.5,106C 221.748,107.711 216.414,110.211 211.5,113.5C 209.972,113.483 209.472,112.816 210,111.5C 214.685,107.649 219.519,103.983 224.5,100.5C 225.245,96.6976 226.411,93.0309 228,89.5C 228.667,87.1667 228.667,84.8333 228,82.5C 227.602,86.6277 226.102,90.2944 223.5,93.5C 222.349,94.731 221.183,94.731 220,93.5C 219.303,96.6916 217.47,98.6916 214.5,99.5C 216.248,93.1043 218.248,86.771 220.5,80.5C 218.219,80.9227 216.552,80.256 215.5,78.5C 218.174,74.9852 220.674,71.3185 223,67.5C 223.694,63.446 223.527,59.446 222.5,55.5C 222.337,53.1432 222.503,50.8098 223,48.5C 223.543,50.6314 224.376,52.6314 225.5,54.5C 226.172,53.0508 226.839,51.7175 227.5,50.5 Z"/></g>
<g><path style="opacity:1" fill="#150c09" d="M 255.5,74.5 C 255.5,97.5 255.5,120.5 255.5,143.5C 238.167,143.5 220.833,143.5 203.5,143.5C 204.657,141.862 205.824,140.196 207,138.5C 206.501,135.15 206.667,131.817 207.5,128.5C 208.307,126.02 209.974,124.687 212.5,124.5C 212.5,123.5 212.5,122.5 212.5,121.5C 210.139,121.326 207.806,120.993 205.5,120.5C 204.833,119.833 204.167,119.167 203.5,118.5C 204.028,117.279 204.695,116.113 205.5,115C 207.708,114.809 209.708,114.309 211.5,113.5C 216.414,110.211 221.748,107.711 227.5,106C 229.16,104.512 230.16,102.679 230.5,100.5C 232.726,97.0554 234.726,93.3888 236.5,89.5C 235.958,85.0383 236.791,80.705 239,76.5C 239.333,77.8333 239.667,79.1667 240,80.5C 241.206,77.9395 242.706,77.4395 244.5,79C 242.285,84.3645 240.619,89.8645 239.5,95.5C 244.5,96.1667 249.5,96.8333 254.5,97.5C 254.175,89.6484 254.508,81.9818 255.5,74.5 Z"/></g>
<g><path style="opacity:1" fill="#08758d" d="M 80.5,81.5 C 83.1846,84.1897 85.5179,87.1897 87.5,90.5C 85.3192,91.2908 83.6525,92.7908 82.5,95C 79.5384,100.528 78.5384,106.028 79.5,111.5C 76.3243,111.108 73.3243,111.108 70.5,111.5C 72.5224,109.581 72.8557,107.414 71.5,105C 72.0201,100.661 73.3534,96.3272 75.5,92C 75.1667,91.6667 74.8333,91.3333 74.5,91C 76.776,88.0016 78.776,84.8349 80.5,81.5 Z"/></g>
<g><path style="opacity:1" fill="#54301c" d="M 215.5,78.5 C 216.552,80.256 218.219,80.9227 220.5,80.5C 218.248,86.771 216.248,93.1043 214.5,99.5C 211.887,107.107 206.554,111.441 198.5,112.5C 198.5,112.167 198.5,111.833 198.5,111.5C 202.051,105.699 204.551,99.366 206,92.5C 208.77,88.6166 211.27,84.6166 213.5,80.5C 213.833,79.5 214.5,78.8333 215.5,78.5 Z"/></g>
<g><path style="opacity:1" fill="#dccbbb" d="M 187.5,95.5 C 187.657,96.8734 187.49,98.2068 187,99.5C 185.624,100.705 184.458,102.038 183.5,103.5C 180.953,100.569 178.953,97.2359 177.5,93.5C 179.659,89.1076 181.326,84.441 182.5,79.5C 184.306,80.8587 185.806,80.5254 187,78.5C 186.667,82.1667 186.333,85.8333 186,89.5C 187.423,87.6549 188.59,85.6549 189.5,83.5C 189.833,84 190.167,84.5 190.5,85C 188.47,88.2211 187.47,91.7211 187.5,95.5 Z"/></g>
<g><path style="opacity:1" fill="#c7a723" d="M 88.5,92.5 C 89.5,92.5 90.5,92.5 91.5,92.5C 91.7678,94.099 91.4345,95.4324 90.5,96.5C 89.3995,95.3951 88.7329,94.0618 88.5,92.5 Z"/></g>
<g><path style="opacity:1" fill="#2d2d3a" d="M 138.5,77.5 C 138.509,79.3084 138.009,80.9751 137,82.5C 134.15,84.8034 134.816,86.4701 139,87.5C 141.602,86.2342 143.936,84.5675 146,82.5C 146.423,83.9561 147.256,84.4561 148.5,84C 149.305,82.8873 149.972,81.7206 150.5,80.5C 151.473,77.865 153.14,75.865 155.5,74.5C 157.571,75.9451 159.904,76.9451 162.5,77.5C 164.292,78.3091 166.292,78.8091 168.5,79C 167.09,79.3678 166.09,80.2011 165.5,81.5C 166.667,83.1667 167.833,84.8333 169,86.5C 169.893,85.2888 170.726,85.2888 171.5,86.5C 172.061,88.4259 172.227,90.4259 172,92.5C 172.383,91.944 172.883,91.6107 173.5,91.5C 172.223,95.1941 171.223,98.8607 170.5,102.5C 170.5,101.833 170.5,101.167 170.5,100.5C 169.903,99.8614 169.07,99.528 168,99.5C 162.893,100.701 157.726,101.534 152.5,102C 149.476,105.198 145.809,106.198 141.5,105C 144.915,103.914 148.249,102.581 151.5,101C 149.391,99.8589 147.558,98.3589 146,96.5C 141.799,98.029 138.466,100.696 136,104.5C 134.795,103.929 133.628,103.262 132.5,102.5C 132.709,101.914 133.043,101.414 133.5,101C 132.033,99.9025 131.199,98.4025 131,96.5C 130.586,96.9574 130.086,97.2907 129.5,97.5C 128.667,96.5 127.833,95.5 127,94.5C 125.663,95.7649 124.163,96.2649 122.5,96C 125.311,94.3563 127.644,92.1897 129.5,89.5C 127.731,87.443 125.731,85.6097 123.5,84C 124.308,83.6924 124.975,83.1924 125.5,82.5C 119.092,80.424 113.425,81.5906 108.5,86C 104.885,86.4705 101.551,87.6371 98.5,89.5C 98.5,88.8333 98.5,88.1667 98.5,87.5C 101.378,85.8946 104.378,84.5612 107.5,83.5C 110.719,83.2241 113.385,81.8907 115.5,79.5C 116.632,80.3543 117.965,80.3543 119.5,79.5C 121.137,80.2178 122.803,80.3845 124.5,80C 126.696,75.9524 130.029,73.7857 134.5,73.5C 134.5,74.5 134.5,75.5 134.5,76.5C 136.099,76.2322 137.432,76.5655 138.5,77.5 Z"/></g>
<g><path style="opacity:1" fill="#59627a" d="M 151.5,88.5 C 151.738,90.4044 152.738,91.7377 154.5,92.5C 157.977,93.3227 161.644,93.8227 165.5,94C 159.788,97.6585 154.621,96.8252 150,91.5C 149.333,90.1667 149.333,88.8333 150,87.5C 150.383,88.056 150.883,88.3893 151.5,88.5 Z"/></g>
<g><path style="opacity:1" fill="#050709" d="M 154.5,92.5 C 152.738,91.7377 151.738,90.4044 151.5,88.5C 151.61,77.787 155.776,75.787 164,82.5C 164.728,85.2305 164.562,87.8971 163.5,90.5C 160.522,91.3525 157.522,92.0192 154.5,92.5 Z"/></g>
<g><path style="opacity:1" fill="#1a1821" d="M 170.5,100.5 C 164.626,103.269 158.626,105.769 152.5,108C 147.692,111.308 143.025,114.808 138.5,118.5C 135.756,117.509 133.089,117.843 130.5,119.5C 129.049,117.441 127.049,116.441 124.5,116.5C 124.78,113.612 123.447,112.112 120.5,112C 122.036,110.401 122.536,108.567 122,106.5C 119.429,104.647 116.762,102.981 114,101.5C 113.667,101.833 113.333,102.167 113,102.5C 113.379,100.925 113.212,99.425 112.5,98C 106.915,96.5629 102.249,93.7296 98.5,89.5C 101.551,87.6371 104.885,86.4705 108.5,86C 113.425,81.5906 119.092,80.424 125.5,82.5C 124.975,83.1924 124.308,83.6924 123.5,84C 125.731,85.6097 127.731,87.443 129.5,89.5C 127.644,92.1897 125.311,94.3563 122.5,96C 124.163,96.2649 125.663,95.7649 127,94.5C 127.833,95.5 128.667,96.5 129.5,97.5C 130.086,97.2907 130.586,96.9574 131,96.5C 131.199,98.4025 132.033,99.9025 133.5,101C 133.043,101.414 132.709,101.914 132.5,102.5C 133.628,103.262 134.795,103.929 136,104.5C 138.466,100.696 141.799,98.029 146,96.5C 147.558,98.3589 149.391,99.8589 151.5,101C 148.249,102.581 144.915,103.914 141.5,105C 145.809,106.198 149.476,105.198 152.5,102C 157.726,101.534 162.893,100.701 168,99.5C 169.07,99.528 169.903,99.8614 170.5,100.5 Z"/></g>
<g><path style="opacity:1" fill="#4c3b2e" d="M 197.5,107.5 C 197.232,109.099 197.566,110.432 198.5,111.5C 198.5,111.833 198.5,112.167 198.5,112.5C 197.36,114.045 196.36,115.712 195.5,117.5C 195.167,117.5 194.833,117.5 194.5,117.5C 193.325,117.719 192.325,117.386 191.5,116.5C 193.961,112.207 195.294,107.54 195.5,102.5C 195.5,100.5 195.5,98.5 195.5,96.5C 196.324,92.6877 196.824,88.6877 197,84.5C 197.5,92.1594 197.666,99.8261 197.5,107.5 Z"/></g>
<g><path style="opacity:1" fill="#0888a5" d="M 87.5,90.5 C 88.3382,90.8417 88.6716,91.5084 88.5,92.5C 88.7329,94.0618 89.3995,95.3951 90.5,96.5C 91.1667,97.5 91.8333,98.5 92.5,99.5C 92.33,100.822 92.6634,101.989 93.5,103C 90.2151,106.449 89.8818,110.115 92.5,114C 90.476,115.458 90.3093,117.291 92,119.5C 94.73,122.4 97.5633,125.067 100.5,127.5C 99.8333,128.833 98.8333,129.833 97.5,130.5C 93.8581,129.335 90.8581,127.168 88.5,124C 88.8333,123.667 89.1667,123.333 89.5,123C 87.7091,122.585 86.3757,121.585 85.5,120C 84.5509,119.383 83.7175,119.549 83,120.5C 80.6111,118.245 79.4444,115.745 79.5,113C 80.8333,113 82.1667,113 83.5,113C 82.3913,110.1 82.2246,106.933 83,103.5C 81.2042,105.514 80.7042,107.681 81.5,110C 80.9558,110.717 80.2891,111.217 79.5,111.5C 78.5384,106.028 79.5384,100.528 82.5,95C 83.6525,92.7908 85.3192,91.2908 87.5,90.5 Z"/></g>
<g><path style="opacity:1" fill="#1098b2" d="M 92.5,99.5 C 93.391,100.11 94.391,100.443 95.5,100.5C 95.9731,101.906 96.9731,102.573 98.5,102.5C 102.5,106.167 106.5,109.833 110.5,113.5C 109.662,113.842 109.328,114.508 109.5,115.5C 107.413,116.585 106.08,118.251 105.5,120.5C 104.079,123.009 102.412,125.343 100.5,127.5C 97.5633,125.067 94.73,122.4 92,119.5C 90.3093,117.291 90.476,115.458 92.5,114C 89.8818,110.115 90.2151,106.449 93.5,103C 92.6634,101.989 92.33,100.822 92.5,99.5 Z"/></g>
<g><path style="opacity:1" fill="#9d8573" d="M 195.5,96.5 C 195.5,98.5 195.5,100.5 195.5,102.5C 193.797,105.875 192.463,109.542 191.5,113.5C 190.5,113.5 189.5,113.5 188.5,113.5C 186.869,118.465 183.535,121.798 178.5,123.5C 181.422,120.066 183.756,116.233 185.5,112C 184.165,110.326 182.831,108.659 181.5,107C 182.823,106.184 183.489,105.017 183.5,103.5C 184.458,102.038 185.624,100.705 187,99.5C 187.49,98.2068 187.657,96.8734 187.5,95.5C 188.464,92.9255 189.964,90.5922 192,88.5C 192.261,85.3368 193.094,82.3368 194.5,79.5C 194.263,76.9365 193.763,76.9365 193,79.5C 193.03,76.6385 192.197,74.3052 190.5,72.5C 192.123,71.2206 193.79,69.8872 195.5,68.5C 197.817,70.7369 197.983,73.0703 196,75.5C 195.5,82.4921 195.334,89.4921 195.5,96.5 Z"/></g>
<g><path style="opacity:1" fill="#2b150a" d="M 211.5,113.5 C 209.708,114.309 207.708,114.809 205.5,115C 204.695,116.113 204.028,117.279 203.5,118.5C 202.391,118.443 201.391,118.11 200.5,117.5C 198.833,117.5 197.167,117.5 195.5,117.5C 196.36,115.712 197.36,114.045 198.5,112.5C 206.554,111.441 211.887,107.107 214.5,99.5C 217.47,98.6916 219.303,96.6916 220,93.5C 221.183,94.731 222.349,94.731 223.5,93.5C 226.102,90.2944 227.602,86.6277 228,82.5C 228.667,84.8333 228.667,87.1667 228,89.5C 226.411,93.0309 225.245,96.6976 224.5,100.5C 219.519,103.983 214.685,107.649 210,111.5C 209.472,112.816 209.972,113.483 211.5,113.5 Z"/></g>
<g><path style="opacity:1" fill="#3c2e0f" d="M 109.5,109.5 C 111.655,109.372 113.655,109.872 115.5,111C 115.167,111.333 114.833,111.667 114.5,112C 115.862,114.034 116.862,116.201 117.5,118.5C 116.279,117.972 115.113,117.305 114,116.5C 112.988,113.798 111.488,111.465 109.5,109.5 Z"/></g>
<g><path style="opacity:1" fill="#b18d1d" d="M 98.5,102.5 C 100.167,103.167 101.833,103.833 103.5,104.5C 105.475,106.137 107.475,107.804 109.5,109.5C 111.488,111.465 112.988,113.798 114,116.5C 115.113,117.305 116.279,117.972 117.5,118.5C 118.686,119.961 118.686,121.295 117.5,122.5C 116.5,120.833 115.167,119.5 113.5,118.5C 112.308,116.887 111.308,115.22 110.5,113.5C 106.5,109.833 102.5,106.167 98.5,102.5 Z"/></g>
<g><path style="opacity:1" fill="#484d5a" d="M 172.5,99.5 C 173.473,101.948 173.806,104.615 173.5,107.5C 172.835,109.369 172.169,111.369 171.5,113.5C 170.132,111.363 169.132,109.03 168.5,106.5C 162.693,110.474 157.026,114.64 151.5,119C 150.563,119.692 149.897,119.525 149.5,118.5C 155.934,112.776 162.934,107.776 170.5,103.5C 170.337,105.857 170.503,108.19 171,110.5C 171.936,106.886 172.436,103.22 172.5,99.5 Z"/></g>
<g><path style="opacity:1" fill="#043949" d="M 56.5,41.5 C 56.8333,41.5 57.1667,41.5 57.5,41.5C 57.5,42.1667 57.5,42.8333 57.5,43.5C 57.8925,45.2838 58.5592,46.9505 59.5,48.5C 57.8422,53.1074 56.1755,57.7741 54.5,62.5C 52.5362,65.5673 50.2029,68.4007 47.5,71C 48.0219,71.5613 48.3552,72.228 48.5,73C 47.1189,75.1349 46.1189,77.4682 45.5,80C 47.0189,89.3148 48.1855,98.8148 49,108.5C 49.5826,113.509 51.0826,118.176 53.5,122.5C 51.3577,130.064 53.3577,136.397 59.5,141.5C 57.2573,142.474 54.924,142.808 52.5,142.5C 50.0036,138.842 48.1703,135.175 47,131.5C 46.5779,129.645 46.0779,127.811 45.5,126C 46.1667,125.333 46.8333,124.667 47.5,124C 45.3408,118.121 43.8408,112.288 43,106.5C 41.2213,109.276 40.2213,108.943 40,105.5C 39.5604,100.918 39.0604,96.418 38.5,92C 40.1178,90.2139 41.4511,88.0472 42.5,85.5C 41.8926,83.2246 41.5593,80.8912 41.5,78.5C 44.7734,65.1838 49.2734,51.8504 55,38.5C 55.2321,39.7375 55.7321,40.7375 56.5,41.5 Z"/></g>
<g><path style="opacity:1" fill="#085d77" d="M 64.5,88.5 C 65.0313,91.849 64.3647,95.1823 62.5,98.5C 63.7797,100.702 63.7797,102.868 62.5,105C 63.1276,107.8 64.1276,110.467 65.5,113C 64.8333,114 64.1667,115 63.5,116C 65.2072,121.737 67.8739,127.071 71.5,132C 73.8991,132.711 76.2324,132.544 78.5,131.5C 80.9768,133.143 83.3102,134.976 85.5,137C 86.9285,137.579 88.2618,137.412 89.5,136.5C 91.4888,137.887 93.3221,137.553 95,135.5C 95.5791,136.928 95.4124,138.262 94.5,139.5C 93.5655,140.568 93.2322,141.901 93.5,143.5C 87.5,143.5 81.5,143.5 75.5,143.5C 77.631,142.686 79.9644,142.186 82.5,142C 80.1509,139.93 77.9842,137.763 76,135.5C 74.9805,136.687 73.8139,137.687 72.5,138.5C 65.8697,134.42 61.5364,128.586 59.5,121C 58.9968,111.987 58.9968,103.154 59.5,94.5C 57.7451,92.0226 56.9117,89.3559 57,86.5C 60.315,87.5958 61.9817,89.9292 62,93.5C 62.0995,91.3474 62.9328,89.6808 64.5,88.5 Z"/></g>
<g><path style="opacity:1" fill="#2e3143" d="M 173.5,107.5 C 173.46,110.881 173.793,114.214 174.5,117.5C 168.753,119.23 163.086,120.396 157.5,121C 156.328,121.419 155.328,122.085 154.5,123C 150.627,123.27 146.794,123.77 143,124.5C 141.97,124.164 141.47,123.497 141.5,122.5C 143.883,120.642 146.55,119.308 149.5,118.5C 149.897,119.525 150.563,119.692 151.5,119C 157.026,114.64 162.693,110.474 168.5,106.5C 169.132,109.03 170.132,111.363 171.5,113.5C 172.169,111.369 172.835,109.369 173.5,107.5 Z"/></g>
<g><path style="opacity:1" fill="#0b7a9a" d="M 97.5,130.5 C 95.8794,133.171 93.5461,135.171 90.5,136.5C 89.3226,134.968 87.9893,133.468 86.5,132C 87.4506,131.282 87.6172,130.449 87,129.5C 85.3333,128.167 83.6667,126.833 82,125.5C 80.3333,126.833 78.6667,128.167 77,129.5C 73.5632,126.678 70.5632,123.345 68,119.5C 67.8333,118.5 67.6667,117.5 67.5,116.5C 67.7705,114.307 68.7705,112.641 70.5,111.5C 73.3243,111.108 76.3243,111.108 79.5,111.5C 80.2891,111.217 80.9558,110.717 81.5,110C 80.7042,107.681 81.2042,105.514 83,103.5C 82.2246,106.933 82.3913,110.1 83.5,113C 82.1667,113 80.8333,113 79.5,113C 79.4444,115.745 80.6111,118.245 83,120.5C 83.7175,119.549 84.5509,119.383 85.5,120C 86.3757,121.585 87.7091,122.585 89.5,123C 89.1667,123.333 88.8333,123.667 88.5,124C 90.8581,127.168 93.8581,129.335 97.5,130.5 Z"/></g>
<g><path style="opacity:1" fill="#191823" d="M 174.5,117.5 C 175.913,121.019 175.579,124.353 173.5,127.5C 170.794,127.688 168.461,128.688 166.5,130.5C 162.432,126.152 157.765,125.485 152.5,128.5C 149.5,128.5 146.5,128.5 143.5,128.5C 141.974,127.094 140.307,125.928 138.5,125C 139.373,123.955 140.373,123.122 141.5,122.5C 141.47,123.497 141.97,124.164 143,124.5C 146.794,123.77 150.627,123.27 154.5,123C 155.328,122.085 156.328,121.419 157.5,121C 163.086,120.396 168.753,119.23 174.5,117.5 Z"/></g>
<g><path style="opacity:1" fill="#064456" d="M 59.5,48.5 C 59.8333,48.5 60.1667,48.5 60.5,48.5C 61.8333,51.1667 63.1667,53.8333 64.5,56.5C 62.0448,61.6948 59.8782,67.0281 58,72.5C 57.5814,71.3279 56.9147,70.3279 56,69.5C 52.961,75.4264 51.1277,81.4264 50.5,87.5C 50.2948,90.2285 51.1282,92.5618 53,94.5C 53.0764,102.663 54.243,110.663 56.5,118.5C 56.2395,120.187 55.5728,121.687 54.5,123C 56.0444,125.999 57.2111,129.166 58,132.5C 61.5465,135.852 64.7131,139.519 67.5,143.5C 62.5,143.5 57.5,143.5 52.5,143.5C 52.5,143.167 52.5,142.833 52.5,142.5C 54.924,142.808 57.2573,142.474 59.5,141.5C 53.3577,136.397 51.3577,130.064 53.5,122.5C 51.0826,118.176 49.5826,113.509 49,108.5C 48.1855,98.8148 47.0189,89.3148 45.5,80C 46.1189,77.4682 47.1189,75.1349 48.5,73C 48.3552,72.228 48.0219,71.5613 47.5,71C 50.2029,68.4007 52.5362,65.5673 54.5,62.5C 56.1755,57.7741 57.8422,53.1074 59.5,48.5 Z"/></g>
<g><path style="opacity:1" fill="#a18e6a" d="M 110.5,113.5 C 111.308,115.22 112.308,116.887 113.5,118.5C 111.953,123.26 109.62,127.594 106.5,131.5C 105.353,129.235 105.186,126.902 106,124.5C 107.18,121.479 108.346,118.479 109.5,115.5C 109.328,114.508 109.662,113.842 110.5,113.5 Z"/></g>
<g><path style="opacity:1" fill="#0f0d10" d="M 98.5,89.5 C 102.249,93.7296 106.915,96.5629 112.5,98C 113.212,99.425 113.379,100.925 113,102.5C 113.333,102.167 113.667,101.833 114,101.5C 116.762,102.981 119.429,104.647 122,106.5C 122.536,108.567 122.036,110.401 120.5,112C 123.447,112.112 124.78,113.612 124.5,116.5C 127.049,116.441 129.049,117.441 130.5,119.5C 133.089,117.843 135.756,117.509 138.5,118.5C 143.025,114.808 147.692,111.308 152.5,108C 158.626,105.769 164.626,103.269 170.5,100.5C 170.5,101.167 170.5,101.833 170.5,102.5C 170.5,102.833 170.5,103.167 170.5,103.5C 162.934,107.776 155.934,112.776 149.5,118.5C 146.55,119.308 143.883,120.642 141.5,122.5C 140.373,123.122 139.373,123.955 138.5,125C 140.307,125.928 141.974,127.094 143.5,128.5C 146.5,128.5 149.5,128.5 152.5,128.5C 157.765,125.485 162.432,126.152 166.5,130.5C 162.003,133.291 157.17,135.624 152,137.5C 151.041,135.342 149.541,135.009 147.5,136.5C 145.5,136 143.5,135.5 141.5,135C 142.308,134.692 142.975,134.192 143.5,133.5C 141.604,132.534 139.604,132.201 137.5,132.5C 138.521,124.848 135.521,122.515 128.5,125.5C 125.885,124.55 123.885,122.883 122.5,120.5C 120.678,120.169 119.011,119.502 117.5,118.5C 116.862,116.201 115.862,114.034 114.5,112C 114.833,111.667 115.167,111.333 115.5,111C 113.655,109.872 111.655,109.372 109.5,109.5C 107.475,107.804 105.475,106.137 103.5,104.5C 104.718,103.839 106.051,103.172 107.5,102.5C 103.066,99.401 99.7328,95.401 97.5,90.5C 97.6236,89.8933 97.9569,89.56 98.5,89.5 Z"/></g>
<g><path style="opacity:1" fill="#644231" d="M 194.5,117.5 C 194.833,117.5 195.167,117.5 195.5,117.5C 197.167,117.5 198.833,117.5 200.5,117.5C 200.719,118.675 200.386,119.675 199.5,120.5C 195.644,124.516 191.31,128.016 186.5,131C 182.705,135.39 178.705,139.557 174.5,143.5C 171.167,143.5 167.833,143.5 164.5,143.5C 166.846,140.129 169.179,136.796 171.5,133.5C 171.435,133.938 171.601,134.272 172,134.5C 174.069,133.736 176.236,133.236 178.5,133C 183.534,127.334 188.867,122.167 194.5,117.5 Z"/></g>
<g><path style="opacity:1" fill="#412719" d="M 200.5,117.5 C 201.391,118.11 202.391,118.443 203.5,118.5C 204.167,119.167 204.833,119.833 205.5,120.5C 203.336,127.164 200.336,133.498 196.5,139.5C 194.71,141.316 192.71,142.649 190.5,143.5C 185.167,143.5 179.833,143.5 174.5,143.5C 178.705,139.557 182.705,135.39 186.5,131C 191.31,128.016 195.644,124.516 199.5,120.5C 200.386,119.675 200.719,118.675 200.5,117.5 Z"/></g>
<g><path style="opacity:1" fill="#79643d" d="M 109.5,115.5 C 108.346,118.479 107.18,121.479 106,124.5C 105.186,126.902 105.353,129.235 106.5,131.5C 109.62,127.594 111.953,123.26 113.5,118.5C 115.167,119.5 116.5,120.833 117.5,122.5C 116.13,122.856 115.13,123.69 114.5,125C 114.026,127.749 113.026,130.249 111.5,132.5C 110.749,131.624 110.249,130.624 110,129.5C 107.118,133.706 105.284,138.373 104.5,143.5C 100.833,143.5 97.1667,143.5 93.5,143.5C 93.2322,141.901 93.5655,140.568 94.5,139.5C 94.3932,141.379 94.8932,141.712 96,140.5C 99.4567,133.922 102.623,127.255 105.5,120.5C 106.08,118.251 107.413,116.585 109.5,115.5 Z"/></g>
<g><path style="opacity:1" fill="#7f6d5d" d="M 172.5,99.5 C 172.56,98.9569 172.893,98.6236 173.5,98.5C 173.698,101.785 175.365,103.452 178.5,103.5C 178.714,105.144 178.38,106.644 177.5,108C 179.237,109.568 180.237,111.568 180.5,114C 179.449,116.996 178.116,119.83 176.5,122.5C 176.957,123.298 177.624,123.631 178.5,123.5C 176.417,126.651 174.084,129.651 171.5,132.5C 171.893,130.716 172.559,129.05 173.5,127.5C 175.579,124.353 175.913,121.019 174.5,117.5C 173.793,114.214 173.46,110.881 173.5,107.5C 173.806,104.615 173.473,101.948 172.5,99.5 Z"/></g>
<g><path style="opacity:1" fill="#755645" d="M 195.5,102.5 C 195.294,107.54 193.961,112.207 191.5,116.5C 192.325,117.386 193.325,117.719 194.5,117.5C 188.867,122.167 183.534,127.334 178.5,133C 176.236,133.236 174.069,133.736 172,134.5C 171.601,134.272 171.435,133.938 171.5,133.5C 171.5,133.167 171.5,132.833 171.5,132.5C 174.084,129.651 176.417,126.651 178.5,123.5C 183.535,121.798 186.869,118.465 188.5,113.5C 189.5,113.5 190.5,113.5 191.5,113.5C 192.463,109.542 193.797,105.875 195.5,102.5 Z"/></g>
<g><path style="opacity:1" fill="#412d21" d="M 137.5,132.5 C 138.197,136.294 137.03,139.294 134,141.5C 131.07,137.575 128.57,133.408 126.5,129C 127.823,128.184 128.489,127.017 128.5,125.5C 135.521,122.515 138.521,124.848 137.5,132.5 Z"/></g>
<g><path style="opacity:1" fill="#c7a329" d="M 105.5,120.5 C 102.623,127.255 99.4567,133.922 96,140.5C 94.8932,141.712 94.3932,141.379 94.5,139.5C 95.4124,138.262 95.5791,136.928 95,135.5C 93.3221,137.553 91.4888,137.887 89.5,136.5C 89.8333,136.5 90.1667,136.5 90.5,136.5C 93.5461,135.171 95.8794,133.171 97.5,130.5C 98.8333,129.833 99.8333,128.833 100.5,127.5C 102.412,125.343 104.079,123.009 105.5,120.5 Z"/></g>
<g><path style="opacity:1" fill="#3c312b" d="M 117.5,118.5 C 119.011,119.502 120.678,120.169 122.5,120.5C 122.119,121.931 121.119,122.764 119.5,123C 122.006,124.516 122.84,126.682 122,129.5C 119.93,131.849 117.763,134.016 115.5,136C 117.291,138.106 117.958,140.606 117.5,143.5C 113.167,143.5 108.833,143.5 104.5,143.5C 105.284,138.373 107.118,133.706 110,129.5C 110.249,130.624 110.749,131.624 111.5,132.5C 113.026,130.249 114.026,127.749 114.5,125C 115.13,123.69 116.13,122.856 117.5,122.5C 118.686,121.295 118.686,119.961 117.5,118.5 Z"/></g>
<g><path style="opacity:1" fill="#281d19" d="M 122.5,120.5 C 123.885,122.883 125.885,124.55 128.5,125.5C 128.489,127.017 127.823,128.184 126.5,129C 128.57,133.408 131.07,137.575 134,141.5C 137.03,139.294 138.197,136.294 137.5,132.5C 139.604,132.201 141.604,132.534 143.5,133.5C 142.975,134.192 142.308,134.692 141.5,135C 143.5,135.5 145.5,136 147.5,136.5C 149.541,135.009 151.041,135.342 152,137.5C 157.17,135.624 162.003,133.291 166.5,130.5C 168.461,128.688 170.794,127.688 173.5,127.5C 172.559,129.05 171.893,130.716 171.5,132.5C 171.5,132.833 171.5,133.167 171.5,133.5C 169.179,136.796 166.846,140.129 164.5,143.5C 148.833,143.5 133.167,143.5 117.5,143.5C 117.958,140.606 117.291,138.106 115.5,136C 117.763,134.016 119.93,131.849 122,129.5C 122.84,126.682 122.006,124.516 119.5,123C 121.119,122.764 122.119,121.931 122.5,120.5 Z"/></g>
<g><path style="opacity:1" fill="#2c180f" d="M 205.5,120.5 C 207.806,120.993 210.139,121.326 212.5,121.5C 212.5,122.5 212.5,123.5 212.5,124.5C 209.974,124.687 208.307,126.02 207.5,128.5C 206.667,131.817 206.501,135.15 207,138.5C 205.824,140.196 204.657,141.862 203.5,143.5C 199.167,143.5 194.833,143.5 190.5,143.5C 192.71,142.649 194.71,141.316 196.5,139.5C 200.336,133.498 203.336,127.164 205.5,120.5 Z"/></g>
</svg>
