<?xml version="1.0" encoding="UTF-8"?>
<!DOCTYPE svg PUBLIC "-//W3C//DTD SVG 1.1//EN" "http://www.w3.org/Graphics/SVG/1.1/DTD/svg11.dtd">
<svg xmlns="http://www.w3.org/2000/svg" version="1.1" width="256px" height="144px" style="shape-rendering:geometricPrecision; text-rendering:geometricPrecision; image-rendering:optimizeQuality; fill-rule:evenodd; clip-rule:evenodd" xmlns:xlink="http://www.w3.org/1999/xlink">
<g><path style="opacity:1" fill="#5c8394" d="M 34.5,-0.5 C 36.5,-0.5 38.5,-0.5 40.5,-0.5C 40.6107,0.117425 40.944,0.617425 41.5,1C 39.2993,2.68445 38.6327,4.68445 39.5,7C 38.8333,10 38.1667,13 37.5,16C 38.3567,16.6891 39.0233,17.5224 39.5,18.5C 38.3472,24.8121 35.1805,29.8121 30,33.5C 28.4353,37.4999 28.6019,41.1666 30.5,44.5C 29.0232,46.8409 28.6899,49.1742 29.5,51.5C 28.5971,54.34 27.2638,57.34 25.5,60.5C 22.4503,59.9232 20.4503,61.0899 19.5,64C 12.7662,66.9858 6.09953,68.1525 -0.5,67.5C -0.5,66.1667 -0.5,64.8333 -0.5,63.5C 11.8975,63.9007 19.3975,58.234 22,46.5C 22.3333,41.5 22.6667,36.5 23,31.5C 26.905,27.346 30.0717,23.1793 32.5,19C 32.1471,14.6728 31.8138,10.0061 31.5,5C 32.9711,3.41671 33.9711,1.58337 34.5,-0.5 Z"/></g>
<g><path style="opacity:1" fill="#517381" d="M 44.5,-0.5 C 46.8333,-0.5 49.1667,-0.5 51.5,-0.5C 50.4123,1.58252 49.4123,3.74919 48.5,6C 48.7723,10.9441 49.7723,15.9441 51.5,21C 48.5101,27.6851 45.1768,34.5184 41.5,41.5C 40.3523,40.105 39.3523,40.2716 38.5,42C 40.1556,43.7972 41.1556,45.9639 41.5,48.5C 38.5814,54.7527 36.2481,61.086 34.5,67.5C 32.6641,68.919 30.6641,70.0857 28.5,71C 23.7478,71.8547 19.0812,73.0214 14.5,74.5C 12.4833,75.2191 10.8166,76.3857 9.5,78C 11.0903,81.6996 12.0903,85.6996 12.5,90C 12.2451,91.3261 11.5784,92.3261 10.5,93C 10.9574,93.414 11.2907,93.914 11.5,94.5C 10.7261,95.7112 9.89277,95.7112 9,94.5C 7.51299,95.2529 7.34633,96.0862 8.5,97C 6.22551,98.7515 4.22551,100.752 2.5,103C 3.16667,103.667 3.83333,104.333 4.5,105C 2.68589,107.479 1.01922,109.979 -0.5,112.5C -0.5,108.167 -0.5,103.833 -0.5,99.5C 0.794229,98.7101 1.9609,97.7101 3,96.5C 4.23258,93.7034 5.73258,91.0368 7.5,88.5C 1.40084,76.7334 5.23417,70.4001 19,69.5C 19.772,69.6448 20.4387,69.9781 21,70.5C 23.3549,69.1919 25.8549,68.1919 28.5,67.5C 32.08,63.5014 34.7466,59.0014 36.5,54C 37.0606,52.4345 36.3939,51.1011 34.5,50C 36.4594,48.3158 36.4594,46.3158 34.5,44C 35.3802,42.6439 35.7135,41.1439 35.5,39.5C 36.7736,38.8106 36.7736,37.9772 35.5,37C 37.1012,36.7266 38.6012,36.2266 40,35.5C 40.4561,34.2559 39.9561,33.4226 38.5,33C 39.8333,32 41.1667,31 42.5,30C 41.4477,28.2835 42.1144,27.2835 44.5,27C 43.5419,25.8525 43.8753,24.8525 45.5,24C 44.1667,23 44.1667,22 45.5,21C 43.1088,19.6914 43.1088,18.6914 45.5,18C 43.8753,17.1475 43.5419,16.1475 44.5,15C 41.3676,10.3894 42.0343,6.38944 46.5,3C 45.0267,2.29044 44.3601,1.12377 44.5,-0.5 Z"/></g>
<g><path style="opacity:1" fill="#425f6c" d="M 57.5,-0.5 C 62.5,-0.5 67.5,-0.5 72.5,-0.5C 70.3969,1.62196 67.8969,3.28863 65,4.5C 64.4427,6.61467 63.6094,8.61467 62.5,10.5C 63.0093,14.1113 63.676,17.9447 64.5,22C 64.5176,24.4103 63.8509,26.577 62.5,28.5C 60.138,33.1414 57.638,37.8081 55,42.5C 54.7305,45.2241 54.2305,47.8908 53.5,50.5C 54.0353,52.5806 54.3686,54.7472 54.5,57C 52.6229,59.921 50.6229,62.7544 48.5,65.5C 48.9767,66.4776 49.6433,67.3109 50.5,68C 50.4301,69.6236 49.9301,71.4569 49,73.5C 46.3785,74.3113 44.0452,75.6446 42,77.5C 41.6667,77.1667 41.3333,76.8333 41,76.5C 39.0541,78.9944 36.7207,79.6611 34,78.5C 32.4207,80.0412 30.5873,81.2078 28.5,82C 27.4258,82.7387 26.7591,83.7387 26.5,85C 27.2052,86.4219 27.5385,87.7553 27.5,89C 26.552,89.4828 25.552,89.6495 24.5,89.5C 23.9094,88.8485 23.2427,88.1818 22.5,87.5C 22.7093,86.914 23.0426,86.414 23.5,86C 22.3147,84.647 20.9814,83.4803 19.5,82.5C 20.376,81.7492 21.376,81.2492 22.5,81C 22.1667,80.6667 21.8333,80.3333 21.5,80C 24.0075,79.9071 26.1741,79.0738 28,77.5C 28.3333,77.8333 28.6667,78.1667 29,78.5C 33.7681,76.3482 38.6015,74.1815 43.5,72C 44.376,70.414 45.376,68.914 46.5,67.5C 45.2086,66.4728 45.2086,65.4728 46.5,64.5C 47.3382,64.1583 47.6716,63.4916 47.5,62.5C 49.0504,60.6998 50.0504,58.5332 50.5,56C 49.2117,53.5335 49.2117,51.0335 50.5,48.5C 49.8333,47.8333 49.1667,47.1667 48.5,46.5C 52.3051,40.2584 55.6384,33.7584 58.5,27C 57.3121,24.8107 57.3121,22.644 58.5,20.5C 55.246,14.4208 54.9126,7.42076 57.5,-0.5 Z"/></g>
<g><path style="opacity:1" fill="#0b1115" d="M 176.5,-0.5 C 186.167,-0.5 195.833,-0.5 205.5,-0.5C 204.503,1.99841 203.17,4.33175 201.5,6.5C 201.709,7.08605 202.043,7.58605 202.5,8C 200.968,8.69951 199.968,9.86618 199.5,11.5C 202.833,13.8333 206.167,16.1667 209.5,18.5C 210.386,19.325 210.719,20.325 210.5,21.5C 207.951,20.4909 205.285,19.6575 202.5,19C 198.173,15.5013 193.506,12.5013 188.5,10C 183.741,7.25136 179.741,3.75136 176.5,-0.5 Z"/></g>
<g><path style="opacity:1" fill="#080d11" d="M 205.5,-0.5 C 212.5,-0.5 219.5,-0.5 226.5,-0.5C 224.835,1.56853 222.835,3.06853 220.5,4C 220.957,4.41395 221.291,4.91395 221.5,5.5C 220.139,7.02839 218.972,8.69506 218,10.5C 216.324,10.295 214.824,11.1283 213.5,13C 214.328,13.9147 215.328,14.5814 216.5,15C 214.59,15.4083 213.59,16.5749 213.5,18.5C 214.046,20.1347 214.38,21.8014 214.5,23.5C 212.847,23.3404 211.514,22.6737 210.5,21.5C 210.719,20.325 210.386,19.325 209.5,18.5C 206.167,16.1667 202.833,13.8333 199.5,11.5C 199.968,9.86618 200.968,8.69951 202.5,8C 202.043,7.58605 201.709,7.08605 201.5,6.5C 203.17,4.33175 204.503,1.99841 205.5,-0.5 Z"/></g>
<g><path style="opacity:1" fill="#070b0e" d="M 226.5,-0.5 C 236.167,-0.5 245.833,-0.5 255.5,-0.5C 255.5,0.5 255.5,1.5 255.5,2.5C 248.963,3.52004 243.463,6.52004 239,11.5C 237.442,10.6548 236.442,11.3215 236,13.5C 234.719,12.3533 234.386,12.6866 235,14.5C 236.586,15.376 238.086,16.376 239.5,17.5C 237.295,18.3742 235.462,17.7076 234,15.5C 232.795,16.0712 231.628,16.7379 230.5,17.5C 232.274,18.1867 233.941,19.0201 235.5,20C 233.189,19.8446 230.856,19.8446 228.5,20C 228.833,20.3333 229.167,20.6667 229.5,21C 228.5,21.3333 227.5,21.6667 226.5,22C 227.654,22.9138 227.487,23.7471 226,24.5C 225.667,24.1667 225.333,23.8333 225,23.5C 224.517,24.448 224.351,25.448 224.5,26.5C 226.288,26.2148 227.955,26.5481 229.5,27.5C 229.291,28.086 228.957,28.586 228.5,29C 233.852,31.0615 238.852,33.5615 243.5,36.5C 242.06,35.6371 240.726,35.6371 239.5,36.5C 237.312,34.1296 234.812,33.4629 232,34.5C 228.636,29.8942 224.136,26.8942 218.5,25.5C 216.847,25.3404 215.514,24.6737 214.5,23.5C 214.38,21.8014 214.046,20.1347 213.5,18.5C 213.59,16.5749 214.59,15.4083 216.5,15C 215.328,14.5814 214.328,13.9147 213.5,13C 214.824,11.1283 216.324,10.295 218,10.5C 218.972,8.69506 220.139,7.02839 221.5,5.5C 221.291,4.91395 220.957,4.41395 220.5,4C 222.835,3.06853 224.835,1.56853 226.5,-0.5 Z"/></g>
<g><path style="opacity:1" fill="#76a8bd" d="M 12.5,-0.5 C 16.1667,-0.5 19.8333,-0.5 23.5,-0.5C 22.7483,6.03584 20.7483,12.3692 17.5,18.5C 14.2852,22.4913 10.7852,26.1579 7,29.5C 6.08242,34.5622 5.41575,39.5622 5,44.5C 4.06459,47.5952 2.23126,49.9286 -0.5,51.5C -0.5,41.8333 -0.5,32.1667 -0.5,22.5C 2.76334,20.5702 5.43001,17.9035 7.5,14.5C 8.74722,12.9936 8.74722,11.4936 7.5,10C 9.33482,9.07227 9.66816,7.9056 8.5,6.5C 10.8532,4.78797 12.1865,2.45464 12.5,-0.5 Z"/></g>
<g><path style="opacity:1" fill="#ededee" d="M 87.5,-0.5 C 87.8333,-0.5 88.1667,-0.5 88.5,-0.5C 89.0236,4.88497 91.3569,9.2183 95.5,12.5C 98.9866,16.1422 101.987,20.1422 104.5,24.5C 104.565,24.9382 104.399,25.2716 104,25.5C 101.425,22.681 99.0917,19.681 97,16.5C 96.4852,21.4997 98.6519,24.833 103.5,26.5C 105.622,29.9566 107.289,33.6233 108.5,37.5C 107.637,36.537 106.97,36.537 106.5,37.5C 108.12,40.4037 109.453,43.4037 110.5,46.5C 110.5,47.1667 110.167,47.5 109.5,47.5C 108.486,45.4261 107.486,43.4261 106.5,41.5C 106.167,40.8333 105.833,40.1667 105.5,39.5C 103.82,36.1401 102.153,32.8068 100.5,29.5C 98.1923,25.205 95.5256,21.205 92.5,17.5C 92.5,17.1667 92.5,16.8333 92.5,16.5C 89.9348,12.7029 87.9348,8.70292 86.5,4.5C 86.6287,2.7839 86.962,1.11723 87.5,-0.5 Z"/></g>
<g><path style="opacity:1" fill="#4a515c" d="M 84.5,-0.5 C 85.5,-0.5 86.5,-0.5 87.5,-0.5C 86.962,1.11723 86.6287,2.7839 86.5,4.5C 86.5654,4.93822 86.3988,5.27155 86,5.5C 84.872,3.65472 84.372,1.65472 84.5,-0.5 Z"/></g>
<g><path style="opacity:1" fill="#7e8187" d="M 88.5,-0.5 C 89.8333,-0.5 91.1667,-0.5 92.5,-0.5C 92.369,0.238911 92.5357,0.905578 93,1.5C 93.8928,0.288818 94.7261,0.288818 95.5,1.5C 93.9813,4.06434 92.4813,4.06434 91,1.5C 90.3333,2.5 90.3333,3.5 91,4.5C 94.3381,7.0083 97.5048,9.67497 100.5,12.5C 100.333,12.8333 100.167,13.1667 100,13.5C 98.9805,12.3128 97.8139,11.3128 96.5,10.5C 95.7025,10.9569 95.3691,11.6236 95.5,12.5C 91.3569,9.2183 89.0236,4.88497 88.5,-0.5 Z"/></g>
<g><path style="opacity:1" fill="#86acd5" d="M 129.5,-0.5 C 132.5,-0.5 135.5,-0.5 138.5,-0.5C 138.892,2.94767 138.225,6.11433 136.5,9C 137.953,10.7131 137.786,12.2131 136,13.5C 135.722,12.5842 135.222,11.9175 134.5,11.5C 131.796,7.1414 127.796,4.80806 122.5,4.5C 124.934,3.01476 127.267,1.34809 129.5,-0.5 Z"/></g>
<g><path style="opacity:1" fill="#89bfd6" d="M -0.5,-0.5 C 3.83333,-0.5 8.16667,-0.5 12.5,-0.5C 12.1865,2.45464 10.8532,4.78797 8.5,6.5C 9.66816,7.9056 9.33482,9.07227 7.5,10C 8.74722,11.4936 8.74722,12.9936 7.5,14.5C 5.43001,17.9035 2.76334,20.5702 -0.5,22.5C -0.5,14.8333 -0.5,7.16667 -0.5,-0.5 Z"/></g>
<g><path style="opacity:1" fill="#587c8c" d="M 40.5,-0.5 C 41.8333,-0.5 43.1667,-0.5 44.5,-0.5C 44.3601,1.12377 45.0267,2.29044 46.5,3C 42.0343,6.38944 41.3676,10.3894 44.5,15C 43.5419,16.1475 43.8753,17.1475 45.5,18C 43.1088,18.6914 43.1088,19.6914 45.5,21C 44.1667,22 44.1667,23 45.5,24C 43.8753,24.8525 43.5419,25.8525 44.5,27C 42.1144,27.2835 41.4477,28.2835 42.5,30C 41.1667,31 39.8333,32 38.5,33C 39.9561,33.4226 40.4561,34.2559 40,35.5C 38.6012,36.2266 37.1012,36.7266 35.5,37C 36.7736,37.9772 36.7736,38.8106 35.5,39.5C 33.7151,39.9256 32.7151,41.0922 32.5,43C 32.2678,49.1707 31.1011,55.3374 29,61.5C 27.7574,63.8329 26.0907,64.4996 24,63.5C 23.3076,64.0253 22.8076,64.6919 22.5,65.5C 15.0174,67.9548 7.35073,69.2881 -0.5,69.5C -0.5,68.8333 -0.5,68.1667 -0.5,67.5C 6.09953,68.1525 12.7662,66.9858 19.5,64C 20.4503,61.0899 22.4503,59.9232 25.5,60.5C 27.2638,57.34 28.5971,54.34 29.5,51.5C 28.6899,49.1742 29.0232,46.8409 30.5,44.5C 28.6019,41.1666 28.4353,37.4999 30,33.5C 35.1805,29.8121 38.3472,24.8121 39.5,18.5C 39.0233,17.5224 38.3567,16.6891 37.5,16C 38.1667,13 38.8333,10 39.5,7C 38.6327,4.68445 39.2993,2.68445 41.5,1C 40.944,0.617425 40.6107,0.117425 40.5,-0.5 Z"/></g>
<g><path style="opacity:1" fill="#21232a" d="M 124.5,6.5 C 128.362,7.52374 131.195,9.85707 133,13.5C 133.499,17.4862 133.666,21.4862 133.5,25.5C 132.375,26.6522 132.375,27.6522 133.5,28.5C 133.973,29.9063 134.973,30.573 136.5,30.5C 137.78,31.9313 139.447,32.5979 141.5,32.5C 139.833,33.1667 138.167,33.8333 136.5,34.5C 135.533,33.1938 134.199,32.5271 132.5,32.5C 132.768,34.099 132.434,35.4324 131.5,36.5C 130.6,40.7236 129.6,45.0569 128.5,49.5C 127.914,49.2907 127.414,48.9574 127,48.5C 126.022,51.6693 126.522,54.5027 128.5,57C 124.675,57.2427 122.675,55.4093 122.5,51.5C 123.117,51.6107 123.617,51.944 124,52.5C 124.566,44.447 124.566,36.447 124,28.5C 125.586,29.376 127.086,30.376 128.5,31.5C 128.833,31.1667 129.167,30.8333 129.5,30.5C 128.477,26.8872 127.644,23.2206 127,19.5C 124.469,15.646 121.969,11.8127 119.5,8C 121.154,7.39233 122.821,6.89233 124.5,6.5 Z"/></g>
<g><path style="opacity:1" fill="#41595b" d="M 72.5,-0.5 C 74.1667,-0.5 75.8333,-0.5 77.5,-0.5C 76.8333,0.833333 76.1667,2.16667 75.5,3.5C 68.9721,3.60494 65.6388,7.10494 65.5,14C 65.6083,15.6811 66.2749,16.8478 67.5,17.5C 66.2934,21.7862 65.2934,26.1195 64.5,30.5C 63.8333,31.8333 63.1667,33.1667 62.5,34.5C 62.5,32.5 62.5,30.5 62.5,28.5C 63.8509,26.577 64.5176,24.4103 64.5,22C 63.676,17.9447 63.0093,14.1113 62.5,10.5C 63.6094,8.61467 64.4427,6.61467 65,4.5C 67.8969,3.28863 70.3969,1.62196 72.5,-0.5 Z"/></g>
<g><path style="opacity:1" fill="#c2883a" d="M 79.5,9.5 C 78.8333,10.1667 78.1667,10.8333 77.5,11.5C 77.6309,10.6236 77.2975,9.95689 76.5,9.5C 75.2949,10.5769 74.6282,11.9102 74.5,13.5C 74.1667,13.5 73.8333,13.5 73.5,13.5C 73.5,13.1667 73.5,12.8333 73.5,12.5C 74.1283,9.90996 75.295,7.57663 77,5.5C 77.4796,7.13302 78.3129,8.46635 79.5,9.5 Z"/></g>
<g><path style="opacity:1" fill="#5883ae" d="M 138.5,-0.5 C 140.167,-0.5 141.833,-0.5 143.5,-0.5C 141.342,5.98037 139.009,12.3137 136.5,18.5C 135.061,16.412 134.394,14.0786 134.5,11.5C 135.222,11.9175 135.722,12.5842 136,13.5C 137.786,12.2131 137.953,10.7131 136.5,9C 138.225,6.11433 138.892,2.94767 138.5,-0.5 Z"/></g>
<g><path style="opacity:1" fill="#67591b" d="M 73.5,6.5 C 72.0713,9.69626 70.4046,12.6963 68.5,15.5C 68.5481,12.6872 69.2147,10.0205 70.5,7.5C 71.325,6.61432 72.325,6.28099 73.5,6.5 Z"/></g>
<g><path style="opacity:1" fill="#05090b" d="M 255.5,2.5 C 255.5,15.8333 255.5,29.1667 255.5,42.5C 250.735,41.8143 246.735,39.8143 243.5,36.5C 238.852,33.5615 233.852,31.0615 228.5,29C 228.957,28.586 229.291,28.086 229.5,27.5C 227.955,26.5481 226.288,26.2148 224.5,26.5C 224.351,25.448 224.517,24.448 225,23.5C 225.333,23.8333 225.667,24.1667 226,24.5C 227.487,23.7471 227.654,22.9138 226.5,22C 227.5,21.6667 228.5,21.3333 229.5,21C 229.167,20.6667 228.833,20.3333 228.5,20C 230.856,19.8446 233.189,19.8446 235.5,20C 233.941,19.0201 232.274,18.1867 230.5,17.5C 231.628,16.7379 232.795,16.0712 234,15.5C 235.462,17.7076 237.295,18.3742 239.5,17.5C 238.086,16.376 236.586,15.376 235,14.5C 234.386,12.6866 234.719,12.3533 236,13.5C 236.442,11.3215 237.442,10.6548 239,11.5C 243.463,6.52004 248.963,3.52004 255.5,2.5 Z"/></g>
<g><path style="opacity:1" fill="#4c5a45" d="M 75.5,3.5 C 75.0679,4.70951 74.4013,5.70951 73.5,6.5C 72.325,6.28099 71.325,6.61432 70.5,7.5C 69.2147,10.0205 68.5481,12.6872 68.5,15.5C 68.6716,16.4916 68.3382,17.1583 67.5,17.5C 66.2749,16.8478 65.6083,15.6811 65.5,14C 65.6388,7.10494 68.9721,3.60494 75.5,3.5 Z"/></g>
<g><path style="opacity:1" fill="#fff7e6" d="M 77.5,11.5 C 76.7095,12.4013 75.7095,13.0679 74.5,13.5C 74.6282,11.9102 75.2949,10.5769 76.5,9.5C 77.2975,9.95689 77.6309,10.6236 77.5,11.5 Z"/></g>
<g><path style="opacity:1" fill="#6c9aad" d="M 23.5,-0.5 C 25.5,-0.5 27.5,-0.5 29.5,-0.5C 26.7662,5.10171 25.2662,11.1017 25,17.5C 23.8147,19.3772 22.8147,21.3772 22,23.5C 20.7365,25.607 18.9032,26.607 16.5,26.5C 15.0665,29.8832 13.7332,33.3832 12.5,37C 15.3564,44.4327 13.3564,50.4327 6.5,55C 3.53977,55.1736 1.20643,56.3403 -0.5,58.5C -0.5,56.1667 -0.5,53.8333 -0.5,51.5C 2.23126,49.9286 4.06459,47.5952 5,44.5C 5.41575,39.5622 6.08242,34.5622 7,29.5C 10.7852,26.1579 14.2852,22.4913 17.5,18.5C 20.7483,12.3692 22.7483,6.03584 23.5,-0.5 Z"/></g>
<g><path style="opacity:1" fill="#426585" d="M 122.5,4.5 C 127.796,4.80806 131.796,7.1414 134.5,11.5C 134.394,14.0786 135.061,16.412 136.5,18.5C 136.065,21.1573 135.065,23.4907 133.5,25.5C 133.666,21.4862 133.499,17.4862 133,13.5C 131.195,9.85707 128.362,7.52374 124.5,6.5C 123.833,5.83333 123.167,5.16667 122.5,4.5 Z"/></g>
<g><path style="opacity:1" fill="#608cb9" d="M 145.5,-0.5 C 147.833,-0.5 150.167,-0.5 152.5,-0.5C 152.41,1.6963 152.077,3.86297 151.5,6C 151.613,8.39873 152.613,10.2321 154.5,11.5C 150.997,16.5016 147.997,21.835 145.5,27.5C 143.081,29.8624 140.081,30.8624 136.5,30.5C 134.973,30.573 133.973,29.9063 133.5,28.5C 139.042,19.5568 143.042,9.89014 145.5,-0.5 Z"/></g>
<g><path style="opacity:1" fill="#4a6977" d="M 51.5,-0.5 C 53.5,-0.5 55.5,-0.5 57.5,-0.5C 54.9126,7.42076 55.246,14.4208 58.5,20.5C 57.3121,22.644 57.3121,24.8107 58.5,27C 55.6384,33.7584 52.3051,40.2584 48.5,46.5C 49.1667,47.1667 49.8333,47.8333 50.5,48.5C 49.2117,51.0335 49.2117,53.5335 50.5,56C 50.0504,58.5332 49.0504,60.6998 47.5,62.5C 46.2921,61.7659 44.9587,61.4326 43.5,61.5C 44.1383,59.54 44.1383,57.7067 43.5,56C 44.3081,55.6924 44.9747,55.1924 45.5,54.5C 44.952,51.1448 44.452,47.4781 44,43.5C 42.187,44.6091 41.3537,43.9424 41.5,41.5C 45.1768,34.5184 48.5101,27.6851 51.5,21C 49.7723,15.9441 48.7723,10.9441 48.5,6C 49.4123,3.74919 50.4123,1.58252 51.5,-0.5 Z"/></g>
<g><path style="opacity:1" fill="#ed7909" d="M 79.5,9.5 C 79.8333,9.5 80.1667,9.5 80.5,9.5C 80.5,9.83333 80.5,10.1667 80.5,10.5C 80.5,11.8333 80.5,13.1667 80.5,14.5C 77.3315,15.0025 74.9981,16.6691 73.5,19.5C 73.5,17.5 73.5,15.5 73.5,13.5C 73.8333,13.5 74.1667,13.5 74.5,13.5C 75.7095,13.0679 76.7095,12.4013 77.5,11.5C 78.1667,10.8333 78.8333,10.1667 79.5,9.5 Z"/></g>
<g><path style="opacity:1" fill="#ab5c0f" d="M 80.5,10.5 C 81.1667,10.5 81.5,10.8333 81.5,11.5C 82.3417,16.0506 81.0083,19.7173 77.5,22.5C 76.0413,22.5674 74.7079,22.2341 73.5,21.5C 73.5,20.8333 73.5,20.1667 73.5,19.5C 74.9981,16.6691 77.3315,15.0025 80.5,14.5C 80.5,13.1667 80.5,11.8333 80.5,10.5 Z"/></g>
<g><path style="opacity:1" fill="#1e212a" d="M 152.5,-0.5 C 160.5,-0.5 168.5,-0.5 176.5,-0.5C 179.741,3.75136 183.741,7.25136 188.5,10C 193.506,12.5013 198.173,15.5013 202.5,19C 205.285,19.6575 207.951,20.4909 210.5,21.5C 211.514,22.6737 212.847,23.3404 214.5,23.5C 215.514,24.6737 216.847,25.3404 218.5,25.5C 220,27.1786 221.833,28.5119 224,29.5C 224.374,30.4162 224.874,31.2496 225.5,32C 225.167,32.1667 224.833,32.3333 224.5,32.5C 208.334,25.5026 193.167,16.836 179,6.5C 178.5,6.66667 178,6.83333 177.5,7C 179.487,8.31892 180.654,10.1523 181,12.5C 186.081,18.5885 191.247,24.5885 196.5,30.5C 196.103,31.525 195.437,31.6917 194.5,31C 192.315,28.2563 189.649,26.5897 186.5,26C 190.262,31.468 189.262,31.968 183.5,27.5C 183.167,27.8333 182.833,28.1667 182.5,28.5C 183.168,31.8632 183.835,35.1966 184.5,38.5C 186.762,44.0784 189.429,49.4118 192.5,54.5C 191.325,54.281 190.325,54.6143 189.5,55.5C 190.506,56.3957 190.506,57.0623 189.5,57.5C 187.81,54.9763 185.643,52.9763 183,51.5C 182.508,52.549 182.674,53.549 183.5,54.5C 183.043,55.2975 182.376,55.6309 181.5,55.5C 180.312,53.2779 179.312,50.9446 178.5,48.5C 179.497,48.5299 180.164,48.0299 180.5,47C 179.813,45.8382 179.647,44.6716 180,43.5C 182.295,46.7974 184.962,49.7974 188,52.5C 188.167,52.1667 188.333,51.8333 188.5,51.5C 184.439,45.2111 180.773,38.7111 177.5,32C 179.931,30.2709 179.597,28.7709 176.5,27.5C 176.891,28.7185 176.224,29.5518 174.5,30C 175.554,31.3876 175.72,32.8876 175,34.5C 173.844,33.0072 173.01,33.1739 172.5,35C 173.856,36.5671 174.523,38.4004 174.5,40.5C 171.217,37.9376 170.883,35.1042 173.5,32C 171.813,30.087 171.313,27.9203 172,25.5C 172.667,26.1667 173.333,26.8333 174,27.5C 175.734,26.7511 177.567,26.2511 179.5,26C 178.216,24.7025 178.383,23.5358 180,22.5C 183.113,25.2824 183.779,24.9491 182,21.5C 180.575,20.7877 179.075,20.621 177.5,21C 175.312,17.4776 172.312,14.8109 168.5,13C 169.833,12 169.833,11 168.5,10C 164.034,7.41081 159.367,6.91081 154.5,8.5C 154.5,9.5 154.5,10.5 154.5,11.5C 152.613,10.2321 151.613,8.39873 151.5,6C 152.077,3.86297 152.41,1.6963 152.5,-0.5 Z"/></g>
<g><path style="opacity:1" fill="#bebfc9" d="M 81.5,11.5 C 83.369,13.6353 84.0356,16.3019 83.5,19.5C 82.8333,20.8333 81.8333,21.8333 80.5,22.5C 79.7978,21.8843 78.7978,21.8843 77.5,22.5C 81.0083,19.7173 82.3417,16.0506 81.5,11.5 Z"/></g>
<g><path style="opacity:1" fill="#9bbde2" d="M 81.5,-0.5 C 82.5,-0.5 83.5,-0.5 84.5,-0.5C 84.372,1.65472 84.872,3.65472 86,5.5C 86.3988,5.27155 86.5654,4.93822 86.5,4.5C 87.9348,8.70292 89.9348,12.7029 92.5,16.5C 89.345,16.9769 86.345,17.9769 83.5,19.5C 84.0356,16.3019 83.369,13.6353 81.5,11.5C 81.5,10.8333 81.1667,10.5 80.5,10.5C 80.5,10.1667 80.5,9.83333 80.5,9.5C 80.4595,6.11945 80.7929,2.78611 81.5,-0.5 Z"/></g>
<g><path style="opacity:1" fill="#775319" d="M 73.5,12.5 C 73.5,12.8333 73.5,13.1667 73.5,13.5C 73.5,15.5 73.5,17.5 73.5,19.5C 73.5,20.1667 73.5,20.8333 73.5,21.5C 73.5,22.1667 73.5,22.8333 73.5,23.5C 72.1667,23.1667 70.8333,22.8333 69.5,22.5C 69.9337,18.7233 71.267,15.39 73.5,12.5 Z"/></g>
<g><path style="opacity:1" fill="#45567e" d="M 154.5,11.5 C 157.047,12.9336 159.381,14.6002 161.5,16.5C 160.5,16.5 159.5,16.5 158.5,16.5C 158.714,18.1439 158.38,19.6439 157.5,21C 159.382,21.1981 161.048,21.6981 162.5,22.5C 159.812,22.1658 157.479,22.8325 155.5,24.5C 153.589,25.075 151.922,26.075 150.5,27.5C 148.833,27.5 147.167,27.5 145.5,27.5C 147.997,21.835 150.997,16.5016 154.5,11.5 Z"/></g>
<g><path style="opacity:1" fill="#0f0f14" d="M 218.5,25.5 C 224.136,26.8942 228.636,29.8942 232,34.5C 234.812,33.4629 237.312,34.1296 239.5,36.5C 240.726,35.6371 242.06,35.6371 243.5,36.5C 246.735,39.8143 250.735,41.8143 255.5,42.5C 255.5,42.8333 255.5,43.1667 255.5,43.5C 245.531,42.1422 236.198,38.9756 227.5,34C 224.168,33.7512 221.001,32.9179 218,31.5C 217.5,31.6667 217,31.8333 216.5,32C 217.711,32.8928 217.711,33.7261 216.5,34.5C 212.076,32.3569 207.743,30.0235 203.5,27.5C 202.713,28.2421 202.047,29.0754 201.5,30C 203.219,31.0569 205.053,31.8903 207,32.5C 207.333,32.1667 207.667,31.8333 208,31.5C 208.903,32.7014 210.069,33.5348 211.5,34C 208.833,34.6667 208.833,35.3333 211.5,36C 209.431,36.3242 209.098,37.1575 210.5,38.5C 213.734,40.6866 217.067,42.6866 220.5,44.5C 221.048,45.6885 221.381,46.8552 221.5,48C 227.731,51.2748 233.397,55.2748 238.5,60C 234.324,59.5723 230.991,57.5723 228.5,54C 224.385,52.7404 220.552,50.9071 217,48.5C 216.5,48.6667 216,48.8333 215.5,49C 219.437,52.3569 223.27,55.8569 227,59.5C 229.108,58.3877 230.608,59.0543 231.5,61.5C 231.062,61.4346 230.728,61.6012 230.5,62C 233.64,64.228 236.306,66.8947 238.5,70C 239.766,70.3095 240.933,70.8095 242,71.5C 242.432,72.6001 241.932,73.2668 240.5,73.5C 234.662,71.1538 229.496,67.8205 225,63.5C 223.586,64.4132 222.086,64.4132 220.5,63.5C 211.675,56.9207 202.675,50.5873 193.5,44.5C 193.369,43.6236 193.702,42.9569 194.5,42.5C 196.115,43.154 197.782,43.654 199.5,44C 205.057,48.1121 211.057,51.1121 217.5,53C 209.956,45.9577 202.956,38.4577 196.5,30.5C 191.247,24.5885 186.081,18.5885 181,12.5C 180.654,10.1523 179.487,8.31892 177.5,7C 178,6.83333 178.5,6.66667 179,6.5C 193.167,16.836 208.334,25.5026 224.5,32.5C 224.833,32.3333 225.167,32.1667 225.5,32C 224.874,31.2496 224.374,30.4162 224,29.5C 221.833,28.5119 220,27.1786 218.5,25.5 Z"/></g>
<g><path style="opacity:1" fill="#edeae5" d="M 77.5,-0.5 C 78.8333,-0.5 80.1667,-0.5 81.5,-0.5C 80.7929,2.78611 80.4595,6.11945 80.5,9.5C 80.1667,9.5 79.8333,9.5 79.5,9.5C 78.3129,8.46635 77.4796,7.13302 77,5.5C 75.295,7.57663 74.1283,9.90996 73.5,12.5C 71.267,15.39 69.9337,18.7233 69.5,22.5C 67.1255,27.8017 66.1255,33.4684 66.5,39.5C 65.6618,39.1583 65.3284,38.4916 65.5,37.5C 65.3259,35.139 64.9926,32.8056 64.5,30.5C 65.2934,26.1195 66.2934,21.7862 67.5,17.5C 68.3382,17.1583 68.6716,16.4916 68.5,15.5C 70.4046,12.6963 72.0713,9.69626 73.5,6.5C 74.4013,5.70951 75.0679,4.70951 75.5,3.5C 76.1667,2.16667 76.8333,0.833333 77.5,-0.5 Z"/></g>
<g><path style="opacity:1" fill="#c2c2c5" d="M 104.5,24.5 C 105.167,24.5 105.5,24.8333 105.5,25.5C 105.158,26.3382 104.492,26.6716 103.5,26.5C 98.6519,24.833 96.4852,21.4997 97,16.5C 99.0917,19.681 101.425,22.681 104,25.5C 104.399,25.2716 104.565,24.9382 104.5,24.5 Z"/></g>
<g><path style="opacity:1" fill="#4a4372" d="M 161.5,16.5 C 164.342,18.0868 167.008,19.9201 169.5,22C 168.956,23.585 168.289,25.085 167.5,26.5C 165.833,25.1667 164.167,23.8333 162.5,22.5C 161.048,21.6981 159.382,21.1981 157.5,21C 158.38,19.6439 158.714,18.1439 158.5,16.5C 159.5,16.5 160.5,16.5 161.5,16.5 Z"/></g>
<g><path style="opacity:1" fill="#15151a" d="M 174.5,40.5 C 176.778,42.6522 178.112,45.3188 178.5,48.5C 179.312,50.9446 180.312,53.2779 181.5,55.5C 182.164,57.487 183.331,59.1537 185,60.5C 185.511,62.8782 186.178,65.2115 187,67.5C 188.067,68.1905 189.234,68.6905 190.5,69C 193.639,73.4728 197.473,77.3061 202,80.5C 202.788,82.1647 203.122,83.8314 203,85.5C 200.732,83.8125 198.565,81.9791 196.5,80C 195.563,79.3083 194.897,79.475 194.5,80.5C 190.646,77.8031 188.146,74.1364 187,69.5C 181.277,63.712 176.277,57.3787 172,50.5C 171.667,51.8333 171.333,53.1667 171,54.5C 170.39,51.9784 169.057,49.9784 167,48.5C 166.517,49.448 166.351,50.448 166.5,51.5C 165.167,51.5 163.833,51.5 162.5,51.5C 163.312,49.0554 164.312,46.7221 165.5,44.5C 168.568,38.8907 169.235,32.8907 167.5,26.5C 168.289,25.085 168.956,23.585 169.5,22C 167.008,19.9201 164.342,18.0868 161.5,16.5C 159.381,14.6002 157.047,12.9336 154.5,11.5C 154.5,10.5 154.5,9.5 154.5,8.5C 159.367,6.91081 164.034,7.41081 168.5,10C 169.833,11 169.833,12 168.5,13C 172.312,14.8109 175.312,17.4776 177.5,21C 179.075,20.621 180.575,20.7877 182,21.5C 183.779,24.9491 183.113,25.2824 180,22.5C 178.383,23.5358 178.216,24.7025 179.5,26C 177.567,26.2511 175.734,26.7511 174,27.5C 173.333,26.8333 172.667,26.1667 172,25.5C 171.313,27.9203 171.813,30.087 173.5,32C 170.883,35.1042 171.217,37.9376 174.5,40.5 Z"/></g>
<g><path style="opacity:1" fill="#bfcfe2" d="M 143.5,-0.5 C 144.167,-0.5 144.833,-0.5 145.5,-0.5C 143.042,9.89014 139.042,19.5568 133.5,28.5C 132.375,27.6522 132.375,26.6522 133.5,25.5C 135.065,23.4907 136.065,21.1573 136.5,18.5C 139.009,12.3137 141.342,5.98037 143.5,-0.5 Z"/></g>
<g><path style="opacity:1" fill="#454a52" d="M 92.5,-0.5 C 94.8333,-0.5 97.1667,-0.5 99.5,-0.5C 101.461,1.96348 103.628,4.29681 106,6.5C 106.667,7.5 106.667,8.5 106,9.5C 104.167,7.66667 102.333,5.83333 100.5,4C 99.5,3.33333 98.5,3.33333 97.5,4C 101.798,7.08764 105.298,10.921 108,15.5C 109.929,20.4118 112.262,25.0784 115,29.5C 115.459,33.4189 116.292,37.2522 117.5,41C 117.156,42.3651 116.489,43.5318 115.5,44.5C 116.428,45.7678 116.595,47.1011 116,48.5C 115.722,47.5842 115.222,46.9175 114.5,46.5C 113.326,45.4863 112.66,44.153 112.5,42.5C 113.363,43.463 114.03,43.463 114.5,42.5C 111.726,36.6135 108.726,30.9468 105.5,25.5C 105.5,24.8333 105.167,24.5 104.5,24.5C 101.987,20.1422 98.9866,16.1422 95.5,12.5C 95.3691,11.6236 95.7025,10.9569 96.5,10.5C 97.8139,11.3128 98.9805,12.3128 100,13.5C 100.167,13.1667 100.333,12.8333 100.5,12.5C 97.5048,9.67497 94.3381,7.0083 91,4.5C 90.3333,3.5 90.3333,2.5 91,1.5C 92.4813,4.06434 93.9813,4.06434 95.5,1.5C 94.7261,0.288818 93.8928,0.288818 93,1.5C 92.5357,0.905578 92.369,0.238911 92.5,-0.5 Z"/></g>
<g><path style="opacity:1" fill="#dcdcda" d="M 73.5,21.5 C 74.7079,22.2341 76.0413,22.5674 77.5,22.5C 77.4226,23.7498 76.756,24.5831 75.5,25C 78.4685,27.1777 78.1351,28.3444 74.5,28.5C 73.6993,26.9582 73.366,25.2915 73.5,23.5C 73.5,22.8333 73.5,22.1667 73.5,21.5 Z"/></g>
<g><path style="opacity:1" fill="#99b7d4" d="M 80.5,22.5 C 79.701,25.4299 79.3677,28.4299 79.5,31.5C 78.788,30.2613 77.788,29.7613 76.5,30C 77.6843,31.1455 77.6843,32.3121 76.5,33.5C 76.1667,33.5 75.8333,33.5 75.5,33.5C 75.3713,31.7839 75.038,30.1172 74.5,28.5C 78.1351,28.3444 78.4685,27.1777 75.5,25C 76.756,24.5831 77.4226,23.7498 77.5,22.5C 78.7978,21.8843 79.7978,21.8843 80.5,22.5 Z"/></g>
<g><path style="opacity:1" fill="#e5d4e1" d="M 92.5,17.5 C 95.5256,21.205 98.1923,25.205 100.5,29.5C 100.167,29.5 99.8333,29.5 99.5,29.5C 95.8832,30.6417 92.5498,32.3084 89.5,34.5C 83.1986,31.0739 82.8653,26.9073 88.5,22C 88.2716,21.6012 87.9382,21.4346 87.5,21.5C 87.8333,20.8333 88.1667,20.1667 88.5,19.5C 89.287,17.8958 90.6203,17.2291 92.5,17.5 Z"/></g>
<g><path style="opacity:1" fill="#15171f" d="M 196.5,30.5 C 202.956,38.4577 209.956,45.9577 217.5,53C 211.057,51.1121 205.057,48.1121 199.5,44C 197.782,43.654 196.115,43.154 194.5,42.5C 193.702,42.9569 193.369,43.6236 193.5,44.5C 189.984,43.2441 186.984,41.2441 184.5,38.5C 183.835,35.1966 183.168,31.8632 182.5,28.5C 182.833,28.1667 183.167,27.8333 183.5,27.5C 189.262,31.968 190.262,31.468 186.5,26C 189.649,26.5897 192.315,28.2563 194.5,31C 195.437,31.6917 196.103,31.525 196.5,30.5 Z"/></g>
<g><path style="opacity:1" fill="#3f5a67" d="M 62.5,28.5 C 62.5,30.5 62.5,32.5 62.5,34.5C 62.5,38.8333 62.5,43.1667 62.5,47.5C 61.71,46.3915 61.21,45.0581 61,43.5C 58.7434,47.6893 58.2434,52.0227 59.5,56.5C 58.7865,58.8111 57.7865,60.9777 56.5,63C 56.8333,63.3333 57.1667,63.6667 57.5,64C 56.4954,65.5067 55.162,66.6733 53.5,67.5C 53.9767,68.4776 54.6433,69.3109 55.5,70C 54.5939,71.6995 54.2606,73.5328 54.5,75.5C 50.6058,77.6248 46.1058,79.9582 41,82.5C 38.7579,81.8253 36.5912,82.3253 34.5,84C 33.87,85.892 32.87,87.5587 31.5,89C 32.1667,89.6667 32.8333,90.3333 33.5,91C 32.1667,92 32.1667,93 33.5,94C 31.9813,93.6692 30.648,93.8359 29.5,94.5C 28.2905,94.0679 27.2905,93.4013 26.5,92.5C 26.2178,91.2223 25.5511,90.2223 24.5,89.5C 25.552,89.6495 26.552,89.4828 27.5,89C 27.5385,87.7553 27.2052,86.4219 26.5,85C 26.7591,83.7387 27.4258,82.7387 28.5,82C 30.5873,81.2078 32.4207,80.0412 34,78.5C 36.7207,79.6611 39.0541,78.9944 41,76.5C 41.3333,76.8333 41.6667,77.1667 42,77.5C 44.0452,75.6446 46.3785,74.3113 49,73.5C 49.9301,71.4569 50.4301,69.6236 50.5,68C 49.6433,67.3109 48.9767,66.4776 48.5,65.5C 50.6229,62.7544 52.6229,59.921 54.5,57C 54.3686,54.7472 54.0353,52.5806 53.5,50.5C 54.2305,47.8908 54.7305,45.2241 55,42.5C 57.638,37.8081 60.138,33.1414 62.5,28.5 Z"/></g>
<g><path style="opacity:1" fill="#3f4a4d" d="M 92.5,16.5 C 92.5,16.8333 92.5,17.1667 92.5,17.5C 90.6203,17.2291 89.287,17.8958 88.5,19.5C 82.8535,21.3461 80.5201,25.3461 81.5,31.5C 80.8333,31.5 80.1667,31.5 79.5,31.5C 79.3677,28.4299 79.701,25.4299 80.5,22.5C 81.8333,21.8333 82.8333,20.8333 83.5,19.5C 86.345,17.9769 89.345,16.9769 92.5,16.5 Z"/></g>
<g><path style="opacity:1" fill="#bb9996" d="M 88.5,19.5 C 88.1667,20.1667 87.8333,20.8333 87.5,21.5C 85.8267,22.343 84.66,23.6763 84,25.5C 83.4652,29.0382 82.6319,32.3716 81.5,35.5C 81.5,34.1667 81.5,32.8333 81.5,31.5C 80.5201,25.3461 82.8535,21.3461 88.5,19.5 Z"/></g>
<g><path style="opacity:1" fill="#263d54" d="M 145.5,27.5 C 147.167,27.5 148.833,27.5 150.5,27.5C 150.586,28.4959 150.252,29.3292 149.5,30C 146.846,30.9406 144.179,31.7739 141.5,32.5C 139.447,32.5979 137.78,31.9313 136.5,30.5C 140.081,30.8624 143.081,29.8624 145.5,27.5 Z"/></g>
<g><path style="opacity:1" fill="#5e84a2" d="M 79.5,31.5 C 80.1667,31.5 80.8333,31.5 81.5,31.5C 81.5,32.8333 81.5,34.1667 81.5,35.5C 80.0206,39.4699 79.3539,39.1366 79.5,34.5C 78.209,34.7373 77.209,34.404 76.5,33.5C 77.6843,32.3121 77.6843,31.1455 76.5,30C 77.788,29.7613 78.788,30.2613 79.5,31.5 Z"/></g>
<g><path style="opacity:1" fill="#18171c" d="M 155.5,24.5 C 152.26,27.967 149.76,31.967 148,36.5C 146.296,38.3734 144.463,40.0401 142.5,41.5C 140.833,41.5 139.167,41.5 137.5,41.5C 137.326,39.139 136.993,36.8056 136.5,34.5C 138.167,33.8333 139.833,33.1667 141.5,32.5C 144.179,31.7739 146.846,30.9406 149.5,30C 150.252,29.3292 150.586,28.4959 150.5,27.5C 151.922,26.075 153.589,25.075 155.5,24.5 Z"/></g>
<g><path style="opacity:1" fill="#55535a" d="M 99.5,29.5 C 98.6935,30.7281 97.6935,31.7281 96.5,32.5C 93.7122,33.2265 91.7122,34.8932 90.5,37.5C 89.1667,38.1667 87.8333,38.8333 86.5,39.5C 86.1667,39.5 85.8333,39.5 85.5,39.5C 85.3426,36.656 86.676,34.9893 89.5,34.5C 92.5498,32.3084 95.8832,30.6417 99.5,29.5 Z"/></g>
<g><path style="opacity:1" fill="#eae7ea" d="M 96.5,32.5 C 99.7479,36.979 98.4146,39.3123 92.5,39.5C 91.2867,39.2528 90.62,38.5862 90.5,37.5C 91.7122,34.8932 93.7122,33.2265 96.5,32.5 Z"/></g>
<g><path style="opacity:1" fill="#73777c" d="M 105.5,25.5 C 108.726,30.9468 111.726,36.6135 114.5,42.5C 114.03,43.463 113.363,43.463 112.5,42.5C 110.926,41.0158 109.593,39.3492 108.5,37.5C 107.289,33.6233 105.622,29.9566 103.5,26.5C 104.492,26.6716 105.158,26.3382 105.5,25.5 Z"/></g>
<g><path style="opacity:1" fill="#080a0e" d="M 255.5,43.5 C 255.5,51.1667 255.5,58.8333 255.5,66.5C 251.854,66.9085 248.187,66.2419 244.5,64.5C 244.519,62.8945 244.353,61.2278 244,59.5C 245.586,60.376 247.086,61.376 248.5,62.5C 249.425,61.3595 250.259,61.3595 251,62.5C 251.667,61.8333 251.667,61.1667 251,60.5C 244.833,56.3333 238.667,52.1667 232.5,48C 234.095,48.6171 235.428,48.2837 236.5,47C 233.874,44.8543 230.874,43.521 227.5,43C 230.833,43 234.167,43 237.5,43C 232.414,40.2527 227.414,38.086 222.5,36.5C 220.771,38.8511 220.104,41.5178 220.5,44.5C 217.067,42.6866 213.734,40.6866 210.5,38.5C 209.098,37.1575 209.431,36.3242 211.5,36C 208.833,35.3333 208.833,34.6667 211.5,34C 210.069,33.5348 208.903,32.7014 208,31.5C 207.667,31.8333 207.333,32.1667 207,32.5C 205.053,31.8903 203.219,31.0569 201.5,30C 202.047,29.0754 202.713,28.2421 203.5,27.5C 207.743,30.0235 212.076,32.3569 216.5,34.5C 217.711,33.7261 217.711,32.8928 216.5,32C 217,31.8333 217.5,31.6667 218,31.5C 221.001,32.9179 224.168,33.7512 227.5,34C 236.198,38.9756 245.531,42.1422 255.5,43.5 Z"/></g>
<g><path style="opacity:1" fill="#584a53" d="M 162.5,22.5 C 164.167,23.8333 165.833,25.1667 167.5,26.5C 169.235,32.8907 168.568,38.8907 165.5,44.5C 165.167,44.5 164.833,44.5 164.5,44.5C 162.577,42.1901 160.244,41.5234 157.5,42.5C 158.092,39.8728 158.425,37.2062 158.5,34.5C 164.067,35.2468 165.9,32.9134 164,27.5C 161.127,24.8997 158.294,24.8997 155.5,27.5C 154.74,32.627 153.74,37.627 152.5,42.5C 153.833,42.5 155.167,42.5 156.5,42.5C 154.972,43.3092 153.306,43.9759 151.5,44.5C 150.883,44.6107 150.383,44.944 150,45.5C 148.867,43.7888 147.367,43.2888 145.5,44C 145.833,44.3333 146.167,44.6667 146.5,45C 144.536,46.451 143.203,48.2843 142.5,50.5C 141.661,48.2186 140.661,45.8852 139.5,43.5C 140.602,42.8243 141.602,42.1577 142.5,41.5C 144.463,40.0401 146.296,38.3734 148,36.5C 149.76,31.967 152.26,27.967 155.5,24.5C 157.479,22.8325 159.812,22.1658 162.5,22.5 Z"/></g>
<g><path style="opacity:1" fill="#2c2227" d="M 157.5,42.5 C 157.167,42.5 156.833,42.5 156.5,42.5C 155.167,42.5 153.833,42.5 152.5,42.5C 153.74,37.627 154.74,32.627 155.5,27.5C 158.294,24.8997 161.127,24.8997 164,27.5C 165.9,32.9134 164.067,35.2468 158.5,34.5C 158.425,37.2062 158.092,39.8728 157.5,42.5 Z"/></g>
<g><path style="opacity:1" fill="#eae1e7" d="M 87.5,21.5 C 87.9382,21.4346 88.2716,21.6012 88.5,22C 82.8653,26.9073 83.1986,31.0739 89.5,34.5C 86.676,34.9893 85.3426,36.656 85.5,39.5C 85.4225,43.8766 84.9225,48.2099 84,52.5C 81.9177,55.4872 80.751,58.8206 80.5,62.5C 82.1986,62.3796 83.8653,62.0463 85.5,61.5C 87.5689,61.8242 87.9023,62.6575 86.5,64C 83.1832,64.4983 79.8499,64.665 76.5,64.5C 77.5481,60.7356 78.8815,57.069 80.5,53.5C 83.191,49.6034 82.8577,45.9367 79.5,42.5C 78.8556,40.5222 77.5223,39.1889 75.5,38.5C 74.2121,36.7015 74.2121,35.0348 75.5,33.5C 75.8333,33.5 76.1667,33.5 76.5,33.5C 77.209,34.404 78.209,34.7373 79.5,34.5C 79.3539,39.1366 80.0206,39.4699 81.5,35.5C 82.6319,32.3716 83.4652,29.0382 84,25.5C 84.66,23.6763 85.8267,22.343 87.5,21.5 Z"/></g>
<g><path style="opacity:1" fill="#a898a2" d="M 99.5,29.5 C 99.8333,29.5 100.167,29.5 100.5,29.5C 102.153,32.8068 103.82,36.1401 105.5,39.5C 99.8514,39.4941 94.518,40.6608 89.5,43C 91.1749,43.9853 92.8415,44.8186 94.5,45.5C 91.9122,45.5433 89.7456,46.5433 88,48.5C 87.6371,45.456 87.1371,42.456 86.5,39.5C 87.8333,38.8333 89.1667,38.1667 90.5,37.5C 90.62,38.5862 91.2867,39.2528 92.5,39.5C 98.4146,39.3123 99.7479,36.979 96.5,32.5C 97.6935,31.7281 98.6935,30.7281 99.5,29.5 Z"/></g>
<g><path style="opacity:1" fill="#262d3b" d="M 178.5,48.5 C 178.112,45.3188 176.778,42.6522 174.5,40.5C 174.523,38.4004 173.856,36.5671 172.5,35C 173.01,33.1739 173.844,33.0072 175,34.5C 175.72,32.8876 175.554,31.3876 174.5,30C 176.224,29.5518 176.891,28.7185 176.5,27.5C 179.597,28.7709 179.931,30.2709 177.5,32C 180.773,38.7111 184.439,45.2111 188.5,51.5C 188.333,51.8333 188.167,52.1667 188,52.5C 184.962,49.7974 182.295,46.7974 180,43.5C 179.647,44.6716 179.813,45.8382 180.5,47C 180.164,48.0299 179.497,48.5299 178.5,48.5 Z"/></g>
<g><path style="opacity:1" fill="#2c2f34" d="M 105.5,39.5 C 105.833,40.1667 106.167,40.8333 106.5,41.5C 105.674,43.2644 104.341,44.5977 102.5,45.5C 102.539,44.4168 102.873,43.4168 103.5,42.5C 102.675,41.6143 101.675,41.281 100.5,41.5C 100.839,46.3673 99.6718,46.7006 97,42.5C 96.7645,44.1193 95.9311,45.1193 94.5,45.5C 92.8415,44.8186 91.1749,43.9853 89.5,43C 94.518,40.6608 99.8514,39.4941 105.5,39.5 Z"/></g>
<g><path style="opacity:1" fill="#828c94" d="M 65.5,37.5 C 65.3284,38.4916 65.6618,39.1583 66.5,39.5C 65.2356,43.1433 64.569,48.1433 64.5,54.5C 63.3503,49.6842 63.1837,44.6842 64,39.5C 64.2784,38.5842 64.7784,37.9175 65.5,37.5 Z"/></g>
<g><path style="opacity:1" fill="#e2dde5" d="M 78.5,42.5 C 80.18,44.7264 79.8466,46.3931 77.5,47.5C 76.914,45.1602 75.914,42.9935 74.5,41C 76.0657,40.7003 77.399,41.2003 78.5,42.5 Z"/></g>
<g><path style="opacity:1" fill="#2c3037" d="M 99.5,-0.5 C 100.167,-0.5 100.833,-0.5 101.5,-0.5C 109.173,6.00791 116.006,13.3412 122,21.5C 122.258,17.1968 121.258,13.1968 119,9.5C 114.843,5.52505 110.343,2.19172 105.5,-0.5C 113.5,-0.5 121.5,-0.5 129.5,-0.5C 127.267,1.34809 124.934,3.01476 122.5,4.5C 123.167,5.16667 123.833,5.83333 124.5,6.5C 122.821,6.89233 121.154,7.39233 119.5,8C 121.969,11.8127 124.469,15.646 127,19.5C 127.644,23.2206 128.477,26.8872 129.5,30.5C 129.167,30.8333 128.833,31.1667 128.5,31.5C 127.086,30.376 125.586,29.376 124,28.5C 124.566,36.447 124.566,44.447 124,52.5C 123.617,51.944 123.117,51.6107 122.5,51.5C 121.345,48.8104 120.345,48.4771 119.5,50.5C 121.657,55.1302 123.49,59.7968 125,64.5C 123.935,62.6037 123.102,62.437 122.5,64C 124.316,66.4027 124.649,68.9027 123.5,71.5C 121.326,68.4846 119.659,65.1513 118.5,61.5C 117.744,57.233 116.411,53.233 114.5,49.5C 114.5,48.5 114.5,47.5 114.5,46.5C 115.222,46.9175 115.722,47.5842 116,48.5C 116.595,47.1011 116.428,45.7678 115.5,44.5C 116.489,43.5318 117.156,42.3651 117.5,41C 116.292,37.2522 115.459,33.4189 115,29.5C 112.262,25.0784 109.929,20.4118 108,15.5C 105.298,10.921 101.798,7.08764 97.5,4C 98.5,3.33333 99.5,3.33333 100.5,4C 102.333,5.83333 104.167,7.66667 106,9.5C 106.667,8.5 106.667,7.5 106,6.5C 103.628,4.29681 101.461,1.96348 99.5,-0.5 Z"/></g>
<g><path style="opacity:1" fill="#4d505a" d="M 101.5,-0.5 C 102.833,-0.5 104.167,-0.5 105.5,-0.5C 110.343,2.19172 114.843,5.52505 119,9.5C 121.258,13.1968 122.258,17.1968 122,21.5C 116.006,13.3412 109.173,6.00791 101.5,-0.5 Z"/></g>
<g><path style="opacity:1" fill="#648fa0" d="M 29.5,-0.5 C 31.1667,-0.5 32.8333,-0.5 34.5,-0.5C 33.9711,1.58337 32.9711,3.41671 31.5,5C 31.8138,10.0061 32.1471,14.6728 32.5,19C 30.0717,23.1793 26.905,27.346 23,31.5C 22.6667,36.5 22.3333,41.5 22,46.5C 19.3975,58.234 11.8975,63.9007 -0.5,63.5C -0.5,61.8333 -0.5,60.1667 -0.5,58.5C 1.20643,56.3403 3.53977,55.1736 6.5,55C 13.3564,50.4327 15.3564,44.4327 12.5,37C 13.7332,33.3832 15.0665,29.8832 16.5,26.5C 18.9032,26.607 20.7365,25.607 22,23.5C 22.8147,21.3772 23.8147,19.3772 25,17.5C 25.2662,11.1017 26.7662,5.10171 29.5,-0.5 Z"/></g>
<g><path style="opacity:1" fill="#3a5460" d="M 62.5,47.5 C 62.0811,53.9859 62.7477,60.3192 64.5,66.5C 61.8672,63.7543 60.5338,64.421 60.5,68.5C 59.325,68.281 58.325,68.6143 57.5,69.5C 58.5,70.8333 59.5,72.1667 60.5,73.5C 59.3539,74.7187 58.3539,76.0521 57.5,77.5C 52.1956,80.9267 46.1956,83.7601 39.5,86C 38.7433,87.5122 37.7433,88.8455 36.5,90C 38.2668,93.7364 38.9335,97.2364 38.5,100.5C 37.5,103.167 36.5,105.833 35.5,108.5C 34.675,109.386 33.675,109.719 32.5,109.5C 32.4048,112.272 31.0715,114.272 28.5,115.5C 29.8333,116.833 29.8333,118.167 28.5,119.5C 22.8775,124.302 16.8775,128.469 10.5,132C 10.8333,132.333 11.1667,132.667 11.5,133C 10.0076,135.134 8.34091,137.134 6.5,139C 7.16667,139.667 7.83333,140.333 8.5,141C 7.40191,141.77 7.40191,142.603 8.5,143.5C 6.16667,143.5 3.83333,143.5 1.5,143.5C 1.47199,141.418 2.13865,139.584 3.5,138C 3.16667,137.667 2.83333,137.333 2.5,137C 4.44204,135.091 6.1087,132.925 7.5,130.5C 12.4628,127.103 17.2961,123.437 22,119.5C 24.1599,114.565 27.4932,109.898 32,105.5C 35.401,100.87 34.5677,97.2032 29.5,94.5C 30.648,93.8359 31.9813,93.6692 33.5,94C 32.1667,93 32.1667,92 33.5,91C 32.8333,90.3333 32.1667,89.6667 31.5,89C 32.87,87.5587 33.87,85.892 34.5,84C 36.5912,82.3253 38.7579,81.8253 41,82.5C 46.1058,79.9582 50.6058,77.6248 54.5,75.5C 54.2606,73.5328 54.5939,71.6995 55.5,70C 54.6433,69.3109 53.9767,68.4776 53.5,67.5C 55.162,66.6733 56.4954,65.5067 57.5,64C 57.1667,63.6667 56.8333,63.3333 56.5,63C 57.7865,60.9777 58.7865,58.8111 59.5,56.5C 58.2434,52.0227 58.7434,47.6893 61,43.5C 61.21,45.0581 61.71,46.3915 62.5,47.5 Z"/></g>
<g><path style="opacity:1" fill="#9f96a3" d="M 78.5,42.5 C 78.8333,42.5 79.1667,42.5 79.5,42.5C 82.8577,45.9367 83.191,49.6034 80.5,53.5C 80.67,52.1779 80.3366,51.0113 79.5,50C 80.1667,49.6667 80.8333,49.3333 81.5,49C 79.9419,48.79 78.6085,48.29 77.5,47.5C 79.8466,46.3931 80.18,44.7264 78.5,42.5 Z"/></g>
<g><path style="opacity:1" fill="#7d808e" d="M 102.5,45.5 C 100.025,46.1314 97.6915,47.1314 95.5,48.5C 94.7611,48.631 94.0944,48.4643 93.5,48C 94.2524,47.3292 94.5858,46.4959 94.5,45.5C 95.9311,45.1193 96.7645,44.1193 97,42.5C 99.6718,46.7006 100.839,46.3673 100.5,41.5C 101.675,41.281 102.675,41.6143 103.5,42.5C 102.873,43.4168 102.539,44.4168 102.5,45.5 Z"/></g>
<g><path style="opacity:1" fill="#6f5e67" d="M 164.5,44.5 C 160.149,47.3592 156.315,50.6925 153,54.5C 151.266,53.5335 150.432,52.0335 150.5,50C 150.943,48.175 151.277,46.3417 151.5,44.5C 153.306,43.9759 154.972,43.3092 156.5,42.5C 156.833,42.5 157.167,42.5 157.5,42.5C 160.244,41.5234 162.577,42.1901 164.5,44.5 Z"/></g>
<g><path style="opacity:1" fill="#c3cacd" d="M 64.5,30.5 C 64.9926,32.8056 65.3259,35.139 65.5,37.5C 64.7784,37.9175 64.2784,38.5842 64,39.5C 63.1837,44.6842 63.3503,49.6842 64.5,54.5C 64.526,59.2671 65.1927,63.9338 66.5,68.5C 66.5,69.1667 66.1667,69.5 65.5,69.5C 65.4431,68.391 65.1098,67.391 64.5,66.5C 62.7477,60.3192 62.0811,53.9859 62.5,47.5C 62.5,43.1667 62.5,38.8333 62.5,34.5C 63.1667,33.1667 63.8333,31.8333 64.5,30.5 Z"/></g>
<g><path style="opacity:1" fill="#9b9ca0" d="M 108.5,37.5 C 109.593,39.3492 110.926,41.0158 112.5,42.5C 112.66,44.153 113.326,45.4863 114.5,46.5C 114.5,47.5 114.5,48.5 114.5,49.5C 113.833,49.5 113.167,49.5 112.5,49.5C 111.833,48.5 111.167,47.5 110.5,46.5C 109.453,43.4037 108.12,40.4037 106.5,37.5C 106.97,36.537 107.637,36.537 108.5,37.5 Z"/></g>
<g><path style="opacity:1" fill="#707277" d="M 114.5,49.5 C 116.411,53.233 117.744,57.233 118.5,61.5C 115.992,57.8178 113.992,53.8178 112.5,49.5C 113.167,49.5 113.833,49.5 114.5,49.5 Z"/></g>
<g><path style="opacity:1" fill="#111116" d="M 194.5,80.5 C 194.631,81.2389 194.464,81.9056 194,82.5C 185.562,77.396 179.229,70.396 175,61.5C 174.346,60.3044 173.846,60.3044 173.5,61.5C 179.655,73.0252 187.989,82.5252 198.5,90C 199.758,91.7409 200.758,93.5742 201.5,95.5C 201.167,96.5 200.5,97.1667 199.5,97.5C 198.524,96.1851 197.524,94.8518 196.5,93.5C 195.167,94.8333 193.833,94.8333 192.5,93.5C 191.667,94.5 190.833,95.5 190,96.5C 189.601,96.2716 189.435,95.9382 189.5,95.5C 187.653,92.6531 185.986,89.6531 184.5,86.5C 184.667,86.1667 184.833,85.8333 185,85.5C 186.667,87.1667 188.333,88.8333 190,90.5C 190.667,89.8333 190.667,89.1667 190,88.5C 185.299,84.1342 180.966,79.4675 177,74.5C 175.842,74.9981 175.009,75.8315 174.5,77C 175.452,78.3004 175.452,79.467 174.5,80.5C 173.094,79.0493 171.594,77.7159 170,76.5C 169.601,76.7284 169.435,77.0618 169.5,77.5C 168.402,76.3991 168.235,75.0657 169,73.5C 169.333,73.8333 169.667,74.1667 170,74.5C 171.061,68.2757 170.394,62.2757 168,56.5C 166.445,54.8542 164.779,54.5209 163,55.5C 162.536,54.9056 162.369,54.2389 162.5,53.5C 162.5,52.8333 162.5,52.1667 162.5,51.5C 163.833,51.5 165.167,51.5 166.5,51.5C 166.351,50.448 166.517,49.448 167,48.5C 169.057,49.9784 170.39,51.9784 171,54.5C 171.333,53.1667 171.667,51.8333 172,50.5C 176.277,57.3787 181.277,63.712 187,69.5C 188.146,74.1364 190.646,77.8031 194.5,80.5 Z"/></g>
<g><path style="opacity:1" fill="#1e1622" d="M 136.5,34.5 C 136.993,36.8056 137.326,39.139 137.5,41.5C 139.167,41.5 140.833,41.5 142.5,41.5C 141.602,42.1577 140.602,42.8243 139.5,43.5C 140.661,45.8852 141.661,48.2186 142.5,50.5C 142.423,54.9628 143.09,59.2961 144.5,63.5C 145.858,67.2477 147.191,70.9143 148.5,74.5C 150.5,78.8333 152.5,83.1667 154.5,87.5C 151.46,83.4408 147.96,79.7742 144,76.5C 140.942,69.9927 138.275,63.326 136,56.5C 136.287,61.4824 137.453,66.3158 139.5,71C 139.333,71.5 139.167,72 139,72.5C 136.867,68.536 135.367,68.8694 134.5,73.5C 131.547,69.7682 129.213,65.6015 127.5,61C 129.888,60.1349 131.388,60.9683 132,63.5C 132.333,61.8333 132.667,60.1667 133,58.5C 133.333,58.8333 133.667,59.1667 134,59.5C 134.333,57.8333 134.667,56.1667 135,54.5C 135.889,55.8882 136.389,55.7215 136.5,54C 134.717,48.158 133.051,42.3246 131.5,36.5C 132.434,35.4324 132.768,34.099 132.5,32.5C 134.199,32.5271 135.533,33.1938 136.5,34.5 Z"/></g>
<g><path style="opacity:1" fill="#564251" d="M 151.5,44.5 C 151.277,46.3417 150.943,48.175 150.5,50C 150.432,52.0335 151.266,53.5335 153,54.5C 156.315,50.6925 160.149,47.3592 164.5,44.5C 164.833,44.5 165.167,44.5 165.5,44.5C 164.312,46.7221 163.312,49.0554 162.5,51.5C 158.645,55.2561 153.978,57.0894 148.5,57C 147.76,58.7849 147.093,60.6183 146.5,62.5C 146.043,63.2975 145.376,63.6309 144.5,63.5C 143.09,59.2961 142.423,54.9628 142.5,50.5C 143.203,48.2843 144.536,46.451 146.5,45C 146.167,44.6667 145.833,44.3333 145.5,44C 147.367,43.2888 148.867,43.7888 150,45.5C 150.383,44.944 150.883,44.6107 151.5,44.5 Z"/></g>
<g><path style="opacity:1" fill="#0a0b11" d="M 255.5,66.5 C 255.5,69.1667 255.5,71.8333 255.5,74.5C 246.925,71.2126 238.925,66.8793 231.5,61.5C 230.608,59.0543 229.108,58.3877 227,59.5C 223.27,55.8569 219.437,52.3569 215.5,49C 216,48.8333 216.5,48.6667 217,48.5C 220.552,50.9071 224.385,52.7404 228.5,54C 230.991,57.5723 234.324,59.5723 238.5,60C 233.397,55.2748 227.731,51.2748 221.5,48C 221.381,46.8552 221.048,45.6885 220.5,44.5C 220.104,41.5178 220.771,38.8511 222.5,36.5C 227.414,38.086 232.414,40.2527 237.5,43C 234.167,43 230.833,43 227.5,43C 230.874,43.521 233.874,44.8543 236.5,47C 235.428,48.2837 234.095,48.6171 232.5,48C 238.667,52.1667 244.833,56.3333 251,60.5C 251.667,61.1667 251.667,61.8333 251,62.5C 250.259,61.3595 249.425,61.3595 248.5,62.5C 247.086,61.376 245.586,60.376 244,59.5C 244.353,61.2278 244.519,62.8945 244.5,64.5C 248.187,66.2419 251.854,66.9085 255.5,66.5 Z"/></g>
<g><path style="opacity:1" fill="#2e2329" d="M 162.5,51.5 C 162.5,52.1667 162.5,52.8333 162.5,53.5C 161.883,53.6107 161.383,53.944 161,54.5C 160.502,57.4816 160.335,60.4816 160.5,63.5C 159.596,62.791 159.263,61.791 159.5,60.5C 159.38,59.4138 158.713,58.7472 157.5,58.5C 151.987,62.363 148.987,67.6963 148.5,74.5C 147.191,70.9143 145.858,67.2477 144.5,63.5C 145.376,63.6309 146.043,63.2975 146.5,62.5C 147.093,60.6183 147.76,58.7849 148.5,57C 153.978,57.0894 158.645,55.2561 162.5,51.5 Z"/></g>
<g><path style="opacity:1" fill="#d4b1ba" d="M 85.5,39.5 C 85.8333,39.5 86.1667,39.5 86.5,39.5C 87.1371,42.456 87.6371,45.456 88,48.5C 89.7456,46.5433 91.9122,45.5433 94.5,45.5C 94.5858,46.4959 94.2524,47.3292 93.5,48C 94.0944,48.4643 94.7611,48.631 95.5,48.5C 99.5546,48.1758 103.555,48.5091 107.5,49.5C 104.423,54.6518 102.589,60.6518 102,67.5C 100.764,68.3992 99.9304,69.5659 99.5,71C 100.287,73.0989 100.62,75.2655 100.5,77.5C 97.8333,77.5 95.1667,77.5 92.5,77.5C 89.6075,76.477 86.7742,76.477 84,77.5C 82.6994,72.5129 84.1994,68.6796 88.5,66C 85.1562,65.0935 82.1562,65.5935 79.5,67.5C 78.1667,66.8333 77.1667,65.8333 76.5,64.5C 79.8499,64.665 83.1832,64.4983 86.5,64C 87.9023,62.6575 87.5689,61.8242 85.5,61.5C 83.8653,62.0463 82.1986,62.3796 80.5,62.5C 80.751,58.8206 81.9177,55.4872 84,52.5C 84.9225,48.2099 85.4225,43.8766 85.5,39.5 Z"/></g>
<g><path style="opacity:1" fill="#c1c3c6" d="M 110.5,46.5 C 111.167,47.5 111.833,48.5 112.5,49.5C 113.992,53.8178 115.992,57.8178 118.5,61.5C 119.659,65.1513 121.326,68.4846 123.5,71.5C 123.5,71.8333 123.5,72.1667 123.5,72.5C 123.214,74.9327 122.548,74.9327 121.5,72.5C 117.636,65.5501 113.969,58.5501 110.5,51.5C 110.672,50.5084 110.338,49.8417 109.5,49.5C 109.5,48.8333 109.5,48.1667 109.5,47.5C 110.167,47.5 110.5,47.1667 110.5,46.5 Z"/></g>
<g><path style="opacity:1" fill="#1c1a25" d="M 192.5,54.5 C 192.938,54.4346 193.272,54.6012 193.5,55C 192.833,55.3333 192.167,55.6667 191.5,56C 201.269,65.9763 212.936,72.143 226.5,74.5C 223.813,74.3359 221.146,74.5026 218.5,75C 220.154,75.6077 221.821,76.1077 223.5,76.5C 215.414,79.9049 208.747,85.2382 203.5,92.5C 203.068,93.7095 202.401,94.7095 201.5,95.5C 200.758,93.5742 199.758,91.7409 198.5,90C 187.989,82.5252 179.655,73.0252 173.5,61.5C 173.846,60.3044 174.346,60.3044 175,61.5C 179.229,70.396 185.562,77.396 194,82.5C 194.464,81.9056 194.631,81.2389 194.5,80.5C 194.897,79.475 195.563,79.3083 196.5,80C 198.565,81.9791 200.732,83.8125 203,85.5C 203.122,83.8314 202.788,82.1647 202,80.5C 197.473,77.3061 193.639,73.4728 190.5,69C 189.234,68.6905 188.067,68.1905 187,67.5C 186.178,65.2115 185.511,62.8782 185,60.5C 183.331,59.1537 182.164,57.487 181.5,55.5C 182.376,55.6309 183.043,55.2975 183.5,54.5C 182.674,53.549 182.508,52.549 183,51.5C 185.643,52.9763 187.81,54.9763 189.5,57.5C 190.506,57.0623 190.506,56.3957 189.5,55.5C 190.325,54.6143 191.325,54.281 192.5,54.5 Z"/></g>
<g><path style="opacity:1" fill="#394650" d="M 69.5,22.5 C 70.8333,22.8333 72.1667,23.1667 73.5,23.5C 73.366,25.2915 73.6993,26.9582 74.5,28.5C 75.038,30.1172 75.3713,31.7839 75.5,33.5C 74.2121,35.0348 74.2121,36.7015 75.5,38.5C 77.5223,39.1889 78.8556,40.5222 79.5,42.5C 79.1667,42.5 78.8333,42.5 78.5,42.5C 77.399,41.2003 76.0657,40.7003 74.5,41C 75.914,42.9935 76.914,45.1602 77.5,47.5C 78.6085,48.29 79.9419,48.79 81.5,49C 80.8333,49.3333 80.1667,49.6667 79.5,50C 80.3366,51.0113 80.67,52.1779 80.5,53.5C 78.8815,57.069 77.5481,60.7356 76.5,64.5C 77.1667,65.8333 78.1667,66.8333 79.5,67.5C 79.5,67.8333 79.5,68.1667 79.5,68.5C 78.3054,68.8656 77.6387,69.699 77.5,71C 79.0412,76.2758 80.5412,81.4424 82,86.5C 80.6861,85.6872 79.5195,84.6872 78.5,83.5C 78.1667,83.8333 77.8333,84.1667 77.5,84.5C 79.0383,86.2433 80.0383,88.2433 80.5,90.5C 79.8333,90.1667 79.1667,89.8333 78.5,89.5C 74.7019,82.2192 70.7019,75.2192 66.5,68.5C 65.1927,63.9338 64.526,59.2671 64.5,54.5C 64.569,48.1433 65.2356,43.1433 66.5,39.5C 66.1255,33.4684 67.1255,27.8017 69.5,22.5 Z"/></g>
<g><path style="opacity:1" fill="#a6adb2" d="M 69.5,49.5 C 70.7899,50.0577 71.6232,51.0577 72,52.5C 73.6565,57.7781 74.6565,63.1114 75,68.5C 72.6573,62.3062 70.824,55.9728 69.5,49.5 Z"/></g>
<g><path style="opacity:1" fill="#16151f" d="M 184.5,38.5 C 186.984,41.2441 189.984,43.2441 193.5,44.5C 202.675,50.5873 211.675,56.9207 220.5,63.5C 218.243,63.0383 216.243,62.0383 214.5,60.5C 213.692,60.8076 213.025,61.3076 212.5,62C 217.742,65.9338 223.409,68.9338 229.5,71C 231.007,71.8373 231.507,73.0039 231,74.5C 229.701,74.0338 228.201,74.0338 226.5,74.5C 212.936,72.143 201.269,65.9763 191.5,56C 192.167,55.6667 192.833,55.3333 193.5,55C 193.272,54.6012 192.938,54.4346 192.5,54.5C 189.429,49.4118 186.762,44.0784 184.5,38.5 Z"/></g>
<g><path style="opacity:1" fill="#496775" d="M 46.5,64.5 C 45.2086,65.4728 45.2086,66.4728 46.5,67.5C 45.376,68.914 44.376,70.414 43.5,72C 38.6015,74.1815 33.7681,76.3482 29,78.5C 28.6667,78.1667 28.3333,77.8333 28,77.5C 26.1741,79.0738 24.0075,79.9071 21.5,80C 21.8333,80.3333 22.1667,80.6667 22.5,81C 21.376,81.2492 20.376,81.7492 19.5,82.5C 20.9814,83.4803 22.3147,84.647 23.5,86C 23.0426,86.414 22.7093,86.914 22.5,87.5C 23.2427,88.1818 23.9094,88.8485 24.5,89.5C 25.5511,90.2223 26.2178,91.2223 26.5,92.5C 23.5995,92.9012 22.9328,94.2345 24.5,96.5C 22.5844,100.752 19.5844,104.085 15.5,106.5C 15.7093,107.086 16.0426,107.586 16.5,108C 15.0097,110.404 13.6763,112.904 12.5,115.5C 11.2713,116.281 9.93801,116.781 8.5,117C 8.83333,117.333 9.16667,117.667 9.5,118C 7.03244,118.979 5.03244,120.479 3.5,122.5C 2.56213,119.911 2.2288,117.411 2.5,115C 6.91329,112.808 8.91329,109.475 8.5,105C 12.1631,101.668 15.4964,98.0018 18.5,94C 15.8824,89.5065 14.549,84.8399 14.5,80C 22.7078,77.0837 30.7078,73.7504 38.5,70C 40.0406,67.9597 41.3739,65.7931 42.5,63.5C 43.7362,64.2458 45.0695,64.5792 46.5,64.5 Z"/></g>
<g><path style="opacity:1" fill="#364e5a" d="M 64.5,66.5 C 65.1098,67.391 65.4431,68.391 65.5,69.5C 66.1667,71.1667 66.8333,72.8333 67.5,74.5C 66.5272,75.7914 65.5272,75.7914 64.5,74.5C 63.2888,75.2739 63.2888,76.1072 64.5,77C 61.7976,79.344 58.9643,81.5106 56,83.5C 48.724,83.7138 43.8907,87.2138 41.5,94C 42.8333,96.3333 42.8333,98.6667 41.5,101C 43.6352,104.074 43.4686,107.241 41,110.5C 40,110.833 39,111.167 38,111.5C 36.7036,114.964 35.037,118.631 33,122.5C 32.3333,123.833 31.6667,123.833 31,122.5C 30.3162,123.784 30.4829,124.951 31.5,126C 30.451,126.492 29.451,126.326 28.5,125.5C 27.646,126.522 26.646,127.355 25.5,128C 26.8333,128.667 26.8333,129.333 25.5,130C 24.0692,130.465 22.9025,131.299 22,132.5C 21.6667,131.833 21.3333,131.167 21,130.5C 18.6076,131.798 16.441,133.965 14.5,137C 15.3279,137.915 16.3279,138.581 17.5,139C 16.6198,140.356 16.2865,141.856 16.5,143.5C 13.8333,143.5 11.1667,143.5 8.5,143.5C 7.40191,142.603 7.40191,141.77 8.5,141C 7.83333,140.333 7.16667,139.667 6.5,139C 8.34091,137.134 10.0076,135.134 11.5,133C 11.1667,132.667 10.8333,132.333 10.5,132C 16.8775,128.469 22.8775,124.302 28.5,119.5C 29.8333,118.167 29.8333,116.833 28.5,115.5C 31.0715,114.272 32.4048,112.272 32.5,109.5C 33.675,109.719 34.675,109.386 35.5,108.5C 36.5,105.833 37.5,103.167 38.5,100.5C 38.9335,97.2364 38.2668,93.7364 36.5,90C 37.7433,88.8455 38.7433,87.5122 39.5,86C 46.1956,83.7601 52.1956,80.9267 57.5,77.5C 58.3539,76.0521 59.3539,74.7187 60.5,73.5C 59.5,72.1667 58.5,70.8333 57.5,69.5C 58.325,68.6143 59.325,68.281 60.5,68.5C 60.5338,64.421 61.8672,63.7543 64.5,66.5 Z"/></g>
<g><path style="opacity:1" fill="#557988" d="M 35.5,39.5 C 35.7135,41.1439 35.3802,42.6439 34.5,44C 36.4594,46.3158 36.4594,48.3158 34.5,50C 36.3939,51.1011 37.0606,52.4345 36.5,54C 34.7466,59.0014 32.08,63.5014 28.5,67.5C 25.8549,68.1919 23.3549,69.1919 21,70.5C 20.4387,69.9781 19.772,69.6448 19,69.5C 5.23417,70.4001 1.40084,76.7334 7.5,88.5C 5.73258,91.0368 4.23258,93.7034 3,96.5C 1.9609,97.7101 0.794229,98.7101 -0.5,99.5C -0.5,89.5 -0.5,79.5 -0.5,69.5C 7.35073,69.2881 15.0174,67.9548 22.5,65.5C 22.8076,64.6919 23.3076,64.0253 24,63.5C 26.0907,64.4996 27.7574,63.8329 29,61.5C 31.1011,55.3374 32.2678,49.1707 32.5,43C 32.7151,41.0922 33.7151,39.9256 35.5,39.5 Z"/></g>
<g><path style="opacity:1" fill="#4d6d7b" d="M 41.5,41.5 C 41.3537,43.9424 42.187,44.6091 44,43.5C 44.452,47.4781 44.952,51.1448 45.5,54.5C 44.9747,55.1924 44.3081,55.6924 43.5,56C 44.1383,57.7067 44.1383,59.54 43.5,61.5C 44.9587,61.4326 46.2921,61.7659 47.5,62.5C 47.6716,63.4916 47.3382,64.1583 46.5,64.5C 45.0695,64.5792 43.7362,64.2458 42.5,63.5C 41.3739,65.7931 40.0406,67.9597 38.5,70C 30.7078,73.7504 22.7078,77.0837 14.5,80C 14.549,84.8399 15.8824,89.5065 18.5,94C 15.4964,98.0018 12.1631,101.668 8.5,105C 8.91329,109.475 6.91329,112.808 2.5,115C 2.2288,117.411 2.56213,119.911 3.5,122.5C 1.80072,122.473 0.46739,121.806 -0.5,120.5C -0.5,117.833 -0.5,115.167 -0.5,112.5C 1.01922,109.979 2.68589,107.479 4.5,105C 3.83333,104.333 3.16667,103.667 2.5,103C 4.22551,100.752 6.22551,98.7515 8.5,97C 7.34633,96.0862 7.51299,95.2529 9,94.5C 9.89277,95.7112 10.7261,95.7112 11.5,94.5C 11.2907,93.914 10.9574,93.414 10.5,93C 11.5784,92.3261 12.2451,91.3261 12.5,90C 12.0903,85.6996 11.0903,81.6996 9.5,78C 10.8166,76.3857 12.4833,75.2191 14.5,74.5C 19.0812,73.0214 23.7478,71.8547 28.5,71C 30.6641,70.0857 32.6641,68.919 34.5,67.5C 36.2481,61.086 38.5814,54.7527 41.5,48.5C 41.1556,45.9639 40.1556,43.7972 38.5,42C 39.3523,40.2716 40.3523,40.105 41.5,41.5 Z"/></g>
<g><path style="opacity:1" fill="#c79fa7" d="M 106.5,41.5 C 107.486,43.4261 108.486,45.4261 109.5,47.5C 109.5,48.1667 109.5,48.8333 109.5,49.5C 110.259,54.7951 108.926,59.4617 105.5,63.5C 106.325,64.3857 107.325,64.719 108.5,64.5C 108.5,65.5 108.5,66.5 108.5,67.5C 112.303,67.9675 114.969,69.9675 116.5,73.5C 115.861,76.4748 115.361,79.4748 115,82.5C 113.658,87.1464 111.158,91.4797 107.5,95.5C 104.731,96.7682 102.397,98.6015 100.5,101C 98.1902,101.497 95.8568,101.663 93.5,101.5C 92.8333,101.5 92.5,101.167 92.5,100.5C 93.5832,100.461 94.5832,100.127 95.5,99.5C 96.4841,96.5719 96.8174,93.5719 96.5,90.5C 91.5,89.5 89.5,91.5 90.5,96.5C 89.7521,93.8298 88.7521,91.1631 87.5,88.5C 88.8734,88.6567 90.2068,88.49 91.5,88C 93.2931,85.6122 95.2931,83.4455 97.5,81.5C 98.4778,81.189 99.1445,80.5223 99.5,79.5C 97.0312,78.8319 94.6979,78.1653 92.5,77.5C 95.1667,77.5 97.8333,77.5 100.5,77.5C 100.62,75.2655 100.287,73.0989 99.5,71C 99.9304,69.5659 100.764,68.3992 102,67.5C 102.589,60.6518 104.423,54.6518 107.5,49.5C 103.555,48.5091 99.5546,48.1758 95.5,48.5C 97.6915,47.1314 100.025,46.1314 102.5,45.5C 104.341,44.5977 105.674,43.2644 106.5,41.5 Z"/></g>
<g><path style="opacity:1" fill="#43313a" d="M 159.5,60.5 C 158.425,59.4376 157.425,59.4376 156.5,60.5C 154.922,63.9374 155.255,67.1041 157.5,70C 157.382,73.0299 157.215,76.1965 157,79.5C 156.626,80.4162 156.126,81.2496 155.5,82C 155.728,82.3988 156.062,82.5654 156.5,82.5C 156.5,84.5 156.5,86.5 156.5,88.5C 155.833,88.1667 155.167,87.8333 154.5,87.5C 152.5,83.1667 150.5,78.8333 148.5,74.5C 148.987,67.6963 151.987,62.363 157.5,58.5C 158.713,58.7472 159.38,59.4138 159.5,60.5 Z"/></g>
<g><path style="opacity:1" fill="#140f18" d="M 220.5,63.5 C 222.086,64.4132 223.586,64.4132 225,63.5C 229.496,67.8205 234.662,71.1538 240.5,73.5C 241.932,73.2668 242.432,72.6001 242,71.5C 240.933,70.8095 239.766,70.3095 238.5,70C 236.306,66.8947 233.64,64.228 230.5,62C 230.728,61.6012 231.062,61.4346 231.5,61.5C 238.925,66.8793 246.925,71.2126 255.5,74.5C 255.5,83.8333 255.5,93.1667 255.5,102.5C 253.312,97.1414 250.812,91.808 248,86.5C 246.951,84.3825 245.451,82.7158 243.5,81.5C 243.167,80.5 242.5,79.8333 241.5,79.5C 238.039,78.134 234.373,77.134 230.5,76.5C 228.167,76.5 225.833,76.5 223.5,76.5C 221.821,76.1077 220.154,75.6077 218.5,75C 221.146,74.5026 223.813,74.3359 226.5,74.5C 228.201,74.0338 229.701,74.0338 231,74.5C 231.507,73.0039 231.007,71.8373 229.5,71C 223.409,68.9338 217.742,65.9338 212.5,62C 213.025,61.3076 213.692,60.8076 214.5,60.5C 216.243,62.0383 218.243,63.0383 220.5,63.5 Z"/></g>
<g><path style="opacity:1" fill="#919ba1" d="M 66.5,68.5 C 70.7019,75.2192 74.7019,82.2192 78.5,89.5C 76.3674,87.9095 74.7007,85.9095 73.5,83.5C 72.8333,82.5 72.1667,81.5 71.5,80.5C 69.7745,78.7721 68.4411,76.7721 67.5,74.5C 66.8333,72.8333 66.1667,71.1667 65.5,69.5C 66.1667,69.5 66.5,69.1667 66.5,68.5 Z"/></g>
<g><path style="opacity:1" fill="#4c3047" d="M 159.5,60.5 C 159.263,61.791 159.596,62.791 160.5,63.5C 161.577,73.8084 163.911,83.8084 167.5,93.5C 166.357,93.0919 165.357,92.4252 164.5,91.5C 162.844,86.8747 160.177,83.8747 156.5,82.5C 156.062,82.5654 155.728,82.3988 155.5,82C 156.126,81.2496 156.626,80.4162 157,79.5C 157.215,76.1965 157.382,73.0299 157.5,70C 155.255,67.1041 154.922,63.9374 156.5,60.5C 157.425,59.4376 158.425,59.4376 159.5,60.5 Z"/></g>
<g><path style="opacity:1" fill="#19151f" d="M 189.5,95.5 C 184.893,92.0693 180.393,88.4026 176,84.5C 176.222,86.4564 177.055,88.2897 178.5,90C 177.833,90.6667 177.167,90.6667 176.5,90C 173.76,86.0165 171.427,81.8499 169.5,77.5C 169.435,77.0618 169.601,76.7284 170,76.5C 171.594,77.7159 173.094,79.0493 174.5,80.5C 175.452,79.467 175.452,78.3004 174.5,77C 175.009,75.8315 175.842,74.9981 177,74.5C 180.966,79.4675 185.299,84.1342 190,88.5C 190.667,89.1667 190.667,89.8333 190,90.5C 188.333,88.8333 186.667,87.1667 185,85.5C 184.833,85.8333 184.667,86.1667 184.5,86.5C 185.986,89.6531 187.653,92.6531 189.5,95.5 Z"/></g>
<g><path style="opacity:1" fill="#8b6a72" d="M 92.5,77.5 C 94.6979,78.1653 97.0312,78.8319 99.5,79.5C 99.1445,80.5223 98.4778,81.189 97.5,81.5C 94.4816,81.3354 91.4816,81.502 88.5,82C 87.944,82.3826 87.6107,82.8826 87.5,83.5C 87.1667,83.5 86.8333,83.5 86.5,83.5C 86.1667,83.5 85.8333,83.5 85.5,83.5C 84.8783,82.3734 84.045,81.3734 83,80.5C 82.6667,76.8333 82.3333,73.1667 82,69.5C 81.3292,68.7476 80.4959,68.4142 79.5,68.5C 79.5,68.1667 79.5,67.8333 79.5,67.5C 82.1562,65.5935 85.1562,65.0935 88.5,66C 84.1994,68.6796 82.6994,72.5129 84,77.5C 86.7742,76.477 89.6075,76.477 92.5,77.5 Z"/></g>
<g><path style="opacity:1" fill="#a6808a" d="M 110.5,51.5 C 113.969,58.5501 117.636,65.5501 121.5,72.5C 120.737,77.8274 120.403,83.4941 120.5,89.5C 118.363,91.8004 116.03,93.9671 113.5,96C 109.224,96.8047 105.557,98.6381 102.5,101.5C 99.5,102.833 96.5,102.833 93.5,101.5C 95.8568,101.663 98.1902,101.497 100.5,101C 102.397,98.6015 104.731,96.7682 107.5,95.5C 110.12,94.2475 112.787,92.9141 115.5,91.5C 116.281,90.2713 116.781,88.938 117,87.5C 117.667,80.8333 117.667,74.1667 117,67.5C 112.895,62.9556 110.728,57.6223 110.5,51.5 Z"/></g>
<g><path style="opacity:1" fill="#2e434e" d="M 71.5,80.5 C 72.1667,81.5 72.8333,82.5 73.5,83.5C 72.6106,86.2289 70.7773,88.2289 68,89.5C 66.2354,90.2393 64.2354,90.2393 62,89.5C 60.4381,91.4339 58.6048,93.1006 56.5,94.5C 56.1632,97.1608 55.8299,99.8275 55.5,102.5C 57.2003,104.068 58.5336,105.901 59.5,108C 58.3774,109.044 57.0441,109.71 55.5,110C 56.0219,110.561 56.3552,111.228 56.5,112C 55.0218,113.478 53.5218,114.978 52,116.5C 51.6401,118.608 50.9734,120.608 50,122.5C 48.0414,123.748 46.5414,125.415 45.5,127.5C 44.3002,128.292 42.9669,128.292 41.5,127.5C 40.7375,126.732 39.7375,126.232 38.5,126C 41.9337,124.321 43.767,121.488 44,117.5C 45.586,116.624 47.086,115.624 48.5,114.5C 47.3915,112.786 48.0582,112.119 50.5,112.5C 51.3242,107.325 51.3242,101.992 50.5,96.5C 51.2186,94.0026 52.2186,91.6693 53.5,89.5C 54.8734,89.6567 56.2068,89.49 57.5,89C 60.9822,87.1697 64.4822,85.3364 68,83.5C 68.3333,83.8333 68.6667,84.1667 69,84.5C 69.9344,83.1416 70.7677,81.8083 71.5,80.5 Z"/></g>
<g><path style="opacity:1" fill="#3f3f6e" d="M 230.5,76.5 C 234.373,77.134 238.039,78.134 241.5,79.5C 240.461,81.9013 239.127,84.2346 237.5,86.5C 238.602,87.1757 239.602,87.8423 240.5,88.5C 237.833,88.5 235.167,88.5 232.5,88.5C 233.263,87.7321 234.263,87.2321 235.5,87C 230.682,86.2206 226.015,86.7206 221.5,88.5C 220.71,87.2058 219.71,86.0391 218.5,85C 220.607,83.7365 221.607,81.9032 221.5,79.5C 224.632,78.64 227.632,77.64 230.5,76.5 Z"/></g>
<g><path style="opacity:1" fill="#b98e97" d="M 109.5,49.5 C 110.338,49.8417 110.672,50.5084 110.5,51.5C 110.728,57.6223 112.895,62.9556 117,67.5C 117.667,74.1667 117.667,80.8333 117,87.5C 116.781,88.938 116.281,90.2713 115.5,91.5C 112.787,92.9141 110.12,94.2475 107.5,95.5C 111.158,91.4797 113.658,87.1464 115,82.5C 115.361,79.4748 115.861,76.4748 116.5,73.5C 114.969,69.9675 112.303,67.9675 108.5,67.5C 108.5,66.5 108.5,65.5 108.5,64.5C 107.325,64.719 106.325,64.3857 105.5,63.5C 108.926,59.4617 110.259,54.7951 109.5,49.5 Z"/></g>
<g><path style="opacity:1" fill="#917282" d="M 121.5,72.5 C 122.548,74.9327 123.214,74.9327 123.5,72.5C 125.4,74.6195 127.066,76.9528 128.5,79.5C 128.224,82.7186 126.891,85.3852 124.5,87.5C 122.938,87.7329 121.605,88.3995 120.5,89.5C 120.403,83.4941 120.737,77.8274 121.5,72.5 Z"/></g>
<g><path style="opacity:1" fill="#3a448b" d="M 241.5,79.5 C 242.5,79.8333 243.167,80.5 243.5,81.5C 243.5,84.1667 243.5,86.8333 243.5,89.5C 242.391,89.4431 241.391,89.1098 240.5,88.5C 239.602,87.8423 238.602,87.1757 237.5,86.5C 239.127,84.2346 240.461,81.9013 241.5,79.5 Z"/></g>
<g><path style="opacity:1" fill="#b98894" d="M 97.5,81.5 C 95.2931,83.4455 93.2931,85.6122 91.5,88C 90.2068,88.49 88.8734,88.6567 87.5,88.5C 85.7868,87.3646 85.1201,85.698 85.5,83.5C 85.8333,83.5 86.1667,83.5 86.5,83.5C 86.974,87.1569 88.3074,87.3236 90.5,84C 89.552,83.5172 88.552,83.3505 87.5,83.5C 87.6107,82.8826 87.944,82.3826 88.5,82C 91.4816,81.502 94.4816,81.3354 97.5,81.5 Z"/></g>
<g><path style="opacity:1" fill="#f2dfe7" d="M 86.5,83.5 C 86.8333,83.5 87.1667,83.5 87.5,83.5C 88.552,83.3505 89.552,83.5172 90.5,84C 88.3074,87.3236 86.974,87.1569 86.5,83.5 Z"/></g>
<g><path style="opacity:1" fill="#dad8e2" d="M 223.5,76.5 C 225.833,76.5 228.167,76.5 230.5,76.5C 227.632,77.64 224.632,78.64 221.5,79.5C 215.217,82.7831 210.217,87.4497 206.5,93.5C 206.167,93.5 205.833,93.5 205.5,93.5C 204.833,93.1667 204.167,92.8333 203.5,92.5C 208.747,85.2382 215.414,79.9049 223.5,76.5 Z"/></g>
<g><path style="opacity:1" fill="#141519" d="M 131.5,36.5 C 133.051,42.3246 134.717,48.158 136.5,54C 136.389,55.7215 135.889,55.8882 135,54.5C 134.667,56.1667 134.333,57.8333 134,59.5C 133.667,59.1667 133.333,58.8333 133,58.5C 132.667,60.1667 132.333,61.8333 132,63.5C 131.388,60.9683 129.888,60.1349 127.5,61C 129.213,65.6015 131.547,69.7682 134.5,73.5C 139.477,84.1422 147.143,92.1422 157.5,97.5C 157.859,99.371 158.859,100.871 160.5,102C 160.167,102.167 159.833,102.333 159.5,102.5C 157.833,101.167 156.167,99.8333 154.5,98.5C 152.958,99.7468 151.458,99.7468 150,98.5C 149.536,99.0944 149.369,99.7611 149.5,100.5C 141.527,94.5272 134.527,87.5272 128.5,79.5C 127.066,76.9528 125.4,74.6195 123.5,72.5C 123.5,72.1667 123.5,71.8333 123.5,71.5C 124.649,68.9027 124.316,66.4027 122.5,64C 123.102,62.437 123.935,62.6037 125,64.5C 123.49,59.7968 121.657,55.1302 119.5,50.5C 120.345,48.4771 121.345,48.8104 122.5,51.5C 122.675,55.4093 124.675,57.2427 128.5,57C 126.522,54.5027 126.022,51.6693 127,48.5C 127.414,48.9574 127.914,49.2907 128.5,49.5C 129.6,45.0569 130.6,40.7236 131.5,36.5 Z"/></g>
<g><path style="opacity:1" fill="#2e343d" d="M 79.5,68.5 C 80.4959,68.4142 81.3292,68.7476 82,69.5C 82.3333,73.1667 82.6667,76.8333 83,80.5C 84.045,81.3734 84.8783,82.3734 85.5,83.5C 85.1201,85.698 85.7868,87.3646 87.5,88.5C 88.7521,91.1631 89.7521,93.8298 90.5,96.5C 90.8333,97.8333 91.1667,99.1667 91.5,100.5C 90.8333,100.5 90.5,100.833 90.5,101.5C 86.9331,98.0226 83.5998,94.3559 80.5,90.5C 80.0383,88.2433 79.0383,86.2433 77.5,84.5C 77.8333,84.1667 78.1667,83.8333 78.5,83.5C 79.5195,84.6872 80.6861,85.6872 82,86.5C 80.5412,81.4424 79.0412,76.2758 77.5,71C 77.6387,69.699 78.3054,68.8656 79.5,68.5 Z"/></g>
<g><path style="opacity:1" fill="#5f3e54" d="M 167.5,93.5 C 168.237,95.3046 169.237,96.9713 170.5,98.5C 170,98.8333 169.5,99.1667 169,99.5C 166.029,98.0213 163.196,96.3546 160.5,94.5C 158.748,92.7541 157.415,90.7541 156.5,88.5C 156.5,86.5 156.5,84.5 156.5,82.5C 160.177,83.8747 162.844,86.8747 164.5,91.5C 165.357,92.4252 166.357,93.0919 167.5,93.5 Z"/></g>
<g><path style="opacity:1" fill="#405084" d="M 243.5,81.5 C 245.451,82.7158 246.951,84.3825 248,86.5C 250.812,91.808 253.312,97.1414 255.5,102.5C 255.5,103.833 255.5,105.167 255.5,106.5C 254.023,103.409 252.356,100.409 250.5,97.5C 248.167,94.8333 245.833,92.1667 243.5,89.5C 243.5,86.8333 243.5,84.1667 243.5,81.5 Z"/></g>
<g><path style="opacity:1" fill="#5d484e" d="M 128.5,79.5 C 134.527,87.5272 141.527,94.5272 149.5,100.5C 158.873,105.739 168.873,108.073 179.5,107.5C 177.901,107.232 176.568,107.566 175.5,108.5C 165.814,109.167 156.481,107.834 147.5,104.5C 146.101,101.61 143.768,100.11 140.5,100C 135.465,95.3246 129.465,92.9913 122.5,93C 123.244,91.1852 123.911,89.3519 124.5,87.5C 126.891,85.3852 128.224,82.7186 128.5,79.5 Z"/></g>
<g><path style="opacity:1" fill="#5a5c91" d="M 221.5,79.5 C 221.607,81.9032 220.607,83.7365 218.5,85C 219.71,86.0391 220.71,87.2058 221.5,88.5C 218.149,90.8537 215.482,93.8537 213.5,97.5C 212.685,98.4293 211.852,99.4293 211,100.5C 209.568,98.1021 208.068,95.7688 206.5,93.5C 210.217,87.4497 215.217,82.7831 221.5,79.5 Z"/></g>
<g><path style="opacity:1" fill="#110f13" d="M 162.5,53.5 C 162.369,54.2389 162.536,54.9056 163,55.5C 164.779,54.5209 166.445,54.8542 168,56.5C 170.394,62.2757 171.061,68.2757 170,74.5C 169.667,74.1667 169.333,73.8333 169,73.5C 168.235,75.0657 168.402,76.3991 169.5,77.5C 171.427,81.8499 173.76,86.0165 176.5,90C 177.167,90.6667 177.833,90.6667 178.5,90C 177.055,88.2897 176.222,86.4564 176,84.5C 180.393,88.4026 184.893,92.0693 189.5,95.5C 189.435,95.9382 189.601,96.2716 190,96.5C 190.833,95.5 191.667,94.5 192.5,93.5C 193.833,94.8333 195.167,94.8333 196.5,93.5C 197.524,94.8518 198.524,96.1851 199.5,97.5C 197.438,102.625 195.104,107.625 192.5,112.5C 190.833,111.833 189.167,111.167 187.5,110.5C 186.552,105.257 183.885,104.257 179.5,107.5C 168.873,108.073 158.873,105.739 149.5,100.5C 149.369,99.7611 149.536,99.0944 150,98.5C 151.458,99.7468 152.958,99.7468 154.5,98.5C 156.167,99.8333 157.833,101.167 159.5,102.5C 159.833,102.333 160.167,102.167 160.5,102C 158.859,100.871 157.859,99.371 157.5,97.5C 162.599,99.1896 163.266,98.5229 159.5,95.5C 159.624,94.8933 159.957,94.56 160.5,94.5C 163.196,96.3546 166.029,98.0213 169,99.5C 169.5,99.1667 170,98.8333 170.5,98.5C 169.237,96.9713 168.237,95.3046 167.5,93.5C 163.911,83.8084 161.577,73.8084 160.5,63.5C 160.335,60.4816 160.502,57.4816 161,54.5C 161.383,53.944 161.883,53.6107 162.5,53.5 Z"/></g>
<g><path style="opacity:1" fill="#251728" d="M 154.5,87.5 C 155.167,87.8333 155.833,88.1667 156.5,88.5C 157.415,90.7541 158.748,92.7541 160.5,94.5C 159.957,94.56 159.624,94.8933 159.5,95.5C 163.266,98.5229 162.599,99.1896 157.5,97.5C 147.143,92.1422 139.477,84.1422 134.5,73.5C 135.367,68.8694 136.867,68.536 139,72.5C 139.167,72 139.333,71.5 139.5,71C 137.453,66.3158 136.287,61.4824 136,56.5C 138.275,63.326 140.942,69.9927 144,76.5C 147.96,79.7742 151.46,83.4408 154.5,87.5 Z"/></g>
<g><path style="opacity:1" fill="#28163e" d="M 232.5,88.5 C 230.3,90.6404 227.633,92.1404 224.5,93C 222.266,94.6379 220.933,96.8045 220.5,99.5C 218.805,100.826 217.472,100.493 216.5,98.5C 220.196,92.6468 225.53,89.3135 232.5,88.5 Z"/></g>
<g><path style="opacity:1" fill="#070d1c" d="M 232.5,88.5 C 235.167,88.5 237.833,88.5 240.5,88.5C 241.391,89.1098 242.391,89.4431 243.5,89.5C 245.833,92.1667 248.167,94.8333 250.5,97.5C 251.112,101.163 251.279,104.83 251,108.5C 249.682,105.059 247.182,103.725 243.5,104.5C 243.5,104.167 243.5,103.833 243.5,103.5C 243.5,101.833 243.5,100.167 243.5,98.5C 236.617,99.8585 230.784,103.192 226,108.5C 224.654,105.072 222.821,102.072 220.5,99.5C 220.933,96.8045 222.266,94.6379 224.5,93C 227.633,92.1404 230.3,90.6404 232.5,88.5 Z"/></g>
<g><path style="opacity:1" fill="#405c69" d="M 26.5,92.5 C 27.2905,93.4013 28.2905,94.0679 29.5,94.5C 34.5677,97.2032 35.401,100.87 32,105.5C 27.4932,109.898 24.1599,114.565 22,119.5C 17.2961,123.437 12.4628,127.103 7.5,130.5C 6.1087,132.925 4.44204,135.091 2.5,137C 2.83333,137.333 3.16667,137.667 3.5,138C 2.13865,139.584 1.47199,141.418 1.5,143.5C 0.833333,143.5 0.166667,143.5 -0.5,143.5C -0.5,135.833 -0.5,128.167 -0.5,120.5C 0.46739,121.806 1.80072,122.473 3.5,122.5C 5.03244,120.479 7.03244,118.979 9.5,118C 9.16667,117.667 8.83333,117.333 8.5,117C 9.93801,116.781 11.2713,116.281 12.5,115.5C 13.6763,112.904 15.0097,110.404 16.5,108C 16.0426,107.586 15.7093,107.086 15.5,106.5C 19.5844,104.085 22.5844,100.752 24.5,96.5C 22.9328,94.2345 23.5995,92.9012 26.5,92.5 Z"/></g>
<g><path style="opacity:1" fill="#ebdde1" d="M 92.5,100.5 C 92.1667,100.5 91.8333,100.5 91.5,100.5C 91.1667,99.1667 90.8333,97.8333 90.5,96.5C 89.5,91.5 91.5,89.5 96.5,90.5C 96.8174,93.5719 96.4841,96.5719 95.5,99.5C 94.5832,100.127 93.5832,100.461 92.5,100.5 Z"/></g>
<g><path style="opacity:1" fill="#f5f4f7" d="M 203.5,92.5 C 204.167,92.8333 204.833,93.1667 205.5,93.5C 205.167,94.8333 204.833,96.1667 204.5,97.5C 202.412,99.3356 201.079,101.669 200.5,104.5C 195.057,117.46 189.39,130.46 183.5,143.5C 181.5,143.5 179.5,143.5 177.5,143.5C 181.052,137.064 184.052,130.397 186.5,123.5C 188.738,120.028 190.738,116.362 192.5,112.5C 195.104,107.625 197.438,102.625 199.5,97.5C 200.5,97.1667 201.167,96.5 201.5,95.5C 202.401,94.7095 203.068,93.7095 203.5,92.5 Z"/></g>
<g><path style="opacity:1" fill="#5c488e" d="M 232.5,88.5 C 225.53,89.3135 220.196,92.6468 216.5,98.5C 216.5,99.1667 216.167,99.5 215.5,99.5C 215.5,98.1667 214.833,97.5 213.5,97.5C 215.482,93.8537 218.149,90.8537 221.5,88.5C 226.015,86.7206 230.682,86.2206 235.5,87C 234.263,87.2321 233.263,87.7321 232.5,88.5 Z"/></g>
<g><path style="opacity:1" fill="#1f2e36" d="M 81.5,94.5 C 83.5,96.8333 85.5,99.1667 87.5,101.5C 86.7784,101.918 86.2784,102.584 86,103.5C 85.586,103.043 85.086,102.709 84.5,102.5C 82.6841,104.441 80.6841,105.108 78.5,104.5C 80.1667,105.5 81.5,106.833 82.5,108.5C 80.033,110.79 80.033,112.957 82.5,115C 79.0453,116.903 78.712,119.237 81.5,122C 79.4299,122.948 77.9299,124.448 77,126.5C 76.6667,126.167 76.3333,125.833 76,125.5C 75.3333,126.833 74.6667,128.167 74,129.5C 73.0862,128.346 72.2529,128.513 71.5,130C 72.3081,130.308 72.9747,130.808 73.5,131.5C 71.2976,133.411 69.631,135.745 68.5,138.5C 68.7093,139.086 69.0426,139.586 69.5,140C 67.9069,140.949 66.5736,142.115 65.5,143.5C 63.1667,143.5 60.8333,143.5 58.5,143.5C 56.5839,142.335 55.7506,140.668 56,138.5C 57.1131,139.711 58.2798,139.711 59.5,138.5C 60.3333,136.5 61.1667,134.5 62,132.5C 62.9195,132.07 63.7528,131.736 64.5,131.5C 63.3387,129.776 63.5053,128.11 65,126.5C 66.7455,124.251 68.9121,122.584 71.5,121.5C 72.1279,119.742 73.1279,118.242 74.5,117C 73.2367,115.295 72.9034,113.628 73.5,112C 72.8333,111.667 72.1667,111.333 71.5,111C 73.1802,110.653 74.1802,109.653 74.5,108C 73.3176,106.51 72.3176,105.177 71.5,104C 76.0742,103.065 76.4075,101.565 72.5,99.5C 74.2195,99.2537 76.2195,99.2537 78.5,99.5C 78.7215,97.3364 79.7215,95.6697 81.5,94.5 Z"/></g>
<g><path style="opacity:1" fill="#9e7379" d="M 147.5,104.5 C 156.481,107.834 165.814,109.167 175.5,108.5C 172.989,111.113 169.989,113.28 166.5,115C 165.748,115.671 165.414,116.504 165.5,117.5C 165.167,117.5 164.833,117.5 164.5,117.5C 164.5,115.833 164.5,114.167 164.5,112.5C 156.546,112.137 150.713,115.47 147,122.5C 145.595,119.231 143.261,116.898 140,115.5C 139.383,116.449 139.549,117.282 140.5,118C 138.527,118.495 136.527,118.662 134.5,118.5C 134.735,115.188 133.735,114.355 131.5,116C 131.034,119.301 131.034,122.468 131.5,125.5C 130.306,126.799 129.306,128.132 128.5,129.5C 125.676,121.528 122.176,113.862 118,106.5C 117.536,107.094 117.369,107.761 117.5,108.5C 116.615,105.94 114.949,103.94 112.5,102.5C 124.449,97.9409 136.116,98.6076 147.5,104.5 Z"/></g>
<g><path style="opacity:1" fill="#856166" d="M 124.5,87.5 C 123.911,89.3519 123.244,91.1852 122.5,93C 129.465,92.9913 135.465,95.3246 140.5,100C 143.768,100.11 146.101,101.61 147.5,104.5C 136.116,98.6076 124.449,97.9409 112.5,102.5C 112.167,102.5 111.833,102.5 111.5,102.5C 108.713,101.523 105.713,101.19 102.5,101.5C 105.557,98.6381 109.224,96.8047 113.5,96C 116.03,93.9671 118.363,91.8004 120.5,89.5C 121.605,88.3995 122.938,87.7329 124.5,87.5 Z"/></g>
<g><path style="opacity:1" fill="#24353e" d="M 78.5,90.5 C 79.5,91.8333 80.5,93.1667 81.5,94.5C 79.7215,95.6697 78.7215,97.3364 78.5,99.5C 76.2195,99.2537 74.2195,99.2537 72.5,99.5C 76.4075,101.565 76.0742,103.065 71.5,104C 72.3176,105.177 73.3176,106.51 74.5,108C 74.1802,109.653 73.1802,110.653 71.5,111C 72.1667,111.333 72.8333,111.667 73.5,112C 72.9034,113.628 73.2367,115.295 74.5,117C 73.1279,118.242 72.1279,119.742 71.5,121.5C 68.9121,122.584 66.7455,124.251 65,126.5C 63.5053,128.11 63.3387,129.776 64.5,131.5C 63.7528,131.736 62.9195,132.07 62,132.5C 61.1667,134.5 60.3333,136.5 59.5,138.5C 58.2798,139.711 57.1131,139.711 56,138.5C 55.7506,140.668 56.5839,142.335 58.5,143.5C 52.8333,143.5 47.1667,143.5 41.5,143.5C 42.209,142.596 43.209,142.263 44.5,142.5C 44.5,141.5 44.5,140.5 44.5,139.5C 47.5993,139.908 49.9326,138.741 51.5,136C 50.8333,135 50.1667,134 49.5,133C 51.1261,133.195 52.7928,133.195 54.5,133C 55.3107,130.385 55.3107,127.552 54.5,124.5C 55.2739,123.289 56.1072,123.289 57,124.5C 58.3088,122.024 60.1421,120.024 62.5,118.5C 63.4255,119.641 64.2588,119.641 65,118.5C 65.4962,116.965 65.3295,115.465 64.5,114C 64.9054,113.055 65.572,112.388 66.5,112C 63.2903,109.375 62.957,106.542 65.5,103.5C 64.7013,100.722 65.7013,98.5556 68.5,97C 68.0426,96.586 67.7093,96.086 67.5,95.5C 68.6507,94.269 69.8173,94.269 71,95.5C 73.232,92.6729 75.732,91.0062 78.5,90.5 Z"/></g>
<g><path style="opacity:1" fill="#747b80" d="M 78.5,89.5 C 79.1667,89.8333 79.8333,90.1667 80.5,90.5C 83.5998,94.3559 86.9331,98.0226 90.5,101.5C 91.4756,102.815 92.4756,104.148 93.5,105.5C 93.3764,106.107 93.0431,106.44 92.5,106.5C 91.1667,104.5 89.5,102.833 87.5,101.5C 85.5,99.1667 83.5,96.8333 81.5,94.5C 80.5,93.1667 79.5,91.8333 78.5,90.5C 78.5,90.1667 78.5,89.8333 78.5,89.5 Z"/></g>
<g><path style="opacity:1" fill="#090e25" d="M 216.5,98.5 C 217.472,100.493 218.805,100.826 220.5,99.5C 222.821,102.072 224.654,105.072 226,108.5C 230.784,103.192 236.617,99.8585 243.5,98.5C 243.5,100.167 243.5,101.833 243.5,103.5C 240.944,104.543 238.777,106.21 237,108.5C 228.304,119.224 221.138,130.891 215.5,143.5C 213.5,143.5 211.5,143.5 209.5,143.5C 212.167,139.5 214.833,135.5 217.5,131.5C 218.412,130.262 218.579,128.928 218,127.5C 215.957,125.792 214.29,123.792 213,121.5C 212.501,116.511 212.334,111.511 212.5,106.5C 213.227,104.046 214.227,101.713 215.5,99.5C 216.167,99.5 216.5,99.1667 216.5,98.5 Z"/></g>
<g><path style="opacity:1" fill="#181b21" d="M 111.5,102.5 C 111.833,102.5 112.167,102.5 112.5,102.5C 114.949,103.94 116.615,105.94 117.5,108.5C 120.327,114.273 122.66,120.273 124.5,126.5C 124.265,127.097 123.765,127.43 123,127.5C 117.461,125.409 111.961,124.742 106.5,125.5C 105.833,125.5 105.5,125.833 105.5,126.5C 103.52,119.544 100.187,113.211 95.5,107.5C 95.8333,106.5 96.5,105.833 97.5,105.5C 98.8139,106.313 99.9805,107.313 101,108.5C 101.494,106.866 101.66,105.199 101.5,103.5C 104.786,102.793 108.119,102.46 111.5,102.5 Z"/></g>
<g><path style="opacity:1" fill="#1b2830" d="M 87.5,101.5 C 89.5,102.833 91.1667,104.5 92.5,106.5C 91.6364,107.688 90.6364,108.855 89.5,110C 90.5733,111.25 90.5733,112.584 89.5,114C 91.8333,116.333 94.1667,118.667 96.5,121C 95.3961,122.82 93.8961,124.32 92,125.5C 91.3828,126.449 91.5494,127.282 92.5,128C 91.0826,130.826 89.5826,130.993 88,128.5C 87.3571,130.93 85.8571,132.597 83.5,133.5C 84.8333,134.833 84.8333,136.167 83.5,137.5C 85.1836,138.854 85.6836,140.521 85,142.5C 84.6667,141.833 84.3333,141.167 84,140.5C 82.583,141.078 81.7496,142.078 81.5,143.5C 76.1667,143.5 70.8333,143.5 65.5,143.5C 66.5736,142.115 67.9069,140.949 69.5,140C 69.0426,139.586 68.7093,139.086 68.5,138.5C 69.631,135.745 71.2976,133.411 73.5,131.5C 72.9747,130.808 72.3081,130.308 71.5,130C 72.2529,128.513 73.0862,128.346 74,129.5C 74.6667,128.167 75.3333,126.833 76,125.5C 76.3333,125.833 76.6667,126.167 77,126.5C 77.9299,124.448 79.4299,122.948 81.5,122C 78.712,119.237 79.0453,116.903 82.5,115C 80.033,112.957 80.033,110.79 82.5,108.5C 81.5,106.833 80.1667,105.5 78.5,104.5C 80.6841,105.108 82.6841,104.441 84.5,102.5C 85.086,102.709 85.586,103.043 86,103.5C 86.2784,102.584 86.7784,101.918 87.5,101.5 Z"/></g>
<g><path style="opacity:1" fill="#727cbc" d="M 205.5,93.5 C 205.833,93.5 206.167,93.5 206.5,93.5C 208.068,95.7688 209.568,98.1021 211,100.5C 211.852,99.4293 212.685,98.4293 213.5,97.5C 214.833,97.5 215.5,98.1667 215.5,99.5C 214.227,101.713 213.227,104.046 212.5,106.5C 211.897,108.19 210.897,109.69 209.5,111C 209.833,111.333 210.167,111.667 210.5,112C 208.391,112.907 207.058,114.407 206.5,116.5C 206.5,115.167 206.5,113.833 206.5,112.5C 208.782,109.154 209.115,105.487 207.5,101.5C 206.714,99.9589 205.714,98.6256 204.5,97.5C 204.833,96.1667 205.167,94.8333 205.5,93.5 Z"/></g>
<g><path style="opacity:1" fill="#1a242b" d="M 91.5,100.5 C 91.8333,100.5 92.1667,100.5 92.5,100.5C 92.5,101.167 92.8333,101.5 93.5,101.5C 96.5,102.833 99.5,102.833 102.5,101.5C 105.713,101.19 108.713,101.523 111.5,102.5C 108.119,102.46 104.786,102.793 101.5,103.5C 101.66,105.199 101.494,106.866 101,108.5C 99.9805,107.313 98.8139,106.313 97.5,105.5C 96.5,105.833 95.8333,106.5 95.5,107.5C 100.187,113.211 103.52,119.544 105.5,126.5C 101.179,131.476 98.1787,137.143 96.5,143.5C 91.5,143.5 86.5,143.5 81.5,143.5C 81.7496,142.078 82.583,141.078 84,140.5C 84.3333,141.167 84.6667,141.833 85,142.5C 85.6836,140.521 85.1836,138.854 83.5,137.5C 84.8333,136.167 84.8333,134.833 83.5,133.5C 85.8571,132.597 87.3571,130.93 88,128.5C 89.5826,130.993 91.0826,130.826 92.5,128C 91.5494,127.282 91.3828,126.449 92,125.5C 93.8961,124.32 95.3961,122.82 96.5,121C 94.1667,118.667 91.8333,116.333 89.5,114C 90.5733,112.584 90.5733,111.25 89.5,110C 90.6364,108.855 91.6364,107.688 92.5,106.5C 93.0431,106.44 93.3764,106.107 93.5,105.5C 92.4756,104.148 91.4756,102.815 90.5,101.5C 90.5,100.833 90.8333,100.5 91.5,100.5 Z"/></g>
<g><path style="opacity:1" fill="#8a4429" d="M 187.5,110.5 C 187.167,110.5 186.833,110.5 186.5,110.5C 183.612,111.01 181.279,110.344 179.5,108.5C 179.5,108.167 179.5,107.833 179.5,107.5C 183.885,104.257 186.552,105.257 187.5,110.5 Z"/></g>
<g><path style="opacity:1" fill="#110f35" d="M 243.5,103.5 C 243.5,103.833 243.5,104.167 243.5,104.5C 243.5,107.833 243.5,111.167 243.5,114.5C 238.758,122.441 232.925,129.774 226,136.5C 224.121,138.527 222.954,140.86 222.5,143.5C 220.167,143.5 217.833,143.5 215.5,143.5C 221.138,130.891 228.304,119.224 237,108.5C 238.777,106.21 240.944,104.543 243.5,103.5 Z"/></g>
<g><path style="opacity:1" fill="#8797cf" d="M 204.5,97.5 C 205.714,98.6256 206.714,99.9589 207.5,101.5C 209.115,105.487 208.782,109.154 206.5,112.5C 204.717,113.114 203.384,114.28 202.5,116C 201.207,116.49 199.873,116.657 198.5,116.5C 198.877,114.742 199.544,113.075 200.5,111.5C 199.332,110.094 199.665,108.928 201.5,108C 200.663,106.989 200.33,105.822 200.5,104.5C 201.079,101.669 202.412,99.3356 204.5,97.5 Z"/></g>
<g><path style="opacity:1" fill="#2e2a32" d="M 179.5,108.5 C 181.279,110.344 183.612,111.01 186.5,110.5C 183.5,111.833 180.5,111.833 177.5,110.5C 178.167,109.833 178.833,109.167 179.5,108.5 Z"/></g>
<g><path style="opacity:1" fill="#6d83b0" d="M 179.5,107.5 C 179.5,107.833 179.5,108.167 179.5,108.5C 178.833,109.167 178.167,109.833 177.5,110.5C 174.291,112.265 171.291,114.265 168.5,116.5C 167.609,117.11 166.609,117.443 165.5,117.5C 165.414,116.504 165.748,115.671 166.5,115C 169.989,113.28 172.989,111.113 175.5,108.5C 176.568,107.566 177.901,107.232 179.5,107.5 Z"/></g>
<g><path style="opacity:1" fill="#1c1d38" d="M 250.5,97.5 C 252.356,100.409 254.023,103.409 255.5,106.5C 255.5,118.833 255.5,131.167 255.5,143.5C 254.833,143.5 254.167,143.5 253.5,143.5C 253.666,137.824 253.499,132.157 253,126.5C 250.274,129.729 247.107,132.396 243.5,134.5C 243.5,132.833 243.5,131.167 243.5,129.5C 243.5,124.5 243.5,119.5 243.5,114.5C 243.5,111.167 243.5,107.833 243.5,104.5C 247.182,103.725 249.682,105.059 251,108.5C 251.279,104.83 251.112,101.163 250.5,97.5 Z"/></g>
<g><path style="opacity:1" fill="#b18387" d="M 164.5,117.5 C 164.5,117.833 164.5,118.167 164.5,118.5C 163.833,118.5 163.167,118.5 162.5,118.5C 159.407,115.766 156.74,116.266 154.5,120C 154.963,122.585 156.13,124.752 158,126.5C 158.278,125.584 158.778,124.918 159.5,124.5C 159.5,125.167 159.5,125.833 159.5,126.5C 159.167,127.5 158.5,128.167 157.5,128.5C 155.429,127.109 153.762,125.276 152.5,123C 149.953,123.16 147.786,124.326 146,126.5C 143.106,124.254 140.272,121.921 137.5,119.5C 133.91,122.427 133.577,125.761 136.5,129.5C 135.754,133.132 135.421,136.798 135.5,140.5C 135.5,141.5 135.5,142.5 135.5,143.5C 133.833,143.5 132.167,143.5 130.5,143.5C 130.882,138.638 130.216,133.972 128.5,129.5C 129.306,128.132 130.306,126.799 131.5,125.5C 131.034,122.468 131.034,119.301 131.5,116C 133.735,114.355 134.735,115.188 134.5,118.5C 136.527,118.662 138.527,118.495 140.5,118C 139.549,117.282 139.383,116.449 140,115.5C 143.261,116.898 145.595,119.231 147,122.5C 150.713,115.47 156.546,112.137 164.5,112.5C 164.5,114.167 164.5,115.833 164.5,117.5 Z"/></g>
<g><path style="opacity:1" fill="#ac7e90" d="M 177.5,110.5 C 180.5,111.833 183.5,111.833 186.5,110.5C 186.833,110.5 187.167,110.5 187.5,110.5C 189.167,111.167 190.833,111.833 192.5,112.5C 190.738,116.362 188.738,120.028 186.5,123.5C 182.654,122.667 178.821,121.667 175,120.5C 173.289,120.439 171.956,121.106 171,122.5C 170.764,120.881 169.931,119.881 168.5,119.5C 168.5,118.5 168.5,117.5 168.5,116.5C 171.291,114.265 174.291,112.265 177.5,110.5 Z"/></g>
<g><path style="opacity:1" fill="#314753" d="M 67.5,74.5 C 68.4411,76.7721 69.7745,78.7721 71.5,80.5C 70.7677,81.8083 69.9344,83.1416 69,84.5C 68.6667,84.1667 68.3333,83.8333 68,83.5C 64.4822,85.3364 60.9822,87.1697 57.5,89C 56.2068,89.49 54.8734,89.6567 53.5,89.5C 52.2186,91.6693 51.2186,94.0026 50.5,96.5C 51.3242,101.992 51.3242,107.325 50.5,112.5C 48.0582,112.119 47.3915,112.786 48.5,114.5C 47.086,115.624 45.586,116.624 44,117.5C 43.767,121.488 41.9337,124.321 38.5,126C 39.7375,126.232 40.7375,126.732 41.5,127.5C 41.5394,128.583 41.8728,129.583 42.5,130.5C 39.114,132.663 36.9473,135.33 36,138.5C 35.3333,137.167 34.6667,137.167 34,138.5C 33.3923,140.154 32.8923,141.821 32.5,143.5C 27.1667,143.5 21.8333,143.5 16.5,143.5C 16.2865,141.856 16.6198,140.356 17.5,139C 16.3279,138.581 15.3279,137.915 14.5,137C 16.441,133.965 18.6076,131.798 21,130.5C 21.3333,131.167 21.6667,131.833 22,132.5C 22.9025,131.299 24.0692,130.465 25.5,130C 26.8333,129.333 26.8333,128.667 25.5,128C 26.646,127.355 27.646,126.522 28.5,125.5C 29.451,126.326 30.451,126.492 31.5,126C 30.4829,124.951 30.3162,123.784 31,122.5C 31.6667,123.833 32.3333,123.833 33,122.5C 35.037,118.631 36.7036,114.964 38,111.5C 39,111.167 40,110.833 41,110.5C 43.4686,107.241 43.6352,104.074 41.5,101C 42.8333,98.6667 42.8333,96.3333 41.5,94C 43.8907,87.2138 48.724,83.7138 56,83.5C 58.9643,81.5106 61.7976,79.344 64.5,77C 63.2888,76.1072 63.2888,75.2739 64.5,74.5C 65.5272,75.7914 66.5272,75.7914 67.5,74.5 Z"/></g>
<g><path style="opacity:1" fill="#433b42" d="M 168.5,116.5 C 168.5,117.5 168.5,118.5 168.5,119.5C 167.855,121.826 166.522,123.493 164.5,124.5C 165.289,123.085 165.956,121.585 166.5,120C 166.164,118.97 165.497,118.47 164.5,118.5C 164.5,118.167 164.5,117.833 164.5,117.5C 164.833,117.5 165.167,117.5 165.5,117.5C 166.609,117.443 167.609,117.11 168.5,116.5 Z"/></g>
<g><path style="opacity:1" fill="#191042" d="M 243.5,114.5 C 243.5,119.5 243.5,124.5 243.5,129.5C 241.305,128.392 239.305,128.559 237.5,130C 233.621,134.374 229.954,138.874 226.5,143.5C 225.167,143.5 223.833,143.5 222.5,143.5C 222.954,140.86 224.121,138.527 226,136.5C 232.925,129.774 238.758,122.441 243.5,114.5 Z"/></g>
<g><path style="opacity:1" fill="#283b44" d="M 73.5,83.5 C 74.7007,85.9095 76.3674,87.9095 78.5,89.5C 78.5,89.8333 78.5,90.1667 78.5,90.5C 75.732,91.0062 73.232,92.6729 71,95.5C 69.8173,94.269 68.6507,94.269 67.5,95.5C 67.7093,96.086 68.0426,96.586 68.5,97C 65.7013,98.5556 64.7013,100.722 65.5,103.5C 62.957,106.542 63.2903,109.375 66.5,112C 65.572,112.388 64.9054,113.055 64.5,114C 65.3295,115.465 65.4962,116.965 65,118.5C 64.2588,119.641 63.4255,119.641 62.5,118.5C 60.1421,120.024 58.3088,122.024 57,124.5C 56.1072,123.289 55.2739,123.289 54.5,124.5C 55.3107,127.552 55.3107,130.385 54.5,133C 52.7928,133.195 51.1261,133.195 49.5,133C 50.1667,134 50.8333,135 51.5,136C 49.9326,138.741 47.5993,139.908 44.5,139.5C 44.5,140.5 44.5,141.5 44.5,142.5C 43.209,142.263 42.209,142.596 41.5,143.5C 38.5,143.5 35.5,143.5 32.5,143.5C 32.8923,141.821 33.3923,140.154 34,138.5C 34.6667,137.167 35.3333,137.167 36,138.5C 36.9473,135.33 39.114,132.663 42.5,130.5C 41.8728,129.583 41.5394,128.583 41.5,127.5C 42.9669,128.292 44.3002,128.292 45.5,127.5C 46.5414,125.415 48.0414,123.748 50,122.5C 50.9734,120.608 51.6401,118.608 52,116.5C 53.5218,114.978 55.0218,113.478 56.5,112C 56.3552,111.228 56.0219,110.561 55.5,110C 57.0441,109.71 58.3774,109.044 59.5,108C 58.5336,105.901 57.2003,104.068 55.5,102.5C 55.8299,99.8275 56.1632,97.1608 56.5,94.5C 58.6048,93.1006 60.4381,91.4339 62,89.5C 64.2354,90.2393 66.2354,90.2393 68,89.5C 70.7773,88.2289 72.6106,86.2289 73.5,83.5 Z"/></g>
<g><path style="opacity:1" fill="#eeeae9" d="M 128.5,129.5 C 130.216,133.972 130.882,138.638 130.5,143.5C 127.167,143.5 123.833,143.5 120.5,143.5C 120.5,143.167 120.5,142.833 120.5,142.5C 123.142,142.512 124.475,141.179 124.5,138.5C 125.038,136.883 125.371,135.216 125.5,133.5C 125.5,133.167 125.5,132.833 125.5,132.5C 125.795,130.265 125.461,128.265 124.5,126.5C 122.66,120.273 120.327,114.273 117.5,108.5C 117.369,107.761 117.536,107.094 118,106.5C 122.176,113.862 125.676,121.528 128.5,129.5 Z"/></g>
<g><path style="opacity:1" fill="#82a3e1" d="M 198.5,116.5 C 198.611,120.095 198.278,123.762 197.5,127.5C 197.679,130.191 198.679,132.525 200.5,134.5C 199.108,136.845 198.775,139.178 199.5,141.5C 199.167,142.167 198.833,142.833 198.5,143.5C 196.5,143.5 194.5,143.5 192.5,143.5C 193.509,142.061 193.176,140.728 191.5,139.5C 193.331,132.178 195.164,124.845 197,117.5C 197.383,116.944 197.883,116.611 198.5,116.5 Z"/></g>
<g><path style="opacity:1" fill="#ad5328" d="M 162.5,118.5 C 163.167,118.5 163.833,118.5 164.5,118.5C 165.497,118.47 166.164,118.97 166.5,120C 165.956,121.585 165.289,123.085 164.5,124.5C 162.833,124.5 161.167,124.5 159.5,124.5C 159.351,123.448 159.517,122.448 160,121.5C 163.094,122.569 163.927,121.569 162.5,118.5 Z"/></g>
<g><path style="opacity:1" fill="#c0897f" d="M 162.5,118.5 C 163.927,121.569 163.094,122.569 160,121.5C 159.517,122.448 159.351,123.448 159.5,124.5C 158.778,124.918 158.278,125.584 158,126.5C 156.13,124.752 154.963,122.585 154.5,120C 156.74,116.266 159.407,115.766 162.5,118.5 Z"/></g>
<g><path style="opacity:1" fill="#504345" d="M 159.5,124.5 C 161.167,124.5 162.833,124.5 164.5,124.5C 163.71,125.401 162.71,126.068 161.5,126.5C 160.833,126.5 160.167,126.5 159.5,126.5C 159.5,125.833 159.5,125.167 159.5,124.5 Z"/></g>
<g><path style="opacity:1" fill="#eceef1" d="M 106.5,125.5 C 107.239,125.369 107.906,125.536 108.5,126C 106.171,128.826 104.504,131.992 103.5,135.5C 101.733,137.938 100.399,140.605 99.5,143.5C 98.5,143.5 97.5,143.5 96.5,143.5C 98.1787,137.143 101.179,131.476 105.5,126.5C 105.5,125.833 105.833,125.5 106.5,125.5 Z"/></g>
<g><path style="opacity:1" fill="#8eb4e2" d="M 106.5,125.5 C 111.961,124.742 117.461,125.409 123,127.5C 123.765,127.43 124.265,127.097 124.5,126.5C 125.461,128.265 125.795,130.265 125.5,132.5C 117.836,130.744 110.503,131.744 103.5,135.5C 104.504,131.992 106.171,128.826 108.5,126C 107.906,125.536 107.239,125.369 106.5,125.5 Z"/></g>
<g><path style="opacity:1" fill="#7892d6" d="M 206.5,112.5 C 206.5,113.833 206.5,115.167 206.5,116.5C 206.034,121.43 206.701,126.097 208.5,130.5C 205.848,134.482 202.848,138.149 199.5,141.5C 198.775,139.178 199.108,136.845 200.5,134.5C 198.679,132.525 197.679,130.191 197.5,127.5C 198.278,123.762 198.611,120.095 198.5,116.5C 199.873,116.657 201.207,116.49 202.5,116C 203.384,114.28 204.717,113.114 206.5,112.5 Z"/></g>
<g><path style="opacity:1" fill="#ba9198" d="M 157.5,128.5 C 155.909,131.431 153.909,134.098 151.5,136.5C 151.624,137.107 151.957,137.44 152.5,137.5C 152.5,137.833 152.5,138.167 152.5,138.5C 152.167,138.5 151.833,138.5 151.5,138.5C 150.493,134.338 148.16,133.505 144.5,136C 143.584,136.374 142.75,136.874 142,137.5C 141.505,139.473 141.338,141.473 141.5,143.5C 140.833,143.5 140.167,143.5 139.5,143.5C 139.665,139.818 139.499,136.152 139,132.5C 137.108,134.887 135.942,137.553 135.5,140.5C 135.421,136.798 135.754,133.132 136.5,129.5C 133.577,125.761 133.91,122.427 137.5,119.5C 140.272,121.921 143.106,124.254 146,126.5C 147.786,124.326 149.953,123.16 152.5,123C 153.762,125.276 155.429,127.109 157.5,128.5 Z"/></g>
<g><path style="opacity:1" fill="#7766c3" d="M 217.5,131.5 C 214.833,135.5 212.167,139.5 209.5,143.5C 205.833,143.5 202.167,143.5 198.5,143.5C 198.833,142.833 199.167,142.167 199.5,141.5C 202.848,138.149 205.848,134.482 208.5,130.5C 209.479,129.235 210.479,127.901 211.5,126.5C 213.519,128.19 215.519,129.856 217.5,131.5 Z"/></g>
<g><path style="opacity:1" fill="#7a7acb" d="M 212.5,106.5 C 212.334,111.511 212.501,116.511 213,121.5C 214.29,123.792 215.957,125.792 218,127.5C 218.579,128.928 218.412,130.262 217.5,131.5C 215.519,129.856 213.519,128.19 211.5,126.5C 210.479,127.901 209.479,129.235 208.5,130.5C 206.701,126.097 206.034,121.43 206.5,116.5C 207.058,114.407 208.391,112.907 210.5,112C 210.167,111.667 209.833,111.333 209.5,111C 210.897,109.69 211.897,108.19 212.5,106.5 Z"/></g>
<g><path style="opacity:1" fill="#bd909e" d="M 168.5,119.5 C 169.931,119.881 170.764,120.881 171,122.5C 171.956,121.106 173.289,120.439 175,120.5C 178.821,121.667 182.654,122.667 186.5,123.5C 184.052,130.397 181.052,137.064 177.5,143.5C 173.833,143.5 170.167,143.5 166.5,143.5C 168.844,142.197 170.844,140.364 172.5,138C 173.793,137.51 175.127,137.343 176.5,137.5C 176.5,135.5 176.5,133.5 176.5,131.5C 175.5,131.5 174.5,131.5 173.5,131.5C 173.719,132.675 173.386,133.675 172.5,134.5C 169.972,136.874 166.972,137.874 163.5,137.5C 163.719,138.675 163.386,139.675 162.5,140.5C 160.081,140.914 158.081,141.914 156.5,143.5C 155.5,143.5 154.5,143.5 153.5,143.5C 155.081,141.858 155.747,139.858 155.5,137.5C 157.216,133.74 159.216,130.073 161.5,126.5C 162.71,126.068 163.71,125.401 164.5,124.5C 166.522,123.493 167.855,121.826 168.5,119.5 Z"/></g>
<g><path style="opacity:1" fill="#7192b6" d="M 125.5,132.5 C 125.5,132.833 125.5,133.167 125.5,133.5C 118.613,131.593 112.279,132.593 106.5,136.5C 104.588,138.657 102.921,140.991 101.5,143.5C 100.833,143.5 100.167,143.5 99.5,143.5C 100.399,140.605 101.733,137.938 103.5,135.5C 110.503,131.744 117.836,130.744 125.5,132.5 Z"/></g>
<g><path style="opacity:1" fill="#9dbae9" d="M 200.5,104.5 C 200.33,105.822 200.663,106.989 201.5,108C 199.665,108.928 199.332,110.094 200.5,111.5C 199.544,113.075 198.877,114.742 198.5,116.5C 197.883,116.611 197.383,116.944 197,117.5C 195.164,124.845 193.331,132.178 191.5,139.5C 193.176,140.728 193.509,142.061 192.5,143.5C 189.5,143.5 186.5,143.5 183.5,143.5C 189.39,130.46 195.057,117.46 200.5,104.5 Z"/></g>
<g><path style="opacity:1" fill="#372552" d="M 253.5,143.5 C 250.167,143.5 246.833,143.5 243.5,143.5C 243.5,140.5 243.5,137.5 243.5,134.5C 247.107,132.396 250.274,129.729 253,126.5C 253.499,132.157 253.666,137.824 253.5,143.5 Z"/></g>
<g><path style="opacity:1" fill="#5a7c95" d="M 125.5,133.5 C 125.371,135.216 125.038,136.883 124.5,138.5C 124.167,138.5 123.833,138.5 123.5,138.5C 121.155,135.925 118.155,134.925 114.5,135.5C 111.833,135.833 109.167,136.167 106.5,136.5C 112.279,132.593 118.613,131.593 125.5,133.5 Z"/></g>
<g><path style="opacity:1" fill="#829fcd" d="M 159.5,126.5 C 160.167,126.5 160.833,126.5 161.5,126.5C 159.216,130.073 157.216,133.74 155.5,137.5C 154.5,137.5 153.5,137.5 152.5,137.5C 151.957,137.44 151.624,137.107 151.5,136.5C 153.909,134.098 155.909,131.431 157.5,128.5C 158.5,128.167 159.167,127.5 159.5,126.5 Z"/></g>
<g><path style="opacity:1" fill="#d3b1bd" d="M 166.5,143.5 C 163.167,143.5 159.833,143.5 156.5,143.5C 158.081,141.914 160.081,140.914 162.5,140.5C 163.386,139.675 163.719,138.675 163.5,137.5C 166.972,137.874 169.972,136.874 172.5,134.5C 173.386,133.675 173.719,132.675 173.5,131.5C 174.5,131.5 175.5,131.5 176.5,131.5C 176.5,133.5 176.5,135.5 176.5,137.5C 175.127,137.343 173.793,137.51 172.5,138C 170.844,140.364 168.844,142.197 166.5,143.5 Z"/></g>
<g><path style="opacity:1" fill="#281252" d="M 243.5,129.5 C 243.5,131.167 243.5,132.833 243.5,134.5C 243.5,137.5 243.5,140.5 243.5,143.5C 237.833,143.5 232.167,143.5 226.5,143.5C 229.954,138.874 233.621,134.374 237.5,130C 239.305,128.559 241.305,128.392 243.5,129.5 Z"/></g>
<g><path style="opacity:1" fill="#696f8c" d="M 114.5,135.5 C 111.48,137.523 109.146,140.19 107.5,143.5C 105.5,143.5 103.5,143.5 101.5,143.5C 102.921,140.991 104.588,138.657 106.5,136.5C 109.167,136.167 111.833,135.833 114.5,135.5 Z"/></g>
<g><path style="opacity:1" fill="#16242d" d="M 114.5,135.5 C 118.155,134.925 121.155,135.925 123.5,138.5C 121.738,139.262 120.738,140.596 120.5,142.5C 120.5,142.833 120.5,143.167 120.5,143.5C 116.167,143.5 111.833,143.5 107.5,143.5C 109.146,140.19 111.48,137.523 114.5,135.5 Z"/></g>
<g><path style="opacity:1" fill="#c97b2a" d="M 123.5,138.5 C 123.833,138.5 124.167,138.5 124.5,138.5C 124.475,141.179 123.142,142.512 120.5,142.5C 120.738,140.596 121.738,139.262 123.5,138.5 Z"/></g>
<g><path style="opacity:1" fill="#f4ecee" d="M 139.5,143.5 C 138.167,143.5 136.833,143.5 135.5,143.5C 135.5,142.5 135.5,141.5 135.5,140.5C 135.942,137.553 137.108,134.887 139,132.5C 139.499,136.152 139.665,139.818 139.5,143.5 Z"/></g>
<g><path style="opacity:1" fill="#cd9887" d="M 151.5,138.5 C 151.18,142.084 150.013,142.751 148,140.5C 147.517,141.448 147.351,142.448 147.5,143.5C 145.5,143.5 143.5,143.5 141.5,143.5C 141.338,141.473 141.505,139.473 142,137.5C 142.75,136.874 143.584,136.374 144.5,136C 148.16,133.505 150.493,134.338 151.5,138.5 Z"/></g>
<g><path style="opacity:1" fill="#352f31" d="M 152.5,138.5 C 152.5,138.167 152.5,137.833 152.5,137.5C 153.5,137.5 154.5,137.5 155.5,137.5C 155.747,139.858 155.081,141.858 153.5,143.5C 153.167,143.5 152.833,143.5 152.5,143.5C 152.703,141.956 153.37,140.622 154.5,139.5C 154.043,138.702 153.376,138.369 152.5,138.5 Z"/></g>
<g><path style="opacity:1" fill="#c06329" d="M 151.5,138.5 C 151.833,138.5 152.167,138.5 152.5,138.5C 153.376,138.369 154.043,138.702 154.5,139.5C 153.37,140.622 152.703,141.956 152.5,143.5C 150.833,143.5 149.167,143.5 147.5,143.5C 147.351,142.448 147.517,141.448 148,140.5C 150.013,142.751 151.18,142.084 151.5,138.5 Z"/></g>
</svg>
