<?xml version="1.0" encoding="UTF-8"?>
<!DOCTYPE svg PUBLIC "-//W3C//DTD SVG 1.1//EN" "http://www.w3.org/Graphics/SVG/1.1/DTD/svg11.dtd">
<svg xmlns="http://www.w3.org/2000/svg" version="1.1" width="256px" height="144px" style="shape-rendering:geometricPrecision; text-rendering:geometricPrecision; image-rendering:optimizeQuality; fill-rule:evenodd; clip-rule:evenodd" xmlns:xlink="http://www.w3.org/1999/xlink">
<g><path style="opacity:1" fill="#030406" d="M -0.5,0.5 C -0.5,0.166667 -0.5,-0.166667 -0.5,-0.5C 84.8333,-0.5 170.167,-0.5 255.5,-0.5C 255.5,7.16667 255.5,14.8333 255.5,22.5C 253.83,22.2488 252.33,21.5822 251,20.5C 249.215,21.2401 247.382,21.9067 245.5,22.5C 242.972,21.5022 242.972,20.6689 245.5,20C 243.804,18.7336 241.971,18.9003 240,20.5C 238.383,19.4642 238.216,18.2975 239.5,17C 236.105,16.7697 232.939,17.6031 230,19.5C 229.072,17.6652 227.906,17.3318 226.5,18.5C 224.032,17.1971 221.699,15.6971 219.5,14C 220.167,13.6667 220.833,13.3333 221.5,13C 220,12.1667 218.833,11 218,9.5C 215.031,9.5194 211.865,9.68606 208.5,10C 208,10.5 207.5,11 207,11.5C 203.386,9.47974 199.553,8.14641 195.5,7.5C 194.534,4.53136 192.867,2.19803 190.5,0.5C 189.448,0.350549 188.448,0.517215 187.5,1C 189.74,4.47414 191.406,8.14081 192.5,12C 191.968,15.749 190.968,19.249 189.5,22.5C 185.411,19.9168 181.744,16.7501 178.5,13C 176.35,11.5886 174.016,10.7553 171.5,10.5C 167.466,8.03581 162.966,7.03581 158,7.5C 152.825,7.08213 147.992,8.08213 143.5,10.5C 139.977,8.12673 137.977,4.79339 137.5,0.5C 136.167,0.5 134.833,0.5 133.5,0.5C 131.833,0.5 130.167,0.5 128.5,0.5C 128.167,0.5 127.833,0.5 127.5,0.5C 125.833,0.5 124.167,0.5 122.5,0.5C 121.167,0.5 119.833,0.5 118.5,0.5C 117.833,0.5 117.167,0.5 116.5,0.5C 111.167,0.5 105.833,0.5 100.5,0.5C 100.167,0.5 99.8333,0.5 99.5,0.5C 96.1667,0.5 92.8333,0.5 89.5,0.5C 88.8826,0.610709 88.3826,0.944043 88,1.5C 87.2687,5.56523 86.4353,9.56523 85.5,13.5C 84.5416,13.9528 83.7083,14.6195 83,15.5C 77.1431,14.9607 71.4764,13.6274 66,11.5C 64.8831,11.6651 63.7164,11.9984 62.5,12.5C 60.8427,8.63905 59.3427,8.63905 58,12.5C 54.3893,11.1369 50.8893,9.47027 47.5,7.5C 44.1043,7.64401 41.4376,9.47735 39.5,13C 38.5,13.5 37.5,14 36.5,14.5C 33.658,11.7167 31.158,12.0501 29,15.5C 25.105,12.2165 22.605,8.04986 21.5,3C 17.1794,2.50098 12.8461,2.33432 8.5,2.5C 6.01215,0.612165 3.01215,-0.054502 -0.5,0.5 Z"/></g>
<g><path style="opacity:1" fill="#090b11" d="M 8.5,2.5 C 12.8461,2.33432 17.1794,2.50098 21.5,3C 22.605,8.04986 25.105,12.2165 29,15.5C 31.158,12.0501 33.658,11.7167 36.5,14.5C 37.5,14 38.5,13.5 39.5,13C 41.4376,9.47735 44.1043,7.64401 47.5,7.5C 50.8893,9.47027 54.3893,11.1369 58,12.5C 59.3427,8.63905 60.8427,8.63905 62.5,12.5C 63.7164,11.9984 64.8831,11.6651 66,11.5C 71.4764,13.6274 77.1431,14.9607 83,15.5C 83.7083,14.6195 84.5416,13.9528 85.5,13.5C 85.0925,18.5368 84.4258,23.5368 83.5,28.5C 81.2655,27.9514 78.9322,28.2848 76.5,29.5C 75.6143,28.675 75.281,27.675 75.5,26.5C 69.4749,25.3276 63.6416,25.9942 58,28.5C 55.7172,26.4266 53.0506,25.0933 50,24.5C 48.134,25.6046 45.9674,25.6046 43.5,24.5C 40.9722,24.7628 38.6389,25.5961 36.5,27C 35.1667,27.6667 35.1667,28.3333 36.5,29C 35.1011,29.5946 33.7678,29.4279 32.5,28.5C 31.8076,29.0253 31.3076,29.6919 31,30.5C 30.2588,29.3595 29.4255,29.3595 28.5,30.5C 27.3279,30.0814 26.3279,29.4147 25.5,28.5C 24.4634,25.2966 22.7968,22.4633 20.5,20C 17.495,19.467 14.8283,18.3004 12.5,16.5C 10.287,12.1122 8.95363,7.44556 8.5,2.5 Z"/></g>
<g><path style="opacity:1" fill="#6896d7" d="M 116.5,0.5 C 117.167,0.5 117.833,0.5 118.5,0.5C 117.581,3.08917 115.914,5.08917 113.5,6.5C 114.5,4.5 115.5,2.5 116.5,0.5 Z"/></g>
<g><path style="opacity:1" fill="#303e48" d="M 99.5,0.5 C 99.8333,0.5 100.167,0.5 100.5,0.5C 99.3374,7.48175 98.3374,14.4818 97.5,21.5C 96.5655,22.5676 96.2322,23.901 96.5,25.5C 95.9787,17.1617 96.9787,8.8284 99.5,0.5 Z"/></g>
<g><path style="opacity:1" fill="#070816" d="M 128.5,0.5 C 130.167,0.5 131.833,0.5 133.5,0.5C 134.821,5.14872 137.154,9.14872 140.5,12.5C 139.5,13.1667 138.5,13.8333 137.5,14.5C 135.412,15.9395 133.079,16.6061 130.5,16.5C 130.007,13.1879 129.007,10.0212 127.5,7C 128.287,4.90115 128.62,2.73448 128.5,0.5 Z"/></g>
<g><path style="opacity:1" fill="#718fb0" d="M 133.5,0.5 C 134.833,0.5 136.167,0.5 137.5,0.5C 137.977,4.79339 139.977,8.12673 143.5,10.5C 142.71,11.4013 141.71,12.0679 140.5,12.5C 137.154,9.14872 134.821,5.14872 133.5,0.5 Z"/></g>
<g><path style="opacity:1" fill="#4469bf" d="M 122.5,0.5 C 124.167,0.5 125.833,0.5 127.5,0.5C 126.65,7.79852 126.317,15.1319 126.5,22.5C 125.833,15.6553 125.167,8.65532 124.5,1.5C 123.658,5.07196 122.658,8.57196 121.5,12C 122.138,15.0707 122.138,18.2374 121.5,21.5C 120.603,24.1643 119.27,26.4976 117.5,28.5C 117.216,26.5853 117.549,24.9187 118.5,23.5C 120.287,20.5911 120.621,17.5911 119.5,14.5C 120.207,11.2139 120.54,7.88055 120.5,4.5C 121.167,3.16667 121.833,1.83333 122.5,0.5 Z"/></g>
<g><path style="opacity:1" fill="#06070b" d="M 195.5,7.5 C 199.553,8.14641 203.386,9.47974 207,11.5C 207.5,11 208,10.5 208.5,10C 211.865,9.68606 215.031,9.5194 218,9.5C 218.833,11 220,12.1667 221.5,13C 220.833,13.3333 220.167,13.6667 219.5,14C 221.699,15.6971 224.032,17.1971 226.5,18.5C 227.906,17.3318 229.072,17.6652 230,19.5C 232.939,17.6031 236.105,16.7697 239.5,17C 238.216,18.2975 238.383,19.4642 240,20.5C 241.971,18.9003 243.804,18.7336 245.5,20C 242.972,20.6689 242.972,21.5022 245.5,22.5C 247.382,21.9067 249.215,21.2401 251,20.5C 252.33,21.5822 253.83,22.2488 255.5,22.5C 255.5,33.8333 255.5,45.1667 255.5,56.5C 248.997,55.5217 242.831,52.855 237,48.5C 235.542,49.7468 234.042,49.7468 232.5,48.5C 231.808,49.0253 231.308,49.6919 231,50.5C 225.992,48.4958 221.492,45.6625 217.5,42C 216.216,41.3162 215.049,41.4829 214,42.5C 211.394,41.2702 209.227,39.6035 207.5,37.5C 206.87,35.2504 205.87,33.2504 204.5,31.5C 202.105,23.2377 199.105,15.2377 195.5,7.5 Z"/></g>
<g><path style="opacity:1" fill="#d6f1f9" d="M 171.5,10.5 C 166.265,10.6573 160.932,10.824 155.5,11C 150.743,13.0138 146.41,15.5138 142.5,18.5C 140.938,18.2671 139.605,17.6005 138.5,16.5C 138.167,16.5 137.833,16.5 137.5,16.5C 137.5,15.8333 137.5,15.1667 137.5,14.5C 138.5,13.8333 139.5,13.1667 140.5,12.5C 141.71,12.0679 142.71,11.4013 143.5,10.5C 147.992,8.08213 152.825,7.08213 158,7.5C 162.966,7.03581 167.466,8.03581 171.5,10.5 Z"/></g>
<g><path style="opacity:1" fill="#6590eb" d="M 171.5,10.5 C 171.833,11.1667 172.167,11.8333 172.5,12.5C 172.5,12.8333 172.5,13.1667 172.5,13.5C 171.5,13.5 170.5,13.5 169.5,13.5C 164.534,12.4056 159.534,12.5722 154.5,14C 150.613,16.0474 146.613,17.8807 142.5,19.5C 142.5,19.1667 142.5,18.8333 142.5,18.5C 146.41,15.5138 150.743,13.0138 155.5,11C 160.932,10.824 166.265,10.6573 171.5,10.5 Z"/></g>
<g><path style="opacity:1" fill="#4b6785" d="M 127.5,0.5 C 127.833,0.5 128.167,0.5 128.5,0.5C 128.62,2.73448 128.287,4.90115 127.5,7C 129.007,10.0212 130.007,13.1879 130.5,16.5C 133.079,16.6061 135.412,15.9395 137.5,14.5C 137.5,15.1667 137.5,15.8333 137.5,16.5C 136.167,17.1667 134.833,17.8333 133.5,18.5C 132.207,17.3552 131.041,17.6885 130,19.5C 129.506,21.1341 129.34,22.8008 129.5,24.5C 128.222,24.2178 127.222,23.5511 126.5,22.5C 126.317,15.1319 126.65,7.79852 127.5,0.5 Z"/></g>
<g><path style="opacity:1" fill="#1f3d89" d="M 120.5,4.5 C 120.54,7.88055 120.207,11.2139 119.5,14.5C 118.659,16.3792 118.325,18.3792 118.5,20.5C 117.05,21.6576 116.05,21.1576 115.5,19C 113.527,18.5045 111.527,18.3379 109.5,18.5C 111.091,17.7811 112.591,16.7811 114,15.5C 114.127,10.5719 116.294,6.90526 120.5,4.5 Z"/></g>
<g><path style="opacity:1" fill="#1a2b4a" d="M 190.5,0.5 C 191.784,3.40178 192.784,6.40178 193.5,9.5C 194.32,14.6626 195.32,19.8292 196.5,25C 196.472,26.0698 196.139,26.9032 195.5,27.5C 193.5,25.8333 191.5,24.1667 189.5,22.5C 190.968,19.249 191.968,15.749 192.5,12C 191.406,8.14081 189.74,4.47414 187.5,1C 188.448,0.517215 189.448,0.350549 190.5,0.5 Z"/></g>
<g><path style="opacity:1" fill="#9dcaef" d="M 119.5,14.5 C 120.621,17.5911 120.287,20.5911 118.5,23.5C 118.5,22.5 118.5,21.5 118.5,20.5C 118.325,18.3792 118.659,16.3792 119.5,14.5 Z"/></g>
<g><path style="opacity:1" fill="#2d3740" d="M 89.5,33.5 C 88.5206,30.3752 88.1872,27.0419 88.5,23.5C 89.3396,16.124 90.5062,8.79068 92,1.5C 92.0792,12.2308 91.2459,22.8974 89.5,33.5 Z"/></g>
<g><path style="opacity:1" fill="#809ab8" d="M 138.5,16.5 C 139.605,17.6005 140.938,18.2671 142.5,18.5C 142.5,18.8333 142.5,19.1667 142.5,19.5C 141.833,19.5 141.167,19.5 140.5,19.5C 139.883,19.6107 139.383,19.944 139,20.5C 138.51,19.2068 138.343,17.8734 138.5,16.5 Z"/></g>
<g><path style="opacity:1" fill="#b5dcef" d="M 171.5,10.5 C 174.016,10.7553 176.35,11.5886 178.5,13C 181.744,16.7501 185.411,19.9168 189.5,22.5C 191.5,24.1667 193.5,25.8333 195.5,27.5C 195.833,28.1667 196.167,28.8333 196.5,29.5C 195.167,29.1667 193.833,28.8333 192.5,28.5C 186.704,22.0335 180.038,16.7002 172.5,12.5C 172.167,11.8333 171.833,11.1667 171.5,10.5 Z"/></g>
<g><path style="opacity:1" fill="#3264d9" d="M 126.5,22.5 C 126.247,24.8273 126.914,26.8273 128.5,28.5C 123.804,29.0417 121.471,26.7084 121.5,21.5C 122.138,18.2374 122.138,15.0707 121.5,12C 122.658,8.57196 123.658,5.07196 124.5,1.5C 125.167,8.65532 125.833,15.6553 126.5,22.5 Z"/></g>
<g><path style="opacity:1" fill="#474657" d="M 137.5,16.5 C 137.833,16.5 138.167,16.5 138.5,16.5C 138.343,17.8734 138.51,19.2068 139,20.5C 139.383,19.944 139.883,19.6107 140.5,19.5C 140.5,20.8333 140.5,22.1667 140.5,23.5C 139.206,22.7101 138.039,21.7101 137,20.5C 134.667,24.662 135.5,27.9953 139.5,30.5C 139.433,31.9587 139.766,33.2921 140.5,34.5C 136.584,32.8028 134.25,29.8028 133.5,25.5C 133.772,23.1055 133.772,20.7722 133.5,18.5C 134.833,17.8333 136.167,17.1667 137.5,16.5 Z"/></g>
<g><path style="opacity:1" fill="#708ebb" d="M 133.5,18.5 C 133.772,20.7722 133.772,23.1055 133.5,25.5C 132.609,24.8902 131.609,24.5569 130.5,24.5C 130.167,24.5 129.833,24.5 129.5,24.5C 129.34,22.8008 129.506,21.1341 130,19.5C 131.041,17.6885 132.207,17.3552 133.5,18.5 Z"/></g>
<g><path style="opacity:1" fill="#4b76e6" d="M 169.5,17.5 C 170.222,17.9175 170.722,18.5842 171,19.5C 172.182,28.7964 172.682,38.1297 172.5,47.5C 171.883,47.6107 171.383,47.944 171,48.5C 170.182,43.2063 169.682,43.2063 169.5,48.5C 168.732,47.7375 168.232,46.7375 168,45.5C 166.098,50.7647 162.598,51.9313 157.5,49C 155.944,46.3055 154.278,43.8055 152.5,41.5C 152.564,39.4599 152.731,37.1266 153,34.5C 155.653,34.0335 158.487,33.2002 161.5,32C 162.337,30.9887 162.67,29.8221 162.5,28.5C 163.552,28.6495 164.552,28.4828 165.5,28C 163.113,26.64 161.613,24.8067 161,22.5C 162.507,21.4954 163.673,20.162 164.5,18.5C 166.884,21.2566 168.551,20.9233 169.5,17.5 Z"/></g>
<g><path style="opacity:1" fill="#1a2445" d="M -0.5,0.5 C 3.01215,-0.054502 6.01215,0.612165 8.5,2.5C 8.95363,7.44556 10.287,12.1122 12.5,16.5C 11.3509,16.7911 10.6842,17.6244 10.5,19C 12.8974,26.6984 15.5641,34.1984 18.5,41.5C 18.5,42.1667 18.5,42.8333 18.5,43.5C 20.3232,48.4643 21.9898,53.4643 23.5,58.5C 22.1667,58.5 20.8333,58.5 19.5,58.5C 19.6238,54.4153 18.6238,50.7486 16.5,47.5C 14.7881,42.6824 13.4547,37.6824 12.5,32.5C 11.1667,30.5 9.5,28.8333 7.5,27.5C 6.67009,21.8624 6.17009,16.1958 6,10.5C 4.89887,8.60607 3.56554,7.9394 2,8.5C 1.50115,12.4862 1.33449,16.4862 1.5,20.5C 1.15829,21.3382 0.491622,21.6716 -0.5,21.5C -0.5,14.5 -0.5,7.5 -0.5,0.5 Z"/></g>
<g><path style="opacity:1" fill="#223e78" d="M 109.5,18.5 C 111.527,18.3379 113.527,18.5045 115.5,19C 116.05,21.1576 117.05,21.6576 118.5,20.5C 118.5,21.5 118.5,22.5 118.5,23.5C 117.549,24.9187 117.216,26.5853 117.5,28.5C 116.662,28.8417 116.328,29.5084 116.5,30.5C 114.436,30.2381 113.103,29.0714 112.5,27C 111.552,26.5172 110.552,26.3505 109.5,26.5C 109.5,24.5 109.5,22.5 109.5,20.5C 109.5,19.8333 109.5,19.1667 109.5,18.5 Z"/></g>
<g><path style="opacity:1" fill="#b5d2ed" d="M 190.5,0.5 C 192.867,2.19803 194.534,4.53136 195.5,7.5C 199.105,15.2377 202.105,23.2377 204.5,31.5C 204.717,34.4353 205.383,37.2687 206.5,40C 206.472,41.0698 206.139,41.9032 205.5,42.5C 204.869,39.2984 203.869,36.2984 202.5,33.5C 202.672,32.5084 202.338,31.8417 201.5,31.5C 200.127,26.6437 198.461,21.9771 196.5,17.5C 196.02,14.5568 195.02,11.8902 193.5,9.5C 192.784,6.40178 191.784,3.40178 190.5,0.5 Z"/></g>
<g><path style="opacity:1" fill="#10121b" d="M 12.5,16.5 C 14.8283,18.3004 17.495,19.467 20.5,20C 22.7968,22.4633 24.4634,25.2966 25.5,28.5C 26.3279,29.4147 27.3279,30.0814 28.5,30.5C 29.4255,29.3595 30.2588,29.3595 31,30.5C 31.3076,29.6919 31.8076,29.0253 32.5,28.5C 33.7678,29.4279 35.1011,29.5946 36.5,29C 35.1667,28.3333 35.1667,27.6667 36.5,27C 38.6389,25.5961 40.9722,24.7628 43.5,24.5C 45.9674,25.6046 48.134,25.6046 50,24.5C 53.0506,25.0933 55.7172,26.4266 58,28.5C 63.6416,25.9942 69.4749,25.3276 75.5,26.5C 75.281,27.675 75.6143,28.675 76.5,29.5C 78.9322,28.2848 81.2655,27.9514 83.5,28.5C 82.962,30.1172 82.6287,31.7839 82.5,33.5C 77.0758,32.4827 71.5758,32.8161 66,34.5C 64.6667,33.8333 63.3333,33.1667 62,32.5C 59.5627,33.8001 57.0627,34.8001 54.5,35.5C 54.5,34.1667 54.5,32.8333 54.5,31.5C 52.2341,31.8588 50.4007,31.1922 49,29.5C 46.3333,30.8333 43.6667,30.8333 41,29.5C 39.3335,32.1407 37.1668,34.3074 34.5,36C 31.0913,35.7655 27.758,35.9322 24.5,36.5C 24.6602,34.8008 24.4935,33.1341 24,31.5C 21.5255,30.0142 19.0255,28.6808 16.5,27.5C 15.1681,23.8382 13.8348,20.1715 12.5,16.5 Z"/></g>
<g><path style="opacity:1" fill="#0e142c" d="M 100.5,0.5 C 105.833,0.5 111.167,0.5 116.5,0.5C 115.5,2.5 114.5,4.5 113.5,6.5C 109.555,9.70885 106.055,13.3755 103,17.5C 102.294,21.8868 102.46,26.2201 103.5,30.5C 102.099,34.1681 101.432,38.0014 101.5,42C 102.253,48.6332 102.92,55.1332 103.5,61.5C 102.821,69.921 99.1543,76.5877 92.5,81.5C 93.713,78.7746 95.5464,76.4412 98,74.5C 100.21,60.5861 100.877,46.5861 100,32.5C 99.7585,28.5698 98.9251,24.9032 97.5,21.5C 98.3374,14.4818 99.3374,7.48175 100.5,0.5 Z"/></g>
<g><path style="opacity:1" fill="#9b1e1b" d="M 140.5,23.5 C 141.329,26.4686 141.495,29.4686 141,32.5C 140.722,31.5842 140.222,30.9175 139.5,30.5C 135.5,27.9953 134.667,24.662 137,20.5C 138.039,21.7101 139.206,22.7101 140.5,23.5 Z"/></g>
<g><path style="opacity:1" fill="#4c6bbc" d="M 196.5,17.5 C 198.461,21.9771 200.127,26.6437 201.5,31.5C 198.321,27.498 196.655,22.8313 196.5,17.5 Z"/></g>
<g><path style="opacity:1" fill="#182a4b" d="M 130.5,25.5 C 131.6,26.6049 132.267,27.9382 132.5,29.5C 132.681,32.553 132.848,35.553 133,38.5C 130.666,34.218 129.833,29.8847 130.5,25.5 Z"/></g>
<g><path style="opacity:1" fill="#284ca3" d="M 140.5,19.5 C 141.167,19.5 141.833,19.5 142.5,19.5C 144.096,23.3568 145.096,27.3568 145.5,31.5C 145.789,34.6492 145.289,37.6492 144,40.5C 143.209,39.255 142.709,37.9217 142.5,36.5C 143.147,35.7261 143.48,34.7261 143.5,33.5C 143.241,29.815 142.241,26.4816 140.5,23.5C 140.5,22.1667 140.5,20.8333 140.5,19.5 Z"/></g>
<g><path style="opacity:1" fill="#3b6be3" d="M 169.5,13.5 C 169.5,14.8333 169.5,16.1667 169.5,17.5C 168.551,20.9233 166.884,21.2566 164.5,18.5C 163.673,20.162 162.507,21.4954 161,22.5C 161.613,24.8067 163.113,26.64 165.5,28C 164.552,28.4828 163.552,28.6495 162.5,28.5C 162.67,29.8221 162.337,30.9887 161.5,32C 158.487,33.2002 155.653,34.0335 153,34.5C 152.731,37.1266 152.564,39.4599 152.5,41.5C 151.127,41.6567 149.793,41.49 148.5,41C 150.923,38.3412 152.256,35.5078 152.5,32.5C 150.257,31.5258 147.924,31.1924 145.5,31.5C 145.096,27.3568 144.096,23.3568 142.5,19.5C 146.613,17.8807 150.613,16.0474 154.5,14C 159.534,12.5722 164.534,12.4056 169.5,13.5 Z"/></g>
<g><path style="opacity:1" fill="#2b467b" d="M 193.5,9.5 C 195.02,11.8902 196.02,14.5568 196.5,17.5C 196.655,22.8313 198.321,27.498 201.5,31.5C 202.338,31.8417 202.672,32.5084 202.5,33.5C 202.433,35.4008 202.767,37.2341 203.5,39C 202.214,41.5691 201.214,44.2358 200.5,47C 200.528,48.0698 200.861,48.9032 201.5,49.5C 200.68,51.1401 199.847,52.8068 199,54.5C 198.825,51.8428 198.992,49.1761 199.5,46.5C 199.277,44.6583 198.943,42.825 198.5,41C 198.844,39.6349 199.511,38.4682 200.5,37.5C 198.321,35.1601 196.987,32.4934 196.5,29.5C 196.167,28.8333 195.833,28.1667 195.5,27.5C 196.139,26.9032 196.472,26.0698 196.5,25C 195.32,19.8292 194.32,14.6626 193.5,9.5 Z"/></g>
<g><path style="opacity:1" fill="#92b7e1" d="M 192.5,28.5 C 193.833,28.8333 195.167,29.1667 196.5,29.5C 196.987,32.4934 198.321,35.1601 200.5,37.5C 199.511,38.4682 198.844,39.6349 198.5,41C 198.943,42.825 199.277,44.6583 199.5,46.5C 198.883,46.6107 198.383,46.944 198,47.5C 197.179,50.5541 197.345,53.5541 198.5,56.5C 199.904,55.0011 200.57,55.3344 200.5,57.5C 199.954,59.1347 199.62,60.8014 199.5,62.5C 199.5,64.1667 199.5,65.8333 199.5,67.5C 198.549,68.9187 198.216,70.5853 198.5,72.5C 197.603,71.4019 196.77,71.4019 196,72.5C 195.517,71.552 195.351,70.552 195.5,69.5C 195.167,69.5 194.833,69.5 194.5,69.5C 194.5,67.8333 194.5,66.1667 194.5,64.5C 193.908,61.8728 193.575,59.2062 193.5,56.5C 194.78,49.0377 194.78,41.7044 193.5,34.5C 193.675,32.3792 193.341,30.3792 192.5,28.5 Z"/></g>
<g><path style="opacity:1" fill="#17265a" d="M 16.5,47.5 C 15.1266,47.3433 13.7932,47.51 12.5,48C 11.1075,50.6659 9.44083,53.1659 7.5,55.5C 6.91898,52.6251 5.91898,49.9585 4.5,47.5C 7.07111,44.1654 7.07111,40.8321 4.5,37.5C 4.9312,36.7065 5.26454,35.8732 5.5,35C 4.75293,30.539 4.25293,26.039 4,21.5C 3.32924,20.7476 2.4959,20.4142 1.5,20.5C 1.33449,16.4862 1.50115,12.4862 2,8.5C 3.56554,7.9394 4.89887,8.60607 6,10.5C 6.17009,16.1958 6.67009,21.8624 7.5,27.5C 9.5,28.8333 11.1667,30.5 12.5,32.5C 13.4547,37.6824 14.7881,42.6824 16.5,47.5 Z"/></g>
<g><path style="opacity:1" fill="#2d5ebb" d="M 118.5,0.5 C 119.833,0.5 121.167,0.5 122.5,0.5C 121.833,1.83333 121.167,3.16667 120.5,4.5C 116.294,6.90526 114.127,10.5719 114,15.5C 112.591,16.7811 111.091,17.7811 109.5,18.5C 109.5,19.1667 109.5,19.8333 109.5,20.5C 107.8,24.0726 108.467,27.2393 111.5,30C 110.978,30.5613 110.645,31.228 110.5,32C 112.396,35.2863 112.896,38.7863 112,42.5C 110.644,41.6198 109.144,41.2865 107.5,41.5C 106.541,37.617 105.208,33.9503 103.5,30.5C 102.46,26.2201 102.294,21.8868 103,17.5C 106.055,13.3755 109.555,9.70885 113.5,6.5C 115.914,5.08917 117.581,3.08917 118.5,0.5 Z"/></g>
<g><path style="opacity:1" fill="#386ce3" d="M 172.5,12.5 C 180.038,16.7002 186.704,22.0335 192.5,28.5C 193.341,30.3792 193.675,32.3792 193.5,34.5C 193.663,36.8568 193.497,39.1902 193,41.5C 190.877,38.0296 189.71,38.0296 189.5,41.5C 186.339,40.0238 183.005,39.0238 179.5,38.5C 179.675,40.6208 179.341,42.6208 178.5,44.5C 177.85,44.8039 177.183,45.1373 176.5,45.5C 175.833,36.6759 175.167,28.0093 174.5,19.5C 172.919,17.8583 172.253,15.8583 172.5,13.5C 172.5,13.1667 172.5,12.8333 172.5,12.5 Z"/></g>
<g><path style="opacity:1" fill="#465c7e" d="M 12.5,16.5 C 13.8348,20.1715 15.1681,23.8382 16.5,27.5C 17.8319,31.1618 19.1652,34.8285 20.5,38.5C 19.8826,38.3893 19.3826,38.056 19,37.5C 18.51,38.7932 18.3433,40.1266 18.5,41.5C 15.5641,34.1984 12.8974,26.6984 10.5,19C 10.6842,17.6244 11.3509,16.7911 12.5,16.5 Z"/></g>
<g><path style="opacity:1" fill="#151925" d="M 16.5,27.5 C 19.0255,28.6808 21.5255,30.0142 24,31.5C 24.4935,33.1341 24.6602,34.8008 24.5,36.5C 27.758,35.9322 31.0913,35.7655 34.5,36C 37.1668,34.3074 39.3335,32.1407 41,29.5C 43.6667,30.8333 46.3333,30.8333 49,29.5C 50.4007,31.1922 52.2341,31.8588 54.5,31.5C 54.5,32.8333 54.5,34.1667 54.5,35.5C 57.0627,34.8001 59.5627,33.8001 62,32.5C 63.3333,33.1667 64.6667,33.8333 66,34.5C 71.5758,32.8161 77.0758,32.4827 82.5,33.5C 82.516,35.4841 81.516,36.4841 79.5,36.5C 76.6097,35.315 73.7764,35.315 71,36.5C 70.6667,35.8333 70.3333,35.1667 70,34.5C 67.3412,35.9346 64.5079,36.9346 61.5,37.5C 58.8142,39.8572 55.8142,41.8572 52.5,43.5C 50.31,42.2524 49.9766,40.5857 51.5,38.5C 51.1667,37.5 50.5,36.8333 49.5,36.5C 45.8064,36.0797 42.1397,36.5797 38.5,38C 37.1667,40 35.8333,42 34.5,44C 32.5,44.3333 30.5,44.6667 28.5,45C 27.9011,46.6225 27.2344,48.1225 26.5,49.5C 24.2619,46.0283 22.2619,42.3617 20.5,38.5C 19.1652,34.8285 17.8319,31.1618 16.5,27.5 Z"/></g>
<g><path style="opacity:1" fill="#282037" d="M 140.5,23.5 C 142.241,26.4816 143.241,29.815 143.5,33.5C 143.48,34.7261 143.147,35.7261 142.5,36.5C 141.5,36.1667 140.833,35.5 140.5,34.5C 139.766,33.2921 139.433,31.9587 139.5,30.5C 140.222,30.9175 140.722,31.5842 141,32.5C 141.495,29.4686 141.329,26.4686 140.5,23.5 Z"/></g>
<g><path style="opacity:1" fill="#2c488c" d="M 174.5,19.5 C 175.167,28.0093 175.833,36.6759 176.5,45.5C 177.183,45.1373 177.85,44.8039 178.5,44.5C 178.552,46.9029 178.219,49.2362 177.5,51.5C 177.167,51.5 176.833,51.5 176.5,51.5C 175.833,51.5 175.167,51.5 174.5,51.5C 174.5,40.8333 174.5,30.1667 174.5,19.5 Z"/></g>
<g><path style="opacity:1" fill="#1c2030" d="M 89.5,0.5 C 88.4855,7.59128 87.1522,14.5913 85.5,21.5C 84.8569,27.6897 83.8569,33.6897 82.5,39.5C 82.631,38.7611 82.4643,38.0944 82,37.5C 81.3405,40.678 80.5072,43.678 79.5,46.5C 75.615,45.6654 72.115,44.6654 69,43.5C 64.2512,44.3052 59.4179,44.8052 54.5,45C 52.24,46.6893 49.74,47.856 47,48.5C 47.4087,46.7749 47.2421,45.1082 46.5,43.5C 44.3087,44.8722 42.142,45.2055 40,44.5C 36.3298,47.6705 32.8298,51.0039 29.5,54.5C 27.7497,53.3406 26.7497,51.674 26.5,49.5C 27.2344,48.1225 27.9011,46.6225 28.5,45C 30.5,44.6667 32.5,44.3333 34.5,44C 35.8333,42 37.1667,40 38.5,38C 42.1397,36.5797 45.8064,36.0797 49.5,36.5C 50.5,36.8333 51.1667,37.5 51.5,38.5C 49.9766,40.5857 50.31,42.2524 52.5,43.5C 55.8142,41.8572 58.8142,39.8572 61.5,37.5C 64.5079,36.9346 67.3412,35.9346 70,34.5C 70.3333,35.1667 70.6667,35.8333 71,36.5C 73.7764,35.315 76.6097,35.315 79.5,36.5C 81.516,36.4841 82.516,35.4841 82.5,33.5C 82.6287,31.7839 82.962,30.1172 83.5,28.5C 84.4258,23.5368 85.0925,18.5368 85.5,13.5C 86.4353,9.56523 87.2687,5.56523 88,1.5C 88.3826,0.944043 88.8826,0.610709 89.5,0.5 Z"/></g>
<g><path style="opacity:1" fill="#090b16" d="M 89.5,0.5 C 92.8333,0.5 96.1667,0.5 99.5,0.5C 96.9787,8.8284 95.9787,17.1617 96.5,25.5C 95.9816,26.5774 95.6483,27.7441 95.5,29C 96.9899,35.2518 97.9899,41.5851 98.5,48C 97.3456,56.8168 96.3456,65.6501 95.5,74.5C 93.5108,78.1778 90.5108,80.1778 86.5,80.5C 86.5858,79.5041 86.2524,78.6708 85.5,78C 86.7143,75.6494 87.5477,73.1494 88,70.5C 88.4935,72.1341 88.6602,73.8008 88.5,75.5C 90.9115,75.8633 92.4115,74.8633 93,72.5C 93.2405,67.295 93.7405,62.1283 94.5,57C 94.137,48.1261 94.137,39.1261 94.5,30C 94.1667,29.5 93.8333,29 93.5,28.5C 91.8322,30.0154 90.4989,31.6821 89.5,33.5C 91.2459,22.8974 92.0792,12.2308 92,1.5C 90.5062,8.79068 89.3396,16.124 88.5,23.5C 87.5,22.8333 86.5,22.1667 85.5,21.5C 87.1522,14.5913 88.4855,7.59128 89.5,0.5 Z"/></g>
<g><path style="opacity:1" fill="#3f71dc" d="M 202.5,33.5 C 203.869,36.2984 204.869,39.2984 205.5,42.5C 205.649,43.552 205.483,44.552 205,45.5C 204.333,44.1667 203.667,44.1667 203,45.5C 202.209,46.745 201.709,48.0783 201.5,49.5C 200.861,48.9032 200.528,48.0698 200.5,47C 201.214,44.2358 202.214,41.5691 203.5,39C 202.767,37.2341 202.433,35.4008 202.5,33.5 Z"/></g>
<g><path style="opacity:1" fill="#2247a9" d="M 121.5,21.5 C 121.471,26.7084 123.804,29.0417 128.5,28.5C 126.914,26.8273 126.247,24.8273 126.5,22.5C 127.222,23.5511 128.222,24.2178 129.5,24.5C 129.833,24.5 130.167,24.5 130.5,24.5C 130.5,24.8333 130.5,25.1667 130.5,25.5C 129.833,29.8847 130.666,34.218 133,38.5C 132.848,35.553 132.681,32.553 132.5,29.5C 134.598,31.7815 136.598,34.2815 138.5,37C 137.004,37.5074 135.837,37.0074 135,35.5C 134.333,36.5 134.333,37.5 135,38.5C 137.36,40.8604 139.694,43.1937 142,45.5C 142.671,44.7476 143.504,44.4142 144.5,44.5C 143.517,45.8503 142.184,46.8503 140.5,47.5C 141.174,49.1955 141.841,50.8621 142.5,52.5C 140.926,52.9371 139.759,53.9371 139,55.5C 138.667,52.5 138.333,49.5 138,46.5C 135.846,47.2301 133.679,47.8968 131.5,48.5C 132.313,43.539 131.147,39.2056 128,35.5C 127.506,37.1341 127.34,38.8008 127.5,40.5C 125.097,40.607 123.264,39.607 122,37.5C 121.344,34.0042 119.844,31.0042 117.5,28.5C 119.27,26.4976 120.603,24.1643 121.5,21.5 Z"/></g>
<g><path style="opacity:1" fill="#06080c" d="M 85.5,21.5 C 86.5,22.1667 87.5,22.8333 88.5,23.5C 88.1872,27.0419 88.5206,30.3752 89.5,33.5C 90.4989,31.6821 91.8322,30.0154 93.5,28.5C 93.8333,29 94.1667,29.5 94.5,30C 94.137,39.1261 94.137,48.1261 94.5,57C 93.7405,62.1283 93.2405,67.295 93,72.5C 92.4115,74.8633 90.9115,75.8633 88.5,75.5C 88.6602,73.8008 88.4935,72.1341 88,70.5C 87.5477,73.1494 86.7143,75.6494 85.5,78C 86.2524,78.6708 86.5858,79.5041 86.5,80.5C 86.2155,82.4147 86.5489,84.0813 87.5,85.5C 87.5,85.8333 87.5,86.1667 87.5,86.5C 86.1667,86.5 84.8333,86.5 83.5,86.5C 83.1788,84.9519 82.1788,84.2852 80.5,84.5C 80.3444,81.9339 80.6777,79.4339 81.5,77C 80.1439,75.4329 79.4772,73.5996 79.5,71.5C 79.2743,66.4376 79.6076,61.4376 80.5,56.5C 81.5402,50.8838 82.2069,45.2171 82.5,39.5C 83.8569,33.6897 84.8569,27.6897 85.5,21.5 Z"/></g>
<g><path style="opacity:1" fill="#2b57c7" d="M 130.5,24.5 C 131.609,24.5569 132.609,24.8902 133.5,25.5C 134.25,29.8028 136.584,32.8028 140.5,34.5C 140.833,35.5 141.5,36.1667 142.5,36.5C 142.709,37.9217 143.209,39.255 144,40.5C 145.289,37.6492 145.789,34.6492 145.5,31.5C 147.924,31.1924 150.257,31.5258 152.5,32.5C 152.256,35.5078 150.923,38.3412 148.5,41C 149.793,41.49 151.127,41.6567 152.5,41.5C 154.278,43.8055 155.944,46.3055 157.5,49C 162.598,51.9313 166.098,50.7647 168,45.5C 168.232,46.7375 168.732,47.7375 169.5,48.5C 169.5,50.1667 169.5,51.8333 169.5,53.5C 167.877,55.6124 166.21,55.279 164.5,52.5C 159.952,52.0176 155.619,50.8509 151.5,49C 151.554,47.6491 151.054,46.4824 150,45.5C 148.037,47.016 146.537,46.6827 145.5,44.5C 145.167,44.5 144.833,44.5 144.5,44.5C 143.504,44.4142 142.671,44.7476 142,45.5C 139.694,43.1937 137.36,40.8604 135,38.5C 134.333,37.5 134.333,36.5 135,35.5C 135.837,37.0074 137.004,37.5074 138.5,37C 136.598,34.2815 134.598,31.7815 132.5,29.5C 132.267,27.9382 131.6,26.6049 130.5,25.5C 130.5,25.1667 130.5,24.8333 130.5,24.5 Z"/></g>
<g><path style="opacity:1" fill="#0e1019" d="M 207.5,37.5 C 209.227,39.6035 211.394,41.2702 214,42.5C 215.049,41.4829 216.216,41.3162 217.5,42C 221.492,45.6625 225.992,48.4958 231,50.5C 231.308,49.6919 231.808,49.0253 232.5,48.5C 234.042,49.7468 235.542,49.7468 237,48.5C 242.831,52.855 248.997,55.5217 255.5,56.5C 255.5,61.1667 255.5,65.8333 255.5,70.5C 253.97,69.9332 252.47,69.2666 251,68.5C 249.102,70.4538 247.102,71.4538 245,71.5C 244.454,66.2548 241.787,64.2548 237,65.5C 235.343,62.84 233.676,62.84 232,65.5C 230.018,65.0097 228.351,64.0097 227,62.5C 226.667,62.8333 226.333,63.1667 226,63.5C 225.535,62.0692 224.701,60.9025 223.5,60C 221,59.1146 218.667,57.9479 216.5,56.5C 215.5,57.1667 214.5,57.8333 213.5,58.5C 210.769,56.8084 208.102,55.1417 205.5,53.5C 206.969,48.2796 207.636,42.9462 207.5,37.5 Z"/></g>
<g><path style="opacity:1" fill="#23283d" d="M 79.5,46.5 C 79.5,48.1667 79.5,49.8333 79.5,51.5C 73.0073,48.8789 66.5073,48.8789 60,51.5C 57.6668,50.123 55.1668,49.123 52.5,48.5C 46.7852,51.9657 42.4519,56.6324 39.5,62.5C 38.3775,64.2884 38.2109,66.2884 39,68.5C 40.4213,70.4048 41.588,72.4048 42.5,74.5C 40.1644,72.9962 38.331,70.9962 37,68.5C 34.7294,63.6204 32.2294,58.9537 29.5,54.5C 32.8298,51.0039 36.3298,47.6705 40,44.5C 42.142,45.2055 44.3087,44.8722 46.5,43.5C 47.2421,45.1082 47.4087,46.7749 47,48.5C 49.74,47.856 52.24,46.6893 54.5,45C 59.4179,44.8052 64.2512,44.3052 69,43.5C 72.115,44.6654 75.615,45.6654 79.5,46.5 Z"/></g>
<g><path style="opacity:1" fill="#415158" d="M 82.5,39.5 C 82.2069,45.2171 81.5402,50.8838 80.5,56.5C 79.5489,55.0813 79.2155,53.4147 79.5,51.5C 79.5,49.8333 79.5,48.1667 79.5,46.5C 80.5072,43.678 81.3405,40.678 82,37.5C 82.4643,38.0944 82.631,38.7611 82.5,39.5 Z"/></g>
<g><path style="opacity:1" fill="#1e306b" d="M 1.5,20.5 C 2.4959,20.4142 3.32924,20.7476 4,21.5C 4.25293,26.039 4.75293,30.539 5.5,35C 5.26454,35.8732 4.9312,36.7065 4.5,37.5C 7.07111,40.8321 7.07111,44.1654 4.5,47.5C 5.91898,49.9585 6.91898,52.6251 7.5,55.5C 9.44083,53.1659 11.1075,50.6659 12.5,48C 13.7932,47.51 15.1266,47.3433 16.5,47.5C 18.6238,50.7486 19.6238,54.4153 19.5,58.5C 20.8333,58.5 22.1667,58.5 23.5,58.5C 25.5333,64.4111 27.2,70.4111 28.5,76.5C 27.5,76.5 26.5,76.5 25.5,76.5C 25.5,75.1667 25.5,73.8333 25.5,72.5C 25.5,70.8333 25.5,69.1667 25.5,67.5C 23.1667,67.5 20.8333,67.5 18.5,67.5C 18.2529,61.4284 17.4196,55.4284 16,49.5C 14.4126,48.273 13.0793,48.6063 12,50.5C 10.565,55.3742 8.56499,60.0409 6,64.5C 7.13744,68.2211 5.63744,70.2211 1.5,70.5C 1.5,72.8333 1.5,75.1667 1.5,77.5C 1.5,79.8333 1.5,82.1667 1.5,84.5C 1.2011,86.604 1.53443,88.604 2.5,90.5C 4.52122,91.8545 6.18788,93.5212 7.5,95.5C 5.5887,94.925 3.92203,93.925 2.5,92.5C 1.79105,91.596 0.791047,91.2627 -0.5,91.5C -0.5,68.1667 -0.5,44.8333 -0.5,21.5C 0.491622,21.6716 1.15829,21.3382 1.5,20.5 Z"/></g>
<g><path style="opacity:1" fill="#3a6fdf" d="M 193.5,34.5 C 194.78,41.7044 194.78,49.0377 193.5,56.5C 192.391,56.5569 191.391,56.8902 190.5,57.5C 188.712,57.7852 187.045,57.4519 185.5,56.5C 183.908,54.5495 181.908,53.2162 179.5,52.5C 177.995,55.1306 177.329,54.7973 177.5,51.5C 178.219,49.2362 178.552,46.9029 178.5,44.5C 179.341,42.6208 179.675,40.6208 179.5,38.5C 183.005,39.0238 186.339,40.0238 189.5,41.5C 189.71,38.0296 190.877,38.0296 193,41.5C 193.497,39.1902 193.663,36.8568 193.5,34.5 Z"/></g>
<g><path style="opacity:1" fill="#233886" d="M 25.5,72.5 C 24.596,73.209 24.2627,74.209 24.5,75.5C 21.8333,75.5 19.1667,75.5 16.5,75.5C 11.004,74.9374 10.004,72.2707 13.5,67.5C 12.3112,66.5713 10.9778,66.238 9.5,66.5C 8.31285,68.9053 6.81285,71.2387 5,73.5C 4.50999,74.7932 4.34332,76.1266 4.5,77.5C 3.5,77.5 2.5,77.5 1.5,77.5C 1.5,75.1667 1.5,72.8333 1.5,70.5C 5.63744,70.2211 7.13744,68.2211 6,64.5C 8.56499,60.0409 10.565,55.3742 12,50.5C 13.0793,48.6063 14.4126,48.273 16,49.5C 17.4196,55.4284 18.2529,61.4284 18.5,67.5C 20.8333,67.5 23.1667,67.5 25.5,67.5C 25.5,69.1667 25.5,70.8333 25.5,72.5 Z"/></g>
<g><path style="opacity:1" fill="#244698" d="M 109.5,20.5 C 109.5,22.5 109.5,24.5 109.5,26.5C 110.552,26.3505 111.552,26.5172 112.5,27C 113.103,29.0714 114.436,30.2381 116.5,30.5C 115.833,35.1595 115.667,39.8262 116,44.5C 117.837,49.2055 120.837,52.8721 125,55.5C 125.757,57.3146 126.59,58.9812 127.5,60.5C 127.925,67.6154 127.425,74.6154 126,81.5C 125,80.1667 124,80.1667 123,81.5C 122.554,74.8108 121.887,68.1442 121,61.5C 120.617,60.944 120.117,60.6107 119.5,60.5C 117.807,62.1757 115.807,63.509 113.5,64.5C 111.971,64.4712 110.804,63.8045 110,62.5C 109.893,55.3588 109.06,48.3588 107.5,41.5C 109.144,41.2865 110.644,41.6198 112,42.5C 112.896,38.7863 112.396,35.2863 110.5,32C 110.645,31.228 110.978,30.5613 111.5,30C 108.467,27.2393 107.8,24.0726 109.5,20.5 Z"/></g>
<g><path style="opacity:1" fill="#2249b0" d="M 176.5,51.5 C 176.833,51.5 177.167,51.5 177.5,51.5C 177.329,54.7973 177.995,55.1306 179.5,52.5C 181.908,53.2162 183.908,54.5495 185.5,56.5C 187.045,57.4519 188.712,57.7852 190.5,57.5C 189.41,58.8571 188.076,59.8571 186.5,60.5C 184.354,64.0285 181.687,64.3619 178.5,61.5C 176.817,58.3978 176.151,55.0644 176.5,51.5 Z"/></g>
<g><path style="opacity:1" fill="#303754" d="M 79.5,51.5 C 79.2155,53.4147 79.5489,55.0813 80.5,56.5C 79.6076,61.4376 79.2743,66.4376 79.5,71.5C 78.3995,69.7226 77.5662,67.7226 77,65.5C 75.1745,66.5709 74.0079,65.9042 73.5,63.5C 74.0522,61.9974 74.0522,60.3307 73.5,58.5C 69.2509,58.6033 65.0843,59.2699 61,60.5C 58.2263,59.6083 55.393,59.6083 52.5,60.5C 50.6803,60.3507 49.1803,59.6841 48,58.5C 45.6454,61.4354 42.812,62.7687 39.5,62.5C 42.4519,56.6324 46.7852,51.9657 52.5,48.5C 55.1668,49.123 57.6668,50.123 60,51.5C 66.5073,48.8789 73.0073,48.8789 79.5,51.5 Z"/></g>
<g><path style="opacity:1" fill="#173265" d="M 174.5,51.5 C 175.167,51.5 175.833,51.5 176.5,51.5C 176.151,55.0644 176.817,58.3978 178.5,61.5C 181.687,64.3619 184.354,64.0285 186.5,60.5C 186.5,61.5 186.5,62.5 186.5,63.5C 184.694,64.0241 183.028,64.6908 181.5,65.5C 178.925,64.4322 176.758,62.7655 175,60.5C 174.617,61.056 174.117,61.3893 173.5,61.5C 173.253,58.0613 173.586,54.728 174.5,51.5 Z"/></g>
<g><path style="opacity:1" fill="#183384" d="M 130.5,53.5 C 130.5,55.1667 130.5,56.8333 130.5,58.5C 132.167,58.5 133.833,58.5 135.5,58.5C 135.5,59.8333 135.5,61.1667 135.5,62.5C 139.162,62.7234 142.495,63.7234 145.5,65.5C 140.591,65.8796 135.924,65.213 131.5,63.5C 130.849,61.1743 130.182,58.8409 129.5,56.5C 129.52,55.2739 129.853,54.2739 130.5,53.5 Z"/></g>
<g><path style="opacity:1" fill="#5f95c8" d="M 204.5,31.5 C 205.87,33.2504 206.87,35.2504 207.5,37.5C 207.636,42.9462 206.969,48.2796 205.5,53.5C 203.917,55.6626 202.584,57.9959 201.5,60.5C 200.833,61.1667 200.167,61.8333 199.5,62.5C 199.62,60.8014 199.954,59.1347 200.5,57.5C 200.57,55.3344 199.904,55.0011 198.5,56.5C 197.345,53.5541 197.179,50.5541 198,47.5C 198.383,46.944 198.883,46.6107 199.5,46.5C 198.992,49.1761 198.825,51.8428 199,54.5C 199.847,52.8068 200.68,51.1401 201.5,49.5C 201.709,48.0783 202.209,46.745 203,45.5C 203.667,44.1667 204.333,44.1667 205,45.5C 205.483,44.552 205.649,43.552 205.5,42.5C 206.139,41.9032 206.472,41.0698 206.5,40C 205.383,37.2687 204.717,34.4353 204.5,31.5 Z"/></g>
<g><path style="opacity:1" fill="#17222d" d="M 152.5,55.5 C 155.198,57.2252 157.198,59.5586 158.5,62.5C 158.167,62.5 157.833,62.5 157.5,62.5C 155.236,61.7814 152.903,61.448 150.5,61.5C 146.997,61.0061 144.664,59.0061 143.5,55.5C 143.217,50.4741 145.217,49.3074 149.5,52C 150.71,53.0391 151.71,54.2058 152.5,55.5 Z"/></g>
<g><path style="opacity:1" fill="#416220" d="M 150.5,55.5 C 151.167,55.5 151.833,55.5 152.5,55.5C 152.5,56.8333 152.5,58.1667 152.5,59.5C 151.209,59.7373 150.209,59.404 149.5,58.5C 151.796,58.1959 152.129,57.1959 150.5,55.5 Z"/></g>
<g><path style="opacity:1" fill="#99c716" d="M 149.5,54.5 C 149.5,55.1667 149.833,55.5 150.5,55.5C 152.129,57.1959 151.796,58.1959 149.5,58.5C 148.833,58.1667 148.167,57.8333 147.5,57.5C 147.285,55.8212 147.952,54.8212 149.5,54.5 Z"/></g>
<g><path style="opacity:1" fill="#44611e" d="M 149.5,54.5 C 147.952,54.8212 147.285,55.8212 147.5,57.5C 146.566,56.4324 146.232,55.099 146.5,53.5C 147.791,53.2627 148.791,53.596 149.5,54.5 Z"/></g>
<g><path style="opacity:1" fill="#2b4572" d="M 18.5,43.5 C 23.7569,52.3463 28.7569,61.3463 33.5,70.5C 33.0025,74.2194 33.8358,77.5527 36,80.5C 38.2866,83.4409 40.7866,86.1075 43.5,88.5C 43.8333,88.1667 44.1667,87.8333 44.5,87.5C 43.3698,86.3777 42.7031,85.0443 42.5,83.5C 44.1667,84.5 45.5,85.8333 46.5,87.5C 47.8008,90.023 48.8008,92.6897 49.5,95.5C 47.9731,95.573 46.9731,94.9063 46.5,93.5C 46.2942,91.4508 45.4609,91.1175 44,92.5C 43.3333,91.1667 42.3333,90.1667 41,89.5C 40.5357,90.0944 40.369,90.7611 40.5,91.5C 38.3253,87.8424 35.6587,84.5091 32.5,81.5C 31.5713,80.3112 31.238,78.9778 31.5,77.5C 30.209,77.7373 29.209,77.404 28.5,76.5C 27.2,70.4111 25.5333,64.4111 23.5,58.5C 21.9898,53.4643 20.3232,48.4643 18.5,43.5 Z"/></g>
<g><path style="opacity:1" fill="#1a3470" d="M 144.5,44.5 C 144.833,44.5 145.167,44.5 145.5,44.5C 145.5,45.5 145.5,46.5 145.5,47.5C 148.582,48.7267 151.582,50.2267 154.5,52C 157.486,53.808 159.486,56.308 160.5,59.5C 165.709,60.6039 168.709,58.6039 169.5,53.5C 169.5,51.8333 169.5,50.1667 169.5,48.5C 169.682,43.2063 170.182,43.2063 171,48.5C 171.383,47.944 171.883,47.6107 172.5,47.5C 172.31,52.3696 171.644,57.0363 170.5,61.5C 170.631,60.6236 170.298,59.9569 169.5,59.5C 166.243,61.8793 162.576,62.8793 158.5,62.5C 157.198,59.5586 155.198,57.2252 152.5,55.5C 151.71,54.2058 150.71,53.0391 149.5,52C 145.217,49.3074 143.217,50.4741 143.5,55.5C 142.596,54.791 142.263,53.791 142.5,52.5C 141.841,50.8621 141.174,49.1955 140.5,47.5C 142.184,46.8503 143.517,45.8503 144.5,44.5 Z"/></g>
<g><path style="opacity:1" fill="#2147ab" d="M 145.5,44.5 C 146.537,46.6827 148.037,47.016 150,45.5C 151.054,46.4824 151.554,47.6491 151.5,49C 155.619,50.8509 159.952,52.0176 164.5,52.5C 166.21,55.279 167.877,55.6124 169.5,53.5C 168.709,58.6039 165.709,60.6039 160.5,59.5C 159.486,56.308 157.486,53.808 154.5,52C 151.582,50.2267 148.582,48.7267 145.5,47.5C 145.5,46.5 145.5,45.5 145.5,44.5 Z"/></g>
<g><path style="opacity:1" fill="#cee5f6" d="M 195.5,69.5 C 195.334,60.4938 195.5,51.4938 196,42.5C 196.137,49.0975 196.97,55.5975 198.5,62C 198.306,63.8596 197.972,65.6929 197.5,67.5C 197.253,68.7133 196.586,69.38 195.5,69.5 Z"/></g>
<g><path style="opacity:1" fill="#161927" d="M 205.5,53.5 C 208.102,55.1417 210.769,56.8084 213.5,58.5C 214.5,57.8333 215.5,57.1667 216.5,56.5C 218.667,57.9479 221,59.1146 223.5,60C 224.701,60.9025 225.535,62.0692 226,63.5C 226.333,63.1667 226.667,62.8333 227,62.5C 228.351,64.0097 230.018,65.0097 232,65.5C 233.676,62.84 235.343,62.84 237,65.5C 241.787,64.2548 244.454,66.2548 245,71.5C 247.102,71.4538 249.102,70.4538 251,68.5C 252.47,69.2666 253.97,69.9332 255.5,70.5C 255.5,73.5 255.5,76.5 255.5,79.5C 251.555,76.3803 249.055,77.3803 248,82.5C 244.372,80.6591 242.372,77.6591 242,73.5C 241,72.8333 240,72.1667 239,71.5C 237.575,72.2123 236.075,72.379 234.5,72C 233.789,73.2547 232.956,74.4214 232,75.5C 223.389,69.8404 214.055,65.5071 204,62.5C 202.692,63.1513 201.859,62.4846 201.5,60.5C 202.584,57.9959 203.917,55.6626 205.5,53.5 Z"/></g>
<g><path style="opacity:1" fill="#3a4267" d="M 79.5,71.5 C 79.4772,73.5996 80.1439,75.4329 81.5,77C 80.6777,79.4339 80.3444,81.9339 80.5,84.5C 79.7165,80.7036 77.8832,77.3703 75,74.5C 74.461,71.4715 73.7943,68.4715 73,65.5C 68.8422,67.3055 64.5088,68.6389 60,69.5C 55.805,68.3575 51.305,67.8575 46.5,68C 43.5622,70.3542 42.8956,73.1876 44.5,76.5C 43.5,76.1667 42.8333,75.5 42.5,74.5C 41.588,72.4048 40.4213,70.4048 39,68.5C 38.2109,66.2884 38.3775,64.2884 39.5,62.5C 42.812,62.7687 45.6454,61.4354 48,58.5C 49.1803,59.6841 50.6803,60.3507 52.5,60.5C 55.393,59.6083 58.2263,59.6083 61,60.5C 65.0843,59.2699 69.2509,58.6033 73.5,58.5C 74.0522,60.3307 74.0522,61.9974 73.5,63.5C 74.0079,65.9042 75.1745,66.5709 77,65.5C 77.5662,67.7226 78.3995,69.7226 79.5,71.5 Z"/></g>
<g><path style="opacity:1" fill="#85abd0" d="M 20.5,38.5 C 22.2619,42.3617 24.2619,46.0283 26.5,49.5C 26.7497,51.674 27.7497,53.3406 29.5,54.5C 32.2294,58.9537 34.7294,63.6204 37,68.5C 38.331,70.9962 40.1644,72.9962 42.5,74.5C 42.8333,75.5 43.5,76.1667 44.5,76.5C 44.7329,78.0618 45.3995,79.3951 46.5,80.5C 44.8297,80.2488 43.3297,79.5822 42,78.5C 41.5357,79.0944 41.369,79.7611 41.5,80.5C 38.4534,77.4552 35.7867,74.1219 33.5,70.5C 28.7569,61.3463 23.7569,52.3463 18.5,43.5C 18.5,42.8333 18.5,42.1667 18.5,41.5C 18.3433,40.1266 18.51,38.7932 19,37.5C 19.3826,38.056 19.8826,38.3893 20.5,38.5 Z"/></g>
<g><path style="opacity:1" fill="#08162b" d="M 117.5,28.5 C 119.844,31.0042 121.344,34.0042 122,37.5C 123.264,39.607 125.097,40.607 127.5,40.5C 127.34,38.8008 127.506,37.1341 128,35.5C 131.147,39.2056 132.313,43.539 131.5,48.5C 130.962,50.1172 130.629,51.7839 130.5,53.5C 129.853,54.2739 129.52,55.2739 129.5,56.5C 130.182,58.8409 130.849,61.1743 131.5,63.5C 135.924,65.213 140.591,65.8796 145.5,65.5C 147.434,66.1103 149.101,67.1103 150.5,68.5C 148.954,68.7239 147.287,69.0573 145.5,69.5C 146.167,70.5 146.833,71.5 147.5,72.5C 144.929,73.7277 143.595,75.7277 143.5,78.5C 143.5,79.8333 143.5,81.1667 143.5,82.5C 142.209,82.2627 141.209,82.596 140.5,83.5C 138.566,84.1103 136.899,85.1103 135.5,86.5C 132.906,86.318 130.739,85.318 129,83.5C 128.324,77.3127 128.49,71.146 129.5,65C 129.693,62.9919 129.026,61.4919 127.5,60.5C 126.59,58.9812 125.757,57.3146 125,55.5C 120.837,52.8721 117.837,49.2055 116,44.5C 115.667,39.8262 115.833,35.1595 116.5,30.5C 116.328,29.5084 116.662,28.8417 117.5,28.5 Z"/></g>
<g><path style="opacity:1" fill="#14202b" d="M 193.5,56.5 C 193.575,59.2062 193.908,61.8728 194.5,64.5C 192.95,66.3002 191.95,68.4668 191.5,71C 188.766,71.2104 186.266,72.0437 184,73.5C 183.504,71.9651 183.67,70.4651 184.5,69C 184.361,67.699 183.695,66.8656 182.5,66.5C 182.5,65.8333 182.167,65.5 181.5,65.5C 183.028,64.6908 184.694,64.0241 186.5,63.5C 186.5,62.5 186.5,61.5 186.5,60.5C 188.076,59.8571 189.41,58.8571 190.5,57.5C 191.391,56.8902 192.391,56.5569 193.5,56.5 Z"/></g>
<g><path style="opacity:1" fill="#84ac28" d="M 186.5,63.5 C 189.3,60.6887 189.966,61.1887 188.5,65C 187.184,65.5281 186.517,65.0281 186.5,63.5 Z"/></g>
<g><path style="opacity:1" fill="#47517f" d="M 80.5,84.5 C 82.1788,84.2852 83.1788,84.9519 83.5,86.5C 77.8114,86.5324 72.1448,86.8658 66.5,87.5C 58.785,87.9295 52.1183,85.5962 46.5,80.5C 45.3995,79.3951 44.7329,78.0618 44.5,76.5C 42.8956,73.1876 43.5622,70.3542 46.5,68C 51.305,67.8575 55.805,68.3575 60,69.5C 64.5088,68.6389 68.8422,67.3055 73,65.5C 73.7943,68.4715 74.461,71.4715 75,74.5C 77.8832,77.3703 79.7165,80.7036 80.5,84.5 Z"/></g>
<g><path style="opacity:1" fill="#536d9c" d="M 119.5,66.5 C 119.5,67.8333 119.5,69.1667 119.5,70.5C 118.391,70.5569 117.391,70.8902 116.5,71.5C 115.962,69.8828 115.629,68.2161 115.5,66.5C 116.833,66.5 118.167,66.5 119.5,66.5 Z"/></g>
<g><path style="opacity:1" fill="#1c2032" d="M 201.5,60.5 C 201.859,62.4846 202.692,63.1513 204,62.5C 214.055,65.5071 223.389,69.8404 232,75.5C 232.956,74.4214 233.789,73.2547 234.5,72C 236.075,72.379 237.575,72.2123 239,71.5C 240,72.1667 241,72.8333 242,73.5C 242.372,77.6591 244.372,80.6591 248,82.5C 249.055,77.3803 251.555,76.3803 255.5,79.5C 255.5,82.5 255.5,85.5 255.5,88.5C 250.955,85.7025 249.622,87.0358 251.5,92.5C 250.635,93.5827 249.635,93.7494 248.5,93C 244.967,89.1781 242.3,84.8448 240.5,80C 238.649,79.1628 236.816,78.3295 235,77.5C 234.152,79.8743 232.819,81.8743 231,83.5C 230.055,83.0946 229.388,82.428 229,81.5C 228.259,82.6405 227.425,82.6405 226.5,81.5C 225.866,79.4332 224.866,77.5998 223.5,76C 215.55,72.1885 207.55,69.3552 199.5,67.5C 199.5,65.8333 199.5,64.1667 199.5,62.5C 200.167,61.8333 200.833,61.1667 201.5,60.5 Z"/></g>
<g><path style="opacity:1" fill="#1b223c" d="M 103.5,30.5 C 105.208,33.9503 106.541,37.617 107.5,41.5C 109.06,48.3588 109.893,55.3588 110,62.5C 110.804,63.8045 111.971,64.4712 113.5,64.5C 115.807,63.509 117.807,62.1757 119.5,60.5C 119.5,62.5 119.5,64.5 119.5,66.5C 118.167,66.5 116.833,66.5 115.5,66.5C 115.629,68.2161 115.962,69.8828 116.5,71.5C 109.388,77.391 101.388,81.7243 92.5,84.5C 92.5,83.5 92.5,82.5 92.5,81.5C 99.1543,76.5877 102.821,69.921 103.5,61.5C 102.92,55.1332 102.253,48.6332 101.5,42C 101.432,38.0014 102.099,34.1681 103.5,30.5 Z"/></g>
<g><path style="opacity:1" fill="#2651bf" d="M 142.5,52.5 C 142.263,53.791 142.596,54.791 143.5,55.5C 144.664,59.0061 146.997,61.0061 150.5,61.5C 149.048,62.3019 147.382,62.8019 145.5,63C 150.208,64.3782 153.708,67.2115 156,71.5C 156.682,69.0617 156.182,66.8951 154.5,65C 154.833,64.5 155.167,64 155.5,63.5C 156.382,64.7598 157.382,65.9264 158.5,67C 159.332,67.6877 159.998,67.521 160.5,66.5C 158.712,65.7174 157.712,64.3841 157.5,62.5C 157.833,62.5 158.167,62.5 158.5,62.5C 162.576,62.8793 166.243,61.8793 169.5,59.5C 170.298,59.9569 170.631,60.6236 170.5,61.5C 169.908,64.1272 169.575,66.7938 169.5,69.5C 168.596,70.209 168.263,71.209 168.5,72.5C 168.586,76.3186 167.919,79.9852 166.5,83.5C 164.194,83.9926 161.861,84.3259 159.5,84.5C 159.769,82.5714 159.269,80.9047 158,79.5C 157.395,81.4812 156.395,81.8146 155,80.5C 154.667,77.8333 154.333,75.1667 154,72.5C 153.34,70.6763 152.173,69.343 150.5,68.5C 149.101,67.1103 147.434,66.1103 145.5,65.5C 142.495,63.7234 139.162,62.7234 135.5,62.5C 135.5,61.1667 135.5,59.8333 135.5,58.5C 133.833,58.5 132.167,58.5 130.5,58.5C 130.5,56.8333 130.5,55.1667 130.5,53.5C 130.629,51.7839 130.962,50.1172 131.5,48.5C 133.679,47.8968 135.846,47.2301 138,46.5C 138.333,49.5 138.667,52.5 139,55.5C 139.759,53.9371 140.926,52.9371 142.5,52.5 Z"/></g>
<g><path style="opacity:1" fill="#24448d" d="M 150.5,61.5 C 152.903,61.448 155.236,61.7814 157.5,62.5C 157.712,64.3841 158.712,65.7174 160.5,66.5C 159.998,67.521 159.332,67.6877 158.5,67C 157.382,65.9264 156.382,64.7598 155.5,63.5C 155.167,64 154.833,64.5 154.5,65C 156.182,66.8951 156.682,69.0617 156,71.5C 153.708,67.2115 150.208,64.3782 145.5,63C 147.382,62.8019 149.048,62.3019 150.5,61.5 Z"/></g>
<g><path style="opacity:1" fill="#695a67" d="M 169.5,69.5 C 172.338,71.3059 172.005,72.3059 168.5,72.5C 168.263,71.209 168.596,70.209 169.5,69.5 Z"/></g>
<g><path style="opacity:1" fill="#08182a" d="M 194.5,73.5 C 194.5,74.1667 194.5,74.8333 194.5,75.5C 194.5,76.5 194.5,77.5 194.5,78.5C 192.901,78.2322 191.568,78.5655 190.5,79.5C 190.167,80.5 189.5,81.1667 188.5,81.5C 186.016,80.0359 186.016,78.3692 188.5,76.5C 184.824,75.2421 184.991,73.9087 189,72.5C 190.766,73.2335 192.599,73.5668 194.5,73.5 Z"/></g>
<g><path style="opacity:1" fill="#91b6c8" d="M 119.5,70.5 C 119.5,71.5 119.5,72.5 119.5,73.5C 118.5,73.8333 117.833,74.5 117.5,75.5C 115.033,75.7549 113.033,76.7549 111.5,78.5C 110.29,78.9321 109.29,79.5987 108.5,80.5C 104.759,80.9239 101.759,82.5905 99.5,85.5C 97.7085,85.366 96.0418,85.6993 94.5,86.5C 94.1667,86.5 93.8333,86.5 93.5,86.5C 91.7411,86.0461 89.7411,86.0461 87.5,86.5C 87.5,86.1667 87.5,85.8333 87.5,85.5C 89.1172,84.962 90.7839,84.6287 92.5,84.5C 101.388,81.7243 109.388,77.391 116.5,71.5C 117.391,70.8902 118.391,70.5569 119.5,70.5 Z"/></g>
<g><path style="opacity:1" fill="#3b6e99" d="M 194.5,69.5 C 194.833,69.5 195.167,69.5 195.5,69.5C 195.351,70.552 195.517,71.552 196,72.5C 196.77,71.4019 197.603,71.4019 198.5,72.5C 198.785,74.288 198.452,75.9547 197.5,77.5C 196.735,76.3881 195.735,75.7214 194.5,75.5C 194.5,74.8333 194.5,74.1667 194.5,73.5C 194.5,72.1667 194.5,70.8333 194.5,69.5 Z"/></g>
<g><path style="opacity:1" fill="#50666e" d="M 117.5,75.5 C 115.967,77.2451 113.967,78.2451 111.5,78.5C 113.033,76.7549 115.033,75.7549 117.5,75.5 Z"/></g>
<g><path style="opacity:1" fill="#314db0" d="M 1.5,84.5 C 1.5,82.1667 1.5,79.8333 1.5,77.5C 2.5,77.5 3.5,77.5 4.5,77.5C 5.40397,76.791 5.73731,75.791 5.5,74.5C 7.16667,74.5 8.83333,74.5 10.5,74.5C 10.5,78.8333 10.5,83.1667 10.5,87.5C 7.4507,86.6939 4.4507,85.6939 1.5,84.5 Z"/></g>
<g><path style="opacity:1" fill="#2f4f9e" d="M 33.5,70.5 C 35.7867,74.1219 38.4534,77.4552 41.5,80.5C 42.1098,81.391 42.4431,82.391 42.5,83.5C 42.7031,85.0443 43.3698,86.3777 44.5,87.5C 44.1667,87.8333 43.8333,88.1667 43.5,88.5C 40.7866,86.1075 38.2866,83.4409 36,80.5C 33.8358,77.5527 33.0025,74.2194 33.5,70.5 Z"/></g>
<g><path style="opacity:1" fill="#9ac3e7" d="M 46.5,80.5 C 52.1183,85.5962 58.785,87.9295 66.5,87.5C 68.2646,88.4614 70.2646,88.7947 72.5,88.5C 72.5,89.5 72.5,90.5 72.5,91.5C 75.1667,91.5 77.8333,91.5 80.5,91.5C 79.8333,92.1667 79.1667,92.8333 78.5,93.5C 75.9979,93.7495 73.4979,94.0828 71,94.5C 68.2393,93.5824 65.4059,92.9157 62.5,92.5C 61.4324,91.5655 60.099,91.2322 58.5,91.5C 53.6329,92.4111 49.6329,91.0778 46.5,87.5C 45.5,85.8333 44.1667,84.5 42.5,83.5C 42.4431,82.391 42.1098,81.391 41.5,80.5C 41.369,79.7611 41.5357,79.0944 42,78.5C 43.3297,79.5822 44.8297,80.2488 46.5,80.5 Z"/></g>
<g><path style="opacity:1" fill="#0b0f1f" d="M 97.5,21.5 C 98.9251,24.9032 99.7585,28.5698 100,32.5C 100.877,46.5861 100.21,60.5861 98,74.5C 95.5464,76.4412 93.713,78.7746 92.5,81.5C 92.5,82.5 92.5,83.5 92.5,84.5C 90.7839,84.6287 89.1172,84.962 87.5,85.5C 86.5489,84.0813 86.2155,82.4147 86.5,80.5C 90.5108,80.1778 93.5108,78.1778 95.5,74.5C 96.3456,65.6501 97.3456,56.8168 98.5,48C 97.9899,41.5851 96.9899,35.2518 95.5,29C 95.6483,27.7441 95.9816,26.5774 96.5,25.5C 96.2322,23.901 96.5655,22.5676 97.5,21.5 Z"/></g>
<g><path style="opacity:1" fill="#0a1e53" d="M 143.5,78.5 C 145.969,83.8879 148.635,89.2212 151.5,94.5C 152.5,94.5 153.5,94.5 154.5,94.5C 154.672,95.4916 154.338,96.1583 153.5,96.5C 151.883,97.038 150.216,97.3713 148.5,97.5C 148.918,96.7784 149.584,96.2784 150.5,96C 148.041,92.25 145.708,88.4166 143.5,84.5C 142.675,83.6143 141.675,83.281 140.5,83.5C 141.209,82.596 142.209,82.2627 143.5,82.5C 143.5,81.1667 143.5,79.8333 143.5,78.5 Z"/></g>
<g><path style="opacity:1" fill="#183a6e" d="M 194.5,64.5 C 194.5,66.1667 194.5,67.8333 194.5,69.5C 194.5,70.8333 194.5,72.1667 194.5,73.5C 192.599,73.5668 190.766,73.2335 189,72.5C 184.991,73.9087 184.824,75.2421 188.5,76.5C 186.016,78.3692 186.016,80.0359 188.5,81.5C 188.405,83.7857 187.738,85.7857 186.5,87.5C 185.883,87.6107 185.383,87.944 185,88.5C 185.526,86.7725 185.359,85.1059 184.5,83.5C 184.404,78.8897 183.404,78.5564 181.5,82.5C 180.242,79.2032 180.575,76.0365 182.5,73C 182.167,72.5 181.833,72 181.5,71.5C 180.391,72.5896 179.391,72.5896 178.5,71.5C 180.611,70.3954 181.945,68.7288 182.5,66.5C 183.695,66.8656 184.361,67.699 184.5,69C 183.67,70.4651 183.504,71.9651 184,73.5C 186.266,72.0437 188.766,71.2104 191.5,71C 191.95,68.4668 192.95,66.3002 194.5,64.5 Z"/></g>
<g><path style="opacity:1" fill="#152c68" d="M 119.5,60.5 C 120.117,60.6107 120.617,60.944 121,61.5C 121.887,68.1442 122.554,74.8108 123,81.5C 124,80.1667 125,80.1667 126,81.5C 127.425,74.6154 127.925,67.6154 127.5,60.5C 129.026,61.4919 129.693,62.9919 129.5,65C 128.49,71.146 128.324,77.3127 129,83.5C 130.739,85.318 132.906,86.318 135.5,86.5C 135.414,87.4959 135.748,88.3292 136.5,89C 141.076,88.3281 143.743,90.1615 144.5,94.5C 137.759,92.8759 131.926,89.5426 127,84.5C 126.837,86.3867 127.671,87.8867 129.5,89C 128.101,89.5946 126.768,89.4279 125.5,88.5C 122.325,83.9769 120.325,78.9769 119.5,73.5C 119.5,72.5 119.5,71.5 119.5,70.5C 119.5,69.1667 119.5,67.8333 119.5,66.5C 119.5,64.5 119.5,62.5 119.5,60.5 Z"/></g>
<g><path style="opacity:1" fill="#203a92" d="M 16.5,75.5 C 15.0077,76.6074 14.0077,78.1074 13.5,80C 14.6322,83.2615 16.2989,86.2615 18.5,89C 19.448,89.4828 20.448,89.6495 21.5,89.5C 21.5,90.5 21.5,91.5 21.5,92.5C 19.629,92.1412 18.129,91.1412 17,89.5C 16.8333,89.8333 16.6667,90.1667 16.5,90.5C 18.11,92.7254 19.4434,95.0587 20.5,97.5C 20.9612,99.5504 21.6279,101.55 22.5,103.5C 22.3764,104.107 22.0431,104.44 21.5,104.5C 17.863,103.014 14.5296,101.014 11.5,98.5C 9.76967,97.9744 8.43634,96.9744 7.5,95.5C 6.18788,93.5212 4.52122,91.8545 2.5,90.5C 1.53443,88.604 1.2011,86.604 1.5,84.5C 4.4507,85.6939 7.4507,86.6939 10.5,87.5C 10.5,83.1667 10.5,78.8333 10.5,74.5C 8.83333,74.5 7.16667,74.5 5.5,74.5C 5.73731,75.791 5.40397,76.791 4.5,77.5C 4.34332,76.1266 4.50999,74.7932 5,73.5C 6.81285,71.2387 8.31285,68.9053 9.5,66.5C 10.9778,66.238 12.3112,66.5713 13.5,67.5C 10.004,72.2707 11.004,74.9374 16.5,75.5 Z"/></g>
<g><path style="opacity:1" fill="#2e4ca7" d="M 25.5,72.5 C 25.5,73.8333 25.5,75.1667 25.5,76.5C 26.5,76.5 27.5,76.5 28.5,76.5C 29.209,77.404 30.209,77.7373 31.5,77.5C 31.238,78.9778 31.5713,80.3112 32.5,81.5C 35.6587,84.5091 38.3253,87.8424 40.5,91.5C 43.7065,94.7679 45.3732,98.7679 45.5,103.5C 40.7629,102.632 36.0962,101.466 31.5,100C 27.6997,98.0211 24.3664,95.5211 21.5,92.5C 21.5,91.5 21.5,90.5 21.5,89.5C 20.448,89.6495 19.448,89.4828 18.5,89C 16.2989,86.2615 14.6322,83.2615 13.5,80C 14.0077,78.1074 15.0077,76.6074 16.5,75.5C 19.1667,75.5 21.8333,75.5 24.5,75.5C 24.2627,74.209 24.596,73.209 25.5,72.5 Z"/></g>
<g><path style="opacity:1" fill="#193a90" d="M 140.5,83.5 C 141.675,83.281 142.675,83.6143 143.5,84.5C 145.708,88.4166 148.041,92.25 150.5,96C 149.584,96.2784 148.918,96.7784 148.5,97.5C 147.5,97.5 146.5,97.5 145.5,97.5C 145.737,96.209 145.404,95.209 144.5,94.5C 143.743,90.1615 141.076,88.3281 136.5,89C 135.748,88.3292 135.414,87.4959 135.5,86.5C 136.899,85.1103 138.566,84.1103 140.5,83.5 Z"/></g>
<g><path style="opacity:1" fill="#1b409f" d="M 150.5,68.5 C 152.173,69.343 153.34,70.6763 154,72.5C 154.333,75.1667 154.667,77.8333 155,80.5C 156.395,81.8146 157.395,81.4812 158,79.5C 159.269,80.9047 159.769,82.5714 159.5,84.5C 161.861,84.3259 164.194,83.9926 166.5,83.5C 165.585,85.7541 164.252,87.7541 162.5,89.5C 159.852,90.8276 157.519,92.4943 155.5,94.5C 155.167,94.5 154.833,94.5 154.5,94.5C 153.5,94.5 152.5,94.5 151.5,94.5C 148.635,89.2212 145.969,83.8879 143.5,78.5C 143.595,75.7277 144.929,73.7277 147.5,72.5C 146.833,71.5 146.167,70.5 145.5,69.5C 147.287,69.0573 148.954,68.7239 150.5,68.5 Z"/></g>
<g><path style="opacity:1" fill="#224eb5" d="M 181.5,65.5 C 182.167,65.5 182.5,65.8333 182.5,66.5C 181.945,68.7288 180.611,70.3954 178.5,71.5C 179.391,72.5896 180.391,72.5896 181.5,71.5C 181.833,72 182.167,72.5 182.5,73C 180.575,76.0365 180.242,79.2032 181.5,82.5C 183.404,78.5564 184.404,78.8897 184.5,83.5C 183.313,85.9013 181.979,88.2347 180.5,90.5C 179.607,92.297 178.274,93.6304 176.5,94.5C 176.924,91.646 177.924,88.9793 179.5,86.5C 179.154,85.3044 178.654,85.3044 178,86.5C 177,88.1667 176,89.8333 175,91.5C 174.667,89.8333 174.333,88.1667 174,86.5C 173.333,87.1667 172.667,87.8333 172,88.5C 171.501,84.8484 171.335,81.1817 171.5,77.5C 172.601,72.227 173.267,66.8937 173.5,61.5C 174.117,61.3893 174.617,61.056 175,60.5C 176.758,62.7655 178.925,64.4322 181.5,65.5 Z"/></g>
<g><path style="opacity:1" fill="#153882" d="M 171.5,77.5 C 171.335,81.1817 171.501,84.8484 172,88.5C 172.667,87.8333 173.333,87.1667 174,86.5C 174.333,88.1667 174.667,89.8333 175,91.5C 176,89.8333 177,88.1667 178,86.5C 178.654,85.3044 179.154,85.3044 179.5,86.5C 177.924,88.9793 176.924,91.646 176.5,94.5C 174.481,92.8103 172.481,91.1436 170.5,89.5C 170.183,85.2984 170.517,81.2984 171.5,77.5 Z"/></g>
<g><path style="opacity:1" fill="#bbe5f2" d="M 93.5,86.5 C 89.2499,88.3615 84.9166,90.0282 80.5,91.5C 77.8333,91.5 75.1667,91.5 72.5,91.5C 72.5,90.5 72.5,89.5 72.5,88.5C 70.2646,88.7947 68.2646,88.4614 66.5,87.5C 72.1448,86.8658 77.8114,86.5324 83.5,86.5C 84.8333,86.5 86.1667,86.5 87.5,86.5C 89.7411,86.0461 91.7411,86.0461 93.5,86.5 Z"/></g>
<g><path style="opacity:1" fill="#6d92c8" d="M 93.5,86.5 C 93.8333,86.5 94.1667,86.5 94.5,86.5C 92.1367,88.6801 89.47,90.3468 86.5,91.5C 83.994,92.7496 81.3274,93.4162 78.5,93.5C 79.1667,92.8333 79.8333,92.1667 80.5,91.5C 84.9166,90.0282 89.2499,88.3615 93.5,86.5 Z"/></g>
<g><path style="opacity:1" fill="#18171e" d="M 169.5,13.5 C 170.5,13.5 171.5,13.5 172.5,13.5C 172.253,15.8583 172.919,17.8583 174.5,19.5C 174.5,30.1667 174.5,40.8333 174.5,51.5C 173.586,54.728 173.253,58.0613 173.5,61.5C 173.267,66.8937 172.601,72.227 171.5,77.5C 170.517,81.2984 170.183,85.2984 170.5,89.5C 169.088,91.6036 168.088,93.9369 167.5,96.5C 169.978,97.694 167.978,97.8607 161.5,97C 159.593,95.878 157.593,95.0447 155.5,94.5C 157.519,92.4943 159.852,90.8276 162.5,89.5C 164.252,87.7541 165.585,85.7541 166.5,83.5C 167.919,79.9852 168.586,76.3186 168.5,72.5C 172.005,72.3059 172.338,71.3059 169.5,69.5C 169.575,66.7938 169.908,64.1272 170.5,61.5C 171.644,57.0363 172.31,52.3696 172.5,47.5C 172.682,38.1297 172.182,28.7964 171,19.5C 170.722,18.5842 170.222,17.9175 169.5,17.5C 169.5,16.1667 169.5,14.8333 169.5,13.5 Z"/></g>
<g><path style="opacity:1" fill="#6a98ca" d="M 190.5,79.5 C 191.338,79.8417 191.672,80.5084 191.5,81.5C 190.662,81.8417 190.328,82.5084 190.5,83.5C 189.368,87.019 188.368,90.6857 187.5,94.5C 186.532,92.3926 186.198,90.0593 186.5,87.5C 187.738,85.7857 188.405,83.7857 188.5,81.5C 189.5,81.1667 190.167,80.5 190.5,79.5 Z"/></g>
<g><path style="opacity:1" fill="#252a42" d="M 199.5,67.5 C 207.55,69.3552 215.55,72.1885 223.5,76C 224.866,77.5998 225.866,79.4332 226.5,81.5C 227.425,82.6405 228.259,82.6405 229,81.5C 229.388,82.428 230.055,83.0946 231,83.5C 232.819,81.8743 234.152,79.8743 235,77.5C 236.816,78.3295 238.649,79.1628 240.5,80C 242.3,84.8448 244.967,89.1781 248.5,93C 249.635,93.7494 250.635,93.5827 251.5,92.5C 249.622,87.0358 250.955,85.7025 255.5,88.5C 255.5,99.8333 255.5,111.167 255.5,122.5C 251.399,126.101 246.899,129.101 242,131.5C 240.192,131.112 238.525,131.112 237,131.5C 234.205,133.646 231.039,134.813 227.5,135C 226.333,135.5 225.5,136.333 225,137.5C 223.413,136.273 222.079,136.606 221,138.5C 220.586,138.043 220.086,137.709 219.5,137.5C 214.448,140.102 209.448,141.769 204.5,142.5C 202.529,140.192 200.529,137.858 198.5,135.5C 201.314,135.053 204.314,134.886 207.5,135C 215.605,132.585 223.272,130.085 230.5,127.5C 233.008,124.676 235.341,121.676 237.5,118.5C 240.161,117.501 242.828,116.501 245.5,115.5C 247.202,113.711 247.369,112.045 246,110.5C 245.163,104.468 244.163,98.4679 243,92.5C 240.655,89.8231 237.988,87.4897 235,85.5C 233.252,92.0866 233.086,98.7533 234.5,105.5C 232.25,105.819 230.25,105.319 228.5,104C 228.833,103.667 229.167,103.333 229.5,103C 227.851,99.7117 226.018,96.545 224,93.5C 223.501,89.8484 223.335,86.1817 223.5,82.5C 216.616,79.8094 209.616,77.3094 202.5,75C 199.959,73.1516 198.959,70.6516 199.5,67.5 Z"/></g>
<g><path style="opacity:1" fill="#244069" d="M 108.5,80.5 C 111.391,81.4025 114.391,81.7359 117.5,81.5C 117.993,83.8056 118.326,86.139 118.5,88.5C 118.909,92.4989 118.075,96.1656 116,99.5C 115.624,95.5578 113.458,93.8911 109.5,94.5C 109.248,99.5186 108.748,104.519 108,109.5C 105.69,114.766 103.19,119.933 100.5,125C 101.424,126.15 101.424,127.15 100.5,128C 101.71,129.039 102.71,130.206 103.5,131.5C 102.167,131.5 100.833,131.5 99.5,131.5C 97.3469,130.427 95.3469,130.427 93.5,131.5C 92.5416,131.953 91.7083,132.619 91,133.5C 90.7435,130.443 90.2435,127.443 89.5,124.5C 89.9569,123.702 90.6236,123.369 91.5,123.5C 91.8333,123.5 92.1667,123.5 92.5,123.5C 92.8656,124.695 93.699,125.361 95,125.5C 98.8074,123.768 100.474,120.768 100,116.5C 103.868,107.566 107.368,98.3996 110.5,89C 109.614,86.8882 109.614,84.7216 110.5,82.5C 106.658,82.8925 102.991,83.8925 99.5,85.5C 101.759,82.5905 104.759,80.9239 108.5,80.5 Z"/></g>
<g><path style="opacity:1" fill="#2c52ad" d="M 92.5,123.5 C 92.1667,123.5 91.8333,123.5 91.5,123.5C 91.0679,122.29 90.4013,121.29 89.5,120.5C 89.6998,115.591 90.6998,110.924 92.5,106.5C 93.5,106.5 94.5,106.5 95.5,106.5C 95.7076,104.08 95.3742,101.747 94.5,99.5C 92.0508,98.0903 89.8841,98.4237 88,100.5C 86.9148,99.7069 85.7481,99.0402 84.5,98.5C 81.9387,100.64 79.6054,102.973 77.5,105.5C 77.1845,108.191 76.8511,110.857 76.5,113.5C 69.6013,110.926 66.268,105.926 66.5,98.5C 71.6022,99.1415 75.6022,97.4749 78.5,93.5C 81.3274,93.4162 83.994,92.7496 86.5,91.5C 90.4623,91.0129 94.2957,90.0129 98,88.5C 103.629,90.4577 104.629,93.791 101,98.5C 100.921,104.953 100.088,111.287 98.5,117.5C 96.7911,119.876 94.7911,121.876 92.5,123.5 Z"/></g>
<g><path style="opacity:1" fill="#020509" d="M 170.5,89.5 C 171.014,91.8679 172.18,93.8679 174,95.5C 174.251,97.433 174.751,99.2663 175.5,101C 170.905,100.785 166.239,100.451 161.5,100C 158.47,99.4218 155.803,98.2552 153.5,96.5C 154.338,96.1583 154.672,95.4916 154.5,94.5C 154.833,94.5 155.167,94.5 155.5,94.5C 157.593,95.0447 159.593,95.878 161.5,97C 167.978,97.8607 169.978,97.694 167.5,96.5C 168.088,93.9369 169.088,91.6036 170.5,89.5 Z"/></g>
<g><path style="opacity:1" fill="#2b5b9c" d="M 184.5,83.5 C 185.359,85.1059 185.526,86.7725 185,88.5C 185.383,87.944 185.883,87.6107 186.5,87.5C 186.198,90.0593 186.532,92.3926 187.5,94.5C 185.527,95.806 183.861,97.4727 182.5,99.5C 181.292,100.234 179.959,100.567 178.5,100.5C 179.061,97.538 180.061,94.7047 181.5,92C 181.43,91.2352 181.097,90.7352 180.5,90.5C 181.979,88.2347 183.313,85.9013 184.5,83.5 Z"/></g>
<g><path style="opacity:1" fill="#47527c" d="M 190.5,83.5 C 190.491,85.3084 190.991,86.9751 192,88.5C 194.333,89.8333 196.667,91.1667 199,92.5C 199.27,89.6383 200.104,86.9716 201.5,84.5C 205.983,87.2934 210.816,89.2934 216,90.5C 219.321,92.1422 220.821,94.8089 220.5,98.5C 219.886,103.118 218.886,107.618 217.5,112C 218.167,112.333 218.833,112.667 219.5,113C 217.623,115.921 215.623,118.754 213.5,121.5C 209.016,122.807 204.349,124.474 199.5,126.5C 195.924,126.093 192.258,126.093 188.5,126.5C 188.167,126.5 187.833,126.5 187.5,126.5C 185.594,122.078 183.428,117.744 181,113.5C 180.346,112.304 179.846,112.304 179.5,113.5C 180.571,117.314 182.404,120.647 185,123.5C 184.893,126.592 186.059,128.925 188.5,130.5C 189.802,132.69 191.469,134.69 193.5,136.5C 191.955,137.452 190.288,137.785 188.5,137.5C 183.872,129.625 180.205,121.292 177.5,112.5C 177.833,111.833 178.167,111.167 178.5,110.5C 180.807,107.383 182.474,103.883 183.5,100C 183.272,99.6012 182.938,99.4346 182.5,99.5C 183.861,97.4727 185.527,95.806 187.5,94.5C 188.368,90.6857 189.368,87.019 190.5,83.5 Z"/></g>
<g><path style="opacity:1" fill="#708c99" d="M 135.5,97.5 C 137.5,97.5 139.5,97.5 141.5,97.5C 141.5,97.8333 141.5,98.1667 141.5,98.5C 140.183,98.821 138.849,99.1543 137.5,99.5C 136.287,99.2528 135.62,98.5862 135.5,97.5 Z"/></g>
<g><path style="opacity:1" fill="#061318" d="M 46.5,93.5 C 46.9731,94.9063 47.9731,95.573 49.5,95.5C 51.0005,98.6573 52.0005,101.991 52.5,105.5C 52.631,106.239 52.4643,106.906 52,107.5C 51.1253,104.785 49.2919,103.452 46.5,103.5C 46.7428,100.117 46.0761,96.9508 44.5,94C 45.0944,93.5357 45.7611,93.369 46.5,93.5 Z"/></g>
<g><path style="opacity:1" fill="#182a68" d="M 135.5,97.5 C 135.62,98.5862 136.287,99.2528 137.5,99.5C 138.849,99.1543 140.183,98.821 141.5,98.5C 146.47,97.6034 147.47,98.9367 144.5,102.5C 143.086,101.535 142.253,100.535 142,99.5C 140.234,100.233 138.401,100.567 136.5,100.5C 133.462,98.7494 132.295,96.0828 133,92.5C 134.094,94.0779 134.928,95.7446 135.5,97.5 Z"/></g>
<g><path style="opacity:1" fill="#070e26" d="M 11.5,98.5 C 14.5296,101.014 17.863,103.014 21.5,104.5C 24.4838,108.189 23.4838,109.856 18.5,109.5C 16.9102,109.628 15.5769,110.295 14.5,111.5C 17.5939,114.583 20.2606,117.916 22.5,121.5C 18.7173,118.417 15.0506,115.084 11.5,111.5C 11.9767,110.522 12.6433,109.689 13.5,109C 10.9409,106.561 8.60754,103.895 6.5,101C 7.64918,99.2559 8.98251,99.0892 10.5,100.5C 11.2975,100.043 11.6309,99.3764 11.5,98.5 Z"/></g>
<g><path style="opacity:1" fill="#4b6796" d="M 58.5,91.5 C 60.099,91.2322 61.4324,91.5655 62.5,92.5C 61.325,92.281 60.325,92.6143 59.5,93.5C 58.6518,95.4086 58.3184,97.4086 58.5,99.5C 63.1813,99.8757 64.5146,102.209 62.5,106.5C 61.5832,107.127 60.5832,107.461 59.5,107.5C 53.5925,102.592 53.2592,97.2588 58.5,91.5 Z"/></g>
<g><path style="opacity:1" fill="#172c4c" d="M 118.5,88.5 C 121.814,95.1279 125.147,101.795 128.5,108.5C 127.883,108.389 127.383,108.056 127,107.5C 126.218,110.31 125.384,112.977 124.5,115.5C 123.621,113.77 122.288,112.437 120.5,111.5C 117.684,113.748 114.517,115.414 111,116.5C 110.144,120.919 108.644,125.086 106.5,129C 107.315,130.643 108.315,132.143 109.5,133.5C 107.085,134.648 105.085,133.982 103.5,131.5C 102.71,130.206 101.71,129.039 100.5,128C 101.424,127.15 101.424,126.15 100.5,125C 103.19,119.933 105.69,114.766 108,109.5C 108.748,104.519 109.248,99.5186 109.5,94.5C 113.458,93.8911 115.624,95.5578 116,99.5C 118.075,96.1656 118.909,92.4989 118.5,88.5 Z"/></g>
<g><path style="opacity:1" fill="#304662" d="M 46.5,87.5 C 49.6329,91.0778 53.6329,92.4111 58.5,91.5C 53.2592,97.2588 53.5925,102.592 59.5,107.5C 58.325,107.281 57.325,107.614 56.5,108.5C 57.4671,110.79 58.8004,112.79 60.5,114.5C 59.5084,114.328 58.8417,114.662 58.5,115.5C 58.1667,115.5 57.8333,115.5 57.5,115.5C 56.6803,111.698 55.0136,108.364 52.5,105.5C 52.0005,101.991 51.0005,98.6573 49.5,95.5C 48.8008,92.6897 47.8008,90.023 46.5,87.5 Z"/></g>
<g><path style="opacity:1" fill="#0a1a34" d="M 170.5,89.5 C 172.481,91.1436 174.481,92.8103 176.5,94.5C 178.274,93.6304 179.607,92.297 180.5,90.5C 181.097,90.7352 181.43,91.2352 181.5,92C 180.061,94.7047 179.061,97.538 178.5,100.5C 179.959,100.567 181.292,100.234 182.5,99.5C 182.938,99.4346 183.272,99.6012 183.5,100C 182.474,103.883 180.807,107.383 178.5,110.5C 178.631,109.761 178.464,109.094 178,108.5C 175.575,111.053 173.408,113.72 171.5,116.5C 170.167,117.167 169.167,118.167 168.5,119.5C 166.022,120.195 164.022,121.695 162.5,124C 156.384,125.391 153.384,122.891 153.5,116.5C 154.815,117.476 156.148,118.476 157.5,119.5C 158.429,118.311 158.762,116.978 158.5,115.5C 160.591,115.318 162.591,115.652 164.5,116.5C 165.85,115.05 167.516,114.383 169.5,114.5C 169.664,111.813 169.497,109.146 169,106.5C 168.586,106.043 168.086,105.709 167.5,105.5C 166.824,106.602 166.158,107.602 165.5,108.5C 165.249,106.83 164.582,105.33 163.5,104C 160.961,103.204 158.628,103.371 156.5,104.5C 155.167,104.5 153.833,104.5 152.5,104.5C 152.662,106.527 152.495,108.527 152,110.5C 150.186,106.637 149.02,106.97 148.5,111.5C 146.916,109.471 145.583,107.138 144.5,104.5C 143.386,103.224 142.386,103.224 141.5,104.5C 139.337,105.281 139.004,104.447 140.5,102C 138.942,101.79 137.609,101.29 136.5,100.5C 138.401,100.567 140.234,100.233 142,99.5C 142.253,100.535 143.086,101.535 144.5,102.5C 147.47,98.9367 146.47,97.6034 141.5,98.5C 141.5,98.1667 141.5,97.8333 141.5,97.5C 142.5,97.5 143.5,97.5 144.5,97.5C 144.5,96.5 144.5,95.5 144.5,94.5C 145.404,95.209 145.737,96.209 145.5,97.5C 146.5,97.5 147.5,97.5 148.5,97.5C 150.216,97.3713 151.883,97.038 153.5,96.5C 155.803,98.2552 158.47,99.4218 161.5,100C 166.239,100.451 170.905,100.785 175.5,101C 174.751,99.2663 174.251,97.433 174,95.5C 172.18,93.8679 171.014,91.8679 170.5,89.5 Z"/></g>
<g><path style="opacity:1" fill="#204ba5" d="M 165.5,108.5 C 165.804,109.15 166.137,109.817 166.5,110.5C 163.553,111.658 160.553,112.158 157.5,112C 156.565,109.619 156.232,107.119 156.5,104.5C 158.628,103.371 160.961,103.204 163.5,104C 164.582,105.33 165.249,106.83 165.5,108.5 Z"/></g>
<g><path style="opacity:1" fill="#303755" d="M 199.5,67.5 C 198.959,70.6516 199.959,73.1516 202.5,75C 209.616,77.3094 216.616,79.8094 223.5,82.5C 223.335,86.1817 223.501,89.8484 224,93.5C 226.018,96.545 227.851,99.7117 229.5,103C 229.167,103.333 228.833,103.667 228.5,104C 230.25,105.319 232.25,105.819 234.5,105.5C 233.086,98.7533 233.252,92.0866 235,85.5C 237.988,87.4897 240.655,89.8231 243,92.5C 244.163,98.4679 245.163,104.468 246,110.5C 247.369,112.045 247.202,113.711 245.5,115.5C 242.828,116.501 240.161,117.501 237.5,118.5C 235.341,121.676 233.008,124.676 230.5,127.5C 223.272,130.085 215.605,132.585 207.5,135C 204.314,134.886 201.314,135.053 198.5,135.5C 194.717,134.946 192.05,132.946 190.5,129.5C 192.467,129.739 194.301,129.406 196,128.5C 197.707,129.459 199.541,130.125 201.5,130.5C 206.041,129.285 210.374,127.619 214.5,125.5C 215.086,125.709 215.586,126.043 216,126.5C 217.543,124.622 219.376,123.122 221.5,122C 222.785,120.688 222.785,118.855 221.5,116.5C 222.552,116.649 223.552,116.483 224.5,116C 223.233,114.204 223.233,112.371 224.5,110.5C 224.023,109.522 223.357,108.689 222.5,108C 223.308,107.692 223.975,107.192 224.5,106.5C 222.682,105.176 221.682,103.343 221.5,101C 222.673,96.1347 222.673,91.3014 221.5,86.5C 214.79,82.6679 207.957,80.0012 201,78.5C 200.474,81.2716 199.641,83.9382 198.5,86.5C 195.531,85.5342 193.198,83.8675 191.5,81.5C 191.672,80.5084 191.338,79.8417 190.5,79.5C 191.568,78.5655 192.901,78.2322 194.5,78.5C 194.5,77.5 194.5,76.5 194.5,75.5C 195.735,75.7214 196.735,76.3881 197.5,77.5C 198.452,75.9547 198.785,74.288 198.5,72.5C 198.216,70.5853 198.549,68.9187 199.5,67.5 Z"/></g>
<g><path style="opacity:1" fill="#0a1930" d="M 21.5,92.5 C 24.3664,95.5211 27.6997,98.0211 31.5,100C 36.0962,101.466 40.7629,102.632 45.5,103.5C 45.3732,98.7679 43.7065,94.7679 40.5,91.5C 40.369,90.7611 40.5357,90.0944 41,89.5C 42.3333,90.1667 43.3333,91.1667 44,92.5C 45.4609,91.1175 46.2942,91.4508 46.5,93.5C 45.7611,93.369 45.0944,93.5357 44.5,94C 46.0761,96.9508 46.7428,100.117 46.5,103.5C 49.2919,103.452 51.1253,104.785 52,107.5C 52.4643,106.906 52.631,106.239 52.5,105.5C 55.0136,108.364 56.6803,111.698 57.5,115.5C 55.2239,115.244 54.0572,113.91 54,111.5C 50.6309,115.037 47.1309,118.371 43.5,121.5C 43.5,119.167 43.5,116.833 43.5,114.5C 40.8333,113.833 38.1667,113.167 35.5,112.5C 35.5,111.833 35.1667,111.5 34.5,111.5C 32.5242,109.989 30.1909,109.156 27.5,109C 26.552,104.261 24.2187,100.428 20.5,97.5C 19.4434,95.0587 18.11,92.7254 16.5,90.5C 16.6667,90.1667 16.8333,89.8333 17,89.5C 18.129,91.1412 19.629,92.1412 21.5,92.5 Z"/></g>
<g><path style="opacity:1" fill="#2d4d8b" d="M 62.5,92.5 C 65.4059,92.9157 68.2393,93.5824 71,94.5C 73.4979,94.0828 75.9979,93.7495 78.5,93.5C 75.6022,97.4749 71.6022,99.1415 66.5,98.5C 66.268,105.926 69.6013,110.926 76.5,113.5C 80.6301,114.256 84.6301,115.256 88.5,116.5C 88.2322,118.099 88.5655,119.432 89.5,120.5C 90.4013,121.29 91.0679,122.29 91.5,123.5C 90.6236,123.369 89.9569,123.702 89.5,124.5C 90.2435,127.443 90.7435,130.443 91,133.5C 91.7083,132.619 92.5416,131.953 93.5,131.5C 92.7571,134.57 90.7571,136.236 87.5,136.5C 87.2437,134.063 86.5771,131.729 85.5,129.5C 85.7093,128.914 86.0426,128.414 86.5,128C 84.4367,124.899 82.1034,122.065 79.5,119.5C 81.4835,119.383 83.1502,120.05 84.5,121.5C 85.7112,120.726 85.7112,119.893 84.5,119C 80.2708,117.647 76.2708,115.813 72.5,113.5C 71.6879,112.007 70.3545,111.34 68.5,111.5C 65.8029,112.519 63.1363,113.519 60.5,114.5C 58.8004,112.79 57.4671,110.79 56.5,108.5C 57.325,107.614 58.325,107.281 59.5,107.5C 60.5832,107.461 61.5832,107.127 62.5,106.5C 64.5146,102.209 63.1813,99.8757 58.5,99.5C 58.3184,97.4086 58.6518,95.4086 59.5,93.5C 60.325,92.6143 61.325,92.281 62.5,92.5 Z"/></g>
<g><path style="opacity:1" fill="#4363c4" d="M 89.5,120.5 C 88.5655,119.432 88.2322,118.099 88.5,116.5C 84.6301,115.256 80.6301,114.256 76.5,113.5C 76.8511,110.857 77.1845,108.191 77.5,105.5C 79.6054,102.973 81.9387,100.64 84.5,98.5C 85.7481,99.0402 86.9148,99.7069 88,100.5C 89.8841,98.4237 92.0508,98.0903 94.5,99.5C 95.3742,101.747 95.7076,104.08 95.5,106.5C 94.5,106.5 93.5,106.5 92.5,106.5C 90.6998,110.924 89.6998,115.591 89.5,120.5 Z"/></g>
<g><path style="opacity:1" fill="#1a2e78" d="M 20.5,97.5 C 24.2187,100.428 26.552,104.261 27.5,109C 30.1909,109.156 32.5242,109.989 34.5,111.5C 33.5,111.5 32.5,111.5 31.5,111.5C 31.3433,112.873 31.51,114.207 32,115.5C 35.2392,118.327 37.7392,121.66 39.5,125.5C 39.0679,126.71 38.4013,127.71 37.5,128.5C 34.5718,128.435 31.9052,127.768 29.5,126.5C 27.8333,123.167 26.1667,119.833 24.5,116.5C 23.5,116.5 22.5,116.5 21.5,116.5C 20.9573,113.962 19.9573,111.628 18.5,109.5C 23.4838,109.856 24.4838,108.189 21.5,104.5C 22.0431,104.44 22.3764,104.107 22.5,103.5C 21.6279,101.55 20.9612,99.5504 20.5,97.5 Z"/></g>
<g><path style="opacity:1" fill="#7a190c" d="M 148.5,111.5 C 148.5,111.833 148.5,112.167 148.5,112.5C 148.821,113.817 149.154,115.151 149.5,116.5C 148.533,118.762 147.866,121.095 147.5,123.5C 146.178,123.67 145.011,123.337 144,122.5C 142.519,116.581 141.686,110.581 141.5,104.5C 142.386,103.224 143.386,103.224 144.5,104.5C 145.583,107.138 146.916,109.471 148.5,111.5 Z"/></g>
<g><path style="opacity:1" fill="#779dc3" d="M 72.5,113.5 C 72.5,114.167 72.5,114.833 72.5,115.5C 67.4052,114.91 62.7385,115.91 58.5,118.5C 59.1157,117.202 59.1157,116.202 58.5,115.5C 58.8417,114.662 59.5084,114.328 60.5,114.5C 63.1363,113.519 65.8029,112.519 68.5,111.5C 70.3545,111.34 71.6879,112.007 72.5,113.5 Z"/></g>
<g><path style="opacity:1" fill="#254fbd" d="M 34.5,111.5 C 35.1667,111.5 35.5,111.833 35.5,112.5C 38.4534,115.603 40.4534,119.269 41.5,123.5C 41.1667,124.5 40.5,125.167 39.5,125.5C 37.7392,121.66 35.2392,118.327 32,115.5C 31.51,114.207 31.3433,112.873 31.5,111.5C 32.5,111.5 33.5,111.5 34.5,111.5 Z"/></g>
<g><path style="opacity:1" fill="#132f72" d="M 156.5,104.5 C 156.232,107.119 156.565,109.619 157.5,112C 160.553,112.158 163.553,111.658 166.5,110.5C 166.137,109.817 165.804,109.15 165.5,108.5C 166.158,107.602 166.824,106.602 167.5,105.5C 168.086,105.709 168.586,106.043 169,106.5C 169.497,109.146 169.664,111.813 169.5,114.5C 167.516,114.383 165.85,115.05 164.5,116.5C 162.591,115.652 160.591,115.318 158.5,115.5C 158.762,116.978 158.429,118.311 157.5,119.5C 156.148,118.476 154.815,117.476 153.5,116.5C 151.858,115.197 150.191,113.864 148.5,112.5C 148.5,112.167 148.5,111.833 148.5,111.5C 149.02,106.97 150.186,106.637 152,110.5C 152.495,108.527 152.662,106.527 152.5,104.5C 153.833,104.5 155.167,104.5 156.5,104.5 Z"/></g>
<g><path style="opacity:1" fill="#24498f" d="M 92.5,123.5 C 94.7911,121.876 96.7911,119.876 98.5,117.5C 100.088,111.287 100.921,104.953 101,98.5C 104.629,93.791 103.629,90.4577 98,88.5C 94.2957,90.0129 90.4623,91.0129 86.5,91.5C 89.47,90.3468 92.1367,88.6801 94.5,86.5C 96.0418,85.6993 97.7085,85.366 99.5,85.5C 102.991,83.8925 106.658,82.8925 110.5,82.5C 109.614,84.7216 109.614,86.8882 110.5,89C 107.368,98.3996 103.868,107.566 100,116.5C 100.474,120.768 98.8074,123.768 95,125.5C 93.699,125.361 92.8656,124.695 92.5,123.5 Z"/></g>
<g><path style="opacity:1" fill="#060f17" d="M 119.5,73.5 C 120.325,78.9769 122.325,83.9769 125.5,88.5C 126.768,89.4279 128.101,89.5946 129.5,89C 127.671,87.8867 126.837,86.3867 127,84.5C 131.926,89.5426 137.759,92.8759 144.5,94.5C 144.5,95.5 144.5,96.5 144.5,97.5C 143.5,97.5 142.5,97.5 141.5,97.5C 139.5,97.5 137.5,97.5 135.5,97.5C 134.928,95.7446 134.094,94.0779 133,92.5C 132.295,96.0828 133.462,98.7494 136.5,100.5C 137.609,101.29 138.942,101.79 140.5,102C 139.004,104.447 139.337,105.281 141.5,104.5C 141.686,110.581 142.519,116.581 144,122.5C 145.011,123.337 146.178,123.67 147.5,123.5C 147.866,121.095 148.533,118.762 149.5,116.5C 149.154,115.151 148.821,113.817 148.5,112.5C 150.191,113.864 151.858,115.197 153.5,116.5C 153.384,122.891 156.384,125.391 162.5,124C 164.022,121.695 166.022,120.195 168.5,119.5C 168.294,122.495 168.96,125.162 170.5,127.5C 168.855,130.599 167.688,133.932 167,137.5C 166.586,137.043 166.086,136.709 165.5,136.5C 164.526,138.743 164.192,141.076 164.5,143.5C 161.167,143.5 157.833,143.5 154.5,143.5C 154.5,140.5 154.5,137.5 154.5,134.5C 151.192,135.026 149.026,133.693 148,130.5C 147.333,131.833 146.667,131.833 146,130.5C 145.667,131.5 145.333,132.5 145,133.5C 143.301,132.594 141.467,132.261 139.5,132.5C 138.207,130.704 136.707,129.037 135,127.5C 134.109,120.658 131.942,114.324 128.5,108.5C 125.147,101.795 121.814,95.1279 118.5,88.5C 118.326,86.139 117.993,83.8056 117.5,81.5C 114.391,81.7359 111.391,81.4025 108.5,80.5C 109.29,79.5987 110.29,78.9321 111.5,78.5C 113.967,78.2451 115.967,77.2451 117.5,75.5C 117.833,74.5 118.5,73.8333 119.5,73.5 Z"/></g>
<g><path style="opacity:1" fill="#9bc2d8" d="M 57.5,115.5 C 57.8333,115.5 58.1667,115.5 58.5,115.5C 59.1157,116.202 59.1157,117.202 58.5,118.5C 58.1667,118.5 57.8333,118.5 57.5,118.5C 56.0536,117.387 54.3869,117.22 52.5,118C 48.9789,119.592 45.6456,121.425 42.5,123.5C 42.3284,122.508 42.6618,121.842 43.5,121.5C 47.1309,118.371 50.6309,115.037 54,111.5C 54.0572,113.91 55.2239,115.244 57.5,115.5 Z"/></g>
<g><path style="opacity:1" fill="#4f76a4" d="M 72.5,113.5 C 76.2708,115.813 80.2708,117.647 84.5,119C 85.7112,119.893 85.7112,120.726 84.5,121.5C 83.1502,120.05 81.4835,119.383 79.5,119.5C 77.0713,118.449 74.738,117.116 72.5,115.5C 72.5,114.833 72.5,114.167 72.5,113.5 Z"/></g>
<g><path style="opacity:1" fill="#050916" d="M 2.5,92.5 C 3.92203,93.925 5.5887,94.925 7.5,95.5C 8.43634,96.9744 9.76967,97.9744 11.5,98.5C 11.6309,99.3764 11.2975,100.043 10.5,100.5C 8.98251,99.0892 7.64918,99.2559 6.5,101C 8.60754,103.895 10.9409,106.561 13.5,109C 12.6433,109.689 11.9767,110.522 11.5,111.5C 15.0506,115.084 18.7173,118.417 22.5,121.5C 23.9923,124.323 26.3257,125.99 29.5,126.5C 31.9052,127.768 34.5718,128.435 37.5,128.5C 37.5,128.833 37.5,129.167 37.5,129.5C 35.5,131.833 33.5,134.167 31.5,136.5C 31.16,134.321 30.16,132.488 28.5,131C 23.0381,128.362 17.7047,125.529 12.5,122.5C 10.8653,123.046 9.19863,123.38 7.5,123.5C 7.63831,127.693 5.63831,130.027 1.5,130.5C 1.5,134.833 1.5,139.167 1.5,143.5C 0.833333,143.5 0.166667,143.5 -0.5,143.5C -0.5,138.833 -0.5,134.167 -0.5,129.5C 1.04814,129.179 1.71481,128.179 1.5,126.5C 4.24397,126.8 5.91064,125.633 6.5,123C 5.92168,119.094 4.42168,115.594 2,112.5C 1.17935,105.654 1.34602,98.987 2.5,92.5 Z"/></g>
<g><path style="opacity:1" fill="#1e3c87" d="M 35.5,112.5 C 38.1667,113.167 40.8333,113.833 43.5,114.5C 43.5,116.833 43.5,119.167 43.5,121.5C 42.6618,121.842 42.3284,122.508 42.5,123.5C 42.1667,123.5 41.8333,123.5 41.5,123.5C 40.4534,119.269 38.4534,115.603 35.5,112.5 Z"/></g>
<g><path style="opacity:1" fill="#2f5bb8" d="M 83.5,131.5 C 80.2107,129.17 76.8774,126.837 73.5,124.5C 72.841,121.176 70.841,119.843 67.5,120.5C 64.5187,120.439 61.852,121.272 59.5,123C 61.5497,124.636 62.5497,126.802 62.5,129.5C 61.1779,129.67 60.0113,129.337 59,128.5C 58.6121,129.428 57.9454,130.095 57,130.5C 55.0025,129.34 53.1692,129.34 51.5,130.5C 51.4894,132.017 50.8228,133.184 49.5,134C 43.8773,135.123 39.8773,138.29 37.5,143.5C 35.8333,143.5 34.1667,143.5 32.5,143.5C 33.8001,139.704 36.4668,137.537 40.5,137C 42.0708,133.926 44.4042,131.76 47.5,130.5C 51.9301,127.575 55.9301,124.075 59.5,120C 66.2575,116.232 72.5908,116.732 78.5,121.5C 79.1243,123.958 80.6243,125.624 83,126.5C 84.5193,128.139 84.686,129.806 83.5,131.5 Z"/></g>
<g><path style="opacity:1" fill="#881a0b" d="M 178.5,110.5 C 178.167,111.167 177.833,111.833 177.5,112.5C 175.065,116.799 173.398,121.466 172.5,126.5C 172.167,126.5 171.833,126.5 171.5,126.5C 170.3,123.302 170.3,119.969 171.5,116.5C 173.408,113.72 175.575,111.053 178,108.5C 178.464,109.094 178.631,109.761 178.5,110.5 Z"/></g>
<g><path style="opacity:1" fill="#83b2dd" d="M 187.5,126.5 C 187.833,127.833 188.167,129.167 188.5,130.5C 186.059,128.925 184.893,126.592 185,123.5C 182.404,120.647 180.571,117.314 179.5,113.5C 179.846,112.304 180.346,112.304 181,113.5C 183.428,117.744 185.594,122.078 187.5,126.5 Z"/></g>
<g><path style="opacity:1" fill="#0f1536" d="M -0.5,91.5 C 0.791047,91.2627 1.79105,91.596 2.5,92.5C 1.34602,98.987 1.17935,105.654 2,112.5C 4.42168,115.594 5.92168,119.094 6.5,123C 5.91064,125.633 4.24397,126.8 1.5,126.5C 1.71481,128.179 1.04814,129.179 -0.5,129.5C -0.5,116.833 -0.5,104.167 -0.5,91.5 Z"/></g>
<g><path style="opacity:1" fill="#101b55" d="M 18.5,109.5 C 19.9573,111.628 20.9573,113.962 21.5,116.5C 22.5,116.5 23.5,116.5 24.5,116.5C 26.1667,119.833 27.8333,123.167 29.5,126.5C 26.3257,125.99 23.9923,124.323 22.5,121.5C 20.2606,117.916 17.5939,114.583 14.5,111.5C 15.5769,110.295 16.9102,109.628 18.5,109.5 Z"/></g>
<g><path style="opacity:1" fill="#000101" d="M 31.5,136.5 C 30.242,138.687 29.242,141.02 28.5,143.5C 19.5,143.5 10.5,143.5 1.5,143.5C 1.5,139.167 1.5,134.833 1.5,130.5C 5.63831,130.027 7.63831,127.693 7.5,123.5C 9.19863,123.38 10.8653,123.046 12.5,122.5C 17.7047,125.529 23.0381,128.362 28.5,131C 30.16,132.488 31.16,134.321 31.5,136.5 Z"/></g>
<g><path style="opacity:1" fill="#b9e9fa" d="M 57.5,118.5 C 55.5,120.167 53.5,121.833 51.5,123.5C 50.2652,123.279 49.2652,122.612 48.5,121.5C 44.1903,123.976 40.6903,127.31 38,131.5C 37.5357,130.906 37.369,130.239 37.5,129.5C 37.5,129.167 37.5,128.833 37.5,128.5C 38.4013,127.71 39.0679,126.71 39.5,125.5C 40.5,125.167 41.1667,124.5 41.5,123.5C 41.8333,123.5 42.1667,123.5 42.5,123.5C 45.6456,121.425 48.9789,119.592 52.5,118C 54.3869,117.22 56.0536,117.387 57.5,118.5 Z"/></g>
<g><path style="opacity:1" fill="#58140b" d="M 171.5,116.5 C 170.3,119.969 170.3,123.302 171.5,126.5C 171.5,127.167 171.167,127.5 170.5,127.5C 168.96,125.162 168.294,122.495 168.5,119.5C 169.167,118.167 170.167,117.167 171.5,116.5 Z"/></g>
<g><path style="opacity:1" fill="#9fccf5" d="M 51.5,123.5 C 47.9599,128.199 43.2933,131.366 37.5,133C 35.3672,136.633 33.0339,140.133 30.5,143.5C 29.8333,143.5 29.1667,143.5 28.5,143.5C 29.242,141.02 30.242,138.687 31.5,136.5C 33.5,134.167 35.5,131.833 37.5,129.5C 37.369,130.239 37.5357,130.906 38,131.5C 40.6903,127.31 44.1903,123.976 48.5,121.5C 49.2652,122.612 50.2652,123.279 51.5,123.5 Z"/></g>
<g><path style="opacity:1" fill="#3a4264" d="M 190.5,129.5 C 189.599,128.71 188.932,127.71 188.5,126.5C 192.258,126.093 195.924,126.093 199.5,126.5C 204.349,124.474 209.016,122.807 213.5,121.5C 215.623,118.754 217.623,115.921 219.5,113C 218.833,112.667 218.167,112.333 217.5,112C 218.886,107.618 219.886,103.118 220.5,98.5C 220.821,94.8089 219.321,92.1422 216,90.5C 210.816,89.2934 205.983,87.2934 201.5,84.5C 200.104,86.9716 199.27,89.6383 199,92.5C 196.667,91.1667 194.333,89.8333 192,88.5C 190.991,86.9751 190.491,85.3084 190.5,83.5C 190.328,82.5084 190.662,81.8417 191.5,81.5C 193.198,83.8675 195.531,85.5342 198.5,86.5C 199.641,83.9382 200.474,81.2716 201,78.5C 207.957,80.0012 214.79,82.6679 221.5,86.5C 222.673,91.3014 222.673,96.1347 221.5,101C 221.682,103.343 222.682,105.176 224.5,106.5C 223.975,107.192 223.308,107.692 222.5,108C 223.357,108.689 224.023,109.522 224.5,110.5C 223.233,112.371 223.233,114.204 224.5,116C 223.552,116.483 222.552,116.649 221.5,116.5C 222.785,118.855 222.785,120.688 221.5,122C 219.376,123.122 217.543,124.622 216,126.5C 215.586,126.043 215.086,125.709 214.5,125.5C 210.374,127.619 206.041,129.285 201.5,130.5C 199.541,130.125 197.707,129.459 196,128.5C 194.301,129.406 192.467,129.739 190.5,129.5 Z"/></g>
<g><path style="opacity:1" fill="#0c141c" d="M 177.5,112.5 C 180.205,121.292 183.872,129.625 188.5,137.5C 187.167,137.833 185.833,138.167 184.5,138.5C 181.888,139.371 179.221,140.037 176.5,140.5C 176.223,135.462 174.89,130.795 172.5,126.5C 173.398,121.466 175.065,116.799 177.5,112.5 Z"/></g>
<g><path style="opacity:1" fill="#2c5dc5" d="M 83.5,131.5 C 84.1528,135.967 85.8195,139.967 88.5,143.5C 86.1667,143.5 83.8333,143.5 81.5,143.5C 81.3954,139.574 79.7288,136.574 76.5,134.5C 75.8333,132.5 75.1667,130.5 74.5,128.5C 71.3692,127.31 68.2025,126.31 65,125.5C 64.9663,130.259 62.633,132.926 58,133.5C 56.2589,131.546 54.0922,130.546 51.5,130.5C 53.1692,129.34 55.0025,129.34 57,130.5C 57.9454,130.095 58.6121,129.428 59,128.5C 60.0113,129.337 61.1779,129.67 62.5,129.5C 62.5497,126.802 61.5497,124.636 59.5,123C 61.852,121.272 64.5187,120.439 67.5,120.5C 70.841,119.843 72.841,121.176 73.5,124.5C 76.8774,126.837 80.2107,129.17 83.5,131.5 Z"/></g>
<g><path style="opacity:1" fill="#384e7a" d="M 124.5,115.5 C 124.5,117.167 124.5,118.833 124.5,120.5C 126.5,120.5 128.5,120.5 130.5,120.5C 130.48,122.143 131.147,123.476 132.5,124.5C 131.376,125.914 130.376,127.414 129.5,129C 128.551,129.617 127.718,129.451 127,128.5C 126.51,129.793 126.343,131.127 126.5,132.5C 122.333,133.1 118.167,133.766 114,134.5C 112.408,134.395 110.908,134.061 109.5,133.5C 108.315,132.143 107.315,130.643 106.5,129C 108.644,125.086 110.144,120.919 111,116.5C 114.517,115.414 117.684,113.748 120.5,111.5C 122.288,112.437 123.621,113.77 124.5,115.5 Z"/></g>
<g><path style="opacity:1" fill="#1f3545" d="M 171.5,126.5 C 171.833,126.5 172.167,126.5 172.5,126.5C 174.89,130.795 176.223,135.462 176.5,140.5C 179.221,140.037 181.888,139.371 184.5,138.5C 183.266,140.398 183.599,142.065 185.5,143.5C 178.5,143.5 171.5,143.5 164.5,143.5C 164.192,141.076 164.526,138.743 165.5,136.5C 166.086,136.709 166.586,137.043 167,137.5C 167.688,133.932 168.855,130.599 170.5,127.5C 171.167,127.5 171.5,127.167 171.5,126.5 Z"/></g>
<g><path style="opacity:1" fill="#336ddf" d="M 81.5,143.5 C 66.8333,143.5 52.1667,143.5 37.5,143.5C 39.8773,138.29 43.8773,135.123 49.5,134C 50.8228,133.184 51.4894,132.017 51.5,130.5C 54.0922,130.546 56.2589,131.546 58,133.5C 62.633,132.926 64.9663,130.259 65,125.5C 68.2025,126.31 71.3692,127.31 74.5,128.5C 75.1667,130.5 75.8333,132.5 76.5,134.5C 79.7288,136.574 81.3954,139.574 81.5,143.5 Z"/></g>
<g><path style="opacity:1" fill="#1d3557" d="M 128.5,108.5 C 131.942,114.324 134.109,120.658 135,127.5C 136.707,129.037 138.207,130.704 139.5,132.5C 141.626,133.126 143.293,134.459 144.5,136.5C 143.132,137.594 141.965,137.26 141,135.5C 140.251,136.635 140.417,137.635 141.5,138.5C 144.62,139.895 147.787,141.228 151,142.5C 150.217,140.655 149.884,138.655 150,136.5C 151.879,138.527 153.046,140.86 153.5,143.5C 150.167,143.5 146.833,143.5 143.5,143.5C 138.959,141.896 134.626,139.73 130.5,137C 122.841,136.5 115.174,136.334 107.5,136.5C 104.796,134.829 102.129,133.163 99.5,131.5C 100.833,131.5 102.167,131.5 103.5,131.5C 105.085,133.982 107.085,134.648 109.5,133.5C 110.908,134.061 112.408,134.395 114,134.5C 118.167,133.766 122.333,133.1 126.5,132.5C 126.343,131.127 126.51,129.793 127,128.5C 127.718,129.451 128.551,129.617 129.5,129C 130.376,127.414 131.376,125.914 132.5,124.5C 131.147,123.476 130.48,122.143 130.5,120.5C 128.5,120.5 126.5,120.5 124.5,120.5C 124.5,118.833 124.5,117.167 124.5,115.5C 125.384,112.977 126.218,110.31 127,107.5C 127.383,108.056 127.883,108.389 128.5,108.5 Z"/></g>
<g><path style="opacity:1" fill="#2952a6" d="M 72.5,115.5 C 74.738,117.116 77.0713,118.449 79.5,119.5C 82.1034,122.065 84.4367,124.899 86.5,128C 86.0426,128.414 85.7093,128.914 85.5,129.5C 86.5771,131.729 87.2437,134.063 87.5,136.5C 90.7571,136.236 92.7571,134.57 93.5,131.5C 95.3469,130.427 97.3469,130.427 99.5,131.5C 102.129,133.163 104.796,134.829 107.5,136.5C 107.993,138.806 108.326,141.139 108.5,143.5C 101.833,143.5 95.1667,143.5 88.5,143.5C 85.8195,139.967 84.1528,135.967 83.5,131.5C 84.686,129.806 84.5193,128.139 83,126.5C 80.6243,125.624 79.1243,123.958 78.5,121.5C 72.5908,116.732 66.2575,116.232 59.5,120C 55.9301,124.075 51.9301,127.575 47.5,130.5C 51.1667,126.5 54.8333,122.5 58.5,118.5C 62.7385,115.91 67.4052,114.91 72.5,115.5 Z"/></g>
<g><path style="opacity:1" fill="#769edc" d="M 57.5,118.5 C 57.8333,118.5 58.1667,118.5 58.5,118.5C 54.8333,122.5 51.1667,126.5 47.5,130.5C 44.4042,131.76 42.0708,133.926 40.5,137C 36.4668,137.537 33.8001,139.704 32.5,143.5C 31.8333,143.5 31.1667,143.5 30.5,143.5C 33.0339,140.133 35.3672,136.633 37.5,133C 43.2933,131.366 47.9599,128.199 51.5,123.5C 53.5,121.833 55.5,120.167 57.5,118.5 Z"/></g>
<g><path style="opacity:1" fill="#122435" d="M 154.5,143.5 C 154.167,143.5 153.833,143.5 153.5,143.5C 153.046,140.86 151.879,138.527 150,136.5C 149.884,138.655 150.217,140.655 151,142.5C 147.787,141.228 144.62,139.895 141.5,138.5C 140.417,137.635 140.251,136.635 141,135.5C 141.965,137.26 143.132,137.594 144.5,136.5C 143.293,134.459 141.626,133.126 139.5,132.5C 141.467,132.261 143.301,132.594 145,133.5C 145.333,132.5 145.667,131.5 146,130.5C 146.667,131.833 147.333,131.833 148,130.5C 149.026,133.693 151.192,135.026 154.5,134.5C 154.5,137.5 154.5,140.5 154.5,143.5 Z"/></g>
<g><path style="opacity:1" fill="#264c8b" d="M 107.5,136.5 C 115.174,136.334 122.841,136.5 130.5,137C 134.626,139.73 138.959,141.896 143.5,143.5C 137.5,143.5 131.5,143.5 125.5,143.5C 125.5,142.5 125.5,141.5 125.5,140.5C 128.718,140.349 129.051,139.516 126.5,138C 123.5,137.333 120.5,137.333 117.5,138C 117.146,139.626 117.146,141.459 117.5,143.5C 114.5,143.5 111.5,143.5 108.5,143.5C 108.326,141.139 107.993,138.806 107.5,136.5 Z"/></g>
<g><path style="opacity:1" fill="#4760ab" d="M 125.5,143.5 C 122.833,143.5 120.167,143.5 117.5,143.5C 117.146,141.459 117.146,139.626 117.5,138C 120.5,137.333 123.5,137.333 126.5,138C 129.051,139.516 128.718,140.349 125.5,140.5C 125.5,141.5 125.5,142.5 125.5,143.5 Z"/></g>
<g><path style="opacity:1" fill="#161a28" d="M 255.5,122.5 C 255.5,129.5 255.5,136.5 255.5,143.5C 238.5,143.5 221.5,143.5 204.5,143.5C 204.5,143.167 204.5,142.833 204.5,142.5C 209.448,141.769 214.448,140.102 219.5,137.5C 220.086,137.709 220.586,138.043 221,138.5C 222.079,136.606 223.413,136.273 225,137.5C 225.5,136.333 226.333,135.5 227.5,135C 231.039,134.813 234.205,133.646 237,131.5C 238.525,131.112 240.192,131.112 242,131.5C 246.899,129.101 251.399,126.101 255.5,122.5 Z"/></g>
<g><path style="opacity:1" fill="#9ac4cc" d="M 187.5,126.5 C 187.833,126.5 188.167,126.5 188.5,126.5C 188.932,127.71 189.599,128.71 190.5,129.5C 192.05,132.946 194.717,134.946 198.5,135.5C 200.529,137.858 202.529,140.192 204.5,142.5C 204.5,142.833 204.5,143.167 204.5,143.5C 198.167,143.5 191.833,143.5 185.5,143.5C 183.599,142.065 183.266,140.398 184.5,138.5C 185.833,138.167 187.167,137.833 188.5,137.5C 190.288,137.785 191.955,137.452 193.5,136.5C 191.469,134.69 189.802,132.69 188.5,130.5C 188.167,129.167 187.833,127.833 187.5,126.5 Z"/></g>
</svg>
