<?xml version="1.0" encoding="UTF-8"?>
<!DOCTYPE svg PUBLIC "-//W3C//DTD SVG 1.1//EN" "http://www.w3.org/Graphics/SVG/1.1/DTD/svg11.dtd">
<svg xmlns="http://www.w3.org/2000/svg" version="1.1" width="256px" height="144px" style="shape-rendering:geometricPrecision; text-rendering:geometricPrecision; image-rendering:optimizeQuality; fill-rule:evenodd; clip-rule:evenodd" xmlns:xlink="http://www.w3.org/1999/xlink">
<g><path style="opacity:1" fill="#001116" d="M -0.5,-0.5 C 28.1667,-0.5 56.8333,-0.5 85.5,-0.5C 85.8333,0.833333 86.1667,2.16667 86.5,3.5C 86.3404,5.15298 85.6737,6.48631 84.5,7.5C 83.2586,9.50871 81.5919,11.1754 79.5,12.5C 76.9778,11.8838 74.1445,11.5505 71,11.5C 70.3333,12.1667 69.6667,12.8333 69,13.5C 67.3333,13.5 65.6667,13.5 64,13.5C 62.1129,15.0261 61.1129,17.0261 61,19.5C 60.6667,17.8333 60.3333,16.1667 60,14.5C 59.3741,16.9913 58.5407,16.9913 57.5,14.5C 56.4593,16.9913 55.6259,16.9913 55,14.5C 53.33,16.6983 51.33,17.0317 49,15.5C 45.0931,17.3062 42.5931,20.3062 41.5,24.5C 36.8067,24.2672 32.6401,25.6005 29,28.5C 28,27.5 27,26.5 26,25.5C 23.8078,27.2353 21.3078,28.402 18.5,29C 18.8333,29.3333 19.1667,29.6667 19.5,30C 17.7818,30.346 16.1151,30.846 14.5,31.5C 10.7425,29.7494 7.74252,30.5827 5.5,34C 3.56429,34.813 1.56429,35.313 -0.5,35.5C -0.5,23.5 -0.5,11.5 -0.5,-0.5 Z"/></g>
<g><path style="opacity:1" fill="#372609" d="M 87.5,-0.5 C 90.5,-0.5 93.5,-0.5 96.5,-0.5C 97.2713,2.45401 97.938,5.45401 98.5,8.5C 94.7793,8.10888 91.7793,6.44222 89.5,3.5C 88.8333,2.16667 88.1667,0.833333 87.5,-0.5 Z"/></g>
<g><path style="opacity:1" fill="#2f1f1d" d="M 167.5,-0.5 C 178.833,-0.5 190.167,-0.5 201.5,-0.5C 200.889,6.28396 197.889,11.784 192.5,16C 191.216,16.6838 190.049,16.5171 189,15.5C 188.178,13.2115 187.511,10.8782 187,8.5C 185.98,12.7102 186.98,16.3768 190,19.5C 190.494,21.1341 190.66,22.8008 190.5,24.5C 189.167,24.5 187.833,24.5 186.5,24.5C 185.136,22.8089 183.803,21.1423 182.5,19.5C 181.194,17.1838 179.861,14.8505 178.5,12.5C 178.297,10.9557 177.63,9.62235 176.5,8.5C 173.146,5.81228 170.146,2.81228 167.5,-0.5 Z"/></g>
<g><path style="opacity:1" fill="#c1c6b0" d="M 85.5,-0.5 C 86.1667,-0.5 86.8333,-0.5 87.5,-0.5C 88.1667,0.833333 88.8333,2.16667 89.5,3.5C 91.1335,7.66391 92.1335,11.9972 92.5,16.5C 92.1667,16.5 91.8333,16.5 91.5,16.5C 90.8333,14.8333 90.1667,13.1667 89.5,11.5C 89.0972,8.51449 88.0972,5.84782 86.5,3.5C 86.1667,2.16667 85.8333,0.833333 85.5,-0.5 Z"/></g>
<g><path style="opacity:1" fill="#2d2314" d="M 154.5,-0.5 C 155.833,-0.5 157.167,-0.5 158.5,-0.5C 161.789,1.77129 165.122,4.10462 168.5,6.5C 168.62,9.57791 169.62,12.2446 171.5,14.5C 171.158,15.3382 170.492,15.6716 169.5,15.5C 169.167,15.5 168.833,15.5 168.5,15.5C 168.672,14.5084 168.338,13.8417 167.5,13.5C 163.867,8.19975 159.534,3.53308 154.5,-0.5 Z"/></g>
<g><path style="opacity:1" fill="#b9ad79" d="M 158.5,-0.5 C 159.833,-0.5 161.167,-0.5 162.5,-0.5C 168.388,3.04556 173.722,7.37889 178.5,12.5C 179.861,14.8505 181.194,17.1838 182.5,19.5C 182.5,20.1667 182.167,20.5 181.5,20.5C 177.873,15.2056 173.54,10.539 168.5,6.5C 165.122,4.10462 161.789,1.77129 158.5,-0.5 Z"/></g>
<g><path style="opacity:1" fill="#e57560" d="M 123.5,0.5 C 123.5,0.166667 123.5,-0.166667 123.5,-0.5C 126.167,-0.5 128.833,-0.5 131.5,-0.5C 133.833,2.16667 136.167,2.16667 138.5,-0.5C 140.167,-0.5 141.833,-0.5 143.5,-0.5C 144.986,1.6191 146.986,3.1191 149.5,4C 144.64,4.96786 139.974,4.46786 135.5,2.5C 131.283,3.44963 127.283,2.78296 123.5,0.5 Z"/></g>
<g><path style="opacity:1" fill="#fee9e0" d="M 131.5,-0.5 C 133.833,-0.5 136.167,-0.5 138.5,-0.5C 136.167,2.16667 133.833,2.16667 131.5,-0.5 Z"/></g>
<g><path style="opacity:1" fill="#a57a28" d="M 145.5,-0.5 C 148.5,-0.5 151.5,-0.5 154.5,-0.5C 159.534,3.53308 163.867,8.19975 167.5,13.5C 166.531,14.3094 165.698,15.3094 165,16.5C 163.595,15.2695 162.429,13.9361 161.5,12.5C 159.525,10.863 157.525,9.19637 155.5,7.5C 154.833,7.5 154.5,7.16667 154.5,6.5C 152.007,3.43111 149.007,1.09778 145.5,-0.5 Z"/></g>
<g><path style="opacity:1" fill="#423211" d="M 162.5,-0.5 C 164.167,-0.5 165.833,-0.5 167.5,-0.5C 170.146,2.81228 173.146,5.81228 176.5,8.5C 177.63,9.62235 178.297,10.9557 178.5,12.5C 173.722,7.37889 168.388,3.04556 162.5,-0.5 Z"/></g>
<g><path style="opacity:1" fill="#15140d" d="M 255.5,1.5 C 255.5,5.83333 255.5,10.1667 255.5,14.5C 253.396,17.2674 251.729,20.2674 250.5,23.5C 248.833,24.1667 247.167,24.8333 245.5,25.5C 245.161,15.8229 248.494,7.82286 255.5,1.5 Z"/></g>
<g><path style="opacity:1" fill="#52390e" d="M 110.5,-0.5 C 113.167,-0.5 115.833,-0.5 118.5,-0.5C 118.665,2.8499 118.498,6.18323 118,9.5C 116.489,10.564 116.323,11.8974 117.5,13.5C 116.662,13.8417 116.328,14.5084 116.5,15.5C 116.443,16.609 116.11,17.609 115.5,18.5C 114.033,21.2583 113.367,20.925 113.5,17.5C 114.638,14.6965 114.805,11.6965 114,8.5C 113.667,9.5 113.333,10.5 113,11.5C 111.852,7.54715 111.018,3.54715 110.5,-0.5 Z"/></g>
<g><path style="opacity:1" fill="#9a6e1f" d="M 127.5,4.5 C 130.279,4.27863 132.946,4.61197 135.5,5.5C 138.258,6.96651 137.925,7.63318 134.5,7.5C 130.413,7.29353 126.913,8.62686 124,11.5C 123.064,15.1135 122.564,18.7802 122.5,22.5C 122.122,24.921 121.455,27.2543 120.5,29.5C 119.158,32.1658 117.325,34.4992 115,36.5C 116.585,32.4897 118.585,28.4897 121,24.5C 121.282,20.9605 121.782,17.4605 122.5,14C 122.293,12.0503 121.293,10.8836 119.5,10.5C 121.002,8.82504 122.335,6.9917 123.5,5C 124.793,4.50999 126.127,4.34332 127.5,4.5 Z"/></g>
<g><path style="opacity:1" fill="#753918" d="M 118.5,-0.5 C 120.167,-0.5 121.833,-0.5 123.5,-0.5C 123.5,-0.166667 123.5,0.166667 123.5,0.5C 124.37,2.27368 125.703,3.60701 127.5,4.5C 126.127,4.34332 124.793,4.50999 123.5,5C 122.335,6.9917 121.002,8.82504 119.5,10.5C 119.068,11.7095 118.401,12.7095 117.5,13.5C 116.323,11.8974 116.489,10.564 118,9.5C 118.498,6.18323 118.665,2.8499 118.5,-0.5 Z"/></g>
<g><path style="opacity:1" fill="#70500e" d="M 241.5,-0.5 C 244.5,-0.5 247.5,-0.5 250.5,-0.5C 244.02,7.62179 241.353,16.9551 242.5,27.5C 242.44,28.0431 242.107,28.3764 241.5,28.5C 240.508,24.2172 240.174,19.8839 240.5,15.5C 241.494,13.6656 241.494,11.9989 240.5,10.5C 240.927,7.62394 241.594,4.79061 242.5,2C 242.257,1.09789 241.923,0.264561 241.5,-0.5 Z"/></g>
<g><path style="opacity:1" fill="#4e6661" d="M 86.5,3.5 C 88.0972,5.84782 89.0972,8.51449 89.5,11.5C 89.1667,11.5 88.8333,11.5 88.5,11.5C 87.9101,10.234 87.4101,8.9007 87,7.5C 84.492,14.516 82.3253,21.516 80.5,28.5C 80.6716,27.5084 80.3382,26.8417 79.5,26.5C 80.7887,20.0522 82.4553,13.7189 84.5,7.5C 85.6737,6.48631 86.3404,5.15298 86.5,3.5 Z"/></g>
<g><path style="opacity:1" fill="#7d2f14" d="M 237.5,-0.5 C 238.833,-0.5 240.167,-0.5 241.5,-0.5C 241.923,0.264561 242.257,1.09789 242.5,2C 241.594,4.79061 240.927,7.62394 240.5,10.5C 239.791,11.404 238.791,11.7373 237.5,11.5C 237.657,12.8734 237.49,14.2068 237,15.5C 236.667,15.1667 236.333,14.8333 236,14.5C 235.667,15.5 235.333,16.5 235,17.5C 234.163,15.1558 232.829,13.1558 231,11.5C 230.809,13.7078 230.309,15.7078 229.5,17.5C 228.041,17.5674 226.708,17.2341 225.5,16.5C 225.279,13.9028 224.779,13.9028 224,16.5C 223.5,16 223,15.5 222.5,15C 223.38,13.6439 223.714,12.1439 223.5,10.5C 226.598,10.5875 226.932,10.0875 224.5,9C 227.689,8.01922 228.022,6.68588 225.5,5C 226.46,3.58059 227.293,2.08059 228,0.5C 228.333,2.5 228.667,4.5 229,6.5C 229.483,5.55198 229.649,4.55198 229.5,3.5C 232.167,3.5 234.833,3.5 237.5,3.5C 237.5,2.16667 237.5,0.833333 237.5,-0.5 Z"/></g>
<g><path style="opacity:1" fill="#7c4e0e" d="M 134.5,7.5 C 129.901,8.76522 126.901,11.7652 125.5,16.5C 124.559,18.0495 123.893,19.7162 123.5,21.5C 123.5,22.1667 123.167,22.5 122.5,22.5C 122.564,18.7802 123.064,15.1135 124,11.5C 126.913,8.62686 130.413,7.29353 134.5,7.5 Z"/></g>
<g><path style="opacity:1" fill="#ca522f" d="M 143.5,-0.5 C 144.167,-0.5 144.833,-0.5 145.5,-0.5C 149.007,1.09778 152.007,3.43111 154.5,6.5C 146.621,5.3909 142.288,8.72424 141.5,16.5C 141.167,16.5 140.833,16.5 140.5,16.5C 140.5,15.8333 140.167,15.5 139.5,15.5C 139.606,12.9214 138.939,10.588 137.5,8.5C 138.552,8.64945 139.552,8.48278 140.5,8C 139.347,6.11699 137.681,5.28366 135.5,5.5C 132.946,4.61197 130.279,4.27863 127.5,4.5C 125.703,3.60701 124.37,2.27368 123.5,0.5C 127.283,2.78296 131.283,3.44963 135.5,2.5C 139.974,4.46786 144.64,4.96786 149.5,4C 146.986,3.1191 144.986,1.6191 143.5,-0.5 Z"/></g>
<g><path style="opacity:1" fill="#01151b" d="M 84.5,7.5 C 82.4553,13.7189 80.7887,20.0522 79.5,26.5C 78.6295,29.003 77.9628,31.6697 77.5,34.5C 76.1429,35.5903 75.1429,36.9236 74.5,38.5C 72.8712,39.6253 71.3712,40.9586 70,42.5C 64.638,41.9509 58.9713,41.6176 53,41.5C 50.31,43.6879 47.4766,45.6879 44.5,47.5C 41.5018,46.217 38.6685,46.5503 36,48.5C 34.3264,46.9907 32.6597,46.3241 31,46.5C 30.6258,47.4162 30.1258,48.2496 29.5,49C 26.5706,49.7772 23.7372,49.6105 21,48.5C 19.1727,48.8055 18.006,50.3055 17.5,53C 15.8904,54.4947 14.2237,54.6613 12.5,53.5C 8.31212,55.0829 3.97879,57.0829 -0.5,59.5C -0.5,51.5 -0.5,43.5 -0.5,35.5C 1.56429,35.313 3.56429,34.813 5.5,34C 7.74252,30.5827 10.7425,29.7494 14.5,31.5C 16.1151,30.846 17.7818,30.346 19.5,30C 19.1667,29.6667 18.8333,29.3333 18.5,29C 21.3078,28.402 23.8078,27.2353 26,25.5C 27,26.5 28,27.5 29,28.5C 32.6401,25.6005 36.8067,24.2672 41.5,24.5C 42.5931,20.3062 45.0931,17.3062 49,15.5C 51.33,17.0317 53.33,16.6983 55,14.5C 55.6259,16.9913 56.4593,16.9913 57.5,14.5C 58.5407,16.9913 59.3741,16.9913 60,14.5C 60.3333,16.1667 60.6667,17.8333 61,19.5C 61.1129,17.0261 62.1129,15.0261 64,13.5C 65.6667,13.5 67.3333,13.5 69,13.5C 69.6667,12.8333 70.3333,12.1667 71,11.5C 74.1445,11.5505 76.9778,11.8838 79.5,12.5C 81.5919,11.1754 83.2586,9.50871 84.5,7.5 Z"/></g>
<g><path style="opacity:1" fill="#937b33" d="M 109.5,-0.5 C 109.833,-0.5 110.167,-0.5 110.5,-0.5C 111.018,3.54715 111.852,7.54715 113,11.5C 113.333,10.5 113.667,9.5 114,8.5C 114.805,11.6965 114.638,14.6965 113.5,17.5C 110.774,11.8765 109.441,5.8765 109.5,-0.5 Z"/></g>
<g><path style="opacity:1" fill="#753a22" d="M 240.5,10.5 C 241.494,11.9989 241.494,13.6656 240.5,15.5C 240.167,15.5 239.833,15.5 239.5,15.5C 238.124,20.0756 235.624,24.0756 232,27.5C 230.667,24.8333 229.333,24.8333 228,27.5C 227.517,26.552 227.351,25.552 227.5,24.5C 232.55,23.8058 234.216,21.1391 232.5,16.5C 231.833,17.1667 231.167,17.8333 230.5,18.5C 229.893,18.3764 229.56,18.0431 229.5,17.5C 230.309,15.7078 230.809,13.7078 231,11.5C 232.829,13.1558 234.163,15.1558 235,17.5C 235.333,16.5 235.667,15.5 236,14.5C 236.333,14.8333 236.667,15.1667 237,15.5C 237.49,14.2068 237.657,12.8734 237.5,11.5C 238.791,11.7373 239.791,11.404 240.5,10.5 Z"/></g>
<g><path style="opacity:1" fill="#806e30" d="M 214.5,-0.5 C 215.167,-0.5 215.833,-0.5 216.5,-0.5C 216.342,8.4815 213.342,16.3148 207.5,23C 205.807,23.8466 204.14,24.6799 202.5,25.5C 202.5,24.8333 202.5,24.1667 202.5,23.5C 210.474,17.6299 214.474,9.62988 214.5,-0.5 Z"/></g>
<g><path style="opacity:1" fill="#614610" d="M 96.5,-0.5 C 97.1667,-0.5 97.8333,-0.5 98.5,-0.5C 97.6174,6.788 99.7841,8.12134 105,3.5C 105.41,2.0993 105.91,0.765972 106.5,-0.5C 107.167,-0.5 107.833,-0.5 108.5,-0.5C 108.167,0.833333 107.833,2.16667 107.5,3.5C 105.455,9.71813 103.789,16.0515 102.5,22.5C 100.876,22.6399 99.7096,21.9733 99,20.5C 98.502,17.5184 98.3354,14.5184 98.5,11.5C 99.8333,10.5 99.8333,9.5 98.5,8.5C 97.938,5.45401 97.2713,2.45401 96.5,-0.5 Z"/></g>
<g><path style="opacity:1" fill="#b28938" d="M 98.5,-0.5 C 101.167,-0.5 103.833,-0.5 106.5,-0.5C 105.91,0.765972 105.41,2.0993 105,3.5C 99.7841,8.12134 97.6174,6.788 98.5,-0.5 Z"/></g>
<g><path style="opacity:1" fill="#cb290f" d="M 154.5,6.5 C 154.5,7.16667 154.833,7.5 155.5,7.5C 147.998,7.74624 143.998,11.7462 143.5,19.5C 142.094,19.0269 141.427,18.0269 141.5,16.5C 142.288,8.72424 146.621,5.3909 154.5,6.5 Z"/></g>
<g><path style="opacity:1" fill="#181610" d="M 201.5,-0.5 C 204.833,-0.5 208.167,-0.5 211.5,-0.5C 210.562,13.0923 203.562,21.4256 190.5,24.5C 190.66,22.8008 190.494,21.1341 190,19.5C 186.98,16.3768 185.98,12.7102 187,8.5C 187.511,10.8782 188.178,13.2115 189,15.5C 190.049,16.5171 191.216,16.6838 192.5,16C 197.889,11.784 200.889,6.28396 201.5,-0.5 Z"/></g>
<g><path style="opacity:1" fill="#715e09" d="M 218.5,5.5 C 217.934,8.58264 217.934,11.5826 218.5,14.5C 216.579,18.7475 213.913,22.4141 210.5,25.5C 211.15,21.8603 212.65,18.527 215,15.5C 216.103,12.02 217.269,8.68669 218.5,5.5 Z"/></g>
<g><path style="opacity:1" fill="#b4bab0" d="M 211.5,-0.5 C 212.5,-0.5 213.5,-0.5 214.5,-0.5C 214.474,9.62988 210.474,17.6299 202.5,23.5C 198.836,25.0412 195.003,26.0412 191,26.5C 188.992,26.6932 187.492,26.0265 186.5,24.5C 187.833,24.5 189.167,24.5 190.5,24.5C 203.562,21.4256 210.562,13.0923 211.5,-0.5 Z"/></g>
<g><path style="opacity:1" fill="#cba457" d="M 89.5,3.5 C 91.7793,6.44222 94.7793,8.10888 98.5,8.5C 99.8333,9.5 99.8333,10.5 98.5,11.5C 97.8333,11.5 97.5,11.8333 97.5,12.5C 95.9862,14.364 94.6528,16.364 93.5,18.5C 93.6716,17.5084 93.3382,16.8417 92.5,16.5C 92.1335,11.9972 91.1335,7.66391 89.5,3.5 Z"/></g>
<g><path style="opacity:1" fill="#f6f1de" d="M 107.5,3.5 C 108.434,4.56764 108.768,5.90097 108.5,7.5C 106.477,15.4225 104.31,23.4225 102,31.5C 101.506,29.8659 101.34,28.1992 101.5,26.5C 101.433,25.0413 101.766,23.7079 102.5,22.5C 103.789,16.0515 105.455,9.71813 107.5,3.5 Z"/></g>
<g><path style="opacity:1" fill="#5d6052" d="M 175.5,18.5 C 173.579,17.6373 171.579,16.9707 169.5,16.5C 169.5,16.1667 169.5,15.8333 169.5,15.5C 170.492,15.6716 171.158,15.3382 171.5,14.5C 171.369,13.7611 171.536,13.0944 172,12.5C 174.265,13.9158 175.431,15.9158 175.5,18.5 Z"/></g>
<g><path style="opacity:1" fill="#443002" d="M 250.5,-0.5 C 252.167,-0.5 253.833,-0.5 255.5,-0.5C 255.5,0.166667 255.5,0.833333 255.5,1.5C 248.494,7.82286 245.161,15.8229 245.5,25.5C 245.167,26.1667 244.833,26.8333 244.5,27.5C 243.833,27.5 243.167,27.5 242.5,27.5C 241.353,16.9551 244.02,7.62179 250.5,-0.5 Z"/></g>
<g><path style="opacity:1" fill="#9d7a21" d="M 151.5,14.5 C 152.167,14.5 152.833,14.5 153.5,14.5C 154.167,14.5 154.833,14.5 155.5,14.5C 156.952,15.3019 158.618,15.8019 160.5,16C 157.543,16.2794 154.877,17.1127 152.5,18.5C 151.89,19.391 151.557,20.391 151.5,21.5C 150.241,19.9188 150.241,17.5855 151.5,14.5 Z"/></g>
<g><path style="opacity:1" fill="#7d5e23" d="M 161.5,12.5 C 162.429,13.9361 163.595,15.2695 165,16.5C 165.698,15.3094 166.531,14.3094 167.5,13.5C 168.338,13.8417 168.672,14.5084 168.5,15.5C 168.808,17.924 168.474,20.2573 167.5,22.5C 166.084,20.8608 164.417,20.0275 162.5,20C 164.141,21.129 165.141,22.629 165.5,24.5C 163.833,23.5 162.5,22.1667 161.5,20.5C 161.389,19.8826 161.056,19.3826 160.5,19C 157.854,18.5026 155.187,18.3359 152.5,18.5C 154.877,17.1127 157.543,16.2794 160.5,16C 158.618,15.8019 156.952,15.3019 155.5,14.5C 158.082,14.9746 160.082,14.3079 161.5,12.5 Z"/></g>
<g><path style="opacity:1" fill="#4c4124" d="M 168.5,6.5 C 173.54,10.539 177.873,15.2056 181.5,20.5C 179.102,20.7406 177.102,20.0739 175.5,18.5C 175.431,15.9158 174.265,13.9158 172,12.5C 171.536,13.0944 171.369,13.7611 171.5,14.5C 169.62,12.2446 168.62,9.57791 168.5,6.5 Z"/></g>
<g><path style="opacity:1" fill="#fff5c9" d="M 117.5,26.5 C 115.631,24.3647 114.964,21.6981 115.5,18.5C 116.11,17.609 116.443,16.609 116.5,15.5C 118.806,13.9857 120.139,14.6524 120.5,17.5C 119.95,20.7212 118.95,23.7212 117.5,26.5 Z"/></g>
<g><path style="opacity:1" fill="#753725" d="M 222.5,-0.5 C 227.5,-0.5 232.5,-0.5 237.5,-0.5C 237.5,0.833333 237.5,2.16667 237.5,3.5C 234.833,3.5 232.167,3.5 229.5,3.5C 229.649,4.55198 229.483,5.55198 229,6.5C 228.667,4.5 228.333,2.5 228,0.5C 227.293,2.08059 226.46,3.58059 225.5,5C 228.022,6.68588 227.689,8.01922 224.5,9C 226.932,10.0875 226.598,10.5875 223.5,10.5C 223.714,12.1439 223.38,13.6439 222.5,15C 223,15.5 223.5,16 224,16.5C 224.779,13.9028 225.279,13.9028 225.5,16.5C 225.372,18.6547 225.872,20.6547 227,22.5C 227.718,21.5494 228.551,21.3828 229.5,22C 228.619,22.7083 227.953,23.5416 227.5,24.5C 226.233,23.913 225.233,23.913 224.5,24.5C 225.64,28.5862 226.973,32.5862 228.5,36.5C 227.391,36.5569 226.391,36.8902 225.5,37.5C 222.862,32.7697 220.695,27.7697 219,22.5C 218.373,26.7959 216.207,28.1292 212.5,26.5C 218.557,18.6594 221.89,9.65935 222.5,-0.5 Z"/></g>
<g><path style="opacity:1" fill="#91463b" d="M 125.5,16.5 C 126.911,18.539 128.911,19.539 131.5,19.5C 131.771,21.3797 131.104,22.713 129.5,23.5C 127.282,23.3862 125.282,22.7196 123.5,21.5C 123.893,19.7162 124.559,18.0495 125.5,16.5 Z"/></g>
<g><path style="opacity:1" fill="#613514" d="M 152.5,18.5 C 155.187,18.3359 157.854,18.5026 160.5,19C 161.056,19.3826 161.389,19.8826 161.5,20.5C 160.167,20.5 158.833,20.5 157.5,20.5C 155.379,20.3253 153.379,20.6586 151.5,21.5C 151.557,20.391 151.89,19.391 152.5,18.5 Z"/></g>
<g><path style="opacity:1" fill="#6b6042" d="M 255.5,14.5 C 255.5,16.8333 255.5,19.1667 255.5,21.5C 253.833,22.1667 252.167,22.8333 250.5,23.5C 251.729,20.2674 253.396,17.2674 255.5,14.5 Z"/></g>
<g><path style="opacity:1" fill="#091617" d="M 88.5,11.5 C 88.8333,11.5 89.1667,11.5 89.5,11.5C 90.1667,13.1667 90.8333,14.8333 91.5,16.5C 91.3314,21.1811 90.9981,25.8478 90.5,30.5C 89.6326,33.4435 88.6326,36.4435 87.5,39.5C 86.9759,41.3057 86.3092,42.9724 85.5,44.5C 84.8333,46.1667 84.1667,47.8333 83.5,49.5C 82.8902,48.609 82.5569,47.609 82.5,46.5C 82.0344,34.2902 84.0344,22.6235 88.5,11.5 Z"/></g>
<g><path style="opacity:1" fill="#a18b3e" d="M 97.5,12.5 C 97.494,17.2153 96.994,21.882 96,26.5C 95.7216,25.5842 95.2216,24.9175 94.5,24.5C 94.7373,23.209 94.404,22.209 93.5,21.5C 93.5,20.5 93.5,19.5 93.5,18.5C 94.6528,16.364 95.9862,14.364 97.5,12.5 Z"/></g>
<g><path style="opacity:1" fill="#523e10" d="M 218.5,-0.5 C 219.833,-0.5 221.167,-0.5 222.5,-0.5C 221.89,9.65935 218.557,18.6594 212.5,26.5C 210.999,27.7515 209.332,28.7515 207.5,29.5C 208.211,27.9699 209.211,26.6366 210.5,25.5C 213.913,22.4141 216.579,18.7475 218.5,14.5C 217.934,11.5826 217.934,8.58264 218.5,5.5C 218.5,3.5 218.5,1.5 218.5,-0.5 Z"/></g>
<g><path style="opacity:1" fill="#612f2f" d="M 225.5,16.5 C 226.708,17.2341 228.041,17.5674 229.5,17.5C 229.56,18.0431 229.893,18.3764 230.5,18.5C 231.167,17.8333 231.833,17.1667 232.5,16.5C 234.216,21.1391 232.55,23.8058 227.5,24.5C 227.953,23.5416 228.619,22.7083 229.5,22C 228.551,21.3828 227.718,21.5494 227,22.5C 225.872,20.6547 225.372,18.6547 225.5,16.5 Z"/></g>
<g><path style="opacity:1" fill="#2c382c" d="M 88.5,11.5 C 84.0344,22.6235 82.0344,34.2902 82.5,46.5C 81.6773,43.023 81.1773,39.3563 81,35.5C 79.9966,37.9351 79.4966,37.6018 79.5,34.5C 79.8396,32.4878 80.1729,30.4878 80.5,28.5C 82.3253,21.516 84.492,14.516 87,7.5C 87.4101,8.9007 87.9101,10.234 88.5,11.5 Z"/></g>
<g><path style="opacity:1" fill="#a5a896" d="M 169.5,16.5 C 171.579,16.9707 173.579,17.6373 175.5,18.5C 177.102,20.0739 179.102,20.7406 181.5,20.5C 182.167,20.5 182.5,20.1667 182.5,19.5C 183.803,21.1423 185.136,22.8089 186.5,24.5C 181.439,23.9708 176.772,22.3041 172.5,19.5C 171.818,20.2427 171.151,20.9094 170.5,21.5C 170.5,20.8333 170.167,20.5 169.5,20.5C 169.5,19.1667 169.5,17.8333 169.5,16.5 Z"/></g>
<g><path style="opacity:1" fill="#a99e6d" d="M 186.5,24.5 C 187.492,26.0265 188.992,26.6932 191,26.5C 195.003,26.0412 198.836,25.0412 202.5,23.5C 202.5,24.1667 202.5,24.8333 202.5,25.5C 200.302,25.8751 198.302,26.5418 196.5,27.5C 190.532,28.9156 184.532,28.5822 178.5,26.5C 176.999,25.2485 175.332,24.2485 173.5,23.5C 172.666,26.9562 171.666,30.9562 170.5,35.5C 170.5,30.8333 170.5,26.1667 170.5,21.5C 171.151,20.9094 171.818,20.2427 172.5,19.5C 176.772,22.3041 181.439,23.9708 186.5,24.5 Z"/></g>
<g><path style="opacity:1" fill="#b58a34" d="M 134.5,18.5 C 134.039,20.5504 133.372,22.5504 132.5,24.5C 133.932,26.297 133.599,27.6303 131.5,28.5C 130.732,27.7375 130.232,26.7375 130,25.5C 128.059,27.8701 125.559,29.2034 122.5,29.5C 125.339,28.1944 127.672,26.1944 129.5,23.5C 131.104,22.713 131.771,21.3797 131.5,19.5C 131.971,18.0992 132.638,16.7658 133.5,15.5C 134.386,16.325 134.719,17.325 134.5,18.5 Z"/></g>
<g><path style="opacity:1" fill="#75483f" d="M 123.5,21.5 C 125.282,22.7196 127.282,23.3862 129.5,23.5C 127.672,26.1944 125.339,28.1944 122.5,29.5C 121.833,29.5 121.167,29.5 120.5,29.5C 121.455,27.2543 122.122,24.921 122.5,22.5C 123.167,22.5 123.5,22.1667 123.5,21.5 Z"/></g>
<g><path style="opacity:1" fill="#af4e2a" d="M 135.5,5.5 C 137.681,5.28366 139.347,6.11699 140.5,8C 139.552,8.48278 138.552,8.64945 137.5,8.5C 136.351,8.79106 135.684,9.62439 135.5,11C 136.083,13.6655 137.083,16.1655 138.5,18.5C 139.386,17.675 139.719,16.675 139.5,15.5C 140.167,15.5 140.5,15.8333 140.5,16.5C 140.046,19.1398 138.879,21.4732 137,23.5C 136.505,25.4727 136.338,27.4727 136.5,29.5C 141.027,27.9368 143.36,24.6034 143.5,19.5C 143.998,11.7462 147.998,7.74624 155.5,7.5C 157.525,9.19637 159.525,10.863 161.5,12.5C 160.082,14.3079 158.082,14.9746 155.5,14.5C 154.833,14.5 154.167,14.5 153.5,14.5C 153.611,13.8826 153.944,13.3826 154.5,13C 152.127,10.2257 149.793,10.0591 147.5,12.5C 148.577,13.7051 149.91,14.3718 151.5,14.5C 150.241,17.5855 150.241,19.9188 151.5,21.5C 153.379,20.6586 155.379,20.3253 157.5,20.5C 156.791,21.404 155.791,21.7373 154.5,21.5C 154.5,23.8333 154.5,26.1667 154.5,28.5C 151.824,26.1645 149.158,23.8311 146.5,21.5C 145.369,23.0745 145.202,24.7412 146,26.5C 147.481,27.4709 148.315,28.8042 148.5,30.5C 143.238,30.1953 138.072,30.5286 133,31.5C 134.321,28.7944 135.154,25.7944 135.5,22.5C 135.489,20.9549 135.156,19.6216 134.5,18.5C 134.719,17.325 134.386,16.325 133.5,15.5C 132.638,16.7658 131.971,18.0992 131.5,19.5C 128.911,19.539 126.911,18.539 125.5,16.5C 126.901,11.7652 129.901,8.76522 134.5,7.5C 137.925,7.63318 138.258,6.96651 135.5,5.5 Z"/></g>
<g><path style="opacity:1" fill="#b32c16" d="M 140.5,16.5 C 140.833,16.5 141.167,16.5 141.5,16.5C 141.427,18.0269 142.094,19.0269 143.5,19.5C 143.36,24.6034 141.027,27.9368 136.5,29.5C 136.338,27.4727 136.505,25.4727 137,23.5C 138.879,21.4732 140.046,19.1398 140.5,16.5 Z"/></g>
<g><path style="opacity:1" fill="#c82c10" d="M 153.5,14.5 C 152.833,14.5 152.167,14.5 151.5,14.5C 149.91,14.3718 148.577,13.7051 147.5,12.5C 149.793,10.0591 152.127,10.2257 154.5,13C 153.944,13.3826 153.611,13.8826 153.5,14.5 Z"/></g>
<g><path style="opacity:1" fill="#bf270d" d="M 137.5,8.5 C 138.939,10.588 139.606,12.9214 139.5,15.5C 139.719,16.675 139.386,17.675 138.5,18.5C 137.083,16.1655 136.083,13.6655 135.5,11C 135.684,9.62439 136.351,8.79106 137.5,8.5 Z"/></g>
<g><path style="opacity:1" fill="#ab210a" d="M 154.5,28.5 C 154.5,29.8333 153.833,30.5 152.5,30.5C 151.5,30.5 150.5,30.5 149.5,30.5C 149.167,30.5 148.833,30.5 148.5,30.5C 148.315,28.8042 147.481,27.4709 146,26.5C 145.202,24.7412 145.369,23.0745 146.5,21.5C 149.158,23.8311 151.824,26.1645 154.5,28.5 Z"/></g>
<g><path style="opacity:1" fill="#87681f" d="M 98.5,11.5 C 98.3354,14.5184 98.502,17.5184 99,20.5C 99.7096,21.9733 100.876,22.6399 102.5,22.5C 101.766,23.7079 101.433,25.0413 101.5,26.5C 100.755,33.4027 99.7553,40.4027 98.5,47.5C 97.5318,49.6074 97.1984,51.9407 97.5,54.5C 96.8318,44.6041 95.8318,34.6041 94.5,24.5C 95.2216,24.9175 95.7216,25.5842 96,26.5C 96.994,21.882 97.494,17.2153 97.5,12.5C 97.5,11.8333 97.8333,11.5 98.5,11.5 Z"/></g>
<g><path style="opacity:1" fill="#74785e" d="M 91.5,16.5 C 91.8333,16.5 92.1667,16.5 92.5,16.5C 93.3382,16.8417 93.6716,17.5084 93.5,18.5C 93.5,19.5 93.5,20.5 93.5,21.5C 93.7918,31.835 94.1251,42.1683 94.5,52.5C 92.2694,49.1637 90.6027,45.497 89.5,41.5C 90.8946,43.0544 91.5613,42.721 91.5,40.5C 90.673,37.2169 90.3396,33.8835 90.5,30.5C 90.9981,25.8478 91.3314,21.1811 91.5,16.5 Z"/></g>
<g><path style="opacity:1" fill="#fef6ab" d="M 108.5,7.5 C 109.581,14.1204 110.915,20.6204 112.5,27C 112.355,28.2259 112.022,29.3926 111.5,30.5C 109.651,31.593 107.984,32.9263 106.5,34.5C 105.808,33.9747 105.308,33.3081 105,32.5C 103.566,36.4065 103.233,40.4065 104,44.5C 105.356,45.3802 106.856,45.7135 108.5,45.5C 108.5,44.5 108.5,43.5 108.5,42.5C 112.007,41.3311 115.507,41.3311 119,42.5C 120.03,42.8361 120.53,43.5028 120.5,44.5C 119.833,44.5 119.167,44.5 118.5,44.5C 115.545,43.8413 112.545,43.5079 109.5,43.5C 109.86,48.1679 107.86,50.8346 103.5,51.5C 103.528,49.4176 102.861,47.5843 101.5,46C 100.212,45.7613 99.212,46.2613 98.5,47.5C 99.7553,40.4027 100.755,33.4027 101.5,26.5C 101.34,28.1992 101.506,29.8659 102,31.5C 104.31,23.4225 106.477,15.4225 108.5,7.5 Z"/></g>
<g><path style="opacity:1" fill="#724234" d="M 225.5,37.5 C 223.337,39.0828 221.004,40.4161 218.5,41.5C 218.5,40.5 218.5,39.5 218.5,38.5C 217.5,38.5 216.5,38.5 215.5,38.5C 215.5,37.5 215.5,36.5 215.5,35.5C 209.419,35.514 203.419,36.1807 197.5,37.5C 201.043,35.8917 204.043,33.5584 206.5,30.5C 206.5,29.8333 206.833,29.5 207.5,29.5C 209.332,28.7515 210.999,27.7515 212.5,26.5C 216.207,28.1292 218.373,26.7959 219,22.5C 220.695,27.7697 222.862,32.7697 225.5,37.5 Z"/></g>
<g><path style="opacity:1" fill="#6f3f3b" d="M 239.5,15.5 C 239.5,20.1667 239.5,24.8333 239.5,29.5C 236.039,32.0692 232.372,34.4026 228.5,36.5C 226.973,32.5862 225.64,28.5862 224.5,24.5C 225.233,23.913 226.233,23.913 227.5,24.5C 227.351,25.552 227.517,26.552 228,27.5C 229.333,24.8333 230.667,24.8333 232,27.5C 235.624,24.0756 238.124,20.0756 239.5,15.5 Z"/></g>
<g><path style="opacity:1" fill="#b0b5a5" d="M 239.5,15.5 C 239.833,15.5 240.167,15.5 240.5,15.5C 240.174,19.8839 240.508,24.2172 241.5,28.5C 242.107,28.3764 242.44,28.0431 242.5,27.5C 243.167,27.5 243.833,27.5 244.5,27.5C 243.365,29.2132 241.698,29.8799 239.5,29.5C 239.5,24.8333 239.5,20.1667 239.5,15.5 Z"/></g>
<g><path style="opacity:1" fill="#772110" d="M 157.5,20.5 C 158.833,20.5 160.167,20.5 161.5,20.5C 162.5,22.1667 163.833,23.5 165.5,24.5C 166.167,24.5 166.5,24.8333 166.5,25.5C 166.752,28.3198 166.252,30.9865 165,33.5C 163.989,34.3366 162.822,34.67 161.5,34.5C 158.088,33.9251 155.088,32.5918 152.5,30.5C 153.833,30.5 154.5,29.8333 154.5,28.5C 154.5,26.1667 154.5,23.8333 154.5,21.5C 155.791,21.7373 156.791,21.404 157.5,20.5 Z"/></g>
<g><path style="opacity:1" fill="#f5da8b" d="M 189.5,34.5 C 185.195,35.1529 182.195,37.4862 180.5,41.5C 178.914,43.6705 177.58,46.0038 176.5,48.5C 175.514,52.97 175.181,57.6367 175.5,62.5C 174.596,61.791 174.263,60.791 174.5,59.5C 174.589,56.2914 174.256,53.1248 173.5,50C 176.077,46.2641 177.077,42.0974 176.5,37.5C 179.693,36.3355 182.693,34.6688 185.5,32.5C 184.675,31.6143 183.675,31.281 182.5,31.5C 182.404,27.6893 181.738,27.6893 180.5,31.5C 179.678,29.8614 179.011,28.1947 178.5,26.5C 184.532,28.5822 190.532,28.9156 196.5,27.5C 200.459,27.9287 203.959,26.9287 207,24.5C 207.667,25.1667 207.667,25.8333 207,26.5C 201.555,30.1431 195.722,32.8098 189.5,34.5 Z"/></g>
<g><path style="opacity:1" fill="#a89647" d="M 216.5,-0.5 C 217.167,-0.5 217.833,-0.5 218.5,-0.5C 218.5,1.5 218.5,3.5 218.5,5.5C 217.269,8.68669 216.103,12.02 215,15.5C 212.65,18.527 211.15,21.8603 210.5,25.5C 209.211,26.6366 208.211,27.9699 207.5,29.5C 206.833,29.5 206.5,29.8333 206.5,30.5C 201.992,32.1141 197.659,34.1141 193.5,36.5C 189.87,36.7014 187.203,38.368 185.5,41.5C 184.542,41.9528 183.708,42.6195 183,43.5C 182.333,42.5 182.333,41.5 183,40.5C 185.585,38.2419 188.418,36.4086 191.5,35C 190.906,34.5357 190.239,34.369 189.5,34.5C 195.722,32.8098 201.555,30.1431 207,26.5C 207.667,25.8333 207.667,25.1667 207,24.5C 203.959,26.9287 200.459,27.9287 196.5,27.5C 198.302,26.5418 200.302,25.8751 202.5,25.5C 204.14,24.6799 205.807,23.8466 207.5,23C 213.342,16.3148 216.342,8.4815 216.5,-0.5 Z"/></g>
<g><path style="opacity:1" fill="#9e8375" d="M 255.5,25.5 C 255.5,26.8333 255.5,28.1667 255.5,29.5C 249.461,32.5194 243.461,35.5194 237.5,38.5C 235.833,38.5 234.167,38.5 232.5,38.5C 240.001,33.9149 247.668,29.5815 255.5,25.5 Z"/></g>
<g><path style="opacity:1" fill="#5b5948" d="M 90.5,30.5 C 90.3396,33.8835 90.673,37.2169 91.5,40.5C 91.5613,42.721 90.8946,43.0544 89.5,41.5C 89.8693,39.0065 89.2027,38.3398 87.5,39.5C 88.6326,36.4435 89.6326,33.4435 90.5,30.5 Z"/></g>
<g><path style="opacity:1" fill="#fada89" d="M 108.5,-0.5 C 108.833,-0.5 109.167,-0.5 109.5,-0.5C 109.441,5.8765 110.774,11.8765 113.5,17.5C 113.367,20.925 114.033,21.2583 115.5,18.5C 114.964,21.6981 115.631,24.3647 117.5,26.5C 114.735,30.4545 112.735,34.7878 111.5,39.5C 113.527,39.6621 115.527,39.4955 117.5,39C 118.163,37.4815 119.163,36.3149 120.5,35.5C 120.5,36.5 120.5,37.5 120.5,38.5C 119.957,38.56 119.624,38.8933 119.5,39.5C 120.646,40.7187 121.646,42.0521 122.5,43.5C 123.417,42.8728 124.417,42.5394 125.5,42.5C 124.365,44.2132 122.698,44.8799 120.5,44.5C 120.53,43.5028 120.03,42.8361 119,42.5C 115.507,41.3311 112.007,41.3311 108.5,42.5C 108.5,43.5 108.5,44.5 108.5,45.5C 106.856,45.7135 105.356,45.3802 104,44.5C 103.233,40.4065 103.566,36.4065 105,32.5C 105.308,33.3081 105.808,33.9747 106.5,34.5C 107.984,32.9263 109.651,31.593 111.5,30.5C 112.022,29.3926 112.355,28.2259 112.5,27C 110.915,20.6204 109.581,14.1204 108.5,7.5C 108.768,5.90097 108.434,4.56764 107.5,3.5C 107.833,2.16667 108.167,0.833333 108.5,-0.5 Z"/></g>
<g><path style="opacity:1" fill="#85621c" d="M 134.5,18.5 C 135.156,19.6216 135.489,20.9549 135.5,22.5C 135.154,25.7944 134.321,28.7944 133,31.5C 138.072,30.5286 143.238,30.1953 148.5,30.5C 148.833,30.5 149.167,30.5 149.5,30.5C 154.072,33.4321 158.905,36.0988 164,38.5C 164.399,38.2716 164.565,37.9382 164.5,37.5C 165.167,37.5 165.833,37.5 166.5,37.5C 166.5,40.1667 166.5,42.8333 166.5,45.5C 162.643,42.3317 158.309,40.3317 153.5,39.5C 151.426,37.8937 148.426,37.0604 144.5,37C 143.09,36.6322 142.09,35.7989 141.5,34.5C 138.691,33.1997 136.024,33.1997 133.5,34.5C 129.035,35.4331 124.701,36.7664 120.5,38.5C 120.5,37.5 120.5,36.5 120.5,35.5C 121.682,33.9005 123.015,33.5672 124.5,34.5C 127.578,33.1627 129.911,31.1627 131.5,28.5C 133.599,27.6303 133.932,26.297 132.5,24.5C 133.372,22.5504 134.039,20.5504 134.5,18.5 Z"/></g>
<g><path style="opacity:1" fill="#b7b079" d="M 168.5,15.5 C 168.833,15.5 169.167,15.5 169.5,15.5C 169.5,15.8333 169.5,16.1667 169.5,16.5C 169.5,17.8333 169.5,19.1667 169.5,20.5C 169.493,23.0379 169.159,25.5379 168.5,28C 169.296,43.8124 169.796,59.6457 170,75.5C 173.074,73.9292 175.24,71.5958 176.5,68.5C 177.167,68.5 177.833,68.5 178.5,68.5C 178.833,68.5 179.167,68.5 179.5,68.5C 179.67,69.8221 179.337,70.9887 178.5,72C 175.582,73.7733 172.582,75.2733 169.5,76.5C 168.67,66.6751 168.17,56.6751 168,46.5C 167.814,49.0356 167.314,51.369 166.5,53.5C 166.5,52.1667 166.5,50.8333 166.5,49.5C 166.5,48.1667 166.5,46.8333 166.5,45.5C 166.5,42.8333 166.5,40.1667 166.5,37.5C 167.833,33.5 167.833,29.5 166.5,25.5C 166.5,24.8333 166.167,24.5 165.5,24.5C 165.141,22.629 164.141,21.129 162.5,20C 164.417,20.0275 166.084,20.8608 167.5,22.5C 168.474,20.2573 168.808,17.924 168.5,15.5 Z"/></g>
<g><path style="opacity:1" fill="#fcf2a5" d="M 173.5,23.5 C 175.332,24.2485 176.999,25.2485 178.5,26.5C 179.011,28.1947 179.678,29.8614 180.5,31.5C 181.738,27.6893 182.404,27.6893 182.5,31.5C 183.675,31.281 184.675,31.6143 185.5,32.5C 182.693,34.6688 179.693,36.3355 176.5,37.5C 177.077,42.0974 176.077,46.2641 173.5,50C 174.256,53.1248 174.589,56.2914 174.5,59.5C 173.883,59.3893 173.383,59.056 173,58.5C 172.365,46.8191 172.531,35.1524 173.5,23.5 Z"/></g>
<g><path style="opacity:1" fill="#e4b862" d="M 119.5,10.5 C 121.293,10.8836 122.293,12.0503 122.5,14C 121.782,17.4605 121.282,20.9605 121,24.5C 118.585,28.4897 116.585,32.4897 115,36.5C 117.325,34.4992 119.158,32.1658 120.5,29.5C 121.167,29.5 121.833,29.5 122.5,29.5C 125.559,29.2034 128.059,27.8701 130,25.5C 130.232,26.7375 130.732,27.7375 131.5,28.5C 129.911,31.1627 127.578,33.1627 124.5,34.5C 123.015,33.5672 121.682,33.9005 120.5,35.5C 119.163,36.3149 118.163,37.4815 117.5,39C 115.527,39.4955 113.527,39.6621 111.5,39.5C 112.735,34.7878 114.735,30.4545 117.5,26.5C 118.95,23.7212 119.95,20.7212 120.5,17.5C 120.139,14.6524 118.806,13.9857 116.5,15.5C 116.328,14.5084 116.662,13.8417 117.5,13.5C 118.401,12.7095 119.068,11.7095 119.5,10.5 Z"/></g>
<g><path style="opacity:1" fill="#694525" d="M 166.5,25.5 C 167.833,29.5 167.833,33.5 166.5,37.5C 165.833,37.5 165.167,37.5 164.5,37.5C 163.306,36.7281 162.306,35.7281 161.5,34.5C 162.822,34.67 163.989,34.3366 165,33.5C 166.252,30.9865 166.752,28.3198 166.5,25.5 Z"/></g>
<g><path style="opacity:1" fill="#917e5f" d="M 149.5,30.5 C 150.5,30.5 151.5,30.5 152.5,30.5C 155.088,32.5918 158.088,33.9251 161.5,34.5C 162.306,35.7281 163.306,36.7281 164.5,37.5C 164.565,37.9382 164.399,38.2716 164,38.5C 158.905,36.0988 154.072,33.4321 149.5,30.5 Z"/></g>
<g><path style="opacity:1" fill="#fef5a0" d="M 139.5,37.5 C 142.925,37.3668 143.258,38.0335 140.5,39.5C 140.167,39.5 139.833,39.5 139.5,39.5C 135.964,38.2204 132.631,38.8871 129.5,41.5C 129.281,40.325 129.614,39.325 130.5,38.5C 132.116,37.8848 133.449,36.8848 134.5,35.5C 135.85,36.9501 137.516,37.6168 139.5,37.5 Z"/></g>
<g><path style="opacity:1" fill="#b1943d" d="M 133.5,34.5 C 136.024,33.1997 138.691,33.1997 141.5,34.5C 142.09,35.7989 143.09,36.6322 144.5,37C 148.426,37.0604 151.426,37.8937 153.5,39.5C 149.167,39.5 144.833,39.5 140.5,39.5C 143.258,38.0335 142.925,37.3668 139.5,37.5C 139.586,36.5041 139.252,35.6708 138.5,35C 136.866,34.5065 135.199,34.3398 133.5,34.5 Z"/></g>
<g><path style="opacity:1" fill="#5b1d0c" d="M 255.5,32.5 C 255.5,34.1667 255.5,35.8333 255.5,37.5C 252.784,39.1838 249.784,40.3504 246.5,41C 245.262,41.69 245.262,42.19 246.5,42.5C 243.181,43.6862 240.181,45.5195 237.5,48C 233.986,49.5617 230.319,50.395 226.5,50.5C 228.165,48.4594 230.832,46.9594 234.5,46C 236.373,44.2962 238.04,42.4628 239.5,40.5C 244.702,37.6496 250.035,34.983 255.5,32.5 Z"/></g>
<g><path style="opacity:1" fill="#5e512a" d="M 93.5,21.5 C 94.404,22.209 94.7373,23.209 94.5,24.5C 95.8318,34.6041 96.8318,44.6041 97.5,54.5C 97.2594,56.8984 97.9261,58.8984 99.5,60.5C 99.5,61.1667 99.5,61.8333 99.5,62.5C 100.529,64.5168 101.529,66.5168 102.5,68.5C 101.833,68.5 101.167,68.5 100.5,68.5C 100.461,67.4168 100.127,66.4168 99.5,65.5C 98.7435,64.2267 98.0768,64.2267 97.5,65.5C 95.0116,62.5342 93.0116,59.2009 91.5,55.5C 93.0744,55.9371 94.2411,56.9371 95,58.5C 95.6776,56.4024 95.5109,54.4024 94.5,52.5C 94.1251,42.1683 93.7918,31.835 93.5,21.5 Z"/></g>
<g><path style="opacity:1" fill="#eeebd2" d="M 173.5,23.5 C 172.531,35.1524 172.365,46.8191 173,58.5C 173.383,59.056 173.883,59.3893 174.5,59.5C 174.263,60.791 174.596,61.791 175.5,62.5C 176.084,65.9828 175.251,68.9828 173,71.5C 172.027,69.6079 171.36,67.6079 171,65.5C 170.5,55.5056 170.334,45.5056 170.5,35.5C 171.666,30.9562 172.666,26.9562 173.5,23.5 Z"/></g>
<g><path style="opacity:1" fill="#623435" d="M 215.5,38.5 C 213.883,40.1209 212.716,42.1209 212,44.5C 210.302,43.267 208.302,42.6004 206,42.5C 201.126,45.114 197.96,43.7807 196.5,38.5C 196.5,37.8333 196.833,37.5 197.5,37.5C 203.419,36.1807 209.419,35.514 215.5,35.5C 215.5,36.5 215.5,37.5 215.5,38.5 Z"/></g>
<g><path style="opacity:1" fill="#f6ca70" d="M 133.5,34.5 C 135.199,34.3398 136.866,34.5065 138.5,35C 139.252,35.6708 139.586,36.5041 139.5,37.5C 137.516,37.6168 135.85,36.9501 134.5,35.5C 133.449,36.8848 132.116,37.8848 130.5,38.5C 129.614,39.325 129.281,40.325 129.5,41.5C 128.167,41.8333 126.833,42.1667 125.5,42.5C 124.417,42.5394 123.417,42.8728 122.5,43.5C 121.646,42.0521 120.646,40.7187 119.5,39.5C 119.624,38.8933 119.957,38.56 120.5,38.5C 124.701,36.7664 129.035,35.4331 133.5,34.5 Z"/></g>
<g><path style="opacity:1" fill="#6c5235" d="M 206.5,30.5 C 204.043,33.5584 201.043,35.8917 197.5,37.5C 196.833,37.5 196.5,37.8333 196.5,38.5C 195.427,39.2506 195.26,40.2506 196,41.5C 197.983,42.7657 198.983,44.4324 199,46.5C 197.437,43.9557 195.937,43.9557 194.5,46.5C 192.167,44.8333 190.167,42.8333 188.5,40.5C 190.772,39.8658 192.439,38.5324 193.5,36.5C 197.659,34.1141 201.992,32.1141 206.5,30.5 Z"/></g>
<g><path style="opacity:1" fill="#877636" d="M 215.5,38.5 C 216.5,38.5 217.5,38.5 218.5,38.5C 218.5,39.5 218.5,40.5 218.5,41.5C 217.713,43.1042 216.38,43.7709 214.5,43.5C 214.629,41.7839 214.962,40.1172 215.5,38.5 Z"/></g>
<g><path style="opacity:1" fill="#895948" d="M 255.5,29.5 C 255.5,30.5 255.5,31.5 255.5,32.5C 250.035,34.983 244.702,37.6496 239.5,40.5C 234.993,43.3459 230.327,46.0126 225.5,48.5C 225.33,47.1779 225.663,46.0113 226.5,45C 230.577,43.4003 234.244,41.2336 237.5,38.5C 243.461,35.5194 249.461,32.5194 255.5,29.5 Z"/></g>
<g><path style="opacity:1" fill="#e1e1de" d="M 255.5,21.5 C 255.5,22.8333 255.5,24.1667 255.5,25.5C 247.668,29.5815 240.001,33.9149 232.5,38.5C 228.713,40.3541 225.046,42.3541 221.5,44.5C 210.341,50.3335 200.008,57.3335 190.5,65.5C 186.36,66.0443 185.693,65.0443 188.5,62.5C 197.167,56.1667 205.833,49.8333 214.5,43.5C 216.38,43.7709 217.713,43.1042 218.5,41.5C 221.004,40.4161 223.337,39.0828 225.5,37.5C 226.391,36.8902 227.391,36.5569 228.5,36.5C 232.372,34.4026 236.039,32.0692 239.5,29.5C 241.698,29.8799 243.365,29.2132 244.5,27.5C 244.833,26.8333 245.167,26.1667 245.5,25.5C 247.167,24.8333 248.833,24.1667 250.5,23.5C 252.167,22.8333 253.833,22.1667 255.5,21.5 Z"/></g>
<g><path style="opacity:1" fill="#ede6bc" d="M 139.5,39.5 C 133.632,41.2366 127.966,43.57 122.5,46.5C 121.167,45.8333 119.833,45.1667 118.5,44.5C 119.167,44.5 119.833,44.5 120.5,44.5C 122.698,44.8799 124.365,44.2132 125.5,42.5C 126.833,42.1667 128.167,41.8333 129.5,41.5C 132.631,38.8871 135.964,38.2204 139.5,39.5 Z"/></g>
<g><path style="opacity:1" fill="#292e2e" d="M 148.5,41.5 C 148.683,43.9363 148.016,46.103 146.5,48C 149.697,50.6043 153.364,51.771 157.5,51.5C 154.27,54.0703 150.937,54.0703 147.5,51.5C 146.584,51.5427 145.917,51.8761 145.5,52.5C 142.778,50.2267 139.778,49.8933 136.5,51.5C 136.768,49.901 136.434,48.5676 135.5,47.5C 134.829,46.1529 134.829,44.9862 135.5,44C 138.432,43.0467 141.432,42.5467 144.5,42.5C 146.017,42.4894 147.184,41.8228 148,40.5C 148.399,40.7284 148.565,41.0618 148.5,41.5 Z"/></g>
<g><path style="opacity:1" fill="#301604" d="M 246.5,42.5 C 255.189,43.552 255.689,46.2187 248,50.5C 240.243,52.0644 232.41,53.0644 224.5,53.5C 225.167,52.5 225.833,51.5 226.5,50.5C 230.319,50.395 233.986,49.5617 237.5,48C 240.181,45.5195 243.181,43.6862 246.5,42.5 Z"/></g>
<g><path style="opacity:1" fill="#97a899" d="M 89.5,41.5 C 90.6027,45.497 92.2694,49.1637 94.5,52.5C 95.5109,54.4024 95.6776,56.4024 95,58.5C 94.2411,56.9371 93.0744,55.9371 91.5,55.5C 88.7183,52.2707 86.7183,48.604 85.5,44.5C 86.3092,42.9724 86.9759,41.3057 87.5,39.5C 89.2027,38.3398 89.8693,39.0065 89.5,41.5 Z"/></g>
<g><path style="opacity:1" fill="#fcfaf1" d="M 118.5,44.5 C 119.833,45.1667 121.167,45.8333 122.5,46.5C 119.167,49.1667 116.167,52.1667 113.5,55.5C 112.5,55.8333 111.833,56.5 111.5,57.5C 109.508,57.6715 107.842,57.0049 106.5,55.5C 104.427,57.5798 102.093,59.2464 99.5,60.5C 97.9261,58.8984 97.2594,56.8984 97.5,54.5C 97.1984,51.9407 97.5318,49.6074 98.5,47.5C 99.212,46.2613 100.212,45.7613 101.5,46C 102.861,47.5843 103.528,49.4176 103.5,51.5C 107.86,50.8346 109.86,48.1679 109.5,43.5C 112.545,43.5079 115.545,43.8413 118.5,44.5 Z"/></g>
<g><path style="opacity:1" fill="#c0aa5d" d="M 169.5,20.5 C 170.167,20.5 170.5,20.8333 170.5,21.5C 170.5,26.1667 170.5,30.8333 170.5,35.5C 170.334,45.5056 170.5,55.5056 171,65.5C 171.36,67.6079 172.027,69.6079 173,71.5C 175.251,68.9828 176.084,65.9828 175.5,62.5C 175.181,57.6367 175.514,52.97 176.5,48.5C 176.5,55.1667 176.5,61.8333 176.5,68.5C 175.24,71.5958 173.074,73.9292 170,75.5C 169.796,59.6457 169.296,43.8124 168.5,28C 169.159,25.5379 169.493,23.0379 169.5,20.5 Z"/></g>
<g><path style="opacity:1" fill="#a3c2c6" d="M 77.5,34.5 C 78.3449,36.7715 79.3449,39.1048 80.5,41.5C 80.2483,43.0729 79.5817,44.4062 78.5,45.5C 78.1667,45.5 77.8333,45.5 77.5,45.5C 76.0337,46.347 75.2004,47.6803 75,49.5C 74.5034,47.1902 74.3367,44.8568 74.5,42.5C 74.5,41.1667 74.5,39.8333 74.5,38.5C 75.1429,36.9236 76.1429,35.5903 77.5,34.5 Z"/></g>
<g><path style="opacity:1" fill="#827124" d="M 189.5,34.5 C 190.239,34.369 190.906,34.5357 191.5,35C 188.418,36.4086 185.585,38.2419 183,40.5C 182.333,41.5 182.333,42.5 183,43.5C 183.708,42.6195 184.542,41.9528 185.5,41.5C 181.216,49.8997 179.216,58.8997 179.5,68.5C 179.167,68.5 178.833,68.5 178.5,68.5C 178.188,59.6634 179.188,50.9968 181.5,42.5C 181.376,41.8933 181.043,41.56 180.5,41.5C 182.195,37.4862 185.195,35.1529 189.5,34.5 Z"/></g>
<g><path style="opacity:1" fill="#4b3c1a" d="M 139.5,39.5 C 139.833,39.5 140.167,39.5 140.5,39.5C 144.833,39.5 149.167,39.5 153.5,39.5C 158.309,40.3317 162.643,42.3317 166.5,45.5C 166.5,46.8333 166.5,48.1667 166.5,49.5C 164.079,49.8782 161.746,50.5448 159.5,51.5C 161.669,46.8754 160.336,44.2087 155.5,43.5C 153.401,42.3882 151.067,41.7215 148.5,41.5C 148.565,41.0618 148.399,40.7284 148,40.5C 147.184,41.8228 146.017,42.4894 144.5,42.5C 141.313,41.1944 137.98,41.1944 134.5,42.5C 132.113,43.9202 129.78,45.2535 127.5,46.5C 116.719,50.0879 113.386,57.0879 117.5,67.5C 117.44,68.0431 117.107,68.3764 116.5,68.5C 115.833,65.0227 115.166,61.6893 114.5,58.5C 114.737,57.209 114.404,56.209 113.5,55.5C 116.167,52.1667 119.167,49.1667 122.5,46.5C 127.966,43.57 133.632,41.2366 139.5,39.5 Z"/></g>
<g><path style="opacity:1" fill="#687163" d="M 155.5,43.5 C 160.336,44.2087 161.669,46.8754 159.5,51.5C 159.167,51.5 158.833,51.5 158.5,51.5C 157.5,48.8333 156.5,46.1667 155.5,43.5 Z"/></g>
<g><path style="opacity:1" fill="#8d958f" d="M 148.5,41.5 C 151.067,41.7215 153.401,42.3882 155.5,43.5C 156.5,46.1667 157.5,48.8333 158.5,51.5C 158.167,51.5 157.833,51.5 157.5,51.5C 153.364,51.771 149.697,50.6043 146.5,48C 148.016,46.103 148.683,43.9363 148.5,41.5 Z"/></g>
<g><path style="opacity:1" fill="#4b504e" d="M 144.5,42.5 C 141.432,42.5467 138.432,43.0467 135.5,44C 134.829,44.9862 134.829,46.1529 135.5,47.5C 134.833,47.8333 134.167,48.1667 133.5,48.5C 131.626,47.7148 129.626,47.0482 127.5,46.5C 129.78,45.2535 132.113,43.9202 134.5,42.5C 137.98,41.1944 141.313,41.1944 144.5,42.5 Z"/></g>
<g><path style="opacity:1" fill="#041c22" d="M 74.5,38.5 C 74.5,39.8333 74.5,41.1667 74.5,42.5C 72.1022,46.403 70.7689,50.7363 70.5,55.5C 68.0665,56.3285 65.7332,55.8285 63.5,54C 62.3305,51.8154 61.1638,49.6488 60,47.5C 58.9614,48.2438 58.4614,49.2438 58.5,50.5C 58.5,53.8333 58.5,57.1667 58.5,60.5C 58.5852,61.9953 57.9185,62.9953 56.5,63.5C 55.5726,61.8872 54.7393,60.2205 54,58.5C 52.1918,58.8881 50.5252,58.8881 49,58.5C 47.3905,59.1466 45.8905,59.98 44.5,61C 35.1445,62.1876 25.8112,63.5209 16.5,65C 17.6537,65.9138 17.487,66.7471 16,67.5C 15.586,67.0426 15.086,66.7093 14.5,66.5C 11.4041,68.9331 8.07074,69.7664 4.5,69C 3.52912,70.4813 2.19578,71.3146 0.5,71.5C 0.166667,71.5 -0.166667,71.5 -0.5,71.5C -0.5,67.5 -0.5,63.5 -0.5,59.5C 3.97879,57.0829 8.31212,55.0829 12.5,53.5C 14.2237,54.6613 15.8904,54.4947 17.5,53C 18.006,50.3055 19.1727,48.8055 21,48.5C 23.7372,49.6105 26.5706,49.7772 29.5,49C 30.1258,48.2496 30.6258,47.4162 31,46.5C 32.6597,46.3241 34.3264,46.9907 36,48.5C 38.6685,46.5503 41.5018,46.217 44.5,47.5C 47.4766,45.6879 50.31,43.6879 53,41.5C 58.9713,41.6176 64.638,41.9509 70,42.5C 71.3712,40.9586 72.8712,39.6253 74.5,38.5 Z"/></g>
<g><path style="opacity:1" fill="#76807e" d="M 142.5,45.5 C 143.5,45.5 144.5,45.5 145.5,45.5C 144.754,49.31 143.754,49.31 142.5,45.5 Z"/></g>
<g><path style="opacity:1" fill="#946e63" d="M 232.5,38.5 C 234.167,38.5 235.833,38.5 237.5,38.5C 234.244,41.2336 230.577,43.4003 226.5,45C 225.663,46.0113 225.33,47.1779 225.5,48.5C 218.621,53.273 211.287,56.9397 203.5,59.5C 207.667,55.0141 212.667,51.6808 218.5,49.5C 219.26,47.6396 220.26,45.973 221.5,44.5C 225.046,42.3541 228.713,40.3541 232.5,38.5 Z"/></g>
<g><path style="opacity:1" fill="#7d8c82" d="M 79.5,26.5 C 80.3382,26.8417 80.6716,27.5084 80.5,28.5C 80.1729,30.4878 79.8396,32.4878 79.5,34.5C 79.4966,37.6018 79.9966,37.9351 81,35.5C 81.1773,39.3563 81.6773,43.023 82.5,46.5C 82.5569,47.609 82.8902,48.609 83.5,49.5C 83.5,50.1667 83.5,50.8333 83.5,51.5C 84.2621,53.9564 84.9288,56.4564 85.5,59C 85.472,60.0698 85.1386,60.9032 84.5,61.5C 83.0627,56.9787 81.396,52.6453 79.5,48.5C 79.7373,47.209 79.404,46.209 78.5,45.5C 79.5817,44.4062 80.2483,43.0729 80.5,41.5C 79.3449,39.1048 78.3449,36.7715 77.5,34.5C 77.9628,31.6697 78.6295,29.003 79.5,26.5 Z"/></g>
<g><path style="opacity:1" fill="#a99088" d="M 221.5,44.5 C 220.26,45.973 219.26,47.6396 218.5,49.5C 212.667,51.6808 207.667,55.0141 203.5,59.5C 199.326,62.0877 194.993,64.421 190.5,66.5C 190.5,66.1667 190.5,65.8333 190.5,65.5C 200.008,57.3335 210.341,50.3335 221.5,44.5 Z"/></g>
<g><path style="opacity:1" fill="#423604" d="M 180.5,41.5 C 181.043,41.56 181.376,41.8933 181.5,42.5C 179.188,50.9968 178.188,59.6634 178.5,68.5C 177.833,68.5 177.167,68.5 176.5,68.5C 176.5,61.8333 176.5,55.1667 176.5,48.5C 177.58,46.0038 178.914,43.6705 180.5,41.5 Z"/></g>
<g><path style="opacity:1" fill="#290b02" d="M 255.5,37.5 C 255.5,43.1667 255.5,48.8333 255.5,54.5C 243.246,56.0567 230.912,57.2233 218.5,58C 214.688,61.3362 210.355,63.5028 205.5,64.5C 206.5,63.1667 207.5,61.8333 208.5,60.5C 214.1,58.6984 219.433,56.365 224.5,53.5C 232.41,53.0644 240.243,52.0644 248,50.5C 255.689,46.2187 255.189,43.552 246.5,42.5C 245.262,42.19 245.262,41.69 246.5,41C 249.784,40.3504 252.784,39.1838 255.5,37.5 Z"/></g>
<g><path style="opacity:1" fill="#372f18" d="M 135.5,47.5 C 136.434,48.5676 136.768,49.901 136.5,51.5C 132.632,53.0293 129.299,55.3626 126.5,58.5C 127.5,56.5 128.5,54.5 129.5,52.5C 130.5,50.8333 131.833,49.5 133.5,48.5C 134.167,48.1667 134.833,47.8333 135.5,47.5 Z"/></g>
<g><path style="opacity:1" fill="#6a574c" d="M 193.5,36.5 C 192.439,38.5324 190.772,39.8658 188.5,40.5C 190.167,42.8333 192.167,44.8333 194.5,46.5C 195.937,43.9557 197.437,43.9557 199,46.5C 198.983,44.4324 197.983,42.7657 196,41.5C 195.26,40.2506 195.427,39.2506 196.5,38.5C 197.96,43.7807 201.126,45.114 206,42.5C 208.302,42.6004 210.302,43.267 212,44.5C 212.716,42.1209 213.883,40.1209 215.5,38.5C 214.962,40.1172 214.629,41.7839 214.5,43.5C 205.833,49.8333 197.167,56.1667 188.5,62.5C 185.518,64.4742 182.518,66.4742 179.5,68.5C 179.216,58.8997 181.216,49.8997 185.5,41.5C 187.203,38.368 189.87,36.7014 193.5,36.5 Z"/></g>
<g><path style="opacity:1" fill="#1a2319" d="M 79.5,48.5 C 81.396,52.6453 83.0627,56.9787 84.5,61.5C 86.4157,66.6721 87.7491,72.0055 88.5,77.5C 88.6567,78.8734 88.49,80.2068 88,81.5C 87.5436,77.5971 85.7103,74.5971 82.5,72.5C 81.6858,70.2338 81.1858,67.9005 81,65.5C 79.1335,64.4734 77.3002,63.4734 75.5,62.5C 77.6303,57.8446 78.9636,53.1779 79.5,48.5 Z"/></g>
<g><path style="opacity:1" fill="#7c8483" d="M 127.5,46.5 C 129.626,47.0482 131.626,47.7148 133.5,48.5C 131.833,49.5 130.5,50.8333 129.5,52.5C 128.833,52.8333 128.167,53.1667 127.5,53.5C 126.287,49.3823 124.287,49.549 121.5,54C 120.552,54.4828 119.552,54.6495 118.5,54.5C 118.187,58.0419 118.521,61.3752 119.5,64.5C 119.068,65.7095 118.401,66.7095 117.5,67.5C 113.386,57.0879 116.719,50.0879 127.5,46.5 Z"/></g>
<g><path style="opacity:1" fill="#312d20" d="M 166.5,49.5 C 166.5,50.8333 166.5,52.1667 166.5,53.5C 166.5,62.1667 166.5,70.8333 166.5,79.5C 165.5,80.1667 164.5,80.8333 163.5,81.5C 162.167,81.5 161.5,80.8333 161.5,79.5C 165.6,73.1362 166.6,66.1362 164.5,58.5C 163.583,59.1272 162.583,59.4606 161.5,59.5C 161.737,58.209 161.404,57.209 160.5,56.5C 157.619,57.2737 154.952,58.6071 152.5,60.5C 151.264,59.7542 149.93,59.4208 148.5,59.5C 149.141,58.5178 149.807,57.5178 150.5,56.5C 149.025,54.9288 147.358,53.5955 145.5,52.5C 145.917,51.8761 146.584,51.5427 147.5,51.5C 150.937,54.0703 154.27,54.0703 157.5,51.5C 157.833,51.5 158.167,51.5 158.5,51.5C 158.833,51.5 159.167,51.5 159.5,51.5C 161.746,50.5448 164.079,49.8782 166.5,49.5 Z"/></g>
<g><path style="opacity:1" fill="#121e18" d="M 60.5,59.5 C 60.5,59.1667 60.5,58.8333 60.5,58.5C 60.3398,56.8008 60.5065,55.1341 61,53.5C 62.4589,56.7564 64.6255,59.4231 67.5,61.5C 66.277,62.6139 64.9437,62.7805 63.5,62C 62.9221,60.583 61.9221,59.7496 60.5,59.5 Z"/></g>
<g><path style="opacity:1" fill="#939b9b" d="M 127.5,53.5 C 124.577,57.0275 121.91,60.6941 119.5,64.5C 118.521,61.3752 118.187,58.0419 118.5,54.5C 119.552,54.6495 120.552,54.4828 121.5,54C 124.287,49.549 126.287,49.3823 127.5,53.5 Z"/></g>
<g><path style="opacity:1" fill="#111513" d="M 145.5,52.5 C 147.358,53.5955 149.025,54.9288 150.5,56.5C 149.807,57.5178 149.141,58.5178 148.5,59.5C 147.167,60.5 145.833,61.5 144.5,62.5C 138.253,62.8737 133.753,65.8737 131,71.5C 130.28,69.8876 130.446,68.3876 131.5,67C 129.091,65.2932 126.425,64.4598 123.5,64.5C 123.615,62.0532 124.615,60.0532 126.5,58.5C 129.299,55.3626 132.632,53.0293 136.5,51.5C 139.778,49.8933 142.778,50.2267 145.5,52.5 Z"/></g>
<g><path style="opacity:1" fill="#6f8885" d="M 58.5,50.5 C 59.1667,53.1667 59.8333,55.8333 60.5,58.5C 60.5,58.8333 60.5,59.1667 60.5,59.5C 61.0241,61.3057 61.6908,62.9724 62.5,64.5C 62.7038,67.5176 63.0371,70.5176 63.5,73.5C 62.3485,71.2209 61.3485,68.8876 60.5,66.5C 60.6716,65.5084 60.3382,64.8417 59.5,64.5C 59.7678,62.901 59.4345,61.5676 58.5,60.5C 58.5,57.1667 58.5,53.8333 58.5,50.5 Z"/></g>
<g><path style="opacity:1" fill="#94b4b8" d="M 74.5,42.5 C 74.3367,44.8568 74.5034,47.1902 75,49.5C 75.2004,47.6803 76.0337,46.347 77.5,45.5C 75.3479,50.5953 74.3479,55.9286 74.5,61.5C 73.688,65.4478 72.688,69.4478 71.5,73.5C 70.5284,75.4931 69.1951,75.8264 67.5,74.5C 67.3437,67.9543 68.3437,61.6209 70.5,55.5C 70.7689,50.7363 72.1022,46.403 74.5,42.5 Z"/></g>
<g><path style="opacity:1" fill="#f9f3b0" d="M 111.5,57.5 C 111.167,58.5 110.5,59.1667 109.5,59.5C 106.156,60.5075 102.823,61.5075 99.5,62.5C 99.5,61.8333 99.5,61.1667 99.5,60.5C 102.093,59.2464 104.427,57.5798 106.5,55.5C 107.842,57.0049 109.508,57.6715 111.5,57.5 Z"/></g>
<g><path style="opacity:1" fill="#5d2b15" d="M 239.5,40.5 C 238.04,42.4628 236.373,44.2962 234.5,46C 230.832,46.9594 228.165,48.4594 226.5,50.5C 225.833,51.5 225.167,52.5 224.5,53.5C 219.433,56.365 214.1,58.6984 208.5,60.5C 201.767,62.7012 195.767,66.2012 190.5,71C 186.406,73.3796 182.073,75.2129 177.5,76.5C 181.239,72.432 185.572,69.0986 190.5,66.5C 194.993,64.421 199.326,62.0877 203.5,59.5C 211.287,56.9397 218.621,53.273 225.5,48.5C 230.327,46.0126 234.993,43.3459 239.5,40.5 Z"/></g>
<g><path style="opacity:1" fill="#052129" d="M 58.5,60.5 C 59.4345,61.5676 59.7678,62.901 59.5,64.5C 59.6621,66.5273 59.4955,68.5273 59,70.5C 56.227,68.9534 53.227,67.9534 50,67.5C 48.8872,69.7996 47.3872,70.1329 45.5,68.5C 40.1569,69.7808 35.3236,72.1142 31,75.5C 27.8684,76.7669 24.7017,76.7669 21.5,75.5C 20.4066,77.7697 18.9066,78.103 17,76.5C 14.1218,77.0483 11.4551,78.0483 9,79.5C 6.72167,78.3796 5.22167,79.213 4.5,82C 3.25501,82.7914 1.92167,83.2914 0.5,83.5C 0.5,79.5 0.5,75.5 0.5,71.5C 2.19578,71.3146 3.52912,70.4813 4.5,69C 8.07074,69.7664 11.4041,68.9331 14.5,66.5C 15.086,66.7093 15.586,67.0426 16,67.5C 17.487,66.7471 17.6537,65.9138 16.5,65C 25.8112,63.5209 35.1445,62.1876 44.5,61C 45.8905,59.98 47.3905,59.1466 49,58.5C 50.5252,58.8881 52.1918,58.8881 54,58.5C 54.7393,60.2205 55.5726,61.8872 56.5,63.5C 57.9185,62.9953 58.5852,61.9953 58.5,60.5 Z"/></g>
<g><path style="opacity:1" fill="#797e75" d="M 160.5,56.5 C 160.291,57.9217 159.791,59.255 159,60.5C 158.667,60.1667 158.333,59.8333 158,59.5C 154.074,60.964 150.574,62.964 147.5,65.5C 144.636,67.0233 142.969,69.3567 142.5,72.5C 141.604,71.4937 140.938,71.4937 140.5,72.5C 139.957,72.44 139.624,72.1067 139.5,71.5C 140.761,68.248 142.428,65.248 144.5,62.5C 145.833,61.5 147.167,60.5 148.5,59.5C 149.93,59.4208 151.264,59.7542 152.5,60.5C 154.952,58.6071 157.619,57.2737 160.5,56.5 Z"/></g>
<g><path style="opacity:1" fill="#141f1c" d="M 85.5,44.5 C 86.7183,48.604 88.7183,52.2707 91.5,55.5C 93.0116,59.2009 95.0116,62.5342 97.5,65.5C 98.1098,66.391 98.4431,67.391 98.5,68.5C 97.1667,73.1667 95.8333,77.8333 94.5,82.5C 93.7148,80.6264 93.0482,78.6264 92.5,76.5C 90.9823,69.7643 89.149,63.0977 87,56.5C 86.3028,54.4156 85.1361,52.7489 83.5,51.5C 83.5,50.8333 83.5,50.1667 83.5,49.5C 84.1667,47.8333 84.8333,46.1667 85.5,44.5 Z"/></g>
<g><path style="opacity:1" fill="#d1b86a" d="M 109.5,59.5 C 108.242,61.6869 107.242,64.0202 106.5,66.5C 105.395,67.6005 104.062,68.2671 102.5,68.5C 101.529,66.5168 100.529,64.5168 99.5,62.5C 102.823,61.5075 106.156,60.5075 109.5,59.5 Z"/></g>
<g><path style="opacity:1" fill="#595e56" d="M 160.5,56.5 C 161.404,57.209 161.737,58.209 161.5,59.5C 161.539,62.089 160.539,64.089 158.5,65.5C 156.316,67.6519 154.316,67.6519 152.5,65.5C 151.808,66.0253 151.308,66.6919 151,67.5C 150.29,66.0267 149.124,65.3601 147.5,65.5C 150.574,62.964 154.074,60.964 158,59.5C 158.333,59.8333 158.667,60.1667 159,60.5C 159.791,59.255 160.291,57.9217 160.5,56.5 Z"/></g>
<g><path style="opacity:1" fill="#384536" d="M 70.5,55.5 C 68.3437,61.6209 67.3437,67.9543 67.5,74.5C 67.7678,76.099 67.4345,77.4324 66.5,78.5C 65.7731,73.5818 64.4397,68.9151 62.5,64.5C 61.6908,62.9724 61.0241,61.3057 60.5,59.5C 61.9221,59.7496 62.9221,60.583 63.5,62C 64.9437,62.7805 66.277,62.6139 67.5,61.5C 64.6255,59.4231 62.4589,56.7564 61,53.5C 60.5065,55.1341 60.3398,56.8008 60.5,58.5C 59.8333,55.8333 59.1667,53.1667 58.5,50.5C 58.4614,49.2438 58.9614,48.2438 60,47.5C 61.1638,49.6488 62.3305,51.8154 63.5,54C 65.7332,55.8285 68.0665,56.3285 70.5,55.5 Z"/></g>
<g><path style="opacity:1" fill="#191e1a" d="M 113.5,55.5 C 114.404,56.209 114.737,57.209 114.5,58.5C 114.5,62.1667 114.5,65.8333 114.5,69.5C 113.5,69.5 112.5,69.5 111.5,69.5C 109.871,74.2639 110.704,78.5973 114,82.5C 114.383,81.944 114.883,81.6107 115.5,81.5C 115.5,85.1667 115.5,88.8333 115.5,92.5C 115.823,96.226 115.489,99.8927 114.5,103.5C 113.735,102.388 112.735,101.721 111.5,101.5C 111.44,100.957 111.107,100.624 110.5,100.5C 108.708,109.414 107.374,118.414 106.5,127.5C 105.91,128.766 105.41,130.099 105,131.5C 104.722,130.584 104.222,129.918 103.5,129.5C 101.739,122.32 99.7395,115.32 97.5,108.5C 95.8241,101.253 96.4907,94.2531 99.5,87.5C 100.478,87.189 101.145,86.5223 101.5,85.5C 100.349,84.269 99.1827,84.269 98,85.5C 98.3506,79.8934 98.5172,74.2268 98.5,68.5C 99.1667,68.5 99.5,68.8333 99.5,69.5C 100.871,72.8099 102.204,72.9766 103.5,70C 104.448,69.5172 105.448,69.3505 106.5,69.5C 106.5,68.5 106.5,67.5 106.5,66.5C 107.242,64.0202 108.242,61.6869 109.5,59.5C 110.5,59.1667 111.167,58.5 111.5,57.5C 111.833,56.5 112.5,55.8333 113.5,55.5 Z"/></g>
<g><path style="opacity:1" fill="#43514c" d="M 77.5,45.5 C 77.8333,45.5 78.1667,45.5 78.5,45.5C 79.404,46.209 79.7373,47.209 79.5,48.5C 78.9636,53.1779 77.6303,57.8446 75.5,62.5C 75.8128,66.0419 75.4794,69.3752 74.5,72.5C 74.5,68.8333 74.5,65.1667 74.5,61.5C 74.3479,55.9286 75.3479,50.5953 77.5,45.5 Z"/></g>
<g><path style="opacity:1" fill="#739084" d="M 100.5,68.5 C 100.5,69.1667 100.167,69.5 99.5,69.5C 99.5,68.8333 99.1667,68.5 98.5,68.5C 98.4431,67.391 98.1098,66.391 97.5,65.5C 98.0768,64.2267 98.7435,64.2267 99.5,65.5C 100.127,66.4168 100.461,67.4168 100.5,68.5 Z"/></g>
<g><path style="opacity:1" fill="#3a331b" d="M 161.5,79.5 C 160.883,79.3893 160.383,79.056 160,78.5C 159.667,80.1667 159.333,81.8333 159,83.5C 158.487,82.4734 157.987,81.4734 157.5,80.5C 158.043,80.44 158.376,80.1067 158.5,79.5C 157.624,78.7492 156.624,78.2492 155.5,78C 156.269,73.7846 157.269,69.6179 158.5,65.5C 160.539,64.089 161.539,62.089 161.5,59.5C 162.583,59.4606 163.583,59.1272 164.5,58.5C 166.6,66.1362 165.6,73.1362 161.5,79.5 Z"/></g>
<g><path style="opacity:1" fill="#1c1a07" d="M 255.5,67.5 C 255.5,69.1667 255.5,70.8333 255.5,72.5C 241.777,69.0401 228.111,68.7068 214.5,71.5C 211.813,71.3359 209.146,71.5026 206.5,72C 204.715,73.1628 202.715,73.8295 200.5,74C 198.845,77.1615 196.512,77.9948 193.5,76.5C 195.004,74.1644 197.004,72.331 199.5,71C 202.779,71.4104 206.112,71.0771 209.5,70C 224.494,62.3509 239.828,61.5175 255.5,67.5 Z"/></g>
<g><path style="opacity:1" fill="#696e4c" d="M 62.5,64.5 C 64.4397,68.9151 65.7731,73.5818 66.5,78.5C 65.6873,76.7392 64.6873,75.0725 63.5,73.5C 63.0371,70.5176 62.7038,67.5176 62.5,64.5 Z"/></g>
<g><path style="opacity:1" fill="#3e4d3e" d="M 106.5,66.5 C 106.5,67.5 106.5,68.5 106.5,69.5C 105.448,69.3505 104.448,69.5172 103.5,70C 102.204,72.9766 100.871,72.8099 99.5,69.5C 100.167,69.5 100.5,69.1667 100.5,68.5C 101.167,68.5 101.833,68.5 102.5,68.5C 104.062,68.2671 105.395,67.6005 106.5,66.5 Z"/></g>
<g><path style="opacity:1" fill="#082730" d="M 59.5,64.5 C 60.3382,64.8417 60.6716,65.5084 60.5,66.5C 59.7598,70.5534 59.0931,74.3868 58.5,78C 55.7695,78.7284 53.1029,78.5617 50.5,77.5C 48.5692,79.2043 46.5692,79.5376 44.5,78.5C 42.7923,78.7028 41.459,79.5362 40.5,81C 31.2406,83.0014 22.0739,85.168 13,87.5C 11.2739,86.4238 9.44058,86.2571 7.5,87C 8.16667,87.3333 8.83333,87.6667 9.5,88C 6.43048,89.0732 3.59715,90.5732 1,92.5C 0.50204,89.5184 0.335374,86.5184 0.5,83.5C 1.92167,83.2914 3.25501,82.7914 4.5,82C 5.22167,79.213 6.72167,78.3796 9,79.5C 11.4551,78.0483 14.1218,77.0483 17,76.5C 18.9066,78.103 20.4066,77.7697 21.5,75.5C 24.7017,76.7669 27.8684,76.7669 31,75.5C 35.3236,72.1142 40.1569,69.7808 45.5,68.5C 47.3872,70.1329 48.8872,69.7996 50,67.5C 53.227,67.9534 56.227,68.9534 59,70.5C 59.4955,68.5273 59.6621,66.5273 59.5,64.5 Z"/></g>
<g><path style="opacity:1" fill="#5c706a" d="M 74.5,61.5 C 74.5,65.1667 74.5,68.8333 74.5,72.5C 75.1587,75.4552 75.4921,78.4552 75.5,81.5C 74.8991,84.9679 73.8991,88.3012 72.5,91.5C 71.9569,91.44 71.6236,91.1067 71.5,90.5C 73.2809,85.9717 73.7809,81.305 73,76.5C 70.4953,78.3235 68.9953,80.6569 68.5,83.5C 68.5549,79.8183 69.5549,76.485 71.5,73.5C 72.688,69.4478 73.688,65.4478 74.5,61.5 Z"/></g>
<g><path style="opacity:1" fill="#3b3c2e" d="M 147.5,65.5 C 149.124,65.3601 150.29,66.0267 151,67.5C 151.308,66.6919 151.808,66.0253 152.5,65.5C 154.316,67.6519 156.316,67.6519 158.5,65.5C 157.269,69.6179 156.269,73.7846 155.5,78C 156.624,78.2492 157.624,78.7492 158.5,79.5C 158.376,80.1067 158.043,80.44 157.5,80.5C 154.5,80.5 151.5,80.5 148.5,80.5C 146.909,77.5691 144.909,74.9024 142.5,72.5C 142.969,69.3567 144.636,67.0233 147.5,65.5 Z"/></g>
<g><path style="opacity:1" fill="#98aea4" d="M 169.5,76.5 C 169.5,76.8333 169.5,77.1667 169.5,77.5C 168.5,78.1667 167.5,78.8333 166.5,79.5C 166.5,70.8333 166.5,62.1667 166.5,53.5C 167.314,51.369 167.814,49.0356 168,46.5C 168.17,56.6751 168.67,66.6751 169.5,76.5 Z"/></g>
<g><path style="opacity:1" fill="#c4c1b2" d="M 188.5,62.5 C 185.693,65.0443 186.36,66.0443 190.5,65.5C 190.5,65.8333 190.5,66.1667 190.5,66.5C 185.572,69.0986 181.239,72.432 177.5,76.5C 174.883,77.7859 172.55,79.4525 170.5,81.5C 170.167,81.5 169.833,81.5 169.5,81.5C 169.5,80.1667 169.5,78.8333 169.5,77.5C 169.5,77.1667 169.5,76.8333 169.5,76.5C 172.582,75.2733 175.582,73.7733 178.5,72C 179.337,70.9887 179.67,69.8221 179.5,68.5C 182.518,66.4742 185.518,64.4742 188.5,62.5 Z"/></g>
<g><path style="opacity:1" fill="#050603" d="M 255.5,75.5 C 255.5,98.1667 255.5,120.833 255.5,143.5C 227.833,143.5 200.167,143.5 172.5,143.5C 172.859,141.629 173.859,140.129 175.5,139C 179.233,136.477 182.899,133.977 186.5,131.5C 190.044,130.211 193.377,128.544 196.5,126.5C 200.629,124.512 204.962,123.012 209.5,122C 213.896,119.473 218.229,116.973 222.5,114.5C 227.071,112.262 231.071,109.262 234.5,105.5C 236.793,101.379 238.127,96.8789 238.5,92C 237.077,85.1581 235.911,78.3248 235,71.5C 242.184,70.6489 249.017,71.9822 255.5,75.5 Z"/></g>
<g><path style="opacity:1" fill="#555f3c" d="M 83.5,51.5 C 85.1361,52.7489 86.3028,54.4156 87,56.5C 89.149,63.0977 90.9823,69.7643 92.5,76.5C 91.3814,81.3471 91.3814,86.3471 92.5,91.5C 91.1667,86.8333 89.8333,82.1667 88.5,77.5C 87.7491,72.0055 86.4157,66.6721 84.5,61.5C 85.1386,60.9032 85.472,60.0698 85.5,59C 84.9288,56.4564 84.2621,53.9564 83.5,51.5 Z"/></g>
<g><path style="opacity:1" fill="#748e86" d="M 63.5,73.5 C 64.6873,75.0725 65.6873,76.7392 66.5,78.5C 67.4345,77.4324 67.7678,76.099 67.5,74.5C 69.1951,75.8264 70.5284,75.4931 71.5,73.5C 69.5549,76.485 68.5549,79.8183 68.5,83.5C 68.185,87.3714 68.5184,91.0381 69.5,94.5C 69.5172,96.5648 69.8505,98.5648 70.5,100.5C 69.0689,100.119 68.2355,99.1193 68,97.5C 67.2398,93.0116 66.4065,88.6783 65.5,84.5C 65.7845,82.5853 65.4511,80.9187 64.5,79.5C 64.1667,77.5 63.8333,75.5 63.5,73.5 Z"/></g>
<g><path style="opacity:1" fill="#2f3209" d="M 255.5,72.5 C 255.5,73.5 255.5,74.5 255.5,75.5C 249.017,71.9822 242.184,70.6489 235,71.5C 235.911,78.3248 237.077,85.1581 238.5,92C 238.127,96.8789 236.793,101.379 234.5,105.5C 232.754,104.751 231.754,103.417 231.5,101.5C 232.723,96.8309 232.723,92.1642 231.5,87.5C 230.264,86.7542 228.93,86.4208 227.5,86.5C 227.946,83.9899 227.28,81.9899 225.5,80.5C 225.443,79.391 225.11,78.391 224.5,77.5C 226.435,76.8505 228.435,76.5172 230.5,76.5C 230.714,74.8561 230.38,73.3561 229.5,72C 224.511,71.5007 219.511,71.3341 214.5,71.5C 228.111,68.7068 241.777,69.0401 255.5,72.5 Z"/></g>
<g><path style="opacity:1" fill="#1a2220" d="M 129.5,52.5 C 128.5,54.5 127.5,56.5 126.5,58.5C 124.615,60.0532 123.615,62.0532 123.5,64.5C 126.425,64.4598 129.091,65.2932 131.5,67C 130.446,68.3876 130.28,69.8876 131,71.5C 133.753,65.8737 138.253,62.8737 144.5,62.5C 142.428,65.248 140.761,68.248 139.5,71.5C 139.624,72.1067 139.957,72.44 140.5,72.5C 142.412,74.6572 144.079,76.9906 145.5,79.5C 145.631,80.2389 145.464,80.9056 145,81.5C 142.698,79.4256 140.032,78.0923 137,77.5C 136.26,78.7494 136.427,79.7494 137.5,80.5C 138.218,82.1368 138.384,83.8034 138,85.5C 134.791,84.3211 132.291,82.3211 130.5,79.5C 129.791,78.596 128.791,78.2627 127.5,78.5C 127.665,81.8499 127.498,85.1832 127,88.5C 125.612,89.5536 124.112,89.7203 122.5,89C 121.627,87.955 120.627,87.1217 119.5,86.5C 118.833,85.5 118.167,84.5 117.5,83.5C 117.5,82.1667 116.833,81.5 115.5,81.5C 114.883,81.6107 114.383,81.944 114,82.5C 110.704,78.5973 109.871,74.2639 111.5,69.5C 112.5,69.5 113.5,69.5 114.5,69.5C 114.5,65.8333 114.5,62.1667 114.5,58.5C 115.166,61.6893 115.833,65.0227 116.5,68.5C 117.107,68.3764 117.44,68.0431 117.5,67.5C 118.401,66.7095 119.068,65.7095 119.5,64.5C 121.91,60.6941 124.577,57.0275 127.5,53.5C 128.167,53.1667 128.833,52.8333 129.5,52.5 Z"/></g>
<g><path style="opacity:1" fill="#a3b7ac" d="M 142.5,72.5 C 144.909,74.9024 146.909,77.5691 148.5,80.5C 148.672,81.4916 148.338,82.1583 147.5,82.5C 147.068,81.2905 146.401,80.2905 145.5,79.5C 144.079,76.9906 142.412,74.6572 140.5,72.5C 140.938,71.4937 141.604,71.4937 142.5,72.5 Z"/></g>
<g><path style="opacity:1" fill="#3c3f16" d="M 214.5,71.5 C 219.511,71.3341 224.511,71.5007 229.5,72C 230.38,73.3561 230.714,74.8561 230.5,76.5C 228.435,76.5172 226.435,76.8505 224.5,77.5C 219.615,74.5846 214.282,73.7512 208.5,75C 202.128,77.1828 196.128,80.1828 190.5,84C 189.251,84.7401 188.251,84.5735 187.5,83.5C 188.506,80.3267 190.506,77.9934 193.5,76.5C 196.512,77.9948 198.845,77.1615 200.5,74C 202.715,73.8295 204.715,73.1628 206.5,72C 209.146,71.5026 211.813,71.3359 214.5,71.5 Z"/></g>
<g><path style="opacity:1" fill="#2d281d" d="M 75.5,62.5 C 77.3002,63.4734 79.1335,64.4734 81,65.5C 81.1858,67.9005 81.6858,70.2338 82.5,72.5C 85.7103,74.5971 87.5436,77.5971 88,81.5C 88.49,80.2068 88.6567,78.8734 88.5,77.5C 89.8333,82.1667 91.1667,86.8333 92.5,91.5C 92.5,94.5 92.5,97.5 92.5,100.5C 92.5,101.5 92.5,102.5 92.5,103.5C 91.603,104.598 90.7697,104.598 90,103.5C 88.3651,100.368 86.5318,97.3681 84.5,94.5C 83.3132,93.3473 82.3132,93.3473 81.5,94.5C 80.8333,94.8333 80.1667,95.1667 79.5,95.5C 78.7814,93.2362 78.448,90.9029 78.5,88.5C 78.2927,85.7594 77.2927,83.4261 75.5,81.5C 75.4921,78.4552 75.1587,75.4552 74.5,72.5C 75.4794,69.3752 75.8128,66.0419 75.5,62.5 Z"/></g>
<g><path style="opacity:1" fill="#3c4a3b" d="M 98.5,68.5 C 98.5172,74.2268 98.3506,79.8934 98,85.5C 99.1827,84.269 100.349,84.269 101.5,85.5C 101.145,86.5223 100.478,87.189 99.5,87.5C 99.44,86.9569 99.1067,86.6236 98.5,86.5C 97.7124,87.7701 96.7124,88.7701 95.5,89.5C 95.3259,87.139 94.9926,84.8056 94.5,82.5C 95.8333,77.8333 97.1667,73.1667 98.5,68.5 Z"/></g>
<g><path style="opacity:1" fill="#504c32" d="M 161.5,79.5 C 161.5,80.8333 162.167,81.5 163.5,81.5C 162.167,82.8333 160.833,84.1667 159.5,85.5C 155.855,87.1449 153.188,89.8116 151.5,93.5C 149.222,90.7697 146.888,87.9364 144.5,85C 145.942,84.6232 146.942,83.7899 147.5,82.5C 148.338,82.1583 148.672,81.4916 148.5,80.5C 151.5,80.5 154.5,80.5 157.5,80.5C 157.987,81.4734 158.487,82.4734 159,83.5C 159.333,81.8333 159.667,80.1667 160,78.5C 160.383,79.056 160.883,79.3893 161.5,79.5 Z"/></g>
<g><path style="opacity:1" fill="#4d524b" d="M 72.5,91.5 C 71.0998,92.1001 70.0998,93.1001 69.5,94.5C 68.5184,91.0381 68.185,87.3714 68.5,83.5C 68.9953,80.6569 70.4953,78.3235 73,76.5C 73.7809,81.305 73.2809,85.9717 71.5,90.5C 71.6236,91.1067 71.9569,91.44 72.5,91.5 Z"/></g>
<g><path style="opacity:1" fill="#d0dad6" d="M 169.5,77.5 C 169.5,78.8333 169.5,80.1667 169.5,81.5C 167.5,82.8333 165.833,84.5 164.5,86.5C 161.45,88.5491 159.117,91.2157 157.5,94.5C 157.167,94.5 156.833,94.5 156.5,94.5C 155.325,94.719 154.325,94.3857 153.5,93.5C 155.14,90.5319 157.14,87.8652 159.5,85.5C 160.833,84.1667 162.167,82.8333 163.5,81.5C 164.5,80.8333 165.5,80.1667 166.5,79.5C 167.5,78.8333 168.5,78.1667 169.5,77.5 Z"/></g>
<g><path style="opacity:1" fill="#76644a" d="M 169.5,81.5 C 169.833,81.5 170.167,81.5 170.5,81.5C 169.089,83.914 167.089,85.5806 164.5,86.5C 165.833,84.5 167.5,82.8333 169.5,81.5 Z"/></g>
<g><path style="opacity:1" fill="#371b0b" d="M 208.5,60.5 C 207.5,61.8333 206.5,63.1667 205.5,64.5C 203.858,66.0808 201.858,66.7475 199.5,66.5C 199.079,68.9099 197.746,70.7432 195.5,72C 182.981,75.5375 172.981,82.5375 165.5,93C 163.965,93.4962 162.465,93.3295 161,92.5C 159.923,93.4295 158.756,94.0962 157.5,94.5C 159.117,91.2157 161.45,88.5491 164.5,86.5C 167.089,85.5806 169.089,83.914 170.5,81.5C 172.55,79.4525 174.883,77.7859 177.5,76.5C 182.073,75.2129 186.406,73.3796 190.5,71C 195.767,66.2012 201.767,62.7012 208.5,60.5 Z"/></g>
<g><path style="opacity:1" fill="#211207" d="M 255.5,54.5 C 255.5,58.8333 255.5,63.1667 255.5,67.5C 239.828,61.5175 224.494,62.3509 209.5,70C 206.112,71.0771 202.779,71.4104 199.5,71C 197.004,72.331 195.004,74.1644 193.5,76.5C 190.506,77.9934 188.506,80.3267 187.5,83.5C 186.957,83.56 186.624,83.8933 186.5,84.5C 190.945,89.1677 189.945,92.1677 183.5,93.5C 186.028,94.5174 186.028,95.6841 183.5,97C 173.844,100.315 164.511,100.148 155.5,96.5C 155.833,95.8333 156.167,95.1667 156.5,94.5C 156.833,94.5 157.167,94.5 157.5,94.5C 158.756,94.0962 159.923,93.4295 161,92.5C 162.465,93.3295 163.965,93.4962 165.5,93C 172.981,82.5375 182.981,75.5375 195.5,72C 197.746,70.7432 199.079,68.9099 199.5,66.5C 201.858,66.7475 203.858,66.0808 205.5,64.5C 210.355,63.5028 214.688,61.3362 218.5,58C 230.912,57.2233 243.246,56.0567 255.5,54.5 Z"/></g>
<g><path style="opacity:1" fill="#7d8252" d="M 92.5,76.5 C 93.0482,78.6264 93.7148,80.6264 94.5,82.5C 94.9926,84.8056 95.3259,87.139 95.5,89.5C 94.2248,93.1023 93.2248,96.769 92.5,100.5C 92.5,97.5 92.5,94.5 92.5,91.5C 91.3814,86.3471 91.3814,81.3471 92.5,76.5 Z"/></g>
<g><path style="opacity:1" fill="#79a7b1" d="M 117.5,83.5 C 118.167,84.5 118.833,85.5 119.5,86.5C 119.925,89.1192 120.925,91.4525 122.5,93.5C 122.737,94.791 122.404,95.791 121.5,96.5C 120.542,94.6976 119.875,92.6976 119.5,90.5C 118.377,89.2426 117.711,89.5759 117.5,91.5C 116.167,88.8333 116.167,86.1667 117.5,83.5 Z"/></g>
<g><path style="opacity:1" fill="#0d323b" d="M 60.5,66.5 C 61.3485,68.8876 62.3485,71.2209 63.5,73.5C 63.8333,75.5 64.1667,77.5 64.5,79.5C 64.5,83.5 64.5,87.5 64.5,91.5C 60.6824,91.4138 57.0157,92.0805 53.5,93.5C 52.2284,93.4302 51.0617,93.0968 50,92.5C 49.5,93.6667 48.6667,94.5 47.5,95C 44.8333,95.3333 42.1667,95.6667 39.5,96C 29.1578,100.709 19.3244,104.209 10,106.5C 9.66667,106.167 9.33333,105.833 9,105.5C 7.4571,107.378 5.62377,108.878 3.5,110C 3.83333,110.333 4.16667,110.667 4.5,111C 2.84552,111.608 1.17885,112.108 -0.5,112.5C -0.5,98.8333 -0.5,85.1667 -0.5,71.5C -0.166667,71.5 0.166667,71.5 0.5,71.5C 0.5,75.5 0.5,79.5 0.5,83.5C 0.335374,86.5184 0.50204,89.5184 1,92.5C 3.59715,90.5732 6.43048,89.0732 9.5,88C 8.83333,87.6667 8.16667,87.3333 7.5,87C 9.44058,86.2571 11.2739,86.4238 13,87.5C 22.0739,85.168 31.2406,83.0014 40.5,81C 41.459,79.5362 42.7923,78.7028 44.5,78.5C 46.5692,79.5376 48.5692,79.2043 50.5,77.5C 53.1029,78.5617 55.7695,78.7284 58.5,78C 59.0931,74.3868 59.7598,70.5534 60.5,66.5 Z"/></g>
<g><path style="opacity:1" fill="#525d51" d="M 130.5,79.5 C 128.952,79.8212 128.285,80.8212 128.5,82.5C 128.5,85.5 128.5,88.5 128.5,91.5C 128.5,92.5 128.5,93.5 128.5,94.5C 126.435,94.4828 124.435,94.1495 122.5,93.5C 120.925,91.4525 119.925,89.1192 119.5,86.5C 120.627,87.1217 121.627,87.955 122.5,89C 124.112,89.7203 125.612,89.5536 127,88.5C 127.498,85.1832 127.665,81.8499 127.5,78.5C 128.791,78.2627 129.791,78.596 130.5,79.5 Z"/></g>
<g><path style="opacity:1" fill="#b8c5b9" d="M 128.5,82.5 C 129.822,82.33 130.989,82.6634 132,83.5C 132.639,86.1123 133.806,88.4457 135.5,90.5C 134.754,91.7362 134.421,93.0695 134.5,94.5C 133.167,94.5 131.833,94.5 130.5,94.5C 130.737,93.209 130.404,92.209 129.5,91.5C 129.167,91.5 128.833,91.5 128.5,91.5C 128.5,88.5 128.5,85.5 128.5,82.5 Z"/></g>
<g><path style="opacity:1" fill="#113c46" d="M 64.5,79.5 C 65.4511,80.9187 65.7845,82.5853 65.5,84.5C 65.5,89.1667 65.5,93.8333 65.5,98.5C 64.1779,98.67 63.0113,98.3366 62,97.5C 61.4807,100.492 59.9807,101.492 57.5,100.5C 54.223,101.254 50.8897,101.754 47.5,102C 43.3125,105.398 38.4792,107.231 33,107.5C 31.1614,109.339 29.3281,111.172 27.5,113C 25.5211,113.684 23.8544,113.184 22.5,111.5C 21.094,112.951 19.594,114.284 18,115.5C 16.0573,115.041 14.724,116.041 14,118.5C 12.3005,117.594 10.4672,117.261 8.5,117.5C 5.45637,116.483 2.45637,115.149 -0.5,113.5C -0.5,113.167 -0.5,112.833 -0.5,112.5C 1.17885,112.108 2.84552,111.608 4.5,111C 4.16667,110.667 3.83333,110.333 3.5,110C 5.62377,108.878 7.4571,107.378 9,105.5C 9.33333,105.833 9.66667,106.167 10,106.5C 19.3244,104.209 29.1578,100.709 39.5,96C 42.1667,95.6667 44.8333,95.3333 47.5,95C 48.6667,94.5 49.5,93.6667 50,92.5C 51.0617,93.0968 52.2284,93.4302 53.5,93.5C 57.0157,92.0805 60.6824,91.4138 64.5,91.5C 64.5,87.5 64.5,83.5 64.5,79.5 Z"/></g>
<g><path style="opacity:1" fill="#9faea4" d="M 159.5,85.5 C 157.14,87.8652 155.14,90.5319 153.5,93.5C 154.325,94.3857 155.325,94.719 156.5,94.5C 156.167,95.1667 155.833,95.8333 155.5,96.5C 154.662,96.8417 154.328,97.5084 154.5,98.5C 154.167,98.5 153.833,98.5 153.5,98.5C 152.778,98.9175 152.278,99.5842 152,100.5C 150.482,98.1874 150.316,95.854 151.5,93.5C 153.188,89.8116 155.855,87.1449 159.5,85.5 Z"/></g>
<g><path style="opacity:1" fill="#797a57" d="M 122.5,93.5 C 124.435,94.1495 126.435,94.4828 128.5,94.5C 128.5,97.8333 128.5,101.167 128.5,104.5C 126.5,104.5 124.5,104.5 122.5,104.5C 121.908,101.873 121.575,99.2062 121.5,96.5C 122.404,95.791 122.737,94.791 122.5,93.5 Z"/></g>
<g><path style="opacity:1" fill="#859b91" d="M 130.5,79.5 C 132.291,82.3211 134.791,84.3211 138,85.5C 138.384,83.8034 138.218,82.1368 137.5,80.5C 137.435,80.0618 137.601,79.7284 138,79.5C 140.903,81.5463 142.736,84.213 143.5,87.5C 142.022,87.238 140.689,87.5713 139.5,88.5C 138.347,93.6739 137.014,98.6739 135.5,103.5C 135.663,101.143 135.497,98.8098 135,96.5C 133.806,98.5254 132.306,98.8587 130.5,97.5C 129.534,95.604 129.201,93.604 129.5,91.5C 130.404,92.209 130.737,93.209 130.5,94.5C 131.833,94.5 133.167,94.5 134.5,94.5C 134.421,93.0695 134.754,91.7362 135.5,90.5C 133.806,88.4457 132.639,86.1123 132,83.5C 130.989,82.6634 129.822,82.33 128.5,82.5C 128.285,80.8212 128.952,79.8212 130.5,79.5 Z"/></g>
<g><path style="opacity:1" fill="#2c3825" d="M 75.5,81.5 C 77.2927,83.4261 78.2927,85.7594 78.5,88.5C 76.241,93.1274 75.241,98.1274 75.5,103.5C 73.5887,102.925 71.922,101.925 70.5,100.5C 69.8505,98.5648 69.5172,96.5648 69.5,94.5C 70.0998,93.1001 71.0998,92.1001 72.5,91.5C 73.8991,88.3012 74.8991,84.9679 75.5,81.5 Z"/></g>
<g><path style="opacity:1" fill="#1a130c" d="M 224.5,77.5 C 225.11,78.391 225.443,79.391 225.5,80.5C 226.7,83.969 226.7,87.3023 225.5,90.5C 223.16,94.6942 220.16,98.5276 216.5,102C 212.234,103.087 208.234,104.754 204.5,107C 197.641,109.169 190.641,110.169 183.5,110C 189.529,108.483 195.196,106.15 200.5,103C 208.342,95.0872 208.009,94.7539 199.5,102C 198.552,102.483 197.552,102.649 196.5,102.5C 195.903,101.861 195.07,101.528 194,101.5C 183.842,104.989 173.342,106.489 162.5,106C 163.5,107 164.5,108 165.5,109C 165,109.167 164.5,109.333 164,109.5C 160.479,107.077 157.312,104.411 154.5,101.5C 154.5,100.5 154.5,99.5 154.5,98.5C 154.328,97.5084 154.662,96.8417 155.5,96.5C 164.511,100.148 173.844,100.315 183.5,97C 186.028,95.6841 186.028,94.5174 183.5,93.5C 189.945,92.1677 190.945,89.1677 186.5,84.5C 186.624,83.8933 186.957,83.56 187.5,83.5C 188.251,84.5735 189.251,84.7401 190.5,84C 196.128,80.1828 202.128,77.1828 208.5,75C 214.282,73.7512 219.615,74.5846 224.5,77.5 Z"/></g>
<g><path style="opacity:1" fill="#100f03" d="M 225.5,90.5 C 225.238,91.9778 225.571,93.3112 226.5,94.5C 227.415,92.0197 228.915,91.3531 231,92.5C 232.437,99.6063 229.937,104.773 223.5,108C 218.99,110.45 214.323,112.284 209.5,113.5C 197.944,115.737 186.277,117.403 174.5,118.5C 172.369,117.686 170.036,117.186 167.5,117C 166.833,116.333 166.167,115.667 165.5,115C 168.623,114.794 171.623,114.127 174.5,113C 171.3,112.899 168.3,112.232 165.5,111C 176.839,111.087 187.173,108.253 196.5,102.5C 197.552,102.649 198.552,102.483 199.5,102C 208.009,94.7539 208.342,95.0872 200.5,103C 195.196,106.15 189.529,108.483 183.5,110C 190.641,110.169 197.641,109.169 204.5,107C 208.234,104.754 212.234,103.087 216.5,102C 220.16,98.5276 223.16,94.6942 225.5,90.5 Z"/></g>
<g><path style="opacity:1" fill="#a4bfbd" d="M 99.5,87.5 C 96.4907,94.2531 95.8241,101.253 97.5,108.5C 97.7805,113.709 97.7805,118.709 97.5,123.5C 93.8033,117.397 92.1367,110.731 92.5,103.5C 92.5,102.5 92.5,101.5 92.5,100.5C 93.2248,96.769 94.2248,93.1023 95.5,89.5C 96.7124,88.7701 97.7124,87.7701 98.5,86.5C 99.1067,86.6236 99.44,86.9569 99.5,87.5 Z"/></g>
<g><path style="opacity:1" fill="#313325" d="M 115.5,92.5 C 117.088,100.277 117.754,108.277 117.5,116.5C 115.27,111.69 113.27,106.69 111.5,101.5C 112.735,101.721 113.735,102.388 114.5,103.5C 115.489,99.8927 115.823,96.226 115.5,92.5 Z"/></g>
<g><path style="opacity:1" fill="#1f2101" d="M 225.5,80.5 C 227.28,81.9899 227.946,83.9899 227.5,86.5C 228.93,86.4208 230.264,86.7542 231.5,87.5C 232.723,92.1642 232.723,96.8309 231.5,101.5C 231.754,103.417 232.754,104.751 234.5,105.5C 231.071,109.262 227.071,112.262 222.5,114.5C 218.366,113.515 214.032,113.182 209.5,113.5C 214.323,112.284 218.99,110.45 223.5,108C 229.937,104.773 232.437,99.6063 231,92.5C 228.915,91.3531 227.415,92.0197 226.5,94.5C 225.571,93.3112 225.238,91.9778 225.5,90.5C 226.7,87.3023 226.7,83.969 225.5,80.5 Z"/></g>
<g><path style="opacity:1" fill="#808d7b" d="M 128.5,91.5 C 128.833,91.5 129.167,91.5 129.5,91.5C 129.201,93.604 129.534,95.604 130.5,97.5C 132.306,98.8587 133.806,98.5254 135,96.5C 135.497,98.8098 135.663,101.143 135.5,103.5C 134.556,108.165 132.39,112.165 129,115.5C 128.502,118.482 128.335,121.482 128.5,124.5C 127.557,127.109 125.89,129.109 123.5,130.5C 123.5,129.833 123.5,129.167 123.5,128.5C 123.77,120.445 123.437,112.445 122.5,104.5C 124.5,104.5 126.5,104.5 128.5,104.5C 128.5,101.167 128.5,97.8333 128.5,94.5C 128.5,93.5 128.5,92.5 128.5,91.5 Z"/></g>
<g><path style="opacity:1" fill="#6b7565" d="M 145.5,79.5 C 146.401,80.2905 147.068,81.2905 147.5,82.5C 146.942,83.7899 145.942,84.6232 144.5,85C 146.888,87.9364 149.222,90.7697 151.5,93.5C 150.316,95.854 150.482,98.1874 152,100.5C 152.278,99.5842 152.778,98.9175 153.5,98.5C 153.843,100.483 153.176,101.817 151.5,102.5C 149.781,104.816 147.948,107.15 146,109.5C 142.823,119.182 139.656,128.849 136.5,138.5C 135.883,138.611 135.383,138.944 135,139.5C 134.264,136.408 134.431,133.408 135.5,130.5C 136.41,126.098 137.744,121.764 139.5,117.5C 140.967,113.099 142.634,108.766 144.5,104.5C 144.281,105.675 144.614,106.675 145.5,107.5C 147.401,104.369 148.735,101.035 149.5,97.5C 148.325,97.281 147.325,97.6143 146.5,98.5C 146.006,100.026 145.339,101.359 144.5,102.5C 144.631,101.761 144.464,101.094 144,100.5C 140.906,105.023 138.073,109.69 135.5,114.5C 134.279,115.028 133.113,115.695 132,116.5C 131.262,119.501 130.096,122.168 128.5,124.5C 128.335,121.482 128.502,118.482 129,115.5C 132.39,112.165 134.556,108.165 135.5,103.5C 137.014,98.6739 138.347,93.6739 139.5,88.5C 140.689,87.5713 142.022,87.238 143.5,87.5C 142.736,84.213 140.903,81.5463 138,79.5C 137.601,79.7284 137.435,80.0618 137.5,80.5C 136.427,79.7494 136.26,78.7494 137,77.5C 140.032,78.0923 142.698,79.4256 145,81.5C 145.464,80.9056 145.631,80.2389 145.5,79.5 Z"/></g>
<g><path style="opacity:1" fill="#baccc8" d="M 144.5,104.5 C 144.5,103.833 144.5,103.167 144.5,102.5C 145.339,101.359 146.006,100.026 146.5,98.5C 147.325,97.6143 148.325,97.281 149.5,97.5C 148.735,101.035 147.401,104.369 145.5,107.5C 144.614,106.675 144.281,105.675 144.5,104.5 Z"/></g>
<g><path style="opacity:1" fill="#20200b" d="M 151.5,102.5 C 151.611,103.117 151.944,103.617 152.5,104C 151.418,105.33 150.751,106.83 150.5,108.5C 144.147,119.222 140.147,130.888 138.5,143.5C 137.5,143.5 136.5,143.5 135.5,143.5C 136.038,141.883 136.371,140.216 136.5,138.5C 139.656,128.849 142.823,119.182 146,109.5C 147.948,107.15 149.781,104.816 151.5,102.5 Z"/></g>
<g><path style="opacity:1" fill="#1a1b0e" d="M 154.5,101.5 C 157.312,104.411 160.479,107.077 164,109.5C 164.5,109.333 165,109.167 165.5,109C 164.5,108 163.5,107 162.5,106C 173.342,106.489 183.842,104.989 194,101.5C 195.07,101.528 195.903,101.861 196.5,102.5C 187.173,108.253 176.839,111.087 165.5,111C 168.3,112.232 171.3,112.899 174.5,113C 171.623,114.127 168.623,114.794 165.5,115C 166.167,115.667 166.833,116.333 167.5,117C 170.036,117.186 172.369,117.686 174.5,118.5C 171.482,118.665 168.482,118.498 165.5,118C 164.62,116.644 164.286,115.144 164.5,113.5C 160.73,112.264 157.563,109.931 155,106.5C 154.506,104.866 154.34,103.199 154.5,101.5 Z"/></g>
<g><path style="opacity:1" fill="#164752" d="M 65.5,84.5 C 66.4065,88.6783 67.2398,93.0116 68,97.5C 68.2355,99.1193 69.0689,100.119 70.5,100.5C 71.922,101.925 73.5887,102.925 75.5,103.5C 75.5,103.833 75.5,104.167 75.5,104.5C 76.0453,107.998 75.212,110.998 73,113.5C 72.6667,113.167 72.3333,112.833 72,112.5C 69.7342,113.956 67.2342,114.79 64.5,115C 62.9391,115.318 61.7724,116.151 61,117.5C 60.586,117.043 60.086,116.709 59.5,116.5C 57.6096,118.578 55.2762,119.911 52.5,120.5C 51.2011,119.91 50.3678,118.91 50,117.5C 49.5983,118.872 49.0983,120.205 48.5,121.5C 45.7033,122.105 43.37,123.438 41.5,125.5C 42.5686,123.031 43.9019,120.698 45.5,118.5C 41.9707,116.577 37.9707,115.911 33.5,116.5C 27.9035,116.259 22.5701,117.259 17.5,119.5C 14.1226,119.932 11.1226,119.265 8.5,117.5C 10.4672,117.261 12.3005,117.594 14,118.5C 14.724,116.041 16.0573,115.041 18,115.5C 19.594,114.284 21.094,112.951 22.5,111.5C 23.8544,113.184 25.5211,113.684 27.5,113C 29.3281,111.172 31.1614,109.339 33,107.5C 38.4792,107.231 43.3125,105.398 47.5,102C 50.8897,101.754 54.223,101.254 57.5,100.5C 59.9807,101.492 61.4807,100.492 62,97.5C 63.0113,98.3366 64.1779,98.67 65.5,98.5C 65.5,93.8333 65.5,89.1667 65.5,84.5 Z"/></g>
<g><path style="opacity:1" fill="#cbc7a6" d="M 119.5,90.5 C 119.875,92.6976 120.542,94.6976 121.5,96.5C 121.575,99.2062 121.908,101.873 122.5,104.5C 123.437,112.445 123.77,120.445 123.5,128.5C 121.666,117.217 119.999,105.717 118.5,94C 118.514,92.6153 118.848,91.4486 119.5,90.5 Z"/></g>
<g><path style="opacity:1" fill="#17505d" d="M 75.5,104.5 C 75.8333,104.5 76.1667,104.5 76.5,104.5C 76.3339,110.176 76.5006,115.843 77,121.5C 77.7172,122.044 78.2172,122.711 78.5,123.5C 79.7603,130.162 79.7603,136.829 78.5,143.5C 66.8333,143.5 55.1667,143.5 43.5,143.5C 42.3433,140.016 41.01,136.683 39.5,133.5C 39.5651,130.572 40.2318,127.905 41.5,125.5C 43.37,123.438 45.7033,122.105 48.5,121.5C 49.0983,120.205 49.5983,118.872 50,117.5C 50.3678,118.91 51.2011,119.91 52.5,120.5C 55.2762,119.911 57.6096,118.578 59.5,116.5C 60.086,116.709 60.586,117.043 61,117.5C 61.7724,116.151 62.9391,115.318 64.5,115C 67.2342,114.79 69.7342,113.956 72,112.5C 72.3333,112.833 72.6667,113.167 73,113.5C 75.212,110.998 76.0453,107.998 75.5,104.5 Z"/></g>
<g><path style="opacity:1" fill="#9cb9b5" d="M 78.5,123.5 C 78.2172,122.711 77.7172,122.044 77,121.5C 76.5006,115.843 76.3339,110.176 76.5,104.5C 76.3359,101.813 76.5026,99.146 77,96.5C 79.3799,105.559 79.8799,114.559 78.5,123.5 Z"/></g>
<g><path style="opacity:1" fill="#2e371f" d="M 81.5,94.5 C 82.4272,106.457 84.4272,118.123 87.5,129.5C 85.5905,128.025 84.4238,126.025 84,123.5C 82.1711,114.193 80.6711,104.86 79.5,95.5C 80.1667,95.1667 80.8333,94.8333 81.5,94.5 Z"/></g>
<g><path style="opacity:1" fill="#8b9796" d="M 33.5,116.5 C 37.9707,115.911 41.9707,116.577 45.5,118.5C 42.1667,118.5 38.8333,118.5 35.5,118.5C 34.5,118.5 33.5,118.5 32.5,118.5C 32.8333,117.833 33.1667,117.167 33.5,116.5 Z"/></g>
<g><path style="opacity:1" fill="#2f3208" d="M 153.5,98.5 C 153.833,98.5 154.167,98.5 154.5,98.5C 154.5,99.5 154.5,100.5 154.5,101.5C 154.34,103.199 154.506,104.866 155,106.5C 157.563,109.931 160.73,112.264 164.5,113.5C 164.286,115.144 164.62,116.644 165.5,118C 168.482,118.498 171.482,118.665 174.5,118.5C 186.277,117.403 197.944,115.737 209.5,113.5C 214.032,113.182 218.366,113.515 222.5,114.5C 218.229,116.973 213.896,119.473 209.5,122C 204.962,123.012 200.629,124.512 196.5,126.5C 197.203,123.458 199.203,121.791 202.5,121.5C 203.452,119.955 203.785,118.288 203.5,116.5C 197.199,116.532 191.199,117.532 185.5,119.5C 180.833,119.5 176.167,119.5 171.5,119.5C 169.143,119.663 166.81,119.497 164.5,119C 162.347,118.901 160.681,118.067 159.5,116.5C 157.719,113.777 156.052,110.943 154.5,108C 153.072,107.421 151.738,107.588 150.5,108.5C 150.751,106.83 151.418,105.33 152.5,104C 151.944,103.617 151.611,103.117 151.5,102.5C 153.176,101.817 153.843,100.483 153.5,98.5 Z"/></g>
<g><path style="opacity:1" fill="#a49e76" d="M 119.5,90.5 C 118.848,91.4486 118.514,92.6153 118.5,94C 119.999,105.717 121.666,117.217 123.5,128.5C 123.5,129.167 123.5,129.833 123.5,130.5C 123.843,132.483 123.176,133.817 121.5,134.5C 121.5,133.833 121.5,133.167 121.5,132.5C 120.169,118.838 118.836,105.171 117.5,91.5C 117.711,89.5759 118.377,89.2426 119.5,90.5 Z"/></g>
<g><path style="opacity:1" fill="#3e3428" d="M 92.5,103.5 C 92.1367,110.731 93.8033,117.397 97.5,123.5C 97.5,123.833 97.5,124.167 97.5,124.5C 99.3623,130.658 100.696,136.991 101.5,143.5C 99.8333,143.5 98.1667,143.5 96.5,143.5C 93.0475,139.398 90.0475,135.065 87.5,130.5C 87.5,130.167 87.5,129.833 87.5,129.5C 84.4272,118.123 82.4272,106.457 81.5,94.5C 82.3132,93.3473 83.3132,93.3473 84.5,94.5C 86.5318,97.3681 88.3651,100.368 90,103.5C 90.7697,104.598 91.603,104.598 92.5,103.5 Z"/></g>
<g><path style="opacity:1" fill="#283530" d="M 35.5,118.5 C 38.8333,118.5 42.1667,118.5 45.5,118.5C 43.9019,120.698 42.5686,123.031 41.5,125.5C 40.2318,127.905 39.5651,130.572 39.5,133.5C 39.31,137.032 39.9767,140.365 41.5,143.5C 37.8333,143.5 34.1667,143.5 30.5,143.5C 29.8811,138.548 29.2144,133.548 28.5,128.5C 27.0186,127.52 25.6853,126.353 24.5,125C 28.2622,122.794 31.9289,120.627 35.5,118.5 Z"/></g>
<g><path style="opacity:1" fill="#1a515d" d="M 111.5,101.5 C 113.27,106.69 115.27,111.69 117.5,116.5C 118.224,122.063 119.557,127.397 121.5,132.5C 121.5,133.167 121.5,133.833 121.5,134.5C 122.232,139.364 123.898,139.697 126.5,135.5C 127.239,135.369 127.906,135.536 128.5,136C 129.488,138.167 130.821,140 132.5,141.5C 132.5,142.167 132.5,142.833 132.5,143.5C 125.5,143.5 118.5,143.5 111.5,143.5C 111.566,137.721 110.233,132.387 107.5,127.5C 107.167,127.5 106.833,127.5 106.5,127.5C 107.374,118.414 108.708,109.414 110.5,100.5C 111.107,100.624 111.44,100.957 111.5,101.5 Z"/></g>
<g><path style="opacity:1" fill="#3e4217" d="M 196.5,126.5 C 193.377,128.544 190.044,130.211 186.5,131.5C 184.335,131.884 182.668,131.217 181.5,129.5C 184.546,126.408 187.546,123.241 190.5,120C 188.866,119.506 187.199,119.34 185.5,119.5C 191.199,117.532 197.199,116.532 203.5,116.5C 203.785,118.288 203.452,119.955 202.5,121.5C 199.203,121.791 197.203,123.458 196.5,126.5 Z"/></g>
<g><path style="opacity:1" fill="#9babac" d="M -0.5,113.5 C 2.45637,115.149 5.45637,116.483 8.5,117.5C 11.1226,119.265 14.1226,119.932 17.5,119.5C 16.7375,120.268 15.7375,120.768 14.5,121C 15.4158,121.278 16.0825,121.778 16.5,122.5C 15.5,122.5 14.5,122.5 13.5,122.5C 8.80267,120.497 4.136,118.497 -0.5,116.5C -0.5,115.5 -0.5,114.5 -0.5,113.5 Z"/></g>
<g><path style="opacity:1" fill="#1a282a" d="M -0.5,116.5 C 4.136,118.497 8.80267,120.497 13.5,122.5C 14.4687,123.309 15.3021,124.309 16,125.5C 18.6746,124.312 20.8413,124.979 22.5,127.5C 21.596,128.209 21.2627,129.209 21.5,130.5C 14.1176,131.15 6.78424,130.484 -0.5,128.5C -0.5,124.5 -0.5,120.5 -0.5,116.5 Z"/></g>
<g><path style="opacity:1" fill="#c0cecd" d="M 33.5,116.5 C 33.1667,117.167 32.8333,117.833 32.5,118.5C 31.448,118.351 30.448,118.517 29.5,119C 26.8444,120.656 24.3444,122.49 22,124.5C 19.9701,124.046 18.1368,123.38 16.5,122.5C 16.0825,121.778 15.4158,121.278 14.5,121C 15.7375,120.768 16.7375,120.268 17.5,119.5C 22.5701,117.259 27.9035,116.259 33.5,116.5 Z"/></g>
<g><path style="opacity:1" fill="#5a5336" d="M 144.5,102.5 C 144.5,103.167 144.5,103.833 144.5,104.5C 142.634,108.766 140.967,113.099 139.5,117.5C 134.439,122.627 130.106,128.293 126.5,134.5C 126.687,132.436 127.187,130.436 128,128.5C 131.303,124.225 133.803,119.558 135.5,114.5C 138.073,109.69 140.906,105.023 144,100.5C 144.464,101.094 144.631,101.761 144.5,102.5 Z"/></g>
<g><path style="opacity:1" fill="#58623a" d="M 159.5,116.5 C 160.681,118.067 162.347,118.901 164.5,119C 166.81,119.497 169.143,119.663 171.5,119.5C 171.918,120.222 172.584,120.722 173.5,121C 170.786,122.794 167.786,123.96 164.5,124.5C 160.655,129.539 156.822,134.539 153,139.5C 152.209,140.745 151.709,142.078 151.5,143.5C 147.833,143.5 144.167,143.5 140.5,143.5C 141.017,135.748 143.517,128.748 148,122.5C 148.333,120.5 148.667,118.5 149,116.5C 150.955,115.547 152.622,114.213 154,112.5C 155.451,114.464 157.284,115.797 159.5,116.5 Z"/></g>
<g><path style="opacity:1" fill="#817e5c" d="M 115.5,81.5 C 116.833,81.5 117.5,82.1667 117.5,83.5C 116.167,86.1667 116.167,88.8333 117.5,91.5C 118.836,105.171 120.169,118.838 121.5,132.5C 119.557,127.397 118.224,122.063 117.5,116.5C 117.754,108.277 117.088,100.277 115.5,92.5C 115.5,88.8333 115.5,85.1667 115.5,81.5 Z"/></g>
<g><path style="opacity:1" fill="#424519" d="M 159.5,116.5 C 157.284,115.797 155.451,114.464 154,112.5C 152.622,114.213 150.955,115.547 149,116.5C 148.667,118.5 148.333,120.5 148,122.5C 143.517,128.748 141.017,135.748 140.5,143.5C 139.833,143.5 139.167,143.5 138.5,143.5C 140.147,130.888 144.147,119.222 150.5,108.5C 151.738,107.588 153.072,107.421 154.5,108C 156.052,110.943 157.719,113.777 159.5,116.5 Z"/></g>
<g><path style="opacity:1" fill="#475231" d="M 171.5,119.5 C 176.167,119.5 180.833,119.5 185.5,119.5C 187.199,119.34 188.866,119.506 190.5,120C 187.546,123.241 184.546,126.408 181.5,129.5C 182.668,131.217 184.335,131.884 186.5,131.5C 182.899,133.977 179.233,136.477 175.5,139C 173.859,140.129 172.859,141.629 172.5,143.5C 165.5,143.5 158.5,143.5 151.5,143.5C 151.709,142.078 152.209,140.745 153,139.5C 156.822,134.539 160.655,129.539 164.5,124.5C 167.786,123.96 170.786,122.794 173.5,121C 172.584,120.722 171.918,120.222 171.5,119.5 Z"/></g>
<g><path style="opacity:1" fill="#5d6b54" d="M 78.5,88.5 C 78.448,90.9029 78.7814,93.2362 79.5,95.5C 80.6711,104.86 82.1711,114.193 84,123.5C 84.4238,126.025 85.5905,128.025 87.5,129.5C 87.5,129.833 87.5,130.167 87.5,130.5C 88.0283,131.847 88.195,133.181 88,134.5C 84.2906,129.039 81.9573,123.039 81,116.5C 80.1504,121.021 80.6504,125.355 82.5,129.5C 81.8826,129.389 81.3826,129.056 81,128.5C 80.6643,133.532 80.1643,138.532 79.5,143.5C 79.1667,143.5 78.8333,143.5 78.5,143.5C 79.7603,136.829 79.7603,130.162 78.5,123.5C 79.8799,114.559 79.3799,105.559 77,96.5C 76.5026,99.146 76.3359,101.813 76.5,104.5C 76.1667,104.5 75.8333,104.5 75.5,104.5C 75.5,104.167 75.5,103.833 75.5,103.5C 75.241,98.1274 76.241,93.1274 78.5,88.5 Z"/></g>
<g><path style="opacity:1" fill="#8c9885" d="M 97.5,108.5 C 99.7395,115.32 101.739,122.32 103.5,129.5C 103.649,130.552 103.483,131.552 103,132.5C 102.64,130.392 101.973,128.392 101,126.5C 100.667,126.833 100.333,127.167 100,127.5C 99.1482,126.429 98.3149,125.429 97.5,124.5C 97.5,124.167 97.5,123.833 97.5,123.5C 97.7805,118.709 97.7805,113.709 97.5,108.5 Z"/></g>
<g><path style="opacity:1" fill="#746b4a" d="M 135.5,114.5 C 133.803,119.558 131.303,124.225 128,128.5C 127.187,130.436 126.687,132.436 126.5,134.5C 126.5,134.833 126.5,135.167 126.5,135.5C 123.898,139.697 122.232,139.364 121.5,134.5C 123.176,133.817 123.843,132.483 123.5,130.5C 125.89,129.109 127.557,127.109 128.5,124.5C 130.096,122.168 131.262,119.501 132,116.5C 133.113,115.695 134.279,115.028 135.5,114.5 Z"/></g>
<g><path style="opacity:1" fill="#274341" d="M 32.5,118.5 C 33.5,118.5 34.5,118.5 35.5,118.5C 31.9289,120.627 28.2622,122.794 24.5,125C 25.6853,126.353 27.0186,127.52 28.5,128.5C 29.2144,133.548 29.8811,138.548 30.5,143.5C 28.1667,143.5 25.8333,143.5 23.5,143.5C 23.8958,139.625 24.5625,135.792 25.5,132C 24.6854,130.357 23.6854,128.857 22.5,127.5C 20.8413,124.979 18.6746,124.312 16,125.5C 15.3021,124.309 14.4687,123.309 13.5,122.5C 14.5,122.5 15.5,122.5 16.5,122.5C 18.1368,123.38 19.9701,124.046 22,124.5C 24.3444,122.49 26.8444,120.656 29.5,119C 30.448,118.517 31.448,118.351 32.5,118.5 Z"/></g>
<g><path style="opacity:1" fill="#173132" d="M 22.5,127.5 C 23.6854,128.857 24.6854,130.357 25.5,132C 24.5625,135.792 23.8958,139.625 23.5,143.5C 15.5,143.5 7.5,143.5 -0.5,143.5C -0.5,138.5 -0.5,133.5 -0.5,128.5C 6.78424,130.484 14.1176,131.15 21.5,130.5C 21.2627,129.209 21.596,128.209 22.5,127.5 Z"/></g>
<g><path style="opacity:1" fill="#a4bdbb" d="M 82.5,129.5 C 82.6469,134.214 82.3136,138.881 81.5,143.5C 80.8333,143.5 80.1667,143.5 79.5,143.5C 80.1643,138.532 80.6643,133.532 81,128.5C 81.3826,129.056 81.8826,129.389 82.5,129.5 Z"/></g>
<g><path style="opacity:1" fill="#353e39" d="M 139.5,117.5 C 137.744,121.764 136.41,126.098 135.5,130.5C 134.074,128.104 132.74,128.437 131.5,131.5C 132.611,132.611 133.278,133.945 133.5,135.5C 132.844,137.453 132.511,139.453 132.5,141.5C 130.821,140 129.488,138.167 128.5,136C 127.906,135.536 127.239,135.369 126.5,135.5C 126.5,135.167 126.5,134.833 126.5,134.5C 130.106,128.293 134.439,122.627 139.5,117.5 Z"/></g>
<g><path style="opacity:1" fill="#464d33" d="M 87.5,130.5 C 90.0475,135.065 93.0475,139.398 96.5,143.5C 91.5,143.5 86.5,143.5 81.5,143.5C 82.3136,138.881 82.6469,134.214 82.5,129.5C 80.6504,125.355 80.1504,121.021 81,116.5C 81.9573,123.039 84.2906,129.039 88,134.5C 88.195,133.181 88.0283,131.847 87.5,130.5 Z"/></g>
<g><path style="opacity:1" fill="#4d5c53" d="M 135.5,130.5 C 134.431,133.408 134.264,136.408 135,139.5C 135.383,138.944 135.883,138.611 136.5,138.5C 136.371,140.216 136.038,141.883 135.5,143.5C 134.5,143.5 133.5,143.5 132.5,143.5C 132.5,142.833 132.5,142.167 132.5,141.5C 132.511,139.453 132.844,137.453 133.5,135.5C 133.278,133.945 132.611,132.611 131.5,131.5C 132.74,128.437 134.074,128.104 135.5,130.5 Z"/></g>
<g><path style="opacity:1" fill="#5f664c" d="M 97.5,124.5 C 98.3149,125.429 99.1482,126.429 100,127.5C 100.333,127.167 100.667,126.833 101,126.5C 101.973,128.392 102.64,130.392 103,132.5C 103.483,131.552 103.649,130.552 103.5,129.5C 104.222,129.918 104.722,130.584 105,131.5C 105.41,130.099 105.91,128.766 106.5,127.5C 106.833,127.5 107.167,127.5 107.5,127.5C 107.5,132.833 107.5,138.167 107.5,143.5C 105.5,143.5 103.5,143.5 101.5,143.5C 100.696,136.991 99.3623,130.658 97.5,124.5 Z"/></g>
<g><path style="opacity:1" fill="#677776" d="M 39.5,133.5 C 41.01,136.683 42.3433,140.016 43.5,143.5C 42.8333,143.5 42.1667,143.5 41.5,143.5C 39.9767,140.365 39.31,137.032 39.5,133.5 Z"/></g>
<g><path style="opacity:1" fill="#694745" d="M 107.5,127.5 C 110.233,132.387 111.566,137.721 111.5,143.5C 110.167,143.5 108.833,143.5 107.5,143.5C 107.5,138.167 107.5,132.833 107.5,127.5 Z"/></g>
</svg>
