<?xml version="1.0" encoding="UTF-8"?>
<!DOCTYPE svg PUBLIC "-//W3C//DTD SVG 1.1//EN" "http://www.w3.org/Graphics/SVG/1.1/DTD/svg11.dtd">
<svg xmlns="http://www.w3.org/2000/svg" version="1.1" width="256px" height="144px" style="shape-rendering:geometricPrecision; text-rendering:geometricPrecision; image-rendering:optimizeQuality; fill-rule:evenodd; clip-rule:evenodd" xmlns:xlink="http://www.w3.org/1999/xlink">
<g><path style="opacity:1" fill="#0e1f26" d="M -0.5,-0.5 C 6.5,-0.5 13.5,-0.5 20.5,-0.5C 18.8677,4.25309 17.5343,8.75309 16.5,13C 16.9508,15.5684 17.9508,17.9017 19.5,20C 17.7585,21.6196 15.9252,23.1196 14,24.5C 12.3422,29.6695 14.1755,32.6695 19.5,33.5C 16.995,34.4967 14.3283,34.4967 11.5,33.5C 7.90014,30.602 3.90014,29.9353 -0.5,31.5C -0.5,20.8333 -0.5,10.1667 -0.5,-0.5 Z"/></g>
<g><path style="opacity:1" fill="#111c23" d="M 20.5,-0.5 C 29.8333,-0.5 39.1667,-0.5 48.5,-0.5C 47.3252,5.6511 45.9919,11.6511 44.5,17.5C 41.1568,23.0303 37.1568,28.1969 32.5,33C 28.1794,33.499 23.8461,33.6657 19.5,33.5C 14.1755,32.6695 12.3422,29.6695 14,24.5C 15.9252,23.1196 17.7585,21.6196 19.5,20C 17.9508,17.9017 16.9508,15.5684 16.5,13C 17.5343,8.75309 18.8677,4.25309 20.5,-0.5 Z"/></g>
<g><path style="opacity:1" fill="#2b5754" d="M 230.5,-0.5 C 234.833,-0.5 239.167,-0.5 243.5,-0.5C 243.212,2.93889 242.546,6.27222 241.5,9.5C 237.824,8.14829 234.157,6.81496 230.5,5.5C 230.5,3.5 230.5,1.5 230.5,-0.5 Z"/></g>
<g><path style="opacity:1" fill="#205d5c" d="M 245.5,-0.5 C 248.5,-0.5 251.5,-0.5 254.5,-0.5C 254.343,6.11486 253.01,12.4482 250.5,18.5C 249.167,17.1667 247.833,15.8333 246.5,14.5C 245.694,13.2719 244.694,12.2719 243.5,11.5C 244.804,7.64033 245.471,3.64033 245.5,-0.5 Z"/></g>
<g><path style="opacity:1" fill="#3b3630" d="M 90.5,-0.5 C 96.5,-0.5 102.5,-0.5 108.5,-0.5C 108.5,2.83333 108.5,6.16667 108.5,9.5C 105.403,13.6166 103.57,18.2833 103,23.5C 97.4892,28.8301 92.9892,34.8301 89.5,41.5C 88.8333,42.1667 88.1667,42.8333 87.5,43.5C 85.8662,28.6204 86.8662,13.9537 90.5,-0.5 Z"/></g>
<g><path style="opacity:1" fill="#625955" d="M 108.5,-0.5 C 113.5,-0.5 118.5,-0.5 123.5,-0.5C 121.188,0.341426 118.855,1.34143 116.5,2.5C 113.19,4.14636 110.523,6.4797 108.5,9.5C 108.5,6.16667 108.5,2.83333 108.5,-0.5 Z"/></g>
<g><path style="opacity:1" fill="#bea474" d="M 123.5,-0.5 C 134.167,-0.5 144.833,-0.5 155.5,-0.5C 157.527,2.19386 159.861,4.52719 162.5,6.5C 156.643,6.4901 150.643,6.65676 144.5,7C 145.167,7.66667 145.833,8.33333 146.5,9C 149.226,9.18156 151.893,9.68156 154.5,10.5C 159.321,12.9981 163.654,14.9981 167.5,16.5C 163.564,16.2672 159.897,15.2672 156.5,13.5C 155.441,15.5554 153.775,16.8888 151.5,17.5C 150.625,15.4319 149.459,13.4319 148,11.5C 148.305,13.4432 148.305,15.4432 148,17.5C 146.394,12.6184 143.561,8.61845 139.5,5.5C 138.893,5.62358 138.56,5.95691 138.5,6.5C 133.515,3.93042 128.182,2.93042 122.5,3.5C 120.265,3.79472 118.265,3.46138 116.5,2.5C 118.855,1.34143 121.188,0.341426 123.5,-0.5 Z"/></g>
<g><path style="opacity:1" fill="#2e2b25" d="M 179.5,-0.5 C 196.5,-0.5 213.5,-0.5 230.5,-0.5C 230.5,1.5 230.5,3.5 230.5,5.5C 229.448,5.35055 228.448,5.51722 227.5,6C 229.432,7.4585 231.432,8.62517 233.5,9.5C 232.448,9.35055 231.448,9.51722 230.5,10C 233.357,12.2521 235.357,15.0854 236.5,18.5C 235.833,18.5 235.5,18.8333 235.5,19.5C 233.946,18.0858 232.612,16.4192 231.5,14.5C 230.277,13.3861 228.944,13.2195 227.5,14C 224.331,18.0008 220.997,21.8341 217.5,25.5C 214.593,23.1954 211.259,21.8621 207.5,21.5C 205.281,19.3758 202.614,17.7091 199.5,16.5C 196.402,15.7837 193.402,14.7837 190.5,13.5C 187.62,8.27834 183.953,3.61168 179.5,-0.5 Z"/></g>
<g><path style="opacity:1" fill="#775239" d="M 243.5,-0.5 C 244.167,-0.5 244.833,-0.5 245.5,-0.5C 245.471,3.64033 244.804,7.64033 243.5,11.5C 242.5,11.1667 241.833,10.5 241.5,9.5C 242.546,6.27222 243.212,2.93889 243.5,-0.5 Z"/></g>
<g><path style="opacity:1" fill="#581ec4" d="M 122.5,3.5 C 128.182,2.93042 133.515,3.93042 138.5,6.5C 140.252,8.24595 141.585,10.2459 142.5,12.5C 134.971,5.06582 126.304,3.56582 116.5,8C 111.974,11.017 109.307,15.1837 108.5,20.5C 107.833,20.5 107.5,20.1667 107.5,19.5C 109.14,10.8789 114.14,5.54558 122.5,3.5 Z"/></g>
<g><path style="opacity:1" fill="#7d6f48" d="M 155.5,-0.5 C 163.5,-0.5 171.5,-0.5 179.5,-0.5C 183.953,3.61168 187.62,8.27834 190.5,13.5C 181.3,10.7694 171.967,8.43609 162.5,6.5C 159.861,4.52719 157.527,2.19386 155.5,-0.5 Z"/></g>
<g><path style="opacity:1" fill="#302926" d="M 66.5,-0.5 C 72.5,-0.5 78.5,-0.5 84.5,-0.5C 83.6314,1.71702 83.298,4.05035 83.5,6.5C 79.8362,5.99989 76.8362,7.16655 74.5,10C 75.0968,11.0617 75.4302,12.2284 75.5,13.5C 73.5043,20.4501 72.8376,27.4501 73.5,34.5C 72.4996,39.4977 72.4996,44.6644 73.5,50C 73.7258,52.6709 73.0591,55.0042 71.5,57C 71.8333,57.3333 72.1667,57.6667 72.5,58C 70.3333,59.5 68.5,61.3333 67,63.5C 66.0853,62.6721 65.4186,61.6721 65,60.5C 64.483,54.3109 63.6497,48.3109 62.5,42.5C 61.9571,27.9734 63.2904,13.64 66.5,-0.5 Z"/></g>
<g><path style="opacity:1" fill="#756b4e" d="M 62.5,-0.5 C 63.8333,-0.5 65.1667,-0.5 66.5,-0.5C 63.2904,13.64 61.9571,27.9734 62.5,42.5C 61.7048,41.4723 61.0382,39.8056 60.5,37.5C 60.922,24.8163 61.5886,12.1496 62.5,-0.5 Z"/></g>
<g><path style="opacity:1" fill="#4f1423" d="M 142.5,12.5 C 145.879,18.032 146.212,23.6987 143.5,29.5C 143.66,27.8008 143.494,26.1341 143,24.5C 139.701,22.5463 136.534,20.3797 133.5,18C 128.5,18.6667 123.5,18.6667 118.5,18C 116.691,20.2379 114.358,21.4046 111.5,21.5C 111.657,20.1266 111.49,18.7932 111,17.5C 110.878,19.437 110.045,20.7703 108.5,21.5C 108.5,21.1667 108.5,20.8333 108.5,20.5C 109.307,15.1837 111.974,11.017 116.5,8C 126.304,3.56582 134.971,5.06582 142.5,12.5 Z"/></g>
<g><path style="opacity:1" fill="#dddcdc" d="M 126.5,10.5 C 130.509,10.0136 132.342,11.6803 132,15.5C 126.42,17.7516 124.587,16.0849 126.5,10.5 Z"/></g>
<g><path style="opacity:1" fill="#ded6aa" d="M 162.5,6.5 C 171.967,8.43609 181.3,10.7694 190.5,13.5C 193.402,14.7837 196.402,15.7837 199.5,16.5C 200.574,19.0683 202.574,20.7349 205.5,21.5C 206.228,23.1932 207.228,24.6932 208.5,26C 207.552,26.4828 206.552,26.6495 205.5,26.5C 204.791,25.596 203.791,25.2627 202.5,25.5C 200.29,30.751 201.956,33.751 207.5,34.5C 207.5,33.5 207.5,32.5 207.5,31.5C 207.5,30.8333 207.833,30.5 208.5,30.5C 209.756,30.4614 210.756,30.9614 211.5,32C 209.07,34.3046 208.07,37.1379 208.5,40.5C 205.833,40.1667 203.167,39.8333 200.5,39.5C 200.5,39.1667 200.5,38.8333 200.5,38.5C 201.376,38.6309 202.043,38.2975 202.5,37.5C 198.64,34.9035 197.64,31.4035 199.5,27C 197.709,24.586 196.043,22.086 194.5,19.5C 193.042,18.218 191.708,18.218 190.5,19.5C 189.209,19.7373 188.209,19.404 187.5,18.5C 188.738,18.19 188.738,17.69 187.5,17C 183.445,16.7685 179.445,16.2685 175.5,15.5C 174.571,16.6888 174.238,18.0222 174.5,19.5C 172.5,18.8333 170.5,18.1667 168.5,17.5C 167.833,17.5 167.5,17.1667 167.5,16.5C 163.654,14.9981 159.321,12.9981 154.5,10.5C 151.893,9.68156 149.226,9.18156 146.5,9C 145.833,8.33333 145.167,7.66667 144.5,7C 150.643,6.65676 156.643,6.4901 162.5,6.5 Z"/></g>
<g><path style="opacity:1" fill="#cfc99d" d="M 230.5,5.5 C 234.157,6.81496 237.824,8.14829 241.5,9.5C 241.833,10.5 242.5,11.1667 243.5,11.5C 244.694,12.2719 245.694,13.2719 246.5,14.5C 247.569,17.737 248.902,20.737 250.5,23.5C 249.167,23.5 247.833,23.5 246.5,23.5C 246.167,22.5 245.5,21.8333 244.5,21.5C 242.65,15.7746 238.983,11.7746 233.5,9.5C 231.432,8.62517 229.432,7.4585 227.5,6C 228.448,5.51722 229.448,5.35055 230.5,5.5 Z"/></g>
<g><path style="opacity:1" fill="#204343" d="M 56.5,-0.5 C 57.8333,-0.5 59.1667,-0.5 60.5,-0.5C 59.5226,6.93428 58.0226,14.2676 56,21.5C 55.0137,38.9005 55.5137,56.2339 57.5,73.5C 55.8333,74.1667 54.1667,74.8333 52.5,75.5C 48.9785,49.8527 50.3118,24.5194 56.5,-0.5 Z"/></g>
<g><path style="opacity:1" fill="#93d2cf" d="M 156.5,13.5 C 159.897,15.2672 163.564,16.2672 167.5,16.5C 167.5,17.1667 167.833,17.5 168.5,17.5C 168.5,19.8333 168.5,22.1667 168.5,24.5C 165.234,24.5674 163.734,22.9008 164,19.5C 162.068,17.9617 159.901,16.795 157.5,16C 156.748,15.3292 156.414,14.4959 156.5,13.5 Z"/></g>
<g><path style="opacity:1" fill="#eae4bc" d="M 156.5,13.5 C 156.414,14.4959 156.748,15.3292 157.5,16C 159.901,16.795 162.068,17.9617 164,19.5C 163.734,22.9008 165.234,24.5674 168.5,24.5C 168.5,22.1667 168.5,19.8333 168.5,17.5C 170.5,18.1667 172.5,18.8333 174.5,19.5C 174.238,18.0222 174.571,16.6888 175.5,15.5C 179.445,16.2685 183.445,16.7685 187.5,17C 188.738,17.69 188.738,18.19 187.5,18.5C 184.859,17.7369 182.192,17.5702 179.5,18C 177.98,20.5515 178.313,22.7182 180.5,24.5C 180.5,24.8333 180.5,25.1667 180.5,25.5C 179.596,26.209 179.263,27.209 179.5,28.5C 181.124,28.6399 182.29,27.9733 183,26.5C 183.374,27.4162 183.874,28.2496 184.5,29C 188.394,29.9645 192.227,31.1311 196,32.5C 196.765,32.4301 197.265,32.0967 197.5,31.5C 197.5,30.5 197.5,29.5 197.5,28.5C 193.015,27.7261 188.681,26.2261 184.5,24C 187.396,22.3024 190.396,22.1357 193.5,23.5C 193.532,21.3812 192.532,20.0478 190.5,19.5C 191.708,18.218 193.042,18.218 194.5,19.5C 196.043,22.086 197.709,24.586 199.5,27C 197.64,31.4035 198.64,34.9035 202.5,37.5C 202.043,38.2975 201.376,38.6309 200.5,38.5C 185.907,31.7903 170.574,29.2903 154.5,31C 152.881,30.7645 151.881,29.9311 151.5,28.5C 151.5,27.1667 151.5,25.8333 151.5,24.5C 151.5,22.1667 151.5,19.8333 151.5,17.5C 153.775,16.8888 155.441,15.5554 156.5,13.5 Z"/></g>
<g><path style="opacity:1" fill="#7cd4e3" d="M 180.5,25.5 C 180.5,25.1667 180.5,24.8333 180.5,24.5C 180.201,22.396 180.534,20.396 181.5,18.5C 183.115,19.154 184.782,19.654 186.5,20C 185.207,20.49 183.873,20.6567 182.5,20.5C 182.923,22.7812 182.256,24.4479 180.5,25.5 Z"/></g>
<g><path style="opacity:1" fill="#ab9a5d" d="M 233.5,9.5 C 238.983,11.7746 242.65,15.7746 244.5,21.5C 244.5,23.5 244.5,25.5 244.5,27.5C 243.167,27.5 241.833,27.5 240.5,27.5C 240.308,23.8976 238.974,20.8976 236.5,18.5C 235.357,15.0854 233.357,12.2521 230.5,10C 231.448,9.51722 232.448,9.35055 233.5,9.5 Z"/></g>
<g><path style="opacity:1" fill="#721938" d="M 143.5,29.5 C 143.25,31.674 142.25,33.3406 140.5,34.5C 141.75,31.994 142.416,29.3274 142.5,26.5C 138.149,27.467 135.815,25.8004 135.5,21.5C 130.739,22.399 126.239,24.0657 122,26.5C 120.506,25.2528 119.006,25.2528 117.5,26.5C 115.38,27.9569 114.047,29.9569 113.5,32.5C 113.719,34.9153 115.052,35.9153 117.5,35.5C 117.5,36.1667 117.833,36.5 118.5,36.5C 118.414,37.4959 118.748,38.3292 119.5,39C 121.129,39.5855 122.629,40.4188 124,41.5C 127.816,40.6931 131.65,40.0265 135.5,39.5C 126.079,45.0004 117.412,43.6671 109.5,35.5C 108.833,33.5 108.167,31.5 107.5,29.5C 108.473,27.0521 108.806,24.3854 108.5,21.5C 110.045,20.7703 110.878,19.437 111,17.5C 111.49,18.7932 111.657,20.1266 111.5,21.5C 114.358,21.4046 116.691,20.2379 118.5,18C 123.5,18.6667 128.5,18.6667 133.5,18C 136.534,20.3797 139.701,22.5463 143,24.5C 143.494,26.1341 143.66,27.8008 143.5,29.5 Z"/></g>
<g><path style="opacity:1" fill="#c0b38e" d="M 187.5,18.5 C 188.209,19.404 189.209,19.7373 190.5,19.5C 192.532,20.0478 193.532,21.3812 193.5,23.5C 190.396,22.1357 187.396,22.3024 184.5,24C 188.681,26.2261 193.015,27.7261 197.5,28.5C 193.658,28.7609 189.991,28.0942 186.5,26.5C 186.167,26.8333 185.833,27.1667 185.5,27.5C 189.444,29.0369 193.444,30.3703 197.5,31.5C 197.265,32.0967 196.765,32.4301 196,32.5C 192.227,31.1311 188.394,29.9645 184.5,29C 183.874,28.2496 183.374,27.4162 183,26.5C 182.29,27.9733 181.124,28.6399 179.5,28.5C 179.263,27.209 179.596,26.209 180.5,25.5C 182.256,24.4479 182.923,22.7812 182.5,20.5C 183.873,20.6567 185.207,20.49 186.5,20C 184.782,19.654 183.115,19.154 181.5,18.5C 180.534,20.396 180.201,22.396 180.5,24.5C 178.313,22.7182 177.98,20.5515 179.5,18C 182.192,17.5702 184.859,17.7369 187.5,18.5 Z"/></g>
<g><path style="opacity:1" fill="#10232c" d="M 235.5,19.5 C 236.801,20.8816 237.634,22.5483 238,24.5C 238.2,28.7533 238.7,32.92 239.5,37C 238.748,37.6708 238.414,38.5041 238.5,39.5C 236.589,38.925 234.922,37.925 233.5,36.5C 228.514,32.3395 223.181,28.6728 217.5,25.5C 220.997,21.8341 224.331,18.0008 227.5,14C 228.944,13.2195 230.277,13.3861 231.5,14.5C 232.612,16.4192 233.946,18.0858 235.5,19.5 Z"/></g>
<g><path style="opacity:1" fill="#212422" d="M 48.5,-0.5 C 51.1667,-0.5 53.8333,-0.5 56.5,-0.5C 50.3118,24.5194 48.9785,49.8527 52.5,75.5C 49.8333,76.8333 47.1667,78.1667 44.5,79.5C 44.5,78.1667 44.5,76.8333 44.5,75.5C 43.9853,73.1055 43.3186,70.7722 42.5,68.5C 41.5033,51.4546 42.17,34.4546 44.5,17.5C 45.9919,11.6511 47.3252,5.6511 48.5,-0.5 Z"/></g>
<g><path style="opacity:1" fill="#371f7c" d="M 107.5,19.5 C 107.5,20.1667 107.833,20.5 108.5,20.5C 108.5,20.8333 108.5,21.1667 108.5,21.5C 108.806,24.3854 108.473,27.0521 107.5,29.5C 106.218,26.0641 106.218,22.7307 107.5,19.5 Z"/></g>
<g><path style="opacity:1" fill="#941b4e" d="M 140.5,34.5 C 139.856,37.144 138.189,38.8106 135.5,39.5C 131.65,40.0265 127.816,40.6931 124,41.5C 122.629,40.4188 121.129,39.5855 119.5,39C 118.748,38.3292 118.414,37.4959 118.5,36.5C 123.372,38.2079 128.372,38.7079 133.5,38C 135.072,34.3604 136.738,30.8604 138.5,27.5C 131.579,28.8868 124.579,29.5535 117.5,29.5C 117.5,31.5 117.5,33.5 117.5,35.5C 115.052,35.9153 113.719,34.9153 113.5,32.5C 114.047,29.9569 115.38,27.9569 117.5,26.5C 119.006,25.2528 120.506,25.2528 122,26.5C 126.239,24.0657 130.739,22.399 135.5,21.5C 135.815,25.8004 138.149,27.467 142.5,26.5C 142.416,29.3274 141.75,31.994 140.5,34.5 Z"/></g>
<g><path style="opacity:1" fill="#72c1cf" d="M 197.5,28.5 C 197.5,29.5 197.5,30.5 197.5,31.5C 193.444,30.3703 189.444,29.0369 185.5,27.5C 185.833,27.1667 186.167,26.8333 186.5,26.5C 189.991,28.0942 193.658,28.7609 197.5,28.5 Z"/></g>
<g><path style="opacity:1" fill="#af8f66" d="M 246.5,14.5 C 247.833,15.8333 249.167,17.1667 250.5,18.5C 252.978,22.1217 254.311,26.1217 254.5,30.5C 252.167,30.5 249.833,30.5 247.5,30.5C 247.167,28.5 246.833,26.5 246.5,24.5C 246.5,24.1667 246.5,23.8333 246.5,23.5C 247.833,23.5 249.167,23.5 250.5,23.5C 248.902,20.737 247.569,17.737 246.5,14.5 Z"/></g>
<g><path style="opacity:1" fill="#756a59" d="M 205.5,26.5 C 203.692,27.9179 203.025,29.9179 203.5,32.5C 204.959,32.5674 206.292,32.2341 207.5,31.5C 207.5,32.5 207.5,33.5 207.5,34.5C 201.956,33.751 200.29,30.751 202.5,25.5C 203.791,25.2627 204.791,25.596 205.5,26.5 Z"/></g>
<g><path style="opacity:1" fill="#74d1d7" d="M 205.5,26.5 C 206.808,27.2323 208.142,28.0656 209.5,29C 208.944,29.3826 208.611,29.8826 208.5,30.5C 207.833,30.5 207.5,30.8333 207.5,31.5C 206.292,32.2341 204.959,32.5674 203.5,32.5C 203.025,29.9179 203.692,27.9179 205.5,26.5 Z"/></g>
<g><path style="opacity:1" fill="#1e202c" d="M 84.5,-0.5 C 86.5,-0.5 88.5,-0.5 90.5,-0.5C 86.8662,13.9537 85.8662,28.6204 87.5,43.5C 83.724,50.4896 80.724,57.8229 78.5,65.5C 77.8826,65.3893 77.3826,65.056 77,64.5C 75.8322,54.4914 74.6655,44.4914 73.5,34.5C 72.8376,27.4501 73.5043,20.4501 75.5,13.5C 75.4302,12.2284 75.0968,11.0617 74.5,10C 76.8362,7.16655 79.8362,5.99989 83.5,6.5C 83.298,4.05035 83.6314,1.71702 84.5,-0.5 Z"/></g>
<g><path style="opacity:1" fill="#b41d69" d="M 118.5,36.5 C 117.833,36.5 117.5,36.1667 117.5,35.5C 117.5,33.5 117.5,31.5 117.5,29.5C 124.579,29.5535 131.579,28.8868 138.5,27.5C 136.738,30.8604 135.072,34.3604 133.5,38C 128.372,38.7079 123.372,38.2079 118.5,36.5 Z"/></g>
<g><path style="opacity:1" fill="#ac9f6a" d="M 151.5,28.5 C 151.881,29.9311 152.881,30.7645 154.5,31C 170.574,29.2903 185.907,31.7903 200.5,38.5C 200.5,38.8333 200.5,39.1667 200.5,39.5C 188.021,33.8667 175.021,32.3667 161.5,35C 156.967,36.7602 152.967,39.2602 149.5,42.5C 149.12,41.8669 148.787,41.2003 148.5,40.5C 145.648,42.9102 142.648,44.7436 139.5,46C 142.333,43.1667 145.167,40.3333 148,37.5C 148.661,34.198 149.828,31.198 151.5,28.5 Z"/></g>
<g><path style="opacity:1" fill="#122028" d="M 44.5,17.5 C 42.17,34.4546 41.5033,51.4546 42.5,68.5C 41.3579,66.0283 39.3579,65.0283 36.5,65.5C 36.0655,61.8418 33.8988,60.1752 30,60.5C 27.761,61.0911 25.5943,61.7578 23.5,62.5C 23.9699,66.9704 22.9699,67.4704 20.5,64C 21.6853,62.647 23.0186,61.4803 24.5,60.5C 24.8812,58.2593 25.0479,55.926 25,53.5C 26.6258,51.0829 28.1258,48.5829 29.5,46C 27.6472,44.3314 25.6472,44.1647 23.5,45.5C 23.8333,46.1667 24.1667,46.8333 24.5,47.5C 22.518,48.2162 20.8513,49.3829 19.5,51C 18.365,51.7494 17.365,51.5827 16.5,50.5C 18.0344,46.9017 16.8678,44.5684 13,43.5C 12.228,43.6448 11.5613,43.9781 11,44.5C 10.3645,43.0337 9.53119,41.7003 8.5,40.5C 10.0818,38.4229 11.0818,36.0896 11.5,33.5C 14.3283,34.4967 16.995,34.4967 19.5,33.5C 23.8461,33.6657 28.1794,33.499 32.5,33C 37.1568,28.1969 41.1568,23.0303 44.5,17.5 Z"/></g>
<g><path style="opacity:1" fill="#786442" d="M 236.5,18.5 C 238.974,20.8976 240.308,23.8976 240.5,27.5C 241.833,27.5 243.167,27.5 244.5,27.5C 244.5,25.5 244.5,23.5 244.5,21.5C 245.5,21.8333 246.167,22.5 246.5,23.5C 246.5,23.8333 246.5,24.1667 246.5,24.5C 246.248,28.9767 246.081,33.6434 246,38.5C 243.619,39.435 241.119,39.7683 238.5,39.5C 238.414,38.5041 238.748,37.6708 239.5,37C 238.7,32.92 238.2,28.7533 238,24.5C 237.634,22.5483 236.801,20.8816 235.5,19.5C 235.5,18.8333 235.833,18.5 236.5,18.5 Z"/></g>
<g><path style="opacity:1" fill="#22161c" d="M 200.5,39.5 C 211.279,44.4028 220.946,51.0694 229.5,59.5C 231.808,62.8153 234.141,66.1486 236.5,69.5C 236.783,70.2891 237.283,70.9558 238,71.5C 243.354,69.0716 248.854,67.0716 254.5,65.5C 246.543,69.1572 238.543,72.8239 230.5,76.5C 227.843,76.838 225.51,76.1713 223.5,74.5C 226.996,69.9683 225.663,65.635 219.5,61.5C 219.5,60.8333 219.167,60.5 218.5,60.5C 214.421,54.7664 209.087,50.4331 202.5,47.5C 201.914,47.7093 201.414,48.0426 201,48.5C 200.505,50.4727 200.338,52.4727 200.5,54.5C 200.401,57.2372 200.735,59.9039 201.5,62.5C 201.649,63.552 201.483,64.552 201,65.5C 200,64.1667 199,62.8333 198,61.5C 196.612,61.2144 195.112,61.5477 193.5,62.5C 193.351,55.2704 192.017,48.2704 189.5,41.5C 188.583,40.8728 187.583,40.5394 186.5,40.5C 186.158,39.6618 185.492,39.3284 184.5,39.5C 181.873,38.9084 179.206,38.5751 176.5,38.5C 173.904,37.7347 171.237,37.4013 168.5,37.5C 167.167,37.5 165.833,37.5 164.5,37.5C 164.167,37.5 163.833,37.5 163.5,37.5C 163.44,36.9569 163.107,36.6236 162.5,36.5C 160.167,37.6667 157.833,38.8333 155.5,40C 151.617,43.0983 147.617,45.9316 143.5,48.5C 145.194,46.1394 147.194,44.1394 149.5,42.5C 152.967,39.2602 156.967,36.7602 161.5,35C 175.021,32.3667 188.021,33.8667 200.5,39.5 Z"/></g>
<g><path style="opacity:1" fill="#5c4e38" d="M 254.5,-0.5 C 254.833,-0.5 255.167,-0.5 255.5,-0.5C 255.5,12.8333 255.5,26.1667 255.5,39.5C 249.705,38.1369 246.039,40.3035 244.5,46C 248.829,51.1433 252.496,56.6433 255.5,62.5C 255.5,63.5 255.5,64.5 255.5,65.5C 255.167,65.5 254.833,65.5 254.5,65.5C 248.854,67.0716 243.354,69.0716 238,71.5C 237.283,70.9558 236.783,70.2891 236.5,69.5C 237.559,67.9301 237.059,66.5968 235,65.5C 234.147,61.5314 233.481,57.5314 233,53.5C 232.5,53 232,52.5 231.5,52C 232.657,50.3787 233.49,48.5453 234,46.5C 235.385,47.5505 236.385,48.8839 237,50.5C 237.167,50 237.333,49.5 237.5,49C 236.008,44.8646 234.675,40.698 233.5,36.5C 234.922,37.925 236.589,38.925 238.5,39.5C 241.119,39.7683 243.619,39.435 246,38.5C 246.081,33.6434 246.248,28.9767 246.5,24.5C 246.833,26.5 247.167,28.5 247.5,30.5C 249.833,30.5 252.167,30.5 254.5,30.5C 254.311,26.1217 252.978,22.1217 250.5,18.5C 253.01,12.4482 254.343,6.11486 254.5,-0.5 Z"/></g>
<g><path style="opacity:1" fill="#715e3d" d="M 116.5,2.5 C 118.265,3.46138 120.265,3.79472 122.5,3.5C 114.14,5.54558 109.14,10.8789 107.5,19.5C 106.218,22.7307 106.218,26.0641 107.5,29.5C 108.167,31.5 108.833,33.5 109.5,35.5C 109.34,37.1992 109.506,38.8659 110,40.5C 112.988,42.3991 115.821,44.3991 118.5,46.5C 118.53,47.4972 118.03,48.1639 117,48.5C 113.855,48.9901 111.022,50.1567 108.5,52C 109.416,52.2784 110.082,52.7784 110.5,53.5C 105.467,54.6786 101.467,57.3453 98.5,61.5C 96.5,63.8333 94.5,66.1667 92.5,68.5C 94.0719,62.0178 98.0719,56.8511 104.5,53C 103.421,51.1413 102.088,49.6413 100.5,48.5C 100.173,46.5122 99.8396,44.5122 99.5,42.5C 102.38,34.9527 101.547,34.6194 97,41.5C 96.5172,42.448 96.3505,43.448 96.5,44.5C 95.1417,45.6256 93.8084,45.6256 92.5,44.5C 92.1203,42.9793 91.9536,41.3126 92,39.5C 91.2917,40.3805 90.4584,41.0472 89.5,41.5C 92.9892,34.8301 97.4892,28.8301 103,23.5C 103.57,18.2833 105.403,13.6166 108.5,9.5C 110.523,6.4797 113.19,4.14636 116.5,2.5 Z"/></g>
<g><path style="opacity:1" fill="#bba172" d="M 199.5,16.5 C 202.614,17.7091 205.281,19.3758 207.5,21.5C 211.278,23.8924 215.278,26.0591 219.5,28C 220.211,29.2547 221.044,30.4214 222,31.5C 220.326,36.9289 219.66,42.5955 220,48.5C 223.773,51.7635 226.94,55.4302 229.5,59.5C 220.946,51.0694 211.279,44.4028 200.5,39.5C 203.167,39.8333 205.833,40.1667 208.5,40.5C 208.07,37.1379 209.07,34.3046 211.5,32C 210.756,30.9614 209.756,30.4614 208.5,30.5C 208.611,29.8826 208.944,29.3826 209.5,29C 208.142,28.0656 206.808,27.2323 205.5,26.5C 206.552,26.6495 207.552,26.4828 208.5,26C 207.228,24.6932 206.228,23.1932 205.5,21.5C 202.574,20.7349 200.574,19.0683 199.5,16.5 Z"/></g>
<g><path style="opacity:1" fill="#dea6b7" d="M 164.5,37.5 C 165.833,37.5 167.167,37.5 168.5,37.5C 165.527,39.8062 162.86,42.4728 160.5,45.5C 159.957,45.44 159.624,45.1067 159.5,44.5C 160.931,41.9613 162.597,39.6279 164.5,37.5 Z"/></g>
<g><path style="opacity:1" fill="#14242f" d="M 11.5,33.5 C 11.0818,36.0896 10.0818,38.4229 8.5,40.5C 9.53119,41.7003 10.3645,43.0337 11,44.5C 11.5613,43.9781 12.228,43.6448 13,43.5C 16.8678,44.5684 18.0344,46.9017 16.5,50.5C 17.365,51.5827 18.365,51.7494 19.5,51C 20.8513,49.3829 22.518,48.2162 24.5,47.5C 24.1667,46.8333 23.8333,46.1667 23.5,45.5C 25.6472,44.1647 27.6472,44.3314 29.5,46C 28.1258,48.5829 26.6258,51.0829 25,53.5C 25.0479,55.926 24.8812,58.2593 24.5,60.5C 23.0186,61.4803 21.6853,62.647 20.5,64C 22.9699,67.4704 23.9699,66.9704 23.5,62.5C 25.5943,61.7578 27.761,61.0911 30,60.5C 33.8988,60.1752 36.0655,61.8418 36.5,65.5C 39.3579,65.0283 41.3579,66.0283 42.5,68.5C 43.3186,70.7722 43.9853,73.1055 44.5,75.5C 40.1652,75.0368 35.8318,74.7035 31.5,74.5C 27.4748,77.0144 23.1415,78.681 18.5,79.5C 15.8304,78.8277 12.9971,78.8277 10,79.5C 8.67386,79.2451 7.67386,78.5784 7,77.5C 6.14825,78.5707 5.31491,79.5707 4.5,80.5C 3.02669,81.0715 1.36002,81.0715 -0.5,80.5C -0.5,64.1667 -0.5,47.8333 -0.5,31.5C 3.90014,29.9353 7.90014,30.602 11.5,33.5 Z"/></g>
<g><path style="opacity:1" fill="#b34a58" d="M 176.5,38.5 C 179.206,38.5751 181.873,38.9084 184.5,39.5C 183.942,40.7899 182.942,41.6232 181.5,42C 178.854,42.4974 176.187,42.6641 173.5,42.5C 175.031,41.0755 174.698,40.4088 172.5,40.5C 173.833,39.8333 175.167,39.1667 176.5,38.5 Z"/></g>
<g><path style="opacity:1" fill="#63c8cf" d="M 100.5,48.5 C 98.7356,47.674 97.4023,46.3407 96.5,44.5C 96.3505,43.448 96.5172,42.448 97,41.5C 101.547,34.6194 102.38,34.9527 99.5,42.5C 99.8396,44.5122 100.173,46.5122 100.5,48.5 Z"/></g>
<g><path style="opacity:1" fill="#8f884f" d="M 151.5,17.5 C 151.5,19.8333 151.5,22.1667 151.5,24.5C 149.088,29.2045 146.754,34.0378 144.5,39C 142.833,39.3333 141.167,39.6667 139.5,40C 135.686,45.7357 130.353,47.9024 123.5,46.5C 121.833,46.5 120.167,46.5 118.5,46.5C 115.821,44.3991 112.988,42.3991 110,40.5C 109.506,38.8659 109.34,37.1992 109.5,35.5C 117.412,43.6671 126.079,45.0004 135.5,39.5C 138.189,38.8106 139.856,37.144 140.5,34.5C 142.25,33.3406 143.25,31.674 143.5,29.5C 146.212,23.6987 145.879,18.032 142.5,12.5C 141.585,10.2459 140.252,8.24595 138.5,6.5C 138.56,5.95691 138.893,5.62358 139.5,5.5C 143.561,8.61845 146.394,12.6184 148,17.5C 148.305,15.4432 148.305,13.4432 148,11.5C 149.459,13.4319 150.625,15.4319 151.5,17.5 Z"/></g>
<g><path style="opacity:1" fill="#432123" d="M 168.5,37.5 C 171.237,37.4013 173.904,37.7347 176.5,38.5C 175.167,39.1667 173.833,39.8333 172.5,40.5C 169.896,40.5985 167.896,41.7651 166.5,44C 166.833,44.5 167.167,45 167.5,45.5C 169.32,44.1171 171.32,43.1171 173.5,42.5C 176.187,42.6641 178.854,42.4974 181.5,42C 182.942,41.6232 183.942,40.7899 184.5,39.5C 185.492,39.3284 186.158,39.6618 186.5,40.5C 187.589,44.0779 187.755,47.7446 187,51.5C 185.36,53.579 184.194,55.9124 183.5,58.5C 182.675,59.3857 181.675,59.719 180.5,59.5C 178.079,61.2151 175.413,62.0484 172.5,62C 177.306,59.6938 180.973,56.1938 183.5,51.5C 184.209,49.0421 184.209,46.8754 183.5,45C 182.423,44.5304 181.423,44.6971 180.5,45.5C 178.327,47.9477 176.327,50.6144 174.5,53.5C 175.39,51.2181 175.556,48.8848 175,46.5C 173.855,45.3157 172.688,45.3157 171.5,46.5C 169.901,46.2322 168.568,46.5655 167.5,47.5C 166.417,47.5394 165.417,47.8728 164.5,48.5C 163.078,47.6018 161.745,46.6018 160.5,45.5C 162.86,42.4728 165.527,39.8062 168.5,37.5 Z"/></g>
<g><path style="opacity:1" fill="#d7a9bf" d="M 172.5,40.5 C 174.698,40.4088 175.031,41.0755 173.5,42.5C 171.32,43.1171 169.32,44.1171 167.5,45.5C 167.167,45 166.833,44.5 166.5,44C 167.896,41.7651 169.896,40.5985 172.5,40.5 Z"/></g>
<g><path style="opacity:1" fill="#86704b" d="M 207.5,21.5 C 211.259,21.8621 214.593,23.1954 217.5,25.5C 223.181,28.6728 228.514,32.3395 233.5,36.5C 234.675,40.698 236.008,44.8646 237.5,49C 237.333,49.5 237.167,50 237,50.5C 236.385,48.8839 235.385,47.5505 234,46.5C 233.49,48.5453 232.657,50.3787 231.5,52C 232,52.5 232.5,53 233,53.5C 233.481,57.5314 234.147,61.5314 235,65.5C 237.059,66.5968 237.559,67.9301 236.5,69.5C 234.141,66.1486 231.808,62.8153 229.5,59.5C 226.94,55.4302 223.773,51.7635 220,48.5C 219.66,42.5955 220.326,36.9289 222,31.5C 221.044,30.4214 220.211,29.2547 219.5,28C 215.278,26.0591 211.278,23.8924 207.5,21.5 Z"/></g>
<g><path style="opacity:1" fill="#399dac" d="M 222.5,37.5 C 227.65,39.6023 227.65,41.9356 222.5,44.5C 221.5,44.1667 220.833,43.5 220.5,42.5C 221.95,41.1502 222.617,39.4835 222.5,37.5 Z"/></g>
<g><path style="opacity:1" fill="#2d2d2a" d="M 255.5,39.5 C 255.5,47.1667 255.5,54.8333 255.5,62.5C 252.496,56.6433 248.829,51.1433 244.5,46C 246.039,40.3035 249.705,38.1369 255.5,39.5 Z"/></g>
<g><path style="opacity:1" fill="#a0c980" d="M 171.5,46.5 C 174.018,48.3566 174.018,50.1899 171.5,52C 169.402,52.6776 167.402,52.5109 165.5,51.5C 165.733,49.9382 166.4,48.6049 167.5,47.5C 168.568,46.5655 169.901,46.2322 171.5,46.5 Z"/></g>
<g><path style="opacity:1" fill="#41372b" d="M 118.5,46.5 C 120.167,46.5 121.833,46.5 123.5,46.5C 125.305,48.1969 127.639,49.0302 130.5,49C 127.5,49.3333 124.5,49.6667 121.5,50C 127.295,50.6225 132.962,50.2891 138.5,49C 133.479,51.3403 128.146,52.6736 122.5,53C 124.833,53.3333 127.167,53.6667 129.5,54C 129.043,54.414 128.709,54.914 128.5,55.5C 129.912,56.8064 131.579,57.6397 133.5,58C 131.835,61.9884 133.168,64.4884 137.5,65.5C 138.666,68.5032 140.333,71.1698 142.5,73.5C 141.998,74.7164 141.665,75.8831 141.5,77C 144.555,77.6342 147.555,77.4675 150.5,76.5C 148.925,78.9406 146.592,80.1072 143.5,80C 144.416,80.2784 145.082,80.7784 145.5,81.5C 144.448,81.6495 143.448,81.4828 142.5,81C 140.667,78.5 138.833,76 137,73.5C 134.259,70.253 131.092,67.5863 127.5,65.5C 122.425,59.6229 116.091,57.1229 108.5,58C 109.687,56.9805 110.687,55.8139 111.5,54.5C 111.376,53.8933 111.043,53.56 110.5,53.5C 110.082,52.7784 109.416,52.2784 108.5,52C 111.022,50.1567 113.855,48.9901 117,48.5C 118.03,48.1639 118.53,47.4972 118.5,46.5 Z"/></g>
<g><path style="opacity:1" fill="#786d4a" d="M 163.5,37.5 C 155.996,44.8485 151.996,53.8485 151.5,64.5C 150.624,64.6309 149.957,64.2975 149.5,63.5C 148.087,60.3388 146.42,57.3388 144.5,54.5C 140.277,54.4398 135.944,54.2731 131.5,54C 136.45,54.022 140.45,52.1887 143.5,48.5C 147.617,45.9316 151.617,43.0983 155.5,40C 157.833,38.8333 160.167,37.6667 162.5,36.5C 163.107,36.6236 163.44,36.9569 163.5,37.5 Z"/></g>
<g><path style="opacity:1" fill="#736e45" d="M 174.5,53.5 C 172.412,54.9395 170.079,55.6061 167.5,55.5C 165.278,54.4639 164.112,52.7972 164,50.5C 164.383,51.056 164.883,51.3893 165.5,51.5C 167.402,52.5109 169.402,52.6776 171.5,52C 174.018,50.1899 174.018,48.3566 171.5,46.5C 172.688,45.3157 173.855,45.3157 175,46.5C 175.556,48.8848 175.39,51.2181 174.5,53.5 Z"/></g>
<g><path style="opacity:1" fill="#4e3e2e" d="M 73.5,34.5 C 74.6655,44.4914 75.8322,54.4914 77,64.5C 77.3826,65.056 77.8826,65.3893 78.5,65.5C 78.5,66.1667 78.5,66.8333 78.5,67.5C 77.1779,67.33 76.0113,67.6634 75,68.5C 72.8834,73.0648 71.0501,77.7315 69.5,82.5C 70.5353,84.1284 70.5353,85.795 69.5,87.5C 66.8709,82.128 64.7043,76.4613 63,70.5C 61.8347,59.5229 61.0014,48.5229 60.5,37.5C 61.0382,39.8056 61.7048,41.4723 62.5,42.5C 63.6497,48.3109 64.483,54.3109 65,60.5C 65.4186,61.6721 66.0853,62.6721 67,63.5C 68.5,61.3333 70.3333,59.5 72.5,58C 72.1667,57.6667 71.8333,57.3333 71.5,57C 73.0591,55.0042 73.7258,52.6709 73.5,50C 72.4996,44.6644 72.4996,39.4977 73.5,34.5 Z"/></g>
<g><path style="opacity:1" fill="#452231" d="M 163.5,37.5 C 163.833,37.5 164.167,37.5 164.5,37.5C 162.597,39.6279 160.931,41.9613 159.5,44.5C 159.624,45.1067 159.957,45.44 160.5,45.5C 161.745,46.6018 163.078,47.6018 164.5,48.5C 165.417,47.8728 166.417,47.5394 167.5,47.5C 166.4,48.6049 165.733,49.9382 165.5,51.5C 164.883,51.3893 164.383,51.056 164,50.5C 164.112,52.7972 165.278,54.4639 167.5,55.5C 166.5,55.5 165.5,55.5 164.5,55.5C 164.167,55.5 163.833,55.5 163.5,55.5C 161.335,54.0645 159.835,54.7312 159,57.5C 158.501,62.1548 158.334,66.8215 158.5,71.5C 158.665,74.5184 158.498,77.5184 158,80.5C 156.093,76.9638 154.26,77.2971 152.5,81.5C 151.842,82.3984 151.176,83.3984 150.5,84.5C 149.478,84.1445 148.811,83.4778 148.5,82.5C 151.051,80.4223 152.884,77.7556 154,74.5C 154.687,54.9239 153.853,54.9239 151.5,74.5C 151.5,71.1667 151.5,67.8333 151.5,64.5C 151.996,53.8485 155.996,44.8485 163.5,37.5 Z"/></g>
<g><path style="opacity:1" fill="#213a57" d="M 218.5,60.5 C 215.482,60.6646 212.482,60.498 209.5,60C 206.354,58.3428 203.354,56.5094 200.5,54.5C 200.338,52.4727 200.505,50.4727 201,48.5C 201.414,48.0426 201.914,47.7093 202.5,47.5C 209.087,50.4331 214.421,54.7664 218.5,60.5 Z"/></g>
<g><path style="opacity:1" fill="#967e9a" d="M 180.5,45.5 C 178.733,55.3521 173.399,58.6854 164.5,55.5C 165.5,55.5 166.5,55.5 167.5,55.5C 170.079,55.6061 172.412,54.9395 174.5,53.5C 176.327,50.6144 178.327,47.9477 180.5,45.5 Z"/></g>
<g><path style="opacity:1" fill="#2d7ba0" d="M 239.5,53.5 C 242.173,53.6845 242.84,54.8511 241.5,57C 239.414,58.8272 237.414,58.8272 235.5,57C 236.793,56.51 238.127,56.3433 239.5,56.5C 239.5,55.5 239.5,54.5 239.5,53.5 Z"/></g>
<g><path style="opacity:1" fill="#887753" d="M 200.5,54.5 C 203.354,56.5094 206.354,58.3428 209.5,60C 212.482,60.498 215.482,60.6646 218.5,60.5C 219.167,60.5 219.5,60.8333 219.5,61.5C 213.536,62.3068 207.536,62.6401 201.5,62.5C 200.735,59.9039 200.401,57.2372 200.5,54.5 Z"/></g>
<g><path style="opacity:1" fill="#6d3141" d="M 180.5,59.5 C 179.287,62.2254 177.454,64.5588 175,66.5C 174.802,68.3817 174.302,70.0484 173.5,71.5C 173.703,69.6096 173.037,68.1096 171.5,67C 168.947,66.2389 166.447,65.4056 164,64.5C 162.912,62.6152 162.079,60.6152 161.5,58.5C 161.64,56.9704 162.307,55.9704 163.5,55.5C 163.833,55.5 164.167,55.5 164.5,55.5C 173.399,58.6854 178.733,55.3521 180.5,45.5C 181.423,44.6971 182.423,44.5304 183.5,45C 184.209,46.8754 184.209,49.0421 183.5,51.5C 180.973,56.1938 177.306,59.6938 172.5,62C 175.413,62.0484 178.079,61.2151 180.5,59.5 Z"/></g>
<g><path style="opacity:1" fill="#5f5337" d="M 151.5,24.5 C 151.5,25.8333 151.5,27.1667 151.5,28.5C 149.828,31.198 148.661,34.198 148,37.5C 145.167,40.3333 142.333,43.1667 139.5,46C 142.648,44.7436 145.648,42.9102 148.5,40.5C 148.787,41.2003 149.12,41.8669 149.5,42.5C 147.194,44.1394 145.194,46.1394 143.5,48.5C 140.45,52.1887 136.45,54.022 131.5,54C 135.944,54.2731 140.277,54.4398 144.5,54.5C 146.42,57.3388 148.087,60.3388 149.5,63.5C 149.957,64.2975 150.624,64.6309 151.5,64.5C 151.5,67.8333 151.5,71.1667 151.5,74.5C 151.672,75.4916 151.338,76.1583 150.5,76.5C 147.555,77.4675 144.555,77.6342 141.5,77C 141.665,75.8831 141.998,74.7164 142.5,73.5C 140.333,71.1698 138.666,68.5032 137.5,65.5C 133.168,64.4884 131.835,61.9884 133.5,58C 131.579,57.6397 129.912,56.8064 128.5,55.5C 128.709,54.914 129.043,54.414 129.5,54C 127.167,53.6667 124.833,53.3333 122.5,53C 128.146,52.6736 133.479,51.3403 138.5,49C 132.962,50.2891 127.295,50.6225 121.5,50C 124.5,49.6667 127.5,49.3333 130.5,49C 127.639,49.0302 125.305,48.1969 123.5,46.5C 130.353,47.9024 135.686,45.7357 139.5,40C 141.167,39.6667 142.833,39.3333 144.5,39C 146.754,34.0378 149.088,29.2045 151.5,24.5 Z"/></g>
<g><path style="opacity:1" fill="#766e8f" d="M 163.5,55.5 C 162.307,55.9704 161.64,56.9704 161.5,58.5C 162.079,60.6152 162.912,62.6152 164,64.5C 166.447,65.4056 168.947,66.2389 171.5,67C 173.037,68.1096 173.703,69.6096 173.5,71.5C 173.5,72.5 173.5,73.5 173.5,74.5C 172.89,75.391 172.557,76.391 172.5,77.5C 170.473,77.6621 168.473,77.4955 166.5,77C 164.323,74.415 161.657,72.5816 158.5,71.5C 158.334,66.8215 158.501,62.1548 159,57.5C 159.835,54.7312 161.335,54.0645 163.5,55.5 Z"/></g>
<g><path style="opacity:1" fill="#2c384d" d="M 186.5,40.5 C 187.583,40.5394 188.583,40.8728 189.5,41.5C 192.017,48.2704 193.351,55.2704 193.5,62.5C 193.352,67.201 193.685,71.8677 194.5,76.5C 193.721,79.0443 192.721,81.3776 191.5,83.5C 190.37,81.6854 189.704,79.6854 189.5,77.5C 187.8,77.3739 186.3,76.7073 185,75.5C 183.739,75.7591 182.739,76.4258 182,77.5C 182.363,81.8006 182.363,86.134 182,90.5C 181.768,89.2625 181.268,88.2625 180.5,87.5C 180.741,85.1016 180.074,83.1016 178.5,81.5C 176.285,78.9953 175.119,75.9953 175,72.5C 174.722,73.4158 174.222,74.0825 173.5,74.5C 173.5,73.5 173.5,72.5 173.5,71.5C 174.302,70.0484 174.802,68.3817 175,66.5C 177.454,64.5588 179.287,62.2254 180.5,59.5C 181.675,59.719 182.675,59.3857 183.5,58.5C 184.194,55.9124 185.36,53.579 187,51.5C 187.755,47.7446 187.589,44.0779 186.5,40.5 Z"/></g>
<g><path style="opacity:1" fill="#8e7446" d="M 96.5,44.5 C 97.4023,46.3407 98.7356,47.674 100.5,48.5C 102.088,49.6413 103.421,51.1413 104.5,53C 98.0719,56.8511 94.0719,62.0178 92.5,68.5C 90.1667,73.1667 87.8333,77.8333 85.5,82.5C 84.2379,85.0708 82.9045,85.0708 81.5,82.5C 80.3652,80.2933 79.6985,77.9599 79.5,75.5C 80.4959,75.4142 81.3292,75.7476 82,76.5C 82.4955,74.5273 82.6621,72.5273 82.5,70.5C 81.1169,69.5573 79.7836,68.5573 78.5,67.5C 78.5,66.8333 78.5,66.1667 78.5,65.5C 80.724,57.8229 83.724,50.4896 87.5,43.5C 88.1667,42.8333 88.8333,42.1667 89.5,41.5C 90.4584,41.0472 91.2917,40.3805 92,39.5C 91.9536,41.3126 92.1203,42.9793 92.5,44.5C 93.8084,45.6256 95.1417,45.6256 96.5,44.5 Z"/></g>
<g><path style="opacity:1" fill="#56a296" d="M 89.5,59.5 C 90.5735,60.2506 90.7401,61.2506 90,62.5C 89.2223,65.1838 87.8889,67.5172 86,69.5C 84.1859,68.1486 84.5192,67.1486 87,66.5C 87.8471,64.1457 88.6805,61.8123 89.5,59.5 Z"/></g>
<g><path style="opacity:1" fill="#73ccc2" d="M 89.5,51.5 C 91.1042,52.287 91.7709,53.6203 91.5,55.5C 89.6096,55.2965 88.1096,55.9632 87,57.5C 87.4509,55.4802 88.2843,53.4802 89.5,51.5 Z"/></g>
<g><path style="opacity:1" fill="#311a25" d="M 110.5,53.5 C 111.043,53.56 111.376,53.8933 111.5,54.5C 110.687,55.8139 109.687,56.9805 108.5,58C 116.091,57.1229 122.425,59.6229 127.5,65.5C 126.876,67.754 125.543,69.4206 123.5,70.5C 123.657,69.1266 123.49,67.7932 123,66.5C 122.23,65.4019 121.397,65.4019 120.5,66.5C 118.389,65.2584 116.389,65.2584 114.5,66.5C 111.867,68.4554 111.867,70.4554 114.5,72.5C 113.262,72.81 113.262,73.31 114.5,74C 117.167,74.6667 119.833,74.6667 122.5,74C 124.306,72.1937 126.14,70.3604 128,68.5C 131.083,73.4931 131.916,78.8264 130.5,84.5C 131.167,85.5 131.833,86.5 132.5,87.5C 130.709,88.4899 128.543,88.4899 126,87.5C 124.97,87.8361 124.47,88.5028 124.5,89.5C 124.167,89.5 123.833,89.5 123.5,89.5C 122.055,87.9373 120.389,86.604 118.5,85.5C 112.367,79.2416 107.2,72.2416 103,64.5C 102.283,65.0442 101.783,65.7109 101.5,66.5C 100.833,66.8333 100.167,67.1667 99.5,67.5C 99.4828,65.4352 99.1495,63.4352 98.5,61.5C 101.467,57.3453 105.467,54.6786 110.5,53.5 Z"/></g>
<g><path style="opacity:1" fill="#70a66a" d="M 120.5,66.5 C 120.783,71.6075 118.95,72.6075 115,69.5C 114.517,68.552 114.351,67.552 114.5,66.5C 116.389,65.2584 118.389,65.2584 120.5,66.5 Z"/></g>
<g><path style="opacity:1" fill="#292521" d="M 201.5,62.5 C 207.536,62.6401 213.536,62.3068 219.5,61.5C 225.663,65.635 226.996,69.9683 223.5,74.5C 225.51,76.1713 227.843,76.838 230.5,76.5C 223.461,81.9506 215.461,85.6173 206.5,87.5C 205.702,87.9569 205.369,88.6236 205.5,89.5C 203.471,96.9682 201.804,104.635 200.5,112.5C 199.4,108.314 197.233,104.647 194,101.5C 192.029,99.447 189.862,98.7804 187.5,99.5C 189.422,94.3196 190.756,88.9863 191.5,83.5C 192.721,81.3776 193.721,79.0443 194.5,76.5C 193.685,71.8677 193.352,67.201 193.5,62.5C 195.112,61.5477 196.612,61.2144 198,61.5C 199,62.8333 200,64.1667 201,65.5C 201.483,64.552 201.649,63.552 201.5,62.5 Z"/></g>
<g><path style="opacity:1" fill="#415338" d="M 123.5,70.5 C 121.095,73.5167 118.095,74.1833 114.5,72.5C 111.867,70.4554 111.867,68.4554 114.5,66.5C 114.351,67.552 114.517,68.552 115,69.5C 118.95,72.6075 120.783,71.6075 120.5,66.5C 121.397,65.4019 122.23,65.4019 123,66.5C 123.49,67.7932 123.657,69.1266 123.5,70.5 Z"/></g>
<g><path style="opacity:1" fill="#a63254" d="M 148.5,82.5 C 147.791,81.596 146.791,81.2627 145.5,81.5C 145.082,80.7784 144.416,80.2784 143.5,80C 146.592,80.1072 148.925,78.9406 150.5,76.5C 151.338,76.1583 151.672,75.4916 151.5,74.5C 153.853,54.9239 154.687,54.9239 154,74.5C 152.884,77.7556 151.051,80.4223 148.5,82.5 Z"/></g>
<g><path style="opacity:1" fill="#1d4d4f" d="M 254.5,65.5 C 254.833,65.5 255.167,65.5 255.5,65.5C 255.5,70.8333 255.5,76.1667 255.5,81.5C 248.728,86.4276 242.061,91.5943 235.5,97C 228.923,100.124 222.256,102.957 215.5,105.5C 212.944,104.457 210.777,102.79 209,100.5C 207.818,96.8118 206.652,93.1452 205.5,89.5C 205.369,88.6236 205.702,87.9569 206.5,87.5C 215.461,85.6173 223.461,81.9506 230.5,76.5C 238.543,72.8239 246.543,69.1572 254.5,65.5 Z"/></g>
<g><path style="opacity:1" fill="#87e1db" d="M 82.5,70.5 C 82.6621,72.5273 82.4955,74.5273 82,76.5C 81.3292,75.7476 80.4959,75.4142 79.5,75.5C 79.5923,73.1523 80.5923,71.4856 82.5,70.5 Z"/></g>
<g><path style="opacity:1" fill="#3b372f" d="M 57.5,73.5 C 60.5261,79.5635 63.0261,85.8968 65,92.5C 65.7589,94.0629 66.9256,95.0629 68.5,95.5C 65.9759,96.8003 63.3092,96.8003 60.5,95.5C 58.8892,92.6128 57.5559,89.6128 56.5,86.5C 55.3554,87.7757 55.3554,89.109 56.5,90.5C 55.675,91.3857 54.675,91.719 53.5,91.5C 52.7796,84.7789 50.7796,84.1123 47.5,89.5C 46.4777,89.1445 45.811,88.4778 45.5,87.5C 45.8807,86.0689 46.8807,85.2355 48.5,85C 45.9828,82.7492 42.9828,81.9159 39.5,82.5C 40.9649,81.2632 42.6316,80.2632 44.5,79.5C 47.1667,78.1667 49.8333,76.8333 52.5,75.5C 54.1667,74.8333 55.8333,74.1667 57.5,73.5 Z"/></g>
<g><path style="opacity:1" fill="#345f53" d="M 214.5,77.5 C 212.497,79.9819 209.831,80.9819 206.5,80.5C 205.455,77.8862 204.955,75.2196 205,72.5C 208.149,74.3232 211.316,75.9899 214.5,77.5 Z"/></g>
<g><path style="opacity:1" fill="#c0a569" d="M 214.5,77.5 C 222.141,77.4172 222.141,78.5839 214.5,81C 212,81.3747 209.667,82.2081 207.5,83.5C 206.614,82.675 206.281,81.675 206.5,80.5C 209.831,80.9819 212.497,79.9819 214.5,77.5 Z"/></g>
<g><path style="opacity:1" fill="#7cb3c8" d="M 158.5,71.5 C 161.657,72.5816 164.323,74.415 166.5,77C 168.473,77.4955 170.473,77.6621 172.5,77.5C 172.766,81.5705 172.433,85.5705 171.5,89.5C 169.878,91.4386 168.044,91.772 166,90.5C 164.599,92.1922 162.766,92.8588 160.5,92.5C 160.762,91.0222 160.429,89.6888 159.5,88.5C 158.167,89.8333 156.833,89.8333 155.5,88.5C 154.217,86.2699 153.217,83.9366 152.5,81.5C 154.26,77.2971 156.093,76.9638 158,80.5C 158.498,77.5184 158.665,74.5184 158.5,71.5 Z"/></g>
<g><path style="opacity:1" fill="#9f8e4e" d="M 68.5,95.5 C 66.9256,95.0629 65.7589,94.0629 65,92.5C 63.0261,85.8968 60.5261,79.5635 57.5,73.5C 59.0098,72.2721 60.5098,72.2721 62,73.5C 64.173,80.8639 66.3396,88.1972 68.5,95.5 Z"/></g>
<g><path style="opacity:1" fill="#4d7a96" d="M 178.5,81.5 C 177.683,83.9686 177.183,86.6353 177,89.5C 176.82,86.0445 176.153,82.7111 175,79.5C 174.5,80 174,80.5 173.5,81C 173.642,84.6214 173.642,88.4547 173.5,92.5C 165.916,92.7007 158.583,94.034 151.5,96.5C 149.856,96.2865 148.356,96.6198 147,97.5C 146.015,95.8251 145.181,94.1585 144.5,92.5C 142.903,89.6812 142.403,86.6812 143,83.5C 143.333,83.8333 143.667,84.1667 144,84.5C 145.049,82.8934 146.549,82.2267 148.5,82.5C 148.811,83.4778 149.478,84.1445 150.5,84.5C 151.176,83.3984 151.842,82.3984 152.5,81.5C 153.217,83.9366 154.217,86.2699 155.5,88.5C 156.833,89.8333 158.167,89.8333 159.5,88.5C 160.429,89.6888 160.762,91.0222 160.5,92.5C 162.766,92.8588 164.599,92.1922 166,90.5C 168.044,91.772 169.878,91.4386 171.5,89.5C 172.433,85.5705 172.766,81.5705 172.5,77.5C 172.557,76.391 172.89,75.391 173.5,74.5C 174.222,74.0825 174.722,73.4158 175,72.5C 175.119,75.9953 176.285,78.9953 178.5,81.5 Z"/></g>
<g><path style="opacity:1" fill="#3c374f" d="M 127.5,65.5 C 131.092,67.5863 134.259,70.253 137,73.5C 138.833,76 140.667,78.5 142.5,81C 143.448,81.4828 144.448,81.6495 145.5,81.5C 146.791,81.2627 147.791,81.596 148.5,82.5C 146.549,82.2267 145.049,82.8934 144,84.5C 143.667,84.1667 143.333,83.8333 143,83.5C 142.403,86.6812 142.903,89.6812 144.5,92.5C 140.187,90.7402 137.354,92.0735 136,96.5C 133.309,95.2858 131.142,93.4524 129.5,91C 127.975,89.9914 126.308,89.4914 124.5,89.5C 124.47,88.5028 124.97,87.8361 126,87.5C 128.543,88.4899 130.709,88.4899 132.5,87.5C 131.833,86.5 131.167,85.5 130.5,84.5C 131.916,78.8264 131.083,73.4931 128,68.5C 126.14,70.3604 124.306,72.1937 122.5,74C 119.833,74.6667 117.167,74.6667 114.5,74C 113.262,73.31 113.262,72.81 114.5,72.5C 118.095,74.1833 121.095,73.5167 123.5,70.5C 125.543,69.4206 126.876,67.754 127.5,65.5 Z"/></g>
<g><path style="opacity:1" fill="#8a754e" d="M 118.5,85.5 C 117.351,85.7911 116.684,86.6244 116.5,88C 117.59,91.0107 119.09,93.844 121,96.5C 124.36,99.8604 127.694,103.194 131,106.5C 131.791,105.255 132.291,103.922 132.5,102.5C 133.167,102.5 133.5,102.833 133.5,103.5C 133.833,105.5 134.167,107.5 134.5,109.5C 134.565,109.938 134.399,110.272 134,110.5C 118.811,99.1316 107.978,84.4649 101.5,66.5C 101.783,65.7109 102.283,65.0442 103,64.5C 107.2,72.2416 112.367,79.2416 118.5,85.5 Z"/></g>
<g><path style="opacity:1" fill="#15283a" d="M -0.5,80.5 C 1.36002,81.0715 3.02669,81.0715 4.5,80.5C 4.06389,82.7463 3.39722,84.9129 2.5,87C 3.33333,87.8333 4.16667,88.6667 5,89.5C 13.2163,83.9242 22.0496,82.0909 31.5,84C 30.5838,84.3742 29.7504,84.8742 29,85.5C 27.5977,89.2069 26.0977,92.8736 24.5,96.5C 22.9968,97.557 21.3302,98.2237 19.5,98.5C 16.5358,97.5282 13.5358,97.3615 10.5,98C 9.28151,99.4382 8.61485,101.105 8.5,103C 9.15359,106.799 10.4869,110.299 12.5,113.5C 13.7678,112.572 15.1011,112.405 16.5,113C 17.8333,115 19.1667,117 20.5,119C 25.1218,119.558 29.4551,120.891 33.5,123C 35.1229,126.054 35.7895,125.554 35.5,121.5C 30.19,121.567 29.5233,120.234 33.5,117.5C 35.7128,117.848 37.7128,118.681 39.5,120C 38.5504,122.432 38.5504,124.932 39.5,127.5C 35.3713,131.966 33.038,137.299 32.5,143.5C 21.5,143.5 10.5,143.5 -0.5,143.5C -0.5,122.5 -0.5,101.5 -0.5,80.5 Z"/></g>
<g><path style="opacity:1" fill="#a4925d" d="M 118.5,85.5 C 120.389,86.604 122.055,87.9373 123.5,89.5C 127.696,93.025 130.696,97.3583 132.5,102.5C 132.291,103.922 131.791,105.255 131,106.5C 127.694,103.194 124.36,99.8604 121,96.5C 119.09,93.844 117.59,91.0107 116.5,88C 116.684,86.6244 117.351,85.7911 118.5,85.5 Z"/></g>
<g><path style="opacity:1" fill="#625938" d="M 255.5,81.5 C 255.5,88.1667 255.5,94.8333 255.5,101.5C 249.747,106.223 243.747,110.723 237.5,115C 233.137,117.684 228.47,119.518 223.5,120.5C 223.167,120.5 222.833,120.5 222.5,120.5C 218.281,116.394 215.948,111.394 215.5,105.5C 222.256,102.957 228.923,100.124 235.5,97C 242.061,91.5943 248.728,86.4276 255.5,81.5 Z"/></g>
<g><path style="opacity:1" fill="#282625" d="M 60.5,-0.5 C 61.1667,-0.5 61.8333,-0.5 62.5,-0.5C 61.5886,12.1496 60.922,24.8163 60.5,37.5C 61.0014,48.5229 61.8347,59.5229 63,70.5C 64.7043,76.4613 66.8709,82.128 69.5,87.5C 70.629,91.1517 71.629,94.8184 72.5,98.5C 72.5,102.5 72.5,106.5 72.5,110.5C 71.6236,110.631 70.9569,110.298 70.5,109.5C 69.4853,105.97 67.8186,102.803 65.5,100C 59.1883,100.356 52.855,100.356 46.5,100C 45.6517,96.7444 44.985,93.411 44.5,90C 44.528,88.9302 44.8614,88.0968 45.5,87.5C 45.811,88.4778 46.4777,89.1445 47.5,89.5C 50.7796,84.1123 52.7796,84.7789 53.5,91.5C 54.675,91.719 55.675,91.3857 56.5,90.5C 55.3554,89.109 55.3554,87.7757 56.5,86.5C 57.5559,89.6128 58.8892,92.6128 60.5,95.5C 63.3092,96.8003 65.9759,96.8003 68.5,95.5C 66.3396,88.1972 64.173,80.8639 62,73.5C 60.5098,72.2721 59.0098,72.2721 57.5,73.5C 55.5137,56.2339 55.0137,38.9005 56,21.5C 58.0226,14.2676 59.5226,6.93428 60.5,-0.5 Z"/></g>
<g><path style="opacity:1" fill="#5f4f35" d="M 78.5,67.5 C 79.7836,68.5573 81.1169,69.5573 82.5,70.5C 80.5923,71.4856 79.5923,73.1523 79.5,75.5C 79.6985,77.9599 80.3652,80.2933 81.5,82.5C 82.9045,85.0708 84.2379,85.0708 85.5,82.5C 82.621,92.2282 80.621,102.228 79.5,112.5C 79.4959,106.469 77.1625,101.803 72.5,98.5C 71.629,94.8184 70.629,91.1517 69.5,87.5C 70.5353,85.795 70.5353,84.1284 69.5,82.5C 71.0501,77.7315 72.8834,73.0648 75,68.5C 76.0113,67.6634 77.1779,67.33 78.5,67.5 Z"/></g>
<g><path style="opacity:1" fill="#1e3954" d="M 96.5,77.5 C 97.9438,81.0012 99.1105,84.6679 100,88.5C 107.528,100.53 116.361,111.53 126.5,121.5C 122.217,119.905 117.883,118.405 113.5,117C 112.663,115.989 112.33,114.822 112.5,113.5C 109.613,114.62 106.613,115.62 103.5,116.5C 104.309,118.071 104.643,119.738 104.5,121.5C 99.8333,114.833 95.1667,108.167 90.5,101.5C 90.1041,92.7865 92.1041,84.7865 96.5,77.5 Z"/></g>
<g><path style="opacity:1" fill="#24272c" d="M 101.5,66.5 C 107.978,84.4649 118.811,99.1316 134,110.5C 134.399,110.272 134.565,109.938 134.5,109.5C 138.088,117.684 141.421,126.017 144.5,134.5C 138.189,130.67 132.189,126.337 126.5,121.5C 116.361,111.53 107.528,100.53 100,88.5C 99.1105,84.6679 97.9438,81.0012 96.5,77.5C 97.8846,74.3409 98.8846,71.0075 99.5,67.5C 100.167,67.1667 100.833,66.8333 101.5,66.5 Z"/></g>
<g><path style="opacity:1" fill="#d3c9d4" d="M 174.5,93.5 C 175.091,94.1515 175.757,94.8182 176.5,95.5C 172.222,97.1529 168.222,99.1529 164.5,101.5C 160.908,101.698 157.574,102.698 154.5,104.5C 152.102,104.741 150.102,104.074 148.5,102.5C 156.959,98.8857 165.626,95.8857 174.5,93.5 Z"/></g>
<g><path style="opacity:1" fill="#28415a" d="M 123.5,89.5 C 123.833,89.5 124.167,89.5 124.5,89.5C 126.308,89.4914 127.975,89.9914 129.5,91C 131.142,93.4524 133.309,95.2858 136,96.5C 137.354,92.0735 140.187,90.7402 144.5,92.5C 145.181,94.1585 146.015,95.8251 147,97.5C 148.356,96.6198 149.856,96.2865 151.5,96.5C 148.833,98.8333 146.167,101.167 143.5,103.5C 142.602,104.158 141.602,104.824 140.5,105.5C 143.823,108.828 145.823,112.828 146.5,117.5C 141.382,113.388 137.048,108.722 133.5,103.5C 133.5,102.833 133.167,102.5 132.5,102.5C 130.696,97.3583 127.696,93.025 123.5,89.5 Z"/></g>
<g><path style="opacity:1" fill="#162f3f" d="M 44.5,75.5 C 44.5,76.8333 44.5,78.1667 44.5,79.5C 42.6316,80.2632 40.9649,81.2632 39.5,82.5C 36.2043,82.4501 34.871,83.7834 35.5,86.5C 33.5522,87.1312 31.7189,88.1312 30,89.5C 28.8779,93.9508 26.8779,97.9508 24,101.5C 22.5093,103.004 20.676,103.837 18.5,104C 17.4103,106.279 17.7437,108.446 19.5,110.5C 22.3451,113.848 26.0117,115.348 30.5,115C 31.9423,115.377 32.9423,116.21 33.5,117.5C 29.5233,120.234 30.19,121.567 35.5,121.5C 35.7895,125.554 35.1229,126.054 33.5,123C 29.4551,120.891 25.1218,119.558 20.5,119C 19.1667,117 17.8333,115 16.5,113C 15.1011,112.405 13.7678,112.572 12.5,113.5C 10.4869,110.299 9.15359,106.799 8.5,103C 8.61485,101.105 9.28151,99.4382 10.5,98C 13.5358,97.3615 16.5358,97.5282 19.5,98.5C 21.3302,98.2237 22.9968,97.557 24.5,96.5C 26.0977,92.8736 27.5977,89.2069 29,85.5C 29.7504,84.8742 30.5838,84.3742 31.5,84C 22.0496,82.0909 13.2163,83.9242 5,89.5C 4.16667,88.6667 3.33333,87.8333 2.5,87C 3.39722,84.9129 4.06389,82.7463 4.5,80.5C 5.31491,79.5707 6.14825,78.5707 7,77.5C 7.67386,78.5784 8.67386,79.2451 10,79.5C 12.9971,78.8277 15.8304,78.8277 18.5,79.5C 23.1415,78.681 27.4748,77.0144 31.5,74.5C 35.8318,74.7035 40.1652,75.0368 44.5,75.5 Z"/></g>
<g><path style="opacity:1" fill="#1c374a" d="M 35.5,86.5 C 37.9546,92.9523 40.1213,99.619 42,106.5C 44.4177,108.68 47.0844,109.013 50,107.5C 51.9514,113.362 54.2848,119.029 57,124.5C 57.8141,126.902 57.6474,129.235 56.5,131.5C 55.8165,131.137 55.1499,130.804 54.5,130.5C 52.6912,127.674 50.1912,125.674 47,124.5C 44.5351,125.651 42.0351,126.651 39.5,127.5C 38.5504,124.932 38.5504,122.432 39.5,120C 37.7128,118.681 35.7128,117.848 33.5,117.5C 32.9423,116.21 31.9423,115.377 30.5,115C 26.0117,115.348 22.3451,113.848 19.5,110.5C 17.7437,108.446 17.4103,106.279 18.5,104C 20.676,103.837 22.5093,103.004 24,101.5C 26.8779,97.9508 28.8779,93.9508 30,89.5C 31.7189,88.1312 33.5522,87.1312 35.5,86.5 Z"/></g>
<g><path style="opacity:1" fill="#271c25" d="M 173.5,92.5 C 175.224,92.4607 175.557,92.794 174.5,93.5C 165.626,95.8857 156.959,98.8857 148.5,102.5C 146.883,103.038 145.216,103.371 143.5,103.5C 146.167,101.167 148.833,98.8333 151.5,96.5C 158.583,94.034 165.916,92.7007 173.5,92.5 Z"/></g>
<g><path style="opacity:1" fill="#2d7e9a" d="M 191.5,83.5 C 190.756,88.9863 189.422,94.3196 187.5,99.5C 185.837,102.129 184.171,104.796 182.5,107.5C 181.685,105.246 181.019,102.913 180.5,100.5C 180.818,96.2664 180.818,91.9331 180.5,87.5C 181.268,88.2625 181.768,89.2625 182,90.5C 182.363,86.134 182.363,81.8006 182,77.5C 182.739,76.4258 183.739,75.7591 185,75.5C 186.3,76.7073 187.8,77.3739 189.5,77.5C 189.704,79.6854 190.37,81.6854 191.5,83.5 Z"/></g>
<g><path style="opacity:1" fill="#202625" d="M 39.5,82.5 C 42.9828,81.9159 45.9828,82.7492 48.5,85C 46.8807,85.2355 45.8807,86.0689 45.5,87.5C 44.8614,88.0968 44.528,88.9302 44.5,90C 44.985,93.411 45.6517,96.7444 46.5,100C 52.855,100.356 59.1883,100.356 65.5,100C 67.8186,102.803 69.4853,105.97 70.5,109.5C 70.9569,110.298 71.6236,110.631 72.5,110.5C 72.8333,113.167 73.1667,115.833 73.5,118.5C 70.4634,114.776 68.4634,110.443 67.5,105.5C 65.6187,103.266 63.2853,101.933 60.5,101.5C 60.8129,109.444 63.4796,116.444 68.5,122.5C 71.0524,129.736 74.0524,136.736 77.5,143.5C 67.5,143.5 57.5,143.5 47.5,143.5C 46.9061,138.116 48.4061,133.45 52,129.5C 52.6708,130.252 53.5041,130.586 54.5,130.5C 55.1499,130.804 55.8165,131.137 56.5,131.5C 57.6474,129.235 57.8141,126.902 57,124.5C 54.2848,119.029 51.9514,113.362 50,107.5C 47.0844,109.013 44.4177,108.68 42,106.5C 40.1213,99.619 37.9546,92.9523 35.5,86.5C 34.871,83.7834 36.2043,82.4501 39.5,82.5 Z"/></g>
<g><path style="opacity:1" fill="#3e3725" d="M 98.5,61.5 C 99.1495,63.4352 99.4828,65.4352 99.5,67.5C 98.8846,71.0075 97.8846,74.3409 96.5,77.5C 92.1041,84.7865 90.1041,92.7865 90.5,101.5C 89.6717,107.987 89.1717,114.654 89,121.5C 88.3292,122.252 87.4959,122.586 86.5,122.5C 82.9466,123.817 79.2799,124.817 75.5,125.5C 74.0562,123.392 73.3896,121.059 73.5,118.5C 73.1667,115.833 72.8333,113.167 72.5,110.5C 72.5,106.5 72.5,102.5 72.5,98.5C 77.1625,101.803 79.4959,106.469 79.5,112.5C 80.621,102.228 82.621,92.2282 85.5,82.5C 87.8333,77.8333 90.1667,73.1667 92.5,68.5C 94.5,66.1667 96.5,63.8333 98.5,61.5 Z"/></g>
<g><path style="opacity:1" fill="#37a1b2" d="M 178.5,81.5 C 180.074,83.1016 180.741,85.1016 180.5,87.5C 180.818,91.9331 180.818,96.2664 180.5,100.5C 181.019,102.913 181.685,105.246 182.5,107.5C 180.963,112.247 179.13,116.913 177,121.5C 173.204,123.996 169.037,125.662 164.5,126.5C 162.824,125.817 162.157,124.483 162.5,122.5C 160.302,122.88 158.635,122.213 157.5,120.5C 161.182,120.665 164.848,120.499 168.5,120C 170.815,118.891 172.315,117.057 173,114.5C 173.499,110.179 173.666,105.846 173.5,101.5C 171.173,101.247 169.173,101.914 167.5,103.5C 166.935,105.544 165.935,107.21 164.5,108.5C 164.865,105.921 164.865,103.588 164.5,101.5C 168.222,99.1529 172.222,97.1529 176.5,95.5C 175.757,94.8182 175.091,94.1515 174.5,93.5C 175.557,92.794 175.224,92.4607 173.5,92.5C 173.642,88.4547 173.642,84.6214 173.5,81C 174,80.5 174.5,80 175,79.5C 176.153,82.7111 176.82,86.0445 177,89.5C 177.183,86.6353 177.683,83.9686 178.5,81.5 Z"/></g>
<g><path style="opacity:1" fill="#1f1d19" d="M 187.5,99.5 C 187.5,100.5 187.5,101.5 187.5,102.5C 185.188,107.795 182.855,113.129 180.5,118.5C 179.207,119.842 178.374,121.509 178,123.5C 177.419,130.401 175.919,137.067 173.5,143.5C 163.833,143.5 154.167,143.5 144.5,143.5C 144.5,140.5 144.5,137.5 144.5,134.5C 141.421,126.017 138.088,117.684 134.5,109.5C 134.167,107.5 133.833,105.5 133.5,103.5C 137.048,108.722 141.382,113.388 146.5,117.5C 149.936,122.272 154.269,125.939 159.5,128.5C 161.422,128.199 163.088,127.533 164.5,126.5C 169.037,125.662 173.204,123.996 177,121.5C 179.13,116.913 180.963,112.247 182.5,107.5C 184.171,104.796 185.837,102.129 187.5,99.5 Z"/></g>
<g><path style="opacity:1" fill="#43557d" d="M 164.5,101.5 C 164.865,103.588 164.865,105.921 164.5,108.5C 162.989,109.502 161.322,110.169 159.5,110.5C 158.022,110.762 156.689,110.429 155.5,109.5C 154.737,108.281 153.737,107.281 152.5,106.5C 153.243,105.818 153.909,105.151 154.5,104.5C 157.574,102.698 160.908,101.698 164.5,101.5 Z"/></g>
<g><path style="opacity:1" fill="#725c3a" d="M 187.5,102.5 C 187.343,103.873 187.51,105.207 188,106.5C 189.388,105.446 190.888,105.28 192.5,106C 197.193,111.656 198.693,118.156 197,125.5C 195.872,130.139 194.872,134.805 194,139.5C 187.79,141.653 184.457,139.32 184,132.5C 183.667,127.167 183.333,121.833 183,116.5C 182.085,117.328 181.419,118.328 181,119.5C 180.601,119.272 180.435,118.938 180.5,118.5C 182.855,113.129 185.188,107.795 187.5,102.5 Z"/></g>
<g><path style="opacity:1" fill="#203444" d="M 205.5,89.5 C 206.652,93.1452 207.818,96.8118 209,100.5C 210.777,102.79 212.944,104.457 215.5,105.5C 215.948,111.394 218.281,116.394 222.5,120.5C 222.062,120.435 221.728,120.601 221.5,121C 223,123.167 224.5,125.333 226,127.5C 226.176,131.688 226.676,135.688 227.5,139.5C 227.267,141.062 226.6,142.395 225.5,143.5C 221.5,143.5 217.5,143.5 213.5,143.5C 210.855,133.247 206.522,123.914 200.5,115.5C 200.5,114.5 200.5,113.5 200.5,112.5C 201.804,104.635 203.471,96.9682 205.5,89.5 Z"/></g>
<g><path style="opacity:1" fill="#141b1e" d="M 255.5,101.5 C 255.5,109.5 255.5,117.5 255.5,125.5C 249.553,123.887 243.719,121.887 238,119.5C 234.55,120.806 231.384,122.473 228.5,124.5C 226.246,123.876 224.579,122.543 223.5,120.5C 228.47,119.518 233.137,117.684 237.5,115C 243.747,110.723 249.747,106.223 255.5,101.5 Z"/></g>
<g><path style="opacity:1" fill="#58492e" d="M 200.5,112.5 C 200.5,113.5 200.5,114.5 200.5,115.5C 198.727,124.72 198.06,134.053 198.5,143.5C 190.167,143.5 181.833,143.5 173.5,143.5C 175.919,137.067 177.419,130.401 178,123.5C 178.374,121.509 179.207,119.842 180.5,118.5C 180.435,118.938 180.601,119.272 181,119.5C 181.419,118.328 182.085,117.328 183,116.5C 183.333,121.833 183.667,127.167 184,132.5C 184.457,139.32 187.79,141.653 194,139.5C 194.872,134.805 195.872,130.139 197,125.5C 198.693,118.156 197.193,111.656 192.5,106C 190.888,105.28 189.388,105.446 188,106.5C 187.51,105.207 187.343,103.873 187.5,102.5C 187.5,101.5 187.5,100.5 187.5,99.5C 189.862,98.7804 192.029,99.447 194,101.5C 197.233,104.647 199.4,108.314 200.5,112.5 Z"/></g>
<g><path style="opacity:1" fill="#36b9c4" d="M 157.5,120.5 C 155.017,118.063 153.683,115.063 153.5,111.5C 155.735,111.795 157.735,111.461 159.5,110.5C 161.322,110.169 162.989,109.502 164.5,108.5C 165.935,107.21 166.935,105.544 167.5,103.5C 169.173,101.914 171.173,101.247 173.5,101.5C 173.666,105.846 173.499,110.179 173,114.5C 172.315,117.057 170.815,118.891 168.5,120C 164.848,120.499 161.182,120.665 157.5,120.5 Z"/></g>
<g><path style="opacity:1" fill="#ad995b" d="M 90.5,101.5 C 95.1667,108.167 99.8333,114.833 104.5,121.5C 104.5,121.833 104.5,122.167 104.5,122.5C 103.503,122.47 102.836,122.97 102.5,124C 99.1507,130.213 96.4841,136.713 94.5,143.5C 93.8333,143.5 93.1667,143.5 92.5,143.5C 94.2892,136.97 96.9558,130.803 100.5,125C 99.8333,124.333 99.1667,124.333 98.5,125C 96.2295,127.782 93.5628,129.949 90.5,131.5C 88.886,128.607 87.5527,125.607 86.5,122.5C 87.4959,122.586 88.3292,122.252 89,121.5C 89.1717,114.654 89.6717,107.987 90.5,101.5 Z"/></g>
<g><path style="opacity:1" fill="#2a7183" d="M 148.5,102.5 C 150.102,104.074 152.102,104.741 154.5,104.5C 153.909,105.151 153.243,105.818 152.5,106.5C 153.737,107.281 154.737,108.281 155.5,109.5C 156.689,110.429 158.022,110.762 159.5,110.5C 157.735,111.461 155.735,111.795 153.5,111.5C 153.683,115.063 155.017,118.063 157.5,120.5C 158.635,122.213 160.302,122.88 162.5,122.5C 162.157,124.483 162.824,125.817 164.5,126.5C 163.088,127.533 161.422,128.199 159.5,128.5C 154.269,125.939 149.936,122.272 146.5,117.5C 145.823,112.828 143.823,108.828 140.5,105.5C 141.602,104.824 142.602,104.158 143.5,103.5C 145.216,103.371 146.883,103.038 148.5,102.5 Z"/></g>
<g><path style="opacity:1" fill="#595142" d="M 255.5,125.5 C 255.5,126.833 255.5,128.167 255.5,129.5C 253.708,129.366 252.042,129.699 250.5,130.5C 246.156,129.146 241.823,127.812 237.5,126.5C 237.649,125.448 237.483,124.448 237,123.5C 235.811,125.233 234.644,126.9 233.5,128.5C 231.611,127.396 229.945,126.063 228.5,124.5C 231.384,122.473 234.55,120.806 238,119.5C 243.719,121.887 249.553,123.887 255.5,125.5 Z"/></g>
<g><path style="opacity:1" fill="#25495d" d="M 200.5,115.5 C 206.522,123.914 210.855,133.247 213.5,143.5C 208.5,143.5 203.5,143.5 198.5,143.5C 198.06,134.053 198.727,124.72 200.5,115.5 Z"/></g>
<g><path style="opacity:1" fill="#223a3a" d="M 73.5,118.5 C 73.3896,121.059 74.0562,123.392 75.5,125.5C 79.2799,124.817 82.9466,123.817 86.5,122.5C 87.5527,125.607 88.886,128.607 90.5,131.5C 86.6277,134.575 84.2943,138.575 83.5,143.5C 81.5,143.5 79.5,143.5 77.5,143.5C 74.0524,136.736 71.0524,129.736 68.5,122.5C 63.4796,116.444 60.8129,109.444 60.5,101.5C 63.2853,101.933 65.6187,103.266 67.5,105.5C 68.4634,110.443 70.4634,114.776 73.5,118.5 Z"/></g>
<g><path style="opacity:1" fill="#463929" d="M 104.5,122.5 C 106.471,124.808 108.471,127.142 110.5,129.5C 110.5,129.833 110.5,130.167 110.5,130.5C 108.926,130.937 107.759,131.937 107,133.5C 105.925,136.894 104.758,140.228 103.5,143.5C 100.5,143.5 97.5,143.5 94.5,143.5C 96.4841,136.713 99.1507,130.213 102.5,124C 102.836,122.97 103.503,122.47 104.5,122.5 Z"/></g>
<g><path style="opacity:1" fill="#b79f5f" d="M 110.5,129.5 C 116.155,133.823 121.488,138.49 126.5,143.5C 121.167,143.5 115.833,143.5 110.5,143.5C 110.5,139.167 110.5,134.833 110.5,130.5C 110.5,130.167 110.5,129.833 110.5,129.5 Z"/></g>
<g><path style="opacity:1" fill="#223e5d" d="M 126.5,121.5 C 132.189,126.337 138.189,130.67 144.5,134.5C 144.5,137.5 144.5,140.5 144.5,143.5C 138.5,143.5 132.5,143.5 126.5,143.5C 121.488,138.49 116.155,133.823 110.5,129.5C 108.471,127.142 106.471,124.808 104.5,122.5C 104.5,122.167 104.5,121.833 104.5,121.5C 104.643,119.738 104.309,118.071 103.5,116.5C 106.613,115.62 109.613,114.62 112.5,113.5C 112.33,114.822 112.663,115.989 113.5,117C 117.883,118.405 122.217,119.905 126.5,121.5 Z"/></g>
<g><path style="opacity:1" fill="#3988a1" d="M 222.5,120.5 C 222.833,120.5 223.167,120.5 223.5,120.5C 224.579,122.543 226.246,123.876 228.5,124.5C 229.945,126.063 231.611,127.396 233.5,128.5C 233.196,133.126 231.196,136.793 227.5,139.5C 226.676,135.688 226.176,131.688 226,127.5C 224.5,125.333 223,123.167 221.5,121C 221.728,120.601 222.062,120.435 222.5,120.5 Z"/></g>
<g><path style="opacity:1" fill="#19191b" d="M 110.5,130.5 C 110.5,134.833 110.5,139.167 110.5,143.5C 108.167,143.5 105.833,143.5 103.5,143.5C 104.758,140.228 105.925,136.894 107,133.5C 107.759,131.937 108.926,130.937 110.5,130.5 Z"/></g>
<g><path style="opacity:1" fill="#304e46" d="M 255.5,134.5 C 255.5,137.5 255.5,140.5 255.5,143.5C 252.5,143.5 249.5,143.5 246.5,143.5C 248.156,140.861 249.822,138.195 251.5,135.5C 252.689,134.571 254.022,134.238 255.5,134.5 Z"/></g>
<g><path style="opacity:1" fill="#766b49" d="M 54.5,130.5 C 53.5041,130.586 52.6708,130.252 52,129.5C 48.4061,133.45 46.9061,138.116 47.5,143.5C 42.5,143.5 37.5,143.5 32.5,143.5C 33.038,137.299 35.3713,131.966 39.5,127.5C 42.0351,126.651 44.5351,125.651 47,124.5C 50.1912,125.674 52.6912,127.674 54.5,130.5 Z"/></g>
<g><path style="opacity:1" fill="#201d19" d="M 255.5,129.5 C 255.5,131.167 255.5,132.833 255.5,134.5C 254.022,134.238 252.689,134.571 251.5,135.5C 249.822,138.195 248.156,140.861 246.5,143.5C 245.167,143.5 243.833,143.5 242.5,143.5C 245.167,139.167 247.833,134.833 250.5,130.5C 252.042,129.699 253.708,129.366 255.5,129.5 Z"/></g>
<g><path style="opacity:1" fill="#534d45" d="M 92.5,143.5 C 89.5,143.5 86.5,143.5 83.5,143.5C 84.2943,138.575 86.6277,134.575 90.5,131.5C 93.5628,129.949 96.2295,127.782 98.5,125C 99.1667,124.333 99.8333,124.333 100.5,125C 96.9558,130.803 94.2892,136.97 92.5,143.5 Z"/></g>
<g><path style="opacity:1" fill="#917650" d="M 250.5,130.5 C 247.833,134.833 245.167,139.167 242.5,143.5C 236.833,143.5 231.167,143.5 225.5,143.5C 226.6,142.395 227.267,141.062 227.5,139.5C 231.196,136.793 233.196,133.126 233.5,128.5C 234.644,126.9 235.811,125.233 237,123.5C 237.483,124.448 237.649,125.448 237.5,126.5C 241.823,127.812 246.156,129.146 250.5,130.5 Z"/></g>
</svg>
