<?xml version="1.0" encoding="UTF-8"?>
<!DOCTYPE svg PUBLIC "-//W3C//DTD SVG 1.1//EN" "http://www.w3.org/Graphics/SVG/1.1/DTD/svg11.dtd">
<svg xmlns="http://www.w3.org/2000/svg" version="1.1" width="256px" height="144px" style="shape-rendering:geometricPrecision; text-rendering:geometricPrecision; image-rendering:optimizeQuality; fill-rule:evenodd; clip-rule:evenodd" xmlns:xlink="http://www.w3.org/1999/xlink">
<g><path style="opacity:1" fill="#151422" d="M 36.5,-0.5 C 47.8333,-0.5 59.1667,-0.5 70.5,-0.5C 70.6309,0.376442 70.2975,1.04311 69.5,1.5C 67.5675,0.479784 65.5675,0.313117 63.5,1C 64.6956,1.65431 64.6956,2.15431 63.5,2.5C 62.8333,2.16667 62.1667,1.83333 61.5,1.5C 58.9296,2.74792 56.2629,3.74792 53.5,4.5C 51.8434,7.97441 49.6768,10.3077 47,11.5C 46.6667,12.5 46.3333,13.5 46,14.5C 45.0862,13.3463 44.2529,13.513 43.5,15C 39.3437,15.1845 35.3437,16.0179 31.5,17.5C 33.4755,18.7493 33.8088,20.2493 32.5,22C 33.4158,22.2784 34.0825,22.7784 34.5,23.5C 30.0249,26.4384 25.3583,29.2718 20.5,32C 17.6,34.3968 15.2667,37.2302 13.5,40.5C 11.1642,38.4154 8.83088,38.2488 6.5,40C 7.16667,40.6667 7.83333,41.3333 8.5,42C 5.51838,42.498 2.51838,42.6646 -0.5,42.5C -0.5,39.8333 -0.5,37.1667 -0.5,34.5C 1.11723,33.962 2.7839,33.6287 4.5,33.5C 4.49136,31.6916 4.99136,30.0249 6,28.5C 6.41395,28.9574 6.91395,29.2907 7.5,29.5C 8.14138,27.7045 9.14138,26.2045 10.5,25C 10.1667,24.6667 9.83333,24.3333 9.5,24C 11.2464,23.5291 12.913,22.8624 14.5,22C 10.9068,21.3156 10.5735,19.8156 13.5,17.5C 22.8018,12.5147 32.1351,7.51469 41.5,2.5C 41.1667,2.16667 40.8333,1.83333 40.5,1.5C 38.139,3.4545 35.4724,4.28783 32.5,4C 34.5,3 36.5,2 38.5,1C 37.5842,0.721579 36.9175,0.221579 36.5,-0.5 Z"/></g>
<g><path style="opacity:1" fill="#181727" d="M 241.5,-0.5 C 246.167,-0.5 250.833,-0.5 255.5,-0.5C 255.5,12.1667 255.5,24.8333 255.5,37.5C 252.075,30.8791 247.575,24.8791 242,19.5C 237.74,22.6144 234.24,21.9477 231.5,17.5C 232.167,17.1667 232.833,16.8333 233.5,16.5C 232.689,15.7836 232.022,14.9503 231.5,14C 232.484,12.3435 233.484,10.6768 234.5,9C 232.053,7.77111 231.887,6.27111 234,4.5C 234.667,5.16667 235.333,5.83333 236,6.5C 237.444,4.84464 239.278,4.17798 241.5,4.5C 241.5,2.83333 241.5,1.16667 241.5,-0.5 Z"/></g>
<g><path style="opacity:1" fill="#18172d" d="M 70.5,-0.5 C 80.1667,-0.5 89.8333,-0.5 99.5,-0.5C 99.5,-0.166667 99.5,0.166667 99.5,0.5C 99.5,1.16667 99.5,1.83333 99.5,2.5C 98.6618,2.84171 98.3284,3.50838 98.5,4.5C 97.7811,6.09125 96.7811,7.59125 95.5,9C 92.8807,9.15149 90.5473,9.98482 88.5,11.5C 87.2011,10.91 86.3678,9.90999 86,8.5C 71.6326,10.6365 57.4659,13.4698 43.5,17C 42.3774,18.0437 41.0441,18.7104 39.5,19C 40.9423,19.3768 41.9423,20.2101 42.5,21.5C 41.5416,21.9528 40.7083,22.6195 40,23.5C 38.4815,23.9426 37.3148,23.2759 36.5,21.5C 35.8182,22.2427 35.1515,22.9094 34.5,23.5C 34.0825,22.7784 33.4158,22.2784 32.5,22C 33.8088,20.2493 33.4755,18.7493 31.5,17.5C 35.3437,16.0179 39.3437,15.1845 43.5,15C 44.2529,13.513 45.0862,13.3463 46,14.5C 46.3333,13.5 46.6667,12.5 47,11.5C 49.6768,10.3077 51.8434,7.97441 53.5,4.5C 56.2629,3.74792 58.9296,2.74792 61.5,1.5C 62.1667,1.83333 62.8333,2.16667 63.5,2.5C 64.6956,2.15431 64.6956,1.65431 63.5,1C 65.5675,0.313117 67.5675,0.479784 69.5,1.5C 70.2975,1.04311 70.6309,0.376442 70.5,-0.5 Z"/></g>
<g><path style="opacity:1" fill="#5e649f" d="M 119.5,-0.5 C 121.167,-0.5 122.833,-0.5 124.5,-0.5C 124.414,0.495904 124.748,1.32924 125.5,2C 130.806,4.87048 135.806,8.20382 140.5,12C 142.909,13.7068 145.575,14.5402 148.5,14.5C 156.563,17.0358 163.563,21.3692 169.5,27.5C 174.019,31.6729 178.686,35.6729 183.5,39.5C 182.167,39.5 180.833,39.5 179.5,39.5C 178.415,37.4131 176.749,36.0798 174.5,35.5C 170.292,30.1253 165.292,25.6253 159.5,22C 151.657,17.7537 143.324,14.587 134.5,12.5C 134.137,11.8165 133.804,11.1499 133.5,10.5C 128.311,7.53919 123.644,3.87252 119.5,-0.5 Z"/></g>
<g><path style="opacity:1" fill="#d5e2f8" d="M 189.5,-0.5 C 191.5,-0.5 193.5,-0.5 195.5,-0.5C 196.291,1.69074 196.291,3.69074 195.5,5.5C 193.806,3.13942 191.806,1.13942 189.5,-0.5 Z"/></g>
<g><path style="opacity:1" fill="#dcfafc" d="M 199.5,-0.5 C 203.833,-0.5 208.167,-0.5 212.5,-0.5C 211.564,0.974395 210.23,1.97439 208.5,2.5C 207.185,3.47565 205.852,4.47565 204.5,5.5C 201.946,4.10082 200.28,2.10082 199.5,-0.5 Z"/></g>
<g><path style="opacity:1" fill="#2a2d4e" d="M 109.5,-0.5 C 110.833,-0.5 112.167,-0.5 113.5,-0.5C 116.306,1.47503 118.639,3.97503 120.5,7C 123.662,8.02748 126.662,9.19414 129.5,10.5C 131.792,11.7899 133.792,13.4565 135.5,15.5C 130.213,13.5135 124.88,11.5135 119.5,9.5C 118.702,9.95689 118.369,10.6236 118.5,11.5C 115.215,10.0502 112.715,7.71685 111,4.5C 109.991,2.97506 109.491,1.30839 109.5,-0.5 Z"/></g>
<g><path style="opacity:1" fill="#6e7bc2" d="M 124.5,-0.5 C 127.833,-0.5 131.167,-0.5 134.5,-0.5C 134.862,3.20257 136.529,6.20257 139.5,8.5C 142.574,10.5066 145.574,12.5066 148.5,14.5C 145.575,14.5402 142.909,13.7068 140.5,12C 135.806,8.20382 130.806,4.87048 125.5,2C 124.748,1.32924 124.414,0.495904 124.5,-0.5 Z"/></g>
<g><path style="opacity:1" fill="#dae8fa" d="M 195.5,6.5 C 198.338,8.30591 198.005,9.30591 194.5,9.5C 191.931,8.60436 189.931,6.9377 188.5,4.5C 188.833,4.16667 189.167,3.83333 189.5,3.5C 191.527,4.51328 193.527,5.51328 195.5,6.5 Z"/></g>
<g><path style="opacity:1" fill="#11121c" d="M -0.5,-0.5 C 11.8333,-0.5 24.1667,-0.5 36.5,-0.5C 36.9175,0.221579 37.5842,0.721579 38.5,1C 36.5,2 34.5,3 32.5,4C 35.4724,4.28783 38.139,3.4545 40.5,1.5C 40.8333,1.83333 41.1667,2.16667 41.5,2.5C 32.1351,7.51469 22.8018,12.5147 13.5,17.5C 10.5735,19.8156 10.9068,21.3156 14.5,22C 12.913,22.8624 11.2464,23.5291 9.5,24C 9.83333,24.3333 10.1667,24.6667 10.5,25C 9.14138,26.2045 8.14138,27.7045 7.5,29.5C 6.91395,29.2907 6.41395,28.9574 6,28.5C 4.99136,30.0249 4.49136,31.6916 4.5,33.5C 2.7839,33.6287 1.11723,33.962 -0.5,34.5C -0.5,22.8333 -0.5,11.1667 -0.5,-0.5 Z"/></g>
<g><path style="opacity:1" fill="#7c264f" d="M 99.5,0.5 C 99.5,0.166667 99.5,-0.166667 99.5,-0.5C 102.833,-0.5 106.167,-0.5 109.5,-0.5C 109.491,1.30839 109.991,2.97506 111,4.5C 112.715,7.71685 115.215,10.0502 118.5,11.5C 119.59,12.8571 120.924,13.8571 122.5,14.5C 121.665,15.9432 120.332,16.9432 118.5,17.5C 115.318,21.2718 115.984,23.9385 120.5,25.5C 120.5,25.8333 120.5,26.1667 120.5,26.5C 116.003,25.7565 112.336,23.7565 109.5,20.5C 109.267,18.9382 108.6,17.6049 107.5,16.5C 106.316,13.1393 104.483,10.1393 102,7.5C 101.313,5.43249 101.48,3.43249 102.5,1.5C 101.675,0.614324 100.675,0.28099 99.5,0.5 Z"/></g>
<g><path style="opacity:1" fill="#8e9dea" d="M 134.5,-0.5 C 147.5,-0.5 160.5,-0.5 173.5,-0.5C 175.278,9.17712 178.611,18.1771 183.5,26.5C 185.167,29.8333 186.833,33.1667 188.5,36.5C 188.44,37.0431 188.107,37.3764 187.5,37.5C 181.993,33.225 175.993,29.8917 169.5,27.5C 163.563,21.3692 156.563,17.0358 148.5,14.5C 145.574,12.5066 142.574,10.5066 139.5,8.5C 136.529,6.20257 134.862,3.20257 134.5,-0.5 Z"/></g>
<g><path style="opacity:1" fill="#a8535f" d="M 99.5,0.5 C 100.675,0.28099 101.675,0.614324 102.5,1.5C 101.48,3.43249 101.313,5.43249 102,7.5C 104.483,10.1393 106.316,13.1393 107.5,16.5C 102.246,13.327 99.5794,8.6603 99.5,2.5C 99.5,1.83333 99.5,1.16667 99.5,0.5 Z"/></g>
<g><path style="opacity:1" fill="#39416f" d="M 113.5,-0.5 C 115.5,-0.5 117.5,-0.5 119.5,-0.5C 123.644,3.87252 128.311,7.53919 133.5,10.5C 132.167,10.5 130.833,10.5 129.5,10.5C 126.662,9.19414 123.662,8.02748 120.5,7C 118.639,3.97503 116.306,1.47503 113.5,-0.5 Z"/></g>
<g><path style="opacity:1" fill="#623155" d="M 202.5,9.5 C 201.508,9.67158 200.842,9.33825 200.5,8.5C 201.895,6.69971 203.561,6.36638 205.5,7.5C 204.995,8.91851 203.995,9.58517 202.5,9.5 Z"/></g>
<g><path style="opacity:1" fill="#1b1928" d="M 230.5,-0.5 C 234.167,-0.5 237.833,-0.5 241.5,-0.5C 241.5,1.16667 241.5,2.83333 241.5,4.5C 239.278,4.17798 237.444,4.84464 236,6.5C 235.333,5.83333 234.667,5.16667 234,4.5C 231.887,6.27111 232.053,7.77111 234.5,9C 233.484,10.6768 232.484,12.3435 231.5,14C 232.022,14.9503 232.689,15.7836 233.5,16.5C 232.833,16.8333 232.167,17.1667 231.5,17.5C 234.24,21.9477 237.74,22.6144 242,19.5C 247.575,24.8791 252.075,30.8791 255.5,37.5C 255.5,39.5 255.5,41.5 255.5,43.5C 253.549,43.2267 252.049,43.8934 251,45.5C 243.887,40.7158 238.554,34.3825 235,26.5C 233.13,24.7811 230.963,23.7811 228.5,23.5C 227.74,20.2656 226.74,17.0989 225.5,14C 227.884,12.0213 228.551,9.68801 227.5,7C 228.113,4.2843 229.113,1.7843 230.5,-0.5 Z"/></g>
<g><path style="opacity:1" fill="#1d1c38" d="M 98.5,4.5 C 98.4355,8.699 99.7689,12.3657 102.5,15.5C 91.7159,13.9718 81.0492,14.3052 70.5,16.5C 62.3958,17.7593 54.3958,19.4259 46.5,21.5C 45.1667,21.5 43.8333,21.5 42.5,21.5C 41.9423,20.2101 40.9423,19.3768 39.5,19C 41.0441,18.7104 42.3774,18.0437 43.5,17C 57.4659,13.4698 71.6326,10.6365 86,8.5C 86.3678,9.90999 87.2011,10.91 88.5,11.5C 90.5473,9.98482 92.8807,9.15149 95.5,9C 96.7811,7.59125 97.7811,6.09125 98.5,4.5 Z"/></g>
<g><path style="opacity:1" fill="#9898e1" d="M 176.5,-0.5 C 180.833,-0.5 185.167,-0.5 189.5,-0.5C 191.806,1.13942 193.806,3.13942 195.5,5.5C 195.5,5.83333 195.5,6.16667 195.5,6.5C 193.527,5.51328 191.527,4.51328 189.5,3.5C 189.167,3.83333 188.833,4.16667 188.5,4.5C 189.931,6.9377 191.931,8.60436 194.5,9.5C 195.5,10.1667 196.5,10.8333 197.5,11.5C 194.753,11.1866 192.086,11.52 189.5,12.5C 189.17,18.1068 187.004,18.7735 183,14.5C 182.805,15.8193 182.972,17.1526 183.5,18.5C 181.36,16.2995 179.86,13.6328 179,10.5C 178.351,6.75011 177.518,3.08344 176.5,-0.5 Z"/></g>
<g><path style="opacity:1" fill="#6c413d" d="M 99.5,2.5 C 99.5794,8.6603 102.246,13.327 107.5,16.5C 108.6,17.6049 109.267,18.9382 109.5,20.5C 109.167,20.5 108.833,20.5 108.5,20.5C 108.158,19.6618 107.492,19.3284 106.5,19.5C 105.5,17.8333 104.167,16.5 102.5,15.5C 99.7689,12.3657 98.4355,8.699 98.5,4.5C 98.3284,3.50838 98.6618,2.84171 99.5,2.5 Z"/></g>
<g><path style="opacity:1" fill="#271a2b" d="M 135.5,15.5 C 140.879,16.7333 145.879,18.7333 150.5,21.5C 147.177,20.5075 143.844,19.5075 140.5,18.5C 134.596,16.8579 128.596,15.5246 122.5,14.5C 120.924,13.8571 119.59,12.8571 118.5,11.5C 118.369,10.6236 118.702,9.95689 119.5,9.5C 124.88,11.5135 130.213,13.5135 135.5,15.5 Z"/></g>
<g><path style="opacity:1" fill="#bfabce" d="M 195.5,-0.5 C 196.167,-0.5 196.833,-0.5 197.5,-0.5C 197.557,3.02873 198.557,6.02873 200.5,8.5C 200.842,9.33825 201.508,9.67158 202.5,9.5C 202.833,10.8333 203.167,12.1667 203.5,13.5C 202.933,15.698 202.933,18.0314 203.5,20.5C 201.118,17.1382 198.451,16.8049 195.5,19.5C 194.883,19.6107 194.383,19.944 194,20.5C 193.502,23.8168 193.335,27.1501 193.5,30.5C 193.167,30.5 192.833,30.5 192.5,30.5C 191.508,27.2214 191.341,23.8881 192,20.5C 193,18.1667 194.667,16.5 197,15.5C 197.49,14.2068 197.657,12.8734 197.5,11.5C 196.5,10.8333 195.5,10.1667 194.5,9.5C 198.005,9.30591 198.338,8.30591 195.5,6.5C 195.5,6.16667 195.5,5.83333 195.5,5.5C 196.291,3.69074 196.291,1.69074 195.5,-0.5 Z"/></g>
<g><path style="opacity:1" fill="#e8e6ef" d="M 197.5,-0.5 C 198.167,-0.5 198.833,-0.5 199.5,-0.5C 200.28,2.10082 201.946,4.10082 204.5,5.5C 205.852,4.47565 207.185,3.47565 208.5,2.5C 208.932,3.70951 209.599,4.70951 210.5,5.5C 212.218,8.98269 213.551,12.6494 214.5,16.5C 214.833,17.8333 215.167,19.1667 215.5,20.5C 215.5,27.1667 215.5,33.8333 215.5,40.5C 214.833,37.5 214.167,34.5 213.5,31.5C 213.737,30.209 213.404,29.209 212.5,28.5C 211.863,25.544 211.363,22.544 211,19.5C 210.303,17.4156 209.136,15.7489 207.5,14.5C 206.292,13.7659 204.959,13.4326 203.5,13.5C 203.167,12.1667 202.833,10.8333 202.5,9.5C 203.995,9.58517 204.995,8.91851 205.5,7.5C 203.561,6.36638 201.895,6.69971 200.5,8.5C 198.557,6.02873 197.557,3.02873 197.5,-0.5 Z"/></g>
<g><path style="opacity:1" fill="#b2a3e8" d="M 197.5,11.5 C 197.657,12.8734 197.49,14.2068 197,15.5C 194.667,16.5 193,18.1667 192,20.5C 191.341,23.8881 191.508,27.2214 192.5,30.5C 188.998,26.8071 185.998,22.8071 183.5,18.5C 182.972,17.1526 182.805,15.8193 183,14.5C 187.004,18.7735 189.17,18.1068 189.5,12.5C 192.086,11.52 194.753,11.1866 197.5,11.5 Z"/></g>
<g><path style="opacity:1" fill="#71204b" d="M 102.5,15.5 C 104.167,16.5 105.5,17.8333 106.5,19.5C 95.0898,20.5267 84.0898,23.1934 73.5,27.5C 74.8502,26.3501 74.6836,25.6834 73,25.5C 71.7147,25.9504 70.548,26.6171 69.5,27.5C 62.4885,26.784 55.1552,26.284 47.5,26C 49.4319,24.5415 51.4319,23.3748 53.5,22.5C 59.5322,21.2687 65.1988,19.2687 70.5,16.5C 81.0492,14.3052 91.7159,13.9718 102.5,15.5 Z"/></g>
<g><path style="opacity:1" fill="#ef7381" d="M 173.5,-0.5 C 173.833,-0.5 174.167,-0.5 174.5,-0.5C 176.183,7.21741 178.85,14.5507 182.5,21.5C 182.629,23.2161 182.962,24.8828 183.5,26.5C 178.611,18.1771 175.278,9.17712 173.5,-0.5 Z"/></g>
<g><path style="opacity:1" fill="#4f3b5e" d="M 129.5,10.5 C 130.833,10.5 132.167,10.5 133.5,10.5C 133.804,11.1499 134.137,11.8165 134.5,12.5C 143.324,14.587 151.657,17.7537 159.5,22C 165.292,25.6253 170.292,30.1253 174.5,35.5C 169.99,31.8278 165.323,28.3278 160.5,25C 157.721,24.439 155.054,23.6056 152.5,22.5C 151.508,22.6716 150.842,22.3382 150.5,21.5C 145.879,18.7333 140.879,16.7333 135.5,15.5C 133.792,13.4565 131.792,11.7899 129.5,10.5 Z"/></g>
<g><path style="opacity:1" fill="#732652" d="M 203.5,13.5 C 204.959,13.4326 206.292,13.7659 207.5,14.5C 209.801,21.611 210.801,28.9444 210.5,36.5C 208.771,37.1175 207.271,38.1175 206,39.5C 205.809,37.2922 205.309,35.2922 204.5,33.5C 205.551,30.3442 205.551,27.3442 204.5,24.5C 204.167,23.1667 203.833,21.8333 203.5,20.5C 202.933,18.0314 202.933,15.698 203.5,13.5 Z"/></g>
<g><path style="opacity:1" fill="#8d2844" d="M 106.5,19.5 C 107.492,19.3284 108.158,19.6618 108.5,20.5C 103.964,20.1502 99.6306,20.8169 95.5,22.5C 87.5203,24.8257 79.5203,27.159 71.5,29.5C 71.5,29.1667 71.5,28.8333 71.5,28.5C 71.8417,27.6618 72.5084,27.3284 73.5,27.5C 84.0898,23.1934 95.0898,20.5267 106.5,19.5 Z"/></g>
<g><path style="opacity:1" fill="#955b66" d="M 70.5,16.5 C 65.1988,19.2687 59.5322,21.2687 53.5,22.5C 45.8539,24.4898 38.8539,27.8232 32.5,32.5C 32.5569,31.391 32.8902,30.391 33.5,29.5C 37.3785,26.0959 41.7118,23.4292 46.5,21.5C 54.3958,19.4259 62.3958,17.7593 70.5,16.5 Z"/></g>
<g><path style="opacity:1" fill="#631946" d="M 108.5,20.5 C 108.833,20.5 109.167,20.5 109.5,20.5C 112.336,23.7565 116.003,25.7565 120.5,26.5C 124.263,29.048 128.263,31.048 132.5,32.5C 125.453,31.0866 118.787,28.7533 112.5,25.5C 109.875,27.0814 108.542,29.4148 108.5,32.5C 110.949,37.8413 109.282,40.1746 103.5,39.5C 102.833,39.5 102.167,39.5 101.5,39.5C 100.048,38.6981 98.3817,38.1981 96.5,38C 99.5008,38.0944 101.501,36.7611 102.5,34C 101.049,34.2626 99.7161,34.0959 98.5,33.5C 98.8333,32.8333 99.1667,32.1667 99.5,31.5C 98.2634,29.2213 96.9301,27.0547 95.5,25C 96.1667,24.6667 96.8333,24.3333 97.5,24C 96.5842,23.7216 95.9175,23.2216 95.5,22.5C 99.6306,20.8169 103.964,20.1502 108.5,20.5 Z"/></g>
<g><path style="opacity:1" fill="#ea2866" d="M 203.5,20.5 C 203.833,21.8333 204.167,23.1667 204.5,24.5C 204.719,25.675 204.386,26.675 203.5,27.5C 200.804,27.1888 198.137,26.8554 195.5,26.5C 195.5,24.1667 195.5,21.8333 195.5,19.5C 198.451,16.8049 201.118,17.1382 203.5,20.5 Z"/></g>
<g><path style="opacity:1" fill="#fec0d2" d="M 200.5,21.5 C 202.225,21.8425 202.725,22.8425 202,24.5C 200.961,23.7562 200.461,22.7562 200.5,21.5 Z"/></g>
<g><path style="opacity:1" fill="#212031" d="M 42.5,21.5 C 43.8333,21.5 45.1667,21.5 46.5,21.5C 41.7118,23.4292 37.3785,26.0959 33.5,29.5C 27.2674,32.1132 21.934,35.9465 17.5,41C 17.7284,41.3988 18.0618,41.5654 18.5,41.5C 19.1667,42.5 19.8333,43.5 20.5,44.5C 13.5,49.8333 6.5,55.1667 -0.5,60.5C -0.5,54.5 -0.5,48.5 -0.5,42.5C 2.51838,42.6646 5.51838,42.498 8.5,42C 7.83333,41.3333 7.16667,40.6667 6.5,40C 8.83088,38.2488 11.1642,38.4154 13.5,40.5C 15.2667,37.2302 17.6,34.3968 20.5,32C 25.3583,29.2718 30.0249,26.4384 34.5,23.5C 35.1515,22.9094 35.8182,22.2427 36.5,21.5C 37.3148,23.2759 38.4815,23.9426 40,23.5C 40.7083,22.6195 41.5416,21.9528 42.5,21.5 Z"/></g>
<g><path style="opacity:1" fill="#e3ccdc" d="M 195.5,19.5 C 195.5,21.8333 195.5,24.1667 195.5,26.5C 195.325,28.6208 195.659,30.6208 196.5,32.5C 196.565,32.9382 196.399,33.2716 196,33.5C 195.292,32.6195 194.458,31.9528 193.5,31.5C 193.5,31.1667 193.5,30.8333 193.5,30.5C 193.335,27.1501 193.502,23.8168 194,20.5C 194.383,19.944 194.883,19.6107 195.5,19.5 Z"/></g>
<g><path style="opacity:1" fill="#bf275c" d="M 204.5,24.5 C 205.551,27.3442 205.551,30.3442 204.5,33.5C 201.589,34.9835 198.922,34.6502 196.5,32.5C 195.659,30.6208 195.325,28.6208 195.5,26.5C 198.137,26.8554 200.804,27.1888 203.5,27.5C 204.386,26.675 204.719,25.675 204.5,24.5 Z"/></g>
<g><path style="opacity:1" fill="#771c48" d="M 95.5,22.5 C 95.9175,23.2216 96.5842,23.7216 97.5,24C 96.8333,24.3333 96.1667,24.6667 95.5,25C 96.9301,27.0547 98.2634,29.2213 99.5,31.5C 99.1667,32.1667 98.8333,32.8333 98.5,33.5C 99.7161,34.0959 101.049,34.2626 102.5,34C 101.501,36.7611 99.5008,38.0944 96.5,38C 98.3817,38.1981 100.048,38.6981 101.5,39.5C 99.5168,39.1568 98.1834,39.8235 97.5,41.5C 98.1667,43.5 98.8333,45.5 99.5,47.5C 99.001,52.9702 97.1677,53.9702 94,50.5C 93.5831,51.756 92.7498,52.4226 91.5,52.5C 91.2014,51.2397 91.2014,50.073 91.5,49C 92.3279,48.0853 93.3279,47.4186 94.5,47C 92.3808,46.6582 92.0474,45.8249 93.5,44.5C 97.6022,43.1409 97.4355,42.4742 93,42.5C 90.0788,42.8641 87.2455,43.5308 84.5,44.5C 81.8127,44.6641 79.146,44.4974 76.5,44C 77.5,43.5 78.5,43 79.5,42.5C 80.521,41.9984 80.6877,41.3317 80,40.5C 78,41.1667 76,41.8333 74,42.5C 73.0664,39.0352 71.5664,38.7019 69.5,41.5C 65.625,40.1532 65.625,38.9865 69.5,38C 67.705,37.7432 65.705,37.0765 63.5,36C 65.935,35.9252 66.6016,35.0919 65.5,33.5C 67.5,32.1667 69.5,30.8333 71.5,29.5C 79.5203,27.159 87.5203,24.8257 95.5,22.5 Z"/></g>
<g><path style="opacity:1" fill="#ca8dab" d="M 140.5,19.5 C 142.623,22.8674 143.956,26.534 144.5,30.5C 140.85,27.5158 139.517,23.8491 140.5,19.5 Z"/></g>
<g><path style="opacity:1" fill="#5c1c40" d="M 53.5,22.5 C 51.4319,23.3748 49.4319,24.5415 47.5,26C 55.1552,26.284 62.4885,26.784 69.5,27.5C 70.548,26.6171 71.7147,25.9504 73,25.5C 74.6836,25.6834 74.8502,26.3501 73.5,27.5C 72.5084,27.3284 71.8417,27.6618 71.5,28.5C 64.4824,30.5208 58.4824,34.1874 53.5,39.5C 44.9953,38.7581 36.662,37.7581 28.5,36.5C 28.894,34.2901 30.2273,32.9568 32.5,32.5C 38.8539,27.8232 45.8539,24.4898 53.5,22.5 Z"/></g>
<g><path style="opacity:1" fill="#7b5952" d="M 33.5,29.5 C 32.8902,30.391 32.5569,31.391 32.5,32.5C 30.2273,32.9568 28.894,34.2901 28.5,36.5C 26.2504,37.1302 24.2504,38.1302 22.5,39.5C 20.9382,39.7329 19.6049,40.3995 18.5,41.5C 18.0618,41.5654 17.7284,41.3988 17.5,41C 21.934,35.9465 27.2674,32.1132 33.5,29.5 Z"/></g>
<g><path style="opacity:1" fill="#b9536d" d="M 207.5,14.5 C 209.136,15.7489 210.303,17.4156 211,19.5C 211.363,22.544 211.863,25.544 212.5,28.5C 212.872,34.43 212.205,40.0967 210.5,45.5C 210.5,42.5 210.5,39.5 210.5,36.5C 210.801,28.9444 209.801,21.611 207.5,14.5 Z"/></g>
<g><path style="opacity:1" fill="#922b61" d="M 159.5,27.5 C 170.563,35.025 181.229,43.025 191.5,51.5C 190.736,53.7397 189.902,56.0731 189,58.5C 188.292,57.6195 187.458,56.9528 186.5,56.5C 182.484,45.8098 180.817,46.1432 181.5,57.5C 178.998,55.8304 176.998,53.6637 175.5,51C 173.783,49.4412 171.783,48.6079 169.5,48.5C 166.779,48.0372 164.112,47.3705 161.5,46.5C 158.167,43.8333 155.167,40.8333 152.5,37.5C 152.5,36.8333 152.167,36.5 151.5,36.5C 153.782,33.8958 155.116,30.8958 155.5,27.5C 156.833,27.5 158.167,27.5 159.5,27.5 Z"/></g>
<g><path style="opacity:1" fill="#d087b6" d="M 194.5,38.5 C 193.833,38.5 193.167,38.5 192.5,38.5C 190.938,38.2671 189.605,37.6005 188.5,36.5C 186.833,33.1667 185.167,29.8333 183.5,26.5C 182.962,24.8828 182.629,23.2161 182.5,21.5C 182.435,21.0618 182.601,20.7284 183,20.5C 185.527,24.2211 187.527,28.2211 189,32.5C 191.04,34.3702 192.873,36.3702 194.5,38.5 Z"/></g>
<g><path style="opacity:1" fill="#b692a9" d="M 193.5,31.5 C 194.458,31.9528 195.292,32.6195 196,33.5C 196.399,33.2716 196.565,32.9382 196.5,32.5C 198.922,34.6502 201.589,34.9835 204.5,33.5C 204.5,34.1667 204.5,34.8333 204.5,35.5C 198.99,39.0867 195.324,37.7534 193.5,31.5 Z"/></g>
<g><path style="opacity:1" fill="#8683c9" d="M 169.5,27.5 C 175.993,29.8917 181.993,33.225 187.5,37.5C 188.107,37.3764 188.44,37.0431 188.5,36.5C 189.605,37.6005 190.938,38.2671 192.5,38.5C 194.374,40.8127 196.374,43.146 198.5,45.5C 198.265,46.0967 197.765,46.4301 197,46.5C 192.123,44.824 187.623,42.4906 183.5,39.5C 178.686,35.6729 174.019,31.6729 169.5,27.5 Z"/></g>
<g><path style="opacity:1" fill="#9b4a47" d="M 71.5,28.5 C 71.5,28.8333 71.5,29.1667 71.5,29.5C 69.5,30.8333 67.5,32.1667 65.5,33.5C 58.3823,36.5256 53.3823,41.5256 50.5,48.5C 50.1667,49.5 49.5,50.1667 48.5,50.5C 46.6736,52.1475 45.3403,54.1475 44.5,56.5C 43.8761,56.0831 43.5427,55.4164 43.5,54.5C 44.2366,52.0297 45.2366,49.6964 46.5,47.5C 47.1667,47.5 47.5,47.1667 47.5,46.5C 48.5,46.1667 49.1667,45.5 49.5,44.5C 51.0627,43.0552 52.396,41.3885 53.5,39.5C 58.4824,34.1874 64.4824,30.5208 71.5,28.5 Z"/></g>
<g><path style="opacity:1" fill="#821d41" d="M 65.5,33.5 C 66.6016,35.0919 65.935,35.9252 63.5,36C 65.705,37.0765 67.705,37.7432 69.5,38C 65.625,38.9865 65.625,40.1532 69.5,41.5C 71.5664,38.7019 73.0664,39.0352 74,42.5C 76,41.8333 78,41.1667 80,40.5C 80.6877,41.3317 80.521,41.9984 79.5,42.5C 78.5,43 77.5,43.5 76.5,44C 79.146,44.4974 81.8127,44.6641 84.5,44.5C 83.0813,45.4511 81.4147,45.7845 79.5,45.5C 69.8408,46.8405 60.1741,47.8405 50.5,48.5C 53.3823,41.5256 58.3823,36.5256 65.5,33.5 Z"/></g>
<g><path style="opacity:1" fill="#691c54" d="M 122.5,14.5 C 128.596,15.5246 134.596,16.8579 140.5,18.5C 140.5,18.8333 140.5,19.1667 140.5,19.5C 139.517,23.8491 140.85,27.5158 144.5,30.5C 146.587,33.3409 148.087,36.3409 149,39.5C 148.097,38.2986 146.931,37.4652 145.5,37C 141.527,36.0023 137.527,35.6689 133.5,36C 133.167,36.3333 132.833,36.6667 132.5,37C 133.5,37.3333 134.5,37.6667 135.5,38C 133.893,39.049 133.227,40.549 133.5,42.5C 131.173,42.7529 129.173,42.0863 127.5,40.5C 126.914,40.7093 126.414,41.0426 126,41.5C 125.544,40.2559 126.044,39.4226 127.5,39C 122.43,37.8931 118.097,36.0597 114.5,33.5C 113.914,33.7093 113.414,34.0426 113,34.5C 111.89,32.9632 110.39,32.2965 108.5,32.5C 108.542,29.4148 109.875,27.0814 112.5,25.5C 118.787,28.7533 125.453,31.0866 132.5,32.5C 134.216,32.6287 135.883,32.962 137.5,33.5C 139.856,34.5751 142.189,34.5751 144.5,33.5C 144.333,33.1667 144.167,32.8333 144,32.5C 141.096,30.7732 137.93,30.1065 134.5,30.5C 129.867,28.8384 125.201,27.1718 120.5,25.5C 115.984,23.9385 115.318,21.2718 118.5,17.5C 120.332,16.9432 121.665,15.9432 122.5,14.5 Z"/></g>
<g><path style="opacity:1" fill="#a33155" d="M 134.5,30.5 C 137.93,30.1065 141.096,30.7732 144,32.5C 144.167,32.8333 144.333,33.1667 144.5,33.5C 142.189,34.5751 139.856,34.5751 137.5,33.5C 136.694,32.2719 135.694,31.2719 134.5,30.5 Z"/></g>
<g><path style="opacity:1" fill="#9e557d" d="M 120.5,25.5 C 125.201,27.1718 129.867,28.8384 134.5,30.5C 135.694,31.2719 136.694,32.2719 137.5,33.5C 135.883,32.962 134.216,32.6287 132.5,32.5C 128.263,31.048 124.263,29.048 120.5,26.5C 120.5,26.1667 120.5,25.8333 120.5,25.5 Z"/></g>
<g><path style="opacity:1" fill="#a36daa" d="M 174.5,-0.5 C 175.167,-0.5 175.833,-0.5 176.5,-0.5C 177.518,3.08344 178.351,6.75011 179,10.5C 179.86,13.6328 181.36,16.2995 183.5,18.5C 185.998,22.8071 188.998,26.8071 192.5,30.5C 192.833,30.5 193.167,30.5 193.5,30.5C 193.5,30.8333 193.5,31.1667 193.5,31.5C 195.324,37.7534 198.99,39.0867 204.5,35.5C 203.773,37.9538 202.773,40.2872 201.5,42.5C 199.167,41.1667 196.833,39.8333 194.5,38.5C 192.873,36.3702 191.04,34.3702 189,32.5C 187.527,28.2211 185.527,24.2211 183,20.5C 182.601,20.7284 182.435,21.0618 182.5,21.5C 178.85,14.5507 176.183,7.21741 174.5,-0.5 Z"/></g>
<g><path style="opacity:1" fill="#f4c5d6" d="M 213.5,31.5 C 214.167,34.5 214.833,37.5 215.5,40.5C 214.96,43.8647 214.294,47.198 213.5,50.5C 211.585,50.7845 209.919,50.4511 208.5,49.5C 210.451,49.7733 211.951,49.1066 213,47.5C 213.499,42.1771 213.666,36.8437 213.5,31.5 Z"/></g>
<g><path style="opacity:1" fill="#5e1d30" d="M 28.5,36.5 C 36.662,37.7581 44.9953,38.7581 53.5,39.5C 52.396,41.3885 51.0627,43.0552 49.5,44.5C 40.807,41.8421 31.807,40.1754 22.5,39.5C 24.2504,38.1302 26.2504,37.1302 28.5,36.5 Z"/></g>
<g><path style="opacity:1" fill="#6a356a" d="M 204.5,33.5 C 205.309,35.2922 205.809,37.2922 206,39.5C 207.271,38.1175 208.771,37.1175 210.5,36.5C 210.5,39.5 210.5,42.5 210.5,45.5C 209.399,46.5983 208.066,46.765 206.5,46C 205.045,44.3743 203.378,43.2076 201.5,42.5C 202.773,40.2872 203.773,37.9538 204.5,35.5C 204.5,34.8333 204.5,34.1667 204.5,33.5 Z"/></g>
<g><path style="opacity:1" fill="#110b15" d="M 49.5,44.5 C 49.1667,45.5 48.5,46.1667 47.5,46.5C 38.6952,46.3161 30.0286,45.1495 21.5,43C 22.8732,42.1251 24.3732,41.6251 26,41.5C 33.699,43.607 41.5323,44.607 49.5,44.5 Z"/></g>
<g><path style="opacity:1" fill="#792153" d="M 140.5,18.5 C 143.844,19.5075 147.177,20.5075 150.5,21.5C 150.842,22.3382 151.508,22.6716 152.5,22.5C 154.657,24.4121 156.991,26.0787 159.5,27.5C 158.167,27.5 156.833,27.5 155.5,27.5C 155.116,30.8958 153.782,33.8958 151.5,36.5C 151.198,39.0593 151.532,41.3926 152.5,43.5C 152.5,44.1667 152.5,44.8333 152.5,45.5C 151.272,46.3065 150.272,47.3065 149.5,48.5C 149.631,47.6236 149.298,46.9569 148.5,46.5C 147.21,48.792 145.543,50.792 143.5,52.5C 141.929,51.6906 140.262,51.3573 138.5,51.5C 137.609,50.8902 136.609,50.5569 135.5,50.5C 140.017,48.9774 143.85,46.3107 147,42.5C 147.667,41.8333 147.667,41.1667 147,40.5C 141.782,44.8792 135.949,48.2126 129.5,50.5C 127.833,49.1667 126.167,49.1667 124.5,50.5C 122.852,49.1902 121.186,47.8569 119.5,46.5C 119.167,47.1667 118.833,47.8333 118.5,48.5C 117.14,47.8201 115.807,47.1534 114.5,46.5C 110.933,43.8906 107.267,41.5572 103.5,39.5C 109.282,40.1746 110.949,37.8413 108.5,32.5C 110.39,32.2965 111.89,32.9632 113,34.5C 113.414,34.0426 113.914,33.7093 114.5,33.5C 118.097,36.0597 122.43,37.8931 127.5,39C 126.044,39.4226 125.544,40.2559 126,41.5C 126.414,41.0426 126.914,40.7093 127.5,40.5C 129.173,42.0863 131.173,42.7529 133.5,42.5C 133.227,40.549 133.893,39.049 135.5,38C 134.5,37.6667 133.5,37.3333 132.5,37C 132.833,36.6667 133.167,36.3333 133.5,36C 137.527,35.6689 141.527,36.0023 145.5,37C 146.931,37.4652 148.097,38.2986 149,39.5C 148.087,36.3409 146.587,33.3409 144.5,30.5C 143.956,26.534 142.623,22.8674 140.5,19.5C 140.5,19.1667 140.5,18.8333 140.5,18.5 Z"/></g>
<g><path style="opacity:1" fill="#392e4b" d="M 152.5,22.5 C 155.054,23.6056 157.721,24.439 160.5,25C 165.323,28.3278 169.99,31.8278 174.5,35.5C 176.749,36.0798 178.415,37.4131 179.5,39.5C 183.508,42.186 187.175,45.3527 190.5,49C 193.881,49.9149 196.881,51.4149 199.5,53.5C 196.673,53.4162 194.006,52.7496 191.5,51.5C 181.229,43.025 170.563,35.025 159.5,27.5C 156.991,26.0787 154.657,24.4121 152.5,22.5 Z"/></g>
<g><path style="opacity:1" fill="#352d3e" d="M 210.5,5.5 C 219.484,8.00635 223.65,14.0063 223,23.5C 226.099,27.9339 230.099,31.2672 235,33.5C 236,36.5 237,39.5 238,42.5C 239.512,43.2567 240.846,44.2567 242,45.5C 242.731,47.8987 243.898,50.0653 245.5,52C 244.424,53.7261 244.257,55.5594 245,57.5C 248.274,62.4037 251.774,67.0704 255.5,71.5C 255.5,72.1667 255.5,72.8333 255.5,73.5C 251.733,78.0233 247.733,82.3566 243.5,86.5C 242.25,86.4226 241.417,85.756 241,84.5C 240.713,78.976 240.213,73.476 239.5,68C 240.885,64.3598 240.552,60.8598 238.5,57.5C 238.709,56.914 239.043,56.414 239.5,56C 238.019,55.0197 236.685,53.853 235.5,52.5C 233.871,47.7212 232.038,43.0545 230,38.5C 226.073,36.6362 222.906,33.9695 220.5,30.5C 219.034,29.653 218.2,28.3197 218,26.5C 217.667,24.1667 217.333,21.8333 217,19.5C 216.623,18.0577 215.79,17.0577 214.5,16.5C 213.551,12.6494 212.218,8.98269 210.5,5.5 Z"/></g>
<g><path style="opacity:1" fill="#a4455a" d="M 93.5,44.5 C 84.5802,46.4947 75.5802,48.4947 66.5,50.5C 66.5,50.1667 66.5,49.8333 66.5,49.5C 70.7996,48.061 75.1329,46.7277 79.5,45.5C 81.4147,45.7845 83.0813,45.4511 84.5,44.5C 87.2455,43.5308 90.0788,42.8641 93,42.5C 97.4355,42.4742 97.6022,43.1409 93.5,44.5 Z"/></g>
<g><path style="opacity:1" fill="#e36c72" d="M 192.5,38.5 C 193.167,38.5 193.833,38.5 194.5,38.5C 198.432,43.129 203.099,46.7956 208.5,49.5C 209.919,50.4511 211.585,50.7845 213.5,50.5C 213.5,50.8333 213.5,51.1667 213.5,51.5C 213.167,51.5 212.833,51.5 212.5,51.5C 211.833,51.5 211.167,51.5 210.5,51.5C 205.948,50.5576 201.948,48.5576 198.5,45.5C 196.374,43.146 194.374,40.8127 192.5,38.5 Z"/></g>
<g><path style="opacity:1" fill="#3b162b" d="M 22.5,39.5 C 31.807,40.1754 40.807,41.8421 49.5,44.5C 41.5323,44.607 33.699,43.607 26,41.5C 24.3732,41.6251 22.8732,42.1251 21.5,43C 30.0286,45.1495 38.6952,46.3161 47.5,46.5C 47.5,47.1667 47.1667,47.5 46.5,47.5C 42.5213,49.1541 38.5213,50.8208 34.5,52.5C 33.8333,52.1667 33.1667,51.8333 32.5,51.5C 27.4526,52.8572 22.7859,55.0238 18.5,58C 15.9776,62.0073 13.3109,65.8407 10.5,69.5C 10.1667,69.5 9.83333,69.5 9.5,69.5C 8.83333,69.5 8.16667,69.5 7.5,69.5C 10.6931,64.9701 14.0264,60.4701 17.5,56C 16.8333,55.3333 16.1667,55.3333 15.5,56C 12.0377,59.627 8.37103,63.127 4.5,66.5C 3.33727,64.4503 3.50394,62.4503 5,60.5C 10.094,54.5303 15.9273,49.3637 22.5,45C 21.9056,44.5357 21.2389,44.369 20.5,44.5C 19.8333,43.5 19.1667,42.5 18.5,41.5C 19.6049,40.3995 20.9382,39.7329 22.5,39.5 Z"/></g>
<g><path style="opacity:1" fill="#5a5786" d="M 179.5,39.5 C 180.833,39.5 182.167,39.5 183.5,39.5C 187.623,42.4906 192.123,44.824 197,46.5C 197.765,46.4301 198.265,46.0967 198.5,45.5C 201.948,48.5576 205.948,50.5576 210.5,51.5C 209.833,52.1667 209.167,52.8333 208.5,53.5C 205.833,53.5 203.167,53.5 200.5,53.5C 200.167,53.5 199.833,53.5 199.5,53.5C 196.881,51.4149 193.881,49.9149 190.5,49C 187.175,45.3527 183.508,42.186 179.5,39.5 Z"/></g>
<g><path style="opacity:1" fill="#c5acdb" d="M 212.5,28.5 C 213.404,29.209 213.737,30.209 213.5,31.5C 213.666,36.8437 213.499,42.1771 213,47.5C 211.951,49.1066 210.451,49.7733 208.5,49.5C 203.099,46.7956 198.432,43.129 194.5,38.5C 196.833,39.8333 199.167,41.1667 201.5,42.5C 203.378,43.2076 205.045,44.3743 206.5,46C 208.066,46.765 209.399,46.5983 210.5,45.5C 212.205,40.0967 212.872,34.43 212.5,28.5 Z"/></g>
<g><path style="opacity:1" fill="#a02d38" d="M 79.5,45.5 C 75.1329,46.7277 70.7996,48.061 66.5,49.5C 60.2794,49.9436 54.2794,51.277 48.5,53.5C 47.8843,52.7978 47.8843,51.7978 48.5,50.5C 49.5,50.1667 50.1667,49.5 50.5,48.5C 60.1741,47.8405 69.8408,46.8405 79.5,45.5 Z"/></g>
<g><path style="opacity:1" fill="#a9344f" d="M 135.5,50.5 C 133.347,51.5729 131.347,51.5729 129.5,50.5C 135.949,48.2126 141.782,44.8792 147,40.5C 147.667,41.1667 147.667,41.8333 147,42.5C 143.85,46.3107 140.017,48.9774 135.5,50.5 Z"/></g>
<g><path style="opacity:1" fill="#dbb498" d="M 152.5,37.5 C 155.167,40.8333 158.167,43.8333 161.5,46.5C 162.028,47.7206 162.695,48.8873 163.5,50C 168.715,54.0563 174.049,57.8896 179.5,61.5C 180.544,63.7676 180.711,66.1009 180,68.5C 177.894,65.8823 175.394,63.8823 172.5,62.5C 170.589,61.925 168.922,60.925 167.5,59.5C 163.693,54.8001 159.693,50.4667 155.5,46.5C 154.213,43.5939 153.213,40.5939 152.5,37.5 Z"/></g>
<g><path style="opacity:1" fill="#7a1e40" d="M 93.5,44.5 C 92.0474,45.8249 92.3808,46.6582 94.5,47C 93.3279,47.4186 92.3279,48.0853 91.5,49C 91.2014,50.073 91.2014,51.2397 91.5,52.5C 88.7038,53.3068 85.8705,54.3068 83,55.5C 82.6667,55.1667 82.3333,54.8333 82,54.5C 79.7911,55.92 77.7911,57.5867 76,59.5C 75.6667,59.1667 75.3333,58.8333 75,58.5C 72.6667,61.1667 70.3333,61.1667 68,58.5C 67.5172,59.448 67.3505,60.448 67.5,61.5C 72.5648,61.4721 73.2314,62.4721 69.5,64.5C 68.8333,64.8333 68.1667,65.1667 67.5,65.5C 65.4527,62.1388 62.4527,59.8055 58.5,58.5C 57.1851,57.5244 55.8518,56.5244 54.5,55.5C 58.0032,52.6061 62.0032,50.9394 66.5,50.5C 75.5802,48.4947 84.5802,46.4947 93.5,44.5 Z"/></g>
<g><path style="opacity:1" fill="#c79777" d="M 101.5,39.5 C 102.167,39.5 102.833,39.5 103.5,39.5C 107.267,41.5572 110.933,43.8906 114.5,46.5C 114.762,47.9778 114.429,49.3112 113.5,50.5C 112.391,49.4104 111.391,49.4104 110.5,50.5C 113.427,53.2557 115.76,56.4223 117.5,60C 117.164,61.0299 116.497,61.5299 115.5,61.5C 114.533,60.1938 113.199,59.5271 111.5,59.5C 108.739,52.0661 104.073,46.0661 97.5,41.5C 98.1834,39.8235 99.5168,39.1568 101.5,39.5 Z"/></g>
<g><path style="opacity:1" fill="#822b3d" d="M 169.5,48.5 C 171.783,48.6079 173.783,49.4412 175.5,51C 176.998,53.6637 178.998,55.8304 181.5,57.5C 181.5,58.1667 181.5,58.8333 181.5,59.5C 177.038,56.2807 173.038,52.614 169.5,48.5 Z"/></g>
<g><path style="opacity:1" fill="#24202e" d="M 212.5,-0.5 C 218.5,-0.5 224.5,-0.5 230.5,-0.5C 229.113,1.7843 228.113,4.2843 227.5,7C 228.551,9.68801 227.884,12.0213 225.5,14C 226.74,17.0989 227.74,20.2656 228.5,23.5C 230.963,23.7811 233.13,24.7811 235,26.5C 238.554,34.3825 243.887,40.7158 251,45.5C 252.049,43.8934 253.549,43.2267 255.5,43.5C 255.5,52.8333 255.5,62.1667 255.5,71.5C 251.774,67.0704 248.274,62.4037 245,57.5C 244.257,55.5594 244.424,53.7261 245.5,52C 243.898,50.0653 242.731,47.8987 242,45.5C 240.846,44.2567 239.512,43.2567 238,42.5C 237,39.5 236,36.5 235,33.5C 230.099,31.2672 226.099,27.9339 223,23.5C 223.65,14.0063 219.484,8.00635 210.5,5.5C 209.599,4.70951 208.932,3.70951 208.5,2.5C 210.23,1.97439 211.564,0.974395 212.5,-0.5 Z"/></g>
<g><path style="opacity:1" fill="#62372c" d="M 151.5,36.5 C 152.167,36.5 152.5,36.8333 152.5,37.5C 153.213,40.5939 154.213,43.5939 155.5,46.5C 155.343,47.8734 155.51,49.2068 156,50.5C 159.728,53.7385 163.561,56.7385 167.5,59.5C 168.922,60.925 170.589,61.925 172.5,62.5C 173.11,63.391 173.443,64.391 173.5,65.5C 166.643,61.8179 160.476,57.1512 155,51.5C 154.721,48.5432 153.887,45.8766 152.5,43.5C 151.532,41.3926 151.198,39.0593 151.5,36.5 Z"/></g>
<g><path style="opacity:1" fill="#a35d6e" d="M 66.5,49.5 C 66.5,49.8333 66.5,50.1667 66.5,50.5C 62.0032,50.9394 58.0032,52.6061 54.5,55.5C 55.8518,56.5244 57.1851,57.5244 58.5,58.5C 57.7494,59.5735 56.7494,59.7401 55.5,59C 52.8137,57.4242 50.4803,55.5909 48.5,53.5C 54.2794,51.277 60.2794,49.9436 66.5,49.5 Z"/></g>
<g><path style="opacity:1" fill="#794d39" d="M 97.5,41.5 C 104.073,46.0661 108.739,52.0661 111.5,59.5C 111.565,59.9382 111.399,60.2716 111,60.5C 109.758,59.1279 108.258,58.1279 106.5,57.5C 105.702,57.9569 105.369,58.6236 105.5,59.5C 104.167,58.1667 102.833,56.8333 101.5,55.5C 101.784,53.5853 101.451,51.9187 100.5,50.5C 100.737,49.209 100.404,48.209 99.5,47.5C 98.8333,45.5 98.1667,43.5 97.5,41.5 Z"/></g>
<g><path style="opacity:1" fill="#8a5745" d="M 155.5,46.5 C 159.693,50.4667 163.693,54.8001 167.5,59.5C 163.561,56.7385 159.728,53.7385 156,50.5C 155.51,49.2068 155.343,47.8734 155.5,46.5 Z"/></g>
<g><path style="opacity:1" fill="#ca3e57" d="M 149.5,48.5 C 148.676,51.7644 148.342,55.0977 148.5,58.5C 146.011,58.7022 143.677,58.2022 141.5,57C 142.451,56.2825 142.617,55.4491 142,54.5C 140.482,53.8366 139.315,52.8366 138.5,51.5C 140.262,51.3573 141.929,51.6906 143.5,52.5C 145.543,50.792 147.21,48.792 148.5,46.5C 149.298,46.9569 149.631,47.6236 149.5,48.5 Z"/></g>
<g><path style="opacity:1" fill="#ac397d" d="M 200.5,53.5 C 203.167,53.5 205.833,53.5 208.5,53.5C 207.676,56.7644 207.342,60.0977 207.5,63.5C 206.596,64.209 206.263,65.209 206.5,66.5C 203.46,62.7343 201.46,58.401 200.5,53.5 Z"/></g>
<g><path style="opacity:1" fill="#81262f" d="M 48.5,50.5 C 47.8843,51.7978 47.8843,52.7978 48.5,53.5C 50.4803,55.5909 52.8137,57.4242 55.5,59C 56.7494,59.7401 57.7494,59.5735 58.5,58.5C 62.4527,59.8055 65.4527,62.1388 67.5,65.5C 67.5,66.5 67.5,67.5 67.5,68.5C 65.7839,68.3713 64.1172,68.038 62.5,67.5C 61.0692,63.2766 58.0692,61.2766 53.5,61.5C 50.6276,59.6493 47.6276,57.9827 44.5,56.5C 45.3403,54.1475 46.6736,52.1475 48.5,50.5 Z"/></g>
<g><path style="opacity:1" fill="#44102a" d="M 46.5,47.5 C 45.2366,49.6964 44.2366,52.0297 43.5,54.5C 43.5427,55.4164 43.8761,56.0831 44.5,56.5C 47.6276,57.9827 50.6276,59.6493 53.5,61.5C 52.8614,62.0968 52.528,62.9302 52.5,64C 53.0077,65.8926 54.0077,67.3926 55.5,68.5C 55.9731,69.9063 56.9731,70.573 58.5,70.5C 56.9106,71.6211 55.2439,71.4544 53.5,70C 51.4701,68.1038 49.8034,65.9371 48.5,63.5C 46.0244,60.9309 43.5244,60.9309 41,63.5C 38.8635,61.8751 37.1968,62.2084 36,64.5C 35.6667,63.8333 35.3333,63.1667 35,62.5C 33.5728,64.7871 31.7394,65.1205 29.5,63.5C 26.9439,64.0512 24.6106,65.0512 22.5,66.5C 22.7093,67.086 23.0426,67.586 23.5,68C 22.2625,68.2321 21.2625,68.7321 20.5,69.5C 17.1667,69.5 13.8333,69.5 10.5,69.5C 13.3109,65.8407 15.9776,62.0073 18.5,58C 22.7859,55.0238 27.4526,52.8572 32.5,51.5C 33.1667,51.8333 33.8333,52.1667 34.5,52.5C 38.5213,50.8208 42.5213,49.1541 46.5,47.5 Z"/></g>
<g><path style="opacity:1" fill="#6c203d" d="M 99.5,47.5 C 100.404,48.209 100.737,49.209 100.5,50.5C 100.5,52.1667 100.5,53.8333 100.5,55.5C 96.5421,58.2854 92.7088,61.2854 89,64.5C 82.7313,63.2543 76.2313,63.2543 69.5,64.5C 73.2314,62.4721 72.5648,61.4721 67.5,61.5C 67.3505,60.448 67.5172,59.448 68,58.5C 70.3333,61.1667 72.6667,61.1667 75,58.5C 75.3333,58.8333 75.6667,59.1667 76,59.5C 77.7911,57.5867 79.7911,55.92 82,54.5C 82.3333,54.8333 82.6667,55.1667 83,55.5C 85.8705,54.3068 88.7038,53.3068 91.5,52.5C 92.7498,52.4226 93.5831,51.756 94,50.5C 97.1677,53.9702 99.001,52.9702 99.5,47.5 Z"/></g>
<g><path style="opacity:1" fill="#3b201b" d="M 152.5,43.5 C 153.887,45.8766 154.721,48.5432 155,51.5C 160.476,57.1512 166.643,61.8179 173.5,65.5C 173.5,65.8333 173.5,66.1667 173.5,66.5C 172.417,66.4606 171.417,66.1272 170.5,65.5C 169.702,65.9569 169.369,66.6236 169.5,67.5C 167.037,65.5389 164.703,63.3722 162.5,61C 158.299,60.926 154.299,60.0927 150.5,58.5C 149.443,56.2337 149.943,54.2337 152,52.5C 152.497,50.1902 152.663,47.8568 152.5,45.5C 152.5,44.8333 152.5,44.1667 152.5,43.5 Z"/></g>
<g><path style="opacity:1" fill="#de9fbe" d="M 186.5,56.5 C 187.055,60.0122 186.388,63.0122 184.5,65.5C 183.877,63.2895 182.877,61.2895 181.5,59.5C 181.5,58.8333 181.5,58.1667 181.5,57.5C 180.817,46.1432 182.484,45.8098 186.5,56.5 Z"/></g>
<g><path style="opacity:1" fill="#593b38" d="M 20.5,44.5 C 21.2389,44.369 21.9056,44.5357 22.5,45C 15.9273,49.3637 10.094,54.5303 5,60.5C 3.50394,62.4503 3.33727,64.4503 4.5,66.5C 8.37103,63.127 12.0377,59.627 15.5,56C 16.1667,55.3333 16.8333,55.3333 17.5,56C 14.0264,60.4701 10.6931,64.9701 7.5,69.5C 4.31894,70.3485 1.65227,72.0152 -0.5,74.5C -0.5,69.8333 -0.5,65.1667 -0.5,60.5C 6.5,55.1667 13.5,49.8333 20.5,44.5 Z"/></g>
<g><path style="opacity:1" fill="#1a1522" d="M 53.5,61.5 C 58.0692,61.2766 61.0692,63.2766 62.5,67.5C 62.5,67.8333 62.5,68.1667 62.5,68.5C 60.3382,69.4171 58.0048,69.4171 55.5,68.5C 54.0077,67.3926 53.0077,65.8926 52.5,64C 52.528,62.9302 52.8614,62.0968 53.5,61.5 Z"/></g>
<g><path style="opacity:1" fill="#5f332a" d="M 152.5,45.5 C 152.663,47.8568 152.497,50.1902 152,52.5C 149.943,54.2337 149.443,56.2337 150.5,58.5C 154.299,60.0927 158.299,60.926 162.5,61C 164.703,63.3722 167.037,65.5389 169.5,67.5C 170.512,69.8897 172.179,71.5563 174.5,72.5C 175.167,72.1667 175.833,71.8333 176.5,71.5C 175.873,70.5832 175.539,69.5832 175.5,68.5C 180.773,71.7366 183.439,76.4032 183.5,82.5C 183.649,83.552 183.483,84.552 183,85.5C 177.866,80.5126 172.366,76.1793 166.5,72.5C 167.93,70.5453 167.597,68.8786 165.5,67.5C 164.383,64.7209 163.217,64.3876 162,66.5C 161.601,66.2716 161.435,65.9382 161.5,65.5C 160.056,62.1102 157.39,60.7768 153.5,61.5C 153.657,62.8734 153.49,64.2068 153,65.5C 151.277,63.2833 149.777,60.95 148.5,58.5C 148.342,55.0977 148.676,51.7644 149.5,48.5C 150.272,47.3065 151.272,46.3065 152.5,45.5 Z"/></g>
<g><path style="opacity:1" fill="#5b1f34" d="M 100.5,55.5 C 99.1628,59.6743 97.1628,63.5077 94.5,67C 89.3964,68.793 84.2297,68.9597 79,67.5C 76.0828,69.1841 73.2494,69.8507 70.5,69.5C 71.6053,70.8924 72.9386,72.059 74.5,73C 82.2069,76.1707 90.2069,77.1707 98.5,76C 100.437,75.8784 101.77,75.045 102.5,73.5C 103.833,74.1667 104.833,75.1667 105.5,76.5C 101.479,77.5031 97.4793,78.5031 93.5,79.5C 86.7538,78.1468 80.0871,76.4801 73.5,74.5C 70.0283,72.2619 66.3617,70.2619 62.5,68.5C 62.5,68.1667 62.5,67.8333 62.5,67.5C 64.1172,68.038 65.7839,68.3713 67.5,68.5C 67.5,67.5 67.5,66.5 67.5,65.5C 68.1667,65.1667 68.8333,64.8333 69.5,64.5C 76.2313,63.2543 82.7313,63.2543 89,64.5C 92.7088,61.2854 96.5421,58.2854 100.5,55.5 Z"/></g>
<g><path style="opacity:1" fill="#9e3562" d="M 191.5,51.5 C 194.006,52.7496 196.673,53.4162 199.5,53.5C 199.833,53.5 200.167,53.5 200.5,53.5C 201.46,58.401 203.46,62.7343 206.5,66.5C 206.657,67.8734 206.49,69.2068 206,70.5C 205.722,69.5842 205.222,68.9175 204.5,68.5C 202.992,66.8185 201.992,64.8185 201.5,62.5C 200.791,61.596 199.791,61.2627 198.5,61.5C 197.91,60.234 197.41,58.9007 197,57.5C 197.499,61.5138 197.333,65.5138 196.5,69.5C 192.851,71.251 190.185,70.251 188.5,66.5C 188.167,66.6667 187.833,66.8333 187.5,67C 188.582,68.3297 189.249,69.8297 189.5,71.5C 187.833,69.5 186.167,67.5 184.5,65.5C 186.388,63.0122 187.055,60.0122 186.5,56.5C 187.458,56.9528 188.292,57.6195 189,58.5C 189.902,56.0731 190.736,53.7397 191.5,51.5 Z"/></g>
<g><path style="opacity:1" fill="#d9beb2" d="M 210.5,51.5 C 211.167,51.5 211.833,51.5 212.5,51.5C 210.494,55.1985 209.994,59.1985 211,63.5C 212.47,59.6224 213.303,55.6224 213.5,51.5C 214.5,51.5 215.5,51.5 216.5,51.5C 217.67,59.0077 215.337,65.0077 209.5,69.5C 210.522,70.354 211.355,71.354 212,72.5C 212.498,75.4816 212.665,78.4816 212.5,81.5C 212.038,86.093 210.705,90.4263 208.5,94.5C 207.078,95.925 205.411,96.925 203.5,97.5C 203.5,94.5 203.5,91.5 203.5,88.5C 204.29,89.6085 204.79,90.9419 205,92.5C 207.146,89.8742 208.479,86.8742 209,83.5C 208.84,76.8289 208.34,70.1622 207.5,63.5C 207.342,60.0977 207.676,56.7644 208.5,53.5C 209.167,52.8333 209.833,52.1667 210.5,51.5 Z"/></g>
<g><path style="opacity:1" fill="#94695f" d="M 212.5,51.5 C 212.833,51.5 213.167,51.5 213.5,51.5C 213.303,55.6224 212.47,59.6224 211,63.5C 209.994,59.1985 210.494,55.1985 212.5,51.5 Z"/></g>
<g><path style="opacity:1" fill="#5d4f66" d="M 214.5,16.5 C 215.79,17.0577 216.623,18.0577 217,19.5C 217.333,21.8333 217.667,24.1667 218,26.5C 218.2,28.3197 219.034,29.653 220.5,30.5C 222.43,34.5489 223.597,38.8823 224,43.5C 225.99,46.4883 228.323,49.1549 231,51.5C 231.217,54.488 232.217,57.1547 234,59.5C 234.207,63.0894 234.707,66.5894 235.5,70C 233.601,74.734 232.934,79.5673 233.5,84.5C 234.414,86.6641 235.581,88.6641 237,90.5C 237.308,89.6919 237.808,89.0253 238.5,88.5C 239.417,89.1272 240.417,89.4606 241.5,89.5C 241.167,90.1667 240.833,90.8333 240.5,91.5C 239.167,92.1667 238.167,93.1667 237.5,94.5C 236.504,94.5858 235.671,94.2524 235,93.5C 233.938,90.6588 232.604,87.9921 231,85.5C 230.36,78.878 230.86,72.378 232.5,66C 231.751,64.2663 231.251,62.433 231,60.5C 230.667,60.8333 230.333,61.1667 230,61.5C 229.667,58.8333 229.333,56.1667 229,53.5C 225.244,48.2691 221.411,43.2691 217.5,38.5C 217.018,32.3397 216.351,26.3397 215.5,20.5C 215.167,19.1667 214.833,17.8333 214.5,16.5 Z"/></g>
<g><path style="opacity:1" fill="#4b2a22" d="M 101.5,55.5 C 102.833,56.8333 104.167,58.1667 105.5,59.5C 108.747,63.6591 111.747,67.9924 114.5,72.5C 115.543,75.0291 114.543,75.8625 111.5,75C 109.237,73.383 107.237,71.5497 105.5,69.5C 103.56,65.0128 102.227,60.3461 101.5,55.5 Z"/></g>
<g><path style="opacity:1" fill="#ec919d" d="M 198.5,61.5 C 199.791,61.2627 200.791,61.596 201.5,62.5C 199.554,67.3958 198.887,72.7291 199.5,78.5C 199.167,78.5 198.833,78.5 198.5,78.5C 198.5,72.8333 198.5,67.1667 198.5,61.5 Z"/></g>
<g><path style="opacity:1" fill="#4e1c32" d="M 100.5,50.5 C 101.451,51.9187 101.784,53.5853 101.5,55.5C 102.227,60.3461 103.56,65.0128 105.5,69.5C 103.926,68.0158 102.593,66.3492 101.5,64.5C 99.8883,63.445 98.555,63.945 97.5,66C 98.6227,68.939 100.289,71.439 102.5,73.5C 101.77,75.045 100.437,75.8784 98.5,76C 90.2069,77.1707 82.2069,76.1707 74.5,73C 72.9386,72.059 71.6053,70.8924 70.5,69.5C 73.2494,69.8507 76.0828,69.1841 79,67.5C 84.2297,68.9597 89.3964,68.793 94.5,67C 97.1628,63.5077 99.1628,59.6743 100.5,55.5C 100.5,53.8333 100.5,52.1667 100.5,50.5 Z"/></g>
<g><path style="opacity:1" fill="#956157" d="M 129.5,50.5 C 131.347,51.5729 133.347,51.5729 135.5,50.5C 136.609,50.5569 137.609,50.8902 138.5,51.5C 139.315,52.8366 140.482,53.8366 142,54.5C 142.617,55.4491 142.451,56.2825 141.5,57C 143.677,58.2022 146.011,58.7022 148.5,58.5C 149.777,60.95 151.277,63.2833 153,65.5C 153.49,64.2068 153.657,62.8734 153.5,61.5C 157.39,60.7768 160.056,62.1102 161.5,65.5C 160.167,64.8333 158.833,64.1667 157.5,63.5C 156.791,62.596 155.791,62.2627 154.5,62.5C 154.216,64.8771 154.216,67.0438 154.5,69C 153.264,70.0848 151.931,70.9181 150.5,71.5C 148.716,70.044 146.716,69.044 144.5,68.5C 144.671,70.9928 143.671,72.8261 141.5,74C 138.34,73.7982 135.34,73.1315 132.5,72C 133.5,73 134.5,74 135.5,75C 138.5,75.3333 141.5,75.6667 144.5,76C 144.167,76.3333 143.833,76.6667 143.5,77C 139.09,77.3167 134.757,76.8167 130.5,75.5C 129.596,76.209 129.263,77.209 129.5,78.5C 127.488,79.0138 125.488,79.1805 123.5,79C 121.38,76.5913 119.38,74.0913 117.5,71.5C 116.583,72.1272 115.583,72.4606 114.5,72.5C 111.747,67.9924 108.747,63.6591 105.5,59.5C 105.369,58.6236 105.702,57.9569 106.5,57.5C 108.258,58.1279 109.758,59.1279 111,60.5C 111.399,60.2716 111.565,59.9382 111.5,59.5C 113.199,59.5271 114.533,60.1938 115.5,61.5C 118.028,62.5077 120.195,64.1743 122,66.5C 122,65.1667 122,63.8333 122,62.5C 123.984,65.4833 126.317,68.15 129,70.5C 129.945,70.0946 130.612,69.428 131,68.5C 135.038,70.0298 135.538,69.1964 132.5,66C 133.793,65.51 135.127,65.3433 136.5,65.5C 136.649,64.448 136.483,63.448 136,62.5C 131.752,58.8151 127.919,54.8151 124.5,50.5C 126.167,49.1667 127.833,49.1667 129.5,50.5 Z"/></g>
<g><path style="opacity:1" fill="#b38479" d="M 114.5,46.5 C 115.807,47.1534 117.14,47.8201 118.5,48.5C 118.833,47.8333 119.167,47.1667 119.5,46.5C 121.186,47.8569 122.852,49.1902 124.5,50.5C 127.919,54.8151 131.752,58.8151 136,62.5C 136.483,63.448 136.649,64.448 136.5,65.5C 135.127,65.3433 133.793,65.51 132.5,66C 135.538,69.1964 135.038,70.0298 131,68.5C 130.612,69.428 129.945,70.0946 129,70.5C 126.317,68.15 123.984,65.4833 122,62.5C 122,63.8333 122,65.1667 122,66.5C 120.195,64.1743 118.028,62.5077 115.5,61.5C 116.497,61.5299 117.164,61.0299 117.5,60C 115.76,56.4223 113.427,53.2557 110.5,50.5C 111.391,49.4104 112.391,49.4104 113.5,50.5C 114.429,49.3112 114.762,47.9778 114.5,46.5 Z"/></g>
<g><path style="opacity:1" fill="#bb6018" d="M 157.5,63.5 C 158.833,64.1667 160.167,64.8333 161.5,65.5C 161.435,65.9382 161.601,66.2716 162,66.5C 163.217,64.3876 164.383,64.7209 165.5,67.5C 164.089,69.539 162.089,70.539 159.5,70.5C 156.414,68.9044 155.747,66.5711 157.5,63.5 Z"/></g>
<g><path style="opacity:1" fill="#170c0a" d="M 173.5,66.5 C 174.5,66.8333 175.167,67.5 175.5,68.5C 175.539,69.5832 175.873,70.5832 176.5,71.5C 175.833,71.8333 175.167,72.1667 174.5,72.5C 172.179,71.5563 170.512,69.8897 169.5,67.5C 169.369,66.6236 169.702,65.9569 170.5,65.5C 171.417,66.1272 172.417,66.4606 173.5,66.5 Z"/></g>
<g><path style="opacity:1" fill="#5c333c" d="M 9.5,70.5 C 9.5,70.1667 9.5,69.8333 9.5,69.5C 9.83333,69.5 10.1667,69.5 10.5,69.5C 13.8333,69.5 17.1667,69.5 20.5,69.5C 24.5959,71.0231 28.9292,72.0231 33.5,72.5C 33.0831,73.1239 32.4164,73.4573 31.5,73.5C 24.2093,72.0666 16.876,71.0666 9.5,70.5 Z"/></g>
<g><path style="opacity:1" fill="#4e4458" d="M 220.5,30.5 C 222.906,33.9695 226.073,36.6362 230,38.5C 232.038,43.0545 233.871,47.7212 235.5,52.5C 236.685,53.853 238.019,55.0197 239.5,56C 239.043,56.414 238.709,56.914 238.5,57.5C 240.552,60.8598 240.885,64.3598 239.5,68C 240.213,73.476 240.713,78.976 241,84.5C 241.417,85.756 242.25,86.4226 243.5,86.5C 242.833,87.5 242.167,88.5 241.5,89.5C 240.417,89.4606 239.417,89.1272 238.5,88.5C 237.808,89.0253 237.308,89.6919 237,90.5C 235.581,88.6641 234.414,86.6641 233.5,84.5C 232.934,79.5673 233.601,74.734 235.5,70C 234.707,66.5894 234.207,63.0894 234,59.5C 232.217,57.1547 231.217,54.488 231,51.5C 228.323,49.1549 225.99,46.4883 224,43.5C 223.597,38.8823 222.43,34.5489 220.5,30.5 Z"/></g>
<g><path style="opacity:1" fill="#57302a" d="M 101.5,64.5 C 100.535,65.7211 100.702,67.0544 102,68.5C 104.5,71 107,73.5 109.5,76C 112.684,76.7542 115.351,78.2542 117.5,80.5C 116.833,80.5 116.167,80.5 115.5,80.5C 112.167,79.1667 108.833,77.8333 105.5,76.5C 104.833,75.1667 103.833,74.1667 102.5,73.5C 100.289,71.439 98.6227,68.939 97.5,66C 98.555,63.945 99.8883,63.445 101.5,64.5 Z"/></g>
<g><path style="opacity:1" fill="#d9b395" d="M 165.5,67.5 C 167.597,68.8786 167.93,70.5453 166.5,72.5C 164.473,72.6621 162.473,72.4955 160.5,72C 159.944,71.6174 159.611,71.1174 159.5,70.5C 162.089,70.539 164.089,69.539 165.5,67.5 Z"/></g>
<g><path style="opacity:1" fill="#ebd6d2" d="M 201.5,62.5 C 201.992,64.8185 202.992,66.8185 204.5,68.5C 203.127,71.8143 202.127,75.3143 201.5,79C 202.483,82.1118 203.15,85.2785 203.5,88.5C 203.5,91.5 203.5,94.5 203.5,97.5C 203.052,100.682 201.718,103.349 199.5,105.5C 199.715,103.821 199.048,102.821 197.5,102.5C 198.11,101.609 198.443,100.609 198.5,99.5C 199.117,99.3893 199.617,99.056 200,98.5C 200.495,96.5273 200.662,94.5273 200.5,92.5C 200.774,87.737 200.441,83.0704 199.5,78.5C 198.887,72.7291 199.554,67.3958 201.5,62.5 Z"/></g>
<g><path style="opacity:1" fill="#c94561" d="M 198.5,61.5 C 198.5,67.1667 198.5,72.8333 198.5,78.5C 196.408,75.083 193.408,72.7497 189.5,71.5C 189.249,69.8297 188.582,68.3297 187.5,67C 187.833,66.8333 188.167,66.6667 188.5,66.5C 190.185,70.251 192.851,71.251 196.5,69.5C 197.333,65.5138 197.499,61.5138 197,57.5C 197.41,58.9007 197.91,60.234 198.5,61.5 Z"/></g>
<g><path style="opacity:1" fill="#78697f" d="M 217.5,44.5 C 223.966,49.1548 227.799,55.4881 229,63.5C 228.992,70.385 228.159,77.2183 226.5,84C 226.961,87.5538 228.294,90.7204 230.5,93.5C 229.167,95.5 227.5,97.1667 225.5,98.5C 226.698,98.9396 227.865,99.273 229,99.5C 230.584,98.1387 232.418,97.472 234.5,97.5C 233.833,98.8333 233.167,100.167 232.5,101.5C 231.167,102.5 229.833,103.5 228.5,104.5C 225.862,105.492 223.195,106.492 220.5,107.5C 218.127,104.545 218.127,101.545 220.5,98.5C 222.611,96.7829 224.278,94.6162 225.5,92C 224.402,89.5398 223.402,87.0398 222.5,84.5C 223.79,81.3477 223.79,78.1811 222.5,75C 223.403,72.2222 224.069,69.3889 224.5,66.5C 223.125,62.2889 221.958,57.9555 221,53.5C 218.169,51.1623 217.003,48.1623 217.5,44.5 Z"/></g>
<g><path style="opacity:1" fill="#4e3977" d="M 9.5,70.5 C 16.876,71.0666 24.2093,72.0666 31.5,73.5C 32.4164,73.4573 33.0831,73.1239 33.5,72.5C 35.8525,73.3403 37.8525,74.6736 39.5,76.5C 41.4378,80.4424 44.1044,83.109 47.5,84.5C 46.8333,85.1667 46.1667,85.8333 45.5,86.5C 46.1005,89.6072 46.2671,92.6072 46,95.5C 44.4741,90.373 43.4741,90.373 43,95.5C 41.6439,94.6198 40.1439,94.2865 38.5,94.5C 33.0019,93.3928 28.0019,91.2261 23.5,88C 19.016,87.1294 14.6827,85.7961 10.5,84C 8.19018,83.5034 5.85684,83.3367 3.5,83.5C 2.79105,82.596 1.79105,82.2627 0.5,82.5C 2.03972,77.4273 5.03972,73.4273 9.5,70.5 Z"/></g>
<g><path style="opacity:1" fill="#4f172e" d="M 58.5,70.5 C 62.2407,69.5985 64.2407,70.9319 64.5,74.5C 66.4672,74.2606 68.3005,74.5939 70,75.5C 70.5894,78.7904 69.0894,80.2904 65.5,80C 66.1667,80.6667 66.8333,81.3333 67.5,82C 70.1572,82.1747 72.8239,82.0081 75.5,81.5C 75.3433,82.8734 75.51,84.2068 76,85.5C 79.9693,87.6468 83.4693,90.3134 86.5,93.5C 86.5654,93.9382 86.3988,94.2716 86,94.5C 82.4079,90.8021 78.7413,90.8021 75,94.5C 74.6667,94.1667 74.3333,93.8333 74,93.5C 72.8118,94.5634 72.3118,95.8967 72.5,97.5C 63.2569,87.562 52.2569,80.562 39.5,76.5C 37.8525,74.6736 35.8525,73.3403 33.5,72.5C 28.9292,72.0231 24.5959,71.0231 20.5,69.5C 21.2625,68.7321 22.2625,68.2321 23.5,68C 23.0426,67.586 22.7093,67.086 22.5,66.5C 24.6106,65.0512 26.9439,64.0512 29.5,63.5C 31.7394,65.1205 33.5728,64.7871 35,62.5C 35.3333,63.1667 35.6667,63.8333 36,64.5C 37.1968,62.2084 38.8635,61.8751 41,63.5C 43.5244,60.9309 46.0244,60.9309 48.5,63.5C 49.8034,65.9371 51.4701,68.1038 53.5,70C 55.2439,71.4544 56.9106,71.6211 58.5,70.5 Z"/></g>
<g><path style="opacity:1" fill="#ad7a66" d="M 150.5,71.5 C 151.145,72.8118 152.145,73.8118 153.5,74.5C 153.729,69.3089 155.395,69.3089 158.5,74.5C 158.137,75.1835 157.804,75.8501 157.5,76.5C 155.797,75.3398 155.131,76.0065 155.5,78.5C 152.951,78.6126 150.618,77.9459 148.5,76.5C 148.167,76.6667 147.833,76.8333 147.5,77C 148.5,77.8333 149.5,78.6667 150.5,79.5C 147.724,80.5148 145.057,81.5148 142.5,82.5C 142.694,84.9118 144.027,85.9118 146.5,85.5C 145.081,86.4511 143.415,86.7845 141.5,86.5C 141.5,85.5 141.5,84.5 141.5,83.5C 137.099,84.9017 132.765,84.7351 128.5,83C 132.167,82.6667 135.833,82.3333 139.5,82C 140.167,81 140.833,80 141.5,79C 137.321,79.0642 133.655,77.8976 130.5,75.5C 134.757,76.8167 139.09,77.3167 143.5,77C 143.833,76.6667 144.167,76.3333 144.5,76C 141.5,75.6667 138.5,75.3333 135.5,75C 134.5,74 133.5,73 132.5,72C 135.34,73.1315 138.34,73.7982 141.5,74C 143.671,72.8261 144.671,70.9928 144.5,68.5C 146.716,69.044 148.716,70.044 150.5,71.5 Z"/></g>
<g><path style="opacity:1" fill="#72636f" d="M 7.5,69.5 C 8.16667,69.5 8.83333,69.5 9.5,69.5C 9.5,69.8333 9.5,70.1667 9.5,70.5C 5.03972,73.4273 2.03972,77.4273 0.5,82.5C 1.79105,82.2627 2.79105,82.596 3.5,83.5C 2.16667,83.5 0.833333,83.5 -0.5,83.5C -0.5,80.5 -0.5,77.5 -0.5,74.5C 1.65227,72.0152 4.31894,70.3485 7.5,69.5 Z"/></g>
<g><path style="opacity:1" fill="#b07a6d" d="M 161.5,46.5 C 164.112,47.3705 166.779,48.0372 169.5,48.5C 173.038,52.614 177.038,56.2807 181.5,59.5C 182.877,61.2895 183.877,63.2895 184.5,65.5C 186.167,67.5 187.833,69.5 189.5,71.5C 193.408,72.7497 196.408,75.083 198.5,78.5C 198.833,78.5 199.167,78.5 199.5,78.5C 200.441,83.0704 200.774,87.737 200.5,92.5C 197.272,91.5863 193.939,91.2529 190.5,91.5C 190.238,89.4362 189.071,88.1029 187,87.5C 186.667,88.1667 186.333,88.8333 186,89.5C 185.667,87.5 185.333,85.5 185,83.5C 184.617,82.944 184.117,82.6107 183.5,82.5C 183.439,76.4032 180.773,71.7366 175.5,68.5C 175.167,67.5 174.5,66.8333 173.5,66.5C 173.5,66.1667 173.5,65.8333 173.5,65.5C 173.443,64.391 173.11,63.391 172.5,62.5C 175.394,63.8823 177.894,65.8823 180,68.5C 180.711,66.1009 180.544,63.7676 179.5,61.5C 174.049,57.8896 168.715,54.0563 163.5,50C 162.695,48.8873 162.028,47.7206 161.5,46.5 Z"/></g>
<g><path style="opacity:1" fill="#6c5d74" d="M 217.5,38.5 C 221.411,43.2691 225.244,48.2691 229,53.5C 229.333,56.1667 229.667,58.8333 230,61.5C 230.333,61.1667 230.667,60.8333 231,60.5C 231.251,62.433 231.751,64.2663 232.5,66C 230.86,72.378 230.36,78.878 231,85.5C 232.604,87.9921 233.938,90.6588 235,93.5C 235.671,94.2524 236.504,94.5858 237.5,94.5C 236.833,95.8333 235.833,96.8333 234.5,97.5C 232.418,97.472 230.584,98.1387 229,99.5C 227.865,99.273 226.698,98.9396 225.5,98.5C 227.5,97.1667 229.167,95.5 230.5,93.5C 228.294,90.7204 226.961,87.5538 226.5,84C 228.159,77.2183 228.992,70.385 229,63.5C 227.799,55.4881 223.966,49.1548 217.5,44.5C 217.5,42.5 217.5,40.5 217.5,38.5 Z"/></g>
<g><path style="opacity:1" fill="#a56a53" d="M 157.5,63.5 C 155.747,66.5711 156.414,68.9044 159.5,70.5C 159.611,71.1174 159.944,71.6174 160.5,72C 162.473,72.4955 164.473,72.6621 166.5,72.5C 172.366,76.1793 177.866,80.5126 183,85.5C 183.483,84.552 183.649,83.552 183.5,82.5C 184.117,82.6107 184.617,82.944 185,83.5C 185.333,85.5 185.667,87.5 186,89.5C 186.333,88.8333 186.667,88.1667 187,87.5C 189.071,88.1029 190.238,89.4362 190.5,91.5C 189.549,92.9187 189.216,94.5853 189.5,96.5C 190.59,97.8571 191.924,98.8571 193.5,99.5C 190.715,100.084 189.048,99.0838 188.5,96.5C 188.005,94.5183 187.505,92.5183 187,90.5C 186.333,91.8333 185.667,91.8333 185,90.5C 184.667,89.1667 184.333,87.8333 184,86.5C 182.701,86.9662 181.201,86.9662 179.5,86.5C 177.45,86.0388 175.45,85.3721 173.5,84.5C 171.186,81.1672 168.186,79.8339 164.5,80.5C 161.968,79.4043 159.635,78.0709 157.5,76.5C 157.804,75.8501 158.137,75.1835 158.5,74.5C 155.395,69.3089 153.729,69.3089 153.5,74.5C 152.145,73.8118 151.145,72.8118 150.5,71.5C 151.931,70.9181 153.264,70.0848 154.5,69C 154.216,67.0438 154.216,64.8771 154.5,62.5C 155.791,62.2627 156.791,62.596 157.5,63.5 Z"/></g>
<g><path style="opacity:1" fill="#8f7b91" d="M 215.5,20.5 C 216.351,26.3397 217.018,32.3397 217.5,38.5C 217.5,40.5 217.5,42.5 217.5,44.5C 217.003,48.1623 218.169,51.1623 221,53.5C 221.958,57.9555 223.125,62.2889 224.5,66.5C 224.069,69.3889 223.403,72.2222 222.5,75C 223.79,78.1811 223.79,81.3477 222.5,84.5C 223.402,87.0398 224.402,89.5398 225.5,92C 224.278,94.6162 222.611,96.7829 220.5,98.5C 214.568,98.5661 209.568,101.066 205.5,106C 203.19,106.497 200.857,106.663 198.5,106.5C 197.167,106.5 195.833,106.5 194.5,106.5C 195.919,105.549 197.585,105.216 199.5,105.5C 201.718,103.349 203.052,100.682 203.5,97.5C 205.411,96.925 207.078,95.925 208.5,94.5C 213.096,90.9743 215.263,86.3076 215,80.5C 214.329,81.2524 213.496,81.5858 212.5,81.5C 212.665,78.4816 212.498,75.4816 212,72.5C 211.355,71.354 210.522,70.354 209.5,69.5C 215.337,65.0077 217.67,59.0077 216.5,51.5C 215.5,51.5 214.5,51.5 213.5,51.5C 213.5,51.1667 213.5,50.8333 213.5,50.5C 214.294,47.198 214.96,43.8647 215.5,40.5C 215.5,33.8333 215.5,27.1667 215.5,20.5 Z"/></g>
<g><path style="opacity:1" fill="#774a39" d="M 101.5,64.5 C 102.593,66.3492 103.926,68.0158 105.5,69.5C 107.237,71.5497 109.237,73.383 111.5,75C 114.543,75.8625 115.543,75.0291 114.5,72.5C 115.583,72.4606 116.583,72.1272 117.5,71.5C 119.38,74.0913 121.38,76.5913 123.5,79C 125.488,79.1805 127.488,79.0138 129.5,78.5C 129.263,77.209 129.596,76.209 130.5,75.5C 133.655,77.8976 137.321,79.0642 141.5,79C 140.833,80 140.167,81 139.5,82C 135.833,82.3333 132.167,82.6667 128.5,83C 132.765,84.7351 137.099,84.9017 141.5,83.5C 141.5,84.5 141.5,85.5 141.5,86.5C 137.997,86.1289 134.997,87.1289 132.5,89.5C 127.774,86.2928 122.774,83.2928 117.5,80.5C 115.351,78.2542 112.684,76.7542 109.5,76C 107,73.5 104.5,71 102,68.5C 100.702,67.0544 100.535,65.7211 101.5,64.5 Z"/></g>
<g><path style="opacity:1" fill="#1d120f" d="M 105.5,76.5 C 108.833,77.8333 112.167,79.1667 115.5,80.5C 117.151,81.9701 118.985,83.3034 121,84.5C 121.612,86.2373 120.946,87.2373 119,87.5C 117.121,85.9872 114.954,85.3205 112.5,85.5C 112.805,93.2599 112.138,100.927 110.5,108.5C 106.303,111.237 103.636,115.071 102.5,120C 101.022,121.478 99.5218,122.978 98,124.5C 96.3196,123.397 94.8196,123.73 93.5,125.5C 92.0256,124.564 91.0256,123.23 90.5,121.5C 92.5517,118.464 94.5517,115.464 96.5,112.5C 96.3367,110.143 96.5034,107.81 97,105.5C 98.9334,102.107 100.1,98.4405 100.5,94.5C 102.311,89.2213 102.644,83.888 101.5,78.5C 99.1964,79.1632 96.8631,79.8298 94.5,80.5C 93.8933,80.3764 93.56,80.0431 93.5,79.5C 97.4793,78.5031 101.479,77.5031 105.5,76.5 Z"/></g>
<g><path style="opacity:1" fill="#29152c" d="M 73.5,74.5 C 80.0871,76.4801 86.7538,78.1468 93.5,79.5C 93.56,80.0431 93.8933,80.3764 94.5,80.5C 96.8631,79.8298 99.1964,79.1632 101.5,78.5C 101.143,80.5891 100.477,82.5891 99.5,84.5C 98.914,84.2907 98.414,83.9574 98,83.5C 97,84.8333 96,86.1667 95,87.5C 94.6667,86.8333 94.3333,86.1667 94,85.5C 93.5814,86.6721 92.9147,87.6721 92,88.5C 90.3333,87.5 88.6667,86.5 87,85.5C 86.6667,86.1667 86.3333,86.8333 86,87.5C 83.1425,83.6225 79.3091,80.9558 74.5,79.5C 73.8333,78.1667 73.1667,76.8333 72.5,75.5C 72.6236,74.8933 72.9569,74.56 73.5,74.5 Z"/></g>
<g><path style="opacity:1" fill="#996a60" d="M 207.5,63.5 C 208.34,70.1622 208.84,76.8289 209,83.5C 208.479,86.8742 207.146,89.8742 205,92.5C 204.79,90.9419 204.29,89.6085 203.5,88.5C 203.15,85.2785 202.483,82.1118 201.5,79C 202.127,75.3143 203.127,71.8143 204.5,68.5C 205.222,68.9175 205.722,69.5842 206,70.5C 206.49,69.2068 206.657,67.8734 206.5,66.5C 206.263,65.209 206.596,64.209 207.5,63.5 Z"/></g>
<g><path style="opacity:1" fill="#817a65" d="M 255.5,73.5 C 255.5,75.5 255.5,77.5 255.5,79.5C 250.111,86.2149 244.444,92.5482 238.5,98.5C 238.4,95.8915 239.067,93.5582 240.5,91.5C 240.833,90.8333 241.167,90.1667 241.5,89.5C 242.167,88.5 242.833,87.5 243.5,86.5C 247.733,82.3566 251.733,78.0233 255.5,73.5 Z"/></g>
<g><path style="opacity:1" fill="#e9c486" d="M 157.5,76.5 C 159.635,78.0709 161.968,79.4043 164.5,80.5C 165.957,82.6282 166.957,84.9616 167.5,87.5C 162.125,87.8282 156.792,87.4948 151.5,86.5C 148.605,84.8849 145.605,83.5516 142.5,82.5C 145.057,81.5148 147.724,80.5148 150.5,79.5C 149.5,78.6667 148.5,77.8333 147.5,77C 147.833,76.8333 148.167,76.6667 148.5,76.5C 150.618,77.9459 152.951,78.6126 155.5,78.5C 155.131,76.0065 155.797,75.3398 157.5,76.5 Z"/></g>
<g><path style="opacity:1" fill="#bba0a7" d="M 208.5,94.5 C 210.705,90.4263 212.038,86.093 212.5,81.5C 213.496,81.5858 214.329,81.2524 215,80.5C 215.263,86.3076 213.096,90.9743 208.5,94.5 Z"/></g>
<g><path style="opacity:1" fill="#554179" d="M 39.5,76.5 C 52.2569,80.562 63.2569,87.562 72.5,97.5C 72.5,97.8333 72.5,98.1667 72.5,98.5C 73.925,99.922 74.925,101.589 75.5,103.5C 77.1119,105.963 76.6119,107.963 74,109.5C 73.0853,108.672 72.4186,107.672 72,106.5C 70.818,108.938 69.4847,111.271 68,113.5C 66.9924,108.459 66.4924,108.792 66.5,114.5C 67.9778,114.238 69.3112,114.571 70.5,115.5C 69.3881,116.265 68.7214,117.265 68.5,118.5C 64.7474,113.413 60.0807,109.413 54.5,106.5C 53.0077,103.677 50.6743,102.01 47.5,101.5C 45.0427,98.4416 42.0427,96.1083 38.5,94.5C 40.1439,94.2865 41.6439,94.6198 43,95.5C 43.4741,90.373 44.4741,90.373 46,95.5C 46.2671,92.6072 46.1005,89.6072 45.5,86.5C 46.1667,85.8333 46.8333,85.1667 47.5,84.5C 44.1044,83.109 41.4378,80.4424 39.5,76.5 Z"/></g>
<g><path style="opacity:1" fill="#37152b" d="M 55.5,68.5 C 58.0048,69.4171 60.3382,69.4171 62.5,68.5C 66.3617,70.2619 70.0283,72.2619 73.5,74.5C 72.9569,74.56 72.6236,74.8933 72.5,75.5C 73.1667,76.8333 73.8333,78.1667 74.5,79.5C 79.3091,80.9558 83.1425,83.6225 86,87.5C 86.3333,86.8333 86.6667,86.1667 87,85.5C 88.6667,86.5 90.3333,87.5 92,88.5C 92.9147,87.6721 93.5814,86.6721 94,85.5C 94.3333,86.1667 94.6667,86.8333 95,87.5C 96,86.1667 97,84.8333 98,83.5C 98.414,83.9574 98.914,84.2907 99.5,84.5C 100.477,82.5891 101.143,80.5891 101.5,78.5C 102.644,83.888 102.311,89.2213 100.5,94.5C 100.631,93.7611 100.464,93.0944 100,92.5C 95.8082,96.0437 91.3082,96.3771 86.5,93.5C 83.4693,90.3134 79.9693,87.6468 76,85.5C 75.51,84.2068 75.3433,82.8734 75.5,81.5C 72.8239,82.0081 70.1572,82.1747 67.5,82C 66.8333,81.3333 66.1667,80.6667 65.5,80C 69.0894,80.2904 70.5894,78.7904 70,75.5C 68.3005,74.5939 66.4672,74.2606 64.5,74.5C 64.2407,70.9319 62.2407,69.5985 58.5,70.5C 56.9731,70.573 55.9731,69.9063 55.5,68.5 Z"/></g>
<g><path style="opacity:1" fill="#d39f59" d="M 179.5,86.5 C 174.625,87.2414 169.625,88.0747 164.5,89C 167.117,89.8215 169.784,90.3215 172.5,90.5C 171.699,92.0418 171.366,93.7085 171.5,95.5C 169.071,95.415 167.071,94.415 165.5,92.5C 165.167,92.8333 164.833,93.1667 164.5,93.5C 166.19,95.5193 167.856,97.5193 169.5,99.5C 171.139,100.473 172.473,101.806 173.5,103.5C 171.856,103.714 170.356,103.38 169,102.5C 169.292,105.43 170.459,108.097 172.5,110.5C 171.5,110.5 170.5,110.5 169.5,110.5C 168.455,109.122 167.122,108.122 165.5,107.5C 165.5,107.167 165.5,106.833 165.5,106.5C 163.73,104.887 162.564,102.887 162,100.5C 156.29,95.7913 151.123,90.7913 146.5,85.5C 144.027,85.9118 142.694,84.9118 142.5,82.5C 145.605,83.5516 148.605,84.8849 151.5,86.5C 156.792,87.4948 162.125,87.8282 167.5,87.5C 166.957,84.9616 165.957,82.6282 164.5,80.5C 168.186,79.8339 171.186,81.1672 173.5,84.5C 175.45,85.3721 177.45,86.0388 179.5,86.5 Z"/></g>
<g><path style="opacity:1" fill="#5a3534" d="M -0.5,83.5 C 0.833333,83.5 2.16667,83.5 3.5,83.5C 5.85684,83.3367 8.19018,83.5034 10.5,84C 14.6827,85.7961 19.016,87.1294 23.5,88C 28.0019,91.2261 33.0019,93.3928 38.5,94.5C 42.0427,96.1083 45.0427,98.4416 47.5,101.5C 39.1887,97.3443 30.8553,93.1777 22.5,89C 14.8898,87.3982 7.22315,86.2315 -0.5,85.5C -0.5,84.8333 -0.5,84.1667 -0.5,83.5 Z"/></g>
<g><path style="opacity:1" fill="#2d1626" d="M -0.5,85.5 C 7.22315,86.2315 14.8898,87.3982 22.5,89C 30.8553,93.1777 39.1887,97.3443 47.5,101.5C 50.6743,102.01 53.0077,103.677 54.5,106.5C 60.8705,111.869 66.5371,117.869 71.5,124.5C 73.6009,127.179 75.6009,130.012 77.5,133C 79.4357,133.813 81.4357,134.313 83.5,134.5C 83.7845,136.415 83.4511,138.081 82.5,139.5C 78.3462,135.616 73.6796,132.283 68.5,129.5C 68.5,128.5 68.5,127.5 68.5,126.5C 69.0869,124.315 68.0869,122.648 65.5,121.5C 64.7005,119.427 63.3671,117.76 61.5,116.5C 60.7974,114.284 59.4641,112.451 57.5,111C 40.3037,97.7708 20.9703,89.9375 -0.5,87.5C -0.5,86.8333 -0.5,86.1667 -0.5,85.5 Z"/></g>
<g><path style="opacity:1" fill="#b6834a" d="M 146.5,85.5 C 151.123,90.7913 156.29,95.7913 162,100.5C 162.564,102.887 163.73,104.887 165.5,106.5C 159.104,102.283 153.104,97.4495 147.5,92C 146.255,91.2086 144.922,90.7086 143.5,90.5C 139.629,90.815 135.962,90.4816 132.5,89.5C 134.997,87.1289 137.997,86.1289 141.5,86.5C 143.415,86.7845 145.081,86.4511 146.5,85.5 Z"/></g>
<g><path style="opacity:1" fill="#2b1d17" d="M 115.5,80.5 C 116.167,80.5 116.833,80.5 117.5,80.5C 122.774,83.2928 127.774,86.2928 132.5,89.5C 131.883,89.6107 131.383,89.944 131,90.5C 130.261,89.4258 129.261,88.7591 128,88.5C 124.698,89.2629 121.698,90.5962 119,92.5C 118.333,94.8333 118.333,97.1667 119,99.5C 119.49,98.2068 119.657,96.8734 119.5,95.5C 120.833,95.5 122.167,95.5 123.5,95.5C 123.892,102.624 123.226,109.624 121.5,116.5C 122,116.833 122.5,117.167 123,117.5C 124.798,116.496 126.632,115.996 128.5,116C 130.495,118.848 131.828,122.014 132.5,125.5C 133.633,122.711 135.3,120.378 137.5,118.5C 137.5,119.5 137.5,120.5 137.5,121.5C 133.388,128.388 130.388,135.722 128.5,143.5C 119.167,143.5 109.833,143.5 100.5,143.5C 99.8575,140.802 99.0242,138.135 98,135.5C 97.885,138.008 96.885,140.008 95,141.5C 92.7995,140.038 92.1328,138.038 93,135.5C 94.0113,134.663 95.1779,134.33 96.5,134.5C 96.9236,130.998 95.5902,128.665 92.5,127.5C 90.3001,123.545 88.3001,119.545 86.5,115.5C 87.265,116.66 88.265,117.66 89.5,118.5C 90.5223,118.145 91.189,117.478 91.5,116.5C 93.1667,115.167 94.8333,113.833 96.5,112.5C 94.5517,115.464 92.5517,118.464 90.5,121.5C 91.0256,123.23 92.0256,124.564 93.5,125.5C 94.8196,123.73 96.3196,123.397 98,124.5C 99.5218,122.978 101.022,121.478 102.5,120C 103.636,115.071 106.303,111.237 110.5,108.5C 112.138,100.927 112.805,93.2599 112.5,85.5C 114.954,85.3205 117.121,85.9872 119,87.5C 120.946,87.2373 121.612,86.2373 121,84.5C 118.985,83.3034 117.151,81.9701 115.5,80.5 Z"/></g>
<g><path style="opacity:1" fill="#db984a" d="M 179.5,86.5 C 181.201,86.9662 182.701,86.9662 184,86.5C 184.333,87.8333 184.667,89.1667 185,90.5C 185.667,91.8333 186.333,91.8333 187,90.5C 187.505,92.5183 188.005,94.5183 188.5,96.5C 184.818,96.6653 181.152,96.4986 177.5,96C 175.746,94.0636 174.079,92.2302 172.5,90.5C 169.784,90.3215 167.117,89.8215 164.5,89C 169.625,88.0747 174.625,87.2414 179.5,86.5 Z"/></g>
<g><path style="opacity:1" fill="#420f20" d="M 86.5,93.5 C 91.3082,96.3771 95.8082,96.0437 100,92.5C 100.464,93.0944 100.631,93.7611 100.5,94.5C 100.1,98.4405 98.9334,102.107 97,105.5C 96.5034,107.81 96.3367,110.143 96.5,112.5C 94.8333,113.833 93.1667,115.167 91.5,116.5C 90.7611,116.631 90.0944,116.464 89.5,116C 91.607,114.736 92.607,112.903 92.5,110.5C 90.2166,110.392 88.2166,109.559 86.5,108C 89.2764,106.221 88.9431,105.221 85.5,105C 86.3402,103.334 85.8402,103.167 84,104.5C 80.6146,102.548 77.4479,100.215 74.5,97.5C 73.8165,97.8627 73.1499,98.1961 72.5,98.5C 72.5,98.1667 72.5,97.8333 72.5,97.5C 72.3118,95.8967 72.8118,94.5634 74,93.5C 74.3333,93.8333 74.6667,94.1667 75,94.5C 78.7413,90.8021 82.4079,90.8021 86,94.5C 86.3988,94.2716 86.5654,93.9382 86.5,93.5 Z"/></g>
<g><path style="opacity:1" fill="#f4e1a5" d="M 172.5,90.5 C 174.079,92.2302 175.746,94.0636 177.5,96C 181.152,96.4986 184.818,96.6653 188.5,96.5C 189.048,99.0838 190.715,100.084 193.5,99.5C 194.236,101.229 195.57,102.229 197.5,102.5C 199.048,102.821 199.715,103.821 199.5,105.5C 197.585,105.216 195.919,105.549 194.5,106.5C 194.167,106.5 193.833,106.5 193.5,106.5C 189.352,104.39 185.019,102.557 180.5,101C 179.809,99.9326 179.309,98.7659 179,97.5C 178.764,99.1193 177.931,100.119 176.5,100.5C 173.833,99.8333 172.167,98.1667 171.5,95.5C 171.366,93.7085 171.699,92.0418 172.5,90.5 Z"/></g>
<g><path style="opacity:1" fill="#886164" d="M 190.5,91.5 C 193.939,91.2529 197.272,91.5863 200.5,92.5C 200.662,94.5273 200.495,96.5273 200,98.5C 199.617,99.056 199.117,99.3893 198.5,99.5C 198.5,98.5 198.5,97.5 198.5,96.5C 195.5,96.5 192.5,96.5 189.5,96.5C 189.216,94.5853 189.549,92.9187 190.5,91.5 Z"/></g>
<g><path style="opacity:1" fill="#4b0f26" d="M 39.5,104.5 C 37.369,106.611 35.7023,108.944 34.5,111.5C 36.1667,111.5 37.8333,111.5 39.5,111.5C 39.7035,113.39 39.0368,114.89 37.5,116C 33.8333,116.667 30.1667,116.667 26.5,116C 18.4367,113.58 10.77,110.413 3.5,106.5C 5.60361,105.088 7.93695,104.088 10.5,103.5C 10.3505,104.552 10.5172,105.552 11,106.5C 11.3333,106.167 11.6667,105.833 12,105.5C 13.4707,107.902 14.9707,107.736 16.5,105C 15.7728,102.876 15.1062,100.709 14.5,98.5C 15.5,97.8333 16.5,97.1667 17.5,96.5C 17.2907,95.914 16.9574,95.414 16.5,95C 18.1686,94.8782 19.8353,95.2115 21.5,96C 20.3044,96.6543 20.3044,97.1543 21.5,97.5C 22.1144,93.93 23.4477,93.5966 25.5,96.5C 24.91,97.7989 23.91,98.6322 22.5,99C 23.1258,99.7504 23.6258,100.584 24,101.5C 24.7175,100.549 25.5509,100.383 26.5,101C 25.2888,101.893 25.2888,102.726 26.5,103.5C 28.0701,103.306 29.5701,103.306 31,103.5C 31.3333,102.833 31.6667,102.167 32,101.5C 34.255,103.055 36.755,104.055 39.5,104.5 Z"/></g>
<g><path style="opacity:1" fill="#645e4f" d="M 255.5,79.5 C 255.5,80.8333 255.5,82.1667 255.5,83.5C 253.24,86.3615 251.24,89.3615 249.5,92.5C 245.826,95.8416 242.492,99.5083 239.5,103.5C 238.699,101.958 238.366,100.292 238.5,98.5C 244.444,92.5482 250.111,86.2149 255.5,79.5 Z"/></g>
<g><path style="opacity:1" fill="#480f26" d="M -0.5,87.5 C 20.9703,89.9375 40.3037,97.7708 57.5,111C 59.4641,112.451 60.7974,114.284 61.5,116.5C 59.3911,115.609 57.3911,114.442 55.5,113C 52.147,112.253 48.9803,112.753 46,114.5C 44.605,114.22 43.4383,113.553 42.5,112.5C 45.3195,111.618 47.9862,110.452 50.5,109C 48.0995,108.814 45.7662,108.314 43.5,107.5C 44.8605,102.523 43.5272,101.523 39.5,104.5C 36.755,104.055 34.255,103.055 32,101.5C 31.6667,102.167 31.3333,102.833 31,103.5C 29.5701,103.306 28.0701,103.306 26.5,103.5C 25.2888,102.726 25.2888,101.893 26.5,101C 25.5509,100.383 24.7175,100.549 24,101.5C 23.6258,100.584 23.1258,99.7504 22.5,99C 23.91,98.6322 24.91,97.7989 25.5,96.5C 23.4477,93.5966 22.1144,93.93 21.5,97.5C 20.3044,97.1543 20.3044,96.6543 21.5,96C 19.8353,95.2115 18.1686,94.8782 16.5,95C 16.9574,95.414 17.2907,95.914 17.5,96.5C 16.5,97.1667 15.5,97.8333 14.5,98.5C 15.1062,100.709 15.7728,102.876 16.5,105C 14.9707,107.736 13.4707,107.902 12,105.5C 11.6667,105.833 11.3333,106.167 11,106.5C 10.5172,105.552 10.3505,104.552 10.5,103.5C 7.93695,104.088 5.60361,105.088 3.5,106.5C 2.29208,105.766 0.95875,105.433 -0.5,105.5C -0.5,99.5 -0.5,93.5 -0.5,87.5 Z"/></g>
<g><path style="opacity:1" fill="#60402c" d="M 171.5,95.5 C 172.167,98.1667 173.833,99.8333 176.5,100.5C 176.5,100.833 176.5,101.167 176.5,101.5C 174.167,100.833 171.833,100.167 169.5,99.5C 167.856,97.5193 166.19,95.5193 164.5,93.5C 164.833,93.1667 165.167,92.8333 165.5,92.5C 167.071,94.415 169.071,95.415 171.5,95.5 Z"/></g>
<g><path style="opacity:1" fill="#69403b" d="M 189.5,96.5 C 192.5,96.5 195.5,96.5 198.5,96.5C 198.5,97.5 198.5,98.5 198.5,99.5C 198.443,100.609 198.11,101.609 197.5,102.5C 195.57,102.229 194.236,101.229 193.5,99.5C 191.924,98.8571 190.59,97.8571 189.5,96.5 Z"/></g>
<g><path style="opacity:1" fill="#3d2b20" d="M 132.5,89.5 C 135.962,90.4816 139.629,90.815 143.5,90.5C 143.987,91.4734 144.487,92.4734 145,93.5C 150.362,98.0324 155.528,102.699 160.5,107.5C 159.376,110.669 157.709,113.669 155.5,116.5C 156.326,117.451 156.492,118.451 156,119.5C 153.791,119.989 151.958,120.989 150.5,122.5C 148.033,122.245 146.033,121.245 144.5,119.5C 147.324,117.2 149.157,114.2 150,110.5C 150.75,109.874 151.584,109.374 152.5,109C 151.167,108 151.167,107 152.5,106C 144.224,105.684 139.224,109.517 137.5,117.5C 137.5,117.833 137.5,118.167 137.5,118.5C 135.3,120.378 133.633,122.711 132.5,125.5C 131.828,122.014 130.495,118.848 128.5,116C 126.632,115.996 124.798,116.496 123,117.5C 122.5,117.167 122,116.833 121.5,116.5C 123.226,109.624 123.892,102.624 123.5,95.5C 122.167,95.5 120.833,95.5 119.5,95.5C 119.657,96.8734 119.49,98.2068 119,99.5C 118.333,97.1667 118.333,94.8333 119,92.5C 121.698,90.5962 124.698,89.2629 128,88.5C 129.261,88.7591 130.261,89.4258 131,90.5C 131.383,89.944 131.883,89.6107 132.5,89.5 Z"/></g>
<g><path style="opacity:1" fill="#d2b599" d="M 193.5,106.5 C 192.739,107.391 191.739,108.058 190.5,108.5C 187.192,107.605 183.859,106.771 180.5,106C 179.62,104.644 179.286,103.144 179.5,101.5C 178.5,101.5 177.5,101.5 176.5,101.5C 176.5,101.167 176.5,100.833 176.5,100.5C 177.931,100.119 178.764,99.1193 179,97.5C 179.309,98.7659 179.809,99.9326 180.5,101C 185.019,102.557 189.352,104.39 193.5,106.5 Z"/></g>
<g><path style="opacity:1" fill="#807292" d="M 220.5,98.5 C 218.127,101.545 218.127,104.545 220.5,107.5C 223.195,106.492 225.862,105.492 228.5,104.5C 221.213,114.729 213.213,124.395 204.5,133.5C 204.298,131.011 204.798,128.677 206,126.5C 208.557,123.808 211.391,121.475 214.5,119.5C 217.816,115.69 217.983,112.023 215,108.5C 212.822,108.936 210.322,109.436 207.5,110C 206.213,111.41 205.046,112.91 204,114.5C 203.685,111.853 202.518,111.187 200.5,112.5C 199.523,110.589 198.857,108.589 198.5,106.5C 200.857,106.663 203.19,106.497 205.5,106C 209.568,101.066 214.568,98.5661 220.5,98.5 Z"/></g>
<g><path style="opacity:1" fill="#dfa448" d="M 173.5,103.5 C 176.205,105.512 178.872,107.512 181.5,109.5C 179.425,109.302 177.425,109.135 175.5,109C 175.043,109.414 174.709,109.914 174.5,110.5C 175.612,111.265 176.279,112.265 176.5,113.5C 174.381,113.532 173.048,112.532 172.5,110.5C 170.459,108.097 169.292,105.43 169,102.5C 170.356,103.38 171.856,103.714 173.5,103.5 Z"/></g>
<g><path style="opacity:1" fill="#594135" d="M 144.5,119.5 C 142.254,118.545 139.921,117.878 137.5,117.5C 139.224,109.517 144.224,105.684 152.5,106C 151.167,107 151.167,108 152.5,109C 151.584,109.374 150.75,109.874 150,110.5C 149.157,114.2 147.324,117.2 144.5,119.5 Z"/></g>
<g><path style="opacity:1" fill="#714b2a" d="M 143.5,90.5 C 144.922,90.7086 146.255,91.2086 147.5,92C 153.104,97.4495 159.104,102.283 165.5,106.5C 165.5,106.833 165.5,107.167 165.5,107.5C 166.11,108.391 166.443,109.391 166.5,110.5C 165.833,110.5 165.167,110.5 164.5,110.5C 163.738,108.738 162.404,107.738 160.5,107.5C 155.528,102.699 150.362,98.0324 145,93.5C 144.487,92.4734 143.987,91.4734 143.5,90.5 Z"/></g>
<g><path style="opacity:1" fill="#99665b" d="M 169.5,99.5 C 171.833,100.167 174.167,100.833 176.5,101.5C 177.5,101.5 178.5,101.5 179.5,101.5C 179.286,103.144 179.62,104.644 180.5,106C 183.859,106.771 187.192,107.605 190.5,108.5C 191.739,108.058 192.739,107.391 193.5,106.5C 193.833,106.5 194.167,106.5 194.5,106.5C 194.5,107.167 194.5,107.833 194.5,108.5C 193,109.625 191.667,110.959 190.5,112.5C 187.208,112.353 184.208,111.353 181.5,109.5C 178.872,107.512 176.205,105.512 173.5,103.5C 172.473,101.806 171.139,100.473 169.5,99.5 Z"/></g>
<g><path style="opacity:1" fill="#340f20" d="M 91.5,116.5 C 91.189,117.478 90.5223,118.145 89.5,118.5C 88.265,117.66 87.265,116.66 86.5,115.5C 83.4502,112.612 80.9502,109.278 79,105.5C 78.1841,104.177 77.0174,103.511 75.5,103.5C 74.925,101.589 73.925,99.922 72.5,98.5C 73.1499,98.1961 73.8165,97.8627 74.5,97.5C 77.4479,100.215 80.6146,102.548 84,104.5C 85.8402,103.167 86.3402,103.334 85.5,105C 88.9431,105.221 89.2764,106.221 86.5,108C 88.2166,109.559 90.2166,110.392 92.5,110.5C 92.607,112.903 91.607,114.736 89.5,116C 90.0944,116.464 90.7611,116.631 91.5,116.5 Z"/></g>
<g><path style="opacity:1" fill="#0c0907" d="M 160.5,107.5 C 162.404,107.738 163.738,108.738 164.5,110.5C 167.941,114.691 168.941,119.358 167.5,124.5C 163.131,124.533 158.798,124.2 154.5,123.5C 153.432,122.566 152.099,122.232 150.5,122.5C 151.958,120.989 153.791,119.989 156,119.5C 156.492,118.451 156.326,117.451 155.5,116.5C 157.709,113.669 159.376,110.669 160.5,107.5 Z"/></g>
<g><path style="opacity:1" fill="#776990" d="M 194.5,106.5 C 195.833,106.5 197.167,106.5 198.5,106.5C 198.857,108.589 199.523,110.589 200.5,112.5C 202.518,111.187 203.685,111.853 204,114.5C 205.046,112.91 206.213,111.41 207.5,110C 210.322,109.436 212.822,108.936 215,108.5C 217.983,112.023 217.816,115.69 214.5,119.5C 211.391,121.475 208.557,123.808 206,126.5C 204.798,128.677 204.298,131.011 204.5,133.5C 202.167,136.833 199.833,140.167 197.5,143.5C 192.167,143.5 186.833,143.5 181.5,143.5C 181.949,139.952 182.949,136.619 184.5,133.5C 185.167,133.5 185.5,133.167 185.5,132.5C 186.245,134.671 186.412,137.005 186,139.5C 187.604,136.753 188.438,133.753 188.5,130.5C 190.857,130.663 193.19,130.497 195.5,130C 196.711,129.107 196.711,128.274 195.5,127.5C 193.929,128.309 192.262,128.643 190.5,128.5C 190.5,126.167 190.5,123.833 190.5,121.5C 192.705,117.426 194.038,113.093 194.5,108.5C 194.5,107.833 194.5,107.167 194.5,106.5 Z"/></g>
<g><path style="opacity:1" fill="#959387" d="M 240.5,91.5 C 239.067,93.5582 238.4,95.8915 238.5,98.5C 238.366,100.292 238.699,101.958 239.5,103.5C 234.809,109.852 230.142,116.185 225.5,122.5C 221.805,126.526 218.138,130.526 214.5,134.5C 213.504,134.586 212.671,134.252 212,133.5C 209.797,135.334 207.63,137.168 205.5,139C 204.552,139.483 203.552,139.649 202.5,139.5C 206.47,135.54 210.804,131.873 215.5,128.5C 216.949,126.389 217.949,124.056 218.5,121.5C 220.333,119.834 221.666,117.834 222.5,115.5C 224.754,114.876 226.421,113.543 227.5,111.5C 229.63,108.378 231.297,105.045 232.5,101.5C 233.167,100.167 233.833,98.8333 234.5,97.5C 235.833,96.8333 236.833,95.8333 237.5,94.5C 238.167,93.1667 239.167,92.1667 240.5,91.5 Z"/></g>
<g><path style="opacity:1" fill="#f6be57" d="M 181.5,109.5 C 184.208,111.353 187.208,112.353 190.5,112.5C 190.975,115.082 190.308,117.082 188.5,118.5C 188.539,117.244 188.039,116.244 187,115.5C 185.013,116.218 183.179,117.218 181.5,118.5C 179.851,116.667 178.184,115 176.5,113.5C 176.279,112.265 175.612,111.265 174.5,110.5C 174.709,109.914 175.043,109.414 175.5,109C 177.425,109.135 179.425,109.302 181.5,109.5 Z"/></g>
<g><path style="opacity:1" fill="#420e23" d="M -0.5,114.5 C 1.14011,115.32 2.80678,116.153 4.5,117C 8.35771,117.079 12.0244,117.746 15.5,119C 10.2713,122.113 4.93801,124.947 -0.5,127.5C -0.5,123.167 -0.5,118.833 -0.5,114.5 Z"/></g>
<g><path style="opacity:1" fill="#5b1623" d="M 61.5,116.5 C 63.3671,117.76 64.7005,119.427 65.5,121.5C 64.1266,121.657 62.7932,121.49 61.5,121C 58.7955,118.649 55.7955,116.816 52.5,115.5C 50.0454,115.894 48.0454,117.06 46.5,119C 38.5,119.667 30.5,119.667 22.5,119C 14.5633,116.361 6.89664,113.194 -0.5,109.5C -0.5,108.167 -0.5,106.833 -0.5,105.5C 0.95875,105.433 2.29208,105.766 3.5,106.5C 10.77,110.413 18.4367,113.58 26.5,116C 30.1667,116.667 33.8333,116.667 37.5,116C 39.0368,114.89 39.7035,113.39 39.5,111.5C 37.8333,111.5 36.1667,111.5 34.5,111.5C 35.7023,108.944 37.369,106.611 39.5,104.5C 43.5272,101.523 44.8605,102.523 43.5,107.5C 45.7662,108.314 48.0995,108.814 50.5,109C 47.9862,110.452 45.3195,111.618 42.5,112.5C 43.4383,113.553 44.605,114.22 46,114.5C 48.9803,112.753 52.147,112.253 55.5,113C 57.3911,114.442 59.3911,115.609 61.5,116.5 Z"/></g>
<g><path style="opacity:1" fill="#633e46" d="M 54.5,106.5 C 60.0807,109.413 64.7474,113.413 68.5,118.5C 69.5294,120.517 70.5294,122.517 71.5,124.5C 66.5371,117.869 60.8705,111.869 54.5,106.5 Z"/></g>
<g><path style="opacity:1" fill="#bab7aa" d="M 232.5,101.5 C 231.297,105.045 229.63,108.378 227.5,111.5C 226.421,113.543 224.754,114.876 222.5,115.5C 221.666,117.834 220.333,119.834 218.5,121.5C 217.949,124.056 216.949,126.389 215.5,128.5C 210.804,131.873 206.47,135.54 202.5,139.5C 202.167,140.833 201.833,142.167 201.5,143.5C 200.167,143.5 198.833,143.5 197.5,143.5C 199.833,140.167 202.167,136.833 204.5,133.5C 213.213,124.395 221.213,114.729 228.5,104.5C 229.833,103.5 231.167,102.5 232.5,101.5 Z"/></g>
<g><path style="opacity:1" fill="#675659" d="M 249.5,92.5 C 247.855,96.4636 246.188,100.464 244.5,104.5C 240.93,104.901 238.764,106.901 238,110.5C 236.843,114.782 236.01,119.116 235.5,123.5C 232.303,121.531 228.97,121.197 225.5,122.5C 230.142,116.185 234.809,109.852 239.5,103.5C 242.492,99.5083 245.826,95.8416 249.5,92.5 Z"/></g>
<g><path style="opacity:1" fill="#46346d" d="M 75.5,103.5 C 77.0174,103.511 78.1841,104.177 79,105.5C 80.9502,109.278 83.4502,112.612 86.5,115.5C 88.3001,119.545 90.3001,123.545 92.5,127.5C 92.4935,130.518 91.4935,133.184 89.5,135.5C 86.8103,137.356 84.6437,139.689 83,142.5C 82.5357,141.906 82.369,141.239 82.5,140.5C 82.5,140.167 82.5,139.833 82.5,139.5C 83.4511,138.081 83.7845,136.415 83.5,134.5C 81.4357,134.313 79.4357,133.813 77.5,133C 75.6009,130.012 73.6009,127.179 71.5,124.5C 70.5294,122.517 69.5294,120.517 68.5,118.5C 68.7214,117.265 69.3881,116.265 70.5,115.5C 69.3112,114.571 67.9778,114.238 66.5,114.5C 66.4924,108.792 66.9924,108.459 68,113.5C 69.4847,111.271 70.818,108.938 72,106.5C 72.4186,107.672 73.0853,108.672 74,109.5C 76.6119,107.963 77.1119,105.963 75.5,103.5 Z"/></g>
<g><path style="opacity:1" fill="#29263d" d="M 255.5,107.5 C 255.5,119.5 255.5,131.5 255.5,143.5C 252.833,143.5 250.167,143.5 247.5,143.5C 248.521,131.055 251.187,119.055 255.5,107.5 Z"/></g>
<g><path style="opacity:1" fill="#1f0d1e" d="M -0.5,109.5 C 6.89664,113.194 14.5633,116.361 22.5,119C 30.5,119.667 38.5,119.667 46.5,119C 48.0454,117.06 50.0454,115.894 52.5,115.5C 55.7955,116.816 58.7955,118.649 61.5,121C 62.7932,121.49 64.1266,121.657 65.5,121.5C 68.0869,122.648 69.0869,124.315 68.5,126.5C 62.1645,125.331 55.8312,124.165 49.5,123C 38.1667,122.333 26.8333,122.333 15.5,123C 9.99511,124.648 4.66178,126.814 -0.5,129.5C -0.5,128.833 -0.5,128.167 -0.5,127.5C 4.93801,124.947 10.2713,122.113 15.5,119C 12.0244,117.746 8.35771,117.079 4.5,117C 2.80678,116.153 1.14011,115.32 -0.5,114.5C -0.5,112.833 -0.5,111.167 -0.5,109.5 Z"/></g>
<g><path style="opacity:1" fill="#8d604b" d="M 165.5,107.5 C 167.122,108.122 168.455,109.122 169.5,110.5C 169.838,112.854 170.338,115.187 171,117.5C 171.915,116.672 172.581,115.672 173,114.5C 173.333,115.833 173.667,117.167 174,118.5C 174.689,117.643 175.522,116.977 176.5,116.5C 177.749,121.005 177.749,125.505 176.5,130C 178.28,134.263 179.28,138.763 179.5,143.5C 176.833,143.5 174.167,143.5 171.5,143.5C 173.011,138.715 172.678,134.049 170.5,129.5C 169.056,130.981 168.389,130.648 168.5,128.5C 168.5,127.5 168.5,126.5 168.5,125.5C 169.695,125.134 170.361,124.301 170.5,123C 169.815,120.205 169.315,117.372 169,114.5C 168.392,112.934 167.558,111.6 166.5,110.5C 166.443,109.391 166.11,108.391 165.5,107.5 Z"/></g>
<g><path style="opacity:1" fill="#e3c6bc" d="M 194.5,108.5 C 194.038,113.093 192.705,117.426 190.5,121.5C 189.835,123.698 189.168,126.031 188.5,128.5C 187.016,129.467 186.016,130.8 185.5,132.5C 185.5,133.167 185.167,133.5 184.5,133.5C 183.957,133.44 183.624,133.107 183.5,132.5C 186.161,128.178 187.827,123.512 188.5,118.5C 190.308,117.082 190.975,115.082 190.5,112.5C 191.667,110.959 193,109.625 194.5,108.5 Z"/></g>
<g><path style="opacity:1" fill="#9c908f" d="M 244.5,104.5 C 241.172,114.496 238.172,124.496 235.5,134.5C 235.771,132.62 235.104,131.287 233.5,130.5C 233.767,128.035 234.434,125.701 235.5,123.5C 236.01,119.116 236.843,114.782 238,110.5C 238.764,106.901 240.93,104.901 244.5,104.5 Z"/></g>
<g><path style="opacity:1" fill="#452b20" d="M 164.5,110.5 C 165.167,110.5 165.833,110.5 166.5,110.5C 167.558,111.6 168.392,112.934 169,114.5C 169.315,117.372 169.815,120.205 170.5,123C 170.361,124.301 169.695,125.134 168.5,125.5C 168.5,124.833 168.167,124.5 167.5,124.5C 168.941,119.358 167.941,114.691 164.5,110.5 Z"/></g>
<g><path style="opacity:1" fill="#470e28" d="M 41.5,132.5 C 41.44,131.957 41.1067,131.624 40.5,131.5C 39.5,132.167 38.5,132.833 37.5,133.5C 36.4679,131.96 35.1346,131.46 33.5,132C 32.1811,134.285 30.6811,136.452 29,138.5C 27.1845,134.426 24.0178,132.426 19.5,132.5C 16.5634,133.803 13.8968,135.47 11.5,137.5C 9.86529,138.046 8.19863,138.38 6.5,138.5C 6.64945,139.552 6.48278,140.552 6,141.5C 4.37753,142.099 2.87753,142.766 1.5,143.5C 0.833333,143.5 0.166667,143.5 -0.5,143.5C -0.5,139.167 -0.5,134.833 -0.5,130.5C 2.38857,129.992 5.2219,129.325 8,128.5C 8.33333,128.833 8.66667,129.167 9,129.5C 11.4592,127.741 13.9592,126.074 16.5,124.5C 18,124.167 19.5,123.833 21,123.5C 28.9789,124.556 36.8122,125.889 44.5,127.5C 44.7271,129.933 43.7271,131.599 41.5,132.5 Z"/></g>
<g><path style="opacity:1" fill="#440f28" d="M 68.5,126.5 C 68.5,127.5 68.5,128.5 68.5,129.5C 67.2921,128.766 65.9587,128.433 64.5,128.5C 64.4501,130.59 65.4501,131.923 67.5,132.5C 68.641,134.421 68.8077,136.421 68,138.5C 63.9596,141.979 59.6263,142.645 55,140.5C 53.268,142.207 51.4347,142.873 49.5,142.5C 47.5164,138.527 44.8497,135.194 41.5,132.5C 43.7271,131.599 44.7271,129.933 44.5,127.5C 36.8122,125.889 28.9789,124.556 21,123.5C 19.5,123.833 18,124.167 16.5,124.5C 13.9592,126.074 11.4592,127.741 9,129.5C 8.66667,129.167 8.33333,128.833 8,128.5C 5.2219,129.325 2.38857,129.992 -0.5,130.5C -0.5,130.167 -0.5,129.833 -0.5,129.5C 4.66178,126.814 9.99511,124.648 15.5,123C 26.8333,122.333 38.1667,122.333 49.5,123C 55.8312,124.165 62.1645,125.331 68.5,126.5 Z"/></g>
<g><path style="opacity:1" fill="#727267" d="M 154.5,123.5 C 158.798,124.2 163.131,124.533 167.5,124.5C 168.167,124.5 168.5,124.833 168.5,125.5C 168.5,126.5 168.5,127.5 168.5,128.5C 162.833,127.833 157.167,127.167 151.5,126.5C 151.881,128.942 151.214,129.609 149.5,128.5C 149.002,129.603 148.669,130.603 148.5,131.5C 147.571,130.311 147.238,128.978 147.5,127.5C 143.901,127.738 143.567,126.738 146.5,124.5C 145.975,123.808 145.308,123.308 144.5,123C 147.777,123.201 151.111,123.368 154.5,123.5 Z"/></g>
<g><path style="opacity:1" fill="#f3ede2" d="M 255.5,83.5 C 255.5,84.8333 255.5,86.1667 255.5,87.5C 252.045,92.746 249.378,98.4126 247.5,104.5C 246.662,104.842 246.328,105.508 246.5,106.5C 242.642,117.102 239.975,128.102 238.5,139.5C 238.167,140.833 237.833,142.167 237.5,143.5C 236.5,143.5 235.5,143.5 234.5,143.5C 234.5,142.167 234.5,140.833 234.5,139.5C 235.451,138.081 235.784,136.415 235.5,134.5C 238.172,124.496 241.172,114.496 244.5,104.5C 246.188,100.464 247.855,96.4636 249.5,92.5C 251.24,89.3615 253.24,86.3615 255.5,83.5 Z"/></g>
<g><path style="opacity:1" fill="#bd8c6f" d="M 169.5,110.5 C 170.5,110.5 171.5,110.5 172.5,110.5C 173.048,112.532 174.381,113.532 176.5,113.5C 178.184,115 179.851,116.667 181.5,118.5C 183.179,117.218 185.013,116.218 187,115.5C 188.039,116.244 188.539,117.244 188.5,118.5C 187.827,123.512 186.161,128.178 183.5,132.5C 183.624,133.107 183.957,133.44 184.5,133.5C 182.949,136.619 181.949,139.952 181.5,143.5C 180.833,143.5 180.167,143.5 179.5,143.5C 179.28,138.763 178.28,134.263 176.5,130C 177.749,125.505 177.749,121.005 176.5,116.5C 175.522,116.977 174.689,117.643 174,118.5C 173.667,117.167 173.333,115.833 173,114.5C 172.581,115.672 171.915,116.672 171,117.5C 170.338,115.187 169.838,112.854 169.5,110.5 Z"/></g>
<g><path style="opacity:1" fill="#4d4639" d="M 137.5,117.5 C 139.921,117.878 142.254,118.545 144.5,119.5C 146.033,121.245 148.033,122.245 150.5,122.5C 152.099,122.232 153.432,122.566 154.5,123.5C 151.111,123.368 147.777,123.201 144.5,123C 145.308,123.308 145.975,123.808 146.5,124.5C 143.567,126.738 143.901,127.738 147.5,127.5C 147.238,128.978 147.571,130.311 148.5,131.5C 148.669,130.603 149.002,129.603 149.5,128.5C 151.214,129.609 151.881,128.942 151.5,126.5C 157.167,127.167 162.833,127.833 168.5,128.5C 168.389,130.648 169.056,130.981 170.5,129.5C 172.678,134.049 173.011,138.715 171.5,143.5C 170.833,143.5 170.167,143.5 169.5,143.5C 170.221,140.183 170.388,136.849 170,133.5C 168.454,136.592 166.954,139.592 165.5,142.5C 167.789,138.201 166.789,135.034 162.5,133C 158.215,132.374 154.048,132.874 150,134.5C 147.649,133.46 145.482,132.126 143.5,130.5C 141.927,130.752 140.594,131.418 139.5,132.5C 140.259,130.564 141.259,128.731 142.5,127C 141.833,126.333 141.167,125.667 140.5,125C 142.047,121.384 141.047,120.218 137.5,121.5C 137.5,120.5 137.5,119.5 137.5,118.5C 137.5,118.167 137.5,117.833 137.5,117.5 Z"/></g>
<g><path style="opacity:1" fill="#bca3b2" d="M 190.5,121.5 C 190.5,123.833 190.5,126.167 190.5,128.5C 192.262,128.643 193.929,128.309 195.5,127.5C 196.711,128.274 196.711,129.107 195.5,130C 193.19,130.497 190.857,130.663 188.5,130.5C 188.438,133.753 187.604,136.753 186,139.5C 186.412,137.005 186.245,134.671 185.5,132.5C 186.016,130.8 187.016,129.467 188.5,128.5C 189.168,126.031 189.835,123.698 190.5,121.5 Z"/></g>
<g><path style="opacity:1" fill="#685d53" d="M 139.5,132.5 C 137.01,135.626 135.677,139.292 135.5,143.5C 133.167,143.5 130.833,143.5 128.5,143.5C 130.388,135.722 133.388,128.388 137.5,121.5C 141.047,120.218 142.047,121.384 140.5,125C 141.167,125.667 141.833,126.333 142.5,127C 141.259,128.731 140.259,130.564 139.5,132.5 Z"/></g>
<g><path style="opacity:1" fill="#eee5cb" d="M 235.5,123.5 C 234.434,125.701 233.767,128.035 233.5,130.5C 232.384,134.951 229.718,136.284 225.5,134.5C 225.5,133.833 225.5,133.167 225.5,132.5C 228.966,132.032 230.632,130.032 230.5,126.5C 226.254,125.761 223.587,127.427 222.5,131.5C 217.9,135.206 217.567,139.206 221.5,143.5C 217.833,143.5 214.167,143.5 210.5,143.5C 211.576,140.352 212.909,137.352 214.5,134.5C 218.138,130.526 221.805,126.526 225.5,122.5C 228.97,121.197 232.303,121.531 235.5,123.5 Z"/></g>
<g><path style="opacity:1" fill="#575444" d="M 225.5,132.5 C 223.613,134.789 222.279,137.455 221.5,140.5C 220.876,140.083 220.543,139.416 220.5,138.5C 221.173,136.149 221.84,133.816 222.5,131.5C 223.587,127.427 226.254,125.761 230.5,126.5C 230.632,130.032 228.966,132.032 225.5,132.5 Z"/></g>
<g><path style="opacity:1" fill="#bcb297" d="M 246.5,106.5 C 244.732,116.526 242.899,126.526 241,136.5C 240.623,137.942 239.79,138.942 238.5,139.5C 239.975,128.102 242.642,117.102 246.5,106.5 Z"/></g>
<g><path style="opacity:1" fill="#4d0f2a" d="M 68.5,129.5 C 73.6796,132.283 78.3462,135.616 82.5,139.5C 82.5,139.833 82.5,140.167 82.5,140.5C 82.1667,140.5 81.8333,140.5 81.5,140.5C 81.5299,139.503 81.0299,138.836 80,138.5C 76.5051,139.186 73.6718,140.852 71.5,143.5C 48.1667,143.5 24.8333,143.5 1.5,143.5C 2.87753,142.766 4.37753,142.099 6,141.5C 6.48278,140.552 6.64945,139.552 6.5,138.5C 8.19863,138.38 9.86529,138.046 11.5,137.5C 13.8968,135.47 16.5634,133.803 19.5,132.5C 24.0178,132.426 27.1845,134.426 29,138.5C 30.6811,136.452 32.1811,134.285 33.5,132C 35.1346,131.46 36.4679,131.96 37.5,133.5C 38.5,132.833 39.5,132.167 40.5,131.5C 41.1067,131.624 41.44,131.957 41.5,132.5C 44.8497,135.194 47.5164,138.527 49.5,142.5C 51.4347,142.873 53.268,142.207 55,140.5C 59.6263,142.645 63.9596,141.979 68,138.5C 68.8077,136.421 68.641,134.421 67.5,132.5C 65.4501,131.923 64.4501,130.59 64.5,128.5C 65.9587,128.433 67.2921,128.766 68.5,129.5 Z"/></g>
<g><path style="opacity:1" fill="#a89971" d="M 247.5,104.5 C 246.859,114.654 245.692,124.654 244,134.5C 242.227,137.418 240.727,140.418 239.5,143.5C 238.833,143.5 238.167,143.5 237.5,143.5C 237.833,142.167 238.167,140.833 238.5,139.5C 239.79,138.942 240.623,137.942 241,136.5C 242.899,126.526 244.732,116.526 246.5,106.5C 246.328,105.508 246.662,104.842 247.5,104.5 Z"/></g>
<g><path style="opacity:1" fill="#4f483b" d="M 233.5,130.5 C 235.104,131.287 235.771,132.62 235.5,134.5C 235.784,136.415 235.451,138.081 234.5,139.5C 234.66,137.801 234.494,136.134 234,134.5C 232.566,136.136 230.733,137.136 228.5,137.5C 226.787,137.121 225.787,136.121 225.5,134.5C 229.718,136.284 232.384,134.951 233.5,130.5 Z"/></g>
<g><path style="opacity:1" fill="#726086" d="M 169.5,143.5 C 168.167,143.5 166.833,143.5 165.5,143.5C 165.5,143.167 165.5,142.833 165.5,142.5C 166.954,139.592 168.454,136.592 170,133.5C 170.388,136.849 170.221,140.183 169.5,143.5 Z"/></g>
<g><path style="opacity:1" fill="#8c8160" d="M 222.5,131.5 C 221.84,133.816 221.173,136.149 220.5,138.5C 220.543,139.416 220.876,140.083 221.5,140.5C 222.306,141.728 223.306,142.728 224.5,143.5C 223.5,143.5 222.5,143.5 221.5,143.5C 217.567,139.206 217.9,135.206 222.5,131.5 Z"/></g>
<g><path style="opacity:1" fill="#94804e" d="M 255.5,87.5 C 255.5,94.1667 255.5,100.833 255.5,107.5C 251.187,119.055 248.521,131.055 247.5,143.5C 244.833,143.5 242.167,143.5 239.5,143.5C 240.727,140.418 242.227,137.418 244,134.5C 245.692,124.654 246.859,114.654 247.5,104.5C 249.378,98.4126 252.045,92.746 255.5,87.5 Z"/></g>
<g><path style="opacity:1" fill="#2d1823" d="M 92.5,127.5 C 95.5902,128.665 96.9236,130.998 96.5,134.5C 95.1779,134.33 94.0113,134.663 93,135.5C 92.1328,138.038 92.7995,140.038 95,141.5C 96.885,140.008 97.885,138.008 98,135.5C 99.0242,138.135 99.8575,140.802 100.5,143.5C 93.5,143.5 86.5,143.5 79.5,143.5C 80.1667,142.5 80.8333,141.5 81.5,140.5C 81.8333,140.5 82.1667,140.5 82.5,140.5C 82.369,141.239 82.5357,141.906 83,142.5C 84.6437,139.689 86.8103,137.356 89.5,135.5C 91.4935,133.184 92.4935,130.518 92.5,127.5 Z"/></g>
<g><path style="opacity:1" fill="#0e050a" d="M 165.5,142.5 C 165.5,142.833 165.5,143.167 165.5,143.5C 155.5,143.5 145.5,143.5 135.5,143.5C 135.677,139.292 137.01,135.626 139.5,132.5C 140.594,131.418 141.927,130.752 143.5,130.5C 145.482,132.126 147.649,133.46 150,134.5C 154.048,132.874 158.215,132.374 162.5,133C 166.789,135.034 167.789,138.201 165.5,142.5 Z"/></g>
<g><path style="opacity:1" fill="#787971" d="M 214.5,134.5 C 212.909,137.352 211.576,140.352 210.5,143.5C 207.5,143.5 204.5,143.5 201.5,143.5C 201.833,142.167 202.167,140.833 202.5,139.5C 203.552,139.649 204.552,139.483 205.5,139C 207.63,137.168 209.797,135.334 212,133.5C 212.671,134.252 213.504,134.586 214.5,134.5 Z"/></g>
<g><path style="opacity:1" fill="#422e32" d="M 225.5,132.5 C 225.5,133.167 225.5,133.833 225.5,134.5C 225.787,136.121 226.787,137.121 228.5,137.5C 230.733,137.136 232.566,136.136 234,134.5C 234.494,136.134 234.66,137.801 234.5,139.5C 234.5,140.833 234.5,142.167 234.5,143.5C 231.167,143.5 227.833,143.5 224.5,143.5C 223.306,142.728 222.306,141.728 221.5,140.5C 222.279,137.455 223.613,134.789 225.5,132.5 Z"/></g>
<g><path style="opacity:1" fill="#5c131b" d="M 81.5,140.5 C 80.8333,141.5 80.1667,142.5 79.5,143.5C 76.8333,143.5 74.1667,143.5 71.5,143.5C 73.6718,140.852 76.5051,139.186 80,138.5C 81.0299,138.836 81.5299,139.503 81.5,140.5 Z"/></g>
</svg>
