<?xml version="1.0" encoding="UTF-8"?>
<!DOCTYPE svg PUBLIC "-//W3C//DTD SVG 1.1//EN" "http://www.w3.org/Graphics/SVG/1.1/DTD/svg11.dtd">
<svg xmlns="http://www.w3.org/2000/svg" version="1.1" width="256px" height="144px" style="shape-rendering:geometricPrecision; text-rendering:geometricPrecision; image-rendering:optimizeQuality; fill-rule:evenodd; clip-rule:evenodd" xmlns:xlink="http://www.w3.org/1999/xlink">
<g><path style="opacity:1" fill="#00060a" d="M -0.5,-0.5 C 17.8333,-0.5 36.1667,-0.5 54.5,-0.5C 49.777,2.17083 44.777,4.50417 39.5,6.5C 37.1722,9.6599 34.3388,12.3266 31,14.5C 30.586,14.0426 30.086,13.7093 29.5,13.5C 25.6008,17.5688 21.2674,21.0688 16.5,24C 12.2905,27.2084 8.79048,31.0418 6,35.5C 4.77337,37.6598 4.27337,39.6598 4.5,41.5C 2.85774,40.197 1.19107,38.8637 -0.5,37.5C -0.5,24.8333 -0.5,12.1667 -0.5,-0.5 Z"/></g>
<g><path style="opacity:1" fill="#00141c" d="M 183.5,-0.5 C 186.833,-0.5 190.167,-0.5 193.5,-0.5C 194.6,0.558465 195.934,1.3918 197.5,2C 202.421,3.62686 207.421,4.96019 212.5,6C 214.159,7.84148 216.159,9.00814 218.5,9.5C 218.238,10.9778 218.571,12.3112 219.5,13.5C 221.753,14.2531 223.587,15.5864 225,17.5C 225.333,17.1667 225.667,16.8333 226,16.5C 228.824,22.0504 233.157,27.0504 239,31.5C 239.494,33.1341 239.66,34.8008 239.5,36.5C 241.013,38.2173 243.346,38.8839 246.5,38.5C 249.275,42.7511 251.775,47.0844 254,51.5C 254.232,50.2625 254.732,49.2625 255.5,48.5C 255.5,51.1667 255.5,53.8333 255.5,56.5C 254.512,61.6405 254.179,66.9738 254.5,72.5C 252.714,69.8747 250.714,67.3747 248.5,65C 248.957,64.586 249.291,64.086 249.5,63.5C 248.511,62.5318 247.844,61.3651 247.5,60C 249.224,57.5753 249.89,55.0753 249.5,52.5C 249.182,51.3527 248.516,50.5194 247.5,50C 248.248,46.5787 247.081,43.7453 244,41.5C 243.134,45.8065 242.134,46.1399 241,42.5C 240.667,43.1667 240.333,43.8333 240,44.5C 237.871,41.999 237.371,39.3324 238.5,36.5C 237.5,36.5 236.5,36.5 235.5,36.5C 234.874,33.3623 233.208,30.8623 230.5,29C 230.833,28.6667 231.167,28.3333 231.5,28C 227.009,23.8334 222.509,19.6668 218,15.5C 217.667,15.8333 217.333,16.1667 217,16.5C 216.667,15.5 216.333,14.5 216,13.5C 215.667,13.8333 215.333,14.1667 215,14.5C 213.122,12.3199 210.956,10.4865 208.5,9C 200.284,7.13799 192.45,4.30465 185,0.5C 184.722,1.4158 184.222,2.08247 183.5,2.5C 183.5,1.5 183.5,0.5 183.5,-0.5 Z"/></g>
<g><path style="opacity:1" fill="#000c11" d="M 193.5,-0.5 C 203.167,-0.5 212.833,-0.5 222.5,-0.5C 223.261,2.88594 225.261,5.05261 228.5,6C 231.527,9.40721 234.36,12.9072 237,16.5C 237.667,15.1667 238.333,15.1667 239,16.5C 239.691,14.1088 240.691,14.1088 242,16.5C 243.261,18.63 243.761,20.7967 243.5,23C 246.729,25.6161 250.396,27.1161 254.5,27.5C 254.216,25.5853 254.549,23.9187 255.5,22.5C 255.5,31.1667 255.5,39.8333 255.5,48.5C 254.732,49.2625 254.232,50.2625 254,51.5C 251.775,47.0844 249.275,42.7511 246.5,38.5C 243.346,38.8839 241.013,38.2173 239.5,36.5C 239.66,34.8008 239.494,33.1341 239,31.5C 233.157,27.0504 228.824,22.0504 226,16.5C 225.667,16.8333 225.333,17.1667 225,17.5C 223.587,15.5864 221.753,14.2531 219.5,13.5C 218.571,12.3112 218.238,10.9778 218.5,9.5C 216.159,9.00814 214.159,7.84148 212.5,6C 207.421,4.96019 202.421,3.62686 197.5,2C 195.934,1.3918 194.6,0.558465 193.5,-0.5 Z"/></g>
<g><path style="opacity:1" fill="#000508" d="M 222.5,-0.5 C 233.5,-0.5 244.5,-0.5 255.5,-0.5C 255.5,7.16667 255.5,14.8333 255.5,22.5C 254.549,23.9187 254.216,25.5853 254.5,27.5C 250.396,27.1161 246.729,25.6161 243.5,23C 243.761,20.7967 243.261,18.63 242,16.5C 240.691,14.1088 239.691,14.1088 239,16.5C 238.333,15.1667 237.667,15.1667 237,16.5C 234.36,12.9072 231.527,9.40721 228.5,6C 225.261,5.05261 223.261,2.88594 222.5,-0.5 Z"/></g>
<g><path style="opacity:1" fill="#001319" d="M 54.5,-0.5 C 57.1667,-0.5 59.8333,-0.5 62.5,-0.5C 62.5,0.833333 62.5,2.16667 62.5,3.5C 59.4803,6.18905 56.1469,8.52239 52.5,10.5C 48.4429,11.324 44.9429,13.6573 42,17.5C 41.586,17.0426 41.086,16.7093 40.5,16.5C 28.8333,23.5 19.5,32.8333 12.5,44.5C 11.4822,45.1925 10.4822,45.8592 9.5,46.5C 7.63968,45.0613 5.97302,43.3947 4.5,41.5C 4.27337,39.6598 4.77337,37.6598 6,35.5C 8.79048,31.0418 12.2905,27.2084 16.5,24C 21.2674,21.0688 25.6008,17.5688 29.5,13.5C 30.086,13.7093 30.586,14.0426 31,14.5C 34.3388,12.3266 37.1722,9.6599 39.5,6.5C 44.777,4.50417 49.777,2.17083 54.5,-0.5 Z"/></g>
<g><path style="opacity:1" fill="#0c1214" d="M 174.5,-0.5 C 176.167,-0.5 177.833,-0.5 179.5,-0.5C 179.5,2.83333 179.5,6.16667 179.5,9.5C 179.737,10.791 179.404,11.791 178.5,12.5C 177.576,8.06035 176.243,3.72701 174.5,-0.5 Z"/></g>
<g><path style="opacity:1" fill="#6d8f92" d="M 179.5,-0.5 C 180.833,-0.5 182.167,-0.5 183.5,-0.5C 183.5,0.5 183.5,1.5 183.5,2.5C 183.5,4.16667 183.5,5.83333 183.5,7.5C 181.349,3.71939 180.349,4.38606 180.5,9.5C 180.167,9.5 179.833,9.5 179.5,9.5C 179.5,6.16667 179.5,2.83333 179.5,-0.5 Z"/></g>
<g><path style="opacity:1" fill="#183845" d="M 98.5,-0.5 C 100.5,-0.5 102.5,-0.5 104.5,-0.5C 103.303,7.13771 102.303,14.8044 101.5,22.5C 100.265,19.6702 99.2655,16.6702 98.5,13.5C 99.3754,9.00193 99.3754,4.33526 98.5,-0.5 Z"/></g>
<g><path style="opacity:1" fill="#060c0a" d="M 62.5,-0.5 C 69.5,-0.5 76.5,-0.5 83.5,-0.5C 85.0709,4.19933 86.4042,8.86599 87.5,13.5C 87.2994,16.7281 87.6328,19.8948 88.5,23C 87.9444,24.0111 87.2778,24.8444 86.5,25.5C 82.4929,31.8521 80.4929,38.8521 80.5,46.5C 79.8333,52.5 79.1667,58.5 78.5,64.5C 77.7929,61.2139 77.4595,57.8806 77.5,54.5C 77.2236,40.9376 75.7236,27.6043 73,14.5C 73.3027,22.6424 73.8027,30.8091 74.5,39C 74.441,43.8556 73.7743,47.6889 72.5,50.5C 72.5046,52.6965 72.838,54.6965 73.5,56.5C 73.8023,59.3725 74.469,62.0392 75.5,64.5C 75.5,65.5 75.5,66.5 75.5,67.5C 74.8826,67.6107 74.3826,67.944 74,68.5C 73.4782,65.7187 72.3115,63.3854 70.5,61.5C 70.0578,57.8455 69.7244,54.1788 69.5,50.5C 69.6665,39.1618 69.4999,27.8284 69,16.5C 68.7368,11.9828 67.7368,7.64946 66,3.5C 66.2011,10.6549 66.7011,17.8216 67.5,25C 67.3333,27.1667 67.1667,29.3333 67,31.5C 66.8227,27.6437 66.3227,23.977 65.5,20.5C 65.8016,17.9407 65.4682,15.6074 64.5,13.5C 64.5,12.8333 64.5,12.1667 64.5,11.5C 64.5,11.1667 64.5,10.8333 64.5,10.5C 64.5905,7.84784 63.9238,5.51451 62.5,3.5C 62.5,2.16667 62.5,0.833333 62.5,-0.5 Z"/></g>
<g><path style="opacity:1" fill="#0e1d25" d="M 83.5,-0.5 C 88.5,-0.5 93.5,-0.5 98.5,-0.5C 99.3754,4.33526 99.3754,9.00193 98.5,13.5C 97.6618,13.1583 97.3284,12.4916 97.5,11.5C 97.0202,7.58558 95.8535,3.91891 94,0.5C 93.5034,2.80982 93.3367,5.14316 93.5,7.5C 93.6068,9.37857 93.1068,9.7119 92,8.5C 91.5829,5.57801 90.5829,2.91134 89,0.5C 88.9822,2.7972 89.1489,5.13053 89.5,7.5C 89.2964,9.68545 88.6298,11.6854 87.5,13.5C 86.4042,8.86599 85.0709,4.19933 83.5,-0.5 Z"/></g>
<g><path style="opacity:1" fill="#4c7986" d="M 97.5,11.5 C 96.8333,11.1667 96.1667,10.8333 95.5,10.5C 94.8333,9.5 94.1667,8.5 93.5,7.5C 93.3367,5.14316 93.5034,2.80982 94,0.5C 95.8535,3.91891 97.0202,7.58558 97.5,11.5 Z"/></g>
<g><path style="opacity:1" fill="#8cb9bf" d="M 145.5,-0.5 C 146.167,-0.5 146.833,-0.5 147.5,-0.5C 148.883,1.97794 149.883,4.64461 150.5,7.5C 149.883,7.61071 149.383,7.94404 149,8.5C 148.505,10.4727 148.338,12.4727 148.5,14.5C 146.707,14.1164 145.707,12.9497 145.5,11C 146.38,7.20009 146.38,3.36676 145.5,-0.5 Z"/></g>
<g><path style="opacity:1" fill="#0c202b" d="M 148.5,-0.5 C 155.833,-0.5 163.167,-0.5 170.5,-0.5C 172.706,4.90259 175.206,10.2359 178,15.5C 178.483,14.552 178.649,13.552 178.5,12.5C 179.404,11.791 179.737,10.791 179.5,9.5C 179.833,9.5 180.167,9.5 180.5,9.5C 180.5,13.5 180.5,17.5 180.5,21.5C 180.666,26.1785 180.499,30.8452 180,35.5C 177.913,37.7452 176.579,40.4119 176,43.5C 174.603,45.0703 173.103,46.4036 171.5,47.5C 169.278,47.822 167.444,47.1554 166,45.5C 162.45,32.1828 158.116,19.1828 153,6.5C 151.974,3.76131 150.474,1.42797 148.5,-0.5 Z"/></g>
<g><path style="opacity:1" fill="#305865" d="M 170.5,-0.5 C 171.833,-0.5 173.167,-0.5 174.5,-0.5C 176.243,3.72701 177.576,8.06035 178.5,12.5C 178.649,13.552 178.483,14.552 178,15.5C 175.206,10.2359 172.706,4.90259 170.5,-0.5 Z"/></g>
<g><path style="opacity:1" fill="#001c28" d="M 188.5,7.5 C 191.131,6.78382 193.631,7.45049 196,9.5C 197.667,9.16667 199.333,8.83333 201,8.5C 212.704,14.3543 222.704,22.3543 231,32.5C 233.252,39.0848 236.752,44.9181 241.5,50C 240.76,52.2717 240.76,54.2717 241.5,56C 243.56,58.012 245.06,60.1786 246,62.5C 246.651,68.9362 248.151,75.1029 250.5,81C 249.99,82.8261 249.156,82.9928 248,81.5C 247.833,82.1667 247.667,82.8333 247.5,83.5C 248.814,84.9863 249.814,86.653 250.5,88.5C 250.263,91.0635 249.763,91.0635 249,88.5C 248.097,89.7014 246.931,90.5348 245.5,91C 246.337,92.0113 246.67,93.1779 246.5,94.5C 242.397,102.828 237.397,110.161 231.5,116.5C 229.089,116.137 227.589,117.137 227,119.5C 226.329,118.748 225.496,118.414 224.5,118.5C 224.539,117.417 224.873,116.417 225.5,115.5C 226.934,114.77 228.1,113.77 229,112.5C 229.333,112.833 229.667,113.167 230,113.5C 231.19,110.8 233.023,108.633 235.5,107C 235.167,106.667 234.833,106.333 234.5,106C 237.714,102.274 240.047,98.4405 241.5,94.5C 241.167,93.8333 240.833,93.1667 240.5,92.5C 242.425,88.1851 243.758,83.6851 244.5,79C 243.337,73.9879 242.504,68.8213 242,63.5C 239.971,55.7417 236.971,48.4083 233,41.5C 229.838,36.0986 226.172,31.0986 222,26.5C 221.667,26.8333 221.333,27.1667 221,27.5C 216.827,22.9939 212.327,18.8272 207.5,15C 200.876,12.3038 194.543,9.80384 188.5,7.5 Z"/></g>
<g><path style="opacity:1" fill="#00222e" d="M 188.5,7.5 C 194.543,9.80384 200.876,12.3038 207.5,15C 212.327,18.8272 216.827,22.9939 221,27.5C 221.333,27.1667 221.667,26.8333 222,26.5C 226.172,31.0986 229.838,36.0986 233,41.5C 236.971,48.4083 239.971,55.7417 242,63.5C 242.504,68.8213 243.337,73.9879 244.5,79C 243.758,83.6851 242.425,88.1851 240.5,92.5C 240.833,93.1667 241.167,93.8333 241.5,94.5C 240.047,98.4405 237.714,102.274 234.5,106C 234.833,106.333 235.167,106.667 235.5,107C 233.023,108.633 231.19,110.8 230,113.5C 229.667,113.167 229.333,112.833 229,112.5C 228.1,113.77 226.934,114.77 225.5,115.5C 224.873,116.417 224.539,117.417 224.5,118.5C 224.611,119.117 224.944,119.617 225.5,120C 218.794,122.792 211.794,123.959 204.5,123.5C 203.508,123.672 202.842,123.338 202.5,122.5C 206.846,122.666 211.179,122.499 215.5,122C 215.167,121.667 214.833,121.333 214.5,121C 217.106,120.55 218.439,119.05 218.5,116.5C 219.552,116.649 220.552,116.483 221.5,116C 222.5,113.667 224.167,112 226.5,111C 225.346,110.086 225.513,109.253 227,108.5C 227.333,108.833 227.667,109.167 228,109.5C 230.151,106.349 232.651,103.516 235.5,101C 235.906,97.1122 237.239,93.6122 239.5,90.5C 237.913,88.5539 238.246,87.0539 240.5,86C 239.833,85.3333 239.167,84.6667 238.5,84C 243.424,79.9364 243.757,75.6031 239.5,71C 241.922,68.888 241.922,66.888 239.5,65C 240.654,64.0862 240.487,63.2529 239,62.5C 238.667,60.1667 238.333,57.8333 238,55.5C 232.475,43.2847 224.641,32.7847 214.5,24C 213.5,23.6667 212.5,23.3333 211.5,23C 212.451,22.2825 212.617,21.4491 212,20.5C 210.497,20.8346 209.164,20.8346 208,20.5C 206.3,17.8026 203.966,15.8026 201,14.5C 198.606,15.1359 196.106,15.1359 193.5,14.5C 193.881,12.0582 193.214,11.3915 191.5,12.5C 189.677,11.2528 187.677,10.5861 185.5,10.5C 185.5,12.1667 185.5,13.8333 185.5,15.5C 185.795,17.7354 185.461,19.7354 184.5,21.5C 184.815,17.6286 184.482,13.9619 183.5,10.5C 183.5,9.5 183.5,8.5 183.5,7.5C 184.404,6.79105 184.737,5.79105 184.5,4.5C 185.5,4.5 186.5,4.5 187.5,4.5C 187.263,5.79105 187.596,6.79105 188.5,7.5 Z"/></g>
<g><path style="opacity:1" fill="#001822" d="M 254.5,72.5 C 254.452,79.0283 253.285,85.3616 251,91.5C 249.249,92.2225 247.749,93.2225 246.5,94.5C 246.67,93.1779 246.337,92.0113 245.5,91C 246.931,90.5348 248.097,89.7014 249,88.5C 249.763,91.0635 250.263,91.0635 250.5,88.5C 249.814,86.653 248.814,84.9863 247.5,83.5C 247.667,82.8333 247.833,82.1667 248,81.5C 249.156,82.9928 249.99,82.8261 250.5,81C 248.151,75.1029 246.651,68.9362 246,62.5C 245.06,60.1786 243.56,58.012 241.5,56C 240.76,54.2717 240.76,52.2717 241.5,50C 236.752,44.9181 233.252,39.0848 231,32.5C 222.704,22.3543 212.704,14.3543 201,8.5C 199.333,8.83333 197.667,9.16667 196,9.5C 193.631,7.45049 191.131,6.78382 188.5,7.5C 187.596,6.79105 187.263,5.79105 187.5,4.5C 186.5,4.5 185.5,4.5 184.5,4.5C 184.737,5.79105 184.404,6.79105 183.5,7.5C 183.5,5.83333 183.5,4.16667 183.5,2.5C 184.222,2.08247 184.722,1.4158 185,0.5C 192.45,4.30465 200.284,7.13799 208.5,9C 210.956,10.4865 213.122,12.3199 215,14.5C 215.333,14.1667 215.667,13.8333 216,13.5C 216.333,14.5 216.667,15.5 217,16.5C 217.333,16.1667 217.667,15.8333 218,15.5C 222.509,19.6668 227.009,23.8334 231.5,28C 231.167,28.3333 230.833,28.6667 230.5,29C 233.208,30.8623 234.874,33.3623 235.5,36.5C 236.5,36.5 237.5,36.5 238.5,36.5C 237.371,39.3324 237.871,41.999 240,44.5C 240.333,43.8333 240.667,43.1667 241,42.5C 242.134,46.1399 243.134,45.8065 244,41.5C 247.081,43.7453 248.248,46.5787 247.5,50C 248.516,50.5194 249.182,51.3527 249.5,52.5C 249.89,55.0753 249.224,57.5753 247.5,60C 247.844,61.3651 248.511,62.5318 249.5,63.5C 249.291,64.086 248.957,64.586 248.5,65C 250.714,67.3747 252.714,69.8747 254.5,72.5 Z"/></g>
<g><path style="opacity:1" fill="#92b9bb" d="M 183.5,7.5 C 183.5,8.5 183.5,9.5 183.5,10.5C 183.5,11.1667 183.5,11.8333 183.5,12.5C 181.612,14.9878 180.945,17.9878 181.5,21.5C 181.167,21.5 180.833,21.5 180.5,21.5C 180.5,17.5 180.5,13.5 180.5,9.5C 180.349,4.38606 181.349,3.71939 183.5,7.5 Z"/></g>
<g><path style="opacity:1" fill="#57848f" d="M 144.5,-0.5 C 144.833,-0.5 145.167,-0.5 145.5,-0.5C 146.38,3.36676 146.38,7.20009 145.5,11C 145.707,12.9497 146.707,14.1164 148.5,14.5C 148.5,14.8333 148.5,15.1667 148.5,15.5C 148.077,16.2646 147.743,17.0979 147.5,18C 148.864,23.0765 149.53,28.2432 149.5,33.5C 148.883,33.3893 148.383,33.056 148,32.5C 146.585,34.3188 145.085,34.9854 143.5,34.5C 142.883,34.6107 142.383,34.944 142,35.5C 141.921,31.6423 141.254,27.9756 140,24.5C 138.956,25.6226 138.29,26.9559 138,28.5C 137.415,26.8707 136.581,25.3707 135.5,24C 136.452,22.6996 136.452,21.533 135.5,20.5C 134.148,21.5175 133.148,22.8508 132.5,24.5C 128.765,18.8814 128.765,13.3814 132.5,8C 134.199,7.60676 135.699,8.10676 137,9.5C 137.95,8.97771 138.784,8.31105 139.5,7.5C 140.62,8.8334 141.953,9.3334 143.5,9C 144.451,5.94325 144.784,2.77659 144.5,-0.5 Z"/></g>
<g><path style="opacity:1" fill="#294b59" d="M 135.5,3.5 C 136.338,3.84171 136.672,4.50838 136.5,5.5C 134.244,4.56153 131.91,4.56153 129.5,5.5C 127.582,11.6754 127.082,18.0088 128,24.5C 128.589,26.8633 130.089,27.8633 132.5,27.5C 132.229,29.3117 131.562,30.9783 130.5,32.5C 129.264,31.7542 127.93,31.4208 126.5,31.5C 126.425,28.7938 126.092,26.1272 125.5,23.5C 122.794,23.4249 120.127,23.0916 117.5,22.5C 118.359,18.4575 118.525,14.4575 118,10.5C 118.414,10.0426 118.914,9.70931 119.5,9.5C 120.695,11.297 122.362,12.297 124.5,12.5C 124.351,11.448 124.517,10.448 125,9.5C 127.376,8.62421 128.876,6.95755 129.5,4.5C 131.409,3.65178 133.409,3.31845 135.5,3.5 Z"/></g>
<g><path style="opacity:1" fill="#98bfc7" d="M 95.5,10.5 C 96.1667,10.8333 96.8333,11.1667 97.5,11.5C 97.3284,12.4916 97.6618,13.1583 98.5,13.5C 99.2655,16.6702 100.265,19.6702 101.5,22.5C 102.471,24.4832 103.471,26.4832 104.5,28.5C 104.762,29.9778 104.429,31.3112 103.5,32.5C 102.828,31.0508 102.161,29.7175 101.5,28.5C 98.9032,22.7097 96.9032,16.7097 95.5,10.5 Z"/></g>
<g><path style="opacity:1" fill="#3b626e" d="M 142.5,-0.5 C 143.167,-0.5 143.833,-0.5 144.5,-0.5C 144.784,2.77659 144.451,5.94325 143.5,9C 141.953,9.3334 140.62,8.8334 139.5,7.5C 138.784,8.31105 137.95,8.97771 137,9.5C 135.699,8.10676 134.199,7.60676 132.5,8C 128.765,13.3814 128.765,18.8814 132.5,24.5C 133.148,22.8508 134.148,21.5175 135.5,20.5C 136.452,21.533 136.452,22.6996 135.5,24C 136.581,25.3707 137.415,26.8707 138,28.5C 138.29,26.9559 138.956,25.6226 140,24.5C 141.254,27.9756 141.921,31.6423 142,35.5C 142.383,34.944 142.883,34.6107 143.5,34.5C 142.189,39.0611 141.522,43.7277 141.5,48.5C 139.732,44.9558 138.898,40.9558 139,36.5C 137.187,37.6091 136.354,36.9424 136.5,34.5C 135.5,34.5 134.5,34.5 133.5,34.5C 133.802,31.9407 133.468,29.6074 132.5,27.5C 130.089,27.8633 128.589,26.8633 128,24.5C 127.082,18.0088 127.582,11.6754 129.5,5.5C 131.91,4.56153 134.244,4.56153 136.5,5.5C 140.824,6.521 142.824,4.521 142.5,-0.5 Z"/></g>
<g><path style="opacity:1" fill="#00384b" d="M 185.5,15.5 C 188.8,16.9791 191.966,18.6458 195,20.5C 195.414,20.0426 195.914,19.7093 196.5,19.5C 199.599,23.3458 203.599,25.6791 208.5,26.5C 213.529,32.1921 218.529,37.8588 223.5,43.5C 222.45,45.1017 223.117,45.935 225.5,46C 224.978,46.5613 224.645,47.228 224.5,48C 225.606,49.8582 226.606,51.6915 227.5,53.5C 227.052,56.4872 225.552,57.4872 223,56.5C 220.4,51.8305 218.567,46.8305 217.5,41.5C 214.414,37.3877 210.747,33.8877 206.5,31C 204.632,30.9962 202.798,31.4962 201,32.5C 196.463,27.7892 191.63,25.4559 186.5,25.5C 186.649,24.448 186.483,23.448 186,22.5C 185.503,25.146 185.336,27.8127 185.5,30.5C 185.167,30.5 184.833,30.5 184.5,30.5C 184.5,27.5 184.5,24.5 184.5,21.5C 185.461,19.7354 185.795,17.7354 185.5,15.5 Z"/></g>
<g><path style="opacity:1" fill="#305158" d="M 157.5,6.5 C 160.384,11.2402 163.551,15.9069 167,20.5C 167.815,22.6228 168.815,24.6228 170,26.5C 170.781,27.9437 170.614,29.277 169.5,30.5C 166.663,24.1513 163.163,18.1513 159,12.5C 157.872,10.6547 157.372,8.65472 157.5,6.5 Z"/></g>
<g><path style="opacity:1" fill="#001923" d="M 62.5,3.5 C 63.9238,5.51451 64.5905,7.84784 64.5,10.5C 63.7321,9.73747 63.2321,8.73747 63,7.5C 62.6258,8.41623 62.1258,9.24956 61.5,10C 58.4225,11.914 55.0892,13.0807 51.5,13.5C 51.6495,14.552 51.4828,15.552 51,16.5C 49.9505,15.4829 48.7839,15.3162 47.5,16C 41.3041,19.6322 35.3041,23.6322 29.5,28C 28.552,28.4828 27.552,28.6495 26.5,28.5C 26.6567,29.8734 26.49,31.2068 26,32.5C 23.708,33.7899 21.708,35.4565 20,37.5C 17.9536,41.6313 15.4536,45.298 12.5,48.5C 11.391,48.4431 10.391,48.1098 9.5,47.5C 9.5,47.1667 9.5,46.8333 9.5,46.5C 10.4822,45.8592 11.4822,45.1925 12.5,44.5C 19.5,32.8333 28.8333,23.5 40.5,16.5C 41.086,16.7093 41.586,17.0426 42,17.5C 44.9429,13.6573 48.4429,11.324 52.5,10.5C 56.1469,8.52239 59.4803,6.18905 62.5,3.5 Z"/></g>
<g><path style="opacity:1" fill="#0e232f" d="M 104.5,-0.5 C 113.5,-0.5 122.5,-0.5 131.5,-0.5C 128.642,0.165957 125.642,0.832624 122.5,1.5C 121.96,2.7481 121.293,3.91476 120.5,5C 118.167,5.33333 115.833,5.66667 113.5,6C 112.751,7.73369 112.251,9.56702 112,11.5C 105.431,17.0955 104.931,23.5955 110.5,31C 111.833,31.3333 113.167,31.6667 114.5,32C 114.594,34.4068 114.427,36.9068 114,39.5C 115.494,38.2528 116.994,38.2528 118.5,39.5C 118.291,40.086 117.957,40.586 117.5,41C 119.001,42.2515 120.668,43.2515 122.5,44C 122.272,44.3988 121.938,44.5654 121.5,44.5C 118.419,43.4618 115.419,42.1285 112.5,40.5C 109.377,36.7282 106.711,32.7282 104.5,28.5C 103.471,26.4832 102.471,24.4832 101.5,22.5C 102.303,14.8044 103.303,7.13771 104.5,-0.5 Z"/></g>
<g><path style="opacity:1" fill="#bbe6ec" d="M 150.5,7.5 C 152.941,13.5954 154.608,19.9287 155.5,26.5C 155.662,28.5273 155.495,30.5273 155,32.5C 154.667,31.8333 154.333,31.1667 154,30.5C 153,32.1667 152,33.8333 151,35.5C 150.71,28.6204 149.877,21.9537 148.5,15.5C 148.5,15.1667 148.5,14.8333 148.5,14.5C 148.338,12.4727 148.505,10.4727 149,8.5C 149.383,7.94404 149.883,7.61071 150.5,7.5 Z"/></g>
<g><path style="opacity:1" fill="#5f8790" d="M 98.5,33.5 C 97.3586,30.7458 96.0252,28.0791 94.5,25.5C 94.1667,24.1667 93.8333,22.8333 93.5,21.5C 93.81,20.2617 94.31,20.2617 95,21.5C 96.8808,25.3072 98.0474,29.3072 98.5,33.5 Z"/></g>
<g><path style="opacity:1" fill="#c1ebee" d="M 183.5,12.5 C 183.83,19.1998 183.497,25.8665 182.5,32.5C 181.511,28.8927 181.177,25.226 181.5,21.5C 180.945,17.9878 181.612,14.9878 183.5,12.5 Z"/></g>
<g><path style="opacity:1" fill="#033546" d="M 64.5,13.5 C 65.4682,15.6074 65.8016,17.9407 65.5,20.5C 65.5,21.5 65.5,22.5 65.5,23.5C 64.8826,23.3893 64.3826,23.056 64,22.5C 63.51,23.7932 63.3433,25.1266 63.5,26.5C 62.448,26.3505 61.448,26.5172 60.5,27C 60.8333,27.3333 61.1667,27.6667 61.5,28C 59.9194,28.7065 58.4194,29.5399 57,30.5C 54.7891,30.3775 52.6225,30.3775 50.5,30.5C 48.1638,32.7996 45.3304,34.133 42,34.5C 39.3174,36.85 36.9841,39.5167 35,42.5C 32.5868,47.9222 30.0868,53.2555 27.5,58.5C 27.8333,59.1667 28.1667,59.8333 28.5,60.5C 27.3887,61.6113 26.722,62.9446 26.5,64.5C 29.4819,68.66 33.4819,71.3267 38.5,72.5C 38.615,74.9468 39.615,76.9468 41.5,78.5C 37.4351,77.6494 33.4351,76.4827 29.5,75C 23.9415,68.4883 18.2748,61.9883 12.5,55.5C 12.369,54.7611 12.5357,54.0944 13,53.5C 16.69,55.628 20.5233,56.2946 24.5,55.5C 25.4728,49.8619 27.8061,44.8619 31.5,40.5C 32.2739,39.2888 33.1072,39.2888 34,40.5C 34.4293,37.0241 36.0959,34.3575 39,32.5C 39.49,31.2068 39.6567,29.8734 39.5,28.5C 42.667,28.5999 45.667,27.9332 48.5,26.5C 49.2811,25.2713 49.7811,23.938 50,22.5C 50.3333,22.8333 50.6667,23.1667 51,23.5C 55.4787,20.0238 59.9787,16.6905 64.5,13.5 Z"/></g>
<g><path style="opacity:1" fill="#1f4a5a" d="M 94.5,25.5 C 96.0252,28.0791 97.3586,30.7458 98.5,33.5C 97.162,40.2247 96.162,46.8914 95.5,53.5C 93.8189,44.0487 93.4856,34.7154 94.5,25.5 Z"/></g>
<g><path style="opacity:1" fill="#042c35" d="M 69.5,50.5 C 68.8333,48.8333 68.1667,47.1667 67.5,45.5C 67.2833,41.2949 66.6167,37.2949 65.5,33.5C 65.5,30.1667 65.5,26.8333 65.5,23.5C 65.5,22.5 65.5,21.5 65.5,20.5C 66.3227,23.977 66.8227,27.6437 67,31.5C 67.1667,29.3333 67.3333,27.1667 67.5,25C 66.7011,17.8216 66.2011,10.6549 66,3.5C 67.7368,7.64946 68.7368,11.9828 69,16.5C 69.4999,27.8284 69.6665,39.1618 69.5,50.5 Z"/></g>
<g><path style="opacity:1" fill="#122b39" d="M 131.5,-0.5 C 135.167,-0.5 138.833,-0.5 142.5,-0.5C 142.824,4.521 140.824,6.521 136.5,5.5C 136.672,4.50838 136.338,3.84171 135.5,3.5C 135.209,2.35089 134.376,1.68423 133,1.5C 130.538,2.15946 128.038,2.4928 125.5,2.5C 125.677,4.98055 124.677,6.81388 122.5,8C 120.203,8.01779 117.869,7.85112 115.5,7.5C 115.808,9.92397 115.474,12.2573 114.5,14.5C 112.616,15.1147 111.616,16.448 111.5,18.5C 112.513,21.1158 113.347,23.7825 114,26.5C 116.557,28.3142 119.224,28.6475 122,27.5C 123.131,32.3769 125.298,36.7103 128.5,40.5C 129.251,39.624 129.751,38.624 130,37.5C 130.725,40.3766 130.225,43.0433 128.5,45.5C 130.325,46.5709 131.492,45.9042 132,43.5C 132.333,41.8333 132.667,40.1667 133,38.5C 133.287,40.8907 133.787,43.2241 134.5,45.5C 135.98,46.1131 137.313,46.4464 138.5,46.5C 136.827,48.0863 134.827,48.7529 132.5,48.5C 128.356,48.2231 124.689,46.8897 121.5,44.5C 121.938,44.5654 122.272,44.3988 122.5,44C 120.668,43.2515 119.001,42.2515 117.5,41C 117.957,40.586 118.291,40.086 118.5,39.5C 116.994,38.2528 115.494,38.2528 114,39.5C 114.427,36.9068 114.594,34.4068 114.5,32C 113.167,31.6667 111.833,31.3333 110.5,31C 104.931,23.5955 105.431,17.0955 112,11.5C 112.251,9.56702 112.751,7.73369 113.5,6C 115.833,5.66667 118.167,5.33333 120.5,5C 121.293,3.91476 121.96,2.7481 122.5,1.5C 125.642,0.832624 128.642,0.165957 131.5,-0.5 Z"/></g>
<g><path style="opacity:1" fill="#74a7b4" d="M 148.5,15.5 C 149.877,21.9537 150.71,28.6204 151,35.5C 152,33.8333 153,32.1667 154,30.5C 154.333,31.1667 154.667,31.8333 155,32.5C 155.495,30.5273 155.662,28.5273 155.5,26.5C 156.158,27.7933 156.492,29.2933 156.5,31C 155.388,34.0892 154.722,36.9225 154.5,39.5C 154.483,37.9719 153.816,37.4719 152.5,38C 151.209,39.2917 151.209,40.4583 152.5,41.5C 152.5,42.1667 152.167,42.5 151.5,42.5C 149.952,42.1788 149.285,41.1788 149.5,39.5C 149.5,37.5 149.5,35.5 149.5,33.5C 149.53,28.2432 148.864,23.0765 147.5,18C 147.743,17.0979 148.077,16.2646 148.5,15.5 Z"/></g>
<g><path style="opacity:1" fill="#00202c" d="M 64.5,10.5 C 64.5,10.8333 64.5,11.1667 64.5,11.5C 61.3359,12.1631 58.8359,13.8298 57,16.5C 56.2825,15.5494 55.4491,15.3828 54.5,16C 52.7866,17.3782 51.4533,19.0448 50.5,21C 49.2161,21.6838 48.0495,21.5171 47,20.5C 46.0701,22.5524 44.5701,24.0524 42.5,25C 41.5509,25.6172 40.7175,25.4506 40,24.5C 38.7494,27.3807 36.5827,29.214 33.5,30C 30.4835,33.0165 27.4835,36.0165 24.5,39C 25.4506,39.7175 25.6172,40.5509 25,41.5C 23.5979,43.6334 21.7646,45.3001 19.5,46.5C 19.7093,47.086 20.0426,47.586 20.5,48C 19.2298,48.8996 18.2298,50.0663 17.5,51.5C 15.2406,51.2155 13.5739,50.2155 12.5,48.5C 15.4536,45.298 17.9536,41.6313 20,37.5C 21.708,35.4565 23.708,33.7899 26,32.5C 26.49,31.2068 26.6567,29.8734 26.5,28.5C 27.552,28.6495 28.552,28.4828 29.5,28C 35.3041,23.6322 41.3041,19.6322 47.5,16C 48.7839,15.3162 49.9505,15.4829 51,16.5C 51.4828,15.552 51.6495,14.552 51.5,13.5C 55.0892,13.0807 58.4225,11.914 61.5,10C 62.1258,9.24956 62.6258,8.41623 63,7.5C 63.2321,8.73747 63.7321,9.73747 64.5,10.5 Z"/></g>
<g><path style="opacity:1" fill="#1e3b49" d="M 135.5,3.5 C 133.409,3.31845 131.409,3.65178 129.5,4.5C 128.876,6.95755 127.376,8.62421 125,9.5C 124.517,10.448 124.351,11.448 124.5,12.5C 122.362,12.297 120.695,11.297 119.5,9.5C 118.914,9.70931 118.414,10.0426 118,10.5C 118.525,14.4575 118.359,18.4575 117.5,22.5C 120.127,23.0916 122.794,23.4249 125.5,23.5C 126.092,26.1272 126.425,28.7938 126.5,31.5C 127.93,31.4208 129.264,31.7542 130.5,32.5C 131.562,30.9783 132.229,29.3117 132.5,27.5C 133.468,29.6074 133.802,31.9407 133.5,34.5C 134.5,34.5 135.5,34.5 136.5,34.5C 136.354,36.9424 137.187,37.6091 139,36.5C 138.898,40.9558 139.732,44.9558 141.5,48.5C 141.167,49.1667 140.833,49.8333 140.5,50.5C 137.505,50.7062 134.838,50.0395 132.5,48.5C 134.827,48.7529 136.827,48.0863 138.5,46.5C 137.313,46.4464 135.98,46.1131 134.5,45.5C 133.787,43.2241 133.287,40.8907 133,38.5C 132.667,40.1667 132.333,41.8333 132,43.5C 131.492,45.9042 130.325,46.5709 128.5,45.5C 130.225,43.0433 130.725,40.3766 130,37.5C 129.751,38.624 129.251,39.624 128.5,40.5C 125.298,36.7103 123.131,32.3769 122,27.5C 119.224,28.6475 116.557,28.3142 114,26.5C 113.347,23.7825 112.513,21.1158 111.5,18.5C 111.616,16.448 112.616,15.1147 114.5,14.5C 115.474,12.2573 115.808,9.92397 115.5,7.5C 117.869,7.85112 120.203,8.01779 122.5,8C 124.677,6.81388 125.677,4.98055 125.5,2.5C 128.038,2.4928 130.538,2.15946 133,1.5C 134.376,1.68423 135.209,2.35089 135.5,3.5 Z"/></g>
<g><path style="opacity:1" fill="#c9ebef" d="M 154.5,39.5 C 153.5,39.8333 152.833,40.5 152.5,41.5C 151.209,40.4583 151.209,39.2917 152.5,38C 153.816,37.4719 154.483,37.9719 154.5,39.5 Z"/></g>
<g><path style="opacity:1" fill="#397284" d="M 183.5,10.5 C 184.482,13.9619 184.815,17.6286 184.5,21.5C 184.5,24.5 184.5,27.5 184.5,30.5C 184.296,32.6854 183.63,34.6854 182.5,36.5C 181.323,38.6794 180.323,41.0128 179.5,43.5C 177.371,45.3823 175.038,47.0489 172.5,48.5C 171.893,48.3764 171.56,48.0431 171.5,47.5C 173.103,46.4036 174.603,45.0703 176,43.5C 176.579,40.4119 177.913,37.7452 180,35.5C 180.499,30.8452 180.666,26.1785 180.5,21.5C 180.833,21.5 181.167,21.5 181.5,21.5C 181.177,25.226 181.511,28.8927 182.5,32.5C 183.497,25.8665 183.83,19.1998 183.5,12.5C 183.5,11.8333 183.5,11.1667 183.5,10.5 Z"/></g>
<g><path style="opacity:1" fill="#255365" d="M 101.5,28.5 C 102.161,29.7175 102.828,31.0508 103.5,32.5C 104.429,31.3112 104.762,29.9778 104.5,28.5C 106.711,32.7282 109.377,36.7282 112.5,40.5C 111.668,41.3285 112.001,42.1618 113.5,43C 118.38,45.6067 123.38,47.94 128.5,50C 126.321,49.716 124.321,49.8826 122.5,50.5C 120.451,50.7058 120.117,51.5391 121.5,53C 120.207,53.49 118.873,53.6567 117.5,53.5C 114.742,52.0335 115.075,51.3668 118.5,51.5C 118.5,50.5 118.5,49.5 118.5,48.5C 114.377,47.5222 110.543,45.8555 107,43.5C 105.351,44.8977 104.018,44.5644 103,42.5C 102.235,39.8041 101.068,37.3041 99.5,35C 100.669,32.9935 101.335,30.8268 101.5,28.5 Z"/></g>
<g><path style="opacity:1" fill="#006a83" d="M 207.5,79.5 C 205.77,83.6515 203.103,86.9849 199.5,89.5C 199.5,88.5 199.5,87.5 199.5,86.5C 195.901,86.7381 195.567,85.7381 198.5,83.5C 198.868,81.4935 198.368,79.4935 197,77.5C 195.927,78.2797 194.76,78.113 193.5,77C 195.483,74.9129 196.817,72.4129 197.5,69.5C 198.895,70.8146 199.895,70.4812 200.5,68.5C 198.78,68.2537 196.78,68.2537 194.5,68.5C 195.783,65.9896 196.783,63.3229 197.5,60.5C 193.044,60.1038 192.71,59.1038 196.5,57.5C 196,57.1667 195.5,56.8333 195,56.5C 193.838,57.1868 192.672,57.3534 191.5,57C 192.451,56.2825 192.617,55.4491 192,54.5C 190.89,52.7571 189.39,51.4238 187.5,50.5C 188.476,48.8767 187.976,47.5433 186,46.5C 185.667,47.5 185.333,48.5 185,49.5C 184.809,47.2922 184.309,45.2922 183.5,43.5C 183.5,43.1667 183.5,42.8333 183.5,42.5C 184.317,40.0314 184.817,37.3647 185,34.5C 185.333,36.1667 185.667,37.8333 186,39.5C 186.414,39.0426 186.914,38.7093 187.5,38.5C 191.386,41.9302 195.053,45.5968 198.5,49.5C 198.291,50.086 197.957,50.586 197.5,51C 199.329,51.2735 200.829,52.1068 202,53.5C 203.833,56.6667 205.667,59.8333 207.5,63C 204.972,64.0174 204.972,65.1841 207.5,66.5C 205.926,67.9842 204.593,69.6508 203.5,71.5C 206.009,73.5896 205.675,75.4229 202.5,77C 203.833,77.6667 203.833,78.3333 202.5,79C 203,79.5 203.5,80 204,80.5C 205.011,79.6634 206.178,79.33 207.5,79.5 Z"/></g>
<g><path style="opacity:1" fill="#005a74" d="M 184.5,30.5 C 184.833,30.5 185.167,30.5 185.5,30.5C 188.658,30.7752 190.658,32.4419 191.5,35.5C 193.865,34.7108 196.199,35.0441 198.5,36.5C 201.686,39.5209 205.02,42.3542 208.5,45C 207.833,45.3333 207.167,45.6667 206.5,46C 208.32,46.9794 209.487,48.4794 210,50.5C 210.333,50.1667 210.667,49.8333 211,49.5C 211.492,50.549 211.326,51.549 210.5,52.5C 211.729,53.2811 213.062,53.7811 214.5,54C 212.987,56.4541 213.654,58.1207 216.5,59C 214.012,60.6852 214.345,62.0186 217.5,63C 215.018,64.4606 215.018,65.9606 217.5,67.5C 214.514,71.817 211.18,75.817 207.5,79.5C 206.178,79.33 205.011,79.6634 204,80.5C 203.5,80 203,79.5 202.5,79C 203.833,78.3333 203.833,77.6667 202.5,77C 205.675,75.4229 206.009,73.5896 203.5,71.5C 204.593,69.6508 205.926,67.9842 207.5,66.5C 204.972,65.1841 204.972,64.0174 207.5,63C 205.667,59.8333 203.833,56.6667 202,53.5C 200.829,52.1068 199.329,51.2735 197.5,51C 197.957,50.586 198.291,50.086 198.5,49.5C 195.053,45.5968 191.386,41.9302 187.5,38.5C 186.914,38.7093 186.414,39.0426 186,39.5C 185.667,37.8333 185.333,36.1667 185,34.5C 184.817,37.3647 184.317,40.0314 183.5,42.5C 183.795,40.2646 183.461,38.2646 182.5,36.5C 183.63,34.6854 184.296,32.6854 184.5,30.5 Z"/></g>
<g><path style="opacity:1" fill="#012a3a" d="M 64.5,11.5 C 64.5,12.1667 64.5,12.8333 64.5,13.5C 59.9787,16.6905 55.4787,20.0238 51,23.5C 50.6667,23.1667 50.3333,22.8333 50,22.5C 49.7811,23.938 49.2811,25.2713 48.5,26.5C 45.667,27.9332 42.667,28.5999 39.5,28.5C 39.6567,29.8734 39.49,31.2068 39,32.5C 36.0959,34.3575 34.4293,37.0241 34,40.5C 33.1072,39.2888 32.2739,39.2888 31.5,40.5C 27.8061,44.8619 25.4728,49.8619 24.5,55.5C 20.5233,56.2946 16.69,55.628 13,53.5C 12.5357,54.0944 12.369,54.7611 12.5,55.5C 10.364,53.1877 8.36396,50.6877 6.5,48C 7.44802,47.5172 8.44802,47.3505 9.5,47.5C 10.391,48.1098 11.391,48.4431 12.5,48.5C 13.5739,50.2155 15.2406,51.2155 17.5,51.5C 18.2298,50.0663 19.2298,48.8996 20.5,48C 20.0426,47.586 19.7093,47.086 19.5,46.5C 21.7646,45.3001 23.5979,43.6334 25,41.5C 25.6172,40.5509 25.4506,39.7175 24.5,39C 27.4835,36.0165 30.4835,33.0165 33.5,30C 36.5827,29.214 38.7494,27.3807 40,24.5C 40.7175,25.4506 41.5509,25.6172 42.5,25C 44.5701,24.0524 46.0701,22.5524 47,20.5C 48.0495,21.5171 49.2161,21.6838 50.5,21C 51.4533,19.0448 52.7866,17.3782 54.5,16C 55.4491,15.3828 56.2825,15.5494 57,16.5C 58.8359,13.8298 61.3359,12.1631 64.5,11.5 Z"/></g>
<g><path style="opacity:1" fill="#072327" d="M 77.5,54.5 C 76.6467,59.8039 75.48,59.8039 74,54.5C 73.5357,55.0944 73.369,55.7611 73.5,56.5C 72.838,54.6965 72.5046,52.6965 72.5,50.5C 73.7743,47.6889 74.441,43.8556 74.5,39C 73.8027,30.8091 73.3027,22.6424 73,14.5C 75.7236,27.6043 77.2236,40.9376 77.5,54.5 Z"/></g>
<g><path style="opacity:1" fill="#254653" d="M 149.5,33.5 C 149.5,35.5 149.5,37.5 149.5,39.5C 148.833,41.5 148.167,43.5 147.5,45.5C 147.66,43.8008 147.494,42.1341 147,40.5C 145.365,43.4828 143.532,46.1495 141.5,48.5C 141.522,43.7277 142.189,39.0611 143.5,34.5C 145.085,34.9854 146.585,34.3188 148,32.5C 148.383,33.056 148.883,33.3893 149.5,33.5 Z"/></g>
<g><path style="opacity:1" fill="#123242" d="M 182.5,36.5 C 183.461,38.2646 183.795,40.2646 183.5,42.5C 183.5,42.8333 183.5,43.1667 183.5,43.5C 183.795,45.7354 183.461,47.7354 182.5,49.5C 182.66,47.8008 182.494,46.1341 182,44.5C 181.869,47.3712 180.703,49.7046 178.5,51.5C 171.994,54.2544 165.66,57.2544 159.5,60.5C 159.334,54.4908 159.501,48.4908 160,42.5C 160.788,46.5733 161.788,50.5733 163,54.5C 163.333,53.5 163.667,52.5 164,51.5C 165.489,53.3318 167.322,54.1652 169.5,54C 172.532,51.0591 175.698,48.2257 179,45.5C 179.464,44.9056 179.631,44.2389 179.5,43.5C 180.323,41.0128 181.323,38.6794 182.5,36.5 Z"/></g>
<g><path style="opacity:1" fill="#034861" d="M 227.5,53.5 C 228.65,52.1498 229.317,52.3164 229.5,54C 227.889,56.2097 227.222,58.7097 227.5,61.5C 227.5,61.8333 227.5,62.1667 227.5,62.5C 226.222,62.7822 225.222,63.4489 224.5,64.5C 223.833,64.8333 223.167,65.1667 222.5,65.5C 222.631,64.6236 222.298,63.9569 221.5,63.5C 220.479,65.188 219.145,66.5213 217.5,67.5C 215.018,65.9606 215.018,64.4606 217.5,63C 214.345,62.0186 214.012,60.6852 216.5,59C 213.654,58.1207 212.987,56.4541 214.5,54C 213.062,53.7811 211.729,53.2811 210.5,52.5C 211.326,51.549 211.492,50.549 211,49.5C 210.667,49.8333 210.333,50.1667 210,50.5C 209.487,48.4794 208.32,46.9794 206.5,46C 207.167,45.6667 207.833,45.3333 208.5,45C 205.02,42.3542 201.686,39.5209 198.5,36.5C 196.199,35.0441 193.865,34.7108 191.5,35.5C 190.658,32.4419 188.658,30.7752 185.5,30.5C 185.336,27.8127 185.503,25.146 186,22.5C 186.483,23.448 186.649,24.448 186.5,25.5C 191.63,25.4559 196.463,27.7892 201,32.5C 202.798,31.4962 204.632,30.9962 206.5,31C 210.747,33.8877 214.414,37.3877 217.5,41.5C 218.567,46.8305 220.4,51.8305 223,56.5C 225.552,57.4872 227.052,56.4872 227.5,53.5 Z"/></g>
<g><path style="opacity:1" fill="#5d8e9b" d="M 149.5,39.5 C 149.285,41.1788 149.952,42.1788 151.5,42.5C 147.751,52.663 140.918,55.3297 131,50.5C 129.437,51.1021 129.604,51.9354 131.5,53C 131.272,53.3988 130.938,53.5654 130.5,53.5C 127.833,52.5 125.167,51.5 122.5,50.5C 124.321,49.8826 126.321,49.716 128.5,50C 123.38,47.94 118.38,45.6067 113.5,43C 112.001,42.1618 111.668,41.3285 112.5,40.5C 115.419,42.1285 118.419,43.4618 121.5,44.5C 124.689,46.8897 128.356,48.2231 132.5,48.5C 134.838,50.0395 137.505,50.7062 140.5,50.5C 144.215,50.7868 146.548,49.1201 147.5,45.5C 148.167,43.5 148.833,41.5 149.5,39.5 Z"/></g>
<g><path style="opacity:1" fill="#102736" d="M 147.5,45.5 C 146.548,49.1201 144.215,50.7868 140.5,50.5C 140.833,49.8333 141.167,49.1667 141.5,48.5C 143.532,46.1495 145.365,43.4828 147,40.5C 147.494,42.1341 147.66,43.8008 147.5,45.5 Z"/></g>
<g><path style="opacity:1" fill="#01455d" d="M 65.5,23.5 C 65.5,26.8333 65.5,30.1667 65.5,33.5C 64.3121,34.6843 63.1455,34.6843 62,33.5C 60.8118,34.5634 60.3118,35.8967 60.5,37.5C 58.8014,37.6204 57.1347,37.9537 55.5,38.5C 54.3527,38.1822 53.5194,37.5156 53,36.5C 50.1312,39.7041 46.9646,42.5374 43.5,45C 43.9574,45.414 44.2907,45.914 44.5,46.5C 40.6164,51.0322 37.6164,56.0322 35.5,61.5C 35.7777,64.0666 35.9444,66.7333 36,69.5C 36.3826,70.056 36.8826,70.3893 37.5,70.5C 37.8333,71.1667 38.1667,71.8333 38.5,72.5C 33.4819,71.3267 29.4819,68.66 26.5,64.5C 26.722,62.9446 27.3887,61.6113 28.5,60.5C 28.1667,59.8333 27.8333,59.1667 27.5,58.5C 30.0868,53.2555 32.5868,47.9222 35,42.5C 36.9841,39.5167 39.3174,36.85 42,34.5C 45.3304,34.133 48.1638,32.7996 50.5,30.5C 52.6225,30.3775 54.7891,30.3775 57,30.5C 58.4194,29.5399 59.9194,28.7065 61.5,28C 61.1667,27.6667 60.8333,27.3333 60.5,27C 61.448,26.5172 62.448,26.3505 63.5,26.5C 63.3433,25.1266 63.51,23.7932 64,22.5C 64.3826,23.056 64.8826,23.3893 65.5,23.5 Z"/></g>
<g><path style="opacity:1" fill="#1d495d" d="M 147.5,-0.5 C 147.833,-0.5 148.167,-0.5 148.5,-0.5C 150.474,1.42797 151.974,3.76131 153,6.5C 158.116,19.1828 162.45,32.1828 166,45.5C 167.444,47.1554 169.278,47.822 171.5,47.5C 171.56,48.0431 171.893,48.3764 172.5,48.5C 175.038,47.0489 177.371,45.3823 179.5,43.5C 179.631,44.2389 179.464,44.9056 179,45.5C 175.698,48.2257 172.532,51.0591 169.5,54C 167.322,54.1652 165.489,53.3318 164,51.5C 163.667,52.5 163.333,53.5 163,54.5C 161.788,50.5733 160.788,46.5733 160,42.5C 159.501,48.4908 159.334,54.4908 159.5,60.5C 159.167,60.5 158.833,60.5 158.5,60.5C 155.162,60.8909 154.162,59.7243 155.5,57C 154.746,52.2054 154.246,47.372 154,42.5C 153.881,47.2824 153.215,51.9491 152,56.5C 150.817,57.731 149.651,57.731 148.5,56.5C 149.988,54.1143 149.655,53.4476 147.5,54.5C 144.476,54.325 141.31,53.9916 138,53.5C 136.97,53.8361 136.47,54.5028 136.5,55.5C 135.167,55.5 133.833,55.5 132.5,55.5C 132.167,55.5 131.833,55.5 131.5,55.5C 131.167,54.8333 130.833,54.1667 130.5,53.5C 130.938,53.5654 131.272,53.3988 131.5,53C 129.604,51.9354 129.437,51.1021 131,50.5C 140.918,55.3297 147.751,52.663 151.5,42.5C 152.167,42.5 152.5,42.1667 152.5,41.5C 152.833,40.5 153.5,39.8333 154.5,39.5C 154.722,36.9225 155.388,34.0892 156.5,31C 156.492,29.2933 156.158,27.7933 155.5,26.5C 154.608,19.9287 152.941,13.5954 150.5,7.5C 149.883,4.64461 148.883,1.97794 147.5,-0.5 Z"/></g>
<g><path style="opacity:1" fill="#006881" d="M 64.5,46.5 C 60.6569,50.6001 60.6569,55.2668 64.5,60.5C 63.0333,60.723 61.5333,61.0563 60,61.5C 59.6667,60.8333 59.3333,60.1667 59,59.5C 58.1004,60.7702 56.9337,61.7702 55.5,62.5C 54.0235,65.7011 52.8568,69.3678 52,73.5C 49.8424,74.0502 49.3424,75.0502 50.5,76.5C 46.1549,76.1628 42.1549,74.8294 38.5,72.5C 38.1667,71.8333 37.8333,71.1667 37.5,70.5C 38.9187,69.5489 40.5853,69.2155 42.5,69.5C 43.0233,66.1102 43.8566,62.7769 45,59.5C 47.4851,55.7511 49.4851,51.7511 51,47.5C 52,51.5 53,51.5 54,47.5C 57.4294,51.8312 59.9294,51.4978 61.5,46.5C 62.5,46.5 63.5,46.5 64.5,46.5 Z"/></g>
<g><path style="opacity:1" fill="#133444" d="M 122.5,50.5 C 125.167,51.5 127.833,52.5 130.5,53.5C 130.833,54.1667 131.167,54.8333 131.5,55.5C 126.609,55.4681 121.943,54.8015 117.5,53.5C 118.873,53.6567 120.207,53.49 121.5,53C 120.117,51.5391 120.451,50.7058 122.5,50.5 Z"/></g>
<g><path style="opacity:1" fill="#214349" d="M 80.5,46.5 C 80.5,53.1667 80.5,59.8333 80.5,66.5C 80.631,67.2389 80.4643,67.9056 80,68.5C 79.2086,67.255 78.7086,65.9217 78.5,64.5C 79.1667,58.5 79.8333,52.5 80.5,46.5 Z"/></g>
<g><path style="opacity:1" fill="#48707c" d="M 147.5,54.5 C 143.936,55.4227 140.269,55.756 136.5,55.5C 136.47,54.5028 136.97,53.8361 138,53.5C 141.31,53.9916 144.476,54.325 147.5,54.5 Z"/></g>
<g><path style="opacity:1" fill="#002b3a" d="M 202.5,122.5 C 201.209,122.737 200.209,122.404 199.5,121.5C 201.527,121.662 203.527,121.495 205.5,121C 206.126,120.25 206.626,119.416 207,118.5C 207.333,118.833 207.667,119.167 208,119.5C 212.578,111.469 217.911,103.802 224,96.5C 225.715,93.2758 227.715,92.9425 230,95.5C 234.235,91.8067 234.401,87.8067 230.5,83.5C 230.709,82.914 231.043,82.414 231.5,82C 230.856,77.0664 230.19,72.233 229.5,67.5C 229.5,66.8333 229.167,66.5 228.5,66.5C 230.423,63.8102 231.256,60.8102 231,57.5C 230.051,59.0931 228.885,60.4264 227.5,61.5C 227.222,58.7097 227.889,56.2097 229.5,54C 229.317,52.3164 228.65,52.1498 227.5,53.5C 226.606,51.6915 225.606,49.8582 224.5,48C 224.645,47.228 224.978,46.5613 225.5,46C 223.117,45.935 222.45,45.1017 223.5,43.5C 218.529,37.8588 213.529,32.1921 208.5,26.5C 203.599,25.6791 199.599,23.3458 196.5,19.5C 195.914,19.7093 195.414,20.0426 195,20.5C 191.966,18.6458 188.8,16.9791 185.5,15.5C 185.5,13.8333 185.5,12.1667 185.5,10.5C 187.677,10.5861 189.677,11.2528 191.5,12.5C 193.214,11.3915 193.881,12.0582 193.5,14.5C 196.106,15.1359 198.606,15.1359 201,14.5C 203.966,15.8026 206.3,17.8026 208,20.5C 209.164,20.8346 210.497,20.8346 212,20.5C 212.617,21.4491 212.451,22.2825 211.5,23C 212.5,23.3333 213.5,23.6667 214.5,24C 224.641,32.7847 232.475,43.2847 238,55.5C 238.333,57.8333 238.667,60.1667 239,62.5C 240.487,63.2529 240.654,64.0862 239.5,65C 241.922,66.888 241.922,68.888 239.5,71C 243.757,75.6031 243.424,79.9364 238.5,84C 239.167,84.6667 239.833,85.3333 240.5,86C 238.246,87.0539 237.913,88.5539 239.5,90.5C 237.239,93.6122 235.906,97.1122 235.5,101C 232.651,103.516 230.151,106.349 228,109.5C 227.667,109.167 227.333,108.833 227,108.5C 225.513,109.253 225.346,110.086 226.5,111C 224.167,112 222.5,113.667 221.5,116C 220.552,116.483 219.552,116.649 218.5,116.5C 218.439,119.05 217.106,120.55 214.5,121C 214.833,121.333 215.167,121.667 215.5,122C 211.179,122.499 206.846,122.666 202.5,122.5 Z"/></g>
<g><path style="opacity:1" fill="#006f85" d="M 67.5,45.5 C 68.1667,47.1667 68.8333,48.8333 69.5,50.5C 69.7244,54.1788 70.0578,57.8455 70.5,61.5C 70.8333,63.5 71.1667,65.5 71.5,67.5C 70.8826,67.6107 70.3826,67.944 70,68.5C 68.9342,66.9005 67.4342,65.9005 65.5,65.5C 63.2581,66.1926 60.9248,67.1926 58.5,68.5C 57.7093,71.3173 56.3759,73.8173 54.5,76C 55.3366,77.0113 55.67,78.1779 55.5,79.5C 53.4348,79.047 51.7682,78.047 50.5,76.5C 49.3424,75.0502 49.8424,74.0502 52,73.5C 52.8568,69.3678 54.0235,65.7011 55.5,62.5C 56.9337,61.7702 58.1004,60.7702 59,59.5C 59.3333,60.1667 59.6667,60.8333 60,61.5C 61.5333,61.0563 63.0333,60.723 64.5,60.5C 60.6569,55.2668 60.6569,50.6001 64.5,46.5C 65.0311,43.2332 66.0311,42.8999 67.5,45.5 Z"/></g>
<g><path style="opacity:1" fill="#0b1720" d="M 182.5,49.5 C 181.659,57.5634 180.659,65.5634 179.5,73.5C 177.5,73.5 176.5,74.5 176.5,76.5C 175.343,80.7933 174.343,85.1266 173.5,89.5C 172.533,90.8062 171.199,91.4729 169.5,91.5C 169.5,90.1667 169.5,88.8333 169.5,87.5C 170.909,83.6837 172.576,80.0171 174.5,76.5C 175.6,74.7226 176.434,72.7226 177,70.5C 177.939,65.319 177.606,60.319 176,55.5C 175.402,58.3078 174.235,60.8078 172.5,63C 167.981,63.1753 163.647,63.6753 159.5,64.5C 158.883,64.6107 158.383,64.944 158,65.5C 157.36,63.735 157.527,62.0683 158.5,60.5C 158.833,60.5 159.167,60.5 159.5,60.5C 165.66,57.2544 171.994,54.2544 178.5,51.5C 180.703,49.7046 181.869,47.3712 182,44.5C 182.494,46.1341 182.66,47.8008 182.5,49.5 Z"/></g>
<g><path style="opacity:1" fill="#13323f" d="M 89.5,7.5 C 90.8333,12.1667 92.1667,16.8333 93.5,21.5C 93.8333,22.8333 94.1667,24.1667 94.5,25.5C 93.4856,34.7154 93.8189,44.0487 95.5,53.5C 96.5166,58.0538 97.8499,62.5538 99.5,67C 99.1081,68.0105 98.4415,68.5105 97.5,68.5C 100.467,75.766 103.8,82.766 107.5,89.5C 111.497,93.6813 114.997,98.348 118,103.5C 121.026,106.026 124.193,108.36 127.5,110.5C 128.641,112.421 128.808,114.421 128,116.5C 120.595,109.765 113.928,102.432 108,94.5C 104.139,88.1122 100.806,81.4455 98,74.5C 97.5357,75.0944 97.369,75.7611 97.5,76.5C 96.3995,74.7226 95.5662,72.7226 95,70.5C 94.6174,71.056 94.1174,71.3893 93.5,71.5C 94.3543,69.965 94.3543,68.6316 93.5,67.5C 92.7044,61.1758 91.8711,54.8425 91,48.5C 90.1146,46 88.9479,43.6667 87.5,41.5C 86.3354,48.8107 86.1687,56.144 87,63.5C 87.569,67.7946 88.7356,71.7946 90.5,75.5C 90.5,76.1667 90.5,76.8333 90.5,77.5C 89.8423,78.3984 89.1757,79.3984 88.5,80.5C 86.5291,77.548 84.8624,74.548 83.5,71.5C 83.3379,69.4727 83.5045,67.4727 84,65.5C 84.3333,65.8333 84.6667,66.1667 85,66.5C 85.4997,59.1742 85.6663,51.8409 85.5,44.5C 85.4809,42.9397 85.1476,41.4397 84.5,40C 85.797,35.481 87.1303,30.981 88.5,26.5C 88.0431,25.7025 87.3764,25.3691 86.5,25.5C 87.2778,24.8444 87.9444,24.0111 88.5,23C 87.6328,19.8948 87.2994,16.7281 87.5,13.5C 88.6298,11.6854 89.2964,9.68545 89.5,7.5 Z"/></g>
<g><path style="opacity:1" fill="#729ea8" d="M 104.5,52.5 C 105.5,54.1667 106.833,55.5 108.5,56.5C 110.794,58.0412 110.794,59.3746 108.5,60.5C 105.833,58.1667 103.167,55.8333 100.5,53.5C 101.689,52.5713 103.022,52.238 104.5,52.5 Z"/></g>
<g><path style="opacity:1" fill="#09161c" d="M 117.5,53.5 C 121.943,54.8015 126.609,55.4681 131.5,55.5C 131.833,55.5 132.167,55.5 132.5,55.5C 137.248,56.1916 141.915,57.5249 146.5,59.5C 147.53,62.2295 147.53,64.8962 146.5,67.5C 145.167,67.5 143.833,67.5 142.5,67.5C 142.5,66.8333 142.167,66.5 141.5,66.5C 140.391,65.71 139.058,65.21 137.5,65C 138.902,63.6575 138.569,62.8242 136.5,62.5C 133.015,60.9064 129.348,60.2397 125.5,60.5C 123.833,60.5 122.167,60.5 120.5,60.5C 118.855,59.5213 117.521,58.188 116.5,56.5C 115.264,55.7542 113.93,55.4208 112.5,55.5C 112.657,56.8734 112.49,58.2068 112,59.5C 111.578,57.5743 110.411,56.5743 108.5,56.5C 106.833,55.5 105.5,54.1667 104.5,52.5C 104.5,51.8333 104.167,51.5 103.5,51.5C 103.369,50.6236 103.702,49.9569 104.5,49.5C 108.604,51.6088 112.937,52.9421 117.5,53.5 Z"/></g>
<g><path style="opacity:1" fill="#19333f" d="M 158.5,60.5 C 157.527,62.0683 157.36,63.735 158,65.5C 158.383,64.944 158.883,64.6107 159.5,64.5C 159.865,67.0787 159.865,69.412 159.5,71.5C 158.833,70.8333 158.167,70.1667 157.5,69.5C 157.672,68.5084 157.338,67.8417 156.5,67.5C 156.5,65.5 156.5,63.5 156.5,61.5C 153.792,60.5508 151.126,60.5508 148.5,61.5C 149.309,63.0709 149.643,64.7376 149.5,66.5C 148.609,67.1098 147.609,67.4431 146.5,67.5C 147.53,64.8962 147.53,62.2295 146.5,59.5C 141.915,57.5249 137.248,56.1916 132.5,55.5C 133.833,55.5 135.167,55.5 136.5,55.5C 140.269,55.756 143.936,55.4227 147.5,54.5C 149.655,53.4476 149.988,54.1143 148.5,56.5C 149.651,57.731 150.817,57.731 152,56.5C 153.215,51.9491 153.881,47.2824 154,42.5C 154.246,47.372 154.746,52.2054 155.5,57C 154.162,59.7243 155.162,60.8909 158.5,60.5 Z"/></g>
<g><path style="opacity:1" fill="#007a93" d="M 183.5,43.5 C 184.309,45.2922 184.809,47.2922 185,49.5C 185.333,48.5 185.667,47.5 186,46.5C 187.976,47.5433 188.476,48.8767 187.5,50.5C 189.39,51.4238 190.89,52.7571 192,54.5C 192.617,55.4491 192.451,56.2825 191.5,57C 192.672,57.3534 193.838,57.1868 195,56.5C 195.5,56.8333 196,57.1667 196.5,57.5C 192.71,59.1038 193.044,60.1038 197.5,60.5C 196.783,63.3229 195.783,65.9896 194.5,68.5C 196.78,68.2537 198.78,68.2537 200.5,68.5C 199.895,70.4812 198.895,70.8146 197.5,69.5C 196.817,72.4129 195.483,74.9129 193.5,77C 194.76,78.113 195.927,78.2797 197,77.5C 198.368,79.4935 198.868,81.4935 198.5,83.5C 195.567,85.7381 195.901,86.7381 199.5,86.5C 199.5,87.5 199.5,88.5 199.5,89.5C 197.854,92.8102 195.52,95.4768 192.5,97.5C 191.078,98.925 189.411,99.925 187.5,100.5C 183.116,100.826 178.783,100.492 174.5,99.5C 176.485,90.8929 178.152,82.2263 179.5,73.5C 180.659,65.5634 181.659,57.5634 182.5,49.5C 183.461,47.7354 183.795,45.7354 183.5,43.5 Z"/></g>
<g><path style="opacity:1" fill="#04424d" d="M 77.5,54.5 C 77.4595,57.8806 77.7929,61.2139 78.5,64.5C 77.5416,64.0472 76.7083,63.3805 76,62.5C 75.5357,63.0944 75.369,63.7611 75.5,64.5C 74.469,62.0392 73.8023,59.3725 73.5,56.5C 73.369,55.7611 73.5357,55.0944 74,54.5C 75.48,59.8039 76.6467,59.8039 77.5,54.5 Z"/></g>
<g><path style="opacity:1" fill="#143543" d="M 93.5,7.5 C 94.1667,8.5 94.8333,9.5 95.5,10.5C 96.9032,16.7097 98.9032,22.7097 101.5,28.5C 101.335,30.8268 100.669,32.9935 99.5,35C 101.068,37.3041 102.235,39.8041 103,42.5C 104.018,44.5644 105.351,44.8977 107,43.5C 110.543,45.8555 114.377,47.5222 118.5,48.5C 118.5,49.5 118.5,50.5 118.5,51.5C 115.075,51.3668 114.742,52.0335 117.5,53.5C 112.937,52.9421 108.604,51.6088 104.5,49.5C 103.702,49.9569 103.369,50.6236 103.5,51.5C 98.6083,50.8757 97.4416,52.5424 100,56.5C 102.279,58.2893 104.279,60.2893 106,62.5C 106.938,68.1477 108.771,73.481 111.5,78.5C 110.833,78.8333 110.167,79.1667 109.5,79.5C 114.457,87.4473 120.123,94.7806 126.5,101.5C 126.103,102.525 125.437,102.692 124.5,102C 114.969,91.7807 107.303,80.2807 101.5,67.5C 101.167,67.8333 100.833,68.1667 100.5,68.5C 103.924,74.8459 106.924,81.3459 109.5,88C 108.956,88.7172 108.289,89.2172 107.5,89.5C 103.8,82.766 100.467,75.766 97.5,68.5C 98.4415,68.5105 99.1081,68.0105 99.5,67C 97.8499,62.5538 96.5166,58.0538 95.5,53.5C 96.162,46.8914 97.162,40.2247 98.5,33.5C 98.0474,29.3072 96.8808,25.3072 95,21.5C 94.31,20.2617 93.81,20.2617 93.5,21.5C 92.1667,16.8333 90.8333,12.1667 89.5,7.5C 89.1489,5.13053 88.9822,2.7972 89,0.5C 90.5829,2.91134 91.5829,5.57801 92,8.5C 93.1068,9.7119 93.6068,9.37857 93.5,7.5 Z"/></g>
<g><path style="opacity:1" fill="#2d422f" d="M 166.5,58.5 C 168.167,58.5 169.833,58.5 171.5,58.5C 171.5,59.5 171.5,60.5 171.5,61.5C 169.833,61.5 168.167,61.5 166.5,61.5C 166.5,60.5 166.5,59.5 166.5,58.5 Z"/></g>
<g><path style="opacity:1" fill="#061b24" d="M 93.5,67.5 C 92.129,69.936 91.129,72.6027 90.5,75.5C 88.7356,71.7946 87.569,67.7946 87,63.5C 86.1687,56.144 86.3354,48.8107 87.5,41.5C 88.9479,43.6667 90.1146,46 91,48.5C 91.8711,54.8425 92.7044,61.1758 93.5,67.5 Z"/></g>
<g><path style="opacity:1" fill="#08161a" d="M -0.5,42.5 C 0.523605,44.5116 2.02361,46.1783 4,47.5C 4,48.8333 4,50.1667 4,51.5C 9.55044,56.1752 14.7171,61.1752 19.5,66.5C 18.7376,66.9106 17.7376,67.0773 16.5,67C 18.0139,68.439 18.3473,69.939 17.5,71.5C 13.8333,70.1667 10.1667,70.1667 6.5,71.5C 3.86906,75.7675 1.53573,80.1008 -0.5,84.5C -0.5,70.5 -0.5,56.5 -0.5,42.5 Z"/></g>
<g><path style="opacity:1" fill="#385f69" d="M 85.5,44.5 C 85.6663,51.8409 85.4997,59.1742 85,66.5C 84.6667,66.1667 84.3333,65.8333 84,65.5C 83.5045,67.4727 83.3379,69.4727 83.5,71.5C 82.4523,68.1686 82.4523,64.6686 83.5,61C 83.2517,59.2841 82.585,57.7841 81.5,56.5C 82.376,55.7492 83.376,55.2492 84.5,55C 81.7209,51.1815 82.0542,47.6815 85.5,44.5 Z"/></g>
<g><path style="opacity:1" fill="#23322c" d="M 125.5,61.5 C 125.5,61.1667 125.5,60.8333 125.5,60.5C 129.348,60.2397 133.015,60.9064 136.5,62.5C 138.569,62.8242 138.902,63.6575 137.5,65C 139.058,65.21 140.391,65.71 141.5,66.5C 139.5,66.5 137.5,66.5 135.5,66.5C 135.414,65.5041 135.748,64.6708 136.5,64C 135.906,63.5357 135.239,63.369 134.5,63.5C 132.389,62.2584 130.389,62.2584 128.5,63.5C 127.5,62.8333 126.5,62.1667 125.5,61.5 Z"/></g>
<g><path style="opacity:1" fill="#005b76" d="M 65.5,33.5 C 66.6167,37.2949 67.2833,41.2949 67.5,45.5C 66.0311,42.8999 65.0311,43.2332 64.5,46.5C 63.5,46.5 62.5,46.5 61.5,46.5C 59.9294,51.4978 57.4294,51.8312 54,47.5C 53,51.5 52,51.5 51,47.5C 49.4851,51.7511 47.4851,55.7511 45,59.5C 43.8566,62.7769 43.0233,66.1102 42.5,69.5C 40.5853,69.2155 38.9187,69.5489 37.5,70.5C 36.8826,70.3893 36.3826,70.056 36,69.5C 35.9444,66.7333 35.7777,64.0666 35.5,61.5C 37.6164,56.0322 40.6164,51.0322 44.5,46.5C 44.2907,45.914 43.9574,45.414 43.5,45C 46.9646,42.5374 50.1312,39.7041 53,36.5C 53.5194,37.5156 54.3527,38.1822 55.5,38.5C 57.1347,37.9537 58.8014,37.6204 60.5,37.5C 60.3118,35.8967 60.8118,34.5634 62,33.5C 63.1455,34.6843 64.3121,34.6843 65.5,33.5 Z"/></g>
<g><path style="opacity:1" fill="#222f3d" d="M 120.5,60.5 C 122.167,60.5 123.833,60.5 125.5,60.5C 125.5,60.8333 125.5,61.1667 125.5,61.5C 124.224,62.3864 124.224,63.3864 125.5,64.5C 128.612,66.1837 131.946,66.8503 135.5,66.5C 130.33,68.2641 125.663,67.2641 121.5,63.5C 121.443,62.391 121.11,61.391 120.5,60.5 Z"/></g>
<g><path style="opacity:1" fill="#6b8954" d="M 134.5,63.5 C 134.209,64.6491 133.376,65.3158 132,65.5C 130.301,65.6134 129.134,64.9468 128.5,63.5C 130.389,62.2584 132.389,62.2584 134.5,63.5 Z"/></g>
<g><path style="opacity:1" fill="#34525c" d="M 156.5,67.5 C 154.565,66.8505 152.565,66.5172 150.5,66.5C 150.167,66.5 149.833,66.5 149.5,66.5C 149.643,64.7376 149.309,63.0709 148.5,61.5C 151.126,60.5508 153.792,60.5508 156.5,61.5C 156.5,63.5 156.5,65.5 156.5,67.5 Z"/></g>
<g><path style="opacity:1" fill="#415454" d="M 125.5,61.5 C 126.5,62.1667 127.5,62.8333 128.5,63.5C 129.134,64.9468 130.301,65.6134 132,65.5C 133.376,65.3158 134.209,64.6491 134.5,63.5C 135.239,63.369 135.906,63.5357 136.5,64C 135.748,64.6708 135.414,65.5041 135.5,66.5C 131.946,66.8503 128.612,66.1837 125.5,64.5C 124.224,63.3864 124.224,62.3864 125.5,61.5 Z"/></g>
<g><path style="opacity:1" fill="#1b3541" d="M 174.5,76.5 C 174.167,75.1667 173.833,73.8333 173.5,72.5C 173.815,70.7741 173.981,69.1075 174,67.5C 170.96,66.4748 167.627,66.4748 164,67.5C 162.6,66.252 161.1,65.252 159.5,64.5C 163.647,63.6753 167.981,63.1753 172.5,63C 174.235,60.8078 175.402,58.3078 176,55.5C 177.606,60.319 177.939,65.319 177,70.5C 176.434,72.7226 175.6,74.7226 174.5,76.5 Z"/></g>
<g><path style="opacity:1" fill="#6fa5b4" d="M 86.5,25.5 C 87.3764,25.3691 88.0431,25.7025 88.5,26.5C 87.1303,30.981 85.797,35.481 84.5,40C 85.1476,41.4397 85.4809,42.9397 85.5,44.5C 82.0542,47.6815 81.7209,51.1815 84.5,55C 83.376,55.2492 82.376,55.7492 81.5,56.5C 82.585,57.7841 83.2517,59.2841 83.5,61C 82.4523,64.6686 82.4523,68.1686 83.5,71.5C 83.9557,75.6643 84.6223,79.6643 85.5,83.5C 85.5,83.8333 85.5,84.1667 85.5,84.5C 85.5912,86.6977 84.9245,87.0311 83.5,85.5C 82.8333,82.8333 82.1667,80.1667 81.5,77.5C 81.815,73.6286 81.4816,69.9619 80.5,66.5C 80.5,59.8333 80.5,53.1667 80.5,46.5C 80.4929,38.8521 82.4929,31.8521 86.5,25.5 Z"/></g>
<g><path style="opacity:1" fill="#486a7e" d="M 121.5,63.5 C 125.663,67.2641 130.33,68.2641 135.5,66.5C 137.5,66.5 139.5,66.5 141.5,66.5C 142.167,66.5 142.5,66.8333 142.5,67.5C 141.833,67.5 141.167,67.5 140.5,67.5C 135.61,69.0696 130.61,69.5696 125.5,69C 123.138,67.4894 120.805,65.9894 118.5,64.5C 117.5,64.5 116.5,64.5 115.5,64.5C 114.71,63.5987 113.71,62.9321 112.5,62.5C 112.908,61.3569 113.575,60.3569 114.5,59.5C 117.024,60.5923 119.357,61.9257 121.5,63.5 Z"/></g>
<g><path style="opacity:1" fill="#284854" d="M 159.5,64.5 C 161.1,65.252 162.6,66.252 164,67.5C 167.627,66.4748 170.96,66.4748 174,67.5C 173.981,69.1075 173.815,70.7741 173.5,72.5C 170.603,71.2272 167.937,71.5606 165.5,73.5C 163.766,74.562 162.099,74.562 160.5,73.5C 160.167,72.8333 159.833,72.1667 159.5,71.5C 159.865,69.412 159.865,67.0787 159.5,64.5 Z"/></g>
<g><path style="opacity:1" fill="#0a2427" d="M 70.5,61.5 C 72.3115,63.3854 73.4782,65.7187 74,68.5C 74.3826,67.944 74.8826,67.6107 75.5,67.5C 77.0881,69.5273 77.5881,71.8606 77,74.5C 76.2917,73.6195 75.4584,72.9528 74.5,72.5C 73.8897,70.5659 72.8897,68.8993 71.5,67.5C 71.1667,65.5 70.8333,63.5 70.5,61.5 Z"/></g>
<g><path style="opacity:1" fill="#1a6675" d="M 78.5,64.5 C 78.7086,65.9217 79.2086,67.255 80,68.5C 80.4643,67.9056 80.631,67.2389 80.5,66.5C 81.4816,69.9619 81.815,73.6286 81.5,77.5C 80.2719,78.3065 79.2719,79.3065 78.5,80.5C 77.9838,77.3467 76.6505,74.68 74.5,72.5C 75.4584,72.9528 76.2917,73.6195 77,74.5C 77.5881,71.8606 77.0881,69.5273 75.5,67.5C 75.5,66.5 75.5,65.5 75.5,64.5C 75.369,63.7611 75.5357,63.0944 76,62.5C 76.7083,63.3805 77.5416,64.0472 78.5,64.5 Z"/></g>
<g><path style="opacity:1" fill="#6d94a5" d="M 118.5,64.5 C 120.805,65.9894 123.138,67.4894 125.5,69C 130.61,69.5696 135.61,69.0696 140.5,67.5C 139.71,68.7942 138.71,69.9609 137.5,71C 131.319,71.9639 125.319,71.4639 119.5,69.5C 118.549,68.0813 118.216,66.4147 118.5,64.5 Z"/></g>
<g><path style="opacity:1" fill="#008199" d="M 71.5,67.5 C 72.8897,68.8993 73.8897,70.5659 74.5,72.5C 76.6505,74.68 77.9838,77.3467 78.5,80.5C 70.7696,83.1082 63.103,82.7749 55.5,79.5C 55.67,78.1779 55.3366,77.0113 54.5,76C 56.3759,73.8173 57.7093,71.3173 58.5,68.5C 60.9248,67.1926 63.2581,66.1926 65.5,65.5C 67.4342,65.9005 68.9342,66.9005 70,68.5C 70.3826,67.944 70.8826,67.6107 71.5,67.5 Z"/></g>
<g><path style="opacity:1" fill="#07131a" d="M 228.5,66.5 C 226.331,70.8379 224.164,75.1712 222,79.5C 218.998,83.3338 215.831,87.0005 212.5,90.5C 211.833,90.8333 211.167,91.1667 210.5,91.5C 210.062,91.5654 209.728,91.3988 209.5,91C 218.422,83.3185 224.422,73.8185 227.5,62.5C 227.5,62.1667 227.5,61.8333 227.5,61.5C 228.885,60.4264 230.051,59.0931 231,57.5C 231.256,60.8102 230.423,63.8102 228.5,66.5 Z"/></g>
<g><path style="opacity:1" fill="#75b5bd" d="M 140.5,67.5 C 141.167,67.5 141.833,67.5 142.5,67.5C 142.833,68.1667 143.167,68.8333 143.5,69.5C 143.666,75.5092 143.499,81.5092 143,87.5C 132.098,85.4232 124.265,79.4232 119.5,69.5C 125.319,71.4639 131.319,71.9639 137.5,71C 138.71,69.9609 139.71,68.7942 140.5,67.5 Z"/></g>
<g><path style="opacity:1" fill="#81bbc5" d="M 150.5,66.5 C 152.565,66.5172 154.565,66.8505 156.5,67.5C 156.828,72.8746 156.495,78.2079 155.5,83.5C 154.914,83.2907 154.414,82.9574 154,82.5C 153.613,76.9147 152.446,71.5813 150.5,66.5 Z"/></g>
<g><path style="opacity:1" fill="#47767e" d="M 149.5,66.5 C 150.828,72.4493 151.995,78.4493 153,84.5C 154.401,86.1922 156.234,86.8588 158.5,86.5C 154.127,86.7933 149.793,86.7933 145.5,86.5C 144.833,80.8333 144.167,75.1667 143.5,69.5C 143.167,68.8333 142.833,68.1667 142.5,67.5C 143.833,67.5 145.167,67.5 146.5,67.5C 147.609,67.4431 148.609,67.1098 149.5,66.5 Z"/></g>
<g><path style="opacity:1" fill="#142f3a" d="M 227.5,62.5 C 224.422,73.8185 218.422,83.3185 209.5,91C 209.728,91.3988 210.062,91.5654 210.5,91.5C 209.167,92.9335 207.667,94.2668 206,95.5C 205.536,94.9056 205.369,94.2389 205.5,93.5C 205.5,92.5 205.5,91.5 205.5,90.5C 206.82,89.0582 208.486,88.3915 210.5,88.5C 212.496,84.8817 214.996,81.5484 218,78.5C 218.885,76 220.052,73.6667 221.5,71.5C 221.167,71.1667 220.833,70.8333 220.5,70.5C 215.922,77.4159 210.589,83.7492 204.5,89.5C 201.433,93.2045 197.766,96.2045 193.5,98.5C 193.5,97.8333 193.167,97.5 192.5,97.5C 195.52,95.4768 197.854,92.8102 199.5,89.5C 203.103,86.9849 205.77,83.6515 207.5,79.5C 211.18,75.817 214.514,71.817 217.5,67.5C 219.145,66.5213 220.479,65.188 221.5,63.5C 222.298,63.9569 222.631,64.6236 222.5,65.5C 221.374,66.8583 221.374,68.1916 222.5,69.5C 223.95,68.1502 224.617,66.4835 224.5,64.5C 225.222,63.4489 226.222,62.7822 227.5,62.5 Z"/></g>
<g><path style="opacity:1" fill="#68a2b4" d="M 224.5,64.5 C 224.617,66.4835 223.95,68.1502 222.5,69.5C 221.374,68.1916 221.374,66.8583 222.5,65.5C 223.167,65.1667 223.833,64.8333 224.5,64.5 Z"/></g>
<g><path style="opacity:1" fill="#528595" d="M 93.5,67.5 C 94.3543,68.6316 94.3543,69.965 93.5,71.5C 92.8333,73.8333 92.1667,76.1667 91.5,78.5C 90.8333,78.5 90.5,78.1667 90.5,77.5C 90.5,76.8333 90.5,76.1667 90.5,75.5C 91.129,72.6027 92.129,69.936 93.5,67.5 Z"/></g>
<g><path style="opacity:1" fill="#3c676f" d="M 157.5,69.5 C 158.167,70.1667 158.833,70.8333 159.5,71.5C 159.833,72.1667 160.167,72.8333 160.5,73.5C 160.368,76.5701 160.701,79.5701 161.5,82.5C 160.833,83.8333 160.167,85.1667 159.5,86.5C 159.132,80.7791 158.466,75.1124 157.5,69.5 Z"/></g>
<g><path style="opacity:1" fill="#5f99a1" d="M 161.5,82.5 C 160.701,79.5701 160.368,76.5701 160.5,73.5C 162.099,74.562 163.766,74.562 165.5,73.5C 167.262,73.6427 168.929,73.3094 170.5,72.5C 171.583,73.365 171.749,74.365 171,75.5C 168.629,77.6379 166.796,80.1379 165.5,83C 164.584,83.3742 163.75,83.8742 163,84.5C 162.722,83.5842 162.222,82.9175 161.5,82.5 Z"/></g>
<g><path style="opacity:1" fill="#0a4251" d="M 38.5,72.5 C 42.1549,74.8294 46.1549,76.1628 50.5,76.5C 51.7682,78.047 53.4348,79.047 55.5,79.5C 63.103,82.7749 70.7696,83.1082 78.5,80.5C 77.8902,81.391 77.5569,82.391 77.5,83.5C 75.8784,84.1224 74.5451,85.1224 73.5,86.5C 73.7678,88.099 73.4345,89.4324 72.5,90.5C 72.5,89.5 72.5,88.5 72.5,87.5C 61.0581,87.9038 50.7247,84.9038 41.5,78.5C 39.615,76.9468 38.615,74.9468 38.5,72.5 Z"/></g>
<g><path style="opacity:1" fill="#00161e" d="M 255.5,56.5 C 255.5,70.1667 255.5,83.8333 255.5,97.5C 252.513,97.9478 251.513,99.4478 252.5,102C 249.208,102.576 248.208,104.243 249.5,107C 248.932,108.872 248.265,110.705 247.5,112.5C 243.922,116.561 239.589,119.727 234.5,122C 235.833,122.667 235.833,123.333 234.5,124C 231.957,124.14 229.623,124.806 227.5,126C 229.595,126.556 229.762,127.056 228,127.5C 226.831,126.991 225.998,126.158 225.5,125C 220.713,124.121 216.047,124.455 211.5,126C 214.262,127.703 217.096,127.87 220,126.5C 220.833,126.833 221.667,127.167 222.5,127.5C 222.167,127.833 221.833,128.167 221.5,128.5C 215.914,129.74 210.247,130.406 204.5,130.5C 203.078,129.075 201.411,128.075 199.5,127.5C 198.402,126.603 198.402,125.77 199.5,125C 201.382,124.802 203.048,124.302 204.5,123.5C 211.794,123.959 218.794,122.792 225.5,120C 224.944,119.617 224.611,119.117 224.5,118.5C 225.496,118.414 226.329,118.748 227,119.5C 227.589,117.137 229.089,116.137 231.5,116.5C 237.397,110.161 242.397,102.828 246.5,94.5C 247.749,93.2225 249.249,92.2225 251,91.5C 253.285,85.3616 254.452,79.0283 254.5,72.5C 254.179,66.9738 254.512,61.6405 255.5,56.5 Z"/></g>
<g><path style="opacity:1" fill="#0b242b" d="M -0.5,37.5 C 1.19107,38.8637 2.85774,40.197 4.5,41.5C 5.97302,43.3947 7.63968,45.0613 9.5,46.5C 9.5,46.8333 9.5,47.1667 9.5,47.5C 8.44802,47.3505 7.44802,47.5172 6.5,48C 8.36396,50.6877 10.364,53.1877 12.5,55.5C 18.2748,61.9883 23.9415,68.4883 29.5,75C 33.4351,76.4827 37.4351,77.6494 41.5,78.5C 50.7247,84.9038 61.0581,87.9038 72.5,87.5C 72.5,88.5 72.5,89.5 72.5,90.5C 71.5655,91.5676 71.2322,92.901 71.5,94.5C 68.7224,94.9783 66.7224,93.9783 65.5,91.5C 61.8776,90.6747 58.211,90.1747 54.5,90C 48.3342,87.6121 42.0008,85.6121 35.5,84C 30.5462,80.3466 25.0462,77.8466 19,76.5C 17.2973,77.7002 15.7973,77.3668 14.5,75.5C 12.7299,76.8196 12.3966,78.3196 13.5,80C 12.0997,81.4381 10.433,82.2714 8.5,82.5C 7.44514,86.4742 6.44514,90.8075 5.5,95.5C 4.5,95.5 3.5,95.5 2.5,95.5C 1.70951,94.5987 0.709515,93.9321 -0.5,93.5C -0.5,90.5 -0.5,87.5 -0.5,84.5C 1.53573,80.1008 3.86906,75.7675 6.5,71.5C 10.1667,70.1667 13.8333,70.1667 17.5,71.5C 18.3473,69.939 18.0139,68.439 16.5,67C 17.7376,67.0773 18.7376,66.9106 19.5,66.5C 14.7171,61.1752 9.55044,56.1752 4,51.5C 4,50.1667 4,48.8333 4,47.5C 2.02361,46.1783 0.523605,44.5116 -0.5,42.5C -0.5,40.8333 -0.5,39.1667 -0.5,37.5 Z"/></g>
<g><path style="opacity:1" fill="#2d5562" d="M 83.5,71.5 C 84.8624,74.548 86.5291,77.548 88.5,80.5C 89.1757,79.3984 89.8423,78.3984 90.5,77.5C 90.5,78.1667 90.8333,78.5 91.5,78.5C 91.3713,80.2161 91.038,81.8828 90.5,83.5C 88.6096,83.7035 87.1096,83.0368 86,81.5C 85.5357,82.0944 85.369,82.7611 85.5,83.5C 84.6223,79.6643 83.9557,75.6643 83.5,71.5 Z"/></g>
<g><path style="opacity:1" fill="#2b7b92" d="M 176.5,76.5 C 177.139,77.0968 177.472,77.9302 177.5,79C 176.766,82.501 176.1,86.001 175.5,89.5C 174.604,90.5063 173.938,90.5063 173.5,89.5C 174.343,85.1266 175.343,80.7933 176.5,76.5 Z"/></g>
<g><path style="opacity:1" fill="#609eae" d="M 205.5,90.5 C 205.5,89.8333 205.167,89.5 204.5,89.5C 210.589,83.7492 215.922,77.4159 220.5,70.5C 220.833,70.8333 221.167,71.1667 221.5,71.5C 220.052,73.6667 218.885,76 218,78.5C 214.996,81.5484 212.496,84.8817 210.5,88.5C 208.486,88.3915 206.82,89.0582 205.5,90.5 Z"/></g>
<g><path style="opacity:1" fill="#719aa7" d="M 149.5,66.5 C 149.833,66.5 150.167,66.5 150.5,66.5C 152.446,71.5813 153.613,76.9147 154,82.5C 154.414,82.9574 154.914,83.2907 155.5,83.5C 156.495,78.2079 156.828,72.8746 156.5,67.5C 157.338,67.8417 157.672,68.5084 157.5,69.5C 158.466,75.1124 159.132,80.7791 159.5,86.5C 159.167,86.5 158.833,86.5 158.5,86.5C 156.234,86.8588 154.401,86.1922 153,84.5C 151.995,78.4493 150.828,72.4493 149.5,66.5 Z"/></g>
<g><path style="opacity:1" fill="#1e353c" d="M 81.5,77.5 C 82.1667,80.1667 82.8333,82.8333 83.5,85.5C 83.8333,86.8333 84.1667,88.1667 84.5,89.5C 83.448,89.3505 82.448,89.5172 81.5,90C 82.1814,93.4026 83.1814,96.7359 84.5,100C 84.2568,100.902 83.9234,101.735 83.5,102.5C 83.1667,102.5 82.8333,102.5 82.5,102.5C 82.205,100.577 81.3717,98.9101 80,97.5C 79.8839,92.5662 79.0506,87.8996 77.5,83.5C 77.5569,82.391 77.8902,81.391 78.5,80.5C 79.2719,79.3065 80.2719,78.3065 81.5,77.5 Z"/></g>
<g><path style="opacity:1" fill="#9ab7bc" d="M 125.5,92.5 C 122.167,89.8333 119.167,86.8333 116.5,83.5C 116.435,83.0618 116.601,82.7284 117,82.5C 120.442,85.432 123.275,88.7653 125.5,92.5 Z"/></g>
<g><path style="opacity:1" fill="#1f434c" d="M 161.5,82.5 C 162.167,85.5 162.833,88.5 163.5,91.5C 160.09,91.3838 158.756,93.0504 159.5,96.5C 154.249,97.5193 154.249,98.5193 159.5,99.5C 158.167,99.5 156.833,99.5 155.5,99.5C 151.029,100.089 147.029,99.4228 143.5,97.5C 147.955,96.8048 152.455,96.1382 157,95.5C 158.791,94.3676 158.625,93.3676 156.5,92.5C 154.114,91.6267 152.114,90.1267 150.5,88C 148.846,87.3923 147.179,86.8923 145.5,86.5C 149.793,86.7933 154.127,86.7933 158.5,86.5C 158.833,86.5 159.167,86.5 159.5,86.5C 160.167,85.1667 160.833,83.8333 161.5,82.5 Z"/></g>
<g><path style="opacity:1" fill="#366c74" d="M 173.5,72.5 C 173.833,73.8333 174.167,75.1667 174.5,76.5C 172.576,80.0171 170.909,83.6837 169.5,87.5C 167.974,88.1047 166.974,89.2714 166.5,91C 165.552,91.4828 164.552,91.6495 163.5,91.5C 162.833,88.5 162.167,85.5 161.5,82.5C 162.222,82.9175 162.722,83.5842 163,84.5C 163.75,83.8742 164.584,83.3742 165.5,83C 166.796,80.1379 168.629,77.6379 171,75.5C 171.749,74.365 171.583,73.365 170.5,72.5C 168.929,73.3094 167.262,73.6427 165.5,73.5C 167.937,71.5606 170.603,71.2272 173.5,72.5 Z"/></g>
<g><path style="opacity:1" fill="#004355" d="M 228.5,66.5 C 229.167,66.5 229.5,66.8333 229.5,67.5C 228.221,71.6721 226.554,75.6721 224.5,79.5C 225.057,81.2352 225.39,82.9018 225.5,84.5C 224.91,85.7989 223.91,86.6322 222.5,87C 224.957,88.1544 224.957,89.4877 222.5,91C 222.833,91.3333 223.167,91.6667 223.5,92C 222.109,93.02 220.609,93.8534 219,94.5C 218.64,96.4211 217.806,98.0878 216.5,99.5C 217.833,100.833 217.833,102.167 216.5,103.5C 214.976,105.858 212.976,107.691 210.5,109C 211.167,109.333 211.833,109.667 212.5,110C 210.667,110.5 209.5,111.667 209,113.5C 208.667,113.167 208.333,112.833 208,112.5C 207.667,113.5 207.333,114.5 207,115.5C 206.667,115.167 206.333,114.833 206,114.5C 204.494,116.174 202.661,117.174 200.5,117.5C 200.737,116.209 200.404,115.209 199.5,114.5C 196.833,113.833 194.167,113.167 191.5,112.5C 194.167,112.5 196.833,112.5 199.5,112.5C 205.001,111.521 207.668,108.187 207.5,102.5C 208.5,102.5 209.5,102.5 210.5,102.5C 210.461,100.641 211.294,99.3079 213,98.5C 213.801,95.633 213.634,92.9664 212.5,90.5C 215.831,87.0005 218.998,83.3338 222,79.5C 224.164,75.1712 226.331,70.8379 228.5,66.5 Z"/></g>
<g><path style="opacity:1" fill="#467789" d="M 85.5,84.5 C 88.214,87.3779 89.214,90.7113 88.5,94.5C 87.8182,93.7573 87.1515,93.0906 86.5,92.5C 86.0679,91.2905 85.4013,90.2905 84.5,89.5C 84.1667,88.1667 83.8333,86.8333 83.5,85.5C 84.9245,87.0311 85.5912,86.6977 85.5,84.5 Z"/></g>
<g><path style="opacity:1" fill="#1a4051" d="M 126.5,101.5 C 128.167,102.5 129.5,103.833 130.5,105.5C 130.062,105.435 129.728,105.601 129.5,106C 132,108.5 134.5,111 137,113.5C 137.818,116.227 137.652,118.894 136.5,121.5C 134.362,119.967 133.695,118.134 134.5,116C 133.287,113.674 131.954,113.341 130.5,115C 130.75,118.53 132.25,121.363 135,123.5C 135.74,124.749 135.573,125.749 134.5,126.5C 131.167,123.5 127.833,120.5 124.5,117.5C 117.434,109.045 110.601,100.379 104,91.5C 101.271,86.7117 99.104,81.7117 97.5,76.5C 97.369,75.7611 97.5357,75.0944 98,74.5C 100.806,81.4455 104.139,88.1122 108,94.5C 113.928,102.432 120.595,109.765 128,116.5C 128.808,114.421 128.641,112.421 127.5,110.5C 124.193,108.36 121.026,106.026 118,103.5C 114.997,98.348 111.497,93.6813 107.5,89.5C 108.289,89.2172 108.956,88.7172 109.5,88C 106.924,81.3459 103.924,74.8459 100.5,68.5C 100.833,68.1667 101.167,67.8333 101.5,67.5C 107.303,80.2807 114.969,91.7807 124.5,102C 125.437,102.692 126.103,102.525 126.5,101.5 Z"/></g>
<g><path style="opacity:1" fill="#5ca3a7" d="M 115.5,64.5 C 116.5,64.5 117.5,64.5 118.5,64.5C 118.216,66.4147 118.549,68.0813 119.5,69.5C 124.265,79.4232 132.098,85.4232 143,87.5C 143.499,81.5092 143.666,75.5092 143.5,69.5C 144.167,75.1667 144.833,80.8333 145.5,86.5C 147.179,86.8923 148.846,87.3923 150.5,88C 152.114,90.1267 154.114,91.6267 156.5,92.5C 153.108,94.2591 149.275,95.2591 145,95.5C 143.97,95.8361 143.47,96.5028 143.5,97.5C 142.609,96.8902 141.609,96.5569 140.5,96.5C 140.5,96.1667 140.5,95.8333 140.5,95.5C 136.626,91.7207 132.959,87.7207 129.5,83.5C 124.943,81.779 121.443,78.779 119,74.5C 118.078,71.0088 116.911,67.6755 115.5,64.5 Z"/></g>
<g><path style="opacity:1" fill="#3b757d" d="M 112.5,65.5 C 114.767,70.687 117.6,75.687 121,80.5C 126.333,85.8333 131.667,91.1667 137,96.5C 138.011,95.6634 139.178,95.33 140.5,95.5C 140.5,95.8333 140.5,96.1667 140.5,96.5C 138.804,96.6854 137.471,97.5187 136.5,99C 135.167,99.6667 133.833,99.6667 132.5,99C 130.093,96.8169 127.76,94.6503 125.5,92.5C 123.275,88.7653 120.442,85.432 117,82.5C 116.601,82.7284 116.435,83.0618 116.5,83.5C 113.528,82.0822 112.861,79.9155 114.5,77C 113.131,73.2835 112.464,69.4501 112.5,65.5 Z"/></g>
<g><path style="opacity:1" fill="#2a525e" d="M 169.5,87.5 C 169.5,88.8333 169.5,90.1667 169.5,91.5C 171.199,91.4729 172.533,90.8062 173.5,89.5C 173.938,90.5063 174.604,90.5063 175.5,89.5C 175.005,91.4817 174.505,93.4817 174,95.5C 173.667,94.8333 173.333,94.1667 173,93.5C 172.722,94.4158 172.222,95.0825 171.5,95.5C 171.719,94.325 171.386,93.325 170.5,92.5C 169.548,94.0453 169.215,95.712 169.5,97.5C 169.167,97.5 168.833,97.5 168.5,97.5C 168.99,92.4932 168.157,91.8265 166,95.5C 165.338,94.0161 164.504,92.6828 163.5,91.5C 164.552,91.6495 165.552,91.4828 166.5,91C 166.974,89.2714 167.974,88.1047 169.5,87.5 Z"/></g>
<g><path style="opacity:1" fill="#a8cdd3" d="M 171.5,95.5 C 170.732,96.2625 170.232,97.2625 170,98.5C 169.601,98.2716 169.435,97.9382 169.5,97.5C 169.215,95.712 169.548,94.0453 170.5,92.5C 171.386,93.325 171.719,94.325 171.5,95.5 Z"/></g>
<g><path style="opacity:1" fill="#395d66" d="M 77.5,83.5 C 79.0506,87.8996 79.8839,92.5662 80,97.5C 81.3717,98.9101 82.205,100.577 82.5,102.5C 79.2549,101.255 76.9215,98.9221 75.5,95.5C 76.4226,92.5534 77.0893,89.5534 77.5,86.5C 76.1667,86.5 74.8333,86.5 73.5,86.5C 74.5451,85.1224 75.8784,84.1224 77.5,83.5 Z"/></g>
<g><path style="opacity:1" fill="#42898e" d="M 112.5,62.5 C 113.71,62.9321 114.71,63.5987 115.5,64.5C 116.911,67.6755 118.078,71.0088 119,74.5C 121.443,78.779 124.943,81.779 129.5,83.5C 132.959,87.7207 136.626,91.7207 140.5,95.5C 139.178,95.33 138.011,95.6634 137,96.5C 131.667,91.1667 126.333,85.8333 121,80.5C 117.6,75.687 114.767,70.687 112.5,65.5C 112.5,64.5 112.5,63.5 112.5,62.5 Z"/></g>
<g><path style="opacity:1" fill="#4c7682" d="M 156.5,92.5 C 158.625,93.3676 158.791,94.3676 157,95.5C 152.455,96.1382 147.955,96.8048 143.5,97.5C 143.47,96.5028 143.97,95.8361 145,95.5C 149.275,95.2591 153.108,94.2591 156.5,92.5 Z"/></g>
<g><path style="opacity:1" fill="#024f64" d="M 212.5,90.5 C 213.634,92.9664 213.801,95.633 213,98.5C 211.294,99.3079 210.461,100.641 210.5,102.5C 209.5,102.5 208.5,102.5 207.5,102.5C 207.668,108.187 205.001,111.521 199.5,112.5C 198.342,111.05 198.842,110.05 201,109.5C 201.131,106.629 202.297,104.295 204.5,102.5C 205.192,103.025 205.692,103.692 206,104.5C 206.662,102.187 207.162,99.854 207.5,97.5C 206.5,97.5 205.5,97.5 204.5,97.5C 204.631,96.7611 204.464,96.0944 204,95.5C 203.329,96.2524 202.496,96.5858 201.5,96.5C 202.436,95.0256 203.77,94.0256 205.5,93.5C 205.369,94.2389 205.536,94.9056 206,95.5C 207.667,94.2668 209.167,92.9335 210.5,91.5C 211.167,91.1667 211.833,90.8333 212.5,90.5 Z"/></g>
<g><path style="opacity:1" fill="#112027" d="M 84.5,89.5 C 85.4013,90.2905 86.0679,91.2905 86.5,92.5C 87.3339,95.5014 88.6672,98.168 90.5,100.5C 93.1985,104.19 95.8652,107.857 98.5,111.5C 98.6716,112.492 98.3382,113.158 97.5,113.5C 95.4336,111.801 93.1003,110.468 90.5,109.5C 90.0269,108.094 89.0269,107.427 87.5,107.5C 86.1667,105.833 84.8333,104.167 83.5,102.5C 83.9234,101.735 84.2568,100.902 84.5,100C 83.1814,96.7359 82.1814,93.4026 81.5,90C 82.448,89.5172 83.448,89.3505 84.5,89.5 Z"/></g>
<g><path style="opacity:1" fill="#1e4859" d="M 103.5,51.5 C 104.167,51.5 104.5,51.8333 104.5,52.5C 103.022,52.238 101.689,52.5713 100.5,53.5C 103.167,55.8333 105.833,58.1667 108.5,60.5C 110.794,59.3746 110.794,58.0412 108.5,56.5C 110.411,56.5743 111.578,57.5743 112,59.5C 112.49,58.2068 112.657,56.8734 112.5,55.5C 113.93,55.4208 115.264,55.7542 116.5,56.5C 117.521,58.188 118.855,59.5213 120.5,60.5C 121.11,61.391 121.443,62.391 121.5,63.5C 119.357,61.9257 117.024,60.5923 114.5,59.5C 113.575,60.3569 112.908,61.3569 112.5,62.5C 112.5,63.5 112.5,64.5 112.5,65.5C 112.464,69.4501 113.131,73.2835 114.5,77C 112.861,79.9155 113.528,82.0822 116.5,83.5C 119.167,86.8333 122.167,89.8333 125.5,92.5C 127.76,94.6503 130.093,96.8169 132.5,99C 133.833,99.6667 135.167,99.6667 136.5,99C 137.471,97.5187 138.804,96.6854 140.5,96.5C 141.32,98.1401 142.153,99.8068 143,101.5C 143.842,108.91 145.009,116.243 146.5,123.5C 145.504,123.586 144.671,123.252 144,122.5C 142.724,116.51 141.557,110.51 140.5,104.5C 137.933,104.855 135.433,105.521 133,106.5C 132.098,106.257 131.265,105.923 130.5,105.5C 129.5,103.833 128.167,102.5 126.5,101.5C 120.123,94.7806 114.457,87.4473 109.5,79.5C 110.167,79.1667 110.833,78.8333 111.5,78.5C 108.771,73.481 106.938,68.1477 106,62.5C 104.279,60.2893 102.279,58.2893 100,56.5C 97.4416,52.5424 98.6083,50.8757 103.5,51.5 Z"/></g>
<g><path style="opacity:1" fill="#a3c7ce" d="M 204.5,89.5 C 205.167,89.5 205.5,89.8333 205.5,90.5C 205.5,91.5 205.5,92.5 205.5,93.5C 203.77,94.0256 202.436,95.0256 201.5,96.5C 198.888,97.7787 196.555,99.4453 194.5,101.5C 193.508,101.672 192.842,101.338 192.5,100.5C 192.833,99.8333 193.167,99.1667 193.5,98.5C 197.766,96.2045 201.433,93.2045 204.5,89.5 Z"/></g>
<g><path style="opacity:1" fill="#4c7f8e" d="M 98.5,111.5 C 95.8652,107.857 93.1985,104.19 90.5,100.5C 90.7058,98.4508 91.5391,98.1175 93,99.5C 94.7519,102.672 96.7519,105.672 99,108.5C 99.7401,109.749 99.5735,110.749 98.5,111.5 Z"/></g>
<g><path style="opacity:1" fill="#6a9aa6" d="M 73.5,86.5 C 74.8333,86.5 76.1667,86.5 77.5,86.5C 77.0893,89.5534 76.4226,92.5534 75.5,95.5C 76.9215,98.9221 79.2549,101.255 82.5,102.5C 82.8333,102.5 83.1667,102.5 83.5,102.5C 84.8333,104.167 86.1667,105.833 87.5,107.5C 85.9064,107.08 84.4064,106.414 83,105.5C 81.9701,105.836 81.4701,106.503 81.5,107.5C 76.8211,105.398 73.9878,101.732 73,96.5C 72.5045,94.5273 72.3379,92.5273 72.5,90.5C 73.4345,89.4324 73.7678,88.099 73.5,86.5 Z"/></g>
<g><path style="opacity:1" fill="#5a8996" d="M 192.5,100.5 C 192.842,101.338 193.508,101.672 194.5,101.5C 192.188,103.636 189.688,105.636 187,107.5C 186.536,106.906 186.369,106.239 186.5,105.5C 188.475,103.863 190.475,102.196 192.5,100.5 Z"/></g>
<g><path style="opacity:1" fill="#17323f" d="M 204.5,97.5 C 198.252,101.073 192.252,105.073 186.5,109.5C 185.314,108.039 185.314,106.705 186.5,105.5C 186.369,106.239 186.536,106.906 187,107.5C 189.688,105.636 192.188,103.636 194.5,101.5C 196.555,99.4453 198.888,97.7787 201.5,96.5C 202.496,96.5858 203.329,96.2524 204,95.5C 204.464,96.0944 204.631,96.7611 204.5,97.5 Z"/></g>
<g><path style="opacity:1" fill="#2d5661" d="M 155.5,99.5 C 156.833,99.5 158.167,99.5 159.5,99.5C 161.252,99.4176 162.252,100.251 162.5,102C 161.873,104.135 161.373,106.302 161,108.5C 160.617,109.056 160.117,109.389 159.5,109.5C 159.5,108.167 159.5,106.833 159.5,105.5C 155.298,105.183 151.298,105.517 147.5,106.5C 147.5,106.833 147.5,107.167 147.5,107.5C 146.609,106.739 145.942,105.739 145.5,104.5C 148.107,103.682 150.774,103.182 153.5,103C 154.973,102.29 155.64,101.124 155.5,99.5 Z"/></g>
<g><path style="opacity:1" fill="#1f3a43" d="M -0.5,97.5 C 3.85352,101.522 8.18686,105.522 12.5,109.5C 11.0783,109.291 9.74499,108.791 8.5,108C 5.30218,105.3 2.30218,102.467 -0.5,99.5C -0.5,98.8333 -0.5,98.1667 -0.5,97.5 Z"/></g>
<g><path style="opacity:1" fill="#132a34" d="M 90.5,83.5 C 90.8503,86.8038 91.1837,90.1372 91.5,93.5C 92.4274,95.1128 93.2607,96.7795 94,98.5C 94.3333,98.1667 94.6667,97.8333 95,97.5C 95.3599,99.6079 96.0266,101.608 97,103.5C 98.1838,101.346 99.3504,101.68 100.5,104.5C 100.167,105.167 99.8333,105.833 99.5,106.5C 102.037,110.426 103.037,114.759 102.5,119.5C 99.0581,120.172 96.3914,119.172 94.5,116.5C 95.5,116.5 96.5,116.5 97.5,116.5C 97.5,115.5 97.5,114.5 97.5,113.5C 98.3382,113.158 98.6716,112.492 98.5,111.5C 99.5735,110.749 99.7401,109.749 99,108.5C 96.7519,105.672 94.7519,102.672 93,99.5C 91.5391,98.1175 90.7058,98.4508 90.5,100.5C 88.6672,98.168 87.3339,95.5014 86.5,92.5C 87.1515,93.0906 87.8182,93.7573 88.5,94.5C 89.214,90.7113 88.214,87.3779 85.5,84.5C 85.5,84.1667 85.5,83.8333 85.5,83.5C 85.369,82.7611 85.5357,82.0944 86,81.5C 87.1096,83.0368 88.6096,83.7035 90.5,83.5 Z"/></g>
<g><path style="opacity:1" fill="#112f3c" d="M 146.5,123.5 C 146.328,124.492 146.662,125.158 147.5,125.5C 147.205,128.734 147.871,131.734 149.5,134.5C 150.386,133.675 150.719,132.675 150.5,131.5C 151.598,132.601 151.765,133.934 151,135.5C 150.275,136.059 149.442,136.392 148.5,136.5C 144.845,135.007 141.512,133.007 138.5,130.5C 136.861,129.527 135.527,128.194 134.5,126.5C 135.573,125.749 135.74,124.749 135,123.5C 132.25,121.363 130.75,118.53 130.5,115C 131.954,113.341 133.287,113.674 134.5,116C 133.695,118.134 134.362,119.967 136.5,121.5C 137.652,118.894 137.818,116.227 137,113.5C 134.5,111 132,108.5 129.5,106C 129.728,105.601 130.062,105.435 130.5,105.5C 131.265,105.923 132.098,106.257 133,106.5C 135.433,105.521 137.933,104.855 140.5,104.5C 141.557,110.51 142.724,116.51 144,122.5C 144.671,123.252 145.504,123.586 146.5,123.5 Z"/></g>
<g><path style="opacity:1" fill="#040c10" d="M 97.5,76.5 C 99.104,81.7117 101.271,86.7117 104,91.5C 110.601,100.379 117.434,109.045 124.5,117.5C 124.103,118.525 123.437,118.692 122.5,118C 119.984,115.317 117.317,112.817 114.5,110.5C 114.167,110.833 113.833,111.167 113.5,111.5C 116.053,114.142 116.72,117.142 115.5,120.5C 113.252,117.672 111.252,114.672 109.5,111.5C 108.875,114.331 108.208,117.497 107.5,121C 107.514,122.385 107.848,123.551 108.5,124.5C 114.598,128.369 115.098,133.036 110,138.5C 107.809,139.833 105.976,141.5 104.5,143.5C 94.8333,143.5 85.1667,143.5 75.5,143.5C 76.3984,142.842 77.3984,142.176 78.5,141.5C 79.6527,140.313 79.6527,139.313 78.5,138.5C 79.648,137.836 80.9813,137.669 82.5,138C 83.2524,137.329 83.5858,136.496 83.5,135.5C 87.0267,136.852 90.1934,138.852 93,141.5C 97.4217,136.799 100.422,131.466 102,125.5C 101.292,124.619 100.458,123.953 99.5,123.5C 95.8002,121.719 91.8002,120.719 87.5,120.5C 85.4048,119.588 83.4048,118.421 81.5,117C 79.9632,115.89 79.2965,114.39 79.5,112.5C 79.5,112.167 79.5,111.833 79.5,111.5C 81.1992,111.34 82.8659,111.506 84.5,112C 87.54,114.22 90.8733,115.72 94.5,116.5C 96.3914,119.172 99.0581,120.172 102.5,119.5C 103.037,114.759 102.037,110.426 99.5,106.5C 99.8333,105.833 100.167,105.167 100.5,104.5C 99.3504,101.68 98.1838,101.346 97,103.5C 96.0266,101.608 95.3599,99.6079 95,97.5C 94.6667,97.8333 94.3333,98.1667 94,98.5C 93.2607,96.7795 92.4274,95.1128 91.5,93.5C 91.1837,90.1372 90.8503,86.8038 90.5,83.5C 91.038,81.8828 91.3713,80.2161 91.5,78.5C 92.1667,76.1667 92.8333,73.8333 93.5,71.5C 94.1174,71.3893 94.6174,71.056 95,70.5C 95.5662,72.7226 96.3995,74.7226 97.5,76.5 Z"/></g>
<g><path style="opacity:1" fill="#025c6e" d="M 204.5,97.5 C 205.5,97.5 206.5,97.5 207.5,97.5C 207.162,99.854 206.662,102.187 206,104.5C 205.692,103.692 205.192,103.025 204.5,102.5C 202.297,104.295 201.131,106.629 201,109.5C 198.842,110.05 198.342,111.05 199.5,112.5C 196.833,112.5 194.167,112.5 191.5,112.5C 189.265,112.795 187.265,112.461 185.5,111.5C 185.833,110.833 186.167,110.167 186.5,109.5C 192.252,105.073 198.252,101.073 204.5,97.5 Z"/></g>
<g><path style="opacity:1" fill="#93bfcb" d="M 87.5,107.5 C 89.0269,107.427 90.0269,108.094 90.5,109.5C 91.6602,111.203 90.9935,111.869 88.5,111.5C 85.7823,110.896 83.449,109.563 81.5,107.5C 81.4701,106.503 81.9701,105.836 83,105.5C 84.4064,106.414 85.9064,107.08 87.5,107.5 Z"/></g>
<g><path style="opacity:1" fill="#0e1f24" d="M -0.5,99.5 C 2.30218,102.467 5.30218,105.3 8.5,108C 9.74499,108.791 11.0783,109.291 12.5,109.5C 13.4293,110.315 14.4293,111.148 15.5,112C 14.244,112.417 13.5774,113.25 13.5,114.5C 8.55492,111.555 3.88825,108.221 -0.5,104.5C -0.5,102.833 -0.5,101.167 -0.5,99.5 Z"/></g>
<g><path style="opacity:1" fill="#1f373e" d="M 72.5,90.5 C 72.3379,92.5273 72.5045,94.5273 73,96.5C 73.9878,101.732 76.8211,105.398 81.5,107.5C 83.449,109.563 85.7823,110.896 88.5,111.5C 90.8693,112.69 92.8693,114.357 94.5,116.5C 90.8733,115.72 87.54,114.22 84.5,112C 82.8659,111.506 81.1992,111.34 79.5,111.5C 76.685,109.023 74.685,106.023 73.5,102.5C 72.4324,101.566 71.099,101.232 69.5,101.5C 69.5,100.5 69.5,99.5 69.5,98.5C 62.2791,97.8666 55.6124,95.8666 49.5,92.5C 46.2435,91.006 42.9102,89.506 39.5,88C 35.8136,87.4412 32.147,86.7745 28.5,86C 27.6364,84.3035 26.3031,83.1368 24.5,82.5C 23.6309,85.3131 21.7975,87.9797 19,90.5C 18.5983,91.8721 18.0983,93.2054 17.5,94.5C 18.5,94.5 19.5,94.5 20.5,94.5C 20.0233,95.4776 19.3567,96.3109 18.5,97C 22.9848,100.488 26.8182,104.655 30,109.5C 31.2504,108.427 32.5838,108.427 34,109.5C 39.2387,112.477 44.4054,115.644 49.5,119C 52.1547,119.564 54.8214,120.064 57.5,120.5C 59.3545,120.66 60.6879,119.993 61.5,118.5C 66.6429,119.807 71.8095,119.807 77,118.5C 77.8333,118.667 78.6667,118.833 79.5,119C 78.5842,119.278 77.9175,119.778 77.5,120.5C 76.5084,120.328 75.8417,120.662 75.5,121.5C 64.2951,123.451 53.2951,122.784 42.5,119.5C 32.2633,115.87 22.2633,111.37 12.5,106C 8.65306,102.986 5.31972,99.4865 2.5,95.5C 3.5,95.5 4.5,95.5 5.5,95.5C 6.44514,90.8075 7.44514,86.4742 8.5,82.5C 10.433,82.2714 12.0997,81.4381 13.5,80C 12.3966,78.3196 12.7299,76.8196 14.5,75.5C 15.7973,77.3668 17.2973,77.7002 19,76.5C 25.0462,77.8466 30.5462,80.3466 35.5,84C 42.0008,85.6121 48.3342,87.6121 54.5,90C 58.211,90.1747 61.8776,90.6747 65.5,91.5C 66.7224,93.9783 68.7224,94.9783 71.5,94.5C 71.2322,92.901 71.5655,91.5676 72.5,90.5 Z"/></g>
<g><path style="opacity:1" fill="#335c65" d="M 73.5,102.5 C 74.685,106.023 76.685,109.023 79.5,111.5C 79.5,111.833 79.5,112.167 79.5,112.5C 78.7784,112.918 78.2784,113.584 78,114.5C 73.0467,111.755 67.88,111.088 62.5,112.5C 62.6463,110.058 61.813,109.391 60,110.5C 56.8876,107.767 55.2209,104.433 55,100.5C 57.7426,101.629 60.4092,101.295 63,99.5C 66.1789,101.499 69.6789,102.499 73.5,102.5 Z"/></g>
<g><path style="opacity:1" fill="#2c4f59" d="M 49.5,92.5 C 55.6124,95.8666 62.2791,97.8666 69.5,98.5C 69.5,99.5 69.5,100.5 69.5,101.5C 71.099,101.232 72.4324,101.566 73.5,102.5C 69.6789,102.499 66.1789,101.499 63,99.5C 60.4092,101.295 57.7426,101.629 55,100.5C 55.2209,104.433 56.8876,107.767 60,110.5C 61.813,109.391 62.6463,110.058 62.5,112.5C 67.88,111.088 73.0467,111.755 78,114.5C 78.2784,113.584 78.7784,112.918 79.5,112.5C 79.2965,114.39 79.9632,115.89 81.5,117C 83.4048,118.421 85.4048,119.588 87.5,120.5C 90.1249,124.651 89.1249,127.984 84.5,130.5C 83.3554,129.224 83.3554,127.891 84.5,126.5C 84,126.167 83.5,125.833 83,125.5C 74.6925,126.802 66.5258,126.802 58.5,125.5C 67.8333,125.167 77.1667,124.833 86.5,124.5C 86.7373,123.209 86.404,122.209 85.5,121.5C 82.9039,120.735 80.2372,120.401 77.5,120.5C 77.9175,119.778 78.5842,119.278 79.5,119C 78.6667,118.833 77.8333,118.667 77,118.5C 71.8095,119.807 66.6429,119.807 61.5,118.5C 60.3117,117.636 59.1451,116.636 58,115.5C 55.9189,116.333 53.7522,116.333 51.5,115.5C 50.4075,113.196 49.7408,110.196 49.5,106.5C 46.5019,107.342 43.5019,107.842 40.5,108C 40.8333,107.667 41.1667,107.333 41.5,107C 40.1509,106.228 39.3176,105.061 39,103.5C 37.5064,104.747 36.0064,104.747 34.5,103.5C 34.9767,102.522 35.6433,101.689 36.5,101C 34.6025,100.1 32.9358,98.9337 31.5,97.5C 33.5136,95.155 35.847,93.155 38.5,91.5C 39.2164,92.311 40.0497,92.9777 41,93.5C 43.7695,92.6521 46.6029,92.3187 49.5,92.5 Z"/></g>
<g><path style="opacity:1" fill="#09191f" d="M 167.5,103.5 C 167.142,109.737 166.142,115.737 164.5,121.5C 165.093,116.281 164.093,115.614 161.5,119.5C 156.893,120.621 153.226,122.954 150.5,126.5C 149.833,124.167 149.167,121.833 148.5,119.5C 148.5,118.833 148.5,118.167 148.5,117.5C 152.544,118.042 156.211,117.209 159.5,115C 162.653,110.528 165.153,105.694 167,100.5C 167.483,101.448 167.649,102.448 167.5,103.5 Z"/></g>
<g><path style="opacity:1" fill="#0a262f" d="M 163.5,91.5 C 164.504,92.6828 165.338,94.0161 166,95.5C 168.157,91.8265 168.99,92.4932 168.5,97.5C 168.795,99.7354 168.461,101.735 167.5,103.5C 167.649,102.448 167.483,101.448 167,100.5C 165.153,105.694 162.653,110.528 159.5,115C 156.211,117.209 152.544,118.042 148.5,117.5C 153.994,117.337 157.661,114.67 159.5,109.5C 160.117,109.389 160.617,109.056 161,108.5C 161.373,106.302 161.873,104.135 162.5,102C 162.252,100.251 161.252,99.4176 159.5,99.5C 154.249,98.5193 154.249,97.5193 159.5,96.5C 158.756,93.0504 160.09,91.3838 163.5,91.5 Z"/></g>
<g><path style="opacity:1" fill="#0a2632" d="M 179.5,73.5 C 178.152,82.2263 176.485,90.8929 174.5,99.5C 178.783,100.492 183.116,100.826 187.5,100.5C 187.092,101.643 186.425,102.643 185.5,103.5C 180.992,106.253 176.659,109.253 172.5,112.5C 170.633,118.031 169.3,123.697 168.5,129.5C 168.051,131.533 167.051,133.2 165.5,134.5C 164.054,133.829 163.388,132.662 163.5,131C 163.528,129.93 163.861,129.097 164.5,128.5C 164.435,128.938 164.601,129.272 165,129.5C 169.212,118.565 171.378,107.232 171.5,95.5C 172.222,95.0825 172.722,94.4158 173,93.5C 173.333,94.1667 173.667,94.8333 174,95.5C 174.505,93.4817 175.005,91.4817 175.5,89.5C 176.1,86.001 176.766,82.501 177.5,79C 177.472,77.9302 177.139,77.0968 176.5,76.5C 176.5,74.5 177.5,73.5 179.5,73.5 Z"/></g>
<g><path style="opacity:1" fill="#28454c" d="M 49.5,92.5 C 46.6029,92.3187 43.7695,92.6521 41,93.5C 40.0497,92.9777 39.2164,92.311 38.5,91.5C 35.847,93.155 33.5136,95.155 31.5,97.5C 32.9358,98.9337 34.6025,100.1 36.5,101C 35.6433,101.689 34.9767,102.522 34.5,103.5C 36.0064,104.747 37.5064,104.747 39,103.5C 39.3176,105.061 40.1509,106.228 41.5,107C 41.1667,107.333 40.8333,107.667 40.5,108C 43.5019,107.842 46.5019,107.342 49.5,106.5C 49.7408,110.196 50.4075,113.196 51.5,115.5C 53.7522,116.333 55.9189,116.333 58,115.5C 59.1451,116.636 60.3117,117.636 61.5,118.5C 60.6879,119.993 59.3545,120.66 57.5,120.5C 54.8214,120.064 52.1547,119.564 49.5,119C 44.4054,115.644 39.2387,112.477 34,109.5C 32.5838,108.427 31.2504,108.427 30,109.5C 26.8182,104.655 22.9848,100.488 18.5,97C 19.3567,96.3109 20.0233,95.4776 20.5,94.5C 19.5,94.5 18.5,94.5 17.5,94.5C 18.0983,93.2054 18.5983,91.8721 19,90.5C 21.7975,87.9797 23.6309,85.3131 24.5,82.5C 26.3031,83.1368 27.6364,84.3035 28.5,86C 32.147,86.7745 35.8136,87.4412 39.5,88C 42.9102,89.506 46.2435,91.006 49.5,92.5 Z"/></g>
<g><path style="opacity:1" fill="#5b8a96" d="M 90.5,109.5 C 93.1003,110.468 95.4336,111.801 97.5,113.5C 97.5,114.5 97.5,115.5 97.5,116.5C 96.5,116.5 95.5,116.5 94.5,116.5C 92.8693,114.357 90.8693,112.69 88.5,111.5C 90.9935,111.869 91.6602,111.203 90.5,109.5 Z"/></g>
<g><path style="opacity:1" fill="#011c24" d="M 185.5,111.5 C 187.265,112.461 189.265,112.795 191.5,112.5C 194.167,113.167 196.833,113.833 199.5,114.5C 197.916,115.382 196.249,116.215 194.5,117C 189.511,117.499 184.511,117.666 179.5,117.5C 179.281,116.325 179.614,115.325 180.5,114.5C 182.201,113.446 183.868,112.446 185.5,111.5 Z"/></g>
<g><path style="opacity:1" fill="#39646f" d="M -0.5,93.5 C 0.709515,93.9321 1.70951,94.5987 2.5,95.5C 5.31972,99.4865 8.65306,102.986 12.5,106C 22.2633,111.37 32.2633,115.87 42.5,119.5C 41.209,119.263 40.209,119.596 39.5,120.5C 30.0983,117.626 21.0983,113.96 12.5,109.5C 8.18686,105.522 3.85352,101.522 -0.5,97.5C -0.5,96.1667 -0.5,94.8333 -0.5,93.5 Z"/></g>
<g><path style="opacity:1" fill="#3e7182" d="M 171.5,95.5 C 171.378,107.232 169.212,118.565 165,129.5C 164.601,129.272 164.435,128.938 164.5,128.5C 164.5,126.167 164.5,123.833 164.5,121.5C 166.142,115.737 167.142,109.737 167.5,103.5C 168.461,101.735 168.795,99.7354 168.5,97.5C 168.833,97.5 169.167,97.5 169.5,97.5C 169.435,97.9382 169.601,98.2716 170,98.5C 170.232,97.2625 170.732,96.2625 171.5,95.5 Z"/></g>
<g><path style="opacity:1" fill="#477785" d="M 140.5,96.5 C 141.609,96.5569 142.609,96.8902 143.5,97.5C 147.029,99.4228 151.029,100.089 155.5,99.5C 155.64,101.124 154.973,102.29 153.5,103C 150.774,103.182 148.107,103.682 145.5,104.5C 145.942,105.739 146.609,106.739 147.5,107.5C 146.79,110.93 147.957,113.263 151,114.5C 155.497,113.036 156.33,110.536 153.5,107C 151.527,106.505 149.527,106.338 147.5,106.5C 151.298,105.517 155.298,105.183 159.5,105.5C 159.5,106.833 159.5,108.167 159.5,109.5C 157.661,114.67 153.994,117.337 148.5,117.5C 148.5,118.167 148.5,118.833 148.5,119.5C 148.795,121.735 148.461,123.735 147.5,125.5C 146.662,125.158 146.328,124.492 146.5,123.5C 145.009,116.243 143.842,108.91 143,101.5C 142.153,99.8068 141.32,98.1401 140.5,96.5 Z"/></g>
<g><path style="opacity:1" fill="#51959d" d="M 147.5,106.5 C 149.527,106.338 151.527,106.505 153.5,107C 156.33,110.536 155.497,113.036 151,114.5C 147.957,113.263 146.79,110.93 147.5,107.5C 147.5,107.167 147.5,106.833 147.5,106.5 Z"/></g>
<g><path style="opacity:1" fill="#01060a" d="M 192.5,97.5 C 193.167,97.5 193.5,97.8333 193.5,98.5C 193.167,99.1667 192.833,99.8333 192.5,100.5C 190.475,102.196 188.475,103.863 186.5,105.5C 185.314,106.705 185.314,108.039 186.5,109.5C 186.167,110.167 185.833,110.833 185.5,111.5C 183.868,112.446 182.201,113.446 180.5,114.5C 179.614,115.325 179.281,116.325 179.5,117.5C 184.511,117.666 189.511,117.499 194.5,117C 196.249,116.215 197.916,115.382 199.5,114.5C 200.404,115.209 200.737,116.209 200.5,117.5C 200.279,118.735 199.612,119.735 198.5,120.5C 198.624,121.107 198.957,121.44 199.5,121.5C 200.209,122.404 201.209,122.737 202.5,122.5C 202.842,123.338 203.508,123.672 204.5,123.5C 203.048,124.302 201.382,124.802 199.5,125C 198.402,125.77 198.402,126.603 199.5,127.5C 197.484,126.544 195.651,125.21 194,123.5C 192.833,124.667 191.667,125.833 190.5,127C 192.901,127.805 192.734,128.638 190,129.5C 189.333,128.833 188.667,128.167 188,127.5C 183.381,131.06 178.214,133.393 172.5,134.5C 172.849,130.457 175.182,128.457 179.5,128.5C 180.442,128.608 181.275,128.941 182,129.5C 184.543,127.658 186.71,125.491 188.5,123C 186.087,122.516 183.754,122.85 181.5,124C 177.295,125.51 173.462,127.676 170,130.5C 169.617,129.944 169.117,129.611 168.5,129.5C 169.3,123.697 170.633,118.031 172.5,112.5C 176.659,109.253 180.992,106.253 185.5,103.5C 186.425,102.643 187.092,101.643 187.5,100.5C 189.411,99.925 191.078,98.925 192.5,97.5 Z"/></g>
<g><path style="opacity:1" fill="#003a4c" d="M 229.5,67.5 C 230.19,72.233 230.856,77.0664 231.5,82C 231.043,82.414 230.709,82.914 230.5,83.5C 234.401,87.8067 234.235,91.8067 230,95.5C 227.715,92.9425 225.715,93.2758 224,96.5C 217.911,103.802 212.578,111.469 208,119.5C 207.667,119.167 207.333,118.833 207,118.5C 206.626,119.416 206.126,120.25 205.5,121C 203.527,121.495 201.527,121.662 199.5,121.5C 198.957,121.44 198.624,121.107 198.5,120.5C 199.612,119.735 200.279,118.735 200.5,117.5C 202.661,117.174 204.494,116.174 206,114.5C 206.333,114.833 206.667,115.167 207,115.5C 207.333,114.5 207.667,113.5 208,112.5C 208.333,112.833 208.667,113.167 209,113.5C 209.5,111.667 210.667,110.5 212.5,110C 211.833,109.667 211.167,109.333 210.5,109C 212.976,107.691 214.976,105.858 216.5,103.5C 217.833,102.167 217.833,100.833 216.5,99.5C 217.806,98.0878 218.64,96.4211 219,94.5C 220.609,93.8534 222.109,93.02 223.5,92C 223.167,91.6667 222.833,91.3333 222.5,91C 224.957,89.4877 224.957,88.1544 222.5,87C 223.91,86.6322 224.91,85.7989 225.5,84.5C 225.39,82.9018 225.057,81.2352 224.5,79.5C 226.554,75.6721 228.221,71.6721 229.5,67.5 Z"/></g>
<g><path style="opacity:1" fill="#162e37" d="M 12.5,109.5 C 21.0983,113.96 30.0983,117.626 39.5,120.5C 41.403,120.796 43.0697,121.463 44.5,122.5C 39.2837,122.866 34.2837,122.032 29.5,120C 26.0562,117.193 22.2229,115.027 18,113.5C 16.9231,114.429 15.7564,115.096 14.5,115.5C 13.8333,115.5 13.5,115.167 13.5,114.5C 13.5774,113.25 14.244,112.417 15.5,112C 14.4293,111.148 13.4293,110.315 12.5,109.5 Z"/></g>
<g><path style="opacity:1" fill="#619eaf" d="M 77.5,120.5 C 80.2372,120.401 82.9039,120.735 85.5,121.5C 83.777,122.8 81.6103,123.467 79,123.5C 76.8333,123.333 74.6667,123.167 72.5,123C 73.7375,122.768 74.7375,122.268 75.5,121.5C 75.8417,120.662 76.5084,120.328 77.5,120.5 Z"/></g>
<g><path style="opacity:1" fill="#0a1920" d="M 44.5,122.5 C 45.8333,122.833 47.1667,123.167 48.5,123.5C 49.7175,124.161 51.0508,124.828 52.5,125.5C 49.972,126.517 49.972,127.684 52.5,129C 55.5,129.5 58.5,130 61.5,130.5C 63.4809,130.563 65.1476,129.896 66.5,128.5C 69.959,129.304 73.459,129.971 77,130.5C 78.8869,130.031 80.3869,129.031 81.5,127.5C 82.9004,129.782 82.2337,131.282 79.5,132C 81.579,133.64 83.9124,134.806 86.5,135.5C 87.4776,135.023 88.3109,134.357 89,133.5C 91.1385,134.769 93.3052,134.769 95.5,133.5C 96.1743,131.483 97.3409,129.817 99,128.5C 99.4935,126.866 99.6602,125.199 99.5,123.5C 100.458,123.953 101.292,124.619 102,125.5C 100.422,131.466 97.4217,136.799 93,141.5C 90.1934,138.852 87.0267,136.852 83.5,135.5C 82.2438,135.539 81.2438,135.039 80.5,134C 56.0382,135.89 34.0382,129.723 14.5,115.5C 15.7564,115.096 16.9231,114.429 18,113.5C 22.2229,115.027 26.0562,117.193 29.5,120C 34.2837,122.032 39.2837,122.866 44.5,122.5 Z"/></g>
<g><path style="opacity:1" fill="#03090b" d="M 255.5,131.5 C 255.5,135.5 255.5,139.5 255.5,143.5C 243.5,143.5 231.5,143.5 219.5,143.5C 218.737,142.732 217.737,142.232 216.5,142C 219.543,139.054 218.876,137.888 214.5,138.5C 214.351,137.448 214.517,136.448 215,135.5C 215.333,135.833 215.667,136.167 216,136.5C 217.085,134.627 218.418,132.96 220,131.5C 222.398,131.935 224.731,131.269 227,129.5C 227.414,129.957 227.914,130.291 228.5,130.5C 232.105,129.015 235.772,127.681 239.5,126.5C 241.922,126.745 244.255,126.745 246.5,126.5C 248.411,124.298 250.745,122.631 253.5,121.5C 255.65,126.096 254.317,128.763 249.5,129.5C 249.649,130.552 249.483,131.552 249,132.5C 246.182,135.669 243.015,138.503 239.5,141C 240,141.5 240.5,142 241,142.5C 245.484,139.681 249.318,136.181 252.5,132C 253.448,131.517 254.448,131.351 255.5,131.5 Z"/></g>
<g><path style="opacity:1" fill="#010506" d="M -0.5,104.5 C 3.88825,108.221 8.55492,111.555 13.5,114.5C 13.5,115.167 13.8333,115.5 14.5,115.5C 34.0382,129.723 56.0382,135.89 80.5,134C 81.2438,135.039 82.2438,135.539 83.5,135.5C 83.5858,136.496 83.2524,137.329 82.5,138C 80.9813,137.669 79.648,137.836 78.5,138.5C 71.7873,140.171 65.1206,141.837 58.5,143.5C 38.8333,143.5 19.1667,143.5 -0.5,143.5C -0.5,130.5 -0.5,117.5 -0.5,104.5 Z"/></g>
<g><path style="opacity:1" fill="#578692" d="M 39.5,120.5 C 40.209,119.596 41.209,119.263 42.5,119.5C 53.2951,122.784 64.2951,123.451 75.5,121.5C 74.7375,122.268 73.7375,122.768 72.5,123C 74.6667,123.167 76.8333,123.333 79,123.5C 81.6103,123.467 83.777,122.8 85.5,121.5C 86.404,122.209 86.7373,123.209 86.5,124.5C 77.1667,124.833 67.8333,125.167 58.5,125.5C 55.1667,124.833 51.8333,124.167 48.5,123.5C 47.1667,123.167 45.8333,122.833 44.5,122.5C 43.0697,121.463 41.403,120.796 39.5,120.5 Z"/></g>
<g><path style="opacity:1" fill="#000203" d="M 199.5,127.5 C 201.411,128.075 203.078,129.075 204.5,130.5C 204.714,132.144 204.38,133.644 203.5,135C 198.76,137.36 194.426,140.193 190.5,143.5C 175.167,143.5 159.833,143.5 144.5,143.5C 143.766,142.292 143.433,140.959 143.5,139.5C 149.144,140.508 154.644,140.508 160,139.5C 164.488,138.386 168.655,136.72 172.5,134.5C 178.214,133.393 183.381,131.06 188,127.5C 188.667,128.167 189.333,128.833 190,129.5C 192.734,128.638 192.901,127.805 190.5,127C 191.667,125.833 192.833,124.667 194,123.5C 195.651,125.21 197.484,126.544 199.5,127.5 Z"/></g>
<g><path style="opacity:1" fill="#020f13" d="M 255.5,97.5 C 255.5,108.833 255.5,120.167 255.5,131.5C 254.448,131.351 253.448,131.517 252.5,132C 249.318,136.181 245.484,139.681 241,142.5C 240.5,142 240,141.5 239.5,141C 243.015,138.503 246.182,135.669 249,132.5C 249.483,131.552 249.649,130.552 249.5,129.5C 254.317,128.763 255.65,126.096 253.5,121.5C 250.745,122.631 248.411,124.298 246.5,126.5C 244.255,126.745 241.922,126.745 239.5,126.5C 235.772,127.681 232.105,129.015 228.5,130.5C 227.914,130.291 227.414,129.957 227,129.5C 224.731,131.269 222.398,131.935 220,131.5C 218.418,132.96 217.085,134.627 216,136.5C 215.667,136.167 215.333,135.833 215,135.5C 214.517,136.448 214.351,137.448 214.5,138.5C 218.876,137.888 219.543,139.054 216.5,142C 217.737,142.232 218.737,142.732 219.5,143.5C 209.833,143.5 200.167,143.5 190.5,143.5C 194.426,140.193 198.76,137.36 203.5,135C 204.38,133.644 204.714,132.144 204.5,130.5C 210.247,130.406 215.914,129.74 221.5,128.5C 221.833,128.167 222.167,127.833 222.5,127.5C 221.667,127.167 220.833,126.833 220,126.5C 217.096,127.87 214.262,127.703 211.5,126C 216.047,124.455 220.713,124.121 225.5,125C 225.998,126.158 226.831,126.991 228,127.5C 229.762,127.056 229.595,126.556 227.5,126C 229.623,124.806 231.957,124.14 234.5,124C 235.833,123.333 235.833,122.667 234.5,122C 239.589,119.727 243.922,116.561 247.5,112.5C 248.265,110.705 248.932,108.872 249.5,107C 248.208,104.243 249.208,102.576 252.5,102C 251.513,99.4478 252.513,97.9478 255.5,97.5 Z"/></g>
<g><path style="opacity:1" fill="#061219" d="M 124.5,117.5 C 127.833,120.5 131.167,123.5 134.5,126.5C 135.527,128.194 136.861,129.527 138.5,130.5C 134.51,131.46 133.177,133.793 134.5,137.5C 137.202,138.522 139.869,139.522 142.5,140.5C 142.5,141.5 142.5,142.5 142.5,143.5C 135.5,143.5 128.5,143.5 121.5,143.5C 118.94,134.379 114.773,126.046 109,118.5C 108.505,120.473 108.338,122.473 108.5,124.5C 107.848,123.551 107.514,122.385 107.5,121C 108.208,117.497 108.875,114.331 109.5,111.5C 111.252,114.672 113.252,117.672 115.5,120.5C 116.72,117.142 116.053,114.142 113.5,111.5C 113.833,111.167 114.167,110.833 114.5,110.5C 117.317,112.817 119.984,115.317 122.5,118C 123.437,118.692 124.103,118.525 124.5,117.5 Z"/></g>
<g><path style="opacity:1" fill="#0d242d" d="M 87.5,120.5 C 91.8002,120.719 95.8002,121.719 99.5,123.5C 99.6602,125.199 99.4935,126.866 99,128.5C 97.3409,129.817 96.1743,131.483 95.5,133.5C 93.3052,134.769 91.1385,134.769 89,133.5C 88.3109,134.357 87.4776,135.023 86.5,135.5C 83.9124,134.806 81.579,133.64 79.5,132C 82.2337,131.282 82.9004,129.782 81.5,127.5C 80.3869,129.031 78.8869,130.031 77,130.5C 73.459,129.971 69.959,129.304 66.5,128.5C 65.1476,129.896 63.4809,130.563 61.5,130.5C 58.5,130 55.5,129.5 52.5,129C 49.972,127.684 49.972,126.517 52.5,125.5C 51.0508,124.828 49.7175,124.161 48.5,123.5C 51.8333,124.167 55.1667,124.833 58.5,125.5C 66.5258,126.802 74.6925,126.802 83,125.5C 83.5,125.833 84,126.167 84.5,126.5C 83.3554,127.891 83.3554,129.224 84.5,130.5C 89.1249,127.984 90.1249,124.651 87.5,120.5 Z"/></g>
<g><path style="opacity:1" fill="#2f5a68" d="M 148.5,119.5 C 149.167,121.833 149.833,124.167 150.5,126.5C 150.5,128.167 150.5,129.833 150.5,131.5C 150.719,132.675 150.386,133.675 149.5,134.5C 147.871,131.734 147.205,128.734 147.5,125.5C 148.461,123.735 148.795,121.735 148.5,119.5 Z"/></g>
<g><path style="opacity:1" fill="#02060b" d="M 164.5,121.5 C 164.5,123.833 164.5,126.167 164.5,128.5C 163.861,129.097 163.528,129.93 163.5,131C 163.388,132.662 164.054,133.829 165.5,134.5C 167.051,133.2 168.051,131.533 168.5,129.5C 169.117,129.611 169.617,129.944 170,130.5C 173.462,127.676 177.295,125.51 181.5,124C 183.754,122.85 186.087,122.516 188.5,123C 186.71,125.491 184.543,127.658 182,129.5C 181.275,128.941 180.442,128.608 179.5,128.5C 175.182,128.457 172.849,130.457 172.5,134.5C 168.655,136.72 164.488,138.386 160,139.5C 154.644,140.508 149.144,140.508 143.5,139.5C 143.433,140.959 143.766,142.292 144.5,143.5C 143.833,143.5 143.167,143.5 142.5,143.5C 142.5,142.5 142.5,141.5 142.5,140.5C 139.869,139.522 137.202,138.522 134.5,137.5C 133.177,133.793 134.51,131.46 138.5,130.5C 141.512,133.007 144.845,135.007 148.5,136.5C 149.442,136.392 150.275,136.059 151,135.5C 151.765,133.934 151.598,132.601 150.5,131.5C 150.5,129.833 150.5,128.167 150.5,126.5C 153.226,122.954 156.893,120.621 161.5,119.5C 164.093,115.614 165.093,116.281 164.5,121.5 Z"/></g>
<g><path style="opacity:1" fill="#2d5059" d="M 121.5,143.5 C 115.833,143.5 110.167,143.5 104.5,143.5C 105.976,141.5 107.809,139.833 110,138.5C 115.098,133.036 114.598,128.369 108.5,124.5C 108.338,122.473 108.505,120.473 109,118.5C 114.773,126.046 118.94,134.379 121.5,143.5 Z"/></g>
<g><path style="opacity:1" fill="#17272d" d="M 78.5,138.5 C 79.6527,139.313 79.6527,140.313 78.5,141.5C 77.3984,142.176 76.3984,142.842 75.5,143.5C 69.8333,143.5 64.1667,143.5 58.5,143.5C 65.1206,141.837 71.7873,140.171 78.5,138.5 Z"/></g>
</svg>
