<?xml version="1.0" encoding="UTF-8"?>
<!DOCTYPE svg PUBLIC "-//W3C//DTD SVG 1.1//EN" "http://www.w3.org/Graphics/SVG/1.1/DTD/svg11.dtd">
<svg xmlns="http://www.w3.org/2000/svg" version="1.1" width="256px" height="144px" style="shape-rendering:geometricPrecision; text-rendering:geometricPrecision; image-rendering:optimizeQuality; fill-rule:evenodd; clip-rule:evenodd" xmlns:xlink="http://www.w3.org/1999/xlink">
<g><path style="opacity:1" fill="#3b3d1a" d="M 90.5,-0.5 C 123.167,-0.5 155.833,-0.5 188.5,-0.5C 186.114,0.92002 183.447,1.92002 180.5,2.5C 185.817,3.22162 190.15,5.55495 193.5,9.5C 193.167,10.1667 192.833,10.8333 192.5,11.5C 187.505,10.8384 183.172,12.1717 179.5,15.5C 177.106,14.9853 174.772,14.3186 172.5,13.5C 166.678,12.5109 160.678,11.8442 154.5,11.5C 151.766,10.295 149.099,8.79504 146.5,7C 144.667,6.83333 142.833,6.66667 141,6.5C 135.916,7.13767 131.082,8.471 126.5,10.5C 123.696,9.36216 120.696,9.19549 117.5,10C 115.676,10.66 114.343,11.8267 113.5,13.5C 110.167,12.8333 106.833,12.1667 103.5,11.5C 102.869,6.53085 100.202,4.86418 95.5,6.5C 94.8889,3.24912 93.2223,0.915782 90.5,-0.5 Z"/></g>
<g><path style="opacity:1" fill="#212210" d="M 188.5,-0.5 C 210.833,-0.5 233.167,-0.5 255.5,-0.5C 255.5,11.5 255.5,23.5 255.5,35.5C 254.448,35.6495 253.448,35.4828 252.5,35C 250.297,32.6278 247.963,30.4611 245.5,28.5C 245.068,27.2905 244.401,26.2905 243.5,25.5C 242.777,17.1204 238.444,11.7871 230.5,9.5C 229.432,8.56552 228.099,8.23219 226.5,8.5C 220.576,2.87227 213.576,0.705603 205.5,2C 204.263,2.23209 203.263,2.73209 202.5,3.5C 199.013,4.74541 196.013,6.74541 193.5,9.5C 190.15,5.55495 185.817,3.22162 180.5,2.5C 183.447,1.92002 186.114,0.92002 188.5,-0.5 Z"/></g>
<g><path style="opacity:1" fill="#383918" d="M -0.5,-0.5 C 19.8333,-0.5 40.1667,-0.5 60.5,-0.5C 57.3549,0.232892 54.1882,1.23289 51,2.5C 47.024,2.45197 43.024,2.45197 39,2.5C 37.7147,2.95043 36.548,3.6171 35.5,4.5C 22.8356,3.46974 12.0023,7.46974 3,16.5C 1.9562,18.7148 1.28953,21.0481 1,23.5C 0.831304,38.6723 0.331304,53.6723 -0.5,68.5C -0.5,45.5 -0.5,22.5 -0.5,-0.5 Z"/></g>
<g><path style="opacity:1" fill="#707a5b" d="M 74.5,-0.5 C 75.1667,-0.5 75.8333,-0.5 76.5,-0.5C 77.5075,5.63198 78.5075,11.632 79.5,17.5C 78.9965,21.3354 77.9965,21.3354 76.5,17.5C 75.7792,19.686 75.1125,21.8526 74.5,24C 75.0944,24.4643 75.7611,24.631 76.5,24.5C 76.5,24.8333 76.5,25.1667 76.5,25.5C 75.8333,25.5 75.1667,25.5 74.5,25.5C 72.9724,24.1979 71.9724,22.5313 71.5,20.5C 72.1667,17.8333 72.8333,15.1667 73.5,12.5C 73.5696,8.38806 73.9029,4.05473 74.5,-0.5 Z"/></g>
<g><path style="opacity:1" fill="#98ac4f" d="M 226.5,8.5 C 228.423,11.6032 230.59,14.6032 233,17.5C 233.667,19.1667 233.667,20.8333 233,22.5C 232.722,21.5842 232.222,20.9175 231.5,20.5C 229.291,14.2912 225.291,9.62456 219.5,6.5C 214.288,3.802 208.622,2.802 202.5,3.5C 203.263,2.73209 204.263,2.23209 205.5,2C 213.576,0.705603 220.576,2.87227 226.5,8.5 Z"/></g>
<g><path style="opacity:1" fill="#283321" d="M 76.5,-0.5 C 78.5,-0.5 80.5,-0.5 82.5,-0.5C 84.177,1.53982 85.8437,3.53982 87.5,5.5C 86.2745,6.93698 85.2745,8.60365 84.5,10.5C 83.2638,11.2458 81.9305,11.5792 80.5,11.5C 79.5386,13.2646 79.2053,15.2646 79.5,17.5C 78.5075,11.632 77.5075,5.63198 76.5,-0.5 Z"/></g>
<g><path style="opacity:1" fill="#43461d" d="M 60.5,-0.5 C 65.1667,-0.5 69.8333,-0.5 74.5,-0.5C 73.9029,4.05473 73.5696,8.38806 73.5,12.5C 71.8601,10.045 69.5268,8.54502 66.5,8C 59.1433,7.24772 51.81,8.08106 44.5,10.5C 42.2606,8.87953 40.4272,9.21286 39,11.5C 37.5421,10.2532 36.0421,10.2532 34.5,11.5C 33.5224,11.0233 32.6891,10.3567 32,9.5C 27.7026,11.5788 23.2026,13.0788 18.5,14C 17.5399,15.4194 16.7065,16.9194 16,18.5C 15.0862,17.3463 14.2529,17.513 13.5,19C 13.9574,19.414 14.2907,19.914 14.5,20.5C 12.8333,21.6667 11.1667,22.8333 9.5,24C 9.95735,24.414 10.2907,24.914 10.5,25.5C 6.47696,30.6089 5.81029,36.4422 8.5,43C 7.83333,44.3333 7.16667,45.6667 6.5,47C 7.83333,49.3333 7.83333,51.6667 6.5,54C 5.4216,54.6739 4.75493,55.6739 4.5,57C 5.34042,58.9413 6.00708,60.9413 6.5,63C 5.88338,65.1587 5.88338,67.1587 6.5,69C 6.09464,69.9454 5.42797,70.6121 4.5,71C 5.7101,72.0391 6.7101,73.2058 7.5,74.5C 5.20649,78.1274 2.53982,81.4607 -0.5,84.5C -0.5,79.1667 -0.5,73.8333 -0.5,68.5C 0.331304,53.6723 0.831304,38.6723 1,23.5C 1.28953,21.0481 1.9562,18.7148 3,16.5C 12.0023,7.46974 22.8356,3.46974 35.5,4.5C 36.548,3.6171 37.7147,2.95043 39,2.5C 43.024,2.45197 47.024,2.45197 51,2.5C 54.1882,1.23289 57.3549,0.232892 60.5,-0.5 Z"/></g>
<g><path style="opacity:1" fill="#443c26" d="M 202.5,3.5 C 208.622,2.802 214.288,3.802 219.5,6.5C 223.721,10.6001 227.221,15.2668 230,20.5C 230.69,21.7383 231.19,21.7383 231.5,20.5C 232.222,20.9175 232.722,21.5842 233,22.5C 233.667,20.8333 233.667,19.1667 233,17.5C 230.59,14.6032 228.423,11.6032 226.5,8.5C 228.099,8.23219 229.432,8.56552 230.5,9.5C 233.576,11.0475 235.576,14.0475 236.5,18.5C 235.414,18.62 234.747,19.2867 234.5,20.5C 235.375,24.7873 235.708,29.1206 235.5,33.5C 234.325,33.719 233.325,33.3857 232.5,32.5C 230.47,29.7737 228.97,26.7737 228,23.5C 227.292,22.6195 226.458,21.9528 225.5,21.5C 223.089,14.5877 218.423,9.75442 211.5,7C 208.307,7.4221 205.14,7.25544 202,6.5C 199.966,7.94417 199.132,9.94417 199.5,12.5C 197.236,11.7814 194.903,11.448 192.5,11.5C 192.833,10.8333 193.167,10.1667 193.5,9.5C 196.013,6.74541 199.013,4.74541 202.5,3.5 Z"/></g>
<g><path style="opacity:1" fill="#9aaf80" d="M 219.5,6.5 C 225.291,9.62456 229.291,14.2912 231.5,20.5C 231.19,21.7383 230.69,21.7383 230,20.5C 227.221,15.2668 223.721,10.6001 219.5,6.5 Z"/></g>
<g><path style="opacity:1" fill="#3d5228" d="M 82.5,-0.5 C 85.1667,-0.5 87.8333,-0.5 90.5,-0.5C 93.2223,0.915782 94.8889,3.24912 95.5,6.5C 94.6457,7.63163 94.6457,8.96497 95.5,10.5C 94.8826,10.3893 94.3826,10.056 94,9.5C 93.51,10.7932 93.3433,12.1266 93.5,13.5C 91.6693,14.0522 90.0026,14.0522 88.5,13.5C 85.9404,11.3257 85.9404,9.15902 88.5,7C 88.4301,6.2352 88.0967,5.7352 87.5,5.5C 85.8437,3.53982 84.177,1.53982 82.5,-0.5 Z"/></g>
<g><path style="opacity:1" fill="#2a3713" d="M 87.5,5.5 C 88.0967,5.7352 88.4301,6.2352 88.5,7C 85.9404,9.15902 85.9404,11.3257 88.5,13.5C 90.0026,14.0522 91.6693,14.0522 93.5,13.5C 93.3433,12.1266 93.51,10.7932 94,9.5C 94.3826,10.056 94.8826,10.3893 95.5,10.5C 96.7736,12.9925 97.4403,15.6592 97.5,18.5C 99.1238,18.6399 100.29,17.9733 101,16.5C 106.552,18.5187 112.385,19.8521 118.5,20.5C 119.167,20.5 119.5,20.8333 119.5,21.5C 116.406,22.2134 113.406,23.2134 110.5,24.5C 108.577,24.205 106.91,23.3717 105.5,22C 99.8431,21.5006 94.1764,21.3339 88.5,21.5C 89.9516,20.6981 91.6183,20.1981 93.5,20C 91.6969,19.3632 90.3636,18.1965 89.5,16.5C 88.7492,17.376 88.2492,18.376 88,19.5C 86.8989,17.6061 85.5655,16.9394 84,17.5C 82.5693,15.6365 81.4026,13.6365 80.5,11.5C 81.9305,11.5792 83.2638,11.2458 84.5,10.5C 85.2745,8.60365 86.2745,6.93698 87.5,5.5 Z"/></g>
<g><path style="opacity:1" fill="#4b4e20" d="M 73.5,12.5 C 69.6824,12.5862 66.0157,11.9195 62.5,10.5C 59.9278,11.1607 57.2611,11.3274 54.5,11C 53.7801,13.1223 52.6134,13.6223 51,12.5C 50.4806,13.5156 49.6473,14.1822 48.5,14.5C 44.7195,15.1463 41.0528,14.4796 37.5,12.5C 36.8333,12.6667 36.1667,12.8333 35.5,13C 36.8333,13.6667 36.8333,14.3333 35.5,15C 34.2341,15.3095 33.0674,15.8095 32,16.5C 31.6667,16.1667 31.3333,15.8333 31,15.5C 30.323,17.689 29.1563,18.0224 27.5,16.5C 25.1463,17.0601 22.813,17.7267 20.5,18.5C 17.536,22.7395 14.536,26.4061 11.5,29.5C 10.4077,35.2275 10.4077,40.8942 11.5,46.5C 11.1976,51.2046 10.1976,55.7046 8.5,60C 9.5428,63.0562 11.2095,65.5562 13.5,67.5C 12.2003,70.4323 10.2003,72.7656 7.5,74.5C 6.7101,73.2058 5.7101,72.0391 4.5,71C 5.42797,70.6121 6.09464,69.9454 6.5,69C 5.88338,67.1587 5.88338,65.1587 6.5,63C 6.00708,60.9413 5.34042,58.9413 4.5,57C 4.75493,55.6739 5.4216,54.6739 6.5,54C 7.83333,51.6667 7.83333,49.3333 6.5,47C 7.16667,45.6667 7.83333,44.3333 8.5,43C 5.81029,36.4422 6.47696,30.6089 10.5,25.5C 10.2907,24.914 9.95735,24.414 9.5,24C 11.1667,22.8333 12.8333,21.6667 14.5,20.5C 14.2907,19.914 13.9574,19.414 13.5,19C 14.2529,17.513 15.0862,17.3463 16,18.5C 16.7065,16.9194 17.5399,15.4194 18.5,14C 23.2026,13.0788 27.7026,11.5788 32,9.5C 32.6891,10.3567 33.5224,11.0233 34.5,11.5C 36.0421,10.2532 37.5421,10.2532 39,11.5C 40.4272,9.21286 42.2606,8.87953 44.5,10.5C 51.81,8.08106 59.1433,7.24772 66.5,8C 69.5268,8.54502 71.8601,10.045 73.5,12.5 Z"/></g>
<g><path style="opacity:1" fill="#8cca46" d="M 103.5,11.5 C 106.833,12.1667 110.167,12.8333 113.5,13.5C 113.5,13.8333 113.5,14.1667 113.5,14.5C 110.962,14.4928 108.462,14.1595 106,13.5C 104.624,13.3158 103.791,12.6491 103.5,11.5 Z"/></g>
<g><path style="opacity:1" fill="#848451" d="M 154.5,11.5 C 160.678,11.8442 166.678,12.5109 172.5,13.5C 166.238,13.8951 160.238,13.2284 154.5,11.5 Z"/></g>
<g><path style="opacity:1" fill="#9ea66d" d="M 230.5,9.5 C 238.444,11.7871 242.777,17.1204 243.5,25.5C 243.663,27.8568 243.497,30.1902 243,32.5C 241.72,27.2851 239.553,22.6184 236.5,18.5C 235.576,14.0475 233.576,11.0475 230.5,9.5 Z"/></g>
<g><path style="opacity:1" fill="#f7f7a1" d="M 154.5,11.5 C 160.238,13.2284 166.238,13.8951 172.5,13.5C 174.772,14.3186 177.106,14.9853 179.5,15.5C 179.5,16.1667 179.167,16.5 178.5,16.5C 167.975,16.2896 157.642,16.2896 147.5,16.5C 144.924,15.8931 142.591,14.7264 140.5,13C 137.5,12.3333 134.5,12.3333 131.5,13C 132.888,13.8893 132.722,14.3893 131,14.5C 126.718,13.711 122.552,12.5444 118.5,11C 121.146,10.5026 123.813,10.3359 126.5,10.5C 131.082,8.471 135.916,7.13767 141,6.5C 142.833,6.66667 144.667,6.83333 146.5,7C 149.099,8.79504 151.766,10.295 154.5,11.5 Z"/></g>
<g><path style="opacity:1" fill="#ccde64" d="M 192.5,11.5 C 194.903,11.448 197.236,11.7814 199.5,12.5C 203.571,12.7662 207.571,12.4328 211.5,11.5C 212.893,12.8631 214.559,13.6964 216.5,14C 217.305,15.1127 217.972,16.2794 218.5,17.5C 218.565,17.9382 218.399,18.2716 218,18.5C 213.909,14.6951 209.076,13.5284 203.5,15C 208.944,17.6127 213.277,21.4461 216.5,26.5C 216.565,26.9382 216.399,27.2716 216,27.5C 215.292,26.6195 214.458,25.9528 213.5,25.5C 212.833,25.5 212.5,25.1667 212.5,24.5C 210.332,21.5001 207.666,19.0001 204.5,17C 202.975,15.9914 201.308,15.4914 199.5,15.5C 197.71,14.0027 195.544,13.336 193,13.5C 189.588,13.6143 186.421,14.2809 183.5,15.5C 181.999,16.7515 180.332,17.7515 178.5,18.5C 178.5,17.8333 178.5,17.1667 178.5,16.5C 179.167,16.5 179.5,16.1667 179.5,15.5C 183.172,12.1717 187.505,10.8384 192.5,11.5 Z"/></g>
<g><path style="opacity:1" fill="#4f5321" d="M 73.5,12.5 C 72.8333,15.1667 72.1667,17.8333 71.5,20.5C 71.1667,20.5 70.8333,20.5 70.5,20.5C 68.4588,20.1459 66.6255,20.1459 65,20.5C 61.8224,17.6202 58.1558,15.6202 54,14.5C 51.4624,16.8752 48.6291,17.5419 45.5,16.5C 44.5,17 43.5,17.5 42.5,18C 43.5171,19.0495 43.6838,20.2161 43,21.5C 38.7594,17.6747 34.5928,17.6747 30.5,21.5C 28.1912,20.0673 26.6912,20.734 26,23.5C 25.6924,22.6919 25.1924,22.0253 24.5,21.5C 22.8849,22.154 21.2182,22.654 19.5,23C 19.9694,24.962 19.3027,26.7953 17.5,28.5C 18.9525,30.8033 19.9525,32.9699 20.5,35C 18.1944,36.7931 17.8611,38.9597 19.5,41.5C 18.1667,43.1667 16.8333,44.8333 15.5,46.5C 14.135,45.1931 12.8016,45.1931 11.5,46.5C 10.4077,40.8942 10.4077,35.2275 11.5,29.5C 14.536,26.4061 17.536,22.7395 20.5,18.5C 22.813,17.7267 25.1463,17.0601 27.5,16.5C 29.1563,18.0224 30.323,17.689 31,15.5C 31.3333,15.8333 31.6667,16.1667 32,16.5C 33.0674,15.8095 34.2341,15.3095 35.5,15C 36.8333,14.3333 36.8333,13.6667 35.5,13C 36.1667,12.8333 36.8333,12.6667 37.5,12.5C 41.0528,14.4796 44.7195,15.1463 48.5,14.5C 49.6473,14.1822 50.4806,13.5156 51,12.5C 52.6134,13.6223 53.7801,13.1223 54.5,11C 57.2611,11.3274 59.9278,11.1607 62.5,10.5C 66.0157,11.9195 69.6824,12.5862 73.5,12.5 Z"/></g>
<g><path style="opacity:1" fill="#95d134" d="M 114.5,15.5 C 114.833,16.1667 115.167,16.8333 115.5,17.5C 111.194,16.9342 110.861,16.2675 114.5,15.5 Z"/></g>
<g><path style="opacity:1" fill="#c0a56a" d="M 218.5,17.5 C 221.451,19.7317 223.118,22.7317 223.5,26.5C 223.719,27.675 223.386,28.675 222.5,29.5C 221.261,29.9424 220.261,30.6091 219.5,31.5C 218.687,29.7392 217.687,28.0725 216.5,26.5C 213.277,21.4461 208.944,17.6127 203.5,15C 209.076,13.5284 213.909,14.6951 218,18.5C 218.399,18.2716 218.565,17.9382 218.5,17.5 Z"/></g>
<g><path style="opacity:1" fill="#425f26" d="M 103.5,11.5 C 103.791,12.6491 104.624,13.3158 106,13.5C 108.462,14.1595 110.962,14.4928 113.5,14.5C 114.167,14.5 114.5,14.8333 114.5,15.5C 110.861,16.2675 111.194,16.9342 115.5,17.5C 116.492,17.3284 117.158,17.6618 117.5,18.5C 117.833,19.1667 118.167,19.8333 118.5,20.5C 112.385,19.8521 106.552,18.5187 101,16.5C 100.29,17.9733 99.1238,18.6399 97.5,18.5C 97.4403,15.6592 96.7736,12.9925 95.5,10.5C 94.6457,8.96497 94.6457,7.63163 95.5,6.5C 100.202,4.86418 102.869,6.53085 103.5,11.5 Z"/></g>
<g><path style="opacity:1" fill="#1a2209" d="M 80.5,11.5 C 81.4026,13.6365 82.5693,15.6365 84,17.5C 85.5655,16.9394 86.8989,17.6061 88,19.5C 88.2492,18.376 88.7492,17.376 89.5,16.5C 90.3636,18.1965 91.6969,19.3632 93.5,20C 91.6183,20.1981 89.9516,20.6981 88.5,21.5C 84.5207,22.4969 80.5207,23.4969 76.5,24.5C 75.7611,24.631 75.0944,24.4643 74.5,24C 75.1125,21.8526 75.7792,19.686 76.5,17.5C 77.9965,21.3354 78.9965,21.3354 79.5,17.5C 79.2053,15.2646 79.5386,13.2646 80.5,11.5 Z"/></g>
<g><path style="opacity:1" fill="#b0c694" d="M 199.5,15.5 C 201.308,15.4914 202.975,15.9914 204.5,17C 207.666,19.0001 210.332,21.5001 212.5,24.5C 211.577,25.3029 210.577,25.4696 209.5,25C 205.858,21.5134 201.858,18.5134 197.5,16C 198.094,15.5357 198.761,15.369 199.5,15.5 Z"/></g>
<g><path style="opacity:1" fill="#1e1606" d="M 225.5,21.5 C 227.72,24.7649 228.886,28.4315 229,32.5C 231.08,34.8667 232.58,37.5333 233.5,40.5C 232.594,41.9649 231.261,42.9649 229.5,43.5C 226.288,38.5704 224.622,33.2371 224.5,27.5C 224.5,26.8333 224.167,26.5 223.5,26.5C 223.118,22.7317 221.451,19.7317 218.5,17.5C 217.972,16.2794 217.305,15.1127 216.5,14C 214.559,13.6964 212.893,12.8631 211.5,11.5C 207.571,12.4328 203.571,12.7662 199.5,12.5C 199.132,9.94417 199.966,7.94417 202,6.5C 205.14,7.25544 208.307,7.4221 211.5,7C 218.423,9.75442 223.089,14.5877 225.5,21.5 Z"/></g>
<g><path style="opacity:1" fill="#545823" d="M 70.5,20.5 C 70.1667,21.5 69.5,22.1667 68.5,22.5C 67.0337,23.347 66.2004,24.6803 66,26.5C 62.9537,26.4783 59.787,25.8116 56.5,24.5C 55.3527,24.8178 54.5194,25.4844 54,26.5C 52.5421,25.2532 51.0421,25.2532 49.5,26.5C 49.7832,23.4396 48.1165,21.7729 44.5,21.5C 44.5,22.8333 44.5,24.1667 44.5,25.5C 43.0695,25.5792 41.7362,25.2458 40.5,24.5C 40.598,25.6161 40.098,26.6161 39,27.5C 38.7474,26.4655 37.914,25.4655 36.5,24.5C 35.4968,26.542 34.1634,26.8754 32.5,25.5C 31.2404,27.3529 31.2404,29.1862 32.5,31C 29.0348,31.6499 26.0348,33.1499 23.5,35.5C 24.4726,38.5599 24.4726,41.8933 23.5,45.5C 22.2807,46.2634 21.2807,47.2634 20.5,48.5C 19.914,48.2907 19.414,47.9574 19,47.5C 17.8333,49.3333 16.3333,50.8333 14.5,52C 15.2529,55.6734 16.9195,58.8401 19.5,61.5C 17.8333,63.8333 15.8333,65.8333 13.5,67.5C 11.2095,65.5562 9.5428,63.0562 8.5,60C 10.1976,55.7046 11.1976,51.2046 11.5,46.5C 12.8016,45.1931 14.135,45.1931 15.5,46.5C 16.8333,44.8333 18.1667,43.1667 19.5,41.5C 17.8611,38.9597 18.1944,36.7931 20.5,35C 19.9525,32.9699 18.9525,30.8033 17.5,28.5C 19.3027,26.7953 19.9694,24.962 19.5,23C 21.2182,22.654 22.8849,22.154 24.5,21.5C 25.1924,22.0253 25.6924,22.6919 26,23.5C 26.6912,20.734 28.1912,20.0673 30.5,21.5C 34.5928,17.6747 38.7594,17.6747 43,21.5C 43.6838,20.2161 43.5171,19.0495 42.5,18C 43.5,17.5 44.5,17 45.5,16.5C 48.6291,17.5419 51.4624,16.8752 54,14.5C 58.1558,15.6202 61.8224,17.6202 65,20.5C 66.6255,20.1459 68.4588,20.1459 70.5,20.5 Z"/></g>
<g><path style="opacity:1" fill="#f2ec94" d="M 88.5,21.5 C 94.1764,21.3339 99.8431,21.5006 105.5,22C 106.91,23.3717 108.577,24.205 110.5,24.5C 113.833,27.1667 117.167,29.8333 120.5,32.5C 120.265,33.0967 119.765,33.4301 119,33.5C 117.697,33.0217 116.531,32.355 115.5,31.5C 111.304,26.765 105.97,24.0984 99.5,23.5C 97.5789,23.8603 95.9122,24.6936 94.5,26C 87.0871,25.8716 79.9205,27.0383 73,29.5C 72.5,29.3333 72,29.1667 71.5,29C 73.4308,28.0978 75.0975,26.9312 76.5,25.5C 76.5,25.1667 76.5,24.8333 76.5,24.5C 80.5207,23.4969 84.5207,22.4969 88.5,21.5 Z"/></g>
<g><path style="opacity:1" fill="#e1c593" d="M 126.5,10.5 C 123.813,10.3359 121.146,10.5026 118.5,11C 122.552,12.5444 126.718,13.711 131,14.5C 132.722,14.3893 132.888,13.8893 131.5,13C 134.5,12.3333 137.5,12.3333 140.5,13C 142.591,14.7264 144.924,15.8931 147.5,16.5C 148.5,16.5 149.5,16.5 150.5,16.5C 150.5,17.1667 150.167,17.5 149.5,17.5C 147.473,17.3379 145.473,17.5045 143.5,18C 141.917,21.861 139.917,25.361 137.5,28.5C 135.589,28.4257 134.422,27.4257 134,25.5C 131.624,26.0896 129.457,26.0896 127.5,25.5C 124.364,22.9124 121.031,20.5791 117.5,18.5C 117.158,17.6618 116.492,17.3284 115.5,17.5C 115.167,16.8333 114.833,16.1667 114.5,15.5C 114.5,14.8333 114.167,14.5 113.5,14.5C 113.5,14.1667 113.5,13.8333 113.5,13.5C 114.343,11.8267 115.676,10.66 117.5,10C 120.696,9.19549 123.696,9.36216 126.5,10.5 Z"/></g>
<g><path style="opacity:1" fill="#8ec340" d="M 117.5,18.5 C 121.031,20.5791 124.364,22.9124 127.5,25.5C 128.11,26.391 128.443,27.391 128.5,28.5C 125.155,26.6665 121.821,24.8331 118.5,23C 119.5,22.6667 120.5,22.3333 121.5,22C 120.906,21.5357 120.239,21.369 119.5,21.5C 119.5,20.8333 119.167,20.5 118.5,20.5C 118.167,19.8333 117.833,19.1667 117.5,18.5 Z"/></g>
<g><path style="opacity:1" fill="#c7a96d" d="M 149.5,17.5 C 145.89,22.8607 145.89,28.194 149.5,33.5C 146.651,37.9167 147.484,41.5833 152,44.5C 151.758,48.3036 153.258,50.9702 156.5,52.5C 156.631,53.3764 156.298,54.0431 155.5,54.5C 152.597,53.3256 150.597,51.3256 149.5,48.5C 146.586,44.8506 144.586,40.6839 143.5,36C 143.585,34.8926 143.919,33.8926 144.5,33C 142.833,32 141.5,30.6667 140.5,29C 139.231,29.1085 138.231,28.9418 137.5,28.5C 139.917,25.361 141.917,21.861 143.5,18C 145.473,17.5045 147.473,17.3379 149.5,17.5 Z"/></g>
<g><path style="opacity:1" fill="#d8cd84" d="M 147.5,16.5 C 157.642,16.2896 167.975,16.2896 178.5,16.5C 178.5,17.1667 178.5,17.8333 178.5,18.5C 170.988,16.0272 165.321,18.1938 161.5,25C 159.553,25.9913 157.553,26.3247 155.5,26C 156.38,24.6439 156.714,23.1439 156.5,21.5C 153.884,20.6367 151.884,18.9701 150.5,16.5C 149.5,16.5 148.5,16.5 147.5,16.5 Z"/></g>
<g><path style="opacity:1" fill="#5c3f22" d="M 176.5,20.5 C 175.949,23.8067 175.616,27.1401 175.5,30.5C 176.833,30.5 178.167,30.5 179.5,30.5C 179.5,29.5 179.5,28.5 179.5,27.5C 182.108,27.3944 184.108,26.2277 185.5,24C 186.793,23.51 188.127,23.3433 189.5,23.5C 189.389,24.1174 189.056,24.6174 188.5,25C 191.818,25.8792 195.152,26.7125 198.5,27.5C 197.68,29.1112 196.346,29.7778 194.5,29.5C 190.354,28.353 186.02,28.1864 181.5,29C 180.549,29.7175 180.383,30.5509 181,31.5C 182.255,32.2106 183.421,33.044 184.5,34C 183.62,35.3561 183.286,36.8561 183.5,38.5C 182.549,37.0813 182.216,35.4147 182.5,33.5C 181.07,33.5792 179.736,33.2458 178.5,32.5C 178.12,34.0207 177.954,35.6874 178,37.5C 177.023,36.2264 176.189,36.2264 175.5,37.5C 174.391,37.4431 173.391,37.1098 172.5,36.5C 172.334,32.4862 172.501,28.4862 173,24.5C 173.949,22.9069 175.115,21.5736 176.5,20.5 Z"/></g>
<g><path style="opacity:1" fill="#5c5f26" d="M 68.5,22.5 C 67.5407,28.2007 64.2074,32.034 58.5,34C 57.0194,36.7623 55.3527,39.429 53.5,42C 49.2297,43.2542 44.8964,44.2542 40.5,45C 33.4698,50.5086 26.4698,56.0086 19.5,61.5C 16.9195,58.8401 15.2529,55.6734 14.5,52C 16.3333,50.8333 17.8333,49.3333 19,47.5C 19.414,47.9574 19.914,48.2907 20.5,48.5C 21.2807,47.2634 22.2807,46.2634 23.5,45.5C 24.4726,41.8933 24.4726,38.5599 23.5,35.5C 26.0348,33.1499 29.0348,31.6499 32.5,31C 31.2404,29.1862 31.2404,27.3529 32.5,25.5C 34.1634,26.8754 35.4968,26.542 36.5,24.5C 37.914,25.4655 38.7474,26.4655 39,27.5C 40.098,26.6161 40.598,25.6161 40.5,24.5C 41.7362,25.2458 43.0695,25.5792 44.5,25.5C 44.5,24.1667 44.5,22.8333 44.5,21.5C 48.1165,21.7729 49.7832,23.4396 49.5,26.5C 51.0421,25.2532 52.5421,25.2532 54,26.5C 54.5194,25.4844 55.3527,24.8178 56.5,24.5C 59.787,25.8116 62.9537,26.4783 66,26.5C 66.2004,24.6803 67.0337,23.347 68.5,22.5 Z"/></g>
<g><path style="opacity:1" fill="#f7d192" d="M 115.5,31.5 C 111.941,31.2845 108.441,31.6178 105,32.5C 102.816,29.5434 101.649,29.8767 101.5,33.5C 101.167,33.5 100.833,33.5 100.5,33.5C 100.427,30.0504 98.5941,28.717 95,29.5C 91.1546,29.9065 87.3213,30.4065 83.5,31C 82.33,32.7547 80.6633,33.7547 78.5,34C 87.8099,34.8281 87.8099,35.3281 78.5,35.5C 73.7697,35.2834 69.1031,35.6167 64.5,36.5C 65.7241,33.8295 67.3908,31.4962 69.5,29.5C 70.6718,27.461 72.3384,26.1276 74.5,25.5C 75.1667,25.5 75.8333,25.5 76.5,25.5C 75.0975,26.9312 73.4308,28.0978 71.5,29C 72,29.1667 72.5,29.3333 73,29.5C 79.9205,27.0383 87.0871,25.8716 94.5,26C 95.9122,24.6936 97.5789,23.8603 99.5,23.5C 105.97,24.0984 111.304,26.765 115.5,31.5 Z"/></g>
<g><path style="opacity:1" fill="#1c1706" d="M 183.5,15.5 C 187.247,15.3924 190.914,15.8924 194.5,17C 199.81,20.9686 205.143,24.9686 210.5,29C 213.747,33.6138 217.08,38.1138 220.5,42.5C 219.859,44.8147 218.525,46.4814 216.5,47.5C 215.752,45.6675 214.752,44.0009 213.5,42.5C 209.765,37.1377 205.765,31.9711 201.5,27C 197.813,24.715 193.813,23.5483 189.5,23.5C 188.127,23.3433 186.793,23.51 185.5,24C 184.108,26.2277 182.108,27.3944 179.5,27.5C 179.5,28.5 179.5,29.5 179.5,30.5C 178.167,30.5 176.833,30.5 175.5,30.5C 175.616,27.1401 175.949,23.8067 176.5,20.5C 177.167,20.5 177.5,20.1667 177.5,19.5C 178.167,19.5 178.5,19.1667 178.5,18.5C 180.332,17.7515 181.999,16.7515 183.5,15.5 Z"/></g>
<g><path style="opacity:1" fill="#51452c" d="M 199.5,15.5 C 198.761,15.369 198.094,15.5357 197.5,16C 201.858,18.5134 205.858,21.5134 209.5,25C 210.577,25.4696 211.577,25.3029 212.5,24.5C 212.5,25.1667 212.833,25.5 213.5,25.5C 214.64,29.7287 216.807,33.3954 220,36.5C 220.464,35.9056 220.631,35.2389 220.5,34.5C 221.167,35.1667 221.833,35.8333 222.5,36.5C 221.532,39.4453 221.366,42.4453 222,45.5C 224.655,47.9199 226.489,50.9199 227.5,54.5C 226.211,54.8323 224.545,55.1656 222.5,55.5C 221.488,54.1283 220.488,52.795 219.5,51.5C 218.5,50.1667 217.5,48.8333 216.5,47.5C 218.525,46.4814 219.859,44.8147 220.5,42.5C 217.08,38.1138 213.747,33.6138 210.5,29C 205.143,24.9686 199.81,20.9686 194.5,17C 190.914,15.8924 187.247,15.3924 183.5,15.5C 186.421,14.2809 189.588,13.6143 193,13.5C 195.544,13.336 197.71,14.0027 199.5,15.5 Z"/></g>
<g><path style="opacity:1" fill="#aeb561" d="M 213.5,25.5 C 214.458,25.9528 215.292,26.6195 216,27.5C 216.399,27.2716 216.565,26.9382 216.5,26.5C 217.687,28.0725 218.687,29.7392 219.5,31.5C 220.11,32.391 220.443,33.391 220.5,34.5C 220.631,35.2389 220.464,35.9056 220,36.5C 216.807,33.3954 214.64,29.7287 213.5,25.5 Z"/></g>
<g><path style="opacity:1" fill="#3d2f1d" d="M 236.5,18.5 C 239.553,22.6184 241.72,27.2851 243,32.5C 243.497,30.1902 243.663,27.8568 243.5,25.5C 244.401,26.2905 245.068,27.2905 245.5,28.5C 244.804,33.9351 243.471,39.2684 241.5,44.5C 241.167,44.5 240.833,44.5 240.5,44.5C 239.287,41.3635 237.787,38.3635 236,35.5C 235.536,36.0944 235.369,36.7611 235.5,37.5C 234.833,38.5 234.167,39.5 233.5,40.5C 232.58,37.5333 231.08,34.8667 229,32.5C 228.886,28.4315 227.72,24.7649 225.5,21.5C 226.458,21.9528 227.292,22.6195 228,23.5C 228.97,26.7737 230.47,29.7737 232.5,32.5C 233.325,33.3857 234.325,33.719 235.5,33.5C 235.708,29.1206 235.375,24.7873 234.5,20.5C 234.747,19.2867 235.414,18.62 236.5,18.5 Z"/></g>
<g><path style="opacity:1" fill="#cab36f" d="M 150.5,16.5 C 151.884,18.9701 153.884,20.6367 156.5,21.5C 156.714,23.1439 156.38,24.6439 155.5,26C 157.553,26.3247 159.553,25.9913 161.5,25C 165.321,18.1938 170.988,16.0272 178.5,18.5C 178.5,19.1667 178.167,19.5 177.5,19.5C 173.281,19.5285 169.781,21.1951 167,24.5C 163.723,28.7197 161.223,33.3864 159.5,38.5C 158.5,37.8333 157.5,37.1667 156.5,36.5C 155.823,41.7925 155.823,47.1258 156.5,52.5C 153.258,50.9702 151.758,48.3036 152,44.5C 147.484,41.5833 146.651,37.9167 149.5,33.5C 145.89,28.194 145.89,22.8607 149.5,17.5C 150.167,17.5 150.5,17.1667 150.5,16.5 Z"/></g>
<g><path style="opacity:1" fill="#9a754d" d="M 223.5,26.5 C 224.167,26.5 224.5,26.8333 224.5,27.5C 224.793,30.7543 224.126,33.7543 222.5,36.5C 221.833,35.8333 221.167,35.1667 220.5,34.5C 220.443,33.391 220.11,32.391 219.5,31.5C 220.261,30.6091 221.261,29.9424 222.5,29.5C 223.386,28.675 223.719,27.675 223.5,26.5 Z"/></g>
<g><path style="opacity:1" fill="#9a7b52" d="M 115.5,31.5 C 116.531,32.355 117.697,33.0217 119,33.5C 119.765,33.4301 120.265,33.0967 120.5,32.5C 122.422,33.7566 124.422,34.9232 126.5,36C 125.263,36.2321 124.263,36.7321 123.5,37.5C 122.312,36.3157 121.145,36.3157 120,37.5C 116.873,34.2902 113.039,32.9569 108.5,33.5C 107.141,34.0065 106.141,35.0065 105.5,36.5C 104.893,36.3764 104.56,36.0431 104.5,35.5C 105.043,35.44 105.376,35.1067 105.5,34.5C 104.311,33.5713 102.978,33.238 101.5,33.5C 101.649,29.8767 102.816,29.5434 105,32.5C 108.441,31.6178 111.941,31.2845 115.5,31.5 Z"/></g>
<g><path style="opacity:1" fill="#bd916a" d="M 137.5,28.5 C 138.231,28.9418 139.231,29.1085 140.5,29C 141.5,30.6667 142.833,32 144.5,33C 143.919,33.8926 143.585,34.8926 143.5,36C 144.586,40.6839 146.586,44.8506 149.5,48.5C 149.443,49.609 149.11,50.609 148.5,51.5C 147.229,49.8914 146.229,48.0581 145.5,46C 144.072,45.4209 142.738,45.5876 141.5,46.5C 141.011,45.0048 140.345,43.6715 139.5,42.5C 137.909,39.5691 135.909,36.9024 133.5,34.5C 132.299,32.0905 130.633,30.0905 128.5,28.5C 128.443,27.391 128.11,26.391 127.5,25.5C 129.457,26.0896 131.624,26.0896 134,25.5C 134.422,27.4257 135.589,28.4257 137.5,28.5 Z"/></g>
<g><path style="opacity:1" fill="#b8af6e" d="M 245.5,28.5 C 247.963,30.4611 250.297,32.6278 252.5,35C 253.448,35.4828 254.448,35.6495 255.5,35.5C 255.5,36.8333 255.5,38.1667 255.5,39.5C 252.398,37.963 249.732,35.963 247.5,33.5C 246.058,32.1805 245.392,30.5138 245.5,28.5 Z"/></g>
<g><path style="opacity:1" fill="#6d9729" d="M 131.5,35.5 C 131.842,34.6618 132.508,34.3284 133.5,34.5C 135.909,36.9024 137.909,39.5691 139.5,42.5C 136.833,40.1667 134.167,37.8333 131.5,35.5 Z"/></g>
<g><path style="opacity:1" fill="#f6bf76" d="M 100.5,33.5 C 99.5806,36.0892 97.914,38.0892 95.5,39.5C 93.8227,40.4124 91.9893,41.0791 90,41.5C 85.5115,40.9011 81.0115,40.4011 76.5,40C 77.2666,38.5295 77.9332,37.0295 78.5,35.5C 87.8099,35.3281 87.8099,34.8281 78.5,34C 80.6633,33.7547 82.33,32.7547 83.5,31C 87.3213,30.4065 91.1546,29.9065 95,29.5C 98.5941,28.717 100.427,30.0504 100.5,33.5 Z"/></g>
<g><path style="opacity:1" fill="#eaeba3" d="M 108.5,33.5 C 113.039,32.9569 116.873,34.2902 120,37.5C 121.145,36.3157 122.312,36.3157 123.5,37.5C 124.167,38.8333 125.167,39.8333 126.5,40.5C 127.458,41.9616 128.624,43.2949 130,44.5C 130.667,45.1667 130.667,45.8333 130,46.5C 128.629,44.9586 127.129,43.6253 125.5,42.5C 122.906,40.236 119.906,38.9027 116.5,38.5C 116.047,37.5416 115.381,36.7083 114.5,36C 111.949,35.9977 109.949,35.1644 108.5,33.5 Z"/></g>
<g><path style="opacity:1" fill="#506d36" d="M 119.5,21.5 C 120.239,21.369 120.906,21.5357 121.5,22C 120.5,22.3333 119.5,22.6667 118.5,23C 121.821,24.8331 125.155,26.6665 128.5,28.5C 130.633,30.0905 132.299,32.0905 133.5,34.5C 132.508,34.3284 131.842,34.6618 131.5,35.5C 130.448,35.3505 129.448,35.5172 128.5,36C 131.666,38.0001 134.332,40.5001 136.5,43.5C 135.29,43.9321 134.29,44.5987 133.5,45.5C 132.986,44.3754 132.653,43.2087 132.5,42C 130.833,41.1667 129.167,40.3333 127.5,39.5C 126.893,39.6236 126.56,39.9569 126.5,40.5C 125.167,39.8333 124.167,38.8333 123.5,37.5C 124.263,36.7321 125.263,36.2321 126.5,36C 124.422,34.9232 122.422,33.7566 120.5,32.5C 117.167,29.8333 113.833,27.1667 110.5,24.5C 113.406,23.2134 116.406,22.2134 119.5,21.5 Z"/></g>
<g><path style="opacity:1" fill="#571609" d="M 183.5,38.5 C 182.791,39.404 181.791,39.7373 180.5,39.5C 178.597,39.2041 176.93,38.5375 175.5,37.5C 176.189,36.2264 177.023,36.2264 178,37.5C 177.954,35.6874 178.12,34.0207 178.5,32.5C 179.736,33.2458 181.07,33.5792 182.5,33.5C 182.216,35.4147 182.549,37.0813 183.5,38.5 Z"/></g>
<g><path style="opacity:1" fill="#a7ce35" d="M 167.5,35.5 C 167.5,36.1667 167.5,36.8333 167.5,37.5C 164.956,40.3065 163.956,39.6399 164.5,35.5C 165.5,35.5 166.5,35.5 167.5,35.5 Z"/></g>
<g><path style="opacity:1" fill="#e4e0bb" d="M 69.5,29.5 C 67.3908,31.4962 65.7241,33.8295 64.5,36.5C 63.8333,37.5 63.1667,38.5 62.5,39.5C 61.8333,41.5 61.1667,43.5 60.5,45.5C 59.4168,45.5394 58.4168,45.8728 57.5,46.5C 57.5148,40.2277 60.1814,35.061 65.5,31C 66.745,30.2086 68.0783,29.7086 69.5,29.5 Z"/></g>
<g><path style="opacity:1" fill="#aa8b54" d="M 177.5,19.5 C 177.5,20.1667 177.167,20.5 176.5,20.5C 175.115,21.5736 173.949,22.9069 173,24.5C 172.501,28.4862 172.334,32.4862 172.5,36.5C 170.784,36.3713 169.117,36.038 167.5,35.5C 166.5,35.5 165.5,35.5 164.5,35.5C 163.956,39.6399 164.956,40.3065 167.5,37.5C 167.833,37.5 168.167,37.5 168.5,37.5C 168.167,38.1667 167.833,38.8333 167.5,39.5C 166.292,40.2341 164.959,40.5674 163.5,40.5C 163.183,43.5465 164.516,45.2132 167.5,45.5C 167.665,48.5184 167.498,51.5184 167,54.5C 166.273,51.4903 164.44,49.4903 161.5,48.5C 160.833,48.8333 160.167,49.1667 159.5,49.5C 158.271,54.7923 157.771,60.1257 158,65.5C 159.307,67.1918 160.807,68.5251 162.5,69.5C 163.593,71.3492 164.926,73.0158 166.5,74.5C 166.657,75.8734 166.49,77.2068 166,78.5C 161.239,75.322 160.072,75.9887 162.5,80.5C 162.291,81.086 161.957,81.586 161.5,82C 159.924,81.8481 158.591,81.0148 157.5,79.5C 156.583,80.1272 155.583,80.4606 154.5,80.5C 154.167,79.1667 153.833,77.8333 153.5,76.5C 153.5,73.8333 153.5,71.1667 153.5,68.5C 157.122,74.1277 158.288,73.461 157,66.5C 155.148,61.977 152.482,57.977 149,54.5C 148.517,53.552 148.351,52.552 148.5,51.5C 149.11,50.609 149.443,49.609 149.5,48.5C 150.597,51.3256 152.597,53.3256 155.5,54.5C 156.298,54.0431 156.631,53.3764 156.5,52.5C 155.823,47.1258 155.823,41.7925 156.5,36.5C 157.5,37.1667 158.5,37.8333 159.5,38.5C 161.223,33.3864 163.723,28.7197 167,24.5C 169.781,21.1951 173.281,19.5285 177.5,19.5 Z"/></g>
<g><path style="opacity:1" fill="#996d42" d="M 194.5,29.5 C 194.5,29.8333 194.5,30.1667 194.5,30.5C 192.5,30.5 190.5,30.5 188.5,30.5C 188.5,32.8333 188.5,35.1667 188.5,37.5C 191.247,37.1866 193.914,37.52 196.5,38.5C 194.103,40.9021 191.436,42.9021 188.5,44.5C 185.156,43.8325 182.489,42.1658 180.5,39.5C 181.791,39.7373 182.791,39.404 183.5,38.5C 183.286,36.8561 183.62,35.3561 184.5,34C 183.421,33.044 182.255,32.2106 181,31.5C 180.383,30.5509 180.549,29.7175 181.5,29C 186.02,28.1864 190.354,28.353 194.5,29.5 Z"/></g>
<g><path style="opacity:1" fill="#d8a567" d="M 78.5,35.5 C 77.9332,37.0295 77.2666,38.5295 76.5,40C 81.0115,40.4011 85.5115,40.9011 90,41.5C 91.9893,41.0791 93.8227,40.4124 95.5,39.5C 94.9522,41.5323 93.6188,42.5323 91.5,42.5C 90.9161,47.1286 88.5828,48.7953 84.5,47.5C 84.5,46.5 84.5,45.5 84.5,44.5C 80.5101,44.0013 76.5101,43.5013 72.5,43C 69.2603,41.3079 65.9269,40.1412 62.5,39.5C 63.1667,38.5 63.8333,37.5 64.5,36.5C 69.1031,35.6167 73.7697,35.2834 78.5,35.5 Z"/></g>
<g><path style="opacity:1" fill="#ccbb91" d="M 116.5,38.5 C 119.906,38.9027 122.906,40.236 125.5,42.5C 124.588,43.7382 124.421,45.0715 125,46.5C 128.505,49.8482 130.672,53.8482 131.5,58.5C 127.81,53.2977 123.476,48.4643 118.5,44C 117.563,43.3083 116.897,43.475 116.5,44.5C 113.833,42.5 113.833,40.5 116.5,38.5 Z"/></g>
<g><path style="opacity:1" fill="#ede3bd" d="M 108.5,33.5 C 109.949,35.1644 111.949,35.9977 114.5,36C 115.381,36.7083 116.047,37.5416 116.5,38.5C 113.833,40.5 113.833,42.5 116.5,44.5C 117.5,44.8333 118.167,45.5 118.5,46.5C 117.849,47.0906 117.182,47.7573 116.5,48.5C 112.043,46.7717 107.71,44.7717 103.5,42.5C 101.722,43.9447 99.7221,44.9447 97.5,45.5C 96.2867,45.2528 95.62,44.5862 95.5,43.5C 97.2872,39.3747 100.287,36.708 104.5,35.5C 104.56,36.0431 104.893,36.3764 105.5,36.5C 106.141,35.0065 107.141,34.0065 108.5,33.5 Z"/></g>
<g><path style="opacity:1" fill="#b0935c" d="M 194.5,30.5 C 197.216,30.6785 199.883,31.1785 202.5,32C 204.892,34.728 206.892,37.728 208.5,41C 206.765,41.6514 205.098,41.4847 203.5,40.5C 202.511,44.1073 202.177,47.774 202.5,51.5C 200.938,51.2671 199.605,50.6005 198.5,49.5C 194.849,48.3411 191.515,46.6744 188.5,44.5C 191.436,42.9021 194.103,40.9021 196.5,38.5C 193.914,37.52 191.247,37.1866 188.5,37.5C 188.5,35.1667 188.5,32.8333 188.5,30.5C 190.5,30.5 192.5,30.5 194.5,30.5 Z"/></g>
<g><path style="opacity:1" fill="#27210b" d="M 167.5,39.5 C 167.369,40.3764 167.702,41.0431 168.5,41.5C 178.992,46.2432 188.992,51.7432 198.5,58C 201.609,59.4163 204.609,60.9163 207.5,62.5C 206.785,64.5596 205.451,66.2263 203.5,67.5C 201.931,66.286 201.098,64.6193 201,62.5C 198.948,60.9415 196.781,59.6082 194.5,58.5C 189.627,55.564 184.627,52.8973 179.5,50.5C 179.158,49.6618 178.492,49.3284 177.5,49.5C 175.351,48.2638 173.018,47.2638 170.5,46.5C 170.167,46.5 169.833,46.5 169.5,46.5C 168.833,46.1667 168.167,45.8333 167.5,45.5C 164.516,45.2132 163.183,43.5465 163.5,40.5C 164.959,40.5674 166.292,40.2341 167.5,39.5 Z"/></g>
<g><path style="opacity:1" fill="#a76f38" d="M 62.5,39.5 C 65.9269,40.1412 69.2603,41.3079 72.5,43C 76.5101,43.5013 80.5101,44.0013 84.5,44.5C 84.5,45.5 84.5,46.5 84.5,47.5C 82.9145,48.533 81.5812,49.8664 80.5,51.5C 76.8333,51.5 73.1667,51.5 69.5,51.5C 69.7373,50.209 69.404,49.209 68.5,48.5C 68.2172,47.7109 67.7172,47.0442 67,46.5C 66.6667,47.8333 66.3333,49.1667 66,50.5C 63.5991,49.3977 61.0991,49.231 58.5,50C 56.7128,51.3187 54.7128,52.152 52.5,52.5C 52.5,52.1667 52.5,51.8333 52.5,51.5C 54.9295,49.0551 57.5962,47.0551 60.5,45.5C 61.1667,43.5 61.8333,41.5 62.5,39.5 Z"/></g>
<g><path style="opacity:1" fill="#d8d189" d="M 116.5,44.5 C 116.897,43.475 117.563,43.3083 118.5,44C 123.476,48.4643 127.81,53.2977 131.5,58.5C 131.5,59.1667 131.5,59.8333 131.5,60.5C 130.115,59.3862 128.615,58.3862 127,57.5C 124.63,53.4031 121.797,49.7365 118.5,46.5C 118.167,45.5 117.5,44.8333 116.5,44.5 Z"/></g>
<g><path style="opacity:1" fill="#4e452d" d="M 168.5,37.5 C 176.738,41.0833 184.738,45.0833 192.5,49.5C 195.624,52.871 199.291,54.2043 203.5,53.5C 204.5,54.1667 205.5,54.8333 206.5,55.5C 207.167,55.5 207.5,55.8333 207.5,56.5C 207.263,57.791 207.596,58.791 208.5,59.5C 208.5,59.8333 208.5,60.1667 208.5,60.5C 207.662,60.8417 207.328,61.5084 207.5,62.5C 204.609,60.9163 201.609,59.4163 198.5,58C 188.992,51.7432 178.992,46.2432 168.5,41.5C 167.702,41.0431 167.369,40.3764 167.5,39.5C 167.833,38.8333 168.167,38.1667 168.5,37.5 Z"/></g>
<g><path style="opacity:1" fill="#674a36" d="M 100.5,33.5 C 100.833,33.5 101.167,33.5 101.5,33.5C 102.978,33.238 104.311,33.5713 105.5,34.5C 105.376,35.1067 105.043,35.44 104.5,35.5C 100.287,36.708 97.2872,39.3747 95.5,43.5C 92.9558,44.7079 91.6225,46.7079 91.5,49.5C 97.2966,47.6835 103.297,47.1835 109.5,48C 111.633,50.5098 114.133,52.6765 117,54.5C 117.483,55.448 117.649,56.448 117.5,57.5C 116.417,57.4606 115.417,57.1272 114.5,56.5C 113.158,58.0049 111.492,58.6715 109.5,58.5C 111.023,56.4143 110.69,54.7476 108.5,53.5C 106.393,52.5318 104.059,52.1984 101.5,52.5C 104.028,51.8343 106.694,51.1676 109.5,50.5C 109.333,50.1667 109.167,49.8333 109,49.5C 105.606,48.5442 102.106,48.2108 98.5,48.5C 98.5,49.5 98.5,50.5 98.5,51.5C 95.1019,51.1417 91.9353,51.8084 89,53.5C 87.415,52.9561 85.915,52.2894 84.5,51.5C 83.1667,51.5 81.8333,51.5 80.5,51.5C 81.5812,49.8664 82.9145,48.533 84.5,47.5C 88.5828,48.7953 90.9161,47.1286 91.5,42.5C 93.6188,42.5323 94.9522,41.5323 95.5,39.5C 97.914,38.0892 99.5806,36.0892 100.5,33.5 Z"/></g>
<g><path style="opacity:1" fill="#b1bc86" d="M 167.5,35.5 C 169.117,36.038 170.784,36.3713 172.5,36.5C 173.391,37.1098 174.391,37.4431 175.5,37.5C 176.93,38.5375 178.597,39.2041 180.5,39.5C 182.489,42.1658 185.156,43.8325 188.5,44.5C 191.515,46.6744 194.849,48.3411 198.5,49.5C 196.653,50.5729 194.653,50.5729 192.5,49.5C 184.738,45.0833 176.738,41.0833 168.5,37.5C 168.167,37.5 167.833,37.5 167.5,37.5C 167.5,36.8333 167.5,36.1667 167.5,35.5 Z"/></g>
<g><path style="opacity:1" fill="#996344" d="M 245.5,28.5 C 245.392,30.5138 246.058,32.1805 247.5,33.5C 247.196,34.1499 246.863,34.8165 246.5,35.5C 249.836,40.0146 251.67,45.0146 252,50.5C 250.644,48.1024 249.477,45.6024 248.5,43C 247.833,42.3333 247.167,42.3333 246.5,43C 245.349,46.6113 243.682,47.1113 241.5,44.5C 243.471,39.2684 244.804,33.9351 245.5,28.5 Z"/></g>
<g><path style="opacity:1" fill="#a79b73" d="M 50.5,46.5 C 51.955,46.0698 53.2883,46.0698 54.5,46.5C 53.5435,48.0754 52.8769,49.742 52.5,51.5C 52.5,51.8333 52.5,52.1667 52.5,52.5C 51.7455,54.4663 50.5788,54.7996 49,53.5C 48.5017,56.8168 48.335,60.1501 48.5,63.5C 49.5816,66.7469 51.5816,69.2469 54.5,71C 54.3333,71.5 54.1667,72 54,72.5C 53.6924,71.6919 53.1924,71.0253 52.5,70.5C 51.8302,72.2914 51.1635,73.9581 50.5,75.5C 49.5,75.5 48.5,75.5 47.5,75.5C 48.0398,68.5284 47.7065,61.5284 46.5,54.5C 48.1366,52.6838 49.6366,50.6838 51,48.5C 51.6917,47.5632 51.525,46.8966 50.5,46.5 Z"/></g>
<g><path style="opacity:1" fill="#765e36" d="M 189.5,23.5 C 193.813,23.5483 197.813,24.715 201.5,27C 205.765,31.9711 209.765,37.1377 213.5,42.5C 212.314,43.7054 212.314,45.0387 213.5,46.5C 212.761,46.369 212.094,46.5357 211.5,47C 212.971,49.2428 213.971,51.7428 214.5,54.5C 216.105,55.0059 216.439,55.6726 215.5,56.5C 211.94,55.108 209.607,52.608 208.5,49C 207.207,48.51 205.873,48.3433 204.5,48.5C 204.878,50.921 205.545,53.2543 206.5,55.5C 205.5,54.8333 204.5,54.1667 203.5,53.5C 203.167,52.8333 202.833,52.1667 202.5,51.5C 202.177,47.774 202.511,44.1073 203.5,40.5C 205.098,41.4847 206.765,41.6514 208.5,41C 206.892,37.728 204.892,34.728 202.5,32C 199.883,31.1785 197.216,30.6785 194.5,30.5C 194.5,30.1667 194.5,29.8333 194.5,29.5C 196.346,29.7778 197.68,29.1112 198.5,27.5C 195.152,26.7125 191.818,25.8792 188.5,25C 189.056,24.6174 189.389,24.1174 189.5,23.5 Z"/></g>
<g><path style="opacity:1" fill="#7f8420" d="M 213.5,42.5 C 214.752,44.0009 215.752,45.6675 216.5,47.5C 217.5,48.8333 218.5,50.1667 219.5,51.5C 219.631,52.2389 219.464,52.9056 219,53.5C 217.334,51.0043 215.5,48.671 213.5,46.5C 212.314,45.0387 212.314,43.7054 213.5,42.5 Z"/></g>
<g><path style="opacity:1" fill="#7e8662" d="M 192.5,49.5 C 194.653,50.5729 196.653,50.5729 198.5,49.5C 199.605,50.6005 200.938,51.2671 202.5,51.5C 202.833,52.1667 203.167,52.8333 203.5,53.5C 199.291,54.2043 195.624,52.871 192.5,49.5 Z"/></g>
<g><path style="opacity:1" fill="#745738" d="M 224.5,27.5 C 224.622,33.2371 226.288,38.5704 229.5,43.5C 231.261,42.9649 232.594,41.9649 233.5,40.5C 234.167,39.5 234.833,38.5 235.5,37.5C 238.484,42.4537 239.984,47.787 240,53.5C 236.623,54.3739 234.123,53.0406 232.5,49.5C 231.311,48.5713 229.978,48.238 228.5,48.5C 229.826,51.001 230.326,53.6677 230,56.5C 228.938,57.0968 227.772,57.4302 226.5,57.5C 224.645,57.6598 223.312,56.9931 222.5,55.5C 224.545,55.1656 226.211,54.8323 227.5,54.5C 226.489,50.9199 224.655,47.9199 222,45.5C 221.366,42.4453 221.532,39.4453 222.5,36.5C 224.126,33.7543 224.793,30.7543 224.5,27.5 Z"/></g>
<g><path style="opacity:1" fill="#392617" d="M 101.5,52.5 C 100.833,52.8333 100.167,53.1667 99.5,53.5C 98.596,54.209 98.2627,55.209 98.5,56.5C 97.5,56.5 96.5,56.5 95.5,56.5C 93.6336,55.9862 91.8003,55.3195 90,54.5C 88.8615,54.9891 87.6948,55.3225 86.5,55.5C 85.3065,54.7281 84.3065,53.7281 83.5,52.5C 84.1667,52.5 84.5,52.1667 84.5,51.5C 85.915,52.2894 87.415,52.9561 89,53.5C 91.9353,51.8084 95.1019,51.1417 98.5,51.5C 98.5,50.5 98.5,49.5 98.5,48.5C 102.106,48.2108 105.606,48.5442 109,49.5C 109.167,49.8333 109.333,50.1667 109.5,50.5C 106.694,51.1676 104.028,51.8343 101.5,52.5 Z"/></g>
<g><path style="opacity:1" fill="#140901" d="M 68.5,48.5 C 69.404,49.209 69.7373,50.209 69.5,51.5C 73.1667,51.5 76.8333,51.5 80.5,51.5C 81.8333,51.5 83.1667,51.5 84.5,51.5C 84.5,52.1667 84.1667,52.5 83.5,52.5C 81.2646,52.2053 79.2646,52.5386 77.5,53.5C 75.5956,53.7376 74.2623,54.7376 73.5,56.5C 68.8701,56.6922 64.3701,56.0255 60,54.5C 58.7741,54.6448 57.6074,54.9781 56.5,55.5C 55.6143,54.675 55.281,53.675 55.5,52.5C 59.3385,51.3081 63.1718,51.3081 67,52.5C 67.5,52.3333 68,52.1667 68.5,52C 67.2089,50.7083 67.2089,49.5417 68.5,48.5 Z"/></g>
<g><path style="opacity:1" fill="#3a4c1d" d="M 131.5,35.5 C 134.167,37.8333 136.833,40.1667 139.5,42.5C 140.345,43.6715 141.011,45.0048 141.5,46.5C 142.263,49.1411 142.43,51.8078 142,54.5C 141.333,53.8333 140.667,53.1667 140,52.5C 139.392,54.1545 138.892,55.8211 138.5,57.5C 137.829,60.7577 136.996,64.0911 136,67.5C 134.605,66.1854 133.605,66.5188 133,68.5C 132.51,67.2068 132.343,65.8734 132.5,64.5C 132.768,62.901 132.434,61.5676 131.5,60.5C 131.5,59.8333 131.5,59.1667 131.5,58.5C 130.672,53.8482 128.505,49.8482 125,46.5C 124.421,45.0715 124.588,43.7382 125.5,42.5C 127.129,43.6253 128.629,44.9586 130,46.5C 130.667,45.8333 130.667,45.1667 130,44.5C 128.624,43.2949 127.458,41.9616 126.5,40.5C 126.56,39.9569 126.893,39.6236 127.5,39.5C 129.167,40.3333 130.833,41.1667 132.5,42C 132.653,43.2087 132.986,44.3754 133.5,45.5C 134.932,47.3271 136.599,48.9937 138.5,50.5C 139.856,47.5926 139.19,45.2593 136.5,43.5C 134.332,40.5001 131.666,38.0001 128.5,36C 129.448,35.5172 130.448,35.3505 131.5,35.5 Z"/></g>
<g><path style="opacity:1" fill="#679222" d="M 136.5,43.5 C 139.19,45.2593 139.856,47.5926 138.5,50.5C 136.599,48.9937 134.932,47.3271 133.5,45.5C 134.29,44.5987 135.29,43.9321 136.5,43.5 Z"/></g>
<g><path style="opacity:1" fill="#896a3a" d="M 167.5,45.5 C 168.167,45.8333 168.833,46.1667 169.5,46.5C 169.957,50.5839 169.29,54.4172 167.5,58C 166.101,58.5946 164.768,58.4279 163.5,57.5C 162.673,55.838 161.507,54.5046 160,53.5C 159.176,56.8823 159.343,60.2156 160.5,63.5C 161.182,64.2427 161.849,64.9094 162.5,65.5C 162.5,66.8333 162.5,68.1667 162.5,69.5C 160.807,68.5251 159.307,67.1918 158,65.5C 157.771,60.1257 158.271,54.7923 159.5,49.5C 160.167,49.1667 160.833,48.8333 161.5,48.5C 164.44,49.4903 166.273,51.4903 167,54.5C 167.498,51.5184 167.665,48.5184 167.5,45.5 Z"/></g>
<g><path style="opacity:1" fill="#927d52" d="M 37.5,51.5 C 34.7485,55.1477 31.5818,58.481 28,61.5C 26.396,65.0482 24.5626,68.3816 22.5,71.5C 14.0487,76.9189 7.71535,84.2522 3.5,93.5C 3.04311,94.2975 2.37644,94.6309 1.5,94.5C 1.57298,92.9731 0.906316,91.9731 -0.5,91.5C -0.5,91.1667 -0.5,90.8333 -0.5,90.5C 1.90987,90.0791 3.7432,88.7458 5,86.5C 10.3333,79.1667 15.6667,71.8333 21,64.5C 26.1069,59.5474 31.6069,55.214 37.5,51.5 Z"/></g>
<g><path style="opacity:1" fill="#987b59" d="M 247.5,33.5 C 249.732,35.963 252.398,37.963 255.5,39.5C 255.5,48.5 255.5,57.5 255.5,66.5C 253.904,64.1682 252.738,61.5015 252,58.5C 251.15,57.5761 250.15,57.5761 249,58.5C 245.414,54.3339 242.58,49.6672 240.5,44.5C 240.833,44.5 241.167,44.5 241.5,44.5C 243.682,47.1113 245.349,46.6113 246.5,43C 247.167,42.3333 247.833,42.3333 248.5,43C 249.477,45.6024 250.644,48.1024 252,50.5C 251.67,45.0146 249.836,40.0146 246.5,35.5C 246.863,34.8165 247.196,34.1499 247.5,33.5 Z"/></g>
<g><path style="opacity:1" fill="#3d2712" d="M 68.5,48.5 C 67.2089,49.5417 67.2089,50.7083 68.5,52C 68,52.1667 67.5,52.3333 67,52.5C 63.1718,51.3081 59.3385,51.3081 55.5,52.5C 55.281,53.675 55.6143,54.675 56.5,55.5C 57.6074,54.9781 58.7741,54.6448 60,54.5C 64.3701,56.0255 68.8701,56.6922 73.5,56.5C 73.1667,57.5 72.5,58.1667 71.5,58.5C 68.4442,59.5884 65.4442,59.5884 62.5,58.5C 60.7182,56.3131 58.5515,55.9797 56,57.5C 55.3083,58.4368 55.475,59.1034 56.5,59.5C 56.5,60.5 56.5,61.5 56.5,62.5C 58.7844,63.0292 60.7844,64.0292 62.5,65.5C 61.376,66.8086 59.876,67.4753 58,67.5C 54.9257,65.9201 51.7591,64.5868 48.5,63.5C 48.335,60.1501 48.5017,56.8168 49,53.5C 50.5788,54.7996 51.7455,54.4663 52.5,52.5C 54.7128,52.152 56.7128,51.3187 58.5,50C 61.0991,49.231 63.5991,49.3977 66,50.5C 66.3333,49.1667 66.6667,47.8333 67,46.5C 67.7172,47.0442 68.2172,47.7109 68.5,48.5 Z"/></g>
<g><path style="opacity:1" fill="#d5a283" d="M 83.5,52.5 C 84.3065,53.7281 85.3065,54.7281 86.5,55.5C 88.3674,57.4605 90.7008,58.7939 93.5,59.5C 92.0508,60.1719 90.7175,60.8386 89.5,61.5C 89.1667,61.5 88.8333,61.5 88.5,61.5C 87.8333,61.5 87.1667,61.5 86.5,61.5C 85.1214,56.1437 81.788,54.477 76.5,56.5C 76.5569,55.391 76.8902,54.391 77.5,53.5C 79.2646,52.5386 81.2646,52.2053 83.5,52.5 Z"/></g>
<g><path style="opacity:1" fill="#a7b4bd" d="M 101.5,52.5 C 104.059,52.1984 106.393,52.5318 108.5,53.5C 108.5,54.8333 108.5,56.1667 108.5,57.5C 105.5,57.5 102.5,57.5 99.5,57.5C 99.5,56.1667 99.5,54.8333 99.5,53.5C 100.167,53.1667 100.833,52.8333 101.5,52.5 Z"/></g>
<g><path style="opacity:1" fill="#c7c29f" d="M 70.5,20.5 C 70.8333,20.5 71.1667,20.5 71.5,20.5C 71.9724,22.5313 72.9724,24.1979 74.5,25.5C 72.3384,26.1276 70.6718,27.461 69.5,29.5C 68.0783,29.7086 66.745,30.2086 65.5,31C 60.1814,35.061 57.5148,40.2277 57.5,46.5C 58.4168,45.8728 59.4168,45.5394 60.5,45.5C 57.5962,47.0551 54.9295,49.0551 52.5,51.5C 52.8769,49.742 53.5435,48.0754 54.5,46.5C 53.2883,46.0698 51.955,46.0698 50.5,46.5C 45.8397,47.3307 41.5064,48.9974 37.5,51.5C 31.6069,55.214 26.1069,59.5474 21,64.5C 15.6667,71.8333 10.3333,79.1667 5,86.5C 3.7432,88.7458 1.90987,90.0791 -0.5,90.5C -0.5,88.5 -0.5,86.5 -0.5,84.5C 2.53982,81.4607 5.20649,78.1274 7.5,74.5C 10.2003,72.7656 12.2003,70.4323 13.5,67.5C 15.8333,65.8333 17.8333,63.8333 19.5,61.5C 26.4698,56.0086 33.4698,50.5086 40.5,45C 44.8964,44.2542 49.2297,43.2542 53.5,42C 55.3527,39.429 57.0194,36.7623 58.5,34C 64.2074,32.034 67.5407,28.2007 68.5,22.5C 69.5,22.1667 70.1667,21.5 70.5,20.5 Z"/></g>
<g><path style="opacity:1" fill="#f3c49e" d="M 86.5,61.5 C 81.9706,61.5358 77.9706,60.2025 74.5,57.5C 74.9569,56.7025 75.6236,56.3691 76.5,56.5C 81.788,54.477 85.1214,56.1437 86.5,61.5 Z"/></g>
<g><path style="opacity:1" fill="#80817d" d="M 99.5,53.5 C 99.5,54.8333 99.5,56.1667 99.5,57.5C 102.5,57.5 105.5,57.5 108.5,57.5C 108.5,56.1667 108.5,54.8333 108.5,53.5C 110.69,54.7476 111.023,56.4143 109.5,58.5C 106.927,59.5552 104.261,59.7218 101.5,59C 99.8807,58.7645 98.8807,57.9311 98.5,56.5C 98.2627,55.209 98.596,54.209 99.5,53.5 Z"/></g>
<g><path style="opacity:1" fill="#a6ab9a" d="M 62.5,58.5 C 60.7354,59.4614 58.7354,59.7947 56.5,59.5C 55.475,59.1034 55.3083,58.4368 56,57.5C 58.5515,55.9797 60.7182,56.3131 62.5,58.5 Z"/></g>
<g><path style="opacity:1" fill="#d2b981" d="M 148.5,51.5 C 148.351,52.552 148.517,53.552 149,54.5C 152.482,57.977 155.148,61.977 157,66.5C 158.288,73.461 157.122,74.1277 153.5,68.5C 151.983,68.4894 150.816,67.8228 150,66.5C 149.434,64.2774 148.6,62.2774 147.5,60.5C 144.344,59.1288 141.344,59.4621 138.5,61.5C 138.5,60.1667 138.5,58.8333 138.5,57.5C 138.892,55.8211 139.392,54.1545 140,52.5C 140.667,53.1667 141.333,53.8333 142,54.5C 142.43,51.8078 142.263,49.1411 141.5,46.5C 142.738,45.5876 144.072,45.4209 145.5,46C 146.229,48.0581 147.229,49.8914 148.5,51.5 Z"/></g>
<g><path style="opacity:1" fill="#654820" d="M 169.5,46.5 C 169.833,46.5 170.167,46.5 170.5,46.5C 170.636,49.35 170.969,52.1834 171.5,55C 170.007,57.9598 169.007,61.7931 168.5,66.5C 166.167,65.5 164.5,63.8333 163.5,61.5C 162.571,62.6888 162.238,64.0222 162.5,65.5C 161.849,64.9094 161.182,64.2427 160.5,63.5C 159.343,60.2156 159.176,56.8823 160,53.5C 161.507,54.5046 162.673,55.838 163.5,57.5C 164.768,58.4279 166.101,58.5946 167.5,58C 169.29,54.4172 169.957,50.5839 169.5,46.5 Z"/></g>
<g><path style="opacity:1" fill="#705131" d="M 62.5,58.5 C 65.4442,59.5884 68.4442,59.5884 71.5,58.5C 70.9094,59.1515 70.2427,59.8182 69.5,60.5C 69.6236,61.1067 69.9569,61.44 70.5,61.5C 70.1667,62.1667 69.8333,62.8333 69.5,63.5C 69.5,63.8333 69.5,64.1667 69.5,64.5C 69.1667,64.5 68.8333,64.5 68.5,64.5C 67.7784,64.0825 67.2784,63.4158 67,62.5C 65.871,64.1412 64.371,65.1412 62.5,65.5C 60.7844,64.0292 58.7844,63.0292 56.5,62.5C 56.5,61.5 56.5,60.5 56.5,59.5C 58.7354,59.7947 60.7354,59.4614 62.5,58.5 Z"/></g>
<g><path style="opacity:1" fill="#845737" d="M 95.5,56.5 C 96.5,56.5 97.5,56.5 98.5,56.5C 98.8807,57.9311 99.8807,58.7645 101.5,59C 104.261,59.7218 106.927,59.5552 109.5,58.5C 111.492,58.6715 113.158,58.0049 114.5,56.5C 115.417,57.1272 116.417,57.4606 117.5,57.5C 114.298,59.1788 111.298,61.3455 108.5,64C 106.866,64.4935 105.199,64.6602 103.5,64.5C 100.669,63.9213 98.3356,62.588 96.5,60.5C 95.7659,59.2921 95.4326,57.9587 95.5,56.5 Z"/></g>
<g><path style="opacity:1" fill="#a07856" d="M 77.5,53.5 C 76.8902,54.391 76.5569,55.391 76.5,56.5C 75.6236,56.3691 74.9569,56.7025 74.5,57.5C 77.9706,60.2025 81.9706,61.5358 86.5,61.5C 87.1667,61.5 87.8333,61.5 88.5,61.5C 82.3978,62.3907 76.3978,62.3907 70.5,61.5C 69.9569,61.44 69.6236,61.1067 69.5,60.5C 70.2427,59.8182 70.9094,59.1515 71.5,58.5C 72.5,58.1667 73.1667,57.5 73.5,56.5C 74.2623,54.7376 75.5956,53.7376 77.5,53.5 Z"/></g>
<g><path style="opacity:1" fill="#421f17" d="M 147.5,60.5 C 147.843,62.4832 147.176,63.8166 145.5,64.5C 145.167,64.5 144.833,64.5 144.5,64.5C 143.462,62.4805 142.128,62.1472 140.5,63.5C 139.167,63.5 138.5,62.8333 138.5,61.5C 141.344,59.4621 144.344,59.1288 147.5,60.5 Z"/></g>
<g><path style="opacity:1" fill="#533a27" d="M 88.5,61.5 C 88.8333,61.5 89.1667,61.5 89.5,61.5C 90.8734,61.3433 92.2068,61.51 93.5,62C 92.2625,62.2321 91.2625,62.7321 90.5,63.5C 89.1667,63.8333 87.8333,64.1667 86.5,64.5C 80.819,64.3651 75.1523,64.0318 69.5,63.5C 69.8333,62.8333 70.1667,62.1667 70.5,61.5C 76.3978,62.3907 82.3978,62.3907 88.5,61.5 Z"/></g>
<g><path style="opacity:1" fill="#8f774a" d="M 240.5,44.5 C 242.58,49.6672 245.414,54.3339 249,58.5C 250.15,57.5761 251.15,57.5761 252,58.5C 252.738,61.5015 253.904,64.1682 255.5,66.5C 255.5,69.5 255.5,72.5 255.5,75.5C 252.594,74.6732 249.594,73.6732 246.5,72.5C 244.902,73.4847 243.235,73.6514 241.5,73C 238.12,72.0656 235.12,70.3989 232.5,68C 229.833,67.6667 227.167,67.3333 224.5,67C 221.833,64.3333 219.167,61.6667 216.5,59C 213.279,58.7222 210.279,57.8889 207.5,56.5C 207.5,55.8333 207.167,55.5 206.5,55.5C 205.545,53.2543 204.878,50.921 204.5,48.5C 205.873,48.3433 207.207,48.51 208.5,49C 209.607,52.608 211.94,55.108 215.5,56.5C 216.439,55.6726 216.105,55.0059 214.5,54.5C 213.971,51.7428 212.971,49.2428 211.5,47C 212.094,46.5357 212.761,46.369 213.5,46.5C 215.5,48.671 217.334,51.0043 219,53.5C 219.464,52.9056 219.631,52.2389 219.5,51.5C 220.488,52.795 221.488,54.1283 222.5,55.5C 223.312,56.9931 224.645,57.6598 226.5,57.5C 227.772,57.4302 228.938,57.0968 230,56.5C 230.326,53.6677 229.826,51.001 228.5,48.5C 229.978,48.238 231.311,48.5713 232.5,49.5C 234.123,53.0406 236.623,54.3739 240,53.5C 239.984,47.787 238.484,42.4537 235.5,37.5C 235.369,36.7611 235.536,36.0944 236,35.5C 237.787,38.3635 239.287,41.3635 240.5,44.5 Z"/></g>
<g><path style="opacity:1" fill="#c0b17c" d="M 69.5,64.5 C 69.5,64.1667 69.5,63.8333 69.5,63.5C 75.1523,64.0318 80.819,64.3651 86.5,64.5C 84.369,65.3138 82.0356,65.8138 79.5,66C 80.5707,66.8518 81.5707,67.6851 82.5,68.5C 78.1578,68.2605 73.8244,67.9272 69.5,67.5C 69.9528,66.5416 70.6195,65.7083 71.5,65C 70.9056,64.5357 70.2389,64.369 69.5,64.5 Z"/></g>
<g><path style="opacity:1" fill="#b89d79" d="M 118.5,46.5 C 121.797,49.7365 124.63,53.4031 127,57.5C 128.615,58.3862 130.115,59.3862 131.5,60.5C 130.464,64.4156 128.13,65.9156 124.5,65C 122.318,67.2604 119.651,68.7604 116.5,69.5C 115.817,69.1373 115.15,68.8039 114.5,68.5C 111.079,66.799 107.413,65.4657 103.5,64.5C 105.199,64.6602 106.866,64.4935 108.5,64C 111.298,61.3455 114.298,59.1788 117.5,57.5C 117.649,56.448 117.483,55.448 117,54.5C 114.133,52.6765 111.633,50.5098 109.5,48C 103.297,47.1835 97.2966,47.6835 91.5,49.5C 91.6225,46.7079 92.9558,44.7079 95.5,43.5C 95.62,44.5862 96.2867,45.2528 97.5,45.5C 99.7221,44.9447 101.722,43.9447 103.5,42.5C 107.71,44.7717 112.043,46.7717 116.5,48.5C 117.182,47.7573 117.849,47.0906 118.5,46.5 Z"/></g>
<g><path style="opacity:1" fill="#9a604c" d="M 147.5,60.5 C 148.6,62.2774 149.434,64.2774 150,66.5C 150.816,67.8228 151.983,68.4894 153.5,68.5C 153.5,71.1667 153.5,73.8333 153.5,76.5C 152.655,77.6715 151.989,79.0048 151.5,80.5C 149.319,80.2837 147.653,81.117 146.5,83C 144.19,83.4966 141.857,83.6633 139.5,83.5C 139.5,81.8333 139.5,80.1667 139.5,78.5C 141.082,79.8758 142.915,80.8758 145,81.5C 146.567,80.1439 148.4,79.4772 150.5,79.5C 151.167,77.1806 151.334,74.8473 151,72.5C 147.915,73.432 144.748,74.0986 141.5,74.5C 141.5,73.8333 141.167,73.5 140.5,73.5C 140.5,73.1667 140.5,72.8333 140.5,72.5C 143.691,71.9078 146.691,70.7411 149.5,69C 147.959,67.6288 146.625,66.1288 145.5,64.5C 147.176,63.8166 147.843,62.4832 147.5,60.5 Z"/></g>
<g><path style="opacity:1" fill="#e0d9a1" d="M 90.5,63.5 C 93.967,63.4457 96.6337,64.9457 98.5,68C 103.94,70.417 109.274,72.917 114.5,75.5C 116.031,76.9245 115.698,77.5912 113.5,77.5C 113.167,77.5 112.833,77.5 112.5,77.5C 110.741,77.0461 108.741,77.0461 106.5,77.5C 106.737,76.209 106.404,75.209 105.5,74.5C 103.898,72.9261 101.898,72.2594 99.5,72.5C 99.5,71.5 99.5,70.5 99.5,69.5C 96.5065,69.1457 95.5065,70.1457 96.5,72.5C 92.296,74.1934 88.6293,73.5268 85.5,70.5C 87.8695,70.8511 90.2028,71.0178 92.5,71C 90.3496,69.5886 88.0163,68.7553 85.5,68.5C 84.5,68.5 83.5,68.5 82.5,68.5C 81.5707,67.6851 80.5707,66.8518 79.5,66C 82.0356,65.8138 84.369,65.3138 86.5,64.5C 87.8333,64.1667 89.1667,63.8333 90.5,63.5 Z"/></g>
<g><path style="opacity:1" fill="#d1c57d" d="M 96.5,60.5 C 98.3356,62.588 100.669,63.9213 103.5,64.5C 107.413,65.4657 111.079,66.799 114.5,68.5C 112.883,69.038 111.216,69.3713 109.5,69.5C 104.224,69.2795 99.7243,67.2795 96,63.5C 95.2599,62.2506 95.4265,61.2506 96.5,60.5 Z"/></g>
<g><path style="opacity:1" fill="#7b663c" d="M 50.5,46.5 C 51.525,46.8966 51.6917,47.5632 51,48.5C 49.6366,50.6838 48.1366,52.6838 46.5,54.5C 45.6115,54.8135 44.9448,55.9801 44.5,58C 42.1261,57.5976 39.7928,57.7643 37.5,58.5C 34.3974,65.0551 29.3974,69.3884 22.5,71.5C 24.5626,68.3816 26.396,65.0482 28,61.5C 31.5818,58.481 34.7485,55.1477 37.5,51.5C 41.5064,48.9974 45.8397,47.3307 50.5,46.5 Z"/></g>
<g><path style="opacity:1" fill="#a47a44" d="M 68.5,64.5 C 64.0904,68.2506 59.4238,71.584 54.5,74.5C 53.2876,75.2299 52.2876,76.2299 51.5,77.5C 50.7025,77.0431 50.3691,76.3764 50.5,75.5C 51.1635,73.9581 51.8302,72.2914 52.5,70.5C 53.1924,71.0253 53.6924,71.6919 54,72.5C 54.1667,72 54.3333,71.5 54.5,71C 51.5816,69.2469 49.5816,66.7469 48.5,63.5C 51.7591,64.5868 54.9257,65.9201 58,67.5C 59.876,67.4753 61.376,66.8086 62.5,65.5C 64.371,65.1412 65.871,64.1412 67,62.5C 67.2784,63.4158 67.7784,64.0825 68.5,64.5 Z"/></g>
<g><path style="opacity:1" fill="#978259" d="M 95.5,56.5 C 95.4326,57.9587 95.7659,59.2921 96.5,60.5C 95.4265,61.2506 95.2599,62.2506 96,63.5C 99.7243,67.2795 104.224,69.2795 109.5,69.5C 111.604,71.0987 113.604,72.932 115.5,75C 115.272,75.3988 114.938,75.5654 114.5,75.5C 109.274,72.917 103.94,70.417 98.5,68C 96.6337,64.9457 93.967,63.4457 90.5,63.5C 91.2625,62.7321 92.2625,62.2321 93.5,62C 92.2068,61.51 90.8734,61.3433 89.5,61.5C 90.7175,60.8386 92.0508,60.1719 93.5,59.5C 90.7008,58.7939 88.3674,57.4605 86.5,55.5C 87.6948,55.3225 88.8615,54.9891 90,54.5C 91.8003,55.3195 93.6336,55.9862 95.5,56.5 Z"/></g>
<g><path style="opacity:1" fill="#4e6e2d" d="M 138.5,57.5 C 138.5,58.8333 138.5,60.1667 138.5,61.5C 138.5,62.8333 139.167,63.5 140.5,63.5C 140.5,63.8333 140.5,64.1667 140.5,64.5C 139.532,66.6074 139.198,68.9407 139.5,71.5C 136.061,71.2529 132.728,71.5863 129.5,72.5C 130.038,70.8828 130.371,69.2161 130.5,67.5C 131.167,66.5 131.833,65.5 132.5,64.5C 132.343,65.8734 132.51,67.2068 133,68.5C 133.605,66.5188 134.605,66.1854 136,67.5C 136.996,64.0911 137.829,60.7577 138.5,57.5 Z"/></g>
<g><path style="opacity:1" fill="#975b47" d="M 144.5,64.5 C 144.062,64.4346 143.728,64.6012 143.5,65C 146.156,67.2289 145.823,69.0622 142.5,70.5C 141.523,68.5891 140.857,66.5891 140.5,64.5C 140.5,64.1667 140.5,63.8333 140.5,63.5C 142.128,62.1472 143.462,62.4805 144.5,64.5 Z"/></g>
<g><path style="opacity:1" fill="#3f2916" d="M 69.5,67.5 C 73.8244,67.9272 78.1578,68.2605 82.5,68.5C 83.5,68.5 84.5,68.5 85.5,68.5C 84.0813,69.4511 82.4147,69.7845 80.5,69.5C 75.8333,69.5 71.1667,69.5 66.5,69.5C 67.2905,68.5987 68.2905,67.9321 69.5,67.5 Z"/></g>
<g><path style="opacity:1" fill="#c2a871" d="M 140.5,64.5 C 140.857,66.5891 141.523,68.5891 142.5,70.5C 145.823,69.0622 146.156,67.2289 143.5,65C 143.728,64.6012 144.062,64.4346 144.5,64.5C 144.833,64.5 145.167,64.5 145.5,64.5C 146.625,66.1288 147.959,67.6288 149.5,69C 146.691,70.7411 143.691,71.9078 140.5,72.5C 140.5,71.8333 140.167,71.5 139.5,71.5C 139.198,68.9407 139.532,66.6074 140.5,64.5 Z"/></g>
<g><path style="opacity:1" fill="#160f09" d="M 66.5,69.5 C 71.1667,69.5 75.8333,69.5 80.5,69.5C 80.5,69.8333 80.5,70.1667 80.5,70.5C 80.1667,71.1667 79.8333,71.8333 79.5,72.5C 78.5489,73.9187 78.2155,75.5853 78.5,77.5C 77.1667,77.5 75.8333,77.5 74.5,77.5C 74.7845,75.5853 74.4511,73.9187 73.5,72.5C 71.369,71.6862 69.0356,71.1862 66.5,71C 65.2617,70.31 65.2617,69.81 66.5,69.5 Z"/></g>
<g><path style="opacity:1" fill="#9d8762" d="M 85.5,68.5 C 88.0163,68.7553 90.3496,69.5886 92.5,71C 90.2028,71.0178 87.8695,70.8511 85.5,70.5C 83.8333,70.5 82.1667,70.5 80.5,70.5C 80.5,70.1667 80.5,69.8333 80.5,69.5C 82.4147,69.7845 84.0813,69.4511 85.5,68.5 Z"/></g>
<g><path style="opacity:1" fill="#7a5434" d="M 179.5,50.5 C 184.627,52.8973 189.627,55.564 194.5,58.5C 194.5,61.5 194.5,64.5 194.5,67.5C 194.585,69.9288 195.585,71.9288 197.5,73.5C 197.167,74.5 196.5,75.1667 195.5,75.5C 190.434,73.2737 185.268,71.2737 180,69.5C 174.591,64.2466 175.424,60.58 182.5,58.5C 181.5,57.8333 180.5,57.1667 179.5,56.5C 180.025,55.8076 180.692,55.3076 181.5,55C 180.313,53.9805 179.313,52.8139 178.5,51.5C 178.624,50.8933 178.957,50.56 179.5,50.5 Z"/></g>
<g><path style="opacity:1" fill="#64522f" d="M 46.5,54.5 C 47.7065,61.5284 48.0398,68.5284 47.5,75.5C 47.5,78.5 47.5,81.5 47.5,84.5C 45.1947,84.1372 43.528,82.9706 42.5,81C 44.0781,79.0284 44.9115,76.8617 45,74.5C 42.283,76.4865 40.783,79.1532 40.5,82.5C 37.8322,82.1663 35.8322,80.8329 34.5,78.5C 28.9215,80.4658 23.2548,80.9658 17.5,80C 15.5612,81.4321 14.2279,83.2654 13.5,85.5C 10.5271,89.1396 7.19379,92.4729 3.5,95.5C 2.50838,95.6716 1.84171,95.3382 1.5,94.5C 2.37644,94.6309 3.04311,94.2975 3.5,93.5C 7.71535,84.2522 14.0487,76.9189 22.5,71.5C 29.3974,69.3884 34.3974,65.0551 37.5,58.5C 39.7928,57.7643 42.1261,57.5976 44.5,58C 44.9448,55.9801 45.6115,54.8135 46.5,54.5 Z"/></g>
<g><path style="opacity:1" fill="#e6e28e" d="M 68.5,64.5 C 68.8333,64.5 69.1667,64.5 69.5,64.5C 70.2389,64.369 70.9056,64.5357 71.5,65C 70.6195,65.7083 69.9528,66.5416 69.5,67.5C 68.2905,67.9321 67.2905,68.5987 66.5,69.5C 65.2617,69.81 65.2617,70.31 66.5,71C 69.0356,71.1862 71.369,71.6862 73.5,72.5C 73.5,73.5 73.5,74.5 73.5,75.5C 70.5178,75.1044 67.8511,75.7711 65.5,77.5C 63.4414,76.433 61.608,75.0996 60,73.5C 58.8873,74.305 57.7206,74.9717 56.5,75.5C 56.1583,74.6618 55.4916,74.3284 54.5,74.5C 59.4238,71.584 64.0904,68.2506 68.5,64.5 Z"/></g>
<g><path style="opacity:1" fill="#1f240d" d="M 139.5,71.5 C 140.167,71.5 140.5,71.8333 140.5,72.5C 140.5,72.8333 140.5,73.1667 140.5,73.5C 139.292,74.2341 137.959,74.5674 136.5,74.5C 133.612,75.0102 131.279,74.3435 129.5,72.5C 132.728,71.5863 136.061,71.2529 139.5,71.5 Z"/></g>
<g><path style="opacity:1" fill="#eadc89" d="M 80.5,70.5 C 82.1667,70.5 83.8333,70.5 85.5,70.5C 88.6293,73.5268 92.296,74.1934 96.5,72.5C 99.1492,74.14 101.816,75.8067 104.5,77.5C 105.386,76.675 105.719,75.675 105.5,74.5C 106.404,75.209 106.737,76.209 106.5,77.5C 108.741,77.0461 110.741,77.0461 112.5,77.5C 112.586,78.4959 112.252,79.3292 111.5,80C 110.1,81.4381 108.433,82.2714 106.5,82.5C 102.138,83.1421 98.8048,81.6421 96.5,78C 90.7271,77.0705 85.0605,75.9039 79.5,74.5C 79.5,73.8333 79.5,73.1667 79.5,72.5C 79.8333,71.8333 80.1667,71.1667 80.5,70.5 Z"/></g>
<g><path style="opacity:1" fill="#785c38" d="M 105.5,74.5 C 105.719,75.675 105.386,76.675 104.5,77.5C 101.816,75.8067 99.1492,74.14 96.5,72.5C 95.5065,70.1457 96.5065,69.1457 99.5,69.5C 99.5,70.5 99.5,71.5 99.5,72.5C 101.898,72.2594 103.898,72.9261 105.5,74.5 Z"/></g>
<g><path style="opacity:1" fill="#b49f4c" d="M 73.5,72.5 C 74.4511,73.9187 74.7845,75.5853 74.5,77.5C 74.1667,77.5 73.8333,77.5 73.5,77.5C 72.5398,76.4848 71.3731,76.4848 70,77.5C 67.88,79.0272 65.7134,80.3605 63.5,81.5C 62.4168,81.4606 61.4168,81.1272 60.5,80.5C 57.9741,83.0632 56.3074,82.3966 55.5,78.5C 56.1272,77.5832 56.4606,76.5832 56.5,75.5C 57.7206,74.9717 58.8873,74.305 60,73.5C 61.608,75.0996 63.4414,76.433 65.5,77.5C 67.8511,75.7711 70.5178,75.1044 73.5,75.5C 73.5,74.5 73.5,73.5 73.5,72.5 Z"/></g>
<g><path style="opacity:1" fill="#b49966" d="M 131.5,60.5 C 132.434,61.5676 132.768,62.901 132.5,64.5C 131.833,65.5 131.167,66.5 130.5,67.5C 127.533,67.164 124.533,67.9973 121.5,70C 122.416,70.3742 123.25,70.8742 124,71.5C 125.301,73.4021 125.968,75.4021 126,77.5C 124.185,79.1002 123.018,81.1002 122.5,83.5C 118.888,85.2862 115.721,87.6196 113,90.5C 113.626,87.5588 114.792,84.7255 116.5,82C 115.778,80.2495 114.778,78.7495 113.5,77.5C 115.698,77.5912 116.031,76.9245 114.5,75.5C 114.938,75.5654 115.272,75.3988 115.5,75C 113.604,72.932 111.604,71.0987 109.5,69.5C 111.216,69.3713 112.883,69.038 114.5,68.5C 115.15,68.8039 115.817,69.1373 116.5,69.5C 119.651,68.7604 122.318,67.2604 124.5,65C 128.13,65.9156 130.464,64.4156 131.5,60.5 Z"/></g>
<g><path style="opacity:1" fill="#b38163" d="M 139.5,78.5 C 139.229,76.6203 139.896,75.287 141.5,74.5C 144.748,74.0986 147.915,73.432 151,72.5C 151.334,74.8473 151.167,77.1806 150.5,79.5C 148.4,79.4772 146.567,80.1439 145,81.5C 142.915,80.8758 141.082,79.8758 139.5,78.5 Z"/></g>
<g><path style="opacity:1" fill="#4c3e21" d="M 40.5,82.5 C 43.7501,89.6001 44.2501,96.9334 42,104.5C 41.6174,105.056 41.1174,105.389 40.5,105.5C 40.4828,103.435 40.1495,101.435 39.5,99.5C 40.5316,97.497 40.1982,95.497 38.5,93.5C 36.5914,94.3482 34.5914,94.6816 32.5,94.5C 32.719,93.325 32.3857,92.325 31.5,91.5C 27.5207,93.2848 24.5207,92.2848 22.5,88.5C 23.8361,86.6254 23.3361,85.2921 21,84.5C 20.5172,85.448 20.3505,86.448 20.5,87.5C 18.8333,87.5 17.1667,87.5 15.5,87.5C 14.8333,87.5 14.1667,87.5 13.5,87.5C 13.5,86.8333 13.5,86.1667 13.5,85.5C 14.2279,83.2654 15.5612,81.4321 17.5,80C 23.2548,80.9658 28.9215,80.4658 34.5,78.5C 35.8322,80.8329 37.8322,82.1663 40.5,82.5 Z"/></g>
<g><path style="opacity:1" fill="#c7835a" d="M 73.5,77.5 C 73.8333,77.5 74.1667,77.5 74.5,77.5C 75.8333,77.5 77.1667,77.5 78.5,77.5C 82.4495,78.2589 86.1162,79.5923 89.5,81.5C 82.0309,80.4552 74.6975,80.7885 67.5,82.5C 68.6808,80.9328 70.3474,80.0995 72.5,80C 73.2524,79.3292 73.5858,78.4959 73.5,77.5 Z"/></g>
<g><path style="opacity:1" fill="#9c4123" d="M 79.5,72.5 C 79.5,73.1667 79.5,73.8333 79.5,74.5C 84.5614,77.8477 90.2281,79.8477 96.5,80.5C 94.9547,81.4519 93.288,81.7852 91.5,81.5C 90.8333,81.5 90.1667,81.5 89.5,81.5C 86.1162,79.5923 82.4495,78.2589 78.5,77.5C 78.2155,75.5853 78.5489,73.9187 79.5,72.5 Z"/></g>
<g><path style="opacity:1" fill="#766037" d="M 207.5,56.5 C 210.279,57.8889 213.279,58.7222 216.5,59C 219.167,61.6667 221.833,64.3333 224.5,67C 227.167,67.3333 229.833,67.6667 232.5,68C 235.12,70.3989 238.12,72.0656 241.5,73C 243.235,73.6514 244.902,73.4847 246.5,72.5C 249.594,73.6732 252.594,74.6732 255.5,75.5C 255.5,80.5 255.5,85.5 255.5,90.5C 244.36,87.5885 234.526,82.2552 226,74.5C 221.847,70.0032 218.014,65.1699 214.5,60C 212.527,59.5045 210.527,59.3379 208.5,59.5C 207.596,58.791 207.263,57.791 207.5,56.5 Z"/></g>
<g><path style="opacity:1" fill="#994728" d="M 73.5,77.5 C 73.5858,78.4959 73.2524,79.3292 72.5,80C 70.3474,80.0995 68.6808,80.9328 67.5,82.5C 66.2905,82.9321 65.2905,83.5987 64.5,84.5C 64.1667,84.5 63.8333,84.5 63.5,84.5C 63.5,83.5 63.5,82.5 63.5,81.5C 65.7134,80.3605 67.88,79.0272 70,77.5C 71.3731,76.4848 72.5398,76.4848 73.5,77.5 Z"/></g>
<g><path style="opacity:1" fill="#5f3c22" d="M 177.5,49.5 C 178.492,49.3284 179.158,49.6618 179.5,50.5C 178.957,50.56 178.624,50.8933 178.5,51.5C 179.313,52.8139 180.313,53.9805 181.5,55C 180.692,55.3076 180.025,55.8076 179.5,56.5C 180.5,57.1667 181.5,57.8333 182.5,58.5C 175.424,60.58 174.591,64.2466 180,69.5C 185.268,71.2737 190.434,73.2737 195.5,75.5C 196.5,75.1667 197.167,74.5 197.5,73.5C 195.585,71.9288 194.585,69.9288 194.5,67.5C 195.779,68.968 197.446,69.6347 199.5,69.5C 201.059,72.0962 202.726,74.7629 204.5,77.5C 206.5,78.5 208.5,79.5 210.5,80.5C 211.034,82.6145 212.034,84.4478 213.5,86C 209.11,85.8677 207.777,87.701 209.5,91.5C 206.082,87.6259 201.749,85.6259 196.5,85.5C 196.586,84.5041 196.252,83.6708 195.5,83C 193.277,81.2669 190.944,79.7669 188.5,78.5C 186.142,79.6241 183.809,79.7907 181.5,79C 182.833,80.6667 184.167,82.3333 185.5,84C 184.944,84.3826 184.611,84.8826 184.5,85.5C 182.362,85.297 180.695,84.297 179.5,82.5C 177.271,75.8619 175.105,69.1952 173,62.5C 172.333,60.5 172.333,58.5 173,56.5C 175.505,54.6765 177.005,52.3431 177.5,49.5 Z"/></g>
<g><path style="opacity:1" fill="#b3693e" d="M 79.5,74.5 C 85.0605,75.9039 90.7271,77.0705 96.5,78C 98.8048,81.6421 102.138,83.1421 106.5,82.5C 108.331,86.3548 110.331,86.3548 112.5,82.5C 113.868,86.0566 112.534,87.7232 108.5,87.5C 105.676,85.9478 102.676,84.9478 99.5,84.5C 96.8677,83.2493 94.201,82.2493 91.5,81.5C 93.288,81.7852 94.9547,81.4519 96.5,80.5C 90.2281,79.8477 84.5614,77.8477 79.5,74.5 Z"/></g>
<g><path style="opacity:1" fill="#dcb880" d="M 89.5,81.5 C 90.1667,81.5 90.8333,81.5 91.5,81.5C 94.201,82.2493 96.8677,83.2493 99.5,84.5C 98.9935,85.8589 97.9935,86.8589 96.5,87.5C 99.2815,88.952 101.782,88.6187 104,86.5C 104.49,87.7932 104.657,89.1266 104.5,90.5C 92.1519,90.5858 79.8186,90.2525 67.5,89.5C 67.5,88.1667 67.5,86.8333 67.5,85.5C 66.209,85.7373 65.209,85.404 64.5,84.5C 65.2905,83.5987 66.2905,82.9321 67.5,82.5C 74.6975,80.7885 82.0309,80.4552 89.5,81.5 Z"/></g>
<g><path style="opacity:1" fill="#48371b" d="M 196.5,85.5 C 204.983,90.9112 213.317,96.5779 221.5,102.5C 220.833,102.833 220.167,103.167 219.5,103.5C 215.598,101.481 211.432,100.148 207,99.5C 206.5,99.6667 206,99.8333 205.5,100C 207.876,102.68 210.876,104.013 214.5,104C 218.866,107.513 223.532,110.513 228.5,113C 233.438,114.251 238.271,115.751 243,117.5C 243.483,116.552 243.649,115.552 243.5,114.5C 239.855,113.013 236.189,111.513 232.5,110C 230.963,108.89 230.297,107.39 230.5,105.5C 233.425,105.46 236.091,106.293 238.5,108C 243.236,112.951 248.903,115.784 255.5,116.5C 255.5,120.167 255.5,123.833 255.5,127.5C 246.19,123.432 236.523,120.099 226.5,117.5C 226.617,115.516 225.95,113.85 224.5,112.5C 221.269,111.273 218.269,109.606 215.5,107.5C 213.547,106.844 211.547,106.511 209.5,106.5C 209.737,107.791 209.404,108.791 208.5,109.5C 207.5,109.167 206.833,108.5 206.5,107.5C 202.253,100.417 196.753,94.4168 190,89.5C 189.667,88.5 189.333,87.5 189,86.5C 187.397,86.1286 185.897,85.7952 184.5,85.5C 184.611,84.8826 184.944,84.3826 185.5,84C 184.167,82.3333 182.833,80.6667 181.5,79C 183.809,79.7907 186.142,79.6241 188.5,78.5C 190.944,79.7669 193.277,81.2669 195.5,83C 196.252,83.6708 196.586,84.5041 196.5,85.5 Z"/></g>
<g><path style="opacity:1" fill="#6f701e" d="M 47.5,84.5 C 47.2761,86.7867 46.6094,88.9534 45.5,91C 47.0586,93.1686 47.3919,95.3352 46.5,97.5C 43.8645,100.767 43.0311,104.433 44,108.5C 43.7996,110.32 42.9663,111.653 41.5,112.5C 43.1501,107.273 42.4834,106.607 39.5,110.5C 39.6287,108.784 39.962,107.117 40.5,105.5C 41.1174,105.389 41.6174,105.056 42,104.5C 44.2501,96.9334 43.7501,89.6001 40.5,82.5C 40.783,79.1532 42.283,76.4865 45,74.5C 44.9115,76.8617 44.0781,79.0284 42.5,81C 43.528,82.9706 45.1947,84.1372 47.5,84.5 Z"/></g>
<g><path style="opacity:1" fill="#795935" d="M 153.5,76.5 C 153.833,77.8333 154.167,79.1667 154.5,80.5C 156.096,84.3568 157.096,88.3568 157.5,92.5C 155.856,92.2865 154.356,92.6198 153,93.5C 152.76,97.2519 152.26,100.919 151.5,104.5C 150.833,104.167 150.167,103.833 149.5,103.5C 149.5,99.5 149.5,95.5 149.5,91.5C 150.117,91.3893 150.617,91.056 151,90.5C 151.498,87.1832 151.665,83.8499 151.5,80.5C 151.989,79.0048 152.655,77.6715 153.5,76.5 Z"/></g>
<g><path style="opacity:1" fill="#52331c" d="M 194.5,58.5 C 196.781,59.6082 198.948,60.9415 201,62.5C 201.098,64.6193 201.931,66.286 203.5,67.5C 205.451,66.2263 206.785,64.5596 207.5,62.5C 207.328,61.5084 207.662,60.8417 208.5,60.5C 210.117,61.038 211.784,61.3713 213.5,61.5C 213.248,64.3198 213.748,66.9865 215,69.5C 218.673,72.0075 221.84,75.0075 224.5,78.5C 223.689,79.2164 223.022,80.0497 222.5,81C 223.842,82.7792 225.175,83.7792 226.5,84C 226.333,84.5 226.167,85 226,85.5C 224.989,84.6634 223.822,84.33 222.5,84.5C 222.441,88.548 224.108,91.7146 227.5,94C 226.335,95.0836 225.002,95.9169 223.5,96.5C 221.197,95.3192 218.863,95.3192 216.5,96.5C 214.197,94.8746 211.863,93.208 209.5,91.5C 207.777,87.701 209.11,85.8677 213.5,86C 212.034,84.4478 211.034,82.6145 210.5,80.5C 208.5,79.5 206.5,78.5 204.5,77.5C 202.726,74.7629 201.059,72.0962 199.5,69.5C 197.446,69.6347 195.779,68.968 194.5,67.5C 194.5,64.5 194.5,61.5 194.5,58.5 Z"/></g>
<g><path style="opacity:1" fill="#8c7046" d="M 166.5,74.5 C 168.306,79.3626 169.972,84.3626 171.5,89.5C 170.662,89.8417 170.328,90.5084 170.5,91.5C 167.498,89.5804 164.165,88.5804 160.5,88.5C 160.5,90.8333 160.5,93.1667 160.5,95.5C 158.339,95.8258 156.506,96.8258 155,98.5C 154.256,100.9 153.423,103.233 152.5,105.5C 151.833,105.5 151.5,105.167 151.5,104.5C 152.26,100.919 152.76,97.2519 153,93.5C 154.356,92.6198 155.856,92.2865 157.5,92.5C 157.096,88.3568 156.096,84.3568 154.5,80.5C 155.583,80.4606 156.583,80.1272 157.5,79.5C 158.591,81.0148 159.924,81.8481 161.5,82C 161.957,81.586 162.291,81.086 162.5,80.5C 160.072,75.9887 161.239,75.322 166,78.5C 166.49,77.2068 166.657,75.8734 166.5,74.5 Z"/></g>
<g><path style="opacity:1" fill="#736020" d="M 54.5,74.5 C 55.4916,74.3284 56.1583,74.6618 56.5,75.5C 56.4606,76.5832 56.1272,77.5832 55.5,78.5C 56.3074,82.3966 57.9741,83.0632 60.5,80.5C 61.4168,81.1272 62.4168,81.4606 63.5,81.5C 63.5,82.5 63.5,83.5 63.5,84.5C 63.5,84.8333 63.5,85.1667 63.5,85.5C 62.8333,85.5 62.1667,85.5 61.5,85.5C 61.6309,84.6236 61.2975,83.9569 60.5,83.5C 58.8333,84.8333 57.1667,86.1667 55.5,87.5C 53.6534,84.7984 52.4867,81.7984 52,78.5C 48.5514,82.7549 48.7181,86.7549 52.5,90.5C 52.0618,90.4346 51.7284,90.6012 51.5,91C 52.1667,91.3333 52.8333,91.6667 53.5,92C 52.3774,93.0437 51.0441,93.7104 49.5,94C 52.4278,96.6314 55.2612,96.1314 58,92.5C 59.7793,89.0509 59.1127,88.7176 56,91.5C 55.6012,91.2716 55.4346,90.9382 55.5,90.5C 56.9142,88.9458 58.5808,87.6125 60.5,86.5C 62.8418,86.7748 62.8418,87.6081 60.5,89C 62.0267,90.0319 63.36,91.1986 64.5,92.5C 62.602,91.9035 60.9354,91.9035 59.5,92.5C 58.3747,94.1288 57.0414,95.6288 55.5,97C 52.5385,97.301 49.8718,97.4677 47.5,97.5C 47.1667,97.5 46.8333,97.5 46.5,97.5C 47.3919,95.3352 47.0586,93.1686 45.5,91C 46.6094,88.9534 47.2761,86.7867 47.5,84.5C 47.5,81.5 47.5,78.5 47.5,75.5C 48.5,75.5 49.5,75.5 50.5,75.5C 50.3691,76.3764 50.7025,77.0431 51.5,77.5C 52.2876,76.2299 53.2876,75.2299 54.5,74.5 Z"/></g>
<g><path style="opacity:1" fill="#4b250d" d="M 61.5,85.5 C 60.8333,85.5 60.5,85.8333 60.5,86.5C 58.5808,87.6125 56.9142,88.9458 55.5,90.5C 54.5,90.5 53.5,90.5 52.5,90.5C 48.7181,86.7549 48.5514,82.7549 52,78.5C 52.4867,81.7984 53.6534,84.7984 55.5,87.5C 57.1667,86.1667 58.8333,84.8333 60.5,83.5C 61.2975,83.9569 61.6309,84.6236 61.5,85.5 Z"/></g>
<g><path style="opacity:1" fill="#342916" d="M 39.5,99.5 C 38.646,97.0663 37.646,97.233 36.5,100C 35.5,100.667 34.5,100.667 33.5,100C 31.0179,97.2342 28.0179,95.2342 24.5,94C 22.6487,92.3163 20.982,90.4829 19.5,88.5C 17.703,89.9321 16.3697,89.5988 15.5,87.5C 17.1667,87.5 18.8333,87.5 20.5,87.5C 20.3505,86.448 20.5172,85.448 21,84.5C 23.3361,85.2921 23.8361,86.6254 22.5,88.5C 24.5207,92.2848 27.5207,93.2848 31.5,91.5C 32.3857,92.325 32.719,93.325 32.5,94.5C 34.5914,94.6816 36.5914,94.3482 38.5,93.5C 40.1982,95.497 40.5316,97.497 39.5,99.5 Z"/></g>
<g><path style="opacity:1" fill="#bc9868" d="M 63.5,84.5 C 63.8333,84.5 64.1667,84.5 64.5,84.5C 65.209,85.404 66.209,85.7373 67.5,85.5C 67.5,86.8333 67.5,88.1667 67.5,89.5C 79.8186,90.2525 92.1519,90.5858 104.5,90.5C 103.688,91.5942 100.688,92.0942 95.5,92C 86.5,92.6667 77.5,92.6667 68.5,92C 65.5066,90.8415 63.8399,88.6748 63.5,85.5C 63.5,85.1667 63.5,84.8333 63.5,84.5 Z"/></g>
<g><path style="opacity:1" fill="#a48055" d="M 130.5,67.5 C 130.371,69.2161 130.038,70.8828 129.5,72.5C 131.279,74.3435 133.612,75.0102 136.5,74.5C 140.403,81.4073 139.069,85.574 132.5,87C 130.951,90.2925 128.617,92.7925 125.5,94.5C 122.167,93.1667 118.833,91.8333 115.5,90.5C 103.108,92.5894 90.6079,93.9227 78,94.5C 73.3144,94.6887 68.8144,94.022 64.5,92.5C 63.36,91.1986 62.0267,90.0319 60.5,89C 62.8418,87.6081 62.8418,86.7748 60.5,86.5C 60.5,85.8333 60.8333,85.5 61.5,85.5C 62.1667,85.5 62.8333,85.5 63.5,85.5C 63.8399,88.6748 65.5066,90.8415 68.5,92C 77.5,92.6667 86.5,92.6667 95.5,92C 100.688,92.0942 103.688,91.5942 104.5,90.5C 104.657,89.1266 104.49,87.7932 104,86.5C 101.782,88.6187 99.2815,88.952 96.5,87.5C 97.9935,86.8589 98.9935,85.8589 99.5,84.5C 102.676,84.9478 105.676,85.9478 108.5,87.5C 112.534,87.7232 113.868,86.0566 112.5,82.5C 110.331,86.3548 108.331,86.3548 106.5,82.5C 108.433,82.2714 110.1,81.4381 111.5,80C 112.252,79.3292 112.586,78.4959 112.5,77.5C 112.833,77.5 113.167,77.5 113.5,77.5C 114.778,78.7495 115.778,80.2495 116.5,82C 114.792,84.7255 113.626,87.5588 113,90.5C 115.721,87.6196 118.888,85.2862 122.5,83.5C 123.018,81.1002 124.185,79.1002 126,77.5C 125.968,75.4021 125.301,73.4021 124,71.5C 123.25,70.8742 122.416,70.3742 121.5,70C 124.533,67.9973 127.533,67.164 130.5,67.5 Z"/></g>
<g><path style="opacity:1" fill="#9b973c" d="M 52.5,90.5 C 53.5,90.5 54.5,90.5 55.5,90.5C 55.4346,90.9382 55.6012,91.2716 56,91.5C 59.1127,88.7176 59.7793,89.0509 58,92.5C 55.2612,96.1314 52.4278,96.6314 49.5,94C 51.0441,93.7104 52.3774,93.0437 53.5,92C 52.8333,91.6667 52.1667,91.3333 51.5,91C 51.7284,90.6012 52.0618,90.4346 52.5,90.5 Z"/></g>
<g><path style="opacity:1" fill="#352b11" d="M 13.5,85.5 C 13.5,86.1667 13.5,86.8333 13.5,87.5C 15.3167,89.0122 16.3167,91.0122 16.5,93.5C 22.8273,96.3027 28.8273,99.8027 34.5,104C 33.0383,105.628 31.3717,105.795 29.5,104.5C 28.3117,103.636 27.1451,102.636 26,101.5C 25.1376,103.087 24.4709,104.754 24,106.5C 22.3066,107.184 20.8066,108.184 19.5,109.5C 18.9041,108.284 18.7374,106.951 19,105.5C 18.0853,106.328 17.4186,107.328 17,108.5C 16.6827,106.699 16.016,106.366 15,107.5C 13.1034,112.544 10.6034,117.211 7.5,121.5C 7.66667,121.833 7.83333,122.167 8,122.5C 9.01948,121.313 10.1861,120.313 11.5,119.5C 12.6073,121.978 11.9407,123.978 9.5,125.5C 8.69221,127.423 8.19221,129.423 8,131.5C 6.92071,133.394 5.58738,133.727 4,132.5C 3.64657,133.672 3.81324,134.838 4.5,136C 3.19992,138.437 2.19992,140.937 1.5,143.5C 0.833333,143.5 0.166667,143.5 -0.5,143.5C -0.5,140.5 -0.5,137.5 -0.5,134.5C 4.02867,125.555 8.19534,115.888 12,105.5C 14.8932,103.721 16.0599,101.388 15.5,98.5C 14.4822,99.1925 13.4822,99.8592 12.5,100.5C 9.68979,100.796 7.35646,102.462 5.5,105.5C 4.83333,103.167 4.16667,100.833 3.5,98.5C 3.5,97.5 3.5,96.5 3.5,95.5C 7.19379,92.4729 10.5271,89.1396 13.5,85.5 Z"/></g>
<g><path style="opacity:1" fill="#38250f" d="M 170.5,46.5 C 173.018,47.2638 175.351,48.2638 177.5,49.5C 177.005,52.3431 175.505,54.6765 173,56.5C 172.333,58.5 172.333,60.5 173,62.5C 175.105,69.1952 177.271,75.8619 179.5,82.5C 180.695,84.297 182.362,85.297 184.5,85.5C 185.897,85.7952 187.397,86.1286 189,86.5C 189.333,87.5 189.667,88.5 190,89.5C 196.753,94.4168 202.253,100.417 206.5,107.5C 201.54,104.677 196.873,101.343 192.5,97.5C 192.167,97.8333 191.833,98.1667 191.5,98.5C 193.297,100.955 194.63,103.622 195.5,106.5C 190.037,102.666 185.204,97.9995 181,92.5C 179.989,93.3366 178.822,93.67 177.5,93.5C 176.18,92.0582 174.514,91.3915 172.5,91.5C 172.167,90.8333 171.833,90.1667 171.5,89.5C 169.972,84.3626 168.306,79.3626 166.5,74.5C 164.926,73.0158 163.593,71.3492 162.5,69.5C 162.5,68.1667 162.5,66.8333 162.5,65.5C 162.238,64.0222 162.571,62.6888 163.5,61.5C 164.5,63.8333 166.167,65.5 168.5,66.5C 169.007,61.7931 170.007,57.9598 171.5,55C 170.969,52.1834 170.636,49.35 170.5,46.5 Z"/></g>
<g><path style="opacity:1" fill="#604929" d="M 208.5,60.5 C 208.5,60.1667 208.5,59.8333 208.5,59.5C 210.527,59.3379 212.527,59.5045 214.5,60C 218.014,65.1699 221.847,70.0032 226,74.5C 234.526,82.2552 244.36,87.5885 255.5,90.5C 255.5,91.5 255.5,92.5 255.5,93.5C 252.375,93.8647 249.375,94.698 246.5,96C 242.514,96.4988 238.514,96.6655 234.5,96.5C 234.67,97.8221 234.337,98.9887 233.5,100C 234.953,102.114 236.953,103.448 239.5,104C 240.803,107.044 243.136,108.211 246.5,107.5C 246.222,109.346 246.889,110.68 248.5,111.5C 250.801,110.675 253.135,110.008 255.5,109.5C 255.5,111.833 255.5,114.167 255.5,116.5C 248.903,115.784 243.236,112.951 238.5,108C 236.091,106.293 233.425,105.46 230.5,105.5C 230.297,107.39 230.963,108.89 232.5,110C 236.189,111.513 239.855,113.013 243.5,114.5C 243.649,115.552 243.483,116.552 243,117.5C 238.271,115.751 233.438,114.251 228.5,113C 223.532,110.513 218.866,107.513 214.5,104C 210.876,104.013 207.876,102.68 205.5,100C 206,99.8333 206.5,99.6667 207,99.5C 211.432,100.148 215.598,101.481 219.5,103.5C 220.167,103.167 220.833,102.833 221.5,102.5C 213.317,96.5779 204.983,90.9112 196.5,85.5C 201.749,85.6259 206.082,87.6259 209.5,91.5C 211.863,93.208 214.197,94.8746 216.5,96.5C 218.863,95.3192 221.197,95.3192 223.5,96.5C 225.002,95.9169 226.335,95.0836 227.5,94C 224.108,91.7146 222.441,88.548 222.5,84.5C 223.822,84.33 224.989,84.6634 226,85.5C 226.167,85 226.333,84.5 226.5,84C 225.175,83.7792 223.842,82.7792 222.5,81C 223.022,80.0497 223.689,79.2164 224.5,78.5C 221.84,75.0075 218.673,72.0075 215,69.5C 213.748,66.9865 213.248,64.3198 213.5,61.5C 211.784,61.3713 210.117,61.038 208.5,60.5 Z"/></g>
<g><path style="opacity:1" fill="#694a31" d="M 136.5,93.5 C 136.5,94.8333 136.5,96.1667 136.5,97.5C 134.515,100.732 131.515,102.399 127.5,102.5C 112.429,97.5691 97.0952,96.2357 81.5,98.5C 77.2984,98.8168 73.2984,98.4834 69.5,97.5C 69.5,97.1667 69.5,96.8333 69.5,96.5C 84.8206,95.4959 100.154,95.3292 115.5,96C 117.055,98.4654 119.055,98.9654 121.5,97.5C 123.183,98.5921 125.016,99.2587 127,99.5C 130.279,97.7303 133.445,95.7303 136.5,93.5 Z"/></g>
<g><path style="opacity:1" fill="#7f603f" d="M 140.5,73.5 C 141.167,73.5 141.5,73.8333 141.5,74.5C 139.896,75.287 139.229,76.6203 139.5,78.5C 139.5,80.1667 139.5,81.8333 139.5,83.5C 139.5,84.5 139.5,85.5 139.5,86.5C 137.688,88.4605 136.688,90.7939 136.5,93.5C 133.445,95.7303 130.279,97.7303 127,99.5C 125.016,99.2587 123.183,98.5921 121.5,97.5C 119.055,98.9654 117.055,98.4654 115.5,96C 100.154,95.3292 84.8206,95.4959 69.5,96.5C 66.3664,94.7081 63.0331,93.3748 59.5,92.5C 60.9354,91.9035 62.602,91.9035 64.5,92.5C 68.8144,94.022 73.3144,94.6887 78,94.5C 90.6079,93.9227 103.108,92.5894 115.5,90.5C 118.833,91.8333 122.167,93.1667 125.5,94.5C 128.617,92.7925 130.951,90.2925 132.5,87C 139.069,85.574 140.403,81.4073 136.5,74.5C 137.959,74.5674 139.292,74.2341 140.5,73.5 Z"/></g>
<g><path style="opacity:1" fill="#2a1c0d" d="M 206.5,107.5 C 206.833,108.5 207.5,109.167 208.5,109.5C 209.46,110.515 210.627,110.515 212,109.5C 213.244,111.576 215.077,112.576 217.5,112.5C 217.338,114.527 217.505,116.527 218,118.5C 226.802,127.813 236.302,136.147 246.5,143.5C 234.833,143.5 223.167,143.5 211.5,143.5C 211.821,142.183 212.154,140.849 212.5,139.5C 210.807,134.513 208.807,129.68 206.5,125C 202.986,124.169 199.819,122.669 197,120.5C 196.654,118.782 196.154,117.115 195.5,115.5C 196.585,114.216 197.252,112.716 197.5,111C 197.693,108.992 197.026,107.492 195.5,106.5C 194.63,103.622 193.297,100.955 191.5,98.5C 191.833,98.1667 192.167,97.8333 192.5,97.5C 196.873,101.343 201.54,104.677 206.5,107.5 Z"/></g>
<g><path style="opacity:1" fill="#706039" d="M 255.5,93.5 C 255.5,98.8333 255.5,104.167 255.5,109.5C 253.135,110.008 250.801,110.675 248.5,111.5C 246.889,110.68 246.222,109.346 246.5,107.5C 243.136,108.211 240.803,107.044 239.5,104C 236.953,103.448 234.953,102.114 233.5,100C 234.337,98.9887 234.67,97.8221 234.5,96.5C 238.514,96.6655 242.514,96.4988 246.5,96C 249.375,94.698 252.375,93.8647 255.5,93.5 Z"/></g>
<g><path style="opacity:1" fill="#503b0b" d="M 59.5,92.5 C 63.0331,93.3748 66.3664,94.7081 69.5,96.5C 69.5,96.8333 69.5,97.1667 69.5,97.5C 66.6146,97.1936 63.9479,97.5269 61.5,98.5C 60.8333,98.5 60.1667,98.5 59.5,98.5C 56.8333,98.5 54.1667,98.5 51.5,98.5C 51.8893,101.553 51.2227,104.22 49.5,106.5C 49.7931,103.246 49.1264,100.246 47.5,97.5C 49.8718,97.4677 52.5385,97.301 55.5,97C 57.0414,95.6288 58.3747,94.1288 59.5,92.5 Z"/></g>
<g><path style="opacity:1" fill="#7d371a" d="M -0.5,91.5 C 0.906316,91.9731 1.57298,92.9731 1.5,94.5C 1.84171,95.3382 2.50838,95.6716 3.5,95.5C 3.5,96.5 3.5,97.5 3.5,98.5C 3.04319,100.773 1.70986,102.106 -0.5,102.5C -0.5,98.8333 -0.5,95.1667 -0.5,91.5 Z"/></g>
<g><path style="opacity:1" fill="#1e1303" d="M 59.5,98.5 C 60.1667,98.5 60.8333,98.5 61.5,98.5C 68.2044,100.817 75.2044,101.984 82.5,102C 80.4062,103.352 78.0728,103.852 75.5,103.5C 75.3398,105.199 75.5065,106.866 76,108.5C 78.7794,110.127 80.6128,112.46 81.5,115.5C 80.2499,117.968 80.4166,120.301 82,122.5C 90.7058,131.334 101.206,134.334 113.5,131.5C 112.048,132.302 110.382,132.802 108.5,133C 101.833,133.667 95.1667,133.667 88.5,133C 86.0374,129.535 83.2041,126.369 80,123.5C 78.7831,120.006 77.2831,116.673 75.5,113.5C 72.4899,112.731 69.4899,111.897 66.5,111C 66.034,108.877 64.8673,107.377 63,106.5C 61.7562,108.576 59.9229,109.576 57.5,109.5C 54.3281,105.835 54.9947,103.502 59.5,102.5C 59.5,101.167 59.5,99.8333 59.5,98.5 Z"/></g>
<g><path style="opacity:1" fill="#8e7b51" d="M 170.5,91.5 C 170.571,94.3113 171.238,96.978 172.5,99.5C 171.528,101.305 170.361,102.972 169,104.5C 166.633,101.068 163.966,100.735 161,103.5C 160.667,103.167 160.333,102.833 160,102.5C 158.23,106.673 155.73,107.673 152.5,105.5C 153.423,103.233 154.256,100.9 155,98.5C 156.506,96.8258 158.339,95.8258 160.5,95.5C 160.5,93.1667 160.5,90.8333 160.5,88.5C 164.165,88.5804 167.498,89.5804 170.5,91.5 Z"/></g>
<g><path style="opacity:1" fill="#491d0c" d="M 3.5,98.5 C 4.16667,100.833 4.83333,103.167 5.5,105.5C 3.57391,106.486 1.57391,107.486 -0.5,108.5C -0.5,106.5 -0.5,104.5 -0.5,102.5C 1.70986,102.106 3.04319,100.773 3.5,98.5 Z"/></g>
<g><path style="opacity:1" fill="#4b321f" d="M 81.5,98.5 C 97.0952,96.2357 112.429,97.5691 127.5,102.5C 131.515,102.399 134.515,100.732 136.5,97.5C 136.741,99.8863 136.075,101.886 134.5,103.5C 128.809,105.651 122.975,105.984 117,104.5C 111.365,106.874 105.532,108.041 99.5,108C 100.823,107.184 101.489,106.017 101.5,104.5C 102.808,103.768 104.142,102.934 105.5,102C 104.833,101.667 104.167,101.333 103.5,101C 96.1119,100.484 88.7786,99.6505 81.5,98.5 Z"/></g>
<g><path style="opacity:1" fill="#6d7147" d="M 149.5,91.5 C 149.5,95.5 149.5,99.5 149.5,103.5C 150.159,106.455 150.492,109.455 150.5,112.5C 149.391,112.443 148.391,112.11 147.5,111.5C 147.114,106.99 146.114,102.657 144.5,98.5C 144.336,95.8127 144.503,93.146 145,90.5C 146.049,88.8934 147.549,88.2267 149.5,88.5C 149.5,89.5 149.5,90.5 149.5,91.5 Z"/></g>
<g><path style="opacity:1" fill="#3d281b" d="M 101.5,104.5 C 101.489,106.017 100.823,107.184 99.5,108C 105.532,108.041 111.365,106.874 117,104.5C 122.975,105.984 128.809,105.651 134.5,103.5C 135.491,108.173 133.824,111.506 129.5,113.5C 127.436,111.739 125.269,111.405 123,112.5C 121.488,111.743 120.154,110.743 119,109.5C 118.21,111.79 116.876,112.123 115,110.5C 111.592,111.897 108.092,112.397 104.5,112C 105.451,111.282 105.617,110.449 105,109.5C 103.667,110.167 102.333,110.833 101,111.5C 100.436,114.322 99.9355,116.822 99.5,119C 96.8333,119 94.1667,119 91.5,119C 93.3492,120.093 95.0158,121.426 96.5,123C 99.3766,122.702 102.21,122.868 105,123.5C 106.261,123.241 107.261,122.574 108,121.5C 108.414,121.957 108.914,122.291 109.5,122.5C 110.719,121.354 112.052,120.354 113.5,119.5C 112.476,115.501 113.809,114.668 117.5,117C 117.043,117.414 116.709,117.914 116.5,118.5C 118.341,119.23 120.175,119.897 122,120.5C 124.62,121.362 127.454,121.362 130.5,120.5C 130.167,121.5 129.5,122.167 128.5,122.5C 125.398,122.846 122.565,122.179 120,120.5C 117.497,122.35 114.664,123.683 111.5,124.5C 110.199,123.522 109.032,123.855 108,125.5C 104.404,124.437 100.904,124.437 97.5,125.5C 91.1272,123.968 87.9606,119.968 88,113.5C 84.9858,110.825 81.8191,108.325 78.5,106C 83.7086,102.338 88.5419,102.838 93,107.5C 95.5706,105.809 98.404,104.809 101.5,104.5 Z"/></g>
<g><path style="opacity:1" fill="#2c220f" d="M 29.5,104.5 C 27.1975,106.978 25.0308,109.645 23,112.5C 21.49,110.125 19.99,110.291 18.5,113C 18.9054,113.945 19.572,114.612 20.5,115C 19.2833,118.259 16.95,120.259 13.5,121C 14.5,121.333 15.5,121.667 16.5,122C 11.6527,126.522 9.15271,132.022 9,138.5C 10.5581,137.655 11.5581,138.321 12,140.5C 13.1096,138.963 14.6096,138.297 16.5,138.5C 17.3077,140.22 18.3077,141.887 19.5,143.5C 13.5,143.5 7.5,143.5 1.5,143.5C 2.19992,140.937 3.19992,138.437 4.5,136C 3.81324,134.838 3.64657,133.672 4,132.5C 5.58738,133.727 6.92071,133.394 8,131.5C 8.19221,129.423 8.69221,127.423 9.5,125.5C 11.9407,123.978 12.6073,121.978 11.5,119.5C 10.1861,120.313 9.01948,121.313 8,122.5C 7.83333,122.167 7.66667,121.833 7.5,121.5C 10.6034,117.211 13.1034,112.544 15,107.5C 16.016,106.366 16.6827,106.699 17,108.5C 17.4186,107.328 18.0853,106.328 19,105.5C 18.7374,106.951 18.9041,108.284 19.5,109.5C 20.8066,108.184 22.3066,107.184 24,106.5C 24.4709,104.754 25.1376,103.087 26,101.5C 27.1451,102.636 28.3117,103.636 29.5,104.5 Z"/></g>
<g><path style="opacity:1" fill="#332213" d="M 61.5,98.5 C 63.9479,97.5269 66.6146,97.1936 69.5,97.5C 73.2984,98.4834 77.2984,98.8168 81.5,98.5C 88.7786,99.6505 96.1119,100.484 103.5,101C 104.167,101.333 104.833,101.667 105.5,102C 104.142,102.934 102.808,103.768 101.5,104.5C 98.404,104.809 95.5706,105.809 93,107.5C 88.5419,102.838 83.7086,102.338 78.5,106C 81.8191,108.325 84.9858,110.825 88,113.5C 87.9606,119.968 91.1272,123.968 97.5,125.5C 100.904,124.437 104.404,124.437 108,125.5C 109.032,123.855 110.199,123.522 111.5,124.5C 114.664,123.683 117.497,122.35 120,120.5C 122.565,122.179 125.398,122.846 128.5,122.5C 123.763,123.64 119.43,125.806 115.5,129C 112.167,129.667 108.833,129.667 105.5,129C 98.604,127.54 91.9373,125.54 85.5,123C 84.0916,120.481 82.7583,117.981 81.5,115.5C 80.6128,112.46 78.7794,110.127 76,108.5C 75.5065,106.866 75.3398,105.199 75.5,103.5C 78.0728,103.852 80.4062,103.352 82.5,102C 75.2044,101.984 68.2044,100.817 61.5,98.5 Z"/></g>
<g><path style="opacity:1" fill="#422c22" d="M 139.5,86.5 C 140.234,87.8775 140.901,89.3775 141.5,91C 139.981,92.2183 138.814,93.7183 138,95.5C 137.438,103.415 135.771,111.082 133,118.5C 132.292,119.381 131.458,120.047 130.5,120.5C 127.454,121.362 124.62,121.362 122,120.5C 120.175,119.897 118.341,119.23 116.5,118.5C 116.709,117.914 117.043,117.414 117.5,117C 113.809,114.668 112.476,115.501 113.5,119.5C 112.052,120.354 110.719,121.354 109.5,122.5C 108.914,122.291 108.414,121.957 108,121.5C 107.261,122.574 106.261,123.241 105,123.5C 102.21,122.868 99.3766,122.702 96.5,123C 95.0158,121.426 93.3492,120.093 91.5,119C 94.1667,119 96.8333,119 99.5,119C 99.9355,116.822 100.436,114.322 101,111.5C 102.333,110.833 103.667,110.167 105,109.5C 105.617,110.449 105.451,111.282 104.5,112C 108.092,112.397 111.592,111.897 115,110.5C 116.876,112.123 118.21,111.79 119,109.5C 120.154,110.743 121.488,111.743 123,112.5C 125.269,111.405 127.436,111.739 129.5,113.5C 133.824,111.506 135.491,108.173 134.5,103.5C 136.075,101.886 136.741,99.8863 136.5,97.5C 136.5,96.1667 136.5,94.8333 136.5,93.5C 136.688,90.7939 137.688,88.4605 139.5,86.5 Z"/></g>
<g><path style="opacity:1" fill="#2f1305" d="M 12.5,100.5 C 9.20952,110.409 4.87619,119.742 -0.5,128.5C -0.5,121.833 -0.5,115.167 -0.5,108.5C 1.57391,107.486 3.57391,106.486 5.5,105.5C 7.35646,102.462 9.68979,100.796 12.5,100.5 Z"/></g>
<g><path style="opacity:1" fill="#7b6b46" d="M 171.5,89.5 C 171.833,90.1667 172.167,90.8333 172.5,91.5C 172.504,93.8421 173.337,95.8421 175,97.5C 175.499,101.486 175.666,105.486 175.5,109.5C 171.889,111.644 168.222,113.81 164.5,116C 161.563,116.1 158.896,116.933 156.5,118.5C 154.735,117.974 153.068,117.641 151.5,117.5C 151.737,116.209 151.404,115.209 150.5,114.5C 150.5,113.833 150.5,113.167 150.5,112.5C 150.492,109.455 150.159,106.455 149.5,103.5C 150.167,103.833 150.833,104.167 151.5,104.5C 151.5,105.167 151.833,105.5 152.5,105.5C 155.73,107.673 158.23,106.673 160,102.5C 160.333,102.833 160.667,103.167 161,103.5C 163.966,100.735 166.633,101.068 169,104.5C 170.361,102.972 171.528,101.305 172.5,99.5C 171.238,96.978 170.571,94.3113 170.5,91.5C 170.328,90.5084 170.662,89.8417 171.5,89.5 Z"/></g>
<g><path style="opacity:1" fill="#46321d" d="M 195.5,106.5 C 197.026,107.492 197.693,108.992 197.5,111C 197.252,112.716 196.585,114.216 195.5,115.5C 196.154,117.115 196.654,118.782 197,120.5C 199.819,122.669 202.986,124.169 206.5,125C 208.807,129.68 210.807,134.513 212.5,139.5C 212.154,140.849 211.821,142.183 211.5,143.5C 196.833,143.5 182.167,143.5 167.5,143.5C 172.077,140.929 176.41,138.429 180.5,136C 187.548,128.736 191.215,119.903 191.5,109.5C 189.411,106.439 187.411,103.439 185.5,100.5C 181.993,99.087 179.327,96.7536 177.5,93.5C 178.822,93.67 179.989,93.3366 181,92.5C 185.204,97.9995 190.037,102.666 195.5,106.5 Z"/></g>
<g><path style="opacity:1" fill="#2c190f" d="M 59.5,98.5 C 59.5,99.8333 59.5,101.167 59.5,102.5C 54.9947,103.502 54.3281,105.835 57.5,109.5C 57.9528,110.458 58.6195,111.292 59.5,112C 58.8333,112.333 58.1667,112.667 57.5,113C 62.5845,117.876 64.4178,123.376 63,129.5C 63.6891,130.357 64.5224,131.023 65.5,131.5C 66.6918,135.766 68.3585,139.766 70.5,143.5C 68.5,143.5 66.5,143.5 64.5,143.5C 65.021,139.281 63.8543,135.614 61,132.5C 60.3054,126.445 57.972,121.111 54,116.5C 51.6382,125.337 50.1382,134.337 49.5,143.5C 48.5,143.5 47.5,143.5 46.5,143.5C 47.7057,132.808 49.0391,122.141 50.5,111.5C 49.7542,110.264 49.4208,108.93 49.5,107.5C 49.5,107.167 49.5,106.833 49.5,106.5C 51.2227,104.22 51.8893,101.553 51.5,98.5C 54.1667,98.5 56.8333,98.5 59.5,98.5 Z"/></g>
<g><path style="opacity:1" fill="#472012" d="M 147.5,111.5 C 148.391,112.11 149.391,112.443 150.5,112.5C 150.5,113.167 150.5,113.833 150.5,114.5C 150.917,119.068 148.917,120.568 144.5,119C 143.409,116.936 143.242,114.769 144,112.5C 145.011,111.663 146.178,111.33 147.5,111.5 Z"/></g>
<g><path style="opacity:1" fill="#6e5336" d="M 172.5,91.5 C 174.514,91.3915 176.18,92.0582 177.5,93.5C 179.327,96.7536 181.993,99.087 185.5,100.5C 187,104.33 187.667,108.33 187.5,112.5C 185.976,118.017 182.309,121.017 176.5,121.5C 175.592,120.21 175.759,118.877 177,117.5C 177.654,118.696 178.154,118.696 178.5,117.5C 176.892,116.758 175.225,116.591 173.5,117C 175.278,114.865 175.945,112.365 175.5,109.5C 175.666,105.486 175.499,101.486 175,97.5C 173.337,95.8421 172.504,93.8421 172.5,91.5 Z"/></g>
<g><path style="opacity:1" fill="#322311" d="M 255.5,127.5 C 255.5,132.833 255.5,138.167 255.5,143.5C 252.5,143.5 249.5,143.5 246.5,143.5C 236.302,136.147 226.802,127.813 218,118.5C 217.505,116.527 217.338,114.527 217.5,112.5C 215.077,112.576 213.244,111.576 212,109.5C 210.627,110.515 209.46,110.515 208.5,109.5C 209.404,108.791 209.737,107.791 209.5,106.5C 211.547,106.511 213.547,106.844 215.5,107.5C 218.269,109.606 221.269,111.273 224.5,112.5C 225.95,113.85 226.617,115.516 226.5,117.5C 236.523,120.099 246.19,123.432 255.5,127.5 Z"/></g>
<g><path style="opacity:1" fill="#433317" d="M 38.5,112.5 C 36.5171,117.77 34.1838,122.77 31.5,127.5C 31.539,124.19 30.2057,121.524 27.5,119.5C 28.2427,118.818 28.9094,118.151 29.5,117.5C 30.3636,116.312 31.3636,115.145 32.5,114C 33.7425,113.689 34.7425,114.189 35.5,115.5C 36.2876,114.23 37.2876,113.23 38.5,112.5 Z"/></g>
<g><path style="opacity:1" fill="#848c2f" d="M 41.5,112.5 C 40.8246,117.887 38.6579,122.554 35,126.5C 34.5051,129.828 33.3385,132.828 31.5,135.5C 30.5655,134.432 30.2322,133.099 30.5,131.5C 31.2341,130.292 31.5674,128.959 31.5,127.5C 34.1838,122.77 36.5171,117.77 38.5,112.5C 38.3284,111.508 38.6618,110.842 39.5,110.5C 42.4834,106.607 43.1501,107.273 41.5,112.5 Z"/></g>
<g><path style="opacity:1" fill="#615035" d="M 175.5,109.5 C 175.945,112.365 175.278,114.865 173.5,117C 175.225,116.591 176.892,116.758 178.5,117.5C 178.154,118.696 177.654,118.696 177,117.5C 175.759,118.877 175.592,120.21 176.5,121.5C 182.309,121.017 185.976,118.017 187.5,112.5C 187.295,115.988 186.461,119.321 185,122.5C 181.078,125.211 177.244,128.045 173.5,131C 172.13,132.441 171.13,134.108 170.5,136C 167.084,136.893 163.917,136.393 161,134.5C 155.033,139.987 152.533,138.321 153.5,129.5C 152.925,125.477 152.259,121.477 151.5,117.5C 153.068,117.641 154.735,117.974 156.5,118.5C 158.896,116.933 161.563,116.1 164.5,116C 168.222,113.81 171.889,111.644 175.5,109.5 Z"/></g>
<g><path style="opacity:1" fill="#3c3b0c" d="M -0.5,134.5 C -0.5,132.5 -0.5,130.5 -0.5,128.5C 4.87619,119.742 9.20952,110.409 12.5,100.5C 13.4822,99.8592 14.4822,99.1925 15.5,98.5C 16.0599,101.388 14.8932,103.721 12,105.5C 8.19534,115.888 4.02867,125.555 -0.5,134.5 Z"/></g>
<g><path style="opacity:1" fill="#1b1307" d="M 13.5,87.5 C 14.1667,87.5 14.8333,87.5 15.5,87.5C 16.3697,89.5988 17.703,89.9321 19.5,88.5C 20.982,90.4829 22.6487,92.3163 24.5,94C 28.0179,95.2342 31.0179,97.2342 33.5,100C 34.5,100.667 35.5,100.667 36.5,100C 37.646,97.233 38.646,97.0663 39.5,99.5C 40.1495,101.435 40.4828,103.435 40.5,105.5C 39.962,107.117 39.6287,108.784 39.5,110.5C 38.6618,110.842 38.3284,111.508 38.5,112.5C 37.2876,113.23 36.2876,114.23 35.5,115.5C 34.7425,114.189 33.7425,113.689 32.5,114C 31.3636,115.145 30.3636,116.312 29.5,117.5C 28.325,117.281 27.325,117.614 26.5,118.5C 24.476,120.69 22.6427,123.023 21,125.5C 20.7003,127.066 21.2003,128.399 22.5,129.5C 19.7693,131.946 17.7693,134.946 16.5,138.5C 14.6096,138.297 13.1096,138.963 12,140.5C 11.5581,138.321 10.5581,137.655 9,138.5C 9.15271,132.022 11.6527,126.522 16.5,122C 15.5,121.667 14.5,121.333 13.5,121C 16.95,120.259 19.2833,118.259 20.5,115C 19.572,114.612 18.9054,113.945 18.5,113C 19.99,110.291 21.49,110.125 23,112.5C 25.0308,109.645 27.1975,106.978 29.5,104.5C 31.3717,105.795 33.0383,105.628 34.5,104C 28.8273,99.8027 22.8273,96.3027 16.5,93.5C 16.3167,91.0122 15.3167,89.0122 13.5,87.5 Z"/></g>
<g><path style="opacity:1" fill="#2d1d13" d="M 151.5,80.5 C 151.665,83.8499 151.498,87.1832 151,90.5C 150.617,91.056 150.117,91.3893 149.5,91.5C 149.5,90.5 149.5,89.5 149.5,88.5C 147.549,88.2267 146.049,88.8934 145,90.5C 144.503,93.146 144.336,95.8127 144.5,98.5C 142.747,101.146 141.747,104.146 141.5,107.5C 140.3,117.237 136.133,125.57 129,132.5C 128.751,135.177 127.751,137.51 126,139.5C 124.008,140.328 122.508,141.661 121.5,143.5C 119.167,143.5 116.833,143.5 114.5,143.5C 115.301,141.958 115.634,140.292 115.5,138.5C 117.5,138.5 119.5,138.5 121.5,138.5C 121.963,133.92 124.297,130.753 128.5,129C 130.329,127.887 131.163,126.387 131,124.5C 124.674,125.674 118.84,128.008 113.5,131.5C 101.206,134.334 90.7058,131.334 82,122.5C 80.4166,120.301 80.2499,117.968 81.5,115.5C 82.7583,117.981 84.0916,120.481 85.5,123C 91.9373,125.54 98.604,127.54 105.5,129C 108.833,129.667 112.167,129.667 115.5,129C 119.43,125.806 123.763,123.64 128.5,122.5C 129.5,122.167 130.167,121.5 130.5,120.5C 131.458,120.047 132.292,119.381 133,118.5C 135.771,111.082 137.438,103.415 138,95.5C 138.814,93.7183 139.981,92.2183 141.5,91C 140.901,89.3775 140.234,87.8775 139.5,86.5C 139.5,85.5 139.5,84.5 139.5,83.5C 141.857,83.6633 144.19,83.4966 146.5,83C 147.653,81.117 149.319,80.2837 151.5,80.5 Z"/></g>
<g><path style="opacity:1" fill="#504a2c" d="M 144.5,98.5 C 146.114,102.657 147.114,106.99 147.5,111.5C 146.178,111.33 145.011,111.663 144,112.5C 143.242,114.769 143.409,116.936 144.5,119C 148.917,120.568 150.917,119.068 150.5,114.5C 151.404,115.209 151.737,116.209 151.5,117.5C 152.259,121.477 152.925,125.477 153.5,129.5C 151.15,127.615 148.65,127.282 146,128.5C 145.788,131.252 144.955,133.752 143.5,136C 143.645,136.772 143.978,137.439 144.5,138C 142.658,139.346 141.658,141.179 141.5,143.5C 140.833,143.5 140.167,143.5 139.5,143.5C 140.056,131.493 140.723,119.493 141.5,107.5C 141.747,104.146 142.747,101.146 144.5,98.5 Z"/></g>
<g><path style="opacity:1" fill="#5e502d" d="M 46.5,97.5 C 46.8333,97.5 47.1667,97.5 47.5,97.5C 49.1264,100.246 49.7931,103.246 49.5,106.5C 49.5,106.833 49.5,107.167 49.5,107.5C 49.0048,110.388 47.5048,112.721 45,114.5C 44.483,120.689 43.6497,126.689 42.5,132.5C 43.7504,120.173 41.9171,119.507 37,130.5C 35.8436,134.418 35.3436,138.418 35.5,142.5C 34.1986,137.266 33.1986,137.6 32.5,143.5C 30.1667,143.5 27.8333,143.5 25.5,143.5C 25.9887,142.005 26.6554,140.671 27.5,139.5C 27.7496,140.922 28.583,141.922 30,142.5C 30.977,140.26 31.477,137.927 31.5,135.5C 33.3385,132.828 34.5051,129.828 35,126.5C 38.6579,122.554 40.8246,117.887 41.5,112.5C 42.9663,111.653 43.7996,110.32 44,108.5C 43.0311,104.433 43.8645,100.767 46.5,97.5 Z"/></g>
<g><path style="opacity:1" fill="#7a7a46" d="M 42.5,132.5 C 42.5,132.833 42.5,133.167 42.5,133.5C 41.2652,133.721 40.2652,134.388 39.5,135.5C 38.5258,137.743 38.1924,140.076 38.5,142.5C 37.5,142.5 36.5,142.5 35.5,142.5C 35.3436,138.418 35.8436,134.418 37,130.5C 41.9171,119.507 43.7504,120.173 42.5,132.5 Z"/></g>
<g><path style="opacity:1" fill="#483129" d="M 64.5,143.5 C 59.5,143.5 54.5,143.5 49.5,143.5C 50.1382,134.337 51.6382,125.337 54,116.5C 57.972,121.111 60.3054,126.445 61,132.5C 63.8543,135.614 65.021,139.281 64.5,143.5 Z"/></g>
<g><path style="opacity:1" fill="#2c2110" d="M 29.5,117.5 C 28.9094,118.151 28.2427,118.818 27.5,119.5C 30.2057,121.524 31.539,124.19 31.5,127.5C 31.5674,128.959 31.2341,130.292 30.5,131.5C 29.5,133.5 28.5,135.5 27.5,137.5C 26.6515,134.319 24.9848,131.652 22.5,129.5C 21.2003,128.399 20.7003,127.066 21,125.5C 22.6427,123.023 24.476,120.69 26.5,118.5C 27.325,117.614 28.325,117.281 29.5,117.5 Z"/></g>
<g><path style="opacity:1" fill="#341308" d="M 22.5,129.5 C 24.9848,131.652 26.6515,134.319 27.5,137.5C 27.5,138.167 27.5,138.833 27.5,139.5C 26.6554,140.671 25.9887,142.005 25.5,143.5C 23.5,143.5 21.5,143.5 19.5,143.5C 18.3077,141.887 17.3077,140.22 16.5,138.5C 17.7693,134.946 19.7693,131.946 22.5,129.5 Z"/></g>
<g><path style="opacity:1" fill="#1f100a" d="M 113.5,131.5 C 118.84,128.008 124.674,125.674 131,124.5C 131.163,126.387 130.329,127.887 128.5,129C 124.297,130.753 121.963,133.92 121.5,138.5C 119.5,138.5 117.5,138.5 115.5,138.5C 115.634,140.292 115.301,141.958 114.5,143.5C 99.8333,143.5 85.1667,143.5 70.5,143.5C 68.3585,139.766 66.6918,135.766 65.5,131.5C 64.5224,131.023 63.6891,130.357 63,129.5C 64.4178,123.376 62.5845,117.876 57.5,113C 58.1667,112.667 58.8333,112.333 59.5,112C 58.6195,111.292 57.9528,110.458 57.5,109.5C 59.9229,109.576 61.7562,108.576 63,106.5C 64.8673,107.377 66.034,108.877 66.5,111C 69.4899,111.897 72.4899,112.731 75.5,113.5C 77.2831,116.673 78.7831,120.006 80,123.5C 83.2041,126.369 86.0374,129.535 88.5,133C 95.1667,133.667 101.833,133.667 108.5,133C 110.382,132.802 112.048,132.302 113.5,131.5 Z"/></g>
<g><path style="opacity:1" fill="#3c1c10" d="M 49.5,107.5 C 49.4208,108.93 49.7542,110.264 50.5,111.5C 49.0391,122.141 47.7057,132.808 46.5,143.5C 45.5,143.5 44.5,143.5 43.5,143.5C 43.7471,140.061 43.4137,136.728 42.5,133.5C 42.5,133.167 42.5,132.833 42.5,132.5C 43.6497,126.689 44.483,120.689 45,114.5C 47.5048,112.721 49.0048,110.388 49.5,107.5 Z"/></g>
<g><path style="opacity:1" fill="#40301d" d="M 141.5,107.5 C 140.723,119.493 140.056,131.493 139.5,143.5C 133.5,143.5 127.5,143.5 121.5,143.5C 122.508,141.661 124.008,140.328 126,139.5C 127.751,137.51 128.751,135.177 129,132.5C 136.133,125.57 140.3,117.237 141.5,107.5 Z"/></g>
<g><path style="opacity:1" fill="#5d2714" d="M 42.5,133.5 C 43.4137,136.728 43.7471,140.061 43.5,143.5C 39.8333,143.5 36.1667,143.5 32.5,143.5C 33.1986,137.6 34.1986,137.266 35.5,142.5C 36.5,142.5 37.5,142.5 38.5,142.5C 38.1924,140.076 38.5258,137.743 39.5,135.5C 40.2652,134.388 41.2652,133.721 42.5,133.5 Z"/></g>
<g><path style="opacity:1" fill="#67641b" d="M 30.5,131.5 C 30.2322,133.099 30.5655,134.432 31.5,135.5C 31.477,137.927 30.977,140.26 30,142.5C 28.583,141.922 27.7496,140.922 27.5,139.5C 27.5,138.833 27.5,138.167 27.5,137.5C 28.5,135.5 29.5,133.5 30.5,131.5 Z"/></g>
<g><path style="opacity:1" fill="#4b3a24" d="M 185.5,100.5 C 187.411,103.439 189.411,106.439 191.5,109.5C 191.215,119.903 187.548,128.736 180.5,136C 176.41,138.429 172.077,140.929 167.5,143.5C 158.833,143.5 150.167,143.5 141.5,143.5C 141.658,141.179 142.658,139.346 144.5,138C 143.978,137.439 143.645,136.772 143.5,136C 144.955,133.752 145.788,131.252 146,128.5C 148.65,127.282 151.15,127.615 153.5,129.5C 152.533,138.321 155.033,139.987 161,134.5C 163.917,136.393 167.084,136.893 170.5,136C 171.13,134.108 172.13,132.441 173.5,131C 177.244,128.045 181.078,125.211 185,122.5C 186.461,119.321 187.295,115.988 187.5,112.5C 187.667,108.33 187,104.33 185.5,100.5 Z"/></g>
</svg>
