<?xml version="1.0" encoding="UTF-8"?>
<!DOCTYPE svg PUBLIC "-//W3C//DTD SVG 1.1//EN" "http://www.w3.org/Graphics/SVG/1.1/DTD/svg11.dtd">
<svg xmlns="http://www.w3.org/2000/svg" version="1.1" width="256px" height="144px" style="shape-rendering:geometricPrecision; text-rendering:geometricPrecision; image-rendering:optimizeQuality; fill-rule:evenodd; clip-rule:evenodd" xmlns:xlink="http://www.w3.org/1999/xlink">
<g><path style="opacity:1" fill="#0d0000" d="M -0.5,-0.5 C 14.1667,-0.5 28.8333,-0.5 43.5,-0.5C 43.0193,2.4552 41.5193,4.78853 39,6.5C 38.6667,6.16667 38.3333,5.83333 38,5.5C 36.3382,11.1743 33.0049,15.5076 28,18.5C 25.7813,22.2707 24.1146,26.2707 23,30.5C 18.8428,34.073 16.0095,39.073 14.5,45.5C 13.1266,45.3433 11.7932,45.51 10.5,46C 9.25895,48.5628 7.92562,51.0628 6.5,53.5C 3.7314,53.0398 1.39807,54.0398 -0.5,56.5C -0.5,37.5 -0.5,18.5 -0.5,-0.5 Z"/></g>
<g><path style="opacity:1" fill="#150000" d="M 43.5,-0.5 C 46.8333,-0.5 50.1667,-0.5 53.5,-0.5C 53.2882,1.38411 52.2882,2.71745 50.5,3.5C 48.3448,3.16197 46.0115,3.16197 43.5,3.5C 43.9634,7.82839 43.1301,11.8284 41,15.5C 38.746,19.0066 36.746,22.6733 35,26.5C 31.5807,28.0652 29.5807,30.7318 29,34.5C 23.5974,38.0721 20.4307,43.0721 19.5,49.5C 18.7579,50.2868 17.9246,50.9535 17,51.5C 16.2825,50.5494 15.4491,50.3828 14.5,51C 13.9149,54.0055 12.2483,56.1722 9.5,57.5C 8.14638,60.7685 6.97971,64.1019 6,67.5C 4.38288,66.1487 3.21622,64.482 2.5,62.5C 1.14077,63.6243 0.140772,64.9577 -0.5,66.5C -0.5,63.1667 -0.5,59.8333 -0.5,56.5C 1.39807,54.0398 3.7314,53.0398 6.5,53.5C 7.92562,51.0628 9.25895,48.5628 10.5,46C 11.7932,45.51 13.1266,45.3433 14.5,45.5C 16.0095,39.073 18.8428,34.073 23,30.5C 24.1146,26.2707 25.7813,22.2707 28,18.5C 33.0049,15.5076 36.3382,11.1743 38,5.5C 38.3333,5.83333 38.6667,6.16667 39,6.5C 41.5193,4.78853 43.0193,2.4552 43.5,-0.5 Z"/></g>
<g><path style="opacity:1" fill="#1c0101" d="M 53.5,-0.5 C 55.1667,-0.5 56.8333,-0.5 58.5,-0.5C 58.2729,3.14487 56.7729,6.14487 54,8.5C 52.7246,10.7173 51.7246,13.0506 51,15.5C 50.3333,16.8333 49.6667,16.8333 49,15.5C 47.4291,19.731 45.4291,23.731 43,27.5C 38.6147,33.0983 34.6147,38.4317 31,43.5C 29.8739,46.7699 29.7072,49.6032 30.5,52C 29.7924,54.7676 28.2924,55.6009 26,54.5C 25.3333,55.1667 24.6667,55.8333 24,56.5C 22.6012,56.4988 21.1012,56.1654 19.5,55.5C 15.7031,60.3381 12.8698,65.3381 11,70.5C 6.28018,74.0529 2.44685,78.3862 -0.5,83.5C -0.5,77.8333 -0.5,72.1667 -0.5,66.5C 0.140772,64.9577 1.14077,63.6243 2.5,62.5C 3.21622,64.482 4.38288,66.1487 6,67.5C 6.97971,64.1019 8.14638,60.7685 9.5,57.5C 12.2483,56.1722 13.9149,54.0055 14.5,51C 15.4491,50.3828 16.2825,50.5494 17,51.5C 17.9246,50.9535 18.7579,50.2868 19.5,49.5C 20.4307,43.0721 23.5974,38.0721 29,34.5C 29.5807,30.7318 31.5807,28.0652 35,26.5C 36.746,22.6733 38.746,19.0066 41,15.5C 43.1301,11.8284 43.9634,7.82839 43.5,3.5C 46.0115,3.16197 48.3448,3.16197 50.5,3.5C 52.2882,2.71745 53.2882,1.38411 53.5,-0.5 Z"/></g>
<g><path style="opacity:1" fill="#230101" d="M 58.5,-0.5 C 60.5,-0.5 62.5,-0.5 64.5,-0.5C 64.7512,1.17028 65.4178,2.67028 66.5,4C 65.8971,5.82541 65.2304,7.65874 64.5,9.5C 63.1521,7.53873 61.8187,7.37206 60.5,9C 63.7063,11.8891 63.7063,14.3891 60.5,16.5C 61.3256,17.451 61.4922,18.451 61,19.5C 60.0805,19.0698 59.2472,18.7365 58.5,18.5C 59.4974,16.1891 59.9974,13.8557 60,11.5C 55.0308,18.3019 49.5308,24.6353 43.5,30.5C 42.0562,36.3776 39.2228,41.3776 35,45.5C 33.207,50.7808 30.207,55.1141 26,58.5C 25.0741,63.0213 23.5741,67.3547 21.5,71.5C 19.5101,72.8732 17.3434,73.8732 15,74.5C 13.6378,77.2356 11.8044,79.5689 9.5,81.5C 8.16667,82.8333 8.16667,84.1667 9.5,85.5C 8.0622,88.8229 6.22887,89.1562 4,86.5C 2.78646,92.035 1.28646,97.3683 -0.5,102.5C -0.5,96.1667 -0.5,89.8333 -0.5,83.5C 2.44685,78.3862 6.28018,74.0529 11,70.5C 12.8698,65.3381 15.7031,60.3381 19.5,55.5C 21.1012,56.1654 22.6012,56.4988 24,56.5C 24.6667,55.8333 25.3333,55.1667 26,54.5C 28.2924,55.6009 29.7924,54.7676 30.5,52C 29.7072,49.6032 29.8739,46.7699 31,43.5C 34.6147,38.4317 38.6147,33.0983 43,27.5C 45.4291,23.731 47.4291,19.731 49,15.5C 49.6667,16.8333 50.3333,16.8333 51,15.5C 51.7246,13.0506 52.7246,10.7173 54,8.5C 56.7729,6.14487 58.2729,3.14487 58.5,-0.5 Z"/></g>
<g><path style="opacity:1" fill="#280202" d="M 64.5,-0.5 C 66.1667,-0.5 67.8333,-0.5 69.5,-0.5C 70.1667,0.833333 70.8333,2.16667 71.5,3.5C 71.5,5.5 71.5,7.5 71.5,9.5C 68.7532,12.955 67.4198,16.955 67.5,21.5C 67.9321,24.8774 67.2655,27.8774 65.5,30.5C 65.5,29.5 65.5,28.5 65.5,27.5C 66.6378,24.6965 66.8045,21.6965 66,18.5C 60.6207,22.212 56.2873,26.8787 53,32.5C 52.1751,30.2992 52.6751,28.4659 54.5,27C 53.5509,26.3828 52.7175,26.5494 52,27.5C 50.485,30.1767 49.985,32.8434 50.5,35.5C 49.0137,39.1793 46.6803,41.346 43.5,42C 43.8333,42.3333 44.1667,42.6667 44.5,43C 40.5417,49.4835 37.375,55.3169 35,60.5C 33.1523,63.4785 31.1523,63.8118 29,61.5C 29.5896,64.9266 28.9229,68.2599 27,71.5C 22.7259,73.7774 18.7259,76.4441 15,79.5C 13.3771,86.6185 11.3771,93.6185 9,100.5C 6.95673,102.967 4.79006,102.967 2.5,100.5C 1.0982,104.162 0.0981979,107.829 -0.5,111.5C -0.5,108.5 -0.5,105.5 -0.5,102.5C 1.28646,97.3683 2.78646,92.035 4,86.5C 6.22887,89.1562 8.0622,88.8229 9.5,85.5C 8.16667,84.1667 8.16667,82.8333 9.5,81.5C 11.8044,79.5689 13.6378,77.2356 15,74.5C 17.3434,73.8732 19.5101,72.8732 21.5,71.5C 23.5741,67.3547 25.0741,63.0213 26,58.5C 30.207,55.1141 33.207,50.7808 35,45.5C 39.2228,41.3776 42.0562,36.3776 43.5,30.5C 49.5308,24.6353 55.0308,18.3019 60,11.5C 59.9974,13.8557 59.4974,16.1891 58.5,18.5C 59.2472,18.7365 60.0805,19.0698 61,19.5C 61.4922,18.451 61.3256,17.451 60.5,16.5C 63.7063,14.3891 63.7063,11.8891 60.5,9C 61.8187,7.37206 63.1521,7.53873 64.5,9.5C 65.2304,7.65874 65.8971,5.82541 66.5,4C 65.4178,2.67028 64.7512,1.17028 64.5,-0.5 Z"/></g>
<g><path style="opacity:1" fill="#1c0303" d="M 194.5,-0.5 C 199.167,-0.5 203.833,-0.5 208.5,-0.5C 210.601,6.36901 213.768,12.7023 218,18.5C 226.619,30.1213 235.619,41.4546 245,52.5C 246.624,58.4492 250.124,62.7825 255.5,65.5C 255.5,68.1667 255.5,70.8333 255.5,73.5C 249.286,70.2895 243.953,65.9562 239.5,60.5C 240.376,59.7492 241.376,59.2492 242.5,59C 235.684,51.4395 228.684,44.1062 221.5,37C 221.833,36.6667 222.167,36.3333 222.5,36C 221.584,35.6258 220.75,35.1258 220,34.5C 218.76,31.588 217.094,28.9213 215,26.5C 212,24.8333 209.667,22.5 208,19.5C 207.667,19.8333 207.333,20.1667 207,20.5C 205.3,16.9922 203.967,12.9922 203,8.5C 198.587,6.92187 195.753,3.92187 194.5,-0.5 Z"/></g>
<g><path style="opacity:1" fill="#150202" d="M 208.5,-0.5 C 212.167,-0.5 215.833,-0.5 219.5,-0.5C 219.309,5.43294 220.476,11.0996 223,16.5C 228.502,19.9933 232.502,24.6599 235,30.5C 236.479,33.3046 238.312,35.8046 240.5,38C 240.167,38.3333 239.833,38.6667 239.5,39C 243.091,42.7994 247.091,46.1327 251.5,49C 249.842,49.7253 249.342,50.892 250,52.5C 250.561,51.9781 251.228,51.6448 252,51.5C 253.174,52.5442 254.341,53.5442 255.5,54.5C 255.5,58.1667 255.5,61.8333 255.5,65.5C 250.124,62.7825 246.624,58.4492 245,52.5C 235.619,41.4546 226.619,30.1213 218,18.5C 213.768,12.7023 210.601,6.36901 208.5,-0.5 Z"/></g>
<g><path style="opacity:1" fill="#0f0202" d="M 219.5,-0.5 C 222.5,-0.5 225.5,-0.5 228.5,-0.5C 228.351,2.96534 230.018,4.96534 233.5,5.5C 236.661,9.03506 237.494,12.7017 236,16.5C 236.833,17.3333 237.667,18.1667 238.5,19C 241.167,19.3333 243.833,19.6667 246.5,20C 246.167,20.3333 245.833,20.6667 245.5,21C 247.027,23.4385 249.027,25.4385 251.5,27C 251.167,27.3333 250.833,27.6667 250.5,28C 251.563,29.1882 252.897,29.6882 254.5,29.5C 254.216,27.5853 254.549,25.9187 255.5,24.5C 255.5,34.5 255.5,44.5 255.5,54.5C 254.341,53.5442 253.174,52.5442 252,51.5C 251.228,51.6448 250.561,51.9781 250,52.5C 249.342,50.892 249.842,49.7253 251.5,49C 247.091,46.1327 243.091,42.7994 239.5,39C 239.833,38.6667 240.167,38.3333 240.5,38C 238.312,35.8046 236.479,33.3046 235,30.5C 232.502,24.6599 228.502,19.9933 223,16.5C 220.476,11.0996 219.309,5.43294 219.5,-0.5 Z"/></g>
<g><path style="opacity:1" fill="#090101" d="M 228.5,-0.5 C 237.5,-0.5 246.5,-0.5 255.5,-0.5C 255.5,7.83333 255.5,16.1667 255.5,24.5C 254.549,25.9187 254.216,27.5853 254.5,29.5C 252.897,29.6882 251.563,29.1882 250.5,28C 250.833,27.6667 251.167,27.3333 251.5,27C 249.027,25.4385 247.027,23.4385 245.5,21C 245.833,20.6667 246.167,20.3333 246.5,20C 243.833,19.6667 241.167,19.3333 238.5,19C 237.667,18.1667 236.833,17.3333 236,16.5C 237.494,12.7017 236.661,9.03506 233.5,5.5C 230.018,4.96534 228.351,2.96534 228.5,-0.5 Z"/></g>
<g><path style="opacity:1" fill="#220404" d="M 185.5,-0.5 C 188.5,-0.5 191.5,-0.5 194.5,-0.5C 195.753,3.92187 198.587,6.92187 203,8.5C 203.967,12.9922 205.3,16.9922 207,20.5C 207.333,20.1667 207.667,19.8333 208,19.5C 209.667,22.5 212,24.8333 215,26.5C 217.094,28.9213 218.76,31.588 220,34.5C 220.75,35.1258 221.584,35.6258 222.5,36C 222.167,36.3333 221.833,36.6667 221.5,37C 228.684,44.1062 235.684,51.4395 242.5,59C 241.376,59.2492 240.376,59.7492 239.5,60.5C 243.953,65.9562 249.286,70.2895 255.5,73.5C 255.5,75.5 255.5,77.5 255.5,79.5C 252.916,77.611 250.416,76.2776 248,75.5C 243.978,70.9788 240.144,66.3121 236.5,61.5C 236.709,60.914 237.043,60.414 237.5,60C 232.677,54.8451 227.51,50.0117 222,45.5C 216.805,35.5997 210.805,26.9331 204,19.5C 202,18.1667 200,16.8333 198,15.5C 196.274,11.0469 194.274,6.71357 192,2.5C 189.529,5.72731 186.362,7.39398 182.5,7.5C 182.5,6.83333 182.5,6.16667 182.5,5.5C 183.471,3.5168 184.471,1.5168 185.5,-0.5 Z"/></g>
<g><path style="opacity:1" fill="#290505" d="M 255.5,79.5 C 255.5,82.5 255.5,85.5 255.5,88.5C 252.176,85.6765 249.01,82.6765 246,79.5C 240.717,67.885 232.884,58.385 222.5,51C 212.668,39.6557 203.335,27.8224 194.5,15.5C 193.017,17.9458 191.851,17.6124 191,14.5C 190.505,16.4727 190.338,18.4727 190.5,20.5C 189.493,19.1716 188.16,18.1716 186.5,17.5C 184.676,20.9679 183.676,24.6346 183.5,28.5C 183.5,29.1667 183.5,29.8333 183.5,30.5C 183.5,31.8333 183.5,33.1667 183.5,34.5C 183.5,35.8333 183.5,37.1667 183.5,38.5C 183.5,44.5 183.5,50.5 183.5,56.5C 183.167,56.5 182.833,56.5 182.5,56.5C 182.5,52.5 182.5,48.5 182.5,44.5C 182.91,33.2809 182.244,22.2809 180.5,11.5C 180.229,9.6203 180.896,8.28696 182.5,7.5C 186.362,7.39398 189.529,5.72731 192,2.5C 194.274,6.71357 196.274,11.0469 198,15.5C 200,16.8333 202,18.1667 204,19.5C 210.805,26.9331 216.805,35.5997 222,45.5C 227.51,50.0117 232.677,54.8451 237.5,60C 237.043,60.414 236.709,60.914 236.5,61.5C 240.144,66.3121 243.978,70.9788 248,75.5C 250.416,76.2776 252.916,77.611 255.5,79.5 Z"/></g>
<g><path style="opacity:1" fill="#c9bba6" d="M 100.5,-0.5 C 101.167,-0.5 101.833,-0.5 102.5,-0.5C 102.5,-0.166667 102.5,0.166667 102.5,0.5C 101.829,1.84714 101.829,3.01381 102.5,4C 98.2443,6.7229 98.5776,7.88956 103.5,7.5C 103.279,9.6636 102.279,11.3303 100.5,12.5C 99.1851,13.4756 97.8518,14.4756 96.5,15.5C 95.3744,14.1916 95.3744,12.8583 96.5,11.5C 97.404,10.791 97.7373,9.79105 97.5,8.5C 96.325,8.71901 95.325,8.38568 94.5,7.5C 96.9337,5.079 98.9337,2.41233 100.5,-0.5 Z"/></g>
<g><path style="opacity:1" fill="#242323" d="M 71.5,3.5 C 77.0558,8.93399 82.3891,14.6007 87.5,20.5C 87.5,20.8333 87.5,21.1667 87.5,21.5C 86.8826,21.6107 86.3826,21.944 86,22.5C 83.128,19.9634 80.628,17.1301 78.5,14C 76.2657,12.2502 73.9324,10.7502 71.5,9.5C 71.5,7.5 71.5,5.5 71.5,3.5 Z"/></g>
<g><path style="opacity:1" fill="#514845" d="M 164.5,10.5 C 161.43,10.3066 160.43,8.97325 161.5,6.5C 163.124,6.63993 164.29,5.97326 165,4.5C 165.833,5.33333 166.667,6.16667 167.5,7C 166.29,8.0391 165.29,9.20577 164.5,10.5 Z"/></g>
<g><path style="opacity:1" fill="#070809" d="M 102.5,0.5 C 102.5,0.166667 102.5,-0.166667 102.5,-0.5C 105.833,-0.5 109.167,-0.5 112.5,-0.5C 111.297,1.13989 110.464,2.80656 110,4.5C 112.034,7.90939 114.534,10.9094 117.5,13.5C 118.176,12.3984 118.842,11.3984 119.5,10.5C 120.248,12.7349 121.081,12.4016 122,9.5C 123.333,11.1667 124.667,12.8333 126,14.5C 126.511,12.1218 127.178,9.78849 128,7.5C 128.483,8.44802 128.649,9.44802 128.5,10.5C 129.833,10.5 131.167,10.5 132.5,10.5C 132.215,12.288 132.548,13.9547 133.5,15.5C 134.386,14.675 134.719,13.675 134.5,12.5C 135.167,11.8333 135.833,11.1667 136.5,10.5C 137.363,9.53705 138.03,9.53705 138.5,10.5C 136.95,14.172 137.45,14.8387 140,12.5C 142.726,8.3812 144.893,4.04786 146.5,-0.5C 147.833,-0.5 149.167,-0.5 150.5,-0.5C 150.5,-0.166667 150.5,0.166667 150.5,0.5C 148.5,3.5 146.5,6.5 144.5,9.5C 142.654,11.0301 141.654,13.0301 141.5,15.5C 140.833,15.5 140.5,15.8333 140.5,16.5C 139.599,17.2905 138.932,18.2905 138.5,19.5C 135.832,21.3355 133.666,23.6688 132,26.5C 131.692,25.6919 131.192,25.0253 130.5,24.5C 129.735,25.6119 128.735,26.2786 127.5,26.5C 127.631,25.7611 127.464,25.0944 127,24.5C 124.928,24.3389 122.761,24.6722 120.5,25.5C 119.833,24.5 119.167,23.5 118.5,22.5C 117.564,21.0256 116.23,20.0256 114.5,19.5C 114.672,18.5084 114.338,17.8417 113.5,17.5C 113.5,17.1667 113.5,16.8333 113.5,16.5C 112.455,13.4546 110.455,11.4546 107.5,10.5C 106.362,6.89113 104.696,3.55779 102.5,0.5 Z"/></g>
<g><path style="opacity:1" fill="#17252d" d="M 112.5,-0.5 C 123.833,-0.5 135.167,-0.5 146.5,-0.5C 144.893,4.04786 142.726,8.3812 140,12.5C 137.45,14.8387 136.95,14.172 138.5,10.5C 138.03,9.53705 137.363,9.53705 136.5,10.5C 137.492,7.22141 137.659,3.88808 137,0.5C 136.5,1 136,1.5 135.5,2C 129.509,2.49949 123.509,2.66615 117.5,2.5C 117.283,5.42058 117.949,8.08725 119.5,10.5C 118.842,11.3984 118.176,12.3984 117.5,13.5C 114.534,10.9094 112.034,7.90939 110,4.5C 110.464,2.80656 111.297,1.13989 112.5,-0.5 Z"/></g>
<g><path style="opacity:1" fill="#1a3646" d="M 136.5,10.5 C 135.833,11.1667 135.167,11.8333 134.5,12.5C 133.539,10.7354 133.205,8.73535 133.5,6.5C 129.143,6.58645 124.81,6.91979 120.5,7.5C 120.737,8.79105 120.404,9.79105 119.5,10.5C 117.949,8.08725 117.283,5.42058 117.5,2.5C 123.509,2.66615 129.509,2.49949 135.5,2C 136,1.5 136.5,1 137,0.5C 137.659,3.88808 137.492,7.22141 136.5,10.5 Z"/></g>
<g><path style="opacity:1" fill="#c4b7ac" d="M 150.5,0.5 C 154.313,1.63002 157.313,3.96335 159.5,7.5C 158.675,8.38568 157.675,8.71901 156.5,8.5C 156.585,10.9288 157.585,12.9288 159.5,14.5C 158.311,15.4287 156.978,15.762 155.5,15.5C 155.771,17.3797 155.104,18.713 153.5,19.5C 152.896,22.251 151.562,24.5844 149.5,26.5C 148.522,26.189 147.855,25.5223 147.5,24.5C 148.908,23.7568 150.241,22.9234 151.5,22C 149.208,20.7101 147.208,19.0435 145.5,17C 143.866,16.5065 142.199,16.3398 140.5,16.5C 140.5,15.8333 140.833,15.5 141.5,15.5C 142.978,15.762 144.311,15.4287 145.5,14.5C 144.691,12.9291 144.357,11.2624 144.5,9.5C 146.5,6.5 148.5,3.5 150.5,0.5 Z"/></g>
<g><path style="opacity:1" fill="#8b6f69" d="M 179.5,-0.5 C 181.5,-0.5 183.5,-0.5 185.5,-0.5C 184.471,1.5168 183.471,3.5168 182.5,5.5C 177.554,8.62294 173.554,12.6229 170.5,17.5C 165.403,16.6009 165.236,14.9342 170,12.5C 170.74,11.2506 170.573,10.2506 169.5,9.5C 173.194,6.47289 176.527,3.13956 179.5,-0.5 Z"/></g>
<g><path style="opacity:1" fill="#89766d" d="M 69.5,-0.5 C 71.1667,-0.5 72.8333,-0.5 74.5,-0.5C 74.5,0.166667 74.5,0.833333 74.5,1.5C 76.5691,4.57253 79.2358,6.90587 82.5,8.5C 85.147,10.8109 87.8136,13.1442 90.5,15.5C 90.8333,14.8333 91.1667,14.1667 91.5,13.5C 90.1565,11.4714 88.8231,9.4714 87.5,7.5C 87.9867,6.52656 88.4867,5.52656 89,4.5C 90.1531,6.49703 91.6531,6.83036 93.5,5.5C 94.3467,4.15516 95.5134,3.15516 97,2.5C 97.4828,1.55198 97.6495,0.551975 97.5,-0.5C 98.5,-0.5 99.5,-0.5 100.5,-0.5C 98.9337,2.41233 96.9337,5.079 94.5,7.5C 95.325,8.38568 96.325,8.71901 97.5,8.5C 97.7373,9.79105 97.404,10.791 96.5,11.5C 96.1034,10.475 95.4368,10.3083 94.5,11C 93.5697,12.1939 92.9031,13.5272 92.5,15C 93.5767,17.148 94.91,19.148 96.5,21C 96.4301,21.7648 96.0967,22.2648 95.5,22.5C 94.5416,22.0472 93.7083,21.3805 93,20.5C 92.6121,21.428 91.9454,22.0946 91,22.5C 89.9231,21.5705 88.7564,20.9038 87.5,20.5C 82.3891,14.6007 77.0558,8.93399 71.5,3.5C 70.8333,2.16667 70.1667,0.833333 69.5,-0.5 Z"/></g>
<g><path style="opacity:1" fill="#b3ad9b" d="M 74.5,-0.5 C 75.8333,-0.5 77.1667,-0.5 78.5,-0.5C 80.5,1.16667 82.5,2.83333 84.5,4.5C 84.8102,6.14363 85.8102,7.14363 87.5,7.5C 88.8231,9.4714 90.1565,11.4714 91.5,13.5C 91.1667,14.1667 90.8333,14.8333 90.5,15.5C 87.8136,13.1442 85.147,10.8109 82.5,8.5C 80.7993,5.13683 78.1327,2.8035 74.5,1.5C 74.5,0.833333 74.5,0.166667 74.5,-0.5 Z"/></g>
<g><path style="opacity:1" fill="#69695f" d="M 74.5,1.5 C 78.1327,2.8035 80.7993,5.13683 82.5,8.5C 79.2358,6.90587 76.5691,4.57253 74.5,1.5 Z"/></g>
<g><path style="opacity:1" fill="#988e79" d="M 88.5,-0.5 C 91.5,-0.5 94.5,-0.5 97.5,-0.5C 97.6495,0.551975 97.4828,1.55198 97,2.5C 95.5134,3.15516 94.3467,4.15516 93.5,5.5C 91.6531,6.83036 90.1531,6.49703 89,4.5C 88.4867,5.52656 87.9867,6.52656 87.5,7.5C 85.8102,7.14363 84.8102,6.14363 84.5,4.5C 86.8764,3.79393 88.2097,2.12727 88.5,-0.5 Z"/></g>
<g><path style="opacity:1" fill="#67675c" d="M 78.5,-0.5 C 81.8333,-0.5 85.1667,-0.5 88.5,-0.5C 88.2097,2.12727 86.8764,3.79393 84.5,4.5C 82.5,2.83333 80.5,1.16667 78.5,-0.5 Z"/></g>
<g><path style="opacity:1" fill="#a79888" d="M 155.5,-0.5 C 158.833,-0.5 162.167,-0.5 165.5,-0.5C 166.757,1.42215 167.923,3.42215 169,5.5C 171.063,3.26589 173.229,1.26589 175.5,-0.5C 176.833,-0.5 178.167,-0.5 179.5,-0.5C 176.527,3.13956 173.194,6.47289 169.5,9.5C 167.567,11.9374 165.4,14.2707 163,16.5C 162.51,17.7932 162.343,19.1266 162.5,20.5C 160.857,20.4802 159.524,21.1468 158.5,22.5C 158.167,22 157.833,21.5 157.5,21C 159.369,18.6315 161.036,16.1315 162.5,13.5C 162.291,12.914 161.957,12.414 161.5,12C 162.737,11.7679 163.737,11.2679 164.5,10.5C 165.29,9.20577 166.29,8.0391 167.5,7C 166.667,6.16667 165.833,5.33333 165,4.5C 164.29,5.97326 163.124,6.63993 161.5,6.5C 159.374,4.146 157.374,1.81266 155.5,-0.5 Z"/></g>
<g><path style="opacity:1" fill="#6e665e" d="M 165.5,-0.5 C 168.833,-0.5 172.167,-0.5 175.5,-0.5C 173.229,1.26589 171.063,3.26589 169,5.5C 167.923,3.42215 166.757,1.42215 165.5,-0.5 Z"/></g>
<g><path style="opacity:1" fill="#101d25" d="M 134.5,12.5 C 134.719,13.675 134.386,14.675 133.5,15.5C 132.548,13.9547 132.215,12.288 132.5,10.5C 131.167,10.5 129.833,10.5 128.5,10.5C 128.649,9.44802 128.483,8.44802 128,7.5C 127.178,9.78849 126.511,12.1218 126,14.5C 124.667,12.8333 123.333,11.1667 122,9.5C 121.081,12.4016 120.248,12.7349 119.5,10.5C 120.404,9.79105 120.737,8.79105 120.5,7.5C 124.81,6.91979 129.143,6.58645 133.5,6.5C 133.205,8.73535 133.539,10.7354 134.5,12.5 Z"/></g>
<g><path style="opacity:1" fill="#6b5b61" d="M 144.5,9.5 C 144.357,11.2624 144.691,12.9291 145.5,14.5C 144.311,15.4287 142.978,15.762 141.5,15.5C 141.654,13.0301 142.654,11.0301 144.5,9.5 Z"/></g>
<g><path style="opacity:1" fill="#7b6c6e" d="M 107.5,10.5 C 110.455,11.4546 112.455,13.4546 113.5,16.5C 111.805,15.9886 110.139,15.3219 108.5,14.5C 109.789,12.7807 109.455,11.4474 107.5,10.5 Z"/></g>
<g><path style="opacity:1" fill="#300404" d="M 255.5,88.5 C 255.5,103.833 255.5,119.167 255.5,134.5C 254.833,133.5 254.167,132.5 253.5,131.5C 252.756,127.447 251.756,123.447 250.5,119.5C 249.534,121.396 249.201,123.396 249.5,125.5C 249.5,126.167 249.167,126.5 248.5,126.5C 248.279,123.933 247.612,121.599 246.5,119.5C 246.768,117.901 246.434,116.568 245.5,115.5C 245.233,113.035 244.566,110.701 243.5,108.5C 243.5,107.833 243.5,107.167 243.5,106.5C 244.496,106.586 245.329,106.252 246,105.5C 246.689,106.357 247.522,107.023 248.5,107.5C 249.598,105.368 250.598,103.202 251.5,101C 250.328,100.581 249.328,99.9147 248.5,99C 248.658,95.7121 248.658,92.2121 248.5,88.5C 247.325,88.719 246.325,88.3857 245.5,87.5C 240.748,78.9917 235.748,70.6583 230.5,62.5C 223.185,57.8258 217.352,51.1591 213,42.5C 205.551,34.8821 198.051,27.5487 190.5,20.5C 190.338,18.4727 190.505,16.4727 191,14.5C 191.851,17.6124 193.017,17.9458 194.5,15.5C 203.335,27.8224 212.668,39.6557 222.5,51C 232.884,58.385 240.717,67.885 246,79.5C 249.01,82.6765 252.176,85.6765 255.5,88.5 Z"/></g>
<g><path style="opacity:1" fill="#bcaea6" d="M 102.5,0.5 C 104.696,3.55779 106.362,6.89113 107.5,10.5C 109.455,11.4474 109.789,12.7807 108.5,14.5C 110.139,15.3219 111.805,15.9886 113.5,16.5C 113.5,16.8333 113.5,17.1667 113.5,17.5C 111.73,18.764 110.063,20.264 108.5,22C 106.19,22.4966 103.857,22.6633 101.5,22.5C 100.781,20.9087 99.7811,19.4087 98.5,18C 99.4939,16.6713 100.494,15.338 101.5,14C 101.43,13.2352 101.097,12.7352 100.5,12.5C 102.279,11.3303 103.279,9.6636 103.5,7.5C 98.5776,7.88956 98.2443,6.7229 102.5,4C 101.829,3.01381 101.829,1.84714 102.5,0.5 Z"/></g>
<g><path style="opacity:1" fill="#300303" d="M 65.5,27.5 C 64.0454,28.4073 62.3787,29.9073 60.5,32C 56.9531,32.737 54.1198,34.5703 52,37.5C 49.542,44.9318 45.7087,51.4318 40.5,57C 41.2797,58.073 41.113,59.2396 40,60.5C 37.961,62.8745 35.6277,64.8745 33,66.5C 30,71.5 27,76.5 24,81.5C 22.6667,82.1667 21.3333,82.8333 20,83.5C 18.8476,88.2747 17.0143,92.7747 14.5,97C 15.0442,97.7172 15.7109,98.2172 16.5,98.5C 16.1667,99.8333 15.8333,101.167 15.5,102.5C 13.7497,103.659 12.7497,105.326 12.5,107.5C 10.9049,110.285 9.90487,113.285 9.5,116.5C 8.56552,117.568 8.23219,118.901 8.5,120.5C 7.2318,122.905 6.56513,125.572 6.5,128.5C 5.83333,128.5 5.16667,128.5 4.5,128.5C 5.6435,125.498 5.6435,122.498 4.5,119.5C 3.37355,123.798 2.37355,128.131 1.5,132.5C 1.54272,133.416 1.87605,134.083 2.5,134.5C 1.59748,137.391 1.26414,140.391 1.5,143.5C 0.833333,143.5 0.166667,143.5 -0.5,143.5C -0.5,132.833 -0.5,122.167 -0.5,111.5C 0.0981979,107.829 1.0982,104.162 2.5,100.5C 4.79006,102.967 6.95673,102.967 9,100.5C 11.3771,93.6185 13.3771,86.6185 15,79.5C 18.7259,76.4441 22.7259,73.7774 27,71.5C 28.9229,68.2599 29.5896,64.9266 29,61.5C 31.1523,63.8118 33.1523,63.4785 35,60.5C 37.375,55.3169 40.5417,49.4835 44.5,43C 44.1667,42.6667 43.8333,42.3333 43.5,42C 46.6803,41.346 49.0137,39.1793 50.5,35.5C 49.985,32.8434 50.485,30.1767 52,27.5C 52.7175,26.5494 53.5509,26.3828 54.5,27C 52.6751,28.4659 52.1751,30.2992 53,32.5C 56.2873,26.8787 60.6207,22.212 66,18.5C 66.8045,21.6965 66.6378,24.6965 65.5,27.5 Z"/></g>
<g><path style="opacity:1" fill="#6f5e5c" d="M 96.5,11.5 C 95.3744,12.8583 95.3744,14.1916 96.5,15.5C 97.8518,14.4756 99.1851,13.4756 100.5,12.5C 101.097,12.7352 101.43,13.2352 101.5,14C 100.494,15.338 99.4939,16.6713 98.5,18C 99.7811,19.4087 100.781,20.9087 101.5,22.5C 103.69,23.9293 105.024,25.9293 105.5,28.5C 106.614,30.3531 105.948,30.8531 103.5,30C 101.978,28.4782 100.478,26.9782 99,25.5C 97.9701,25.8361 97.4701,26.5028 97.5,27.5C 96.4625,26.0697 95.7959,24.403 95.5,22.5C 96.0967,22.2648 96.4301,21.7648 96.5,21C 94.91,19.148 93.5767,17.148 92.5,15C 92.9031,13.5272 93.5697,12.1939 94.5,11C 95.4368,10.3083 96.1034,10.475 96.5,11.5 Z"/></g>
<g><path style="opacity:1" fill="#350404" d="M 190.5,20.5 C 198.051,27.5487 205.551,34.8821 213,42.5C 217.352,51.1591 223.185,57.8258 230.5,62.5C 235.748,70.6583 240.748,78.9917 245.5,87.5C 246.325,88.3857 247.325,88.719 248.5,88.5C 248.658,92.2121 248.658,95.7121 248.5,99C 249.328,99.9147 250.328,100.581 251.5,101C 250.598,103.202 249.598,105.368 248.5,107.5C 247.522,107.023 246.689,106.357 246,105.5C 245.329,106.252 244.496,106.586 243.5,106.5C 242.512,105.205 241.512,103.872 240.5,102.5C 238.238,97.9103 235.238,93.9103 231.5,90.5C 233.865,88.4735 236.531,86.8068 239.5,85.5C 237.641,81.8165 234.807,79.1499 231,77.5C 229.415,73.6948 228.082,70.0281 227,66.5C 224.263,67.4677 222.263,66.4677 221,63.5C 220.348,58.531 218.348,54.1977 215,50.5C 204.935,42.092 195.268,33.4253 186,24.5C 185.8,26.3197 184.966,27.653 183.5,28.5C 183.676,24.6346 184.676,20.9679 186.5,17.5C 188.16,18.1716 189.493,19.1716 190.5,20.5 Z"/></g>
<g><path style="opacity:1" fill="#635855" d="M 150.5,0.5 C 150.5,0.166667 150.5,-0.166667 150.5,-0.5C 152.167,-0.5 153.833,-0.5 155.5,-0.5C 157.374,1.81266 159.374,4.146 161.5,6.5C 160.43,8.97325 161.43,10.3066 164.5,10.5C 163.737,11.2679 162.737,11.7679 161.5,12C 161.957,12.414 162.291,12.914 162.5,13.5C 161.036,16.1315 159.369,18.6315 157.5,21C 157.833,21.5 158.167,22 158.5,22.5C 159.524,21.1468 160.857,20.4802 162.5,20.5C 162.343,19.1266 162.51,17.7932 163,16.5C 165.4,14.2707 167.567,11.9374 169.5,9.5C 170.573,10.2506 170.74,11.2506 170,12.5C 165.236,14.9342 165.403,16.6009 170.5,17.5C 170.107,19.2838 169.441,20.9505 168.5,22.5C 167.883,22.3893 167.383,22.056 167,21.5C 165.833,23.3333 164.333,24.8333 162.5,26C 163.022,26.5613 163.355,27.228 163.5,28C 162.27,30.1477 161.27,32.3144 160.5,34.5C 157.858,31.8082 156.858,28.4749 157.5,24.5C 154.09,24.6162 152.756,22.9496 153.5,19.5C 155.104,18.713 155.771,17.3797 155.5,15.5C 156.978,15.762 158.311,15.4287 159.5,14.5C 157.585,12.9288 156.585,10.9288 156.5,8.5C 157.675,8.71901 158.675,8.38568 159.5,7.5C 157.313,3.96335 154.313,1.63002 150.5,0.5 Z"/></g>
<g><path style="opacity:1" fill="#494547" d="M 87.5,21.5 C 87.5,21.1667 87.5,20.8333 87.5,20.5C 88.7564,20.9038 89.9231,21.5705 91,22.5C 91.9454,22.0946 92.6121,21.428 93,20.5C 93.7083,21.3805 94.5416,22.0472 95.5,22.5C 95.7959,24.403 96.4625,26.0697 97.5,27.5C 97.5,28.8333 97.5,30.1667 97.5,31.5C 96.0878,32.1656 94.7545,32.4989 93.5,32.5C 93.1667,32.5 92.8333,32.5 92.5,32.5C 92.7852,30.712 92.4519,29.0453 91.5,27.5C 89.9833,25.6035 88.6499,23.6035 87.5,21.5 Z"/></g>
<g><path style="opacity:1" fill="#340101" d="M 65.5,27.5 C 65.5,28.5 65.5,29.5 65.5,30.5C 65.5,33.1667 65.5,35.8333 65.5,38.5C 64.7784,38.0825 64.2784,37.4158 64,36.5C 55.8468,45.4626 49.1801,55.4626 44,66.5C 39.8672,69.6311 36.0338,73.1311 32.5,77C 31.2341,77.3095 30.0674,77.8095 29,78.5C 26.8811,82.4023 25.0477,86.4023 23.5,90.5C 21.4525,92.5496 19.7859,94.883 18.5,97.5C 17.8333,97.8333 17.1667,98.1667 16.5,98.5C 15.7109,98.2172 15.0442,97.7172 14.5,97C 17.0143,92.7747 18.8476,88.2747 20,83.5C 21.3333,82.8333 22.6667,82.1667 24,81.5C 27,76.5 30,71.5 33,66.5C 35.6277,64.8745 37.961,62.8745 40,60.5C 41.113,59.2396 41.2797,58.073 40.5,57C 45.7087,51.4318 49.542,44.9318 52,37.5C 54.1198,34.5703 56.9531,32.737 60.5,32C 62.3787,29.9073 64.0454,28.4073 65.5,27.5 Z"/></g>
<g><path style="opacity:1" fill="#6c292c" d="M 178.5,19.5 C 179.043,19.56 179.376,19.8933 179.5,20.5C 177.594,23.64 176.26,26.9734 175.5,30.5C 174.625,32.5681 173.459,34.5681 172,36.5C 171.536,35.9056 171.369,35.2389 171.5,34.5C 173.562,29.3752 175.896,24.3752 178.5,19.5 Z"/></g>
<g><path style="opacity:1" fill="#b3bdc3" d="M 113.5,17.5 C 114.338,17.8417 114.672,18.5084 114.5,19.5C 114.5,20.8333 114.5,22.1667 114.5,23.5C 115.959,23.5674 117.292,23.2341 118.5,22.5C 119.167,23.5 119.833,24.5 120.5,25.5C 120.866,26.6946 121.699,27.3613 123,27.5C 124.44,26.8524 125.94,26.5191 127.5,26.5C 128.735,26.2786 129.735,25.6119 130.5,24.5C 131.192,25.0253 131.692,25.6919 132,26.5C 133.666,23.6688 135.832,21.3355 138.5,19.5C 138.539,20.5832 138.873,21.5832 139.5,22.5C 138.167,23.1667 136.833,23.8333 135.5,24.5C 135.709,25.086 136.043,25.586 136.5,26C 135.008,27.9912 134.008,30.1578 133.5,32.5C 132.53,31.3707 131.364,30.3707 130,29.5C 128.174,30.0104 128.007,30.8438 129.5,32C 126.007,31.18 124.84,32.68 126,36.5C 127.062,39.0643 128.896,40.731 131.5,41.5C 133.538,40.3655 135.538,40.3655 137.5,41.5C 138.562,40.5754 138.562,39.5754 137.5,38.5C 137.56,37.9569 137.893,37.6236 138.5,37.5C 141.761,39.4549 144.761,39.4549 147.5,37.5C 147.5,38.1667 147.833,38.5 148.5,38.5C 147.585,40.7541 146.252,42.7541 144.5,44.5C 145.325,45.3857 146.325,45.719 147.5,45.5C 147.167,46.1667 146.833,46.8333 146.5,47.5C 144.589,48.075 142.922,49.075 141.5,50.5C 139.533,50.2606 137.699,50.5939 136,51.5C 135.5,50.5 135,49.5 134.5,48.5C 130.811,46.4853 127.311,44.152 124,41.5C 120.24,42.3575 116.406,42.3575 112.5,41.5C 113.091,40.8485 113.757,40.1818 114.5,39.5C 110.251,36.0896 110.585,33.2563 115.5,31C 114.101,30.4054 112.768,30.5721 111.5,31.5C 110.049,29.4411 108.049,28.4411 105.5,28.5C 105.024,25.9293 103.69,23.9293 101.5,22.5C 103.857,22.6633 106.19,22.4966 108.5,22C 110.063,20.264 111.73,18.764 113.5,17.5 Z"/></g>
<g><path style="opacity:1" fill="#6a717b" d="M 127.5,26.5 C 125.94,26.5191 124.44,26.8524 123,27.5C 121.699,27.3613 120.866,26.6946 120.5,25.5C 122.761,24.6722 124.928,24.3389 127,24.5C 127.464,25.0944 127.631,25.7611 127.5,26.5 Z"/></g>
<g><path style="opacity:1" fill="#716977" d="M 114.5,19.5 C 116.23,20.0256 117.564,21.0256 118.5,22.5C 117.292,23.2341 115.959,23.5674 114.5,23.5C 114.5,22.1667 114.5,20.8333 114.5,19.5 Z"/></g>
<g><path style="opacity:1" fill="#c9c3c4" d="M 140.5,16.5 C 142.199,16.3398 143.866,16.5065 145.5,17C 147.208,19.0435 149.208,20.7101 151.5,22C 150.241,22.9234 148.908,23.7568 147.5,24.5C 147.855,25.5223 148.522,26.189 149.5,26.5C 148.77,28.045 147.437,28.8784 145.5,29C 146.946,31.4932 146.279,33.3265 143.5,34.5C 144,34.8333 144.5,35.1667 145,35.5C 149.49,32.4825 150.323,33.1492 147.5,37.5C 144.761,39.4549 141.761,39.4549 138.5,37.5C 137.893,37.6236 137.56,37.9569 137.5,38.5C 135.262,37.1473 133.929,35.1473 133.5,32.5C 134.008,30.1578 135.008,27.9912 136.5,26C 136.043,25.586 135.709,25.086 135.5,24.5C 136.833,23.8333 138.167,23.1667 139.5,22.5C 138.873,21.5832 138.539,20.5832 138.5,19.5C 138.932,18.2905 139.599,17.2905 140.5,16.5 Z"/></g>
<g><path style="opacity:1" fill="#aca39f" d="M 153.5,19.5 C 152.756,22.9496 154.09,24.6162 157.5,24.5C 156.858,28.4749 157.858,31.8082 160.5,34.5C 159.833,35.5 159.167,36.5 158.5,37.5C 158.167,37.5 157.833,37.5 157.5,37.5C 156.769,37.0582 155.769,36.8915 154.5,37C 155.711,36.1072 155.711,35.2739 154.5,34.5C 152.483,35.961 150.483,37.2943 148.5,38.5C 147.833,38.5 147.5,38.1667 147.5,37.5C 150.323,33.1492 149.49,32.4825 145,35.5C 144.5,35.1667 144,34.8333 143.5,34.5C 146.279,33.3265 146.946,31.4932 145.5,29C 147.437,28.8784 148.77,28.045 149.5,26.5C 151.562,24.5844 152.896,22.251 153.5,19.5 Z"/></g>
<g><path style="opacity:1" fill="#9b9faa" d="M 105.5,28.5 C 108.049,28.4411 110.049,29.4411 111.5,31.5C 112.768,30.5721 114.101,30.4054 115.5,31C 110.585,33.2563 110.251,36.0896 114.5,39.5C 113.757,40.1818 113.091,40.8485 112.5,41.5C 111.167,41.5 109.833,41.5 108.5,41.5C 105.983,40.1073 104.316,38.1073 103.5,35.5C 102.209,35.7373 101.209,35.404 100.5,34.5C 101.756,34.5386 102.756,34.0386 103.5,33C 101.414,32.6847 99.4144,32.1847 97.5,31.5C 97.5,30.1667 97.5,28.8333 97.5,27.5C 97.4701,26.5028 97.9701,25.8361 99,25.5C 100.478,26.9782 101.978,28.4782 103.5,30C 105.948,30.8531 106.614,30.3531 105.5,28.5 Z"/></g>
<g><path style="opacity:1" fill="#dae4e5" d="M 133.5,32.5 C 133.929,35.1473 135.262,37.1473 137.5,38.5C 138.562,39.5754 138.562,40.5754 137.5,41.5C 135.538,40.3655 133.538,40.3655 131.5,41.5C 128.896,40.731 127.062,39.0643 126,36.5C 124.84,32.68 126.007,31.18 129.5,32C 128.007,30.8438 128.174,30.0104 130,29.5C 131.364,30.3707 132.53,31.3707 133.5,32.5 Z"/></g>
<g><path style="opacity:1" fill="#17232b" d="M 182.5,5.5 C 182.5,6.16667 182.5,6.83333 182.5,7.5C 180.896,8.28696 180.229,9.6203 180.5,11.5C 180.717,14.4206 180.051,17.0872 178.5,19.5C 175.896,24.3752 173.562,29.3752 171.5,34.5C 170.265,36.017 170.265,37.6837 171.5,39.5C 170.446,41.2012 169.446,42.8679 168.5,44.5C 168.512,47.142 167.179,48.4754 164.5,48.5C 163.424,42.854 163.424,37.354 164.5,32C 165.609,28.7187 166.942,25.552 168.5,22.5C 169.441,20.9505 170.107,19.2838 170.5,17.5C 173.554,12.6229 177.554,8.62294 182.5,5.5 Z"/></g>
<g><path style="opacity:1" fill="#3f2831" d="M 175.5,30.5 C 175.328,31.4916 175.662,32.1583 176.5,32.5C 173.03,36.7798 171.697,41.4464 172.5,46.5C 172.5,46.8333 172.5,47.1667 172.5,47.5C 171.883,47.6107 171.383,47.944 171,48.5C 170.392,46.9336 169.558,45.6002 168.5,44.5C 169.446,42.8679 170.446,41.2012 171.5,39.5C 170.265,37.6837 170.265,36.017 171.5,34.5C 171.369,35.2389 171.536,35.9056 172,36.5C 173.459,34.5681 174.625,32.5681 175.5,30.5 Z"/></g>
<g><path style="opacity:1" fill="#66797d" d="M 97.5,31.5 C 99.4144,32.1847 101.414,32.6847 103.5,33C 102.756,34.0386 101.756,34.5386 100.5,34.5C 99.6236,34.3691 98.9569,34.7025 98.5,35.5C 99.9814,36.4803 101.315,37.647 102.5,39C 101.451,39.4922 100.451,39.3256 99.5,38.5C 99.9125,39.7824 99.2458,40.7824 97.5,41.5C 96.5,39.5 95.5,37.5 94.5,35.5C 93.596,34.791 93.2627,33.791 93.5,32.5C 94.7545,32.4989 96.0878,32.1656 97.5,31.5 Z"/></g>
<g><path style="opacity:1" fill="#520101" d="M 200.5,131.5 C 199.508,131.672 198.842,131.338 198.5,130.5C 205,130.826 209.167,127.826 211,121.5C 210.924,115.958 211.091,110.792 211.5,106C 210.516,102.769 209.849,99.4359 209.5,96C 211.377,89.1201 211.21,82.2868 209,75.5C 203.396,65.7522 197.396,55.7522 191,45.5C 188.63,42.9614 186.13,40.6281 183.5,38.5C 183.5,37.1667 183.5,35.8333 183.5,34.5C 184.222,34.0825 184.722,33.4158 185,32.5C 187.647,36.3135 190.813,39.6469 194.5,42.5C 197,46.8333 199.5,51.1667 202,55.5C 205.821,58.7433 209.821,61.7433 214,64.5C 215.635,67.6319 217.468,70.6319 219.5,73.5C 218.978,74.6074 218.645,75.7741 218.5,77C 219.113,82.7305 220.113,88.0639 221.5,93C 220.152,94.5553 219.486,96.3887 219.5,98.5C 220.337,100.873 220.671,103.207 220.5,105.5C 218.881,112.376 218.048,119.376 218,126.5C 212.934,130.488 207.101,132.154 200.5,131.5 Z"/></g>
<g><path style="opacity:1" fill="#2b3f48" d="M 92.5,32.5 C 92.8333,32.5 93.1667,32.5 93.5,32.5C 93.2627,33.791 93.596,34.791 94.5,35.5C 94.761,39.4925 94.0944,43.3258 92.5,47C 92.8618,48.4343 93.5285,49.6009 94.5,50.5C 92.0411,50.69 90.3745,49.69 89.5,47.5C 88.4448,44.9272 88.2782,42.2605 89,39.5C 90.1932,37.1136 91.3599,34.7802 92.5,32.5 Z"/></g>
<g><path style="opacity:1" fill="#c5cbcb" d="M 157.5,37.5 C 154.48,40.5162 151.146,43.1829 147.5,45.5C 146.325,45.719 145.325,45.3857 144.5,44.5C 146.252,42.7541 147.585,40.7541 148.5,38.5C 150.483,37.2943 152.483,35.961 154.5,34.5C 155.711,35.2739 155.711,36.1072 154.5,37C 155.769,36.8915 156.769,37.0582 157.5,37.5 Z"/></g>
<g><path style="opacity:1" fill="#334247" d="M 168.5,22.5 C 166.942,25.552 165.609,28.7187 164.5,32C 163.424,37.354 163.424,42.854 164.5,48.5C 162.833,48.5 161.167,48.5 159.5,48.5C 160.472,47.6009 161.138,46.4343 161.5,45C 160.407,42.5584 159.407,40.0584 158.5,37.5C 159.167,36.5 159.833,35.5 160.5,34.5C 161.27,32.3144 162.27,30.1477 163.5,28C 163.355,27.228 163.022,26.5613 162.5,26C 164.333,24.8333 165.833,23.3333 167,21.5C 167.383,22.056 167.883,22.3893 168.5,22.5 Z"/></g>
<g><path style="opacity:1" fill="#b5c7ca" d="M 100.5,34.5 C 101.209,35.404 102.209,35.7373 103.5,35.5C 104.316,38.1073 105.983,40.1073 108.5,41.5C 110.489,44.8056 112.489,48.1389 114.5,51.5C 113.767,52.087 112.767,52.087 111.5,51.5C 108.701,48.3626 105.368,46.0293 101.5,44.5C 100.167,43.5 98.8333,42.5 97.5,41.5C 99.2458,40.7824 99.9125,39.7824 99.5,38.5C 100.451,39.3256 101.451,39.4922 102.5,39C 101.315,37.647 99.9814,36.4803 98.5,35.5C 98.9569,34.7025 99.6236,34.3691 100.5,34.5 Z"/></g>
<g><path style="opacity:1" fill="#410202" d="M 65.5,38.5 C 65.8558,43.9699 66.8558,49.3033 68.5,54.5C 66.8706,56.0603 65.704,55.727 65,53.5C 62.9565,55.208 61.2899,57.208 60,59.5C 59.3162,60.7839 59.4829,61.9505 60.5,63C 52.242,70.1834 44.4087,77.6834 37,85.5C 33.1379,93.9204 29.9712,102.587 27.5,111.5C 27.4492,114.986 27.4492,118.486 27.5,122C 26.6805,123.8 26.0138,125.634 25.5,127.5C 23.9741,116.209 24.3074,104.875 26.5,93.5C 26.5,92.5 26.5,91.5 26.5,90.5C 25.5,90.5 24.5,90.5 23.5,90.5C 25.0477,86.4023 26.8811,82.4023 29,78.5C 30.0674,77.8095 31.2341,77.3095 32.5,77C 36.0338,73.1311 39.8672,69.6311 44,66.5C 49.1801,55.4626 55.8468,45.4626 64,36.5C 64.2784,37.4158 64.7784,38.0825 65.5,38.5 Z"/></g>
<g><path style="opacity:1" fill="#8b3032" d="M 177.5,34.5 C 176.437,38.6411 174.771,42.6411 172.5,46.5C 171.697,41.4464 173.03,36.7798 176.5,32.5C 176.783,31.7109 177.283,31.0442 178,30.5C 178.195,31.8193 178.028,33.1526 177.5,34.5 Z"/></g>
<g><path style="opacity:1" fill="#361011" d="M 71.5,40.5 C 70.1613,45.4876 70.4946,50.4876 72.5,55.5C 71.8761,55.9169 71.5427,56.5836 71.5,57.5C 72.5231,65.467 73.1898,73.467 73.5,81.5C 73.2041,83.403 72.5375,85.0697 71.5,86.5C 70.6365,87.463 69.9698,87.463 69.5,86.5C 72.0496,82.4812 72.883,78.1478 72,73.5C 70.9562,75.7148 70.2895,78.0481 70,80.5C 69.5357,79.9056 69.369,79.2389 69.5,78.5C 69.5,77.1667 69.5,75.8333 69.5,74.5C 69.5,69.8333 69.5,65.1667 69.5,60.5C 69.6747,58.3792 69.3414,56.3792 68.5,54.5C 66.8558,49.3033 65.8558,43.9699 65.5,38.5C 65.5,35.8333 65.5,33.1667 65.5,30.5C 67.2655,27.8774 67.9321,24.8774 67.5,21.5C 68.2216,21.0825 68.7216,20.4158 69,19.5C 69.157,25.6045 70.3236,31.4379 72.5,37C 72.3517,38.2559 72.0184,39.4226 71.5,40.5 Z"/></g>
<g><path style="opacity:1" fill="#46595e" d="M 94.5,35.5 C 95.5,37.5 96.5,39.5 97.5,41.5C 98.8333,42.5 100.167,43.5 101.5,44.5C 100.761,44.369 100.094,44.5357 99.5,45C 100.891,46.02 102.391,46.8534 104,47.5C 104.483,48.448 104.649,49.448 104.5,50.5C 101.167,50.5 97.8333,50.5 94.5,50.5C 93.5285,49.6009 92.8618,48.4343 92.5,47C 94.0944,43.3258 94.761,39.4925 94.5,35.5 Z"/></g>
<g><path style="opacity:1" fill="#566b70" d="M 157.5,37.5 C 157.833,37.5 158.167,37.5 158.5,37.5C 159.407,40.0584 160.407,42.5584 161.5,45C 161.138,46.4343 160.472,47.6009 159.5,48.5C 156.274,49.4887 152.94,50.4887 149.5,51.5C 148.022,50.5525 147.022,49.2191 146.5,47.5C 146.833,46.8333 147.167,46.1667 147.5,45.5C 151.146,43.1829 154.48,40.5162 157.5,37.5 Z"/></g>
<g><path style="opacity:1" fill="#8a282a" d="M 71.5,40.5 C 71.767,42.9653 72.4336,45.2986 73.5,47.5C 73.3801,49.7345 73.7135,51.9011 74.5,54C 74.1639,55.0299 73.4972,55.5299 72.5,55.5C 70.4946,50.4876 70.1613,45.4876 71.5,40.5 Z"/></g>
<g><path style="opacity:1" fill="#384c56" d="M 77.5,40.5 C 78.8007,43.1013 80.134,45.768 81.5,48.5C 83.1755,52.5869 84.8422,56.5869 86.5,60.5C 86.3573,62.2624 86.6906,63.9291 87.5,65.5C 87.0576,66.7387 86.3909,67.7387 85.5,68.5C 83.4976,65.4879 82.331,62.1545 82,58.5C 77.9539,52.9837 76.4539,46.9837 77.5,40.5 Z"/></g>
<g><path style="opacity:1" fill="#680000" d="M 194.5,122.5 C 196.912,122.756 198.579,121.756 199.5,119.5C 198.702,115.773 198.702,111.94 199.5,108C 198.283,106.352 197.45,104.519 197,102.5C 196.807,97.2497 196.307,92.083 195.5,87C 195.833,86.6667 196.167,86.3333 196.5,86C 194.012,82.2042 192.512,78.0376 192,73.5C 191.5,72.3333 190.667,71.5 189.5,71C 190.428,70.6121 191.095,69.9454 191.5,69C 190.244,67.1551 189.244,65.1551 188.5,63C 189.148,61.5603 189.481,60.0603 189.5,58.5C 187.876,58.6399 186.71,57.9733 186,56.5C 185.517,57.448 185.351,58.448 185.5,59.5C 184.596,58.791 184.263,57.791 184.5,56.5C 184.421,53.7294 184.921,51.0627 186,48.5C 191.406,52.563 195.24,57.7296 197.5,64C 197.043,64.414 196.709,64.914 196.5,65.5C 197.247,65.7365 198.08,66.0698 199,66.5C 200.089,71.0239 201.256,75.5239 202.5,80C 202.399,82.5919 202.066,85.2586 201.5,88C 202.511,98.1578 204.177,108.158 206.5,118C 205.912,125.427 202.246,127.427 195.5,124C 194.944,123.617 194.611,123.117 194.5,122.5 Z"/></g>
<g><path style="opacity:1" fill="#576b75" d="M 177.5,34.5 C 177.062,42.0217 175.729,49.355 173.5,56.5C 172.167,57.8333 170.833,59.1667 169.5,60.5C 169.337,58.1432 169.503,55.8098 170,53.5C 171.559,51.7834 172.392,49.7834 172.5,47.5C 172.5,47.1667 172.5,46.8333 172.5,46.5C 174.771,42.6411 176.437,38.6411 177.5,34.5 Z"/></g>
<g><path style="opacity:1" fill="#262b30" d="M 101.5,44.5 C 105.368,46.0293 108.701,48.3626 111.5,51.5C 113.219,54.2195 115.553,56.2195 118.5,57.5C 119.141,58.4822 119.807,59.4822 120.5,60.5C 119.667,60.8333 118.833,61.1667 118,61.5C 115.752,60.771 113.585,59.771 111.5,58.5C 110.893,58.6236 110.56,58.9569 110.5,59.5C 109.833,59.8333 109.167,60.1667 108.5,60.5C 108.762,59.0222 108.429,57.6888 107.5,56.5C 106.702,56.9569 106.369,57.6236 106.5,58.5C 104.766,57.438 103.099,57.438 101.5,58.5C 100.566,57.4324 100.232,56.099 100.5,54.5C 96.0876,55.2247 95.7543,57.3913 99.5,61C 103.026,62.3368 106.692,62.8368 110.5,62.5C 111.873,62.3433 113.207,62.51 114.5,63C 111.393,66.2164 107.726,68.3831 103.5,69.5C 101.067,69.2729 99.4006,70.2729 98.5,72.5C 97.6618,72.8417 97.3284,73.5084 97.5,74.5C 97.1667,74.5 96.8333,74.5 96.5,74.5C 96.1667,73.8333 95.8333,73.1667 95.5,72.5C 95.8333,71.8333 96.1667,71.1667 96.5,70.5C 99.6967,68.9963 100.03,67.3297 97.5,65.5C 94.9392,64.169 92.4392,64.5023 90,66.5C 89.6865,69.8579 90.5198,72.8579 92.5,75.5C 91.8333,77.5 91.1667,79.5 90.5,81.5C 88.8598,78.5122 88.0265,75.1789 88,71.5C 86.955,70.6266 86.1217,69.6266 85.5,68.5C 86.3909,67.7387 87.0576,66.7387 87.5,65.5C 86.6906,63.9291 86.3573,62.2624 86.5,60.5C 85.9636,55.7232 86.9636,51.3898 89.5,47.5C 90.3745,49.69 92.0411,50.69 94.5,50.5C 97.8333,50.5 101.167,50.5 104.5,50.5C 104.649,49.448 104.483,48.448 104,47.5C 102.391,46.8534 100.891,46.02 99.5,45C 100.094,44.5357 100.761,44.369 101.5,44.5 Z"/></g>
<g><path style="opacity:1" fill="#8baaae" d="M 108.5,41.5 C 109.833,41.5 111.167,41.5 112.5,41.5C 116.406,42.3575 120.24,42.3575 124,41.5C 127.311,44.152 130.811,46.4853 134.5,48.5C 135,49.5 135.5,50.5 136,51.5C 137.699,50.5939 139.533,50.2606 141.5,50.5C 140.833,51.1667 140.167,51.8333 139.5,52.5C 137.246,53.4151 135.246,54.7484 133.5,56.5C 132.371,58.6282 132.204,60.9615 133,63.5C 133.383,62.944 133.883,62.6107 134.5,62.5C 132.9,64.5713 132.4,66.9047 133,69.5C 135.43,74.2641 137.93,78.9308 140.5,83.5C 138.983,83.4894 137.816,82.8228 137,81.5C 136.558,83.6785 135.558,84.3452 134,83.5C 133.51,84.7932 133.343,86.1266 133.5,87.5C 133.167,87.5 132.833,87.5 132.5,87.5C 131.833,87.5 131.167,87.5 130.5,87.5C 129.625,80.1473 129.625,72.8139 130.5,65.5C 131.461,63.7354 131.795,61.7354 131.5,59.5C 128.932,58.5504 126.432,58.5504 124,59.5C 123.919,67.8036 122.753,75.8036 120.5,83.5C 120.5,81.8333 120.5,80.1667 120.5,78.5C 118.833,78.5 117.167,78.5 115.5,78.5C 116.474,76.9147 117.974,75.9147 120,75.5C 120.498,72.5184 120.665,69.5184 120.5,66.5C 121.649,66.2089 122.316,65.3756 122.5,64C 122.204,62.1118 121.704,60.2784 121,58.5C 120.329,57.7476 119.496,57.4142 118.5,57.5C 115.553,56.2195 113.219,54.2195 111.5,51.5C 112.767,52.087 113.767,52.087 114.5,51.5C 112.489,48.1389 110.489,44.8056 108.5,41.5 Z"/></g>
<g><path style="opacity:1" fill="#31363d" d="M 146.5,47.5 C 147.022,49.2191 148.022,50.5525 149.5,51.5C 148.626,52.5251 147.459,53.1918 146,53.5C 143.901,52.7135 141.734,52.3801 139.5,52.5C 140.167,51.8333 140.833,51.1667 141.5,50.5C 142.922,49.075 144.589,48.075 146.5,47.5 Z"/></g>
<g><path style="opacity:1" fill="#2a1a1d" d="M 182.5,44.5 C 182.5,48.5 182.5,52.5 182.5,56.5C 182.5,56.8333 182.5,57.1667 182.5,57.5C 182.5,61.5 182.5,65.5 182.5,69.5C 182.635,71.5542 181.968,73.2209 180.5,74.5C 179.833,74.5 179.167,74.5 178.5,74.5C 178.523,72.0733 179.023,69.74 180,67.5C 180.333,68.1667 180.667,68.8333 181,69.5C 181.499,64.5111 181.666,59.5111 181.5,54.5C 180.5,54.5 179.5,54.5 178.5,54.5C 178.632,57.5701 178.299,60.5701 177.5,63.5C 176.521,66.6248 176.187,69.9581 176.5,73.5C 176.167,73.5 175.833,73.5 175.5,73.5C 175.549,66.6864 175.549,59.8531 175.5,53C 176.957,47.3219 178.791,41.8219 181,36.5C 180.804,40.1016 179.971,43.6016 178.5,47C 179.249,48.7337 179.749,50.567 180,52.5C 179.947,49.3248 180.78,46.6581 182.5,44.5 Z"/></g>
<g><path style="opacity:1" fill="#520202" d="M 68.5,54.5 C 69.3414,56.3792 69.6747,58.3792 69.5,60.5C 68.5655,61.5676 68.2322,62.901 68.5,64.5C 66.396,64.2011 64.396,64.5344 62.5,65.5C 62.5958,71.0517 59.9291,75.0517 54.5,77.5C 50.1396,81.8604 45.8063,86.1937 41.5,90.5C 40.1971,92.9676 38.6971,95.301 37,97.5C 36.2457,100.639 35.2457,103.639 34,106.5C 33.43,113.642 32.5967,120.642 31.5,127.5C 31.9394,130.176 32.9394,132.509 34.5,134.5C 32.9724,135.309 31.3057,135.976 29.5,136.5C 27.2704,135.225 25.937,133.225 25.5,130.5C 25.5,129.5 25.5,128.5 25.5,127.5C 26.0138,125.634 26.6805,123.8 27.5,122C 27.4492,118.486 27.4492,114.986 27.5,111.5C 29.9712,102.587 33.1379,93.9204 37,85.5C 44.4087,77.6834 52.242,70.1834 60.5,63C 59.4829,61.9505 59.3162,60.7839 60,59.5C 61.2899,57.208 62.9565,55.208 65,53.5C 65.704,55.727 66.8706,56.0603 68.5,54.5 Z"/></g>
<g><path style="opacity:1" fill="#1b1c1f" d="M 168.5,44.5 C 169.558,45.6002 170.392,46.9336 171,48.5C 171.383,47.944 171.883,47.6107 172.5,47.5C 172.392,49.7834 171.559,51.7834 170,53.5C 169.503,55.8098 169.337,58.1432 169.5,60.5C 169.291,61.9217 168.791,63.255 168,64.5C 167.667,61.1667 167.333,57.8333 167,54.5C 165.421,53.2004 164.255,53.5337 163.5,55.5C 162.167,56.1667 161.167,57.1667 160.5,58.5C 159.504,58.4142 158.671,58.7476 158,59.5C 158.019,57.8925 158.185,56.2259 158.5,54.5C 156.234,54.1412 154.401,54.8078 153,56.5C 152.174,54.5946 151.007,54.2612 149.5,55.5C 150.243,56.1818 150.909,56.8485 151.5,57.5C 149.435,57.953 147.768,58.953 146.5,60.5C 143.928,59.2916 141.594,59.6249 139.5,61.5C 137.611,62.3799 135.611,62.3799 133.5,61.5C 133.5,59.8333 133.5,58.1667 133.5,56.5C 135.246,54.7484 137.246,53.4151 139.5,52.5C 141.734,52.3801 143.901,52.7135 146,53.5C 147.459,53.1918 148.626,52.5251 149.5,51.5C 152.94,50.4887 156.274,49.4887 159.5,48.5C 161.167,48.5 162.833,48.5 164.5,48.5C 167.179,48.4754 168.512,47.142 168.5,44.5 Z"/></g>
<g><path style="opacity:1" fill="#740202" d="M 194.5,122.5 C 194.204,120.597 193.537,118.93 192.5,117.5C 192.007,115.194 191.674,112.861 191.5,110.5C 188.41,93.6584 186.41,76.6584 185.5,59.5C 185.351,58.448 185.517,57.448 186,56.5C 186.71,57.9733 187.876,58.6399 189.5,58.5C 189.481,60.0603 189.148,61.5603 188.5,63C 189.244,65.1551 190.244,67.1551 191.5,69C 191.095,69.9454 190.428,70.6121 189.5,71C 190.667,71.5 191.5,72.3333 192,73.5C 192.512,78.0376 194.012,82.2042 196.5,86C 196.167,86.3333 195.833,86.6667 195.5,87C 196.307,92.083 196.807,97.2497 197,102.5C 197.45,104.519 198.283,106.352 199.5,108C 198.702,111.94 198.702,115.773 199.5,119.5C 198.579,121.756 196.912,122.756 194.5,122.5 Z"/></g>
<g><path style="opacity:1" fill="#5d0102" d="M 183.5,38.5 C 186.13,40.6281 188.63,42.9614 191,45.5C 197.396,55.7522 203.396,65.7522 209,75.5C 211.21,82.2868 211.377,89.1201 209.5,96C 209.849,99.4359 210.516,102.769 211.5,106C 211.091,110.792 210.924,115.958 211,121.5C 209.167,127.826 205,130.826 198.5,130.5C 196.379,130.675 194.379,130.341 192.5,129.5C 192.5,125.5 192.5,121.5 192.5,117.5C 193.537,118.93 194.204,120.597 194.5,122.5C 194.611,123.117 194.944,123.617 195.5,124C 202.246,127.427 205.912,125.427 206.5,118C 204.177,108.158 202.511,98.1578 201.5,88C 202.066,85.2586 202.399,82.5919 202.5,80C 201.256,75.5239 200.089,71.0239 199,66.5C 198.08,66.0698 197.247,65.7365 196.5,65.5C 196.709,64.914 197.043,64.414 197.5,64C 195.24,57.7296 191.406,52.563 186,48.5C 184.921,51.0627 184.421,53.7294 184.5,56.5C 184.167,56.5 183.833,56.5 183.5,56.5C 183.5,50.5 183.5,44.5 183.5,38.5 Z"/></g>
<g><path style="opacity:1" fill="#516970" d="M 87.5,53.5 C 91.2736,54.9382 93.6069,57.6049 94.5,61.5C 92.2776,61.178 90.4443,61.8446 89,63.5C 87.9571,60.2432 87.4571,56.9099 87.5,53.5 Z"/></g>
<g><path style="opacity:1" fill="#9f9a9f" d="M 101.5,58.5 C 101.973,59.9063 102.973,60.573 104.5,60.5C 105.833,61.8333 107.167,61.8333 108.5,60.5C 109.167,60.1667 109.833,59.8333 110.5,59.5C 113.098,60.5278 113.098,61.5278 110.5,62.5C 106.692,62.8368 103.026,62.3368 99.5,61C 95.7543,57.3913 96.0876,55.2247 100.5,54.5C 100.232,56.099 100.566,57.4324 101.5,58.5 Z"/></g>
<g><path style="opacity:1" fill="#9a3219" d="M 106.5,58.5 C 106.5,59.8333 105.833,60.5 104.5,60.5C 102.973,60.573 101.973,59.9063 101.5,58.5C 103.099,57.438 104.766,57.438 106.5,58.5 Z"/></g>
<g><path style="opacity:1" fill="#aec3c5" d="M 130.5,65.5 C 130.938,61.0917 128.938,59.4251 124.5,60.5C 124.178,69.8965 124.178,79.2299 124.5,88.5C 122.107,87.6473 120.774,85.9806 120.5,83.5C 122.753,75.8036 123.919,67.8036 124,59.5C 126.432,58.5504 128.932,58.5504 131.5,59.5C 131.795,61.7354 131.461,63.7354 130.5,65.5 Z"/></g>
<g><path style="opacity:1" fill="#9f381e" d="M 151.5,57.5 C 151.833,58.1667 152.167,58.8333 152.5,59.5C 150.598,61.1511 148.598,61.4845 146.5,60.5C 147.768,58.953 149.435,57.953 151.5,57.5 Z"/></g>
<g><path style="opacity:1" fill="#725753" d="M 108.5,60.5 C 107.167,61.8333 105.833,61.8333 104.5,60.5C 105.833,60.5 106.5,59.8333 106.5,58.5C 106.369,57.6236 106.702,56.9569 107.5,56.5C 108.429,57.6888 108.762,59.0222 108.5,60.5 Z"/></g>
<g><path style="opacity:1" fill="#a39ca1" d="M 143.5,62.5 C 142.432,61.5655 141.099,61.2322 139.5,61.5C 141.594,59.6249 143.928,59.2916 146.5,60.5C 148.598,61.4845 150.598,61.1511 152.5,59.5C 153.479,58.2347 154.479,56.9014 155.5,55.5C 156.614,56.723 156.781,58.0563 156,59.5C 152.329,62.1958 148.162,63.1958 143.5,62.5 Z"/></g>
<g><path style="opacity:1" fill="#2f3238" d="M 169.5,60.5 C 170.833,59.1667 172.167,57.8333 173.5,56.5C 171.77,60.8501 169.937,65.1834 168,69.5C 167.943,67.0898 166.776,65.7565 164.5,65.5C 163.833,65.5 163.167,65.5 162.5,65.5C 160.389,64.2584 158.389,64.2584 156.5,65.5C 154.896,66.287 154.229,67.6203 154.5,69.5C 148.849,68.7848 143.849,66.6181 139.5,63C 140.793,62.51 142.127,62.3433 143.5,62.5C 148.162,63.1958 152.329,62.1958 156,59.5C 156.781,58.0563 156.614,56.723 155.5,55.5C 154.479,56.9014 153.479,58.2347 152.5,59.5C 152.167,58.8333 151.833,58.1667 151.5,57.5C 150.909,56.8485 150.243,56.1818 149.5,55.5C 151.007,54.2612 152.174,54.5946 153,56.5C 154.401,54.8078 156.234,54.1412 158.5,54.5C 158.185,56.2259 158.019,57.8925 158,59.5C 158.671,58.7476 159.504,58.4142 160.5,58.5C 160.928,61.2465 162.594,62.9132 165.5,63.5C 166.48,60.9135 166.813,58.2469 166.5,55.5C 165.5,55.5 164.5,55.5 163.5,55.5C 164.255,53.5337 165.421,53.2004 167,54.5C 167.333,57.8333 167.667,61.1667 168,64.5C 168.791,63.255 169.291,61.9217 169.5,60.5 Z"/></g>
<g><path style="opacity:1" fill="#55727c" d="M 163.5,55.5 C 164.5,55.5 165.5,55.5 166.5,55.5C 166.813,58.2469 166.48,60.9135 165.5,63.5C 162.594,62.9132 160.928,61.2465 160.5,58.5C 161.167,57.1667 162.167,56.1667 163.5,55.5 Z"/></g>
<g><path style="opacity:1" fill="#6c2526" d="M 178.5,74.5 C 177.391,72.9578 177.057,69.2911 177.5,63.5C 178.299,60.5701 178.632,57.5701 178.5,54.5C 179.5,54.5 180.5,54.5 181.5,54.5C 181.666,59.5111 181.499,64.5111 181,69.5C 180.667,68.8333 180.333,68.1667 180,67.5C 179.023,69.74 178.523,72.0733 178.5,74.5 Z"/></g>
<g><path style="opacity:1" fill="#461b1f" d="M 73.5,47.5 C 75.0395,51.9974 76.3728,56.664 77.5,61.5C 77.2985,65.4239 76.7985,65.4239 76,61.5C 75.6667,64.1667 75.3333,66.8333 75,69.5C 74.8859,64.6521 74.0525,59.9854 72.5,55.5C 73.4972,55.5299 74.1639,55.0299 74.5,54C 73.7135,51.9011 73.3801,49.7345 73.5,47.5 Z"/></g>
<g><path style="opacity:1" fill="#101418" d="M 71.5,9.5 C 73.9324,10.7502 76.2657,12.2502 78.5,14C 80.628,17.1301 83.128,19.9634 86,22.5C 86.3826,21.944 86.8826,21.6107 87.5,21.5C 88.6499,23.6035 89.9833,25.6035 91.5,27.5C 92.4519,29.0453 92.7852,30.712 92.5,32.5C 91.3599,34.7802 90.1932,37.1136 89,39.5C 88.2782,42.2605 88.4448,44.9272 89.5,47.5C 86.9636,51.3898 85.9636,55.7232 86.5,60.5C 84.8422,56.5869 83.1755,52.5869 81.5,48.5C 82.7776,42.546 81.9443,36.546 79,30.5C 78.7071,33.9542 77.3738,34.2876 75,31.5C 75.2987,34.5742 76.132,37.5742 77.5,40.5C 76.4539,46.9837 77.9539,52.9837 82,58.5C 82.331,62.1545 83.4976,65.4879 85.5,68.5C 86.1217,69.6266 86.955,70.6266 88,71.5C 88.0265,75.1789 88.8598,78.5122 90.5,81.5C 89.4697,84.1435 89.303,86.8102 90,89.5C 88.1706,87.8442 86.8372,85.8442 86,83.5C 85.6529,90.0473 86.4863,96.3806 88.5,102.5C 87.996,105.865 87.3293,109.198 86.5,112.5C 84.888,107.274 83.7213,101.941 83,96.5C 81.7884,100.427 80.7884,104.427 80,108.5C 79.6667,108.167 79.3333,107.833 79,107.5C 78.7811,108.938 78.2811,110.271 77.5,111.5C 76.914,111.291 76.414,110.957 76,110.5C 75.1853,112.623 74.1853,114.623 73,116.5C 72.7787,113.057 71.7787,112.724 70,115.5C 69.8403,112.102 71.007,109.102 73.5,106.5C 73.0431,105.702 72.3764,105.369 71.5,105.5C 76.8392,96.4599 78.3392,86.7932 76,76.5C 75.6264,78.4913 74.793,80.158 73.5,81.5C 73.1898,73.467 72.5231,65.467 71.5,57.5C 71.5427,56.5836 71.8761,55.9169 72.5,55.5C 74.0525,59.9854 74.8859,64.6521 75,69.5C 75.3333,66.8333 75.6667,64.1667 76,61.5C 76.7985,65.4239 77.2985,65.4239 77.5,61.5C 76.3728,56.664 75.0395,51.9974 73.5,47.5C 72.4336,45.2986 71.767,42.9653 71.5,40.5C 72.0184,39.4226 72.3517,38.2559 72.5,37C 70.3236,31.4379 69.157,25.6045 69,19.5C 68.7216,20.4158 68.2216,21.0825 67.5,21.5C 67.4198,16.955 68.7532,12.955 71.5,9.5 Z"/></g>
<g><path style="opacity:1" fill="#552124" d="M 81.5,48.5 C 80.134,45.768 78.8007,43.1013 77.5,40.5C 76.132,37.5742 75.2987,34.5742 75,31.5C 77.3738,34.2876 78.7071,33.9542 79,30.5C 81.9443,36.546 82.7776,42.546 81.5,48.5 Z"/></g>
<g><path style="opacity:1" fill="#121314" d="M 180.5,11.5 C 182.244,22.2809 182.91,33.2809 182.5,44.5C 180.78,46.6581 179.947,49.3248 180,52.5C 179.749,50.567 179.249,48.7337 178.5,47C 179.971,43.6016 180.804,40.1016 181,36.5C 178.791,41.8219 176.957,47.3219 175.5,53C 175.549,59.8531 175.549,66.6864 175.5,73.5C 174.878,81.8186 174.378,90.152 174,98.5C 173.319,96.1053 172.485,93.772 171.5,91.5C 171.12,93.0207 170.954,94.6874 171,96.5C 170.333,95.1667 169.667,95.1667 169,96.5C 168.333,101.833 168.333,107.167 169,112.5C 169.333,109.833 169.667,107.167 170,104.5C 172.28,108.447 174.947,112.113 178,115.5C 178.21,113.942 178.71,112.609 179.5,111.5C 181.016,113.186 182.35,115.019 183.5,117C 183.37,118.059 182.87,118.892 182,119.5C 177.939,119.89 173.773,119.39 169.5,118C 166.187,115.176 162.52,113.009 158.5,111.5C 158.5,111.167 158.5,110.833 158.5,110.5C 158.737,109.209 158.404,108.209 157.5,107.5C 157.856,102.03 158.856,96.6967 160.5,91.5C 161.265,86.5642 161.432,81.5642 161,76.5C 161.667,77.1667 162.333,77.8333 163,78.5C 164.252,75.9865 164.752,73.3198 164.5,70.5C 164.5,68.8333 164.5,67.1667 164.5,65.5C 166.776,65.7565 167.943,67.0898 168,69.5C 169.937,65.1834 171.77,60.8501 173.5,56.5C 175.729,49.355 177.062,42.0217 177.5,34.5C 178.028,33.1526 178.195,31.8193 178,30.5C 177.283,31.0442 176.783,31.7109 176.5,32.5C 175.662,32.1583 175.328,31.4916 175.5,30.5C 176.26,26.9734 177.594,23.64 179.5,20.5C 179.376,19.8933 179.043,19.56 178.5,19.5C 180.051,17.0872 180.717,14.4206 180.5,11.5 Z"/></g>
<g><path style="opacity:1" fill="#5e0202" d="M 69.5,60.5 C 69.5,65.1667 69.5,69.8333 69.5,74.5C 68.6981,73.0484 68.1981,71.3817 68,69.5C 65.183,74.4627 62.3496,79.4627 59.5,84.5C 51.5363,87.5588 45.8696,93.0588 42.5,101C 42.8333,101.333 43.1667,101.667 43.5,102C 40.4999,109.017 37.9999,116.183 36,123.5C 35.0935,127.26 34.9268,130.926 35.5,134.5C 35.1667,134.5 34.8333,134.5 34.5,134.5C 32.9394,132.509 31.9394,130.176 31.5,127.5C 32.5967,120.642 33.43,113.642 34,106.5C 35.2457,103.639 36.2457,100.639 37,97.5C 38.6971,95.301 40.1971,92.9676 41.5,90.5C 45.8063,86.1937 50.1396,81.8604 54.5,77.5C 59.9291,75.0517 62.5958,71.0517 62.5,65.5C 64.396,64.5344 66.396,64.2011 68.5,64.5C 68.2322,62.901 68.5655,61.5676 69.5,60.5 Z"/></g>
<g><path style="opacity:1" fill="#56626c" d="M 118.5,57.5 C 119.496,57.4142 120.329,57.7476 121,58.5C 121.704,60.2784 122.204,62.1118 122.5,64C 122.316,65.3756 121.649,66.2089 120.5,66.5C 120.5,65.1667 120.5,63.8333 120.5,62.5C 119.448,62.3505 118.448,62.5172 117.5,63C 115.158,65.3761 112.825,67.7094 110.5,70C 107.961,70.7958 105.628,70.6291 103.5,69.5C 107.726,68.3831 111.393,66.2164 114.5,63C 113.207,62.51 111.873,62.3433 110.5,62.5C 113.098,61.5278 113.098,60.5278 110.5,59.5C 110.56,58.9569 110.893,58.6236 111.5,58.5C 113.585,59.771 115.752,60.771 118,61.5C 118.833,61.1667 119.667,60.8333 120.5,60.5C 119.807,59.4822 119.141,58.4822 118.5,57.5 Z"/></g>
<g><path style="opacity:1" fill="#91a9ad" d="M 162.5,65.5 C 161.27,67.2972 160.604,69.2972 160.5,71.5C 156.267,71.2848 154.934,69.2848 156.5,65.5C 158.389,64.2584 160.389,64.2584 162.5,65.5 Z"/></g>
<g><path style="opacity:1" fill="#87a4aa" d="M 97.5,65.5 C 100.03,67.3297 99.6967,68.9963 96.5,70.5C 94.744,69.4479 94.0773,67.7812 94.5,65.5C 95.5,65.5 96.5,65.5 97.5,65.5 Z"/></g>
<g><path style="opacity:1" fill="#445b65" d="M 97.5,65.5 C 96.5,65.5 95.5,65.5 94.5,65.5C 94.0773,67.7812 94.744,69.4479 96.5,70.5C 96.1667,71.1667 95.8333,71.8333 95.5,72.5C 94.1667,73.1667 93.1667,74.1667 92.5,75.5C 90.5198,72.8579 89.6865,69.8579 90,66.5C 92.4392,64.5023 94.9392,64.169 97.5,65.5 Z"/></g>
<g><path style="opacity:1" fill="#6f0303" d="M 182.5,57.5 C 184.796,64.5432 185.629,71.8765 185,79.5C 184.115,76.0477 183.282,72.7144 182.5,69.5C 182.5,65.5 182.5,61.5 182.5,57.5 Z"/></g>
<g><path style="opacity:1" fill="#a4b8bc" d="M 120.5,66.5 C 120.665,69.5184 120.498,72.5184 120,75.5C 117.974,75.9147 116.474,76.9147 115.5,78.5C 110.871,79.481 106.204,79.6477 101.5,79C 100.588,76.7492 99.5877,74.5825 98.5,72.5C 99.4006,70.2729 101.067,69.2729 103.5,69.5C 105.628,70.6291 107.961,70.7958 110.5,70C 112.825,67.7094 115.158,65.3761 117.5,63C 118.448,62.5172 119.448,62.3505 120.5,62.5C 120.5,63.8333 120.5,65.1667 120.5,66.5 Z"/></g>
<g><path style="opacity:1" fill="#b6c5c5" d="M 134.5,62.5 C 138.236,66.2438 142.236,69.5771 146.5,72.5C 148.798,72.268 150.965,71.6014 153,70.5C 154.459,70.8082 155.626,71.4749 156.5,72.5C 156.67,73.8221 156.337,74.9887 155.5,76C 150.879,79.0865 145.879,81.5865 140.5,83.5C 137.93,78.9308 135.43,74.2641 133,69.5C 132.4,66.9047 132.9,64.5713 134.5,62.5 Z"/></g>
<g><path style="opacity:1" fill="#5a6069" d="M 133.5,56.5 C 133.5,58.1667 133.5,59.8333 133.5,61.5C 135.611,62.3799 137.611,62.3799 139.5,61.5C 141.099,61.2322 142.432,61.5655 143.5,62.5C 142.127,62.3433 140.793,62.51 139.5,63C 143.849,66.6181 148.849,68.7848 154.5,69.5C 154.229,67.6203 154.896,66.287 156.5,65.5C 154.934,69.2848 156.267,71.2848 160.5,71.5C 160.604,69.2972 161.27,67.2972 162.5,65.5C 163.167,65.5 163.833,65.5 164.5,65.5C 164.5,67.1667 164.5,68.8333 164.5,70.5C 163.59,72.0188 162.757,73.6854 162,75.5C 161,74.5 160,73.5 159,72.5C 158.502,75.4816 158.335,78.4816 158.5,81.5C 156.543,85.6864 154.21,89.6864 151.5,93.5C 153.321,88.5482 154.988,83.5482 156.5,78.5C 157.833,76.5 157.833,74.5 156.5,72.5C 155.626,71.4749 154.459,70.8082 153,70.5C 150.965,71.6014 148.798,72.268 146.5,72.5C 142.236,69.5771 138.236,66.2438 134.5,62.5C 133.883,62.6107 133.383,62.944 133,63.5C 132.204,60.9615 132.371,58.6282 133.5,56.5 Z"/></g>
<g><path style="opacity:1" fill="#4b2226" d="M 177.5,63.5 C 177.057,69.2911 177.391,72.9578 178.5,74.5C 179.167,74.5 179.833,74.5 180.5,74.5C 180.751,78.2488 181.417,81.9155 182.5,85.5C 180.665,84.8777 179.498,83.5444 179,81.5C 178.842,86.3727 179.842,91.0394 182,95.5C 182.844,90.5863 183.678,90.9197 184.5,96.5C 183.903,96.7352 183.57,97.2352 183.5,98C 184.946,102.169 186.279,106.336 187.5,110.5C 186.691,112.292 186.191,114.292 186,116.5C 185.76,114.148 184.927,112.148 183.5,110.5C 181.443,101.164 179.276,91.8309 177,82.5C 176.502,79.5184 176.335,76.5184 176.5,73.5C 176.187,69.9581 176.521,66.6248 177.5,63.5 Z"/></g>
<g><path style="opacity:1" fill="#490909" d="M 182.5,57.5 C 182.5,57.1667 182.5,56.8333 182.5,56.5C 182.833,56.5 183.167,56.5 183.5,56.5C 183.833,56.5 184.167,56.5 184.5,56.5C 184.263,57.791 184.596,58.791 185.5,59.5C 186.41,76.6584 188.41,93.6584 191.5,110.5C 190.833,109.833 190.167,109.167 189.5,108.5C 188.833,108.5 188.5,108.167 188.5,107.5C 189.097,107.265 189.43,106.765 189.5,106C 187.861,98.8975 185.528,92.0642 182.5,85.5C 181.417,81.9155 180.751,78.2488 180.5,74.5C 181.968,73.2209 182.635,71.5542 182.5,69.5C 183.282,72.7144 184.115,76.0477 185,79.5C 185.629,71.8765 184.796,64.5432 182.5,57.5 Z"/></g>
<g><path style="opacity:1" fill="#5e6b73" d="M 96.5,74.5 C 96.8333,74.5 97.1667,74.5 97.5,74.5C 99.9024,79.6232 103.069,84.2898 107,88.5C 107.041,92.4477 108.874,94.9477 112.5,96C 113.252,96.6708 113.586,97.5041 113.5,98.5C 113.167,98.5 112.833,98.5 112.5,98.5C 109.103,97.8018 105.603,97.1352 102,96.5C 99.5843,93.3372 97.4177,90.0039 95.5,86.5C 94.5883,83.535 94.5883,80.535 95.5,77.5C 95.5569,76.391 95.8902,75.391 96.5,74.5 Z"/></g>
<g><path style="opacity:1" fill="#6c0303" d="M 69.5,74.5 C 69.5,75.8333 69.5,77.1667 69.5,78.5C 68.1045,82.5909 67.4379,86.9242 67.5,91.5C 65.9572,96.1258 64.6239,100.793 63.5,105.5C 63.6747,107.621 63.3414,109.621 62.5,111.5C 61.7784,111.082 61.2784,110.416 61,109.5C 60.3989,112.637 59.3989,115.637 58,118.5C 57.3333,120.833 57.3333,123.167 58,125.5C 58.8178,120.206 59.3178,120.206 59.5,125.5C 59.5,126.5 59.5,127.5 59.5,128.5C 51.5344,130.627 43.5344,132.627 35.5,134.5C 34.9268,130.926 35.0935,127.26 36,123.5C 37.9999,116.183 40.4999,109.017 43.5,102C 43.1667,101.667 42.8333,101.333 42.5,101C 45.8696,93.0588 51.5363,87.5588 59.5,84.5C 62.3496,79.4627 65.183,74.4627 68,69.5C 68.1981,71.3817 68.6981,73.0484 69.5,74.5 Z"/></g>
<g><path style="opacity:1" fill="#182632" d="M 71.5,105.5 C 69.7601,107.974 68.2601,110.641 67,113.5C 67.0721,108.736 67.9055,104.07 69.5,99.5C 71.0823,96.1244 71.7489,92.4578 71.5,88.5C 71.5,87.8333 71.5,87.1667 71.5,86.5C 72.5375,85.0697 73.2041,83.403 73.5,81.5C 74.793,80.158 75.6264,78.4913 76,76.5C 78.3392,86.7932 76.8392,96.4599 71.5,105.5 Z"/></g>
<g><path style="opacity:1" fill="#889298" d="M 98.5,72.5 C 99.5877,74.5825 100.588,76.7492 101.5,79C 106.204,79.6477 110.871,79.481 115.5,78.5C 117.167,78.5 118.833,78.5 120.5,78.5C 120.5,80.1667 120.5,81.8333 120.5,83.5C 120.774,85.9806 122.107,87.6473 124.5,88.5C 126.751,89.8647 128.751,89.5314 130.5,87.5C 131.167,87.5 131.833,87.5 132.5,87.5C 127.742,91.6788 123.242,91.3455 119,86.5C 118.51,87.7932 118.343,89.1266 118.5,90.5C 117.837,88.9581 117.17,87.2914 116.5,85.5C 114.628,87.5351 112.961,89.7017 111.5,92C 113.154,94.321 115.154,96.321 117.5,98C 116.944,98.3826 116.611,98.8826 116.5,99.5C 115.209,99.7373 114.209,99.404 113.5,98.5C 113.586,97.5041 113.252,96.6708 112.5,96C 108.874,94.9477 107.041,92.4477 107,88.5C 103.069,84.2898 99.9024,79.6232 97.5,74.5C 97.3284,73.5084 97.6618,72.8417 98.5,72.5 Z"/></g>
<g><path style="opacity:1" fill="#dae5e5" d="M 130.5,65.5 C 129.625,72.8139 129.625,80.1473 130.5,87.5C 128.751,89.5314 126.751,89.8647 124.5,88.5C 124.178,79.2299 124.178,69.8965 124.5,60.5C 128.938,59.4251 130.938,61.0917 130.5,65.5 Z"/></g>
<g><path style="opacity:1" fill="#929c9f" d="M 156.5,72.5 C 157.833,74.5 157.833,76.5 156.5,78.5C 153.471,82.5288 149.804,85.8621 145.5,88.5C 147.156,90.4122 147.489,92.4122 146.5,94.5C 143.535,95.8765 140.869,97.5432 138.5,99.5C 139.843,97.1604 141.177,94.8271 142.5,92.5C 141.513,89.8658 140.013,87.5325 138,85.5C 137.79,87.0581 137.29,88.3915 136.5,89.5C 137.044,85.3601 136.044,84.6935 133.5,87.5C 133.343,86.1266 133.51,84.7932 134,83.5C 135.558,84.3452 136.558,83.6785 137,81.5C 137.816,82.8228 138.983,83.4894 140.5,83.5C 145.879,81.5865 150.879,79.0865 155.5,76C 156.337,74.9887 156.67,73.8221 156.5,72.5 Z"/></g>
<g><path style="opacity:1" fill="#121113" d="M 95.5,72.5 C 95.8333,73.1667 96.1667,73.8333 96.5,74.5C 95.8902,75.391 95.5569,76.391 95.5,77.5C 91.9564,82.8885 91.623,88.5551 94.5,94.5C 94.846,99.216 95.5127,103.883 96.5,108.5C 95.8365,110.042 95.1698,111.709 94.5,113.5C 90.5604,112.164 89.8938,112.997 92.5,116C 92,116.5 91.5,117 91,117.5C 90.5814,116.328 89.9147,115.328 89,114.5C 86.2535,116.455 83.4202,118.122 80.5,119.5C 76.4612,121.519 72.4612,123.519 68.5,125.5C 67.391,125.557 66.391,125.89 65.5,126.5C 63.2972,126.604 61.2972,127.27 59.5,128.5C 59.5,127.5 59.5,126.5 59.5,125.5C 60.2091,120.888 61.2091,116.221 62.5,111.5C 63.3414,109.621 63.6747,107.621 63.5,105.5C 64.2679,104.737 64.7679,103.737 65,102.5C 65.3333,103.167 65.6667,103.833 66,104.5C 66.7914,103.255 67.2914,101.922 67.5,100.5C 68.1667,100.167 68.8333,99.8333 69.5,99.5C 67.9055,104.07 67.0721,108.736 67,113.5C 68.2601,110.641 69.7601,107.974 71.5,105.5C 72.3764,105.369 73.0431,105.702 73.5,106.5C 71.007,109.102 69.8403,112.102 70,115.5C 71.7787,112.724 72.7787,113.057 73,116.5C 74.1853,114.623 75.1853,112.623 76,110.5C 76.414,110.957 76.914,111.291 77.5,111.5C 78.2811,110.271 78.7811,108.938 79,107.5C 79.3333,107.833 79.6667,108.167 80,108.5C 80.7884,104.427 81.7884,100.427 83,96.5C 83.7213,101.941 84.888,107.274 86.5,112.5C 87.3293,109.198 87.996,105.865 88.5,102.5C 86.4863,96.3806 85.6529,90.0473 86,83.5C 86.8372,85.8442 88.1706,87.8442 90,89.5C 89.303,86.8102 89.4697,84.1435 90.5,81.5C 91.1667,79.5 91.8333,77.5 92.5,75.5C 93.1667,74.1667 94.1667,73.1667 95.5,72.5 Z"/></g>
<g><path style="opacity:1" fill="#470404" d="M 207.5,133.5 C 204.848,133.59 202.515,132.924 200.5,131.5C 207.101,132.154 212.934,130.488 218,126.5C 218.048,119.376 218.881,112.376 220.5,105.5C 220.671,103.207 220.337,100.873 219.5,98.5C 219.486,96.3887 220.152,94.5553 221.5,93C 220.113,88.0639 219.113,82.7305 218.5,77C 218.645,75.7741 218.978,74.6074 219.5,73.5C 217.468,70.6319 215.635,67.6319 214,64.5C 209.821,61.7433 205.821,58.7433 202,55.5C 199.5,51.1667 197,46.8333 194.5,42.5C 190.813,39.6469 187.647,36.3135 185,32.5C 184.722,33.4158 184.222,34.0825 183.5,34.5C 183.5,33.1667 183.5,31.8333 183.5,30.5C 184.117,30.3893 184.617,30.056 185,29.5C 186.333,30.8333 187.667,32.1667 189,33.5C 194.531,40.0643 199.698,46.8976 204.5,54C 209.052,55.894 213.052,58.5606 216.5,62C 215.833,62.3333 215.167,62.6667 214.5,63C 217.033,65.8453 219.699,68.6786 222.5,71.5C 221.617,73.4798 221.783,75.4798 223,77.5C 224,77.5 225,77.5 226,77.5C 227.549,80.3117 228.382,83.3117 228.5,86.5C 226.571,86.2308 224.905,86.7308 223.5,88C 224.899,89.0616 225.899,90.395 226.5,92C 225.566,94.5909 224.233,96.9243 222.5,99C 222.645,99.772 222.978,100.439 223.5,101C 222.674,105.447 221.674,109.947 220.5,114.5C 221.399,118.14 221.733,121.64 221.5,125C 219.833,127.333 218.167,129.667 216.5,132C 213.522,132.696 210.522,133.196 207.5,133.5 Z"/></g>
<g><path style="opacity:1" fill="#798085" d="M 156.5,78.5 C 154.988,83.5482 153.321,88.5482 151.5,93.5C 149.296,96.4388 146.296,98.1054 142.5,98.5C 142.137,99.1835 141.804,99.8501 141.5,100.5C 140.5,100.5 139.5,100.5 138.5,100.5C 138.5,100.167 138.5,99.8333 138.5,99.5C 140.869,97.5432 143.535,95.8765 146.5,94.5C 147.489,92.4122 147.156,90.4122 145.5,88.5C 149.804,85.8621 153.471,82.5288 156.5,78.5 Z"/></g>
<g><path style="opacity:1" fill="#4e090a" d="M 71.5,86.5 C 71.5,87.1667 71.5,87.8333 71.5,88.5C 71.1667,88.5 70.8333,88.5 70.5,88.5C 69.2719,89.3065 68.2719,90.3065 67.5,91.5C 67.4379,86.9242 68.1045,82.5909 69.5,78.5C 69.369,79.2389 69.5357,79.9056 70,80.5C 70.2895,78.0481 70.9562,75.7148 72,73.5C 72.883,78.1478 72.0496,82.4812 69.5,86.5C 69.9698,87.463 70.6365,87.463 71.5,86.5 Z"/></g>
<g><path style="opacity:1" fill="#533440" d="M 70.5,88.5 C 70.8333,88.5 71.1667,88.5 71.5,88.5C 71.7489,92.4578 71.0823,96.1244 69.5,99.5C 68.8333,99.8333 68.1667,100.167 67.5,100.5C 68.7537,96.5654 69.7537,92.5654 70.5,88.5 Z"/></g>
<g><path style="opacity:1" fill="#77511c" d="M 229.5,90.5 C 230.167,90.5 230.833,90.5 231.5,90.5C 235.238,93.9103 238.238,97.9103 240.5,102.5C 239.292,103.234 237.959,103.567 236.5,103.5C 234.828,100.978 233.328,98.3118 232,95.5C 231.329,94.7476 230.496,94.4142 229.5,94.5C 228.167,93.1667 228.167,91.8333 229.5,90.5 Z"/></g>
<g><path style="opacity:1" fill="#74480d" d="M 23.5,90.5 C 24.5,90.5 25.5,90.5 26.5,90.5C 26.5,91.5 26.5,92.5 26.5,93.5C 25.8333,93.5 25.5,93.8333 25.5,94.5C 23.5895,96.2838 21.2562,97.2838 18.5,97.5C 19.7859,94.883 21.4525,92.5496 23.5,90.5 Z"/></g>
<g><path style="opacity:1" fill="#241a1d" d="M 182.5,85.5 C 185.528,92.0642 187.861,98.8975 189.5,106C 189.43,106.765 189.097,107.265 188.5,107.5C 187.559,103.675 186.226,100.009 184.5,96.5C 183.678,90.9197 182.844,90.5863 182,95.5C 179.842,91.0394 178.842,86.3727 179,81.5C 179.498,83.5444 180.665,84.8777 182.5,85.5 Z"/></g>
<g><path style="opacity:1" fill="#323c42" d="M 164.5,70.5 C 164.752,73.3198 164.252,75.9865 163,78.5C 162.333,77.8333 161.667,77.1667 161,76.5C 161.432,81.5642 161.265,86.5642 160.5,91.5C 156.441,97.2659 152.608,103.266 149,109.5C 147.629,111.041 146.129,112.375 144.5,113.5C 146.256,108.555 149.089,104.222 153,100.5C 154.528,94.0835 156.361,87.7501 158.5,81.5C 158.335,78.4816 158.502,75.4816 159,72.5C 160,73.5 161,74.5 162,75.5C 162.757,73.6854 163.59,72.0188 164.5,70.5 Z"/></g>
<g><path style="opacity:1" fill="#3f0405" d="M 231.5,90.5 C 230.833,90.5 230.167,90.5 229.5,90.5C 226.99,93.8831 227.49,97.2164 231,100.5C 232.478,113.479 231.311,126.145 227.5,138.5C 223.584,137.188 219.584,136.188 215.5,135.5C 212.505,135.706 209.838,135.04 207.5,133.5C 210.522,133.196 213.522,132.696 216.5,132C 218.167,129.667 219.833,127.333 221.5,125C 221.733,121.64 221.399,118.14 220.5,114.5C 221.674,109.947 222.674,105.447 223.5,101C 222.978,100.439 222.645,99.772 222.5,99C 224.233,96.9243 225.566,94.5909 226.5,92C 225.899,90.395 224.899,89.0616 223.5,88C 224.905,86.7308 226.571,86.2308 228.5,86.5C 228.382,83.3117 227.549,80.3117 226,77.5C 225,77.5 224,77.5 223,77.5C 221.783,75.4798 221.617,73.4798 222.5,71.5C 219.699,68.6786 217.033,65.8453 214.5,63C 215.167,62.6667 215.833,62.3333 216.5,62C 213.052,58.5606 209.052,55.894 204.5,54C 199.698,46.8976 194.531,40.0643 189,33.5C 187.667,32.1667 186.333,30.8333 185,29.5C 184.617,30.056 184.117,30.3893 183.5,30.5C 183.5,29.8333 183.5,29.1667 183.5,28.5C 184.966,27.653 185.8,26.3197 186,24.5C 195.268,33.4253 204.935,42.092 215,50.5C 218.348,54.1977 220.348,58.531 221,63.5C 222.263,66.4677 224.263,67.4677 227,66.5C 228.082,70.0281 229.415,73.6948 231,77.5C 234.807,79.1499 237.641,81.8165 239.5,85.5C 236.531,86.8068 233.865,88.4735 231.5,90.5 Z"/></g>
<g><path style="opacity:1" fill="#a6b8b9" d="M 118.5,90.5 C 118.842,91.3382 119.508,91.6716 120.5,91.5C 121.512,94.8529 123.846,96.5195 127.5,96.5C 129.577,96.3078 131.577,95.8078 133.5,95C 134.337,93.9887 134.67,92.8221 134.5,91.5C 134.833,90.5 135.5,89.8333 136.5,89.5C 137.29,88.3915 137.79,87.0581 138,85.5C 140.013,87.5325 141.513,89.8658 142.5,92.5C 141.177,94.8271 139.843,97.1604 138.5,99.5C 138.5,99.8333 138.5,100.167 138.5,100.5C 131.196,99.6979 123.862,99.3646 116.5,99.5C 116.611,98.8826 116.944,98.3826 117.5,98C 115.154,96.321 113.154,94.321 111.5,92C 112.961,89.7017 114.628,87.5351 116.5,85.5C 117.17,87.2914 117.837,88.9581 118.5,90.5 Z"/></g>
<g><path style="opacity:1" fill="#373139" d="M 136.5,89.5 C 135.5,89.8333 134.833,90.5 134.5,91.5C 132.18,92.4742 129.847,93.4742 127.5,94.5C 124.755,94.2903 122.422,93.2903 120.5,91.5C 119.508,91.6716 118.842,91.3382 118.5,90.5C 118.343,89.1266 118.51,87.7932 119,86.5C 123.242,91.3455 127.742,91.6788 132.5,87.5C 132.833,87.5 133.167,87.5 133.5,87.5C 136.044,84.6935 137.044,85.3601 136.5,89.5 Z"/></g>
<g><path style="opacity:1" fill="#585f67" d="M 120.5,91.5 C 122.422,93.2903 124.755,94.2903 127.5,94.5C 129.847,93.4742 132.18,92.4742 134.5,91.5C 134.67,92.8221 134.337,93.9887 133.5,95C 131.577,95.8078 129.577,96.3078 127.5,96.5C 123.846,96.5195 121.512,94.8529 120.5,91.5 Z"/></g>
<g><path style="opacity:1" fill="#854331" d="M 229.5,94.5 C 230.496,94.4142 231.329,94.7476 232,95.5C 233.328,98.3118 234.828,100.978 236.5,103.5C 237.11,104.391 237.443,105.391 237.5,106.5C 236.5,106.167 235.833,105.5 235.5,104.5C 233.5,101.167 231.5,97.8333 229.5,94.5 Z"/></g>
<g><path style="opacity:1" fill="#7b5931" d="M 25.5,94.5 C 24.4043,97.0316 23.0709,99.3649 21.5,101.5C 21.5654,101.062 21.3988,100.728 21,100.5C 20.1482,101.571 19.3149,102.571 18.5,103.5C 17.391,103.443 16.391,103.11 15.5,102.5C 15.8333,101.167 16.1667,99.8333 16.5,98.5C 17.1667,98.1667 17.8333,97.8333 18.5,97.5C 21.2562,97.2838 23.5895,96.2838 25.5,94.5 Z"/></g>
<g><path style="opacity:1" fill="#993032" d="M 70.5,88.5 C 69.7537,92.5654 68.7537,96.5654 67.5,100.5C 67.2914,101.922 66.7914,103.255 66,104.5C 65.6667,103.833 65.3333,103.167 65,102.5C 64.7679,103.737 64.2679,104.737 63.5,105.5C 64.6239,100.793 65.9572,96.1258 67.5,91.5C 68.2719,90.3065 69.2719,89.3065 70.5,88.5 Z"/></g>
<g><path style="opacity:1" fill="#121d26" d="M 175.5,73.5 C 175.833,73.5 176.167,73.5 176.5,73.5C 176.335,76.5184 176.502,79.5184 177,82.5C 179.276,91.8309 181.443,101.164 183.5,110.5C 183.649,111.552 183.483,112.552 183,113.5C 182.29,112.027 181.124,111.36 179.5,111.5C 178.71,112.609 178.21,113.942 178,115.5C 174.947,112.113 172.28,108.447 170,104.5C 169.667,107.167 169.333,109.833 169,112.5C 168.333,107.167 168.333,101.833 169,96.5C 169.667,95.1667 170.333,95.1667 171,96.5C 170.954,94.6874 171.12,93.0207 171.5,91.5C 172.485,93.772 173.319,96.1053 174,98.5C 174.378,90.152 174.878,81.8186 175.5,73.5 Z"/></g>
<g><path style="opacity:1" fill="#ba3232" d="M 184.5,96.5 C 186.226,100.009 187.559,103.675 188.5,107.5C 188.5,108.167 188.833,108.5 189.5,108.5C 189.5,109.833 189.5,111.167 189.5,112.5C 189.672,113.492 189.338,114.158 188.5,114.5C 188.567,113.041 188.234,111.708 187.5,110.5C 186.279,106.336 184.946,102.169 183.5,98C 183.57,97.2352 183.903,96.7352 184.5,96.5 Z"/></g>
<g><path style="opacity:1" fill="#b58f3b" d="M 15.5,102.5 C 16.391,103.11 17.391,103.443 18.5,103.5C 17.7368,105.368 16.7368,107.035 15.5,108.5C 15.1959,106.204 14.1959,105.871 12.5,107.5C 12.7497,105.326 13.7497,103.659 15.5,102.5 Z"/></g>
<g><path style="opacity:1" fill="#45575d" d="M 95.5,77.5 C 94.5883,80.535 94.5883,83.535 95.5,86.5C 97.4177,90.0039 99.5843,93.3372 102,96.5C 105.603,97.1352 109.103,97.8018 112.5,98.5C 108.553,99.6298 108.719,100.63 113,101.5C 114.306,104.621 116.14,107.287 118.5,109.5C 119.398,111.627 121.064,112.794 123.5,113C 127.524,113.497 131.524,113.331 135.5,112.5C 134.5,113.167 133.5,113.833 132.5,114.5C 131.833,114.5 131.167,114.5 130.5,114.5C 125.768,114.622 121.102,114.122 116.5,113C 115.347,111.117 113.681,110.284 111.5,110.5C 111.325,113.329 112.658,114.996 115.5,115.5C 116.26,117.36 117.26,119.027 118.5,120.5C 113.928,117.437 109.761,113.77 106,109.5C 101.662,104.792 97.8284,99.7916 94.5,94.5C 91.623,88.5551 91.9564,82.8885 95.5,77.5 Z"/></g>
<g><path style="opacity:1" fill="#bc8b3f" d="M 240.5,102.5 C 241.512,103.872 242.512,105.205 243.5,106.5C 243.5,107.167 243.5,107.833 243.5,108.5C 242.292,107.766 240.959,107.433 239.5,107.5C 239.5,108.833 239.5,110.167 239.5,111.5C 238.833,111.5 238.5,111.167 238.5,110.5C 238.167,109.167 237.833,107.833 237.5,106.5C 237.443,105.391 237.11,104.391 236.5,103.5C 237.959,103.567 239.292,103.234 240.5,102.5 Z"/></g>
<g><path style="opacity:1" fill="#c45438" d="M 21.5,101.5 C 19.7328,103.938 18.3994,106.605 17.5,109.5C 16.1667,112.5 14.8333,115.5 13.5,118.5C 13.9595,115.123 14.6261,111.789 15.5,108.5C 16.7368,107.035 17.7368,105.368 18.5,103.5C 19.3149,102.571 20.1482,101.571 21,100.5C 21.3988,100.728 21.5654,101.062 21.5,101.5 Z"/></g>
<g><path style="opacity:1" fill="#516365" d="M 158.5,81.5 C 156.361,87.7501 154.528,94.0835 153,100.5C 149.089,104.222 146.256,108.555 144.5,113.5C 143.167,115.5 141.5,117.167 139.5,118.5C 139.704,115.446 141.038,112.946 143.5,111C 143.167,110.5 142.833,110 142.5,109.5C 140.338,111.02 138.005,112.02 135.5,112.5C 136.441,110.95 137.107,109.284 137.5,107.5C 138.833,105.833 140.167,104.167 141.5,102.5C 142.833,101.833 142.833,101.167 141.5,100.5C 141.804,99.8501 142.137,99.1835 142.5,98.5C 146.296,98.1054 149.296,96.4388 151.5,93.5C 154.21,89.6864 156.543,85.6864 158.5,81.5 Z"/></g>
<g><path style="opacity:1" fill="#141516" d="M 96.5,108.5 C 96.5,109.167 96.8333,109.5 97.5,109.5C 100.427,123.085 108.427,131.752 121.5,135.5C 119.824,136.183 119.157,137.517 119.5,139.5C 117.565,138.85 115.565,138.517 113.5,138.5C 109.374,138.428 105.374,137.761 101.5,136.5C 101.351,137.552 101.517,138.552 102,139.5C 104.015,140.697 105.849,142.03 107.5,143.5C 106.5,143.5 105.5,143.5 104.5,143.5C 102.571,141.852 100.571,140.185 98.5,138.5C 97.7025,138.957 97.3691,139.624 97.5,140.5C 95.6366,138.295 93.3033,136.961 90.5,136.5C 90.4003,139.108 91.0669,141.442 92.5,143.5C 90.1667,143.5 87.8333,143.5 85.5,143.5C 86.7401,142.027 87.7401,140.36 88.5,138.5C 88.1667,138.167 87.8333,137.833 87.5,137.5C 86.4822,138.193 85.4822,138.859 84.5,139.5C 84.5,138.833 84.5,138.167 84.5,137.5C 86.2727,135.4 86.606,133.066 85.5,130.5C 82.8136,132.856 80.147,135.189 77.5,137.5C 76.8333,137.5 76.1667,137.5 75.5,137.5C 76.5,136.167 77.5,134.833 78.5,133.5C 80.0709,131.365 81.4043,129.032 82.5,126.5C 85.4801,123.108 84.8135,120.775 80.5,119.5C 83.4202,118.122 86.2535,116.455 89,114.5C 89.9147,115.328 90.5814,116.328 91,117.5C 91.5,117 92,116.5 92.5,116C 89.8938,112.997 90.5604,112.164 94.5,113.5C 95.1698,111.709 95.8365,110.042 96.5,108.5 Z"/></g>
<g><path style="opacity:1" fill="#172730" d="M 160.5,91.5 C 158.856,96.6967 157.856,102.03 157.5,107.5C 156.732,106.737 156.232,105.737 156,104.5C 152.045,109.578 148.211,114.744 144.5,120C 141.048,120.892 138.048,122.558 135.5,125C 130.89,126.29 126.223,126.624 121.5,126C 112.514,122.174 105.181,116.34 99.5,108.5C 98.0119,105.814 97.3453,106.147 97.5,109.5C 96.8333,109.5 96.5,109.167 96.5,108.5C 95.5127,103.883 94.846,99.216 94.5,94.5C 97.8284,99.7916 101.662,104.792 106,109.5C 109.761,113.77 113.928,117.437 118.5,120.5C 119.058,121.79 120.058,122.623 121.5,123C 128.439,124.676 134.439,123.176 139.5,118.5C 141.5,117.167 143.167,115.5 144.5,113.5C 146.129,112.375 147.629,111.041 149,109.5C 152.608,103.266 156.441,97.2659 160.5,91.5 Z"/></g>
<g><path style="opacity:1" fill="#1d2428" d="M 137.5,107.5 C 137.107,109.284 136.441,110.95 135.5,112.5C 131.524,113.331 127.524,113.497 123.5,113C 121.064,112.794 119.398,111.627 118.5,109.5C 122.965,110.736 127.299,110.736 131.5,109.5C 133.858,109.747 135.858,109.081 137.5,107.5 Z"/></g>
<g><path style="opacity:1" fill="#724151" d="M 141.5,102.5 C 140.167,104.167 138.833,105.833 137.5,107.5C 135.858,109.081 133.858,109.747 131.5,109.5C 127.958,109.813 124.625,109.479 121.5,108.5C 124.85,108.665 128.183,108.498 131.5,108C 132.056,107.617 132.389,107.117 132.5,106.5C 134.031,105.075 133.698,104.409 131.5,104.5C 134.627,103.419 137.96,102.753 141.5,102.5 Z"/></g>
<g><path style="opacity:1" fill="#e5bace" d="M 124.5,104.5 C 126.833,104.5 129.167,104.5 131.5,104.5C 133.698,104.409 134.031,105.075 132.5,106.5C 128.901,107.344 125.234,107.677 121.5,107.5C 121.5,106.5 121.5,105.5 121.5,104.5C 122.5,104.5 123.5,104.5 124.5,104.5 Z"/></g>
<g><path style="opacity:1" fill="#965d73" d="M 124.5,104.5 C 123.5,104.5 122.5,104.5 121.5,104.5C 121.5,105.5 121.5,106.5 121.5,107.5C 125.234,107.677 128.901,107.344 132.5,106.5C 132.389,107.117 132.056,107.617 131.5,108C 128.183,108.498 124.85,108.665 121.5,108.5C 119.095,107.602 117.095,106.102 115.5,104C 118.696,103.195 121.696,103.362 124.5,104.5 Z"/></g>
<g><path style="opacity:1" fill="#3b1c29" d="M 112.5,98.5 C 112.833,98.5 113.167,98.5 113.5,98.5C 114.209,99.404 115.209,99.7373 116.5,99.5C 123.862,99.3646 131.196,99.6979 138.5,100.5C 139.5,100.5 140.5,100.5 141.5,100.5C 142.833,101.167 142.833,101.833 141.5,102.5C 137.96,102.753 134.627,103.419 131.5,104.5C 129.167,104.5 126.833,104.5 124.5,104.5C 121.696,103.362 118.696,103.195 115.5,104C 117.095,106.102 119.095,107.602 121.5,108.5C 124.625,109.479 127.958,109.813 131.5,109.5C 127.299,110.736 122.965,110.736 118.5,109.5C 116.14,107.287 114.306,104.621 113,101.5C 108.719,100.63 108.553,99.6298 112.5,98.5 Z"/></g>
<g><path style="opacity:1" fill="#daab49" d="M 15.5,108.5 C 14.6261,111.789 13.9595,115.123 13.5,118.5C 13.5,119.167 13.5,119.833 13.5,120.5C 12.1986,121.64 11.0319,122.973 10,124.5C 9.50258,121.854 9.33591,119.187 9.5,116.5C 9.90487,113.285 10.9049,110.285 12.5,107.5C 14.1959,105.871 15.1959,106.204 15.5,108.5 Z"/></g>
<g><path style="opacity:1" fill="#161718" d="M 189.5,108.5 C 190.167,109.167 190.833,109.833 191.5,110.5C 191.674,112.861 192.007,115.194 192.5,117.5C 192.5,121.5 192.5,125.5 192.5,129.5C 185.147,127.324 178.147,124.324 171.5,120.5C 170.791,119.596 169.791,119.263 168.5,119.5C 168.479,126.44 170.812,132.44 175.5,137.5C 175.5,138.167 175.5,138.833 175.5,139.5C 174.206,138.71 173.039,137.71 172,136.5C 171.536,137.094 171.369,137.761 171.5,138.5C 170.288,137.77 169.288,136.77 168.5,135.5C 167.614,136.325 167.281,137.325 167.5,138.5C 166.518,137.859 165.518,137.193 164.5,136.5C 163.893,136.624 163.56,136.957 163.5,137.5C 159.932,137.759 158.599,139.759 159.5,143.5C 157.167,143.5 154.833,143.5 152.5,143.5C 153.942,142.18 154.608,140.514 154.5,138.5C 151.733,138.858 149.067,139.525 146.5,140.5C 146.38,139.414 145.713,138.747 144.5,138.5C 143.151,138.846 141.817,139.179 140.5,139.5C 142.039,137.471 144.039,135.971 146.5,135C 144.75,133.681 142.75,133.181 140.5,133.5C 140.5,133.167 140.5,132.833 140.5,132.5C 153.078,130.934 159.078,123.934 158.5,111.5C 162.52,113.009 166.187,115.176 169.5,118C 173.773,119.39 177.939,119.89 182,119.5C 182.87,118.892 183.37,118.059 183.5,117C 182.35,115.019 181.016,113.186 179.5,111.5C 181.124,111.36 182.29,112.027 183,113.5C 183.483,112.552 183.649,111.552 183.5,110.5C 184.927,112.148 185.76,114.148 186,116.5C 186.191,114.292 186.691,112.292 187.5,110.5C 188.234,111.708 188.567,113.041 188.5,114.5C 188.192,116.924 188.526,119.257 189.5,121.5C 190.803,118.355 190.803,115.355 189.5,112.5C 189.5,111.167 189.5,109.833 189.5,108.5 Z"/></g>
<g><path style="opacity:1" fill="#612629" d="M 189.5,112.5 C 190.803,115.355 190.803,118.355 189.5,121.5C 188.526,119.257 188.192,116.924 188.5,114.5C 189.338,114.158 189.672,113.492 189.5,112.5 Z"/></g>
<g><path style="opacity:1" fill="#e3b44e" d="M 243.5,108.5 C 244.566,110.701 245.233,113.035 245.5,115.5C 245.819,117.75 245.319,119.75 244,121.5C 243.95,119.256 243.117,117.589 241.5,116.5C 241.5,115.833 241.167,115.5 240.5,115.5C 240.768,113.901 240.434,112.568 239.5,111.5C 239.5,110.167 239.5,108.833 239.5,107.5C 240.959,107.433 242.292,107.766 243.5,108.5 Z"/></g>
<g><path style="opacity:1" fill="#261b1b" d="M 26.5,93.5 C 24.3074,104.875 23.9741,116.209 25.5,127.5C 25.5,128.5 25.5,129.5 25.5,130.5C 24.8826,130.611 24.3826,130.944 24,131.5C 23.5045,133.473 23.3379,135.473 23.5,137.5C 21.5,137.5 19.5,137.5 17.5,137.5C 16.5751,127.973 16.5751,118.64 17.5,109.5C 18.3994,106.605 19.7328,103.938 21.5,101.5C 23.0709,99.3649 24.4043,97.0316 25.5,94.5C 25.5,93.8333 25.8333,93.5 26.5,93.5 Z"/></g>
<g><path style="opacity:1" fill="#440f10" d="M 62.5,111.5 C 61.2091,116.221 60.2091,120.888 59.5,125.5C 59.3178,120.206 58.8178,120.206 58,125.5C 57.3333,123.167 57.3333,120.833 58,118.5C 59.3989,115.637 60.3989,112.637 61,109.5C 61.2784,110.416 61.7784,111.082 62.5,111.5 Z"/></g>
<g><path style="opacity:1" fill="#334951" d="M 80.5,119.5 C 84.8135,120.775 85.4801,123.108 82.5,126.5C 82.5,125.5 82.5,124.5 82.5,123.5C 77.6812,123.352 73.0145,124.018 68.5,125.5C 72.4612,123.519 76.4612,121.519 80.5,119.5 Z"/></g>
<g><path style="opacity:1" fill="#3a4f59" d="M 158.5,110.5 C 158.5,110.833 158.5,111.167 158.5,111.5C 159.078,123.934 153.078,130.934 140.5,132.5C 142.731,130.799 145.231,129.466 148,128.5C 150.196,123.58 152.196,118.58 154,113.5C 155.129,111.859 156.629,110.859 158.5,110.5 Z"/></g>
<g><path style="opacity:1" fill="#5e3123" d="M 240.5,115.5 C 241.167,115.5 241.5,115.833 241.5,116.5C 242.15,118.435 242.483,120.435 242.5,122.5C 241.076,120.485 240.41,118.152 240.5,115.5 Z"/></g>
<g><path style="opacity:1" fill="#ae7e2e" d="M 245.5,115.5 C 246.434,116.568 246.768,117.901 246.5,119.5C 246.664,122.187 246.497,124.854 246,127.5C 245.451,125.24 244.284,123.574 242.5,122.5C 242.483,120.435 242.15,118.435 241.5,116.5C 243.117,117.589 243.95,119.256 244,121.5C 245.319,119.75 245.819,117.75 245.5,115.5 Z"/></g>
<g><path style="opacity:1" fill="#7b4d15" d="M 4.5,128.5 C 3.83333,130.5 3.16667,132.5 2.5,134.5C 1.87605,134.083 1.54272,133.416 1.5,132.5C 2.37355,128.131 3.37355,123.798 4.5,119.5C 5.6435,122.498 5.6435,125.498 4.5,128.5 Z"/></g>
<g><path style="opacity:1" fill="#617b80" d="M 82.5,126.5 C 81.4043,129.032 80.0709,131.365 78.5,133.5C 77.8288,132.153 77.8288,130.986 78.5,130C 75.251,127.227 71.5844,126.727 67.5,128.5C 63.9206,130.755 60.2539,132.922 56.5,135C 52.1794,135.499 47.8461,135.666 43.5,135.5C 46.9032,134.075 50.5698,133.242 54.5,133C 58.0612,130.547 61.7279,128.381 65.5,126.5C 66.391,125.89 67.391,125.557 68.5,125.5C 73.0145,124.018 77.6812,123.352 82.5,123.5C 82.5,124.5 82.5,125.5 82.5,126.5 Z"/></g>
<g><path style="opacity:1" fill="#5f787c" d="M 92.5,118.5 C 93.4959,118.414 94.3292,118.748 95,119.5C 99.9982,127.524 99.3315,128.191 93,121.5C 92.5172,120.552 92.3505,119.552 92.5,118.5 Z"/></g>
<g><path style="opacity:1" fill="#1a3140" d="M 157.5,107.5 C 158.404,108.209 158.737,109.209 158.5,110.5C 156.629,110.859 155.129,111.859 154,113.5C 152.196,118.58 150.196,123.58 148,128.5C 145.231,129.466 142.731,130.799 140.5,132.5C 140.5,132.833 140.5,133.167 140.5,133.5C 138.565,134.15 136.565,134.483 134.5,134.5C 127.567,133.199 121.234,130.532 115.5,126.5C 114.833,126.833 114.167,127.167 113.5,127.5C 107.594,121.997 102.927,115.663 99.5,108.5C 105.181,116.34 112.514,122.174 121.5,126C 126.223,126.624 130.89,126.29 135.5,125C 138.048,122.558 141.048,120.892 144.5,120C 148.211,114.744 152.045,109.578 156,104.5C 156.232,105.737 156.732,106.737 157.5,107.5 Z"/></g>
<g><path style="opacity:1" fill="#577279" d="M 139.5,118.5 C 134.439,123.176 128.439,124.676 121.5,123C 120.058,122.623 119.058,121.79 118.5,120.5C 117.26,119.027 116.26,117.36 115.5,115.5C 112.658,114.996 111.325,113.329 111.5,110.5C 113.681,110.284 115.347,111.117 116.5,113C 121.102,114.122 125.768,114.622 130.5,114.5C 127.038,115.482 123.371,115.815 119.5,115.5C 119.33,116.822 119.663,117.989 120.5,119C 125.73,122.088 131.064,122.255 136.5,119.5C 137.452,117.955 137.785,116.288 137.5,114.5C 135.833,114.5 134.167,114.5 132.5,114.5C 133.5,113.833 134.5,113.167 135.5,112.5C 138.005,112.02 140.338,111.02 142.5,109.5C 142.833,110 143.167,110.5 143.5,111C 141.038,112.946 139.704,115.446 139.5,118.5 Z"/></g>
<g><path style="opacity:1" fill="#84a1a9" d="M 130.5,114.5 C 131.167,114.5 131.833,114.5 132.5,114.5C 134.167,114.5 135.833,114.5 137.5,114.5C 137.785,116.288 137.452,117.955 136.5,119.5C 131.064,122.255 125.73,122.088 120.5,119C 119.663,117.989 119.33,116.822 119.5,115.5C 123.371,115.815 127.038,115.482 130.5,114.5 Z"/></g>
<g><path style="opacity:1" fill="#2a2121" d="M 235.5,104.5 C 235.833,105.5 236.5,106.167 237.5,106.5C 237.833,107.833 238.167,109.167 238.5,110.5C 237.508,118.316 237.174,126.316 237.5,134.5C 234.52,134.359 232.52,132.859 231.5,130C 232.457,121.542 232.79,113.042 232.5,104.5C 233.5,104.5 234.5,104.5 235.5,104.5 Z"/></g>
<g><path style="opacity:1" fill="#764914" d="M 253.5,131.5 C 253.672,132.492 253.338,133.158 252.5,133.5C 251.37,131.685 250.704,129.685 250.5,127.5C 250.672,126.508 250.338,125.842 249.5,125.5C 249.201,123.396 249.534,121.396 250.5,119.5C 251.756,123.447 252.756,127.447 253.5,131.5 Z"/></g>
<g><path style="opacity:1" fill="#2d404c" d="M 99.5,108.5 C 102.927,115.663 107.594,121.997 113.5,127.5C 114.167,127.167 114.833,126.833 115.5,126.5C 121.234,130.532 127.567,133.199 134.5,134.5C 130.366,135.485 126.032,135.818 121.5,135.5C 108.427,131.752 100.427,123.085 97.5,109.5C 97.3453,106.147 98.0119,105.814 99.5,108.5 Z"/></g>
<g><path style="opacity:1" fill="#804d17" d="M 246.5,119.5 C 247.612,121.599 248.279,123.933 248.5,126.5C 248.5,132.167 248.5,137.833 248.5,143.5C 247.167,143.5 245.833,143.5 244.5,143.5C 244.95,136.351 244.284,129.351 242.5,122.5C 244.284,123.574 245.451,125.24 246,127.5C 246.497,124.854 246.664,122.187 246.5,119.5 Z"/></g>
<g><path style="opacity:1" fill="#1f1211" d="M 229.5,90.5 C 228.167,91.8333 228.167,93.1667 229.5,94.5C 231.5,97.8333 233.5,101.167 235.5,104.5C 234.5,104.5 233.5,104.5 232.5,104.5C 232.79,113.042 232.457,121.542 231.5,130C 232.52,132.859 234.52,134.359 237.5,134.5C 237.174,126.316 237.508,118.316 238.5,110.5C 238.5,111.167 238.833,111.5 239.5,111.5C 240.434,112.568 240.768,113.901 240.5,115.5C 240.41,118.152 241.076,120.485 242.5,122.5C 244.284,129.351 244.95,136.351 244.5,143.5C 241.167,143.5 237.833,143.5 234.5,143.5C 232.343,141.588 230.009,139.921 227.5,138.5C 231.311,126.145 232.478,113.479 231,100.5C 227.49,97.2164 226.99,93.8831 229.5,90.5 Z"/></g>
<g><path style="opacity:1" fill="#21100b" d="M 4.5,128.5 C 5.16667,128.5 5.83333,128.5 6.5,128.5C 6.5,133.5 6.5,138.5 6.5,143.5C 4.83333,143.5 3.16667,143.5 1.5,143.5C 1.26414,140.391 1.59748,137.391 2.5,134.5C 3.16667,132.5 3.83333,130.5 4.5,128.5 Z"/></g>
<g><path style="opacity:1" fill="#865414" d="M 9.5,116.5 C 9.33591,119.187 9.50258,121.854 10,124.5C 11.0319,122.973 12.1986,121.64 13.5,120.5C 12.8333,123.5 12.1667,126.5 11.5,129.5C 10.6787,132.641 10.1787,135.975 10,139.5C 9.58605,139.957 9.08605,140.291 8.5,140.5C 7.60787,133.853 7.60787,127.186 8.5,120.5C 8.23219,118.901 8.56552,117.568 9.5,116.5 Z"/></g>
<g><path style="opacity:1" fill="#513723" d="M 249.5,125.5 C 250.338,125.842 250.672,126.508 250.5,127.5C 249.512,132.64 249.179,137.974 249.5,143.5C 249.167,143.5 248.833,143.5 248.5,143.5C 248.5,137.833 248.5,132.167 248.5,126.5C 249.167,126.5 249.5,126.167 249.5,125.5 Z"/></g>
<g><path style="opacity:1" fill="#1b0d0d" d="M 17.5,109.5 C 16.5751,118.64 16.5751,127.973 17.5,137.5C 19.5,137.5 21.5,137.5 23.5,137.5C 23.3379,135.473 23.5045,133.473 24,131.5C 24.3826,130.944 24.8826,130.611 25.5,130.5C 25.937,133.225 27.2704,135.225 29.5,136.5C 25.2042,138.315 21.2042,140.648 17.5,143.5C 15.5,143.5 13.5,143.5 11.5,143.5C 11.5,138.833 11.5,134.167 11.5,129.5C 12.1667,126.5 12.8333,123.5 13.5,120.5C 13.5,119.833 13.5,119.167 13.5,118.5C 14.8333,115.5 16.1667,112.5 17.5,109.5 Z"/></g>
<g><path style="opacity:1" fill="#4d5a5f" d="M 65.5,126.5 C 61.7279,128.381 58.0612,130.547 54.5,133C 50.5698,133.242 46.9032,134.075 43.5,135.5C 36.8668,136.814 30.8668,139.481 25.5,143.5C 22.8333,143.5 20.1667,143.5 17.5,143.5C 21.2042,140.648 25.2042,138.315 29.5,136.5C 31.3057,135.976 32.9724,135.309 34.5,134.5C 34.8333,134.5 35.1667,134.5 35.5,134.5C 43.5344,132.627 51.5344,130.627 59.5,128.5C 61.2972,127.27 63.2972,126.604 65.5,126.5 Z"/></g>
<g><path style="opacity:1" fill="#21353f" d="M 84.5,137.5 C 84.728,135.645 84.0613,134.812 82.5,135C 79.8107,137.548 77.4774,140.382 75.5,143.5C 74.5,143.5 73.5,143.5 72.5,143.5C 74.1667,141.5 75.8333,139.5 77.5,137.5C 80.147,135.189 82.8136,132.856 85.5,130.5C 86.606,133.066 86.2727,135.4 84.5,137.5 Z"/></g>
<g><path style="opacity:1" fill="#552222" d="M 140.5,133.5 C 142.75,133.181 144.75,133.681 146.5,135C 144.039,135.971 142.039,137.471 140.5,139.5C 137.763,139.401 135.096,139.735 132.5,140.5C 133.598,139.603 133.598,138.77 132.5,138C 129.118,137.176 125.784,137.343 122.5,138.5C 123.243,139.182 123.909,139.849 124.5,140.5C 122.708,140.634 121.042,140.301 119.5,139.5C 119.157,137.517 119.824,136.183 121.5,135.5C 126.032,135.818 130.366,135.485 134.5,134.5C 136.565,134.483 138.565,134.15 140.5,133.5 Z"/></g>
<g><path style="opacity:1" fill="#749396" d="M 171.5,120.5 C 171.833,122.5 172.167,124.5 172.5,126.5C 175.607,126.351 178.607,126.851 181.5,128C 191.382,131.407 201.048,135.407 210.5,140C 207.243,141.043 203.91,141.543 200.5,141.5C 196.58,139.962 192.58,138.128 188.5,136C 184.142,135.212 179.809,134.378 175.5,133.5C 175.094,134.557 175.094,135.891 175.5,137.5C 170.812,132.44 168.479,126.44 168.5,119.5C 169.791,119.263 170.791,119.596 171.5,120.5 Z"/></g>
<g><path style="opacity:1" fill="#5b7377" d="M 171.5,120.5 C 178.147,124.324 185.147,127.324 192.5,129.5C 194.379,130.341 196.379,130.675 198.5,130.5C 198.842,131.338 199.508,131.672 200.5,131.5C 202.515,132.924 204.848,133.59 207.5,133.5C 209.838,135.04 212.505,135.706 215.5,135.5C 216.479,137.145 217.812,138.479 219.5,139.5C 222.502,140.334 225.168,141.667 227.5,143.5C 215.167,143.5 202.833,143.5 190.5,143.5C 193.507,141.825 196.84,141.159 200.5,141.5C 203.91,141.543 207.243,141.043 210.5,140C 201.048,135.407 191.382,131.407 181.5,128C 178.607,126.851 175.607,126.351 172.5,126.5C 172.167,124.5 171.833,122.5 171.5,120.5 Z"/></g>
<g><path style="opacity:1" fill="#592510" d="M 253.5,131.5 C 254.167,132.5 254.833,133.5 255.5,134.5C 255.5,137.5 255.5,140.5 255.5,143.5C 254.833,143.5 254.167,143.5 253.5,143.5C 253.658,140.098 253.324,136.764 252.5,133.5C 253.338,133.158 253.672,132.492 253.5,131.5 Z"/></g>
<g><path style="opacity:1" fill="#738d90" d="M 78.5,133.5 C 77.5,134.833 76.5,136.167 75.5,137.5C 75.1667,137.5 74.8333,137.5 74.5,137.5C 74.762,136.022 74.4287,134.689 73.5,133.5C 71.5,132.833 69.5,132.167 67.5,131.5C 64.4101,133.389 61.2434,135.055 58,136.5C 58.4969,138.198 58.3302,139.865 57.5,141.5C 58.2427,142.182 58.9094,142.849 59.5,143.5C 48.1667,143.5 36.8333,143.5 25.5,143.5C 30.8668,139.481 36.8668,136.814 43.5,135.5C 47.8461,135.666 52.1794,135.499 56.5,135C 60.2539,132.922 63.9206,130.755 67.5,128.5C 71.5844,126.727 75.251,127.227 78.5,130C 77.8288,130.986 77.8288,132.153 78.5,133.5 Z"/></g>
<g><path style="opacity:1" fill="#8ea9ab" d="M 74.5,137.5 C 72.8061,139.861 70.8061,141.861 68.5,143.5C 65.5,143.5 62.5,143.5 59.5,143.5C 58.9094,142.849 58.2427,142.182 57.5,141.5C 58.3302,139.865 58.4969,138.198 58,136.5C 61.2434,135.055 64.4101,133.389 67.5,131.5C 69.5,132.167 71.5,132.833 73.5,133.5C 74.4287,134.689 74.762,136.022 74.5,137.5 Z"/></g>
<g><path style="opacity:1" fill="#435b64" d="M 84.5,137.5 C 84.5,138.167 84.5,138.833 84.5,139.5C 83.3995,140.605 82.7329,141.938 82.5,143.5C 80.1667,143.5 77.8333,143.5 75.5,143.5C 77.4774,140.382 79.8107,137.548 82.5,135C 84.0613,134.812 84.728,135.645 84.5,137.5 Z"/></g>
<g><path style="opacity:1" fill="#47555b" d="M 215.5,135.5 C 219.584,136.188 223.584,137.188 227.5,138.5C 230.009,139.921 232.343,141.588 234.5,143.5C 232.167,143.5 229.833,143.5 227.5,143.5C 225.168,141.667 222.502,140.334 219.5,139.5C 217.812,138.479 216.479,137.145 215.5,135.5 Z"/></g>
<g><path style="opacity:1" fill="#1a0705" d="M 250.5,127.5 C 250.704,129.685 251.37,131.685 252.5,133.5C 253.324,136.764 253.658,140.098 253.5,143.5C 252.167,143.5 250.833,143.5 249.5,143.5C 249.179,137.974 249.512,132.64 250.5,127.5 Z"/></g>
<g><path style="opacity:1" fill="#482122" d="M 97.5,140.5 C 98.8333,141.167 99.8333,142.167 100.5,143.5C 97.8333,143.5 95.1667,143.5 92.5,143.5C 91.0669,141.442 90.4003,139.108 90.5,136.5C 93.3033,136.961 95.6366,138.295 97.5,140.5 Z"/></g>
<g><path style="opacity:1" fill="#7f2827" d="M 132.5,140.5 C 129.833,140.5 127.167,140.5 124.5,140.5C 123.909,139.849 123.243,139.182 122.5,138.5C 125.784,137.343 129.118,137.176 132.5,138C 133.598,138.77 133.598,139.603 132.5,140.5 Z"/></g>
<g><path style="opacity:1" fill="#4c2a2c" d="M 167.5,138.5 C 168.167,140.167 168.833,141.833 169.5,143.5C 168.833,143.5 168.167,143.5 167.5,143.5C 167.778,141.654 167.111,140.32 165.5,139.5C 164.614,140.325 164.281,141.325 164.5,142.5C 163.549,141.081 163.216,139.415 163.5,137.5C 163.56,136.957 163.893,136.624 164.5,136.5C 165.518,137.193 166.518,137.859 167.5,138.5 Z"/></g>
<g><path style="opacity:1" fill="#3b5057" d="M 171.5,138.5 C 172.248,140.332 173.248,141.999 174.5,143.5C 172.833,143.5 171.167,143.5 169.5,143.5C 168.833,141.833 168.167,140.167 167.5,138.5C 167.281,137.325 167.614,136.325 168.5,135.5C 169.288,136.77 170.288,137.77 171.5,138.5 Z"/></g>
<g><path style="opacity:1" fill="#8fa7aa" d="M 200.5,141.5 C 196.84,141.159 193.507,141.825 190.5,143.5C 186.5,143.5 182.5,143.5 178.5,143.5C 178.262,141.596 177.262,140.262 175.5,139.5C 175.5,138.833 175.5,138.167 175.5,137.5C 175.094,135.891 175.094,134.557 175.5,133.5C 179.809,134.378 184.142,135.212 188.5,136C 192.58,138.128 196.58,139.962 200.5,141.5 Z"/></g>
<g><path style="opacity:1" fill="#492426" d="M 85.5,143.5 C 84.5,143.5 83.5,143.5 82.5,143.5C 82.7329,141.938 83.3995,140.605 84.5,139.5C 85.4822,138.859 86.4822,138.193 87.5,137.5C 87.8333,137.833 88.1667,138.167 88.5,138.5C 87.7401,140.36 86.7401,142.027 85.5,143.5 Z"/></g>
<g><path style="opacity:1" fill="#3a1a1a" d="M 113.5,138.5 C 116.479,139.808 119.146,141.475 121.5,143.5C 116.833,143.5 112.167,143.5 107.5,143.5C 105.849,142.03 104.015,140.697 102,139.5C 101.517,138.552 101.351,137.552 101.5,136.5C 105.374,137.761 109.374,138.428 113.5,138.5 Z"/></g>
<g><path style="opacity:1" fill="#492020" d="M 152.5,143.5 C 148.5,143.5 144.5,143.5 140.5,143.5C 142.426,142.514 144.426,141.514 146.5,140.5C 149.067,139.525 151.733,138.858 154.5,138.5C 154.608,140.514 153.942,142.18 152.5,143.5 Z"/></g>
<g><path style="opacity:1" fill="#85393b" d="M 175.5,139.5 C 177.262,140.262 178.262,141.596 178.5,143.5C 177.167,143.5 175.833,143.5 174.5,143.5C 173.248,141.999 172.248,140.332 171.5,138.5C 171.369,137.761 171.536,137.094 172,136.5C 173.039,137.71 174.206,138.71 175.5,139.5 Z"/></g>
<g><path style="opacity:1" fill="#744423" d="M 8.5,120.5 C 7.60787,127.186 7.60787,133.853 8.5,140.5C 9.08605,140.291 9.58605,139.957 10,139.5C 10.1787,135.975 10.6787,132.641 11.5,129.5C 11.5,134.167 11.5,138.833 11.5,143.5C 9.83333,143.5 8.16667,143.5 6.5,143.5C 6.5,138.5 6.5,133.5 6.5,128.5C 6.56513,125.572 7.2318,122.905 8.5,120.5 Z"/></g>
<g><path style="opacity:1" fill="#667575" d="M 104.5,143.5 C 103.167,143.5 101.833,143.5 100.5,143.5C 99.8333,142.167 98.8333,141.167 97.5,140.5C 97.3691,139.624 97.7025,138.957 98.5,138.5C 100.571,140.185 102.571,141.852 104.5,143.5 Z"/></g>
<g><path style="opacity:1" fill="#30404a" d="M 113.5,138.5 C 115.565,138.517 117.565,138.85 119.5,139.5C 121.042,140.301 122.708,140.634 124.5,140.5C 127.167,140.5 129.833,140.5 132.5,140.5C 135.096,139.735 137.763,139.401 140.5,139.5C 141.817,139.179 143.151,138.846 144.5,138.5C 145.713,138.747 146.38,139.414 146.5,140.5C 144.426,141.514 142.426,142.514 140.5,143.5C 134.167,143.5 127.833,143.5 121.5,143.5C 119.146,141.475 116.479,139.808 113.5,138.5 Z"/></g>
<g><path style="opacity:1" fill="#445157" d="M 163.5,137.5 C 163.216,139.415 163.549,141.081 164.5,142.5C 164.5,142.833 164.5,143.167 164.5,143.5C 162.833,143.5 161.167,143.5 159.5,143.5C 158.599,139.759 159.932,137.759 163.5,137.5 Z"/></g>
<g><path style="opacity:1" fill="#8b383b" d="M 167.5,143.5 C 166.5,143.5 165.5,143.5 164.5,143.5C 164.5,143.167 164.5,142.833 164.5,142.5C 164.281,141.325 164.614,140.325 165.5,139.5C 167.111,140.32 167.778,141.654 167.5,143.5 Z"/></g>
<g><path style="opacity:1" fill="#7e3b3e" d="M 74.5,137.5 C 74.8333,137.5 75.1667,137.5 75.5,137.5C 76.1667,137.5 76.8333,137.5 77.5,137.5C 75.8333,139.5 74.1667,141.5 72.5,143.5C 71.1667,143.5 69.8333,143.5 68.5,143.5C 70.8061,141.861 72.8061,139.861 74.5,137.5 Z"/></g>
</svg>
