<?xml version="1.0" encoding="UTF-8"?>
<!DOCTYPE svg PUBLIC "-//W3C//DTD SVG 1.1//EN" "http://www.w3.org/Graphics/SVG/1.1/DTD/svg11.dtd">
<svg xmlns="http://www.w3.org/2000/svg" version="1.1" width="256px" height="144px" style="shape-rendering:geometricPrecision; text-rendering:geometricPrecision; image-rendering:optimizeQuality; fill-rule:evenodd; clip-rule:evenodd" xmlns:xlink="http://www.w3.org/1999/xlink">
<g><path style="opacity:1" fill="#183d7b" d="M 6.5,-0.5 C 10.5,-0.5 14.5,-0.5 18.5,-0.5C 24.3985,13.303 30.8985,26.9697 38,40.5C 38.2393,44.9785 40.0726,48.6452 43.5,51.5C 43.2907,52.086 42.9574,52.586 42.5,53C 45.0183,54.8798 45.685,57.2132 44.5,60C 45.6667,60.5 46.5,61.3333 47,62.5C 47.3333,62.1667 47.6667,61.8333 48,61.5C 48.4922,62.549 48.3256,63.549 47.5,64.5C 49.4408,66.8341 51.1075,69.3341 52.5,72C 51,73.5 49.5,75 48,76.5C 47.3162,75.2161 47.4829,74.0495 48.5,73C 47.7471,71.513 46.9138,71.3463 46,72.5C 43.5151,68.699 41.5151,64.699 40,60.5C 38.7212,58.0629 37.2212,57.5629 35.5,59C 38.9004,64.9675 41.9004,71.1342 44.5,77.5C 44.0302,78.463 43.3635,78.463 42.5,77.5C 38.742,73.8834 35.4086,69.7168 32.5,65C 32.5,63.6667 32.5,62.3333 32.5,61C 31.6721,60.0853 30.6721,59.4186 29.5,59C 30.1667,58.6667 30.8333,58.3333 31.5,58C 28.1437,52.3189 24.8104,46.6523 21.5,41C 22.5171,39.9505 22.6838,38.7839 22,37.5C 19.8388,33.67 17.6721,29.8367 15.5,26C 15.8333,25.6667 16.1667,25.3333 16.5,25C 12.9925,18.9388 10.3258,12.6055 8.5,6C 9.23679,3.58353 8.57012,1.41686 6.5,-0.5 Z"/></g>
<g><path style="opacity:1" fill="#1c4788" d="M 18.5,-0.5 C 22.8333,-0.5 27.1667,-0.5 31.5,-0.5C 38.7504,15.7739 45.9171,31.7739 53,47.5C 55.7259,51.8 58.5592,55.9666 61.5,60C 60.7476,60.6708 60.4142,61.5041 60.5,62.5C 54.9409,64.8374 52.9409,69.1707 54.5,75.5C 50.1554,77.0068 46.1554,79.1735 42.5,82C 39.0764,82.7466 35.7431,82.58 32.5,81.5C 27.8741,79.3355 22.8741,78.3355 17.5,78.5C 19.2646,77.5386 21.2646,77.2053 23.5,77.5C 25.5,77.5 27.5,77.5 29.5,77.5C 33.5311,79.4387 37.8645,79.9387 42.5,79C 41.2617,78.31 41.2617,77.81 42.5,77.5C 43.3635,78.463 44.0302,78.463 44.5,77.5C 41.9004,71.1342 38.9004,64.9675 35.5,59C 37.2212,57.5629 38.7212,58.0629 40,60.5C 41.5151,64.699 43.5151,68.699 46,72.5C 46.9138,71.3463 47.7471,71.513 48.5,73C 47.4829,74.0495 47.3162,75.2161 48,76.5C 49.5,75 51,73.5 52.5,72C 51.1075,69.3341 49.4408,66.8341 47.5,64.5C 48.3256,63.549 48.4922,62.549 48,61.5C 47.6667,61.8333 47.3333,62.1667 47,62.5C 46.5,61.3333 45.6667,60.5 44.5,60C 45.685,57.2132 45.0183,54.8798 42.5,53C 42.9574,52.586 43.2907,52.086 43.5,51.5C 40.0726,48.6452 38.2393,44.9785 38,40.5C 30.8985,26.9697 24.3985,13.303 18.5,-0.5 Z"/></g>
<g><path style="opacity:1" fill="#204f97" d="M 31.5,-0.5 C 35.8333,-0.5 40.1667,-0.5 44.5,-0.5C 47.7152,8.72906 51.5485,18.0624 56,27.5C 56.5,28.6667 57.3333,29.5 58.5,30C 57.701,31.7487 58.3676,33.082 60.5,34C 59.5494,34.7175 59.3828,35.5509 60,36.5C 63.4973,40.1772 66.4973,44.1772 69,48.5C 68.8511,45.0257 68.1844,41.359 67,37.5C 69.9802,42.2904 72.4802,46.7904 74.5,51C 75.9839,51.6622 77.3172,52.4955 78.5,53.5C 78.5,54.1667 78.5,54.8333 78.5,55.5C 72.7836,58.4351 66.7836,60.7684 60.5,62.5C 60.4142,61.5041 60.7476,60.6708 61.5,60C 58.5592,55.9666 55.7259,51.8 53,47.5C 45.9171,31.7739 38.7504,15.7739 31.5,-0.5 Z"/></g>
<g><path style="opacity:1" fill="#2458a5" d="M 44.5,-0.5 C 50.5,-0.5 56.5,-0.5 62.5,-0.5C 64.5329,4.42948 66.8663,9.59615 69.5,15C 68.9186,15.8926 68.5852,16.8926 68.5,18C 70.5016,24.342 72.5016,30.6754 74.5,37C 74.1667,37.3333 73.8333,37.6667 73.5,38C 75.6785,38.4419 76.3452,39.4419 75.5,41C 78.3023,44.0589 80.3023,47.5589 81.5,51.5C 80.6431,52.4252 79.6431,53.0919 78.5,53.5C 77.3172,52.4955 75.9839,51.6622 74.5,51C 72.4802,46.7904 69.9802,42.2904 67,37.5C 68.1844,41.359 68.8511,45.0257 69,48.5C 66.4973,44.1772 63.4973,40.1772 60,36.5C 59.3828,35.5509 59.5494,34.7175 60.5,34C 58.3676,33.082 57.701,31.7487 58.5,30C 57.3333,29.5 56.5,28.6667 56,27.5C 51.5485,18.0624 47.7152,8.72906 44.5,-0.5 Z"/></g>
<g><path style="opacity:1" fill="#2863b3" d="M 62.5,-0.5 C 68.5,-0.5 74.5,-0.5 80.5,-0.5C 81.158,2.80711 81.158,5.64045 80.5,8C 81.5364,11.1706 82.8697,14.1706 84.5,17C 84.1667,17.3333 83.8333,17.6667 83.5,18C 86.0233,21.9209 88.3566,25.9209 90.5,30C 89.9491,31.3985 89.6158,32.7318 89.5,34C 92.0026,35.7839 92.0026,37.4506 89.5,39C 90.9522,41.973 92.9522,45.1397 95.5,48.5C 94.6446,49.293 93.8113,48.9597 93,47.5C 91.5438,49.4653 89.7105,50.7987 87.5,51.5C 84.5,52.8333 81.5,54.1667 78.5,55.5C 78.5,54.8333 78.5,54.1667 78.5,53.5C 79.6431,53.0919 80.6431,52.4252 81.5,51.5C 80.3023,47.5589 78.3023,44.0589 75.5,41C 76.3452,39.4419 75.6785,38.4419 73.5,38C 73.8333,37.6667 74.1667,37.3333 74.5,37C 72.5016,30.6754 70.5016,24.342 68.5,18C 68.5852,16.8926 68.9186,15.8926 69.5,15C 66.8663,9.59615 64.5329,4.42948 62.5,-0.5 Z"/></g>
<g><path style="opacity:1" fill="#4fa6f6" d="M 127.5,-0.5 C 132.167,-0.5 136.833,-0.5 141.5,-0.5C 139.109,1.61476 137.776,4.28143 137.5,7.5C 140.206,7.5751 142.873,7.90843 145.5,8.5C 145.5,8.83333 145.5,9.16667 145.5,9.5C 149,13.7463 153.333,16.7463 158.5,18.5C 156.882,20.6559 157.216,22.3226 159.5,23.5C 160.167,25.1667 160.833,26.8333 161.5,28.5C 158.932,27.7682 156.266,27.7682 153.5,28.5C 152.167,27.1667 150.833,25.8333 149.5,24.5C 148.464,20.1304 145.797,17.4637 141.5,16.5C 141.259,18.8863 141.925,20.8863 143.5,22.5C 137.592,21.7914 132.925,23.7914 129.5,28.5C 127.142,30.5293 124.808,32.5293 122.5,34.5C 122.238,33.0222 122.571,31.6888 123.5,30.5C 127.309,27.8579 130.976,25.0246 134.5,22C 132.437,14.4287 130.103,6.92871 127.5,-0.5 Z"/></g>
<g><path style="opacity:1" fill="#6be7fe" d="M 232.5,-0.5 C 240.167,-0.5 247.833,-0.5 255.5,-0.5C 255.5,7.16667 255.5,14.8333 255.5,22.5C 253.621,22.3932 253.288,22.8932 254.5,24C 253.285,26.0955 252.451,25.9288 252,23.5C 251.316,24.7839 251.483,25.9505 252.5,27C 250.311,27.2086 248.311,26.8753 246.5,26C 244.699,27.3868 244.032,28.8868 244.5,30.5C 241.939,25.7122 239.439,26.0455 237,31.5C 236.667,31.1667 236.333,30.8333 236,30.5C 235.503,32.8098 235.337,35.1432 235.5,37.5C 234.609,36.8902 233.609,36.5569 232.5,36.5C 232.5,35.8333 232.5,35.1667 232.5,34.5C 233.693,34.0296 234.36,33.0296 234.5,31.5C 234.099,27.9758 233.433,24.6424 232.5,21.5C 232.916,18.6405 231.916,16.4738 229.5,15C 230.856,13.4329 231.523,11.5996 231.5,9.5C 230.325,9.28099 229.325,9.61432 228.5,10.5C 227.252,13.0704 226.252,15.7371 225.5,18.5C 224.817,18.1373 224.15,17.8039 223.5,17.5C 224.66,15.7973 223.993,15.1307 221.5,15.5C 220.935,19.5368 219.601,23.2034 217.5,26.5C 217.217,25.7109 216.717,25.0442 216,24.5C 214.287,24.3802 212.454,24.5469 210.5,25C 209.075,23.6381 208.242,22.1381 208,20.5C 207.667,21.1667 207.333,21.8333 207,22.5C 205.326,21.3235 203.826,19.9902 202.5,18.5C 199.327,19.2105 196.327,20.3771 193.5,22C 190.961,22.7958 188.628,22.6291 186.5,21.5C 188.199,21.6602 189.866,21.4935 191.5,21C 198.09,17.7 204.423,13.8667 210.5,9.5C 218.548,7.49498 225.881,4.16165 232.5,-0.5 Z"/></g>
<g><path style="opacity:1" fill="#13346d" d="M -0.5,2.5 C 2.53375,7.69873 5.53375,13.3654 8.5,19.5C 8.29069,20.086 7.95735,20.586 7.5,21C 10.0468,22.316 10.7135,24.1493 9.5,26.5C 10.373,28.4134 11.373,30.2467 12.5,32C 12.1667,32.3333 11.8333,32.6667 11.5,33C 13.0267,34.6933 14.3601,36.5266 15.5,38.5C 15.1667,39.1667 14.8333,39.8333 14.5,40.5C 16.5351,42.1109 17.2018,43.9442 16.5,46C 19.6304,49.9808 21.797,54.4808 23,59.5C 24.1313,58.3961 24.9646,58.7295 25.5,60.5C 23.8943,63.7574 24.8943,65.9241 28.5,67C 27.8333,67.3333 27.1667,67.6667 26.5,68C 28.9589,68.724 29.9589,70.0573 29.5,72C 30.614,73.5699 31.9474,74.9032 33.5,76C 32.4366,77.1882 31.1033,77.6882 29.5,77.5C 27.5,77.5 25.5,77.5 23.5,77.5C 22.6669,75.2478 22.6669,73.0811 23.5,71C 20.3831,66.6716 18.2164,61.8383 17,56.5C 13.5997,52.8647 11.0997,48.6981 9.5,44C 9.83333,43 10.1667,42 10.5,41C 9.33333,40.5 8.5,39.6667 8,38.5C 5.50367,32.7142 3.50367,26.7142 2,20.5C 1.14825,19.4293 0.314913,18.4293 -0.5,17.5C -0.5,12.5 -0.5,7.5 -0.5,2.5 Z"/></g>
<g><path style="opacity:1" fill="#82fbfe" d="M 141.5,-0.5 C 143.833,-0.5 146.167,-0.5 148.5,-0.5C 150.827,3.48359 153.827,6.81692 157.5,9.5C 158.801,10.64 159.968,11.9733 161,13.5C 163.736,11.2481 166.569,9.24806 169.5,7.5C 171.842,7.49586 173.842,6.66253 175.5,5C 177.5,4.33333 179.5,4.33333 181.5,5C 184.047,7.25304 185.714,10.0864 186.5,13.5C 188.55,14.6627 190.55,14.4961 192.5,13C 195.174,10.6216 197.841,8.28822 200.5,6C 205.452,4.85764 209.785,2.69098 213.5,-0.5C 219.833,-0.5 226.167,-0.5 232.5,-0.5C 225.881,4.16165 218.548,7.49498 210.5,9.5C 204.423,13.8667 198.09,17.7 191.5,21C 189.866,21.4935 188.199,21.6602 186.5,21.5C 182.872,18.8851 179.205,16.2185 175.5,13.5C 173.07,14.8469 170.736,16.1802 168.5,17.5C 167.041,17.4326 165.708,17.7659 164.5,18.5C 163.842,17.6016 163.176,16.6016 162.5,15.5C 157.388,13.778 152.721,11.278 148.5,8C 147.251,7.25988 146.251,7.42654 145.5,8.5C 142.873,7.90843 140.206,7.5751 137.5,7.5C 137.776,4.28143 139.109,1.61476 141.5,-0.5 Z"/></g>
<g><path style="opacity:1" fill="#4689b2" d="M 148.5,-0.5 C 150.5,-0.5 152.5,-0.5 154.5,-0.5C 156.985,1.65227 158.651,4.31894 159.5,7.5C 159.5,8.83333 158.833,9.5 157.5,9.5C 153.827,6.81692 150.827,3.48359 148.5,-0.5 Z"/></g>
<g><path style="opacity:1" fill="#62e3fe" d="M 174.5,-0.5 C 187.5,-0.5 200.5,-0.5 213.5,-0.5C 209.785,2.69098 205.452,4.85764 200.5,6C 197.841,8.28822 195.174,10.6216 192.5,13C 190.55,14.4961 188.55,14.6627 186.5,13.5C 185.714,10.0864 184.047,7.25304 181.5,5C 179.5,4.33333 177.5,4.33333 175.5,5C 173.842,6.66253 171.842,7.49586 169.5,7.5C 170.708,4.95581 172.708,3.62248 175.5,3.5C 175.567,2.04125 175.234,0.707917 174.5,-0.5 Z"/></g>
<g><path style="opacity:1" fill="#5ccefb" d="M 160.5,-0.5 C 165.167,-0.5 169.833,-0.5 174.5,-0.5C 175.234,0.707917 175.567,2.04125 175.5,3.5C 172.708,3.62248 170.708,4.95581 169.5,7.5C 166.569,9.24806 163.736,11.2481 161,13.5C 159.968,11.9733 158.801,10.64 157.5,9.5C 158.833,9.5 159.5,8.83333 159.5,7.5C 162.445,5.04715 162.778,2.38049 160.5,-0.5 Z"/></g>
<g><path style="opacity:1" fill="#a1f8fb" d="M 154.5,-0.5 C 156.5,-0.5 158.5,-0.5 160.5,-0.5C 162.778,2.38049 162.445,5.04715 159.5,7.5C 158.651,4.31894 156.985,1.65227 154.5,-0.5 Z"/></g>
<g><path style="opacity:1" fill="#3a6ea8" d="M 145.5,9.5 C 149.313,11.7657 153.313,13.9324 157.5,16C 158.252,16.6708 158.586,17.5041 158.5,18.5C 153.333,16.7463 149,13.7463 145.5,9.5 Z"/></g>
<g><path style="opacity:1" fill="#518aa7" d="M 164.5,18.5 C 165.85,19.6499 165.684,20.3166 164,20.5C 162.2,19.6805 160.366,19.0138 158.5,18.5C 158.586,17.5041 158.252,16.6708 157.5,16C 153.313,13.9324 149.313,11.7657 145.5,9.5C 145.5,9.16667 145.5,8.83333 145.5,8.5C 146.251,7.42654 147.251,7.25988 148.5,8C 152.721,11.278 157.388,13.778 162.5,15.5C 163.176,16.6016 163.842,17.6016 164.5,18.5 Z"/></g>
<g><path style="opacity:1" fill="#3687df" d="M 100.5,-0.5 C 109.5,-0.5 118.5,-0.5 127.5,-0.5C 130.103,6.92871 132.437,14.4287 134.5,22C 130.976,25.0246 127.309,27.8579 123.5,30.5C 122.571,31.6888 122.238,33.0222 122.5,34.5C 121.25,34.5774 120.417,35.244 120,36.5C 119.748,44.4323 117.248,51.4323 112.5,57.5C 111.5,57.5 110.5,57.5 109.5,57.5C 104.346,57.4323 99.6795,56.099 95.5,53.5C 98.4824,53.9629 101.482,54.2962 104.5,54.5C 106.068,55.4731 107.735,55.6397 109.5,55C 111.017,53.3149 112.684,51.8149 114.5,50.5C 115.167,48.5 115.833,46.5 116.5,44.5C 116.167,43.5 115.5,42.8333 114.5,42.5C 114.795,43.8255 114.295,45.1588 113,46.5C 111.513,45.7471 111.346,44.9138 112.5,44C 109.659,42.4182 108.659,40.2515 109.5,37.5C 107.769,33.705 105.769,30.0383 103.5,26.5C 106.768,22.429 106.768,18.0957 103.5,13.5C 103.5,11.1667 103.5,8.83333 103.5,6.5C 102.298,4.21955 101.298,1.88622 100.5,-0.5 Z"/></g>
<g><path style="opacity:1" fill="#4c83fc" d="M 149.5,24.5 C 147.685,23.3702 145.685,22.7036 143.5,22.5C 141.925,20.8863 141.259,18.8863 141.5,16.5C 145.797,17.4637 148.464,20.1304 149.5,24.5 Z"/></g>
<g><path style="opacity:1" fill="#6bddfd" d="M 186.5,21.5 C 188.628,22.6291 190.961,22.7958 193.5,22C 196.327,20.3771 199.327,19.2105 202.5,18.5C 203.826,19.9902 205.326,21.3235 207,22.5C 207.333,21.8333 207.667,21.1667 208,20.5C 208.242,22.1381 209.075,23.6381 210.5,25C 212.454,24.5469 214.287,24.3802 216,24.5C 216.717,25.0442 217.217,25.7109 217.5,26.5C 215.855,30.145 213.188,32.8116 209.5,34.5C 206.597,32.3523 203.264,30.8523 199.5,30C 195.179,29.501 190.846,29.3343 186.5,29.5C 178.766,28.0409 172.433,24.5409 167.5,19C 168.056,18.6174 168.389,18.1174 168.5,17.5C 170.736,16.1802 173.07,14.8469 175.5,13.5C 179.205,16.2185 182.872,18.8851 186.5,21.5 Z"/></g>
<g><path style="opacity:1" fill="#102f65" d="M -0.5,17.5 C 0.314913,18.4293 1.14825,19.4293 2,20.5C 3.50367,26.7142 5.50367,32.7142 8,38.5C 8.5,39.6667 9.33333,40.5 10.5,41C 10.1667,42 9.83333,43 9.5,44C 11.0997,48.6981 13.5997,52.8647 17,56.5C 18.2164,61.8383 20.3831,66.6716 23.5,71C 22.6669,73.0811 22.6669,75.2478 23.5,77.5C 21.2646,77.2053 19.2646,77.5386 17.5,78.5C 14.1393,79.684 11.1393,81.5173 8.5,84C 6.64146,87.3372 4.64146,90.5039 2.5,93.5C 1.5,94.1667 0.5,94.8333 -0.5,95.5C -0.5,69.5 -0.5,43.5 -0.5,17.5 Z"/></g>
<g><path style="opacity:1" fill="#2f72c7" d="M 80.5,-0.5 C 87.1667,-0.5 93.8333,-0.5 100.5,-0.5C 101.298,1.88622 102.298,4.21955 103.5,6.5C 103.5,8.83333 103.5,11.1667 103.5,13.5C 106.768,18.0957 106.768,22.429 103.5,26.5C 105.769,30.0383 107.769,33.705 109.5,37.5C 108.659,40.2515 109.659,42.4182 112.5,44C 111.346,44.9138 111.513,45.7471 113,46.5C 114.295,45.1588 114.795,43.8255 114.5,42.5C 115.5,42.8333 116.167,43.5 116.5,44.5C 115.833,46.5 115.167,48.5 114.5,50.5C 112.684,51.8149 111.017,53.3149 109.5,55C 107.735,55.6397 106.068,55.4731 104.5,54.5C 102.524,52.9891 100.191,52.1558 97.5,52C 94.1832,51.5017 90.8499,51.335 87.5,51.5C 89.7105,50.7987 91.5438,49.4653 93,47.5C 93.8113,48.9597 94.6446,49.293 95.5,48.5C 92.9522,45.1397 90.9522,41.973 89.5,39C 92.0026,37.4506 92.0026,35.7839 89.5,34C 89.6158,32.7318 89.9491,31.3985 90.5,30C 88.3566,25.9209 86.0233,21.9209 83.5,18C 83.8333,17.6667 84.1667,17.3333 84.5,17C 82.8697,14.1706 81.5364,11.1706 80.5,8C 81.158,5.64045 81.158,2.80711 80.5,-0.5 Z"/></g>
<g><path style="opacity:1" fill="#bef3fc" d="M 223.5,17.5 C 222.89,18.391 222.557,19.391 222.5,20.5C 220.612,25.9448 217.945,30.9448 214.5,35.5C 212.315,35.7036 210.315,36.3702 208.5,37.5C 207.167,37.5 206.5,36.8333 206.5,35.5C 207.391,34.8902 208.391,34.5569 209.5,34.5C 213.188,32.8116 215.855,30.145 217.5,26.5C 219.601,23.2034 220.935,19.5368 221.5,15.5C 223.993,15.1307 224.66,15.7973 223.5,17.5 Z"/></g>
<g><path style="opacity:1" fill="#bdfcfe" d="M 168.5,17.5 C 168.389,18.1174 168.056,18.6174 167.5,19C 172.433,24.5409 178.766,28.0409 186.5,29.5C 189.131,31.1526 191.797,32.8193 194.5,34.5C 195.913,37.6612 197.58,40.6612 199.5,43.5C 188.029,44.3286 179.696,39.1619 174.5,28C 174.167,27.8333 173.833,27.6667 173.5,27.5C 172.988,29.8507 171.988,31.8507 170.5,33.5C 167.487,30.6513 164.82,27.4847 162.5,24C 161.552,23.5172 160.552,23.3505 159.5,23.5C 157.216,22.3226 156.882,20.6559 158.5,18.5C 160.366,19.0138 162.2,19.6805 164,20.5C 165.684,20.3166 165.85,19.6499 164.5,18.5C 165.708,17.7659 167.041,17.4326 168.5,17.5 Z"/></g>
<g><path style="opacity:1" fill="#95fafd" d="M 232.5,21.5 C 233.433,24.6424 234.099,27.9758 234.5,31.5C 234.36,33.0296 233.693,34.0296 232.5,34.5C 230.5,34.8333 228.5,35.1667 226.5,35.5C 227.356,31.4299 228.523,27.4299 230,23.5C 230.708,22.6195 231.542,21.9528 232.5,21.5 Z"/></g>
<g><path style="opacity:1" fill="#153873" d="M -0.5,-0.5 C 1.83333,-0.5 4.16667,-0.5 6.5,-0.5C 8.57012,1.41686 9.23679,3.58353 8.5,6C 10.3258,12.6055 12.9925,18.9388 16.5,25C 16.1667,25.3333 15.8333,25.6667 15.5,26C 17.6721,29.8367 19.8388,33.67 22,37.5C 22.6838,38.7839 22.5171,39.9505 21.5,41C 24.8104,46.6523 28.1437,52.3189 31.5,58C 30.8333,58.3333 30.1667,58.6667 29.5,59C 30.6721,59.4186 31.6721,60.0853 32.5,61C 32.5,62.3333 32.5,63.6667 32.5,65C 35.4086,69.7168 38.742,73.8834 42.5,77.5C 41.2617,77.81 41.2617,78.31 42.5,79C 37.8645,79.9387 33.5311,79.4387 29.5,77.5C 31.1033,77.6882 32.4366,77.1882 33.5,76C 31.9474,74.9032 30.614,73.5699 29.5,72C 29.9589,70.0573 28.9589,68.724 26.5,68C 27.1667,67.6667 27.8333,67.3333 28.5,67C 24.8943,65.9241 23.8943,63.7574 25.5,60.5C 24.9646,58.7295 24.1313,58.3961 23,59.5C 21.797,54.4808 19.6304,49.9808 16.5,46C 17.2018,43.9442 16.5351,42.1109 14.5,40.5C 14.8333,39.8333 15.1667,39.1667 15.5,38.5C 14.3601,36.5266 13.0267,34.6933 11.5,33C 11.8333,32.6667 12.1667,32.3333 12.5,32C 11.373,30.2467 10.373,28.4134 9.5,26.5C 10.7135,24.1493 10.0468,22.316 7.5,21C 7.95735,20.586 8.29069,20.086 8.5,19.5C 5.53375,13.3654 2.53375,7.69873 -0.5,2.5C -0.5,1.5 -0.5,0.5 -0.5,-0.5 Z"/></g>
<g><path style="opacity:1" fill="#264c8b" d="M 143.5,22.5 C 145.685,22.7036 147.685,23.3702 149.5,24.5C 150.833,25.8333 152.167,27.1667 153.5,28.5C 155.292,29.3091 157.292,29.8091 159.5,30C 160.381,30.7083 161.047,31.5416 161.5,32.5C 157.5,31.5 153.5,30.5 149.5,29.5C 148.5,26.8333 147.5,26.8333 146.5,29.5C 145.659,27.1879 144.659,24.8546 143.5,22.5 Z"/></g>
<g><path style="opacity:1" fill="#89f1ff" d="M 159.5,23.5 C 160.552,23.3505 161.552,23.5172 162.5,24C 164.82,27.4847 167.487,30.6513 170.5,33.5C 171.988,31.8507 172.988,29.8507 173.5,27.5C 173.833,27.6667 174.167,27.8333 174.5,28C 179.696,39.1619 188.029,44.3286 199.5,43.5C 199.66,45.1992 199.494,46.8659 199,48.5C 196.006,49.8898 194.006,48.8898 193,45.5C 191.2,47.8307 189.2,47.8307 187,45.5C 186.667,45.8333 186.333,46.1667 186,46.5C 184.251,44.3794 182.418,42.3794 180.5,40.5C 179.833,39.5 179.167,38.5 178.5,37.5C 176.193,31.0007 174.026,31.0007 172,37.5C 171.329,36.7476 170.496,36.4142 169.5,36.5C 166.473,34.1395 163.806,31.4729 161.5,28.5C 160.833,26.8333 160.167,25.1667 159.5,23.5 Z"/></g>
<g><path style="opacity:1" fill="#204392" d="M 222.5,20.5 C 223.649,20.7911 224.316,21.6244 224.5,23C 222.183,29.3712 221.517,35.8712 222.5,42.5C 222.204,44.403 221.537,46.0697 220.5,47.5C 218.133,46.8363 216.133,45.503 214.5,43.5C 216.689,40.9409 216.689,38.2743 214.5,35.5C 217.945,30.9448 220.612,25.9448 222.5,20.5 Z"/></g>
<g><path style="opacity:1" fill="#43d0f9" d="M 142.5,30.5 C 139.833,31.8333 137.167,33.1667 134.5,34.5C 131.942,36.5502 129.442,38.8835 127,41.5C 126.851,45.1325 126.018,48.4659 124.5,51.5C 123.211,54.3915 121.211,56.7248 118.5,58.5C 121.945,51.0124 125.111,43.3458 128,35.5C 132.092,31.9057 136.925,30.239 142.5,30.5 Z"/></g>
<g><path style="opacity:1" fill="#69b7f2" d="M 143.5,22.5 C 144.659,24.8546 145.659,27.1879 146.5,29.5C 147.404,30.209 147.737,31.209 147.5,32.5C 146.5,32.5 145.5,32.5 144.5,32.5C 144.022,36.3375 145.022,39.6709 147.5,42.5C 142.785,41.3963 140.785,38.3963 141.5,33.5C 139.097,33.448 136.764,33.7814 134.5,34.5C 137.167,33.1667 139.833,31.8333 142.5,30.5C 142.617,28.5165 141.95,26.8498 140.5,25.5C 136.789,26.3749 133.122,27.3749 129.5,28.5C 132.925,23.7914 137.592,21.7914 143.5,22.5 Z"/></g>
<g><path style="opacity:1" fill="#2549a7" d="M 161.5,28.5 C 163.806,31.4729 166.473,34.1395 169.5,36.5C 169.932,37.7095 170.599,38.7095 171.5,39.5C 171.833,40.8333 172.167,42.1667 172.5,43.5C 168.5,40.1667 164.833,36.5 161.5,32.5C 161.047,31.5416 160.381,30.7083 159.5,30C 157.292,29.8091 155.292,29.3091 153.5,28.5C 156.266,27.7682 158.932,27.7682 161.5,28.5 Z"/></g>
<g><path style="opacity:1" fill="#2e4fcf" d="M 186.5,29.5 C 190.846,29.3343 195.179,29.501 199.5,30C 203.264,30.8523 206.597,32.3523 209.5,34.5C 208.391,34.5569 207.391,34.8902 206.5,35.5C 202.4,35.7633 198.4,35.4299 194.5,34.5C 191.797,32.8193 189.131,31.1526 186.5,29.5 Z"/></g>
<g><path style="opacity:1" fill="#356ada" d="M 149.5,29.5 C 148.668,30.3285 149.001,31.1618 150.5,32C 157.87,35.2105 163.87,40.0438 168.5,46.5C 166.656,47.2039 166.156,48.5372 167,50.5C 172.042,56.5876 174.876,63.5876 175.5,71.5C 175.167,71.5 174.833,71.5 174.5,71.5C 171.972,61.0004 166.639,52.3337 158.5,45.5C 156.165,42.8352 153.165,41.5018 149.5,41.5C 149.5,42.8333 149.5,44.1667 149.5,45.5C 148.833,44.5 148.167,43.5 147.5,42.5C 145.022,39.6709 144.022,36.3375 144.5,32.5C 145.5,32.5 146.5,32.5 147.5,32.5C 147.737,31.209 147.404,30.209 146.5,29.5C 147.5,26.8333 148.5,26.8333 149.5,29.5 Z"/></g>
<g><path style="opacity:1" fill="#64b7ff" d="M 178.5,37.5 C 176.019,37.3234 174.186,38.3234 173,40.5C 172.617,39.944 172.117,39.6107 171.5,39.5C 170.599,38.7095 169.932,37.7095 169.5,36.5C 170.496,36.4142 171.329,36.7476 172,37.5C 174.026,31.0007 176.193,31.0007 178.5,37.5 Z"/></g>
<g><path style="opacity:1" fill="#4398e9" d="M 232.5,21.5 C 231.542,21.9528 230.708,22.6195 230,23.5C 228.523,27.4299 227.356,31.4299 226.5,35.5C 228.5,35.1667 230.5,34.8333 232.5,34.5C 232.5,35.1667 232.5,35.8333 232.5,36.5C 231.486,37.6737 230.153,38.3404 228.5,38.5C 225.763,38.8592 223.763,40.1925 222.5,42.5C 221.517,35.8712 222.183,29.3712 224.5,23C 224.316,21.6244 223.649,20.7911 222.5,20.5C 222.557,19.391 222.89,18.391 223.5,17.5C 224.15,17.8039 224.817,18.1373 225.5,18.5C 226.252,15.7371 227.252,13.0704 228.5,10.5C 229.325,9.61432 230.325,9.28099 231.5,9.5C 231.523,11.5996 230.856,13.4329 229.5,15C 231.916,16.4738 232.916,18.6405 232.5,21.5 Z"/></g>
<g><path style="opacity:1" fill="#64d9fe" d="M 255.5,22.5 C 255.5,30.1667 255.5,37.8333 255.5,45.5C 252.047,44.1645 250.214,45.4978 250,49.5C 249.417,47.9984 248.584,46.6651 247.5,45.5C 246.197,46.7178 245.197,46.3845 244.5,44.5C 242.668,45.2485 241.001,46.2485 239.5,47.5C 238.473,46.2086 237.473,46.2086 236.5,47.5C 236.167,44.1667 235.833,40.8333 235.5,37.5C 235.337,35.1432 235.503,32.8098 236,30.5C 236.333,30.8333 236.667,31.1667 237,31.5C 239.439,26.0455 241.939,25.7122 244.5,30.5C 244.032,28.8868 244.699,27.3868 246.5,26C 248.311,26.8753 250.311,27.2086 252.5,27C 251.483,25.9505 251.316,24.7839 252,23.5C 252.451,25.9288 253.285,26.0955 254.5,24C 253.288,22.8932 253.621,22.3932 255.5,22.5 Z"/></g>
<g><path style="opacity:1" fill="#97fcfe" d="M 232.5,36.5 C 233.609,36.5569 234.609,36.8902 235.5,37.5C 235.833,40.8333 236.167,44.1667 236.5,47.5C 236.715,49.1788 236.048,50.1788 234.5,50.5C 231.833,50.1667 229.167,49.8333 226.5,49.5C 226.111,45.5863 226.778,41.9196 228.5,38.5C 230.153,38.3404 231.486,37.6737 232.5,36.5 Z"/></g>
<g><path style="opacity:1" fill="#080b23" d="M 149.5,29.5 C 153.5,30.5 157.5,31.5 161.5,32.5C 164.833,36.5 168.5,40.1667 172.5,43.5C 174.025,45.2163 175.025,47.2163 175.5,49.5C 176.044,53.6399 175.044,54.3065 172.5,51.5C 171.197,49.8577 169.864,48.1911 168.5,46.5C 163.87,40.0438 157.87,35.2105 150.5,32C 149.001,31.1618 148.668,30.3285 149.5,29.5 Z"/></g>
<g><path style="opacity:1" fill="#7bcefe" d="M 194.5,34.5 C 198.4,35.4299 202.4,35.7633 206.5,35.5C 206.5,36.8333 207.167,37.5 208.5,37.5C 206.5,38.1667 204.5,38.8333 202.5,39.5C 200.598,42.3373 199.931,45.6707 200.5,49.5C 196.604,50.7731 192.771,50.4398 189,48.5C 187.7,49.7073 186.2,50.3739 184.5,50.5C 183.355,47.0581 182.021,43.7248 180.5,40.5C 182.418,42.3794 184.251,44.3794 186,46.5C 186.333,46.1667 186.667,45.8333 187,45.5C 189.2,47.8307 191.2,47.8307 193,45.5C 194.006,48.8898 196.006,49.8898 199,48.5C 199.494,46.8659 199.66,45.1992 199.5,43.5C 197.58,40.6612 195.913,37.6612 194.5,34.5 Z"/></g>
<g><path style="opacity:1" fill="#5cc2ed" d="M 228.5,38.5 C 226.778,41.9196 226.111,45.5863 226.5,49.5C 224.36,52.6125 221.36,53.9459 217.5,53.5C 217.5,52.5 217.5,51.5 217.5,50.5C 218.833,49.8333 219.833,48.8333 220.5,47.5C 221.537,46.0697 222.204,44.403 222.5,42.5C 223.763,40.1925 225.763,38.8592 228.5,38.5 Z"/></g>
<g><path style="opacity:1" fill="#173686" d="M 158.5,45.5 C 156.742,45.1231 155.075,44.4565 153.5,43.5C 153.167,44 152.833,44.5 152.5,45C 154.37,48.534 157.204,51.034 161,52.5C 161.366,54.4517 162.199,56.1184 163.5,57.5C 161.821,57.2852 160.821,57.9519 160.5,59.5C 159.215,57.5484 157.549,55.8818 155.5,54.5C 154.614,55.325 154.281,56.325 154.5,57.5C 153.783,53.1875 152.116,49.1875 149.5,45.5C 149.5,44.1667 149.5,42.8333 149.5,41.5C 153.165,41.5018 156.165,42.8352 158.5,45.5 Z"/></g>
<g><path style="opacity:1" fill="#3eb3e7" d="M 95.5,53.5 C 99.6795,56.099 104.346,57.4323 109.5,57.5C 104.448,58.3514 99.448,57.6847 94.5,55.5C 92.0336,54.3659 89.367,54.1993 86.5,55C 81.8474,57.3087 77.1807,59.6421 72.5,62C 71.2068,62.49 69.8734,62.6567 68.5,62.5C 76.426,56.3749 85.426,53.3749 95.5,53.5 Z"/></g>
<g><path style="opacity:1" fill="#0a1b58" d="M 158.5,45.5 C 166.639,52.3337 171.972,61.0004 174.5,71.5C 173.312,70.3157 172.145,70.3157 171,71.5C 170.505,73.4727 170.338,75.4727 170.5,77.5C 169.549,76.0813 169.216,74.4147 169.5,72.5C 168.852,66.859 166.852,61.859 163.5,57.5C 162.199,56.1184 161.366,54.4517 161,52.5C 157.204,51.034 154.37,48.534 152.5,45C 152.833,44.5 153.167,44 153.5,43.5C 155.075,44.4565 156.742,45.1231 158.5,45.5 Z"/></g>
<g><path style="opacity:1" fill="#87f8fe" d="M 234.5,53.5 C 236.277,56.5046 237.277,59.8379 237.5,63.5C 234.627,61.6453 231.627,61.312 228.5,62.5C 225.808,60.7974 223.808,58.464 222.5,55.5C 226.278,53.7448 230.278,53.0781 234.5,53.5 Z"/></g>
<g><path style="opacity:1" fill="#5eccfe" d="M 255.5,45.5 C 255.5,52.5 255.5,59.5 255.5,66.5C 253.799,66.0338 252.299,66.0338 251,66.5C 249.609,64.2849 247.943,64.2849 246,66.5C 245,64.8333 244,63.1667 243,61.5C 241.711,64.0743 239.878,64.741 237.5,63.5C 237.277,59.8379 236.277,56.5046 234.5,53.5C 234.5,52.5 234.5,51.5 234.5,50.5C 236.048,50.1788 236.715,49.1788 236.5,47.5C 237.473,46.2086 238.473,46.2086 239.5,47.5C 241.001,46.2485 242.668,45.2485 244.5,44.5C 245.197,46.3845 246.197,46.7178 247.5,45.5C 248.584,46.6651 249.417,47.9984 250,49.5C 250.214,45.4978 252.047,44.1645 255.5,45.5 Z"/></g>
<g><path style="opacity:1" fill="#41c3f5" d="M 122.5,34.5 C 120.764,40.0138 119.597,45.6805 119,51.5C 118.311,55.2923 116.144,57.2923 112.5,57.5C 117.248,51.4323 119.748,44.4323 120,36.5C 120.417,35.244 121.25,34.5774 122.5,34.5 Z"/></g>
<g><path style="opacity:1" fill="#3b8ce0" d="M 147.5,42.5 C 150.336,50.5085 152.336,58.8419 153.5,67.5C 153.333,68.5 153.167,69.5 153,70.5C 151.348,71.3994 149.848,72.3994 148.5,73.5C 146.167,71.5 143.833,69.5 141.5,67.5C 141.5,66.8333 141.5,66.1667 141.5,65.5C 138.983,62.9258 137.316,63.5925 136.5,67.5C 134.249,64.6795 131.915,61.8462 129.5,59C 127.568,57.0509 125.568,56.2176 123.5,56.5C 124.038,54.8828 124.371,53.2161 124.5,51.5C 126.018,48.4659 126.851,45.1325 127,41.5C 129.442,38.8835 131.942,36.5502 134.5,34.5C 136.764,33.7814 139.097,33.448 141.5,33.5C 140.785,38.3963 142.785,41.3963 147.5,42.5 Z"/></g>
<g><path style="opacity:1" fill="#579bf4" d="M 168.5,46.5 C 169.864,48.1911 171.197,49.8577 172.5,51.5C 175.571,55.0865 178.071,59.0865 180,63.5C 180.124,65.9357 179.624,68.269 178.5,70.5C 177.075,68.9689 176.409,69.3023 176.5,71.5C 176.167,71.5 175.833,71.5 175.5,71.5C 174.876,63.5876 172.042,56.5876 167,50.5C 166.156,48.5372 166.656,47.2039 168.5,46.5 Z"/></g>
<g><path style="opacity:1" fill="#2a70b0" d="M 87.5,51.5 C 90.8499,51.335 94.1832,51.5017 97.5,52C 100.191,52.1558 102.524,52.9891 104.5,54.5C 101.482,54.2962 98.4824,53.9629 95.5,53.5C 85.426,53.3749 76.426,56.3749 68.5,62.5C 65.5081,63.8481 62.5081,65.3481 59.5,67C 58.7476,67.6708 58.4142,68.5041 58.5,69.5C 56.9862,71.364 55.6528,73.364 54.5,75.5C 52.9409,69.1707 54.9409,64.8374 60.5,62.5C 66.7836,60.7684 72.7836,58.4351 78.5,55.5C 81.5,54.1667 84.5,52.8333 87.5,51.5 Z"/></g>
<g><path style="opacity:1" fill="#4888ef" d="M 178.5,37.5 C 179.167,38.5 179.833,39.5 180.5,40.5C 182.021,43.7248 183.355,47.0581 184.5,50.5C 185.278,51.1556 185.944,51.9889 186.5,53C 185.004,54.3307 183.671,55.8307 182.5,57.5C 183.696,59.1446 184.696,60.8113 185.5,62.5C 186.527,65.9242 187.86,69.2576 189.5,72.5C 190.308,72.1924 190.975,71.6924 191.5,71C 190.115,67.9608 189.115,64.7941 188.5,61.5C 190.772,58.7768 193.772,56.9435 197.5,56C 198.914,54.0065 199.914,51.8398 200.5,49.5C 199.931,45.6707 200.598,42.3373 202.5,39.5C 203.344,50.7025 200.011,60.2025 192.5,68C 200.668,68.5586 205.668,64.7253 207.5,56.5C 208.712,55.7701 209.712,54.7701 210.5,53.5C 211.429,54.6888 211.762,56.0222 211.5,57.5C 210.872,60.09 209.705,62.4234 208,64.5C 207.502,67.8168 207.335,71.1501 207.5,74.5C 207.5,75.8333 207.5,77.1667 207.5,78.5C 204.924,78.4679 202.591,79.1346 200.5,80.5C 200.631,79.7611 200.464,79.0944 200,78.5C 199.292,79.3805 198.458,80.0472 197.5,80.5C 198.093,77.4041 197.093,75.0708 194.5,73.5C 193.833,73.8333 193.167,74.1667 192.5,74.5C 190.955,78.4885 189.622,82.4885 188.5,86.5C 188.813,82.9581 188.479,79.6248 187.5,76.5C 187.62,74.2655 187.287,72.0989 186.5,70C 182.933,63.0277 179.266,56.1943 175.5,49.5C 175.025,47.2163 174.025,45.2163 172.5,43.5C 172.167,42.1667 171.833,40.8333 171.5,39.5C 172.117,39.6107 172.617,39.944 173,40.5C 174.186,38.3234 176.019,37.3234 178.5,37.5 Z"/></g>
<g><path style="opacity:1" fill="#5eb4ff" d="M 200.5,49.5 C 199.914,51.8398 198.914,54.0065 197.5,56C 193.772,56.9435 190.772,58.7768 188.5,61.5C 187.209,61.2627 186.209,61.596 185.5,62.5C 184.696,60.8113 183.696,59.1446 182.5,57.5C 183.671,55.8307 185.004,54.3307 186.5,53C 185.944,51.9889 185.278,51.1556 184.5,50.5C 186.2,50.3739 187.7,49.7073 189,48.5C 192.771,50.4398 196.604,50.7731 200.5,49.5 Z"/></g>
<g><path style="opacity:1" fill="#92f8fe" d="M 142.5,30.5 C 136.925,30.239 132.092,31.9057 128,35.5C 125.111,43.3458 121.945,51.0124 118.5,58.5C 118.141,60.371 117.141,61.871 115.5,63C 111.848,63.4986 108.182,63.6653 104.5,63.5C 100.394,61.4326 96.0604,59.7659 91.5,58.5C 91.1788,56.9519 90.1788,56.2852 88.5,56.5C 90.2646,55.5386 92.2646,55.2053 94.5,55.5C 99.448,57.6847 104.448,58.3514 109.5,57.5C 110.5,57.5 111.5,57.5 112.5,57.5C 116.144,57.2923 118.311,55.2923 119,51.5C 119.597,45.6805 120.764,40.0138 122.5,34.5C 124.808,32.5293 127.142,30.5293 129.5,28.5C 133.122,27.3749 136.789,26.3749 140.5,25.5C 141.95,26.8498 142.617,28.5165 142.5,30.5 Z"/></g>
<g><path style="opacity:1" fill="#51d5f3" d="M 94.5,55.5 C 92.2646,55.2053 90.2646,55.5386 88.5,56.5C 78.775,61.3599 68.775,65.6932 58.5,69.5C 58.4142,68.5041 58.7476,67.6708 59.5,67C 62.5081,65.3481 65.5081,63.8481 68.5,62.5C 69.8734,62.6567 71.2068,62.49 72.5,62C 77.1807,59.6421 81.8474,57.3087 86.5,55C 89.367,54.1993 92.0336,54.3659 94.5,55.5 Z"/></g>
<g><path style="opacity:1" fill="#bcf1fa" d="M 88.5,56.5 C 90.1788,56.2852 91.1788,56.9519 91.5,58.5C 88.5461,60.2805 85.7128,62.2805 83,64.5C 79.3333,69.5 75.6667,74.5 72,79.5C 70.5796,86.0496 70.0796,92.7163 70.5,99.5C 70.0728,103.824 69.7395,108.158 69.5,112.5C 68.7784,112.918 68.2784,113.584 68,114.5C 67.7845,104.454 67.2845,94.4539 66.5,84.5C 66.5,84.1667 66.5,83.8333 66.5,83.5C 70.7694,78.4789 74.4361,72.9789 77.5,67C 77.1667,66.5 76.8333,66 76.5,65.5C 74.1495,66.8611 71.8162,68.1944 69.5,69.5C 68.4019,68.603 68.4019,67.7697 69.5,67C 69,66.8333 68.5,66.6667 68,66.5C 64.8743,68.3121 61.7077,69.9788 58.5,71.5C 58.5,70.8333 58.5,70.1667 58.5,69.5C 68.775,65.6932 78.775,61.3599 88.5,56.5 Z"/></g>
<g><path style="opacity:1" fill="#2d55ab" d="M 163.5,57.5 C 166.852,61.859 168.852,66.859 169.5,72.5C 166.956,69.6935 165.956,70.3601 166.5,74.5C 165.833,74.1667 165.167,73.8333 164.5,73.5C 164.095,68.5436 162.762,63.8769 160.5,59.5C 160.821,57.9519 161.821,57.2852 163.5,57.5 Z"/></g>
<g><path style="opacity:1" fill="#1a369b" d="M 211.5,57.5 C 212.5,57.5 213.5,57.5 214.5,57.5C 213.268,61.9314 212.268,66.4314 211.5,71C 212.39,73.8925 212.39,76.7259 211.5,79.5C 209.459,78.293 208.126,76.6263 207.5,74.5C 207.335,71.1501 207.502,67.8168 208,64.5C 209.705,62.4234 210.872,60.09 211.5,57.5 Z"/></g>
<g><path style="opacity:1" fill="#78deff" d="M 188.5,61.5 C 189.115,64.7941 190.115,67.9608 191.5,71C 190.975,71.6924 190.308,72.1924 189.5,72.5C 187.86,69.2576 186.527,65.9242 185.5,62.5C 186.209,61.596 187.209,61.2627 188.5,61.5 Z"/></g>
<g><path style="opacity:1" fill="#2a55cf" d="M 202.5,39.5 C 204.167,39.5 205.833,39.5 207.5,39.5C 207.343,40.8734 207.51,42.2068 208,43.5C 210.02,44.0463 211.853,45.2129 213.5,47C 210.87,49.7912 208.87,52.9579 207.5,56.5C 205.668,64.7253 200.668,68.5586 192.5,68C 200.011,60.2025 203.344,50.7025 202.5,39.5 Z"/></g>
<g><path style="opacity:1" fill="#7cabd4" d="M 147.5,42.5 C 148.167,43.5 148.833,44.5 149.5,45.5C 152.116,49.1875 153.783,53.1875 154.5,57.5C 154.5,57.8333 154.5,58.1667 154.5,58.5C 155.005,61.5212 155.672,64.5212 156.5,67.5C 155.908,69.4225 154.908,71.0892 153.5,72.5C 152.833,72.5 152.5,72.8333 152.5,73.5C 151.167,73.5 149.833,73.5 148.5,73.5C 149.848,72.3994 151.348,71.3994 153,70.5C 153.167,69.5 153.333,68.5 153.5,67.5C 152.336,58.8419 150.336,50.5085 147.5,42.5 Z"/></g>
<g><path style="opacity:1" fill="#3bace7" d="M 124.5,51.5 C 124.371,53.2161 124.038,54.8828 123.5,56.5C 120.694,60.1373 117.361,63.3039 113.5,66C 107.552,67.0096 102.219,65.843 97.5,62.5C 99.861,62.6741 102.194,63.0074 104.5,63.5C 108.182,63.6653 111.848,63.4986 115.5,63C 117.141,61.871 118.141,60.371 118.5,58.5C 121.211,56.7248 123.211,54.3915 124.5,51.5 Z"/></g>
<g><path style="opacity:1" fill="#53d0ea" d="M 91.5,58.5 C 96.0604,59.7659 100.394,61.4326 104.5,63.5C 102.194,63.0074 99.861,62.6741 97.5,62.5C 95.5449,60.6742 93.2116,60.1742 90.5,61C 86.0271,64.8062 81.8604,68.9729 78,73.5C 76.2481,76.672 74.2481,79.672 72,82.5C 71.8272,88.3482 71.3272,94.0149 70.5,99.5C 70.0796,92.7163 70.5796,86.0496 72,79.5C 75.6667,74.5 79.3333,69.5 83,64.5C 85.7128,62.2805 88.5461,60.2805 91.5,58.5 Z"/></g>
<g><path style="opacity:1" fill="#060f32" d="M 160.5,59.5 C 162.762,63.8769 164.095,68.5436 164.5,73.5C 162.692,74.9179 162.025,76.9179 162.5,79.5C 161.971,73.3947 160.471,67.3947 158,61.5C 157.241,59.9371 156.074,58.9371 154.5,58.5C 154.5,58.1667 154.5,57.8333 154.5,57.5C 154.281,56.325 154.614,55.325 155.5,54.5C 157.549,55.8818 159.215,57.5484 160.5,59.5 Z"/></g>
<g><path style="opacity:1" fill="#acf2ff" d="M 237.5,75.5 C 236.833,75.1667 236.167,74.8333 235.5,74.5C 234.833,74.1667 234.167,73.8333 233.5,73.5C 232.713,71.8958 231.38,71.2291 229.5,71.5C 229.5,69.5 229.5,67.5 229.5,65.5C 229.47,64.5028 229.97,63.8361 231,63.5C 232.99,64.8182 234.99,66.1515 237,67.5C 237.497,70.146 237.664,72.8127 237.5,75.5 Z"/></g>
<g><path style="opacity:1" fill="#2a4d92" d="M 175.5,49.5 C 179.266,56.1943 182.933,63.0277 186.5,70C 187.287,72.0989 187.62,74.2655 187.5,76.5C 186.833,78.8333 186.167,81.1667 185.5,83.5C 185.76,79.6521 185.094,75.9855 183.5,72.5C 182.264,71.7542 180.93,71.4208 179.5,71.5C 179.5,78.1667 179.5,84.8333 179.5,91.5C 179.784,93.4147 179.451,95.0813 178.5,96.5C 178.5,87.8333 178.5,79.1667 178.5,70.5C 179.624,68.269 180.124,65.9357 180,63.5C 178.071,59.0865 175.571,55.0865 172.5,51.5C 175.044,54.3065 176.044,53.6399 175.5,49.5 Z"/></g>
<g><path style="opacity:1" fill="#2e5cc2" d="M 214.5,35.5 C 216.689,38.2743 216.689,40.9409 214.5,43.5C 216.133,45.503 218.133,46.8363 220.5,47.5C 219.833,48.8333 218.833,49.8333 217.5,50.5C 216.542,50.9528 215.708,51.6195 215,52.5C 215.278,56.1394 215.278,59.8061 215,63.5C 213.868,65.3392 213.035,67.3392 212.5,69.5C 213.167,69.8333 213.833,70.1667 214.5,70.5C 216.5,69.5 218.5,68.5 220.5,67.5C 222.5,67.5 223.5,68.5 223.5,70.5C 222.781,72.7277 221.448,74.561 219.5,76C 215.342,77.6907 212.009,80.1907 209.5,83.5C 208.833,83.8333 208.167,84.1667 207.5,84.5C 207.657,83.1266 207.49,81.7932 207,80.5C 206.282,79.5494 205.449,79.3828 204.5,80C 201.207,85.4161 198.207,90.9161 195.5,96.5C 196.39,90.8338 198.057,85.5005 200.5,80.5C 202.591,79.1346 204.924,78.4679 207.5,78.5C 207.5,77.1667 207.5,75.8333 207.5,74.5C 208.126,76.6263 209.459,78.293 211.5,79.5C 212.39,76.7259 212.39,73.8925 211.5,71C 212.268,66.4314 213.268,61.9314 214.5,57.5C 213.5,57.5 212.5,57.5 211.5,57.5C 211.762,56.0222 211.429,54.6888 210.5,53.5C 209.712,54.7701 208.712,55.7701 207.5,56.5C 208.87,52.9579 210.87,49.7912 213.5,47C 211.853,45.2129 210.02,44.0463 208,43.5C 207.51,42.2068 207.343,40.8734 207.5,39.5C 205.833,39.5 204.167,39.5 202.5,39.5C 204.5,38.8333 206.5,38.1667 208.5,37.5C 210.315,36.3702 212.315,35.7036 214.5,35.5 Z"/></g>
<g><path style="opacity:1" fill="#050713" d="M 174.5,71.5 C 174.833,71.5 175.167,71.5 175.5,71.5C 175.5,76.8333 175.5,82.1667 175.5,87.5C 174.176,88.8499 173.176,88.6833 172.5,87C 171.95,83.6758 171.283,80.5091 170.5,77.5C 170.338,75.4727 170.505,73.4727 171,71.5C 172.145,70.3157 173.312,70.3157 174.5,71.5 Z"/></g>
<g><path style="opacity:1" fill="#6accff" d="M 203.5,66.5 C 204.496,66.4142 205.329,66.7476 206,67.5C 206.465,78.1645 202.965,79.3312 195.5,71C 199.22,71.2397 201.887,69.7397 203.5,66.5 Z"/></g>
<g><path style="opacity:1" fill="#7093ac" d="M 141.5,65.5 C 140.5,65.5 139.5,65.5 138.5,65.5C 139.077,72.2312 140.077,78.8979 141.5,85.5C 141.167,85.5 140.833,85.5 140.5,85.5C 138.338,79.7119 137.004,73.7119 136.5,67.5C 137.316,63.5925 138.983,62.9258 141.5,65.5 Z"/></g>
<g><path style="opacity:1" fill="#3278c3" d="M 123.5,56.5 C 125.568,56.2176 127.568,57.0509 129.5,59C 131.915,61.8462 134.249,64.6795 136.5,67.5C 137.004,73.7119 138.338,79.7119 140.5,85.5C 140.799,87.604 140.466,89.604 139.5,91.5C 137.493,93.0082 135.826,94.8416 134.5,97C 133.552,97.4828 132.552,97.6495 131.5,97.5C 129.468,92.3008 126.135,88.1341 121.5,85C 117.922,81.3781 114.589,77.5448 111.5,73.5C 106.013,70.2382 100.346,67.2382 94.5,64.5C 91.5773,65.4476 88.9107,66.7809 86.5,68.5C 88.5742,63.7062 92.2409,61.7062 97.5,62.5C 102.219,65.843 107.552,67.0096 113.5,66C 117.361,63.3039 120.694,60.1373 123.5,56.5 Z"/></g>
<g><path style="opacity:1" fill="#030510" d="M 185.5,83.5 C 185.586,87.3186 184.919,90.9852 183.5,94.5C 181.57,94.2294 180.236,93.2294 179.5,91.5C 179.5,84.8333 179.5,78.1667 179.5,71.5C 180.93,71.4208 182.264,71.7542 183.5,72.5C 185.094,75.9855 185.76,79.6521 185.5,83.5 Z"/></g>
<g><path style="opacity:1" fill="#488cf3" d="M 226.5,49.5 C 229.167,49.8333 231.833,50.1667 234.5,50.5C 234.5,51.5 234.5,52.5 234.5,53.5C 230.278,53.0781 226.278,53.7448 222.5,55.5C 223.808,58.464 225.808,60.7974 228.5,62.5C 228.263,63.791 228.596,64.791 229.5,65.5C 229.5,67.5 229.5,69.5 229.5,71.5C 231.38,71.2291 232.713,71.8958 233.5,73.5C 229.035,75.1305 224.535,76.7972 220,78.5C 218.301,79.7044 216.801,81.0378 215.5,82.5C 212.805,85.5256 210.138,88.5256 207.5,91.5C 208.441,89.5336 209.441,87.5336 210.5,85.5C 210.137,84.8165 209.804,84.1499 209.5,83.5C 212.009,80.1907 215.342,77.6907 219.5,76C 221.448,74.561 222.781,72.7277 223.5,70.5C 223.5,68.5 222.5,67.5 220.5,67.5C 218.5,68.5 216.5,69.5 214.5,70.5C 213.833,70.1667 213.167,69.8333 212.5,69.5C 213.035,67.3392 213.868,65.3392 215,63.5C 215.278,59.8061 215.278,56.1394 215,52.5C 215.708,51.6195 216.542,50.9528 217.5,50.5C 217.5,51.5 217.5,52.5 217.5,53.5C 221.36,53.9459 224.36,52.6125 226.5,49.5 Z"/></g>
<g><path style="opacity:1" fill="#040610" d="M 164.5,73.5 C 165.167,73.8333 165.833,74.1667 166.5,74.5C 166.5,74.8333 166.5,75.1667 166.5,75.5C 166.824,79.5546 166.491,83.5546 165.5,87.5C 164.265,86.6602 163.265,85.6602 162.5,84.5C 162.5,82.8333 162.5,81.1667 162.5,79.5C 162.025,76.9179 162.692,74.9179 164.5,73.5 Z"/></g>
<g><path style="opacity:1" fill="#56bed7" d="M 67.5,70.5 C 64.7416,73.0233 62.7416,76.0233 61.5,79.5C 61.3359,76.8127 61.5026,74.146 62,71.5C 63.6995,70.5939 65.5328,70.2606 67.5,70.5 Z"/></g>
<g><path style="opacity:1" fill="#58cbe2" d="M 66.5,83.5 C 66.3791,79.5569 67.8791,76.5569 71,74.5C 71.49,73.2068 71.6567,71.8734 71.5,70.5C 70.1667,70.5 68.8333,70.5 67.5,70.5C 67.8417,69.6618 68.5084,69.3284 69.5,69.5C 71.8162,68.1944 74.1495,66.8611 76.5,65.5C 76.8333,66 77.1667,66.5 77.5,67C 74.4361,72.9789 70.7694,78.4789 66.5,83.5 Z"/></g>
<g><path style="opacity:1" fill="#050613" d="M 197.5,80.5 C 195.808,85.2475 194.142,89.9142 192.5,94.5C 191.312,95.6843 190.145,95.6843 189,94.5C 188.506,92.8659 188.34,91.1992 188.5,89.5C 188.5,88.5 188.5,87.5 188.5,86.5C 189.622,82.4885 190.955,78.4885 192.5,74.5C 193.167,74.1667 193.833,73.8333 194.5,73.5C 197.093,75.0708 198.093,77.4041 197.5,80.5 Z"/></g>
<g><path style="opacity:1" fill="#2750a6" d="M 233.5,73.5 C 234.167,73.8333 234.833,74.1667 235.5,74.5C 234.738,76.2624 233.404,77.2624 231.5,77.5C 228.848,77.4095 226.515,78.0762 224.5,79.5C 221.406,80.2134 218.406,81.2134 215.5,82.5C 216.801,81.0378 218.301,79.7044 220,78.5C 224.535,76.7972 229.035,75.1305 233.5,73.5 Z"/></g>
<g><path style="opacity:1" fill="#275c9b" d="M 119.5,107.5 C 118.167,108.167 116.833,108.833 115.5,109.5C 114.609,110.11 113.609,110.443 112.5,110.5C 108.201,106.373 103.701,102.373 99,98.5C 97.2745,96.7721 95.9411,94.7721 95,92.5C 94.6667,93.1667 94.3333,93.8333 94,94.5C 92.9914,92.9751 92.4914,91.3084 92.5,89.5C 88.582,87.4186 85.4153,84.4186 83,80.5C 82.1841,79.1772 81.0174,78.5106 79.5,78.5C 80.7317,73.0675 84.0651,70.2342 89.5,70C 92.8904,74.6293 96.3904,79.1293 100,83.5C 100.333,83.1667 100.667,82.8333 101,82.5C 103.357,86.7526 106.024,90.0859 109,92.5C 109.333,92.1667 109.667,91.8333 110,91.5C 113.025,97.0004 116.192,102.334 119.5,107.5 Z"/></g>
<g><path style="opacity:1" fill="#60b6d9" d="M 169.5,72.5 C 169.216,74.4147 169.549,76.0813 170.5,77.5C 170.613,82.518 170.947,87.518 171.5,92.5C 170.5,92.5 169.5,92.5 168.5,92.5C 167.833,86.8333 167.167,81.1667 166.5,75.5C 166.5,75.1667 166.5,74.8333 166.5,74.5C 165.956,70.3601 166.956,69.6935 169.5,72.5 Z"/></g>
<g><path style="opacity:1" fill="#57a5cb" d="M 187.5,76.5 C 188.479,79.6248 188.813,82.9581 188.5,86.5C 188.5,87.5 188.5,88.5 188.5,89.5C 187.6,93.7281 186.6,98.0614 185.5,102.5C 185.167,102.833 184.833,103.167 184.5,103.5C 183.516,100.572 183.183,97.5719 183.5,94.5C 184.919,90.9852 185.586,87.3186 185.5,83.5C 186.167,81.1667 186.833,78.8333 187.5,76.5 Z"/></g>
<g><path style="opacity:1" fill="#66c3df" d="M 178.5,70.5 C 178.5,79.1667 178.5,87.8333 178.5,96.5C 178.672,97.4916 178.338,98.1583 177.5,98.5C 176.507,89.6822 176.173,80.6822 176.5,71.5C 176.409,69.3023 177.075,68.9689 178.5,70.5 Z"/></g>
<g><path style="opacity:1" fill="#2c68aa" d="M 131.5,97.5 C 128.401,101.934 124.401,105.267 119.5,107.5C 116.192,102.334 113.025,97.0004 110,91.5C 109.667,91.8333 109.333,92.1667 109,92.5C 106.024,90.0859 103.357,86.7526 101,82.5C 100.667,82.8333 100.333,83.1667 100,83.5C 96.3904,79.1293 92.8904,74.6293 89.5,70C 84.0651,70.2342 80.7317,73.0675 79.5,78.5C 78.5,80.1667 77.1667,81.5 75.5,82.5C 76.9753,76.0338 80.642,71.3672 86.5,68.5C 88.9107,66.7809 91.5773,65.4476 94.5,64.5C 100.346,67.2382 106.013,70.2382 111.5,73.5C 114.589,77.5448 117.922,81.3781 121.5,85C 126.135,88.1341 129.468,92.3008 131.5,97.5 Z"/></g>
<g><path style="opacity:1" fill="#164467" d="M 231.5,77.5 C 234.059,79.4566 233.726,81.1233 230.5,82.5C 226.137,81.736 222.804,83.0694 220.5,86.5C 218.938,86.7329 217.605,87.3995 216.5,88.5C 215.833,88.5 215.167,88.5 214.5,88.5C 214.33,87.1779 214.663,86.0113 215.5,85C 218.752,83.4339 221.752,81.6006 224.5,79.5C 226.515,78.0762 228.848,77.4095 231.5,77.5 Z"/></g>
<g><path style="opacity:1" fill="#e1f4f7" d="M 69.5,69.5 C 68.5084,69.3284 67.8417,69.6618 67.5,70.5C 65.5328,70.2606 63.6995,70.5939 62,71.5C 61.5026,74.146 61.3359,76.8127 61.5,79.5C 61.5,80.1667 61.1667,80.5 60.5,80.5C 55.1666,81.6679 50.4999,84.1679 46.5,88C 43.964,88.3392 41.464,88.8392 39,89.5C 31.9559,87.4735 24.7892,86.6402 17.5,87C 16.7476,87.6708 16.4142,88.5041 16.5,89.5C 15.1667,90.1667 14.1667,91.1667 13.5,92.5C 8.59448,97.9826 3.92781,103.649 -0.5,109.5C -0.5,106.833 -0.5,104.167 -0.5,101.5C 4.36014,94.2938 10.0268,87.6272 16.5,81.5C 17.3739,80.4749 18.5405,79.8082 20,79.5C 22.1542,80.2741 24.3208,80.9408 26.5,81.5C 31.8397,85.6351 37.8397,86.4684 44.5,84C 48.5197,81.9656 52.5197,79.9656 56.5,78C 57.3972,75.9129 58.0639,73.7463 58.5,71.5C 61.7077,69.9788 64.8743,68.3121 68,66.5C 68.5,66.6667 69,66.8333 69.5,67C 68.4019,67.7697 68.4019,68.603 69.5,69.5 Z"/></g>
<g><path style="opacity:1" fill="#3484a3" d="M 17.5,78.5 C 22.8741,78.3355 27.8741,79.3355 32.5,81.5C 30.5,81.5 28.5,81.5 26.5,81.5C 24.3208,80.9408 22.1542,80.2741 20,79.5C 18.5405,79.8082 17.3739,80.4749 16.5,81.5C 15.448,81.3505 14.448,81.5172 13.5,82C 10.3033,86.3616 6.63664,90.195 2.5,93.5C 4.64146,90.5039 6.64146,87.3372 8.5,84C 11.1393,81.5173 14.1393,79.684 17.5,78.5 Z"/></g>
<g><path style="opacity:1" fill="#50b9cf" d="M 58.5,69.5 C 58.5,70.1667 58.5,70.8333 58.5,71.5C 58.0639,73.7463 57.3972,75.9129 56.5,78C 52.5197,79.9656 48.5197,81.9656 44.5,84C 37.8397,86.4684 31.8397,85.6351 26.5,81.5C 28.5,81.5 30.5,81.5 32.5,81.5C 35.7431,82.58 39.0764,82.7466 42.5,82C 46.1554,79.1735 50.1554,77.0068 54.5,75.5C 55.6528,73.364 56.9862,71.364 58.5,69.5 Z"/></g>
<g><path style="opacity:1" fill="#34ceea" d="M 235.5,74.5 C 236.167,74.8333 236.833,75.1667 237.5,75.5C 237.283,78.8917 235.949,81.725 233.5,84C 228.358,86.0937 223.358,88.2603 218.5,90.5C 217.128,91.5116 215.795,92.5116 214.5,93.5C 213.957,93.44 213.624,93.1067 213.5,92.5C 214.524,91.1482 215.524,89.8149 216.5,88.5C 217.605,87.3995 218.938,86.7329 220.5,86.5C 224.397,86.2739 227.73,84.9405 230.5,82.5C 233.726,81.1233 234.059,79.4566 231.5,77.5C 233.404,77.2624 234.738,76.2624 235.5,74.5 Z"/></g>
<g><path style="opacity:1" fill="#2856a8" d="M 230.5,82.5 C 227.73,84.9405 224.397,86.2739 220.5,86.5C 222.804,83.0694 226.137,81.736 230.5,82.5 Z"/></g>
<g><path style="opacity:1" fill="#1c338a" d="M 154.5,58.5 C 156.074,58.9371 157.241,59.9371 158,61.5C 160.471,67.3947 161.971,73.3947 162.5,79.5C 162.5,81.1667 162.5,82.8333 162.5,84.5C 161.791,85.404 160.791,85.7373 159.5,85.5C 159.326,83.139 158.993,80.8056 158.5,78.5C 157.178,78.33 156.011,78.6634 155,79.5C 153.374,81.9171 151.874,84.4171 150.5,87C 148.833,87.6667 147.167,87.6667 145.5,87C 144.707,83.5894 144.207,80.0894 144,76.5C 140.968,73.7793 139.634,70.446 140,66.5C 140.383,67.056 140.883,67.3893 141.5,67.5C 143.833,69.5 146.167,71.5 148.5,73.5C 149.833,73.5 151.167,73.5 152.5,73.5C 150.44,74.8112 148.274,74.8112 146,73.5C 145.502,76.8168 145.335,80.1501 145.5,83.5C 147.199,83.6602 148.866,83.4935 150.5,83C 153.65,80.0499 155.65,76.5499 156.5,72.5C 155.5,72.5 154.5,72.5 153.5,72.5C 154.908,71.0892 155.908,69.4225 156.5,67.5C 155.672,64.5212 155.005,61.5212 154.5,58.5 Z"/></g>
<g><path style="opacity:1" fill="#2140b1" d="M 153.5,72.5 C 154.5,72.5 155.5,72.5 156.5,72.5C 155.65,76.5499 153.65,80.0499 150.5,83C 148.866,83.4935 147.199,83.6602 145.5,83.5C 145.335,80.1501 145.502,76.8168 146,73.5C 148.274,74.8112 150.44,74.8112 152.5,73.5C 152.5,72.8333 152.833,72.5 153.5,72.5 Z"/></g>
<g><path style="opacity:1" fill="#66d7e0" d="M 16.5,81.5 C 10.0268,87.6272 4.36014,94.2938 -0.5,101.5C -0.5,99.5 -0.5,97.5 -0.5,95.5C 0.5,94.8333 1.5,94.1667 2.5,93.5C 6.63664,90.195 10.3033,86.3616 13.5,82C 14.448,81.5172 15.448,81.3505 16.5,81.5 Z"/></g>
<g><path style="opacity:1" fill="#235188" d="M 79.5,78.5 C 81.0174,78.5106 82.1841,79.1772 83,80.5C 85.4153,84.4186 88.582,87.4186 92.5,89.5C 92.4914,91.3084 92.9914,92.9751 94,94.5C 94.3333,93.8333 94.6667,93.1667 95,92.5C 95.9411,94.7721 97.2745,96.7721 99,98.5C 103.701,102.373 108.201,106.373 112.5,110.5C 105.655,111.736 98.9882,113.903 92.5,117C 89.8936,117.792 87.8936,119.292 86.5,121.5C 84.283,122.369 81.9496,122.702 79.5,122.5C 78.8333,122.5 78.1667,122.5 77.5,122.5C 74.6946,121.681 71.6946,121.181 68.5,121C 70.3783,119.457 71.8783,117.624 73,115.5C 73.4998,105.172 73.6665,94.8387 73.5,84.5C 73.5,83.1667 74.1667,82.5 75.5,82.5C 77.1667,81.5 78.5,80.1667 79.5,78.5 Z"/></g>
<g><path style="opacity:1" fill="#080a18" d="M 207.5,84.5 C 204.167,90.1667 200.833,95.8333 197.5,101.5C 196.448,101.649 195.448,101.483 194.5,101C 195.337,99.9887 195.67,98.8221 195.5,97.5C 195.5,97.1667 195.5,96.8333 195.5,96.5C 198.207,90.9161 201.207,85.4161 204.5,80C 205.449,79.3828 206.282,79.5494 207,80.5C 207.49,81.7932 207.657,83.1266 207.5,84.5 Z"/></g>
<g><path style="opacity:1" fill="#1f5183" d="M 48.5,133.5 C 47.5,134.167 46.5,134.833 45.5,135.5C 46.2702,131.297 47.6035,127.297 49.5,123.5C 53.9858,119.515 58.3192,115.348 62.5,111C 63.8118,100.721 59.8118,94.2214 50.5,91.5C 47.8333,92.1667 45.1667,92.8333 42.5,93.5C 35.8337,92.8586 29.3337,91.5253 23,89.5C 21.6153,89.5143 20.4486,89.8476 19.5,90.5C 16.1396,93.8604 12.8063,97.1937 9.5,100.5C 10.4289,97.5881 11.7622,94.9214 13.5,92.5C 14.1667,91.1667 15.1667,90.1667 16.5,89.5C 19.2479,88.8809 22.0812,88.5475 25,88.5C 32.6547,90.2768 40.4881,90.7768 48.5,90C 51.4905,87.1518 54.8239,84.9851 58.5,83.5C 60.4258,82.7577 62.2591,81.7577 64,80.5C 64.4126,89.1719 64.9126,97.8386 65.5,106.5C 66.3575,111.663 64.3575,114.83 59.5,116C 56,118.833 52.8333,122 50,125.5C 49.433,128.168 48.933,130.834 48.5,133.5 Z"/></g>
<g><path style="opacity:1" fill="#396f9f" d="M 175.5,71.5 C 175.833,71.5 176.167,71.5 176.5,71.5C 176.173,80.6822 176.507,89.6822 177.5,98.5C 177.44,99.0431 177.107,99.3764 176.5,99.5C 175.534,97.604 175.201,95.604 175.5,93.5C 175.5,91.5 175.5,89.5 175.5,87.5C 175.5,82.1667 175.5,76.8333 175.5,71.5 Z"/></g>
<g><path style="opacity:1" fill="#51b2c8" d="M 60.5,80.5 C 59.8333,81.5 59.1667,82.5 58.5,83.5C 54.8239,84.9851 51.4905,87.1518 48.5,90C 40.4881,90.7768 32.6547,90.2768 25,88.5C 22.0812,88.5475 19.2479,88.8809 16.5,89.5C 16.4142,88.5041 16.7476,87.6708 17.5,87C 24.7892,86.6402 31.9559,87.4735 39,89.5C 41.464,88.8392 43.964,88.3392 46.5,88C 50.4999,84.1679 55.1666,81.6679 60.5,80.5 Z"/></g>
<g><path style="opacity:1" fill="#4d92c5" d="M 200.5,80.5 C 198.057,85.5005 196.39,90.8338 195.5,96.5C 195.5,96.8333 195.5,97.1667 195.5,97.5C 192.742,100.678 190.742,104.345 189.5,108.5C 188.624,108.631 187.957,108.298 187.5,107.5C 189.12,104.596 190.453,101.596 191.5,98.5C 191.833,97.1667 192.167,95.8333 192.5,94.5C 194.142,89.9142 195.808,85.2475 197.5,80.5C 198.458,80.0472 199.292,79.3805 200,78.5C 200.464,79.0944 200.631,79.7611 200.5,80.5 Z"/></g>
<g><path style="opacity:1" fill="#53b6f3" d="M 237.5,63.5 C 239.878,64.741 241.711,64.0743 243,61.5C 244,63.1667 245,64.8333 246,66.5C 247.943,64.2849 249.609,64.2849 251,66.5C 252.299,66.0338 253.799,66.0338 255.5,66.5C 255.5,80.1667 255.5,93.8333 255.5,107.5C 254.244,107.461 253.244,107.961 252.5,109C 253.517,110.049 253.684,111.216 253,112.5C 251.833,111.333 250.667,110.167 249.5,109C 248.041,109.355 246.707,109.189 245.5,108.5C 245.649,107.448 245.483,106.448 245,105.5C 244.667,105.833 244.333,106.167 244,106.5C 243.16,103.536 242.16,103.203 241,105.5C 239.493,104.495 238.327,103.162 237.5,101.5C 236.227,101.746 235.06,101.746 234,101.5C 228.892,97.7009 223.725,94.0343 218.5,90.5C 223.358,88.2603 228.358,86.0937 233.5,84C 235.949,81.725 237.283,78.8917 237.5,75.5C 237.664,72.8127 237.497,70.146 237,67.5C 234.99,66.1515 232.99,64.8182 231,63.5C 229.97,63.8361 229.47,64.5028 229.5,65.5C 228.596,64.791 228.263,63.791 228.5,62.5C 231.627,61.312 234.627,61.6453 237.5,63.5 Z"/></g>
<g><path style="opacity:1" fill="#0f172b" d="M 224.5,79.5 C 221.752,81.6006 218.752,83.4339 215.5,85C 214.663,86.0113 214.33,87.1779 214.5,88.5C 209.779,92.9525 205.779,97.9525 202.5,103.5C 201.646,102.368 201.646,101.035 202.5,99.5C 203.655,96.5251 205.322,93.8584 207.5,91.5C 210.138,88.5256 212.805,85.5256 215.5,82.5C 218.406,81.2134 221.406,80.2134 224.5,79.5 Z"/></g>
<g><path style="opacity:1" fill="#163a6c" d="M 19.5,90.5 C 20.4486,89.8476 21.6153,89.5143 23,89.5C 29.3337,91.5253 35.8337,92.8586 42.5,93.5C 45.1667,92.8333 47.8333,92.1667 50.5,91.5C 59.8118,94.2214 63.8118,100.721 62.5,111C 58.3192,115.348 53.9858,119.515 49.5,123.5C 50.1379,121.201 51.1379,119.034 52.5,117C 46.0039,112.995 39.8372,107.829 34,101.5C 32.9887,102.337 31.8221,102.67 30.5,102.5C 29.1454,99.5409 27.1454,96.2075 24.5,92.5C 22.9783,91.438 21.3117,90.7713 19.5,90.5 Z"/></g>
<g><path style="opacity:1" fill="#264b91" d="M 170.5,77.5 C 171.283,80.5091 171.95,83.6758 172.5,87C 173.176,88.6833 174.176,88.8499 175.5,87.5C 175.5,89.5 175.5,91.5 175.5,93.5C 174.5,93.5 173.5,93.5 172.5,93.5C 172.737,94.791 172.404,95.791 171.5,96.5C 169.088,96.3059 168.088,94.9726 168.5,92.5C 169.5,92.5 170.5,92.5 171.5,92.5C 170.947,87.518 170.613,82.518 170.5,77.5 Z"/></g>
<g><path style="opacity:1" fill="#0f2e5c" d="M 19.5,90.5 C 21.3117,90.7713 22.9783,91.438 24.5,92.5C 27.1454,96.2075 29.1454,99.5409 30.5,102.5C 31.8221,102.67 32.9887,102.337 34,101.5C 39.8372,107.829 46.0039,112.995 52.5,117C 51.1379,119.034 50.1379,121.201 49.5,123.5C 47.6035,127.297 46.2702,131.297 45.5,135.5C 44.8333,135.833 44.1667,136.167 43.5,136.5C 43.2317,133.881 43.565,131.381 44.5,129C 42.1222,126.158 39.4555,124.491 36.5,124C 37.6537,123.086 37.487,122.253 36,121.5C 35.6667,121.833 35.3333,122.167 35,122.5C 34.7104,120.956 34.0437,119.623 33,118.5C 30.9986,118.834 29.1653,118.834 27.5,118.5C 29.8422,122.766 32.5089,126.099 35.5,128.5C 34.6446,129.293 33.8113,128.96 33,127.5C 32.6667,128.167 32.3333,128.833 32,129.5C 28.7727,127.123 25.7727,124.456 23,121.5C 21.9505,122.517 20.7839,122.684 19.5,122C 15.6146,118.479 11.448,115.313 7,112.5C 4.09497,113.574 1.59497,115.241 -0.5,117.5C -0.5,116.833 -0.5,116.167 -0.5,115.5C 3.43568,112.386 6.10234,108.386 7.5,103.5C 8.90632,103.027 9.57298,102.027 9.5,100.5C 12.8063,97.1937 16.1396,93.8604 19.5,90.5 Z"/></g>
<g><path style="opacity:1" fill="#306799" d="M 73.5,84.5 C 73.6665,94.8387 73.4998,105.172 73,115.5C 71.8783,117.624 70.3783,119.457 68.5,121C 71.6946,121.181 74.6946,121.681 77.5,122.5C 74.1501,122.335 70.8168,122.502 67.5,123C 66.2138,125.832 66.2138,128.665 67.5,131.5C 65.9505,132.441 64.2838,133.107 62.5,133.5C 62.1667,133.5 61.8333,133.5 61.5,133.5C 61.4142,132.504 61.7476,131.671 62.5,131C 59.854,130.503 57.1873,130.336 54.5,130.5C 54.5,129.5 54.5,128.5 54.5,127.5C 58.4689,123.735 63.1356,120.901 68.5,119C 70.0488,117.786 71.2155,116.286 72,114.5C 72.1698,104.325 72.6698,94.3249 73.5,84.5 Z"/></g>
<g><path style="opacity:1" fill="#59abd0" d="M 209.5,83.5 C 209.804,84.1499 210.137,84.8165 210.5,85.5C 209.441,87.5336 208.441,89.5336 207.5,91.5C 205.322,93.8584 203.655,96.5251 202.5,99.5C 200.821,101 199.488,102.833 198.5,105C 197.365,105.749 196.365,105.583 195.5,104.5C 196.193,103.482 196.859,102.482 197.5,101.5C 200.833,95.8333 204.167,90.1667 207.5,84.5C 208.167,84.1667 208.833,83.8333 209.5,83.5 Z"/></g>
<g><path style="opacity:1" fill="#06143b" d="M 188.5,89.5 C 188.34,91.1992 188.506,92.8659 189,94.5C 190.145,95.6843 191.312,95.6843 192.5,94.5C 192.167,95.8333 191.833,97.1667 191.5,98.5C 188.22,102.44 185.386,106.774 183,111.5C 180.684,109.53 178.851,107.196 177.5,104.5C 175.314,103.779 173.147,103.113 171,102.5C 168.947,100.287 169.113,98.2873 171.5,96.5C 172.404,95.791 172.737,94.791 172.5,93.5C 173.5,93.5 174.5,93.5 175.5,93.5C 175.201,95.604 175.534,97.604 176.5,99.5C 177.107,99.3764 177.44,99.0431 177.5,98.5C 178.338,98.1583 178.672,97.4916 178.5,96.5C 179.451,95.0813 179.784,93.4147 179.5,91.5C 180.236,93.2294 181.57,94.2294 183.5,94.5C 183.183,97.5719 183.516,100.572 184.5,103.5C 184.833,103.167 185.167,102.833 185.5,102.5C 186.6,98.0614 187.6,93.7281 188.5,89.5 Z"/></g>
<g><path style="opacity:1" fill="#69e4e9" d="M 13.5,92.5 C 11.7622,94.9214 10.4289,97.5881 9.5,100.5C 9.57298,102.027 8.90632,103.027 7.5,103.5C 4.45337,106.545 1.7867,109.878 -0.5,113.5C -0.5,112.167 -0.5,110.833 -0.5,109.5C 3.92781,103.649 8.59448,97.9826 13.5,92.5 Z"/></g>
<g><path style="opacity:1" fill="#45accf" d="M 214.5,88.5 C 215.167,88.5 215.833,88.5 216.5,88.5C 215.524,89.8149 214.524,91.1482 213.5,92.5C 213.624,93.1067 213.957,93.44 214.5,93.5C 210.447,98.2192 206.78,103.219 203.5,108.5C 201.095,112.973 198.429,117.306 195.5,121.5C 193.475,123.564 191.142,124.898 188.5,125.5C 186.801,125.34 185.134,125.506 183.5,126C 182.281,128.721 180.281,130.554 177.5,131.5C 176.833,131.5 176.5,131.167 176.5,130.5C 178.473,129.194 180.139,127.527 181.5,125.5C 184.366,124.035 187.366,123.035 190.5,122.5C 193.243,120.761 195.243,118.427 196.5,115.5C 197.341,111.285 199.341,107.285 202.5,103.5C 205.779,97.9525 209.779,92.9525 214.5,88.5 Z"/></g>
<g><path style="opacity:1" fill="#4aa5e5" d="M 218.5,90.5 C 223.725,94.0343 228.892,97.7009 234,101.5C 235.06,101.746 236.227,101.746 237.5,101.5C 238.327,103.162 239.493,104.495 241,105.5C 242.16,103.203 243.16,103.536 244,106.5C 244.333,106.167 244.667,105.833 245,105.5C 245.483,106.448 245.649,107.448 245.5,108.5C 245.585,109.995 244.919,110.995 243.5,111.5C 242.231,109.695 240.397,107.695 238,105.5C 235.28,108.319 232.947,107.986 231,104.5C 230.25,105.126 229.416,105.626 228.5,106C 230.2,108.96 231.867,111.793 233.5,114.5C 233.33,115.822 233.663,116.989 234.5,118C 234,118.5 233.5,119 233,119.5C 231.5,117.167 230,114.833 228.5,112.5C 227.635,111.417 226.635,111.251 225.5,112C 226.424,112.85 226.424,113.85 225.5,115C 226.01,116.826 226.844,116.993 228,115.5C 229.205,118.562 230.372,121.562 231.5,124.5C 229.549,124.773 228.049,124.107 227,122.5C 226.667,123.167 226.333,123.833 226,124.5C 223.836,122.615 222.503,120.615 222,118.5C 221.617,119.056 221.117,119.389 220.5,119.5C 220.565,119.062 220.399,118.728 220,118.5C 219.667,119.167 219.333,119.833 219,120.5C 217.758,118.459 215.925,117.293 213.5,117C 211.604,112.542 208.27,109.708 203.5,108.5C 206.78,103.219 210.447,98.2192 214.5,93.5C 215.795,92.5116 217.128,91.5116 218.5,90.5 Z"/></g>
<g><path style="opacity:1" fill="#a3dee8" d="M 140.5,85.5 C 140.833,85.5 141.167,85.5 141.5,85.5C 141.5,86.1667 141.833,86.5 142.5,86.5C 143.093,93.4894 141.926,100.156 139,106.5C 137.989,107.337 136.822,107.67 135.5,107.5C 136.092,98.8755 134.092,98.2089 129.5,105.5C 127.783,108.845 127.116,112.511 127.5,116.5C 126.5,116.5 125.5,116.5 124.5,116.5C 124.322,113.784 123.822,111.117 123,108.5C 121.871,110.141 120.371,111.141 118.5,111.5C 116.821,111.715 115.821,111.048 115.5,109.5C 116.833,108.833 118.167,108.167 119.5,107.5C 124.401,105.267 128.401,101.934 131.5,97.5C 132.552,97.6495 133.552,97.4828 134.5,97C 135.826,94.8416 137.493,93.0082 139.5,91.5C 140.466,89.604 140.799,87.604 140.5,85.5 Z"/></g>
<g><path style="opacity:1" fill="#00020a" d="M 158.5,107.5 C 160.167,108.833 161.833,110.167 163.5,111.5C 169.81,115.815 175.81,120.482 181.5,125.5C 180.139,127.527 178.473,129.194 176.5,130.5C 173.863,131.63 171.197,131.63 168.5,130.5C 168.736,132.973 170.069,134.64 172.5,135.5C 171.167,137.167 171.167,138.833 172.5,140.5C 171.829,141.946 170.662,142.612 169,142.5C 162.245,141.401 156.078,138.901 150.5,135C 148.26,134.023 145.927,133.523 143.5,133.5C 144.502,129.609 145.335,125.609 146,121.5C 146.915,120.672 147.581,119.672 148,118.5C 151.608,122.299 155.775,125.465 160.5,128C 162.089,129.543 163.423,129.543 164.5,128C 162.869,126.074 161.035,124.24 159,122.5C 156.083,118.334 153.416,114.001 151,109.5C 150.226,107.597 150.56,105.93 152,104.5C 153.87,106.219 156.037,107.219 158.5,107.5 Z"/></g>
<g><path style="opacity:1" fill="#0a1539" d="M 142.5,86.5 C 143.404,87.209 143.737,88.209 143.5,89.5C 145.262,89.3573 146.929,89.6906 148.5,90.5C 158.605,100.942 168.938,110.942 179.5,120.5C 174.385,117.435 169.385,114.102 164.5,110.5C 163.893,110.624 163.56,110.957 163.5,111.5C 161.833,110.167 160.167,108.833 158.5,107.5C 156.69,103.689 153.69,102.023 149.5,102.5C 149.5,103.5 149.5,104.5 149.5,105.5C 145.547,105.614 142.047,106.947 139,109.5C 138.167,112.171 138.667,114.504 140.5,116.5C 138.883,117.038 137.216,117.371 135.5,117.5C 135.892,114.278 135.392,111.278 134,108.5C 131.036,110.969 129.536,109.969 129.5,105.5C 134.092,98.2089 136.092,98.8755 135.5,107.5C 136.822,107.67 137.989,107.337 139,106.5C 141.926,100.156 143.093,93.4894 142.5,86.5 Z"/></g>
<g><path style="opacity:1" fill="#0b1b4a" d="M 195.5,97.5 C 195.67,98.8221 195.337,99.9887 194.5,101C 195.448,101.483 196.448,101.649 197.5,101.5C 196.859,102.482 196.193,103.482 195.5,104.5C 196.365,105.583 197.365,105.749 198.5,105C 199.488,102.833 200.821,101 202.5,99.5C 201.646,101.035 201.646,102.368 202.5,103.5C 199.341,107.285 197.341,111.285 196.5,115.5C 193.986,115.246 191.652,114.413 189.5,113C 188.272,111.51 188.272,110.01 189.5,108.5C 190.742,104.345 192.742,100.678 195.5,97.5 Z"/></g>
<g><path style="opacity:1" fill="#0e1f5f" d="M 141.5,65.5 C 141.5,66.1667 141.5,66.8333 141.5,67.5C 140.883,67.3893 140.383,67.056 140,66.5C 139.634,70.446 140.968,73.7793 144,76.5C 144.207,80.0894 144.707,83.5894 145.5,87C 147.167,87.6667 148.833,87.6667 150.5,87C 151.874,84.4171 153.374,81.9171 155,79.5C 156.011,78.6634 157.178,78.33 158.5,78.5C 158.993,80.8056 159.326,83.139 159.5,85.5C 160.791,85.7373 161.791,85.404 162.5,84.5C 163.265,85.6602 164.265,86.6602 165.5,87.5C 166.491,83.5546 166.824,79.5546 166.5,75.5C 167.167,81.1667 167.833,86.8333 168.5,92.5C 168.088,94.9726 169.088,96.3059 171.5,96.5C 169.113,98.2873 168.947,100.287 171,102.5C 173.147,103.113 175.314,103.779 177.5,104.5C 178.851,107.196 180.684,109.53 183,111.5C 185.386,106.774 188.22,102.44 191.5,98.5C 190.453,101.596 189.12,104.596 187.5,107.5C 187.957,108.298 188.624,108.631 189.5,108.5C 188.272,110.01 188.272,111.51 189.5,113C 191.652,114.413 193.986,115.246 196.5,115.5C 195.243,118.427 193.243,120.761 190.5,122.5C 187.15,122.665 183.817,122.498 180.5,122C 179.944,121.617 179.611,121.117 179.5,120.5C 168.938,110.942 158.605,100.942 148.5,90.5C 146.929,89.6906 145.262,89.3573 143.5,89.5C 143.737,88.209 143.404,87.209 142.5,86.5C 141.833,86.5 141.5,86.1667 141.5,85.5C 140.077,78.8979 139.077,72.2312 138.5,65.5C 139.5,65.5 140.5,65.5 141.5,65.5 Z"/></g>
<g><path style="opacity:1" fill="#0d3a56" d="M 163.5,111.5 C 163.56,110.957 163.893,110.624 164.5,110.5C 169.385,114.102 174.385,117.435 179.5,120.5C 179.611,121.117 179.944,121.617 180.5,122C 183.817,122.498 187.15,122.665 190.5,122.5C 187.366,123.035 184.366,124.035 181.5,125.5C 175.81,120.482 169.81,115.815 163.5,111.5 Z"/></g>
<g><path style="opacity:1" fill="#3a99cc" d="M 97.5,62.5 C 92.2409,61.7062 88.5742,63.7062 86.5,68.5C 80.642,71.3672 76.9753,76.0338 75.5,82.5C 74.1667,82.5 73.5,83.1667 73.5,84.5C 72.6698,94.3249 72.1698,104.325 72,114.5C 71.2155,116.286 70.0488,117.786 68.5,119C 63.1356,120.901 58.4689,123.735 54.5,127.5C 57.5198,122.001 62.1865,118.501 68.5,117C 69.3802,115.644 69.7135,114.144 69.5,112.5C 69.7395,108.158 70.0728,103.824 70.5,99.5C 71.3272,94.0149 71.8272,88.3482 72,82.5C 74.2481,79.672 76.2481,76.672 78,73.5C 81.8604,68.9729 86.0271,64.8062 90.5,61C 93.2116,60.1742 95.5449,60.6742 97.5,62.5 Z"/></g>
<g><path style="opacity:1" fill="#3793aa" d="M 7.5,103.5 C 6.10234,108.386 3.43568,112.386 -0.5,115.5C -0.5,114.833 -0.5,114.167 -0.5,113.5C 1.7867,109.878 4.45337,106.545 7.5,103.5 Z"/></g>
<g><path style="opacity:1" fill="#3382b4" d="M 67.5,70.5 C 68.8333,70.5 70.1667,70.5 71.5,70.5C 71.6567,71.8734 71.49,73.2068 71,74.5C 67.8791,76.5569 66.3791,79.5569 66.5,83.5C 66.5,83.8333 66.5,84.1667 66.5,84.5C 66.261,94.6792 65.9276,105.013 65.5,115.5C 60.1983,117.736 55.6983,121.069 52,125.5C 51.4954,127.518 50.9954,129.518 50.5,131.5C 50.1667,132.5 49.5,133.167 48.5,133.5C 48.933,130.834 49.433,128.168 50,125.5C 52.8333,122 56,118.833 59.5,116C 64.3575,114.83 66.3575,111.663 65.5,106.5C 64.9126,97.8386 64.4126,89.1719 64,80.5C 62.2591,81.7577 60.4258,82.7577 58.5,83.5C 59.1667,82.5 59.8333,81.5 60.5,80.5C 61.1667,80.5 61.5,80.1667 61.5,79.5C 62.7416,76.0233 64.7416,73.0233 67.5,70.5 Z"/></g>
<g><path style="opacity:1" fill="#4ca7df" d="M 245.5,108.5 C 246.707,109.189 248.041,109.355 249.5,109C 250.667,110.167 251.833,111.333 253,112.5C 253.684,111.216 253.517,110.049 252.5,109C 253.244,107.961 254.244,107.461 255.5,107.5C 255.5,117.5 255.5,127.5 255.5,137.5C 254.504,137.414 253.671,137.748 253,138.5C 252.383,137.551 252.549,136.718 253.5,136C 252.354,135.355 251.354,134.522 250.5,133.5C 249.262,137.311 248.596,137.311 248.5,133.5C 246.61,133.703 245.11,133.037 244,131.5C 240.789,127.284 238.455,122.617 237,117.5C 235.961,116.29 234.794,115.29 233.5,114.5C 231.867,111.793 230.2,108.96 228.5,106C 229.416,105.626 230.25,105.126 231,104.5C 232.947,107.986 235.28,108.319 238,105.5C 240.397,107.695 242.231,109.695 243.5,111.5C 244.919,110.995 245.585,109.995 245.5,108.5 Z"/></g>
<g><path style="opacity:1" fill="#13224b" d="M 129.5,105.5 C 129.536,109.969 131.036,110.969 134,108.5C 135.392,111.278 135.892,114.278 135.5,117.5C 137.216,117.371 138.883,117.038 140.5,116.5C 146.425,122.195 145.759,126.862 138.5,130.5C 128.346,117.953 126.013,119.619 131.5,135.5C 131.167,135.833 130.833,136.167 130.5,136.5C 128.018,135.933 125.684,135.266 123.5,134.5C 125.167,134.5 126.833,134.5 128.5,134.5C 128.058,127.607 125.891,121.274 122,115.5C 119.701,114.42 117.534,114.754 115.5,116.5C 115.737,115.209 115.404,114.209 114.5,113.5C 115.833,112.833 117.167,112.167 118.5,111.5C 120.371,111.141 121.871,110.141 123,108.5C 123.822,111.117 124.322,113.784 124.5,116.5C 125.5,116.5 126.5,116.5 127.5,116.5C 127.116,112.511 127.783,108.845 129.5,105.5 Z"/></g>
<g><path style="opacity:1" fill="#99c6d6" d="M 115.5,109.5 C 115.821,111.048 116.821,111.715 118.5,111.5C 117.167,112.167 115.833,112.833 114.5,113.5C 113.167,114.167 112.167,115.167 111.5,116.5C 109.784,116.371 108.117,116.038 106.5,115.5C 101.767,116.694 97.1007,118.194 92.5,120C 91.6198,121.356 91.2865,122.856 91.5,124.5C 91.762,125.978 91.4287,127.311 90.5,128.5C 88.8888,127.68 88.2222,126.346 88.5,124.5C 88.5,123.833 88.1667,123.5 87.5,123.5C 87.1667,122.833 86.8333,122.167 86.5,121.5C 87.8936,119.292 89.8936,117.792 92.5,117C 98.9882,113.903 105.655,111.736 112.5,110.5C 113.609,110.443 114.609,110.11 115.5,109.5 Z"/></g>
<g><path style="opacity:1" fill="#489ed7" d="M 233.5,114.5 C 234.794,115.29 235.961,116.29 237,117.5C 238.455,122.617 240.789,127.284 244,131.5C 245.11,133.037 246.61,133.703 248.5,133.5C 248.596,137.311 249.262,137.311 250.5,133.5C 251.354,134.522 252.354,135.355 253.5,136C 252.549,136.718 252.383,137.551 253,138.5C 253.671,137.748 254.504,137.414 255.5,137.5C 255.5,139.5 255.5,141.5 255.5,143.5C 246.5,143.5 237.5,143.5 228.5,143.5C 227.258,141.75 225.758,140.083 224,138.5C 224.324,142.985 223.157,143.318 220.5,139.5C 221.953,135.748 220.953,132.248 217.5,129C 218.108,128.13 218.941,127.63 220,127.5C 228.375,130.744 229.208,129.744 222.5,124.5C 221.826,122.805 221.159,121.138 220.5,119.5C 221.117,119.389 221.617,119.056 222,118.5C 222.503,120.615 223.836,122.615 226,124.5C 226.333,123.833 226.667,123.167 227,122.5C 228.049,124.107 229.549,124.773 231.5,124.5C 230.372,121.562 229.205,118.562 228,115.5C 226.844,116.993 226.01,116.826 225.5,115C 226.424,113.85 226.424,112.85 225.5,112C 226.635,111.251 227.635,111.417 228.5,112.5C 230,114.833 231.5,117.167 233,119.5C 233.5,119 234,118.5 234.5,118C 233.663,116.989 233.33,115.822 233.5,114.5 Z"/></g>
<g><path style="opacity:1" fill="#73c8ea" d="M 66.5,84.5 C 67.2845,94.4539 67.7845,104.454 68,114.5C 68.2784,113.584 68.7784,112.918 69.5,112.5C 69.7135,114.144 69.3802,115.644 68.5,117C 62.1865,118.501 57.5198,122.001 54.5,127.5C 54.5,128.5 54.5,129.5 54.5,130.5C 57.1873,130.336 59.854,130.503 62.5,131C 61.7476,131.671 61.4142,132.504 61.5,133.5C 60.8826,133.611 60.3826,133.944 60,134.5C 59.6051,137.652 58.7718,140.652 57.5,143.5C 56.5,143.5 55.5,143.5 54.5,143.5C 53.3697,140.803 53.3697,138.137 54.5,135.5C 54.8039,134.85 55.1373,134.183 55.5,133.5C 53.8614,132.678 52.1947,132.011 50.5,131.5C 50.9954,129.518 51.4954,127.518 52,125.5C 55.6983,121.069 60.1983,117.736 65.5,115.5C 65.9276,105.013 66.261,94.6792 66.5,84.5 Z"/></g>
<g><path style="opacity:1" fill="#274d9d" d="M 106.5,115.5 C 106.86,120.332 107.86,124.999 109.5,129.5C 106.731,127.793 103.731,126.46 100.5,125.5C 98.7118,126.283 97.7118,127.616 97.5,129.5C 97.1667,130.833 96.8333,132.167 96.5,133.5C 94.9069,132.652 93.7403,131.319 93,129.5C 92.8019,127.618 92.3019,125.952 91.5,124.5C 91.2865,122.856 91.6198,121.356 92.5,120C 97.1007,118.194 101.767,116.694 106.5,115.5 Z"/></g>
<g><path style="opacity:1" fill="#4192cd" d="M 203.5,108.5 C 208.27,109.708 211.604,112.542 213.5,117C 215.925,117.293 217.758,118.459 219,120.5C 219.333,119.833 219.667,119.167 220,118.5C 220.399,118.728 220.565,119.062 220.5,119.5C 221.159,121.138 221.826,122.805 222.5,124.5C 229.208,129.744 228.375,130.744 220,127.5C 218.941,127.63 218.108,128.13 217.5,129C 220.953,132.248 221.953,135.748 220.5,139.5C 223.157,143.318 224.324,142.985 224,138.5C 225.758,140.083 227.258,141.75 228.5,143.5C 220.167,143.5 211.833,143.5 203.5,143.5C 202.914,141.16 201.914,138.993 200.5,137C 200.833,136.667 201.167,136.333 201.5,136C 198.766,132.38 196.432,129.047 194.5,126C 192.527,125.505 190.527,125.338 188.5,125.5C 191.142,124.898 193.475,123.564 195.5,121.5C 198.429,117.306 201.095,112.973 203.5,108.5 Z"/></g>
<g><path style="opacity:1" fill="#b1f0f6" d="M 77.5,122.5 C 78.1667,122.5 78.8333,122.5 79.5,122.5C 79.9118,124.973 78.9118,126.306 76.5,126.5C 74.5,126.5 72.5,126.5 70.5,126.5C 70.5,128.167 70.5,129.833 70.5,131.5C 69.5,131.5 68.5,131.5 67.5,131.5C 66.2138,128.665 66.2138,125.832 67.5,123C 70.8168,122.502 74.1501,122.335 77.5,122.5 Z"/></g>
<g><path style="opacity:1" fill="#0a244b" d="M 43.5,136.5 C 40.8599,137.82 38.1932,139.153 35.5,140.5C 34.6143,141.325 34.281,142.325 34.5,143.5C 22.8333,143.5 11.1667,143.5 -0.5,143.5C -0.5,134.833 -0.5,126.167 -0.5,117.5C 1.59497,115.241 4.09497,113.574 7,112.5C 11.448,115.313 15.6146,118.479 19.5,122C 20.7839,122.684 21.9505,122.517 23,121.5C 25.7727,124.456 28.7727,127.123 32,129.5C 32.3333,128.833 32.6667,128.167 33,127.5C 33.8113,128.96 34.6446,129.293 35.5,128.5C 32.5089,126.099 29.8422,122.766 27.5,118.5C 29.1653,118.834 30.9986,118.834 33,118.5C 34.0437,119.623 34.7104,120.956 35,122.5C 35.3333,122.167 35.6667,121.833 36,121.5C 37.487,122.253 37.6537,123.086 36.5,124C 39.4555,124.491 42.1222,126.158 44.5,129C 43.565,131.381 43.2317,133.881 43.5,136.5 Z"/></g>
<g><path style="opacity:1" fill="#6fade7" d="M 76.5,126.5 C 75.3646,128.213 73.698,128.88 71.5,128.5C 71.5,129.833 71.5,131.167 71.5,132.5C 70.1667,133.833 68.8333,133.833 67.5,132.5C 67.5,132.167 67.5,131.833 67.5,131.5C 68.5,131.5 69.5,131.5 70.5,131.5C 70.5,129.833 70.5,128.167 70.5,126.5C 72.5,126.5 74.5,126.5 76.5,126.5 Z"/></g>
<g><path style="opacity:1" fill="#3765c0" d="M 86.5,121.5 C 86.8333,122.167 87.1667,122.833 87.5,123.5C 85.3546,124.654 83.3546,125.987 81.5,127.5C 84.1685,132.479 85.1685,137.812 84.5,143.5C 83.1667,143.5 81.8333,143.5 80.5,143.5C 80.749,139.38 80.749,135.38 80.5,131.5C 79.5617,130.447 78.395,129.78 77,129.5C 75.2691,130.741 73.4358,131.741 71.5,132.5C 71.5,131.167 71.5,129.833 71.5,128.5C 73.698,128.88 75.3646,128.213 76.5,126.5C 78.9118,126.306 79.9118,124.973 79.5,122.5C 81.9496,122.702 84.283,122.369 86.5,121.5 Z"/></g>
<g><path style="opacity:1" fill="#020614" d="M 158.5,107.5 C 156.037,107.219 153.87,106.219 152,104.5C 150.56,105.93 150.226,107.597 151,109.5C 153.416,114.001 156.083,118.334 159,122.5C 161.035,124.24 162.869,126.074 164.5,128C 163.423,129.543 162.089,129.543 160.5,128C 155.775,125.465 151.608,122.299 148,118.5C 147.581,119.672 146.915,120.672 146,121.5C 145.335,125.609 144.502,129.609 143.5,133.5C 145.927,133.523 148.26,134.023 150.5,135C 156.078,138.901 162.245,141.401 169,142.5C 170.662,142.612 171.829,141.946 172.5,140.5C 171.167,138.833 171.167,137.167 172.5,135.5C 170.069,134.64 168.736,132.973 168.5,130.5C 171.197,131.63 173.863,131.63 176.5,130.5C 176.5,131.167 176.833,131.5 177.5,131.5C 176.962,133.117 176.629,134.784 176.5,136.5C 175.909,137.151 175.243,137.818 174.5,138.5C 176.665,139.88 176.999,141.547 175.5,143.5C 157.833,143.5 140.167,143.5 122.5,143.5C 118.218,134.824 114.552,125.824 111.5,116.5C 112.167,115.167 113.167,114.167 114.5,113.5C 115.404,114.209 115.737,115.209 115.5,116.5C 118.193,122.548 120.86,128.548 123.5,134.5C 125.684,135.266 128.018,135.933 130.5,136.5C 130.833,136.167 131.167,135.833 131.5,135.5C 126.013,119.619 128.346,117.953 138.5,130.5C 145.759,126.862 146.425,122.195 140.5,116.5C 138.667,114.504 138.167,112.171 139,109.5C 142.047,106.947 145.547,105.614 149.5,105.5C 149.5,104.5 149.5,103.5 149.5,102.5C 153.69,102.023 156.69,103.689 158.5,107.5 Z"/></g>
<g><path style="opacity:1" fill="#173275" d="M 123.5,134.5 C 120.86,128.548 118.193,122.548 115.5,116.5C 117.534,114.754 119.701,114.42 122,115.5C 125.891,121.274 128.058,127.607 128.5,134.5C 126.833,134.5 125.167,134.5 123.5,134.5 Z"/></g>
<g><path style="opacity:1" fill="#79d3ff" d="M 109.5,129.5 C 109.833,131.5 110.167,133.5 110.5,135.5C 110.631,136.376 110.298,137.043 109.5,137.5C 107.224,136.787 104.891,136.287 102.5,136C 101.707,133.054 100.04,130.887 97.5,129.5C 97.7118,127.616 98.7118,126.283 100.5,125.5C 103.731,126.46 106.731,127.793 109.5,129.5 Z"/></g>
<g><path style="opacity:1" fill="#3781ba" d="M 188.5,125.5 C 190.527,125.338 192.527,125.505 194.5,126C 196.432,129.047 198.766,132.38 201.5,136C 201.167,136.333 200.833,136.667 200.5,137C 201.914,138.993 202.914,141.16 203.5,143.5C 195.167,143.5 186.833,143.5 178.5,143.5C 179.448,139.466 180.281,135.466 181,131.5C 179.483,133.24 177.983,134.906 176.5,136.5C 176.629,134.784 176.962,133.117 177.5,131.5C 180.281,130.554 182.281,128.721 183.5,126C 185.134,125.506 186.801,125.34 188.5,125.5 Z"/></g>
<g><path style="opacity:1" fill="#163582" d="M 80.5,143.5 C 78.8333,143.5 77.1667,143.5 75.5,143.5C 76.2631,140.859 76.4298,138.192 76,135.5C 75.586,135.957 75.086,136.291 74.5,136.5C 73.0656,135.412 72.0656,134.078 71.5,132.5C 73.4358,131.741 75.2691,130.741 77,129.5C 78.395,129.78 79.5617,130.447 80.5,131.5C 80.749,135.38 80.749,139.38 80.5,143.5 Z"/></g>
<g><path style="opacity:1" fill="#090d1f" d="M 88.5,124.5 C 88.2222,126.346 88.8888,127.68 90.5,128.5C 91.4287,127.311 91.762,125.978 91.5,124.5C 92.3019,125.952 92.8019,127.618 93,129.5C 93.7403,131.319 94.9069,132.652 96.5,133.5C 96.3502,137.195 97.3502,140.528 99.5,143.5C 97.8333,143.5 96.1667,143.5 94.5,143.5C 93.124,138.647 90.124,137.314 85.5,139.5C 84.7717,135.781 85.7717,132.781 88.5,130.5C 87.2463,128.357 87.2463,126.357 88.5,124.5 Z"/></g>
<g><path style="opacity:1" fill="#182c62" d="M 67.5,132.5 C 68.8333,133.833 70.1667,133.833 71.5,132.5C 72.0656,134.078 73.0656,135.412 74.5,136.5C 75.086,136.291 75.586,135.957 76,135.5C 76.4298,138.192 76.2631,140.859 75.5,143.5C 73.1667,143.5 70.8333,143.5 68.5,143.5C 68.6773,139.766 68.3439,136.099 67.5,132.5 Z"/></g>
<g><path style="opacity:1" fill="#b6f9fa" d="M 50.5,131.5 C 52.1947,132.011 53.8614,132.678 55.5,133.5C 55.1373,134.183 54.8039,134.85 54.5,135.5C 49.1305,136.546 44.7972,139.213 41.5,143.5C 39.1667,143.5 36.8333,143.5 34.5,143.5C 34.281,142.325 34.6143,141.325 35.5,140.5C 38.1932,139.153 40.8599,137.82 43.5,136.5C 44.1667,136.167 44.8333,135.833 45.5,135.5C 46.5,134.833 47.5,134.167 48.5,133.5C 49.5,133.167 50.1667,132.5 50.5,131.5 Z"/></g>
<g><path style="opacity:1" fill="#57fdff" d="M 54.5,135.5 C 53.3697,138.137 53.3697,140.803 54.5,143.5C 50.1667,143.5 45.8333,143.5 41.5,143.5C 44.7972,139.213 49.1305,136.546 54.5,135.5 Z"/></g>
<g><path style="opacity:1" fill="#0e53eb" d="M 67.5,131.5 C 67.5,131.833 67.5,132.167 67.5,132.5C 68.3439,136.099 68.6773,139.766 68.5,143.5C 66.8333,143.5 65.1667,143.5 63.5,143.5C 63.4519,140.687 62.7853,138.021 61.5,135.5C 61.8627,134.817 62.1961,134.15 62.5,133.5C 64.2838,133.107 65.9505,132.441 67.5,131.5 Z"/></g>
<g><path style="opacity:1" fill="#396dca" d="M 96.5,133.5 C 100.272,135.8 102.606,139.133 103.5,143.5C 102.167,143.5 100.833,143.5 99.5,143.5C 97.3502,140.528 96.3502,137.195 96.5,133.5 Z"/></g>
<g><path style="opacity:1" fill="#5a9ffb" d="M 97.5,129.5 C 100.04,130.887 101.707,133.054 102.5,136C 104.891,136.287 107.224,136.787 109.5,137.5C 110.298,137.043 110.631,136.376 110.5,135.5C 112.585,137.684 113.585,140.351 113.5,143.5C 110.167,143.5 106.833,143.5 103.5,143.5C 102.606,139.133 100.272,135.8 96.5,133.5C 96.8333,132.167 97.1667,130.833 97.5,129.5 Z"/></g>
<g><path style="opacity:1" fill="#187fff" d="M 61.5,133.5 C 61.8333,133.5 62.1667,133.5 62.5,133.5C 62.1961,134.15 61.8627,134.817 61.5,135.5C 62.7853,138.021 63.4519,140.687 63.5,143.5C 61.5,143.5 59.5,143.5 57.5,143.5C 58.7718,140.652 59.6051,137.652 60,134.5C 60.3826,133.944 60.8826,133.611 61.5,133.5 Z"/></g>
<g><path style="opacity:1" fill="#24b9d1" d="M 178.5,143.5 C 177.5,143.5 176.5,143.5 175.5,143.5C 176.999,141.547 176.665,139.88 174.5,138.5C 175.243,137.818 175.909,137.151 176.5,136.5C 177.983,134.906 179.483,133.24 181,131.5C 180.281,135.466 179.448,139.466 178.5,143.5 Z"/></g>
<g><path style="opacity:1" fill="#0e1c44" d="M 87.5,123.5 C 88.1667,123.5 88.5,123.833 88.5,124.5C 87.2463,126.357 87.2463,128.357 88.5,130.5C 85.7717,132.781 84.7717,135.781 85.5,139.5C 90.124,137.314 93.124,138.647 94.5,143.5C 91.1667,143.5 87.8333,143.5 84.5,143.5C 85.1685,137.812 84.1685,132.479 81.5,127.5C 83.3546,125.987 85.3546,124.654 87.5,123.5 Z"/></g>
<g><path style="opacity:1" fill="#0a183c" d="M 106.5,115.5 C 108.117,116.038 109.784,116.371 111.5,116.5C 114.552,125.824 118.218,134.824 122.5,143.5C 119.5,143.5 116.5,143.5 113.5,143.5C 113.585,140.351 112.585,137.684 110.5,135.5C 110.167,133.5 109.833,131.5 109.5,129.5C 107.86,124.999 106.86,120.332 106.5,115.5 Z"/></g>
</svg>
