<?xml version="1.0" encoding="UTF-8"?>
<!DOCTYPE svg PUBLIC "-//W3C//DTD SVG 1.1//EN" "http://www.w3.org/Graphics/SVG/1.1/DTD/svg11.dtd">
<svg xmlns="http://www.w3.org/2000/svg" version="1.1" width="256px" height="144px" style="shape-rendering:geometricPrecision; text-rendering:geometricPrecision; image-rendering:optimizeQuality; fill-rule:evenodd; clip-rule:evenodd" xmlns:xlink="http://www.w3.org/1999/xlink">
<g><path style="opacity:1" fill="#0c1104" d="M -0.5,-0.5 C 14.5,-0.5 29.5,-0.5 44.5,-0.5C 49.2295,3.89833 53.2295,8.89833 56.5,14.5C 54.9731,14.573 53.9731,13.9063 53.5,12.5C 53.1667,11.5 52.5,10.8333 51.5,10.5C 50.3281,9.29473 48.9948,9.29473 47.5,10.5C 45.3438,12.6289 43.6771,14.9622 42.5,17.5C 40.2271,16.2647 38.3938,16.5981 37,18.5C 36.6667,18.1667 36.3333,17.8333 36,17.5C 33.876,18.2272 31.7094,18.8938 29.5,19.5C 26.9708,17.4715 24.3041,15.6381 21.5,14C 14.153,12.4461 9.65302,15.2795 8,22.5C 7.79036,28.2306 7.12369,33.8973 6,39.5C 4.57751,38.5846 2.91085,38.5846 1,39.5C 0.405439,40.8989 0.572106,42.2322 1.5,43.5C 1.04311,44.2975 0.376442,44.6309 -0.5,44.5C -0.5,29.5 -0.5,14.5 -0.5,-0.5 Z"/></g>
<g><path style="opacity:1" fill="#231d2e" d="M 57.5,-0.5 C 58.1667,-0.5 58.8333,-0.5 59.5,-0.5C 63.6234,3.28197 66.9567,7.6153 69.5,12.5C 65.5282,8.19268 61.5282,3.85934 57.5,-0.5 Z"/></g>
<g><path style="opacity:1" fill="#343e16" d="M 74.5,0.5 C 74.5,0.166667 74.5,-0.166667 74.5,-0.5C 91.5,-0.5 108.5,-0.5 125.5,-0.5C 125.5,-0.166667 125.5,0.166667 125.5,0.5C 121.806,3.52711 118.473,6.86044 115.5,10.5C 116.735,8.22711 116.402,6.39377 114.5,5C 112.231,4.2419 110.064,4.40857 108,5.5C 106.386,4.97695 104.886,3.64362 103.5,1.5C 102.707,2.35538 103.04,3.18871 104.5,4C 102.396,4.79078 101.063,6.29078 100.5,8.5C 99.6143,7.67504 99.281,6.67504 99.5,5.5C 97.5,5.83333 95.5,6.16667 93.5,6.5C 93.528,8.58236 92.8613,10.4157 91.5,12C 91.8333,12.3333 92.1667,12.6667 92.5,13C 90.5355,13.624 88.8689,13.124 87.5,11.5C 86.8933,11.6236 86.56,11.9569 86.5,12.5C 82.1396,8.80624 78.1396,4.80624 74.5,0.5 Z"/></g>
<g><path style="opacity:1" fill="#5146e1" d="M 144.5,-0.5 C 148.5,-0.5 152.5,-0.5 156.5,-0.5C 156.5,0.166667 156.5,0.833333 156.5,1.5C 155.735,1.92342 154.902,2.25675 154,2.5C 150.726,1.42564 147.559,0.42564 144.5,-0.5 Z"/></g>
<g><path style="opacity:1" fill="#5f50f3" d="M 158.5,-0.5 C 163.833,-0.5 169.167,-0.5 174.5,-0.5C 173.766,0.707917 173.433,2.04125 173.5,3.5C 172.463,4.93033 171.796,6.59699 171.5,8.5C 171.5,9.16667 171.5,9.83333 171.5,10.5C 164.596,10.2888 160.262,6.62218 158.5,-0.5 Z"/></g>
<g><path style="opacity:1" fill="#383e3c" d="M 174.5,-0.5 C 179.5,-0.5 184.5,-0.5 189.5,-0.5C 189.993,1.80562 190.326,4.13895 190.5,6.5C 189.842,5.60164 189.176,4.60164 188.5,3.5C 185.072,5.28593 181.739,5.9526 178.5,5.5C 177.391,5.44312 176.391,5.10978 175.5,4.5C 175.158,3.66175 174.492,3.32842 173.5,3.5C 173.433,2.04125 173.766,0.707917 174.5,-0.5 Z"/></g>
<g><path style="opacity:1" fill="#171d13" d="M 223.5,-0.5 C 234.167,-0.5 244.833,-0.5 255.5,-0.5C 255.5,3.83333 255.5,8.16667 255.5,12.5C 252.492,11.5798 249.659,10.2465 247,8.5C 246.586,8.95735 246.086,9.29069 245.5,9.5C 243.024,8.18513 240.857,6.51846 239,4.5C 238.167,5.5 237.333,6.5 236.5,7.5C 232.321,4.45622 227.988,1.78956 223.5,-0.5 Z"/></g>
<g><path style="opacity:1" fill="#2a2b3f" d="M 138.5,-0.5 C 140.5,-0.5 142.5,-0.5 144.5,-0.5C 147.559,0.42564 150.726,1.42564 154,2.5C 154.902,2.25675 155.735,1.92342 156.5,1.5C 157.461,3.26465 157.795,5.26465 157.5,7.5C 157.813,12.353 158.479,17.0196 159.5,21.5C 159.5,22.5 159.5,23.5 159.5,24.5C 158.5,24.5 157.5,24.5 156.5,24.5C 156.768,22.901 156.434,21.5676 155.5,20.5C 155.5,20.1667 155.5,19.8333 155.5,19.5C 155.533,15.1311 155.2,10.7978 154.5,6.5C 152.801,6.66018 151.134,6.49351 149.5,6C 147.194,3.86101 144.527,2.36101 141.5,1.5C 139.607,2.96343 137.941,4.6301 136.5,6.5C 136.767,4.03473 137.434,1.7014 138.5,-0.5 Z"/></g>
<g><path style="opacity:1" fill="#4c5830" d="M 190.5,6.5 C 190.5,9.83333 190.5,13.1667 190.5,16.5C 189.662,16.8417 189.328,17.5084 189.5,18.5C 186.081,14.0212 182.414,9.68784 178.5,5.5C 181.739,5.9526 185.072,5.28593 188.5,3.5C 189.176,4.60164 189.842,5.60164 190.5,6.5 Z"/></g>
<g><path style="opacity:1" fill="#404d17" d="M 115.5,10.5 C 115.34,12.153 114.674,13.4863 113.5,14.5C 113.213,12.8793 112.213,11.8793 110.5,11.5C 108.224,12.2132 105.891,12.7132 103.5,13C 101.671,16.8278 98.6711,19.1611 94.5,20C 95.5981,20.7697 95.5981,21.603 94.5,22.5C 91.4838,19.4797 88.8171,16.1464 86.5,12.5C 86.56,11.9569 86.8933,11.6236 87.5,11.5C 88.8689,13.124 90.5355,13.624 92.5,13C 92.1667,12.6667 91.8333,12.3333 91.5,12C 92.8613,10.4157 93.528,8.58236 93.5,6.5C 95.5,6.16667 97.5,5.83333 99.5,5.5C 99.281,6.67504 99.6143,7.67504 100.5,8.5C 101.063,6.29078 102.396,4.79078 104.5,4C 103.04,3.18871 102.707,2.35538 103.5,1.5C 104.886,3.64362 106.386,4.97695 108,5.5C 110.064,4.40857 112.231,4.2419 114.5,5C 116.402,6.39377 116.735,8.22711 115.5,10.5 Z"/></g>
<g><path style="opacity:1" fill="#575489" d="M 156.5,-0.5 C 157.167,-0.5 157.833,-0.5 158.5,-0.5C 160.262,6.62218 164.596,10.2888 171.5,10.5C 171.737,11.791 171.404,12.791 170.5,13.5C 168.857,13.4802 167.524,14.1468 166.5,15.5C 164.991,13.5761 162.991,12.4094 160.5,12C 159.601,10.3484 158.601,8.84839 157.5,7.5C 157.795,5.26465 157.461,3.26465 156.5,1.5C 156.5,0.833333 156.5,0.166667 156.5,-0.5 Z"/></g>
<g><path style="opacity:1" fill="#6f5e94" d="M 194.5,-0.5 C 198.833,-0.5 203.167,-0.5 207.5,-0.5C 212.155,10.4539 216.822,21.4539 221.5,32.5C 222.038,34.1172 222.371,35.7839 222.5,37.5C 220.975,34.9209 219.641,32.2542 218.5,29.5C 217.833,28.1667 217.167,26.8333 216.5,25.5C 212.854,17.2199 209.52,8.88652 206.5,0.5C 202.629,0.185029 198.962,0.518362 195.5,1.5C 194.662,1.15829 194.328,0.491622 194.5,-0.5 Z"/></g>
<g><path style="opacity:1" fill="#151c04" d="M 51.5,10.5 C 49.9826,10.5106 48.8159,11.1772 48,12.5C 45.719,15.6556 44.719,18.9889 45,22.5C 43.984,23.6341 43.3173,23.3008 43,21.5C 41.6764,25.5969 39.5097,26.2636 36.5,23.5C 33.6853,24.6822 31.1853,25.6822 29,26.5C 27.7878,22.7157 25.6211,19.7157 22.5,17.5C 22.1499,19.5672 20.4833,20.5672 17.5,20.5C 17.3671,23.8957 16.3671,24.2291 14.5,21.5C 13.1985,23.8018 11.5318,25.8018 9.5,27.5C 10.3052,29.9154 11.3052,32.2487 12.5,34.5C 11.9747,35.1924 11.3081,35.6924 10.5,36C 10.8333,36.3333 11.1667,36.6667 11.5,37C 10.1059,37.956 9.43928,39.2894 9.5,41C 10.125,42.8405 10.2917,44.6739 10,46.5C 9.33333,47.8333 8.66667,47.8333 8,46.5C 7.3763,48.754 6.04297,50.4206 4,51.5C 3.66667,51.1667 3.33333,50.8333 3,50.5C 2.18405,51.8228 1.01739,52.4894 -0.5,52.5C -0.5,49.8333 -0.5,47.1667 -0.5,44.5C 0.376442,44.6309 1.04311,44.2975 1.5,43.5C 0.572106,42.2322 0.405439,40.8989 1,39.5C 2.91085,38.5846 4.57751,38.5846 6,39.5C 7.12369,33.8973 7.79036,28.2306 8,22.5C 9.65302,15.2795 14.153,12.4461 21.5,14C 24.3041,15.6381 26.9708,17.4715 29.5,19.5C 31.7094,18.8938 33.876,18.2272 36,17.5C 36.3333,17.8333 36.6667,18.1667 37,18.5C 38.3938,16.5981 40.2271,16.2647 42.5,17.5C 43.6771,14.9622 45.3438,12.6289 47.5,10.5C 48.9948,9.29473 50.3281,9.29473 51.5,10.5 Z"/></g>
<g><path style="opacity:1" fill="#202236" d="M 189.5,-0.5 C 191.167,-0.5 192.833,-0.5 194.5,-0.5C 194.328,0.491622 194.662,1.15829 195.5,1.5C 199.365,8.56473 202.698,15.8981 205.5,23.5C 203.561,20.692 201.728,17.692 200,14.5C 200.035,18.2452 199.035,18.9119 197,16.5C 196.586,16.9574 196.086,17.2907 195.5,17.5C 194.095,12.9153 192.428,12.582 190.5,16.5C 190.5,13.1667 190.5,9.83333 190.5,6.5C 190.326,4.13895 189.993,1.80562 189.5,-0.5 Z"/></g>
<g><path style="opacity:1" fill="#362b8b" d="M 59.5,-0.5 C 64.5,-0.5 69.5,-0.5 74.5,-0.5C 74.5,-0.166667 74.5,0.166667 74.5,0.5C 73.1266,0.343323 71.7932,0.50999 70.5,1C 73.3856,4.61059 75.8856,8.44392 78,12.5C 81.7467,16.9177 86.0801,20.5844 91,23.5C 93.1761,26.5294 95.3427,29.5294 97.5,32.5C 96.5768,33.3029 95.5768,33.4696 94.5,33C 91.794,30.6294 89.4606,27.9628 87.5,25C 85.1089,23.9651 82.7756,23.7985 80.5,24.5C 79.1667,23.1667 77.8333,21.8333 76.5,20.5C 75.8076,21.0253 75.3076,21.6919 75,22.5C 74.0513,20.9069 72.8846,19.5736 71.5,18.5C 70.8333,16.5 70.1667,14.5 69.5,12.5C 66.9567,7.6153 63.6234,3.28197 59.5,-0.5 Z"/></g>
<g><path style="opacity:1" fill="#cea0e9" d="M 44.5,-0.5 C 48.8333,-0.5 53.1667,-0.5 57.5,-0.5C 61.5282,3.85934 65.5282,8.19268 69.5,12.5C 70.1667,14.5 70.8333,16.5 71.5,18.5C 71.9707,20.5786 72.6373,22.5786 73.5,24.5C 74.5003,28.5007 75.5003,32.5007 76.5,36.5C 76.2693,40.992 76.9359,45.3253 78.5,49.5C 77.0894,53.7199 76.256,58.0533 76,62.5C 75.6667,61.1667 75.3333,59.8333 75,58.5C 74.5004,65.4921 74.3337,72.4921 74.5,79.5C 73.2502,79.4226 72.4169,78.756 72,77.5C 71.8138,74.9644 71.3138,72.631 70.5,70.5C 70.498,64.477 70.1646,58.477 69.5,52.5C 69.4828,50.4352 69.1495,48.4352 68.5,46.5C 68.1394,42.0845 66.8061,38.0845 64.5,34.5C 63.0294,27.2099 60.3627,20.5432 56.5,14.5C 53.2295,8.89833 49.2295,3.89833 44.5,-0.5 Z"/></g>
<g><path style="opacity:1" fill="#4b42b2" d="M 125.5,0.5 C 125.938,0.434559 126.272,0.601226 126.5,1C 123.46,4.26028 120.794,7.76028 118.5,11.5C 115.917,14.9974 113.584,18.6641 111.5,22.5C 111.5,22.1667 111.5,21.8333 111.5,21.5C 111.878,19.079 112.545,16.7457 113.5,14.5C 114.674,13.4863 115.34,12.153 115.5,10.5C 118.473,6.86044 121.806,3.52711 125.5,0.5 Z"/></g>
<g><path style="opacity:1" fill="#584ae3" d="M 175.5,4.5 C 176.391,5.10978 177.391,5.44312 178.5,5.5C 182.414,9.68784 186.081,14.0212 189.5,18.5C 190.833,21.5 192.167,24.5 193.5,27.5C 193.631,28.3764 193.298,29.0431 192.5,29.5C 185.918,24.0753 180.084,17.742 175,10.5C 174.211,8.28841 174.378,6.28841 175.5,4.5 Z"/></g>
<g><path style="opacity:1" fill="#2c381b" d="M 214.5,-0.5 C 217.5,-0.5 220.5,-0.5 223.5,-0.5C 227.988,1.78956 232.321,4.45622 236.5,7.5C 237.333,6.5 238.167,5.5 239,4.5C 240.857,6.51846 243.024,8.18513 245.5,9.5C 246.086,9.29069 246.586,8.95735 247,8.5C 249.659,10.2465 252.492,11.5798 255.5,12.5C 255.5,17.8333 255.5,23.1667 255.5,28.5C 250.681,27.9415 246.681,25.7749 243.5,22C 237.172,18.8375 231.172,15.1708 225.5,11C 223.756,9.54559 222.089,9.37892 220.5,10.5C 218.784,6.7399 216.784,3.07324 214.5,-0.5 Z"/></g>
<g><path style="opacity:1" fill="#818872" d="M 125.5,0.5 C 125.5,0.166667 125.5,-0.166667 125.5,-0.5C 127.167,-0.5 128.833,-0.5 130.5,-0.5C 125.86,3.96989 122.694,9.30323 121,15.5C 120.177,24.0104 120.343,32.3437 121.5,40.5C 123.007,50.5368 124.84,60.5368 127,70.5C 127.249,71.624 127.749,72.624 128.5,73.5C 129.48,70.9135 129.813,68.2469 129.5,65.5C 130.78,70.9774 131.28,76.644 131,82.5C 121.727,64.2497 116.56,44.7497 115.5,24C 115.76,19.6499 116.76,15.4832 118.5,11.5C 120.794,7.76028 123.46,4.26028 126.5,1C 126.272,0.601226 125.938,0.434559 125.5,0.5 Z"/></g>
<g><path style="opacity:1" fill="#363d41" d="M 155.5,19.5 C 153.544,17.8516 151.211,17.1849 148.5,17.5C 148.918,16.7784 149.584,16.2784 150.5,16C 147.881,15.8485 145.547,15.0152 143.5,13.5C 140.516,15.0015 137.349,16.0015 134,16.5C 133.667,16.1667 133.333,15.8333 133,15.5C 131.986,19.2405 131.153,22.9072 130.5,26.5C 129.664,18.8746 131.664,12.2079 136.5,6.5C 137.941,4.6301 139.607,2.96343 141.5,1.5C 144.527,2.36101 147.194,3.86101 149.5,6C 151.134,6.49351 152.801,6.66018 154.5,6.5C 155.2,10.7978 155.533,15.1311 155.5,19.5 Z"/></g>
<g><path style="opacity:1" fill="#586a1b" d="M 113.5,14.5 C 112.545,16.7457 111.878,19.079 111.5,21.5C 109.566,25.1082 107.899,28.9416 106.5,33C 106.164,34.0299 105.497,34.5299 104.5,34.5C 100.79,30.7921 97.4566,26.7921 94.5,22.5C 95.5981,21.603 95.5981,20.7697 94.5,20C 98.6711,19.1611 101.671,16.8278 103.5,13C 105.891,12.7132 108.224,12.2132 110.5,11.5C 112.213,11.8793 113.213,12.8793 113.5,14.5 Z"/></g>
<g><path style="opacity:1" fill="#475723" d="M 255.5,28.5 C 255.5,31.5 255.5,34.5 255.5,37.5C 254.883,37.6107 254.383,37.944 254,38.5C 247.647,27.0614 238.48,23.7281 226.5,28.5C 225.103,22.3075 223.103,16.3075 220.5,10.5C 222.089,9.37892 223.756,9.54559 225.5,11C 231.172,15.1708 237.172,18.8375 243.5,22C 246.681,25.7749 250.681,27.9415 255.5,28.5 Z"/></g>
<g><path style="opacity:1" fill="#5646dc" d="M 74.5,0.5 C 78.1396,4.80624 82.1396,8.80624 86.5,12.5C 88.8171,16.1464 91.4838,19.4797 94.5,22.5C 97.4566,26.7921 100.79,30.7921 104.5,34.5C 105.341,36.3792 105.675,38.3792 105.5,40.5C 104.167,39.1667 102.833,37.8333 101.5,36.5C 100.5,34.8333 99.1667,33.5 97.5,32.5C 95.3427,29.5294 93.1761,26.5294 91,23.5C 86.0801,20.5844 81.7467,16.9177 78,12.5C 75.8856,8.44392 73.3856,4.61059 70.5,1C 71.7932,0.50999 73.1266,0.343323 74.5,0.5 Z"/></g>
<g><path style="opacity:1" fill="#6f7471" d="M 157.5,7.5 C 158.601,8.84839 159.601,10.3484 160.5,12C 162.991,12.4094 164.991,13.5761 166.5,15.5C 167.524,14.1468 168.857,13.4802 170.5,13.5C 170.575,16.2062 170.908,18.8728 171.5,21.5C 171.508,24.5448 171.841,27.5448 172.5,30.5C 171.833,30.5 171.167,30.5 170.5,30.5C 169.59,26.256 166.923,23.5894 162.5,22.5C 161.208,20.3334 160.375,18.0001 160,15.5C 159.505,17.4727 159.338,19.4727 159.5,21.5C 158.479,17.0196 157.813,12.353 157.5,7.5 Z"/></g>
<g><path style="opacity:1" fill="#1a2204" d="M 51.5,10.5 C 52.5,10.8333 53.1667,11.5 53.5,12.5C 51.0968,12.393 49.2635,13.393 48,15.5C 47.7305,18.2241 47.2305,20.8908 46.5,23.5C 47.0402,24.7481 47.7069,25.9148 48.5,27C 44.0788,28.8798 39.5788,29.3798 35,28.5C 32.1187,29.0278 29.2854,29.6945 26.5,30.5C 26.973,25.9766 24.973,23.6432 20.5,23.5C 20.8633,25.9115 19.8633,27.4115 17.5,28C 18.3452,29.5581 17.6785,30.5581 15.5,31C 17.513,31.6797 18.8464,33.013 19.5,35C 16.9056,38.0233 15.239,41.5233 14.5,45.5C 10.1043,48.2741 6.60429,51.9407 4,56.5C 3.66667,56.1667 3.33333,55.8333 3,55.5C 2.18405,56.8228 1.01739,57.4894 -0.5,57.5C -0.5,55.8333 -0.5,54.1667 -0.5,52.5C 1.01739,52.4894 2.18405,51.8228 3,50.5C 3.33333,50.8333 3.66667,51.1667 4,51.5C 6.04297,50.4206 7.3763,48.754 8,46.5C 8.66667,47.8333 9.33333,47.8333 10,46.5C 10.2917,44.6739 10.125,42.8405 9.5,41C 9.43928,39.2894 10.1059,37.956 11.5,37C 11.1667,36.6667 10.8333,36.3333 10.5,36C 11.3081,35.6924 11.9747,35.1924 12.5,34.5C 11.3052,32.2487 10.3052,29.9154 9.5,27.5C 11.5318,25.8018 13.1985,23.8018 14.5,21.5C 16.3671,24.2291 17.3671,23.8957 17.5,20.5C 20.4833,20.5672 22.1499,19.5672 22.5,17.5C 25.6211,19.7157 27.7878,22.7157 29,26.5C 31.1853,25.6822 33.6853,24.6822 36.5,23.5C 39.5097,26.2636 41.6764,25.5969 43,21.5C 43.3173,23.3008 43.984,23.6341 45,22.5C 44.719,18.9889 45.719,15.6556 48,12.5C 48.8159,11.1772 49.9826,10.5106 51.5,10.5 Z"/></g>
<g><path style="opacity:1" fill="#577051" d="M 148.5,17.5 C 151.211,17.1849 153.544,17.8516 155.5,19.5C 155.5,19.8333 155.5,20.1667 155.5,20.5C 155.799,22.604 155.466,24.604 154.5,26.5C 149.025,24.3068 144.025,25.3068 139.5,29.5C 138.5,28.5 137.5,27.5 136.5,26.5C 139.369,21.9606 143.369,18.9606 148.5,17.5 Z"/></g>
<g><path style="opacity:1" fill="#423d6d" d="M 111.5,21.5 C 111.5,21.8333 111.5,22.1667 111.5,22.5C 110.03,27.5779 108.363,32.5779 106.5,37.5C 106.5,38.5 106.5,39.5 106.5,40.5C 106.167,40.5 105.833,40.5 105.5,40.5C 105.675,38.3792 105.341,36.3792 104.5,34.5C 105.497,34.5299 106.164,34.0299 106.5,33C 107.899,28.9416 109.566,25.1082 111.5,21.5 Z"/></g>
<g><path style="opacity:1" fill="#b4b8aa" d="M 130.5,-0.5 C 133.167,-0.5 135.833,-0.5 138.5,-0.5C 137.434,1.7014 136.767,4.03473 136.5,6.5C 131.664,12.2079 129.664,18.8746 130.5,26.5C 129.908,29.1272 129.575,31.7938 129.5,34.5C 129.167,34.5 128.833,34.5 128.5,34.5C 128.334,31.8316 127.334,29.4983 125.5,27.5C 124.311,26.5713 122.978,26.238 121.5,26.5C 121.5,31.1667 121.5,35.8333 121.5,40.5C 120.343,32.3437 120.177,24.0104 121,15.5C 122.694,9.30323 125.86,3.96989 130.5,-0.5 Z"/></g>
<g><path style="opacity:1" fill="#202807" d="M 53.5,12.5 C 53.9731,13.9063 54.9731,14.573 56.5,14.5C 60.3627,20.5432 63.0294,27.2099 64.5,34.5C 63.1667,34.1667 61.8333,33.8333 60.5,33.5C 60.7196,27.3783 59.2196,21.7116 56,16.5C 48.3037,17.7877 46.8037,21.7877 51.5,28.5C 50.0499,29.8498 49.3832,31.5165 49.5,33.5C 45.4127,33.48 41.4127,33.6467 37.5,34C 38.1667,33.3333 38.8333,32.6667 39.5,32C 37.8632,31.3988 36.1966,30.8988 34.5,30.5C 33.6865,32.5207 31.6865,33.8541 28.5,34.5C 27.5224,34.0233 26.6891,33.3567 26,32.5C 23.7586,35.7892 21.2586,38.7892 18.5,41.5C 19.1667,42.8333 19.8333,44.1667 20.5,45.5C 17.5,46.5 15.5,48.5 14.5,51.5C 13.914,51.2907 13.414,50.9574 13,50.5C 9.87181,56.4655 5.37181,60.7988 -0.5,63.5C -0.5,61.5 -0.5,59.5 -0.5,57.5C 1.01739,57.4894 2.18405,56.8228 3,55.5C 3.33333,55.8333 3.66667,56.1667 4,56.5C 6.60429,51.9407 10.1043,48.2741 14.5,45.5C 15.239,41.5233 16.9056,38.0233 19.5,35C 18.8464,33.013 17.513,31.6797 15.5,31C 17.6785,30.5581 18.3452,29.5581 17.5,28C 19.8633,27.4115 20.8633,25.9115 20.5,23.5C 24.973,23.6432 26.973,25.9766 26.5,30.5C 29.2854,29.6945 32.1187,29.0278 35,28.5C 39.5788,29.3798 44.0788,28.8798 48.5,27C 47.7069,25.9148 47.0402,24.7481 46.5,23.5C 47.2305,20.8908 47.7305,18.2241 48,15.5C 49.2635,13.393 51.0968,12.393 53.5,12.5 Z"/></g>
<g><path style="opacity:1" fill="#6b6e6c" d="M 205.5,23.5 C 207.592,26.0884 208.925,29.0884 209.5,32.5C 206.835,30.1645 205.502,27.1645 205.5,23.5 Z"/></g>
<g><path style="opacity:1" fill="#838b72" d="M 170.5,30.5 C 172.093,34.3049 170.759,36.6382 166.5,37.5C 165.065,36.1763 164.065,34.5096 163.5,32.5C 162.614,33.325 162.281,34.325 162.5,35.5C 161.777,31.8607 160.777,28.1941 159.5,24.5C 159.5,23.5 159.5,22.5 159.5,21.5C 159.338,19.4727 159.505,17.4727 160,15.5C 160.375,18.0001 161.208,20.3334 162.5,22.5C 166.923,23.5894 169.59,26.256 170.5,30.5 Z"/></g>
<g><path style="opacity:1" fill="#c396ef" d="M 216.5,25.5 C 215.949,28.8067 215.616,32.1401 215.5,35.5C 214.167,35.5 212.833,35.5 211.5,35.5C 211.068,34.2905 210.401,33.2905 209.5,32.5C 208.925,29.0884 207.592,26.0884 205.5,23.5C 202.698,15.8981 199.365,8.56473 195.5,1.5C 198.962,0.518362 202.629,0.185029 206.5,0.5C 209.52,8.88652 212.854,17.2199 216.5,25.5 Z"/></g>
<g><path style="opacity:1" fill="#343078" d="M 173.5,3.5 C 174.492,3.32842 175.158,3.66175 175.5,4.5C 174.378,6.28841 174.211,8.28841 175,10.5C 180.084,17.742 185.918,24.0753 192.5,29.5C 193.298,29.0431 193.631,28.3764 193.5,27.5C 196.741,33.1148 199.074,39.1148 200.5,45.5C 200.762,46.9778 200.429,48.3112 199.5,49.5C 198.162,44.3194 196.329,39.3194 194,34.5C 190.927,32.3786 187.76,30.3786 184.5,28.5C 183.846,26.8849 183.346,25.2182 183,23.5C 178.445,18.8135 174.612,13.8135 171.5,8.5C 171.796,6.59699 172.463,4.93033 173.5,3.5 Z"/></g>
<g><path style="opacity:1" fill="#0b1212" d="M 205.5,23.5 C 205.502,27.1645 206.835,30.1645 209.5,32.5C 211.416,37.6721 212.749,43.0055 213.5,48.5C 212.659,49.0093 212.159,48.3427 212,46.5C 210.875,49.7835 209.875,53.1169 209,56.5C 206.554,57.4445 205.054,59.1112 204.5,61.5C 203.159,56.0766 201.826,50.7432 200.5,45.5C 199.074,39.1148 196.741,33.1148 193.5,27.5C 192.167,24.5 190.833,21.5 189.5,18.5C 189.328,17.5084 189.662,16.8417 190.5,16.5C 192.428,12.582 194.095,12.9153 195.5,17.5C 196.086,17.2907 196.586,16.9574 197,16.5C 199.035,18.9119 200.035,18.2452 200,14.5C 201.728,17.692 203.561,20.692 205.5,23.5 Z"/></g>
<g><path style="opacity:1" fill="#847a83" d="M 218.5,29.5 C 219.641,32.2542 220.975,34.9209 222.5,37.5C 222.5,37.8333 222.5,38.1667 222.5,38.5C 223.883,40.9779 224.883,43.6446 225.5,46.5C 226.15,48.4352 226.483,50.4352 226.5,52.5C 225.833,52.1667 225.167,51.8333 224.5,51.5C 222.19,44.2594 220.19,36.926 218.5,29.5 Z"/></g>
<g><path style="opacity:1" fill="#5f53ec" d="M 207.5,-0.5 C 209.833,-0.5 212.167,-0.5 214.5,-0.5C 216.784,3.07324 218.784,6.7399 220.5,10.5C 223.103,16.3075 225.103,22.3075 226.5,28.5C 238.48,23.7281 247.647,27.0614 254,38.5C 254.383,37.944 254.883,37.6107 255.5,37.5C 255.5,38.5 255.5,39.5 255.5,40.5C 252.146,42.863 249.48,45.863 247.5,49.5C 244.907,42.4806 241.907,35.6473 238.5,29C 235.629,28.9217 232.795,29.4217 230,30.5C 228.97,30.8361 228.47,31.5028 228.5,32.5C 228.372,34.0898 227.705,35.4231 226.5,36.5C 225.234,34.5961 223.567,33.2628 221.5,32.5C 216.822,21.4539 212.155,10.4539 207.5,-0.5 Z"/></g>
<g><path style="opacity:1" fill="#273309" d="M 60.5,33.5 C 58.9098,35.424 57.0765,35.7573 55,34.5C 48.3895,41.4708 40.8895,43.9708 32.5,42C 30.6234,44.126 29.6234,46.626 29.5,49.5C 24.197,49.642 21.197,52.3087 20.5,57.5C 18.289,57.9668 16.289,58.9668 14.5,60.5C 11.047,63.8023 7.38034,67.6356 3.5,72C 2.12206,73.3342 0.788732,73.5009 -0.5,72.5C -0.5,69.5 -0.5,66.5 -0.5,63.5C 5.37181,60.7988 9.87181,56.4655 13,50.5C 13.414,50.9574 13.914,51.2907 14.5,51.5C 15.5,48.5 17.5,46.5 20.5,45.5C 19.8333,44.1667 19.1667,42.8333 18.5,41.5C 21.2586,38.7892 23.7586,35.7892 26,32.5C 26.6891,33.3567 27.5224,34.0233 28.5,34.5C 31.6865,33.8541 33.6865,32.5207 34.5,30.5C 36.1966,30.8988 37.8632,31.3988 39.5,32C 38.8333,32.6667 38.1667,33.3333 37.5,34C 41.4127,33.6467 45.4127,33.48 49.5,33.5C 49.3832,31.5165 50.0499,29.8498 51.5,28.5C 46.8037,21.7877 48.3037,17.7877 56,16.5C 59.2196,21.7116 60.7196,27.3783 60.5,33.5 Z"/></g>
<g><path style="opacity:1" fill="#443965" d="M 64.5,34.5 C 66.8061,38.0845 68.1394,42.0845 68.5,46.5C 67.6554,45.3285 66.9887,43.9952 66.5,42.5C 66.1075,40.7162 65.4408,39.0495 64.5,37.5C 64.5,36.5 64.5,35.5 64.5,34.5 Z"/></g>
<g><path style="opacity:1" fill="#416b2d" d="M 106.5,37.5 C 109.487,38.4782 110.654,40.4782 110,43.5C 109.329,44.2524 108.496,44.5858 107.5,44.5C 106.766,43.2921 106.433,41.9587 106.5,40.5C 106.5,39.5 106.5,38.5 106.5,37.5 Z"/></g>
<g><path style="opacity:1" fill="#15113c" d="M 71.5,18.5 C 72.8846,19.5736 74.0513,20.9069 75,22.5C 75.3076,21.6919 75.8076,21.0253 76.5,20.5C 77.8333,21.8333 79.1667,23.1667 80.5,24.5C 82.7756,23.7985 85.1089,23.9651 87.5,25C 89.4606,27.9628 91.794,30.6294 94.5,33C 95.5768,33.4696 96.5768,33.3029 97.5,32.5C 99.1667,33.5 100.5,34.8333 101.5,36.5C 98.5891,37.9835 95.9225,37.6502 93.5,35.5C 92.9522,33.4677 91.6188,32.4677 89.5,32.5C 89.6633,34.8568 89.4966,37.1902 89,39.5C 87.1547,36.8157 85.988,37.149 85.5,40.5C 86.2286,47.6541 86.8953,54.8208 87.5,62C 87.1667,63.1667 86.8333,64.3333 86.5,65.5C 85.4874,62.0468 84.4874,58.7135 83.5,55.5C 83.3739,47.2208 81.8739,39.2208 79,31.5C 77.5894,28.7586 75.756,26.4253 73.5,24.5C 72.6373,22.5786 71.9707,20.5786 71.5,18.5 Z"/></g>
<g><path style="opacity:1" fill="#111611" d="M 255.5,40.5 C 255.5,47.1667 255.5,53.8333 255.5,60.5C 254.883,60.6107 254.383,60.944 254,61.5C 253.416,65.0951 252.582,68.5951 251.5,72C 248.967,72.5004 246.3,72.3337 243.5,71.5C 239.069,58.1944 234.069,45.1944 228.5,32.5C 228.47,31.5028 228.97,30.8361 230,30.5C 232.795,29.4217 235.629,28.9217 238.5,29C 241.907,35.6473 244.907,42.4806 247.5,49.5C 249.48,45.863 252.146,42.863 255.5,40.5 Z"/></g>
<g><path style="opacity:1" fill="#141617" d="M 148.5,17.5 C 143.369,18.9606 139.369,21.9606 136.5,26.5C 134.497,33.5228 135.497,34.5228 139.5,29.5C 144.025,25.3068 149.025,24.3068 154.5,26.5C 155.466,24.604 155.799,22.604 155.5,20.5C 156.434,21.5676 156.768,22.901 156.5,24.5C 157.5,24.5 158.5,24.5 159.5,24.5C 160.777,28.1941 161.777,31.8607 162.5,35.5C 163.637,40.2407 164.97,44.9074 166.5,49.5C 164.164,57.5527 161.831,65.5527 159.5,73.5C 158.732,74.2625 158.232,75.2625 158,76.5C 157.333,73.8333 157.333,71.1667 158,68.5C 160.353,62.4419 162.52,56.2753 164.5,50C 163.588,47.6828 162.588,45.5161 161.5,43.5C 161.209,42.3509 160.376,41.6842 159,41.5C 156.68,42.4387 155.013,44.1054 154,46.5C 153.184,47.8228 152.017,48.4894 150.5,48.5C 154.662,42.8509 156.162,36.5176 155,29.5C 153.938,28.1007 152.605,27.1007 151,26.5C 143.404,27.4234 138.07,31.4234 135,38.5C 133.805,42.7514 133.305,47.0848 133.5,51.5C 133.631,52.2389 133.464,52.9056 133,53.5C 129.809,47.7245 128.643,41.3912 129.5,34.5C 129.575,31.7938 129.908,29.1272 130.5,26.5C 131.153,22.9072 131.986,19.2405 133,15.5C 133.333,15.8333 133.667,16.1667 134,16.5C 137.349,16.0015 140.516,15.0015 143.5,13.5C 145.547,15.0152 147.881,15.8485 150.5,16C 149.584,16.2784 148.918,16.7784 148.5,17.5 Z"/></g>
<g><path style="opacity:1" fill="#63ae38" d="M 136.5,26.5 C 137.5,27.5 138.5,28.5 139.5,29.5C 135.497,34.5228 134.497,33.5228 136.5,26.5 Z"/></g>
<g><path style="opacity:1" fill="#090f13" d="M 93.5,35.5 C 95.9225,37.6502 98.5891,37.9835 101.5,36.5C 102.833,37.8333 104.167,39.1667 105.5,40.5C 105.833,40.5 106.167,40.5 106.5,40.5C 106.433,41.9587 106.766,43.2921 107.5,44.5C 107.5,45.8333 108.167,46.5 109.5,46.5C 109.5,47.5 109.5,48.5 109.5,49.5C 108.698,50.9516 108.198,52.6183 108,54.5C 107.667,53.1667 107.333,51.8333 107,50.5C 106.316,55.4524 107.482,59.9524 110.5,64C 109.833,64.3333 109.167,64.6667 108.5,65C 109.471,66.2036 110.471,66.7036 111.5,66.5C 110.212,69.9666 110.212,73.2999 111.5,76.5C 114.806,83.1054 118.64,89.4388 123,95.5C 124.149,98.3926 124.649,101.393 124.5,104.5C 124.19,105.738 123.69,105.738 123,104.5C 121.098,100.261 118.765,96.2608 116,92.5C 115.487,93.5266 114.987,94.5266 114.5,95.5C 113.221,96.968 111.554,97.6347 109.5,97.5C 109.593,101.968 110.093,106.301 111,110.5C 109.658,107.424 107.491,107.091 104.5,109.5C 103.808,108.975 103.308,108.308 103,107.5C 101.512,109.16 99.679,110.16 97.5,110.5C 98.0678,107.242 98.2345,103.909 98,100.5C 100.179,97.899 103.013,96.399 106.5,96C 107.815,94.6054 107.481,93.6054 105.5,93C 107.705,91.9235 109.705,91.2568 111.5,91C 110.151,90.2276 109.318,89.0609 109,87.5C 108.361,75.5412 106.528,63.8745 103.5,52.5C 101.833,52.5 100.167,52.5 98.5,52.5C 98.33,51.1779 98.6634,50.0113 99.5,49C 98.2189,47.5913 97.2189,46.0913 96.5,44.5C 96.3146,42.8042 95.4813,41.4709 94,40.5C 93.5065,38.8659 93.3398,37.1992 93.5,35.5 Z"/></g>
<g><path style="opacity:1" fill="#131719" d="M 171.5,21.5 C 174.075,22.7284 176.408,24.3951 178.5,26.5C 179.099,29.8433 180.432,32.8433 182.5,35.5C 183.716,36.0959 185.049,36.2626 186.5,36C 189.728,41.8796 193.894,47.0463 199,51.5C 200.793,57.4682 202.46,63.4682 204,69.5C 204.464,68.9056 204.631,68.2389 204.5,67.5C 205.785,70.5885 206.451,73.9219 206.5,77.5C 206.19,78.7383 205.69,78.7383 205,77.5C 204.751,74.8232 203.751,72.4899 202,70.5C 201.149,73.6124 199.983,73.9458 198.5,71.5C 197.914,71.7093 197.414,72.0426 197,72.5C 196.206,69.5285 195.539,66.5285 195,63.5C 193.376,65.1581 191.709,66.8248 190,68.5C 189.667,68.1667 189.333,67.8333 189,67.5C 188.804,69.2861 187.971,70.6195 186.5,71.5C 185.476,70.1468 184.143,69.4802 182.5,69.5C 182.854,66.5065 181.854,65.5065 179.5,66.5C 178.316,63.4275 176.983,60.4275 175.5,57.5C 175.167,58.3333 174.833,59.1667 174.5,60C 175.483,63.1118 176.15,66.2785 176.5,69.5C 176.607,71.3786 176.107,71.7119 175,70.5C 174.048,63.4214 172.714,63.0881 171,69.5C 170.506,67.8659 170.34,66.1992 170.5,64.5C 172.109,59.7314 173.943,55.0647 176,50.5C 176.789,48.2884 176.622,46.2884 175.5,44.5C 174.906,39.7253 173.906,35.0586 172.5,30.5C 171.841,27.5448 171.508,24.5448 171.5,21.5 Z"/></g>
<g><path style="opacity:1" fill="#cca3ec" d="M 216.5,25.5 C 217.167,26.8333 217.833,28.1667 218.5,29.5C 220.19,36.926 222.19,44.2594 224.5,51.5C 223.998,55.2231 224.331,59.0565 225.5,63C 224.898,64.563 224.065,64.3963 223,62.5C 222.51,61.2068 222.343,59.8734 222.5,58.5C 221.5,58.5 220.5,58.5 219.5,58.5C 216.834,50.8386 214.167,43.1719 211.5,35.5C 212.833,35.5 214.167,35.5 215.5,35.5C 215.616,32.1401 215.949,28.8067 216.5,25.5 Z"/></g>
<g><path style="opacity:1" fill="#48da1b" d="M 150.5,48.5 C 147.997,50.8327 145.331,52.9993 142.5,55C 140.527,55.4955 138.527,55.6621 136.5,55.5C 135.488,54.1283 134.488,52.795 133.5,51.5C 133.305,47.0848 133.805,42.7514 135,38.5C 138.07,31.4234 143.404,27.4234 151,26.5C 152.605,27.1007 153.938,28.1007 155,29.5C 156.162,36.5176 154.662,42.8509 150.5,48.5 Z"/></g>
<g><path style="opacity:1" fill="#d6f625" d="M 143.5,32.5 C 145.435,33.1495 147.435,33.4828 149.5,33.5C 148.589,37.9996 147.089,42.3329 145,46.5C 141.844,49.3988 139.178,49.0655 137,45.5C 135.476,39.2151 137.642,34.8817 143.5,32.5 Z"/></g>
<g><path style="opacity:1" fill="#babcaa" d="M 170.5,30.5 C 171.167,30.5 171.833,30.5 172.5,30.5C 173.906,35.0586 174.906,39.7253 175.5,44.5C 175.5,46.1667 175.5,47.8333 175.5,49.5C 172.5,49.5 169.5,49.5 166.5,49.5C 164.97,44.9074 163.637,40.2407 162.5,35.5C 162.281,34.325 162.614,33.325 163.5,32.5C 164.065,34.5096 165.065,36.1763 166.5,37.5C 170.759,36.6382 172.093,34.3049 170.5,30.5 Z"/></g>
<g><path style="opacity:1" fill="#454598" d="M 222.5,38.5 C 223.482,39.1408 224.482,39.8075 225.5,40.5C 226.088,42.9109 227.255,44.9109 229,46.5C 231.871,52.2423 234.704,57.909 237.5,63.5C 238.466,65.396 238.799,67.396 238.5,69.5C 237.298,68.5946 235.964,68.5946 234.5,69.5C 232.275,62.9035 230.108,56.2368 228,49.5C 227.623,48.0577 226.79,47.0577 225.5,46.5C 224.883,43.6446 223.883,40.9779 222.5,38.5 Z"/></g>
<g><path style="opacity:1" fill="#cef81d" d="M 109.5,46.5 C 109.833,46.5 110.167,46.5 110.5,46.5C 111.498,46.5872 112.665,46.9205 114,47.5C 115.117,50.4803 115.95,53.4803 116.5,56.5C 116.167,58.1667 115.833,59.8333 115.5,61.5C 114.305,59.703 112.638,58.703 110.5,58.5C 109.597,55.6085 109.264,52.6085 109.5,49.5C 109.5,48.5 109.5,47.5 109.5,46.5 Z"/></g>
<g><path style="opacity:1" fill="#8d917e" d="M 209.5,32.5 C 210.401,33.2905 211.068,34.2905 211.5,35.5C 214.167,43.1719 216.834,50.8386 219.5,58.5C 220.167,62.1667 220.833,65.8333 221.5,69.5C 219.229,62.355 216.563,55.355 213.5,48.5C 212.749,43.0055 211.416,37.6721 209.5,32.5 Z"/></g>
<g><path style="opacity:1" fill="#8b906a" d="M 175.5,44.5 C 176.622,46.2884 176.789,48.2884 176,50.5C 173.943,55.0647 172.109,59.7314 170.5,64.5C 168.161,69.2045 166.327,74.2045 165,79.5C 164.52,84.9188 165.02,90.2521 166.5,95.5C 165.732,94.7375 165.232,93.7375 165,92.5C 163.601,95.0388 162.101,96.7055 160.5,97.5C 159.778,97.0825 159.278,96.4158 159,95.5C 158.364,88.1439 158.531,80.8106 159.5,73.5C 161.831,65.5527 164.164,57.5527 166.5,49.5C 169.5,49.5 172.5,49.5 175.5,49.5C 175.5,47.8333 175.5,46.1667 175.5,44.5 Z"/></g>
<g><path style="opacity:1" fill="#20213f" d="M 171.5,8.5 C 174.612,13.8135 178.445,18.8135 183,23.5C 183.346,25.2182 183.846,26.8849 184.5,28.5C 187.76,30.3786 190.927,32.3786 194,34.5C 196.329,39.3194 198.162,44.3194 199.5,49.5C 200.429,48.3112 200.762,46.9778 200.5,45.5C 201.826,50.7432 203.159,56.0766 204.5,61.5C 204.5,63.5 204.5,65.5 204.5,67.5C 204.631,68.2389 204.464,68.9056 204,69.5C 202.46,63.4682 200.793,57.4682 199,51.5C 193.894,47.0463 189.728,41.8796 186.5,36C 185.049,36.2626 183.716,36.0959 182.5,35.5C 180.432,32.8433 179.099,29.8433 178.5,26.5C 176.408,24.3951 174.075,22.7284 171.5,21.5C 170.908,18.8728 170.575,16.2062 170.5,13.5C 171.404,12.791 171.737,11.791 171.5,10.5C 171.5,9.83333 171.5,9.16667 171.5,8.5 Z"/></g>
<g><path style="opacity:1" fill="#0a0e0d" d="M 73.5,24.5 C 75.756,26.4253 77.5894,28.7586 79,31.5C 81.8739,39.2208 83.3739,47.2208 83.5,55.5C 83.2539,61.5594 83.5872,67.5594 84.5,73.5C 85.413,86.3326 85.413,98.9992 84.5,111.5C 84.7373,110.209 84.404,109.209 83.5,108.5C 82.0534,88.3609 80.7201,68.3609 79.5,48.5C 79.2453,44.1997 78.2453,40.1997 76.5,36.5C 75.5003,32.5007 74.5003,28.5007 73.5,24.5 Z"/></g>
<g><path style="opacity:1" fill="#5851d0" d="M 221.5,32.5 C 223.567,33.2628 225.234,34.5961 226.5,36.5C 227.705,35.4231 228.372,34.0898 228.5,32.5C 234.069,45.1944 239.069,58.1944 243.5,71.5C 244.15,73.4352 244.483,75.4352 244.5,77.5C 244.5,78.8333 243.833,79.5 242.5,79.5C 241.167,76.1667 239.833,72.8333 238.5,69.5C 238.799,67.396 238.466,65.396 237.5,63.5C 234.704,57.909 231.871,52.2423 229,46.5C 227.255,44.9109 226.088,42.9109 225.5,40.5C 224.482,39.8075 223.482,39.1408 222.5,38.5C 222.5,38.1667 222.5,37.8333 222.5,37.5C 222.371,35.7839 222.038,34.1172 221.5,32.5 Z"/></g>
<g><path style="opacity:1" fill="#4ba63c" d="M 149.5,55.5 C 146.714,57.1126 144.047,58.946 141.5,61C 139.613,61.7796 137.946,61.6129 136.5,60.5C 134.811,56.8552 135.811,55.8552 139.5,57.5C 144.292,55.8869 148.459,53.2202 152,49.5C 152.667,50.5 152.667,51.5 152,52.5C 150.955,53.3734 150.122,54.3734 149.5,55.5 Z"/></g>
<g><path style="opacity:1" fill="#dfe4d2" d="M 128.5,34.5 C 128.588,44.8431 128.922,55.1764 129.5,65.5C 129.813,68.2469 129.48,70.9135 128.5,73.5C 127.749,72.624 127.249,71.624 127,70.5C 124.84,60.5368 123.007,50.5368 121.5,40.5C 121.5,35.8333 121.5,31.1667 121.5,26.5C 122.978,26.238 124.311,26.5713 125.5,27.5C 127.334,29.4983 128.334,31.8316 128.5,34.5 Z"/></g>
<g><path style="opacity:1" fill="#62f216" d="M 114.5,65.5 C 114.5,64.8333 114.167,64.5 113.5,64.5C 111.975,62.7837 110.975,60.7837 110.5,58.5C 112.638,58.703 114.305,59.703 115.5,61.5C 115.833,59.8333 116.167,58.1667 116.5,56.5C 115.95,53.4803 115.117,50.4803 114,47.5C 112.665,46.9205 111.498,46.5872 110.5,46.5C 111.002,44.9153 112.002,44.4153 113.5,45C 118.192,50.6933 119.692,57.1933 118,64.5C 116.989,65.3366 115.822,65.67 114.5,65.5 Z"/></g>
<g><path style="opacity:1" fill="#20281c" d="M 161.5,43.5 C 162.588,45.5161 163.588,47.6828 164.5,50C 162.52,56.2753 160.353,62.4419 158,68.5C 157.333,71.1667 157.333,73.8333 158,76.5C 158.232,75.2625 158.732,74.2625 159.5,73.5C 158.531,80.8106 158.364,88.1439 159,95.5C 159.278,96.4158 159.778,97.0825 160.5,97.5C 161.371,100.112 162.037,102.779 162.5,105.5C 162.657,106.873 162.49,108.207 162,109.5C 158.397,103.339 156.23,96.6719 155.5,89.5C 155.334,79.1613 155.5,68.828 156,58.5C 157,59.8333 158,59.8333 159,58.5C 160.893,53.6918 161.727,48.6918 161.5,43.5 Z"/></g>
<g><path style="opacity:1" fill="#323f0c" d="M 60.5,33.5 C 61.8333,33.8333 63.1667,34.1667 64.5,34.5C 64.5,35.5 64.5,36.5 64.5,37.5C 63.8826,37.3893 63.3826,37.056 63,36.5C 56.1234,41.0281 49.29,45.6947 42.5,50.5C 41.914,50.2907 41.414,49.9574 41,49.5C 35.2585,53.9574 29.0918,57.7907 22.5,61C 19.6258,63.6857 17.4591,66.8524 16,70.5C 14.324,71.0611 12.9906,72.0611 12,73.5C 11.6667,73.1667 11.3333,72.8333 11,72.5C 9.18147,75.6251 7.18147,78.6251 5,81.5C 3.54905,83.4641 1.71572,84.7974 -0.5,85.5C -0.5,81.1667 -0.5,76.8333 -0.5,72.5C 0.788732,73.5009 2.12206,73.3342 3.5,72C 7.38034,67.6356 11.047,63.8023 14.5,60.5C 16.289,58.9668 18.289,57.9668 20.5,57.5C 21.197,52.3087 24.197,49.642 29.5,49.5C 29.6234,46.626 30.6234,44.126 32.5,42C 40.8895,43.9708 48.3895,41.4708 55,34.5C 57.0765,35.7573 58.9098,35.424 60.5,33.5 Z"/></g>
<g><path style="opacity:1" fill="#0c1b07" d="M 213.5,48.5 C 216.563,55.355 219.229,62.355 221.5,69.5C 221.5,71.1667 221.5,72.8333 221.5,74.5C 220.862,76.7989 219.862,78.9656 218.5,81C 219.517,82.0495 219.684,83.2161 219,84.5C 216.199,83.4329 213.532,82.0995 211,80.5C 209.923,81.4295 208.756,82.0962 207.5,82.5C 207.784,80.5853 207.451,78.9187 206.5,77.5C 206.451,73.9219 205.785,70.5885 204.5,67.5C 204.5,65.5 204.5,63.5 204.5,61.5C 205.054,59.1112 206.554,57.4445 209,56.5C 209.875,53.1169 210.875,49.7835 212,46.5C 212.159,48.3427 212.659,49.0093 213.5,48.5 Z"/></g>
<g><path style="opacity:1" fill="#ba98cc" d="M 76.5,36.5 C 78.2453,40.1997 79.2453,44.1997 79.5,48.5C 79.9686,62.1696 80.1353,75.8362 80,89.5C 79.3893,85.7279 78.3893,85.7279 77,89.5C 75.9563,88.3774 75.2896,87.0441 75,85.5C 74.3333,86.1667 73.6667,86.8333 73,87.5C 72.6736,84.6677 73.1736,82.001 74.5,79.5C 74.3337,72.4921 74.5004,65.4921 75,58.5C 75.3333,59.8333 75.6667,61.1667 76,62.5C 76.256,58.0533 77.0894,53.7199 78.5,49.5C 76.9359,45.3253 76.2693,40.992 76.5,36.5 Z"/></g>
<g><path style="opacity:1" fill="#09091f" d="M 93.5,35.5 C 93.3398,37.1992 93.5065,38.8659 94,40.5C 95.4813,41.4709 96.3146,42.8042 96.5,44.5C 96.7135,46.1439 96.3802,47.6439 95.5,49C 97.8912,50.3086 97.8912,51.3086 95.5,52C 96.3757,53.5848 97.7091,54.5848 99.5,55C 97.2745,57.6022 94.6078,59.4355 91.5,60.5C 91.9556,63.6443 92.9556,66.6443 94.5,69.5C 96.9331,66.758 99.9331,65.9246 103.5,67C 100.654,67.8793 99.987,69.5459 101.5,72C 100.751,73.7337 100.251,75.567 100,77.5C 99.6667,77.1667 99.3333,76.8333 99,76.5C 96.1043,81.5556 97.1043,81.889 102,77.5C 102.507,78.9961 102.007,80.1627 100.5,81C 104.226,82.0432 103.893,82.5432 99.5,82.5C 99.6882,84.1033 99.1882,85.4366 98,86.5C 96.4419,85.6548 95.4419,86.3215 95,88.5C 94.6667,88.1667 94.3333,87.8333 94,87.5C 92.5298,90.7639 91.3631,94.0973 90.5,97.5C 88.4421,90.7709 87.1088,83.7709 86.5,76.5C 86.3601,74.9704 85.6935,73.9704 84.5,73.5C 83.5872,67.5594 83.2539,61.5594 83.5,55.5C 84.4874,58.7135 85.4874,62.0468 86.5,65.5C 86.8333,64.3333 87.1667,63.1667 87.5,62C 86.8953,54.8208 86.2286,47.6541 85.5,40.5C 85.988,37.149 87.1547,36.8157 89,39.5C 89.4966,37.1902 89.6633,34.8568 89.5,32.5C 91.6188,32.4677 92.9522,33.4677 93.5,35.5 Z"/></g>
<g><path style="opacity:1" fill="#14270b" d="M 255.5,60.5 C 255.5,76.8333 255.5,93.1667 255.5,109.5C 254.167,106.167 252.833,102.833 251.5,99.5C 249.537,91.9488 247.204,84.6155 244.5,77.5C 244.483,75.4352 244.15,73.4352 243.5,71.5C 246.3,72.3337 248.967,72.5004 251.5,72C 252.582,68.5951 253.416,65.0951 254,61.5C 254.383,60.944 254.883,60.6107 255.5,60.5 Z"/></g>
<g><path style="opacity:1" fill="#495c12" d="M 66.5,42.5 C 66.9887,43.9952 67.6554,45.3285 68.5,46.5C 69.1495,48.4352 69.4828,50.4352 69.5,52.5C 68.8333,51.5 68.1667,50.5 67.5,49.5C 60.1276,51.0212 53.7943,54.5212 48.5,60C 43.1516,62.6695 37.8182,65.3362 32.5,68C 30.1667,72.3333 26.8333,75.6667 22.5,78C 19.5,81.3333 16.5,84.6667 13.5,88C 10.2677,89.2305 7.60108,91.2305 5.5,94C 4.16667,94 2.83333,94 1.5,94C 0.934056,94.9947 0.267389,95.828 -0.5,96.5C -0.5,93.8333 -0.5,91.1667 -0.5,88.5C 0.822066,88.33 1.98873,88.6634 3,89.5C 7.47233,86.9035 10.8057,83.2369 13,78.5C 18.9387,72.8063 24.7721,66.973 30.5,61C 34.4447,58.1949 38.778,56.1949 43.5,55C 46.0991,51.5566 49.5991,49.3899 54,48.5C 57.8208,46.2845 61.4874,43.9511 65,41.5C 65.3826,42.056 65.8826,42.3893 66.5,42.5 Z"/></g>
<g><path style="opacity:1" fill="#586c14" d="M 67.5,49.5 C 65.5633,54.9503 62.2299,59.4503 57.5,63C 52.0848,67.4126 46.0848,70.5793 39.5,72.5C 32.3771,78.4518 25.3771,84.6185 18.5,91C 16.8333,91.3333 15.1667,91.6667 13.5,92C 7.35419,97.6477 2.68752,103.814 -0.5,110.5C -0.5,105.833 -0.5,101.167 -0.5,96.5C 0.267389,95.828 0.934056,94.9947 1.5,94C 2.83333,94 4.16667,94 5.5,94C 7.60108,91.2305 10.2677,89.2305 13.5,88C 16.5,84.6667 19.5,81.3333 22.5,78C 26.8333,75.6667 30.1667,72.3333 32.5,68C 37.8182,65.3362 43.1516,62.6695 48.5,60C 53.7943,54.5212 60.1276,51.0212 67.5,49.5 Z"/></g>
<g><path style="opacity:1" fill="#c6aada" d="M 224.5,51.5 C 225.167,51.8333 225.833,52.1667 226.5,52.5C 227.918,58.5991 229.584,64.5991 231.5,70.5C 232.885,75.59 232.552,80.59 230.5,85.5C 229.479,83.812 228.145,82.4787 226.5,81.5C 225.297,77.222 223.63,73.222 221.5,69.5C 220.833,65.8333 220.167,62.1667 219.5,58.5C 220.5,58.5 221.5,58.5 222.5,58.5C 222.343,59.8734 222.51,61.2068 223,62.5C 224.065,64.3963 224.898,64.563 225.5,63C 224.331,59.0565 223.998,55.2231 224.5,51.5 Z"/></g>
<g><path style="opacity:1" fill="#395b1b" d="M 179.5,66.5 C 181.542,75.2977 184.209,83.9644 187.5,92.5C 186.833,92.5 186.167,92.5 185.5,92.5C 182.214,84.9307 179.214,77.264 176.5,69.5C 176.15,66.2785 175.483,63.1118 174.5,60C 174.833,59.1667 175.167,58.3333 175.5,57.5C 176.983,60.4275 178.316,63.4275 179.5,66.5 Z"/></g>
<g><path style="opacity:1" fill="#142013" d="M 206.5,77.5 C 207.451,78.9187 207.784,80.5853 207.5,82.5C 207.71,89.2217 207.21,95.8883 206,102.5C 205.333,103.167 204.667,103.833 204,104.5C 201.636,102.637 199.136,100.971 196.5,99.5C 195.205,101.328 194.205,103.328 193.5,105.5C 192.711,102.095 191.711,98.7613 190.5,95.5C 190.132,93.8247 189.132,92.8247 187.5,92.5C 184.209,83.9644 181.542,75.2977 179.5,66.5C 181.854,65.5065 182.854,66.5065 182.5,69.5C 184.143,69.4802 185.476,70.1468 186.5,71.5C 187.971,70.6195 188.804,69.2861 189,67.5C 189.333,67.8333 189.667,68.1667 190,68.5C 191.709,66.8248 193.376,65.1581 195,63.5C 195.539,66.5285 196.206,69.5285 197,72.5C 197.414,72.0426 197.914,71.7093 198.5,71.5C 199.983,73.9458 201.149,73.6124 202,70.5C 203.751,72.4899 204.751,74.8232 205,77.5C 205.69,78.7383 206.19,78.7383 206.5,77.5 Z"/></g>
<g><path style="opacity:1" fill="#3a490e" d="M 64.5,37.5 C 65.4408,39.0495 66.1075,40.7162 66.5,42.5C 65.8826,42.3893 65.3826,42.056 65,41.5C 61.4874,43.9511 57.8208,46.2845 54,48.5C 49.5991,49.3899 46.0991,51.5566 43.5,55C 38.778,56.1949 34.4447,58.1949 30.5,61C 24.7721,66.973 18.9387,72.8063 13,78.5C 10.8057,83.2369 7.47233,86.9035 3,89.5C 1.98873,88.6634 0.822066,88.33 -0.5,88.5C -0.5,87.5 -0.5,86.5 -0.5,85.5C 1.71572,84.7974 3.54905,83.4641 5,81.5C 7.18147,78.6251 9.18147,75.6251 11,72.5C 11.3333,72.8333 11.6667,73.1667 12,73.5C 12.9906,72.0611 14.324,71.0611 16,70.5C 17.4591,66.8524 19.6258,63.6857 22.5,61C 29.0918,57.7907 35.2585,53.9574 41,49.5C 41.414,49.9574 41.914,50.2907 42.5,50.5C 49.29,45.6947 56.1234,41.0281 63,36.5C 63.3826,37.056 63.8826,37.3893 64.5,37.5 Z"/></g>
<g><path style="opacity:1" fill="#0f150c" d="M 118.5,11.5 C 116.76,15.4832 115.76,19.6499 115.5,24C 116.56,44.7497 121.727,64.2497 131,82.5C 131.28,76.644 130.78,70.9774 129.5,65.5C 128.922,55.1764 128.588,44.8431 128.5,34.5C 128.833,34.5 129.167,34.5 129.5,34.5C 128.643,41.3912 129.809,47.7245 133,53.5C 133.464,52.9056 133.631,52.2389 133.5,51.5C 134.488,52.795 135.488,54.1283 136.5,55.5C 135.5,55.5 134.5,55.5 133.5,55.5C 132.916,58.285 133.916,59.9517 136.5,60.5C 137.946,61.6129 139.613,61.7796 141.5,61C 144.047,58.946 146.714,57.1126 149.5,55.5C 148.653,59.3752 146.319,62.7086 142.5,65.5C 141.521,66.7653 140.521,68.0986 139.5,69.5C 138.833,68.8333 138.167,68.1667 137.5,67.5C 136.376,69.3686 135.543,71.3686 135,73.5C 135.139,80.0275 134.972,86.5275 134.5,93C 136.034,97.3993 136.534,101.899 136,106.5C 133.743,101.654 130.743,97.3203 127,93.5C 126.768,94.7375 126.268,95.7375 125.5,96.5C 121.225,89.052 116.725,81.7186 112,74.5C 111.536,75.0944 111.369,75.7611 111.5,76.5C 110.212,73.2999 110.212,69.9666 111.5,66.5C 110.471,66.7036 109.471,66.2036 108.5,65C 109.167,64.6667 109.833,64.3333 110.5,64C 107.482,59.9524 106.316,55.4524 107,50.5C 107.333,51.8333 107.667,53.1667 108,54.5C 108.198,52.6183 108.698,50.9516 109.5,49.5C 109.264,52.6085 109.597,55.6085 110.5,58.5C 110.975,60.7837 111.975,62.7837 113.5,64.5C 112.416,67.9851 113.749,70.3185 117.5,71.5C 120.329,70.175 120.996,68.175 119.5,65.5C 117.546,68.0472 115.879,68.0472 114.5,65.5C 115.822,65.67 116.989,65.3366 118,64.5C 119.692,57.1933 118.192,50.6933 113.5,45C 112.002,44.4153 111.002,44.9153 110.5,46.5C 110.167,46.5 109.833,46.5 109.5,46.5C 108.167,46.5 107.5,45.8333 107.5,44.5C 108.496,44.5858 109.329,44.2524 110,43.5C 110.654,40.4782 109.487,38.4782 106.5,37.5C 108.363,32.5779 110.03,27.5779 111.5,22.5C 113.584,18.6641 115.917,14.9974 118.5,11.5 Z"/></g>
<g><path style="opacity:1" fill="#186608" d="M 113.5,64.5 C 114.167,64.5 114.5,64.8333 114.5,65.5C 115.879,68.0472 117.546,68.0472 119.5,65.5C 120.996,68.175 120.329,70.175 117.5,71.5C 113.749,70.3185 112.416,67.9851 113.5,64.5 Z"/></g>
<g><path style="opacity:1" fill="#586043" d="M 125.5,96.5 C 126.75,101.754 127.75,107.087 128.5,112.5C 127.732,111.737 127.232,110.737 127,109.5C 126.51,110.793 126.343,112.127 126.5,113.5C 126.167,113.5 125.833,113.5 125.5,113.5C 125.81,110.287 125.477,107.287 124.5,104.5C 124.649,101.393 124.149,98.3926 123,95.5C 118.64,89.4388 114.806,83.1054 111.5,76.5C 111.369,75.7611 111.536,75.0944 112,74.5C 116.725,81.7186 121.225,89.052 125.5,96.5 Z"/></g>
<g><path style="opacity:1" fill="#647a16" d="M 67.5,49.5 C 68.1667,50.5 68.8333,51.5 69.5,52.5C 70.1646,58.477 70.498,64.477 70.5,70.5C 70.5,72.5 70.5,74.5 70.5,76.5C 69.6728,71.0149 69.1728,65.3482 69,59.5C 68.586,59.0426 68.086,58.7093 67.5,58.5C 64.7644,60.0243 62.7644,62.191 61.5,65C 56.137,66.3425 51.8037,69.1759 48.5,73.5C 47.2638,74.2458 45.9305,74.5792 44.5,74.5C 32.2375,84.6271 19.7375,94.9604 7,105.5C 6.81416,107.9 6.31416,110.234 5.5,112.5C 3.78456,115.447 1.78456,118.114 -0.5,120.5C -0.5,117.167 -0.5,113.833 -0.5,110.5C 2.68752,103.814 7.35419,97.6477 13.5,92C 15.1667,91.6667 16.8333,91.3333 18.5,91C 25.3771,84.6185 32.3771,78.4518 39.5,72.5C 46.0848,70.5793 52.0848,67.4126 57.5,63C 62.2299,59.4503 65.5633,54.9503 67.5,49.5 Z"/></g>
<g><path style="opacity:1" fill="#6557f4" d="M 62.5,78.5 C 65.1667,78.5 67.8333,78.5 70.5,78.5C 70.5,79.5 70.5,80.5 70.5,81.5C 68.8333,82.5 67.5,83.8333 66.5,85.5C 61.6859,83.3498 56.6859,83.0164 51.5,84.5C 49.8287,86.5098 49.162,88.8431 49.5,91.5C 46.8333,93.8333 44.1667,96.1667 41.5,98.5C 35.4018,99.1167 29.7351,98.45 24.5,96.5C 26.002,94.825 27.3353,92.9917 28.5,91C 34.1169,89.9484 39.7835,89.2818 45.5,89C 48.0796,85.8416 50.4129,82.5082 52.5,79C 55.8168,78.5017 59.1501,78.335 62.5,78.5 Z"/></g>
<g><path style="opacity:1" fill="#31412a" d="M 161.5,43.5 C 161.727,48.6918 160.893,53.6918 159,58.5C 158,59.8333 157,59.8333 156,58.5C 155.5,68.828 155.334,79.1613 155.5,89.5C 154.732,88.7375 154.232,87.7375 154,86.5C 153.501,82.8484 153.335,79.1817 153.5,75.5C 152.178,75.33 151.011,75.6634 150,76.5C 149.436,79.1547 148.936,81.8214 148.5,84.5C 148.586,92.0258 149.919,99.3591 152.5,106.5C 151.02,107.113 149.687,107.446 148.5,107.5C 149.167,108.167 149.833,108.833 150.5,109.5C 148.914,111.173 148.247,113.173 148.5,115.5C 147.5,115.5 146.5,115.5 145.5,115.5C 145.5,116.833 145.5,118.167 145.5,119.5C 143.315,119.704 141.315,120.37 139.5,121.5C 139.716,115.925 139.883,110.258 140,104.5C 140.5,103.5 141,102.5 141.5,101.5C 140.928,97.1038 140.095,92.7705 139,88.5C 138.667,88.8333 138.333,89.1667 138,89.5C 137.034,85.8823 137.534,82.549 139.5,79.5C 140.167,80.8333 140.833,82.1667 141.5,83.5C 142.496,77.5368 142.829,71.5368 142.5,65.5C 146.319,62.7086 148.653,59.3752 149.5,55.5C 150.122,54.3734 150.955,53.3734 152,52.5C 152.667,51.5 152.667,50.5 152,49.5C 148.459,53.2202 144.292,55.8869 139.5,57.5C 135.811,55.8552 134.811,56.8552 136.5,60.5C 133.916,59.9517 132.916,58.285 133.5,55.5C 134.5,55.5 135.5,55.5 136.5,55.5C 138.527,55.6621 140.527,55.4955 142.5,55C 145.331,52.9993 147.997,50.8327 150.5,48.5C 152.017,48.4894 153.184,47.8228 154,46.5C 155.013,44.1054 156.68,42.4387 159,41.5C 160.376,41.6842 161.209,42.3509 161.5,43.5 Z"/></g>
<g><path style="opacity:1" fill="#090f1c" d="M 96.5,44.5 C 97.2189,46.0913 98.2189,47.5913 99.5,49C 98.6634,50.0113 98.33,51.1779 98.5,52.5C 100.167,52.5 101.833,52.5 103.5,52.5C 106.528,63.8745 108.361,75.5412 109,87.5C 109.318,89.0609 110.151,90.2276 111.5,91C 109.705,91.2568 107.705,91.9235 105.5,93C 107.481,93.6054 107.815,94.6054 106.5,96C 103.013,96.399 100.179,97.899 98,100.5C 98.2345,103.909 98.0678,107.242 97.5,110.5C 95.0269,106.264 93.6935,106.597 93.5,111.5C 91.8985,108.898 90.5652,106.064 89.5,103C 90.1667,101.667 90.8333,100.333 91.5,99C 91.4301,98.2352 91.0967,97.7352 90.5,97.5C 91.3631,94.0973 92.5298,90.7639 94,87.5C 94.3333,87.8333 94.6667,88.1667 95,88.5C 95.4419,86.3215 96.4419,85.6548 98,86.5C 99.1882,85.4366 99.6882,84.1033 99.5,82.5C 103.893,82.5432 104.226,82.0432 100.5,81C 102.007,80.1627 102.507,78.9961 102,77.5C 97.1043,81.889 96.1043,81.5556 99,76.5C 99.3333,76.8333 99.6667,77.1667 100,77.5C 100.251,75.567 100.751,73.7337 101.5,72C 99.987,69.5459 100.654,67.8793 103.5,67C 99.9331,65.9246 96.9331,66.758 94.5,69.5C 92.9556,66.6443 91.9556,63.6443 91.5,60.5C 94.6078,59.4355 97.2745,57.6022 99.5,55C 97.7091,54.5848 96.3757,53.5848 95.5,52C 97.8912,51.3086 97.8912,50.3086 95.5,49C 96.3802,47.6439 96.7135,46.1439 96.5,44.5 Z"/></g>
<g><path style="opacity:1" fill="#3d4b78" d="M 238.5,69.5 C 239.833,72.8333 241.167,76.1667 242.5,79.5C 242.914,82.7431 243.914,85.7431 245.5,88.5C 243.929,87.8031 242.429,87.4698 241,87.5C 239.51,81.1911 237.343,75.1911 234.5,69.5C 235.964,68.5946 237.298,68.5946 238.5,69.5 Z"/></g>
<g><path style="opacity:1" fill="#111c0d" d="M 170.5,64.5 C 170.34,66.1992 170.506,67.8659 171,69.5C 172.714,63.0881 174.048,63.4214 175,70.5C 176.107,71.7119 176.607,71.3786 176.5,69.5C 179.214,77.264 182.214,84.9307 185.5,92.5C 186.192,96.5999 187.192,100.6 188.5,104.5C 188.662,106.527 188.495,108.527 188,110.5C 187.125,107.785 185.292,106.452 182.5,106.5C 182.649,107.552 182.483,108.552 182,109.5C 179.609,108.398 179.109,109.064 180.5,111.5C 178.999,112.752 177.332,113.752 175.5,114.5C 174.702,116.078 174.202,117.744 174,119.5C 173.617,118.944 173.117,118.611 172.5,118.5C 172.672,117.508 172.338,116.842 171.5,116.5C 170.044,109.461 168.377,102.461 166.5,95.5C 165.02,90.2521 164.52,84.9188 165,79.5C 166.327,74.2045 168.161,69.2045 170.5,64.5 Z"/></g>
<g><path style="opacity:1" fill="#525fb0" d="M 244.5,77.5 C 247.204,84.6155 249.537,91.9488 251.5,99.5C 251.5,100.167 251.167,100.5 250.5,100.5C 248.473,96.7791 246.806,92.7791 245.5,88.5C 243.914,85.7431 242.914,82.7431 242.5,79.5C 243.833,79.5 244.5,78.8333 244.5,77.5 Z"/></g>
<g><path style="opacity:1" fill="#4032a2" d="M 66.5,85.5 C 63.7341,92.0281 60.7341,98.3615 57.5,104.5C 54.5604,100.278 51.8937,95.9447 49.5,91.5C 49.162,88.8431 49.8287,86.5098 51.5,84.5C 56.6859,83.0164 61.6859,83.3498 66.5,85.5 Z"/></g>
<g><path style="opacity:1" fill="#738b1a" d="M 70.5,76.5 C 67.8333,77.1667 65.1667,77.8333 62.5,78.5C 59.1501,78.335 55.8168,78.5017 52.5,79C 50.4129,82.5082 48.0796,85.8416 45.5,89C 39.7835,89.2818 34.1169,89.9484 28.5,91C 27.3353,92.9917 26.002,94.825 24.5,96.5C 20.8808,99.7383 18.8808,103.738 18.5,108.5C 17.8423,107.602 17.1757,106.602 16.5,105.5C 14.4084,109.641 11.7417,113.307 8.5,116.5C 7.19514,119.053 6.19514,121.72 5.5,124.5C 3.21645,127.427 1.21645,130.427 -0.5,133.5C -0.5,129.167 -0.5,124.833 -0.5,120.5C 1.78456,118.114 3.78456,115.447 5.5,112.5C 6.31416,110.234 6.81416,107.9 7,105.5C 19.7375,94.9604 32.2375,84.6271 44.5,74.5C 45.9305,74.5792 47.2638,74.2458 48.5,73.5C 51.8037,69.1759 56.137,66.3425 61.5,65C 62.7644,62.191 64.7644,60.0243 67.5,58.5C 68.086,58.7093 68.586,59.0426 69,59.5C 69.1728,65.3482 69.6728,71.0149 70.5,76.5 Z"/></g>
<g><path style="opacity:1" fill="#1d3b0e" d="M 226.5,93.5 C 227.373,97.7685 227.706,102.102 227.5,106.5C 227.001,102.761 226.001,99.0942 224.5,95.5C 223.264,94.6433 221.931,93.9766 220.5,93.5C 219.614,94.325 219.281,95.325 219.5,96.5C 216.724,96.0889 216.057,96.9223 217.5,99C 217.275,100.621 216.442,101.788 215,102.5C 213.56,101.852 212.06,101.519 210.5,101.5C 209.286,108.49 209.286,115.49 210.5,122.5C 208.8,122.374 207.3,121.707 206,120.5C 205.5,120.833 205,121.167 204.5,121.5C 206.167,123.5 207.833,125.5 209.5,127.5C 209,127.833 208.5,128.167 208,128.5C 202.213,124.987 200.713,125.987 203.5,131.5C 203.043,132.298 202.376,132.631 201.5,132.5C 200.16,128.49 198.826,124.49 197.5,120.5C 198.222,120.918 198.722,121.584 199,122.5C 199.333,120.167 199.667,117.833 200,115.5C 203.389,113.212 203.889,110.545 201.5,107.5C 204.643,106.834 206.809,108.168 208,111.5C 208.942,106.373 209.276,101.373 209,96.5C 210.333,95.1667 211.667,95.1667 213,96.5C 215.039,95.0217 215.872,93.0217 215.5,90.5C 218.14,92.0078 220.473,91.6744 222.5,89.5C 224.397,90.3681 225.73,91.7014 226.5,93.5 Z"/></g>
<g><path style="opacity:1" fill="#263d29" d="M 225.5,46.5 C 226.79,47.0577 227.623,48.0577 228,49.5C 230.108,56.2368 232.275,62.9035 234.5,69.5C 237.343,75.1911 239.51,81.1911 241,87.5C 242.429,87.4698 243.929,87.8031 245.5,88.5C 246.806,92.7791 248.473,96.7791 250.5,100.5C 250.5,102.5 250.5,104.5 250.5,106.5C 249.698,105.048 249.198,103.382 249,101.5C 244.127,97.4851 243.294,98.4851 246.5,104.5C 246.167,104.833 245.833,105.167 245.5,105.5C 244.476,104.147 243.143,103.48 241.5,103.5C 240.522,95.8977 238.188,88.8977 234.5,82.5C 234.047,78.2515 233.047,74.2515 231.5,70.5C 229.584,64.5991 227.918,58.5991 226.5,52.5C 226.483,50.4352 226.15,48.4352 225.5,46.5 Z"/></g>
<g><path style="opacity:1" fill="#a5a1a8" d="M 231.5,70.5 C 233.047,74.2515 234.047,78.2515 234.5,82.5C 236.057,89.0678 237.057,95.7345 237.5,102.5C 237.872,105.022 237.039,107.022 235,108.5C 234.667,108.167 234.333,107.833 234,107.5C 233.235,103.085 231.568,99.0849 229,95.5C 228.481,90.7619 227.648,86.0953 226.5,81.5C 228.145,82.4787 229.479,83.812 230.5,85.5C 232.552,80.59 232.885,75.59 231.5,70.5 Z"/></g>
<g><path style="opacity:1" fill="#a58eb2" d="M 79.5,48.5 C 80.7201,68.3609 82.0534,88.3609 83.5,108.5C 83.2816,113.211 83.6149,117.878 84.5,122.5C 84.3684,124.601 83.3684,126.101 81.5,127C 81.8333,127.333 82.1667,127.667 82.5,128C 78.68,129.16 77.18,127.993 78,124.5C 76.4039,125.048 75.2373,124.382 74.5,122.5C 73.8333,116.833 73.1667,111.167 72.5,105.5C 72.1014,97.3297 71.4348,89.3297 70.5,81.5C 70.5,80.5 70.5,79.5 70.5,78.5C 67.8333,78.5 65.1667,78.5 62.5,78.5C 65.1667,77.8333 67.8333,77.1667 70.5,76.5C 70.5,74.5 70.5,72.5 70.5,70.5C 71.3138,72.631 71.8138,74.9644 72,77.5C 72.4169,78.756 73.2502,79.4226 74.5,79.5C 73.1736,82.001 72.6736,84.6677 73,87.5C 73.6667,86.8333 74.3333,86.1667 75,85.5C 75.2896,87.0441 75.9563,88.3774 77,89.5C 78.3893,85.7279 79.3893,85.7279 80,89.5C 80.1353,75.8362 79.9686,62.1696 79.5,48.5 Z"/></g>
<g><path style="opacity:1" fill="#3c502f" d="M 155.5,89.5 C 156.23,96.6719 158.397,103.339 162,109.5C 162.49,108.207 162.657,106.873 162.5,105.5C 163.338,105.842 163.672,106.508 163.5,107.5C 163.715,109.179 163.048,110.179 161.5,110.5C 154.352,116.809 147.018,122.975 139.5,129C 138.517,129.591 137.85,129.257 137.5,128C 139.013,126.121 139.679,123.954 139.5,121.5C 141.315,120.37 143.315,119.704 145.5,119.5C 145.5,118.167 145.5,116.833 145.5,115.5C 146.5,115.5 147.5,115.5 148.5,115.5C 148.247,113.173 148.914,111.173 150.5,109.5C 149.833,108.833 149.167,108.167 148.5,107.5C 149.687,107.446 151.02,107.113 152.5,106.5C 149.919,99.3591 148.586,92.0258 148.5,84.5C 148.936,81.8214 149.436,79.1547 150,76.5C 151.011,75.6634 152.178,75.33 153.5,75.5C 153.335,79.1817 153.501,82.8484 154,86.5C 154.232,87.7375 154.732,88.7375 155.5,89.5 Z"/></g>
<g><path style="opacity:1" fill="#141315" d="M 70.5,81.5 C 71.4348,89.3297 72.1014,97.3297 72.5,105.5C 71.6805,108.305 71.1805,111.305 71,114.5C 70.3333,115.167 69.6667,115.833 69,116.5C 68.7978,114.744 68.2978,113.078 67.5,111.5C 64.7523,112.813 61.919,113.813 59,114.5C 58.1667,113.5 57.3333,112.5 56.5,111.5C 54.4771,112.54 52.4771,113.54 50.5,114.5C 48.9446,114.278 47.6113,113.611 46.5,112.5C 46.3459,113.909 46.1792,115.576 46,117.5C 42.5027,120.107 39.0027,122.607 35.5,125C 37.6857,125.604 37.8524,126.77 36,128.5C 33.8322,127.371 33.3322,125.871 34.5,124C 33.9056,123.536 33.2389,123.369 32.5,123.5C 33.2653,120.904 33.5987,118.237 33.5,115.5C 34.2952,108.911 36.9619,103.245 41.5,98.5C 44.1667,96.1667 46.8333,93.8333 49.5,91.5C 51.8937,95.9447 54.5604,100.278 57.5,104.5C 60.7341,98.3615 63.7341,92.0281 66.5,85.5C 67.5,83.8333 68.8333,82.5 70.5,81.5 Z"/></g>
<g><path style="opacity:1" fill="#193011" d="M 221.5,74.5 C 224.149,80.4682 225.816,86.8015 226.5,93.5C 225.73,91.7014 224.397,90.3681 222.5,89.5C 220.473,91.6744 218.14,92.0078 215.5,90.5C 215.872,93.0217 215.039,95.0217 213,96.5C 211.667,95.1667 210.333,95.1667 209,96.5C 209.276,101.373 208.942,106.373 208,111.5C 206.809,108.168 204.643,106.834 201.5,107.5C 203.889,110.545 203.389,113.212 200,115.5C 199.667,117.833 199.333,120.167 199,122.5C 198.722,121.584 198.222,120.918 197.5,120.5C 193.583,111.418 190.25,102.085 187.5,92.5C 189.132,92.8247 190.132,93.8247 190.5,95.5C 191.711,98.7613 192.711,102.095 193.5,105.5C 194.205,103.328 195.205,101.328 196.5,99.5C 199.136,100.971 201.636,102.637 204,104.5C 204.667,103.833 205.333,103.167 206,102.5C 207.21,95.8883 207.71,89.2217 207.5,82.5C 208.756,82.0962 209.923,81.4295 211,80.5C 213.532,82.0995 216.199,83.4329 219,84.5C 219.684,83.2161 219.517,82.0495 218.5,81C 219.862,78.9656 220.862,76.7989 221.5,74.5 Z"/></g>
<g><path style="opacity:1" fill="#4b3e9b" d="M 24.5,96.5 C 29.7351,98.45 35.4018,99.1167 41.5,98.5C 36.9619,103.245 34.2952,108.911 33.5,115.5C 32.8826,115.611 32.3826,115.944 32,116.5C 31.3743,125.554 27.041,127.887 19,123.5C 18.5017,120.183 18.335,116.85 18.5,113.5C 18.5,111.833 18.5,110.167 18.5,108.5C 18.8808,103.738 20.8808,99.7383 24.5,96.5 Z"/></g>
<g><path style="opacity:1" fill="#4a6878" d="M 251.5,99.5 C 252.833,102.833 254.167,106.167 255.5,109.5C 255.5,113.167 255.5,116.833 255.5,120.5C 254.144,117.423 253.311,114.09 253,110.5C 251.519,109.529 250.685,108.196 250.5,106.5C 250.5,104.5 250.5,102.5 250.5,100.5C 251.167,100.5 251.5,100.167 251.5,99.5 Z"/></g>
<g><path style="opacity:1" fill="#132c13" d="M 124.5,104.5 C 125.477,107.287 125.81,110.287 125.5,113.5C 125.703,115.39 125.037,116.89 123.5,118C 118.986,121.229 113.986,123.396 108.5,124.5C 108.987,129.563 107.487,133.897 104,137.5C 103.505,139.473 103.338,141.473 103.5,143.5C 102.167,143.5 100.833,143.5 99.5,143.5C 101.004,139.511 100.671,135.677 98.5,132C 100.506,129.158 101.839,125.992 102.5,122.5C 103.716,123.002 104.883,123.335 106,123.5C 107.401,121.808 109.234,121.141 111.5,121.5C 111.5,119.833 111.5,118.167 111.5,116.5C 112.675,116.719 113.675,116.386 114.5,115.5C 114.276,109.289 114.276,102.622 114.5,95.5C 114.987,94.5266 115.487,93.5266 116,92.5C 118.765,96.2608 121.098,100.261 123,104.5C 123.69,105.738 124.19,105.738 124.5,104.5 Z"/></g>
<g><path style="opacity:1" fill="#2e5226" d="M 234.5,82.5 C 238.188,88.8977 240.522,95.8977 241.5,103.5C 243.143,103.48 244.476,104.147 245.5,105.5C 245.833,105.167 246.167,104.833 246.5,104.5C 243.294,98.4851 244.127,97.4851 249,101.5C 249.198,103.382 249.698,105.048 250.5,106.5C 250.685,108.196 251.519,109.529 253,110.5C 253.311,114.09 254.144,117.423 255.5,120.5C 255.5,123.167 255.5,125.833 255.5,128.5C 255.167,128.5 254.833,128.5 254.5,128.5C 251.789,122.196 249.455,115.863 247.5,109.5C 244.762,110.035 242.928,109.035 242,106.5C 241.586,106.957 241.086,107.291 240.5,107.5C 239.824,106.398 239.158,105.398 238.5,104.5C 238.672,103.508 238.338,102.842 237.5,102.5C 237.057,95.7345 236.057,89.0678 234.5,82.5 Z"/></g>
<g><path style="opacity:1" fill="#121711" d="M 72.5,105.5 C 73.1667,111.167 73.8333,116.833 74.5,122.5C 74.5,123.5 74.5,124.5 74.5,125.5C 73.2101,124.942 72.3768,123.942 72,122.5C 70.9887,123.337 69.8221,123.67 68.5,123.5C 68.7692,121.571 68.2692,119.905 67,118.5C 66.0929,121.796 64.2595,123.296 61.5,123C 60.7924,125.768 59.2924,126.601 57,125.5C 55.9125,127.932 55.4125,127.598 55.5,124.5C 53.4247,124.302 51.4247,124.135 49.5,124C 48.1667,124.667 48.1667,125.333 49.5,126C 45.9753,128.548 44.1419,132.048 44,136.5C 42.8831,136.665 41.7164,136.998 40.5,137.5C 39.3044,137.154 39.3044,136.654 40.5,136C 39.5,135.333 38.5,135.333 37.5,136C 38.0611,137.676 39.0611,139.009 40.5,140C 39.5842,140.278 38.9175,140.778 38.5,141.5C 36.376,137.333 34.7094,133 33.5,128.5C 32.6993,126.958 32.366,125.292 32.5,123.5C 33.2389,123.369 33.9056,123.536 34.5,124C 33.3322,125.871 33.8322,127.371 36,128.5C 37.8524,126.77 37.6857,125.604 35.5,125C 39.0027,122.607 42.5027,120.107 46,117.5C 46.1792,115.576 46.3459,113.909 46.5,112.5C 47.6113,113.611 48.9446,114.278 50.5,114.5C 52.4771,113.54 54.4771,112.54 56.5,111.5C 57.3333,112.5 58.1667,113.5 59,114.5C 61.919,113.813 64.7523,112.813 67.5,111.5C 68.2978,113.078 68.7978,114.744 69,116.5C 69.6667,115.833 70.3333,115.167 71,114.5C 71.1805,111.305 71.6805,108.305 72.5,105.5 Z"/></g>
<g><path style="opacity:1" fill="#122623" d="M 114.5,95.5 C 114.276,102.622 114.276,109.289 114.5,115.5C 113.675,116.386 112.675,116.719 111.5,116.5C 111.5,118.167 111.5,119.833 111.5,121.5C 109.234,121.141 107.401,121.808 106,123.5C 104.883,123.335 103.716,123.002 102.5,122.5C 101.839,125.992 100.506,129.158 98.5,132C 100.671,135.677 101.004,139.511 99.5,143.5C 96.5,143.5 93.5,143.5 90.5,143.5C 89.4814,137.426 88.1481,131.426 86.5,125.5C 88.5948,129.163 90.0948,133.163 91,137.5C 92.3561,138.38 93.8561,138.714 95.5,138.5C 95.7151,136.226 96.3818,134.059 97.5,132C 96.1434,125.115 94.8101,118.282 93.5,111.5C 93.6935,106.597 95.0269,106.264 97.5,110.5C 99.679,110.16 101.512,109.16 103,107.5C 103.308,108.308 103.808,108.975 104.5,109.5C 107.491,107.091 109.658,107.424 111,110.5C 110.093,106.301 109.593,101.968 109.5,97.5C 111.554,97.6347 113.221,96.968 114.5,95.5 Z"/></g>
<g><path style="opacity:1" fill="#9ba78f" d="M 221.5,69.5 C 223.63,73.222 225.297,77.222 226.5,81.5C 227.648,86.0953 228.481,90.7619 229,95.5C 231.568,99.0849 233.235,103.085 234,107.5C 234.333,107.833 234.667,108.167 235,108.5C 237.039,107.022 237.872,105.022 237.5,102.5C 238.338,102.842 238.672,103.508 238.5,104.5C 238.5,107.167 238.5,109.833 238.5,112.5C 237.686,114.631 237.186,116.964 237,119.5C 235.732,119.384 234.398,119.051 233,118.5C 232.717,121.134 231.717,123.8 230,126.5C 229.377,122.068 228.377,121.735 227,125.5C 226.517,124.552 226.351,123.552 226.5,122.5C 226.5,121.833 226.5,121.167 226.5,120.5C 227.486,116.03 227.819,111.363 227.5,106.5C 227.706,102.102 227.373,97.7685 226.5,93.5C 225.816,86.8015 224.149,80.4682 221.5,74.5C 221.5,72.8333 221.5,71.1667 221.5,69.5 Z"/></g>
<g><path style="opacity:1" fill="#1c2540" d="M 84.5,73.5 C 85.6935,73.9704 86.3601,74.9704 86.5,76.5C 87.1088,83.7709 88.4421,90.7709 90.5,97.5C 91.0967,97.7352 91.4301,98.2352 91.5,99C 90.8333,100.333 90.1667,101.667 89.5,103C 90.5652,106.064 91.8985,108.898 93.5,111.5C 94.8101,118.282 96.1434,125.115 97.5,132C 96.3818,134.059 95.7151,136.226 95.5,138.5C 93.8561,138.714 92.3561,138.38 91,137.5C 90.0948,133.163 88.5948,129.163 86.5,125.5C 85.8333,120.833 85.1667,116.167 84.5,111.5C 85.413,98.9992 85.413,86.3326 84.5,73.5 Z"/></g>
<g><path style="opacity:1" fill="#d2e0bb" d="M 166.5,95.5 C 168.377,102.461 170.044,109.461 171.5,116.5C 171.5,117.167 171.5,117.833 171.5,118.5C 169.833,118.5 168.167,118.5 166.5,118.5C 166.074,114.573 165.074,110.907 163.5,107.5C 163.672,106.508 163.338,105.842 162.5,105.5C 162.037,102.779 161.371,100.112 160.5,97.5C 162.101,96.7055 163.601,95.0388 165,92.5C 165.232,93.7375 165.732,94.7375 166.5,95.5 Z"/></g>
<g><path style="opacity:1" fill="#97db1e" d="M 185.5,92.5 C 186.167,92.5 186.833,92.5 187.5,92.5C 190.25,102.085 193.583,111.418 197.5,120.5C 198.826,124.49 200.16,128.49 201.5,132.5C 202.175,136.848 204.175,140.515 207.5,143.5C 204.833,143.5 202.167,143.5 199.5,143.5C 198.935,139.463 197.601,135.797 195.5,132.5C 193.588,123.001 191.255,113.667 188.5,104.5C 187.192,100.6 186.192,96.5999 185.5,92.5 Z"/></g>
<g><path style="opacity:1" fill="#1f2b18" d="M 142.5,65.5 C 142.829,71.5368 142.496,77.5368 141.5,83.5C 140.833,82.1667 140.167,80.8333 139.5,79.5C 137.534,82.549 137.034,85.8823 138,89.5C 138.333,89.1667 138.667,88.8333 139,88.5C 140.095,92.7705 140.928,97.1038 141.5,101.5C 141,102.5 140.5,103.5 140,104.5C 139.883,110.258 139.716,115.925 139.5,121.5C 139.679,123.954 139.013,126.121 137.5,128C 137.85,129.257 138.517,129.591 139.5,129C 147.018,122.975 154.352,116.809 161.5,110.5C 156.185,117.449 150.185,123.782 143.5,129.5C 141.486,131.344 139.319,132.011 137,131.5C 134.72,127.553 132.053,123.887 129,120.5C 128.503,117.854 128.336,115.187 128.5,112.5C 127.75,107.087 126.75,101.754 125.5,96.5C 126.268,95.7375 126.768,94.7375 127,93.5C 130.743,97.3203 133.743,101.654 136,106.5C 136.534,101.899 136.034,97.3993 134.5,93C 134.972,86.5275 135.139,80.0275 135,73.5C 135.543,71.3686 136.376,69.3686 137.5,67.5C 138.167,68.1667 138.833,68.8333 139.5,69.5C 140.521,68.0986 141.521,66.7653 142.5,65.5 Z"/></g>
<g><path style="opacity:1" fill="#111f0d" d="M 74.5,125.5 C 76.1251,131.394 77.7918,137.394 79.5,143.5C 65.8333,143.5 52.1667,143.5 38.5,143.5C 38.5,142.833 38.5,142.167 38.5,141.5C 38.9175,140.778 39.5842,140.278 40.5,140C 39.0611,139.009 38.0611,137.676 37.5,136C 38.5,135.333 39.5,135.333 40.5,136C 39.3044,136.654 39.3044,137.154 40.5,137.5C 41.7164,136.998 42.8831,136.665 44,136.5C 44.1419,132.048 45.9753,128.548 49.5,126C 48.1667,125.333 48.1667,124.667 49.5,124C 51.4247,124.135 53.4247,124.302 55.5,124.5C 55.4125,127.598 55.9125,127.932 57,125.5C 59.2924,126.601 60.7924,125.768 61.5,123C 64.2595,123.296 66.0929,121.796 67,118.5C 68.2692,119.905 68.7692,121.571 68.5,123.5C 69.8221,123.67 70.9887,123.337 72,122.5C 72.3768,123.942 73.2101,124.942 74.5,125.5 Z"/></g>
<g><path style="opacity:1" fill="#457911" d="M 226.5,120.5 C 226.5,121.167 226.5,121.833 226.5,122.5C 225.833,122.5 225.5,122.833 225.5,123.5C 224.061,124.509 222.728,124.176 221.5,122.5C 220.571,123.689 220.238,125.022 220.5,126.5C 219.167,126.5 217.833,126.5 216.5,126.5C 216.5,128.833 216.5,131.167 216.5,133.5C 216.209,129.421 214.709,125.754 212,122.5C 211.265,118.187 210.765,113.853 210.5,109.5C 216.209,110.394 221.542,112.061 226.5,114.5C 226.5,116.5 226.5,118.5 226.5,120.5 Z"/></g>
<g><path style="opacity:1" fill="#2f5a12" d="M 238.5,104.5 C 239.158,105.398 239.824,106.398 240.5,107.5C 241.086,107.291 241.586,106.957 242,106.5C 242.928,109.035 244.762,110.035 247.5,109.5C 249.455,115.863 251.789,122.196 254.5,128.5C 250.898,128.533 247.898,127.199 245.5,124.5C 241.94,124.667 239.44,126.334 238,129.5C 237.503,127.19 237.337,124.857 237.5,122.5C 238.324,119.236 238.658,115.902 238.5,112.5C 238.5,109.833 238.5,107.167 238.5,104.5 Z"/></g>
<g><path style="opacity:1" fill="#849f13" d="M 18.5,108.5 C 18.5,110.167 18.5,111.833 18.5,113.5C 17.2751,118.29 16.6084,123.29 16.5,128.5C 13.5525,128.223 10.7191,128.556 8,129.5C 7.19007,133.358 7.35673,137.024 8.5,140.5C 8.5,141.5 8.5,142.5 8.5,143.5C 5.5,143.5 2.5,143.5 -0.5,143.5C -0.5,140.167 -0.5,136.833 -0.5,133.5C 1.21645,130.427 3.21645,127.427 5.5,124.5C 6.19514,121.72 7.19514,119.053 8.5,116.5C 11.7417,113.307 14.4084,109.641 16.5,105.5C 17.1757,106.602 17.8423,107.602 18.5,108.5 Z"/></g>
<g><path style="opacity:1" fill="#25531b" d="M 125.5,113.5 C 125.833,113.5 126.167,113.5 126.5,113.5C 126.5,115.5 126.5,117.5 126.5,119.5C 125.504,119.414 124.671,119.748 124,120.5C 123.713,122.891 123.213,125.224 122.5,127.5C 119.727,130.196 117.06,133.029 114.5,136C 111.774,136.182 109.107,136.682 106.5,137.5C 105.652,139.409 105.318,141.409 105.5,143.5C 104.833,143.5 104.167,143.5 103.5,143.5C 103.338,141.473 103.505,139.473 104,137.5C 107.487,133.897 108.987,129.563 108.5,124.5C 113.986,123.396 118.986,121.229 123.5,118C 125.037,116.89 125.703,115.39 125.5,113.5 Z"/></g>
<g><path style="opacity:1" fill="#18300d" d="M 188.5,104.5 C 191.255,113.667 193.588,123.001 195.5,132.5C 195.631,133.239 195.464,133.906 195,134.5C 188.075,127.611 181.409,127.944 175,135.5C 173.783,137.52 173.617,139.52 174.5,141.5C 174.043,142.298 173.376,142.631 172.5,142.5C 169.442,139.052 167.442,135.052 166.5,130.5C 165.5,130.5 164.5,130.5 163.5,130.5C 163.271,135.01 163.938,139.343 165.5,143.5C 159.167,143.5 152.833,143.5 146.5,143.5C 154.192,135.313 162.692,127.98 172,121.5C 172.483,120.552 172.649,119.552 172.5,118.5C 173.117,118.611 173.617,118.944 174,119.5C 174.202,117.744 174.702,116.078 175.5,114.5C 177.332,113.752 178.999,112.752 180.5,111.5C 179.109,109.064 179.609,108.398 182,109.5C 182.483,108.552 182.649,107.552 182.5,106.5C 185.292,106.452 187.125,107.785 188,110.5C 188.495,108.527 188.662,106.527 188.5,104.5 Z"/></g>
<g><path style="opacity:1" fill="#7d9763" d="M 128.5,112.5 C 128.336,115.187 128.503,117.854 129,120.5C 132.053,123.887 134.72,127.553 137,131.5C 139.319,132.011 141.486,131.344 143.5,129.5C 143.306,131.912 141.973,132.912 139.5,132.5C 139.909,135.855 139.242,138.855 137.5,141.5C 135.861,139.194 133.861,137.194 131.5,135.5C 131.573,133.973 130.906,132.973 129.5,132.5C 128.657,128.127 127.657,123.793 126.5,119.5C 126.5,117.5 126.5,115.5 126.5,113.5C 126.343,112.127 126.51,110.793 127,109.5C 127.232,110.737 127.732,111.737 128.5,112.5 Z"/></g>
<g><path style="opacity:1" fill="#93af7d" d="M 238.5,112.5 C 238.658,115.902 238.324,119.236 237.5,122.5C 235.93,129.425 234.264,136.425 232.5,143.5C 228.5,143.5 224.5,143.5 220.5,143.5C 220.557,142.391 220.89,141.391 221.5,140.5C 222.997,134.848 224.33,129.182 225.5,123.5C 225.5,122.833 225.833,122.5 226.5,122.5C 226.351,123.552 226.517,124.552 227,125.5C 228.377,121.735 229.377,122.068 230,126.5C 231.717,123.8 232.717,121.134 233,118.5C 234.398,119.051 235.732,119.384 237,119.5C 237.186,116.964 237.686,114.631 238.5,112.5 Z"/></g>
<g><path style="opacity:1" fill="#427118" d="M 237.5,122.5 C 237.337,124.857 237.503,127.19 238,129.5C 239.44,126.334 241.94,124.667 245.5,124.5C 247.898,127.199 250.898,128.533 254.5,128.5C 254.833,128.5 255.167,128.5 255.5,128.5C 255.5,133.5 255.5,138.5 255.5,143.5C 247.833,143.5 240.167,143.5 232.5,143.5C 234.264,136.425 235.93,129.425 237.5,122.5 Z"/></g>
<g><path style="opacity:1" fill="#6c6392" d="M 33.5,128.5 C 34.7094,133 36.376,137.333 38.5,141.5C 38.5,142.167 38.5,142.833 38.5,143.5C 28.5,143.5 18.5,143.5 8.5,143.5C 8.5,142.5 8.5,141.5 8.5,140.5C 8.28099,139.325 8.61432,138.325 9.5,137.5C 12.0878,135.214 14.4212,132.714 16.5,130C 22.112,128.869 27.7787,128.369 33.5,128.5 Z"/></g>
<g><path style="opacity:1" fill="#a3bf80" d="M 163.5,107.5 C 165.074,110.907 166.074,114.573 166.5,118.5C 168.167,118.5 169.833,118.5 171.5,118.5C 168.695,119.319 165.695,119.819 162.5,120C 155.167,127.333 147.833,134.667 140.5,142C 139.251,142.74 138.251,142.573 137.5,141.5C 139.242,138.855 139.909,135.855 139.5,132.5C 141.973,132.912 143.306,131.912 143.5,129.5C 150.185,123.782 156.185,117.449 161.5,110.5C 163.048,110.179 163.715,109.179 163.5,107.5 Z"/></g>
<g><path style="opacity:1" fill="#52466a" d="M 18.5,113.5 C 18.335,116.85 18.5017,120.183 19,123.5C 27.041,127.887 31.3743,125.554 32,116.5C 32.3826,115.944 32.8826,115.611 33.5,115.5C 33.5987,118.237 33.2653,120.904 32.5,123.5C 32.366,125.292 32.6993,126.958 33.5,128.5C 27.7787,128.369 22.112,128.869 16.5,130C 14.4212,132.714 12.0878,135.214 9.5,137.5C 8.61432,138.325 8.28099,139.325 8.5,140.5C 7.35673,137.024 7.19007,133.358 8,129.5C 10.7191,128.556 13.5525,128.223 16.5,128.5C 16.6084,123.29 17.2751,118.29 18.5,113.5 Z"/></g>
<g><path style="opacity:1" fill="#6cab14" d="M 225.5,123.5 C 224.33,129.182 222.997,134.848 221.5,140.5C 219.478,138.469 217.811,136.135 216.5,133.5C 216.5,131.167 216.5,128.833 216.5,126.5C 217.833,126.5 219.167,126.5 220.5,126.5C 220.238,125.022 220.571,123.689 221.5,122.5C 222.728,124.176 224.061,124.509 225.5,123.5 Z"/></g>
<g><path style="opacity:1" fill="#526b37" d="M 171.5,116.5 C 172.338,116.842 172.672,117.508 172.5,118.5C 172.649,119.552 172.483,120.552 172,121.5C 162.692,127.98 154.192,135.313 146.5,143.5C 141.5,143.5 136.5,143.5 131.5,143.5C 131.5,140.833 131.5,138.167 131.5,135.5C 133.861,137.194 135.861,139.194 137.5,141.5C 138.251,142.573 139.251,142.74 140.5,142C 147.833,134.667 155.167,127.333 162.5,120C 165.695,119.819 168.695,119.319 171.5,118.5C 171.5,117.833 171.5,117.167 171.5,116.5 Z"/></g>
<g><path style="opacity:1" fill="#2b5312" d="M 227.5,106.5 C 227.819,111.363 227.486,116.03 226.5,120.5C 226.5,118.5 226.5,116.5 226.5,114.5C 221.542,112.061 216.209,110.394 210.5,109.5C 210.765,113.853 211.265,118.187 212,122.5C 214.709,125.754 216.209,129.421 216.5,133.5C 217.811,136.135 219.478,138.469 221.5,140.5C 220.89,141.391 220.557,142.391 220.5,143.5C 216.167,143.5 211.833,143.5 207.5,143.5C 204.175,140.515 202.175,136.848 201.5,132.5C 202.376,132.631 203.043,132.298 203.5,131.5C 200.713,125.987 202.213,124.987 208,128.5C 208.5,128.167 209,127.833 209.5,127.5C 207.833,125.5 206.167,123.5 204.5,121.5C 205,121.167 205.5,120.833 206,120.5C 207.3,121.707 208.8,122.374 210.5,122.5C 209.286,115.49 209.286,108.49 210.5,101.5C 212.06,101.519 213.56,101.852 215,102.5C 216.442,101.788 217.275,100.621 217.5,99C 216.057,96.9223 216.724,96.0889 219.5,96.5C 219.281,95.325 219.614,94.325 220.5,93.5C 221.931,93.9766 223.264,94.6433 224.5,95.5C 226.001,99.0942 227.001,102.761 227.5,106.5 Z"/></g>
<g><path style="opacity:1" fill="#254715" d="M 195.5,132.5 C 197.601,135.797 198.935,139.463 199.5,143.5C 190.5,143.5 181.5,143.5 172.5,143.5C 172.5,143.167 172.5,142.833 172.5,142.5C 173.376,142.631 174.043,142.298 174.5,141.5C 173.617,139.52 173.783,137.52 175,135.5C 181.409,127.944 188.075,127.611 195,134.5C 195.464,133.906 195.631,133.239 195.5,132.5 Z"/></g>
<g><path style="opacity:1" fill="#44751f" d="M 126.5,119.5 C 127.657,123.793 128.657,128.127 129.5,132.5C 126.6,132.28 123.933,132.946 121.5,134.5C 120.63,136.526 119.13,137.859 117,138.5C 116.648,140.247 116.148,141.914 115.5,143.5C 112.167,143.5 108.833,143.5 105.5,143.5C 105.318,141.409 105.652,139.409 106.5,137.5C 109.107,136.682 111.774,136.182 114.5,136C 117.06,133.029 119.727,130.196 122.5,127.5C 123.213,125.224 123.713,122.891 124,120.5C 124.671,119.748 125.504,119.414 126.5,119.5 Z"/></g>
<g><path style="opacity:1" fill="#949198" d="M 83.5,108.5 C 84.404,109.209 84.7373,110.209 84.5,111.5C 85.1667,116.167 85.8333,120.833 86.5,125.5C 88.1481,131.426 89.4814,137.426 90.5,143.5C 86.8333,143.5 83.1667,143.5 79.5,143.5C 77.7918,137.394 76.1251,131.394 74.5,125.5C 74.5,124.5 74.5,123.5 74.5,122.5C 75.2373,124.382 76.4039,125.048 78,124.5C 77.18,127.993 78.68,129.16 82.5,128C 82.1667,127.667 81.8333,127.333 81.5,127C 83.3684,126.101 84.3684,124.601 84.5,122.5C 83.6149,117.878 83.2816,113.211 83.5,108.5 Z"/></g>
<g><path style="opacity:1" fill="#7bba11" d="M 172.5,142.5 C 172.5,142.833 172.5,143.167 172.5,143.5C 170.167,143.5 167.833,143.5 165.5,143.5C 163.938,139.343 163.271,135.01 163.5,130.5C 164.5,130.5 165.5,130.5 166.5,130.5C 167.442,135.052 169.442,139.052 172.5,142.5 Z"/></g>
<g><path style="opacity:1" fill="#85ba1c" d="M 129.5,132.5 C 130.906,132.973 131.573,133.973 131.5,135.5C 131.5,138.167 131.5,140.833 131.5,143.5C 126.167,143.5 120.833,143.5 115.5,143.5C 116.148,141.914 116.648,140.247 117,138.5C 119.13,137.859 120.63,136.526 121.5,134.5C 123.933,132.946 126.6,132.28 129.5,132.5 Z"/></g>
</svg>
