<?xml version="1.0" encoding="UTF-8"?>
<!DOCTYPE svg PUBLIC "-//W3C//DTD SVG 1.1//EN" "http://www.w3.org/Graphics/SVG/1.1/DTD/svg11.dtd">
<svg xmlns="http://www.w3.org/2000/svg" version="1.1" width="256px" height="144px" style="shape-rendering:geometricPrecision; text-rendering:geometricPrecision; image-rendering:optimizeQuality; fill-rule:evenodd; clip-rule:evenodd" xmlns:xlink="http://www.w3.org/1999/xlink">
<g><path style="opacity:1" fill="#251201" d="M -0.5,-0.5 C 13.1667,-0.5 26.8333,-0.5 40.5,-0.5C 40.9175,0.221579 41.5842,0.721579 42.5,1C 40.5273,1.49546 38.5273,1.66212 36.5,1.5C 29.825,1.33375 23.1583,1.50042 16.5,2C 14.2953,4.54018 11.7953,6.70685 9,8.5C 8.53042,9.57683 8.69708,10.5768 9.5,11.5C 8.90326,11.7352 8.56993,12.2352 8.5,13C 9.12709,15.1351 9.62709,17.3018 10,19.5C 12.0136,21.845 14.347,23.845 17,25.5C 17.4643,26.0944 17.631,26.7611 17.5,27.5C 11.4093,27.7886 5.40926,27.4553 -0.5,26.5C -0.5,17.5 -0.5,8.5 -0.5,-0.5 Z"/></g>
<g><path style="opacity:1" fill="#6f502b" d="M 44.5,-0.5 C 52.8333,-0.5 61.1667,-0.5 69.5,-0.5C 67,2.83248 64,5.66581 60.5,8C 62.9313,8.25208 65.2646,7.75208 67.5,6.5C 69.8429,4.65575 72.0096,2.65575 74,0.5C 73.6017,2.63128 72.6017,4.63128 71,6.5C 69.9887,7.33663 68.8221,7.66997 67.5,7.5C 67.7036,9.68545 68.3702,11.6854 69.5,13.5C 66.3232,12.5527 63.3232,11.2193 60.5,9.5C 58.8888,10.3202 58.2222,11.6536 58.5,13.5C 57.5,13.5 56.5,13.5 55.5,13.5C 51.8333,8.83333 48.1667,4.16667 44.5,-0.5 Z"/></g>
<g><path style="opacity:1" fill="#806034" d="M 69.5,-0.5 C 73.8333,-0.5 78.1667,-0.5 82.5,-0.5C 81.1854,1.13471 81.1854,2.80137 82.5,4.5C 81.7515,6.33246 80.7515,7.99913 79.5,9.5C 80.0402,10.7481 80.7069,11.9148 81.5,13C 79.6874,12.9536 78.0207,13.1203 76.5,13.5C 79.2624,15.5956 81.2624,18.2623 82.5,21.5C 80.9382,21.2671 79.6049,20.6005 78.5,19.5C 75.1858,17.8572 72.1858,15.8572 69.5,13.5C 68.3702,11.6854 67.7036,9.68545 67.5,7.5C 68.8221,7.66997 69.9887,7.33663 71,6.5C 72.6017,4.63128 73.6017,2.63128 74,0.5C 72.0096,2.65575 69.8429,4.65575 67.5,6.5C 65.2646,7.75208 62.9313,8.25208 60.5,8C 64,5.66581 67,2.83248 69.5,-0.5 Z"/></g>
<g><path style="opacity:1" fill="#0f0200" d="M 168.5,-0.5 C 172.5,-0.5 176.5,-0.5 180.5,-0.5C 184.311,5.60453 189.644,10.1045 196.5,13C 201.174,16.3404 205.174,20.3404 208.5,25C 209.833,25.6667 211.167,26.3333 212.5,27C 222.989,39.0627 230.489,52.896 235,68.5C 235.5,69.6667 236.333,70.5 237.5,71C 235.423,72.705 233.09,73.8717 230.5,74.5C 228.784,74.6287 227.117,74.962 225.5,75.5C 219.916,48.5906 204.916,28.924 180.5,16.5C 177.291,12.1265 173.291,8.62653 168.5,6C 167.395,3.87974 167.395,1.71307 168.5,-0.5 Z"/></g>
<g><path style="opacity:1" fill="#020100" d="M 180.5,-0.5 C 205.5,-0.5 230.5,-0.5 255.5,-0.5C 255.5,11.1667 255.5,22.8333 255.5,34.5C 251.037,34.4231 246.704,35.0898 242.5,36.5C 239.018,38.7476 235.684,41.2476 232.5,44C 236.575,48.5649 241.575,51.7315 247.5,53.5C 248.552,53.3505 249.552,53.5172 250.5,54C 251.833,56.1906 253.5,58.024 255.5,59.5C 255.5,73.1667 255.5,86.8333 255.5,100.5C 250.806,104.527 246.473,108.86 242.5,113.5C 236.179,115.843 229.846,117.843 223.5,119.5C 218.14,120.36 213.14,122.027 208.5,124.5C 204.763,124.255 201.097,123.589 197.5,122.5C 194.822,123.175 192.156,123.842 189.5,124.5C 185.5,122.167 181.5,119.833 177.5,117.5C 177.611,116.883 177.944,116.383 178.5,116C 185.881,115.672 193.214,116.172 200.5,117.5C 201.946,118.613 203.613,118.78 205.5,118C 206.329,116.184 207.163,114.351 208,112.5C 208.567,118.985 210.233,119.651 213,114.5C 213.762,106.785 213.429,99.1188 212,91.5C 209.418,89.7722 207.918,87.4389 207.5,84.5C 215.693,82.3265 223.359,78.9932 230.5,74.5C 233.09,73.8717 235.423,72.705 237.5,71C 236.333,70.5 235.5,69.6667 235,68.5C 230.489,52.896 222.989,39.0627 212.5,27C 211.167,26.3333 209.833,25.6667 208.5,25C 205.174,20.3404 201.174,16.3404 196.5,13C 189.644,10.1045 184.311,5.60453 180.5,-0.5 Z"/></g>
<g><path style="opacity:1" fill="#b59849" d="M 115.5,-0.5 C 120.833,-0.5 126.167,-0.5 131.5,-0.5C 131.67,0.822066 131.337,1.98873 130.5,3C 130.922,7.32404 131.922,11.4907 133.5,15.5C 130.031,17.833 129.697,20.4996 132.5,23.5C 130.453,23.4889 128.453,23.1556 126.5,22.5C 124.971,22.5288 123.804,23.1955 123,24.5C 121.957,22.2994 121.123,19.9661 120.5,17.5C 115.674,15.5542 114.674,12.5542 117.5,8.5C 116.5,8.5 115.5,8.5 114.5,8.5C 114.704,5.48237 115.037,2.48237 115.5,-0.5 Z"/></g>
<g><path style="opacity:1" fill="#c5a14f" d="M 95.5,-0.5 C 99.1667,-0.5 102.833,-0.5 106.5,-0.5C 107.04,2.86469 107.706,6.19802 108.5,9.5C 104.577,8.54751 101.91,6.21418 100.5,2.5C 99.914,2.70931 99.414,3.04265 99,3.5C 98.5045,5.4727 98.3379,7.4727 98.5,9.5C 96.8333,9.5 95.1667,9.5 93.5,9.5C 94.1667,6.16682 92.8333,4.16682 89.5,3.5C 88.6143,2.67504 88.281,1.67504 88.5,0.5C 91.0593,0.801552 93.3926,0.468218 95.5,-0.5 Z"/></g>
<g><path style="opacity:1" fill="#988e83" d="M 147.5,-0.5 C 148.167,-0.5 148.833,-0.5 149.5,-0.5C 150.021,3.48086 150.354,7.48086 150.5,11.5C 149.542,11.0472 148.708,10.3805 148,9.5C 147.502,6.18323 147.335,2.8499 147.5,-0.5 Z"/></g>
<g><path style="opacity:1" fill="#503b21" d="M 40.5,5.5 C 46.163,10.33 51.3296,15.6633 56,21.5C 55.8567,22.8649 55.3567,24.1982 54.5,25.5C 53.596,24.791 53.2627,23.791 53.5,22.5C 50.3241,22.3298 48.3241,20.6631 47.5,17.5C 43.2332,16.2045 39.8999,13.7045 37.5,10C 35.1902,9.50335 32.8568,9.33669 30.5,9.5C 30.5,10.5 30.5,11.5 30.5,12.5C 27.4485,12.4538 24.7819,13.4538 22.5,15.5C 21.7084,16.6998 21.7084,18.0331 22.5,19.5C 21.5,19.1667 20.8333,18.5 20.5,17.5C 18.8872,16.1619 18.3872,14.4952 19,12.5C 21.9431,10.6248 25.1098,9.12485 28.5,8C 28.1667,7.66667 27.8333,7.33333 27.5,7C 31.5954,4.5402 35.9287,4.0402 40.5,5.5 Z"/></g>
<g><path style="opacity:1" fill="#1f0e01" d="M 161.5,-0.5 C 163.833,-0.5 166.167,-0.5 168.5,-0.5C 167.395,1.71307 167.395,3.87974 168.5,6C 173.291,8.62653 177.291,12.1265 180.5,16.5C 204.916,28.924 219.916,48.5906 225.5,75.5C 221.825,77.7629 217.825,79.4295 213.5,80.5C 213.03,75.5391 211.363,71.0391 208.5,67C 208.833,66.6667 209.167,66.3333 209.5,66C 207.198,61.2216 204.532,56.7216 201.5,52.5C 201.768,50.901 201.434,49.5676 200.5,48.5C 201.192,40.5343 197.859,35.201 190.5,32.5C 187.667,30.6553 184.667,28.9886 181.5,27.5C 177.574,17.7078 171.074,9.70784 162,3.5C 161.51,2.20677 161.343,0.873441 161.5,-0.5 Z"/></g>
<g><path style="opacity:1" fill="#3f311c" d="M 36.5,1.5 C 37.8333,2.83333 39.1667,4.16667 40.5,5.5C 35.9287,4.0402 31.5954,4.5402 27.5,7C 27.8333,7.33333 28.1667,7.66667 28.5,8C 25.1098,9.12485 21.9431,10.6248 19,12.5C 18.3872,14.4952 18.8872,16.1619 20.5,17.5C 16.8503,15.5283 13.1836,13.5283 9.5,11.5C 8.69708,10.5768 8.53042,9.57683 9,8.5C 11.7953,6.70685 14.2953,4.54018 16.5,2C 23.1583,1.50042 29.825,1.33375 36.5,1.5 Z"/></g>
<g><path style="opacity:1" fill="#dab75e" d="M 108.5,9.5 C 109.885,10.6138 111.385,11.6138 113,12.5C 113.696,18.1036 115.196,23.4369 117.5,28.5C 117.785,30.288 117.452,31.9547 116.5,33.5C 113.691,31.3774 110.691,30.7107 107.5,31.5C 102.583,25.3355 97.7499,19.0022 93,12.5C 92.5304,11.4232 92.6971,10.4232 93.5,9.5C 95.1667,9.5 96.8333,9.5 98.5,9.5C 98.3379,7.4727 98.5045,5.4727 99,3.5C 99.414,3.04265 99.914,2.70931 100.5,2.5C 101.91,6.21418 104.577,8.54751 108.5,9.5 Z"/></g>
<g><path style="opacity:1" fill="#c59853" d="M 141.5,-0.5 C 143.167,-0.5 144.833,-0.5 146.5,-0.5C 146.501,7.51728 146.834,15.5173 147.5,23.5C 146.094,23.0269 145.427,22.0269 145.5,20.5C 144.164,13.4729 142.831,6.47293 141.5,-0.5 Z"/></g>
<g><path style="opacity:1" fill="#b0aeae" d="M 149.5,-0.5 C 151.5,-0.5 153.5,-0.5 155.5,-0.5C 157.549,11.2314 158.549,11.2314 158.5,-0.5C 158.833,-0.5 159.167,-0.5 159.5,-0.5C 159.744,6.69981 159.41,13.8665 158.5,21C 159.752,25.7593 160.419,30.5927 160.5,35.5C 158.403,30.0399 156.57,24.3732 155,18.5C 155.374,25.9541 156.541,33.2874 158.5,40.5C 159.643,43.5023 159.643,46.5023 158.5,49.5C 157.609,44.2622 156.276,39.2622 154.5,34.5C 153.572,26.7289 152.239,19.0622 150.5,11.5C 150.354,7.48086 150.021,3.48086 149.5,-0.5 Z"/></g>
<g><path style="opacity:1" fill="#836039" d="M 155.5,-0.5 C 156.5,-0.5 157.5,-0.5 158.5,-0.5C 158.549,11.2314 157.549,11.2314 155.5,-0.5 Z"/></g>
<g><path style="opacity:1" fill="#a88342" d="M 82.5,-0.5 C 86.8333,-0.5 91.1667,-0.5 95.5,-0.5C 93.3926,0.468218 91.0593,0.801552 88.5,0.5C 88.281,1.67504 88.6143,2.67504 89.5,3.5C 92.8333,4.16682 94.1667,6.16682 93.5,9.5C 90.7938,9.4249 88.1272,9.09157 85.5,8.5C 85.278,11.3903 85.9447,14.057 87.5,16.5C 86.7261,17.7112 85.8928,17.7112 85,16.5C 84.0182,19.7747 84.8515,22.4414 87.5,24.5C 85.5659,23.8897 83.8993,22.8897 82.5,21.5C 81.2624,18.2623 79.2624,15.5956 76.5,13.5C 78.0207,13.1203 79.6874,12.9536 81.5,13C 80.7069,11.9148 80.0402,10.7481 79.5,9.5C 80.7515,7.99913 81.7515,6.33246 82.5,4.5C 81.1854,2.80137 81.1854,1.13471 82.5,-0.5 Z"/></g>
<g><path style="opacity:1" fill="#372714" d="M 69.5,13.5 C 72.1858,15.8572 75.1858,17.8572 78.5,19.5C 79.1112,21.7746 80.4446,23.4412 82.5,24.5C 81.1667,24.5 79.8333,24.5 78.5,24.5C 72.239,20.7568 66.0723,16.7568 60,12.5C 59.7679,17.1776 61.9346,20.3442 66.5,22C 65.9535,22.9246 65.2868,23.7579 64.5,24.5C 61.2526,20.9864 58.2526,17.3197 55.5,13.5C 56.5,13.5 57.5,13.5 58.5,13.5C 58.2222,11.6536 58.8888,10.3202 60.5,9.5C 63.3232,11.2193 66.3232,12.5527 69.5,13.5 Z"/></g>
<g><path style="opacity:1" fill="#d9ac53" d="M 131.5,-0.5 C 134.833,-0.5 138.167,-0.5 141.5,-0.5C 142.831,6.47293 144.164,13.4729 145.5,20.5C 142.286,19.7921 139.119,19.4588 136,19.5C 135.015,21.1749 134.181,22.8415 133.5,24.5C 133.5,23.8333 133.167,23.5 132.5,23.5C 129.697,20.4996 130.031,17.833 133.5,15.5C 131.922,11.4907 130.922,7.32404 130.5,3C 131.337,1.98873 131.67,0.822066 131.5,-0.5 Z"/></g>
<g><path style="opacity:1" fill="#8a6537" d="M 40.5,17.5 C 39.7611,17.369 39.0944,17.5357 38.5,18C 39.6765,19.6743 41.0098,21.1743 42.5,22.5C 40.7123,24.5765 39.0456,26.7432 37.5,29C 39.7047,31.5402 42.2047,33.7068 45,35.5C 45.7914,36.745 46.2914,38.0783 46.5,39.5C 43.2157,37.883 40.5491,35.5497 38.5,32.5C 36.9867,30.4839 36.1534,28.1506 36,25.5C 33.3313,23.6596 30.8313,21.6596 28.5,19.5C 29.1322,17.0353 30.6322,15.3686 33,14.5C 33.7904,16.7898 35.1237,17.1231 37,15.5C 38.4595,15.8082 39.6261,16.4749 40.5,17.5 Z"/></g>
<g><path style="opacity:1" fill="#0e0904" d="M 40.5,-0.5 C 41.8333,-0.5 43.1667,-0.5 44.5,-0.5C 48.1667,4.16667 51.8333,8.83333 55.5,13.5C 58.2526,17.3197 61.2526,20.9864 64.5,24.5C 65.2868,23.7579 65.9535,22.9246 66.5,22C 61.9346,20.3442 59.7679,17.1776 60,12.5C 66.0723,16.7568 72.239,20.7568 78.5,24.5C 78.5,25.5 78.5,26.5 78.5,27.5C 77.1667,28.1667 76.1667,29.1667 75.5,30.5C 74.8333,31.5 74.1667,32.5 73.5,33.5C 71.6675,34.2485 70.0009,35.2485 68.5,36.5C 66.7446,35.9278 65.0779,35.0945 63.5,34C 60.6306,30.9621 57.6306,28.1288 54.5,25.5C 55.3567,24.1982 55.8567,22.8649 56,21.5C 51.3296,15.6633 46.163,10.33 40.5,5.5C 39.1667,4.16667 37.8333,2.83333 36.5,1.5C 38.5273,1.66212 40.5273,1.49546 42.5,1C 41.5842,0.721579 40.9175,0.221579 40.5,-0.5 Z"/></g>
<g><path style="opacity:1" fill="#c59f4f" d="M 93.5,9.5 C 92.6971,10.4232 92.5304,11.4232 93,12.5C 97.7499,19.0022 102.583,25.3355 107.5,31.5C 107.5,33.1667 107.5,34.8333 107.5,36.5C 106.833,36.1667 106.167,35.8333 105.5,35.5C 105.44,34.9569 105.107,34.6236 104.5,34.5C 103.686,36.7662 103.186,39.0995 103,41.5C 102.653,43.1802 101.653,44.1802 100,44.5C 98.2103,40.6083 96.0436,36.9416 93.5,33.5C 92.2546,30.0127 90.2546,27.0127 87.5,24.5C 84.8515,22.4414 84.0182,19.7747 85,16.5C 85.8928,17.7112 86.7261,17.7112 87.5,16.5C 85.9447,14.057 85.278,11.3903 85.5,8.5C 88.1272,9.09157 90.7938,9.4249 93.5,9.5 Z"/></g>
<g><path style="opacity:1" fill="#b2b7c0" d="M 159.5,-0.5 C 159.833,-0.5 160.167,-0.5 160.5,-0.5C 160.198,3.79048 160.864,7.79048 162.5,11.5C 165.025,18.88 168.859,25.5467 174,31.5C 174.227,38.7436 172.894,45.7436 170,52.5C 169.503,55.146 169.336,57.8127 169.5,60.5C 168.034,61.347 167.2,62.6803 167,64.5C 166.892,60.5349 166.059,56.8683 164.5,53.5C 162.96,47.5463 161.627,41.5463 160.5,35.5C 160.419,30.5927 159.752,25.7593 158.5,21C 159.41,13.8665 159.744,6.69981 159.5,-0.5 Z"/></g>
<g><path style="opacity:1" fill="#6a4e2c" d="M 54.5,25.5 C 57.6306,28.1288 60.6306,30.9621 63.5,34C 65.0779,35.0945 66.7446,35.9278 68.5,36.5C 67.4863,37.6737 66.153,38.3404 64.5,38.5C 62.7105,37.1228 60.7105,36.1228 58.5,35.5C 52.7792,29.1125 46.7792,23.1125 40.5,17.5C 39.6261,16.4749 38.4595,15.8082 37,15.5C 35.1237,17.1231 33.7904,16.7898 33,14.5C 30.6322,15.3686 29.1322,17.0353 28.5,19.5C 30.8313,21.6596 33.3313,23.6596 36,25.5C 36.1534,28.1506 36.9867,30.4839 38.5,32.5C 32.5813,28.9174 27.248,24.5841 22.5,19.5C 21.7084,18.0331 21.7084,16.6998 22.5,15.5C 24.7819,13.4538 27.4485,12.4538 30.5,12.5C 30.5,11.5 30.5,10.5 30.5,9.5C 32.8568,9.33669 35.1902,9.50335 37.5,10C 39.8999,13.7045 43.2332,16.2045 47.5,17.5C 48.3241,20.6631 50.3241,22.3298 53.5,22.5C 53.2627,23.791 53.596,24.791 54.5,25.5 Z"/></g>
<g><path style="opacity:1" fill="#827c7b" d="M 160.5,-0.5 C 160.833,-0.5 161.167,-0.5 161.5,-0.5C 161.343,0.873441 161.51,2.20677 162,3.5C 171.074,9.70784 177.574,17.7078 181.5,27.5C 181.666,32.5111 181.499,37.5111 181,42.5C 180.825,46.7661 179.825,50.7661 178,54.5C 177.13,53.8921 176.63,53.0588 176.5,52C 179.623,42.9754 180.457,33.8088 179,24.5C 174.21,18.0408 169.043,11.8741 163.5,6C 162.833,5.33333 162.167,5.33333 161.5,6C 162.406,7.69946 162.739,9.5328 162.5,11.5C 160.864,7.79048 160.198,3.79048 160.5,-0.5 Z"/></g>
<g><path style="opacity:1" fill="#a18641" d="M 106.5,-0.5 C 109.5,-0.5 112.5,-0.5 115.5,-0.5C 115.037,2.48237 114.704,5.48237 114.5,8.5C 115.5,8.5 116.5,8.5 117.5,8.5C 114.674,12.5542 115.674,15.5542 120.5,17.5C 121.123,19.9661 121.957,22.2994 123,24.5C 123.804,23.1955 124.971,22.5288 126.5,22.5C 128.453,23.1556 130.453,23.4889 132.5,23.5C 133.167,23.5 133.5,23.8333 133.5,24.5C 132.275,29.5086 132.275,34.5086 133.5,39.5C 132.833,39.5 132.167,39.5 131.5,39.5C 130.252,37.3509 128.752,35.3509 127,33.5C 125.333,34.8333 123.667,34.8333 122,33.5C 121.57,36.1922 121.737,38.8589 122.5,41.5C 122.5,42.1667 122.5,42.8333 122.5,43.5C 121.833,42.8333 121.167,42.1667 120.5,41.5C 120.373,36.8485 119.373,32.5152 117.5,28.5C 115.196,23.4369 113.696,18.1036 113,12.5C 111.385,11.6138 109.885,10.6138 108.5,9.5C 107.706,6.19802 107.04,2.86469 106.5,-0.5 Z"/></g>
<g><path style="opacity:1" fill="#96703b" d="M 146.5,-0.5 C 146.833,-0.5 147.167,-0.5 147.5,-0.5C 147.335,2.8499 147.502,6.18323 148,9.5C 148.708,10.3805 149.542,11.0472 150.5,11.5C 152.239,19.0622 153.572,26.7289 154.5,34.5C 154.158,35.3382 153.492,35.6716 152.5,35.5C 152.167,34.5 151.5,33.8333 150.5,33.5C 150.076,29.9882 149.076,26.6548 147.5,23.5C 146.834,15.5173 146.501,7.51728 146.5,-0.5 Z"/></g>
<g><path style="opacity:1" fill="#a4783e" d="M 40.5,17.5 C 46.7792,23.1125 52.7792,29.1125 58.5,35.5C 58.3024,38.381 56.8024,40.381 54,41.5C 51.6813,40.1287 49.1813,39.4621 46.5,39.5C 46.2914,38.0783 45.7914,36.745 45,35.5C 42.2047,33.7068 39.7047,31.5402 37.5,29C 39.0456,26.7432 40.7123,24.5765 42.5,22.5C 41.0098,21.1743 39.6765,19.6743 38.5,18C 39.0944,17.5357 39.7611,17.369 40.5,17.5 Z"/></g>
<g><path style="opacity:1" fill="#583c1d" d="M 78.5,19.5 C 79.6049,20.6005 80.9382,21.2671 82.5,21.5C 83.8993,22.8897 85.5659,23.8897 87.5,24.5C 90.2546,27.0127 92.2546,30.0127 93.5,33.5C 93.5,34.1667 93.5,34.8333 93.5,35.5C 89.4729,32.1396 85.8062,28.4729 82.5,24.5C 80.4446,23.4412 79.1112,21.7746 78.5,19.5 Z"/></g>
<g><path style="opacity:1" fill="#c3ad57" d="M 145.5,20.5 C 145.427,22.0269 146.094,23.0269 147.5,23.5C 149.076,26.6548 150.076,29.9882 150.5,33.5C 148.032,34.8199 146.532,36.8199 146,39.5C 143.88,36.6139 141.713,36.2806 139.5,38.5C 137.604,39.4656 135.604,39.7989 133.5,39.5C 132.275,34.5086 132.275,29.5086 133.5,24.5C 134.181,22.8415 135.015,21.1749 136,19.5C 139.119,19.4588 142.286,19.7921 145.5,20.5 Z"/></g>
<g><path style="opacity:1" fill="#573f23" d="M -0.5,26.5 C 5.40926,27.4553 11.4093,27.7886 17.5,27.5C 27.3685,32.2626 36.3685,38.2626 44.5,45.5C 39.0459,46.3442 34.7126,44.6775 31.5,40.5C 30.2713,39.7189 28.938,39.2189 27.5,39C 25.2419,35.5473 22.2419,33.0473 18.5,31.5C 15.7225,32.0545 14.0558,33.7212 13.5,36.5C 13.1667,36.5 12.8333,36.5 12.5,36.5C 8.79617,31.013 4.46283,30.013 -0.5,33.5C -0.5,31.1667 -0.5,28.8333 -0.5,26.5 Z"/></g>
<g><path style="opacity:1" fill="#1b1209" d="M 9.5,11.5 C 13.1836,13.5283 16.8503,15.5283 20.5,17.5C 20.8333,18.5 21.5,19.1667 22.5,19.5C 27.248,24.5841 32.5813,28.9174 38.5,32.5C 40.5491,35.5497 43.2157,37.883 46.5,39.5C 47.7158,41.4509 49.3825,42.9509 51.5,44C 49.9751,45.0086 48.3084,45.5086 46.5,45.5C 45.8333,45.5 45.1667,45.5 44.5,45.5C 36.3685,38.2626 27.3685,32.2626 17.5,27.5C 17.631,26.7611 17.4643,26.0944 17,25.5C 14.347,23.845 12.0136,21.845 10,19.5C 9.62709,17.3018 9.12709,15.1351 8.5,13C 8.56993,12.2352 8.90326,11.7352 9.5,11.5 Z"/></g>
<g><path style="opacity:1" fill="#89693e" d="M 160.5,35.5 C 161.627,41.5463 162.96,47.5463 164.5,53.5C 164.631,54.2389 164.464,54.9056 164,55.5C 162.615,54.4495 161.615,53.1161 161,51.5C 160.667,48.1667 160.333,44.8333 160,41.5C 159.617,40.944 159.117,40.6107 158.5,40.5C 156.541,33.2874 155.374,25.9541 155,18.5C 156.57,24.3732 158.403,30.0399 160.5,35.5 Z"/></g>
<g><path style="opacity:1" fill="#645435" d="M 12.5,36.5 C 10.7515,39.375 8.08481,40.7083 4.5,40.5C 4.38377,43.9103 6.05044,45.2436 9.5,44.5C 9.62867,46.2161 9.962,47.8828 10.5,49.5C 6.98101,46.5793 3.31435,43.9127 -0.5,41.5C -0.5,38.8333 -0.5,36.1667 -0.5,33.5C 4.46283,30.013 8.79617,31.013 12.5,36.5 Z"/></g>
<g><path style="opacity:1" fill="#373423" d="M 78.5,24.5 C 79.8333,24.5 81.1667,24.5 82.5,24.5C 85.8062,28.4729 89.4729,32.1396 93.5,35.5C 95.7385,40.2533 96.0719,45.2533 94.5,50.5C 93.8826,50.6107 93.3826,50.944 93,51.5C 92.51,50.2068 92.3433,48.8734 92.5,47.5C 91.5,47.5 90.5,47.5 89.5,47.5C 89.5793,44.7294 89.0793,42.0627 88,39.5C 84.5956,35.6061 81.4289,31.6061 78.5,27.5C 78.5,26.5 78.5,25.5 78.5,24.5 Z"/></g>
<g><path style="opacity:1" fill="#708749" d="M 131.5,39.5 C 131.5,39.8333 131.5,40.1667 131.5,40.5C 129.171,41.7489 127.338,41.0823 126,38.5C 124.961,39.7101 123.794,40.7101 122.5,41.5C 121.737,38.8589 121.57,36.1922 122,33.5C 123.667,34.8333 125.333,34.8333 127,33.5C 128.752,35.3509 130.252,37.3509 131.5,39.5 Z"/></g>
<g><path style="opacity:1" fill="#3d2b14" d="M 242.5,36.5 C 242.5,36.8333 242.5,37.1667 242.5,37.5C 244.286,40.6412 243.786,43.3079 241,45.5C 240.333,46.8333 240.333,48.1667 241,49.5C 243.617,50.2193 245.784,51.5526 247.5,53.5C 241.575,51.7315 236.575,48.5649 232.5,44C 235.684,41.2476 239.018,38.7476 242.5,36.5 Z"/></g>
<g><path style="opacity:1" fill="#ae8344" d="M 73.5,33.5 C 75.4352,34.1495 77.4352,34.4828 79.5,34.5C 79.523,36.9267 80.023,39.26 81,41.5C 83.5962,43.3408 85.0962,45.5074 85.5,48C 84.5697,49.3953 84.5697,50.8953 85.5,52.5C 83.4448,55.6832 81.7781,59.0165 80.5,62.5C 79.0346,65.6555 79.7013,68.4888 82.5,71C 81.9056,71.4643 81.2389,71.631 80.5,71.5C 77.9959,70.4161 75.6626,69.0828 73.5,67.5C 73.2914,66.0783 72.7914,64.745 72,63.5C 66.7437,59.9546 62.2437,55.6213 58.5,50.5C 57.5804,48.2143 57.5804,45.8809 58.5,43.5C 57.448,43.6495 56.448,43.4828 55.5,43C 58.8402,41.9967 61.8402,40.4967 64.5,38.5C 66.153,38.3404 67.4863,37.6737 68.5,36.5C 70.0009,35.2485 71.6675,34.2485 73.5,33.5 Z"/></g>
<g><path style="opacity:1" fill="#958e8a" d="M 255.5,34.5 C 255.5,37.8333 255.5,41.1667 255.5,44.5C 250.428,43.4027 246.094,41.0693 242.5,37.5C 242.5,37.1667 242.5,36.8333 242.5,36.5C 246.704,35.0898 251.037,34.4231 255.5,34.5 Z"/></g>
<g><path style="opacity:1" fill="#7d6239" d="M 12.5,36.5 C 12.8333,36.5 13.1667,36.5 13.5,36.5C 14.5,37.1667 15.5,37.8333 16.5,38.5C 15.1066,43.3072 14.4399,48.3072 14.5,53.5C 12.8333,52.5 11.5,51.1667 10.5,49.5C 9.962,47.8828 9.62867,46.2161 9.5,44.5C 6.05044,45.2436 4.38377,43.9103 4.5,40.5C 8.08481,40.7083 10.7515,39.375 12.5,36.5 Z"/></g>
<g><path style="opacity:1" fill="#916c38" d="M 58.5,35.5 C 60.7105,36.1228 62.7105,37.1228 64.5,38.5C 61.8402,40.4967 58.8402,41.9967 55.5,43C 56.448,43.4828 57.448,43.6495 58.5,43.5C 57.5804,45.8809 57.5804,48.2143 58.5,50.5C 62.2437,55.6213 66.7437,59.9546 72,63.5C 72.7914,64.745 73.2914,66.0783 73.5,67.5C 68.2209,65.1885 63.2209,62.5218 58.5,59.5C 57.6793,54.7172 57.0126,49.7172 56.5,44.5C 54.1743,45.1511 51.8409,45.8178 49.5,46.5C 48.2739,46.4805 47.2739,46.1471 46.5,45.5C 48.3084,45.5086 49.9751,45.0086 51.5,44C 49.3825,42.9509 47.7158,41.4509 46.5,39.5C 49.1813,39.4621 51.6813,40.1287 54,41.5C 56.8024,40.381 58.3024,38.381 58.5,35.5 Z"/></g>
<g><path style="opacity:1" fill="#573d1f" d="M 242.5,37.5 C 246.094,41.0693 250.428,43.4027 255.5,44.5C 255.5,49.5 255.5,54.5 255.5,59.5C 253.5,58.024 251.833,56.1906 250.5,54C 249.552,53.5172 248.552,53.3505 247.5,53.5C 245.784,51.5526 243.617,50.2193 241,49.5C 240.333,48.1667 240.333,46.8333 241,45.5C 243.786,43.3079 244.286,40.6412 242.5,37.5 Z"/></g>
<g><path style="opacity:1" fill="#579159" d="M 131.5,40.5 C 132.167,40.5 132.5,40.8333 132.5,41.5C 130.863,46.0959 131.197,50.4292 133.5,54.5C 131.844,53.8535 130.177,53.1869 128.5,52.5C 126.094,52.8101 126.094,53.4768 128.5,54.5C 128.833,55.8333 129.167,57.1667 129.5,58.5C 127.402,57.0857 126.402,57.7524 126.5,60.5C 125.571,59.0639 124.405,57.7305 123,56.5C 122.501,52.1794 122.334,47.8461 122.5,43.5C 122.5,42.8333 122.5,42.1667 122.5,41.5C 123.794,40.7101 124.961,39.7101 126,38.5C 127.338,41.0823 129.171,41.7489 131.5,40.5 Z"/></g>
<g><path style="opacity:1" fill="#9a7342" d="M 75.5,30.5 C 78.1955,30.933 80.3621,32.2663 82,34.5C 84.4226,37.2489 86.4226,40.2489 88,43.5C 88.8298,51.1702 86.3298,57.5035 80.5,62.5C 81.7781,59.0165 83.4448,55.6832 85.5,52.5C 84.5697,50.8953 84.5697,49.3953 85.5,48C 85.0962,45.5074 83.5962,43.3408 81,41.5C 80.023,39.26 79.523,36.9267 79.5,34.5C 77.4352,34.4828 75.4352,34.1495 73.5,33.5C 74.1667,32.5 74.8333,31.5 75.5,30.5 Z"/></g>
<g><path style="opacity:1" fill="#947642" d="M 105.5,35.5 C 106.167,35.8333 106.833,36.1667 107.5,36.5C 107.875,38.6976 108.542,40.6976 109.5,42.5C 109.5,43.5 109.5,44.5 109.5,45.5C 108.861,46.0968 108.528,46.9302 108.5,48C 110.903,54.5532 111.903,61.3865 111.5,68.5C 111.158,69.3382 110.492,69.6716 109.5,69.5C 109.158,68.6618 108.492,68.3284 107.5,68.5C 107.184,61.812 106.184,55.312 104.5,49C 105.153,44.3418 105.486,39.8418 105.5,35.5 Z"/></g>
<g><path style="opacity:1" fill="#4e381f" d="M 181.5,27.5 C 184.667,28.9886 187.667,30.6553 190.5,32.5C 190.9,36.4405 192.067,40.1072 194,43.5C 194.931,53.9271 194.431,64.2604 192.5,74.5C 191.778,74.0825 191.278,73.4158 191,72.5C 187.108,74.0749 182.941,75.0749 178.5,75.5C 178.977,76.4776 179.643,77.3109 180.5,78C 176.141,78.5343 171.808,78.3676 167.5,77.5C 166.833,77.5 166.167,77.5 165.5,77.5C 166.167,74.8333 166.833,72.1667 167.5,69.5C 167.873,66.4261 168.539,63.4261 169.5,60.5C 169.336,57.8127 169.503,55.146 170,52.5C 172.894,45.7436 174.227,38.7436 174,31.5C 168.859,25.5467 165.025,18.88 162.5,11.5C 162.739,9.5328 162.406,7.69946 161.5,6C 162.167,5.33333 162.833,5.33333 163.5,6C 169.043,11.8741 174.21,18.0408 179,24.5C 180.457,33.8088 179.623,42.9754 176.5,52C 176.63,53.0588 177.13,53.8921 178,54.5C 179.825,50.7661 180.825,46.7661 181,42.5C 181.499,37.5111 181.666,32.5111 181.5,27.5 Z"/></g>
<g><path style="opacity:1" fill="#ceb565" d="M 117.5,28.5 C 119.373,32.5152 120.373,36.8485 120.5,41.5C 119.965,45.819 119.465,50.1523 119,54.5C 118.311,55.3567 117.478,56.0233 116.5,56.5C 113.868,51.9304 111.535,47.2637 109.5,42.5C 108.542,40.6976 107.875,38.6976 107.5,36.5C 107.5,34.8333 107.5,33.1667 107.5,31.5C 110.691,30.7107 113.691,31.3774 116.5,33.5C 117.452,31.9547 117.785,30.288 117.5,28.5 Z"/></g>
<g><path style="opacity:1" fill="#b0b4bb" d="M 190.5,32.5 C 197.859,35.201 201.192,40.5343 200.5,48.5C 200.331,54.5229 199.831,60.5229 199,66.5C 198.229,71.109 197.062,75.4423 195.5,79.5C 194.737,77.6316 193.737,75.9649 192.5,74.5C 194.431,64.2604 194.931,53.9271 194,43.5C 192.067,40.1072 190.9,36.4405 190.5,32.5 Z"/></g>
<g><path style="opacity:1" fill="#76562f" d="M 44.5,45.5 C 45.1667,45.5 45.8333,45.5 46.5,45.5C 47.2739,46.1471 48.2739,46.4805 49.5,46.5C 51.8409,45.8178 54.1743,45.1511 56.5,44.5C 57.0126,49.7172 57.6793,54.7172 58.5,59.5C 52.3718,56.8873 47.2052,52.8873 43,47.5C 42.6012,47.7284 42.4346,48.0618 42.5,48.5C 41.0609,47.4908 39.7276,47.8241 38.5,49.5C 33.6959,45.2083 28.0292,42.875 21.5,42.5C 19.8333,41.1667 18.1667,39.8333 16.5,38.5C 15.5,37.8333 14.5,37.1667 13.5,36.5C 14.0558,33.7212 15.7225,32.0545 18.5,31.5C 22.2419,33.0473 25.2419,35.5473 27.5,39C 28.938,39.2189 30.2713,39.7189 31.5,40.5C 34.7126,44.6775 39.0459,46.3442 44.5,45.5 Z"/></g>
<g><path style="opacity:1" fill="#98a559" d="M 150.5,33.5 C 151.5,33.8333 152.167,34.5 152.5,35.5C 154.183,40.6631 154.85,45.9964 154.5,51.5C 153.167,52.5 151.833,53.5 150.5,54.5C 148.143,54.6633 145.81,54.4966 143.5,54C 142.047,47.7229 138.38,43.5562 132.5,41.5C 132.5,40.8333 132.167,40.5 131.5,40.5C 131.5,40.1667 131.5,39.8333 131.5,39.5C 132.167,39.5 132.833,39.5 133.5,39.5C 135.604,39.7989 137.604,39.4656 139.5,38.5C 141.713,36.2806 143.88,36.6139 146,39.5C 146.532,36.8199 148.032,34.8199 150.5,33.5 Z"/></g>
<g><path style="opacity:1" fill="#82572b" d="M 21.5,42.5 C 28.0292,42.875 33.6959,45.2083 38.5,49.5C 39.7276,47.8241 41.0609,47.4908 42.5,48.5C 43.5678,51.0752 45.2345,53.2419 47.5,55C 45.1667,55.3333 42.8333,55.6667 40.5,56C 41.0442,56.7172 41.7109,57.2172 42.5,57.5C 44.5,59.8333 46.5,62.1667 48.5,64.5C 47.3285,65.3446 45.9952,66.0113 44.5,66.5C 41.1983,63.0257 38.0316,59.359 35,55.5C 31.2583,51.2525 27.0917,47.5859 22.5,44.5C 22.1667,43.8333 21.8333,43.1667 21.5,42.5 Z"/></g>
<g><path style="opacity:1" fill="#63b315" d="M 157.5,52.5 C 158.376,52.3691 159.043,52.7025 159.5,53.5C 159.121,55.2131 158.121,56.2131 156.5,56.5C 156.833,55.1667 157.167,53.8333 157.5,52.5 Z"/></g>
<g><path style="opacity:1" fill="#6c6d41" d="M 154.5,34.5 C 156.276,39.2622 157.609,44.2622 158.5,49.5C 159.643,46.5023 159.643,43.5023 158.5,40.5C 159.117,40.6107 159.617,40.944 160,41.5C 160.333,44.8333 160.667,48.1667 161,51.5C 161.615,53.1161 162.615,54.4495 164,55.5C 164.464,54.9056 164.631,54.2389 164.5,53.5C 166.059,56.8683 166.892,60.5349 167,64.5C 167.2,62.6803 168.034,61.347 169.5,60.5C 168.539,63.4261 167.873,66.4261 167.5,69.5C 166.833,68.1667 166.167,66.8333 165.5,65.5C 165.66,63.8008 165.494,62.1341 165,60.5C 163.708,62.2487 162.542,64.082 161.5,66C 160.5,66.6667 159.5,66.6667 158.5,66C 158.336,63.3012 158.17,60.4679 158,57.5C 155.645,60.1304 155.145,59.797 156.5,56.5C 158.121,56.2131 159.121,55.2131 159.5,53.5C 159.043,52.7025 158.376,52.3691 157.5,52.5C 156.609,51.8902 155.609,51.5569 154.5,51.5C 154.85,45.9964 154.183,40.6631 152.5,35.5C 153.492,35.6716 154.158,35.3382 154.5,34.5 Z"/></g>
<g><path style="opacity:1" fill="#1c1509" d="M -0.5,41.5 C 3.31435,43.9127 6.98101,46.5793 10.5,49.5C 11.5,51.1667 12.8333,52.5 14.5,53.5C 15.8333,55.1667 17.1667,56.8333 18.5,58.5C 16.6621,59.1018 14.8288,59.4351 13,59.5C 11.5557,57.8446 9.72241,57.178 7.5,57.5C 5.07858,55.7622 2.41192,54.4289 -0.5,53.5C -0.5,49.5 -0.5,45.5 -0.5,41.5 Z"/></g>
<g><path style="opacity:1" fill="#8f6535" d="M 16.5,38.5 C 18.1667,39.8333 19.8333,41.1667 21.5,42.5C 21.8333,43.1667 22.1667,43.8333 22.5,44.5C 21.3509,44.7911 20.6842,45.6244 20.5,47C 21.9543,49.1343 23.4543,51.301 25,53.5C 27.0408,54.4231 29.2075,54.7564 31.5,54.5C 30.4565,57.5905 29.1232,60.5905 27.5,63.5C 28.5186,65.5107 29.5186,67.5107 30.5,69.5C 26.5,65.8333 22.5,62.1667 18.5,58.5C 17.1667,56.8333 15.8333,55.1667 14.5,53.5C 14.4399,48.3072 15.1066,43.3072 16.5,38.5 Z"/></g>
<g><path style="opacity:1" fill="#87d216" d="M 128.5,54.5 C 131.797,54.6317 133.463,56.2984 133.5,59.5C 132.041,59.5674 130.708,59.2341 129.5,58.5C 129.167,57.1667 128.833,55.8333 128.5,54.5 Z"/></g>
<g><path style="opacity:1" fill="#5c4a2e" d="M 78.5,27.5 C 81.4289,31.6061 84.5956,35.6061 88,39.5C 89.0793,42.0627 89.5793,44.7294 89.5,47.5C 90.5,47.5 91.5,47.5 92.5,47.5C 92.3433,48.8734 92.51,50.2068 93,51.5C 93.3826,50.944 93.8826,50.6107 94.5,50.5C 93.8333,52.1667 93.1667,53.8333 92.5,55.5C 90.154,57.6742 88.154,60.1742 86.5,63C 88.6831,65.0157 90.6831,67.1824 92.5,69.5C 89.5448,69.0193 87.2115,67.5193 85.5,65C 84.365,64.2506 83.365,64.4173 82.5,65.5C 85.4797,69.8114 88.813,73.8114 92.5,77.5C 90.5,76.8333 88.5,76.1667 86.5,75.5C 84.5,74.1667 82.5,72.8333 80.5,71.5C 81.2389,71.631 81.9056,71.4643 82.5,71C 79.7013,68.4888 79.0346,65.6555 80.5,62.5C 86.3298,57.5035 88.8298,51.1702 88,43.5C 86.4226,40.2489 84.4226,37.2489 82,34.5C 80.3621,32.2663 78.1955,30.933 75.5,30.5C 76.1667,29.1667 77.1667,28.1667 78.5,27.5 Z"/></g>
<g><path style="opacity:1" fill="#b3be73" d="M 120.5,41.5 C 121.167,42.1667 121.833,42.8333 122.5,43.5C 122.334,47.8461 122.501,52.1794 123,56.5C 124.405,57.7305 125.571,59.0639 126.5,60.5C 126.733,62.0618 127.4,63.3951 128.5,64.5C 128.22,68.2253 126.22,69.392 122.5,68C 120.46,65.8149 119.126,63.3149 118.5,60.5C 116.708,60.634 115.042,60.3007 113.5,59.5C 112.378,54.7519 111.044,50.0852 109.5,45.5C 109.5,44.5 109.5,43.5 109.5,42.5C 111.535,47.2637 113.868,51.9304 116.5,56.5C 117.478,56.0233 118.311,55.3567 119,54.5C 119.465,50.1523 119.965,45.819 120.5,41.5 Z"/></g>
<g><path style="opacity:1" fill="#82a25e" d="M 132.5,41.5 C 138.38,43.5562 142.047,47.7229 143.5,54C 145.81,54.4966 148.143,54.6633 150.5,54.5C 149.149,56.5292 149.482,58.3625 151.5,60C 149.775,62.8857 149.108,66.0523 149.5,69.5C 146.744,67.7883 143.744,67.2883 140.5,68C 139.62,69.3561 139.286,70.8561 139.5,72.5C 138.662,72.8417 138.328,73.5084 138.5,74.5C 138.5,74.8333 138.5,75.1667 138.5,75.5C 137.833,74.8333 137.167,74.1667 136.5,73.5C 138.742,68.6697 140.742,63.6697 142.5,58.5C 142.363,56.8927 141.696,55.5594 140.5,54.5C 139.234,56.4039 137.567,57.7372 135.5,58.5C 135.267,56.9382 134.6,55.6049 133.5,54.5C 131.197,50.4292 130.863,46.0959 132.5,41.5 Z"/></g>
<g><path style="opacity:1" fill="#a6783b" d="M 22.5,44.5 C 27.0917,47.5859 31.2583,51.2525 35,55.5C 38.0316,59.359 41.1983,63.0257 44.5,66.5C 43.0435,69.7723 41.7102,73.1056 40.5,76.5C 35.7844,76.8719 32.451,74.5386 30.5,69.5C 29.5186,67.5107 28.5186,65.5107 27.5,63.5C 29.1232,60.5905 30.4565,57.5905 31.5,54.5C 29.2075,54.7564 27.0408,54.4231 25,53.5C 23.4543,51.301 21.9543,49.1343 20.5,47C 20.6842,45.6244 21.3509,44.7911 22.5,44.5 Z"/></g>
<g><path style="opacity:1" fill="#b3955a" d="M 93.5,33.5 C 96.0436,36.9416 98.2103,40.6083 100,44.5C 101.653,44.1802 102.653,43.1802 103,41.5C 103.186,39.0995 103.686,36.7662 104.5,34.5C 105.107,34.6236 105.44,34.9569 105.5,35.5C 105.486,39.8418 105.153,44.3418 104.5,49C 106.184,55.312 107.184,61.812 107.5,68.5C 106.32,70.913 104.32,71.913 101.5,71.5C 101.216,73.4147 101.549,75.0813 102.5,76.5C 102.5,77.1667 102.5,77.8333 102.5,78.5C 98.5442,76.2119 95.2109,73.2119 92.5,69.5C 95.1873,69.6641 97.854,69.4974 100.5,69C 101.047,66.6332 102.047,64.4666 103.5,62.5C 101.456,59.0506 98.9555,56.0506 96,53.5C 94.8873,54.305 93.7206,54.9717 92.5,55.5C 93.1667,53.8333 93.8333,52.1667 94.5,50.5C 96.0719,45.2533 95.7385,40.2533 93.5,35.5C 93.5,34.8333 93.5,34.1667 93.5,33.5 Z"/></g>
<g><path style="opacity:1" fill="#898b52" d="M 109.5,45.5 C 111.044,50.0852 112.378,54.7519 113.5,59.5C 113.5,62.1667 113.5,64.8333 113.5,67.5C 112.833,67.5 112.5,67.8333 112.5,68.5C 112.167,68.5 111.833,68.5 111.5,68.5C 111.903,61.3865 110.903,54.5532 108.5,48C 108.528,46.9302 108.861,46.0968 109.5,45.5 Z"/></g>
<g><path style="opacity:1" fill="#6c834b" d="M 154.5,51.5 C 153.721,57.7173 153.721,63.7173 154.5,69.5C 152.833,69.5 151.167,69.5 149.5,69.5C 149.108,66.0523 149.775,62.8857 151.5,60C 149.482,58.3625 149.149,56.5292 150.5,54.5C 151.833,53.5 153.167,52.5 154.5,51.5 Z"/></g>
<g><path style="opacity:1" fill="#c1ac71" d="M 92.5,69.5 C 90.6831,67.1824 88.6831,65.0157 86.5,63C 88.154,60.1742 90.154,57.6742 92.5,55.5C 93.7206,54.9717 94.8873,54.305 96,53.5C 98.9555,56.0506 101.456,59.0506 103.5,62.5C 102.047,64.4666 101.047,66.6332 100.5,69C 97.854,69.4974 95.1873,69.6641 92.5,69.5 Z"/></g>
<g><path style="opacity:1" fill="#5e4525" d="M -0.5,53.5 C 2.41192,54.4289 5.07858,55.7622 7.5,57.5C 8.62529,59.1288 9.95862,60.6288 11.5,62C 19.9624,67.3099 27.9624,73.1433 35.5,79.5C 28.7172,80.1034 23.0505,77.9367 18.5,73C 14.5787,72.797 10.7454,72.297 7,71.5C 5.11901,72.3544 3.28568,72.0211 1.5,70.5C 0.824341,69.3984 0.157674,68.3984 -0.5,67.5C -0.5,62.8333 -0.5,58.1667 -0.5,53.5 Z"/></g>
<g><path style="opacity:1" fill="#88b36d" d="M 113.5,59.5 C 115.042,60.3007 116.708,60.634 118.5,60.5C 119.126,63.3149 120.46,65.8149 122.5,68C 126.22,69.392 128.22,68.2253 128.5,64.5C 129.811,66.5598 129.811,68.7265 128.5,71C 124.152,71.4155 119.819,71.2488 115.5,70.5C 115.715,68.8212 115.048,67.8212 113.5,67.5C 113.5,64.8333 113.5,62.1667 113.5,59.5 Z"/></g>
<g><path style="opacity:1" fill="#2b2413" d="M 7.5,57.5 C 9.72241,57.178 11.5557,57.8446 13,59.5C 14.8288,59.4351 16.6621,59.1018 18.5,58.5C 22.5,62.1667 26.5,65.8333 30.5,69.5C 32.451,74.5386 35.7844,76.8719 40.5,76.5C 45.6617,75.2938 48.995,72.2938 50.5,67.5C 51.4884,68.795 52.4884,70.1283 53.5,71.5C 48.2008,74.4441 42.8675,77.4441 37.5,80.5C 36.8165,80.1373 36.1499,79.8039 35.5,79.5C 27.9624,73.1433 19.9624,67.3099 11.5,62C 9.95862,60.6288 8.62529,59.1288 7.5,57.5 Z"/></g>
<g><path style="opacity:1" fill="#325131" d="M 133.5,54.5 C 134.6,55.6049 135.267,56.9382 135.5,58.5C 136.287,60.1042 137.62,60.7709 139.5,60.5C 139.643,62.2624 139.309,63.9291 138.5,65.5C 135.914,66.48 133.247,66.8134 130.5,66.5C 130.378,63.7079 129.044,61.7079 126.5,60.5C 126.402,57.7524 127.402,57.0857 129.5,58.5C 130.708,59.2341 132.041,59.5674 133.5,59.5C 133.463,56.2984 131.797,54.6317 128.5,54.5C 126.094,53.4768 126.094,52.8101 128.5,52.5C 130.177,53.1869 131.844,53.8535 133.5,54.5 Z"/></g>
<g><path style="opacity:1" fill="#3d2b17" d="M 58.5,59.5 C 63.2209,62.5218 68.2209,65.1885 73.5,67.5C 75.6626,69.0828 77.9959,70.4161 80.5,71.5C 82.5,72.8333 84.5,74.1667 86.5,75.5C 86.0618,75.4346 85.7284,75.6012 85.5,76C 87.0323,79.3333 89.0323,82.1666 91.5,84.5C 89.513,83.8358 87.8463,82.6692 86.5,81C 85.2068,80.51 83.8734,80.3433 82.5,80.5C 82.5,81.5 82.5,82.5 82.5,83.5C 75.0938,75.6241 66.4272,69.4575 56.5,65C 53.9832,62.6506 51.6499,60.1506 49.5,57.5C 47.0268,56.2031 44.6934,56.2031 42.5,57.5C 41.7109,57.2172 41.0442,56.7172 40.5,56C 42.8333,55.6667 45.1667,55.3333 47.5,55C 45.2345,53.2419 43.5678,51.0752 42.5,48.5C 42.4346,48.0618 42.6012,47.7284 43,47.5C 47.2052,52.8873 52.3718,56.8873 58.5,59.5 Z"/></g>
<g><path style="opacity:1" fill="#414e2b" d="M 154.5,51.5 C 155.609,51.5569 156.609,51.8902 157.5,52.5C 157.167,53.8333 156.833,55.1667 156.5,56.5C 155.145,59.797 155.645,60.1304 158,57.5C 158.17,60.4679 158.336,63.3012 158.5,66C 159.5,66.6667 160.5,66.6667 161.5,66C 162.542,64.082 163.708,62.2487 165,60.5C 165.494,62.1341 165.66,63.8008 165.5,65.5C 164.711,65.7828 164.044,66.2828 163.5,67C 165.632,68.6204 165.965,70.4537 164.5,72.5C 164.657,71.1266 164.49,69.7932 164,68.5C 162.649,70.019 161.149,71.3523 159.5,72.5C 160.689,73.4287 162.022,73.762 163.5,73.5C 161.747,75.2225 159.747,76.7225 157.5,78C 158.774,78.9772 158.774,79.8106 157.5,80.5C 156.1,79.9002 155.1,78.9002 154.5,77.5C 154.5,76.1667 154.5,74.8333 154.5,73.5C 154.5,72.5 154.5,71.5 154.5,70.5C 154.5,70.1667 154.5,69.8333 154.5,69.5C 153.721,63.7173 153.721,57.7173 154.5,51.5 Z"/></g>
<g><path style="opacity:1" fill="#322003" d="M 201.5,52.5 C 204.532,56.7216 207.198,61.2216 209.5,66C 209.167,66.3333 208.833,66.6667 208.5,67C 211.363,71.0391 213.03,75.5391 213.5,80.5C 210.211,81.3739 206.877,82.0405 203.5,82.5C 202.395,81.3995 201.062,80.7329 199.5,80.5C 199.018,79.5837 198.685,78.5837 198.5,77.5C 200.239,69.2521 201.239,60.9188 201.5,52.5 Z"/></g>
<g><path style="opacity:1" fill="#918f8f" d="M 200.5,48.5 C 201.434,49.5676 201.768,50.901 201.5,52.5C 201.239,60.9188 200.239,69.2521 198.5,77.5C 198.685,78.5837 199.018,79.5837 199.5,80.5C 197.625,82.0781 196.292,81.7448 195.5,79.5C 197.062,75.4423 198.229,71.109 199,66.5C 199.831,60.5229 200.331,54.5229 200.5,48.5 Z"/></g>
<g><path style="opacity:1" fill="#6e4f2a" d="M -0.5,67.5 C 0.157674,68.3984 0.824341,69.3984 1.5,70.5C 3.28568,72.0211 5.11901,72.3544 7,71.5C 10.7454,72.297 14.5787,72.797 18.5,73C 23.0505,77.9367 28.7172,80.1034 35.5,79.5C 36.1499,79.8039 36.8165,80.1373 37.5,80.5C 42.8675,77.4441 48.2008,74.4441 53.5,71.5C 46.8584,77.1373 40.1917,82.8039 33.5,88.5C 32.5,88.5 31.5,88.5 30.5,88.5C 30.5,89.5 30.5,90.5 30.5,91.5C 26.1924,90.6324 21.859,90.4657 17.5,91C 11.6771,93.4551 5.67708,95.2884 -0.5,96.5C -0.5,86.8333 -0.5,77.1667 -0.5,67.5 Z"/></g>
<g><path style="opacity:1" fill="#669658" d="M 126.5,60.5 C 129.044,61.7079 130.378,63.7079 130.5,66.5C 131.278,67.1556 131.944,67.9889 132.5,69C 129.928,72.9778 126.261,74.4778 121.5,73.5C 118.539,72.6766 115.539,72.01 112.5,71.5C 112.5,70.5 112.5,69.5 112.5,68.5C 112.5,67.8333 112.833,67.5 113.5,67.5C 115.048,67.8212 115.715,68.8212 115.5,70.5C 119.819,71.2488 124.152,71.4155 128.5,71C 129.811,68.7265 129.811,66.5598 128.5,64.5C 127.4,63.3951 126.733,62.0618 126.5,60.5 Z"/></g>
<g><path style="opacity:1" fill="#48683d" d="M 136.5,73.5 C 135.883,73.3893 135.383,73.056 135,72.5C 130.863,77.3773 126.363,77.7106 121.5,73.5C 126.261,74.4778 129.928,72.9778 132.5,69C 131.944,67.9889 131.278,67.1556 130.5,66.5C 133.247,66.8134 135.914,66.48 138.5,65.5C 139.309,63.9291 139.643,62.2624 139.5,60.5C 137.62,60.7709 136.287,60.1042 135.5,58.5C 137.567,57.7372 139.234,56.4039 140.5,54.5C 141.696,55.5594 142.363,56.8927 142.5,58.5C 140.742,63.6697 138.742,68.6697 136.5,73.5 Z"/></g>
<g><path style="opacity:1" fill="#4dc10d" d="M 164.5,72.5 C 163.833,72.5 163.5,72.8333 163.5,73.5C 162.022,73.762 160.689,73.4287 159.5,72.5C 161.149,71.3523 162.649,70.019 164,68.5C 164.49,69.7932 164.657,71.1266 164.5,72.5 Z"/></g>
<g><path style="opacity:1" fill="#878d53" d="M 107.5,68.5 C 108.492,68.3284 109.158,68.6618 109.5,69.5C 108.732,70.2625 108.232,71.2625 108,72.5C 106.349,74.2102 104.516,75.5436 102.5,76.5C 101.549,75.0813 101.216,73.4147 101.5,71.5C 104.32,71.913 106.32,70.913 107.5,68.5 Z"/></g>
<g><path style="opacity:1" fill="#5a3e1f" d="M 48.5,64.5 C 49.9063,64.9731 50.573,65.9731 50.5,67.5C 48.995,72.2938 45.6617,75.2938 40.5,76.5C 41.7102,73.1056 43.0435,69.7723 44.5,66.5C 45.9952,66.0113 47.3285,65.3446 48.5,64.5 Z"/></g>
<g><path style="opacity:1" fill="#4d6d43" d="M 111.5,68.5 C 111.833,68.5 112.167,68.5 112.5,68.5C 112.5,69.5 112.5,70.5 112.5,71.5C 110.879,71.7869 109.879,72.7869 109.5,74.5C 111.003,75.0522 112.669,75.0522 114.5,74.5C 114.833,75.1667 115.167,75.8333 115.5,76.5C 115.733,78.0618 116.4,79.3951 117.5,80.5C 116.833,80.5 116.167,80.5 115.5,80.5C 111.409,79.1045 107.076,78.4379 102.5,78.5C 102.5,77.8333 102.5,77.1667 102.5,76.5C 104.516,75.5436 106.349,74.2102 108,72.5C 108.232,71.2625 108.732,70.2625 109.5,69.5C 110.492,69.6716 111.158,69.3382 111.5,68.5 Z"/></g>
<g><path style="opacity:1" fill="#82df02" d="M 114.5,74.5 C 118.044,74.8848 121.377,75.8848 124.5,77.5C 121.259,80.2828 118.259,79.9494 115.5,76.5C 115.167,75.8333 114.833,75.1667 114.5,74.5 Z"/></g>
<g><path style="opacity:1" fill="#b38543" d="M 149.5,69.5 C 151.167,69.5 152.833,69.5 154.5,69.5C 154.5,69.8333 154.5,70.1667 154.5,70.5C 152.97,71.0668 151.47,71.7334 150,72.5C 149.749,74.433 149.249,76.2663 148.5,78C 150.283,79.0665 150.783,80.5665 150,82.5C 143.988,87.2468 141.488,85.9134 142.5,78.5C 142.016,76.1992 141.016,74.1992 139.5,72.5C 139.286,70.8561 139.62,69.3561 140.5,68C 143.744,67.2883 146.744,67.7883 149.5,69.5 Z"/></g>
<g><path style="opacity:1" fill="#090602" d="M 86.5,75.5 C 88.5,76.1667 90.5,76.8333 92.5,77.5C 96.907,79.211 100.907,81.711 104.5,85C 103.733,86.4705 103.067,87.9705 102.5,89.5C 101.833,89.5 101.5,89.8333 101.5,90.5C 100.209,90.2627 99.209,90.596 98.5,91.5C 96.7356,90.674 95.4023,89.3407 94.5,87.5C 93.8333,86.1667 92.8333,85.1667 91.5,84.5C 89.0323,82.1666 87.0323,79.3333 85.5,76C 85.7284,75.6012 86.0618,75.4346 86.5,75.5 Z"/></g>
<g><path style="opacity:1" fill="#619f49" d="M 115.5,76.5 C 118.259,79.9494 121.259,80.2828 124.5,77.5C 125.791,78.5417 125.791,79.7083 124.5,81C 122.071,81.7033 119.738,81.5366 117.5,80.5C 116.4,79.3951 115.733,78.0618 115.5,76.5 Z"/></g>
<g><path style="opacity:1" fill="#293923" d="M 112.5,71.5 C 115.539,72.01 118.539,72.6766 121.5,73.5C 126.363,77.7106 130.863,77.3773 135,72.5C 135.383,73.056 135.883,73.3893 136.5,73.5C 137.167,74.1667 137.833,74.8333 138.5,75.5C 138.116,77.9294 137.449,80.2627 136.5,82.5C 135.528,84.4931 134.195,84.8264 132.5,83.5C 131.726,82.8529 130.726,82.5195 129.5,82.5C 126.298,83.0993 123.298,84.266 120.5,86C 117.036,86.8166 113.702,86.4833 110.5,85C 112.202,83.4084 113.868,81.9084 115.5,80.5C 116.167,80.5 116.833,80.5 117.5,80.5C 119.738,81.5366 122.071,81.7033 124.5,81C 125.791,79.7083 125.791,78.5417 124.5,77.5C 121.377,75.8848 118.044,74.8848 114.5,74.5C 112.669,75.0522 111.003,75.0522 109.5,74.5C 109.879,72.7869 110.879,71.7869 112.5,71.5 Z"/></g>
<g><path style="opacity:1" fill="#252b1a" d="M 165.5,65.5 C 166.167,66.8333 166.833,68.1667 167.5,69.5C 166.833,72.1667 166.167,74.8333 165.5,77.5C 164.094,77.9731 163.427,78.9731 163.5,80.5C 162.024,82.7686 160.524,85.1019 159,87.5C 158.722,86.5842 158.222,85.9175 157.5,85.5C 157.5,83.8333 157.5,82.1667 157.5,80.5C 158.774,79.8106 158.774,78.9772 157.5,78C 159.747,76.7225 161.747,75.2225 163.5,73.5C 163.5,72.8333 163.833,72.5 164.5,72.5C 165.965,70.4537 165.632,68.6204 163.5,67C 164.044,66.2828 164.711,65.7828 165.5,65.5 Z"/></g>
<g><path style="opacity:1" fill="#332614" d="M 192.5,74.5 C 193.737,75.9649 194.737,77.6316 195.5,79.5C 196.292,81.7448 197.625,82.0781 199.5,80.5C 201.268,83.5421 202.434,86.8754 203,90.5C 203.333,89.5 203.667,88.5 204,87.5C 205.381,89.6349 206.381,91.9682 207,94.5C 207.483,93.552 207.649,92.552 207.5,91.5C 208.912,93.2303 208.578,94.7303 206.5,96C 208.158,96.7253 208.658,97.892 208,99.5C 201.878,95.0608 195.712,90.5608 189.5,86C 191.179,85.6053 192.845,85.772 194.5,86.5C 195.737,86.4435 196.737,85.9435 197.5,85C 192.706,84.6529 188.04,83.8195 183.5,82.5C 177.832,81.6089 172.498,79.9422 167.5,77.5C 171.808,78.3676 176.141,78.5343 180.5,78C 179.643,77.3109 178.977,76.4776 178.5,75.5C 182.941,75.0749 187.108,74.0749 191,72.5C 191.278,73.4158 191.778,74.0825 192.5,74.5 Z"/></g>
<g><path style="opacity:1" fill="#2b2413" d="M 92.5,69.5 C 95.2109,73.2119 98.5442,76.2119 102.5,78.5C 104.833,81.1667 107.167,83.8333 109.5,86.5C 112.637,89.2985 114.971,92.6319 116.5,96.5C 115.791,97.404 114.791,97.7373 113.5,97.5C 114.093,92.281 113.093,91.6144 110.5,95.5C 110.167,95 109.833,94.5 109.5,94C 110.148,92.5603 110.481,91.0603 110.5,89.5C 109.5,89.5 108.5,89.5 107.5,89.5C 107.634,91.2915 107.301,92.9582 106.5,94.5C 106.167,94.5 105.833,94.5 105.5,94.5C 105.414,93.5041 105.748,92.6708 106.5,92C 105.552,91.5172 104.552,91.3505 103.5,91.5C 103.672,90.5084 103.338,89.8417 102.5,89.5C 103.067,87.9705 103.733,86.4705 104.5,85C 100.907,81.711 96.907,79.211 92.5,77.5C 88.813,73.8114 85.4797,69.8114 82.5,65.5C 83.365,64.4173 84.365,64.2506 85.5,65C 87.2115,67.5193 89.5448,69.0193 92.5,69.5 Z"/></g>
<g><path style="opacity:1" fill="#a17139" d="M 154.5,70.5 C 154.5,71.5 154.5,72.5 154.5,73.5C 153.833,73.5 153.5,73.8333 153.5,74.5C 152.679,77.6414 152.179,80.9748 152,84.5C 148.753,86.3311 145.419,87.9978 142,89.5C 139.302,88.4506 137.802,86.4506 137.5,83.5C 138.636,81.6822 139.303,79.6822 139.5,77.5C 139.48,76.2739 139.147,75.2739 138.5,74.5C 138.328,73.5084 138.662,72.8417 139.5,72.5C 141.016,74.1992 142.016,76.1992 142.5,78.5C 141.488,85.9134 143.988,87.2468 150,82.5C 150.783,80.5665 150.283,79.0665 148.5,78C 149.249,76.2663 149.749,74.433 150,72.5C 151.47,71.7334 152.97,71.0668 154.5,70.5 Z"/></g>
<g><path style="opacity:1" fill="#6c5732" d="M 136.5,82.5 C 135.829,89.8385 131.829,93.1718 124.5,92.5C 124.739,94.4672 124.406,96.3005 123.5,98C 125.359,98.6839 127.026,99.6839 128.5,101C 127.944,101.383 127.611,101.883 127.5,102.5C 125.672,101.206 123.672,100.206 121.5,99.5C 121.264,96.3915 121.597,93.3915 122.5,90.5C 126.831,91.5489 128.997,89.8822 129,85.5C 129.816,84.1772 130.983,83.5106 132.5,83.5C 134.195,84.8264 135.528,84.4931 136.5,82.5 Z"/></g>
<g><path style="opacity:1" fill="#523d24" d="M 91.5,84.5 C 92.8333,85.1667 93.8333,86.1667 94.5,87.5C 92.2433,87.0383 90.2433,86.0383 88.5,84.5C 88.1667,84.8333 87.8333,85.1667 87.5,85.5C 89.5264,90.5138 91.5264,95.5138 93.5,100.5C 90.096,94.6996 86.4294,89.0329 82.5,83.5C 82.5,82.5 82.5,81.5 82.5,80.5C 83.8734,80.3433 85.2068,80.51 86.5,81C 87.8463,82.6692 89.513,83.8358 91.5,84.5 Z"/></g>
<g><path style="opacity:1" fill="#3c492d" d="M 102.5,78.5 C 107.076,78.4379 111.409,79.1045 115.5,80.5C 113.868,81.9084 112.202,83.4084 110.5,85C 113.702,86.4833 117.036,86.8166 120.5,86C 123.298,84.266 126.298,83.0993 129.5,82.5C 130.726,82.5195 131.726,82.8529 132.5,83.5C 130.983,83.5106 129.816,84.1772 129,85.5C 128.997,89.8822 126.831,91.5489 122.5,90.5C 118.412,88.4143 114.078,87.081 109.5,86.5C 107.167,83.8333 104.833,81.1667 102.5,78.5 Z"/></g>
<g><path style="opacity:1" fill="#7c7c7f" d="M 199.5,80.5 C 201.062,80.7329 202.395,81.3995 203.5,82.5C 205.091,85.3516 206.424,88.3516 207.5,91.5C 207.649,92.552 207.483,93.552 207,94.5C 206.381,91.9682 205.381,89.6349 204,87.5C 203.667,88.5 203.333,89.5 203,90.5C 202.434,86.8754 201.268,83.5421 199.5,80.5 Z"/></g>
<g><path style="opacity:1" fill="#4e391d" d="M 109.5,86.5 C 114.078,87.081 118.412,88.4143 122.5,90.5C 121.597,93.3915 121.264,96.3915 121.5,99.5C 120.709,101.309 120.709,103.309 121.5,105.5C 120.599,104.71 119.932,103.71 119.5,102.5C 119.66,100.801 119.494,99.1341 119,97.5C 118.329,96.7476 117.496,96.4142 116.5,96.5C 114.971,92.6319 112.637,89.2985 109.5,86.5 Z"/></g>
<g><path style="opacity:1" fill="#885f35" d="M 138.5,74.5 C 139.147,75.2739 139.48,76.2739 139.5,77.5C 139.303,79.6822 138.636,81.6822 137.5,83.5C 137.802,86.4506 139.302,88.4506 142,89.5C 145.419,87.9978 148.753,86.3311 152,84.5C 152.179,80.9748 152.679,77.6414 153.5,74.5C 153.824,78.5546 153.491,82.5546 152.5,86.5C 150.5,87.5 148.5,88.5 146.5,89.5C 143.889,94.8149 139.556,97.6482 133.5,98C 132.733,99.4705 132.067,100.97 131.5,102.5C 130.167,102.5 128.833,102.5 127.5,102.5C 127.611,101.883 127.944,101.383 128.5,101C 127.026,99.6839 125.359,98.6839 123.5,98C 124.406,96.3005 124.739,94.4672 124.5,92.5C 131.829,93.1718 135.829,89.8385 136.5,82.5C 137.449,80.2627 138.116,77.9294 138.5,75.5C 138.5,75.1667 138.5,74.8333 138.5,74.5 Z"/></g>
<g><path style="opacity:1" fill="#080502" d="M 82.5,83.5 C 86.4294,89.0329 90.096,94.6996 93.5,100.5C 94.4706,102.483 95.4706,104.483 96.5,106.5C 98.8308,111.829 101.164,117.162 103.5,122.5C 107.33,129.158 110.33,136.158 112.5,143.5C 108.5,143.5 104.5,143.5 100.5,143.5C 99.6205,140.738 98.4538,138.071 97,135.5C 96.1841,134.177 95.0174,133.511 93.5,133.5C 95.9931,130.484 95.9931,127.484 93.5,124.5C 93.0075,122.181 92.0075,120.181 90.5,118.5C 90.0075,116.181 89.0075,114.181 87.5,112.5C 85.4942,107.145 82.4942,102.479 78.5,98.5C 77.5849,96.2459 76.2516,94.2459 74.5,92.5C 73.9964,87.6589 71.3298,84.6589 66.5,83.5C 65.791,82.596 64.791,82.2627 63.5,82.5C 59.8918,80.5657 56.0584,78.8991 52,77.5C 46.087,80.5849 40.9204,84.5849 36.5,89.5C 32.5004,92.0047 31.6671,95.338 34,99.5C 37.7088,104.71 42.2088,109.043 47.5,112.5C 49.6674,113.269 51.834,114.269 54,115.5C 54.8159,114.177 55.9826,113.511 57.5,113.5C 57.5,113.833 57.5,114.167 57.5,114.5C 55.8333,115.833 54.1667,117.167 52.5,118.5C 51.1619,120.113 49.4952,120.613 47.5,120C 42.6329,115.468 38.1329,110.634 34,105.5C 34.8975,109.526 36.2308,113.526 38,117.5C 40.4866,119.809 42.4866,122.476 44,125.5C 49.2392,131.41 55.0725,136.577 61.5,141C 59.4021,140.968 57.4021,140.301 55.5,139C 50.6332,135.735 45.6332,132.735 40.5,130C 37.6872,126.353 34.6872,122.853 31.5,119.5C 30.5019,121.49 29.5019,123.49 28.5,125.5C 31.5267,131.549 35.5267,136.882 40.5,141.5C 40,141.833 39.5,142.167 39,142.5C 36.315,140.74 33.4816,139.406 30.5,138.5C 30.8432,140.483 30.1765,141.817 28.5,142.5C 26.8957,135.972 26.0624,129.305 26,122.5C 24.5263,119.244 23.3597,115.911 22.5,112.5C 20.5328,112.261 18.6995,112.594 17,113.5C 16.4971,118.19 15.8304,122.857 15,127.5C 11.7231,133.27 7.88981,138.603 3.5,143.5C 2.16667,143.5 0.833333,143.5 -0.5,143.5C -0.5,141.833 -0.5,140.167 -0.5,138.5C 1.17335,137.657 2.34001,136.324 3,134.5C 3.42215,128.568 4.25549,122.568 5.5,116.5C 3.5,116.833 1.5,117.167 -0.5,117.5C -0.5,113.833 -0.5,110.167 -0.5,106.5C 9.26089,102.632 18.9276,98.4657 28.5,94C 31.0559,92.9455 32.7225,91.1122 33.5,88.5C 40.1917,82.8039 46.8584,77.1373 53.5,71.5C 52.4884,70.1283 51.4884,68.795 50.5,67.5C 50.573,65.9731 49.9063,64.9731 48.5,64.5C 46.5,62.1667 44.5,59.8333 42.5,57.5C 44.6934,56.2031 47.0268,56.2031 49.5,57.5C 51.6499,60.1506 53.9832,62.6506 56.5,65C 66.4272,69.4575 75.0938,75.6241 82.5,83.5 Z"/></g>
<g><path style="opacity:1" fill="#815c31" d="M 66.5,83.5 C 71.3298,84.6589 73.9964,87.6589 74.5,92.5C 74.1667,92.5 73.8333,92.5 73.5,92.5C 73.5,91.5 73.5,90.5 73.5,89.5C 71.7376,89.6427 70.0709,89.3094 68.5,88.5C 66.4902,90.1713 64.1569,90.838 61.5,90.5C 60.7034,92.8956 60.37,95.229 60.5,97.5C 60.5613,99.6528 61.5613,100.986 63.5,101.5C 62.0552,103.063 60.3885,104.396 58.5,105.5C 56.7074,105.116 55.7074,103.95 55.5,102C 57.2009,100.14 58.2009,97.973 58.5,95.5C 57.1667,95.5 55.8333,95.5 54.5,95.5C 53.6398,86.519 57.6398,82.519 66.5,83.5 Z"/></g>
<g><path style="opacity:1" fill="#4a361d" d="M 63.5,82.5 C 57.0617,80.7562 53.2284,83.0895 52,89.5C 51.3155,93.0556 51.8155,96.389 53.5,99.5C 52.8275,101.832 52.6608,104.166 53,106.5C 53.6708,107.252 54.5041,107.586 55.5,107.5C 54.4206,109.543 52.754,110.876 50.5,111.5C 49.5,111.5 48.5,111.5 47.5,111.5C 48.5573,106.884 47.0573,103.551 43,101.5C 42.2486,97.7343 40.2486,94.7343 37,92.5C 36.5172,91.552 36.3505,90.552 36.5,89.5C 40.9204,84.5849 46.087,80.5849 52,77.5C 56.0584,78.8991 59.8918,80.5657 63.5,82.5 Z"/></g>
<g><path style="opacity:1" fill="#726659" d="M 154.5,77.5 C 155.1,78.9002 156.1,79.9002 157.5,80.5C 157.5,82.1667 157.5,83.8333 157.5,85.5C 157.5,88.8333 157.5,92.1667 157.5,95.5C 157.5,95.8333 157.5,96.1667 157.5,96.5C 156.542,96.0472 155.708,95.3805 155,94.5C 154.501,88.8431 154.334,83.1764 154.5,77.5 Z"/></g>
<g><path style="opacity:1" fill="#503a1e" d="M 33.5,88.5 C 32.7225,91.1122 31.0559,92.9455 28.5,94C 18.9276,98.4657 9.26089,102.632 -0.5,106.5C -0.5,103.167 -0.5,99.8333 -0.5,96.5C 5.67708,95.2884 11.6771,93.4551 17.5,91C 21.859,90.4657 26.1924,90.6324 30.5,91.5C 30.5,90.5 30.5,89.5 30.5,88.5C 31.5,88.5 32.5,88.5 33.5,88.5 Z"/></g>
<g><path style="opacity:1" fill="#b29830" d="M 102.5,89.5 C 103.338,89.8417 103.672,90.5084 103.5,91.5C 104.666,93.166 104.666,94.8327 103.5,96.5C 101.717,94.9775 101.051,92.9775 101.5,90.5C 101.5,89.8333 101.833,89.5 102.5,89.5 Z"/></g>
<g><path style="opacity:1" fill="#8d693d" d="M 94.5,87.5 C 95.4023,89.3407 96.7356,90.674 98.5,91.5C 99.4345,92.5676 99.7678,93.901 99.5,95.5C 98.1765,94.1501 97.1765,94.3167 96.5,96C 98.4702,100.745 100.137,105.578 101.5,110.5C 99.8207,109.084 98.1541,107.75 96.5,106.5C 95.4706,104.483 94.4706,102.483 93.5,100.5C 91.5264,95.5138 89.5264,90.5138 87.5,85.5C 87.8333,85.1667 88.1667,84.8333 88.5,84.5C 90.2433,86.0383 92.2433,87.0383 94.5,87.5 Z"/></g>
<g><path style="opacity:1" fill="#9f743c" d="M 73.5,92.5 C 71.0777,96.3995 67.7443,99.3995 63.5,101.5C 61.5613,100.986 60.5613,99.6528 60.5,97.5C 60.37,95.229 60.7034,92.8956 61.5,90.5C 64.1569,90.838 66.4902,90.1713 68.5,88.5C 70.0709,89.3094 71.7376,89.6427 73.5,89.5C 73.5,90.5 73.5,91.5 73.5,92.5 Z"/></g>
<g><path style="opacity:1" fill="#5c4527" d="M 163.5,80.5 C 166.461,81.3234 169.461,81.99 172.5,82.5C 173.58,85.7431 173.747,89.0764 173,92.5C 166.725,98.7213 162.892,106.055 161.5,114.5C 162.104,108.781 162.104,103.114 161.5,97.5C 159.801,97.4729 158.467,96.8062 157.5,95.5C 157.5,92.1667 157.5,88.8333 157.5,85.5C 158.222,85.9175 158.722,86.5842 159,87.5C 160.524,85.1019 162.024,82.7686 163.5,80.5 Z"/></g>
<g><path style="opacity:1" fill="#2d200f" d="M 36.5,89.5 C 36.3505,90.552 36.5172,91.552 37,92.5C 40.2486,94.7343 42.2486,97.7343 43,101.5C 47.0573,103.551 48.5573,106.884 47.5,111.5C 48.5,111.5 49.5,111.5 50.5,111.5C 49.791,112.404 48.791,112.737 47.5,112.5C 42.2088,109.043 37.7088,104.71 34,99.5C 31.6671,95.338 32.5004,92.0047 36.5,89.5 Z"/></g>
<g><path style="opacity:1" fill="#49361e" d="M 172.5,82.5 C 173.833,82.8333 175.167,83.1667 176.5,83.5C 176.771,88.9127 176.271,94.2461 175,99.5C 172.537,103.575 169.537,107.242 166,110.5C 165.503,112.81 165.337,115.143 165.5,117.5C 164.167,117.5 162.833,117.5 161.5,117.5C 161.5,116.5 161.5,115.5 161.5,114.5C 162.892,106.055 166.725,98.7213 173,92.5C 173.747,89.0764 173.58,85.7431 172.5,82.5 Z"/></g>
<g><path style="opacity:1" fill="#694926" d="M 154.5,73.5 C 154.5,74.8333 154.5,76.1667 154.5,77.5C 154.334,83.1764 154.501,88.8431 155,94.5C 155.708,95.3805 156.542,96.0472 157.5,96.5C 157.747,99.1569 158.747,101.49 160.5,103.5C 159.995,104.919 158.995,105.585 157.5,105.5C 157.19,104.262 156.69,104.262 156,105.5C 155.726,102.285 154.393,99.6188 152,97.5C 151.722,98.4158 151.222,99.0825 150.5,99.5C 150.265,98.9033 149.765,98.5699 149,98.5C 147.832,99.5089 146.665,100.509 145.5,101.5C 144.742,100.189 143.742,99.6886 142.5,100C 140.393,101.264 139.393,103.097 139.5,105.5C 138.833,105.5 138.167,105.5 137.5,105.5C 136.432,104.566 135.099,104.232 133.5,104.5C 133.893,107.513 133.226,110.18 131.5,112.5C 131.167,112.5 130.833,112.5 130.5,112.5C 130.5,111.167 130.5,109.833 130.5,108.5C 132.461,106.68 132.794,104.68 131.5,102.5C 132.067,100.97 132.733,99.4705 133.5,98C 139.556,97.6482 143.889,94.8149 146.5,89.5C 148.5,88.5 150.5,87.5 152.5,86.5C 153.491,82.5546 153.824,78.5546 153.5,74.5C 153.5,73.8333 153.833,73.5 154.5,73.5 Z"/></g>
<g><path style="opacity:1" fill="#8b7327" d="M 116.5,96.5 C 117.496,96.4142 118.329,96.7476 119,97.5C 119.494,99.1341 119.66,100.801 119.5,102.5C 118.833,102.5 118.167,102.5 117.5,102.5C 116.496,101.317 115.662,99.9839 115,98.5C 114.005,99.0659 113.172,99.7326 112.5,100.5C 109.631,99.3932 107.631,97.3932 106.5,94.5C 107.301,92.9582 107.634,91.2915 107.5,89.5C 108.5,89.5 109.5,89.5 110.5,89.5C 110.481,91.0603 110.148,92.5603 109.5,94C 109.833,94.5 110.167,95 110.5,95.5C 113.093,91.6144 114.093,92.281 113.5,97.5C 114.791,97.7373 115.791,97.404 116.5,96.5 Z"/></g>
<g><path style="opacity:1" fill="#130f04" d="M 117.5,102.5 C 115.833,101.833 114.167,101.167 112.5,100.5C 113.172,99.7326 114.005,99.0659 115,98.5C 115.662,99.9839 116.496,101.317 117.5,102.5 Z"/></g>
<g><path style="opacity:1" fill="#694c2a" d="M 63.5,82.5 C 64.791,82.2627 65.791,82.596 66.5,83.5C 57.6398,82.519 53.6398,86.519 54.5,95.5C 55.8333,95.5 57.1667,95.5 58.5,95.5C 58.2009,97.973 57.2009,100.14 55.5,102C 55.7074,103.95 56.7074,105.116 58.5,105.5C 58.5,105.833 58.5,106.167 58.5,106.5C 57.391,106.557 56.391,106.89 55.5,107.5C 54.5041,107.586 53.6708,107.252 53,106.5C 52.6608,104.166 52.8275,101.832 53.5,99.5C 51.8155,96.389 51.3155,93.0556 52,89.5C 53.2284,83.0895 57.0617,80.7562 63.5,82.5 Z"/></g>
<g><path style="opacity:1" fill="#1d140c" d="M 230.5,74.5 C 223.359,78.9932 215.693,82.3265 207.5,84.5C 207.918,87.4389 209.418,89.7722 212,91.5C 213.429,99.1188 213.762,106.785 213,114.5C 210.233,119.651 208.567,118.985 208,112.5C 207.163,114.351 206.329,116.184 205.5,118C 203.613,118.78 201.946,118.613 200.5,117.5C 197.01,115.66 193.343,113.993 189.5,112.5C 187.565,108.723 185.398,105.057 183,101.5C 184.027,95.5526 185.194,89.5526 186.5,83.5C 185.209,83.7373 184.209,83.404 183.5,82.5C 188.04,83.8195 192.706,84.6529 197.5,85C 196.737,85.9435 195.737,86.4435 194.5,86.5C 192.845,85.772 191.179,85.6053 189.5,86C 195.712,90.5608 201.878,95.0608 208,99.5C 208.658,97.892 208.158,96.7253 206.5,96C 208.578,94.7303 208.912,93.2303 207.5,91.5C 206.424,88.3516 205.091,85.3516 203.5,82.5C 206.877,82.0405 210.211,81.3739 213.5,80.5C 217.825,79.4295 221.825,77.7629 225.5,75.5C 227.117,74.962 228.784,74.6287 230.5,74.5 Z"/></g>
<g><path style="opacity:1" fill="#543a1d" d="M 255.5,100.5 C 255.5,101.833 255.5,103.167 255.5,104.5C 251.5,107.833 247.5,111.167 243.5,114.5C 243.167,114.5 242.833,114.5 242.5,114.5C 242.5,114.167 242.5,113.833 242.5,113.5C 246.473,108.86 250.806,104.527 255.5,100.5 Z"/></g>
<g><path style="opacity:1" fill="#464021" d="M 98.5,91.5 C 99.209,90.596 100.209,90.2627 101.5,90.5C 101.051,92.9775 101.717,94.9775 103.5,96.5C 104.666,94.8327 104.666,93.166 103.5,91.5C 104.552,91.3505 105.552,91.5172 106.5,92C 105.748,92.6708 105.414,93.5041 105.5,94.5C 104.671,97.4686 104.505,100.469 105,103.5C 106.333,104.833 107.667,104.833 109,103.5C 109.494,105.134 109.66,106.801 109.5,108.5C 107.986,107.32 106.319,106.32 104.5,105.5C 103.32,101.883 101.653,98.5495 99.5,95.5C 99.7678,93.901 99.4345,92.5676 98.5,91.5 Z"/></g>
<g><path style="opacity:1" fill="#be9b33" d="M 121.5,99.5 C 123.672,100.206 125.672,101.206 127.5,102.5C 128.833,102.5 130.167,102.5 131.5,102.5C 132.794,104.68 132.461,106.68 130.5,108.5C 130.44,107.957 130.107,107.624 129.5,107.5C 128.186,108.313 127.019,109.313 126,110.5C 125.505,108.527 125.338,106.527 125.5,104.5C 124.041,104.433 122.708,104.766 121.5,105.5C 120.709,103.309 120.709,101.309 121.5,99.5 Z"/></g>
<g><path style="opacity:1" fill="#a58f66" d="M 157.5,95.5 C 158.467,96.8062 159.801,97.4729 161.5,97.5C 162.104,103.114 162.104,108.781 161.5,114.5C 161.5,115.5 161.5,116.5 161.5,117.5C 160.026,118.436 159.026,119.77 158.5,121.5C 157.833,121.5 157.167,121.5 156.5,121.5C 156.5,121.167 156.5,120.833 156.5,120.5C 157.254,115.537 157.587,110.537 157.5,105.5C 158.995,105.585 159.995,104.919 160.5,103.5C 158.747,101.49 157.747,99.1569 157.5,96.5C 157.5,96.1667 157.5,95.8333 157.5,95.5 Z"/></g>
<g><path style="opacity:1" fill="#120c05" d="M 165.5,77.5 C 166.167,77.5 166.833,77.5 167.5,77.5C 172.498,79.9422 177.832,81.6089 183.5,82.5C 184.209,83.404 185.209,83.7373 186.5,83.5C 185.194,89.5526 184.027,95.5526 183,101.5C 185.398,105.057 187.565,108.723 189.5,112.5C 193.343,113.993 197.01,115.66 200.5,117.5C 193.214,116.172 185.881,115.672 178.5,116C 177.944,116.383 177.611,116.883 177.5,117.5C 176.833,117.5 176.167,117.5 175.5,117.5C 174.167,117.167 172.833,116.833 171.5,116.5C 174.337,111.817 176.504,106.817 178,101.5C 178.735,96.1616 179.068,90.8283 179,85.5C 178.292,84.6195 177.458,83.9528 176.5,83.5C 175.167,83.1667 173.833,82.8333 172.5,82.5C 169.461,81.99 166.461,81.3234 163.5,80.5C 163.427,78.9731 164.094,77.9731 165.5,77.5 Z"/></g>
<g><path style="opacity:1" fill="#a78445" d="M 99.5,95.5 C 101.653,98.5495 103.32,101.883 104.5,105.5C 106.319,106.32 107.986,107.32 109.5,108.5C 111.017,108.489 112.184,107.823 113,106.5C 113.495,108.473 113.662,110.473 113.5,112.5C 112.596,111.791 112.263,110.791 112.5,109.5C 110.645,109.272 109.812,109.939 110,111.5C 111.191,114.534 113.358,116.201 116.5,116.5C 117.134,120.467 119.467,122.8 123.5,123.5C 125.81,125.82 128.644,127.487 132,128.5C 133.406,127.586 134.906,126.92 136.5,126.5C 138.464,128.127 139.797,130.127 140.5,132.5C 137.924,132.532 135.591,131.865 133.5,130.5C 130.675,130.919 128.509,129.919 127,127.5C 124.761,128.869 122.927,128.369 121.5,126C 119.866,125.506 118.199,125.34 116.5,125.5C 116.167,123.5 115.833,121.5 115.5,119.5C 114.325,119.719 113.325,119.386 112.5,118.5C 109.101,114.711 105.934,110.711 103,106.5C 102.333,107.5 102.333,108.5 103,109.5C 105.423,111.595 106.256,113.928 105.5,116.5C 104.525,114.205 103.192,112.205 101.5,110.5C 100.137,105.578 98.4702,100.745 96.5,96C 97.1765,94.3167 98.1765,94.1501 99.5,95.5 Z"/></g>
<g><path style="opacity:1" fill="#7f631f" d="M 137.5,105.5 C 138.167,105.5 138.833,105.5 139.5,105.5C 138.176,111.777 137.176,118.11 136.5,124.5C 135.833,124.5 135.167,124.5 134.5,124.5C 135.88,118.262 136.88,111.928 137.5,105.5 Z"/></g>
<g><path style="opacity:1" fill="#38331b" d="M 113.5,112.5 C 113.62,113.586 114.287,114.253 115.5,114.5C 116.713,114.253 117.38,113.586 117.5,112.5C 118.622,114.288 118.789,116.288 118,118.5C 117.722,117.584 117.222,116.918 116.5,116.5C 113.358,116.201 111.191,114.534 110,111.5C 109.812,109.939 110.645,109.272 112.5,109.5C 112.263,110.791 112.596,111.791 113.5,112.5 Z"/></g>
<g><path style="opacity:1" fill="#ba932e" d="M 157.5,105.5 C 157.587,110.537 157.254,115.537 156.5,120.5C 155.681,117.695 155.181,114.695 155,111.5C 153.299,114.356 151.966,117.356 151,120.5C 150.667,118.833 150.333,117.167 150,115.5C 148.638,118.647 147.805,121.98 147.5,125.5C 146.984,127.2 145.984,128.533 144.5,129.5C 143.641,127 142.641,124.667 141.5,122.5C 142.803,113.285 143.47,113.285 143.5,122.5C 144.5,122.5 145.5,122.5 146.5,122.5C 147.096,117.986 148.263,113.652 150,109.5C 150.498,106.183 150.665,102.85 150.5,99.5C 151.222,99.0825 151.722,98.4158 152,97.5C 154.393,99.6188 155.726,102.285 156,105.5C 156.69,104.262 157.19,104.262 157.5,105.5 Z"/></g>
<g><path style="opacity:1" fill="#291000" d="M 28.5,142.5 C 28.5,142.833 28.5,143.167 28.5,143.5C 20.1667,143.5 11.8333,143.5 3.5,143.5C 7.88981,138.603 11.7231,133.27 15,127.5C 15.8304,122.857 16.4971,118.19 17,113.5C 18.6995,112.594 20.5328,112.261 22.5,112.5C 23.3597,115.911 24.5263,119.244 26,122.5C 26.0624,129.305 26.8957,135.972 28.5,142.5 Z"/></g>
<g><path style="opacity:1" fill="#45321c" d="M 73.5,92.5 C 73.8333,92.5 74.1667,92.5 74.5,92.5C 76.2516,94.2459 77.5849,96.2459 78.5,98.5C 75.6679,95.6221 74.0012,96.2888 73.5,100.5C 70.7139,102.113 68.0472,103.946 65.5,106C 64.5494,106.718 64.3828,107.551 65,108.5C 70.3708,115.217 76.8708,120.383 84.5,124C 89.1599,125.161 91.1599,123.328 90.5,118.5C 92.0075,120.181 93.0075,122.181 93.5,124.5C 93.2865,126.144 93.6198,127.644 94.5,129C 88.2987,129.38 82.632,127.713 77.5,124C 72.6667,119.833 67.8333,115.667 63,111.5C 63.0464,109.687 62.8797,108.021 62.5,106.5C 61.2736,107.363 59.9403,107.363 58.5,106.5C 58.5,106.167 58.5,105.833 58.5,105.5C 60.3885,104.396 62.0552,103.063 63.5,101.5C 67.7443,99.3995 71.0777,96.3995 73.5,92.5 Z"/></g>
<g><path style="opacity:1" fill="#1a130a" d="M 58.5,106.5 C 59.9403,107.363 61.2736,107.363 62.5,106.5C 62.8797,108.021 63.0464,109.687 63,111.5C 67.8333,115.667 72.6667,119.833 77.5,124C 82.632,127.713 88.2987,129.38 94.5,129C 93.6198,127.644 93.2865,126.144 93.5,124.5C 95.9931,127.484 95.9931,130.484 93.5,133.5C 80.751,129.956 70.0844,123.123 61.5,113C 60.1807,112.805 58.8474,112.972 57.5,113.5C 55.9826,113.511 54.8159,114.177 54,115.5C 51.834,114.269 49.6674,113.269 47.5,112.5C 48.791,112.737 49.791,112.404 50.5,111.5C 52.754,110.876 54.4206,109.543 55.5,107.5C 56.391,106.89 57.391,106.557 58.5,106.5 Z"/></g>
<g><path style="opacity:1" fill="#896436" d="M 78.5,98.5 C 82.4942,102.479 85.4942,107.145 87.5,112.5C 87.3573,114.262 87.6906,115.929 88.5,117.5C 87.6667,117.833 86.8333,118.167 86,118.5C 80.976,116.502 76.1427,114.002 71.5,111C 70.4464,109.612 70.2797,108.112 71,106.5C 72.6665,107.34 72.8331,106.84 71.5,105C 72.5822,103.67 73.2488,102.17 73.5,100.5C 74.0012,96.2888 75.6679,95.6221 78.5,98.5 Z"/></g>
<g><path style="opacity:1" fill="#dcbc42" d="M 150.5,99.5 C 150.665,102.85 150.498,106.183 150,109.5C 148.263,113.652 147.096,117.986 146.5,122.5C 145.5,122.5 144.5,122.5 143.5,122.5C 143.47,113.285 142.803,113.285 141.5,122.5C 141.5,123.833 141.5,125.167 141.5,126.5C 139.833,126.5 138.167,126.5 136.5,126.5C 136.5,125.833 136.5,125.167 136.5,124.5C 137.176,118.11 138.176,111.777 139.5,105.5C 139.393,103.097 140.393,101.264 142.5,100C 143.742,99.6886 144.742,100.189 145.5,101.5C 146.665,100.509 147.832,99.5089 149,98.5C 149.765,98.5699 150.265,98.9033 150.5,99.5 Z"/></g>
<g><path style="opacity:1" fill="#785831" d="M 73.5,100.5 C 73.2488,102.17 72.5822,103.67 71.5,105C 72.8331,106.84 72.6665,107.34 71,106.5C 70.2797,108.112 70.4464,109.612 71.5,111C 76.1427,114.002 80.976,116.502 86,118.5C 86.8333,118.167 87.6667,117.833 88.5,117.5C 87.6906,115.929 87.3573,114.262 87.5,112.5C 89.0075,114.181 90.0075,116.181 90.5,118.5C 91.1599,123.328 89.1599,125.161 84.5,124C 76.8708,120.383 70.3708,115.217 65,108.5C 64.3828,107.551 64.5494,106.718 65.5,106C 68.0472,103.946 70.7139,102.113 73.5,100.5 Z"/></g>
<g><path style="opacity:1" fill="#e1c54a" d="M 105.5,94.5 C 105.833,94.5 106.167,94.5 106.5,94.5C 107.631,97.3932 109.631,99.3932 112.5,100.5C 114.167,101.167 115.833,101.833 117.5,102.5C 118.167,102.5 118.833,102.5 119.5,102.5C 119.932,103.71 120.599,104.71 121.5,105.5C 122.708,104.766 124.041,104.433 125.5,104.5C 125.338,106.527 125.505,108.527 126,110.5C 127.019,109.313 128.186,108.313 129.5,107.5C 130.107,107.624 130.44,107.957 130.5,108.5C 130.5,109.833 130.5,111.167 130.5,112.5C 129.366,115.37 128.7,118.37 128.5,121.5C 127.5,121.5 126.5,121.5 125.5,121.5C 125.665,118.15 125.498,114.817 125,111.5C 123.872,113.345 123.372,115.345 123.5,117.5C 123.5,118.167 123.5,118.833 123.5,119.5C 122.292,120.234 120.959,120.567 119.5,120.5C 119.666,116.486 119.499,112.486 119,108.5C 118.209,109.745 117.709,111.078 117.5,112.5C 117.38,113.586 116.713,114.253 115.5,114.5C 114.287,114.253 113.62,113.586 113.5,112.5C 113.662,110.473 113.495,108.473 113,106.5C 112.184,107.823 111.017,108.489 109.5,108.5C 109.66,106.801 109.494,105.134 109,103.5C 107.667,104.833 106.333,104.833 105,103.5C 104.505,100.469 104.671,97.4686 105.5,94.5 Z"/></g>
<g><path style="opacity:1" fill="#e1c547" d="M 137.5,105.5 C 136.88,111.928 135.88,118.262 134.5,124.5C 132.833,127.167 131.167,127.167 129.5,124.5C 129.53,120.382 130.197,116.382 131.5,112.5C 133.226,110.18 133.893,107.513 133.5,104.5C 135.099,104.232 136.432,104.566 137.5,105.5 Z"/></g>
<g><path style="opacity:1" fill="#a1793f" d="M 255.5,104.5 C 255.5,113.167 255.5,121.833 255.5,130.5C 250.973,132.595 246.639,134.928 242.5,137.5C 238.642,138.012 234.809,138.678 231,139.5C 224.9,140.085 223.233,137.752 226,132.5C 229.621,130.602 232.788,128.102 235.5,125C 235.167,124.667 234.833,124.333 234.5,124C 237.704,120.964 240.704,117.797 243.5,114.5C 247.5,111.167 251.5,107.833 255.5,104.5 Z"/></g>
<g><path style="opacity:1" fill="#9c7f28" d="M 130.5,112.5 C 130.833,112.5 131.167,112.5 131.5,112.5C 130.197,116.382 129.53,120.382 129.5,124.5C 128.778,124.082 128.278,123.416 128,122.5C 127,123.833 126,123.833 125,122.5C 124.802,120.618 124.302,118.952 123.5,117.5C 123.372,115.345 123.872,113.345 125,111.5C 125.498,114.817 125.665,118.15 125.5,121.5C 126.5,121.5 127.5,121.5 128.5,121.5C 128.7,118.37 129.366,115.37 130.5,112.5 Z"/></g>
<g><path style="opacity:1" fill="#200f00" d="M 242.5,113.5 C 242.5,113.833 242.5,114.167 242.5,114.5C 237.167,119.5 231.833,124.5 226.5,129.5C 223.327,126.511 222.994,123.345 225.5,120C 224.906,119.536 224.239,119.369 223.5,119.5C 229.846,117.843 236.179,115.843 242.5,113.5 Z"/></g>
<g><path style="opacity:1" fill="#715a26" d="M 123.5,119.5 C 123.5,120.833 123.5,122.167 123.5,123.5C 119.467,122.8 117.134,120.467 116.5,116.5C 117.222,116.918 117.722,117.584 118,118.5C 118.789,116.288 118.622,114.288 117.5,112.5C 117.709,111.078 118.209,109.745 119,108.5C 119.499,112.486 119.666,116.486 119.5,120.5C 120.959,120.567 122.292,120.234 123.5,119.5 Z"/></g>
<g><path style="opacity:1" fill="#2c1f0f" d="M -0.5,138.5 C -0.5,131.5 -0.5,124.5 -0.5,117.5C 1.5,117.167 3.5,116.833 5.5,116.5C 4.25549,122.568 3.42215,128.568 3,134.5C 2.34001,136.324 1.17335,137.657 -0.5,138.5 Z"/></g>
<g><path style="opacity:1" fill="#523600" d="M 175.5,117.5 C 176.167,117.5 176.833,117.5 177.5,117.5C 181.5,119.833 185.5,122.167 189.5,124.5C 190.496,129.728 191.329,135.062 192,140.5C 192.698,141.691 193.531,142.691 194.5,143.5C 187.167,143.5 179.833,143.5 172.5,143.5C 172.826,141.339 173.826,139.506 175.5,138C 175.507,136.417 175.174,134.751 174.5,133C 177.084,128.864 177.084,124.364 174.5,119.5C 174.863,118.817 175.196,118.15 175.5,117.5 Z"/></g>
<g><path style="opacity:1" fill="#311e00" d="M 223.5,119.5 C 224.239,119.369 224.906,119.536 225.5,120C 222.994,123.345 223.327,126.511 226.5,129.5C 221.859,133.805 217.193,138.139 212.5,142.5C 211.252,141.666 210.585,140.333 210.5,138.5C 209.851,135.902 209.851,133.402 210.5,131C 208.812,128.805 208.145,126.638 208.5,124.5C 213.14,122.027 218.14,120.36 223.5,119.5 Z"/></g>
<g><path style="opacity:1" fill="#3d2f14" d="M 123.5,117.5 C 124.302,118.952 124.802,120.618 125,122.5C 126,123.833 127,123.833 128,122.5C 128.278,123.416 128.778,124.082 129.5,124.5C 131.167,127.167 132.833,127.167 134.5,124.5C 135.167,124.5 135.833,124.5 136.5,124.5C 136.5,125.167 136.5,125.833 136.5,126.5C 134.906,126.92 133.406,127.586 132,128.5C 128.644,127.487 125.81,125.82 123.5,123.5C 123.5,122.167 123.5,120.833 123.5,119.5C 123.5,118.833 123.5,118.167 123.5,117.5 Z"/></g>
<g><path style="opacity:1" fill="#996d1f" d="M 156.5,120.5 C 156.5,120.833 156.5,121.167 156.5,121.5C 155.007,123.932 153.007,125.932 150.5,127.5C 149.482,126.807 148.482,126.141 147.5,125.5C 147.805,121.98 148.638,118.647 150,115.5C 150.333,117.167 150.667,118.833 151,120.5C 151.966,117.356 153.299,114.356 155,111.5C 155.181,114.695 155.681,117.695 156.5,120.5 Z"/></g>
<g><path style="opacity:1" fill="#412a00" d="M 208.5,124.5 C 208.145,126.638 208.812,128.805 210.5,131C 209.851,133.402 209.851,135.902 210.5,138.5C 210.585,140.333 211.252,141.666 212.5,142.5C 212.5,142.833 212.5,143.167 212.5,143.5C 206.5,143.5 200.5,143.5 194.5,143.5C 193.531,142.691 192.698,141.691 192,140.5C 191.329,135.062 190.496,129.728 189.5,124.5C 192.156,123.842 194.822,123.175 197.5,122.5C 201.097,123.589 204.763,124.255 208.5,124.5 Z"/></g>
<g><path style="opacity:1" fill="#2e2414" d="M 57.5,114.5 C 59.7441,120.824 62.4108,126.991 65.5,133C 64.1387,134.584 63.472,136.418 63.5,138.5C 59.1355,136.229 54.9688,133.562 51,130.5C 50.6905,129.234 50.1905,128.067 49.5,127C 50.7441,126.544 51.5774,127.044 52,128.5C 52.5946,127.101 52.4279,125.768 51.5,124.5C 52.0253,123.808 52.6919,123.308 53.5,123C 53.5302,121.571 53.1969,120.071 52.5,118.5C 54.1667,117.167 55.8333,115.833 57.5,114.5 Z"/></g>
<g><path style="opacity:1" fill="#7e572a" d="M 133.5,130.5 C 133.134,131.695 132.301,132.361 131,132.5C 127.838,130.47 124.504,128.803 121,127.5C 120.652,129.14 121.152,130.473 122.5,131.5C 124.68,133.288 127.013,134.955 129.5,136.5C 130.743,140.307 130.076,140.474 127.5,137C 124.086,136.703 120.753,136.036 117.5,135C 115.234,132.609 113.067,130.109 111,127.5C 109.385,123.72 107.552,120.054 105.5,116.5C 106.256,113.928 105.423,111.595 103,109.5C 102.333,108.5 102.333,107.5 103,106.5C 105.934,110.711 109.101,114.711 112.5,118.5C 113.325,119.386 114.325,119.719 115.5,119.5C 115.833,121.5 116.167,123.5 116.5,125.5C 118.199,125.34 119.866,125.506 121.5,126C 122.927,128.369 124.761,128.869 127,127.5C 128.509,129.919 130.675,130.919 133.5,130.5 Z"/></g>
<g><path style="opacity:1" fill="#62421f" d="M 96.5,106.5 C 98.1541,107.75 99.8207,109.084 101.5,110.5C 103.192,112.205 104.525,114.205 105.5,116.5C 107.552,120.054 109.385,123.72 111,127.5C 113.067,130.109 115.234,132.609 117.5,135C 120.753,136.036 124.086,136.703 127.5,137C 130.076,140.474 130.743,140.307 129.5,136.5C 132.421,136.146 134.754,137.146 136.5,139.5C 134.997,140.557 133.33,141.224 131.5,141.5C 126.741,139.109 121.741,137.276 116.5,136C 111.213,132.217 106.88,127.717 103.5,122.5C 101.164,117.162 98.8308,111.829 96.5,106.5 Z"/></g>
<g><path style="opacity:1" fill="#654300" d="M 171.5,116.5 C 172.833,116.833 174.167,117.167 175.5,117.5C 175.196,118.15 174.863,118.817 174.5,119.5C 177.084,124.364 177.084,128.864 174.5,133C 175.174,134.751 175.507,136.417 175.5,138C 173.826,139.506 172.826,141.339 172.5,143.5C 169.5,143.5 166.5,143.5 163.5,143.5C 162.723,137.178 162.556,130.845 163,124.5C 166.359,122.305 169.193,119.638 171.5,116.5 Z"/></g>
<g><path style="opacity:1" fill="#2c1f0f" d="M 176.5,83.5 C 177.458,83.9528 178.292,84.6195 179,85.5C 179.068,90.8283 178.735,96.1616 178,101.5C 176.504,106.817 174.337,111.817 171.5,116.5C 169.193,119.638 166.359,122.305 163,124.5C 162.556,130.845 162.723,137.178 163.5,143.5C 159.167,143.5 154.833,143.5 150.5,143.5C 150.678,142.305 151.011,141.138 151.5,140C 150.616,138.902 149.616,138.402 148.5,138.5C 150.278,136.736 151.611,134.736 152.5,132.5C 153.451,130.38 154.951,128.714 157,127.5C 158.128,125.655 158.628,123.655 158.5,121.5C 159.026,119.77 160.026,118.436 161.5,117.5C 162.833,117.5 164.167,117.5 165.5,117.5C 165.337,115.143 165.503,112.81 166,110.5C 169.537,107.242 172.537,103.575 175,99.5C 176.271,94.2461 176.771,88.9127 176.5,83.5 Z"/></g>
<g><path style="opacity:1" fill="#815c2f" d="M 242.5,114.5 C 242.833,114.5 243.167,114.5 243.5,114.5C 240.704,117.797 237.704,120.964 234.5,124C 234.833,124.333 235.167,124.667 235.5,125C 232.788,128.102 229.621,130.602 226,132.5C 223.233,137.752 224.9,140.085 231,139.5C 234.809,138.678 238.642,138.012 242.5,137.5C 239.329,139.717 235.663,140.884 231.5,141C 230.944,141.383 230.611,141.883 230.5,142.5C 229.833,142.5 229.5,142.833 229.5,143.5C 223.833,143.5 218.167,143.5 212.5,143.5C 212.5,143.167 212.5,142.833 212.5,142.5C 217.193,138.139 221.859,133.805 226.5,129.5C 231.833,124.5 237.167,119.5 242.5,114.5 Z"/></g>
<g><path style="opacity:1" fill="#664620" d="M 156.5,121.5 C 157.167,121.5 157.833,121.5 158.5,121.5C 158.628,123.655 158.128,125.655 157,127.5C 154.951,128.714 153.451,130.38 152.5,132.5C 149.678,132.678 147.011,133.345 144.5,134.5C 139.186,133.822 133.852,133.322 128.5,133C 126.649,132.163 124.816,131.329 123,130.5C 122.601,130.728 122.435,131.062 122.5,131.5C 121.152,130.473 120.652,129.14 121,127.5C 124.504,128.803 127.838,130.47 131,132.5C 132.301,132.361 133.134,131.695 133.5,130.5C 135.591,131.865 137.924,132.532 140.5,132.5C 139.797,130.127 138.464,128.127 136.5,126.5C 138.167,126.5 139.833,126.5 141.5,126.5C 141.5,125.167 141.5,123.833 141.5,122.5C 142.641,124.667 143.641,127 144.5,129.5C 145.984,128.533 146.984,127.2 147.5,125.5C 148.482,126.141 149.482,126.807 150.5,127.5C 153.007,125.932 155.007,123.932 156.5,121.5 Z"/></g>
<g><path style="opacity:1" fill="#46351d" d="M 93.5,133.5 C 95.0174,133.511 96.1841,134.177 97,135.5C 98.4538,138.071 99.6205,140.738 100.5,143.5C 91.8333,143.5 83.1667,143.5 74.5,143.5C 70.9605,141.649 67.2938,139.982 63.5,138.5C 63.472,136.418 64.1387,134.584 65.5,133C 62.4108,126.991 59.7441,120.824 57.5,114.5C 57.5,114.167 57.5,113.833 57.5,113.5C 58.8474,112.972 60.1807,112.805 61.5,113C 70.0844,123.123 80.751,129.956 93.5,133.5 Z"/></g>
<g><path style="opacity:1" fill="#240c02" d="M 255.5,135.5 C 255.5,138.167 255.5,140.833 255.5,143.5C 246.833,143.5 238.167,143.5 229.5,143.5C 229.5,142.833 229.833,142.5 230.5,142.5C 239.122,141.181 247.455,138.848 255.5,135.5 Z"/></g>
<g><path style="opacity:1" fill="#5c4222" d="M 255.5,130.5 C 255.5,132.167 255.5,133.833 255.5,135.5C 247.455,138.848 239.122,141.181 230.5,142.5C 230.611,141.883 230.944,141.383 231.5,141C 235.663,140.884 239.329,139.717 242.5,137.5C 246.639,134.928 250.973,132.595 255.5,130.5 Z"/></g>
<g><path style="opacity:1" fill="#432d15" d="M 103.5,122.5 C 106.88,127.717 111.213,132.217 116.5,136C 121.741,137.276 126.741,139.109 131.5,141.5C 133.33,141.224 134.997,140.557 136.5,139.5C 134.754,137.146 132.421,136.146 129.5,136.5C 127.013,134.955 124.68,133.288 122.5,131.5C 122.435,131.062 122.601,130.728 123,130.5C 124.816,131.329 126.649,132.163 128.5,133C 133.852,133.322 139.186,133.822 144.5,134.5C 147.011,133.345 149.678,132.678 152.5,132.5C 151.611,134.736 150.278,136.736 148.5,138.5C 149.616,138.402 150.616,138.902 151.5,140C 151.011,141.138 150.678,142.305 150.5,143.5C 137.833,143.5 125.167,143.5 112.5,143.5C 110.33,136.158 107.33,129.158 103.5,122.5 Z"/></g>
<g><path style="opacity:1" fill="#1f160c" d="M 52.5,118.5 C 53.1969,120.071 53.5302,121.571 53.5,123C 52.6919,123.308 52.0253,123.808 51.5,124.5C 52.4279,125.768 52.5946,127.101 52,128.5C 51.5774,127.044 50.7441,126.544 49.5,127C 50.1905,128.067 50.6905,129.234 51,130.5C 54.9688,133.562 59.1355,136.229 63.5,138.5C 67.2938,139.982 70.9605,141.649 74.5,143.5C 59.1667,143.5 43.8333,143.5 28.5,143.5C 28.5,143.167 28.5,142.833 28.5,142.5C 30.1765,141.817 30.8432,140.483 30.5,138.5C 33.4816,139.406 36.315,140.74 39,142.5C 39.5,142.167 40,141.833 40.5,141.5C 35.5267,136.882 31.5267,131.549 28.5,125.5C 29.5019,123.49 30.5019,121.49 31.5,119.5C 34.6872,122.853 37.6872,126.353 40.5,130C 45.6332,132.735 50.6332,135.735 55.5,139C 57.4021,140.301 59.4021,140.968 61.5,141C 55.0725,136.577 49.2392,131.41 44,125.5C 42.4866,122.476 40.4866,119.809 38,117.5C 36.2308,113.526 34.8975,109.526 34,105.5C 38.1329,110.634 42.6329,115.468 47.5,120C 49.4952,120.613 51.1619,120.113 52.5,118.5 Z"/></g>
</svg>
