<?xml version="1.0" encoding="UTF-8"?>
<!DOCTYPE svg PUBLIC "-//W3C//DTD SVG 1.1//EN" "http://www.w3.org/Graphics/SVG/1.1/DTD/svg11.dtd">
<svg xmlns="http://www.w3.org/2000/svg" version="1.1" width="256px" height="144px" style="shape-rendering:geometricPrecision; text-rendering:geometricPrecision; image-rendering:optimizeQuality; fill-rule:evenodd; clip-rule:evenodd" xmlns:xlink="http://www.w3.org/1999/xlink">
<g><path style="opacity:1" fill="#d88c2f" d="M -0.5,-0.5 C 5.83333,-0.5 12.1667,-0.5 18.5,-0.5C 18.6992,5.55928 19.3658,11.5593 20.5,17.5C 19.0165,22.0327 18.3498,26.6993 18.5,31.5C 18.9926,33.8056 19.3259,36.139 19.5,38.5C 19.0008,44.2153 19.6674,49.8819 21.5,55.5C 21.5079,58.5448 21.8413,61.5448 22.5,64.5C 21.391,64.5569 20.391,64.8902 19.5,65.5C 16.8864,66.8068 14.2198,68.1401 11.5,69.5C 9.56751,68.4798 7.56751,68.3131 5.5,69C 3.36056,71.4784 1.36056,73.9784 -0.5,76.5C -0.5,50.8333 -0.5,25.1667 -0.5,-0.5 Z"/></g>
<g><path style="opacity:1" fill="#525251" d="M 68.5,-0.5 C 76.5,-0.5 84.5,-0.5 92.5,-0.5C 93.8775,0.234419 95.3775,0.901085 97,1.5C 97.5802,6.66901 95.0802,10.169 89.5,12C 92.6752,11.9467 95.3419,12.78 97.5,14.5C 94.7628,14.4013 92.0961,14.7347 89.5,15.5C 89.2435,13.2239 87.9102,12.0572 85.5,12C 87.0249,10.9914 88.6916,10.4914 90.5,10.5C 90.585,8.07122 91.585,6.07122 93.5,4.5C 91.3652,3.35464 89.1986,3.35464 87,4.5C 85.5,4 84,3.5 82.5,3C 82.8333,2.66667 83.1667,2.33333 83.5,2C 78.1294,0.385411 72.7961,0.385411 67.5,2C 66.8333,3 66.1667,4 65.5,5C 69.1189,7.02425 69.2856,9.19092 66,11.5C 64.3908,10.8499 62.8908,11.3499 61.5,13C 62.3366,14.0113 62.67,15.1779 62.5,16.5C 63.5,16.5 64.5,16.5 65.5,16.5C 65.5,17.5 65.5,18.5 65.5,19.5C 63.1046,20.3635 60.7713,20.3635 58.5,19.5C 57.7366,18.2807 56.7366,17.2807 55.5,16.5C 56.7468,14.9579 56.7468,13.4579 55.5,12C 56.3333,10.5 57.5,9.33333 59,8.5C 58.8266,1.83757 61.9933,-1.16243 68.5,-0.5 Z"/></g>
<g><path style="opacity:1" fill="#35230f" d="M 156.5,-0.5 C 159.833,-0.5 163.167,-0.5 166.5,-0.5C 188.372,4.88115 210.372,11.3812 232.5,19C 240.082,22.765 247.749,26.265 255.5,29.5C 255.5,31.1667 255.5,32.8333 255.5,34.5C 250.466,32.6555 246.133,29.8222 242.5,26C 234.5,22.6667 226.5,19.3333 218.5,16C 197.349,9.73965 176.682,4.23965 156.5,-0.5 Z"/></g>
<g><path style="opacity:1" fill="#2a1c0d" d="M 166.5,-0.5 C 173.167,-0.5 179.833,-0.5 186.5,-0.5C 187.078,1.44349 188.078,1.77682 189.5,0.5C 192.053,1.80486 194.72,2.80486 197.5,3.5C 199.378,3.37747 201.211,3.37747 203,3.5C 203.317,5.30077 203.984,5.63411 205,4.5C 207.559,5.97995 210.226,7.31328 213,8.5C 213.414,8.04265 213.914,7.70931 214.5,7.5C 216.838,8.61622 219.004,9.94955 221,11.5C 221.414,11.0426 221.914,10.7093 222.5,10.5C 234.364,14.6296 245.364,19.6296 255.5,25.5C 255.5,26.8333 255.5,28.1667 255.5,29.5C 247.749,26.265 240.082,22.765 232.5,19C 210.372,11.3812 188.372,4.88115 166.5,-0.5 Z"/></g>
<g><path style="opacity:1" fill="#1d140b" d="M 186.5,-0.5 C 195.5,-0.5 204.5,-0.5 213.5,-0.5C 220.117,2.48865 226.783,5.48865 233.5,8.5C 235.07,8.30618 236.57,8.30618 238,8.5C 242.049,10.1993 245.882,12.366 249.5,15C 250.784,15.6838 251.951,15.5171 253,14.5C 253.377,15.9423 254.21,16.9423 255.5,17.5C 255.5,20.1667 255.5,22.8333 255.5,25.5C 245.364,19.6296 234.364,14.6296 222.5,10.5C 221.914,10.7093 221.414,11.0426 221,11.5C 219.004,9.94955 216.838,8.61622 214.5,7.5C 213.914,7.70931 213.414,8.04265 213,8.5C 210.226,7.31328 207.559,5.97995 205,4.5C 203.984,5.63411 203.317,5.30077 203,3.5C 201.211,3.37747 199.378,3.37747 197.5,3.5C 194.72,2.80486 192.053,1.80486 189.5,0.5C 188.078,1.77682 187.078,1.44349 186.5,-0.5 Z"/></g>
<g><path style="opacity:1" fill="#140e09" d="M 213.5,-0.5 C 227.5,-0.5 241.5,-0.5 255.5,-0.5C 255.5,5.5 255.5,11.5 255.5,17.5C 254.21,16.9423 253.377,15.9423 253,14.5C 251.951,15.5171 250.784,15.6838 249.5,15C 245.882,12.366 242.049,10.1993 238,8.5C 236.57,8.30618 235.07,8.30618 233.5,8.5C 226.783,5.48865 220.117,2.48865 213.5,-0.5 Z"/></g>
<g><path style="opacity:1" fill="#5d5648" d="M 23.5,-0.5 C 24.5,-0.5 25.5,-0.5 26.5,-0.5C 26.3686,3.95224 25.702,8.28557 24.5,12.5C 23.5151,8.36559 23.1818,4.03225 23.5,-0.5 Z"/></g>
<g><path style="opacity:1" fill="#5e5f5d" d="M 89.5,15.5 C 81.9453,16.2221 74.612,17.8888 67.5,20.5C 66.5084,20.6716 65.8417,20.3382 65.5,19.5C 65.5,18.5 65.5,17.5 65.5,16.5C 64.5,16.5 63.5,16.5 62.5,16.5C 62.67,15.1779 62.3366,14.0113 61.5,13C 62.8908,11.3499 64.3908,10.8499 66,11.5C 69.2856,9.19092 69.1189,7.02425 65.5,5C 66.1667,4 66.8333,3 67.5,2C 72.7961,0.385411 78.1294,0.385411 83.5,2C 83.1667,2.33333 82.8333,2.66667 82.5,3C 84,3.5 85.5,4 87,4.5C 89.1986,3.35464 91.3652,3.35464 93.5,4.5C 91.585,6.07122 90.585,8.07122 90.5,10.5C 88.6916,10.4914 87.0249,10.9914 85.5,12C 87.9102,12.0572 89.2435,13.2239 89.5,15.5 Z"/></g>
<g><path style="opacity:1" fill="#34302b" d="M 108.5,-0.5 C 109.833,-0.5 111.167,-0.5 112.5,-0.5C 112.704,2.51763 113.037,5.51763 113.5,8.5C 113.292,10.9201 113.626,13.2534 114.5,15.5C 114.043,16.2975 113.376,16.6309 112.5,16.5C 102.306,18.336 91.9722,19.0027 81.5,18.5C 76.8333,19.5 72.1667,20.5 67.5,21.5C 67.5,21.1667 67.5,20.8333 67.5,20.5C 74.612,17.8888 81.9453,16.2221 89.5,15.5C 92.0961,14.7347 94.7628,14.4013 97.5,14.5C 100.167,14.5 102.833,14.5 105.5,14.5C 105.5,13.1667 105.5,11.8333 105.5,10.5C 106.833,10.5 108.167,10.5 109.5,10.5C 109.577,6.78519 109.244,3.11853 108.5,-0.5 Z"/></g>
<g><path style="opacity:1" fill="#403f3e" d="M 92.5,-0.5 C 97.8333,-0.5 103.167,-0.5 108.5,-0.5C 109.244,3.11853 109.577,6.78519 109.5,10.5C 108.167,10.5 106.833,10.5 105.5,10.5C 105.5,11.8333 105.5,13.1667 105.5,14.5C 102.833,14.5 100.167,14.5 97.5,14.5C 95.3419,12.78 92.6752,11.9467 89.5,12C 95.0802,10.169 97.5802,6.66901 97,1.5C 95.3775,0.901085 93.8775,0.234419 92.5,-0.5 Z"/></g>
<g><path style="opacity:1" fill="#aba48e" d="M 26.5,-0.5 C 29.5,-0.5 32.5,-0.5 35.5,-0.5C 32.4295,4.51609 29.2628,9.51609 26,14.5C 25.126,18.2876 23.9593,21.9543 22.5,25.5C 21.4561,27.8147 20.1228,29.8147 18.5,31.5C 18.3498,26.6993 19.0165,22.0327 20.5,17.5C 22.0627,16.0552 23.396,14.3885 24.5,12.5C 25.702,8.28557 26.3686,3.95224 26.5,-0.5 Z"/></g>
<g><path style="opacity:1" fill="#56483b" d="M 119.5,-0.5 C 123.5,-0.5 127.5,-0.5 131.5,-0.5C 130.748,2.09026 129.748,4.59026 128.5,7C 129.25,10.1635 129.916,13.3301 130.5,16.5C 132.39,16.7035 133.89,16.0368 135,14.5C 134.526,9.44577 134.359,4.44577 134.5,-0.5C 134.833,-0.5 135.167,-0.5 135.5,-0.5C 135.932,0.709515 136.599,1.70951 137.5,2.5C 137.796,4.40301 138.463,6.06967 139.5,7.5C 139.5,8.5 139.5,9.5 139.5,10.5C 139.768,12.099 139.434,13.4324 138.5,14.5C 138.318,9.20631 137.818,9.20631 137,14.5C 135.429,16.9229 133.263,18.2562 130.5,18.5C 130.279,20.6636 129.279,22.3303 127.5,23.5C 127.5,22.8333 127.5,22.1667 127.5,21.5C 127.406,14.1199 124.906,7.78657 120,2.5C 119.517,1.55198 119.351,0.551975 119.5,-0.5 Z"/></g>
<g><path style="opacity:1" fill="#b5b38b" d="M 131.5,-0.5 C 132.5,-0.5 133.5,-0.5 134.5,-0.5C 134.359,4.44577 134.526,9.44577 135,14.5C 133.89,16.0368 132.39,16.7035 130.5,16.5C 129.916,13.3301 129.25,10.1635 128.5,7C 129.748,4.59026 130.748,2.09026 131.5,-0.5 Z"/></g>
<g><path style="opacity:1" fill="#c7c497" d="M 115.5,-0.5 C 116.833,-0.5 118.167,-0.5 119.5,-0.5C 119.351,0.551975 119.517,1.55198 120,2.5C 124.906,7.78657 127.406,14.1199 127.5,21.5C 124.896,24.4464 122.729,24.1131 121,20.5C 119.854,13.2427 118.02,6.2427 115.5,-0.5 Z"/></g>
<g><path style="opacity:1" fill="#a6995e" d="M 18.5,-0.5 C 20.1667,-0.5 21.8333,-0.5 23.5,-0.5C 23.1818,4.03225 23.5151,8.36559 24.5,12.5C 23.396,14.3885 22.0627,16.0552 20.5,17.5C 19.3658,11.5593 18.6992,5.55928 18.5,-0.5 Z"/></g>
<g><path style="opacity:1" fill="#422b12" d="M 135.5,-0.5 C 142.5,-0.5 149.5,-0.5 156.5,-0.5C 176.682,4.23965 197.349,9.73965 218.5,16C 226.5,19.3333 234.5,22.6667 242.5,26C 246.133,29.8222 250.466,32.6555 255.5,34.5C 255.5,35.8333 255.5,37.1667 255.5,38.5C 249.022,34.1905 242.022,31.0239 234.5,29C 225.744,23.8015 216.411,19.8015 206.5,17C 189.986,12.2049 173.32,8.03825 156.5,4.5C 155.228,4.56983 154.062,4.90316 153,5.5C 148.208,4.10655 143.375,2.77321 138.5,1.5C 137.893,1.62358 137.56,1.95691 137.5,2.5C 136.599,1.70951 135.932,0.709515 135.5,-0.5 Z"/></g>
<g><path style="opacity:1" fill="#444241" d="M 35.5,-0.5 C 46.5,-0.5 57.5,-0.5 68.5,-0.5C 61.9933,-1.16243 58.8266,1.83757 59,8.5C 57.5,9.33333 56.3333,10.5 55.5,12C 56.7468,13.4579 56.7468,14.9579 55.5,16.5C 56.7366,17.2807 57.7366,18.2807 58.5,19.5C 60.7713,20.3635 63.1046,20.3635 65.5,19.5C 65.8417,20.3382 66.5084,20.6716 67.5,20.5C 67.5,20.8333 67.5,21.1667 67.5,21.5C 66.5,21.8333 65.8333,22.5 65.5,23.5C 64.8333,23.5 64.1667,23.5 63.5,23.5C 49.6639,23.4761 35.9972,24.1428 22.5,25.5C 23.9593,21.9543 25.126,18.2876 26,14.5C 29.2628,9.51609 32.4295,4.51609 35.5,-0.5 Z"/></g>
<g><path style="opacity:1" fill="#372f22" d="M 113.5,8.5 C 116.62,14.859 118.953,21.5257 120.5,28.5C 119.811,29.7736 118.977,29.7736 118,28.5C 116.007,31.6589 113.507,34.3255 110.5,36.5C 108.447,36.4021 106.78,37.0687 105.5,38.5C 96.7846,42.9187 88.1179,47.252 79.5,51.5C 74.3586,53.1956 69.0253,54.529 63.5,55.5C 66.5961,53.2853 69.9295,51.6186 73.5,50.5C 83.6088,47.6931 92.9422,43.3597 101.5,37.5C 101.5,36.8333 101.833,36.5 102.5,36.5C 108.395,33.2851 112.395,28.6184 114.5,22.5C 114.324,20.2147 113.657,18.2147 112.5,16.5C 113.376,16.6309 114.043,16.2975 114.5,15.5C 113.626,13.2534 113.292,10.9201 113.5,8.5 Z"/></g>
<g><path style="opacity:1" fill="#956224" d="M 160.5,15.5 C 160.209,16.6491 159.376,17.3158 158,17.5C 153.417,18.3157 148.917,19.3157 144.5,20.5C 142.088,20.3059 141.088,18.9726 141.5,16.5C 141.5,15.8333 141.5,15.1667 141.5,14.5C 141.369,13.7611 141.536,13.0944 142,12.5C 148.021,14.1941 154.187,15.1941 160.5,15.5 Z"/></g>
<g><path style="opacity:1" fill="#6f491b" d="M 255.5,41.5 C 255.5,43.5 255.5,45.5 255.5,47.5C 250.66,44.0809 245.327,41.7476 239.5,40.5C 239.167,39.5 238.5,38.8333 237.5,38.5C 230.604,36.7465 223.604,34.9131 216.5,33C 215.663,31.9887 215.33,30.8221 215.5,29.5C 213.94,29.4809 212.44,29.1476 211,28.5C 208.913,26.8742 206.747,25.3742 204.5,24C 192.044,21.7152 180.044,18.8819 168.5,15.5C 165.833,15.5 163.167,15.5 160.5,15.5C 154.187,15.1941 148.021,14.1941 142,12.5C 141.536,13.0944 141.369,13.7611 141.5,14.5C 140.833,13.1667 140.167,11.8333 139.5,10.5C 139.5,9.5 139.5,8.5 139.5,7.5C 150.395,7.64599 161.061,9.81266 171.5,14C 178.169,14.9487 184.836,15.782 191.5,16.5C 191.5,17.5 191.5,18.5 191.5,19.5C 198.502,20.748 205.169,22.9147 211.5,26C 223.478,27.497 234.478,31.497 244.5,38C 248.638,37.9362 252.304,39.1028 255.5,41.5 Z"/></g>
<g><path style="opacity:1" fill="#8e6931" d="M 81.5,18.5 C 91.002,19.3748 100.669,20.0415 110.5,20.5C 110.795,22.7354 110.461,24.7354 109.5,26.5C 109.5,24.8333 109.5,23.1667 109.5,21.5C 105.776,20.7731 103.109,22.1064 101.5,25.5C 102.689,26.4287 104.022,26.762 105.5,26.5C 105.843,28.4832 105.176,29.8166 103.5,30.5C 100.313,29.9603 97.8135,30.9603 96,33.5C 94.2874,32.8626 94.1207,31.8626 95.5,30.5C 95.0431,29.7025 94.3764,29.3691 93.5,29.5C 95.3779,28.7924 97.0445,27.6257 98.5,26C 94.7858,25.6805 91.1191,25.1805 87.5,24.5C 87.8453,21.512 86.512,20.1787 83.5,20.5C 77.4248,21.1752 71.4248,22.1752 65.5,23.5C 65.8333,22.5 66.5,21.8333 67.5,21.5C 72.1667,20.5 76.8333,19.5 81.5,18.5 Z"/></g>
<g><path style="opacity:1" fill="#7c775b" d="M 112.5,-0.5 C 113.5,-0.5 114.5,-0.5 115.5,-0.5C 118.02,6.2427 119.854,13.2427 121,20.5C 122.729,24.1131 124.896,24.4464 127.5,21.5C 127.5,22.1667 127.5,22.8333 127.5,23.5C 125.977,26.3644 123.643,28.031 120.5,28.5C 118.953,21.5257 116.62,14.859 113.5,8.5C 113.037,5.51763 112.704,2.51763 112.5,-0.5 Z"/></g>
<g><path style="opacity:1" fill="#c2bdb8" d="M 160.5,15.5 C 163.167,15.5 165.833,15.5 168.5,15.5C 170.7,17.6404 173.367,19.1404 176.5,20C 182.77,21.372 189.104,22.372 195.5,23C 196.756,23.4169 197.423,24.2502 197.5,25.5C 196.735,25.9234 195.902,26.2568 195,26.5C 183.746,23.9888 172.579,21.3222 161.5,18.5C 159.801,18.5271 158.467,19.1938 157.5,20.5C 153.779,21.1876 150.112,22.1876 146.5,23.5C 145.584,23.4573 144.917,23.1239 144.5,22.5C 144.5,21.8333 144.5,21.1667 144.5,20.5C 148.917,19.3157 153.417,18.3157 158,17.5C 159.376,17.3158 160.209,16.6491 160.5,15.5 Z"/></g>
<g><path style="opacity:1" fill="#6c5429" d="M 112.5,16.5 C 113.657,18.2147 114.324,20.2147 114.5,22.5C 112.395,28.6184 108.395,33.2851 102.5,36.5C 102.733,34.9382 103.4,33.6049 104.5,32.5C 106.914,31.0892 108.581,29.0892 109.5,26.5C 110.461,24.7354 110.795,22.7354 110.5,20.5C 100.669,20.0415 91.002,19.3748 81.5,18.5C 91.9722,19.0027 102.306,18.336 112.5,16.5 Z"/></g>
<g><path style="opacity:1" fill="#252425" d="M 161.5,18.5 C 161.5,19.8333 161.5,21.1667 161.5,22.5C 168.099,23.4219 174.432,25.2552 180.5,28C 184.821,28.499 189.154,28.6657 193.5,28.5C 190.041,34.2413 191.708,36.908 198.5,36.5C 194.223,41.6082 189.39,46.2748 184,50.5C 182.113,46.3511 182.28,42.3511 184.5,38.5C 183.998,37.479 183.332,37.3123 182.5,38C 178.123,42.043 174.956,46.8763 173,52.5C 172.261,53.5742 171.261,54.2409 170,54.5C 166.145,53.5676 163.311,51.401 161.5,48C 165.71,42.4891 166.544,36.6557 164,30.5C 162.114,31.9301 160.447,33.5968 159,35.5C 157.165,31.9563 155.998,28.2897 155.5,24.5C 156.6,23.3951 157.267,22.0618 157.5,20.5C 158.467,19.1938 159.801,18.5271 161.5,18.5 Z"/></g>
<g><path style="opacity:1" fill="#573916" d="M 255.5,38.5 C 255.5,39.5 255.5,40.5 255.5,41.5C 252.304,39.1028 248.638,37.9362 244.5,38C 234.478,31.497 223.478,27.497 211.5,26C 205.169,22.9147 198.502,20.748 191.5,19.5C 191.5,18.5 191.5,17.5 191.5,16.5C 184.836,15.782 178.169,14.9487 171.5,14C 161.061,9.81266 150.395,7.64599 139.5,7.5C 138.463,6.06967 137.796,4.40301 137.5,2.5C 137.56,1.95691 137.893,1.62358 138.5,1.5C 143.375,2.77321 148.208,4.10655 153,5.5C 154.062,4.90316 155.228,4.56983 156.5,4.5C 173.32,8.03825 189.986,12.2049 206.5,17C 216.411,19.8015 225.744,23.8015 234.5,29C 242.022,31.0239 249.022,34.1905 255.5,38.5 Z"/></g>
<g><path style="opacity:1" fill="#676767" d="M 157.5,20.5 C 157.267,22.0618 156.6,23.3951 155.5,24.5C 152.66,27.1428 149.327,27.9761 145.5,27C 143.935,25.4943 143.601,23.9943 144.5,22.5C 144.917,23.1239 145.584,23.4573 146.5,23.5C 150.112,22.1876 153.779,21.1876 157.5,20.5 Z"/></g>
<g><path style="opacity:1" fill="#d8af57" d="M 87.5,24.5 C 79.9958,23.9212 73.9958,26.5879 69.5,32.5C 66.0196,33.6872 62.353,34.1872 58.5,34C 57.7476,33.3292 57.4142,32.4959 57.5,31.5C 59.5716,29.6505 60.9049,27.3171 61.5,24.5C 62.4916,24.6716 63.1583,24.3382 63.5,23.5C 64.1667,23.5 64.8333,23.5 65.5,23.5C 71.4248,22.1752 77.4248,21.1752 83.5,20.5C 86.512,20.1787 87.8453,21.512 87.5,24.5 Z"/></g>
<g><path style="opacity:1" fill="#a67f36" d="M 109.5,26.5 C 108.581,29.0892 106.914,31.0892 104.5,32.5C 104.167,31.8333 103.833,31.1667 103.5,30.5C 105.176,29.8166 105.843,28.4832 105.5,26.5C 104.022,26.762 102.689,26.4287 101.5,25.5C 103.109,22.1064 105.776,20.7731 109.5,21.5C 109.5,23.1667 109.5,24.8333 109.5,26.5 Z"/></g>
<g><path style="opacity:1" fill="#815827" d="M 168.5,15.5 C 180.044,18.8819 192.044,21.7152 204.5,24C 206.747,25.3742 208.913,26.8742 211,28.5C 212.44,29.1476 213.94,29.4809 215.5,29.5C 215.33,30.8221 215.663,31.9887 216.5,33C 223.604,34.9131 230.604,36.7465 237.5,38.5C 230.546,38.9047 223.879,37.7381 217.5,35C 213.717,34.1951 210.717,34.3618 208.5,35.5C 208.557,36.609 208.89,37.609 209.5,38.5C 207.708,38.366 206.042,38.6993 204.5,39.5C 204.5,38.5 204.5,37.5 204.5,36.5C 205.972,34.8657 207.638,33.3657 209.5,32C 208.756,30.9614 207.756,30.4614 206.5,30.5C 204.429,29.0549 202.096,28.0549 199.5,27.5C 198.833,26.8333 198.167,26.1667 197.5,25.5C 197.423,24.2502 196.756,23.4169 195.5,23C 189.104,22.372 182.77,21.372 176.5,20C 173.367,19.1404 170.7,17.6404 168.5,15.5 Z"/></g>
<g><path style="opacity:1" fill="#686664" d="M 139.5,10.5 C 140.167,11.8333 140.833,13.1667 141.5,14.5C 141.5,15.1667 141.5,15.8333 141.5,16.5C 140.861,17.0968 140.528,17.9302 140.5,19C 143.396,24.9012 144.063,31.0678 142.5,37.5C 140.521,38.8121 138.855,40.4788 137.5,42.5C 138.215,38.8696 139.548,36.203 141.5,34.5C 141.03,31.4501 140.197,31.1168 139,33.5C 139.227,28.8405 138.56,24.1739 137,19.5C 135.989,20.3366 134.822,20.67 133.5,20.5C 135.167,18.5 136.833,16.5 138.5,14.5C 139.434,13.4324 139.768,12.099 139.5,10.5 Z"/></g>
<g><path style="opacity:1" fill="#807f7d" d="M 137.5,42.5 C 133.997,46.73 131.497,46.0634 130,40.5C 128.738,35.2131 128.404,29.8798 129,24.5C 130.371,22.9586 131.871,21.6253 133.5,20.5C 134.822,20.67 135.989,20.3366 137,19.5C 138.56,24.1739 139.227,28.8405 139,33.5C 140.197,31.1168 141.03,31.4501 141.5,34.5C 139.548,36.203 138.215,38.8696 137.5,42.5 Z"/></g>
<g><path style="opacity:1" fill="#656564" d="M 161.5,18.5 C 172.579,21.3222 183.746,23.9888 195,26.5C 195.902,26.2568 196.735,25.9234 197.5,25.5C 198.167,26.1667 198.833,26.8333 199.5,27.5C 198.325,27.281 197.325,27.6143 196.5,28.5C 198.504,30.7523 201.004,32.0857 204,32.5C 205.376,32.3158 206.209,31.6491 206.5,30.5C 207.756,30.4614 208.756,30.9614 209.5,32C 207.638,33.3657 205.972,34.8657 204.5,36.5C 203.833,36.5 203.167,36.5 202.5,36.5C 201.167,36.5 199.833,36.5 198.5,36.5C 191.708,36.908 190.041,34.2413 193.5,28.5C 189.154,28.6657 184.821,28.499 180.5,28C 174.432,25.2552 168.099,23.4219 161.5,22.5C 161.5,21.1667 161.5,19.8333 161.5,18.5 Z"/></g>
<g><path style="opacity:1" fill="#533d1d" d="M 45.5,26.5 C 43.7844,27.9708 41.7844,28.9708 39.5,29.5C 39.366,31.2915 39.6993,32.9582 40.5,34.5C 40.5106,36.0174 41.1772,37.1841 42.5,38C 40.8807,38.2355 39.8807,39.0689 39.5,40.5C 37.3523,40.3894 37.019,41.056 38.5,42.5C 37.8772,44.7105 36.8772,46.7105 35.5,48.5C 34.2638,47.7542 32.9305,47.4208 31.5,47.5C 31.7373,46.209 31.404,45.209 30.5,44.5C 29.6618,44.1583 29.3284,43.4916 29.5,42.5C 31.717,43.3686 34.0504,43.702 36.5,43.5C 36.385,41.0532 35.385,39.0532 33.5,37.5C 35.6804,38.8552 37.6804,38.6885 39.5,37C 38.2766,34.9479 37.2766,32.7812 36.5,30.5C 32.5705,29.5672 28.5705,29.2338 24.5,29.5C 31.3523,28.4259 38.3523,27.4259 45.5,26.5 Z"/></g>
<g><path style="opacity:1" fill="#ebeae9" d="M 89.5,32.5 C 86.5925,34.8046 83.2592,36.1379 79.5,36.5C 79.1667,36.5 78.8333,36.5 78.5,36.5C 77.5269,34.9317 77.3603,33.265 78,31.5C 81.0498,27.8697 84.8831,26.703 89.5,28C 90.7279,29.4902 90.7279,30.9902 89.5,32.5 Z"/></g>
<g><path style="opacity:1" fill="#d0cfce" d="M 199.5,27.5 C 202.096,28.0549 204.429,29.0549 206.5,30.5C 206.209,31.6491 205.376,32.3158 204,32.5C 201.004,32.0857 198.504,30.7523 196.5,28.5C 197.325,27.6143 198.325,27.281 199.5,27.5 Z"/></g>
<g><path style="opacity:1" fill="#a7833d" d="M 24.5,29.5 C 28.5705,29.2338 32.5705,29.5672 36.5,30.5C 37.2766,32.7812 38.2766,34.9479 39.5,37C 37.6804,38.6885 35.6804,38.8552 33.5,37.5C 31.594,35.0062 29.594,35.0062 27.5,37.5C 26.375,38.3478 26.375,39.3478 27.5,40.5C 26.6618,40.8417 26.3284,41.5084 26.5,42.5C 25.5655,41.4324 25.2322,40.099 25.5,38.5C 24.8333,37.1667 23.8333,36.1667 22.5,35.5C 22.0535,32.9899 22.7202,30.9899 24.5,29.5 Z"/></g>
<g><path style="opacity:1" fill="#533f27" d="M 87.5,24.5 C 91.1191,25.1805 94.7858,25.6805 98.5,26C 97.0445,27.6257 95.3779,28.7924 93.5,29.5C 92.1497,30.4831 91.1497,31.8164 90.5,33.5C 89.8933,33.3764 89.56,33.0431 89.5,32.5C 90.7279,30.9902 90.7279,29.4902 89.5,28C 84.8831,26.703 81.0498,27.8697 78,31.5C 77.3603,33.265 77.5269,34.9317 78.5,36.5C 77.1266,36.6567 75.7932,36.49 74.5,36C 75.3366,34.9887 75.67,33.8221 75.5,32.5C 73.5,32.5 71.5,32.5 69.5,32.5C 73.9958,26.5879 79.9958,23.9212 87.5,24.5 Z"/></g>
<g><path style="opacity:1" fill="#e6ba58" d="M 54.5,30.5 C 54.5569,31.609 54.8902,32.609 55.5,33.5C 55.5569,34.609 55.8902,35.609 56.5,36.5C 52.5,36.5 48.5,36.5 44.5,36.5C 44.5,34.1667 44.5,31.8333 44.5,29.5C 46.4878,29.1729 48.4878,28.8396 50.5,28.5C 52.1143,28.8029 53.4477,29.4695 54.5,30.5 Z"/></g>
<g><path style="opacity:1" fill="#cba558" d="M 93.5,29.5 C 94.3764,29.3691 95.0431,29.7025 95.5,30.5C 94.1207,31.8626 94.2874,32.8626 96,33.5C 97.8135,30.9603 100.313,29.9603 103.5,30.5C 103.833,31.1667 104.167,31.8333 104.5,32.5C 103.4,33.6049 102.733,34.9382 102.5,36.5C 101.833,36.5 101.5,36.8333 101.5,37.5C 99.6336,38.0138 97.8003,38.6805 96,39.5C 95.5,39.1667 95,38.8333 94.5,38.5C 95.9796,36.4557 95.4796,35.1224 93,34.5C 88.6915,37.3487 84.1915,38.0154 79.5,36.5C 83.2592,36.1379 86.5925,34.8046 89.5,32.5C 89.56,33.0431 89.8933,33.3764 90.5,33.5C 91.1497,31.8164 92.1497,30.4831 93.5,29.5 Z"/></g>
<g><path style="opacity:1" fill="#201e1d" d="M 141.5,16.5 C 141.088,18.9726 142.088,20.3059 144.5,20.5C 144.5,21.1667 144.5,21.8333 144.5,22.5C 143.601,23.9943 143.935,25.4943 145.5,27C 149.327,27.9761 152.66,27.1428 155.5,24.5C 155.998,28.2897 157.165,31.9563 159,35.5C 160.447,33.5968 162.114,31.9301 164,30.5C 166.544,36.6557 165.71,42.4891 161.5,48C 163.311,51.401 166.145,53.5676 170,54.5C 171.261,54.2409 172.261,53.5742 173,52.5C 174.956,46.8763 178.123,42.043 182.5,38C 183.332,37.3123 183.998,37.479 184.5,38.5C 182.28,42.3511 182.113,46.3511 184,50.5C 189.39,46.2748 194.223,41.6082 198.5,36.5C 199.833,36.5 201.167,36.5 202.5,36.5C 198.939,38.5499 195.772,41.2166 193,44.5C 188.266,49.7255 183.766,55.0589 179.5,60.5C 171.758,70.3144 164.758,80.6477 158.5,91.5C 158.167,91.5 157.833,91.5 157.5,91.5C 156.577,85.178 154.911,79.178 152.5,73.5C 152.565,70.5285 151.731,67.8618 150,65.5C 150.369,68.7897 150.369,72.123 150,75.5C 149.617,74.944 149.117,74.6107 148.5,74.5C 148.5,73.8333 148.5,73.1667 148.5,72.5C 147.864,67.2897 147.864,62.123 148.5,57C 148.336,53.4922 147.336,50.3256 145.5,47.5C 145.976,43.6215 144.976,40.2882 142.5,37.5C 144.063,31.0678 143.396,24.9012 140.5,19C 140.528,17.9302 140.861,17.0968 141.5,16.5 Z"/></g>
<g><path style="opacity:1" fill="#422e1a" d="M 57.5,31.5 C 57.4142,32.4959 57.7476,33.3292 58.5,34C 62.353,34.1872 66.0196,33.6872 69.5,32.5C 71.5,32.5 73.5,32.5 75.5,32.5C 75.67,33.8221 75.3366,34.9887 74.5,36C 75.7932,36.49 77.1266,36.6567 78.5,36.5C 78.5,36.8333 78.5,37.1667 78.5,37.5C 77.6346,39.6773 75.9679,40.6773 73.5,40.5C 69.127,38.3211 64.4603,36.9877 59.5,36.5C 58.1667,35.5 56.8333,34.5 55.5,33.5C 54.8902,32.609 54.5569,31.609 54.5,30.5C 54.4346,30.0618 54.6012,29.7284 55,29.5C 55.7083,30.3805 56.5416,31.0472 57.5,31.5 Z"/></g>
<g><path style="opacity:1" fill="#2e271e" d="M 63.5,23.5 C 63.1583,24.3382 62.4916,24.6716 61.5,24.5C 56.0767,24.5237 50.7434,25.1903 45.5,26.5C 38.3523,27.4259 31.3523,28.4259 24.5,29.5C 22.7202,30.9899 22.0535,32.9899 22.5,35.5C 22.5,37.5 21.5,38.5 19.5,38.5C 19.3259,36.139 18.9926,33.8056 18.5,31.5C 20.1228,29.8147 21.4561,27.8147 22.5,25.5C 35.9972,24.1428 49.6639,23.4761 63.5,23.5 Z"/></g>
<g><path style="opacity:1" fill="#463822" d="M 33.5,37.5 C 31.5,37.5 29.5,37.5 27.5,37.5C 29.594,35.0062 31.594,35.0062 33.5,37.5 Z"/></g>
<g><path style="opacity:1" fill="#b88b3a" d="M 61.5,24.5 C 60.9049,27.3171 59.5716,29.6505 57.5,31.5C 56.5416,31.0472 55.7083,30.3805 55,29.5C 54.6012,29.7284 54.4346,30.0618 54.5,30.5C 53.4477,29.4695 52.1143,28.8029 50.5,28.5C 48.4878,28.8396 46.4878,29.1729 44.5,29.5C 44.5,31.8333 44.5,34.1667 44.5,36.5C 48.5,36.5 52.5,36.5 56.5,36.5C 57.1667,36.5 57.5,36.8333 57.5,37.5C 53.4044,39.2797 49.0711,39.9463 44.5,39.5C 43.9202,37.2512 42.5869,35.5846 40.5,34.5C 39.6993,32.9582 39.366,31.2915 39.5,29.5C 41.7844,28.9708 43.7844,27.9708 45.5,26.5C 50.7434,25.1903 56.0767,24.5237 61.5,24.5 Z"/></g>
<g><path style="opacity:1" fill="#d6bfa8" d="M 237.5,38.5 C 238.5,38.8333 239.167,39.5 239.5,40.5C 232.5,39.1667 225.5,39.1667 218.5,40.5C 218.53,39.5028 218.03,38.8361 217,38.5C 214.101,37.5897 211.267,36.5897 208.5,35.5C 210.717,34.3618 213.717,34.1951 217.5,35C 223.879,37.7381 230.546,38.9047 237.5,38.5 Z"/></g>
<g><path style="opacity:1" fill="#ceccc9" d="M 27.5,37.5 C 29.5,37.5 31.5,37.5 33.5,37.5C 35.385,39.0532 36.385,41.0532 36.5,43.5C 34.0504,43.702 31.717,43.3686 29.5,42.5C 28.5,42.1667 27.8333,41.5 27.5,40.5C 26.375,39.3478 26.375,38.3478 27.5,37.5 Z"/></g>
<g><path style="opacity:1" fill="#cca474" d="M 208.5,35.5 C 211.267,36.5897 214.101,37.5897 217,38.5C 218.03,38.8361 218.53,39.5028 218.5,40.5C 222.956,41.2894 229.289,41.9561 237.5,42.5C 231.5,42.5 225.5,42.5 219.5,42.5C 217.5,42.5 215.5,42.5 213.5,42.5C 213.5,41.1667 213.5,39.8333 213.5,38.5C 212.167,38.5 210.833,38.5 209.5,38.5C 208.89,37.609 208.557,36.609 208.5,35.5 Z"/></g>
<g><path style="opacity:1" fill="#858068" d="M 142.5,37.5 C 144.976,40.2882 145.976,43.6215 145.5,47.5C 144.33,49.2785 142.664,50.2785 140.5,50.5C 140.611,49.8826 140.944,49.3826 141.5,49C 139.59,48.5917 138.59,47.4251 138.5,45.5C 139.852,42.8227 141.185,40.156 142.5,37.5 Z"/></g>
<g><path style="opacity:1" fill="#6d491e" d="M 202.5,36.5 C 203.167,36.5 203.833,36.5 204.5,36.5C 204.5,37.5 204.5,38.5 204.5,39.5C 203.5,39.5 202.5,39.5 201.5,39.5C 201.5,41.1667 201.5,42.8333 201.5,44.5C 194.593,45.7191 189.26,49.3858 185.5,55.5C 184.167,56.1667 183.167,57.1667 182.5,58.5C 181.076,60.5145 180.41,62.8478 180.5,65.5C 182.5,65.5 184.5,65.5 186.5,65.5C 186.5,67.8333 186.5,70.1667 186.5,72.5C 185.178,72.33 184.011,72.6634 183,73.5C 182.536,72.9056 182.369,72.2389 182.5,71.5C 183.141,70.5178 183.807,69.5178 184.5,68.5C 178.794,68.323 177.127,65.6564 179.5,60.5C 183.766,55.0589 188.266,49.7255 193,44.5C 195.772,41.2166 198.939,38.5499 202.5,36.5 Z"/></g>
<g><path style="opacity:1" fill="#f1e3d1" d="M 239.5,40.5 C 245.327,41.7476 250.66,44.0809 255.5,47.5C 255.5,48.1667 255.5,48.8333 255.5,49.5C 249.79,46.3754 243.79,44.0421 237.5,42.5C 229.289,41.9561 222.956,41.2894 218.5,40.5C 225.5,39.1667 232.5,39.1667 239.5,40.5 Z"/></g>
<g><path style="opacity:1" fill="#f0dc74" d="M 27.5,40.5 C 27.8333,41.5 28.5,42.1667 29.5,42.5C 29.3284,43.4916 29.6618,44.1583 30.5,44.5C 30.7373,45.791 30.404,46.791 29.5,47.5C 27.7497,46.3406 26.7497,44.674 26.5,42.5C 26.3284,41.5084 26.6618,40.8417 27.5,40.5 Z"/></g>
<g><path style="opacity:1" fill="#a47d44" d="M 101.5,37.5 C 92.9422,43.3597 83.6088,47.6931 73.5,50.5C 71.1432,50.6633 68.8098,50.4966 66.5,50C 64.7888,48.8668 64.2888,47.3668 65,45.5C 71.6432,43.1441 78.4765,41.4775 85.5,40.5C 86.7742,39.6406 86.6075,38.9739 85,38.5C 82.385,40.1294 80.2184,39.796 78.5,37.5C 78.5,37.1667 78.5,36.8333 78.5,36.5C 78.8333,36.5 79.1667,36.5 79.5,36.5C 84.1915,38.0154 88.6915,37.3487 93,34.5C 95.4796,35.1224 95.9796,36.4557 94.5,38.5C 95,38.8333 95.5,39.1667 96,39.5C 97.8003,38.6805 99.6336,38.0138 101.5,37.5 Z"/></g>
<g><path style="opacity:1" fill="#454542" d="M 138.5,14.5 C 136.833,16.5 135.167,18.5 133.5,20.5C 131.871,21.6253 130.371,22.9586 129,24.5C 128.404,29.8798 128.738,35.2131 130,40.5C 131.497,46.0634 133.997,46.73 137.5,42.5C 138.855,40.4788 140.521,38.8121 142.5,37.5C 141.185,40.156 139.852,42.8227 138.5,45.5C 138.59,47.4251 139.59,48.5917 141.5,49C 140.944,49.3826 140.611,49.8826 140.5,50.5C 139.756,53.8845 138.423,54.2178 136.5,51.5C 136.372,49.9102 135.705,48.5769 134.5,47.5C 130.763,49.9031 127.763,52.9031 125.5,56.5C 124.528,54.5069 123.195,54.1736 121.5,55.5C 119.958,56.3007 118.292,56.634 116.5,56.5C 117.808,55.7677 119.142,54.9344 120.5,54C 117.937,53.8458 115.437,54.3458 113,55.5C 111.941,55.3699 111.108,54.8699 110.5,54C 112.494,50.3366 114.494,46.67 116.5,43C 115.833,42.6667 115.167,42.3333 114.5,42C 119.506,35.031 118.173,33.1977 110.5,36.5C 113.507,34.3255 116.007,31.6589 118,28.5C 118.977,29.7736 119.811,29.7736 120.5,28.5C 123.643,28.031 125.977,26.3644 127.5,23.5C 129.279,22.3303 130.279,20.6636 130.5,18.5C 133.263,18.2562 135.429,16.9229 137,14.5C 137.818,9.20631 138.318,9.20631 138.5,14.5 Z"/></g>
<g><path style="opacity:1" fill="#6a4e2b" d="M 59.5,36.5 C 64.4603,36.9877 69.127,38.3211 73.5,40.5C 75.9679,40.6773 77.6346,39.6773 78.5,37.5C 80.2184,39.796 82.385,40.1294 85,38.5C 86.6075,38.9739 86.7742,39.6406 85.5,40.5C 78.4765,41.4775 71.6432,43.1441 65,45.5C 64.2888,47.3668 64.7888,48.8668 66.5,50C 68.8098,50.4966 71.1432,50.6633 73.5,50.5C 69.9295,51.6186 66.5961,53.2853 63.5,55.5C 62.8333,55.5 62.1667,55.5 61.5,55.5C 62.0434,54.2579 62.3767,52.9245 62.5,51.5C 60.9834,46.5834 59.9834,41.5834 59.5,36.5 Z"/></g>
<g><path style="opacity:1" fill="#d2a652" d="M 57.5,37.5 C 56.4604,41.7799 56.2938,46.1132 57,50.5C 58.7058,51.3079 59.5391,52.6412 59.5,54.5C 58.1667,54.5 56.8333,54.5 55.5,54.5C 53.9236,55.1429 52.5903,56.1429 51.5,57.5C 44.0224,58.2524 41.0224,54.919 42.5,47.5C 42.5217,44.4098 43.1883,41.7432 44.5,39.5C 49.0711,39.9463 53.4044,39.2797 57.5,37.5 Z"/></g>
<g><path style="opacity:1" fill="#ebc061" d="M 55.5,54.5 C 52.5,54.5 49.5,54.5 46.5,54.5C 46.1238,50.3802 45.6238,46.3802 45,42.5C 46.3528,41.2958 48.0194,40.6292 50,40.5C 51.5,40.8333 53,41.1667 54.5,41.5C 51.8687,43.9922 52.0354,46.3255 55,48.5C 55.4955,50.4727 55.6621,52.4727 55.5,54.5 Z"/></g>
<g><path style="opacity:1" fill="#dd922e" d="M 255.5,53.5 C 255.5,58.8333 255.5,64.1667 255.5,69.5C 253.787,67.1496 251.453,66.1496 248.5,66.5C 248.297,64.6096 248.963,63.1096 250.5,62C 246.866,58.8974 243.866,55.3974 241.5,51.5C 237.215,50.7496 233.881,52.0829 231.5,55.5C 233.877,58.9675 235.877,62.6342 237.5,66.5C 239.39,66.2965 240.89,66.9632 242,68.5C 242.806,73.8097 245.972,75.9763 251.5,75C 252.413,76.4139 252.413,77.9139 251.5,79.5C 249.488,80.0138 247.488,80.1805 245.5,80C 243.338,76.6715 240.671,73.8381 237.5,71.5C 236.754,70.2638 236.421,68.9305 236.5,67.5C 235.448,67.6495 234.448,67.4828 233.5,67C 230.938,63.9348 227.938,61.4348 224.5,59.5C 223.723,57.2233 222.723,55.0566 221.5,53C 222.063,50.2734 222.73,47.6067 223.5,45C 233.375,42.6461 242.708,43.9795 251.5,49C 252.733,50.6667 254.067,52.1667 255.5,53.5 Z"/></g>
<g><path style="opacity:1" fill="#9f8041" d="M 39.5,40.5 C 39.1667,44.5 38.8333,48.5 38.5,52.5C 36.8333,52.5 35.1667,52.5 33.5,52.5C 31.4131,51.4154 30.0798,49.7488 29.5,47.5C 30.404,46.791 30.7373,45.791 30.5,44.5C 31.404,45.209 31.7373,46.209 31.5,47.5C 32.9305,47.4208 34.2638,47.7542 35.5,48.5C 36.8772,46.7105 37.8772,44.7105 38.5,42.5C 37.019,41.056 37.3523,40.3894 39.5,40.5 Z"/></g>
<g><path style="opacity:1" fill="#896a3d" d="M 55.5,33.5 C 56.8333,34.5 58.1667,35.5 59.5,36.5C 59.9834,41.5834 60.9834,46.5834 62.5,51.5C 62.3767,52.9245 62.0434,54.2579 61.5,55.5C 58.2365,56.4822 54.9032,57.1489 51.5,57.5C 52.5903,56.1429 53.9236,55.1429 55.5,54.5C 56.8333,54.5 58.1667,54.5 59.5,54.5C 59.5391,52.6412 58.7058,51.3079 57,50.5C 56.2938,46.1132 56.4604,41.7799 57.5,37.5C 57.5,36.8333 57.1667,36.5 56.5,36.5C 55.8902,35.609 55.5569,34.609 55.5,33.5 Z"/></g>
<g><path style="opacity:1" fill="#85602b" d="M 40.5,34.5 C 42.5869,35.5846 43.9202,37.2512 44.5,39.5C 43.1883,41.7432 42.5217,44.4098 42.5,47.5C 41.0224,54.919 44.0224,58.2524 51.5,57.5C 48.1667,58.8333 44.8333,58.8333 41.5,57.5C 41.666,52.1563 41.4994,46.8229 41,41.5C 40.6174,40.944 40.1174,40.6107 39.5,40.5C 39.8807,39.0689 40.8807,38.2355 42.5,38C 41.1772,37.1841 40.5106,36.0174 40.5,34.5 Z"/></g>
<g><path style="opacity:1" fill="#ccc5a5" d="M 27.5,66.5 C 26.5,66.1667 25.8333,65.5 25.5,64.5C 19.3859,42.9703 20.7192,42.3036 29.5,62.5C 29.0057,64.0255 28.339,65.3588 27.5,66.5 Z"/></g>
<g><path style="opacity:1" fill="#646462" d="M 79.5,51.5 C 88.1179,47.252 96.7846,42.9187 105.5,38.5C 107.819,37.833 110.153,37.6664 112.5,38C 110.53,40.3157 108.196,42.1491 105.5,43.5C 107.959,47.0946 106.959,49.4279 102.5,50.5C 102.561,52.5922 103.561,54.0922 105.5,55C 104.833,55.6667 104.167,56.3333 103.5,57C 98.8798,58.3267 94.2131,58.9934 89.5,59C 90.1667,58 90.8333,57 91.5,56C 88.1182,55.8236 84.7848,55.3236 81.5,54.5C 80.3881,53.7348 79.7214,52.7348 79.5,51.5 Z"/></g>
<g><path style="opacity:1" fill="#5a4625" d="M 39.5,40.5 C 40.1174,40.6107 40.6174,40.944 41,41.5C 41.4994,46.8229 41.666,52.1563 41.5,57.5C 39.2933,54.9334 36.6266,53.2667 33.5,52.5C 35.1667,52.5 36.8333,52.5 38.5,52.5C 38.8333,48.5 39.1667,44.5 39.5,40.5 Z"/></g>
<g><path style="opacity:1" fill="#ae712e" d="M 209.5,38.5 C 210.833,38.5 212.167,38.5 213.5,38.5C 213.5,39.8333 213.5,41.1667 213.5,42.5C 215.5,42.5 217.5,42.5 219.5,42.5C 218.739,43.3909 217.739,44.0576 216.5,44.5C 215.828,45.9492 215.161,47.2825 214.5,48.5C 208.006,52.6383 208.34,55.305 215.5,56.5C 212.78,58.1107 209.78,58.944 206.5,59C 205.102,61.5618 203.435,61.8951 201.5,60C 204.125,57.8038 205.125,54.9705 204.5,51.5C 201.503,50.8588 198.837,49.5255 196.5,47.5C 192.822,50.1824 189.155,52.849 185.5,55.5C 189.26,49.3858 194.593,45.7191 201.5,44.5C 201.5,42.8333 201.5,41.1667 201.5,39.5C 202.5,39.5 203.5,39.5 204.5,39.5C 206.042,38.6993 207.708,38.366 209.5,38.5 Z"/></g>
<g><path style="opacity:1" fill="#b4a673" d="M 22.5,35.5 C 23.8333,36.1667 24.8333,37.1667 25.5,38.5C 23.5792,40.0012 21.9125,41.8345 20.5,44C 24.3705,47.7023 28.0371,51.5357 31.5,55.5C 30.8386,58.7871 30.3386,62.1204 30,65.5C 29.3992,67.3588 28.5659,67.6921 27.5,66.5C 28.339,65.3588 29.0057,64.0255 29.5,62.5C 20.7192,42.3036 19.3859,42.9703 25.5,64.5C 23.7188,61.7259 22.3855,58.7259 21.5,55.5C 19.6674,49.8819 19.0008,44.2153 19.5,38.5C 21.5,38.5 22.5,37.5 22.5,35.5 Z"/></g>
<g><path style="opacity:1" fill="#a8a582" d="M 145.5,47.5 C 147.336,50.3256 148.336,53.4922 148.5,57C 147.864,62.123 147.864,67.2897 148.5,72.5C 147.685,71.5707 146.852,70.5707 146,69.5C 145.536,70.0944 145.369,70.7611 145.5,71.5C 144.686,69.369 144.186,67.0356 144,64.5C 143.667,64.1667 143.333,63.8333 143,63.5C 142.517,64.448 142.351,65.448 142.5,66.5C 140.503,62.5725 138.503,58.5725 136.5,54.5C 135.311,53.5713 133.978,53.238 132.5,53.5C 133.514,52.3263 134.847,51.6596 136.5,51.5C 138.423,54.2178 139.756,53.8845 140.5,50.5C 142.664,50.2785 144.33,49.2785 145.5,47.5 Z"/></g>
<g><path style="opacity:1" fill="#4d4e4d" d="M 116.5,56.5 C 113.672,58.7481 110.672,60.7481 107.5,62.5C 97.7151,66.8922 88.0485,71.5589 78.5,76.5C 79.1495,74.5648 79.4828,72.5648 79.5,70.5C 78.5,70.5 77.5,70.5 76.5,70.5C 76.7733,68.549 76.1066,67.049 74.5,66C 74.8333,65.6667 75.1667,65.3333 75.5,65C 74.4366,63.8118 73.1033,63.3118 71.5,63.5C 72.8271,57.3261 70.4938,55.1594 64.5,57C 62.5448,57.9533 60.8782,59.2866 59.5,61C 61.597,62.6463 63.2637,64.6463 64.5,67C 61.1083,68.5627 60.775,70.5627 63.5,73C 62.7135,75.0989 62.3801,77.2655 62.5,79.5C 64.5914,79.6816 66.5914,79.3482 68.5,78.5C 69.6223,79.6302 70.9557,80.2969 72.5,80.5C 68.4091,81.8955 64.0758,82.5621 59.5,82.5C 59.1788,80.9519 58.1788,80.2852 56.5,80.5C 56.5,79.5 56.5,78.5 56.5,77.5C 54.8008,77.3398 53.1341,77.5065 51.5,78C 50.1667,79 50.1667,80 51.5,81C 49.5,81.6667 47.5,81.6667 45.5,81C 44.6634,79.9887 44.33,78.8221 44.5,77.5C 51.8335,75.8705 55.0002,71.2038 54,63.5C 57.389,60.9315 60.5556,58.2649 63.5,55.5C 69.0253,54.529 74.3586,53.1956 79.5,51.5C 79.7214,52.7348 80.3881,53.7348 81.5,54.5C 84.7848,55.3236 88.1182,55.8236 91.5,56C 90.8333,57 90.1667,58 89.5,59C 94.2131,58.9934 98.8798,58.3267 103.5,57C 104.167,56.3333 104.833,55.6667 105.5,55C 103.561,54.0922 102.561,52.5922 102.5,50.5C 106.959,49.4279 107.959,47.0946 105.5,43.5C 108.196,42.1491 110.53,40.3157 112.5,38C 110.153,37.6664 107.819,37.833 105.5,38.5C 106.78,37.0687 108.447,36.4021 110.5,36.5C 118.173,33.1977 119.506,35.031 114.5,42C 115.167,42.3333 115.833,42.6667 116.5,43C 114.494,46.67 112.494,50.3366 110.5,54C 111.108,54.8699 111.941,55.3699 113,55.5C 115.437,54.3458 117.937,53.8458 120.5,54C 119.142,54.9344 117.808,55.7677 116.5,56.5 Z"/></g>
<g><path style="opacity:1" fill="#bc7d2e" d="M 214.5,48.5 C 214.297,50.0443 213.63,51.3777 212.5,52.5C 215.13,53.9619 217.63,55.6285 220,57.5C 220.749,58.635 220.583,59.635 219.5,60.5C 215.558,59.4001 211.558,59.2334 207.5,60C 205.9,61.815 203.9,62.9817 201.5,63.5C 200.824,64.6016 200.158,65.6016 199.5,66.5C 195.273,64.7195 190.606,63.8862 185.5,64C 183.323,62.8139 182.323,60.9806 182.5,58.5C 183.167,57.1667 184.167,56.1667 185.5,55.5C 189.155,52.849 192.822,50.1824 196.5,47.5C 198.837,49.5255 201.503,50.8588 204.5,51.5C 205.125,54.9705 204.125,57.8038 201.5,60C 203.435,61.8951 205.102,61.5618 206.5,59C 209.78,58.944 212.78,58.1107 215.5,56.5C 208.34,55.305 208.006,52.6383 214.5,48.5 Z"/></g>
<g><path style="opacity:1" fill="#d29f47" d="M 199.5,70.5 C 199.5,70.1667 199.5,69.8333 199.5,69.5C 202.874,67.0942 206.04,64.4275 209,61.5C 211.292,62.9305 213.792,63.7639 216.5,64C 215.965,66.4162 215.632,68.9162 215.5,71.5C 217.097,72.7908 218.43,74.2908 219.5,76C 217.066,78.4336 214.566,80.9336 212,83.5C 210.021,89.0547 207.021,90.0547 203,86.5C 201.951,87.5171 200.784,87.6838 199.5,87C 195.522,81.4399 195.522,75.9399 199.5,70.5 Z"/></g>
<g><path style="opacity:1" fill="#bab18c" d="M 35.5,55.5 C 37.4788,56.8121 39.1455,58.4788 40.5,60.5C 39.675,61.3857 38.675,61.719 37.5,61.5C 37.5,64.5 37.5,67.5 37.5,70.5C 37.5,71.1667 37.5,71.8333 37.5,72.5C 36.603,73.5981 35.7697,73.5981 35,72.5C 34.7113,67.3947 33.878,62.3947 32.5,57.5C 33.0047,56.0815 34.0047,55.4148 35.5,55.5 Z"/></g>
<g><path style="opacity:1" fill="#958753" d="M 35.5,55.5 C 34.0047,55.4148 33.0047,56.0815 32.5,57.5C 33.878,62.3947 34.7113,67.3947 35,72.5C 35.7697,73.5981 36.603,73.5981 37.5,72.5C 37.6633,74.8568 37.4966,77.1902 37,79.5C 35.6927,77.8082 34.1927,76.4749 32.5,75.5C 32.7678,73.901 32.4345,72.5676 31.5,71.5C 29.5201,69.8951 27.1868,68.7285 24.5,68C 23.7476,67.3292 23.4142,66.4959 23.5,65.5C 23.5,64.8333 23.1667,64.5 22.5,64.5C 21.8413,61.5448 21.5079,58.5448 21.5,55.5C 22.3855,58.7259 23.7188,61.7259 25.5,64.5C 25.8333,65.5 26.5,66.1667 27.5,66.5C 28.5659,67.6921 29.3992,67.3588 30,65.5C 30.3386,62.1204 30.8386,58.7871 31.5,55.5C 32.9613,54.3143 34.2946,54.3143 35.5,55.5 Z"/></g>
<g><path style="opacity:1" fill="#cb8c3b" d="M 219.5,42.5 C 225.5,42.5 231.5,42.5 237.5,42.5C 243.79,44.0421 249.79,46.3754 255.5,49.5C 255.5,50.8333 255.5,52.1667 255.5,53.5C 254.067,52.1667 252.733,50.6667 251.5,49C 242.708,43.9795 233.375,42.6461 223.5,45C 222.73,47.6067 222.063,50.2734 221.5,53C 222.723,55.0566 223.723,57.2233 224.5,59.5C 227.938,61.4348 230.938,63.9348 233.5,67C 234.448,67.4828 235.448,67.6495 236.5,67.5C 236.421,68.9305 236.754,70.2638 237.5,71.5C 240.671,73.8381 243.338,76.6715 245.5,80C 247.488,80.1805 249.488,80.0138 251.5,79.5C 252.708,80.2341 254.041,80.5674 255.5,80.5C 255.5,84.5 255.5,88.5 255.5,92.5C 253.815,91.8163 252.815,90.483 252.5,88.5C 250.879,87.305 249.213,86.305 247.5,85.5C 245.754,81.6707 242.921,79.0041 239,77.5C 238.385,75.8839 237.385,74.5505 236,73.5C 235.51,72.2068 235.343,70.8734 235.5,69.5C 232.426,69.1274 229.426,68.4608 226.5,67.5C 227.025,71.869 228.525,75.869 231,79.5C 231.499,84.4889 231.666,89.4889 231.5,94.5C 226.545,92.8952 221.378,91.8952 216,91.5C 213.562,92.3689 211.229,92.3689 209,91.5C 207.029,91.4683 205.529,92.3016 204.5,94C 203.167,94.6667 201.833,94.6667 200.5,94C 194.465,88.0657 192.798,80.899 195.5,72.5C 196.833,71.8333 198.167,71.1667 199.5,70.5C 195.522,75.9399 195.522,81.4399 199.5,87C 200.784,87.6838 201.951,87.5171 203,86.5C 207.021,90.0547 210.021,89.0547 212,83.5C 214.566,80.9336 217.066,78.4336 219.5,76C 218.43,74.2908 217.097,72.7908 215.5,71.5C 215.632,68.9162 215.965,66.4162 216.5,64C 213.792,63.7639 211.292,62.9305 209,61.5C 206.04,64.4275 202.874,67.0942 199.5,69.5C 199.5,68.5 199.5,67.5 199.5,66.5C 200.158,65.6016 200.824,64.6016 201.5,63.5C 203.9,62.9817 205.9,61.815 207.5,60C 211.558,59.2334 215.558,59.4001 219.5,60.5C 220.583,59.635 220.749,58.635 220,57.5C 217.63,55.6285 215.13,53.9619 212.5,52.5C 213.63,51.3777 214.297,50.0443 214.5,48.5C 215.161,47.2825 215.828,45.9492 216.5,44.5C 217.739,44.0576 218.739,43.3909 219.5,42.5 Z"/></g>
<g><path style="opacity:1" fill="#574d3a" d="M 145.5,71.5 C 145.657,72.8734 145.49,74.2068 145,75.5C 143.698,72.6249 142.865,69.6249 142.5,66.5C 142.351,65.448 142.517,64.448 143,63.5C 143.333,63.8333 143.667,64.1667 144,64.5C 144.186,67.0356 144.686,69.369 145.5,71.5 Z"/></g>
<g><path style="opacity:1" fill="#e8a232" d="M 255.5,69.5 C 255.5,73.1667 255.5,76.8333 255.5,80.5C 254.041,80.5674 252.708,80.2341 251.5,79.5C 252.413,77.9139 252.413,76.4139 251.5,75C 245.972,75.9763 242.806,73.8097 242,68.5C 240.89,66.9632 239.39,66.2965 237.5,66.5C 235.877,62.6342 233.877,58.9675 231.5,55.5C 233.881,52.0829 237.215,50.7496 241.5,51.5C 243.866,55.3974 246.866,58.8974 250.5,62C 248.963,63.1096 248.297,64.6096 248.5,66.5C 251.453,66.1496 253.787,67.1496 255.5,69.5 Z"/></g>
<g><path style="opacity:1" fill="#3f3d3c" d="M 25.5,38.5 C 25.2322,40.099 25.5655,41.4324 26.5,42.5C 26.7497,44.674 27.7497,46.3406 29.5,47.5C 30.0798,49.7488 31.4131,51.4154 33.5,52.5C 36.6266,53.2667 39.2933,54.9334 41.5,57.5C 44.8333,58.8333 48.1667,58.8333 51.5,57.5C 54.9032,57.1489 58.2365,56.4822 61.5,55.5C 62.1667,55.5 62.8333,55.5 63.5,55.5C 60.5556,58.2649 57.389,60.9315 54,63.5C 55.0002,71.2038 51.8335,75.8705 44.5,77.5C 44.33,78.8221 44.6634,79.9887 45.5,81C 47.5,81.6667 49.5,81.6667 51.5,81C 50.1667,80 50.1667,79 51.5,78C 53.1341,77.5065 54.8008,77.3398 56.5,77.5C 56.5,78.5 56.5,79.5 56.5,80.5C 58.1788,80.2852 59.1788,80.9519 59.5,82.5C 54.1913,83.5122 48.858,83.5122 43.5,82.5C 42.5041,82.5858 41.6708,82.2524 41,81.5C 39.4075,77.8387 38.2408,74.172 37.5,70.5C 37.5,67.5 37.5,64.5 37.5,61.5C 38.675,61.719 39.675,61.3857 40.5,60.5C 39.1455,58.4788 37.4788,56.8121 35.5,55.5C 34.2946,54.3143 32.9613,54.3143 31.5,55.5C 28.0371,51.5357 24.3705,47.7023 20.5,44C 21.9125,41.8345 23.5792,40.0012 25.5,38.5 Z"/></g>
<g><path style="opacity:1" fill="#4b4944" d="M 23.5,65.5 C 23.4142,66.4959 23.7476,67.3292 24.5,68C 27.1868,68.7285 29.5201,69.8951 31.5,71.5C 30.7784,71.9175 30.2784,72.5842 30,73.5C 29.6667,73.1667 29.3333,72.8333 29,72.5C 28.5065,74.1341 28.3398,75.8008 28.5,77.5C 28.5,78.5 28.5,79.5 28.5,80.5C 27.6787,77.3586 27.1787,74.0252 27,70.5C 26.5065,72.1341 26.3398,73.8008 26.5,75.5C 24.3944,75.679 22.7277,76.679 21.5,78.5C 22.7795,80.9414 22.1128,82.6081 19.5,83.5C 19.5,79.5 19.5,75.5 19.5,71.5C 19.6329,68.6338 20.9662,66.6338 23.5,65.5 Z"/></g>
<g><path style="opacity:1" fill="#5d4327" d="M 179.5,60.5 C 177.127,65.6564 178.794,68.323 184.5,68.5C 183.807,69.5178 183.141,70.5178 182.5,71.5C 175.467,71.0936 170.634,74.0936 168,80.5C 167.058,84.4681 166.225,88.4681 165.5,92.5C 163.471,93.8435 161.471,95.1769 159.5,96.5C 158.549,95.0813 158.216,93.4147 158.5,91.5C 164.758,80.6477 171.758,70.3144 179.5,60.5 Z"/></g>
<g><path style="opacity:1" fill="#686766" d="M 78.5,76.5 C 76.7721,78.2255 74.7721,79.5589 72.5,80.5C 70.9557,80.2969 69.6223,79.6302 68.5,78.5C 66.5914,79.3482 64.5914,79.6816 62.5,79.5C 62.3801,77.2655 62.7135,75.0989 63.5,73C 60.775,70.5627 61.1083,68.5627 64.5,67C 63.2637,64.6463 61.597,62.6463 59.5,61C 60.8782,59.2866 62.5448,57.9533 64.5,57C 70.4938,55.1594 72.8271,57.3261 71.5,63.5C 73.1033,63.3118 74.4366,63.8118 75.5,65C 75.1667,65.3333 74.8333,65.6667 74.5,66C 76.1066,67.049 76.7733,68.549 76.5,70.5C 77.5,70.5 78.5,70.5 79.5,70.5C 79.4828,72.5648 79.1495,74.5648 78.5,76.5 Z"/></g>
<g><path style="opacity:1" fill="#9e692f" d="M 182.5,58.5 C 182.323,60.9806 183.323,62.8139 185.5,64C 190.606,63.8862 195.273,64.7195 199.5,66.5C 199.5,67.5 199.5,68.5 199.5,69.5C 199.5,69.8333 199.5,70.1667 199.5,70.5C 198.167,71.1667 196.833,71.8333 195.5,72.5C 194.542,72.9528 193.708,73.6195 193,74.5C 192.501,80.1569 192.334,85.8236 192.5,91.5C 186.449,90.128 184.116,86.4613 185.5,80.5C 184.833,79.1667 183.833,78.1667 182.5,77.5C 179.271,78.7064 176.604,80.5397 174.5,83C 177.221,87.4617 178.054,92.295 177,97.5C 174.262,98.4817 171.428,99.1484 168.5,99.5C 169.241,95.3406 170.574,91.3406 172.5,87.5C 171.167,85.8333 169.833,84.1667 168.5,82.5C 172.167,82.1667 174.167,80.1667 174.5,76.5C 176.289,75.1228 178.289,74.1228 180.5,73.5C 185.731,76.2499 187.898,80.5832 187,86.5C 188.019,87.6872 189.186,88.6872 190.5,89.5C 190.848,84.8885 191.015,80.2219 191,75.5C 191.973,73.36 193.473,71.6933 195.5,70.5C 196.429,69.3112 196.762,67.9778 196.5,66.5C 193.098,66.6576 189.764,66.3242 186.5,65.5C 184.5,65.5 182.5,65.5 180.5,65.5C 180.41,62.8478 181.076,60.5145 182.5,58.5 Z"/></g>
<g><path style="opacity:1" fill="#f4e9d8" d="M 19.5,65.5 C 19.67,66.8221 19.3366,67.9887 18.5,69C 15.3793,69.7261 12.7127,71.2261 10.5,73.5C 9.81654,73.1373 9.14987,72.8039 8.5,72.5C 6.59047,73.9746 5.42381,75.9746 5,78.5C 3.27003,80.0764 1.4367,81.4097 -0.5,82.5C -0.5,80.5 -0.5,78.5 -0.5,76.5C 1.36056,73.9784 3.36056,71.4784 5.5,69C 7.56751,68.3131 9.56751,68.4798 11.5,69.5C 14.2198,68.1401 16.8864,66.8068 19.5,65.5 Z"/></g>
<g><path style="opacity:1" fill="#c2a68b" d="M 22.5,64.5 C 23.1667,64.5 23.5,64.8333 23.5,65.5C 20.9662,66.6338 19.6329,68.6338 19.5,71.5C 18.8333,71.5 18.5,71.8333 18.5,72.5C 16.3702,74.1271 14.3702,75.9604 12.5,78C 11.0715,78.5791 9.7382,78.4124 8.5,77.5C 8.5,75.8333 8.5,74.1667 8.5,72.5C 9.14987,72.8039 9.81654,73.1373 10.5,73.5C 12.7127,71.2261 15.3793,69.7261 18.5,69C 19.3366,67.9887 19.67,66.8221 19.5,65.5C 20.391,64.8902 21.391,64.5569 22.5,64.5 Z"/></g>
<g><path style="opacity:1" fill="#8c8a69" d="M 136.5,51.5 C 134.847,51.6596 133.514,52.3263 132.5,53.5C 130.568,56.1769 130.068,59.1769 131,62.5C 133.182,69.5215 135.349,76.5215 137.5,83.5C 138.478,88.8072 139.478,94.1406 140.5,99.5C 137.888,91.9945 134.888,84.6612 131.5,77.5C 128.728,70.747 126.728,63.747 125.5,56.5C 127.763,52.9031 130.763,49.9031 134.5,47.5C 135.705,48.5769 136.372,49.9102 136.5,51.5 Z"/></g>
<g><path style="opacity:1" fill="#898785" d="M 8.5,72.5 C 8.5,74.1667 8.5,75.8333 8.5,77.5C 5.5,80.1667 2.5,82.8333 -0.5,85.5C -0.5,84.5 -0.5,83.5 -0.5,82.5C 1.4367,81.4097 3.27003,80.0764 5,78.5C 5.42381,75.9746 6.59047,73.9746 8.5,72.5 Z"/></g>
<g><path style="opacity:1" fill="#9f6830" d="M 18.5,72.5 C 18.7525,78.873 18.4192,85.2063 17.5,91.5C 17.4534,93.0377 18.1201,94.0377 19.5,94.5C 20.4349,97.1128 20.6015,99.7795 20,102.5C 18.8438,103.993 18.0104,103.826 17.5,102C 14.1978,93.925 11.1978,85.7583 8.5,77.5C 9.7382,78.4124 11.0715,78.5791 12.5,78C 14.3702,75.9604 16.3702,74.1271 18.5,72.5 Z"/></g>
<g><path style="opacity:1" fill="#323231" d="M 107.5,62.5 C 107.67,63.8221 107.337,64.9887 106.5,66C 88.7183,79.3892 69.385,89.2226 48.5,95.5C 47.2638,93.351 46.2638,91.0177 45.5,88.5C 44.8333,86.5 44.1667,84.5 43.5,82.5C 48.858,83.5122 54.1913,83.5122 59.5,82.5C 64.0758,82.5621 68.4091,81.8955 72.5,80.5C 74.7721,79.5589 76.7721,78.2255 78.5,76.5C 88.0485,71.5589 97.7151,66.8922 107.5,62.5 Z"/></g>
<g><path style="opacity:1" fill="#caca9c" d="M 132.5,53.5 C 133.978,53.238 135.311,53.5713 136.5,54.5C 138.503,58.5725 140.503,62.5725 142.5,66.5C 142.865,69.6249 143.698,72.6249 145,75.5C 145.49,74.2068 145.657,72.8734 145.5,71.5C 145.369,70.7611 145.536,70.0944 146,69.5C 146.852,70.5707 147.685,71.5707 148.5,72.5C 148.5,73.1667 148.5,73.8333 148.5,74.5C 149.001,81.7243 148.334,88.7243 146.5,95.5C 146.388,100.593 145.555,100.593 144,95.5C 143.667,96.8333 143.333,98.1667 143,99.5C 141.23,94.0205 139.397,88.6872 137.5,83.5C 135.349,76.5215 133.182,69.5215 131,62.5C 130.068,59.1769 130.568,56.1769 132.5,53.5 Z"/></g>
<g><path style="opacity:1" fill="#b47e43" d="M 247.5,85.5 C 247.89,88.8394 248.39,92.1727 249,95.5C 250.734,97.4506 252.901,98.4506 255.5,98.5C 255.5,100.833 255.5,103.167 255.5,105.5C 249.598,102.42 246.098,97.4198 245,90.5C 242.966,88.9684 240.799,87.6351 238.5,86.5C 237.808,87.0253 237.308,87.6919 237,88.5C 235.667,87.1667 234.333,85.8333 233,84.5C 232.259,87.1118 233.259,88.7785 236,89.5C 236.497,91.8098 236.663,94.1432 236.5,96.5C 235.5,96.5 234.5,96.5 233.5,96.5C 233.167,96.5 232.833,96.5 232.5,96.5C 232.167,95.8333 231.833,95.1667 231.5,94.5C 231.666,89.4889 231.499,84.4889 231,79.5C 228.525,75.869 227.025,71.869 226.5,67.5C 229.426,68.4608 232.426,69.1274 235.5,69.5C 235.343,70.8734 235.51,72.2068 236,73.5C 237.385,74.5505 238.385,75.8839 239,77.5C 242.921,79.0041 245.754,81.6707 247.5,85.5 Z"/></g>
<g><path style="opacity:1" fill="#534e3b" d="M 37.5,70.5 C 38.2408,74.172 39.4075,77.8387 41,81.5C 41.6708,82.2524 42.5041,82.5858 43.5,82.5C 44.1667,84.5 44.8333,86.5 45.5,88.5C 44.0665,87.1667 42.7332,85.6667 41.5,84C 40.184,83.4719 39.5173,83.9719 39.5,85.5C 38.7924,83.6221 37.6257,81.9555 36,80.5C 35.6667,80.8333 35.3333,81.1667 35,81.5C 34.8317,87.4955 34.9983,93.4955 35.5,99.5C 33.7202,91.7364 32.7202,83.7364 32.5,75.5C 34.1927,76.4749 35.6927,77.8082 37,79.5C 37.4966,77.1902 37.6633,74.8568 37.5,72.5C 37.5,71.8333 37.5,71.1667 37.5,70.5 Z"/></g>
<g><path style="opacity:1" fill="#7e7a65" d="M 152.5,73.5 C 150.087,80.4371 150.087,87.4371 152.5,94.5C 153.822,94.33 154.989,94.6634 156,95.5C 156.791,94.255 157.291,92.9217 157.5,91.5C 157.833,91.5 158.167,91.5 158.5,91.5C 158.216,93.4147 158.549,95.0813 159.5,96.5C 159.5,96.8333 159.5,97.1667 159.5,97.5C 155.901,99.024 152.234,99.3573 148.5,98.5C 147.824,97.3984 147.158,96.3984 146.5,95.5C 148.334,88.7243 149.001,81.7243 148.5,74.5C 149.117,74.6107 149.617,74.944 150,75.5C 150.369,72.123 150.369,68.7897 150,65.5C 151.731,67.8618 152.565,70.5285 152.5,73.5 Z"/></g>
<g><path style="opacity:1" fill="#acaa89" d="M 152.5,73.5 C 154.911,79.178 156.577,85.178 157.5,91.5C 157.291,92.9217 156.791,94.255 156,95.5C 154.989,94.6634 153.822,94.33 152.5,94.5C 150.087,87.4371 150.087,80.4371 152.5,73.5 Z"/></g>
<g><path style="opacity:1" fill="#2d2922" d="M 121.5,55.5 C 121.262,57.6449 120.262,59.3115 118.5,60.5C 118.311,56.4784 116.977,56.4784 114.5,60.5C 114.846,61.6956 115.346,61.6956 116,60.5C 116.667,61.1667 116.667,61.8333 116,62.5C 113.303,64.1924 110.803,66.1924 108.5,68.5C 109.729,69.2811 111.062,69.7811 112.5,70C 111.5,71 110.5,72 109.5,73C 111.425,72.8651 113.425,72.6984 115.5,72.5C 115.663,74.8568 115.497,77.1902 115,79.5C 113.259,82.3093 112.092,85.3093 111.5,88.5C 109.806,89.5274 108.473,90.8608 107.5,92.5C 107.785,90.712 107.452,89.0453 106.5,87.5C 103.555,90.9825 101.555,94.9825 100.5,99.5C 100.167,99.5 99.8333,99.5 99.5,99.5C 99.1778,98.1418 99.1778,96.4752 99.5,94.5C 99.5,93.8333 99.5,93.1667 99.5,92.5C 100.283,90.6568 100.95,88.6568 101.5,86.5C 105.582,85.3045 107.249,82.8045 106.5,79C 105.5,78.3333 104.5,78.3333 103.5,79C 99.3784,82.1672 95.3784,85.3339 91.5,88.5C 88.2891,88.9387 85.9557,90.6054 84.5,93.5C 83.2638,92.7542 81.9305,92.4208 80.5,92.5C 84.8441,90.3295 88.8441,87.6628 92.5,84.5C 94.795,81.7029 97.295,79.0362 100,76.5C 100.688,75.6683 100.521,75.0016 99.5,74.5C 85.9478,84.2801 71.2812,91.2801 55.5,95.5C 53.4862,95.3915 51.8195,96.0582 50.5,97.5C 49.1667,97.5 48.5,96.8333 48.5,95.5C 69.385,89.2226 88.7183,79.3892 106.5,66C 107.337,64.9887 107.67,63.8221 107.5,62.5C 110.672,60.7481 113.672,58.7481 116.5,56.5C 118.292,56.634 119.958,56.3007 121.5,55.5 Z"/></g>
<g><path style="opacity:1" fill="#715933" d="M 92.5,84.5 C 83.5208,88.7681 74.5208,92.9347 65.5,97C 61.9292,97.4482 58.5959,96.9482 55.5,95.5C 71.2812,91.2801 85.9478,84.2801 99.5,74.5C 100.521,75.0016 100.688,75.6683 100,76.5C 97.295,79.0362 94.795,81.7029 92.5,84.5 Z"/></g>
<g><path style="opacity:1" fill="#706f5b" d="M 99.5,92.5 C 100.581,85.856 99.2474,84.6893 95.5,89C 94.552,89.4828 93.552,89.6495 92.5,89.5C 92.5,90.5 92.5,91.5 92.5,92.5C 91.5655,91.4324 91.2322,90.099 91.5,88.5C 95.3784,85.3339 99.3784,82.1672 103.5,79C 104.5,78.3333 105.5,78.3333 106.5,79C 107.249,82.8045 105.582,85.3045 101.5,86.5C 100.95,88.6568 100.283,90.6568 99.5,92.5 Z"/></g>
<g><path style="opacity:1" fill="#744f2b" d="M 19.5,71.5 C 19.5,75.5 19.5,79.5 19.5,83.5C 19.5,87.1667 19.5,90.8333 19.5,94.5C 18.1201,94.0377 17.4534,93.0377 17.5,91.5C 18.4192,85.2063 18.7525,78.873 18.5,72.5C 18.5,71.8333 18.8333,71.5 19.5,71.5 Z"/></g>
<g><path style="opacity:1" fill="#8e814b" d="M 45.5,88.5 C 46.2638,91.0177 47.2638,93.351 48.5,95.5C 48.5,96.8333 49.1667,97.5 50.5,97.5C 50.5,98.1667 50.5,98.8333 50.5,99.5C 48.5328,99.7394 46.6995,99.4061 45,98.5C 44.5439,97.2559 45.0439,96.4226 46.5,96C 43.2881,93.0733 40.9547,89.5733 39.5,85.5C 39.5173,83.9719 40.184,83.4719 41.5,84C 42.7332,85.6667 44.0665,87.1667 45.5,88.5 Z"/></g>
<g><path style="opacity:1" fill="#98997c" d="M 99.5,92.5 C 99.5,93.1667 99.5,93.8333 99.5,94.5C 98.0687,95.7804 97.4021,97.4471 97.5,99.5C 96.5,99.5 95.5,99.5 94.5,99.5C 94.233,97.0347 93.5664,94.7014 92.5,92.5C 92.5,91.5 92.5,90.5 92.5,89.5C 93.552,89.6495 94.552,89.4828 95.5,89C 99.2474,84.6893 100.581,85.856 99.5,92.5 Z"/></g>
<g><path style="opacity:1" fill="#6f6a4d" d="M 131.5,77.5 C 134.888,84.6612 137.888,91.9945 140.5,99.5C 140.166,102.188 140.832,104.521 142.5,106.5C 142.675,108.621 142.341,110.621 141.5,112.5C 139.857,108.591 138.524,104.591 137.5,100.5C 135.249,92.9165 133.249,85.2498 131.5,77.5 Z"/></g>
<g><path style="opacity:1" fill="#6a6858" d="M 107.5,92.5 C 106.512,93.795 105.512,95.1283 104.5,96.5C 103.363,97.7888 102.03,98.7888 100.5,99.5C 101.555,94.9825 103.555,90.9825 106.5,87.5C 107.452,89.0453 107.785,90.712 107.5,92.5 Z"/></g>
<g><path style="opacity:1" fill="#895c2d" d="M 186.5,65.5 C 189.764,66.3242 193.098,66.6576 196.5,66.5C 196.762,67.9778 196.429,69.3112 195.5,70.5C 193.473,71.6933 191.973,73.36 191,75.5C 191.015,80.2219 190.848,84.8885 190.5,89.5C 189.186,88.6872 188.019,87.6872 187,86.5C 187.898,80.5832 185.731,76.2499 180.5,73.5C 178.289,74.1228 176.289,75.1228 174.5,76.5C 174.167,80.1667 172.167,82.1667 168.5,82.5C 169.833,84.1667 171.167,85.8333 172.5,87.5C 170.574,91.3406 169.241,95.3406 168.5,99.5C 167.542,99.9528 166.708,100.619 166,101.5C 165.362,104.536 165.528,107.536 166.5,110.5C 166.332,112.171 165.665,113.504 164.5,114.5C 164.443,113.391 164.11,112.391 163.5,111.5C 162.87,107.952 161.87,104.619 160.5,101.5C 160.567,100.041 160.234,98.7079 159.5,97.5C 159.5,97.1667 159.5,96.8333 159.5,96.5C 161.471,95.1769 163.471,93.8435 165.5,92.5C 166.225,88.4681 167.058,84.4681 168,80.5C 170.634,74.0936 175.467,71.0936 182.5,71.5C 182.369,72.2389 182.536,72.9056 183,73.5C 184.011,72.6634 185.178,72.33 186.5,72.5C 186.5,70.1667 186.5,67.8333 186.5,65.5 Z"/></g>
<g><path style="opacity:1" fill="#a8722d" d="M 195.5,72.5 C 192.798,80.899 194.465,88.0657 200.5,94C 201.833,94.6667 203.167,94.6667 204.5,94C 205.529,92.3016 207.029,91.4683 209,91.5C 211.229,92.3689 213.562,92.3689 216,91.5C 221.378,91.8952 226.545,92.8952 231.5,94.5C 231.833,95.1667 232.167,95.8333 232.5,96.5C 224.183,93.3526 216.183,93.8526 208.5,98C 203.825,98.7971 199.159,99.6304 194.5,100.5C 195.167,102.833 195.833,105.167 196.5,107.5C 197.949,108.172 199.282,108.839 200.5,109.5C 199.5,109.5 198.5,109.5 197.5,109.5C 194.798,106.991 191.798,105.658 188.5,105.5C 187.167,106.167 185.833,106.833 184.5,107.5C 183.719,106.271 183.219,104.938 183,103.5C 182.439,102.978 181.772,102.645 181,102.5C 178.632,103.717 176.132,104.551 173.5,105C 173.833,105.333 174.167,105.667 174.5,106C 173.588,108.251 172.588,110.417 171.5,112.5C 169.291,113.92 167.291,115.587 165.5,117.5C 164.89,116.609 164.557,115.609 164.5,114.5C 165.665,113.504 166.332,112.171 166.5,110.5C 165.528,107.536 165.362,104.536 166,101.5C 166.708,100.619 167.542,99.9528 168.5,99.5C 171.428,99.1484 174.262,98.4817 177,97.5C 178.054,92.295 177.221,87.4617 174.5,83C 176.604,80.5397 179.271,78.7064 182.5,77.5C 183.833,78.1667 184.833,79.1667 185.5,80.5C 184.116,86.4613 186.449,90.128 192.5,91.5C 192.334,85.8236 192.501,80.1569 193,74.5C 193.708,73.6195 194.542,72.9528 195.5,72.5 Z"/></g>
<g><path style="opacity:1" fill="#e4b47f" d="M 247.5,85.5 C 249.213,86.305 250.879,87.305 252.5,88.5C 252.815,90.483 253.815,91.8163 255.5,92.5C 255.5,94.5 255.5,96.5 255.5,98.5C 252.901,98.4506 250.734,97.4506 249,95.5C 248.39,92.1727 247.89,88.8394 247.5,85.5 Z"/></g>
<g><path style="opacity:1" fill="#251e17" d="M 104.5,118.5 C 103.74,116.776 103.407,115.11 103.5,113.5C 100.492,118.001 97.4925,122.501 94.5,127C 86.4512,132.309 77.7845,133.809 68.5,131.5C 73.1259,130.66 77.7926,129.494 82.5,128C 83.9423,127.623 84.9423,126.79 85.5,125.5C 87.1667,123.5 88.8333,121.5 90.5,119.5C 98.2919,115.707 103.625,109.707 106.5,101.5C 108.462,99.575 109.295,97.2417 109,94.5C 107.315,96.0175 105.815,97.6841 104.5,99.5C 103.913,98.7666 103.913,97.7666 104.5,96.5C 105.512,95.1283 106.512,93.795 107.5,92.5C 108.473,90.8608 109.806,89.5274 111.5,88.5C 112.189,89.7736 113.023,89.7736 114,88.5C 116.435,82.9115 118.602,77.2449 120.5,71.5C 122.077,73.5583 123.077,75.8916 123.5,78.5C 122.46,81.0543 121.127,83.2209 119.5,85C 120.649,86.6037 120.649,88.2703 119.5,90C 115.287,96.2615 110.954,102.428 106.5,108.5C 106.667,108.833 106.833,109.167 107,109.5C 108.113,107.671 109.613,106.837 111.5,107C 109.965,109.624 108.798,112.457 108,115.5C 106.855,116.636 105.688,117.636 104.5,118.5 Z"/></g>
<g><path style="opacity:1" fill="#9d6e3d" d="M 255.5,105.5 C 255.5,107.5 255.5,109.5 255.5,111.5C 251.119,111.628 246.785,111.295 242.5,110.5C 245.421,107.112 245.088,104.112 241.5,101.5C 240.086,102.624 238.586,103.624 237,104.5C 235.39,102.008 234.224,99.3411 233.5,96.5C 234.5,96.5 235.5,96.5 236.5,96.5C 236.663,94.1432 236.497,91.8098 236,89.5C 233.259,88.7785 232.259,87.1118 233,84.5C 234.333,85.8333 235.667,87.1667 237,88.5C 237.308,87.6919 237.808,87.0253 238.5,86.5C 240.799,87.6351 242.966,88.9684 245,90.5C 246.098,97.4198 249.598,102.42 255.5,105.5 Z"/></g>
<g><path style="opacity:1" fill="#4a3c23" d="M 92.5,84.5 C 88.8441,87.6628 84.8441,90.3295 80.5,92.5C 79.1667,92.5 78.5,93.1667 78.5,94.5C 73.0819,96.0401 67.7486,97.8735 62.5,100C 58.6521,99.8786 54.9854,100.045 51.5,100.5C 51.5,101.167 51.5,101.833 51.5,102.5C 50.596,101.791 50.2627,100.791 50.5,99.5C 50.5,98.8333 50.5,98.1667 50.5,97.5C 51.8195,96.0582 53.4862,95.3915 55.5,95.5C 58.5959,96.9482 61.9292,97.4482 65.5,97C 74.5208,92.9347 83.5208,88.7681 92.5,84.5 Z"/></g>
<g><path style="opacity:1" fill="#4a4738" d="M 91.5,88.5 C 91.2322,90.099 91.5655,91.4324 92.5,92.5C 93.5664,94.7014 94.233,97.0347 94.5,99.5C 95.5,99.5 96.5,99.5 97.5,99.5C 97.4021,97.4471 98.0687,95.7804 99.5,94.5C 99.1778,96.4752 99.1778,98.1418 99.5,99.5C 98.8658,100.947 97.6991,101.613 96,101.5C 93.924,100.388 91.7573,99.8884 89.5,100C 88.729,102.44 88.5624,104.94 89,107.5C 87.98,106.109 87.1466,104.609 86.5,103C 85.2068,102.51 83.8734,102.343 82.5,102.5C 80.1667,102.5 77.8333,102.5 75.5,102.5C 76.1847,100.586 76.6847,98.5856 77,96.5C 77.9461,101.344 80.2795,102.344 84,99.5C 84.7642,94.7591 82.9309,93.0924 78.5,94.5C 78.5,93.1667 79.1667,92.5 80.5,92.5C 81.9305,92.4208 83.2638,92.7542 84.5,93.5C 85.9557,90.6054 88.2891,88.9387 91.5,88.5 Z"/></g>
<g><path style="opacity:1" fill="#999779" d="M 87.5,91.5 C 91.4153,93.1983 91.4153,95.1983 87.5,97.5C 86.3058,95.4844 86.3058,93.4844 87.5,91.5 Z"/></g>
<g><path style="opacity:1" fill="#887e53" d="M 28.5,77.5 C 32.9121,99.2479 36.5788,121.248 39.5,143.5C 38.8333,143.5 38.1667,143.5 37.5,143.5C 37.8016,140.941 37.4682,138.607 36.5,136.5C 33.8333,117.833 31.1666,99.1664 28.5,80.5C 28.5,79.5 28.5,78.5 28.5,77.5 Z"/></g>
<g><path style="opacity:1" fill="#d2d0c3" d="M 51.5,100.5 C 54.5411,101.199 56.2078,103.199 56.5,106.5C 53.656,106.657 51.9893,105.324 51.5,102.5C 51.5,101.833 51.5,101.167 51.5,100.5 Z"/></g>
<g><path style="opacity:1" fill="#9d9a7b" d="M 75.5,102.5 C 74.609,103.11 73.609,103.443 72.5,103.5C 71.0695,103.579 69.7362,103.246 68.5,102.5C 66.6627,108.415 63.496,109.082 59,104.5C 58.2599,105.749 58.4265,106.749 59.5,107.5C 58.8505,109.435 58.5172,111.435 58.5,113.5C 57.7321,111.285 57.0654,108.952 56.5,106.5C 56.2078,103.199 54.5411,101.199 51.5,100.5C 54.9854,100.045 58.6521,99.8786 62.5,100C 67.7486,97.8735 73.0819,96.0401 78.5,94.5C 82.9309,93.0924 84.7642,94.7591 84,99.5C 80.2795,102.344 77.9461,101.344 77,96.5C 76.6847,98.5856 76.1847,100.586 75.5,102.5 Z"/></g>
<g><path style="opacity:1" fill="#807d63" d="M 99.5,99.5 C 99.8333,99.5 100.167,99.5 100.5,99.5C 96.1281,103.547 92.4614,108.214 89.5,113.5C 89.1667,113.5 88.8333,113.5 88.5,113.5C 87.5,110.833 86.5,108.167 85.5,105.5C 84.1667,105.5 82.8333,105.5 81.5,105.5C 82.8263,108.682 83.3263,112.015 83,115.5C 82.1529,113.146 81.3195,110.812 80.5,108.5C 80.2525,106.142 80.9192,104.142 82.5,102.5C 83.8734,102.343 85.2068,102.51 86.5,103C 87.1466,104.609 87.98,106.109 89,107.5C 88.5624,104.94 88.729,102.44 89.5,100C 91.7573,99.8884 93.924,100.388 96,101.5C 97.6991,101.613 98.8658,100.947 99.5,99.5 Z"/></g>
<g><path style="opacity:1" fill="#c3c197" d="M 137.5,83.5 C 139.397,88.6872 141.23,94.0205 143,99.5C 143.333,98.1667 143.667,96.8333 144,95.5C 145.555,100.593 146.388,100.593 146.5,95.5C 147.158,96.3984 147.824,97.3984 148.5,98.5C 152.234,99.3573 155.901,99.024 159.5,97.5C 160.234,98.7079 160.567,100.041 160.5,101.5C 160.431,104.084 159.265,106.084 157,107.5C 156.647,111.117 155.814,114.617 154.5,118C 155.479,120.433 156.145,122.933 156.5,125.5C 156.34,127.199 156.506,128.866 157,130.5C 157.667,131.833 158.333,131.833 159,130.5C 159.601,132.137 160.101,133.803 160.5,135.5C 159.382,138.155 159.382,140.822 160.5,143.5C 157.833,143.5 155.167,143.5 152.5,143.5C 150.364,130.771 147.03,118.437 142.5,106.5C 140.832,104.521 140.166,102.188 140.5,99.5C 139.478,94.1406 138.478,88.8072 137.5,83.5 Z"/></g>
<g><path style="opacity:1" fill="#4a3e28" d="M 106.5,101.5 C 105.749,100.427 104.749,100.26 103.5,101C 99.2401,105.768 94.5734,109.934 89.5,113.5C 92.4614,108.214 96.1281,103.547 100.5,99.5C 102.03,98.7888 103.363,97.7888 104.5,96.5C 103.913,97.7666 103.913,98.7666 104.5,99.5C 105.815,97.6841 107.315,96.0175 109,94.5C 109.295,97.2417 108.462,99.575 106.5,101.5 Z"/></g>
<g><path style="opacity:1" fill="#181512" d="M 125.5,56.5 C 126.728,63.747 128.728,70.747 131.5,77.5C 133.249,85.2498 135.249,92.9165 137.5,100.5C 134.118,103.567 130.952,106.901 128,110.5C 126.274,114.953 124.274,119.286 122,123.5C 117.335,130.325 112.502,136.991 107.5,143.5C 106.5,143.5 105.5,143.5 104.5,143.5C 107.398,138.428 110.898,133.761 115,129.5C 117.637,123.262 119.637,116.929 121,110.5C 112.276,126.397 99.4429,137.397 82.5,143.5C 80.5,143.5 78.5,143.5 76.5,143.5C 77.9002,142.9 78.9002,141.9 79.5,140.5C 93.5393,135.937 105.206,127.604 114.5,115.5C 114.333,115.167 114.167,114.833 114,114.5C 111.311,117.849 108.144,119.183 104.5,118.5C 105.688,117.636 106.855,116.636 108,115.5C 108.798,112.457 109.965,109.624 111.5,107C 109.613,106.837 108.113,107.671 107,109.5C 106.833,109.167 106.667,108.833 106.5,108.5C 110.954,102.428 115.287,96.2615 119.5,90C 120.649,88.2703 120.649,86.6037 119.5,85C 121.127,83.2209 122.46,81.0543 123.5,78.5C 123.077,75.8916 122.077,73.5583 120.5,71.5C 118.602,77.2449 116.435,82.9115 114,88.5C 113.023,89.7736 112.189,89.7736 111.5,88.5C 112.092,85.3093 113.259,82.3093 115,79.5C 115.497,77.1902 115.663,74.8568 115.5,72.5C 113.425,72.6984 111.425,72.8651 109.5,73C 110.5,72 111.5,71 112.5,70C 111.062,69.7811 109.729,69.2811 108.5,68.5C 110.803,66.1924 113.303,64.1924 116,62.5C 116.667,61.8333 116.667,61.1667 116,60.5C 115.346,61.6956 114.846,61.6956 114.5,60.5C 116.977,56.4784 118.311,56.4784 118.5,60.5C 120.262,59.3115 121.262,57.6449 121.5,55.5C 123.195,54.1736 124.528,54.5069 125.5,56.5 Z"/></g>
<g><path style="opacity:1" fill="#232220" d="M 75.5,102.5 C 77.8333,102.5 80.1667,102.5 82.5,102.5C 80.9192,104.142 80.2525,106.142 80.5,108.5C 76.5,109.833 72.5,111.167 68.5,112.5C 67.391,112.557 66.391,112.89 65.5,113.5C 64.2921,112.766 62.9587,112.433 61.5,112.5C 61.5,111.833 61.5,111.167 61.5,110.5C 63.4559,108.852 65.7892,108.185 68.5,108.5C 68.5,107.167 68.5,105.833 68.5,104.5C 70.099,104.768 71.4324,104.434 72.5,103.5C 73.609,103.443 74.609,103.11 75.5,102.5 Z"/></g>
<g><path style="opacity:1" fill="#514d3e" d="M 72.5,103.5 C 71.4324,104.434 70.099,104.768 68.5,104.5C 68.5,105.833 68.5,107.167 68.5,108.5C 65.7892,108.185 63.4559,108.852 61.5,110.5C 61.7148,108.821 61.0481,107.821 59.5,107.5C 58.4265,106.749 58.2599,105.749 59,104.5C 63.496,109.082 66.6627,108.415 68.5,102.5C 69.7362,103.246 71.0695,103.579 72.5,103.5 Z"/></g>
<g><path style="opacity:1" fill="#c0862f" d="M 197.5,109.5 C 198.468,112.445 198.634,115.445 198,118.5C 197.667,117.833 197.333,117.167 197,116.5C 195.788,120.528 193.621,123.862 190.5,126.5C 191.072,124.745 191.906,123.078 193,121.5C 193.667,119.833 193.667,118.167 193,116.5C 189.5,116.223 186,115.057 182.5,113C 180.393,111.736 179.393,109.903 179.5,107.5C 178.448,107.351 177.448,107.517 176.5,108C 174.963,109.707 173.296,111.207 171.5,112.5C 172.588,110.417 173.588,108.251 174.5,106C 174.167,105.667 173.833,105.333 173.5,105C 176.132,104.551 178.632,103.717 181,102.5C 181.772,102.645 182.439,102.978 183,103.5C 183.219,104.938 183.719,106.271 184.5,107.5C 185.833,106.833 187.167,106.167 188.5,105.5C 191.798,105.658 194.798,106.991 197.5,109.5 Z"/></g>
<g><path style="opacity:1" fill="#63431a" d="M 241.5,110.5 C 236.663,114.368 236.496,118.701 241,123.5C 241.333,125.5 241.667,127.5 242,129.5C 246.925,133.237 250.425,137.904 252.5,143.5C 251.5,143.5 250.5,143.5 249.5,143.5C 241.411,135.404 234.411,126.404 228.5,116.5C 227.833,116.167 227.167,115.833 226.5,115.5C 225.287,115.747 224.62,116.414 224.5,117.5C 223.494,122.348 223.494,127.181 224.5,132C 222.638,135.791 222.305,139.624 223.5,143.5C 222.5,143.5 221.5,143.5 220.5,143.5C 220.863,133.744 220.196,124.077 218.5,114.5C 214.121,113.987 209.787,113.153 205.5,112C 203.84,109.688 203.007,107.188 203,104.5C 211.293,105.085 219.793,105.918 228.5,107C 230.593,108.927 232.593,108.76 234.5,106.5C 237.279,107.398 239.612,108.731 241.5,110.5 Z"/></g>
<g><path style="opacity:1" fill="#999674" d="M 31.5,71.5 C 32.4345,72.5676 32.7678,73.901 32.5,75.5C 32.7202,83.7364 33.7202,91.7364 35.5,99.5C 37.9679,114.108 39.9679,128.775 41.5,143.5C 40.8333,143.5 40.1667,143.5 39.5,143.5C 36.5788,121.248 32.9121,99.2479 28.5,77.5C 28.3398,75.8008 28.5065,74.1341 29,72.5C 29.3333,72.8333 29.6667,73.1667 30,73.5C 30.2784,72.5842 30.7784,71.9175 31.5,71.5 Z"/></g>
<g><path style="opacity:1" fill="#363128" d="M 39.5,85.5 C 40.9547,89.5733 43.2881,93.0733 46.5,96C 45.0439,96.4226 44.5439,97.2559 45,98.5C 46.6995,99.4061 48.5328,99.7394 50.5,99.5C 50.2627,100.791 50.596,101.791 51.5,102.5C 51.9893,105.324 53.656,106.657 56.5,106.5C 57.0654,108.952 57.7321,111.285 58.5,113.5C 58.8333,114.167 59.1667,114.833 59.5,115.5C 59.0679,118.877 59.7345,121.877 61.5,124.5C 62.6787,127.971 65.1787,129.304 69,128.5C 74.6392,128.072 80.1392,127.072 85.5,125.5C 84.9423,126.79 83.9423,127.623 82.5,128C 77.7926,129.494 73.1259,130.66 68.5,131.5C 67.399,130.2 66.0657,129.7 64.5,130C 67.4196,134.011 69.0862,138.511 69.5,143.5C 60.1667,143.5 50.8333,143.5 41.5,143.5C 39.9679,128.775 37.9679,114.108 35.5,99.5C 34.9983,93.4955 34.8317,87.4955 35,81.5C 35.3333,81.1667 35.6667,80.8333 36,80.5C 37.6257,81.9555 38.7924,83.6221 39.5,85.5 Z"/></g>
<g><path style="opacity:1" fill="#232222" d="M 28.5,80.5 C 31.1666,99.1664 33.8333,117.833 36.5,136.5C 36.9354,139.613 35.9354,140.279 33.5,138.5C 31.5,139 29.5,139.5 27.5,140C 29.6181,141.082 31.6181,142.249 33.5,143.5C 22.1667,143.5 10.8333,143.5 -0.5,143.5C -0.5,124.167 -0.5,104.833 -0.5,85.5C 2.5,82.8333 5.5,80.1667 8.5,77.5C 11.1978,85.7583 14.1978,93.925 17.5,102C 18.0104,103.826 18.8438,103.993 20,102.5C 20.6015,99.7795 20.4349,97.1128 19.5,94.5C 19.5,90.8333 19.5,87.1667 19.5,83.5C 22.1128,82.6081 22.7795,80.9414 21.5,78.5C 22.7277,76.679 24.3944,75.679 26.5,75.5C 26.3398,73.8008 26.5065,72.1341 27,70.5C 27.1787,74.0252 27.6787,77.3586 28.5,80.5 Z"/></g>
<g><path style="opacity:1" fill="#bbb995" d="M 88.5,113.5 C 86.3805,115.4 84.0472,117.066 81.5,118.5C 78.5703,120.738 75.2369,122.071 71.5,122.5C 70.791,121.596 69.791,121.263 68.5,121.5C 68.5,118.5 68.5,115.5 68.5,112.5C 72.5,111.167 76.5,109.833 80.5,108.5C 81.3195,110.812 82.1529,113.146 83,115.5C 83.3263,112.015 82.8263,108.682 81.5,105.5C 82.8333,105.5 84.1667,105.5 85.5,105.5C 86.5,108.167 87.5,110.833 88.5,113.5 Z"/></g>
<g><path style="opacity:1" fill="#1d1d1b" d="M 137.5,100.5 C 138.524,104.591 139.857,108.591 141.5,112.5C 141.833,115.167 142.167,117.833 142.5,120.5C 137.762,128.301 132.762,135.967 127.5,143.5C 120.833,143.5 114.167,143.5 107.5,143.5C 112.502,136.991 117.335,130.325 122,123.5C 124.274,119.286 126.274,114.953 128,110.5C 130.952,106.901 134.118,103.567 137.5,100.5 Z"/></g>
<g><path style="opacity:1" fill="#78633e" d="M 106.5,101.5 C 103.625,109.707 98.2919,115.707 90.5,119.5C 90.8072,117.554 90.8072,115.887 90.5,114.5C 88.1698,116.667 85.5032,118.334 82.5,119.5C 81.8933,119.376 81.56,119.043 81.5,118.5C 84.0472,117.066 86.3805,115.4 88.5,113.5C 88.8333,113.5 89.1667,113.5 89.5,113.5C 94.5734,109.934 99.2401,105.768 103.5,101C 104.749,100.26 105.749,100.427 106.5,101.5 Z"/></g>
<g><path style="opacity:1" fill="#d19731" d="M 190.5,126.5 C 187.069,129.427 183.736,132.594 180.5,136C 177.607,137.149 174.607,137.649 171.5,137.5C 169.68,131.373 167.68,125.373 165.5,119.5C 165.5,118.833 165.5,118.167 165.5,117.5C 167.291,115.587 169.291,113.92 171.5,112.5C 173.296,111.207 174.963,109.707 176.5,108C 177.448,107.517 178.448,107.351 179.5,107.5C 179.393,109.903 180.393,111.736 182.5,113C 186,115.057 189.5,116.223 193,116.5C 193.667,118.167 193.667,119.833 193,121.5C 191.906,123.078 191.072,124.745 190.5,126.5 Z"/></g>
<g><path style="opacity:1" fill="#615448" d="M 160.5,101.5 C 161.87,104.619 162.87,107.952 163.5,111.5C 161.977,109.49 160.144,109.156 158,110.5C 157.975,113.917 157.808,117.25 157.5,120.5C 158.089,123.022 158.755,125.522 159.5,128C 159.167,128.5 158.833,129 158.5,129.5C 157.828,128.051 157.161,126.718 156.5,125.5C 156.145,122.933 155.479,120.433 154.5,118C 155.814,114.617 156.647,111.117 157,107.5C 159.265,106.084 160.431,104.084 160.5,101.5 Z"/></g>
<g><path style="opacity:1" fill="#d8d7cc" d="M 59.5,107.5 C 61.0481,107.821 61.7148,108.821 61.5,110.5C 61.5,111.167 61.5,111.833 61.5,112.5C 63.0507,114.913 63.7174,117.579 63.5,120.5C 61.4658,119.409 60.1324,117.743 59.5,115.5C 59.1667,114.833 58.8333,114.167 58.5,113.5C 58.5172,111.435 58.8505,109.435 59.5,107.5 Z"/></g>
<g><path style="opacity:1" fill="#afad83" d="M 61.5,112.5 C 62.9587,112.433 64.2921,112.766 65.5,113.5C 65.3874,116.049 66.0541,118.382 67.5,120.5C 66.0416,121.782 64.7082,121.782 63.5,120.5C 63.7174,117.579 63.0507,114.913 61.5,112.5 Z"/></g>
<g><path style="opacity:1" fill="#a97b2c" d="M 197.5,109.5 C 198.5,109.5 199.5,109.5 200.5,109.5C 201.046,112.256 202.38,114.59 204.5,116.5C 208.5,117.833 212.5,119.167 216.5,120.5C 217.661,124.795 217.828,129.129 217,133.5C 214.574,136.691 212.407,140.025 210.5,143.5C 209.833,143.5 209.167,143.5 208.5,143.5C 208.412,138.806 210.245,135.14 214,132.5C 214.875,131.127 215.375,129.627 215.5,128C 214.459,125.277 212.959,122.777 211,120.5C 208.936,119.409 206.769,119.242 204.5,120C 203.547,121.955 202.213,123.622 200.5,125C 192.6,127.393 186.6,132.226 182.5,139.5C 183.18,140.86 183.847,142.193 184.5,143.5C 180.5,143.5 176.5,143.5 172.5,143.5C 171.85,141.565 171.517,139.565 171.5,137.5C 174.607,137.649 177.607,137.149 180.5,136C 183.736,132.594 187.069,129.427 190.5,126.5C 193.621,123.862 195.788,120.528 197,116.5C 197.333,117.167 197.667,117.833 198,118.5C 198.634,115.445 198.468,112.445 197.5,109.5 Z"/></g>
<g><path style="opacity:1" fill="#6a5e41" d="M 68.5,112.5 C 68.5,115.5 68.5,118.5 68.5,121.5C 69.791,121.263 70.791,121.596 71.5,122.5C 68.1667,123.167 64.8333,123.833 61.5,124.5C 59.7345,121.877 59.0679,118.877 59.5,115.5C 60.1324,117.743 61.4658,119.409 63.5,120.5C 64.7082,121.782 66.0416,121.782 67.5,120.5C 66.0541,118.382 65.3874,116.049 65.5,113.5C 66.391,112.89 67.391,112.557 68.5,112.5 Z"/></g>
<g><path style="opacity:1" fill="#977b4d" d="M 90.5,119.5 C 88.8333,121.5 87.1667,123.5 85.5,125.5C 80.1392,127.072 74.6392,128.072 69,128.5C 65.1787,129.304 62.6787,127.971 61.5,124.5C 64.8333,123.833 68.1667,123.167 71.5,122.5C 75.2369,122.071 78.5703,120.738 81.5,118.5C 81.56,119.043 81.8933,119.376 82.5,119.5C 85.5032,118.334 88.1698,116.667 90.5,114.5C 90.8072,115.887 90.8072,117.554 90.5,119.5 Z"/></g>
<g><path style="opacity:1" fill="#351f09" d="M 249.5,143.5 C 243.167,143.5 236.833,143.5 230.5,143.5C 228.617,138.097 226.95,132.597 225.5,127C 228.337,123.311 228.004,120.144 224.5,117.5C 224.62,116.414 225.287,115.747 226.5,115.5C 227.167,115.833 227.833,116.167 228.5,116.5C 234.411,126.404 241.411,135.404 249.5,143.5 Z"/></g>
<g><path style="opacity:1" fill="#8f8c6d" d="M 142.5,106.5 C 147.03,118.437 150.364,130.771 152.5,143.5C 151.167,143.5 149.833,143.5 148.5,143.5C 147.868,139.298 146.868,135.298 145.5,131.5C 145.324,128.273 144.657,125.273 143.5,122.5C 143.167,121.833 142.833,121.167 142.5,120.5C 142.167,117.833 141.833,115.167 141.5,112.5C 142.341,110.621 142.675,108.621 142.5,106.5 Z"/></g>
<g><path style="opacity:1" fill="#2f302f" d="M 104.5,118.5 C 108.144,119.183 111.311,117.849 114,114.5C 114.167,114.833 114.333,115.167 114.5,115.5C 105.206,127.604 93.5393,135.937 79.5,140.5C 78.1667,139.833 76.8333,139.167 75.5,138.5C 73.9505,137.559 72.2838,136.893 70.5,136.5C 69.0582,135.18 68.3915,133.514 68.5,131.5C 77.7845,133.809 86.4512,132.309 94.5,127C 97.4925,122.501 100.492,118.001 103.5,113.5C 103.407,115.11 103.74,116.776 104.5,118.5 Z"/></g>
<g><path style="opacity:1" fill="#825a21" d="M 232.5,96.5 C 232.833,96.5 233.167,96.5 233.5,96.5C 234.224,99.3411 235.39,102.008 237,104.5C 238.586,103.624 240.086,102.624 241.5,101.5C 245.088,104.112 245.421,107.112 242.5,110.5C 242.167,110.5 241.833,110.5 241.5,110.5C 239.612,108.731 237.279,107.398 234.5,106.5C 232.593,108.76 230.593,108.927 228.5,107C 219.793,105.918 211.293,105.085 203,104.5C 203.007,107.188 203.84,109.688 205.5,112C 209.787,113.153 214.121,113.987 218.5,114.5C 220.196,124.077 220.863,133.744 220.5,143.5C 217.167,143.5 213.833,143.5 210.5,143.5C 212.407,140.025 214.574,136.691 217,133.5C 217.828,129.129 217.661,124.795 216.5,120.5C 212.5,119.167 208.5,117.833 204.5,116.5C 202.38,114.59 201.046,112.256 200.5,109.5C 199.282,108.839 197.949,108.172 196.5,107.5C 195.833,105.167 195.167,102.833 194.5,100.5C 199.159,99.6304 203.825,98.7971 208.5,98C 216.183,93.8526 224.183,93.3526 232.5,96.5 Z"/></g>
<g><path style="opacity:1" fill="#735d27" d="M 143.5,122.5 C 144.657,125.273 145.324,128.273 145.5,131.5C 143.877,133.951 141.711,135.951 139,137.5C 138.495,139.518 137.995,141.518 137.5,143.5C 136.167,143.5 134.833,143.5 133.5,143.5C 134.184,141.551 135.351,139.885 137,138.5C 136.761,134.816 138.261,132.149 141.5,130.5C 142.549,127.92 143.216,125.254 143.5,122.5 Z"/></g>
<g><path style="opacity:1" fill="#946c2d" d="M 241.5,110.5 C 241.833,110.5 242.167,110.5 242.5,110.5C 246.785,111.295 251.119,111.628 255.5,111.5C 255.5,114.5 255.5,117.5 255.5,120.5C 253.866,119.793 252.532,118.627 251.5,117C 248.408,115.879 245.408,114.713 242.5,113.5C 242.471,123.788 246.804,131.455 255.5,136.5C 255.5,138.833 255.5,141.167 255.5,143.5C 254.5,143.5 253.5,143.5 252.5,143.5C 250.425,137.904 246.925,133.237 242,129.5C 241.667,127.5 241.333,125.5 241,123.5C 236.496,118.701 236.663,114.368 241.5,110.5 Z"/></g>
<g><path style="opacity:1" fill="#b78735" d="M 255.5,120.5 C 255.5,125.833 255.5,131.167 255.5,136.5C 246.804,131.455 242.471,123.788 242.5,113.5C 245.408,114.713 248.408,115.879 251.5,117C 252.532,118.627 253.866,119.793 255.5,120.5 Z"/></g>
<g><path style="opacity:1" fill="#55431c" d="M 142.5,120.5 C 142.833,121.167 143.167,121.833 143.5,122.5C 143.216,125.254 142.549,127.92 141.5,130.5C 138.261,132.149 136.761,134.816 137,138.5C 135.351,139.885 134.184,141.551 133.5,143.5C 131.5,143.5 129.5,143.5 127.5,143.5C 132.762,135.967 137.762,128.301 142.5,120.5 Z"/></g>
<g><path style="opacity:1" fill="#c6902f" d="M 208.5,143.5 C 204.833,143.5 201.167,143.5 197.5,143.5C 199.707,141.554 201.707,139.388 203.5,137C 206.573,136.303 208.573,134.47 209.5,131.5C 207.229,130.264 205.395,128.597 204,126.5C 202.667,127.167 201.333,127.833 200,128.5C 199.228,128.355 198.561,128.022 198,127.5C 194.719,130.57 191.553,133.736 188.5,137C 190.167,138.667 191.833,140.333 193.5,142C 192.263,142.232 191.263,142.732 190.5,143.5C 188.5,143.5 186.5,143.5 184.5,143.5C 183.847,142.193 183.18,140.86 182.5,139.5C 186.6,132.226 192.6,127.393 200.5,125C 202.213,123.622 203.547,121.955 204.5,120C 206.769,119.242 208.936,119.409 211,120.5C 212.959,122.777 214.459,125.277 215.5,128C 215.375,129.627 214.875,131.127 214,132.5C 210.245,135.14 208.412,138.806 208.5,143.5 Z"/></g>
<g><path style="opacity:1" fill="#2a2928" d="M 104.5,143.5 C 97.1667,143.5 89.8333,143.5 82.5,143.5C 99.4429,137.397 112.276,126.397 121,110.5C 119.637,116.929 117.637,123.262 115,129.5C 110.898,133.761 107.398,138.428 104.5,143.5 Z"/></g>
<g><path style="opacity:1" fill="#d79b2f" d="M 197.5,143.5 C 195.167,143.5 192.833,143.5 190.5,143.5C 191.263,142.732 192.263,142.232 193.5,142C 191.833,140.333 190.167,138.667 188.5,137C 191.553,133.736 194.719,130.57 198,127.5C 198.561,128.022 199.228,128.355 200,128.5C 201.333,127.833 202.667,127.167 204,126.5C 205.395,128.597 207.229,130.264 209.5,131.5C 208.573,134.47 206.573,136.303 203.5,137C 201.707,139.388 199.707,141.554 197.5,143.5 Z"/></g>
<g><path style="opacity:1" fill="#492e12" d="M 224.5,117.5 C 228.004,120.144 228.337,123.311 225.5,127C 226.95,132.597 228.617,138.097 230.5,143.5C 228.167,143.5 225.833,143.5 223.5,143.5C 222.305,139.624 222.638,135.791 224.5,132C 223.494,127.181 223.494,122.348 224.5,117.5 Z"/></g>
<g><path style="opacity:1" fill="#b29c56" d="M 70.5,136.5 C 72.2838,136.893 73.9505,137.559 75.5,138.5C 73.2051,139.928 71.2051,139.428 69.5,137C 69.7284,136.601 70.0618,136.435 70.5,136.5 Z"/></g>
<g><path style="opacity:1" fill="#9c833a" d="M 145.5,131.5 C 146.868,135.298 147.868,139.298 148.5,143.5C 144.833,143.5 141.167,143.5 137.5,143.5C 137.995,141.518 138.495,139.518 139,137.5C 141.711,135.951 143.877,133.951 145.5,131.5 Z"/></g>
<g><path style="opacity:1" fill="#7c7051" d="M 165.5,119.5 C 167.68,125.373 169.68,131.373 171.5,137.5C 171.517,139.565 171.85,141.565 172.5,143.5C 169.5,143.5 166.5,143.5 163.5,143.5C 162.197,140.624 161.697,137.624 162,134.5C 162.782,137.076 164.282,139.076 166.5,140.5C 166.833,139.167 167.167,137.833 167.5,136.5C 166.505,130.865 165.838,125.198 165.5,119.5 Z"/></g>
<g><path style="opacity:1" fill="#423a20" d="M 36.5,136.5 C 37.4682,138.607 37.8016,140.941 37.5,143.5C 36.1667,143.5 34.8333,143.5 33.5,143.5C 31.6181,142.249 29.6181,141.082 27.5,140C 29.5,139.5 31.5,139 33.5,138.5C 35.9354,140.279 36.9354,139.613 36.5,136.5 Z"/></g>
<g><path style="opacity:1" fill="#4c432c" d="M 68.5,131.5 C 68.3915,133.514 69.0582,135.18 70.5,136.5C 70.0618,136.435 69.7284,136.601 69.5,137C 71.2051,139.428 73.2051,139.928 75.5,138.5C 76.8333,139.167 78.1667,139.833 79.5,140.5C 78.9002,141.9 77.9002,142.9 76.5,143.5C 74.1667,143.5 71.8333,143.5 69.5,143.5C 69.0862,138.511 67.4196,134.011 64.5,130C 66.0657,129.7 67.399,130.2 68.5,131.5 Z"/></g>
<g><path style="opacity:1" fill="#aba68a" d="M 163.5,111.5 C 164.11,112.391 164.443,113.391 164.5,114.5C 164.557,115.609 164.89,116.609 165.5,117.5C 165.5,118.167 165.5,118.833 165.5,119.5C 165.838,125.198 166.505,130.865 167.5,136.5C 167.167,137.833 166.833,139.167 166.5,140.5C 164.282,139.076 162.782,137.076 162,134.5C 161.697,137.624 162.197,140.624 163.5,143.5C 162.5,143.5 161.5,143.5 160.5,143.5C 159.382,140.822 159.382,138.155 160.5,135.5C 160.101,133.803 159.601,132.137 159,130.5C 158.333,131.833 157.667,131.833 157,130.5C 156.506,128.866 156.34,127.199 156.5,125.5C 157.161,126.718 157.828,128.051 158.5,129.5C 158.833,129 159.167,128.5 159.5,128C 158.755,125.522 158.089,123.022 157.5,120.5C 157.808,117.25 157.975,113.917 158,110.5C 160.144,109.156 161.977,109.49 163.5,111.5 Z"/></g>
</svg>
