<?xml version="1.0" encoding="UTF-8"?>
<!DOCTYPE svg PUBLIC "-//W3C//DTD SVG 1.1//EN" "http://www.w3.org/Graphics/SVG/1.1/DTD/svg11.dtd">
<svg xmlns="http://www.w3.org/2000/svg" version="1.1" width="256px" height="144px" style="shape-rendering:geometricPrecision; text-rendering:geometricPrecision; image-rendering:optimizeQuality; fill-rule:evenodd; clip-rule:evenodd" xmlns:xlink="http://www.w3.org/1999/xlink">
<g><path style="opacity:1" fill="#6285aa" d="M 95.5,-0.5 C 102.833,-0.5 110.167,-0.5 117.5,-0.5C 112.887,0.789512 108.22,1.78951 103.5,2.5C 100.86,3.44846 98.1931,4.44846 95.5,5.5C 96.6414,3.54868 96.6414,1.54868 95.5,-0.5 Z"/></g>
<g><path style="opacity:1" fill="#364e6c" d="M 215.5,-0.5 C 228.833,-0.5 242.167,-0.5 255.5,-0.5C 255.5,11.8333 255.5,24.1667 255.5,36.5C 253.473,36.3379 251.473,36.5045 249.5,37C 250.5,37.3333 251.5,37.6667 252.5,38C 251.906,38.4643 251.239,38.631 250.5,38.5C 244.833,38.5 239.167,38.5 233.5,38.5C 223.238,34.4025 216.071,27.0692 212,16.5C 211.503,13.854 211.336,11.1873 211.5,8.5C 212.11,7.60895 212.443,6.60895 212.5,5.5C 212.5,5.16667 212.5,4.83333 212.5,4.5C 213.925,3.07797 214.925,1.4113 215.5,-0.5 Z"/></g>
<g><path style="opacity:1" fill="#b3e6fd" d="M 70.5,-0.5 C 71.5,-0.5 72.5,-0.5 73.5,-0.5C 74.2299,0.712371 75.2299,1.71237 76.5,2.5C 76.3764,3.10667 76.0431,3.44001 75.5,3.5C 73.246,2.8763 71.5794,1.54297 70.5,-0.5 Z"/></g>
<g><path style="opacity:1" fill="#9cbbe1" d="M 125.5,-0.5 C 129.167,-0.5 132.833,-0.5 136.5,-0.5C 135.737,0.26791 134.737,0.76791 133.5,1C 135.989,1.94112 137.989,1.44112 139.5,-0.5C 141.167,-0.5 142.833,-0.5 144.5,-0.5C 143.833,0.833333 142.833,1.83333 141.5,2.5C 139.283,3.36863 136.95,3.70197 134.5,3.5C 131.5,3.5 128.5,3.5 125.5,3.5C 125.5,2.16667 125.5,0.833333 125.5,-0.5 Z"/></g>
<g><path style="opacity:1" fill="#5077d1" d="M 136.5,-0.5 C 137.5,-0.5 138.5,-0.5 139.5,-0.5C 137.989,1.44112 135.989,1.94112 133.5,1C 134.737,0.76791 135.737,0.26791 136.5,-0.5 Z"/></g>
<g><path style="opacity:1" fill="#41569d" d="M 67.5,-0.5 C 68.5,-0.5 69.5,-0.5 70.5,-0.5C 71.5794,1.54297 73.246,2.8763 75.5,3.5C 75.5,3.83333 75.5,4.16667 75.5,4.5C 72.2957,3.61674 69.6291,1.95007 67.5,-0.5 Z"/></g>
<g><path style="opacity:1" fill="#545380" d="M 90.5,-0.5 C 92.1667,-0.5 93.8333,-0.5 95.5,-0.5C 96.6414,1.54868 96.6414,3.54868 95.5,5.5C 94.5,6.16667 93.5,6.83333 92.5,7.5C 91.3608,4.99632 90.6941,2.32965 90.5,-0.5 Z"/></g>
<g><path style="opacity:1" fill="#acf0fb" d="M 144.5,-0.5 C 146.5,-0.5 148.5,-0.5 150.5,-0.5C 149.699,1.04181 149.366,2.70848 149.5,4.5C 147.602,3.90353 145.935,3.90353 144.5,4.5C 144.167,4.5 143.833,4.5 143.5,4.5C 142.167,4.5 141.5,3.83333 141.5,2.5C 142.833,1.83333 143.833,0.833333 144.5,-0.5 Z"/></g>
<g><path style="opacity:1" fill="#516393" d="M 151.5,-0.5 C 152.5,-0.5 153.5,-0.5 154.5,-0.5C 153.564,2.67122 151.897,5.33789 149.5,7.5C 149.5,6.83333 149.5,6.16667 149.5,5.5C 151.28,4.01011 151.946,2.01011 151.5,-0.5 Z"/></g>
<g><path style="opacity:1" fill="#466abf" d="M 125.5,3.5 C 128.5,3.5 131.5,3.5 134.5,3.5C 134.918,4.22158 135.584,4.72158 136.5,5C 136.272,5.39877 135.938,5.56544 135.5,5.5C 131.239,5.05668 127.239,4.72334 123.5,4.5C 123.842,3.66175 124.508,3.32842 125.5,3.5 Z"/></g>
<g><path style="opacity:1" fill="#a6424c" d="M 160.5,-0.5 C 172.833,-0.5 185.167,-0.5 197.5,-0.5C 192.742,2.92959 187.742,5.92959 182.5,8.5C 181.391,8.55688 180.391,8.89022 179.5,9.5C 179.44,8.95691 179.107,8.62358 178.5,8.5C 173.708,10.7988 169.041,13.2988 164.5,16C 161.443,16.2565 158.443,16.7565 155.5,17.5C 153.786,16.3915 153.119,17.0582 153.5,19.5C 152.566,18.4324 152.232,17.099 152.5,15.5C 154.762,9.92158 157.429,4.58825 160.5,-0.5 Z"/></g>
<g><path style="opacity:1" fill="#426987" d="M 24.5,-0.5 C 26.1667,-0.5 27.8333,-0.5 29.5,-0.5C 29.0766,0.264561 28.7432,1.09789 28.5,2C 29.611,5.30106 30.9443,8.46773 32.5,11.5C 32.2907,12.086 31.9574,12.586 31.5,13C 36.1302,18.6937 40.2968,24.8603 44,31.5C 47.7984,36.9001 52.965,39.5668 59.5,39.5C 54.1563,39.334 48.8229,39.5006 43.5,40C 47.0252,40.1787 50.3586,40.6787 53.5,41.5C 49.774,41.1774 46.1073,41.5108 42.5,42.5C 42.6667,42.8333 42.8333,43.1667 43,43.5C 48.2478,46.2011 53.7478,48.5345 59.5,50.5C 60.968,51.7791 61.6347,53.4458 61.5,55.5C 60.7784,55.0825 60.2784,54.4158 60,53.5C 59.8333,54.3333 59.6667,55.1667 59.5,56C 60.7577,62.9858 60.7577,69.8192 59.5,76.5C 59.5,74.1667 59.5,71.8333 59.5,69.5C 59.6621,67.4727 59.4955,65.4727 59,63.5C 57.3333,63.5 55.6667,63.5 54,63.5C 51.1159,60.9542 47.9492,58.7875 44.5,57C 42.5386,54.2423 40.7052,51.409 39,48.5C 38.6667,48.8333 38.3333,49.1667 38,49.5C 38.0989,44.8033 36.0989,40.8033 32,37.5C 30.3737,34.9417 29.3737,32.275 29,29.5C 30.7632,32.0196 32.7632,34.3529 35,36.5C 33.137,30.6345 30.3037,25.1345 26.5,20C 26.8333,19.6667 27.1667,19.3333 27.5,19C 24.8743,13.0871 22.541,7.08714 20.5,1C 22.0581,0.78997 23.3915,0.28997 24.5,-0.5 Z"/></g>
<g><path style="opacity:1" fill="#273d5e" d="M 54.5,-0.5 C 56.5,-0.5 58.5,-0.5 60.5,-0.5C 67.1024,2.25068 72.4357,6.75068 76.5,13C 77.0944,13.4643 77.7611,13.631 78.5,13.5C 77.1667,14.8333 75.8333,16.1667 74.5,17.5C 69.1667,12.8333 63.8333,8.16667 58.5,3.5C 57.4726,1.80584 56.1392,0.472504 54.5,-0.5 Z"/></g>
<g><path style="opacity:1" fill="#5c6797" d="M 79.5,-0.5 C 81.1667,-0.5 82.8333,-0.5 84.5,-0.5C 86.1181,3.06833 87.4515,6.735 88.5,10.5C 86.8577,11.803 85.1911,13.1363 83.5,14.5C 81.3699,9.76645 80.0366,4.76645 79.5,-0.5 Z"/></g>
<g><path style="opacity:1" fill="#608dca" d="M 141.5,2.5 C 141.5,3.83333 142.167,4.5 143.5,4.5C 142.167,5.5 140.833,6.5 139.5,7.5C 137.847,7.3404 136.514,6.67373 135.5,5.5C 135.938,5.56544 136.272,5.39877 136.5,5C 135.584,4.72158 134.918,4.22158 134.5,3.5C 136.95,3.70197 139.283,3.36863 141.5,2.5 Z"/></g>
<g><path style="opacity:1" fill="#7bb4f9" d="M 150.5,-0.5 C 150.833,-0.5 151.167,-0.5 151.5,-0.5C 151.946,2.01011 151.28,4.01011 149.5,5.5C 148.305,5.67754 147.138,6.01087 146,6.5C 144.97,6.16389 144.47,5.49722 144.5,4.5C 145.935,3.90353 147.602,3.90353 149.5,4.5C 149.366,2.70848 149.699,1.04181 150.5,-0.5 Z"/></g>
<g><path style="opacity:1" fill="#451c2c" d="M 209.5,-0.5 C 211.5,-0.5 213.5,-0.5 215.5,-0.5C 214.925,1.4113 213.925,3.07797 212.5,4.5C 209.594,4.95652 206.928,5.95652 204.5,7.5C 205.598,6.60305 205.598,5.76971 204.5,5C 206.373,3.29617 208.04,1.46283 209.5,-0.5 Z"/></g>
<g><path style="opacity:1" fill="#4e5d94" d="M 75.5,4.5 C 76.5,4.5 77.5,4.5 78.5,4.5C 78.9927,7.81211 79.9927,10.9788 81.5,14C 81.4301,14.7648 81.0967,15.2648 80.5,15.5C 80.6716,14.5084 80.3382,13.8417 79.5,13.5C 78.9228,10.0784 77.5895,7.07839 75.5,4.5 Z"/></g>
<g><path style="opacity:1" fill="#a35874" d="M 84.5,-0.5 C 86.5,-0.5 88.5,-0.5 90.5,-0.5C 90.6941,2.32965 91.3608,4.99632 92.5,7.5C 91.1667,8.5 89.8333,9.5 88.5,10.5C 87.4515,6.735 86.1181,3.06833 84.5,-0.5 Z"/></g>
<g><path style="opacity:1" fill="#d4eaf9" d="M 117.5,-0.5 C 120.167,-0.5 122.833,-0.5 125.5,-0.5C 125.5,0.833333 125.5,2.16667 125.5,3.5C 124.508,3.32842 123.842,3.66175 123.5,4.5C 123.167,4.5 122.833,4.5 122.5,4.5C 122.657,3.12656 122.49,1.79323 122,0.5C 118.678,3.65566 115.512,6.98899 112.5,10.5C 110.998,6.62597 110.331,6.95931 110.5,11.5C 109.5,11.5 108.5,11.5 107.5,11.5C 107.414,10.5041 107.748,9.67076 108.5,9C 106.866,8.50649 105.199,8.33982 103.5,8.5C 103.719,9.67504 103.386,10.675 102.5,11.5C 101.583,10.8728 100.583,10.5394 99.5,10.5C 99.1583,9.66175 98.4916,9.32842 97.5,9.5C 99.0186,5.39723 102.019,3.23056 106.5,3C 105.552,2.51722 104.552,2.35055 103.5,2.5C 108.22,1.78951 112.887,0.789512 117.5,-0.5 Z"/></g>
<g><path style="opacity:1" fill="#88c5ed" d="M 58.5,3.5 C 63.8333,8.16667 69.1667,12.8333 74.5,17.5C 73.1581,19.3609 72.1581,21.3609 71.5,23.5C 71.6602,21.8008 71.4935,20.1341 71,18.5C 66.6667,14.1667 62.3333,9.83333 58,5.5C 57.3083,4.56323 57.475,3.89657 58.5,3.5 Z"/></g>
<g><path style="opacity:1" fill="#7d91bb" d="M 73.5,-0.5 C 75.5,-0.5 77.5,-0.5 79.5,-0.5C 80.0366,4.76645 81.3699,9.76645 83.5,14.5C 82.8485,15.0906 82.1818,15.7573 81.5,16.5C 80.8933,16.3764 80.56,16.0431 80.5,15.5C 81.0967,15.2648 81.4301,14.7648 81.5,14C 79.9927,10.9788 78.9927,7.81211 78.5,4.5C 77.5,4.5 76.5,4.5 75.5,4.5C 75.5,4.16667 75.5,3.83333 75.5,3.5C 76.0431,3.44001 76.3764,3.10667 76.5,2.5C 75.2299,1.71237 74.2299,0.712371 73.5,-0.5 Z"/></g>
<g><path style="opacity:1" fill="#4a75d9" d="M 143.5,4.5 C 143.833,4.5 144.167,4.5 144.5,4.5C 144.47,5.49722 144.97,6.16389 146,6.5C 147.138,6.01087 148.305,5.67754 149.5,5.5C 149.5,6.16667 149.5,6.83333 149.5,7.5C 146.994,8.74955 144.327,9.41622 141.5,9.5C 140.5,9.16667 139.833,8.5 139.5,7.5C 140.833,6.5 142.167,5.5 143.5,4.5 Z"/></g>
<g><path style="opacity:1" fill="#1b353f" d="M 60.5,-0.5 C 62.8333,-0.5 65.1667,-0.5 67.5,-0.5C 69.6291,1.95007 72.2957,3.61674 75.5,4.5C 77.5895,7.07839 78.9228,10.0784 79.5,13.5C 79.1667,13.5 78.8333,13.5 78.5,13.5C 77.7611,13.631 77.0944,13.4643 76.5,13C 72.4357,6.75068 67.1024,2.25068 60.5,-0.5 Z"/></g>
<g><path style="opacity:1" fill="#41305c" d="M 182.5,8.5 C 180.664,10.588 178.331,11.9213 175.5,12.5C 176.436,11.0256 177.77,10.0256 179.5,9.5C 180.391,8.89022 181.391,8.55688 182.5,8.5 Z"/></g>
<g><path style="opacity:1" fill="#b68cba" d="M 97.5,9.5 C 98.4916,9.32842 99.1583,9.66175 99.5,10.5C 96.9105,13.2501 94.0772,15.9167 91,18.5C 89.7051,21.2917 88.2051,23.9584 86.5,26.5C 85.6618,26.1583 85.3284,25.4916 85.5,24.5C 88.0413,18.2963 92.0413,13.2963 97.5,9.5 Z"/></g>
<g><path style="opacity:1" fill="#8fc4e4" d="M 122.5,4.5 C 122.833,4.5 123.167,4.5 123.5,4.5C 127.239,4.72334 131.239,5.05668 135.5,5.5C 136.514,6.67373 137.847,7.3404 139.5,7.5C 139.833,8.5 140.5,9.16667 141.5,9.5C 141.5,10.8333 141.5,12.1667 141.5,13.5C 139.692,13.5086 138.025,13.0086 136.5,12C 134.379,8.70896 131.379,6.87562 127.5,6.5C 126.287,6.74716 125.62,7.41383 125.5,8.5C 124.5,8.5 123.5,8.5 122.5,8.5C 122.074,6.86124 122.074,5.52791 122.5,4.5 Z"/></g>
<g><path style="opacity:1" fill="#171b24" d="M 154.5,-0.5 C 156.5,-0.5 158.5,-0.5 160.5,-0.5C 157.429,4.58825 154.762,9.92158 152.5,15.5C 151.206,16.2899 150.039,17.2899 149,18.5C 148.487,17.4734 147.987,16.4734 147.5,15.5C 147.833,14.8333 148.167,14.1667 148.5,13.5C 149.341,11.6208 149.675,9.6208 149.5,7.5C 151.897,5.33789 153.564,2.67122 154.5,-0.5 Z"/></g>
<g><path style="opacity:1" fill="#7e88ad" d="M 197.5,-0.5 C 198.833,-0.5 200.167,-0.5 201.5,-0.5C 193.466,4.8453 185.466,10.1786 177.5,15.5C 177.5,14.1667 176.833,13.5 175.5,13.5C 175.5,13.1667 175.5,12.8333 175.5,12.5C 178.331,11.9213 180.664,10.588 182.5,8.5C 187.742,5.92959 192.742,2.92959 197.5,-0.5 Z"/></g>
<g><path style="opacity:1" fill="#311521" d="M 198.5,9.5 C 194.727,13.2271 190.394,16.2271 185.5,18.5C 185.511,16.9826 186.177,15.8159 187.5,15C 190.86,12.4543 194.526,10.6209 198.5,9.5 Z"/></g>
<g><path style="opacity:1" fill="#ac2f49" d="M 179.5,9.5 C 177.77,10.0256 176.436,11.0256 175.5,12.5C 169.421,15.2105 163.421,17.8772 157.5,20.5C 155.901,20.7678 154.568,20.4345 153.5,19.5C 153.119,17.0582 153.786,16.3915 155.5,17.5C 158.443,16.7565 161.443,16.2565 164.5,16C 169.041,13.2988 173.708,10.7988 178.5,8.5C 179.107,8.62358 179.44,8.95691 179.5,9.5 Z"/></g>
<g><path style="opacity:1" fill="#6182cc" d="M 141.5,9.5 C 144.327,9.41622 146.994,8.74955 149.5,7.5C 149.675,9.6208 149.341,11.6208 148.5,13.5C 146.956,13.7031 145.622,14.3698 144.5,15.5C 143.035,14.3913 142.035,14.8913 141.5,17C 139.608,17.9734 137.608,18.6401 135.5,19C 136.423,21.0408 136.756,23.2075 136.5,25.5C 135.135,27.7941 133.135,29.4608 130.5,30.5C 129.069,27.4802 129.403,24.6469 131.5,22C 130.241,18.4584 128.908,14.9584 127.5,11.5C 125.775,9.90838 124.775,10.2417 124.5,12.5C 122.952,12.1788 122.285,11.1788 122.5,9.5C 123.791,9.73731 124.791,9.40397 125.5,8.5C 125.62,7.41383 126.287,6.74716 127.5,6.5C 131.379,6.87562 134.379,8.70896 136.5,12C 138.025,13.0086 139.692,13.5086 141.5,13.5C 141.5,12.1667 141.5,10.8333 141.5,9.5 Z"/></g>
<g><path style="opacity:1" fill="#16121c" d="M 203.5,-0.5 C 205.5,-0.5 207.5,-0.5 209.5,-0.5C 208.04,1.46283 206.373,3.29617 204.5,5C 205.598,5.76971 205.598,6.60305 204.5,7.5C 202.5,8.16667 200.5,8.83333 198.5,9.5C 194.526,10.6209 190.86,12.4543 187.5,15C 186.177,15.8159 185.511,16.9826 185.5,18.5C 180.953,22.0836 179.453,26.7503 181,32.5C 181.995,33.0659 182.828,33.7326 183.5,34.5C 176.597,35.8929 174.931,33.3929 178.5,27C 175.167,27.3333 171.833,27.6667 168.5,28C 170.241,26.3804 172.075,24.8804 174,23.5C 174.483,22.552 174.649,21.552 174.5,20.5C 184.381,13.7328 194.048,6.73275 203.5,-0.5 Z"/></g>
<g><path style="opacity:1" fill="#e7e3e7" d="M 107.5,11.5 C 105.32,13.8478 103.32,16.3478 101.5,19C 102.742,20.6512 103.576,22.4845 104,24.5C 105.982,20.8537 108.649,17.8537 112,15.5C 112.483,14.552 112.649,13.552 112.5,12.5C 114.92,12.7076 117.253,12.3742 119.5,11.5C 122.045,12.5492 122.045,13.5492 119.5,14.5C 114.58,16.4189 110.913,19.7522 108.5,24.5C 107.309,26.3268 105.975,27.9934 104.5,29.5C 104.446,27.368 103.446,26.0347 101.5,25.5C 101.5,24.5 101.5,23.5 101.5,22.5C 98.1626,22.1868 95.8293,23.5201 94.5,26.5C 89.2605,30.8664 86.9271,36.5331 87.5,43.5C 86.8333,47.1667 86.1667,50.8333 85.5,54.5C 81.2675,45.0776 81.6008,35.7443 86.5,26.5C 88.2051,23.9584 89.7051,21.2917 91,18.5C 94.0772,15.9167 96.9105,13.2501 99.5,10.5C 100.583,10.5394 101.583,10.8728 102.5,11.5C 103.386,10.675 103.719,9.67504 103.5,8.5C 105.199,8.33982 106.866,8.50649 108.5,9C 107.748,9.67076 107.414,10.5041 107.5,11.5 Z"/></g>
<g><path style="opacity:1" fill="#425b89" d="M 130.5,30.5 C 129.833,30.5 129.5,30.8333 129.5,31.5C 129.167,31.5 128.833,31.5 128.5,31.5C 128.219,28.1834 128.219,25.0168 128.5,22C 126.44,20.3035 124.107,19.1369 121.5,18.5C 115.605,20.4002 111.272,24.0669 108.5,29.5C 108.5,27.8333 108.5,26.1667 108.5,24.5C 110.913,19.7522 114.58,16.4189 119.5,14.5C 121.604,14.7989 123.604,14.4656 125.5,13.5C 125.376,12.8933 125.043,12.56 124.5,12.5C 124.775,10.2417 125.775,9.90838 127.5,11.5C 128.908,14.9584 130.241,18.4584 131.5,22C 129.403,24.6469 129.069,27.4802 130.5,30.5 Z"/></g>
<g><path style="opacity:1" fill="#302757" d="M 175.5,12.5 C 175.5,12.8333 175.5,13.1667 175.5,13.5C 169.917,16.4595 164.25,19.1262 158.5,21.5C 158.5,20.8333 158.167,20.5 157.5,20.5C 163.421,17.8772 169.421,15.2105 175.5,12.5 Z"/></g>
<g><path style="opacity:1" fill="#98acd4" d="M 175.5,13.5 C 176.833,13.5 177.5,14.1667 177.5,15.5C 173.172,17.3287 169.172,19.662 165.5,22.5C 161.629,22.9396 157.962,22.9396 154.5,22.5C 155.708,21.7659 157.041,21.4326 158.5,21.5C 164.25,19.1262 169.917,16.4595 175.5,13.5 Z"/></g>
<g><path style="opacity:1" fill="#2d336d" d="M 201.5,-0.5 C 202.167,-0.5 202.833,-0.5 203.5,-0.5C 194.048,6.73275 184.381,13.7328 174.5,20.5C 172.205,21.4746 170.205,22.8079 168.5,24.5C 167.5,24.5 166.5,24.5 165.5,24.5C 165.5,23.8333 165.5,23.1667 165.5,22.5C 169.172,19.662 173.172,17.3287 177.5,15.5C 185.466,10.1786 193.466,4.8453 201.5,-0.5 Z"/></g>
<g><path style="opacity:1" fill="#4b7b9c" d="M 29.5,-0.5 C 37.8333,-0.5 46.1667,-0.5 54.5,-0.5C 56.1392,0.472504 57.4726,1.80584 58.5,3.5C 57.475,3.89657 57.3083,4.56323 58,5.5C 62.3333,9.83333 66.6667,14.1667 71,18.5C 71.4935,20.1341 71.6602,21.8008 71.5,23.5C 69.4017,22.0857 68.4017,22.7524 68.5,25.5C 65.7524,25.4017 65.0857,26.4017 66.5,28.5C 64.4026,32.3723 62.0692,36.039 59.5,39.5C 52.965,39.5668 47.7984,36.9001 44,31.5C 40.2968,24.8603 36.1302,18.6937 31.5,13C 31.9574,12.586 32.2907,12.086 32.5,11.5C 30.9443,8.46773 29.611,5.30106 28.5,2C 28.7432,1.09789 29.0766,0.264561 29.5,-0.5 Z"/></g>
<g><path style="opacity:1" fill="#151b36" d="M 147.5,15.5 C 147.987,16.4734 148.487,17.4734 149,18.5C 150.039,17.2899 151.206,16.2899 152.5,15.5C 152.232,17.099 152.566,18.4324 153.5,19.5C 154.568,20.4345 155.901,20.7678 157.5,20.5C 158.167,20.5 158.5,20.8333 158.5,21.5C 157.041,21.4326 155.708,21.7659 154.5,22.5C 152.621,23.3414 150.621,23.6747 148.5,23.5C 147.325,23.719 146.325,23.3857 145.5,22.5C 146.246,21.2638 146.579,19.9305 146.5,18.5C 145.325,18.719 144.325,18.3857 143.5,17.5C 144.766,16.6376 146.099,15.9709 147.5,15.5 Z"/></g>
<g><path style="opacity:1" fill="#7c87c5" d="M 122.5,4.5 C 122.074,5.52791 122.074,6.86124 122.5,8.5C 123.5,8.5 124.5,8.5 125.5,8.5C 124.791,9.40397 123.791,9.73731 122.5,9.5C 122.285,11.1788 122.952,12.1788 124.5,12.5C 125.043,12.56 125.376,12.8933 125.5,13.5C 123.604,14.4656 121.604,14.7989 119.5,14.5C 122.045,13.5492 122.045,12.5492 119.5,11.5C 117.253,12.3742 114.92,12.7076 112.5,12.5C 112.649,13.552 112.483,14.552 112,15.5C 108.649,17.8537 105.982,20.8537 104,24.5C 103.576,22.4845 102.742,20.6512 101.5,19C 103.32,16.3478 105.32,13.8478 107.5,11.5C 108.5,11.5 109.5,11.5 110.5,11.5C 110.331,6.95931 110.998,6.62597 112.5,10.5C 115.512,6.98899 118.678,3.65566 122,0.5C 122.49,1.79323 122.657,3.12656 122.5,4.5 Z"/></g>
<g><path style="opacity:1" fill="#4d5986" d="M 154.5,22.5 C 157.962,22.9396 161.629,22.9396 165.5,22.5C 165.5,23.1667 165.5,23.8333 165.5,24.5C 165.167,24.5 164.833,24.5 164.5,24.5C 160.755,24.2449 156.922,24.2449 153,24.5C 151.541,24.8082 150.374,25.4749 149.5,26.5C 148.596,25.791 148.263,24.791 148.5,23.5C 150.621,23.6747 152.621,23.3414 154.5,22.5 Z"/></g>
<g><path style="opacity:1" fill="#9e404c" d="M 212.5,4.5 C 212.5,4.83333 212.5,5.16667 212.5,5.5C 211.25,5.57735 210.417,6.24402 210,7.5C 209.72,12.1966 209.22,16.8633 208.5,21.5C 209.167,25.339 210.167,29.339 211.5,33.5C 202.509,34.041 193.509,34.3744 184.5,34.5C 184.167,34.5 183.833,34.5 183.5,34.5C 182.828,33.7326 181.995,33.0659 181,32.5C 179.453,26.7503 180.953,22.0836 185.5,18.5C 190.394,16.2271 194.727,13.2271 198.5,9.5C 200.5,8.83333 202.5,8.16667 204.5,7.5C 206.928,5.95652 209.594,4.95652 212.5,4.5 Z"/></g>
<g><path style="opacity:1" fill="#be87d0" d="M 211.5,8.5 C 211.336,11.1873 211.503,13.854 212,16.5C 216.071,27.0692 223.238,34.4025 233.5,38.5C 230.214,37.7929 226.881,37.4595 223.5,37.5C 219.167,36.8333 214.833,36.1667 210.5,35.5C 211.833,35.5 213.167,35.5 214.5,35.5C 214.433,33.5992 214.767,31.7659 215.5,30C 213.862,26.558 212.362,23.058 211,19.5C 210.19,15.6425 210.357,11.9758 211.5,8.5 Z"/></g>
<g><path style="opacity:1" fill="#2d3b77" d="M 148.5,13.5 C 148.167,14.1667 147.833,14.8333 147.5,15.5C 146.099,15.9709 144.766,16.6376 143.5,17.5C 144.325,18.3857 145.325,18.719 146.5,18.5C 146.579,19.9305 146.246,21.2638 145.5,22.5C 146.325,23.3857 147.325,23.719 148.5,23.5C 148.263,24.791 148.596,25.791 149.5,26.5C 149.5,27.1667 149.5,27.8333 149.5,28.5C 145.833,28.5 142.167,28.5 138.5,28.5C 137.833,27.5 137.167,26.5 136.5,25.5C 136.756,23.2075 136.423,21.0408 135.5,19C 137.608,18.6401 139.608,17.9734 141.5,17C 142.035,14.8913 143.035,14.3913 144.5,15.5C 145.622,14.3698 146.956,13.7031 148.5,13.5 Z"/></g>
<g><path style="opacity:1" fill="#555e90" d="M 101.5,25.5 C 100.292,26.2341 98.9587,26.5674 97.5,26.5C 97.5,28.5 97.5,30.5 97.5,32.5C 97.1667,32.5 96.8333,32.5 96.5,32.5C 95.791,31.596 94.791,31.2627 93.5,31.5C 93.6287,29.7839 93.962,28.1172 94.5,26.5C 95.8293,23.5201 98.1626,22.1868 101.5,22.5C 101.5,23.5 101.5,24.5 101.5,25.5 Z"/></g>
<g><path style="opacity:1" fill="#8297b5" d="M 108.5,24.5 C 108.5,26.1667 108.5,27.8333 108.5,29.5C 108.38,30.5862 107.713,31.2528 106.5,31.5C 105.287,31.2528 104.62,30.5862 104.5,29.5C 105.975,27.9934 107.309,26.3268 108.5,24.5 Z"/></g>
<g><path style="opacity:1" fill="#9db1d7" d="M 164.5,24.5 C 160.043,26.7275 155.376,28.3942 150.5,29.5C 150.5,28.8333 150.167,28.5 149.5,28.5C 149.5,27.8333 149.5,27.1667 149.5,26.5C 150.374,25.4749 151.541,24.8082 153,24.5C 156.922,24.2449 160.755,24.2449 164.5,24.5 Z"/></g>
<g><path style="opacity:1" fill="#2b394c" d="M 101.5,25.5 C 103.446,26.0347 104.446,27.368 104.5,29.5C 103.176,28.1501 102.176,28.3167 101.5,30C 102.673,31.8261 102.673,33.6595 101.5,35.5C 96.0905,37.4427 91.7571,41.1094 88.5,46.5C 88.0485,42.896 89.0485,39.896 91.5,37.5C 93.2624,35.2995 95.5958,34.1328 98.5,34C 97.944,33.6174 97.6107,33.1174 97.5,32.5C 97.5,30.5 97.5,28.5 97.5,26.5C 98.9587,26.5674 100.292,26.2341 101.5,25.5 Z"/></g>
<g><path style="opacity:1" fill="#687ab3" d="M 138.5,28.5 C 142.167,28.5 145.833,28.5 149.5,28.5C 150.167,28.5 150.5,28.8333 150.5,29.5C 150.389,30.1174 150.056,30.6174 149.5,31C 146.854,31.4974 144.187,31.6641 141.5,31.5C 140.791,30.596 139.791,30.2627 138.5,30.5C 138.5,29.8333 138.5,29.1667 138.5,28.5 Z"/></g>
<g><path style="opacity:1" fill="#efeff3" d="M 103.5,2.5 C 104.552,2.35055 105.552,2.51722 106.5,3C 102.019,3.23056 99.0186,5.39723 97.5,9.5C 92.0413,13.2963 88.0413,18.2963 85.5,24.5C 83.2857,26.9955 82.1191,29.9955 82,33.5C 80.3547,33.6932 78.5213,33.8598 76.5,34C 74.6035,35.2647 73.2701,36.9313 72.5,39C 73.6183,44.8325 75.285,50.4992 77.5,56C 77.1639,57.0299 76.4972,57.5299 75.5,57.5C 74.6772,55.0128 73.6772,52.6794 72.5,50.5C 72.2041,48.597 71.5375,46.9303 70.5,45.5C 70.1667,45.5 69.8333,45.5 69.5,45.5C 69.031,42.3567 67.3644,40.0233 64.5,38.5C 65.597,36.2258 66.9304,34.0591 68.5,32C 68.1918,30.5405 67.5251,29.3739 66.5,28.5C 65.0857,26.4017 65.7524,25.4017 68.5,25.5C 68.4017,22.7524 69.4017,22.0857 71.5,23.5C 72.1581,21.3609 73.1581,19.3609 74.5,17.5C 75.8333,16.1667 77.1667,14.8333 78.5,13.5C 78.8333,13.5 79.1667,13.5 79.5,13.5C 80.3382,13.8417 80.6716,14.5084 80.5,15.5C 80.56,16.0431 80.8933,16.3764 81.5,16.5C 82.1818,15.7573 82.8485,15.0906 83.5,14.5C 85.1911,13.1363 86.8577,11.803 88.5,10.5C 89.8333,9.5 91.1667,8.5 92.5,7.5C 93.5,6.83333 94.5,6.16667 95.5,5.5C 98.1931,4.44846 100.86,3.44846 103.5,2.5 Z"/></g>
<g><path style="opacity:1" fill="#92a3bc" d="M 136.5,25.5 C 137.167,26.5 137.833,27.5 138.5,28.5C 138.5,29.1667 138.5,29.8333 138.5,30.5C 137.474,31.853 136.141,32.853 134.5,33.5C 133.448,31.744 131.781,31.0773 129.5,31.5C 129.5,30.8333 129.833,30.5 130.5,30.5C 133.135,29.4608 135.135,27.7941 136.5,25.5 Z"/></g>
<g><path style="opacity:1" fill="#99a6a3" d="M 128.5,31.5 C 128.833,31.5 129.167,31.5 129.5,31.5C 131.781,31.0773 133.448,31.744 134.5,33.5C 133.109,35.8903 131.109,37.5569 128.5,38.5C 127.833,38.5 127.167,38.5 126.5,38.5C 127.292,36.7428 128.625,35.4095 130.5,34.5C 128.955,33.5481 127.288,33.2148 125.5,33.5C 126.29,32.5987 127.29,31.9321 128.5,31.5 Z"/></g>
<g><path style="opacity:1" fill="#a04261" d="M 212.5,5.5 C 212.443,6.60895 212.11,7.60895 211.5,8.5C 210.357,11.9758 210.19,15.6425 211,19.5C 212.362,23.058 213.862,26.558 215.5,30C 214.767,31.7659 214.433,33.5992 214.5,35.5C 213.167,35.5 211.833,35.5 210.5,35.5C 202.167,35.5 193.833,35.5 185.5,35.5C 185.167,35.5 184.833,35.5 184.5,35.5C 184.5,35.1667 184.5,34.8333 184.5,34.5C 193.509,34.3744 202.509,34.041 211.5,33.5C 210.167,29.339 209.167,25.339 208.5,21.5C 209.22,16.8633 209.72,12.1966 210,7.5C 210.417,6.24402 211.25,5.57735 212.5,5.5 Z"/></g>
<g><path style="opacity:1" fill="#222a50" d="M 164.5,24.5 C 164.833,24.5 165.167,24.5 165.5,24.5C 166.5,24.5 167.5,24.5 168.5,24.5C 165.475,27.3941 162.809,30.5607 160.5,34C 159.216,34.6838 158.049,34.5171 157,33.5C 156,34.5 155,35.5 154,36.5C 150.764,32.9782 147.264,32.6449 143.5,35.5C 141.824,34.8166 141.157,33.4832 141.5,31.5C 144.187,31.6641 146.854,31.4974 149.5,31C 150.056,30.6174 150.389,30.1174 150.5,29.5C 155.376,28.3942 160.043,26.7275 164.5,24.5 Z"/></g>
<g><path style="opacity:1" fill="#9692b4" d="M 66.5,28.5 C 67.5251,29.3739 68.1918,30.5405 68.5,32C 66.9304,34.0591 65.597,36.2258 64.5,38.5C 63.6618,38.8417 63.3284,39.5084 63.5,40.5C 61.901,40.7678 60.5676,40.4345 59.5,39.5C 62.0692,36.039 64.4026,32.3723 66.5,28.5 Z"/></g>
<g><path style="opacity:1" fill="#b6c0e7" d="M 96.5,32.5 C 96.8333,32.5 97.1667,32.5 97.5,32.5C 97.6107,33.1174 97.944,33.6174 98.5,34C 95.5958,34.1328 93.2624,35.2995 91.5,37.5C 90.6236,37.6309 89.9569,37.2975 89.5,36.5C 90.5217,33.013 92.855,31.6797 96.5,32.5 Z"/></g>
<g><path style="opacity:1" fill="#171d21" d="M 128.5,31.5 C 127.29,31.9321 126.29,32.5987 125.5,33.5C 124.564,34.9744 123.23,35.9744 121.5,36.5C 118.67,36.6941 116.004,37.3608 113.5,38.5C 109.373,37.9249 105.373,36.9249 101.5,35.5C 102.673,33.6595 102.673,31.8261 101.5,30C 102.176,28.3167 103.176,28.1501 104.5,29.5C 104.62,30.5862 105.287,31.2528 106.5,31.5C 107.713,31.2528 108.38,30.5862 108.5,29.5C 111.272,24.0669 115.605,20.4002 121.5,18.5C 124.107,19.1369 126.44,20.3035 128.5,22C 128.219,25.0168 128.219,28.1834 128.5,31.5 Z"/></g>
<g><path style="opacity:1" fill="#8a3b38" d="M 111.5,29.5 C 112.933,30.8333 114.267,32.3333 115.5,34C 114.207,34.49 112.873,34.6567 111.5,34.5C 111.5,32.8333 111.5,31.1667 111.5,29.5 Z"/></g>
<g><path style="opacity:1" fill="#b04c47" d="M 119.5,21.5 C 123.784,22.3847 125.284,25.0514 124,29.5C 119.722,35.2736 117.555,34.6069 117.5,27.5C 117.676,25.2147 118.343,23.2147 119.5,21.5 Z"/></g>
<g><path style="opacity:1" fill="#c5c193" d="M 125.5,33.5 C 127.288,33.2148 128.955,33.5481 130.5,34.5C 128.625,35.4095 127.292,36.7428 126.5,38.5C 125.5,38.5 124.5,38.5 123.5,38.5C 121.007,38.8693 120.34,38.2027 121.5,36.5C 123.23,35.9744 124.564,34.9744 125.5,33.5 Z"/></g>
<g><path style="opacity:1" fill="#717ba3" d="M 185.5,35.5 C 193.833,35.5 202.167,35.5 210.5,35.5C 214.833,36.1667 219.167,36.8333 223.5,37.5C 211.5,37.5 199.5,37.5 187.5,37.5C 186.167,37.5 185.5,36.8333 185.5,35.5 Z"/></g>
<g><path style="opacity:1" fill="#1c1f34" d="M 174.5,20.5 C 174.649,21.552 174.483,22.552 174,23.5C 172.075,24.8804 170.241,26.3804 168.5,28C 171.833,27.6667 175.167,27.3333 178.5,27C 174.931,33.3929 176.597,35.8929 183.5,34.5C 183.833,34.5 184.167,34.5 184.5,34.5C 184.5,34.8333 184.5,35.1667 184.5,35.5C 179.722,38.41 174.388,40.41 168.5,41.5C 167.522,41.0233 166.689,40.3567 166,39.5C 165.26,41.3187 164.093,42.6521 162.5,43.5C 161.817,41.8235 160.483,41.1568 158.5,41.5C 153.44,39.4687 149.44,40.802 146.5,45.5C 146.229,43.1789 146.896,41.1789 148.5,39.5C 147.726,38.2888 146.893,38.2888 146,39.5C 145.52,37.867 144.687,36.5336 143.5,35.5C 147.264,32.6449 150.764,32.9782 154,36.5C 155,35.5 156,34.5 157,33.5C 158.049,34.5171 159.216,34.6838 160.5,34C 162.809,30.5607 165.475,27.3941 168.5,24.5C 170.205,22.8079 172.205,21.4746 174.5,20.5 Z"/></g>
<g><path style="opacity:1" fill="#dabbc2" d="M 85.5,24.5 C 85.3284,25.4916 85.6618,26.1583 86.5,26.5C 81.6008,35.7443 81.2675,45.0776 85.5,54.5C 84.8902,55.391 84.5569,56.391 84.5,57.5C 82.5165,57.3832 80.8498,58.0499 79.5,59.5C 77.9745,59.0057 76.6412,58.339 75.5,57.5C 76.4972,57.5299 77.1639,57.0299 77.5,56C 75.285,50.4992 73.6183,44.8325 72.5,39C 73.2701,36.9313 74.6035,35.2647 76.5,34C 78.5213,33.8598 80.3547,33.6932 82,33.5C 82.1191,29.9955 83.2857,26.9955 85.5,24.5 Z"/></g>
<g><path style="opacity:1" fill="#867fb4" d="M 94.5,26.5 C 93.962,28.1172 93.6287,29.7839 93.5,31.5C 94.791,31.2627 95.791,31.596 96.5,32.5C 92.855,31.6797 90.5217,33.013 89.5,36.5C 89.9569,37.2975 90.6236,37.6309 91.5,37.5C 89.0485,39.896 88.0485,42.896 88.5,46.5C 88.5,47.1667 88.1667,47.5 87.5,47.5C 87.5,46.1667 87.5,44.8333 87.5,43.5C 86.9271,36.5331 89.2605,30.8664 94.5,26.5 Z"/></g>
<g><path style="opacity:1" fill="#1d2d3b" d="M 0.5,27.5 C 3.80037,34.8913 6.63371,42.5579 9,50.5C 16.6333,62.6298 26.1333,72.9632 37.5,81.5C 43.1824,84.7082 48.849,87.7082 54.5,90.5C 52.9897,91.8361 51.3231,93.0027 49.5,94C 48.2617,94.69 48.2617,95.19 49.5,95.5C 49.5,96.1667 49.5,96.8333 49.5,97.5C 48.791,98.404 47.791,98.7373 46.5,98.5C 46.33,97.1779 46.6634,96.0113 47.5,95C 45.0168,94.7128 42.3501,94.0462 39.5,93C 31.98,88.0519 24.6466,83.3853 17.5,79C 15.0883,74.5841 11.9217,70.7508 8,67.5C 7.158,64.3111 5.82466,61.3111 4,58.5C 2.87099,56.8588 1.37099,55.8588 -0.5,55.5C -0.5,47.1667 -0.5,38.8333 -0.5,30.5C 0.403972,29.791 0.737305,28.791 0.5,27.5 Z"/></g>
<g><path style="opacity:1" fill="#2a4558" d="M -0.5,-0.5 C 0.166667,-0.5 0.833333,-0.5 1.5,-0.5C 4.34922,12.0329 8.68255,24.3662 14.5,36.5C 19.4106,44.693 24.4106,52.693 29.5,60.5C 33.2269,65.2297 37.5603,69.2297 42.5,72.5C 37.3234,71.8713 33.4901,69.2046 31,64.5C 30.1739,66.4054 29.0072,66.7388 27.5,65.5C 20.1637,56.1501 13.3304,46.4835 7,36.5C 4.43139,30.6946 2.43139,24.6946 1,18.5C 0.50204,21.4816 0.335374,24.4816 0.5,27.5C 0.737305,28.791 0.403972,29.791 -0.5,30.5C -0.5,20.1667 -0.5,9.83333 -0.5,-0.5 Z"/></g>
<g><path style="opacity:1" fill="#7aa4ce" d="M 59.5,39.5 C 60.5676,40.4345 61.901,40.7678 63.5,40.5C 63.5299,41.4972 63.0299,42.1639 62,42.5C 59.2305,41.6521 56.3971,41.3187 53.5,41.5C 50.3586,40.6787 47.0252,40.1787 43.5,40C 48.8229,39.5006 54.1563,39.334 59.5,39.5 Z"/></g>
<g><path style="opacity:1" fill="#3a486c" d="M 146.5,45.5 C 149.44,40.802 153.44,39.4687 158.5,41.5C 156.966,43.7464 155.299,46.0797 153.5,48.5C 151.452,47.23 149.452,46.8967 147.5,47.5C 148.34,48.735 149.34,49.735 150.5,50.5C 147.076,49.4732 143.742,48.1399 140.5,46.5C 139.808,47.0253 139.308,47.6919 139,48.5C 138.329,47.7476 137.496,47.4142 136.5,47.5C 136.5,47.1667 136.5,46.8333 136.5,46.5C 136.158,45.6618 135.492,45.3284 134.5,45.5C 136.603,43.7727 138.27,41.6061 139.5,39C 141.025,37.9914 142.692,37.4914 144.5,37.5C 144.723,41.6493 145.39,44.316 146.5,45.5 Z"/></g>
<g><path style="opacity:1" fill="#324e65" d="M 1.5,-0.5 C 4.16667,-0.5 6.83333,-0.5 9.5,-0.5C 9.34536,3.03611 9.34536,6.53611 9.5,10C 14.5062,23.673 20.6729,36.8396 28,49.5C 32.2967,54.4682 36.63,59.4682 41,64.5C 41.6667,63.8333 42.3333,63.1667 43,62.5C 48,65.5 53,68.5 58,71.5C 58.2784,70.5842 58.7784,69.9175 59.5,69.5C 59.5,71.8333 59.5,74.1667 59.5,76.5C 59.2785,79.0673 58.6118,81.4006 57.5,83.5C 57.762,82.0222 57.4287,80.6888 56.5,79.5C 51.3655,78.0151 46.6989,75.6817 42.5,72.5C 37.5603,69.2297 33.2269,65.2297 29.5,60.5C 24.4106,52.693 19.4106,44.693 14.5,36.5C 8.68255,24.3662 4.34922,12.0329 1.5,-0.5 Z"/></g>
<g><path style="opacity:1" fill="#222b4a" d="M 64.5,38.5 C 67.3644,40.0233 69.031,42.3567 69.5,45.5C 68.8826,45.3893 68.3826,45.056 68,44.5C 67.5045,46.4727 67.3379,48.4727 67.5,50.5C 67.6716,51.4916 67.3382,52.1583 66.5,52.5C 64.0712,52.415 62.0712,51.415 60.5,49.5C 59.8933,49.6236 59.56,49.9569 59.5,50.5C 53.7478,48.5345 48.2478,46.2011 43,43.5C 42.8333,43.1667 42.6667,42.8333 42.5,42.5C 46.1073,41.5108 49.774,41.1774 53.5,41.5C 56.3971,41.3187 59.2305,41.6521 62,42.5C 63.0299,42.1639 63.5299,41.4972 63.5,40.5C 63.3284,39.5084 63.6618,38.8417 64.5,38.5 Z"/></g>
<g><path style="opacity:1" fill="#27324a" d="M 138.5,30.5 C 139.791,30.2627 140.791,30.596 141.5,31.5C 141.157,33.4832 141.824,34.8166 143.5,35.5C 144.687,36.5336 145.52,37.867 146,39.5C 146.893,38.2888 147.726,38.2888 148.5,39.5C 146.896,41.1789 146.229,43.1789 146.5,45.5C 145.39,44.316 144.723,41.6493 144.5,37.5C 142.692,37.4914 141.025,37.9914 139.5,39C 138.27,41.6061 136.603,43.7727 134.5,45.5C 130.39,45.4067 126.724,44.24 123.5,42C 127.852,41.5811 128.185,40.9145 124.5,40C 126.058,39.79 127.391,39.29 128.5,38.5C 131.109,37.5569 133.109,35.8903 134.5,33.5C 136.141,32.853 137.474,31.853 138.5,30.5 Z"/></g>
<g><path style="opacity:1" fill="#3a4761" d="M 123.5,38.5 C 124.5,38.5 125.5,38.5 126.5,38.5C 127.167,38.5 127.833,38.5 128.5,38.5C 127.391,39.29 126.058,39.79 124.5,40C 128.185,40.9145 127.852,41.5811 123.5,42C 126.724,44.24 130.39,45.4067 134.5,45.5C 135.492,45.3284 136.158,45.6618 136.5,46.5C 134.167,46.5 131.833,46.5 129.5,46.5C 125.052,45.9017 120.719,44.9017 116.5,43.5C 109.327,43.1677 104.827,46.501 103,53.5C 102.51,52.2068 102.343,50.8734 102.5,49.5C 103.614,46.5512 105.614,44.3845 108.5,43C 113.324,40.4599 118.324,38.9599 123.5,38.5 Z"/></g>
<g><path style="opacity:1" fill="#283a51" d="M 255.5,36.5 C 255.5,49.1667 255.5,61.8333 255.5,74.5C 246.517,69.194 237.517,63.8607 228.5,58.5C 227.5,57.8333 226.5,57.1667 225.5,56.5C 228.326,53.5165 230.659,50.1832 232.5,46.5C 233.974,45.5637 234.974,44.2303 235.5,42.5C 240.37,42.3104 245.036,41.6437 249.5,40.5C 252.925,40.6332 253.258,39.9665 250.5,38.5C 251.239,38.631 251.906,38.4643 252.5,38C 251.5,37.6667 250.5,37.3333 249.5,37C 251.473,36.5045 253.473,36.3379 255.5,36.5 Z"/></g>
<g><path style="opacity:1" fill="#9eadcf" d="M 162.5,43.5 C 164.265,44.4614 166.265,44.7947 168.5,44.5C 168.5,45.1667 168.5,45.8333 168.5,46.5C 164.817,45.6798 162.483,47.0131 161.5,50.5C 160.209,49.4583 160.209,48.2917 161.5,47C 158.553,46.8882 157.22,45.3882 157.5,42.5C 159.292,42.366 160.958,42.6993 162.5,43.5 Z"/></g>
<g><path style="opacity:1" fill="#272c48" d="M 184.5,35.5 C 184.833,35.5 185.167,35.5 185.5,35.5C 185.5,36.8333 186.167,37.5 187.5,37.5C 186.253,39.178 184.586,40.5113 182.5,41.5C 183.833,42.1667 185.167,42.8333 186.5,43.5C 185.975,44.1924 185.308,44.6924 184.5,45C 179.146,45.5285 173.813,45.3619 168.5,44.5C 166.265,44.7947 164.265,44.4614 162.5,43.5C 164.093,42.6521 165.26,41.3187 166,39.5C 166.689,40.3567 167.522,41.0233 168.5,41.5C 174.388,40.41 179.722,38.41 184.5,35.5 Z"/></g>
<g><path style="opacity:1" fill="#1e1123" d="M 249.5,40.5 C 245.036,41.6437 240.37,42.3104 235.5,42.5C 230.556,42.7538 225.889,43.7538 221.5,45.5C 214.835,46.0311 208.501,47.6978 202.5,50.5C 201.224,49.6136 201.224,48.6136 202.5,47.5C 204.911,46.6389 206.911,45.3056 208.5,43.5C 222.014,40.2685 235.681,39.2685 249.5,40.5 Z"/></g>
<g><path style="opacity:1" fill="#6b2536" d="M 235.5,42.5 C 234.974,44.2303 233.974,45.5637 232.5,46.5C 230.735,45.5386 228.735,45.2053 226.5,45.5C 224.833,45.5 223.167,45.5 221.5,45.5C 225.889,43.7538 230.556,42.7538 235.5,42.5 Z"/></g>
<g><path style="opacity:1" fill="#8c9cc3" d="M 101.5,35.5 C 105.373,36.9249 109.373,37.9249 113.5,38.5C 111.162,40.0395 108.495,40.7062 105.5,40.5C 102.539,41.3234 99.5394,41.99 96.5,42.5C 96.0074,44.8056 95.6741,47.139 95.5,49.5C 94.1779,49.67 93.0113,49.3366 92,48.5C 89.1392,52.7233 87.6392,52.3899 87.5,47.5C 88.1667,47.5 88.5,47.1667 88.5,46.5C 91.7571,41.1094 96.0905,37.4427 101.5,35.5 Z"/></g>
<g><path style="opacity:1" fill="#acb6cf" d="M 105.5,40.5 C 104.517,41.8503 103.184,42.8503 101.5,43.5C 100.411,46.5902 98.4106,48.5902 95.5,49.5C 95.6741,47.139 96.0074,44.8056 96.5,42.5C 99.5394,41.99 102.539,41.3234 105.5,40.5 Z"/></g>
<g><path style="opacity:1" fill="#343963" d="M 187.5,37.5 C 199.5,37.5 211.5,37.5 223.5,37.5C 226.881,37.4595 230.214,37.7929 233.5,38.5C 239.167,38.5 244.833,38.5 250.5,38.5C 253.258,39.9665 252.925,40.6332 249.5,40.5C 235.681,39.2685 222.014,40.2685 208.5,43.5C 206.833,43.5 205.167,43.5 203.5,43.5C 197.838,44.9965 192.171,46.4965 186.5,48C 184.382,49.0491 182.716,50.5491 181.5,52.5C 178.061,52.7878 174.728,53.4544 171.5,54.5C 169.451,54.2942 169.117,53.4609 170.5,52C 169.891,50.0517 169.224,48.2184 168.5,46.5C 168.5,45.8333 168.5,45.1667 168.5,44.5C 173.813,45.3619 179.146,45.5285 184.5,45C 185.308,44.6924 185.975,44.1924 186.5,43.5C 185.167,42.8333 183.833,42.1667 182.5,41.5C 184.586,40.5113 186.253,39.178 187.5,37.5 Z"/></g>
<g><path style="opacity:1" fill="#321d34" d="M 203.5,43.5 C 205.167,43.5 206.833,43.5 208.5,43.5C 206.911,45.3056 204.911,46.6389 202.5,47.5C 201.224,48.6136 201.224,49.6136 202.5,50.5C 199.8,52.2344 197.8,54.5677 196.5,57.5C 194.989,56.4975 193.322,55.8308 191.5,55.5C 191.863,53.0885 190.863,51.5885 188.5,51C 189.167,50.3333 189.833,49.6667 190.5,49C 194.55,48.2055 198.55,47.2055 202.5,46C 203.252,45.3292 203.586,44.4959 203.5,43.5 Z"/></g>
<g><path style="opacity:1" fill="#626e9a" d="M 70.5,45.5 C 71.5375,46.9303 72.2041,48.597 72.5,50.5C 72.1667,50.5 71.8333,50.5 71.5,50.5C 70.6993,48.9582 70.366,47.2915 70.5,45.5 Z"/></g>
<g><path style="opacity:1" fill="#a64a4b" d="M 221.5,45.5 C 223.167,45.5 224.833,45.5 226.5,45.5C 223.909,47.4087 222.242,50.0754 221.5,53.5C 218.904,54.4822 216.238,55.1489 213.5,55.5C 213.292,57.9201 213.626,60.2534 214.5,62.5C 214.135,63.9019 213.301,64.9019 212,65.5C 208.892,65.0442 205.725,64.8776 202.5,65C 199.733,63.4339 197.733,61.2672 196.5,58.5C 196.5,58.1667 196.5,57.8333 196.5,57.5C 197.8,54.5677 199.8,52.2344 202.5,50.5C 208.501,47.6978 214.835,46.0311 221.5,45.5 Z"/></g>
<g><path style="opacity:1" fill="#472b2d" d="M 69.5,45.5 C 69.8333,45.5 70.1667,45.5 70.5,45.5C 70.366,47.2915 70.6993,48.9582 71.5,50.5C 70.1667,53.1667 68.8333,53.1667 67.5,50.5C 67.3379,48.4727 67.5045,46.4727 68,44.5C 68.3826,45.056 68.8826,45.3893 69.5,45.5 Z"/></g>
<g><path style="opacity:1" fill="#8dafbd" d="M 129.5,46.5 C 131.833,46.5 134.167,46.5 136.5,46.5C 136.5,46.8333 136.5,47.1667 136.5,47.5C 134.28,48.979 131.946,50.3123 129.5,51.5C 128.391,51.5569 127.391,51.8902 126.5,52.5C 122.921,52.2343 122.587,50.901 125.5,48.5C 126.949,47.8281 128.282,47.1614 129.5,46.5 Z"/></g>
<g><path style="opacity:1" fill="#6f6067" d="M 150.5,50.5 C 152.167,51.5 153.5,52.8333 154.5,54.5C 152.784,54.3713 151.117,54.038 149.5,53.5C 143.128,50.8794 136.461,50.2127 129.5,51.5C 131.946,50.3123 134.28,48.979 136.5,47.5C 137.496,47.4142 138.329,47.7476 139,48.5C 139.308,47.6919 139.808,47.0253 140.5,46.5C 143.742,48.1399 147.076,49.4732 150.5,50.5 Z"/></g>
<g><path style="opacity:1" fill="#a64d5c" d="M 226.5,45.5 C 228.735,45.2053 230.735,45.5386 232.5,46.5C 230.659,50.1832 228.326,53.5165 225.5,56.5C 224.662,56.8417 224.328,57.5084 224.5,58.5C 224.065,63.3526 221.399,66.0193 216.5,66.5C 216.799,69.6421 218.466,71.8088 221.5,73C 220.552,73.4828 219.552,73.6495 218.5,73.5C 216.694,72.9759 215.028,72.3092 213.5,71.5C 215.933,71.2144 215.933,70.5477 213.5,69.5C 210.058,68.1364 206.392,67.1364 202.5,66.5C 201.584,66.5427 200.917,66.8761 200.5,67.5C 198.375,64.9122 197.042,61.9122 196.5,58.5C 197.733,61.2672 199.733,63.4339 202.5,65C 205.725,64.8776 208.892,65.0442 212,65.5C 213.301,64.9019 214.135,63.9019 214.5,62.5C 213.626,60.2534 213.292,57.9201 213.5,55.5C 216.238,55.1489 218.904,54.4822 221.5,53.5C 222.242,50.0754 223.909,47.4087 226.5,45.5 Z"/></g>
<g><path style="opacity:1" fill="#6075a5" d="M 158.5,41.5 C 160.483,41.1568 161.817,41.8235 162.5,43.5C 160.958,42.6993 159.292,42.366 157.5,42.5C 157.22,45.3882 158.553,46.8882 161.5,47C 160.209,48.2917 160.209,49.4583 161.5,50.5C 160.264,53.6213 157.931,54.9546 154.5,54.5C 153.5,52.8333 152.167,51.5 150.5,50.5C 149.34,49.735 148.34,48.735 147.5,47.5C 149.452,46.8967 151.452,47.23 153.5,48.5C 155.299,46.0797 156.966,43.7464 158.5,41.5 Z"/></g>
<g><path style="opacity:1" fill="#d2d8d8" d="M 121.5,36.5 C 120.34,38.2027 121.007,38.8693 123.5,38.5C 118.324,38.9599 113.324,40.4599 108.5,43C 105.614,44.3845 103.614,46.5512 102.5,49.5C 101.539,51.2646 101.205,53.2646 101.5,55.5C 98.7131,56.4767 95.7131,56.81 92.5,56.5C 91.9093,53.3247 92.9093,50.9913 95.5,49.5C 98.4106,48.5902 100.411,46.5902 101.5,43.5C 103.184,42.8503 104.517,41.8503 105.5,40.5C 108.495,40.7062 111.162,40.0395 113.5,38.5C 116.004,37.3608 118.67,36.6941 121.5,36.5 Z"/></g>
<g><path style="opacity:1" fill="#0e1b20" d="M 67.5,50.5 C 68.8333,53.1667 70.1667,53.1667 71.5,50.5C 71.8333,50.5 72.1667,50.5 72.5,50.5C 72.3573,52.2624 72.6906,53.9291 73.5,55.5C 72.3984,56.1757 71.3984,56.8423 70.5,57.5C 69.791,58.404 68.791,58.7373 67.5,58.5C 67.1667,56.5 66.8333,54.5 66.5,52.5C 67.3382,52.1583 67.6716,51.4916 67.5,50.5 Z"/></g>
<g><path style="opacity:1" fill="#516481" d="M 129.5,46.5 C 128.282,47.1614 126.949,47.8281 125.5,48.5C 122.587,50.901 122.921,52.2343 126.5,52.5C 124.343,54.4121 122.009,56.0787 119.5,57.5C 114.077,57.5185 108.744,58.1851 103.5,59.5C 103.082,58.7784 102.416,58.2784 101.5,58C 102.774,57.0228 102.774,56.1894 101.5,55.5C 101.205,53.2646 101.539,51.2646 102.5,49.5C 102.343,50.8734 102.51,52.2068 103,53.5C 104.827,46.501 109.327,43.1677 116.5,43.5C 120.719,44.9017 125.052,45.9017 129.5,46.5 Z"/></g>
<g><path style="opacity:1" fill="#382e4b" d="M 203.5,43.5 C 203.586,44.4959 203.252,45.3292 202.5,46C 198.55,47.2055 194.55,48.2055 190.5,49C 189.833,49.6667 189.167,50.3333 188.5,51C 190.863,51.5885 191.863,53.0885 191.5,55.5C 193.322,55.8308 194.989,56.4975 196.5,57.5C 196.5,57.8333 196.5,58.1667 196.5,58.5C 193.574,57.5392 190.574,56.8726 187.5,56.5C 186.969,53.2206 184.969,51.8872 181.5,52.5C 182.716,50.5491 184.382,49.0491 186.5,48C 192.171,46.4965 197.838,44.9965 203.5,43.5 Z"/></g>
<g><path style="opacity:1" fill="#b4adb3" d="M 87.5,43.5 C 87.5,44.8333 87.5,46.1667 87.5,47.5C 87.6392,52.3899 89.1392,52.7233 92,48.5C 93.0113,49.3366 94.1779,49.67 95.5,49.5C 92.9093,50.9913 91.9093,53.3247 92.5,56.5C 95.7131,56.81 98.7131,56.4767 101.5,55.5C 102.774,56.1894 102.774,57.0228 101.5,58C 102.416,58.2784 103.082,58.7784 103.5,59.5C 102.833,59.5 102.167,59.5 101.5,59.5C 98.8333,59.1667 96.1667,58.8333 93.5,58.5C 91.7354,57.5386 89.7354,57.2053 87.5,57.5C 86.5,57.5 85.5,57.5 84.5,57.5C 84.5569,56.391 84.8902,55.391 85.5,54.5C 86.1667,50.8333 86.8333,47.1667 87.5,43.5 Z"/></g>
<g><path style="opacity:1" fill="#86998d" d="M 70.5,57.5 C 71.791,57.2627 72.791,57.596 73.5,58.5C 71.8333,60.8333 69.8333,62.8333 67.5,64.5C 66.5,64.5 65.5,64.5 64.5,64.5C 64.087,61.6798 65.087,59.6798 67.5,58.5C 68.791,58.7373 69.791,58.404 70.5,57.5 Z"/></g>
<g><path style="opacity:1" fill="#434b73" d="M 181.5,52.5 C 184.969,51.8872 186.969,53.2206 187.5,56.5C 190.574,56.8726 193.574,57.5392 196.5,58.5C 197.042,61.9122 198.375,64.9122 200.5,67.5C 203.121,69.4848 206.121,70.4848 209.5,70.5C 210.167,70.5 210.5,70.8333 210.5,71.5C 204.137,71.407 197.804,71.7403 191.5,72.5C 189.352,72.6106 189.019,71.944 190.5,70.5C 188.486,67.3404 186.486,64.3404 184.5,61.5C 185.609,60.71 186.942,60.21 188.5,60C 186.963,58.8904 186.297,57.3904 186.5,55.5C 184.181,54.833 181.847,54.6664 179.5,55C 179.957,55.414 180.291,55.914 180.5,56.5C 177.502,57.6435 174.502,57.6435 171.5,56.5C 171.5,55.8333 171.5,55.1667 171.5,54.5C 174.728,53.4544 178.061,52.7878 181.5,52.5 Z"/></g>
<g><path style="opacity:1" fill="#395b75" d="M 9.5,-0.5 C 14.5,-0.5 19.5,-0.5 24.5,-0.5C 23.3915,0.28997 22.0581,0.78997 20.5,1C 22.541,7.08714 24.8743,13.0871 27.5,19C 27.1667,19.3333 26.8333,19.6667 26.5,20C 30.3037,25.1345 33.137,30.6345 35,36.5C 32.7632,34.3529 30.7632,32.0196 29,29.5C 29.3737,32.275 30.3737,34.9417 32,37.5C 36.0989,40.8033 38.0989,44.8033 38,49.5C 38.3333,49.1667 38.6667,48.8333 39,48.5C 40.7052,51.409 42.5386,54.2423 44.5,57C 47.9492,58.7875 51.1159,60.9542 54,63.5C 55.6667,63.5 57.3333,63.5 59,63.5C 59.4955,65.4727 59.6621,67.4727 59.5,69.5C 58.7784,69.9175 58.2784,70.5842 58,71.5C 53,68.5 48,65.5 43,62.5C 42.3333,63.1667 41.6667,63.8333 41,64.5C 36.63,59.4682 32.2967,54.4682 28,49.5C 20.6729,36.8396 14.5062,23.673 9.5,10C 9.34536,6.53611 9.34536,3.03611 9.5,-0.5 Z"/></g>
<g><path style="opacity:1" fill="#8c8186" d="M 72.5,50.5 C 73.6772,52.6794 74.6772,55.0128 75.5,57.5C 76.6412,58.339 77.9745,59.0057 79.5,59.5C 80.8498,58.0499 82.5165,57.3832 84.5,57.5C 85.5,57.5 86.5,57.5 87.5,57.5C 87.1583,58.3382 86.4916,58.6716 85.5,58.5C 83.6203,58.2291 82.287,58.8958 81.5,60.5C 79.1667,60.8333 77.8333,62.1667 77.5,64.5C 77.6602,66.1992 77.4935,67.8659 77,69.5C 76.6667,69.1667 76.3333,68.8333 76,68.5C 75.1153,65.0477 74.282,61.7144 73.5,58.5C 72.791,57.596 71.791,57.2627 70.5,57.5C 71.3984,56.8423 72.3984,56.1757 73.5,55.5C 72.6906,53.9291 72.3573,52.2624 72.5,50.5 Z"/></g>
<g><path style="opacity:1" fill="#4f5775" d="M 184.5,61.5 C 183.089,62.9076 181.423,63.9076 179.5,64.5C 176.194,63.8367 172.861,63.3367 169.5,63C 168.978,62.4387 168.645,61.772 168.5,61C 169.555,59.4928 170.555,57.9928 171.5,56.5C 174.502,57.6435 177.502,57.6435 180.5,56.5C 180.291,55.914 179.957,55.414 179.5,55C 181.847,54.6664 184.181,54.833 186.5,55.5C 186.297,57.3904 186.963,58.8904 188.5,60C 186.942,60.21 185.609,60.71 184.5,61.5 Z"/></g>
<g><path style="opacity:1" fill="#141111" d="M 149.5,53.5 C 149.167,54.1667 148.833,54.8333 148.5,55.5C 145.99,55.9267 143.657,56.5933 141.5,57.5C 138.515,58.3257 135.849,59.659 133.5,61.5C 132.833,61.8333 132.167,62.1667 131.5,62.5C 129.473,62.3379 127.473,62.5045 125.5,63C 126.381,63.7083 127.047,64.5416 127.5,65.5C 125.611,66.604 123.945,67.9373 122.5,69.5C 122.167,69.5 121.833,69.5 121.5,69.5C 119.534,68.5588 117.534,67.5588 115.5,66.5C 114.41,67.3914 114.41,68.3914 115.5,69.5C 114.311,70.4287 112.978,70.762 111.5,70.5C 111.167,70.5 110.833,70.5 110.5,70.5C 109.282,69.8386 107.949,69.1719 106.5,68.5C 107.244,65.557 107.744,62.557 108,59.5C 109.796,60.767 111.629,60.767 113.5,59.5C 118.214,68.0828 120.214,67.4162 119.5,57.5C 122.009,56.0787 124.343,54.4121 126.5,52.5C 127.391,51.8902 128.391,51.5569 129.5,51.5C 136.461,50.2127 143.128,50.8794 149.5,53.5 Z"/></g>
<g><path style="opacity:1" fill="#606557" d="M 131.5,52.5 C 132.5,52.5 133.5,52.5 134.5,52.5C 132.959,61.6643 131.959,61.6643 131.5,52.5 Z"/></g>
<g><path style="opacity:1" fill="#6e6f5f" d="M 87.5,57.5 C 89.7354,57.2053 91.7354,57.5386 93.5,58.5C 92.2616,60.2143 91.595,62.2143 91.5,64.5C 90.1991,63.1155 90.1991,61.6155 91.5,60C 90.552,59.5172 89.552,59.3505 88.5,59.5C 88.0156,62.7882 89.0156,65.4548 91.5,67.5C 89.4389,68.6817 87.9389,68.0151 87,65.5C 86.023,63.26 85.523,60.9267 85.5,58.5C 86.4916,58.6716 87.1583,58.3382 87.5,57.5 Z"/></g>
<g><path style="opacity:1" fill="#525246" d="M 119.5,57.5 C 120.214,67.4162 118.214,68.0828 113.5,59.5C 111.629,60.767 109.796,60.767 108,59.5C 107.744,62.557 107.244,65.557 106.5,68.5C 107.949,69.1719 109.282,69.8386 110.5,70.5C 109.833,70.5 109.167,70.5 108.5,70.5C 105.545,69.8413 102.545,69.5079 99.5,69.5C 99.2808,65.4726 100.448,64.8059 103,67.5C 103.446,64.6673 102.946,62.0006 101.5,59.5C 102.167,59.5 102.833,59.5 103.5,59.5C 108.744,58.1851 114.077,57.5185 119.5,57.5 Z"/></g>
<g><path style="opacity:1" fill="#818777" d="M 131.5,62.5 C 130.205,63.4884 128.872,64.4884 127.5,65.5C 127.047,64.5416 126.381,63.7083 125.5,63C 127.473,62.5045 129.473,62.3379 131.5,62.5 Z"/></g>
<g><path style="opacity:1" fill="#69799f" d="M 61.5,55.5 C 61.5,62.8333 61.5,70.1667 61.5,77.5C 60.7345,80.3836 59.7345,83.2169 58.5,86C 58.8333,86.5 59.1667,87 59.5,87.5C 61.2024,85.4632 63.2024,83.7966 65.5,82.5C 65.5,84.8333 65.5,87.1667 65.5,89.5C 63.8333,89.5 62.1667,89.5 60.5,89.5C 60.44,88.9569 60.1067,88.6236 59.5,88.5C 58.1401,89.1799 56.8068,89.8466 55.5,90.5C 55.3939,87.9214 56.0605,85.588 57.5,83.5C 58.6118,81.4006 59.2785,79.0673 59.5,76.5C 60.7577,69.8192 60.7577,62.9858 59.5,56C 59.6667,55.1667 59.8333,54.3333 60,53.5C 60.2784,54.4158 60.7784,55.0825 61.5,55.5 Z"/></g>
<g><path style="opacity:1" fill="#4b4156" d="M 66.5,52.5 C 66.8333,54.5 67.1667,56.5 67.5,58.5C 65.087,59.6798 64.087,61.6798 64.5,64.5C 65.5,64.5 66.5,64.5 67.5,64.5C 67.1667,65.1667 66.8333,65.8333 66.5,66.5C 65.1779,66.33 64.0113,66.6634 63,67.5C 62.8213,71.0252 62.3213,74.3586 61.5,77.5C 61.5,70.1667 61.5,62.8333 61.5,55.5C 61.6347,53.4458 60.968,51.7791 59.5,50.5C 59.56,49.9569 59.8933,49.6236 60.5,49.5C 62.0712,51.415 64.0712,52.415 66.5,52.5 Z"/></g>
<g><path style="opacity:1" fill="#131314" d="M 93.5,58.5 C 96.1667,58.8333 98.8333,59.1667 101.5,59.5C 102.946,62.0006 103.446,64.6673 103,67.5C 100.448,64.8059 99.2808,65.4726 99.5,69.5C 98.8333,69.5 98.1667,69.5 97.5,69.5C 95.4752,67.8036 93.4752,66.137 91.5,64.5C 91.595,62.2143 92.2616,60.2143 93.5,58.5 Z"/></g>
<g><path style="opacity:1" fill="#a8b3ab" d="M 104.5,61.5 C 105.649,61.7911 106.316,62.6244 106.5,64C 106.167,64.8333 105.833,65.6667 105.5,66.5C 104.548,64.9547 104.215,63.288 104.5,61.5 Z"/></g>
<g><path style="opacity:1" fill="#f3f2ee" d="M 133.5,61.5 C 134.239,61.369 134.906,61.5357 135.5,62C 132.509,64.9572 129.509,67.9572 126.5,71C 124.86,71.3478 123.527,70.8478 122.5,69.5C 123.945,67.9373 125.611,66.604 127.5,65.5C 128.872,64.4884 130.205,63.4884 131.5,62.5C 132.167,62.1667 132.833,61.8333 133.5,61.5 Z"/></g>
<g><path style="opacity:1" fill="#707064" d="M 81.5,60.5 C 82.4916,60.3284 83.1583,60.6618 83.5,61.5C 81.7074,61.8836 80.7074,63.0503 80.5,65C 81.9354,67.6715 82.9354,70.5048 83.5,73.5C 82.8902,74.391 82.5569,75.391 82.5,76.5C 80.8595,75.853 79.5261,74.853 78.5,73.5C 79.1894,72.2264 80.0228,72.2264 81,73.5C 81.4978,69.8324 80.3312,66.8324 77.5,64.5C 77.8333,62.1667 79.1667,60.8333 81.5,60.5 Z"/></g>
<g><path style="opacity:1" fill="#39394e" d="M 168.5,46.5 C 169.224,48.2184 169.891,50.0517 170.5,52C 169.117,53.4609 169.451,54.2942 171.5,54.5C 171.5,55.1667 171.5,55.8333 171.5,56.5C 170.555,57.9928 169.555,59.4928 168.5,61C 168.645,61.772 168.978,62.4387 169.5,63C 172.861,63.3367 176.194,63.8367 179.5,64.5C 181.423,63.9076 183.089,62.9076 184.5,61.5C 186.486,64.3404 188.486,67.3404 190.5,70.5C 189.019,71.944 189.352,72.6106 191.5,72.5C 189.405,74.7081 186.738,75.8748 183.5,76C 185.058,76.21 186.391,76.71 187.5,77.5C 185.473,77.6621 183.473,77.4955 181.5,77C 178.444,75.1444 175.444,73.3111 172.5,71.5C 167.437,66.4317 162.104,61.765 156.5,57.5C 154.343,56.5933 152.01,55.9267 149.5,55.5C 149.167,55.5 148.833,55.5 148.5,55.5C 148.833,54.8333 149.167,54.1667 149.5,53.5C 151.117,54.038 152.784,54.3713 154.5,54.5C 157.931,54.9546 160.264,53.6213 161.5,50.5C 162.483,47.0131 164.817,45.6798 168.5,46.5 Z"/></g>
<g><path style="opacity:1" fill="#563845" d="M 66.5,66.5 C 70.829,68.82 72.829,72.4866 72.5,77.5C 72.5,77.8333 72.5,78.1667 72.5,78.5C 71.5,78.8333 70.8333,79.5 70.5,80.5C 68.6923,81.3168 67.1923,80.6502 66,78.5C 65.51,79.7932 65.3433,81.1266 65.5,82.5C 63.2024,83.7966 61.2024,85.4632 59.5,87.5C 59.1667,87 58.8333,86.5 58.5,86C 59.7345,83.2169 60.7345,80.3836 61.5,77.5C 62.3213,74.3586 62.8213,71.0252 63,67.5C 64.0113,66.6634 65.1779,66.33 66.5,66.5 Z"/></g>
<g><path style="opacity:1" fill="#8e8fab" d="M 156.5,57.5 C 162.104,61.765 167.437,66.4317 172.5,71.5C 171.174,73.1951 171.507,74.5284 173.5,75.5C 173.5,76.8333 173.5,78.1667 173.5,79.5C 170.45,80.0768 168.45,78.9101 167.5,76C 165.655,74.872 163.655,74.372 161.5,74.5C 161.657,73.1266 161.49,71.7932 161,70.5C 157.797,66.5965 154.963,62.4298 152.5,58C 154.115,57.9378 155.448,57.7711 156.5,57.5 Z"/></g>
<g><path style="opacity:1" fill="#933a50" d="M 224.5,58.5 C 226.338,67.8335 231.004,75.5002 238.5,81.5C 234.22,79.3599 229.886,77.1932 225.5,75C 222.964,74.8138 220.631,74.3138 218.5,73.5C 219.552,73.6495 220.552,73.4828 221.5,73C 218.466,71.8088 216.799,69.6421 216.5,66.5C 221.399,66.0193 224.065,63.3526 224.5,58.5 Z"/></g>
<g><path style="opacity:1" fill="#191b1e" d="M 73.5,58.5 C 74.282,61.7144 75.1153,65.0477 76,68.5C 76.3333,68.8333 76.6667,69.1667 77,69.5C 77.4935,67.8659 77.6602,66.1992 77.5,64.5C 80.3312,66.8324 81.4978,69.8324 81,73.5C 80.0228,72.2264 79.1894,72.2264 78.5,73.5C 77.8902,74.391 77.5569,75.391 77.5,76.5C 75.7085,76.366 74.0418,76.6993 72.5,77.5C 72.829,72.4866 70.829,68.82 66.5,66.5C 66.8333,65.8333 67.1667,65.1667 67.5,64.5C 69.8333,62.8333 71.8333,60.8333 73.5,58.5 Z"/></g>
<g><path style="opacity:1" fill="#cdd1c2" d="M 91.5,64.5 C 93.4752,66.137 95.4752,67.8036 97.5,69.5C 101.686,70.0149 104.352,72.3482 105.5,76.5C 103.704,75.2073 102.037,73.7073 100.5,72C 98.0524,71.1469 97.3857,71.6469 98.5,73.5C 96.2459,72.5849 94.2459,71.2516 92.5,69.5C 92.6716,68.5084 92.3382,67.8417 91.5,67.5C 89.0156,65.4548 88.0156,62.7882 88.5,59.5C 89.552,59.3505 90.552,59.5172 91.5,60C 90.1991,61.6155 90.1991,63.1155 91.5,64.5 Z"/></g>
<g><path style="opacity:1" fill="#737362" d="M 121.5,69.5 C 121.5,70.1667 121.167,70.5 120.5,70.5C 118.983,70.4894 117.816,69.8228 117,68.5C 116.383,69.4491 116.549,70.2825 117.5,71C 115.288,71.7891 113.288,71.6225 111.5,70.5C 112.978,70.762 114.311,70.4287 115.5,69.5C 114.41,68.3914 114.41,67.3914 115.5,66.5C 117.534,67.5588 119.534,68.5588 121.5,69.5 Z"/></g>
<g><path style="opacity:1" fill="#ca95aa" d="M 200.5,67.5 C 200.917,66.8761 201.584,66.5427 202.5,66.5C 206.392,67.1364 210.058,68.1364 213.5,69.5C 211.901,69.2322 210.568,69.5655 209.5,70.5C 206.121,70.4848 203.121,69.4848 200.5,67.5 Z"/></g>
<g><path style="opacity:1" fill="#191919" d="M 85.5,58.5 C 85.523,60.9267 86.023,63.26 87,65.5C 87.9389,68.0151 89.4389,68.6817 91.5,67.5C 92.3382,67.8417 92.6716,68.5084 92.5,69.5C 92.5,69.8333 92.5,70.1667 92.5,70.5C 90.283,71.3686 87.9496,71.702 85.5,71.5C 84.2154,68.4115 83.5488,65.0781 83.5,61.5C 83.1583,60.6618 82.4916,60.3284 81.5,60.5C 82.287,58.8958 83.6203,58.2291 85.5,58.5 Z"/></g>
<g><path style="opacity:1" fill="#efe8ef" d="M 209.5,70.5 C 210.568,69.5655 211.901,69.2322 213.5,69.5C 215.933,70.5477 215.933,71.2144 213.5,71.5C 212.5,71.5 211.5,71.5 210.5,71.5C 210.5,70.8333 210.167,70.5 209.5,70.5 Z"/></g>
<g><path style="opacity:1" fill="#cdc9c7" d="M 141.5,57.5 C 142.239,57.369 142.906,57.5357 143.5,58C 141.934,58.6082 140.6,59.4415 139.5,60.5C 135.004,65.583 136.004,69.583 142.5,72.5C 143.48,75.0865 143.813,77.7531 143.5,80.5C 142.504,80.5858 141.671,80.2524 141,79.5C 140.79,77.9419 140.29,76.6085 139.5,75.5C 138.13,68.4715 135.296,67.8048 131,73.5C 130.36,75.265 130.527,76.9317 131.5,78.5C 128.482,77.0226 125.482,75.6893 122.5,74.5C 122.473,72.8007 121.806,71.4674 120.5,70.5C 121.167,70.5 121.5,70.1667 121.5,69.5C 121.833,69.5 122.167,69.5 122.5,69.5C 123.527,70.8478 124.86,71.3478 126.5,71C 129.509,67.9572 132.509,64.9572 135.5,62C 134.906,61.5357 134.239,61.369 133.5,61.5C 135.849,59.659 138.515,58.3257 141.5,57.5 Z"/></g>
<g><path style="opacity:1" fill="#9898aa" d="M 149.5,55.5 C 152.01,55.9267 154.343,56.5933 156.5,57.5C 155.448,57.7711 154.115,57.9378 152.5,58C 154.963,62.4298 157.797,66.5965 161,70.5C 161.49,71.7932 161.657,73.1266 161.5,74.5C 163.655,74.372 165.655,74.872 167.5,76C 168.45,78.9101 170.45,80.0768 173.5,79.5C 173.5,78.1667 173.5,76.8333 173.5,75.5C 174.219,77.0913 175.219,78.5913 176.5,80C 174.256,80.0496 172.589,80.8829 171.5,82.5C 170.637,83.9403 170.637,85.2736 171.5,86.5C 168.691,87.8003 166.024,87.8003 163.5,86.5C 163.5,86.1667 163.5,85.8333 163.5,85.5C 162.892,83.7411 163.225,81.9078 164.5,80C 161.844,78.1745 160.178,75.6745 159.5,72.5C 156.086,70.657 154.586,67.9903 155,64.5C 152.263,62.1719 149.43,60.0052 146.5,58C 147.942,57.6232 148.942,56.7899 149.5,55.5 Z"/></g>
<g><path style="opacity:1" fill="#787d9a" d="M 228.5,58.5 C 237.517,63.8607 246.517,69.194 255.5,74.5C 255.5,75.5 255.5,76.5 255.5,77.5C 252.222,76.1911 249.222,74.3578 246.5,72C 241.493,72.507 238.16,70.507 236.5,66C 232.996,64.0823 229.663,61.9157 226.5,59.5C 226.957,58.7025 227.624,58.3691 228.5,58.5 Z"/></g>
<g><path style="opacity:1" fill="#0f151e" d="M 61.5,110.5 C 61.9368,113.807 61.2702,116.807 59.5,119.5C 56.4328,117.98 53.4328,116.313 50.5,114.5C 45.2346,114.371 40.0679,113.038 35,110.5C 34.586,110.957 34.086,111.291 33.5,111.5C 30.437,109.975 27.7703,107.975 25.5,105.5C 19.1764,107.534 13.6764,105.867 9,100.5C 6.61227,95.7634 4.77894,91.0967 3.5,86.5C 2.2724,84.8241 0.939062,84.4908 -0.5,85.5C -0.5,81.5 -0.5,77.5 -0.5,73.5C 0.396953,72.4019 1.23029,72.4019 2,73.5C 5.89099,79.3904 8.72432,85.3904 10.5,91.5C 12.1439,91.7135 13.6439,91.3802 15,90.5C 15.956,91.5786 16.7894,92.7453 17.5,94C 20.4426,94.2897 22.9426,95.4563 25,97.5C 26.6532,97.1802 27.6532,96.1802 28,94.5C 29.4396,96.0456 31.2729,96.879 33.5,97C 34.6426,100.537 36.8093,101.704 40,100.5C 42.7377,102.783 45.9044,103.949 49.5,104C 53.4346,106.462 57.4346,108.629 61.5,110.5 Z"/></g>
<g><path style="opacity:1" fill="#b6b0af" d="M 139.5,60.5 C 143.269,63.2256 145.269,66.7256 145.5,71C 148.177,71.2494 150.51,72.2494 152.5,74C 151.056,75.7635 150.056,77.7635 149.5,80C 151.125,80.8525 151.458,81.8525 150.5,83C 151.95,83.1171 153.45,82.9505 155,82.5C 157.247,84.9262 160.08,85.9262 163.5,85.5C 163.5,85.8333 163.5,86.1667 163.5,86.5C 162.5,86.5 161.5,86.5 160.5,86.5C 160.5,87.8333 160.5,89.1667 160.5,90.5C 158.833,90.5 157.167,90.5 155.5,90.5C 153.393,89.5318 151.059,89.1984 148.5,89.5C 150.631,88.6862 152.964,88.1862 155.5,88C 154.207,87.51 152.873,87.3433 151.5,87.5C 150.338,83.5653 147.672,81.232 143.5,80.5C 143.813,77.7531 143.48,75.0865 142.5,72.5C 136.004,69.583 135.004,65.583 139.5,60.5 Z"/></g>
<g><path style="opacity:1" fill="#c3c8af" d="M 83.5,61.5 C 83.5488,65.0781 84.2154,68.4115 85.5,71.5C 87.5311,72.5387 88.8645,74.2054 89.5,76.5C 88.4061,78.8362 87.0728,78.8362 85.5,76.5C 85.573,74.9731 84.9063,73.9731 83.5,73.5C 82.9354,70.5048 81.9354,67.6715 80.5,65C 80.7074,63.0503 81.7074,61.8836 83.5,61.5 Z"/></g>
<g><path style="opacity:1" fill="#3d5076" d="M 225.5,56.5 C 226.5,57.1667 227.5,57.8333 228.5,58.5C 227.624,58.3691 226.957,58.7025 226.5,59.5C 229.663,61.9157 232.996,64.0823 236.5,66C 238.16,70.507 241.493,72.507 246.5,72C 249.222,74.3578 252.222,76.1911 255.5,77.5C 255.5,83.1667 255.5,88.8333 255.5,94.5C 253.059,90.7267 249.726,88.06 245.5,86.5C 243.028,85.0911 240.695,83.4244 238.5,81.5C 231.004,75.5002 226.338,67.8335 224.5,58.5C 224.328,57.5084 224.662,56.8417 225.5,56.5 Z"/></g>
<g><path style="opacity:1" fill="#48546a" d="M 92.5,70.5 C 94.7481,73.328 96.7481,76.328 98.5,79.5C 98.8333,80.8333 99.1667,82.1667 99.5,83.5C 98.078,82.075 96.4113,81.075 94.5,80.5C 94.1667,80.5 93.8333,80.5 93.5,80.5C 92.5,78.8333 91.1667,77.5 89.5,76.5C 88.8645,74.2054 87.5311,72.5387 85.5,71.5C 87.9496,71.702 90.283,71.3686 92.5,70.5 Z"/></g>
<g><path style="opacity:1" fill="#aba4ab" d="M 148.5,55.5 C 148.833,55.5 149.167,55.5 149.5,55.5C 148.942,56.7899 147.942,57.6232 146.5,58C 149.43,60.0052 152.263,62.1719 155,64.5C 154.586,67.9903 156.086,70.657 159.5,72.5C 160.178,75.6745 161.844,78.1745 164.5,80C 163.225,81.9078 162.892,83.7411 163.5,85.5C 160.08,85.9262 157.247,84.9262 155,82.5C 153.45,82.9505 151.95,83.1171 150.5,83C 151.458,81.8525 151.125,80.8525 149.5,80C 150.056,77.7635 151.056,75.7635 152.5,74C 150.51,72.2494 148.177,71.2494 145.5,71C 145.269,66.7256 143.269,63.2256 139.5,60.5C 140.6,59.4415 141.934,58.6082 143.5,58C 142.906,57.5357 142.239,57.369 141.5,57.5C 143.657,56.5933 145.99,55.9267 148.5,55.5 Z"/></g>
<g><path style="opacity:1" fill="#263a4d" d="M 42.5,72.5 C 46.6989,75.6817 51.3655,78.0151 56.5,79.5C 57.4287,80.6888 57.762,82.0222 57.5,83.5C 56.0605,85.588 55.3939,87.9214 55.5,90.5C 55.1667,90.5 54.8333,90.5 54.5,90.5C 48.849,87.7082 43.1824,84.7082 37.5,81.5C 26.1333,72.9632 16.6333,62.6298 9,50.5C 6.63371,42.5579 3.80037,34.8913 0.5,27.5C 0.335374,24.4816 0.50204,21.4816 1,18.5C 2.43139,24.6946 4.43139,30.6946 7,36.5C 13.3304,46.4835 20.1637,56.1501 27.5,65.5C 29.0072,66.7388 30.1739,66.4054 31,64.5C 33.4901,69.2046 37.3234,71.8713 42.5,72.5 Z"/></g>
<g><path style="opacity:1" fill="#aaa082" d="M 105.5,76.5 C 105.5,76.8333 105.5,77.1667 105.5,77.5C 104.226,78.1894 104.226,79.0228 105.5,80C 104.5,80.6667 103.5,80.6667 102.5,80C 101.27,77.6608 99.9366,75.4942 98.5,73.5C 97.3857,71.6469 98.0524,71.1469 100.5,72C 102.037,73.7073 103.704,75.2073 105.5,76.5 Z"/></g>
<g><path style="opacity:1" fill="#ebeae9" d="M 139.5,75.5 C 139.785,77.288 139.452,78.9547 138.5,80.5C 136.49,78.8287 134.157,78.162 131.5,78.5C 130.527,76.9317 130.36,75.265 131,73.5C 135.296,67.8048 138.13,68.4715 139.5,75.5 Z"/></g>
<g><path style="opacity:1" fill="#806e4f" d="M 92.5,69.5 C 94.2459,71.2516 96.2459,72.5849 98.5,73.5C 99.9366,75.4942 101.27,77.6608 102.5,80C 103.5,80.6667 104.5,80.6667 105.5,80C 104.226,79.0228 104.226,78.1894 105.5,77.5C 109.5,79.5 112.5,82.5 114.5,86.5C 113.596,87.209 113.263,88.209 113.5,89.5C 112.127,89.6567 110.793,89.49 109.5,89C 105.276,86.2603 101.609,83.0936 98.5,79.5C 96.7481,76.328 94.7481,73.328 92.5,70.5C 92.5,70.1667 92.5,69.8333 92.5,69.5 Z"/></g>
<g><path style="opacity:1" fill="#a3b0b9" d="M 172.5,71.5 C 175.444,73.3111 178.444,75.1444 181.5,77C 183.473,77.4955 185.473,77.6621 187.5,77.5C 189.5,77.5 191.5,77.5 193.5,77.5C 193.5,78.5 193.5,79.5 193.5,80.5C 193.167,80.5 192.833,80.5 192.5,80.5C 188.23,78.7806 183.564,77.7806 178.5,77.5C 177.571,78.6888 177.238,80.0222 177.5,81.5C 176.209,81.2627 175.209,81.596 174.5,82.5C 173.5,82.5 172.5,82.5 171.5,82.5C 172.589,80.8829 174.256,80.0496 176.5,80C 175.219,78.5913 174.219,77.0913 173.5,75.5C 171.507,74.5284 171.174,73.1951 172.5,71.5 Z"/></g>
<g><path style="opacity:1" fill="#2e2340" d="M 210.5,71.5 C 211.5,71.5 212.5,71.5 213.5,71.5C 215.028,72.3092 216.694,72.9759 218.5,73.5C 220.631,74.3138 222.964,74.8138 225.5,75C 229.886,77.1932 234.22,79.3599 238.5,81.5C 240.695,83.4244 243.028,85.0911 245.5,86.5C 242.833,86.1667 240.167,85.8333 237.5,85.5C 235.044,83.1324 232.044,82.1324 228.5,82.5C 224.081,81.0285 219.414,80.3618 214.5,80.5C 209.239,77.7437 203.572,75.7437 197.5,74.5C 195.583,74.7538 194.249,75.7538 193.5,77.5C 191.5,77.5 189.5,77.5 187.5,77.5C 186.391,76.71 185.058,76.21 183.5,76C 186.738,75.8748 189.405,74.7081 191.5,72.5C 197.804,71.7403 204.137,71.407 210.5,71.5 Z"/></g>
<g><path style="opacity:1" fill="#665880" d="M 72.5,78.5 C 77.8333,80.5 77.8333,82.5 72.5,84.5C 70.8958,83.713 70.2291,82.3797 70.5,80.5C 70.8333,79.5 71.5,78.8333 72.5,78.5 Z"/></g>
<g><path style="opacity:1" fill="#9c9275" d="M 78.5,73.5 C 79.5261,74.853 80.8595,75.853 82.5,76.5C 83.4922,79.7786 83.6588,83.1119 83,86.5C 82.0192,89.6887 80.6859,90.022 79,87.5C 78.0642,83.8865 77.5642,80.2198 77.5,76.5C 77.5569,75.391 77.8902,74.391 78.5,73.5 Z"/></g>
<g><path style="opacity:1" fill="#8f805f" d="M 85.5,76.5 C 87.0728,78.8362 88.4061,78.8362 89.5,76.5C 91.1667,77.5 92.5,78.8333 93.5,80.5C 93.5,82.1667 93.5,83.8333 93.5,85.5C 92.5,85.5 91.5,85.5 90.5,85.5C 88.0764,82.9922 86.4097,79.9922 85.5,76.5 Z"/></g>
<g><path style="opacity:1" fill="#bdb2b3" d="M 120.5,70.5 C 121.806,71.4674 122.473,72.8007 122.5,74.5C 125.482,75.6893 128.482,77.0226 131.5,78.5C 129.322,82.444 128.989,86.6106 130.5,91C 129.978,91.9503 129.311,92.7836 128.5,93.5C 129.557,93.9059 130.891,93.9059 132.5,93.5C 132.5,93.8333 132.5,94.1667 132.5,94.5C 127.862,94.6903 123.862,96.357 120.5,99.5C 119.893,99.3764 119.56,99.0431 119.5,98.5C 119.5,97.8333 119.5,97.1667 119.5,96.5C 120.167,96.5 120.833,96.5 121.5,96.5C 122.868,94.4357 123.868,92.1024 124.5,89.5C 126.167,89.1667 127.167,88.1667 127.5,86.5C 125.213,82.8584 122.046,80.1917 118,78.5C 117.51,77.2068 117.343,75.8734 117.5,74.5C 113.64,74.9459 110.64,73.6125 108.5,70.5C 109.167,70.5 109.833,70.5 110.5,70.5C 110.833,70.5 111.167,70.5 111.5,70.5C 113.288,71.6225 115.288,71.7891 117.5,71C 116.549,70.2825 116.383,69.4491 117,68.5C 117.816,69.8228 118.983,70.4894 120.5,70.5 Z"/></g>
<g><path style="opacity:1" fill="#872733" d="M 214.5,80.5 C 212.343,81.4067 210.01,82.0733 207.5,82.5C 202.446,83.2549 197.779,84.9215 193.5,87.5C 192.833,87.5 192.167,87.5 191.5,87.5C 191.5,86.5 191.5,85.5 191.5,84.5C 192.6,83.3951 193.267,82.0618 193.5,80.5C 193.5,79.5 193.5,78.5 193.5,77.5C 194.249,75.7538 195.583,74.7538 197.5,74.5C 203.572,75.7437 209.239,77.7437 214.5,80.5 Z"/></g>
<g><path style="opacity:1" fill="#bfcfc3" d="M 192.5,80.5 C 187.063,83.3429 181.396,85.6762 175.5,87.5C 174.957,87.44 174.624,87.1067 174.5,86.5C 175.376,85.7492 176.376,85.2492 177.5,85C 176.429,84.1482 175.429,83.3149 174.5,82.5C 175.209,81.596 176.209,81.2627 177.5,81.5C 177.238,80.0222 177.571,78.6888 178.5,77.5C 183.564,77.7806 188.23,78.7806 192.5,80.5 Z"/></g>
<g><path style="opacity:1" fill="#99444f" d="M 207.5,82.5 C 209.698,83.1653 212.031,83.8319 214.5,84.5C 213.807,85.5178 213.141,86.5178 212.5,87.5C 205.652,90.0973 198.652,91.0973 191.5,90.5C 192.193,89.4822 192.859,88.4822 193.5,87.5C 197.779,84.9215 202.446,83.2549 207.5,82.5 Z"/></g>
<g><path style="opacity:1" fill="#0b0e16" d="M 61.5,110.5 C 62.1667,112.833 62.8333,115.167 63.5,117.5C 63.5,120.167 63.5,122.833 63.5,125.5C 63.2078,129.066 61.8744,132.066 59.5,134.5C 59.631,133.761 59.4643,133.094 59,132.5C 56.978,132.212 54.8113,132.546 52.5,133.5C 50.5,133 48.5,132.5 46.5,132C 45.9647,129.891 44.9647,129.391 43.5,130.5C 41.8662,130.032 40.6995,129.032 40,127.5C 39.6924,128.308 39.1924,128.975 38.5,129.5C 33.6565,128.168 29.1565,126.168 25,123.5C 24.6667,122.5 24.3333,121.5 24,120.5C 22.9148,121.293 21.7481,121.96 20.5,122.5C 12.2667,118.813 7.43338,112.813 6,104.5C 5.09748,103.299 3.93081,102.465 2.5,102C 3.45057,101.282 3.61723,100.449 3,99.5C 1.9609,100.71 0.794229,101.71 -0.5,102.5C -0.5,96.8333 -0.5,91.1667 -0.5,85.5C 0.939062,84.4908 2.2724,84.8241 3.5,86.5C 4.77894,91.0967 6.61227,95.7634 9,100.5C 13.6764,105.867 19.1764,107.534 25.5,105.5C 27.7703,107.975 30.437,109.975 33.5,111.5C 34.086,111.291 34.586,110.957 35,110.5C 40.0679,113.038 45.2346,114.371 50.5,114.5C 53.4328,116.313 56.4328,117.98 59.5,119.5C 61.2702,116.807 61.9368,113.807 61.5,110.5 Z"/></g>
<g><path style="opacity:1" fill="#a26583" d="M 228.5,82.5 C 232.044,82.1324 235.044,83.1324 237.5,85.5C 232.488,85.9199 227.488,86.0866 222.5,86C 223.755,83.5397 225.755,82.373 228.5,82.5 Z"/></g>
<g><path style="opacity:1" fill="#8f435a" d="M 214.5,80.5 C 219.414,80.3618 224.081,81.0285 228.5,82.5C 225.755,82.373 223.755,83.5397 222.5,86C 227.488,86.0866 232.488,85.9199 237.5,85.5C 240.167,85.8333 242.833,86.1667 245.5,86.5C 245.715,88.1788 245.048,89.1788 243.5,89.5C 233.379,87.8751 223.046,87.2084 212.5,87.5C 213.141,86.5178 213.807,85.5178 214.5,84.5C 212.031,83.8319 209.698,83.1653 207.5,82.5C 210.01,82.0733 212.343,81.4067 214.5,80.5 Z"/></g>
<g><path style="opacity:1" fill="#4d3624" d="M 98.5,79.5 C 101.609,83.0936 105.276,86.2603 109.5,89C 110.793,89.49 112.127,89.6567 113.5,89.5C 113.263,88.209 113.596,87.209 114.5,86.5C 114.5,88.1667 114.5,89.8333 114.5,91.5C 112.488,92.0138 110.488,92.1805 108.5,92C 105.007,89.6731 102.007,86.8398 99.5,83.5C 99.1667,82.1667 98.8333,80.8333 98.5,79.5 Z"/></g>
<g><path style="opacity:1" fill="#1c1d3d" d="M 192.5,80.5 C 192.833,80.5 193.167,80.5 193.5,80.5C 193.267,82.0618 192.6,83.3951 191.5,84.5C 190.5,85.1667 189.5,85.8333 188.5,86.5C 182.262,89.5304 176.262,93.0304 170.5,97C 168.134,97.4396 165.801,97.9396 163.5,98.5C 163.5,98.1667 163.5,97.8333 163.5,97.5C 164.391,96.8902 165.391,96.5569 166.5,96.5C 171.745,95.1272 171.745,93.7939 166.5,92.5C 169.788,91.2716 172.788,89.6049 175.5,87.5C 181.396,85.6762 187.063,83.3429 192.5,80.5 Z"/></g>
<g><path style="opacity:1" fill="#a6a3bc" d="M 97.5,69.5 C 98.1667,69.5 98.8333,69.5 99.5,69.5C 102.545,69.5079 105.545,69.8413 108.5,70.5C 110.64,73.6125 113.64,74.9459 117.5,74.5C 117.343,75.8734 117.51,77.2068 118,78.5C 122.046,80.1917 125.213,82.8584 127.5,86.5C 127.167,88.1667 126.167,89.1667 124.5,89.5C 123.868,92.1024 122.868,94.4357 121.5,96.5C 121.723,94.6583 122.057,92.825 122.5,91C 122.507,89.1878 121.84,87.6878 120.5,86.5C 119.686,88.7662 119.186,91.0995 119,93.5C 117.482,94.1634 116.315,95.1634 115.5,96.5C 114.833,96.5 114.167,96.5 113.5,96.5C 114.809,94.5032 116.142,92.5032 117.5,90.5C 116.828,88.8405 115.828,87.5072 114.5,86.5C 112.5,82.5 109.5,79.5 105.5,77.5C 105.5,77.1667 105.5,76.8333 105.5,76.5C 104.352,72.3482 101.686,70.0149 97.5,69.5 Z"/></g>
<g><path style="opacity:1" fill="#e0d4c9" d="M 139.5,75.5 C 140.29,76.6085 140.79,77.9419 141,79.5C 141.671,80.2524 142.504,80.5858 143.5,80.5C 147.672,81.232 150.338,83.5653 151.5,87.5C 152.873,87.3433 154.207,87.51 155.5,88C 152.964,88.1862 150.631,88.6862 148.5,89.5C 147.209,89.2627 146.209,89.596 145.5,90.5C 142.619,91.2737 139.952,92.6071 137.5,94.5C 135.929,93.6906 134.262,93.3573 132.5,93.5C 130.891,93.9059 129.557,93.9059 128.5,93.5C 129.311,92.7836 129.978,91.9503 130.5,91C 128.989,86.6106 129.322,82.444 131.5,78.5C 134.157,78.162 136.49,78.8287 138.5,80.5C 139.452,78.9547 139.785,77.288 139.5,75.5 Z"/></g>
<g><path style="opacity:1" fill="#5a586d" d="M 83.5,73.5 C 84.9063,73.9731 85.573,74.9731 85.5,76.5C 86.4097,79.9922 88.0764,82.9922 90.5,85.5C 92.7918,87.4511 93.1251,89.7844 91.5,92.5C 89.8828,91.962 88.2161,91.6287 86.5,91.5C 86.719,90.325 86.3857,89.325 85.5,88.5C 83.9178,90.0147 82.5845,91.6814 81.5,93.5C 80.5,92.5 79.5,91.5 78.5,90.5C 76.1868,89.4995 74.1868,88.1662 72.5,86.5C 72.5,85.8333 72.5,85.1667 72.5,84.5C 77.8333,82.5 77.8333,80.5 72.5,78.5C 72.5,78.1667 72.5,77.8333 72.5,77.5C 74.0418,76.6993 75.7085,76.366 77.5,76.5C 77.5642,80.2198 78.0642,83.8865 79,87.5C 80.6859,90.022 82.0192,89.6887 83,86.5C 83.6588,83.1119 83.4922,79.7786 82.5,76.5C 82.5569,75.391 82.8902,74.391 83.5,73.5 Z"/></g>
<g><path style="opacity:1" fill="#98ada5" d="M 171.5,82.5 C 172.5,82.5 173.5,82.5 174.5,82.5C 175.429,83.3149 176.429,84.1482 177.5,85C 176.376,85.2492 175.376,85.7492 174.5,86.5C 174.624,87.1067 174.957,87.44 175.5,87.5C 172.788,89.6049 169.788,91.2716 166.5,92.5C 164.102,92.7406 162.102,92.0739 160.5,90.5C 160.5,89.1667 160.5,87.8333 160.5,86.5C 161.5,86.5 162.5,86.5 163.5,86.5C 166.024,87.8003 168.691,87.8003 171.5,86.5C 170.637,85.2736 170.637,83.9403 171.5,82.5 Z"/></g>
<g><path style="opacity:1" fill="#151f2a" d="M -0.5,55.5 C 1.37099,55.8588 2.87099,56.8588 4,58.5C 5.82466,61.3111 7.158,64.3111 8,67.5C 11.9217,70.7508 15.0883,74.5841 17.5,79C 24.6466,83.3853 31.98,88.0519 39.5,93C 42.3501,94.0462 45.0168,94.7128 47.5,95C 46.6634,96.0113 46.33,97.1779 46.5,98.5C 47.791,98.7373 48.791,98.404 49.5,97.5C 53.4842,96.5124 57.4842,95.5124 61.5,94.5C 60.8333,95.5 60.1667,96.5 59.5,97.5C 58.4246,96.4376 57.4246,96.4376 56.5,97.5C 61.6574,103.154 63.9907,109.821 63.5,117.5C 62.8333,115.167 62.1667,112.833 61.5,110.5C 57.4346,108.629 53.4346,106.462 49.5,104C 45.9044,103.949 42.7377,102.783 40,100.5C 36.8093,101.704 34.6426,100.537 33.5,97C 31.2729,96.879 29.4396,96.0456 28,94.5C 27.6532,96.1802 26.6532,97.1802 25,97.5C 22.9426,95.4563 20.4426,94.2897 17.5,94C 16.7894,92.7453 15.956,91.5786 15,90.5C 13.6439,91.3802 12.1439,91.7135 10.5,91.5C 8.72432,85.3904 5.89099,79.3904 2,73.5C 1.23029,72.4019 0.396953,72.4019 -0.5,73.5C -0.5,67.5 -0.5,61.5 -0.5,55.5 Z"/></g>
<g><path style="opacity:1" fill="#87aad9" d="M 60.5,89.5 C 57.3177,92.34 53.651,94.34 49.5,95.5C 48.2617,95.19 48.2617,94.69 49.5,94C 51.3231,93.0027 52.9897,91.8361 54.5,90.5C 54.8333,90.5 55.1667,90.5 55.5,90.5C 56.8068,89.8466 58.1401,89.1799 59.5,88.5C 60.1067,88.6236 60.44,88.9569 60.5,89.5 Z"/></g>
<g><path style="opacity:1" fill="#16122d" d="M 60.5,89.5 C 62.1667,89.5 63.8333,89.5 65.5,89.5C 66.3382,89.8417 66.6716,90.5084 66.5,91.5C 66.5,92.5 66.5,93.5 66.5,94.5C 64.8333,94.5 63.1667,94.5 61.5,94.5C 57.4842,95.5124 53.4842,96.5124 49.5,97.5C 49.5,96.8333 49.5,96.1667 49.5,95.5C 53.651,94.34 57.3177,92.34 60.5,89.5 Z"/></g>
<g><path style="opacity:1" fill="#7f7f8e" d="M 93.5,80.5 C 93.8333,80.5 94.1667,80.5 94.5,80.5C 94.281,81.675 94.6143,82.675 95.5,83.5C 98.595,85.0905 101.262,87.2572 103.5,90C 101.837,90.2649 100.337,89.7649 99,88.5C 98.4032,90.9241 99.2366,92.7575 101.5,94C 98.6456,98.8028 97.3123,98.3028 97.5,92.5C 96.209,92.2627 95.209,92.596 94.5,93.5C 93.609,92.8902 92.609,92.5569 91.5,92.5C 93.1251,89.7844 92.7918,87.4511 90.5,85.5C 91.5,85.5 92.5,85.5 93.5,85.5C 93.5,83.8333 93.5,82.1667 93.5,80.5 Z"/></g>
<g><path style="opacity:1" fill="#83374c" d="M 191.5,87.5 C 192.167,87.5 192.833,87.5 193.5,87.5C 192.859,88.4822 192.193,89.4822 191.5,90.5C 198.652,91.0973 205.652,90.0973 212.5,87.5C 223.046,87.2084 233.379,87.8751 243.5,89.5C 241.833,89.5 240.167,89.5 238.5,89.5C 238.167,89.5 237.833,89.5 237.5,89.5C 234.763,89.4013 232.096,89.7347 229.5,90.5C 219.72,90.0802 210.053,90.9135 200.5,93C 193.542,95.6548 186.542,98.1548 179.5,100.5C 178.127,100.657 176.793,100.49 175.5,100C 180.745,95.6117 186.079,91.445 191.5,87.5 Z"/></g>
<g><path style="opacity:1" fill="#060611" d="M 188.5,86.5 C 188.489,88.0174 187.823,89.1841 186.5,90C 177.787,94.7167 169.621,100.217 162,106.5C 161.409,107.483 161.743,108.15 163,108.5C 168.733,106.102 174.233,103.435 179.5,100.5C 186.542,98.1548 193.542,95.6548 200.5,93C 210.053,90.9135 219.72,90.0802 229.5,90.5C 230.748,92.6491 232.248,94.6491 234,96.5C 234.333,95.8333 234.667,95.1667 235,94.5C 235.273,96.1012 235.773,97.6012 236.5,99C 235.5,99.6667 234.5,99.6667 233.5,99C 230.674,97.517 228.341,95.517 226.5,93C 224.711,92.4795 223.044,92.8129 221.5,94C 222.796,96.8621 224.629,99.3621 227,101.5C 227.69,104.526 228.857,107.359 230.5,110C 230.167,110.5 229.833,111 229.5,111.5C 228.482,110.807 227.482,110.141 226.5,109.5C 223.771,108.611 221.771,106.777 220.5,104C 217.107,103.606 214.94,101.773 214,98.5C 212.533,101.266 210.7,103.766 208.5,106C 207.451,106.492 206.451,106.326 205.5,105.5C 203.448,108.436 201.781,111.603 200.5,115C 200.735,115.873 201.069,116.707 201.5,117.5C 198.07,125.837 196.07,134.503 195.5,143.5C 187.5,143.5 179.5,143.5 171.5,143.5C 168.833,140.167 165.833,137.167 162.5,134.5C 157.528,129.193 152.528,123.86 147.5,118.5C 146.833,117.5 146.167,116.5 145.5,115.5C 145.5,114.167 145.5,112.833 145.5,111.5C 148.863,108.428 152.863,106.594 157.5,106C 159.522,103.672 161.188,101.172 162.5,98.5C 162.833,98.5 163.167,98.5 163.5,98.5C 165.801,97.9396 168.134,97.4396 170.5,97C 176.262,93.0304 182.262,89.5304 188.5,86.5 Z"/></g>
<g><path style="opacity:1" fill="#1e182b" d="M 245.5,86.5 C 249.726,88.06 253.059,90.7267 255.5,94.5C 255.5,95.1667 255.5,95.8333 255.5,96.5C 251.646,93.7851 247.646,91.4518 243.5,89.5C 245.048,89.1788 245.715,88.1788 245.5,86.5 Z"/></g>
<g><path style="opacity:1" fill="#918363" d="M 70.5,80.5 C 70.2291,82.3797 70.8958,83.713 72.5,84.5C 72.5,85.1667 72.5,85.8333 72.5,86.5C 73.1465,88.1561 73.8131,89.8228 74.5,91.5C 74.1822,92.6473 73.5156,93.4806 72.5,94C 74.6157,95.1707 75.2824,96.6707 74.5,98.5C 72.6001,96.3841 70.2668,95.0507 67.5,94.5C 67.7373,93.209 67.404,92.209 66.5,91.5C 66.6716,90.5084 66.3382,89.8417 65.5,89.5C 65.5,87.1667 65.5,84.8333 65.5,82.5C 65.3433,81.1266 65.51,79.7932 66,78.5C 67.1923,80.6502 68.6923,81.3168 70.5,80.5 Z"/></g>
<g><path style="opacity:1" fill="#6e647b" d="M 121.5,96.5 C 120.833,96.5 120.167,96.5 119.5,96.5C 118.167,96.5 116.833,96.5 115.5,96.5C 116.315,95.1634 117.482,94.1634 119,93.5C 119.186,91.0995 119.686,88.7662 120.5,86.5C 121.84,87.6878 122.507,89.1878 122.5,91C 122.057,92.825 121.723,94.6583 121.5,96.5 Z"/></g>
<g><path style="opacity:1" fill="#706263" d="M 91.5,92.5 C 92.609,92.5569 93.609,92.8902 94.5,93.5C 93.3855,96.1771 93.3855,98.8438 94.5,101.5C 95.7362,102.246 97.0695,102.579 98.5,102.5C 98.1667,103.833 97.8333,105.167 97.5,106.5C 96.1667,106.5 94.8333,106.5 93.5,106.5C 93.2865,108.144 93.6198,109.644 94.5,111C 92.5643,111.813 90.5643,112.313 88.5,112.5C 88.5,113.833 88.5,115.167 88.5,116.5C 87.5,116.5 86.5,116.5 85.5,116.5C 85.5,116.167 85.5,115.833 85.5,115.5C 88.0168,113.923 88.0168,112.09 85.5,110C 82.5624,109.288 79.8957,109.788 77.5,111.5C 78.2678,108.438 80.2678,106.772 83.5,106.5C 85.1238,106.64 86.2904,105.973 87,104.5C 88.0113,105.337 89.1779,105.67 90.5,105.5C 89.9118,100.733 87.2451,97.5664 82.5,96C 81.7476,95.3292 81.4142,94.4959 81.5,93.5C 82.5845,91.6814 83.9178,90.0147 85.5,88.5C 86.3857,89.325 86.719,90.325 86.5,91.5C 88.2161,91.6287 89.8828,91.962 91.5,92.5 Z"/></g>
<g><path style="opacity:1" fill="#434f67" d="M 145.5,90.5 C 146.209,89.596 147.209,89.2627 148.5,89.5C 151.059,89.1984 153.393,89.5318 155.5,90.5C 154.294,94.3651 151.627,96.3651 147.5,96.5C 147.833,99.5 146.5,100.833 143.5,100.5C 143.5,99.5 143.5,98.5 143.5,97.5C 142.5,97.5 141.5,97.5 140.5,97.5C 140.5,96.5 140.5,95.5 140.5,94.5C 143.516,94.1594 146.182,92.9927 148.5,91C 147.552,90.5172 146.552,90.3505 145.5,90.5 Z"/></g>
<g><path style="opacity:1" fill="#0f121e" d="M 237.5,89.5 C 236.128,91.3495 236.628,92.6828 239,93.5C 240.949,100.2 242.115,106.867 242.5,113.5C 244.895,112.477 245.895,113.477 245.5,116.5C 248.205,116.38 248.872,117.38 247.5,119.5C 245.257,120.474 242.924,120.808 240.5,120.5C 240.5,119.5 240.5,118.5 240.5,117.5C 233.61,118.591 228.943,115.925 226.5,109.5C 227.482,110.141 228.482,110.807 229.5,111.5C 229.833,111 230.167,110.5 230.5,110C 228.857,107.359 227.69,104.526 227,101.5C 224.629,99.3621 222.796,96.8621 221.5,94C 223.044,92.8129 224.711,92.4795 226.5,93C 228.341,95.517 230.674,97.517 233.5,99C 234.5,99.6667 235.5,99.6667 236.5,99C 235.773,97.6012 235.273,96.1012 235,94.5C 234.667,95.1667 234.333,95.8333 234,96.5C 232.248,94.6491 230.748,92.6491 229.5,90.5C 232.096,89.7347 234.763,89.4013 237.5,89.5 Z"/></g>
<g><path style="opacity:1" fill="#5b7688" d="M 166.5,96.5 C 165.391,96.5569 164.391,96.8902 163.5,97.5C 162.596,96.791 162.263,95.791 162.5,94.5C 164.199,94.3398 165.866,94.5065 167.5,95C 166.944,95.3826 166.611,95.8826 166.5,96.5 Z"/></g>
<g><path style="opacity:1" fill="#2e3351" d="M 145.5,90.5 C 146.552,90.3505 147.552,90.5172 148.5,91C 146.182,92.9927 143.516,94.1594 140.5,94.5C 140.5,95.5 140.5,96.5 140.5,97.5C 141.5,97.5 142.5,97.5 143.5,97.5C 143.5,98.5 143.5,99.5 143.5,100.5C 146.5,100.833 147.833,99.5 147.5,96.5C 151.627,96.3651 154.294,94.3651 155.5,90.5C 157.167,90.5 158.833,90.5 160.5,90.5C 162.102,92.0739 164.102,92.7406 166.5,92.5C 171.745,93.7939 171.745,95.1272 166.5,96.5C 166.611,95.8826 166.944,95.3826 167.5,95C 165.866,94.5065 164.199,94.3398 162.5,94.5C 162.263,95.791 162.596,96.791 163.5,97.5C 163.5,97.8333 163.5,98.1667 163.5,98.5C 163.167,98.5 162.833,98.5 162.5,98.5C 161.596,97.791 161.263,96.791 161.5,95.5C 161.44,94.9569 161.107,94.6236 160.5,94.5C 158.885,95.154 157.218,95.654 155.5,96C 153.95,98.5255 151.783,100.359 149,101.5C 148.51,102.793 148.343,104.127 148.5,105.5C 147.248,107.001 146.248,108.668 145.5,110.5C 143.016,107.808 140.849,104.808 139,101.5C 137.155,98.817 134.655,97.1503 131.5,96.5C 131.863,95.8165 132.196,95.1499 132.5,94.5C 132.5,94.1667 132.5,93.8333 132.5,93.5C 134.262,93.3573 135.929,93.6906 137.5,94.5C 139.952,92.6071 142.619,91.2737 145.5,90.5 Z"/></g>
<g><path style="opacity:1" fill="#6e6a81" d="M 94.5,80.5 C 96.4113,81.075 98.078,82.075 99.5,83.5C 102.007,86.8398 105.007,89.6731 108.5,92C 110.488,92.1805 112.488,92.0138 114.5,91.5C 114.5,89.8333 114.5,88.1667 114.5,86.5C 115.828,87.5072 116.828,88.8405 117.5,90.5C 116.142,92.5032 114.809,94.5032 113.5,96.5C 112.048,97.3019 110.382,97.8019 108.5,98C 107.62,99.3561 107.286,100.856 107.5,102.5C 112.271,103.258 116.271,101.925 119.5,98.5C 119.56,99.0431 119.893,99.3764 120.5,99.5C 123.862,96.357 127.862,94.6903 132.5,94.5C 132.196,95.1499 131.863,95.8165 131.5,96.5C 134.655,97.1503 137.155,98.817 139,101.5C 140.849,104.808 143.016,107.808 145.5,110.5C 145.5,110.833 145.5,111.167 145.5,111.5C 145.5,112.833 145.5,114.167 145.5,115.5C 143.748,112.808 141.415,110.808 138.5,109.5C 138.5,109.167 138.5,108.833 138.5,108.5C 138.5,106.5 138.5,104.5 138.5,102.5C 136.194,102.007 133.861,101.674 131.5,101.5C 131.167,103.5 130.833,105.5 130.5,107.5C 129.833,107.167 129.167,106.833 128.5,106.5C 127.518,105.859 126.518,105.193 125.5,104.5C 124.637,106.771 124.637,109.105 125.5,111.5C 124.081,109.849 122.747,108.016 121.5,106C 119.115,105.444 116.782,105.61 114.5,106.5C 114.423,105.25 113.756,104.417 112.5,104C 109.518,103.502 106.518,103.335 103.5,103.5C 103.5,102.5 103.5,101.5 103.5,100.5C 101.486,100.392 99.8195,101.058 98.5,102.5C 97.0695,102.579 95.7362,102.246 94.5,101.5C 93.3855,98.8438 93.3855,96.1771 94.5,93.5C 95.209,92.596 96.209,92.2627 97.5,92.5C 97.3123,98.3028 98.6456,98.8028 101.5,94C 99.2366,92.7575 98.4032,90.9241 99,88.5C 100.337,89.7649 101.837,90.2649 103.5,90C 101.262,87.2572 98.595,85.0905 95.5,83.5C 94.6143,82.675 94.281,81.675 94.5,80.5 Z"/></g>
<g><path style="opacity:1" fill="#545155" d="M 113.5,96.5 C 114.167,96.5 114.833,96.5 115.5,96.5C 116.833,96.5 118.167,96.5 119.5,96.5C 119.5,97.1667 119.5,97.8333 119.5,98.5C 116.271,101.925 112.271,103.258 107.5,102.5C 107.286,100.856 107.62,99.3561 108.5,98C 110.382,97.8019 112.048,97.3019 113.5,96.5 Z"/></g>
<g><path style="opacity:1" fill="#1c224f" d="M 161.5,95.5 C 158.126,99.8489 153.793,103.182 148.5,105.5C 148.343,104.127 148.51,102.793 149,101.5C 151.783,100.359 153.95,98.5255 155.5,96C 157.218,95.654 158.885,95.154 160.5,94.5C 161.107,94.6236 161.44,94.9569 161.5,95.5 Z"/></g>
<g><path style="opacity:1" fill="#703541" d="M 66.5,91.5 C 67.404,92.209 67.7373,93.209 67.5,94.5C 69.246,98.3267 71.246,101.993 73.5,105.5C 71.3281,106.801 68.9948,107.801 66.5,108.5C 64.9017,104.289 62.5684,100.622 59.5,97.5C 60.1667,96.5 60.8333,95.5 61.5,94.5C 63.1667,94.5 64.8333,94.5 66.5,94.5C 66.5,93.5 66.5,92.5 66.5,91.5 Z"/></g>
<g><path style="opacity:1" fill="#0c0c26" d="M 161.5,95.5 C 161.263,96.791 161.596,97.791 162.5,98.5C 161.188,101.172 159.522,103.672 157.5,106C 152.863,106.594 148.863,108.428 145.5,111.5C 145.5,111.167 145.5,110.833 145.5,110.5C 146.248,108.668 147.248,107.001 148.5,105.5C 153.793,103.182 158.126,99.8489 161.5,95.5 Z"/></g>
<g><path style="opacity:1" fill="#1b264a" d="M 238.5,89.5 C 240.167,89.5 241.833,89.5 243.5,89.5C 247.646,91.4518 251.646,93.7851 255.5,96.5C 255.5,99.8333 255.5,103.167 255.5,106.5C 252.333,106.498 248.999,105.998 245.5,105C 245.167,104.667 244.833,104.333 244.5,104C 245.716,102.26 247.382,101.26 249.5,101C 246.254,96.5911 242.587,92.7578 238.5,89.5 Z"/></g>
<g><path style="opacity:1" fill="#5e4a33" d="M 72.5,86.5 C 74.1868,88.1662 76.1868,89.4995 78.5,90.5C 78.5,93.8333 78.5,97.1667 78.5,100.5C 77.8519,102.086 77.3519,103.753 77,105.5C 75.8545,106.684 74.6879,106.684 73.5,105.5C 71.246,101.993 69.246,98.3267 67.5,94.5C 70.2668,95.0507 72.6001,96.3841 74.5,98.5C 75.2824,96.6707 74.6157,95.1707 72.5,94C 73.5156,93.4806 74.1822,92.6473 74.5,91.5C 73.8131,89.8228 73.1465,88.1561 72.5,86.5 Z"/></g>
<g><path style="opacity:1" fill="#4b3b48" d="M 78.5,90.5 C 79.5,91.5 80.5,92.5 81.5,93.5C 81.4142,94.4959 81.7476,95.3292 82.5,96C 87.2451,97.5664 89.9118,100.733 90.5,105.5C 89.1779,105.67 88.0113,105.337 87,104.5C 86.2904,105.973 85.1238,106.64 83.5,106.5C 84.1105,103.039 82.9439,100.372 80,98.5C 79.7216,99.4158 79.2216,100.082 78.5,100.5C 78.5,97.1667 78.5,93.8333 78.5,90.5 Z"/></g>
<g><path style="opacity:1" fill="#776081" d="M 59.5,97.5 C 62.5684,100.622 64.9017,104.289 66.5,108.5C 67.1495,110.435 67.4828,112.435 67.5,114.5C 66.5416,114.047 65.7083,113.381 65,112.5C 64.8247,117.019 64.3247,121.353 63.5,125.5C 63.5,122.833 63.5,120.167 63.5,117.5C 63.9907,109.821 61.6574,103.154 56.5,97.5C 57.4246,96.4376 58.4246,96.4376 59.5,97.5 Z"/></g>
<g><path style="opacity:1" fill="#625874" d="M 83.5,106.5 C 80.2678,106.772 78.2678,108.438 77.5,111.5C 77.1667,111.5 76.8333,111.5 76.5,111.5C 75.9044,109.255 74.9044,107.255 73.5,105.5C 74.6879,106.684 75.8545,106.684 77,105.5C 77.3519,103.753 77.8519,102.086 78.5,100.5C 79.2216,100.082 79.7216,99.4158 80,98.5C 82.9439,100.372 84.1105,103.039 83.5,106.5 Z"/></g>
<g><path style="opacity:1" fill="#918888" d="M 138.5,108.5 C 136.355,107.011 134.022,106.011 131.5,105.5C 131.754,107.401 131.42,108.067 130.5,107.5C 130.833,105.5 131.167,103.5 131.5,101.5C 133.861,101.674 136.194,102.007 138.5,102.5C 138.5,104.5 138.5,106.5 138.5,108.5 Z"/></g>
<g><path style="opacity:1" fill="#989090" d="M 114.5,106.5 C 115.1,107.9 116.1,108.9 117.5,109.5C 114.321,108.279 110.988,107.279 107.5,106.5C 104.259,106.448 101.259,107.115 98.5,108.5C 99.5254,112.427 100.192,116.427 100.5,120.5C 99.5,120.5 98.5,120.5 97.5,120.5C 97.5,115.833 97.5,111.167 97.5,106.5C 97.8333,105.167 98.1667,103.833 98.5,102.5C 99.8195,101.058 101.486,100.392 103.5,100.5C 103.5,101.5 103.5,102.5 103.5,103.5C 106.518,103.335 109.518,103.502 112.5,104C 113.756,104.417 114.423,105.25 114.5,106.5 Z"/></g>
<g><path style="opacity:1" fill="#dae0e4" d="M 128.5,106.5 C 128.365,109.507 129.365,112.007 131.5,114C 131.472,115.07 131.139,115.903 130.5,116.5C 128.473,115.139 126.806,113.473 125.5,111.5C 124.637,109.105 124.637,106.771 125.5,104.5C 126.518,105.193 127.518,105.859 128.5,106.5 Z"/></g>
<g><path style="opacity:1" fill="#6c293e" d="M 191.5,84.5 C 191.5,85.5 191.5,86.5 191.5,87.5C 186.079,91.445 180.745,95.6117 175.5,100C 176.793,100.49 178.127,100.657 179.5,100.5C 174.233,103.435 168.733,106.102 163,108.5C 161.743,108.15 161.409,107.483 162,106.5C 169.621,100.217 177.787,94.7167 186.5,90C 187.823,89.1841 188.489,88.0174 188.5,86.5C 189.5,85.8333 190.5,85.1667 191.5,84.5 Z"/></g>
<g><path style="opacity:1" fill="#51455e" d="M 125.5,111.5 C 126.806,113.473 128.473,115.139 130.5,116.5C 131.833,118.167 133.167,119.833 134.5,121.5C 131.868,119.887 129.202,118.22 126.5,116.5C 125.787,118.435 124.787,118.768 123.5,117.5C 122.213,114.547 120.213,112.214 117.5,110.5C 117.5,110.167 117.5,109.833 117.5,109.5C 116.1,108.9 115.1,107.9 114.5,106.5C 116.782,105.61 119.115,105.444 121.5,106C 122.747,108.016 124.081,109.849 125.5,111.5 Z"/></g>
<g><path style="opacity:1" fill="#90516e" d="M 73.5,105.5 C 74.9044,107.255 75.9044,109.255 76.5,111.5C 75.0911,113.972 73.4244,116.305 71.5,118.5C 70.5,118.5 69.5,118.5 68.5,118.5C 68.5674,117.041 68.2341,115.708 67.5,114.5C 67.4828,112.435 67.1495,110.435 66.5,108.5C 68.9948,107.801 71.3281,106.801 73.5,105.5 Z"/></g>
<g><path style="opacity:1" fill="#c6c8c5" d="M 117.5,109.5 C 117.5,109.833 117.5,110.167 117.5,110.5C 111.255,112.582 107.755,116.915 107,123.5C 106.329,124.252 105.496,124.586 104.5,124.5C 103.209,124.737 102.209,124.404 101.5,123.5C 101.737,122.209 101.404,121.209 100.5,120.5C 100.192,116.427 99.5254,112.427 98.5,108.5C 101.259,107.115 104.259,106.448 107.5,106.5C 110.988,107.279 114.321,108.279 117.5,109.5 Z"/></g>
<g><path style="opacity:1" fill="#4e4548" d="M 85.5,115.5 C 83.1667,115.5 80.8333,115.5 78.5,115.5C 77.5655,114.432 77.2322,113.099 77.5,111.5C 79.8957,109.788 82.5624,109.288 85.5,110C 88.0168,112.09 88.0168,113.923 85.5,115.5 Z"/></g>
<g><path style="opacity:1" fill="#151928" d="M 237.5,89.5 C 237.833,89.5 238.167,89.5 238.5,89.5C 242.587,92.7578 246.254,96.5911 249.5,101C 247.382,101.26 245.716,102.26 244.5,104C 244.833,104.333 245.167,104.667 245.5,105C 248.999,105.998 252.333,106.498 255.5,106.5C 255.5,112.167 255.5,117.833 255.5,123.5C 253.574,122.758 251.741,121.758 250,120.5C 248.421,122.041 246.587,123.208 244.5,124C 245.86,125.938 245.527,127.604 243.5,129C 240.839,128.402 238.173,128.568 235.5,129.5C 232.985,132.255 229.985,134.255 226.5,135.5C 222.772,136.724 219.272,136.724 216,135.5C 213.825,131.755 211.158,130.422 208,131.5C 204.656,116.382 210.823,109.049 226.5,109.5C 228.943,115.925 233.61,118.591 240.5,117.5C 240.5,118.5 240.5,119.5 240.5,120.5C 242.924,120.808 245.257,120.474 247.5,119.5C 248.872,117.38 248.205,116.38 245.5,116.5C 245.895,113.477 244.895,112.477 242.5,113.5C 242.115,106.867 240.949,100.2 239,93.5C 236.628,92.6828 236.128,91.3495 237.5,89.5 Z"/></g>
<g><path style="opacity:1" fill="#b5a798" d="M 138.5,108.5 C 138.5,108.833 138.5,109.167 138.5,109.5C 137.903,109.735 137.57,110.235 137.5,111C 138.831,113.731 140.164,116.398 141.5,119C 140.584,119.374 139.75,119.874 139,120.5C 139.077,121.738 138.911,122.738 138.5,123.5C 137.378,122.37 136.044,121.703 134.5,121.5C 133.167,119.833 131.833,118.167 130.5,116.5C 131.139,115.903 131.472,115.07 131.5,114C 129.365,112.007 128.365,109.507 128.5,106.5C 129.167,106.833 129.833,107.167 130.5,107.5C 131.42,108.067 131.754,107.401 131.5,105.5C 134.022,106.011 136.355,107.011 138.5,108.5 Z"/></g>
<g><path style="opacity:1" fill="#8c766d" d="M 97.5,106.5 C 97.5,111.167 97.5,115.833 97.5,120.5C 98.5,120.5 99.5,120.5 100.5,120.5C 101.404,121.209 101.737,122.209 101.5,123.5C 100.141,124.007 99.1411,125.007 98.5,126.5C 97.8165,126.137 97.1499,125.804 96.5,125.5C 95.0552,123.937 93.3885,122.604 91.5,121.5C 90.7377,119.738 89.4044,118.738 87.5,118.5C 86.5,118.167 85.8333,117.5 85.5,116.5C 86.5,116.5 87.5,116.5 88.5,116.5C 88.5,115.167 88.5,113.833 88.5,112.5C 90.5643,112.313 92.5643,111.813 94.5,111C 93.6198,109.644 93.2865,108.144 93.5,106.5C 94.8333,106.5 96.1667,106.5 97.5,106.5 Z"/></g>
<g><path style="opacity:1" fill="#06090e" d="M 59.5,134.5 C 57.6469,137.208 56.6469,140.208 56.5,143.5C 37.5,143.5 18.5,143.5 -0.5,143.5C -0.5,129.833 -0.5,116.167 -0.5,102.5C 0.794229,101.71 1.9609,100.71 3,99.5C 3.61723,100.449 3.45057,101.282 2.5,102C 3.93081,102.465 5.09748,103.299 6,104.5C 7.43338,112.813 12.2667,118.813 20.5,122.5C 21.7481,121.96 22.9148,121.293 24,120.5C 24.3333,121.5 24.6667,122.5 25,123.5C 29.1565,126.168 33.6565,128.168 38.5,129.5C 39.1924,128.975 39.6924,128.308 40,127.5C 40.6995,129.032 41.8662,130.032 43.5,130.5C 44.9647,129.391 45.9647,129.891 46.5,132C 48.5,132.5 50.5,133 52.5,133.5C 54.8113,132.546 56.978,132.212 59,132.5C 59.4643,133.094 59.631,133.761 59.5,134.5 Z"/></g>
<g><path style="opacity:1" fill="#5f576b" d="M 78.5,115.5 C 80.8333,115.5 83.1667,115.5 85.5,115.5C 85.5,115.833 85.5,116.167 85.5,116.5C 85.8333,117.5 86.5,118.167 87.5,118.5C 85.369,119.314 83.0356,119.814 80.5,120C 82.6288,125.073 84.9622,130.073 87.5,135C 87.0704,135.965 86.4037,136.465 85.5,136.5C 84.5309,134.337 83.6976,132.004 83,129.5C 82.5357,130.094 82.369,130.761 82.5,131.5C 81.5095,128.257 80.5095,124.924 79.5,121.5C 79.3713,119.784 79.038,118.117 78.5,116.5C 78.5,116.167 78.5,115.833 78.5,115.5 Z"/></g>
<g><path style="opacity:1" fill="#555a7c" d="M 117.5,110.5 C 120.213,112.214 122.213,114.547 123.5,117.5C 123.631,118.376 123.298,119.043 122.5,119.5C 121.935,117.49 120.935,115.824 119.5,114.5C 118.451,116.216 117.118,117.549 115.5,118.5C 112.677,119.992 111.01,122.326 110.5,125.5C 108.612,126.275 106.612,126.275 104.5,125.5C 104.5,125.167 104.5,124.833 104.5,124.5C 105.496,124.586 106.329,124.252 107,123.5C 107.755,116.915 111.255,112.582 117.5,110.5 Z"/></g>
<g><path style="opacity:1" fill="#9b8978" d="M 138.5,109.5 C 141.415,110.808 143.748,112.808 145.5,115.5C 146.167,116.5 146.833,117.5 147.5,118.5C 149.319,122.8 151.319,126.966 153.5,131C 150.206,130.635 146.873,130.135 143.5,129.5C 143.027,128.094 142.027,127.427 140.5,127.5C 138.5,125.5 136.5,123.5 134.5,121.5C 136.044,121.703 137.378,122.37 138.5,123.5C 138.911,122.738 139.077,121.738 139,120.5C 139.75,119.874 140.584,119.374 141.5,119C 140.164,116.398 138.831,113.731 137.5,111C 137.57,110.235 137.903,109.735 138.5,109.5 Z"/></g>
<g><path style="opacity:1" fill="#202330" d="M 224.5,117.5 C 235.951,117.236 238.284,121.736 231.5,131C 227.327,131.831 223.827,130.665 221,127.5C 220.716,129.886 219.716,130.552 218,129.5C 217.443,127.385 216.609,125.385 215.5,123.5C 216,122.5 216.5,121.5 217,120.5C 219.672,119.718 222.172,118.718 224.5,117.5 Z"/></g>
<g><path style="opacity:1" fill="#322c4a" d="M 76.5,111.5 C 76.8333,111.5 77.1667,111.5 77.5,111.5C 77.2322,113.099 77.5655,114.432 78.5,115.5C 78.5,115.833 78.5,116.167 78.5,116.5C 77.325,116.281 76.325,116.614 75.5,117.5C 74.2202,121.083 72.2202,124.083 69.5,126.5C 69.1072,123.487 69.7739,120.82 71.5,118.5C 73.4244,116.305 75.0911,113.972 76.5,111.5 Z"/></g>
<g><path style="opacity:1" fill="#14121e" d="M 78.5,116.5 C 79.038,118.117 79.3713,119.784 79.5,121.5C 76.2364,122.927 73.7364,125.261 72,128.5C 69.7438,133.899 66.9105,138.899 63.5,143.5C 61.8333,143.5 60.1667,143.5 58.5,143.5C 61.9395,138.957 64.6061,133.957 66.5,128.5C 67.6016,127.824 68.6016,127.158 69.5,126.5C 72.2202,124.083 74.2202,121.083 75.5,117.5C 76.325,116.614 77.325,116.281 78.5,116.5 Z"/></g>
<g><path style="opacity:1" fill="#1f1b2b" d="M 123.5,117.5 C 124.787,118.768 125.787,118.435 126.5,116.5C 129.202,118.22 131.868,119.887 134.5,121.5C 136.5,123.5 138.5,125.5 140.5,127.5C 137.477,126.572 134.643,125.238 132,123.5C 128.045,124.232 124.378,125.565 121,127.5C 120.601,127.272 120.435,126.938 120.5,126.5C 120.662,124.473 120.495,122.473 120,120.5C 119.617,119.944 119.117,119.611 118.5,119.5C 117.791,118.596 116.791,118.263 115.5,118.5C 117.118,117.549 118.451,116.216 119.5,114.5C 120.935,115.824 121.935,117.49 122.5,119.5C 123.298,119.043 123.631,118.376 123.5,117.5 Z"/></g>
<g><path style="opacity:1" fill="#433325" d="M 118.5,119.5 C 119.117,119.611 119.617,119.944 120,120.5C 120.495,122.473 120.662,124.473 120.5,126.5C 119.833,127.167 119.167,127.833 118.5,128.5C 118.5,125.5 118.5,122.5 118.5,119.5 Z"/></g>
<g><path style="opacity:1" fill="#877554" d="M 115.5,118.5 C 116.791,118.263 117.791,118.596 118.5,119.5C 118.5,122.5 118.5,125.5 118.5,128.5C 117.746,133.463 117.413,138.463 117.5,143.5C 117.167,143.5 116.833,143.5 116.5,143.5C 116.829,137.463 116.496,131.463 115.5,125.5C 114.349,130.167 114.349,134.834 115.5,139.5C 112.276,135.503 110.61,130.836 110.5,125.5C 111.01,122.326 112.677,119.992 115.5,118.5 Z"/></g>
<g><path style="opacity:1" fill="#73729b" d="M 67.5,114.5 C 68.2341,115.708 68.5674,117.041 68.5,118.5C 69.5,118.5 70.5,118.5 71.5,118.5C 69.7739,120.82 69.1072,123.487 69.5,126.5C 68.6016,127.158 67.6016,127.824 66.5,128.5C 64.6061,133.957 61.9395,138.957 58.5,143.5C 57.8333,143.5 57.1667,143.5 56.5,143.5C 56.6469,140.208 57.6469,137.208 59.5,134.5C 61.8744,132.066 63.2078,129.066 63.5,125.5C 64.3247,121.353 64.8247,117.019 65,112.5C 65.7083,113.381 66.5416,114.047 67.5,114.5 Z"/></g>
<g><path style="opacity:1" fill="#504f74" d="M 91.5,121.5 C 93.3885,122.604 95.0552,123.937 96.5,125.5C 96.1788,127.048 95.1788,127.715 93.5,127.5C 93.1667,127.5 92.8333,127.5 92.5,127.5C 91.4324,126.566 90.099,126.232 88.5,126.5C 88.5,124.833 88.5,123.167 88.5,121.5C 89.5,121.5 90.5,121.5 91.5,121.5 Z"/></g>
<g><path style="opacity:1" fill="#272439" d="M 101.5,123.5 C 102.209,124.404 103.209,124.737 104.5,124.5C 104.5,124.833 104.5,125.167 104.5,125.5C 103.5,125.5 102.5,125.5 101.5,125.5C 100.691,127.292 100.191,129.292 100,131.5C 97.6857,130.267 95.5191,128.933 93.5,127.5C 95.1788,127.715 96.1788,127.048 96.5,125.5C 97.1499,125.804 97.8165,126.137 98.5,126.5C 99.1411,125.007 100.141,124.007 101.5,123.5 Z"/></g>
<g><path style="opacity:1" fill="#111220" d="M 226.5,109.5 C 210.823,109.049 204.656,116.382 208,131.5C 211.158,130.422 213.825,131.755 216,135.5C 219.272,136.724 222.772,136.724 226.5,135.5C 225.003,136.306 223.336,136.972 221.5,137.5C 220.858,140.797 219.691,141.131 218,138.5C 216.887,139.711 215.72,139.711 214.5,138.5C 213.029,139.381 212.196,140.714 212,142.5C 211.221,141.272 210.221,140.272 209,139.5C 206.385,140.75 203.885,142.083 201.5,143.5C 199.5,143.5 197.5,143.5 195.5,143.5C 196.07,134.503 198.07,125.837 201.5,117.5C 201.069,116.707 200.735,115.873 200.5,115C 201.781,111.603 203.448,108.436 205.5,105.5C 206.451,106.326 207.451,106.492 208.5,106C 210.7,103.766 212.533,101.266 214,98.5C 214.94,101.773 217.107,103.606 220.5,104C 221.771,106.777 223.771,108.611 226.5,109.5 Z"/></g>
<g><path style="opacity:1" fill="#4e4050" d="M 87.5,118.5 C 89.4044,118.738 90.7377,119.738 91.5,121.5C 90.5,121.5 89.5,121.5 88.5,121.5C 88.5,123.167 88.5,124.833 88.5,126.5C 90.099,126.232 91.4324,126.566 92.5,127.5C 92.1667,127.5 91.8333,127.5 91.5,127.5C 90.5,127.5 89.5,127.5 88.5,127.5C 88.5,132.833 88.5,138.167 88.5,143.5C 87.5,143.5 86.5,143.5 85.5,143.5C 85.5,141.167 85.5,138.833 85.5,136.5C 86.4037,136.465 87.0704,135.965 87.5,135C 84.9622,130.073 82.6288,125.073 80.5,120C 83.0356,119.814 85.369,119.314 87.5,118.5 Z"/></g>
<g><path style="opacity:1" fill="#8a7553" d="M 101.5,125.5 C 102.5,125.5 103.5,125.5 104.5,125.5C 104.833,126.167 105.167,126.833 105.5,127.5C 104.527,129.948 104.194,132.615 104.5,135.5C 103.21,134.942 102.377,133.942 102,132.5C 101.503,130.19 101.337,127.857 101.5,125.5 Z"/></g>
<g><path style="opacity:1" fill="#bbb496" d="M 116.5,143.5 C 116.167,143.5 115.833,143.5 115.5,143.5C 115.5,142.167 115.5,140.833 115.5,139.5C 114.349,134.834 114.349,130.167 115.5,125.5C 116.496,131.463 116.829,137.463 116.5,143.5 Z"/></g>
<g><path style="opacity:1" fill="#06050c" d="M 140.5,127.5 C 142.027,127.427 143.027,128.094 143.5,129.5C 147.535,132.857 151.868,135.857 156.5,138.5C 158.5,140.167 160.5,141.833 162.5,143.5C 147.5,143.5 132.5,143.5 117.5,143.5C 117.413,138.463 117.746,133.463 118.5,128.5C 119.167,127.833 119.833,127.167 120.5,126.5C 120.435,126.938 120.601,127.272 121,127.5C 124.378,125.565 128.045,124.232 132,123.5C 134.643,125.238 137.477,126.572 140.5,127.5 Z"/></g>
<g><path style="opacity:1" fill="#0e121c" d="M 255.5,123.5 C 255.5,130.167 255.5,136.833 255.5,143.5C 237.5,143.5 219.5,143.5 201.5,143.5C 203.885,142.083 206.385,140.75 209,139.5C 210.221,140.272 211.221,141.272 212,142.5C 212.196,140.714 213.029,139.381 214.5,138.5C 215.72,139.711 216.887,139.711 218,138.5C 219.691,141.131 220.858,140.797 221.5,137.5C 223.336,136.972 225.003,136.306 226.5,135.5C 229.985,134.255 232.985,132.255 235.5,129.5C 238.173,128.568 240.839,128.402 243.5,129C 245.527,127.604 245.86,125.938 244.5,124C 246.587,123.208 248.421,122.041 250,120.5C 251.741,121.758 253.574,122.758 255.5,123.5 Z"/></g>
<g><path style="opacity:1" fill="#171215" d="M 91.5,127.5 C 91.2053,129.735 91.5386,131.735 92.5,133.5C 92.9205,137.007 93.9205,140.341 95.5,143.5C 93.1667,143.5 90.8333,143.5 88.5,143.5C 88.5,138.167 88.5,132.833 88.5,127.5C 89.5,127.5 90.5,127.5 91.5,127.5 Z"/></g>
<g><path style="opacity:1" fill="#8eb6c4" d="M 85.5,136.5 C 85.5,138.833 85.5,141.167 85.5,143.5C 85.1667,143.5 84.8333,143.5 84.5,143.5C 83.8902,142.609 83.5569,141.609 83.5,140.5C 83.4921,137.455 83.1587,134.455 82.5,131.5C 82.369,130.761 82.5357,130.094 83,129.5C 83.6976,132.004 84.5309,134.337 85.5,136.5 Z"/></g>
<g><path style="opacity:1" fill="#6d5a40" d="M 101.5,125.5 C 101.337,127.857 101.503,130.19 102,132.5C 102.377,133.942 103.21,134.942 104.5,135.5C 104.56,136.043 104.893,136.376 105.5,136.5C 108.019,133.545 108.019,130.545 105.5,127.5C 107.017,127.511 108.184,128.177 109,129.5C 109.61,133.236 109.277,136.903 108,140.5C 106.304,137.342 104.471,137.008 102.5,139.5C 100.094,137.4 98.4272,134.734 97.5,131.5C 96.4016,132.615 95.2349,132.615 94,131.5C 92.9701,131.836 92.4701,132.503 92.5,133.5C 91.5386,131.735 91.2053,129.735 91.5,127.5C 91.8333,127.5 92.1667,127.5 92.5,127.5C 92.8333,127.5 93.1667,127.5 93.5,127.5C 95.5191,128.933 97.6857,130.267 100,131.5C 100.191,129.292 100.691,127.292 101.5,125.5 Z"/></g>
<g><path style="opacity:1" fill="#aea691" d="M 105.5,127.5 C 108.019,130.545 108.019,133.545 105.5,136.5C 104.893,136.376 104.56,136.043 104.5,135.5C 104.194,132.615 104.527,129.948 105.5,127.5 Z"/></g>
<g><path style="opacity:1" fill="#111017" d="M 104.5,125.5 C 106.612,126.275 108.612,126.275 110.5,125.5C 110.61,130.836 112.276,135.503 115.5,139.5C 115.5,140.833 115.5,142.167 115.5,143.5C 111.167,143.5 106.833,143.5 102.5,143.5C 102.5,142.167 102.5,140.833 102.5,139.5C 104.471,137.008 106.304,137.342 108,140.5C 109.277,136.903 109.61,133.236 109,129.5C 108.184,128.177 107.017,127.511 105.5,127.5C 105.167,126.833 104.833,126.167 104.5,125.5 Z"/></g>
<g><path style="opacity:1" fill="#604837" d="M 147.5,118.5 C 152.528,123.86 157.528,129.193 162.5,134.5C 161.946,138.428 159.946,139.761 156.5,138.5C 151.868,135.857 147.535,132.857 143.5,129.5C 146.873,130.135 150.206,130.635 153.5,131C 151.319,126.966 149.319,122.8 147.5,118.5 Z"/></g>
<g><path style="opacity:1" fill="#55212a" d="M 79.5,121.5 C 80.5095,124.924 81.5095,128.257 82.5,131.5C 83.1587,134.455 83.4921,137.455 83.5,140.5C 80.6538,140.552 78.3204,141.552 76.5,143.5C 72.1667,143.5 67.8333,143.5 63.5,143.5C 66.9105,138.899 69.7438,133.899 72,128.5C 73.7364,125.261 76.2364,122.927 79.5,121.5 Z"/></g>
<g><path style="opacity:1" fill="#a2916b" d="M 102.5,139.5 C 102.5,140.833 102.5,142.167 102.5,143.5C 101.5,143.5 100.5,143.5 99.5,143.5C 99.7361,140.774 98.9028,138.441 97,136.5C 96.6664,138.847 96.833,141.181 97.5,143.5C 96.8333,143.5 96.1667,143.5 95.5,143.5C 93.9205,140.341 92.9205,137.007 92.5,133.5C 92.4701,132.503 92.9701,131.836 94,131.5C 95.2349,132.615 96.4016,132.615 97.5,131.5C 98.4272,134.734 100.094,137.4 102.5,139.5 Z"/></g>
<g><path style="opacity:1" fill="#cadac6" d="M 99.5,143.5 C 98.8333,143.5 98.1667,143.5 97.5,143.5C 96.833,141.181 96.6664,138.847 97,136.5C 98.9028,138.441 99.7361,140.774 99.5,143.5 Z"/></g>
<g><path style="opacity:1" fill="#3a2a23" d="M 162.5,134.5 C 165.833,137.167 168.833,140.167 171.5,143.5C 168.5,143.5 165.5,143.5 162.5,143.5C 160.5,141.833 158.5,140.167 156.5,138.5C 159.946,139.761 161.946,138.428 162.5,134.5 Z"/></g>
<g><path style="opacity:1" fill="#19192a" d="M 83.5,140.5 C 83.5569,141.609 83.8902,142.609 84.5,143.5C 81.8333,143.5 79.1667,143.5 76.5,143.5C 78.3204,141.552 80.6538,140.552 83.5,140.5 Z"/></g>
</svg>
