<?xml version="1.0" encoding="UTF-8"?>
<!DOCTYPE svg PUBLIC "-//W3C//DTD SVG 1.1//EN" "http://www.w3.org/Graphics/SVG/1.1/DTD/svg11.dtd">
<svg xmlns="http://www.w3.org/2000/svg" version="1.1" width="256px" height="144px" style="shape-rendering:geometricPrecision; text-rendering:geometricPrecision; image-rendering:optimizeQuality; fill-rule:evenodd; clip-rule:evenodd" xmlns:xlink="http://www.w3.org/1999/xlink">
<g><path style="opacity:1" fill="#7a6646" d="M 81.5,-0.5 C 88.1667,-0.5 94.8333,-0.5 101.5,-0.5C 104.969,3.47025 108.636,7.30358 112.5,11C 111.833,11.1667 111.167,11.3333 110.5,11.5C 104.888,9.69535 99.8878,6.86202 95.5,3C 92.7787,2.43185 90.112,2.09851 87.5,2C 93.3747,6.43805 99.708,10.1047 106.5,13C 103.543,13.2794 100.877,14.1127 98.5,15.5C 96.7085,15.634 95.0418,15.3007 93.5,14.5C 87.7645,11.9825 82.0979,9.31588 76.5,6.5C 77.5,5.16667 78.5,3.83333 79.5,2.5C 84.4195,8.60656 90.7529,11.7732 98.5,12C 93.3174,8.66621 87.9841,5.49954 82.5,2.5C 81.6143,1.67504 81.281,0.675044 81.5,-0.5 Z"/></g>
<g><path style="opacity:1" fill="#4a6695" d="M 180.5,-0.5 C 191.5,-0.5 202.5,-0.5 213.5,-0.5C 214.574,0.884606 215.907,2.05127 217.5,3C 215.5,3.33333 213.5,3.66667 211.5,4C 210.874,4.75044 210.374,5.58377 210,6.5C 208.612,5.44636 207.112,5.27969 205.5,6C 207.715,7.0438 210.048,7.71047 212.5,8C 214.027,9.03191 215.36,10.1986 216.5,11.5C 205.778,11.8746 195.111,11.3746 184.5,10C 183.601,8.34839 182.601,6.84839 181.5,5.5C 181.167,3.5 180.833,1.5 180.5,-0.5 Z"/></g>
<g><path style="opacity:1" fill="#405979" d="M 245.5,-0.5 C 248.833,-0.5 252.167,-0.5 255.5,-0.5C 255.5,10.8333 255.5,22.1667 255.5,33.5C 252.695,39.389 249.528,45.7223 246,52.5C 244.269,57.8597 242.436,63.193 240.5,68.5C 239.228,73.3215 236.561,77.6549 232.5,81.5C 226.5,81.5 220.5,81.5 214.5,81.5C 219.142,78.6087 224.142,76.2753 229.5,74.5C 231.903,72.695 233.57,70.3616 234.5,67.5C 235.376,66.7492 236.376,66.2492 237.5,66C 237.167,65.6667 236.833,65.3333 236.5,65C 241.288,56.0292 246.121,46.5292 251,36.5C 252.013,31.6633 252.846,26.83 253.5,22C 249.921,18.2964 246.921,13.6297 244.5,8C 244.286,5.27093 244.619,2.43759 245.5,-0.5 Z"/></g>
<g><path style="opacity:1" fill="#a6844b" d="M 144.5,-0.5 C 147.5,-0.5 150.5,-0.5 153.5,-0.5C 153.63,4.35087 152.796,9.01753 151,13.5C 149.55,10.9919 148.383,8.3252 147.5,5.5C 147.043,4.70245 146.376,4.36912 145.5,4.5C 145.371,2.7839 145.038,1.11723 144.5,-0.5 Z"/></g>
<g><path style="opacity:1" fill="#927140" d="M 136.5,-0.5 C 138.5,-0.5 140.5,-0.5 142.5,-0.5C 144.344,6.7066 145.344,14.0399 145.5,21.5C 144.272,20.6935 143.272,19.6935 142.5,18.5C 142.5,18.1667 142.5,17.8333 142.5,17.5C 142.496,12.8429 140.996,8.84295 138,5.5C 137.495,3.48174 136.995,1.48174 136.5,-0.5 Z"/></g>
<g><path style="opacity:1" fill="#947547" d="M 117.5,-0.5 C 122.833,-0.5 128.167,-0.5 133.5,-0.5C 134.654,2.47883 135.82,5.47883 137,8.5C 137.667,10.5 137.667,12.5 137,14.5C 134.221,10.8732 132.054,6.87315 130.5,2.5C 129.914,2.70931 129.414,3.04265 129,3.5C 128.667,5.83333 128.333,8.16667 128,10.5C 126.951,8.89339 125.451,8.22672 123.5,8.5C 120.723,6.04947 118.723,3.04947 117.5,-0.5 Z"/></g>
<g><path style="opacity:1" fill="#4d6c98" d="M 181.5,5.5 C 182.601,6.84839 183.601,8.34839 184.5,10C 195.111,11.3746 205.778,11.8746 216.5,11.5C 224.655,16.4484 229.322,23.7817 230.5,33.5C 229.078,38.7522 226.578,43.4189 223,47.5C 219.535,49.9626 216.369,52.7959 213.5,56C 214.549,56.4922 215.549,56.3256 216.5,55.5C 217.308,55.8076 217.975,56.3076 218.5,57C 215.158,60.6742 211.492,64.0075 207.5,67C 208.056,67.3826 208.389,67.8826 208.5,68.5C 205.279,70.7428 201.779,71.4094 198,70.5C 196.43,71.614 195.097,72.9474 194,74.5C 190.762,74.4929 188.262,76.1595 186.5,79.5C 184.658,81.0337 183.325,80.7003 182.5,78.5C 183.253,76.2466 184.586,74.4133 186.5,73C 185.944,72.6174 185.611,72.1174 185.5,71.5C 188.762,69.0753 190.262,65.7419 190,61.5C 192.273,58.196 195.439,56.696 199.5,57C 210.817,53.0206 219.817,46.0206 226.5,36C 224.089,29.2542 219.589,24.4209 213,21.5C 212.601,21.7284 212.435,22.0618 212.5,22.5C 210.352,22.6106 210.019,21.944 211.5,20.5C 209.376,19.8506 207.376,19.0173 205.5,18C 199.384,16.1657 193.051,15.1657 186.5,15C 182.999,12.915 181.332,9.74833 181.5,5.5 Z"/></g>
<g><path style="opacity:1" fill="#846a42" d="M 106.5,-0.5 C 109.167,-0.5 111.833,-0.5 114.5,-0.5C 115.665,2.69335 117.331,5.69335 119.5,8.5C 119.167,8.83333 118.833,9.16667 118.5,9.5C 117.5,8.83333 116.5,8.16667 115.5,7.5C 115.213,8.20027 114.88,8.86694 114.5,9.5C 110.874,6.90522 108.208,3.57188 106.5,-0.5 Z"/></g>
<g><path style="opacity:1" fill="#f6f5f1" d="M 170.5,-0.5 C 172.167,-0.5 173.833,-0.5 175.5,-0.5C 176.038,1.11723 176.371,2.7839 176.5,4.5C 176.908,9.67871 175.575,14.3454 172.5,18.5C 169.991,19.9213 167.657,21.5879 165.5,23.5C 165.5,22.5 165.5,21.5 165.5,20.5C 171.565,16.0372 174.732,10.0372 175,2.5C 169.579,9.40299 168.079,8.40299 170.5,-0.5 Z"/></g>
<g><path style="opacity:1" fill="#5b4d33" d="M -0.5,-0.5 C 8.5,-0.5 17.5,-0.5 26.5,-0.5C 29.2496,2.43147 31.9163,5.59813 34.5,9C 32.4741,8.53746 30.4741,7.70413 28.5,6.5C 24.8621,7.18209 21.1954,7.68209 17.5,8C 16.5842,8.27842 15.9175,8.77842 15.5,9.5C 14.8826,9.61071 14.3826,9.94404 14,10.5C 13.5045,12.4727 13.3379,14.4727 13.5,16.5C 16.5701,16.6323 19.5701,16.299 22.5,15.5C 27.185,14.166 31.685,12.4994 36,10.5C 38.9122,13.5445 42.4122,14.7111 46.5,14C 43.9242,13.2178 41.9242,11.7178 40.5,9.5C 43.3749,8.91898 46.0415,7.91898 48.5,6.5C 46.4253,4.10251 44.4253,1.76917 42.5,-0.5C 49.1667,-0.5 55.8333,-0.5 62.5,-0.5C 61.6521,1.09307 60.3187,2.25974 58.5,3C 60.6785,3.44185 61.3452,4.44185 60.5,6C 56.5971,6.45636 53.5971,8.2897 51.5,11.5C 50.2713,12.2811 48.938,12.7811 47.5,13C 48.3366,14.0113 48.67,15.1779 48.5,16.5C 45.9407,16.1984 43.6074,16.5318 41.5,17.5C 38.9339,17.6556 36.4339,17.3223 34,16.5C 29.2894,17.6051 24.7894,18.9385 20.5,20.5C 18.4471,20.4021 16.7804,21.0687 15.5,22.5C 14.8333,22.5 14.1667,22.5 13.5,22.5C 12.7611,22.631 12.0944,22.4643 11.5,22C 12.7472,20.5064 12.7472,19.0064 11.5,17.5C 10.8165,17.8627 10.1499,18.1961 9.5,18.5C 10.4475,14.1368 11.9475,10.1368 14,6.5C 13.221,5.27181 12.221,4.27181 11,3.5C 8.70172,4.96111 6.53505,6.62778 4.5,8.5C 3.58317,7.87277 2.58317,7.53944 1.5,7.5C 0.833333,7.5 0.166667,7.5 -0.5,7.5C -0.5,4.83333 -0.5,2.16667 -0.5,-0.5 Z"/></g>
<g><path style="opacity:1" fill="#6f6144" d="M 26.5,-0.5 C 31.8333,-0.5 37.1667,-0.5 42.5,-0.5C 44.4253,1.76917 46.4253,4.10251 48.5,6.5C 46.0415,7.91898 43.3749,8.91898 40.5,9.5C 41.9242,11.7178 43.9242,13.2178 46.5,14C 42.4122,14.7111 38.9122,13.5445 36,10.5C 31.685,12.4994 27.185,14.166 22.5,15.5C 22.67,14.1779 22.3366,13.0113 21.5,12C 19.8309,10.331 17.8309,9.49766 15.5,9.5C 15.9175,8.77842 16.5842,8.27842 17.5,8C 21.1954,7.68209 24.8621,7.18209 28.5,6.5C 30.4741,7.70413 32.4741,8.53746 34.5,9C 31.9163,5.59813 29.2496,2.43147 26.5,-0.5 Z"/></g>
<g><path style="opacity:1" fill="#4e3d25" d="M 80.5,-0.5 C 80.8333,-0.5 81.1667,-0.5 81.5,-0.5C 81.281,0.675044 81.6143,1.67504 82.5,2.5C 87.9841,5.49954 93.3174,8.66621 98.5,12C 90.7529,11.7732 84.4195,8.60656 79.5,2.5C 80.1098,1.60895 80.4431,0.608953 80.5,-0.5 Z"/></g>
<g><path style="opacity:1" fill="#684d2a" d="M 133.5,-0.5 C 134.5,-0.5 135.5,-0.5 136.5,-0.5C 136.995,1.48174 137.495,3.48174 138,5.5C 140.996,8.84295 142.496,12.8429 142.5,17.5C 141.883,17.3893 141.383,17.056 141,16.5C 140.667,18.8333 140.333,21.1667 140,23.5C 138.5,21.3333 137,19.1667 135.5,17C 131.341,14.3329 127.341,11.4996 123.5,8.5C 125.451,8.22672 126.951,8.89339 128,10.5C 128.333,8.16667 128.667,5.83333 129,3.5C 129.414,3.04265 129.914,2.70931 130.5,2.5C 132.054,6.87315 134.221,10.8732 137,14.5C 137.667,12.5 137.667,10.5 137,8.5C 135.82,5.47883 134.654,2.47883 133.5,-0.5 Z"/></g>
<g><path style="opacity:1" fill="#917d61" d="M 9.5,18.5 C 8.69766,17.4973 7.86433,15.8306 7,13.5C 5.62879,15.0414 4.12879,16.3747 2.5,17.5C 1.67577,14.2356 1.34243,10.9023 1.5,7.5C 2.58317,7.53944 3.58317,7.87277 4.5,8.5C 6.53505,6.62778 8.70172,4.96111 11,3.5C 12.221,4.27181 13.221,5.27181 14,6.5C 11.9475,10.1368 10.4475,14.1368 9.5,18.5 Z"/></g>
<g><path style="opacity:1" fill="#241c11" d="M 77.5,-0.5 C 78.5,-0.5 79.5,-0.5 80.5,-0.5C 80.4431,0.608953 80.1098,1.60895 79.5,2.5C 78.5,3.83333 77.5,5.16667 76.5,6.5C 75.2905,6.93205 74.2905,7.59872 73.5,8.5C 71.6535,10.0301 70.6535,12.0301 70.5,14.5C 68.6336,13.9862 66.8003,13.3195 65,12.5C 64.5,12.8333 64,13.1667 63.5,13.5C 62.8333,16.1667 62.1667,18.8333 61.5,21.5C 63.5302,23.607 65.6969,25.607 68,27.5C 68.7914,28.745 69.2914,30.0783 69.5,31.5C 65.7093,28.8819 62.0426,26.0486 58.5,23C 54.1451,21.4855 49.8117,19.9855 45.5,18.5C 49.2984,17.5166 53.2984,17.1832 57.5,17.5C 57.8258,15.3393 58.8258,13.5059 60.5,12C 64.8227,9.0041 69.4894,6.83743 74.5,5.5C 76.415,3.92878 77.415,1.92878 77.5,-0.5 Z"/></g>
<g><path style="opacity:1" fill="#7d725d" d="M 73.5,8.5 C 77.7905,10.7904 81.1238,14.1237 83.5,18.5C 83.1667,18.8333 82.8333,19.1667 82.5,19.5C 80.5,18.1667 78.5,16.8333 76.5,15.5C 75.5832,16.1272 74.5832,16.4606 73.5,16.5C 71.8212,16.7148 70.8212,16.0481 70.5,14.5C 70.6535,12.0301 71.6535,10.0301 73.5,8.5 Z"/></g>
<g><path style="opacity:1" fill="#3b2a16" d="M 101.5,-0.5 C 103.167,-0.5 104.833,-0.5 106.5,-0.5C 108.208,3.57188 110.874,6.90522 114.5,9.5C 115.29,10.7942 116.29,11.9609 117.5,13C 122.38,15.6067 127.38,17.94 132.5,20C 133.386,21.6147 134.386,23.1147 135.5,24.5C 135.167,24.5 134.833,24.5 134.5,24.5C 129.995,21.2151 124.995,18.8818 119.5,17.5C 118.223,16.1024 116.557,15.4357 114.5,15.5C 109.623,17.042 104.623,17.7087 99.5,17.5C 101.031,16.0755 100.698,15.4088 98.5,15.5C 100.877,14.1127 103.543,13.2794 106.5,13C 99.708,10.1047 93.3747,6.43805 87.5,2C 90.112,2.09851 92.7787,2.43185 95.5,3C 99.8878,6.86202 104.888,9.69535 110.5,11.5C 111.167,11.3333 111.833,11.1667 112.5,11C 108.636,7.30358 104.969,3.47025 101.5,-0.5 Z"/></g>
<g><path style="opacity:1" fill="#91835e" d="M 15.5,9.5 C 17.8309,9.49766 19.8309,10.331 21.5,12C 22.3366,13.0113 22.67,14.1779 22.5,15.5C 19.5701,16.299 16.5701,16.6323 13.5,16.5C 13.3379,14.4727 13.5045,12.4727 14,10.5C 14.3826,9.94404 14.8826,9.61071 15.5,9.5 Z"/></g>
<g><path style="opacity:1" fill="#453925" d="M 62.5,-0.5 C 67.5,-0.5 72.5,-0.5 77.5,-0.5C 77.415,1.92878 76.415,3.92878 74.5,5.5C 69.4894,6.83743 64.8227,9.0041 60.5,12C 58.8258,13.5059 57.8258,15.3393 57.5,17.5C 53.2984,17.1832 49.2984,17.5166 45.5,18.5C 43.901,18.7678 42.5676,18.4345 41.5,17.5C 43.6074,16.5318 45.9407,16.1984 48.5,16.5C 48.67,15.1779 48.3366,14.0113 47.5,13C 48.938,12.7811 50.2713,12.2811 51.5,11.5C 53.5971,8.2897 56.5971,6.45636 60.5,6C 61.3452,4.44185 60.6785,3.44185 58.5,3C 60.3187,2.25974 61.6521,1.09307 62.5,-0.5 Z"/></g>
<g><path style="opacity:1" fill="#4b371c" d="M 114.5,-0.5 C 115.5,-0.5 116.5,-0.5 117.5,-0.5C 118.723,3.04947 120.723,6.04947 123.5,8.5C 127.341,11.4996 131.341,14.3329 135.5,17C 137,19.1667 138.5,21.3333 140,23.5C 140.333,21.1667 140.667,18.8333 141,16.5C 141.383,17.056 141.883,17.3893 142.5,17.5C 142.5,17.8333 142.5,18.1667 142.5,18.5C 144.344,22.4439 143.677,25.7772 140.5,28.5C 138.251,27.9202 136.585,26.5869 135.5,24.5C 134.386,23.1147 133.386,21.6147 132.5,20C 127.38,17.94 122.38,15.6067 117.5,13C 116.29,11.9609 115.29,10.7942 114.5,9.5C 114.88,8.86694 115.213,8.20027 115.5,7.5C 116.5,8.16667 117.5,8.83333 118.5,9.5C 118.833,9.16667 119.167,8.83333 119.5,8.5C 117.331,5.69335 115.665,2.69335 114.5,-0.5 Z"/></g>
<g><path style="opacity:1" fill="#20180e" d="M 93.5,14.5 C 95.0418,15.3007 96.7085,15.634 98.5,15.5C 100.698,15.4088 101.031,16.0755 99.5,17.5C 98.3569,17.9081 97.3569,18.5748 96.5,19.5C 94.6275,23.4121 92.6275,27.2454 90.5,31C 92.0414,32.3712 93.3747,33.8712 94.5,35.5C 94.1667,35.5 93.8333,35.5 93.5,35.5C 93.1667,35.5 92.8333,35.5 92.5,35.5C 91.5,33.8333 90.1667,32.5 88.5,31.5C 90.0888,27.6648 91.7554,23.8315 93.5,20C 92.8333,18.6667 92.1667,17.3333 91.5,16C 91.8361,14.9701 92.5028,14.4701 93.5,14.5 Z"/></g>
<g><path style="opacity:1" fill="#5071a0" d="M 175.5,-0.5 C 177.167,-0.5 178.833,-0.5 180.5,-0.5C 180.833,1.5 181.167,3.5 181.5,5.5C 181.332,9.74833 182.999,12.915 186.5,15C 193.051,15.1657 199.384,16.1657 205.5,18C 207.376,19.0173 209.376,19.8506 211.5,20.5C 210.019,21.944 210.352,22.6106 212.5,22.5C 213.429,23.3149 214.429,24.1482 215.5,25C 212.571,25.7772 209.737,25.6105 207,24.5C 204.248,26.9064 201.582,26.9064 199,24.5C 197.169,25.3001 195.335,26.3001 193.5,27.5C 189.818,27.3347 186.152,27.5014 182.5,28C 181.881,29.7571 180.714,30.9238 179,31.5C 177.234,30.7665 175.401,30.4332 173.5,30.5C 173.192,28.076 173.526,25.7427 174.5,23.5C 176.188,21.9706 177.521,20.1373 178.5,18C 177.396,16.8687 177.729,16.0354 179.5,15.5C 180.66,11.5411 180.827,7.54106 180,3.5C 179.047,5.37312 177.88,5.70646 176.5,4.5C 176.371,2.7839 176.038,1.11723 175.5,-0.5 Z"/></g>
<g><path style="opacity:1" fill="#4a668d" d="M 213.5,-0.5 C 216.833,-0.5 220.167,-0.5 223.5,-0.5C 224.619,2.88801 226.619,5.72134 229.5,8C 229.167,8.33333 228.833,8.66667 228.5,9C 231.372,11.5366 233.872,14.3699 236,17.5C 236.333,17.1667 236.667,16.8333 237,16.5C 238.5,18 240,19.5 241.5,21C 241.167,21.3333 240.833,21.6667 240.5,22C 242.877,25.7896 244.877,29.7896 246.5,34C 238.329,44.5212 228.995,54.6879 218.5,64.5C 215.422,66.3687 212.089,67.702 208.5,68.5C 208.389,67.8826 208.056,67.3826 207.5,67C 211.492,64.0075 215.158,60.6742 218.5,57C 217.975,56.3076 217.308,55.8076 216.5,55.5C 215.549,56.3256 214.549,56.4922 213.5,56C 216.369,52.7959 219.535,49.9626 223,47.5C 226.578,43.4189 229.078,38.7522 230.5,33.5C 229.322,23.7817 224.655,16.4484 216.5,11.5C 215.36,10.1986 214.027,9.03191 212.5,8C 210.048,7.71047 207.715,7.0438 205.5,6C 207.112,5.27969 208.612,5.44636 210,6.5C 210.374,5.58377 210.874,4.75044 211.5,4C 213.5,3.66667 215.5,3.33333 217.5,3C 215.907,2.05127 214.574,0.884606 213.5,-0.5 Z"/></g>
<g><path style="opacity:1" fill="#523c20" d="M 142.5,-0.5 C 143.167,-0.5 143.833,-0.5 144.5,-0.5C 145.038,1.11723 145.371,2.7839 145.5,4.5C 145.34,6.19919 145.506,7.86586 146,9.5C 148.232,11.2967 149.398,13.63 149.5,16.5C 149.18,21.1213 148.013,25.4546 146,29.5C 145.503,26.854 145.336,24.1873 145.5,21.5C 145.344,14.0399 144.344,6.7066 142.5,-0.5 Z"/></g>
<g><path style="opacity:1" fill="#e3ab9a" d="M 119.5,17.5 C 124.995,18.8818 129.995,21.2151 134.5,24.5C 135.49,27.1505 136.49,29.8172 137.5,32.5C 134.833,34.5001 133.5,37.1667 133.5,40.5C 132.167,39.5 130.833,38.5 129.5,37.5C 129.5,37.1667 129.5,36.8333 129.5,36.5C 130.239,36.631 130.906,36.4643 131.5,36C 128.628,33.4784 128.962,31.6451 132.5,30.5C 130.642,27.4279 128.642,24.4279 126.5,21.5C 124.329,21.7265 122.162,22.0598 120,22.5C 118.927,26.0997 119.76,29.0997 122.5,31.5C 120.066,30.901 118.399,29.401 117.5,27C 118.662,23.5794 119.328,20.4128 119.5,17.5 Z"/></g>
<g><path style="opacity:1" fill="#ab9265" d="M 9.5,18.5 C 10.1499,18.1961 10.8165,17.8627 11.5,17.5C 12.7472,19.0064 12.7472,20.5064 11.5,22C 12.0944,22.4643 12.7611,22.631 13.5,22.5C 13.5,23.1667 13.1667,23.5 12.5,23.5C 10.5887,24.075 8.92203,25.075 7.5,26.5C 6.62669,24.1137 5.12669,22.1137 3,20.5C 2.51722,19.552 2.35055,18.552 2.5,17.5C 4.12879,16.3747 5.62879,15.0414 7,13.5C 7.86433,15.8306 8.69766,17.4973 9.5,18.5 Z"/></g>
<g><path style="opacity:1" fill="#b9ad94" d="M 162.5,-0.5 C 165.167,-0.5 167.833,-0.5 170.5,-0.5C 168.079,8.40299 169.579,9.40299 175,2.5C 174.732,10.0372 171.565,16.0372 165.5,20.5C 163.685,21.6298 161.685,22.2964 159.5,22.5C 159.878,20.3537 160.212,18.187 160.5,16C 160.392,14.3189 159.725,13.1522 158.5,12.5C 161.276,8.61417 162.609,4.28084 162.5,-0.5 Z"/></g>
<g><path style="opacity:1" fill="#cfc8be" d="M 158.5,12.5 C 159.725,13.1522 160.392,14.3189 160.5,16C 160.212,18.187 159.878,20.3537 159.5,22.5C 161.685,22.2964 163.685,21.6298 165.5,20.5C 165.5,21.5 165.5,22.5 165.5,23.5C 166.32,27.2221 164.987,29.5554 161.5,30.5C 162.755,28.4812 163.089,26.4812 162.5,24.5C 160.487,25.9695 158.82,27.6362 157.5,29.5C 156.527,27.8608 155.194,26.5274 153.5,25.5C 155.364,21.2401 157.031,16.9068 158.5,12.5 Z"/></g>
<g><path style="opacity:1" fill="#55442b" d="M 76.5,6.5 C 82.0979,9.31588 87.7645,11.9825 93.5,14.5C 92.5028,14.4701 91.8361,14.9701 91.5,16C 92.1667,17.3333 92.8333,18.6667 93.5,20C 91.7554,23.8315 90.0888,27.6648 88.5,31.5C 86.8065,28.8103 84.4732,26.8103 81.5,25.5C 78.8621,22.5256 76.1954,19.5256 73.5,16.5C 74.5832,16.4606 75.5832,16.1272 76.5,15.5C 78.5,16.8333 80.5,18.1667 82.5,19.5C 82.8333,19.1667 83.1667,18.8333 83.5,18.5C 81.1238,14.1237 77.7905,10.7904 73.5,8.5C 74.2905,7.59872 75.2905,6.93205 76.5,6.5 Z"/></g>
<g><path style="opacity:1" fill="#52739f" d="M 185.5,71.5 C 184.833,71.5 184.167,71.5 183.5,71.5C 185.361,69.889 186.861,67.889 188,65.5C 187.962,60.8583 188.962,56.5249 191,52.5C 191.333,52.8333 191.667,53.1667 192,53.5C 194.333,52.5 196.667,51.5 199,50.5C 199.914,51.6537 200.747,51.487 201.5,50C 200.66,48.3335 201.16,48.1669 203,49.5C 206.59,45.9058 208.757,41.5724 209.5,36.5C 209.36,34.9704 208.693,33.9704 207.5,33.5C 208.596,30.9884 207.762,28.9884 205,27.5C 203.701,28.9797 202.034,29.6464 200,29.5C 197.558,29.5177 195.392,28.851 193.5,27.5C 195.335,26.3001 197.169,25.3001 199,24.5C 201.582,26.9064 204.248,26.9064 207,24.5C 209.737,25.6105 212.571,25.7772 215.5,25C 214.429,24.1482 213.429,23.3149 212.5,22.5C 212.435,22.0618 212.601,21.7284 213,21.5C 219.589,24.4209 224.089,29.2542 226.5,36C 219.817,46.0206 210.817,53.0206 199.5,57C 195.439,56.696 192.273,58.196 190,61.5C 190.262,65.7419 188.762,69.0753 185.5,71.5 Z"/></g>
<g><path style="opacity:1" fill="#27314c" d="M -0.5,7.5 C 0.166667,7.5 0.833333,7.5 1.5,7.5C 1.34243,10.9023 1.67577,14.2356 2.5,17.5C 2.35055,18.552 2.51722,19.552 3,20.5C 5.12669,22.1137 6.62669,24.1137 7.5,26.5C 5.09759,28.9092 2.43092,30.9092 -0.5,32.5C -0.5,24.1667 -0.5,15.8333 -0.5,7.5 Z"/></g>
<g><path style="opacity:1" fill="#b47a6a" d="M 41.5,17.5 C 42.5676,18.4345 43.901,18.7678 45.5,18.5C 49.8117,19.9855 54.1451,21.4855 58.5,23C 62.0426,26.0486 65.7093,28.8819 69.5,31.5C 69.8333,32.1667 70.1667,32.8333 70.5,33.5C 69.209,33.2627 68.209,33.596 67.5,34.5C 64.0844,30.755 60.0844,27.755 55.5,25.5C 55.891,26.7185 55.2244,27.5518 53.5,28C 54.3805,28.7083 55.0472,29.5416 55.5,30.5C 53.8333,29.8333 52.1667,29.1667 50.5,28.5C 41.6245,21.7805 31.6245,19.1138 20.5,20.5C 24.7894,18.9385 29.2894,17.6051 34,16.5C 36.4339,17.3223 38.9339,17.6556 41.5,17.5 Z"/></g>
<g><path style="opacity:1" fill="#5274a4" d="M 193.5,27.5 C 195.392,28.851 197.558,29.5177 200,29.5C 202.034,29.6464 203.701,28.9797 205,27.5C 207.762,28.9884 208.596,30.9884 207.5,33.5C 201.921,34.0967 196.421,34.0967 191,33.5C 189.184,35.4414 187.184,36.1081 185,35.5C 181.939,37.9675 179.605,40.9675 178,44.5C 175.364,40.5208 172.697,36.5208 170,32.5C 169.414,28.3242 170.581,24.6575 173.5,21.5C 172.873,20.5832 172.539,19.5832 172.5,18.5C 175.575,14.3454 176.908,9.67871 176.5,4.5C 177.88,5.70646 179.047,5.37312 180,3.5C 180.827,7.54106 180.66,11.5411 179.5,15.5C 177.729,16.0354 177.396,16.8687 178.5,18C 177.521,20.1373 176.188,21.9706 174.5,23.5C 173.526,25.7427 173.192,28.076 173.5,30.5C 175.401,30.4332 177.234,30.7665 179,31.5C 180.714,30.9238 181.881,29.7571 182.5,28C 186.152,27.5014 189.818,27.3347 193.5,27.5 Z"/></g>
<g><path style="opacity:1" fill="#4d2b15" d="M 70.5,14.5 C 70.8212,16.0481 71.8212,16.7148 73.5,16.5C 76.1954,19.5256 78.8621,22.5256 81.5,25.5C 82.822,27.3111 83.322,29.3111 83,31.5C 82.3109,30.6433 81.4776,29.9767 80.5,29.5C 78.9539,30.684 77.2873,31.684 75.5,32.5C 76.8312,34.8235 76.4979,36.8235 74.5,38.5C 73.396,36.6115 72.0627,34.9448 70.5,33.5C 70.1667,32.8333 69.8333,32.1667 69.5,31.5C 69.2914,30.0783 68.7914,28.745 68,27.5C 65.6969,25.607 63.5302,23.607 61.5,21.5C 62.1667,18.8333 62.8333,16.1667 63.5,13.5C 64,13.1667 64.5,12.8333 65,12.5C 66.8003,13.3195 68.6336,13.9862 70.5,14.5 Z"/></g>
<g><path style="opacity:1" fill="#d17f68" d="M 119.5,17.5 C 119.328,20.4128 118.662,23.5794 117.5,27C 118.399,29.401 120.066,30.901 122.5,31.5C 125.135,32.8109 127.469,34.4776 129.5,36.5C 122.858,32.1695 115.858,31.5028 108.5,34.5C 107.29,34.9321 106.29,35.5987 105.5,36.5C 103.658,36.7233 101.825,37.0566 100,37.5C 98.0614,37.0457 96.228,36.379 94.5,35.5C 93.3747,33.8712 92.0414,32.3712 90.5,31C 92.6275,27.2454 94.6275,23.4121 96.5,19.5C 97.3569,18.5748 98.3569,17.9081 99.5,17.5C 104.623,17.7087 109.623,17.042 114.5,15.5C 116.557,15.4357 118.223,16.1024 119.5,17.5 Z"/></g>
<g><path style="opacity:1" fill="#735b3a" d="M 153.5,-0.5 C 154.5,-0.5 155.5,-0.5 156.5,-0.5C 156.103,12.3001 157.77,12.3001 161.5,-0.5C 161.833,-0.5 162.167,-0.5 162.5,-0.5C 162.609,4.28084 161.276,8.61417 158.5,12.5C 157.031,16.9068 155.364,21.2401 153.5,25.5C 152.513,27.4734 151.513,29.4734 150.5,31.5C 150.624,32.1067 150.957,32.44 151.5,32.5C 150.145,35.5177 147.812,36.851 144.5,36.5C 143.647,33.632 142.314,30.9653 140.5,28.5C 143.677,25.7772 144.344,22.4439 142.5,18.5C 143.272,19.6935 144.272,20.6935 145.5,21.5C 145.336,24.1873 145.503,26.854 146,29.5C 148.013,25.4546 149.18,21.1213 149.5,16.5C 149.398,13.63 148.232,11.2967 146,9.5C 145.506,7.86586 145.34,6.19919 145.5,4.5C 146.376,4.36912 147.043,4.70245 147.5,5.5C 148.383,8.3252 149.55,10.9919 151,13.5C 152.796,9.01753 153.63,4.35087 153.5,-0.5 Z"/></g>
<g><path style="opacity:1" fill="#bea96b" d="M 156.5,-0.5 C 158.167,-0.5 159.833,-0.5 161.5,-0.5C 157.77,12.3001 156.103,12.3001 156.5,-0.5 Z"/></g>
<g><path style="opacity:1" fill="#faf2f1" d="M 153.5,25.5 C 155.194,26.5274 156.527,27.8608 157.5,29.5C 159.103,31.887 160.103,34.5537 160.5,37.5C 160.5,39.8333 160.5,42.1667 160.5,44.5C 159.167,44.8333 157.833,45.1667 156.5,45.5C 156.904,40.2169 156.238,35.2169 154.5,30.5C 152.973,30.427 151.973,31.0937 151.5,32.5C 150.957,32.44 150.624,32.1067 150.5,31.5C 151.513,29.4734 152.513,27.4734 153.5,25.5 Z"/></g>
<g><path style="opacity:1" fill="#b44d40" d="M 13.5,22.5 C 14.1667,22.5 14.8333,22.5 15.5,22.5C 19.7016,22.1832 23.7016,22.5166 27.5,23.5C 24.1501,23.335 20.8168,23.5017 17.5,24C 13.7841,28.2035 13.9507,32.0368 18,35.5C 18.4828,36.448 18.6495,37.448 18.5,38.5C 23.2614,38.2144 27.928,38.2144 32.5,38.5C 34.5543,36.8062 36.8877,35.6395 39.5,35C 40.2567,33.4878 41.2567,32.1545 42.5,31C 37.7658,28.4983 33.0992,25.9983 28.5,23.5C 35.7556,23.5557 42.089,25.889 47.5,30.5C 45.8513,31.6477 44.3513,32.981 43,34.5C 42.2195,35.9437 42.3861,37.277 43.5,38.5C 45.3259,34.4818 48.3259,32.9818 52.5,34C 54.3962,36.068 56.3962,37.9013 58.5,39.5C 55.9759,39.4287 53.9759,40.4287 52.5,42.5C 50.8509,40.3501 49.0176,38.3501 47,36.5C 44.0715,39.702 42.7382,43.3686 43,47.5C 46.7365,51.7267 50.2365,56.06 53.5,60.5C 50.5505,58.8847 47.8838,56.8847 45.5,54.5C 34.0534,41.9568 19.7201,36.2901 2.5,37.5C 1.41728,36.635 1.25061,35.635 2,34.5C 5.70392,30.9643 9.20392,27.2976 12.5,23.5C 13.1667,23.5 13.5,23.1667 13.5,22.5 Z"/></g>
<g><path style="opacity:1" fill="#d55d4c" d="M 27.5,23.5 C 27.8333,23.5 28.1667,23.5 28.5,23.5C 33.0992,25.9983 37.7658,28.4983 42.5,31C 41.2567,32.1545 40.2567,33.4878 39.5,35C 36.8877,35.6395 34.5543,36.8062 32.5,38.5C 27.928,38.2144 23.2614,38.2144 18.5,38.5C 18.6495,37.448 18.4828,36.448 18,35.5C 13.9507,32.0368 13.7841,28.2035 17.5,24C 20.8168,23.5017 24.1501,23.335 27.5,23.5 Z"/></g>
<g><path style="opacity:1" fill="#e9c2b7" d="M 129.5,36.5 C 127.469,34.4776 125.135,32.8109 122.5,31.5C 119.76,29.0997 118.927,26.0997 120,22.5C 122.162,22.0598 124.329,21.7265 126.5,21.5C 128.642,24.4279 130.642,27.4279 132.5,30.5C 128.962,31.6451 128.628,33.4784 131.5,36C 130.906,36.4643 130.239,36.631 129.5,36.5 Z"/></g>
<g><path style="opacity:1" fill="#902d25" d="M 50.5,28.5 C 54.1296,32.631 57.963,36.631 62,40.5C 62.7914,41.745 63.2914,43.0783 63.5,44.5C 62.5,45.1667 61.5,45.8333 60.5,46.5C 60.8342,43.812 60.1675,41.4786 58.5,39.5C 56.3962,37.9013 54.3962,36.068 52.5,34C 48.3259,32.9818 45.3259,34.4818 43.5,38.5C 42.3861,37.277 42.2195,35.9437 43,34.5C 44.3513,32.981 45.8513,31.6477 47.5,30.5C 42.089,25.889 35.7556,23.5557 28.5,23.5C 28.1667,23.5 27.8333,23.5 27.5,23.5C 23.7016,22.5166 19.7016,22.1832 15.5,22.5C 16.7804,21.0687 18.4471,20.4021 20.5,20.5C 31.6245,19.1138 41.6245,21.7805 50.5,28.5 Z"/></g>
<g><path style="opacity:1" fill="#577baa" d="M 172.5,18.5 C 172.539,19.5832 172.873,20.5832 173.5,21.5C 170.581,24.6575 169.414,28.3242 170,32.5C 172.697,36.5208 175.364,40.5208 178,44.5C 179.605,40.9675 181.939,37.9675 185,35.5C 187.184,36.1081 189.184,35.4414 191,33.5C 196.421,34.0967 201.921,34.0967 207.5,33.5C 208.693,33.9704 209.36,34.9704 209.5,36.5C 208.757,41.5724 206.59,45.9058 203,49.5C 201.16,48.1669 200.66,48.3335 201.5,50C 200.747,51.487 199.914,51.6537 199,50.5C 196.667,51.5 194.333,52.5 192,53.5C 191.667,53.1667 191.333,52.8333 191,52.5C 188.962,56.5249 187.962,60.8583 188,65.5C 186.861,67.889 185.361,69.889 183.5,71.5C 183.672,72.4916 183.338,73.1583 182.5,73.5C 185.328,63.1584 181.495,56.8251 171,54.5C 171.286,49.3256 170.286,44.3256 168,39.5C 166.71,37.208 165.043,35.208 163,33.5C 162.601,33.7284 162.435,34.0618 162.5,34.5C 160.862,33.2954 160.529,31.9621 161.5,30.5C 164.987,29.5554 166.32,27.2221 165.5,23.5C 167.657,21.5879 169.991,19.9213 172.5,18.5 Z"/></g>
<g><path style="opacity:1" fill="#cba295" d="M 67.5,34.5 C 69.0698,36.8954 70.4032,39.3954 71.5,42C 71.3333,42.8333 71.1667,43.6667 71,44.5C 70.3292,43.7476 69.4959,43.4142 68.5,43.5C 64.4729,38.8062 60.1396,34.4729 55.5,30.5C 55.0472,29.5416 54.3805,28.7083 53.5,28C 55.2244,27.5518 55.891,26.7185 55.5,25.5C 60.0844,27.755 64.0844,30.755 67.5,34.5 Z"/></g>
<g><path style="opacity:1" fill="#754327" d="M 81.5,25.5 C 84.4732,26.8103 86.8065,28.8103 88.5,31.5C 90.1667,32.5 91.5,33.8333 92.5,35.5C 89.715,34.9162 88.0483,35.9162 87.5,38.5C 86.0783,38.7086 84.745,39.2086 83.5,40C 82.2264,40.9772 82.2264,41.8106 83.5,42.5C 83.5,43.5 83.5,44.5 83.5,45.5C 80.9392,43.6286 78.4392,41.6286 76,39.5C 75.5172,40.448 75.3505,41.448 75.5,42.5C 74.5655,41.4324 74.2322,40.099 74.5,38.5C 76.4979,36.8235 76.8312,34.8235 75.5,32.5C 77.2873,31.684 78.9539,30.684 80.5,29.5C 81.4776,29.9767 82.3109,30.6433 83,31.5C 83.322,29.3111 82.822,27.3111 81.5,25.5 Z"/></g>
<g><path style="opacity:1" fill="#ecac5e" d="M 92.5,35.5 C 92.8333,35.5 93.1667,35.5 93.5,35.5C 92.6248,39.1964 90.6248,40.1964 87.5,38.5C 88.0483,35.9162 89.715,34.9162 92.5,35.5 Z"/></g>
<g><path style="opacity:1" fill="#e0d9b1" d="M 129.5,36.5 C 129.5,36.8333 129.5,37.1667 129.5,37.5C 126.272,38.4137 122.939,38.7471 119.5,38.5C 118.417,38.4606 117.417,38.1272 116.5,37.5C 115.304,37.8457 115.304,38.3457 116.5,39C 115.667,39.1667 114.833,39.3333 114,39.5C 113.055,37.4509 111.221,35.7842 108.5,34.5C 115.858,31.5028 122.858,32.1695 129.5,36.5 Z"/></g>
<g><path style="opacity:1" fill="#e4e6e5" d="M 182.5,73.5 C 182.065,76.1573 181.065,78.4907 179.5,80.5C 179.833,77.8333 180.167,75.1667 180.5,72.5C 182.248,63.3054 178.581,57.972 169.5,56.5C 163.106,58.0553 158.272,61.722 155,67.5C 154.333,65.8333 154.333,64.1667 155,62.5C 157.825,59.524 160.992,57.1907 164.5,55.5C 165.675,55.719 166.675,55.3857 167.5,54.5C 166.147,53.4763 165.48,52.143 165.5,50.5C 165.179,48.9519 164.179,48.2852 162.5,48.5C 159.673,48.5838 157.006,49.2504 154.5,50.5C 156.647,48.2632 158.98,46.2632 161.5,44.5C 162.791,44.7373 163.791,44.404 164.5,43.5C 165.695,43.1344 166.361,42.301 166.5,41C 165.287,38.7381 163.954,36.5715 162.5,34.5C 162.435,34.0618 162.601,33.7284 163,33.5C 165.043,35.208 166.71,37.208 168,39.5C 170.286,44.3256 171.286,49.3256 171,54.5C 181.495,56.8251 185.328,63.1584 182.5,73.5 Z"/></g>
<g><path style="opacity:1" fill="#f6b2ad" d="M 154.5,30.5 C 156.238,35.2169 156.904,40.2169 156.5,45.5C 156.189,46.4778 155.522,47.1445 154.5,47.5C 150.679,41.8784 150.679,36.2117 154.5,30.5 Z"/></g>
<g><path style="opacity:1" fill="#d7806f" d="M 70.5,33.5 C 72.0627,34.9448 73.396,36.6115 74.5,38.5C 74.2322,40.099 74.5655,41.4324 75.5,42.5C 75.5,42.8333 75.5,43.1667 75.5,43.5C 75.5,45.1667 75.5,46.8333 75.5,48.5C 71.4231,48.9829 69.0897,47.3163 68.5,43.5C 69.4959,43.4142 70.3292,43.7476 71,44.5C 71.1667,43.6667 71.3333,42.8333 71.5,42C 70.4032,39.3954 69.0698,36.8954 67.5,34.5C 68.209,33.596 69.209,33.2627 70.5,33.5 Z"/></g>
<g><path style="opacity:1" fill="#502512" d="M 161.5,30.5 C 160.529,31.9621 160.862,33.2954 162.5,34.5C 163.954,36.5715 165.287,38.7381 166.5,41C 166.361,42.301 165.695,43.1344 164.5,43.5C 162.879,41.7701 161.545,39.7701 160.5,37.5C 160.103,34.5537 159.103,31.887 157.5,29.5C 158.82,27.6362 160.487,25.9695 162.5,24.5C 163.089,26.4812 162.755,28.4812 161.5,30.5 Z"/></g>
<g><path style="opacity:1" fill="#d2b3a9" d="M 12.5,23.5 C 9.20392,27.2976 5.70392,30.9643 2,34.5C 1.25061,35.635 1.41728,36.635 2.5,37.5C 19.7201,36.2901 34.0534,41.9568 45.5,54.5C 45.1667,54.5 44.8333,54.5 44.5,54.5C 44.1667,54.5 43.8333,54.5 43.5,54.5C 43.5,53.8333 43.1667,53.5 42.5,53.5C 36.5558,47.6933 29.5558,43.6933 21.5,41.5C 19.6208,40.6586 17.6208,40.3253 15.5,40.5C 9.9772,40.9308 4.64387,40.2641 -0.5,38.5C -0.5,36.5 -0.5,34.5 -0.5,32.5C 2.43092,30.9092 5.09759,28.9092 7.5,26.5C 8.92203,25.075 10.5887,24.075 12.5,23.5 Z"/></g>
<g><path style="opacity:1" fill="#c3b97e" d="M 129.5,37.5 C 130.833,38.5 132.167,39.5 133.5,40.5C 135.705,42.3634 137.039,44.6967 137.5,47.5C 132.899,45.1789 128.232,42.8456 123.5,40.5C 122.167,39.8333 120.833,39.1667 119.5,38.5C 122.939,38.7471 126.272,38.4137 129.5,37.5 Z"/></g>
<g><path style="opacity:1" fill="#ab9063" d="M 160.5,37.5 C 161.545,39.7701 162.879,41.7701 164.5,43.5C 163.791,44.404 162.791,44.7373 161.5,44.5C 161.167,44.5 160.833,44.5 160.5,44.5C 160.5,42.1667 160.5,39.8333 160.5,37.5 Z"/></g>
<g><path style="opacity:1" fill="#edad60" d="M 86.5,45.5 C 85.8333,45.5 85.1667,45.5 84.5,45.5C 84.1667,45.5 83.8333,45.5 83.5,45.5C 83.5,44.5 83.5,43.5 83.5,42.5C 85.1276,39.852 86.7943,39.852 88.5,42.5C 87.8075,43.5178 87.1408,44.5178 86.5,45.5 Z"/></g>
<g><path style="opacity:1" fill="#502e16" d="M 93.5,35.5 C 93.8333,35.5 94.1667,35.5 94.5,35.5C 96.228,36.379 98.0614,37.0457 100,37.5C 101.825,37.0566 103.658,36.7233 105.5,36.5C 106.239,36.369 106.906,36.5357 107.5,37C 104.47,38.2841 101.47,39.4508 98.5,40.5C 97.8549,39.1882 96.8549,38.1882 95.5,37.5C 93.4955,40.1816 91.4955,42.8483 89.5,45.5C 88.3864,46.7759 87.3864,46.7759 86.5,45.5C 87.1408,44.5178 87.8075,43.5178 88.5,42.5C 86.7943,39.852 85.1276,39.852 83.5,42.5C 82.2264,41.8106 82.2264,40.9772 83.5,40C 84.745,39.2086 86.0783,38.7086 87.5,38.5C 90.6248,40.1964 92.6248,39.1964 93.5,35.5 Z"/></g>
<g><path style="opacity:1" fill="#9d5427" d="M 98.5,40.5 C 95.3405,44.0949 94.0072,48.0949 94.5,52.5C 94.44,53.0431 94.1067,53.3764 93.5,53.5C 92.3777,52.3698 91.0443,51.7031 89.5,51.5C 87.1402,50.135 85.4735,48.135 84.5,45.5C 85.1667,45.5 85.8333,45.5 86.5,45.5C 87.3864,46.7759 88.3864,46.7759 89.5,45.5C 91.4955,42.8483 93.4955,40.1816 95.5,37.5C 96.8549,38.1882 97.8549,39.1882 98.5,40.5 Z"/></g>
<g><path style="opacity:1" fill="#946141" d="M 108.5,34.5 C 111.221,35.7842 113.055,37.4509 114,39.5C 114.833,39.3333 115.667,39.1667 116.5,39C 115.304,38.3457 115.304,37.8457 116.5,37.5C 117.417,38.1272 118.417,38.4606 119.5,38.5C 120.833,39.1667 122.167,39.8333 123.5,40.5C 122.508,40.3284 121.842,40.6618 121.5,41.5C 115.701,39.9465 110.034,40.2798 104.5,42.5C 103.749,41.4265 102.749,41.2599 101.5,42C 99.2673,45.6515 96.934,49.1515 94.5,52.5C 94.0072,48.0949 95.3405,44.0949 98.5,40.5C 101.47,39.4508 104.47,38.2841 107.5,37C 106.906,36.5357 106.239,36.369 105.5,36.5C 106.29,35.5987 107.29,34.9321 108.5,34.5 Z"/></g>
<g><path style="opacity:1" fill="#cb7a3d" d="M 121.5,41.5 C 124.849,42.1695 127.516,43.8361 129.5,46.5C 127.167,46.5 124.833,46.5 122.5,46.5C 119.236,43.1331 115.236,41.6331 110.5,42C 111.771,44.7773 113.771,46.6106 116.5,47.5C 113.19,49.4821 110.19,51.8154 107.5,54.5C 105.738,55.2623 104.738,56.5956 104.5,58.5C 103.849,59.0906 103.182,59.7573 102.5,60.5C 101.167,59.1667 99.8333,59.1667 98.5,60.5C 97.5344,58.604 97.2011,56.604 97.5,54.5C 101.185,56.7624 103.185,55.4291 103.5,50.5C 102.209,50.7373 101.209,50.404 100.5,49.5C 101.569,47.0313 102.902,44.6979 104.5,42.5C 110.034,40.2798 115.701,39.9465 121.5,41.5 Z"/></g>
<g><path style="opacity:1" fill="#435d80" d="M 231.5,-0.5 C 236.167,-0.5 240.833,-0.5 245.5,-0.5C 244.619,2.43759 244.286,5.27093 244.5,8C 246.921,13.6297 249.921,18.2964 253.5,22C 252.846,26.83 252.013,31.6633 251,36.5C 246.121,46.5292 241.288,56.0292 236.5,65C 236.833,65.3333 237.167,65.6667 237.5,66C 236.376,66.2492 235.376,66.7492 234.5,67.5C 233.57,70.3616 231.903,72.695 229.5,74.5C 224.142,76.2753 219.142,78.6087 214.5,81.5C 213.365,82.1027 212.365,82.4361 211.5,82.5C 210.833,82.5 210.167,82.5 209.5,82.5C 207.143,82.3367 204.81,82.5034 202.5,83C 197.526,85.1025 192.526,86.7691 187.5,88C 189.09,86.9542 190.59,85.7875 192,84.5C 192.333,84.8333 192.667,85.1667 193,85.5C 197.404,82.9626 202.738,80.296 209,77.5C 209.333,77.8333 209.667,78.1667 210,78.5C 210.5,77.3333 211.333,76.5 212.5,76C 210.413,76.2179 208.413,76.0512 206.5,75.5C 207.357,74.5748 208.357,73.9081 209.5,73.5C 215.046,70.4711 220.88,68.1377 227,66.5C 232.833,58.6667 238.667,50.8333 244.5,43C 244.167,42.6667 243.833,42.3333 243.5,42C 249.413,35.2481 249.746,27.9148 244.5,20C 245.654,19.0862 245.487,18.2529 244,17.5C 243.667,17.8333 243.333,18.1667 243,18.5C 242.264,15.68 240.598,13.68 238,12.5C 235.918,8.06278 233.751,3.72944 231.5,-0.5 Z"/></g>
<g><path style="opacity:1" fill="#3c536f" d="M 255.5,33.5 C 255.5,37.5 255.5,41.5 255.5,45.5C 253.767,46.0076 253.434,46.841 254.5,48C 252.649,54.306 250.982,60.6393 249.5,67C 250.775,69.3002 250.441,71.4669 248.5,73.5C 251.156,76.3291 250.656,77.3291 247,76.5C 246.318,81.6127 245.984,86.6127 246,91.5C 244.519,90.5291 243.685,89.1958 243.5,87.5C 240.968,85.1022 239.468,82.1022 239,78.5C 237.398,81.3739 235.231,82.3739 232.5,81.5C 236.561,77.6549 239.228,73.3215 240.5,68.5C 242.436,63.193 244.269,57.8597 246,52.5C 249.528,45.7223 252.695,39.389 255.5,33.5 Z"/></g>
<g><path style="opacity:1" fill="#3a2211" d="M 83.5,45.5 C 83.8333,45.5 84.1667,45.5 84.5,45.5C 85.4735,48.135 87.1402,50.135 89.5,51.5C 86.6916,50.0712 83.6916,49.4045 80.5,49.5C 80.5,48.5 80.5,47.5 80.5,46.5C 79.1667,46.5 77.8333,46.5 76.5,46.5C 76.7373,45.209 76.404,44.209 75.5,43.5C 75.5,43.1667 75.5,42.8333 75.5,42.5C 75.3505,41.448 75.5172,40.448 76,39.5C 78.4392,41.6286 80.9392,43.6286 83.5,45.5 Z"/></g>
<g><path style="opacity:1" fill="#ebc399" d="M 122.5,46.5 C 120.379,46.3253 118.379,46.6586 116.5,47.5C 113.771,46.6106 111.771,44.7773 110.5,42C 115.236,41.6331 119.236,43.1331 122.5,46.5 Z"/></g>
<g><path style="opacity:1" fill="#d5806c" d="M 134.5,24.5 C 134.833,24.5 135.167,24.5 135.5,24.5C 136.585,26.5869 138.251,27.9202 140.5,28.5C 142.314,30.9653 143.647,33.632 144.5,36.5C 147.812,36.851 150.145,35.5177 151.5,32.5C 151.973,31.0937 152.973,30.427 154.5,30.5C 150.679,36.2117 150.679,41.8784 154.5,47.5C 155.522,47.1445 156.189,46.4778 156.5,45.5C 157.833,45.1667 159.167,44.8333 160.5,44.5C 160.833,44.5 161.167,44.5 161.5,44.5C 158.98,46.2632 156.647,48.2632 154.5,50.5C 150.5,54.8333 146.5,59.1667 142.5,63.5C 142.564,59.301 141.231,55.6343 138.5,52.5C 138.634,50.7085 138.301,49.0418 137.5,47.5C 137.039,44.6967 135.705,42.3634 133.5,40.5C 133.5,37.1667 134.833,34.5001 137.5,32.5C 136.49,29.8172 135.49,27.1505 134.5,24.5 Z"/></g>
<g><path style="opacity:1" fill="#5f4925" d="M 21.5,41.5 C 29.5558,43.6933 36.5558,47.6933 42.5,53.5C 41.5,53.5 40.5,53.5 39.5,53.5C 36.9949,51.9886 34.3283,50.6553 31.5,49.5C 30.0351,48.2632 28.3684,47.2632 26.5,46.5C 24.5273,45.194 22.8606,43.5273 21.5,41.5 Z"/></g>
<g><path style="opacity:1" fill="#70502b" d="M 75.5,43.5 C 76.404,44.209 76.7373,45.209 76.5,46.5C 77.8333,46.5 79.1667,46.5 80.5,46.5C 80.5,47.5 80.5,48.5 80.5,49.5C 80.5,49.8333 80.5,50.1667 80.5,50.5C 80.4431,51.609 80.1098,52.609 79.5,53.5C 78.8333,53.5 78.1667,53.5 77.5,53.5C 77.5979,51.4471 76.9313,49.7804 75.5,48.5C 75.5,46.8333 75.5,45.1667 75.5,43.5 Z"/></g>
<g><path style="opacity:1" fill="#46372d" d="M 106.5,46.5 C 110.527,46.2808 111.194,47.4475 108.5,50C 107.552,50.4828 106.552,50.6495 105.5,50.5C 105.433,49.0413 105.766,47.7079 106.5,46.5 Z"/></g>
<g><path style="opacity:1" fill="#b64c40" d="M 50.5,28.5 C 52.1667,29.1667 53.8333,29.8333 55.5,30.5C 60.1396,34.4729 64.4729,38.8062 68.5,43.5C 69.0897,47.3163 71.4231,48.9829 75.5,48.5C 76.9313,49.7804 77.5979,51.4471 77.5,53.5C 76.3646,55.2132 74.698,55.8799 72.5,55.5C 72.5,54.5 72.5,53.5 72.5,52.5C 71.448,52.6495 70.448,52.4828 69.5,52C 67.636,49.3123 65.636,46.8123 63.5,44.5C 63.2914,43.0783 62.7914,41.745 62,40.5C 57.963,36.631 54.1296,32.631 50.5,28.5 Z"/></g>
<g><path style="opacity:1" fill="#1b0e05" d="M 104.5,42.5 C 102.902,44.6979 101.569,47.0313 100.5,49.5C 98.953,50.7682 97.953,52.4348 97.5,54.5C 96.596,55.209 96.2627,56.209 96.5,57.5C 95.5,57.5 94.5,57.5 93.5,57.5C 93.7148,55.8212 93.0481,54.8212 91.5,54.5C 90.8333,53.5 90.1667,52.5 89.5,51.5C 91.0443,51.7031 92.3777,52.3698 93.5,53.5C 94.1067,53.3764 94.44,53.0431 94.5,52.5C 96.934,49.1515 99.2673,45.6515 101.5,42C 102.749,41.2599 103.749,41.4265 104.5,42.5 Z"/></g>
<g><path style="opacity:1" fill="#1f1a1a" d="M 122.5,47.5 C 129.995,47.6495 134.995,51.3162 137.5,58.5C 137.36,60.0296 136.693,61.0296 135.5,61.5C 134.5,57.1667 131.833,54.5 127.5,53.5C 124.269,52.2185 120.936,52.2185 117.5,53.5C 111.615,54.3954 108.615,57.8954 108.5,64C 109.093,66.5095 109.259,69.0095 109,71.5C 108.329,70.7476 107.496,70.4142 106.5,70.5C 105.096,66.002 105.763,61.6686 108.5,57.5C 111.772,52.2297 116.439,48.8964 122.5,47.5 Z"/></g>
<g><path style="opacity:1" fill="#723b1c" d="M 121.5,41.5 C 121.842,40.6618 122.508,40.3284 123.5,40.5C 128.232,42.8456 132.899,45.1789 137.5,47.5C 138.301,49.0418 138.634,50.7085 138.5,52.5C 136.016,49.7559 133.016,47.7559 129.5,46.5C 127.516,43.8361 124.849,42.1695 121.5,41.5 Z"/></g>
<g><path style="opacity:1" fill="#2b3651" d="M -0.5,38.5 C 4.64387,40.2641 9.9772,40.9308 15.5,40.5C 18.1561,41.965 20.1561,44.1317 21.5,47C 21.201,48.3204 21.0343,49.8204 21,51.5C 13.8159,57.3176 6.64919,62.9843 -0.5,68.5C -0.5,58.5 -0.5,48.5 -0.5,38.5 Z"/></g>
<g><path style="opacity:1" fill="#a65749" d="M 58.5,39.5 C 60.1675,41.4786 60.8342,43.812 60.5,46.5C 57.964,49.0072 57.1307,52.0072 58,55.5C 60.4426,57.3009 62.9426,58.9676 65.5,60.5C 66.6566,62.678 67.9899,64.678 69.5,66.5C 70.2423,68.4258 71.2423,70.2591 72.5,72C 70.5861,73.8272 68.5861,73.8272 66.5,72C 63.5,69 60.5,66 57.5,63C 56.5632,62.3083 55.8966,62.475 55.5,63.5C 54.0937,63.0269 53.427,62.0269 53.5,60.5C 50.2365,56.06 46.7365,51.7267 43,47.5C 42.7382,43.3686 44.0715,39.702 47,36.5C 49.0176,38.3501 50.8509,40.3501 52.5,42.5C 53.9759,40.4287 55.9759,39.4287 58.5,39.5 Z"/></g>
<g><path style="opacity:1" fill="#845736" d="M 100.5,49.5 C 101.209,50.404 102.209,50.7373 103.5,50.5C 103.185,55.4291 101.185,56.7624 97.5,54.5C 97.953,52.4348 98.953,50.7682 100.5,49.5 Z"/></g>
<g><path style="opacity:1" fill="#33405f" d="M 15.5,40.5 C 17.6208,40.3253 19.6208,40.6586 21.5,41.5C 22.8606,43.5273 24.5273,45.194 26.5,46.5C 25.9033,46.7352 25.5699,47.2352 25.5,48C 27.765,50.4572 28.5984,53.2905 28,56.5C 19.0209,62.1612 13.0209,70.1612 10,80.5C 9.6209,89.1818 6.1209,96.1818 -0.5,101.5C -0.5,90.5 -0.5,79.5 -0.5,68.5C 6.64919,62.9843 13.8159,57.3176 21,51.5C 21.0343,49.8204 21.201,48.3204 21.5,47C 20.1561,44.1317 18.1561,41.965 15.5,40.5 Z"/></g>
<g><path style="opacity:1" fill="#71352c" d="M 63.5,44.5 C 65.636,46.8123 67.636,49.3123 69.5,52C 70.448,52.4828 71.448,52.6495 72.5,52.5C 72.5,53.5 72.5,54.5 72.5,55.5C 72.5,56.1667 72.1667,56.5 71.5,56.5C 71.1034,55.475 70.4368,55.3083 69.5,56C 67.9586,57.3712 66.6253,58.8712 65.5,60.5C 62.9426,58.9676 60.4426,57.3009 58,55.5C 57.1307,52.0072 57.964,49.0072 60.5,46.5C 61.5,45.8333 62.5,45.1667 63.5,44.5 Z"/></g>
<g><path style="opacity:1" fill="#fbae59" d="M 165.5,50.5 C 165.48,52.143 166.147,53.4763 167.5,54.5C 166.675,55.3857 165.675,55.719 164.5,55.5C 164.167,55.5 163.833,55.5 163.5,55.5C 162.01,53.0517 162.677,51.3851 165.5,50.5 Z"/></g>
<g><path style="opacity:1" fill="#623525" d="M 80.5,50.5 C 80.5,50.1667 80.5,49.8333 80.5,49.5C 83.6916,49.4045 86.6916,50.0712 89.5,51.5C 90.1667,52.5 90.8333,53.5 91.5,54.5C 91.687,56.5643 92.187,58.5643 93,60.5C 96.7026,63.8675 100.036,67.5342 103,71.5C 103.464,70.9056 103.631,70.2389 103.5,69.5C 104.338,69.8417 104.672,70.5084 104.5,71.5C 104.5,73.1667 104.5,74.8333 104.5,76.5C 102.265,75.7721 100.432,74.4388 99,72.5C 97.4037,69.6305 95.5703,66.9639 93.5,64.5C 91.5326,61.7845 90.0326,58.7845 89,55.5C 86.6004,53.5854 84.1004,51.9188 81.5,50.5C 81.1667,50.5 80.8333,50.5 80.5,50.5 Z"/></g>
<g><path style="opacity:1" fill="#c7d5e4" d="M 122.5,46.5 C 122.5,46.8333 122.5,47.1667 122.5,47.5C 116.439,48.8964 111.772,52.2297 108.5,57.5C 107.761,57.631 107.094,57.4643 106.5,57C 107.252,56.3292 107.586,55.4959 107.5,54.5C 110.19,51.8154 113.19,49.4821 116.5,47.5C 118.379,46.6586 120.379,46.3253 122.5,46.5 Z"/></g>
<g><path style="opacity:1" fill="#70401d" d="M 162.5,48.5 C 164.179,48.2852 165.179,48.9519 165.5,50.5C 162.677,51.3851 162.01,53.0517 163.5,55.5C 157.996,57.34 153.663,60.6733 150.5,65.5C 150.67,64.1779 150.337,63.0113 149.5,62C 151.167,60.3333 152.833,58.6667 154.5,57C 153.551,56.3828 152.718,56.5494 152,57.5C 151.333,56.8333 151.333,56.1667 152,55.5C 155.154,52.4884 158.654,50.1551 162.5,48.5 Z"/></g>
<g><path style="opacity:1" fill="#3a496d" d="M 31.5,49.5 C 34.3283,50.6553 36.9949,51.9886 39.5,53.5C 38.325,53.281 37.325,53.6143 36.5,54.5C 37.5244,55.8518 38.5244,57.1851 39.5,58.5C 39.5,60.8333 39.5,63.1667 39.5,65.5C 29.9065,65.2653 23.9065,69.7653 21.5,79C 21.8796,82.8812 22.5463,86.7146 23.5,90.5C 20.9686,96.5312 16.6353,100.698 10.5,103C 10.8333,103.333 11.1667,103.667 11.5,104C 8.97295,106.527 6.47295,109.027 4,111.5C 3,114.833 2,118.167 1,121.5C 0.617425,122.056 0.117425,122.389 -0.5,122.5C -0.5,119.833 -0.5,117.167 -0.5,114.5C 3.55574,109.935 7.05574,104.935 10,99.5C 10.9138,100.654 11.7471,100.487 12.5,99C 12.1667,98.6667 11.8333,98.3333 11.5,98C 17.316,92.8995 18.9826,86.5662 16.5,79C 18.5445,75.1179 20.8779,70.9512 23.5,66.5C 27.5039,63.9013 31.5039,61.4013 35.5,59C 34.1151,55.625 32.1151,52.625 29.5,50C 30.0944,49.5357 30.7611,49.369 31.5,49.5 Z"/></g>
<g><path style="opacity:1" fill="#466186" d="M 223.5,-0.5 C 226.167,-0.5 228.833,-0.5 231.5,-0.5C 233.751,3.72944 235.918,8.06278 238,12.5C 240.598,13.68 242.264,15.68 243,18.5C 243.333,18.1667 243.667,17.8333 244,17.5C 245.487,18.2529 245.654,19.0862 244.5,20C 249.746,27.9148 249.413,35.2481 243.5,42C 243.833,42.3333 244.167,42.6667 244.5,43C 238.667,50.8333 232.833,58.6667 227,66.5C 220.88,68.1377 215.046,70.4711 209.5,73.5C 209.389,72.8826 209.056,72.3826 208.5,72C 210.492,71.4257 211.992,70.259 213,68.5C 213.333,68.8333 213.667,69.1667 214,69.5C 215.634,67.9379 217.134,66.2713 218.5,64.5C 228.995,54.6879 238.329,44.5212 246.5,34C 244.877,29.7896 242.877,25.7896 240.5,22C 240.833,21.6667 241.167,21.3333 241.5,21C 240,19.5 238.5,18 237,16.5C 236.667,16.8333 236.333,17.1667 236,17.5C 233.872,14.3699 231.372,11.5366 228.5,9C 228.833,8.66667 229.167,8.33333 229.5,8C 226.619,5.72134 224.619,2.88801 223.5,-0.5 Z"/></g>
<g><path style="opacity:1" fill="#8fa5b4" d="M 127.5,53.5 C 127.769,55.4286 127.269,57.0953 126,58.5C 125.586,58.0426 125.086,57.7093 124.5,57.5C 120.44,60.8553 115.774,62.8553 110.5,63.5C 110.12,61.302 110.787,59.6354 112.5,58.5C 111.972,59.8474 111.805,61.1807 112,62.5C 114.761,61.2042 117.595,60.0375 120.5,59C 122.607,57.7365 123.607,55.9032 123.5,53.5C 121.435,53.5172 119.435,53.8505 117.5,54.5C 117.5,54.1667 117.5,53.8333 117.5,53.5C 120.936,52.2185 124.269,52.2185 127.5,53.5 Z"/></g>
<g><path style="opacity:1" fill="#381a15" d="M 71.5,56.5 C 69.8217,59.5516 69.155,62.8849 69.5,66.5C 67.9899,64.678 66.6566,62.678 65.5,60.5C 66.6253,58.8712 67.9586,57.3712 69.5,56C 70.4368,55.3083 71.1034,55.475 71.5,56.5 Z"/></g>
<g><path style="opacity:1" fill="#3b4c72" d="M 39.5,53.5 C 40.5,53.5 41.5,53.5 42.5,53.5C 43.1667,53.5 43.5,53.8333 43.5,54.5C 42.7109,54.7828 42.0442,55.2828 41.5,56C 43.164,58.9819 44.8306,61.9819 46.5,65C 44.8845,66.6373 43.5512,68.4706 42.5,70.5C 42.6667,71.1667 42.8333,71.8333 43,72.5C 43.8159,71.1772 44.9826,70.5106 46.5,70.5C 44.7484,72.2459 43.4151,74.2459 42.5,76.5C 36.1937,88.7079 32.1937,101.708 30.5,115.5C 29.3509,115.209 28.6842,114.376 28.5,113C 29.4201,109.836 29.7534,106.836 29.5,104C 28.541,102.536 27.2077,101.703 25.5,101.5C 20.5596,103.304 15.893,105.637 11.5,108.5C 8.31365,112.222 5.64699,116.222 3.5,120.5C 6.27863,109.718 12.9453,102.384 23.5,98.5C 25.1851,96.9825 26.6851,95.3159 28,93.5C 29.1919,89.4323 29.5252,85.4323 29,81.5C 31.7352,78.6546 33.7352,75.3213 35,71.5C 36.5615,69.0268 38.5615,67.0268 41,65.5C 41.1667,64.3333 41.3333,63.1667 41.5,62C 41.3917,60.3189 40.7251,59.1522 39.5,58.5C 38.5244,57.1851 37.5244,55.8518 36.5,54.5C 37.325,53.6143 38.325,53.281 39.5,53.5 Z"/></g>
<g><path style="opacity:1" fill="#efe5e3" d="M 44.5,54.5 C 44.8333,54.5 45.1667,54.5 45.5,54.5C 47.8838,56.8847 50.5505,58.8847 53.5,60.5C 53.427,62.0269 54.0937,63.0269 55.5,63.5C 59.4718,67.8073 63.4718,72.1407 67.5,76.5C 63.9934,74.246 60.3267,72.246 56.5,70.5C 50.3017,70.6834 45.9684,73.6834 43.5,79.5C 42.596,78.791 42.2627,77.791 42.5,76.5C 43.4151,74.2459 44.7484,72.2459 46.5,70.5C 49.4352,69.3768 52.4352,68.3768 55.5,67.5C 52.1859,62.8539 48.5192,58.5205 44.5,54.5 Z"/></g>
<g><path style="opacity:1" fill="#953d35" d="M 77.5,53.5 C 78.1667,53.5 78.8333,53.5 79.5,53.5C 79.5531,61.0692 81.3865,68.4026 85,75.5C 88.6824,79.2489 92.0157,83.2489 95,87.5C 94.2211,91.583 96.0544,93.9164 100.5,94.5C 98.983,95.7349 97.3163,95.7349 95.5,94.5C 94.7025,94.9569 94.3691,95.6236 94.5,96.5C 93.194,94.5273 91.5273,92.8606 89.5,91.5C 88.4884,90.1283 87.4884,88.795 86.5,87.5C 85.8333,86.1667 84.8333,85.1667 83.5,84.5C 81.8484,80.5303 79.6817,76.8636 77,73.5C 75.6974,73.9783 74.5307,74.645 73.5,75.5C 71.6208,76.3414 69.6208,76.6747 67.5,76.5C 63.4718,72.1407 59.4718,67.8073 55.5,63.5C 55.8966,62.475 56.5632,62.3083 57.5,63C 60.5,66 63.5,69 66.5,72C 68.5861,73.8272 70.5861,73.8272 72.5,72C 71.2423,70.2591 70.2423,68.4258 69.5,66.5C 69.155,62.8849 69.8217,59.5516 71.5,56.5C 72.1667,56.5 72.5,56.1667 72.5,55.5C 74.698,55.8799 76.3646,55.2132 77.5,53.5 Z"/></g>
<g><path style="opacity:1" fill="#934d23" d="M 91.5,54.5 C 93.0481,54.8212 93.7148,55.8212 93.5,57.5C 94.5,57.5 95.5,57.5 96.5,57.5C 96.2627,56.209 96.596,55.209 97.5,54.5C 97.2011,56.604 97.5344,58.604 98.5,60.5C 99.8333,59.1667 101.167,59.1667 102.5,60.5C 103.182,59.7573 103.849,59.0906 104.5,58.5C 104.371,60.2161 104.038,61.8828 103.5,63.5C 101.863,62.7822 100.197,62.6155 98.5,63C 100.02,64.728 101.686,66.228 103.5,67.5C 103.5,68.1667 103.5,68.8333 103.5,69.5C 103.631,70.2389 103.464,70.9056 103,71.5C 100.036,67.5342 96.7026,63.8675 93,60.5C 92.187,58.5643 91.687,56.5643 91.5,54.5 Z"/></g>
<g><path style="opacity:1" fill="#312f2d" d="M 122.5,47.5 C 122.5,47.1667 122.5,46.8333 122.5,46.5C 124.833,46.5 127.167,46.5 129.5,46.5C 133.016,47.7559 136.016,49.7559 138.5,52.5C 141.231,55.6343 142.564,59.301 142.5,63.5C 142.5,66.1667 142.5,68.8333 142.5,71.5C 141.833,71.8333 141.167,72.1667 140.5,72.5C 140.496,70.1579 139.663,68.1579 138,66.5C 136.004,69.9858 133.837,73.3191 131.5,76.5C 129.747,78.2225 127.747,79.7225 125.5,81C 121.833,81.3333 118.167,81.6667 114.5,82C 117.017,84.2508 120.017,85.0841 123.5,84.5C 121.052,85.4731 118.385,85.8064 115.5,85.5C 113.184,84.1944 110.85,82.8611 108.5,81.5C 108.167,80.5 107.5,79.8333 106.5,79.5C 105.833,78.5 105.167,77.5 104.5,76.5C 104.5,74.8333 104.5,73.1667 104.5,71.5C 106.099,75.0123 108.433,78.0123 111.5,80.5C 111.833,80.3333 112.167,80.1667 112.5,80C 109.353,77.5362 107.353,74.3695 106.5,70.5C 107.496,70.4142 108.329,70.7476 109,71.5C 109.259,69.0095 109.093,66.5095 108.5,64C 108.615,57.8954 111.615,54.3954 117.5,53.5C 117.5,53.8333 117.5,54.1667 117.5,54.5C 115.833,55.8333 114.167,57.1667 112.5,58.5C 110.787,59.6354 110.12,61.302 110.5,63.5C 110.187,67.0419 110.521,70.3752 111.5,73.5C 112.126,77.7402 114.626,79.7402 119,79.5C 124.463,79.3547 128.63,77.0213 131.5,72.5C 135.009,69.7609 136.343,66.0943 135.5,61.5C 136.693,61.0296 137.36,60.0296 137.5,58.5C 134.995,51.3162 129.995,47.6495 122.5,47.5 Z"/></g>
<g><path style="opacity:1" fill="#c1cdd7" d="M 112.5,58.5 C 114.167,57.1667 115.833,55.8333 117.5,54.5C 119.435,53.8505 121.435,53.5172 123.5,53.5C 123.607,55.9032 122.607,57.7365 120.5,59C 117.595,60.0375 114.761,61.2042 112,62.5C 111.805,61.1807 111.972,59.8474 112.5,58.5 Z"/></g>
<g><path style="opacity:1" fill="#475b8c" d="M 43.5,54.5 C 43.8333,54.5 44.1667,54.5 44.5,54.5C 48.5192,58.5205 52.1859,62.8539 55.5,67.5C 52.4352,68.3768 49.4352,69.3768 46.5,70.5C 44.9826,70.5106 43.8159,71.1772 43,72.5C 42.8333,71.8333 42.6667,71.1667 42.5,70.5C 43.5512,68.4706 44.8845,66.6373 46.5,65C 44.8306,61.9819 43.164,58.9819 41.5,56C 42.0442,55.2828 42.7109,54.7828 43.5,54.5 Z"/></g>
<g><path style="opacity:1" fill="#53230e" d="M 103.5,63.5 C 103.5,64.8333 103.5,66.1667 103.5,67.5C 101.686,66.228 100.02,64.728 98.5,63C 100.197,62.6155 101.863,62.7822 103.5,63.5 Z"/></g>
<g><path style="opacity:1" fill="#3d4b6e" d="M 39.5,58.5 C 40.7251,59.1522 41.3917,60.3189 41.5,62C 41.3333,63.1667 41.1667,64.3333 41,65.5C 38.5615,67.0268 36.5615,69.0268 35,71.5C 33.7352,75.3213 31.7352,78.6546 29,81.5C 29.5252,85.4323 29.1919,89.4323 28,93.5C 26.6851,95.3159 25.1851,96.9825 23.5,98.5C 12.9453,102.384 6.27863,109.718 3.5,120.5C 1.4097,127.194 2.74303,133.528 7.5,139.5C 12.389,141.743 17.389,141.909 22.5,140C 27.5592,138.506 31.8925,136.006 35.5,132.5C 36.9845,136.1 38.3178,139.766 39.5,143.5C 26.1667,143.5 12.8333,143.5 -0.5,143.5C -0.5,136.5 -0.5,129.5 -0.5,122.5C 0.117425,122.389 0.617425,122.056 1,121.5C 2,118.167 3,114.833 4,111.5C 6.47295,109.027 8.97295,106.527 11.5,104C 11.1667,103.667 10.8333,103.333 10.5,103C 16.6353,100.698 20.9686,96.5312 23.5,90.5C 22.5463,86.7146 21.8796,82.8812 21.5,79C 23.9065,69.7653 29.9065,65.2653 39.5,65.5C 39.5,63.1667 39.5,60.8333 39.5,58.5 Z"/></g>
<g><path style="opacity:1" fill="#5986a6" d="M 127.5,53.5 C 131.833,54.5 134.5,57.1667 135.5,61.5C 136.343,66.0943 135.009,69.7609 131.5,72.5C 131.326,70.139 130.993,67.8056 130.5,65.5C 127.161,65.8897 123.827,66.3897 120.5,67C 117.598,69.4172 114.598,71.5839 111.5,73.5C 110.521,70.3752 110.187,67.0419 110.5,63.5C 115.774,62.8553 120.44,60.8553 124.5,57.5C 125.086,57.7093 125.586,58.0426 126,58.5C 127.269,57.0953 127.769,55.4286 127.5,53.5 Z"/></g>
<g><path style="opacity:1" fill="#442615" d="M 162.5,48.5 C 158.654,50.1551 155.154,52.4884 152,55.5C 151.333,56.1667 151.333,56.8333 152,57.5C 152.718,56.5494 153.551,56.3828 154.5,57C 152.833,58.6667 151.167,60.3333 149.5,62C 150.337,63.0113 150.67,64.1779 150.5,65.5C 150.5,65.8333 150.5,66.1667 150.5,66.5C 149.06,67.9461 148.393,69.7794 148.5,72C 148.967,76.2465 149.633,80.4131 150.5,84.5C 147.573,83.2427 145.239,81.2427 143.5,78.5C 143.702,76.0504 143.369,73.717 142.5,71.5C 142.5,68.8333 142.5,66.1667 142.5,63.5C 146.5,59.1667 150.5,54.8333 154.5,50.5C 157.006,49.2504 159.673,48.5838 162.5,48.5 Z"/></g>
<g><path style="opacity:1" fill="#374567" d="M 26.5,46.5 C 28.3684,47.2632 30.0351,48.2632 31.5,49.5C 30.7611,49.369 30.0944,49.5357 29.5,50C 32.1151,52.625 34.1151,55.625 35.5,59C 31.5039,61.4013 27.5039,63.9013 23.5,66.5C 20.8779,70.9512 18.5445,75.1179 16.5,79C 18.9826,86.5662 17.316,92.8995 11.5,98C 11.8333,98.3333 12.1667,98.6667 12.5,99C 11.7471,100.487 10.9138,100.654 10,99.5C 7.05574,104.935 3.55574,109.935 -0.5,114.5C -0.5,110.167 -0.5,105.833 -0.5,101.5C 6.1209,96.1818 9.6209,89.1818 10,80.5C 13.0209,70.1612 19.0209,62.1612 28,56.5C 28.5984,53.2905 27.765,50.4572 25.5,48C 25.5699,47.2352 25.9033,46.7352 26.5,46.5 Z"/></g>
<g><path style="opacity:1" fill="#605c5a" d="M 140.5,72.5 C 139.527,74.1392 138.194,75.4726 136.5,76.5C 136.631,75.6236 136.298,74.9569 135.5,74.5C 134.378,75.6302 133.044,76.2969 131.5,76.5C 133.837,73.3191 136.004,69.9858 138,66.5C 139.663,68.1579 140.496,70.1579 140.5,72.5 Z"/></g>
<g><path style="opacity:1" fill="#f4b2a1" d="M 93.5,64.5 C 95.5703,66.9639 97.4037,69.6305 99,72.5C 100.432,74.4388 102.265,75.7721 104.5,76.5C 105.167,77.5 105.833,78.5 106.5,79.5C 103.143,80.5421 99.9759,79.8755 97,77.5C 96.2569,74.4888 94.9235,71.8221 93,69.5C 92.2204,67.6131 92.3871,65.9464 93.5,64.5 Z"/></g>
<g><path style="opacity:1" fill="#6996c0" d="M 131.5,72.5 C 128.63,77.0213 124.463,79.3547 119,79.5C 114.626,79.7402 112.126,77.7402 111.5,73.5C 114.598,71.5839 117.598,69.4172 120.5,67C 123.827,66.3897 127.161,65.8897 130.5,65.5C 130.993,67.8056 131.326,70.139 131.5,72.5 Z"/></g>
<g><path style="opacity:1" fill="#b54e44" d="M 80.5,50.5 C 80.8333,50.5 81.1667,50.5 81.5,50.5C 81.2384,58.1209 82.5717,65.4542 85.5,72.5C 90.1869,76.8551 94.8536,81.1885 99.5,85.5C 101.979,86.7949 104.646,87.7949 107.5,88.5C 107.5,88.8333 107.5,89.1667 107.5,89.5C 105.896,90.287 105.229,91.6203 105.5,93.5C 103.585,93.2155 101.919,93.5489 100.5,94.5C 96.0544,93.9164 94.2211,91.583 95,87.5C 92.0157,83.2489 88.6824,79.2489 85,75.5C 81.3865,68.4026 79.5531,61.0692 79.5,53.5C 80.1098,52.609 80.4431,51.609 80.5,50.5 Z"/></g>
<g><path style="opacity:1" fill="#e17d6c" d="M 81.5,50.5 C 84.1004,51.9188 86.6004,53.5854 89,55.5C 90.0326,58.7845 91.5326,61.7845 93.5,64.5C 92.3871,65.9464 92.2204,67.6131 93,69.5C 94.9235,71.8221 96.2569,74.4888 97,77.5C 99.9759,79.8755 103.143,80.5421 106.5,79.5C 107.5,79.8333 108.167,80.5 108.5,81.5C 106.393,82.4682 104.059,82.8016 101.5,82.5C 101.715,84.1788 101.048,85.1788 99.5,85.5C 94.8536,81.1885 90.1869,76.8551 85.5,72.5C 82.5717,65.4542 81.2384,58.1209 81.5,50.5 Z"/></g>
<g><path style="opacity:1" fill="#16130f" d="M 150.5,66.5 C 150.999,71.4918 151.499,76.4918 152,81.5C 153.044,84.1449 154.544,86.4783 156.5,88.5C 154.5,87.5 152.5,86.5 150.5,85.5C 150.5,85.1667 150.5,84.8333 150.5,84.5C 149.633,80.4131 148.967,76.2465 148.5,72C 148.393,69.7794 149.06,67.9461 150.5,66.5 Z"/></g>
<g><path style="opacity:1" fill="#373132" d="M 163.5,55.5 C 163.833,55.5 164.167,55.5 164.5,55.5C 160.992,57.1907 157.825,59.524 155,62.5C 154.333,64.1667 154.333,65.8333 155,67.5C 158.272,61.722 163.106,58.0553 169.5,56.5C 178.581,57.972 182.248,63.3054 180.5,72.5C 179.833,73.5 179.167,74.5 178.5,75.5C 178.631,74.7611 178.464,74.0944 178,73.5C 176.333,76.1667 174.667,78.8333 173,81.5C 172.184,82.8228 171.017,83.4894 169.5,83.5C 173.276,79.7824 175.609,75.2824 176.5,70C 176.491,66.1437 174.825,63.3104 171.5,61.5C 167.039,60.2831 163.205,61.6164 160,65.5C 158.906,67.0779 158.072,68.7446 157.5,70.5C 156.063,75.0654 156.396,79.3987 158.5,83.5C 160.588,84.9395 162.921,85.6061 165.5,85.5C 162.972,86.1657 160.306,86.8324 157.5,87.5C 157.863,88.1835 158.196,88.8501 158.5,89.5C 158.167,89.5 157.833,89.5 157.5,89.5C 157.167,89.5 156.833,89.5 156.5,89.5C 156.5,89.1667 156.5,88.8333 156.5,88.5C 154.544,86.4783 153.044,84.1449 152,81.5C 151.499,76.4918 150.999,71.4918 150.5,66.5C 150.5,66.1667 150.5,65.8333 150.5,65.5C 153.663,60.6733 157.996,57.34 163.5,55.5 Z"/></g>
<g><path style="opacity:1" fill="#4c799b" d="M 167.5,62.5 C 169.144,62.2865 170.644,62.6198 172,63.5C 173.252,66.0135 173.752,68.6802 173.5,71.5C 170.054,72.9277 166.387,73.7611 162.5,74C 159.38,76.4077 158.047,79.5743 158.5,83.5C 156.396,79.3987 156.063,75.0654 157.5,70.5C 159.516,68.9867 161.849,68.1534 164.5,68C 166.607,66.7365 167.607,64.9032 167.5,62.5 Z"/></g>
<g><path style="opacity:1" fill="#83a0b5" d="M 171.5,61.5 C 169.901,61.2322 168.568,61.5655 167.5,62.5C 167.607,64.9032 166.607,66.7365 164.5,68C 161.849,68.1534 159.516,68.9867 157.5,70.5C 158.072,68.7446 158.906,67.0779 160,65.5C 163.205,61.6164 167.039,60.2831 171.5,61.5 Z"/></g>
<g><path style="opacity:1" fill="#e98878" d="M 142.5,71.5 C 143.369,73.717 143.702,76.0504 143.5,78.5C 142.395,77.3995 141.062,76.7329 139.5,76.5C 140.234,75.2921 140.567,73.9587 140.5,72.5C 141.167,72.1667 141.833,71.8333 142.5,71.5 Z"/></g>
<g><path style="opacity:1" fill="#669fc7" d="M 167.5,62.5 C 168.568,61.5655 169.901,61.2322 171.5,61.5C 174.825,63.3104 176.491,66.1437 176.5,70C 175.609,75.2824 173.276,79.7824 169.5,83.5C 168.167,84.1667 166.833,84.8333 165.5,85.5C 162.921,85.6061 160.588,84.9395 158.5,83.5C 158.047,79.5743 159.38,76.4077 162.5,74C 166.387,73.7611 170.054,72.9277 173.5,71.5C 173.752,68.6802 173.252,66.0135 172,63.5C 170.644,62.6198 169.144,62.2865 167.5,62.5 Z"/></g>
<g><path style="opacity:1" fill="#84848a" d="M 180.5,72.5 C 180.167,75.1667 179.833,77.8333 179.5,80.5C 177.1,83.9031 174.1,86.5698 170.5,88.5C 172.127,86.3702 173.96,84.3702 176,82.5C 177.411,80.3496 178.245,78.0163 178.5,75.5C 179.167,74.5 179.833,73.5 180.5,72.5 Z"/></g>
<g><path style="opacity:1" fill="#435b86" d="M 218.5,64.5 C 217.134,66.2713 215.634,67.9379 214,69.5C 213.667,69.1667 213.333,68.8333 213,68.5C 211.992,70.259 210.492,71.4257 208.5,72C 209.056,72.3826 209.389,72.8826 209.5,73.5C 208.357,73.9081 207.357,74.5748 206.5,75.5C 208.413,76.0512 210.413,76.2179 212.5,76C 211.333,76.5 210.5,77.3333 210,78.5C 209.667,78.1667 209.333,77.8333 209,77.5C 202.738,80.296 197.404,82.9626 193,85.5C 192.667,85.1667 192.333,84.8333 192,84.5C 190.59,85.7875 189.09,86.9542 187.5,88C 192.526,86.7691 197.526,85.1025 202.5,83C 204.81,82.5034 207.143,82.3367 209.5,82.5C 206.272,84.9938 203.105,86.9938 200,88.5C 199.667,88.1667 199.333,87.8333 199,87.5C 196.033,88.7338 193.366,90.4005 191,92.5C 189.442,91.6548 188.442,92.3215 188,94.5C 187.282,93.5494 186.449,93.3828 185.5,94C 184.546,96.6136 184.546,99.4469 185.5,102.5C 183.636,98.4468 181.302,94.6134 178.5,91C 180.167,88.6667 181.833,86.3333 183.5,84C 184.448,83.5172 185.448,83.3505 186.5,83.5C 186.5,82.1667 186.5,80.8333 186.5,79.5C 188.262,76.1595 190.762,74.4929 194,74.5C 195.097,72.9474 196.43,71.614 198,70.5C 201.779,71.4094 205.279,70.7428 208.5,68.5C 212.089,67.702 215.422,66.3687 218.5,64.5 Z"/></g>
<g><path style="opacity:1" fill="#3b4e69" d="M 255.5,45.5 C 255.5,59.1667 255.5,72.8333 255.5,86.5C 253.964,91.9333 252.964,97.6 252.5,103.5C 253.714,105.993 252.714,107.327 249.5,107.5C 249.679,105.046 249.013,102.879 247.5,101C 249.136,98.0457 248.636,95.5457 246,93.5C 245.667,95.8333 245.333,98.1667 245,100.5C 244.617,101.056 244.117,101.389 243.5,101.5C 243.192,96.6248 243.192,91.9581 243.5,87.5C 243.685,89.1958 244.519,90.5291 246,91.5C 245.984,86.6127 246.318,81.6127 247,76.5C 250.656,77.3291 251.156,76.3291 248.5,73.5C 250.441,71.4669 250.775,69.3002 249.5,67C 250.982,60.6393 252.649,54.306 254.5,48C 253.434,46.841 253.767,46.0076 255.5,45.5 Z"/></g>
<g><path style="opacity:1" fill="#636868" d="M 107.5,54.5 C 107.586,55.4959 107.252,56.3292 106.5,57C 107.094,57.4643 107.761,57.631 108.5,57.5C 105.763,61.6686 105.096,66.002 106.5,70.5C 107.353,74.3695 109.353,77.5362 112.5,80C 112.167,80.1667 111.833,80.3333 111.5,80.5C 108.433,78.0123 106.099,75.0123 104.5,71.5C 104.672,70.5084 104.338,69.8417 103.5,69.5C 103.5,68.8333 103.5,68.1667 103.5,67.5C 103.5,66.1667 103.5,64.8333 103.5,63.5C 104.038,61.8828 104.371,60.2161 104.5,58.5C 104.738,56.5956 105.738,55.2623 107.5,54.5 Z"/></g>
<g><path style="opacity:1" fill="#3f5372" d="M 243.5,87.5 C 243.192,91.9581 243.192,96.6248 243.5,101.5C 243.461,102.583 243.127,103.583 242.5,104.5C 238.976,105.533 235.809,107.2 233,109.5C 233.195,107.874 233.195,106.207 233,104.5C 230.517,101.861 228.684,98.8607 227.5,95.5C 226.064,93.917 224.398,92.417 222.5,91C 219.117,90.1245 215.784,89.1245 212.5,88C 214.301,87.6827 214.634,87.016 213.5,86C 214.833,85.6667 216.167,85.3333 217.5,85C 215.498,83.9808 213.498,83.1475 211.5,82.5C 212.365,82.4361 213.365,82.1027 214.5,81.5C 220.5,81.5 226.5,81.5 232.5,81.5C 235.231,82.3739 237.398,81.3739 239,78.5C 239.468,82.1022 240.968,85.1022 243.5,87.5 Z"/></g>
<g><path style="opacity:1" fill="#533a1e" d="M 56.5,70.5 C 60.3267,72.246 63.9934,74.246 67.5,76.5C 69.6208,76.6747 71.6208,76.3414 73.5,75.5C 74.2714,77.1136 75.2714,78.6136 76.5,80C 76.3333,80.5 76.1667,81 76,81.5C 73.4096,82.4498 71.4096,84.1165 70,86.5C 69,85.1667 68,85.1667 67,86.5C 66.6582,84.3808 65.8249,84.0474 64.5,85.5C 63.8333,85.1667 63.1667,84.8333 62.5,84.5C 61.1902,82.8523 59.8569,81.1856 58.5,79.5C 59.311,78.7836 59.9777,77.9503 60.5,77C 58.7703,75.0045 57.4369,72.8379 56.5,70.5 Z"/></g>
<g><path style="opacity:1" fill="#b2aea3" d="M 136.5,76.5 C 133.302,80.9358 128.969,83.6024 123.5,84.5C 120.017,85.0841 117.017,84.2508 114.5,82C 118.167,81.6667 121.833,81.3333 125.5,81C 127.747,79.7225 129.747,78.2225 131.5,76.5C 133.044,76.2969 134.378,75.6302 135.5,74.5C 136.298,74.9569 136.631,75.6236 136.5,76.5 Z"/></g>
<g><path style="opacity:1" fill="#161618" d="M 140.5,72.5 C 140.567,73.9587 140.234,75.2921 139.5,76.5C 136.789,80.2119 133.456,83.2119 129.5,85.5C 129.167,85.5 128.833,85.5 128.5,85.5C 124.493,86.9124 120.493,87.2457 116.5,86.5C 115.833,86.5 115.5,86.1667 115.5,85.5C 118.385,85.8064 121.052,85.4731 123.5,84.5C 128.969,83.6024 133.302,80.9358 136.5,76.5C 138.194,75.4726 139.527,74.1392 140.5,72.5 Z"/></g>
<g><path style="opacity:1" fill="#b6b2ae" d="M 178.5,75.5 C 178.245,78.0163 177.411,80.3496 176,82.5C 173.96,84.3702 172.127,86.3702 170.5,88.5C 168.249,89.0149 166.249,90.0149 164.5,91.5C 163.833,91.5 163.167,91.5 162.5,91.5C 161.833,91.1667 161.167,90.8333 160.5,90.5C 160.158,89.6618 159.492,89.3284 158.5,89.5C 158.196,88.8501 157.863,88.1835 157.5,87.5C 160.306,86.8324 162.972,86.1657 165.5,85.5C 166.833,84.8333 168.167,84.1667 169.5,83.5C 171.017,83.4894 172.184,82.8228 173,81.5C 174.667,78.8333 176.333,76.1667 178,73.5C 178.464,74.0944 178.631,74.7611 178.5,75.5 Z"/></g>
<g><path style="opacity:1" fill="#331c0a" d="M 83.5,84.5 C 85.1119,86.9631 84.6119,88.9631 82,90.5C 81.6045,93.6571 80.7711,96.6571 79.5,99.5C 73.8714,95.5392 68.8714,90.8725 64.5,85.5C 65.8249,84.0474 66.6582,84.3808 67,86.5C 68,85.1667 69,85.1667 70,86.5C 71.4096,84.1165 73.4096,82.4498 76,81.5C 76.1667,81 76.3333,80.5 76.5,80C 75.2714,78.6136 74.2714,77.1136 73.5,75.5C 74.5307,74.645 75.6974,73.9783 77,73.5C 79.6817,76.8636 81.8484,80.5303 83.5,84.5 Z"/></g>
<g><path style="opacity:1" fill="#f79982" d="M 139.5,76.5 C 140.441,78.4664 141.441,80.4664 142.5,82.5C 140.231,83.0046 138.897,84.3379 138.5,86.5C 135.287,86.81 132.287,86.4767 129.5,85.5C 133.456,83.2119 136.789,80.2119 139.5,76.5 Z"/></g>
<g><path style="opacity:1" fill="#f8cbc3" d="M 139.5,76.5 C 141.062,76.7329 142.395,77.3995 143.5,78.5C 145.239,81.2427 147.573,83.2427 150.5,84.5C 150.5,84.8333 150.5,85.1667 150.5,85.5C 149.687,89.9395 148.02,93.9395 145.5,97.5C 144.415,99.5869 142.749,100.92 140.5,101.5C 140.833,100.833 141.167,100.167 141.5,99.5C 142.571,95.8959 144.738,92.8959 148,90.5C 148.49,89.2068 148.657,87.8734 148.5,86.5C 145.167,86.5 141.833,86.5 138.5,86.5C 138.897,84.3379 140.231,83.0046 142.5,82.5C 141.441,80.4664 140.441,78.4664 139.5,76.5 Z"/></g>
<g><path style="opacity:1" fill="#df5242" d="M 108.5,81.5 C 110.85,82.8611 113.184,84.1944 115.5,85.5C 115.5,86.1667 115.833,86.5 116.5,86.5C 115.5,87.1667 114.5,87.8333 113.5,88.5C 111.5,88.5 109.5,88.5 107.5,88.5C 104.646,87.7949 101.979,86.7949 99.5,85.5C 101.048,85.1788 101.715,84.1788 101.5,82.5C 104.059,82.8016 106.393,82.4682 108.5,81.5 Z"/></g>
<g><path style="opacity:1" fill="#3c4765" d="M 255.5,86.5 C 255.5,104.167 255.5,121.833 255.5,139.5C 249.642,139.822 243.975,139.489 238.5,138.5C 240.924,138.808 243.257,138.474 245.5,137.5C 242.337,134.683 240.004,131.35 238.5,127.5C 241.862,123.937 244.862,120.104 247.5,116C 248.994,113.361 249.661,110.528 249.5,107.5C 252.714,107.327 253.714,105.993 252.5,103.5C 252.964,97.6 253.964,91.9333 255.5,86.5 Z"/></g>
<g><path style="opacity:1" fill="#c44540" d="M 128.5,85.5 C 128.833,85.5 129.167,85.5 129.5,85.5C 132.287,86.4767 135.287,86.81 138.5,86.5C 141.833,86.5 145.167,86.5 148.5,86.5C 148.657,87.8734 148.49,89.2068 148,90.5C 144.738,92.8959 142.571,95.8959 141.5,99.5C 140.5,99.5 139.5,99.5 138.5,99.5C 138.323,97.0194 139.323,95.1861 141.5,94C 138.509,89.1709 134.175,87.0043 128.5,87.5C 128.5,86.8333 128.5,86.1667 128.5,85.5 Z"/></g>
<g><path style="opacity:1" fill="#44598e" d="M 183.5,71.5 C 184.167,71.5 184.833,71.5 185.5,71.5C 185.611,72.1174 185.944,72.6174 186.5,73C 184.586,74.4133 183.253,76.2466 182.5,78.5C 183.325,80.7003 184.658,81.0337 186.5,79.5C 186.5,80.8333 186.5,82.1667 186.5,83.5C 185.448,83.3505 184.448,83.5172 183.5,84C 181.833,86.3333 180.167,88.6667 178.5,91C 181.302,94.6134 183.636,98.4468 185.5,102.5C 186.128,105.926 185.461,109.259 183.5,112.5C 182.522,112.811 181.855,113.478 181.5,114.5C 182.602,115.176 183.602,115.842 184.5,116.5C 179.005,115.749 173.672,114.416 168.5,112.5C 163,111.123 162.666,110.123 167.5,109.5C 169.167,109.5 170.833,109.5 172.5,109.5C 172.833,109.5 173.167,109.5 173.5,109.5C 176.719,111.969 179.885,111.635 183,108.5C 183.49,107.207 183.657,105.873 183.5,104.5C 183.16,102.321 182.16,100.488 180.5,99C 177.872,97.3745 175.539,95.3745 173.5,93C 172.563,92.3083 171.897,92.475 171.5,93.5C 169.299,92.4336 166.965,91.767 164.5,91.5C 166.249,90.0149 168.249,89.0149 170.5,88.5C 174.1,86.5698 177.1,83.9031 179.5,80.5C 181.065,78.4907 182.065,76.1573 182.5,73.5C 183.338,73.1583 183.672,72.4916 183.5,71.5 Z"/></g>
<g><path style="opacity:1" fill="#aa5a53" d="M 128.5,85.5 C 128.5,86.1667 128.5,86.8333 128.5,87.5C 129.141,88.4822 129.807,89.4822 130.5,90.5C 127.92,92.9556 127.92,95.4556 130.5,98C 129.906,98.4643 129.239,98.631 128.5,98.5C 121.966,97.34 116.966,94.0067 113.5,88.5C 114.5,87.8333 115.5,87.1667 116.5,86.5C 120.493,87.2457 124.493,86.9124 128.5,85.5 Z"/></g>
<g><path style="opacity:1" fill="#3c4e70" d="M 209.5,82.5 C 210.167,82.5 210.833,82.5 211.5,82.5C 213.498,83.1475 215.498,83.9808 217.5,85C 216.167,85.3333 214.833,85.6667 213.5,86C 214.634,87.016 214.301,87.6827 212.5,88C 215.784,89.1245 219.117,90.1245 222.5,91C 224.398,92.417 226.064,93.917 227.5,95.5C 226.883,95.3893 226.383,95.056 226,94.5C 225.805,96.2072 225.805,97.8739 226,99.5C 223.558,102.117 221.058,104.45 218.5,106.5C 218.19,105.262 217.69,105.262 217,106.5C 216.598,105.128 216.098,103.795 215.5,102.5C 205.104,96.7144 195.771,98.0477 187.5,106.5C 186.846,108.115 186.346,109.782 186,111.5C 185.329,112.252 184.496,112.586 183.5,112.5C 185.461,109.259 186.128,105.926 185.5,102.5C 184.546,99.4469 184.546,96.6136 185.5,94C 186.449,93.3828 187.282,93.5494 188,94.5C 188.442,92.3215 189.442,91.6548 191,92.5C 193.366,90.4005 196.033,88.7338 199,87.5C 199.333,87.8333 199.667,88.1667 200,88.5C 203.105,86.9938 206.272,84.9938 209.5,82.5 Z"/></g>
<g><path style="opacity:1" fill="#b8abba" d="M 42.5,76.5 C 42.2627,77.791 42.596,78.791 43.5,79.5C 40.1195,90.6464 36.9528,101.98 34,113.5C 33.2109,115.712 33.3775,117.712 34.5,119.5C 37.2439,127.397 39.5773,135.397 41.5,143.5C 40.8333,143.5 40.1667,143.5 39.5,143.5C 38.3178,139.766 36.9845,136.1 35.5,132.5C 33.948,126.694 32.2813,121.028 30.5,115.5C 32.1937,101.708 36.1937,88.7079 42.5,76.5 Z"/></g>
<g><path style="opacity:1" fill="#eff1f4" d="M 162.5,91.5 C 163.167,91.5 163.833,91.5 164.5,91.5C 166.965,91.767 169.299,92.4336 171.5,93.5C 175.5,97.1667 179.5,100.833 183.5,104.5C 183.657,105.873 183.49,107.207 183,108.5C 179.885,111.635 176.719,111.969 173.5,109.5C 176.46,109.338 178.293,108.005 179,105.5C 175.085,99.6325 169.918,95.2991 163.5,92.5C 162.833,92.5 162.5,92.1667 162.5,91.5 Z"/></g>
<g><path style="opacity:1" fill="#414e6e" d="M 249.5,107.5 C 249.661,110.528 248.994,113.361 247.5,116C 244.862,120.104 241.862,123.937 238.5,127.5C 237.127,127.657 235.793,127.49 234.5,127C 228.333,122.833 222.167,118.667 216,114.5C 214.989,115.337 213.822,115.67 212.5,115.5C 214.748,112.672 216.748,109.672 218.5,106.5C 221.058,104.45 223.558,102.117 226,99.5C 225.805,97.8739 225.805,96.2072 226,94.5C 226.383,95.056 226.883,95.3893 227.5,95.5C 228.684,98.8607 230.517,101.861 233,104.5C 233.195,106.207 233.195,107.874 233,109.5C 235.809,107.2 238.976,105.533 242.5,104.5C 243.127,103.583 243.461,102.583 243.5,101.5C 244.117,101.389 244.617,101.056 245,100.5C 245.333,98.1667 245.667,95.8333 246,93.5C 248.636,95.5457 249.136,98.0457 247.5,101C 249.013,102.879 249.679,105.046 249.5,107.5 Z"/></g>
<g><path style="opacity:1" fill="#9d7b49" d="M 62.5,84.5 C 63.1667,84.8333 63.8333,85.1667 64.5,85.5C 68.8714,90.8725 73.8714,95.5392 79.5,99.5C 82.1395,101.473 84.4728,103.806 86.5,106.5C 85.475,106.897 85.3083,107.563 86,108.5C 88.3913,109.39 89.8913,111.057 90.5,113.5C 90.3036,115.646 89.3036,115.812 87.5,114C 85.0766,109.973 82.0766,106.473 78.5,103.5C 77.8333,103.5 77.1667,103.5 76.5,103.5C 75.4522,101.466 73.7855,100.133 71.5,99.5C 67.4819,101.009 64.1485,103.509 61.5,107C 60.2559,107.456 59.4226,106.956 59,105.5C 58.6174,106.056 58.1174,106.389 57.5,106.5C 56.5028,106.53 55.8361,106.03 55.5,105C 55.9504,103.715 56.6171,102.548 57.5,101.5C 56.5,100.833 55.5,100.167 54.5,99.5C 55.5,98.1667 56.5,96.8333 57.5,95.5C 57.3764,94.8933 57.0431,94.56 56.5,94.5C 56.9666,91.7026 58.6333,90.3692 61.5,90.5C 61.2053,88.2646 61.5386,86.2646 62.5,84.5 Z"/></g>
<g><path style="opacity:1" fill="#8f423a" d="M 150.5,85.5 C 152.5,86.5 154.5,87.5 156.5,88.5C 156.5,88.8333 156.5,89.1667 156.5,89.5C 153.707,91.4539 151.041,93.6206 148.5,96C 148.728,96.3988 149.062,96.5654 149.5,96.5C 149.5,96.8333 149.5,97.1667 149.5,97.5C 148.167,97.5 146.833,97.5 145.5,97.5C 148.02,93.9395 149.687,89.9395 150.5,85.5 Z"/></g>
<g><path style="opacity:1" fill="#dfbcb3" d="M 156.5,89.5 C 156.833,89.5 157.167,89.5 157.5,89.5C 155.523,92.4682 152.856,94.8016 149.5,96.5C 149.062,96.5654 148.728,96.3988 148.5,96C 151.041,93.6206 153.707,91.4539 156.5,89.5 Z"/></g>
<g><path style="opacity:1" fill="#231609" d="M 83.5,84.5 C 84.8333,85.1667 85.8333,86.1667 86.5,87.5C 85.56,91.4631 85.3933,95.4631 86,99.5C 89.713,103.708 93.213,108.041 96.5,112.5C 92.9219,110.925 89.5886,108.925 86.5,106.5C 84.4728,103.806 82.1395,101.473 79.5,99.5C 80.7711,96.6571 81.6045,93.6571 82,90.5C 84.6119,88.9631 85.1119,86.9631 83.5,84.5 Z"/></g>
<g><path style="opacity:1" fill="#792f2f" d="M 107.5,89.5 C 108.759,90.9791 109.759,92.6458 110.5,94.5C 109.078,94.7086 107.745,95.2086 106.5,96C 105.7,99.106 104.033,101.606 101.5,103.5C 99.8152,102.047 98.1486,100.714 96.5,99.5C 95.0937,99.0269 94.427,98.0269 94.5,96.5C 94.3691,95.6236 94.7025,94.9569 95.5,94.5C 97.3163,95.7349 98.983,95.7349 100.5,94.5C 101.919,93.5489 103.585,93.2155 105.5,93.5C 105.229,91.6203 105.896,90.287 107.5,89.5 Z"/></g>
<g><path style="opacity:1" fill="#8e494a" d="M 128.5,87.5 C 134.175,87.0043 138.509,89.1709 141.5,94C 139.323,95.1861 138.323,97.0194 138.5,99.5C 139.5,99.5 140.5,99.5 141.5,99.5C 141.167,100.167 140.833,100.833 140.5,101.5C 140.167,101.5 139.833,101.5 139.5,101.5C 135.809,100.607 132.142,99.6066 128.5,98.5C 129.239,98.631 129.906,98.4643 130.5,98C 127.92,95.4556 127.92,92.9556 130.5,90.5C 129.807,89.4822 129.141,88.4822 128.5,87.5 Z"/></g>
<g><path style="opacity:1" fill="#153189" d="M 171.5,93.5 C 171.897,92.475 172.563,92.3083 173.5,93C 175.539,95.3745 177.872,97.3745 180.5,99C 182.16,100.488 183.16,102.321 183.5,104.5C 179.5,100.833 175.5,97.1667 171.5,93.5 Z"/></g>
<g><path style="opacity:1" fill="#513b1c" d="M 157.5,89.5 C 157.833,89.5 158.167,89.5 158.5,89.5C 159.492,89.3284 160.158,89.6618 160.5,90.5C 159.685,91.8366 158.518,92.8366 157,93.5C 156.51,94.7932 156.343,96.1266 156.5,97.5C 152.914,99.5797 149.747,102.246 147,105.5C 145.04,109.934 142.54,113.934 139.5,117.5C 138.609,116.739 137.942,115.739 137.5,114.5C 140.269,107.961 144.269,102.295 149.5,97.5C 149.5,97.1667 149.5,96.8333 149.5,96.5C 152.856,94.8016 155.523,92.4682 157.5,89.5 Z"/></g>
<g><path style="opacity:1" fill="#48211c" d="M 89.5,91.5 C 91.5273,92.8606 93.194,94.5273 94.5,96.5C 94.427,98.0269 95.0937,99.0269 96.5,99.5C 99.8238,104.137 103.157,108.804 106.5,113.5C 96.6316,110.126 90.2983,103.292 87.5,93C 87.8361,91.9701 88.5028,91.4701 89.5,91.5 Z"/></g>
<g><path style="opacity:1" fill="#4e121a" d="M 107.5,88.5 C 109.5,88.5 111.5,88.5 113.5,88.5C 116.966,94.0067 121.966,97.34 128.5,98.5C 132.142,99.6066 135.809,100.607 139.5,101.5C 137.196,104.141 134.862,106.808 132.5,109.5C 131.833,109.5 131.167,109.5 130.5,109.5C 128.228,108.681 125.894,108.015 123.5,107.5C 120.833,105.167 118.167,102.833 115.5,100.5C 113.806,99.4726 112.473,98.1392 111.5,96.5C 111.672,95.5084 111.338,94.8417 110.5,94.5C 109.759,92.6458 108.759,90.9791 107.5,89.5C 107.5,89.1667 107.5,88.8333 107.5,88.5 Z"/></g>
<g><path style="opacity:1" fill="#d6cba4" d="M 115.5,100.5 C 115.338,98.4727 115.505,96.4727 116,94.5C 118.833,96.6667 121.667,98.8333 124.5,101C 136.356,103.268 136.356,104.268 124.5,104C 122.359,102.692 120.359,101.192 118.5,99.5C 117.583,100.127 116.583,100.461 115.5,100.5 Z"/></g>
<g><path style="opacity:1" fill="#886f42" d="M 160.5,90.5 C 161.167,90.8333 161.833,91.1667 162.5,91.5C 162.5,92.1667 162.833,92.5 163.5,92.5C 162.09,96.4574 162.757,100.124 165.5,103.5C 169.159,104.101 172.826,104.767 176.5,105.5C 175.133,106.84 173.8,108.173 172.5,109.5C 170.833,109.5 169.167,109.5 167.5,109.5C 165.735,108.539 163.735,108.205 161.5,108.5C 163.042,107.859 164.376,106.859 165.5,105.5C 162.553,104.679 159.553,104.179 156.5,104C 155.395,101.88 155.395,99.7131 156.5,97.5C 156.343,96.1266 156.51,94.7932 157,93.5C 158.518,92.8366 159.685,91.8366 160.5,90.5 Z"/></g>
<g><path style="opacity:1" fill="#c3b177" d="M 163.5,92.5 C 169.918,95.2991 175.085,99.6325 179,105.5C 178.293,108.005 176.46,109.338 173.5,109.5C 173.167,109.5 172.833,109.5 172.5,109.5C 173.8,108.173 175.133,106.84 176.5,105.5C 172.826,104.767 169.159,104.101 165.5,103.5C 162.757,100.124 162.09,96.4574 163.5,92.5 Z"/></g>
<g><path style="opacity:1" fill="#3a4768" d="M 218.5,106.5 C 216.748,109.672 214.748,112.672 212.5,115.5C 212.611,116.117 212.944,116.617 213.5,117C 208.262,119.673 203.596,119.006 199.5,115C 201.394,113.899 202.061,112.566 201.5,111C 202.328,110.085 203.328,109.419 204.5,109C 202.479,108.86 200.645,108.693 199,108.5C 197.609,110.715 195.943,110.715 194,108.5C 192.933,109.191 191.766,109.691 190.5,110C 189.941,110.725 189.608,111.558 189.5,112.5C 191.395,114.631 193.062,116.964 194.5,119.5C 190.786,119.41 187.452,118.41 184.5,116.5C 183.602,115.842 182.602,115.176 181.5,114.5C 181.855,113.478 182.522,112.811 183.5,112.5C 184.496,112.586 185.329,112.252 186,111.5C 186.346,109.782 186.846,108.115 187.5,106.5C 195.771,98.0477 205.104,96.7144 215.5,102.5C 216.098,103.795 216.598,105.128 217,106.5C 217.69,105.262 218.19,105.262 218.5,106.5 Z"/></g>
<g><path style="opacity:1" fill="#87693d" d="M 56.5,70.5 C 57.4369,72.8379 58.7703,75.0045 60.5,77C 59.9777,77.9503 59.311,78.7836 58.5,79.5C 59.8569,81.1856 61.1902,82.8523 62.5,84.5C 61.5386,86.2646 61.2053,88.2646 61.5,90.5C 58.6333,90.3692 56.9666,91.7026 56.5,94.5C 54.8333,95.8333 53.1667,97.1667 51.5,98.5C 50.7611,98.631 50.0944,98.4643 49.5,98C 52.6828,94.9845 55.6828,91.8178 58.5,88.5C 58,88.1667 57.5,87.8333 57,87.5C 55.0888,90.0233 53.2555,90.0233 51.5,87.5C 50.065,89.4011 48.3983,89.7345 46.5,88.5C 41.7664,97.987 42.7664,99.1537 49.5,92C 49.8333,91.8333 50.1667,91.6667 50.5,91.5C 51.521,92.0016 51.6877,92.6683 51,93.5C 48.4904,96.6646 45.3237,98.6646 41.5,99.5C 41.238,100.978 41.5713,102.311 42.5,103.5C 44.3313,102.071 46.3313,101.571 48.5,102C 46.0354,104.531 43.0354,106.031 39.5,106.5C 40.2634,107.719 41.2634,108.719 42.5,109.5C 41.6399,111.931 39.9732,113.264 37.5,113.5C 37.9978,116.487 38.4978,119.487 39,122.5C 39.414,122.043 39.914,121.709 40.5,121.5C 41.2033,124.684 43.2033,126.184 46.5,126C 45.4238,127.726 45.2571,129.559 46,131.5C 47.1096,129.963 48.6096,129.297 50.5,129.5C 50.7215,131.664 51.7215,133.33 53.5,134.5C 55.6297,135.964 56.963,137.964 57.5,140.5C 58.5,140.5 59.5,140.5 60.5,140.5C 60.5,141.5 60.5,142.5 60.5,143.5C 58.8333,143.5 57.1667,143.5 55.5,143.5C 53.3603,142.032 51.1936,140.365 49,138.5C 46.2632,134.899 44.0965,130.899 42.5,126.5C 41.5745,127.641 40.7412,127.641 40,126.5C 36.9109,123.082 35.2442,119.082 35,114.5C 34.5065,116.134 34.3398,117.801 34.5,119.5C 33.3775,117.712 33.2109,115.712 34,113.5C 36.9528,101.98 40.1195,90.6464 43.5,79.5C 45.9684,73.6834 50.3017,70.6834 56.5,70.5 Z"/></g>
<g><path style="opacity:1" fill="#937648" d="M 51.5,98.5 C 51.0945,103.476 49.4278,107.976 46.5,112C 47.3802,113.356 47.7135,114.856 47.5,116.5C 46.1667,116.5 44.8333,116.5 43.5,116.5C 43.5,117.5 43.5,118.5 43.5,119.5C 48.9639,120.266 50.2972,122.933 47.5,127.5C 47.8333,127.833 48.1667,128.167 48.5,128.5C 52.4012,127.197 55.2345,128.53 57,132.5C 57.6667,133.167 57.6667,133.833 57,134.5C 55.4455,132.073 54.2789,132.073 53.5,134.5C 51.7215,133.33 50.7215,131.664 50.5,129.5C 48.6096,129.297 47.1096,129.963 46,131.5C 45.2571,129.559 45.4238,127.726 46.5,126C 43.2033,126.184 41.2033,124.684 40.5,121.5C 39.914,121.709 39.414,122.043 39,122.5C 38.4978,119.487 37.9978,116.487 37.5,113.5C 39.9732,113.264 41.6399,111.931 42.5,109.5C 41.2634,108.719 40.2634,107.719 39.5,106.5C 43.0354,106.031 46.0354,104.531 48.5,102C 46.3313,101.571 44.3313,102.071 42.5,103.5C 41.5713,102.311 41.238,100.978 41.5,99.5C 45.3237,98.6646 48.4904,96.6646 51,93.5C 51.6877,92.6683 51.521,92.0016 50.5,91.5C 50.1667,91.6667 49.8333,91.8333 49.5,92C 42.7664,99.1537 41.7664,97.987 46.5,88.5C 48.3983,89.7345 50.065,89.4011 51.5,87.5C 53.2555,90.0233 55.0888,90.0233 57,87.5C 57.5,87.8333 58,88.1667 58.5,88.5C 55.6828,91.8178 52.6828,94.9845 49.5,98C 50.0944,98.4643 50.7611,98.631 51.5,98.5 Z"/></g>
<g><path style="opacity:1" fill="#4e3919" d="M 86.5,87.5 C 87.4884,88.795 88.4884,90.1283 89.5,91.5C 88.5028,91.4701 87.8361,91.9701 87.5,93C 90.2983,103.292 96.6316,110.126 106.5,113.5C 107.625,115.129 108.959,116.629 110.5,118C 107.564,117.346 104.564,116.513 101.5,115.5C 100.893,115.624 100.56,115.957 100.5,116.5C 99.8333,116.167 99.1667,115.833 98.5,115.5C 97.8333,114.5 97.1667,113.5 96.5,112.5C 93.213,108.041 89.713,103.708 86,99.5C 85.3933,95.4631 85.56,91.4631 86.5,87.5 Z"/></g>
<g><path style="opacity:1" fill="#445379" d="M 30.5,115.5 C 32.2813,121.028 33.948,126.694 35.5,132.5C 31.8925,136.006 27.5592,138.506 22.5,140C 17.389,141.909 12.389,141.743 7.5,139.5C 2.74303,133.528 1.4097,127.194 3.5,120.5C 5.64699,116.222 8.31365,112.222 11.5,108.5C 15.893,105.637 20.5596,103.304 25.5,101.5C 27.2077,101.703 28.541,102.536 29.5,104C 29.7534,106.836 29.4201,109.836 28.5,113C 28.6842,114.376 29.3509,115.209 30.5,115.5 Z"/></g>
<g><path style="opacity:1" fill="#904646" d="M 110.5,94.5 C 111.338,94.8417 111.672,95.5084 111.5,96.5C 108.512,96.1547 107.179,97.488 107.5,100.5C 107.623,105.934 108.957,110.934 111.5,115.5C 109.833,114.833 108.167,114.167 106.5,113.5C 103.157,108.804 99.8238,104.137 96.5,99.5C 98.1486,100.714 99.8152,102.047 101.5,103.5C 104.033,101.606 105.7,99.106 106.5,96C 107.745,95.2086 109.078,94.7086 110.5,94.5 Z"/></g>
<g><path style="opacity:1" fill="#b2a48d" d="M 161.5,108.5 C 163.735,108.205 165.735,108.539 167.5,109.5C 162.666,110.123 163,111.123 168.5,112.5C 168.5,113.167 168.5,113.833 168.5,114.5C 167.833,114.5 167.167,114.5 166.5,114.5C 164.838,113.015 163.005,111.682 161,110.5C 158.391,110.838 156.224,111.838 154.5,113.5C 153.833,113.5 153.5,113.833 153.5,114.5C 152.094,114.973 151.427,115.973 151.5,117.5C 150.833,118.5 150.167,119.5 149.5,120.5C 148.624,120.631 147.957,120.298 147.5,119.5C 150.32,113.43 154.987,109.763 161.5,108.5 Z"/></g>
<g><path style="opacity:1" fill="#7f4144" d="M 123.5,107.5 C 125.894,108.015 128.228,108.681 130.5,109.5C 130.196,110.15 129.863,110.817 129.5,111.5C 126.572,112.484 123.572,112.817 120.5,112.5C 118.616,112.288 117.283,111.288 116.5,109.5C 118.969,108.832 121.302,108.165 123.5,107.5 Z"/></g>
<g><path style="opacity:1" fill="#e3a3a2" d="M 139.5,101.5 C 139.833,101.5 140.167,101.5 140.5,101.5C 138.885,104.45 136.885,107.116 134.5,109.5C 133.299,111.909 131.633,113.909 129.5,115.5C 129.062,115.565 128.728,115.399 128.5,115C 130.439,113.568 131.772,111.735 132.5,109.5C 134.862,106.808 137.196,104.141 139.5,101.5 Z"/></g>
<g><path style="opacity:1" fill="#cba060" d="M 76.5,103.5 C 77.1667,103.5 77.8333,103.5 78.5,103.5C 77.9447,105.729 76.6114,107.395 74.5,108.5C 77.5171,110.286 77.8504,112.786 75.5,116C 77.9111,115.948 80.2445,115.615 82.5,115C 81.3235,116.674 79.9902,118.174 78.5,119.5C 80.4016,121.864 81.7349,124.531 82.5,127.5C 84.1667,126.5 85.5,125.167 86.5,123.5C 86.8333,123.833 87.1667,124.167 87.5,124.5C 86.066,126.22 85.2326,128.22 85,130.5C 84.3109,131.357 83.4776,132.023 82.5,132.5C 81.3289,130.158 80.1622,127.824 79,125.5C 78.3333,124.167 77.6667,124.167 77,125.5C 77.4569,127.994 78.2902,130.494 79.5,133C 75.7245,137.673 76.7245,138.506 82.5,135.5C 82.297,137.638 81.297,139.305 79.5,140.5C 79.9569,141.298 80.6236,141.631 81.5,141.5C 81.1667,142.167 80.8333,142.833 80.5,143.5C 76.5,143.5 72.5,143.5 68.5,143.5C 69.8102,140.049 69.4769,136.716 67.5,133.5C 68.3628,131.128 69.5295,131.128 71,133.5C 71.0148,130 69.3481,129 66,130.5C 61.3868,127.289 61.8868,126.122 67.5,127C 69.3877,125.05 70.5544,122.883 71,120.5C 65.4384,125.988 64.605,125.488 68.5,119C 67.4495,117.615 66.1161,116.615 64.5,116C 66.847,114.914 66.847,113.581 64.5,112C 65.1133,108.55 67.1133,106.716 70.5,106.5C 69.9478,108.331 69.9478,109.997 70.5,111.5C 71.5,111 72.5,110.5 73.5,110C 72.4829,108.951 72.3162,107.784 73,106.5C 74.5185,105.837 75.6851,104.837 76.5,103.5 Z"/></g>
<g><path style="opacity:1" fill="#b15550" d="M 111.5,96.5 C 112.473,98.1392 113.806,99.4726 115.5,100.5C 118.167,102.833 120.833,105.167 123.5,107.5C 121.302,108.165 118.969,108.832 116.5,109.5C 117.283,111.288 118.616,112.288 120.5,112.5C 119.438,113.575 119.438,114.575 120.5,115.5C 122.801,116.325 125.135,116.992 127.5,117.5C 125.412,118.201 123.412,119.201 121.5,120.5C 120.167,120.5 118.833,120.5 117.5,120.5C 115.249,119.182 113.249,117.516 111.5,115.5C 108.957,110.934 107.623,105.934 107.5,100.5C 107.179,97.488 108.512,96.1547 111.5,96.5 Z"/></g>
<g><path style="opacity:1" fill="#ddc69c" d="M 86.5,106.5 C 89.5886,108.925 92.9219,110.925 96.5,112.5C 97.1667,113.5 97.8333,114.5 98.5,115.5C 97.8333,115.5 97.5,115.833 97.5,116.5C 95.2872,115.227 92.9538,114.227 90.5,113.5C 89.8913,111.057 88.3913,109.39 86,108.5C 85.3083,107.563 85.475,106.897 86.5,106.5 Z"/></g>
<g><path style="opacity:1" fill="#e68486" d="M 130.5,109.5 C 131.167,109.5 131.833,109.5 132.5,109.5C 131.772,111.735 130.439,113.568 128.5,115C 128.728,115.399 129.062,115.565 129.5,115.5C 129.167,116.5 128.5,117.167 127.5,117.5C 125.135,116.992 122.801,116.325 120.5,115.5C 119.438,114.575 119.438,113.575 120.5,112.5C 123.572,112.817 126.572,112.484 129.5,111.5C 129.863,110.817 130.196,110.15 130.5,109.5 Z"/></g>
<g><path style="opacity:1" fill="#6a3b0f" d="M 166.5,114.5 C 166.5,114.833 166.5,115.167 166.5,115.5C 162.5,114.833 158.5,114.167 154.5,113.5C 156.224,111.838 158.391,110.838 161,110.5C 163.005,111.682 164.838,113.015 166.5,114.5 Z"/></g>
<g><path style="opacity:1" fill="#9e7f4f" d="M 56.5,94.5 C 57.0431,94.56 57.3764,94.8933 57.5,95.5C 56.5,96.8333 55.5,98.1667 54.5,99.5C 55.5,100.167 56.5,100.833 57.5,101.5C 56.6171,102.548 55.9504,103.715 55.5,105C 55.8361,106.03 56.5028,106.53 57.5,106.5C 56.1325,108.142 55.7992,109.808 56.5,111.5C 57.1667,110.833 57.8333,110.167 58.5,109.5C 58.8333,110 59.1667,110.5 59.5,111C 58.7827,112.531 57.7827,113.864 56.5,115C 55.1667,117 55.1667,119 56.5,121C 54.0263,123.802 54.6929,125.969 58.5,127.5C 59.2811,128.729 59.7811,130.062 60,131.5C 60.9653,129.74 62.132,129.406 63.5,130.5C 62.9506,134.632 62.6173,138.965 62.5,143.5C 61.8333,143.5 61.1667,143.5 60.5,143.5C 60.5,142.5 60.5,141.5 60.5,140.5C 59.5,140.5 58.5,140.5 57.5,140.5C 56.963,137.964 55.6297,135.964 53.5,134.5C 54.2789,132.073 55.4455,132.073 57,134.5C 57.6667,133.833 57.6667,133.167 57,132.5C 55.2345,128.53 52.4012,127.197 48.5,128.5C 48.1667,128.167 47.8333,127.833 47.5,127.5C 50.2972,122.933 48.9639,120.266 43.5,119.5C 43.5,118.5 43.5,117.5 43.5,116.5C 44.8333,116.5 46.1667,116.5 47.5,116.5C 47.7135,114.856 47.3802,113.356 46.5,112C 49.4278,107.976 51.0945,103.476 51.5,98.5C 53.1667,97.1667 54.8333,95.8333 56.5,94.5 Z"/></g>
<g><path style="opacity:1" fill="#5d4222" d="M 156.5,97.5 C 155.395,99.7131 155.395,101.88 156.5,104C 159.553,104.179 162.553,104.679 165.5,105.5C 164.376,106.859 163.042,107.859 161.5,108.5C 154.987,109.763 150.32,113.43 147.5,119.5C 147.957,120.298 148.624,120.631 149.5,120.5C 149.5,121.167 149.5,121.833 149.5,122.5C 148.167,122.5 147.5,123.167 147.5,124.5C 146.503,124.47 145.836,124.97 145.5,126C 145.878,127.635 146.544,129.135 147.5,130.5C 148.107,130.376 148.44,130.043 148.5,129.5C 151.134,131.519 150.967,133.519 148,135.5C 147.51,136.793 147.343,138.127 147.5,139.5C 146.5,139.5 145.5,139.5 144.5,139.5C 144.665,136.15 144.498,132.817 144,129.5C 142.648,131.594 142.148,133.927 142.5,136.5C 141.5,136.5 140.5,136.5 139.5,136.5C 138.738,130.119 138.738,123.785 139.5,117.5C 142.54,113.934 145.04,109.934 147,105.5C 149.747,102.246 152.914,99.5797 156.5,97.5 Z"/></g>
<g><path style="opacity:1" fill="#41240a" d="M 153.5,114.5 C 153.5,113.833 153.833,113.5 154.5,113.5C 158.5,114.167 162.5,114.833 166.5,115.5C 171.574,118.27 176.907,120.437 182.5,122C 185.553,122.179 188.553,122.679 191.5,123.5C 190.995,124.919 189.995,125.585 188.5,125.5C 187.5,125.5 186.5,125.5 185.5,125.5C 185.657,126.873 185.49,128.207 185,129.5C 182.635,130.289 180.468,131.456 178.5,133C 179.793,133.49 181.127,133.657 182.5,133.5C 179.713,134.477 176.713,134.81 173.5,134.5C 173.297,132.61 173.963,131.11 175.5,130C 177.955,128.688 180.455,127.522 183,126.5C 183.483,125.552 183.649,124.552 183.5,123.5C 180.421,123.26 177.421,123.593 174.5,124.5C 169.885,119.829 164.219,117.495 157.5,117.5C 157.5,116.5 157.5,115.5 157.5,114.5C 156.167,114.5 154.833,114.5 153.5,114.5 Z"/></g>
<g><path style="opacity:1" fill="#3c4467" d="M 212.5,115.5 C 213.822,115.67 214.989,115.337 216,114.5C 222.167,118.667 228.333,122.833 234.5,127C 235.793,127.49 237.127,127.657 238.5,127.5C 240.004,131.35 242.337,134.683 245.5,137.5C 243.257,138.474 240.924,138.808 238.5,138.5C 237.055,136.937 235.389,135.604 233.5,134.5C 233.167,134.5 232.833,134.5 232.5,134.5C 226.036,129.559 219.37,124.726 212.5,120C 206.359,120.665 200.359,120.498 194.5,119.5C 193.062,116.964 191.395,114.631 189.5,112.5C 189.608,111.558 189.941,110.725 190.5,110C 191.766,109.691 192.933,109.191 194,108.5C 195.943,110.715 197.609,110.715 199,108.5C 200.645,108.693 202.479,108.86 204.5,109C 203.328,109.419 202.328,110.085 201.5,111C 202.061,112.566 201.394,113.899 199.5,115C 203.596,119.006 208.262,119.673 213.5,117C 212.944,116.617 212.611,116.117 212.5,115.5 Z"/></g>
<g><path style="opacity:1" fill="#382111" d="M 106.5,113.5 C 108.167,114.167 109.833,114.833 111.5,115.5C 113.249,117.516 115.249,119.182 117.5,120.5C 116.602,121.158 115.602,121.824 114.5,122.5C 114.863,123.183 115.196,123.85 115.5,124.5C 114.833,124.5 114.167,124.5 113.5,124.5C 109.027,122.095 104.694,119.429 100.5,116.5C 100.56,115.957 100.893,115.624 101.5,115.5C 104.564,116.513 107.564,117.346 110.5,118C 108.959,116.629 107.625,115.129 106.5,113.5 Z"/></g>
<g><path style="opacity:1" fill="#b07332" d="M 166.5,115.5 C 166.5,115.167 166.5,114.833 166.5,114.5C 167.167,114.5 167.833,114.5 168.5,114.5C 176.398,117.142 184.398,119.475 192.5,121.5C 192.5,122.833 192.5,124.167 192.5,125.5C 194.833,125.5 197.167,125.5 199.5,125.5C 196.305,126.236 192.971,126.903 189.5,127.5C 188.702,127.043 188.369,126.376 188.5,125.5C 189.995,125.585 190.995,124.919 191.5,123.5C 188.553,122.679 185.553,122.179 182.5,122C 176.907,120.437 171.574,118.27 166.5,115.5 Z"/></g>
<g><path style="opacity:1" fill="#201104" d="M 134.5,109.5 C 135.183,113.144 133.849,116.311 130.5,119C 132.648,121.075 132.982,123.408 131.5,126C 133.094,131.685 133.76,137.518 133.5,143.5C 131.833,143.5 130.167,143.5 128.5,143.5C 124.667,136.324 119.667,129.99 113.5,124.5C 114.167,124.5 114.833,124.5 115.5,124.5C 123.239,132.099 125.239,130.766 121.5,120.5C 123.412,119.201 125.412,118.201 127.5,117.5C 128.5,117.167 129.167,116.5 129.5,115.5C 131.633,113.909 133.299,111.909 134.5,109.5 Z"/></g>
<g><path style="opacity:1" fill="#ebe5df" d="M 168.5,112.5 C 173.672,114.416 179.005,115.749 184.5,116.5C 187.452,118.41 190.786,119.41 194.5,119.5C 200.359,120.498 206.359,120.665 212.5,120C 219.37,124.726 226.036,129.559 232.5,134.5C 231.833,134.5 231.167,134.5 230.5,134.5C 228.368,132.045 225.701,130.379 222.5,129.5C 219.414,126.777 216.08,124.277 212.5,122C 210.465,121.401 208.799,121.901 207.5,123.5C 204.733,123.858 202.067,124.525 199.5,125.5C 197.167,125.5 194.833,125.5 192.5,125.5C 192.5,124.167 192.5,122.833 192.5,121.5C 184.398,119.475 176.398,117.142 168.5,114.5C 168.5,113.833 168.5,113.167 168.5,112.5 Z"/></g>
<g><path style="opacity:1" fill="#483616" d="M 117.5,120.5 C 118.833,120.5 120.167,120.5 121.5,120.5C 125.239,130.766 123.239,132.099 115.5,124.5C 115.196,123.85 114.863,123.183 114.5,122.5C 115.602,121.824 116.602,121.158 117.5,120.5 Z"/></g>
<g><path style="opacity:1" fill="#b6915a" d="M 76.5,103.5 C 75.6851,104.837 74.5185,105.837 73,106.5C 72.3162,107.784 72.4829,108.951 73.5,110C 72.5,110.5 71.5,111 70.5,111.5C 69.9478,109.997 69.9478,108.331 70.5,106.5C 67.1133,106.716 65.1133,108.55 64.5,112C 66.847,113.581 66.847,114.914 64.5,116C 66.1161,116.615 67.4495,117.615 68.5,119C 64.605,125.488 65.4384,125.988 71,120.5C 70.5544,122.883 69.3877,125.05 67.5,127C 61.8868,126.122 61.3868,127.289 66,130.5C 69.3481,129 71.0148,130 71,133.5C 69.5295,131.128 68.3628,131.128 67.5,133.5C 69.4769,136.716 69.8102,140.049 68.5,143.5C 66.5,143.5 64.5,143.5 62.5,143.5C 62.6173,138.965 62.9506,134.632 63.5,130.5C 62.132,129.406 60.9653,129.74 60,131.5C 59.7811,130.062 59.2811,128.729 58.5,127.5C 54.6929,125.969 54.0263,123.802 56.5,121C 55.1667,119 55.1667,117 56.5,115C 57.7827,113.864 58.7827,112.531 59.5,111C 59.1667,110.5 58.8333,110 58.5,109.5C 57.8333,110.167 57.1667,110.833 56.5,111.5C 55.7992,109.808 56.1325,108.142 57.5,106.5C 58.1174,106.389 58.6174,106.056 59,105.5C 59.4226,106.956 60.2559,107.456 61.5,107C 64.1485,103.509 67.4819,101.009 71.5,99.5C 73.7855,100.133 75.4522,101.466 76.5,103.5 Z"/></g>
<g><path style="opacity:1" fill="#d0ae6c" d="M 106.5,127.5 C 99.6386,133.433 91.972,138.1 83.5,141.5C 88.4751,136.872 93.8084,132.538 99.5,128.5C 98.4116,127.066 97.0783,126.066 95.5,125.5C 95.4701,124.503 95.9701,123.836 97,123.5C 98.4402,124.607 99.9402,124.607 101.5,123.5C 104.225,123.676 105.892,125.01 106.5,127.5 Z"/></g>
<g><path style="opacity:1" fill="#ab641d" d="M 222.5,129.5 C 217.603,127.217 212.603,125.217 207.5,123.5C 208.799,121.901 210.465,121.401 212.5,122C 216.08,124.277 219.414,126.777 222.5,129.5 Z"/></g>
<g><path style="opacity:1" fill="#f4eee6" d="M 97.5,116.5 C 97.5,115.833 97.8333,115.5 98.5,115.5C 99.1667,115.833 99.8333,116.167 100.5,116.5C 104.694,119.429 109.027,122.095 113.5,124.5C 119.667,129.99 124.667,136.324 128.5,143.5C 127.5,143.5 126.5,143.5 125.5,143.5C 121.833,135.833 116.167,130.167 108.5,126.5C 105.064,122.943 101.397,119.609 97.5,116.5 Z"/></g>
<g><path style="opacity:1" fill="#82470f" d="M 147.5,124.5 C 148.451,125.919 148.784,127.585 148.5,129.5C 148.44,130.043 148.107,130.376 147.5,130.5C 146.544,129.135 145.878,127.635 145.5,126C 145.836,124.97 146.503,124.47 147.5,124.5 Z"/></g>
<g><path style="opacity:1" fill="#5a3717" d="M 207.5,123.5 C 212.603,125.217 217.603,127.217 222.5,129.5C 225.701,130.379 228.368,132.045 230.5,134.5C 223.975,134.529 217.975,132.862 212.5,129.5C 202.834,133.099 192.834,134.432 182.5,133.5C 181.127,133.657 179.793,133.49 178.5,133C 180.468,131.456 182.635,130.289 185,129.5C 185.49,128.207 185.657,126.873 185.5,125.5C 186.5,125.5 187.5,125.5 188.5,125.5C 188.369,126.376 188.702,127.043 189.5,127.5C 192.971,126.903 196.305,126.236 199.5,125.5C 202.067,124.525 204.733,123.858 207.5,123.5 Z"/></g>
<g><path style="opacity:1" fill="#6c522c" d="M 55.5,143.5 C 50.8333,143.5 46.1667,143.5 41.5,143.5C 39.5773,135.397 37.2439,127.397 34.5,119.5C 34.3398,117.801 34.5065,116.134 35,114.5C 35.2442,119.082 36.9109,123.082 40,126.5C 40.7412,127.641 41.5745,127.641 42.5,126.5C 44.0965,130.899 46.2632,134.899 49,138.5C 51.1936,140.365 53.3603,142.032 55.5,143.5 Z"/></g>
<g><path style="opacity:1" fill="#110903" d="M 151.5,117.5 C 157,118.228 160.333,121.228 161.5,126.5C 169.019,125.798 170.686,128.298 166.5,134C 162.228,134.713 160.895,136.88 162.5,140.5C 163.11,141.391 163.443,142.391 163.5,143.5C 158.833,143.5 154.167,143.5 149.5,143.5C 150.72,141.337 150.72,139.17 149.5,137C 150.62,135.263 151.62,133.429 152.5,131.5C 150.974,128.691 149.974,125.691 149.5,122.5C 149.5,121.833 149.5,121.167 149.5,120.5C 150.167,119.5 150.833,118.5 151.5,117.5 Z"/></g>
<g><path style="opacity:1" fill="#150b01" d="M 224.5,143.5 C 204.167,143.5 183.833,143.5 163.5,143.5C 163.443,142.391 163.11,141.391 162.5,140.5C 165.474,139.349 168.474,138.183 171.5,137C 184.281,135.305 196.948,134.138 209.5,133.5C 209.023,134.478 208.357,135.311 207.5,136C 211.549,136.113 215.215,137.28 218.5,139.5C 222.301,137.954 224.301,139.287 224.5,143.5 Z"/></g>
<g><path style="opacity:1" fill="#c19457" d="M 78.5,103.5 C 82.0766,106.473 85.0766,109.973 87.5,114C 89.3036,115.812 90.3036,115.646 90.5,113.5C 92.9538,114.227 95.2872,115.227 97.5,116.5C 101.397,119.609 105.064,122.943 108.5,126.5C 107.833,126.833 107.167,127.167 106.5,127.5C 105.892,125.01 104.225,123.676 101.5,123.5C 99.9402,124.607 98.4402,124.607 97,123.5C 95.9701,123.836 95.4701,124.503 95.5,125.5C 94.0783,125.709 92.745,126.209 91.5,127C 88.5816,130.097 85.5816,132.93 82.5,135.5C 76.7245,138.506 75.7245,137.673 79.5,133C 78.2902,130.494 77.4569,127.994 77,125.5C 77.6667,124.167 78.3333,124.167 79,125.5C 80.1622,127.824 81.3289,130.158 82.5,132.5C 83.4776,132.023 84.3109,131.357 85,130.5C 85.2326,128.22 86.066,126.22 87.5,124.5C 87.1667,124.167 86.8333,123.833 86.5,123.5C 85.5,125.167 84.1667,126.5 82.5,127.5C 81.7349,124.531 80.4016,121.864 78.5,119.5C 79.9902,118.174 81.3235,116.674 82.5,115C 80.2445,115.615 77.9111,115.948 75.5,116C 77.8504,112.786 77.5171,110.286 74.5,108.5C 76.6114,107.395 77.9447,105.729 78.5,103.5 Z"/></g>
<g><path style="opacity:1" fill="#98713b" d="M 108.5,126.5 C 116.167,130.167 121.833,135.833 125.5,143.5C 123.833,143.5 122.167,143.5 120.5,143.5C 120.586,142.504 120.252,141.671 119.5,141C 116.116,138.412 112.449,136.578 108.5,135.5C 107.167,135.667 105.833,135.833 104.5,136C 100.072,138.541 95.7384,141.041 91.5,143.5C 87.8333,143.5 84.1667,143.5 80.5,143.5C 80.8333,142.833 81.1667,142.167 81.5,141.5C 82.1667,141.5 82.8333,141.5 83.5,141.5C 91.972,138.1 99.6386,133.433 106.5,127.5C 107.167,127.167 107.833,126.833 108.5,126.5 Z"/></g>
<g><path style="opacity:1" fill="#221406" d="M 153.5,114.5 C 154.833,114.5 156.167,114.5 157.5,114.5C 157.5,115.5 157.5,116.5 157.5,117.5C 164.219,117.495 169.885,119.829 174.5,124.5C 177.421,123.593 180.421,123.26 183.5,123.5C 183.649,124.552 183.483,125.552 183,126.5C 180.455,127.522 177.955,128.688 175.5,130C 173.963,131.11 173.297,132.61 173.5,134.5C 176.713,134.81 179.713,134.477 182.5,133.5C 192.834,134.432 202.834,133.099 212.5,129.5C 217.975,132.862 223.975,134.529 230.5,134.5C 232.336,137.168 234.669,139.334 237.5,141C 241.956,140.898 245.956,141.732 249.5,143.5C 241.167,143.5 232.833,143.5 224.5,143.5C 224.301,139.287 222.301,137.954 218.5,139.5C 215.215,137.28 211.549,136.113 207.5,136C 208.357,135.311 209.023,134.478 209.5,133.5C 196.948,134.138 184.281,135.305 171.5,137C 168.474,138.183 165.474,139.349 162.5,140.5C 160.895,136.88 162.228,134.713 166.5,134C 170.686,128.298 169.019,125.798 161.5,126.5C 160.333,121.228 157,118.228 151.5,117.5C 151.427,115.973 152.094,114.973 153.5,114.5 Z"/></g>
<g><path style="opacity:1" fill="#e4be6a" d="M 95.5,125.5 C 97.0783,126.066 98.4116,127.066 99.5,128.5C 93.8084,132.538 88.4751,136.872 83.5,141.5C 82.8333,141.5 82.1667,141.5 81.5,141.5C 80.6236,141.631 79.9569,141.298 79.5,140.5C 81.297,139.305 82.297,137.638 82.5,135.5C 85.5816,132.93 88.5816,130.097 91.5,127C 92.745,126.209 94.0783,125.709 95.5,125.5 Z"/></g>
<g><path style="opacity:1" fill="#d1c7b9" d="M 149.5,122.5 C 149.974,125.691 150.974,128.691 152.5,131.5C 151.62,133.429 150.62,135.263 149.5,137C 150.72,139.17 150.72,141.337 149.5,143.5C 148.5,143.5 147.5,143.5 146.5,143.5C 146.833,142.167 147.167,140.833 147.5,139.5C 147.343,138.127 147.51,136.793 148,135.5C 150.967,133.519 151.134,131.519 148.5,129.5C 148.784,127.585 148.451,125.919 147.5,124.5C 147.5,123.167 148.167,122.5 149.5,122.5 Z"/></g>
<g><path style="opacity:1" fill="#c6b59a" d="M 233.5,134.5 C 235.389,135.604 237.055,136.937 238.5,138.5C 235.796,138.33 234.129,136.997 233.5,134.5 Z"/></g>
<g><path style="opacity:1" fill="#39210a" d="M 145.5,97.5 C 146.833,97.5 148.167,97.5 149.5,97.5C 144.269,102.295 140.269,107.961 137.5,114.5C 137.942,115.739 138.609,116.739 139.5,117.5C 138.738,123.785 138.738,130.119 139.5,136.5C 140.5,136.5 141.5,136.5 142.5,136.5C 142.148,133.927 142.648,131.594 144,129.5C 144.498,132.817 144.665,136.15 144.5,139.5C 145.5,139.5 146.5,139.5 147.5,139.5C 147.167,140.833 146.833,142.167 146.5,143.5C 142.167,143.5 137.833,143.5 133.5,143.5C 133.76,137.518 133.094,131.685 131.5,126C 132.982,123.408 132.648,121.075 130.5,119C 133.849,116.311 135.183,113.144 134.5,109.5C 136.885,107.116 138.885,104.45 140.5,101.5C 142.749,100.92 144.415,99.5869 145.5,97.5 Z"/></g>
<g><path style="opacity:1" fill="#2b1a0d" d="M 120.5,143.5 C 110.833,143.5 101.167,143.5 91.5,143.5C 95.7384,141.041 100.072,138.541 104.5,136C 105.833,135.833 107.167,135.667 108.5,135.5C 112.449,136.578 116.116,138.412 119.5,141C 120.252,141.671 120.586,142.504 120.5,143.5 Z"/></g>
<g><path style="opacity:1" fill="#986234" d="M 230.5,134.5 C 231.167,134.5 231.833,134.5 232.5,134.5C 232.833,134.5 233.167,134.5 233.5,134.5C 234.129,136.997 235.796,138.33 238.5,138.5C 243.975,139.489 249.642,139.822 255.5,139.5C 255.5,140.833 255.5,142.167 255.5,143.5C 253.5,143.5 251.5,143.5 249.5,143.5C 245.956,141.732 241.956,140.898 237.5,141C 234.669,139.334 232.336,137.168 230.5,134.5 Z"/></g>
</svg>
