<?xml version="1.0" encoding="UTF-8"?>
<!DOCTYPE svg PUBLIC "-//W3C//DTD SVG 1.1//EN" "http://www.w3.org/Graphics/SVG/1.1/DTD/svg11.dtd">
<svg xmlns="http://www.w3.org/2000/svg" version="1.1" width="256px" height="144px" style="shape-rendering:geometricPrecision; text-rendering:geometricPrecision; image-rendering:optimizeQuality; fill-rule:evenodd; clip-rule:evenodd" xmlns:xlink="http://www.w3.org/1999/xlink">
<g><path style="opacity:1" fill="#010506" d="M 251.5,-0.5 C 252.833,-0.5 254.167,-0.5 255.5,-0.5C 255.5,47.5 255.5,95.5 255.5,143.5C 245.833,143.5 236.167,143.5 226.5,143.5C 227.589,139.922 227.755,136.255 227,132.5C 225.309,129.393 224.142,126.059 223.5,122.5C 218.554,118.221 213.887,113.554 209.5,108.5C 208.828,109.949 208.161,111.282 207.5,112.5C 204.5,112.833 203.167,111.5 203.5,108.5C 201.876,108.64 200.71,107.973 200,106.5C 196.5,110.833 193,115.167 189.5,119.5C 188.167,121.5 188.167,123.5 189.5,125.5C 184.692,130.456 182.026,136.456 181.5,143.5C 176.5,143.5 171.5,143.5 166.5,143.5C 166.5,143.167 166.5,142.833 166.5,142.5C 168.208,138.238 170.041,133.904 172,129.5C 172.634,126.445 172.468,123.445 171.5,120.5C 171.5,120.167 171.5,119.833 171.5,119.5C 173.481,115.355 176.647,112.355 181,110.5C 184.24,112.036 187.24,111.703 190,109.5C 192.466,103.783 195.133,98.116 198,92.5C 198.916,88.2213 197.083,86.3879 192.5,87C 194.541,85.2589 196.708,85.0922 199,86.5C 202.867,81.409 204.367,75.7424 203.5,69.5C 199.104,71.2822 194.771,71.6155 190.5,70.5C 190.791,69.3509 191.624,68.6842 193,68.5C 198.173,70.0885 202.507,68.7552 206,64.5C 209.426,57.3511 211.926,50.0177 213.5,42.5C 214.167,42.5 214.5,42.1667 214.5,41.5C 219.946,40.4457 224.946,38.279 229.5,35C 235.802,27.2109 241.469,19.0442 246.5,10.5C 248.406,7.01663 250.072,3.34996 251.5,-0.5 Z"/></g>
<g><path style="opacity:1" fill="#adbdb3" d="M 98.5,-0.5 C 102.5,-0.5 106.5,-0.5 110.5,-0.5C 110.975,2.63889 110.141,5.63889 108,8.5C 107.329,9.25244 106.496,9.58577 105.5,9.5C 104.272,8.69354 103.272,7.69354 102.5,6.5C 100.295,4.6366 98.9613,2.30327 98.5,-0.5 Z"/></g>
<g><path style="opacity:1" fill="#71665c" d="M 224.5,-0.5 C 226.5,-0.5 228.5,-0.5 230.5,-0.5C 231.685,0.856588 232.685,2.35659 233.5,4C 232.944,5.01106 232.278,5.84439 231.5,6.5C 229.5,3.83333 227.167,1.5 224.5,-0.5 Z"/></g>
<g><path style="opacity:1" fill="#638b8c" d="M 89.5,-0.5 C 92.5,-0.5 95.5,-0.5 98.5,-0.5C 98.9613,2.30327 100.295,4.6366 102.5,6.5C 101.842,7.39836 101.176,8.39836 100.5,9.5C 95.5624,7.5623 91.8957,4.22897 89.5,-0.5 Z"/></g>
<g><path style="opacity:1" fill="#cfc1b6" d="M 195.5,-0.5 C 200.5,-0.5 205.5,-0.5 210.5,-0.5C 213.685,4.1981 216.018,9.1981 217.5,14.5C 217.5,14.8333 217.5,15.1667 217.5,15.5C 217.206,19.7083 215.54,20.375 212.5,17.5C 211.065,18.8237 210.065,20.4904 209.5,22.5C 207.009,25.4156 204.009,26.0822 200.5,24.5C 198.425,20.592 196.758,16.592 195.5,12.5C 195.5,8.16667 195.5,3.83333 195.5,-0.5 Z"/></g>
<g><path style="opacity:1" fill="#8e8679" d="M 99.5,22.5 C 99.3259,24.861 98.9926,27.1944 98.5,29.5C 97.5,29.5 96.5,29.5 95.5,29.5C 95.2606,27.5328 95.5939,25.6995 96.5,24C 91.6108,19.6138 87.2775,14.7804 83.5,9.5C 82.8333,8.16667 82.1667,8.16667 81.5,9.5C 80.9017,10.7946 80.4017,12.1279 80,13.5C 79.5831,12.244 78.7498,11.5774 77.5,11.5C 78.299,8.57006 78.6323,5.57006 78.5,2.5C 84.2891,0.0676701 88.4557,1.73434 91,7.5C 92.0438,9.71477 92.7105,12.0481 93,14.5C 94.8153,16.4049 96.8153,18.0716 99,19.5C 99.4828,20.448 99.6495,21.448 99.5,22.5 Z"/></g>
<g><path style="opacity:1" fill="#c9b7aa" d="M 214.5,-0.5 C 217.833,-0.5 221.167,-0.5 224.5,-0.5C 227.167,1.5 229.5,3.83333 231.5,6.5C 231.5,7.5 231.5,8.5 231.5,9.5C 229.336,9.72145 227.67,10.7215 226.5,12.5C 223.833,12.5 221.167,12.5 218.5,12.5C 216.919,8.31304 215.585,3.97971 214.5,-0.5 Z"/></g>
<g><path style="opacity:1" fill="#0e1718" d="M 4.5,-0.5 C 17.8333,-0.5 31.1667,-0.5 44.5,-0.5C 43.4517,7.37441 45.285,8.70774 50,3.5C 50.195,4.8193 50.0283,6.15264 49.5,7.5C 48.353,11.6463 48.1864,15.9796 49,20.5C 49.5,21 50,21.5 50.5,22C 50.2827,26.0584 49.9493,30.0584 49.5,34C 50.041,37.8279 50.541,41.6612 51,45.5C 53.0416,51.9445 56.0416,57.9445 60,63.5C 64.4192,67.7493 68.5859,72.0827 72.5,76.5C 71.5955,78.6379 70.9289,80.9712 70.5,83.5C 71.3022,86.4486 71.6355,89.4486 71.5,92.5C 68.9108,91.5806 66.9108,89.914 65.5,87.5C 63.6088,84.6117 60.9421,82.945 57.5,82.5C 52.3421,77.8423 47.3421,73.009 42.5,68C 36.4868,66.8012 34.1535,69.3012 35.5,75.5C 33.5425,80.998 32.7092,86.6646 33,92.5C 37.0768,95.788 41.2435,98.9547 45.5,102C 52.9909,104.772 53.9909,103.605 48.5,98.5C 44.665,97.4887 41.165,95.8221 38,93.5C 36.0851,90.4831 36.9184,89.8164 40.5,91.5C 41.6956,91.1543 41.6956,90.6543 40.5,90C 41.448,89.5172 42.448,89.3505 43.5,89.5C 48.1515,95.1688 54.1515,98.8354 61.5,100.5C 61.9175,101.222 62.5842,101.722 63.5,102C 60.3307,102.978 57.4973,102.478 55,100.5C 56.9934,105.162 60.4934,108.662 65.5,111C 68.8678,111.543 72.2011,111.376 75.5,110.5C 77.7699,117.034 79.9365,123.701 82,130.5C 86.5863,133.677 89.0863,138.011 89.5,143.5C 84.5,143.5 79.5,143.5 74.5,143.5C 72.2521,138.43 69.0854,134.097 65,130.5C 65.6171,128.905 65.2837,127.572 64,126.5C 63.6667,126.833 63.3333,127.167 63,127.5C 61.5787,124.991 59.9121,122.657 58,120.5C 57.6667,120.833 57.3333,121.167 57,121.5C 54.8003,119.385 52.8003,117.051 51,114.5C 50.586,114.957 50.086,115.291 49.5,115.5C 47.0827,112.917 44.2493,110.917 41,109.5C 38.5379,111.167 37.2045,113.167 37,115.5C 33.9082,114.077 31.9082,111.743 31,108.5C 30.6667,108.833 30.3333,109.167 30,109.5C 24.9041,105.698 21.7374,100.698 20.5,94.5C 20.4621,91.8187 21.1287,89.3187 22.5,87C 21.4662,84.0387 19.7995,81.5387 17.5,79.5C 16.8113,81.3381 16.4779,83.0048 16.5,84.5C 15.5,82.8333 14.1667,81.5 12.5,80.5C 7.97489,82.2652 3.64156,84.2652 -0.5,86.5C -0.5,71.8333 -0.5,57.1667 -0.5,42.5C 1.04432,42.2969 2.37765,41.6302 3.5,40.5C 6.35395,43.1884 9.35395,45.6884 12.5,48C 16.423,48.7927 20.2564,48.626 24,47.5C 24.9917,49.6653 26.1583,49.4986 27.5,47C 26.8333,46 26.1667,45 25.5,44C 26.5697,41.1939 27.903,38.5272 29.5,36C 29.6805,32.3249 29.3472,28.4916 28.5,24.5C 26.2345,22.3163 24.7345,19.983 24,17.5C 23.6667,17.8333 23.3333,18.1667 23,18.5C 19.3333,17.5 15.6667,16.5 12,15.5C 11.786,12.6865 12.9527,12.0198 15.5,13.5C 16.3857,12.675 16.719,11.675 16.5,10.5C 13.6129,9.38047 10.6129,8.38047 7.5,7.5C 6.83333,6.5 6.16667,5.5 5.5,4.5C 6.02527,3.80762 6.69194,3.30762 7.5,3C 6.16667,2.33333 4.83333,1.66667 3.5,1C 4.05596,0.617425 4.38929,0.117425 4.5,-0.5 Z"/></g>
<g><path style="opacity:1" fill="#676b69" d="M 210.5,-0.5 C 211.833,-0.5 213.167,-0.5 214.5,-0.5C 215.585,3.97971 216.919,8.31304 218.5,12.5C 221.167,12.5 223.833,12.5 226.5,12.5C 224.298,13.2007 222.465,14.534 221,16.5C 219.779,15.7282 218.779,14.7282 218,13.5C 217.601,13.7284 217.435,14.0618 217.5,14.5C 216.018,9.1981 213.685,4.1981 210.5,-0.5 Z"/></g>
<g><path style="opacity:1" fill="#181718" d="M -0.5,-0.5 C 1.16667,-0.5 2.83333,-0.5 4.5,-0.5C 4.38929,0.117425 4.05596,0.617425 3.5,1C 4.83333,1.66667 6.16667,2.33333 7.5,3C 6.69194,3.30762 6.02527,3.80762 5.5,4.5C 6.16667,5.5 6.83333,6.5 7.5,7.5C 10.6129,8.38047 13.6129,9.38047 16.5,10.5C 16.719,11.675 16.3857,12.675 15.5,13.5C 12.9527,12.0198 11.786,12.6865 12,15.5C 15.6667,16.5 19.3333,17.5 23,18.5C 23.3333,18.1667 23.6667,17.8333 24,17.5C 24.7345,19.983 26.2345,22.3163 28.5,24.5C 29.3472,28.4916 29.6805,32.3249 29.5,36C 27.903,38.5272 26.5697,41.1939 25.5,44C 26.1667,45 26.8333,46 27.5,47C 26.1583,49.4986 24.9917,49.6653 24,47.5C 20.2564,48.626 16.423,48.7927 12.5,48C 9.35395,45.6884 6.35395,43.1884 3.5,40.5C 2.37765,41.6302 1.04432,42.2969 -0.5,42.5C -0.5,28.1667 -0.5,13.8333 -0.5,-0.5 Z"/></g>
<g><path style="opacity:1" fill="#426c72" d="M 79.5,-0.5 C 82.8333,-0.5 86.1667,-0.5 89.5,-0.5C 91.8957,4.22897 95.5624,7.5623 100.5,9.5C 101.176,8.39836 101.842,7.39836 102.5,6.5C 103.272,7.69354 104.272,8.69354 105.5,9.5C 105.993,15.6359 106.993,21.6359 108.5,27.5C 106.39,26.5475 105.223,24.8808 105,22.5C 104.517,23.448 104.351,24.448 104.5,25.5C 103.167,25.5 101.833,25.5 100.5,25.5C 100.737,24.209 100.404,23.209 99.5,22.5C 99.6495,21.448 99.4828,20.448 99,19.5C 96.8153,18.0716 94.8153,16.4049 93,14.5C 92.7105,12.0481 92.0438,9.71477 91,7.5C 88.4557,1.73434 84.2891,0.0676701 78.5,2.5C 78.5569,1.39105 78.8902,0.391047 79.5,-0.5 Z"/></g>
<g><path style="opacity:1" fill="#202d2c" d="M 246.5,10.5 C 241.469,19.0442 235.802,27.2109 229.5,35C 224.946,38.279 219.946,40.4457 214.5,41.5C 216.196,35.7761 218.696,30.4427 222,25.5C 224.977,22.8694 227.477,19.8694 229.5,16.5C 231.179,15.218 233.013,14.218 235,13.5C 236.469,10.14 238.303,6.97329 240.5,4C 239.289,3.10723 239.289,2.2739 240.5,1.5C 241.964,4.00299 243.131,6.66966 244,9.5C 244.671,10.2524 245.504,10.5858 246.5,10.5 Z"/></g>
<g><path style="opacity:1" fill="#5dc6e1" d="M 128.5,-0.5 C 134.167,-0.5 139.833,-0.5 145.5,-0.5C 144.17,1.88106 144.336,4.21439 146,6.5C 152.759,11.0356 160.259,12.5356 168.5,11C 170.605,9.80661 172.272,8.13995 173.5,6C 175.433,5.21739 176.933,5.71739 178,7.5C 181.171,6.4636 184.171,5.13026 187,3.5C 189.459,5.0503 190.126,7.0503 189,9.5C 189.654,8.30441 190.154,8.30441 190.5,9.5C 189.572,10.7678 189.405,12.1011 190,13.5C 194.047,9.79478 195.547,5.12811 194.5,-0.5C 194.833,-0.5 195.167,-0.5 195.5,-0.5C 195.5,3.83333 195.5,8.16667 195.5,12.5C 194.857,14.0764 193.857,15.4097 192.5,16.5C 190.736,17.326 189.402,18.6593 188.5,20.5C 186.499,19.5896 185.165,20.4229 184.5,23C 183.833,23.6667 183.167,23.6667 182.5,23C 181.352,19.5261 180.018,16.1928 178.5,13C 174.688,11.7928 171.688,12.7928 169.5,16C 165.167,16.6667 160.833,16.6667 156.5,16C 154.845,11.8715 152.345,11.3715 149,14.5C 146.888,11.6944 144.054,10.3611 140.5,10.5C 140.703,8.60963 140.037,7.10963 138.5,6C 135.709,4.21144 132.709,2.8781 129.5,2C 128.748,1.32924 128.414,0.495904 128.5,-0.5 Z"/></g>
<g><path style="opacity:1" fill="#6adcf7" d="M 145.5,-0.5 C 146.833,-0.5 148.167,-0.5 149.5,-0.5C 149.018,3.52151 150.852,5.52151 155,5.5C 156.649,4.10226 157.982,4.43559 159,6.5C 160.779,5.52087 162.445,5.85421 164,7.5C 168.401,5.71695 172.567,3.55028 176.5,1C 174.942,0.78997 173.609,0.28997 172.5,-0.5C 179.833,-0.5 187.167,-0.5 194.5,-0.5C 195.547,5.12811 194.047,9.79478 190,13.5C 189.405,12.1011 189.572,10.7678 190.5,9.5C 190.154,8.30441 189.654,8.30441 189,9.5C 190.126,7.0503 189.459,5.0503 187,3.5C 184.171,5.13026 181.171,6.4636 178,7.5C 176.933,5.71739 175.433,5.21739 173.5,6C 172.272,8.13995 170.605,9.80661 168.5,11C 160.259,12.5356 152.759,11.0356 146,6.5C 144.336,4.21439 144.17,1.88106 145.5,-0.5 Z"/></g>
<g><path style="opacity:1" fill="#79eefe" d="M 149.5,-0.5 C 157.167,-0.5 164.833,-0.5 172.5,-0.5C 173.609,0.28997 174.942,0.78997 176.5,1C 172.567,3.55028 168.401,5.71695 164,7.5C 162.445,5.85421 160.779,5.52087 159,6.5C 157.982,4.43559 156.649,4.10226 155,5.5C 150.852,5.52151 149.018,3.52151 149.5,-0.5 Z"/></g>
<g><path style="opacity:1" fill="#2c4346" d="M 61.5,-0.5 C 63.5,-0.5 65.5,-0.5 67.5,-0.5C 67.3342,4.17853 67.5008,8.8452 68,13.5C 69.7134,14.8782 71.0467,16.5448 72,18.5C 72.6667,17.8333 73.3333,17.1667 74,16.5C 74.4994,10.8431 74.6661,5.17645 74.5,-0.5C 76.1667,-0.5 77.8333,-0.5 79.5,-0.5C 78.8902,0.391047 78.5569,1.39105 78.5,2.5C 78.6323,5.57006 78.299,8.57006 77.5,11.5C 76.347,14.7667 75.847,18.1001 76,21.5C 79.8167,26.1643 84.3167,29.831 89.5,32.5C 90.8333,33.1667 92.1667,33.8333 93.5,34.5C 93.5,34.8333 93.5,35.1667 93.5,35.5C 88.5329,34.962 83.8662,35.6287 79.5,37.5C 76.9813,34.2406 73.648,32.574 69.5,32.5C 68.207,31.158 67.3736,29.4913 67,27.5C 66.0032,21.5389 65.3365,15.5389 65,9.5C 62.5688,6.583 61.4021,3.24967 61.5,-0.5 Z"/></g>
<g><path style="opacity:1" fill="#655a55" d="M 67.5,-0.5 C 69.8333,-0.5 72.1667,-0.5 74.5,-0.5C 74.6661,5.17645 74.4994,10.8431 74,16.5C 73.3333,17.1667 72.6667,17.8333 72,18.5C 71.0467,16.5448 69.7134,14.8782 68,13.5C 67.5008,8.8452 67.3342,4.17853 67.5,-0.5 Z"/></g>
<g><path style="opacity:1" fill="#56abc3" d="M 110.5,-0.5 C 116.5,-0.5 122.5,-0.5 128.5,-0.5C 128.414,0.495904 128.748,1.32924 129.5,2C 132.709,2.8781 135.709,4.21144 138.5,6C 140.037,7.10963 140.703,8.60963 140.5,10.5C 144.054,10.3611 146.888,11.6944 149,14.5C 152.345,11.3715 154.845,11.8715 156.5,16C 160.833,16.6667 165.167,16.6667 169.5,16C 171.688,12.7928 174.688,11.7928 178.5,13C 180.018,16.1928 181.352,19.5261 182.5,23C 183.167,23.6667 183.833,23.6667 184.5,23C 185.165,20.4229 186.499,19.5896 188.5,20.5C 187.962,22.1172 187.629,23.7839 187.5,25.5C 185.473,25.6621 183.473,25.4955 181.5,25C 180.478,22.4552 179.312,19.9552 178,17.5C 177.439,16.9781 176.772,16.6448 176,16.5C 173.682,19.9846 170.849,22.9846 167.5,25.5C 166.522,25.0233 165.689,24.3567 165,23.5C 162.703,23.5391 160.37,23.8724 158,24.5C 156.471,23.2713 155.304,21.7713 154.5,20C 150.683,18.1958 146.85,16.3625 143,14.5C 142.5,14.6667 142,14.8333 141.5,15C 142.252,15.6708 142.586,16.5041 142.5,17.5C 139.076,15.5817 136.076,13.0817 133.5,10C 131.527,9.50454 129.527,9.33788 127.5,9.5C 127.587,12.7387 126.92,15.7387 125.5,18.5C 123.694,15.6618 122.694,15.9952 122.5,19.5C 123.729,22.1346 123.729,24.8013 122.5,27.5C 120.929,26.6906 119.262,26.3573 117.5,26.5C 117.192,28.924 117.526,31.2573 118.5,33.5C 120.611,34.6046 121.945,36.2712 122.5,38.5C 121.167,38.5 120.5,39.1667 120.5,40.5C 118.683,38.9904 116.683,37.6571 114.5,36.5C 112.932,33.9748 111.265,31.6415 109.5,29.5C 108.662,29.1583 108.328,28.4916 108.5,27.5C 106.993,21.6359 105.993,15.6359 105.5,9.5C 106.496,9.58577 107.329,9.25244 108,8.5C 110.141,5.63889 110.975,2.63889 110.5,-0.5 Z"/></g>
<g><path style="opacity:1" fill="#394341" d="M 230.5,-0.5 C 237.5,-0.5 244.5,-0.5 251.5,-0.5C 250.072,3.34996 248.406,7.01663 246.5,10.5C 245.504,10.5858 244.671,10.2524 244,9.5C 243.131,6.66966 241.964,4.00299 240.5,1.5C 239.289,2.2739 239.289,3.10723 240.5,4C 238.303,6.97329 236.469,10.14 235,13.5C 233.013,14.218 231.179,15.218 229.5,16.5C 227.477,19.8694 224.977,22.8694 222,25.5C 218.696,30.4427 216.196,35.7761 214.5,41.5C 214.5,42.1667 214.167,42.5 213.5,42.5C 211.618,40.6901 209.618,39.0235 207.5,37.5C 208.203,35.2843 209.536,33.451 211.5,32C 206.831,33.8301 202.164,35.9968 197.5,38.5C 198.038,36.8828 198.371,35.2161 198.5,33.5C 199.376,33.6309 200.043,33.2975 200.5,32.5C 199.41,31.3914 199.41,30.3914 200.5,29.5C 202.432,30.5202 204.432,30.6869 206.5,30C 207.934,27.779 209.934,26.279 212.5,25.5C 213.51,22.7451 215.343,20.7451 218,19.5C 218.765,17.9343 218.598,16.6009 217.5,15.5C 217.5,15.1667 217.5,14.8333 217.5,14.5C 217.435,14.0618 217.601,13.7284 218,13.5C 218.779,14.7282 219.779,15.7282 221,16.5C 222.465,14.534 224.298,13.2007 226.5,12.5C 227.67,10.7215 229.336,9.72145 231.5,9.5C 231.5,8.5 231.5,7.5 231.5,6.5C 232.278,5.84439 232.944,5.01106 233.5,4C 232.685,2.35659 231.685,0.856588 230.5,-0.5 Z"/></g>
<g><path style="opacity:1" fill="#4193b2" d="M 188.5,20.5 C 189.402,18.6593 190.736,17.326 192.5,16.5C 192.79,19.7847 192.123,22.7847 190.5,25.5C 190.443,26.609 190.11,27.609 189.5,28.5C 188.849,27.9094 188.182,27.2427 187.5,26.5C 183.985,28.6217 180.319,28.955 176.5,27.5C 176.258,31.08 176.091,34.7467 176,38.5C 172.526,40.8895 170.526,44.2228 170,48.5C 167.539,49.2181 165.039,49.8847 162.5,50.5C 161.614,49.675 161.281,48.675 161.5,47.5C 163.746,46.5448 166.079,45.8782 168.5,45.5C 170.003,40.5006 172.003,35.6673 174.5,31C 174.062,29.0797 173.395,27.2464 172.5,25.5C 171.893,25.6236 171.56,25.9569 171.5,26.5C 168.532,26.6261 166.532,28.1261 165.5,31C 162.743,31.5837 160.077,31.2504 157.5,30C 153.824,24.1505 148.824,19.9838 142.5,17.5C 142.586,16.5041 142.252,15.6708 141.5,15C 142,14.8333 142.5,14.6667 143,14.5C 146.85,16.3625 150.683,18.1958 154.5,20C 155.304,21.7713 156.471,23.2713 158,24.5C 160.37,23.8724 162.703,23.5391 165,23.5C 165.689,24.3567 166.522,25.0233 167.5,25.5C 170.849,22.9846 173.682,19.9846 176,16.5C 176.772,16.6448 177.439,16.9781 178,17.5C 179.312,19.9552 180.478,22.4552 181.5,25C 183.473,25.4955 185.473,25.6621 187.5,25.5C 187.629,23.7839 187.962,22.1172 188.5,20.5 Z"/></g>
<g><path style="opacity:1" fill="#1e2e32" d="M 44.5,-0.5 C 50.1667,-0.5 55.8333,-0.5 61.5,-0.5C 61.4021,3.24967 62.5688,6.583 65,9.5C 65.3365,15.5389 66.0032,21.5389 67,27.5C 67.3736,29.4913 68.207,31.158 69.5,32.5C 69.3032,36.6027 70.6365,40.1027 73.5,43C 72.3802,44.7374 71.3802,46.5708 70.5,48.5C 71.9571,47.7417 73.6238,47.7417 75.5,48.5C 78.0571,49.4852 80.7237,50.4852 83.5,51.5C 81.4202,53.5732 79.7536,55.9066 78.5,58.5C 75.3992,58.3083 72.3992,57.6416 69.5,56.5C 67.8773,57.4908 66.8773,56.8241 66.5,54.5C 67.2458,53.2638 67.5792,51.9305 67.5,50.5C 66.448,50.6495 65.448,50.4828 64.5,50C 65.0509,48.6015 65.3842,47.2682 65.5,46C 63.4491,43.8396 61.9491,41.3396 61,38.5C 60.6667,38.8333 60.3333,39.1667 60,39.5C 58.9675,33.0113 56.8009,27.0113 53.5,21.5C 55.256,19.279 56.9227,16.279 58.5,12.5C 57.7515,10.6675 56.7515,9.00087 55.5,7.5C 53.7684,9.28266 52.2684,11.2827 51,13.5C 49.6814,11.7505 49.1814,9.7505 49.5,7.5C 50.0283,6.15264 50.195,4.8193 50,3.5C 45.285,8.70774 43.4517,7.37441 44.5,-0.5 Z"/></g>
<g><path style="opacity:1" fill="#6dbbd6" d="M 142.5,17.5 C 148.824,19.9838 153.824,24.1505 157.5,30C 160.077,31.2504 162.743,31.5837 165.5,31C 166.532,28.1261 168.532,26.6261 171.5,26.5C 172.043,26.56 172.376,26.8933 172.5,27.5C 171.959,29.5352 171.292,31.5352 170.5,33.5C 169.233,36.4965 167.4,39.1632 165,41.5C 162.123,40.5968 159.29,39.5968 156.5,38.5C 153.117,40.9741 149.784,40.9741 146.5,38.5C 146.833,37.8333 147.167,37.1667 147.5,36.5C 146.147,35.4763 145.48,34.143 145.5,32.5C 144.167,32.5 142.833,32.5 141.5,32.5C 141.739,30.5328 141.406,28.6995 140.5,27C 138.481,26.5503 136.648,25.717 135,24.5C 132.919,25.3331 130.752,25.3331 128.5,24.5C 128.545,21.9228 127.545,19.9228 125.5,18.5C 126.92,15.7387 127.587,12.7387 127.5,9.5C 129.527,9.33788 131.527,9.50454 133.5,10C 136.076,13.0817 139.076,15.5817 142.5,17.5 Z"/></g>
<g><path style="opacity:1" fill="#626462" d="M 195.5,12.5 C 196.758,16.592 198.425,20.592 200.5,24.5C 204.009,26.0822 207.009,25.4156 209.5,22.5C 210.065,20.4904 211.065,18.8237 212.5,17.5C 215.54,20.375 217.206,19.7083 217.5,15.5C 218.598,16.6009 218.765,17.9343 218,19.5C 215.343,20.7451 213.51,22.7451 212.5,25.5C 209.934,26.279 207.934,27.779 206.5,30C 204.432,30.6869 202.432,30.5202 200.5,29.5C 199.41,30.3914 199.41,31.3914 200.5,32.5C 200.043,33.2975 199.376,33.6309 198.5,33.5C 198.716,31.3193 197.883,29.6526 196,28.5C 195.218,31.3102 194.384,33.9768 193.5,36.5C 193.428,33.8067 193.095,31.1401 192.5,28.5C 192.36,26.9704 191.693,25.9704 190.5,25.5C 192.123,22.7847 192.79,19.7847 192.5,16.5C 193.857,15.4097 194.857,14.0764 195.5,12.5 Z"/></g>
<g><path style="opacity:1" fill="#948b86" d="M 190.5,25.5 C 191.693,25.9704 192.36,26.9704 192.5,28.5C 193.095,31.1401 193.428,33.8067 193.5,36.5C 191.186,38.4773 188.853,40.4773 186.5,42.5C 185.614,41.675 185.281,40.675 185.5,39.5C 186.905,35.7967 188.239,32.13 189.5,28.5C 190.11,27.609 190.443,26.609 190.5,25.5 Z"/></g>
<g><path style="opacity:1" fill="#8f6f63" d="M 95.5,29.5 C 93.5,30.5 91.5,31.5 89.5,32.5C 84.3167,29.831 79.8167,26.1643 76,21.5C 75.847,18.1001 76.347,14.7667 77.5,11.5C 78.7498,11.5774 79.5831,12.244 80,13.5C 80.4017,12.1279 80.9017,10.7946 81.5,9.5C 82.1667,8.16667 82.8333,8.16667 83.5,9.5C 87.2775,14.7804 91.6108,19.6138 96.5,24C 95.5939,25.6995 95.2606,27.5328 95.5,29.5 Z"/></g>
<g><path style="opacity:1" fill="#665e55" d="M 99.5,22.5 C 100.404,23.209 100.737,24.209 100.5,25.5C 101.414,28.728 101.747,32.0613 101.5,35.5C 100.167,35.5 98.8333,35.5 97.5,35.5C 96.0413,35.5674 94.7079,35.2341 93.5,34.5C 92.1667,33.8333 90.8333,33.1667 89.5,32.5C 91.5,31.5 93.5,30.5 95.5,29.5C 96.5,29.5 97.5,29.5 98.5,29.5C 98.9926,27.1944 99.3259,24.861 99.5,22.5 Z"/></g>
<g><path style="opacity:1" fill="#253c42" d="M 108.5,27.5 C 108.328,28.4916 108.662,29.1583 109.5,29.5C 108.15,33.8964 108.316,38.2297 110,42.5C 111.129,44.1412 112.629,45.1412 114.5,45.5C 114.5,46.1667 114.5,46.8333 114.5,47.5C 112.401,48.2309 110.401,48.2309 108.5,47.5C 106.873,45.2346 105.539,42.9013 104.5,40.5C 102.343,38.5879 100.009,36.9213 97.5,35.5C 98.8333,35.5 100.167,35.5 101.5,35.5C 101.747,32.0613 101.414,28.728 100.5,25.5C 101.833,25.5 103.167,25.5 104.5,25.5C 104.351,24.448 104.517,23.448 105,22.5C 105.223,24.8808 106.39,26.5475 108.5,27.5 Z"/></g>
<g><path style="opacity:1" fill="#558ba8" d="M 109.5,29.5 C 111.265,31.6415 112.932,33.9748 114.5,36.5C 116.683,37.6571 118.683,38.9904 120.5,40.5C 121.867,43.7425 123.7,46.7425 126,49.5C 126.977,51.74 127.477,54.0733 127.5,56.5C 125.097,56.607 123.264,55.607 122,53.5C 120.634,49.6039 119.467,45.6039 118.5,41.5C 117.833,43.1667 117.167,44.8333 116.5,46.5C 115.817,46.1373 115.15,45.8039 114.5,45.5C 112.629,45.1412 111.129,44.1412 110,42.5C 108.316,38.2297 108.15,33.8964 109.5,29.5 Z"/></g>
<g><path style="opacity:1" fill="#303030" d="M 69.5,32.5 C 73.648,32.574 76.9813,34.2406 79.5,37.5C 77.0984,42.0873 77.765,42.4206 81.5,38.5C 85.1224,37.6747 88.789,37.1747 92.5,37C 93.056,36.6174 93.3893,36.1174 93.5,35.5C 93.5,35.1667 93.5,34.8333 93.5,34.5C 94.7079,35.2341 96.0413,35.5674 97.5,35.5C 100.009,36.9213 102.343,38.5879 104.5,40.5C 104.189,41.4778 103.522,42.1445 102.5,42.5C 100.135,40.1582 97.4686,38.6582 94.5,38C 97.6693,40.5215 99.6693,43.6882 100.5,47.5C 99.5,47.5 98.5,47.5 97.5,47.5C 96.9423,46.2101 95.9423,45.3768 94.5,45C 89.9425,44.8527 85.6092,44.0193 81.5,42.5C 81.6495,43.552 81.4828,44.552 81,45.5C 78.9817,46.2228 77.1484,47.2228 75.5,48.5C 73.6238,47.7417 71.9571,47.7417 70.5,48.5C 71.3802,46.5708 72.3802,44.7374 73.5,43C 70.6365,40.1027 69.3032,36.6027 69.5,32.5 Z"/></g>
<g><path style="opacity:1" fill="#6d4b53" d="M 93.5,35.5 C 93.3893,36.1174 93.056,36.6174 92.5,37C 88.789,37.1747 85.1224,37.6747 81.5,38.5C 77.765,42.4206 77.0984,42.0873 79.5,37.5C 83.8662,35.6287 88.5329,34.962 93.5,35.5 Z"/></g>
<g><path style="opacity:1" fill="#515c57" d="M 207.5,37.5 C 204.45,39.5491 202.117,42.2157 200.5,45.5C 196.021,48.2435 191.688,51.2435 187.5,54.5C 186.448,54.6495 185.448,54.4828 184.5,54C 189.5,49.6667 194.5,45.3333 199.5,41C 198.167,40.6667 196.833,40.3333 195.5,40C 196.044,39.2828 196.711,38.7828 197.5,38.5C 202.164,35.9968 206.831,33.8301 211.5,32C 209.536,33.451 208.203,35.2843 207.5,37.5 Z"/></g>
<g><path style="opacity:1" fill="#64a7c4" d="M 125.5,18.5 C 127.545,19.9228 128.545,21.9228 128.5,24.5C 130.752,25.3331 132.919,25.3331 135,24.5C 136.648,25.717 138.481,26.5503 140.5,27C 141.406,28.6995 141.739,30.5328 141.5,32.5C 142.833,32.5 144.167,32.5 145.5,32.5C 145.48,34.143 146.147,35.4763 147.5,36.5C 147.167,37.1667 146.833,37.8333 146.5,38.5C 149.784,40.9741 153.117,40.9741 156.5,38.5C 159.29,39.5968 162.123,40.5968 165,41.5C 167.4,39.1632 169.233,36.4965 170.5,33.5C 171.292,31.5352 171.959,29.5352 172.5,27.5C 172.376,26.8933 172.043,26.56 171.5,26.5C 171.56,25.9569 171.893,25.6236 172.5,25.5C 173.395,27.2464 174.062,29.0797 174.5,31C 172.003,35.6673 170.003,40.5006 168.5,45.5C 166.079,45.8782 163.746,46.5448 161.5,47.5C 158.423,46.6495 155.423,45.6495 152.5,44.5C 151.006,44.7092 149.839,45.3759 149,46.5C 147.644,45.6198 146.144,45.2865 144.5,45.5C 144.5,44.1667 144.5,42.8333 144.5,41.5C 141.833,40.1667 139.167,38.8333 136.5,37.5C 136.5,36.5 136.5,35.5 136.5,34.5C 133.882,34.2208 131.382,33.5541 129,32.5C 127.17,28.7143 125.837,24.7143 125,20.5C 124.329,19.7476 123.496,19.4142 122.5,19.5C 122.694,15.9952 123.694,15.6618 125.5,18.5 Z"/></g>
<g><path style="opacity:1" fill="#84b4cf" d="M 122.5,38.5 C 125.907,42.3686 130.241,44.3686 135.5,44.5C 136.458,45.9616 137.624,47.2949 139,48.5C 139.495,50.4727 139.662,52.4727 139.5,54.5C 138.448,54.3505 137.448,54.5172 136.5,55C 135.261,57.2402 133.428,58.7402 131,59.5C 129.05,59.2926 127.884,58.2926 127.5,56.5C 127.477,54.0733 126.977,51.74 126,49.5C 123.7,46.7425 121.867,43.7425 120.5,40.5C 120.5,39.1667 121.167,38.5 122.5,38.5 Z"/></g>
<g><path style="opacity:1" fill="#416382" d="M 147.5,48.5 C 145.167,48.5 142.833,48.5 140.5,48.5C 140.5,50.8333 140.5,53.1667 140.5,55.5C 142.415,55.2155 144.081,55.5489 145.5,56.5C 144.325,56.281 143.325,56.6143 142.5,57.5C 143.705,58.9948 143.705,60.3281 142.5,61.5C 140.833,61.5 139.167,61.5 137.5,61.5C 138.091,60.8485 138.757,60.1818 139.5,59.5C 138.833,59.1667 138.167,58.8333 137.5,58.5C 135.438,59.7295 133.271,60.7295 131,61.5C 123.781,58.7748 118.281,54.1081 114.5,47.5C 114.5,46.8333 114.5,46.1667 114.5,45.5C 115.15,45.8039 115.817,46.1373 116.5,46.5C 117.167,44.8333 117.833,43.1667 118.5,41.5C 119.467,45.6039 120.634,49.6039 122,53.5C 123.264,55.607 125.097,56.607 127.5,56.5C 127.884,58.2926 129.05,59.2926 131,59.5C 133.428,58.7402 135.261,57.2402 136.5,55C 137.448,54.5172 138.448,54.3505 139.5,54.5C 139.662,52.4727 139.495,50.4727 139,48.5C 137.624,47.2949 136.458,45.9616 135.5,44.5C 135.082,43.7784 134.416,43.2784 133.5,43C 134.249,41.2663 134.749,39.433 135,37.5C 135.36,39.4211 136.194,41.0878 137.5,42.5C 140.49,45.2596 143.823,47.2596 147.5,48.5 Z"/></g>
<g><path style="opacity:1" fill="#384348" d="M 198.5,33.5 C 198.371,35.2161 198.038,36.8828 197.5,38.5C 196.711,38.7828 196.044,39.2828 195.5,40C 196.833,40.3333 198.167,40.6667 199.5,41C 194.5,45.3333 189.5,49.6667 184.5,54C 185.448,54.4828 186.448,54.6495 187.5,54.5C 187.082,55.2216 186.416,55.7216 185.5,56C 188.062,58.2894 189.729,61.1228 190.5,64.5C 191.723,65.6139 193.056,65.7805 194.5,65C 198.063,60.2797 201.397,55.4464 204.5,50.5C 203.177,48.8349 201.844,47.1683 200.5,45.5C 202.117,42.2157 204.45,39.5491 207.5,37.5C 209.618,39.0235 211.618,40.6901 213.5,42.5C 211.926,50.0177 209.426,57.3511 206,64.5C 202.507,68.7552 198.173,70.0885 193,68.5C 191.624,68.6842 190.791,69.3509 190.5,70.5C 190.167,70.5 189.833,70.5 189.5,70.5C 189.142,67.3112 188.475,64.3112 187.5,61.5C 187.586,60.5041 187.252,59.6708 186.5,59C 183.28,57.6476 179.947,56.8143 176.5,56.5C 176.878,54.079 177.545,51.7457 178.5,49.5C 177.295,46.517 177.962,43.8503 180.5,41.5C 181.331,43.4731 181.498,45.4731 181,47.5C 182.605,44.8085 184.105,42.1418 185.5,39.5C 185.281,40.675 185.614,41.675 186.5,42.5C 188.853,40.4773 191.186,38.4773 193.5,36.5C 194.384,33.9768 195.218,31.3102 196,28.5C 197.883,29.6526 198.716,31.3193 198.5,33.5 Z"/></g>
<g><path style="opacity:1" fill="#4f84a1" d="M 122.5,19.5 C 123.496,19.4142 124.329,19.7476 125,20.5C 125.837,24.7143 127.17,28.7143 129,32.5C 131.382,33.5541 133.882,34.2208 136.5,34.5C 136.5,35.5 136.5,36.5 136.5,37.5C 139.167,38.8333 141.833,40.1667 144.5,41.5C 144.5,42.8333 144.5,44.1667 144.5,45.5C 146.144,45.2865 147.644,45.6198 149,46.5C 149.839,45.3759 151.006,44.7092 152.5,44.5C 155.423,45.6495 158.423,46.6495 161.5,47.5C 161.281,48.675 161.614,49.675 162.5,50.5C 165.039,49.8847 167.539,49.2181 170,48.5C 170.526,44.2228 172.526,40.8895 176,38.5C 176.091,34.7467 176.258,31.08 176.5,27.5C 180.319,28.955 183.985,28.6217 187.5,26.5C 188.182,27.2427 188.849,27.9094 189.5,28.5C 188.239,32.13 186.905,35.7967 185.5,39.5C 184.105,42.1418 182.605,44.8085 181,47.5C 181.498,45.4731 181.331,43.4731 180.5,41.5C 177.962,43.8503 177.295,46.517 178.5,49.5C 177.448,49.3505 176.448,49.5172 175.5,50C 172.941,54.5433 169.608,58.3767 165.5,61.5C 165.631,60.7611 165.464,60.0944 165,59.5C 163.292,61.5435 161.292,63.2101 159,64.5C 156.944,61.691 157.777,60.3577 161.5,60.5C 161.5,59.5 161.5,58.5 161.5,57.5C 158.67,57.6941 156.004,58.3608 153.5,59.5C 154.231,57.4012 154.231,55.4012 153.5,53.5C 151.833,54.8333 150.167,56.1667 148.5,57.5C 147.908,54.3486 147.574,51.3486 147.5,48.5C 143.823,47.2596 140.49,45.2596 137.5,42.5C 136.194,41.0878 135.36,39.4211 135,37.5C 134.749,39.433 134.249,41.2663 133.5,43C 134.416,43.2784 135.082,43.7784 135.5,44.5C 130.241,44.3686 125.907,42.3686 122.5,38.5C 121.945,36.2712 120.611,34.6046 118.5,33.5C 117.526,31.2573 117.192,28.924 117.5,26.5C 119.262,26.3573 120.929,26.6906 122.5,27.5C 123.729,24.8013 123.729,22.1346 122.5,19.5 Z"/></g>
<g><path style="opacity:1" fill="#282b2e" d="M 200.5,45.5 C 201.844,47.1683 203.177,48.8349 204.5,50.5C 201.397,55.4464 198.063,60.2797 194.5,65C 193.056,65.7805 191.723,65.6139 190.5,64.5C 189.729,61.1228 188.062,58.2894 185.5,56C 186.416,55.7216 187.082,55.2216 187.5,54.5C 191.688,51.2435 196.021,48.2435 200.5,45.5 Z"/></g>
<g><path style="opacity:1" fill="#172328" d="M 49.5,7.5 C 49.1814,9.7505 49.6814,11.7505 51,13.5C 52.2684,11.2827 53.7684,9.28266 55.5,7.5C 56.7515,9.00087 57.7515,10.6675 58.5,12.5C 56.9227,16.279 55.256,19.279 53.5,21.5C 56.8009,27.0113 58.9675,33.0113 60,39.5C 60.3333,39.1667 60.6667,38.8333 61,38.5C 61.9491,41.3396 63.4491,43.8396 65.5,46C 65.3842,47.2682 65.0509,48.6015 64.5,50C 65.448,50.4828 66.448,50.6495 67.5,50.5C 67.5792,51.9305 67.2458,53.2638 66.5,54.5C 66.8773,56.8241 67.8773,57.4908 69.5,56.5C 72.3992,57.6416 75.3992,58.3083 78.5,58.5C 78.238,59.9778 78.5713,61.3112 79.5,62.5C 82.5592,58.9216 85.0592,54.9216 87,50.5C 89.1097,54.9184 92.6097,56.4184 97.5,55C 98.7785,52.5024 98.7785,50.0024 97.5,47.5C 98.5,47.5 99.5,47.5 100.5,47.5C 99.6693,43.6882 97.6693,40.5215 94.5,38C 97.4686,38.6582 100.135,40.1582 102.5,42.5C 103.522,42.1445 104.189,41.4778 104.5,40.5C 105.539,42.9013 106.873,45.2346 108.5,47.5C 110.401,48.2309 112.401,48.2309 114.5,47.5C 118.281,54.1081 123.781,58.7748 131,61.5C 133.271,60.7295 135.438,59.7295 137.5,58.5C 138.167,58.8333 138.833,59.1667 139.5,59.5C 138.757,60.1818 138.091,60.8485 137.5,61.5C 134.692,62.9288 131.692,63.5955 128.5,63.5C 128.737,64.791 128.404,65.791 127.5,66.5C 124.474,68.8482 122.14,71.8482 120.5,75.5C 120.195,73.0807 120.195,70.414 120.5,67.5C 112.289,69.8838 106.622,67.2171 103.5,59.5C 104.515,55.8689 104.681,52.2022 104,48.5C 99.7236,55.9226 99.3903,63.5893 103,71.5C 106.929,74.5689 109.096,78.5689 109.5,83.5C 110.552,83.3505 111.552,83.5172 112.5,84C 110.718,86.2431 110.218,88.7431 111,91.5C 113.415,92.4113 114.915,94.078 115.5,96.5C 110.342,94.6747 108.675,96.0081 110.5,100.5C 109.508,100.328 108.842,100.662 108.5,101.5C 107.518,104.962 107.185,108.629 107.5,112.5C 106.24,107.553 103.573,106.553 99.5,109.5C 99.1667,109.167 98.8333,108.833 98.5,108.5C 100.856,105.978 103.023,103.312 105,100.5C 105.885,96.6804 107.052,93.0137 108.5,89.5C 107.384,83.3415 104.384,78.3415 99.5,74.5C 97.7807,70.2262 97.2807,65.8929 98,61.5C 97.2825,60.5494 96.4491,60.3828 95.5,61C 90.0133,65.5758 84.3467,69.9091 78.5,74C 76.5115,74.9383 74.5115,75.7717 72.5,76.5C 68.5859,72.0827 64.4192,67.7493 60,63.5C 56.0416,57.9445 53.0416,51.9445 51,45.5C 50.541,41.6612 50.041,37.8279 49.5,34C 49.9493,30.0584 50.2827,26.0584 50.5,22C 50,21.5 49.5,21 49,20.5C 48.1864,15.9796 48.353,11.6463 49.5,7.5 Z"/></g>
<g><path style="opacity:1" fill="#e9442d" d="M 111.5,54.5 C 114.758,53.4478 117.591,54.4478 120,57.5C 120.483,58.448 120.649,59.448 120.5,60.5C 116.639,59.7399 113.639,57.7399 111.5,54.5 Z"/></g>
<g><path style="opacity:1" fill="#5c3133" d="M 97.5,47.5 C 98.7785,50.0024 98.7785,52.5024 97.5,55C 92.6097,56.4184 89.1097,54.9184 87,50.5C 85.0592,54.9216 82.5592,58.9216 79.5,62.5C 78.5713,61.3112 78.238,59.9778 78.5,58.5C 79.7536,55.9066 81.4202,53.5732 83.5,51.5C 80.7237,50.4852 78.0571,49.4852 75.5,48.5C 77.1484,47.2228 78.9817,46.2228 81,45.5C 81.4828,44.552 81.6495,43.552 81.5,42.5C 85.6092,44.0193 89.9425,44.8527 94.5,45C 95.9423,45.3768 96.9423,46.2101 97.5,47.5 Z"/></g>
<g><path style="opacity:1" fill="#2a3137" d="M 176.5,56.5 C 179.947,56.8143 183.28,57.6476 186.5,59C 187.252,59.6708 187.586,60.5041 187.5,61.5C 186.849,62.0906 186.182,62.7573 185.5,63.5C 183.271,61.447 180.938,61.1137 178.5,62.5C 177.5,62.8333 176.833,63.5 176.5,64.5C 175.833,64.5 175.167,64.5 174.5,64.5C 175.75,61.994 176.416,59.3274 176.5,56.5 Z"/></g>
<g><path style="opacity:1" fill="#62a2c2" d="M 178.5,49.5 C 177.545,51.7457 176.878,54.079 176.5,56.5C 176.416,59.3274 175.75,61.994 174.5,64.5C 171.751,64.2739 169.084,64.6072 166.5,65.5C 165.614,64.675 165.281,63.675 165.5,62.5C 165.5,62.1667 165.5,61.8333 165.5,61.5C 169.608,58.3767 172.941,54.5433 175.5,50C 176.448,49.5172 177.448,49.3505 178.5,49.5 Z"/></g>
<g><path style="opacity:1" fill="#293641" d="M 147.5,48.5 C 147.574,51.3486 147.908,54.3486 148.5,57.5C 150.167,56.1667 151.833,54.8333 153.5,53.5C 154.231,55.4012 154.231,57.4012 153.5,59.5C 156.004,58.3608 158.67,57.6941 161.5,57.5C 161.5,58.5 161.5,59.5 161.5,60.5C 157.777,60.3577 156.944,61.691 159,64.5C 161.292,63.2101 163.292,61.5435 165,59.5C 165.464,60.0944 165.631,60.7611 165.5,61.5C 165.5,61.8333 165.5,62.1667 165.5,62.5C 164.262,64.2143 163.595,66.2143 163.5,68.5C 164.5,68.5 165.5,68.5 166.5,68.5C 166.62,69.5862 167.287,70.2528 168.5,70.5C 170.423,69.9076 172.089,68.9076 173.5,67.5C 172.49,71.0134 170.49,73.8467 167.5,76C 168.5,76.6667 169.5,76.6667 170.5,76C 172.066,73.6744 173.732,71.5078 175.5,69.5C 179.125,71.0815 182.458,70.7481 185.5,68.5C 186.167,68.5 186.5,68.8333 186.5,69.5C 182.982,71.9661 178.982,72.9661 174.5,72.5C 173.833,75.1667 173.167,77.8333 172.5,80.5C 169.954,84.7209 166.621,88.3875 162.5,91.5C 161.833,89.8333 161.167,88.1667 160.5,86.5C 161.736,84.9572 163.402,83.9572 165.5,83.5C 166.776,82.3864 166.776,81.3864 165.5,80.5C 165.043,78.2273 163.71,76.894 161.5,76.5C 162.377,73.9367 161.377,72.27 158.5,71.5C 158.064,69.2537 157.397,67.0871 156.5,65C 154.893,65.0187 153.226,65.1854 151.5,65.5C 151.833,63.5 152.167,61.5 152.5,59.5C 150.167,59.5 147.833,59.5 145.5,59.5C 145.5,58.5 145.5,57.5 145.5,56.5C 144.081,55.5489 142.415,55.2155 140.5,55.5C 140.5,53.1667 140.5,50.8333 140.5,48.5C 142.833,48.5 145.167,48.5 147.5,48.5 Z"/></g>
<g><path style="opacity:1" fill="#8a5876" d="M 174.5,64.5 C 175.167,64.5 175.833,64.5 176.5,64.5C 178.176,65.1834 178.843,66.5168 178.5,68.5C 180.833,68.5 183.167,68.5 185.5,68.5C 182.458,70.7481 179.125,71.0815 175.5,69.5C 175.371,67.7839 175.038,66.1172 174.5,64.5 Z"/></g>
<g><path style="opacity:1" fill="#2b303a" d="M 120.5,75.5 C 120.5,75.8333 120.5,76.1667 120.5,76.5C 119.833,76.5 119.5,76.8333 119.5,77.5C 119.389,82.6113 121.389,86.6113 125.5,89.5C 124.5,89.5 123.5,89.5 122.5,89.5C 122.247,91.8273 122.914,93.8273 124.5,95.5C 125.386,94.675 125.719,93.675 125.5,92.5C 126.451,93.9187 126.784,95.5853 126.5,97.5C 122.802,97.4476 119.135,97.1143 115.5,96.5C 114.915,94.078 113.415,92.4113 111,91.5C 110.218,88.7431 110.718,86.2431 112.5,84C 111.552,83.5172 110.552,83.3505 109.5,83.5C 109.096,78.5689 106.929,74.5689 103,71.5C 99.3903,63.5893 99.7236,55.9226 104,48.5C 104.681,52.2022 104.515,55.8689 103.5,59.5C 106.622,67.2171 112.289,69.8838 120.5,67.5C 120.195,70.414 120.195,73.0807 120.5,75.5 Z"/></g>
<g><path style="opacity:1" fill="#a45162" d="M 178.5,62.5 C 180.831,62.4977 182.831,63.331 184.5,65C 185.337,66.0113 185.67,67.1779 185.5,68.5C 183.167,68.5 180.833,68.5 178.5,68.5C 178.843,66.5168 178.176,65.1834 176.5,64.5C 176.833,63.5 177.5,62.8333 178.5,62.5 Z"/></g>
<g><path style="opacity:1" fill="#4a2d32" d="M 178.5,62.5 C 180.938,61.1137 183.271,61.447 185.5,63.5C 186.182,62.7573 186.849,62.0906 187.5,61.5C 188.475,64.3112 189.142,67.3112 189.5,70.5C 189.565,70.9382 189.399,71.2716 189,71.5C 188.292,70.6195 187.458,69.9528 186.5,69.5C 186.5,68.8333 186.167,68.5 185.5,68.5C 185.67,67.1779 185.337,66.0113 184.5,65C 182.831,63.331 180.831,62.4977 178.5,62.5 Z"/></g>
<g><path style="opacity:1" fill="#d93a31" d="M 173.5,67.5 C 172.089,68.9076 170.423,69.9076 168.5,70.5C 167.287,70.2528 166.62,69.5862 166.5,68.5C 168.677,68.4139 170.677,67.7472 172.5,66.5C 173.107,66.6236 173.44,66.9569 173.5,67.5 Z"/></g>
<g><path style="opacity:1" fill="#6c95af" d="M 145.5,56.5 C 145.5,57.5 145.5,58.5 145.5,59.5C 147.833,59.5 150.167,59.5 152.5,59.5C 152.167,61.5 151.833,63.5 151.5,65.5C 153.226,65.1854 154.893,65.0187 156.5,65C 157.397,67.0871 158.064,69.2537 158.5,71.5C 155.545,70.8413 152.545,70.5079 149.5,70.5C 149.649,69.448 149.483,68.448 149,67.5C 146.611,65.6057 144.444,63.6057 142.5,61.5C 143.705,60.3281 143.705,58.9948 142.5,57.5C 143.325,56.6143 144.325,56.281 145.5,56.5 Z"/></g>
<g><path style="opacity:1" fill="#ac6896" d="M 127.5,66.5 C 127.5,66.8333 127.5,67.1667 127.5,67.5C 126.514,69.4261 125.514,71.4261 124.5,73.5C 123.764,75.2294 122.43,76.2294 120.5,76.5C 120.5,76.1667 120.5,75.8333 120.5,75.5C 122.14,71.8482 124.474,68.8482 127.5,66.5 Z"/></g>
<g><path style="opacity:1" fill="#7db0d4" d="M 137.5,61.5 C 139.167,61.5 140.833,61.5 142.5,61.5C 144.444,63.6057 146.611,65.6057 149,67.5C 149.483,68.448 149.649,69.448 149.5,70.5C 152.545,70.5079 155.545,70.8413 158.5,71.5C 161.377,72.27 162.377,73.9367 161.5,76.5C 161.167,76.5 160.833,76.5 160.5,76.5C 157.657,77.1717 155.157,78.505 153,80.5C 152.691,79.2341 152.191,78.0674 151.5,77C 141.522,78.5014 133.522,75.3347 127.5,67.5C 127.5,67.1667 127.5,66.8333 127.5,66.5C 128.404,65.791 128.737,64.791 128.5,63.5C 131.692,63.5955 134.692,62.9288 137.5,61.5 Z"/></g>
<g><path style="opacity:1" fill="#3b4f6d" d="M 165.5,62.5 C 165.281,63.675 165.614,64.675 166.5,65.5C 169.084,64.6072 171.751,64.2739 174.5,64.5C 175.038,66.1172 175.371,67.7839 175.5,69.5C 173.732,71.5078 172.066,73.6744 170.5,76C 169.5,76.6667 168.5,76.6667 167.5,76C 170.49,73.8467 172.49,71.0134 173.5,67.5C 173.44,66.9569 173.107,66.6236 172.5,66.5C 170.677,67.7472 168.677,68.4139 166.5,68.5C 165.5,68.5 164.5,68.5 163.5,68.5C 163.595,66.2143 164.262,64.2143 165.5,62.5 Z"/></g>
<g><path style="opacity:1" fill="#372a2c" d="M 57.5,82.5 C 53.6113,83.6943 49.6113,83.5277 45.5,82C 41.7189,80.4694 38.3856,78.3027 35.5,75.5C 34.1535,69.3012 36.4868,66.8012 42.5,68C 47.3421,73.009 52.3421,77.8423 57.5,82.5 Z"/></g>
<g><path style="opacity:1" fill="#ab4052" d="M 161.5,76.5 C 163.71,76.894 165.043,78.2273 165.5,80.5C 165.158,81.3382 164.492,81.6716 163.5,81.5C 163.169,79.6776 162.502,78.0109 161.5,76.5 Z"/></g>
<g><path style="opacity:1" fill="#54679d" d="M 127.5,67.5 C 133.522,75.3347 141.522,78.5014 151.5,77C 152.191,78.0674 152.691,79.2341 153,80.5C 155.157,78.505 157.657,77.1717 160.5,76.5C 160.326,78.861 159.993,81.1944 159.5,83.5C 154.312,84.2971 149.812,82.9638 146,79.5C 143.969,82.6213 141.136,83.788 137.5,83C 134.774,80.9702 131.774,79.4702 128.5,78.5C 126.389,77.3954 125.055,75.7288 124.5,73.5C 125.514,71.4261 126.514,69.4261 127.5,67.5 Z"/></g>
<g><path style="opacity:1" fill="#423f63" d="M 124.5,73.5 C 125.055,75.7288 126.389,77.3954 128.5,78.5C 131.774,79.4702 134.774,80.9702 137.5,83C 141.136,83.788 143.969,82.6213 146,79.5C 149.812,82.9638 154.312,84.2971 159.5,83.5C 159.993,81.1944 160.326,78.861 160.5,76.5C 160.833,76.5 161.167,76.5 161.5,76.5C 162.502,78.0109 163.169,79.6776 163.5,81.5C 161.5,83.1667 159.5,84.8333 157.5,86.5C 156.883,86.3893 156.383,86.056 156,85.5C 154.164,87.7084 151.831,89.0417 149,89.5C 148.667,88.1667 148.333,86.8333 148,85.5C 147.259,86.6405 146.425,86.6405 145.5,85.5C 144.573,87.1128 143.739,88.7795 143,90.5C 142.517,89.552 142.351,88.552 142.5,87.5C 140.167,87.5 137.833,87.5 135.5,87.5C 131.151,82.6556 125.818,79.3222 119.5,77.5C 119.5,76.8333 119.833,76.5 120.5,76.5C 122.43,76.2294 123.764,75.2294 124.5,73.5 Z"/></g>
<g><path style="opacity:1" fill="#1d2324" d="M 20.5,94.5 C 17.6217,98.6213 16.1217,103.288 16,108.5C 14.6841,111.028 13.5174,111.028 12.5,108.5C 12.5997,106.007 12.933,103.507 13.5,101C 12.8333,100.333 12.1667,100.333 11.5,101C 9.79219,102.062 9.12552,103.229 9.5,104.5C 6.8403,101.173 3.50697,98.8396 -0.5,97.5C -0.5,93.8333 -0.5,90.1667 -0.5,86.5C 3.64156,84.2652 7.97489,82.2652 12.5,80.5C 14.1667,81.5 15.5,82.8333 16.5,84.5C 16.4779,83.0048 16.8113,81.3381 17.5,79.5C 19.7995,81.5387 21.4662,84.0387 22.5,87C 21.1287,89.3187 20.4621,91.8187 20.5,94.5 Z"/></g>
<g><path style="opacity:1" fill="#311b17" d="M 119.5,77.5 C 125.818,79.3222 131.151,82.6556 135.5,87.5C 137.179,90.0121 136.845,92.0121 134.5,93.5C 133.839,91.2426 132.839,89.9093 131.5,89.5C 130.21,88.9423 129.377,87.9423 129,86.5C 126.906,94.9818 129.739,101.315 137.5,105.5C 134.455,105.492 131.455,105.159 128.5,104.5C 128.918,103.778 129.584,103.278 130.5,103C 129.29,101.961 128.29,100.794 127.5,99.5C 128.439,98.6726 128.105,98.0059 126.5,97.5C 126.784,95.5853 126.451,93.9187 125.5,92.5C 125.5,91.5 125.5,90.5 125.5,89.5C 121.389,86.6113 119.389,82.6113 119.5,77.5 Z"/></g>
<g><path style="opacity:1" fill="#2f1c15" d="M 65.5,87.5 C 66.9108,89.914 68.9108,91.5806 71.5,92.5C 71.5,93.5 71.5,94.5 71.5,95.5C 71.6621,97.5273 71.4955,99.5273 71,101.5C 65.2958,97.6017 61.1291,92.435 58.5,86C 60.8307,86.1571 63.1641,86.6571 65.5,87.5 Z"/></g>
<g><path style="opacity:1" fill="#324b5d" d="M 107.5,112.5 C 108.691,118.3 106.691,122.3 101.5,124.5C 101.023,125.478 100.357,126.311 99.5,127C 100.094,127.464 100.761,127.631 101.5,127.5C 98.0134,127.251 94.3467,127.585 90.5,128.5C 91.006,133.523 91.6727,138.523 92.5,143.5C 91.5,143.5 90.5,143.5 89.5,143.5C 89.0863,138.011 86.5863,133.677 82,130.5C 79.9365,123.701 77.7699,117.034 75.5,110.5C 73.3063,105.634 71.9729,100.634 71.5,95.5C 71.5,94.5 71.5,93.5 71.5,92.5C 71.6355,89.4486 71.3022,86.4486 70.5,83.5C 70.9289,80.9712 71.5955,78.6379 72.5,76.5C 74.5115,75.7717 76.5115,74.9383 78.5,74C 84.3467,69.9091 90.0133,65.5758 95.5,61C 96.4491,60.3828 97.2825,60.5494 98,61.5C 97.2807,65.8929 97.7807,70.2262 99.5,74.5C 104.384,78.3415 107.384,83.3415 108.5,89.5C 107.052,93.0137 105.885,96.6804 105,100.5C 103.023,103.312 100.856,105.978 98.5,108.5C 98.8333,108.833 99.1667,109.167 99.5,109.5C 103.573,106.553 106.24,107.553 107.5,112.5 Z"/></g>
<g><path style="opacity:1" fill="#3775a8" d="M 125.5,89.5 C 125.5,90.5 125.5,91.5 125.5,92.5C 125.719,93.675 125.386,94.675 124.5,95.5C 122.914,93.8273 122.247,91.8273 122.5,89.5C 123.5,89.5 124.5,89.5 125.5,89.5 Z"/></g>
<g><path style="opacity:1" fill="#141617" d="M 186.5,69.5 C 187.458,69.9528 188.292,70.6195 189,71.5C 189.399,71.2716 189.565,70.9382 189.5,70.5C 189.833,70.5 190.167,70.5 190.5,70.5C 194.771,71.6155 199.104,71.2822 203.5,69.5C 204.367,75.7424 202.867,81.409 199,86.5C 196.708,85.0922 194.541,85.2589 192.5,87C 197.083,86.3879 198.916,88.2213 198,92.5C 195.133,98.116 192.466,103.783 190,109.5C 187.24,111.703 184.24,112.036 181,110.5C 176.647,112.355 173.481,115.355 171.5,119.5C 171.308,114.861 172.808,110.861 176,107.5C 176.495,105.527 176.662,103.527 176.5,101.5C 176.397,98.7814 176.731,96.1147 177.5,93.5C 176.098,89.0352 174.431,84.7019 172.5,80.5C 173.167,77.8333 173.833,75.1667 174.5,72.5C 178.982,72.9661 182.982,71.9661 186.5,69.5 Z"/></g>
<g><path style="opacity:1" fill="#366495" d="M 134.5,93.5 C 134.5,94.8333 133.833,95.5 132.5,95.5C 131.833,95.5 131.5,95.1667 131.5,94.5C 131.5,92.8333 131.5,91.1667 131.5,89.5C 132.839,89.9093 133.839,91.2426 134.5,93.5 Z"/></g>
<g><path style="opacity:1" fill="#191e2b" d="M 157.5,86.5 C 156.559,88.7721 155.226,90.7721 153.5,92.5C 152.105,95.7332 149.772,98.2332 146.5,100C 140.71,101.548 136.044,100.048 132.5,95.5C 133.833,95.5 134.5,94.8333 134.5,93.5C 136.845,92.0121 137.179,90.0121 135.5,87.5C 137.833,87.5 140.167,87.5 142.5,87.5C 142.351,88.552 142.517,89.552 143,90.5C 143.739,88.7795 144.573,87.1128 145.5,85.5C 146.425,86.6405 147.259,86.6405 148,85.5C 148.333,86.8333 148.667,88.1667 149,89.5C 151.831,89.0417 154.164,87.7084 156,85.5C 156.383,86.056 156.883,86.3893 157.5,86.5 Z"/></g>
<g><path style="opacity:1" fill="#1b1b19" d="M 35.5,75.5 C 38.3856,78.3027 41.7189,80.4694 45.5,82C 49.6113,83.5277 53.6113,83.6943 57.5,82.5C 60.9421,82.945 63.6088,84.6117 65.5,87.5C 63.1641,86.6571 60.8307,86.1571 58.5,86C 61.1291,92.435 65.2958,97.6017 71,101.5C 71.4955,99.5273 71.6621,97.5273 71.5,95.5C 71.9729,100.634 73.3063,105.634 75.5,110.5C 72.2011,111.376 68.8678,111.543 65.5,111C 60.4934,108.662 56.9934,105.162 55,100.5C 57.4973,102.478 60.3307,102.978 63.5,102C 62.5842,101.722 61.9175,101.222 61.5,100.5C 62.9778,100.762 64.3112,100.429 65.5,99.5C 60.775,96.3906 57.775,92.0572 56.5,86.5C 51.5405,86.1012 46.8738,84.7679 42.5,82.5C 42.1667,83 41.8333,83.5 41.5,84C 42.3195,85.8003 42.9862,87.6336 43.5,89.5C 42.448,89.3505 41.448,89.5172 40.5,90C 41.6956,90.6543 41.6956,91.1543 40.5,91.5C 36.9184,89.8164 36.0851,90.4831 38,93.5C 41.165,95.8221 44.665,97.4887 48.5,98.5C 53.9909,103.605 52.9909,104.772 45.5,102C 41.2435,98.9547 37.0768,95.788 33,92.5C 32.7092,86.6646 33.5425,80.998 35.5,75.5 Z"/></g>
<g><path style="opacity:1" fill="#2e1e19" d="M 61.5,100.5 C 54.1515,98.8354 48.1515,95.1688 43.5,89.5C 42.9862,87.6336 42.3195,85.8003 41.5,84C 41.8333,83.5 42.1667,83 42.5,82.5C 46.8738,84.7679 51.5405,86.1012 56.5,86.5C 57.775,92.0572 60.775,96.3906 65.5,99.5C 64.3112,100.429 62.9778,100.762 61.5,100.5 Z"/></g>
<g><path style="opacity:1" fill="#5e3f19" d="M 131.5,89.5 C 131.5,91.1667 131.5,92.8333 131.5,94.5C 130.769,97.0472 131.769,99.0472 134.5,100.5C 135.659,102.25 137.326,103.25 139.5,103.5C 141.948,104.473 144.615,104.806 147.5,104.5C 144.375,105.479 141.042,105.813 137.5,105.5C 129.739,101.315 126.906,94.9818 129,86.5C 129.377,87.9423 130.21,88.9423 131.5,89.5 Z"/></g>
<g><path style="opacity:1" fill="#516b8a" d="M 160.5,86.5 C 161.167,88.1667 161.833,89.8333 162.5,91.5C 162.247,95.0399 161.581,98.3733 160.5,101.5C 160.259,98.1027 159.593,94.7694 158.5,91.5C 158.667,90.1667 158.833,88.8333 159,87.5C 159.383,86.944 159.883,86.6107 160.5,86.5 Z"/></g>
<g><path style="opacity:1" fill="#7b5823" d="M 153.5,92.5 C 154.5,92.5 155.5,92.5 156.5,92.5C 155.434,97.9699 152.434,101.97 147.5,104.5C 144.615,104.806 141.948,104.473 139.5,103.5C 140.552,103.649 141.552,103.483 142.5,103C 140.059,101.554 137.392,100.721 134.5,100.5C 131.769,99.0472 130.769,97.0472 131.5,94.5C 131.5,95.1667 131.833,95.5 132.5,95.5C 136.044,100.048 140.71,101.548 146.5,100C 149.772,98.2332 152.105,95.7332 153.5,92.5 Z"/></g>
<g><path style="opacity:1" fill="#3da3cd" d="M 172.5,80.5 C 174.431,84.7019 176.098,89.0352 177.5,93.5C 176.731,96.1147 176.397,98.7814 176.5,101.5C 174.775,104.625 173.275,107.958 172,111.5C 171.189,110.04 170.355,109.707 169.5,110.5C 170.52,112.432 170.687,114.432 170,116.5C 168.285,113.283 165.785,110.95 162.5,109.5C 163.038,107.883 163.371,106.216 163.5,104.5C 162.041,104.433 160.708,104.766 159.5,105.5C 159.433,104.041 159.766,102.708 160.5,101.5C 161.581,98.3733 162.247,95.0399 162.5,91.5C 166.621,88.3875 169.954,84.7209 172.5,80.5 Z"/></g>
<g><path style="opacity:1" fill="#171314" d="M 165.5,80.5 C 166.776,81.3864 166.776,82.3864 165.5,83.5C 163.402,83.9572 161.736,84.9572 160.5,86.5C 159.883,86.6107 159.383,86.944 159,87.5C 158.833,88.8333 158.667,90.1667 158.5,91.5C 159.593,94.7694 160.259,98.1027 160.5,101.5C 159.766,102.708 159.433,104.041 159.5,105.5C 156.992,107.924 153.992,109.59 150.5,110.5C 149.167,110.5 147.833,110.5 146.5,110.5C 144.566,111.11 142.899,112.11 141.5,113.5C 139.833,113.5 138.167,113.5 136.5,113.5C 136.167,113.5 135.833,113.5 135.5,113.5C 133.958,112.699 132.292,112.366 130.5,112.5C 128.703,112.935 126.703,112.935 124.5,112.5C 122.588,109.145 119.588,107.645 115.5,108C 114.934,107.005 114.267,106.172 113.5,105.5C 112.737,103.632 111.737,101.965 110.5,100.5C 108.675,96.0081 110.342,94.6747 115.5,96.5C 119.135,97.1143 122.802,97.4476 126.5,97.5C 128.105,98.0059 128.439,98.6726 127.5,99.5C 123.785,99.577 120.119,99.2436 116.5,98.5C 116.261,100.467 116.594,102.301 117.5,104C 118.996,104.507 120.163,104.007 121,102.5C 123.135,104.278 125.635,104.945 128.5,104.5C 131.455,105.159 134.455,105.492 137.5,105.5C 141.042,105.813 144.375,105.479 147.5,104.5C 152.434,101.97 155.434,97.9699 156.5,92.5C 155.5,92.5 154.5,92.5 153.5,92.5C 155.226,90.7721 156.559,88.7721 157.5,86.5C 159.5,84.8333 161.5,83.1667 163.5,81.5C 164.492,81.6716 165.158,81.3382 165.5,80.5 Z"/></g>
<g><path style="opacity:1" fill="#918c76" d="M 156.5,98.5 C 157.598,99.6009 157.765,100.934 157,102.5C 155.333,104.5 153.667,106.5 152,108.5C 151.667,107.5 151.333,106.5 151,105.5C 150.282,106.451 149.449,106.617 148.5,106C 151.666,104 154.332,101.5 156.5,98.5 Z"/></g>
<g><path style="opacity:1" fill="#e6d5b7" d="M 134.5,100.5 C 137.392,100.721 140.059,101.554 142.5,103C 141.552,103.483 140.552,103.649 139.5,103.5C 137.326,103.25 135.659,102.25 134.5,100.5 Z"/></g>
<g><path style="opacity:1" fill="#744138" d="M 127.5,99.5 C 128.29,100.794 129.29,101.961 130.5,103C 129.584,103.278 128.918,103.778 128.5,104.5C 125.635,104.945 123.135,104.278 121,102.5C 120.163,104.007 118.996,104.507 117.5,104C 116.594,102.301 116.261,100.467 116.5,98.5C 120.119,99.2436 123.785,99.577 127.5,99.5 Z"/></g>
<g><path style="opacity:1" fill="#72584b" d="M 110.5,100.5 C 111.737,101.965 112.737,103.632 113.5,105.5C 113.877,108.525 114.044,111.525 114,114.5C 111.602,114.042 109.936,112.708 109,110.5C 108.502,107.518 108.335,104.518 108.5,101.5C 108.842,100.662 109.508,100.328 110.5,100.5 Z"/></g>
<g><path style="opacity:1" fill="#ba9579" d="M 162.5,109.5 C 161.833,109.5 161.5,109.833 161.5,110.5C 158.982,111.924 156.649,113.591 154.5,115.5C 150.065,116.078 148.732,114.411 150.5,110.5C 153.992,109.59 156.992,107.924 159.5,105.5C 160.708,104.766 162.041,104.433 163.5,104.5C 163.371,106.216 163.038,107.883 162.5,109.5 Z"/></g>
<g><path style="opacity:1" fill="#2e7599" d="M 176.5,101.5 C 176.662,103.527 176.495,105.527 176,107.5C 172.808,110.861 171.308,114.861 171.5,119.5C 171.5,119.833 171.5,120.167 171.5,120.5C 168.769,116.766 165.436,113.766 161.5,111.5C 161.5,111.167 161.5,110.833 161.5,110.5C 161.5,109.833 161.833,109.5 162.5,109.5C 165.785,110.95 168.285,113.283 170,116.5C 170.687,114.432 170.52,112.432 169.5,110.5C 170.355,109.707 171.189,110.04 172,111.5C 173.275,107.958 174.775,104.625 176.5,101.5 Z"/></g>
<g><path style="opacity:1" fill="#6e2e24" d="M 146.5,110.5 C 145.68,114.222 147.013,116.555 150.5,117.5C 150.5,118.5 150.5,119.5 150.5,120.5C 146.967,121.715 143.301,121.715 139.5,120.5C 140.609,119.71 141.942,119.21 143.5,119C 142.186,118.015 141.186,116.848 140.5,115.5C 140.833,114.833 141.167,114.167 141.5,113.5C 142.899,112.11 144.566,111.11 146.5,110.5 Z"/></g>
<g><path style="opacity:1" fill="#984f29" d="M 146.5,110.5 C 147.833,110.5 149.167,110.5 150.5,110.5C 148.732,114.411 150.065,116.078 154.5,115.5C 153.713,117.104 152.38,117.771 150.5,117.5C 147.013,116.555 145.68,114.222 146.5,110.5 Z"/></g>
<g><path style="opacity:1" fill="#55382c" d="M 108.5,101.5 C 108.335,104.518 108.502,107.518 109,110.5C 109.936,112.708 111.602,114.042 114,114.5C 114.044,111.525 113.877,108.525 113.5,105.5C 114.267,106.172 114.934,107.005 115.5,108C 119.588,107.645 122.588,109.145 124.5,112.5C 124.167,112.5 123.833,112.5 123.5,112.5C 121.836,114.408 120.169,116.408 118.5,118.5C 116.801,118.66 115.134,118.494 113.5,118C 111.63,115.96 109.63,114.127 107.5,112.5C 107.185,108.629 107.518,104.962 108.5,101.5 Z"/></g>
<g><path style="opacity:1" fill="#9d614a" d="M 123.5,112.5 C 123.833,112.5 124.167,112.5 124.5,112.5C 126.703,112.935 128.703,112.935 130.5,112.5C 130.5,113.167 130.5,113.833 130.5,114.5C 128.906,114.92 127.406,115.586 126,116.5C 124.405,115.644 123.572,114.311 123.5,112.5 Z"/></g>
<g><path style="opacity:1" fill="#cea87d" d="M 130.5,112.5 C 132.292,112.366 133.958,112.699 135.5,113.5C 134.89,114.391 134.557,115.391 134.5,116.5C 132.938,116.267 131.605,115.6 130.5,114.5C 130.5,113.833 130.5,113.167 130.5,112.5 Z"/></g>
<g><path style="opacity:1" fill="#3fa0c8" d="M 161.5,111.5 C 165.436,113.766 168.769,116.766 171.5,120.5C 172.468,123.445 172.634,126.445 172,129.5C 170.041,133.904 168.208,138.238 166.5,142.5C 163.203,140.217 159.869,137.884 156.5,135.5C 160.2,127.088 158.7,125.421 152,130.5C 150.855,129.316 149.688,129.316 148.5,130.5C 148.421,129.07 148.754,127.736 149.5,126.5C 151.934,124.079 153.934,121.412 155.5,118.5C 159.006,117.336 161.006,115.003 161.5,111.5 Z"/></g>
<g><path style="opacity:1" fill="#b59d70" d="M 142.5,113.5 C 146.157,113.974 146.324,115.307 143,117.5C 142.51,116.207 142.343,114.873 142.5,113.5 Z"/></g>
<g><path style="opacity:1" fill="#ad8b5f" d="M 136.5,113.5 C 138.167,113.5 139.833,113.5 141.5,113.5C 141.167,114.167 140.833,114.833 140.5,115.5C 140.5,116.5 140.5,117.5 140.5,118.5C 139.167,118.5 137.833,118.5 136.5,118.5C 136.5,116.833 136.5,115.167 136.5,113.5 Z"/></g>
<g><path style="opacity:1" fill="#651f19" d="M 123.5,112.5 C 123.572,114.311 124.405,115.644 126,116.5C 127.406,115.586 128.906,114.92 130.5,114.5C 131.605,115.6 132.938,116.267 134.5,116.5C 134.574,118.411 135.574,119.578 137.5,120C 136.552,120.483 135.552,120.649 134.5,120.5C 129.661,120.222 124.994,120.888 120.5,122.5C 119.602,121.842 118.602,121.176 117.5,120.5C 117.863,119.817 118.196,119.15 118.5,118.5C 120.169,116.408 121.836,114.408 123.5,112.5 Z"/></g>
<g><path style="opacity:1" fill="#553e25" d="M 161.5,110.5 C 161.5,110.833 161.5,111.167 161.5,111.5C 161.006,115.003 159.006,117.336 155.5,118.5C 154.29,118.932 153.29,119.599 152.5,120.5C 151.833,120.5 151.167,120.5 150.5,120.5C 150.5,119.5 150.5,118.5 150.5,117.5C 152.38,117.771 153.713,117.104 154.5,115.5C 156.649,113.591 158.982,111.924 161.5,110.5 Z"/></g>
<g><path style="opacity:1" fill="#3c1614" d="M 135.5,113.5 C 135.833,113.5 136.167,113.5 136.5,113.5C 136.5,115.167 136.5,116.833 136.5,118.5C 137.833,118.5 139.167,118.5 140.5,118.5C 140.5,117.5 140.5,116.5 140.5,115.5C 141.186,116.848 142.186,118.015 143.5,119C 141.942,119.21 140.609,119.71 139.5,120.5C 137.833,121.833 136.167,121.833 134.5,120.5C 135.552,120.649 136.552,120.483 137.5,120C 135.574,119.578 134.574,118.411 134.5,116.5C 134.557,115.391 134.89,114.391 135.5,113.5 Z"/></g>
<g><path style="opacity:1" fill="#13323e" d="M 226.5,143.5 C 222.5,143.5 218.5,143.5 214.5,143.5C 214.297,141.61 214.963,140.11 216.5,139C 215.273,136.264 214.273,133.431 213.5,130.5C 212.675,129.614 211.675,129.281 210.5,129.5C 210.66,127.801 210.494,126.134 210,124.5C 208.247,121.995 206.747,119.329 205.5,116.5C 206.853,115.476 207.52,114.143 207.5,112.5C 208.161,111.282 208.828,109.949 209.5,108.5C 213.887,113.554 218.554,118.221 223.5,122.5C 224.142,126.059 225.309,129.393 227,132.5C 227.755,136.255 227.589,139.922 226.5,143.5 Z"/></g>
<g><path style="opacity:1" fill="#142729" d="M 20.5,94.5 C 21.7374,100.698 24.9041,105.698 30,109.5C 30.3333,109.167 30.6667,108.833 31,108.5C 31.9082,111.743 33.9082,114.077 37,115.5C 37.2045,113.167 38.5379,111.167 41,109.5C 44.2493,110.917 47.0827,112.917 49.5,115.5C 50.086,115.291 50.586,114.957 51,114.5C 52.8003,117.051 54.8003,119.385 57,121.5C 57.3333,121.167 57.6667,120.833 58,120.5C 59.9121,122.657 61.5787,124.991 63,127.5C 63.3333,127.167 63.6667,126.833 64,126.5C 65.2837,127.572 65.6171,128.905 65,130.5C 69.0854,134.097 72.2521,138.43 74.5,143.5C 65.1667,143.5 55.8333,143.5 46.5,143.5C 46.4142,142.504 46.7476,141.671 47.5,141C 42.8715,140.19 39.5382,137.69 37.5,133.5C 34.2134,132.96 31.38,131.626 29,129.5C 26.7283,130.24 24.7283,130.24 23,129.5C 20.6208,127.116 17.7875,125.616 14.5,125C 14.8333,124.667 15.1667,124.333 15.5,124C 12.6753,120.515 9.00864,118.848 4.5,119C 5.16667,118.333 5.83333,117.667 6.5,117C 4.90313,112.209 3.40313,107.709 2,103.5C 1.6582,105.619 0.824868,105.953 -0.5,104.5C -0.5,102.167 -0.5,99.8333 -0.5,97.5C 3.50697,98.8396 6.8403,101.173 9.5,104.5C 9.12552,103.229 9.79219,102.062 11.5,101C 12.1667,100.333 12.8333,100.333 13.5,101C 12.933,103.507 12.5997,106.007 12.5,108.5C 13.5174,111.028 14.6841,111.028 16,108.5C 16.1217,103.288 17.6217,98.6213 20.5,94.5 Z"/></g>
<g><path style="opacity:1" fill="#26475c" d="M 111.5,128.5 C 108.307,127.583 105.307,127.249 102.5,127.5C 106.501,120.588 109.501,120.922 111.5,128.5 Z"/></g>
<g><path style="opacity:1" fill="#1c181e" d="M 107.5,112.5 C 109.63,114.127 111.63,115.96 113.5,118C 115.134,118.494 116.801,118.66 118.5,118.5C 118.196,119.15 117.863,119.817 117.5,120.5C 118.602,121.176 119.602,121.842 120.5,122.5C 120.082,123.222 119.416,123.722 118.5,124C 128.833,124.667 139.167,124.667 149.5,124C 150.71,122.961 151.71,121.794 152.5,120.5C 153.29,119.599 154.29,118.932 155.5,118.5C 153.934,121.412 151.934,124.079 149.5,126.5C 148.754,127.736 148.421,129.07 148.5,130.5C 147.391,130.557 146.391,130.89 145.5,131.5C 145.703,129.61 145.037,128.11 143.5,127C 137.871,125.803 132.204,125.47 126.5,126C 123.044,127.37 120.711,129.204 119.5,131.5C 118.5,131.5 117.5,131.5 116.5,131.5C 115.07,130.463 113.403,129.796 111.5,129.5C 111.5,129.167 111.5,128.833 111.5,128.5C 109.501,120.922 106.501,120.588 102.5,127.5C 102.167,127.5 101.833,127.5 101.5,127.5C 100.761,127.631 100.094,127.464 99.5,127C 100.357,126.311 101.023,125.478 101.5,124.5C 106.691,122.3 108.691,118.3 107.5,112.5 Z"/></g>
<g><path style="opacity:1" fill="#534f5f" d="M 134.5,120.5 C 136.167,121.833 137.833,121.833 139.5,120.5C 143.301,121.715 146.967,121.715 150.5,120.5C 151.167,120.5 151.833,120.5 152.5,120.5C 151.71,121.794 150.71,122.961 149.5,124C 139.167,124.667 128.833,124.667 118.5,124C 119.416,123.722 120.082,123.222 120.5,122.5C 124.994,120.888 129.661,120.222 134.5,120.5 Z"/></g>
<g><path style="opacity:1" fill="#0d232a" d="M 207.5,112.5 C 207.52,114.143 206.853,115.476 205.5,116.5C 206.747,119.329 208.247,121.995 210,124.5C 210.494,126.134 210.66,127.801 210.5,129.5C 211.675,129.281 212.675,129.614 213.5,130.5C 214.273,133.431 215.273,136.264 216.5,139C 214.963,140.11 214.297,141.61 214.5,143.5C 203.5,143.5 192.5,143.5 181.5,143.5C 182.026,136.456 184.692,130.456 189.5,125.5C 188.167,123.5 188.167,121.5 189.5,119.5C 193,115.167 196.5,110.833 200,106.5C 200.71,107.973 201.876,108.64 203.5,108.5C 203.167,111.5 204.5,112.833 207.5,112.5 Z"/></g>
<g><path style="opacity:1" fill="#121f31" d="M 145.5,131.5 C 144.486,132.674 143.153,133.34 141.5,133.5C 140.406,132.418 139.073,131.752 137.5,131.5C 133.712,131.675 130.045,132.008 126.5,132.5C 123.875,133.924 121.542,133.591 119.5,131.5C 120.711,129.204 123.044,127.37 126.5,126C 132.204,125.47 137.871,125.803 143.5,127C 145.037,128.11 145.703,129.61 145.5,131.5 Z"/></g>
<g><path style="opacity:1" fill="#49a8d4" d="M 101.5,127.5 C 101.833,127.5 102.167,127.5 102.5,127.5C 105.307,127.249 108.307,127.583 111.5,128.5C 111.5,128.833 111.5,129.167 111.5,129.5C 107.79,128.972 104.623,129.972 102,132.5C 101.228,132.355 100.561,132.022 100,131.5C 97.6496,133.683 95.483,136.016 93.5,138.5C 95.0049,139.842 95.6715,141.508 95.5,143.5C 94.5,143.5 93.5,143.5 92.5,143.5C 91.6727,138.523 91.006,133.523 90.5,128.5C 94.3467,127.585 98.0134,127.251 101.5,127.5 Z"/></g>
<g><path style="opacity:1" fill="#60c7f5" d="M 111.5,129.5 C 113.403,129.796 115.07,130.463 116.5,131.5C 116.663,133.857 116.497,136.19 116,138.5C 114.293,140.037 112.793,141.704 111.5,143.5C 106.167,143.5 100.833,143.5 95.5,143.5C 95.6715,141.508 95.0049,139.842 93.5,138.5C 95.483,136.016 97.6496,133.683 100,131.5C 100.561,132.022 101.228,132.355 102,132.5C 104.623,129.972 107.79,128.972 111.5,129.5 Z"/></g>
<g><path style="opacity:1" fill="#66c5f0" d="M 141.5,133.5 C 142.414,136.728 142.747,140.061 142.5,143.5C 133.833,143.5 125.167,143.5 116.5,143.5C 118.733,138.602 122.066,134.935 126.5,132.5C 130.045,132.008 133.712,131.675 137.5,131.5C 139.073,131.752 140.406,132.418 141.5,133.5 Z"/></g>
<g><path style="opacity:1" fill="#22494d" d="M -0.5,121.5 C 1.42576,122.242 3.25909,123.242 5,124.5C 7.62676,129.442 10.9601,133.775 15,137.5C 15.3333,137.167 15.6667,136.833 16,136.5C 19.1914,138.397 22.0247,140.731 24.5,143.5C 16.1667,143.5 7.83333,143.5 -0.5,143.5C -0.5,136.167 -0.5,128.833 -0.5,121.5 Z"/></g>
<g><path style="opacity:1" fill="#4eb9e4" d="M 166.5,142.5 C 166.5,142.833 166.5,143.167 166.5,143.5C 159.5,143.5 152.5,143.5 145.5,143.5C 145.687,141.436 146.187,139.436 147,137.5C 148.405,139.107 150.072,140.44 152,141.5C 152.5,141.167 153,140.833 153.5,140.5C 151.517,139.018 149.684,137.351 148,135.5C 147.36,133.735 147.527,132.068 148.5,130.5C 149.688,129.316 150.855,129.316 152,130.5C 158.7,125.421 160.2,127.088 156.5,135.5C 159.869,137.884 163.203,140.217 166.5,142.5 Z"/></g>
<g><path style="opacity:1" fill="#1d393b" d="M 46.5,143.5 C 39.1667,143.5 31.8333,143.5 24.5,143.5C 22.0247,140.731 19.1914,138.397 16,136.5C 15.6667,136.833 15.3333,137.167 15,137.5C 10.9601,133.775 7.62676,129.442 5,124.5C 3.25909,123.242 1.42576,122.242 -0.5,121.5C -0.5,115.833 -0.5,110.167 -0.5,104.5C 0.824868,105.953 1.6582,105.619 2,103.5C 3.40313,107.709 4.90313,112.209 6.5,117C 5.83333,117.667 5.16667,118.333 4.5,119C 9.00864,118.848 12.6753,120.515 15.5,124C 15.1667,124.333 14.8333,124.667 14.5,125C 17.7875,125.616 20.6208,127.116 23,129.5C 24.7283,130.24 26.7283,130.24 29,129.5C 31.38,131.626 34.2134,132.96 37.5,133.5C 39.5382,137.69 42.8715,140.19 47.5,141C 46.7476,141.671 46.4142,142.504 46.5,143.5 Z"/></g>
<g><path style="opacity:1" fill="#3f93bf" d="M 116.5,131.5 C 117.5,131.5 118.5,131.5 119.5,131.5C 121.542,133.591 123.875,133.924 126.5,132.5C 122.066,134.935 118.733,138.602 116.5,143.5C 114.833,143.5 113.167,143.5 111.5,143.5C 112.793,141.704 114.293,140.037 116,138.5C 116.497,136.19 116.663,133.857 116.5,131.5 Z"/></g>
<g><path style="opacity:1" fill="#3a8bb8" d="M 148.5,130.5 C 147.527,132.068 147.36,133.735 148,135.5C 149.684,137.351 151.517,139.018 153.5,140.5C 153,140.833 152.5,141.167 152,141.5C 150.072,140.44 148.405,139.107 147,137.5C 146.187,139.436 145.687,141.436 145.5,143.5C 144.5,143.5 143.5,143.5 142.5,143.5C 142.747,140.061 142.414,136.728 141.5,133.5C 143.153,133.34 144.486,132.674 145.5,131.5C 146.391,130.89 147.391,130.557 148.5,130.5 Z"/></g>
</svg>
