<?xml version="1.0" encoding="UTF-8"?>
<!DOCTYPE svg PUBLIC "-//W3C//DTD SVG 1.1//EN" "http://www.w3.org/Graphics/SVG/1.1/DTD/svg11.dtd">
<svg xmlns="http://www.w3.org/2000/svg" version="1.1" width="256px" height="144px" style="shape-rendering:geometricPrecision; text-rendering:geometricPrecision; image-rendering:optimizeQuality; fill-rule:evenodd; clip-rule:evenodd" xmlns:xlink="http://www.w3.org/1999/xlink">
<g><path style="opacity:1" fill="#131d1d" d="M 75.5,0.5 C 89.5159,0.167421 103.516,0.500755 117.5,1.5C 117.291,2.08605 116.957,2.58605 116.5,3C 118.107,4.04899 118.773,5.54899 118.5,7.5C 115.646,7.07608 112.979,6.07608 110.5,4.5C 110.795,5.82551 110.295,7.15885 109,8.5C 107.437,5.95566 105.937,5.95566 104.5,8.5C 101.175,6.99256 98.8413,7.99256 97.5,11.5C 92.0046,8.57785 86.838,8.91119 82,12.5C 81.586,12.0426 81.086,11.7093 80.5,11.5C 79.8333,12.8333 79.1667,14.1667 78.5,15.5C 78.3309,14.6034 77.9976,13.6034 77.5,12.5C 73.2004,13.4219 68.7004,14.7552 64,16.5C 62.5349,15.6705 61.0349,15.5038 59.5,16C 57.2334,19.7199 54.4,22.8865 51,25.5C 49.3148,23.0122 47.9814,23.3455 47,26.5C 46.6667,25.5 46.3333,24.5 46,23.5C 44.8333,25.3333 43.6667,27.1667 42.5,29C 38.384,29.3255 34.384,30.1588 30.5,31.5C 28.8555,33.9252 27.6888,36.5919 27,39.5C 19.306,44.5273 12.9727,50.8607 8,58.5C 8.15924,63.0932 5.65924,65.4266 0.5,65.5C 0.8064,62.6146 0.473067,59.9479 -0.5,57.5C -0.5,57.1667 -0.5,56.8333 -0.5,56.5C 0.473067,54.0521 0.8064,51.3854 0.5,48.5C 2.58869,46.746 4.92203,45.4127 7.5,44.5C 7.35055,43.448 7.51722,42.448 8,41.5C 8.66667,40.1667 9.33333,40.1667 10,41.5C 10.5611,39.2746 11.5611,37.2746 13,35.5C 13.414,35.9574 13.914,36.2907 14.5,36.5C 17.2685,34.3939 20.2685,32.7272 23.5,31.5C 25.4904,29.3442 27.6571,27.3442 30,25.5C 30.414,25.9574 30.914,26.2907 31.5,26.5C 33.7546,24.4329 35.0879,22.2662 35.5,20C 35.3842,18.7318 35.0509,17.3985 34.5,16C 36.108,15.342 37.2747,15.842 38,17.5C 39.1475,16.5419 40.1475,16.8753 41,18.5C 42.8161,17.6705 44.6494,16.8372 46.5,16C 48.394,12.4697 51.5606,9.63641 56,7.5C 60.9493,11.668 65.2826,11.0014 69,5.5C 70.073,6.27972 71.2396,6.11305 72.5,5C 71.8333,4.66667 71.1667,4.33333 70.5,4C 72.9325,1.03354 74.4325,1.2002 75,4.5C 76.7683,3.31814 76.9349,1.9848 75.5,0.5 Z"/></g>
<g><path style="opacity:1" fill="#322e29" d="M 174.5,-0.5 C 180.5,-0.5 186.5,-0.5 192.5,-0.5C 193.476,0.814858 194.476,2.14819 195.5,3.5C 194.057,6.07654 192.39,8.40988 190.5,10.5C 190.201,5.47934 187.534,2.31267 182.5,1C 179.044,-0.122968 176.21,0.710366 174,3.5C 171.597,7.63473 169.763,11.9681 168.5,16.5C 167.857,18.0764 166.857,19.4097 165.5,20.5C 165.5,19.5 165.5,18.5 165.5,17.5C 168.423,11.5442 171.423,5.5442 174.5,-0.5 Z"/></g>
<g><path style="opacity:1" fill="#1d2a2d" d="M 198.5,-0.5 C 217.5,-0.5 236.5,-0.5 255.5,-0.5C 255.5,4.16667 255.5,8.83333 255.5,13.5C 255.167,13.5 254.833,13.5 254.5,13.5C 247.548,10.6811 240.882,11.3478 234.5,15.5C 234.5,15.1667 234.5,14.8333 234.5,14.5C 235.873,11.6166 235.207,9.28326 232.5,7.5C 225.771,5.20198 218.937,3.20198 212,1.5C 209.114,2.54628 206.614,4.21295 204.5,6.5C 202.5,4.16667 200.5,1.83333 198.5,-0.5 Z"/></g>
<g><path style="opacity:1" fill="#e4ddcd" d="M 140.5,-0.5 C 143.5,-0.5 146.5,-0.5 149.5,-0.5C 149.5,1.16667 149.5,2.83333 149.5,4.5C 148.542,4.9528 147.708,5.61947 147,6.5C 146.502,9.81677 146.335,13.1501 146.5,16.5C 145.596,17.209 145.263,18.209 145.5,19.5C 141.174,22.8251 139.674,27.1584 141,32.5C 138.925,34.6483 136.592,34.9817 134,33.5C 132.473,27.5851 132.139,21.5851 133,15.5C 133.332,11.6527 134.498,8.15275 136.5,5C 135.423,4.53042 134.423,4.69708 133.5,5.5C 133.5,5.16667 133.5,4.83333 133.5,4.5C 136.009,3.07874 138.343,1.41207 140.5,-0.5 Z"/></g>
<g><path style="opacity:1" fill="#ded7c5" d="M 153.5,-0.5 C 159.5,-0.5 165.5,-0.5 171.5,-0.5C 168.891,5.25687 166.891,11.2569 165.5,17.5C 159.433,17.7422 154.766,20.4089 151.5,25.5C 150.522,25.0233 149.689,24.3567 149,23.5C 148.635,15.1561 150.135,7.15611 153.5,-0.5 Z"/></g>
<g><path style="opacity:1" fill="#908672" d="M 138.5,-0.5 C 139.167,-0.5 139.833,-0.5 140.5,-0.5C 138.343,1.41207 136.009,3.07874 133.5,4.5C 130.437,6.05121 127.771,8.21788 125.5,11C 124.833,11.6667 124.167,11.6667 123.5,11C 127.547,5.76955 132.547,1.93621 138.5,-0.5 Z"/></g>
<g><path style="opacity:1" fill="#1a1816" d="M 192.5,-0.5 C 194.5,-0.5 196.5,-0.5 198.5,-0.5C 200.5,1.83333 202.5,4.16667 204.5,6.5C 199.793,11.2046 195.46,16.2046 191.5,21.5C 190.197,23.1423 188.864,24.8089 187.5,26.5C 185.866,25.4188 184.533,24.0855 183.5,22.5C 185.833,18.5 188.167,14.5 190.5,10.5C 192.39,8.40988 194.057,6.07654 195.5,3.5C 194.476,2.14819 193.476,0.814858 192.5,-0.5 Z"/></g>
<g><path style="opacity:1" fill="#685d4a" d="M 171.5,-0.5 C 172.5,-0.5 173.5,-0.5 174.5,-0.5C 171.423,5.5442 168.423,11.5442 165.5,17.5C 166.891,11.2569 168.891,5.25687 171.5,-0.5 Z"/></g>
<g><path style="opacity:1" fill="#172122" d="M -0.5,-0.5 C 42.8333,-0.5 86.1667,-0.5 129.5,-0.5C 123.98,5.19949 119.98,11.8662 117.5,19.5C 116.732,18.7375 116.232,17.7375 116,16.5C 114.334,17.3402 114.167,16.8402 115.5,15C 114.175,15.1484 113.008,14.9817 112,14.5C 111.439,16.7254 110.439,18.7254 109,20.5C 105.574,16.9807 102.24,16.6474 99,19.5C 97.2431,18.6288 95.2431,18.6288 93,19.5C 91.6349,19.1557 90.4682,18.4891 89.5,17.5C 89.0941,18.5575 89.0941,19.8908 89.5,21.5C 84.6225,21.6803 80.6225,23.0137 77.5,25.5C 76.914,25.2907 76.414,24.9574 76,24.5C 75.2131,25.7107 74.5464,26.7107 74,27.5C 72.7387,27.2409 71.7387,26.5742 71,25.5C 70.7787,28.9431 69.7787,29.2764 68,26.5C 64.9895,29.0115 62.1561,31.6782 59.5,34.5C 58.5224,34.0233 57.6891,33.3567 57,32.5C 56.3109,33.3567 55.4776,34.0233 54.5,34.5C 53.2322,33.5721 51.8989,33.4054 50.5,34C 51.7112,34.8928 51.7112,35.7261 50.5,36.5C 48.8333,37.8333 47.1667,37.8333 45.5,36.5C 41.8571,38.4642 39.8571,41.4642 39.5,45.5C 38.1779,45.67 37.0113,45.3366 36,44.5C 32.8922,46.073 29.7256,47.573 26.5,49C 23.9579,51.7112 21.2912,54.2112 18.5,56.5C 16.2503,60.6682 13.7503,64.6682 11,68.5C 9.92702,67.7203 8.76035,67.887 7.5,69C 8.42386,69.85 8.42386,70.85 7.5,72C 5.65026,74.348 3.65026,76.5147 1.5,78.5C 0.507763,74.2172 0.17443,69.8839 0.5,65.5C 5.65924,65.4266 8.15924,63.0932 8,58.5C 12.9727,50.8607 19.306,44.5273 27,39.5C 27.6888,36.5919 28.8555,33.9252 30.5,31.5C 34.384,30.1588 38.384,29.3255 42.5,29C 43.6667,27.1667 44.8333,25.3333 46,23.5C 46.3333,24.5 46.6667,25.5 47,26.5C 47.9814,23.3455 49.3148,23.0122 51,25.5C 54.4,22.8865 57.2334,19.7199 59.5,16C 61.0349,15.5038 62.5349,15.6705 64,16.5C 68.7004,14.7552 73.2004,13.4219 77.5,12.5C 77.9976,13.6034 78.3309,14.6034 78.5,15.5C 79.1667,14.1667 79.8333,12.8333 80.5,11.5C 81.086,11.7093 81.586,12.0426 82,12.5C 86.838,8.91119 92.0046,8.57785 97.5,11.5C 98.8413,7.99256 101.175,6.99256 104.5,8.5C 105.937,5.95566 107.437,5.95566 109,8.5C 110.295,7.15885 110.795,5.82551 110.5,4.5C 112.979,6.07608 115.646,7.07608 118.5,7.5C 118.773,5.54899 118.107,4.04899 116.5,3C 116.957,2.58605 117.291,2.08605 117.5,1.5C 103.516,0.500755 89.5159,0.167421 75.5,0.5C 63.8333,0.5 52.1667,0.5 40.5,0.5C 27.1667,0.5 13.8333,0.5 0.5,0.5C 0.5,11.5 0.5,22.5 0.5,33.5C 0.5,38.5 0.5,43.5 0.5,48.5C 0.8064,51.3854 0.473067,54.0521 -0.5,56.5C -0.5,37.5 -0.5,18.5 -0.5,-0.5 Z"/></g>
<g><path style="opacity:1" fill="#111a1a" d="M 40.5,0.5 C 52.1667,0.5 63.8333,0.5 75.5,0.5C 76.9349,1.9848 76.7683,3.31814 75,4.5C 74.4325,1.2002 72.9325,1.03354 70.5,4C 71.1667,4.33333 71.8333,4.66667 72.5,5C 71.2396,6.11305 70.073,6.27972 69,5.5C 65.2826,11.0014 60.9493,11.668 56,7.5C 51.5606,9.63641 48.394,12.4697 46.5,16C 44.6494,16.8372 42.8161,17.6705 41,18.5C 40.1475,16.8753 39.1475,16.5419 38,17.5C 37.2747,15.842 36.108,15.342 34.5,16C 35.0509,17.3985 35.3842,18.7318 35.5,20C 35.0879,22.2662 33.7546,24.4329 31.5,26.5C 30.914,26.2907 30.414,25.9574 30,25.5C 27.6571,27.3442 25.4904,29.3442 23.5,31.5C 20.2685,32.7272 17.2685,34.3939 14.5,36.5C 13.914,36.2907 13.414,35.9574 13,35.5C 11.5611,37.2746 10.5611,39.2746 10,41.5C 9.33333,40.1667 8.66667,40.1667 8,41.5C 7.51722,42.448 7.35055,43.448 7.5,44.5C 4.92203,45.4127 2.58869,46.746 0.5,48.5C 0.5,43.5 0.5,38.5 0.5,33.5C 1.74975,33.4226 2.58309,32.756 3,31.5C 3.68909,32.3567 4.52242,33.0233 5.5,33.5C 8.421,31.9106 11.421,30.4106 14.5,29C 16.5407,27.7582 17.7073,25.9249 18,23.5C 22.7226,22.7833 25.7226,19.7833 27,14.5C 27.3333,14.8333 27.6667,15.1667 28,15.5C 30.2246,14.0611 32.2246,12.3945 34,10.5C 36.3333,10.5 38.6667,10.5 41,10.5C 41.5356,8.43277 41.0356,6.59944 39.5,5C 40.3802,3.64387 40.7135,2.14387 40.5,0.5 Z"/></g>
<g><path style="opacity:1" fill="#0f1616" d="M 40.5,0.5 C 40.7135,2.14387 40.3802,3.64387 39.5,5C 41.0356,6.59944 41.5356,8.43277 41,10.5C 38.6667,10.5 36.3333,10.5 34,10.5C 32.2246,12.3945 30.2246,14.0611 28,15.5C 27.6667,15.1667 27.3333,14.8333 27,14.5C 25.7226,19.7833 22.7226,22.7833 18,23.5C 17.7073,25.9249 16.5407,27.7582 14.5,29C 11.421,30.4106 8.421,31.9106 5.5,33.5C 4.52242,33.0233 3.68909,32.3567 3,31.5C 2.58309,32.756 1.74975,33.4226 0.5,33.5C 0.5,22.5 0.5,11.5 0.5,0.5C 13.8333,0.5 27.1667,0.5 40.5,0.5 Z"/></g>
<g><path style="opacity:1" fill="#b1a486" d="M 149.5,4.5 C 148.868,8.70241 147.868,12.7024 146.5,16.5C 146.335,13.1501 146.502,9.81677 147,6.5C 147.708,5.61947 148.542,4.9528 149.5,4.5 Z"/></g>
<g><path style="opacity:1" fill="#d6cfbd" d="M 145.5,19.5 C 144.92,23.81 144.586,28.1434 144.5,32.5C 144.657,33.8734 144.49,35.2068 144,36.5C 143.586,36.0426 143.086,35.7093 142.5,35.5C 139.851,37.2056 137.018,38.5389 134,39.5C 133.463,34.407 130.963,30.7404 126.5,28.5C 127.422,21.3886 128.922,14.3886 131,7.5C 131.708,6.61947 132.542,5.9528 133.5,5.5C 134.423,4.69708 135.423,4.53042 136.5,5C 134.498,8.15275 133.332,11.6527 133,15.5C 132.139,21.5851 132.473,27.5851 134,33.5C 136.592,34.9817 138.925,34.6483 141,32.5C 139.674,27.1584 141.174,22.8251 145.5,19.5 Z"/></g>
<g><path style="opacity:1" fill="#645f58" d="M 190.5,10.5 C 188.167,14.5 185.833,18.5 183.5,22.5C 183.167,22.5 182.833,22.5 182.5,22.5C 178.491,22.1417 174.491,21.6417 170.5,21C 168.963,19.8904 168.297,18.3904 168.5,16.5C 169.763,11.9681 171.597,7.63473 174,3.5C 176.21,0.710366 179.044,-0.122968 182.5,1C 187.534,2.31267 190.201,5.47934 190.5,10.5 Z"/></g>
<g><path style="opacity:1" fill="#c6bea4" d="M 232.5,7.5 C 228.028,11.8012 223.361,15.9679 218.5,20C 215.752,22.0406 212.752,23.5406 209.5,24.5C 207.832,22.1423 205.499,20.4757 202.5,19.5C 198.843,20.2485 195.177,20.9152 191.5,21.5C 195.46,16.2046 199.793,11.2046 204.5,6.5C 206.614,4.21295 209.114,2.54628 212,1.5C 218.937,3.20198 225.771,5.20198 232.5,7.5 Z"/></g>
<g><path style="opacity:1" fill="#192426" d="M 117.5,19.5 C 117.313,22.6905 115.646,24.6905 112.5,25.5C 111.262,25.19 111.262,24.69 112.5,24C 108.17,22.8022 103.836,22.4688 99.5,23C 100.833,23.6667 100.833,24.3333 99.5,25C 97.5594,25.7429 95.7261,25.5762 94,24.5C 90.8655,25.8735 87.8655,27.5402 85,29.5C 84.6667,29.1667 84.3333,28.8333 84,28.5C 80.6378,32.0882 76.9711,33.0882 73,31.5C 70.3494,33.6499 67.8494,35.9832 65.5,38.5C 63.3087,37.3294 61.1421,37.6627 59,39.5C 58.6121,38.572 57.9454,37.9054 57,37.5C 56.7101,39.1025 55.8767,40.6025 54.5,42C 53.1667,41.6667 51.8333,41.3333 50.5,41C 49.9103,42.5095 49.2436,44.0095 48.5,45.5C 44.8022,44.64 41.9689,45.9734 40,49.5C 38.187,48.3909 37.3537,49.0576 37.5,51.5C 32.4322,50.7339 29.0989,52.7339 27.5,57.5C 24.2436,58.9589 21.5769,61.1255 19.5,64C 19.8333,64.3333 20.1667,64.6667 20.5,65C 18.6667,67.5 16.8333,70 15,72.5C 14.6667,71.8333 14.3333,71.1667 14,70.5C 12.6667,72.5 11,74.1667 9,75.5C 8.66667,76.8333 8.33333,78.1667 8,79.5C 7.58605,79.0426 7.08605,78.7093 6.5,78.5C 5.66667,79.5 4.83333,80.5 4,81.5C 3.66667,81.1667 3.33333,80.8333 3,80.5C 2.58309,81.756 1.74975,82.4226 0.5,82.5C 0.67158,81.5084 0.338246,80.8417 -0.5,80.5C -0.5,72.8333 -0.5,65.1667 -0.5,57.5C 0.473067,59.9479 0.8064,62.6146 0.5,65.5C 0.17443,69.8839 0.507763,74.2172 1.5,78.5C 3.65026,76.5147 5.65026,74.348 7.5,72C 8.42386,70.85 8.42386,69.85 7.5,69C 8.76035,67.887 9.92702,67.7203 11,68.5C 13.7503,64.6682 16.2503,60.6682 18.5,56.5C 21.2912,54.2112 23.9579,51.7112 26.5,49C 29.7256,47.573 32.8922,46.073 36,44.5C 37.0113,45.3366 38.1779,45.67 39.5,45.5C 39.8571,41.4642 41.8571,38.4642 45.5,36.5C 47.1667,37.8333 48.8333,37.8333 50.5,36.5C 51.7112,35.7261 51.7112,34.8928 50.5,34C 51.8989,33.4054 53.2322,33.5721 54.5,34.5C 55.4776,34.0233 56.3109,33.3567 57,32.5C 57.6891,33.3567 58.5224,34.0233 59.5,34.5C 62.1561,31.6782 64.9895,29.0115 68,26.5C 69.7787,29.2764 70.7787,28.9431 71,25.5C 71.7387,26.5742 72.7387,27.2409 74,27.5C 74.5464,26.7107 75.2131,25.7107 76,24.5C 76.414,24.9574 76.914,25.2907 77.5,25.5C 80.6225,23.0137 84.6225,21.6803 89.5,21.5C 89.0941,19.8908 89.0941,18.5575 89.5,17.5C 90.4682,18.4891 91.6349,19.1557 93,19.5C 95.2431,18.6288 97.2431,18.6288 99,19.5C 102.24,16.6474 105.574,16.9807 109,20.5C 110.439,18.7254 111.439,16.7254 112,14.5C 113.008,14.9817 114.175,15.1484 115.5,15C 114.167,16.8402 114.334,17.3402 116,16.5C 116.232,17.7375 116.732,18.7375 117.5,19.5 Z"/></g>
<g><path style="opacity:1" fill="#27221c" d="M 234.5,14.5 C 234.5,14.8333 234.5,15.1667 234.5,15.5C 231.968,16.5957 229.635,17.9291 227.5,19.5C 224.422,21.3687 221.089,22.702 217.5,23.5C 222.43,19.2668 228.097,16.2668 234.5,14.5 Z"/></g>
<g><path style="opacity:1" fill="#cec8b5" d="M 227.5,19.5 C 230.326,20.7077 232.992,22.2077 235.5,24C 235.043,24.414 234.709,24.914 234.5,25.5C 238.672,27.0886 242.338,26.422 245.5,23.5C 246.415,24.3279 247.081,25.3279 247.5,26.5C 245.709,27.1698 244.042,27.8365 242.5,28.5C 240.901,28.2322 239.568,28.5655 238.5,29.5C 236.597,29.7959 234.93,30.4625 233.5,31.5C 232.778,31.9175 232.278,32.5842 232,33.5C 231.601,33.2716 231.435,32.9382 231.5,32.5C 227.702,31.5166 223.702,31.1832 219.5,31.5C 221.292,30.6909 223.292,30.1909 225.5,30C 222.833,29.3333 220.167,28.6667 217.5,28C 217.833,27.6667 218.167,27.3333 218.5,27C 216.527,26.5045 214.527,26.3379 212.5,26.5C 214.261,25.6873 215.928,24.6873 217.5,23.5C 221.089,22.702 224.422,21.3687 227.5,19.5 Z"/></g>
<g><path style="opacity:1" fill="#bdb8a0" d="M 254.5,13.5 C 254.5,18.5 254.5,23.5 254.5,28.5C 250.5,28.5 246.5,28.5 242.5,28.5C 244.042,27.8365 245.709,27.1698 247.5,26.5C 247.081,25.3279 246.415,24.3279 245.5,23.5C 242.338,26.422 238.672,27.0886 234.5,25.5C 234.709,24.914 235.043,24.414 235.5,24C 232.992,22.2077 230.326,20.7077 227.5,19.5C 229.635,17.9291 231.968,16.5957 234.5,15.5C 240.882,11.3478 247.548,10.6811 254.5,13.5 Z"/></g>
<g><path style="opacity:1" fill="#827c67" d="M 149.5,-0.5 C 150.833,-0.5 152.167,-0.5 153.5,-0.5C 150.135,7.15611 148.635,15.1561 149,23.5C 149.689,24.3567 150.522,25.0233 151.5,25.5C 154.766,20.4089 159.433,17.7422 165.5,17.5C 165.5,18.5 165.5,19.5 165.5,20.5C 163.784,20.6287 162.117,20.962 160.5,21.5C 157.504,22.4744 155.837,24.4744 155.5,27.5C 148.53,27.1899 145.53,23.5232 146.5,16.5C 147.868,12.7024 148.868,8.70241 149.5,4.5C 149.5,2.83333 149.5,1.16667 149.5,-0.5 Z"/></g>
<g><path style="opacity:1" fill="#1b282a" d="M 112.5,25.5 C 110.445,27.5549 108.779,29.8883 107.5,32.5C 106.226,31.8106 106.226,30.9772 107.5,30C 106.975,29.3076 106.308,28.8076 105.5,28.5C 103.493,29.1709 101.66,30.1709 100,31.5C 97.1321,30.7551 94.7988,31.7551 93,34.5C 90.9068,33.7539 88.9068,33.4205 87,33.5C 84.8206,34.7352 83.4873,36.0685 83,37.5C 82.0497,36.9777 81.2164,36.311 80.5,35.5C 79.2638,36.2458 77.9305,36.5792 76.5,36.5C 76.0995,40.0698 74.0995,42.2364 70.5,43C 66.7132,43.5478 63.2132,44.7145 60,46.5C 59.6667,45.8333 59.3333,45.1667 59,44.5C 57.3205,46.8443 56.1539,49.3443 55.5,52C 53.4325,52.6869 51.4325,52.5202 49.5,51.5C 47.6147,52.6094 45.6147,53.4427 43.5,54C 44.8333,54.6667 44.8333,55.3333 43.5,56C 42.2068,56.49 40.8734,56.6567 39.5,56.5C 39.5,57.5 39.5,58.5 39.5,59.5C 36.5755,59.4598 33.9088,60.2932 31.5,62C 31.8333,62.3333 32.1667,62.6667 32.5,63C 29.819,65.5175 27.4856,68.3508 25.5,71.5C 20.8839,72.1316 17.8839,74.6316 16.5,79C 18.0945,81.3068 17.4278,82.6402 14.5,83C 15.7111,84.1131 15.7111,85.2798 14.5,86.5C 15.2427,87.1818 15.9094,87.8485 16.5,88.5C 11.3734,90.0863 6.70674,92.4197 2.5,95.5C 2.70223,97.9892 2.20223,100.323 1,102.5C 0.500416,95.8417 0.333749,89.175 0.5,82.5C 1.74975,82.4226 2.58309,81.756 3,80.5C 3.33333,80.8333 3.66667,81.1667 4,81.5C 4.83333,80.5 5.66667,79.5 6.5,78.5C 7.08605,78.7093 7.58605,79.0426 8,79.5C 8.33333,78.1667 8.66667,76.8333 9,75.5C 11,74.1667 12.6667,72.5 14,70.5C 14.3333,71.1667 14.6667,71.8333 15,72.5C 16.8333,70 18.6667,67.5 20.5,65C 20.1667,64.6667 19.8333,64.3333 19.5,64C 21.5769,61.1255 24.2436,58.9589 27.5,57.5C 29.0989,52.7339 32.4322,50.7339 37.5,51.5C 37.3537,49.0576 38.187,48.3909 40,49.5C 41.9689,45.9734 44.8022,44.64 48.5,45.5C 49.2436,44.0095 49.9103,42.5095 50.5,41C 51.8333,41.3333 53.1667,41.6667 54.5,42C 55.8767,40.6025 56.7101,39.1025 57,37.5C 57.9454,37.9054 58.6121,38.572 59,39.5C 61.1421,37.6627 63.3087,37.3294 65.5,38.5C 67.8494,35.9832 70.3494,33.6499 73,31.5C 76.9711,33.0882 80.6378,32.0882 84,28.5C 84.3333,28.8333 84.6667,29.1667 85,29.5C 87.8655,27.5402 90.8655,25.8735 94,24.5C 95.7261,25.5762 97.5594,25.7429 99.5,25C 100.833,24.3333 100.833,23.6667 99.5,23C 103.836,22.4688 108.17,22.8022 112.5,24C 111.262,24.69 111.262,25.19 112.5,25.5 Z"/></g>
<g><path style="opacity:1" fill="#474540" d="M 168.5,16.5 C 168.297,18.3904 168.963,19.8904 170.5,21C 174.491,21.6417 178.491,22.1417 182.5,22.5C 181.486,23.7647 179.986,24.4313 178,24.5C 174.366,23.4142 171.199,23.4142 168.5,24.5C 165.939,23.0823 163.272,22.0823 160.5,21.5C 162.117,20.962 163.784,20.6287 165.5,20.5C 166.857,19.4097 167.857,18.0764 168.5,16.5 Z"/></g>
<g><path style="opacity:1" fill="#ddd8c8" d="M 209.5,24.5 C 206.202,26.4854 202.869,28.4854 199.5,30.5C 197.439,29.3183 195.939,29.9849 195,32.5C 192.533,31.6285 189.7,30.9618 186.5,30.5C 186.5,29.8333 186.5,29.1667 186.5,28.5C 186.833,27.8333 187.167,27.1667 187.5,26.5C 188.864,24.8089 190.197,23.1423 191.5,21.5C 195.177,20.9152 198.843,20.2485 202.5,19.5C 205.499,20.4757 207.832,22.1423 209.5,24.5 Z"/></g>
<g><path style="opacity:1" fill="#928c77" d="M 254.5,13.5 C 254.833,13.5 255.167,13.5 255.5,13.5C 255.5,18.8333 255.5,24.1667 255.5,29.5C 249.833,29.5 244.167,29.5 238.5,29.5C 239.568,28.5655 240.901,28.2322 242.5,28.5C 246.5,28.5 250.5,28.5 254.5,28.5C 254.5,23.5 254.5,18.5 254.5,13.5 Z"/></g>
<g><path style="opacity:1" fill="#dfe3e2" d="M 129.5,-0.5 C 132.5,-0.5 135.5,-0.5 138.5,-0.5C 132.547,1.93621 127.547,5.76955 123.5,11C 124.167,11.6667 124.833,11.6667 125.5,11C 127.771,8.21788 130.437,6.05121 133.5,4.5C 133.5,4.83333 133.5,5.16667 133.5,5.5C 132.542,5.9528 131.708,6.61947 131,7.5C 128.922,14.3886 127.422,21.3886 126.5,28.5C 125.778,28.9175 125.278,29.5842 125,30.5C 124.308,35.3424 123.808,40.009 123.5,44.5C 123.806,47.3854 123.473,50.0521 122.5,52.5C 120.281,53.8796 118.281,53.5463 116.5,51.5C 115.808,52.0253 115.308,52.6919 115,53.5C 113.39,51.4032 112.223,49.0698 111.5,46.5C 110.817,46.8627 110.15,47.1961 109.5,47.5C 109.187,41.8215 111.187,37.1549 115.5,33.5C 115.5,33.8333 115.5,34.1667 115.5,34.5C 115.147,36.6348 115.98,37.9681 118,38.5C 119.749,38.2517 120.582,37.2517 120.5,35.5C 121.674,34.4863 122.34,33.153 122.5,31.5C 122.5,31.1667 122.5,30.8333 122.5,30.5C 123.966,29.653 124.8,28.3197 125,26.5C 125.868,23.5147 126.201,20.5147 126,17.5C 123.512,19.7433 120.846,21.7433 118,23.5C 116.702,24.9456 116.535,26.2789 117.5,27.5C 117.5,27.8333 117.5,28.1667 117.5,28.5C 116.662,28.8417 116.328,29.5084 116.5,30.5C 112.818,33.8675 109.818,37.8675 107.5,42.5C 106.691,44.2922 106.191,46.2922 106,48.5C 105.105,45.2329 103.272,44.5662 100.5,46.5C 100.5,45.1667 100.5,43.8333 100.5,42.5C 102.192,40.7952 103.525,38.7952 104.5,36.5C 105.5,35.1667 106.5,33.8333 107.5,32.5C 108.779,29.8883 110.445,27.5549 112.5,25.5C 115.646,24.6905 117.313,22.6905 117.5,19.5C 119.98,11.8662 123.98,5.19949 129.5,-0.5 Z"/></g>
<g><path style="opacity:1" fill="#c3bda6" d="M 122.5,30.5 C 122.5,29.8333 122.167,29.5 121.5,29.5C 120.713,27.8958 119.38,27.2291 117.5,27.5C 116.535,26.2789 116.702,24.9456 118,23.5C 120.846,21.7433 123.512,19.7433 126,17.5C 126.201,20.5147 125.868,23.5147 125,26.5C 124.8,28.3197 123.966,29.653 122.5,30.5 Z"/></g>
<g><path style="opacity:1" fill="#334743" d="M 117.5,27.5 C 119.38,27.2291 120.713,27.8958 121.5,29.5C 119.901,29.7678 118.568,29.4345 117.5,28.5C 117.5,28.1667 117.5,27.8333 117.5,27.5 Z"/></g>
<g><path style="opacity:1" fill="#439492" d="M 117.5,28.5 C 118.568,29.4345 119.901,29.7678 121.5,29.5C 122.167,29.5 122.5,29.8333 122.5,30.5C 122.5,30.8333 122.5,31.1667 122.5,31.5C 120.958,30.6993 119.292,30.366 117.5,30.5C 117.5,31.8333 117.5,33.1667 117.5,34.5C 116.833,34.5 116.167,34.5 115.5,34.5C 115.5,34.1667 115.5,33.8333 115.5,33.5C 116.404,32.791 116.737,31.791 116.5,30.5C 116.328,29.5084 116.662,28.8417 117.5,28.5 Z"/></g>
<g><path style="opacity:1" fill="#395552" d="M 160.5,21.5 C 163.272,22.0823 165.939,23.0823 168.5,24.5C 168.5,25.5 168.5,26.5 168.5,27.5C 168.063,29.0744 167.063,30.2411 165.5,31C 162.854,31.4974 160.187,31.6641 157.5,31.5C 156.833,30.1667 156.167,28.8333 155.5,27.5C 155.837,24.4744 157.504,22.4744 160.5,21.5 Z"/></g>
<g><path style="opacity:1" fill="#32dcdb" d="M 159.5,23.5 C 161.527,23.3379 163.527,23.5045 165.5,24C 166.747,25.4936 166.747,26.9936 165.5,28.5C 163.232,29.5443 160.899,29.711 158.5,29C 157.156,26.8564 157.49,25.0231 159.5,23.5 Z"/></g>
<g><path style="opacity:1" fill="#e4e1d4" d="M 212.5,26.5 C 214.527,26.3379 216.527,26.5045 218.5,27C 218.167,27.3333 217.833,27.6667 217.5,28C 220.167,28.6667 222.833,29.3333 225.5,30C 223.292,30.1909 221.292,30.6909 219.5,31.5C 215.889,31.9559 212.556,31.2892 209.5,29.5C 206.819,29.9324 204.819,31.2657 203.5,33.5C 203.167,34.8333 202.833,34.8333 202.5,33.5C 202.33,32.1779 202.663,31.0113 203.5,30C 206.521,28.8202 209.521,27.6535 212.5,26.5 Z"/></g>
<g><path style="opacity:1" fill="#dcd8c9" d="M 238.5,31.5 C 243.875,31.1718 249.208,31.5052 254.5,32.5C 249.078,32.7947 243.578,33.4614 238,34.5C 237.601,34.2716 237.435,33.9382 237.5,33.5C 237.328,32.5084 237.662,31.8417 238.5,31.5 Z"/></g>
<g><path style="opacity:1" fill="#34eaea" d="M 122.5,31.5 C 122.34,33.153 121.674,34.4863 120.5,35.5C 119.209,35.7373 118.209,35.404 117.5,34.5C 117.5,33.1667 117.5,31.8333 117.5,30.5C 119.292,30.366 120.958,30.6993 122.5,31.5 Z"/></g>
<g><path style="opacity:1" fill="#b8af95" d="M 219.5,31.5 C 223.702,31.1832 227.702,31.5166 231.5,32.5C 222.103,33.2592 212.77,33.5925 203.5,33.5C 204.819,31.2657 206.819,29.9324 209.5,29.5C 212.556,31.2892 215.889,31.9559 219.5,31.5 Z"/></g>
<g><path style="opacity:1" fill="#aaa48f" d="M 238.5,31.5 C 243.975,30.5111 249.642,30.1778 255.5,30.5C 255.5,32.1667 255.5,33.8333 255.5,35.5C 249.077,35.2088 242.744,35.5422 236.5,36.5C 236.5,35.5 236.5,34.5 236.5,33.5C 236.833,33.5 237.167,33.5 237.5,33.5C 237.435,33.9382 237.601,34.2716 238,34.5C 243.578,33.4614 249.078,32.7947 254.5,32.5C 249.208,31.5052 243.875,31.1718 238.5,31.5 Z"/></g>
<g><path style="opacity:1" fill="#544d40" d="M 238.5,29.5 C 244.167,29.5 249.833,29.5 255.5,29.5C 255.5,29.8333 255.5,30.1667 255.5,30.5C 249.642,30.1778 243.975,30.5111 238.5,31.5C 237.662,31.8417 237.328,32.5084 237.5,33.5C 237.167,33.5 236.833,33.5 236.5,33.5C 234.98,35.6323 233.98,38.6323 233.5,42.5C 223.188,43.4986 212.855,43.8319 202.5,43.5C 211.437,41.9072 220.437,40.0739 229.5,38C 230.942,37.6232 231.942,36.7899 232.5,35.5C 233.434,34.4324 233.768,33.099 233.5,31.5C 234.93,30.4625 236.597,29.7959 238.5,29.5 Z"/></g>
<g><path style="opacity:1" fill="#344744" d="M 115.5,34.5 C 116.167,34.5 116.833,34.5 117.5,34.5C 118.209,35.404 119.209,35.7373 120.5,35.5C 120.582,37.2517 119.749,38.2517 118,38.5C 115.98,37.9681 115.147,36.6348 115.5,34.5 Z"/></g>
<g><path style="opacity:1" fill="#c0ba9f" d="M 181.5,26.5 C 181.897,32.1795 179.231,35.6795 173.5,37C 169.384,42.4309 164.717,47.2642 159.5,51.5C 156.459,51.5944 154.793,50.0944 154.5,47C 154.833,46.6667 155.167,46.3333 155.5,46C 154.207,45.51 152.873,45.3433 151.5,45.5C 151.259,42.2065 152.092,39.2065 154,36.5C 162.34,37.5625 169.173,34.7292 174.5,28C 173.5,27.3333 172.5,27.3333 171.5,28C 168.794,31.2705 165.294,33.1038 161,33.5C 159.319,33.3917 158.152,32.7251 157.5,31.5C 160.187,31.6641 162.854,31.4974 165.5,31C 167.063,30.2411 168.063,29.0744 168.5,27.5C 172.726,25.2972 177.059,24.9639 181.5,26.5 Z"/></g>
<g><path style="opacity:1" fill="#928a72" d="M 233.5,31.5 C 233.768,33.099 233.434,34.4324 232.5,35.5C 231.033,35.1062 229.533,34.7728 228,34.5C 220.269,36.2086 212.436,37.3753 204.5,38C 202.125,40.4067 201.125,39.9067 201.5,36.5C 201.5,35.5 201.5,34.5 201.5,33.5C 201.833,33.5 202.167,33.5 202.5,33.5C 202.833,34.8333 203.167,34.8333 203.5,33.5C 212.77,33.5925 222.103,33.2592 231.5,32.5C 231.435,32.9382 231.601,33.2716 232,33.5C 232.278,32.5842 232.778,31.9175 233.5,31.5 Z"/></g>
<g><path style="opacity:1" fill="#7e7b68" d="M 98.5,35.5 C 98.7352,34.9033 99.2352,34.5699 100,34.5C 101.406,35.4138 102.906,36.0805 104.5,36.5C 103.525,38.7952 102.192,40.7952 100.5,42.5C 99.5489,43.9187 99.2155,45.5853 99.5,47.5C 99.1667,47.5 98.8333,47.5 98.5,47.5C 98.6833,43.2508 98.6833,39.2508 98.5,35.5 Z"/></g>
<g><path style="opacity:1" fill="#a0a393" d="M 116.5,30.5 C 116.737,31.791 116.404,32.791 115.5,33.5C 111.187,37.1549 109.187,41.8215 109.5,47.5C 108.833,45.8333 108.167,44.1667 107.5,42.5C 109.818,37.8675 112.818,33.8675 116.5,30.5 Z"/></g>
<g><path style="opacity:1" fill="#77715f" d="M 255.5,35.5 C 255.5,36.1667 255.5,36.8333 255.5,37.5C 249.126,38.5417 242.96,39.5417 237,40.5C 236.51,39.2068 236.343,37.8734 236.5,36.5C 242.744,35.5422 249.077,35.2088 255.5,35.5 Z"/></g>
<g><path style="opacity:1" fill="#595447" d="M 236.5,36.5 C 236.343,37.8734 236.51,39.2068 237,40.5C 242.96,39.5417 249.126,38.5417 255.5,37.5C 255.5,39.5 255.5,41.5 255.5,43.5C 255.167,43.5 254.833,43.5 254.5,43.5C 248.167,43.5 241.833,43.5 235.5,43.5C 235.198,40.9407 235.532,38.6074 236.5,36.5 Z"/></g>
<g><path style="opacity:1" fill="#c8c1a6" d="M 126.5,28.5 C 130.963,30.7404 133.463,34.407 134,39.5C 137.018,38.5389 139.851,37.2056 142.5,35.5C 143.086,35.7093 143.586,36.0426 144,36.5C 144.49,35.2068 144.657,33.8734 144.5,32.5C 146.121,37.604 146.621,42.9373 146,48.5C 145.077,49.7588 144.243,51.0921 143.5,52.5C 139.032,54.5223 134.365,55.3556 129.5,55C 128,54.1667 126.833,53 126,51.5C 125.61,48.8958 124.776,46.5625 123.5,44.5C 123.808,40.009 124.308,35.3424 125,30.5C 125.278,29.5842 125.778,28.9175 126.5,28.5 Z"/></g>
<g><path style="opacity:1" fill="#e6eae7" d="M 98.5,35.5 C 98.6833,39.2508 98.6833,43.2508 98.5,47.5C 92.1387,49.0619 86.1387,51.3953 80.5,54.5C 80.5,55.5 80.5,56.5 80.5,57.5C 75.5722,59.0516 70.2388,60.5516 64.5,62C 61.9066,64.1137 59.2399,65.947 56.5,67.5C 55.5084,67.3284 54.8417,67.6618 54.5,68.5C 53.8485,69.0906 53.1818,69.7573 52.5,70.5C 51.7025,70.0431 51.3691,69.3764 51.5,68.5C 56.9537,64.2665 62.6204,60.2665 68.5,56.5C 69.1577,57.3984 69.8243,58.3984 70.5,59.5C 71.5178,58.8075 72.5178,58.1408 73.5,57.5C 74.4959,57.5858 75.3292,57.2524 76,56.5C 77.7379,52.7587 80.2379,49.592 83.5,47C 88.53,43.1578 93.53,39.3245 98.5,35.5 Z"/></g>
<g><path style="opacity:1" fill="#5f5748" d="M 232.5,7.5 C 235.207,9.28326 235.873,11.6166 234.5,14.5C 228.097,16.2668 222.43,19.2668 217.5,23.5C 215.928,24.6873 214.261,25.6873 212.5,26.5C 209.521,27.6535 206.521,28.8202 203.5,30C 202.663,31.0113 202.33,32.1779 202.5,33.5C 202.167,33.5 201.833,33.5 201.5,33.5C 201.565,33.0618 201.399,32.7284 201,32.5C 199.667,36.5 198.333,40.5 197,44.5C 193.625,46.3444 190.125,47.6777 186.5,48.5C 185.54,41.9221 185.207,35.2554 185.5,28.5C 185.833,28.5 186.167,28.5 186.5,28.5C 186.5,29.1667 186.5,29.8333 186.5,30.5C 186.5,32.1667 186.5,33.8333 186.5,35.5C 186.343,36.8734 186.51,38.2068 187,39.5C 190.364,38.2607 193.864,37.5941 197.5,37.5C 197.629,35.7839 197.962,34.1172 198.5,32.5C 198.833,31.8333 199.167,31.1667 199.5,30.5C 202.869,28.4854 206.202,26.4854 209.5,24.5C 212.752,23.5406 215.752,22.0406 218.5,20C 223.361,15.9679 228.028,11.8012 232.5,7.5 Z"/></g>
<g><path style="opacity:1" fill="#857d66" d="M 198.5,32.5 C 197.962,34.1172 197.629,35.7839 197.5,37.5C 193.864,37.5941 190.364,38.2607 187,39.5C 186.51,38.2068 186.343,36.8734 186.5,35.5C 190.261,33.8773 194.261,32.8773 198.5,32.5 Z"/></g>
<g><path style="opacity:1" fill="#ada58b" d="M 199.5,30.5 C 199.167,31.1667 198.833,31.8333 198.5,32.5C 194.261,32.8773 190.261,33.8773 186.5,35.5C 186.5,33.8333 186.5,32.1667 186.5,30.5C 189.7,30.9618 192.533,31.6285 195,32.5C 195.939,29.9849 197.439,29.3183 199.5,30.5 Z"/></g>
<g><path style="opacity:1" fill="#6f6452" d="M 181.5,26.5 C 182.833,26.5 183.5,27.1667 183.5,28.5C 182.517,32.2984 182.183,36.2984 182.5,40.5C 177.653,43.4125 172.653,46.2458 167.5,49C 165.139,52.6941 162.139,55.6941 158.5,58C 158.833,59 159.167,60 159.5,61C 157.479,61.513 155.979,62.6797 155,64.5C 153.887,63.695 152.721,63.0283 151.5,62.5C 152.833,60.5 154.167,58.5 155.5,56.5C 157.063,55.0552 158.396,53.3885 159.5,51.5C 164.717,47.2642 169.384,42.4309 173.5,37C 179.231,35.6795 181.897,32.1795 181.5,26.5 Z"/></g>
<g><path style="opacity:1" fill="#27241e" d="M 201.5,33.5 C 201.5,34.5 201.5,35.5 201.5,36.5C 200.848,37.4486 200.514,38.6153 200.5,40C 200.608,41.6811 201.275,42.8478 202.5,43.5C 212.855,43.8319 223.188,43.4986 233.5,42.5C 233.98,38.6323 234.98,35.6323 236.5,33.5C 236.5,34.5 236.5,35.5 236.5,36.5C 235.532,38.6074 235.198,40.9407 235.5,43.5C 241.833,43.5 248.167,43.5 254.5,43.5C 250.027,44.1039 245.694,45.4373 241.5,47.5C 237.155,45.9792 232.655,45.3125 228,45.5C 221.903,45.4689 215.903,46.1356 210,47.5C 206.362,47.8876 203.195,46.8876 200.5,44.5C 200.372,46.1292 201.372,47.4625 203.5,48.5C 204.583,49.365 204.749,50.365 204,51.5C 203.107,50.9186 202.107,50.5852 201,50.5C 195.463,53.6229 190.63,52.9562 186.5,48.5C 190.125,47.6777 193.625,46.3444 197,44.5C 198.333,40.5 199.667,36.5 201,32.5C 201.399,32.7284 201.565,33.0618 201.5,33.5 Z"/></g>
<g><path style="opacity:1" fill="#756e5a" d="M 232.5,35.5 C 231.942,36.7899 230.942,37.6232 229.5,38C 220.437,40.0739 211.437,41.9072 202.5,43.5C 201.275,42.8478 200.608,41.6811 200.5,40C 200.514,38.6153 200.848,37.4486 201.5,36.5C 201.125,39.9067 202.125,40.4067 204.5,38C 212.436,37.3753 220.269,36.2086 228,34.5C 229.533,34.7728 231.033,35.1062 232.5,35.5 Z"/></g>
<g><path style="opacity:1" fill="#202f32" d="M 107.5,32.5 C 106.5,33.8333 105.5,35.1667 104.5,36.5C 102.906,36.0805 101.406,35.4138 100,34.5C 99.2352,34.5699 98.7352,34.9033 98.5,35.5C 93.53,39.3245 88.53,43.1578 83.5,47C 80.2379,49.592 77.7379,52.7587 76,56.5C 75.3292,57.2524 74.4959,57.5858 73.5,57.5C 72.0045,55.655 70.3379,55.3217 68.5,56.5C 62.6204,60.2665 56.9537,64.2665 51.5,68.5C 40.3282,75.999 28.6615,82.6656 16.5,88.5C 15.9094,87.8485 15.2427,87.1818 14.5,86.5C 15.7111,85.2798 15.7111,84.1131 14.5,83C 17.4278,82.6402 18.0945,81.3068 16.5,79C 17.8839,74.6316 20.8839,72.1316 25.5,71.5C 27.4856,68.3508 29.819,65.5175 32.5,63C 32.1667,62.6667 31.8333,62.3333 31.5,62C 33.9088,60.2932 36.5755,59.4598 39.5,59.5C 39.5,58.5 39.5,57.5 39.5,56.5C 40.8734,56.6567 42.2068,56.49 43.5,56C 44.8333,55.3333 44.8333,54.6667 43.5,54C 45.6147,53.4427 47.6147,52.6094 49.5,51.5C 51.4325,52.5202 53.4325,52.6869 55.5,52C 56.1539,49.3443 57.3205,46.8443 59,44.5C 59.3333,45.1667 59.6667,45.8333 60,46.5C 63.2132,44.7145 66.7132,43.5478 70.5,43C 74.0995,42.2364 76.0995,40.0698 76.5,36.5C 77.9305,36.5792 79.2638,36.2458 80.5,35.5C 81.2164,36.311 82.0497,36.9777 83,37.5C 83.4873,36.0685 84.8206,34.7352 87,33.5C 88.9068,33.4205 90.9068,33.7539 93,34.5C 94.7988,31.7551 97.1321,30.7551 100,31.5C 101.66,30.1709 103.493,29.1709 105.5,28.5C 106.308,28.8076 106.975,29.3076 107.5,30C 106.226,30.9772 106.226,31.8106 107.5,32.5 Z"/></g>
<g><path style="opacity:1" fill="#928b75" d="M 107.5,42.5 C 107.5,45.8333 107.5,49.1667 107.5,52.5C 105.784,52.6287 104.117,52.962 102.5,53.5C 101.434,51.2986 100.767,48.9653 100.5,46.5C 103.272,44.5662 105.105,45.2329 106,48.5C 106.191,46.2922 106.691,44.2922 107.5,42.5 Z"/></g>
<g><path style="opacity:1" fill="#2c4446" d="M 255.5,50.5 C 255.5,59.8333 255.5,69.1667 255.5,78.5C 251.267,78.4613 247.267,77.7947 243.5,76.5C 245.199,76.6602 246.866,76.4935 248.5,76C 245.997,75.8706 243.997,74.8706 242.5,73C 242.957,72.586 243.291,72.086 243.5,71.5C 242.689,70.7836 242.022,69.9503 241.5,69C 242.289,68.4536 243.289,67.7869 244.5,67C 243.167,66.3333 243.167,65.6667 244.5,65C 241.013,63.56 238.68,61.56 237.5,59C 238.025,58.3076 238.692,57.8076 239.5,57.5C 240.736,58.2458 242.07,58.5792 243.5,58.5C 243.286,56.8561 243.62,55.3561 244.5,54C 242.527,53.5045 240.527,53.3379 238.5,53.5C 244.079,52.6997 249.746,51.6997 255.5,50.5 Z"/></g>
<g><path style="opacity:1" fill="#aea588" d="M 98.5,47.5 C 98.8333,47.5 99.1667,47.5 99.5,47.5C 99.5,48.8333 99.5,50.1667 99.5,51.5C 94.0155,52.7731 88.6822,54.4398 83.5,56.5C 82.7348,55.3881 81.7348,54.7214 80.5,54.5C 86.1387,51.3953 92.1387,49.0619 98.5,47.5 Z"/></g>
<g><path style="opacity:1" fill="#534c3f" d="M 183.5,28.5 C 183.666,35.8409 183.5,43.1742 183,50.5C 182.329,51.2524 181.496,51.5858 180.5,51.5C 177.606,52.8823 175.106,54.8823 173,57.5C 166.617,68.2871 160.284,78.9537 154,89.5C 152.649,87.981 151.149,86.6477 149.5,85.5C 148.516,88.4281 148.183,91.4281 148.5,94.5C 146.039,95.531 143.373,96.1977 140.5,96.5C 140.167,96.5 139.833,96.5 139.5,96.5C 141.091,95.7811 142.591,94.7811 144,93.5C 145.939,88.5148 147.772,83.5148 149.5,78.5C 150.864,74.6388 152.531,74.6388 154.5,78.5C 155.354,77.4783 156.354,76.6449 157.5,76C 157.043,75.586 156.709,75.086 156.5,74.5C 159.001,71.1634 160.834,67.4967 162,63.5C 163.375,61.0228 165.209,60.1894 167.5,61C 171.204,55.762 175.871,51.5953 181.5,48.5C 182.48,45.9135 182.813,43.2469 182.5,40.5C 182.183,36.2984 182.517,32.2984 183.5,28.5 Z"/></g>
<g><path style="opacity:1" fill="#979479" d="M 68.5,56.5 C 70.3379,55.3217 72.0045,55.655 73.5,57.5C 72.5178,58.1408 71.5178,58.8075 70.5,59.5C 69.8243,58.3984 69.1577,57.3984 68.5,56.5 Z"/></g>
<g><path style="opacity:1" fill="#bbb294" d="M 146.5,16.5 C 145.53,23.5232 148.53,27.1899 155.5,27.5C 156.167,28.8333 156.833,30.1667 157.5,31.5C 158.152,32.7251 159.319,33.3917 161,33.5C 165.294,33.1038 168.794,31.2705 171.5,28C 172.5,27.3333 173.5,27.3333 174.5,28C 169.173,34.7292 162.34,37.5625 154,36.5C 152.092,39.2065 151.259,42.2065 151.5,45.5C 152.873,45.3433 154.207,45.51 155.5,46C 155.167,46.3333 154.833,46.6667 154.5,47C 154.793,50.0944 156.459,51.5944 159.5,51.5C 158.396,53.3885 157.063,55.0552 155.5,56.5C 153.187,54.6286 151.02,52.6286 149,50.5C 147.505,52.1096 147.339,53.7763 148.5,55.5C 144.909,54.3279 142.242,55.9945 140.5,60.5C 140.709,61.086 141.043,61.586 141.5,62C 139.833,63.5 138.167,65 136.5,66.5C 132.65,61.9772 127.983,58.6438 122.5,56.5C 122.5,55.1667 122.5,53.8333 122.5,52.5C 123.473,50.0521 123.806,47.3854 123.5,44.5C 124.776,46.5625 125.61,48.8958 126,51.5C 126.833,53 128,54.1667 129.5,55C 134.365,55.3556 139.032,54.5223 143.5,52.5C 144.243,51.0921 145.077,49.7588 146,48.5C 146.621,42.9373 146.121,37.604 144.5,32.5C 144.586,28.1434 144.92,23.81 145.5,19.5C 145.263,18.209 145.596,17.209 146.5,16.5 Z"/></g>
<g><path style="opacity:1" fill="#5f5747" d="M 182.5,40.5 C 182.813,43.2469 182.48,45.9135 181.5,48.5C 175.871,51.5953 171.204,55.762 167.5,61C 165.209,60.1894 163.375,61.0228 162,63.5C 160.834,67.4967 159.001,71.1634 156.5,74.5C 156.709,75.086 157.043,75.586 157.5,76C 156.354,76.6449 155.354,77.4783 154.5,78.5C 152.531,74.6388 150.864,74.6388 149.5,78.5C 149.643,76.7376 149.309,75.0709 148.5,73.5C 150.301,70.4646 150.968,67.1313 150.5,63.5C 150.5,62.8333 150.833,62.5 151.5,62.5C 152.721,63.0283 153.887,63.695 155,64.5C 155.979,62.6797 157.479,61.513 159.5,61C 159.167,60 158.833,59 158.5,58C 162.139,55.6941 165.139,52.6941 167.5,49C 172.653,46.2458 177.653,43.4125 182.5,40.5 Z"/></g>
<g><path style="opacity:1" fill="#877e68" d="M 99.5,51.5 C 100.338,51.8417 100.672,52.5084 100.5,53.5C 100.719,54.675 100.386,55.675 99.5,56.5C 94.6438,58.5402 89.6438,60.2069 84.5,61.5C 84.2014,59.5447 83.2014,58.2114 81.5,57.5C 81.1667,57.5 80.8333,57.5 80.5,57.5C 80.5,56.5 80.5,55.5 80.5,54.5C 81.7348,54.7214 82.7348,55.3881 83.5,56.5C 88.6822,54.4398 94.0155,52.7731 99.5,51.5 Z"/></g>
<g><path style="opacity:1" fill="#716b5a" d="M 100.5,53.5 C 101.927,56.1287 101.261,58.2954 98.5,60C 94.3338,61.2023 90.3338,62.7023 86.5,64.5C 85.5748,63.6431 84.9081,62.6431 84.5,61.5C 89.6438,60.2069 94.6438,58.5402 99.5,56.5C 100.386,55.675 100.719,54.675 100.5,53.5 Z"/></g>
<g><path style="opacity:1" fill="#304b4e" d="M 238.5,53.5 C 240.527,53.3379 242.527,53.5045 244.5,54C 243.62,55.3561 243.286,56.8561 243.5,58.5C 242.07,58.5792 240.736,58.2458 239.5,57.5C 238.692,57.8076 238.025,58.3076 237.5,59C 238.68,61.56 241.013,63.56 244.5,65C 243.167,65.6667 243.167,66.3333 244.5,67C 243.289,67.7869 242.289,68.4536 241.5,69C 242.022,69.9503 242.689,70.7836 243.5,71.5C 243.291,72.086 242.957,72.586 242.5,73C 243.997,74.8706 245.997,75.8706 248.5,76C 246.866,76.4935 245.199,76.6602 243.5,76.5C 238.5,76.5 233.5,76.5 228.5,76.5C 226.412,75.0605 224.079,74.3939 221.5,74.5C 221.279,69.2243 219.279,64.7243 215.5,61C 213.866,60.5065 212.199,60.3398 210.5,60.5C 209.596,59.791 209.263,58.791 209.5,57.5C 219.073,55.5949 228.739,54.2616 238.5,53.5 Z"/></g>
<g><path style="opacity:1" fill="#877e66" d="M 81.5,60.5 C 73.4529,65.0197 64.7863,68.0197 55.5,69.5C 55.5,68.8333 55.1667,68.5 54.5,68.5C 54.8417,67.6618 55.5084,67.3284 56.5,67.5C 56.4346,67.9382 56.6012,68.2716 57,68.5C 64.7814,64.517 72.948,61.8504 81.5,60.5 Z"/></g>
<g><path style="opacity:1" fill="#a2987a" d="M 80.5,57.5 C 80.8333,57.5 81.1667,57.5 81.5,57.5C 81.5,58.1667 81.5,58.8333 81.5,59.5C 81.5,59.8333 81.5,60.1667 81.5,60.5C 72.948,61.8504 64.7814,64.517 57,68.5C 56.6012,68.2716 56.4346,67.9382 56.5,67.5C 59.2399,65.947 61.9066,64.1137 64.5,62C 70.2388,60.5516 75.5722,59.0516 80.5,57.5 Z"/></g>
<g><path style="opacity:1" fill="#181713" d="M 185.5,28.5 C 185.207,35.2554 185.54,41.9221 186.5,48.5C 190.63,52.9562 195.463,53.6229 201,50.5C 202.107,50.5852 203.107,50.9186 204,51.5C 204.749,50.365 204.583,49.365 203.5,48.5C 201.372,47.4625 200.372,46.1292 200.5,44.5C 203.195,46.8876 206.362,47.8876 210,47.5C 215.903,46.1356 221.903,45.4689 228,45.5C 232.655,45.3125 237.155,45.9792 241.5,47.5C 245.694,45.4373 250.027,44.1039 254.5,43.5C 254.833,43.5 255.167,43.5 255.5,43.5C 255.5,45.8333 255.5,48.1667 255.5,50.5C 249.746,51.6997 244.079,52.6997 238.5,53.5C 228.739,54.2616 219.073,55.5949 209.5,57.5C 209.263,58.791 209.596,59.791 210.5,60.5C 210.046,63.1398 208.879,65.4732 207,67.5C 203.188,70.6404 199.355,73.6404 195.5,76.5C 187.828,81.1744 180.162,85.8411 172.5,90.5C 165.85,93.4694 159.183,96.4694 152.5,99.5C 148.291,98.9842 144.291,97.9842 140.5,96.5C 143.373,96.1977 146.039,95.531 148.5,94.5C 153.252,94.3593 157.585,93.026 161.5,90.5C 166.613,88.7768 171.613,86.7768 176.5,84.5C 187.309,79.5246 195.309,71.6913 200.5,61C 195.314,56.9121 189.98,53.0787 184.5,49.5C 184.167,41.7424 184.501,34.7424 185.5,28.5 Z"/></g>
<g><path style="opacity:1" fill="#0c151b" d="M 210.5,60.5 C 212.199,60.3398 213.866,60.5065 215.5,61C 219.279,64.7243 221.279,69.2243 221.5,74.5C 224.079,74.3939 226.412,75.0605 228.5,76.5C 228.5,76.8333 228.5,77.1667 228.5,77.5C 222.875,77.5798 217.542,78.5798 212.5,80.5C 210.167,81.1667 207.833,81.8333 205.5,82.5C 203.464,80.9172 202.464,79.0839 202.5,77C 200.19,76.5034 197.857,76.3367 195.5,76.5C 199.355,73.6404 203.188,70.6404 207,67.5C 208.879,65.4732 210.046,63.1398 210.5,60.5 Z"/></g>
<g><path style="opacity:1" fill="#212425" d="M 103.5,55.5 C 104.483,58.9869 106.817,60.3202 110.5,59.5C 110.351,58.448 110.517,57.448 111,56.5C 114.089,60.3536 116.922,64.3536 119.5,68.5C 116.13,70.139 112.463,71.139 108.5,71.5C 105.545,72.1587 102.545,72.4921 99.5,72.5C 100.895,71.3523 100.728,70.3523 99,69.5C 98.0048,65.514 99.3381,63.8473 103,64.5C 104.399,63.7734 105.899,63.2734 107.5,63C 106,61.5 104.5,60 103,58.5C 102.26,57.2506 102.427,56.2506 103.5,55.5 Z"/></g>
<g><path style="opacity:1" fill="#605b4d" d="M 107.5,42.5 C 108.167,44.1667 108.833,45.8333 109.5,47.5C 109.343,48.8734 109.51,50.2068 110,51.5C 112.727,53.4158 115.227,55.4158 117.5,57.5C 118.36,60.8673 120.527,63.2006 124,64.5C 125.891,68.6111 126.891,72.9444 127,77.5C 129.106,80.608 130.772,83.9413 132,87.5C 132.765,89.0657 132.598,90.3991 131.5,91.5C 131.167,90.8333 130.833,90.1667 130.5,89.5C 128.119,81.7347 124.452,74.7347 119.5,68.5C 116.922,64.3536 114.089,60.3536 111,56.5C 110.517,57.448 110.351,58.448 110.5,59.5C 106.817,60.3202 104.483,58.9869 103.5,55.5C 103.167,54.8333 102.833,54.1667 102.5,53.5C 104.117,52.962 105.784,52.6287 107.5,52.5C 107.5,49.1667 107.5,45.8333 107.5,42.5 Z"/></g>
<g><path style="opacity:1" fill="#6b6556" d="M 81.5,59.5 C 82.404,60.209 82.7373,61.209 82.5,62.5C 82.719,63.675 82.3857,64.675 81.5,65.5C 73.7145,68.3151 66.0478,71.3151 58.5,74.5C 57.9744,72.7697 56.9744,71.4363 55.5,70.5C 55.5,70.1667 55.5,69.8333 55.5,69.5C 64.7863,68.0197 73.4529,65.0197 81.5,60.5C 81.5,60.1667 81.5,59.8333 81.5,59.5 Z"/></g>
<g><path style="opacity:1" fill="#a49979" d="M 122.5,52.5 C 122.5,53.8333 122.5,55.1667 122.5,56.5C 127.983,58.6438 132.65,61.9772 136.5,66.5C 138.167,65 139.833,63.5 141.5,62C 141.043,61.586 140.709,61.086 140.5,60.5C 142.242,55.9945 144.909,54.3279 148.5,55.5C 147.339,53.7763 147.505,52.1096 149,50.5C 151.02,52.6286 153.187,54.6286 155.5,56.5C 154.167,58.5 152.833,60.5 151.5,62.5C 150.833,62.5 150.5,62.8333 150.5,63.5C 149.85,63.8039 149.183,64.1373 148.5,64.5C 147.675,68.1224 147.175,71.789 147,75.5C 144.319,77.5267 142.653,80.1934 142,83.5C 141,83.8333 140,84.1667 139,84.5C 138.692,83.6919 138.192,83.0253 137.5,82.5C 136.575,83.6405 135.741,83.6405 135,82.5C 134.792,76.1986 132.458,70.8652 128,66.5C 127.654,64.7818 127.154,63.1151 126.5,61.5C 123.833,59.8333 121.167,58.1667 118.5,56.5C 117.893,56.6236 117.56,56.9569 117.5,57.5C 115.227,55.4158 112.727,53.4158 110,51.5C 109.51,50.2068 109.343,48.8734 109.5,47.5C 110.15,47.1961 110.817,46.8627 111.5,46.5C 112.223,49.0698 113.39,51.4032 115,53.5C 115.308,52.6919 115.808,52.0253 116.5,51.5C 118.281,53.5463 120.281,53.8796 122.5,52.5 Z"/></g>
<g><path style="opacity:1" fill="#25211b" d="M 184.5,49.5 C 189.98,53.0787 195.314,56.9121 200.5,61C 195.309,71.6913 187.309,79.5246 176.5,84.5C 178.3,82.1717 179.467,79.505 180,76.5C 183.939,73.6432 184.439,70.3099 181.5,66.5C 182.376,65.7492 183.376,65.2492 184.5,65C 183.387,62.1513 184.054,59.6513 186.5,57.5C 185.833,56.5 185.167,55.5 184.5,54.5C 185.535,52.8716 185.535,51.205 184.5,49.5 Z"/></g>
<g><path style="opacity:1" fill="#343737" d="M 82.5,62.5 C 83.4614,64.2646 83.7947,66.2646 83.5,68.5C 78.2341,70.6593 72.9008,72.8259 67.5,75C 65.8659,75.4935 64.1992,75.6602 62.5,75.5C 62.6495,76.552 62.4828,77.552 62,78.5C 60.6244,77.2949 59.4577,75.9616 58.5,74.5C 66.0478,71.3151 73.7145,68.3151 81.5,65.5C 82.3857,64.675 82.719,63.675 82.5,62.5 Z"/></g>
<g><path style="opacity:1" fill="#2d4749" d="M 108.5,71.5 C 109.209,72.404 110.209,72.7373 111.5,72.5C 112.052,74.3307 112.052,75.9974 111.5,77.5C 114.044,78.9374 114.044,80.4374 111.5,82C 112.257,83.5122 113.257,84.8455 114.5,86C 113.304,88.5868 113.304,91.4201 114.5,94.5C 111.525,94.3069 109.025,95.3069 107,97.5C 105.16,96.1669 104.66,96.3335 105.5,98C 100.18,99.1513 95.5129,101.485 91.5,105C 89.1667,105.333 86.8333,105.667 84.5,106C 82.5614,106.908 81.5614,108.408 81.5,110.5C 80.5,110.5 79.5,110.5 78.5,110.5C 78.8808,112.942 78.2141,113.609 76.5,112.5C 69.5451,117.454 63.2118,123.121 57.5,129.5C 56.7189,130.729 56.2189,132.062 56,133.5C 55.6667,133.167 55.3333,132.833 55,132.5C 54.4926,133.996 54.9926,135.163 56.5,136C 54.5433,137.746 53.5433,139.912 53.5,142.5C 51.8333,142.5 50.1667,142.5 48.5,142.5C 50.587,137.951 50.587,133.618 48.5,129.5C 49.3202,127.889 50.6536,127.222 52.5,127.5C 52.6601,123.764 53.4934,123.764 55,127.5C 56.5893,125.974 58.4226,124.807 60.5,124C 61.0792,122.575 61.0792,120.908 60.5,119C 61.1667,118.667 61.8333,118.333 62.5,118C 60.5614,117.092 59.5614,115.592 59.5,113.5C 61.9806,113.677 63.8139,112.677 65,110.5C 67.3333,110.5 69.6667,110.5 72,110.5C 72.9147,109.672 73.5814,108.672 74,107.5C 74.3333,107.833 74.6667,108.167 75,108.5C 75.3589,105.456 76.0255,105.122 77,107.5C 78.6179,104.879 80.6179,102.546 83,100.5C 84.0847,102.657 85.2513,102.824 86.5,101C 85.4266,99.4056 84.4266,97.9056 83.5,96.5C 84.5301,96.4455 85.6967,96.1122 87,95.5C 87.3076,96.3081 87.8076,96.9747 88.5,97.5C 89.6409,92.5258 92.4742,88.8591 97,86.5C 97.6172,85.5509 97.4506,84.7175 96.5,84C 97.5,83.1667 98.5,82.3333 99.5,81.5C 98.8333,80.5 98.1667,79.5 97.5,78.5C 100.058,76.8799 100.058,75.3799 97.5,74C 98.056,73.6174 98.3893,73.1174 98.5,72.5C 98.8333,72.5 99.1667,72.5 99.5,72.5C 102.545,72.4921 105.545,72.1587 108.5,71.5 Z"/></g>
<g><path style="opacity:1" fill="#867d67" d="M 150.5,63.5 C 150.968,67.1313 150.301,70.4646 148.5,73.5C 149.309,75.0709 149.643,76.7376 149.5,78.5C 147.772,83.5148 145.939,88.5148 144,93.5C 142.591,94.7811 141.091,95.7811 139.5,96.5C 137.5,96.5 135.5,96.5 133.5,96.5C 132.463,95.0697 131.796,93.403 131.5,91.5C 132.598,90.3991 132.765,89.0657 132,87.5C 130.772,83.9413 129.106,80.608 127,77.5C 126.891,72.9444 125.891,68.6111 124,64.5C 120.527,63.2006 118.36,60.8673 117.5,57.5C 117.56,56.9569 117.893,56.6236 118.5,56.5C 121.167,58.1667 123.833,59.8333 126.5,61.5C 127.154,63.1151 127.654,64.7818 128,66.5C 132.458,70.8652 134.792,76.1986 135,82.5C 135.741,83.6405 136.575,83.6405 137.5,82.5C 138.192,83.0253 138.692,83.6919 139,84.5C 140,84.1667 141,83.8333 142,83.5C 142.653,80.1934 144.319,77.5267 147,75.5C 147.175,71.789 147.675,68.1224 148.5,64.5C 149.183,64.1373 149.85,63.8039 150.5,63.5 Z"/></g>
<g><path style="opacity:1" fill="#312e26" d="M 182.5,22.5 C 182.833,22.5 183.167,22.5 183.5,22.5C 184.533,24.0855 185.866,25.4188 187.5,26.5C 187.167,27.1667 186.833,27.8333 186.5,28.5C 186.167,28.5 185.833,28.5 185.5,28.5C 184.501,34.7424 184.167,41.7424 184.5,49.5C 185.535,51.205 185.535,52.8716 184.5,54.5C 185.167,55.5 185.833,56.5 186.5,57.5C 184.054,59.6513 183.387,62.1513 184.5,65C 183.376,65.2492 182.376,65.7492 181.5,66.5C 184.439,70.3099 183.939,73.6432 180,76.5C 179.467,79.505 178.3,82.1717 176.5,84.5C 171.613,86.7768 166.613,88.7768 161.5,90.5C 163.718,83.2886 165.885,75.9553 168,68.5C 171.817,62.521 175.984,56.8543 180.5,51.5C 181.496,51.5858 182.329,51.2524 183,50.5C 183.5,43.1742 183.666,35.8409 183.5,28.5C 183.5,27.1667 182.833,26.5 181.5,26.5C 177.059,24.9639 172.726,25.2972 168.5,27.5C 168.5,26.5 168.5,25.5 168.5,24.5C 171.199,23.4142 174.366,23.4142 178,24.5C 179.986,24.4313 181.486,23.7647 182.5,22.5 Z"/></g>
<g><path style="opacity:1" fill="#142632" d="M 195.5,76.5 C 197.857,76.3367 200.19,76.5034 202.5,77C 202.464,79.0839 203.464,80.9172 205.5,82.5C 204.833,83.1667 204.167,83.8333 203.5,84.5C 192.975,90.0227 184.308,97.6894 177.5,107.5C 173.719,111.624 170.719,116.291 168.5,121.5C 166.926,122.984 165.593,124.651 164.5,126.5C 157.616,128.906 150.616,130.906 143.5,132.5C 144.082,130.957 145.749,130.124 148.5,130C 147.5,129.667 146.5,129.333 145.5,129C 153.366,126.662 154.533,122.495 149,116.5C 146.539,119.657 143.539,122.324 140,124.5C 139.5,124 139,123.5 138.5,123C 139.866,121.4 140.866,119.567 141.5,117.5C 145.866,114.43 149.866,110.93 153.5,107C 158.128,106.356 161.795,104.19 164.5,100.5C 163.757,99.8182 163.091,99.1515 162.5,98.5C 165.598,96.1084 168.931,93.9417 172.5,92C 173.738,91.31 173.738,90.81 172.5,90.5C 180.162,85.8411 187.828,81.1744 195.5,76.5 Z"/></g>
<g><path style="opacity:1" fill="#6d6759" d="M 54.5,72.5 C 53.0929,74.6139 51.0929,76.1139 48.5,77C 43.7129,79.319 38.7129,81.1523 33.5,82.5C 35.4006,80.2043 37.7339,78.371 40.5,77C 45.0454,75.1955 49.7121,73.6955 54.5,72.5 Z"/></g>
<g><path style="opacity:1" fill="#9e9a8a" d="M 51.5,68.5 C 51.3691,69.3764 51.7025,70.0431 52.5,70.5C 53.1818,69.7573 53.8485,69.0906 54.5,68.5C 54.5,69.8333 54.5,71.1667 54.5,72.5C 49.7121,73.6955 45.0454,75.1955 40.5,77C 37.7339,78.371 35.4006,80.2043 33.5,82.5C 23.7332,87.3837 13.7332,91.717 3.5,95.5C 3.16667,95.5 2.83333,95.5 2.5,95.5C 6.70674,92.4197 11.3734,90.0863 16.5,88.5C 28.6615,82.6656 40.3282,75.999 51.5,68.5 Z"/></g>
<g><path style="opacity:1" fill="#161412" d="M 228.5,76.5 C 233.5,76.5 238.5,76.5 243.5,76.5C 247.267,77.7947 251.267,78.4613 255.5,78.5C 255.5,79.5 255.5,80.5 255.5,81.5C 242.026,79.5201 229.026,81.1868 216.5,86.5C 215.45,86.0954 215.45,85.4288 216.5,84.5C 221.533,82.7667 226.533,80.9334 231.5,79C 230.263,78.7679 229.263,78.2679 228.5,77.5C 228.5,77.1667 228.5,76.8333 228.5,76.5 Z"/></g>
<g><path style="opacity:1" fill="#4f4a41" d="M 212.5,80.5 C 212.938,80.4346 213.272,80.6012 213.5,81C 209.625,82.3468 209.625,83.5135 213.5,84.5C 210.804,86.2111 208.138,87.8777 205.5,89.5C 204.729,87.4245 204.062,85.7578 203.5,84.5C 204.167,83.8333 204.833,83.1667 205.5,82.5C 207.833,81.8333 210.167,81.1667 212.5,80.5 Z"/></g>
<g><path style="opacity:1" fill="#453f34" d="M 180.5,51.5 C 175.984,56.8543 171.817,62.521 168,68.5C 165.885,75.9553 163.718,83.2886 161.5,90.5C 157.585,93.026 153.252,94.3593 148.5,94.5C 148.183,91.4281 148.516,88.4281 149.5,85.5C 151.149,86.6477 152.649,87.981 154,89.5C 160.284,78.9537 166.617,68.2871 173,57.5C 175.106,54.8823 177.606,52.8823 180.5,51.5 Z"/></g>
<g><path style="opacity:1" fill="#282b2d" d="M 100.5,42.5 C 100.5,43.8333 100.5,45.1667 100.5,46.5C 100.767,48.9653 101.434,51.2986 102.5,53.5C 102.833,54.1667 103.167,54.8333 103.5,55.5C 102.427,56.2506 102.26,57.2506 103,58.5C 104.5,60 106,61.5 107.5,63C 105.899,63.2734 104.399,63.7734 103,64.5C 99.3381,63.8473 98.0048,65.514 99,69.5C 100.728,70.3523 100.895,71.3523 99.5,72.5C 99.1667,72.5 98.8333,72.5 98.5,72.5C 95.3015,73.4323 92.1348,73.4323 89,72.5C 80.6878,76.7143 71.8544,79.5477 62.5,81C 61.8333,82 61.1667,83 60.5,84C 57.2823,84.9003 54.2823,86.067 51.5,87.5C 44.9336,89.1351 38.6003,91.1351 32.5,93.5C 24.1743,94.5732 15.841,95.5732 7.5,96.5C 15.3075,92.6006 23.3075,88.7673 31.5,85C 39.6299,82.4303 47.6299,79.597 55.5,76.5C 55.5,74.5 55.5,72.5 55.5,70.5C 56.9744,71.4363 57.9744,72.7697 58.5,74.5C 59.4577,75.9616 60.6244,77.2949 62,78.5C 62.4828,77.552 62.6495,76.552 62.5,75.5C 64.1992,75.6602 65.8659,75.4935 67.5,75C 72.9008,72.8259 78.2341,70.6593 83.5,68.5C 83.7947,66.2646 83.4614,64.2646 82.5,62.5C 82.7373,61.209 82.404,60.209 81.5,59.5C 81.5,58.8333 81.5,58.1667 81.5,57.5C 83.2014,58.2114 84.2014,59.5447 84.5,61.5C 84.9081,62.6431 85.5748,63.6431 86.5,64.5C 90.3338,62.7023 94.3338,61.2023 98.5,60C 101.261,58.2954 101.927,56.1287 100.5,53.5C 100.672,52.5084 100.338,51.8417 99.5,51.5C 99.5,50.1667 99.5,48.8333 99.5,47.5C 99.2155,45.5853 99.5489,43.9187 100.5,42.5 Z"/></g>
<g><path style="opacity:1" fill="#504c45" d="M 54.5,68.5 C 55.1667,68.5 55.5,68.8333 55.5,69.5C 55.5,69.8333 55.5,70.1667 55.5,70.5C 55.5,72.5 55.5,74.5 55.5,76.5C 47.6299,79.597 39.6299,82.4303 31.5,85C 23.3075,88.7673 15.3075,92.6006 7.5,96.5C 5.90097,96.7678 4.56764,96.4345 3.5,95.5C 13.7332,91.717 23.7332,87.3837 33.5,82.5C 38.7129,81.1523 43.7129,79.319 48.5,77C 51.0929,76.1139 53.0929,74.6139 54.5,72.5C 54.5,71.1667 54.5,69.8333 54.5,68.5 Z"/></g>
<g><path style="opacity:1" fill="#24373a" d="M 51.5,87.5 C 52.1373,91.0785 53.6373,91.4118 56,88.5C 56.3742,89.4162 56.8742,90.2496 57.5,91C 56.6433,91.6891 55.9767,92.5224 55.5,93.5C 56.1654,95.1012 56.4988,96.6012 56.5,98C 54.6332,98.7112 53.1332,98.2112 52,96.5C 50.0858,97.676 50.2524,98.676 52.5,99.5C 51.3707,101.529 51.8707,101.863 54,100.5C 54.8333,101.333 55.6667,102.167 56.5,103C 54.8714,104.056 53.5381,105.556 52.5,107.5C 49.5514,105.161 47.5514,105.494 46.5,108.5C 46.8457,109.696 47.3457,109.696 48,108.5C 48.2236,110.131 47.3903,111.131 45.5,111.5C 43.7419,110.872 42.2419,109.872 41,108.5C 39.1706,110.156 37.8372,112.156 37,114.5C 36.1072,113.289 35.2739,113.289 34.5,114.5C 34.7093,115.086 35.0426,115.586 35.5,116C 32.6486,117.742 31.9819,120.075 33.5,123C 32.8534,124.609 32.02,126.109 31,127.5C 30.6667,126.833 30.3333,126.167 30,125.5C 28.4019,128.861 28.5686,131.861 30.5,134.5C 30.1543,135.696 29.6543,135.696 29,134.5C 28.5026,137.146 28.3359,139.813 28.5,142.5C 25.1667,142.5 21.8333,142.5 18.5,142.5C 18.0825,141.778 17.4158,141.278 16.5,141C 17.9561,140.577 18.4561,139.744 18,138.5C 14.3216,141.129 13.8216,140.629 16.5,137C 15.0679,133.63 14.0679,130.296 13.5,127C 13.9054,126.055 14.572,125.388 15.5,125C 14.6548,123.442 15.3215,122.442 17.5,122C 16.0394,120.649 14.706,119.149 13.5,117.5C 13.8457,116.304 14.3457,116.304 15,117.5C 15.7728,112.689 18.6061,110.023 23.5,109.5C 25.0879,110.01 26.2545,111.01 27,112.5C 27.2492,111.376 27.7492,110.376 28.5,109.5C 29.8333,109.167 31.1667,108.833 32.5,108.5C 31.3265,105.721 29.4932,105.054 27,106.5C 25.3651,105.274 23.8651,103.941 22.5,102.5C 25.3331,102.418 28.3331,102.252 31.5,102C 31.1667,101.667 30.8333,101.333 30.5,101C 31.3547,98.5644 32.0213,96.0644 32.5,93.5C 38.6003,91.1351 44.9336,89.1351 51.5,87.5 Z"/></g>
<g><path style="opacity:1" fill="#534c3c" d="M 255.5,81.5 C 255.5,89.1667 255.5,96.8333 255.5,104.5C 253.265,104.795 251.265,104.461 249.5,103.5C 249.121,102.276 246.454,101.943 241.5,102.5C 243.969,101.683 246.635,101.183 249.5,101C 243.235,99.5158 236.902,99.1824 230.5,100C 223.22,102.641 216.22,105.808 209.5,109.5C 208.522,109.189 207.855,108.522 207.5,107.5C 207.179,103.032 207.179,98.5319 207.5,94C 206.906,93.5357 206.239,93.369 205.5,93.5C 208.997,90.917 212.664,88.5836 216.5,86.5C 229.026,81.1868 242.026,79.5201 255.5,81.5 Z"/></g>
<g><path style="opacity:1" fill="#223235" d="M -0.5,80.5 C 0.338246,80.8417 0.67158,81.5084 0.5,82.5C 0.333749,89.175 0.500416,95.8417 1,102.5C 2.20223,100.323 2.70223,97.9892 2.5,95.5C 2.83333,95.5 3.16667,95.5 3.5,95.5C 4.56764,96.4345 5.90097,96.7678 7.5,96.5C 15.841,95.5732 24.1743,94.5732 32.5,93.5C 32.0213,96.0644 31.3547,98.5644 30.5,101C 30.8333,101.333 31.1667,101.667 31.5,102C 28.3331,102.252 25.3331,102.418 22.5,102.5C 23.8651,103.941 25.3651,105.274 27,106.5C 29.4932,105.054 31.3265,105.721 32.5,108.5C 31.1667,108.833 29.8333,109.167 28.5,109.5C 27.7492,110.376 27.2492,111.376 27,112.5C 26.2545,111.01 25.0879,110.01 23.5,109.5C 18.6061,110.023 15.7728,112.689 15,117.5C 14.3457,116.304 13.8457,116.304 13.5,117.5C 14.706,119.149 16.0394,120.649 17.5,122C 15.3215,122.442 14.6548,123.442 15.5,125C 14.572,125.388 13.9054,126.055 13.5,127C 14.0679,130.296 15.0679,133.63 16.5,137C 13.8216,140.629 14.3216,141.129 18,138.5C 18.4561,139.744 17.9561,140.577 16.5,141C 17.4158,141.278 18.0825,141.778 18.5,142.5C 15.6146,142.194 12.9479,142.527 10.5,143.5C 6.83333,143.5 3.16667,143.5 -0.5,143.5C -0.5,122.5 -0.5,101.5 -0.5,80.5 Z"/></g>
<g><path style="opacity:1" fill="#665e4b" d="M 205.5,93.5 C 206.239,93.369 206.906,93.5357 207.5,94C 207.179,98.5319 207.179,103.032 207.5,107.5C 207.855,108.522 208.522,109.189 209.5,109.5C 209.5,109.833 209.5,110.167 209.5,110.5C 208.833,110.5 208.5,110.833 208.5,111.5C 202.323,115.097 196.657,119.43 191.5,124.5C 190.504,124.586 189.671,124.252 189,123.5C 186.827,126.277 186.327,126.11 187.5,123C 185.866,122.506 184.199,122.34 182.5,122.5C 182.737,121.209 182.404,120.209 181.5,119.5C 187.678,109.138 195.678,100.472 205.5,93.5 Z"/></g>
<g><path style="opacity:1" fill="#375658" d="M 130.5,89.5 C 130.833,90.1667 131.167,90.8333 131.5,91.5C 131.796,93.403 132.463,95.0697 133.5,96.5C 133.611,97.1174 133.944,97.6174 134.5,98C 136.473,98.4955 138.473,98.6621 140.5,98.5C 139.5,99.8333 138.5,101.167 137.5,102.5C 134.2,104.808 131.533,107.808 129.5,111.5C 128.596,112.209 128.263,113.209 128.5,114.5C 126.599,114.567 124.766,114.233 123,113.5C 116.932,115.453 110.765,117.286 104.5,119C 105.654,119.914 105.487,120.747 104,121.5C 103.581,120.328 102.915,119.328 102,118.5C 97.5394,122.294 93.3727,126.461 89.5,131C 89.7591,132.261 90.4258,133.261 91.5,134C 89.5,134.667 88.1667,136 87.5,138C 89.1066,139.049 89.7733,140.549 89.5,142.5C 82.8333,142.5 76.1667,142.5 69.5,142.5C 71.1973,136.478 72.6973,130.811 74,125.5C 74.3333,125.833 74.6667,126.167 75,126.5C 75.3599,124.392 76.0266,122.392 77,120.5C 78.0113,121.337 79.1779,121.67 80.5,121.5C 80.3505,120.448 80.5172,119.448 81,118.5C 83,117.833 84.3333,116.5 85,114.5C 85.3333,115.5 85.6667,116.5 86,117.5C 87.9659,114.774 89.9659,114.44 92,116.5C 94.5129,113.064 97.8462,109.731 102,106.5C 103.503,106.835 104.836,106.835 106,106.5C 107,105.5 108,104.5 109,103.5C 111.635,106.506 113.635,106.172 115,102.5C 115.333,102.833 115.667,103.167 116,103.5C 117.825,102.897 119.659,102.23 121.5,101.5C 122.803,99.0629 124.47,96.8962 126.5,95C 124.071,94.5488 123.904,93.7155 126,92.5C 126.333,92.8333 126.667,93.1667 127,93.5C 127.498,91.4556 128.665,90.1223 130.5,89.5 Z"/></g>
<g><path style="opacity:1" fill="#998e78" d="M 203.5,84.5 C 204.062,85.7578 204.729,87.4245 205.5,89.5C 203.938,89.7329 202.605,90.3995 201.5,91.5C 193.542,96.9525 185.709,102.619 178,108.5C 177.601,108.272 177.435,107.938 177.5,107.5C 184.308,97.6894 192.975,90.0227 203.5,84.5 Z"/></g>
<g><path style="opacity:1" fill="#383c3b" d="M 133.5,96.5 C 135.5,96.5 137.5,96.5 139.5,96.5C 139.833,96.5 140.167,96.5 140.5,96.5C 144.291,97.9842 148.291,98.9842 152.5,99.5C 149.869,101.153 147.203,102.819 144.5,104.5C 144.625,101.392 143.292,99.3918 140.5,98.5C 138.473,98.6621 136.473,98.4955 134.5,98C 133.944,97.6174 133.611,97.1174 133.5,96.5 Z"/></g>
<g><path style="opacity:1" fill="#172d3f" d="M 162.5,98.5 C 163.091,99.1515 163.757,99.8182 164.5,100.5C 161.795,104.19 158.128,106.356 153.5,107C 149.866,110.93 145.866,114.43 141.5,117.5C 140.866,119.567 139.866,121.4 138.5,123C 139,123.5 139.5,124 140,124.5C 143.539,122.324 146.539,119.657 149,116.5C 154.533,122.495 153.366,126.662 145.5,129C 146.5,129.333 147.5,129.667 148.5,130C 145.749,130.124 144.082,130.957 143.5,132.5C 141.611,133.742 139.611,133.742 137.5,132.5C 136.041,128.248 134.041,124.248 131.5,120.5C 132.5,120.5 133.5,120.5 134.5,120.5C 135.159,117.545 135.492,114.545 135.5,111.5C 136.167,112.833 136.833,114.167 137.5,115.5C 137.351,116.552 137.517,117.552 138,118.5C 142.77,107.695 150.936,101.029 162.5,98.5 Z"/></g>
<g><path style="opacity:1" fill="#080f14" d="M 140.5,98.5 C 143.292,99.3918 144.625,101.392 144.5,104.5C 141.405,107.692 139.072,111.359 137.5,115.5C 136.833,114.167 136.167,112.833 135.5,111.5C 135.207,108.246 135.874,105.246 137.5,102.5C 138.5,101.167 139.5,99.8333 140.5,98.5 Z"/></g>
<g><path style="opacity:1" fill="#635c50" d="M 201.5,91.5 C 198.53,95.4642 194.863,98.7975 190.5,101.5C 189.113,103.21 187.779,104.877 186.5,106.5C 184.246,107.254 182.413,108.587 181,110.5C 179.189,111.078 177.355,111.578 175.5,112C 173.512,115.501 171.178,118.668 168.5,121.5C 170.719,116.291 173.719,111.624 177.5,107.5C 177.435,107.938 177.601,108.272 178,108.5C 185.709,102.619 193.542,96.9525 201.5,91.5 Z"/></g>
<g><path style="opacity:1" fill="#2a3f42" d="M 98.5,72.5 C 98.3893,73.1174 98.056,73.6174 97.5,74C 100.058,75.3799 100.058,76.8799 97.5,78.5C 98.1667,79.5 98.8333,80.5 99.5,81.5C 98.5,82.3333 97.5,83.1667 96.5,84C 97.4506,84.7175 97.6172,85.5509 97,86.5C 92.4742,88.8591 89.6409,92.5258 88.5,97.5C 87.8076,96.9747 87.3076,96.3081 87,95.5C 85.6967,96.1122 84.5301,96.4455 83.5,96.5C 84.4266,97.9056 85.4266,99.4056 86.5,101C 85.2513,102.824 84.0847,102.657 83,100.5C 80.6179,102.546 78.6179,104.879 77,107.5C 76.0255,105.122 75.3589,105.456 75,108.5C 74.6667,108.167 74.3333,107.833 74,107.5C 73.5814,108.672 72.9147,109.672 72,110.5C 69.6667,110.5 67.3333,110.5 65,110.5C 63.8139,112.677 61.9806,113.677 59.5,113.5C 59.5614,115.592 60.5614,117.092 62.5,118C 61.8333,118.333 61.1667,118.667 60.5,119C 61.0792,120.908 61.0792,122.575 60.5,124C 58.4226,124.807 56.5893,125.974 55,127.5C 53.4934,123.764 52.6601,123.764 52.5,127.5C 50.6536,127.222 49.3202,127.889 48.5,129.5C 50.587,133.618 50.587,137.951 48.5,142.5C 47.8333,142.5 47.5,142.833 47.5,143.5C 35.1667,143.5 22.8333,143.5 10.5,143.5C 12.9479,142.527 15.6146,142.194 18.5,142.5C 21.8333,142.5 25.1667,142.5 28.5,142.5C 28.3359,139.813 28.5026,137.146 29,134.5C 29.6543,135.696 30.1543,135.696 30.5,134.5C 28.5686,131.861 28.4019,128.861 30,125.5C 30.3333,126.167 30.6667,126.833 31,127.5C 32.02,126.109 32.8534,124.609 33.5,123C 31.9819,120.075 32.6486,117.742 35.5,116C 35.0426,115.586 34.7093,115.086 34.5,114.5C 35.2739,113.289 36.1072,113.289 37,114.5C 37.8372,112.156 39.1706,110.156 41,108.5C 42.2419,109.872 43.7419,110.872 45.5,111.5C 47.3903,111.131 48.2236,110.131 48,108.5C 47.3457,109.696 46.8457,109.696 46.5,108.5C 47.5514,105.494 49.5514,105.161 52.5,107.5C 53.5381,105.556 54.8714,104.056 56.5,103C 55.6667,102.167 54.8333,101.333 54,100.5C 51.8707,101.863 51.3707,101.529 52.5,99.5C 50.2524,98.676 50.0858,97.676 52,96.5C 53.1332,98.2112 54.6332,98.7112 56.5,98C 56.4988,96.6012 56.1654,95.1012 55.5,93.5C 55.9767,92.5224 56.6433,91.6891 57.5,91C 56.8742,90.2496 56.3742,89.4162 56,88.5C 53.6373,91.4118 52.1373,91.0785 51.5,87.5C 54.2823,86.067 57.2823,84.9003 60.5,84C 61.1667,83 61.8333,82 62.5,81C 71.8544,79.5477 80.6878,76.7143 89,72.5C 92.1348,73.4323 95.3015,73.4323 98.5,72.5 Z"/></g>
<g><path style="opacity:1" fill="#36668a" d="M 172.5,90.5 C 173.738,90.81 173.738,91.31 172.5,92C 168.931,93.9417 165.598,96.1084 162.5,98.5C 150.936,101.029 142.77,107.695 138,118.5C 137.517,117.552 137.351,116.552 137.5,115.5C 139.072,111.359 141.405,107.692 144.5,104.5C 147.203,102.819 149.869,101.153 152.5,99.5C 159.183,96.4694 165.85,93.4694 172.5,90.5 Z"/></g>
<g><path style="opacity:1" fill="#1d1815" d="M 241.5,102.5 C 246.454,101.943 249.121,102.276 249.5,103.5C 245.958,103.187 242.625,103.521 239.5,104.5C 231.936,104.346 226.602,107.679 223.5,114.5C 222.833,116.167 222.167,117.833 221.5,119.5C 221.152,115.915 221.819,112.582 223.5,109.5C 224.828,107.035 226.828,105.201 229.5,104C 233.44,102.985 237.44,102.485 241.5,102.5 Z"/></g>
<g><path style="opacity:1" fill="#8f846d" d="M 239.5,104.5 C 242.625,103.521 245.958,103.187 249.5,103.5C 251.265,104.461 253.265,104.795 255.5,104.5C 255.5,111.167 255.5,117.833 255.5,124.5C 255.167,124.5 254.833,124.5 254.5,124.5C 254.806,121.615 254.473,118.948 253.5,116.5C 255.223,109.712 252.39,106.712 245,107.5C 241.976,107.481 239.142,108.147 236.5,109.5C 235.909,108.849 235.243,108.182 234.5,107.5C 237.747,106.35 241.08,105.517 244.5,105C 242.866,104.506 241.199,104.34 239.5,104.5 Z"/></g>
<g><path style="opacity:1" fill="#786e59" d="M 241.5,102.5 C 237.44,102.485 233.44,102.985 229.5,104C 226.828,105.201 224.828,107.035 223.5,109.5C 223.265,108.903 222.765,108.57 222,108.5C 217.957,109.958 213.791,110.625 209.5,110.5C 209.5,110.167 209.5,109.833 209.5,109.5C 216.22,105.808 223.22,102.641 230.5,100C 236.902,99.1824 243.235,99.5158 249.5,101C 246.635,101.183 243.969,101.683 241.5,102.5 Z"/></g>
<g><path style="opacity:1" fill="#314d4f" d="M 119.5,68.5 C 124.452,74.7347 128.119,81.7347 130.5,89.5C 128.665,90.1223 127.498,91.4556 127,93.5C 126.667,93.1667 126.333,92.8333 126,92.5C 123.904,93.7155 124.071,94.5488 126.5,95C 124.47,96.8962 122.803,99.0629 121.5,101.5C 119.659,102.23 117.825,102.897 116,103.5C 115.667,103.167 115.333,102.833 115,102.5C 113.635,106.172 111.635,106.506 109,103.5C 108,104.5 107,105.5 106,106.5C 104.836,106.835 103.503,106.835 102,106.5C 97.8462,109.731 94.5129,113.064 92,116.5C 89.9659,114.44 87.9659,114.774 86,117.5C 85.6667,116.5 85.3333,115.5 85,114.5C 84.3333,116.5 83,117.833 81,118.5C 80.5172,119.448 80.3505,120.448 80.5,121.5C 79.1779,121.67 78.0113,121.337 77,120.5C 76.0266,122.392 75.3599,124.392 75,126.5C 74.6667,126.167 74.3333,125.833 74,125.5C 72.6973,130.811 71.1973,136.478 69.5,142.5C 69.5,142.833 69.5,143.167 69.5,143.5C 62.1667,143.5 54.8333,143.5 47.5,143.5C 47.5,142.833 47.8333,142.5 48.5,142.5C 50.1667,142.5 51.8333,142.5 53.5,142.5C 53.5433,139.912 54.5433,137.746 56.5,136C 54.9926,135.163 54.4926,133.996 55,132.5C 55.3333,132.833 55.6667,133.167 56,133.5C 56.2189,132.062 56.7189,130.729 57.5,129.5C 63.2118,123.121 69.5451,117.454 76.5,112.5C 78.2141,113.609 78.8808,112.942 78.5,110.5C 79.5,110.5 80.5,110.5 81.5,110.5C 81.5614,108.408 82.5614,106.908 84.5,106C 86.8333,105.667 89.1667,105.333 91.5,105C 95.5129,101.485 100.18,99.1513 105.5,98C 104.66,96.3335 105.16,96.1669 107,97.5C 109.025,95.3069 111.525,94.3069 114.5,94.5C 113.304,91.4201 113.304,88.5868 114.5,86C 113.257,84.8455 112.257,83.5122 111.5,82C 114.044,80.4374 114.044,78.9374 111.5,77.5C 112.052,75.9974 112.052,74.3307 111.5,72.5C 110.209,72.7373 109.209,72.404 108.5,71.5C 112.463,71.139 116.13,70.139 119.5,68.5 Z"/></g>
<g><path style="opacity:1" fill="#aba087" d="M 223.5,109.5 C 221.819,112.582 221.152,115.915 221.5,119.5C 220.532,117.393 220.198,115.059 220.5,112.5C 218.833,112.5 217.167,112.5 215.5,112.5C 215.5,113.833 215.5,115.167 215.5,116.5C 214.71,115.391 214.21,114.058 214,112.5C 213.617,113.056 213.117,113.389 212.5,113.5C 211.329,112.655 209.995,111.989 208.5,111.5C 208.5,110.833 208.833,110.5 209.5,110.5C 213.791,110.625 217.957,109.958 222,108.5C 222.765,108.57 223.265,108.903 223.5,109.5 Z"/></g>
<g><path style="opacity:1" fill="#b7ab91" d="M 239.5,104.5 C 241.199,104.34 242.866,104.506 244.5,105C 241.08,105.517 237.747,106.35 234.5,107.5C 235.243,108.182 235.909,108.849 236.5,109.5C 236.167,110.5 235.5,111.167 234.5,111.5C 230.769,109.565 228.435,110.732 227.5,115C 226.207,115.49 224.873,115.657 223.5,115.5C 223.5,115.167 223.5,114.833 223.5,114.5C 226.602,107.679 231.936,104.346 239.5,104.5 Z"/></g>
<g><path style="opacity:1" fill="#437698" d="M 137.5,102.5 C 135.874,105.246 135.207,108.246 135.5,111.5C 135.492,114.545 135.159,117.545 134.5,120.5C 133.5,120.5 132.5,120.5 131.5,120.5C 130.583,117.583 129.916,114.583 129.5,111.5C 131.533,107.808 134.2,104.808 137.5,102.5 Z"/></g>
<g><path style="opacity:1" fill="#44403a" d="M 186.5,106.5 C 181.797,111.536 177.797,117.203 174.5,123.5C 172.662,123.023 170.828,122.69 169,122.5C 167.723,124.747 166.223,126.747 164.5,128.5C 164.5,127.833 164.5,127.167 164.5,126.5C 165.593,124.651 166.926,122.984 168.5,121.5C 171.178,118.668 173.512,115.501 175.5,112C 177.355,111.578 179.189,111.078 181,110.5C 182.413,108.587 184.246,107.254 186.5,106.5 Z"/></g>
<g><path style="opacity:1" fill="#c5baa2" d="M 208.5,111.5 C 209.995,111.989 211.329,112.655 212.5,113.5C 205.246,118.416 198.579,124.083 192.5,130.5C 191.207,129.355 190.041,129.689 189,131.5C 188.292,130.619 187.458,129.953 186.5,129.5C 187.861,127.473 189.527,125.806 191.5,124.5C 196.657,119.43 202.323,115.097 208.5,111.5 Z"/></g>
<g><path style="opacity:1" fill="#3e2f26" d="M 253.5,116.5 C 251.694,117.024 250.028,117.691 248.5,118.5C 247.542,118.953 246.708,119.619 246,120.5C 241.451,120.184 237.451,118.517 234,115.5C 233.421,114.072 233.588,112.738 234.5,111.5C 235.5,111.167 236.167,110.5 236.5,109.5C 239.142,108.147 241.976,107.481 245,107.5C 252.39,106.712 255.223,109.712 253.5,116.5 Z"/></g>
<g><path style="opacity:1" fill="#d0c8b1" d="M 242.5,109.5 C 245.8,110.729 248.8,112.395 251.5,114.5C 251.389,115.117 251.056,115.617 250.5,116C 246.121,117.822 241.787,117.822 237.5,116C 235.793,111.519 237.459,109.353 242.5,109.5 Z"/></g>
<g><path style="opacity:1" fill="#a79c80" d="M 242.5,109.5 C 245.377,108.482 248.377,108.649 251.5,110C 252.801,111.616 252.801,113.116 251.5,114.5C 248.8,112.395 245.8,110.729 242.5,109.5 Z"/></g>
<g><path style="opacity:1" fill="#dcd4c2" d="M 221.5,119.5 C 222.043,122.038 223.043,124.372 224.5,126.5C 218.122,128.857 212.122,132.023 206.5,136C 203.06,138.042 200.06,140.542 197.5,143.5C 195.833,143.5 194.167,143.5 192.5,143.5C 199.263,137.988 205.93,132.321 212.5,126.5C 213.721,125.972 214.887,125.305 216,124.5C 216.43,121.808 216.263,119.141 215.5,116.5C 215.5,115.167 215.5,113.833 215.5,112.5C 217.167,112.5 218.833,112.5 220.5,112.5C 220.198,115.059 220.532,117.393 221.5,119.5 Z"/></g>
<g><path style="opacity:1" fill="#c3b89a" d="M 253.5,116.5 C 254.473,118.948 254.806,121.615 254.5,124.5C 251.375,125.479 248.042,125.813 244.5,125.5C 244.737,126.791 244.404,127.791 243.5,128.5C 243.461,127.417 243.127,126.417 242.5,125.5C 244.608,124.056 246.941,123.39 249.5,123.5C 249.286,121.856 249.62,120.356 250.5,119C 249.906,118.536 249.239,118.369 248.5,118.5C 250.028,117.691 251.694,117.024 253.5,116.5 Z"/></g>
<g><path style="opacity:1" fill="#3b2e27" d="M 215.5,116.5 C 216.263,119.141 216.43,121.808 216,124.5C 214.887,125.305 213.721,125.972 212.5,126.5C 214.869,122.058 215.203,120.058 213.5,120.5C 212.732,119.737 212.232,118.737 212,117.5C 202.005,125.664 192.505,134.33 183.5,143.5C 182.5,143.5 181.5,143.5 180.5,143.5C 183.792,138.54 187.792,134.207 192.5,130.5C 198.579,124.083 205.246,118.416 212.5,113.5C 213.117,113.389 213.617,113.056 214,112.5C 214.21,114.058 214.71,115.391 215.5,116.5 Z"/></g>
<g><path style="opacity:1" fill="#34302b" d="M 174.5,123.5 C 172.228,129.377 169.395,135.044 166,140.5C 165.833,140 165.667,139.5 165.5,139C 166.33,137.535 166.496,136.035 166,134.5C 164.871,136.141 163.371,137.141 161.5,137.5C 162.787,134.594 163.787,131.594 164.5,128.5C 166.223,126.747 167.723,124.747 169,122.5C 170.828,122.69 172.662,123.023 174.5,123.5 Z"/></g>
<g><path style="opacity:1" fill="#3d5d64" d="M 129.5,111.5 C 129.916,114.583 130.583,117.583 131.5,120.5C 134.041,124.248 136.041,128.248 137.5,132.5C 132.368,134.087 127.702,136.421 123.5,139.5C 120.256,140.463 117.256,141.796 114.5,143.5C 99.5,143.5 84.5,143.5 69.5,143.5C 69.5,143.167 69.5,142.833 69.5,142.5C 76.1667,142.5 82.8333,142.5 89.5,142.5C 89.7733,140.549 89.1066,139.049 87.5,138C 88.1667,136 89.5,134.667 91.5,134C 90.4258,133.261 89.7591,132.261 89.5,131C 93.3727,126.461 97.5394,122.294 102,118.5C 102.915,119.328 103.581,120.328 104,121.5C 105.487,120.747 105.654,119.914 104.5,119C 110.765,117.286 116.932,115.453 123,113.5C 124.766,114.233 126.599,114.567 128.5,114.5C 128.263,113.209 128.596,112.209 129.5,111.5 Z"/></g>
<g><path style="opacity:1" fill="#5e4537" d="M 223.5,114.5 C 223.5,114.833 223.5,115.167 223.5,115.5C 222.948,120.4 224.948,123.734 229.5,125.5C 228.06,126.952 226.394,127.952 224.5,128.5C 225.506,127.604 225.506,126.938 224.5,126.5C 223.043,124.372 222.043,122.038 221.5,119.5C 222.167,117.833 222.833,116.167 223.5,114.5 Z"/></g>
<g><path style="opacity:1" fill="#221f1c" d="M 228.5,77.5 C 229.263,78.2679 230.263,78.7679 231.5,79C 226.533,80.9334 221.533,82.7667 216.5,84.5C 215.45,85.4288 215.45,86.0954 216.5,86.5C 212.664,88.5836 208.997,90.917 205.5,93.5C 195.678,100.472 187.678,109.138 181.5,119.5C 176.662,127.173 172.328,135.173 168.5,143.5C 165.167,143.5 161.833,143.5 158.5,143.5C 158.629,141.784 158.962,140.117 159.5,138.5C 160.167,138.167 160.833,137.833 161.5,137.5C 163.371,137.141 164.871,136.141 166,134.5C 166.496,136.035 166.33,137.535 165.5,139C 165.667,139.5 165.833,140 166,140.5C 169.395,135.044 172.228,129.377 174.5,123.5C 177.797,117.203 181.797,111.536 186.5,106.5C 187.779,104.877 189.113,103.21 190.5,101.5C 194.863,98.7975 198.53,95.4642 201.5,91.5C 202.605,90.3995 203.938,89.7329 205.5,89.5C 208.138,87.8777 210.804,86.2111 213.5,84.5C 209.625,83.5135 209.625,82.3468 213.5,81C 213.272,80.6012 212.938,80.4346 212.5,80.5C 217.542,78.5798 222.875,77.5798 228.5,77.5 Z"/></g>
<g><path style="opacity:1" fill="#261f1c" d="M 212.5,126.5 C 205.93,132.321 199.263,137.988 192.5,143.5C 191.833,143.5 191.167,143.5 190.5,143.5C 195.04,137.793 200.373,132.96 206.5,129C 209.447,126.564 211.78,123.731 213.5,120.5C 215.203,120.058 214.869,122.058 212.5,126.5 Z"/></g>
<g><path style="opacity:1" fill="#2c201a" d="M 224.5,126.5 C 225.506,126.938 225.506,127.604 224.5,128.5C 215.963,132.716 207.963,137.716 200.5,143.5C 199.5,143.5 198.5,143.5 197.5,143.5C 200.06,140.542 203.06,138.042 206.5,136C 212.122,132.023 218.122,128.857 224.5,126.5 Z"/></g>
<g><path style="opacity:1" fill="#27201a" d="M 254.5,124.5 C 254.833,124.5 255.167,124.5 255.5,124.5C 255.5,125.167 255.5,125.833 255.5,126.5C 241.872,129.98 229.205,135.647 217.5,143.5C 216.5,143.5 215.5,143.5 214.5,143.5C 223.612,137.564 233.279,132.564 243.5,128.5C 244.404,127.791 244.737,126.791 244.5,125.5C 248.042,125.813 251.375,125.479 254.5,124.5 Z"/></g>
<g><path style="opacity:1" fill="#79705d" d="M 181.5,119.5 C 182.404,120.209 182.737,121.209 182.5,122.5C 184.199,122.34 185.866,122.506 187.5,123C 186.327,126.11 186.827,126.277 189,123.5C 189.671,124.252 190.504,124.586 191.5,124.5C 189.527,125.806 187.861,127.473 186.5,129.5C 182.155,133.847 178.155,138.514 174.5,143.5C 172.5,143.5 170.5,143.5 168.5,143.5C 172.328,135.173 176.662,127.173 181.5,119.5 Z"/></g>
<g><path style="opacity:1" fill="#5e3522" d="M 255.5,126.5 C 255.5,127.167 255.5,127.833 255.5,128.5C 242.949,131.614 231.282,136.614 220.5,143.5C 219.5,143.5 218.5,143.5 217.5,143.5C 229.205,135.647 241.872,129.98 255.5,126.5 Z"/></g>
<g><path style="opacity:1" fill="#a7aaa1" d="M 158.5,132.5 C 156.178,134.664 153.511,136.331 150.5,137.5C 152.193,134.318 154.859,132.652 158.5,132.5 Z"/></g>
<g><path style="opacity:1" fill="#4f4b44" d="M 164.5,128.5 C 163.787,131.594 162.787,134.594 161.5,137.5C 160.833,137.833 160.167,138.167 159.5,138.5C 159.719,137.325 159.386,136.325 158.5,135.5C 155.659,137.086 152.993,138.92 150.5,141C 148.527,141.495 146.527,141.662 144.5,141.5C 145.507,139.478 147.174,138.145 149.5,137.5C 149.833,137.5 150.167,137.5 150.5,137.5C 153.511,136.331 156.178,134.664 158.5,132.5C 160.147,130.674 162.147,129.34 164.5,128.5 Z"/></g>
<g><path style="opacity:1" fill="#ddd5c6" d="M 213.5,120.5 C 211.78,123.731 209.447,126.564 206.5,129C 200.373,132.96 195.04,137.793 190.5,143.5C 188.167,143.5 185.833,143.5 183.5,143.5C 192.505,134.33 202.005,125.664 212,117.5C 212.232,118.737 212.732,119.737 213.5,120.5 Z"/></g>
<g><path style="opacity:1" fill="#d8ccb4" d="M 255.5,128.5 C 255.5,131.167 255.5,133.833 255.5,136.5C 255.167,136.5 254.833,136.5 254.5,136.5C 250.385,137.51 246.385,138.51 242.5,139.5C 240.809,140.864 239.142,142.197 237.5,143.5C 231.833,143.5 226.167,143.5 220.5,143.5C 231.282,136.614 242.949,131.614 255.5,128.5 Z"/></g>
<g><path style="opacity:1" fill="#2a5877" d="M 164.5,126.5 C 164.5,127.167 164.5,127.833 164.5,128.5C 162.147,129.34 160.147,130.674 158.5,132.5C 154.859,132.652 152.193,134.318 150.5,137.5C 150.167,137.5 149.833,137.5 149.5,137.5C 146.713,136.523 143.713,136.19 140.5,136.5C 135.609,137.01 130.942,138.01 126.5,139.5C 125.5,139.5 124.5,139.5 123.5,139.5C 127.702,136.421 132.368,134.087 137.5,132.5C 139.611,133.742 141.611,133.742 143.5,132.5C 150.616,130.906 157.616,128.906 164.5,126.5 Z"/></g>
<g><path style="opacity:1" fill="#dbd2c0" d="M 186.5,129.5 C 187.458,129.953 188.292,130.619 189,131.5C 190.041,129.689 191.207,129.355 192.5,130.5C 187.792,134.207 183.792,138.54 180.5,143.5C 178.5,143.5 176.5,143.5 174.5,143.5C 178.155,138.514 182.155,133.847 186.5,129.5 Z"/></g>
<g><path style="opacity:1" fill="#ddd4c1" d="M 234.5,111.5 C 233.588,112.738 233.421,114.072 234,115.5C 237.451,118.517 241.451,120.184 246,120.5C 246.708,119.619 247.542,118.953 248.5,118.5C 249.239,118.369 249.906,118.536 250.5,119C 249.62,120.356 249.286,121.856 249.5,123.5C 246.941,123.39 244.608,124.056 242.5,125.5C 243.127,126.417 243.461,127.417 243.5,128.5C 233.279,132.564 223.612,137.564 214.5,143.5C 209.833,143.5 205.167,143.5 200.5,143.5C 207.963,137.716 215.963,132.716 224.5,128.5C 226.394,127.952 228.06,126.952 229.5,125.5C 224.948,123.734 222.948,120.4 223.5,115.5C 224.873,115.657 226.207,115.49 227.5,115C 228.435,110.732 230.769,109.565 234.5,111.5 Z"/></g>
<g><path style="opacity:1" fill="#36342f" d="M 159.5,138.5 C 158.962,140.117 158.629,141.784 158.5,143.5C 153.833,143.5 149.167,143.5 144.5,143.5C 144.5,142.833 144.5,142.167 144.5,141.5C 146.527,141.662 148.527,141.495 150.5,141C 152.993,138.92 155.659,137.086 158.5,135.5C 159.386,136.325 159.719,137.325 159.5,138.5 Z"/></g>
<g><path style="opacity:1" fill="#4e67a7" d="M 123.5,139.5 C 124.5,139.5 125.5,139.5 126.5,139.5C 127.833,139.5 129.167,139.5 130.5,139.5C 130.5,140.5 130.5,141.5 130.5,142.5C 129.209,142.263 128.209,142.596 127.5,143.5C 123.167,143.5 118.833,143.5 114.5,143.5C 117.256,141.796 120.256,140.463 123.5,139.5 Z"/></g>
<g><path style="opacity:1" fill="#85765a" d="M 254.5,136.5 C 250.975,137.94 247.642,139.94 244.5,142.5C 243.707,141.645 244.04,140.811 245.5,140C 244.552,139.517 243.552,139.351 242.5,139.5C 246.385,138.51 250.385,137.51 254.5,136.5 Z"/></g>
<g><path style="opacity:1" fill="#2a386c" d="M 140.5,136.5 C 139.189,139.135 137.522,141.469 135.5,143.5C 132.833,143.5 130.167,143.5 127.5,143.5C 128.209,142.596 129.209,142.263 130.5,142.5C 130.5,141.5 130.5,140.5 130.5,139.5C 129.167,139.5 127.833,139.5 126.5,139.5C 130.942,138.01 135.609,137.01 140.5,136.5 Z"/></g>
<g><path style="opacity:1" fill="#131947" d="M 140.5,136.5 C 143.713,136.19 146.713,136.523 149.5,137.5C 147.174,138.145 145.507,139.478 144.5,141.5C 144.5,142.167 144.5,142.833 144.5,143.5C 141.5,143.5 138.5,143.5 135.5,143.5C 137.522,141.469 139.189,139.135 140.5,136.5 Z"/></g>
<g><path style="opacity:1" fill="#453e30" d="M 254.5,136.5 C 254.833,136.5 255.167,136.5 255.5,136.5C 255.5,138.833 255.5,141.167 255.5,143.5C 249.5,143.5 243.5,143.5 237.5,143.5C 239.142,142.197 240.809,140.864 242.5,139.5C 243.552,139.351 244.552,139.517 245.5,140C 244.04,140.811 243.707,141.645 244.5,142.5C 247.642,139.94 250.975,137.94 254.5,136.5 Z"/></g>
</svg>
