<?xml version="1.0" encoding="UTF-8"?>
<!DOCTYPE svg PUBLIC "-//W3C//DTD SVG 1.1//EN" "http://www.w3.org/Graphics/SVG/1.1/DTD/svg11.dtd">
<svg xmlns="http://www.w3.org/2000/svg" version="1.1" width="256px" height="144px" style="shape-rendering:geometricPrecision; text-rendering:geometricPrecision; image-rendering:optimizeQuality; fill-rule:evenodd; clip-rule:evenodd" xmlns:xlink="http://www.w3.org/1999/xlink">
<g><path style="opacity:1" fill="#d5d7d6" d="M 111.5,-0.5 C 123.833,-0.5 136.167,-0.5 148.5,-0.5C 146.698,0.458201 144.698,1.12487 142.5,1.5C 135.045,1.37233 128.545,3.70567 123,8.5C 122.51,9.79323 122.343,11.1266 122.5,12.5C 119.206,7.87103 115.539,3.53769 111.5,-0.5 Z"/></g>
<g><path style="opacity:1" fill="#5e5964" d="M 185.5,-0.5 C 208.833,-0.5 232.167,-0.5 255.5,-0.5C 255.5,4.5 255.5,9.5 255.5,14.5C 232.169,15.3574 209.169,18.3574 186.5,23.5C 184.801,23.6602 183.134,23.4935 181.5,23C 186.634,20.62 191.967,18.62 197.5,17C 199.425,14.5346 199.425,11.868 197.5,9C 199.077,5.51847 198.077,2.8518 194.5,1C 191.305,0.819481 188.305,0.319481 185.5,-0.5 Z"/></g>
<g><path style="opacity:1" fill="#7f7d8c" d="M 50.5,-0.5 C 52.1667,-0.5 53.8333,-0.5 55.5,-0.5C 54.8811,2.633 53.2144,5.133 50.5,7C 50.6667,7.5 50.8333,8 51,8.5C 51.9653,6.73966 53.132,6.40632 54.5,7.5C 52.3794,10.1627 51.7128,12.996 52.5,16C 49.4494,17.5169 48.7828,19.6836 50.5,22.5C 52.5,21.8333 54.5,21.1667 56.5,20.5C 56.5,22.8333 56.5,25.1667 56.5,27.5C 57.675,27.719 58.675,27.3857 59.5,26.5C 59.7727,22.4049 60.7727,18.7383 62.5,15.5C 62.89,18.7967 63.89,21.7967 65.5,24.5C 63.5,26.1667 61.5,27.8333 59.5,29.5C 57.302,29.8799 55.6354,29.2132 54.5,27.5C 53.646,25.0663 52.646,25.233 51.5,28C 49.735,28.6397 48.0683,28.4731 46.5,27.5C 45.3118,24.9587 43.9784,22.4587 42.5,20C 43.9417,15.5856 45.1084,11.0856 46,6.5C 47.0121,3.7982 48.5121,1.46486 50.5,-0.5 Z"/></g>
<g><path style="opacity:1" fill="#cfcad0" d="M 61.5,-0.5 C 66.5,-0.5 71.5,-0.5 76.5,-0.5C 77.5718,1.83975 79.2385,2.17309 81.5,0.5C 81.8333,1 82.1667,1.5 82.5,2C 79.726,4.61105 77.0593,7.44439 74.5,10.5C 72.6471,11.7596 70.8138,11.7596 69,10.5C 68.0052,7.23005 67.1719,3.89672 66.5,0.5C 65.8333,3.5 65.1667,6.5 64.5,9.5C 63.8165,9.13727 63.1499,8.80393 62.5,8.5C 62.7359,5.39147 62.4025,2.39147 61.5,-0.5 Z"/></g>
<g><path style="opacity:1" fill="#fdc060" d="M 148.5,-0.5 C 151.167,-0.5 153.833,-0.5 156.5,-0.5C 155.055,1.06269 153.389,2.39602 151.5,3.5C 143.868,3.8255 136.534,5.3255 129.5,8C 127.627,9.70383 125.96,11.5372 124.5,13.5C 123.833,13.5 123.5,13.1667 123.5,12.5C 123.297,10.6096 123.963,9.10963 125.5,8C 130.863,4.71736 136.53,2.55069 142.5,1.5C 144.698,1.12487 146.698,0.458201 148.5,-0.5 Z"/></g>
<g><path style="opacity:1" fill="#4d484e" d="M 175.5,-0.5 C 178.833,-0.5 182.167,-0.5 185.5,-0.5C 188.305,0.319481 191.305,0.819481 194.5,1C 198.077,2.8518 199.077,5.51847 197.5,9C 199.425,11.868 199.425,14.5346 197.5,17C 191.967,18.62 186.634,20.62 181.5,23C 183.134,23.4935 184.801,23.6602 186.5,23.5C 182.632,24.9514 178.632,26.2848 174.5,27.5C 175.472,18.25 175.805,8.91669 175.5,-0.5 Z"/></g>
<g><path style="opacity:1" fill="#918d9b" d="M 55.5,-0.5 C 57.5,-0.5 59.5,-0.5 61.5,-0.5C 62.4025,2.39147 62.7359,5.39147 62.5,8.5C 62.5,10.8333 62.5,13.1667 62.5,15.5C 60.7727,18.7383 59.7727,22.4049 59.5,26.5C 58.675,27.3857 57.675,27.719 56.5,27.5C 56.5,25.1667 56.5,22.8333 56.5,20.5C 54.5,21.1667 52.5,21.8333 50.5,22.5C 48.7828,19.6836 49.4494,17.5169 52.5,16C 51.7128,12.996 52.3794,10.1627 54.5,7.5C 53.132,6.40632 51.9653,6.73966 51,8.5C 50.8333,8 50.6667,7.5 50.5,7C 53.2144,5.133 54.8811,2.633 55.5,-0.5 Z"/></g>
<g><path style="opacity:1" fill="#fddaa5" d="M 142.5,1.5 C 136.53,2.55069 130.863,4.71736 125.5,8C 123.963,9.10963 123.297,10.6096 123.5,12.5C 123.167,12.5 122.833,12.5 122.5,12.5C 122.343,11.1266 122.51,9.79323 123,8.5C 128.545,3.70567 135.045,1.37233 142.5,1.5 Z"/></g>
<g><path style="opacity:1" fill="#d39140" d="M 151.5,3.5 C 146.68,5.54369 141.68,7.37703 136.5,9C 132.689,12.1496 130.023,15.983 128.5,20.5C 127.207,18.1917 125.874,15.8583 124.5,13.5C 125.96,11.5372 127.627,9.70383 129.5,8C 136.534,5.3255 143.868,3.8255 151.5,3.5 Z"/></g>
<g><path style="opacity:1" fill="#a69ea8" d="M 76.5,-0.5 C 82.1667,-0.5 87.8333,-0.5 93.5,-0.5C 93.8769,1.25797 94.5435,2.92464 95.5,4.5C 94.5037,6.81629 92.8371,8.48296 90.5,9.5C 90.7093,10.086 91.0426,10.586 91.5,11C 88.8391,12.4832 87.1725,14.6499 86.5,17.5C 86.5,18.1667 86.1667,18.5 85.5,18.5C 83.7131,19.8174 82.0464,19.484 80.5,17.5C 79.6054,19.3448 80.2721,20.6782 82.5,21.5C 83.9972,22.3058 85.6639,22.9724 87.5,23.5C 89.1112,22.6798 89.7778,21.3464 89.5,19.5C 90.8333,19.5 92.1667,19.5 93.5,19.5C 93.5,20.8333 93.5,22.1667 93.5,23.5C 91.302,23.1201 89.6354,23.7868 88.5,25.5C 85.4836,26.0587 82.4836,26.7254 79.5,27.5C 74.9228,26.0706 70.2562,25.0706 65.5,24.5C 63.89,21.7967 62.89,18.7967 62.5,15.5C 62.5,13.1667 62.5,10.8333 62.5,8.5C 63.1499,8.80393 63.8165,9.13727 64.5,9.5C 65.1667,6.5 65.8333,3.5 66.5,0.5C 67.1719,3.89672 68.0052,7.23005 69,10.5C 70.8138,11.7596 72.6471,11.7596 74.5,10.5C 77.0593,7.44439 79.726,4.61105 82.5,2C 82.1667,1.5 81.8333,1 81.5,0.5C 79.2385,2.17309 77.5718,1.83975 76.5,-0.5 Z"/></g>
<g><path style="opacity:1" fill="#7c7785" d="M 93.5,-0.5 C 98.8333,-0.5 104.167,-0.5 109.5,-0.5C 111.943,3.54733 114.276,7.714 116.5,12C 116.333,12.5 116.167,13 116,13.5C 114.759,11.5794 113.259,11.246 111.5,12.5C 113.194,14.1937 114.86,15.8604 116.5,17.5C 110.226,19.5723 110.559,21.739 117.5,24C 116.584,24.2784 115.918,24.7784 115.5,25.5C 110.518,24.9466 105.518,24.6133 100.5,24.5C 100.829,21.7718 100.163,19.4385 98.5,17.5C 97.8106,16.2264 96.9772,16.2264 96,17.5C 95.082,21.2797 94.2487,24.9464 93.5,28.5C 93.762,27.0222 93.4287,25.6888 92.5,24.5C 91.2638,25.2458 89.9305,25.5792 88.5,25.5C 89.6354,23.7868 91.302,23.1201 93.5,23.5C 93.5,22.1667 93.5,20.8333 93.5,19.5C 92.1667,19.5 90.8333,19.5 89.5,19.5C 89.7778,21.3464 89.1112,22.6798 87.5,23.5C 85.6639,22.9724 83.9972,22.3058 82.5,21.5C 85.0558,21.8678 87.0558,21.0345 88.5,19C 88.1639,17.9701 87.4972,17.4701 86.5,17.5C 87.1725,14.6499 88.8391,12.4832 91.5,11C 91.0426,10.586 90.7093,10.086 90.5,9.5C 92.8371,8.48296 94.5037,6.81629 95.5,4.5C 94.5435,2.92464 93.8769,1.25797 93.5,-0.5 Z"/></g>
<g><path style="opacity:1" fill="#e3e0e5" d="M 85.5,18.5 C 77.9103,16.1661 77.9103,14.8327 85.5,14.5C 85.5,15.8333 85.5,17.1667 85.5,18.5 Z"/></g>
<g><path style="opacity:1" fill="#6d6a79" d="M 169.5,-0.5 C 171.5,-0.5 173.5,-0.5 175.5,-0.5C 175.805,8.91669 175.472,18.25 174.5,27.5C 173.18,28.9418 171.514,29.6085 169.5,29.5C 169.5,28.5 169.5,27.5 169.5,26.5C 171.614,25.6398 172.78,23.9732 173,21.5C 173.376,14.4823 173.876,7.48232 174.5,0.5C 173.178,0.330034 172.011,0.663368 171,1.5C 170.088,6.46364 169.588,11.4636 169.5,16.5C 168.833,16.5 168.167,16.5 167.5,16.5C 168.33,10.895 168.996,5.22836 169.5,-0.5 Z"/></g>
<g><path style="opacity:1" fill="#555057" d="M 109.5,-0.5 C 110.167,-0.5 110.833,-0.5 111.5,-0.5C 115.539,3.53769 119.206,7.87103 122.5,12.5C 122.833,12.5 123.167,12.5 123.5,12.5C 123.5,13.1667 123.833,13.5 124.5,13.5C 125.874,15.8583 127.207,18.1917 128.5,20.5C 128.989,21.9952 129.655,23.3285 130.5,24.5C 130.557,25.609 130.89,26.609 131.5,27.5C 133.581,31.1198 133.915,34.7865 132.5,38.5C 131.525,36.8073 130.192,35.3073 128.5,34C 123.777,31.6468 119.444,28.8135 115.5,25.5C 115.918,24.7784 116.584,24.2784 117.5,24C 110.559,21.739 110.226,19.5723 116.5,17.5C 114.86,15.8604 113.194,14.1937 111.5,12.5C 113.259,11.246 114.759,11.5794 116,13.5C 116.167,13 116.333,12.5 116.5,12C 114.276,7.714 111.943,3.54733 109.5,-0.5 Z"/></g>
<g><path style="opacity:1" fill="#37302f" d="M 85.5,18.5 C 86.1667,18.5 86.5,18.1667 86.5,17.5C 87.4972,17.4701 88.1639,17.9701 88.5,19C 87.0558,21.0345 85.0558,21.8678 82.5,21.5C 80.2721,20.6782 79.6054,19.3448 80.5,17.5C 82.0464,19.484 83.7131,19.8174 85.5,18.5 Z"/></g>
<g><path style="opacity:1" fill="#afaab7" d="M 255.5,15.5 C 255.5,16.8333 255.5,18.1667 255.5,19.5C 249.824,19.3339 244.157,19.5006 238.5,20C 235.545,21.4482 233.545,23.6149 232.5,26.5C 239.167,29.314 246.167,30.1474 253.5,29C 254.044,28.2828 254.711,27.7828 255.5,27.5C 255.5,30.1667 255.5,32.8333 255.5,35.5C 245.084,36.7727 235.417,34.7727 226.5,29.5C 225.614,28.675 225.281,27.675 225.5,26.5C 225.5,25.5 225.5,24.5 225.5,23.5C 228.232,18.5422 232.565,16.0422 238.5,16C 244.157,15.5006 249.824,15.3339 255.5,15.5 Z"/></g>
<g><path style="opacity:1" fill="#312726" d="M 255.5,14.5 C 255.5,14.8333 255.5,15.1667 255.5,15.5C 249.824,15.3339 244.157,15.5006 238.5,16C 232.565,16.0422 228.232,18.5422 225.5,23.5C 224.076,21.2855 221.909,20.2855 219,20.5C 212.417,22.3143 205.917,23.981 199.5,25.5C 198.833,25.5 198.167,25.5 197.5,25.5C 196.054,24.3871 194.387,24.2204 192.5,25C 187.41,26.3775 182.41,28.0442 177.5,30C 175.695,30.972 174.028,32.1387 172.5,33.5C 171.817,33.1373 171.15,32.8039 170.5,32.5C 169.89,31.609 169.557,30.609 169.5,29.5C 171.514,29.6085 173.18,28.9418 174.5,27.5C 178.632,26.2848 182.632,24.9514 186.5,23.5C 209.169,18.3574 232.169,15.3574 255.5,14.5 Z"/></g>
<g><path style="opacity:1" fill="#772705" d="M 156.5,-0.5 C 160.833,-0.5 165.167,-0.5 169.5,-0.5C 168.996,5.22836 168.33,10.895 167.5,16.5C 162.14,22.5271 156.473,28.1937 150.5,33.5C 150.157,31.7748 149.157,31.2748 147.5,32C 145.957,33.8783 144.124,35.3783 142,36.5C 141.833,35.6667 141.667,34.8333 141.5,34C 143.447,31.8707 144.781,29.3707 145.5,26.5C 145.5,21.8333 145.5,17.1667 145.5,12.5C 142.15,12.335 138.817,12.5017 135.5,13C 135.043,13.414 134.709,13.914 134.5,14.5C 135.833,16.1667 137.167,17.8333 138.5,19.5C 135.478,20.6735 132.811,22.3401 130.5,24.5C 129.655,23.3285 128.989,21.9952 128.5,20.5C 130.023,15.983 132.689,12.1496 136.5,9C 141.68,7.37703 146.68,5.54369 151.5,3.5C 153.389,2.39602 155.055,1.06269 156.5,-0.5 Z"/></g>
<g><path style="opacity:1" fill="#3d2114" d="M 225.5,23.5 C 225.5,24.5 225.5,25.5 225.5,26.5C 224.566,27.5676 224.232,28.901 224.5,30.5C 221.478,34.174 217.478,36.0073 212.5,36C 211.687,37.3139 210.687,38.4805 209.5,39.5C 210,40.8805 211,41.5472 212.5,41.5C 214.471,41.0035 216.471,40.6702 218.5,40.5C 220.333,40.5854 221.666,41.2521 222.5,42.5C 222.918,43.2216 223.584,43.7216 224.5,44C 219.316,44.1739 214.316,44.6739 209.5,45.5C 207.698,46.4582 205.698,47.1249 203.5,47.5C 203.062,47.5654 202.728,47.3988 202.5,47C 211.666,40.0941 211.332,34.2608 201.5,29.5C 201.771,27.6203 201.104,26.287 199.5,25.5C 205.917,23.981 212.417,22.3143 219,20.5C 221.909,20.2855 224.076,21.2855 225.5,23.5 Z"/></g>
<g><path style="opacity:1" fill="#1f2a2b" d="M 255.5,19.5 C 255.5,22.1667 255.5,24.8333 255.5,27.5C 254.711,27.7828 254.044,28.2828 253.5,29C 246.167,30.1474 239.167,29.314 232.5,26.5C 233.545,23.6149 235.545,21.4482 238.5,20C 244.157,19.5006 249.824,19.3339 255.5,19.5 Z"/></g>
<g><path style="opacity:1" fill="#889ab0" d="M 169.5,26.5 C 169.5,23.1667 169.5,19.8333 169.5,16.5C 169.588,11.4636 170.088,6.46364 171,1.5C 172.011,0.663368 173.178,0.330034 174.5,0.5C 173.876,7.48232 173.376,14.4823 173,21.5C 172.78,23.9732 171.614,25.6398 169.5,26.5 Z"/></g>
<g><path style="opacity:1" fill="#a0b3bb" d="M -0.5,-0.5 C 9.5,-0.5 19.5,-0.5 29.5,-0.5C 30.3029,0.423175 30.4696,1.42317 30,2.5C 29.6667,2.16667 29.3333,1.83333 29,1.5C 25.3998,5.98663 21.7331,10.32 18,14.5C 19.0943,16.5938 19.4277,18.9271 19,21.5C 16.5104,23.8044 14.6771,26.4711 13.5,29.5C 8.83348,31.4989 4.16681,33.4989 -0.5,35.5C -0.5,23.5 -0.5,11.5 -0.5,-0.5 Z"/></g>
<g><path style="opacity:1" fill="#6c6c7b" d="M 43.5,-0.5 C 45.8333,-0.5 48.1667,-0.5 50.5,-0.5C 48.5121,1.46486 47.0121,3.7982 46,6.5C 45.1084,11.0856 43.9417,15.5856 42.5,20C 43.9784,22.4587 45.3118,24.9587 46.5,27.5C 46.484,29.4841 47.484,30.4841 49.5,30.5C 51.4225,29.9076 53.0892,28.9076 54.5,27.5C 55.6354,29.2132 57.302,29.8799 59.5,29.5C 57.6645,32.1676 55.3312,34.3343 52.5,36C 47.8033,37.5055 43.1366,39.0055 38.5,40.5C 37.1963,30.8402 37.1963,21.1736 38.5,11.5C 39.2497,7.09482 40.9164,3.09482 43.5,-0.5 Z"/></g>
<g><path style="opacity:1" fill="#393026" d="M 65.5,24.5 C 70.2562,25.0706 74.9228,26.0706 79.5,27.5C 82.4836,26.7254 85.4836,26.0587 88.5,25.5C 89.9305,25.5792 91.2638,25.2458 92.5,24.5C 93.4287,25.6888 93.762,27.0222 93.5,28.5C 93.5,28.8333 93.5,29.1667 93.5,29.5C 90.0385,29.5664 86.7051,30.2331 83.5,31.5C 78.3014,29.6889 72.968,28.8556 67.5,29C 63.8683,31.6298 60.535,34.6298 57.5,38C 53.8084,39.9422 50.1417,41.7755 46.5,43.5C 42.6286,43.815 38.9619,43.4816 35.5,42.5C 36.5,41.8333 37.5,41.1667 38.5,40.5C 43.1366,39.0055 47.8033,37.5055 52.5,36C 55.3312,34.3343 57.6645,32.1676 59.5,29.5C 61.5,27.8333 63.5,26.1667 65.5,24.5 Z"/></g>
<g><path style="opacity:1" fill="#3a3327" d="M 100.5,24.5 C 105.518,24.6133 110.518,24.9466 115.5,25.5C 119.444,28.8135 123.777,31.6468 128.5,34C 130.192,35.3073 131.525,36.8073 132.5,38.5C 131.421,40.543 129.754,41.8763 127.5,42.5C 127.167,42.5 126.833,42.5 126.5,42.5C 125.758,40.5742 124.758,38.7409 123.5,37C 119.678,34.6699 116.012,32.1699 112.5,29.5C 111.5,29.5 110.5,29.5 109.5,29.5C 106.946,28.612 104.279,28.2786 101.5,28.5C 100.766,27.2921 100.433,25.9587 100.5,24.5 Z"/></g>
<g><path style="opacity:1" fill="#e2d3c9" d="M 98.5,17.5 C 97.1273,23.6663 95.4606,29.6663 93.5,35.5C 93.5,33.5 93.5,31.5 93.5,29.5C 93.5,29.1667 93.5,28.8333 93.5,28.5C 94.2487,24.9464 95.082,21.2797 96,17.5C 96.9772,16.2264 97.8106,16.2264 98.5,17.5 Z"/></g>
<g><path style="opacity:1" fill="#b76b33" d="M 145.5,26.5 C 143.983,26.5106 142.816,27.1772 142,28.5C 140.021,31.9741 137.855,35.3074 135.5,38.5C 135.167,37.5 134.833,36.5 134.5,35.5C 135.664,32.9328 136.33,30.2662 136.5,27.5C 134.833,27.5 133.167,27.5 131.5,27.5C 130.89,26.609 130.557,25.609 130.5,24.5C 132.811,22.3401 135.478,20.6735 138.5,19.5C 137.167,17.8333 135.833,16.1667 134.5,14.5C 134.709,13.914 135.043,13.414 135.5,13C 138.817,12.5017 142.15,12.335 145.5,12.5C 145.5,17.1667 145.5,21.8333 145.5,26.5 Z"/></g>
<g><path style="opacity:1" fill="#40362e" d="M 54.5,27.5 C 53.0892,28.9076 51.4225,29.9076 49.5,30.5C 47.484,30.4841 46.484,29.4841 46.5,27.5C 48.0683,28.4731 49.735,28.6397 51.5,28C 52.646,25.233 53.646,25.0663 54.5,27.5 Z"/></g>
<g><path style="opacity:1" fill="#7a3c08" d="M 101.5,28.5 C 104.279,28.2786 106.946,28.612 109.5,29.5C 107.511,32.1658 104.844,33.8325 101.5,34.5C 101.5,32.5 101.5,30.5 101.5,28.5 Z"/></g>
<g><path style="opacity:1" fill="#1d292a" d="M 191.5,32.5 C 187.167,35.1667 182.833,37.8333 178.5,40.5C 175.302,41.7868 171.969,42.4535 168.5,42.5C 168.33,41.1779 168.663,40.0113 169.5,39C 175.684,33.9078 182.684,30.4078 190.5,28.5C 191.5,28.8333 192.5,29.1667 193.5,29.5C 192.807,30.5178 192.141,31.5178 191.5,32.5 Z"/></g>
<g><path style="opacity:1" fill="#d5e7f0" d="M 40.5,-0.5 C 41.5,-0.5 42.5,-0.5 43.5,-0.5C 40.9164,3.09482 39.2497,7.09482 38.5,11.5C 36.6197,13.7554 35.6197,16.4221 35.5,19.5C 33.9216,24.5826 33.2549,29.916 33.5,35.5C 32.325,35.281 31.325,35.6143 30.5,36.5C 29.9752,38.9879 29.1419,41.3213 28,43.5C 27.5172,42.552 27.3505,41.552 27.5,40.5C 29.8194,26.1946 34.1528,12.5279 40.5,-0.5 Z"/></g>
<g><path style="opacity:1" fill="#3f342e" d="M 225.5,26.5 C 225.281,27.675 225.614,28.675 226.5,29.5C 235.417,34.7727 245.084,36.7727 255.5,35.5C 255.5,37.1667 255.5,38.8333 255.5,40.5C 245.293,41.3307 235.627,39.6641 226.5,35.5C 225.058,34.1805 224.392,32.5138 224.5,30.5C 224.232,28.901 224.566,27.5676 225.5,26.5 Z"/></g>
<g><path style="opacity:1" fill="#b6c1c5" d="M 29.5,-0.5 C 33.1667,-0.5 36.8333,-0.5 40.5,-0.5C 34.1528,12.5279 29.8194,26.1946 27.5,40.5C 25.9897,39.1639 24.3231,37.9973 22.5,37C 22.8333,36.6667 23.1667,36.3333 23.5,36C 21.9278,33.962 20.9278,31.6287 20.5,29C 17.2969,27.3218 15.6303,28.4885 15.5,32.5C 10.1667,32.8333 10.1667,33.1667 15.5,33.5C 14.583,40.533 10.9163,45.3663 4.5,48C 3.28891,49.1131 3.28891,50.2798 4.5,51.5C 2.68116,52.3199 1.0145,53.3199 -0.5,54.5C -0.5,48.1667 -0.5,41.8333 -0.5,35.5C 4.16681,33.4989 8.83348,31.4989 13.5,29.5C 14.6771,26.4711 16.5104,23.8044 19,21.5C 19.4277,18.9271 19.0943,16.5938 18,14.5C 21.7331,10.32 25.3998,5.98663 29,1.5C 29.3333,1.83333 29.6667,2.16667 30,2.5C 30.4696,1.42317 30.3029,0.423175 29.5,-0.5 Z"/></g>
<g><path style="opacity:1" fill="#793a06" d="M 112.5,29.5 C 116.012,32.1699 119.678,34.6699 123.5,37C 124.758,38.7409 125.758,40.5742 126.5,42.5C 124.801,42.4729 123.467,41.8062 122.5,40.5C 121.952,37.9162 120.285,36.9162 117.5,37.5C 116.5,35.8333 115.167,34.5 113.5,33.5C 112.5,33.5 111.5,33.5 110.5,33.5C 110.733,31.9382 111.4,30.6049 112.5,29.5 Z"/></g>
<g><path style="opacity:1" fill="#828391" d="M 197.5,25.5 C 200.147,27.8956 200.147,30.2289 197.5,32.5C 195.653,31.4271 193.653,31.4271 191.5,32.5C 192.141,31.5178 192.807,30.5178 193.5,29.5C 192.5,29.1667 191.5,28.8333 190.5,28.5C 182.684,30.4078 175.684,33.9078 169.5,39C 168.663,40.0113 168.33,41.1779 168.5,42.5C 171.969,42.4535 175.302,41.7868 178.5,40.5C 177.878,42.335 176.544,43.5017 174.5,44C 171.518,44.498 168.518,44.6646 165.5,44.5C 165.253,42.1417 165.919,40.1417 167.5,38.5C 169.385,36.9468 170.385,34.9468 170.5,32.5C 171.15,32.8039 171.817,33.1373 172.5,33.5C 174.028,32.1387 175.695,30.972 177.5,30C 182.41,28.0442 187.41,26.3775 192.5,25C 194.387,24.2204 196.054,24.3871 197.5,25.5 Z"/></g>
<g><path style="opacity:1" fill="#400a05" d="M 109.5,29.5 C 110.5,29.5 111.5,29.5 112.5,29.5C 111.4,30.6049 110.733,31.9382 110.5,33.5C 107.86,36.8062 104.86,39.8062 101.5,42.5C 101.167,42.5 100.833,42.5 100.5,42.5C 100.279,39.7212 100.612,37.0545 101.5,34.5C 104.844,33.8325 107.511,32.1658 109.5,29.5 Z"/></g>
<g><path style="opacity:1" fill="#818998" d="M 38.5,11.5 C 37.1963,21.1736 37.1963,30.8402 38.5,40.5C 37.5,41.1667 36.5,41.8333 35.5,42.5C 34.7611,42.631 34.0944,42.4643 33.5,42C 34.4061,40.3005 34.7394,38.4672 34.5,36.5C 34.8642,31.0988 35.1975,25.4322 35.5,19.5C 35.6197,16.4221 36.6197,13.7554 38.5,11.5 Z"/></g>
<g><path style="opacity:1" fill="#a78b70" d="M 98.5,17.5 C 100.163,19.4385 100.829,21.7718 100.5,24.5C 100.433,25.9587 100.766,27.2921 101.5,28.5C 101.5,30.5 101.5,32.5 101.5,34.5C 100.612,37.0545 100.279,39.7212 100.5,42.5C 98.7629,39.992 97.9296,36.992 98,33.5C 95.6824,36.3312 94.349,39.6645 94,43.5C 93.5065,41.8659 93.3398,40.1992 93.5,38.5C 93.5,38.1667 93.5,37.8333 93.5,37.5C 93.5,36.8333 93.5,36.1667 93.5,35.5C 95.4606,29.6663 97.1273,23.6663 98.5,17.5 Z"/></g>
<g><path style="opacity:1" fill="#40352f" d="M 197.5,25.5 C 198.167,25.5 198.833,25.5 199.5,25.5C 201.104,26.287 201.771,27.6203 201.5,29.5C 202.15,31.4352 202.483,33.4352 202.5,35.5C 194.995,42.4164 186.662,48.083 177.5,52.5C 175.784,52.6287 174.117,52.962 172.5,53.5C 169.014,53.3356 166.681,51.669 165.5,48.5C 178.006,46.9138 188.672,41.5805 197.5,32.5C 200.147,30.2289 200.147,27.8956 197.5,25.5 Z"/></g>
<g><path style="opacity:1" fill="#92654e" d="M 226.5,35.5 C 235.627,39.6641 245.293,41.3307 255.5,40.5C 255.5,42.5 255.5,44.5 255.5,46.5C 248.183,45.8822 240.849,45.5488 233.5,45.5C 236.305,44.6805 239.305,44.1805 242.5,44C 238.886,43.0551 235.219,42.3884 231.5,42C 229.133,40.1552 226.467,38.9886 223.5,38.5C 222.782,36.8632 222.616,35.1966 223,33.5C 223.816,34.8228 224.983,35.4894 226.5,35.5 Z"/></g>
<g><path style="opacity:1" fill="#624d4a" d="M 224.5,30.5 C 224.392,32.5138 225.058,34.1805 226.5,35.5C 224.983,35.4894 223.816,34.8228 223,33.5C 222.616,35.1966 222.782,36.8632 223.5,38.5C 224.028,39.7206 224.695,40.8873 225.5,42C 224.552,42.4828 223.552,42.6495 222.5,42.5C 221.666,41.2521 220.333,40.5854 218.5,40.5C 216.471,40.6702 214.471,41.0035 212.5,41.5C 211,41.5472 210,40.8805 209.5,39.5C 210.687,38.4805 211.687,37.3139 212.5,36C 217.478,36.0073 221.478,34.174 224.5,30.5 Z"/></g>
<g><path style="opacity:1" fill="#c2c1bf" d="M 35.5,19.5 C 35.1975,25.4322 34.8642,31.0988 34.5,36.5C 33.5,36.5 32.5,36.5 31.5,36.5C 30.4589,39.5422 30.4589,42.5422 31.5,45.5C 28.4467,45.1107 25.78,45.7773 23.5,47.5C 22.8333,47.5 22.5,47.8333 22.5,48.5C 20.5853,48.2155 18.9187,48.5489 17.5,49.5C 17.1667,49.5 16.8333,49.5 16.5,49.5C 11.862,51.6425 10.0287,55.3091 11,60.5C 12.129,62.1412 13.629,63.1412 15.5,63.5C 15.5299,64.4972 15.0299,65.1639 14,65.5C 12.4411,64.9706 10.9411,64.304 9.5,63.5C 8.70245,63.9569 8.36912,64.6236 8.5,65.5C 7.83333,65.5 7.16667,65.5 6.5,65.5C 4.57389,63.7073 2.24056,62.7073 -0.5,62.5C -0.5,59.8333 -0.5,57.1667 -0.5,54.5C 1.0145,53.3199 2.68116,52.3199 4.5,51.5C 3.28891,50.2798 3.28891,49.1131 4.5,48C 10.9163,45.3663 14.583,40.533 15.5,33.5C 10.1667,33.1667 10.1667,32.8333 15.5,32.5C 15.6303,28.4885 17.2969,27.3218 20.5,29C 20.9278,31.6287 21.9278,33.962 23.5,36C 23.1667,36.3333 22.8333,36.6667 22.5,37C 24.3231,37.9973 25.9897,39.1639 27.5,40.5C 27.3505,41.552 27.5172,42.552 28,43.5C 29.1419,41.3213 29.9752,38.9879 30.5,36.5C 31.325,35.6143 32.325,35.281 33.5,35.5C 33.2549,29.916 33.9216,24.5826 35.5,19.5 Z"/></g>
<g><path style="opacity:1" fill="#793909" d="M 93.5,29.5 C 93.5,31.5 93.5,33.5 93.5,35.5C 93.5,36.1667 93.5,36.8333 93.5,37.5C 92.0609,36.4908 90.7276,36.8241 89.5,38.5C 89.8457,39.6956 90.3457,39.6956 91,38.5C 91.7891,40.7116 91.6225,42.7116 90.5,44.5C 90.762,43.0222 90.4287,41.6888 89.5,40.5C 85.0458,42.648 80.7125,44.9814 76.5,47.5C 76.1667,47.5 75.8333,47.5 75.5,47.5C 76.3186,45.2278 76.9853,42.8945 77.5,40.5C 77.8333,40.5 78.1667,40.5 78.5,40.5C 78.0941,42.1092 78.0941,43.4425 78.5,44.5C 81.7511,42.625 84.9177,40.625 88,38.5C 88.5003,35.1621 87.0003,33.4954 83.5,33.5C 81.5648,32.8505 79.5648,32.5172 77.5,32.5C 71.3063,29.0577 66.3063,30.391 62.5,36.5C 61.8333,36.5 61.5,36.8333 61.5,37.5C 60.8386,38.7175 60.1719,40.0508 59.5,41.5C 57.0592,42.709 55.0592,44.3757 53.5,46.5C 51.8828,45.962 50.2161,45.6287 48.5,45.5C 48.1667,44.5 47.5,43.8333 46.5,43.5C 50.1417,41.7755 53.8084,39.9422 57.5,38C 60.535,34.6298 63.8683,31.6298 67.5,29C 72.968,28.8556 78.3014,29.6889 83.5,31.5C 86.7051,30.2331 90.0385,29.5664 93.5,29.5 Z"/></g>
<g><path style="opacity:1" fill="#e5c299" d="M 83.5,33.5 C 87.0003,33.4954 88.5003,35.1621 88,38.5C 84.9177,40.625 81.7511,42.625 78.5,44.5C 78.0941,43.4425 78.0941,42.1092 78.5,40.5C 80.3462,38.2948 82.0128,35.9614 83.5,33.5 Z"/></g>
<g><path style="opacity:1" fill="#e99454" d="M 77.5,32.5 C 77.3718,34.0898 76.7051,35.4231 75.5,36.5C 74.2322,35.5721 72.8989,35.4054 71.5,36C 70.3345,39.6848 68.5012,40.1848 66,37.5C 64.078,39.1053 62.9114,38.772 62.5,36.5C 66.3063,30.391 71.3063,29.0577 77.5,32.5 Z"/></g>
<g><path style="opacity:1" fill="#8a4218" d="M 145.5,26.5 C 144.781,29.3707 143.447,31.8707 141.5,34C 141.667,34.8333 141.833,35.6667 142,36.5C 144.124,35.3783 145.957,33.8783 147.5,32C 149.157,31.2748 150.157,31.7748 150.5,33.5C 148.053,37.7366 144.719,41.07 140.5,43.5C 140.683,37.6836 139.35,37.1836 136.5,42C 135.007,43.3681 133.507,43.5348 132,42.5C 130.36,44.579 129.194,46.9124 128.5,49.5C 128.833,49.8333 129.167,50.1667 129.5,50.5C 131.45,49.6279 133.45,48.9612 135.5,48.5C 133.505,50.3043 131.838,52.3043 130.5,54.5C 129.272,53.6935 128.272,52.6935 127.5,51.5C 127.5,51.1667 127.5,50.8333 127.5,50.5C 126.791,49.596 125.791,49.2627 124.5,49.5C 124.15,46.5466 125.15,44.2133 127.5,42.5C 129.754,41.8763 131.421,40.543 132.5,38.5C 133.915,34.7865 133.581,31.1198 131.5,27.5C 133.167,27.5 134.833,27.5 136.5,27.5C 136.33,30.2662 135.664,32.9328 134.5,35.5C 134.833,36.5 135.167,37.5 135.5,38.5C 137.855,35.3074 140.021,31.9741 142,28.5C 142.816,27.1772 143.983,26.5106 145.5,26.5 Z"/></g>
<g><path style="opacity:1" fill="#8e5935" d="M 61.5,37.5 C 61.366,39.2915 61.6993,40.9582 62.5,42.5C 63.1098,43.391 63.4431,44.391 63.5,45.5C 62.5354,46.7211 62.702,48.0544 64,49.5C 65.1667,50.6667 66.3333,51.8333 67.5,53C 66.1667,53.3333 64.8333,53.6667 63.5,54C 66.0512,54.0023 68.0512,54.8356 69.5,56.5C 67.1998,58.2018 64.5331,58.8685 61.5,58.5C 61.7373,57.209 61.404,56.209 60.5,55.5C 59.8333,54.8333 59.1667,54.1667 58.5,53.5C 58.9382,53.5654 59.2716,53.3988 59.5,53C 58.9341,52.0053 58.2674,51.172 57.5,50.5C 56.4726,48.8058 55.1392,47.4725 53.5,46.5C 55.0592,44.3757 57.0592,42.709 59.5,41.5C 60.1719,40.0508 60.8386,38.7175 61.5,37.5 Z"/></g>
<g><path style="opacity:1" fill="#cfc1ae" d="M 167.5,16.5 C 168.167,16.5 168.833,16.5 169.5,16.5C 169.5,19.8333 169.5,23.1667 169.5,26.5C 169.5,27.5 169.5,28.5 169.5,29.5C 169.557,30.609 169.89,31.609 170.5,32.5C 170.385,34.9468 169.385,36.9468 167.5,38.5C 164.8,39.1998 163.133,40.8664 162.5,43.5C 161.71,44.6085 161.21,45.9419 161,47.5C 158.417,48.2058 156.25,49.5391 154.5,51.5C 151.291,56.3303 149.625,61.6636 149.5,67.5C 148.833,67.5 148.167,67.5 147.5,67.5C 145.31,62.44 142.643,57.7734 139.5,53.5C 136.833,53.8333 134.167,54.1667 131.5,54.5C 131.167,54.5 130.833,54.5 130.5,54.5C 131.838,52.3043 133.505,50.3043 135.5,48.5C 137.5,47.1667 139.167,45.5 140.5,43.5C 144.719,41.07 148.053,37.7366 150.5,33.5C 156.473,28.1937 162.14,22.5271 167.5,16.5 Z"/></g>
<g><path style="opacity:1" fill="#aa6126" d="M 140.5,43.5 C 139.167,45.5 137.5,47.1667 135.5,48.5C 133.45,48.9612 131.45,49.6279 129.5,50.5C 129.167,50.1667 128.833,49.8333 128.5,49.5C 129.194,46.9124 130.36,44.579 132,42.5C 133.507,43.5348 135.007,43.3681 136.5,42C 139.35,37.1836 140.683,37.6836 140.5,43.5 Z"/></g>
<g><path style="opacity:1" fill="#856243" d="M 100.5,42.5 C 100.833,42.5 101.167,42.5 101.5,42.5C 99.0174,45.7414 95.6841,47.4081 91.5,47.5C 92.0885,44.3896 92.7552,41.3896 93.5,38.5C 93.3398,40.1992 93.5065,41.8659 94,43.5C 94.349,39.6645 95.6824,36.3312 98,33.5C 97.9296,36.992 98.7629,39.992 100.5,42.5 Z"/></g>
<g><path style="opacity:1" fill="#6d4a35" d="M 223.5,38.5 C 226.467,38.9886 229.133,40.1552 231.5,42C 235.219,42.3884 238.886,43.0551 242.5,44C 239.305,44.1805 236.305,44.6805 233.5,45.5C 233.5,45.8333 233.5,46.1667 233.5,46.5C 233.167,46.5 232.833,46.5 232.5,46.5C 224.858,45.7368 217.191,45.4035 209.5,45.5C 214.316,44.6739 219.316,44.1739 224.5,44C 223.584,43.7216 222.918,43.2216 222.5,42.5C 223.552,42.6495 224.552,42.4828 225.5,42C 224.695,40.8873 224.028,39.7206 223.5,38.5 Z"/></g>
<g><path style="opacity:1" fill="#695155" d="M 34.5,36.5 C 34.7394,38.4672 34.4061,40.3005 33.5,42C 34.0944,42.4643 34.7611,42.631 35.5,42.5C 38.9619,43.4816 42.6286,43.815 46.5,43.5C 47.5,43.8333 48.1667,44.5 48.5,45.5C 42.8333,45.5 37.1667,45.5 31.5,45.5C 30.4589,42.5422 30.4589,39.5422 31.5,36.5C 32.5,36.5 33.5,36.5 34.5,36.5 Z"/></g>
<g><path style="opacity:1" fill="#c66f39" d="M 77.5,32.5 C 79.5648,32.5172 81.5648,32.8505 83.5,33.5C 82.0128,35.9614 80.3462,38.2948 78.5,40.5C 78.1667,40.5 77.8333,40.5 77.5,40.5C 76.2794,41.0283 75.1127,41.695 74,42.5C 73.5883,44.9969 72.4216,46.9969 70.5,48.5C 68.3854,45.7129 65.7188,43.7129 62.5,42.5C 61.6993,40.9582 61.366,39.2915 61.5,37.5C 61.5,36.8333 61.8333,36.5 62.5,36.5C 62.9114,38.772 64.078,39.1053 66,37.5C 68.5012,40.1848 70.3345,39.6848 71.5,36C 72.8989,35.4054 74.2322,35.5721 75.5,36.5C 76.7051,35.4231 77.3718,34.0898 77.5,32.5 Z"/></g>
<g><path style="opacity:1" fill="#cb8956" d="M 110.5,33.5 C 111.5,33.5 112.5,33.5 113.5,33.5C 109.796,39.391 105.463,44.891 100.5,50C 96.2636,50.799 92.597,52.6323 89.5,55.5C 89.6243,53.4184 90.6243,51.9184 92.5,51C 90.765,50.3486 89.0983,50.5153 87.5,51.5C 86.537,51.0302 86.537,50.3635 87.5,49.5C 89.153,49.3404 90.4863,48.6737 91.5,47.5C 95.6841,47.4081 99.0174,45.7414 101.5,42.5C 104.86,39.8062 107.86,36.8062 110.5,33.5 Z"/></g>
<g><path style="opacity:1" fill="#a19fab" d="M 197.5,32.5 C 188.672,41.5805 178.006,46.9138 165.5,48.5C 164.728,47.3065 163.728,46.3065 162.5,45.5C 162.5,44.8333 162.5,44.1667 162.5,43.5C 163.133,40.8664 164.8,39.1998 167.5,38.5C 165.919,40.1417 165.253,42.1417 165.5,44.5C 168.518,44.6646 171.518,44.498 174.5,44C 176.544,43.5017 177.878,42.335 178.5,40.5C 182.833,37.8333 187.167,35.1667 191.5,32.5C 193.653,31.4271 195.653,31.4271 197.5,32.5 Z"/></g>
<g><path style="opacity:1" fill="#754e3c" d="M 201.5,29.5 C 211.332,34.2608 211.666,40.0941 202.5,47C 202.728,47.3988 203.062,47.5654 203.5,47.5C 200.5,48.8333 197.5,50.1667 194.5,51.5C 186.917,52.7975 179.917,55.4642 173.5,59.5C 173.167,58.1667 172.833,56.8333 172.5,55.5C 172.5,54.8333 172.5,54.1667 172.5,53.5C 174.117,52.962 175.784,52.6287 177.5,52.5C 176.571,53.3149 175.571,54.1482 174.5,55C 175,55.1667 175.5,55.3333 176,55.5C 182.801,52.5142 189.634,49.6809 196.5,47C 200.719,44.448 203.886,40.948 206,36.5C 206.783,34.6815 206.283,33.3482 204.5,32.5C 203.824,33.6016 203.158,34.6016 202.5,35.5C 202.483,33.4352 202.15,31.4352 201.5,29.5 Z"/></g>
<g><path style="opacity:1" fill="#9c6b54" d="M 177.5,52.5 C 186.662,48.083 194.995,42.4164 202.5,35.5C 203.158,34.6016 203.824,33.6016 204.5,32.5C 206.283,33.3482 206.783,34.6815 206,36.5C 203.886,40.948 200.719,44.448 196.5,47C 189.634,49.6809 182.801,52.5142 176,55.5C 175.5,55.3333 175,55.1667 174.5,55C 175.571,54.1482 176.571,53.3149 177.5,52.5 Z"/></g>
<g><path style="opacity:1" fill="#fbce6f" d="M 209.5,45.5 C 217.191,45.4035 224.858,45.7368 232.5,46.5C 231.345,48.8251 229.345,49.9918 226.5,50C 220.207,51.0226 213.874,51.6893 207.5,52C 201.395,54.248 195.061,55.0814 188.5,54.5C 190.751,53.9851 192.751,52.9851 194.5,51.5C 197.5,50.1667 200.5,48.8333 203.5,47.5C 205.698,47.1249 207.698,46.4582 209.5,45.5 Z"/></g>
<g><path style="opacity:1" fill="#a9552a" d="M 77.5,40.5 C 76.9853,42.8945 76.3186,45.2278 75.5,47.5C 70.9286,53.9659 66.9286,53.2992 63.5,45.5C 63.4431,44.391 63.1098,43.391 62.5,42.5C 65.7188,43.7129 68.3854,45.7129 70.5,48.5C 72.4216,46.9969 73.5883,44.9969 74,42.5C 75.1127,41.695 76.2794,41.0283 77.5,40.5 Z"/></g>
<g><path style="opacity:1" fill="#e8c6a4" d="M 90.5,44.5 C 85.7123,47.2875 80.7123,49.6208 75.5,51.5C 75.4326,50.0413 75.7659,48.7079 76.5,47.5C 80.7125,44.9814 85.0458,42.648 89.5,40.5C 90.4287,41.6888 90.762,43.0222 90.5,44.5 Z"/></g>
<g><path style="opacity:1" fill="#eaaa4d" d="M 233.5,46.5 C 233.5,46.1667 233.5,45.8333 233.5,45.5C 240.849,45.5488 248.183,45.8822 255.5,46.5C 255.5,49.8333 255.5,53.1667 255.5,56.5C 253.455,54.0156 250.788,53.0156 247.5,53.5C 245.784,53.6287 244.117,53.962 242.5,54.5C 240.938,54.7329 239.605,55.3995 238.5,56.5C 237.197,54.2431 237.864,52.4098 240.5,51C 238.115,50.4436 235.782,50.6103 233.5,51.5C 232.262,51.19 232.262,50.69 233.5,50C 248.151,48.5066 248.151,47.34 233.5,46.5 Z"/></g>
<g><path style="opacity:1" fill="#6f5641" d="M 122.5,40.5 C 123.467,41.8062 124.801,42.4729 126.5,42.5C 126.833,42.5 127.167,42.5 127.5,42.5C 125.15,44.2133 124.15,46.5466 124.5,49.5C 125.791,49.2627 126.791,49.596 127.5,50.5C 126.167,50.5 124.833,50.5 123.5,50.5C 122.127,50.3433 120.793,50.51 119.5,51C 115.706,54.2271 112.373,57.7271 109.5,61.5C 112.419,55.1229 116.086,49.1229 120.5,43.5C 121.086,43.7093 121.586,44.0426 122,44.5C 122.49,43.2068 122.657,41.8734 122.5,40.5 Z"/></g>
<g><path style="opacity:1" fill="#400f0a" d="M 93.5,37.5 C 93.5,37.8333 93.5,38.1667 93.5,38.5C 92.7552,41.3896 92.0885,44.3896 91.5,47.5C 90.4863,48.6737 89.153,49.3404 87.5,49.5C 81.2179,51.3154 75.2179,53.6488 69.5,56.5C 68.0512,54.8356 66.0512,54.0023 63.5,54C 64.8333,53.6667 66.1667,53.3333 67.5,53C 66.3333,51.8333 65.1667,50.6667 64,49.5C 62.702,48.0544 62.5354,46.7211 63.5,45.5C 66.9286,53.2992 70.9286,53.9659 75.5,47.5C 75.8333,47.5 76.1667,47.5 76.5,47.5C 75.7659,48.7079 75.4326,50.0413 75.5,51.5C 80.7123,49.6208 85.7123,47.2875 90.5,44.5C 91.6225,42.7116 91.7891,40.7116 91,38.5C 90.3457,39.6956 89.8457,39.6956 89.5,38.5C 90.7276,36.8241 92.0609,36.4908 93.5,37.5 Z"/></g>
<g><path style="opacity:1" fill="#492516" d="M 31.5,45.5 C 37.1667,45.5 42.8333,45.5 48.5,45.5C 50.2161,45.6287 51.8828,45.962 53.5,46.5C 55.1392,47.4725 56.4726,48.8058 57.5,50.5C 54.2563,52.9941 51.0896,52.9941 48,50.5C 47.5172,51.448 47.3505,52.448 47.5,53.5C 45.0799,53.2924 42.7466,53.6258 40.5,54.5C 39.5,53.8333 38.5,53.1667 37.5,52.5C 36.4937,52.9377 36.4937,53.6043 37.5,54.5C 34.9296,55.7018 32.4296,57.0352 30,58.5C 29.7679,57.2625 29.2679,56.2625 28.5,55.5C 27.1321,53.3948 26.1321,51.0614 25.5,48.5C 24.8165,48.1373 24.1499,47.8039 23.5,47.5C 25.78,45.7773 28.4467,45.1107 31.5,45.5 Z"/></g>
<g><path style="opacity:1" fill="#fcc159" d="M 232.5,46.5 C 232.833,46.5 233.167,46.5 233.5,46.5C 248.151,47.34 248.151,48.5066 233.5,50C 232.262,50.69 232.262,51.19 233.5,51.5C 231.508,52.8304 229.508,54.1637 227.5,55.5C 221.562,56.664 217.229,59.9973 214.5,65.5C 210.909,67.7688 207.242,67.7688 203.5,65.5C 205.12,63.2606 204.787,61.4272 202.5,60C 196.009,57.8718 189.342,57.0385 182.5,57.5C 184.181,55.9925 186.181,54.9925 188.5,54.5C 195.061,55.0814 201.395,54.248 207.5,52C 213.874,51.6893 220.207,51.0226 226.5,50C 229.345,49.9918 231.345,48.8251 232.5,46.5 Z"/></g>
<g><path style="opacity:1" fill="#1e0e07" d="M 57.5,50.5 C 58.2674,51.172 58.9341,52.0053 59.5,53C 59.2716,53.3988 58.9382,53.5654 58.5,53.5C 55.8333,54.5 53.1667,55.5 50.5,56.5C 45.466,57.3982 40.7994,59.0649 36.5,61.5C 35.1667,61.8333 33.8333,62.1667 32.5,62.5C 31.1779,62.67 30.0113,62.3366 29,61.5C 28.5045,59.5273 28.3379,57.5273 28.5,55.5C 29.2679,56.2625 29.7679,57.2625 30,58.5C 32.4296,57.0352 34.9296,55.7018 37.5,54.5C 36.4937,53.6043 36.4937,52.9377 37.5,52.5C 38.5,53.1667 39.5,53.8333 40.5,54.5C 42.7466,53.6258 45.0799,53.2924 47.5,53.5C 47.3505,52.448 47.5172,51.448 48,50.5C 51.0896,52.9941 54.2563,52.9941 57.5,50.5 Z"/></g>
<g><path style="opacity:1" fill="#fcf8f5" d="M 247.5,53.5 C 249.584,55.7565 249.917,58.2565 248.5,61C 244.164,61.8334 242.164,60.0001 242.5,55.5C 242.5,55.1667 242.5,54.8333 242.5,54.5C 244.117,53.962 245.784,53.6287 247.5,53.5 Z"/></g>
<g><path style="opacity:1" fill="#d2af92" d="M 58.5,53.5 C 59.1667,54.1667 59.8333,54.8333 60.5,55.5C 60.67,56.8221 60.3366,57.9887 59.5,59C 56.4453,59.6342 53.4453,59.4675 50.5,58.5C 50.5,57.8333 50.5,57.1667 50.5,56.5C 53.1667,55.5 55.8333,54.5 58.5,53.5 Z"/></g>
<g><path style="opacity:1" fill="#706870" d="M 139.5,53.5 C 139.134,61.5306 138.467,69.5306 137.5,77.5C 134.11,77.1149 131.777,78.4483 130.5,81.5C 129.833,81.8333 129.167,82.1667 128.5,82.5C 129.588,74.8754 130.421,67.2088 131,59.5C 132.519,57.8608 132.686,56.1942 131.5,54.5C 134.167,54.1667 136.833,53.8333 139.5,53.5 Z"/></g>
<g><path style="opacity:1" fill="#917d77" d="M 162.5,43.5 C 162.5,44.1667 162.5,44.8333 162.5,45.5C 162.649,46.552 162.483,47.552 162,48.5C 157.769,49.5583 155.602,52.225 155.5,56.5C 156.873,56.6567 158.207,56.49 159.5,56C 162.979,50.9119 164.646,51.4119 164.5,57.5C 157.407,57.9425 152.407,61.2759 149.5,67.5C 149.625,61.6636 151.291,56.3303 154.5,51.5C 156.25,49.5391 158.417,48.2058 161,47.5C 161.21,45.9419 161.71,44.6085 162.5,43.5 Z"/></g>
<g><path style="opacity:1" fill="#e2a374" d="M 87.5,49.5 C 86.537,50.3635 86.537,51.0302 87.5,51.5C 89.0983,50.5153 90.765,50.3486 92.5,51C 90.6243,51.9184 89.6243,53.4184 89.5,55.5C 86.2464,57.0291 82.913,58.3624 79.5,59.5C 75.8006,60.5107 72.1339,60.5107 68.5,59.5C 67.5224,59.9767 66.6891,60.6433 66,61.5C 64.8869,60.2889 63.7202,60.2889 62.5,61.5C 61.6143,60.675 61.281,59.675 61.5,58.5C 64.5331,58.8685 67.1998,58.2018 69.5,56.5C 75.2179,53.6488 81.2179,51.3154 87.5,49.5 Z"/></g>
<g><path style="opacity:1" fill="#e5b76d" d="M 194.5,51.5 C 192.751,52.9851 190.751,53.9851 188.5,54.5C 186.181,54.9925 184.181,55.9925 182.5,57.5C 178.668,57.6266 176.001,59.46 174.5,63C 175.094,63.4643 175.761,63.631 176.5,63.5C 176.5,63.8333 176.5,64.1667 176.5,64.5C 175.5,64.5 174.5,64.5 173.5,64.5C 172.504,64.4142 171.671,64.7476 171,65.5C 170.536,64.9056 170.369,64.2389 170.5,63.5C 171.5,62.1667 172.5,60.8333 173.5,59.5C 179.917,55.4642 186.917,52.7975 194.5,51.5 Z"/></g>
<g><path style="opacity:1" fill="#8f6a47" d="M 113.5,33.5 C 115.167,34.5 116.5,35.8333 117.5,37.5C 116.371,38.4695 115.371,39.6362 114.5,41C 111.836,53.8334 104.169,61.3334 91.5,63.5C 91.1373,64.1835 90.8039,64.8501 90.5,65.5C 85.5,66.1667 80.5,66.8333 75.5,67.5C 75.1667,67.5 74.8333,67.5 74.5,67.5C 70.7076,67.7264 67.0409,68.5597 63.5,70C 61.1299,71.9411 59.7966,74.4411 59.5,77.5C 58.7321,76.7375 58.2321,75.7375 58,74.5C 57.3333,75.8333 56.6667,75.8333 56,74.5C 55.5357,75.0944 55.369,75.7611 55.5,76.5C 54.7234,73.0385 52.7234,70.3718 49.5,68.5C 48.1667,66.8333 46.8333,65.1667 45.5,63.5C 57.4648,66.9815 68.7981,65.6481 79.5,59.5C 82.913,58.3624 86.2464,57.0291 89.5,55.5C 92.597,52.6323 96.2636,50.799 100.5,50C 105.463,44.891 109.796,39.391 113.5,33.5 Z"/></g>
<g><path style="opacity:1" fill="#c48a3b" d="M 238.5,56.5 C 238.5,56.8333 238.5,57.1667 238.5,57.5C 236.11,59.2666 234.443,61.5999 233.5,64.5C 229.911,66.6711 228.911,69.6711 230.5,73.5C 229.167,73.1667 227.833,72.8333 226.5,72.5C 225.316,70.2384 223.65,68.405 221.5,67C 222.085,62.3255 224.085,58.4922 227.5,55.5C 229.508,54.1637 231.508,52.8304 233.5,51.5C 235.782,50.6103 238.115,50.4436 240.5,51C 237.864,52.4098 237.197,54.2431 238.5,56.5 Z"/></g>
<g><path style="opacity:1" fill="#2c211d" d="M 23.5,47.5 C 24.1499,47.8039 24.8165,48.1373 25.5,48.5C 26.1321,51.0614 27.1321,53.3948 28.5,55.5C 28.3379,57.5273 28.5045,59.5273 29,61.5C 30.0113,62.3366 31.1779,62.67 32.5,62.5C 27.932,65.1807 22.932,66.0141 17.5,65C 16.944,64.6174 16.6107,64.1174 16.5,63.5C 20.0714,63.5923 21.2381,61.9257 20,58.5C 19.0754,57.9535 18.2421,57.2868 17.5,56.5C 18,56.1667 18.5,55.8333 19,55.5C 20.3264,56.7989 21.6598,58.1322 23,59.5C 23.7826,57.5665 23.2826,56.0665 21.5,55C 23.6838,53.1024 24.0171,50.9358 22.5,48.5C 22.5,47.8333 22.8333,47.5 23.5,47.5 Z"/></g>
<g><path style="opacity:1" fill="#561c07" d="M 50.5,56.5 C 50.5,57.1667 50.5,57.8333 50.5,58.5C 47.8664,59.1334 46.1998,60.8001 45.5,63.5C 46.8333,65.1667 48.1667,66.8333 49.5,68.5C 48.4489,69.2223 47.7822,70.2223 47.5,71.5C 45.4451,69.4453 43.1117,67.7787 40.5,66.5C 40.1667,65.5 39.5,64.8333 38.5,64.5C 38.7148,62.8212 38.0481,61.8212 36.5,61.5C 40.7994,59.0649 45.466,57.3982 50.5,56.5 Z"/></g>
<g><path style="opacity:1" fill="#70584f" d="M 162.5,45.5 C 163.728,46.3065 164.728,47.3065 165.5,48.5C 166.681,51.669 169.014,53.3356 172.5,53.5C 172.5,54.1667 172.5,54.8333 172.5,55.5C 170.718,56.7196 168.718,57.3862 166.5,57.5C 166.5,59.1667 166.5,60.8333 166.5,62.5C 161.508,62.3135 156.841,63.3135 152.5,65.5C 151.191,69.4043 150.191,73.4043 149.5,77.5C 148.833,77.5 148.167,77.5 147.5,77.5C 148.747,74.2005 148.747,70.8672 147.5,67.5C 148.167,67.5 148.833,67.5 149.5,67.5C 152.407,61.2759 157.407,57.9425 164.5,57.5C 164.646,51.4119 162.979,50.9119 159.5,56C 158.207,56.49 156.873,56.6567 155.5,56.5C 155.602,52.225 157.769,49.5583 162,48.5C 162.483,47.552 162.649,46.552 162.5,45.5 Z"/></g>
<g><path style="opacity:1" fill="#c77520" d="M 17.5,49.5 C 18.9187,48.5489 20.5853,48.2155 22.5,48.5C 24.0171,50.9358 23.6838,53.1024 21.5,55C 23.2826,56.0665 23.7826,57.5665 23,59.5C 21.6598,58.1322 20.3264,56.7989 19,55.5C 18.5,55.8333 18,56.1667 17.5,56.5C 18.2421,57.2868 19.0754,57.9535 20,58.5C 21.2381,61.9257 20.0714,63.5923 16.5,63.5C 16.1667,63.5 15.8333,63.5 15.5,63.5C 13.629,63.1412 12.129,62.1412 11,60.5C 10.0287,55.3091 11.862,51.6425 16.5,49.5C 15.8262,51.0245 14.8262,52.3578 13.5,53.5C 16.6144,54.685 19.2811,54.0184 21.5,51.5C 20.6798,49.8888 19.3464,49.2222 17.5,49.5 Z"/></g>
<g><path style="opacity:1" fill="#f4da11" d="M 16.5,49.5 C 16.8333,49.5 17.1667,49.5 17.5,49.5C 19.3464,49.2222 20.6798,49.8888 21.5,51.5C 19.2811,54.0184 16.6144,54.685 13.5,53.5C 14.8262,52.3578 15.8262,51.0245 16.5,49.5 Z"/></g>
<g><path style="opacity:1" fill="#c98c5a" d="M 60.5,55.5 C 61.404,56.209 61.7373,57.209 61.5,58.5C 61.281,59.675 61.6143,60.675 62.5,61.5C 63.7202,60.2889 64.8869,60.2889 66,61.5C 66.6891,60.6433 67.5224,59.9767 68.5,59.5C 72.1339,60.5107 75.8006,60.5107 79.5,59.5C 68.7981,65.6481 57.4648,66.9815 45.5,63.5C 46.1998,60.8001 47.8664,59.1334 50.5,58.5C 53.4453,59.4675 56.4453,59.6342 59.5,59C 60.3366,57.9887 60.67,56.8221 60.5,55.5 Z"/></g>
<g><path style="opacity:1" fill="#d2bda8" d="M 247.5,53.5 C 250.788,53.0156 253.455,54.0156 255.5,56.5C 255.5,60.5 255.5,64.5 255.5,68.5C 254.115,66.1165 252.115,64.4499 249.5,63.5C 247.708,63.366 246.042,63.6993 244.5,64.5C 242.565,65.1495 240.565,65.4828 238.5,65.5C 238.933,62.8344 239.433,60.1677 240,57.5C 240.708,56.6195 241.542,55.9528 242.5,55.5C 242.164,60.0001 244.164,61.8334 248.5,61C 249.917,58.2565 249.584,55.7565 247.5,53.5 Z"/></g>
<g><path style="opacity:1" fill="#94bccf" d="M -0.5,62.5 C 2.24056,62.7073 4.57389,63.7073 6.5,65.5C 3.88825,66.7787 1.55492,68.4453 -0.5,70.5C -0.5,67.8333 -0.5,65.1667 -0.5,62.5 Z"/></g>
<g><path style="opacity:1" fill="#3b342f" d="M 127.5,51.5 C 128.272,52.6935 129.272,53.6935 130.5,54.5C 130.833,54.5 131.167,54.5 131.5,54.5C 132.686,56.1942 132.519,57.8608 131,59.5C 130.421,67.2088 129.588,74.8754 128.5,82.5C 128.5,82.8333 128.5,83.1667 128.5,83.5C 125.793,86.2466 124.127,89.5799 123.5,93.5C 122.209,93.2627 121.209,93.596 120.5,94.5C 117.5,96.5 114.5,98.5 111.5,100.5C 111.252,98.9465 110.585,97.1131 109.5,95C 112.787,92.5828 114.62,89.4161 115,85.5C 112.92,87.1233 110.754,88.6233 108.5,90C 109.711,90.8928 109.711,91.7261 108.5,92.5C 107.808,91.9747 107.308,91.3081 107,90.5C 106.014,91.1712 104.847,91.1712 103.5,90.5C 107.141,86.3668 111.308,82.7001 116,79.5C 117.902,75.2608 120.235,71.2608 123,67.5C 124.546,62.1342 126.046,56.8008 127.5,51.5 Z"/></g>
<g><path style="opacity:1" fill="#977d68" d="M 117.5,37.5 C 120.285,36.9162 121.952,37.9162 122.5,40.5C 122.657,41.8734 122.49,43.2068 122,44.5C 121.586,44.0426 121.086,43.7093 120.5,43.5C 116.086,49.1229 112.419,55.1229 109.5,61.5C 105.358,66.4303 101.692,71.7637 98.5,77.5C 97.1667,78.1667 96.1667,79.1667 95.5,80.5C 92.91,81.1283 90.5766,82.295 88.5,84C 80.7171,84.0235 73.0505,84.8568 65.5,86.5C 64.2867,86.2528 63.62,85.5862 63.5,84.5C 70.049,83.1189 76.7157,82.2856 83.5,82C 84.9999,80.8855 86.6666,80.0521 88.5,79.5C 89.1476,77.8508 90.1476,76.5175 91.5,75.5C 92.2508,76.376 92.7508,77.376 93,78.5C 92.7795,74.7521 94.1129,71.7521 97,69.5C 97.4828,68.552 97.6495,67.552 97.5,66.5C 95.0971,66.552 92.7638,66.2186 90.5,65.5C 90.8039,64.8501 91.1373,64.1835 91.5,63.5C 104.169,61.3334 111.836,53.8334 114.5,41C 115.371,39.6362 116.371,38.4695 117.5,37.5 Z"/></g>
<g><path style="opacity:1" fill="#65401c" d="M 238.5,57.5 C 236.708,60.5459 235.708,63.8793 235.5,67.5C 234.065,68.7898 233.065,70.4565 232.5,72.5C 231.914,72.2907 231.414,71.9574 231,71.5C 231.237,69.0111 232.071,66.6778 233.5,64.5C 234.443,61.5999 236.11,59.2666 238.5,57.5 Z"/></g>
<g><path style="opacity:1" fill="#524a4b" d="M 139.5,53.5 C 142.643,57.7734 145.31,62.44 147.5,67.5C 148.747,70.8672 148.747,74.2005 147.5,77.5C 144.167,77.5 140.833,77.5 137.5,77.5C 138.467,69.5306 139.134,61.5306 139.5,53.5 Z"/></g>
<g><path style="opacity:1" fill="#442d22" d="M 172.5,55.5 C 172.833,56.8333 173.167,58.1667 173.5,59.5C 172.5,60.8333 171.5,62.1667 170.5,63.5C 167.5,66.3879 165.834,70.0546 165.5,74.5C 163.067,74.2729 161.401,75.2729 160.5,77.5C 156.866,78.758 153.2,78.758 149.5,77.5C 150.191,73.4043 151.191,69.4043 152.5,65.5C 156.841,63.3135 161.508,62.3135 166.5,62.5C 166.5,60.8333 166.5,59.1667 166.5,57.5C 168.718,57.3862 170.718,56.7196 172.5,55.5 Z"/></g>
<g><path style="opacity:1" fill="#eadcd2" d="M 173.5,64.5 C 174.5,64.5 175.5,64.5 176.5,64.5C 178.554,64.3653 180.221,65.032 181.5,66.5C 181.716,71.5867 179.882,72.5867 176,69.5C 175.275,71.158 174.108,71.658 172.5,71C 171.272,69.5098 171.272,68.0098 172.5,66.5C 172.833,65.8333 173.167,65.1667 173.5,64.5 Z"/></g>
<g><path style="opacity:1" fill="#bc8640" d="M 198.5,70.5 C 196.461,71.6718 195.128,73.3384 194.5,75.5C 191.367,72.5313 188.367,69.3647 185.5,66C 184.563,65.3083 183.897,65.475 183.5,66.5C 182.833,66.5 182.167,66.5 181.5,66.5C 180.221,65.032 178.554,64.3653 176.5,64.5C 176.5,64.1667 176.5,63.8333 176.5,63.5C 181.549,62.8404 185.882,64.1738 189.5,67.5C 191.052,64.4326 190.385,61.9326 187.5,60C 192.403,59.0631 197.07,59.7298 201.5,62C 202.022,62.5613 202.355,63.228 202.5,64C 201.287,66.2619 199.954,68.4285 198.5,70.5 Z"/></g>
<g><path style="opacity:1" fill="#dbd2c0" d="M 36.5,61.5 C 38.0481,61.8212 38.7148,62.8212 38.5,64.5C 36.0734,66.5576 33.4068,68.3909 30.5,70C 25.5078,70.9958 20.8412,72.8291 16.5,75.5C 15.8165,75.1373 15.1499,74.8039 14.5,74.5C 13.8333,73.5 13.1667,72.5 12.5,71.5C 11.5589,69.2279 10.2255,67.2279 8.5,65.5C 8.36912,64.6236 8.70245,63.9569 9.5,63.5C 10.9411,64.304 12.4411,64.9706 14,65.5C 15.0299,65.1639 15.5299,64.4972 15.5,63.5C 15.8333,63.5 16.1667,63.5 16.5,63.5C 16.6107,64.1174 16.944,64.6174 17.5,65C 22.932,66.0141 27.932,65.1807 32.5,62.5C 33.8333,62.1667 35.1667,61.8333 36.5,61.5 Z"/></g>
<g><path style="opacity:1" fill="#615a62" d="M 40.5,66.5 C 43.1117,67.7787 45.4451,69.4453 47.5,71.5C 47.5,72.1667 47.8333,72.5 48.5,72.5C 48.7512,74.1703 49.4178,75.6703 50.5,77C 49.0929,78.452 47.5929,78.2853 46,76.5C 45.7489,78.433 45.2489,80.2663 44.5,82C 42.9343,82.765 41.6009,82.5983 40.5,81.5C 43.4734,81.0349 44.6401,79.3682 44,76.5C 41.5068,75.0545 39.6735,75.7211 38.5,78.5C 38.8627,79.1835 39.1961,79.8501 39.5,80.5C 38.6236,80.3691 37.9569,80.7025 37.5,81.5C 39.483,83.9837 41.6496,86.3171 44,88.5C 44.8141,90.9018 44.6474,93.2351 43.5,95.5C 42.8652,93.2173 41.5318,91.5507 39.5,90.5C 38.3527,90.8178 37.5194,91.4844 37,92.5C 37.5826,98.3173 37.4159,103.984 36.5,109.5C 35.1075,105.011 34.1075,100.344 33.5,95.5C 31.3576,96.4371 31.0243,97.7704 32.5,99.5C 31.2022,100.116 30.2022,100.116 29.5,99.5C 29.6309,98.6236 29.2975,97.9569 28.5,97.5C 25.2446,96.0449 22.2446,94.3782 19.5,92.5C 25.9998,83.5424 32.9998,74.8757 40.5,66.5 Z"/></g>
<g><path style="opacity:1" fill="#efae59" d="M 227.5,55.5 C 224.085,58.4922 222.085,62.3255 221.5,67C 223.65,68.405 225.316,70.2384 226.5,72.5C 226.389,73.1174 226.056,73.6174 225.5,74C 222.294,74.8902 219.294,74.5569 216.5,73C 212.5,72.3333 208.5,72.3333 204.5,73C 201.637,74.7218 198.97,76.5552 196.5,78.5C 196.585,76.0712 197.585,74.0712 199.5,72.5C 199.137,71.8165 198.804,71.1499 198.5,70.5C 199.954,68.4285 201.287,66.2619 202.5,64C 202.355,63.228 202.022,62.5613 201.5,62C 197.07,59.7298 192.403,59.0631 187.5,60C 190.385,61.9326 191.052,64.4326 189.5,67.5C 185.882,64.1738 181.549,62.8404 176.5,63.5C 175.761,63.631 175.094,63.4643 174.5,63C 176.001,59.46 178.668,57.6266 182.5,57.5C 189.342,57.0385 196.009,57.8718 202.5,60C 204.787,61.4272 205.12,63.2606 203.5,65.5C 207.242,67.7688 210.909,67.7688 214.5,65.5C 217.229,59.9973 221.562,56.664 227.5,55.5 Z"/></g>
<g><path style="opacity:1" fill="#91735f" d="M 242.5,54.5 C 242.5,54.8333 242.5,55.1667 242.5,55.5C 241.542,55.9528 240.708,56.6195 240,57.5C 239.433,60.1677 238.933,62.8344 238.5,65.5C 240.565,65.4828 242.565,65.1495 244.5,64.5C 244.232,66.099 244.566,67.4324 245.5,68.5C 246.601,69.5983 247.934,69.765 249.5,69C 250.756,68.5831 251.423,67.7498 251.5,66.5C 250.833,65.5 250.167,64.5 249.5,63.5C 252.115,64.4499 254.115,66.1165 255.5,68.5C 255.5,69.1667 255.5,69.8333 255.5,70.5C 250.049,70.0914 244.716,70.7581 239.5,72.5C 239.262,69.9315 237.929,68.2648 235.5,67.5C 235.708,63.8793 236.708,60.5459 238.5,57.5C 238.5,57.1667 238.5,56.8333 238.5,56.5C 239.605,55.3995 240.938,54.7329 242.5,54.5 Z"/></g>
<g><path style="opacity:1" fill="#332ba0" d="M 251.5,66.5 C 251.423,67.7498 250.756,68.5831 249.5,69C 247.934,69.765 246.601,69.5983 245.5,68.5C 247.302,67.5418 249.302,66.8751 251.5,66.5 Z"/></g>
<g><path style="opacity:1" fill="#0f0b11" d="M 249.5,63.5 C 250.167,64.5 250.833,65.5 251.5,66.5C 249.302,66.8751 247.302,67.5418 245.5,68.5C 244.566,67.4324 244.232,66.099 244.5,64.5C 246.042,63.6993 247.708,63.366 249.5,63.5 Z"/></g>
<g><path style="opacity:1" fill="#7f767e" d="M 117.5,66.5 C 116.97,68.9237 116.136,71.257 115,73.5C 113.179,76.813 110.679,79.4797 107.5,81.5C 110.444,76.2259 113.778,71.2259 117.5,66.5 Z"/></g>
<g><path style="opacity:1" fill="#766f75" d="M 6.5,65.5 C 7.16667,65.5 7.83333,65.5 8.5,65.5C 10.2255,67.2279 11.5589,69.2279 12.5,71.5C 10.8113,72.9307 8.81133,73.7641 6.5,74C 5.28891,75.1131 5.28891,76.2798 6.5,77.5C 6.04311,78.2975 5.37644,78.6309 4.5,78.5C 2.82296,76.4602 1.15629,74.4602 -0.5,72.5C -0.5,71.8333 -0.5,71.1667 -0.5,70.5C 1.55492,68.4453 3.88825,66.7787 6.5,65.5 Z"/></g>
<g><path style="opacity:1" fill="#6f8596" d="M 38.5,64.5 C 39.5,64.8333 40.1667,65.5 40.5,66.5C 32.9998,74.8757 25.9998,83.5424 19.5,92.5C 18.3789,90.9106 18.5456,89.2439 20,87.5C 24.9822,81.6836 30.1488,76.0169 35.5,70.5C 30.1885,71.5352 24.8552,73.5352 19.5,76.5C 17.2188,76.9227 15.5521,76.256 14.5,74.5C 15.1499,74.8039 15.8165,75.1373 16.5,75.5C 20.8412,72.8291 25.5078,70.9958 30.5,70C 33.4068,68.3909 36.0734,66.5576 38.5,64.5 Z"/></g>
<g><path style="opacity:1" fill="#6a2b04" d="M 49.5,68.5 C 52.7234,70.3718 54.7234,73.0385 55.5,76.5C 56.9131,79.6612 58.5797,82.6612 60.5,85.5C 60.5654,85.9382 60.3988,86.2716 60,86.5C 58.3333,84.8333 56.6667,83.1667 55,81.5C 52.9162,78.3342 50.7496,75.3342 48.5,72.5C 47.8333,72.5 47.5,72.1667 47.5,71.5C 47.7822,70.2223 48.4489,69.2223 49.5,68.5 Z"/></g>
<g><path style="opacity:1" fill="#c7b6a6" d="M 172.5,66.5 C 171.272,68.0098 171.272,69.5098 172.5,71C 174.108,71.658 175.275,71.158 176,69.5C 179.882,72.5867 181.716,71.5867 181.5,66.5C 182.167,66.5 182.833,66.5 183.5,66.5C 183.5,67.1667 183.833,67.5 184.5,67.5C 184.357,69.2624 184.691,70.9291 185.5,72.5C 185.081,73.6721 184.415,74.6721 183.5,75.5C 182.051,74.383 180.384,73.7163 178.5,73.5C 175.664,73.7063 172.998,74.373 170.5,75.5C 170.5,73.1667 170.5,70.8333 170.5,68.5C 170.5,67.1667 171.167,66.5 172.5,66.5 Z"/></g>
<g><path style="opacity:1" fill="#82532a" d="M 233.5,64.5 C 232.071,66.6778 231.237,69.0111 231,71.5C 231.414,71.9574 231.914,72.2907 232.5,72.5C 233.065,70.4565 234.065,68.7898 235.5,67.5C 237.929,68.2648 239.262,69.9315 239.5,72.5C 244.716,70.7581 250.049,70.0914 255.5,70.5C 255.5,72.8333 255.5,75.1667 255.5,77.5C 249.365,77.8227 243.365,77.1561 237.5,75.5C 235.521,73.8325 233.188,73.1658 230.5,73.5C 228.911,69.6711 229.911,66.6711 233.5,64.5 Z"/></g>
<g><path style="opacity:1" fill="#585253" d="M 12.5,71.5 C 13.1667,72.5 13.8333,73.5 14.5,74.5C 15.5521,76.256 17.2188,76.9227 19.5,76.5C 18.4324,77.4345 17.099,77.7678 15.5,77.5C 15.634,79.2915 15.3007,80.9582 14.5,82.5C 11.8269,86.0061 8.66021,89.0061 5,91.5C 4.51722,90.552 4.35055,89.552 4.5,88.5C 4.5,85.1667 4.5,81.8333 4.5,78.5C 5.37644,78.6309 6.04311,78.2975 6.5,77.5C 5.28891,76.2798 5.28891,75.1131 6.5,74C 8.81133,73.7641 10.8113,72.9307 12.5,71.5 Z"/></g>
<g><path style="opacity:1" fill="#0c101d" d="M -0.5,72.5 C 1.15629,74.4602 2.82296,76.4602 4.5,78.5C 4.5,81.8333 4.5,85.1667 4.5,88.5C 3.38141,92.0705 1.71474,95.4039 -0.5,98.5C -0.5,89.8333 -0.5,81.1667 -0.5,72.5 Z"/></g>
<g><path style="opacity:1" fill="#9e8777" d="M 184.5,67.5 C 186.243,68.6409 187.243,70.3076 187.5,72.5C 187.195,75.7777 185.861,78.4444 183.5,80.5C 183.158,81.3382 182.492,81.6716 181.5,81.5C 181.167,81.5 180.833,81.5 180.5,81.5C 180.5,80.8333 180.5,80.1667 180.5,79.5C 180.5,78.8333 180.5,78.1667 180.5,77.5C 179.928,74.7564 178.262,73.9231 175.5,75C 174.62,76.3561 174.286,77.8561 174.5,79.5C 174.209,80.6491 173.376,81.3158 172,81.5C 169.804,81.0315 167.971,80.0315 166.5,78.5C 166.77,74.6424 168.103,71.309 170.5,68.5C 170.5,70.8333 170.5,73.1667 170.5,75.5C 172.998,74.373 175.664,73.7063 178.5,73.5C 180.384,73.7163 182.051,74.383 183.5,75.5C 184.415,74.6721 185.081,73.6721 185.5,72.5C 184.691,70.9291 184.357,69.2624 184.5,67.5 Z"/></g>
<g><path style="opacity:1" fill="#120d13" d="M 180.5,77.5 C 178.597,77.7959 176.93,78.4625 175.5,79.5C 175.167,79.5 174.833,79.5 174.5,79.5C 174.286,77.8561 174.62,76.3561 175.5,75C 178.262,73.9231 179.928,74.7564 180.5,77.5 Z"/></g>
<g><path style="opacity:1" fill="#839ab4" d="M 40.5,81.5 C 39.8333,81.5 39.5,81.1667 39.5,80.5C 39.1961,79.8501 38.8627,79.1835 38.5,78.5C 39.6735,75.7211 41.5068,75.0545 44,76.5C 44.6401,79.3682 43.4734,81.0349 40.5,81.5 Z"/></g>
<g><path style="opacity:1" fill="#845636" d="M 194.5,75.5 C 191.887,79.0966 188.221,80.7633 183.5,80.5C 185.861,78.4444 187.195,75.7777 187.5,72.5C 187.243,70.3076 186.243,68.6409 184.5,67.5C 183.833,67.5 183.5,67.1667 183.5,66.5C 183.897,65.475 184.563,65.3083 185.5,66C 188.367,69.3647 191.367,72.5313 194.5,75.5 Z"/></g>
<g><path style="opacity:1" fill="#df9f4e" d="M 237.5,75.5 C 243.365,77.1561 249.365,77.8227 255.5,77.5C 255.5,78.8333 255.5,80.1667 255.5,81.5C 251.5,81.5 247.5,81.5 243.5,81.5C 243.672,80.5084 243.338,79.8417 242.5,79.5C 240.938,79.2671 239.605,78.6005 238.5,77.5C 238.167,76.8333 237.833,76.1667 237.5,75.5 Z"/></g>
<g><path style="opacity:1" fill="#472619" d="M 19.5,92.5 C 22.2446,94.3782 25.2446,96.0449 28.5,97.5C 29.2975,97.9569 29.6309,98.6236 29.5,99.5C 25.4023,97.9523 21.4023,96.1189 17.5,94C 14.2281,93.2119 11.2281,93.7119 8.5,95.5C 10.7795,91.2756 12.7795,86.9422 14.5,82.5C 15.3007,80.9582 15.634,79.2915 15.5,77.5C 17.099,77.7678 18.4324,77.4345 19.5,76.5C 24.8552,73.5352 30.1885,71.5352 35.5,70.5C 30.1488,76.0169 24.9822,81.6836 20,87.5C 18.5456,89.2439 18.3789,90.9106 19.5,92.5 Z"/></g>
<g><path style="opacity:1" fill="#503b2c" d="M 123.5,50.5 C 122.469,51.2485 121.302,51.9152 120,52.5C 119.477,57.3617 118.644,62.0284 117.5,66.5C 113.778,71.2259 110.444,76.2259 107.5,81.5C 101.233,85.7607 95.2326,90.4273 89.5,95.5C 92.6037,88.5447 96.7703,82.2114 102,76.5C 102.667,75.8333 102.667,75.1667 102,74.5C 100.961,75.7101 99.7942,76.7101 98.5,77.5C 101.692,71.7637 105.358,66.4303 109.5,61.5C 112.373,57.7271 115.706,54.2271 119.5,51C 120.793,50.51 122.127,50.3433 123.5,50.5 Z"/></g>
<g><path style="opacity:1" fill="#3f2caf" d="M 180.5,77.5 C 180.5,78.1667 180.5,78.8333 180.5,79.5C 178.716,80.7199 177.05,80.7199 175.5,79.5C 176.93,78.4625 178.597,77.7959 180.5,77.5 Z"/></g>
<g><path style="opacity:1" fill="#db966b" d="M 198.5,70.5 C 198.804,71.1499 199.137,71.8165 199.5,72.5C 197.585,74.0712 196.585,76.0712 196.5,78.5C 196.167,79.1667 195.833,79.8333 195.5,80.5C 194.469,81.355 193.303,82.0217 192,82.5C 188.3,81.0896 184.967,81.7563 182,84.5C 181.517,83.552 181.351,82.552 181.5,81.5C 182.492,81.6716 183.158,81.3382 183.5,80.5C 188.221,80.7633 191.887,79.0966 194.5,75.5C 195.128,73.3384 196.461,71.6718 198.5,70.5 Z"/></g>
<g><path style="opacity:1" fill="#e48443" d="M 226.5,72.5 C 227.833,72.8333 229.167,73.1667 230.5,73.5C 233.188,73.1658 235.521,73.8325 237.5,75.5C 237.833,76.1667 238.167,76.8333 238.5,77.5C 233.674,79.4465 229.007,81.7798 224.5,84.5C 224.442,81.4409 223.108,79.1076 220.5,77.5C 214.167,78.6667 207.833,79.8333 201.5,81C 199.481,81.4497 197.648,82.283 196,83.5C 195.601,83.2716 195.435,82.9382 195.5,82.5C 195.5,81.8333 195.5,81.1667 195.5,80.5C 195.833,79.8333 196.167,79.1667 196.5,78.5C 198.97,76.5552 201.637,74.7218 204.5,73C 208.5,72.3333 212.5,72.3333 216.5,73C 219.294,74.5569 222.294,74.8902 225.5,74C 226.056,73.6174 226.389,73.1174 226.5,72.5 Z"/></g>
<g><path style="opacity:1" fill="#e6cf9a" d="M 137.5,77.5 C 140.833,77.5 144.167,77.5 147.5,77.5C 148.167,77.5 148.833,77.5 149.5,77.5C 153.2,78.758 156.866,78.758 160.5,77.5C 161.167,77.5 161.833,77.5 162.5,77.5C 162.047,78.4584 161.381,79.2917 160.5,80C 151.833,80.3333 143.167,80.6667 134.5,81C 133.429,81.8518 132.429,82.6851 131.5,83.5C 130.662,83.1583 130.328,82.4916 130.5,81.5C 131.777,78.4483 134.11,77.1149 137.5,77.5 Z"/></g>
<g><path style="opacity:1" fill="#4d3d3c" d="M 48.5,72.5 C 50.7496,75.3342 52.9162,78.3342 55,81.5C 56.6667,83.1667 58.3333,84.8333 60,86.5C 60.3988,86.2716 60.5654,85.9382 60.5,85.5C 61.156,88.3179 62.9893,89.9846 66,90.5C 69.0567,89.5495 72.2234,89.2161 75.5,89.5C 74.7095,90.4013 73.7095,91.0679 72.5,91.5C 68.774,91.8226 65.1073,91.4892 61.5,90.5C 61.1924,89.6919 60.6924,89.0253 60,88.5C 56.1868,93.426 53.0202,98.7594 50.5,104.5C 47.2726,106.897 43.6059,108.064 39.5,108C 38.9535,108.925 38.2868,109.758 37.5,110.5C 36.8933,110.376 36.56,110.043 36.5,109.5C 37.4159,103.984 37.5826,98.3173 37,92.5C 37.5194,91.4844 38.3527,90.8178 39.5,90.5C 41.5318,91.5507 42.8652,93.2173 43.5,95.5C 44.6474,93.2351 44.8141,90.9018 44,88.5C 41.6496,86.3171 39.483,83.9837 37.5,81.5C 37.9569,80.7025 38.6236,80.3691 39.5,80.5C 39.5,81.1667 39.8333,81.5 40.5,81.5C 41.6009,82.5983 42.9343,82.765 44.5,82C 45.2489,80.2663 45.7489,78.433 46,76.5C 47.5929,78.2853 49.0929,78.452 50.5,77C 49.4178,75.6703 48.7512,74.1703 48.5,72.5 Z"/></g>
<g><path style="opacity:1" fill="#a68e7c" d="M 90.5,65.5 C 92.7638,66.2186 95.0971,66.552 97.5,66.5C 97.6495,67.552 97.4828,68.552 97,69.5C 94.1129,71.7521 92.7795,74.7521 93,78.5C 92.7508,77.376 92.2508,76.376 91.5,75.5C 90.1476,76.5175 89.1476,77.8508 88.5,79.5C 86.6666,80.0521 84.9999,80.8855 83.5,82C 76.7157,82.2856 70.049,83.1189 63.5,84.5C 61.9019,82.3021 60.5686,79.9687 59.5,77.5C 59.7966,74.4411 61.1299,71.9411 63.5,70C 67.0409,68.5597 70.7076,67.7264 74.5,67.5C 73.3117,68.3636 72.1451,69.3636 71,70.5C 70.586,70.0426 70.086,69.7093 69.5,69.5C 65.8568,71.9503 65.5234,74.7836 68.5,78C 71.7052,78.6488 74.7052,79.8155 77.5,81.5C 81.9074,80.2101 84.9074,77.3767 86.5,73C 84.6625,67.9326 80.9958,66.0992 75.5,67.5C 80.5,66.8333 85.5,66.1667 90.5,65.5 Z"/></g>
<g><path style="opacity:1" fill="#bca391" d="M 74.5,67.5 C 74.8333,67.5 75.1667,67.5 75.5,67.5C 80.9958,66.0992 84.6625,67.9326 86.5,73C 84.9074,77.3767 81.9074,80.2101 77.5,81.5C 74.7052,79.8155 71.7052,78.6488 68.5,78C 65.5234,74.7836 65.8568,71.9503 69.5,69.5C 70.086,69.7093 70.586,70.0426 71,70.5C 72.1451,69.3636 73.3117,68.3636 74.5,67.5 Z"/></g>
<g><path style="opacity:1" fill="#724624" d="M 166.5,78.5 C 167.971,80.0315 169.804,81.0315 172,81.5C 173.376,81.3158 174.209,80.6491 174.5,79.5C 174.833,79.5 175.167,79.5 175.5,79.5C 177.05,80.7199 178.716,80.7199 180.5,79.5C 180.5,80.1667 180.5,80.8333 180.5,81.5C 180.714,83.1439 180.38,84.6439 179.5,86C 177.19,86.4966 174.857,86.6633 172.5,86.5C 170.738,86.6427 169.071,86.3094 167.5,85.5C 166.526,83.2573 166.192,80.924 166.5,78.5 Z"/></g>
<g><path style="opacity:1" fill="#705e53" d="M 59.5,77.5 C 60.5686,79.9687 61.9019,82.3021 63.5,84.5C 63.62,85.5862 64.2867,86.2528 65.5,86.5C 73.0505,84.8568 80.7171,84.0235 88.5,84C 90.5766,82.295 92.91,81.1283 95.5,80.5C 94.8825,82.2292 93.8825,83.7292 92.5,85C 89.9293,85.9009 87.596,87.2342 85.5,89C 82.0867,89.9716 78.7534,90.1383 75.5,89.5C 72.2234,89.2161 69.0567,89.5495 66,90.5C 62.9893,89.9846 61.156,88.3179 60.5,85.5C 58.5797,82.6612 56.9131,79.6612 55.5,76.5C 55.369,75.7611 55.5357,75.0944 56,74.5C 56.6667,75.8333 57.3333,75.8333 58,74.5C 58.2321,75.7375 58.7321,76.7375 59.5,77.5 Z"/></g>
<g><path style="opacity:1" fill="#363028" d="M 111.5,100.5 C 106.353,104.979 102.353,110.313 99.5,116.5C 98.8826,116.611 98.3826,116.944 98,117.5C 97.5034,119.81 97.3367,122.143 97.5,124.5C 99.5,124.833 101.5,125.167 103.5,125.5C 101.543,129.994 98.5427,131.327 94.5,129.5C 93.5224,129.977 92.6891,130.643 92,131.5C 92.1794,128.911 93.0128,126.411 94.5,124C 94.3232,121.868 93.3232,120.868 91.5,121C 88.8366,126.847 85.5032,132.347 81.5,137.5C 82.9715,137.406 84.1382,138.406 85,140.5C 85.4696,141.577 85.3029,142.577 84.5,143.5C 74.8333,143.5 65.1667,143.5 55.5,143.5C 53.6932,139.886 51.8599,136.22 50,132.5C 49.3292,131.748 48.4959,131.414 47.5,131.5C 47.9175,130.778 48.5842,130.278 49.5,130C 47.8807,129.764 46.8807,128.931 46.5,127.5C 47.1499,127.804 47.8165,128.137 48.5,128.5C 61.3489,119.242 74.6822,110.742 88.5,103C 93.3419,98.6593 98.3419,94.4927 103.5,90.5C 104.847,91.1712 106.014,91.1712 107,90.5C 107.308,91.3081 107.808,91.9747 108.5,92.5C 109.711,91.7261 109.711,90.8928 108.5,90C 110.754,88.6233 112.92,87.1233 115,85.5C 114.62,89.4161 112.787,92.5828 109.5,95C 110.585,97.1131 111.252,98.9465 111.5,100.5 Z"/></g>
<g><path style="opacity:1" fill="#a59ca6" d="M 123.5,50.5 C 124.833,50.5 126.167,50.5 127.5,50.5C 127.5,50.8333 127.5,51.1667 127.5,51.5C 126.046,56.8008 124.546,62.1342 123,67.5C 120.235,71.2608 117.902,75.2608 116,79.5C 111.308,82.7001 107.141,86.3668 103.5,90.5C 98.3419,94.4927 93.3419,98.6593 88.5,103C 74.6822,110.742 61.3489,119.242 48.5,128.5C 47.8165,128.137 47.1499,127.804 46.5,127.5C 45.2721,125.99 45.2721,124.49 46.5,123C 57.3134,116.945 67.6467,110.445 77.5,103.5C 81.5464,100.817 85.5464,98.1501 89.5,95.5C 95.2326,90.4273 101.233,85.7607 107.5,81.5C 110.679,79.4797 113.179,76.813 115,73.5C 116.136,71.257 116.97,68.9237 117.5,66.5C 118.644,62.0284 119.477,57.3617 120,52.5C 121.302,51.9152 122.469,51.2485 123.5,50.5 Z"/></g>
<g><path style="opacity:1" fill="#c7662f" d="M 238.5,77.5 C 239.605,78.6005 240.938,79.2671 242.5,79.5C 242.768,81.099 242.434,82.4324 241.5,83.5C 239.504,81.6668 237.171,81.1668 234.5,82C 231.59,86.2211 228.59,90.3878 225.5,94.5C 221.526,96.4901 218.026,95.4901 215,91.5C 214.329,92.2524 213.496,92.5858 212.5,92.5C 209.282,86.5912 205.616,86.2579 201.5,91.5C 200.548,93.0453 200.215,94.712 200.5,96.5C 199.141,93.141 196.808,90.8076 193.5,89.5C 193.721,86.9327 194.388,84.5994 195.5,82.5C 195.435,82.9382 195.601,83.2716 196,83.5C 197.648,82.283 199.481,81.4497 201.5,81C 207.833,79.8333 214.167,78.6667 220.5,77.5C 223.108,79.1076 224.442,81.4409 224.5,84.5C 229.007,81.7798 233.674,79.4465 238.5,77.5 Z"/></g>
<g><path style="opacity:1" fill="#5a1f07" d="M 241.5,83.5 C 241.606,86.0786 240.939,88.412 239.5,90.5C 236.786,89.137 234.119,89.3037 231.5,91C 226.965,96.5692 222.799,102.403 219,108.5C 214.445,113.109 209.111,116.443 203,118.5C 200.325,118.343 198.159,117.343 196.5,115.5C 196.56,114.957 196.893,114.624 197.5,114.5C 201.522,117.155 205.522,116.989 209.5,114C 212.818,109.926 216.652,106.426 221,103.5C 222.727,100.609 224.227,97.6086 225.5,94.5C 228.59,90.3878 231.59,86.2211 234.5,82C 237.171,81.1668 239.504,81.6668 241.5,83.5 Z"/></g>
<g><path style="opacity:1" fill="#eead48" d="M 131.5,83.5 C 132.429,82.6851 133.429,81.8518 134.5,81C 143.167,80.6667 151.833,80.3333 160.5,80C 161.381,79.2917 162.047,78.4584 162.5,77.5C 163.14,75.668 164.14,75.3347 165.5,76.5C 164.389,77.6113 163.722,78.9446 163.5,80.5C 164.223,82.7822 164.557,85.1155 164.5,87.5C 167.425,87.4598 170.091,88.2932 172.5,90C 167.486,92.5578 162.153,93.5578 156.5,93C 147.702,90.6359 139.036,87.9693 130.5,85C 131.056,84.6174 131.389,84.1174 131.5,83.5 Z"/></g>
<g><path style="opacity:1" fill="#411e05" d="M 89.5,95.5 C 85.5464,98.1501 81.5464,100.817 77.5,103.5C 77.33,102.178 77.6634,101.011 78.5,100C 76.869,97.1958 74.5356,95.3624 71.5,94.5C 71.5569,93.391 71.8902,92.391 72.5,91.5C 73.7095,91.0679 74.7095,90.4013 75.5,89.5C 78.7534,90.1383 82.0867,89.9716 85.5,89C 87.596,87.2342 89.9293,85.9009 92.5,85C 93.8825,83.7292 94.8825,82.2292 95.5,80.5C 96.1667,79.1667 97.1667,78.1667 98.5,77.5C 99.7942,76.7101 100.961,75.7101 102,74.5C 102.667,75.1667 102.667,75.8333 102,76.5C 96.7703,82.2114 92.6037,88.5447 89.5,95.5 Z"/></g>
<g><path style="opacity:1" fill="#c89040" d="M 170.5,63.5 C 170.369,64.2389 170.536,64.9056 171,65.5C 171.671,64.7476 172.504,64.4142 173.5,64.5C 173.167,65.1667 172.833,65.8333 172.5,66.5C 171.167,66.5 170.5,67.1667 170.5,68.5C 168.103,71.309 166.77,74.6424 166.5,78.5C 166.192,80.924 166.526,83.2573 167.5,85.5C 169.071,86.3094 170.738,86.6427 172.5,86.5C 174.5,87.1667 176.5,87.8333 178.5,88.5C 178.433,89.9587 178.766,91.2921 179.5,92.5C 174.043,93.6585 168.71,94.9918 163.5,96.5C 164.66,94.7973 163.993,94.1307 161.5,94.5C 155.828,94.1328 150.161,93.6328 144.5,93C 139.017,91.3961 133.684,89.5628 128.5,87.5C 128.5,86.1667 128.5,84.8333 128.5,83.5C 128.5,83.1667 128.5,82.8333 128.5,82.5C 129.167,82.1667 129.833,81.8333 130.5,81.5C 130.328,82.4916 130.662,83.1583 131.5,83.5C 131.389,84.1174 131.056,84.6174 130.5,85C 139.036,87.9693 147.702,90.6359 156.5,93C 162.153,93.5578 167.486,92.5578 172.5,90C 170.091,88.2932 167.425,87.4598 164.5,87.5C 164.557,85.1155 164.223,82.7822 163.5,80.5C 163.722,78.9446 164.389,77.6113 165.5,76.5C 164.14,75.3347 163.14,75.668 162.5,77.5C 161.833,77.5 161.167,77.5 160.5,77.5C 161.401,75.2729 163.067,74.2729 165.5,74.5C 165.834,70.0546 167.5,66.3879 170.5,63.5 Z"/></g>
<g><path style="opacity:1" fill="#9b6a45" d="M 242.5,79.5 C 243.338,79.8417 243.672,80.5084 243.5,81.5C 243.931,86.207 242.598,90.207 239.5,93.5C 239.167,93.5 238.833,93.5 238.5,93.5C 238.557,92.391 238.89,91.391 239.5,90.5C 240.939,88.412 241.606,86.0786 241.5,83.5C 242.434,82.4324 242.768,81.099 242.5,79.5 Z"/></g>
<g><path style="opacity:1" fill="#34302f" d="M 14.5,82.5 C 12.7795,86.9422 10.7795,91.2756 8.5,95.5C 8.26714,97.0618 7.60048,98.3951 6.5,99.5C 4.0202,100.242 1.68686,101.242 -0.5,102.5C -0.5,101.167 -0.5,99.8333 -0.5,98.5C 1.71474,95.4039 3.38141,92.0705 4.5,88.5C 4.35055,89.552 4.51722,90.552 5,91.5C 8.66021,89.0061 11.8269,86.0061 14.5,82.5 Z"/></g>
<g><path style="opacity:1" fill="#97682c" d="M 128.5,83.5 C 128.5,84.8333 128.5,86.1667 128.5,87.5C 133.684,89.5628 139.017,91.3961 144.5,93C 150.161,93.6328 155.828,94.1328 161.5,94.5C 149.79,95.7393 138.123,94.7393 126.5,91.5C 126.784,93.4147 126.451,95.0813 125.5,96.5C 124.604,97.5063 123.938,97.5063 123.5,96.5C 123.179,94.9519 122.179,94.2852 120.5,94.5C 121.209,93.596 122.209,93.2627 123.5,93.5C 124.127,89.5799 125.793,86.2466 128.5,83.5 Z"/></g>
<g><path style="opacity:1" fill="#c16d3f" d="M 195.5,80.5 C 195.5,81.1667 195.5,81.8333 195.5,82.5C 194.388,84.5994 193.721,86.9327 193.5,89.5C 191.182,91.1852 190.182,93.5185 190.5,96.5C 190.5,96.8333 190.5,97.1667 190.5,97.5C 189.542,97.9528 188.708,98.6195 188,99.5C 186.115,94.9538 183.448,90.9538 180,87.5C 179.617,88.056 179.117,88.3893 178.5,88.5C 176.5,87.8333 174.5,87.1667 172.5,86.5C 174.857,86.6633 177.19,86.4966 179.5,86C 180.38,84.6439 180.714,83.1439 180.5,81.5C 180.833,81.5 181.167,81.5 181.5,81.5C 181.351,82.552 181.517,83.552 182,84.5C 184.967,81.7563 188.3,81.0896 192,82.5C 193.303,82.0217 194.469,81.355 195.5,80.5 Z"/></g>
<g><path style="opacity:1" fill="#b1552d" d="M 193.5,89.5 C 196.808,90.8076 199.141,93.141 200.5,96.5C 200.413,101.537 200.746,106.537 201.5,111.5C 199.636,110.18 197.969,108.513 196.5,106.5C 194.804,102.844 192.804,99.5111 190.5,96.5C 190.182,93.5185 191.182,91.1852 193.5,89.5 Z"/></g>
<g><path style="opacity:1" fill="#fbd7ab" d="M 243.5,81.5 C 247.5,81.5 251.5,81.5 255.5,81.5C 255.5,83.5 255.5,85.5 255.5,87.5C 252.013,90.4192 248.513,93.4192 245,96.5C 244.417,100.918 241.917,102.918 237.5,102.5C 237.756,99.4021 238.422,96.4021 239.5,93.5C 242.598,90.207 243.931,86.207 243.5,81.5 Z"/></g>
<g><path style="opacity:1" fill="#6d432b" d="M 29.5,99.5 C 30.2022,100.116 31.2022,100.116 32.5,99.5C 32.8204,102.898 32.487,106.232 31.5,109.5C 26.8337,111.567 22.5003,113.901 18.5,116.5C 17.8333,116.5 17.5,116.167 17.5,115.5C 15.7511,111.655 14.2511,107.655 13,103.5C 11.3888,101.277 9.22216,99.9438 6.5,99.5C 7.60048,98.3951 8.26714,97.0618 8.5,95.5C 11.2281,93.7119 14.2281,93.2119 17.5,94C 21.4023,96.1189 25.4023,97.9523 29.5,99.5 Z"/></g>
<g><path style="opacity:1" fill="#2b1c13" d="M 71.5,94.5 C 74.5356,95.3624 76.869,97.1958 78.5,100C 77.6634,101.011 77.33,102.178 77.5,103.5C 67.6467,110.445 57.3134,116.945 46.5,123C 45.2721,124.49 45.2721,125.99 46.5,127.5C 46.8807,128.931 47.8807,129.764 49.5,130C 48.5842,130.278 47.9175,130.778 47.5,131.5C 43.326,134.088 38.9926,136.421 34.5,138.5C 35.9788,136.223 37.4788,133.89 39,131.5C 37.7697,124.995 40.2697,120.995 46.5,119.5C 46.1667,118.833 45.8333,118.167 45.5,117.5C 46.7923,113.757 48.2923,110.091 50,106.5C 52.6269,105.686 54.9602,104.353 57,102.5C 58.6134,103.622 59.7801,103.122 60.5,101C 64.0409,99.5597 67.7076,98.7264 71.5,98.5C 71.5,97.1667 71.5,95.8333 71.5,94.5 Z"/></g>
<g><path style="opacity:1" fill="#894e2b" d="M 190.5,97.5 C 190.81,100.713 190.477,103.713 189.5,106.5C 188.5,106.5 187.5,106.5 186.5,106.5C 185.358,109.38 184.358,112.38 183.5,115.5C 186.878,117.917 187.212,120.584 184.5,123.5C 184.5,123.833 184.5,124.167 184.5,124.5C 183.5,124.5 182.5,124.5 181.5,124.5C 181.491,117.186 180.324,116.853 178,123.5C 177.501,127.486 177.334,131.486 177.5,135.5C 175.611,134.396 173.945,133.063 172.5,131.5C 173.338,131.158 173.672,130.492 173.5,129.5C 175.229,125.36 175.562,121.027 174.5,116.5C 173.5,116 172.5,115.5 171.5,115C 175.305,115.236 178.971,116.069 182.5,117.5C 182.52,115.857 181.853,114.524 180.5,113.5C 183.568,111.506 184.235,108.839 182.5,105.5C 183.167,104.5 183.833,103.5 184.5,102.5C 183.179,99.692 181.846,97.0254 180.5,94.5C 180.167,93.8333 179.833,93.1667 179.5,92.5C 178.766,91.2921 178.433,89.9587 178.5,88.5C 179.117,88.3893 179.617,88.056 180,87.5C 183.448,90.9538 186.115,94.9538 188,99.5C 188.708,98.6195 189.542,97.9528 190.5,97.5 Z"/></g>
<g><path style="opacity:1" fill="#726d75" d="M 6.5,99.5 C 9.22216,99.9438 11.3888,101.277 13,103.5C 14.2511,107.655 15.7511,111.655 17.5,115.5C 15.2009,114.222 12.8676,112.889 10.5,111.5C 9.91395,111.709 9.41395,112.043 9,112.5C 8.8171,115.365 8.3171,118.031 7.5,120.5C 6.05945,115.261 3.39279,110.928 -0.5,107.5C -0.5,105.833 -0.5,104.167 -0.5,102.5C 1.68686,101.242 4.0202,100.242 6.5,99.5 Z"/></g>
<g><path style="opacity:1" fill="#d9c3b1" d="M 179.5,92.5 C 179.833,93.1667 180.167,93.8333 180.5,94.5C 179.308,97.5622 177.808,100.562 176,103.5C 174.857,106.777 174.023,110.11 173.5,113.5C 172.5,113.5 171.5,113.5 170.5,113.5C 165.798,111.16 161.131,108.827 156.5,106.5C 153.677,103.468 154.01,100.801 157.5,98.5C 159.214,97.2616 161.214,96.595 163.5,96.5C 168.71,94.9918 174.043,93.6585 179.5,92.5 Z"/></g>
<g><path style="opacity:1" fill="#e3c4a3" d="M 255.5,87.5 C 255.5,92.8333 255.5,98.1667 255.5,103.5C 251.848,105.14 248.848,107.474 246.5,110.5C 244.421,110.971 242.421,111.637 240.5,112.5C 237.833,112.5 235.167,112.5 232.5,112.5C 234.765,106.291 236.765,99.9572 238.5,93.5C 238.833,93.5 239.167,93.5 239.5,93.5C 238.422,96.4021 237.756,99.4021 237.5,102.5C 241.917,102.918 244.417,100.918 245,96.5C 248.513,93.4192 252.013,90.4192 255.5,87.5 Z"/></g>
<g><path style="opacity:1" fill="#a65620" d="M 123.5,96.5 C 123.938,97.5063 124.604,97.5063 125.5,96.5C 125.082,99.0896 124.082,101.423 122.5,103.5C 123.414,105.664 124.581,107.664 126,109.5C 126.749,110.635 126.583,111.635 125.5,112.5C 121.906,111.574 118.24,111.241 114.5,111.5C 115.063,109.09 115.563,106.757 116,104.5C 111.926,109.079 107.426,113.079 102.5,116.5C 107.603,107.728 114.603,101.061 123.5,96.5 Z"/></g>
<g><path style="opacity:1" fill="#936f5e" d="M 157.5,98.5 C 154.01,100.801 153.677,103.468 156.5,106.5C 154.938,106.267 153.605,105.6 152.5,104.5C 151.976,100.69 153.643,98.6897 157.5,98.5 Z"/></g>
<g><path style="opacity:1" fill="#966649" d="M 180.5,94.5 C 181.846,97.0254 183.179,99.692 184.5,102.5C 183.833,103.5 183.167,104.5 182.5,105.5C 184.235,108.839 183.568,111.506 180.5,113.5C 181.853,114.524 182.52,115.857 182.5,117.5C 178.971,116.069 175.305,115.236 171.5,115C 172.5,115.5 173.5,116 174.5,116.5C 175.562,121.027 175.229,125.36 173.5,129.5C 172.655,125.479 171.488,121.479 170,117.5C 165.597,118.873 163.431,117.207 163.5,112.5C 165.6,112.477 167.433,113.144 169,114.5C 169.765,114.43 170.265,114.097 170.5,113.5C 171.5,113.5 172.5,113.5 173.5,113.5C 174.023,110.11 174.857,106.777 176,103.5C 177.808,100.562 179.308,97.5622 180.5,94.5 Z"/></g>
<g><path style="opacity:1" fill="#6f5140" d="M 255.5,103.5 C 255.5,104.5 255.5,105.5 255.5,106.5C 253.447,106.402 251.78,107.069 250.5,108.5C 249.395,109.6 248.062,110.267 246.5,110.5C 248.848,107.474 251.848,105.14 255.5,103.5 Z"/></g>
<g><path style="opacity:1" fill="#be6444" d="M 212.5,92.5 C 210.245,97.1791 208.745,102.179 208,107.5C 206.974,110.693 204.808,112.026 201.5,111.5C 200.746,106.537 200.413,101.537 200.5,96.5C 200.215,94.712 200.548,93.0453 201.5,91.5C 205.616,86.2579 209.282,86.5912 212.5,92.5 Z"/></g>
<g><path style="opacity:1" fill="#be9b78" d="M 238.5,93.5 C 236.765,99.9572 234.765,106.291 232.5,112.5C 235.167,112.5 237.833,112.5 240.5,112.5C 237.505,114.243 234.171,115.243 230.5,115.5C 230.5,113.833 230.5,112.167 230.5,110.5C 232.411,105.269 234.244,99.9354 236,94.5C 236.671,93.7476 237.504,93.4142 238.5,93.5 Z"/></g>
<g><path style="opacity:1" fill="#31221c" d="M 72.5,91.5 C 71.8902,92.391 71.5569,93.391 71.5,94.5C 71.5,95.8333 71.5,97.1667 71.5,98.5C 67.7076,98.7264 64.0409,99.5597 60.5,101C 59.7801,103.122 58.6134,103.622 57,102.5C 54.9602,104.353 52.6269,105.686 50,106.5C 48.2923,110.091 46.7923,113.757 45.5,117.5C 45.8333,118.167 46.1667,118.833 46.5,119.5C 40.2697,120.995 37.7697,124.995 39,131.5C 37.4788,133.89 35.9788,136.223 34.5,138.5C 31.8333,140.167 29.1667,141.833 26.5,143.5C 23.1667,143.5 19.8333,143.5 16.5,143.5C 17.4196,139.477 19.0863,135.811 21.5,132.5C 23.1958,132.315 24.5291,131.481 25.5,130C 34.7308,131.46 38.2308,127.626 36,118.5C 34.2333,112.14 33.0666,105.807 32.5,99.5C 31.0243,97.7704 31.3576,96.4371 33.5,95.5C 34.1075,100.344 35.1075,105.011 36.5,109.5C 36.56,110.043 36.8933,110.376 37.5,110.5C 38.2868,109.758 38.9535,108.925 39.5,108C 43.6059,108.064 47.2726,106.897 50.5,104.5C 53.0202,98.7594 56.1868,93.426 60,88.5C 60.6924,89.0253 61.1924,89.6919 61.5,90.5C 65.1073,91.4892 68.774,91.8226 72.5,91.5 Z"/></g>
<g><path style="opacity:1" fill="#9d4524" d="M 225.5,94.5 C 224.227,97.6086 222.727,100.609 221,103.5C 216.652,106.426 212.818,109.926 209.5,114C 205.522,116.989 201.522,117.155 197.5,114.5C 196.893,114.624 196.56,114.957 196.5,115.5C 193.791,112.792 191.458,109.792 189.5,106.5C 190.477,103.713 190.81,100.713 190.5,97.5C 190.5,97.1667 190.5,96.8333 190.5,96.5C 192.804,99.5111 194.804,102.844 196.5,106.5C 197.969,108.513 199.636,110.18 201.5,111.5C 204.808,112.026 206.974,110.693 208,107.5C 208.745,102.179 210.245,97.1791 212.5,92.5C 213.496,92.5858 214.329,92.2524 215,91.5C 218.026,95.4901 221.526,96.4901 225.5,94.5 Z"/></g>
<g><path style="opacity:1" fill="#7d4202" d="M 239.5,90.5 C 238.89,91.391 238.557,92.391 238.5,93.5C 237.504,93.4142 236.671,93.7476 236,94.5C 234.244,99.9354 232.411,105.269 230.5,110.5C 229.833,110.5 229.5,110.833 229.5,111.5C 228.837,113.042 228.17,114.709 227.5,116.5C 215.019,120.426 202.352,121.926 189.5,121C 189.957,121.414 190.291,121.914 190.5,122.5C 188.604,123.466 186.604,123.799 184.5,123.5C 187.212,120.584 186.878,117.917 183.5,115.5C 184.358,112.38 185.358,109.38 186.5,106.5C 187.5,106.5 188.5,106.5 189.5,106.5C 191.458,109.792 193.791,112.792 196.5,115.5C 198.159,117.343 200.325,118.343 203,118.5C 209.111,116.443 214.445,113.109 219,108.5C 222.799,102.403 226.965,96.5692 231.5,91C 234.119,89.3037 236.786,89.137 239.5,90.5 Z"/></g>
<g><path style="opacity:1" fill="#e18841" d="M 120.5,94.5 C 122.179,94.2852 123.179,94.9519 123.5,96.5C 114.603,101.061 107.603,107.728 102.5,116.5C 101.348,117.625 100.348,117.625 99.5,116.5C 102.353,110.313 106.353,104.979 111.5,100.5C 114.5,98.5 117.5,96.5 120.5,94.5 Z"/></g>
<g><path style="opacity:1" fill="#452718" d="M 32.5,99.5 C 33.0666,105.807 34.2333,112.14 36,118.5C 38.2308,127.626 34.7308,131.46 25.5,130C 24.5291,131.481 23.1958,132.315 21.5,132.5C 22.0138,130.634 22.6805,128.8 23.5,127C 21.9063,123.343 20.2396,119.843 18.5,116.5C 22.5003,113.901 26.8337,111.567 31.5,109.5C 32.487,106.232 32.8204,102.898 32.5,99.5 Z"/></g>
<g><path style="opacity:1" fill="#49110b" d="M 152.5,104.5 C 153.605,105.6 154.938,106.267 156.5,106.5C 161.131,108.827 165.798,111.16 170.5,113.5C 170.265,114.097 169.765,114.43 169,114.5C 167.433,113.144 165.6,112.477 163.5,112.5C 163.431,117.207 165.597,118.873 170,117.5C 171.488,121.479 172.655,125.479 173.5,129.5C 173.672,130.492 173.338,131.158 172.5,131.5C 171.5,129.167 169.833,127.5 167.5,126.5C 167.167,125.5 166.5,124.833 165.5,124.5C 160.59,120.612 155.59,116.612 150.5,112.5C 149.311,111.571 147.978,111.238 146.5,111.5C 145.879,107.915 143.879,105.581 140.5,104.5C 138.168,103.838 137.501,102.505 138.5,100.5C 143.057,102.212 147.724,103.545 152.5,104.5 Z"/></g>
<g><path style="opacity:1" fill="#724932" d="M 230.5,110.5 C 230.5,112.167 230.5,113.833 230.5,115.5C 234.171,115.243 237.505,114.243 240.5,112.5C 242.421,111.637 244.421,110.971 246.5,110.5C 241.795,114.849 236.128,116.849 229.5,116.5C 229.5,114.833 229.5,113.167 229.5,111.5C 229.5,110.833 229.833,110.5 230.5,110.5 Z"/></g>
<g><path style="opacity:1" fill="#4f140e" d="M 255.5,106.5 C 255.5,114.167 255.5,121.833 255.5,129.5C 249.689,131.575 244.022,133.908 238.5,136.5C 236.302,136.12 234.635,136.787 233.5,138.5C 227.9,139.814 222.567,141.481 217.5,143.5C 206.833,143.5 196.167,143.5 185.5,143.5C 185.5,143.167 185.5,142.833 185.5,142.5C 186.922,142.291 188.255,141.791 189.5,141C 186.833,140.333 186.833,139.667 189.5,139C 201.229,135.923 212.563,131.757 223.5,126.5C 225.064,127.186 226.731,127.019 228.5,126C 226.527,125.505 224.527,125.338 222.5,125.5C 225.878,123.433 229.545,122.1 233.5,121.5C 234.552,121.649 235.552,121.483 236.5,121C 240.622,117.008 245.622,114.841 251.5,114.5C 251.795,112.265 251.461,110.265 250.5,108.5C 251.78,107.069 253.447,106.402 255.5,106.5 Z"/></g>
<g><path style="opacity:1" fill="#7b3405" d="M 161.5,94.5 C 163.993,94.1307 164.66,94.7973 163.5,96.5C 161.214,96.595 159.214,97.2616 157.5,98.5C 153.643,98.6897 151.976,100.69 152.5,104.5C 147.724,103.545 143.057,102.212 138.5,100.5C 137.501,102.505 138.168,103.838 140.5,104.5C 139.327,107.847 139.493,111.18 141,114.5C 146.813,123.203 149.98,132.87 150.5,143.5C 147.833,143.5 145.167,143.5 142.5,143.5C 140.298,136.764 137.298,130.43 133.5,124.5C 131.955,123.548 130.288,123.215 128.5,123.5C 124.629,122.239 124.629,120.906 128.5,119.5C 129.452,117.955 129.785,116.288 129.5,114.5C 126.656,113.942 123.822,113.275 121,112.5C 119.634,112.706 118.301,113.04 117,113.5C 114.25,116.707 111.417,119.707 108.5,122.5C 106.435,122.953 104.768,123.953 103.5,125.5C 101.5,125.167 99.5,124.833 97.5,124.5C 97.3367,122.143 97.5034,119.81 98,117.5C 98.3826,116.944 98.8826,116.611 99.5,116.5C 100.348,117.625 101.348,117.625 102.5,116.5C 107.426,113.079 111.926,109.079 116,104.5C 115.563,106.757 115.063,109.09 114.5,111.5C 118.24,111.241 121.906,111.574 125.5,112.5C 126.583,111.635 126.749,110.635 126,109.5C 124.581,107.664 123.414,105.664 122.5,103.5C 124.082,101.423 125.082,99.0896 125.5,96.5C 126.451,95.0813 126.784,93.4147 126.5,91.5C 138.123,94.7393 149.79,95.7393 161.5,94.5 Z"/></g>
<g><path style="opacity:1" fill="#672709" d="M 128.5,123.5 C 124.628,123.282 120.961,122.282 117.5,120.5C 114.621,121.795 111.621,122.462 108.5,122.5C 111.417,119.707 114.25,116.707 117,113.5C 118.301,113.04 119.634,112.706 121,112.5C 123.822,113.275 126.656,113.942 129.5,114.5C 129.785,116.288 129.452,117.955 128.5,119.5C 124.629,120.906 124.629,122.239 128.5,123.5 Z"/></g>
<g><path style="opacity:1" fill="#332e25" d="M 103.5,125.5 C 104.768,123.953 106.435,122.953 108.5,122.5C 111.621,122.462 114.621,121.795 117.5,120.5C 120.961,122.282 124.628,123.282 128.5,123.5C 130.288,123.215 131.955,123.548 133.5,124.5C 137.298,130.43 140.298,136.764 142.5,143.5C 123.167,143.5 103.833,143.5 84.5,143.5C 85.3029,142.577 85.4696,141.577 85,140.5C 84.1382,138.406 82.9715,137.406 81.5,137.5C 85.5032,132.347 88.8366,126.847 91.5,121C 93.3232,120.868 94.3232,121.868 94.5,124C 93.0128,126.411 92.1794,128.911 92,131.5C 92.6891,130.643 93.5224,129.977 94.5,129.5C 98.5427,131.327 101.543,129.994 103.5,125.5 Z"/></g>
<g><path style="opacity:1" fill="#753a07" d="M 250.5,108.5 C 251.461,110.265 251.795,112.265 251.5,114.5C 245.622,114.841 240.622,117.008 236.5,121C 235.552,121.483 234.552,121.649 233.5,121.5C 233.804,120.85 234.137,120.183 234.5,119.5C 231.554,118.345 228.554,118.179 225.5,119C 222.956,120.092 220.289,120.759 217.5,121C 216.663,122.011 216.33,123.178 216.5,124.5C 215.209,122.685 213.376,121.685 211,121.5C 206.759,124.255 202.092,126.255 197,127.5C 192.778,126.161 188.611,125.161 184.5,124.5C 184.5,124.167 184.5,123.833 184.5,123.5C 186.604,123.799 188.604,123.466 190.5,122.5C 190.291,121.914 189.957,121.414 189.5,121C 202.352,121.926 215.019,120.426 227.5,116.5C 228.17,114.709 228.837,113.042 229.5,111.5C 229.5,113.167 229.5,114.833 229.5,116.5C 236.128,116.849 241.795,114.849 246.5,110.5C 248.062,110.267 249.395,109.6 250.5,108.5 Z"/></g>
<g><path style="opacity:1" fill="#904e01" d="M 233.5,121.5 C 229.545,122.1 225.878,123.433 222.5,125.5C 220.379,125.675 218.379,125.341 216.5,124.5C 216.33,123.178 216.663,122.011 217.5,121C 220.289,120.759 222.956,120.092 225.5,119C 228.554,118.179 231.554,118.345 234.5,119.5C 234.137,120.183 233.804,120.85 233.5,121.5 Z"/></g>
<g><path style="opacity:1" fill="#e5c9b0" d="M 146.5,111.5 C 147.978,111.238 149.311,111.571 150.5,112.5C 155.59,116.612 160.59,120.612 165.5,124.5C 165.949,126.977 165.283,128.977 163.5,130.5C 161.02,128.294 158.686,125.961 156.5,123.5C 154.589,122.523 152.589,121.857 150.5,121.5C 147.082,119.199 145.749,115.866 146.5,111.5 Z"/></g>
<g><path style="opacity:1" fill="#4a0f07" d="M 184.5,124.5 C 188.611,125.161 192.778,126.161 197,127.5C 202.092,126.255 206.759,124.255 211,121.5C 213.376,121.685 215.209,122.685 216.5,124.5C 218.379,125.341 220.379,125.675 222.5,125.5C 224.527,125.338 226.527,125.505 228.5,126C 226.731,127.019 225.064,127.186 223.5,126.5C 212.563,131.757 201.229,135.923 189.5,139C 186.833,139.667 186.833,140.333 189.5,141C 188.255,141.791 186.922,142.291 185.5,142.5C 183.5,140.833 181.5,139.167 179.5,137.5C 178.833,136.833 178.167,136.167 177.5,135.5C 177.334,131.486 177.501,127.486 178,123.5C 180.324,116.853 181.491,117.186 181.5,124.5C 182.5,124.5 183.5,124.5 184.5,124.5 Z"/></g>
<g><path style="opacity:1" fill="#804828" d="M 140.5,104.5 C 143.879,105.581 145.879,107.915 146.5,111.5C 145.749,115.866 147.082,119.199 150.5,121.5C 152.023,124.069 153.357,126.736 154.5,129.5C 153.35,128.15 152.683,128.316 152.5,130C 153.161,132.464 153.661,134.964 154,137.5C 156.127,139.114 157.627,141.114 158.5,143.5C 155.833,143.5 153.167,143.5 150.5,143.5C 149.98,132.87 146.813,123.203 141,114.5C 139.493,111.18 139.327,107.847 140.5,104.5 Z"/></g>
<g><path style="opacity:1" fill="#c1a288" d="M 150.5,121.5 C 152.589,121.857 154.589,122.523 156.5,123.5C 158.686,125.961 161.02,128.294 163.5,130.5C 165.283,128.977 165.949,126.977 165.5,124.5C 166.5,124.833 167.167,125.5 167.5,126.5C 167.302,130.092 166.302,133.426 164.5,136.5C 162.801,136.66 161.134,136.494 159.5,136C 157.934,133.674 156.268,131.508 154.5,129.5C 153.357,126.736 152.023,124.069 150.5,121.5 Z"/></g>
<g><path style="opacity:1" fill="#46291a" d="M -0.5,107.5 C 3.39279,110.928 6.05945,115.261 7.5,120.5C 8.31311,125.014 9.64644,129.347 11.5,133.5C 11.0633,136.374 10.0633,139.041 8.5,141.5C 5.38224,134.769 2.38224,128.102 -0.5,121.5C -0.5,116.833 -0.5,112.167 -0.5,107.5 Z"/></g>
<g><path style="opacity:1" fill="#40383a" d="M 17.5,115.5 C 17.5,116.167 17.8333,116.5 18.5,116.5C 20.2396,119.843 21.9063,123.343 23.5,127C 22.6805,128.8 22.0138,130.634 21.5,132.5C 19.0863,135.811 17.4196,139.477 16.5,143.5C 10.8333,143.5 5.16667,143.5 -0.5,143.5C -0.5,136.167 -0.5,128.833 -0.5,121.5C 2.38224,128.102 5.38224,134.769 8.5,141.5C 10.0633,139.041 11.0633,136.374 11.5,133.5C 9.64644,129.347 8.31311,125.014 7.5,120.5C 8.3171,118.031 8.8171,115.365 9,112.5C 9.41395,112.043 9.91395,111.709 10.5,111.5C 12.8676,112.889 15.2009,114.222 17.5,115.5 Z"/></g>
<g><path style="opacity:1" fill="#dfdacb" d="M 47.5,131.5 C 48.4959,131.414 49.3292,131.748 50,132.5C 51.8599,136.22 53.6932,139.886 55.5,143.5C 45.8333,143.5 36.1667,143.5 26.5,143.5C 29.1667,141.833 31.8333,140.167 34.5,138.5C 38.9926,136.421 43.326,134.088 47.5,131.5 Z"/></g>
<g><path style="opacity:1" fill="#864601" d="M 167.5,126.5 C 169.833,127.5 171.5,129.167 172.5,131.5C 173.945,133.063 175.611,134.396 177.5,135.5C 178.167,136.167 178.833,136.833 179.5,137.5C 179.414,138.496 179.748,139.329 180.5,140C 178.674,140.292 176.841,140.125 175,139.5C 173.289,139.439 171.956,140.106 171,141.5C 169.266,140.751 167.433,140.251 165.5,140C 164.663,138.989 164.33,137.822 164.5,136.5C 166.302,133.426 167.302,130.092 167.5,126.5 Z"/></g>
<g><path style="opacity:1" fill="#cca587" d="M 255.5,129.5 C 255.5,131.5 255.5,133.5 255.5,135.5C 253.516,136.156 251.516,136.822 249.5,137.5C 248.446,137.32 247.446,136.987 246.5,136.5C 244.009,139.416 241.009,140.082 237.5,138.5C 237.863,137.817 238.196,137.15 238.5,136.5C 244.022,133.908 249.689,131.575 255.5,129.5 Z"/></g>
<g><path style="opacity:1" fill="#af8664" d="M 255.5,135.5 C 255.5,136.5 255.5,137.5 255.5,138.5C 250.175,138.681 245.508,140.348 241.5,143.5C 240.167,143.5 238.833,143.5 237.5,143.5C 236.766,142.292 236.433,140.959 236.5,139.5C 235.209,139.737 234.209,139.404 233.5,138.5C 234.635,136.787 236.302,136.12 238.5,136.5C 238.196,137.15 237.863,137.817 237.5,138.5C 241.009,140.082 244.009,139.416 246.5,136.5C 247.446,136.987 248.446,137.32 249.5,137.5C 251.516,136.822 253.516,136.156 255.5,135.5 Z"/></g>
<g><path style="opacity:1" fill="#824c27" d="M 233.5,138.5 C 234.209,139.404 235.209,139.737 236.5,139.5C 236.433,140.959 236.766,142.292 237.5,143.5C 230.833,143.5 224.167,143.5 217.5,143.5C 222.567,141.481 227.9,139.814 233.5,138.5 Z"/></g>
<g><path style="opacity:1" fill="#d37e5b" d="M 255.5,138.5 C 255.5,140.167 255.5,141.833 255.5,143.5C 250.833,143.5 246.167,143.5 241.5,143.5C 245.508,140.348 250.175,138.681 255.5,138.5 Z"/></g>
<g><path style="opacity:1" fill="#773c06" d="M 154.5,129.5 C 156.268,131.508 157.934,133.674 159.5,136C 161.134,136.494 162.801,136.66 164.5,136.5C 164.33,137.822 164.663,138.989 165.5,140C 167.433,140.251 169.266,140.751 171,141.5C 171.956,140.106 173.289,139.439 175,139.5C 176.841,140.125 178.674,140.292 180.5,140C 179.748,139.329 179.414,138.496 179.5,137.5C 181.5,139.167 183.5,140.833 185.5,142.5C 185.5,142.833 185.5,143.167 185.5,143.5C 176.5,143.5 167.5,143.5 158.5,143.5C 157.627,141.114 156.127,139.114 154,137.5C 153.661,134.964 153.161,132.464 152.5,130C 152.683,128.316 153.35,128.15 154.5,129.5 Z"/></g>
</svg>
