<?xml version="1.0" encoding="UTF-8"?>
<!DOCTYPE svg PUBLIC "-//W3C//DTD SVG 1.1//EN" "http://www.w3.org/Graphics/SVG/1.1/DTD/svg11.dtd">
<svg xmlns="http://www.w3.org/2000/svg" version="1.1" width="256px" height="144px" style="shape-rendering:geometricPrecision; text-rendering:geometricPrecision; image-rendering:optimizeQuality; fill-rule:evenodd; clip-rule:evenodd" xmlns:xlink="http://www.w3.org/1999/xlink">
<g><path style="opacity:1" fill="#142226" d="M -0.5,-0.5 C 35.5,-0.5 71.5,-0.5 107.5,-0.5C 104.118,0.897871 100.618,2.2312 97,3.5C 96.2753,2.94149 95.4419,2.60816 94.5,2.5C 90.2752,3.74196 86.1085,5.07529 82,6.5C 80.984,5.36589 80.3173,5.69923 80,7.5C 76.3838,5.23378 73.3838,5.56711 71,8.5C 69.3333,8.16667 67.6667,7.83333 66,7.5C 65.3109,8.35668 64.4776,9.02335 63.5,9.5C 60.4406,9.98459 57.2739,9.98459 54,9.5C 50.7745,10.2784 47.7745,11.6118 45,13.5C 44,13.1667 43,12.8333 42,12.5C 41.6667,13.1667 41.3333,13.8333 41,14.5C 39,14.5 37,14.5 35,14.5C 33.0314,16.3869 30.698,17.7202 28,18.5C 27.6667,17.8333 27.3333,17.1667 27,16.5C 25.8066,18.6051 24.1399,20.2718 22,21.5C 19.4428,20.3543 18.1095,21.3543 18,24.5C 17.6924,23.6919 17.1924,23.0253 16.5,22.5C 13.9082,25.5426 10.5748,27.3759 6.5,28C 7.65367,28.9138 7.48701,29.7471 6,30.5C 4.44185,29.6548 3.44185,30.3215 3,32.5C 2.01381,31.8288 0.847141,31.8288 -0.5,32.5C -0.5,21.5 -0.5,10.5 -0.5,-0.5 Z"/></g>
<g><path style="opacity:1" fill="#2d363e" d="M 129.5,-0.5 C 154.167,-0.5 178.833,-0.5 203.5,-0.5C 202.32,1.0145 201.32,2.68116 200.5,4.5C 197.919,4.1207 195.419,4.78737 193,6.5C 192.667,6.16667 192.333,5.83333 192,5.5C 189.342,6.78193 186.842,8.61526 184.5,11C 182.253,12.6548 179.92,12.9881 177.5,12C 174.9,13.4272 172.4,14.9272 170,16.5C 167.651,16.5156 165.318,16.5156 163,16.5C 161.989,16.8919 161.489,17.5585 161.5,18.5C 160.572,16.6652 159.406,16.3318 158,17.5C 157.667,16.5 157.333,15.5 157,14.5C 153.734,15.5274 150.401,17.194 147,19.5C 145.992,19.0183 144.825,18.8516 143.5,19C 144.696,18.3457 144.696,17.8457 143.5,17.5C 142.808,18.0253 142.308,18.6919 142,19.5C 140.855,18.3157 139.688,18.3157 138.5,19.5C 132.399,18.9132 126.399,17.7465 120.5,16C 113.241,12.5384 105.908,9.7051 98.5,7.5C 101.711,7.98798 104.544,7.32131 107,5.5C 107.333,5.83333 107.667,6.16667 108,6.5C 111.352,5.1662 114.685,3.83286 118,2.5C 118.772,2.6448 119.439,2.97814 120,3.5C 123.135,1.98166 126.302,0.648329 129.5,-0.5 Z"/></g>
<g><path style="opacity:1" fill="#343a44" d="M 203.5,-0.5 C 220.833,-0.5 238.167,-0.5 255.5,-0.5C 255.5,13.5 255.5,27.5 255.5,41.5C 252.116,41.3396 248.783,41.673 245.5,42.5C 235.487,37.1599 224.82,33.6599 213.5,32C 199.526,32.8859 185.526,33.2192 171.5,33C 160.614,27.8795 149.614,23.3795 138.5,19.5C 139.688,18.3157 140.855,18.3157 142,19.5C 142.308,18.6919 142.808,18.0253 143.5,17.5C 144.696,17.8457 144.696,18.3457 143.5,19C 144.825,18.8516 145.992,19.0183 147,19.5C 150.401,17.194 153.734,15.5274 157,14.5C 157.333,15.5 157.667,16.5 158,17.5C 159.406,16.3318 160.572,16.6652 161.5,18.5C 161.489,17.5585 161.989,16.8919 163,16.5C 165.318,16.5156 167.651,16.5156 170,16.5C 172.4,14.9272 174.9,13.4272 177.5,12C 179.92,12.9881 182.253,12.6548 184.5,11C 186.842,8.61526 189.342,6.78193 192,5.5C 192.333,5.83333 192.667,6.16667 193,6.5C 195.419,4.78737 197.919,4.1207 200.5,4.5C 201.32,2.68116 202.32,1.0145 203.5,-0.5 Z"/></g>
<g><path style="opacity:1" fill="#a0d5a4" d="M 98.5,7.5 C 105.908,9.7051 113.241,12.5384 120.5,16C 126.399,17.7465 132.399,18.9132 138.5,19.5C 149.614,23.3795 160.614,27.8795 171.5,33C 185.526,33.2192 199.526,32.8859 213.5,32C 224.82,33.6599 235.487,37.1599 245.5,42.5C 248.783,41.673 252.116,41.3396 255.5,41.5C 255.5,46.1667 255.5,50.8333 255.5,55.5C 251.474,53.7835 247.474,52.1168 243.5,50.5C 240.094,50.0445 236.761,49.3778 233.5,48.5C 231.495,47.9612 229.495,47.2945 227.5,46.5C 228.736,45.6433 230.069,44.9766 231.5,44.5C 232.731,43.3493 232.731,42.1827 231.5,41C 228.33,39.2705 224.997,38.1038 221.5,37.5C 218.624,37.0728 215.791,36.4062 213,35.5C 212.235,35.5699 211.735,35.9033 211.5,36.5C 208.655,34.0579 205.655,33.8913 202.5,36C 193.833,36.3333 185.167,36.6667 176.5,37C 177.044,37.7172 177.711,38.2172 178.5,38.5C 180.853,39.3403 182.853,40.6736 184.5,42.5C 181.502,43.6435 178.502,43.6435 175.5,42.5C 172.833,40.8333 170.167,39.1667 167.5,37.5C 163.61,33.6871 158.943,31.3538 153.5,30.5C 149.942,28.0648 145.942,26.7315 141.5,26.5C 136.182,25.3426 131.182,23.3426 126.5,20.5C 125.264,21.2458 123.93,21.5792 122.5,21.5C 120.819,19.9925 118.819,18.9925 116.5,18.5C 115.167,17.8333 113.833,17.1667 112.5,16.5C 111.833,16.1667 111.167,15.8333 110.5,15.5C 108.177,14.6575 105.843,13.6575 103.5,12.5C 96.5071,13.5942 89.5071,14.5942 82.5,15.5C 82.2648,14.9033 81.7648,14.5699 81,14.5C 76.9687,15.5275 73.1353,16.8609 69.5,18.5C 66.0903,18.7819 62.757,19.4486 59.5,20.5C 58.537,20.0302 58.537,19.3635 59.5,18.5C 61.3819,17.2488 63.3819,16.0821 65.5,15C 76.4898,12.3908 87.4898,9.89083 98.5,7.5 Z"/></g>
<g><path style="opacity:1" fill="#3e5f42" d="M 110.5,15.5 C 106.908,15.2157 103.741,16.2157 101,18.5C 100,18.1667 99,17.8333 98,17.5C 95.4156,18.5889 92.9156,19.5889 90.5,20.5C 89.8333,20.5 89.5,20.1667 89.5,19.5C 87.5126,18.4966 85.346,18.4966 83,19.5C 81.3009,19.6134 80.1342,18.9468 79.5,17.5C 79.9731,16.0937 80.9731,15.427 82.5,15.5C 89.5071,14.5942 96.5071,13.5942 103.5,12.5C 105.843,13.6575 108.177,14.6575 110.5,15.5 Z"/></g>
<g><path style="opacity:1" fill="#2a3326" d="M 79.5,17.5 C 80.1342,18.9468 81.3009,19.6134 83,19.5C 85.346,18.4966 87.5126,18.4966 89.5,19.5C 86.0787,19.5176 83.4121,20.851 81.5,23.5C 77.4974,23.5835 73.8307,22.5835 70.5,20.5C 73.3557,18.9556 76.3557,17.9556 79.5,17.5 Z"/></g>
<g><path style="opacity:1" fill="#e2b500" d="M 89.5,19.5 C 89.5,20.1667 89.8333,20.5 90.5,20.5C 91.1667,20.5 91.5,20.8333 91.5,21.5C 89.1124,22.3485 86.7791,23.3485 84.5,24.5C 83.209,24.7373 82.209,24.404 81.5,23.5C 83.4121,20.851 86.0787,19.5176 89.5,19.5 Z"/></g>
<g><path style="opacity:1" fill="#1b2e33" d="M 107.5,-0.5 C 114.833,-0.5 122.167,-0.5 129.5,-0.5C 126.302,0.648329 123.135,1.98166 120,3.5C 119.439,2.97814 118.772,2.6448 118,2.5C 114.685,3.83286 111.352,5.1662 108,6.5C 107.667,6.16667 107.333,5.83333 107,5.5C 104.544,7.32131 101.711,7.98798 98.5,7.5C 87.4898,9.89083 76.4898,12.3908 65.5,15C 63.3819,16.0821 61.3819,17.2488 59.5,18.5C 52.2841,21.1064 45.2841,24.2731 38.5,28C 35.8823,30.1057 33.8823,32.6057 32.5,35.5C 31.7839,37.5563 31.1172,39.723 30.5,42C 29.2396,43.113 28.073,43.2797 27,42.5C 24.3595,45.3173 21.3595,47.6507 18,49.5C 17.6667,49.1667 17.3333,48.8333 17,48.5C 14.705,48.6894 12.705,50.0228 11,52.5C 10.6667,52.1667 10.3333,51.8333 10,51.5C 6.89529,54.4401 3.39529,56.7735 -0.5,58.5C -0.5,49.8333 -0.5,41.1667 -0.5,32.5C 0.847141,31.8288 2.01381,31.8288 3,32.5C 3.44185,30.3215 4.44185,29.6548 6,30.5C 7.48701,29.7471 7.65367,28.9138 6.5,28C 10.5748,27.3759 13.9082,25.5426 16.5,22.5C 17.1924,23.0253 17.6924,23.6919 18,24.5C 18.1095,21.3543 19.4428,20.3543 22,21.5C 24.1399,20.2718 25.8066,18.6051 27,16.5C 27.3333,17.1667 27.6667,17.8333 28,18.5C 30.698,17.7202 33.0314,16.3869 35,14.5C 37,14.5 39,14.5 41,14.5C 41.3333,13.8333 41.6667,13.1667 42,12.5C 43,12.8333 44,13.1667 45,13.5C 47.7745,11.6118 50.7745,10.2784 54,9.5C 57.2739,9.98459 60.4406,9.98459 63.5,9.5C 64.4776,9.02335 65.3109,8.35668 66,7.5C 67.6667,7.83333 69.3333,8.16667 71,8.5C 73.3838,5.56711 76.3838,5.23378 80,7.5C 80.3173,5.69923 80.984,5.36589 82,6.5C 86.1085,5.07529 90.2752,3.74196 94.5,2.5C 95.4419,2.60816 96.2753,2.94149 97,3.5C 100.618,2.2312 104.118,0.897871 107.5,-0.5 Z"/></g>
<g><path style="opacity:1" fill="#53725b" d="M 112.5,16.5 C 113.833,17.1667 115.167,17.8333 116.5,18.5C 117.113,21.9694 115.779,23.9694 112.5,24.5C 109.992,22.7629 106.992,21.9296 103.5,22C 107.619,21.8568 111.619,21.1901 115.5,20C 112.167,19.6667 108.833,19.3333 105.5,19C 108.104,18.6097 110.438,17.7763 112.5,16.5 Z"/></g>
<g><path style="opacity:1" fill="#333c38" d="M 110.5,15.5 C 111.167,15.8333 111.833,16.1667 112.5,16.5C 110.438,17.7763 108.104,18.6097 105.5,19C 108.833,19.3333 112.167,19.6667 115.5,20C 111.619,21.1901 107.619,21.8568 103.5,22C 106.992,21.9296 109.992,22.7629 112.5,24.5C 112.167,24.5 111.833,24.5 111.5,24.5C 105.158,24.9353 98.8251,25.1019 92.5,25C 93.2871,23.687 92.9538,22.5203 91.5,21.5C 91.5,20.8333 91.1667,20.5 90.5,20.5C 92.9156,19.5889 95.4156,18.5889 98,17.5C 99,17.8333 100,18.1667 101,18.5C 103.741,16.2157 106.908,15.2157 110.5,15.5 Z"/></g>
<g><path style="opacity:1" fill="#a8d2af" d="M 59.5,18.5 C 58.537,19.3635 58.537,20.0302 59.5,20.5C 62.757,19.4486 66.0903,18.7819 69.5,18.5C 68.3247,20.0862 66.9914,21.5862 65.5,23C 60.857,23.8304 56.1903,24.4971 51.5,25C 49.6854,25.7568 48.0188,26.5902 46.5,27.5C 41.0831,28.1976 37.0831,30.8643 34.5,35.5C 33.8333,36.8333 33.1667,38.1667 32.5,39.5C 32.5,38.1667 32.5,36.8333 32.5,35.5C 33.8823,32.6057 35.8823,30.1057 38.5,28C 45.2841,24.2731 52.2841,21.1064 59.5,18.5 Z"/></g>
<g><path style="opacity:1" fill="#93b59a" d="M 111.5,25.5 C 113.5,25.5 115.5,25.5 117.5,25.5C 117.5,27.5 117.5,29.5 117.5,31.5C 113.287,31.6266 109.954,29.9599 107.5,26.5C 108.689,25.5713 110.022,25.238 111.5,25.5 Z"/></g>
<g><path style="opacity:1" fill="#79897f" d="M 82.5,15.5 C 80.9731,15.427 79.9731,16.0937 79.5,17.5C 76.3557,17.9556 73.3557,18.9556 70.5,20.5C 73.8307,22.5835 77.4974,23.5835 81.5,23.5C 82.209,24.404 83.209,24.7373 84.5,24.5C 86.8695,24.1489 89.2028,23.9822 91.5,24C 90.4293,24.8518 89.4293,25.6851 88.5,26.5C 86.2043,26.8041 85.871,27.8041 87.5,29.5C 85.8828,28.962 84.2161,28.6287 82.5,28.5C 82.5,27.5 82.5,26.5 82.5,25.5C 74.5531,27.9906 67.2197,29.3239 60.5,29.5C 55.9389,28.1885 51.2723,27.5219 46.5,27.5C 48.0188,26.5902 49.6854,25.7568 51.5,25C 56.1903,24.4971 60.857,23.8304 65.5,23C 66.9914,21.5862 68.3247,20.0862 69.5,18.5C 73.1353,16.8609 76.9687,15.5275 81,14.5C 81.7648,14.5699 82.2648,14.9033 82.5,15.5 Z"/></g>
<g><path style="opacity:1" fill="#68b26b" d="M 116.5,18.5 C 118.819,18.9925 120.819,19.9925 122.5,21.5C 124.837,25.5079 127.17,29.5079 129.5,33.5C 129.5,33.8333 129.5,34.1667 129.5,34.5C 129.5,34.8333 129.5,35.1667 129.5,35.5C 128.849,36.0906 128.182,36.7573 127.5,37.5C 124.926,35.9757 122.259,34.6424 119.5,33.5C 119.167,32.5 118.5,31.8333 117.5,31.5C 117.5,29.5 117.5,27.5 117.5,25.5C 115.5,25.5 113.5,25.5 111.5,25.5C 111.5,25.1667 111.5,24.8333 111.5,24.5C 111.833,24.5 112.167,24.5 112.5,24.5C 115.779,23.9694 117.113,21.9694 116.5,18.5 Z"/></g>
<g><path style="opacity:1" fill="#87ac8d" d="M 88.5,26.5 C 91.6492,26.2114 94.6492,26.7114 97.5,28C 98.3802,29.3561 98.7135,30.8561 98.5,32.5C 95.1869,31.9552 91.8536,31.4552 88.5,31C 87.944,30.6174 87.6107,30.1174 87.5,29.5C 85.871,27.8041 86.2043,26.8041 88.5,26.5 Z"/></g>
<g><path style="opacity:1" fill="#232224" d="M 46.5,27.5 C 51.2723,27.5219 55.9389,28.1885 60.5,29.5C 60.8417,30.3382 61.5084,30.6716 62.5,30.5C 63.1408,31.4822 63.8075,32.4822 64.5,33.5C 63.0247,36.2454 63.6913,38.412 66.5,40C 65.9056,40.4643 65.2389,40.631 64.5,40.5C 62.535,37.9881 59.8683,36.6548 56.5,36.5C 55.2617,36.19 55.2617,35.69 56.5,35C 55.552,34.5172 54.552,34.3505 53.5,34.5C 53.5,33.5 53.5,32.5 53.5,31.5C 49.0638,31.2101 44.7305,31.7101 40.5,33C 38.3563,33.7921 37.023,35.2921 36.5,37.5C 35.8333,37.8333 35.1667,38.1667 34.5,38.5C 34.5,37.5 34.5,36.5 34.5,35.5C 37.0831,30.8643 41.0831,28.1976 46.5,27.5 Z"/></g>
<g><path style="opacity:1" fill="#647e6c" d="M 91.5,21.5 C 92.9538,22.5203 93.2871,23.687 92.5,25C 98.8251,25.1019 105.158,24.9353 111.5,24.5C 111.5,24.8333 111.5,25.1667 111.5,25.5C 110.022,25.238 108.689,25.5713 107.5,26.5C 109.954,29.9599 113.287,31.6266 117.5,31.5C 118.5,31.8333 119.167,32.5 119.5,33.5C 107.159,32.969 94.826,32.6357 82.5,32.5C 82.5,31.1667 82.5,29.8333 82.5,28.5C 84.2161,28.6287 85.8828,28.962 87.5,29.5C 87.6107,30.1174 87.944,30.6174 88.5,31C 91.8536,31.4552 95.1869,31.9552 98.5,32.5C 98.7135,30.8561 98.3802,29.3561 97.5,28C 94.6492,26.7114 91.6492,26.2114 88.5,26.5C 89.4293,25.6851 90.4293,24.8518 91.5,24C 89.2028,23.9822 86.8695,24.1489 84.5,24.5C 86.7791,23.3485 89.1124,22.3485 91.5,21.5 Z"/></g>
<g><path style="opacity:1" fill="#6a5d5f" d="M 53.5,34.5 C 49.8183,34.3347 46.1516,34.5014 42.5,35C 41.0217,37.0386 39.0217,37.8719 36.5,37.5C 37.023,35.2921 38.3563,33.7921 40.5,33C 44.7305,31.7101 49.0638,31.2101 53.5,31.5C 53.5,32.5 53.5,33.5 53.5,34.5 Z"/></g>
<g><path style="opacity:1" fill="#495751" d="M 82.5,28.5 C 82.5,29.8333 82.5,31.1667 82.5,32.5C 94.826,32.6357 107.159,32.969 119.5,33.5C 119.631,34.2389 119.464,34.9056 119,35.5C 118.329,34.7476 117.496,34.4142 116.5,34.5C 111.146,34.4312 105.813,34.0978 100.5,33.5C 100.759,35.9893 99.7593,37.656 97.5,38.5C 90.5627,36.6392 83.2294,35.6392 75.5,35.5C 76.7282,30.5658 74.7282,28.7325 69.5,30C 69.8333,30.3333 70.1667,30.6667 70.5,31C 67.8078,31.4298 65.1411,31.2631 62.5,30.5C 61.5084,30.6716 60.8417,30.3382 60.5,29.5C 67.2197,29.3239 74.5531,27.9906 82.5,25.5C 82.5,26.5 82.5,27.5 82.5,28.5 Z"/></g>
<g><path style="opacity:1" fill="#48322f" d="M 53.5,34.5 C 54.552,34.3505 55.552,34.5172 56.5,35C 55.2617,35.69 55.2617,36.19 56.5,36.5C 54.666,38.5054 52.9993,40.6721 51.5,43C 52.3366,44.0113 52.67,45.1779 52.5,46.5C 52.44,47.0431 52.1067,47.3764 51.5,47.5C 50.7189,46.2713 50.2189,44.938 50,43.5C 46.7792,46.7282 45.2792,46.0615 45.5,41.5C 46.8872,38.6883 45.8872,37.8549 42.5,39C 40.9963,40.3369 39.9963,42.0036 39.5,44C 38.2068,44.49 36.8734,44.6567 35.5,44.5C 35.1667,43.1667 34.8333,41.8333 34.5,40.5C 34.5,39.8333 34.5,39.1667 34.5,38.5C 35.1667,38.1667 35.8333,37.8333 36.5,37.5C 39.0217,37.8719 41.0217,37.0386 42.5,35C 46.1516,34.5014 49.8183,34.3347 53.5,34.5 Z"/></g>
<g><path style="opacity:1" fill="#838c81" d="M 75.5,35.5 C 83.2294,35.6392 90.5627,36.6392 97.5,38.5C 92.2882,40.1256 86.9549,41.1256 81.5,41.5C 77.8144,39.7673 74.1478,37.934 70.5,36C 72.1341,35.5065 73.8008,35.3398 75.5,35.5 Z"/></g>
<g><path style="opacity:1" fill="#388648" d="M 119.5,33.5 C 122.259,34.6424 124.926,35.9757 127.5,37.5C 128.182,36.7573 128.849,36.0906 129.5,35.5C 129.52,37.143 128.853,38.4763 127.5,39.5C 130.053,41.9621 130.053,44.2955 127.5,46.5C 125.676,44.5107 123.676,42.6774 121.5,41C 119.443,40.6948 117.443,40.6948 115.5,41C 114.663,39.9887 114.33,38.8221 114.5,37.5C 115.906,37.0269 116.573,36.0269 116.5,34.5C 117.496,34.4142 118.329,34.7476 119,35.5C 119.464,34.9056 119.631,34.2389 119.5,33.5 Z"/></g>
<g><path style="opacity:1" fill="#357540" d="M 141.5,26.5 C 145.942,26.7315 149.942,28.0648 153.5,30.5C 154.298,33.4886 155.798,36.1552 158,38.5C 158.49,39.7932 158.657,41.1266 158.5,42.5C 155.392,38.5359 152.392,34.3693 149.5,30C 147.105,28.4022 144.772,28.2355 142.5,29.5C 141.596,28.791 141.263,27.791 141.5,26.5 Z"/></g>
<g><path style="opacity:1" fill="#3b413a" d="M 116.5,34.5 C 116.573,36.0269 115.906,37.0269 114.5,37.5C 113.766,38.8775 113.099,40.3775 112.5,42C 116.114,41.966 118.447,43.6327 119.5,47C 120.745,47.7914 122.078,48.2914 123.5,48.5C 124.6,49.5585 125.934,50.3918 127.5,51C 125.469,52.6099 125.469,54.4432 127.5,56.5C 126.9,58.4677 125.567,59.4677 123.5,59.5C 123.167,57.5 122.833,55.5 122.5,53.5C 119.99,53.9465 117.99,53.2798 116.5,51.5C 117.473,51.0133 118.473,50.5133 119.5,50C 117.287,46.7813 114.453,45.948 111,47.5C 107.35,47.1759 104.683,46.1759 103,44.5C 101.774,44.6448 100.607,44.9781 99.5,45.5C 99.1667,45 98.8333,44.5 98.5,44C 99.9782,42.5218 101.478,41.0218 103,39.5C 103.667,37.8333 103.667,36.1667 103,34.5C 100.534,38.8062 97.0339,41.8062 92.5,43.5C 88.688,42.9736 85.0213,42.3069 81.5,41.5C 86.9549,41.1256 92.2882,40.1256 97.5,38.5C 99.7593,37.656 100.759,35.9893 100.5,33.5C 105.813,34.0978 111.146,34.4312 116.5,34.5 Z"/></g>
<g><path style="opacity:1" fill="#322723" d="M 75.5,35.5 C 73.8008,35.3398 72.1341,35.5065 70.5,36C 74.1478,37.934 77.8144,39.7673 81.5,41.5C 85.0213,42.3069 88.688,42.9736 92.5,43.5C 89.0283,43.7779 85.3617,43.9446 81.5,44C 82.6123,46.1079 81.9457,47.6079 79.5,48.5C 74.5141,45.9828 69.5141,43.3162 64.5,40.5C 65.2389,40.631 65.9056,40.4643 66.5,40C 63.6913,38.412 63.0247,36.2454 64.5,33.5C 63.8075,32.4822 63.1408,31.4822 62.5,30.5C 65.1411,31.2631 67.8078,31.4298 70.5,31C 70.1667,30.6667 69.8333,30.3333 69.5,30C 74.7282,28.7325 76.7282,30.5658 75.5,35.5 Z"/></g>
<g><path style="opacity:1" fill="#614f47" d="M 56.5,36.5 C 59.8683,36.6548 62.535,37.9881 64.5,40.5C 69.5141,43.3162 74.5141,45.9828 79.5,48.5C 79.5,48.8333 79.5,49.1667 79.5,49.5C 77.4676,50.5609 76.1342,52.2276 75.5,54.5C 74.7792,52.314 74.1125,50.1474 73.5,48C 72.8333,47.3333 72.1667,47.3333 71.5,48C 69.1453,52.6511 67.9786,52.1511 68,46.5C 63.9823,46.1731 60.6489,47.8398 58,51.5C 58.1958,47.686 58.8625,44.0193 60,40.5C 57.3367,42.3336 54.8367,44.3336 52.5,46.5C 52.67,45.1779 52.3366,44.0113 51.5,43C 52.9993,40.6721 54.666,38.5054 56.5,36.5 Z"/></g>
<g><path style="opacity:1" fill="#4ba652" d="M 158.5,42.5 C 159.323,44.4546 159.49,46.4546 159,48.5C 158.014,49.1712 156.847,49.1712 155.5,48.5C 150.383,42.5657 146.05,36.2324 142.5,29.5C 144.772,28.2355 147.105,28.4022 149.5,30C 152.392,34.3693 155.392,38.5359 158.5,42.5 Z"/></g>
<g><path style="opacity:1" fill="#67ac59" d="M 167.5,37.5 C 170.167,39.1667 172.833,40.8333 175.5,42.5C 175.799,46.0649 174.465,47.3982 171.5,46.5C 170.855,44.1737 169.522,42.507 167.5,41.5C 166.167,40.1667 166.167,38.8333 167.5,37.5 Z"/></g>
<g><path style="opacity:1" fill="#2f6630" d="M 178.5,38.5 C 180.948,37.5269 183.615,37.1936 186.5,37.5C 186.174,41.6839 187.841,44.8505 191.5,47C 190.86,49.1204 189.86,50.9537 188.5,52.5C 186.552,46.4172 182.552,44.0838 176.5,45.5C 177.428,46.7678 177.595,48.1011 177,49.5C 176.667,48.8333 176.333,48.1667 176,47.5C 175.561,52.2832 174.395,56.6166 172.5,60.5C 171.686,55.8809 171.353,51.2142 171.5,46.5C 174.465,47.3982 175.799,46.0649 175.5,42.5C 178.502,43.6435 181.502,43.6435 184.5,42.5C 182.853,40.6736 180.853,39.3403 178.5,38.5 Z"/></g>
<g><path style="opacity:1" fill="#1e372a" d="M 211.5,36.5 C 211.735,35.9033 212.235,35.5699 213,35.5C 215.791,36.4062 218.624,37.0728 221.5,37.5C 221.5,38.5 221.5,39.5 221.5,40.5C 223.527,40.3379 225.527,40.5045 227.5,41C 227.957,41.414 228.291,41.914 228.5,42.5C 225.176,43.1592 223.843,45.1592 224.5,48.5C 226.833,48.5 229.167,48.5 231.5,48.5C 231.607,52.2865 230.107,55.2865 227,57.5C 225.405,65.1433 222.572,72.1433 218.5,78.5C 218.285,76.2257 217.618,74.059 216.5,72C 217.887,68.6612 219.554,65.4946 221.5,62.5C 218.576,62.3743 215.909,61.041 213.5,58.5C 215.66,56.9065 215.827,55.2399 214,53.5C 213.692,54.3081 213.192,54.9747 212.5,55.5C 211.583,54.8728 210.583,54.5394 209.5,54.5C 212.289,48.5974 212.956,42.5974 211.5,36.5 Z"/></g>
<g><path style="opacity:1" fill="#243c42" d="M 32.5,35.5 C 32.5,36.8333 32.5,38.1667 32.5,39.5C 32.3345,43.5138 32.5012,47.5138 33,51.5C 33.5,53.3333 34.6667,54.5 36.5,55C 34.4794,55.513 32.9794,56.6797 32,58.5C 31.6667,57.8333 31.3333,57.1667 31,56.5C 30,57.8333 29,59.1667 28,60.5C 26.6124,59.4464 25.1124,59.2797 23.5,60C 24.5,60.3333 25.5,60.6667 26.5,61C 22.8689,63.542 19.0356,65.7086 15,67.5C 14.6667,67.1667 14.3333,66.8333 14,66.5C 13.1667,67.5 12.3333,68.5 11.5,69.5C 9.67068,68.7176 8.17068,69.3843 7,71.5C 6.66667,71.1667 6.33333,70.8333 6,70.5C 4.90698,72.3492 3.57365,74.0158 2,75.5C 1.66667,74.8333 1.33333,74.1667 1,73.5C 0.721579,74.4158 0.221579,75.0825 -0.5,75.5C -0.5,69.8333 -0.5,64.1667 -0.5,58.5C 3.39529,56.7735 6.89529,54.4401 10,51.5C 10.3333,51.8333 10.6667,52.1667 11,52.5C 12.705,50.0228 14.705,48.6894 17,48.5C 17.3333,48.8333 17.6667,49.1667 18,49.5C 21.3595,47.6507 24.3595,45.3173 27,42.5C 28.073,43.2797 29.2396,43.113 30.5,42C 31.1172,39.723 31.7839,37.5563 32.5,35.5 Z"/></g>
<g><path style="opacity:1" fill="#24432d" d="M 153.5,30.5 C 158.943,31.3538 163.61,33.6871 167.5,37.5C 166.167,38.8333 166.167,40.1667 167.5,41.5C 168.562,42.5754 168.562,43.5754 167.5,44.5C 166.549,43.6744 165.549,43.5078 164.5,44C 166.244,46.9625 166.744,50.1292 166,53.5C 165.148,52.4293 164.315,51.4293 163.5,50.5C 162.32,47.4604 160.653,44.7937 158.5,42.5C 158.657,41.1266 158.49,39.7932 158,38.5C 155.798,36.1552 154.298,33.4886 153.5,30.5 Z"/></g>
<g><path style="opacity:1" fill="#6e6455" d="M 45.5,41.5 C 42.1447,42.8552 39.8114,45.1886 38.5,48.5C 37.791,49.404 36.791,49.7373 35.5,49.5C 35.5,47.8333 35.5,46.1667 35.5,44.5C 36.8734,44.6567 38.2068,44.49 39.5,44C 39.9963,42.0036 40.9963,40.3369 42.5,39C 45.8872,37.8549 46.8872,38.6883 45.5,41.5 Z"/></g>
<g><path style="opacity:1" fill="#274f34" d="M 129.5,34.5 C 130.166,37.6893 130.833,41.0227 131.5,44.5C 132.563,46.4347 133.897,48.1014 135.5,49.5C 132.103,50.151 128.77,49.4844 125.5,47.5C 124.584,47.5427 123.917,47.8761 123.5,48.5C 122.078,48.2914 120.745,47.7914 119.5,47C 118.447,43.6327 116.114,41.966 112.5,42C 113.099,40.3775 113.766,38.8775 114.5,37.5C 114.33,38.8221 114.663,39.9887 115.5,41C 117.443,40.6948 119.443,40.6948 121.5,41C 123.676,42.6774 125.676,44.5107 127.5,46.5C 130.053,44.2955 130.053,41.9621 127.5,39.5C 128.853,38.4763 129.52,37.143 129.5,35.5C 129.5,35.1667 129.5,34.8333 129.5,34.5 Z"/></g>
<g><path style="opacity:1" fill="#271d17" d="M 79.5,49.5 C 79.5858,50.4959 79.2524,51.3292 78.5,52C 81.2934,52.7441 82.7934,54.5774 83,57.5C 84.3561,58.3802 85.8561,58.7135 87.5,58.5C 87.7373,62.722 87.404,66.8886 86.5,71C 87.5,72.5 88.5,74 89.5,75.5C 90.7362,74.7542 92.0695,74.4208 93.5,74.5C 94.1667,74.5 94.5,74.8333 94.5,75.5C 92.1346,76.0084 89.8013,76.6751 87.5,77.5C 86.0095,75.8744 84.5095,74.2077 83,72.5C 82.5045,74.4727 82.3379,76.4727 82.5,78.5C 80.5122,78.8271 78.5122,79.1604 76.5,79.5C 74.3064,79.0463 72.473,78.0463 71,76.5C 70.5,76.6667 70,76.8333 69.5,77C 70.3366,78.0113 70.67,79.1779 70.5,80.5C 68.5,80.8333 66.5,81.1667 64.5,81.5C 62.8333,80.5 61.5,79.1667 60.5,77.5C 60.4326,76.0413 60.7659,74.7079 61.5,73.5C 63.5611,74.6817 65.0611,74.0151 66,71.5C 68.0033,64.8942 66.17,59.7276 60.5,56C 58.4024,55.3224 56.4024,55.4891 54.5,56.5C 52.8863,54.9254 50.8863,54.2587 48.5,54.5C 48.5,53.5 48.5,52.5 48.5,51.5C 46.2075,51.2436 44.0408,51.5769 42,52.5C 41.9428,50.0898 40.7761,48.7565 38.5,48.5C 39.8114,45.1886 42.1447,42.8552 45.5,41.5C 45.2792,46.0615 46.7792,46.7282 50,43.5C 50.2189,44.938 50.7189,46.2713 51.5,47.5C 52.1067,47.3764 52.44,47.0431 52.5,46.5C 54.8367,44.3336 57.3367,42.3336 60,40.5C 58.8625,44.0193 58.1958,47.686 58,51.5C 60.6489,47.8398 63.9823,46.1731 68,46.5C 67.9786,52.1511 69.1453,52.6511 71.5,48C 72.1667,47.3333 72.8333,47.3333 73.5,48C 74.1125,50.1474 74.7792,52.314 75.5,54.5C 76.1342,52.2276 77.4676,50.5609 79.5,49.5 Z"/></g>
<g><path style="opacity:1" fill="#1a1514" d="M 116.5,51.5 C 113.856,51.1601 111.523,51.8267 109.5,53.5C 108.019,52.5197 106.685,51.353 105.5,50C 104.5,49.3333 103.5,49.3333 102.5,50C 103.701,50.9025 104.535,52.0692 105,53.5C 105.663,58.5374 105.496,63.5374 104.5,68.5C 103.248,70.0009 102.248,71.6675 101.5,73.5C 100.292,74.2341 98.9587,74.5674 97.5,74.5C 96.8981,72.3202 95.5648,70.6536 93.5,69.5C 92.5661,71.0948 92.5661,72.7615 93.5,74.5C 92.0695,74.4208 90.7362,74.7542 89.5,75.5C 88.5,74 87.5,72.5 86.5,71C 87.404,66.8886 87.7373,62.722 87.5,58.5C 85.8561,58.7135 84.3561,58.3802 83,57.5C 82.7934,54.5774 81.2934,52.7441 78.5,52C 79.2524,51.3292 79.5858,50.4959 79.5,49.5C 79.5,49.1667 79.5,48.8333 79.5,48.5C 81.9457,47.6079 82.6123,46.1079 81.5,44C 85.3617,43.9446 89.0283,43.7779 92.5,43.5C 97.0339,41.8062 100.534,38.8062 103,34.5C 103.667,36.1667 103.667,37.8333 103,39.5C 101.478,41.0218 99.9782,42.5218 98.5,44C 98.8333,44.5 99.1667,45 99.5,45.5C 100.607,44.9781 101.774,44.6448 103,44.5C 104.683,46.1759 107.35,47.1759 111,47.5C 114.453,45.948 117.287,46.7813 119.5,50C 118.473,50.5133 117.473,51.0133 116.5,51.5 Z"/></g>
<g><path style="opacity:1" fill="#548948" d="M 186.5,37.5 C 192.145,40.9736 194.145,45.9736 192.5,52.5C 191.675,53.3857 190.675,53.719 189.5,53.5C 189.281,54.675 189.614,55.675 190.5,56.5C 192.808,55.3589 194.641,53.6922 196,51.5C 196.464,52.0944 196.631,52.7611 196.5,53.5C 197.108,54.7997 197.775,56.1331 198.5,57.5C 197.242,59.6869 196.242,62.0202 195.5,64.5C 195.824,66.5689 196.658,66.9023 198,65.5C 198.388,66.428 199.055,67.0946 200,67.5C 201.338,66.4939 202.671,65.4939 204,64.5C 204.842,61.1614 206.342,58.1614 208.5,55.5C 208.5,54.8333 208.833,54.5 209.5,54.5C 209.371,56.2161 209.038,57.8828 208.5,59.5C 207.514,61.4261 206.514,63.4261 205.5,65.5C 204.026,66.4363 203.026,67.7697 202.5,69.5C 201.685,70.4293 200.852,71.4293 200,72.5C 199,70.8333 198,69.1667 197,67.5C 196.333,68.1667 195.667,68.8333 195,69.5C 194.076,65.3096 191.91,61.9763 188.5,59.5C 187.571,58.3112 187.238,56.9778 187.5,55.5C 187.557,54.391 187.89,53.391 188.5,52.5C 189.86,50.9537 190.86,49.1204 191.5,47C 187.841,44.8505 186.174,41.6839 186.5,37.5 Z"/></g>
<g><path style="opacity:1" fill="#6ea45e" d="M 211.5,36.5 C 212.956,42.5974 212.289,48.5974 209.5,54.5C 208.833,54.5 208.5,54.8333 208.5,55.5C 207.686,53.369 207.186,51.0356 207,48.5C 204.392,46.638 203.392,44.3046 204,41.5C 200.711,45.093 198.211,49.093 196.5,53.5C 196.631,52.7611 196.464,52.0944 196,51.5C 194.641,53.6922 192.808,55.3589 190.5,56.5C 189.614,55.675 189.281,54.675 189.5,53.5C 190.675,53.719 191.675,53.3857 192.5,52.5C 194.145,45.9736 192.145,40.9736 186.5,37.5C 183.615,37.1936 180.948,37.5269 178.5,38.5C 177.711,38.2172 177.044,37.7172 176.5,37C 185.167,36.6667 193.833,36.3333 202.5,36C 205.655,33.8913 208.655,34.0579 211.5,36.5 Z"/></g>
<g><path style="opacity:1" fill="#3a6d4e" d="M 136.5,43.5 C 138.12,45.9842 140.453,47.4842 143.5,48C 146.214,52.6936 149.881,56.1936 154.5,58.5C 156.572,62.5681 157.905,66.9014 158.5,71.5C 157.222,71.2178 156.222,70.5511 155.5,69.5C 155.155,66.8021 153.822,64.8021 151.5,63.5C 151.631,62.6236 151.298,61.9569 150.5,61.5C 148.698,60.0144 146.698,59.0144 144.5,58.5C 144.334,55.8316 143.334,53.4983 141.5,51.5C 140.423,50.2949 139.09,49.6282 137.5,49.5C 137.123,47.742 136.456,46.0754 135.5,44.5C 135.624,43.8933 135.957,43.56 136.5,43.5 Z"/></g>
<g><path style="opacity:1" fill="#203e28" d="M 141.5,26.5 C 141.263,27.791 141.596,28.791 142.5,29.5C 146.05,36.2324 150.383,42.5657 155.5,48.5C 157.555,50.5549 159.221,52.8883 160.5,55.5C 162.913,57.8872 165.58,60.0539 168.5,62C 170.193,62.484 171.527,61.984 172.5,60.5C 173.183,62.1765 174.517,62.8432 176.5,62.5C 175.833,59.1668 177.167,57.1668 180.5,56.5C 182.532,58.6728 184.532,60.0061 186.5,60.5C 186.5,61.1667 186.833,61.5 187.5,61.5C 187.552,65.1981 187.886,68.8648 188.5,72.5C 187.022,72.762 185.689,72.4287 184.5,71.5C 183.15,69.6136 181.483,68.1136 179.5,67C 175.091,66.4683 170.757,66.4683 166.5,67C 164.391,65.8589 162.558,64.3589 161,62.5C 158.973,57.7845 155.973,53.7845 152,50.5C 153.427,54.9794 155.427,59.3127 158,63.5C 162.17,66.5094 164.837,70.5094 166,75.5C 166.816,76.8228 167.983,77.4894 169.5,77.5C 173.059,79.3841 176.059,82.0508 178.5,85.5C 178.53,86.4972 178.03,87.1639 177,87.5C 175.14,85.7991 172.973,84.7991 170.5,84.5C 168.97,82.6535 166.97,81.6535 164.5,81.5C 161.63,78.6734 159.63,75.34 158.5,71.5C 157.905,66.9014 156.572,62.5681 154.5,58.5C 149.881,56.1936 146.214,52.6936 143.5,48C 140.453,47.4842 138.12,45.9842 136.5,43.5C 141.334,45.6671 146.334,47.3337 151.5,48.5C 152.476,46.8767 151.976,45.5433 150,44.5C 149.667,44.8333 149.333,45.1667 149,45.5C 148.682,43.9391 147.849,42.7724 146.5,42C 142.779,41.3802 139.112,40.5468 135.5,39.5C 134.289,38.2798 134.289,37.1131 135.5,36C 134.451,35.5078 133.451,35.6744 132.5,36.5C 131.573,34.8872 130.739,33.2205 130,31.5C 129.536,32.0944 129.369,32.7611 129.5,33.5C 127.17,29.5079 124.837,25.5079 122.5,21.5C 123.93,21.5792 125.264,21.2458 126.5,20.5C 131.182,23.3426 136.182,25.3426 141.5,26.5 Z"/></g>
<g><path style="opacity:1" fill="#4f3127" d="M 116.5,51.5 C 117.99,53.2798 119.99,53.9465 122.5,53.5C 122.833,55.5 123.167,57.5 123.5,59.5C 123.5,60.5 123.5,61.5 123.5,62.5C 121.588,65.8549 118.588,67.3549 114.5,67C 112.336,67.9143 110.336,69.081 108.5,70.5C 107.702,68.9223 107.202,67.2556 107,65.5C 106.148,66.5707 105.315,67.5707 104.5,68.5C 105.496,63.5374 105.663,58.5374 105,53.5C 104.535,52.0692 103.701,50.9025 102.5,50C 103.5,49.3333 104.5,49.3333 105.5,50C 106.685,51.353 108.019,52.5197 109.5,53.5C 111.523,51.8267 113.856,51.1601 116.5,51.5 Z"/></g>
<g><path style="opacity:1" fill="#377f41" d="M 158.5,42.5 C 160.653,44.7937 162.32,47.4604 163.5,50.5C 163.662,52.5273 163.495,54.5273 163,56.5C 162.329,55.7476 161.496,55.4142 160.5,55.5C 159.221,52.8883 157.555,50.5549 155.5,48.5C 156.847,49.1712 158.014,49.1712 159,48.5C 159.49,46.4546 159.323,44.4546 158.5,42.5 Z"/></g>
<g><path style="opacity:1" fill="#478450" d="M 243.5,50.5 C 247.474,52.1168 251.474,53.7835 255.5,55.5C 255.5,60.1667 255.5,64.8333 255.5,69.5C 254.395,70.6005 253.062,71.2671 251.5,71.5C 248.841,69.8375 249.175,68.5042 252.5,67.5C 251.177,64.317 248.844,62.6504 245.5,62.5C 245.762,63.9778 245.429,65.3112 244.5,66.5C 243.505,61.2079 243.172,55.8746 243.5,50.5 Z"/></g>
<g><path style="opacity:1" fill="#1a4728" d="M 137.5,49.5 C 139.09,49.6282 140.423,50.2949 141.5,51.5C 143.334,53.4983 144.334,55.8316 144.5,58.5C 146.698,59.0144 148.698,60.0144 150.5,61.5C 151.298,61.9569 151.631,62.6236 151.5,63.5C 146.423,59.6302 140.756,56.7969 134.5,55C 135.869,53.2811 136.869,51.4478 137.5,49.5 Z"/></g>
<g><path style="opacity:1" fill="#41754a" d="M 221.5,37.5 C 224.997,38.1038 228.33,39.2705 231.5,41C 232.731,42.1827 232.731,43.3493 231.5,44.5C 230.069,44.9766 228.736,45.6433 227.5,46.5C 229.495,47.2945 231.495,47.9612 233.5,48.5C 232.906,52.7756 231.406,56.7756 229,60.5C 227.636,64.8782 227.136,69.2116 227.5,73.5C 225.964,76.0922 223.631,77.0922 220.5,76.5C 219.623,81.5538 218.623,86.5538 217.5,91.5C 217.238,92.9778 217.571,94.3112 218.5,95.5C 221.391,94.9944 224.058,93.9944 226.5,92.5C 226.833,92.8333 227.167,93.1667 227.5,93.5C 224.227,96.0467 222.56,99.38 222.5,103.5C 221.395,104.6 220.062,105.267 218.5,105.5C 216.696,101.548 217.696,100.548 221.5,102.5C 221.254,99.5299 219.588,98.1966 216.5,98.5C 216.5,94.8333 216.5,91.1667 216.5,87.5C 217.15,85.5648 217.483,83.5648 217.5,81.5C 218.404,80.791 218.737,79.791 218.5,78.5C 222.572,72.1433 225.405,65.1433 227,57.5C 230.107,55.2865 231.607,52.2865 231.5,48.5C 229.167,48.5 226.833,48.5 224.5,48.5C 223.843,45.1592 225.176,43.1592 228.5,42.5C 228.291,41.914 227.957,41.414 227.5,41C 225.527,40.5045 223.527,40.3379 221.5,40.5C 221.5,39.5 221.5,38.5 221.5,37.5 Z"/></g>
<g><path style="opacity:1" fill="#355055" d="M 34.5,35.5 C 34.5,36.5 34.5,37.5 34.5,38.5C 34.5,39.1667 34.5,39.8333 34.5,40.5C 33.1585,44.486 33.4919,48.486 35.5,52.5C 36.5,51.8333 37.5,51.1667 38.5,50.5C 38.8353,57.01 40.8353,57.8433 44.5,53C 45.448,52.5172 46.448,52.3505 47.5,52.5C 47.5,53.8333 47.5,55.1667 47.5,56.5C 49.288,56.2148 50.9547,56.5481 52.5,57.5C 54.1851,59.5707 55.8518,61.5707 57.5,63.5C 60.4603,66.0997 61.7937,69.433 61.5,73.5C 60.7659,74.7079 60.4326,76.0413 60.5,77.5C 59.1733,76.1999 57.84,74.8665 56.5,73.5C 55.7025,73.9569 55.3691,74.6236 55.5,75.5C 55.5,76.1667 55.5,76.8333 55.5,77.5C 52.4858,77.148 49.9858,75.8146 48,73.5C 47.5,73.6667 47,73.8333 46.5,74C 48.9371,75.2788 49.4371,76.7788 48,78.5C 45.1527,73.468 42.3193,68.468 39.5,63.5C 39.1667,63.6667 38.8333,63.8333 38.5,64C 40.0015,67.0047 41.0015,70.1714 41.5,73.5C 42.299,76.4299 42.6323,79.4299 42.5,82.5C 39.7007,80.2622 36.7007,78.2622 33.5,76.5C 33.26,77.7179 33.26,78.7179 33.5,79.5C 29.4302,76.9396 25.7635,73.7729 22.5,70C 21.8333,69.3333 21.1667,69.3333 20.5,70C 21.305,71.1127 21.9717,72.2794 22.5,73.5C 22.5,74.8333 22.5,76.1667 22.5,77.5C 20.965,76.6457 19.6316,76.6457 18.5,77.5C 18.7329,79.0618 19.3995,80.3951 20.5,81.5C 18.8599,82.3201 17.1932,83.1534 15.5,84C 15.8333,84.3333 16.1667,84.6667 16.5,85C 14.8333,85.3333 13.1667,85.6667 11.5,86C 12.1667,86.3333 12.8333,86.6667 13.5,87C 12.1011,87.5946 10.7678,87.4279 9.5,86.5C 8.5,87 7.5,87.5 6.5,88C 4.95009,91.0513 2.61675,93.218 -0.5,94.5C -0.5,88.1667 -0.5,81.8333 -0.5,75.5C 0.221579,75.0825 0.721579,74.4158 1,73.5C 1.33333,74.1667 1.66667,74.8333 2,75.5C 3.57365,74.0158 4.90698,72.3492 6,70.5C 6.33333,70.8333 6.66667,71.1667 7,71.5C 8.17068,69.3843 9.67068,68.7176 11.5,69.5C 12.3333,68.5 13.1667,67.5 14,66.5C 14.3333,66.8333 14.6667,67.1667 15,67.5C 19.0356,65.7086 22.8689,63.542 26.5,61C 25.5,60.6667 24.5,60.3333 23.5,60C 25.1124,59.2797 26.6124,59.4464 28,60.5C 29,59.1667 30,57.8333 31,56.5C 31.3333,57.1667 31.6667,57.8333 32,58.5C 32.9794,56.6797 34.4794,55.513 36.5,55C 34.6667,54.5 33.5,53.3333 33,51.5C 32.5012,47.5138 32.3345,43.5138 32.5,39.5C 33.1667,38.1667 33.8333,36.8333 34.5,35.5 Z"/></g>
<g><path style="opacity:1" fill="#2a5132" d="M 167.5,41.5 C 169.522,42.507 170.855,44.1737 171.5,46.5C 171.353,51.2142 171.686,55.8809 172.5,60.5C 171.527,61.984 170.193,62.484 168.5,62C 165.58,60.0539 162.913,57.8872 160.5,55.5C 161.496,55.4142 162.329,55.7476 163,56.5C 163.495,54.5273 163.662,52.5273 163.5,50.5C 164.315,51.4293 165.148,52.4293 166,53.5C 166.744,50.1292 166.244,46.9625 164.5,44C 165.549,43.5078 166.549,43.6744 167.5,44.5C 168.562,43.5754 168.562,42.5754 167.5,41.5 Z"/></g>
<g><path style="opacity:1" fill="#698a73" d="M 34.5,40.5 C 34.8333,41.8333 35.1667,43.1667 35.5,44.5C 35.5,46.1667 35.5,47.8333 35.5,49.5C 36.791,49.7373 37.791,49.404 38.5,48.5C 40.7761,48.7565 41.9428,50.0898 42,52.5C 44.0408,51.5769 46.2075,51.2436 48.5,51.5C 48.5,52.5 48.5,53.5 48.5,54.5C 50.8863,54.2587 52.8863,54.9254 54.5,56.5C 56.0745,58.5475 57.0745,60.8808 57.5,63.5C 55.8518,61.5707 54.1851,59.5707 52.5,57.5C 50.9547,56.5481 49.288,56.2148 47.5,56.5C 47.5,55.1667 47.5,53.8333 47.5,52.5C 46.448,52.3505 45.448,52.5172 44.5,53C 40.8353,57.8433 38.8353,57.01 38.5,50.5C 37.5,51.1667 36.5,51.8333 35.5,52.5C 33.4919,48.486 33.1585,44.486 34.5,40.5 Z"/></g>
<g><path style="opacity:1" fill="#285730" d="M 188.5,52.5 C 187.89,53.391 187.557,54.391 187.5,55.5C 186.549,56.9187 186.216,58.5853 186.5,60.5C 184.532,60.0061 182.532,58.6728 180.5,56.5C 177.167,57.1668 175.833,59.1668 176.5,62.5C 174.517,62.8432 173.183,62.1765 172.5,60.5C 174.395,56.6166 175.561,52.2832 176,47.5C 176.333,48.1667 176.667,48.8333 177,49.5C 177.595,48.1011 177.428,46.7678 176.5,45.5C 182.552,44.0838 186.552,46.4172 188.5,52.5 Z"/></g>
<g><path style="opacity:1" fill="#4c352a" d="M 61.5,73.5 C 61.7937,69.433 60.4603,66.0997 57.5,63.5C 57.0745,60.8808 56.0745,58.5475 54.5,56.5C 56.4024,55.4891 58.4024,55.3224 60.5,56C 66.17,59.7276 68.0033,64.8942 66,71.5C 65.0611,74.0151 63.5611,74.6817 61.5,73.5 Z"/></g>
<g><path style="opacity:1" fill="#1e2f21" d="M 136.5,43.5 C 135.957,43.56 135.624,43.8933 135.5,44.5C 136.456,46.0754 137.123,47.742 137.5,49.5C 136.869,51.4478 135.869,53.2811 134.5,55C 140.756,56.7969 146.423,59.6302 151.5,63.5C 153.822,64.8021 155.155,66.8021 155.5,69.5C 155.565,69.9382 155.399,70.2716 155,70.5C 151.497,69.5648 147.997,68.5648 144.5,67.5C 142.782,66.776 140.948,66.1094 139,65.5C 138.506,63.8659 138.34,62.1992 138.5,60.5C 136.692,60.4914 135.025,60.9914 133.5,62C 131.965,64.8682 129.799,67.0349 127,68.5C 126.506,66.8659 126.34,65.1992 126.5,63.5C 125.791,62.596 124.791,62.2627 123.5,62.5C 123.5,61.5 123.5,60.5 123.5,59.5C 125.567,59.4677 126.9,58.4677 127.5,56.5C 125.469,54.4432 125.469,52.6099 127.5,51C 125.934,50.3918 124.6,49.5585 123.5,48.5C 123.917,47.8761 124.584,47.5427 125.5,47.5C 128.77,49.4844 132.103,50.151 135.5,49.5C 133.897,48.1014 132.563,46.4347 131.5,44.5C 130.833,41.0227 130.166,37.6893 129.5,34.5C 129.5,34.1667 129.5,33.8333 129.5,33.5C 129.369,32.7611 129.536,32.0944 130,31.5C 130.739,33.2205 131.573,34.8872 132.5,36.5C 133.451,35.6744 134.451,35.5078 135.5,36C 134.289,37.1131 134.289,38.2798 135.5,39.5C 139.112,40.5468 142.779,41.3802 146.5,42C 147.849,42.7724 148.682,43.9391 149,45.5C 149.333,45.1667 149.667,44.8333 150,44.5C 151.976,45.5433 152.476,46.8767 151.5,48.5C 146.334,47.3337 141.334,45.6671 136.5,43.5 Z"/></g>
<g><path style="opacity:1" fill="#4e994e" d="M 208.5,55.5 C 206.342,58.1614 204.842,61.1614 204,64.5C 202.671,65.4939 201.338,66.4939 200,67.5C 199.055,67.0946 198.388,66.428 198,65.5C 196.658,66.9023 195.824,66.5689 195.5,64.5C 196.242,62.0202 197.242,59.6869 198.5,57.5C 197.775,56.1331 197.108,54.7997 196.5,53.5C 198.211,49.093 200.711,45.093 204,41.5C 203.392,44.3046 204.392,46.638 207,48.5C 207.186,51.0356 207.686,53.369 208.5,55.5 Z"/></g>
<g><path style="opacity:1" fill="#519f56" d="M 233.5,48.5 C 236.761,49.3778 240.094,50.0445 243.5,50.5C 243.172,55.8746 243.505,61.2079 244.5,66.5C 245.429,65.3112 245.762,63.9778 245.5,62.5C 248.844,62.6504 251.177,64.317 252.5,67.5C 249.175,68.5042 248.841,69.8375 251.5,71.5C 250.739,72.3909 249.739,73.0576 248.5,73.5C 248.277,72.0333 247.944,70.5333 247.5,69C 244.511,69.7077 241.511,69.541 238.5,68.5C 236.681,70.1282 235.347,72.1282 234.5,74.5C 233.167,75.1667 231.833,75.8333 230.5,76.5C 230.12,74.9793 229.954,73.3126 230,71.5C 229.292,72.3805 228.458,73.0472 227.5,73.5C 227.136,69.2116 227.636,64.8782 229,60.5C 231.406,56.7756 232.906,52.7756 233.5,48.5 Z"/></g>
<g><path style="opacity:1" fill="#416936" d="M 187.5,55.5 C 187.238,56.9778 187.571,58.3112 188.5,59.5C 191.91,61.9763 194.076,65.3096 195,69.5C 195.667,68.8333 196.333,68.1667 197,67.5C 198,69.1667 199,70.8333 200,72.5C 200.852,71.4293 201.685,70.4293 202.5,69.5C 202.5,71.5 202.5,73.5 202.5,75.5C 200.876,75.6399 199.71,74.9733 199,73.5C 197.989,74.3366 196.822,74.67 195.5,74.5C 195.5,75.8333 195.5,77.1667 195.5,78.5C 192.99,78.9465 190.99,78.2798 189.5,76.5C 189.811,71.2336 189.145,66.2336 187.5,61.5C 186.833,61.5 186.5,61.1667 186.5,60.5C 186.216,58.5853 186.549,56.9187 187.5,55.5 Z"/></g>
<g><path style="opacity:1" fill="#618c6e" d="M 144.5,67.5 C 147.997,68.5648 151.497,69.5648 155,70.5C 155.399,70.2716 155.565,69.9382 155.5,69.5C 156.222,70.5511 157.222,71.2178 158.5,71.5C 159.63,75.34 161.63,78.6734 164.5,81.5C 165.028,82.8474 165.195,84.1807 165,85.5C 163.743,83.2542 161.91,81.9209 159.5,81.5C 157.35,79.2404 155.183,76.9071 153,74.5C 149.182,78.6792 147.849,78.0125 149,72.5C 148.612,71.572 147.945,70.9054 147,70.5C 145.304,73.3664 142.804,74.6998 139.5,74.5C 139.5,73.5 139.5,72.5 139.5,71.5C 138.5,71.5 137.5,71.5 136.5,71.5C 136.5,70.1667 136.5,68.8333 136.5,67.5C 139.167,67.5 141.833,67.5 144.5,67.5 Z"/></g>
<g><path style="opacity:1" fill="#776d62" d="M 123.5,62.5 C 124.791,62.2627 125.791,62.596 126.5,63.5C 124.167,66.5 121.5,69.1667 118.5,71.5C 117.833,71.5 117.167,71.5 116.5,71.5C 117.463,70.6365 117.463,69.9698 116.5,69.5C 112.397,71.426 108.231,72.0927 104,71.5C 103.583,72.756 102.75,73.4226 101.5,73.5C 102.248,71.6675 103.248,70.0009 104.5,68.5C 105.315,67.5707 106.148,66.5707 107,65.5C 107.202,67.2556 107.702,68.9223 108.5,70.5C 110.336,69.081 112.336,67.9143 114.5,67C 118.588,67.3549 121.588,65.8549 123.5,62.5 Z"/></g>
<g><path style="opacity:1" fill="#3c5d45" d="M 144.5,67.5 C 141.833,67.5 139.167,67.5 136.5,67.5C 136.5,68.8333 136.5,70.1667 136.5,71.5C 137.5,71.5 138.5,71.5 139.5,71.5C 139.5,72.5 139.5,73.5 139.5,74.5C 142.804,74.6998 145.304,73.3664 147,70.5C 147.945,70.9054 148.612,71.572 149,72.5C 147.849,78.0125 149.182,78.6792 153,74.5C 155.183,76.9071 157.35,79.2404 159.5,81.5C 160.164,83.487 161.331,85.1537 163,86.5C 163.49,87.7932 163.657,89.1266 163.5,90.5C 158.393,84.2555 152.06,79.4222 144.5,76C 142.191,75.2438 140.191,75.7438 138.5,77.5C 137.719,76.2634 136.719,75.2634 135.5,74.5C 132.997,75.9643 130.33,77.131 127.5,78C 128.416,78.2784 129.082,78.7784 129.5,79.5C 126.167,79.5 122.833,79.5 119.5,79.5C 118.761,79.631 118.094,79.4643 117.5,79C 119.508,76.7661 121.508,74.4327 123.5,72C 121.866,71.5065 120.199,71.3398 118.5,71.5C 121.5,69.1667 124.167,66.5 126.5,63.5C 126.34,65.1992 126.506,66.8659 127,68.5C 129.799,67.0349 131.965,64.8682 133.5,62C 135.025,60.9914 136.692,60.4914 138.5,60.5C 138.34,62.1992 138.506,63.8659 139,65.5C 140.948,66.1094 142.782,66.776 144.5,67.5 Z"/></g>
<g><path style="opacity:1" fill="#0f1b18" d="M 218.5,78.5 C 218.737,79.791 218.404,80.791 217.5,81.5C 213.794,81.9253 210.461,83.2587 207.5,85.5C 206.914,85.2907 206.414,84.9574 206,84.5C 206.405,80.8794 206.405,77.2128 206,73.5C 205.444,75.5951 204.944,75.7618 204.5,74C 205.988,71.3751 206.822,68.5418 207,65.5C 207.667,66.1667 208.333,66.8333 209,67.5C 210.921,64.7457 211.588,61.7457 211,58.5C 210.751,59.624 210.251,60.624 209.5,61.5C 208.702,61.0431 208.369,60.3764 208.5,59.5C 209.038,57.8828 209.371,56.2161 209.5,54.5C 210.583,54.5394 211.583,54.8728 212.5,55.5C 213.192,54.9747 213.692,54.3081 214,53.5C 215.827,55.2399 215.66,56.9065 213.5,58.5C 215.909,61.041 218.576,62.3743 221.5,62.5C 219.554,65.4946 217.887,68.6612 216.5,72C 217.618,74.059 218.285,76.2257 218.5,78.5 Z"/></g>
<g><path style="opacity:1" fill="#85a185" d="M 55.5,77.5 C 55.1667,78.1667 54.8333,78.8333 54.5,79.5C 49.2233,78.9165 48.5566,79.9165 52.5,82.5C 52.4827,84.0281 51.816,84.5281 50.5,84C 47.1268,80.7078 44.1268,77.2078 41.5,73.5C 41.0015,70.1714 40.0015,67.0047 38.5,64C 38.8333,63.8333 39.1667,63.6667 39.5,63.5C 42.3193,68.468 45.1527,73.468 48,78.5C 49.4371,76.7788 48.9371,75.2788 46.5,74C 47,73.8333 47.5,73.6667 48,73.5C 49.9858,75.8146 52.4858,77.148 55.5,77.5 Z"/></g>
<g><path style="opacity:1" fill="#5a5141" d="M 97.5,74.5 C 96.791,75.404 95.791,75.7373 94.5,75.5C 94.5,74.8333 94.1667,74.5 93.5,74.5C 92.5661,72.7615 92.5661,71.0948 93.5,69.5C 95.5648,70.6536 96.8981,72.3202 97.5,74.5 Z"/></g>
<g><path style="opacity:1" fill="#939f90" d="M 116.5,71.5 C 110.394,73.18 104.394,74.8466 98.5,76.5C 97.1667,76.8333 95.8333,77.1667 94.5,77.5C 93.4937,77.0623 93.4937,76.3957 94.5,75.5C 95.791,75.7373 96.791,75.404 97.5,74.5C 98.9587,74.5674 100.292,74.2341 101.5,73.5C 102.75,73.4226 103.583,72.756 104,71.5C 108.231,72.0927 112.397,71.426 116.5,69.5C 117.463,69.9698 117.463,70.6365 116.5,71.5 Z"/></g>
<g><path style="opacity:1" fill="#99b799" d="M 18.5,77.5 C 19.6316,76.6457 20.965,76.6457 22.5,77.5C 22.9528,78.4584 23.6195,79.2917 24.5,80C 24,80.1667 23.5,80.3333 23,80.5C 21.3566,79.6854 19.8566,78.6854 18.5,77.5 Z"/></g>
<g><path style="opacity:1" fill="#99b999" d="M 33.5,79.5 C 33.9528,80.4584 34.6195,81.2917 35.5,82C 34.9056,82.4643 34.2389,82.631 33.5,82.5C 28.9315,80.5978 25.2648,77.5978 22.5,73.5C 21.9717,72.2794 21.305,71.1127 20.5,70C 21.1667,69.3333 21.8333,69.3333 22.5,70C 25.7635,73.7729 29.4302,76.9396 33.5,79.5 Z"/></g>
<g><path style="opacity:1" fill="#91ab8c" d="M 60.5,77.5 C 61.5,79.1667 62.8333,80.5 64.5,81.5C 64.6716,82.4916 64.3382,83.1583 63.5,83.5C 60.8333,80.8333 58.1667,78.1667 55.5,75.5C 55.3691,74.6236 55.7025,73.9569 56.5,73.5C 57.84,74.8665 59.1733,76.1999 60.5,77.5 Z"/></g>
<g><path style="opacity:1" fill="#6ebc6c" d="M 251.5,71.5 C 253.062,71.2671 254.395,70.6005 255.5,69.5C 255.5,71.8333 255.5,74.1667 255.5,76.5C 252.022,75.7742 248.355,75.7742 244.5,76.5C 242.073,71.3063 240.073,71.3063 238.5,76.5C 241.613,76.0646 242.279,77.0646 240.5,79.5C 236.964,83.925 233.964,88.5917 231.5,93.5C 231.423,92.2502 230.756,91.4169 229.5,91C 231.167,89.3333 232.833,87.6667 234.5,86C 234,85.8333 233.5,85.6667 233,85.5C 229.684,87.843 226.184,90.0096 222.5,92C 220.735,92.6397 219.068,92.4731 217.5,91.5C 218.623,86.5538 219.623,81.5538 220.5,76.5C 223.631,77.0922 225.964,76.0922 227.5,73.5C 228.458,73.0472 229.292,72.3805 230,71.5C 229.954,73.3126 230.12,74.9793 230.5,76.5C 231.833,75.8333 233.167,75.1667 234.5,74.5C 235.347,72.1282 236.681,70.1282 238.5,68.5C 241.511,69.541 244.511,69.7077 247.5,69C 247.944,70.5333 248.277,72.0333 248.5,73.5C 249.739,73.0576 250.739,72.3909 251.5,71.5 Z"/></g>
<g><path style="opacity:1" fill="#417258" d="M 116.5,71.5 C 117.167,71.5 117.833,71.5 118.5,71.5C 120.199,71.3398 121.866,71.5065 123.5,72C 121.508,74.4327 119.508,76.7661 117.5,79C 118.094,79.4643 118.761,79.631 119.5,79.5C 117.629,80.7972 115.629,81.7972 113.5,82.5C 111.801,82.3398 110.134,82.5065 108.5,83C 107.316,84.1455 107.316,85.3121 108.5,86.5C 106.915,85.5263 105.915,84.0263 105.5,82C 100.111,81.0452 94.9443,81.5452 90,83.5C 88.6244,83.3158 87.7911,82.6491 87.5,81.5C 90.0547,80.5389 92.388,79.2055 94.5,77.5C 95.8333,77.1667 97.1667,76.8333 98.5,76.5C 104.394,74.8466 110.394,73.18 116.5,71.5 Z"/></g>
<g><path style="opacity:1" fill="#5baf91" d="M 98.5,76.5 C 103.5,75.8333 108.5,75.1667 113.5,74.5C 113.5,75.5 113.5,76.5 113.5,77.5C 109.132,77.3701 104.798,77.7035 100.5,78.5C 98.0239,78.7674 97.3572,78.1007 98.5,76.5 Z"/></g>
<g><path style="opacity:1" fill="#3a7f45" d="M 178.5,85.5 C 176.059,82.0508 173.059,79.3841 169.5,77.5C 168.735,74.9039 168.401,72.2372 168.5,69.5C 173.16,69.7478 176.993,71.7478 180,75.5C 181.24,78.412 182.906,81.0787 185,83.5C 185.494,85.1341 185.66,86.8008 185.5,88.5C 182.547,88.8504 180.213,87.8504 178.5,85.5 Z"/></g>
<g><path style="opacity:1" fill="#868d75" d="M 42.5,82.5 C 44.644,84.1331 46.3107,86.1331 47.5,88.5C 47.1583,89.3382 46.4916,89.6716 45.5,89.5C 43.9519,89.1788 43.2852,88.1788 43.5,86.5C 40.4392,86.5557 38.2725,85.2224 37,82.5C 35.7083,83.7911 34.5417,83.7911 33.5,82.5C 34.2389,82.631 34.9056,82.4643 35.5,82C 34.6195,81.2917 33.9528,80.4584 33.5,79.5C 33.26,78.7179 33.26,77.7179 33.5,76.5C 36.7007,78.2622 39.7007,80.2622 42.5,82.5 Z"/></g>
<g><path style="opacity:1" fill="#675a49" d="M 41.5,73.5 C 44.1268,77.2078 47.1268,80.7078 50.5,84C 51.816,84.5281 52.4827,84.0281 52.5,82.5C 54.0898,82.3718 55.4231,81.7051 56.5,80.5C 56.0431,79.7025 55.3764,79.3691 54.5,79.5C 54.8333,78.8333 55.1667,78.1667 55.5,77.5C 55.5,76.8333 55.5,76.1667 55.5,75.5C 58.1667,78.1667 60.8333,80.8333 63.5,83.5C 63.6107,84.1174 63.944,84.6174 64.5,85C 62.9336,85.6082 61.6002,86.4415 60.5,87.5C 57.7129,86.5253 55.0462,86.8587 52.5,88.5C 50.602,87.9035 48.9354,87.9035 47.5,88.5C 46.3107,86.1331 44.644,84.1331 42.5,82.5C 42.6323,79.4299 42.299,76.4299 41.5,73.5 Z"/></g>
<g><path style="opacity:1" fill="#16150e" d="M 54.5,79.5 C 55.3764,79.3691 56.0431,79.7025 56.5,80.5C 55.4231,81.7051 54.0898,82.3718 52.5,82.5C 48.5566,79.9165 49.2233,78.9165 54.5,79.5 Z"/></g>
<g><path style="opacity:1" fill="#626854" d="M 94.5,75.5 C 93.4937,76.3957 93.4937,77.0623 94.5,77.5C 92.388,79.2055 90.0547,80.5389 87.5,81.5C 86.8333,81.5 86.1667,81.5 85.5,81.5C 81.119,81.1326 79.4524,82.7993 80.5,86.5C 77.6681,85.8997 74.8348,85.2331 72,84.5C 69.9636,84.9536 68.1303,85.7869 66.5,87C 64.5273,87.4955 62.5273,87.6621 60.5,87.5C 61.6002,86.4415 62.9336,85.6082 64.5,85C 63.944,84.6174 63.6107,84.1174 63.5,83.5C 64.3382,83.1583 64.6716,82.4916 64.5,81.5C 66.5,81.1667 68.5,80.8333 70.5,80.5C 70.67,79.1779 70.3366,78.0113 69.5,77C 70,76.8333 70.5,76.6667 71,76.5C 72.473,78.0463 74.3064,79.0463 76.5,79.5C 78.5122,79.1604 80.5122,78.8271 82.5,78.5C 82.3379,76.4727 82.5045,74.4727 83,72.5C 84.5095,74.2077 86.0095,75.8744 87.5,77.5C 89.8013,76.6751 92.1346,76.0084 94.5,75.5 Z"/></g>
<g><path style="opacity:1" fill="#509989" d="M 85.5,81.5 C 85.634,83.2915 85.3007,84.9582 84.5,86.5C 83.1667,86.5 81.8333,86.5 80.5,86.5C 79.4524,82.7993 81.119,81.1326 85.5,81.5 Z"/></g>
<g><path style="opacity:1" fill="#62574a" d="M 22.5,73.5 C 25.2648,77.5978 28.9315,80.5978 33.5,82.5C 34.5417,83.7911 35.7083,83.7911 37,82.5C 38.2725,85.2224 40.4392,86.5557 43.5,86.5C 43.2852,88.1788 43.9519,89.1788 45.5,89.5C 43.7211,91.3435 41.3878,92.0102 38.5,91.5C 36.4176,91.472 34.5843,92.1387 33,93.5C 30.9817,92.7772 29.1484,91.7772 27.5,90.5C 24.7537,87.7618 22.4203,84.7618 20.5,81.5C 19.3995,80.3951 18.7329,79.0618 18.5,77.5C 19.8566,78.6854 21.3566,79.6854 23,80.5C 23.5,80.3333 24,80.1667 24.5,80C 23.6195,79.2917 22.9528,78.4584 22.5,77.5C 22.5,76.1667 22.5,74.8333 22.5,73.5 Z"/></g>
<g><path style="opacity:1" fill="#81d87d" d="M 255.5,76.5 C 255.5,83.5 255.5,90.5 255.5,97.5C 254.448,97.3505 253.448,97.5172 252.5,98C 248.513,101.997 243.846,104.997 238.5,107C 237.663,108.011 237.33,109.178 237.5,110.5C 234.081,111.726 231.081,110.893 228.5,108C 226.527,107.505 224.527,107.338 222.5,107.5C 222.5,106.167 222.5,104.833 222.5,103.5C 224.979,102.026 227.646,101.026 230.5,100.5C 230.674,98.139 231.007,95.8056 231.5,93.5C 233.964,88.5917 236.964,83.925 240.5,79.5C 242.279,77.0646 241.613,76.0646 238.5,76.5C 240.073,71.3063 242.073,71.3063 244.5,76.5C 248.355,75.7742 252.022,75.7742 255.5,76.5 Z"/></g>
<g><path style="opacity:1" fill="#341a16" d="M 28.5,84.5 C 32.5332,84.6914 34.0332,86.6914 33,90.5C 30.8733,88.8863 29.3733,86.8863 28.5,84.5 Z"/></g>
<g><path style="opacity:1" fill="#b5ad98" d="M 34.5,85.5 C 36.9781,86.1949 38.9781,87.6949 40.5,90C 38.5273,90.4955 36.5273,90.6621 34.5,90.5C 34.5,88.8333 34.5,87.1667 34.5,85.5 Z"/></g>
<g><path style="opacity:1" fill="#325c46" d="M 80.5,86.5 C 81.8333,86.5 83.1667,86.5 84.5,86.5C 82.3737,87.1255 80.707,88.4589 79.5,90.5C 80.0253,91.1924 80.6919,91.6924 81.5,92C 81.1667,92.3333 80.8333,92.6667 80.5,93C 81.7932,93.49 83.1266,93.6567 84.5,93.5C 84.8333,94.1667 85.1667,94.8333 85.5,95.5C 76.7212,91.8952 68.0546,92.3952 59.5,97C 62.146,97.4974 64.8127,97.6641 67.5,97.5C 67.5,98.5 67.5,99.5 67.5,100.5C 64.5118,98.727 61.1785,98.0604 57.5,98.5C 57.5,96.8333 57.5,95.1667 57.5,93.5C 55.1137,93.7413 53.1137,93.0746 51.5,91.5C 51.5569,90.391 51.8902,89.391 52.5,88.5C 55.0462,86.8587 57.7129,86.5253 60.5,87.5C 62.5273,87.6621 64.5273,87.4955 66.5,87C 68.1303,85.7869 69.9636,84.9536 72,84.5C 74.8348,85.2331 77.6681,85.8997 80.5,86.5 Z"/></g>
<g><path style="opacity:1" fill="#193c21" d="M 205.5,65.5 C 205.19,69.268 204.357,72.9347 203,76.5C 200.386,78.0565 199.053,80.3898 199,83.5C 198.667,82.1667 198.333,80.8333 198,79.5C 197.667,81.8333 197.333,84.1667 197,86.5C 195.984,85.3659 195.317,85.6992 195,87.5C 194.503,89.8098 194.337,92.1432 194.5,94.5C 192.549,95.7158 191.049,97.3825 190,99.5C 189.617,98.944 189.117,98.6107 188.5,98.5C 186.931,94.215 186.264,89.715 186.5,85C 186.833,81.5 187.167,78 187.5,74.5C 188.182,75.2427 188.849,75.9094 189.5,76.5C 190.99,78.2798 192.99,78.9465 195.5,78.5C 195.5,77.1667 195.5,75.8333 195.5,74.5C 196.822,74.67 197.989,74.3366 199,73.5C 199.71,74.9733 200.876,75.6399 202.5,75.5C 202.5,73.5 202.5,71.5 202.5,69.5C 203.026,67.7697 204.026,66.4363 205.5,65.5 Z"/></g>
<g><path style="opacity:1" fill="#458257" d="M 159.5,81.5 C 161.91,81.9209 163.743,83.2542 165,85.5C 165.195,84.1807 165.028,82.8474 164.5,81.5C 166.97,81.6535 168.97,82.6535 170.5,84.5C 173.971,88.0653 177.637,91.3987 181.5,94.5C 182.736,93.7542 184.07,93.4208 185.5,93.5C 185.689,97.037 185.023,100.37 183.5,103.5C 180.664,104.168 178.164,105.502 176,107.5C 171.614,101.954 167.447,96.2874 163.5,90.5C 163.657,89.1266 163.49,87.7932 163,86.5C 161.331,85.1537 160.164,83.487 159.5,81.5 Z"/></g>
<g><path style="opacity:1" fill="#2e613b" d="M 187.5,61.5 C 189.145,66.2336 189.811,71.2336 189.5,76.5C 188.849,75.9094 188.182,75.2427 187.5,74.5C 187.167,78 186.833,81.5 186.5,85C 186.264,89.715 186.931,94.215 188.5,98.5C 188.67,99.8221 188.337,100.989 187.5,102C 189.653,102.099 191.319,102.933 192.5,104.5C 190.851,106.175 189.518,108.175 188.5,110.5C 187.264,111.246 185.93,111.579 184.5,111.5C 184.723,109.658 185.057,107.825 185.5,106C 185.316,104.624 184.649,103.791 183.5,103.5C 185.023,100.37 185.689,97.037 185.5,93.5C 184.07,93.4208 182.736,93.7542 181.5,94.5C 177.637,91.3987 173.971,88.0653 170.5,84.5C 172.973,84.7991 175.14,85.7991 177,87.5C 178.03,87.1639 178.53,86.4972 178.5,85.5C 180.213,87.8504 182.547,88.8504 185.5,88.5C 185.66,86.8008 185.494,85.1341 185,83.5C 182.906,81.0787 181.24,78.412 180,75.5C 176.993,71.7478 173.16,69.7478 168.5,69.5C 168.401,72.2372 168.735,74.9039 169.5,77.5C 167.983,77.4894 166.816,76.8228 166,75.5C 164.837,70.5094 162.17,66.5094 158,63.5C 155.427,59.3127 153.427,54.9794 152,50.5C 155.973,53.7845 158.973,57.7845 161,62.5C 162.558,64.3589 164.391,65.8589 166.5,67C 170.757,66.4683 175.091,66.4683 179.5,67C 181.483,68.1136 183.15,69.6136 184.5,71.5C 185.689,72.4287 187.022,72.762 188.5,72.5C 187.886,68.8648 187.552,65.1981 187.5,61.5 Z"/></g>
<g><path style="opacity:1" fill="#1d2a21" d="M 52.5,88.5 C 51.8902,89.391 51.5569,90.391 51.5,91.5C 51.3059,93.9118 49.9726,94.9118 47.5,94.5C 44.8806,94.7683 42.3806,94.435 40,93.5C 39.6667,94.5 39.3333,95.5 39,96.5C 36.8683,95.2203 34.7016,95.2203 32.5,96.5C 31.7025,96.0431 31.3691,95.3764 31.5,94.5C 34.6363,95.0209 36.9696,94.0209 38.5,91.5C 41.3878,92.0102 43.7211,91.3435 45.5,89.5C 46.4916,89.6716 47.1583,89.3382 47.5,88.5C 48.9354,87.9035 50.602,87.9035 52.5,88.5 Z"/></g>
<g><path style="opacity:1" fill="#224634" d="M 85.5,81.5 C 86.1667,81.5 86.8333,81.5 87.5,81.5C 87.7911,82.6491 88.6244,83.3158 90,83.5C 94.9443,81.5452 100.111,81.0452 105.5,82C 105.915,84.0263 106.915,85.5263 108.5,86.5C 109.29,87.6085 109.79,88.9419 110,90.5C 110.671,91.2524 111.504,91.5858 112.5,91.5C 113.219,93.7638 113.552,96.0971 113.5,98.5C 111.451,98.2942 111.117,97.4609 112.5,96C 107.706,95.2753 103.04,94.1087 98.5,92.5C 99.6874,90.0987 101.021,87.7653 102.5,85.5C 102.135,84.0981 101.301,83.0981 100,82.5C 94.4798,84.0155 89.3132,86.1822 84.5,89C 85.7279,90.4902 85.7279,91.9902 84.5,93.5C 83.1266,93.6567 81.7932,93.49 80.5,93C 80.8333,92.6667 81.1667,92.3333 81.5,92C 80.6919,91.6924 80.0253,91.1924 79.5,90.5C 80.707,88.4589 82.3737,87.1255 84.5,86.5C 85.3007,84.9582 85.634,83.2915 85.5,81.5 Z"/></g>
<g><path style="opacity:1" fill="#1b2e24" d="M 217.5,81.5 C 217.483,83.5648 217.15,85.5648 216.5,87.5C 216.25,91.6446 214.584,95.1446 211.5,98C 207.241,98.4587 203.241,99.6253 199.5,101.5C 199.5,99.5 199.5,97.5 199.5,95.5C 197.708,95.634 196.042,95.3007 194.5,94.5C 194.337,92.1432 194.503,89.8098 195,87.5C 195.317,85.6992 195.984,85.3659 197,86.5C 197.333,84.1667 197.667,81.8333 198,79.5C 198.333,80.8333 198.667,82.1667 199,83.5C 199.053,80.3898 200.386,78.0565 203,76.5C 204.357,72.9347 205.19,69.268 205.5,65.5C 206.514,63.4261 207.514,61.4261 208.5,59.5C 208.369,60.3764 208.702,61.0431 209.5,61.5C 210.251,60.624 210.751,59.624 211,58.5C 211.588,61.7457 210.921,64.7457 209,67.5C 208.333,66.8333 207.667,66.1667 207,65.5C 206.822,68.5418 205.988,71.3751 204.5,74C 204.944,75.7618 205.444,75.5951 206,73.5C 206.405,77.2128 206.405,80.8794 206,84.5C 206.414,84.9574 206.914,85.2907 207.5,85.5C 210.461,83.2587 213.794,81.9253 217.5,81.5 Z"/></g>
<g><path style="opacity:1" fill="#3b7e48" d="M 113.5,82.5 C 116.187,82.3359 118.854,82.5026 121.5,83C 120.167,83.6667 119.167,84.6667 118.5,86C 122.946,86.9246 127.112,88.4246 131,90.5C 132.848,86.6655 135.015,86.4988 137.5,90C 140.224,90.2695 142.891,90.7695 145.5,91.5C 149.863,97.2756 151.197,103.609 149.5,110.5C 144.564,110.064 141.731,107.397 141,102.5C 138.57,99.7855 135.57,98.1188 132,97.5C 130.812,98.5634 130.312,99.8967 130.5,101.5C 129.167,101.5 127.833,101.5 126.5,101.5C 126.753,99.1727 126.086,97.1727 124.5,95.5C 122.55,96.3721 120.55,97.0388 118.5,97.5C 117.761,97.631 117.094,97.4643 116.5,97C 115.968,94.5368 114.634,92.7035 112.5,91.5C 111.504,91.5858 110.671,91.2524 110,90.5C 109.79,88.9419 109.29,87.6085 108.5,86.5C 107.316,85.3121 107.316,84.1455 108.5,83C 110.134,82.5065 111.801,82.3398 113.5,82.5 Z"/></g>
<g><path style="opacity:1" fill="#63a768" d="M 231.5,93.5 C 231.007,95.8056 230.674,98.139 230.5,100.5C 227.646,101.026 224.979,102.026 222.5,103.5C 222.56,99.38 224.227,96.0467 227.5,93.5C 227.167,93.1667 226.833,92.8333 226.5,92.5C 224.058,93.9944 221.391,94.9944 218.5,95.5C 217.571,94.3112 217.238,92.9778 217.5,91.5C 219.068,92.4731 220.735,92.6397 222.5,92C 226.184,90.0096 229.684,87.843 233,85.5C 233.5,85.6667 234,85.8333 234.5,86C 232.833,87.6667 231.167,89.3333 229.5,91C 230.756,91.4169 231.423,92.2502 231.5,93.5 Z"/></g>
<g><path style="opacity:1" fill="#427860" d="M 85.5,95.5 C 87.9408,96.709 89.9408,98.3757 91.5,100.5C 90.5483,103.032 89.8816,105.366 89.5,107.5C 86.9124,106.806 84.579,105.64 82.5,104C 83.1667,103.667 83.8333,103.333 84.5,103C 81.9568,102.86 79.6234,102.194 77.5,101C 80.5285,100.461 83.5285,99.7943 86.5,99C 80.1371,98.9038 73.8038,99.4038 67.5,100.5C 67.5,99.5 67.5,98.5 67.5,97.5C 64.8127,97.6641 62.146,97.4974 59.5,97C 68.0546,92.3952 76.7212,91.8952 85.5,95.5 Z"/></g>
<g><path style="opacity:1" fill="#3d5e62" d="M 20.5,81.5 C 22.4203,84.7618 24.7537,87.7618 27.5,90.5C 27.5,91.5 27.5,92.5 27.5,93.5C 26.4168,93.4606 25.4168,93.1272 24.5,92.5C 23.6667,93.5 22.8333,94.5 22,95.5C 21.6667,95.1667 21.3333,94.8333 21,94.5C 19.738,96.3028 18.0713,97.6361 16,98.5C 15.6667,98.1667 15.3333,97.8333 15,97.5C 12.8927,99.3326 10.3927,100.499 7.5,101C 8.83333,101.667 8.83333,102.333 7.5,103C 4.42408,104.243 1.75741,106.077 -0.5,108.5C -0.5,103.833 -0.5,99.1667 -0.5,94.5C 2.61675,93.218 4.95009,91.0513 6.5,88C 7.5,87.5 8.5,87 9.5,86.5C 10.7678,87.4279 12.1011,87.5946 13.5,87C 12.8333,86.6667 12.1667,86.3333 11.5,86C 13.1667,85.6667 14.8333,85.3333 16.5,85C 16.1667,84.6667 15.8333,84.3333 15.5,84C 17.1932,83.1534 18.8599,82.3201 20.5,81.5 Z"/></g>
<g><path style="opacity:1" fill="#1e3f39" d="M 51.5,91.5 C 53.1137,93.0746 55.1137,93.7413 57.5,93.5C 57.5,95.1667 57.5,96.8333 57.5,98.5C 61.1785,98.0604 64.5118,98.727 67.5,100.5C 72.699,103.299 78.0323,105.799 83.5,108C 84.4132,109.414 84.4132,110.914 83.5,112.5C 80.8458,111.878 78.3458,110.878 76,109.5C 75.0546,109.905 74.3879,110.572 74,111.5C 69.3048,110.331 64.8048,108.665 60.5,106.5C 59.8243,107.602 59.1577,108.602 58.5,109.5C 56.7162,107.59 55.7162,105.256 55.5,102.5C 52.4281,102.817 49.4281,102.484 46.5,101.5C 47.7178,100.197 47.3845,99.1973 45.5,98.5C 46.6302,97.3777 47.2969,96.0443 47.5,94.5C 49.9726,94.9118 51.3059,93.9118 51.5,91.5 Z"/></g>
<g><path style="opacity:1" fill="#324b3e" d="M 216.5,87.5 C 216.5,91.1667 216.5,94.8333 216.5,98.5C 219.588,98.1966 221.254,99.5299 221.5,102.5C 217.696,100.548 216.696,101.548 218.5,105.5C 218.5,106.167 218.5,106.833 218.5,107.5C 218.5,108.167 218.167,108.5 217.5,108.5C 217.167,108.5 216.833,108.5 216.5,108.5C 214.695,106.803 212.361,105.97 209.5,106C 204.177,105.501 198.844,105.334 193.5,105.5C 193.5,104.833 193.167,104.5 192.5,104.5C 191.319,102.933 189.653,102.099 187.5,102C 188.337,100.989 188.67,99.8221 188.5,98.5C 189.117,98.6107 189.617,98.944 190,99.5C 191.049,97.3825 192.549,95.7158 194.5,94.5C 196.042,95.3007 197.708,95.634 199.5,95.5C 199.5,97.5 199.5,99.5 199.5,101.5C 203.241,99.6253 207.241,98.4587 211.5,98C 214.584,95.1446 216.25,91.6446 216.5,87.5 Z"/></g>
<g><path style="opacity:1" fill="#163d2b" d="M 163.5,90.5 C 167.447,96.2874 171.614,101.954 176,107.5C 178.164,105.502 180.664,104.168 183.5,103.5C 184.649,103.791 185.316,104.624 185.5,106C 185.057,107.825 184.723,109.658 184.5,111.5C 185.93,111.579 187.264,111.246 188.5,110.5C 189.518,108.175 190.851,106.175 192.5,104.5C 193.167,104.5 193.5,104.833 193.5,105.5C 193.026,109.48 190.859,112.147 187,113.5C 184.922,116.87 184.089,120.537 184.5,124.5C 183.839,123.282 183.172,121.949 182.5,120.5C 180.929,121.309 179.262,121.643 177.5,121.5C 181.256,117.485 182.256,112.818 180.5,107.5C 177.585,110.754 173.919,112.588 169.5,113C 165.301,117.145 160.634,117.645 155.5,114.5C 155.177,110.774 155.511,107.107 156.5,103.5C 159.172,105.425 160.172,108.092 159.5,111.5C 163.071,111.592 164.238,109.926 163,106.5C 162.07,103.638 160.403,101.305 158,99.5C 157.798,97.7444 157.298,96.0777 156.5,94.5C 154.572,95.7122 152.905,95.3789 151.5,93.5C 145.032,90.7548 138.699,87.5882 132.5,84C 131.601,82.3484 130.601,80.8484 129.5,79.5C 129.082,78.7784 128.416,78.2784 127.5,78C 130.33,77.131 132.997,75.9643 135.5,74.5C 136.719,75.2634 137.719,76.2634 138.5,77.5C 140.191,75.7438 142.191,75.2438 144.5,76C 152.06,79.4222 158.393,84.2555 163.5,90.5 Z"/></g>
<g><path style="opacity:1" fill="#7a9f84" d="M 27.5,90.5 C 29.1484,91.7772 30.9817,92.7772 33,93.5C 34.5843,92.1387 36.4176,91.472 38.5,91.5C 36.9696,94.0209 34.6363,95.0209 31.5,94.5C 29.6469,93.3857 29.1469,94.0524 30,96.5C 33.3969,100.949 37.8969,103.449 43.5,104C 48.003,106.752 52.6697,109.252 57.5,111.5C 64.1667,114.833 70.8333,118.167 77.5,121.5C 80.4001,122.443 82.7334,124.11 84.5,126.5C 82.9557,126.297 81.6223,125.63 80.5,124.5C 80.4568,127.088 81.6234,129.421 84,131.5C 84.6877,132.332 84.521,132.998 83.5,133.5C 81.4707,131.142 79.4707,128.808 77.5,126.5C 76.5745,127.641 75.7412,127.641 75,126.5C 74.2109,128.712 74.3775,130.712 75.5,132.5C 75.5394,133.583 75.8728,134.583 76.5,135.5C 76.1543,136.696 75.6543,136.696 75,135.5C 72.1973,130.863 69.6973,126.196 67.5,121.5C 67.67,120.178 67.3366,119.011 66.5,118C 61.9239,115.876 57.2573,114.043 52.5,112.5C 52.2648,111.903 51.7648,111.57 51,111.5C 49.3566,112.315 47.8566,113.315 46.5,114.5C 47.3657,112.856 47.8657,111.189 48,109.5C 44.2231,105.862 39.7231,103.695 34.5,103C 31.1119,100.469 28.7786,97.302 27.5,93.5C 27.5,92.5 27.5,91.5 27.5,90.5 Z"/></g>
<g><path style="opacity:1" fill="#32665f" d="M 91.5,100.5 C 91.5,101.5 91.5,102.5 91.5,103.5C 92.9907,102.543 94.824,101.877 97,101.5C 98.3847,101.514 99.5514,101.848 100.5,102.5C 100.67,103.822 100.337,104.989 99.5,106C 93.8084,107.587 88.475,109.754 83.5,112.5C 84.4132,110.914 84.4132,109.414 83.5,108C 78.0323,105.799 72.699,103.299 67.5,100.5C 73.8038,99.4038 80.1371,98.9038 86.5,99C 83.5285,99.7943 80.5285,100.461 77.5,101C 79.6234,102.194 81.9568,102.86 84.5,103C 83.8333,103.333 83.1667,103.667 82.5,104C 84.579,105.64 86.9124,106.806 89.5,107.5C 89.8816,105.366 90.5483,103.032 91.5,100.5 Z"/></g>
<g><path style="opacity:1" fill="#4b7271" d="M 27.5,93.5 C 28.7786,97.302 31.1119,100.469 34.5,103C 39.7231,103.695 44.2231,105.862 48,109.5C 47.8657,111.189 47.3657,112.856 46.5,114.5C 40.1945,118.322 33.8611,122.155 27.5,126C 24.5468,129.408 21.7135,132.908 19,136.5C 17.295,138.577 16.1283,140.91 15.5,143.5C 10.1667,143.5 4.83333,143.5 -0.5,143.5C -0.5,131.833 -0.5,120.167 -0.5,108.5C 1.75741,106.077 4.42408,104.243 7.5,103C 8.83333,102.333 8.83333,101.667 7.5,101C 10.3927,100.499 12.8927,99.3326 15,97.5C 15.3333,97.8333 15.6667,98.1667 16,98.5C 18.0713,97.6361 19.738,96.3028 21,94.5C 21.3333,94.8333 21.6667,95.1667 22,95.5C 22.8333,94.5 23.6667,93.5 24.5,92.5C 25.4168,93.1272 26.4168,93.4606 27.5,93.5 Z"/></g>
<g><path style="opacity:1" fill="#225236" d="M 151.5,93.5 C 152.905,95.3789 154.572,95.7122 156.5,94.5C 157.298,96.0777 157.798,97.7444 158,99.5C 160.403,101.305 162.07,103.638 163,106.5C 164.238,109.926 163.071,111.592 159.5,111.5C 160.172,108.092 159.172,105.425 156.5,103.5C 155.511,107.107 155.177,110.774 155.5,114.5C 154.833,114.5 154.167,114.5 153.5,114.5C 151.235,116.642 148.568,118.309 145.5,119.5C 147.391,117.522 149.391,115.522 151.5,113.5C 154.458,107.232 154.125,101.232 150.5,95.5C 150.863,94.8165 151.196,94.1499 151.5,93.5 Z"/></g>
<g><path style="opacity:1" fill="#15322a" d="M 113.5,98.5 C 113.784,100.415 113.451,102.081 112.5,103.5C 110.612,105.988 109.945,108.988 110.5,112.5C 108.167,112.5 105.833,112.5 103.5,112.5C 103.5,110.833 103.5,109.167 103.5,107.5C 102.448,107.649 101.448,107.483 100.5,107C 101.801,105.384 101.801,103.884 100.5,102.5C 99.5514,101.848 98.3847,101.514 97,101.5C 94.824,101.877 92.9907,102.543 91.5,103.5C 91.5,102.5 91.5,101.5 91.5,100.5C 89.9408,98.3757 87.9408,96.709 85.5,95.5C 85.1667,94.8333 84.8333,94.1667 84.5,93.5C 85.7279,91.9902 85.7279,90.4902 84.5,89C 89.3132,86.1822 94.4798,84.0155 100,82.5C 101.301,83.0981 102.135,84.0981 102.5,85.5C 101.021,87.7653 99.6874,90.0987 98.5,92.5C 103.04,94.1087 107.706,95.2753 112.5,96C 111.117,97.4609 111.451,98.2942 113.5,98.5 Z"/></g>
<g><path style="opacity:1" fill="#34735d" d="M 112.5,91.5 C 114.634,92.7035 115.968,94.5368 116.5,97C 117.094,97.4643 117.761,97.631 118.5,97.5C 120.438,99.1628 122.772,99.8294 125.5,99.5C 125.5,101.5 125.5,103.5 125.5,105.5C 123.194,105.993 120.861,106.326 118.5,106.5C 118.5,107.5 118.5,108.5 118.5,109.5C 119.791,109.263 120.791,109.596 121.5,110.5C 118.813,110.664 116.146,110.497 113.5,110C 112.577,107.959 112.244,105.792 112.5,103.5C 113.451,102.081 113.784,100.415 113.5,98.5C 113.552,96.0971 113.219,93.7638 112.5,91.5 Z"/></g>
<g><path style="opacity:1" fill="#315f5a" d="M 31.5,94.5 C 31.3691,95.3764 31.7025,96.0431 32.5,96.5C 34.7016,95.2203 36.8683,95.2203 39,96.5C 39.3333,95.5 39.6667,94.5 40,93.5C 42.3806,94.435 44.8806,94.7683 47.5,94.5C 47.2969,96.0443 46.6302,97.3777 45.5,98.5C 47.3845,99.1973 47.7178,100.197 46.5,101.5C 49.4281,102.484 52.4281,102.817 55.5,102.5C 55.7162,105.256 56.7162,107.59 58.5,109.5C 57.6618,109.842 57.3284,110.508 57.5,111.5C 52.6697,109.252 48.003,106.752 43.5,104C 37.8969,103.449 33.3969,100.949 30,96.5C 29.1469,94.0524 29.6469,93.3857 31.5,94.5 Z"/></g>
<g><path style="opacity:1" fill="#0a1e15" d="M 216.5,108.5 C 216.833,108.5 217.167,108.5 217.5,108.5C 217.649,111.607 217.149,114.607 216,117.5C 214.008,118.328 212.508,119.661 211.5,121.5C 210.143,122.59 209.143,123.924 208.5,125.5C 206.059,127.075 204.893,129.408 205,132.5C 203.498,135.018 201.998,137.518 200.5,140C 199,140.5 197.5,141 196,141.5C 194.578,140.795 193.245,140.461 192,140.5C 191.5,139.5 191,138.5 190.5,137.5C 193.221,132.417 195.388,127.084 197,121.5C 197.455,118.146 197.955,114.813 198.5,111.5C 201.114,111.723 202.781,110.556 203.5,108C 207.92,107.232 212.253,107.398 216.5,108.5 Z"/></g>
<g><path style="opacity:1" fill="#2f7249" d="M 255.5,97.5 C 255.5,103.167 255.5,108.833 255.5,114.5C 252.741,115.642 250.074,116.976 247.5,118.5C 245.077,117.288 244.077,115.288 244.5,112.5C 241.921,112.606 239.588,111.939 237.5,110.5C 237.33,109.178 237.663,108.011 238.5,107C 243.846,104.997 248.513,101.997 252.5,98C 253.448,97.5172 254.448,97.3505 255.5,97.5 Z"/></g>
<g><path style="opacity:1" fill="#18463f" d="M 100.5,102.5 C 101.801,103.884 101.801,105.384 100.5,107C 101.448,107.483 102.448,107.649 103.5,107.5C 103.5,109.167 103.5,110.833 103.5,112.5C 105.833,112.5 108.167,112.5 110.5,112.5C 109.945,108.988 110.612,105.988 112.5,103.5C 112.244,105.792 112.577,107.959 113.5,110C 116.146,110.497 118.813,110.664 121.5,110.5C 122.937,114.108 124.437,117.775 126,121.5C 126.333,121.167 126.667,120.833 127,120.5C 128.713,124.412 130.547,124.412 132.5,120.5C 133.192,121.025 133.692,121.692 134,122.5C 138.041,122.042 141.874,121.042 145.5,119.5C 148.568,118.309 151.235,116.642 153.5,114.5C 152.489,116.372 151.655,118.372 151,120.5C 149.601,121.227 148.101,121.727 146.5,122C 145.687,123.803 144.52,125.303 143,126.5C 137.215,127.434 131.382,127.768 125.5,127.5C 124.057,126.665 123.057,125.332 122.5,123.5C 120.958,122.253 119.458,122.253 118,123.5C 117.705,120.568 116.205,118.568 113.5,117.5C 110.966,118.788 108.466,118.788 106,117.5C 105.667,118.167 105.333,118.833 105,119.5C 97.5136,117.681 90.3469,115.347 83.5,112.5C 88.475,109.754 93.8084,107.587 99.5,106C 100.337,104.989 100.67,103.822 100.5,102.5 Z"/></g>
<g><path style="opacity:1" fill="#052625" d="M 177.5,121.5 C 172.453,125.369 167.786,129.702 163.5,134.5C 159.672,136.329 157.339,139.329 156.5,143.5C 152.5,143.5 148.5,143.5 144.5,143.5C 152.949,139.234 160.449,133.567 167,126.5C 167.483,125.552 167.649,124.552 167.5,123.5C 168.538,121.892 167.871,120.892 165.5,120.5C 161.833,123 158.167,125.5 154.5,128C 148.857,128.864 143.19,129.531 137.5,130C 138.167,130.333 138.833,130.667 139.5,131C 137.351,132.164 135.185,133.33 133,134.5C 133.077,133.262 132.911,132.262 132.5,131.5C 129.882,134.452 126.715,136.452 123,137.5C 122.586,137.043 122.086,136.709 121.5,136.5C 118.827,138.386 116.327,140.386 114,142.5C 112.941,142.37 112.108,141.87 111.5,141C 112.78,138.868 112.78,136.702 111.5,134.5C 113.36,133.675 115.026,132.675 116.5,131.5C 119.325,131.919 121.491,130.919 123,128.5C 124.159,129.566 124.992,129.233 125.5,127.5C 131.382,127.768 137.215,127.434 143,126.5C 144.52,125.303 145.687,123.803 146.5,122C 148.101,121.727 149.601,121.227 151,120.5C 151.655,118.372 152.489,116.372 153.5,114.5C 154.167,114.5 154.833,114.5 155.5,114.5C 160.634,117.645 165.301,117.145 169.5,113C 173.919,112.588 177.585,110.754 180.5,107.5C 182.256,112.818 181.256,117.485 177.5,121.5 Z"/></g>
<g><path style="opacity:1" fill="#2f6659" d="M 52.5,112.5 C 57.2573,114.043 61.9239,115.876 66.5,118C 67.3366,119.011 67.67,120.178 67.5,121.5C 66.8333,121.5 66.1667,121.5 65.5,121.5C 64.2918,120.218 62.9584,120.218 61.5,121.5C 59.6019,124.223 57.9352,127.057 56.5,130C 53.5755,130.988 50.5755,131.654 47.5,132C 43.8333,135 40.1667,138 36.5,141C 34.6226,141.576 32.7892,141.409 31,140.5C 29.0188,140.899 27.5188,141.899 26.5,143.5C 26.1667,143.5 25.8333,143.5 25.5,143.5C 25.523,141.073 26.023,138.74 27,136.5C 29.0383,133.757 30.5383,130.757 31.5,127.5C 33.5901,125.61 35.9235,123.943 38.5,122.5C 38.8333,122.833 39.1667,123.167 39.5,123.5C 37.8608,124.916 37.0275,126.583 37,128.5C 37.7504,127.874 38.5838,127.374 39.5,127C 43.7332,122 48.0665,117.166 52.5,112.5 Z"/></g>
<g><path style="opacity:1" fill="#327047" d="M 119.5,79.5 C 122.833,79.5 126.167,79.5 129.5,79.5C 130.601,80.8484 131.601,82.3484 132.5,84C 138.699,87.5882 145.032,90.7548 151.5,93.5C 151.196,94.1499 150.863,94.8165 150.5,95.5C 154.125,101.232 154.458,107.232 151.5,113.5C 149.391,115.522 147.391,117.522 145.5,119.5C 141.874,121.042 138.041,122.042 134,122.5C 133.692,121.692 133.192,121.025 132.5,120.5C 130.547,124.412 128.713,124.412 127,120.5C 126.667,120.833 126.333,121.167 126,121.5C 124.437,117.775 122.937,114.108 121.5,110.5C 120.791,109.596 119.791,109.263 118.5,109.5C 118.5,108.5 118.5,107.5 118.5,106.5C 120.861,106.326 123.194,105.993 125.5,105.5C 125.5,103.5 125.5,101.5 125.5,99.5C 122.772,99.8294 120.438,99.1628 118.5,97.5C 120.55,97.0388 122.55,96.3721 124.5,95.5C 126.086,97.1727 126.753,99.1727 126.5,101.5C 127.833,101.5 129.167,101.5 130.5,101.5C 130.312,99.8967 130.812,98.5634 132,97.5C 135.57,98.1188 138.57,99.7855 141,102.5C 141.731,107.397 144.564,110.064 149.5,110.5C 151.197,103.609 149.863,97.2756 145.5,91.5C 142.891,90.7695 140.224,90.2695 137.5,90C 135.015,86.4988 132.848,86.6655 131,90.5C 127.112,88.4246 122.946,86.9246 118.5,86C 119.167,84.6667 120.167,83.6667 121.5,83C 118.854,82.5026 116.187,82.3359 113.5,82.5C 115.629,81.7972 117.629,80.7972 119.5,79.5 Z"/></g>
<g><path style="opacity:1" fill="#0e2f1f" d="M 193.5,105.5 C 198.844,105.334 204.177,105.501 209.5,106C 212.361,105.97 214.695,106.803 216.5,108.5C 212.253,107.398 207.92,107.232 203.5,108C 202.781,110.556 201.114,111.723 198.5,111.5C 197.955,114.813 197.455,118.146 197,121.5C 195.388,127.084 193.221,132.417 190.5,137.5C 191,138.5 191.5,139.5 192,140.5C 193.245,140.461 194.578,140.795 196,141.5C 197.5,141 199,140.5 200.5,140C 201.998,137.518 203.498,135.018 205,132.5C 204.893,129.408 206.059,127.075 208.5,125.5C 209.129,127.465 209.796,129.465 210.5,131.5C 209.51,135.456 208.844,139.456 208.5,143.5C 198.167,143.5 187.833,143.5 177.5,143.5C 177.276,141.213 176.609,139.047 175.5,137C 175.743,136.098 176.077,135.265 176.5,134.5C 177.082,133.069 177.915,131.736 179,130.5C 181.196,133.899 184.196,134.899 188,133.5C 188.268,131.41 187.268,130.076 185,129.5C 184.506,127.866 184.34,126.199 184.5,124.5C 184.089,120.537 184.922,116.87 187,113.5C 190.859,112.147 193.026,109.48 193.5,105.5 Z"/></g>
<g><path style="opacity:1" fill="#153b41" d="M 83.5,112.5 C 90.3469,115.347 97.5136,117.681 105,119.5C 105.333,118.833 105.667,118.167 106,117.5C 108.466,118.788 110.966,118.788 113.5,117.5C 116.205,118.568 117.705,120.568 118,123.5C 119.458,122.253 120.958,122.253 122.5,123.5C 123.057,125.332 124.057,126.665 125.5,127.5C 124.992,129.233 124.159,129.566 123,128.5C 121.491,130.919 119.325,131.919 116.5,131.5C 115.417,131.461 114.417,131.127 113.5,130.5C 110.218,133.128 108.385,132.128 108,127.5C 104.708,124.68 100.875,123.347 96.5,123.5C 96.5,122.5 96.5,121.5 96.5,120.5C 93.6257,120.451 90.7923,120.784 88,121.5C 84.3143,120.873 80.8143,119.873 77.5,118.5C 77.5,119.5 77.5,120.5 77.5,121.5C 70.8333,118.167 64.1667,114.833 57.5,111.5C 57.3284,110.508 57.6618,109.842 58.5,109.5C 59.1577,108.602 59.8243,107.602 60.5,106.5C 64.8048,108.665 69.3048,110.331 74,111.5C 74.3879,110.572 75.0546,109.905 76,109.5C 78.3458,110.878 80.8458,111.878 83.5,112.5 Z"/></g>
<g><path style="opacity:1" fill="#1d5837" d="M 218.5,107.5 C 220.175,109.149 222.175,110.482 224.5,111.5C 223.5,112.167 222.5,112.833 221.5,113.5C 224.047,115.454 224.047,117.121 221.5,118.5C 218.27,119.808 214.936,120.808 211.5,121.5C 212.508,119.661 214.008,118.328 216,117.5C 217.149,114.607 217.649,111.607 217.5,108.5C 218.167,108.5 218.5,108.167 218.5,107.5 Z"/></g>
<g><path style="opacity:1" fill="#359150" d="M 222.5,103.5 C 222.5,104.833 222.5,106.167 222.5,107.5C 224.527,107.338 226.527,107.505 228.5,108C 231.081,110.893 234.081,111.726 237.5,110.5C 239.588,111.939 241.921,112.606 244.5,112.5C 244.077,115.288 245.077,117.288 247.5,118.5C 250.074,116.976 252.741,115.642 255.5,114.5C 255.5,122.833 255.5,131.167 255.5,139.5C 253.602,138.911 251.602,138.744 249.5,139C 247.561,138.092 246.561,136.592 246.5,134.5C 252.313,134.938 253.98,132.438 251.5,127C 246.373,126.23 243.373,128.396 242.5,133.5C 238.833,132.833 235.167,132.167 231.5,131.5C 231.5,129.5 231.5,127.5 231.5,125.5C 225.11,124.218 223.11,126.551 225.5,132.5C 227.045,133.452 228.712,133.785 230.5,133.5C 230.698,137.092 231.698,140.426 233.5,143.5C 226.833,143.5 220.167,143.5 213.5,143.5C 212.782,141.863 212.616,140.197 213,138.5C 215.986,132.531 219.486,126.865 223.5,121.5C 222.624,120.749 221.624,120.249 220.5,120C 221.056,119.617 221.389,119.117 221.5,118.5C 224.047,117.121 224.047,115.454 221.5,113.5C 222.5,112.833 223.5,112.167 224.5,111.5C 222.175,110.482 220.175,109.149 218.5,107.5C 218.5,106.833 218.5,106.167 218.5,105.5C 220.062,105.267 221.395,104.6 222.5,103.5 Z"/></g>
<g><path style="opacity:1" fill="#1d4a43" d="M 65.5,121.5 C 63.9069,122.348 62.7403,123.681 62,125.5C 61.5172,126.448 61.3505,127.448 61.5,128.5C 66.1103,128.596 66.4436,129.596 62.5,131.5C 62.7093,132.086 63.0426,132.586 63.5,133C 58.9325,136.748 54.2658,140.248 49.5,143.5C 41.8333,143.5 34.1667,143.5 26.5,143.5C 27.5188,141.899 29.0188,140.899 31,140.5C 32.7892,141.409 34.6226,141.576 36.5,141C 40.1667,138 43.8333,135 47.5,132C 50.5755,131.654 53.5755,130.988 56.5,130C 57.9352,127.057 59.6019,124.223 61.5,121.5C 62.9584,120.218 64.2918,120.218 65.5,121.5 Z"/></g>
<g><path style="opacity:1" fill="#205445" d="M 84.5,126.5 C 85.4959,126.414 86.3292,126.748 87,127.5C 87.5046,129.518 88.0046,131.518 88.5,133.5C 87.6236,133.369 86.9569,133.702 86.5,134.5C 87.3128,135.814 88.3128,136.981 89.5,138C 85.5344,136.845 81.8677,134.845 78.5,132C 77.2506,131.26 76.2506,131.427 75.5,132.5C 74.3775,130.712 74.2109,128.712 75,126.5C 75.7412,127.641 76.5745,127.641 77.5,126.5C 79.4707,128.808 81.4707,131.142 83.5,133.5C 84.521,132.998 84.6877,132.332 84,131.5C 81.6234,129.421 80.4568,127.088 80.5,124.5C 81.6223,125.63 82.9557,126.297 84.5,126.5 Z"/></g>
<g><path style="opacity:1" fill="#031a18" d="M 167.5,123.5 C 167.649,124.552 167.483,125.552 167,126.5C 160.449,133.567 152.949,139.234 144.5,143.5C 139.833,143.5 135.167,143.5 130.5,143.5C 130.286,141.856 130.62,140.356 131.5,139C 143.401,133.535 155.401,128.369 167.5,123.5 Z"/></g>
<g><path style="opacity:1" fill="#1d5531" d="M 184.5,124.5 C 184.34,126.199 184.506,127.866 185,129.5C 187.268,130.076 188.268,131.41 188,133.5C 184.196,134.899 181.196,133.899 179,130.5C 177.915,131.736 177.082,133.069 176.5,134.5C 173.747,134.954 172.08,136.621 171.5,139.5C 168.447,138.184 165.781,136.517 163.5,134.5C 167.786,129.702 172.453,125.369 177.5,121.5C 179.262,121.643 180.929,121.309 182.5,120.5C 183.172,121.949 183.839,123.282 184.5,124.5 Z"/></g>
<g><path style="opacity:1" fill="#6aa186" d="M 31.5,127.5 C 30.5383,130.757 29.0383,133.757 27,136.5C 26.023,138.74 25.523,141.073 25.5,143.5C 23.5,143.5 21.5,143.5 19.5,143.5C 22.0278,137.133 26.0278,131.799 31.5,127.5 Z"/></g>
<g><path style="opacity:1" fill="#21602f" d="M 221.5,118.5 C 221.389,119.117 221.056,119.617 220.5,120C 221.624,120.249 222.624,120.749 223.5,121.5C 219.486,126.865 215.986,132.531 213,138.5C 212.616,140.197 212.782,141.863 213.5,143.5C 211.833,143.5 210.167,143.5 208.5,143.5C 208.844,139.456 209.51,135.456 210.5,131.5C 209.796,129.465 209.129,127.465 208.5,125.5C 209.143,123.924 210.143,122.59 211.5,121.5C 214.936,120.808 218.27,119.808 221.5,118.5 Z"/></g>
<g><path style="opacity:1" fill="#98cda7" d="M 52.5,112.5 C 48.0665,117.166 43.7332,122 39.5,127C 38.5838,127.374 37.7504,127.874 37,128.5C 37.0275,126.583 37.8608,124.916 39.5,123.5C 39.1667,123.167 38.8333,122.833 38.5,122.5C 35.9235,123.943 33.5901,125.61 31.5,127.5C 26.0278,131.799 22.0278,137.133 19.5,143.5C 18.1667,143.5 16.8333,143.5 15.5,143.5C 16.1283,140.91 17.295,138.577 19,136.5C 21.7135,132.908 24.5468,129.408 27.5,126C 33.8611,122.155 40.1945,118.322 46.5,114.5C 47.8566,113.315 49.3566,112.315 51,111.5C 51.7648,111.57 52.2648,111.903 52.5,112.5 Z"/></g>
<g><path style="opacity:1" fill="#082126" d="M 116.5,131.5 C 115.026,132.675 113.36,133.675 111.5,134.5C 112.78,136.702 112.78,138.868 111.5,141C 112.108,141.87 112.941,142.37 114,142.5C 116.327,140.386 118.827,138.386 121.5,136.5C 122.086,136.709 122.586,137.043 123,137.5C 126.715,136.452 129.882,134.452 132.5,131.5C 132.911,132.262 133.077,133.262 133,134.5C 135.185,133.33 137.351,132.164 139.5,131C 138.833,130.667 138.167,130.333 137.5,130C 143.19,129.531 148.857,128.864 154.5,128C 158.167,125.5 161.833,123 165.5,120.5C 167.871,120.892 168.538,121.892 167.5,123.5C 155.401,128.369 143.401,133.535 131.5,139C 130.62,140.356 130.286,141.856 130.5,143.5C 121.167,143.5 111.833,143.5 102.5,143.5C 97.5532,140.681 92.8866,137.348 88.5,133.5C 88.0046,131.518 87.5046,129.518 87,127.5C 86.3292,126.748 85.4959,126.414 84.5,126.5C 82.7334,124.11 80.4001,122.443 77.5,121.5C 77.5,120.5 77.5,119.5 77.5,118.5C 80.8143,119.873 84.3143,120.873 88,121.5C 90.7923,120.784 93.6257,120.451 96.5,120.5C 96.5,121.5 96.5,122.5 96.5,123.5C 100.875,123.347 104.708,124.68 108,127.5C 108.385,132.128 110.218,133.128 113.5,130.5C 114.417,131.127 115.417,131.461 116.5,131.5 Z"/></g>
<g><path style="opacity:1" fill="#2c824b" d="M 255.5,139.5 C 255.5,140.833 255.5,142.167 255.5,143.5C 248.167,143.5 240.833,143.5 233.5,143.5C 231.698,140.426 230.698,137.092 230.5,133.5C 228.712,133.785 227.045,133.452 225.5,132.5C 223.11,126.551 225.11,124.218 231.5,125.5C 231.5,127.5 231.5,129.5 231.5,131.5C 235.167,132.167 238.833,132.833 242.5,133.5C 243.373,128.396 246.373,126.23 251.5,127C 253.98,132.438 252.313,134.938 246.5,134.5C 246.561,136.592 247.561,138.092 249.5,139C 251.602,138.744 253.602,138.911 255.5,139.5 Z"/></g>
<g><path style="opacity:1" fill="#0c2d2c" d="M 65.5,121.5 C 66.1667,121.5 66.8333,121.5 67.5,121.5C 69.6973,126.196 72.1973,130.863 75,135.5C 75.6543,136.696 76.1543,136.696 76.5,135.5C 75.8728,134.583 75.5394,133.583 75.5,132.5C 76.2506,131.427 77.2506,131.26 78.5,132C 81.8677,134.845 85.5344,136.845 89.5,138C 88.3128,136.981 87.3128,135.814 86.5,134.5C 86.9569,133.702 87.6236,133.369 88.5,133.5C 92.8866,137.348 97.5532,140.681 102.5,143.5C 84.8333,143.5 67.1667,143.5 49.5,143.5C 54.2658,140.248 58.9325,136.748 63.5,133C 63.0426,132.586 62.7093,132.086 62.5,131.5C 66.4436,129.596 66.1103,128.596 61.5,128.5C 61.3505,127.448 61.5172,126.448 62,125.5C 62.7403,123.681 63.9069,122.348 65.5,121.5 Z"/></g>
<g><path style="opacity:1" fill="#14493b" d="M 163.5,134.5 C 165.781,136.517 168.447,138.184 171.5,139.5C 172.08,136.621 173.747,134.954 176.5,134.5C 176.077,135.265 175.743,136.098 175.5,137C 176.609,139.047 177.276,141.213 177.5,143.5C 170.5,143.5 163.5,143.5 156.5,143.5C 157.339,139.329 159.672,136.329 163.5,134.5 Z"/></g>
</svg>
