<?xml version="1.0" encoding="UTF-8"?>
<!DOCTYPE svg PUBLIC "-//W3C//DTD SVG 1.1//EN" "http://www.w3.org/Graphics/SVG/1.1/DTD/svg11.dtd">
<svg xmlns="http://www.w3.org/2000/svg" version="1.1" width="256px" height="144px" style="shape-rendering:geometricPrecision; text-rendering:geometricPrecision; image-rendering:optimizeQuality; fill-rule:evenodd; clip-rule:evenodd" xmlns:xlink="http://www.w3.org/1999/xlink">
<g><path style="opacity:1" fill="#56acc3" d="M 92.5,0.5 C 92.5,0.166667 92.5,-0.166667 92.5,-0.5C 97.1667,-0.5 101.833,-0.5 106.5,-0.5C 106.5,1.5 106.5,3.5 106.5,5.5C 103.574,4.53922 100.574,3.87256 97.5,3.5C 96.5,2.83333 95.5,2.16667 94.5,1.5C 94.1583,0.661754 93.4916,0.32842 92.5,0.5 Z"/></g>
<g><path style="opacity:1" fill="#2a404a" d="M 108.5,-0.5 C 123.5,-0.5 138.5,-0.5 153.5,-0.5C 151.333,0.197963 149.5,1.5313 148,3.5C 147.53,4.57683 147.697,5.57683 148.5,6.5C 144.583,7.63671 140.583,8.47004 136.5,9C 129.03,12.3271 121.696,15.8271 114.5,19.5C 111.574,20.4608 108.574,21.1274 105.5,21.5C 106.374,18.2107 107.041,14.8774 107.5,11.5C 108.43,7.60023 108.763,3.60023 108.5,-0.5 Z"/></g>
<g><path style="opacity:1" fill="#2c2c3e" d="M 199.5,-0.5 C 209.5,-0.5 219.5,-0.5 229.5,-0.5C 229.693,3.01284 229.026,6.34618 227.5,9.5C 227.453,11.0377 228.12,12.0377 229.5,12.5C 229.953,13.4584 230.619,14.2917 231.5,15C 233.708,15.1909 235.708,15.6909 237.5,16.5C 234.37,16.6997 231.37,17.3664 228.5,18.5C 227.223,20.914 225.557,21.0807 223.5,19C 221.5,15.6667 219.5,12.3333 217.5,9C 209.714,8.92562 203.714,5.75895 199.5,-0.5 Z"/></g>
<g><path style="opacity:1" fill="#171720" d="M 229.5,-0.5 C 232.833,-0.5 236.167,-0.5 239.5,-0.5C 240.8,0.601008 241.3,1.93434 241,3.5C 237.515,7.13368 233.682,10.1337 229.5,12.5C 228.12,12.0377 227.453,11.0377 227.5,9.5C 229.026,6.34618 229.693,3.01284 229.5,-0.5 Z"/></g>
<g><path style="opacity:1" fill="#040301" d="M 239.5,-0.5 C 244.833,-0.5 250.167,-0.5 255.5,-0.5C 255.5,29.8333 255.5,60.1667 255.5,90.5C 253.071,90.415 251.071,89.415 249.5,87.5C 248.818,88.2427 248.151,88.9094 247.5,89.5C 245.015,95.1951 240.515,98.1951 234,98.5C 233.501,94.8484 233.335,91.1817 233.5,87.5C 233.784,85.5853 233.451,83.9187 232.5,82.5C 231.662,82.1583 231.328,81.4916 231.5,80.5C 231.082,79.7784 230.416,79.2784 229.5,79C 230.711,78.1072 230.711,77.2739 229.5,76.5C 218.822,71.9317 216.655,64.5984 223,54.5C 224.771,53.6959 226.271,52.5292 227.5,51C 231.31,50.5849 234.977,50.9183 238.5,52C 247.469,46.29 250.636,38.1233 248,27.5C 245.65,22.6516 242.15,18.9849 237.5,16.5C 235.708,15.6909 233.708,15.1909 231.5,15C 230.619,14.2917 229.953,13.4584 229.5,12.5C 233.682,10.1337 237.515,7.13368 241,3.5C 241.3,1.93434 240.8,0.601008 239.5,-0.5 Z"/></g>
<g><path style="opacity:1" fill="#938757" d="M 46.5,-0.5 C 50.1667,-0.5 53.8333,-0.5 57.5,-0.5C 57.5,2.16667 57.5,4.83333 57.5,7.5C 56.5386,9.26465 56.2053,11.2646 56.5,13.5C 53.1667,13.5 49.8333,13.5 46.5,13.5C 46.5,11.8333 46.5,10.1667 46.5,8.5C 46.5,5.5 46.5,2.5 46.5,-0.5 Z"/></g>
<g><path style="opacity:1" fill="#151f24" d="M 153.5,-0.5 C 163.833,-0.5 174.167,-0.5 184.5,-0.5C 183.152,0.185857 181.985,1.18586 181,2.5C 180.086,1.34633 179.253,1.51299 178.5,3C 178.833,3.33333 179.167,3.66667 179.5,4C 176.953,4.55225 174.953,5.88558 173.5,8C 173.833,8.33333 174.167,8.66667 174.5,9C 172.833,10 171.167,11 169.5,12C 169.833,12.3333 170.167,12.6667 170.5,13C 165.492,13.8693 165.825,14.5359 171.5,15C 170.29,16.0391 169.29,17.2058 168.5,18.5C 163.537,12.5167 157.203,8.84999 149.5,7.5C 149.5,6.83333 149.167,6.5 148.5,6.5C 147.697,5.57683 147.53,4.57683 148,3.5C 149.5,1.5313 151.333,0.197963 153.5,-0.5 Z"/></g>
<g><path style="opacity:1" fill="#38515a" d="M 21.5,-0.5 C 29.8333,-0.5 38.1667,-0.5 46.5,-0.5C 46.5,2.5 46.5,5.5 46.5,8.5C 46.0603,10.8439 45.0603,12.8439 43.5,14.5C 37.6716,15.0054 34.0049,18.0054 32.5,23.5C 33.0138,21.4884 33.1805,19.4884 33,17.5C 32.6667,17.8333 32.3333,18.1667 32,18.5C 29.3062,15.1395 26.3062,12.1395 23,9.5C 23.9321,7.13844 23.4321,4.97177 21.5,3C 20.5509,2.38277 19.7175,2.54943 19,3.5C 18.5172,2.55198 18.3505,1.55198 18.5,0.5C 19.791,0.737305 20.791,0.403972 21.5,-0.5 Z"/></g>
<g><path style="opacity:1" fill="#5e959e" d="M 57.5,-0.5 C 61.1667,-0.5 64.8333,-0.5 68.5,-0.5C 67.3203,7.86128 67.3203,16.1946 68.5,24.5C 66.5,23.1667 64.5,21.8333 62.5,20.5C 60.3965,19.3501 58.3965,18.0167 56.5,16.5C 57.4066,13.5788 57.7399,10.5788 57.5,7.5C 57.5,4.83333 57.5,2.16667 57.5,-0.5 Z"/></g>
<g><path style="opacity:1" fill="#7f937c" d="M 94.5,1.5 C 95.5,2.16667 96.5,2.83333 97.5,3.5C 101.969,7.72245 100.969,9.72245 94.5,9.5C 93.5033,6.67171 93.5033,4.00505 94.5,1.5 Z"/></g>
<g><path style="opacity:1" fill="#0b0e12" d="M 184.5,-0.5 C 189.5,-0.5 194.5,-0.5 199.5,-0.5C 203.714,5.75895 209.714,8.92562 217.5,9C 219.5,12.3333 221.5,15.6667 223.5,19C 225.557,21.0807 227.223,20.914 228.5,18.5C 228.232,20.099 228.566,21.4324 229.5,22.5C 229.5,22.8333 229.5,23.1667 229.5,23.5C 228.127,23.6567 226.793,23.49 225.5,23C 221.474,17.7968 216.474,13.9635 210.5,11.5C 209.158,12.9023 208.324,12.5689 208,10.5C 207.691,11.7659 207.191,12.9326 206.5,14C 206.833,14.3333 207.167,14.6667 207.5,15C 204.23,15.9374 202.397,18.104 202,21.5C 201.282,20.5494 200.449,20.3828 199.5,21C 198.672,23.3918 196.672,25.2251 193.5,26.5C 193.023,27.931 192.357,29.2643 191.5,30.5C 190.28,29.2889 189.113,29.2889 188,30.5C 187.349,32.235 187.515,33.9017 188.5,35.5C 187.833,35.8333 187.167,36.1667 186.5,36.5C 185.164,35.5772 183.83,35.0772 182.5,35C 183.815,36.3946 183.481,37.3946 181.5,38C 182.424,38.85 182.424,39.85 181.5,41C 181.984,43.4747 183.317,45.3081 185.5,46.5C 184.215,49.0205 183.548,51.6872 183.5,54.5C 182.685,53.5707 181.852,52.5707 181,51.5C 180.819,48.3054 180.319,45.3054 179.5,42.5C 177.977,33.4576 174.31,25.4576 168.5,18.5C 169.29,17.2058 170.29,16.0391 171.5,15C 165.825,14.5359 165.492,13.8693 170.5,13C 170.167,12.6667 169.833,12.3333 169.5,12C 171.167,11 172.833,10 174.5,9C 174.167,8.66667 173.833,8.33333 173.5,8C 174.953,5.88558 176.953,4.55225 179.5,4C 179.167,3.66667 178.833,3.33333 178.5,3C 179.253,1.51299 180.086,1.34633 181,2.5C 181.985,1.18586 183.152,0.185857 184.5,-0.5 Z"/></g>
<g><path style="opacity:1" fill="#3f5963" d="M 71.5,-0.5 C 73.1667,-0.5 74.8333,-0.5 76.5,-0.5C 77.9598,2.12862 79.6265,4.62862 81.5,7C 80.7655,12.5075 79.9322,18.0075 79,23.5C 77.9887,24.3366 76.8221,24.67 75.5,24.5C 74.0413,24.5674 72.7079,24.2341 71.5,23.5C 70.0512,21.0754 69.3845,18.4088 69.5,15.5C 70.4913,10.2034 71.158,4.87007 71.5,-0.5 Z"/></g>
<g><path style="opacity:1" fill="#a9bcbe" d="M 106.5,-0.5 C 107.167,-0.5 107.833,-0.5 108.5,-0.5C 108.763,3.60023 108.43,7.60023 107.5,11.5C 105.057,16.5005 103.39,21.8338 102.5,27.5C 101.503,27.4701 100.836,27.9701 100.5,29C 103.24,32.5747 102.24,34.4081 97.5,34.5C 97.8333,33.1667 98.1667,31.8333 98.5,30.5C 100.005,25.4942 101.672,20.4942 103.5,15.5C 105.025,12.4172 106.025,9.08388 106.5,5.5C 106.5,3.5 106.5,1.5 106.5,-0.5 Z"/></g>
<g><path style="opacity:1" fill="#050504" d="M 229.5,23.5 C 231.022,24.4312 232.355,25.5979 233.5,27C 231.982,28.3506 230.649,29.8506 229.5,31.5C 229.5,32.1667 229.5,32.8333 229.5,33.5C 227.862,34.1589 226.195,34.8256 224.5,35.5C 216.487,35.0794 210.32,38.4128 206,45.5C 205.667,45.1667 205.333,44.8333 205,44.5C 204.322,46.5976 204.489,48.5976 205.5,50.5C 204.508,53.7786 204.341,57.1119 205,60.5C 208.447,64.5948 209.781,69.2615 209,74.5C 204.687,77.4767 202.187,81.4767 201.5,86.5C 201.5,86.8333 201.5,87.1667 201.5,87.5C 200.662,87.8417 200.328,88.5084 200.5,89.5C 199.733,90.172 199.066,91.0053 198.5,92C 203.624,95.4109 206.291,100.244 206.5,106.5C 202.366,107.485 198.032,107.818 193.5,107.5C 192.034,106.653 191.2,105.32 191,103.5C 190.501,99.1794 190.334,94.8461 190.5,90.5C 190.664,87.8127 190.497,85.146 190,82.5C 189.617,81.944 189.117,81.6107 188.5,81.5C 187.577,77.9359 187.244,74.2693 187.5,70.5C 188.258,64.5677 186.924,59.2344 183.5,54.5C 183.548,51.6872 184.215,49.0205 185.5,46.5C 183.317,45.3081 181.984,43.4747 181.5,41C 182.424,39.85 182.424,38.85 181.5,38C 183.481,37.3946 183.815,36.3946 182.5,35C 183.83,35.0772 185.164,35.5772 186.5,36.5C 187.167,36.1667 187.833,35.8333 188.5,35.5C 187.515,33.9017 187.349,32.235 188,30.5C 189.113,29.2889 190.28,29.2889 191.5,30.5C 192.357,29.2643 193.023,27.931 193.5,26.5C 196.672,25.2251 198.672,23.3918 199.5,21C 200.449,20.3828 201.282,20.5494 202,21.5C 202.397,18.104 204.23,15.9374 207.5,15C 207.167,14.6667 206.833,14.3333 206.5,14C 207.191,12.9326 207.691,11.7659 208,10.5C 208.324,12.5689 209.158,12.9023 210.5,11.5C 216.474,13.9635 221.474,17.7968 225.5,23C 226.793,23.49 228.127,23.6567 229.5,23.5 Z"/></g>
<g><path style="opacity:1" fill="#5d7d7b" d="M 76.5,-0.5 C 81.8333,-0.5 87.1667,-0.5 92.5,-0.5C 92.5,-0.166667 92.5,0.166667 92.5,0.5C 92.0199,5.82207 91.6865,11.1554 91.5,16.5C 90.834,19.3583 90.1674,22.3583 89.5,25.5C 88.1861,24.6872 87.0195,23.6872 86,22.5C 86.8919,25.8963 89.0585,28.2296 92.5,29.5C 90.744,30.5521 90.0773,32.2188 90.5,34.5C 89.6981,33.0484 89.1981,31.3817 89,29.5C 88.5357,30.0944 88.369,30.7611 88.5,31.5C 87.8461,27.6839 85.5128,26.0172 81.5,26.5C 79.3736,25.9518 77.3736,25.2852 75.5,24.5C 76.8221,24.67 77.9887,24.3366 79,23.5C 79.9322,18.0075 80.7655,12.5075 81.5,7C 79.6265,4.62862 77.9598,2.12862 76.5,-0.5 Z"/></g>
<g><path style="opacity:1" fill="#5ca6b4" d="M 92.5,0.5 C 93.4916,0.32842 94.1583,0.661754 94.5,1.5C 93.5033,4.00505 93.5033,6.67171 94.5,9.5C 100.969,9.72245 101.969,7.72245 97.5,3.5C 100.574,3.87256 103.574,4.53922 106.5,5.5C 106.025,9.08388 105.025,12.4172 103.5,15.5C 100.001,17.8052 96.1681,19.4719 92,20.5C 91.51,19.2068 91.3433,17.8734 91.5,16.5C 91.6865,11.1554 92.0199,5.82207 92.5,0.5 Z"/></g>
<g><path style="opacity:1" fill="#948c94" d="M 143.5,11.5 C 141.11,13.0198 138.443,14.0198 135.5,14.5C 135.5,15.8333 135.5,17.1667 135.5,18.5C 133.335,18.1159 131.668,18.7826 130.5,20.5C 126.893,21.4892 123.226,21.8226 119.5,21.5C 122.256,18.6109 125.589,16.4442 129.5,15C 134.096,13.5342 138.763,12.3675 143.5,11.5 Z"/></g>
<g><path style="opacity:1" fill="#5c7787" d="M 43.5,14.5 C 46.3583,15.166 49.3583,15.8326 52.5,16.5C 54.415,18.0712 55.415,20.0712 55.5,22.5C 55.7947,24.7354 55.4614,26.7354 54.5,28.5C 54.6633,26.1432 54.4966,23.8098 54,21.5C 53.6667,23.5 53.3333,25.5 53,27.5C 51.2161,30.0026 49.5494,30.0026 48,27.5C 47,28.8333 46,30.1667 45,31.5C 45,29.5 45,27.5 45,25.5C 44,24.1667 43,24.1667 42,25.5C 40.3066,24.8155 38.8066,23.8155 37.5,22.5C 35.2828,25.0684 34.1161,28.0684 34,31.5C 33.6174,30.944 33.1174,30.6107 32.5,30.5C 32.5,28.1667 32.5,25.8333 32.5,23.5C 34.0049,18.0054 37.6716,15.0054 43.5,14.5 Z"/></g>
<g><path style="opacity:1" fill="#6f796d" d="M 57.5,7.5 C 57.7399,10.5788 57.4066,13.5788 56.5,16.5C 58.3965,18.0167 60.3965,19.3501 62.5,20.5C 61.1779,20.33 60.0113,20.6634 59,21.5C 58.5034,23.8098 58.3367,26.1432 58.5,28.5C 57.7321,29.2625 57.2321,30.2625 57,31.5C 56.8195,28.3054 56.3195,25.3054 55.5,22.5C 55.415,20.0712 54.415,18.0712 52.5,16.5C 49.3583,15.8326 46.3583,15.166 43.5,14.5C 45.0603,12.8439 46.0603,10.8439 46.5,8.5C 46.5,10.1667 46.5,11.8333 46.5,13.5C 49.8333,13.5 53.1667,13.5 56.5,13.5C 56.2053,11.2646 56.5386,9.26465 57.5,7.5 Z"/></g>
<g><path style="opacity:1" fill="#273538" d="M -0.5,-0.5 C 1.16667,-0.5 2.83333,-0.5 4.5,-0.5C 4.24544,0.936101 3.91211,2.4361 3.5,4C 4.55074,6.24199 5.55074,8.40866 6.5,10.5C 6.39184,11.4419 6.05851,12.2753 5.5,13C 7.69371,15.1937 9.86038,17.3604 12,19.5C 12.7203,21.1124 12.5536,22.6124 11.5,24C 13.3008,24.3173 13.6341,24.984 12.5,26C 13.5,26.3333 14.5,26.6667 15.5,27C 15.1667,27.3333 14.8333,27.6667 14.5,28C 15.7604,29.113 16.927,29.2797 18,28.5C 21.1286,32.6895 25.2953,35.5228 30.5,37C 31.2524,37.6708 31.5858,38.5041 31.5,39.5C 28.9471,40.2549 26.2804,40.9216 23.5,41.5C 22.8953,39.9743 21.7286,38.9743 20,38.5C 19.6667,38.8333 19.3333,39.1667 19,39.5C 18.5581,37.3215 17.5581,36.6548 16,37.5C 15.6437,34.2712 13.8103,32.7712 10.5,33C 11.6537,32.0862 11.487,31.2529 10,30.5C 7.27137,29.3797 4.6047,27.3797 2,24.5C 0.985924,20.7595 0.15259,17.0928 -0.5,13.5C -0.5,8.83333 -0.5,4.16667 -0.5,-0.5 Z"/></g>
<g><path style="opacity:1" fill="#cad6da" d="M 68.5,-0.5 C 69.5,-0.5 70.5,-0.5 71.5,-0.5C 71.158,4.87007 70.4913,10.2034 69.5,15.5C 69.3845,18.4088 70.0512,21.0754 71.5,23.5C 71.5,25.8333 71.5,28.1667 71.5,30.5C 71.5,31.1667 71.1667,31.5 70.5,31.5C 70.5,31.1667 70.5,30.8333 70.5,30.5C 70.9465,27.9899 70.2798,25.9899 68.5,24.5C 67.3203,16.1946 67.3203,7.86128 68.5,-0.5 Z"/></g>
<g><path style="opacity:1" fill="#649ea1" d="M 103.5,15.5 C 101.672,20.4942 100.005,25.4942 98.5,30.5C 96.5,30.1667 94.5,29.8333 92.5,29.5C 89.0585,28.2296 86.8919,25.8963 86,22.5C 87.0195,23.6872 88.1861,24.6872 89.5,25.5C 90.1674,22.3583 90.834,19.3583 91.5,16.5C 91.3433,17.8734 91.51,19.2068 92,20.5C 96.1681,19.4719 100.001,17.8052 103.5,15.5 Z"/></g>
<g><path style="opacity:1" fill="#6a7883" d="M 107.5,11.5 C 107.041,14.8774 106.374,18.2107 105.5,21.5C 108.574,21.1274 111.574,20.4608 114.5,19.5C 114.649,20.552 114.483,21.552 114,22.5C 111.528,24.2985 109.861,26.6318 109,29.5C 107.989,30.3366 106.822,30.67 105.5,30.5C 105.5,29.5 105.5,28.5 105.5,27.5C 104.5,27.5 103.5,27.5 102.5,27.5C 103.39,21.8338 105.057,16.5005 107.5,11.5 Z"/></g>
<g><path style="opacity:1" fill="#9f7a7f" d="M 150.5,9.5 C 156.885,11.6882 162.218,15.3549 166.5,20.5C 163.568,19.77 160.568,19.9366 157.5,21C 152.929,23.1336 148.262,24.967 143.5,26.5C 141.389,26.5142 139.555,25.8475 138,24.5C 136.251,24.7483 135.418,25.7483 135.5,27.5C 133.833,26.1667 132.167,24.8333 130.5,23.5C 133.057,22.5148 135.724,21.5148 138.5,20.5C 137.643,19.5748 136.643,18.9081 135.5,18.5C 135.5,17.1667 135.5,15.8333 135.5,14.5C 138.443,14.0198 141.11,13.0198 143.5,11.5C 145.438,9.83724 147.772,9.17057 150.5,9.5 Z"/></g>
<g><path style="opacity:1" fill="#2c3f44" d="M 4.5,-0.5 C 10.1667,-0.5 15.8333,-0.5 21.5,-0.5C 20.791,0.403972 19.791,0.737305 18.5,0.5C 18.3505,1.55198 18.5172,2.55198 19,3.5C 19.7175,2.54943 20.5509,2.38277 21.5,3C 23.4321,4.97177 23.9321,7.13844 23,9.5C 26.3062,12.1395 29.3062,15.1395 32,18.5C 32.3333,18.1667 32.6667,17.8333 33,17.5C 33.1805,19.4884 33.0138,21.4884 32.5,23.5C 32.5,25.8333 32.5,28.1667 32.5,30.5C 33.075,32.4113 34.075,34.078 35.5,35.5C 34.5,37.1667 33.1667,38.5 31.5,39.5C 31.5858,38.5041 31.2524,37.6708 30.5,37C 25.2953,35.5228 21.1286,32.6895 18,28.5C 16.927,29.2797 15.7604,29.113 14.5,28C 14.8333,27.6667 15.1667,27.3333 15.5,27C 14.5,26.6667 13.5,26.3333 12.5,26C 13.6341,24.984 13.3008,24.3173 11.5,24C 12.5536,22.6124 12.7203,21.1124 12,19.5C 9.86038,17.3604 7.69371,15.1937 5.5,13C 6.05851,12.2753 6.39184,11.4419 6.5,10.5C 5.55074,8.40866 4.55074,6.24199 3.5,4C 3.91211,2.4361 4.24544,0.936101 4.5,-0.5 Z"/></g>
<g><path style="opacity:1" fill="#4e6270" d="M 54.5,28.5 C 53.5785,31.1264 52.5785,33.7931 51.5,36.5C 52.981,37.944 52.6477,38.6106 50.5,38.5C 48.5395,36.6878 46.2061,35.6878 43.5,35.5C 41.3619,34.1919 39.3619,34.5252 37.5,36.5C 37.1583,35.6618 36.4916,35.3284 35.5,35.5C 34.075,34.078 33.075,32.4113 32.5,30.5C 33.1174,30.6107 33.6174,30.944 34,31.5C 34.1161,28.0684 35.2828,25.0684 37.5,22.5C 38.8066,23.8155 40.3066,24.8155 42,25.5C 43,24.1667 44,24.1667 45,25.5C 45,27.5 45,29.5 45,31.5C 46,30.1667 47,28.8333 48,27.5C 49.5494,30.0026 51.2161,30.0026 53,27.5C 53.3333,25.5 53.6667,23.5 54,21.5C 54.4966,23.8098 54.6633,26.1432 54.5,28.5 Z"/></g>
<g><path style="opacity:1" fill="#917f52" d="M 62.5,20.5 C 64.5,21.8333 66.5,23.1667 68.5,24.5C 70.2798,25.9899 70.9465,27.9899 70.5,30.5C 67.2214,31.4922 63.8881,31.6588 60.5,31C 59.6195,30.2917 58.9528,29.4584 58.5,28.5C 58.3367,26.1432 58.5034,23.8098 59,21.5C 60.0113,20.6634 61.1779,20.33 62.5,20.5 Z"/></g>
<g><path style="opacity:1" fill="#4cafc6" d="M 71.5,23.5 C 72.7079,24.2341 74.0413,24.5674 75.5,24.5C 77.3736,25.2852 79.3736,25.9518 81.5,26.5C 82.8484,27.6006 84.3484,28.6006 86,29.5C 86.49,30.7932 86.6567,32.1266 86.5,33.5C 81.7147,33.6058 77.3814,32.2725 73.5,29.5C 72.8165,29.8627 72.1499,30.1961 71.5,30.5C 71.5,28.1667 71.5,25.8333 71.5,23.5 Z"/></g>
<g><path style="opacity:1" fill="#b0859a" d="M 166.5,20.5 C 168.173,21.343 169.34,22.6763 170,24.5C 171.514,28.8543 173.014,33.1876 174.5,37.5C 167.01,33.0725 163.344,35.0725 163.5,43.5C 165.592,43.5614 167.092,44.5614 168,46.5C 167.524,51.1168 167.524,55.7834 168,60.5C 168.71,61.9733 169.876,62.6399 171.5,62.5C 172.096,64.398 172.096,66.0646 171.5,67.5C 169.716,67.1075 168.05,66.4408 166.5,65.5C 160.294,55.6195 153.294,46.2861 145.5,37.5C 142.5,33.8333 139.167,30.5 135.5,27.5C 135.418,25.7483 136.251,24.7483 138,24.5C 139.555,25.8475 141.389,26.5142 143.5,26.5C 148.262,24.967 152.929,23.1336 157.5,21C 160.568,19.9366 163.568,19.77 166.5,20.5 Z"/></g>
<g><path style="opacity:1" fill="#c2c1c6" d="M 148.5,6.5 C 149.167,6.5 149.5,6.83333 149.5,7.5C 149.833,8.16667 150.167,8.83333 150.5,9.5C 147.772,9.17057 145.438,9.83724 143.5,11.5C 138.763,12.3675 134.096,13.5342 129.5,15C 125.589,16.4442 122.256,18.6109 119.5,21.5C 118.128,22.5116 116.795,23.5116 115.5,24.5C 112.945,26.8968 110.945,29.7302 109.5,33C 105.333,34.8333 101.167,36.6667 97,38.5C 96.2352,38.4301 95.7352,38.0967 95.5,37.5C 96.1667,36.5 96.8333,35.5 97.5,34.5C 102.24,34.4081 103.24,32.5747 100.5,29C 100.836,27.9701 101.503,27.4701 102.5,27.5C 103.5,27.5 104.5,27.5 105.5,27.5C 105.5,28.5 105.5,29.5 105.5,30.5C 106.822,30.67 107.989,30.3366 109,29.5C 109.861,26.6318 111.528,24.2985 114,22.5C 114.483,21.552 114.649,20.552 114.5,19.5C 121.696,15.8271 129.03,12.3271 136.5,9C 140.583,8.47004 144.583,7.63671 148.5,6.5 Z"/></g>
<g><path style="opacity:1" fill="#232c2b" d="M -0.5,13.5 C 0.15259,17.0928 0.985924,20.7595 2,24.5C 4.6047,27.3797 7.27137,29.3797 10,30.5C 11.487,31.2529 11.6537,32.0862 10.5,33C 13.8103,32.7712 15.6437,34.2712 16,37.5C 17.5581,36.6548 18.5581,37.3215 19,39.5C 19.3333,39.1667 19.6667,38.8333 20,38.5C 21.7286,38.9743 22.8953,39.9743 23.5,41.5C 15.6565,43.8717 7.65654,45.8717 -0.5,47.5C -0.5,36.1667 -0.5,24.8333 -0.5,13.5 Z"/></g>
<g><path style="opacity:1" fill="#4c5058" d="M 124.5,30.5 C 122.422,36.2472 119.255,36.9139 115,32.5C 114.517,31.552 114.351,30.552 114.5,29.5C 117.065,26.775 120.065,26.1084 123.5,27.5C 128.504,24.0681 128.837,25.0681 124.5,30.5 Z"/></g>
<g><path style="opacity:1" fill="#705b5c" d="M 130.5,23.5 C 132.167,24.8333 133.833,26.1667 135.5,27.5C 139.167,30.5 142.5,33.8333 145.5,37.5C 143.883,36.962 142.216,36.6287 140.5,36.5C 136.904,33.0833 133.071,29.75 129,26.5C 128.275,24.8425 128.775,23.8425 130.5,23.5 Z"/></g>
<g><path style="opacity:1" fill="#656372" d="M 135.5,18.5 C 136.643,18.9081 137.643,19.5748 138.5,20.5C 135.724,21.5148 133.057,22.5148 130.5,23.5C 128.775,23.8425 128.275,24.8425 129,26.5C 133.071,29.75 136.904,33.0833 140.5,36.5C 141.441,38.0495 142.107,39.7162 142.5,41.5C 141.5,41.8333 140.833,42.5 140.5,43.5C 139.833,43.1667 139.167,42.8333 138.5,42.5C 139.091,41.8485 139.757,41.1818 140.5,40.5C 140.291,39.914 139.957,39.414 139.5,39C 137.19,38.5034 134.857,38.3367 132.5,38.5C 131.5,34.1667 128.833,31.5 124.5,30.5C 128.837,25.0681 128.504,24.0681 123.5,27.5C 120.065,26.1084 117.065,26.775 114.5,29.5C 114.629,27.7839 114.962,26.1172 115.5,24.5C 116.795,23.5116 118.128,22.5116 119.5,21.5C 123.226,21.8226 126.893,21.4892 130.5,20.5C 131.668,18.7826 133.335,18.1159 135.5,18.5 Z"/></g>
<g><path style="opacity:1" fill="#282634" d="M 229.5,23.5 C 229.5,23.1667 229.5,22.8333 229.5,22.5C 234.159,24.5208 238.992,25.8542 244,26.5C 245.597,32.2965 243.764,36.2965 238.5,38.5C 238.674,40.861 239.007,43.1944 239.5,45.5C 236.167,45.5 232.833,45.5 229.5,45.5C 230.412,44.2618 230.579,42.9285 230,41.5C 229.722,42.4158 229.222,43.0825 228.5,43.5C 225.962,43.4928 223.462,43.1595 221,42.5C 220.167,42.8333 219.333,43.1667 218.5,43.5C 219.648,45.1487 220.981,46.6487 222.5,48C 220.888,48.7203 219.388,48.5536 218,47.5C 215.272,52.2112 212.272,52.5445 209,48.5C 207.697,48.9783 206.531,49.645 205.5,50.5C 204.489,48.5976 204.322,46.5976 205,44.5C 205.333,44.8333 205.667,45.1667 206,45.5C 210.32,38.4128 216.487,35.0794 224.5,35.5C 226.195,34.8256 227.862,34.1589 229.5,33.5C 229.52,35.5512 230.187,36.2179 231.5,35.5C 231.006,33.9745 230.339,32.6412 229.5,31.5C 230.649,29.8506 231.982,28.3506 233.5,27C 232.355,25.5979 231.022,24.4312 229.5,23.5 Z"/></g>
<g><path style="opacity:1" fill="#92875f" d="M 92.5,29.5 C 94.5,29.8333 96.5,30.1667 98.5,30.5C 98.1667,31.8333 97.8333,33.1667 97.5,34.5C 96.8333,35.5 96.1667,36.5 95.5,37.5C 95.1667,37.5 94.8333,37.5 94.5,37.5C 92.5956,37.2624 91.2623,36.2624 90.5,34.5C 90.0773,32.2188 90.744,30.5521 92.5,29.5 Z"/></g>
<g><path style="opacity:1" fill="#6c5c36" d="M 229.5,31.5 C 230.339,32.6412 231.006,33.9745 231.5,35.5C 230.187,36.2179 229.52,35.5512 229.5,33.5C 229.5,32.8333 229.5,32.1667 229.5,31.5 Z"/></g>
<g><path style="opacity:1" fill="#9d8a86" d="M 115.5,24.5 C 114.962,26.1172 114.629,27.7839 114.5,29.5C 114.351,30.552 114.517,31.552 115,32.5C 119.255,36.9139 122.422,36.2472 124.5,30.5C 128.833,31.5 131.5,34.1667 132.5,38.5C 128.402,39.2719 125.069,41.2719 122.5,44.5C 122.167,44.5 121.833,44.5 121.5,44.5C 121.395,42.3248 121.395,40.1581 121.5,38C 120.271,37.2189 118.938,36.7189 117.5,36.5C 114.222,37.2035 110.889,37.2035 107.5,36.5C 107.649,37.552 107.483,38.552 107,39.5C 105.063,36.8922 103.23,36.8922 101.5,39.5C 99.2043,39.8041 98.871,40.8041 100.5,42.5C 96.0649,40.7947 92.0649,41.4614 88.5,44.5C 88.0618,44.5654 87.7284,44.3988 87.5,44C 89.9071,41.8169 92.2404,39.6503 94.5,37.5C 94.8333,37.5 95.1667,37.5 95.5,37.5C 95.7352,38.0967 96.2352,38.4301 97,38.5C 101.167,36.6667 105.333,34.8333 109.5,33C 110.945,29.7302 112.945,26.8968 115.5,24.5 Z"/></g>
<g><path style="opacity:1" fill="#4f748a" d="M 81.5,26.5 C 85.5128,26.0172 87.8461,27.6839 88.5,31.5C 88.702,33.9496 88.3686,36.283 87.5,38.5C 81.4017,39.1091 75.735,38.1091 70.5,35.5C 70.5,34.1667 70.5,32.8333 70.5,31.5C 71.1667,31.5 71.5,31.1667 71.5,30.5C 72.1499,30.1961 72.8165,29.8627 73.5,29.5C 77.3814,32.2725 81.7147,33.6058 86.5,33.5C 86.6567,32.1266 86.49,30.7932 86,29.5C 84.3484,28.6006 82.8484,27.6006 81.5,26.5 Z"/></g>
<g><path style="opacity:1" fill="#eae8eb" d="M 149.5,7.5 C 157.203,8.84999 163.537,12.5167 168.5,18.5C 174.31,25.4576 177.977,33.4576 179.5,42.5C 180.117,48.5982 179.45,54.2649 177.5,59.5C 177.788,51.855 176.788,44.5216 174.5,37.5C 173.014,33.1876 171.514,28.8543 170,24.5C 169.34,22.6763 168.173,21.343 166.5,20.5C 162.218,15.3549 156.885,11.6882 150.5,9.5C 150.167,8.83333 149.833,8.16667 149.5,7.5 Z"/></g>
<g><path style="opacity:1" fill="#ab8746" d="M 43.5,40.5 C 45.0866,43.4277 47.0866,46.0944 49.5,48.5C 49.688,53.225 52.0214,56.225 56.5,57.5C 56.3573,59.2624 56.6906,60.9291 57.5,62.5C 55.0251,62.9642 53.0251,63.9642 51.5,65.5C 50.5,65.5 49.5,65.5 48.5,65.5C 47.8988,57.9667 44.8988,51.6334 39.5,46.5C 39.1667,46.8333 38.8333,47.1667 38.5,47.5C 39.7878,49.7388 40.7878,52.0721 41.5,54.5C 39.2239,54.2435 38.0572,52.9102 38,50.5C 37.3333,47.1667 37.3333,43.8333 38,40.5C 39.8278,39.2475 41.6612,39.2475 43.5,40.5 Z"/></g>
<g><path style="opacity:1" fill="#c8c7bf" d="M 69.5,38.5 C 71.3582,40.8831 72.6916,43.5498 73.5,46.5C 74.2341,47.7079 74.5674,49.0413 74.5,50.5C 73.8333,52.5 72.5,53.8333 70.5,54.5C 69.5,54.1667 68.8333,53.5 68.5,52.5C 66.4943,49.3248 65.161,45.8248 64.5,42C 63.3867,40.6057 62.0534,39.439 60.5,38.5C 59.6143,37.675 59.281,36.675 59.5,35.5C 63.2206,35.3685 66.5539,36.3685 69.5,38.5 Z"/></g>
<g><path style="opacity:1" fill="#8b799a" d="M 132.5,38.5 C 134.857,38.3367 137.19,38.5034 139.5,39C 139.957,39.414 140.291,39.914 140.5,40.5C 139.757,41.1818 139.091,41.8485 138.5,42.5C 125.43,40.9539 120.43,46.6206 123.5,59.5C 125.281,66.2813 129.614,70.2813 136.5,71.5C 136.5,71.8333 136.5,72.1667 136.5,72.5C 133.763,72.5987 131.096,72.2653 128.5,71.5C 124.338,67.9987 121.338,63.6654 119.5,58.5C 119.335,55.4816 119.502,52.4816 120,49.5C 121.372,48.0899 122.205,46.4233 122.5,44.5C 125.069,41.2719 128.402,39.2719 132.5,38.5 Z"/></g>
<g><path style="opacity:1" fill="#e5e5e2" d="M 43.5,35.5 C 46.2061,35.6878 48.5395,36.6878 50.5,38.5C 52.6125,41.8337 53.9459,45.5003 54.5,49.5C 54.5,50.5 54.5,51.5 54.5,52.5C 53.325,52.719 52.325,52.3857 51.5,51.5C 51.0576,50.2613 50.3909,49.2613 49.5,48.5C 47.0866,46.0944 45.0866,43.4277 43.5,40.5C 43.4431,39.391 43.1098,38.391 42.5,37.5C 42.3284,36.5084 42.6618,35.8417 43.5,35.5 Z"/></g>
<g><path style="opacity:1" fill="#53594a" d="M 55.5,22.5 C 56.3195,25.3054 56.8195,28.3054 57,31.5C 57.2321,30.2625 57.7321,29.2625 58.5,28.5C 58.9528,29.4584 59.6195,30.2917 60.5,31C 63.8881,31.6588 67.2214,31.4922 70.5,30.5C 70.5,30.8333 70.5,31.1667 70.5,31.5C 70.5,32.8333 70.5,34.1667 70.5,35.5C 69.596,36.209 69.2627,37.209 69.5,38.5C 66.5539,36.3685 63.2206,35.3685 59.5,35.5C 59.281,36.675 59.6143,37.675 60.5,38.5C 62.0534,39.439 63.3867,40.6057 64.5,42C 65.161,45.8248 66.4943,49.3248 68.5,52.5C 67.8333,52.8333 67.1667,53.1667 66.5,53.5C 65.941,50.1566 64.6077,47.1566 62.5,44.5C 61.3864,43.2241 60.3864,43.2241 59.5,44.5C 58.5255,43.365 57.3588,42.365 56,41.5C 56.0455,44.8004 56.2122,48.1337 56.5,51.5C 55.8333,50.8333 55.1667,50.1667 54.5,49.5C 53.9459,45.5003 52.6125,41.8337 50.5,38.5C 52.6477,38.6106 52.981,37.944 51.5,36.5C 52.5785,33.7931 53.5785,31.1264 54.5,28.5C 55.4614,26.7354 55.7947,24.7354 55.5,22.5 Z"/></g>
<g><path style="opacity:1" fill="#ab8b82" d="M 121.5,44.5 C 120.833,45.1667 120.167,45.8333 119.5,46.5C 117.857,46.4802 116.524,47.1468 115.5,48.5C 113.541,47.2519 112.041,45.5852 111,43.5C 110.805,45.2072 110.805,46.8739 111,48.5C 108.706,44.4612 105.539,41.4612 101.5,39.5C 103.23,36.8922 105.063,36.8922 107,39.5C 107.483,38.552 107.649,37.552 107.5,36.5C 110.889,37.2035 114.222,37.2035 117.5,36.5C 118.938,36.7189 120.271,37.2189 121.5,38C 121.395,40.1581 121.395,42.3248 121.5,44.5 Z"/></g>
<g><path style="opacity:1" fill="#3a4a58" d="M 70.5,35.5 C 75.735,38.1091 81.4017,39.1091 87.5,38.5C 85.5324,45.8186 80.8657,48.4853 73.5,46.5C 72.6916,43.5498 71.3582,40.8831 69.5,38.5C 69.2627,37.209 69.596,36.209 70.5,35.5 Z"/></g>
<g><path style="opacity:1" fill="#786538" d="M 229.5,45.5 C 228.662,45.1583 228.328,44.4916 228.5,43.5C 229.222,43.0825 229.722,42.4158 230,41.5C 230.579,42.9285 230.412,44.2618 229.5,45.5 Z"/></g>
<g><path style="opacity:1" fill="#abacae" d="M 35.5,35.5 C 36.4916,35.3284 37.1583,35.6618 37.5,36.5C 35.0283,37.6421 34.0283,39.6421 34.5,42.5C 25.8736,43.2122 17.5402,44.8789 9.5,47.5C 6.0968,47.8511 2.76346,48.5178 -0.5,49.5C -0.5,48.8333 -0.5,48.1667 -0.5,47.5C 7.65654,45.8717 15.6565,43.8717 23.5,41.5C 26.2804,40.9216 28.9471,40.2549 31.5,39.5C 33.1667,38.5 34.5,37.1667 35.5,35.5 Z"/></g>
<g><path style="opacity:1" fill="#5e5c5b" d="M 43.5,35.5 C 42.6618,35.8417 42.3284,36.5084 42.5,37.5C 37.8063,37.3315 35.4729,39.6648 35.5,44.5C 34.8826,44.6107 34.3826,44.944 34,45.5C 33.6667,48.5 33.3333,51.5 33,54.5C 32.51,53.2068 32.3433,51.8734 32.5,50.5C 28.7704,52.2016 25.1037,54.2016 21.5,56.5C 20.3044,56.1543 20.3044,55.6543 21.5,55C 23.3333,53.8333 25.1667,52.6667 27,51.5C 27.6877,50.6683 27.521,50.0016 26.5,49.5C 24.4549,47.5255 22.7883,47.5255 21.5,49.5C 20.3044,49.1543 20.3044,48.6543 21.5,48C 19.444,47.6892 17.444,47.1892 15.5,46.5C 13.5914,47.3482 11.5914,47.6816 9.5,47.5C 17.5402,44.8789 25.8736,43.2122 34.5,42.5C 34.0283,39.6421 35.0283,37.6421 37.5,36.5C 39.3619,34.5252 41.3619,34.1919 43.5,35.5 Z"/></g>
<g><path style="opacity:1" fill="#927945" d="M 42.5,37.5 C 43.1098,38.391 43.4431,39.391 43.5,40.5C 41.6612,39.2475 39.8278,39.2475 38,40.5C 37.3333,43.8333 37.3333,47.1667 38,50.5C 38.0572,52.9102 39.2239,54.2435 41.5,54.5C 42.5377,57.4289 43.7043,60.4289 45,63.5C 45.8159,64.8228 46.9826,65.4894 48.5,65.5C 48.5,66.1667 48.1667,66.5 47.5,66.5C 43.2584,64.0614 40.425,60.3947 39,55.5C 38.2917,54.6195 37.4584,53.9528 36.5,53.5C 36.4921,50.4552 36.1587,47.4552 35.5,44.5C 35.4729,39.6648 37.8063,37.3315 42.5,37.5 Z"/></g>
<g><path style="opacity:1" fill="#6a5d38" d="M 66.5,53.5 C 66.1788,55.0481 65.1788,55.7148 63.5,55.5C 63.0159,51.5304 61.6825,47.8637 59.5,44.5C 60.3864,43.2241 61.3864,43.2241 62.5,44.5C 64.6077,47.1566 65.941,50.1566 66.5,53.5 Z"/></g>
<g><path style="opacity:1" fill="#a8798a" d="M 174.5,37.5 C 176.788,44.5216 177.788,51.855 177.5,59.5C 177.782,60.7777 178.449,61.7777 179.5,62.5C 179.397,65.6358 178.397,68.3025 176.5,70.5C 174.739,69.6873 173.072,68.6873 171.5,67.5C 172.096,66.0646 172.096,64.398 171.5,62.5C 169.876,62.6399 168.71,61.9733 168,60.5C 167.524,55.7834 167.524,51.1168 168,46.5C 167.092,44.5614 165.592,43.5614 163.5,43.5C 163.344,35.0725 167.01,33.0725 174.5,37.5 Z"/></g>
<g><path style="opacity:1" fill="#53523c" d="M 90.5,34.5 C 91.2623,36.2624 92.5956,37.2624 94.5,37.5C 92.2404,39.6503 89.9071,41.8169 87.5,44C 87.7284,44.3988 88.0618,44.5654 88.5,44.5C 87.8333,45.1667 87.1667,45.8333 86.5,46.5C 84.457,47.5794 83.1237,49.246 82.5,51.5C 81.1103,52.8993 80.1103,54.5659 79.5,56.5C 79.1667,56.5 78.8333,56.5 78.5,56.5C 77.5254,54.2048 76.1921,52.2048 74.5,50.5C 74.5674,49.0413 74.2341,47.7079 73.5,46.5C 80.8657,48.4853 85.5324,45.8186 87.5,38.5C 88.3686,36.283 88.702,33.9496 88.5,31.5C 88.369,30.7611 88.5357,30.0944 89,29.5C 89.1981,31.3817 89.6981,33.0484 90.5,34.5 Z"/></g>
<g><path style="opacity:1" fill="#333144" d="M 237.5,16.5 C 242.15,18.9849 245.65,22.6516 248,27.5C 250.636,38.1233 247.469,46.29 238.5,52C 234.977,50.9183 231.31,50.5849 227.5,51C 226.271,52.5292 224.771,53.6959 223,54.5C 216.655,64.5984 218.822,71.9317 229.5,76.5C 230.711,77.2739 230.711,78.1072 229.5,79C 230.416,79.2784 231.082,79.7784 231.5,80.5C 229.435,80.4828 227.435,80.1495 225.5,79.5C 224.766,78.2921 224.433,76.9587 224.5,75.5C 220.085,75.3054 215.751,75.8054 211.5,77C 209.382,78.0491 207.716,79.5491 206.5,81.5C 204.473,82.8606 202.806,84.5273 201.5,86.5C 202.187,81.4767 204.687,77.4767 209,74.5C 209.781,69.2615 208.447,64.5948 205,60.5C 204.341,57.1119 204.508,53.7786 205.5,50.5C 206.531,49.645 207.697,48.9783 209,48.5C 212.272,52.5445 215.272,52.2112 218,47.5C 219.388,48.5536 220.888,48.7203 222.5,48C 220.981,46.6487 219.648,45.1487 218.5,43.5C 219.333,43.1667 220.167,42.8333 221,42.5C 223.462,43.1595 225.962,43.4928 228.5,43.5C 228.328,44.4916 228.662,45.1583 229.5,45.5C 232.833,45.5 236.167,45.5 239.5,45.5C 239.007,43.1944 238.674,40.861 238.5,38.5C 243.764,36.2965 245.597,32.2965 244,26.5C 238.992,25.8542 234.159,24.5208 229.5,22.5C 228.566,21.4324 228.232,20.099 228.5,18.5C 231.37,17.3664 234.37,16.6997 237.5,16.5 Z"/></g>
<g><path style="opacity:1" fill="#c6b28d" d="M 48.5,65.5 C 46.9826,65.4894 45.8159,64.8228 45,63.5C 43.7043,60.4289 42.5377,57.4289 41.5,54.5C 40.7878,52.0721 39.7878,49.7388 38.5,47.5C 38.8333,47.1667 39.1667,46.8333 39.5,46.5C 44.8988,51.6334 47.8988,57.9667 48.5,65.5 Z"/></g>
<g><path style="opacity:1" fill="#937772" d="M 101.5,39.5 C 105.539,41.4612 108.706,44.4612 111,48.5C 110.805,46.8739 110.805,45.2072 111,43.5C 112.041,45.5852 113.541,47.2519 115.5,48.5C 116.524,47.1468 117.857,46.4802 119.5,46.5C 116.037,52.0878 113.704,58.0878 112.5,64.5C 111.914,64.2907 111.414,63.9574 111,63.5C 110.1,57.5591 108.433,51.8924 106,46.5C 104.549,44.5359 102.716,43.2026 100.5,42.5C 98.871,40.8041 99.2043,39.8041 101.5,39.5 Z"/></g>
<g><path style="opacity:1" fill="#92d9fa" d="M 137.5,46.5 C 138.391,47.1098 139.391,47.4431 140.5,47.5C 140.923,48.2646 141.257,49.0979 141.5,50C 139.282,53.0464 137.282,56.2131 135.5,59.5C 131.63,61.1411 128.297,60.4745 125.5,57.5C 125.651,49.6835 129.651,46.0169 137.5,46.5 Z"/></g>
<g><path style="opacity:1" fill="#c4c0b2" d="M 49.5,48.5 C 50.3909,49.2613 51.0576,50.2613 51.5,51.5C 52.325,52.3857 53.325,52.719 54.5,52.5C 54.5,51.5 54.5,50.5 54.5,49.5C 55.1667,50.1667 55.8333,50.8333 56.5,51.5C 56.5,53.5 56.5,55.5 56.5,57.5C 52.0214,56.225 49.688,53.225 49.5,48.5 Z"/></g>
<g><path style="opacity:1" fill="#584241" d="M 140.5,36.5 C 142.216,36.6287 143.883,36.962 145.5,37.5C 153.294,46.2861 160.294,55.6195 166.5,65.5C 165.167,65.5 163.833,65.5 162.5,65.5C 162.5,63.8333 162.5,62.1667 162.5,60.5C 160.712,60.7852 159.045,60.4519 157.5,59.5C 156.113,57.79 154.779,56.1233 153.5,54.5C 151.221,51.5915 148.721,48.9249 146,46.5C 145.506,44.8659 145.34,43.1992 145.5,41.5C 144.5,41.5 143.5,41.5 142.5,41.5C 142.107,39.7162 141.441,38.0495 140.5,36.5 Z"/></g>
<g><path style="opacity:1" fill="#77795b" d="M 74.5,50.5 C 76.1921,52.2048 77.5254,54.2048 78.5,56.5C 78.5,56.8333 78.5,57.1667 78.5,57.5C 76.3792,57.3253 74.3792,57.6586 72.5,58.5C 72.2671,56.9382 71.6005,55.6049 70.5,54.5C 72.5,53.8333 73.8333,52.5 74.5,50.5 Z"/></g>
<g><path style="opacity:1" fill="#7a7f8e" d="M 102.5,49.5 C 106.068,52.9886 107.734,57.322 107.5,62.5C 107.167,62.5 106.833,62.5 106.5,62.5C 105.962,60.8828 105.629,59.2161 105.5,57.5C 104.883,54.6446 103.883,51.9779 102.5,49.5 Z"/></g>
<g><path style="opacity:1" fill="#4c4948" d="M 100.5,42.5 C 102.716,43.2026 104.549,44.5359 106,46.5C 108.433,51.8924 110.1,57.5591 111,63.5C 111.414,63.9574 111.914,64.2907 112.5,64.5C 113.704,58.0878 116.037,52.0878 119.5,46.5C 120.167,45.8333 120.833,45.1667 121.5,44.5C 121.833,44.5 122.167,44.5 122.5,44.5C 122.205,46.4233 121.372,48.0899 120,49.5C 119.502,52.4816 119.335,55.4816 119.5,58.5C 118.732,57.7375 118.232,56.7375 118,55.5C 116.585,58.9582 116.085,62.6249 116.5,66.5C 114.738,66.3573 113.071,66.6906 111.5,67.5C 110.416,66.3349 109.583,65.0016 109,63.5C 108.601,63.7284 108.435,64.0618 108.5,64.5C 107.662,64.1583 107.328,63.4916 107.5,62.5C 107.734,57.322 106.068,52.9886 102.5,49.5C 102.5,48.8333 102.167,48.5 101.5,48.5C 99.3995,45.9097 96.5662,44.5763 93,44.5C 90.9135,45.4181 88.7468,46.0847 86.5,46.5C 87.1667,45.8333 87.8333,45.1667 88.5,44.5C 92.0649,41.4614 96.0649,40.7947 100.5,42.5 Z"/></g>
<g><path style="opacity:1" fill="#a8aac3" d="M 101.5,48.5 C 102.167,48.5 102.5,48.8333 102.5,49.5C 103.883,51.9779 104.883,54.6446 105.5,57.5C 104.603,56.4019 103.77,56.4019 103,57.5C 102.803,55.1391 101.636,53.4724 99.5,52.5C 97.5296,56.4202 96.1963,60.4202 95.5,64.5C 95.7846,59.1032 95.4512,53.7698 94.5,48.5C 96.7175,47.9426 99.0509,47.9426 101.5,48.5 Z"/></g>
<g><path style="opacity:1" fill="#4e4a33" d="M 59.5,44.5 C 61.6825,47.8637 63.0159,51.5304 63.5,55.5C 65.1788,55.7148 66.1788,55.0481 66.5,53.5C 67.1667,53.1667 67.8333,52.8333 68.5,52.5C 68.8333,53.5 69.5,54.1667 70.5,54.5C 71.6005,55.6049 72.2671,56.9382 72.5,58.5C 68.5214,57.5349 64.5214,57.0349 60.5,57C 61.6422,59.4499 62.6422,61.9499 63.5,64.5C 59.6277,64.3831 55.6277,64.7164 51.5,65.5C 53.0251,63.9642 55.0251,62.9642 57.5,62.5C 56.6906,60.9291 56.3573,59.2624 56.5,57.5C 56.5,55.5 56.5,53.5 56.5,51.5C 56.2122,48.1337 56.0455,44.8004 56,41.5C 57.3588,42.365 58.5255,43.365 59.5,44.5 Z"/></g>
<g><path style="opacity:1" fill="#4a5566" d="M 92.5,70.5 C 90.0369,73.3585 87.5369,76.3585 85,79.5C 85.2218,77.5436 86.0552,75.7103 87.5,74C 86.354,73.3551 85.354,72.5217 84.5,71.5C 83.8333,72.1667 83.1667,72.8333 82.5,73.5C 82.1667,73 81.8333,72.5 81.5,72C 83.8508,69.9814 85.8508,67.6481 87.5,65C 85.4971,65.4192 83.4971,66.2526 81.5,67.5C 79.4336,64.7019 77.9336,65.0352 77,68.5C 76.9833,64.147 78.4833,60.3137 81.5,57C 80.9056,56.5357 80.2389,56.369 79.5,56.5C 80.1103,54.5659 81.1103,52.8993 82.5,51.5C 82.4346,51.9382 82.6012,52.2716 83,52.5C 86.7456,48.6073 90.4123,48.6073 94,52.5C 94.8236,55.8823 94.657,59.2156 93.5,62.5C 91.9121,64.1133 90.9121,66.1133 90.5,68.5C 91.2739,69.7112 92.1072,69.7112 93,68.5C 93.6917,69.4368 93.525,70.1034 92.5,70.5 Z"/></g>
<g><path style="opacity:1" fill="#4c4540" d="M 35.5,44.5 C 36.1587,47.4552 36.4921,50.4552 36.5,53.5C 37.0366,56.643 38.0366,59.643 39.5,62.5C 38.689,63.2164 38.0223,64.0497 37.5,65C 39.0167,66.6843 40.6834,68.1843 42.5,69.5C 44.0454,72.1974 43.3787,74.1974 40.5,75.5C 39.7611,75.631 39.0944,75.4643 38.5,75C 41.1047,73.0692 41.1047,71.2358 38.5,69.5C 39.0164,70.7582 38.3497,71.7582 36.5,72.5C 34.8333,71.1667 33.1667,69.8333 31.5,68.5C 30.2519,69.0402 29.0852,69.7069 28,70.5C 27.3828,69.5509 27.5494,68.7175 28.5,68C 26.873,68.4296 25.373,68.5963 24,68.5C 22.1841,66.5586 20.1841,65.8919 18,66.5C 17.1667,65.5 16.3333,64.5 15.5,63.5C 12.9787,66.4139 9.97875,68.2473 6.5,69C 8.65742,67.9153 8.82409,66.7487 7,65.5C 5.26631,66.2489 3.43298,66.7489 1.5,67C 0.868034,70.2704 0.201367,73.4371 -0.5,76.5C -0.5,67.5 -0.5,58.5 -0.5,49.5C 2.76346,48.5178 6.0968,47.8511 9.5,47.5C 11.5914,47.6816 13.5914,47.3482 15.5,46.5C 17.444,47.1892 19.444,47.6892 21.5,48C 20.3044,48.6543 20.3044,49.1543 21.5,49.5C 22.7883,47.5255 24.4549,47.5255 26.5,49.5C 27.521,50.0016 27.6877,50.6683 27,51.5C 25.1667,52.6667 23.3333,53.8333 21.5,55C 20.3044,55.6543 20.3044,56.1543 21.5,56.5C 25.1037,54.2016 28.7704,52.2016 32.5,50.5C 32.3433,51.8734 32.51,53.2068 33,54.5C 33.3333,51.5 33.6667,48.5 34,45.5C 34.3826,44.944 34.8826,44.6107 35.5,44.5 Z"/></g>
<g><path style="opacity:1" fill="#3c3d4d" d="M 142.5,41.5 C 143.5,41.5 144.5,41.5 145.5,41.5C 145.34,43.1992 145.506,44.8659 146,46.5C 148.721,48.9249 151.221,51.5915 153.5,54.5C 152.527,56.9479 152.194,59.6146 152.5,62.5C 152.631,63.2389 152.464,63.9056 152,64.5C 151.31,65.7383 150.81,65.7383 150.5,64.5C 151.223,59.286 149.723,54.9526 146,51.5C 145.87,47.5477 144.036,44.8811 140.5,43.5C 140.833,42.5 141.5,41.8333 142.5,41.5 Z"/></g>
<g><path style="opacity:1" fill="#cdcae0" d="M 105.5,57.5 C 105.629,59.2161 105.962,60.8828 106.5,62.5C 106.674,70.5551 104.007,71.5551 98.5,65.5C 97.3132,66.6527 96.3132,66.6527 95.5,65.5C 95.5,65.1667 95.5,64.8333 95.5,64.5C 96.1963,60.4202 97.5296,56.4202 99.5,52.5C 101.636,53.4724 102.803,55.1391 103,57.5C 103.77,56.4019 104.603,56.4019 105.5,57.5 Z"/></g>
<g><path style="opacity:1" fill="#4d4561" d="M 153.5,54.5 C 154.779,56.1233 156.113,57.79 157.5,59.5C 159.045,60.4519 160.712,60.7852 162.5,60.5C 162.5,62.1667 162.5,63.8333 162.5,65.5C 164.785,66.4787 166.452,68.1453 167.5,70.5C 164.14,68.7867 160.807,67.1201 157.5,65.5C 156.131,64.0317 154.964,62.365 154,60.5C 153.722,61.4158 153.222,62.0825 152.5,62.5C 152.194,59.6146 152.527,56.9479 153.5,54.5 Z"/></g>
<g><path style="opacity:1" fill="#a99393" d="M 179.5,42.5 C 180.319,45.3054 180.819,48.3054 181,51.5C 181.852,52.5707 182.685,53.5707 183.5,54.5C 186.924,59.2344 188.258,64.5677 187.5,70.5C 186.833,70.1667 186.167,69.8333 185.5,69.5C 185.672,68.5084 185.338,67.8417 184.5,67.5C 184.662,63.8226 183.662,60.4892 181.5,57.5C 180.83,59.2914 180.163,60.9581 179.5,62.5C 178.449,61.7777 177.782,60.7777 177.5,59.5C 179.45,54.2649 180.117,48.5982 179.5,42.5 Z"/></g>
<g><path style="opacity:1" fill="#5686b5" d="M 138.5,42.5 C 139.167,42.8333 139.833,43.1667 140.5,43.5C 144.036,44.8811 145.87,47.5477 146,51.5C 149.723,54.9526 151.223,59.286 150.5,64.5C 148.067,70.6767 143.4,73.3434 136.5,72.5C 136.5,72.1667 136.5,71.8333 136.5,71.5C 139.216,71.3215 141.883,70.8215 144.5,70C 145.337,68.9887 145.67,67.8221 145.5,66.5C 148.061,64.3226 148.061,62.1559 145.5,60C 146.591,57.9361 146.758,55.7695 146,53.5C 145.02,51.9411 144.187,50.2744 143.5,48.5C 142.583,47.8728 141.583,47.5394 140.5,47.5C 139.391,47.4431 138.391,47.1098 137.5,46.5C 135.034,45.3659 132.367,45.1993 129.5,46C 127.667,47.8333 125.833,49.6667 124,51.5C 123.503,54.146 123.336,56.8127 123.5,59.5C 120.43,46.6206 125.43,40.9539 138.5,42.5 Z"/></g>
<g><path style="opacity:1" fill="#bcf6fe" d="M 131.5,50.5 C 132.833,50.5 134.167,50.5 135.5,50.5C 135.662,52.5273 135.495,54.5273 135,56.5C 132.378,59.2388 130.212,58.9055 128.5,55.5C 129.092,53.5775 130.092,51.9108 131.5,50.5 Z"/></g>
<g><path style="opacity:1" fill="#504832" d="M 36.5,53.5 C 37.4584,53.9528 38.2917,54.6195 39,55.5C 40.425,60.3947 43.2584,64.0614 47.5,66.5C 47.1667,67.1667 46.8333,67.8333 46.5,68.5C 45.2921,69.2341 43.9587,69.5674 42.5,69.5C 40.6834,68.1843 39.0167,66.6843 37.5,65C 38.0223,64.0497 38.689,63.2164 39.5,62.5C 38.0366,59.643 37.0366,56.643 36.5,53.5 Z"/></g>
<g><path style="opacity:1" fill="#75b6e6" d="M 140.5,47.5 C 141.583,47.5394 142.583,47.8728 143.5,48.5C 144.187,50.2744 145.02,51.9411 146,53.5C 146.758,55.7695 146.591,57.9361 145.5,60C 148.061,62.1559 148.061,64.3226 145.5,66.5C 142.141,68.487 138.475,68.987 134.5,68C 132.056,65.6045 129.39,63.4378 126.5,61.5C 125.571,60.3112 125.238,58.9778 125.5,57.5C 128.297,60.4745 131.63,61.1411 135.5,59.5C 137.282,56.2131 139.282,53.0464 141.5,50C 141.257,49.0979 140.923,48.2646 140.5,47.5 Z"/></g>
<g><path style="opacity:1" fill="#435564" d="M 72.5,58.5 C 74.3792,57.6586 76.3792,57.3253 78.5,57.5C 76.0293,64.4387 73.0293,71.1054 69.5,77.5C 68.5028,77.5299 67.8361,77.0299 67.5,76C 66.3787,71.9728 65.0454,68.1395 63.5,64.5C 62.6422,61.9499 61.6422,59.4499 60.5,57C 64.5214,57.0349 68.5214,57.5349 72.5,58.5 Z"/></g>
<g><path style="opacity:1" fill="#463f3e" d="M 63.5,64.5 C 65.0454,68.1395 66.3787,71.9728 67.5,76C 67.8361,77.0299 68.5028,77.5299 69.5,77.5C 69.5,78.5 69.5,79.5 69.5,80.5C 65.3655,78.2771 61.0321,77.9438 56.5,79.5C 55.3527,79.1822 54.5194,78.5156 54,77.5C 53.2825,78.4506 52.4491,78.6172 51.5,78C 49.7996,74.8291 48.1329,71.6625 46.5,68.5C 46.8333,67.8333 47.1667,67.1667 47.5,66.5C 48.1667,66.5 48.5,66.1667 48.5,65.5C 49.5,65.5 50.5,65.5 51.5,65.5C 55.6277,64.7164 59.6277,64.3831 63.5,64.5 Z"/></g>
<g><path style="opacity:1" fill="#636b88" d="M 101.5,48.5 C 99.0509,47.9426 96.7175,47.9426 94.5,48.5C 95.4512,53.7698 95.7846,59.1032 95.5,64.5C 95.5,64.8333 95.5,65.1667 95.5,65.5C 94.9569,65.56 94.6236,65.8933 94.5,66.5C 98.0293,68.7644 101.696,70.7644 105.5,72.5C 107.213,72.1207 108.213,71.1207 108.5,69.5C 109.833,71.8333 109.833,74.1667 108.5,76.5C 107.007,75.5549 105.507,74.5549 104,73.5C 99.9867,73.5481 95.9867,73.8814 92,74.5C 91.4209,73.0715 91.5876,71.7382 92.5,70.5C 93.525,70.1034 93.6917,69.4368 93,68.5C 92.1072,69.7112 91.2739,69.7112 90.5,68.5C 90.9121,66.1133 91.9121,64.1133 93.5,62.5C 94.657,59.2156 94.8236,55.8823 94,52.5C 90.4123,48.6073 86.7456,48.6073 83,52.5C 82.6012,52.2716 82.4346,51.9382 82.5,51.5C 83.1237,49.246 84.457,47.5794 86.5,46.5C 88.7468,46.0847 90.9135,45.4181 93,44.5C 96.5662,44.5763 99.3995,45.9097 101.5,48.5 Z"/></g>
<g><path style="opacity:1" fill="#5e5141" d="M 213.5,64.5 C 216.041,65.6228 216.041,66.9561 213.5,68.5C 212.708,67.3002 212.708,65.9669 213.5,64.5 Z"/></g>
<g><path style="opacity:1" fill="#a3a0d1" d="M 106.5,62.5 C 106.833,62.5 107.167,62.5 107.5,62.5C 107.328,63.4916 107.662,64.1583 108.5,64.5C 108.5,66.1667 108.5,67.8333 108.5,69.5C 108.213,71.1207 107.213,72.1207 105.5,72.5C 101.696,70.7644 98.0293,68.7644 94.5,66.5C 94.6236,65.8933 94.9569,65.56 95.5,65.5C 96.3132,66.6527 97.3132,66.6527 98.5,65.5C 104.007,71.5551 106.674,70.5551 106.5,62.5 Z"/></g>
<g><path style="opacity:1" fill="#68a6da" d="M 137.5,46.5 C 129.651,46.0169 125.651,49.6835 125.5,57.5C 125.238,58.9778 125.571,60.3112 126.5,61.5C 129.39,63.4378 132.056,65.6045 134.5,68C 138.475,68.987 142.141,68.487 145.5,66.5C 145.67,67.8221 145.337,68.9887 144.5,70C 141.883,70.8215 139.216,71.3215 136.5,71.5C 129.614,70.2813 125.281,66.2813 123.5,59.5C 123.336,56.8127 123.503,54.146 124,51.5C 125.833,49.6667 127.667,47.8333 129.5,46C 132.367,45.1993 135.034,45.3659 137.5,46.5 Z"/></g>
<g><path style="opacity:1" fill="#8e84e3" d="M 157.5,65.5 C 160.807,67.1201 164.14,68.7867 167.5,70.5C 168.795,71.4884 170.128,72.4884 171.5,73.5C 171.5,74.1667 171.5,74.8333 171.5,75.5C 171.5,76.1667 171.167,76.5 170.5,76.5C 168.678,76.1692 167.011,75.5025 165.5,74.5C 161.566,73.7581 157.566,73.5915 153.5,74C 152.663,72.9887 152.33,71.8221 152.5,70.5C 153.942,69.1805 154.608,67.5138 154.5,65.5C 155.5,65.5 156.5,65.5 157.5,65.5 Z"/></g>
<g><path style="opacity:1" fill="#462e3f" d="M 162.5,65.5 C 163.833,65.5 165.167,65.5 166.5,65.5C 168.05,66.4408 169.716,67.1075 171.5,67.5C 173.072,68.6873 174.739,69.6873 176.5,70.5C 176.5,70.8333 176.5,71.1667 176.5,71.5C 174.678,71.8308 173.011,72.4975 171.5,73.5C 170.128,72.4884 168.795,71.4884 167.5,70.5C 166.452,68.1453 164.785,66.4787 162.5,65.5 Z"/></g>
<g><path style="opacity:1" fill="#6fb4ea" d="M 184.5,67.5 C 184.459,71.6163 183.793,75.6163 182.5,79.5C 178.441,79.0399 176.441,76.7065 176.5,72.5C 176.5,72.1667 176.5,71.8333 176.5,71.5C 176.5,71.1667 176.5,70.8333 176.5,70.5C 178.397,68.3025 179.397,65.6358 179.5,62.5C 180.163,60.9581 180.83,59.2914 181.5,57.5C 183.662,60.4892 184.662,63.8226 184.5,67.5 Z"/></g>
<g><path style="opacity:1" fill="#755e76" d="M 157.5,65.5 C 156.5,65.5 155.5,65.5 154.5,65.5C 154.608,67.5138 153.942,69.1805 152.5,70.5C 151.5,70.8333 150.833,71.5 150.5,72.5C 145.575,75.3324 140.242,76.1657 134.5,75C 132.121,74.2838 130.121,73.1172 128.5,71.5C 131.096,72.2653 133.763,72.5987 136.5,72.5C 143.4,73.3434 148.067,70.6767 150.5,64.5C 150.81,65.7383 151.31,65.7383 152,64.5C 152.464,63.9056 152.631,63.2389 152.5,62.5C 153.222,62.0825 153.722,61.4158 154,60.5C 154.964,62.365 156.131,64.0317 157.5,65.5 Z"/></g>
<g><path style="opacity:1" fill="#7364a5" d="M 176.5,71.5 C 176.5,71.8333 176.5,72.1667 176.5,72.5C 175.549,73.9187 175.216,75.5853 175.5,77.5C 174.833,77.5 174.167,77.5 173.5,77.5C 173.869,75.0065 173.203,74.3398 171.5,75.5C 171.5,74.8333 171.5,74.1667 171.5,73.5C 173.011,72.4975 174.678,71.8308 176.5,71.5 Z"/></g>
<g><path style="opacity:1" fill="#262b4b" d="M 152.5,70.5 C 152.33,71.8221 152.663,72.9887 153.5,74C 157.566,73.5915 161.566,73.7581 165.5,74.5C 164.148,78.2856 161.648,79.2856 158,77.5C 156.393,78.0735 154.893,78.7402 153.5,79.5C 152.167,79.1667 150.833,78.8333 149.5,78.5C 149.027,77.0937 148.027,76.427 146.5,76.5C 148.139,75.5275 149.473,74.1942 150.5,72.5C 150.833,71.5 151.5,70.8333 152.5,70.5 Z"/></g>
<g><path style="opacity:1" fill="#383d47" d="M 78.5,56.5 C 78.8333,56.5 79.1667,56.5 79.5,56.5C 80.2389,56.369 80.9056,56.5357 81.5,57C 78.4833,60.3137 76.9833,64.147 77,68.5C 77.9336,65.0352 79.4336,64.7019 81.5,67.5C 83.4971,66.2526 85.4971,65.4192 87.5,65C 85.8508,67.6481 83.8508,69.9814 81.5,72C 81.8333,72.5 82.1667,73 82.5,73.5C 83.1667,72.8333 83.8333,72.1667 84.5,71.5C 85.354,72.5217 86.354,73.3551 87.5,74C 86.0552,75.7103 85.2218,77.5436 85,79.5C 87.5369,76.3585 90.0369,73.3585 92.5,70.5C 91.5876,71.7382 91.4209,73.0715 92,74.5C 95.9867,73.8814 99.9867,73.5481 104,73.5C 105.507,74.5549 107.007,75.5549 108.5,76.5C 108.5,76.8333 108.5,77.1667 108.5,77.5C 107.31,80.4526 105.643,83.1193 103.5,85.5C 103.5,84.5 103.5,83.5 103.5,82.5C 100.646,82.9239 97.9793,83.9239 95.5,85.5C 92.4165,85.1197 89.9165,83.7863 88,81.5C 86.6032,83.0703 85.1032,84.4036 83.5,85.5C 80.7413,87.2931 77.7413,87.7931 74.5,87C 73.0859,83.5001 71.4193,80.3334 69.5,77.5C 73.0293,71.1054 76.0293,64.4387 78.5,57.5C 78.5,57.1667 78.5,56.8333 78.5,56.5 Z"/></g>
<g><path style="opacity:1" fill="#836e42" d="M 225.5,79.5 C 225.158,80.3382 224.492,80.6716 223.5,80.5C 220.852,79.8379 218.185,79.1712 215.5,78.5C 212.408,79.3083 209.408,80.3083 206.5,81.5C 207.716,79.5491 209.382,78.0491 211.5,77C 215.751,75.8054 220.085,75.3054 224.5,75.5C 224.433,76.9587 224.766,78.2921 225.5,79.5 Z"/></g>
<g><path style="opacity:1" fill="#18181b" d="M 119.5,58.5 C 121.338,63.6654 124.338,67.9987 128.5,71.5C 130.121,73.1172 132.121,74.2838 134.5,75C 140.242,76.1657 145.575,75.3324 150.5,72.5C 149.473,74.1942 148.139,75.5275 146.5,76.5C 143.296,77.3833 140.629,79.0499 138.5,81.5C 137.508,81.3284 136.842,81.6618 136.5,82.5C 136.167,82.5 135.833,82.5 135.5,82.5C 134.978,84.2191 133.978,85.5525 132.5,86.5C 131.167,86.5 129.833,86.5 128.5,86.5C 128.5,86.1667 128.5,85.8333 128.5,85.5C 126.622,84.7924 124.955,83.6257 123.5,82C 120.808,81.5702 118.141,81.7369 115.5,82.5C 115.833,85.5 114.5,86.8333 111.5,86.5C 108.925,84.1547 107.925,81.1547 108.5,77.5C 108.5,77.1667 108.5,76.8333 108.5,76.5C 109.833,74.1667 109.833,71.8333 108.5,69.5C 108.5,67.8333 108.5,66.1667 108.5,64.5C 108.435,64.0618 108.601,63.7284 109,63.5C 109.583,65.0016 110.416,66.3349 111.5,67.5C 113.071,66.6906 114.738,66.3573 116.5,66.5C 116.085,62.6249 116.585,58.9582 118,55.5C 118.232,56.7375 118.732,57.7375 119.5,58.5 Z"/></g>
<g><path style="opacity:1" fill="#5f5c9d" d="M 146.5,76.5 C 148.027,76.427 149.027,77.0937 149.5,78.5C 145.997,79.8715 142.33,80.8715 138.5,81.5C 140.629,79.0499 143.296,77.3833 146.5,76.5 Z"/></g>
<g><path style="opacity:1" fill="#8b81e0" d="M 149.5,78.5 C 150.833,78.8333 152.167,79.1667 153.5,79.5C 156.355,81.0927 159.355,82.4261 162.5,83.5C 163.167,84.8333 163.833,86.1667 164.5,87.5C 161.983,89.9965 159.317,89.8298 156.5,87C 152.83,86.4518 149.163,85.9518 145.5,85.5C 142.797,83.89 139.797,82.89 136.5,82.5C 136.842,81.6618 137.508,81.3284 138.5,81.5C 142.33,80.8715 145.997,79.8715 149.5,78.5 Z"/></g>
<g><path style="opacity:1" fill="#3e3c6b" d="M 165.5,74.5 C 167.011,75.5025 168.678,76.1692 170.5,76.5C 169.045,80.2929 166.378,82.6262 162.5,83.5C 159.355,82.4261 156.355,81.0927 153.5,79.5C 154.893,78.7402 156.393,78.0735 158,77.5C 161.648,79.2856 164.148,78.2856 165.5,74.5 Z"/></g>
<g><path style="opacity:1" fill="#141418" d="M 173.5,77.5 C 174.051,80.2668 175.384,82.6001 177.5,84.5C 173.832,86.3215 170.165,87.9882 166.5,89.5C 165.833,88.8333 165.167,88.1667 164.5,87.5C 163.833,86.1667 163.167,84.8333 162.5,83.5C 166.378,82.6262 169.045,80.2929 170.5,76.5C 171.167,76.5 171.5,76.1667 171.5,75.5C 173.203,74.3398 173.869,75.0065 173.5,77.5 Z"/></g>
<g><path style="opacity:1" fill="#5891c1" d="M 184.5,67.5 C 185.338,67.8417 185.672,68.5084 185.5,69.5C 185.922,73.7121 185.256,77.7121 183.5,81.5C 181.926,82.6309 180.259,82.7975 178.5,82C 177.601,80.3484 176.601,78.8484 175.5,77.5C 175.216,75.5853 175.549,73.9187 176.5,72.5C 176.441,76.7065 178.441,79.0399 182.5,79.5C 183.793,75.6163 184.459,71.6163 184.5,67.5 Z"/></g>
<g><path style="opacity:1" fill="#8f7685" d="M 223.5,80.5 C 224.551,81.2223 225.218,82.2223 225.5,83.5C 221.239,85.274 216.573,86.274 211.5,86.5C 209.924,82.5549 207.424,82.5549 204,86.5C 203.333,87.8333 202.667,89.1667 202,90.5C 201.517,89.552 201.351,88.552 201.5,87.5C 201.5,87.1667 201.5,86.8333 201.5,86.5C 202.806,84.5273 204.473,82.8606 206.5,81.5C 209.408,80.3083 212.408,79.3083 215.5,78.5C 218.185,79.1712 220.852,79.8379 223.5,80.5 Z"/></g>
<g><path style="opacity:1" fill="#a28f94" d="M 225.5,79.5 C 227.435,80.1495 229.435,80.4828 231.5,80.5C 231.328,81.4916 231.662,82.1583 232.5,82.5C 232.719,83.675 232.386,84.675 231.5,85.5C 229.677,84.2528 227.677,83.5861 225.5,83.5C 225.218,82.2223 224.551,81.2223 223.5,80.5C 224.492,80.6716 225.158,80.3382 225.5,79.5 Z"/></g>
<g><path style="opacity:1" fill="#252440" d="M 128.5,85.5 C 122.678,85.2099 117.012,85.8766 111.5,87.5C 111.5,87.1667 111.5,86.8333 111.5,86.5C 114.5,86.8333 115.833,85.5 115.5,82.5C 118.141,81.7369 120.808,81.5702 123.5,82C 124.955,83.6257 126.622,84.7924 128.5,85.5 Z"/></g>
<g><path style="opacity:1" fill="#5b58a0" d="M 135.5,82.5 C 135.833,82.5 136.167,82.5 136.5,82.5C 139.797,82.89 142.797,83.89 145.5,85.5C 142.781,85.6025 140.115,85.2692 137.5,84.5C 136.287,84.2528 135.62,83.5862 135.5,82.5 Z"/></g>
<g><path style="opacity:1" fill="#675259" d="M 185.5,69.5 C 186.167,69.8333 186.833,70.1667 187.5,70.5C 187.244,74.2693 187.577,77.9359 188.5,81.5C 187.662,81.8417 187.328,82.5084 187.5,83.5C 186.5,83.5 185.5,83.5 184.5,83.5C 184.451,87.0781 183.785,90.4115 182.5,93.5C 182.5,91.1667 182.5,88.8333 182.5,86.5C 179.834,86.933 177.168,87.433 174.5,88C 170.115,89.5811 166.115,91.7478 162.5,94.5C 156.289,93.6543 150.622,91.6543 145.5,88.5C 150.575,89.4116 155.575,90.7449 160.5,92.5C 162.604,91.4805 164.604,90.4805 166.5,89.5C 170.165,87.9882 173.832,86.3215 177.5,84.5C 175.384,82.6001 174.051,80.2668 173.5,77.5C 174.167,77.5 174.833,77.5 175.5,77.5C 176.601,78.8484 177.601,80.3484 178.5,82C 180.259,82.7975 181.926,82.6309 183.5,81.5C 185.256,77.7121 185.922,73.7121 185.5,69.5 Z"/></g>
<g><path style="opacity:1" fill="#41362e" d="M 40.5,75.5 C 31.4578,81.027 22.7911,87.1936 14.5,94C 9.17998,96.3251 4.17998,99.1584 -0.5,102.5C -0.5,93.8333 -0.5,85.1667 -0.5,76.5C 0.201367,73.4371 0.868034,70.2704 1.5,67C 3.43298,66.7489 5.26631,66.2489 7,65.5C 8.82409,66.7487 8.65742,67.9153 6.5,69C 9.97875,68.2473 12.9787,66.4139 15.5,63.5C 16.3333,64.5 17.1667,65.5 18,66.5C 20.1841,65.8919 22.1841,66.5586 24,68.5C 25.373,68.5963 26.873,68.4296 28.5,68C 27.5494,68.7175 27.3828,69.5509 28,70.5C 29.0852,69.7069 30.2519,69.0402 31.5,68.5C 33.1667,69.8333 34.8333,71.1667 36.5,72.5C 38.3497,71.7582 39.0164,70.7582 38.5,69.5C 41.1047,71.2358 41.1047,73.0692 38.5,75C 39.0944,75.4643 39.7611,75.631 40.5,75.5 Z"/></g>
<g><path style="opacity:1" fill="#392b2d" d="M 108.5,77.5 C 107.925,81.1547 108.925,84.1547 111.5,86.5C 111.5,86.8333 111.5,87.1667 111.5,87.5C 110.833,87.5 110.5,87.8333 110.5,88.5C 106.799,88.8674 104.799,90.8674 104.5,94.5C 102.076,94.1924 99.7427,94.5258 97.5,95.5C 98.6053,96.8924 99.9386,98.059 101.5,99C 98.9644,99.1862 96.631,99.6862 94.5,100.5C 94.3173,98.1789 93.984,95.8456 93.5,93.5C 93.8333,92.5 94.5,91.8333 95.5,91.5C 98.4309,89.9092 101.098,87.9092 103.5,85.5C 105.643,83.1193 107.31,80.4526 108.5,77.5 Z"/></g>
<g><path style="opacity:1" fill="#2c2d4c" d="M 135.5,82.5 C 135.62,83.5862 136.287,84.2528 137.5,84.5C 140.115,85.2692 142.781,85.6025 145.5,85.5C 149.163,85.9518 152.83,86.4518 156.5,87C 159.317,89.8298 161.983,89.9965 164.5,87.5C 165.167,88.1667 165.833,88.8333 166.5,89.5C 164.604,90.4805 162.604,91.4805 160.5,92.5C 155.575,90.7449 150.575,89.4116 145.5,88.5C 143.833,88.5 142.167,88.5 140.5,88.5C 137.833,87.8333 135.167,87.1667 132.5,86.5C 133.978,85.5525 134.978,84.2191 135.5,82.5 Z"/></g>
<g><path style="opacity:1" fill="#5a401f" d="M 57.5,84.5 C 61.0742,83.2262 64.7409,83.3929 68.5,85C 69.0848,86.3024 69.7515,87.469 70.5,88.5C 72.8575,98.5975 75.5241,108.597 78.5,118.5C 78.5299,119.497 78.0299,120.164 77,120.5C 75.779,119.728 74.779,118.728 74,117.5C 72.2121,110.78 70.2121,104.113 68,97.5C 69.1661,105.51 70.6661,113.51 72.5,121.5C 70.0532,121.615 68.0532,122.615 66.5,124.5C 64.8212,124.715 63.8212,124.048 63.5,122.5C 65.1237,124.137 66.1237,123.803 66.5,121.5C 64.9966,116.46 64.3299,111.294 64.5,106C 64.8902,100.149 65.0569,94.3155 65,88.5C 64.6905,87.2341 64.1905,86.0674 63.5,85C 61.5273,84.5045 59.5273,84.3379 57.5,84.5 Z"/></g>
<g><path style="opacity:1" fill="#202229" d="M 103.5,85.5 C 101.098,87.9092 98.4309,89.9092 95.5,91.5C 93.9577,90.8592 92.6243,89.8592 91.5,88.5C 88.8929,87.6816 86.2263,87.1816 83.5,87C 84.7383,86.31 84.7383,85.81 83.5,85.5C 85.1032,84.4036 86.6032,83.0703 88,81.5C 89.9165,83.7863 92.4165,85.1197 95.5,85.5C 97.9793,83.9239 100.646,82.9239 103.5,82.5C 103.5,83.5 103.5,84.5 103.5,85.5 Z"/></g>
<g><path style="opacity:1" fill="#685364" d="M 232.5,82.5 C 233.451,83.9187 233.784,85.5853 233.5,87.5C 232.549,88.9187 232.216,90.5853 232.5,92.5C 231.685,91.5707 230.852,90.5707 230,89.5C 228.325,91.7732 227.158,94.2732 226.5,97C 224.203,97.0178 221.869,96.8511 219.5,96.5C 216.66,93.3556 213.993,90.0223 211.5,86.5C 216.573,86.274 221.239,85.274 225.5,83.5C 227.677,83.5861 229.677,84.2528 231.5,85.5C 232.386,84.675 232.719,83.675 232.5,82.5 Z"/></g>
<g><path style="opacity:1" fill="#544449" d="M 211.5,86.5 C 213.993,90.0223 216.66,93.3556 219.5,96.5C 216.183,97.2209 212.849,97.3876 209.5,97C 208.718,92.6752 206.384,91.1752 202.5,92.5C 201.094,92.0269 200.427,91.0269 200.5,89.5C 200.328,88.5084 200.662,87.8417 201.5,87.5C 201.351,88.552 201.517,89.552 202,90.5C 202.667,89.1667 203.333,87.8333 204,86.5C 207.424,82.5549 209.924,82.5549 211.5,86.5 Z"/></g>
<g><path style="opacity:1" fill="#40353a" d="M 182.5,93.5 C 182.768,95.099 182.434,96.4324 181.5,97.5C 181.773,95.549 181.107,94.049 179.5,93C 180.902,91.6575 180.569,90.8242 178.5,90.5C 175.04,92.5518 171.706,94.5518 168.5,96.5C 166.102,96.7406 164.102,96.0739 162.5,94.5C 166.115,91.7478 170.115,89.5811 174.5,88C 177.168,87.433 179.834,86.933 182.5,86.5C 182.5,88.8333 182.5,91.1667 182.5,93.5 Z"/></g>
<g><path style="opacity:1" fill="#4b4e96" d="M 128.5,85.5 C 128.5,85.8333 128.5,86.1667 128.5,86.5C 123.76,85.9207 121.094,87.9207 120.5,92.5C 118.289,96.386 115.289,99.7193 111.5,102.5C 111.833,102.833 112.167,103.167 112.5,103.5C 113.85,102.05 115.516,101.383 117.5,101.5C 117.047,102.458 116.381,103.292 115.5,104C 112.21,104.253 109.21,105.253 106.5,107C 103.833,107.667 101.167,107.667 98.5,107C 97.944,106.617 97.6107,106.117 97.5,105.5C 100.738,103.361 104.238,101.694 108,100.5C 107.665,97.9319 107.499,95.4319 107.5,93C 108.555,91.4928 109.555,89.9928 110.5,88.5C 110.5,87.8333 110.833,87.5 111.5,87.5C 117.012,85.8766 122.678,85.2099 128.5,85.5 Z"/></g>
<g><path style="opacity:1" fill="#8179d3" d="M 128.5,86.5 C 129.833,86.5 131.167,86.5 132.5,86.5C 135.167,87.1667 137.833,87.8333 140.5,88.5C 135.42,88.1506 130.42,88.1506 125.5,88.5C 124.16,89.6878 123.493,91.1878 123.5,93C 124.474,95.3428 125.808,97.5094 127.5,99.5C 124.833,98.8333 122.167,98.1667 119.5,97.5C 119.629,95.7839 119.962,94.1172 120.5,92.5C 121.094,87.9207 123.76,85.9207 128.5,86.5 Z"/></g>
<g><path style="opacity:1" fill="#926f38" d="M 57.5,84.5 C 59.5273,84.3379 61.5273,84.5045 63.5,85C 64.1905,86.0674 64.6905,87.2341 65,88.5C 65.0569,94.3155 64.8902,100.149 64.5,106C 64.3299,111.294 64.9966,116.46 66.5,121.5C 66.1237,123.803 65.1237,124.137 63.5,122.5C 62.153,118.788 60.8196,115.122 59.5,111.5C 60.7498,111.577 61.5831,112.244 62,113.5C 62.6582,107.58 62.1582,101.747 60.5,96C 60.4683,94.0289 61.3016,92.5289 63,91.5C 63.6667,89.8333 63.6667,88.1667 63,86.5C 59.9049,85.6051 56.7383,85.6051 53.5,86.5C 54.5137,85.3263 55.847,84.6596 57.5,84.5 Z"/></g>
<g><path style="opacity:1" fill="#130d09" d="M 181.5,97.5 C 180.566,98.5676 180.232,99.901 180.5,101.5C 179.674,105.982 179.174,110.649 179,115.5C 178.292,114.619 177.458,113.953 176.5,113.5C 175.272,112.694 174.272,111.694 173.5,110.5C 172.209,105.623 170.542,100.956 168.5,96.5C 171.706,94.5518 175.04,92.5518 178.5,90.5C 180.569,90.8242 180.902,91.6575 179.5,93C 181.107,94.049 181.773,95.549 181.5,97.5 Z"/></g>
<g><path style="opacity:1" fill="#a896ed" d="M 140.5,88.5 C 142.167,88.5 143.833,88.5 145.5,88.5C 150.622,91.6543 156.289,93.6543 162.5,94.5C 164.102,96.0739 166.102,96.7406 168.5,96.5C 168.286,98.1439 168.62,99.6439 169.5,101C 168.572,101.388 167.905,102.055 167.5,103C 168.354,103.574 169.354,104.241 170.5,105C 171.459,107.12 171.626,109.287 171,111.5C 167.967,112.999 166.134,111.999 165.5,108.5C 165.662,106.473 165.495,104.473 165,102.5C 161.853,99.8409 158.353,98.1743 154.5,97.5C 155.675,97.719 156.675,97.3857 157.5,96.5C 157.167,96.1667 156.833,95.8333 156.5,95.5C 152.788,95.0299 149.455,93.6965 146.5,91.5C 140.501,90.3571 134.501,90.3571 128.5,91.5C 128.5,92.8333 128.5,94.1667 128.5,95.5C 129.822,95.67 130.989,95.3366 132,94.5C 132.216,96.3839 132.883,98.0506 134,99.5C 134.667,98.8333 135.333,98.1667 136,97.5C 136.384,100.06 137.217,102.394 138.5,104.5C 135.953,104.638 133.287,104.138 130.5,103C 129.364,101.855 128.364,100.688 127.5,99.5C 125.808,97.5094 124.474,95.3428 123.5,93C 123.493,91.1878 124.16,89.6878 125.5,88.5C 130.42,88.1506 135.42,88.1506 140.5,88.5 Z"/></g>
<g><path style="opacity:1" fill="#bab3b2" d="M 188.5,81.5 C 189.117,81.6107 189.617,81.944 190,82.5C 190.497,85.146 190.664,87.8127 190.5,90.5C 189.676,94.3123 189.176,98.3123 189,102.5C 188.828,95.9867 188.328,89.6534 187.5,83.5C 187.328,82.5084 187.662,81.8417 188.5,81.5 Z"/></g>
<g><path style="opacity:1" fill="#434581" d="M 110.5,88.5 C 109.555,89.9928 108.555,91.4928 107.5,93C 107.499,95.4319 107.665,97.9319 108,100.5C 104.238,101.694 100.738,103.361 97.5,105.5C 97.6716,104.508 97.3382,103.842 96.5,103.5C 95.0937,103.027 94.427,102.027 94.5,100.5C 96.631,99.6862 98.9644,99.1862 101.5,99C 99.9386,98.059 98.6053,96.8924 97.5,95.5C 99.7427,94.5258 102.076,94.1924 104.5,94.5C 104.799,90.8674 106.799,88.8674 110.5,88.5 Z"/></g>
<g><path style="opacity:1" fill="#c8b2f6" d="M 154.5,97.5 C 153.833,97.5 153.167,97.5 152.5,97.5C 151.66,99.7917 150.66,102.125 149.5,104.5C 146.188,104.737 142.522,104.737 138.5,104.5C 137.217,102.394 136.384,100.06 136,97.5C 135.333,98.1667 134.667,98.8333 134,99.5C 132.883,98.0506 132.216,96.3839 132,94.5C 130.989,95.3366 129.822,95.67 128.5,95.5C 128.5,94.1667 128.5,92.8333 128.5,91.5C 134.501,90.3571 140.501,90.3571 146.5,91.5C 149.455,93.6965 152.788,95.0299 156.5,95.5C 156.833,95.8333 157.167,96.1667 157.5,96.5C 156.675,97.3857 155.675,97.719 154.5,97.5 Z"/></g>
<g><path style="opacity:1" fill="#2c2524" d="M 200.5,89.5 C 200.427,91.0269 201.094,92.0269 202.5,92.5C 204.122,98.4751 207.788,100.475 213.5,98.5C 212.849,101.803 211.182,104.47 208.5,106.5C 207.833,106.5 207.167,106.5 206.5,106.5C 206.291,100.244 203.624,95.4109 198.5,92C 199.066,91.0053 199.733,90.172 200.5,89.5 Z"/></g>
<g><path style="opacity:1" fill="#af8b4b" d="M 59.5,111.5 C 55.1777,104.158 52.5111,96.1578 51.5,87.5C 51.8417,86.6618 52.5084,86.3284 53.5,86.5C 56.7383,85.6051 59.9049,85.6051 63,86.5C 63.6667,88.1667 63.6667,89.8333 63,91.5C 61.3016,92.5289 60.4683,94.0289 60.5,96C 62.1582,101.747 62.6582,107.58 62,113.5C 61.5831,112.244 60.7498,111.577 59.5,111.5 Z"/></g>
<g><path style="opacity:1" fill="#382c22" d="M 52.5,123.5 C 54.6675,126.14 56.1675,129.14 57,132.5C 57.7975,134.259 57.6309,135.926 56.5,137.5C 55.0512,134.268 53.8845,130.935 53,127.5C 52.3005,125.968 51.1338,124.968 49.5,124.5C 49.1667,123.5 48.8333,122.5 48.5,121.5C 49.6749,118.483 49.6749,115.483 48.5,112.5C 46.7384,110.892 45.5718,108.892 45,106.5C 44.6667,107.167 44.3333,107.833 44,108.5C 43.6401,106.392 42.9734,104.392 42,102.5C 41.2588,101.359 40.4255,101.359 39.5,102.5C 38.8076,101.975 38.3076,101.308 38,100.5C 26.4783,110.36 14.1449,119.027 1,126.5C 0.826691,132.016 0.326691,137.349 -0.5,142.5C -0.5,131.167 -0.5,119.833 -0.5,108.5C 1.65472,108.628 3.65472,108.128 5.5,107C 15.1617,100.325 24.495,93.3248 33.5,86C 36.0226,85.4818 38.0226,84.1485 39.5,82C 40.7932,81.51 42.1266,81.3433 43.5,81.5C 43.335,84.8499 43.5017,88.1832 44,91.5C 48.859,101.25 51.0257,111.417 50.5,122C 50.8361,123.03 51.5028,123.53 52.5,123.5 Z"/></g>
<g><path style="opacity:1" fill="#251f15" d="M 46.5,68.5 C 48.1329,71.6625 49.7996,74.8291 51.5,78C 52.4491,78.6172 53.2825,78.4506 54,77.5C 54.5194,78.5156 55.3527,79.1822 56.5,79.5C 61.0321,77.9438 65.3655,78.2771 69.5,80.5C 70.388,83.0545 70.7214,85.7212 70.5,88.5C 69.7515,87.469 69.0848,86.3024 68.5,85C 64.7409,83.3929 61.0742,83.2262 57.5,84.5C 55.847,84.6596 54.5137,85.3263 53.5,86.5C 52.5084,86.3284 51.8417,86.6618 51.5,87.5C 50.1201,87.9623 49.4534,88.9623 49.5,90.5C 51.7844,100.189 54.2844,109.856 57,119.5C 58.4884,122.333 60.155,124.999 62,127.5C 63.6664,126.652 65.1664,125.652 66.5,124.5C 68.0532,122.615 70.0532,121.615 72.5,121.5C 70.6661,113.51 69.1661,105.51 68,97.5C 70.2121,104.113 72.2121,110.78 74,117.5C 74.779,118.728 75.779,119.728 77,120.5C 78.0299,120.164 78.5299,119.497 78.5,118.5C 79.3705,121.003 80.0372,123.67 80.5,126.5C 79.7354,126.077 78.9021,125.743 78,125.5C 74.3395,126.923 70.6729,128.256 67,129.5C 66.8333,130 66.6667,130.5 66.5,131C 69.4296,132.885 70.0963,135.385 68.5,138.5C 70.0453,139.452 71.712,139.785 73.5,139.5C 73.5,140.833 73.5,142.167 73.5,143.5C 68.1667,143.5 62.8333,143.5 57.5,143.5C 56.8592,142.518 56.1925,141.518 55.5,140.5C 57.4583,138.731 59.4583,138.065 61.5,138.5C 60.91,137.201 59.91,136.368 58.5,136C 59.6023,133.599 59.769,131.099 59,128.5C 58.3333,129.833 57.6667,129.833 57,128.5C 57.266,125.099 55.766,123.433 52.5,123.5C 51.5028,123.53 50.8361,123.03 50.5,122C 51.0257,111.417 48.859,101.25 44,91.5C 43.5017,88.1832 43.335,84.8499 43.5,81.5C 42.1266,81.3433 40.7932,81.51 39.5,82C 38.0226,84.1485 36.0226,85.4818 33.5,86C 24.495,93.3248 15.1617,100.325 5.5,107C 3.65472,108.128 1.65472,108.628 -0.5,108.5C -0.5,106.5 -0.5,104.5 -0.5,102.5C 4.17998,99.1584 9.17998,96.3251 14.5,94C 22.7911,87.1936 31.4578,81.027 40.5,75.5C 43.3787,74.1974 44.0454,72.1974 42.5,69.5C 43.9587,69.5674 45.2921,69.2341 46.5,68.5 Z"/></g>
<g><path style="opacity:1" fill="#928c8b" d="M 187.5,83.5 C 188.328,89.6534 188.828,95.9867 189,102.5C 189.176,98.3123 189.676,94.3123 190.5,90.5C 190.334,94.8461 190.501,99.1794 191,103.5C 191.2,105.32 192.034,106.653 193.5,107.5C 191.777,108.807 189.943,108.807 188,107.5C 187.5,99.5069 187.334,91.5069 187.5,83.5 Z"/></g>
<g><path style="opacity:1" fill="#363135" d="M 255.5,90.5 C 255.5,97.1667 255.5,103.833 255.5,110.5C 251.219,111.517 248.886,109.85 248.5,105.5C 246.713,104.684 245.046,103.684 243.5,102.5C 243.863,101.817 244.196,101.15 244.5,100.5C 247.261,98.7884 250.261,97.6218 253.5,97C 251.957,95.1217 250.124,93.6217 248,92.5C 247.517,91.552 247.351,90.552 247.5,89.5C 248.151,88.9094 248.818,88.2427 249.5,87.5C 251.071,89.415 253.071,90.415 255.5,90.5 Z"/></g>
<g><path style="opacity:1" fill="#2e305c" d="M 117.5,101.5 C 118.167,101.5 118.833,101.5 119.5,101.5C 118.384,104.556 116.884,107.556 115,110.5C 114.506,112.134 114.34,113.801 114.5,115.5C 117.022,116.011 119.355,117.011 121.5,118.5C 121.833,119.167 122.167,119.833 122.5,120.5C 123.502,122.011 124.169,123.678 124.5,125.5C 121.263,122.571 117.763,119.904 114,117.5C 113.506,115.866 113.34,114.199 113.5,112.5C 107.078,111.615 101.078,109.615 95.5,106.5C 96.1098,105.609 96.4431,104.609 96.5,103.5C 97.3382,103.842 97.6716,104.508 97.5,105.5C 97.6107,106.117 97.944,106.617 98.5,107C 101.167,107.667 103.833,107.667 106.5,107C 109.21,105.253 112.21,104.253 115.5,104C 116.381,103.292 117.047,102.458 117.5,101.5 Z"/></g>
<g><path style="opacity:1" fill="#695666" d="M 187.5,83.5 C 187.334,91.5069 187.5,99.5069 188,107.5C 189.943,108.807 191.777,108.807 193.5,107.5C 198.032,107.818 202.366,107.485 206.5,106.5C 207.167,106.5 207.833,106.5 208.5,106.5C 209.251,107.573 210.251,107.74 211.5,107C 213.425,104.566 215.759,102.733 218.5,101.5C 219.5,101.833 220.5,102.167 221.5,102.5C 217.923,104.909 215.257,108.076 213.5,112C 203.483,112.832 193.483,112.666 183.5,111.5C 181.698,107.036 181.032,102.37 181.5,97.5C 182.434,96.4324 182.768,95.099 182.5,93.5C 183.785,90.4115 184.451,87.0781 184.5,83.5C 185.5,83.5 186.5,83.5 187.5,83.5 Z"/></g>
<g><path style="opacity:1" fill="#2b2521" d="M 244.5,100.5 C 244.196,101.15 243.863,101.817 243.5,102.5C 245.046,103.684 246.713,104.684 248.5,105.5C 248.886,109.85 251.219,111.517 255.5,110.5C 255.5,111.167 255.5,111.833 255.5,112.5C 252.478,112.804 249.478,113.304 246.5,114C 243.948,116.853 241.115,119.353 238,121.5C 237.338,123.813 236.838,126.146 236.5,128.5C 234.621,128.607 234.288,128.107 235.5,127C 234.773,125.601 234.273,124.101 234,122.5C 233.246,125.639 232.246,128.639 231,131.5C 231.253,128.867 231.253,126.2 231,123.5C 230.023,124.774 229.189,124.774 228.5,123.5C 229.392,119.147 230.392,114.814 231.5,110.5C 233.857,110.663 236.19,110.497 238.5,110C 240.178,106.441 242.178,103.275 244.5,100.5 Z"/></g>
<g><path style="opacity:1" fill="#322727" d="M 231.5,99.5 C 231.788,105.047 229.121,107.88 223.5,108C 220.044,110.754 218.044,114.254 217.5,118.5C 213.895,118.863 210.395,118.863 207,118.5C 204.442,119.151 203.609,120.485 204.5,122.5C 203.391,122.443 202.391,122.11 201.5,121.5C 198.202,119.631 194.535,118.631 190.5,118.5C 188.68,118.649 187.18,119.316 186,120.5C 185.667,120.167 185.333,119.833 185,119.5C 184.82,121.488 184.986,123.488 185.5,125.5C 184.193,124.847 182.86,124.18 181.5,123.5C 180.893,123.624 180.56,123.957 180.5,124.5C 179.883,124.389 179.383,124.056 179,123.5C 178.057,120.176 177.224,116.843 176.5,113.5C 177.458,113.953 178.292,114.619 179,115.5C 179.174,110.649 179.674,105.982 180.5,101.5C 180.5,105.833 180.5,110.167 180.5,114.5C 191.838,114.667 203.172,114.5 214.5,114C 217.114,110.263 220.281,107.097 224,104.5C 224.494,102.866 224.66,101.199 224.5,99.5C 226.969,100.067 229.302,100.067 231.5,99.5 Z"/></g>
<g><path style="opacity:1" fill="#130e03" d="M 233.5,87.5 C 233.335,91.1817 233.501,94.8484 234,98.5C 240.515,98.1951 245.015,95.1951 247.5,89.5C 247.351,90.552 247.517,91.552 248,92.5C 250.124,93.6217 251.957,95.1217 253.5,97C 250.261,97.6218 247.261,98.7884 244.5,100.5C 242.178,103.275 240.178,106.441 238.5,110C 236.19,110.497 233.857,110.663 231.5,110.5C 230.392,114.814 229.392,119.147 228.5,123.5C 227.035,124.406 226.035,125.739 225.5,127.5C 223.604,128.466 221.604,128.799 219.5,128.5C 215.241,125.705 210.575,124.038 205.5,123.5C 204.833,123.5 204.5,123.167 204.5,122.5C 203.609,120.485 204.442,119.151 207,118.5C 210.395,118.863 213.895,118.863 217.5,118.5C 218.044,114.254 220.044,110.754 223.5,108C 229.121,107.88 231.788,105.047 231.5,99.5C 232.219,97.2362 232.552,94.9029 232.5,92.5C 232.216,90.5853 232.549,88.9187 233.5,87.5 Z"/></g>
<g><path style="opacity:1" fill="#48373c" d="M 232.5,92.5 C 232.552,94.9029 232.219,97.2362 231.5,99.5C 229.302,100.067 226.969,100.067 224.5,99.5C 224.66,101.199 224.494,102.866 224,104.5C 220.281,107.097 217.114,110.263 214.5,114C 203.172,114.5 191.838,114.667 180.5,114.5C 180.5,110.167 180.5,105.833 180.5,101.5C 180.232,99.901 180.566,98.5676 181.5,97.5C 181.032,102.37 181.698,107.036 183.5,111.5C 193.483,112.666 203.483,112.832 213.5,112C 215.257,108.076 217.923,104.909 221.5,102.5C 220.5,102.167 219.5,101.833 218.5,101.5C 215.759,102.733 213.425,104.566 211.5,107C 210.251,107.74 209.251,107.573 208.5,106.5C 211.182,104.47 212.849,101.803 213.5,98.5C 207.788,100.475 204.122,98.4751 202.5,92.5C 206.384,91.1752 208.718,92.6752 209.5,97C 212.849,97.3876 216.183,97.2209 219.5,96.5C 221.869,96.8511 224.203,97.0178 226.5,97C 227.158,94.2732 228.325,91.7732 230,89.5C 230.852,90.5707 231.685,91.5707 232.5,92.5 Z"/></g>
<g><path style="opacity:1" fill="#191915" d="M 69.5,77.5 C 71.4193,80.3334 73.0859,83.5001 74.5,87C 77.7413,87.7931 80.7413,87.2931 83.5,85.5C 84.7383,85.81 84.7383,86.31 83.5,87C 86.2263,87.1816 88.8929,87.6816 91.5,88.5C 92.6243,89.8592 93.9577,90.8592 95.5,91.5C 94.5,91.8333 93.8333,92.5 93.5,93.5C 91.1602,94.086 88.9935,95.086 87,96.5C 86.8665,99.5251 85.8665,102.192 84,104.5C 82.9808,113.859 84.1475,122.859 87.5,131.5C 86.7382,135.111 86.2382,138.778 86,142.5C 83.2851,137.418 81.4518,132.085 80.5,126.5C 80.0372,123.67 79.3705,121.003 78.5,118.5C 75.5241,108.597 72.8575,98.5975 70.5,88.5C 70.7214,85.7212 70.388,83.0545 69.5,80.5C 69.5,79.5 69.5,78.5 69.5,77.5 Z"/></g>
<g><path style="opacity:1" fill="#42458a" d="M 121.5,118.5 C 119.355,117.011 117.022,116.011 114.5,115.5C 114.34,113.801 114.506,112.134 115,110.5C 116.884,107.556 118.384,104.556 119.5,101.5C 120.368,99.3754 121.368,99.2087 122.5,101C 120.255,106.686 119.922,112.519 121.5,118.5 Z"/></g>
<g><path style="opacity:1" fill="#5f60be" d="M 120.5,92.5 C 119.962,94.1172 119.629,95.7839 119.5,97.5C 122.167,98.1667 124.833,98.8333 127.5,99.5C 128.364,100.688 129.364,101.855 130.5,103C 133.287,104.138 135.953,104.638 138.5,104.5C 138.678,105.695 139.011,106.862 139.5,108C 136.939,110.947 137.106,113.78 140,116.5C 140.333,116.167 140.667,115.833 141,115.5C 143.503,117.48 145.336,119.813 146.5,122.5C 147.5,122.5 148.5,122.5 149.5,122.5C 149.657,123.873 149.49,125.207 149,126.5C 147.667,125.167 146.333,123.833 145,122.5C 145.584,125.993 147.417,128.66 150.5,130.5C 148.833,130.5 147.167,130.5 145.5,130.5C 145.5,131.5 145.5,132.5 145.5,133.5C 145.719,134.675 145.386,135.675 144.5,136.5C 142.684,135.185 141.017,133.685 139.5,132C 138.552,131.517 137.552,131.351 136.5,131.5C 134.518,128.19 132.185,125.19 129.5,122.5C 129.144,121.13 128.31,120.13 127,119.5C 125.56,120.148 124.06,120.481 122.5,120.5C 122.167,119.833 121.833,119.167 121.5,118.5C 119.922,112.519 120.255,106.686 122.5,101C 121.368,99.2087 120.368,99.3754 119.5,101.5C 118.833,101.5 118.167,101.5 117.5,101.5C 115.516,101.383 113.85,102.05 112.5,103.5C 112.167,103.167 111.833,102.833 111.5,102.5C 115.289,99.7193 118.289,96.386 120.5,92.5 Z"/></g>
<g><path style="opacity:1" fill="#2c2018" d="M 93.5,93.5 C 93.984,95.8456 94.3173,98.1789 94.5,100.5C 94.427,102.027 95.0937,103.027 96.5,103.5C 96.4431,104.609 96.1098,105.609 95.5,106.5C 94.9033,106.735 94.5699,107.235 94.5,108C 97.5882,113.023 98.2549,118.356 96.5,124C 96.8137,126.982 98.3137,129.148 101,130.5C 101.499,134.821 101.666,139.154 101.5,143.5C 92.1667,143.5 82.8333,143.5 73.5,143.5C 73.5,142.167 73.5,140.833 73.5,139.5C 71.712,139.785 70.0453,139.452 68.5,138.5C 70.0963,135.385 69.4296,132.885 66.5,131C 66.6667,130.5 66.8333,130 67,129.5C 70.6729,128.256 74.3395,126.923 78,125.5C 78.9021,125.743 79.7354,126.077 80.5,126.5C 81.4518,132.085 83.2851,137.418 86,142.5C 86.2382,138.778 86.7382,135.111 87.5,131.5C 84.1475,122.859 82.9808,113.859 84,104.5C 85.8665,102.192 86.8665,99.5251 87,96.5C 88.9935,95.086 91.1602,94.086 93.5,93.5 Z"/></g>
<g><path style="opacity:1" fill="#573b19" d="M 179.5,117.5 C 180.833,117.5 182.167,117.5 183.5,117.5C 183.02,123.76 181.686,123.76 179.5,117.5 Z"/></g>
<g><path style="opacity:1" fill="#5051a1" d="M 173.5,110.5 C 174.272,111.694 175.272,112.694 176.5,113.5C 177.224,116.843 178.057,120.176 179,123.5C 179.383,124.056 179.883,124.389 180.5,124.5C 180.643,126.262 180.309,127.929 179.5,129.5C 182.1,131.735 184.1,134.402 185.5,137.5C 185.649,138.552 185.483,139.552 185,140.5C 182.656,138.323 180.489,135.99 178.5,133.5C 177.086,128.006 174.586,123.006 171,118.5C 170.683,120.301 170.016,120.634 169,119.5C 168.29,120.973 167.124,121.64 165.5,121.5C 165.769,123.429 165.269,125.095 164,126.5C 162.654,118.646 161.487,118.646 160.5,126.5C 159.808,125.975 159.308,125.308 159,124.5C 158.601,124.728 158.435,125.062 158.5,125.5C 157.378,123.712 157.211,121.712 158,119.5C 158.419,120.672 159.085,121.672 160,122.5C 160.834,119.828 161.668,117.161 162.5,114.5C 163.5,114.167 164.5,113.833 165.5,113.5C 167.535,114.204 169.535,114.871 171.5,115.5C 172.167,113.833 172.833,112.167 173.5,110.5 Z"/></g>
<g><path style="opacity:1" fill="#3d2c0e" d="M 51.5,87.5 C 52.5111,96.1578 55.1777,104.158 59.5,111.5C 60.8196,115.122 62.153,118.788 63.5,122.5C 63.8212,124.048 64.8212,124.715 66.5,124.5C 65.1664,125.652 63.6664,126.652 62,127.5C 60.155,124.999 58.4884,122.333 57,119.5C 54.2844,109.856 51.7844,100.189 49.5,90.5C 49.4534,88.9623 50.1201,87.9623 51.5,87.5 Z"/></g>
<g><path style="opacity:1" fill="#4c4e8e" d="M 129.5,122.5 C 128.347,123.313 128.347,124.313 129.5,125.5C 128.675,126.386 127.675,126.719 126.5,126.5C 125.508,126.672 124.842,126.338 124.5,125.5C 124.169,123.678 123.502,122.011 122.5,120.5C 124.06,120.481 125.56,120.148 127,119.5C 128.31,120.13 129.144,121.13 129.5,122.5 Z"/></g>
<g><path style="opacity:1" fill="#302519" d="M 52.5,123.5 C 55.766,123.433 57.266,125.099 57,128.5C 57.6667,129.833 58.3333,129.833 59,128.5C 59.769,131.099 59.6023,133.599 58.5,136C 59.91,136.368 60.91,137.201 61.5,138.5C 59.4583,138.065 57.4583,138.731 55.5,140.5C 56.1925,141.518 56.8592,142.518 57.5,143.5C 56.8333,143.5 56.1667,143.5 55.5,143.5C 55.4005,138.558 53.0672,135.058 48.5,133C 47.451,132.508 46.451,132.674 45.5,133.5C 39.5798,129.631 33.2464,128.797 26.5,131C 22.7789,133.527 18.7789,135.527 14.5,137C 12.0771,138.571 10.7438,140.737 10.5,143.5C 6.83333,143.5 3.16667,143.5 -0.5,143.5C -0.5,143.167 -0.5,142.833 -0.5,142.5C 0.326691,137.349 0.826691,132.016 1,126.5C 14.1449,119.027 26.4783,110.36 38,100.5C 38.3076,101.308 38.8076,101.975 39.5,102.5C 40.4255,101.359 41.2588,101.359 42,102.5C 42.9734,104.392 43.6401,106.392 44,108.5C 44.3333,107.833 44.6667,107.167 45,106.5C 45.5718,108.892 46.7384,110.892 48.5,112.5C 49.6749,115.483 49.6749,118.483 48.5,121.5C 48.8333,122.5 49.1667,123.5 49.5,124.5C 51.1338,124.968 52.3005,125.968 53,127.5C 53.8845,130.935 55.0512,134.268 56.5,137.5C 57.6309,135.926 57.7975,134.259 57,132.5C 56.1675,129.14 54.6675,126.14 52.5,123.5 Z"/></g>
<g><path style="opacity:1" fill="#343462" d="M 129.5,122.5 C 132.185,125.19 134.518,128.19 136.5,131.5C 132.58,130.873 129.247,129.207 126.5,126.5C 127.675,126.719 128.675,126.386 129.5,125.5C 128.347,124.313 128.347,123.313 129.5,122.5 Z"/></g>
<g><path style="opacity:1" fill="#6b6ac7" d="M 168.5,96.5 C 170.542,100.956 172.209,105.623 173.5,110.5C 172.833,112.167 172.167,113.833 171.5,115.5C 169.535,114.871 167.535,114.204 165.5,113.5C 164.5,113.833 163.5,114.167 162.5,114.5C 161.668,117.161 160.834,119.828 160,122.5C 159.085,121.672 158.419,120.672 158,119.5C 157.211,121.712 157.378,123.712 158.5,125.5C 159.75,128.006 160.416,130.673 160.5,133.5C 160.5,133.833 160.5,134.167 160.5,134.5C 160.107,136.284 159.441,137.95 158.5,139.5C 156.989,140.502 155.322,141.169 153.5,141.5C 153.806,138.615 153.473,135.948 152.5,133.5C 151.833,132.5 151.167,131.5 150.5,130.5C 147.417,128.66 145.584,125.993 145,122.5C 146.333,123.833 147.667,125.167 149,126.5C 149.49,125.207 149.657,123.873 149.5,122.5C 148.5,122.5 147.5,122.5 146.5,122.5C 145.336,119.813 143.503,117.48 141,115.5C 140.667,115.833 140.333,116.167 140,116.5C 137.106,113.78 136.939,110.947 139.5,108C 139.011,106.862 138.678,105.695 138.5,104.5C 142.522,104.737 146.188,104.737 149.5,104.5C 150.66,102.125 151.66,99.7917 152.5,97.5C 153.45,100.068 153.45,102.568 152.5,105C 154.407,105.132 155.907,104.298 157,102.5C 159.099,103.287 161.266,103.62 163.5,103.5C 163.12,105.698 163.787,107.365 165.5,108.5C 166.134,111.999 167.967,112.999 171,111.5C 171.626,109.287 171.459,107.12 170.5,105C 169.354,104.241 168.354,103.574 167.5,103C 167.905,102.055 168.572,101.388 169.5,101C 168.62,99.6439 168.286,98.1439 168.5,96.5 Z"/></g>
<g><path style="opacity:1" fill="#8f80e9" d="M 152.5,97.5 C 153.167,97.5 153.833,97.5 154.5,97.5C 158.353,98.1743 161.853,99.8409 165,102.5C 165.495,104.473 165.662,106.473 165.5,108.5C 163.787,107.365 163.12,105.698 163.5,103.5C 161.266,103.62 159.099,103.287 157,102.5C 155.907,104.298 154.407,105.132 152.5,105C 153.45,102.568 153.45,100.068 152.5,97.5 Z"/></g>
<g><path style="opacity:1" fill="#d5d3d5" d="M 201.5,121.5 C 202.391,122.11 203.391,122.443 204.5,122.5C 204.5,123.167 204.833,123.5 205.5,123.5C 208.433,125.645 211.433,127.812 214.5,130C 215.823,130.816 216.489,131.983 216.5,133.5C 211.264,131.64 206.431,128.973 202,125.5C 201.601,125.728 201.435,126.062 201.5,126.5C 199.37,124.873 197.37,123.04 195.5,121C 197.488,120.82 199.488,120.986 201.5,121.5 Z"/></g>
<g><path style="opacity:1" fill="#3d3227" d="M 205.5,123.5 C 210.575,124.038 215.241,125.705 219.5,128.5C 222.122,129.033 224.622,130.033 227,131.5C 227.008,133.821 226.175,135.821 224.5,137.5C 225.263,133.862 223.93,132.362 220.5,133C 219.874,133.75 219.374,134.584 219,135.5C 218.292,134.619 217.458,133.953 216.5,133.5C 216.489,131.983 215.823,130.816 214.5,130C 211.433,127.812 208.433,125.645 205.5,123.5 Z"/></g>
<g><path style="opacity:1" fill="#301c04" d="M 255.5,112.5 C 255.5,113.167 255.5,113.833 255.5,114.5C 248.259,118.143 244.926,124.143 245.5,132.5C 245.754,136.256 246.421,139.923 247.5,143.5C 244.5,143.5 241.5,143.5 238.5,143.5C 236.758,138.692 236.091,133.692 236.5,128.5C 236.838,126.146 237.338,123.813 238,121.5C 241.115,119.353 243.948,116.853 246.5,114C 249.478,113.304 252.478,112.804 255.5,112.5 Z"/></g>
<g><path style="opacity:1" fill="#3b3c77" d="M 178.5,133.5 C 177.85,133.196 177.183,132.863 176.5,132.5C 175.811,134.338 175.478,136.005 175.5,137.5C 174.148,136.482 173.148,135.149 172.5,133.5C 171.548,135.045 171.215,136.712 171.5,138.5C 170.5,138.5 169.5,138.5 168.5,138.5C 168.5,137.5 168.5,136.5 168.5,135.5C 166.037,135.219 163.87,134.219 162,132.5C 161.617,133.056 161.117,133.389 160.5,133.5C 160.416,130.673 159.75,128.006 158.5,125.5C 158.435,125.062 158.601,124.728 159,124.5C 159.308,125.308 159.808,125.975 160.5,126.5C 161.487,118.646 162.654,118.646 164,126.5C 165.269,125.095 165.769,123.429 165.5,121.5C 167.124,121.64 168.29,120.973 169,119.5C 170.016,120.634 170.683,120.301 171,118.5C 174.586,123.006 177.086,128.006 178.5,133.5 Z"/></g>
<g><path style="opacity:1" fill="#614e4e" d="M 201.5,121.5 C 199.488,120.986 197.488,120.82 195.5,121C 197.37,123.04 199.37,124.873 201.5,126.5C 203.592,129.681 205.925,132.681 208.5,135.5C 208.565,135.938 208.399,136.272 208,136.5C 207.196,135.196 206.029,134.529 204.5,134.5C 202.091,134.915 199.758,135.582 197.5,136.5C 200.947,142.616 205.947,144.282 212.5,141.5C 213.5,141.833 214.167,142.5 214.5,143.5C 210.167,143.5 205.833,143.5 201.5,143.5C 200.365,141.787 198.698,141.12 196.5,141.5C 195.243,138.573 193.243,136.239 190.5,134.5C 187.558,132.221 185.891,129.221 185.5,125.5C 184.986,123.488 184.82,121.488 185,119.5C 185.333,119.833 185.667,120.167 186,120.5C 187.18,119.316 188.68,118.649 190.5,118.5C 194.535,118.631 198.202,119.631 201.5,121.5 Z"/></g>
<g><path style="opacity:1" fill="#211c13" d="M 236.5,128.5 C 236.091,133.692 236.758,138.692 238.5,143.5C 233.5,143.5 228.5,143.5 223.5,143.5C 223.517,141.435 223.85,139.435 224.5,137.5C 226.175,135.821 227.008,133.821 227,131.5C 224.622,130.033 222.122,129.033 219.5,128.5C 221.604,128.799 223.604,128.466 225.5,127.5C 226.035,125.739 227.035,124.406 228.5,123.5C 229.189,124.774 230.023,124.774 231,123.5C 231.253,126.2 231.253,128.867 231,131.5C 232.246,128.639 233.246,125.639 234,122.5C 234.273,124.101 234.773,125.601 235.5,127C 234.288,128.107 234.621,128.607 236.5,128.5 Z"/></g>
<g><path style="opacity:1" fill="#ededf1" d="M 216.5,133.5 C 218.075,137.078 220.075,140.411 222.5,143.5C 219.833,143.5 217.167,143.5 214.5,143.5C 214.167,142.5 213.5,141.833 212.5,141.5C 211.551,139.223 210.218,137.223 208.5,135.5C 205.925,132.681 203.592,129.681 201.5,126.5C 201.435,126.062 201.601,125.728 202,125.5C 206.431,128.973 211.264,131.64 216.5,133.5 Z"/></g>
<g><path style="opacity:1" fill="#1c160b" d="M 255.5,114.5 C 255.5,124.167 255.5,133.833 255.5,143.5C 252.833,143.5 250.167,143.5 247.5,143.5C 246.421,139.923 245.754,136.256 245.5,132.5C 244.926,124.143 248.259,118.143 255.5,114.5 Z"/></g>
<g><path style="opacity:1" fill="#0a0907" d="M 95.5,106.5 C 101.078,109.615 107.078,111.615 113.5,112.5C 113.34,114.199 113.506,115.866 114,117.5C 117.763,119.904 121.263,122.571 124.5,125.5C 124.842,126.338 125.508,126.672 126.5,126.5C 129.247,129.207 132.58,130.873 136.5,131.5C 137.552,131.351 138.552,131.517 139.5,132C 141.017,133.685 142.684,135.185 144.5,136.5C 145.386,135.675 145.719,134.675 145.5,133.5C 146.117,133.389 146.617,133.056 147,132.5C 147.872,136.181 149.706,139.181 152.5,141.5C 155.113,142.993 157.113,142.326 158.5,139.5C 159.441,137.95 160.107,136.284 160.5,134.5C 162.938,136.267 165.605,137.601 168.5,138.5C 170.657,140.412 172.991,142.079 175.5,143.5C 150.833,143.5 126.167,143.5 101.5,143.5C 101.666,139.154 101.499,134.821 101,130.5C 98.3137,129.148 96.8137,126.982 96.5,124C 98.2549,118.356 97.5882,113.023 94.5,108C 94.5699,107.235 94.9033,106.735 95.5,106.5 Z"/></g>
<g><path style="opacity:1" fill="#1c1719" d="M 185.5,125.5 C 185.891,129.221 187.558,132.221 190.5,134.5C 189.475,134.897 189.308,135.563 190,136.5C 192,138.5 194,140.5 196,142.5C 196.399,142.272 196.565,141.938 196.5,141.5C 198.698,141.12 200.365,141.787 201.5,143.5C 197.167,143.5 192.833,143.5 188.5,143.5C 187.492,141.456 186.492,139.456 185.5,137.5C 184.1,134.402 182.1,131.735 179.5,129.5C 180.309,127.929 180.643,126.262 180.5,124.5C 180.56,123.957 180.893,123.624 181.5,123.5C 182.86,124.18 184.193,124.847 185.5,125.5 Z"/></g>
<g><path style="opacity:1" fill="#3b2f25" d="M 55.5,143.5 C 40.5,143.5 25.5,143.5 10.5,143.5C 10.7438,140.737 12.0771,138.571 14.5,137C 18.7789,135.527 22.7789,133.527 26.5,131C 33.2464,128.797 39.5798,129.631 45.5,133.5C 46.451,132.674 47.451,132.508 48.5,133C 53.0672,135.058 55.4005,138.558 55.5,143.5 Z"/></g>
<g><path style="opacity:1" fill="#1d2341" d="M 150.5,130.5 C 151.167,131.5 151.833,132.5 152.5,133.5C 152.5,136.167 152.5,138.833 152.5,141.5C 149.706,139.181 147.872,136.181 147,132.5C 146.617,133.056 146.117,133.389 145.5,133.5C 145.5,132.5 145.5,131.5 145.5,130.5C 147.167,130.5 148.833,130.5 150.5,130.5 Z"/></g>
<g><path style="opacity:1" fill="#1d2241" d="M 168.5,138.5 C 165.605,137.601 162.938,136.267 160.5,134.5C 160.5,134.167 160.5,133.833 160.5,133.5C 161.117,133.389 161.617,133.056 162,132.5C 163.87,134.219 166.037,135.219 168.5,135.5C 168.5,136.5 168.5,137.5 168.5,138.5 Z"/></g>
<g><path style="opacity:1" fill="#393d77" d="M 152.5,133.5 C 153.473,135.948 153.806,138.615 153.5,141.5C 155.322,141.169 156.989,140.502 158.5,139.5C 157.113,142.326 155.113,142.993 152.5,141.5C 152.5,138.833 152.5,136.167 152.5,133.5 Z"/></g>
<g><path style="opacity:1" fill="#806b6b" d="M 208.5,135.5 C 210.218,137.223 211.551,139.223 212.5,141.5C 205.947,144.282 200.947,142.616 197.5,136.5C 199.758,135.582 202.091,134.915 204.5,134.5C 206.029,134.529 207.196,135.196 208,136.5C 208.399,136.272 208.565,135.938 208.5,135.5 Z"/></g>
<g><path style="opacity:1" fill="#2b2c4e" d="M 178.5,133.5 C 180.489,135.99 182.656,138.323 185,140.5C 185.483,139.552 185.649,138.552 185.5,137.5C 186.492,139.456 187.492,141.456 188.5,143.5C 184.167,143.5 179.833,143.5 175.5,143.5C 172.991,142.079 170.657,140.412 168.5,138.5C 169.5,138.5 170.5,138.5 171.5,138.5C 171.215,136.712 171.548,135.045 172.5,133.5C 173.148,135.149 174.148,136.482 175.5,137.5C 175.478,136.005 175.811,134.338 176.5,132.5C 177.183,132.863 177.85,133.196 178.5,133.5 Z"/></g>
<g><path style="opacity:1" fill="#726f69" d="M 224.5,137.5 C 223.85,139.435 223.517,141.435 223.5,143.5C 223.167,143.5 222.833,143.5 222.5,143.5C 220.075,140.411 218.075,137.078 216.5,133.5C 217.458,133.953 218.292,134.619 219,135.5C 219.374,134.584 219.874,133.75 220.5,133C 223.93,132.362 225.263,133.862 224.5,137.5 Z"/></g>
<g><path style="opacity:1" fill="#423e67" d="M 190.5,134.5 C 193.243,136.239 195.243,138.573 196.5,141.5C 196.565,141.938 196.399,142.272 196,142.5C 194,140.5 192,138.5 190,136.5C 189.308,135.563 189.475,134.897 190.5,134.5 Z"/></g>
</svg>
