<?xml version="1.0" encoding="UTF-8"?>
<!DOCTYPE svg PUBLIC "-//W3C//DTD SVG 1.1//EN" "http://www.w3.org/Graphics/SVG/1.1/DTD/svg11.dtd">
<svg xmlns="http://www.w3.org/2000/svg" version="1.1" width="256px" height="144px" style="shape-rendering:geometricPrecision; text-rendering:geometricPrecision; image-rendering:optimizeQuality; fill-rule:evenodd; clip-rule:evenodd" xmlns:xlink="http://www.w3.org/1999/xlink">
<g><path style="opacity:1" fill="#b8bfca" d="M 105.5,-0.5 C 118.167,-0.5 130.833,-0.5 143.5,-0.5C 143.414,0.495904 143.748,1.32924 144.5,2C 148.214,3.05107 151.047,5.21773 153,8.5C 154.516,5.94854 155.349,6.28187 155.5,9.5C 157.592,9.56138 159.092,10.5614 160,12.5C 160.333,11.8333 160.667,11.1667 161,10.5C 161.368,11.91 162.201,12.91 163.5,13.5C 163.755,11.6565 163.922,9.65652 164,7.5C 165.444,5.84464 167.278,5.17798 169.5,5.5C 169.003,10.4127 170.003,14.9127 172.5,19C 172.167,19.3333 171.833,19.6667 171.5,20C 173.597,21.6104 175.93,22.7771 178.5,23.5C 181.234,26.9795 184.401,29.9795 188,32.5C 188.471,34.2464 189.138,35.913 190,37.5C 192.613,39.3695 194.779,41.7028 196.5,44.5C 197.325,45.3857 198.325,45.719 199.5,45.5C 199.714,47.1439 199.38,48.6439 198.5,50C 201.112,55.9941 203.445,62.1608 205.5,68.5C 205.379,69.8945 205.046,71.2278 204.5,72.5C 207.394,77.5692 210.894,82.2359 215,86.5C 215.333,87.5 215.667,88.5 216,89.5C 219.104,87.741 222.271,86.0743 225.5,84.5C 225.833,84.8333 226.167,85.1667 226.5,85.5C 224.642,87.5241 222.975,89.6908 221.5,92C 224.521,96.0176 227.854,99.6843 231.5,103C 230.833,103.333 230.167,103.667 229.5,104C 231.359,104.684 233.026,105.684 234.5,107C 233.978,107.561 233.645,108.228 233.5,109C 235.279,111.943 235.945,114.943 235.5,118C 233.893,119.049 233.227,120.549 233.5,122.5C 235.592,122.439 237.092,121.439 238,119.5C 240.67,120.224 242.17,121.891 242.5,124.5C 237.765,124.12 233.932,126.12 231,130.5C 231.538,134.167 232.705,137.667 234.5,141C 234.272,141.399 233.938,141.565 233.5,141.5C 230.194,140.18 227.194,138.347 224.5,136C 226.432,135.862 228.266,136.362 230,137.5C 230.167,137 230.333,136.5 230.5,136C 229.079,131.084 226.079,127.584 221.5,125.5C 221.465,123.557 221.798,121.557 222.5,119.5C 224.35,118.758 225.016,117.758 224.5,116.5C 222.745,115.208 220.745,114.208 218.5,113.5C 219.949,112.828 221.282,112.161 222.5,111.5C 221.745,109.534 220.579,109.2 219,110.5C 215.398,108.948 211.898,107.281 208.5,105.5C 205.843,105.065 203.509,104.065 201.5,102.5C 204.197,100.031 203.531,98.5308 199.5,98C 203.24,97.9218 206.907,98.2552 210.5,99C 208.845,97.5557 208.178,95.7224 208.5,93.5C 206.833,93.5 205.167,93.5 203.5,93.5C 202.77,92.2876 201.77,91.2876 200.5,90.5C 200.833,89.8333 201.167,89.1667 201.5,88.5C 199.461,85.179 197.794,81.679 196.5,78C 198.211,76.8668 198.711,75.3668 198,73.5C 196.691,75.8912 195.691,75.8912 195,73.5C 191.991,67.1492 189.991,60.4825 189,53.5C 187.989,54.3366 186.822,54.67 185.5,54.5C 184.378,51.021 182.378,48.021 179.5,45.5C 178.804,42.4436 177.97,39.4436 177,36.5C 176.333,37.8333 175.667,39.1667 175,40.5C 169.515,35.6596 163.682,31.1596 157.5,27C 153.153,25.8324 148.82,24.6657 144.5,23.5C 144.5,21.5 144.5,19.5 144.5,17.5C 143.214,14.883 141.547,12.5496 139.5,10.5C 139.762,12.1322 138.762,13.2988 136.5,14C 137.337,15.0113 137.67,16.1779 137.5,17.5C 135.5,17.5 133.5,17.5 131.5,17.5C 131.39,14.8989 131.057,12.2322 130.5,9.5C 128.192,9.0345 126.858,7.70117 126.5,5.5C 128.179,5.10767 129.846,4.60767 131.5,4C 125.507,4.13185 119.507,4.13185 113.5,4C 110.566,3.0512 107.899,1.5512 105.5,-0.5 Z"/></g>
<g><path style="opacity:1" fill="#a7b0be" d="M 168.5,-0.5 C 197.5,-0.5 226.5,-0.5 255.5,-0.5C 255.5,5.83333 255.5,12.1667 255.5,18.5C 251.209,17.545 247.209,17.545 243.5,18.5C 239.5,20.8333 235.5,23.1667 231.5,25.5C 227.373,30.5022 224.207,36.1689 222,42.5C 221.467,45.5465 221.633,48.3798 222.5,51C 218.346,54.9692 219.013,56.8025 224.5,56.5C 223.833,57.8333 223.167,59.1667 222.5,60.5C 223.342,64.161 224.842,67.4944 227,70.5C 229.588,71.5841 231.755,73.2507 233.5,75.5C 239.038,72.5278 240.871,74.1945 239,80.5C 239.833,81.5 240.667,82.5 241.5,83.5C 245.685,84.258 249.685,85.5913 253.5,87.5C 254.183,87.1373 254.85,86.8039 255.5,86.5C 255.5,90.1667 255.5,93.8333 255.5,97.5C 252.984,97.2447 250.65,96.4114 248.5,95C 249.861,93.4157 250.528,91.5824 250.5,89.5C 248.071,89.585 246.071,90.585 244.5,92.5C 243.281,91.7366 242.281,90.7366 241.5,89.5C 240.914,89.7093 240.414,90.0426 240,90.5C 236.123,87.6791 234.123,84.0125 234,79.5C 234.5,79 235,78.5 235.5,78C 232.563,78.6232 229.563,78.9565 226.5,79C 222.367,75.8689 218.534,72.3689 215,68.5C 213.842,63.3604 212.008,58.5271 209.5,54C 210.669,51.9935 211.335,49.8268 211.5,47.5C 204.431,48.8615 203.097,46.6948 207.5,41C 205.331,40.5706 203.331,41.0706 201.5,42.5C 199.762,39.7678 197.762,37.2678 195.5,35C 196.423,32.9592 196.756,30.7925 196.5,28.5C 194.856,28.2865 193.356,28.6198 192,29.5C 191.086,27.3359 189.919,25.3359 188.5,23.5C 185.496,21.6608 182.996,19.3274 181,16.5C 180.107,17.7112 179.274,17.7112 178.5,16.5C 177.652,14.5914 177.318,12.5914 177.5,10.5C 175.712,10.7852 174.045,10.4519 172.5,9.5C 170.591,6.3562 169.258,3.02287 168.5,-0.5 Z"/></g>
<g><path style="opacity:1" fill="#c5ccd5" d="M -0.5,-0.5 C 9.16667,-0.5 18.8333,-0.5 28.5,-0.5C 30.7917,0.339508 33.125,1.33951 35.5,2.5C 36.154,4.11511 36.654,5.78178 37,7.5C 38.1455,6.3157 39.3121,6.3157 40.5,7.5C 40.5,7.83333 40.5,8.16667 40.5,8.5C 37.8127,8.33591 35.146,8.50258 32.5,9C 31.5842,9.27842 30.9175,9.77842 30.5,10.5C 27.2664,10.9293 24.2664,11.9293 21.5,13.5C 17.8405,13.1588 14.5072,13.8255 11.5,15.5C 10.0413,15.4326 8.70792,15.7659 7.5,16.5C 4.90391,17.2653 2.23725,17.5987 -0.5,17.5C -0.5,11.5 -0.5,5.5 -0.5,-0.5 Z"/></g>
<g><path style="opacity:1" fill="#a48b6e" d="M 87.5,-0.5 C 91.8333,-0.5 96.1667,-0.5 100.5,-0.5C 105.461,3.12561 110.128,7.12561 114.5,11.5C 112.244,12.9232 109.744,13.5899 107,13.5C 99.5226,12.6679 92.0226,12.3346 84.5,12.5C 83.9634,7.72822 84.9634,3.39489 87.5,-0.5 Z"/></g>
<g><path style="opacity:1" fill="#a8a2a0" d="M 52.5,-0.5 C 55.5,-0.5 58.5,-0.5 61.5,-0.5C 65.4229,3.39271 69.4229,3.39271 73.5,-0.5C 76.5,-0.5 79.5,-0.5 82.5,-0.5C 82.5858,0.495904 82.2524,1.32924 81.5,2C 77.2037,2.96402 72.8704,3.79736 68.5,4.5C 68.8627,5.18346 69.1961,5.85013 69.5,6.5C 66.5687,5.9943 63.7354,5.9943 61,6.5C 57.6463,4.63231 54.8129,2.29898 52.5,-0.5 Z"/></g>
<g><path style="opacity:1" fill="#59636c" d="M 61.5,-0.5 C 65.5,-0.5 69.5,-0.5 73.5,-0.5C 69.4229,3.39271 65.4229,3.39271 61.5,-0.5 Z"/></g>
<g><path style="opacity:1" fill="#c5c7cc" d="M 100.5,-0.5 C 102.167,-0.5 103.833,-0.5 105.5,-0.5C 107.899,1.5512 110.566,3.0512 113.5,4C 119.507,4.13185 125.507,4.13185 131.5,4C 129.846,4.60767 128.179,5.10767 126.5,5.5C 122.774,5.17744 119.107,5.51078 115.5,6.5C 116.188,7.85493 117.188,8.85493 118.5,9.5C 120.167,12.1667 121.833,14.8333 123.5,17.5C 124.323,19.9872 125.323,22.3206 126.5,24.5C 127.81,26.1477 129.143,27.8144 130.5,29.5C 131.183,29.1373 131.85,28.8039 132.5,28.5C 131.62,30.3888 131.62,32.3888 132.5,34.5C 130.382,32.9765 128.382,31.3099 126.5,29.5C 125.341,27.7497 123.674,26.7497 121.5,26.5C 119.071,25.4488 116.738,24.1155 114.5,22.5C 115.979,21.4936 117.646,21.4936 119.5,22.5C 121.418,22.1386 121.751,21.472 120.5,20.5C 118.735,17.2911 116.735,14.2911 114.5,11.5C 110.128,7.12561 105.461,3.12561 100.5,-0.5 Z"/></g>
<g><path style="opacity:1" fill="#afb8c4" d="M 143.5,-0.5 C 151.833,-0.5 160.167,-0.5 168.5,-0.5C 169.258,3.02287 170.591,6.3562 172.5,9.5C 174.045,10.4519 175.712,10.7852 177.5,10.5C 177.318,12.5914 177.652,14.5914 178.5,16.5C 179.274,17.7112 180.107,17.7112 181,16.5C 182.996,19.3274 185.496,21.6608 188.5,23.5C 189.919,25.3359 191.086,27.3359 192,29.5C 193.356,28.6198 194.856,28.2865 196.5,28.5C 196.756,30.7925 196.423,32.9592 195.5,35C 197.762,37.2678 199.762,39.7678 201.5,42.5C 203.331,41.0706 205.331,40.5706 207.5,41C 203.097,46.6948 204.431,48.8615 211.5,47.5C 211.335,49.8268 210.669,51.9935 209.5,54C 212.008,58.5271 213.842,63.3604 215,68.5C 218.534,72.3689 222.367,75.8689 226.5,79C 229.563,78.9565 232.563,78.6232 235.5,78C 235,78.5 234.5,79 234,79.5C 234.123,84.0125 236.123,87.6791 240,90.5C 240.414,90.0426 240.914,89.7093 241.5,89.5C 242.281,90.7366 243.281,91.7366 244.5,92.5C 246.071,90.585 248.071,89.585 250.5,89.5C 250.528,91.5824 249.861,93.4157 248.5,95C 250.65,96.4114 252.984,97.2447 255.5,97.5C 255.5,112.833 255.5,128.167 255.5,143.5C 248.5,143.5 241.5,143.5 234.5,143.5C 234.167,142.833 233.833,142.167 233.5,141.5C 233.938,141.565 234.272,141.399 234.5,141C 232.705,137.667 231.538,134.167 231,130.5C 233.932,126.12 237.765,124.12 242.5,124.5C 242.17,121.891 240.67,120.224 238,119.5C 237.092,121.439 235.592,122.439 233.5,122.5C 233.227,120.549 233.893,119.049 235.5,118C 235.945,114.943 235.279,111.943 233.5,109C 233.645,108.228 233.978,107.561 234.5,107C 233.026,105.684 231.359,104.684 229.5,104C 230.167,103.667 230.833,103.333 231.5,103C 227.854,99.6843 224.521,96.0176 221.5,92C 222.975,89.6908 224.642,87.5241 226.5,85.5C 226.167,85.1667 225.833,84.8333 225.5,84.5C 222.271,86.0743 219.104,87.741 216,89.5C 215.667,88.5 215.333,87.5 215,86.5C 210.894,82.2359 207.394,77.5692 204.5,72.5C 205.046,71.2278 205.379,69.8945 205.5,68.5C 203.445,62.1608 201.112,55.9941 198.5,50C 199.38,48.6439 199.714,47.1439 199.5,45.5C 198.325,45.719 197.325,45.3857 196.5,44.5C 194.779,41.7028 192.613,39.3695 190,37.5C 189.138,35.913 188.471,34.2464 188,32.5C 184.401,29.9795 181.234,26.9795 178.5,23.5C 175.93,22.7771 173.597,21.6104 171.5,20C 171.833,19.6667 172.167,19.3333 172.5,19C 170.003,14.9127 169.003,10.4127 169.5,5.5C 167.278,5.17798 165.444,5.84464 164,7.5C 163.922,9.65652 163.755,11.6565 163.5,13.5C 162.201,12.91 161.368,11.91 161,10.5C 160.667,11.1667 160.333,11.8333 160,12.5C 159.092,10.5614 157.592,9.56138 155.5,9.5C 155.349,6.28187 154.516,5.94854 153,8.5C 151.047,5.21773 148.214,3.05107 144.5,2C 143.748,1.32924 143.414,0.495904 143.5,-0.5 Z"/></g>
<g><path style="opacity:1" fill="#3f424a" d="M 28.5,-0.5 C 32.5,-0.5 36.5,-0.5 40.5,-0.5C 39.6765,1.45464 39.5099,3.45464 40,5.5C 42.4488,5.51344 44.9488,5.34677 47.5,5C 44.7777,8.61435 45.6111,9.78102 50,8.5C 50.4828,9.44802 50.6495,10.448 50.5,11.5C 49.9033,11.7352 49.5699,12.2352 49.5,13C 50.1271,15.1351 50.6271,17.3018 51,19.5C 51.8159,20.8228 52.9826,21.4894 54.5,21.5C 51.8252,22.1029 49.4918,23.4362 47.5,25.5C 47.7148,23.8212 47.0481,22.8212 45.5,22.5C 46.3653,19.9 47.032,17.2334 47.5,14.5C 47.6598,12.6455 46.9931,11.3121 45.5,10.5C 44.5994,8.2729 42.9328,7.2729 40.5,7.5C 39.3121,6.3157 38.1455,6.3157 37,7.5C 36.654,5.78178 36.154,4.11511 35.5,2.5C 33.125,1.33951 30.7917,0.339508 28.5,-0.5 Z"/></g>
<g><path style="opacity:1" fill="#9d9fa5" d="M 126.5,5.5 C 126.858,7.70117 128.192,9.0345 130.5,9.5C 131.057,12.2322 131.39,14.8989 131.5,17.5C 130.833,17.5 130.167,17.5 129.5,17.5C 129.167,15.5 128.833,13.5 128.5,11.5C 128.389,10.8826 128.056,10.3826 127.5,10C 125.153,9.56387 122.819,9.06387 120.5,8.5C 119.584,8.54272 118.917,8.87605 118.5,9.5C 117.188,8.85493 116.188,7.85493 115.5,6.5C 119.107,5.51078 122.774,5.17744 126.5,5.5 Z"/></g>
<g><path style="opacity:1" fill="#727379" d="M 40.5,-0.5 C 44.5,-0.5 48.5,-0.5 52.5,-0.5C 54.8129,2.29898 57.6463,4.63231 61,6.5C 63.7354,5.9943 66.5687,5.9943 69.5,6.5C 68.8902,7.39105 68.5569,8.39105 68.5,9.5C 64.653,9.38081 60.9863,10.0475 57.5,11.5C 57.5,12.8333 57.5,14.1667 57.5,15.5C 55.8333,15.5 54.1667,15.5 52.5,15.5C 51.6554,14.3285 50.9887,12.9952 50.5,11.5C 50.6495,10.448 50.4828,9.44802 50,8.5C 45.6111,9.78102 44.7777,8.61435 47.5,5C 44.9488,5.34677 42.4488,5.51344 40,5.5C 39.5099,3.45464 39.6765,1.45464 40.5,-0.5 Z"/></g>
<g><path style="opacity:1" fill="#4f5258" d="M 68.5,9.5 C 68.4894,11.0174 67.8228,12.1841 66.5,13C 64.221,13.4728 62.221,14.4728 60.5,16C 57.633,16.8007 54.9664,16.6341 52.5,15.5C 54.1667,15.5 55.8333,15.5 57.5,15.5C 57.5,14.1667 57.5,12.8333 57.5,11.5C 60.9863,10.0475 64.653,9.38081 68.5,9.5 Z"/></g>
<g><path style="opacity:1" fill="#212a33" d="M 128.5,11.5 C 127.308,13.8783 125.641,15.8783 123.5,17.5C 121.833,14.8333 120.167,12.1667 118.5,9.5C 118.917,8.87605 119.584,8.54272 120.5,8.5C 122.819,9.06387 125.153,9.56387 127.5,10C 128.056,10.3826 128.389,10.8826 128.5,11.5 Z"/></g>
<g><path style="opacity:1" fill="#97979d" d="M 40.5,8.5 C 40.5,8.16667 40.5,7.83333 40.5,7.5C 42.9328,7.2729 44.5994,8.2729 45.5,10.5C 43.1823,12.9558 40.1823,14.2891 36.5,14.5C 37.8121,12.5212 39.4788,10.8545 41.5,9.5C 41.3764,8.89333 41.0431,8.55999 40.5,8.5 Z"/></g>
<g><path style="opacity:1" fill="#64646f" d="M 21.5,13.5 C 24.5244,15.0134 27.1911,17.0134 29.5,19.5C 27.1602,18.914 24.9935,17.914 23,16.5C 22.196,17.8045 21.0293,18.4712 19.5,18.5C 17.0559,16.9462 14.3892,15.9462 11.5,15.5C 14.5072,13.8255 17.8405,13.1588 21.5,13.5 Z"/></g>
<g><path style="opacity:1" fill="#636e71" d="M 40.5,8.5 C 41.0431,8.55999 41.3764,8.89333 41.5,9.5C 39.4788,10.8545 37.8121,12.5212 36.5,14.5C 32.9516,17.2556 29.6182,17.0889 26.5,14C 27.5719,12.7163 28.9052,12.3829 30.5,13C 31.5981,12.2303 31.5981,11.397 30.5,10.5C 30.9175,9.77842 31.5842,9.27842 32.5,9C 35.146,8.50258 37.8127,8.33591 40.5,8.5 Z"/></g>
<g><path style="opacity:1" fill="#a8a5aa" d="M 144.5,17.5 C 142.393,18.3004 140.226,18.9671 138,19.5C 135.863,18.9233 133.696,18.59 131.5,18.5C 131.5,18.1667 131.5,17.8333 131.5,17.5C 133.5,17.5 135.5,17.5 137.5,17.5C 137.67,16.1779 137.337,15.0113 136.5,14C 138.762,13.2988 139.762,12.1322 139.5,10.5C 141.547,12.5496 143.214,14.883 144.5,17.5 Z"/></g>
<g><path style="opacity:1" fill="#806f5b" d="M 85.5,-0.5 C 86.1667,-0.5 86.8333,-0.5 87.5,-0.5C 84.9634,3.39489 83.9634,7.72822 84.5,12.5C 92.0226,12.3346 99.5226,12.6679 107,13.5C 109.744,13.5899 112.244,12.9232 114.5,11.5C 116.735,14.2911 118.735,17.2911 120.5,20.5C 111.178,19.0665 101.845,17.5665 92.5,16C 88.7745,15.2401 85.1078,15.4068 81.5,16.5C 77.7138,12.6747 77.5472,8.67467 81,4.5C 82.7073,2.96252 84.2073,1.29585 85.5,-0.5 Z"/></g>
<g><path style="opacity:1" fill="#5f5f6a" d="M 45.5,10.5 C 46.9931,11.3121 47.6598,12.6455 47.5,14.5C 47.032,17.2334 46.3653,19.9 45.5,22.5C 44.8333,22.8333 44.1667,23.1667 43.5,23.5C 40.8384,23.1629 38.1718,22.8295 35.5,22.5C 37.4205,20.1824 37.7539,17.5158 36.5,14.5C 40.1823,14.2891 43.1823,12.9558 45.5,10.5 Z"/></g>
<g><path style="opacity:1" fill="#0e161d" d="M 75.5,18.5 C 73.5,18.5 71.5,18.5 69.5,18.5C 64.8485,18.6268 60.5152,19.6268 56.5,21.5C 55.8333,21.5 55.1667,21.5 54.5,21.5C 52.9826,21.4894 51.8159,20.8228 51,19.5C 50.6271,17.3018 50.1271,15.1351 49.5,13C 49.5699,12.2352 49.9033,11.7352 50.5,11.5C 50.9887,12.9952 51.6554,14.3285 52.5,15.5C 54.9664,16.6341 57.633,16.8007 60.5,16C 62.221,14.4728 64.221,13.4728 66.5,13C 67.8228,12.1841 68.4894,11.0174 68.5,9.5C 69.5754,8.43764 70.5754,8.43764 71.5,9.5C 73.12,12.4037 74.4533,15.4037 75.5,18.5 Z"/></g>
<g><path style="opacity:1" fill="#645c51" d="M 82.5,-0.5 C 83.5,-0.5 84.5,-0.5 85.5,-0.5C 84.2073,1.29585 82.7073,2.96252 81,4.5C 77.5472,8.67467 77.7138,12.6747 81.5,16.5C 85.1078,15.4068 88.7745,15.2401 92.5,16C 101.845,17.5665 111.178,19.0665 120.5,20.5C 121.751,21.472 121.418,22.1386 119.5,22.5C 117.646,21.4936 115.979,21.4936 114.5,22.5C 101.736,19.4904 88.7361,18.1571 75.5,18.5C 74.4533,15.4037 73.12,12.4037 71.5,9.5C 70.5754,8.43764 69.5754,8.43764 68.5,9.5C 68.5569,8.39105 68.8902,7.39105 69.5,6.5C 69.1961,5.85013 68.8627,5.18346 68.5,4.5C 72.8704,3.79736 77.2037,2.96402 81.5,2C 82.2524,1.32924 82.5858,0.495904 82.5,-0.5 Z"/></g>
<g><path style="opacity:1" fill="#929296" d="M 30.5,10.5 C 31.5981,11.397 31.5981,12.2303 30.5,13C 28.9052,12.3829 27.5719,12.7163 26.5,14C 29.6182,17.0889 32.9516,17.2556 36.5,14.5C 37.7539,17.5158 37.4205,20.1824 35.5,22.5C 33.0532,22.385 31.0532,21.385 29.5,19.5C 27.1911,17.0134 24.5244,15.0134 21.5,13.5C 24.2664,11.9293 27.2664,10.9293 30.5,10.5 Z"/></g>
<g><path style="opacity:1" fill="#646465" d="M 128.5,11.5 C 128.833,13.5 129.167,15.5 129.5,17.5C 128.695,19.9154 127.695,22.2487 126.5,24.5C 125.323,22.3206 124.323,19.9872 123.5,17.5C 125.641,15.8783 127.308,13.8783 128.5,11.5 Z"/></g>
<g><path style="opacity:1" fill="#5d5e64" d="M 144.5,17.5 C 144.5,19.5 144.5,21.5 144.5,23.5C 143.415,26.1041 142.082,28.4374 140.5,30.5C 138.216,30.0248 136.216,29.0248 134.5,27.5C 135.768,26.213 135.435,25.213 133.5,24.5C 132.253,22.677 131.586,20.677 131.5,18.5C 133.696,18.59 135.863,18.9233 138,19.5C 140.226,18.9671 142.393,18.3004 144.5,17.5 Z"/></g>
<g><path style="opacity:1" fill="#2a404d" d="M 69.5,18.5 C 71.5,18.5 73.5,18.5 75.5,18.5C 88.7361,18.1571 101.736,19.4904 114.5,22.5C 116.738,24.1155 119.071,25.4488 121.5,26.5C 116.938,26.519 112.604,25.6857 108.5,24C 95.1708,23.5001 81.8375,23.3334 68.5,23.5C 68.366,21.7085 68.6993,20.0418 69.5,18.5 Z"/></g>
<g><path style="opacity:1" fill="#6e6d78" d="M 7.5,16.5 C 7.70311,18.0443 8.36977,19.3777 9.5,20.5C 9.29069,21.086 8.95735,21.586 8.5,22C 5.51838,22.498 2.51838,22.6646 -0.5,22.5C -0.5,20.8333 -0.5,19.1667 -0.5,17.5C 2.23725,17.5987 4.90391,17.2653 7.5,16.5 Z"/></g>
<g><path style="opacity:1" fill="#c5ccd5" d="M 144.5,23.5 C 148.82,24.6657 153.153,25.8324 157.5,27C 163.682,31.1596 169.515,35.6596 175,40.5C 175.667,39.1667 176.333,37.8333 177,36.5C 177.97,39.4436 178.804,42.4436 179.5,45.5C 182.378,48.021 184.378,51.021 185.5,54.5C 186.822,54.67 187.989,54.3366 189,53.5C 189.991,60.4825 191.991,67.1492 195,73.5C 195.691,75.8912 196.691,75.8912 198,73.5C 198.711,75.3668 198.211,76.8668 196.5,78C 197.794,81.679 199.461,85.179 201.5,88.5C 201.167,89.1667 200.833,89.8333 200.5,90.5C 201.77,91.2876 202.77,92.2876 203.5,93.5C 198.786,94.688 194.12,94.3546 189.5,92.5C 189.5,91.8333 189.167,91.5 188.5,91.5C 187.2,88.5677 185.2,86.2344 182.5,84.5C 182.649,83.448 182.483,82.448 182,81.5C 179.232,80.7924 178.399,79.2924 179.5,77C 177.19,76.5034 174.857,76.3367 172.5,76.5C 171.5,76.1667 170.833,75.5 170.5,74.5C 180.138,74.5479 182.472,70.5479 177.5,62.5C 173.861,58.338 170.194,54.1713 166.5,50C 167.38,48.6439 167.714,47.1439 167.5,45.5C 165.738,45.3573 164.071,45.6906 162.5,46.5C 154.999,40.9127 146.999,36.0793 138.5,32C 139.416,31.7216 140.082,31.2216 140.5,30.5C 142.082,28.4374 143.415,26.1041 144.5,23.5 Z"/></g>
<g><path style="opacity:1" fill="#454555" d="M 11.5,15.5 C 14.3892,15.9462 17.0559,16.9462 19.5,18.5C 21.0293,18.4712 22.196,17.8045 23,16.5C 24.9935,17.914 27.1602,18.914 29.5,19.5C 31.0532,21.385 33.0532,22.385 35.5,22.5C 38.1718,22.8295 40.8384,23.1629 43.5,23.5C 42.5495,26.3143 40.5495,27.6477 37.5,27.5C 33.6104,26.2043 29.6104,25.5377 25.5,25.5C 19.3613,26.5508 13.1946,27.5508 7,28.5C 4.07801,28.4524 1.57801,27.4524 -0.5,25.5C -0.5,24.5 -0.5,23.5 -0.5,22.5C 2.51838,22.6646 5.51838,22.498 8.5,22C 8.95735,21.586 9.29069,21.086 9.5,20.5C 8.36977,19.3777 7.70311,18.0443 7.5,16.5C 8.70792,15.7659 10.0413,15.4326 11.5,15.5 Z"/></g>
<g><path style="opacity:1" fill="#636567" d="M 54.5,21.5 C 55.1667,21.5 55.8333,21.5 56.5,21.5C 56.9382,21.4346 57.2716,21.6012 57.5,22C 54.6447,24.0308 51.978,26.1975 49.5,28.5C 48.8333,28.5 48.5,28.8333 48.5,29.5C 46.1582,28.7893 45.8249,27.456 47.5,25.5C 49.4918,23.4362 51.8252,22.1029 54.5,21.5 Z"/></g>
<g><path style="opacity:1" fill="#1c2b35" d="M 69.5,18.5 C 68.6993,20.0418 68.366,21.7085 68.5,23.5C 81.8375,23.3334 95.1708,23.5001 108.5,24C 112.604,25.6857 116.938,26.519 121.5,26.5C 123.674,26.7497 125.341,27.7497 126.5,29.5C 126.5,30.5 126.5,31.5 126.5,32.5C 125.596,31.791 125.263,30.791 125.5,29.5C 111.728,26.1113 97.728,24.778 83.5,25.5C 71.9873,24.9936 60.654,25.9936 49.5,28.5C 51.978,26.1975 54.6447,24.0308 57.5,22C 57.2716,21.6012 56.9382,21.4346 56.5,21.5C 60.5152,19.6268 64.8485,18.6268 69.5,18.5 Z"/></g>
<g><path style="opacity:1" fill="#131a22" d="M 129.5,17.5 C 130.167,17.5 130.833,17.5 131.5,17.5C 131.5,17.8333 131.5,18.1667 131.5,18.5C 131.586,20.677 132.253,22.677 133.5,24.5C 135.435,25.213 135.768,26.213 134.5,27.5C 133.833,27.8333 133.167,28.1667 132.5,28.5C 131.85,28.8039 131.183,29.1373 130.5,29.5C 129.143,27.8144 127.81,26.1477 126.5,24.5C 127.695,22.2487 128.695,19.9154 129.5,17.5 Z"/></g>
<g><path style="opacity:1" fill="#0d161e" d="M 126.5,32.5 C 128.252,34.2459 129.585,36.2459 130.5,38.5C 130.5,39.1667 130.5,39.8333 130.5,40.5C 129.041,40.5674 127.708,40.2341 126.5,39.5C 125.318,36.9908 123.318,35.6574 120.5,35.5C 114.689,33.7848 108.689,32.7848 102.5,32.5C 101.081,31.5489 99.4147,31.2155 97.5,31.5C 90.0112,29.6573 82.3445,29.3239 74.5,30.5C 72.0688,29.2591 72.0688,28.0924 74.5,27C 73,26.8333 71.5,26.6667 70,26.5C 62.7441,27.2188 55.5775,28.2188 48.5,29.5C 48.5,28.8333 48.8333,28.5 49.5,28.5C 60.654,25.9936 71.9873,24.9936 83.5,25.5C 97.728,24.778 111.728,26.1113 125.5,29.5C 125.263,30.791 125.596,31.791 126.5,32.5 Z"/></g>
<g><path style="opacity:1" fill="#d5d9e0" d="M 134.5,27.5 C 136.216,29.0248 138.216,30.0248 140.5,30.5C 140.082,31.2216 139.416,31.7216 138.5,32C 146.999,36.0793 154.999,40.9127 162.5,46.5C 164.071,45.6906 165.738,45.3573 167.5,45.5C 167.714,47.1439 167.38,48.6439 166.5,50C 170.194,54.1713 173.861,58.338 177.5,62.5C 182.472,70.5479 180.138,74.5479 170.5,74.5C 169.5,74.1667 168.833,73.5 168.5,72.5C 165.322,69.7417 161.655,67.7417 157.5,66.5C 157.167,65.8333 156.833,65.1667 156.5,64.5C 152.283,59.2319 147.95,54.0652 143.5,49C 141.369,48.4569 139.369,47.6236 137.5,46.5C 136.45,45.5712 136.45,44.9046 137.5,44.5C 139.819,45.167 142.153,45.3336 144.5,45C 138.581,43.5621 134.581,40.0621 132.5,34.5C 131.62,32.3888 131.62,30.3888 132.5,28.5C 133.167,28.1667 133.833,27.8333 134.5,27.5 Z"/></g>
<g><path style="opacity:1" fill="#161518" d="M 45.5,22.5 C 47.0481,22.8212 47.7148,23.8212 47.5,25.5C 45.8249,27.456 46.1582,28.7893 48.5,29.5C 55.5775,28.2188 62.7441,27.2188 70,26.5C 71.5,26.6667 73,26.8333 74.5,27C 72.0688,28.0924 72.0688,29.2591 74.5,30.5C 71.6146,30.1936 68.9479,30.5269 66.5,31.5C 61.5265,32.2853 56.6931,33.6186 52,35.5C 51.0979,35.2568 50.2646,34.9234 49.5,34.5C 48.9759,31.8122 47.3092,30.3122 44.5,30C 36.1667,29.3333 27.8333,29.3333 19.5,30C 12.8847,31.3474 6.21807,32.514 -0.5,33.5C -0.5,30.8333 -0.5,28.1667 -0.5,25.5C 1.57801,27.4524 4.07801,28.4524 7,28.5C 13.1946,27.5508 19.3613,26.5508 25.5,25.5C 29.6104,25.5377 33.6104,26.2043 37.5,27.5C 40.5495,27.6477 42.5495,26.3143 43.5,23.5C 44.1667,23.1667 44.8333,22.8333 45.5,22.5 Z"/></g>
<g><path style="opacity:1" fill="#626565" d="M 97.5,31.5 C 92.1667,31.5 86.8333,31.5 81.5,31.5C 79.1667,31.5 76.8333,31.5 74.5,31.5C 71.8333,31.5 69.1667,31.5 66.5,31.5C 68.9479,30.5269 71.6146,30.1936 74.5,30.5C 82.3445,29.3239 90.0112,29.6573 97.5,31.5 Z"/></g>
<g><path style="opacity:1" fill="#e5ddd1" d="M 66.5,31.5 C 69.1667,31.5 71.8333,31.5 74.5,31.5C 74.8039,32.1499 75.1373,32.8165 75.5,33.5C 70.1924,36.1975 64.5257,37.1975 58.5,36.5C 55.9179,36.0254 53.9179,36.6921 52.5,38.5C 52.2648,39.0967 51.7648,39.4301 51,39.5C 48.7799,37.8069 46.2799,36.8069 43.5,36.5C 44.9179,34.6921 46.9179,34.0254 49.5,34.5C 50.2646,34.9234 51.0979,35.2568 52,35.5C 56.6931,33.6186 61.5265,32.2853 66.5,31.5 Z"/></g>
<g><path style="opacity:1" fill="#96a1b1" d="M 255.5,18.5 C 255.5,41.1667 255.5,63.8333 255.5,86.5C 254.85,86.8039 254.183,87.1373 253.5,87.5C 249.685,85.5913 245.685,84.258 241.5,83.5C 240.667,82.5 239.833,81.5 239,80.5C 240.871,74.1945 239.038,72.5278 233.5,75.5C 231.755,73.2507 229.588,71.5841 227,70.5C 224.842,67.4944 223.342,64.161 222.5,60.5C 223.167,59.1667 223.833,57.8333 224.5,56.5C 219.013,56.8025 218.346,54.9692 222.5,51C 221.633,48.3798 221.467,45.5465 222,42.5C 224.207,36.1689 227.373,30.5022 231.5,25.5C 235.5,23.1667 239.5,20.8333 243.5,18.5C 247.209,17.545 251.209,17.545 255.5,18.5 Z"/></g>
<g><path style="opacity:1" fill="#bfb5a6" d="M 102.5,32.5 C 108.689,32.7848 114.689,33.7848 120.5,35.5C 120.389,36.1174 120.056,36.6174 119.5,37C 120.973,37.7096 121.64,38.8762 121.5,40.5C 120.5,40.5 119.5,40.5 118.5,40.5C 118.405,43.3576 117.238,45.6909 115,47.5C 112.259,45.7996 109.259,44.4662 106,43.5C 103.968,43.8584 102.134,44.6917 100.5,46C 94.9798,45.3208 90.1465,42.8208 86,38.5C 85.2506,37.365 85.4173,36.365 86.5,35.5C 89.7876,36.5384 90.1209,35.8718 87.5,33.5C 92.456,32.5059 97.456,32.1725 102.5,32.5 Z"/></g>
<g><path style="opacity:1" fill="#9c3b42" d="M 43.5,36.5 C 44.2341,37.7079 44.5674,39.0413 44.5,40.5C 43.8333,40.5 43.5,40.8333 43.5,41.5C 42.8333,41.8333 42.1667,42.1667 41.5,42.5C 37.2531,42.1162 33.0864,41.4495 29,40.5C 28.6667,41.1667 28.3333,41.8333 28,42.5C 26.9887,41.6634 25.8221,41.33 24.5,41.5C 24.5,43.8333 24.5,46.1667 24.5,48.5C 22.2598,49.0473 19.9264,49.3806 17.5,49.5C 17.6114,51.1086 17.278,52.7753 16.5,54.5C 15.9202,56.7488 14.5869,58.4154 12.5,59.5C 11.3501,60.8502 10.6834,60.6836 10.5,59C 10.9031,57.5272 11.5697,56.1939 12.5,55C 9.58361,52.1848 6.58361,49.3515 3.5,46.5C 2.35536,45.2243 2.35536,43.891 3.5,42.5C 5.13105,40.7026 7.13105,39.5359 9.5,39C 15.9385,37.61 22.2718,36.4434 28.5,35.5C 33.7589,33.8495 38.7589,34.1829 43.5,36.5 Z"/></g>
<g><path style="opacity:1" fill="#7c4144" d="M 49.5,34.5 C 46.9179,34.0254 44.9179,34.6921 43.5,36.5C 38.7589,34.1829 33.7589,33.8495 28.5,35.5C 18.2255,35.1568 8.55879,37.1568 -0.5,41.5C -0.5,38.8333 -0.5,36.1667 -0.5,33.5C 6.21807,32.514 12.8847,31.3474 19.5,30C 27.8333,29.3333 36.1667,29.3333 44.5,30C 47.3092,30.3122 48.9759,31.8122 49.5,34.5 Z"/></g>
<g><path style="opacity:1" fill="#c9bdad" d="M 74.5,31.5 C 76.8333,31.5 79.1667,31.5 81.5,31.5C 84.3614,37.7742 87.3614,43.2742 90.5,48C 90.1667,48.8333 89.8333,49.6667 89.5,50.5C 86.9159,49.6072 84.2492,49.2739 81.5,49.5C 80.6501,45.6391 78.6501,42.4724 75.5,40C 69.6852,38.8712 64.0186,37.7045 58.5,36.5C 64.5257,37.1975 70.1924,36.1975 75.5,33.5C 75.1373,32.8165 74.8039,32.1499 74.5,31.5 Z"/></g>
<g><path style="opacity:1" fill="#4d535d" d="M 126.5,29.5 C 128.382,31.3099 130.382,32.9765 132.5,34.5C 134.581,40.0621 138.581,43.5621 144.5,45C 142.153,45.3336 139.819,45.167 137.5,44.5C 134.925,42.7228 132.591,40.7228 130.5,38.5C 129.585,36.2459 128.252,34.2459 126.5,32.5C 126.5,31.5 126.5,30.5 126.5,29.5 Z"/></g>
<g><path style="opacity:1" fill="#bb8785" d="M 41.5,42.5 C 36.3595,43.4881 31.0262,43.8214 25.5,43.5C 25.7845,45.4147 25.4511,47.0813 24.5,48.5C 24.5,46.1667 24.5,43.8333 24.5,41.5C 25.8221,41.33 26.9887,41.6634 28,42.5C 28.3333,41.8333 28.6667,41.1667 29,40.5C 33.0864,41.4495 37.2531,42.1162 41.5,42.5 Z"/></g>
<g><path style="opacity:1" fill="#8e8479" d="M 43.5,36.5 C 46.2799,36.8069 48.7799,37.8069 51,39.5C 51.7648,39.4301 52.2648,39.0967 52.5,38.5C 58.3384,37.4189 62.6717,39.5856 65.5,45C 68.4816,45.498 71.4816,45.6646 74.5,45.5C 70.1557,46.71 65.6557,46.71 61,45.5C 56.4963,48.3066 52.3297,47.9733 48.5,44.5C 47.4777,44.8555 46.811,45.5222 46.5,46.5C 43.8753,45.5343 43.8753,44.5343 46.5,43.5C 46.0576,42.2613 45.3909,41.2613 44.5,40.5C 44.5674,39.0413 44.2341,37.7079 43.5,36.5 Z"/></g>
<g><path style="opacity:1" fill="#a49c92" d="M 81.5,31.5 C 86.8333,31.5 92.1667,31.5 97.5,31.5C 99.4147,31.2155 101.081,31.5489 102.5,32.5C 97.456,32.1725 92.456,32.5059 87.5,33.5C 90.1209,35.8718 89.7876,36.5384 86.5,35.5C 85.4173,36.365 85.2506,37.365 86,38.5C 90.1465,42.8208 94.9798,45.3208 100.5,46C 102.134,44.6917 103.968,43.8584 106,43.5C 109.259,44.4662 112.259,45.7996 115,47.5C 117.238,45.6909 118.405,43.3576 118.5,40.5C 119.5,40.5 120.5,40.5 121.5,40.5C 121.64,38.8762 120.973,37.7096 119.5,37C 120.056,36.6174 120.389,36.1174 120.5,35.5C 123.318,35.6574 125.318,36.9908 126.5,39.5C 126.819,41.7505 126.319,43.7505 125,45.5C 124.667,44.1667 124.333,42.8333 124,41.5C 122.207,44.2953 120.04,46.7953 117.5,49C 109.798,48.572 102.131,48.7387 94.5,49.5C 92.2864,47.0762 91.2864,47.7429 91.5,51.5C 87.8183,51.6653 84.1516,51.4986 80.5,51C 79.5291,49.5187 78.1958,48.6854 76.5,48.5C 76.573,46.9731 75.9063,45.9731 74.5,45.5C 71.4816,45.6646 68.4816,45.498 65.5,45C 62.6717,39.5856 58.3384,37.4189 52.5,38.5C 53.9179,36.6921 55.9179,36.0254 58.5,36.5C 64.0186,37.7045 69.6852,38.8712 75.5,40C 78.6501,42.4724 80.6501,45.6391 81.5,49.5C 84.2492,49.2739 86.9159,49.6072 89.5,50.5C 89.8333,49.6667 90.1667,48.8333 90.5,48C 87.3614,43.2742 84.3614,37.7742 81.5,31.5 Z"/></g>
<g><path style="opacity:1" fill="#7b7773" d="M 126.5,39.5 C 127.708,40.2341 129.041,40.5674 130.5,40.5C 130.5,40.8333 130.5,41.1667 130.5,41.5C 129.121,44.3859 127.121,46.8859 124.5,49C 120.949,48.6996 118.949,50.533 118.5,54.5C 121.833,54.5 125.167,54.5 128.5,54.5C 128.5,55.1667 128.167,55.5 127.5,55.5C 124.167,55.5 120.833,55.5 117.5,55.5C 117.657,54.1266 117.49,52.7932 117,51.5C 115.397,51.8714 113.897,52.2048 112.5,52.5C 106.581,50.3951 100.581,50.0618 94.5,51.5C 92.0273,53.3268 89.3607,54.6602 86.5,55.5C 85.2134,53.4294 83.5467,53.0961 81.5,54.5C 81.1667,53.8333 80.8333,53.1667 80.5,52.5C 79.9031,54.541 79.9031,56.3744 80.5,58C 78.4024,58.6776 76.4024,58.5109 74.5,57.5C 74.5,57.1667 74.5,56.8333 74.5,56.5C 76.1368,57.2178 77.8034,57.3845 79.5,57C 78.5939,55.3005 78.2606,53.4672 78.5,51.5C 77.8333,50.5 77.1667,49.5 76.5,48.5C 78.1958,48.6854 79.5291,49.5187 80.5,51C 84.1516,51.4986 87.8183,51.6653 91.5,51.5C 91.2864,47.7429 92.2864,47.0762 94.5,49.5C 102.131,48.7387 109.798,48.572 117.5,49C 120.04,46.7953 122.207,44.2953 124,41.5C 124.333,42.8333 124.667,44.1667 125,45.5C 126.319,43.7505 126.819,41.7505 126.5,39.5 Z"/></g>
<g><path style="opacity:1" fill="#a5998b" d="M 130.5,41.5 C 130.5,43.8333 130.5,46.1667 130.5,48.5C 132.666,48.5789 134.666,49.2455 136.5,50.5C 137.442,50.3918 138.275,50.0585 139,49.5C 139.595,53.0822 140.929,53.4155 143,50.5C 143.195,51.8193 143.028,53.1526 142.5,54.5C 141.167,55.5 139.833,56.5 138.5,57.5C 138.404,55.8814 138.404,54.2147 138.5,52.5C 135.894,51.3483 133.227,51.1816 130.5,52C 129.748,52.6708 129.414,53.5041 129.5,54.5C 129.167,54.5 128.833,54.5 128.5,54.5C 125.167,54.5 121.833,54.5 118.5,54.5C 118.949,50.533 120.949,48.6996 124.5,49C 127.121,46.8859 129.121,44.3859 130.5,41.5 Z"/></g>
<g><path style="opacity:1" fill="#5b5a54" d="M 74.5,45.5 C 75.9063,45.9731 76.573,46.9731 76.5,48.5C 71.9018,48.2731 67.5684,49.1064 63.5,51C 64.0944,51.4643 64.7611,51.631 65.5,51.5C 65.1583,52.3382 64.4916,52.6716 63.5,52.5C 60.5,52.5 57.5,52.5 54.5,52.5C 51.4756,50.9866 48.8089,48.9866 46.5,46.5C 46.811,45.5222 47.4777,44.8555 48.5,44.5C 52.3297,47.9733 56.4963,48.3066 61,45.5C 65.6557,46.71 70.1557,46.71 74.5,45.5 Z"/></g>
<g><path style="opacity:1" fill="#2c2728" d="M 76.5,48.5 C 77.1667,49.5 77.8333,50.5 78.5,51.5C 75.0504,50.7564 73.3838,52.0897 73.5,55.5C 72.6851,54.5707 71.8518,53.5707 71,52.5C 70.6174,53.056 70.1174,53.3893 69.5,53.5C 68.8166,51.8235 67.4832,51.1568 65.5,51.5C 64.7611,51.631 64.0944,51.4643 63.5,51C 67.5684,49.1064 71.9018,48.2731 76.5,48.5 Z"/></g>
<g><path style="opacity:1" fill="#afa597" d="M 43.5,41.5 C 43.5,40.8333 43.8333,40.5 44.5,40.5C 45.3909,41.2613 46.0576,42.2613 46.5,43.5C 43.8753,44.5343 43.8753,45.5343 46.5,46.5C 48.8089,48.9866 51.4756,50.9866 54.5,52.5C 54.0158,55.6548 52.3491,57.9881 49.5,59.5C 46.6201,55.2955 43.1201,51.6288 39,48.5C 38.8333,48 38.6667,47.5 38.5,47C 40.4679,45.3417 42.4679,43.675 44.5,42C 44.2716,41.6012 43.9382,41.4346 43.5,41.5 Z"/></g>
<g><path style="opacity:1" fill="#8895a8" d="M 78.5,51.5 C 78.2606,53.4672 78.5939,55.3005 79.5,57C 77.8034,57.3845 76.1368,57.2178 74.5,56.5C 73.8333,56.5 73.5,56.1667 73.5,55.5C 73.3838,52.0897 75.0504,50.7564 78.5,51.5 Z"/></g>
<g><path style="opacity:1" fill="#595249" d="M 112.5,52.5 C 113.897,52.2048 115.397,51.8714 117,51.5C 117.49,52.7932 117.657,54.1266 117.5,55.5C 120.833,55.5 124.167,55.5 127.5,55.5C 127.389,56.1174 127.056,56.6174 126.5,57C 122.975,57.1787 119.641,57.6787 116.5,58.5C 116.023,55.9748 114.69,53.9748 112.5,52.5 Z"/></g>
<g><path style="opacity:1" fill="#c1b3b4" d="M 130.5,38.5 C 132.591,40.7228 134.925,42.7228 137.5,44.5C 136.45,44.9046 136.45,45.5712 137.5,46.5C 139.369,47.6236 141.369,48.4569 143.5,49C 147.95,54.0652 152.283,59.2319 156.5,64.5C 154.411,63.7365 152.078,63.7365 149.5,64.5C 147.167,61.1667 144.833,57.8333 142.5,54.5C 143.028,53.1526 143.195,51.8193 143,50.5C 140.929,53.4155 139.595,53.0822 139,49.5C 138.275,50.0585 137.442,50.3918 136.5,50.5C 134.666,49.2455 132.666,48.5789 130.5,48.5C 130.5,46.1667 130.5,43.8333 130.5,41.5C 130.5,41.1667 130.5,40.8333 130.5,40.5C 130.5,39.8333 130.5,39.1667 130.5,38.5 Z"/></g>
<g><path style="opacity:1" fill="#696158" d="M 138.5,57.5 C 136.833,58.8333 135.167,60.1667 133.5,61.5C 132.833,61.5 132.167,61.5 131.5,61.5C 133.403,58.3305 132.737,55.9972 129.5,54.5C 129.414,53.5041 129.748,52.6708 130.5,52C 133.227,51.1816 135.894,51.3483 138.5,52.5C 138.404,54.2147 138.404,55.8814 138.5,57.5 Z"/></g>
<g><path style="opacity:1" fill="#59301a" d="M 73.5,55.5 C 73.5,56.1667 73.8333,56.5 74.5,56.5C 74.5,56.8333 74.5,57.1667 74.5,57.5C 74.33,58.8221 74.6634,59.9887 75.5,61C 74.5842,61.2784 73.9175,61.7784 73.5,62.5C 69.8425,61.78 69.1758,60.28 71.5,58C 70.4178,56.6703 69.7512,55.1703 69.5,53.5C 70.1174,53.3893 70.6174,53.056 71,52.5C 71.8518,53.5707 72.6851,54.5707 73.5,55.5 Z"/></g>
<g><path style="opacity:1" fill="#2d2b26" d="M 128.5,54.5 C 128.833,54.5 129.167,54.5 129.5,54.5C 132.737,55.9972 133.403,58.3305 131.5,61.5C 130.833,61.5 130.167,61.5 129.5,61.5C 127.709,60.6087 125.876,59.6087 124,58.5C 123.392,60.0664 122.558,61.3998 121.5,62.5C 121.657,61.1266 121.49,59.7932 121,58.5C 119.701,58.9662 118.201,58.9662 116.5,58.5C 119.641,57.6787 122.975,57.1787 126.5,57C 127.056,56.6174 127.389,56.1174 127.5,55.5C 128.167,55.5 128.5,55.1667 128.5,54.5 Z"/></g>
<g><path style="opacity:1" fill="#8c3633" d="M 28.5,35.5 C 22.2718,36.4434 15.9385,37.61 9.5,39C 7.13105,39.5359 5.13105,40.7026 3.5,42.5C 2.35536,43.891 2.35536,45.2243 3.5,46.5C 6.58361,49.3515 9.58361,52.1848 12.5,55C 11.5697,56.1939 10.9031,57.5272 10.5,59C 10.6834,60.6836 11.3501,60.8502 12.5,59.5C 12.8271,64.3555 13.3271,69.0222 14,73.5C 17.3034,78.9686 20.8034,84.3019 24.5,89.5C 24.8333,88.3333 25.1667,87.1667 25.5,86C 24.7148,81.1968 24.3815,76.3634 24.5,71.5C 26.2303,72.0256 27.5637,73.0256 28.5,74.5C 28.5,74.8333 28.5,75.1667 28.5,75.5C 25.4595,79.8329 25.2928,84.4996 28,89.5C 28.6667,92.8333 28.6667,96.1667 28,99.5C 21.4942,97.6461 18.9942,93.4794 20.5,87C 17.4127,82.5792 13.5793,78.7459 9,75.5C 7.83333,77.1667 6.66667,78.8333 5.5,80.5C 3.5504,79.6279 1.5504,78.9612 -0.5,78.5C -0.5,66.1667 -0.5,53.8333 -0.5,41.5C 8.55879,37.1568 18.2255,35.1568 28.5,35.5 Z"/></g>
<g><path style="opacity:1" fill="#32201b" d="M 86.5,55.5 C 86.8333,56.1667 87.1667,56.8333 87.5,57.5C 86.6409,59.1059 86.4742,60.7725 87,62.5C 85.4006,60.9644 83.5672,60.4644 81.5,61C 83.9861,61.6556 85.6528,63.1556 86.5,65.5C 85.8333,65.5 85.1667,65.5 84.5,65.5C 84.4226,64.2502 83.756,63.4169 82.5,63C 79.5184,62.502 76.5184,62.3354 73.5,62.5C 73.9175,61.7784 74.5842,61.2784 75.5,61C 74.6634,59.9887 74.33,58.8221 74.5,57.5C 76.4024,58.5109 78.4024,58.6776 80.5,58C 79.9031,56.3744 79.9031,54.541 80.5,52.5C 80.8333,53.1667 81.1667,53.8333 81.5,54.5C 83.5467,53.0961 85.2134,53.4294 86.5,55.5 Z"/></g>
<g><path style="opacity:1" fill="#b8ac9d" d="M 94.5,51.5 C 95.3234,54.4606 95.99,57.4606 96.5,60.5C 92.6458,60.883 91.3125,62.883 92.5,66.5C 94.2914,67.1698 95.9581,67.8365 97.5,68.5C 95.4348,68.953 93.7682,69.953 92.5,71.5C 92.5,72.5 92.5,73.5 92.5,74.5C 91.5386,72.7354 91.2053,70.7354 91.5,68.5C 89.5328,68.2606 87.6995,68.5939 86,69.5C 85.7216,68.5842 85.2216,67.9175 84.5,67.5C 85.1667,66.8333 85.8333,66.1667 86.5,65.5C 90.1353,63.2967 90.4686,60.6301 87.5,57.5C 87.1667,56.8333 86.8333,56.1667 86.5,55.5C 89.3607,54.6602 92.0273,53.3268 94.5,51.5 Z"/></g>
<g><path style="opacity:1" fill="#455765" d="M 116.5,58.5 C 118.201,58.9662 119.701,58.9662 121,58.5C 121.49,59.7932 121.657,61.1266 121.5,62.5C 120.5,63.1667 119.5,63.8333 118.5,64.5C 117.655,63.3285 116.989,61.9952 116.5,60.5C 116.5,59.8333 116.5,59.1667 116.5,58.5 Z"/></g>
<g><path style="opacity:1" fill="#d0caba" d="M 32.5,65.5 C 28.6183,63.0659 24.9516,60.3993 21.5,57.5C 21.56,56.9569 21.8933,56.6236 22.5,56.5C 25.2323,58.5462 28.2323,59.3795 31.5,59C 21.1576,53.9059 22.1576,51.5726 34.5,52C 36.5719,53.2732 37.9052,55.1065 38.5,57.5C 40.6721,58.2048 42.6721,59.2048 44.5,60.5C 43.1468,61.5237 42.4802,62.857 42.5,64.5C 38.9581,64.1872 35.6248,64.5206 32.5,65.5 Z"/></g>
<g><path style="opacity:1" fill="#cdc8be" d="M 112.5,52.5 C 114.69,53.9748 116.023,55.9748 116.5,58.5C 116.5,59.1667 116.5,59.8333 116.5,60.5C 112.932,60.2407 111.599,58.2407 112.5,54.5C 107.725,52.8527 102.725,52.186 97.5,52.5C 98.9349,56.305 100.268,60.1383 101.5,64C 101.241,65.7866 100.575,67.2866 99.5,68.5C 98.8333,68.5 98.1667,68.5 97.5,68.5C 95.9581,67.8365 94.2914,67.1698 92.5,66.5C 91.3125,62.883 92.6458,60.883 96.5,60.5C 95.99,57.4606 95.3234,54.4606 94.5,51.5C 100.581,50.0618 106.581,50.3951 112.5,52.5 Z"/></g>
<g><path style="opacity:1" fill="#c2b8a8" d="M 43.5,41.5 C 43.9382,41.4346 44.2716,41.6012 44.5,42C 42.4679,43.675 40.4679,45.3417 38.5,47C 38.6667,47.5 38.8333,48 39,48.5C 43.1201,51.6288 46.6201,55.2955 49.5,59.5C 52.3491,57.9881 54.0158,55.6548 54.5,52.5C 57.5,52.5 60.5,52.5 63.5,52.5C 63.9707,54.5786 64.6373,56.5786 65.5,58.5C 65.7922,61.8009 67.4589,63.8009 70.5,64.5C 70.5,65.5 70.5,66.5 70.5,67.5C 69.209,67.2627 68.209,67.596 67.5,68.5C 65.2714,72.0751 62.6048,75.4085 59.5,78.5C 55.5505,79.2589 51.8838,80.5923 48.5,82.5C 48.39,80.6459 48.0566,78.6459 47.5,76.5C 45.9896,80.2483 44.8229,79.915 44,75.5C 43.7811,76.938 43.2811,78.2713 42.5,79.5C 41.6143,78.675 41.281,77.675 41.5,76.5C 43.0096,73.7455 45.0096,71.4121 47.5,69.5C 48.8195,68.0582 50.4862,67.3915 52.5,67.5C 52.5,66.1667 52.5,64.8333 52.5,63.5C 46.0144,64.8021 39.5144,65.8021 33,66.5C 32.6012,66.2716 32.4346,65.9382 32.5,65.5C 35.6248,64.5206 38.9581,64.1872 42.5,64.5C 42.4802,62.857 43.1468,61.5237 44.5,60.5C 42.6721,59.2048 40.6721,58.2048 38.5,57.5C 37.9052,55.1065 36.5719,53.2732 34.5,52C 22.1576,51.5726 21.1576,53.9059 31.5,59C 28.2323,59.3795 25.2323,58.5462 22.5,56.5C 21.8933,56.6236 21.56,56.9569 21.5,57.5C 21.1667,57.5 20.8333,57.5 20.5,57.5C 18.8595,56.853 17.5261,55.853 16.5,54.5C 17.278,52.7753 17.6114,51.1086 17.5,49.5C 19.9264,49.3806 22.2598,49.0473 24.5,48.5C 25.4511,47.0813 25.7845,45.4147 25.5,43.5C 31.0262,43.8214 36.3595,43.4881 41.5,42.5C 42.1667,42.1667 42.8333,41.8333 43.5,41.5 Z"/></g>
<g><path style="opacity:1" fill="#634935" d="M 87.5,57.5 C 90.4686,60.6301 90.1353,63.2967 86.5,65.5C 85.6528,63.1556 83.9861,61.6556 81.5,61C 83.5672,60.4644 85.4006,60.9644 87,62.5C 86.4742,60.7725 86.6409,59.1059 87.5,57.5 Z"/></g>
<g><path style="opacity:1" fill="#7a5942" d="M 65.5,51.5 C 67.4832,51.1568 68.8166,51.8235 69.5,53.5C 69.7512,55.1703 70.4178,56.6703 71.5,58C 69.1758,60.28 69.8425,61.78 73.5,62.5C 76.5184,62.3354 79.5184,62.502 82.5,63C 83.756,63.4169 84.4226,64.2502 84.5,65.5C 79.8579,64.6052 75.1913,63.7719 70.5,63C 68.9625,61.2927 67.2959,59.7927 65.5,58.5C 64.6373,56.5786 63.9707,54.5786 63.5,52.5C 64.4916,52.6716 65.1583,52.3382 65.5,51.5 Z"/></g>
<g><path style="opacity:1" fill="#4f301f" d="M 129.5,61.5 C 128.5,61.5 127.5,61.5 126.5,61.5C 126.638,65.6935 124.638,68.0268 120.5,68.5C 119.655,67.3285 118.989,65.9952 118.5,64.5C 119.5,63.8333 120.5,63.1667 121.5,62.5C 122.558,61.3998 123.392,60.0664 124,58.5C 125.876,59.6087 127.709,60.6087 129.5,61.5 Z"/></g>
<g><path style="opacity:1" fill="#95897d" d="M 20.5,57.5 C 20.8333,57.5 21.1667,57.5 21.5,57.5C 24.9516,60.3993 28.6183,63.0659 32.5,65.5C 32.4346,65.9382 32.6012,66.2716 33,66.5C 39.5144,65.8021 46.0144,64.8021 52.5,63.5C 52.5,64.8333 52.5,66.1667 52.5,67.5C 50.4862,67.3915 48.8195,68.0582 47.5,69.5C 47.5299,68.5028 47.0299,67.8361 46,67.5C 44.2856,68.0762 43.1189,69.2429 42.5,71C 39.9682,71.6189 37.6349,72.6189 35.5,74C 33.1902,74.4966 30.8568,74.6633 28.5,74.5C 27.5637,73.0256 26.2303,72.0256 24.5,71.5C 23.7177,69.5487 22.3844,68.0487 20.5,67C 22.8912,66.3086 22.8912,65.3086 20.5,64C 21.7376,64.0773 22.7376,63.9106 23.5,63.5C 21.9617,61.7567 20.9617,59.7567 20.5,57.5 Z"/></g>
<g><path style="opacity:1" fill="#b9a185" d="M 65.5,58.5 C 67.2959,59.7927 68.9625,61.2927 70.5,63C 75.1913,63.7719 79.8579,64.6052 84.5,65.5C 85.1667,65.5 85.8333,65.5 86.5,65.5C 85.8333,66.1667 85.1667,66.8333 84.5,67.5C 83.8333,67.5 83.5,67.8333 83.5,68.5C 80.0125,69.4076 77.0125,71.0743 74.5,73.5C 73.0992,73.0291 71.7658,72.3624 70.5,71.5C 71.462,69.1167 70.462,68.1167 67.5,68.5C 68.209,67.596 69.209,67.2627 70.5,67.5C 70.5,66.5 70.5,65.5 70.5,64.5C 67.4589,63.8009 65.7922,61.8009 65.5,58.5 Z"/></g>
<g><path style="opacity:1" fill="#b4a897" d="M 129.5,61.5 C 130.167,61.5 130.833,61.5 131.5,61.5C 132.167,61.5 132.833,61.5 133.5,61.5C 134.459,64.8541 135.793,68.0208 137.5,71C 136.139,72.5843 135.472,74.4176 135.5,76.5C 135.615,78.9468 136.615,80.9468 138.5,82.5C 140.349,85.3825 139.682,87.3825 136.5,88.5C 134.983,88.4894 133.816,87.8228 133,86.5C 132.667,87.8333 132.333,89.1667 132,90.5C 131.623,89.0577 130.79,88.0577 129.5,87.5C 128.19,84.6015 126.857,81.6015 125.5,78.5C 125.043,77.7025 124.376,77.3691 123.5,77.5C 123.833,76.8333 124.167,76.1667 124.5,75.5C 123.833,74.1667 122.833,73.1667 121.5,72.5C 121.167,71.1667 120.833,69.8333 120.5,68.5C 124.638,68.0268 126.638,65.6935 126.5,61.5C 127.5,61.5 128.5,61.5 129.5,61.5 Z"/></g>
<g><path style="opacity:1" fill="#b38489" d="M 156.5,64.5 C 156.833,65.1667 157.167,65.8333 157.5,66.5C 156.45,66.9046 156.45,67.5712 157.5,68.5C 161.523,70.6784 163.69,74.0118 164,78.5C 169.119,81.2851 173.286,85.1184 176.5,90C 177.437,90.6917 178.103,90.525 178.5,89.5C 179.401,90.2905 180.068,91.2905 180.5,92.5C 179.62,94.6112 179.62,96.6112 180.5,98.5C 178.057,97.8913 176.39,96.3913 175.5,94C 174.054,92.702 172.721,92.5354 171.5,93.5C 168.934,89.3912 166.101,85.3912 163,81.5C 160.894,78.8823 158.394,76.8823 155.5,75.5C 153.142,75.7475 151.142,75.0808 149.5,73.5C 149.5,70.5 149.5,67.5 149.5,64.5C 152.078,63.7365 154.411,63.7365 156.5,64.5 Z"/></g>
<g><path style="opacity:1" fill="#c7bdb5" d="M 24.5,66.5 C 27.8988,67.6338 31.2321,68.9671 34.5,70.5C 33.6518,72.2828 32.3185,72.7828 30.5,72C 29.2842,70.2602 27.6175,69.2602 25.5,69C 24.7476,68.3292 24.4142,67.4959 24.5,66.5 Z"/></g>
<g><path style="opacity:1" fill="#dbdad6" d="M 116.5,60.5 C 116.989,61.9952 117.655,63.3285 118.5,64.5C 118.989,65.9952 119.655,67.3285 120.5,68.5C 120.833,69.8333 121.167,71.1667 121.5,72.5C 118.358,71.7959 115.192,72.1292 112,73.5C 107.727,71.9415 103.561,70.2749 99.5,68.5C 100.575,67.2866 101.241,65.7866 101.5,64C 100.268,60.1383 98.9349,56.305 97.5,52.5C 102.725,52.186 107.725,52.8527 112.5,54.5C 111.599,58.2407 112.932,60.2407 116.5,60.5 Z"/></g>
<g><path style="opacity:1" fill="#8d898d" d="M 149.5,73.5 C 151.142,75.0808 153.142,75.7475 155.5,75.5C 155.833,76.1667 156.167,76.8333 156.5,77.5C 155.5,77.5 154.5,77.5 153.5,77.5C 152.833,77.5 152.167,77.5 151.5,77.5C 148.015,77.4056 145.015,76.239 142.5,74C 145.063,73.874 147.396,73.7073 149.5,73.5 Z"/></g>
<g><path style="opacity:1" fill="#5573a4" d="M 97.5,68.5 C 98.1667,68.5 98.8333,68.5 99.5,68.5C 103.561,70.2749 107.727,71.9415 112,73.5C 115.192,72.1292 118.358,71.7959 121.5,72.5C 122.833,73.1667 123.833,74.1667 124.5,75.5C 120.913,76.6051 117.413,77.9384 114,79.5C 112.648,74.2979 111.482,74.2979 110.5,79.5C 105.098,75.4775 99.0978,72.8108 92.5,71.5C 93.7682,69.953 95.4348,68.953 97.5,68.5 Z"/></g>
<g><path style="opacity:1" fill="#b79ea2" d="M 157.5,66.5 C 161.655,67.7417 165.322,69.7417 168.5,72.5C 167.153,71.9717 165.819,71.805 164.5,72C 169.776,77.4075 174.443,83.2409 178.5,89.5C 178.103,90.525 177.437,90.6917 176.5,90C 173.286,85.1184 169.119,81.2851 164,78.5C 163.69,74.0118 161.523,70.6784 157.5,68.5C 156.45,67.5712 156.45,66.9046 157.5,66.5 Z"/></g>
<g><path style="opacity:1" fill="#3c3c49" d="M 142.5,54.5 C 144.833,57.8333 147.167,61.1667 149.5,64.5C 149.5,67.5 149.5,70.5 149.5,73.5C 147.396,73.7073 145.063,73.874 142.5,74C 145.015,76.239 148.015,77.4056 151.5,77.5C 148.64,78.2439 145.64,78.9106 142.5,79.5C 140.22,78.2451 139.053,76.2451 139,73.5C 137.641,74.365 136.474,75.365 135.5,76.5C 135.472,74.4176 136.139,72.5843 137.5,71C 135.793,68.0208 134.459,64.8541 133.5,61.5C 135.167,60.1667 136.833,58.8333 138.5,57.5C 139.833,56.5 141.167,55.5 142.5,54.5 Z"/></g>
<g><path style="opacity:1" fill="#6b6560" d="M 69.5,79.5 C 68.6715,78.6676 67.8382,79.001 67,80.5C 66.2607,82.2205 65.4274,83.8872 64.5,85.5C 63.8076,84.9747 63.3076,84.3081 63,83.5C 62.0228,84.7736 61.1894,84.7736 60.5,83.5C 62.155,80.214 64.3217,77.214 67,74.5C 68.0113,75.3366 69.1779,75.67 70.5,75.5C 70.7678,77.099 70.4345,78.4324 69.5,79.5 Z"/></g>
<g><path style="opacity:1" fill="#878892" d="M 172.5,76.5 C 174.857,76.3367 177.19,76.5034 179.5,77C 178.399,79.2924 179.232,80.7924 182,81.5C 182.483,82.448 182.649,83.448 182.5,84.5C 178.296,82.9668 174.963,80.3002 172.5,76.5 Z"/></g>
<g><path style="opacity:1" fill="#4e4946" d="M 47.5,69.5 C 45.0096,71.4121 43.0096,73.7455 41.5,76.5C 39.4727,77.8606 37.806,79.5273 36.5,81.5C 35.7688,81.0582 34.7688,80.8915 33.5,81C 32.2946,78.7658 32.9613,77.0992 35.5,76C 33.5273,75.5045 31.5273,75.3379 29.5,75.5C 29.1667,75.5 28.8333,75.5 28.5,75.5C 28.5,75.1667 28.5,74.8333 28.5,74.5C 30.8568,74.6633 33.1902,74.4966 35.5,74C 37.6349,72.6189 39.9682,71.6189 42.5,71C 43.1189,69.2429 44.2856,68.0762 46,67.5C 47.0299,67.8361 47.5299,68.5028 47.5,69.5 Z"/></g>
<g><path style="opacity:1" fill="#c1bbb2" d="M 83.5,68.5 C 81.2224,75.7218 77.8891,82.3885 73.5,88.5C 72.4797,87.0462 71.313,86.7129 70,87.5C 69.8333,86.6667 69.6667,85.8333 69.5,85C 71.2443,81.1718 72.9109,77.3385 74.5,73.5C 77.0125,71.0743 80.0125,69.4076 83.5,68.5 Z"/></g>
<g><path style="opacity:1" fill="#1e2e4a" d="M 92.5,71.5 C 99.0978,72.8108 105.098,75.4775 110.5,79.5C 111.482,74.2979 112.648,74.2979 114,79.5C 117.413,77.9384 120.913,76.6051 124.5,75.5C 124.167,76.1667 123.833,76.8333 123.5,77.5C 122.833,77.5 122.5,77.8333 122.5,78.5C 117.911,80.1243 114.577,83.1243 112.5,87.5C 112.167,87.5 111.833,87.5 111.5,87.5C 110.167,87.5 108.833,87.5 107.5,87.5C 106.391,87.4431 105.391,87.1098 104.5,86.5C 102.853,83.5265 100.853,80.8599 98.5,78.5C 96.7105,77.1228 94.7105,76.1228 92.5,75.5C 92.5,75.1667 92.5,74.8333 92.5,74.5C 92.5,73.5 92.5,72.5 92.5,71.5 Z"/></g>
<g><path style="opacity:1" fill="#2a2730" d="M 151.5,77.5 C 152.167,77.5 152.833,77.5 153.5,77.5C 154.008,79.2327 154.841,79.566 156,78.5C 157.039,79.2438 157.539,80.2438 157.5,81.5C 156.883,81.3893 156.383,81.056 156,80.5C 153.899,84.351 154.066,88.0177 156.5,91.5C 155.873,92.4168 155.539,93.4168 155.5,94.5C 153.868,93.0916 152.202,91.5916 150.5,90C 151.167,89.6667 151.833,89.3333 152.5,89C 149.376,85.5825 145.71,84.0825 141.5,84.5C 140.5,83.8333 139.5,83.1667 138.5,82.5C 136.615,80.9468 135.615,78.9468 135.5,76.5C 136.474,75.365 137.641,74.365 139,73.5C 139.053,76.2451 140.22,78.2451 142.5,79.5C 145.64,78.9106 148.64,78.2439 151.5,77.5 Z"/></g>
<g><path style="opacity:1" fill="#9b3a36" d="M 16.5,54.5 C 17.5261,55.853 18.8595,56.853 20.5,57.5C 20.9617,59.7567 21.9617,61.7567 23.5,63.5C 22.7376,63.9106 21.7376,64.0773 20.5,64C 22.8912,65.3086 22.8912,66.3086 20.5,67C 22.3844,68.0487 23.7177,69.5487 24.5,71.5C 24.3815,76.3634 24.7148,81.1968 25.5,86C 25.1667,87.1667 24.8333,88.3333 24.5,89.5C 20.8034,84.3019 17.3034,78.9686 14,73.5C 13.3271,69.0222 12.8271,64.3555 12.5,59.5C 14.5869,58.4154 15.9202,56.7488 16.5,54.5 Z"/></g>
<g><path style="opacity:1" fill="#958d85" d="M 48.5,82.5 C 48.44,83.0431 48.1067,83.3764 47.5,83.5C 46.175,80.6708 44.175,80.0042 41.5,81.5C 39.6095,84.7459 37.9429,87.4126 36.5,89.5C 36.5,86.8333 36.5,84.1667 36.5,81.5C 37.806,79.5273 39.4727,77.8606 41.5,76.5C 41.281,77.675 41.6143,78.675 42.5,79.5C 43.2811,78.2713 43.7811,76.938 44,75.5C 44.8229,79.915 45.9896,80.2483 47.5,76.5C 48.0566,78.6459 48.39,80.6459 48.5,82.5 Z"/></g>
<g><path style="opacity:1" fill="#d3d4d4" d="M 84.5,67.5 C 85.2216,67.9175 85.7216,68.5842 86,69.5C 87.6995,68.5939 89.5328,68.2606 91.5,68.5C 91.2053,70.7354 91.5386,72.7354 92.5,74.5C 92.5,74.8333 92.5,75.1667 92.5,75.5C 93.5778,78.4021 94.2444,81.4021 94.5,84.5C 91.1667,84.5 87.8333,84.5 84.5,84.5C 84.8204,81.1016 84.487,77.7683 83.5,74.5C 80.8864,79.3926 78.553,84.3926 76.5,89.5C 72.5072,95.1615 68.5072,100.828 64.5,106.5C 60.2775,109.969 56.2775,113.636 52.5,117.5C 49.0171,120.739 45.3504,123.739 41.5,126.5C 40.2355,124.228 40.4022,121.895 42,119.5C 45.7685,116.864 49.6018,114.531 53.5,112.5C 54.1667,112.167 54.8333,111.833 55.5,111.5C 57.5,110.167 59.1667,108.5 60.5,106.5C 61.8333,105.833 62.8333,104.833 63.5,103.5C 65.7583,100.643 67.7583,97.6434 69.5,94.5C 71.316,92.8816 72.6493,90.8816 73.5,88.5C 77.8891,82.3885 81.2224,75.7218 83.5,68.5C 83.5,67.8333 83.8333,67.5 84.5,67.5 Z"/></g>
<g><path style="opacity:1" fill="#362e32" d="M 29.5,75.5 C 31.5273,75.3379 33.5273,75.5045 35.5,76C 32.9613,77.0992 32.2946,78.7658 33.5,81C 34.7688,80.8915 35.7688,81.0582 36.5,81.5C 36.5,84.1667 36.5,86.8333 36.5,89.5C 37.1212,91.9983 36.4545,94.3316 34.5,96.5C 33.4925,92.8099 32.3258,89.1432 31,85.5C 30.231,82.9009 30.3977,80.4009 31.5,78C 30.244,77.5831 29.5774,76.7498 29.5,75.5 Z"/></g>
<g><path style="opacity:1" fill="#7b342a" d="M 28.5,75.5 C 28.8333,75.5 29.1667,75.5 29.5,75.5C 29.5774,76.7498 30.244,77.5831 31.5,78C 30.3977,80.4009 30.231,82.9009 31,85.5C 32.3258,89.1432 33.4925,92.8099 34.5,96.5C 33.5975,100.889 31.9308,104.889 29.5,108.5C 28.6216,105.15 27.1216,104.817 25,107.5C 22.961,105.126 20.6277,103.126 18,101.5C 17.4387,102.022 16.772,102.355 16,102.5C 8.51814,98.6653 3.68481,92.6653 1.5,84.5C 0.816537,84.1373 0.14987,83.8039 -0.5,83.5C -0.5,81.8333 -0.5,80.1667 -0.5,78.5C 1.5504,78.9612 3.5504,79.6279 5.5,80.5C 6.66667,78.8333 7.83333,77.1667 9,75.5C 13.5793,78.7459 17.4127,82.5792 20.5,87C 18.9942,93.4794 21.4942,97.6461 28,99.5C 28.6667,96.1667 28.6667,92.8333 28,89.5C 25.2928,84.4996 25.4595,79.8329 28.5,75.5 Z"/></g>
<g><path style="opacity:1" fill="#c1c0bc" d="M 123.5,77.5 C 124.376,77.3691 125.043,77.7025 125.5,78.5C 126.857,81.6015 128.19,84.6015 129.5,87.5C 129.5,88.5 129.5,89.5 129.5,90.5C 127.7,91.6052 126.533,90.9386 126,88.5C 123.377,91.1139 120.877,90.9473 118.5,88C 120.524,85.1194 121.857,81.9527 122.5,78.5C 122.5,77.8333 122.833,77.5 123.5,77.5 Z"/></g>
<g><path style="opacity:1" fill="#8e3134" d="M 157.5,81.5 C 161.361,89.5493 164.361,97.8826 166.5,106.5C 166.657,107.873 166.49,109.207 166,110.5C 164.215,109.76 162.382,109.093 160.5,108.5C 159.943,106.282 159.943,103.949 160.5,101.5C 161.686,100.039 161.686,98.7054 160.5,97.5C 158.78,96.6923 157.113,95.6923 155.5,94.5C 155.539,93.4168 155.873,92.4168 156.5,91.5C 154.066,88.0177 153.899,84.351 156,80.5C 156.383,81.056 156.883,81.3893 157.5,81.5 Z"/></g>
<g><path style="opacity:1" fill="#3e444b" d="M 59.5,78.5 C 59.2155,80.4147 59.5489,82.0813 60.5,83.5C 61.1894,84.7736 62.0228,84.7736 63,83.5C 63.3076,84.3081 63.8076,84.9747 64.5,85.5C 65.4274,83.8872 66.2607,82.2205 67,80.5C 67.8382,79.001 68.6715,78.6676 69.5,79.5C 66.88,84.6051 66.88,89.6051 69.5,94.5C 67.7583,97.6434 65.7583,100.643 63.5,103.5C 63.0584,97.959 62.7251,92.2923 62.5,86.5C 61.1667,86.5 59.8333,86.5 58.5,86.5C 58.5,85.5 58.5,84.5 58.5,83.5C 51.1305,82.874 47.1305,86.2074 46.5,93.5C 45.5331,96.2408 44.1997,98.7408 42.5,101C 42.9574,101.414 43.2907,101.914 43.5,102.5C 39.9634,104.326 36.6301,106.326 33.5,108.5C 32.1667,109.5 30.8333,110.5 29.5,111.5C 29.5,110.5 29.5,109.5 29.5,108.5C 31.9308,104.889 33.5975,100.889 34.5,96.5C 36.4545,94.3316 37.1212,91.9983 36.5,89.5C 37.9429,87.4126 39.6095,84.7459 41.5,81.5C 44.175,80.0042 46.175,80.6708 47.5,83.5C 48.1067,83.3764 48.44,83.0431 48.5,82.5C 51.8838,80.5923 55.5505,79.2589 59.5,78.5 Z"/></g>
<g><path style="opacity:1" fill="#3c3e48" d="M 141.5,84.5 C 145.71,84.0825 149.376,85.5825 152.5,89C 151.833,89.3333 151.167,89.6667 150.5,90C 152.202,91.5916 153.868,93.0916 155.5,94.5C 157.113,95.6923 158.78,96.6923 160.5,97.5C 158.857,97.4802 157.524,98.1468 156.5,99.5C 153.704,98.4014 150.871,97.4014 148,96.5C 145.695,96.9733 144.195,98.3066 143.5,100.5C 141.808,98.7952 140.475,96.7952 139.5,94.5C 138.998,92.9153 137.998,92.4153 136.5,93C 137.337,94.0113 137.67,95.1779 137.5,96.5C 131.829,95.6437 130.496,97.477 133.5,102C 132.67,103.465 132.504,104.965 133,106.5C 134.459,108.432 135.625,110.432 136.5,112.5C 137.741,117.032 136.408,120.698 132.5,123.5C 132.703,121.956 133.37,120.622 134.5,119.5C 131.878,114.591 129.544,109.591 127.5,104.5C 128.167,101.5 128.833,98.5 129.5,95.5C 129.5,93.8333 129.5,92.1667 129.5,90.5C 129.5,89.5 129.5,88.5 129.5,87.5C 130.79,88.0577 131.623,89.0577 132,90.5C 132.333,89.1667 132.667,87.8333 133,86.5C 133.816,87.8228 134.983,88.4894 136.5,88.5C 137.145,89.8118 138.145,90.8118 139.5,91.5C 140.141,89.7045 141.141,88.2045 142.5,87C 141.748,86.3292 141.414,85.4959 141.5,84.5 Z"/></g>
<g><path style="opacity:1" fill="#717a83" d="M 59.5,103.5 C 58.6288,99.9788 57.7955,96.3121 57,92.5C 56.6121,91.572 55.9454,90.9054 55,90.5C 53.3435,91.4841 51.6768,92.4841 50,93.5C 49.3146,96.5789 48.4812,99.5789 47.5,102.5C 43.0699,105.048 38.4032,107.048 33.5,108.5C 36.6301,106.326 39.9634,104.326 43.5,102.5C 43.2907,101.914 42.9574,101.414 42.5,101C 44.1997,98.7408 45.5331,96.2408 46.5,93.5C 47.5964,91.8968 48.9297,90.3968 50.5,89C 54.0691,88.3179 57.4024,88.8179 60.5,90.5C 60.0728,94.8244 59.7395,99.1578 59.5,103.5 Z"/></g>
<g><path style="opacity:1" fill="#9d958e" d="M 67.5,68.5 C 70.462,68.1167 71.462,69.1167 70.5,71.5C 71.7658,72.3624 73.0992,73.0291 74.5,73.5C 72.9109,77.3385 71.2443,81.1718 69.5,85C 69.6667,85.8333 69.8333,86.6667 70,87.5C 71.313,86.7129 72.4797,87.0462 73.5,88.5C 72.6493,90.8816 71.316,92.8816 69.5,94.5C 66.88,89.6051 66.88,84.6051 69.5,79.5C 70.4345,78.4324 70.7678,77.099 70.5,75.5C 69.1779,75.67 68.0113,75.3366 67,74.5C 64.3217,77.214 62.155,80.214 60.5,83.5C 59.5489,82.0813 59.2155,80.4147 59.5,78.5C 62.6048,75.4085 65.2714,72.0751 67.5,68.5 Z"/></g>
<g><path style="opacity:1" fill="#b4b2af" d="M 92.5,75.5 C 94.7105,76.1228 96.7105,77.1228 98.5,78.5C 99.4922,81.7786 99.6588,85.1119 99,88.5C 94.055,91.1478 89.2216,93.9811 84.5,97C 83.2341,97.3095 82.0674,97.8095 81,98.5C 80.5357,97.9056 80.369,97.2389 80.5,96.5C 81.8799,91.548 82.7132,86.548 83,81.5C 81.5437,84.0756 80.377,86.7423 79.5,89.5C 78.5,89.5 77.5,89.5 76.5,89.5C 78.553,84.3926 80.8864,79.3926 83.5,74.5C 84.487,77.7683 84.8204,81.1016 84.5,84.5C 87.8333,84.5 91.1667,84.5 94.5,84.5C 94.2444,81.4021 93.5778,78.4021 92.5,75.5 Z"/></g>
<g><path style="opacity:1" fill="#807875" d="M 138.5,82.5 C 139.5,83.1667 140.5,83.8333 141.5,84.5C 141.414,85.4959 141.748,86.3292 142.5,87C 141.141,88.2045 140.141,89.7045 139.5,91.5C 138.145,90.8118 137.145,89.8118 136.5,88.5C 139.682,87.3825 140.349,85.3825 138.5,82.5 Z"/></g>
<g><path style="opacity:1" fill="#373136" d="M 168.5,72.5 C 168.833,73.5 169.5,74.1667 170.5,74.5C 170.833,75.5 171.5,76.1667 172.5,76.5C 174.963,80.3002 178.296,82.9668 182.5,84.5C 185.2,86.2344 187.2,88.5677 188.5,91.5C 186.402,92.9143 185.402,92.2476 185.5,89.5C 184.448,89.3505 183.448,89.5172 182.5,90C 184.113,92.2276 184.78,94.7276 184.5,97.5C 183.167,95.8333 181.833,94.1667 180.5,92.5C 180.068,91.2905 179.401,90.2905 178.5,89.5C 174.443,83.2409 169.776,77.4075 164.5,72C 165.819,71.805 167.153,71.9717 168.5,72.5 Z"/></g>
<g><path style="opacity:1" fill="#49463e" d="M 104.5,86.5 C 105.391,87.1098 106.391,87.4431 107.5,87.5C 107.579,88.9305 107.246,90.2638 106.5,91.5C 107.602,92.1757 108.602,92.8423 109.5,93.5C 106.779,95.5681 103.779,96.9015 100.5,97.5C 99.8333,97.5 99.1667,97.5 98.5,97.5C 98.5569,96.391 98.8902,95.391 99.5,94.5C 101.985,92.3477 103.651,89.6811 104.5,86.5 Z"/></g>
<g><path style="opacity:1" fill="#a9a6a3" d="M 122.5,78.5 C 121.857,81.9527 120.524,85.1194 118.5,88C 120.877,90.9473 123.377,91.1139 126,88.5C 126.533,90.9386 127.7,91.6052 129.5,90.5C 129.5,92.1667 129.5,93.8333 129.5,95.5C 127.952,95.1788 127.285,94.1788 127.5,92.5C 124.819,92.4621 122.319,93.1287 120,94.5C 115.668,93.9981 113.168,91.6648 112.5,87.5C 114.577,83.1243 117.911,80.1243 122.5,78.5 Z"/></g>
<g><path style="opacity:1" fill="#4c5a65" d="M 63.5,103.5 C 62.8333,104.833 61.8333,105.833 60.5,106.5C 60.5,106.167 60.5,105.833 60.5,105.5C 60.1667,104.833 59.8333,104.167 59.5,103.5C 59.7395,99.1578 60.0728,94.8244 60.5,90.5C 57.4024,88.8179 54.0691,88.3179 50.5,89C 48.9297,90.3968 47.5964,91.8968 46.5,93.5C 47.1305,86.2074 51.1305,82.874 58.5,83.5C 58.5,84.5 58.5,85.5 58.5,86.5C 59.8333,86.5 61.1667,86.5 62.5,86.5C 62.7251,92.2923 63.0584,97.959 63.5,103.5 Z"/></g>
<g><path style="opacity:1" fill="#706c6b" d="M 107.5,87.5 C 108.833,87.5 110.167,87.5 111.5,87.5C 111.343,88.8734 111.51,90.2068 112,91.5C 116.044,96.709 120.544,101.376 125.5,105.5C 126.183,105.137 126.85,104.804 127.5,104.5C 127.229,106.43 126.229,107.764 124.5,108.5C 122.97,107.789 121.637,106.789 120.5,105.5C 119.002,102.669 116.669,101.002 113.5,100.5C 112.833,99.5 112.167,98.5 111.5,97.5C 110.833,96.1667 110.167,94.8333 109.5,93.5C 108.602,92.8423 107.602,92.1757 106.5,91.5C 107.246,90.2638 107.579,88.9305 107.5,87.5 Z"/></g>
<g><path style="opacity:1" fill="#87919c" d="M 59.5,103.5 C 59.8333,104.167 60.1667,104.833 60.5,105.5C 56.5998,102.963 52.2664,101.963 47.5,102.5C 48.4812,99.5789 49.3146,96.5789 50,93.5C 51.6768,92.4841 53.3435,91.4841 55,90.5C 55.9454,90.9054 56.6121,91.572 57,92.5C 57.7955,96.3121 58.6288,99.9788 59.5,103.5 Z"/></g>
<g><path style="opacity:1" fill="#4f5459" d="M 80.5,96.5 C 79.0687,97.7804 78.4021,99.4471 78.5,101.5C 77.4017,102.601 77.235,103.934 78,105.5C 79.2515,107.001 80.2515,108.668 81,110.5C 81.6924,109.975 82.1924,109.308 82.5,108.5C 79.9722,106.495 80.3055,104.829 83.5,103.5C 84.1835,103.863 84.8501,104.196 85.5,104.5C 84.3995,105.605 83.7329,106.938 83.5,108.5C 83.9118,110.973 82.9118,112.306 80.5,112.5C 79.6019,110.095 78.1019,108.095 76,106.5C 75.7216,107.416 75.2216,108.082 74.5,108.5C 75.3683,105.327 75.3683,102.327 74.5,99.5C 76.1667,96.1667 77.8333,92.8333 79.5,89.5C 80.377,86.7423 81.5437,84.0756 83,81.5C 82.7132,86.548 81.8799,91.548 80.5,96.5 Z"/></g>
<g><path style="opacity:1" fill="#82848e" d="M 189.5,92.5 C 194.12,94.3546 198.786,94.688 203.5,93.5C 205.167,93.5 206.833,93.5 208.5,93.5C 208.178,95.7224 208.845,97.5557 210.5,99C 206.907,98.2552 203.24,97.9218 199.5,98C 203.531,98.5308 204.197,100.031 201.5,102.5C 200.167,102.5 198.833,102.5 197.5,102.5C 197.833,99.5 196.5,98.1667 193.5,98.5C 189.623,98.5175 188.957,97.3508 191.5,95C 190.619,94.2917 189.953,93.4584 189.5,92.5 Z"/></g>
<g><path style="opacity:1" fill="#263036" d="M 109.5,93.5 C 110.167,94.8333 110.833,96.1667 111.5,97.5C 107.699,98.7146 104.033,98.7146 100.5,97.5C 103.779,96.9015 106.779,95.5681 109.5,93.5 Z"/></g>
<g><path style="opacity:1" fill="#908c89" d="M 111.5,87.5 C 111.833,87.5 112.167,87.5 112.5,87.5C 113.168,91.6648 115.668,93.9981 120,94.5C 122.319,93.1287 124.819,92.4621 127.5,92.5C 127.285,94.1788 127.952,95.1788 129.5,95.5C 128.833,98.5 128.167,101.5 127.5,104.5C 126.85,104.804 126.183,105.137 125.5,105.5C 120.544,101.376 116.044,96.709 112,91.5C 111.51,90.2068 111.343,88.8734 111.5,87.5 Z"/></g>
<g><path style="opacity:1" fill="#856064" d="M 180.5,92.5 C 181.833,94.1667 183.167,95.8333 184.5,97.5C 185.82,100.806 187.653,103.806 190,106.5C 190.495,108.473 190.662,110.473 190.5,112.5C 188.5,110.833 186.5,109.167 184.5,107.5C 184.167,106.833 183.833,106.167 183.5,105.5C 181.545,103.654 180.545,101.321 180.5,98.5C 179.62,96.6112 179.62,94.6112 180.5,92.5 Z"/></g>
<g><path style="opacity:1" fill="#272229" d="M 188.5,91.5 C 189.167,91.5 189.5,91.8333 189.5,92.5C 189.953,93.4584 190.619,94.2917 191.5,95C 188.957,97.3508 189.623,98.5175 193.5,98.5C 193.5,100.5 193.5,102.5 193.5,104.5C 194.552,104.351 195.552,104.517 196.5,105C 197.64,106.973 198.973,108.807 200.5,110.5C 199.624,111.251 198.624,111.751 197.5,112C 200.309,113.588 200.975,115.755 199.5,118.5C 201.494,120.816 202.494,123.482 202.5,126.5C 199.001,126.259 198.668,127.092 201.5,129C 200.892,130.231 200.559,131.564 200.5,133C 201.091,135.239 201.758,137.406 202.5,139.5C 200.446,139.365 198.779,140.032 197.5,141.5C 196.213,138.594 195.213,135.594 194.5,132.5C 194.748,125.497 193.415,118.83 190.5,112.5C 190.662,110.473 190.495,108.473 190,106.5C 187.653,103.806 185.82,100.806 184.5,97.5C 184.78,94.7276 184.113,92.2276 182.5,90C 183.448,89.5172 184.448,89.3505 185.5,89.5C 185.402,92.2476 186.402,92.9143 188.5,91.5 Z"/></g>
<g><path style="opacity:1" fill="#a09c9a" d="M 98.5,78.5 C 100.853,80.8599 102.853,83.5265 104.5,86.5C 103.651,89.6811 101.985,92.3477 99.5,94.5C 94.1058,97.398 88.4392,99.5647 82.5,101C 81.6667,101.833 80.8333,102.667 80,103.5C 79.7216,102.584 79.2216,101.918 78.5,101.5C 78.4021,99.4471 79.0687,97.7804 80.5,96.5C 80.369,97.2389 80.5357,97.9056 81,98.5C 82.0674,97.8095 83.2341,97.3095 84.5,97C 89.2216,93.9811 94.055,91.1478 99,88.5C 99.6588,85.1119 99.4922,81.7786 98.5,78.5 Z"/></g>
<g><path style="opacity:1" fill="#241910" d="M 98.5,97.5 C 99.1667,97.5 99.8333,97.5 100.5,97.5C 104.033,98.7146 107.699,98.7146 111.5,97.5C 112.167,98.5 112.833,99.5 113.5,100.5C 113.389,101.117 113.056,101.617 112.5,102C 106.442,102.739 100.442,102.406 94.5,101C 93.944,100.617 93.6107,100.117 93.5,99.5C 94.8195,98.0582 96.4862,97.3915 98.5,97.5 Z"/></g>
<g><path style="opacity:1" fill="#7e4246" d="M 47.5,102.5 C 52.2664,101.963 56.5998,102.963 60.5,105.5C 60.5,105.833 60.5,106.167 60.5,106.5C 59.1667,108.5 57.5,110.167 55.5,111.5C 54.1286,110.213 52.2953,109.547 50,109.5C 43.4978,110.666 37.3311,112.832 31.5,116C 27.631,120.037 23.631,123.87 19.5,127.5C 19.5,127.167 19.5,126.833 19.5,126.5C 23.8393,120.171 28.506,114.171 33.5,108.5C 38.4032,107.048 43.0699,105.048 47.5,102.5 Z"/></g>
<g><path style="opacity:1" fill="#7e7b79" d="M 99.5,94.5 C 98.8902,95.391 98.5569,96.391 98.5,97.5C 96.4862,97.3915 94.8195,98.0582 93.5,99.5C 90.4604,100.68 87.7937,102.347 85.5,104.5C 84.8501,104.196 84.1835,103.863 83.5,103.5C 80.3055,104.829 79.9722,106.495 82.5,108.5C 82.1924,109.308 81.6924,109.975 81,110.5C 80.2515,108.668 79.2515,107.001 78,105.5C 77.235,103.934 77.4017,102.601 78.5,101.5C 79.2216,101.918 79.7216,102.584 80,103.5C 80.8333,102.667 81.6667,101.833 82.5,101C 88.4392,99.5647 94.1058,97.398 99.5,94.5 Z"/></g>
<g><path style="opacity:1" fill="#292934" d="M 160.5,97.5 C 161.686,98.7054 161.686,100.039 160.5,101.5C 157.886,104.968 156.886,108.968 157.5,113.5C 154.28,110.117 150.614,107.284 146.5,105C 144.859,103.871 143.859,102.371 143.5,100.5C 144.195,98.3066 145.695,96.9733 148,96.5C 150.871,97.4014 153.704,98.4014 156.5,99.5C 157.524,98.1468 158.857,97.4802 160.5,97.5 Z"/></g>
<g><path style="opacity:1" fill="#652c25" d="M -0.5,83.5 C 0.14987,83.8039 0.816537,84.1373 1.5,84.5C 3.68481,92.6653 8.51814,98.6653 16,102.5C 16.772,102.355 17.4387,102.022 18,101.5C 20.6277,103.126 22.961,105.126 25,107.5C 27.1216,104.817 28.6216,105.15 29.5,108.5C 29.5,109.5 29.5,110.5 29.5,111.5C 28.194,113.473 26.5273,115.139 24.5,116.5C 24.6741,114.139 25.0074,111.806 25.5,109.5C 23.4012,108.769 21.4012,108.769 19.5,109.5C 18.1268,111.49 17.1268,113.657 16.5,116C 14.0982,116.814 11.7649,116.647 9.5,115.5C 6.69404,109.896 4.19404,104.229 2,98.5C 1.2917,99.3805 0.458367,100.047 -0.5,100.5C -0.5,94.8333 -0.5,89.1667 -0.5,83.5 Z"/></g>
<g><path style="opacity:1" fill="#cccdd3" d="M 155.5,75.5 C 158.394,76.8823 160.894,78.8823 163,81.5C 166.101,85.3912 168.934,89.3912 171.5,93.5C 175.1,99.0377 178.434,104.704 181.5,110.5C 183.453,115.405 185.12,120.405 186.5,125.5C 186.5,126.833 186.5,128.167 186.5,129.5C 186.5,134.167 186.5,138.833 186.5,143.5C 185.833,143.5 185.167,143.5 184.5,143.5C 184.825,136.313 184.491,129.313 183.5,122.5C 181.046,115.592 178.046,108.925 174.5,102.5C 169.713,93.246 163.713,84.9127 156.5,77.5C 156.167,76.8333 155.833,76.1667 155.5,75.5 Z"/></g>
<g><path style="opacity:1" fill="#66727b" d="M 76.5,89.5 C 77.5,89.5 78.5,89.5 79.5,89.5C 77.8333,92.8333 76.1667,96.1667 74.5,99.5C 73.2485,101.001 72.2485,102.668 71.5,104.5C 69.079,104.878 66.7457,105.545 64.5,106.5C 68.5072,100.828 72.5072,95.1615 76.5,89.5 Z"/></g>
<g><path style="opacity:1" fill="#67727c" d="M 139.5,94.5 C 138.957,94.56 138.624,94.8933 138.5,95.5C 140.179,98.8986 141.846,102.232 143.5,105.5C 141.517,105.157 140.183,105.824 139.5,107.5C 138.263,108.965 137.263,110.632 136.5,112.5C 135.625,110.432 134.459,108.432 133,106.5C 132.504,104.965 132.67,103.465 133.5,102C 130.496,97.477 131.829,95.6437 137.5,96.5C 137.67,95.1779 137.337,94.0113 136.5,93C 137.998,92.4153 138.998,92.9153 139.5,94.5 Z"/></g>
<g><path style="opacity:1" fill="#89393f" d="M 180.5,98.5 C 180.545,101.321 181.545,103.654 183.5,105.5C 182.691,107.028 182.024,108.694 181.5,110.5C 178.434,104.704 175.1,99.0377 171.5,93.5C 172.721,92.5354 174.054,92.702 175.5,94C 176.39,96.3913 178.057,97.8913 180.5,98.5 Z"/></g>
<g><path style="opacity:1" fill="#3d3d4d" d="M 193.5,98.5 C 196.5,98.1667 197.833,99.5 197.5,102.5C 198.833,102.5 200.167,102.5 201.5,102.5C 203.509,104.065 205.843,105.065 208.5,105.5C 206.628,108.207 204.295,110.54 201.5,112.5C 202.5,114.167 203.833,115.5 205.5,116.5C 202.531,117.668 202.198,119.001 204.5,120.5C 203.126,122.967 203.793,124.801 206.5,126C 205.207,126.49 203.873,126.657 202.5,126.5C 202.494,123.482 201.494,120.816 199.5,118.5C 200.975,115.755 200.309,113.588 197.5,112C 198.624,111.751 199.624,111.251 200.5,110.5C 198.973,108.807 197.64,106.973 196.5,105C 195.552,104.517 194.552,104.351 193.5,104.5C 193.5,102.5 193.5,100.5 193.5,98.5 Z"/></g>
<g><path style="opacity:1" fill="#474f58" d="M 153.5,77.5 C 154.5,77.5 155.5,77.5 156.5,77.5C 163.713,84.9127 169.713,93.246 174.5,102.5C 173.105,106.687 172.771,111.02 173.5,115.5C 173.167,116.167 172.833,116.833 172.5,117.5C 171.281,116.737 170.281,115.737 169.5,114.5C 168.41,115.391 168.41,116.391 169.5,117.5C 168.643,118.425 167.643,119.092 166.5,119.5C 166.5,119.167 166.5,118.833 166.5,118.5C 166.611,117.883 166.944,117.383 167.5,117C 164.854,116.503 162.187,116.336 159.5,116.5C 159.5,116.167 159.5,115.833 159.5,115.5C 162.167,115.5 164.833,115.5 167.5,115.5C 167.81,112.287 167.477,109.287 166.5,106.5C 164.361,97.8826 161.361,89.5493 157.5,81.5C 157.539,80.2438 157.039,79.2438 156,78.5C 154.841,79.566 154.008,79.2327 153.5,77.5 Z"/></g>
<g><path style="opacity:1" fill="#4d4644" d="M 93.5,99.5 C 93.6107,100.117 93.944,100.617 94.5,101C 100.442,102.406 106.442,102.739 112.5,102C 113.056,101.617 113.389,101.117 113.5,100.5C 116.669,101.002 119.002,102.669 120.5,105.5C 119.743,116.177 118.077,116.677 115.5,107C 111.809,106.58 108.142,106.08 104.5,105.5C 96.8079,103.332 89.8079,104.332 83.5,108.5C 83.7329,106.938 84.3995,105.605 85.5,104.5C 87.7937,102.347 90.4604,100.68 93.5,99.5 Z"/></g>
<g><path style="opacity:1" fill="#462226" d="M 55.5,111.5 C 54.8333,111.833 54.1667,112.167 53.5,112.5C 50.7938,112.575 48.1272,112.908 45.5,113.5C 35.0228,118.316 26.3561,125.316 19.5,134.5C 19.5,137.5 19.5,140.5 19.5,143.5C 18.5,143.5 17.5,143.5 16.5,143.5C 16.3347,139.818 16.5014,136.152 17,132.5C 17.3736,130.509 18.207,128.842 19.5,127.5C 23.631,123.87 27.631,120.037 31.5,116C 37.3311,112.832 43.4978,110.666 50,109.5C 52.2953,109.547 54.1286,110.213 55.5,111.5 Z"/></g>
<g><path style="opacity:1" fill="#4e261e" d="M 24.5,116.5 C 21.7663,118.955 19.7663,121.955 18.5,125.5C 18.6236,126.107 18.9569,126.44 19.5,126.5C 19.5,126.833 19.5,127.167 19.5,127.5C 18.207,128.842 17.3736,130.509 17,132.5C 16.5014,136.152 16.3347,139.818 16.5,143.5C 15.8333,143.5 15.1667,143.5 14.5,143.5C 14.4255,137.471 14.7588,131.471 15.5,125.5C 12.1429,125.106 9.80955,126.439 8.5,129.5C 5.88825,128.221 3.55492,126.555 1.5,124.5C 0.816537,124.863 0.14987,125.196 -0.5,125.5C -0.5,117.167 -0.5,108.833 -0.5,100.5C 0.458367,100.047 1.2917,99.3805 2,98.5C 4.19404,104.229 6.69404,109.896 9.5,115.5C 11.7649,116.647 14.0982,116.814 16.5,116C 17.1268,113.657 18.1268,111.49 19.5,109.5C 21.4012,108.769 23.4012,108.769 25.5,109.5C 25.0074,111.806 24.6741,114.139 24.5,116.5 Z"/></g>
<g><path style="opacity:1" fill="#6b2d2a" d="M 160.5,101.5 C 159.943,103.949 159.943,106.282 160.5,108.5C 162.382,109.093 164.215,109.76 166,110.5C 166.49,109.207 166.657,107.873 166.5,106.5C 167.477,109.287 167.81,112.287 167.5,115.5C 164.833,115.5 162.167,115.5 159.5,115.5C 158.5,115.167 157.833,114.5 157.5,113.5C 156.886,108.968 157.886,104.968 160.5,101.5 Z"/></g>
<g><path style="opacity:1" fill="#46535d" d="M 71.5,104.5 C 70.3918,106.781 69.0585,108.948 67.5,111C 63.4377,111.531 60.1043,113.364 57.5,116.5C 56.914,116.291 56.414,115.957 56,115.5C 55.1841,116.823 54.0174,117.489 52.5,117.5C 56.2775,113.636 60.2775,109.969 64.5,106.5C 66.7457,105.545 69.079,104.878 71.5,104.5 Z"/></g>
<g><path style="opacity:1" fill="#675c58" d="M 104.5,105.5 C 108.142,106.08 111.809,106.58 115.5,107C 118.077,116.677 119.743,116.177 120.5,105.5C 121.637,106.789 122.97,107.789 124.5,108.5C 125.803,112.382 126.47,116.382 126.5,120.5C 125.175,119.047 124.342,119.381 124,121.5C 123.246,126.972 122.079,132.306 120.5,137.5C 119.834,134.972 119.168,132.306 118.5,129.5C 117.719,130.729 117.219,132.062 117,133.5C 116.23,134.598 115.397,134.598 114.5,133.5C 114.34,131.801 114.506,130.134 115,128.5C 115.333,128.833 115.667,129.167 116,129.5C 116.129,126.997 117.129,124.997 119,123.5C 119.497,120.854 119.664,118.187 119.5,115.5C 115.167,115.833 113.167,113.833 113.5,109.5C 109.898,109.308 106.898,107.974 104.5,105.5 Z"/></g>
<g><path style="opacity:1" fill="#663439" d="M 143.5,105.5 C 150.299,109.961 155.633,115.627 159.5,122.5C 157.901,122.232 156.568,122.566 155.5,123.5C 155.167,123.5 154.833,123.5 154.5,123.5C 152.369,122.686 150.036,122.186 147.5,122C 147.167,121.667 146.833,121.333 146.5,121C 149.186,117.524 148.853,117.024 145.5,119.5C 143.551,117.923 141.551,116.423 139.5,115C 140.293,113.915 140.96,112.748 141.5,111.5C 140.147,110.476 139.48,109.143 139.5,107.5C 140.183,105.824 141.517,105.157 143.5,105.5 Z"/></g>
<g><path style="opacity:1" fill="#9b9fa9" d="M 222.5,111.5 C 221.282,112.161 219.949,112.828 218.5,113.5C 220.745,114.208 222.745,115.208 224.5,116.5C 219.716,117.161 215.382,116.161 211.5,113.5C 210.614,112.675 210.281,111.675 210.5,110.5C 214.5,110.833 218.5,111.167 222.5,111.5 Z"/></g>
<g><path style="opacity:1" fill="#c1b8bc" d="M 139.5,94.5 C 140.475,96.7952 141.808,98.7952 143.5,100.5C 143.859,102.371 144.859,103.871 146.5,105C 150.614,107.284 154.28,110.117 157.5,113.5C 157.833,114.5 158.5,115.167 159.5,115.5C 159.5,115.833 159.5,116.167 159.5,116.5C 160.804,120.824 163.137,121.49 166.5,118.5C 166.5,118.833 166.5,119.167 166.5,119.5C 166.167,120.833 165.833,122.167 165.5,123.5C 162.167,126.167 158.833,126.167 155.5,123.5C 156.568,122.566 157.901,122.232 159.5,122.5C 155.633,115.627 150.299,109.961 143.5,105.5C 141.846,102.232 140.179,98.8986 138.5,95.5C 138.624,94.8933 138.957,94.56 139.5,94.5 Z"/></g>
<g><path style="opacity:1" fill="#2e203b" d="M 159.5,116.5 C 162.187,116.336 164.854,116.503 167.5,117C 166.944,117.383 166.611,117.883 166.5,118.5C 163.137,121.49 160.804,120.824 159.5,116.5 Z"/></g>
<g><path style="opacity:1" fill="#28323d" d="M 74.5,99.5 C 75.3683,102.327 75.3683,105.327 74.5,108.5C 73.6766,111.48 72.3433,114.147 70.5,116.5C 68.6365,115.207 66.6365,115.207 64.5,116.5C 62.8103,118.519 61.1436,120.519 59.5,122.5C 53.7409,120.299 50.5742,122.299 50,128.5C 48.984,129.634 48.3173,129.301 48,127.5C 47.1628,129.844 45.8294,131.844 44,133.5C 43.7165,131.114 42.7165,130.448 41,131.5C 40.5831,130.244 39.7498,129.577 38.5,129.5C 39.3065,128.272 40.3065,127.272 41.5,126.5C 45.3504,123.739 49.0171,120.739 52.5,117.5C 54.0174,117.489 55.1841,116.823 56,115.5C 56.414,115.957 56.914,116.291 57.5,116.5C 60.1043,113.364 63.4377,111.531 67.5,111C 69.0585,108.948 70.3918,106.781 71.5,104.5C 72.2485,102.668 73.2485,101.001 74.5,99.5 Z"/></g>
<g><path style="opacity:1" fill="#18212d" d="M 127.5,104.5 C 129.544,109.591 131.878,114.591 134.5,119.5C 133.37,120.622 132.703,121.956 132.5,123.5C 131.732,124.263 131.232,125.263 131,126.5C 129.637,124.316 128.137,122.316 126.5,120.5C 126.47,116.382 125.803,112.382 124.5,108.5C 126.229,107.764 127.229,106.43 127.5,104.5 Z"/></g>
<g><path style="opacity:1" fill="#69222b" d="M 183.5,105.5 C 183.833,106.167 184.167,106.833 184.5,107.5C 188.066,113.007 189.066,119.007 187.5,125.5C 187.167,125.5 186.833,125.5 186.5,125.5C 185.12,120.405 183.453,115.405 181.5,110.5C 182.024,108.694 182.691,107.028 183.5,105.5 Z"/></g>
<g><path style="opacity:1" fill="#8f9499" d="M 53.5,112.5 C 49.6018,114.531 45.7685,116.864 42,119.5C 40.4022,121.895 40.2355,124.228 41.5,126.5C 40.3065,127.272 39.3065,128.272 38.5,129.5C 36.3477,131.985 33.6811,133.651 30.5,134.5C 29.7611,134.631 29.0944,134.464 28.5,134C 30.2098,130.281 32.7098,127.114 36,124.5C 36.7393,122.779 37.5726,121.113 38.5,119.5C 41.464,118.192 43.7974,116.192 45.5,113.5C 48.1272,112.908 50.7938,112.575 53.5,112.5 Z"/></g>
<g><path style="opacity:1" fill="#4e2026" d="M 184.5,107.5 C 186.5,109.167 188.5,110.833 190.5,112.5C 193.415,118.83 194.748,125.497 194.5,132.5C 191.833,130.5 189.5,128.167 187.5,125.5C 189.066,119.007 188.066,113.007 184.5,107.5 Z"/></g>
<g><path style="opacity:1" fill="#866966" d="M 33.5,108.5 C 28.506,114.171 23.8393,120.171 19.5,126.5C 18.9569,126.44 18.6236,126.107 18.5,125.5C 19.7663,121.955 21.7663,118.955 24.5,116.5C 26.5273,115.139 28.194,113.473 29.5,111.5C 30.8333,110.5 32.1667,109.5 33.5,108.5 Z"/></g>
<g><path style="opacity:1" fill="#746662" d="M 80.5,112.5 C 79.0695,112.579 77.7362,112.246 76.5,111.5C 75.8076,112.025 75.3076,112.692 75,113.5C 74.6988,116.98 73.8655,120.313 72.5,123.5C 72.7472,124.713 73.4138,125.38 74.5,125.5C 74.1667,128.167 73.8333,130.833 73.5,133.5C 72.623,136.258 71.4563,138.924 70,141.5C 69.4056,136.863 67.5722,132.863 64.5,129.5C 66.5,125.167 68.5,120.833 70.5,116.5C 72.3433,114.147 73.6766,111.48 74.5,108.5C 75.2216,108.082 75.7216,107.416 76,106.5C 78.1019,108.095 79.6019,110.095 80.5,112.5 Z"/></g>
<g><path style="opacity:1" fill="#3f1e21" d="M 139.5,107.5 C 139.48,109.143 140.147,110.476 141.5,111.5C 140.96,112.748 140.293,113.915 139.5,115C 141.551,116.423 143.551,117.923 145.5,119.5C 148.853,117.024 149.186,117.524 146.5,121C 146.833,121.333 147.167,121.667 147.5,122C 150.036,122.186 152.369,122.686 154.5,123.5C 152.5,124.833 150.833,126.5 149.5,128.5C 147.654,130.03 146.654,132.03 146.5,134.5C 143.053,136.461 141.053,139.461 140.5,143.5C 138.5,143.5 136.5,143.5 134.5,143.5C 132.329,141.159 130.662,138.493 129.5,135.5C 131.109,131.627 132.109,127.627 132.5,123.5C 136.408,120.698 137.741,117.032 136.5,112.5C 137.263,110.632 138.263,108.965 139.5,107.5 Z"/></g>
<g><path style="opacity:1" fill="#3c2119" d="M 14.5,143.5 C 9.5,143.5 4.5,143.5 -0.5,143.5C -0.5,137.5 -0.5,131.5 -0.5,125.5C 0.14987,125.196 0.816537,124.863 1.5,124.5C 3.55492,126.555 5.88825,128.221 8.5,129.5C 9.80955,126.439 12.1429,125.106 15.5,125.5C 14.7588,131.471 14.4255,137.471 14.5,143.5 Z"/></g>
<g><path style="opacity:1" fill="#10161f" d="M 183.5,122.5 C 184.491,129.313 184.825,136.313 184.5,143.5C 175.833,143.5 167.167,143.5 158.5,143.5C 160.241,141.023 161.741,138.356 163,135.5C 163.249,136.624 163.749,137.624 164.5,138.5C 166.322,136.206 168.156,133.872 170,131.5C 170.175,127.789 170.675,124.122 171.5,120.5C 172.287,121.242 172.953,122.075 173.5,123C 177.111,123.314 180.444,123.147 183.5,122.5 Z"/></g>
<g><path style="opacity:1" fill="#565b61" d="M 45.5,113.5 C 43.7974,116.192 41.464,118.192 38.5,119.5C 37.5726,121.113 36.7393,122.779 36,124.5C 32.7098,127.114 30.2098,130.281 28.5,134C 29.0944,134.464 29.7611,134.631 30.5,134.5C 29.6261,135.525 28.4595,136.192 27,136.5C 24.5667,135.521 22.0667,134.855 19.5,134.5C 26.3561,125.316 35.0228,118.316 45.5,113.5 Z"/></g>
<g><path style="opacity:1" fill="#515e66" d="M 154.5,123.5 C 154.833,123.5 155.167,123.5 155.5,123.5C 158.833,126.167 162.167,126.167 165.5,123.5C 164.802,127.37 162.468,129.87 158.5,131C 155.833,131.667 153.167,131.667 150.5,131C 149.748,130.329 149.414,129.496 149.5,128.5C 150.833,126.5 152.5,124.833 154.5,123.5 Z"/></g>
<g><path style="opacity:1" fill="#505364" d="M 208.5,105.5 C 211.898,107.281 215.398,108.948 219,110.5C 220.579,109.2 221.745,109.534 222.5,111.5C 218.5,111.167 214.5,110.833 210.5,110.5C 210.281,111.675 210.614,112.675 211.5,113.5C 215.382,116.161 219.716,117.161 224.5,116.5C 225.016,117.758 224.35,118.758 222.5,119.5C 216.847,119.25 211.514,118.083 206.5,116C 211.009,118.222 215.342,120.722 219.5,123.5C 217.167,124.167 214.833,124.833 212.5,125.5C 213.5,126.333 214.5,127.167 215.5,128C 214.833,128.333 214.167,128.667 213.5,129C 215.578,130.486 216.911,132.486 217.5,135C 222.06,137.107 226.06,139.94 229.5,143.5C 228.167,143.5 226.833,143.5 225.5,143.5C 224.067,142.167 222.733,140.667 221.5,139C 215.298,139.242 209.964,136.908 205.5,132C 207.577,131.808 209.577,131.308 211.5,130.5C 208.07,129.657 205.07,128.324 202.5,126.5C 203.873,126.657 205.207,126.49 206.5,126C 203.793,124.801 203.126,122.967 204.5,120.5C 202.198,119.001 202.531,117.668 205.5,116.5C 203.833,115.5 202.5,114.167 201.5,112.5C 204.295,110.54 206.628,108.207 208.5,105.5 Z"/></g>
<g><path style="opacity:1" fill="#323c45" d="M 174.5,102.5 C 178.046,108.925 181.046,115.592 183.5,122.5C 180.444,123.147 177.111,123.314 173.5,123C 172.953,122.075 172.287,121.242 171.5,120.5C 170.675,124.122 170.175,127.789 170,131.5C 168.156,133.872 166.322,136.206 164.5,138.5C 163.749,137.624 163.249,136.624 163,135.5C 161.741,138.356 160.241,141.023 158.5,143.5C 155.833,143.5 153.167,143.5 150.5,143.5C 149.934,140.127 148.601,137.127 146.5,134.5C 146.654,132.03 147.654,130.03 149.5,128.5C 149.414,129.496 149.748,130.329 150.5,131C 153.167,131.667 155.833,131.667 158.5,131C 162.468,129.87 164.802,127.37 165.5,123.5C 165.833,122.167 166.167,120.833 166.5,119.5C 167.643,119.092 168.643,118.425 169.5,117.5C 168.41,116.391 168.41,115.391 169.5,114.5C 170.281,115.737 171.281,116.737 172.5,117.5C 172.833,116.833 173.167,116.167 173.5,115.5C 172.771,111.02 173.105,106.687 174.5,102.5 Z"/></g>
<g><path style="opacity:1" fill="#584e4c" d="M 74.5,125.5 C 75.29,126.609 75.79,127.942 76,129.5C 76.6667,130.833 77.3333,130.833 78,129.5C 78.6667,131.5 79.3333,133.5 80,135.5C 80.6667,134.833 81.3333,134.167 82,133.5C 82.8662,136.979 84.0328,140.312 85.5,143.5C 83.8333,143.5 82.1667,143.5 80.5,143.5C 79.2825,142.839 77.9492,142.172 76.5,141.5C 76.2343,138.35 75.2343,135.683 73.5,133.5C 73.8333,130.833 74.1667,128.167 74.5,125.5 Z"/></g>
<g><path style="opacity:1" fill="#918981" d="M 86.5,135.5 C 86.1667,134.167 85.8333,132.833 85.5,131.5C 85.6621,129.473 85.4955,127.473 85,125.5C 83.6439,124.62 82.1439,124.286 80.5,124.5C 80.0084,118.474 82.3418,114.14 87.5,111.5C 87.9175,110.778 88.5842,110.278 89.5,110C 96.8623,108.725 103.862,109.558 110.5,112.5C 113.569,119.259 114.236,126.259 112.5,133.5C 108.381,132.042 105.547,133.375 104,137.5C 103.009,136.061 101.676,135.061 100,134.5C 99.6322,135.91 98.7989,136.91 97.5,137.5C 95.0816,134.602 92.5816,134.268 90,136.5C 88.8615,136.011 87.6948,135.678 86.5,135.5 Z"/></g>
<g><path style="opacity:1" fill="#9f988f" d="M 87.5,111.5 C 90.3189,111.131 93.1523,110.798 96,110.5C 100.496,111.25 104.996,111.916 109.5,112.5C 110.172,115.71 111.172,118.876 112.5,122C 112.284,124.507 111.284,125.34 109.5,124.5C 108.571,125.689 108.238,127.022 108.5,128.5C 107.5,128.5 106.5,128.5 105.5,128.5C 105.891,131.838 104.724,132.838 102,131.5C 100.715,131.95 99.548,132.617 98.5,133.5C 97.8076,132.975 97.3076,132.308 97,131.5C 95.3052,132.157 93.4719,132.157 91.5,131.5C 90.5,131.167 89.5,130.833 88.5,130.5C 89.6085,128.786 88.9418,128.119 86.5,128.5C 86.6602,126.801 86.4935,125.134 86,123.5C 84.5295,122.619 83.6962,121.286 83.5,119.5C 84.3066,116.554 85.6399,113.887 87.5,111.5 Z"/></g>
<g><path style="opacity:1" fill="#81848f" d="M 222.5,119.5 C 221.798,121.557 221.465,123.557 221.5,125.5C 226.079,127.584 229.079,131.084 230.5,136C 230.333,136.5 230.167,137 230,137.5C 228.266,136.362 226.432,135.862 224.5,136C 227.194,138.347 230.194,140.18 233.5,141.5C 233.833,142.167 234.167,142.833 234.5,143.5C 232.833,143.5 231.167,143.5 229.5,143.5C 226.06,139.94 222.06,137.107 217.5,135C 216.911,132.486 215.578,130.486 213.5,129C 214.167,128.667 214.833,128.333 215.5,128C 214.5,127.167 213.5,126.333 212.5,125.5C 214.833,124.833 217.167,124.167 219.5,123.5C 215.342,120.722 211.009,118.222 206.5,116C 211.514,118.083 216.847,119.25 222.5,119.5 Z"/></g>
<g><path style="opacity:1" fill="#857c75" d="M 104.5,105.5 C 106.898,107.974 109.898,109.308 113.5,109.5C 113.167,113.833 115.167,115.833 119.5,115.5C 119.664,118.187 119.497,120.854 119,123.5C 117.129,124.997 116.129,126.997 116,129.5C 115.667,129.167 115.333,128.833 115,128.5C 114.506,130.134 114.34,131.801 114.5,133.5C 114.34,135.153 113.674,136.486 112.5,137.5C 110.263,136.551 107.929,135.884 105.5,135.5C 105.688,137.103 105.188,138.437 104,139.5C 100.674,139.034 97.3402,138.701 94,138.5C 92.1878,138.493 90.6878,139.16 89.5,140.5C 88.6801,138.681 87.6801,137.014 86.5,135.5C 87.6948,135.678 88.8615,136.011 90,136.5C 92.5816,134.268 95.0816,134.602 97.5,137.5C 98.7989,136.91 99.6322,135.91 100,134.5C 101.676,135.061 103.009,136.061 104,137.5C 105.547,133.375 108.381,132.042 112.5,133.5C 114.236,126.259 113.569,119.259 110.5,112.5C 103.862,109.558 96.8623,108.725 89.5,110C 88.5842,110.278 87.9175,110.778 87.5,111.5C 82.3418,114.14 80.0084,118.474 80.5,124.5C 82.1439,124.286 83.6439,124.62 85,125.5C 85.4955,127.473 85.6621,129.473 85.5,131.5C 84.8386,130.282 84.1719,128.949 83.5,127.5C 82.7193,128.737 81.7193,129.737 80.5,130.5C 79.6764,127.215 79.1764,123.882 79,120.5C 77.4084,122.202 75.9084,123.868 74.5,125.5C 73.4138,125.38 72.7472,124.713 72.5,123.5C 73.8655,120.313 74.6988,116.98 75,113.5C 75.3076,112.692 75.8076,112.025 76.5,111.5C 77.7362,112.246 79.0695,112.579 80.5,112.5C 82.9118,112.306 83.9118,110.973 83.5,108.5C 89.8079,104.332 96.8079,103.332 104.5,105.5 Z"/></g>
<g><path style="opacity:1" fill="#3f4051" d="M 202.5,126.5 C 205.07,128.324 208.07,129.657 211.5,130.5C 209.577,131.308 207.577,131.808 205.5,132C 209.964,136.908 215.298,139.242 221.5,139C 222.733,140.667 224.067,142.167 225.5,143.5C 216.167,143.5 206.833,143.5 197.5,143.5C 197.5,142.833 197.5,142.167 197.5,141.5C 198.779,140.032 200.446,139.365 202.5,139.5C 201.758,137.406 201.091,135.239 200.5,133C 200.559,131.564 200.892,130.231 201.5,129C 198.668,127.092 199.001,126.259 202.5,126.5 Z"/></g>
<g><path style="opacity:1" fill="#562e2c" d="M 62.5,133.5 C 65.2067,136.247 66.8734,139.58 67.5,143.5C 64.1667,143.5 60.8333,143.5 57.5,143.5C 58.4199,139.706 60.0865,136.373 62.5,133.5 Z"/></g>
<g><path style="opacity:1" fill="#372421" d="M 126.5,120.5 C 128.137,122.316 129.637,124.316 131,126.5C 131.232,125.263 131.732,124.263 132.5,123.5C 132.109,127.627 131.109,131.627 129.5,135.5C 130.662,138.493 132.329,141.159 134.5,143.5C 127.833,143.5 121.167,143.5 114.5,143.5C 115.748,137.964 116.915,137.63 118,142.5C 119.372,141.09 120.205,139.423 120.5,137.5C 122.079,132.306 123.246,126.972 124,121.5C 124.342,119.381 125.175,119.047 126.5,120.5 Z"/></g>
<g><path style="opacity:1" fill="#080d15" d="M 70.5,116.5 C 68.5,120.833 66.5,125.167 64.5,129.5C 63.3263,130.514 62.6596,131.847 62.5,133.5C 60.0865,136.373 58.4199,139.706 57.5,143.5C 52.5,143.5 47.5,143.5 42.5,143.5C 47.7876,136.21 53.4543,129.21 59.5,122.5C 61.1436,120.519 62.8103,118.519 64.5,116.5C 66.6365,115.207 68.6365,115.207 70.5,116.5 Z"/></g>
<g><path style="opacity:1" fill="#a83f17" d="M 186.5,129.5 C 187.794,130.29 188.961,131.29 190,132.5C 191.759,136.009 192.926,139.675 193.5,143.5C 191.167,143.5 188.833,143.5 186.5,143.5C 186.5,138.833 186.5,134.167 186.5,129.5 Z"/></g>
<g><path style="opacity:1" fill="#1b222d" d="M 59.5,122.5 C 53.4543,129.21 47.7876,136.21 42.5,143.5C 34.8333,143.5 27.1667,143.5 19.5,143.5C 19.5,140.5 19.5,137.5 19.5,134.5C 22.0667,134.855 24.5667,135.521 27,136.5C 28.4595,136.192 29.6261,135.525 30.5,134.5C 33.6811,133.651 36.3477,131.985 38.5,129.5C 39.7498,129.577 40.5831,130.244 41,131.5C 42.7165,130.448 43.7165,131.114 44,133.5C 45.8294,131.844 47.1628,129.844 48,127.5C 48.3173,129.301 48.984,129.634 50,128.5C 50.5742,122.299 53.7409,120.299 59.5,122.5 Z"/></g>
<g><path style="opacity:1" fill="#3c273e" d="M 186.5,125.5 C 186.833,125.5 187.167,125.5 187.5,125.5C 189.5,128.167 191.833,130.5 194.5,132.5C 195.213,135.594 196.213,138.594 197.5,141.5C 197.5,142.167 197.5,142.833 197.5,143.5C 196.167,143.5 194.833,143.5 193.5,143.5C 192.926,139.675 191.759,136.009 190,132.5C 188.961,131.29 187.794,130.29 186.5,129.5C 186.5,128.167 186.5,126.833 186.5,125.5 Z"/></g>
<g><path style="opacity:1" fill="#373232" d="M 64.5,129.5 C 67.5722,132.863 69.4056,136.863 70,141.5C 71.4563,138.924 72.623,136.258 73.5,133.5C 75.2343,135.683 76.2343,138.35 76.5,141.5C 77.9492,142.172 79.2825,142.839 80.5,143.5C 76.1667,143.5 71.8333,143.5 67.5,143.5C 66.8734,139.58 65.2067,136.247 62.5,133.5C 62.6596,131.847 63.3263,130.514 64.5,129.5 Z"/></g>
<g><path style="opacity:1" fill="#746b66" d="M 85.5,131.5 C 85.8333,132.833 86.1667,134.167 86.5,135.5C 87.6801,137.014 88.6801,138.681 89.5,140.5C 90.6878,139.16 92.1878,138.493 94,138.5C 97.3402,138.701 100.674,139.034 104,139.5C 105.188,138.437 105.688,137.103 105.5,135.5C 107.929,135.884 110.263,136.551 112.5,137.5C 111.85,139.435 111.517,141.435 111.5,143.5C 102.833,143.5 94.1667,143.5 85.5,143.5C 84.0328,140.312 82.8662,136.979 82,133.5C 81.3333,134.167 80.6667,134.833 80,135.5C 79.3333,133.5 78.6667,131.5 78,129.5C 77.3333,130.833 76.6667,130.833 76,129.5C 75.79,127.942 75.29,126.609 74.5,125.5C 75.9084,123.868 77.4084,122.202 79,120.5C 79.1764,123.882 79.6764,127.215 80.5,130.5C 81.7193,129.737 82.7193,128.737 83.5,127.5C 84.1719,128.949 84.8386,130.282 85.5,131.5 Z"/></g>
<g><path style="opacity:1" fill="#22172e" d="M 146.5,134.5 C 148.601,137.127 149.934,140.127 150.5,143.5C 147.167,143.5 143.833,143.5 140.5,143.5C 141.053,139.461 143.053,136.461 146.5,134.5 Z"/></g>
<g><path style="opacity:1" fill="#494240" d="M 120.5,137.5 C 120.205,139.423 119.372,141.09 118,142.5C 116.915,137.63 115.748,137.964 114.5,143.5C 113.5,143.5 112.5,143.5 111.5,143.5C 111.517,141.435 111.85,139.435 112.5,137.5C 113.674,136.486 114.34,135.153 114.5,133.5C 115.397,134.598 116.23,134.598 117,133.5C 117.219,132.062 117.719,130.729 118.5,129.5C 119.168,132.306 119.834,134.972 120.5,137.5 Z"/></g>
</svg>
