<?xml version="1.0" encoding="UTF-8"?>
<!DOCTYPE svg PUBLIC "-//W3C//DTD SVG 1.1//EN" "http://www.w3.org/Graphics/SVG/1.1/DTD/svg11.dtd">
<svg xmlns="http://www.w3.org/2000/svg" version="1.1" width="256px" height="144px" style="shape-rendering:geometricPrecision; text-rendering:geometricPrecision; image-rendering:optimizeQuality; fill-rule:evenodd; clip-rule:evenodd" xmlns:xlink="http://www.w3.org/1999/xlink">
<g><path style="opacity:0.996" fill="#0e1612" d="M 85.5,-0.5 C 87.1667,-0.5 88.8333,-0.5 90.5,-0.5C 90.1667,0.5 89.5,1.16667 88.5,1.5C 86.9731,1.57298 85.9731,0.906316 85.5,-0.5 Z"/></g>
<g><path style="opacity:1" fill="#2f2f36" d="M 219.5,-0.5 C 231.5,-0.5 243.5,-0.5 255.5,-0.5C 255.5,4.5 255.5,9.5 255.5,14.5C 253.5,14.1667 251.5,13.8333 249.5,13.5C 247.004,12.4196 244.67,11.0862 242.5,9.5C 240.611,8.25844 238.611,8.25844 236.5,9.5C 231.567,5.47098 226.4,2.47098 221,0.5C 219.893,1.7119 219.393,1.37857 219.5,-0.5 Z"/></g>
<g><path style="opacity:1" fill="#f0d18f" d="M 90.5,-0.5 C 100.5,-0.5 110.5,-0.5 120.5,-0.5C 117.5,1.25522 114.167,2.58855 110.5,3.5C 106.524,2.5576 102.524,2.39093 98.5,3C 95.303,6.19589 91.803,9.02923 88,11.5C 87.5,11.3333 87,11.1667 86.5,11C 88.3195,7.68998 90.9861,5.35665 94.5,4C 93.1667,3.33333 91.8333,3.33333 90.5,4C 86.9349,7.39554 83.6015,10.8955 80.5,14.5C 76.6477,18.5738 73.981,17.9071 72.5,12.5C 74.2774,11.3995 76.2774,10.5662 78.5,10C 79.7619,7.72398 81.4286,5.89065 83.5,4.5C 83.8417,3.66175 84.5084,3.32842 85.5,3.5C 86.7095,3.06795 87.7095,2.40128 88.5,1.5C 89.5,1.16667 90.1667,0.5 90.5,-0.5 Z"/></g>
<g><path style="opacity:0.999" fill="#2a2639" d="M -0.5,-0.5 C 1.16667,-0.5 2.83333,-0.5 4.5,-0.5C 3.64733,2.36804 2.314,5.03471 0.5,7.5C 0.166667,7.5 -0.166667,7.5 -0.5,7.5C -0.5,4.83333 -0.5,2.16667 -0.5,-0.5 Z"/></g>
<g><path style="opacity:1" fill="#8b7e5d" d="M 83.5,-0.5 C 84.1667,-0.5 84.8333,-0.5 85.5,-0.5C 85.9731,0.906316 86.9731,1.57298 88.5,1.5C 87.7095,2.40128 86.7095,3.06795 85.5,3.5C 84.0484,2.69808 82.3817,2.19808 80.5,2C 81.5707,1.14825 82.5707,0.314913 83.5,-0.5 Z"/></g>
<g><path style="opacity:1" fill="#357f45" d="M 73.5,-0.5 C 76.8333,-0.5 80.1667,-0.5 83.5,-0.5C 82.5707,0.314913 81.5707,1.14825 80.5,2C 82.3817,2.19808 84.0484,2.69808 85.5,3.5C 84.5084,3.32842 83.8417,3.66175 83.5,4.5C 82.8333,4.5 82.1667,4.5 81.5,4.5C 80.1667,4.5 78.8333,4.5 77.5,4.5C 76.7005,2.42651 75.3671,0.759841 73.5,-0.5 Z"/></g>
<g><path style="opacity:1" fill="#71a671" d="M 39.5,2.5 C 38.7611,2.36899 38.0944,2.53566 37.5,3C 40.681,5.09168 43.681,7.42502 46.5,10C 44.4021,9.96776 42.4021,9.3011 40.5,8C 38.9571,5.0517 36.7905,4.21836 34,5.5C 33.5172,6.44802 33.3505,7.44802 33.5,8.5C 32.2503,5.57753 32.9169,2.91087 35.5,0.5C 37.0255,0.994306 38.3588,1.66097 39.5,2.5 Z"/></g>
<g><path style="opacity:1" fill="#5e503c" d="M 187.5,-0.5 C 191.167,-0.5 194.833,-0.5 198.5,-0.5C 197.478,5.20642 195.144,10.2064 191.5,14.5C 191.737,13.209 191.404,12.209 190.5,11.5C 189.041,11.5674 187.708,11.2341 186.5,10.5C 187.244,6.88147 187.577,3.21481 187.5,-0.5 Z"/></g>
<g><path style="opacity:1" fill="#d1a775" d="M 120.5,-0.5 C 123.167,-0.5 125.833,-0.5 128.5,-0.5C 127.28,1.28209 126.614,3.28209 126.5,5.5C 125.448,5.35055 124.448,5.51722 123.5,6C 125.568,6.68688 127.568,6.52022 129.5,5.5C 131.111,6.32025 131.778,7.65358 131.5,9.5C 127.446,10.1845 123.446,10.1845 119.5,9.5C 121.711,7.00477 120.878,5.3381 117,4.5C 111.525,7.12275 106.025,7.12275 100.5,4.5C 96.9311,5.58999 94.9311,7.92333 94.5,11.5C 91.1884,11.149 88.855,12.4823 87.5,15.5C 85.2776,15.178 83.4443,15.8446 82,17.5C 81.4867,16.4734 80.9867,15.4734 80.5,14.5C 83.6015,10.8955 86.9349,7.39554 90.5,4C 91.8333,3.33333 93.1667,3.33333 94.5,4C 90.9861,5.35665 88.3195,7.68998 86.5,11C 87,11.1667 87.5,11.3333 88,11.5C 91.803,9.02923 95.303,6.19589 98.5,3C 102.524,2.39093 106.524,2.5576 110.5,3.5C 114.167,2.58855 117.5,1.25522 120.5,-0.5 Z"/></g>
<g><path style="opacity:1" fill="#709a68" d="M 146.5,-0.5 C 151.167,-0.5 155.833,-0.5 160.5,-0.5C 160.369,0.238911 160.536,0.905578 161,1.5C 162.302,2.0848 163.469,2.75147 164.5,3.5C 161.663,3.68447 159.663,5.0178 158.5,7.5C 157.308,5.12173 155.641,3.12173 153.5,1.5C 150.892,1.92284 148.558,2.92284 146.5,4.5C 145.948,2.9974 145.948,1.33073 146.5,-0.5 Z"/></g>
<g><path style="opacity:1" fill="#7b8a62" d="M 63.5,-0.5 C 66.8333,-0.5 70.1667,-0.5 73.5,-0.5C 75.3671,0.759841 76.7005,2.42651 77.5,4.5C 74.7531,4.18665 72.0865,4.51998 69.5,5.5C 70.0253,6.19238 70.6919,6.69238 71.5,7C 69.4062,8.35151 67.0728,8.85151 64.5,8.5C 64.366,10.2915 64.6993,11.9582 65.5,13.5C 62.6916,13.0305 60.3582,11.6972 58.5,9.5C 61.2979,8.0311 64.2979,7.19776 67.5,7C 66.2068,6.50999 64.8734,6.34332 63.5,6.5C 63.5,4.16667 63.5,1.83333 63.5,-0.5 Z"/></g>
<g><path style="opacity:1" fill="#41372c" d="M 198.5,-0.5 C 201.5,-0.5 204.5,-0.5 207.5,-0.5C 204.882,3.29074 202.049,6.9574 199,10.5C 198.53,11.5768 198.697,12.5768 199.5,13.5C 196.554,15.4215 193.554,17.4215 190.5,19.5C 190.216,17.5853 190.549,15.9187 191.5,14.5C 195.144,10.2064 197.478,5.20642 198.5,-0.5 Z"/></g>
<g><path style="opacity:1" fill="#3c452c" d="M 209.5,1.5 C 213.013,3.07636 216.68,4.74303 220.5,6.5C 225.648,6.10407 229.982,8.4374 233.5,13.5C 232.5,15.1667 231.167,16.5 229.5,17.5C 223.595,13.9911 216.928,10.9911 209.5,8.5C 207.004,9.25148 204.67,10.2515 202.5,11.5C 202.062,11.5654 201.728,11.3988 201.5,11C 204.031,7.64249 206.698,4.47583 209.5,1.5 Z"/></g>
<g><path style="opacity:1" fill="#bbad7a" d="M 4.5,-0.5 C 17.1667,-0.5 29.8333,-0.5 42.5,-0.5C 43.6002,0.558465 44.9336,1.3918 46.5,2C 44.8659,2.49351 43.1992,2.66018 41.5,2.5C 40.8333,2.5 40.1667,2.5 39.5,2.5C 38.3588,1.66097 37.0255,0.994306 35.5,0.5C 32.9169,2.91087 32.2503,5.57753 33.5,8.5C 34.1098,9.39105 34.4431,10.391 34.5,11.5C 32.5327,13.3039 30.6993,15.3039 29,17.5C 28.3224,19.5976 28.4891,21.5976 29.5,23.5C 28.8213,25.8139 27.488,26.1472 25.5,24.5C 24.5,25.1667 23.5,25.8333 22.5,26.5C 21.0052,25.2947 19.6719,25.2947 18.5,26.5C 15.0977,26.6576 11.7644,26.3242 8.5,25.5C 6.61019,23.8053 4.27685,23.4719 1.5,24.5C 2.10451,20.4483 3.43784,16.6149 5.5,13C 5.33333,12.5 5.16667,12 5,11.5C 4.32924,12.2524 3.4959,12.5858 2.5,12.5C 0.743953,11.4479 0.0772868,9.78121 0.5,7.5C 2.314,5.03471 3.64733,2.36804 4.5,-0.5 Z"/></g>
<g><path style="opacity:1" fill="#a59e73" d="M 142.5,-0.5 C 143.833,-0.5 145.167,-0.5 146.5,-0.5C 145.948,1.33073 145.948,2.9974 146.5,4.5C 148.558,2.92284 150.892,1.92284 153.5,1.5C 155.641,3.12173 157.308,5.12173 158.5,7.5C 157.92,9.74876 156.587,11.4154 154.5,12.5C 150.043,14.0625 147.71,12.3958 147.5,7.5C 145.61,7.2965 144.11,7.96317 143,9.5C 142.436,7.43823 142.936,5.60489 144.5,4C 143.293,2.69981 142.626,1.19981 142.5,-0.5 Z"/></g>
<g><path style="opacity:1" fill="#373c31" d="M 209.5,-0.5 C 212.833,-0.5 216.167,-0.5 219.5,-0.5C 219.393,1.37857 219.893,1.7119 221,0.5C 226.4,2.47098 231.567,5.47098 236.5,9.5C 236.262,11.4044 235.262,12.7377 233.5,13.5C 229.982,8.4374 225.648,6.10407 220.5,6.5C 216.68,4.74303 213.013,3.07636 209.5,1.5C 209.5,0.833333 209.5,0.166667 209.5,-0.5 Z"/></g>
<g><path style="opacity:1" fill="#455e43" d="M 160.5,-0.5 C 169.5,-0.5 178.5,-0.5 187.5,-0.5C 187.577,3.21481 187.244,6.88147 186.5,10.5C 184.304,11.8381 182.304,13.5047 180.5,15.5C 180.752,12.0682 179.419,11.0682 176.5,12.5C 175.714,17.7813 175.214,23.1146 175,28.5C 174.329,29.2524 173.496,29.5858 172.5,29.5C 174.689,25.6121 175.023,21.6121 173.5,17.5C 173.5,14.5 173.5,11.5 173.5,8.5C 170.642,8.02827 168.642,9.02827 167.5,11.5C 167.768,9.90097 167.434,8.56764 166.5,7.5C 166.267,5.93819 165.6,4.60486 164.5,3.5C 163.469,2.75147 162.302,2.0848 161,1.5C 160.536,0.905578 160.369,0.238911 160.5,-0.5 Z"/></g>
<g><path style="opacity:1" fill="#435029" d="M 229.5,17.5 C 229.267,19.0618 228.6,20.3951 227.5,21.5C 226.209,21.7373 225.209,21.404 224.5,20.5C 223.103,18.8868 220.769,17.8868 217.5,17.5C 212.071,16.2532 207.071,14.2532 202.5,11.5C 204.67,10.2515 207.004,9.25148 209.5,8.5C 216.928,10.9911 223.595,13.9911 229.5,17.5 Z"/></g>
<g><path style="opacity:1" fill="#538756" d="M 42.5,-0.5 C 49.5,-0.5 56.5,-0.5 63.5,-0.5C 63.5,1.83333 63.5,4.16667 63.5,6.5C 64.8734,6.34332 66.2068,6.50999 67.5,7C 64.2979,7.19776 61.2979,8.0311 58.5,9.5C 60.3582,11.6972 62.6916,13.0305 65.5,13.5C 67.3185,14.9362 67.6518,16.6029 66.5,18.5C 63.5047,19.7237 60.5047,19.7237 57.5,18.5C 57.5,17.8333 57.5,17.1667 57.5,16.5C 59.4844,17.6942 61.4844,17.6942 63.5,16.5C 60.7088,14.2112 58.0421,11.7112 55.5,9C 50.7735,6.71464 46.1068,4.54797 41.5,2.5C 43.1992,2.66018 44.8659,2.49351 46.5,2C 44.9336,1.3918 43.6002,0.558465 42.5,-0.5 Z"/></g>
<g><path style="opacity:1" fill="#b5a172" d="M 81.5,4.5 C 82.1667,4.5 82.8333,4.5 83.5,4.5C 81.4286,5.89065 79.7619,7.72398 78.5,10C 76.2774,10.5662 74.2774,11.3995 72.5,12.5C 71.5028,12.4701 70.8361,12.9701 70.5,14C 70.9504,15.2853 71.6171,16.452 72.5,17.5C 72.0431,18.2975 71.3764,18.6309 70.5,18.5C 68.9143,15.7431 67.9143,12.7431 67.5,9.5C 69.5,9.5 71.5,9.5 73.5,9.5C 73.67,8.17793 73.3366,7.01127 72.5,6C 75.6946,5.81948 78.6946,5.31948 81.5,4.5 Z"/></g>
<g><path style="opacity:1" fill="#2f6c37" d="M 39.5,2.5 C 40.1667,2.5 40.8333,2.5 41.5,2.5C 46.1068,4.54797 50.7735,6.71464 55.5,9C 58.0421,11.7112 60.7088,14.2112 63.5,16.5C 61.4844,17.6942 59.4844,17.6942 57.5,16.5C 55.4049,10.2047 54.4049,10.2047 54.5,16.5C 50.4862,16.6655 46.4862,16.4988 42.5,16C 40.2657,14.2502 37.9324,12.7502 35.5,11.5C 35.1667,11.5 34.8333,11.5 34.5,11.5C 34.4431,10.391 34.1098,9.39105 33.5,8.5C 33.3505,7.44802 33.5172,6.44802 34,5.5C 36.7905,4.21836 38.9571,5.0517 40.5,8C 42.4021,9.3011 44.4021,9.96776 46.5,10C 43.681,7.42502 40.681,5.09168 37.5,3C 38.0944,2.53566 38.7611,2.36899 39.5,2.5 Z"/></g>
<g><path style="opacity:1" fill="#beaf80" d="M 135.5,-0.5 C 137.833,-0.5 140.167,-0.5 142.5,-0.5C 142.626,1.19981 143.293,2.69981 144.5,4C 142.936,5.60489 142.436,7.43823 143,9.5C 144.11,7.96317 145.61,7.2965 147.5,7.5C 147.71,12.3958 150.043,14.0625 154.5,12.5C 154.214,14.2769 153.547,15.9436 152.5,17.5C 152.543,18.4164 152.876,19.0831 153.5,19.5C 154.479,22.6248 154.813,25.9581 154.5,29.5C 152.898,27.6633 151.565,24.9966 150.5,21.5C 148.099,19.4376 145.433,17.7709 142.5,16.5C 141.575,17.3569 140.908,18.3569 140.5,19.5C 140.218,20.7777 139.551,21.7777 138.5,22.5C 137.5,22.5 136.5,22.5 135.5,22.5C 135.5,21.5 135.5,20.5 135.5,19.5C 138.5,19.8333 139.833,18.5 139.5,15.5C 142.797,15.6713 143.131,15.0046 140.5,13.5C 138.5,14.8333 136.5,16.1667 134.5,17.5C 133.482,16.8075 132.482,16.1408 131.5,15.5C 132.767,13.2274 134.433,11.2274 136.5,9.5C 136.291,8.91395 135.957,8.41395 135.5,8C 136.578,7.32614 137.245,6.32614 137.5,5C 137.046,3.06136 136.379,1.22802 135.5,-0.5 Z"/></g>
<g><path style="opacity:1" fill="#739f5d" d="M 239.5,10.5 C 240.209,9.59603 241.209,9.26269 242.5,9.5C 244.67,11.0862 247.004,12.4196 249.5,13.5C 248.399,14.5983 247.066,14.765 245.5,14C 243.612,12.6063 241.612,11.4396 239.5,10.5 Z"/></g>
<g><path style="opacity:1" fill="#e6c385" d="M 128.5,-0.5 C 130.833,-0.5 133.167,-0.5 135.5,-0.5C 136.379,1.22802 137.046,3.06136 137.5,5C 137.245,6.32614 136.578,7.32614 135.5,8C 135.957,8.41395 136.291,8.91395 136.5,9.5C 134.433,11.2274 132.767,13.2274 131.5,15.5C 131.5,16.8333 131.5,18.1667 131.5,19.5C 130.355,20.7927 130.689,21.9593 132.5,23C 131.099,23.4101 129.766,23.9101 128.5,24.5C 127.5,24.5 126.5,24.5 125.5,24.5C 125.549,21.9009 126.549,19.7342 128.5,18C 123.847,16.5087 119.181,15.3421 114.5,14.5C 116.09,14.3718 117.423,13.7051 118.5,12.5C 112.7,10.3565 106.7,9.02317 100.5,8.5C 96.8794,11.2817 93.3794,14.2817 90,17.5C 89.5172,18.448 89.3505,19.448 89.5,20.5C 86.7698,19.4891 86.1032,17.8225 87.5,15.5C 88.855,12.4823 91.1884,11.149 94.5,11.5C 94.9311,7.92333 96.9311,5.58999 100.5,4.5C 106.025,7.12275 111.525,7.12275 117,4.5C 120.878,5.3381 121.711,7.00477 119.5,9.5C 123.446,10.1845 127.446,10.1845 131.5,9.5C 131.778,7.65358 131.111,6.32025 129.5,5.5C 127.568,6.52022 125.568,6.68688 123.5,6C 124.448,5.51722 125.448,5.35055 126.5,5.5C 126.614,3.28209 127.28,1.28209 128.5,-0.5 Z"/></g>
<g><path style="opacity:1" fill="#b4dcae" d="M 164.5,3.5 C 165.6,4.60486 166.267,5.93819 166.5,7.5C 164.88,11.0819 162.547,14.0819 159.5,16.5C 158.833,16.5 158.167,16.5 157.5,16.5C 155.381,16.4677 154.048,17.4677 153.5,19.5C 152.876,19.0831 152.543,18.4164 152.5,17.5C 153.547,15.9436 154.214,14.2769 154.5,12.5C 156.587,11.4154 157.92,9.74876 158.5,7.5C 159.663,5.0178 161.663,3.68447 164.5,3.5 Z"/></g>
<g><path style="opacity:1" fill="#d4ae79" d="M 114.5,14.5 C 111.719,13.177 109.053,13.3437 106.5,15C 107.516,15.5194 108.182,16.3527 108.5,17.5C 106.3,19.2529 105.133,21.5862 105,24.5C 101.898,25.6745 101.898,26.3411 105,26.5C 107.444,25.0286 109.944,23.6953 112.5,22.5C 113.167,22.6667 113.833,22.8333 114.5,23C 112.266,23.9689 110.266,25.3022 108.5,27C 108.728,27.3988 109.062,27.5654 109.5,27.5C 106.77,29.9259 103.437,31.2593 99.5,31.5C 97.9673,33.8966 98.3007,32.8966 100.5,28.5C 99.2634,27.7193 98.2634,26.7193 97.5,25.5C 99.3609,22.5408 101.694,20.0408 104.5,18C 102.51,18.1379 100.51,18.6379 98.5,19.5C 97.8333,19.1667 97.1667,18.8333 96.5,18.5C 97.2634,17.2807 98.2634,16.2807 99.5,15.5C 99,15.1667 98.5,14.8333 98,14.5C 94.9889,17.0688 92.1555,19.7355 89.5,22.5C 89.5,21.8333 89.5,21.1667 89.5,20.5C 89.3505,19.448 89.5172,18.448 90,17.5C 93.3794,14.2817 96.8794,11.2817 100.5,8.5C 106.7,9.02317 112.7,10.3565 118.5,12.5C 117.423,13.7051 116.09,14.3718 114.5,14.5 Z"/></g>
<g><path style="opacity:1" fill="#79ab55" d="M 207.5,-0.5 C 208.167,-0.5 208.833,-0.5 209.5,-0.5C 209.5,0.166667 209.5,0.833333 209.5,1.5C 206.698,4.47583 204.031,7.64249 201.5,11C 201.728,11.3988 202.062,11.5654 202.5,11.5C 207.071,14.2532 212.071,16.2532 217.5,17.5C 217.158,18.3382 216.492,18.6716 215.5,18.5C 212.461,17.99 209.461,17.3234 206.5,16.5C 204.188,15.6586 201.855,14.6586 199.5,13.5C 198.697,12.5768 198.53,11.5768 199,10.5C 202.049,6.9574 204.882,3.29074 207.5,-0.5 Z"/></g>
<g><path style="opacity:1" fill="#2a3b2a" d="M 166.5,7.5 C 167.434,8.56764 167.768,9.90097 167.5,11.5C 167.5,12.5 167.5,13.5 167.5,14.5C 165.251,15.2311 163.084,16.2311 161,17.5C 160.235,17.4301 159.735,17.0967 159.5,16.5C 162.547,14.0819 164.88,11.0819 166.5,7.5 Z"/></g>
<g><path style="opacity:1" fill="#2c8e3b" d="M 35.5,11.5 C 37.9324,12.7502 40.2657,14.2502 42.5,16C 46.4862,16.4988 50.4862,16.6655 54.5,16.5C 54.4049,10.2047 55.4049,10.2047 57.5,16.5C 57.5,17.1667 57.5,17.8333 57.5,18.5C 55.712,18.2148 54.0453,18.5481 52.5,19.5C 54.6893,21.8867 56.3559,24.5534 57.5,27.5C 56.5,27.5 55.5,27.5 54.5,27.5C 54.5,26.5 54.5,25.5 54.5,24.5C 49.695,23.6013 45.695,21.4346 42.5,18C 41.255,17.2086 39.9217,16.7086 38.5,16.5C 36.7497,15.3406 35.7497,13.674 35.5,11.5 Z"/></g>
<g><path style="opacity:1" fill="#f1d28b" d="M 114.5,14.5 C 119.181,15.3421 123.847,16.5087 128.5,18C 126.549,19.7342 125.549,21.9009 125.5,24.5C 126.5,24.5 127.5,24.5 128.5,24.5C 127.194,25.4674 126.527,26.8007 126.5,28.5C 123.098,28.3424 119.764,28.6758 116.5,29.5C 113.789,29.8151 111.456,29.1484 109.5,27.5C 109.062,27.5654 108.728,27.3988 108.5,27C 110.266,25.3022 112.266,23.9689 114.5,23C 113.833,22.8333 113.167,22.6667 112.5,22.5C 109.944,23.6953 107.444,25.0286 105,26.5C 101.898,26.3411 101.898,25.6745 105,24.5C 105.133,21.5862 106.3,19.2529 108.5,17.5C 108.182,16.3527 107.516,15.5194 106.5,15C 109.053,13.3437 111.719,13.177 114.5,14.5 Z"/></g>
<g><path style="opacity:0.996" fill="#489a55" d="M -0.5,7.5 C -0.166667,7.5 0.166667,7.5 0.5,7.5C 0.0772868,9.78121 0.743953,11.4479 2.5,12.5C 2.29268,15.2406 1.29268,17.5739 -0.5,19.5C -0.5,15.5 -0.5,11.5 -0.5,7.5 Z"/></g>
<g><path style="opacity:1" fill="#7e8a5a" d="M 34.5,11.5 C 34.8333,11.5 35.1667,11.5 35.5,11.5C 35.7497,13.674 36.7497,15.3406 38.5,16.5C 37.7347,19.0961 37.4013,21.7628 37.5,24.5C 36.8981,22.3202 35.5648,20.6536 33.5,19.5C 31.4501,20.0766 30.4501,21.4099 30.5,23.5C 30.1667,23.5 29.8333,23.5 29.5,23.5C 28.4891,21.5976 28.3224,19.5976 29,17.5C 30.6993,15.3039 32.5327,13.3039 34.5,11.5 Z"/></g>
<g><path style="opacity:1" fill="#cdbc7b" d="M 72.5,12.5 C 73.981,17.9071 76.6477,18.5738 80.5,14.5C 80.9867,15.4734 81.4867,16.4734 82,17.5C 83.4443,15.8446 85.2776,15.178 87.5,15.5C 86.1032,17.8225 86.7698,19.4891 89.5,20.5C 89.5,21.1667 89.5,21.8333 89.5,22.5C 88.1142,24.6126 88.4476,26.6126 90.5,28.5C 86.2151,30.9994 82.2151,33.6661 78.5,36.5C 79.0476,34.6064 80.0476,32.9397 81.5,31.5C 81.3333,31.1667 81.1667,30.8333 81,30.5C 79.8904,32.0368 78.3904,32.7035 76.5,32.5C 76.4287,29.9759 77.4287,27.9759 79.5,26.5C 79.1667,26.1667 78.8333,25.8333 78.5,25.5C 76.4763,28.2057 73.8097,29.539 70.5,29.5C 68.712,29.7852 67.0453,29.4519 65.5,28.5C 64.5091,26.6769 63.1757,25.1769 61.5,24C 64.1943,21.6535 67.1943,19.8202 70.5,18.5C 71.3764,18.6309 72.0431,18.2975 72.5,17.5C 71.6171,16.452 70.9504,15.2853 70.5,14C 70.8361,12.9701 71.5028,12.4701 72.5,12.5 Z"/></g>
<g><path style="opacity:1" fill="#66694d" d="M 173.5,17.5 C 169.593,21.3233 167.927,25.9899 168.5,31.5C 170.199,31.4729 171.533,30.8062 172.5,29.5C 173.496,29.5858 174.329,29.2524 175,28.5C 175.214,23.1146 175.714,17.7813 176.5,12.5C 179.419,11.0682 180.752,12.0682 180.5,15.5C 179.735,18.0961 179.401,20.7628 179.5,23.5C 178.483,26.0267 178.483,28.5267 179.5,31C 178.012,33.6249 177.178,36.4582 177,39.5C 175.041,40.0439 173.208,40.3773 171.5,40.5C 168.833,38.8333 166.167,37.1667 163.5,35.5C 162.883,35.6107 162.383,35.944 162,36.5C 161.302,33.9963 160.469,31.663 159.5,29.5C 161.109,26.4068 162.109,23.0734 162.5,19.5C 160.708,18.6909 158.708,18.1909 156.5,18C 157.056,17.6174 157.389,17.1174 157.5,16.5C 158.167,16.5 158.833,16.5 159.5,16.5C 159.735,17.0967 160.235,17.4301 161,17.5C 163.084,16.2311 165.251,15.2311 167.5,14.5C 167.5,13.5 167.5,12.5 167.5,11.5C 168.642,9.02827 170.642,8.02827 173.5,8.5C 173.5,11.5 173.5,14.5 173.5,17.5 Z"/></g>
<g><path style="opacity:1" fill="#5d8040" d="M 217.5,17.5 C 220.769,17.8868 223.103,18.8868 224.5,20.5C 221.123,20.9321 218.123,20.2655 215.5,18.5C 216.492,18.6716 217.158,18.3382 217.5,17.5 Z"/></g>
<g><path style="opacity:1" fill="#609e61" d="M 38.5,16.5 C 39.9217,16.7086 41.255,17.2086 42.5,18C 45.695,21.4346 49.695,23.6013 54.5,24.5C 54.5,25.5 54.5,26.5 54.5,27.5C 53.8333,27.5 53.1667,27.5 52.5,27.5C 48.5795,24.573 44.2462,22.573 39.5,21.5C 39.5674,22.9587 39.2341,24.2921 38.5,25.5C 37.8333,25.5 37.5,25.1667 37.5,24.5C 37.4013,21.7628 37.7347,19.0961 38.5,16.5 Z"/></g>
<g><path style="opacity:1" fill="#25823f" d="M 186.5,10.5 C 187.708,11.2341 189.041,11.5674 190.5,11.5C 189.263,14.2446 187.43,16.5779 185,18.5C 184.227,22.5323 183.394,26.5323 182.5,30.5C 182.5,31.8333 181.833,32.5 180.5,32.5C 180.81,29.2869 180.477,26.2869 179.5,23.5C 179.401,20.7628 179.735,18.0961 180.5,15.5C 182.304,13.5047 184.304,11.8381 186.5,10.5 Z"/></g>
<g><path style="opacity:1" fill="#7e4a1b" d="M 255.5,19.5 C 255.5,20.8333 255.5,22.1667 255.5,23.5C 251.964,21.052 248.297,21.052 244.5,23.5C 243.833,23.1667 243.167,22.8333 242.5,22.5C 244.672,21.7952 246.672,20.7952 248.5,19.5C 247.5,18.8333 246.5,18.1667 245.5,17.5C 246,17.1667 246.5,16.8333 247,16.5C 249.895,17.4088 252.728,18.4088 255.5,19.5 Z"/></g>
<g><path style="opacity:1" fill="#a3caa3" d="M 190.5,11.5 C 191.404,12.209 191.737,13.209 191.5,14.5C 190.549,15.9187 190.216,17.5853 190.5,19.5C 189.89,20.391 189.557,21.391 189.5,22.5C 187.1,24.2964 185.433,26.6298 184.5,29.5C 183.833,29.8333 183.167,30.1667 182.5,30.5C 183.394,26.5323 184.227,22.5323 185,18.5C 187.43,16.5779 189.263,14.2446 190.5,11.5 Z"/></g>
<g><path style="opacity:1" fill="#1a1c29" d="M 206.5,16.5 C 209.461,17.3234 212.461,17.99 215.5,18.5C 218.123,20.2655 221.123,20.9321 224.5,20.5C 225.209,21.404 226.209,21.7373 227.5,21.5C 225.134,24.8566 222.801,28.1899 220.5,31.5C 217.233,30.1799 213.9,29.5132 210.5,29.5C 207.649,30.0121 206.316,31.6787 206.5,34.5C 205.127,34.6567 203.793,34.49 202.5,34C 202.833,33.6667 203.167,33.3333 203.5,33C 201.381,32.9024 199.714,32.0691 198.5,30.5C 200.982,25.7098 203.649,21.0432 206.5,16.5 Z"/></g>
<g><path style="opacity:1" fill="#a9ac71" d="M 37.5,24.5 C 37.5,25.1667 37.8333,25.5 38.5,25.5C 38.0128,29.3428 36.0128,30.6761 32.5,29.5C 31.9495,27.3432 31.2829,25.3432 30.5,23.5C 30.4501,21.4099 31.4501,20.0766 33.5,19.5C 35.5648,20.6536 36.8981,22.3202 37.5,24.5 Z"/></g>
<g><path style="opacity:1" fill="#9b9f6c" d="M 77.5,4.5 C 78.8333,4.5 80.1667,4.5 81.5,4.5C 78.6946,5.31948 75.6946,5.81948 72.5,6C 73.3366,7.01127 73.67,8.17793 73.5,9.5C 71.5,9.5 69.5,9.5 67.5,9.5C 67.9143,12.7431 68.9143,15.7431 70.5,18.5C 67.1943,19.8202 64.1943,21.6535 61.5,24C 63.1757,25.1769 64.5091,26.6769 65.5,28.5C 67.0453,29.4519 68.712,29.7852 70.5,29.5C 69.5667,33.7624 66.9,35.7624 62.5,35.5C 63.4569,37.8103 64.4569,40.1436 65.5,42.5C 65.4841,44.516 64.4841,45.516 62.5,45.5C 60.302,45.8799 58.6354,45.2132 57.5,43.5C 55.7987,37.2567 58.1321,34.2567 64.5,34.5C 64.0268,30.3617 61.6935,28.3617 57.5,28.5C 57.5,28.1667 57.5,27.8333 57.5,27.5C 56.3559,24.5534 54.6893,21.8867 52.5,19.5C 54.0453,18.5481 55.712,18.2148 57.5,18.5C 60.5047,19.7237 63.5047,19.7237 66.5,18.5C 67.6518,16.6029 67.3185,14.9362 65.5,13.5C 64.6993,11.9582 64.366,10.2915 64.5,8.5C 67.0728,8.85151 69.4062,8.35151 71.5,7C 70.6919,6.69238 70.0253,6.19238 69.5,5.5C 72.0865,4.51998 74.7531,4.18665 77.5,4.5 Z"/></g>
<g><path style="opacity:1" fill="#7bc07b" d="M 162.5,19.5 C 162.109,23.0734 161.109,26.4068 159.5,29.5C 157.622,28.126 156.622,26.126 156.5,23.5C 157.509,20.663 159.509,19.3297 162.5,19.5 Z"/></g>
<g><path style="opacity:1" fill="#bad668" d="M 138.5,22.5 C 140.982,24.0507 140.648,25.384 137.5,26.5C 136.178,26.67 135.011,26.3366 134,25.5C 133.764,23.1887 132.931,21.1887 131.5,19.5C 131.5,18.1667 131.5,16.8333 131.5,15.5C 132.482,16.1408 133.482,16.8075 134.5,17.5C 136.5,16.1667 138.5,14.8333 140.5,13.5C 143.131,15.0046 142.797,15.6713 139.5,15.5C 139.833,18.5 138.5,19.8333 135.5,19.5C 135.5,20.5 135.5,21.5 135.5,22.5C 136.5,22.5 137.5,22.5 138.5,22.5 Z"/></g>
<g><path style="opacity:1" fill="#3c3f39" d="M 239.5,10.5 C 241.612,11.4396 243.612,12.6063 245.5,14C 247.066,14.765 248.399,14.5983 249.5,13.5C 251.5,13.8333 253.5,14.1667 255.5,14.5C 255.5,16.1667 255.5,17.8333 255.5,19.5C 252.728,18.4088 249.895,17.4088 247,16.5C 246.5,16.8333 246,17.1667 245.5,17.5C 246.5,18.1667 247.5,18.8333 248.5,19.5C 246.672,20.7952 244.672,21.7952 242.5,22.5C 243.167,22.8333 243.833,23.1667 244.5,23.5C 248.297,21.052 251.964,21.052 255.5,23.5C 255.5,26.5 255.5,29.5 255.5,32.5C 252.869,36.1401 250.203,39.8068 247.5,43.5C 244.09,43.3838 242.756,45.0504 243.5,48.5C 241.473,48.6621 239.473,48.4955 237.5,48C 236.663,46.9887 236.33,45.8221 236.5,44.5C 237.404,43.791 237.737,42.791 237.5,41.5C 234.477,40.3224 231.477,40.3224 228.5,41.5C 226.701,39.2907 225.368,36.7907 224.5,34C 226.47,24.2037 231.47,16.3704 239.5,10.5 Z"/></g>
<g><path style="opacity:1" fill="#869c6c" d="M 157.5,16.5 C 157.389,17.1174 157.056,17.6174 156.5,18C 158.708,18.1909 160.708,18.6909 162.5,19.5C 159.509,19.3297 157.509,20.663 156.5,23.5C 156.622,26.126 157.622,28.126 159.5,29.5C 158.791,30.404 157.791,30.7373 156.5,30.5C 156.633,27.075 155.967,26.7417 154.5,29.5C 154.813,25.9581 154.479,22.6248 153.5,19.5C 154.048,17.4677 155.381,16.4677 157.5,16.5 Z"/></g>
<g><path style="opacity:1" fill="#74bf7b" d="M 173.5,17.5 C 175.023,21.6121 174.689,25.6121 172.5,29.5C 171.533,30.8062 170.199,31.4729 168.5,31.5C 167.927,25.9899 169.593,21.3233 173.5,17.5 Z"/></g>
<g><path style="opacity:1" fill="#919f4f" d="M 140.5,19.5 C 141.376,19.3691 142.043,19.7025 142.5,20.5C 141.593,23.4212 141.26,26.4212 141.5,29.5C 140.167,29.8333 138.833,30.1667 137.5,30.5C 137.5,29.1667 137.5,27.8333 137.5,26.5C 140.648,25.384 140.982,24.0507 138.5,22.5C 139.551,21.7777 140.218,20.7777 140.5,19.5 Z"/></g>
<g><path style="opacity:1" fill="#3b793d" d="M 52.5,27.5 C 51.9423,28.7899 50.9423,29.6232 49.5,30C 46.6894,30.911 43.8561,31.7443 41,32.5C 39.9701,32.8361 39.4701,33.5028 39.5,34.5C 38.1779,34.67 37.0113,34.3366 36,33.5C 35.3333,36.1667 35.3333,38.8333 36,41.5C 39.4236,43.4641 42.5902,45.7974 45.5,48.5C 43.9547,49.4519 42.288,49.7852 40.5,49.5C 40.5,48.1667 40.5,46.8333 40.5,45.5C 34.9798,44.4533 29.6464,43.12 24.5,41.5C 26.1439,41.7135 27.6439,41.3802 29,40.5C 30.7718,37.3971 30.7718,34.3971 29,31.5C 27.6246,34.6098 25.4579,35.6098 22.5,34.5C 20.9701,31.896 19.6367,29.2293 18.5,26.5C 19.6719,25.2947 21.0052,25.2947 22.5,26.5C 23.5,25.8333 24.5,25.1667 25.5,24.5C 27.488,26.1472 28.8213,25.8139 29.5,23.5C 29.8333,23.5 30.1667,23.5 30.5,23.5C 31.2829,25.3432 31.9495,27.3432 32.5,29.5C 36.0128,30.6761 38.0128,29.3428 38.5,25.5C 39.2341,24.2921 39.5674,22.9587 39.5,21.5C 44.2462,22.573 48.5795,24.573 52.5,27.5 Z"/></g>
<g><path style="opacity:1" fill="#4c4435" d="M 189.5,22.5 C 188.2,26.0961 187.2,29.7627 186.5,33.5C 185.857,35.0764 184.857,36.4097 183.5,37.5C 183.833,34.8333 184.167,32.1667 184.5,29.5C 185.433,26.6298 187.1,24.2964 189.5,22.5 Z"/></g>
<g><path style="opacity:1" fill="#744519" d="M 242.5,29.5 C 245.978,30.4687 249.311,31.1354 252.5,31.5C 252.291,32.086 251.957,32.586 251.5,33C 247.167,33.6667 242.833,33.6667 238.5,33C 239.591,31.4499 240.924,30.2832 242.5,29.5 Z"/></g>
<g><path style="opacity:1" fill="#416f3b" d="M 8.5,25.5 C 9.80686,26.8016 9.80686,28.135 8.5,29.5C 12.5216,31.5216 15.5216,34.5216 17.5,38.5C 16.609,39.1098 15.609,39.4431 14.5,39.5C 10.8343,35.6812 6.66764,32.3479 2,29.5C 1.60966,26.8958 0.776331,24.5625 -0.5,22.5C -0.5,21.5 -0.5,20.5 -0.5,19.5C 1.29268,17.5739 2.29268,15.2406 2.5,12.5C 3.4959,12.5858 4.32924,12.2524 5,11.5C 5.16667,12 5.33333,12.5 5.5,13C 3.43784,16.6149 2.10451,20.4483 1.5,24.5C 4.27685,23.4719 6.61019,23.8053 8.5,25.5 Z"/></g>
<g><path style="opacity:1" fill="#12131d" d="M 206.5,16.5 C 203.649,21.0432 200.982,25.7098 198.5,30.5C 199.714,32.0691 201.381,32.9024 203.5,33C 203.167,33.3333 202.833,33.6667 202.5,34C 203.793,34.49 205.127,34.6567 206.5,34.5C 206.316,31.6787 207.649,30.0121 210.5,29.5C 213.9,29.5132 217.233,30.1799 220.5,31.5C 218.833,34.8333 217.167,38.1667 215.5,41.5C 211.78,41.2961 208.447,42.2961 205.5,44.5C 201.891,42.7776 198.724,40.4443 196,37.5C 194.75,34.9234 194.416,32.2567 195,29.5C 197.61,25.3824 200.443,21.3824 203.5,17.5C 204.325,16.6143 205.325,16.281 206.5,16.5 Z"/></g>
<g><path style="opacity:1" fill="#dac77b" d="M 109.5,27.5 C 111.456,29.1484 113.789,29.8151 116.5,29.5C 114.836,31.6791 115.17,33.5125 117.5,35C 117.596,36.373 117.43,37.873 117,39.5C 119.738,41.0576 122.571,42.391 125.5,43.5C 125.5,43.8333 125.5,44.1667 125.5,44.5C 123.833,45.5 122.5,46.8333 121.5,48.5C 115.842,49.7689 110.175,51.1022 104.5,52.5C 102.373,53.1494 100.373,53.4827 98.5,53.5C 95.8333,53.1667 93.1667,52.8333 90.5,52.5C 88.3964,51.0883 86.0631,50.0883 83.5,49.5C 84.2806,47.3369 83.4472,47.0036 81,48.5C 81.0835,44.6887 80.2501,41.3554 78.5,38.5C 78.5,38.1667 78.5,37.8333 78.5,37.5C 78.5,37.1667 78.5,36.8333 78.5,36.5C 82.2151,33.6661 86.2151,30.9994 90.5,28.5C 88.4476,26.6126 88.1142,24.6126 89.5,22.5C 92.1555,19.7355 94.9889,17.0688 98,14.5C 98.5,14.8333 99,15.1667 99.5,15.5C 98.2634,16.2807 97.2634,17.2807 96.5,18.5C 97.1667,18.8333 97.8333,19.1667 98.5,19.5C 100.51,18.6379 102.51,18.1379 104.5,18C 101.694,20.0408 99.3609,22.5408 97.5,25.5C 98.2634,26.7193 99.2634,27.7193 100.5,28.5C 98.3007,32.8966 97.9673,33.8966 99.5,31.5C 103.437,31.2593 106.77,29.9259 109.5,27.5 Z"/></g>
<g><path style="opacity:1" fill="#629a5f" d="M 8.5,25.5 C 11.7644,26.3242 15.0977,26.6576 18.5,26.5C 19.6367,29.2293 20.9701,31.896 22.5,34.5C 25.4579,35.6098 27.6246,34.6098 29,31.5C 30.7718,34.3971 30.7718,37.3971 29,40.5C 27.6439,41.3802 26.1439,41.7135 24.5,41.5C 21.9785,40.9885 19.6451,39.9885 17.5,38.5C 15.5216,34.5216 12.5216,31.5216 8.5,29.5C 9.80686,28.135 9.80686,26.8016 8.5,25.5 Z"/></g>
<g><path style="opacity:1" fill="#f3de8b" d="M 131.5,19.5 C 132.931,21.1887 133.764,23.1887 134,25.5C 135.011,26.3366 136.178,26.67 137.5,26.5C 137.5,27.8333 137.5,29.1667 137.5,30.5C 136.167,31.5 134.833,32.5 133.5,33.5C 130.484,36.5203 127.817,39.8536 125.5,43.5C 122.571,42.391 119.738,41.0576 117,39.5C 117.43,37.873 117.596,36.373 117.5,35C 115.17,33.5125 114.836,31.6791 116.5,29.5C 119.764,28.6758 123.098,28.3424 126.5,28.5C 126.527,26.8007 127.194,25.4674 128.5,24.5C 129.766,23.9101 131.099,23.4101 132.5,23C 130.689,21.9593 130.355,20.7927 131.5,19.5 Z"/></g>
<g><path style="opacity:1" fill="#afae70" d="M 78.5,36.5 C 78.5,36.8333 78.5,37.1667 78.5,37.5C 75.6144,38.5964 73.6144,40.5964 72.5,43.5C 70.2137,44.3163 68.2137,45.6496 66.5,47.5C 65.5832,46.8728 64.5832,46.5394 63.5,46.5C 62.8333,46.5 62.5,46.1667 62.5,45.5C 64.4841,45.516 65.4841,44.516 65.5,42.5C 64.4569,40.1436 63.4569,37.8103 62.5,35.5C 66.9,35.7624 69.5667,33.7624 70.5,29.5C 73.8097,29.539 76.4763,28.2057 78.5,25.5C 78.8333,25.8333 79.1667,26.1667 79.5,26.5C 77.4287,27.9759 76.4287,29.9759 76.5,32.5C 78.3904,32.7035 79.8904,32.0368 81,30.5C 81.1667,30.8333 81.3333,31.1667 81.5,31.5C 80.0476,32.9397 79.0476,34.6064 78.5,36.5 Z"/></g>
<g><path style="opacity:1" fill="#549752" d="M -0.5,22.5 C 0.776331,24.5625 1.60966,26.8958 2,29.5C 6.66764,32.3479 10.8343,35.6812 14.5,39.5C 14.5,39.8333 14.5,40.1667 14.5,40.5C 11.1849,39.6712 7.8516,38.8379 4.5,38C 2.61543,35.1716 0.948768,32.3383 -0.5,29.5C -0.5,27.1667 -0.5,24.8333 -0.5,22.5 Z"/></g>
<g><path style="opacity:1" fill="#69b96b" d="M 52.5,27.5 C 53.1667,27.5 53.8333,27.5 54.5,27.5C 55.5,27.5 56.5,27.5 57.5,27.5C 57.5,27.8333 57.5,28.1667 57.5,28.5C 58.287,30.1042 59.6203,30.7709 61.5,30.5C 61.5,31.5 61.5,32.5 61.5,33.5C 57.9187,34.9627 54.5853,36.9627 51.5,39.5C 45.9286,41.5937 41.9286,39.927 39.5,34.5C 39.4701,33.5028 39.9701,32.8361 41,32.5C 43.8561,31.7443 46.6894,30.911 49.5,30C 50.9423,29.6232 51.9423,28.7899 52.5,27.5 Z"/></g>
<g><path style="opacity:1" fill="#4d734b" d="M 184.5,29.5 C 184.167,32.1667 183.833,34.8333 183.5,37.5C 182.681,39.7722 182.015,42.1055 181.5,44.5C 180.817,40.5683 180.483,36.5683 180.5,32.5C 181.833,32.5 182.5,31.8333 182.5,30.5C 183.167,30.1667 183.833,29.8333 184.5,29.5 Z"/></g>
<g><path style="opacity:1" fill="#799225" d="M 133.5,33.5 C 133.285,35.1788 133.952,36.1788 135.5,36.5C 134.833,37.5 134.167,38.5 133.5,39.5C 130.068,40.5993 128.068,42.9326 127.5,46.5C 128.946,47.6129 130.613,47.7796 132.5,47C 134.323,46.0027 135.99,44.8361 137.5,43.5C 138.035,46.2385 137.035,48.0718 134.5,49C 131.808,49.4298 129.141,49.2631 126.5,48.5C 126.768,46.901 126.434,45.5676 125.5,44.5C 125.5,44.1667 125.5,43.8333 125.5,43.5C 127.817,39.8536 130.484,36.5203 133.5,33.5 Z"/></g>
<g><path style="opacity:1" fill="#66955c" d="M 57.5,28.5 C 61.6935,28.3617 64.0268,30.3617 64.5,34.5C 58.1321,34.2567 55.7987,37.2567 57.5,43.5C 55.5648,42.8505 53.5648,42.5172 51.5,42.5C 52.625,41.3478 52.625,40.3478 51.5,39.5C 54.5853,36.9627 57.9187,34.9627 61.5,33.5C 61.5,32.5 61.5,31.5 61.5,30.5C 59.6203,30.7709 58.287,30.1042 57.5,28.5 Z"/></g>
<g><path style="opacity:1" fill="#3e553c" d="M 179.5,23.5 C 180.477,26.2869 180.81,29.2869 180.5,32.5C 180.483,36.5683 180.817,40.5683 181.5,44.5C 181.44,45.0431 181.107,45.3764 180.5,45.5C 179.262,41.6893 178.596,41.6893 178.5,45.5C 176.999,44.2485 175.332,43.2485 173.5,42.5C 172.833,41.8333 172.167,41.1667 171.5,40.5C 173.208,40.3773 175.041,40.0439 177,39.5C 177.178,36.4582 178.012,33.6249 179.5,31C 178.483,28.5267 178.483,26.0267 179.5,23.5 Z"/></g>
<g><path style="opacity:1" fill="#304f1f" d="M -0.5,29.5 C 0.948768,32.3383 2.61543,35.1716 4.5,38C 7.8516,38.8379 11.1849,39.6712 14.5,40.5C 21.8034,43.2157 29.1367,46.049 36.5,49C 38.4146,51.3996 40.0812,53.8996 41.5,56.5C 42.5,57.8333 43.5,59.1667 44.5,60.5C 43.8855,62.7225 42.5522,64.3892 40.5,65.5C 40.6236,66.1067 40.9569,66.44 41.5,66.5C 42.9063,66.9731 43.573,67.9731 43.5,69.5C 42.609,68.8902 41.609,68.5569 40.5,68.5C 40.3893,67.8826 40.056,67.3826 39.5,67C 31.7726,64.4855 24.106,61.8188 16.5,59C 11.5268,53.5559 7.69342,47.3893 5,40.5C 3.29617,38.6266 1.46283,36.9599 -0.5,35.5C -0.5,33.5 -0.5,31.5 -0.5,29.5 Z"/></g>
<g><path style="opacity:1" fill="#ab8a60" d="M 154.5,29.5 C 155.967,26.7417 156.633,27.075 156.5,30.5C 155.282,31.1614 153.949,31.8281 152.5,32.5C 156.754,39.2166 156.421,46.05 151.5,53C 150.207,53.49 148.873,53.6567 147.5,53.5C 144.941,53.8016 142.607,53.4682 140.5,52.5C 144.976,50.6835 147.643,47.3501 148.5,42.5C 146.538,39.678 144.871,36.678 143.5,33.5C 146.071,32.2723 147.405,30.2723 147.5,27.5C 146.5,27.5 145.5,27.5 144.5,27.5C 144.496,31.2502 143.496,31.9169 141.5,29.5C 141.26,26.4212 141.593,23.4212 142.5,20.5C 142.043,19.7025 141.376,19.3691 140.5,19.5C 140.908,18.3569 141.575,17.3569 142.5,16.5C 145.433,17.7709 148.099,19.4376 150.5,21.5C 151.565,24.9966 152.898,27.6633 154.5,29.5 Z"/></g>
<g><path style="opacity:1" fill="#899c4d" d="M 78.5,37.5 C 78.5,37.8333 78.5,38.1667 78.5,38.5C 77.3226,40.0315 75.9893,41.5315 74.5,43C 75.354,44.0217 76.354,44.8551 77.5,45.5C 78.8333,47.1667 78.8333,48.8333 77.5,50.5C 76.5241,47.8606 74.8575,45.8606 72.5,44.5C 72.5,44.1667 72.5,43.8333 72.5,43.5C 73.6144,40.5964 75.6144,38.5964 78.5,37.5 Z"/></g>
<g><path style="opacity:1" fill="#2f2f36" d="M -0.5,38.5 C 3.09154,40.4272 5.09154,43.4272 5.5,47.5C 4.56133,51.7799 4.228,55.6133 4.5,59C 6.01393,60.439 6.34727,61.939 5.5,63.5C 7.99134,64.5407 7.99134,65.3741 5.5,66C 6.83333,67.6667 6.83333,69.3333 5.5,71C 7.09946,72.0658 8.09946,73.5658 8.5,75.5C 8.0201,79.3984 7.0201,82.3984 5.5,84.5C 6.1097,88.9393 6.44303,93.106 6.5,97C 5.83333,97.3333 5.16667,97.6667 4.5,98C 5.85826,99.8316 6.19159,101.665 5.5,103.5C 6.31277,104.814 7.31277,105.981 8.5,107C 7.5574,109.8 7.72407,112.634 9,115.5C 10.0437,116.623 10.7104,117.956 11,119.5C 12.2917,118.209 13.4583,118.209 14.5,119.5C 12.2729,120.401 11.2729,122.067 11.5,124.5C 10.5,124.5 9.5,124.5 8.5,124.5C 5.83333,121.167 2.83333,118.167 -0.5,115.5C -0.5,89.8333 -0.5,64.1667 -0.5,38.5 Z"/></g>
<g><path style="opacity:1" fill="#595634" d="M 140.5,52.5 C 139.167,52.5 138.5,51.8333 138.5,50.5C 139.222,50.0825 139.722,49.4158 140,48.5C 140.502,44.7589 140.502,41.0922 140,37.5C 144.701,42.638 145.534,41.9713 142.5,35.5C 140.955,32.2329 138.622,31.5663 135.5,33.5C 135.5,34.5 135.5,35.5 135.5,36.5C 133.952,36.1788 133.285,35.1788 133.5,33.5C 134.833,32.5 136.167,31.5 137.5,30.5C 138.833,30.1667 140.167,29.8333 141.5,29.5C 143.496,31.9169 144.496,31.2502 144.5,27.5C 145.5,27.5 146.5,27.5 147.5,27.5C 147.405,30.2723 146.071,32.2723 143.5,33.5C 144.871,36.678 146.538,39.678 148.5,42.5C 147.643,47.3501 144.976,50.6835 140.5,52.5 Z"/></g>
<g><path style="opacity:1" fill="#dbdfd9" d="M 255.5,37.5 C 255.5,39.1667 255.5,40.8333 255.5,42.5C 253.822,46.613 251.822,49.9463 249.5,52.5C 250.734,47.117 252.734,42.117 255.5,37.5 Z"/></g>
<g><path style="opacity:1" fill="#8bf15f" d="M 133.5,39.5 C 134.167,39.5 134.833,39.5 135.5,39.5C 135.38,44.58 132.713,46.9133 127.5,46.5C 128.068,42.9326 130.068,40.5993 133.5,39.5 Z"/></g>
<g><path style="opacity:1" fill="#dbd76c" d="M 135.5,39.5 C 137.104,40.287 137.771,41.6203 137.5,43.5C 135.99,44.8361 134.323,46.0027 132.5,47C 130.613,47.7796 128.946,47.6129 127.5,46.5C 132.713,46.9133 135.38,44.58 135.5,39.5 Z"/></g>
<g><path style="opacity:1" fill="#1c1a16" d="M 186.5,33.5 C 188.401,39.345 188.567,45.345 187,51.5C 185.86,53.2792 184.693,54.9459 183.5,56.5C 181.049,53.2597 179.382,49.5931 178.5,45.5C 178.596,41.6893 179.262,41.6893 180.5,45.5C 181.107,45.3764 181.44,45.0431 181.5,44.5C 182.015,42.1055 182.681,39.7722 183.5,37.5C 184.857,36.4097 185.857,35.0764 186.5,33.5 Z"/></g>
<g><path style="opacity:1" fill="#b2e7ae" d="M 51.5,42.5 C 53.5648,42.5172 55.5648,42.8505 57.5,43.5C 58.6354,45.2132 60.302,45.8799 62.5,45.5C 62.5,46.1667 62.8333,46.5 63.5,46.5C 63.5,47.1667 63.5,47.8333 63.5,48.5C 61.5214,50.1675 59.188,50.8342 56.5,50.5C 51.2869,49.9452 49.6203,47.2785 51.5,42.5 Z"/></g>
<g><path style="opacity:1" fill="#63503c" d="M 159.5,29.5 C 160.469,31.663 161.302,33.9963 162,36.5C 162.383,35.944 162.883,35.6107 163.5,35.5C 165.617,40.0502 164.283,42.8836 159.5,44C 160.759,44.9234 162.092,45.7568 163.5,46.5C 162.115,47.5505 161.115,48.8839 160.5,50.5C 164.979,53.0504 168.979,56.0504 172.5,59.5C 170.835,64.2752 168.501,64.6085 165.5,60.5C 163.929,61.3094 162.262,61.6427 160.5,61.5C 160.167,61.5 159.833,61.5 159.5,61.5C 156.65,59.2045 153.317,57.7045 149.5,57C 146.779,56.3985 144.113,56.5651 141.5,57.5C 141.414,56.5041 141.748,55.6708 142.5,55C 144.382,54.8019 146.048,54.3019 147.5,53.5C 148.873,53.6567 150.207,53.49 151.5,53C 156.421,46.05 156.754,39.2166 152.5,32.5C 153.949,31.8281 155.282,31.1614 156.5,30.5C 157.791,30.7373 158.791,30.404 159.5,29.5 Z"/></g>
<g><path style="opacity:1" fill="#637b23" d="M 142.5,35.5 C 141.178,35.67 140.011,35.3366 139,34.5C 138.667,39.1667 138.333,43.8333 138,48.5C 136.014,50.7415 133.514,51.7415 130.5,51.5C 127.72,51.2405 125.386,50.2405 123.5,48.5C 122.833,48.5 122.167,48.5 121.5,48.5C 122.5,46.8333 123.833,45.5 125.5,44.5C 126.434,45.5676 126.768,46.901 126.5,48.5C 129.141,49.2631 131.808,49.4298 134.5,49C 137.035,48.0718 138.035,46.2385 137.5,43.5C 137.771,41.6203 137.104,40.287 135.5,39.5C 134.833,39.5 134.167,39.5 133.5,39.5C 134.167,38.5 134.833,37.5 135.5,36.5C 135.5,35.5 135.5,34.5 135.5,33.5C 138.622,31.5663 140.955,32.2329 142.5,35.5 Z"/></g>
<g><path style="opacity:1" fill="#95cf49" d="M 78.5,38.5 C 80.2501,41.3554 81.0835,44.6887 81,48.5C 83.4472,47.0036 84.2806,47.3369 83.5,49.5C 82.2905,49.9321 81.2905,50.5987 80.5,51.5C 80.5,51.8333 80.5,52.1667 80.5,52.5C 78.1756,52.6615 76.5089,53.8282 75.5,56C 74.2068,56.49 72.8734,56.6567 71.5,56.5C 70.8411,54.8621 70.1744,53.1955 69.5,51.5C 70.8692,49.2361 71.8692,46.9028 72.5,44.5C 74.8575,45.8606 76.5241,47.8606 77.5,50.5C 78.8333,48.8333 78.8333,47.1667 77.5,45.5C 76.354,44.8551 75.354,44.0217 74.5,43C 75.9893,41.5315 77.3226,40.0315 78.5,38.5 Z"/></g>
<g><path style="opacity:1" fill="#1c1e19" d="M 255.5,32.5 C 255.5,34.1667 255.5,35.8333 255.5,37.5C 252.734,42.117 250.734,47.117 249.5,52.5C 247.462,56.2613 245.796,60.2613 244.5,64.5C 243.167,64.5 241.833,64.5 240.5,64.5C 240.462,61.8187 241.129,59.3187 242.5,57C 242.43,56.2352 242.097,55.7352 241.5,55.5C 243.229,54.7638 244.229,53.4305 244.5,51.5C 246.38,49.2446 247.38,46.5779 247.5,43.5C 250.203,39.8068 252.869,36.1401 255.5,32.5 Z"/></g>
<g><path style="opacity:1" fill="#333534" d="M 5.5,47.5 C 7.3264,49.1475 8.65974,51.1475 9.5,53.5C 9.17128,58.2366 10.1713,63.2366 12.5,68.5C 11.233,70.8796 11.5663,73.0462 13.5,75C 12.2809,79.2848 12.2809,83.6181 13.5,88C 11.5521,92.5112 11.5521,97.1778 13.5,102C 13.1667,102.333 12.8333,102.667 12.5,103C 14.4764,107.145 16.143,111.645 17.5,116.5C 16.8333,117.5 16.1667,118.5 15.5,119.5C 15.1667,119.5 14.8333,119.5 14.5,119.5C 13.4583,118.209 12.2917,118.209 11,119.5C 10.7104,117.956 10.0437,116.623 9,115.5C 7.72407,112.634 7.5574,109.8 8.5,107C 7.31277,105.981 6.31277,104.814 5.5,103.5C 6.19159,101.665 5.85826,99.8316 4.5,98C 5.16667,97.6667 5.83333,97.3333 6.5,97C 6.44303,93.106 6.1097,88.9393 5.5,84.5C 7.0201,82.3984 8.0201,79.3984 8.5,75.5C 8.09946,73.5658 7.09946,72.0658 5.5,71C 6.83333,69.3333 6.83333,67.6667 5.5,66C 7.99134,65.3741 7.99134,64.5407 5.5,63.5C 6.34727,61.939 6.01393,60.439 4.5,59C 4.228,55.6133 4.56133,51.7799 5.5,47.5 Z"/></g>
<g><path style="opacity:1" fill="#204719" d="M 39.5,34.5 C 41.9286,39.927 45.9286,41.5937 51.5,39.5C 52.625,40.3478 52.625,41.3478 51.5,42.5C 49.6203,47.2785 51.2869,49.9452 56.5,50.5C 58.2922,51.3091 60.2922,51.8091 62.5,52C 61.9558,52.7172 61.2891,53.2172 60.5,53.5C 56.8183,53.4451 53.485,52.4451 50.5,50.5C 50.6567,51.8734 50.49,53.2068 50,54.5C 49.6667,54.1667 49.3333,53.8333 49,53.5C 47.907,55.3492 46.5737,57.0158 45,58.5C 44.1841,57.1772 43.0174,56.5106 41.5,56.5C 40.0812,53.8996 38.4146,51.3996 36.5,49C 29.1367,46.049 21.8034,43.2157 14.5,40.5C 14.5,40.1667 14.5,39.8333 14.5,39.5C 15.609,39.4431 16.609,39.1098 17.5,38.5C 19.6451,39.9885 21.9785,40.9885 24.5,41.5C 29.6464,43.12 34.9798,44.4533 40.5,45.5C 40.5,46.8333 40.5,48.1667 40.5,49.5C 42.288,49.7852 43.9547,49.4519 45.5,48.5C 42.5902,45.7974 39.4236,43.4641 36,41.5C 35.3333,38.8333 35.3333,36.1667 36,33.5C 37.0113,34.3366 38.1779,34.67 39.5,34.5 Z"/></g>
<g><path style="opacity:1" fill="#74b162" d="M 63.5,48.5 C 64.5,48.5 65.5,48.5 66.5,48.5C 66.6578,52.8414 67.6578,56.8414 69.5,60.5C 70.1667,60.5 70.5,60.8333 70.5,61.5C 70.5654,61.9382 70.3988,62.2716 70,62.5C 67.9817,61.7772 66.1484,60.7772 64.5,59.5C 63.2842,57.5491 61.6175,56.0491 59.5,55C 60.056,54.6174 60.3893,54.1174 60.5,53.5C 61.2891,53.2172 61.9558,52.7172 62.5,52C 60.2922,51.8091 58.2922,51.3091 56.5,50.5C 59.188,50.8342 61.5214,50.1675 63.5,48.5 Z"/></g>
<g><path style="opacity:1" fill="#a3ab9f" d="M 205.5,73.5 C 205.5,74.1667 205.167,74.5 204.5,74.5C 203.662,74.1583 203.328,73.4916 203.5,72.5C 204.167,70.5 204.833,68.5 205.5,66.5C 207.915,63.6601 209.248,60.3267 209.5,56.5C 210.942,55.1805 211.608,53.5138 211.5,51.5C 214.795,46.8013 217.629,41.8013 220,36.5C 222.31,34.0817 222.976,34.7483 222,38.5C 220.098,47.6373 216.098,55.6373 210,62.5C 208.643,66.3036 207.143,69.9702 205.5,73.5 Z"/></g>
<g><path style="opacity:1" fill="#58622b" d="M 142.5,35.5 C 145.534,41.9713 144.701,42.638 140,37.5C 140.502,41.0922 140.502,44.7589 140,48.5C 139.722,49.4158 139.222,50.0825 138.5,50.5C 133.921,53.0997 128.921,54.0997 123.5,53.5C 123.5,51.8333 123.5,50.1667 123.5,48.5C 125.386,50.2405 127.72,51.2405 130.5,51.5C 133.514,51.7415 136.014,50.7415 138,48.5C 138.333,43.8333 138.667,39.1667 139,34.5C 140.011,35.3366 141.178,35.67 142.5,35.5 Z"/></g>
<g><path style="opacity:1" fill="#876b4f" d="M 163.5,35.5 C 166.167,37.1667 168.833,38.8333 171.5,40.5C 172.167,41.1667 172.833,41.8333 173.5,42.5C 172.957,42.56 172.624,42.8933 172.5,43.5C 174.229,45.8511 174.896,48.5178 174.5,51.5C 173.448,51.3505 172.448,51.5172 171.5,52C 173.618,52.2602 175.284,53.2602 176.5,55C 175.906,55.4643 175.239,55.631 174.5,55.5C 172.824,56.1834 172.157,57.5168 172.5,59.5C 168.979,56.0504 164.979,53.0504 160.5,50.5C 161.115,48.8839 162.115,47.5505 163.5,46.5C 162.092,45.7568 160.759,44.9234 159.5,44C 164.283,42.8836 165.617,40.0502 163.5,35.5 Z"/></g>
<g><path style="opacity:1" fill="#aeca7a" d="M 72.5,43.5 C 72.5,43.8333 72.5,44.1667 72.5,44.5C 71.8692,46.9028 70.8692,49.2361 69.5,51.5C 70.1744,53.1955 70.8411,54.8621 71.5,56.5C 71.4729,58.1993 70.8062,59.5326 69.5,60.5C 67.6578,56.8414 66.6578,52.8414 66.5,48.5C 65.5,48.5 64.5,48.5 63.5,48.5C 63.5,47.8333 63.5,47.1667 63.5,46.5C 64.5832,46.5394 65.5832,46.8728 66.5,47.5C 68.2137,45.6496 70.2137,44.3163 72.5,43.5 Z"/></g>
<g><path style="opacity:1" fill="#5a4023" d="M 236.5,44.5 C 236.33,45.8221 236.663,46.9887 237.5,48C 239.473,48.4955 241.473,48.6621 243.5,48.5C 242.756,45.0504 244.09,43.3838 247.5,43.5C 247.38,46.5779 246.38,49.2446 244.5,51.5C 244.229,53.4305 243.229,54.7638 241.5,55.5C 237.833,55.5 234.167,55.5 230.5,55.5C 224.175,55.504 223.842,54.1707 229.5,51.5C 228.147,50.4763 227.48,49.143 227.5,47.5C 227.205,45.2646 227.539,43.2646 228.5,41.5C 231.477,40.3224 234.477,40.3224 237.5,41.5C 237.737,42.791 237.404,43.791 236.5,44.5 Z"/></g>
<g><path style="opacity:1" fill="#a76a18" d="M 236.5,44.5 C 235.549,45.9187 235.216,47.5853 235.5,49.5C 233.167,49.5 230.833,49.5 228.5,49.5C 228.351,48.448 228.517,47.448 229,46.5C 230.997,45.3282 232.83,43.9948 234.5,42.5C 235.713,42.7472 236.38,43.4138 236.5,44.5 Z"/></g>
<g><path style="opacity:1" fill="#365e24" d="M 60.5,53.5 C 60.3893,54.1174 60.056,54.6174 59.5,55C 61.6175,56.0491 63.2842,57.5491 64.5,59.5C 65.6879,61.8785 66.6879,64.3785 67.5,67C 67.1667,67.8333 66.8333,68.6667 66.5,69.5C 65.8933,69.3764 65.56,69.0431 65.5,68.5C 63.6429,63.6072 60.3095,61.2739 55.5,61.5C 57.2683,64.9396 59.9349,67.2729 63.5,68.5C 63.6309,69.3764 63.2975,70.0431 62.5,70.5C 59.4648,68.9598 58.4648,69.6265 59.5,72.5C 58.6236,72.6309 57.9569,72.2975 57.5,71.5C 55.6753,64.305 51.3419,60.6383 44.5,60.5C 43.5,59.1667 42.5,57.8333 41.5,56.5C 43.0174,56.5106 44.1841,57.1772 45,58.5C 46.5737,57.0158 47.907,55.3492 49,53.5C 49.3333,53.8333 49.6667,54.1667 50,54.5C 50.49,53.2068 50.6567,51.8734 50.5,50.5C 53.485,52.4451 56.8183,53.4451 60.5,53.5 Z"/></g>
<g><path style="opacity:1" fill="#8e9c3d" d="M 80.5,52.5 C 79.612,55.0545 79.2786,57.7212 79.5,60.5C 77.8967,60.3118 76.5634,60.8118 75.5,62C 77.1193,62.2355 78.1193,63.0689 78.5,64.5C 76.9826,64.5106 75.8159,65.1772 75,66.5C 74.3551,65.354 73.5217,64.354 72.5,63.5C 73.7978,60.7978 73.1312,60.1311 70.5,61.5C 70.5,60.8333 70.1667,60.5 69.5,60.5C 70.8062,59.5326 71.4729,58.1993 71.5,56.5C 72.8734,56.6567 74.2068,56.49 75.5,56C 76.5089,53.8282 78.1756,52.6615 80.5,52.5 Z"/></g>
<g><path style="opacity:1" fill="#4f7515" d="M 83.5,49.5 C 86.0631,50.0883 88.3964,51.0883 90.5,52.5C 88.9731,52.427 87.9731,53.0937 87.5,54.5C 84.1366,55.5813 83.6366,57.5813 86,60.5C 88.6212,61.9915 91.4545,62.6582 94.5,62.5C 90.6838,64.0134 87.0171,63.5134 83.5,61C 81.981,57.9491 80.981,54.7824 80.5,51.5C 81.2905,50.5987 82.2905,49.9321 83.5,49.5 Z"/></g>
<g><path style="opacity:1" fill="#9c8051" d="M 137.5,62.5 C 136.29,65.2752 134.956,67.9419 133.5,70.5C 132.421,68.457 130.754,67.1237 128.5,66.5C 127.832,69.3056 127.166,71.9723 126.5,74.5C 127.069,68.7877 126.069,63.4544 123.5,58.5C 124.29,57.3915 124.79,56.0581 125,54.5C 125.483,55.448 125.649,56.448 125.5,57.5C 128.763,56.8619 131.929,56.8619 135,57.5C 136.11,55.9632 137.61,55.2965 139.5,55.5C 138.833,57.8333 138.167,60.1667 137.5,62.5 Z"/></g>
<g><path style="opacity:1" fill="#0e0b0b" d="M 199.5,13.5 C 201.855,14.6586 204.188,15.6586 206.5,16.5C 205.325,16.281 204.325,16.6143 203.5,17.5C 200.443,21.3824 197.61,25.3824 195,29.5C 194.416,32.2567 194.75,34.9234 196,37.5C 198.724,40.4443 201.891,42.7776 205.5,44.5C 208.447,42.2961 211.78,41.2961 215.5,41.5C 214.167,44.8333 212.833,48.1667 211.5,51.5C 211.608,53.5138 210.942,55.1805 209.5,56.5C 208.842,57.3984 208.176,58.3984 207.5,59.5C 206.071,58.065 204.405,57.065 202.5,56.5C 200.962,56.4534 199.962,57.1201 199.5,58.5C 198.292,59.2341 196.959,59.5674 195.5,59.5C 193.882,51.3026 193.048,42.9693 193,34.5C 191.768,46.1337 191.268,57.8004 191.5,69.5C 196.581,69.4919 200.915,67.8252 204.5,64.5C 205.338,64.8417 205.672,65.5084 205.5,66.5C 204.833,68.5 204.167,70.5 203.5,72.5C 201.952,70.0776 200.286,70.0776 198.5,72.5C 196.046,73.2271 193.713,74.2271 191.5,75.5C 190.735,74.3398 189.735,73.3398 188.5,72.5C 187.571,71.3112 187.238,69.9778 187.5,68.5C 187.795,66.2646 187.461,64.2646 186.5,62.5C 185.5,60.5 184.5,58.5 183.5,56.5C 184.693,54.9459 185.86,53.2792 187,51.5C 188.567,45.345 188.401,39.345 186.5,33.5C 187.2,29.7627 188.2,26.0961 189.5,22.5C 189.557,21.391 189.89,20.391 190.5,19.5C 193.554,17.4215 196.554,15.4215 199.5,13.5 Z"/></g>
<g><path style="opacity:1" fill="#5c8b40" d="M -0.5,35.5 C 1.46283,36.9599 3.29617,38.6266 5,40.5C 7.69342,47.3893 11.5268,53.5559 16.5,59C 24.106,61.8188 31.7726,64.4855 39.5,67C 40.056,67.3826 40.3893,67.8826 40.5,68.5C 37.3084,68.5955 34.3084,67.9288 31.5,66.5C 29.1667,65.8333 26.8333,65.1667 24.5,64.5C 22.5,63.8333 20.5,63.1667 18.5,62.5C 15.9507,60.7963 13.6173,58.7963 11.5,56.5C 11.573,54.9731 10.9063,53.9731 9.5,53.5C 8.65974,51.1475 7.3264,49.1475 5.5,47.5C 5.09154,43.4272 3.09154,40.4272 -0.5,38.5C -0.5,37.5 -0.5,36.5 -0.5,35.5 Z"/></g>
<g><path style="opacity:1" fill="#7c6e47" d="M 121.5,48.5 C 122.167,48.5 122.833,48.5 123.5,48.5C 123.5,50.1667 123.5,51.8333 123.5,53.5C 128.921,54.0997 133.921,53.0997 138.5,50.5C 138.5,51.8333 139.167,52.5 140.5,52.5C 142.607,53.4682 144.941,53.8016 147.5,53.5C 146.048,54.3019 144.382,54.8019 142.5,55C 141.748,55.6708 141.414,56.5041 141.5,57.5C 140.876,57.9169 140.543,58.5836 140.5,59.5C 141.173,61.851 141.84,64.1843 142.5,66.5C 142.762,67.9778 142.429,69.3112 141.5,70.5C 141.167,70.3333 140.833,70.1667 140.5,70C 139.93,67.2445 138.93,64.7445 137.5,62.5C 138.167,60.1667 138.833,57.8333 139.5,55.5C 137.61,55.2965 136.11,55.9632 135,57.5C 131.929,56.8619 128.763,56.8619 125.5,57.5C 125.649,56.448 125.483,55.448 125,54.5C 124.79,56.0581 124.29,57.3915 123.5,58.5C 123.461,55.6786 122.795,53.0119 121.5,50.5C 116.467,51.2553 111.467,52.2553 106.5,53.5C 105.584,53.4573 104.917,53.1239 104.5,52.5C 110.175,51.1022 115.842,49.7689 121.5,48.5 Z"/></g>
<g><path style="opacity:1" fill="#6d9821" d="M 90.5,52.5 C 93.1667,52.8333 95.8333,53.1667 98.5,53.5C 98.1667,54.1667 97.8333,54.8333 97.5,55.5C 96.2935,56.8804 96.6269,58.0471 98.5,59C 97.2949,60.3756 95.9616,61.5423 94.5,62.5C 91.4545,62.6582 88.6212,61.9915 86,60.5C 83.6366,57.5813 84.1366,55.5813 87.5,54.5C 87.9731,53.0937 88.9731,52.427 90.5,52.5 Z"/></g>
<g><path style="opacity:1" fill="#86ef58" d="M 87.5,54.5 C 89.0861,55.4132 90.5861,55.4132 92,54.5C 96.8081,56.8572 96.6414,58.5238 91.5,59.5C 88.511,59.1986 87.1776,57.5319 87.5,54.5 Z"/></g>
<g><path style="opacity:1" fill="#29271e" d="M 199.5,58.5 C 198.629,61.1123 197.963,63.779 197.5,66.5C 199.833,65.8333 202.167,65.1667 204.5,64.5C 200.915,67.8252 196.581,69.4919 191.5,69.5C 191.268,57.8004 191.768,46.1337 193,34.5C 193.048,42.9693 193.882,51.3026 195.5,59.5C 196.959,59.5674 198.292,59.2341 199.5,58.5 Z"/></g>
<g><path style="opacity:1" fill="#494c44" d="M 209.5,56.5 C 209.248,60.3267 207.915,63.6601 205.5,66.5C 205.672,65.5084 205.338,64.8417 204.5,64.5C 202.167,65.1667 199.833,65.8333 197.5,66.5C 197.963,63.779 198.629,61.1123 199.5,58.5C 199.962,57.1201 200.962,56.4534 202.5,56.5C 204.405,57.065 206.071,58.065 207.5,59.5C 208.176,58.3984 208.842,57.3984 209.5,56.5 Z"/></g>
<g><path style="opacity:1" fill="#b39c6a" d="M 173.5,42.5 C 175.332,43.2485 176.999,44.2485 178.5,45.5C 179.382,49.5931 181.049,53.2597 183.5,56.5C 184.5,58.5 185.5,60.5 186.5,62.5C 186.682,64.5914 186.348,66.5914 185.5,68.5C 182.936,69.1207 180.436,69.454 178,69.5C 177.73,66.7759 177.23,64.1092 176.5,61.5C 177.04,60.2519 177.707,59.0852 178.5,58C 176.833,57.6667 175.167,57.3333 173.5,57C 174.056,56.6174 174.389,56.1174 174.5,55.5C 175.239,55.631 175.906,55.4643 176.5,55C 175.284,53.2602 173.618,52.2602 171.5,52C 172.448,51.5172 173.448,51.3505 174.5,51.5C 174.896,48.5178 174.229,45.8511 172.5,43.5C 172.624,42.8933 172.957,42.56 173.5,42.5 Z"/></g>
<g><path style="opacity:1" fill="#276a25" d="M 59.5,72.5 C 60.912,76.916 63.912,78.916 68.5,78.5C 68.2627,79.791 68.596,80.791 69.5,81.5C 69.5,82.5 69.5,83.5 69.5,84.5C 68.1751,83.0474 67.3418,83.3808 67,85.5C 62.7118,81.251 58.2118,77.251 53.5,73.5C 51.8557,68.9445 48.189,66.2778 42.5,65.5C 41.8933,65.6236 41.56,65.9569 41.5,66.5C 40.9569,66.44 40.6236,66.1067 40.5,65.5C 42.5522,64.3892 43.8855,62.7225 44.5,60.5C 51.3419,60.6383 55.6753,64.305 57.5,71.5C 57.9569,72.2975 58.6236,72.6309 59.5,72.5 Z"/></g>
<g><path style="opacity:1" fill="#52b04f" d="M 65.5,68.5 C 64.8333,68.5 64.1667,68.5 63.5,68.5C 59.9349,67.2729 57.2683,64.9396 55.5,61.5C 60.3095,61.2739 63.6429,63.6072 65.5,68.5 Z"/></g>
<g><path style="opacity:1" fill="#414e2a" d="M 18.5,62.5 C 20.5,63.1667 22.5,63.8333 24.5,64.5C 25.0614,69.0056 26.8947,73.3389 30,77.5C 31.2303,83.5787 31.7303,89.5787 31.5,95.5C 32.552,95.3505 33.552,95.5172 34.5,96C 33.6198,97.3561 33.2865,98.8561 33.5,100.5C 32.0991,103.634 30.4325,106.634 28.5,109.5C 28.6236,110.107 28.9569,110.44 29.5,110.5C 26.236,112.423 23.236,114.756 20.5,117.5C 18.8333,118.167 17.1667,118.833 15.5,119.5C 16.1667,118.5 16.8333,117.5 17.5,116.5C 19.7772,115.551 21.7772,114.218 23.5,112.5C 25.0217,111.569 26.3551,110.402 27.5,109C 25.5805,106.1 25.2472,103.1 26.5,100C 25.6433,99.3109 24.9767,98.4776 24.5,97.5C 24.622,92.6485 24.9554,87.8152 25.5,83C 24.8333,82.6667 24.1667,82.3333 23.5,82C 26.2188,77.5749 25.5522,73.5749 21.5,70C 22.6537,69.0862 22.487,68.2529 21,67.5C 20.6667,67.8333 20.3333,68.1667 20,68.5C 19.6847,66.4144 19.1847,64.4144 18.5,62.5 Z"/></g>
<g><path style="opacity:1" fill="#475419" d="M 80.5,51.5 C 80.981,54.7824 81.981,57.9491 83.5,61C 87.0171,63.5134 90.6838,64.0134 94.5,62.5C 95.9616,61.5423 97.2949,60.3756 98.5,59C 96.6269,58.0471 96.2935,56.8804 97.5,55.5C 98.4013,56.2905 99.0679,57.2905 99.5,58.5C 100.218,60.1368 100.384,61.8034 100,63.5C 97.2945,64.7053 95.4611,66.7053 94.5,69.5C 90.8822,70.3194 87.2156,70.3194 83.5,69.5C 82.4782,67.1448 80.8116,65.4782 78.5,64.5C 78.1193,63.0689 77.1193,62.2355 75.5,62C 76.5634,60.8118 77.8967,60.3118 79.5,60.5C 79.2786,57.7212 79.612,55.0545 80.5,52.5C 80.5,52.1667 80.5,51.8333 80.5,51.5 Z"/></g>
<g><path style="opacity:1" fill="#a3988a" d="M 153.5,61.5 C 155.5,61.5 157.5,61.5 159.5,61.5C 159.833,61.5 160.167,61.5 160.5,61.5C 161.11,62.391 161.443,63.391 161.5,64.5C 159.052,65.4731 156.385,65.8064 153.5,65.5C 153.5,64.1667 153.5,62.8333 153.5,61.5 Z"/></g>
<g><path style="opacity:1" fill="#b6a467" d="M 123.5,58.5 C 126.069,63.4544 127.069,68.7877 126.5,74.5C 124.974,73.8953 123.974,72.7286 123.5,71C 121.432,70.3131 119.432,70.4798 117.5,71.5C 116.186,70.6872 115.019,69.6872 114,68.5C 113.781,69.938 113.281,71.2713 112.5,72.5C 109.979,71.2147 107.313,70.5481 104.5,70.5C 104.737,71.791 104.404,72.791 103.5,73.5C 103.119,68.7626 102.286,64.0959 101,59.5C 100.617,58.944 100.117,58.6107 99.5,58.5C 99.0679,57.2905 98.4013,56.2905 97.5,55.5C 97.8333,54.8333 98.1667,54.1667 98.5,53.5C 100.373,53.4827 102.373,53.1494 104.5,52.5C 104.917,53.1239 105.584,53.4573 106.5,53.5C 111.467,52.2553 116.467,51.2553 121.5,50.5C 122.795,53.0119 123.461,55.6786 123.5,58.5 Z"/></g>
<g><path style="opacity:1" fill="#545952" d="M 242.5,9.5 C 241.209,9.26269 240.209,9.59603 239.5,10.5C 231.47,16.3704 226.47,24.2037 224.5,34C 225.368,36.7907 226.701,39.2907 228.5,41.5C 227.539,43.2646 227.205,45.2646 227.5,47.5C 224.951,51.0975 222.951,55.0975 221.5,59.5C 220.675,60.3857 219.675,60.719 218.5,60.5C 218.969,63.3387 218.969,66.0054 218.5,68.5C 216.335,68.1159 214.668,68.7826 213.5,70.5C 213.957,71.2975 214.624,71.6309 215.5,71.5C 215.389,72.1174 215.056,72.6174 214.5,73C 211.518,73.498 208.518,73.6646 205.5,73.5C 207.143,69.9702 208.643,66.3036 210,62.5C 216.098,55.6373 220.098,47.6373 222,38.5C 222.976,34.7483 222.31,34.0817 220,36.5C 217.629,41.8013 214.795,46.8013 211.5,51.5C 212.833,48.1667 214.167,44.8333 215.5,41.5C 217.167,38.1667 218.833,34.8333 220.5,31.5C 222.801,28.1899 225.134,24.8566 227.5,21.5C 228.6,20.3951 229.267,19.0618 229.5,17.5C 231.167,16.5 232.5,15.1667 233.5,13.5C 235.262,12.7377 236.262,11.4044 236.5,9.5C 238.611,8.25844 240.611,8.25844 242.5,9.5 Z"/></g>
<g><path style="opacity:1" fill="#362d30" d="M 165.5,71.5 C 165.167,70.8333 164.833,70.1667 164.5,69.5C 164.971,68.0992 165.638,66.7658 166.5,65.5C 169.167,67.5 171.5,69.8333 173.5,72.5C 170.524,73.89 167.857,73.5567 165.5,71.5 Z"/></g>
<g><path style="opacity:1" fill="#39403b" d="M 255.5,42.5 C 255.5,58.1667 255.5,73.8333 255.5,89.5C 252.5,89.5 249.5,89.5 246.5,89.5C 246.369,88.7611 246.536,88.0944 247,87.5C 248.699,88.4061 250.533,88.7394 252.5,88.5C 252.579,84.6595 251.246,81.4929 248.5,79C 249.167,78.6667 249.833,78.3333 250.5,78C 249.376,77.7508 248.376,77.2508 247.5,76.5C 249.375,73.7602 250.042,70.9268 249.5,68C 248.207,67.51 246.873,67.3433 245.5,67.5C 245.378,70.2921 244.044,72.2921 241.5,73.5C 241.833,72.1667 242.167,70.8333 242.5,69.5C 241.817,67.8235 240.483,67.1568 238.5,67.5C 231.933,66.4816 225.267,66.8149 218.5,68.5C 218.969,66.0054 218.969,63.3387 218.5,60.5C 219.675,60.719 220.675,60.3857 221.5,59.5C 222.951,55.0975 224.951,51.0975 227.5,47.5C 227.48,49.143 228.147,50.4763 229.5,51.5C 223.842,54.1707 224.175,55.504 230.5,55.5C 229.108,58.0254 229.442,60.1921 231.5,62C 230.167,63 228.833,64 227.5,65C 233.349,65.8184 239.015,65.6517 244.5,64.5C 245.796,60.2613 247.462,56.2613 249.5,52.5C 251.822,49.9463 253.822,46.613 255.5,42.5 Z"/></g>
<g><path style="opacity:1" fill="#2e312c" d="M 230.5,55.5 C 234.167,55.5 237.833,55.5 241.5,55.5C 242.097,55.7352 242.43,56.2352 242.5,57C 241.129,59.3187 240.462,61.8187 240.5,64.5C 241.833,64.5 243.167,64.5 244.5,64.5C 239.015,65.6517 233.349,65.8184 227.5,65C 228.833,64 230.167,63 231.5,62C 229.442,60.1921 229.108,58.0254 230.5,55.5 Z"/></g>
<g><path style="opacity:1" fill="#a35e12" d="M 244.5,51.5 C 242.504,53.3332 240.171,53.8332 237.5,53C 238.881,51.375 240.548,50.2083 242.5,49.5C 243.713,49.7472 244.38,50.4138 244.5,51.5 Z"/></g>
<g><path style="opacity:1" fill="#5b742e" d="M 64.5,59.5 C 66.1484,60.7772 67.9817,61.7772 70,62.5C 70.3988,62.2716 70.5654,61.9382 70.5,61.5C 73.1312,60.1311 73.7978,60.7978 72.5,63.5C 73.5217,64.354 74.3551,65.354 75,66.5C 75.8159,65.1772 76.9826,64.5106 78.5,64.5C 80.8116,65.4782 82.4782,67.1448 83.5,69.5C 81.8997,68.748 80.3997,67.748 79,66.5C 77.9887,67.3366 76.8221,67.67 75.5,67.5C 76.1836,73.0228 79.1836,75.8561 84.5,76C 86.4257,75.5776 87.4257,74.4109 87.5,72.5C 91.1182,70.7111 94.1182,71.3778 96.5,74.5C 94.3284,74.6759 91.9951,74.8425 89.5,75C 88.0577,75.3768 87.0577,76.2101 86.5,77.5C 84.5014,80.4493 84.1681,83.4493 85.5,86.5C 84.8333,87.1667 84.1667,87.8333 83.5,88.5C 82.609,89.1098 81.609,89.4431 80.5,89.5C 78.5736,85.6888 76.5736,85.6888 74.5,89.5C 73.8501,89.8039 73.1835,90.1373 72.5,90.5C 71.8281,87.1033 70.9948,83.7699 70,80.5C 69.6012,80.7284 69.4346,81.0618 69.5,81.5C 68.596,80.791 68.2627,79.791 68.5,78.5C 63.912,78.916 60.912,76.916 59.5,72.5C 58.4648,69.6265 59.4648,68.9598 62.5,70.5C 63.2975,70.0431 63.6309,69.3764 63.5,68.5C 64.1667,68.5 64.8333,68.5 65.5,68.5C 65.56,69.0431 65.8933,69.3764 66.5,69.5C 66.8333,68.6667 67.1667,67.8333 67.5,67C 66.6879,64.3785 65.6879,61.8785 64.5,59.5 Z"/></g>
<g><path style="opacity:1" fill="#27302a" d="M 246.5,89.5 C 242.833,89.5 239.167,89.5 235.5,89.5C 235.5,88.5 235.5,87.5 235.5,86.5C 236.234,85.2921 236.567,83.9587 236.5,82.5C 238.356,79.5914 240.023,76.5914 241.5,73.5C 244.044,72.2921 245.378,70.2921 245.5,67.5C 246.873,67.3433 248.207,67.51 249.5,68C 250.042,70.9268 249.375,73.7602 247.5,76.5C 248.376,77.2508 249.376,77.7508 250.5,78C 249.833,78.3333 249.167,78.6667 248.5,79C 251.246,81.4929 252.579,84.6595 252.5,88.5C 250.533,88.7394 248.699,88.4061 247,87.5C 246.536,88.0944 246.369,88.7611 246.5,89.5 Z"/></g>
<g><path style="opacity:1" fill="#4d6322" d="M 31.5,66.5 C 34.3084,67.9288 37.3084,68.5955 40.5,68.5C 41.609,68.5569 42.609,68.8902 43.5,69.5C 45.6365,70.4026 47.6365,71.5693 49.5,73C 47.5864,74.4133 46.2531,76.2466 45.5,78.5C 45.9569,79.2975 46.6236,79.6309 47.5,79.5C 46.2496,82.0212 46.5829,84.3545 48.5,86.5C 47.5,87.1667 46.5,87.8333 45.5,88.5C 45.5,87.1667 44.8333,86.5 43.5,86.5C 41.5709,83.9303 39.9042,81.097 38.5,78C 38.8333,77.6667 39.1667,77.3333 39.5,77C 35.1132,74.7836 32.4466,71.2836 31.5,66.5 Z"/></g>
<g><path style="opacity:1" fill="#130f0c" d="M 159.5,61.5 C 157.5,61.5 155.5,61.5 153.5,61.5C 152.566,62.5676 152.232,63.901 152.5,65.5C 151.325,65.281 150.325,65.6143 149.5,66.5C 149.624,67.1067 149.957,67.44 150.5,67.5C 150.576,70.9728 151.242,74.3061 152.5,77.5C 153.455,79.7457 154.122,82.079 154.5,84.5C 152.483,83.4706 150.483,82.4706 148.5,81.5C 147.503,85.4601 146.503,89.4601 145.5,93.5C 144.5,93.5 143.5,93.5 142.5,93.5C 142.737,92.209 142.404,91.209 141.5,90.5C 141.267,88.9382 140.6,87.6049 139.5,86.5C 140.436,82.2648 140.769,77.9315 140.5,73.5C 139.5,73.5 138.5,73.5 137.5,73.5C 137.351,72.448 137.517,71.448 138,70.5C 139.699,71.4061 141.533,71.7394 143.5,71.5C 143.784,69.5853 143.451,67.9187 142.5,66.5C 141.84,64.1843 141.173,61.851 140.5,59.5C 140.543,58.5836 140.876,57.9169 141.5,57.5C 144.113,56.5651 146.779,56.3985 149.5,57C 153.317,57.7045 156.65,59.2045 159.5,61.5 Z"/></g>
<g><path style="opacity:1" fill="#a2a89d" d="M 238.5,67.5 C 230.691,68.0792 223.025,69.4125 215.5,71.5C 214.624,71.6309 213.957,71.2975 213.5,70.5C 214.668,68.7826 216.335,68.1159 218.5,68.5C 225.267,66.8149 231.933,66.4816 238.5,67.5 Z"/></g>
<g><path style="opacity:1" fill="#89be7d" d="M 41.5,66.5 C 41.56,65.9569 41.8933,65.6236 42.5,65.5C 48.189,66.2778 51.8557,68.9445 53.5,73.5C 50.5673,74.4323 48.5673,76.4323 47.5,79.5C 46.6236,79.6309 45.9569,79.2975 45.5,78.5C 46.2531,76.2466 47.5864,74.4133 49.5,73C 47.6365,71.5693 45.6365,70.4026 43.5,69.5C 43.573,67.9731 42.9063,66.9731 41.5,66.5 Z"/></g>
<g><path style="opacity:1" fill="#696736" d="M 99.5,58.5 C 100.117,58.6107 100.617,58.944 101,59.5C 102.286,64.0959 103.119,68.7626 103.5,73.5C 104.344,76.678 106.011,79.3446 108.5,81.5C 107.178,81.67 106.011,81.3366 105,80.5C 104.536,81.0944 104.369,81.7611 104.5,82.5C 104.062,82.4346 103.728,82.6012 103.5,83C 104.823,83.8159 105.489,84.9826 105.5,86.5C 105.719,87.675 105.386,88.675 104.5,89.5C 102.694,87.3923 100.527,85.7256 98,84.5C 96.5,82.1667 95,79.8333 93.5,77.5C 91.2143,76.5804 88.8809,76.5804 86.5,77.5C 87.0577,76.2101 88.0577,75.3768 89.5,75C 91.9951,74.8425 94.3284,74.6759 96.5,74.5C 94.1182,71.3778 91.1182,70.7111 87.5,72.5C 85.7697,71.9744 84.4363,70.9744 83.5,69.5C 87.2156,70.3194 90.8822,70.3194 94.5,69.5C 95.4611,66.7053 97.2945,64.7053 100,63.5C 100.384,61.8034 100.218,60.1368 99.5,58.5 Z"/></g>
<g><path style="opacity:1" fill="#a6a089" d="M 152.5,65.5 C 155.021,67.0192 157.521,68.6859 160,70.5C 160.611,74.0876 159.111,75.2542 155.5,74C 154.763,71.0991 153.097,68.9325 150.5,67.5C 149.957,67.44 149.624,67.1067 149.5,66.5C 150.325,65.6143 151.325,65.281 152.5,65.5 Z"/></g>
<g><path style="opacity:1" fill="#14130f" d="M 238.5,67.5 C 240.483,67.1568 241.817,67.8235 242.5,69.5C 228.978,72.4664 215.645,75.7998 202.5,79.5C 202.365,77.4458 203.032,75.7791 204.5,74.5C 205.167,74.5 205.5,74.1667 205.5,73.5C 208.518,73.6646 211.518,73.498 214.5,73C 215.056,72.6174 215.389,72.1174 215.5,71.5C 223.025,69.4125 230.691,68.0792 238.5,67.5 Z"/></g>
<g><path style="opacity:1" fill="#201e11" d="M 242.5,69.5 C 242.167,70.8333 241.833,72.1667 241.5,73.5C 240.023,76.5914 238.356,79.5914 236.5,82.5C 236.357,78.6953 234.357,77.0286 230.5,77.5C 220.838,77.8198 211.338,79.1531 202,81.5C 200.833,81.1667 199.667,80.8333 198.5,80.5C 199.747,78.9579 199.747,77.4579 198.5,76C 201.125,74.6243 201.125,73.4577 198.5,72.5C 200.286,70.0776 201.952,70.0776 203.5,72.5C 203.328,73.4916 203.662,74.1583 204.5,74.5C 203.032,75.7791 202.365,77.4458 202.5,79.5C 215.645,75.7998 228.978,72.4664 242.5,69.5 Z"/></g>
<g><path style="opacity:1" fill="#040904" d="M 53.5,73.5 C 58.2118,77.251 62.7118,81.251 67,85.5C 67.3418,83.3808 68.1751,83.0474 69.5,84.5C 69.3338,90.8421 69.5005,97.1754 70,103.5C 71.045,104.373 71.8783,105.373 72.5,106.5C 69.7188,106.906 66.7188,106.906 63.5,106.5C 60.7531,106.813 58.0865,106.48 55.5,105.5C 59.1667,104.833 62.8333,104.167 66.5,103.5C 62.6752,102.735 58.8419,102.068 55,101.5C 52.7371,98.1749 50.5704,94.8415 48.5,91.5C 48.5,89.8333 48.5,88.1667 48.5,86.5C 46.5829,84.3545 46.2496,82.0212 47.5,79.5C 48.5673,76.4323 50.5673,74.4323 53.5,73.5 Z"/></g>
<g><path style="opacity:1" fill="#ada45a" d="M 83.5,69.5 C 84.4363,70.9744 85.7697,71.9744 87.5,72.5C 87.4257,74.4109 86.4257,75.5776 84.5,76C 79.1836,75.8561 76.1836,73.0228 75.5,67.5C 76.8221,67.67 77.9887,67.3366 79,66.5C 80.3997,67.748 81.8997,68.748 83.5,69.5 Z"/></g>
<g><path style="opacity:1" fill="#917252" d="M 174.5,55.5 C 174.389,56.1174 174.056,56.6174 173.5,57C 175.167,57.3333 176.833,57.6667 178.5,58C 177.707,59.0852 177.04,60.2519 176.5,61.5C 177.23,64.1092 177.73,66.7759 178,69.5C 180.436,69.454 182.936,69.1207 185.5,68.5C 186.348,66.5914 186.682,64.5914 186.5,62.5C 187.461,64.2646 187.795,66.2646 187.5,68.5C 186.395,71.8448 184.395,74.6782 181.5,77C 179.865,77.5396 178.532,77.0396 177.5,75.5C 175.612,80.2763 173.446,84.9429 171,89.5C 170.809,87.2922 170.309,85.2922 169.5,83.5C 169.054,80.2683 167.387,77.935 164.5,76.5C 161.807,78.2702 158.807,78.9368 155.5,78.5C 157.667,77.7315 159.834,76.7315 162,75.5C 162.333,73.8333 162.667,72.1667 163,70.5C 163.671,71.2524 164.504,71.5858 165.5,71.5C 167.857,73.5567 170.524,73.89 173.5,72.5C 171.5,69.8333 169.167,67.5 166.5,65.5C 165.638,66.7658 164.971,68.0992 164.5,69.5C 162.972,68.1979 161.972,66.5313 161.5,64.5C 161.443,63.391 161.11,62.391 160.5,61.5C 162.262,61.6427 163.929,61.3094 165.5,60.5C 168.501,64.6085 170.835,64.2752 172.5,59.5C 172.157,57.5168 172.824,56.1834 174.5,55.5 Z"/></g>
<g><path style="opacity:1" fill="#423639" d="M 179.5,62.5 C 182.361,63.237 183.361,64.9037 182.5,67.5C 180.244,66.5791 179.244,64.9124 179.5,62.5 Z"/></g>
<g><path style="opacity:1" fill="#3c452d" d="M 11.5,56.5 C 13.6173,58.7963 15.9507,60.7963 18.5,62.5C 19.1847,64.4144 19.6847,66.4144 20,68.5C 20.3333,68.1667 20.6667,67.8333 21,67.5C 22.487,68.2529 22.6537,69.0862 21.5,70C 25.5522,73.5749 26.2188,77.5749 23.5,82C 24.1667,82.3333 24.8333,82.6667 25.5,83C 24.9554,87.8152 24.622,92.6485 24.5,97.5C 24.9767,98.4776 25.6433,99.3109 26.5,100C 25.2472,103.1 25.5805,106.1 27.5,109C 26.3551,110.402 25.0217,111.569 23.5,112.5C 22.6016,111.842 21.6016,111.176 20.5,110.5C 20.054,107.724 19.054,105.224 17.5,103C 17.5519,94.0073 17.8852,85.3406 18.5,77C 16.122,69.8408 13.7886,63.0074 11.5,56.5 Z"/></g>
<g><path style="opacity:1" fill="#79634a" d="M 137.5,62.5 C 138.93,64.7445 139.93,67.2445 140.5,70C 140.833,70.1667 141.167,70.3333 141.5,70.5C 142.429,69.3112 142.762,67.9778 142.5,66.5C 143.451,67.9187 143.784,69.5853 143.5,71.5C 141.533,71.7394 139.699,71.4061 138,70.5C 137.517,71.448 137.351,72.448 137.5,73.5C 138.434,75.2385 138.434,76.9052 137.5,78.5C 135.571,77.6198 133.737,76.6198 132,75.5C 130.317,76.1765 130.15,77.1765 131.5,78.5C 130.527,80.9479 130.194,83.6146 130.5,86.5C 130.167,86.5 129.833,86.5 129.5,86.5C 127.82,85.2178 126.487,83.5511 125.5,81.5C 124.036,80.8401 122.369,80.5068 120.5,80.5C 115.246,81.88 109.913,82.5467 104.5,82.5C 104.369,81.7611 104.536,81.0944 105,80.5C 106.011,81.3366 107.178,81.67 108.5,81.5C 111.801,81.2078 113.801,79.5411 114.5,76.5C 117.85,76.665 121.183,76.4983 124.5,76C 125.416,75.7216 126.082,75.2216 126.5,74.5C 127.166,71.9723 127.832,69.3056 128.5,66.5C 130.754,67.1237 132.421,68.457 133.5,70.5C 134.956,67.9419 136.29,65.2752 137.5,62.5 Z"/></g>
<g><path style="opacity:1" fill="#796455" d="M 153.5,61.5 C 153.5,62.8333 153.5,64.1667 153.5,65.5C 156.385,65.8064 159.052,65.4731 161.5,64.5C 161.972,66.5313 162.972,68.1979 164.5,69.5C 164.833,70.1667 165.167,70.8333 165.5,71.5C 164.504,71.5858 163.671,71.2524 163,70.5C 162.667,72.1667 162.333,73.8333 162,75.5C 159.834,76.7315 157.667,77.7315 155.5,78.5C 154.609,77.8902 153.609,77.5569 152.5,77.5C 151.242,74.3061 150.576,70.9728 150.5,67.5C 153.097,68.9325 154.763,71.0991 155.5,74C 159.111,75.2542 160.611,74.0876 160,70.5C 157.521,68.6859 155.021,67.0192 152.5,65.5C 152.232,63.901 152.566,62.5676 153.5,61.5 Z"/></g>
<g><path style="opacity:1" fill="#465625" d="M 24.5,64.5 C 26.8333,65.1667 29.1667,65.8333 31.5,66.5C 32.4466,71.2836 35.1132,74.7836 39.5,77C 39.1667,77.3333 38.8333,77.6667 38.5,78C 39.9042,81.097 41.5709,83.9303 43.5,86.5C 40.5475,91.4503 37.2141,96.117 33.5,100.5C 33.2865,98.8561 33.6198,97.3561 34.5,96C 33.552,95.5172 32.552,95.3505 31.5,95.5C 31.7303,89.5787 31.2303,83.5787 30,77.5C 26.8947,73.3389 25.0614,69.0056 24.5,64.5 Z"/></g>
<g><path style="opacity:1" fill="#948154" d="M 126.5,74.5 C 126.082,75.2216 125.416,75.7216 124.5,76C 121.183,76.4983 117.85,76.665 114.5,76.5C 113.801,79.5411 111.801,81.2078 108.5,81.5C 106.011,79.3446 104.344,76.678 103.5,73.5C 104.404,72.791 104.737,71.791 104.5,70.5C 107.313,70.5481 109.979,71.2147 112.5,72.5C 113.281,71.2713 113.781,69.938 114,68.5C 115.019,69.6872 116.186,70.6872 117.5,71.5C 119.432,70.4798 121.432,70.3131 123.5,71C 123.974,72.7286 124.974,73.8953 126.5,74.5 Z"/></g>
<g><path style="opacity:1" fill="#3d3434" d="M 169.5,76.5 C 170.586,76.62 171.253,77.2867 171.5,78.5C 171.167,79.1667 170.833,79.8333 170.5,80.5C 169.571,79.3112 169.238,77.9778 169.5,76.5 Z"/></g>
<g><path style="opacity:1" fill="#2f2023" d="M 137.5,73.5 C 138.5,73.5 139.5,73.5 140.5,73.5C 140.769,77.9315 140.436,82.2648 139.5,86.5C 137.194,83.5271 134.527,80.8605 131.5,78.5C 130.15,77.1765 130.317,76.1765 132,75.5C 133.737,76.6198 135.571,77.6198 137.5,78.5C 138.434,76.9052 138.434,75.2385 137.5,73.5 Z"/></g>
<g><path style="opacity:1" fill="#363b31" d="M 9.5,53.5 C 10.9063,53.9731 11.573,54.9731 11.5,56.5C 13.7886,63.0074 16.122,69.8408 18.5,77C 17.8852,85.3406 17.5519,94.0073 17.5,103C 19.054,105.224 20.054,107.724 20.5,110.5C 21.6016,111.176 22.6016,111.842 23.5,112.5C 21.7772,114.218 19.7772,115.551 17.5,116.5C 16.143,111.645 14.4764,107.145 12.5,103C 12.8333,102.667 13.1667,102.333 13.5,102C 11.5521,97.1778 11.5521,92.5112 13.5,88C 12.2809,83.6181 12.2809,79.2848 13.5,75C 11.5663,73.0462 11.233,70.8796 12.5,68.5C 10.1713,63.2366 9.17128,58.2366 9.5,53.5 Z"/></g>
<g><path style="opacity:1" fill="#463b2c" d="M 125.5,81.5 C 122.813,81.3359 120.146,81.5026 117.5,82C 116.695,83.1127 116.028,84.2794 115.5,85.5C 113.967,84.5691 112.3,83.9024 110.5,83.5C 109.287,83.7472 108.62,84.4138 108.5,85.5C 107.883,85.3893 107.383,85.056 107,84.5C 106.722,85.4158 106.222,86.0825 105.5,86.5C 105.489,84.9826 104.823,83.8159 103.5,83C 103.728,82.6012 104.062,82.4346 104.5,82.5C 109.913,82.5467 115.246,81.88 120.5,80.5C 122.369,80.5068 124.036,80.8401 125.5,81.5 Z"/></g>
<g><path style="opacity:1" fill="#3c2e2f" d="M 169.5,83.5 C 170.036,86.6981 169.369,89.3647 167.5,91.5C 164.162,89.4847 161.162,86.9847 158.5,84C 157.072,83.4209 155.738,83.5876 154.5,84.5C 154.122,82.079 153.455,79.7457 152.5,77.5C 153.609,77.5569 154.609,77.8902 155.5,78.5C 158.807,78.9368 161.807,78.2702 164.5,76.5C 167.387,77.935 169.054,80.2683 169.5,83.5 Z"/></g>
<g><path style="opacity:1" fill="#a7a889" d="M 131.5,78.5 C 134.527,80.8605 137.194,83.5271 139.5,86.5C 140.6,87.6049 141.267,88.9382 141.5,90.5C 141.5,91.5 141.5,92.5 141.5,93.5C 139.409,93.3184 137.409,93.6518 135.5,94.5C 134.378,93.3698 133.044,92.7031 131.5,92.5C 130.85,90.5648 130.517,88.5648 130.5,86.5C 130.194,83.6146 130.527,80.9479 131.5,78.5 Z"/></g>
<g><path style="opacity:1" fill="#130f0a" d="M 105.5,86.5 C 106.222,86.0825 106.722,85.4158 107,84.5C 107.383,85.056 107.883,85.3893 108.5,85.5C 109.757,88.4274 111.757,90.7607 114.5,92.5C 115.474,90.2573 115.808,87.924 115.5,85.5C 116.028,84.2794 116.695,83.1127 117.5,82C 120.146,81.5026 122.813,81.3359 125.5,81.5C 126.487,83.5511 127.82,85.2178 129.5,86.5C 126.562,89.7777 123.562,93.1111 120.5,96.5C 123.642,97.1674 126.642,97.834 129.5,98.5C 128.683,100.478 127.183,101.478 125,101.5C 122.456,100.929 119.956,100.262 117.5,99.5C 115.384,95.0458 112.051,92.0458 107.5,90.5C 107.353,95.2142 107.686,99.8809 108.5,104.5C 108.44,105.043 108.107,105.376 107.5,105.5C 106.265,104.66 105.265,103.66 104.5,102.5C 103.5,101.833 102.5,101.167 101.5,100.5C 100.5,98.8333 99.1667,97.5 97.5,96.5C 96.6981,97.9516 96.1981,99.6183 96,101.5C 95.6667,99.1667 95.3333,96.8333 95,94.5C 94.6174,93.944 94.1174,93.6107 93.5,93.5C 92.369,90.7447 90.7024,88.4114 88.5,86.5C 87.6522,85.375 86.6522,85.375 85.5,86.5C 84.1681,83.4493 84.5014,80.4493 86.5,77.5C 88.8809,76.5804 91.2143,76.5804 93.5,77.5C 95,79.8333 96.5,82.1667 98,84.5C 100.527,85.7256 102.694,87.3923 104.5,89.5C 105.386,88.675 105.719,87.675 105.5,86.5 Z"/></g>
<g><path style="opacity:1" fill="#8b7860" d="M 115.5,85.5 C 115.808,87.924 115.474,90.2573 114.5,92.5C 111.757,90.7607 109.757,88.4274 108.5,85.5C 108.62,84.4138 109.287,83.7472 110.5,83.5C 112.3,83.9024 113.967,84.5691 115.5,85.5 Z"/></g>
<g><path style="opacity:1" fill="#977a5d" d="M 148.5,81.5 C 150.483,82.4706 152.483,83.4706 154.5,84.5C 155.738,83.5876 157.072,83.4209 158.5,84C 161.162,86.9847 164.162,89.4847 167.5,91.5C 168.391,92.2613 169.058,93.2613 169.5,94.5C 168.296,97.4441 167.296,100.444 166.5,103.5C 165.833,101.833 165.167,100.167 164.5,98.5C 164.02,94.1982 162.02,90.8649 158.5,88.5C 156.927,88.7517 155.594,89.4183 154.5,90.5C 152.621,90.6068 152.288,90.1068 153.5,89C 151.866,88.5065 150.199,88.3398 148.5,88.5C 148.5,86.1667 148.5,83.8333 148.5,81.5 Z"/></g>
<g><path style="opacity:1" fill="#2d261e" d="M 187.5,68.5 C 187.238,69.9778 187.571,71.3112 188.5,72.5C 189.735,73.3398 190.735,74.3398 191.5,75.5C 190.766,76.7079 190.433,78.0413 190.5,79.5C 188.61,79.2965 187.11,79.9632 186,81.5C 185.612,88.0933 182.445,93.0933 176.5,96.5C 175.614,97.325 175.281,98.325 175.5,99.5C 181.261,99.87 181.594,100.87 176.5,102.5C 175.479,104.188 174.145,105.521 172.5,106.5C 173.933,104.442 174.6,102.108 174.5,99.5C 173.448,99.3505 172.448,99.5172 171.5,100C 169.512,103.501 167.178,106.668 164.5,109.5C 164.971,107.421 165.637,105.421 166.5,103.5C 167.296,100.444 168.296,97.4441 169.5,94.5C 169.058,93.2613 168.391,92.2613 167.5,91.5C 169.369,89.3647 170.036,86.6981 169.5,83.5C 170.309,85.2922 170.809,87.2922 171,89.5C 173.446,84.9429 175.612,80.2763 177.5,75.5C 178.532,77.0396 179.865,77.5396 181.5,77C 184.395,74.6782 186.395,71.8448 187.5,68.5 Z"/></g>
<g><path style="opacity:1" fill="#81684a" d="M 223.5,79.5 C 226.807,79.0632 229.807,79.7298 232.5,81.5C 232.038,86.6084 231.038,91.6084 229.5,96.5C 229.637,98.1073 230.304,99.4406 231.5,100.5C 238.594,101.755 245.594,102.755 252.5,103.5C 247.154,104.002 241.821,104.668 236.5,105.5C 231.212,103.052 226.545,104.052 222.5,108.5C 221.5,107.167 220.5,107.167 219.5,108.5C 217.903,105.342 215.57,105.009 212.5,107.5C 215.028,108.517 215.028,109.684 212.5,111C 210.22,111.233 208.22,112.066 206.5,113.5C 203.572,112.079 202.238,113.079 202.5,116.5C 201.679,119.641 201.179,122.975 201,126.5C 197.552,131.745 195.386,137.412 194.5,143.5C 193.167,143.5 191.833,143.5 190.5,143.5C 182.629,142.805 174.629,142.138 166.5,141.5C 166.167,141 165.833,140.5 165.5,140C 167.019,137.422 167.852,134.589 168,131.5C 169.011,130.663 170.178,130.33 171.5,130.5C 171.343,131.873 171.51,133.207 172,134.5C 173.264,132.393 175.097,131.393 177.5,131.5C 177.336,134.187 177.503,136.854 178,139.5C 181.305,137.894 182.805,135.227 182.5,131.5C 188.288,131.052 193.122,128.719 197,124.5C 197.601,122.863 198.101,121.197 198.5,119.5C 198.176,116.671 196.843,116.004 194.5,117.5C 187.797,116.829 181.13,115.829 174.5,114.5C 177.193,112.959 179.859,111.626 182.5,110.5C 182.5,111.5 182.5,112.5 182.5,113.5C 185.582,112.87 188.582,111.87 191.5,110.5C 194.728,106.522 198.061,102.689 201.5,99C 200.939,97.4345 201.606,96.1011 203.5,95C 206.568,95.0481 208.902,93.8814 210.5,91.5C 209.5,90.8333 208.5,90.1667 207.5,89.5C 208.95,88.1502 209.617,86.4835 209.5,84.5C 210.822,84.33 211.989,84.6634 213,85.5C 213.219,84.062 213.719,82.7287 214.5,81.5C 217.64,80.9106 220.64,80.2439 223.5,79.5 Z"/></g>
<g><path style="opacity:1" fill="#c7cbb2" d="M 88.5,86.5 C 90.034,90.3153 89.3673,93.6486 86.5,96.5C 85.4938,93.8236 84.4938,91.1569 83.5,88.5C 84.1667,87.8333 84.8333,87.1667 85.5,86.5C 86.6522,85.375 87.6522,85.375 88.5,86.5 Z"/></g>
<g><path style="opacity:1" fill="#37412d" d="M 80.5,89.5 C 81.1667,93.5 79.5,95.1667 75.5,94.5C 74.6993,92.9582 74.366,91.2915 74.5,89.5C 76.5736,85.6888 78.5736,85.6888 80.5,89.5 Z"/></g>
<g><path style="opacity:1" fill="#232714" d="M 235.5,86.5 C 235.5,87.5 235.5,88.5 235.5,89.5C 239.167,89.5 242.833,89.5 246.5,89.5C 249.5,89.5 252.5,89.5 255.5,89.5C 255.5,93.1667 255.5,96.8333 255.5,100.5C 248.14,100.442 240.806,99.9422 233.5,99C 232.978,98.4387 232.645,97.772 232.5,97C 233.029,93.2433 234.029,89.7433 235.5,86.5 Z"/></g>
<g><path style="opacity:1" fill="#b4b284" d="M 88.5,86.5 C 90.7024,88.4114 92.369,90.7447 93.5,93.5C 93.7989,95.604 93.4656,97.604 92.5,99.5C 89.5313,100.765 88.8646,102.765 90.5,105.5C 90.631,106.239 90.4643,106.906 90,107.5C 88.583,105.602 87.083,103.936 85.5,102.5C 85.5,100.833 85.5,99.1667 85.5,97.5C 86.1667,97.5 86.5,97.1667 86.5,96.5C 89.3673,93.6486 90.034,90.3153 88.5,86.5 Z"/></g>
<g><path style="opacity:1" fill="#4d3c2a" d="M 198.5,72.5 C 201.125,73.4577 201.125,74.6243 198.5,76C 199.747,77.4579 199.747,78.9579 198.5,80.5C 199.667,80.8333 200.833,81.1667 202,81.5C 211.338,79.1531 220.838,77.8198 230.5,77.5C 234.357,77.0286 236.357,78.6953 236.5,82.5C 236.567,83.9587 236.234,85.2921 235.5,86.5C 234.029,89.7433 233.029,93.2433 232.5,97C 232.645,97.772 232.978,98.4387 233.5,99C 240.806,99.9422 248.14,100.442 255.5,100.5C 255.5,101.5 255.5,102.5 255.5,103.5C 254.5,103.5 253.5,103.5 252.5,103.5C 245.594,102.755 238.594,101.755 231.5,100.5C 230.304,99.4406 229.637,98.1073 229.5,96.5C 231.038,91.6084 232.038,86.6084 232.5,81.5C 229.807,79.7298 226.807,79.0632 223.5,79.5C 213.641,80.1078 204.141,82.4412 195,86.5C 193.951,85.4829 192.784,85.3162 191.5,86C 189.926,87.8259 189.093,89.9925 189,92.5C 185.586,93.6369 182.753,95.6369 180.5,98.5C 182.766,99.3142 185.1,99.8142 187.5,100C 184.006,101.217 180.673,102.717 177.5,104.5C 177.261,107.696 175.594,109.529 172.5,110C 170.189,112.206 170.189,114.039 172.5,115.5C 172.5,115.833 172.5,116.167 172.5,116.5C 162.875,116.424 162.209,114.257 170.5,110C 171.305,108.887 171.972,107.721 172.5,106.5C 174.145,105.521 175.479,104.188 176.5,102.5C 181.594,100.87 181.261,99.87 175.5,99.5C 175.281,98.325 175.614,97.325 176.5,96.5C 182.445,93.0933 185.612,88.0933 186,81.5C 187.11,79.9632 188.61,79.2965 190.5,79.5C 190.433,78.0413 190.766,76.7079 191.5,75.5C 193.713,74.2271 196.046,73.2271 198.5,72.5 Z"/></g>
<g><path style="opacity:1" fill="#787842" d="M 83.5,88.5 C 84.4938,91.1569 85.4938,93.8236 86.5,96.5C 86.5,97.1667 86.1667,97.5 85.5,97.5C 84.8333,98.8333 84.1667,100.167 83.5,101.5C 82.8617,99.54 82.8617,97.7067 83.5,96C 83,95.5 82.5,95 82,94.5C 81.8091,96.7078 81.3091,98.7078 80.5,100.5C 80.5,98.8333 80.5,97.1667 80.5,95.5C 78.5853,95.7845 76.9187,95.4511 75.5,94.5C 79.5,95.1667 81.1667,93.5 80.5,89.5C 81.609,89.4431 82.609,89.1098 83.5,88.5 Z"/></g>
<g><path style="opacity:1" fill="#372223" d="M 129.5,86.5 C 129.833,86.5 130.167,86.5 130.5,86.5C 130.517,88.5648 130.85,90.5648 131.5,92.5C 131.946,95.0101 131.28,97.0101 129.5,98.5C 126.642,97.834 123.642,97.1674 120.5,96.5C 123.562,93.1111 126.562,89.7777 129.5,86.5 Z"/></g>
<g><path style="opacity:1" fill="#3b2e2b" d="M 164.5,98.5 C 164.785,100.288 164.452,101.955 163.5,103.5C 159.1,100.081 154.767,96.7474 150.5,93.5C 151.59,92.1429 152.924,91.1429 154.5,90.5C 155.594,89.4183 156.927,88.7517 158.5,88.5C 162.02,90.8649 164.02,94.1982 164.5,98.5 Z"/></g>
<g><path style="opacity:1" fill="#69533c" d="M 223.5,79.5 C 220.64,80.2439 217.64,80.9106 214.5,81.5C 213.719,82.7287 213.219,84.062 213,85.5C 211.989,84.6634 210.822,84.33 209.5,84.5C 209.617,86.4835 208.95,88.1502 207.5,89.5C 208.5,90.1667 209.5,90.8333 210.5,91.5C 208.902,93.8814 206.568,95.0481 203.5,95C 201.606,96.1011 200.939,97.4345 201.5,99C 198.061,102.689 194.728,106.522 191.5,110.5C 188.582,111.87 185.582,112.87 182.5,113.5C 182.5,112.5 182.5,111.5 182.5,110.5C 182.631,109.761 182.464,109.094 182,108.5C 179.167,110 176.333,111.5 173.5,113C 172.748,113.671 172.414,114.504 172.5,115.5C 170.189,114.039 170.189,112.206 172.5,110C 175.594,109.529 177.261,107.696 177.5,104.5C 180.673,102.717 184.006,101.217 187.5,100C 185.1,99.8142 182.766,99.3142 180.5,98.5C 182.753,95.6369 185.586,93.6369 189,92.5C 189.093,89.9925 189.926,87.8259 191.5,86C 192.784,85.3162 193.951,85.4829 195,86.5C 204.141,82.4412 213.641,80.1078 223.5,79.5 Z"/></g>
<g><path style="opacity:1" fill="#a3a384" d="M 117.5,99.5 C 116.751,103.789 114.084,105.789 109.5,105.5C 109.5,104.833 109.167,104.5 108.5,104.5C 107.686,99.8809 107.353,95.2142 107.5,90.5C 112.051,92.0458 115.384,95.0458 117.5,99.5 Z"/></g>
<g><path style="opacity:1" fill="#1f2711" d="M 48.5,86.5 C 48.5,88.1667 48.5,89.8333 48.5,91.5C 47.4647,95.6095 46.4647,99.4429 45.5,103C 47.0614,103.941 48.3947,105.108 49.5,106.5C 49,106.833 48.5,107.167 48,107.5C 46.3745,106.711 44.8745,105.711 43.5,104.5C 42.6433,105.736 41.9766,107.069 41.5,108.5C 47.8429,109.158 54.1762,109.325 60.5,109C 57.7124,111.374 58.0458,112.707 61.5,113C 60.5,114 59.5,115 58.5,116C 59.7112,116.893 59.7112,117.726 58.5,118.5C 56.1495,119.861 53.8162,121.194 51.5,122.5C 51.7496,121.078 52.583,120.078 54,119.5C 54.7494,118.365 54.5827,117.365 53.5,116.5C 51.9918,118.507 50.1584,120.174 48,121.5C 47.586,121.043 47.086,120.709 46.5,120.5C 43.8478,124.387 41.8478,124.221 40.5,120C 39.5,119.667 38.5,119.333 37.5,119C 38.5742,118.261 39.2409,117.261 39.5,116C 38.4188,114.629 37.5855,113.129 37,111.5C 32.0629,115.597 26.7295,119.264 21,122.5C 21.4759,120.68 21.3093,119.013 20.5,117.5C 23.236,114.756 26.236,112.423 29.5,110.5C 34.4146,102.91 39.748,95.5768 45.5,88.5C 46.5,87.8333 47.5,87.1667 48.5,86.5 Z"/></g>
<g><path style="opacity:1" fill="#826e51" d="M 93.5,93.5 C 94.1174,93.6107 94.6174,93.944 95,94.5C 95.3333,96.8333 95.6667,99.1667 96,101.5C 96.1981,99.6183 96.6981,97.9516 97.5,96.5C 97.5,98.8333 97.5,101.167 97.5,103.5C 96.5,103.5 95.5,103.5 94.5,103.5C 94.44,102.957 94.1067,102.624 93.5,102.5C 92.7022,104.078 92.2022,105.744 92,107.5C 91.7216,106.584 91.2216,105.918 90.5,105.5C 88.8646,102.765 89.5313,100.765 92.5,99.5C 93.4656,97.604 93.7989,95.604 93.5,93.5 Z"/></g>
<g><path style="opacity:1" fill="#2f3724" d="M 83.5,101.5 C 81.6941,104.338 80.6941,104.005 80.5,100.5C 81.3091,98.7078 81.8091,96.7078 82,94.5C 82.5,95 83,95.5 83.5,96C 82.8617,97.7067 82.8617,99.54 83.5,101.5 Z"/></g>
<g><path style="opacity:1" fill="#6d9c49" d="M 43.5,86.5 C 44.8333,86.5 45.5,87.1667 45.5,88.5C 39.748,95.5768 34.4146,102.91 29.5,110.5C 28.9569,110.44 28.6236,110.107 28.5,109.5C 30.4325,106.634 32.0991,103.634 33.5,100.5C 37.2141,96.117 40.5475,91.4503 43.5,86.5 Z"/></g>
<g><path style="opacity:1" fill="#6e913e" d="M 74.5,89.5 C 74.366,91.2915 74.6993,92.9582 75.5,94.5C 76.9187,95.4511 78.5853,95.7845 80.5,95.5C 80.5,97.1667 80.5,98.8333 80.5,100.5C 80.6941,104.005 81.6941,104.338 83.5,101.5C 84.1667,100.167 84.8333,98.8333 85.5,97.5C 85.5,99.1667 85.5,100.833 85.5,102.5C 85.4809,104.06 85.1476,105.56 84.5,107C 86.6942,109.549 88.5275,112.383 90,115.5C 90.8159,116.823 91.9826,117.489 93.5,117.5C 93.4346,117.938 93.6012,118.272 94,118.5C 94.3333,117.833 94.6667,117.167 95,116.5C 95.3333,117.833 95.6667,119.167 96,120.5C 96.6708,121.252 97.5041,121.586 98.5,121.5C 99.4013,122.29 100.068,123.29 100.5,124.5C 101.965,125.737 103.632,126.737 105.5,127.5C 107.216,129.025 109.216,130.025 111.5,130.5C 111.918,131.222 112.584,131.722 113.5,132C 112.906,132.464 112.239,132.631 111.5,132.5C 105.672,130.329 100.338,127.329 95.5,123.5C 91.0212,120.081 86.6878,116.414 82.5,112.5C 82.2035,107.578 81.2035,106.912 79.5,110.5C 77.1667,109.167 74.8333,107.833 72.5,106.5C 71.8783,105.373 71.045,104.373 70,103.5C 69.5005,97.1754 69.3338,90.8421 69.5,84.5C 69.5,83.5 69.5,82.5 69.5,81.5C 69.4346,81.0618 69.6012,80.7284 70,80.5C 70.9948,83.7699 71.8281,87.1033 72.5,90.5C 73.1835,90.1373 73.8501,89.8039 74.5,89.5 Z"/></g>
<g><path style="opacity:1" fill="#b1a780" d="M 97.5,96.5 C 99.1667,97.5 100.5,98.8333 101.5,100.5C 102.485,103.539 101.818,106.206 99.5,108.5C 97.3792,108.325 95.3792,108.659 93.5,109.5C 94.1495,107.565 94.4828,105.565 94.5,103.5C 95.5,103.5 96.5,103.5 97.5,103.5C 97.5,101.167 97.5,98.8333 97.5,96.5 Z"/></g>
<g><path style="opacity:1" fill="#7c5d4a" d="M 148.5,81.5 C 148.5,83.8333 148.5,86.1667 148.5,88.5C 150.199,88.3398 151.866,88.5065 153.5,89C 152.288,90.1068 152.621,90.6068 154.5,90.5C 152.924,91.1429 151.59,92.1429 150.5,93.5C 149.025,94.262 147.691,94.5953 146.5,94.5C 149.548,97.0391 151.548,100.206 152.5,104C 151.427,107.26 150.427,110.426 149.5,113.5C 149.487,108.74 148.82,104.074 147.5,99.5C 143.708,98.5234 140.041,99.0234 136.5,101C 133.638,102.786 132.972,105.119 134.5,108C 137.596,109.872 140.596,111.705 143.5,113.5C 142.347,114.313 142.347,115.313 143.5,116.5C 140.41,117.7 137.743,119.533 135.5,122C 137.929,122.451 138.096,123.285 136,124.5C 135,123.5 134,122.5 133,121.5C 132.372,124.954 131.205,125.287 129.5,122.5C 127.824,121.817 127.157,120.483 127.5,118.5C 124.635,118.965 121.968,119.965 119.5,121.5C 120.494,118.184 121.494,114.851 122.5,111.5C 122.167,110.833 121.833,110.167 121.5,109.5C 118.365,108.217 115.365,108.217 112.5,109.5C 112.5,109.833 112.5,110.167 112.5,110.5C 111.5,110.5 110.5,110.5 109.5,110.5C 109.5,108.833 109.5,107.167 109.5,105.5C 114.084,105.789 116.751,103.789 117.5,99.5C 119.956,100.262 122.456,100.929 125,101.5C 127.183,101.478 128.683,100.478 129.5,98.5C 131.28,97.0101 131.946,95.0101 131.5,92.5C 133.044,92.7031 134.378,93.3698 135.5,94.5C 137.409,93.6518 139.409,93.3184 141.5,93.5C 141.5,92.5 141.5,91.5 141.5,90.5C 142.404,91.209 142.737,92.209 142.5,93.5C 143.5,93.5 144.5,93.5 145.5,93.5C 146.503,89.4601 147.503,85.4601 148.5,81.5 Z"/></g>
<g><path style="opacity:1" fill="#4e5438" d="M 85.5,102.5 C 87.083,103.936 88.583,105.602 90,107.5C 90.4643,106.906 90.631,106.239 90.5,105.5C 91.2216,105.918 91.7216,106.584 92,107.5C 92.2022,105.744 92.7022,104.078 93.5,102.5C 94.1067,102.624 94.44,102.957 94.5,103.5C 94.4828,105.565 94.1495,107.565 93.5,109.5C 93.5,112.167 93.5,114.833 93.5,117.5C 91.9826,117.489 90.8159,116.823 90,115.5C 88.5275,112.383 86.6942,109.549 84.5,107C 85.1476,105.56 85.4809,104.06 85.5,102.5 Z"/></g>
<g><path style="opacity:1" fill="#334c20" d="M 82.5,112.5 C 81.2905,112.068 80.2905,111.401 79.5,110.5C 81.2035,106.912 82.2035,107.578 82.5,112.5 Z"/></g>
<g><path style="opacity:1" fill="#48382f" d="M 149.5,113.5 C 147.641,116.019 145.641,116.019 143.5,113.5C 140.596,111.705 137.596,109.872 134.5,108C 132.972,105.119 133.638,102.786 136.5,101C 140.041,99.0234 143.708,98.5234 147.5,99.5C 148.82,104.074 149.487,108.74 149.5,113.5 Z"/></g>
<g><path style="opacity:1" fill="#0c1207" d="M 63.5,106.5 C 66.7188,106.906 69.7188,106.906 72.5,106.5C 74.8333,107.833 77.1667,109.167 79.5,110.5C 80.2905,111.401 81.2905,112.068 82.5,112.5C 86.6878,116.414 91.0212,120.081 95.5,123.5C 94.5416,123.953 93.7083,124.619 93,125.5C 91.6667,124.167 90.3333,124.167 89,125.5C 88.8508,122.721 88.0174,122.221 86.5,124C 86.8333,124.333 87.1667,124.667 87.5,125C 86.4704,128.024 85.8037,130.857 85.5,133.5C 86.09,134.799 87.09,135.632 88.5,136C 87.7433,137.512 86.7433,138.846 85.5,140C 88.6107,138.89 91.2773,139.556 93.5,142C 92.5842,142.278 91.9175,142.778 91.5,143.5C 87.5,143.5 83.5,143.5 79.5,143.5C 82.9949,138.358 81.6616,135.025 75.5,133.5C 72.7033,129.374 69.2033,126.04 65,123.5C 64.5706,121.331 65.0706,119.331 66.5,117.5C 66.1543,116.304 65.6543,116.304 65,117.5C 63.5742,114.931 63.7408,112.764 65.5,111C 62.8333,110 62.8333,109 65.5,108C 64.5842,107.722 63.9175,107.222 63.5,106.5 Z"/></g>
<g><path style="opacity:1" fill="#8d7359" d="M 252.5,103.5 C 253.5,103.5 254.5,103.5 255.5,103.5C 255.5,108.5 255.5,113.5 255.5,118.5C 251.243,118.269 247.41,116.936 244,114.5C 241.486,114.517 238.986,114.851 236.5,115.5C 236.509,113.692 236.009,112.025 235,110.5C 233.255,111.956 231.422,113.289 229.5,114.5C 226.131,112.35 223.131,112.516 220.5,115C 225.919,115.311 230.919,116.811 235.5,119.5C 231.599,119.858 227.599,119.858 223.5,119.5C 223.5,120.5 223.5,121.5 223.5,122.5C 225.167,122.5 226.833,122.5 228.5,122.5C 228.316,126.353 226.316,128.687 222.5,129.5C 222.555,127.459 222.555,125.292 222.5,123C 219.254,121.538 216.087,120.038 213,118.5C 210.911,120.959 208.745,120.959 206.5,118.5C 208.006,117.253 209.506,117.253 211,118.5C 211.52,116.711 211.187,115.044 210,113.5C 209.085,114.328 208.419,115.328 208,116.5C 207.692,115.692 207.192,115.025 206.5,114.5C 205.378,115.63 204.044,116.297 202.5,116.5C 202.238,113.079 203.572,112.079 206.5,113.5C 208.22,112.066 210.22,111.233 212.5,111C 215.028,109.684 215.028,108.517 212.5,107.5C 215.57,105.009 217.903,105.342 219.5,108.5C 220.5,107.167 221.5,107.167 222.5,108.5C 226.545,104.052 231.212,103.052 236.5,105.5C 241.821,104.668 247.154,104.002 252.5,103.5 Z"/></g>
<g><path style="opacity:1" fill="#8c7357" d="M 222.5,129.5 C 218.17,131.163 215.17,134.163 213.5,138.5C 215.167,139.167 216.833,139.833 218.5,140.5C 217.873,141.417 217.539,142.417 217.5,143.5C 209.833,143.5 202.167,143.5 194.5,143.5C 195.386,137.412 197.552,131.745 201,126.5C 201.179,122.975 201.679,119.641 202.5,116.5C 204.044,116.297 205.378,115.63 206.5,114.5C 207.192,115.025 207.692,115.692 208,116.5C 208.419,115.328 209.085,114.328 210,113.5C 211.187,115.044 211.52,116.711 211,118.5C 209.506,117.253 208.006,117.253 206.5,118.5C 208.745,120.959 210.911,120.959 213,118.5C 216.087,120.038 219.254,121.538 222.5,123C 222.555,125.292 222.555,127.459 222.5,129.5 Z"/></g>
<g><path style="opacity:1" fill="#6f8240" d="M 99.5,108.5 C 99.5,109.167 99.8333,109.5 100.5,109.5C 99.6868,110.653 98.6868,110.653 97.5,109.5C 96.0817,113.719 96.415,117.719 98.5,121.5C 97.5041,121.586 96.6708,121.252 96,120.5C 95.6667,119.167 95.3333,117.833 95,116.5C 94.6667,117.167 94.3333,117.833 94,118.5C 93.6012,118.272 93.4346,117.938 93.5,117.5C 93.5,114.833 93.5,112.167 93.5,109.5C 95.3792,108.659 97.3792,108.325 99.5,108.5 Z"/></g>
<g><path style="opacity:1" fill="#605538" d="M 101.5,100.5 C 102.5,101.167 103.5,101.833 104.5,102.5C 108.101,108.605 110.768,115.272 112.5,122.5C 111.391,122.443 110.391,122.11 109.5,121.5C 108.883,121.389 108.383,121.056 108,120.5C 107.802,122.382 107.302,124.048 106.5,125.5C 106.616,122.14 106.949,118.807 107.5,115.5C 105.833,115.5 104.167,115.5 102.5,115.5C 102.877,113.742 103.544,112.075 104.5,110.5C 103.311,109.571 101.978,109.238 100.5,109.5C 99.8333,109.5 99.5,109.167 99.5,108.5C 101.818,106.206 102.485,103.539 101.5,100.5 Z"/></g>
<g><path style="opacity:1" fill="#363626" d="M 100.5,109.5 C 101.978,109.238 103.311,109.571 104.5,110.5C 103.544,112.075 102.877,113.742 102.5,115.5C 102.58,118.781 101.913,121.781 100.5,124.5C 100.068,123.29 99.4013,122.29 98.5,121.5C 96.415,117.719 96.0817,113.719 97.5,109.5C 98.6868,110.653 99.6868,110.653 100.5,109.5 Z"/></g>
<g><path style="opacity:1" fill="#705a40" d="M 182.5,110.5 C 179.859,111.626 177.193,112.959 174.5,114.5C 181.13,115.829 187.797,116.829 194.5,117.5C 196.843,116.004 198.176,116.671 198.5,119.5C 198.101,121.197 197.601,122.863 197,124.5C 193.122,128.719 188.288,131.052 182.5,131.5C 182.805,135.227 181.305,137.894 178,139.5C 177.503,136.854 177.336,134.187 177.5,131.5C 175.097,131.393 173.264,132.393 172,134.5C 171.51,133.207 171.343,131.873 171.5,130.5C 170.178,130.33 169.011,130.663 168,131.5C 167.852,134.589 167.019,137.422 165.5,140C 165.833,140.5 166.167,141 166.5,141.5C 174.629,142.138 182.629,142.805 190.5,143.5C 182.5,143.5 174.5,143.5 166.5,143.5C 164.842,142.819 163.175,141.985 161.5,141C 162.337,139.989 162.67,138.822 162.5,137.5C 163.675,137.719 164.675,137.386 165.5,136.5C 166.445,130.345 168.445,124.679 171.5,119.5C 175.838,118.605 176.171,117.605 172.5,116.5C 172.5,116.167 172.5,115.833 172.5,115.5C 172.414,114.504 172.748,113.671 173.5,113C 176.333,111.5 179.167,110 182,108.5C 182.464,109.094 182.631,109.761 182.5,110.5 Z"/></g>
<g><path style="opacity:1" fill="#423b2c" d="M 104.5,102.5 C 105.265,103.66 106.265,104.66 107.5,105.5C 108.107,105.376 108.44,105.043 108.5,104.5C 109.167,104.5 109.5,104.833 109.5,105.5C 109.5,107.167 109.5,108.833 109.5,110.5C 110.5,110.5 111.5,110.5 112.5,110.5C 112.64,115.062 114.14,119.062 117,122.5C 116.587,118.668 115.753,114.835 114.5,111C 114.164,109.97 113.497,109.47 112.5,109.5C 115.365,108.217 118.365,108.217 121.5,109.5C 121.833,110.167 122.167,110.833 122.5,111.5C 121.494,114.851 120.494,118.184 119.5,121.5C 118.857,123.076 117.857,124.41 116.5,125.5C 115.167,124.5 113.833,123.5 112.5,122.5C 110.768,115.272 108.101,108.605 104.5,102.5 Z"/></g>
<g><path style="opacity:1" fill="#3f5d36" d="M 112.5,109.5 C 113.497,109.47 114.164,109.97 114.5,111C 115.753,114.835 116.587,118.668 117,122.5C 114.14,119.062 112.64,115.062 112.5,110.5C 112.5,110.167 112.5,109.833 112.5,109.5 Z"/></g>
<g><path style="opacity:1" fill="#1b1915" d="M 172.5,106.5 C 171.972,107.721 171.305,108.887 170.5,110C 162.209,114.257 162.875,116.424 172.5,116.5C 176.171,117.605 175.838,118.605 171.5,119.5C 166.7,122.337 162.533,126.004 159,130.5C 157.934,133.218 156.267,135.551 154,137.5C 152.991,139.025 152.491,140.692 152.5,142.5C 154.735,142.205 156.735,142.539 158.5,143.5C 153.5,143.5 148.5,143.5 143.5,143.5C 151.213,135.449 158.213,126.783 164.5,117.5C 163.675,116.614 162.675,116.281 161.5,116.5C 162.242,114.02 163.242,111.687 164.5,109.5C 167.178,106.668 169.512,103.501 171.5,100C 172.448,99.5172 173.448,99.3505 174.5,99.5C 174.6,102.108 173.933,104.442 172.5,106.5 Z"/></g>
<g><path style="opacity:1" fill="#998368" d="M 255.5,118.5 C 255.5,119.833 255.5,121.167 255.5,122.5C 249.732,122.071 244.065,121.071 238.5,119.5C 237.833,119.833 237.167,120.167 236.5,120.5C 240.489,122.886 244.823,124.386 249.5,125C 250.428,125.388 251.095,126.055 251.5,127C 249.943,130.376 248.61,133.876 247.5,137.5C 247.919,138.672 248.585,139.672 249.5,140.5C 245.194,141.423 240.861,141.423 236.5,140.5C 236.5,141.5 236.5,142.5 236.5,143.5C 230.167,143.5 223.833,143.5 217.5,143.5C 217.539,142.417 217.873,141.417 218.5,140.5C 216.833,139.833 215.167,139.167 213.5,138.5C 215.17,134.163 218.17,131.163 222.5,129.5C 226.316,128.687 228.316,126.353 228.5,122.5C 226.833,122.5 225.167,122.5 223.5,122.5C 223.5,121.5 223.5,120.5 223.5,119.5C 227.599,119.858 231.599,119.858 235.5,119.5C 230.919,116.811 225.919,115.311 220.5,115C 223.131,112.516 226.131,112.35 229.5,114.5C 231.422,113.289 233.255,111.956 235,110.5C 236.009,112.025 236.509,113.692 236.5,115.5C 238.986,114.851 241.486,114.517 244,114.5C 247.41,116.936 251.243,118.269 255.5,118.5 Z"/></g>
<g><path style="opacity:1" fill="#283318" d="M 51.5,122.5 C 46.4746,123.52 42.1412,125.854 38.5,129.5C 40.2868,134.67 43.6202,137.337 48.5,137.5C 46.6496,139.214 45.3163,141.214 44.5,143.5C 41.8333,143.5 39.1667,143.5 36.5,143.5C 36.5858,142.504 36.2524,141.671 35.5,141C 34,140.833 32.5,140.667 31,140.5C 26.1488,141.629 21.3155,141.629 16.5,140.5C 13.594,140.643 11.2607,141.643 9.5,143.5C 6.16667,143.5 2.83333,143.5 -0.5,143.5C -0.5,140.167 -0.5,136.833 -0.5,133.5C 2.83333,130.833 5.83333,127.833 8.5,124.5C 9.5,124.5 10.5,124.5 11.5,124.5C 11.2729,122.067 12.2729,120.401 14.5,119.5C 14.8333,119.5 15.1667,119.5 15.5,119.5C 17.1667,118.833 18.8333,118.167 20.5,117.5C 21.3093,119.013 21.4759,120.68 21,122.5C 26.7295,119.264 32.0629,115.597 37,111.5C 37.5855,113.129 38.4188,114.629 39.5,116C 39.2409,117.261 38.5742,118.261 37.5,119C 38.5,119.333 39.5,119.667 40.5,120C 41.8478,124.221 43.8478,124.387 46.5,120.5C 47.086,120.709 47.586,121.043 48,121.5C 50.1584,120.174 51.9918,118.507 53.5,116.5C 54.5827,117.365 54.7494,118.365 54,119.5C 52.583,120.078 51.7496,121.078 51.5,122.5 Z"/></g>
<g><path style="opacity:1" fill="#5f793a" d="M 102.5,115.5 C 104.167,115.5 105.833,115.5 107.5,115.5C 106.949,118.807 106.616,122.14 106.5,125.5C 106.167,126.167 105.833,126.833 105.5,127.5C 103.632,126.737 101.965,125.737 100.5,124.5C 101.913,121.781 102.58,118.781 102.5,115.5 Z"/></g>
<g><path style="opacity:1" fill="#07100a" d="M -0.5,115.5 C 2.83333,118.167 5.83333,121.167 8.5,124.5C 5.83333,127.833 2.83333,130.833 -0.5,133.5C -0.5,127.5 -0.5,121.5 -0.5,115.5 Z"/></g>
<g><path style="opacity:1" fill="#18210d" d="M 48.5,91.5 C 50.5704,94.8415 52.7371,98.1749 55,101.5C 58.8419,102.068 62.6752,102.735 66.5,103.5C 62.8333,104.167 59.1667,104.833 55.5,105.5C 58.0865,106.48 60.7531,106.813 63.5,106.5C 63.9175,107.222 64.5842,107.722 65.5,108C 62.8333,109 62.8333,110 65.5,111C 63.7408,112.764 63.5742,114.931 65,117.5C 65.6543,116.304 66.1543,116.304 66.5,117.5C 65.0706,119.331 64.5706,121.331 65,123.5C 69.2033,126.04 72.7033,129.374 75.5,133.5C 81.6616,135.025 82.9949,138.358 79.5,143.5C 67.8333,143.5 56.1667,143.5 44.5,143.5C 45.3163,141.214 46.6496,139.214 48.5,137.5C 43.6202,137.337 40.2868,134.67 38.5,129.5C 42.1412,125.854 46.4746,123.52 51.5,122.5C 53.8162,121.194 56.1495,119.861 58.5,118.5C 59.7112,117.726 59.7112,116.893 58.5,116C 59.5,115 60.5,114 61.5,113C 58.0458,112.707 57.7124,111.374 60.5,109C 54.1762,109.325 47.8429,109.158 41.5,108.5C 41.9766,107.069 42.6433,105.736 43.5,104.5C 44.8745,105.711 46.3745,106.711 48,107.5C 48.5,107.167 49,106.833 49.5,106.5C 48.3947,105.108 47.0614,103.941 45.5,103C 46.4647,99.4429 47.4647,95.6095 48.5,91.5 Z"/></g>
<g><path style="opacity:1" fill="#7e705e" d="M 150.5,93.5 C 154.767,96.7474 159.1,100.081 163.5,103.5C 164.452,101.955 164.785,100.288 164.5,98.5C 165.167,100.167 165.833,101.833 166.5,103.5C 165.637,105.421 164.971,107.421 164.5,109.5C 163.242,111.687 162.242,114.02 161.5,116.5C 157.457,122.723 152.791,128.556 147.5,134C 140.629,138.486 133.295,139.653 125.5,137.5C 126.167,137.5 126.833,137.5 127.5,137.5C 128.833,137.5 130.167,137.5 131.5,137.5C 130.752,132.515 130.085,127.515 129.5,122.5C 131.205,125.287 132.372,124.954 133,121.5C 134,122.5 135,123.5 136,124.5C 138.096,123.285 137.929,122.451 135.5,122C 137.743,119.533 140.41,117.7 143.5,116.5C 142.347,115.313 142.347,114.313 143.5,113.5C 145.641,116.019 147.641,116.019 149.5,113.5C 150.427,110.426 151.427,107.26 152.5,104C 151.548,100.206 149.548,97.0391 146.5,94.5C 147.691,94.5953 149.025,94.262 150.5,93.5 Z"/></g>
<g><path style="opacity:1" fill="#50423a" d="M 154.5,104.5 C 157.167,105.5 159.833,106.5 162.5,107.5C 162.178,111.511 160.178,114.511 156.5,116.5C 153.657,112.939 152.99,108.939 154.5,104.5 Z"/></g>
<g><path style="opacity:1" fill="#070c07" d="M 161.5,116.5 C 162.675,116.281 163.675,116.614 164.5,117.5C 158.213,126.783 151.213,135.449 143.5,143.5C 126.167,143.5 108.833,143.5 91.5,143.5C 91.9175,142.778 92.5842,142.278 93.5,142C 91.2773,139.556 88.6107,138.89 85.5,140C 86.7433,138.846 87.7433,137.512 88.5,136C 87.09,135.632 86.09,134.799 85.5,133.5C 85.8037,130.857 86.4704,128.024 87.5,125C 87.1667,124.667 86.8333,124.333 86.5,124C 88.0174,122.221 88.8508,122.721 89,125.5C 90.3333,124.167 91.6667,124.167 93,125.5C 93.7083,124.619 94.5416,123.953 95.5,123.5C 100.338,127.329 105.672,130.329 111.5,132.5C 115.69,135.25 120.356,136.917 125.5,137.5C 133.295,139.653 140.629,138.486 147.5,134C 152.791,128.556 157.457,122.723 161.5,116.5 Z"/></g>
<g><path style="opacity:1" fill="#313224" d="M 109.5,121.5 C 110.274,124.381 111.607,127.048 113.5,129.5C 113.043,130.298 112.376,130.631 111.5,130.5C 109.216,130.025 107.216,129.025 105.5,127.5C 105.833,126.833 106.167,126.167 106.5,125.5C 107.302,124.048 107.802,122.382 108,120.5C 108.383,121.056 108.883,121.389 109.5,121.5 Z"/></g>
<g><path style="opacity:1" fill="#8a715d" d="M 255.5,122.5 C 255.5,129.5 255.5,136.5 255.5,143.5C 249.167,143.5 242.833,143.5 236.5,143.5C 236.5,142.5 236.5,141.5 236.5,140.5C 240.861,141.423 245.194,141.423 249.5,140.5C 248.585,139.672 247.919,138.672 247.5,137.5C 248.61,133.876 249.943,130.376 251.5,127C 251.095,126.055 250.428,125.388 249.5,125C 244.823,124.386 240.489,122.886 236.5,120.5C 237.167,120.167 237.833,119.833 238.5,119.5C 244.065,121.071 249.732,122.071 255.5,122.5 Z"/></g>
<g><path style="opacity:1" fill="#69724c" d="M 129.5,122.5 C 130.085,127.515 130.752,132.515 131.5,137.5C 130.167,137.5 128.833,137.5 127.5,137.5C 125.684,134.336 122.85,132.669 119,132.5C 117.589,130.35 116.755,128.016 116.5,125.5C 117.857,124.41 118.857,123.076 119.5,121.5C 121.968,119.965 124.635,118.965 127.5,118.5C 127.157,120.483 127.824,121.817 129.5,122.5 Z"/></g>
<g><path style="opacity:1" fill="#5d7c3e" d="M 109.5,121.5 C 110.391,122.11 111.391,122.443 112.5,122.5C 113.833,123.5 115.167,124.5 116.5,125.5C 116.755,128.016 117.589,130.35 119,132.5C 122.85,132.669 125.684,134.336 127.5,137.5C 126.833,137.5 126.167,137.5 125.5,137.5C 120.356,136.917 115.69,135.25 111.5,132.5C 112.239,132.631 112.906,132.464 113.5,132C 112.584,131.722 111.918,131.222 111.5,130.5C 112.376,130.631 113.043,130.298 113.5,129.5C 111.607,127.048 110.274,124.381 109.5,121.5 Z"/></g>
<g><path style="opacity:1" fill="#3e3524" d="M 171.5,119.5 C 168.445,124.679 166.445,130.345 165.5,136.5C 164.675,137.386 163.675,137.719 162.5,137.5C 162.67,138.822 162.337,139.989 161.5,141C 163.175,141.985 164.842,142.819 166.5,143.5C 163.833,143.5 161.167,143.5 158.5,143.5C 156.735,142.539 154.735,142.205 152.5,142.5C 152.491,140.692 152.991,139.025 154,137.5C 156.267,135.551 157.934,133.218 159,130.5C 162.533,126.004 166.7,122.337 171.5,119.5 Z"/></g>
<g><path style="opacity:0.996" fill="#5d5038" d="M 36.5,143.5 C 27.5,143.5 18.5,143.5 9.5,143.5C 11.2607,141.643 13.594,140.643 16.5,140.5C 21.3155,141.629 26.1488,141.629 31,140.5C 32.5,140.667 34,140.833 35.5,141C 36.2524,141.671 36.5858,142.504 36.5,143.5 Z"/></g>
</svg>
