<?xml version="1.0" encoding="UTF-8"?>
<!DOCTYPE svg PUBLIC "-//W3C//DTD SVG 1.1//EN" "http://www.w3.org/Graphics/SVG/1.1/DTD/svg11.dtd">
<svg xmlns="http://www.w3.org/2000/svg" version="1.1" width="256px" height="144px" style="shape-rendering:geometricPrecision; text-rendering:geometricPrecision; image-rendering:optimizeQuality; fill-rule:evenodd; clip-rule:evenodd" xmlns:xlink="http://www.w3.org/1999/xlink">
<g><path style="opacity:1" fill="#181814" d="M -0.5,-0.5 C 16.1667,-0.5 32.8333,-0.5 49.5,-0.5C 44.45,6.74866 37.45,10.4153 28.5,10.5C 18.6361,8.1007 8.96943,5.1007 -0.5,1.5C -0.5,0.833333 -0.5,0.166667 -0.5,-0.5 Z"/></g>
<g><path style="opacity:1" fill="#24291d" d="M 49.5,-0.5 C 64.1667,-0.5 78.8333,-0.5 93.5,-0.5C 93.5,1.5 93.5,3.5 93.5,5.5C 89.9161,5.97537 86.5828,6.97537 83.5,8.5C 79.756,8.92805 76.756,10.5947 74.5,13.5C 73.1667,13.5 71.8333,13.5 70.5,13.5C 69.0048,13.9887 67.6715,14.6554 66.5,15.5C 63.5537,15.8975 60.887,16.8975 58.5,18.5C 55.2107,17.6261 51.8774,16.9595 48.5,16.5C 41.5593,15.0722 34.8926,13.0722 28.5,10.5C 37.45,10.4153 44.45,6.74866 49.5,-0.5 Z"/></g>
<g><path style="opacity:1" fill="#a2f2ed" d="M 104.5,-0.5 C 108.167,-0.5 111.833,-0.5 115.5,-0.5C 113.861,0.472504 112.527,1.80584 111.5,3.5C 108.133,5.62278 104.466,6.95611 100.5,7.5C 102.139,6.5275 103.473,5.19416 104.5,3.5C 104.5,2.16667 104.5,0.833333 104.5,-0.5 Z"/></g>
<g><path style="opacity:1" fill="#d4efeb" d="M 116.5,-0.5 C 120.167,-0.5 123.833,-0.5 127.5,-0.5C 127.336,6.9465 130.336,12.6132 136.5,16.5C 142.469,23.3098 148.302,30.3098 154,37.5C 155.622,38.0989 157.122,38.7656 158.5,39.5C 157.448,39.3505 156.448,39.5172 155.5,40C 156.737,40.2321 157.737,40.7321 158.5,41.5C 155.921,41.6061 153.588,40.9395 151.5,39.5C 150.99,36.3257 149.323,33.9923 146.5,32.5C 145.256,28.5881 142.589,26.5881 138.5,26.5C 137.391,25.71 136.058,25.21 134.5,25C 135.428,24.6121 136.095,23.9454 136.5,23C 136.101,21.2725 135.434,19.7725 134.5,18.5C 133.232,16.953 131.565,15.953 129.5,15.5C 129.737,14.209 129.404,13.209 128.5,12.5C 127.833,12.5 127.5,12.1667 127.5,11.5C 124.833,8.16667 121.833,5.16667 118.5,2.5C 117.395,3.60048 116.062,4.26714 114.5,4.5C 115.942,3.18047 116.608,1.5138 116.5,-0.5 Z"/></g>
<g><path style="opacity:1" fill="#bef2d8" d="M 156.5,-0.5 C 159.167,-0.5 161.833,-0.5 164.5,-0.5C 166.765,4.61508 168.599,9.94842 170,15.5C 173.083,18.9081 175.749,22.5748 178,26.5C 180.659,29.2187 183.492,31.5521 186.5,33.5C 188.772,34.4411 190.772,35.7745 192.5,37.5C 193.234,38.7079 193.567,40.0413 193.5,41.5C 192.417,41.4606 191.417,41.1272 190.5,40.5C 189.772,38.8068 188.772,37.3068 187.5,36C 172.948,29.1164 161.948,18.4498 154.5,4C 155.267,2.52951 155.933,1.02951 156.5,-0.5 Z"/></g>
<g><path style="opacity:1" fill="#e6fdfb" d="M 164.5,-0.5 C 174.833,-0.5 185.167,-0.5 195.5,-0.5C 195.944,2.6077 197.278,5.27437 199.5,7.5C 197.311,9.26219 195.644,11.4289 194.5,14C 195.856,15.5671 196.523,17.4004 196.5,19.5C 193.366,18.7593 190.366,17.7593 187.5,16.5C 188.899,22.0716 186.899,25.5716 181.5,27C 183.79,28.7772 185.457,30.9438 186.5,33.5C 183.492,31.5521 180.659,29.2187 178,26.5C 175.749,22.5748 173.083,18.9081 170,15.5C 168.599,9.94842 166.765,4.61508 164.5,-0.5 Z"/></g>
<g><path style="opacity:1" fill="#f1fefe" d="M 195.5,-0.5 C 206.5,-0.5 217.5,-0.5 228.5,-0.5C 225.304,4.44407 220.971,6.44407 215.5,5.5C 216.753,8.1205 218.086,10.7872 219.5,13.5C 218.238,15.5752 218.405,17.5752 220,19.5C 221.303,20.1122 222.47,20.4455 223.5,20.5C 220.424,21.9094 218.424,24.2427 217.5,27.5C 216.059,28.304 214.559,28.9706 213,29.5C 210.708,28.0695 208.208,27.2361 205.5,27C 204.353,24.9154 205.02,23.4154 207.5,22.5C 206.579,20.244 204.912,19.244 202.5,19.5C 201.804,22.5536 200.304,25.2202 198,27.5C 197.009,29.4473 196.675,31.4473 197,33.5C 200.174,33.1811 203.674,33.1811 207.5,33.5C 209.101,34.0347 209.601,35.0347 209,36.5C 207.938,37.8993 206.605,38.8993 205,39.5C 203.165,37.916 201.165,36.5827 199,35.5C 197.211,37.229 195.044,37.8957 192.5,37.5C 190.772,35.7745 188.772,34.4411 186.5,33.5C 185.457,30.9438 183.79,28.7772 181.5,27C 186.899,25.5716 188.899,22.0716 187.5,16.5C 190.366,17.7593 193.366,18.7593 196.5,19.5C 196.523,17.4004 195.856,15.5671 194.5,14C 195.644,11.4289 197.311,9.26219 199.5,7.5C 197.278,5.27437 195.944,2.6077 195.5,-0.5 Z"/></g>
<g><path style="opacity:1" fill="#ebfefa" d="M 228.5,-0.5 C 231.833,-0.5 235.167,-0.5 238.5,-0.5C 239.311,11.3937 238.144,23.0604 235,34.5C 229.189,41.5514 221.689,44.7181 212.5,44C 212.833,44.3333 213.167,44.6667 213.5,45C 202.128,45.8257 190.794,45.4923 179.5,44C 180.416,43.7216 181.082,43.2216 181.5,42.5C 186.278,42.8351 190.278,42.5018 193.5,41.5C 193.567,40.0413 193.234,38.7079 192.5,37.5C 195.044,37.8957 197.211,37.229 199,35.5C 201.165,36.5827 203.165,37.916 205,39.5C 206.605,38.8993 207.938,37.8993 209,36.5C 209.601,35.0347 209.101,34.0347 207.5,33.5C 203.674,33.1811 200.174,33.1811 197,33.5C 196.675,31.4473 197.009,29.4473 198,27.5C 200.304,25.2202 201.804,22.5536 202.5,19.5C 204.912,19.244 206.579,20.244 207.5,22.5C 205.02,23.4154 204.353,24.9154 205.5,27C 208.208,27.2361 210.708,28.0695 213,29.5C 214.559,28.9706 216.059,28.304 217.5,27.5C 218.424,24.2427 220.424,21.9094 223.5,20.5C 222.47,20.4455 221.303,20.1122 220,19.5C 218.405,17.5752 218.238,15.5752 219.5,13.5C 218.086,10.7872 216.753,8.1205 215.5,5.5C 220.971,6.44407 225.304,4.44407 228.5,-0.5 Z"/></g>
<g><path style="opacity:1" fill="#446e5a" d="M 115.5,-0.5 C 115.833,-0.5 116.167,-0.5 116.5,-0.5C 116.608,1.5138 115.942,3.18047 114.5,4.5C 113.209,4.73731 112.209,4.40397 111.5,3.5C 112.527,1.80584 113.861,0.472504 115.5,-0.5 Z"/></g>
<g><path style="opacity:1" fill="#94cba6" d="M 127.5,-0.5 C 132.5,-0.5 137.5,-0.5 142.5,-0.5C 144.268,3.37477 145.768,7.37477 147,11.5C 148.6,12.8659 150.433,13.8659 152.5,14.5C 149.238,15.7173 146.072,17.0506 143,18.5C 140.914,17.5819 138.747,16.9153 136.5,16.5C 130.336,12.6132 127.336,6.9465 127.5,-0.5 Z"/></g>
<g><path style="opacity:1" fill="#1c3a2f" d="M 100.5,-0.5 C 101.833,-0.5 103.167,-0.5 104.5,-0.5C 104.5,0.833333 104.5,2.16667 104.5,3.5C 103.167,3.5 101.833,3.5 100.5,3.5C 100.5,2.16667 100.5,0.833333 100.5,-0.5 Z"/></g>
<g><path style="opacity:1" fill="#70a88c" d="M 111.5,3.5 C 112.209,4.40397 113.209,4.73731 114.5,4.5C 112.924,5.14294 111.59,6.14294 110.5,7.5C 109.833,7.5 109.167,7.5 108.5,7.5C 107.833,7.5 107.5,7.83333 107.5,8.5C 105.167,8.5 102.833,8.5 100.5,8.5C 100.5,8.16667 100.5,7.83333 100.5,7.5C 104.466,6.95611 108.133,5.62278 111.5,3.5 Z"/></g>
<g><path style="opacity:1" fill="#c98e92" d="M 118.5,2.5 C 118.385,4.94678 117.385,6.94678 115.5,8.5C 113.958,7.69929 112.292,7.36596 110.5,7.5C 111.59,6.14294 112.924,5.14294 114.5,4.5C 116.062,4.26714 117.395,3.60048 118.5,2.5 Z"/></g>
<g><path style="opacity:1" fill="#85a197" d="M 93.5,-0.5 C 95.1667,-0.5 96.8333,-0.5 98.5,-0.5C 98.207,1.68909 97.707,3.68909 97,5.5C 98.3876,4.44636 99.8876,4.27969 101.5,5C 94.4123,6.63677 87.7457,9.13677 81.5,12.5C 80.1667,13.1667 78.8333,13.8333 77.5,14.5C 76.1825,14.821 74.8492,15.1543 73.5,15.5C 71.9623,15.5466 70.9623,14.8799 70.5,13.5C 71.8333,13.5 73.1667,13.5 74.5,13.5C 77.9922,12.5903 80.9922,10.9236 83.5,8.5C 86.5828,6.97537 89.9161,5.97537 93.5,5.5C 93.5,3.5 93.5,1.5 93.5,-0.5 Z"/></g>
<g><path style="opacity:1" fill="#4b6657" d="M 98.5,-0.5 C 99.1667,-0.5 99.8333,-0.5 100.5,-0.5C 100.5,0.833333 100.5,2.16667 100.5,3.5C 101.833,3.5 103.167,3.5 104.5,3.5C 103.473,5.19416 102.139,6.5275 100.5,7.5C 94.4911,10.1656 88.1578,11.8323 81.5,12.5C 87.7457,9.13677 94.4123,6.63677 101.5,5C 99.8876,4.27969 98.3876,4.44636 97,5.5C 97.707,3.68909 98.207,1.68909 98.5,-0.5 Z"/></g>
<g><path style="opacity:1" fill="#e9eae2" d="M -0.5,1.5 C 8.96943,5.1007 18.6361,8.1007 28.5,10.5C 34.8926,13.0722 41.5593,15.0722 48.5,16.5C 50.936,17.871 53.6027,18.871 56.5,19.5C 52.0189,20.6484 47.3522,20.8151 42.5,20C 29.8785,17.8829 17.5452,14.7163 5.5,10.5C 3.69764,9.5418 1.69764,8.87513 -0.5,8.5C -0.5,6.16667 -0.5,3.83333 -0.5,1.5 Z"/></g>
<g><path style="opacity:1" fill="#606e61" d="M 83.5,8.5 C 80.9922,10.9236 77.9922,12.5903 74.5,13.5C 76.756,10.5947 79.756,8.92805 83.5,8.5 Z"/></g>
<g><path style="opacity:1" fill="#bebea8" d="M -0.5,8.5 C 1.69764,8.87513 3.69764,9.5418 5.5,10.5C 4.95691,10.56 4.62358,10.8933 4.5,11.5C 14.2142,15.2626 24.2142,18.0959 34.5,20C 33.552,20.4828 32.552,20.6495 31.5,20.5C 25.8068,19.6602 20.1402,18.6602 14.5,17.5C 9.69197,15.3783 4.69197,13.7116 -0.5,12.5C -0.5,11.1667 -0.5,9.83333 -0.5,8.5 Z"/></g>
<g><path style="opacity:1" fill="#435b51" d="M 108.5,7.5 C 112.833,11.1667 116.833,15.1667 120.5,19.5C 120.5,20.1667 120.833,20.5 121.5,20.5C 121.328,21.4916 121.662,22.1583 122.5,22.5C 122.483,24.0281 121.816,24.5281 120.5,24C 118.97,21.648 117.303,19.4813 115.5,17.5C 112.833,14.5 110.167,11.5 107.5,8.5C 107.5,7.83333 107.833,7.5 108.5,7.5 Z"/></g>
<g><path style="opacity:1" fill="#f7c9d8" d="M 118.5,2.5 C 121.833,5.16667 124.833,8.16667 127.5,11.5C 124.962,12.0427 122.628,13.0427 120.5,14.5C 118.833,12.5 117.167,10.5 115.5,8.5C 117.385,6.94678 118.385,4.94678 118.5,2.5 Z"/></g>
<g><path style="opacity:1" fill="#5ec5b2" d="M 100.5,7.5 C 100.5,7.83333 100.5,8.16667 100.5,8.5C 99.8333,8.5 99.5,8.83333 99.5,9.5C 98.8333,9.83333 98.1667,10.1667 97.5,10.5C 92.7293,11.8557 88.0626,13.189 83.5,14.5C 81.5,14.5 79.5,14.5 77.5,14.5C 78.8333,13.8333 80.1667,13.1667 81.5,12.5C 88.1578,11.8323 94.4911,10.1656 100.5,7.5 Z"/></g>
<g><path style="opacity:1" fill="#429c84" d="M 97.5,10.5 C 95.8821,13.7689 96.8821,15.9356 100.5,17C 95.8452,17.4992 91.1785,17.6658 86.5,17.5C 86.5,16.5 86.5,15.5 86.5,14.5C 85.5,14.5 84.5,14.5 83.5,14.5C 88.0626,13.189 92.7293,11.8557 97.5,10.5 Z"/></g>
<g><path style="opacity:1" fill="#571e20" d="M 108.5,7.5 C 109.167,7.5 109.833,7.5 110.5,7.5C 112.292,7.36596 113.958,7.69929 115.5,8.5C 117.167,10.5 118.833,12.5 120.5,14.5C 120.5,16.1667 120.5,17.8333 120.5,19.5C 116.833,15.1667 112.833,11.1667 108.5,7.5 Z"/></g>
<g><path style="opacity:1" fill="#b3c7b4" d="M 251.5,36.5 C 250.673,32.1928 250.007,27.8595 249.5,23.5C 248.325,23.719 247.325,23.3857 246.5,22.5C 245.79,19.3269 244.623,16.3269 243,13.5C 242.825,18.0195 242.325,22.3528 241.5,26.5C 241.5,20.8333 241.5,15.1667 241.5,9.5C 242.222,9.08247 242.722,8.4158 243,7.5C 244.185,9.37716 245.185,11.3772 246,13.5C 247.11,15.0368 248.61,15.7035 250.5,15.5C 252.508,22.5666 252.842,29.5666 251.5,36.5 Z"/></g>
<g><path style="opacity:1" fill="#2d6955" d="M 99.5,9.5 C 99.3505,10.552 99.5172,11.552 100,12.5C 103.221,15.8552 106.721,18.8552 110.5,21.5C 112.952,24.606 114.952,27.9393 116.5,31.5C 115.542,31.0472 114.708,30.3805 114,29.5C 113.833,30.1667 113.667,30.8333 113.5,31.5C 115.234,37.3646 115.9,43.3646 115.5,49.5C 119.516,49.2871 123.35,49.9538 127,51.5C 127.483,50.552 127.649,49.552 127.5,48.5C 127.833,48.5 128.167,48.5 128.5,48.5C 128.5,50.5 128.5,52.5 128.5,54.5C 124.451,51.4972 120.118,50.8305 115.5,52.5C 114.833,52.5 114.167,52.5 113.5,52.5C 112.906,45.7009 112.239,39.0343 111.5,32.5C 110.314,26.4709 106.98,21.9709 101.5,19C 96.5,18.3333 91.5,18.3333 86.5,19C 84.2935,19.9768 82.2935,21.1435 80.5,22.5C 75.9851,25.4106 75.3184,29.0772 78.5,33.5C 77.5178,32.8592 76.5178,32.1925 75.5,31.5C 74.7025,31.9569 74.3691,32.6236 74.5,33.5C 74.6657,28.5021 74.6657,23.6687 74.5,19C 72.4521,17.7586 70.4521,17.5919 68.5,18.5C 68.7148,16.8212 68.0481,15.8212 66.5,15.5C 67.6715,14.6554 69.0048,13.9887 70.5,13.5C 70.9623,14.8799 71.9623,15.5466 73.5,15.5C 74.8492,15.1543 76.1825,14.821 77.5,14.5C 79.5,14.5 81.5,14.5 83.5,14.5C 84.5,14.5 85.5,14.5 86.5,14.5C 86.5,15.5 86.5,16.5 86.5,17.5C 91.1785,17.6658 95.8452,17.4992 100.5,17C 96.8821,15.9356 95.8821,13.7689 97.5,10.5C 98.1667,10.1667 98.8333,9.83333 99.5,9.5 Z"/></g>
<g><path style="opacity:1" fill="#8a5862" d="M 127.5,11.5 C 127.5,12.1667 127.833,12.5 128.5,12.5C 126.167,15.1667 123.833,17.8333 121.5,20.5C 120.833,20.5 120.5,20.1667 120.5,19.5C 120.5,17.8333 120.5,16.1667 120.5,14.5C 122.628,13.0427 124.962,12.0427 127.5,11.5 Z"/></g>
<g><path style="opacity:1" fill="#dff4ea" d="M 241.5,-0.5 C 246.167,-0.5 250.833,-0.5 255.5,-0.5C 255.5,17.1667 255.5,34.8333 255.5,52.5C 253.143,52.3367 250.81,52.5034 248.5,53C 246.333,56.3329 243.666,59.1663 240.5,61.5C 240.831,59.6776 241.498,58.0109 242.5,56.5C 244.657,53.5294 246.824,50.5294 249,47.5C 250.128,45.6547 250.628,43.6547 250.5,41.5C 251.451,40.0813 251.784,38.4147 251.5,36.5C 252.842,29.5666 252.508,22.5666 250.5,15.5C 248.61,15.7035 247.11,15.0368 246,13.5C 245.185,11.3772 244.185,9.37716 243,7.5C 242.722,8.4158 242.222,9.08247 241.5,9.5C 241.5,6.16667 241.5,2.83333 241.5,-0.5 Z"/></g>
<g><path style="opacity:1" fill="#1f2e26" d="M 129.5,15.5 C 131.565,15.953 133.232,16.953 134.5,18.5C 132.442,19.9331 130.108,20.5997 127.5,20.5C 126.582,24.6746 124.416,28.0079 121,30.5C 118.317,28.15 115.984,25.4833 114,22.5C 113.387,20.5048 113.887,18.8381 115.5,17.5C 117.303,19.4813 118.97,21.648 120.5,24C 121.816,24.5281 122.483,24.0281 122.5,22.5C 124.597,20.0158 126.93,17.6824 129.5,15.5 Z"/></g>
<g><path style="opacity:1" fill="#5ea382" d="M 66.5,15.5 C 68.0481,15.8212 68.7148,16.8212 68.5,18.5C 68.4431,19.609 68.1098,20.609 67.5,21.5C 65.5165,20.848 63.6832,19.848 62,18.5C 61.0979,18.7432 60.2646,19.0766 59.5,19.5C 58.8333,19.5 58.5,19.1667 58.5,18.5C 60.887,16.8975 63.5537,15.8975 66.5,15.5 Z"/></g>
<g><path style="opacity:1" fill="#809f99" d="M 128.5,12.5 C 129.404,13.209 129.737,14.209 129.5,15.5C 126.93,17.6824 124.597,20.0158 122.5,22.5C 121.662,22.1583 121.328,21.4916 121.5,20.5C 123.833,17.8333 126.167,15.1667 128.5,12.5 Z"/></g>
<g><path style="opacity:1" fill="#9d8f71" d="M 5.5,10.5 C 17.5452,14.7163 29.8785,17.8829 42.5,20C 47.3522,20.8151 52.0189,20.6484 56.5,19.5C 57.404,20.209 57.7373,21.209 57.5,22.5C 53.1071,22.4573 48.7738,22.2907 44.5,22C 46.5692,23.5234 48.9026,24.3568 51.5,24.5C 50.0813,25.4511 48.4147,25.7845 46.5,25.5C 41.4261,24.1336 36.4261,22.4669 31.5,20.5C 32.552,20.6495 33.552,20.4828 34.5,20C 24.2142,18.0959 14.2142,15.2626 4.5,11.5C 4.62358,10.8933 4.95691,10.56 5.5,10.5 Z"/></g>
<g><path style="opacity:1" fill="#1a1a20" d="M 100.5,8.5 C 102.833,8.5 105.167,8.5 107.5,8.5C 110.167,11.5 112.833,14.5 115.5,17.5C 113.887,18.8381 113.387,20.5048 114,22.5C 115.984,25.4833 118.317,28.15 121,30.5C 124.416,28.0079 126.582,24.6746 127.5,20.5C 130.108,20.5997 132.442,19.9331 134.5,18.5C 131.152,21.8514 128.152,25.5181 125.5,29.5C 123.45,31.2368 121.617,33.2368 120,35.5C 119.34,33.6763 118.173,32.343 116.5,31.5C 114.952,27.9393 112.952,24.606 110.5,21.5C 106.721,18.8552 103.221,15.8552 100,12.5C 99.5172,11.552 99.3505,10.552 99.5,9.5C 99.5,8.83333 99.8333,8.5 100.5,8.5 Z"/></g>
<g><path style="opacity:1" fill="#6c746b" d="M -0.5,12.5 C 4.69197,13.7116 9.69197,15.3783 14.5,17.5C 13.7611,17.369 13.0944,17.5357 12.5,18C 13.8333,19 15.1667,20 16.5,21C 20.9741,22.4078 25.3074,24.0745 29.5,26C 25.0764,26.1801 20.7431,26.3468 16.5,26.5C 21.1452,28.7096 25.8119,30.7096 30.5,32.5C 32.588,33.9395 34.9214,34.6061 37.5,34.5C 37.9926,36.8056 38.3259,39.139 38.5,41.5C 36.7839,41.3713 35.1172,41.038 33.5,40.5C 32.5084,40.6716 31.8417,40.3382 31.5,39.5C 33.1667,39.5 34.8333,39.5 36.5,39.5C 36.5,38.5 36.5,37.5 36.5,36.5C 26.0577,34.2968 16.0577,30.7968 6.5,26C 4.86586,25.5065 3.19919,25.3398 1.5,25.5C 0.833333,25.5 0.166667,25.5 -0.5,25.5C -0.5,21.1667 -0.5,16.8333 -0.5,12.5 Z"/></g>
<g><path style="opacity:1" fill="#645745" d="M 48.5,16.5 C 51.8774,16.9595 55.2107,17.6261 58.5,18.5C 58.5,19.1667 58.8333,19.5 59.5,19.5C 58.8902,20.391 58.5569,21.391 58.5,22.5C 58.1667,23.1667 57.8333,23.8333 57.5,24.5C 57.1667,24.5 56.8333,24.5 56.5,24.5C 54.7163,23.2801 53.0496,23.2801 51.5,24.5C 48.9026,24.3568 46.5692,23.5234 44.5,22C 48.7738,22.2907 53.1071,22.4573 57.5,22.5C 57.7373,21.209 57.404,20.209 56.5,19.5C 53.6027,18.871 50.936,17.871 48.5,16.5 Z"/></g>
<g><path style="opacity:1" fill="#2e6854" d="M 67.5,21.5 C 66.0605,23.588 65.3939,25.9214 65.5,28.5C 63.5165,28.3832 61.8498,29.0499 60.5,30.5C 59.8324,27.6944 59.1657,25.0277 58.5,22.5C 58.5569,21.391 58.8902,20.391 59.5,19.5C 60.2646,19.0766 61.0979,18.7432 62,18.5C 63.6832,19.848 65.5165,20.848 67.5,21.5 Z"/></g>
<g><path style="opacity:1" fill="#65b9a0" d="M 134.5,18.5 C 135.434,19.7725 136.101,21.2725 136.5,23C 136.095,23.9454 135.428,24.6121 134.5,25C 136.058,25.21 137.391,25.71 138.5,26.5C 135.753,26.1866 133.086,26.52 130.5,27.5C 130.137,28.1835 129.804,28.8501 129.5,29.5C 128.833,30.1667 128.167,30.8333 127.5,31.5C 127.5,30.1667 126.833,29.5 125.5,29.5C 128.152,25.5181 131.152,21.8514 134.5,18.5 Z"/></g>
<g><path style="opacity:1" fill="#696b5e" d="M 14.5,17.5 C 20.1402,18.6602 25.8068,19.6602 31.5,20.5C 36.4261,22.4669 41.4261,24.1336 46.5,25.5C 44.8008,25.3398 43.1341,25.5065 41.5,26C 39.5559,27.4205 37.7226,28.9205 36,30.5C 33.8215,29.4764 31.6549,29.6431 29.5,31C 30.056,31.3826 30.3893,31.8826 30.5,32.5C 25.8119,30.7096 21.1452,28.7096 16.5,26.5C 20.7431,26.3468 25.0764,26.1801 29.5,26C 25.3074,24.0745 20.9741,22.4078 16.5,21C 15.1667,20 13.8333,19 12.5,18C 13.0944,17.5357 13.7611,17.369 14.5,17.5 Z"/></g>
<g><path style="opacity:1" fill="#97a0a0" d="M 179.5,21.5 C 181.5,21.5 183.5,21.5 185.5,21.5C 185.5,22.5 185.5,23.5 185.5,24.5C 183.801,24.6204 182.135,24.9537 180.5,25.5C 179.833,25.1667 179.167,24.8333 178.5,24.5C 179.127,23.5832 179.461,22.5832 179.5,21.5 Z"/></g>
<g><path style="opacity:1" fill="#1c433b" d="M 80.5,22.5 C 86.9781,22.6507 93.6448,22.8174 100.5,23C 102.751,23.7475 104.084,25.2475 104.5,27.5C 103.292,26.7659 101.959,26.4326 100.5,26.5C 100.389,25.8826 100.056,25.3826 99.5,25C 97.5,24.8333 95.5,24.6667 93.5,24.5C 90.1864,24.3425 87.1864,25.0092 84.5,26.5C 80.7969,28.2085 79.1302,31.2085 79.5,35.5C 78.6618,35.1583 78.3284,34.4916 78.5,33.5C 75.3184,29.0772 75.9851,25.4106 80.5,22.5 Z"/></g>
<g><path style="opacity:1" fill="#3c7880" d="M 100.5,26.5 C 101.5,27.5 102.5,28.5 103.5,29.5C 103.5,30.8333 103.5,32.1667 103.5,33.5C 99.8183,33.6653 96.1516,33.4986 92.5,33C 91.2625,32.7679 90.2625,32.2679 89.5,31.5C 93.8606,32.4234 98.1939,32.4234 102.5,31.5C 97.4,25.4192 92.0667,25.0859 86.5,30.5C 86.5614,28.4078 87.5614,26.9078 89.5,26C 93.2027,25.4213 96.8694,25.588 100.5,26.5 Z"/></g>
<g><path style="opacity:1" fill="#62bea4" d="M 138.5,26.5 C 142.589,26.5881 145.256,28.5881 146.5,32.5C 144.07,30.0551 141.404,28.0551 138.5,26.5 Z"/></g>
<g><path style="opacity:1" fill="#96a19b" d="M -0.5,25.5 C 0.166667,25.5 0.833333,25.5 1.5,25.5C 5.90689,26.8696 10.2402,28.7029 14.5,31C 15.7282,33.1399 17.3949,34.8066 19.5,36C 18.2068,36.49 16.8734,36.6567 15.5,36.5C 9.99133,35.773 4.658,34.4397 -0.5,32.5C -0.5,30.1667 -0.5,27.8333 -0.5,25.5 Z"/></g>
<g><path style="opacity:1" fill="#c2ecf1" d="M 89.5,31.5 C 88.209,31.7373 87.209,31.404 86.5,30.5C 92.0667,25.0859 97.4,25.4192 102.5,31.5C 98.1939,32.4234 93.8606,32.4234 89.5,31.5 Z"/></g>
<g><path style="opacity:1" fill="#889984" d="M 251.5,36.5 C 251.784,38.4147 251.451,40.0813 250.5,41.5C 250.5,40.1667 250.5,38.8333 250.5,37.5C 249.5,37.5 248.5,37.5 247.5,37.5C 245.919,35.8583 245.253,33.8583 245.5,31.5C 244.167,31.5 242.833,31.5 241.5,31.5C 241.5,32.5 241.5,33.5 241.5,34.5C 240.5,34.5 239.5,34.5 238.5,34.5C 239.5,31.8333 240.5,29.1667 241.5,26.5C 242.325,22.3528 242.825,18.0195 243,13.5C 244.623,16.3269 245.79,19.3269 246.5,22.5C 247.325,23.3857 248.325,23.719 249.5,23.5C 250.007,27.8595 250.673,32.1928 251.5,36.5 Z"/></g>
<g><path style="opacity:1" fill="#5a584c" d="M 51.5,24.5 C 51.8333,24.5 52.1667,24.5 52.5,24.5C 52.2488,26.1703 51.5822,27.6703 50.5,29C 45.045,29.3745 39.7117,30.3745 34.5,32C 38.0401,32.6004 40.7068,34.4337 42.5,37.5C 39.9422,39.1201 39.9422,40.6201 42.5,42C 41.0715,42.5791 39.7382,42.4124 38.5,41.5C 38.3259,39.139 37.9926,36.8056 37.5,34.5C 34.9214,34.6061 32.588,33.9395 30.5,32.5C 30.3893,31.8826 30.056,31.3826 29.5,31C 31.6549,29.6431 33.8215,29.4764 36,30.5C 37.7226,28.9205 39.5559,27.4205 41.5,26C 43.1341,25.5065 44.8008,25.3398 46.5,25.5C 48.4147,25.7845 50.0813,25.4511 51.5,24.5 Z"/></g>
<g><path style="opacity:1" fill="#2a1f1a" d="M 51.5,24.5 C 53.0496,23.2801 54.7163,23.2801 56.5,24.5C 55.0094,31.7575 54.0094,39.0909 53.5,46.5C 52.596,45.791 52.2627,44.791 52.5,43.5C 49.7938,43.4249 47.1272,43.0916 44.5,42.5C 43.4022,40.3579 44.2355,39.0246 47,38.5C 47.3333,37.1667 47.6667,35.8333 48,34.5C 50.4916,32.6684 52.6583,30.5017 54.5,28C 54.1918,26.5405 53.5251,25.3739 52.5,24.5C 52.1667,24.5 51.8333,24.5 51.5,24.5 Z"/></g>
<g><path style="opacity:1" fill="#19342e" d="M 138.5,26.5 C 141.404,28.0551 144.07,30.0551 146.5,32.5C 148.589,35.0781 149.923,38.0781 150.5,41.5C 148.923,44.3141 147.256,46.9807 145.5,49.5C 144.833,49.5 144.5,49.1667 144.5,48.5C 144.062,44.9277 143.396,41.4277 142.5,38C 142.957,37.586 143.291,37.086 143.5,36.5C 140.751,30.5917 136.251,28.925 130,31.5C 129.536,30.9056 129.369,30.2389 129.5,29.5C 129.804,28.8501 130.137,28.1835 130.5,27.5C 133.086,26.52 135.753,26.1866 138.5,26.5 Z"/></g>
<g><path style="opacity:1" fill="#7c847c" d="M 1.5,25.5 C 3.19919,25.3398 4.86586,25.5065 6.5,26C 16.0577,30.7968 26.0577,34.2968 36.5,36.5C 36.5,37.5 36.5,38.5 36.5,39.5C 34.8333,39.5 33.1667,39.5 31.5,39.5C 25.9798,38.8656 20.6465,37.8656 15.5,36.5C 16.8734,36.6567 18.2068,36.49 19.5,36C 17.3949,34.8066 15.7282,33.1399 14.5,31C 10.2402,28.7029 5.90689,26.8696 1.5,25.5 Z"/></g>
<g><path style="opacity:1" fill="#263e35" d="M 74.5,33.5 C 74.5,34.1667 74.5,34.8333 74.5,35.5C 74.8923,37.1789 75.3923,38.8455 76,40.5C 78.7427,39.4574 80.576,40.4574 81.5,43.5C 77.677,43.5885 74.677,42.0885 72.5,39C 69.9009,38.231 67.4009,38.3977 65,39.5C 64.6799,36.4601 64.6799,33.4601 65,30.5C 63.097,33.1706 62.2637,36.1706 62.5,39.5C 60.7988,39.9662 59.2988,39.9662 58,39.5C 57.3333,40.1667 56.6667,40.8333 56,41.5C 55.7592,36.9423 56.5925,32.609 58.5,28.5C 58.1543,27.1508 57.821,25.8175 57.5,24.5C 57.8333,23.8333 58.1667,23.1667 58.5,22.5C 59.1657,25.0277 59.8324,27.6944 60.5,30.5C 61.8498,29.0499 63.5165,28.3832 65.5,28.5C 65.3939,25.9214 66.0605,23.588 67.5,21.5C 68.1098,20.609 68.4431,19.609 68.5,18.5C 70.4521,17.5919 72.4521,17.7586 74.5,19C 74.6657,23.6687 74.6657,28.5021 74.5,33.5 Z"/></g>
<g><path style="opacity:1" fill="#33545d" d="M 100.5,26.5 C 96.8694,25.588 93.2027,25.4213 89.5,26C 87.5614,26.9078 86.5614,28.4078 86.5,30.5C 87.209,31.404 88.209,31.7373 89.5,31.5C 90.2625,32.2679 91.2625,32.7679 92.5,33C 96.1516,33.4986 99.8183,33.6653 103.5,33.5C 103.5,32.1667 103.5,30.8333 103.5,29.5C 105.007,32.6182 104.34,35.2849 101.5,37.5C 101.672,36.5084 101.338,35.8417 100.5,35.5C 97.4021,35.7556 94.4021,36.4222 91.5,37.5C 89.4656,36.3563 87.4656,35.023 85.5,33.5C 84.7354,30.9363 84.4021,28.603 84.5,26.5C 87.1864,25.0092 90.1864,24.3425 93.5,24.5C 95.5,24.6667 97.5,24.8333 99.5,25C 100.056,25.3826 100.389,25.8826 100.5,26.5 Z"/></g>
<g><path style="opacity:1" fill="#acdebf" d="M 142.5,-0.5 C 147.167,-0.5 151.833,-0.5 156.5,-0.5C 155.933,1.02951 155.267,2.52951 154.5,4C 161.948,18.4498 172.948,29.1164 187.5,36C 188.772,37.3068 189.772,38.8068 190.5,40.5C 191.417,41.1272 192.417,41.4606 193.5,41.5C 190.278,42.5018 186.278,42.8351 181.5,42.5C 173.695,42.3995 166.029,41.3995 158.5,39.5C 157.122,38.7656 155.622,38.0989 154,37.5C 148.302,30.3098 142.469,23.3098 136.5,16.5C 138.747,16.9153 140.914,17.5819 143,18.5C 146.072,17.0506 149.238,15.7173 152.5,14.5C 150.433,13.8659 148.6,12.8659 147,11.5C 145.768,7.37477 144.268,3.37477 142.5,-0.5 Z"/></g>
<g><path style="opacity:1" fill="#152420" d="M 111.5,32.5 C 111.822,38.1304 111.155,43.6304 109.5,49C 109.862,50.4343 110.528,51.6009 111.5,52.5C 110.833,52.5 110.167,52.5 109.5,52.5C 108.812,47.3316 108.646,41.9983 109,36.5C 108.014,33.1943 106.514,30.1943 104.5,27.5C 104.084,25.2475 102.751,23.7475 100.5,23C 93.6448,22.8174 86.9781,22.6507 80.5,22.5C 82.2935,21.1435 84.2935,19.9768 86.5,19C 91.5,18.3333 96.5,18.3333 101.5,19C 106.98,21.9709 110.314,26.4709 111.5,32.5 Z"/></g>
<g><path style="opacity:1" fill="#55ba9e" d="M 78.5,33.5 C 78.3284,34.4916 78.6618,35.1583 79.5,35.5C 79.3284,36.4916 79.6618,37.1583 80.5,37.5C 80.5,38.1667 80.1667,38.5 79.5,38.5C 77.5887,37.925 75.922,36.925 74.5,35.5C 74.5,34.8333 74.5,34.1667 74.5,33.5C 74.3691,32.6236 74.7025,31.9569 75.5,31.5C 76.5178,32.1925 77.5178,32.8592 78.5,33.5 Z"/></g>
<g><path style="opacity:1" fill="#262d38" d="M 84.5,26.5 C 84.4021,28.603 84.7354,30.9363 85.5,33.5C 87.4656,35.023 89.4656,36.3563 91.5,37.5C 87.6988,39.7292 84.0322,39.7292 80.5,37.5C 79.6618,37.1583 79.3284,36.4916 79.5,35.5C 79.1302,31.2085 80.7969,28.2085 84.5,26.5 Z"/></g>
<g><path style="opacity:1" fill="#27231a" d="M -0.5,32.5 C 4.658,34.4397 9.99133,35.773 15.5,36.5C 20.6465,37.8656 25.9798,38.8656 31.5,39.5C 31.8417,40.3382 32.5084,40.6716 33.5,40.5C 33.9731,41.9063 34.9731,42.573 36.5,42.5C 32.3313,47.8407 27.1646,49.1741 21,46.5C 18.828,47.5853 16.828,48.9186 15,50.5C 13.4345,49.9394 12.1011,50.6061 11,52.5C 6.98174,52.6478 3.14841,53.9812 -0.5,56.5C -0.5,48.5 -0.5,40.5 -0.5,32.5 Z"/></g>
<g><path style="opacity:1" fill="#697664" d="M 247.5,37.5 C 246.362,41.1089 244.696,44.4422 242.5,47.5C 242.5,46.8333 242.5,46.1667 242.5,45.5C 244.034,43.6579 243.7,42.3246 241.5,41.5C 238.805,43.1776 236.139,44.8442 233.5,46.5C 234.167,44.5 234.833,42.5 235.5,40.5C 235.992,38.1815 236.992,36.1815 238.5,34.5C 239.5,34.5 240.5,34.5 241.5,34.5C 241.5,33.5 241.5,32.5 241.5,31.5C 242.833,31.5 244.167,31.5 245.5,31.5C 245.253,33.8583 245.919,35.8583 247.5,37.5 Z"/></g>
<g><path style="opacity:1" fill="#232f27" d="M 56.5,24.5 C 56.8333,24.5 57.1667,24.5 57.5,24.5C 57.821,25.8175 58.1543,27.1508 58.5,28.5C 56.5925,32.609 55.7592,36.9423 56,41.5C 56.6667,40.8333 57.3333,40.1667 58,39.5C 59.2988,39.9662 60.7988,39.9662 62.5,39.5C 62.2637,36.1706 63.097,33.1706 65,30.5C 64.6799,33.4601 64.6799,36.4601 65,39.5C 67.4009,38.3977 69.9009,38.231 72.5,39C 74.677,42.0885 77.677,43.5885 81.5,43.5C 83.9052,44.7682 86.5718,45.4349 89.5,45.5C 89.5299,46.4972 89.0299,47.1639 88,47.5C 83.6831,47.0255 79.5164,46.0255 75.5,44.5C 75.1667,44.8333 74.8333,45.1667 74.5,45.5C 78.997,52.6354 81.997,60.302 83.5,68.5C 83.6495,69.552 83.4828,70.552 83,71.5C 82.8461,67.9021 81.8461,64.5687 80,61.5C 79.6667,62.5 79.3333,63.5 79,64.5C 78.0513,62.9069 76.8846,61.5736 75.5,60.5C 72.3429,56.1944 69.6762,51.5278 67.5,46.5C 67.5,45.5 67.5,44.5 67.5,43.5C 64.5,43.5 61.5,43.5 58.5,43.5C 58.5,46.1667 58.5,48.8333 58.5,51.5C 56.0887,50.483 54.422,48.8163 53.5,46.5C 54.0094,39.0909 55.0094,31.7575 56.5,24.5 Z"/></g>
<g><path style="opacity:1" fill="#7ab8ab" d="M 100.5,35.5 C 99.5826,38.4173 98.916,41.4173 98.5,44.5C 97.596,43.791 97.2627,42.791 97.5,41.5C 96.6661,40.2521 95.3328,39.5854 93.5,39.5C 90.8333,39.8333 88.1667,40.1667 85.5,40.5C 83.1175,40.639 81.1175,39.9723 79.5,38.5C 80.1667,38.5 80.5,38.1667 80.5,37.5C 84.0322,39.7292 87.6988,39.7292 91.5,37.5C 94.4021,36.4222 97.4021,35.7556 100.5,35.5 Z"/></g>
<g><path style="opacity:1" fill="#33575a" d="M 129.5,29.5 C 129.369,30.2389 129.536,30.9056 130,31.5C 136.251,28.925 140.751,30.5917 143.5,36.5C 143.291,37.086 142.957,37.586 142.5,38C 143.396,41.4277 144.062,44.9277 144.5,48.5C 142.37,46.8729 140.37,45.0396 138.5,43C 137.563,42.3083 136.897,42.475 136.5,43.5C 135.041,43.5674 133.708,43.2341 132.5,42.5C 132.5,41.5 132.5,40.5 132.5,39.5C 132.833,39.5 133.167,39.5 133.5,39.5C 135.667,40.2685 137.834,41.2685 140,42.5C 140.443,39.3856 139.276,37.0523 136.5,35.5C 133.022,33.6698 130.689,34.6698 129.5,38.5C 127.692,39.9179 127.025,41.9179 127.5,44.5C 126.429,40.3224 126.429,35.9891 127.5,31.5C 128.167,30.8333 128.833,30.1667 129.5,29.5 Z"/></g>
<g><path style="opacity:1" fill="#ceedf0" d="M 136.5,35.5 C 139.276,37.0523 140.443,39.3856 140,42.5C 137.834,41.2685 135.667,40.2685 133.5,39.5C 131.814,36.4633 132.814,35.13 136.5,35.5 Z"/></g>
<g><path style="opacity:1" fill="#82cddb" d="M 136.5,35.5 C 132.814,35.13 131.814,36.4633 133.5,39.5C 133.167,39.5 132.833,39.5 132.5,39.5C 131.391,39.4431 130.391,39.1098 129.5,38.5C 130.689,34.6698 133.022,33.6698 136.5,35.5 Z"/></g>
<g><path style="opacity:1" fill="#50bf9f" d="M 116.5,31.5 C 118.173,32.343 119.34,33.6763 120,35.5C 121.617,33.2368 123.45,31.2368 125.5,29.5C 126.833,29.5 127.5,30.1667 127.5,31.5C 126.429,35.9891 126.429,40.3224 127.5,44.5C 127.5,45.8333 127.5,47.1667 127.5,48.5C 127.649,49.552 127.483,50.552 127,51.5C 123.35,49.9538 119.516,49.2871 115.5,49.5C 115.9,43.3646 115.234,37.3646 113.5,31.5C 113.667,30.8333 113.833,30.1667 114,29.5C 114.708,30.3805 115.542,31.0472 116.5,31.5 Z"/></g>
<g><path style="opacity:1" fill="#323742" d="M 129.5,38.5 C 130.391,39.1098 131.391,39.4431 132.5,39.5C 132.5,40.5 132.5,41.5 132.5,42.5C 132.5,43.5 132.5,44.5 132.5,45.5C 128.941,42.4935 127.608,43.4935 128.5,48.5C 128.167,48.5 127.833,48.5 127.5,48.5C 127.5,47.1667 127.5,45.8333 127.5,44.5C 127.025,41.9179 127.692,39.9179 129.5,38.5 Z"/></g>
<g><path style="opacity:1" fill="#26624e" d="M 146.5,32.5 C 149.323,33.9923 150.99,36.3257 151.5,39.5C 151.5,41.5 151.5,43.5 151.5,45.5C 151.285,49.8345 149.285,51.1678 145.5,49.5C 147.256,46.9807 148.923,44.3141 150.5,41.5C 149.923,38.0781 148.589,35.0781 146.5,32.5 Z"/></g>
<g><path style="opacity:1" fill="#769788" d="M 151.5,39.5 C 153.588,40.9395 155.921,41.6061 158.5,41.5C 158.5,41.8333 158.5,42.1667 158.5,42.5C 156.656,44.2789 155.99,46.6122 156.5,49.5C 155.626,52.5349 154.626,55.5349 153.5,58.5C 153.806,55.6146 153.473,52.9479 152.5,50.5C 152.784,48.5853 152.451,46.9187 151.5,45.5C 151.5,43.5 151.5,41.5 151.5,39.5 Z"/></g>
<g><path style="opacity:1" fill="#bbaf95" d="M 174.5,45.5 C 181.046,45.9809 187.379,46.9809 193.5,48.5C 191.5,48.5 189.5,48.5 187.5,48.5C 182.951,47.9546 178.618,46.9546 174.5,45.5 Z"/></g>
<g><path style="opacity:1" fill="#f7f9f4" d="M 238.5,-0.5 C 239.5,-0.5 240.5,-0.5 241.5,-0.5C 241.5,2.83333 241.5,6.16667 241.5,9.5C 241.5,15.1667 241.5,20.8333 241.5,26.5C 240.5,29.1667 239.5,31.8333 238.5,34.5C 236.992,36.1815 235.992,38.1815 235.5,40.5C 226.184,47.8326 215.517,50.8326 203.5,49.5C 200.236,48.6758 196.902,48.3424 193.5,48.5C 187.379,46.9809 181.046,45.9809 174.5,45.5C 169.216,44.2858 163.882,43.2858 158.5,42.5C 158.5,42.1667 158.5,41.8333 158.5,41.5C 157.737,40.7321 156.737,40.2321 155.5,40C 156.448,39.5172 157.448,39.3505 158.5,39.5C 166.029,41.3995 173.695,42.3995 181.5,42.5C 181.082,43.2216 180.416,43.7216 179.5,44C 190.794,45.4923 202.128,45.8257 213.5,45C 213.167,44.6667 212.833,44.3333 212.5,44C 221.689,44.7181 229.189,41.5514 235,34.5C 238.144,23.0604 239.311,11.3937 238.5,-0.5 Z"/></g>
<g><path style="opacity:1" fill="#6f6650" d="M 158.5,42.5 C 163.882,43.2858 169.216,44.2858 174.5,45.5C 178.618,46.9546 182.951,47.9546 187.5,48.5C 181.612,49.2257 175.612,48.8923 169.5,47.5C 167.347,45.6614 164.68,44.6614 161.5,44.5C 160.292,43.7659 158.959,43.4326 157.5,43.5C 157.818,48.0323 157.485,52.3656 156.5,56.5C 156.5,54.1667 156.5,51.8333 156.5,49.5C 155.99,46.6122 156.656,44.2789 158.5,42.5 Z"/></g>
<g><path style="opacity:1" fill="#21201a" d="M 67.5,46.5 C 65.5159,46.484 64.5159,47.484 64.5,49.5C 66.2146,57.3969 68.7146,65.0636 72,72.5C 72.1753,77.0195 72.6753,81.3528 73.5,85.5C 73.1667,86.1667 72.8333,86.8333 72.5,87.5C 71.6146,83.9296 70.6146,80.2629 69.5,76.5C 68.8076,77.0253 68.3076,77.6919 68,78.5C 67.8091,76.2922 67.3091,74.2922 66.5,72.5C 67.0696,65.7012 65.0696,60.0345 60.5,55.5C 59.6554,54.3285 58.9887,52.9952 58.5,51.5C 58.5,48.8333 58.5,46.1667 58.5,43.5C 61.5,43.5 64.5,43.5 67.5,43.5C 67.5,44.5 67.5,45.5 67.5,46.5 Z"/></g>
<g><path style="opacity:1" fill="#163730" d="M 132.5,42.5 C 133.708,43.2341 135.041,43.5674 136.5,43.5C 136.833,44.1667 137.167,44.8333 137.5,45.5C 137.5,48.1667 137.5,50.8333 137.5,53.5C 137.243,56.9322 136.576,60.2655 135.5,63.5C 134.261,57.5338 133.261,51.5338 132.5,45.5C 132.5,44.5 132.5,43.5 132.5,42.5 Z"/></g>
<g><path style="opacity:1" fill="#3c392b" d="M 52.5,24.5 C 53.5251,25.3739 54.1918,26.5405 54.5,28C 52.6583,30.5017 50.4916,32.6684 48,34.5C 47.6667,35.8333 47.3333,37.1667 47,38.5C 44.2355,39.0246 43.4022,40.3579 44.5,42.5C 42.7125,45.7753 40.3792,49.2753 37.5,53C 37.8333,53.3333 38.1667,53.6667 38.5,54C 35.228,55.6078 32.228,57.6078 29.5,60C 30.8184,63.2688 30.8184,66.4355 29.5,69.5C 29.8134,66.7531 29.48,64.0865 28.5,61.5C 24.2491,60.866 20.5824,59.866 17.5,58.5C 20.3557,56.478 22.689,53.978 24.5,51C 28.0901,49.4698 31.7568,48.1365 35.5,47C 36.6872,45.9805 37.6872,44.8139 38.5,43.5C 38.0431,42.7025 37.3764,42.3691 36.5,42.5C 34.9731,42.573 33.9731,41.9063 33.5,40.5C 35.1172,41.038 36.7839,41.3713 38.5,41.5C 39.7382,42.4124 41.0715,42.5791 42.5,42C 39.9422,40.6201 39.9422,39.1201 42.5,37.5C 40.7068,34.4337 38.0401,32.6004 34.5,32C 39.7117,30.3745 45.045,29.3745 50.5,29C 51.5822,27.6703 52.2488,26.1703 52.5,24.5 Z"/></g>
<g><path style="opacity:1" fill="#1d3d33" d="M 111.5,32.5 C 112.239,39.0343 112.906,45.7009 113.5,52.5C 112.833,52.5 112.167,52.5 111.5,52.5C 110.528,51.6009 109.862,50.4343 109.5,49C 111.155,43.6304 111.822,38.1304 111.5,32.5 Z"/></g>
<g><path style="opacity:1" fill="#233a31" d="M 89.5,45.5 C 92.3946,52.6063 91.8946,59.6063 88,66.5C 87.8184,63.7737 87.3184,61.1071 86.5,58.5C 85.3192,60.1353 85.3192,61.802 86.5,63.5C 85.7255,65.3964 84.7255,67.063 83.5,68.5C 81.997,60.302 78.997,52.6354 74.5,45.5C 74.8333,45.1667 75.1667,44.8333 75.5,44.5C 79.5164,46.0255 83.6831,47.0255 88,47.5C 89.0299,47.1639 89.5299,46.4972 89.5,45.5 Z"/></g>
<g><path style="opacity:1" fill="#85826e" d="M 169.5,47.5 C 175.612,48.8923 181.612,49.2257 187.5,48.5C 189.5,48.5 191.5,48.5 193.5,48.5C 196.902,48.3424 200.236,48.6758 203.5,49.5C 206.355,51.2501 209.689,52.0835 213.5,52C 212.5,52.3333 211.5,52.6667 210.5,53C 214.152,53.4986 217.818,53.6653 221.5,53.5C 214.679,54.6546 207.679,54.8213 200.5,54C 190.093,52.8934 179.76,51.3934 169.5,49.5C 166.833,48.8333 166.833,48.1667 169.5,47.5 Z"/></g>
<g><path style="opacity:1" fill="#90cbc2" d="M 144.5,48.5 C 144.5,49.1667 144.833,49.5 145.5,49.5C 149.285,51.1678 151.285,49.8345 151.5,45.5C 152.451,46.9187 152.784,48.5853 152.5,50.5C 152.15,54.8414 149.817,56.5081 145.5,55.5C 144.493,61.189 144.493,66.8557 145.5,72.5C 145.5,73.5 145.5,74.5 145.5,75.5C 145.5,76.1667 145.5,76.8333 145.5,77.5C 144.883,77.3893 144.383,77.056 144,76.5C 144.036,83.8189 144.203,91.1522 144.5,98.5C 144.167,98.5 143.833,98.5 143.5,98.5C 143.81,95.2869 143.477,92.2869 142.5,89.5C 142.187,76.4705 141.353,63.4705 140,50.5C 139.015,48.8251 138.181,47.1585 137.5,45.5C 137.167,44.8333 136.833,44.1667 136.5,43.5C 136.897,42.475 137.563,42.3083 138.5,43C 140.37,45.0396 142.37,46.8729 144.5,48.5 Z"/></g>
<g><path style="opacity:1" fill="#9d9984" d="M 235.5,40.5 C 234.833,42.5 234.167,44.5 233.5,46.5C 231.122,47.6924 229.122,49.359 227.5,51.5C 225.677,52.7472 223.677,53.4139 221.5,53.5C 217.818,53.6653 214.152,53.4986 210.5,53C 211.5,52.6667 212.5,52.3333 213.5,52C 209.689,52.0835 206.355,51.2501 203.5,49.5C 215.517,50.8326 226.184,47.8326 235.5,40.5 Z"/></g>
<g><path style="opacity:1" fill="#617678" d="M 115.5,52.5 C 120.118,50.8305 124.451,51.4972 128.5,54.5C 129.451,55.9187 129.784,57.5853 129.5,59.5C 128.761,59.631 128.094,59.4643 127.5,59C 127.085,56.9737 126.085,55.4737 124.5,54.5C 123.833,54.5 123.167,54.5 122.5,54.5C 120.735,53.5386 118.735,53.2053 116.5,53.5C 116.5,52.8333 116.167,52.5 115.5,52.5 Z"/></g>
<g><path style="opacity:1" fill="#2b261f" d="M 161.5,44.5 C 161.278,46.6075 160.278,48.2742 158.5,49.5C 160.953,51.9195 163.953,53.0862 167.5,53C 168.337,54.0113 168.67,55.1779 168.5,56.5C 165.607,56.0311 163.607,57.0311 162.5,59.5C 160.648,60.0889 158.815,60.7556 157,61.5C 156.517,60.552 156.351,59.552 156.5,58.5C 156.5,57.8333 156.5,57.1667 156.5,56.5C 157.485,52.3656 157.818,48.0323 157.5,43.5C 158.959,43.4326 160.292,43.7659 161.5,44.5 Z"/></g>
<g><path style="opacity:1" fill="#190f0f" d="M 67.5,46.5 C 69.6762,51.5278 72.3429,56.1944 75.5,60.5C 75.7959,62.403 76.4625,64.0697 77.5,65.5C 77.6625,70.547 77.3292,75.547 76.5,80.5C 75.2632,81.9649 74.2632,83.6316 73.5,85.5C 72.6753,81.3528 72.1753,77.0195 72,72.5C 68.7146,65.0636 66.2146,57.3969 64.5,49.5C 64.5159,47.484 65.5159,46.484 67.5,46.5 Z"/></g>
<g><path style="opacity:1" fill="#61685f" d="M 242.5,45.5 C 237.625,52.3781 231.292,57.3781 223.5,60.5C 223.468,58.4334 222.468,57.1001 220.5,56.5C 218.17,57.494 215.837,58.494 213.5,59.5C 204.145,59.6005 194.812,59.1005 185.5,58C 182.363,57.3989 179.363,56.3989 176.5,55C 177.167,54.6667 177.833,54.3333 178.5,54C 175.538,52.15 172.538,50.65 169.5,49.5C 179.76,51.3934 190.093,52.8934 200.5,54C 207.679,54.8213 214.679,54.6546 221.5,53.5C 223.677,53.4139 225.677,52.7472 227.5,51.5C 229.122,49.359 231.122,47.6924 233.5,46.5C 236.139,44.8442 238.805,43.1776 241.5,41.5C 243.7,42.3246 244.034,43.6579 242.5,45.5 Z"/></g>
<g><path style="opacity:1" fill="#b9a3a6" d="M 122.5,54.5 C 123.167,54.5 123.833,54.5 124.5,54.5C 124.5,55.8333 124.5,57.1667 124.5,58.5C 123.508,58.6716 122.842,58.3382 122.5,57.5C 122.5,56.5 122.5,55.5 122.5,54.5 Z"/></g>
<g><path style="opacity:1" fill="#8e9088" d="M 247.5,37.5 C 248.5,37.5 249.5,37.5 250.5,37.5C 250.5,38.8333 250.5,40.1667 250.5,41.5C 250.628,43.6547 250.128,45.6547 249,47.5C 246.824,50.5294 244.657,53.5294 242.5,56.5C 237.556,59.1412 232.556,61.4745 227.5,63.5C 226.833,63.5 226.167,63.5 225.5,63.5C 228.989,60.863 232.655,58.363 236.5,56C 239.381,53.7213 241.381,50.888 242.5,47.5C 244.696,44.4422 246.362,41.1089 247.5,37.5 Z"/></g>
<g><path style="opacity:1" fill="#454531" d="M 44.5,42.5 C 47.1272,43.0916 49.7938,43.4249 52.5,43.5C 52.2627,44.791 52.596,45.791 53.5,46.5C 54.422,48.8163 56.0887,50.483 58.5,51.5C 58.9887,52.9952 59.6554,54.3285 60.5,55.5C 61.6535,58.4788 62.8202,61.4788 64,64.5C 64.0291,69.4576 64.8624,74.1243 66.5,78.5C 66.5,80.8333 66.5,83.1667 66.5,85.5C 65.8365,83.9581 65.1698,82.2914 64.5,80.5C 60.3654,79.1591 56.5321,79.8258 53,82.5C 51.4345,83.0606 50.1011,82.3939 49,80.5C 42.7056,81.7175 36.7056,81.7175 31,80.5C 28.8207,77.9891 26.3207,75.8224 23.5,74C 24.7469,71.3792 26.7469,69.8792 29.5,69.5C 30.8184,66.4355 30.8184,63.2688 29.5,60C 32.228,57.6078 35.228,55.6078 38.5,54C 38.1667,53.6667 37.8333,53.3333 37.5,53C 40.3792,49.2753 42.7125,45.7753 44.5,42.5 Z"/></g>
<g><path style="opacity:1" fill="#5f443f" d="M 116.5,53.5 C 118.735,53.2053 120.735,53.5386 122.5,54.5C 122.5,55.5 122.5,56.5 122.5,57.5C 120.071,57.1156 117.737,56.449 115.5,55.5C 114.904,57.398 114.904,59.0646 115.5,60.5C 114.586,63.728 114.253,67.0613 114.5,70.5C 113.539,68.7354 113.205,66.7354 113.5,64.5C 112.895,62.9743 111.729,61.9743 110,61.5C 109.517,60.552 109.351,59.552 109.5,58.5C 110.873,58.6567 112.207,58.49 113.5,58C 114.222,56.2495 115.222,54.7495 116.5,53.5 Z"/></g>
<g><path style="opacity:1" fill="#395447" d="M 152.5,50.5 C 153.473,52.9479 153.806,55.6146 153.5,58.5C 151.387,63.5309 148.72,68.1976 145.5,72.5C 144.493,66.8557 144.493,61.189 145.5,55.5C 149.817,56.5081 152.15,54.8414 152.5,50.5 Z"/></g>
<g><path style="opacity:1" fill="#2e4d42" d="M 74.5,35.5 C 75.922,36.925 77.5887,37.925 79.5,38.5C 81.1175,39.9723 83.1175,40.639 85.5,40.5C 88.1667,40.1667 90.8333,39.8333 93.5,39.5C 95.3328,39.5854 96.6661,40.2521 97.5,41.5C 95.0957,51.5561 93.7624,61.8894 93.5,72.5C 92.596,73.209 92.2627,74.209 92.5,75.5C 91.1667,75.5 89.8333,75.5 88.5,75.5C 88.3339,81.1764 88.5006,86.8431 89,92.5C 89.2321,93.7375 89.7321,94.7375 90.5,95.5C 90.7373,96.791 90.404,97.791 89.5,98.5C 89.1667,98.5 88.8333,98.5 88.5,98.5C 87.8333,96.1667 87.1667,93.8333 86.5,91.5C 86.5,89.8333 86.5,88.1667 86.5,86.5C 87.119,64.2978 85.119,63.9645 80.5,85.5C 78.9925,87.1815 77.9925,89.1815 77.5,91.5C 76.5768,92.3029 75.5768,92.4696 74.5,92C 76.8211,89.1917 78.4878,86.025 79.5,82.5C 79.2528,81.2867 78.5862,80.62 77.5,80.5C 78.7508,75.3691 78.7508,70.3691 77.5,65.5C 76.4625,64.0697 75.7959,62.403 75.5,60.5C 76.8846,61.5736 78.0513,62.9069 79,64.5C 79.3333,63.5 79.6667,62.5 80,61.5C 81.8461,64.5687 82.8461,67.9021 83,71.5C 83.4828,70.552 83.6495,69.552 83.5,68.5C 84.7255,67.063 85.7255,65.3964 86.5,63.5C 85.3192,61.802 85.3192,60.1353 86.5,58.5C 87.3184,61.1071 87.8184,63.7737 88,66.5C 91.8946,59.6063 92.3946,52.6063 89.5,45.5C 86.5718,45.4349 83.9052,44.7682 81.5,43.5C 80.576,40.4574 78.7427,39.4574 76,40.5C 75.3923,38.8455 74.8923,37.1789 74.5,35.5 Z"/></g>
<g><path style="opacity:1" fill="#946355" d="M 122.5,57.5 C 122.842,58.3382 123.508,58.6716 124.5,58.5C 124.5,59.1667 124.5,59.8333 124.5,60.5C 123.662,60.8417 123.328,61.5084 123.5,62.5C 122.833,63.1667 122.167,63.8333 121.5,64.5C 121.179,62.9519 120.179,62.2852 118.5,62.5C 118.027,61.0937 117.027,60.427 115.5,60.5C 114.904,59.0646 114.904,57.398 115.5,55.5C 117.737,56.449 120.071,57.1156 122.5,57.5 Z"/></g>
<g><path style="opacity:1" fill="#4c3736" d="M 124.5,54.5 C 126.085,55.4737 127.085,56.9737 127.5,59C 128.094,59.4643 128.761,59.631 129.5,59.5C 128.701,62.4299 128.368,65.4299 128.5,68.5C 126.716,66.0351 125.383,63.3684 124.5,60.5C 124.5,59.8333 124.5,59.1667 124.5,58.5C 124.5,57.1667 124.5,55.8333 124.5,54.5 Z"/></g>
<g><path style="opacity:1" fill="#51514a" d="M 161.5,44.5 C 164.68,44.6614 167.347,45.6614 169.5,47.5C 166.833,48.1667 166.833,48.8333 169.5,49.5C 172.538,50.65 175.538,52.15 178.5,54C 177.833,54.3333 177.167,54.6667 176.5,55C 179.363,56.3989 182.363,57.3989 185.5,58C 194.812,59.1005 204.145,59.6005 213.5,59.5C 215.837,58.494 218.17,57.494 220.5,56.5C 222.468,57.1001 223.468,58.4334 223.5,60.5C 209.329,63.8765 194.996,64.3765 180.5,62C 179.328,61.5814 178.328,60.9147 177.5,60C 172.511,59.5007 167.511,59.3341 162.5,59.5C 163.607,57.0311 165.607,56.0311 168.5,56.5C 168.67,55.1779 168.337,54.0113 167.5,53C 163.953,53.0862 160.953,51.9195 158.5,49.5C 160.278,48.2742 161.278,46.6075 161.5,44.5 Z"/></g>
<g><path style="opacity:1" fill="#352d20" d="M 36.5,42.5 C 37.3764,42.3691 38.0431,42.7025 38.5,43.5C 37.6872,44.8139 36.6872,45.9805 35.5,47C 31.7568,48.1365 28.0901,49.4698 24.5,51C 22.689,53.978 20.3557,56.478 17.5,58.5C 20.5824,59.866 24.2491,60.866 28.5,61.5C 29.48,64.0865 29.8134,66.7531 29.5,69.5C 26.8127,69.6641 24.146,69.4974 21.5,69C 20.541,67.5362 19.2077,66.7028 17.5,66.5C 13.74,69.8888 9.40668,72.5554 4.5,74.5C 3.17793,74.67 2.01127,74.3366 1,73.5C 0.721579,74.4158 0.221579,75.0825 -0.5,75.5C -0.5,69.1667 -0.5,62.8333 -0.5,56.5C 3.14841,53.9812 6.98174,52.6478 11,52.5C 12.1011,50.6061 13.4345,49.9394 15,50.5C 16.828,48.9186 18.828,47.5853 21,46.5C 27.1646,49.1741 32.3313,47.8407 36.5,42.5 Z"/></g>
<g><path style="opacity:1" fill="#1d1723" d="M 132.5,45.5 C 133.261,51.5338 134.261,57.5338 135.5,63.5C 135.467,67.8689 135.8,72.2022 136.5,76.5C 136.287,81.4138 135.62,86.2471 134.5,91C 134.342,95.206 135.342,99.0393 137.5,102.5C 137.5,104.167 137.5,105.833 137.5,107.5C 136.842,108.398 136.176,109.398 135.5,110.5C 133.717,106.597 132.55,106.93 132,111.5C 131.292,110.619 130.458,109.953 129.5,109.5C 129.806,106.615 129.473,103.948 128.5,101.5C 128.289,99.5759 127.623,99.2426 126.5,100.5C 126.167,100.5 125.833,100.5 125.5,100.5C 125.923,96.4494 125.256,92.6161 123.5,89C 125.544,86.9457 126.544,84.7791 126.5,82.5C 127.396,85.1436 128.229,87.8103 129,90.5C 130.485,86.7202 130.652,83.0535 129.5,79.5C 130.645,75.7286 130.312,72.0619 128.5,68.5C 128.368,65.4299 128.701,62.4299 129.5,59.5C 129.784,57.5853 129.451,55.9187 128.5,54.5C 128.5,52.5 128.5,50.5 128.5,48.5C 127.608,43.4935 128.941,42.4935 132.5,45.5 Z"/></g>
<g><path style="opacity:1" fill="#a7c8ac" d="M 255.5,52.5 C 255.5,58.8333 255.5,65.1667 255.5,71.5C 253.213,71.2761 251.047,70.6094 249,69.5C 248.127,69.7355 247.293,70.0688 246.5,70.5C 243.21,68.8663 240.21,66.8663 237.5,64.5C 238.694,63.7281 239.694,62.7281 240.5,61.5C 243.666,59.1663 246.333,56.3329 248.5,53C 250.81,52.5034 253.143,52.3367 255.5,52.5 Z"/></g>
<g><path style="opacity:1" fill="#352826" d="M 109.5,52.5 C 110.167,52.5 110.833,52.5 111.5,52.5C 112.167,52.5 112.833,52.5 113.5,52.5C 114.167,52.5 114.833,52.5 115.5,52.5C 116.167,52.5 116.5,52.8333 116.5,53.5C 115.222,54.7495 114.222,56.2495 113.5,58C 112.207,58.49 110.873,58.6567 109.5,58.5C 109.351,59.552 109.517,60.552 110,61.5C 111.729,61.9743 112.895,62.9743 113.5,64.5C 112.833,66.5 112.167,68.5 111.5,70.5C 111.662,68.4727 111.495,66.4727 111,64.5C 110.586,64.0426 110.086,63.7093 109.5,63.5C 108.52,66.0865 108.187,68.7531 108.5,71.5C 107.833,72.8333 107.167,74.1667 106.5,75.5C 106.813,72.7531 106.48,70.0865 105.5,67.5C 103.829,69.5098 103.162,71.8431 103.5,74.5C 102.848,73.5514 102.514,72.3847 102.5,71C 103.418,68.2393 104.084,65.4059 104.5,62.5C 105.5,62.5 106.5,62.5 107.5,62.5C 107.316,58.9206 107.983,55.5873 109.5,52.5 Z"/></g>
<g><path style="opacity:1" fill="#a7bab0" d="M 156.5,49.5 C 156.5,51.8333 156.5,54.1667 156.5,56.5C 156.5,57.1667 156.5,57.8333 156.5,58.5C 155.566,59.5676 155.232,60.901 155.5,62.5C 161.167,62.5 166.833,62.5 172.5,62.5C 173.263,63.2679 174.263,63.7679 175.5,64C 169.843,64.4994 164.176,64.6661 158.5,64.5C 155.715,63.9162 154.048,64.9162 153.5,67.5C 151.833,70.8333 150.167,74.1667 148.5,77.5C 147.549,78.9187 147.216,80.5853 147.5,82.5C 147.5,83.5 147.5,84.5 147.5,85.5C 146.745,82.9471 146.078,80.2804 145.5,77.5C 145.5,76.8333 145.5,76.1667 145.5,75.5C 150.06,70.7138 152.727,65.0472 153.5,58.5C 154.626,55.5349 155.626,52.5349 156.5,49.5 Z"/></g>
<g><path style="opacity:1" fill="#72746d" d="M 242.5,45.5 C 242.5,46.1667 242.5,46.8333 242.5,47.5C 241.381,50.888 239.381,53.7213 236.5,56C 232.655,58.363 228.989,60.863 225.5,63.5C 215.697,64.4976 205.864,65.1643 196,65.5C 187.99,65.703 180.156,64.703 172.5,62.5C 166.833,62.5 161.167,62.5 155.5,62.5C 155.232,60.901 155.566,59.5676 156.5,58.5C 156.351,59.552 156.517,60.552 157,61.5C 158.815,60.7556 160.648,60.0889 162.5,59.5C 167.511,59.3341 172.511,59.5007 177.5,60C 178.328,60.9147 179.328,61.5814 180.5,62C 194.996,64.3765 209.329,63.8765 223.5,60.5C 231.292,57.3781 237.625,52.3781 242.5,45.5 Z"/></g>
<g><path style="opacity:1" fill="#bcc5bf" d="M 242.5,56.5 C 241.498,58.0109 240.831,59.6776 240.5,61.5C 239.694,62.7281 238.694,63.7281 237.5,64.5C 234.341,66.0795 231.007,67.0795 227.5,67.5C 226.022,67.762 224.689,67.4287 223.5,66.5C 224.624,65.1408 225.958,64.1408 227.5,63.5C 232.556,61.4745 237.556,59.1412 242.5,56.5 Z"/></g>
<g><path style="opacity:1" fill="#6a8678" d="M 153.5,58.5 C 152.727,65.0472 150.06,70.7138 145.5,75.5C 145.5,74.5 145.5,73.5 145.5,72.5C 148.72,68.1976 151.387,63.5309 153.5,58.5 Z"/></g>
<g><path style="opacity:1" fill="#9ea59c" d="M 172.5,62.5 C 180.156,64.703 187.99,65.703 196,65.5C 205.864,65.1643 215.697,64.4976 225.5,63.5C 226.167,63.5 226.833,63.5 227.5,63.5C 225.958,64.1408 224.624,65.1408 223.5,66.5C 224.689,67.4287 226.022,67.762 227.5,67.5C 226.048,68.3019 224.382,68.8019 222.5,69C 216.509,69.4995 210.509,69.6662 204.5,69.5C 188.812,69.766 173.479,68.0994 158.5,64.5C 164.176,64.6661 169.843,64.4994 175.5,64C 174.263,63.7679 173.263,63.2679 172.5,62.5 Z"/></g>
<g><path style="opacity:1" fill="#499581" d="M 97.5,41.5 C 97.2627,42.791 97.596,43.791 98.5,44.5C 97.2187,56.6404 97.2187,68.6404 98.5,80.5C 98.6287,82.2161 98.962,83.8828 99.5,85.5C 98.5,85.5 97.5,85.5 96.5,85.5C 95.8459,79.1903 95.3459,72.857 95,66.5C 94.8091,68.7078 94.3091,70.7078 93.5,72.5C 93.7624,61.8894 95.0957,51.5561 97.5,41.5 Z"/></g>
<g><path style="opacity:1" fill="#b8bba0" d="M 123.5,62.5 C 122.903,67.294 123.57,71.6273 125.5,75.5C 125.573,77.0269 124.906,78.0269 123.5,78.5C 122.189,73.9389 121.522,69.2723 121.5,64.5C 122.167,63.8333 122.833,63.1667 123.5,62.5 Z"/></g>
<g><path style="opacity:1" fill="#73847f" d="M 77.5,65.5 C 78.7508,70.3691 78.7508,75.3691 77.5,80.5C 77.1667,80.5 76.8333,80.5 76.5,80.5C 77.3292,75.547 77.6625,70.547 77.5,65.5 Z"/></g>
<g><path style="opacity:1" fill="#c7c8aa" d="M 115.5,60.5 C 117.027,60.427 118.027,61.0937 118.5,62.5C 118.666,67.5111 118.499,72.5111 118,77.5C 117.667,77.8333 117.333,78.1667 117,78.5C 115.659,75.978 114.826,73.3113 114.5,70.5C 114.253,67.0613 114.586,63.728 115.5,60.5 Z"/></g>
<g><path style="opacity:1" fill="#3a7164" d="M 137.5,45.5 C 138.181,47.1585 139.015,48.8251 140,50.5C 141.353,63.4705 142.187,76.4705 142.5,89.5C 142.378,93.8383 142.045,94.1716 141.5,90.5C 139.469,78.1404 138.136,65.8071 137.5,53.5C 137.5,50.8333 137.5,48.1667 137.5,45.5 Z"/></g>
<g><path style="opacity:1" fill="#a5a57e" d="M 111.5,70.5 C 111.041,75.0251 110.041,75.3585 108.5,71.5C 108.187,68.7531 108.52,66.0865 109.5,63.5C 110.086,63.7093 110.586,64.0426 111,64.5C 111.495,66.4727 111.662,68.4727 111.5,70.5 Z"/></g>
<g><path style="opacity:1" fill="#c8cdb8" d="M 124.5,60.5 C 125.383,63.3684 126.716,66.0351 128.5,68.5C 130.312,72.0619 130.645,75.7286 129.5,79.5C 128.609,80.1098 127.609,80.4431 126.5,80.5C 126.666,76.4862 126.499,72.4862 126,68.5C 125.503,70.8098 125.337,73.1432 125.5,75.5C 123.57,71.6273 122.903,67.294 123.5,62.5C 123.328,61.5084 123.662,60.8417 124.5,60.5 Z"/></g>
<g><path style="opacity:1" fill="#636d61" d="M 60.5,55.5 C 65.0696,60.0345 67.0696,65.7012 66.5,72.5C 66.5,74.5 66.5,76.5 66.5,78.5C 64.8624,74.1243 64.0291,69.4576 64,64.5C 62.8202,61.4788 61.6535,58.4788 60.5,55.5 Z"/></g>
<g><path style="opacity:1" fill="#295f52" d="M 100.5,35.5 C 101.338,35.8417 101.672,36.5084 101.5,37.5C 99.0323,51.7149 98.0323,66.0483 98.5,80.5C 97.2187,68.6404 97.2187,56.6404 98.5,44.5C 98.916,41.4173 99.5826,38.4173 100.5,35.5 Z"/></g>
<g><path style="opacity:1" fill="#8f9474" d="M 106.5,75.5 C 106.5,76.1667 106.5,76.8333 106.5,77.5C 106.44,78.0431 106.107,78.3764 105.5,78.5C 104.638,77.2342 103.971,75.9008 103.5,74.5C 103.162,71.8431 103.829,69.5098 105.5,67.5C 106.48,70.0865 106.813,72.7531 106.5,75.5 Z"/></g>
<g><path style="opacity:1" fill="#696c5a" d="M 126.5,80.5 C 125.29,80.0679 124.29,79.4013 123.5,78.5C 124.906,78.0269 125.573,77.0269 125.5,75.5C 125.337,73.1432 125.503,70.8098 126,68.5C 126.499,72.4862 126.666,76.4862 126.5,80.5 Z"/></g>
<g><path style="opacity:1" fill="#84a780" d="M 158.5,64.5 C 173.479,68.0994 188.812,69.766 204.5,69.5C 206.99,71.9158 209.99,73.5824 213.5,74.5C 213.64,73.4305 213.64,72.2639 213.5,71C 215.874,71.4024 218.207,71.2357 220.5,70.5C 222.303,71.5939 222.636,73.2606 221.5,75.5C 222.016,80.4983 224.182,81.4983 228,78.5C 228.519,79.5156 229.353,80.1822 230.5,80.5C 237.58,81.0689 244.246,82.7356 250.5,85.5C 245.377,85.2913 240.377,85.958 235.5,87.5C 226.708,86.56 219.375,82.7266 213.5,76C 211.5,75.6667 209.5,75.3333 207.5,75C 205.323,73.4851 203.156,71.9851 201,70.5C 196.076,71.7017 191.243,72.035 186.5,71.5C 183.76,72.5811 180.927,73.5811 178,74.5C 176.56,73.3929 175.06,73.3929 173.5,74.5C 169.498,72.2817 165.165,70.9484 160.5,70.5C 158.51,67.9856 156.177,66.9856 153.5,67.5C 154.048,64.9162 155.715,63.9162 158.5,64.5 Z"/></g>
<g><path style="opacity:1" fill="#161116" d="M 118.5,62.5 C 120.179,62.2852 121.179,62.9519 121.5,64.5C 121.522,69.2723 122.189,73.9389 123.5,78.5C 124.29,79.4013 125.29,80.0679 126.5,80.5C 127.609,80.4431 128.609,80.1098 129.5,79.5C 130.652,83.0535 130.485,86.7202 129,90.5C 128.229,87.8103 127.396,85.1436 126.5,82.5C 126.544,84.7791 125.544,86.9457 123.5,89C 125.256,92.6161 125.923,96.4494 125.5,100.5C 125.66,102.199 125.494,103.866 125,105.5C 124.502,102.183 124.335,98.8499 124.5,95.5C 123.377,92.6246 122.544,89.6246 122,86.5C 121.147,84.8753 120.147,84.5419 119,85.5C 118.215,83.714 117.049,82.214 115.5,81C 112.382,79.9779 109.382,78.8113 106.5,77.5C 106.5,76.8333 106.5,76.1667 106.5,75.5C 107.167,74.1667 107.833,72.8333 108.5,71.5C 110.041,75.3585 111.041,75.0251 111.5,70.5C 112.167,68.5 112.833,66.5 113.5,64.5C 113.205,66.7354 113.539,68.7354 114.5,70.5C 114.826,73.3113 115.659,75.978 117,78.5C 117.333,78.1667 117.667,77.8333 118,77.5C 118.499,72.5111 118.666,67.5111 118.5,62.5 Z"/></g>
<g><path style="opacity:1" fill="#77956e" d="M 250.5,85.5 C 252.167,85.5 253.833,85.5 255.5,85.5C 255.5,89.1667 255.5,92.8333 255.5,96.5C 251.864,95.1732 248.197,95.1732 244.5,96.5C 240.845,95.668 237.179,94.8346 233.5,94C 230.93,92.5772 228.93,90.7439 227.5,88.5C 226.167,88.5 224.833,88.5 223.5,88.5C 218.371,83.7622 212.371,81.5955 205.5,82C 204.601,83.2362 203.434,84.0696 202,84.5C 199.845,83.7558 197.845,82.7558 196,81.5C 189.208,84.0526 182.208,86.0526 175,87.5C 166.344,83.8593 157.511,80.5259 148.5,77.5C 150.167,74.1667 151.833,70.8333 153.5,67.5C 156.177,66.9856 158.51,67.9856 160.5,70.5C 165.165,70.9484 169.498,72.2817 173.5,74.5C 175.06,73.3929 176.56,73.3929 178,74.5C 180.927,73.5811 183.76,72.5811 186.5,71.5C 191.243,72.035 196.076,71.7017 201,70.5C 203.156,71.9851 205.323,73.4851 207.5,75C 209.5,75.3333 211.5,75.6667 213.5,76C 219.375,82.7266 226.708,86.56 235.5,87.5C 240.377,85.958 245.377,85.2913 250.5,85.5 Z"/></g>
<g><path style="opacity:1" fill="#91b58f" d="M 237.5,64.5 C 240.21,66.8663 243.21,68.8663 246.5,70.5C 247.293,70.0688 248.127,69.7355 249,69.5C 251.047,70.6094 253.213,71.2761 255.5,71.5C 255.5,76.1667 255.5,80.8333 255.5,85.5C 253.833,85.5 252.167,85.5 250.5,85.5C 244.246,82.7356 237.58,81.0689 230.5,80.5C 229.353,80.1822 228.519,79.5156 228,78.5C 224.182,81.4983 222.016,80.4983 221.5,75.5C 222.636,73.2606 222.303,71.5939 220.5,70.5C 218.207,71.2357 215.874,71.4024 213.5,71C 213.64,72.2639 213.64,73.4305 213.5,74.5C 209.99,73.5824 206.99,71.9158 204.5,69.5C 210.509,69.6662 216.509,69.4995 222.5,69C 224.382,68.8019 226.048,68.3019 227.5,67.5C 231.007,67.0795 234.341,66.0795 237.5,64.5 Z"/></g>
<g><path style="opacity:1" fill="#19131d" d="M 100.5,26.5 C 101.959,26.4326 103.292,26.7659 104.5,27.5C 106.514,30.1943 108.014,33.1943 109,36.5C 108.646,41.9983 108.812,47.3316 109.5,52.5C 107.983,55.5873 107.316,58.9206 107.5,62.5C 106.5,62.5 105.5,62.5 104.5,62.5C 104.084,65.4059 103.418,68.2393 102.5,71C 102.514,72.3847 102.848,73.5514 103.5,74.5C 103.971,75.9008 104.638,77.2342 105.5,78.5C 106.107,78.3764 106.44,78.0431 106.5,77.5C 109.382,78.8113 112.382,79.9779 115.5,81C 117.049,82.214 118.215,83.714 119,85.5C 120.147,84.5419 121.147,84.8753 122,86.5C 122.544,89.6246 123.377,92.6246 124.5,95.5C 124.167,95.5 123.833,95.5 123.5,95.5C 123.631,94.7611 123.464,94.0944 123,93.5C 121.812,94.5634 121.312,95.8967 121.5,97.5C 120.834,100.358 120.167,103.358 119.5,106.5C 118.832,104.031 118.165,101.698 117.5,99.5C 116.852,95.0137 115.852,94.6804 114.5,98.5C 114.06,100.844 113.06,102.844 111.5,104.5C 111.5,104.167 111.5,103.833 111.5,103.5C 111.736,100.774 110.903,98.441 109,96.5C 108.536,97.0944 108.369,97.7611 108.5,98.5C 107.833,98.5 107.5,98.8333 107.5,99.5C 106.833,100.5 106.167,101.5 105.5,102.5C 102.124,97.395 100.124,91.7283 99.5,85.5C 98.962,83.8828 98.6287,82.2161 98.5,80.5C 98.0323,66.0483 99.0323,51.7149 101.5,37.5C 104.34,35.2849 105.007,32.6182 103.5,29.5C 102.5,28.5 101.5,27.5 100.5,26.5 Z"/></g>
<g><path style="opacity:1" fill="#2b5757" d="M 86.5,86.5 C 84.6208,85.6586 82.6208,85.3253 80.5,85.5C 85.119,63.9645 87.119,64.2978 86.5,86.5 Z"/></g>
<g><path style="opacity:1" fill="#8ca59d" d="M 76.5,80.5 C 75.7837,83.5982 74.7837,86.5982 73.5,89.5C 71.7368,92.0196 69.7368,94.3529 67.5,96.5C 68.5686,94.0313 69.9019,91.6979 71.5,89.5C 71.8333,88.8333 72.1667,88.1667 72.5,87.5C 72.8333,86.8333 73.1667,86.1667 73.5,85.5C 74.2632,83.6316 75.2632,81.9649 76.5,80.5 Z"/></g>
<g><path style="opacity:1" fill="#235748" d="M 137.5,53.5 C 138.136,65.8071 139.469,78.1404 141.5,90.5C 140.175,89.0474 139.342,89.3808 139,91.5C 138.505,93.4727 138.338,95.4727 138.5,97.5C 137.833,90.5 137.167,83.5 136.5,76.5C 135.8,72.2022 135.467,67.8689 135.5,63.5C 136.576,60.2655 137.243,56.9322 137.5,53.5 Z"/></g>
<g><path style="opacity:1" fill="#413625" d="M 29.5,69.5 C 26.7469,69.8792 24.7469,71.3792 23.5,74C 26.3207,75.8224 28.8207,77.9891 31,80.5C 36.7056,81.7175 42.7056,81.7175 49,80.5C 50.1011,82.3939 51.4345,83.0606 53,82.5C 56.5321,79.8258 60.3654,79.1591 64.5,80.5C 65.1698,82.2914 65.8365,83.9581 66.5,85.5C 65.8629,88.456 65.3629,91.456 65,94.5C 63.6015,93.9491 62.2682,93.6158 61,93.5C 60.3333,94.1667 59.6667,94.8333 59,95.5C 55.0744,95.963 51.0744,95.963 47,95.5C 46.6924,96.3081 46.1924,96.9747 45.5,97.5C 44.2888,96.6102 42.9555,96.6102 41.5,97.5C 40.3527,97.1822 39.5194,96.5156 39,95.5C 37.6124,96.5536 36.1124,96.7203 34.5,96C 33.7171,93.8816 32.3838,92.3816 30.5,91.5C 29.8777,89.665 28.5444,88.4983 26.5,88C 23.1667,87.6667 19.8333,87.3333 16.5,87C 17.624,86.7508 18.624,86.2508 19.5,85.5C 18.2889,84.2798 18.2889,83.1131 19.5,82C 16.4124,81.1533 13.5791,81.6533 11,83.5C 9.02823,81.5679 6.86156,81.0679 4.5,82C 4.16667,81.6667 3.83333,81.3333 3.5,81C 8.47942,79.8899 8.14608,78.8899 2.5,78C 3.5,77.6667 4.5,77.3333 5.5,77C 5.11639,76.0494 4.78306,75.2161 4.5,74.5C 9.40668,72.5554 13.74,69.8888 17.5,66.5C 19.2077,66.7028 20.541,67.5362 21.5,69C 24.146,69.4974 26.8127,69.6641 29.5,69.5 Z"/></g>
<g><path style="opacity:1" fill="#8aebdc" d="M 96.5,85.5 C 96.5,85.8333 96.5,86.1667 96.5,86.5C 95.6618,86.8417 95.3284,87.5084 95.5,88.5C 94.8333,87.1667 94.1667,85.8333 93.5,84.5C 93.5,80.5 93.5,76.5 93.5,72.5C 94.3091,70.7078 94.8091,68.7078 95,66.5C 95.3459,72.857 95.8459,79.1903 96.5,85.5 Z"/></g>
<g><path style="opacity:1" fill="#637156" d="M 147.5,82.5 C 156.854,85.0929 166.354,87.4262 176,89.5C 184.897,88.2346 194.063,87.4013 203.5,87C 206.98,86.6988 210.313,85.8655 213.5,84.5C 215.397,84.7282 216.73,85.7282 217.5,87.5C 219.396,88.4656 221.396,88.7989 223.5,88.5C 224.833,88.5 226.167,88.5 227.5,88.5C 229.129,90.1959 228.796,91.1959 226.5,91.5C 224.365,89.631 221.698,88.9644 218.5,89.5C 218.915,91.9477 217.915,93.2811 215.5,93.5C 211.776,92.2795 208.109,91.2795 204.5,90.5C 202.253,91.3742 199.92,91.7076 197.5,91.5C 196.609,90.8902 195.609,90.5569 194.5,90.5C 191.941,90.1984 189.607,90.5318 187.5,91.5C 183.717,92.0948 179.883,92.4281 176,92.5C 166.84,92.2421 158.006,91.2421 149.5,89.5C 149.5,90.5 149.5,91.5 149.5,92.5C 148.833,90.8333 148.167,89.1667 147.5,87.5C 147.5,86.8333 147.5,86.1667 147.5,85.5C 147.5,84.5 147.5,83.5 147.5,82.5 Z"/></g>
<g><path style="opacity:1" fill="#3b9072" d="M 93.5,72.5 C 93.5,76.5 93.5,80.5 93.5,84.5C 93.5,86.1667 93.5,87.8333 93.5,89.5C 92.5,89.5 91.5,89.5 90.5,89.5C 90.5,91.5 90.5,93.5 90.5,95.5C 89.7321,94.7375 89.2321,93.7375 89,92.5C 88.5006,86.8431 88.3339,81.1764 88.5,75.5C 89.8333,75.5 91.1667,75.5 92.5,75.5C 92.2627,74.209 92.596,73.209 93.5,72.5 Z"/></g>
<g><path style="opacity:1" fill="#3b7d71" d="M 80.5,85.5 C 82.6208,85.3253 84.6208,85.6586 86.5,86.5C 86.5,88.1667 86.5,89.8333 86.5,91.5C 84.6064,90.9524 82.9397,89.9524 81.5,88.5C 80.1482,89.5244 78.8149,90.5244 77.5,91.5C 77.9925,89.1815 78.9925,87.1815 80.5,85.5 Z"/></g>
<g><path style="opacity:1" fill="#6c8261" d="M 148.5,77.5 C 157.511,80.5259 166.344,83.8593 175,87.5C 182.208,86.0526 189.208,84.0526 196,81.5C 197.845,82.7558 199.845,83.7558 202,84.5C 203.434,84.0696 204.601,83.2362 205.5,82C 212.371,81.5955 218.371,83.7622 223.5,88.5C 221.396,88.7989 219.396,88.4656 217.5,87.5C 216.73,85.7282 215.397,84.7282 213.5,84.5C 210.313,85.8655 206.98,86.6988 203.5,87C 194.063,87.4013 184.897,88.2346 176,89.5C 166.354,87.4262 156.854,85.0929 147.5,82.5C 147.216,80.5853 147.549,78.9187 148.5,77.5 Z"/></g>
<g><path style="opacity:1" fill="#666d57" d="M 244.5,86.5 C 245.833,86.5 247.167,86.5 248.5,86.5C 248.703,88.3904 248.037,89.8904 246.5,91C 244.19,91.4966 241.857,91.6633 239.5,91.5C 239.281,90.325 239.614,89.325 240.5,88.5C 242.026,88.0057 243.359,87.339 244.5,86.5 Z"/></g>
<g><path style="opacity:1" fill="#44987f" d="M 76.5,80.5 C 76.8333,80.5 77.1667,80.5 77.5,80.5C 78.5862,80.62 79.2528,81.2867 79.5,82.5C 78.4878,86.025 76.8211,89.1917 74.5,92C 75.5768,92.4696 76.5768,92.3029 77.5,91.5C 78.8149,90.5244 80.1482,89.5244 81.5,88.5C 82.9397,89.9524 84.6064,90.9524 86.5,91.5C 87.1667,93.8333 87.8333,96.1667 88.5,98.5C 83.1068,97.7004 78.1068,96.0337 73.5,93.5C 73.5,92.1667 73.5,90.8333 73.5,89.5C 74.7837,86.5982 75.7837,83.5982 76.5,80.5 Z"/></g>
<g><path style="opacity:1" fill="#5c614d" d="M 187.5,91.5 C 185.437,94.9416 182.437,97.275 178.5,98.5C 173.279,98.4915 167.946,98.3249 162.5,98C 158.857,97.0278 155.19,96.1945 151.5,95.5C 150.893,95.6236 150.56,95.9569 150.5,96.5C 149.566,95.4324 149.232,94.099 149.5,92.5C 149.5,91.5 149.5,90.5 149.5,89.5C 158.006,91.2421 166.84,92.2421 176,92.5C 179.883,92.4281 183.717,92.0948 187.5,91.5 Z"/></g>
<g><path style="opacity:1" fill="#4a2d1f" d="M -0.5,90.5 C 0.221579,90.9175 0.721579,91.5842 1,92.5C 1.33333,92.1667 1.66667,91.8333 2,91.5C 3.39881,92.2266 4.89881,92.7266 6.5,93C 5.65975,94.6665 6.15975,94.8331 8,93.5C 8.37629,98.8758 11.2096,102.042 16.5,103C 18.8333,103.667 21.1667,103.667 23.5,103C 28.0699,101.903 32.2366,100.736 36,99.5C 36.8271,100.662 37.6604,101.829 38.5,103C 37.3421,104.261 37.3421,105.427 38.5,106.5C 39.4785,110.515 41.8118,111.848 45.5,110.5C 46.3081,110.808 46.9747,111.308 47.5,112C 46.287,114.687 45.6203,117.52 45.5,120.5C 39.8299,115.667 33.9966,111 28,106.5C 27.5,107 27,107.5 26.5,108C 27.365,109.359 28.365,110.526 29.5,111.5C 28.0609,112.509 26.7276,112.176 25.5,110.5C 24.4777,110.855 23.811,111.522 23.5,112.5C 22.5269,114.948 22.1936,117.615 22.5,120.5C 18.6923,118.427 15.0256,116.094 11.5,113.5C 6.74004,109.077 2.74004,104.077 -0.5,98.5C -0.5,95.8333 -0.5,93.1667 -0.5,90.5 Z"/></g>
<g><path style="opacity:1" fill="#243a33" d="M 136.5,76.5 C 137.167,83.5 137.833,90.5 138.5,97.5C 138.784,99.4147 138.451,101.081 137.5,102.5C 135.342,99.0393 134.342,95.206 134.5,91C 135.62,86.2471 136.287,81.4138 136.5,76.5 Z"/></g>
<g><path style="opacity:1" fill="#778864" d="M 227.5,88.5 C 228.93,90.7439 230.93,92.5772 233.5,94C 237.179,94.8346 240.845,95.668 244.5,96.5C 248.197,95.1732 251.864,95.1732 255.5,96.5C 255.5,99.1667 255.5,101.833 255.5,104.5C 252.235,104.701 249.569,103.534 247.5,101C 239.587,100.473 232.253,98.1399 225.5,94C 226.252,93.3292 226.586,92.4959 226.5,91.5C 228.796,91.1959 229.129,90.1959 227.5,88.5 Z"/></g>
<g><path style="opacity:1" fill="#60ad8c" d="M 96.5,85.5 C 97.5,85.5 98.5,85.5 99.5,85.5C 100.124,91.7283 102.124,97.395 105.5,102.5C 105.604,104.703 106.27,106.703 107.5,108.5C 107.44,109.043 107.107,109.376 106.5,109.5C 105.378,108.37 104.044,107.703 102.5,107.5C 102.5,107.167 102.5,106.833 102.5,106.5C 102.938,106.565 103.272,106.399 103.5,106C 100.279,99.8399 97.9461,93.3399 96.5,86.5C 96.5,86.1667 96.5,85.8333 96.5,85.5 Z"/></g>
<g><path style="opacity:1" fill="#d4d3b8" d="M 111.5,103.5 C 109.721,102.33 108.721,100.664 108.5,98.5C 108.369,97.7611 108.536,97.0944 109,96.5C 110.903,98.441 111.736,100.774 111.5,103.5 Z"/></g>
<g><path style="opacity:1" fill="#baf3f0" d="M 145.5,77.5 C 146.078,80.2804 146.745,82.9471 147.5,85.5C 147.5,86.1667 147.5,86.8333 147.5,87.5C 147.478,95.3999 148.144,103.233 149.5,111C 149.257,111.902 148.923,112.735 148.5,113.5C 148.167,113.5 147.833,113.5 147.5,113.5C 147.167,113.5 146.833,113.5 146.5,113.5C 146.5,112.833 146.167,112.5 145.5,112.5C 144.559,107.93 144.226,103.263 144.5,98.5C 144.203,91.1522 144.036,83.8189 144,76.5C 144.383,77.056 144.883,77.3893 145.5,77.5 Z"/></g>
<g><path style="opacity:1" fill="#42271a" d="M 72.5,124.5 C 71.3599,126.78 70.1932,129.114 69,131.5C 66.6716,132.664 64.8382,134.33 63.5,136.5C 62.5,137.167 61.5,137.833 60.5,138.5C 59.5041,138.586 58.6708,138.252 58,137.5C 56.4758,135.102 54.9758,132.769 53.5,130.5C 51.7836,126.397 49.1169,123.064 45.5,120.5C 45.6203,117.52 46.287,114.687 47.5,112C 46.9747,111.308 46.3081,110.808 45.5,110.5C 41.8118,111.848 39.4785,110.515 38.5,106.5C 39.397,105.402 40.2303,105.402 41,106.5C 41.0072,104.381 42.1739,102.547 44.5,101C 46.1667,100.333 47.8333,100.333 49.5,101C 51.8877,102.861 54.5544,104.194 57.5,105C 53.5,105.667 53.5,106.333 57.5,107C 55.65,110.466 56.65,112.299 60.5,112.5C 60.9662,114.201 60.9662,115.701 60.5,117C 63.4198,118.234 66.4198,119.234 69.5,120C 70.8333,120.667 70.8333,121.333 69.5,122C 71.1193,122.236 72.1193,123.069 72.5,124.5 Z"/></g>
<g><path style="opacity:1" fill="#524b3f" d="M 71.5,89.5 C 69.9019,91.6979 68.5686,94.0313 67.5,96.5C 68.6252,97.9999 69.9586,99.3332 71.5,100.5C 71.5,101.5 71.5,102.5 71.5,103.5C 69.7088,102.517 68.2088,101.184 67,99.5C 66.4572,96.1322 66.6239,92.7989 67.5,89.5C 68.8333,89.5 70.1667,89.5 71.5,89.5 Z"/></g>
<g><path style="opacity:1" fill="#5c5543" d="M 194.5,90.5 C 195.609,90.5569 196.609,90.8902 197.5,91.5C 197.953,92.4584 198.619,93.2917 199.5,94C 204.167,94.6667 208.833,95.3333 213.5,96C 216.476,99.4656 220.143,101.299 224.5,101.5C 222.143,101.337 219.81,101.503 217.5,102C 216.663,103.011 216.33,104.178 216.5,105.5C 211.156,105.334 205.823,105.501 200.5,106C 198.02,107.482 195.853,109.315 194,111.5C 191.667,112.167 189.333,112.833 187,113.5C 184.898,115.77 182.398,117.437 179.5,118.5C 178.803,116.615 177.803,116.282 176.5,117.5C 174.151,116.457 172.151,115.124 170.5,113.5C 171.5,113.5 172.5,113.5 173.5,113.5C 173.162,110.675 174.162,108.508 176.5,107C 175.167,107 173.833,107 172.5,107C 175.846,105.527 178.846,103.527 181.5,101C 183.746,101.428 186.079,101.928 188.5,102.5C 190.044,102.21 191.377,101.544 192.5,100.5C 194.516,101.706 196.516,101.706 198.5,100.5C 196.234,99.6858 193.9,99.1858 191.5,99C 195.695,96.9161 196.695,94.0828 194.5,90.5 Z"/></g>
<g><path style="opacity:1" fill="#67c8ae" d="M 93.5,84.5 C 94.1667,85.8333 94.8333,87.1667 95.5,88.5C 95.5382,91.9511 96.2049,95.2844 97.5,98.5C 96.5331,100.762 95.8664,103.095 95.5,105.5C 97.7354,105.205 99.7354,105.539 101.5,106.5C 98.8333,106.5 96.1667,106.5 93.5,106.5C 88.6428,105.672 83.6428,104.838 78.5,104C 76.4234,102.295 74.09,101.128 71.5,100.5C 69.9586,99.3332 68.6252,97.9999 67.5,96.5C 69.7368,94.3529 71.7368,92.0196 73.5,89.5C 73.5,90.8333 73.5,92.1667 73.5,93.5C 73.8588,95.371 74.8588,96.871 76.5,98C 79.257,98.8779 81.9237,99.8779 84.5,101C 86.5787,101.808 88.5787,101.641 90.5,100.5C 90.1373,99.8165 89.8039,99.1499 89.5,98.5C 90.404,97.791 90.7373,96.791 90.5,95.5C 90.5,93.5 90.5,91.5 90.5,89.5C 91.5,89.5 92.5,89.5 93.5,89.5C 93.5,87.8333 93.5,86.1667 93.5,84.5 Z"/></g>
<g><path style="opacity:1" fill="#8ee8e6" d="M 73.5,93.5 C 78.1068,96.0337 83.1068,97.7004 88.5,98.5C 88.8333,98.5 89.1667,98.5 89.5,98.5C 89.8039,99.1499 90.1373,99.8165 90.5,100.5C 88.5787,101.641 86.5787,101.808 84.5,101C 81.9237,99.8779 79.257,98.8779 76.5,98C 74.8588,96.871 73.8588,95.371 73.5,93.5 Z"/></g>
<g><path style="opacity:1" fill="#bcf6f0" d="M 96.5,86.5 C 97.9461,93.3399 100.279,99.8399 103.5,106C 103.272,106.399 102.938,106.565 102.5,106.5C 102.167,106.5 101.833,106.5 101.5,106.5C 99.7354,105.539 97.7354,105.205 95.5,105.5C 95.8664,103.095 96.5331,100.762 97.5,98.5C 96.2049,95.2844 95.5382,91.9511 95.5,88.5C 95.3284,87.5084 95.6618,86.8417 96.5,86.5 Z"/></g>
<g><path style="opacity:1" fill="#cecea7" d="M 123.5,95.5 C 123.666,99.5138 123.499,103.514 123,107.5C 121.595,104.381 121.095,101.048 121.5,97.5C 121.312,95.8967 121.812,94.5634 123,93.5C 123.464,94.0944 123.631,94.7611 123.5,95.5 Z"/></g>
<g><path style="opacity:1" fill="#72795b" d="M 226.5,91.5 C 226.586,92.4959 226.252,93.3292 225.5,94C 232.253,98.1399 239.587,100.473 247.5,101C 249.569,103.534 252.235,104.701 255.5,104.5C 255.5,105.833 255.5,107.167 255.5,108.5C 247.951,106.81 240.284,105.643 232.5,105C 229.84,101.549 226.34,99.3823 222,98.5C 219.803,94.1512 221.303,91.8179 226.5,91.5 Z"/></g>
<g><path style="opacity:1" fill="#c6bf98" d="M 117.5,99.5 C 117.5,102.167 117.5,104.833 117.5,107.5C 116.503,107.53 115.836,107.03 115.5,106C 114.678,103.566 114.344,101.066 114.5,98.5C 115.852,94.6804 116.852,95.0137 117.5,99.5 Z"/></g>
<g><path style="opacity:1" fill="#ba9459" d="M 108.5,98.5 C 108.721,100.664 109.721,102.33 111.5,103.5C 111.5,103.833 111.5,104.167 111.5,104.5C 111.189,105.478 110.522,106.145 109.5,106.5C 108.056,104.392 107.39,102.059 107.5,99.5C 107.5,98.8333 107.833,98.5 108.5,98.5 Z"/></g>
<g><path style="opacity:1" fill="#d7dccf" d="M 128.5,101.5 C 128.662,103.527 128.495,105.527 128,107.5C 127.722,106.584 127.222,105.918 126.5,105.5C 126.5,103.833 126.5,102.167 126.5,100.5C 127.623,99.2426 128.289,99.5759 128.5,101.5 Z"/></g>
<g><path style="opacity:1" fill="#545242" d="M 194.5,90.5 C 196.695,94.0828 195.695,96.9161 191.5,99C 193.9,99.1858 196.234,99.6858 198.5,100.5C 196.516,101.706 194.516,101.706 192.5,100.5C 191.377,101.544 190.044,102.21 188.5,102.5C 186.079,101.928 183.746,101.428 181.5,101C 178.846,103.527 175.846,105.527 172.5,107C 173.833,107 175.167,107 176.5,107C 174.162,108.508 173.162,110.675 173.5,113.5C 172.5,113.5 171.5,113.5 170.5,113.5C 166.953,114.965 166.62,117.132 169.5,120C 169.333,120.833 169.167,121.667 169,122.5C 165.696,125.439 162.53,125.606 159.5,123C 157.888,122.28 156.388,122.446 155,123.5C 151.55,121.876 147.884,120.543 144,119.5C 142.486,119.77 140.986,120.103 139.5,120.5C 137.964,119.751 136.631,118.751 135.5,117.5C 134.808,118.025 134.308,118.692 134,119.5C 133.667,122.833 133.333,126.167 133,129.5C 132.764,131.119 131.931,132.119 130.5,132.5C 130.833,131.833 131.167,131.167 131.5,130.5C 132.567,125.218 132.733,119.885 132,114.5C 131.722,113.584 131.222,112.918 130.5,112.5C 129.89,111.609 129.557,110.609 129.5,109.5C 130.458,109.953 131.292,110.619 132,111.5C 132.55,106.93 133.717,106.597 135.5,110.5C 136.176,109.398 136.842,108.398 137.5,107.5C 137.5,109.5 137.5,111.5 137.5,113.5C 140.5,113.5 143.5,113.5 146.5,113.5C 146.833,113.5 147.167,113.5 147.5,113.5C 146.517,114.85 145.184,115.85 143.5,116.5C 146.768,117.487 150.102,117.82 153.5,117.5C 153.795,115.265 153.461,113.265 152.5,111.5C 151.352,106.57 150.685,101.57 150.5,96.5C 150.56,95.9569 150.893,95.6236 151.5,95.5C 155.19,96.1945 158.857,97.0278 162.5,98C 167.946,98.3249 173.279,98.4915 178.5,98.5C 182.437,97.275 185.437,94.9416 187.5,91.5C 189.607,90.5318 191.941,90.1984 194.5,90.5 Z"/></g>
<g><path style="opacity:1" fill="#3d2b1e" d="M 66.5,72.5 C 67.3091,74.2922 67.8091,76.2922 68,78.5C 68.3076,77.6919 68.8076,77.0253 69.5,76.5C 70.6146,80.2629 71.6146,83.9296 72.5,87.5C 72.1667,88.1667 71.8333,88.8333 71.5,89.5C 70.1667,89.5 68.8333,89.5 67.5,89.5C 66.6239,92.7989 66.4572,96.1322 67,99.5C 68.2088,101.184 69.7088,102.517 71.5,103.5C 72.8717,104.512 74.205,105.512 75.5,106.5C 76.0498,112.892 75.0498,118.892 72.5,124.5C 72.1193,123.069 71.1193,122.236 69.5,122C 70.8333,121.333 70.8333,120.667 69.5,120C 66.4198,119.234 63.4198,118.234 60.5,117C 60.9662,115.701 60.9662,114.201 60.5,112.5C 56.65,112.299 55.65,110.466 57.5,107C 53.5,106.333 53.5,105.667 57.5,105C 54.5544,104.194 51.8877,102.861 49.5,101C 47.8333,100.333 46.1667,100.333 44.5,101C 42.1739,102.547 41.0072,104.381 41,106.5C 40.2303,105.402 39.397,105.402 38.5,106.5C 37.3421,105.427 37.3421,104.261 38.5,103C 37.6604,101.829 36.8271,100.662 36,99.5C 32.2366,100.736 28.0699,101.903 23.5,103C 21.1667,103.667 18.8333,103.667 16.5,103C 11.2096,102.042 8.37629,98.8758 8,93.5C 6.15975,94.8331 5.65975,94.6665 6.5,93C 4.89881,92.7266 3.39881,92.2266 2,91.5C 1.66667,91.8333 1.33333,92.1667 1,92.5C 0.721579,91.5842 0.221579,90.9175 -0.5,90.5C -0.5,85.5 -0.5,80.5 -0.5,75.5C 0.221579,75.0825 0.721579,74.4158 1,73.5C 2.01127,74.3366 3.17793,74.67 4.5,74.5C 4.78306,75.2161 5.11639,76.0494 5.5,77C 4.5,77.3333 3.5,77.6667 2.5,78C 8.14608,78.8899 8.47942,79.8899 3.5,81C 3.83333,81.3333 4.16667,81.6667 4.5,82C 6.86156,81.0679 9.02823,81.5679 11,83.5C 13.5791,81.6533 16.4124,81.1533 19.5,82C 18.2889,83.1131 18.2889,84.2798 19.5,85.5C 18.624,86.2508 17.624,86.7508 16.5,87C 19.8333,87.3333 23.1667,87.6667 26.5,88C 28.5444,88.4983 29.8777,89.665 30.5,91.5C 32.3838,92.3816 33.7171,93.8816 34.5,96C 36.1124,96.7203 37.6124,96.5536 39,95.5C 39.5194,96.5156 40.3527,97.1822 41.5,97.5C 42.9555,96.6102 44.2888,96.6102 45.5,97.5C 46.1924,96.9747 46.6924,96.3081 47,95.5C 51.0744,95.963 55.0744,95.963 59,95.5C 59.6667,94.8333 60.3333,94.1667 61,93.5C 62.2682,93.6158 63.6015,93.9491 65,94.5C 65.3629,91.456 65.8629,88.456 66.5,85.5C 66.5,83.1667 66.5,80.8333 66.5,78.5C 66.5,76.5 66.5,74.5 66.5,72.5 Z"/></g>
<g><path style="opacity:1" fill="#69564d" d="M 63.5,100.5 C 64.6491,100.791 65.3158,101.624 65.5,103C 64.859,106.977 62.6923,109.811 59,111.5C 58.3333,110.5 58.3333,109.5 59,108.5C 60.7653,105.968 62.2653,103.301 63.5,100.5 Z"/></g>
<g><path style="opacity:1" fill="#2b1e15" d="M 30.5,91.5 C 30.7076,93.9201 30.3742,96.2534 29.5,98.5C 24.9205,99.9882 20.2538,100.488 15.5,100C 11.9113,92.5546 14.4113,89.0546 23,89.5C 25.7752,89.4092 28.2752,90.0759 30.5,91.5 Z"/></g>
<g><path style="opacity:1" fill="#5caa88" d="M 143.5,98.5 C 143.833,98.5 144.167,98.5 144.5,98.5C 144.226,103.263 144.559,107.93 145.5,112.5C 143.5,112.5 141.5,112.5 139.5,112.5C 139.778,107.439 141.111,102.772 143.5,98.5 Z"/></g>
<g><path style="opacity:1" fill="#7d664e" d="M 123.5,95.5 C 123.833,95.5 124.167,95.5 124.5,95.5C 124.335,98.8499 124.502,102.183 125,105.5C 125.494,103.866 125.66,102.199 125.5,100.5C 125.833,100.5 126.167,100.5 126.5,100.5C 126.5,102.167 126.5,103.833 126.5,105.5C 126.649,106.552 126.483,107.552 126,108.5C 125.667,108.167 125.333,107.833 125,107.5C 124.768,108.737 124.268,109.737 123.5,110.5C 121.684,108.559 119.684,107.892 117.5,108.5C 117.5,108.167 117.5,107.833 117.5,107.5C 117.5,104.833 117.5,102.167 117.5,99.5C 118.165,101.698 118.832,104.031 119.5,106.5C 120.167,103.358 120.834,100.358 121.5,97.5C 121.095,101.048 121.595,104.381 123,107.5C 123.499,103.514 123.666,99.5138 123.5,95.5 Z"/></g>
<g><path style="opacity:1" fill="#dbeae6" d="M -0.5,98.5 C 2.74004,104.077 6.74004,109.077 11.5,113.5C 11.427,115.027 12.0937,116.027 13.5,116.5C 12.7961,118.344 11.4628,118.844 9.5,118C 6.27111,115.259 2.93778,112.759 -0.5,110.5C -0.5,106.5 -0.5,102.5 -0.5,98.5 Z"/></g>
<g><path style="opacity:1" fill="#546152" d="M 71.5,100.5 C 74.09,101.128 76.4234,102.295 78.5,104C 83.6428,104.838 88.6428,105.672 93.5,106.5C 90.8127,106.336 88.146,106.503 85.5,107C 88.0101,107.376 90.3435,108.21 92.5,109.5C 92.0431,110.298 91.3764,110.631 90.5,110.5C 87.7938,110.425 85.1272,110.092 82.5,109.5C 82.1583,108.662 81.4916,108.328 80.5,108.5C 79.4863,107.326 78.153,106.66 76.5,106.5C 76.1667,106.5 75.8333,106.5 75.5,106.5C 74.205,105.512 72.8717,104.512 71.5,103.5C 71.5,102.5 71.5,101.5 71.5,100.5 Z"/></g>
<g><path style="opacity:1" fill="#3d4338" d="M 93.5,106.5 C 96.1667,106.5 98.8333,106.5 101.5,106.5C 101.833,106.5 102.167,106.5 102.5,106.5C 102.5,106.833 102.5,107.167 102.5,107.5C 99.8127,107.336 97.146,107.503 94.5,108C 95.448,108.483 96.448,108.649 97.5,108.5C 97.5,109.5 97.5,110.5 97.5,111.5C 94.9407,111.802 92.6074,111.468 90.5,110.5C 91.3764,110.631 92.0431,110.298 92.5,109.5C 90.3435,108.21 88.0101,107.376 85.5,107C 88.146,106.503 90.8127,106.336 93.5,106.5 Z"/></g>
<g><path style="opacity:1" fill="#7c493f" d="M 114.5,98.5 C 114.344,101.066 114.678,103.566 115.5,106C 115.836,107.03 116.503,107.53 117.5,107.5C 117.5,107.833 117.5,108.167 117.5,108.5C 117.5,108.833 117.5,109.167 117.5,109.5C 115.227,110.735 113.394,110.402 112,108.5C 111.667,110.5 111.333,112.5 111,114.5C 110.617,115.056 110.117,115.389 109.5,115.5C 109.795,113.265 109.461,111.265 108.5,109.5C 108.5,108.833 108.167,108.5 107.5,108.5C 106.27,106.703 105.604,104.703 105.5,102.5C 106.167,101.5 106.833,100.5 107.5,99.5C 107.39,102.059 108.056,104.392 109.5,106.5C 110.522,106.145 111.189,105.478 111.5,104.5C 113.06,102.844 114.06,100.844 114.5,98.5 Z"/></g>
<g><path style="opacity:1" fill="#c6e4df" d="M 147.5,87.5 C 148.167,89.1667 148.833,90.8333 149.5,92.5C 149.232,94.099 149.566,95.4324 150.5,96.5C 150.685,101.57 151.352,106.57 152.5,111.5C 152.5,113.167 152.5,114.833 152.5,116.5C 150.801,116.66 149.134,116.494 147.5,116C 149.359,115.399 149.692,114.566 148.5,113.5C 148.923,112.735 149.257,111.902 149.5,111C 148.144,103.233 147.478,95.3999 147.5,87.5 Z"/></g>
<g><path style="opacity:1" fill="#a77d6d" d="M 128.5,101.5 C 129.473,103.948 129.806,106.615 129.5,109.5C 129.557,110.609 129.89,111.609 130.5,112.5C 130.473,114.199 129.806,115.533 128.5,116.5C 125.982,115.489 125.982,114.156 128.5,112.5C 126.041,108.65 124.874,109.316 125,114.5C 124.283,113.956 123.783,113.289 123.5,112.5C 123.5,111.833 123.5,111.167 123.5,110.5C 124.268,109.737 124.768,108.737 125,107.5C 125.333,107.833 125.667,108.167 126,108.5C 126.483,107.552 126.649,106.552 126.5,105.5C 127.222,105.918 127.722,106.584 128,107.5C 128.495,105.527 128.662,103.527 128.5,101.5 Z"/></g>
<g><path style="opacity:1" fill="#eccdd1" d="M 123.5,110.5 C 123.5,111.167 123.5,111.833 123.5,112.5C 122.1,113.1 121.1,114.1 120.5,115.5C 120.025,113.216 119.025,111.216 117.5,109.5C 117.5,109.167 117.5,108.833 117.5,108.5C 119.684,107.892 121.684,108.559 123.5,110.5 Z"/></g>
<g><path style="opacity:1" fill="#428467" d="M 141.5,90.5 C 142.045,94.1716 142.378,93.8383 142.5,89.5C 143.477,92.2869 143.81,95.2869 143.5,98.5C 141.111,102.772 139.778,107.439 139.5,112.5C 141.5,112.5 143.5,112.5 145.5,112.5C 146.167,112.5 146.5,112.833 146.5,113.5C 143.5,113.5 140.5,113.5 137.5,113.5C 137.5,111.5 137.5,109.5 137.5,107.5C 137.5,105.833 137.5,104.167 137.5,102.5C 138.451,101.081 138.784,99.4147 138.5,97.5C 138.338,95.4727 138.505,93.4727 139,91.5C 139.342,89.3808 140.175,89.0474 141.5,90.5 Z"/></g>
<g><path style="opacity:1" fill="#6e6851" d="M 226.5,91.5 C 221.303,91.8179 219.803,94.1512 222,98.5C 226.34,99.3823 229.84,101.549 232.5,105C 240.284,105.643 247.951,106.81 255.5,108.5C 255.5,111.833 255.5,115.167 255.5,118.5C 250.314,117.243 245.314,115.41 240.5,113C 241.167,112.667 241.833,112.333 242.5,112C 238.611,110.195 234.611,108.695 230.5,107.5C 230.5,108.5 230.5,109.5 230.5,110.5C 229.5,110.5 228.5,110.5 227.5,110.5C 226.371,107.491 225.371,104.491 224.5,101.5C 220.143,101.299 216.476,99.4656 213.5,96C 208.833,95.3333 204.167,94.6667 199.5,94C 198.619,93.2917 197.953,92.4584 197.5,91.5C 199.92,91.7076 202.253,91.3742 204.5,90.5C 208.109,91.2795 211.776,92.2795 215.5,93.5C 217.915,93.2811 218.915,91.9477 218.5,89.5C 221.698,88.9644 224.365,89.631 226.5,91.5 Z"/></g>
<g><path style="opacity:1" fill="#34130e" d="M 23.5,112.5 C 26.6361,116.211 28.6361,120.545 29.5,125.5C 26.883,124.214 24.5496,122.547 22.5,120.5C 22.1936,117.615 22.5269,114.948 23.5,112.5 Z"/></g>
<g><path style="opacity:1" fill="#75695e" d="M 75.5,106.5 C 75.8333,106.5 76.1667,106.5 76.5,106.5C 78.4136,117.677 75.4136,127.344 67.5,135.5C 66.1667,135.833 64.8333,136.167 63.5,136.5C 64.8382,134.33 66.6716,132.664 69,131.5C 70.1932,129.114 71.3599,126.78 72.5,124.5C 75.0498,118.892 76.0498,112.892 75.5,106.5 Z"/></g>
<g><path style="opacity:1" fill="#a15f5c" d="M 117.5,109.5 C 119.025,111.216 120.025,113.216 120.5,115.5C 118.088,115.756 116.421,114.756 115.5,112.5C 114.125,115.547 111.792,116.88 108.5,116.5C 108.5,115.833 108.833,115.5 109.5,115.5C 110.117,115.389 110.617,115.056 111,114.5C 111.333,112.5 111.667,110.5 112,108.5C 113.394,110.402 115.227,110.735 117.5,109.5 Z"/></g>
<g><path style="opacity:1" fill="#87938b" d="M 152.5,111.5 C 153.461,113.265 153.795,115.265 153.5,117.5C 150.102,117.82 146.768,117.487 143.5,116.5C 145.184,115.85 146.517,114.85 147.5,113.5C 147.833,113.5 148.167,113.5 148.5,113.5C 149.692,114.566 149.359,115.399 147.5,116C 149.134,116.494 150.801,116.66 152.5,116.5C 152.5,114.833 152.5,113.167 152.5,111.5 Z"/></g>
<g><path style="opacity:1" fill="#51392b" d="M 223.5,106.5 C 222.12,106.962 221.453,107.962 221.5,109.5C 221.97,111.774 222.97,113.774 224.5,115.5C 224.167,116.167 223.833,116.833 223.5,117.5C 225.006,118.747 226.506,118.747 228,117.5C 228.495,115.527 228.662,113.527 228.5,111.5C 231.285,110.916 232.952,111.916 233.5,114.5C 233.575,117.206 233.908,119.873 234.5,122.5C 229.559,121.042 224.559,120.376 219.5,120.5C 218.646,121.522 217.646,122.355 216.5,123C 214.687,122.954 213.021,123.12 211.5,123.5C 210.029,122.619 209.196,121.286 209,119.5C 208.5,120.667 207.667,121.5 206.5,122C 207.406,123.699 207.739,125.533 207.5,127.5C 204.675,127.919 202.509,126.919 201,124.5C 200.51,125.793 200.343,127.127 200.5,128.5C 198.659,127.598 197.326,126.264 196.5,124.5C 196.5,122.167 196.5,119.833 196.5,117.5C 197.905,114.357 199.572,111.357 201.5,108.5C 206.239,108.167 210.905,107.667 215.5,107C 217.863,106.411 218.863,104.911 218.5,102.5C 220.167,102.5 221.833,102.5 223.5,102.5C 223.5,103.833 223.5,105.167 223.5,106.5 Z"/></g>
<g><path style="opacity:1" fill="#3f2121" d="M 108.5,109.5 C 109.461,111.265 109.795,113.265 109.5,115.5C 108.833,115.5 108.5,115.833 108.5,116.5C 107.566,117.568 107.232,118.901 107.5,120.5C 106.833,120.5 106.5,120.833 106.5,121.5C 104.598,118.663 103.931,115.329 104.5,111.5C 106.38,111.771 107.713,111.104 108.5,109.5 Z"/></g>
<g><path style="opacity:1" fill="#6f5c46" d="M 224.5,101.5 C 225.371,104.491 226.371,107.491 227.5,110.5C 228.5,110.5 229.5,110.5 230.5,110.5C 230.5,109.5 230.5,108.5 230.5,107.5C 234.611,108.695 238.611,110.195 242.5,112C 241.833,112.333 241.167,112.667 240.5,113C 245.314,115.41 250.314,117.243 255.5,118.5C 255.5,121.5 255.5,124.5 255.5,127.5C 250.986,125.738 246.486,125.405 242,126.5C 241.517,125.552 241.351,124.552 241.5,123.5C 239.278,123.822 237.444,123.155 236,121.5C 235.302,118.996 234.469,116.663 233.5,114.5C 232.952,111.916 231.285,110.916 228.5,111.5C 228.662,113.527 228.495,115.527 228,117.5C 226.506,118.747 225.006,118.747 223.5,117.5C 223.833,116.833 224.167,116.167 224.5,115.5C 222.97,113.774 221.97,111.774 221.5,109.5C 221.453,107.962 222.12,106.962 223.5,106.5C 224.451,105.081 224.784,103.415 224.5,101.5 Z"/></g>
<g><path style="opacity:1" fill="#8a6b6a" d="M 11.5,113.5 C 15.0256,116.094 18.6923,118.427 22.5,120.5C 24.5496,122.547 26.883,124.214 29.5,125.5C 29.5,126.833 28.8333,127.5 27.5,127.5C 24.5242,124.698 21.3575,122.031 18,119.5C 17.6012,119.728 17.4346,120.062 17.5,120.5C 16.5275,118.861 15.1942,117.527 13.5,116.5C 12.0937,116.027 11.427,115.027 11.5,113.5 Z"/></g>
<g><path style="opacity:1" fill="#988e86" d="M 32.5,114.5 C 34.7772,115.449 36.7772,116.782 38.5,118.5C 37.5655,119.568 37.2322,120.901 37.5,122.5C 35.6583,120.81 34.325,118.81 33.5,116.5C 33.1667,115.833 32.8333,115.167 32.5,114.5 Z"/></g>
<g><path style="opacity:1" fill="#46473b" d="M 30.5,112.5 C 31.5,112.833 32.1667,113.5 32.5,114.5C 32.8333,115.167 33.1667,115.833 33.5,116.5C 35.0348,123.779 36.3681,131.112 37.5,138.5C 35.1963,134.216 33.6963,129.55 33,124.5C 32.3848,122.884 31.3848,121.551 30,120.5C 29.5702,117.808 29.7369,115.141 30.5,112.5 Z"/></g>
<g><path style="opacity:1" fill="#4f3023" d="M 234.5,122.5 C 235.5,122.833 236.167,123.5 236.5,124.5C 236.499,128.945 234.499,130.278 230.5,128.5C 227.626,130.197 224.626,131.697 221.5,133C 218.167,133.333 214.833,133.667 211.5,134C 209.694,134.81 208.194,135.976 207,137.5C 205.989,136.944 205.156,136.278 204.5,135.5C 203.291,133.182 201.957,130.849 200.5,128.5C 200.343,127.127 200.51,125.793 201,124.5C 202.509,126.919 204.675,127.919 207.5,127.5C 207.739,125.533 207.406,123.699 206.5,122C 207.667,121.5 208.5,120.667 209,119.5C 209.196,121.286 210.029,122.619 211.5,123.5C 213.021,123.12 214.687,122.954 216.5,123C 217.646,122.355 218.646,121.522 219.5,120.5C 224.559,120.376 229.559,121.042 234.5,122.5 Z"/></g>
<g><path style="opacity:1" fill="#cbcecc" d="M 45.5,120.5 C 49.1169,123.064 51.7836,126.397 53.5,130.5C 53.6716,131.492 53.3382,132.158 52.5,132.5C 51.1667,130.833 49.8333,129.167 48.5,127.5C 46.1203,124.119 43.1203,121.453 39.5,119.5C 39.5,118.833 39.1667,118.5 38.5,118.5C 36.7772,116.782 34.7772,115.449 32.5,114.5C 32.1667,113.5 31.5,112.833 30.5,112.5C 29.8333,112.5 29.5,112.167 29.5,111.5C 28.365,110.526 27.365,109.359 26.5,108C 27,107.5 27.5,107 28,106.5C 33.9966,111 39.8299,115.667 45.5,120.5 Z"/></g>
<g><path style="opacity:1" fill="#544838" d="M 224.5,101.5 C 224.784,103.415 224.451,105.081 223.5,106.5C 223.5,105.167 223.5,103.833 223.5,102.5C 221.833,102.5 220.167,102.5 218.5,102.5C 218.863,104.911 217.863,106.411 215.5,107C 210.905,107.667 206.239,108.167 201.5,108.5C 199.572,111.357 197.905,114.357 196.5,117.5C 195.835,119.369 195.169,121.369 194.5,123.5C 193.167,122.833 192.167,121.833 191.5,120.5C 189.604,119.534 187.604,119.201 185.5,119.5C 184.72,122.101 183.054,124.101 180.5,125.5C 179.377,124.456 178.044,123.79 176.5,123.5C 173.49,124.273 170.823,125.606 168.5,127.5C 165.833,128.833 165.833,130.167 168.5,131.5C 163.398,131.925 158.398,132.925 153.5,134.5C 153.784,132.585 153.451,130.919 152.5,129.5C 150.143,129.337 147.81,129.503 145.5,130C 141.191,134.144 136.191,135.311 130.5,133.5C 130.5,133.167 130.5,132.833 130.5,132.5C 131.931,132.119 132.764,131.119 133,129.5C 133.333,126.167 133.667,122.833 134,119.5C 134.308,118.692 134.808,118.025 135.5,117.5C 136.631,118.751 137.964,119.751 139.5,120.5C 140.986,120.103 142.486,119.77 144,119.5C 147.884,120.543 151.55,121.876 155,123.5C 156.388,122.446 157.888,122.28 159.5,123C 162.53,125.606 165.696,125.439 169,122.5C 169.167,121.667 169.333,120.833 169.5,120C 166.62,117.132 166.953,114.965 170.5,113.5C 172.151,115.124 174.151,116.457 176.5,117.5C 177.803,116.282 178.803,116.615 179.5,118.5C 182.398,117.437 184.898,115.77 187,113.5C 189.333,112.833 191.667,112.167 194,111.5C 195.853,109.315 198.02,107.482 200.5,106C 205.823,105.501 211.156,105.334 216.5,105.5C 216.33,104.178 216.663,103.011 217.5,102C 219.81,101.503 222.143,101.337 224.5,101.5 Z"/></g>
<g><path style="opacity:1" fill="#c3e5ec" d="M 128.5,116.5 C 130.285,116.926 131.285,118.092 131.5,120C 130.622,121.8 129.955,123.633 129.5,125.5C 125.51,125.001 121.51,124.501 117.5,124C 114.367,123.089 113.367,121.256 114.5,118.5C 116.884,117.989 118.884,116.989 120.5,115.5C 121.1,114.1 122.1,113.1 123.5,112.5C 123.783,113.289 124.283,113.956 125,114.5C 124.874,109.316 126.041,108.65 128.5,112.5C 125.982,114.156 125.982,115.489 128.5,116.5 Z"/></g>
<g><path style="opacity:1" fill="#a5b8aa" d="M -0.5,110.5 C 2.93778,112.759 6.27111,115.259 9.5,118C 11.4628,118.844 12.7961,118.344 13.5,116.5C 15.1942,117.527 16.5275,118.861 17.5,120.5C 17.5,120.833 17.5,121.167 17.5,121.5C 17.7135,123.144 17.3802,124.644 16.5,126C 17.9448,127.71 18.7782,129.544 19,131.5C 12.9043,124.898 6.40429,118.898 -0.5,113.5C -0.5,112.5 -0.5,111.5 -0.5,110.5 Z"/></g>
<g><path style="opacity:1" fill="#a5b7b3" d="M 120.5,115.5 C 118.884,116.989 116.884,117.989 114.5,118.5C 113.367,121.256 114.367,123.089 117.5,124C 121.51,124.501 125.51,125.001 129.5,125.5C 129.955,123.633 130.622,121.8 131.5,120C 131.285,118.092 130.285,116.926 128.5,116.5C 129.806,115.533 130.473,114.199 130.5,112.5C 131.222,112.918 131.722,113.584 132,114.5C 132.733,119.885 132.567,125.218 131.5,130.5C 130.596,129.791 130.263,128.791 130.5,127.5C 125.01,127.268 119.676,126.268 114.5,124.5C 113.504,124.586 112.671,124.252 112,123.5C 110.55,121.243 109.383,118.91 108.5,116.5C 111.792,116.88 114.125,115.547 115.5,112.5C 116.421,114.756 118.088,115.756 120.5,115.5 Z"/></g>
<g><path style="opacity:1" fill="#312a26" d="M 102.5,107.5 C 104.044,107.703 105.378,108.37 106.5,109.5C 107.107,109.376 107.44,109.043 107.5,108.5C 108.167,108.5 108.5,108.833 108.5,109.5C 107.713,111.104 106.38,111.771 104.5,111.5C 103.931,115.329 104.598,118.663 106.5,121.5C 107.109,125.385 108.776,128.718 111.5,131.5C 109.278,131.822 107.444,131.155 106,129.5C 103.541,123.659 101.708,117.659 100.5,111.5C 99.5,111.5 98.5,111.5 97.5,111.5C 97.5,110.5 97.5,109.5 97.5,108.5C 96.448,108.649 95.448,108.483 94.5,108C 97.146,107.503 99.8127,107.336 102.5,107.5 Z"/></g>
<g><path style="opacity:1" fill="#6d756a" d="M 108.5,116.5 C 109.383,118.91 110.55,121.243 112,123.5C 112.671,124.252 113.504,124.586 114.5,124.5C 115.625,126.129 116.959,127.629 118.5,129C 122.211,129.175 125.878,129.675 129.5,130.5C 128.995,131.919 127.995,132.585 126.5,132.5C 123.401,131.135 120.068,130.135 116.5,129.5C 114.65,127.428 112.317,126.095 109.5,125.5C 108.678,123.861 108.011,122.195 107.5,120.5C 107.232,118.901 107.566,117.568 108.5,116.5 Z"/></g>
<g><path style="opacity:1" fill="#502f27" d="M 76.5,106.5 C 78.153,106.66 79.4863,107.326 80.5,108.5C 80.0618,108.435 79.7284,108.601 79.5,109C 82.2353,119.671 79.2353,128.505 70.5,135.5C 69.52,138.086 69.1866,140.753 69.5,143.5C 63.8333,143.5 58.1667,143.5 52.5,143.5C 52.8676,139.956 51.8676,136.956 49.5,134.5C 47.4554,132.304 47.1221,129.97 48.5,127.5C 49.8333,129.167 51.1667,130.833 52.5,132.5C 54.6029,135.72 56.9362,138.72 59.5,141.5C 60.6009,142.598 61.9343,142.765 63.5,142C 65.2318,140.028 66.5652,137.861 67.5,135.5C 75.4136,127.344 78.4136,117.677 76.5,106.5 Z"/></g>
<g><path style="opacity:1" fill="#4c4843" d="M 107.5,120.5 C 108.011,122.195 108.678,123.861 109.5,125.5C 112.317,126.095 114.65,127.428 116.5,129.5C 120.068,130.135 123.401,131.135 126.5,132.5C 123.619,134.68 120.286,135.68 116.5,135.5C 114.833,134.167 113.167,132.833 111.5,131.5C 108.776,128.718 107.109,125.385 106.5,121.5C 106.5,120.833 106.833,120.5 107.5,120.5 Z"/></g>
<g><path style="opacity:1" fill="#584433" d="M 196.5,117.5 C 196.5,119.833 196.5,122.167 196.5,124.5C 195,126.179 193.167,127.512 191,128.5C 190.727,130.329 189.893,131.829 188.5,133C 183.3,133.364 177.967,134.197 172.5,135.5C 170.097,135.191 167.763,135.024 165.5,135C 165.833,135.333 166.167,135.667 166.5,136C 163.205,138.434 159.538,140.101 155.5,141C 157.315,141.757 158.981,142.59 160.5,143.5C 156.167,143.5 151.833,143.5 147.5,143.5C 142.948,138.312 144.281,135.312 151.5,134.5C 152.452,132.955 152.785,131.288 152.5,129.5C 153.451,130.919 153.784,132.585 153.5,134.5C 158.398,132.925 163.398,131.925 168.5,131.5C 172.56,132.152 174.56,130.485 174.5,126.5C 172.435,126.517 170.435,126.85 168.5,127.5C 170.823,125.606 173.49,124.273 176.5,123.5C 178.044,123.79 179.377,124.456 180.5,125.5C 183.054,124.101 184.72,122.101 185.5,119.5C 187.604,119.201 189.604,119.534 191.5,120.5C 192.167,121.833 193.167,122.833 194.5,123.5C 195.169,121.369 195.835,119.369 196.5,117.5 Z"/></g>
<g><path style="opacity:1" fill="#859b84" d="M -0.5,113.5 C 6.40429,118.898 12.9043,124.898 19,131.5C 18.7782,129.544 17.9448,127.71 16.5,126C 17.3802,124.644 17.7135,123.144 17.5,121.5C 18.1667,121.5 18.5,121.833 18.5,122.5C 20.1774,125.701 21.6774,129.035 23,132.5C 23.4935,134.134 23.6602,135.801 23.5,137.5C 22.1316,135.221 20.2983,134.554 18,135.5C 12.7092,128.194 6.54256,121.861 -0.5,116.5C -0.5,115.5 -0.5,114.5 -0.5,113.5 Z"/></g>
<g><path style="opacity:1" fill="#3c1412" d="M 27.5,127.5 C 27.8212,129.048 28.8212,129.715 30.5,129.5C 31.4043,134.121 32.4043,138.787 33.5,143.5C 31.1667,143.5 28.8333,143.5 26.5,143.5C 26.092,135.452 23.4254,128.452 18.5,122.5C 18.5,121.833 18.1667,121.5 17.5,121.5C 17.5,121.167 17.5,120.833 17.5,120.5C 17.4346,120.062 17.6012,119.728 18,119.5C 21.3575,122.031 24.5242,124.698 27.5,127.5 Z"/></g>
<g><path style="opacity:1" fill="#432925" d="M 168.5,131.5 C 165.833,130.167 165.833,128.833 168.5,127.5C 170.435,126.85 172.435,126.517 174.5,126.5C 174.56,130.485 172.56,132.152 168.5,131.5 Z"/></g>
<g><path style="opacity:1" fill="#583222" d="M 236.5,124.5 C 237.167,124.5 237.833,124.5 238.5,124.5C 238.665,128.182 238.499,131.848 238,135.5C 236.659,138.022 235.826,140.689 235.5,143.5C 223.833,143.5 212.167,143.5 200.5,143.5C 202.358,141.117 203.692,138.45 204.5,135.5C 205.156,136.278 205.989,136.944 207,137.5C 208.194,135.976 209.694,134.81 211.5,134C 214.833,133.667 218.167,133.333 221.5,133C 224.626,131.697 227.626,130.197 230.5,128.5C 234.499,130.278 236.499,128.945 236.5,124.5 Z"/></g>
<g><path style="opacity:1" fill="#7f8783" d="M 114.5,124.5 C 119.676,126.268 125.01,127.268 130.5,127.5C 130.263,128.791 130.596,129.791 131.5,130.5C 131.167,131.167 130.833,131.833 130.5,132.5C 130.5,132.833 130.5,133.167 130.5,133.5C 129.833,135.167 129.167,136.833 128.5,138.5C 128.741,135.001 127.908,134.668 126,137.5C 125.505,139.473 125.338,141.473 125.5,143.5C 125.167,143.5 124.833,143.5 124.5,143.5C 124.5,141.167 124.5,138.833 124.5,136.5C 121.545,137.159 118.545,137.492 115.5,137.5C 114.561,136.673 114.895,136.006 116.5,135.5C 120.286,135.68 123.619,134.68 126.5,132.5C 127.995,132.585 128.995,131.919 129.5,130.5C 125.878,129.675 122.211,129.175 118.5,129C 116.959,127.629 115.625,126.129 114.5,124.5 Z"/></g>
<g><path style="opacity:1" fill="#3e2721" d="M 29.5,111.5 C 29.5,112.167 29.8333,112.5 30.5,112.5C 29.7369,115.141 29.5702,117.808 30,120.5C 31.3848,121.551 32.3848,122.884 33,124.5C 33.6963,129.55 35.1963,134.216 37.5,138.5C 38.9313,139.78 39.5979,141.447 39.5,143.5C 37.5,143.5 35.5,143.5 33.5,143.5C 32.4043,138.787 31.4043,134.121 30.5,129.5C 28.8212,129.715 27.8212,129.048 27.5,127.5C 28.8333,127.5 29.5,126.833 29.5,125.5C 28.6361,120.545 26.6361,116.211 23.5,112.5C 23.811,111.522 24.4777,110.855 25.5,110.5C 26.7276,112.176 28.0609,112.509 29.5,111.5 Z"/></g>
<g><path style="opacity:1" fill="#6a554b" d="M 38.5,118.5 C 39.1667,118.5 39.5,118.833 39.5,119.5C 40.3909,121.609 41.5576,123.609 43,125.5C 43.49,126.793 43.6567,128.127 43.5,129.5C 42.7677,128.192 41.9344,126.858 41,125.5C 41.2076,131.668 42.3742,137.668 44.5,143.5C 43.5,143.5 42.5,143.5 41.5,143.5C 40.1685,136.553 38.8351,129.553 37.5,122.5C 37.2322,120.901 37.5655,119.568 38.5,118.5 Z"/></g>
<g><path style="opacity:1" fill="#758b76" d="M 39.5,119.5 C 43.1203,121.453 46.1203,124.119 48.5,127.5C 47.1221,129.97 47.4554,132.304 49.5,134.5C 49.2865,136.144 49.6198,137.644 50.5,139C 48.9176,138.807 47.5843,137.974 46.5,136.5C 45.7362,133.982 44.7362,131.649 43.5,129.5C 43.6567,128.127 43.49,126.793 43,125.5C 41.5576,123.609 40.3909,121.609 39.5,119.5 Z"/></g>
<g><path style="opacity:1" fill="#341413" d="M 80.5,108.5 C 81.4916,108.328 82.1583,108.662 82.5,109.5C 83.5769,115.51 83.7435,121.51 83,127.5C 83.4224,125.574 84.5891,124.574 86.5,124.5C 85.4045,126.358 84.0712,128.025 82.5,129.5C 81.3483,132.106 81.1816,134.773 82,137.5C 82.6891,138.357 83.5224,139.023 84.5,139.5C 86.7016,138.22 88.8683,138.22 91,139.5C 92.0391,138.29 93.2058,137.29 94.5,136.5C 95.8221,136.67 96.9887,136.337 98,135.5C 101.135,142.358 105.302,143.025 110.5,137.5C 112.071,138.309 113.738,138.643 115.5,138.5C 115.608,140.514 114.942,142.18 113.5,143.5C 98.8333,143.5 84.1667,143.5 69.5,143.5C 69.1866,140.753 69.52,138.086 70.5,135.5C 79.2353,128.505 82.2353,119.671 79.5,109C 79.7284,108.601 80.0618,108.435 80.5,108.5 Z"/></g>
<g><path style="opacity:1" fill="#3c2525" d="M 86.5,124.5 C 89.3126,125.446 90.646,127.446 90.5,130.5C 97.256,129.855 98.5893,131.855 94.5,136.5C 93.2058,137.29 92.0391,138.29 91,139.5C 88.8683,138.22 86.7016,138.22 84.5,139.5C 83.5224,139.023 82.6891,138.357 82,137.5C 81.1816,134.773 81.3483,132.106 82.5,129.5C 84.0712,128.025 85.4045,126.358 86.5,124.5 Z"/></g>
<g><path style="opacity:1" fill="#221112" d="M 82.5,109.5 C 85.1272,110.092 87.7938,110.425 90.5,110.5C 92.6074,111.468 94.9407,111.802 97.5,111.5C 98.5,111.5 99.5,111.5 100.5,111.5C 101.708,117.659 103.541,123.659 106,129.5C 107.444,131.155 109.278,131.822 111.5,131.5C 113.167,132.833 114.833,134.167 116.5,135.5C 114.895,136.006 114.561,136.673 115.5,137.5C 115.5,137.833 115.5,138.167 115.5,138.5C 113.738,138.643 112.071,138.309 110.5,137.5C 105.302,143.025 101.135,142.358 98,135.5C 96.9887,136.337 95.8221,136.67 94.5,136.5C 98.5893,131.855 97.256,129.855 90.5,130.5C 90.646,127.446 89.3126,125.446 86.5,124.5C 84.5891,124.574 83.4224,125.574 83,127.5C 83.7435,121.51 83.5769,115.51 82.5,109.5 Z"/></g>
<g><path style="opacity:1" fill="#5c402d" d="M 196.5,124.5 C 197.326,126.264 198.659,127.598 200.5,128.5C 201.957,130.849 203.291,133.182 204.5,135.5C 203.692,138.45 202.358,141.117 200.5,143.5C 187.167,143.5 173.833,143.5 160.5,143.5C 158.981,142.59 157.315,141.757 155.5,141C 159.538,140.101 163.205,138.434 166.5,136C 166.167,135.667 165.833,135.333 165.5,135C 167.763,135.024 170.097,135.191 172.5,135.5C 177.967,134.197 183.3,133.364 188.5,133C 189.893,131.829 190.727,130.329 191,128.5C 193.167,127.512 195,126.179 196.5,124.5 Z"/></g>
<g><path style="opacity:1" fill="#6f523d" d="M 233.5,114.5 C 234.469,116.663 235.302,118.996 236,121.5C 237.444,123.155 239.278,123.822 241.5,123.5C 241.351,124.552 241.517,125.552 242,126.5C 246.486,125.405 250.986,125.738 255.5,127.5C 255.5,130.833 255.5,134.167 255.5,137.5C 250.167,137.5 244.833,137.5 239.5,137.5C 239.818,132.968 239.485,128.634 238.5,124.5C 237.833,124.5 237.167,124.5 236.5,124.5C 236.167,123.5 235.5,122.833 234.5,122.5C 233.908,119.873 233.575,117.206 233.5,114.5 Z"/></g>
<g><path style="opacity:1" fill="#463327" d="M 152.5,129.5 C 152.785,131.288 152.452,132.955 151.5,134.5C 144.281,135.312 142.948,138.312 147.5,143.5C 140.833,143.5 134.167,143.5 127.5,143.5C 128.038,141.883 128.371,140.216 128.5,138.5C 129.167,136.833 129.833,135.167 130.5,133.5C 136.191,135.311 141.191,134.144 145.5,130C 147.81,129.503 150.143,129.337 152.5,129.5 Z"/></g>
<g><path style="opacity:1" fill="#684330" d="M 238.5,124.5 C 239.485,128.634 239.818,132.968 239.5,137.5C 244.833,137.5 250.167,137.5 255.5,137.5C 255.5,139.5 255.5,141.5 255.5,143.5C 248.833,143.5 242.167,143.5 235.5,143.5C 235.826,140.689 236.659,138.022 238,135.5C 238.499,131.848 238.665,128.182 238.5,124.5 Z"/></g>
<g><path style="opacity:1" fill="#411f17" d="M 43.5,129.5 C 44.7362,131.649 45.7362,133.982 46.5,136.5C 46.8782,138.921 47.5448,141.254 48.5,143.5C 47.1667,143.5 45.8333,143.5 44.5,143.5C 42.3742,137.668 41.2076,131.668 41,125.5C 41.9344,126.858 42.7677,128.192 43.5,129.5 Z"/></g>
<g><path style="opacity:1" fill="#bec5c4" d="M 128.5,138.5 C 128.371,140.216 128.038,141.883 127.5,143.5C 126.833,143.5 126.167,143.5 125.5,143.5C 125.338,141.473 125.505,139.473 126,137.5C 127.908,134.668 128.741,135.001 128.5,138.5 Z"/></g>
<g><path style="opacity:1" fill="#81c09b" d="M 33.5,116.5 C 34.325,118.81 35.6583,120.81 37.5,122.5C 38.8351,129.553 40.1685,136.553 41.5,143.5C 40.8333,143.5 40.1667,143.5 39.5,143.5C 39.5979,141.447 38.9313,139.78 37.5,138.5C 36.3681,131.112 35.0348,123.779 33.5,116.5 Z"/></g>
<g><path style="opacity:1" fill="#978581" d="M 53.5,130.5 C 54.9758,132.769 56.4758,135.102 58,137.5C 58.6708,138.252 59.5041,138.586 60.5,138.5C 59.8902,139.391 59.5569,140.391 59.5,141.5C 56.9362,138.72 54.6029,135.72 52.5,132.5C 53.3382,132.158 53.6716,131.492 53.5,130.5 Z"/></g>
<g><path style="opacity:1" fill="#d0cecb" d="M 67.5,135.5 C 66.5652,137.861 65.2318,140.028 63.5,142C 61.9343,142.765 60.6009,142.598 59.5,141.5C 59.5569,140.391 59.8902,139.391 60.5,138.5C 61.5,137.833 62.5,137.167 63.5,136.5C 64.8333,136.167 66.1667,135.833 67.5,135.5 Z"/></g>
<g><path style="opacity:1" fill="#779577" d="M -0.5,116.5 C 6.54256,121.861 12.7092,128.194 18,135.5C 20.2983,134.554 22.1316,135.221 23.5,137.5C 23.3253,139.621 23.6586,141.621 24.5,143.5C 16.1667,143.5 7.83333,143.5 -0.5,143.5C -0.5,134.5 -0.5,125.5 -0.5,116.5 Z"/></g>
<g><path style="opacity:1" fill="#4b302a" d="M 124.5,143.5 C 120.833,143.5 117.167,143.5 113.5,143.5C 114.942,142.18 115.608,140.514 115.5,138.5C 115.5,138.167 115.5,137.833 115.5,137.5C 118.545,137.492 121.545,137.159 124.5,136.5C 124.5,138.833 124.5,141.167 124.5,143.5 Z"/></g>
<g><path style="opacity:1" fill="#5f634f" d="M 49.5,134.5 C 51.8676,136.956 52.8676,139.956 52.5,143.5C 51.1667,143.5 49.8333,143.5 48.5,143.5C 47.5448,141.254 46.8782,138.921 46.5,136.5C 47.5843,137.974 48.9176,138.807 50.5,139C 49.6198,137.644 49.2865,136.144 49.5,134.5 Z"/></g>
<g><path style="opacity:1" fill="#605e49" d="M 18.5,122.5 C 23.4254,128.452 26.092,135.452 26.5,143.5C 25.8333,143.5 25.1667,143.5 24.5,143.5C 23.6586,141.621 23.3253,139.621 23.5,137.5C 23.6602,135.801 23.4935,134.134 23,132.5C 21.6774,129.035 20.1774,125.701 18.5,122.5 Z"/></g>
</svg>
