<?xml version="1.0" encoding="UTF-8"?>
<!DOCTYPE svg PUBLIC "-//W3C//DTD SVG 1.1//EN" "http://www.w3.org/Graphics/SVG/1.1/DTD/svg11.dtd">
<svg xmlns="http://www.w3.org/2000/svg" version="1.1" width="256px" height="144px" style="shape-rendering:geometricPrecision; text-rendering:geometricPrecision; image-rendering:optimizeQuality; fill-rule:evenodd; clip-rule:evenodd" xmlns:xlink="http://www.w3.org/1999/xlink">
<g><path style="opacity:1" fill="#302f4a" d="M 85.5,-0.5 C 92.1667,-0.5 98.8333,-0.5 105.5,-0.5C 103.633,3.11199 101.966,6.77866 100.5,10.5C 97.7442,12.2038 94.7442,13.5371 91.5,14.5C 86.8781,14.1561 82.5448,14.8227 78.5,16.5C 75.5738,17.6976 72.5738,18.6976 69.5,19.5C 70.8333,18.0665 72.3333,16.7332 74,15.5C 73.737,11.5226 75.5703,8.52263 79.5,6.5C 81.5,5.16667 83.1667,3.5 84.5,1.5C 85.3382,1.15829 85.6716,0.491622 85.5,-0.5 Z"/></g>
<g><path style="opacity:1" fill="#352435" d="M 159.5,-0.5 C 174.833,-0.5 190.167,-0.5 205.5,-0.5C 206.209,0.403972 207.209,0.737305 208.5,0.5C 208.649,1.55198 208.483,2.55198 208,3.5C 206.378,4.09891 204.878,4.76558 203.5,5.5C 202.167,6.5 200.833,7.5 199.5,8.5C 196.215,8.21036 193.215,8.87703 190.5,10.5C 188.242,10.2249 187.908,9.22494 189.5,7.5C 188.147,6.4763 187.48,5.14297 187.5,3.5C 187.953,2.54163 188.619,1.7083 189.5,1C 187.19,0.503354 184.857,0.336688 182.5,0.5C 174.622,0.0267336 166.956,0.6934 159.5,2.5C 159.5,1.5 159.5,0.5 159.5,-0.5 Z"/></g>
<g><path style="opacity:1" fill="#cfbbbc" d="M 213.5,-0.5 C 220.167,-0.5 226.833,-0.5 233.5,-0.5C 233.389,0.117425 233.056,0.617425 232.5,1C 228.11,1.7722 223.777,1.60553 219.5,0.5C 217.475,2.56439 215.142,3.89772 212.5,4.5C 211.624,4.63088 210.957,4.29755 210.5,3.5C 211.524,2.14819 212.524,0.814858 213.5,-0.5 Z"/></g>
<g><path style="opacity:1" fill="#757481" d="M 240.5,-0.5 C 245.5,-0.5 250.5,-0.5 255.5,-0.5C 255.5,1.83333 255.5,4.16667 255.5,6.5C 253.18,4.77386 250.513,4.1072 247.5,4.5C 245.283,2.92006 242.616,1.92006 239.5,1.5C 239.863,0.816537 240.196,0.14987 240.5,-0.5 Z"/></g>
<g><path style="opacity:1" fill="#676e7a" d="M 52.5,-0.5 C 63.5,-0.5 74.5,-0.5 85.5,-0.5C 85.6716,0.491622 85.3382,1.15829 84.5,1.5C 79.3497,0.349256 74.0164,0.18259 68.5,1C 67.2695,2.40476 65.9361,3.57143 64.5,4.5C 60.6678,8.16382 56.6678,11.6638 52.5,15C 42.5322,16.173 33.1989,14.3397 24.5,9.5C 28.3759,6.20144 32.7092,5.53477 37.5,7.5C 41.5818,7.29794 45.5818,6.63127 49.5,5.5C 50.9856,3.6984 51.9856,1.6984 52.5,-0.5 Z"/></g>
<g><path style="opacity:1" fill="#a1736d" d="M 136.5,3.5 C 137.5,3.5 138.5,3.5 139.5,3.5C 139.51,7.50341 137.843,10.5034 134.5,12.5C 132.833,11.8333 131.167,11.1667 129.5,10.5C 128.5,10.5 127.5,10.5 126.5,10.5C 123.359,9.67871 120.025,9.17871 116.5,9C 122.865,6.09318 129.532,4.25985 136.5,3.5 Z"/></g>
<g><path style="opacity:1" fill="#41394b" d="M 205.5,-0.5 C 208.167,-0.5 210.833,-0.5 213.5,-0.5C 212.524,0.814858 211.524,2.14819 210.5,3.5C 210.957,4.29755 211.624,4.63088 212.5,4.5C 214.179,4.89233 215.846,5.39233 217.5,6C 215.689,7.04067 215.355,8.20734 216.5,9.5C 216.5,10.8333 215.833,11.5 214.5,11.5C 212.642,10.4045 210.975,9.0712 209.5,7.5C 207.505,6.70549 205.505,6.03883 203.5,5.5C 204.878,4.76558 206.378,4.09891 208,3.5C 208.483,2.55198 208.649,1.55198 208.5,0.5C 207.209,0.737305 206.209,0.403972 205.5,-0.5 Z"/></g>
<g><path style="opacity:1" fill="#511f32" d="M 182.5,0.5 C 182.5,1.5 182.5,2.5 182.5,3.5C 181.448,3.35055 180.448,3.51722 179.5,4C 178.167,6.66667 176.167,8.66667 173.5,10C 165.687,11.7388 157.854,13.5722 150,15.5C 150.763,13.6087 151.597,11.6087 152.5,9.5C 152.987,8.52656 153.487,7.52656 154,6.5C 156.167,5.51195 158,4.17861 159.5,2.5C 166.956,0.6934 174.622,0.0267336 182.5,0.5 Z"/></g>
<g><path style="opacity:1" fill="#b59c9d" d="M 136.5,3.5 C 129.532,4.25985 122.865,6.09318 116.5,9C 120.025,9.17871 123.359,9.67871 126.5,10.5C 121.489,10.6659 116.489,10.4993 111.5,10C 112.888,9.11066 112.722,8.61066 111,8.5C 107.505,10.7777 103.672,12.2777 99.5,13C 100.624,13.2492 101.624,13.7492 102.5,14.5C 98.8927,15.4892 95.226,15.8226 91.5,15.5C 91.5,15.1667 91.5,14.8333 91.5,14.5C 94.7442,13.5371 97.7442,12.2038 100.5,10.5C 109.58,6.9819 118.913,4.14856 128.5,2C 131.538,1.11501 134.205,1.61501 136.5,3.5 Z"/></g>
<g><path style="opacity:1" fill="#848892" d="M 84.5,1.5 C 83.1667,3.5 81.5,5.16667 79.5,6.5C 79.6309,5.62356 79.2975,4.95689 78.5,4.5C 72.5151,8.18109 68.1818,13.1811 65.5,19.5C 65.38,20.5862 64.7133,21.2528 63.5,21.5C 58.0458,23.0289 52.7125,24.8622 47.5,27C 51.8206,27.499 56.1539,27.6657 60.5,27.5C 53.6866,28.4912 46.6866,28.8245 39.5,28.5C 37.4727,28.6621 35.4727,28.4955 33.5,28C 45.2414,22.9624 56.2414,16.629 66.5,9C 64.8934,7.95101 64.2267,6.45101 64.5,4.5C 65.9361,3.57143 67.2695,2.40476 68.5,1C 74.0164,0.18259 79.3497,0.349256 84.5,1.5 Z"/></g>
<g><path style="opacity:1" fill="#97959f" d="M 233.5,-0.5 C 235.833,-0.5 238.167,-0.5 240.5,-0.5C 240.196,0.14987 239.863,0.816537 239.5,1.5C 242.616,1.92006 245.283,2.92006 247.5,4.5C 246.391,4.55688 245.391,4.89022 244.5,5.5C 244.167,5.5 243.833,5.5 243.5,5.5C 239.816,7.67036 235.816,8.67036 231.5,8.5C 231.5,9.5 231.5,10.5 231.5,11.5C 228.14,11.6159 224.807,11.9492 221.5,12.5C 220.341,10.7497 218.674,9.74973 216.5,9.5C 215.355,8.20734 215.689,7.04067 217.5,6C 215.846,5.39233 214.179,4.89233 212.5,4.5C 215.142,3.89772 217.475,2.56439 219.5,0.5C 223.777,1.60553 228.11,1.7722 232.5,1C 233.056,0.617425 233.389,0.117425 233.5,-0.5 Z"/></g>
<g><path style="opacity:1" fill="#55545c" d="M 216.5,9.5 C 218.674,9.74973 220.341,10.7497 221.5,12.5C 221.5,13.8333 221.5,15.1667 221.5,16.5C 218.883,15.2141 216.55,13.5475 214.5,11.5C 215.833,11.5 216.5,10.8333 216.5,9.5 Z"/></g>
<g><path style="opacity:1" fill="#777e8c" d="M -0.5,-0.5 C 17.1667,-0.5 34.8333,-0.5 52.5,-0.5C 51.9856,1.6984 50.9856,3.6984 49.5,5.5C 45.5818,6.63127 41.5818,7.29794 37.5,7.5C 32.7092,5.53477 28.3759,6.20144 24.5,9.5C 33.1989,14.3397 42.5322,16.173 52.5,15C 56.6678,11.6638 60.6678,8.16382 64.5,4.5C 64.2267,6.45101 64.8934,7.95101 66.5,9C 56.2414,16.629 45.2414,22.9624 33.5,28C 35.4727,28.4955 37.4727,28.6621 39.5,28.5C 38.0351,29.7368 36.3684,30.7368 34.5,31.5C 32.9783,32.4312 31.6449,33.5979 30.5,35C 30.5699,35.7648 30.9033,36.2648 31.5,36.5C 30.713,38.1042 29.3797,38.7709 27.5,38.5C 27.3379,40.5273 27.5045,42.5273 28,44.5C 30.41,47.3968 32.5767,50.3968 34.5,53.5C 33.2395,56.2578 32.4061,59.2578 32,62.5C 31.3333,63.1667 30.6667,63.8333 30,64.5C 27.3772,52.8554 25.0439,52.8554 23,64.5C 22.2917,63.6195 21.4584,62.9528 20.5,62.5C 19.1802,59.5587 17.8469,56.5587 16.5,53.5C 15.675,52.6143 14.675,52.281 13.5,52.5C 13.5,54.5 13.5,56.5 13.5,58.5C 9.83333,57.8333 6.16667,57.1667 2.5,56.5C 1.97439,54.7697 0.974395,53.4363 -0.5,52.5C -0.5,34.8333 -0.5,17.1667 -0.5,-0.5 Z"/></g>
<g><path style="opacity:1" fill="#c6c5c9" d="M 79.5,6.5 C 75.5703,8.52263 73.737,11.5226 74,15.5C 72.3333,16.7332 70.8333,18.0665 69.5,19.5C 68.1667,19.5 66.8333,19.5 65.5,19.5C 68.1818,13.1811 72.5151,8.18109 78.5,4.5C 79.2975,4.95689 79.6309,5.62356 79.5,6.5 Z"/></g>
<g><path style="opacity:1" fill="#2c2537" d="M 159.5,2.5 C 158,4.17861 156.167,5.51195 154,6.5C 153.487,7.52656 152.987,8.52656 152.5,9.5C 150.833,10.5 149.5,11.8333 148.5,13.5C 147.167,14.1667 146.167,15.1667 145.5,16.5C 143.95,17.4408 142.284,18.1075 140.5,18.5C 143.612,14.2143 146.945,10.0477 150.5,6C 153.361,4.36001 156.361,3.19334 159.5,2.5 Z"/></g>
<g><path style="opacity:1" fill="#81808a" d="M 243.5,5.5 C 242.072,8.94641 241.239,12.6131 241,16.5C 238.756,12.2775 237.59,12.6108 237.5,17.5C 236.178,17.33 235.011,17.6634 234,18.5C 232.231,21.7059 230.731,25.0392 229.5,28.5C 227.958,29.3007 226.292,29.634 224.5,29.5C 225.263,26.8589 225.43,24.1922 225,21.5C 222.842,20.511 221.675,18.8444 221.5,16.5C 221.5,15.1667 221.5,13.8333 221.5,12.5C 224.807,11.9492 228.14,11.6159 231.5,11.5C 231.5,10.5 231.5,9.5 231.5,8.5C 235.816,8.67036 239.816,7.67036 243.5,5.5 Z"/></g>
<g><path style="opacity:1" fill="#b68f8a" d="M 129.5,10.5 C 131.167,11.1667 132.833,11.8333 134.5,12.5C 132.365,14.0709 130.032,15.4043 127.5,16.5C 122.961,16.6782 118.461,16.3449 114,15.5C 111.725,15.2776 110.559,16.2776 110.5,18.5C 108.628,17.4886 106.628,16.6552 104.5,16C 104.833,15.6667 105.167,15.3333 105.5,15C 110.333,14.1254 115.166,13.292 120,12.5C 124.056,15.4568 127.222,14.7901 129.5,10.5 Z"/></g>
<g><path style="opacity:1" fill="#414158" d="M 153.5,-0.5 C 155.5,-0.5 157.5,-0.5 159.5,-0.5C 159.5,0.5 159.5,1.5 159.5,2.5C 156.361,3.19334 153.361,4.36001 150.5,6C 146.945,10.0477 143.612,14.2143 140.5,18.5C 137.943,20.0324 135.443,21.6991 133,23.5C 131.684,27.465 129.851,31.1317 127.5,34.5C 125.819,31.7972 124.153,29.1305 122.5,26.5C 122.5,26.1667 122.5,25.8333 122.5,25.5C 124.827,25.7529 126.827,25.0863 128.5,23.5C 135.537,14.1293 143.87,6.12935 153.5,-0.5 Z"/></g>
<g><path style="opacity:1" fill="#814e46" d="M 203.5,5.5 C 205.505,6.03883 207.505,6.70549 209.5,7.5C 210.975,9.0712 212.642,10.4045 214.5,11.5C 216.55,13.5475 218.883,15.2141 221.5,16.5C 221.675,18.8444 222.842,20.511 225,21.5C 225.43,24.1922 225.263,26.8589 224.5,29.5C 226.292,29.634 227.958,29.3007 229.5,28.5C 231.5,30.8333 233.5,33.1667 235.5,35.5C 237.753,39.8354 239.086,44.502 239.5,49.5C 238.732,48.7375 238.232,47.7375 238,46.5C 237.51,47.7932 237.343,49.1266 237.5,50.5C 234.833,50.5 232.167,50.5 229.5,50.5C 228.21,46.5876 226.377,42.9209 224,39.5C 223.51,38.2068 223.343,36.8734 223.5,35.5C 222.475,32.6192 220.975,29.9525 219,27.5C 214.381,24.713 210.215,21.3797 206.5,17.5C 203.349,13.2007 199.016,11.3673 193.5,12C 195.211,10.2243 197.211,9.05763 199.5,8.5C 200.833,7.5 202.167,6.5 203.5,5.5 Z"/></g>
<g><path style="opacity:1" fill="#d0b5b2" d="M 126.5,10.5 C 127.5,10.5 128.5,10.5 129.5,10.5C 127.222,14.7901 124.056,15.4568 120,12.5C 115.166,13.292 110.333,14.1254 105.5,15C 105.167,15.3333 104.833,15.6667 104.5,16C 106.628,16.6552 108.628,17.4886 110.5,18.5C 110.833,18.5 111.167,18.5 111.5,18.5C 111.53,19.4972 111.03,20.1639 110,20.5C 108.234,19.7665 106.401,19.4332 104.5,19.5C 101.692,18.0712 98.6916,17.4045 95.5,17.5C 91.6877,16.6762 87.6877,16.1762 83.5,16C 86.146,15.5026 88.8127,15.3359 91.5,15.5C 95.226,15.8226 98.8927,15.4892 102.5,14.5C 101.624,13.7492 100.624,13.2492 99.5,13C 103.672,12.2777 107.505,10.7777 111,8.5C 112.722,8.61066 112.888,9.11066 111.5,10C 116.489,10.4993 121.489,10.6659 126.5,10.5 Z"/></g>
<g><path style="opacity:1" fill="#92949d" d="M 105.5,-0.5 C 121.5,-0.5 137.5,-0.5 153.5,-0.5C 143.87,6.12935 135.537,14.1293 128.5,23.5C 126.827,25.0863 124.827,25.7529 122.5,25.5C 122.5,25.1667 122.5,24.8333 122.5,24.5C 124.985,22.3477 126.651,19.6811 127.5,16.5C 130.032,15.4043 132.365,14.0709 134.5,12.5C 137.843,10.5034 139.51,7.50341 139.5,3.5C 138.5,3.5 137.5,3.5 136.5,3.5C 134.205,1.61501 131.538,1.11501 128.5,2C 118.913,4.14856 109.58,6.9819 100.5,10.5C 101.966,6.77866 103.633,3.11199 105.5,-0.5 Z"/></g>
<g><path style="opacity:1" fill="#3a182a" d="M 182.5,0.5 C 184.857,0.336688 187.19,0.503354 189.5,1C 188.619,1.7083 187.953,2.54163 187.5,3.5C 185.429,4.89065 183.762,6.72398 182.5,9C 180.579,9.36029 178.912,10.1936 177.5,11.5C 178.428,12.7678 178.595,14.1011 178,15.5C 174.624,18.3826 171.124,21.0493 167.5,23.5C 167.189,22.5222 166.522,21.8555 165.5,21.5C 163.167,22.8333 160.833,24.1667 158.5,25.5C 157.833,24.1667 157.167,22.8333 156.5,21.5C 153.317,20.8105 150.817,19.1438 149,16.5C 148.517,15.552 148.351,14.552 148.5,13.5C 149.5,11.8333 150.833,10.5 152.5,9.5C 151.597,11.6087 150.763,13.6087 150,15.5C 157.854,13.5722 165.687,11.7388 173.5,10C 176.167,8.66667 178.167,6.66667 179.5,4C 180.448,3.51722 181.448,3.35055 182.5,3.5C 182.5,2.5 182.5,1.5 182.5,0.5 Z"/></g>
<g><path style="opacity:1" fill="#6e382d" d="M 206.5,17.5 C 210.215,21.3797 214.381,24.713 219,27.5C 220.975,29.9525 222.475,32.6192 223.5,35.5C 220.976,33.9851 218.31,32.6518 215.5,31.5C 212.975,27.1038 209.975,23.1038 206.5,19.5C 205.875,23.6435 206.542,27.6435 208.5,31.5C 208.869,34.3189 209.202,37.1523 209.5,40C 209.739,45.7545 207.072,47.7545 201.5,46C 198.215,45.1057 195.049,43.939 192,42.5C 191.292,43.3805 190.458,44.0472 189.5,44.5C 190.639,41.8377 190.806,39.171 190,36.5C 190.689,37.3567 191.522,38.0233 192.5,38.5C 193.172,35.0142 194.505,31.8475 196.5,29C 194.84,26.6712 193.173,24.3379 191.5,22C 190.813,20.8382 190.647,19.6716 191,18.5C 192.791,16.5403 194.957,15.207 197.5,14.5C 200.377,15.767 203.377,16.767 206.5,17.5 Z"/></g>
<g><path style="opacity:1" fill="#8e7d83" d="M 91.5,14.5 C 91.5,14.8333 91.5,15.1667 91.5,15.5C 88.8127,15.3359 86.146,15.5026 83.5,16C 87.6877,16.1762 91.6877,16.6762 95.5,17.5C 90.5,17.5 85.5,17.5 80.5,17.5C 80.1583,16.6618 79.4916,16.3284 78.5,16.5C 82.5448,14.8227 86.8781,14.1561 91.5,14.5 Z"/></g>
<g><path style="opacity:1" fill="#311716" d="M 80.5,17.5 C 85.5,17.5 90.5,17.5 95.5,17.5C 98.6916,17.4045 101.692,18.0712 104.5,19.5C 107.167,21.8333 109.833,24.1667 112.5,26.5C 112.315,29.4585 112.648,32.4585 113.5,35.5C 112.833,35.5 112.5,35.1667 112.5,34.5C 107.73,24.9278 99.8964,19.9278 89,19.5C 78.8581,21.7689 69.3581,25.6022 60.5,31C 57.5184,31.498 54.5184,31.6646 51.5,31.5C 45.7057,30.4654 40.0391,30.4654 34.5,31.5C 36.3684,30.7368 38.0351,29.7368 39.5,28.5C 46.6866,28.8245 53.6866,28.4912 60.5,27.5C 66.7594,23.6181 73.4261,20.2847 80.5,17.5 Z"/></g>
<g><path style="opacity:1" fill="#8c574f" d="M 127.5,16.5 C 126.651,19.6811 124.985,22.3477 122.5,24.5C 118.816,22.4717 115.15,20.4717 111.5,18.5C 111.167,18.5 110.833,18.5 110.5,18.5C 110.559,16.2776 111.725,15.2776 114,15.5C 118.461,16.3449 122.961,16.6782 127.5,16.5 Z"/></g>
<g><path style="opacity:1" fill="#784136" d="M 199.5,8.5 C 197.211,9.05763 195.211,10.2243 193.5,12C 199.016,11.3673 203.349,13.2007 206.5,17.5C 203.377,16.767 200.377,15.767 197.5,14.5C 194.957,15.207 192.791,16.5403 191,18.5C 190.647,19.6716 190.813,20.8382 191.5,22C 193.173,24.3379 194.84,26.6712 196.5,29C 194.505,31.8475 193.172,35.0142 192.5,38.5C 191.522,38.0233 190.689,37.3567 190,36.5C 190.806,39.171 190.639,41.8377 189.5,44.5C 188.985,46.8945 188.319,49.2278 187.5,51.5C 187.254,54.2933 187.087,57.2933 187,60.5C 185.543,58.3421 183.71,56.5088 181.5,55C 175.813,52.8234 170.48,50.1567 165.5,47C 164.556,44.2809 164.223,41.4475 164.5,38.5C 166.167,37.8333 167.833,37.1667 169.5,36.5C 168.833,37.8333 167.833,38.8333 166.5,39.5C 165.249,41.7246 165.582,43.8912 167.5,46C 170.669,46.8343 173.836,47.6676 177,48.5C 180.492,46.9406 183.159,47.9406 185,51.5C 187.182,46.566 186.349,42.2327 182.5,38.5C 181.921,35.6689 180.588,33.3356 178.5,31.5C 178.461,30.4168 178.127,29.4168 177.5,28.5C 178.311,27.7836 178.978,26.9503 179.5,26C 178.507,23.5472 178.34,21.0472 179,18.5C 182.991,15.9999 186.825,13.3333 190.5,10.5C 193.215,8.87703 196.215,8.21036 199.5,8.5 Z"/></g>
<g><path style="opacity:1" fill="#454752" d="M 247.5,4.5 C 250.513,4.1072 253.18,4.77386 255.5,6.5C 255.5,15.1667 255.5,23.8333 255.5,32.5C 253.858,30.9192 251.858,30.2525 249.5,30.5C 250.83,26.7969 250.664,23.1303 249,19.5C 247.622,21.2134 245.955,22.5467 244,23.5C 243.692,22.6919 243.192,22.0253 242.5,21.5C 241.719,22.7287 241.219,24.062 241,25.5C 239.951,26.5171 238.784,26.6838 237.5,26C 238.861,24.4157 239.528,22.5824 239.5,20.5C 240.822,20.67 241.989,20.3366 243,19.5C 243.29,17.0481 243.956,14.7148 245,12.5C 245.986,16.375 247.153,16.375 248.5,12.5C 249.689,11.5713 251.022,11.238 252.5,11.5C 252.558,7.29914 251.558,6.79914 249.5,10C 247.866,10.4935 246.199,10.6602 244.5,10.5C 244.5,8.83333 244.5,7.16667 244.5,5.5C 245.391,4.89022 246.391,4.55688 247.5,4.5 Z"/></g>
<g><path style="opacity:1" fill="#53545f" d="M 243.5,5.5 C 243.833,5.5 244.167,5.5 244.5,5.5C 244.5,7.16667 244.5,8.83333 244.5,10.5C 246.199,10.6602 247.866,10.4935 249.5,10C 251.558,6.79914 252.558,7.29914 252.5,11.5C 251.022,11.238 249.689,11.5713 248.5,12.5C 247.153,16.375 245.986,16.375 245,12.5C 243.956,14.7148 243.29,17.0481 243,19.5C 241.989,20.3366 240.822,20.67 239.5,20.5C 239.528,22.5824 238.861,24.4157 237.5,26C 238.784,26.6838 239.951,26.5171 241,25.5C 241.219,24.062 241.719,22.7287 242.5,21.5C 243.192,22.0253 243.692,22.6919 244,23.5C 245.955,22.5467 247.622,21.2134 249,19.5C 250.664,23.1303 250.83,26.7969 249.5,30.5C 251.858,30.2525 253.858,30.9192 255.5,32.5C 255.5,35.1667 255.5,37.8333 255.5,40.5C 254.566,41.5676 254.232,42.901 254.5,44.5C 250.452,44.6054 246.452,44.2721 242.5,43.5C 241.861,41.2396 240.694,39.2396 239,37.5C 238.184,36.1772 237.017,35.5106 235.5,35.5C 233.5,33.1667 231.5,30.8333 229.5,28.5C 230.731,25.0392 232.231,21.7059 234,18.5C 235.011,17.6634 236.178,17.33 237.5,17.5C 237.59,12.6108 238.756,12.2775 241,16.5C 241.239,12.6131 242.072,8.94641 243.5,5.5 Z"/></g>
<g><path style="opacity:1" fill="#2c242f" d="M 112.5,34.5 C 109.5,34.5 106.5,34.5 103.5,34.5C 101.954,34.2761 100.287,33.9427 98.5,33.5C 96.1093,30.435 96.1093,27.435 98.5,24.5C 94.8604,23.0405 91.5271,23.3739 88.5,25.5C 87.5041,25.4142 86.6708,25.7476 86,26.5C 84.7138,29.4055 83.7138,32.4055 83,35.5C 80.4944,33.1365 77.6611,31.4698 74.5,30.5C 71.6649,29.2138 68.8316,29.2138 66,30.5C 65.1451,33.6014 63.6451,36.2681 61.5,38.5C 62.1869,40.1772 62.8535,41.8439 63.5,43.5C 61.4352,43.5172 59.4352,43.8505 57.5,44.5C 54.3209,40.8246 50.6543,37.658 46.5,35C 43.4929,34.6987 40.4929,34.8654 37.5,35.5C 37.9175,34.7784 38.5842,34.2784 39.5,34C 43.1667,33.6667 46.8333,33.3333 50.5,33C 51.056,32.6174 51.3893,32.1174 51.5,31.5C 54.5184,31.6646 57.5184,31.498 60.5,31C 69.3581,25.6022 78.8581,21.7689 89,19.5C 99.8964,19.9278 107.73,24.9278 112.5,34.5 Z"/></g>
<g><path style="opacity:1" fill="#361c29" d="M 187.5,3.5 C 187.48,5.14297 188.147,6.4763 189.5,7.5C 187.908,9.22494 188.242,10.2249 190.5,10.5C 186.825,13.3333 182.991,15.9999 179,18.5C 178.34,21.0472 178.507,23.5472 179.5,26C 178.978,26.9503 178.311,27.7836 177.5,28.5C 178.127,29.4168 178.461,30.4168 178.5,31.5C 176.5,31.5 174.5,31.5 172.5,31.5C 172.727,33.9328 171.727,35.5994 169.5,36.5C 167.833,37.1667 166.167,37.8333 164.5,38.5C 164.38,37.4138 163.713,36.7472 162.5,36.5C 159.855,35.8924 157.188,35.3924 154.5,35C 154.833,34.6667 155.167,34.3333 155.5,34C 154.74,32.5589 154.074,31.0589 153.5,29.5C 156.187,28.5071 159.187,28.3404 162.5,29C 164.373,27.2962 166.04,25.4628 167.5,23.5C 171.124,21.0493 174.624,18.3826 178,15.5C 178.595,14.1011 178.428,12.7678 177.5,11.5C 178.912,10.1936 180.579,9.36029 182.5,9C 183.762,6.72398 185.429,4.89065 187.5,3.5 Z"/></g>
<g><path style="opacity:1" fill="#d2bab8" d="M 78.5,16.5 C 79.4916,16.3284 80.1583,16.6618 80.5,17.5C 73.4261,20.2847 66.7594,23.6181 60.5,27.5C 56.1539,27.6657 51.8206,27.499 47.5,27C 52.7125,24.8622 58.0458,23.0289 63.5,21.5C 64.7133,21.2528 65.38,20.5862 65.5,19.5C 66.8333,19.5 68.1667,19.5 69.5,19.5C 72.5738,18.6976 75.5738,17.6976 78.5,16.5 Z"/></g>
<g><path style="opacity:1" fill="#a37873" d="M 111.5,18.5 C 115.15,20.4717 118.816,22.4717 122.5,24.5C 122.5,24.8333 122.5,25.1667 122.5,25.5C 122.5,25.8333 122.5,26.1667 122.5,26.5C 119.535,27.7335 116.535,27.7335 113.5,26.5C 113.167,26.5 112.833,26.5 112.5,26.5C 109.833,24.1667 107.167,21.8333 104.5,19.5C 106.401,19.4332 108.234,19.7665 110,20.5C 111.03,20.1639 111.53,19.4972 111.5,18.5 Z"/></g>
<g><path style="opacity:1" fill="#191017" d="M 145.5,16.5 C 146.653,17.3132 146.653,18.3132 145.5,19.5C 142.288,21.3633 140.288,24.03 139.5,27.5C 141.857,27.3367 144.19,27.5034 146.5,28C 147.022,28.5613 147.355,29.228 147.5,30C 146.351,31.7297 146.351,33.3963 147.5,35C 145.004,36.0804 142.67,37.4138 140.5,39C 139.663,40.0113 139.33,41.1779 139.5,42.5C 137.5,42.5 135.5,42.5 133.5,42.5C 131.025,40.2297 129.025,37.563 127.5,34.5C 129.851,31.1317 131.684,27.465 133,23.5C 135.443,21.6991 137.943,20.0324 140.5,18.5C 142.284,18.1075 143.95,17.4408 145.5,16.5 Z"/></g>
<g><path style="opacity:1" fill="#2d1724" d="M 148.5,13.5 C 148.351,14.552 148.517,15.552 149,16.5C 150.817,19.1438 153.317,20.8105 156.5,21.5C 157.167,22.8333 157.833,24.1667 158.5,25.5C 160.833,24.1667 163.167,22.8333 165.5,21.5C 166.522,21.8555 167.189,22.5222 167.5,23.5C 166.04,25.4628 164.373,27.2962 162.5,29C 159.187,28.3404 156.187,28.5071 153.5,29.5C 154.074,31.0589 154.74,32.5589 155.5,34C 155.167,34.3333 154.833,34.6667 154.5,35C 157.188,35.3924 159.855,35.8924 162.5,36.5C 163.713,36.7472 164.38,37.4138 164.5,38.5C 163.508,38.3284 162.842,38.6618 162.5,39.5C 161.533,40.8062 160.199,41.4729 158.5,41.5C 152.753,42.3914 147.753,44.8914 143.5,49C 142.552,49.4828 141.552,49.6495 140.5,49.5C 137.5,47.8333 135.167,45.5 133.5,42.5C 135.5,42.5 137.5,42.5 139.5,42.5C 139.33,41.1779 139.663,40.0113 140.5,39C 142.67,37.4138 145.004,36.0804 147.5,35C 146.351,33.3963 146.351,31.7297 147.5,30C 147.355,29.228 147.022,28.5613 146.5,28C 144.19,27.5034 141.857,27.3367 139.5,27.5C 140.288,24.03 142.288,21.3633 145.5,19.5C 146.653,18.3132 146.653,17.3132 145.5,16.5C 146.167,15.1667 147.167,14.1667 148.5,13.5 Z"/></g>
<g><path style="opacity:1" fill="#462625" d="M 103.5,34.5 C 98.1524,37.0053 92.4857,38.0053 86.5,37.5C 86.1667,37.5 85.8333,37.5 85.5,37.5C 84.8106,36.2264 83.9772,36.2264 83,37.5C 80.0042,35.2674 77.1708,32.9341 74.5,30.5C 77.6611,31.4698 80.4944,33.1365 83,35.5C 83.7138,32.4055 84.7138,29.4055 86,26.5C 86.6708,25.7476 87.5041,25.4142 88.5,25.5C 91.5271,23.3739 94.8604,23.0405 98.5,24.5C 96.1093,27.435 96.1093,30.435 98.5,33.5C 100.287,33.9427 101.954,34.2761 103.5,34.5 Z"/></g>
<g><path style="opacity:1" fill="#793220" d="M 88.5,25.5 C 90.5273,25.3379 92.5273,25.5045 94.5,26C 94.9574,26.414 95.2907,26.914 95.5,27.5C 92.8097,28.6023 90.1431,28.4356 87.5,27C 88.056,26.6174 88.3893,26.1174 88.5,25.5 Z"/></g>
<g><path style="opacity:1" fill="#48231d" d="M 112.5,26.5 C 112.833,26.5 113.167,26.5 113.5,26.5C 114.067,28.0295 114.733,29.5295 115.5,31C 118.095,31.2256 120.595,31.7256 123,32.5C 123.499,36.1516 123.665,39.8183 123.5,43.5C 121.833,43.5 120.167,43.5 118.5,43.5C 117.516,35.6796 116.683,35.6796 116,43.5C 115.617,44.056 115.117,44.3893 114.5,44.5C 114.632,41.4299 114.299,38.4299 113.5,35.5C 112.648,32.4585 112.315,29.4585 112.5,26.5 Z"/></g>
<g><path style="opacity:1" fill="#642b1f" d="M 208.5,31.5 C 210.79,32.8857 211.457,34.7191 210.5,37C 211.068,38.8716 211.735,40.7049 212.5,42.5C 210.922,45.5632 210.256,48.8965 210.5,52.5C 210.503,55.3555 210.836,58.0221 211.5,60.5C 210.02,66.8085 208.52,73.1419 207,79.5C 205.853,78.5419 204.853,78.8753 204,80.5C 201.474,75.0535 199.808,69.3868 199,63.5C 197.846,67.104 197.013,70.7707 196.5,74.5C 195.911,79.4805 195.411,84.4805 195,89.5C 194.667,87.1667 194.333,84.8333 194,82.5C 192.325,79.9495 191.159,77.2828 190.5,74.5C 190.634,72.7085 190.301,71.0418 189.5,69.5C 189.823,63.3646 189.156,57.3646 187.5,51.5C 188.319,49.2278 188.985,46.8945 189.5,44.5C 190.458,44.0472 191.292,43.3805 192,42.5C 195.049,43.939 198.215,45.1057 201.5,46C 207.072,47.7545 209.739,45.7545 209.5,40C 209.202,37.1523 208.869,34.3189 208.5,31.5 Z"/></g>
<g><path style="opacity:1" fill="#887b7c" d="M 51.5,31.5 C 51.3893,32.1174 51.056,32.6174 50.5,33C 46.8333,33.3333 43.1667,33.6667 39.5,34C 38.5842,34.2784 37.9175,34.7784 37.5,35.5C 35.4352,35.5172 33.4352,35.8505 31.5,36.5C 30.9033,36.2648 30.5699,35.7648 30.5,35C 31.6449,33.5979 32.9783,32.4312 34.5,31.5C 40.0391,30.4654 45.7057,30.4654 51.5,31.5 Z"/></g>
<g><path style="opacity:1" fill="#c75419" d="M 95.5,31.5 C 96.0431,31.56 96.3764,31.8933 96.5,32.5C 94.2573,33.4742 91.924,33.8076 89.5,33.5C 88.2617,33.19 88.2617,32.69 89.5,32C 91.4727,31.5045 93.4727,31.3379 95.5,31.5 Z"/></g>
<g><path style="opacity:1" fill="#55506a" d="M 74.5,30.5 C 77.1708,32.9341 80.0042,35.2674 83,37.5C 83.9772,36.2264 84.8106,36.2264 85.5,37.5C 85.1654,40.0072 84.1654,42.1739 82.5,44C 85.5833,45.1392 88.5833,46.4725 91.5,48C 92.3366,49.0113 92.67,50.1779 92.5,51.5C 89.9759,51.4287 87.9759,52.4287 86.5,54.5C 82.613,52.0076 78.9463,52.1743 75.5,55C 75.9574,55.414 76.2907,55.914 76.5,56.5C 68.8876,58.0659 61.8876,56.7326 55.5,52.5C 54.4763,53.8532 53.143,54.5198 51.5,54.5C 51.4326,53.0413 51.7659,51.7079 52.5,50.5C 53.1667,49.8333 53.8333,49.1667 54.5,48.5C 55.7736,49.1894 55.7736,50.0228 54.5,51C 58.8206,51.499 63.1539,51.6657 67.5,51.5C 67.5,50.5 67.5,49.5 67.5,48.5C 70.8984,48.8204 74.2317,48.487 77.5,47.5C 75.6053,46.027 73.9387,44.3603 72.5,42.5C 71.6143,41.675 71.281,40.675 71.5,39.5C 69.1806,38.833 66.8473,38.6664 64.5,39C 65.3279,39.9147 66.3279,40.5814 67.5,41C 66.0161,41.6622 64.6828,42.4955 63.5,43.5C 62.8535,41.8439 62.1869,40.1772 61.5,38.5C 63.6451,36.2681 65.1451,33.6014 66,30.5C 68.8316,29.2138 71.6649,29.2138 74.5,30.5 Z"/></g>
<g><path style="opacity:1" fill="#9a5f33" d="M 95.5,31.5 C 93.4727,31.3379 91.4727,31.5045 89.5,32C 88.2617,32.69 88.2617,33.19 89.5,33.5C 88.1052,35.3003 86.4385,35.6336 84.5,34.5C 87.5268,30.6513 91.1935,29.6513 95.5,31.5 Z"/></g>
<g><path style="opacity:1" fill="#58261b" d="M 240.5,64.5 C 240.414,66.677 239.747,68.677 238.5,70.5C 240.747,75.9331 239.247,79.5998 234,81.5C 231.23,80.6746 228.563,80.3412 226,80.5C 218.789,84.352 211.456,88.0186 204,91.5C 202.333,90.1667 200.667,90.1667 199,91.5C 198.667,85.1667 198.333,78.8333 198,72.5C 197.722,73.4158 197.222,74.0825 196.5,74.5C 197.013,70.7707 197.846,67.104 199,63.5C 199.808,69.3868 201.474,75.0535 204,80.5C 204.853,78.8753 205.853,78.5419 207,79.5C 208.52,73.1419 210.02,66.8085 211.5,60.5C 211.309,54.5738 211.976,48.7405 213.5,43C 212.823,38.4584 212.323,33.9584 212,29.5C 215.257,35.6814 218.257,42.0148 221,48.5C 221.333,47.5 221.667,46.5 222,45.5C 223.763,46.9437 225.763,47.9437 228,48.5C 231.369,55.0646 233.369,62.0646 234,69.5C 236.606,68.2702 238.773,66.6035 240.5,64.5 Z"/></g>
<g><path style="opacity:1" fill="#612e23" d="M 223.5,35.5 C 223.343,36.8734 223.51,38.2068 224,39.5C 226.377,42.9209 228.21,46.5876 229.5,50.5C 232.167,50.5 234.833,50.5 237.5,50.5C 237.343,49.1266 237.51,47.7932 238,46.5C 238.232,47.7375 238.732,48.7375 239.5,49.5C 239.5,50.1667 239.5,50.8333 239.5,51.5C 239.739,55.8422 240.073,60.1756 240.5,64.5C 238.773,66.6035 236.606,68.2702 234,69.5C 233.369,62.0646 231.369,55.0646 228,48.5C 225.763,47.9437 223.763,46.9437 222,45.5C 221.667,46.5 221.333,47.5 221,48.5C 218.257,42.0148 215.257,35.6814 212,29.5C 212.323,33.9584 212.823,38.4584 213.5,43C 211.976,48.7405 211.309,54.5738 211.5,60.5C 210.836,58.0221 210.503,55.3555 210.5,52.5C 210.256,48.8965 210.922,45.5632 212.5,42.5C 211.735,40.7049 211.068,38.8716 210.5,37C 211.457,34.7191 210.79,32.8857 208.5,31.5C 206.542,27.6435 205.875,23.6435 206.5,19.5C 209.975,23.1038 212.975,27.1038 215.5,31.5C 218.31,32.6518 220.976,33.9851 223.5,35.5 Z"/></g>
<g><path style="opacity:1" fill="#5d322c" d="M 113.5,26.5 C 116.535,27.7335 119.535,27.7335 122.5,26.5C 124.153,29.1305 125.819,31.7972 127.5,34.5C 129.025,37.563 131.025,40.2297 133.5,42.5C 135.167,45.5 137.5,47.8333 140.5,49.5C 140.611,50.1174 140.944,50.6174 141.5,51C 139.741,51.7975 138.074,51.6309 136.5,50.5C 135.479,49.0986 134.479,47.7653 133.5,46.5C 131.824,44.1663 129.491,43.1663 126.5,43.5C 126.5,44.8333 126.5,46.1667 126.5,47.5C 126.631,48.2389 126.464,48.9056 126,49.5C 124.748,47.9991 123.748,46.3325 123,44.5C 121.052,45.1094 119.218,45.776 117.5,46.5C 117.179,48.0481 116.179,48.7148 114.5,48.5C 114.5,47.5 114.5,46.5 114.5,45.5C 114.5,45.1667 114.5,44.8333 114.5,44.5C 115.117,44.3893 115.617,44.056 116,43.5C 116.683,35.6796 117.516,35.6796 118.5,43.5C 120.167,43.5 121.833,43.5 123.5,43.5C 123.665,39.8183 123.499,36.1516 123,32.5C 120.595,31.7256 118.095,31.2256 115.5,31C 114.733,29.5295 114.067,28.0295 113.5,26.5 Z"/></g>
<g><path style="opacity:1" fill="#633e42" d="M 103.5,34.5 C 103.328,35.4916 103.662,36.1583 104.5,36.5C 104.67,37.8221 104.337,38.9887 103.5,40C 100.782,40.6533 98.1158,41.4866 95.5,42.5C 92.0393,41.6043 89.0393,39.9377 86.5,37.5C 92.4857,38.0053 98.1524,37.0053 103.5,34.5 Z"/></g>
<g><path style="opacity:1" fill="#996d62" d="M 178.5,31.5 C 180.588,33.3356 181.921,35.6689 182.5,38.5C 182.5,39.8333 182.5,41.1667 182.5,42.5C 177.489,42.6659 172.489,42.4993 167.5,42C 166.748,41.3292 166.414,40.4959 166.5,39.5C 167.833,38.8333 168.833,37.8333 169.5,36.5C 171.727,35.5994 172.727,33.9328 172.5,31.5C 174.5,31.5 176.5,31.5 178.5,31.5 Z"/></g>
<g><path style="opacity:1" fill="#161014" d="M 57.5,44.5 C 54.1956,46.4171 50.5289,47.5838 46.5,48C 49.146,48.4974 51.8127,48.6641 54.5,48.5C 53.8333,49.1667 53.1667,49.8333 52.5,50.5C 48.6128,49.9454 45.6128,51.2787 43.5,54.5C 43.8333,54.8333 44.1667,55.1667 44.5,55.5C 50.6395,56.2133 56.6395,57.5467 62.5,59.5C 66.8377,62.6711 71.5044,65.3377 76.5,67.5C 77.5,68.8333 78.5,70.1667 79.5,71.5C 75.8955,69.7392 72.3955,67.7392 69,65.5C 68.5,65.8333 68,66.1667 67.5,66.5C 68.1667,67.1667 68.8333,67.8333 69.5,68.5C 67.2633,70.3622 66.5966,72.5289 67.5,75C 66.6266,76.045 65.6266,76.8783 64.5,77.5C 64.7167,74.5647 65.3834,71.7313 66.5,69C 66.6134,67.3009 65.9468,66.1342 64.5,65.5C 62.8998,64.3556 61.2331,63.1889 59.5,62C 54.6632,61.533 49.8299,61.033 45,60.5C 38.972,60.3212 37.472,62.6545 40.5,67.5C 40.5,67.8333 40.5,68.1667 40.5,68.5C 38.1241,71.401 36.2908,71.0676 35,67.5C 33.3728,62.9061 33.2061,58.2394 34.5,53.5C 32.5767,50.3968 30.41,47.3968 28,44.5C 27.5045,42.5273 27.3379,40.5273 27.5,38.5C 29.3797,38.7709 30.713,38.1042 31.5,36.5C 33.4352,35.8505 35.4352,35.5172 37.5,35.5C 40.4929,34.8654 43.4929,34.6987 46.5,35C 50.6543,37.658 54.3209,40.8246 57.5,44.5 Z"/></g>
<g><path style="opacity:1" fill="#817e90" d="M 54.5,48.5 C 51.8127,48.6641 49.146,48.4974 46.5,48C 50.5289,47.5838 54.1956,46.4171 57.5,44.5C 59.4352,43.8505 61.4352,43.5172 63.5,43.5C 64.6828,42.4955 66.0161,41.6622 67.5,41C 66.3279,40.5814 65.3279,39.9147 64.5,39C 66.8473,38.6664 69.1806,38.833 71.5,39.5C 71.281,40.675 71.6143,41.675 72.5,42.5C 73.9387,44.3603 75.6053,46.027 77.5,47.5C 74.2317,48.487 70.8984,48.8204 67.5,48.5C 67.5,49.5 67.5,50.5 67.5,51.5C 63.1539,51.6657 58.8206,51.499 54.5,51C 55.7736,50.0228 55.7736,49.1894 54.5,48.5 Z"/></g>
<g><path style="opacity:1" fill="#33140f" d="M 162.5,39.5 C 163.11,40.391 163.443,41.391 163.5,42.5C 162.325,42.281 161.325,42.6143 160.5,43.5C 162.465,48.9577 162.798,54.4577 161.5,60C 164.108,63.8427 164.108,67.676 161.5,71.5C 162.269,74.1147 162.603,76.7814 162.5,79.5C 160.173,79.7529 158.173,79.0863 156.5,77.5C 155.817,77.8627 155.15,78.1961 154.5,78.5C 153.791,77.596 152.791,77.2627 151.5,77.5C 151.5,76.5 151.5,75.5 151.5,74.5C 152.695,74.1344 153.361,73.301 153.5,72C 152.685,70.3566 151.685,68.8566 150.5,67.5C 148.018,63.1915 145.685,58.8582 143.5,54.5C 145.737,55.449 148.071,56.1156 150.5,56.5C 150.506,53.4824 151.506,50.8157 153.5,48.5C 153.291,47.914 152.957,47.414 152.5,47C 153.493,44.6472 155.493,42.8139 158.5,41.5C 160.199,41.4729 161.533,40.8062 162.5,39.5 Z"/></g>
<g><path style="opacity:1" fill="#736060" d="M 133.5,46.5 C 131.139,46.6741 128.806,47.0074 126.5,47.5C 126.5,46.1667 126.5,44.8333 126.5,43.5C 129.491,43.1663 131.824,44.1663 133.5,46.5 Z"/></g>
<g><path style="opacity:1" fill="#835043" d="M 182.5,38.5 C 186.349,42.2327 187.182,46.566 185,51.5C 183.159,47.9406 180.492,46.9406 177,48.5C 173.836,47.6676 170.669,46.8343 167.5,46C 165.582,43.8912 165.249,41.7246 166.5,39.5C 166.414,40.4959 166.748,41.3292 167.5,42C 172.489,42.4993 177.489,42.6659 182.5,42.5C 182.5,41.1667 182.5,39.8333 182.5,38.5 Z"/></g>
<g><path style="opacity:1" fill="#231515" d="M 158.5,41.5 C 155.493,42.8139 153.493,44.6472 152.5,47C 152.957,47.414 153.291,47.914 153.5,48.5C 151.506,50.8157 150.506,53.4824 150.5,56.5C 148.071,56.1156 145.737,55.449 143.5,54.5C 141.856,54.7135 140.356,54.3802 139,53.5C 136.413,56.0341 133.747,56.0341 131,53.5C 130.32,55.513 128.987,56.8464 127,57.5C 123.11,55.1013 118.943,53.4347 114.5,52.5C 115.641,51.5745 115.641,50.7412 114.5,50C 116.167,49.6667 117.833,49.3333 119.5,49C 118.934,48.0053 118.267,47.172 117.5,46.5C 119.218,45.776 121.052,45.1094 123,44.5C 123.748,46.3325 124.748,47.9991 126,49.5C 126.464,48.9056 126.631,48.2389 126.5,47.5C 128.806,47.0074 131.139,46.6741 133.5,46.5C 134.479,47.7653 135.479,49.0986 136.5,50.5C 138.074,51.6309 139.741,51.7975 141.5,51C 140.944,50.6174 140.611,50.1174 140.5,49.5C 141.552,49.6495 142.552,49.4828 143.5,49C 147.753,44.8914 152.753,42.3914 158.5,41.5 Z"/></g>
<g><path style="opacity:1" fill="#373742" d="M 235.5,35.5 C 237.017,35.5106 238.184,36.1772 239,37.5C 240.694,39.2396 241.861,41.2396 242.5,43.5C 246.452,44.2721 250.452,44.6054 254.5,44.5C 254.232,42.901 254.566,41.5676 255.5,40.5C 255.5,45.5 255.5,50.5 255.5,55.5C 253.441,52.8515 250.775,52.0182 247.5,53C 248.793,53.49 250.127,53.6567 251.5,53.5C 251.913,57.8126 252.913,61.9793 254.5,66C 254.355,66.772 254.022,67.4387 253.5,68C 251.527,68.4955 249.527,68.6621 247.5,68.5C 246.922,62.8495 246.255,57.1829 245.5,51.5C 243.47,50.8283 241.47,50.1616 239.5,49.5C 239.086,44.502 237.753,39.8354 235.5,35.5 Z"/></g>
<g><path style="opacity:1" fill="#3f3a50" d="M 104.5,36.5 C 106.5,36.5 108.5,36.5 110.5,36.5C 110.577,40.2148 110.244,43.8815 109.5,47.5C 105.128,48.2008 101.461,47.0342 98.5,44C 96.272,43.1799 94.272,43.5132 92.5,45C 95.4456,45.8061 98.1123,47.1395 100.5,49C 94.0083,50.0174 94.0083,51.1841 100.5,52.5C 100.374,55.4678 98.8739,57.4678 96,58.5C 95.1146,61 93.9479,63.3333 92.5,65.5C 87.3478,62.5551 86.6811,63.0551 90.5,67C 83.9214,68.1366 78.588,66.1366 74.5,61C 70.4899,60.4987 66.4899,59.9987 62.5,59.5C 56.6395,57.5467 50.6395,56.2133 44.5,55.5C 44.1667,55.1667 43.8333,54.8333 43.5,54.5C 45.6128,51.2787 48.6128,49.9454 52.5,50.5C 51.7659,51.7079 51.4326,53.0413 51.5,54.5C 53.143,54.5198 54.4763,53.8532 55.5,52.5C 61.8876,56.7326 68.8876,58.0659 76.5,56.5C 76.2907,55.914 75.9574,55.414 75.5,55C 78.9463,52.1743 82.613,52.0076 86.5,54.5C 87.9759,52.4287 89.9759,51.4287 92.5,51.5C 92.67,50.1779 92.3366,49.0113 91.5,48C 88.5833,46.4725 85.5833,45.1392 82.5,44C 84.1654,42.1739 85.1654,40.0072 85.5,37.5C 85.8333,37.5 86.1667,37.5 86.5,37.5C 89.0393,39.9377 92.0393,41.6043 95.5,42.5C 98.1158,41.4866 100.782,40.6533 103.5,40C 104.337,38.9887 104.67,37.8221 104.5,36.5 Z"/></g>
<g><path style="opacity:1" fill="#2e2b3d" d="M 103.5,34.5 C 106.5,34.5 109.5,34.5 112.5,34.5C 112.5,35.1667 112.833,35.5 113.5,35.5C 114.299,38.4299 114.632,41.4299 114.5,44.5C 114.5,44.8333 114.5,45.1667 114.5,45.5C 112.506,49.1271 110.506,52.7938 108.5,56.5C 105.139,58.8949 102.472,61.8949 100.5,65.5C 100.056,67.1132 99.0557,68.2798 97.5,69C 98.8502,70.7183 100.017,72.5516 101,74.5C 101.747,77.9507 101.08,78.284 99,75.5C 98.6667,75.8333 98.3333,76.1667 98,76.5C 91.3262,72.455 84.1595,69.455 76.5,67.5C 71.5044,65.3377 66.8377,62.6711 62.5,59.5C 66.4899,59.9987 70.4899,60.4987 74.5,61C 78.588,66.1366 83.9214,68.1366 90.5,67C 86.6811,63.0551 87.3478,62.5551 92.5,65.5C 93.9479,63.3333 95.1146,61 96,58.5C 98.8739,57.4678 100.374,55.4678 100.5,52.5C 94.0083,51.1841 94.0083,50.0174 100.5,49C 98.1123,47.1395 95.4456,45.8061 92.5,45C 94.272,43.5132 96.272,43.1799 98.5,44C 101.461,47.0342 105.128,48.2008 109.5,47.5C 110.244,43.8815 110.577,40.2148 110.5,36.5C 108.5,36.5 106.5,36.5 104.5,36.5C 103.662,36.1583 103.328,35.4916 103.5,34.5 Z"/></g>
<g><path style="opacity:1" fill="#492219" d="M 114.5,45.5 C 114.5,46.5 114.5,47.5 114.5,48.5C 116.179,48.7148 117.179,48.0481 117.5,46.5C 118.267,47.172 118.934,48.0053 119.5,49C 117.833,49.3333 116.167,49.6667 114.5,50C 115.641,50.7412 115.641,51.5745 114.5,52.5C 118.943,53.4347 123.11,55.1013 127,57.5C 128.987,56.8464 130.32,55.513 131,53.5C 133.747,56.0341 136.413,56.0341 139,53.5C 140.356,54.3802 141.856,54.7135 143.5,54.5C 145.685,58.8582 148.018,63.1915 150.5,67.5C 148.167,67.5 145.833,67.5 143.5,67.5C 143.5,68.5 143.5,69.5 143.5,70.5C 145.099,70.2322 146.432,70.5655 147.5,71.5C 145.023,71.0508 143.023,71.7175 141.5,73.5C 144.022,74.3029 146.022,75.6362 147.5,77.5C 145.173,77.3354 143.007,76.6687 141,75.5C 139.991,77.0249 139.491,78.6916 139.5,80.5C 138.512,81.795 137.512,83.1283 136.5,84.5C 136.672,85.4916 136.338,86.1583 135.5,86.5C 133.673,85.0681 132.006,83.4014 130.5,81.5C 133.243,78.3456 135.743,75.0122 138,71.5C 138.182,69.6698 137.682,68.0031 136.5,66.5C 137.848,65.4732 138.348,64.1398 138,62.5C 135.603,60.2177 132.769,58.8844 129.5,58.5C 129.5,59.5 129.5,60.5 129.5,61.5C 128.448,61.3505 127.448,61.5172 126.5,62C 125.281,64.2782 123.948,66.4449 122.5,68.5C 121.89,69.391 121.557,70.391 121.5,71.5C 120.599,72.2905 119.932,73.2905 119.5,74.5C 119.167,74.5 118.833,74.5 118.5,74.5C 114.311,69.9085 109.311,66.5752 103.5,64.5C 105.127,62.3702 106.96,60.3702 109,58.5C 109.692,57.5632 109.525,56.8966 108.5,56.5C 110.506,52.7938 112.506,49.1271 114.5,45.5 Z"/></g>
<g><path style="opacity:1" fill="#3d1811" d="M 163.5,42.5 C 162.775,50.1593 164.608,57.1593 169,63.5C 171.16,65.5509 173.66,67.0509 176.5,68C 177.337,69.0113 177.67,70.1779 177.5,71.5C 181.742,71.9208 185.742,71.2541 189.5,69.5C 190.301,71.0418 190.634,72.7085 190.5,74.5C 190.5,74.8333 190.5,75.1667 190.5,75.5C 189.732,74.7375 189.232,73.7375 189,72.5C 186.057,80.7888 182.89,88.9555 179.5,97C 176.806,98.1898 174.139,98.3565 171.5,97.5C 172.822,95.1354 172.822,92.8021 171.5,90.5C 171.167,89.8333 170.833,89.1667 170.5,88.5C 173.19,86.7407 173.856,84.4074 172.5,81.5C 167.754,78.0915 164.754,79.0915 163.5,84.5C 159.786,86.8926 157.119,90.226 155.5,94.5C 154.766,95.7079 154.433,97.0413 154.5,98.5C 156.415,98.2155 158.081,98.5489 159.5,99.5C 157.887,100.692 156.22,101.692 154.5,102.5C 153.5,102.5 152.5,102.5 151.5,102.5C 150.118,99.6057 148.118,97.1057 145.5,95C 146.624,94.7508 147.624,94.2508 148.5,93.5C 149.67,88.1605 151.67,83.1605 154.5,78.5C 155.15,78.1961 155.817,77.8627 156.5,77.5C 158.173,79.0863 160.173,79.7529 162.5,79.5C 162.603,76.7814 162.269,74.1147 161.5,71.5C 164.108,67.676 164.108,63.8427 161.5,60C 162.798,54.4577 162.465,48.9577 160.5,43.5C 161.325,42.6143 162.325,42.281 163.5,42.5 Z"/></g>
<g><path style="opacity:1" fill="#552920" d="M 164.5,38.5 C 164.223,41.4475 164.556,44.2809 165.5,47C 170.48,50.1567 175.813,52.8234 181.5,55C 183.71,56.5088 185.543,58.3421 187,60.5C 187.087,57.2933 187.254,54.2933 187.5,51.5C 189.156,57.3646 189.823,63.3646 189.5,69.5C 185.742,71.2541 181.742,71.9208 177.5,71.5C 177.67,70.1779 177.337,69.0113 176.5,68C 173.66,67.0509 171.16,65.5509 169,63.5C 164.608,57.1593 162.775,50.1593 163.5,42.5C 163.443,41.391 163.11,40.391 162.5,39.5C 162.842,38.6618 163.508,38.3284 164.5,38.5 Z"/></g>
<g><path style="opacity:1" fill="#b99190" d="M 108.5,56.5 C 109.525,56.8966 109.692,57.5632 109,58.5C 106.96,60.3702 105.127,62.3702 103.5,64.5C 102.833,64.8333 102.167,65.1667 101.5,65.5C 101.167,65.5 100.833,65.5 100.5,65.5C 102.472,61.8949 105.139,58.8949 108.5,56.5 Z"/></g>
<g><path style="opacity:1" fill="#78503c" d="M 136.5,66.5 C 136.167,66.5 135.833,66.5 135.5,66.5C 133.854,62.931 131.688,62.5976 129,65.5C 128.5,65.1667 128,64.8333 127.5,64.5C 128.193,63.4822 128.859,62.4822 129.5,61.5C 129.5,60.5 129.5,59.5 129.5,58.5C 132.769,58.8844 135.603,60.2177 138,62.5C 138.348,64.1398 137.848,65.4732 136.5,66.5 Z"/></g>
<g><path style="opacity:1" fill="#361c26" d="M 64.5,65.5 C 62.6203,65.2291 61.287,65.8958 60.5,67.5C 59.8333,67.8333 59.1667,68.1667 58.5,68.5C 59.4132,66.9139 59.4132,65.4139 58.5,64C 55.633,63.1993 52.9664,63.3659 50.5,64.5C 46.6625,64.0216 43.3291,65.0216 40.5,67.5C 37.472,62.6545 38.972,60.3212 45,60.5C 49.8299,61.033 54.6632,61.533 59.5,62C 61.2331,63.1889 62.8998,64.3556 64.5,65.5 Z"/></g>
<g><path style="opacity:1" fill="#545a64" d="M 20.5,62.5 C 20.9926,64.8056 21.3259,67.139 21.5,69.5C 20.7784,69.0825 20.2784,68.4158 20,67.5C 16.6336,68.3737 13.3002,69.3737 10,70.5C 9.33333,72.1667 9.33333,73.8333 10,75.5C 14.9361,78.621 14.6027,80.9544 9,82.5C 7.43699,81.2748 6.27032,79.7748 5.5,78C 5.96523,72.0855 6.6319,66.2522 7.5,60.5C 5.17369,59.8553 3.50702,58.522 2.5,56.5C 6.16667,57.1667 9.83333,57.8333 13.5,58.5C 13.5,56.5 13.5,54.5 13.5,52.5C 14.675,52.281 15.675,52.6143 16.5,53.5C 17.8469,56.5587 19.1802,59.5587 20.5,62.5 Z"/></g>
<g><path style="opacity:1" fill="#514437" d="M 50.5,64.5 C 52.9664,63.3659 55.633,63.1993 58.5,64C 59.4132,65.4139 59.4132,66.9139 58.5,68.5C 58.1667,69.5 57.5,70.1667 56.5,70.5C 56.44,71.0431 56.1067,71.3764 55.5,71.5C 54.7189,70.2713 54.2189,68.938 54,67.5C 53.6174,68.056 53.1174,68.3893 52.5,68.5C 52.8432,66.5168 52.1765,65.1834 50.5,64.5 Z"/></g>
<g><path style="opacity:1" fill="#a0977a" d="M 56.5,70.5 C 55.2121,68.9652 55.2121,67.2985 56.5,65.5C 57.4339,67.0948 57.4339,68.7615 56.5,70.5 Z"/></g>
<g><path style="opacity:1" fill="#3b2629" d="M 239.5,49.5 C 241.47,50.1616 243.47,50.8283 245.5,51.5C 246.255,57.1829 246.922,62.8495 247.5,68.5C 247.774,73.263 247.441,77.9296 246.5,82.5C 245.5,83.1667 244.5,83.8333 243.5,84.5C 243.465,75.4766 242.965,66.4766 242,57.5C 241.434,55.2774 240.6,53.2774 239.5,51.5C 239.5,50.8333 239.5,50.1667 239.5,49.5 Z"/></g>
<g><path style="opacity:1" fill="#5f513f" d="M 64.5,65.5 C 65.9468,66.1342 66.6134,67.3009 66.5,69C 65.3834,71.7313 64.7167,74.5647 64.5,77.5C 63.6618,77.8417 63.3284,78.5084 63.5,79.5C 61.6322,80.6736 60.6322,80.0069 60.5,77.5C 62.8966,74.691 64.2299,71.3576 64.5,67.5C 63.5,67.5 62.5,67.5 61.5,67.5C 61.7373,68.791 61.404,69.791 60.5,70.5C 60.5,69.5 60.5,68.5 60.5,67.5C 61.287,65.8958 62.6203,65.2291 64.5,65.5 Z"/></g>
<g><path style="opacity:1" fill="#1d0e0e" d="M 103.5,64.5 C 109.311,66.5752 114.311,69.9085 118.5,74.5C 118.5,75.1667 118.167,75.5 117.5,75.5C 114.401,75.9077 112.067,74.741 110.5,72C 106.004,71.6998 103.004,69.5331 101.5,65.5C 102.167,65.1667 102.833,64.8333 103.5,64.5 Z"/></g>
<g><path style="opacity:1" fill="#16100e" d="M 129.5,61.5 C 128.859,62.4822 128.193,63.4822 127.5,64.5C 128,64.8333 128.5,65.1667 129,65.5C 131.688,62.5976 133.854,62.931 135.5,66.5C 135.649,67.552 135.483,68.552 135,69.5C 134.333,70.8333 133.667,70.8333 133,69.5C 133.013,73.1244 131.68,76.1244 129,78.5C 128.617,77.944 128.117,77.6107 127.5,77.5C 126.5,76.8333 125.5,76.1667 124.5,75.5C 122.784,75.3713 121.117,75.038 119.5,74.5C 119.932,73.2905 120.599,72.2905 121.5,71.5C 130.446,73.197 130.78,72.197 122.5,68.5C 123.948,66.4449 125.281,64.2782 126.5,62C 127.448,61.5172 128.448,61.3505 129.5,61.5 Z"/></g>
<g><path style="opacity:1" fill="#7b4e38" d="M 150.5,67.5 C 151.685,68.8566 152.685,70.3566 153.5,72C 153.361,73.301 152.695,74.1344 151.5,74.5C 150.167,73.5 148.833,72.5 147.5,71.5C 146.432,70.5655 145.099,70.2322 143.5,70.5C 143.5,69.5 143.5,68.5 143.5,67.5C 145.833,67.5 148.167,67.5 150.5,67.5 Z"/></g>
<g><path style="opacity:1" fill="#1f2029" d="M 255.5,55.5 C 255.5,59.8333 255.5,64.1667 255.5,68.5C 254.542,68.9528 253.708,69.6195 253,70.5C 252,74.1667 251,77.8333 250,81.5C 248.989,82.3366 247.822,82.67 246.5,82.5C 247.441,77.9296 247.774,73.263 247.5,68.5C 249.527,68.6621 251.527,68.4955 253.5,68C 254.022,67.4387 254.355,66.772 254.5,66C 252.913,61.9793 251.913,57.8126 251.5,53.5C 250.127,53.6567 248.793,53.49 247.5,53C 250.775,52.0182 253.441,52.8515 255.5,55.5 Z"/></g>
<g><path style="opacity:1" fill="#5f6571" d="M 34.5,53.5 C 33.2061,58.2394 33.3728,62.9061 35,67.5C 36.2908,71.0676 38.1241,71.401 40.5,68.5C 40.2671,70.0618 39.6005,71.3951 38.5,72.5C 35.967,74.9135 35.967,77.2469 38.5,79.5C 38.5,80.5 38.5,81.5 38.5,82.5C 34.4259,84.6181 31.7592,87.9514 30.5,92.5C 30.7373,93.791 30.404,94.791 29.5,95.5C 28.5,94.1667 27.5,92.8333 26.5,91.5C 28.7142,90.6085 29.7142,88.9418 29.5,86.5C 29.3818,83.645 28.3818,81.145 26.5,79C 27.0294,77.4411 27.696,75.9411 28.5,74.5C 25.8761,73.2047 23.5427,71.538 21.5,69.5C 21.3259,67.139 20.9926,64.8056 20.5,62.5C 21.4584,62.9528 22.2917,63.6195 23,64.5C 25.0439,52.8554 27.3772,52.8554 30,64.5C 30.6667,63.8333 31.3333,63.1667 32,62.5C 32.4061,59.2578 33.2395,56.2578 34.5,53.5 Z"/></g>
<g><path style="opacity:1" fill="#9d704e" d="M 122.5,68.5 C 130.78,72.197 130.446,73.197 121.5,71.5C 121.557,70.391 121.89,69.391 122.5,68.5 Z"/></g>
<g><path style="opacity:1" fill="#23100e" d="M 135.5,66.5 C 135.833,66.5 136.167,66.5 136.5,66.5C 137.682,68.0031 138.182,69.6698 138,71.5C 135.743,75.0122 133.243,78.3456 130.5,81.5C 132.006,83.4014 133.673,85.0681 135.5,86.5C 135.068,87.7095 134.401,88.7095 133.5,89.5C 130.725,86.3954 127.392,84.0621 123.5,82.5C 125.555,81.4412 126.889,79.7746 127.5,77.5C 128.117,77.6107 128.617,77.944 129,78.5C 131.68,76.1244 133.013,73.1244 133,69.5C 133.667,70.8333 134.333,70.8333 135,69.5C 135.483,68.552 135.649,67.552 135.5,66.5 Z"/></g>
<g><path style="opacity:1" fill="#756b50" d="M 50.5,64.5 C 52.1765,65.1834 52.8432,66.5168 52.5,68.5C 50.1073,69.21 47.6073,69.8767 45,70.5C 44.0299,72.9592 42.8632,75.2925 41.5,77.5C 41.7472,78.7133 42.4138,79.38 43.5,79.5C 42.9744,81.2303 41.9744,82.5637 40.5,83.5C 40.1583,82.6618 39.4916,82.3284 38.5,82.5C 38.5,81.5 38.5,80.5 38.5,79.5C 39.8333,77.1667 39.8333,74.8333 38.5,72.5C 39.6005,71.3951 40.2671,70.0618 40.5,68.5C 40.5,68.1667 40.5,67.8333 40.5,67.5C 43.3291,65.0216 46.6625,64.0216 50.5,64.5 Z"/></g>
<g><path style="opacity:1" fill="#aba182" d="M 60.5,77.5 C 60.5,75.1667 60.5,72.8333 60.5,70.5C 61.404,69.791 61.7373,68.791 61.5,67.5C 62.5,67.5 63.5,67.5 64.5,67.5C 64.2299,71.3576 62.8966,74.691 60.5,77.5 Z"/></g>
<g><path style="opacity:1" fill="#1c1013" d="M 56.5,70.5 C 57.5,70.1667 58.1667,69.5 58.5,68.5C 59.1667,68.1667 59.8333,67.8333 60.5,67.5C 60.5,68.5 60.5,69.5 60.5,70.5C 60.5,72.8333 60.5,75.1667 60.5,77.5C 60.6322,80.0069 61.6322,80.6736 63.5,79.5C 63.5,80.8333 63.5,82.1667 63.5,83.5C 61.8014,83.6204 60.1347,83.9537 58.5,84.5C 56.5726,82.7066 54.2393,81.7066 51.5,81.5C 52.0468,77.71 50.3801,75.71 46.5,75.5C 44.7118,76.2826 43.7118,77.6159 43.5,79.5C 42.4138,79.38 41.7472,78.7133 41.5,77.5C 42.8632,75.2925 44.0299,72.9592 45,70.5C 47.6073,69.8767 50.1073,69.21 52.5,68.5C 53.1174,68.3893 53.6174,68.056 54,67.5C 54.2189,68.938 54.7189,70.2713 55.5,71.5C 56.1067,71.3764 56.44,71.0431 56.5,70.5 Z"/></g>
<g><path style="opacity:1" fill="#a09a87" d="M 38.5,72.5 C 39.8333,74.8333 39.8333,77.1667 38.5,79.5C 35.967,77.2469 35.967,74.9135 38.5,72.5 Z"/></g>
<g><path style="opacity:1" fill="#22202b" d="M 100.5,65.5 C 100.833,65.5 101.167,65.5 101.5,65.5C 103.004,69.5331 106.004,71.6998 110.5,72C 112.067,74.741 114.401,75.9077 117.5,75.5C 117.267,77.0618 116.6,78.3951 115.5,79.5C 110.457,82.4342 106.123,85.4342 102.5,88.5C 102.265,89.0967 101.765,89.4301 101,89.5C 93.8563,84.7268 87.6897,78.8935 82.5,72C 81.552,71.5172 80.552,71.3505 79.5,71.5C 78.5,70.1667 77.5,68.8333 76.5,67.5C 84.1595,69.455 91.3262,72.455 98,76.5C 98.3333,76.1667 98.6667,75.8333 99,75.5C 101.08,78.284 101.747,77.9507 101,74.5C 100.017,72.5516 98.8502,70.7183 97.5,69C 99.0557,68.2798 100.056,67.1132 100.5,65.5 Z"/></g>
<g><path style="opacity:1" fill="#c29370" d="M 118.5,74.5 C 118.833,74.5 119.167,74.5 119.5,74.5C 121.117,75.038 122.784,75.3713 124.5,75.5C 124.559,77.7645 123.726,78.0978 122,76.5C 119.721,77.3914 117.554,78.3914 115.5,79.5C 116.6,78.3951 117.267,77.0618 117.5,75.5C 118.167,75.5 118.5,75.1667 118.5,74.5 Z"/></g>
<g><path style="opacity:1" fill="#0a0606" d="M 79.5,71.5 C 82.0134,77.0196 85.3468,82.0196 89.5,86.5C 89.5394,87.5832 89.8728,88.5832 90.5,89.5C 89.726,93.7793 89.226,98.1126 89,102.5C 88.6174,103.056 88.1174,103.389 87.5,103.5C 89.4052,91.2683 84.4052,86.6016 72.5,89.5C 69.1298,94.9633 67.6298,100.963 68,107.5C 67.6174,108.056 67.1174,108.389 66.5,108.5C 64.2459,109.415 62.2459,110.748 60.5,112.5C 60.5,111.833 60.5,111.167 60.5,110.5C 60.9439,105.857 60.1106,101.19 58,96.5C 56.2289,93.4301 54.3956,90.4301 52.5,87.5C 52.0269,86.0937 51.0269,85.427 49.5,85.5C 48.5223,82.5222 46.5223,80.5222 43.5,79.5C 43.7118,77.6159 44.7118,76.2826 46.5,75.5C 50.3801,75.71 52.0468,77.71 51.5,81.5C 54.2393,81.7066 56.5726,82.7066 58.5,84.5C 60.1347,83.9537 61.8014,83.6204 63.5,83.5C 63.5,82.1667 63.5,80.8333 63.5,79.5C 63.3284,78.5084 63.6618,77.8417 64.5,77.5C 65.6266,76.8783 66.6266,76.045 67.5,75C 66.5966,72.5289 67.2633,70.3622 69.5,68.5C 68.8333,67.8333 68.1667,67.1667 67.5,66.5C 68,66.1667 68.5,65.8333 69,65.5C 72.3955,67.7392 75.8955,69.7392 79.5,71.5 Z"/></g>
<g><path style="opacity:1" fill="#0c0706" d="M 147.5,77.5 C 150.108,81.4487 149.608,85.1154 146,88.5C 145.617,87.944 145.117,87.6107 144.5,87.5C 143.391,87.4431 142.391,87.1098 141.5,86.5C 140.71,85.5987 139.71,84.9321 138.5,84.5C 140.792,83.6605 143.125,82.6605 145.5,81.5C 145.135,80.0981 144.301,79.0981 143,78.5C 141.923,79.4295 140.756,80.0962 139.5,80.5C 139.491,78.6916 139.991,77.0249 141,75.5C 143.007,76.6687 145.173,77.3354 147.5,77.5 Z"/></g>
<g><path style="opacity:1" fill="#22110f" d="M 147.5,71.5 C 148.833,72.5 150.167,73.5 151.5,74.5C 151.5,75.5 151.5,76.5 151.5,77.5C 152.791,77.2627 153.791,77.596 154.5,78.5C 151.67,83.1605 149.67,88.1605 148.5,93.5C 147.624,94.2508 146.624,94.7508 145.5,95C 148.118,97.1057 150.118,99.6057 151.5,102.5C 151.5,102.833 151.5,103.167 151.5,103.5C 150.833,103.833 150.167,104.167 149.5,104.5C 147.5,100.5 144.5,97.5 140.5,95.5C 142.024,92.9261 143.358,90.2594 144.5,87.5C 145.117,87.6107 145.617,87.944 146,88.5C 149.608,85.1154 150.108,81.4487 147.5,77.5C 146.022,75.6362 144.022,74.3029 141.5,73.5C 143.023,71.7175 145.023,71.0508 147.5,71.5 Z"/></g>
<g><path style="opacity:1" fill="#2d231f" d="M 138.5,84.5 C 137.833,84.5 137.167,84.5 136.5,84.5C 137.512,83.1283 138.512,81.795 139.5,80.5C 140.756,80.0962 141.923,79.4295 143,78.5C 144.301,79.0981 145.135,80.0981 145.5,81.5C 143.125,82.6605 140.792,83.6605 138.5,84.5 Z"/></g>
<g><path style="opacity:1" fill="#4b1f16" d="M 239.5,51.5 C 240.6,53.2774 241.434,55.2774 242,57.5C 242.965,66.4766 243.465,75.4766 243.5,84.5C 239.594,84.4673 236.26,85.8006 233.5,88.5C 237.895,93.6524 237.062,94.6524 231,91.5C 230.426,92.3542 229.759,93.3542 229,94.5C 227.234,93.7665 225.401,93.4332 223.5,93.5C 223.5,95.1667 223.5,96.8333 223.5,98.5C 221.516,98.3832 219.85,99.0499 218.5,100.5C 215.63,99.878 212.796,99.2113 210,98.5C 209.667,98.8333 209.333,99.1667 209,99.5C 207.333,98.1667 205.667,96.8333 204,95.5C 202.139,97.3479 199.972,97.3479 197.5,95.5C 196.828,96.9492 196.161,98.2825 195.5,99.5C 194.588,93.1226 192.921,87.1226 190.5,81.5C 190.5,79.5 190.5,77.5 190.5,75.5C 190.5,75.1667 190.5,74.8333 190.5,74.5C 191.159,77.2828 192.325,79.9495 194,82.5C 194.333,84.8333 194.667,87.1667 195,89.5C 195.411,84.4805 195.911,79.4805 196.5,74.5C 197.222,74.0825 197.722,73.4158 198,72.5C 198.333,78.8333 198.667,85.1667 199,91.5C 200.667,90.1667 202.333,90.1667 204,91.5C 211.456,88.0186 218.789,84.352 226,80.5C 228.563,80.3412 231.23,80.6746 234,81.5C 239.247,79.5998 240.747,75.9331 238.5,70.5C 239.747,68.677 240.414,66.677 240.5,64.5C 240.073,60.1756 239.739,55.8422 239.5,51.5 Z"/></g>
<g><path style="opacity:1" fill="#744935" d="M 170.5,88.5 C 168.302,86.9019 165.969,85.5686 163.5,84.5C 164.754,79.0915 167.754,78.0915 172.5,81.5C 173.856,84.4074 173.19,86.7407 170.5,88.5 Z"/></g>
<g><path style="opacity:1" fill="#394045" d="M 26.5,91.5 C 27.5,92.8333 28.5,94.1667 29.5,95.5C 28.9853,97.8945 28.3186,100.228 27.5,102.5C 25.7497,103.659 24.7497,105.326 24.5,107.5C 22.7901,109.2 20.7901,110.533 18.5,111.5C 13.5649,110.552 8.56495,110.219 3.5,110.5C 3.48015,108.857 4.14682,107.524 5.5,106.5C 3.45291,105.096 1.78624,105.429 0.5,107.5C 1.72687,110.895 4.0602,113.061 7.5,114C 5.96317,115.11 5.2965,116.61 5.5,118.5C 3.43525,118.517 1.43525,118.85 -0.5,119.5C -0.5,111.5 -0.5,103.5 -0.5,95.5C 1.83333,95.5 4.16667,95.5 6.5,95.5C 7.03972,92.3135 6.03972,89.8135 3.5,88C 4.71052,84.793 7.04385,83.1263 10.5,83C 13.275,82.2217 15.775,82.7217 18,84.5C 20.6071,83.2103 21.9405,84.2103 22,87.5C 23.3968,89.0703 24.8968,90.4036 26.5,91.5 Z"/></g>
<g><path style="opacity:1" fill="#454c53" d="M -0.5,52.5 C 0.974395,53.4363 1.97439,54.7697 2.5,56.5C 3.50702,58.522 5.17369,59.8553 7.5,60.5C 6.6319,66.2522 5.96523,72.0855 5.5,78C 6.27032,79.7748 7.43699,81.2748 9,82.5C 14.6027,80.9544 14.9361,78.621 10,75.5C 9.33333,73.8333 9.33333,72.1667 10,70.5C 13.3002,69.3737 16.6336,68.3737 20,67.5C 20.2784,68.4158 20.7784,69.0825 21.5,69.5C 23.5427,71.538 25.8761,73.2047 28.5,74.5C 27.696,75.9411 27.0294,77.4411 26.5,79C 28.3818,81.145 29.3818,83.645 29.5,86.5C 29.7142,88.9418 28.7142,90.6085 26.5,91.5C 24.8968,90.4036 23.3968,89.0703 22,87.5C 21.9405,84.2103 20.6071,83.2103 18,84.5C 15.775,82.7217 13.275,82.2217 10.5,83C 7.04385,83.1263 4.71052,84.793 3.5,88C 6.03972,89.8135 7.03972,92.3135 6.5,95.5C 4.16667,95.5 1.83333,95.5 -0.5,95.5C -0.5,81.1667 -0.5,66.8333 -0.5,52.5 Z"/></g>
<g><path style="opacity:1" fill="#121217" d="M 255.5,68.5 C 255.5,79.1667 255.5,89.8333 255.5,100.5C 253.958,99.6993 252.292,99.366 250.5,99.5C 250.456,95.9103 248.789,93.4103 245.5,92C 245.833,91.6667 246.167,91.3333 246.5,91C 244.655,89.872 242.655,89.372 240.5,89.5C 240.5,88.5 240.5,87.5 240.5,86.5C 241.71,86.0679 242.71,85.4013 243.5,84.5C 244.5,83.8333 245.5,83.1667 246.5,82.5C 247.822,82.67 248.989,82.3366 250,81.5C 251,77.8333 252,74.1667 253,70.5C 253.708,69.6195 254.542,68.9528 255.5,68.5 Z"/></g>
<g><path style="opacity:1" fill="#866c57" d="M 124.5,75.5 C 125.5,76.1667 126.5,76.8333 127.5,77.5C 126.889,79.7746 125.555,81.4412 123.5,82.5C 116.998,86.0057 109.998,88.0057 102.5,88.5C 106.123,85.4342 110.457,82.4342 115.5,79.5C 117.554,78.3914 119.721,77.3914 122,76.5C 123.726,78.0978 124.559,77.7645 124.5,75.5 Z"/></g>
<g><path style="opacity:1" fill="#c8bebd" d="M 49.5,86.5 C 48.0783,89.6706 47.0783,93.0039 46.5,96.5C 45.3709,94.3718 45.2042,92.0385 46,89.5C 46.4224,87.5743 47.5891,86.5743 49.5,86.5 Z"/></g>
<g><path style="opacity:1" fill="#5f4c3e" d="M 49.5,85.5 C 51.0269,85.427 52.0269,86.0937 52.5,87.5C 52.5,88.5 52.5,89.5 52.5,90.5C 50.8338,92.1868 49.5005,94.1868 48.5,96.5C 47.7435,97.7733 47.0768,97.7733 46.5,96.5C 47.0783,93.0039 48.0783,89.6706 49.5,86.5C 49.5,86.1667 49.5,85.8333 49.5,85.5 Z"/></g>
<g><path style="opacity:1" fill="#acaab2" d="M 38.5,82.5 C 39.4916,82.3284 40.1583,82.6618 40.5,83.5C 39.2126,85.6365 38.3793,87.9699 38,90.5C 36.5913,91.7811 35.0913,92.7811 33.5,93.5C 32.8826,93.6107 32.3826,93.944 32,94.5C 31.7216,93.5842 31.2216,92.9175 30.5,92.5C 31.7592,87.9514 34.4259,84.6181 38.5,82.5 Z"/></g>
<g><path style="opacity:1" fill="#401912" d="M 243.5,84.5 C 242.71,85.4013 241.71,86.0679 240.5,86.5C 238.052,86.0847 236.719,87.0847 236.5,89.5C 237.961,92.2463 239.961,94.5796 242.5,96.5C 241.396,102.101 240.729,107.768 240.5,113.5C 236.92,123.994 232.253,133.994 226.5,143.5C 220.167,143.5 213.833,143.5 207.5,143.5C 206.349,140.164 206.182,136.831 207,133.5C 203.23,132.187 200.73,129.187 199.5,124.5C 199.556,123.263 200.056,122.263 201,121.5C 201.36,123.608 202.027,125.608 203,127.5C 203.692,126.975 204.192,126.308 204.5,125.5C 203.15,121.923 202.65,118.256 203,114.5C 203.532,117.264 204.366,119.93 205.5,122.5C 207.606,123.365 207.939,122.698 206.5,120.5C 206.833,119.5 207.5,118.833 208.5,118.5C 211.652,122.109 210.985,124.776 206.5,126.5C 208.054,131.939 209.888,137.272 212,142.5C 212.216,140.616 212.883,138.949 214,137.5C 213.923,138.738 214.089,139.738 214.5,140.5C 217.188,137.646 219.688,134.646 222,131.5C 222.116,133.655 221.783,135.655 221,137.5C 224.432,133.636 227.099,129.302 229,124.5C 229.333,124.833 229.667,125.167 230,125.5C 233.594,118.552 236.094,111.219 237.5,103.5C 237.192,102.692 236.692,102.025 236,101.5C 234.989,102.337 233.822,102.67 232.5,102.5C 232.38,100.266 232.713,98.0989 233.5,96C 233.37,94.9412 232.87,94.1079 232,93.5C 230.833,96.5 229.667,99.5 228.5,102.5C 225.139,104.289 222.306,106.622 220,109.5C 217.865,110.127 215.698,110.627 213.5,111C 217.594,113.812 217.428,115.978 213,117.5C 209.624,116.897 208.458,115.064 209.5,112C 207.704,110.247 206.538,108.08 206,105.5C 204.989,104.663 203.822,104.33 202.5,104.5C 202.328,100.029 201.494,99.6959 200,103.5C 198.883,102.051 198.216,100.384 198,98.5C 197.649,105.648 196.816,105.981 195.5,99.5C 196.161,98.2825 196.828,96.9492 197.5,95.5C 199.972,97.3479 202.139,97.3479 204,95.5C 205.667,96.8333 207.333,98.1667 209,99.5C 209.333,99.1667 209.667,98.8333 210,98.5C 212.796,99.2113 215.63,99.878 218.5,100.5C 219.85,99.0499 221.516,98.3832 223.5,98.5C 223.5,96.8333 223.5,95.1667 223.5,93.5C 225.401,93.4332 227.234,93.7665 229,94.5C 229.759,93.3542 230.426,92.3542 231,91.5C 237.062,94.6524 237.895,93.6524 233.5,88.5C 236.26,85.8006 239.594,84.4673 243.5,84.5 Z"/></g>
<g><path style="opacity:1" fill="#1d0c10" d="M 87.5,103.5 C 85.8564,103.81 84.8564,104.81 84.5,106.5C 83.1825,106.179 81.8492,105.846 80.5,105.5C 77.7585,107.568 74.7585,108.902 71.5,109.5C 71.1667,109.5 70.8333,109.5 70.5,109.5C 69.1667,109.167 67.8333,108.833 66.5,108.5C 67.1174,108.389 67.6174,108.056 68,107.5C 67.6298,100.963 69.1298,94.9633 72.5,89.5C 84.4052,86.6016 89.4052,91.2683 87.5,103.5 Z"/></g>
<g><path style="opacity:1" fill="#6d6e7d" d="M 43.5,79.5 C 46.5223,80.5222 48.5223,82.5222 49.5,85.5C 49.5,85.8333 49.5,86.1667 49.5,86.5C 47.5891,86.5743 46.4224,87.5743 46,89.5C 45.2042,92.0385 45.3709,94.3718 46.5,96.5C 47.0768,97.7733 47.7435,97.7733 48.5,96.5C 49.5005,94.1868 50.8338,92.1868 52.5,90.5C 53.3092,92.0276 53.9759,93.6943 54.5,95.5C 50.7169,98.8237 49.0503,103.157 49.5,108.5C 48.6909,106.708 48.1909,104.708 48,102.5C 46.5944,101.332 45.4277,101.665 44.5,103.5C 43.8243,102.398 43.1577,101.398 42.5,100.5C 43.1495,98.5648 43.4828,96.5648 43.5,94.5C 42.5,94.5 41.5,94.5 40.5,94.5C 40.6567,93.1266 40.49,91.7932 40,90.5C 38.5952,91.7305 37.4286,93.0639 36.5,94.5C 35.8826,94.6107 35.3826,94.944 35,95.5C 34.7216,94.5842 34.2216,93.9175 33.5,93.5C 35.0913,92.7811 36.5913,91.7811 38,90.5C 38.3793,87.9699 39.2126,85.6365 40.5,83.5C 41.9744,82.5637 42.9744,81.2303 43.5,79.5 Z"/></g>
<g><path style="opacity:1" fill="#a17d61" d="M 136.5,84.5 C 137.167,84.5 137.833,84.5 138.5,84.5C 139.71,84.9321 140.71,85.5987 141.5,86.5C 138.909,92.0922 134.909,96.4256 129.5,99.5C 128.595,98.2976 128.595,96.9643 129.5,95.5C 131.226,93.7721 132.559,91.7721 133.5,89.5C 134.401,88.7095 135.068,87.7095 135.5,86.5C 136.338,86.1583 136.672,85.4916 136.5,84.5 Z"/></g>
<g><path style="opacity:1" fill="#a4a6b0" d="M 42.5,100.5 C 41.9717,101.721 41.305,102.887 40.5,104C 38.6577,103.932 36.991,104.099 35.5,104.5C 34.9035,103.065 34.9035,101.398 35.5,99.5C 36.038,97.8828 36.3713,96.2161 36.5,94.5C 37.4286,93.0639 38.5952,91.7305 40,90.5C 40.49,91.7932 40.6567,93.1266 40.5,94.5C 41.5,94.5 42.5,94.5 43.5,94.5C 43.4828,96.5648 43.1495,98.5648 42.5,100.5 Z"/></g>
<g><path style="opacity:1" fill="#735744" d="M 141.5,86.5 C 142.391,87.1098 143.391,87.4431 144.5,87.5C 143.358,90.2594 142.024,92.9261 140.5,95.5C 135.256,99.6196 129.589,102.953 123.5,105.5C 124.598,104.603 124.598,103.77 123.5,103C 126.019,102.414 128.019,101.247 129.5,99.5C 134.909,96.4256 138.909,92.0922 141.5,86.5 Z"/></g>
<g><path style="opacity:1" fill="#a17453" d="M 155.5,94.5 C 157.903,94.393 159.736,95.393 161,97.5C 161.528,98.816 161.028,99.4827 159.5,99.5C 158.081,98.5489 156.415,98.2155 154.5,98.5C 154.433,97.0413 154.766,95.7079 155.5,94.5 Z"/></g>
<g><path style="opacity:1" fill="#898d96" d="M 30.5,92.5 C 31.2216,92.9175 31.7216,93.5842 32,94.5C 32.3826,93.944 32.8826,93.6107 33.5,93.5C 33.6621,95.5273 33.4955,97.5273 33,99.5C 30.8101,103.076 28.8101,106.743 27,110.5C 26.3985,107.779 26.5651,105.113 27.5,102.5C 28.3186,100.228 28.9853,97.8945 29.5,95.5C 30.404,94.791 30.7373,93.791 30.5,92.5 Z"/></g>
<g><path style="opacity:1" fill="#c4bbbd" d="M 54.5,95.5 C 54.5,95.8333 54.5,96.1667 54.5,96.5C 52.8321,100.512 51.1655,104.512 49.5,108.5C 49.0503,103.157 50.7169,98.8237 54.5,95.5 Z"/></g>
<g><path style="opacity:1" fill="#3c1710" d="M 190.5,81.5 C 192.921,87.1226 194.588,93.1226 195.5,99.5C 196.816,105.981 197.649,105.648 198,98.5C 198.216,100.384 198.883,102.051 200,103.5C 201.494,99.6959 202.328,100.029 202.5,104.5C 203.822,104.33 204.989,104.663 206,105.5C 206.538,108.08 207.704,110.247 209.5,112C 208.458,115.064 209.624,116.897 213,117.5C 217.428,115.978 217.594,113.812 213.5,111C 215.698,110.627 217.865,110.127 220,109.5C 222.306,106.622 225.139,104.289 228.5,102.5C 229.667,99.5 230.833,96.5 232,93.5C 232.87,94.1079 233.37,94.9412 233.5,96C 232.713,98.0989 232.38,100.266 232.5,102.5C 233.822,102.67 234.989,102.337 236,101.5C 236.692,102.025 237.192,102.692 237.5,103.5C 236.094,111.219 233.594,118.552 230,125.5C 229.667,125.167 229.333,124.833 229,124.5C 227.099,129.302 224.432,133.636 221,137.5C 221.783,135.655 222.116,133.655 222,131.5C 219.688,134.646 217.188,137.646 214.5,140.5C 214.089,139.738 213.923,138.738 214,137.5C 212.883,138.949 212.216,140.616 212,142.5C 209.888,137.272 208.054,131.939 206.5,126.5C 210.985,124.776 211.652,122.109 208.5,118.5C 207.5,118.833 206.833,119.5 206.5,120.5C 207.939,122.698 207.606,123.365 205.5,122.5C 204.366,119.93 203.532,117.264 203,114.5C 202.65,118.256 203.15,121.923 204.5,125.5C 204.192,126.308 203.692,126.975 203,127.5C 202.027,125.608 201.36,123.608 201,121.5C 200.056,122.263 199.556,123.263 199.5,124.5C 200.73,129.187 203.23,132.187 207,133.5C 206.182,136.831 206.349,140.164 207.5,143.5C 206.5,143.5 205.5,143.5 204.5,143.5C 203.91,142.234 203.41,140.901 203,139.5C 202.221,140.728 201.221,141.728 200,142.5C 196.848,139.86 195.015,136.527 194.5,132.5C 196.925,124.865 199.258,117.199 201.5,109.5C 200.1,107.075 198.934,107.408 198,110.5C 197.667,110.167 197.333,109.833 197,109.5C 196.121,111.979 194.621,113.979 192.5,115.5C 188.813,115.147 186.813,113.147 186.5,109.5C 187.159,106.545 187.492,103.545 187.5,100.5C 187.5,100.167 187.5,99.8333 187.5,99.5C 188.369,93.4817 189.369,87.4817 190.5,81.5 Z"/></g>
<g><path style="opacity:1" fill="#31110c" d="M 190.5,75.5 C 190.5,77.5 190.5,79.5 190.5,81.5C 189.369,87.4817 188.369,93.4817 187.5,99.5C 188.051,86.6228 186.551,86.6228 183,99.5C 181.601,100.227 180.101,100.727 178.5,101C 179.81,104.989 179.31,108.823 177,112.5C 175.014,116.165 172.347,119.165 169,121.5C 166.129,119.285 163.963,116.451 162.5,113C 166.101,106.861 168.434,100.528 169.5,94C 168.263,93.7679 167.263,93.2679 166.5,92.5C 167.492,92.6716 168.158,92.3382 168.5,91.5C 169.117,91.6107 169.617,91.944 170,92.5C 170.278,91.5842 170.778,90.9175 171.5,90.5C 172.822,92.8021 172.822,95.1354 171.5,97.5C 174.139,98.3565 176.806,98.1898 179.5,97C 182.89,88.9555 186.057,80.7888 189,72.5C 189.232,73.7375 189.732,74.7375 190.5,75.5 Z"/></g>
<g><path style="opacity:1" fill="#1e1c25" d="M 240.5,86.5 C 240.5,87.5 240.5,88.5 240.5,89.5C 242.655,89.372 244.655,89.872 246.5,91C 246.167,91.3333 245.833,91.6667 245.5,92C 248.789,93.4103 250.456,95.9103 250.5,99.5C 252.292,99.366 253.958,99.6993 255.5,100.5C 255.5,102.833 255.5,105.167 255.5,107.5C 254.859,109.042 253.859,110.376 252.5,111.5C 249.402,110.479 246.402,109.646 243.5,109C 242.947,110.878 241.947,112.378 240.5,113.5C 240.729,107.768 241.396,102.101 242.5,96.5C 239.961,94.5796 237.961,92.2463 236.5,89.5C 236.719,87.0847 238.052,86.0847 240.5,86.5 Z"/></g>
<g><path style="opacity:1" fill="#33282e" d="M 52.5,87.5 C 54.3956,90.4301 56.2289,93.4301 58,96.5C 60.1106,101.19 60.9439,105.857 60.5,110.5C 60.631,109.761 60.4643,109.094 60,108.5C 58.5771,110.345 57.4104,112.345 56.5,114.5C 55.5832,113.873 54.5832,113.539 53.5,113.5C 53.1667,113.5 52.8333,113.5 52.5,113.5C 51.5,112.833 50.5,112.167 49.5,111.5C 50.675,111.719 51.675,111.386 52.5,110.5C 53.7988,107.128 55.4655,103.961 57.5,101C 56.6854,99.3566 55.6854,97.8566 54.5,96.5C 54.5,96.1667 54.5,95.8333 54.5,95.5C 53.9759,93.6943 53.3092,92.0276 52.5,90.5C 52.5,89.5 52.5,88.5 52.5,87.5 Z"/></g>
<g><path style="opacity:1" fill="#d5b29b" d="M 151.5,103.5 C 151.938,103.435 152.272,103.601 152.5,104C 150.498,106.86 148.165,109.36 145.5,111.5C 146.806,109.184 148.139,106.85 149.5,104.5C 150.167,104.167 150.833,103.833 151.5,103.5 Z"/></g>
<g><path style="opacity:1" fill="#5b493d" d="M 54.5,96.5 C 55.6854,97.8566 56.6854,99.3566 57.5,101C 55.4655,103.961 53.7988,107.128 52.5,110.5C 51.675,111.386 50.675,111.719 49.5,111.5C 49.5,110.5 49.5,109.5 49.5,108.5C 51.1655,104.512 52.8321,100.512 54.5,96.5 Z"/></g>
<g><path style="opacity:1" fill="#471d29" d="M 84.5,106.5 C 84.1667,107.167 83.8333,107.833 83.5,108.5C 81.4815,110.591 79.1481,112.258 76.5,113.5C 74.246,112.876 72.5794,111.543 71.5,109.5C 74.7585,108.902 77.7585,107.568 80.5,105.5C 81.8492,105.846 83.1825,106.179 84.5,106.5 Z"/></g>
<g><path style="opacity:1" fill="#111115" d="M 79.5,71.5 C 80.552,71.3505 81.552,71.5172 82.5,72C 87.6897,78.8935 93.8563,84.7268 101,89.5C 101.765,89.4301 102.265,89.0967 102.5,88.5C 109.998,88.0057 116.998,86.0057 123.5,82.5C 127.392,84.0621 130.725,86.3954 133.5,89.5C 132.559,91.7721 131.226,93.7721 129.5,95.5C 124.186,99.81 118.852,104.143 113.5,108.5C 113.833,108.833 114.167,109.167 114.5,109.5C 117.157,107.392 120.157,106.059 123.5,105.5C 129.589,102.953 135.256,99.6196 140.5,95.5C 144.5,97.5 147.5,100.5 149.5,104.5C 148.139,106.85 146.806,109.184 145.5,111.5C 140.678,115.411 135.678,119.078 130.5,122.5C 128.708,122.366 127.042,122.699 125.5,123.5C 122.833,122.634 120.167,121.634 117.5,120.5C 118.376,119.749 119.376,119.249 120.5,119C 118.295,117.923 116.295,117.257 114.5,117C 119.281,116.482 119.614,115.148 115.5,113C 111.619,112.896 108.953,111.062 107.5,107.5C 106.667,108.5 105.833,109.5 105,110.5C 104.163,108.649 103.329,106.816 102.5,105C 101.451,104.508 100.451,104.674 99.5,105.5C 96.9211,98.6715 93.5878,92.3382 89.5,86.5C 85.3468,82.0196 82.0134,77.0196 79.5,71.5 Z"/></g>
<g><path style="opacity:1" fill="#887160" d="M 129.5,95.5 C 128.595,96.9643 128.595,98.2976 129.5,99.5C 128.019,101.247 126.019,102.414 123.5,103C 124.598,103.77 124.598,104.603 123.5,105.5C 120.157,106.059 117.157,107.392 114.5,109.5C 114.167,109.167 113.833,108.833 113.5,108.5C 118.852,104.143 124.186,99.81 129.5,95.5 Z"/></g>
<g><path style="opacity:1" fill="#33140e" d="M 204.5,143.5 C 193.833,143.5 183.167,143.5 172.5,143.5C 172.351,142.448 172.517,141.448 173,140.5C 178.431,135.072 183.098,129.072 187,122.5C 186.164,119.877 185.664,117.044 185.5,114C 185.508,112.293 185.842,110.793 186.5,109.5C 186.813,113.147 188.813,115.147 192.5,115.5C 194.621,113.979 196.121,111.979 197,109.5C 197.333,109.833 197.667,110.167 198,110.5C 198.934,107.408 200.1,107.075 201.5,109.5C 199.258,117.199 196.925,124.865 194.5,132.5C 195.015,136.527 196.848,139.86 200,142.5C 201.221,141.728 202.221,140.728 203,139.5C 203.41,140.901 203.91,142.234 204.5,143.5 Z"/></g>
<g><path style="opacity:1" fill="#898a95" d="M 35.5,99.5 C 34.9035,101.398 34.9035,103.065 35.5,104.5C 35.6747,106.621 35.3414,108.621 34.5,110.5C 33.2999,113.378 31.2999,115.712 28.5,117.5C 28.1667,116.667 27.8333,115.833 27.5,115C 29.7046,109.521 32.3713,104.354 35.5,99.5 Z"/></g>
<g><path style="opacity:1" fill="#8d8261" d="M 84.5,106.5 C 87.0628,107.998 87.0628,109.665 84.5,111.5C 83.6143,110.675 83.281,109.675 83.5,108.5C 83.8333,107.833 84.1667,107.167 84.5,106.5 Z"/></g>
<g><path style="opacity:1" fill="#2d2c40" d="M 42.5,100.5 C 43.1577,101.398 43.8243,102.398 44.5,103.5C 45.4277,101.665 46.5944,101.332 48,102.5C 48.1909,104.708 48.6909,106.708 49.5,108.5C 49.5,109.5 49.5,110.5 49.5,111.5C 50.5,112.167 51.5,112.833 52.5,113.5C 52.5,114.167 52.5,114.833 52.5,115.5C 51.8166,117.176 50.4832,117.843 48.5,117.5C 48.8511,119.869 49.0178,122.203 49,124.5C 45.6998,125.626 42.3664,126.626 39,127.5C 38.5623,123.239 36.3956,120.572 32.5,119.5C 33.6336,116.63 34.3003,113.63 34.5,110.5C 35.3414,108.621 35.6747,106.621 35.5,104.5C 36.991,104.099 38.6577,103.932 40.5,104C 41.305,102.887 41.9717,101.721 42.5,100.5 Z"/></g>
<g><path style="opacity:1" fill="#0e0c0d" d="M 89.5,86.5 C 93.5878,92.3382 96.9211,98.6715 99.5,105.5C 100.451,104.674 101.451,104.508 102.5,105C 103.329,106.816 104.163,108.649 105,110.5C 105.833,109.5 106.667,108.5 107.5,107.5C 108.953,111.062 111.619,112.896 115.5,113C 119.614,115.148 119.281,116.482 114.5,117C 116.295,117.257 118.295,117.923 120.5,119C 119.376,119.249 118.376,119.749 117.5,120.5C 120.167,121.634 122.833,122.634 125.5,123.5C 123.146,126.683 119.979,128.35 116,128.5C 109.747,128.248 104.247,126.082 99.5,122C 95.8333,121.333 92.1667,121.333 88.5,122C 86.5116,125.501 84.1783,128.668 81.5,131.5C 79.3226,134.754 76.3226,136.754 72.5,137.5C 70.5,137.5 68.5,137.5 66.5,137.5C 61.4712,134.813 59.4712,130.48 60.5,124.5C 63.3245,124.081 65.4912,125.081 67,127.5C 67.6877,128.332 67.521,128.998 66.5,129.5C 65.3914,128.41 64.3914,128.41 63.5,129.5C 64.1667,131.5 65.5,132.833 67.5,133.5C 71.5661,132.14 74.8995,129.807 77.5,126.5C 78.7927,124.704 80.2927,123.037 82,121.5C 82.5946,122.899 82.4279,124.232 81.5,125.5C 81.8457,126.696 82.3457,126.696 83,125.5C 86.0863,118.488 87.5863,111.155 87.5,103.5C 88.1174,103.389 88.6174,103.056 89,102.5C 89.226,98.1126 89.726,93.7793 90.5,89.5C 89.8728,88.5832 89.5394,87.5832 89.5,86.5 Z"/></g>
<g><path style="opacity:1" fill="#505461" d="M 33.5,93.5 C 34.2216,93.9175 34.7216,94.5842 35,95.5C 35.3826,94.944 35.8826,94.6107 36.5,94.5C 36.3713,96.2161 36.038,97.8828 35.5,99.5C 32.3713,104.354 29.7046,109.521 27.5,115C 27.8333,115.833 28.1667,116.667 28.5,117.5C 31.2999,115.712 33.2999,113.378 34.5,110.5C 34.3003,113.63 33.6336,116.63 32.5,119.5C 31.8333,119.5 31.5,119.833 31.5,120.5C 28.8723,121.459 26.2056,121.959 23.5,122C 25.5938,120.745 26.5938,118.912 26.5,116.5C 26.1402,113.298 25.4735,110.298 24.5,107.5C 24.7497,105.326 25.7497,103.659 27.5,102.5C 26.5651,105.113 26.3985,107.779 27,110.5C 28.8101,106.743 30.8101,103.076 33,99.5C 33.4955,97.5273 33.6621,95.5273 33.5,93.5 Z"/></g>
<g><path style="opacity:1" fill="#371f24" d="M 87.5,103.5 C 87.5863,111.155 86.0863,118.488 83,125.5C 82.3457,126.696 81.8457,126.696 81.5,125.5C 82.4279,124.232 82.5946,122.899 82,121.5C 80.2927,123.037 78.7927,124.704 77.5,126.5C 76.9569,126.44 76.6236,126.107 76.5,125.5C 77.4803,124.019 78.647,122.685 80,121.5C 80.5954,117.825 79.762,117.658 77.5,121C 71.5543,122.235 65.5543,123.068 59.5,123.5C 59.5,124.833 59.5,126.167 59.5,127.5C 58.5386,125.735 58.2053,123.735 58.5,121.5C 61.0593,121.802 63.3926,121.468 65.5,120.5C 68.0821,120.975 70.0821,120.308 71.5,118.5C 74.8188,120.339 77.1521,119.505 78.5,116C 78.3613,114.699 77.6946,113.866 76.5,113.5C 79.1481,112.258 81.4815,110.591 83.5,108.5C 83.281,109.675 83.6143,110.675 84.5,111.5C 87.0628,109.665 87.0628,107.998 84.5,106.5C 84.8564,104.81 85.8564,103.81 87.5,103.5 Z"/></g>
<g><path style="opacity:1" fill="#1b0c0c" d="M 163.5,84.5 C 165.969,85.5686 168.302,86.9019 170.5,88.5C 170.833,89.1667 171.167,89.8333 171.5,90.5C 170.778,90.9175 170.278,91.5842 170,92.5C 169.617,91.944 169.117,91.6107 168.5,91.5C 166.516,90.8443 164.516,90.1776 162.5,89.5C 160.431,89.8242 160.098,90.6575 161.5,92C 163.134,92.4935 164.801,92.6602 166.5,92.5C 167.263,93.2679 168.263,93.7679 169.5,94C 168.434,100.528 166.101,106.861 162.5,113C 163.963,116.451 166.129,119.285 169,121.5C 172.347,119.165 175.014,116.165 177,112.5C 179.31,108.823 179.81,104.989 178.5,101C 180.101,100.727 181.601,100.227 183,99.5C 186.551,86.6228 188.051,86.6228 187.5,99.5C 187.5,99.8333 187.5,100.167 187.5,100.5C 184.641,107.89 181.475,115.223 178,122.5C 176.43,123.614 175.097,124.947 174,126.5C 173.805,124.793 173.805,123.126 174,121.5C 170.941,122.557 168.441,124.391 166.5,127C 167.615,128.393 168.115,129.893 168,131.5C 164.703,134.567 160.869,136.733 156.5,138C 158.155,139.444 158.822,141.278 158.5,143.5C 137.833,143.5 117.167,143.5 96.5,143.5C 91.9208,140.593 87.9208,136.926 84.5,132.5C 83.5832,131.873 82.5832,131.539 81.5,131.5C 84.1783,128.668 86.5116,125.501 88.5,122C 92.1667,121.333 95.8333,121.333 99.5,122C 104.247,126.082 109.747,128.248 116,128.5C 119.979,128.35 123.146,126.683 125.5,123.5C 127.042,122.699 128.708,122.366 130.5,122.5C 129.284,124.451 127.618,125.951 125.5,127C 138.884,123.969 150.217,117.303 159.5,107C 158.57,104.565 156.903,103.065 154.5,102.5C 156.22,101.692 157.887,100.692 159.5,99.5C 161.028,99.4827 161.528,98.816 161,97.5C 159.736,95.393 157.903,94.393 155.5,94.5C 157.119,90.226 159.786,86.8926 163.5,84.5 Z"/></g>
<g><path style="opacity:1" fill="#aa744c" d="M 168.5,91.5 C 168.158,92.3382 167.492,92.6716 166.5,92.5C 164.801,92.6602 163.134,92.4935 161.5,92C 160.098,90.6575 160.431,89.8242 162.5,89.5C 164.516,90.1776 166.516,90.8443 168.5,91.5 Z"/></g>
<g><path style="opacity:1" fill="#402229" d="M 66.5,108.5 C 67.8333,108.833 69.1667,109.167 70.5,109.5C 69.8761,109.917 69.5427,110.584 69.5,111.5C 70.1869,113.177 70.8535,114.844 71.5,116.5C 66.739,118.466 62.4057,117.799 58.5,114.5C 58.8555,113.478 59.5222,112.811 60.5,112.5C 62.2459,110.748 64.2459,109.415 66.5,108.5 Z"/></g>
<g><path style="opacity:1" fill="#886c57" d="M 151.5,103.5 C 151.5,103.167 151.5,102.833 151.5,102.5C 152.5,102.5 153.5,102.5 154.5,102.5C 156.903,103.065 158.57,104.565 159.5,107C 150.217,117.303 138.884,123.969 125.5,127C 127.618,125.951 129.284,124.451 130.5,122.5C 135.678,119.078 140.678,115.411 145.5,111.5C 148.165,109.36 150.498,106.86 152.5,104C 152.272,103.601 151.938,103.435 151.5,103.5 Z"/></g>
<g><path style="opacity:1" fill="#8f8467" d="M 60.5,110.5 C 60.5,111.167 60.5,111.833 60.5,112.5C 59.5222,112.811 58.8555,113.478 58.5,114.5C 62.4057,117.799 66.739,118.466 71.5,116.5C 71.5,117.167 71.5,117.833 71.5,118.5C 70.0821,120.308 68.0821,120.975 65.5,120.5C 60.1219,120.387 56.1219,118.054 53.5,113.5C 54.5832,113.539 55.5832,113.873 56.5,114.5C 57.4104,112.345 58.5771,110.345 60,108.5C 60.4643,109.094 60.631,109.761 60.5,110.5 Z"/></g>
<g><path style="opacity:1" fill="#70644d" d="M 70.5,109.5 C 70.8333,109.5 71.1667,109.5 71.5,109.5C 72.5794,111.543 74.246,112.876 76.5,113.5C 77.6946,113.866 78.3613,114.699 78.5,116C 77.1521,119.505 74.8188,120.339 71.5,118.5C 71.5,117.833 71.5,117.167 71.5,116.5C 70.8535,114.844 70.1869,113.177 69.5,111.5C 69.5427,110.584 69.8761,109.917 70.5,109.5 Z"/></g>
<g><path style="opacity:1" fill="#251316" d="M 77.5,126.5 C 74.8995,129.807 71.5661,132.14 67.5,133.5C 65.5,132.833 64.1667,131.5 63.5,129.5C 64.3914,128.41 65.3914,128.41 66.5,129.5C 67.521,128.998 67.6877,128.332 67,127.5C 65.4912,125.081 63.3245,124.081 60.5,124.5C 59.4712,130.48 61.4712,134.813 66.5,137.5C 65.1667,137.5 63.8333,137.5 62.5,137.5C 60.7073,135.574 59.7073,133.241 59.5,130.5C 59.5,129.5 59.5,128.5 59.5,127.5C 59.5,126.167 59.5,124.833 59.5,123.5C 65.5543,123.068 71.5543,122.235 77.5,121C 79.762,117.658 80.5954,117.825 80,121.5C 78.647,122.685 77.4803,124.019 76.5,125.5C 76.6236,126.107 76.9569,126.44 77.5,126.5 Z"/></g>
<g><path style="opacity:1" fill="#6d5f51" d="M 52.5,113.5 C 52.8333,113.5 53.1667,113.5 53.5,113.5C 56.1219,118.054 60.1219,120.387 65.5,120.5C 63.3926,121.468 61.0593,121.802 58.5,121.5C 58.2053,123.735 58.5386,125.735 59.5,127.5C 59.5,128.5 59.5,129.5 59.5,130.5C 58.8333,130.5 58.5,130.833 58.5,131.5C 54.746,130.172 53.5793,127.506 55,123.5C 55.6924,122.975 56.1924,122.308 56.5,121.5C 55.1433,119.435 53.81,117.435 52.5,115.5C 52.5,114.833 52.5,114.167 52.5,113.5 Z"/></g>
<g><path style="opacity:1" fill="#242434" d="M 52.5,115.5 C 53.81,117.435 55.1433,119.435 56.5,121.5C 56.1924,122.308 55.6924,122.975 55,123.5C 53.5793,127.506 54.746,130.172 58.5,131.5C 57.791,132.404 56.791,132.737 55.5,132.5C 55.5,133.833 55.5,135.167 55.5,136.5C 54.1779,136.33 53.0113,136.663 52,137.5C 50.8333,136.333 49.6667,135.167 48.5,134C 49.8333,133 49.8333,132 48.5,131C 45.9765,132.048 43.1431,132.548 40,132.5C 39.0922,130.561 37.5922,129.561 35.5,129.5C 35.6254,126.392 34.2921,124.392 31.5,123.5C 31.5,122.5 31.5,121.5 31.5,120.5C 31.5,119.833 31.8333,119.5 32.5,119.5C 36.3956,120.572 38.5623,123.239 39,127.5C 42.3664,126.626 45.6998,125.626 49,124.5C 49.0178,122.203 48.8511,119.869 48.5,117.5C 50.4832,117.843 51.8166,117.176 52.5,115.5 Z"/></g>
<g><path style="opacity:1" fill="#230f0b" d="M 187.5,100.5 C 187.492,103.545 187.159,106.545 186.5,109.5C 185.842,110.793 185.508,112.293 185.5,114C 185.664,117.044 186.164,119.877 187,122.5C 183.098,129.072 178.431,135.072 173,140.5C 172.517,141.448 172.351,142.448 172.5,143.5C 167.833,143.5 163.167,143.5 158.5,143.5C 158.822,141.278 158.155,139.444 156.5,138C 160.869,136.733 164.703,134.567 168,131.5C 168.115,129.893 167.615,128.393 166.5,127C 168.441,124.391 170.941,122.557 174,121.5C 173.805,123.126 173.805,124.793 174,126.5C 175.097,124.947 176.43,123.614 178,122.5C 181.475,115.223 184.641,107.89 187.5,100.5 Z"/></g>
<g><path style="opacity:1" fill="#100e10" d="M 255.5,107.5 C 255.5,119.5 255.5,131.5 255.5,143.5C 245.833,143.5 236.167,143.5 226.5,143.5C 232.253,133.994 236.92,123.994 240.5,113.5C 241.947,112.378 242.947,110.878 243.5,109C 246.402,109.646 249.402,110.479 252.5,111.5C 253.859,110.376 254.859,109.042 255.5,107.5 Z"/></g>
<g><path style="opacity:1" fill="#2a3332" d="M 24.5,107.5 C 25.4735,110.298 26.1402,113.298 26.5,116.5C 26.5938,118.912 25.5938,120.745 23.5,122C 26.2056,121.959 28.8723,121.459 31.5,120.5C 31.5,121.5 31.5,122.5 31.5,123.5C 31.2178,124.778 30.5511,125.778 29.5,126.5C 28.5828,131.004 27.5828,135.504 26.5,140C 26.6483,141.256 26.9816,142.423 27.5,143.5C 18.1667,143.5 8.83333,143.5 -0.5,143.5C -0.5,135.5 -0.5,127.5 -0.5,119.5C 1.43525,118.85 3.43525,118.517 5.5,118.5C 5.2965,116.61 5.96317,115.11 7.5,114C 4.0602,113.061 1.72687,110.895 0.5,107.5C 1.78624,105.429 3.45291,105.096 5.5,106.5C 4.14682,107.524 3.48015,108.857 3.5,110.5C 8.56495,110.219 13.5649,110.552 18.5,111.5C 20.7901,110.533 22.7901,109.2 24.5,107.5 Z"/></g>
<g><path style="opacity:1" fill="#1e1c27" d="M 31.5,123.5 C 34.2921,124.392 35.6254,126.392 35.5,129.5C 37.5922,129.561 39.0922,130.561 40,132.5C 43.1431,132.548 45.9765,132.048 48.5,131C 49.8333,132 49.8333,133 48.5,134C 49.6667,135.167 50.8333,136.333 52,137.5C 53.0113,136.663 54.1779,136.33 55.5,136.5C 55.5,135.167 55.5,133.833 55.5,132.5C 56.791,132.737 57.791,132.404 58.5,131.5C 58.5,130.833 58.8333,130.5 59.5,130.5C 59.7073,133.241 60.7073,135.574 62.5,137.5C 63.1495,139.435 63.4828,141.435 63.5,143.5C 60.5,143.5 57.5,143.5 54.5,143.5C 53.9886,141.805 53.3219,140.139 52.5,138.5C 50.2823,139.188 48.7823,138.188 48,135.5C 43.9218,136.802 39.7551,137.802 35.5,138.5C 35.7746,143.22 34.9412,143.554 33,139.5C 32.2165,136.24 32.3832,133.073 33.5,130C 32.4677,128.373 31.1344,127.207 29.5,126.5C 30.5511,125.778 31.2178,124.778 31.5,123.5 Z"/></g>
<g><path style="opacity:1" fill="#2a110e" d="M 81.5,131.5 C 82.5832,131.539 83.5832,131.873 84.5,132.5C 87.9208,136.926 91.9208,140.593 96.5,143.5C 88.5,143.5 80.5,143.5 72.5,143.5C 73.1175,141.771 74.1175,140.271 75.5,139C 74.2625,138.768 73.2625,138.268 72.5,137.5C 76.3226,136.754 79.3226,134.754 81.5,131.5 Z"/></g>
<g><path style="opacity:1" fill="#421c16" d="M 62.5,137.5 C 63.8333,137.5 65.1667,137.5 66.5,137.5C 68.5,137.5 70.5,137.5 72.5,137.5C 73.2625,138.268 74.2625,138.768 75.5,139C 74.1175,140.271 73.1175,141.771 72.5,143.5C 69.5,143.5 66.5,143.5 63.5,143.5C 63.4828,141.435 63.1495,139.435 62.5,137.5 Z"/></g>
<g><path style="opacity:1" fill="#141418" d="M 29.5,126.5 C 31.1344,127.207 32.4677,128.373 33.5,130C 32.3832,133.073 32.2165,136.24 33,139.5C 34.9412,143.554 35.7746,143.22 35.5,138.5C 39.7551,137.802 43.9218,136.802 48,135.5C 48.7823,138.188 50.2823,139.188 52.5,138.5C 53.3219,140.139 53.9886,141.805 54.5,143.5C 45.5,143.5 36.5,143.5 27.5,143.5C 26.9816,142.423 26.6483,141.256 26.5,140C 27.5828,135.504 28.5828,131.004 29.5,126.5 Z"/></g>
</svg>
