<?xml version="1.0" encoding="UTF-8"?>
<!DOCTYPE svg PUBLIC "-//W3C//DTD SVG 1.1//EN" "http://www.w3.org/Graphics/SVG/1.1/DTD/svg11.dtd">
<svg xmlns="http://www.w3.org/2000/svg" version="1.1" width="256px" height="144px" style="shape-rendering:geometricPrecision; text-rendering:geometricPrecision; image-rendering:optimizeQuality; fill-rule:evenodd; clip-rule:evenodd" xmlns:xlink="http://www.w3.org/1999/xlink">
<g><path style="opacity:1" fill="#5778de" d="M 63.5,-0.5 C 65.5,-0.5 67.5,-0.5 69.5,-0.5C 69.6655,3.51383 69.4988,7.51383 69,11.5C 67.3924,7.94393 65.5591,4.6106 63.5,1.5C 63.5,0.833333 63.5,0.166667 63.5,-0.5 Z"/></g>
<g><path style="opacity:1" fill="#060d16" d="M 70.5,-0.5 C 74.5,-0.5 78.5,-0.5 82.5,-0.5C 82.3336,7.50694 82.5003,15.5069 83,23.5C 83.2784,22.5842 83.7784,21.9175 84.5,21.5C 83.6713,24.4686 83.5046,27.4686 84,30.5C 86.0017,34.3418 87.5017,38.3418 88.5,42.5C 88.7947,44.7354 88.4614,46.7354 87.5,48.5C 85.1534,43.8068 82.8201,39.1401 80.5,34.5C 76.8327,28.4987 73.666,22.1654 71,15.5C 70.5006,10.1771 70.334,4.84372 70.5,-0.5 Z"/></g>
<g><path style="opacity:1" fill="#96cff5" d="M 89.5,-0.5 C 93.8333,-0.5 98.1667,-0.5 102.5,-0.5C 102.297,1.39037 102.963,2.89037 104.5,4C 106.78,4.21175 108.78,5.04508 110.5,6.5C 111.719,5.73659 112.719,4.73659 113.5,3.5C 114.016,6.25058 115.183,8.58391 117,10.5C 118.397,7.9324 119.564,8.09907 120.5,11C 118.646,12.2896 118.313,13.7896 119.5,15.5C 119,16.5 118.5,17.5 118,18.5C 116.366,15.0119 113.699,12.6786 110,11.5C 110.176,15.2016 111.51,18.5349 114,21.5C 114.499,27.4908 114.666,33.4908 114.5,39.5C 113.5,39.5 112.5,39.5 111.5,39.5C 110.267,36.4271 108.767,36.0938 107,38.5C 105.905,37.3066 105.072,35.9733 104.5,34.5C 100.97,30.0115 98.4698,25.0115 97,19.5C 98.2482,25.0971 99.4148,30.7638 100.5,36.5C 98.4078,36.4386 96.9078,35.4386 96,33.5C 90.9287,22.7415 88.762,11.4082 89.5,-0.5 Z"/></g>
<g><path style="opacity:1" fill="#31748f" d="M 228.5,-0.5 C 229.5,-0.5 230.5,-0.5 231.5,-0.5C 231.09,5.62076 231.59,11.6208 233,17.5C 233.333,16.1667 233.667,14.8333 234,13.5C 235.278,17.1653 236.444,20.832 237.5,24.5C 235.94,22.4123 233.773,20.079 231,17.5C 230.162,12.1539 229.329,6.82058 228.5,1.5C 228.5,0.833333 228.5,0.166667 228.5,-0.5 Z"/></g>
<g><path style="opacity:1" fill="#243e53" d="M 23.5,-0.5 C 25.1667,-0.5 26.8333,-0.5 28.5,-0.5C 28.5,-0.166667 28.5,0.166667 28.5,0.5C 27.3065,0.970406 26.6399,1.97041 26.5,3.5C 25.7543,7.13168 25.421,10.7983 25.5,14.5C 20.5055,14.2635 19.1722,15.9301 21.5,19.5C 19.8561,19.7135 18.3561,19.3802 17,18.5C 16.5026,15.854 16.3359,13.1873 16.5,10.5C 21.6679,8.47387 24.0013,4.8072 23.5,-0.5 Z"/></g>
<g><path style="opacity:1" fill="#8bbfe2" d="M 102.5,-0.5 C 115.167,-0.5 127.833,-0.5 140.5,-0.5C 141.787,2.40612 142.787,5.40612 143.5,8.5C 143.885,12.044 144.885,15.3773 146.5,18.5C 147.167,21.8333 147.833,25.1667 148.5,28.5C 147.207,27.158 146.374,25.4913 146,23.5C 145,24.8333 144,24.8333 143,23.5C 141.667,25.1667 140.333,26.8333 139,28.5C 137.89,26.9632 136.39,26.2965 134.5,26.5C 130.808,24.3273 126.975,22.3273 123,20.5C 120.597,22.305 118.93,24.6384 118,27.5C 117.333,26.8333 116.667,26.1667 116,25.5C 115.501,29.8206 115.334,34.1539 115.5,38.5C 115.582,40.2517 114.749,41.2517 113,41.5C 111.97,41.1639 111.47,40.4972 111.5,39.5C 112.5,39.5 113.5,39.5 114.5,39.5C 114.666,33.4908 114.499,27.4908 114,21.5C 111.51,18.5349 110.176,15.2016 110,11.5C 113.699,12.6786 116.366,15.0119 118,18.5C 118.5,17.5 119,16.5 119.5,15.5C 118.313,13.7896 118.646,12.2896 120.5,11C 119.564,8.09907 118.397,7.9324 117,10.5C 115.183,8.58391 114.016,6.25058 113.5,3.5C 112.719,4.73659 111.719,5.73659 110.5,6.5C 108.78,5.04508 106.78,4.21175 104.5,4C 102.963,2.89037 102.297,1.39037 102.5,-0.5 Z"/></g>
<g><path style="opacity:1" fill="#284259" d="M 82.5,-0.5 C 83.5,-0.5 84.5,-0.5 85.5,-0.5C 85.7973,6.92038 85.464,14.2537 84.5,21.5C 83.7784,21.9175 83.2784,22.5842 83,23.5C 82.5003,15.5069 82.3336,7.50694 82.5,-0.5 Z"/></g>
<g><path style="opacity:1" fill="#17253c" d="M 58.5,-0.5 C 60.1667,-0.5 61.8333,-0.5 63.5,-0.5C 63.5,0.166667 63.5,0.833333 63.5,1.5C 63.4392,5.04873 64.2725,8.38207 66,11.5C 70.2095,19.2602 74.3762,26.9269 78.5,34.5C 78.5,35.1667 78.5,35.8333 78.5,36.5C 77.609,35.8902 76.609,35.5569 75.5,35.5C 72.4402,28.9751 68.9402,22.6418 65,16.5C 62.8134,10.8016 60.6468,5.13496 58.5,-0.5 Z"/></g>
<g><path style="opacity:1" fill="#93cae8" d="M 158.5,-0.5 C 164.167,-0.5 169.833,-0.5 175.5,-0.5C 175.47,9.49433 172.803,18.4943 167.5,26.5C 164.586,19.6092 161.919,12.6092 159.5,5.5C 159.675,3.3792 159.341,1.3792 158.5,-0.5 Z"/></g>
<g><path style="opacity:1" fill="#5c84c6" d="M 31.5,-0.5 C 36.8333,-0.5 42.1667,-0.5 47.5,-0.5C 47.8789,4.2973 47.3789,8.96396 46,13.5C 43.2236,14.685 40.3903,14.685 37.5,13.5C 35.1142,14.2616 34.4475,15.595 35.5,17.5C 33.1667,17.5 30.8333,17.5 28.5,17.5C 30.0457,11.6218 31.0457,5.62182 31.5,-0.5 Z"/></g>
<g><path style="opacity:1" fill="#183244" d="M 179.5,-0.5 C 180.833,-0.5 182.167,-0.5 183.5,-0.5C 183.203,7.09466 181.87,14.428 179.5,21.5C 176.23,27.0399 173.23,32.7065 170.5,38.5C 170.34,36.8008 170.506,35.1341 171,33.5C 172.761,30.5889 174.261,27.5889 175.5,24.5C 178.315,20.7885 178.981,16.7885 177.5,12.5C 178.91,8.29609 179.577,3.96276 179.5,-0.5 Z"/></g>
<g><path style="opacity:1" fill="#2e499b" d="M 193.5,-0.5 C 195.167,-0.5 196.833,-0.5 198.5,-0.5C 198.64,2.8747 199.14,6.20804 200,9.5C 204.995,12.0575 205.495,15.0575 201.5,18.5C 195.936,19.8678 191.436,22.8678 188,27.5C 187.506,25.8659 187.34,24.1992 187.5,22.5C 189.239,14.824 191.239,7.15734 193.5,-0.5 Z"/></g>
<g><path style="opacity:1" fill="#1c577a" d="M 212.5,-0.5 C 213.833,-0.5 215.167,-0.5 216.5,-0.5C 217.105,1.02568 218.271,2.02568 220,2.5C 220.767,6.59355 220.434,10.5935 219,14.5C 218.25,15.1258 217.416,15.6258 216.5,16C 217.78,18.1317 217.78,20.2984 216.5,22.5C 217.311,23.2164 217.978,24.0497 218.5,25C 217.2,26.5802 215.866,28.0802 214.5,29.5C 212.423,30.5234 210.423,30.19 208.5,28.5C 209.918,26.6921 211.918,26.0254 214.5,26.5C 214.69,24.0411 213.69,22.3745 211.5,21.5C 212.492,14.3524 212.825,7.01905 212.5,-0.5 Z"/></g>
<g><path style="opacity:1" fill="#7cb1d3" d="M 85.5,-0.5 C 86.8333,-0.5 88.1667,-0.5 89.5,-0.5C 88.762,11.4082 90.9287,22.7415 96,33.5C 96.9078,35.4386 98.4078,36.4386 100.5,36.5C 99.4148,30.7638 98.2482,25.0971 97,19.5C 98.4698,25.0115 100.97,30.0115 104.5,34.5C 102.824,35.1834 102.157,36.5168 102.5,38.5C 102.662,40.5273 102.495,42.5273 102,44.5C 99.7519,41.672 97.7519,38.672 96,35.5C 95.6352,39.5201 96.4686,43.1868 98.5,46.5C 97.2141,49.117 95.5475,51.4504 93.5,53.5C 92.1386,49.7646 90.4719,46.0979 88.5,42.5C 87.5017,38.3418 86.0017,34.3418 84,30.5C 83.5046,27.4686 83.6713,24.4686 84.5,21.5C 85.464,14.2537 85.7973,6.92038 85.5,-0.5 Z"/></g>
<g><path style="opacity:1" fill="#438da8" d="M 28.5,-0.5 C 29.5,-0.5 30.5,-0.5 31.5,-0.5C 31.0457,5.62182 30.0457,11.6218 28.5,17.5C 28.5,17.8333 28.5,18.1667 28.5,18.5C 27.6942,17.0028 27.0276,15.3361 26.5,13.5C 29.24,9.39994 29.9067,5.0666 28.5,0.5C 28.5,0.166667 28.5,-0.166667 28.5,-0.5 Z"/></g>
<g><path style="opacity:1" fill="#1a2d39" d="M -0.5,-0.5 C 7.5,-0.5 15.5,-0.5 23.5,-0.5C 24.0013,4.8072 21.6679,8.47387 16.5,10.5C 16.3359,13.1873 16.5026,15.854 17,18.5C 18.3561,19.3802 19.8561,19.7135 21.5,19.5C 20.6371,20.9403 20.6371,22.2736 21.5,23.5C 19.9617,25.2433 18.9617,27.2433 18.5,29.5C 15.1825,30.2209 11.8492,30.3876 8.5,30C 7.62404,28.414 6.62404,26.914 5.5,25.5C 4.7261,24.2888 3.89277,24.2888 3,25.5C 2.08529,24.6721 1.41862,23.6721 1,22.5C 0.78997,24.0581 0.28997,25.3915 -0.5,26.5C -0.5,17.5 -0.5,8.5 -0.5,-0.5 Z"/></g>
<g><path style="opacity:1" fill="#194455" d="M 159.5,5.5 C 161.919,12.6092 164.586,19.6092 167.5,26.5C 167.5,27.5 167.5,28.5 167.5,29.5C 163.49,24.4795 160.823,18.8128 159.5,12.5C 158.454,10.1183 158.454,7.78493 159.5,5.5 Z"/></g>
<g><path style="opacity:1" fill="#0a1636" d="M 231.5,-0.5 C 231.833,-0.5 232.167,-0.5 232.5,-0.5C 235.977,0.322695 239.644,0.822695 243.5,1C 246.167,2.33333 246.167,3.66667 243.5,5C 244.88,6.32359 245.214,7.65692 244.5,9C 245.167,10.3333 246.167,11.3333 247.5,12C 246.978,12.5613 246.645,13.228 246.5,14C 248.611,16.9941 249.944,20.3275 250.5,24C 250.144,26.8593 248.477,28.3593 245.5,28.5C 242.888,29.2775 241.055,30.9441 240,33.5C 239.817,30.6353 239.317,27.9686 238.5,25.5C 238.5,24.8333 238.167,24.5 237.5,24.5C 236.444,20.832 235.278,17.1653 234,13.5C 233.667,14.8333 233.333,16.1667 233,17.5C 231.59,11.6208 231.09,5.62076 231.5,-0.5 Z"/></g>
<g><path style="opacity:1" fill="#111820" d="M 175.5,-0.5 C 176.833,-0.5 178.167,-0.5 179.5,-0.5C 179.577,3.96276 178.91,8.29609 177.5,12.5C 176.226,14.9925 175.56,17.6592 175.5,20.5C 174.356,23.9945 172.356,26.9945 169.5,29.5C 168.833,29.5 168.167,29.5 167.5,29.5C 167.5,28.5 167.5,27.5 167.5,26.5C 172.803,18.4943 175.47,9.49433 175.5,-0.5 Z"/></g>
<g><path style="opacity:1" fill="#6590e2" d="M 52.5,4.5 C 53.4865,9.31963 54.1532,14.3196 54.5,19.5C 53.6981,20.9516 53.1981,22.6183 53,24.5C 51.4851,22.3228 49.9851,20.1561 48.5,18C 51.156,13.8645 52.4893,9.36454 52.5,4.5 Z"/></g>
<g><path style="opacity:1" fill="#2d4a6e" d="M 159.5,12.5 C 160.823,18.8128 163.49,24.4795 167.5,29.5C 168.167,29.5 168.833,29.5 169.5,29.5C 168.152,31.3588 166.985,33.3588 166,35.5C 165.311,43.2441 163.478,50.5774 160.5,57.5C 160.5,56.1667 160.5,54.8333 160.5,53.5C 160.5,52.8333 160.5,52.1667 160.5,51.5C 161.769,43.2015 161.603,34.8682 160,26.5C 157.659,21.6392 155.826,16.6392 154.5,11.5C 156.292,11.366 157.958,11.6993 159.5,12.5 Z"/></g>
<g><path style="opacity:1" fill="#348e9a" d="M 177.5,12.5 C 178.981,16.7885 178.315,20.7885 175.5,24.5C 175.5,23.1667 175.5,21.8333 175.5,20.5C 175.56,17.6592 176.226,14.9925 177.5,12.5 Z"/></g>
<g><path style="opacity:1" fill="#273e82" d="M 198.5,-0.5 C 203.167,-0.5 207.833,-0.5 212.5,-0.5C 212.825,7.01905 212.492,14.3524 211.5,21.5C 210.504,21.4142 209.671,21.7476 209,22.5C 207.817,25.5256 206.651,28.5256 205.5,31.5C 201.878,29.2133 198.545,26.5466 195.5,23.5C 197.273,22.1077 199.273,20.941 201.5,20C 202.738,19.31 202.738,18.81 201.5,18.5C 205.495,15.0575 204.995,12.0575 200,9.5C 199.14,6.20804 198.64,2.8747 198.5,-0.5 Z"/></g>
<g><path style="opacity:1" fill="#5c78b3" d="M 201.5,18.5 C 202.738,18.81 202.738,19.31 201.5,20C 199.273,20.941 197.273,22.1077 195.5,23.5C 192.21,25.1236 189.543,27.4569 187.5,30.5C 186.167,27.8333 186.167,25.1667 187.5,22.5C 187.34,24.1992 187.506,25.8659 188,27.5C 191.436,22.8678 195.936,19.8678 201.5,18.5 Z"/></g>
<g><path style="opacity:1" fill="#050f19" d="M 52.5,-0.5 C 54.5,-0.5 56.5,-0.5 58.5,-0.5C 60.6468,5.13496 62.8134,10.8016 65,16.5C 68.9402,22.6418 72.4402,28.9751 75.5,35.5C 75.5713,38.3113 76.238,40.978 77.5,43.5C 76.5914,48.7298 75.4247,48.7298 74,43.5C 73.6667,43.8333 73.3333,44.1667 73,44.5C 70.3434,41.8534 68.1768,38.8534 66.5,35.5C 65.3655,33.4624 65.3655,31.4624 66.5,29.5C 63.8276,24.4368 61.661,19.1035 60,13.5C 60.2907,17.7738 60.4573,22.1071 60.5,26.5C 59.2921,25.7659 57.9587,25.4326 56.5,25.5C 56.7845,27.4147 56.4511,29.0813 55.5,30.5C 55.6773,26.7657 55.3439,23.0991 54.5,19.5C 54.1532,14.3196 53.4865,9.31963 52.5,4.5C 52.5,2.83333 52.5,1.16667 52.5,-0.5 Z"/></g>
<g><path style="opacity:1" fill="#2d4466" d="M 143.5,8.5 C 145.104,9.28696 145.771,10.6203 145.5,12.5C 147.792,12.2436 149.959,12.5769 152,13.5C 154.595,18.9876 156.261,24.6543 157,30.5C 155.527,30.8679 154.027,30.3679 152.5,29C 151.142,25.927 149.975,22.7603 149,19.5C 148.329,18.7476 147.496,18.4142 146.5,18.5C 144.885,15.3773 143.885,12.044 143.5,8.5 Z"/></g>
<g><path style="opacity:1" fill="#305270" d="M 28.5,0.5 C 29.9067,5.0666 29.24,9.39994 26.5,13.5C 27.0276,15.3361 27.6942,17.0028 28.5,18.5C 28.1417,21.2666 27.475,23.9333 26.5,26.5C 25.3871,27.9464 25.2204,29.6131 26,31.5C 27.9076,28.6677 28.741,29.001 28.5,32.5C 25.8883,33.7787 23.5549,35.4453 21.5,37.5C 19.2436,36.5615 16.9103,36.5615 14.5,37.5C 16.2723,35.0587 17.6056,32.3921 18.5,29.5C 18.9617,27.2433 19.9617,25.2433 21.5,23.5C 20.6371,22.2736 20.6371,20.9403 21.5,19.5C 19.1722,15.9301 20.5055,14.2635 25.5,14.5C 25.421,10.7983 25.7543,7.13168 26.5,3.5C 26.6399,1.97041 27.3065,0.970406 28.5,0.5 Z"/></g>
<g><path style="opacity:1" fill="#4f728c" d="M 134.5,26.5 C 137.81,31.4135 138.476,36.7469 136.5,42.5C 135.254,39.7772 133.087,38.1105 130,37.5C 129,35.5 128,33.5 127,31.5C 126.436,34.1547 125.936,36.8214 125.5,39.5C 126.415,43.1438 126.581,46.8105 126,50.5C 124.184,49.2568 122.684,49.5901 121.5,51.5C 120.5,51.5 119.5,51.5 118.5,51.5C 120.098,44.3956 119.765,37.3956 117.5,30.5C 116.832,33.3056 116.166,35.9723 115.5,38.5C 115.334,34.1539 115.501,29.8206 116,25.5C 116.667,26.1667 117.333,26.8333 118,27.5C 118.93,24.6384 120.597,22.305 123,20.5C 126.975,22.3273 130.808,24.3273 134.5,26.5 Z"/></g>
<g><path style="opacity:1" fill="#608dde" d="M 38.5,21.5 C 41.5469,23.9181 43.8802,26.9181 45.5,30.5C 45.6621,32.5273 45.4955,34.5273 45,36.5C 44.0374,39.6173 42.2041,41.9506 39.5,43.5C 39.7947,41.2646 39.4614,39.2646 38.5,37.5C 38.6199,35.2655 38.2865,33.0989 37.5,31C 38.0797,28.4753 39.0797,26.9753 40.5,26.5C 39.8131,24.8228 39.1465,23.1561 38.5,21.5 Z"/></g>
<g><path style="opacity:1" fill="#41a3bc" d="M 211.5,21.5 C 213.69,22.3745 214.69,24.0411 214.5,26.5C 211.918,26.0254 209.918,26.6921 208.5,28.5C 207.737,30.3684 206.737,32.0351 205.5,33.5C 205.5,32.8333 205.5,32.1667 205.5,31.5C 206.651,28.5256 207.817,25.5256 209,22.5C 209.671,21.7476 210.504,21.4142 211.5,21.5 Z"/></g>
<g><path style="opacity:1" fill="#2f4b5c" d="M 18.5,29.5 C 17.6056,32.3921 16.2723,35.0587 14.5,37.5C 12.9705,36.9332 11.4705,36.2666 10,35.5C 9.66667,35.8333 9.33333,36.1667 9,36.5C 6.3628,33.2477 3.19613,31.9144 -0.5,32.5C -0.5,30.5 -0.5,28.5 -0.5,26.5C 0.28997,25.3915 0.78997,24.0581 1,22.5C 1.41862,23.6721 2.08529,24.6721 3,25.5C 3.89277,24.2888 4.7261,24.2888 5.5,25.5C 6.62404,26.914 7.62404,28.414 8.5,30C 11.8492,30.3876 15.1825,30.2209 18.5,29.5 Z"/></g>
<g><path style="opacity:1" fill="#4c6cb4" d="M 28.5,17.5 C 30.8333,17.5 33.1667,17.5 35.5,17.5C 36.4884,18.795 37.4884,20.1283 38.5,21.5C 39.1465,23.1561 39.8131,24.8228 40.5,26.5C 39.0797,26.9753 38.0797,28.4753 37.5,31C 38.2865,33.0989 38.6199,35.2655 38.5,37.5C 37.7321,36.7375 37.2321,35.7375 37,34.5C 36.1072,35.7112 35.2739,35.7112 34.5,34.5C 33.9017,33.2054 33.4017,31.8721 33,30.5C 32.7679,31.7375 32.2679,32.7375 31.5,33.5C 31.1103,30.1606 30.6103,26.8273 30,23.5C 29,24.8333 28,26.1667 27,27.5C 26.6012,27.2716 26.4346,26.9382 26.5,26.5C 27.475,23.9333 28.1417,21.2666 28.5,18.5C 28.5,18.1667 28.5,17.8333 28.5,17.5 Z"/></g>
<g><path style="opacity:1" fill="#1d2d31" d="M 60.5,26.5 C 60.5,26.8333 60.5,27.1667 60.5,27.5C 60.8282,32.8746 60.4948,38.2079 59.5,43.5C 58.8165,43.8627 58.1499,44.1961 57.5,44.5C 57.7373,43.209 57.404,42.209 56.5,41.5C 56.756,37.7307 56.4227,34.0641 55.5,30.5C 56.4511,29.0813 56.7845,27.4147 56.5,25.5C 57.9587,25.4326 59.2921,25.7659 60.5,26.5 Z"/></g>
<g><path style="opacity:1" fill="#598fb8" d="M 69.5,-0.5 C 69.8333,-0.5 70.1667,-0.5 70.5,-0.5C 70.334,4.84372 70.5006,10.1771 71,15.5C 73.666,22.1654 76.8327,28.4987 80.5,34.5C 79.6043,33.4937 78.9377,33.4937 78.5,34.5C 74.3762,26.9269 70.2095,19.2602 66,11.5C 64.2725,8.38207 63.4392,5.04873 63.5,1.5C 65.5591,4.6106 67.3924,7.94393 69,11.5C 69.4988,7.51383 69.6655,3.51383 69.5,-0.5 Z"/></g>
<g><path style="opacity:1" fill="#1a2c38" d="M 223.5,-0.5 C 225.167,-0.5 226.833,-0.5 228.5,-0.5C 228.5,0.166667 228.5,0.833333 228.5,1.5C 227.475,2.37386 226.808,3.54053 226.5,5C 227.203,9.15621 227.869,13.3229 228.5,17.5C 228.392,18.4419 228.059,19.2753 227.5,20C 229.136,22.7824 229.97,25.6157 230,28.5C 230.333,36.1667 230.667,43.8333 231,51.5C 231.333,51.8333 231.667,52.1667 232,52.5C 232.852,51.4293 233.685,50.4293 234.5,49.5C 234.354,53.6066 233.02,57.2733 230.5,60.5C 230.97,61.463 231.637,61.463 232.5,60.5C 231.241,61.9791 230.241,63.6458 229.5,65.5C 227.946,66.9142 226.612,68.5808 225.5,70.5C 223.358,71.6005 221.192,72.6005 219,73.5C 218.289,71.1009 218.456,68.7676 219.5,66.5C 218.645,65.707 217.811,66.0403 217,67.5C 216.333,66.1667 216.333,64.8333 217,63.5C 220.308,60.0477 219.808,57.0477 215.5,54.5C 215.569,52.7219 215.903,50.8886 216.5,49C 215.667,48.1667 214.833,47.3333 214,46.5C 214.148,45.175 213.982,44.0084 213.5,43C 215.037,38.5004 216.704,34.0004 218.5,29.5C 220.144,29.7135 221.644,29.3802 223,28.5C 223.079,22.0466 223.912,15.7133 225.5,9.5C 224.831,6.14798 224.164,2.81464 223.5,-0.5 Z"/></g>
<g><path style="opacity:1" fill="#3b60ab" d="M 195.5,23.5 C 198.545,26.5466 201.878,29.2133 205.5,31.5C 205.5,32.1667 205.5,32.8333 205.5,33.5C 204.833,34.1667 204.167,34.8333 203.5,35.5C 202.636,30.3072 201.303,30.3072 199.5,35.5C 198.719,34.2713 198.219,32.938 198,31.5C 194.596,31.5021 192.096,33.3355 190.5,37C 189.552,37.4828 188.552,37.6495 187.5,37.5C 187.5,35.1667 187.5,32.8333 187.5,30.5C 189.543,27.4569 192.21,25.1236 195.5,23.5 Z"/></g>
<g><path style="opacity:1" fill="#4672b8" d="M 203.5,35.5 C 202.452,39.2644 201.119,42.931 199.5,46.5C 197.453,46.4889 195.453,46.1556 193.5,45.5C 189.458,45.5628 186.458,47.2294 184.5,50.5C 184.21,47.2153 184.877,44.2153 186.5,41.5C 186.433,40.0413 186.766,38.7079 187.5,37.5C 188.552,37.6495 189.552,37.4828 190.5,37C 192.096,33.3355 194.596,31.5021 198,31.5C 198.219,32.938 198.719,34.2713 199.5,35.5C 201.303,30.3072 202.636,30.3072 203.5,35.5 Z"/></g>
<g><path style="opacity:1" fill="#1e485e" d="M 228.5,1.5 C 229.329,6.82058 230.162,12.1539 231,17.5C 233.773,20.079 235.94,22.4123 237.5,24.5C 238.167,24.5 238.5,24.8333 238.5,25.5C 238.306,33.7338 236.973,41.7338 234.5,49.5C 233.685,50.4293 232.852,51.4293 232,52.5C 231.667,52.1667 231.333,51.8333 231,51.5C 230.667,43.8333 230.333,36.1667 230,28.5C 229.97,25.6157 229.136,22.7824 227.5,20C 228.059,19.2753 228.392,18.4419 228.5,17.5C 227.869,13.3229 227.203,9.15621 226.5,5C 226.808,3.54053 227.475,2.37386 228.5,1.5 Z"/></g>
<g><path style="opacity:1" fill="#8fc5e4" d="M 183.5,-0.5 C 184.167,-0.5 184.833,-0.5 185.5,-0.5C 186.379,7.31358 187.712,7.31358 189.5,-0.5C 190.833,-0.5 192.167,-0.5 193.5,-0.5C 191.239,7.15734 189.239,14.824 187.5,22.5C 186.167,25.1667 186.167,27.8333 187.5,30.5C 187.5,32.8333 187.5,35.1667 187.5,37.5C 186.766,38.7079 186.433,40.0413 186.5,41.5C 185.542,41.9528 184.708,42.6195 184,43.5C 182.882,45.7654 182.049,48.0987 181.5,50.5C 180.608,48.6382 180.441,46.6382 181,44.5C 180.075,45.0465 179.242,45.7132 178.5,46.5C 177.933,48.9823 177.266,51.3157 176.5,53.5C 176.5,52.8333 176.167,52.5 175.5,52.5C 173.061,49.9576 171.394,46.9576 170.5,43.5C 175.121,36.9117 178.121,29.5784 179.5,21.5C 181.87,14.428 183.203,7.09466 183.5,-0.5 Z"/></g>
<g><path style="opacity:1" fill="#3752a6" d="M 185.5,-0.5 C 186.833,-0.5 188.167,-0.5 189.5,-0.5C 187.712,7.31358 186.379,7.31358 185.5,-0.5 Z"/></g>
<g><path style="opacity:1" fill="#7fa1bd" d="M 148.5,28.5 C 150.328,33.1025 150.661,37.7692 149.5,42.5C 148.903,41.8614 148.07,41.528 147,41.5C 144.5,42 142,42.5 139.5,43C 138.033,45.3785 137.033,47.8785 136.5,50.5C 136.5,47.8333 136.5,45.1667 136.5,42.5C 138.476,36.7469 137.81,31.4135 134.5,26.5C 136.39,26.2965 137.89,26.9632 139,28.5C 140.333,26.8333 141.667,25.1667 143,23.5C 144,24.8333 145,24.8333 146,23.5C 146.374,25.4913 147.207,27.158 148.5,28.5 Z"/></g>
<g><path style="opacity:1" fill="#7db6e5" d="M 47.5,-0.5 C 49.1667,-0.5 50.8333,-0.5 52.5,-0.5C 52.5,1.16667 52.5,2.83333 52.5,4.5C 52.4893,9.36454 51.156,13.8645 48.5,18C 49.9851,20.1561 51.4851,22.3228 53,24.5C 53.1981,22.6183 53.6981,20.9516 54.5,19.5C 55.3439,23.0991 55.6773,26.7657 55.5,30.5C 56.4227,34.0641 56.756,37.7307 56.5,41.5C 55.4848,42.4602 55.4848,43.6269 56.5,45C 56.3613,46.301 55.6946,47.1344 54.5,47.5C 54.5,46.5 54.5,45.5 54.5,44.5C 52.1417,44.2525 50.1417,44.9192 48.5,46.5C 47.5476,41.3907 46.5476,36.0574 45.5,30.5C 43.8802,26.9181 41.5469,23.9181 38.5,21.5C 37.4884,20.1283 36.4884,18.795 35.5,17.5C 34.4475,15.595 35.1142,14.2616 37.5,13.5C 40.3903,14.685 43.2236,14.685 46,13.5C 47.3789,8.96396 47.8789,4.2973 47.5,-0.5 Z"/></g>
<g><path style="opacity:1" fill="#3f7095" d="M 179.5,21.5 C 178.121,29.5784 175.121,36.9117 170.5,43.5C 168.314,44.8233 166.814,46.8233 166,49.5C 165.847,45.1417 167.347,41.4751 170.5,38.5C 173.23,32.7065 176.23,27.0399 179.5,21.5 Z"/></g>
<g><path style="opacity:1" fill="#7bc4e0" d="M 28.5,32.5 C 30.256,33.5521 30.9227,35.2188 30.5,37.5C 28.6203,37.2291 27.287,37.8958 26.5,39.5C 23.5095,42.7923 20.5095,46.1257 17.5,49.5C 14.7146,53.4579 11.7146,57.2912 8.5,61C 5.40803,61.7358 2.40803,61.5691 -0.5,60.5C -0.5,59.5 -0.5,58.5 -0.5,57.5C 2.0795,56.7724 4.74617,56.2724 7.5,56C 8.12267,52.5459 9.78933,49.7126 12.5,47.5C 15.4715,44.1924 18.4715,40.859 21.5,37.5C 23.5549,35.4453 25.8883,33.7787 28.5,32.5 Z"/></g>
<g><path style="opacity:1" fill="#5b86c3" d="M 38.5,37.5 C 39.4614,39.2646 39.7947,41.2646 39.5,43.5C 40.2436,47.1185 40.577,50.7852 40.5,54.5C 39.5,54.8333 38.8333,55.5 38.5,56.5C 35.0095,49.3396 32.6762,41.6729 31.5,33.5C 32.2679,32.7375 32.7679,31.7375 33,30.5C 33.4017,31.8721 33.9017,33.2054 34.5,34.5C 35.2739,35.7112 36.1072,35.7112 37,34.5C 37.2321,35.7375 37.7321,36.7375 38.5,37.5 Z"/></g>
<g><path style="opacity:1" fill="#497187" d="M 14.5,37.5 C 16.9103,36.5615 19.2436,36.5615 21.5,37.5C 18.4715,40.859 15.4715,44.1924 12.5,47.5C 8.41572,46.1599 4.58239,44.1599 1,41.5C 0.617425,42.056 0.117425,42.3893 -0.5,42.5C -0.5,39.1667 -0.5,35.8333 -0.5,32.5C 3.19613,31.9144 6.3628,33.2477 9,36.5C 9.33333,36.1667 9.66667,35.8333 10,35.5C 11.4705,36.2666 12.9705,36.9332 14.5,37.5 Z"/></g>
<g><path style="opacity:1" fill="#6faaeb" d="M 45.5,30.5 C 46.5476,36.0574 47.5476,41.3907 48.5,46.5C 46.2149,49.4518 43.5483,52.1185 40.5,54.5C 40.577,50.7852 40.2436,47.1185 39.5,43.5C 42.2041,41.9506 44.0374,39.6173 45,36.5C 45.4955,34.5273 45.6621,32.5273 45.5,30.5 Z"/></g>
<g><path style="opacity:1" fill="#040c22" d="M 232.5,-0.5 C 240.167,-0.5 247.833,-0.5 255.5,-0.5C 255.5,15.8333 255.5,32.1667 255.5,48.5C 252.006,51.9498 251.339,55.7831 253.5,60C 251.957,63.3376 250.957,66.8376 250.5,70.5C 251.59,71.6086 251.59,72.6086 250.5,73.5C 249.749,72.624 249.249,71.624 249,70.5C 247.733,72.9069 247.233,75.2402 247.5,77.5C 246.705,75.5049 246.039,73.5049 245.5,71.5C 245.958,68.6062 245.291,66.1062 243.5,64C 245.891,63.3086 245.891,62.3086 243.5,61C 244.167,58.3333 244.833,55.6667 245.5,53C 244.833,52.3333 244.167,51.6667 243.5,51C 244.711,47.9047 246.044,44.9047 247.5,42C 245.075,37.717 244.408,33.217 245.5,28.5C 248.477,28.3593 250.144,26.8593 250.5,24C 249.944,20.3275 248.611,16.9941 246.5,14C 246.645,13.228 246.978,12.5613 247.5,12C 246.167,11.3333 245.167,10.3333 244.5,9C 245.214,7.65692 244.88,6.32359 243.5,5C 246.167,3.66667 246.167,2.33333 243.5,1C 239.644,0.822695 235.977,0.322695 232.5,-0.5 Z"/></g>
<g><path style="opacity:1" fill="#4e759a" d="M 102.5,38.5 C 105.224,41.9645 105.057,45.2979 102,48.5C 101.184,47.1772 100.017,46.5106 98.5,46.5C 96.4686,43.1868 95.6352,39.5201 96,35.5C 97.7519,38.672 99.7519,41.672 102,44.5C 102.495,42.5273 102.662,40.5273 102.5,38.5 Z"/></g>
<g><path style="opacity:1" fill="#161526" d="M 140.5,-0.5 C 146.5,-0.5 152.5,-0.5 158.5,-0.5C 159.341,1.3792 159.675,3.3792 159.5,5.5C 158.454,7.78493 158.454,10.1183 159.5,12.5C 157.958,11.6993 156.292,11.366 154.5,11.5C 155.826,16.6392 157.659,21.6392 160,26.5C 161.603,34.8682 161.769,43.2015 160.5,51.5C 159.521,50.2347 158.521,48.9014 157.5,47.5C 157.574,49.3121 157.241,51.3121 156.5,53.5C 155.833,53.8333 155.167,54.1667 154.5,54.5C 153.636,52.8035 152.303,51.6368 150.5,51C 152.481,50.3946 152.815,49.3946 151.5,48C 148.05,46.5713 144.717,46.4047 141.5,47.5C 139.534,46.7455 139.2,45.5788 140.5,44C 143.587,43.7411 146.587,43.2411 149.5,42.5C 150.661,37.7692 150.328,33.1025 148.5,28.5C 147.833,25.1667 147.167,21.8333 146.5,18.5C 147.496,18.4142 148.329,18.7476 149,19.5C 149.975,22.7603 151.142,25.927 152.5,29C 154.027,30.3679 155.527,30.8679 157,30.5C 156.261,24.6543 154.595,18.9876 152,13.5C 149.959,12.5769 147.792,12.2436 145.5,12.5C 145.771,10.6203 145.104,9.28696 143.5,8.5C 142.787,5.40612 141.787,2.40612 140.5,-0.5 Z"/></g>
<g><path style="opacity:1" fill="#213d51" d="M 216.5,-0.5 C 218.833,-0.5 221.167,-0.5 223.5,-0.5C 224.164,2.81464 224.831,6.14798 225.5,9.5C 223.912,15.7133 223.079,22.0466 223,28.5C 221.644,29.3802 220.144,29.7135 218.5,29.5C 216.704,34.0004 215.037,38.5004 213.5,43C 213.982,44.0084 214.148,45.175 214,46.5C 214.833,47.3333 215.667,48.1667 216.5,49C 215.903,50.8886 215.569,52.7219 215.5,54.5C 219.808,57.0477 220.308,60.0477 217,63.5C 216.333,64.8333 216.333,66.1667 217,67.5C 217.811,66.0403 218.645,65.707 219.5,66.5C 218.456,68.7676 218.289,71.1009 219,73.5C 221.192,72.6005 223.358,71.6005 225.5,70.5C 226.612,68.5808 227.946,66.9142 229.5,65.5C 229.657,66.8734 229.49,68.2068 229,69.5C 225.486,72.2907 221.652,74.624 217.5,76.5C 217,77.5 216.5,78.5 216,79.5C 215.336,76.4841 215.836,73.6508 217.5,71C 217.333,70.5 217.167,70 217,69.5C 216.581,70.6721 215.915,71.6721 215,72.5C 215.317,68.5315 214.817,64.5315 213.5,60.5C 212.232,61.4279 210.899,61.5946 209.5,61C 209.833,60.6667 210.167,60.3333 210.5,60C 209.833,57.3333 209.167,54.6667 208.5,52C 209.98,49.7534 210.647,47.2534 210.5,44.5C 209.885,40.8289 209.719,37.1623 210,33.5C 211.667,32.2668 213.167,30.9335 214.5,29.5C 215.866,28.0802 217.2,26.5802 218.5,25C 217.978,24.0497 217.311,23.2164 216.5,22.5C 217.78,20.2984 217.78,18.1317 216.5,16C 217.416,15.6258 218.25,15.1258 219,14.5C 220.434,10.5935 220.767,6.59355 220,2.5C 218.271,2.02568 217.105,1.02568 216.5,-0.5 Z"/></g>
<g><path style="opacity:1" fill="#180914" d="M 160.5,51.5 C 160.5,52.1667 160.5,52.8333 160.5,53.5C 158.983,53.5106 157.816,54.1772 157,55.5C 154.896,59.9217 154.063,64.5884 154.5,69.5C 154.167,70.8333 153.833,72.1667 153.5,73.5C 153.167,73.5 152.833,73.5 152.5,73.5C 148.302,65.0989 144.635,56.4322 141.5,47.5C 144.717,46.4047 148.05,46.5713 151.5,48C 152.815,49.3946 152.481,50.3946 150.5,51C 152.303,51.6368 153.636,52.8035 154.5,54.5C 155.167,54.1667 155.833,53.8333 156.5,53.5C 157.241,51.3121 157.574,49.3121 157.5,47.5C 158.521,48.9014 159.521,50.2347 160.5,51.5 Z"/></g>
<g><path style="opacity:1" fill="#5d8ea7" d="M 12.5,47.5 C 9.78933,49.7126 8.12267,52.5459 7.5,56C 4.74617,56.2724 2.0795,56.7724 -0.5,57.5C -0.5,52.5 -0.5,47.5 -0.5,42.5C 0.117425,42.3893 0.617425,42.056 1,41.5C 4.58239,44.1599 8.41572,46.1599 12.5,47.5 Z"/></g>
<g><path style="opacity:1" fill="#03050d" d="M 60.5,27.5 C 62.1794,37.8641 67.1794,46.1974 75.5,52.5C 74.8826,52.6107 74.3826,52.944 74,53.5C 73.8333,55 73.6667,56.5 73.5,58C 74.177,62.5416 74.677,67.0416 75,71.5C 73.3896,67.2867 71.5563,63.2867 69.5,59.5C 68.325,59.281 67.325,59.6143 66.5,60.5C 71.2991,68.8231 73.2991,77.8231 72.5,87.5C 72.7845,89.4147 72.4511,91.0813 71.5,92.5C 71.0372,89.779 70.3705,87.1123 69.5,84.5C 68.5,81.8333 67.5,79.1667 66.5,76.5C 65.8717,73.91 64.705,71.5766 63,69.5C 60.0276,76.139 58.1943,83.139 57.5,90.5C 54.8683,89.6733 52.2017,88.84 49.5,88C 48.7511,86.2663 48.2511,84.433 48,82.5C 47.6667,84.1667 47.3333,85.8333 47,87.5C 45.583,86.9221 44.7496,85.9221 44.5,84.5C 46.1667,82.5 47.8333,80.5 49.5,78.5C 52.4686,75.3581 55.302,72.0247 58,68.5C 58.0168,63.649 57.5168,58.8157 56.5,54C 57.2335,52.2341 57.5668,50.4008 57.5,48.5C 57.5,47.1667 57.5,45.8333 57.5,44.5C 58.1499,44.1961 58.8165,43.8627 59.5,43.5C 60.4948,38.2079 60.8282,32.8746 60.5,27.5 Z"/></g>
<g><path style="opacity:1" fill="#49a2b4" d="M 239.5,62.5 C 238.681,59.6946 238.181,56.6946 238,53.5C 237.31,54.7383 236.81,54.7383 236.5,53.5C 237.927,50.9764 239.094,48.3098 240,45.5C 240.626,51.1949 240.459,56.8615 239.5,62.5 Z"/></g>
<g><path style="opacity:1" fill="#4f7c9f" d="M 31.5,33.5 C 32.6762,41.6729 35.0095,49.3396 38.5,56.5C 38.0377,57.8799 37.0377,58.5466 35.5,58.5C 32.8853,57.7308 30.2186,57.3975 27.5,57.5C 26.8048,51.3621 26.4715,45.3621 26.5,39.5C 27.287,37.8958 28.6203,37.2291 30.5,37.5C 30.9227,35.2188 30.256,33.5521 28.5,32.5C 28.741,29.001 27.9076,28.6677 26,31.5C 25.2204,29.6131 25.3871,27.9464 26.5,26.5C 26.4346,26.9382 26.6012,27.2716 27,27.5C 28,26.1667 29,24.8333 30,23.5C 30.6103,26.8273 31.1103,30.1606 31.5,33.5 Z"/></g>
<g><path style="opacity:1" fill="#4b5e78" d="M 136.5,42.5 C 136.5,45.1667 136.5,47.8333 136.5,50.5C 135.853,51.2739 135.52,52.2739 135.5,53.5C 135.968,56.2334 136.635,58.9 137.5,61.5C 136.849,62.0906 136.182,62.7573 135.5,63.5C 134.378,62.3698 133.044,61.7031 131.5,61.5C 130.5,60.1667 129.5,58.8333 128.5,57.5C 129.875,54.549 131.708,51.8823 134,49.5C 134.874,46.9969 134.207,44.9969 132,43.5C 131.808,45.5767 131.308,47.5767 130.5,49.5C 129.104,47.0284 128.27,44.3617 128,41.5C 127.667,44.8333 127.333,48.1667 127,51.5C 125.057,52.807 123.223,52.807 121.5,51.5C 122.684,49.5901 124.184,49.2568 126,50.5C 126.581,46.8105 126.415,43.1438 125.5,39.5C 125.936,36.8214 126.436,34.1547 127,31.5C 128,33.5 129,35.5 130,37.5C 133.087,38.1105 135.254,39.7772 136.5,42.5 Z"/></g>
<g><path style="opacity:1" fill="#4183a7" d="M 205.5,33.5 C 204.614,35.7216 204.614,37.8882 205.5,40C 204.704,41.0921 204.037,42.2588 203.5,43.5C 202.904,47.5567 202.237,51.5567 201.5,55.5C 199.478,56.507 198.145,58.1737 197.5,60.5C 196.903,60.2648 196.57,59.7648 196.5,59C 198.925,55.2169 199.925,51.0502 199.5,46.5C 201.119,42.931 202.452,39.2644 203.5,35.5C 204.167,34.8333 204.833,34.1667 205.5,33.5 Z"/></g>
<g><path style="opacity:1" fill="#274269" d="M 118.5,51.5 C 116.692,50.0821 116.025,48.0821 116.5,45.5C 115.5,45.5 114.5,45.5 113.5,45.5C 113.982,48.8306 112.982,51.4973 110.5,53.5C 110.496,51.1579 109.663,49.1579 108,47.5C 107.333,52.8333 107.333,58.1667 108,63.5C 110.928,65.418 112.594,68.0847 113,71.5C 114.371,73.0414 115.871,74.3747 117.5,75.5C 117.611,76.1174 117.944,76.6174 118.5,77C 122.917,77.2275 127.25,77.7275 131.5,78.5C 130.713,80.1042 129.38,80.7709 127.5,80.5C 121.833,80.5 116.167,80.5 110.5,80.5C 112.369,79.8354 114.369,79.1687 116.5,78.5C 113.442,74.4754 109.775,71.1421 105.5,68.5C 104.749,69.376 104.249,70.376 104,71.5C 102.403,80.3536 103.736,88.687 108,96.5C 108.743,98.4406 108.576,100.274 107.5,102C 109.894,105.807 110.561,109.807 109.5,114C 111.277,118.502 112.944,123.002 114.5,127.5C 111.536,125.038 108.703,122.371 106,119.5C 105.667,120.167 105.333,120.833 105,121.5C 104.823,117.644 104.323,113.977 103.5,110.5C 101.269,93.2513 97.9361,76.2513 93.5,59.5C 93.5,57.5 93.5,55.5 93.5,53.5C 95.5475,51.4504 97.2141,49.117 98.5,46.5C 100.017,46.5106 101.184,47.1772 102,48.5C 105.057,45.2979 105.224,41.9645 102.5,38.5C 102.157,36.5168 102.824,35.1834 104.5,34.5C 105.072,35.9733 105.905,37.3066 107,38.5C 108.767,36.0938 110.267,36.4271 111.5,39.5C 111.47,40.4972 111.97,41.1639 113,41.5C 114.749,41.2517 115.582,40.2517 115.5,38.5C 116.166,35.9723 116.832,33.3056 117.5,30.5C 119.765,37.3956 120.098,44.3956 118.5,51.5 Z"/></g>
<g><path style="opacity:1" fill="#41142b" d="M 57.5,48.5 C 57.5668,50.4008 57.2335,52.2341 56.5,54C 57.5168,58.8157 58.0168,63.649 58,68.5C 55.302,72.0247 52.4686,75.3581 49.5,78.5C 49.8069,75.7201 50.8069,73.2201 52.5,71C 50.9706,64.7189 51.304,58.5523 53.5,52.5C 54.325,51.6143 55.325,51.281 56.5,51.5C 56.2627,50.209 56.596,49.209 57.5,48.5 Z"/></g>
<g><path style="opacity:1" fill="#1b2536" d="M 160.5,53.5 C 160.5,54.8333 160.5,56.1667 160.5,57.5C 160.606,60.0786 159.939,62.412 158.5,64.5C 156.866,65.9549 155.532,67.6216 154.5,69.5C 154.063,64.5884 154.896,59.9217 157,55.5C 157.816,54.1772 158.983,53.5106 160.5,53.5 Z"/></g>
<g><path style="opacity:1" fill="#7ac0dc" d="M 54.5,47.5 C 53.8333,48.5 53.1667,49.5 52.5,50.5C 50.8333,51.5 49.5,52.8333 48.5,54.5C 46.1667,56.1667 44.1667,58.1667 42.5,60.5C 40.8143,62.0165 38.981,63.3498 37,64.5C 35.7202,64.3865 34.8869,63.7199 34.5,62.5C 32.604,61.5344 30.604,61.2011 28.5,61.5C 27.7659,60.2921 27.4326,58.9587 27.5,57.5C 30.2186,57.3975 32.8853,57.7308 35.5,58.5C 37.0377,58.5466 38.0377,57.8799 38.5,56.5C 38.8333,55.5 39.5,54.8333 40.5,54.5C 43.5483,52.1185 46.2149,49.4518 48.5,46.5C 50.1417,44.9192 52.1417,44.2525 54.5,44.5C 54.5,45.5 54.5,46.5 54.5,47.5 Z"/></g>
<g><path style="opacity:1" fill="#7294b0" d="M 181.5,50.5 C 180.833,54.5 180.167,58.5 179.5,62.5C 178.325,62.281 177.325,62.6143 176.5,63.5C 175.305,67.4364 172.971,69.1031 169.5,68.5C 172.653,63.8623 174.986,58.8623 176.5,53.5C 177.266,51.3157 177.933,48.9823 178.5,46.5C 179.242,45.7132 180.075,45.0465 181,44.5C 180.441,46.6382 180.608,48.6382 181.5,50.5 Z"/></g>
<g><path style="opacity:1" fill="#1d3b5a" d="M 26.5,39.5 C 26.4715,45.3621 26.8048,51.3621 27.5,57.5C 27.4326,58.9587 27.7659,60.2921 28.5,61.5C 27.2101,62.0577 26.3768,63.0577 26,64.5C 25.0835,70.8325 24.2502,77.1659 23.5,83.5C 22.7705,88.1304 22.4372,92.7971 22.5,97.5C 22.7373,98.791 22.404,99.791 21.5,100.5C 21.6665,90.1613 21.4998,79.828 21,69.5C 20.6667,70.1667 20.3333,70.8333 20,71.5C 19.2407,85.6626 18.4073,99.6626 17.5,113.5C 17.6602,111.801 17.4935,110.134 17,108.5C 16.6667,109.167 16.3333,109.833 16,110.5C 15.5001,93.1699 15.3334,75.8365 15.5,58.5C 15.8933,55.584 16.8933,52.9174 18.5,50.5C 18.3764,49.8933 18.0431,49.56 17.5,49.5C 20.5095,46.1257 23.5095,42.7923 26.5,39.5 Z"/></g>
<g><path style="opacity:1" fill="#2b425e" d="M 78.5,37.5 C 83.2399,45.3077 87.7399,53.3077 92,61.5C 94.2613,73.9309 96.928,86.2642 100,98.5C 100.498,101.482 100.665,104.482 100.5,107.5C 95.961,95.0066 92.7943,82.0066 91,68.5C 88.7263,61.2859 85.393,54.6192 81,48.5C 79.85,44.8883 79.0166,41.2217 78.5,37.5 Z"/></g>
<g><path style="opacity:1" fill="#52749b" d="M 88.5,42.5 C 90.4719,46.0979 92.1386,49.7646 93.5,53.5C 93.5,55.5 93.5,57.5 93.5,59.5C 91.2619,56.0283 89.2619,52.3617 87.5,48.5C 88.4614,46.7354 88.7947,44.7354 88.5,42.5 Z"/></g>
<g><path style="opacity:1" fill="#7eb8ec" d="M 175.5,20.5 C 175.5,21.8333 175.5,23.1667 175.5,24.5C 174.261,27.5889 172.761,30.5889 171,33.5C 170.506,35.1341 170.34,36.8008 170.5,38.5C 167.347,41.4751 165.847,45.1417 166,49.5C 166.814,46.8233 168.314,44.8233 170.5,43.5C 171.394,46.9576 173.061,49.9576 175.5,52.5C 170.157,58.5408 164.824,64.5408 159.5,70.5C 158.867,70.1205 158.2,69.7871 157.5,69.5C 158.309,67.9291 158.643,66.2624 158.5,64.5C 159.939,62.412 160.606,60.0786 160.5,57.5C 163.478,50.5774 165.311,43.2441 166,35.5C 166.985,33.3588 168.152,31.3588 169.5,29.5C 172.356,26.9945 174.356,23.9945 175.5,20.5 Z"/></g>
<g><path style="opacity:1" fill="#5080bf" d="M 199.5,46.5 C 199.925,51.0502 198.925,55.2169 196.5,59C 196.57,59.7648 196.903,60.2648 197.5,60.5C 197.5,61.5 197.5,62.5 197.5,63.5C 196.775,67.3953 196.109,71.3953 195.5,75.5C 194.778,71.88 193.778,68.2133 192.5,64.5C 189.46,67.5393 186.794,70.8726 184.5,74.5C 183.115,75.5736 181.949,76.9069 181,78.5C 181.158,75.4981 181.658,72.4981 182.5,69.5C 184.882,63.4297 185.549,57.0964 184.5,50.5C 186.458,47.2294 189.458,45.5628 193.5,45.5C 195.453,46.1556 197.453,46.4889 199.5,46.5 Z"/></g>
<g><path style="opacity:1" fill="#121423" d="M 110.5,53.5 C 110.369,54.2389 110.536,54.9056 111,55.5C 112.385,54.4495 113.385,53.1161 114,51.5C 116.075,54.8344 116.909,58.5011 116.5,62.5C 115.911,59.2663 113.911,57.933 110.5,58.5C 110.343,59.8734 110.51,61.2068 111,62.5C 113.3,64.4094 115.8,65.7427 118.5,66.5C 117.167,66.5 115.833,66.5 114.5,66.5C 114.166,69.491 115.166,71.8243 117.5,73.5C 117.5,74.1667 117.5,74.8333 117.5,75.5C 115.871,74.3747 114.371,73.0414 113,71.5C 112.594,68.0847 110.928,65.418 108,63.5C 107.333,58.1667 107.333,52.8333 108,47.5C 109.663,49.1579 110.496,51.1579 110.5,53.5 Z"/></g>
<g><path style="opacity:1" fill="#283953" d="M 128.5,57.5 C 127.571,56.0639 126.405,54.7305 125,53.5C 124.3,55.032 123.134,56.032 121.5,56.5C 122.383,59.0368 122.383,61.7034 121.5,64.5C 119.694,63.9759 118.028,63.3092 116.5,62.5C 116.909,58.5011 116.075,54.8344 114,51.5C 113.385,53.1161 112.385,54.4495 111,55.5C 110.536,54.9056 110.369,54.2389 110.5,53.5C 112.982,51.4973 113.982,48.8306 113.5,45.5C 114.5,45.5 115.5,45.5 116.5,45.5C 116.025,48.0821 116.692,50.0821 118.5,51.5C 119.5,51.5 120.5,51.5 121.5,51.5C 123.223,52.807 125.057,52.807 127,51.5C 127.333,48.1667 127.667,44.8333 128,41.5C 128.27,44.3617 129.104,47.0284 130.5,49.5C 131.308,47.5767 131.808,45.5767 132,43.5C 134.207,44.9969 134.874,46.9969 134,49.5C 131.708,51.8823 129.875,54.549 128.5,57.5 Z"/></g>
<g><path style="opacity:1" fill="#9ab1c8" d="M 149.5,42.5 C 146.587,43.2411 143.587,43.7411 140.5,44C 139.2,45.5788 139.534,46.7455 141.5,47.5C 144.635,56.4322 148.302,65.0989 152.5,73.5C 152.565,73.9382 152.399,74.2716 152,74.5C 149.862,70.2427 146.362,68.2427 141.5,68.5C 139.105,66.8771 137.772,64.5437 137.5,61.5C 136.635,58.9 135.968,56.2334 135.5,53.5C 135.52,52.2739 135.853,51.2739 136.5,50.5C 137.033,47.8785 138.033,45.3785 139.5,43C 142,42.5 144.5,42 147,41.5C 148.07,41.528 148.903,41.8614 149.5,42.5 Z"/></g>
<g><path style="opacity:1" fill="#18182b" d="M 128.5,57.5 C 129.5,58.8333 130.5,60.1667 131.5,61.5C 131.326,63.861 130.993,66.1944 130.5,68.5C 129.733,67.828 129.066,66.9947 128.5,66C 125.964,65.8138 123.631,65.3138 121.5,64.5C 122.383,61.7034 122.383,59.0368 121.5,56.5C 123.134,56.032 124.3,55.032 125,53.5C 126.405,54.7305 127.571,56.0639 128.5,57.5 Z"/></g>
<g><path style="opacity:1" fill="#602040" d="M 56.5,41.5 C 57.404,42.209 57.7373,43.209 57.5,44.5C 57.5,45.8333 57.5,47.1667 57.5,48.5C 56.596,49.209 56.2627,50.209 56.5,51.5C 55.325,51.281 54.325,51.6143 53.5,52.5C 51.304,58.5523 50.9706,64.7189 52.5,71C 50.8069,73.2201 49.8069,75.7201 49.5,78.5C 47.8333,80.5 46.1667,82.5 44.5,84.5C 44.1667,84.5 43.8333,84.5 43.5,84.5C 46.4513,73.1903 49.4513,61.857 52.5,50.5C 53.1667,49.5 53.8333,48.5 54.5,47.5C 55.6946,47.1344 56.3613,46.301 56.5,45C 55.4848,43.6269 55.4848,42.4602 56.5,41.5 Z"/></g>
<g><path style="opacity:1" fill="#0d1833" d="M 238.5,25.5 C 239.317,27.9686 239.817,30.6353 240,33.5C 241.055,30.9441 242.888,29.2775 245.5,28.5C 244.408,33.217 245.075,37.717 247.5,42C 246.044,44.9047 244.711,47.9047 243.5,51C 244.167,51.6667 244.833,52.3333 245.5,53C 244.833,55.6667 244.167,58.3333 243.5,61C 245.891,62.3086 245.891,63.3086 243.5,64C 245.291,66.1062 245.958,68.6062 245.5,71.5C 243.927,69.1638 242.594,69.1638 241.5,71.5C 239.618,74.8935 237.118,77.8935 234,80.5C 234.476,82.3201 234.309,83.9867 233.5,85.5C 232.924,82.8758 231.59,82.2092 229.5,83.5C 233.109,76.6168 236.442,69.6168 239.5,62.5C 240.459,56.8615 240.626,51.1949 240,45.5C 239.094,48.3098 237.927,50.9764 236.5,53.5C 235.662,53.8417 235.328,54.5084 235.5,55.5C 234.263,56.9649 233.263,58.6316 232.5,60.5C 231.637,61.463 230.97,61.463 230.5,60.5C 233.02,57.2733 234.354,53.6066 234.5,49.5C 236.973,41.7338 238.306,33.7338 238.5,25.5 Z"/></g>
<g><path style="opacity:1" fill="#2e3b68" d="M 131.5,61.5 C 133.044,61.7031 134.378,62.3698 135.5,63.5C 136.182,62.7573 136.849,62.0906 137.5,61.5C 137.772,64.5437 139.105,66.8771 141.5,68.5C 142.11,69.391 142.443,70.391 142.5,71.5C 142.5,72.5 142.5,73.5 142.5,74.5C 141.07,74.4208 139.736,74.7542 138.5,75.5C 137.333,77.1667 136.167,78.8333 135,80.5C 134.768,79.2625 134.268,78.2625 133.5,77.5C 134.075,73.8453 133.075,70.8453 130.5,68.5C 130.993,66.1944 131.326,63.861 131.5,61.5 Z"/></g>
<g><path style="opacity:1" fill="#150b0f" d="M 116.5,62.5 C 118.028,63.3092 119.694,63.9759 121.5,64.5C 123.631,65.3138 125.964,65.8138 128.5,66C 129.066,66.9947 129.733,67.828 130.5,68.5C 133.075,70.8453 134.075,73.8453 133.5,77.5C 132.833,77.5 132.5,77.8333 132.5,78.5C 132.167,78.5 131.833,78.5 131.5,78.5C 127.25,77.7275 122.917,77.2275 118.5,77C 117.944,76.6174 117.611,76.1174 117.5,75.5C 117.5,74.8333 117.5,74.1667 117.5,73.5C 118.391,74.1098 119.391,74.4431 120.5,74.5C 122.265,75.4614 124.265,75.7947 126.5,75.5C 128.239,76.4339 129.905,76.4339 131.5,75.5C 129.734,72.7915 127.401,70.7915 124.5,69.5C 122.629,68.2028 120.629,67.2028 118.5,66.5C 115.8,65.7427 113.3,64.4094 111,62.5C 110.51,61.2068 110.343,59.8734 110.5,58.5C 113.911,57.933 115.911,59.2663 116.5,62.5 Z"/></g>
<g><path style="opacity:1" fill="#bedaef" d="M 175.5,52.5 C 176.167,52.5 176.5,52.8333 176.5,53.5C 174.986,58.8623 172.653,63.8623 169.5,68.5C 167.016,71.2441 164.016,73.2441 160.5,74.5C 158.602,75.0965 156.935,75.0965 155.5,74.5C 157.167,73.5 158.5,72.1667 159.5,70.5C 164.824,64.5408 170.157,58.5408 175.5,52.5 Z"/></g>
<g><path style="opacity:1" fill="#394e72" d="M 186.5,41.5 C 184.877,44.2153 184.21,47.2153 184.5,50.5C 185.549,57.0964 184.882,63.4297 182.5,69.5C 180.719,72.2741 179.385,75.2741 178.5,78.5C 177.923,77.2267 177.257,77.2267 176.5,78.5C 175.143,81.6015 173.81,84.6015 172.5,87.5C 172.5,86.8333 172.167,86.5 171.5,86.5C 173.218,84.0738 173.718,81.4071 173,78.5C 170.768,85.3794 165.934,88.3794 158.5,87.5C 156.413,86.4154 155.08,84.7488 154.5,82.5C 154.5,82.1667 154.5,81.8333 154.5,81.5C 157.944,82.5911 161.444,83.5911 165,84.5C 166.971,84.5317 168.471,83.6984 169.5,82C 169.272,81.6012 168.938,81.4346 168.5,81.5C 169.833,79.5 171.5,77.8333 173.5,76.5C 174.391,75.7387 175.058,74.7387 175.5,73.5C 175.289,71.7103 175.289,70.0437 175.5,68.5C 172.736,69.7612 170.403,71.5946 168.5,74C 165.568,75.1449 162.568,75.9782 159.5,76.5C 159.833,75.8333 160.167,75.1667 160.5,74.5C 164.016,73.2441 167.016,71.2441 169.5,68.5C 172.971,69.1031 175.305,67.4364 176.5,63.5C 177.325,62.6143 178.325,62.281 179.5,62.5C 180.167,58.5 180.833,54.5 181.5,50.5C 182.049,48.0987 182.882,45.7654 184,43.5C 184.708,42.6195 185.542,41.9528 186.5,41.5 Z"/></g>
<g><path style="opacity:1" fill="#a22144" d="M 118.5,66.5 C 120.629,67.2028 122.629,68.2028 124.5,69.5C 118.956,68.676 117.623,70.3426 120.5,74.5C 119.391,74.4431 118.391,74.1098 117.5,73.5C 115.166,71.8243 114.166,69.491 114.5,66.5C 115.833,66.5 117.167,66.5 118.5,66.5 Z"/></g>
<g><path style="opacity:1" fill="#b9327d" d="M 124.5,69.5 C 124.5,70.8333 124.5,72.1667 124.5,73.5C 123.448,73.3505 122.448,73.5172 121.5,74C 123.382,74.1981 125.048,74.6981 126.5,75.5C 124.265,75.7947 122.265,75.4614 120.5,74.5C 117.623,70.3426 118.956,68.676 124.5,69.5 Z"/></g>
<g><path style="opacity:1" fill="#030912" d="M 17.5,49.5 C 18.0431,49.56 18.3764,49.8933 18.5,50.5C 16.8933,52.9174 15.8933,55.584 15.5,58.5C 14.178,86.6645 13.178,114.998 12.5,143.5C 10.1667,143.5 7.83333,143.5 5.5,143.5C 5.66593,138.489 5.49926,133.489 5,128.5C 3.65607,125.135 1.82273,122.135 -0.5,119.5C -0.5,99.8333 -0.5,80.1667 -0.5,60.5C 2.40803,61.5691 5.40803,61.7358 8.5,61C 11.7146,57.2912 14.7146,53.4579 17.5,49.5 Z"/></g>
<g><path style="opacity:1" fill="#395175" d="M 158.5,64.5 C 158.643,66.2624 158.309,67.9291 157.5,69.5C 158.2,69.7871 158.867,70.1205 159.5,70.5C 158.5,72.1667 157.167,73.5 155.5,74.5C 154.508,74.6716 153.842,74.3382 153.5,73.5C 153.833,72.1667 154.167,70.8333 154.5,69.5C 155.532,67.6216 156.866,65.9549 158.5,64.5 Z"/></g>
<g><path style="opacity:1" fill="#211f28" d="M 173.5,76.5 C 173.265,75.9033 172.765,75.5699 172,75.5C 166.51,76.9427 161.01,78.276 155.5,79.5C 156.262,77.7376 157.596,76.7376 159.5,76.5C 162.568,75.9782 165.568,75.1449 168.5,74C 170.403,71.5946 172.736,69.7612 175.5,68.5C 175.289,70.0437 175.289,71.7103 175.5,73.5C 175.058,74.7387 174.391,75.7387 173.5,76.5 Z"/></g>
<g><path style="opacity:1" fill="#8f335c" d="M 124.5,69.5 C 127.401,70.7915 129.734,72.7915 131.5,75.5C 129.905,76.4339 128.239,76.4339 126.5,75.5C 125.048,74.6981 123.382,74.1981 121.5,74C 122.448,73.5172 123.448,73.3505 124.5,73.5C 124.5,72.1667 124.5,70.8333 124.5,69.5 Z"/></g>
<g><path style="opacity:1" fill="#849abf" d="M 141.5,68.5 C 146.362,68.2427 149.862,70.2427 152,74.5C 152.399,74.2716 152.565,73.9382 152.5,73.5C 152.833,73.5 153.167,73.5 153.5,73.5C 153.842,74.3382 154.508,74.6716 155.5,74.5C 156.935,75.0965 158.602,75.0965 160.5,74.5C 160.167,75.1667 159.833,75.8333 159.5,76.5C 157.596,76.7376 156.262,77.7376 155.5,79.5C 154.833,79.5 154.5,79.8333 154.5,80.5C 154.5,80.8333 154.5,81.1667 154.5,81.5C 154.5,81.8333 154.5,82.1667 154.5,82.5C 153.732,81.7375 153.232,80.7375 153,79.5C 152.667,80.1667 152.333,80.8333 152,81.5C 151.722,80.5842 151.222,79.9175 150.5,79.5C 150.631,78.7611 150.464,78.0944 150,77.5C 146.664,88.0758 146.164,98.5758 148.5,109C 147.473,109.513 146.473,110.013 145.5,110.5C 144.385,108.693 143.719,106.693 143.5,104.5C 144.594,94.1873 144.761,83.854 144,73.5C 143.722,72.5842 143.222,71.9175 142.5,71.5C 142.443,70.391 142.11,69.391 141.5,68.5 Z"/></g>
<g><path style="opacity:1" fill="#65254f" d="M 48.5,54.5 C 48.3146,56.1958 47.4813,57.5291 46,58.5C 45.9564,70.86 42.7898,82.1934 36.5,92.5C 37.8501,84.433 39.5168,76.433 41.5,68.5C 42.0482,65.9748 43.0482,63.6415 44.5,61.5C 44.0431,60.7025 43.3764,60.3691 42.5,60.5C 44.1667,58.1667 46.1667,56.1667 48.5,54.5 Z"/></g>
<g><path style="opacity:1" fill="#30182a" d="M 42.5,60.5 C 43.3764,60.3691 44.0431,60.7025 44.5,61.5C 43.0482,63.6415 42.0482,65.9748 41.5,68.5C 39.552,70.7887 37.552,73.122 35.5,75.5C 34.774,78.852 33.9407,82.1853 33,85.5C 32.8171,82.6353 32.3171,79.9686 31.5,77.5C 32.1637,72.5275 32.4971,67.5275 32.5,62.5C 31.1667,62.5 29.8333,62.5 28.5,62.5C 28.9916,66.4565 28.3249,70.1232 26.5,73.5C 27.5,74.1667 28.5,74.8333 29.5,75.5C 27.4793,78.2347 25.4793,80.9014 23.5,83.5C 24.2502,77.1659 25.0835,70.8325 26,64.5C 26.3768,63.0577 27.2101,62.0577 28.5,61.5C 30.604,61.2011 32.604,61.5344 34.5,62.5C 34.8869,63.7199 35.7202,64.3865 37,64.5C 38.981,63.3498 40.8143,62.0165 42.5,60.5 Z"/></g>
<g><path style="opacity:1" fill="#2b5688" d="M 66.5,76.5 C 65.1196,75.2935 63.9529,75.6269 63,77.5C 61.6409,81.8024 60.4742,86.1357 59.5,90.5C 58.8333,90.5 58.1667,90.5 57.5,90.5C 58.1943,83.139 60.0276,76.139 63,69.5C 64.705,71.5766 65.8717,73.91 66.5,76.5 Z"/></g>
<g><path style="opacity:1" fill="#5086b1" d="M 195.5,75.5 C 194.489,77.4024 194.322,79.4024 195,81.5C 197.104,83.4284 199.937,84.9284 203.5,86C 203.579,87.9068 203.246,89.9068 202.5,92C 207.28,98.3191 211.28,105.152 214.5,112.5C 213.61,113.955 213.61,115.289 214.5,116.5C 213.388,117.265 212.721,118.265 212.5,119.5C 208.55,116.692 204.217,114.692 199.5,113.5C 199.5,114.833 199.5,116.167 199.5,117.5C 197.589,114.993 197.589,112.66 199.5,110.5C 199.085,108.091 198.418,105.758 197.5,103.5C 196.719,104.729 196.219,106.062 196,107.5C 194.698,103.328 193.864,98.9943 193.5,94.5C 194.641,91.3601 194.808,88.0267 194,84.5C 192.663,83.2351 191.163,82.7351 189.5,83C 185.027,89.2744 182.027,96.1078 180.5,103.5C 178.956,103.297 177.622,102.63 176.5,101.5C 175.478,101.855 174.811,102.522 174.5,103.5C 174.264,106.621 172.931,108.954 170.5,110.5C 170.434,104.721 171.767,99.3874 174.5,94.5C 175.09,95.766 175.59,97.0993 176,98.5C 178.555,90.3298 181.389,82.3298 184.5,74.5C 186.794,70.8726 189.46,67.5393 192.5,64.5C 193.778,68.2133 194.778,71.88 195.5,75.5 Z"/></g>
<g><path style="opacity:1" fill="#72b0cf" d="M 66.5,76.5 C 67.5,79.1667 68.5,81.8333 69.5,84.5C 68.8444,85.2778 68.0111,85.9444 67,86.5C 65.4223,85.4528 63.9223,85.4528 62.5,86.5C 63.3094,88.0709 63.6427,89.7376 63.5,91.5C 62.1667,91.1667 60.8333,90.8333 59.5,90.5C 60.4742,86.1357 61.6409,81.8024 63,77.5C 63.9529,75.6269 65.1196,75.2935 66.5,76.5 Z"/></g>
<g><path style="opacity:1" fill="#9a2d5e" d="M 173.5,76.5 C 171.5,77.8333 169.833,79.5 168.5,81.5C 167.258,82.0434 165.925,82.3767 164.5,82.5C 161.198,81.6203 157.865,80.9537 154.5,80.5C 154.5,79.8333 154.833,79.5 155.5,79.5C 161.01,78.276 166.51,76.9427 172,75.5C 172.765,75.5699 173.265,75.9033 173.5,76.5 Z"/></g>
<g><path style="opacity:1" fill="#241114" d="M 154.5,81.5 C 154.5,81.1667 154.5,80.8333 154.5,80.5C 157.865,80.9537 161.198,81.6203 164.5,82.5C 165.925,82.3767 167.258,82.0434 168.5,81.5C 168.938,81.4346 169.272,81.6012 169.5,82C 168.471,83.6984 166.971,84.5317 165,84.5C 161.444,83.5911 157.944,82.5911 154.5,81.5 Z"/></g>
<g><path style="opacity:1" fill="#2d4d66" d="M 208.5,28.5 C 210.423,30.19 212.423,30.5234 214.5,29.5C 213.167,30.9335 211.667,32.2668 210,33.5C 209.719,37.1623 209.885,40.8289 210.5,44.5C 210.647,47.2534 209.98,49.7534 208.5,52C 209.167,54.6667 209.833,57.3333 210.5,60C 210.167,60.3333 209.833,60.6667 209.5,61C 210.899,61.5946 212.232,61.4279 213.5,60.5C 214.817,64.5315 215.317,68.5315 215,72.5C 215.915,71.6721 216.581,70.6721 217,69.5C 217.167,70 217.333,70.5 217.5,71C 215.836,73.6508 215.336,76.4841 216,79.5C 216.5,78.5 217,77.5 217.5,76.5C 221.652,74.624 225.486,72.2907 229,69.5C 229.49,68.2068 229.657,66.8734 229.5,65.5C 230.241,63.6458 231.241,61.9791 232.5,60.5C 233.263,58.6316 234.263,56.9649 235.5,55.5C 235.804,56.1499 236.137,56.8165 236.5,57.5C 235.77,60.1092 235.27,62.7759 235,65.5C 233.133,67.8082 232.133,70.4749 232,73.5C 231.667,73.1667 231.333,72.8333 231,72.5C 229.933,73.1905 228.766,73.6905 227.5,74C 224.92,77.1584 222.587,80.4918 220.5,84C 218.645,84.4221 216.811,84.9221 215,85.5C 213.605,85.2196 212.438,84.5529 211.5,83.5C 212.891,81.0642 212.391,80.3975 210,81.5C 209.667,79.1667 209.333,76.8333 209,74.5C 206.463,75.1771 204.463,74.1771 203,71.5C 202.391,67.4763 202.558,63.4763 203.5,59.5C 203.197,57.8857 202.53,56.5523 201.5,55.5C 202.237,51.5567 202.904,47.5567 203.5,43.5C 204.037,42.2588 204.704,41.0921 205.5,40C 204.614,37.8882 204.614,35.7216 205.5,33.5C 206.737,32.0351 207.737,30.3684 208.5,28.5 Z"/></g>
<g><path style="opacity:1" fill="#0c1524" d="M 75.5,35.5 C 76.609,35.5569 77.609,35.8902 78.5,36.5C 78.5,36.8333 78.5,37.1667 78.5,37.5C 79.0166,41.2217 79.85,44.8883 81,48.5C 85.393,54.6192 88.7263,61.2859 91,68.5C 92.7943,82.0066 95.961,95.0066 100.5,107.5C 101.167,114.167 101.833,120.833 102.5,127.5C 102.5,128.167 102.5,128.833 102.5,129.5C 100.396,126.733 98.7291,123.733 97.5,120.5C 98.5735,119.749 98.7401,118.749 98,117.5C 95.3977,113.294 93.0643,108.961 91,104.5C 90.6667,94.1667 90.3333,83.8333 90,73.5C 88.1994,67.902 85.866,62.5687 83,57.5C 81.1433,54.8002 78.6433,53.1335 75.5,52.5C 67.1794,46.1974 62.1794,37.8641 60.5,27.5C 60.5,27.1667 60.5,26.8333 60.5,26.5C 60.4573,22.1071 60.2907,17.7738 60,13.5C 61.661,19.1035 63.8276,24.4368 66.5,29.5C 65.3655,31.4624 65.3655,33.4624 66.5,35.5C 68.1768,38.8534 70.3434,41.8534 73,44.5C 73.3333,44.1667 73.6667,43.8333 74,43.5C 75.4247,48.7298 76.5914,48.7298 77.5,43.5C 76.238,40.978 75.5713,38.3113 75.5,35.5 Z"/></g>
<g><path style="opacity:1" fill="#72b5db" d="M 80.5,34.5 C 82.8201,39.1401 85.1534,43.8068 87.5,48.5C 89.2619,52.3617 91.2619,56.0283 93.5,59.5C 97.9361,76.2513 101.269,93.2513 103.5,110.5C 103.822,116.358 103.489,122.025 102.5,127.5C 101.833,120.833 101.167,114.167 100.5,107.5C 100.665,104.482 100.498,101.482 100,98.5C 96.928,86.2642 94.2613,73.9309 92,61.5C 87.7399,53.3077 83.2399,45.3077 78.5,37.5C 78.5,37.1667 78.5,36.8333 78.5,36.5C 78.5,35.8333 78.5,35.1667 78.5,34.5C 78.9377,33.4937 79.6043,33.4937 80.5,34.5 Z"/></g>
<g><path style="opacity:1" fill="#325a7a" d="M 236.5,53.5 C 236.81,54.7383 237.31,54.7383 238,53.5C 238.181,56.6946 238.681,59.6946 239.5,62.5C 236.442,69.6168 233.109,76.6168 229.5,83.5C 224.841,85.3922 221.841,88.3922 220.5,92.5C 222.26,89.9788 224.593,89.1455 227.5,90C 224.448,90.8823 222.114,92.7156 220.5,95.5C 217.897,96.5617 215.23,96.7284 212.5,96C 214.396,94.1917 214.896,92.025 214,89.5C 212.149,91.7811 210.482,91.7811 209,89.5C 208.696,87.5595 207.863,85.8928 206.5,84.5C 207.246,83.2638 207.579,81.9305 207.5,80.5C 205.126,79.7857 203.126,78.4524 201.5,76.5C 200.558,76.6082 199.725,76.9415 199,77.5C 198.335,72.8439 197.835,68.1772 197.5,63.5C 197.5,62.5 197.5,61.5 197.5,60.5C 198.145,58.1737 199.478,56.507 201.5,55.5C 202.53,56.5523 203.197,57.8857 203.5,59.5C 202.558,63.4763 202.391,67.4763 203,71.5C 204.463,74.1771 206.463,75.1771 209,74.5C 209.333,76.8333 209.667,79.1667 210,81.5C 212.391,80.3975 212.891,81.0642 211.5,83.5C 212.438,84.5529 213.605,85.2196 215,85.5C 216.811,84.9221 218.645,84.4221 220.5,84C 222.587,80.4918 224.92,77.1584 227.5,74C 228.766,73.6905 229.933,73.1905 231,72.5C 231.333,72.8333 231.667,73.1667 232,73.5C 232.133,70.4749 233.133,67.8082 235,65.5C 235.27,62.7759 235.77,60.1092 236.5,57.5C 236.137,56.8165 235.804,56.1499 235.5,55.5C 235.328,54.5084 235.662,53.8417 236.5,53.5 Z"/></g>
<g><path style="opacity:1" fill="#5b78a9" d="M 110.5,80.5 C 116.167,80.5 121.833,80.5 127.5,80.5C 123.701,83.9518 119.368,86.6185 114.5,88.5C 113.833,89.1667 113.167,89.8333 112.5,90.5C 110.629,88.7682 109.296,86.6016 108.5,84C 109.085,82.6976 109.751,81.531 110.5,80.5 Z"/></g>
<g><path style="opacity:1" fill="#688fc8" d="M 171.5,86.5 C 170.89,88.4341 169.89,90.1007 168.5,91.5C 166.947,88.746 164.614,87.9126 161.5,89C 162.791,90.2917 162.791,91.4583 161.5,92.5C 160.11,91.1007 159.11,89.4341 158.5,87.5C 165.934,88.3794 170.768,85.3794 173,78.5C 173.718,81.4071 173.218,84.0738 171.5,86.5 Z"/></g>
<g><path style="opacity:1" fill="#020314" d="M 255.5,86.5 C 255.5,105.5 255.5,124.5 255.5,143.5C 247.833,143.5 240.167,143.5 232.5,143.5C 231.167,142.167 229.833,140.833 228.5,139.5C 230.199,139.66 231.866,139.494 233.5,139C 234.252,138.329 234.586,137.496 234.5,136.5C 235.067,134.97 235.733,133.47 236.5,132C 236.167,131.667 235.833,131.333 235.5,131C 237.725,130.439 239.725,129.439 241.5,128C 241.614,125.256 241.448,122.423 241,119.5C 241.948,117.43 243.448,115.93 245.5,115C 245.167,114.667 244.833,114.333 244.5,114C 245.793,113.51 247.127,113.343 248.5,113.5C 247.026,110.673 247.36,108.173 249.5,106C 248.939,104.434 249.606,103.101 251.5,102C 250.62,100.644 250.286,99.1439 250.5,97.5C 251.552,97.6495 252.552,97.4828 253.5,97C 251.606,95.8989 250.939,94.5655 251.5,93C 253.441,91.1841 254.108,89.1841 253.5,87C 254.094,86.5357 254.761,86.369 255.5,86.5 Z"/></g>
<g><path style="opacity:1" fill="#89d5e0" d="M 69.5,84.5 C 70.3705,87.1123 71.0372,89.779 71.5,92.5C 72.463,93.3635 72.463,94.0302 71.5,94.5C 70.1502,93.0499 68.4835,92.3832 66.5,92.5C 65.609,91.8902 64.609,91.5569 63.5,91.5C 63.6427,89.7376 63.3094,88.0709 62.5,86.5C 63.9223,85.4528 65.4223,85.4528 67,86.5C 68.0111,85.9444 68.8444,85.2778 69.5,84.5 Z"/></g>
<g><path style="opacity:1" fill="#7cc4e0" d="M 193.5,94.5 C 193.649,91.3926 193.149,88.3926 192,85.5C 191.338,86.9839 190.504,88.3172 189.5,89.5C 186.653,93.8612 184.319,98.5278 182.5,103.5C 181.743,104.773 181.077,104.773 180.5,103.5C 182.027,96.1078 185.027,89.2744 189.5,83C 191.163,82.7351 192.663,83.2351 194,84.5C 194.808,88.0267 194.641,91.3601 193.5,94.5 Z"/></g>
<g><path style="opacity:1" fill="#405175" d="M 142.5,71.5 C 143.222,71.9175 143.722,72.5842 144,73.5C 144.761,83.854 144.594,94.1873 143.5,104.5C 143.719,106.693 144.385,108.693 145.5,110.5C 144.5,110.5 143.5,110.5 142.5,110.5C 139.662,109.194 136.662,108.027 133.5,107C 131.549,105.266 130.549,103.099 130.5,100.5C 131.465,95.3084 131.465,90.1417 130.5,85C 131.5,83.3333 132.5,81.6667 133.5,80C 133.43,79.2352 133.097,78.7352 132.5,78.5C 132.5,77.8333 132.833,77.5 133.5,77.5C 134.268,78.2625 134.768,79.2625 135,80.5C 136.167,78.8333 137.333,77.1667 138.5,75.5C 139.736,74.7542 141.07,74.4208 142.5,74.5C 142.5,73.5 142.5,72.5 142.5,71.5 Z"/></g>
<g><path style="opacity:1" fill="#040811" d="M 75.5,52.5 C 78.6433,53.1335 81.1433,54.8002 83,57.5C 85.866,62.5687 88.1994,67.902 90,73.5C 90.3333,83.8333 90.6667,94.1667 91,104.5C 93.0643,108.961 95.3977,113.294 98,117.5C 98.7401,118.749 98.5735,119.749 97.5,120.5C 94.1584,115.82 91.3251,110.82 89,105.5C 88.5008,110.155 88.3342,114.821 88.5,119.5C 88.5,121.167 88.5,122.833 88.5,124.5C 88.6646,127.518 88.498,130.518 88,133.5C 86.8729,122.199 86.2063,110.866 86,99.5C 85.6174,98.944 85.1174,98.6107 84.5,98.5C 81.5319,91.8993 78.0319,85.566 74,79.5C 73.8171,82.3647 73.3171,85.0314 72.5,87.5C 73.2991,77.8231 71.2991,68.8231 66.5,60.5C 67.325,59.6143 68.325,59.281 69.5,59.5C 71.5563,63.2867 73.3896,67.2867 75,71.5C 74.677,67.0416 74.177,62.5416 73.5,58C 73.6667,56.5 73.8333,55 74,53.5C 74.3826,52.944 74.8826,52.6107 75.5,52.5 Z"/></g>
<g><path style="opacity:1" fill="#263d55" d="M 182.5,69.5 C 181.658,72.4981 181.158,75.4981 181,78.5C 181.949,76.9069 183.115,75.5736 184.5,74.5C 181.389,82.3298 178.555,90.3298 176,98.5C 175.59,97.0993 175.09,95.766 174.5,94.5C 175.521,89.0829 176.854,83.7496 178.5,78.5C 179.385,75.2741 180.719,72.2741 182.5,69.5 Z"/></g>
<g><path style="opacity:1" fill="#89a0c4" d="M 131.5,78.5 C 131.833,78.5 132.167,78.5 132.5,78.5C 133.097,78.7352 133.43,79.2352 133.5,80C 132.5,81.6667 131.5,83.3333 130.5,85C 131.465,90.1417 131.465,95.3084 130.5,100.5C 128.652,106.057 124.986,107.89 119.5,106C 117.632,100.269 115.965,94.4357 114.5,88.5C 119.368,86.6185 123.701,83.9518 127.5,80.5C 129.38,80.7709 130.713,80.1042 131.5,78.5 Z"/></g>
<g><path style="opacity:1" fill="#405a80" d="M 110.5,80.5 C 109.751,81.531 109.085,82.6976 108.5,84C 109.296,86.6016 110.629,88.7682 112.5,90.5C 112.783,91.2891 113.283,91.9558 114,92.5C 114.227,97.8972 114.894,103.231 116,108.5C 117.481,109.471 118.315,110.804 118.5,112.5C 118.062,112.435 117.728,112.601 117.5,113C 121.322,115.552 121.988,118.552 119.5,122C 122.004,122.698 124.337,123.531 126.5,124.5C 125.288,125.23 124.288,126.23 123.5,127.5C 122.914,127.291 122.414,126.957 122,126.5C 121.674,129.985 122.174,133.318 123.5,136.5C 120.865,135.189 118.531,133.522 116.5,131.5C 116.267,129.938 115.6,128.605 114.5,127.5C 112.944,123.002 111.277,118.502 109.5,114C 110.561,109.807 109.894,105.807 107.5,102C 108.576,100.274 108.743,98.4406 108,96.5C 103.736,88.687 102.403,80.3536 104,71.5C 104.249,70.376 104.749,69.376 105.5,68.5C 109.775,71.1421 113.442,74.4754 116.5,78.5C 114.369,79.1687 112.369,79.8354 110.5,80.5 Z"/></g>
<g><path style="opacity:1" fill="#adcbf1" d="M 150.5,79.5 C 151.222,79.9175 151.722,80.5842 152,81.5C 152.333,80.8333 152.667,80.1667 153,79.5C 153.232,80.7375 153.732,81.7375 154.5,82.5C 155.08,84.7488 156.413,86.4154 158.5,87.5C 159.11,89.4341 160.11,91.1007 161.5,92.5C 162.473,94.0683 162.64,95.735 162,97.5C 159.823,100.459 157.156,101.793 154,101.5C 153.667,102.167 153.333,102.833 153,103.5C 152.808,101.423 152.308,99.4233 151.5,97.5C 150.828,100.897 149.995,104.23 149,107.5C 149.386,98.1875 149.886,88.8541 150.5,79.5 Z"/></g>
<g><path style="opacity:1" fill="#42759a" d="M 197.5,63.5 C 197.835,68.1772 198.335,72.8439 199,77.5C 199.725,76.9415 200.558,76.6082 201.5,76.5C 203.126,78.4524 205.126,79.7857 207.5,80.5C 207.579,81.9305 207.246,83.2638 206.5,84.5C 207.863,85.8928 208.696,87.5595 209,89.5C 210.482,91.7811 212.149,91.7811 214,89.5C 214.896,92.025 214.396,94.1917 212.5,96C 215.23,96.7284 217.897,96.5617 220.5,95.5C 222.114,92.7156 224.448,90.8823 227.5,90C 224.593,89.1455 222.26,89.9788 220.5,92.5C 221.841,88.3922 224.841,85.3922 229.5,83.5C 231.59,82.2092 232.924,82.8758 233.5,85.5C 231.139,87.2226 229.473,89.5559 228.5,92.5C 225.727,96.3847 223.727,100.718 222.5,105.5C 219.43,108.627 217.096,112.294 215.5,116.5C 216.747,118.323 217.414,120.323 217.5,122.5C 215.668,121.752 214.001,120.752 212.5,119.5C 212.721,118.265 213.388,117.265 214.5,116.5C 213.61,115.289 213.61,113.955 214.5,112.5C 211.28,105.152 207.28,98.3191 202.5,92C 203.246,89.9068 203.579,87.9068 203.5,86C 199.937,84.9284 197.104,83.4284 195,81.5C 194.322,79.4024 194.489,77.4024 195.5,75.5C 196.109,71.3953 196.775,67.3953 197.5,63.5 Z"/></g>
<g><path style="opacity:1" fill="#315877" d="M 21.5,100.5 C 20.0034,114.793 19.0034,129.127 18.5,143.5C 17.8333,143.5 17.1667,143.5 16.5,143.5C 16.6117,133.491 16.945,123.491 17.5,113.5C 18.4073,99.6626 19.2407,85.6626 20,71.5C 20.3333,70.8333 20.6667,70.1667 21,69.5C 21.4998,79.828 21.6665,90.1613 21.5,100.5 Z"/></g>
<g><path style="opacity:1" fill="#7cc0ea" d="M 178.5,78.5 C 176.854,83.7496 175.521,89.0829 174.5,94.5C 171.767,99.3874 170.434,104.721 170.5,110.5C 169.962,112.117 169.629,113.784 169.5,115.5C 165.948,122.95 162.615,130.617 159.5,138.5C 158.675,139.386 157.675,139.719 156.5,139.5C 160.558,123.827 165.724,108.494 172,93.5C 172.495,91.5273 172.662,89.5273 172.5,87.5C 173.81,84.6015 175.143,81.6015 176.5,78.5C 177.257,77.2267 177.923,77.2267 178.5,78.5 Z"/></g>
<g><path style="opacity:1" fill="#1e3241" d="M 230.5,117.5 C 228.389,118.968 226.556,118.635 225,116.5C 224.162,112.792 223.329,109.125 222.5,105.5C 223.727,100.718 225.727,96.3847 228.5,92.5C 231.445,92.9892 233.778,94.4892 235.5,97C 234.029,98.9189 234.362,99.9189 236.5,100C 239.148,98.3667 240.481,96.0334 240.5,93C 239.66,89.8951 238.494,87.0618 237,84.5C 239.225,85.9389 241.225,87.6055 243,89.5C 243.498,92.4816 243.665,95.4816 243.5,98.5C 242.5,98.5 241.5,98.5 240.5,98.5C 239.419,103.258 236.753,106.924 232.5,109.5C 234.011,111.838 233.677,112.504 231.5,111.5C 230.534,113.396 230.201,115.396 230.5,117.5 Z"/></g>
<g><path style="opacity:1" fill="#45152b" d="M 31.5,77.5 C 31.5,86.5 31.5,95.5 31.5,104.5C 30.5,104.5 29.5,104.5 28.5,104.5C 27.8977,97.5167 27.231,97.1833 26.5,103.5C 25.5,103.5 24.5,103.5 23.5,103.5C 23.7947,101.265 23.4614,99.2646 22.5,97.5C 22.4372,92.7971 22.7705,88.1304 23.5,83.5C 25.4793,80.9014 27.4793,78.2347 29.5,75.5C 28.5,74.8333 27.5,74.1667 26.5,73.5C 28.3249,70.1232 28.9916,66.4565 28.5,62.5C 29.8333,62.5 31.1667,62.5 32.5,62.5C 32.4971,67.5275 32.1637,72.5275 31.5,77.5 Z"/></g>
<g><path style="opacity:1" fill="#0e2037" d="M 84.5,98.5 C 84.4142,99.4959 84.7476,100.329 85.5,101C 83.3913,103.896 81.8913,107.062 81,110.5C 80.6667,107.833 80.3333,105.167 80,102.5C 79.6121,103.428 78.9454,104.095 78,104.5C 76.4953,103.327 74.9953,102.161 73.5,101C 74.056,100.617 74.3893,100.117 74.5,99.5C 75.9256,97.3211 76.5922,94.8211 76.5,92C 76.5771,89.9493 76.0771,88.116 75,86.5C 74.502,89.4816 74.3354,92.4816 74.5,95.5C 73.5,95.5 72.5,95.5 71.5,95.5C 71.6567,96.8734 71.49,98.2068 71,99.5C 69.0056,96.9158 68.5056,97.0825 69.5,100C 69.0496,101.285 68.3829,102.452 67.5,103.5C 68.3128,104.814 69.3128,105.981 70.5,107C 70.1667,109.333 69.8333,111.667 69.5,114C 70.2567,115.512 71.2567,116.846 72.5,118C 71.9607,121.934 71.1274,125.767 70,129.5C 69.5008,134.155 69.3342,138.821 69.5,143.5C 67.8333,143.5 66.1667,143.5 64.5,143.5C 65.7175,142.839 67.0508,142.172 68.5,141.5C 66.5767,140.692 64.5767,140.192 62.5,140C 64.1667,139 65.8333,138 67.5,137C 67.1667,136.667 66.8333,136.333 66.5,136C 67.0278,132.982 68.0278,130.149 69.5,127.5C 68.233,125.12 68.5663,122.954 70.5,121C 68.5966,117.354 67.0966,113.521 66,109.5C 64.8176,107.643 63.151,106.643 61,106.5C 56.3429,107.103 52.5096,109.103 49.5,112.5C 46.6671,109.469 47.1671,106.469 51,103.5C 52.3876,104.554 53.8876,104.72 55.5,104C 54.4464,102.612 54.2797,101.112 55,99.5C 57.9031,97.8635 61.4031,96.6969 65.5,96C 66.3366,94.9887 66.67,93.8221 66.5,92.5C 68.4835,92.3832 70.1502,93.0499 71.5,94.5C 72.463,94.0302 72.463,93.3635 71.5,92.5C 72.4511,91.0813 72.7845,89.4147 72.5,87.5C 73.3171,85.0314 73.8171,82.3647 74,79.5C 78.0319,85.566 81.5319,91.8993 84.5,98.5 Z"/></g>
<g><path style="opacity:1" fill="#5688b5" d="M 74.5,99.5 C 74.5,98.1667 74.5,96.8333 74.5,95.5C 74.3354,92.4816 74.502,89.4816 75,86.5C 76.0771,88.116 76.5771,89.9493 76.5,92C 76.5922,94.8211 75.9256,97.3211 74.5,99.5 Z"/></g>
<g><path style="opacity:1" fill="#96b3d8" d="M 150.5,79.5 C 149.886,88.8541 149.386,98.1875 149,107.5C 149.995,104.23 150.828,100.897 151.5,97.5C 152.308,99.4233 152.808,101.423 153,103.5C 153.333,102.833 153.667,102.167 154,101.5C 157.156,101.793 159.823,100.459 162,97.5C 162.64,95.735 162.473,94.0683 161.5,92.5C 162.791,91.4583 162.791,90.2917 161.5,89C 164.614,87.9126 166.947,88.746 168.5,91.5C 163.826,100.173 158.159,108.173 151.5,115.5C 150.833,115.5 150.5,115.833 150.5,116.5C 149.778,116.082 149.278,115.416 149,114.5C 146.723,115.117 144.556,115.784 142.5,116.5C 140.833,116.5 139.167,116.5 137.5,116.5C 136.571,115.685 135.571,114.852 134.5,114C 136.391,111.198 139.058,110.032 142.5,110.5C 143.5,110.5 144.5,110.5 145.5,110.5C 146.473,110.013 147.473,109.513 148.5,109C 146.164,98.5758 146.664,88.0758 150,77.5C 150.464,78.0944 150.631,78.7611 150.5,79.5 Z"/></g>
<g><path style="opacity:1" fill="#180812" d="M 171.5,86.5 C 172.167,86.5 172.5,86.8333 172.5,87.5C 172.662,89.5273 172.495,91.5273 172,93.5C 165.724,108.494 160.558,123.827 156.5,139.5C 156.5,140.833 156.5,142.167 156.5,143.5C 154.5,143.5 152.5,143.5 150.5,143.5C 150.7,140.37 151.366,137.37 152.5,134.5C 155.207,128.133 154.874,121.8 151.5,115.5C 158.159,108.173 163.826,100.173 168.5,91.5C 169.89,90.1007 170.89,88.4341 171.5,86.5 Z"/></g>
<g><path style="opacity:1" fill="#1c4662" d="M 241.5,71.5 C 242.229,73.7353 243.562,75.5686 245.5,77C 245.167,77.5 244.833,78 244.5,78.5C 242.591,77.6518 240.591,77.3184 238.5,77.5C 238.281,78.675 238.614,79.675 239.5,80.5C 244.232,81.7317 247.066,84.7317 248,89.5C 248.287,95.2379 247.121,100.571 244.5,105.5C 243.71,104.391 243.21,103.058 243,101.5C 240.954,103.7 239.954,106.367 240,109.5C 238.853,108.542 237.853,108.875 237,110.5C 235.991,112.025 235.491,113.692 235.5,115.5C 233.486,115.392 231.82,116.058 230.5,117.5C 230.201,115.396 230.534,113.396 231.5,111.5C 233.677,112.504 234.011,111.838 232.5,109.5C 236.753,106.924 239.419,103.258 240.5,98.5C 241.5,98.5 242.5,98.5 243.5,98.5C 243.665,95.4816 243.498,92.4816 243,89.5C 241.225,87.6055 239.225,85.9389 237,84.5C 238.494,87.0618 239.66,89.8951 240.5,93C 240.481,96.0334 239.148,98.3667 236.5,100C 234.362,99.9189 234.029,98.9189 235.5,97C 233.778,94.4892 231.445,92.9892 228.5,92.5C 229.473,89.5559 231.139,87.2226 233.5,85.5C 234.309,83.9867 234.476,82.3201 234,80.5C 237.118,77.8935 239.618,74.8935 241.5,71.5 Z"/></g>
<g><path style="opacity:1" fill="#617596" d="M 114.5,88.5 C 115.965,94.4357 117.632,100.269 119.5,106C 124.986,107.89 128.652,106.057 130.5,100.5C 130.549,103.099 131.549,105.266 133.5,107C 136.662,108.027 139.662,109.194 142.5,110.5C 139.058,110.032 136.391,111.198 134.5,114C 135.571,114.852 136.571,115.685 137.5,116.5C 131.176,115.001 124.843,113.668 118.5,112.5C 118.315,110.804 117.481,109.471 116,108.5C 114.894,103.231 114.227,97.8972 114,92.5C 113.283,91.9558 112.783,91.2891 112.5,90.5C 113.167,89.8333 113.833,89.1667 114.5,88.5 Z"/></g>
<g><path style="opacity:1" fill="#0e2443" d="M 64.5,143.5 C 63.8333,143.5 63.1667,143.5 62.5,143.5C 61.0567,141.379 60.0567,139.046 59.5,136.5C 60.554,133.199 61.054,129.865 61,126.5C 59.2494,124.51 58.2494,122.177 58,119.5C 57.3333,120.167 56.6667,120.833 56,121.5C 55.5917,119.59 54.4251,118.59 52.5,118.5C 45.0796,119.579 43.5796,123.246 48,129.5C 52.3198,133.137 54.8198,137.803 55.5,143.5C 55.1667,143.5 54.8333,143.5 54.5,143.5C 54.4606,142.417 54.1272,141.417 53.5,140.5C 45.1175,135.528 41.6175,128.195 43,118.5C 45.0205,116.371 47.1872,114.371 49.5,112.5C 52.5096,109.103 56.3429,107.103 61,106.5C 63.151,106.643 64.8176,107.643 66,109.5C 67.0966,113.521 68.5966,117.354 70.5,121C 68.5663,122.954 68.233,125.12 69.5,127.5C 68.0278,130.149 67.0278,132.982 66.5,136C 66.8333,136.333 67.1667,136.667 67.5,137C 65.8333,138 64.1667,139 62.5,140C 64.5767,140.192 66.5767,140.692 68.5,141.5C 67.0508,142.172 65.7175,142.839 64.5,143.5 Z"/></g>
<g><path style="opacity:1" fill="#264c6d" d="M 193.5,94.5 C 193.864,98.9943 194.698,103.328 196,107.5C 196.219,106.062 196.719,104.729 197.5,103.5C 198.418,105.758 199.085,108.091 199.5,110.5C 197.589,112.66 197.589,114.993 199.5,117.5C 199.5,117.833 199.5,118.167 199.5,118.5C 198.069,118.119 197.236,117.119 197,115.5C 195.38,118.893 193.88,122.226 192.5,125.5C 191.671,124.668 190.838,125.001 190,126.5C 188.036,129.698 186.37,133.032 185,136.5C 184.292,137.381 183.458,138.047 182.5,138.5C 189.971,122.703 192.304,106.37 189.5,89.5C 190.504,88.3172 191.338,86.9839 192,85.5C 193.149,88.3926 193.649,91.3926 193.5,94.5 Z"/></g>
<g><path style="opacity:1" fill="#040a14" d="M 189.5,89.5 C 192.304,106.37 189.971,122.703 182.5,138.5C 181.833,140.167 181.167,141.833 180.5,143.5C 177.5,143.5 174.5,143.5 171.5,143.5C 175.02,133.046 177.687,122.38 179.5,111.5C 179.522,109.035 179.022,106.702 178,104.5C 176.989,103.663 175.822,103.33 174.5,103.5C 174.811,102.522 175.478,101.855 176.5,101.5C 177.622,102.63 178.956,103.297 180.5,103.5C 181.077,104.773 181.743,104.773 182.5,103.5C 184.319,98.5278 186.653,93.8612 189.5,89.5 Z"/></g>
<g><path style="opacity:1" fill="#3c436e" d="M 118.5,112.5 C 124.843,113.668 131.176,115.001 137.5,116.5C 139.167,116.5 140.833,116.5 142.5,116.5C 143.376,116.369 144.043,116.702 144.5,117.5C 142.955,118.452 141.288,118.785 139.5,118.5C 135.702,117.517 131.702,117.183 127.5,117.5C 127.298,119.95 127.631,122.283 128.5,124.5C 127.833,124.5 127.167,124.5 126.5,124.5C 124.337,123.531 122.004,122.698 119.5,122C 121.988,118.552 121.322,115.552 117.5,113C 117.728,112.601 118.062,112.435 118.5,112.5 Z"/></g>
<g><path style="opacity:1" fill="#2e5d7b" d="M 244.5,105.5 C 244.631,106.376 244.298,107.043 243.5,107.5C 242.604,106.494 241.938,106.494 241.5,107.5C 242.485,109.098 242.651,110.765 242,112.5C 237.505,117.994 232.672,123.161 227.5,128C 226.473,128.513 225.473,129.013 224.5,129.5C 223.195,126.195 220.862,123.862 217.5,122.5C 217.414,120.323 216.747,118.323 215.5,116.5C 217.096,112.294 219.43,108.627 222.5,105.5C 223.329,109.125 224.162,112.792 225,116.5C 226.556,118.635 228.389,118.968 230.5,117.5C 231.82,116.058 233.486,115.392 235.5,115.5C 235.491,113.692 235.991,112.025 237,110.5C 237.853,108.875 238.853,108.542 240,109.5C 239.954,106.367 240.954,103.7 243,101.5C 243.21,103.058 243.71,104.391 244.5,105.5 Z"/></g>
<g><path style="opacity:1" fill="#060d1d" d="M 255.5,48.5 C 255.5,61.1667 255.5,73.8333 255.5,86.5C 254.761,86.369 254.094,86.5357 253.5,87C 254.108,89.1841 253.441,91.1841 251.5,93C 250.939,94.5655 251.606,95.8989 253.5,97C 252.552,97.4828 251.552,97.6495 250.5,97.5C 250.286,99.1439 250.62,100.644 251.5,102C 249.606,103.101 248.939,104.434 249.5,106C 247.36,108.173 247.026,110.673 248.5,113.5C 247.127,113.343 245.793,113.51 244.5,114C 244.833,114.333 245.167,114.667 245.5,115C 243.448,115.93 241.948,117.43 241,119.5C 241.448,122.423 241.614,125.256 241.5,128C 239.725,129.439 237.725,130.439 235.5,131C 235.833,131.333 236.167,131.667 236.5,132C 235.733,133.47 235.067,134.97 234.5,136.5C 233.833,136.5 233.167,136.5 232.5,136.5C 230.392,134.941 228.059,133.608 225.5,132.5C 224.614,131.675 224.281,130.675 224.5,129.5C 225.473,129.013 226.473,128.513 227.5,128C 232.672,123.161 237.505,117.994 242,112.5C 242.651,110.765 242.485,109.098 241.5,107.5C 241.938,106.494 242.604,106.494 243.5,107.5C 244.298,107.043 244.631,106.376 244.5,105.5C 247.121,100.571 248.287,95.2379 248,89.5C 247.066,84.7317 244.232,81.7317 239.5,80.5C 238.614,79.675 238.281,78.675 238.5,77.5C 240.591,77.3184 242.591,77.6518 244.5,78.5C 244.833,78 245.167,77.5 245.5,77C 243.562,75.5686 242.229,73.7353 241.5,71.5C 242.594,69.1638 243.927,69.1638 245.5,71.5C 246.039,73.5049 246.705,75.5049 247.5,77.5C 247.233,75.2402 247.733,72.9069 249,70.5C 249.249,71.624 249.749,72.624 250.5,73.5C 251.59,72.6086 251.59,71.6086 250.5,70.5C 250.957,66.8376 251.957,63.3376 253.5,60C 251.339,55.7831 252.006,51.9498 255.5,48.5 Z"/></g>
<g><path style="opacity:1" fill="#5a5c94" d="M 139.5,118.5 C 135.939,118.748 132.272,118.915 128.5,119C 131.324,121.613 134.658,123.279 138.5,124C 137.473,124.513 136.473,125.013 135.5,125.5C 133.167,125.5 130.833,125.5 128.5,125.5C 128.5,125.167 128.5,124.833 128.5,124.5C 127.631,122.283 127.298,119.95 127.5,117.5C 131.702,117.183 135.702,117.517 139.5,118.5 Z"/></g>
<g><path style="opacity:1" fill="#708abd" d="M 150.5,116.5 C 147.167,120.167 143.833,123.833 140.5,127.5C 139.833,127.833 139.167,128.167 138.5,128.5C 137.9,127.1 136.9,126.1 135.5,125.5C 136.473,125.013 137.473,124.513 138.5,124C 134.658,123.279 131.324,121.613 128.5,119C 132.272,118.915 135.939,118.748 139.5,118.5C 141.288,118.785 142.955,118.452 144.5,117.5C 144.043,116.702 143.376,116.369 142.5,116.5C 144.556,115.784 146.723,115.117 149,114.5C 149.278,115.416 149.778,116.082 150.5,116.5 Z"/></g>
<g><path style="opacity:1" fill="#9b2d59" d="M 52.5,50.5 C 49.4513,61.857 46.4513,73.1903 43.5,84.5C 40.749,104.09 38.749,123.757 37.5,143.5C 35.8333,143.5 34.1667,143.5 32.5,143.5C 32.3335,132.495 32.5002,121.495 33,110.5C 33.536,104.36 34.7026,98.3598 36.5,92.5C 42.7898,82.1934 45.9564,70.86 46,58.5C 47.4813,57.5291 48.3146,56.1958 48.5,54.5C 49.5,52.8333 50.8333,51.5 52.5,50.5 Z"/></g>
<g><path style="opacity:1" fill="#162a36" d="M 199.5,118.5 C 203.602,120.1 207.602,121.933 211.5,124C 214.266,125.371 216.599,127.204 218.5,129.5C 216.172,134.164 213.838,138.83 211.5,143.5C 203.167,143.5 194.833,143.5 186.5,143.5C 186.34,141.801 186.506,140.134 187,138.5C 189.327,134.347 191.16,130.013 192.5,125.5C 193.88,122.226 195.38,118.893 197,115.5C 197.236,117.119 198.069,118.119 199.5,118.5 Z"/></g>
<g><path style="opacity:1" fill="#0f2640" d="M 15.5,58.5 C 15.3334,75.8365 15.5001,93.1699 16,110.5C 16.3333,109.833 16.6667,109.167 17,108.5C 17.4935,110.134 17.6602,111.801 17.5,113.5C 16.945,123.491 16.6117,133.491 16.5,143.5C 15.1667,143.5 13.8333,143.5 12.5,143.5C 13.178,114.998 14.178,86.6645 15.5,58.5 Z"/></g>
<g><path style="opacity:1" fill="#15314e" d="M 62.5,143.5 C 60.1667,143.5 57.8333,143.5 55.5,143.5C 54.8198,137.803 52.3198,133.137 48,129.5C 43.5796,123.246 45.0796,119.579 52.5,118.5C 54.4251,118.59 55.5917,119.59 56,121.5C 56.6667,120.833 57.3333,120.167 58,119.5C 58.2494,122.177 59.2494,124.51 61,126.5C 61.054,129.865 60.554,133.199 59.5,136.5C 60.0567,139.046 61.0567,141.379 62.5,143.5 Z"/></g>
<g><path style="opacity:1" fill="#0d1829" d="M 74.5,95.5 C 74.5,96.8333 74.5,98.1667 74.5,99.5C 74.3893,100.117 74.056,100.617 73.5,101C 74.9953,102.161 76.4953,103.327 78,104.5C 78.9454,104.095 79.6121,103.428 80,102.5C 80.3333,105.167 80.6667,107.833 81,110.5C 81.8913,107.062 83.3913,103.896 85.5,101C 84.7476,100.329 84.4142,99.4959 84.5,98.5C 85.1174,98.6107 85.6174,98.944 86,99.5C 86.2063,110.866 86.8729,122.199 88,133.5C 88.498,130.518 88.6646,127.518 88.5,124.5C 89.5502,130.674 89.5502,137.007 88.5,143.5C 84.5,143.5 80.5,143.5 76.5,143.5C 74.9364,137.67 75.4364,132.003 78,126.5C 78.6667,122.167 78.6667,117.833 78,113.5C 72.5613,122.866 70.3946,132.866 71.5,143.5C 70.8333,143.5 70.1667,143.5 69.5,143.5C 69.3342,138.821 69.5008,134.155 70,129.5C 71.1274,125.767 71.9607,121.934 72.5,118C 71.2567,116.846 70.2567,115.512 69.5,114C 69.8333,111.667 70.1667,109.333 70.5,107C 69.3128,105.981 68.3128,104.814 67.5,103.5C 68.3829,102.452 69.0496,101.285 69.5,100C 68.5056,97.0825 69.0056,96.9158 71,99.5C 71.49,98.2068 71.6567,96.8734 71.5,95.5C 72.5,95.5 73.5,95.5 74.5,95.5 Z"/></g>
<g><path style="opacity:1" fill="#79c5e2" d="M 212.5,119.5 C 214.001,120.752 215.668,121.752 217.5,122.5C 220.862,123.862 223.195,126.195 224.5,129.5C 224.281,130.675 224.614,131.675 225.5,132.5C 228.059,133.608 230.392,134.941 232.5,136.5C 230.079,136.122 227.746,135.455 225.5,134.5C 224.788,135.739 223.788,136.239 222.5,136C 221.432,133.562 220.098,131.395 218.5,129.5C 216.599,127.204 214.266,125.371 211.5,124C 207.602,121.933 203.602,120.1 199.5,118.5C 199.5,118.167 199.5,117.833 199.5,117.5C 199.5,116.167 199.5,114.833 199.5,113.5C 204.217,114.692 208.55,116.692 212.5,119.5 Z"/></g>
<g><path style="opacity:1" fill="#1a2738" d="M 151.5,115.5 C 154.874,121.8 155.207,128.133 152.5,134.5C 152.649,133.448 152.483,132.448 152,131.5C 150.382,140.695 149.382,140.695 149,131.5C 146.534,128.071 143.701,126.738 140.5,127.5C 143.833,123.833 147.167,120.167 150.5,116.5C 150.5,115.833 150.833,115.5 151.5,115.5 Z"/></g>
<g><path style="opacity:1" fill="#270816" d="M 41.5,68.5 C 39.5168,76.433 37.8501,84.433 36.5,92.5C 34.7026,98.3598 33.536,104.36 33,110.5C 32.5002,121.495 32.3335,132.495 32.5,143.5C 27.8333,143.5 23.1667,143.5 18.5,143.5C 19.0034,129.127 20.0034,114.793 21.5,100.5C 22.404,99.791 22.7373,98.791 22.5,97.5C 23.4614,99.2646 23.7947,101.265 23.5,103.5C 24.5,103.5 25.5,103.5 26.5,103.5C 27.231,97.1833 27.8977,97.5167 28.5,104.5C 29.5,104.5 30.5,104.5 31.5,104.5C 31.5,95.5 31.5,86.5 31.5,77.5C 32.3171,79.9686 32.8171,82.6353 33,85.5C 33.9407,82.1853 34.774,78.852 35.5,75.5C 37.552,73.122 39.552,70.7887 41.5,68.5 Z"/></g>
<g><path style="opacity:1" fill="#050814" d="M 76.5,143.5 C 74.8333,143.5 73.1667,143.5 71.5,143.5C 70.3946,132.866 72.5613,122.866 78,113.5C 78.6667,117.833 78.6667,122.167 78,126.5C 75.4364,132.003 74.9364,137.67 76.5,143.5 Z"/></g>
<g><path style="opacity:1" fill="#323f58" d="M 97.5,120.5 C 98.7291,123.733 100.396,126.733 102.5,129.5C 104.197,127.695 105.03,125.361 105,122.5C 105.667,126.167 105.667,129.833 105,133.5C 101.452,134.31 97.285,134.31 92.5,133.5C 91.4427,128.515 90.1094,123.848 88.5,119.5C 88.3342,114.821 88.5008,110.155 89,105.5C 91.3251,110.82 94.1584,115.82 97.5,120.5 Z"/></g>
<g><path style="opacity:1" fill="#88aacf" d="M 128.5,125.5 C 130.833,125.5 133.167,125.5 135.5,125.5C 136.9,126.1 137.9,127.1 138.5,128.5C 137.167,130.5 135.5,132.167 133.5,133.5C 131.167,133.5 128.833,133.5 126.5,133.5C 125.964,130.302 126.631,127.635 128.5,125.5 Z"/></g>
<g><path style="opacity:1" fill="#404e66" d="M 103.5,110.5 C 104.323,113.977 104.823,117.644 105,121.5C 105.333,120.833 105.667,120.167 106,119.5C 108.703,122.371 111.536,125.038 114.5,127.5C 115.6,128.605 116.267,129.938 116.5,131.5C 116.511,133.017 117.177,134.184 118.5,135C 116.595,136.87 114.428,138.37 112,139.5C 111.209,140.745 110.709,142.078 110.5,143.5C 103.167,143.5 95.8333,143.5 88.5,143.5C 89.5502,137.007 89.5502,130.674 88.5,124.5C 88.5,122.833 88.5,121.167 88.5,119.5C 90.1094,123.848 91.4427,128.515 92.5,133.5C 97.285,134.31 101.452,134.31 105,133.5C 105.667,129.833 105.667,126.167 105,122.5C 105.03,125.361 104.197,127.695 102.5,129.5C 102.5,128.833 102.5,128.167 102.5,127.5C 103.489,122.025 103.822,116.358 103.5,110.5 Z"/></g>
<g><path style="opacity:1" fill="#0e182d" d="M 57.5,90.5 C 58.1667,90.5 58.8333,90.5 59.5,90.5C 60.8333,90.8333 62.1667,91.1667 63.5,91.5C 64.609,91.5569 65.609,91.8902 66.5,92.5C 66.67,93.8221 66.3366,94.9887 65.5,96C 61.4031,96.6969 57.9031,97.8635 55,99.5C 54.2797,101.112 54.4464,102.612 55.5,104C 53.8876,104.72 52.3876,104.554 51,103.5C 47.1671,106.469 46.6671,109.469 49.5,112.5C 47.1872,114.371 45.0205,116.371 43,118.5C 41.6175,128.195 45.1175,135.528 53.5,140.5C 54.1272,141.417 54.4606,142.417 54.5,143.5C 48.8333,143.5 43.1667,143.5 37.5,143.5C 38.749,123.757 40.749,104.09 43.5,84.5C 43.8333,84.5 44.1667,84.5 44.5,84.5C 44.7496,85.9221 45.583,86.9221 47,87.5C 47.3333,85.8333 47.6667,84.1667 48,82.5C 48.2511,84.433 48.7511,86.2663 49.5,88C 52.2017,88.84 54.8683,89.6733 57.5,90.5 Z"/></g>
<g><path style="opacity:1" fill="#4d1930" d="M 174.5,103.5 C 175.822,103.33 176.989,103.663 178,104.5C 179.022,106.702 179.522,109.035 179.5,111.5C 177.687,122.38 175.02,133.046 171.5,143.5C 169.167,143.5 166.833,143.5 164.5,143.5C 166.853,136.461 170.019,129.794 174,123.5C 175.199,120.274 175.699,116.941 175.5,113.5C 173.089,113.137 171.589,114.137 171,116.5C 170.617,115.944 170.117,115.611 169.5,115.5C 169.629,113.784 169.962,112.117 170.5,110.5C 172.931,108.954 174.264,106.621 174.5,103.5 Z"/></g>
<g><path style="opacity:1" fill="#6987ac" d="M 126.5,124.5 C 127.167,124.5 127.833,124.5 128.5,124.5C 128.5,124.833 128.5,125.167 128.5,125.5C 126.631,127.635 125.964,130.302 126.5,133.5C 128.833,133.5 131.167,133.5 133.5,133.5C 133.196,134.15 132.863,134.817 132.5,135.5C 129.914,136.48 127.247,136.813 124.5,136.5C 124.167,136.5 123.833,136.5 123.5,136.5C 122.174,133.318 121.674,129.985 122,126.5C 122.414,126.957 122.914,127.291 123.5,127.5C 124.288,126.23 125.288,125.23 126.5,124.5 Z"/></g>
<g><path style="opacity:1" fill="#9e2c58" d="M 164.5,143.5 C 161.833,143.5 159.167,143.5 156.5,143.5C 156.5,142.167 156.5,140.833 156.5,139.5C 157.675,139.719 158.675,139.386 159.5,138.5C 162.615,130.617 165.948,122.95 169.5,115.5C 170.117,115.611 170.617,115.944 171,116.5C 171.589,114.137 173.089,113.137 175.5,113.5C 175.699,116.941 175.199,120.274 174,123.5C 170.019,129.794 166.853,136.461 164.5,143.5 Z"/></g>
<g><path style="opacity:1" fill="#2a3040" d="M 116.5,131.5 C 118.531,133.522 120.865,135.189 123.5,136.5C 123.833,136.5 124.167,136.5 124.5,136.5C 126.698,137.165 129.031,137.832 131.5,138.5C 130.106,139.687 130.273,140.354 132,140.5C 132.772,140.355 133.439,140.022 134,139.5C 135.085,140.736 135.918,142.069 136.5,143.5C 127.833,143.5 119.167,143.5 110.5,143.5C 110.709,142.078 111.209,140.745 112,139.5C 114.428,138.37 116.595,136.87 118.5,135C 117.177,134.184 116.511,133.017 116.5,131.5 Z"/></g>
<g><path style="opacity:1" fill="#35475c" d="M 152.5,134.5 C 151.366,137.37 150.7,140.37 150.5,143.5C 145.833,143.5 141.167,143.5 136.5,143.5C 135.918,142.069 135.085,140.736 134,139.5C 133.439,140.022 132.772,140.355 132,140.5C 130.273,140.354 130.106,139.687 131.5,138.5C 129.031,137.832 126.698,137.165 124.5,136.5C 127.247,136.813 129.914,136.48 132.5,135.5C 132.863,134.817 133.196,134.15 133.5,133.5C 135.5,132.167 137.167,130.5 138.5,128.5C 139.167,128.167 139.833,127.833 140.5,127.5C 143.701,126.738 146.534,128.071 149,131.5C 149.382,140.695 150.382,140.695 152,131.5C 152.483,132.448 152.649,133.448 152.5,134.5 Z"/></g>
<g><path style="opacity:1" fill="#2c4f6e" d="M 218.5,129.5 C 220.098,131.395 221.432,133.562 222.5,136C 223.788,136.239 224.788,135.739 225.5,134.5C 225.273,136.933 226.273,138.599 228.5,139.5C 229.833,140.833 231.167,142.167 232.5,143.5C 225.5,143.5 218.5,143.5 211.5,143.5C 213.838,138.83 216.172,134.164 218.5,129.5 Z"/></g>
<g><path style="opacity:1" fill="#112047" d="M 225.5,134.5 C 227.746,135.455 230.079,136.122 232.5,136.5C 233.167,136.5 233.833,136.5 234.5,136.5C 234.586,137.496 234.252,138.329 233.5,139C 231.866,139.494 230.199,139.66 228.5,139.5C 226.273,138.599 225.273,136.933 225.5,134.5 Z"/></g>
<g><path style="opacity:1" fill="#141727" d="M -0.5,119.5 C 1.82273,122.135 3.65607,125.135 5,128.5C 5.49926,133.489 5.66593,138.489 5.5,143.5C 3.5,143.5 1.5,143.5 -0.5,143.5C -0.5,135.5 -0.5,127.5 -0.5,119.5 Z"/></g>
<g><path style="opacity:1" fill="#498cb9" d="M 192.5,125.5 C 191.16,130.013 189.327,134.347 187,138.5C 186.506,140.134 186.34,141.801 186.5,143.5C 184.5,143.5 182.5,143.5 180.5,143.5C 181.167,141.833 181.833,140.167 182.5,138.5C 183.458,138.047 184.292,137.381 185,136.5C 186.37,133.032 188.036,129.698 190,126.5C 190.838,125.001 191.671,124.668 192.5,125.5 Z"/></g>
</svg>
