<?xml version="1.0" encoding="UTF-8"?>
<!DOCTYPE svg PUBLIC "-//W3C//DTD SVG 1.1//EN" "http://www.w3.org/Graphics/SVG/1.1/DTD/svg11.dtd">
<svg xmlns="http://www.w3.org/2000/svg" version="1.1" width="256px" height="144px" style="shape-rendering:geometricPrecision; text-rendering:geometricPrecision; image-rendering:optimizeQuality; fill-rule:evenodd; clip-rule:evenodd" xmlns:xlink="http://www.w3.org/1999/xlink">
<g><path style="opacity:1" fill="#162733" d="M 87.5,-0.5 C 92.8333,-0.5 98.1667,-0.5 103.5,-0.5C 102.46,3.8485 102.46,8.18183 103.5,12.5C 104.17,10.7086 104.837,9.04192 105.5,7.5C 105.533,12.1012 104.866,16.6012 103.5,21C 103.99,23.3461 104.657,25.5128 105.5,27.5C 105.158,28.3382 104.492,28.6716 103.5,28.5C 100.609,27.5975 97.6085,27.2641 94.5,27.5C 91.7052,25.2486 89.3719,22.5819 87.5,19.5C 92.51,21.4213 97.3433,23.7547 102,26.5C 102.667,22.5 102.667,18.5 102,14.5C 101.005,13.9341 100.172,13.2674 99.5,12.5C 100.239,12.631 100.906,12.4643 101.5,12C 99.2246,9.05223 96.3912,6.88556 93,5.5C 90.479,5.82219 88.979,7.15553 88.5,9.5C 87.1667,11.8333 85.8333,14.1667 84.5,16.5C 77.7426,12.1536 78.076,10.4869 85.5,11.5C 86.8333,10.8333 86.8333,10.1667 85.5,9.5C 82.8663,8.48405 80.1996,8.48405 77.5,9.5C 80.4789,5.85438 83.8123,2.52104 87.5,-0.5 Z"/></g>
<g><path style="opacity:1" fill="#0f1015" d="M 105.5,-0.5 C 123.5,-0.5 141.5,-0.5 159.5,-0.5C 154.705,2.65384 150.039,5.98717 145.5,9.5C 139.601,10.0115 133.934,9.3448 128.5,7.5C 127.558,7.60816 126.725,7.94149 126,8.5C 125.235,10.0657 125.402,11.3991 126.5,12.5C 127.424,16.9413 128.758,21.2746 130.5,25.5C 127.493,26.8343 124.659,26.501 122,24.5C 116.603,26.0939 111.103,27.0939 105.5,27.5C 104.657,25.5128 103.99,23.3461 103.5,21C 104.866,16.6012 105.533,12.1012 105.5,7.5C 105.5,4.83333 105.5,2.16667 105.5,-0.5 Z"/></g>
<g><path style="opacity:1" fill="#010a11" d="M 228.5,-0.5 C 237.5,-0.5 246.5,-0.5 255.5,-0.5C 255.5,22.8333 255.5,46.1667 255.5,69.5C 254.849,68.9094 254.182,68.2427 253.5,67.5C 252.38,68.8334 251.047,69.3334 249.5,69C 241.675,62.6747 234.342,55.8414 227.5,48.5C 232.529,42.8079 237.529,37.1412 242.5,31.5C 245.491,29.1524 245.158,27.4857 241.5,26.5C 230.077,33.419 217.743,37.7523 204.5,39.5C 202.304,39.4954 200.304,39.162 198.5,38.5C 201.43,37.701 204.43,37.3677 207.5,37.5C 208.752,34.0172 209.586,30.3505 210,26.5C 212.38,22.9706 214.88,19.6373 217.5,16.5C 218.739,13.4111 220.239,10.4111 222,7.5C 224.758,5.24878 226.925,2.58212 228.5,-0.5 Z"/></g>
<g><path style="opacity:1" fill="#649eba" d="M 10.5,-0.5 C 15.8333,-0.5 21.1667,-0.5 26.5,-0.5C 24.2854,0.2679 21.9521,0.934566 19.5,1.5C 16.2011,2.37612 12.8678,2.54279 9.5,2C 10.056,1.61742 10.3893,1.11742 10.5,0.5C 10.5,0.166667 10.5,-0.166667 10.5,-0.5 Z"/></g>
<g><path style="opacity:1" fill="#76939f" d="M 46.5,-0.5 C 49.1667,-0.5 51.8333,-0.5 54.5,-0.5C 55.0294,2.79975 57.0294,4.79975 60.5,5.5C 62.5,8.16667 64.8333,10.5 67.5,12.5C 66.7494,13.5735 65.7494,13.7401 64.5,13C 63.2949,11.6244 61.9616,10.4577 60.5,9.5C 55.7957,6.15442 51.129,2.82108 46.5,-0.5 Z"/></g>
<g><path style="opacity:1" fill="#67818c" d="M 60.5,-0.5 C 62.1667,-0.5 63.8333,-0.5 65.5,-0.5C 68.9362,3.05742 72.6029,6.39076 76.5,9.5C 76.1788,11.0481 75.1788,11.7148 73.5,11.5C 71.1463,8.14852 68.1463,5.48185 64.5,3.5C 62.8608,2.5275 61.5274,1.19416 60.5,-0.5 Z"/></g>
<g><path style="opacity:1" fill="#1c364d" d="M 65.5,-0.5 C 72.8333,-0.5 80.1667,-0.5 87.5,-0.5C 83.8123,2.52104 80.4789,5.85438 77.5,9.5C 77.1667,9.5 76.8333,9.5 76.5,9.5C 72.6029,6.39076 68.9362,3.05742 65.5,-0.5 Z"/></g>
<g><path style="opacity:1" fill="#60696c" d="M 103.5,-0.5 C 104.167,-0.5 104.833,-0.5 105.5,-0.5C 105.5,2.16667 105.5,4.83333 105.5,7.5C 104.837,9.04192 104.17,10.7086 103.5,12.5C 102.46,8.18183 102.46,3.8485 103.5,-0.5 Z"/></g>
<g><path style="opacity:1" fill="#274255" d="M 36.5,-0.5 C 39.8333,-0.5 43.1667,-0.5 46.5,-0.5C 51.129,2.82108 55.7957,6.15442 60.5,9.5C 60.5323,11.6188 59.5323,12.9522 57.5,13.5C 52.8788,14.4362 48.8788,16.6029 45.5,20C 43.5459,20.1618 41.8793,20.3285 40.5,20.5C 39.8333,20.1667 39.1667,19.8333 38.5,19.5C 39.685,15.154 37.8517,12.8207 33,12.5C 32.6667,12.8333 32.3333,13.1667 32,13.5C 30.6565,11.6584 29.1565,9.9917 27.5,8.5C 30.548,5.45196 33.548,2.45196 36.5,-0.5 Z"/></g>
<g><path style="opacity:1" fill="#223a4e" d="M 54.5,-0.5 C 56.5,-0.5 58.5,-0.5 60.5,-0.5C 61.5274,1.19416 62.8608,2.5275 64.5,3.5C 64.7373,4.79105 64.404,5.79105 63.5,6.5C 62.609,5.89022 61.609,5.55688 60.5,5.5C 57.0294,4.79975 55.0294,2.79975 54.5,-0.5 Z"/></g>
<g><path style="opacity:1" fill="#50819e" d="M 10.5,0.5 C 10.3893,1.11742 10.056,1.61742 9.5,2C 12.8678,2.54279 16.2011,2.37612 19.5,1.5C 19.5,2.5 19.5,3.5 19.5,4.5C 21.5273,4.33788 23.5273,4.50454 25.5,5C 26.2524,5.67076 26.5858,6.5041 26.5,7.5C 22.8648,8.83487 19.1981,10.1682 15.5,11.5C 12.8908,10.7695 10.2241,10.2695 7.5,10C 12.8282,4.25534 12.3282,2.75534 6,5.5C 5.2352,5.43007 4.7352,5.09674 4.5,4.5C 6.51776,3.14083 8.51776,1.80749 10.5,0.5 Z"/></g>
<g><path style="opacity:1" fill="#3e4e55" d="M 99.5,12.5 C 97.1744,11.0037 95.0078,9.33708 93,7.5C 91.415,8.04389 89.915,8.71056 88.5,9.5C 88.979,7.15553 90.479,5.82219 93,5.5C 96.3912,6.88556 99.2246,9.05223 101.5,12C 100.906,12.4643 100.239,12.631 99.5,12.5 Z"/></g>
<g><path style="opacity:1" fill="#494b3d" d="M 145.5,14.5 C 138.493,14.0462 138.159,13.2129 144.5,12C 145.252,11.3292 145.586,10.4959 145.5,9.5C 150.077,8.44678 154.41,6.94678 158.5,5C 155.248,9.62781 150.915,12.7945 145.5,14.5 Z"/></g>
<g><path style="opacity:1" fill="#242c2a" d="M 221.5,-0.5 C 223.833,-0.5 226.167,-0.5 228.5,-0.5C 226.925,2.58212 224.758,5.24878 222,7.5C 220.239,10.4111 218.739,13.4111 217.5,16.5C 216.883,16.6107 216.383,16.944 216,17.5C 215.333,14.8333 215.333,12.1667 216,9.5C 218.112,6.27293 219.945,2.93959 221.5,-0.5 Z"/></g>
<g><path style="opacity:1" fill="#0a131d" d="M 99.5,12.5 C 100.172,13.2674 101.005,13.9341 102,14.5C 102.667,18.5 102.667,22.5 102,26.5C 97.3433,23.7547 92.51,21.4213 87.5,19.5C 86.1667,18.8333 85.1667,17.8333 84.5,16.5C 85.8333,14.1667 87.1667,11.8333 88.5,9.5C 89.915,8.71056 91.415,8.04389 93,7.5C 95.0078,9.33708 97.1744,11.0037 99.5,12.5 Z"/></g>
<g><path style="opacity:1" fill="#2b2c2a" d="M 145.5,9.5 C 145.586,10.4959 145.252,11.3292 144.5,12C 138.159,13.2129 138.493,14.0462 145.5,14.5C 139.664,15.5536 134.164,14.2202 129,10.5C 128.333,11.8333 127.667,11.8333 127,10.5C 126.536,11.0944 126.369,11.7611 126.5,12.5C 125.402,11.3991 125.235,10.0657 126,8.5C 126.725,7.94149 127.558,7.60816 128.5,7.5C 133.934,9.3448 139.601,10.0115 145.5,9.5 Z"/></g>
<g><path style="opacity:1" fill="#2c5a70" d="M 26.5,-0.5 C 29.8333,-0.5 33.1667,-0.5 36.5,-0.5C 33.548,2.45196 30.548,5.45196 27.5,8.5C 29.1565,9.9917 30.6565,11.6584 32,13.5C 32.3333,13.1667 32.6667,12.8333 33,12.5C 37.8517,12.8207 39.685,15.154 38.5,19.5C 36.2646,19.2053 34.2646,19.5386 32.5,20.5C 29.8333,20.5 27.1667,20.5 24.5,20.5C 24.7771,17.5525 24.4438,14.7191 23.5,12C 25.1412,10.871 26.1412,9.37099 26.5,7.5C 26.5858,6.5041 26.2524,5.67076 25.5,5C 23.5273,4.50454 21.5273,4.33788 19.5,4.5C 19.5,3.5 19.5,2.5 19.5,1.5C 21.9521,0.934566 24.2854,0.2679 26.5,-0.5 Z"/></g>
<g><path style="opacity:1" fill="#1b2e37" d="M 159.5,-0.5 C 162.5,-0.5 165.5,-0.5 168.5,-0.5C 167.051,3.47241 164.551,6.80575 161,9.5C 158.908,13.1968 157.741,17.1968 157.5,21.5C 160.537,21.5523 163.204,20.5523 165.5,18.5C 164.674,17.549 164.508,16.549 165,15.5C 165.923,16.7588 166.757,18.0921 167.5,19.5C 169.416,18.7517 171.416,18.7517 173.5,19.5C 171.8,14.6313 170.966,9.63126 171,4.5C 174.187,7.87403 176.02,11.874 176.5,16.5C 179.044,16.8957 181.211,16.229 183,14.5C 184.788,9.60898 185.955,4.60898 186.5,-0.5C 192.167,-0.5 197.833,-0.5 203.5,-0.5C 203.508,2.54483 203.841,5.54483 204.5,8.5C 203.5,8.5 202.5,8.5 201.5,8.5C 202.511,6.59761 202.678,4.59761 202,2.5C 199.467,7.72741 196.301,12.5607 192.5,17C 189.883,17.8215 187.216,18.3215 184.5,18.5C 179.35,19.3767 174.35,20.3767 169.5,21.5C 164.864,22.1489 160.198,22.6489 155.5,23C 150.614,24.9486 146.114,27.4486 142,30.5C 139.567,29.5212 137.067,28.8545 134.5,28.5C 132.307,27.2031 129.973,27.2031 127.5,28.5C 128.833,29.1667 130.167,29.8333 131.5,30.5C 130.934,31.2913 130.101,31.2913 129,30.5C 127.97,30.8361 127.47,31.5028 127.5,32.5C 119.428,29.3376 111.095,28.671 102.5,30.5C 102.833,29.8333 103.167,29.1667 103.5,28.5C 104.492,28.6716 105.158,28.3382 105.5,27.5C 111.103,27.0939 116.603,26.0939 122,24.5C 124.659,26.501 127.493,26.8343 130.5,25.5C 128.758,21.2746 127.424,16.9413 126.5,12.5C 126.369,11.7611 126.536,11.0944 127,10.5C 127.667,11.8333 128.333,11.8333 129,10.5C 134.164,14.2202 139.664,15.5536 145.5,14.5C 150.915,12.7945 155.248,9.62781 158.5,5C 154.41,6.94678 150.077,8.44678 145.5,9.5C 150.039,5.98717 154.705,2.65384 159.5,-0.5 Z"/></g>
<g><path style="opacity:1" fill="#12242d" d="M 168.5,-0.5 C 174.5,-0.5 180.5,-0.5 186.5,-0.5C 185.955,4.60898 184.788,9.60898 183,14.5C 181.211,16.229 179.044,16.8957 176.5,16.5C 176.02,11.874 174.187,7.87403 171,4.5C 170.966,9.63126 171.8,14.6313 173.5,19.5C 171.416,18.7517 169.416,18.7517 167.5,19.5C 166.757,18.0921 165.923,16.7588 165,15.5C 164.508,16.549 164.674,17.549 165.5,18.5C 163.204,20.5523 160.537,21.5523 157.5,21.5C 157.741,17.1968 158.908,13.1968 161,9.5C 164.551,6.80575 167.051,3.47241 168.5,-0.5 Z"/></g>
<g><path style="opacity:1" fill="#2b5071" d="M -0.5,-0.5 C 3.16667,-0.5 6.83333,-0.5 10.5,-0.5C 10.5,-0.166667 10.5,0.166667 10.5,0.5C 8.51776,1.80749 6.51776,3.14083 4.5,4.5C 2.77484,4.84254 2.27484,5.84254 3,7.5C 4.04946,6.48288 5.21613,6.31621 6.5,7C 5.22978,7.89963 4.22978,9.06629 3.5,10.5C 2.91395,10.2907 2.41395,9.95735 2,9.5C 1.10407,12.025 1.60407,14.1917 3.5,16C 0.92111,17.729 0.92111,19.5623 3.5,21.5C 4.32496,22.3857 5.32496,22.719 6.5,22.5C 6.66997,21.1779 6.33663,20.0113 5.5,19C 6.41623,18.6258 7.24956,18.1258 8,17.5C 10.8007,18.7946 13.6341,18.7946 16.5,17.5C 17.4287,18.6888 17.762,20.0222 17.5,21.5C 15.1152,24.2117 12.7819,26.8784 10.5,29.5C 6.93595,30.4227 3.26928,30.756 -0.5,30.5C -0.5,20.1667 -0.5,9.83333 -0.5,-0.5 Z"/></g>
<g><path style="opacity:1" fill="#618299" d="M 60.5,9.5 C 61.9616,10.4577 63.2949,11.6244 64.5,13C 65.7494,13.7401 66.7494,13.5735 67.5,12.5C 68.0431,12.56 68.3764,12.8933 68.5,13.5C 66.244,14.4209 65.244,16.0876 65.5,18.5C 63.5082,18.3285 61.8415,18.9951 60.5,20.5C 59.2054,19.9017 57.8721,19.4017 56.5,19C 57.8729,17.1388 58.2062,15.3055 57.5,13.5C 59.5323,12.9522 60.5323,11.6188 60.5,9.5 Z"/></g>
<g><path style="opacity:1" fill="#3a4f5d" d="M 84.5,16.5 C 85.1667,17.8333 86.1667,18.8333 87.5,19.5C 89.3719,22.5819 91.7052,25.2486 94.5,27.5C 93.8592,28.4822 93.1925,29.4822 92.5,30.5C 92.8333,30.8333 93.1667,31.1667 93.5,31.5C 96.0841,30.6072 98.7508,30.2739 101.5,30.5C 99.6508,31.593 97.9842,32.9263 96.5,34.5C 91.2792,35.4119 86.9458,37.9119 83.5,42C 81.4234,43.705 79.09,44.8717 76.5,45.5C 77.8936,43.2918 79.8936,41.7918 82.5,41C 83.5,40 84.5,39 85.5,38C 85.2716,37.6012 84.9382,37.4346 84.5,37.5C 85.1217,36.3734 85.955,35.3734 87,34.5C 87.6667,33.5 87.6667,32.5 87,31.5C 84.746,27.9934 82.746,24.3267 81,20.5C 78.295,17.9638 75.795,15.2971 73.5,12.5C 73.5,12.1667 73.5,11.8333 73.5,11.5C 75.1788,11.7148 76.1788,11.0481 76.5,9.5C 76.8333,9.5 77.1667,9.5 77.5,9.5C 80.1996,8.48405 82.8663,8.48405 85.5,9.5C 86.8333,10.1667 86.8333,10.8333 85.5,11.5C 78.076,10.4869 77.7426,12.1536 84.5,16.5 Z"/></g>
<g><path style="opacity:1" fill="#3f5869" d="M 64.5,3.5 C 68.1463,5.48185 71.1463,8.14852 73.5,11.5C 73.5,11.8333 73.5,12.1667 73.5,12.5C 72.5,12.5 71.5,12.5 70.5,12.5C 71.6403,16.1553 73.8069,19.1553 77,21.5C 77.7777,24.1838 79.1111,26.5172 81,28.5C 82.302,31.3751 83.1353,34.3751 83.5,37.5C 82.2223,37.7822 81.2223,38.4489 80.5,39.5C 80.7373,38.209 80.404,37.209 79.5,36.5C 78.1917,35.7677 76.8584,34.9344 75.5,34C 76.7472,32.5064 76.7472,31.0064 75.5,29.5C 74.0589,28.696 72.5589,28.0294 71,27.5C 69.9541,29.1952 68.7874,29.5285 67.5,28.5C 67.33,27.1779 67.6634,26.0113 68.5,25C 64.9497,25.0905 61.283,24.9238 57.5,24.5C 57.8247,22.8684 58.8247,21.8684 60.5,21.5C 62.155,22.3877 63.8217,22.8877 65.5,23C 64.3777,21.3866 64.8777,20.2199 67,19.5C 71.1744,13.4894 70.0078,9.15611 63.5,6.5C 64.404,5.79105 64.7373,4.79105 64.5,3.5 Z"/></g>
<g><path style="opacity:1" fill="#426981" d="M 60.5,5.5 C 61.609,5.55688 62.609,5.89022 63.5,6.5C 70.0078,9.15611 71.1744,13.4894 67,19.5C 64.8777,20.2199 64.3777,21.3866 65.5,23C 63.8217,22.8877 62.155,22.3877 60.5,21.5C 58.8247,21.8684 57.8247,22.8684 57.5,24.5C 56.3054,24.8656 55.6387,25.699 55.5,27C 56.8279,30.1237 57.8279,33.2904 58.5,36.5C 57.1667,36.5 55.8333,36.5 54.5,36.5C 54.0929,32.797 53.4263,29.1303 52.5,25.5C 53.8546,22.6835 52.8546,21.8501 49.5,23C 47.9586,24.3712 46.6253,25.8712 45.5,27.5C 44.5,26.8333 43.5,26.1667 42.5,25.5C 41.0582,24.1805 40.3915,22.5138 40.5,20.5C 41.8793,20.3285 43.5459,20.1618 45.5,20C 48.8788,16.6029 52.8788,14.4362 57.5,13.5C 58.2062,15.3055 57.8729,17.1388 56.5,19C 57.8721,19.4017 59.2054,19.9017 60.5,20.5C 61.8415,18.9951 63.5082,18.3285 65.5,18.5C 65.244,16.0876 66.244,14.4209 68.5,13.5C 68.3764,12.8933 68.0431,12.56 67.5,12.5C 64.8333,10.5 62.5,8.16667 60.5,5.5 Z"/></g>
<g><path style="opacity:1" fill="#5b6c72" d="M 201.5,8.5 C 198.015,15.9856 192.348,20.9856 184.5,23.5C 182.266,22.9514 179.932,23.2848 177.5,24.5C 176.614,23.675 176.281,22.675 176.5,21.5C 179.649,21.5848 182.316,20.5848 184.5,18.5C 187.216,18.3215 189.883,17.8215 192.5,17C 196.301,12.5607 199.467,7.72741 202,2.5C 202.678,4.59761 202.511,6.59761 201.5,8.5 Z"/></g>
<g><path style="opacity:1" fill="#637174" d="M 169.5,21.5 C 170.239,21.369 170.906,21.5357 171.5,22C 170.263,22.2321 169.263,22.7321 168.5,23.5C 163.908,23.8816 159.575,24.8816 155.5,26.5C 151.226,26.8033 147.559,28.47 144.5,31.5C 146.901,32.3576 148.901,33.691 150.5,35.5C 149.399,36.5983 148.066,36.765 146.5,36C 142.09,33.0243 138.09,30.5243 134.5,28.5C 137.067,28.8545 139.567,29.5212 142,30.5C 146.114,27.4486 150.614,24.9486 155.5,23C 160.198,22.6489 164.864,22.1489 169.5,21.5 Z"/></g>
<g><path style="opacity:1" fill="#385f8a" d="M 38.5,19.5 C 39.1667,19.8333 39.8333,20.1667 40.5,20.5C 40.3915,22.5138 41.0582,24.1805 42.5,25.5C 44.2593,27.6326 44.926,29.966 44.5,32.5C 43.2815,32.109 42.4482,32.7756 42,34.5C 39.2119,32.5879 37.8786,29.9213 38,26.5C 37.2588,27.6405 36.4255,27.6405 35.5,26.5C 34.8063,24.2452 33.8063,22.2452 32.5,20.5C 34.2646,19.5386 36.2646,19.2053 38.5,19.5 Z"/></g>
<g><path style="opacity:1" fill="#36444b" d="M 184.5,18.5 C 182.316,20.5848 179.649,21.5848 176.5,21.5C 176.281,22.675 176.614,23.675 177.5,24.5C 179.932,23.2848 182.266,22.9514 184.5,23.5C 183.524,24.8149 182.524,26.1482 181.5,27.5C 180.808,26.9747 180.308,26.3081 180,25.5C 178.09,26.2065 176.09,27.2065 174,28.5C 173.506,26.8659 173.34,25.1992 173.5,23.5C 171.833,23.5 170.167,23.5 168.5,23.5C 169.263,22.7321 170.263,22.2321 171.5,22C 170.906,21.5357 170.239,21.369 169.5,21.5C 174.35,20.3767 179.35,19.3767 184.5,18.5 Z"/></g>
<g><path style="opacity:1" fill="#1d3146" d="M 73.5,12.5 C 75.795,15.2971 78.295,17.9638 81,20.5C 82.746,24.3267 84.746,27.9934 87,31.5C 87.6667,32.5 87.6667,33.5 87,34.5C 85.955,35.3734 85.1217,36.3734 84.5,37.5C 84.1667,37.5 83.8333,37.5 83.5,37.5C 83.1353,34.3751 82.302,31.3751 81,28.5C 79.1111,26.5172 77.7777,24.1838 77,21.5C 73.8069,19.1553 71.6403,16.1553 70.5,12.5C 71.5,12.5 72.5,12.5 73.5,12.5 Z"/></g>
<g><path style="opacity:1" fill="#70878f" d="M 94.5,27.5 C 97.6085,27.2641 100.609,27.5975 103.5,28.5C 103.167,29.1667 102.833,29.8333 102.5,30.5C 102.167,30.5 101.833,30.5 101.5,30.5C 98.7508,30.2739 96.0841,30.6072 93.5,31.5C 93.1667,31.1667 92.8333,30.8333 92.5,30.5C 93.1925,29.4822 93.8592,28.4822 94.5,27.5 Z"/></g>
<g><path style="opacity:1" fill="#121720" d="M 127.5,32.5 C 128.71,32.9321 129.71,33.5987 130.5,34.5C 129.211,35.6366 128.211,36.9699 127.5,38.5C 126.833,38.1667 126.167,37.8333 125.5,37.5C 120.416,33.983 114.749,32.8163 108.5,34C 115.159,37.299 114.493,38.9657 106.5,39C 103.866,42.4327 103.033,41.9327 104,37.5C 105.338,36.7764 105.505,36.1098 104.5,35.5C 102.5,38.5 100.5,41.5 98.5,44.5C 97.3279,44.0814 96.3279,43.4147 95.5,42.5C 96.1823,39.6345 97.5156,37.1345 99.5,35C 98.552,34.5172 97.552,34.3505 96.5,34.5C 97.9842,32.9263 99.6508,31.593 101.5,30.5C 101.833,30.5 102.167,30.5 102.5,30.5C 111.095,28.671 119.428,29.3376 127.5,32.5 Z"/></g>
<g><path style="opacity:1" fill="#293032" d="M 155.5,26.5 C 158.924,27.7663 162.257,29.433 165.5,31.5C 165.833,32.8333 166.167,34.1667 166.5,35.5C 165.726,38.3308 164.726,40.9975 163.5,43.5C 161.901,43.2322 160.568,43.5655 159.5,44.5C 158.5,44.1667 157.833,43.5 157.5,42.5C 160.315,40.8397 162.982,38.8397 165.5,36.5C 164.754,35.2638 164.421,33.9305 164.5,32.5C 162.169,32.4977 160.169,33.331 158.5,35C 155.854,35.4974 153.187,35.6641 150.5,35.5C 148.901,33.691 146.901,32.3576 144.5,31.5C 147.559,28.47 151.226,26.8033 155.5,26.5 Z"/></g>
<g><path style="opacity:1" fill="#355069" d="M 57.5,24.5 C 61.283,24.9238 64.9497,25.0905 68.5,25C 67.6634,26.0113 67.33,27.1779 67.5,28.5C 67.4359,30.5401 67.2692,32.8734 67,35.5C 64.6194,36.435 62.1194,36.7683 59.5,36.5C 59.1667,36.5 58.8333,36.5 58.5,36.5C 57.8279,33.2904 56.8279,30.1237 55.5,27C 55.6387,25.699 56.3054,24.8656 57.5,24.5 Z"/></g>
<g><path style="opacity:1" fill="#121619" d="M 203.5,-0.5 C 209.5,-0.5 215.5,-0.5 221.5,-0.5C 219.945,2.93959 218.112,6.27293 216,9.5C 215.333,12.1667 215.333,14.8333 216,17.5C 216.383,16.944 216.883,16.6107 217.5,16.5C 214.88,19.6373 212.38,22.9706 210,26.5C 209.586,30.3505 208.752,34.0172 207.5,37.5C 204.43,37.3677 201.43,37.701 198.5,38.5C 201.443,35.8196 201.11,35.153 197.5,36.5C 199.275,33.1133 200.942,29.6133 202.5,26C 202.317,24.3164 201.65,24.1498 200.5,25.5C 199.761,25.369 199.094,25.5357 198.5,26C 196.874,28.6277 194.874,30.961 192.5,33C 188.67,33.8158 185.004,35.1491 181.5,37C 178.183,37.4983 174.85,37.665 171.5,37.5C 170.73,41.7512 172.397,44.2512 176.5,45C 172.691,48.2377 168.358,50.4044 163.5,51.5C 162.42,49.0038 161.086,46.6705 159.5,44.5C 160.568,43.5655 161.901,43.2322 163.5,43.5C 164.726,40.9975 165.726,38.3308 166.5,35.5C 166.167,34.1667 165.833,32.8333 165.5,31.5C 162.257,29.433 158.924,27.7663 155.5,26.5C 159.575,24.8816 163.908,23.8816 168.5,23.5C 170.167,23.5 171.833,23.5 173.5,23.5C 173.34,25.1992 173.506,26.8659 174,28.5C 176.09,27.2065 178.09,26.2065 180,25.5C 180.308,26.3081 180.808,26.9747 181.5,27.5C 182.524,26.1482 183.524,24.8149 184.5,23.5C 192.348,20.9856 198.015,15.9856 201.5,8.5C 202.5,8.5 203.5,8.5 204.5,8.5C 203.841,5.54483 203.508,2.54483 203.5,-0.5 Z"/></g>
<g><path style="opacity:1" fill="#4a86a0" d="M 54.5,36.5 C 53.596,37.209 53.2627,38.209 53.5,39.5C 51.4149,36.8806 49.9149,33.8806 49,30.5C 47.6412,29.635 46.4745,28.635 45.5,27.5C 46.6253,25.8712 47.9586,24.3712 49.5,23C 52.8546,21.8501 53.8546,22.6835 52.5,25.5C 53.4263,29.1303 54.0929,32.797 54.5,36.5 Z"/></g>
<g><path style="opacity:1" fill="#2c4158" d="M 79.5,36.5 C 75.8455,36.0578 72.1788,35.7244 68.5,35.5C 68.5,38.8333 68.5,42.1667 68.5,45.5C 67.325,45.719 66.325,45.3857 65.5,44.5C 63.8603,41.5319 61.8603,38.8652 59.5,36.5C 62.1194,36.7683 64.6194,36.435 67,35.5C 67.2692,32.8734 67.4359,30.5401 67.5,28.5C 68.7874,29.5285 69.9541,29.1952 71,27.5C 72.5589,28.0294 74.0589,28.696 75.5,29.5C 76.7472,31.0064 76.7472,32.5064 75.5,34C 76.8584,34.9344 78.1917,35.7677 79.5,36.5 Z"/></g>
<g><path style="opacity:1" fill="#464d4d" d="M 134.5,28.5 C 138.09,30.5243 142.09,33.0243 146.5,36C 148.066,36.765 149.399,36.5983 150.5,35.5C 153.187,35.6641 155.854,35.4974 158.5,35C 160.169,33.331 162.169,32.4977 164.5,32.5C 164.421,33.9305 164.754,35.2638 165.5,36.5C 162.982,38.8397 160.315,40.8397 157.5,42.5C 155.754,40.7484 153.754,39.4151 151.5,38.5C 150.608,40.3618 150.441,42.3618 151,44.5C 148.93,41.5924 146.43,40.9257 143.5,42.5C 142.833,42.5 142.5,42.8333 142.5,43.5C 139.592,42.8407 139.258,42.0074 141.5,41C 138.145,38.3217 134.478,36.155 130.5,34.5C 129.71,33.5987 128.71,32.9321 127.5,32.5C 127.47,31.5028 127.97,30.8361 129,30.5C 130.101,31.2913 130.934,31.2913 131.5,30.5C 130.167,29.8333 128.833,29.1667 127.5,28.5C 129.973,27.2031 132.307,27.2031 134.5,28.5 Z"/></g>
<g><path style="opacity:1" fill="#182233" d="M 79.5,36.5 C 80.404,37.209 80.7373,38.209 80.5,39.5C 77.7089,41.7349 74.7089,43.7349 71.5,45.5C 70.5,45.5 69.5,45.5 68.5,45.5C 68.5,42.1667 68.5,38.8333 68.5,35.5C 72.1788,35.7244 75.8455,36.0578 79.5,36.5 Z"/></g>
<g><path style="opacity:1" fill="#6099bf" d="M 45.5,27.5 C 46.4745,28.635 47.6412,29.635 49,30.5C 49.9149,33.8806 51.4149,36.8806 53.5,39.5C 54.1667,41.5 54.8333,43.5 55.5,45.5C 55.7678,47.099 55.4345,48.4324 54.5,49.5C 51.4816,49.6646 48.4816,49.498 45.5,49C 40.3426,45.5082 40.1759,41.6749 45,37.5C 45.4983,34.1832 45.665,30.8499 45.5,27.5 Z"/></g>
<g><path style="opacity:1" fill="#2d2d27" d="M 200.5,25.5 C 197.288,29.6306 194.288,33.964 191.5,38.5C 188.26,40.5147 184.76,41.8481 181,42.5C 180.472,43.816 180.972,44.4827 182.5,44.5C 180.833,45.8333 179.167,47.1667 177.5,48.5C 173.783,51.0249 169.783,53.0249 165.5,54.5C 164.599,53.7095 163.932,52.7095 163.5,51.5C 168.358,50.4044 172.691,48.2377 176.5,45C 172.397,44.2512 170.73,41.7512 171.5,37.5C 174.85,37.665 178.183,37.4983 181.5,37C 185.004,35.1491 188.67,33.8158 192.5,33C 194.874,30.961 196.874,28.6277 198.5,26C 199.094,25.5357 199.761,25.369 200.5,25.5 Z"/></g>
<g><path style="opacity:1" fill="#4b4c3b" d="M 197.5,36.5 C 193.511,40.9955 188.511,43.6621 182.5,44.5C 180.972,44.4827 180.472,43.816 181,42.5C 184.76,41.8481 188.26,40.5147 191.5,38.5C 194.288,33.964 197.288,29.6306 200.5,25.5C 201.65,24.1498 202.317,24.3164 202.5,26C 200.942,29.6133 199.275,33.1133 197.5,36.5 Z"/></g>
<g><path style="opacity:1" fill="#2d6e80" d="M 54.5,36.5 C 55.8333,36.5 57.1667,36.5 58.5,36.5C 58.8333,36.5 59.1667,36.5 59.5,36.5C 61.8603,38.8652 63.8603,41.5319 65.5,44.5C 66.325,45.3857 67.325,45.719 68.5,45.5C 69.5,45.5 70.5,45.5 71.5,45.5C 69.0314,46.3171 66.3647,46.8171 63.5,47C 64.2524,47.6708 64.5858,48.5041 64.5,49.5C 61.8915,49.5997 59.5582,48.9331 57.5,47.5C 57.1667,46.5 56.5,45.8333 55.5,45.5C 54.8333,43.5 54.1667,41.5 53.5,39.5C 53.2627,38.209 53.596,37.209 54.5,36.5 Z"/></g>
<g><path style="opacity:1" fill="#1b3848" d="M 125.5,37.5 C 126.167,37.8333 126.833,38.1667 127.5,38.5C 129.702,42.7625 133.036,44.5959 137.5,44C 134.998,46.212 131.998,47.0453 128.5,46.5C 128.5,48.5 128.5,50.5 128.5,52.5C 126.645,50.9669 124.812,49.3003 123,47.5C 122.503,49.8098 122.337,52.1432 122.5,54.5C 121.833,54.5 121.167,54.5 120.5,54.5C 120.5,53.8333 120.5,53.1667 120.5,52.5C 120.414,51.5041 120.748,50.6708 121.5,50C 119.833,48.3333 118.167,46.6667 116.5,45C 113.961,44.2042 111.628,44.3709 109.5,45.5C 102.833,48.5 102.833,51.5 109.5,54.5C 108.749,55.5735 107.749,55.7401 106.5,55C 103.93,53.5772 101.93,51.7439 100.5,49.5C 102.384,42.8081 106.884,39.8081 114,40.5C 117.511,40.804 121.011,41.1373 124.5,41.5C 124.433,40.0413 124.766,38.7079 125.5,37.5 Z"/></g>
<g><path style="opacity:1" fill="#6a6b69" d="M 151.5,38.5 C 155.279,43.2137 158.946,48.047 162.5,53C 161.833,53.6667 161.167,53.6667 160.5,53C 158.333,50.1667 156.167,47.3333 154,44.5C 154.077,45.7376 153.911,46.7376 153.5,47.5C 149.817,46.9927 146.483,45.326 143.5,42.5C 146.43,40.9257 148.93,41.5924 151,44.5C 150.441,42.3618 150.608,40.3618 151.5,38.5 Z"/></g>
<g><path style="opacity:1" fill="#101a22" d="M 242.5,31.5 C 242.44,30.9569 242.107,30.6236 241.5,30.5C 236.031,35.462 230.364,40.2954 224.5,45C 219.271,45.446 214.271,46.7794 209.5,49C 206.847,50.7753 205.847,52.942 206.5,55.5C 206.167,56.1667 205.833,56.8333 205.5,57.5C 201.018,57.0339 197.018,58.0339 193.5,60.5C 192.833,60.5 192.167,60.5 191.5,60.5C 192.954,57.6001 191.954,56.2668 188.5,56.5C 189.058,55.2101 190.058,54.3768 191.5,54C 190,53.1667 188.833,52 188,50.5C 187.612,51.428 186.945,52.0946 186,52.5C 183.054,51.2754 180.22,49.9421 177.5,48.5C 179.167,47.1667 180.833,45.8333 182.5,44.5C 188.511,43.6621 193.511,40.9955 197.5,36.5C 201.11,35.153 201.443,35.8196 198.5,38.5C 200.304,39.162 202.304,39.4954 204.5,39.5C 217.743,37.7523 230.077,33.419 241.5,26.5C 245.158,27.4857 245.491,29.1524 242.5,31.5 Z"/></g>
<g><path style="opacity:1" fill="#637480" d="M 83.5,37.5 C 83.8333,37.5 84.1667,37.5 84.5,37.5C 84.9382,37.4346 85.2716,37.6012 85.5,38C 84.5,39 83.5,40 82.5,41C 79.8936,41.7918 77.8936,43.2918 76.5,45.5C 73.6434,47.7583 70.6434,49.7583 67.5,51.5C 67.0269,50.0937 66.0269,49.427 64.5,49.5C 64.5858,48.5041 64.2524,47.6708 63.5,47C 66.3647,46.8171 69.0314,46.3171 71.5,45.5C 74.7089,43.7349 77.7089,41.7349 80.5,39.5C 81.2223,38.4489 82.2223,37.7822 83.5,37.5 Z"/></g>
<g><path style="opacity:1" fill="#468eab" d="M 32.5,56.5 C 29.5223,55.0139 27.0223,55.6805 25,58.5C 21.1343,52.9042 19.1343,46.9042 19,40.5C 14.1236,39.4298 11.6236,36.4298 11.5,31.5C 9.5,31.5 7.5,31.5 5.5,31.5C 3.5,31.5 1.5,31.5 -0.5,31.5C -0.5,31.1667 -0.5,30.8333 -0.5,30.5C 3.26928,30.756 6.93595,30.4227 10.5,29.5C 13.5933,30.2288 16.0933,31.8955 18,34.5C 18.1667,33.8333 18.3333,33.1667 18.5,32.5C 17.7515,30.9644 16.7515,29.6311 15.5,28.5C 16.3914,27.4104 17.3914,27.4104 18.5,28.5C 22.0755,32.653 25.4088,36.9863 28.5,41.5C 29.325,42.3857 30.325,42.719 31.5,42.5C 31.5,44.1667 31.5,45.8333 31.5,47.5C 30.448,47.3505 29.448,47.5172 28.5,48C 30.7823,50.3974 32.1156,53.2307 32.5,56.5 Z"/></g>
<g><path style="opacity:1" fill="#1d252c" d="M 125.5,37.5 C 124.766,38.7079 124.433,40.0413 124.5,41.5C 121.011,41.1373 117.511,40.804 114,40.5C 106.884,39.8081 102.384,42.8081 100.5,49.5C 100.5,49.8333 100.5,50.1667 100.5,50.5C 96.4231,50.0171 94.0897,51.6837 93.5,55.5C 92.6618,55.8417 92.3284,56.5084 92.5,57.5C 91.8333,57.5 91.5,57.1667 91.5,56.5C 91.3379,54.4727 91.5045,52.4727 92,50.5C 95.7992,47.9319 96.6325,44.5985 94.5,40.5C 92.3812,40.4677 91.0478,41.4677 90.5,43.5C 89.8333,44.5 89.1667,45.5 88.5,46.5C 87.2436,46.0962 86.0769,45.4295 85,44.5C 82.6892,47.401 79.6892,49.401 76,50.5C 75.5,50.3333 75,50.1667 74.5,50C 75.5822,48.6703 76.2488,47.1703 76.5,45.5C 79.09,44.8717 81.4234,43.705 83.5,42C 86.9458,37.9119 91.2792,35.4119 96.5,34.5C 97.552,34.3505 98.552,34.5172 99.5,35C 97.5156,37.1345 96.1823,39.6345 95.5,42.5C 96.3279,43.4147 97.3279,44.0814 98.5,44.5C 100.5,41.5 102.5,38.5 104.5,35.5C 105.505,36.1098 105.338,36.7764 104,37.5C 103.033,41.9327 103.866,42.4327 106.5,39C 114.493,38.9657 115.159,37.299 108.5,34C 114.749,32.8163 120.416,33.983 125.5,37.5 Z"/></g>
<g><path style="opacity:1" fill="#141c29" d="M 130.5,34.5 C 134.478,36.155 138.145,38.3217 141.5,41C 139.258,42.0074 139.592,42.8407 142.5,43.5C 144.992,46.4738 146.992,49.8072 148.5,53.5C 151.589,55.7573 153.589,58.7573 154.5,62.5C 152.046,61.7729 149.713,60.7729 147.5,59.5C 145.734,57.2294 143.734,55.0627 141.5,53C 139.19,52.5034 136.857,52.3367 134.5,52.5C 132.5,52.5 130.5,52.5 128.5,52.5C 128.5,50.5 128.5,48.5 128.5,46.5C 131.998,47.0453 134.998,46.212 137.5,44C 133.036,44.5959 129.702,42.7625 127.5,38.5C 128.211,36.9699 129.211,35.6366 130.5,34.5 Z"/></g>
<g><path style="opacity:1" fill="#2b3433" d="M 242.5,31.5 C 237.529,37.1412 232.529,42.8079 227.5,48.5C 226.373,49.1217 225.373,49.955 224.5,51C 218.558,52.4854 212.558,53.9854 206.5,55.5C 205.847,52.942 206.847,50.7753 209.5,49C 214.271,46.7794 219.271,45.446 224.5,45C 230.364,40.2954 236.031,35.462 241.5,30.5C 242.107,30.6236 242.44,30.9569 242.5,31.5 Z"/></g>
<g><path style="opacity:1" fill="#030f1c" d="M 227.5,48.5 C 234.342,55.8414 241.675,62.6747 249.5,69C 251.047,69.3334 252.38,68.8334 253.5,67.5C 254.182,68.2427 254.849,68.9094 255.5,69.5C 255.5,72.8333 255.5,76.1667 255.5,79.5C 249.79,75.3041 244.456,70.6375 239.5,65.5C 237.528,66.3052 236.028,67.6385 235,69.5C 230.006,67.5445 224.839,65.0445 219.5,62C 214.582,61.1938 209.915,59.6938 205.5,57.5C 205.833,56.8333 206.167,56.1667 206.5,55.5C 212.558,53.9854 218.558,52.4854 224.5,51C 225.373,49.955 226.373,49.1217 227.5,48.5 Z"/></g>
<g><path style="opacity:1" fill="#3c6e8f" d="M 26.5,7.5 C 26.1412,9.37099 25.1412,10.871 23.5,12C 24.4438,14.7191 24.7771,17.5525 24.5,20.5C 27.1667,20.5 29.8333,20.5 32.5,20.5C 33.8063,22.2452 34.8063,24.2452 35.5,26.5C 36.4255,27.6405 37.2588,27.6405 38,26.5C 37.8786,29.9213 39.2119,32.5879 42,34.5C 42.4482,32.7756 43.2815,32.109 44.5,32.5C 44.926,29.966 44.2593,27.6326 42.5,25.5C 43.5,26.1667 44.5,26.8333 45.5,27.5C 45.665,30.8499 45.4983,34.1832 45,37.5C 40.1759,41.6749 40.3426,45.5082 45.5,49C 48.4816,49.498 51.4816,49.6646 54.5,49.5C 54.5,50.1667 54.1667,50.5 53.5,50.5C 50.8127,50.3359 48.146,50.5026 45.5,51C 49.0715,53.5547 51.4048,56.888 52.5,61C 51.6433,61.6891 50.9767,62.5224 50.5,63.5C 52.7984,67.1037 54.7984,70.7704 56.5,74.5C 59.9103,74.6162 61.2436,72.9496 60.5,69.5C 60.8333,69.5 61.1667,69.5 61.5,69.5C 61.8016,72.0593 61.4682,74.3926 60.5,76.5C 57.3752,75.5206 54.0419,75.1872 50.5,75.5C 50.113,71.9453 49.113,68.6119 47.5,65.5C 48.0372,64.2588 48.7039,63.0921 49.5,62C 47.5175,59.8497 46.1842,57.3497 45.5,54.5C 45.5858,53.5041 45.2524,52.6708 44.5,52C 42.1523,51.6541 40.3189,50.4875 39,48.5C 38.1157,45.0654 36.949,41.732 35.5,38.5C 35.7093,37.914 36.0426,37.414 36.5,37C 33.1667,33.9648 30,30.7981 27,27.5C 25.4913,24.5719 24.1579,21.5719 23,18.5C 21.6545,20.3417 19.8211,21.3417 17.5,21.5C 17.762,20.0222 17.4287,18.6888 16.5,17.5C 13.6341,18.7946 10.8007,18.7946 8,17.5C 7.24956,18.1258 6.41623,18.6258 5.5,19C 6.33663,20.0113 6.66997,21.1779 6.5,22.5C 5.32496,22.719 4.32496,22.3857 3.5,21.5C 0.92111,19.5623 0.92111,17.729 3.5,16C 1.60407,14.1917 1.10407,12.025 2,9.5C 2.41395,9.95735 2.91395,10.2907 3.5,10.5C 4.22978,9.06629 5.22978,7.89963 6.5,7C 5.21613,6.31621 4.04946,6.48288 3,7.5C 2.27484,5.84254 2.77484,4.84254 4.5,4.5C 4.7352,5.09674 5.2352,5.43007 6,5.5C 12.3282,2.75534 12.8282,4.25534 7.5,10C 10.2241,10.2695 12.8908,10.7695 15.5,11.5C 19.1981,10.1682 22.8648,8.83487 26.5,7.5 Z"/></g>
<g><path style="opacity:1" fill="#397a8e" d="M 109.5,45.5 C 111.628,44.3709 113.961,44.2042 116.5,45C 118.167,46.6667 119.833,48.3333 121.5,50C 120.748,50.6708 120.414,51.5041 120.5,52.5C 119.5,51.1667 118.5,49.8333 117.5,48.5C 117.5,47.8333 117.167,47.5 116.5,47.5C 115.833,47.1667 115.167,46.8333 114.5,46.5C 113.081,45.5489 111.415,45.2155 109.5,45.5 Z"/></g>
<g><path style="opacity:1" fill="#427b9b" d="M 45.5,54.5 C 44.8826,54.3893 44.3826,54.056 44,53.5C 43.5034,55.8098 43.3367,58.1432 43.5,60.5C 41.8333,60.5 40.1667,60.5 38.5,60.5C 36.636,58.9862 34.636,57.6528 32.5,56.5C 32.1156,53.2307 30.7823,50.3974 28.5,48C 29.448,47.5172 30.448,47.3505 31.5,47.5C 31.5,45.8333 31.5,44.1667 31.5,42.5C 30.325,42.719 29.325,42.3857 28.5,41.5C 25.4088,36.9863 22.0755,32.653 18.5,28.5C 17.3914,27.4104 16.3914,27.4104 15.5,28.5C 16.7515,29.6311 17.7515,30.9644 18.5,32.5C 18.3333,33.1667 18.1667,33.8333 18,34.5C 16.0933,31.8955 13.5933,30.2288 10.5,29.5C 12.7819,26.8784 15.1152,24.2117 17.5,21.5C 19.8211,21.3417 21.6545,20.3417 23,18.5C 24.1579,21.5719 25.4913,24.5719 27,27.5C 30,30.7981 33.1667,33.9648 36.5,37C 36.0426,37.414 35.7093,37.914 35.5,38.5C 36.949,41.732 38.1157,45.0654 39,48.5C 40.3189,50.4875 42.1523,51.6541 44.5,52C 45.2524,52.6708 45.5858,53.5041 45.5,54.5 Z"/></g>
<g><path style="opacity:1" fill="#363e3e" d="M 91.5,56.5 C 89.7538,55.7505 88.7538,54.4172 88.5,52.5C 88.896,49.5648 89.896,46.8981 91.5,44.5C 91.3764,43.8933 91.0431,43.56 90.5,43.5C 91.0478,41.4677 92.3812,40.4677 94.5,40.5C 96.6325,44.5985 95.7992,47.9319 92,50.5C 91.5045,52.4727 91.3379,54.4727 91.5,56.5 Z"/></g>
<g><path style="opacity:1" fill="#8deedb" d="M 109.5,46.5 C 109.5,47.5 109.5,48.5 109.5,49.5C 111.167,49.5 112.833,49.5 114.5,49.5C 114.5,48.5 114.5,47.5 114.5,46.5C 115.167,46.8333 115.833,47.1667 116.5,47.5C 116.5,49.1667 116.5,50.8333 116.5,52.5C 114.011,52.7022 111.677,52.2022 109.5,51C 108.199,49.3845 108.199,47.8845 109.5,46.5 Z"/></g>
<g><path style="opacity:1" fill="#d6faf1" d="M 109.5,46.5 C 111.167,46.5 112.833,46.5 114.5,46.5C 114.5,47.5 114.5,48.5 114.5,49.5C 112.833,49.5 111.167,49.5 109.5,49.5C 109.5,48.5 109.5,47.5 109.5,46.5 Z"/></g>
<g><path style="opacity:1" fill="#53a0b8" d="M 5.5,31.5 C 7.5,31.5 9.5,31.5 11.5,31.5C 11.6236,36.4298 14.1236,39.4298 19,40.5C 19.1343,46.9042 21.1343,52.9042 25,58.5C 27.0223,55.6805 29.5223,55.0139 32.5,56.5C 34.636,57.6528 36.636,58.9862 38.5,60.5C 37.8777,62.335 36.5444,63.5017 34.5,64C 35.5,64.3333 36.5,64.6667 37.5,65C 40,68.1667 42.8333,71 46,73.5C 46.9211,76.3358 48.0877,79.0024 49.5,81.5C 45.0707,78.4009 40.404,75.7342 35.5,73.5C 33.5362,68.8001 30.5362,67.8001 26.5,70.5C 25.4822,69.8075 24.4822,69.1408 23.5,68.5C 21.8452,67.0698 19.8452,66.2365 17.5,66C 19.0886,63.5693 20.0886,60.9026 20.5,58C 19.4515,53.1701 17.4515,48.8368 14.5,45C 15.1667,44.3333 15.8333,43.6667 16.5,43C 13.8407,41.726 11.3407,40.226 9,38.5C 8.34709,35.8608 7.18043,33.5274 5.5,31.5 Z"/></g>
<g><path style="opacity:1" fill="#596365" d="M 90.5,43.5 C 91.0431,43.56 91.3764,43.8933 91.5,44.5C 89.896,46.8981 88.896,49.5648 88.5,52.5C 88.7538,54.4172 89.7538,55.7505 91.5,56.5C 91.5,57.1667 91.8333,57.5 92.5,57.5C 92.5,58.5 92.5,59.5 92.5,60.5C 91.391,60.4431 90.391,60.1098 89.5,59.5C 89.5,58.5 89.5,57.5 89.5,56.5C 88.5,56.5 87.5,56.5 86.5,56.5C 86.5399,53.0124 87.2066,49.6791 88.5,46.5C 89.1667,45.5 89.8333,44.5 90.5,43.5 Z"/></g>
<g><path style="opacity:1" fill="#304949" d="M 100.5,50.5 C 101.274,53.3253 102.941,55.492 105.5,57C 104.584,57.2784 103.918,57.7784 103.5,58.5C 101.167,58.5 98.8333,58.5 96.5,58.5C 95.1667,57.8333 94.1667,56.8333 93.5,55.5C 94.0897,51.6837 96.4231,50.0171 100.5,50.5 Z"/></g>
<g><path style="opacity:1" fill="#81817c" d="M 151.5,38.5 C 153.754,39.4151 155.754,40.7484 157.5,42.5C 157.833,43.5 158.5,44.1667 159.5,44.5C 161.086,46.6705 162.42,49.0038 163.5,51.5C 163.932,52.7095 164.599,53.7095 165.5,54.5C 163.754,58.3267 161.754,61.9934 159.5,65.5C 158.206,66.2899 157.039,67.2899 156,68.5C 155.667,66.9532 156.167,65.6199 157.5,64.5C 157.145,63.4777 156.478,62.811 155.5,62.5C 155.167,62.5 154.833,62.5 154.5,62.5C 153.589,58.7573 151.589,55.7573 148.5,53.5C 146.992,49.8072 144.992,46.4738 142.5,43.5C 142.5,42.8333 142.833,42.5 143.5,42.5C 146.483,45.326 149.817,46.9927 153.5,47.5C 153.911,46.7376 154.077,45.7376 154,44.5C 156.167,47.3333 158.333,50.1667 160.5,53C 161.167,53.6667 161.833,53.6667 162.5,53C 158.946,48.047 155.279,43.2137 151.5,38.5 Z"/></g>
<g><path style="opacity:1" fill="#3fbddc" d="M 109.5,45.5 C 111.415,45.2155 113.081,45.5489 114.5,46.5C 112.833,46.5 111.167,46.5 109.5,46.5C 108.199,47.8845 108.199,49.3845 109.5,51C 111.677,52.2022 114.011,52.7022 116.5,52.5C 116.5,50.8333 116.5,49.1667 116.5,47.5C 117.167,47.5 117.5,47.8333 117.5,48.5C 117.5,50.1667 117.5,51.8333 117.5,53.5C 116.209,53.2627 115.209,53.596 114.5,54.5C 112.833,54.5 111.167,54.5 109.5,54.5C 102.833,51.5 102.833,48.5 109.5,45.5 Z"/></g>
<g><path style="opacity:1" fill="#279fd8" d="M 117.5,48.5 C 118.5,49.8333 119.5,51.1667 120.5,52.5C 120.5,53.1667 120.5,53.8333 120.5,54.5C 118.347,55.5729 116.347,55.5729 114.5,54.5C 115.209,53.596 116.209,53.2627 117.5,53.5C 117.5,51.8333 117.5,50.1667 117.5,48.5 Z"/></g>
<g><path style="opacity:1" fill="#3b3d40" d="M 88.5,46.5 C 87.2066,49.6791 86.5399,53.0124 86.5,56.5C 87.5,56.5 88.5,56.5 89.5,56.5C 89.5,57.5 89.5,58.5 89.5,59.5C 83.0022,58.3312 76.6689,56.3312 70.5,53.5C 69.5,52.8333 68.5,52.1667 67.5,51.5C 70.6434,49.7583 73.6434,47.7583 76.5,45.5C 76.2488,47.1703 75.5822,48.6703 74.5,50C 75,50.1667 75.5,50.3333 76,50.5C 79.6892,49.401 82.6892,47.401 85,44.5C 86.0769,45.4295 87.2436,46.0962 88.5,46.5 Z"/></g>
<g><path style="opacity:1" fill="#111e24" d="M 69.5,54.5 C 69.5,53.8333 69.8333,53.5 70.5,53.5C 76.6689,56.3312 83.0022,58.3312 89.5,59.5C 90.391,60.1098 91.391,60.4431 92.5,60.5C 89.3929,64.9343 86.7262,69.6009 84.5,74.5C 83.962,72.8828 83.6287,71.2161 83.5,69.5C 79.2768,69.9173 76.7768,72.2506 76,76.5C 73.2819,69.7826 71.6152,62.7826 71,55.5C 70.6174,54.944 70.1174,54.6107 69.5,54.5 Z"/></g>
<g><path style="opacity:1" fill="#3c4546" d="M 128.5,52.5 C 130.5,52.5 132.5,52.5 134.5,52.5C 133.766,53.7079 133.433,55.0413 133.5,56.5C 135.415,56.2155 137.081,56.5489 138.5,57.5C 136.473,57.3379 134.473,57.5045 132.5,58C 130.957,60.0449 131.29,61.5449 133.5,62.5C 133.5,63.5 133.5,64.5 133.5,65.5C 134.552,65.3505 135.552,65.5172 136.5,66C 139.171,68.2539 141.505,70.7539 143.5,73.5C 139.078,70.8547 134.745,68.0213 130.5,65C 128.527,64.5045 126.527,64.3379 124.5,64.5C 124.69,62.0411 123.69,60.3745 121.5,59.5C 122.953,58.1751 122.619,57.3418 120.5,57C 121.381,56.2917 122.047,55.4584 122.5,54.5C 122.337,52.1432 122.503,49.8098 123,47.5C 124.812,49.3003 126.645,50.9669 128.5,52.5 Z"/></g>
<g><path style="opacity:1" fill="#426064" d="M 100.5,49.5 C 101.93,51.7439 103.93,53.5772 106.5,55C 107.749,55.7401 108.749,55.5735 109.5,54.5C 111.167,54.5 112.833,54.5 114.5,54.5C 116.347,55.5729 118.347,55.5729 120.5,54.5C 121.167,54.5 121.833,54.5 122.5,54.5C 122.047,55.4584 121.381,56.2917 120.5,57C 122.619,57.3418 122.953,58.1751 121.5,59.5C 115.591,58.5447 109.591,58.2114 103.5,58.5C 103.918,57.7784 104.584,57.2784 105.5,57C 102.941,55.492 101.274,53.3253 100.5,50.5C 100.5,50.1667 100.5,49.8333 100.5,49.5 Z"/></g>
<g><path style="opacity:1" fill="#031224" d="M 205.5,57.5 C 209.915,59.6938 214.582,61.1938 219.5,62C 224.839,65.0445 230.006,67.5445 235,69.5C 236.028,67.6385 237.528,66.3052 239.5,65.5C 244.456,70.6375 249.79,75.3041 255.5,79.5C 255.5,82.1667 255.5,84.8333 255.5,87.5C 253.226,86.0484 251.726,86.715 251,89.5C 249.445,87.8542 247.779,87.5209 246,88.5C 245.5,87.3333 244.667,86.5 243.5,86C 235.261,83.213 227.261,79.8797 219.5,76C 217.5,74.6667 215.833,73 214.5,71C 211.907,71.4275 209.407,71.5942 207,71.5C 201.723,69.7506 196.889,66.7506 192.5,62.5C 192.833,61.8333 193.167,61.1667 193.5,60.5C 197.018,58.0339 201.018,57.0339 205.5,57.5 Z"/></g>
<g><path style="opacity:1" fill="#161d21" d="M 138.5,57.5 C 144.392,59.6682 146.725,63.6682 145.5,69.5C 144.989,67.1161 143.989,65.1161 142.5,63.5C 142.167,62.5 141.5,61.8333 140.5,61.5C 139.726,60.8529 138.726,60.5195 137.5,60.5C 135.645,60.3402 134.312,61.0069 133.5,62.5C 131.29,61.5449 130.957,60.0449 132.5,58C 134.473,57.5045 136.473,57.3379 138.5,57.5 Z"/></g>
<g><path style="opacity:1" fill="#25507a" d="M 55.5,45.5 C 56.5,45.8333 57.1667,46.5 57.5,47.5C 58.072,48.9733 58.9054,50.3066 60,51.5C 60.3333,51.1667 60.6667,50.8333 61,50.5C 61.4995,56.8246 61.6662,63.1579 61.5,69.5C 61.1667,69.5 60.8333,69.5 60.5,69.5C 56.4788,68.5171 55.1455,66.1837 56.5,62.5C 56.2756,58.6559 54.9422,55.3226 52.5,52.5C 52.8627,51.8165 53.1961,51.1499 53.5,50.5C 54.1667,50.5 54.5,50.1667 54.5,49.5C 55.4345,48.4324 55.7678,47.099 55.5,45.5 Z"/></g>
<g><path style="opacity:1" fill="#0a1015" d="M 93.5,55.5 C 94.1667,56.8333 95.1667,57.8333 96.5,58.5C 100.97,59.4861 105.637,59.8195 110.5,59.5C 110.244,61.7925 110.577,63.9592 111.5,66C 107.442,66.3404 103.442,67.0071 99.5,68C 97.714,68.7845 96.214,69.9512 95,71.5C 94.3333,70.1667 93.6667,70.1667 93,71.5C 92.7104,69.9559 92.0437,68.6226 91,67.5C 88.497,70.5017 86.497,73.8351 85,77.5C 84.5357,76.9056 84.369,76.2389 84.5,75.5C 84.5,75.1667 84.5,74.8333 84.5,74.5C 86.7262,69.6009 89.3929,64.9343 92.5,60.5C 92.5,59.5 92.5,58.5 92.5,57.5C 92.3284,56.5084 92.6618,55.8417 93.5,55.5 Z"/></g>
<g><path style="opacity:1" fill="#121a21" d="M 96.5,58.5 C 98.8333,58.5 101.167,58.5 103.5,58.5C 109.591,58.2114 115.591,58.5447 121.5,59.5C 123.69,60.3745 124.69,62.0411 124.5,64.5C 125.191,68.2262 126.191,71.8929 127.5,75.5C 127.185,77.483 126.185,78.8163 124.5,79.5C 123.074,75.9452 120.741,74.9452 117.5,76.5C 116.833,76.5 116.167,76.5 115.5,76.5C 112.925,77.7284 110.592,79.3951 108.5,81.5C 107.73,79.7282 106.397,78.7282 104.5,78.5C 101.868,79.4399 99.2017,79.6066 96.5,79C 99.2674,78.3308 99.7674,77.1641 98,75.5C 95.1415,76.5201 93.6415,78.5201 93.5,81.5C 88.4921,87.8648 89.8254,91.8648 97.5,93.5C 95.6121,94.9397 93.9454,96.6064 92.5,98.5C 89.1573,97.3108 86.4906,95.3108 84.5,92.5C 86.0785,89.7504 85.7451,87.4171 83.5,85.5C 82.596,84.791 82.2627,83.791 82.5,82.5C 82.7215,79.9327 83.3882,77.5994 84.5,75.5C 84.369,76.2389 84.5357,76.9056 85,77.5C 86.497,73.8351 88.497,70.5017 91,67.5C 92.0437,68.6226 92.7104,69.9559 93,71.5C 93.6667,70.1667 94.3333,70.1667 95,71.5C 96.214,69.9512 97.714,68.7845 99.5,68C 103.442,67.0071 107.442,66.3404 111.5,66C 110.577,63.9592 110.244,61.7925 110.5,59.5C 105.637,59.8195 100.97,59.4861 96.5,58.5 Z"/></g>
<g><path style="opacity:1" fill="#1c303e" d="M 188.5,56.5 C 191.954,56.2668 192.954,57.6001 191.5,60.5C 186.89,62.0368 182.223,63.3702 177.5,64.5C 177.286,62.8561 177.62,61.3561 178.5,60C 181.568,58.0985 184.901,56.9318 188.5,56.5 Z"/></g>
<g><path style="opacity:1" fill="#505b5b" d="M 134.5,52.5 C 136.857,52.3367 139.19,52.5034 141.5,53C 143.734,55.0627 145.734,57.2294 147.5,59.5C 149.857,64.6194 150.524,69.9528 149.5,75.5C 146.99,75.9465 144.99,75.2798 143.5,73.5C 141.505,70.7539 139.171,68.2539 136.5,66C 135.552,65.5172 134.552,65.3505 133.5,65.5C 133.5,64.5 133.5,63.5 133.5,62.5C 134.312,61.0069 135.645,60.3402 137.5,60.5C 138.726,60.5195 139.726,60.8529 140.5,61.5C 138.712,61.2148 137.045,61.5481 135.5,62.5C 135.667,62.8333 135.833,63.1667 136,63.5C 138.274,64.8112 140.44,64.8112 142.5,63.5C 143.989,65.1161 144.989,67.1161 145.5,69.5C 146.725,63.6682 144.392,59.6682 138.5,57.5C 137.081,56.5489 135.415,56.2155 133.5,56.5C 133.433,55.0413 133.766,53.7079 134.5,52.5 Z"/></g>
<g><path style="opacity:1" fill="#3e8595" d="M 140.5,61.5 C 141.5,61.8333 142.167,62.5 142.5,63.5C 140.44,64.8112 138.274,64.8112 136,63.5C 135.833,63.1667 135.667,62.8333 135.5,62.5C 137.045,61.5481 138.712,61.2148 140.5,61.5 Z"/></g>
<g><path style="opacity:1" fill="#0c1d32" d="M 177.5,48.5 C 180.22,49.9421 183.054,51.2754 186,52.5C 186.945,52.0946 187.612,51.428 188,50.5C 188.833,52 190,53.1667 191.5,54C 190.058,54.3768 189.058,55.2101 188.5,56.5C 184.901,56.9318 181.568,58.0985 178.5,60C 177.62,61.3561 177.286,62.8561 177.5,64.5C 182.223,63.3702 186.89,62.0368 191.5,60.5C 192.167,60.5 192.833,60.5 193.5,60.5C 193.167,61.1667 192.833,61.8333 192.5,62.5C 193.028,63.8474 193.195,65.1807 193,66.5C 187.634,66.2401 181.8,65.5735 175.5,64.5C 172.873,65.0578 170.54,66.0578 168.5,67.5C 166.983,67.5106 165.816,68.1772 165,69.5C 164.617,68.944 164.117,68.6107 163.5,68.5C 163.649,67.448 163.483,66.448 163,65.5C 162.667,65.8333 162.333,66.1667 162,66.5C 161.501,70.4862 161.334,74.4862 161.5,78.5C 161.167,78.5 160.833,78.5 160.5,78.5C 160.533,74.1311 160.2,69.7978 159.5,65.5C 161.754,61.9934 163.754,58.3267 165.5,54.5C 169.783,53.0249 173.783,51.0249 177.5,48.5 Z"/></g>
<g><path style="opacity:1" fill="#306085" d="M 53.5,50.5 C 53.1961,51.1499 52.8627,51.8165 52.5,52.5C 54.9422,55.3226 56.2756,58.6559 56.5,62.5C 55.1455,66.1837 56.4788,68.5171 60.5,69.5C 61.2436,72.9496 59.9103,74.6162 56.5,74.5C 54.7984,70.7704 52.7984,67.1037 50.5,63.5C 50.9767,62.5224 51.6433,61.6891 52.5,61C 51.4048,56.888 49.0715,53.5547 45.5,51C 48.146,50.5026 50.8127,50.3359 53.5,50.5 Z"/></g>
<g><path style="opacity:1" fill="#5cccde" d="M -0.5,34.5 C 2.45475,36.3917 4.45475,39.0584 5.5,42.5C 8.67963,44.9254 11.8463,47.2587 15,49.5C 16.3467,54.495 14.5134,57.1616 9.5,57.5C 8.52562,60.4959 6.52562,62.1625 3.5,62.5C 3.37752,65.2921 2.04419,67.2921 -0.5,68.5C -0.5,57.1667 -0.5,45.8333 -0.5,34.5 Z"/></g>
<g><path style="opacity:1" fill="#4dbdd2" d="M 9.5,57.5 C 10.4584,57.9528 11.2917,58.6195 12,59.5C 12.3333,59.1667 12.6667,58.8333 13,58.5C 13.346,60.2182 13.846,61.8849 14.5,63.5C 12.2372,64.65 9.90382,65.65 7.5,66.5C 9.10927,68.9402 11.4426,70.1069 14.5,70C 12.2591,71.522 9.92577,72.8553 7.5,74C 8.25244,74.6708 8.58577,75.5041 8.5,76.5C 8.16667,76.5 7.83333,76.5 7.5,76.5C 4.59444,76.9565 1.92778,77.9565 -0.5,79.5C -0.5,75.8333 -0.5,72.1667 -0.5,68.5C 2.04419,67.2921 3.37752,65.2921 3.5,62.5C 6.52562,62.1625 8.52562,60.4959 9.5,57.5 Z"/></g>
<g><path style="opacity:1" fill="#52adc5" d="M -0.5,31.5 C 1.5,31.5 3.5,31.5 5.5,31.5C 7.18043,33.5274 8.34709,35.8608 9,38.5C 11.3407,40.226 13.8407,41.726 16.5,43C 15.8333,43.6667 15.1667,44.3333 14.5,45C 17.4515,48.8368 19.4515,53.1701 20.5,58C 20.0886,60.9026 19.0886,63.5693 17.5,66C 19.8452,66.2365 21.8452,67.0698 23.5,68.5C 23.631,69.2389 23.4643,69.9056 23,70.5C 21.0692,67.8953 19.2358,67.8953 17.5,70.5C 19.5462,72.7819 20.5462,75.4485 20.5,78.5C 16.5592,76.722 12.5592,76.0554 8.5,76.5C 8.58577,75.5041 8.25244,74.6708 7.5,74C 9.92577,72.8553 12.2591,71.522 14.5,70C 11.4426,70.1069 9.10927,68.9402 7.5,66.5C 9.90382,65.65 12.2372,64.65 14.5,63.5C 13.846,61.8849 13.346,60.2182 13,58.5C 12.6667,58.8333 12.3333,59.1667 12,59.5C 11.2917,58.6195 10.4584,57.9528 9.5,57.5C 14.5134,57.1616 16.3467,54.495 15,49.5C 11.8463,47.2587 8.67963,44.9254 5.5,42.5C 4.45475,39.0584 2.45475,36.3917 -0.5,34.5C -0.5,33.5 -0.5,32.5 -0.5,31.5 Z"/></g>
<g><path style="opacity:1" fill="#2c495a" d="M 57.5,47.5 C 59.5582,48.9331 61.8915,49.5997 64.5,49.5C 66.0269,49.427 67.0269,50.0937 67.5,51.5C 68.5,52.1667 69.5,52.8333 70.5,53.5C 69.8333,53.5 69.5,53.8333 69.5,54.5C 70.5493,62.5802 72.0493,70.5802 74,78.5C 76.8081,79.9191 79.6415,81.2524 82.5,82.5C 82.2627,83.791 82.596,84.791 83.5,85.5C 80.7715,90.2077 80.1048,95.2077 81.5,100.5C 80.5,100.167 79.8333,99.5 79.5,98.5C 77.3455,94.8951 76.0121,90.8951 75.5,86.5C 74.8333,86.1667 74.1667,85.8333 73.5,85.5C 71.5821,88.5843 70.2488,91.9176 69.5,95.5C 68.7321,96.2625 68.2321,97.2625 68,98.5C 66.418,97.0397 65.0847,95.373 64,93.5C 63.2825,94.4506 62.4491,94.6172 61.5,94C 62.731,92.8173 62.731,91.6507 61.5,90.5C 60.4471,91.4383 59.7804,92.605 59.5,94C 60.9765,96.349 60.8098,98.5156 59,100.5C 58.7216,99.5842 58.2216,98.9175 57.5,98.5C 57.5,96.1667 57.5,93.8333 57.5,91.5C 58.8624,86.5688 59.8624,81.5688 60.5,76.5C 61.4682,74.3926 61.8016,72.0593 61.5,69.5C 61.6662,63.1579 61.4995,56.8246 61,50.5C 60.6667,50.8333 60.3333,51.1667 60,51.5C 58.9054,50.3066 58.072,48.9733 57.5,47.5 Z"/></g>
<g><path style="opacity:1" fill="#031733" d="M 192.5,62.5 C 196.889,66.7506 201.723,69.7506 207,71.5C 209.407,71.5942 211.907,71.4275 214.5,71C 215.833,73 217.5,74.6667 219.5,76C 227.261,79.8797 235.261,83.213 243.5,86C 244.667,86.5 245.5,87.3333 246,88.5C 247.779,87.5209 249.445,87.8542 251,89.5C 251.726,86.715 253.226,86.0484 255.5,87.5C 255.5,91.8333 255.5,96.1667 255.5,100.5C 245.963,96.4957 236.297,92.6623 226.5,89C 220.917,85.5396 214.917,83.2063 208.5,82C 204.866,80.1146 201.199,78.1146 197.5,76C 196.651,73.6451 195.151,71.8118 193,70.5C 192.055,70.9054 191.388,71.572 191,72.5C 188.876,71.7728 186.709,71.1062 184.5,70.5C 183.522,70.9767 182.689,71.6433 182,72.5C 177.543,70.7362 173.043,69.0696 168.5,67.5C 170.54,66.0578 172.873,65.0578 175.5,64.5C 181.8,65.5735 187.634,66.2401 193,66.5C 193.195,65.1807 193.028,63.8474 192.5,62.5 Z"/></g>
<g><path style="opacity:1" fill="#041a3b" d="M 168.5,67.5 C 173.043,69.0696 177.543,70.7362 182,72.5C 182.689,71.6433 183.522,70.9767 184.5,70.5C 186.709,71.1062 188.876,71.7728 191,72.5C 191.388,71.572 192.055,70.9054 193,70.5C 195.151,71.8118 196.651,73.6451 197.5,76C 201.199,78.1146 204.866,80.1146 208.5,82C 214.917,83.2063 220.917,85.5396 226.5,89C 236.297,92.6623 245.963,96.4957 255.5,100.5C 255.5,101.833 255.5,103.167 255.5,104.5C 242.951,99.8074 229.951,94.3074 216.5,88C 208.474,87.3202 201.807,83.9868 196.5,78C 192.883,77.6473 189.383,76.814 186,75.5C 183.976,76.294 181.976,75.9607 180,74.5C 179.043,76.7092 177.876,76.5425 176.5,74C 175.551,73.3828 174.718,73.5494 174,74.5C 172.757,72.1671 171.091,71.5004 169,72.5C 166.869,71.3852 165.035,70.0519 163.5,68.5C 164.117,68.6107 164.617,68.944 165,69.5C 165.816,68.1772 166.983,67.5106 168.5,67.5 Z"/></g>
<g><path style="opacity:1" fill="#5793ad" d="M 45.5,54.5 C 46.1842,57.3497 47.5175,59.8497 49.5,62C 48.7039,63.0921 48.0372,64.2588 47.5,65.5C 49.113,68.6119 50.113,71.9453 50.5,75.5C 54.0419,75.1872 57.3752,75.5206 60.5,76.5C 59.8624,81.5688 58.8624,86.5688 57.5,91.5C 56.5387,95.3347 55.7054,99.3347 55,103.5C 54.6174,104.056 54.1174,104.389 53.5,104.5C 53.4639,100.55 54.1306,96.7165 55.5,93C 53.8215,91.1246 52.8215,88.958 52.5,86.5C 53.7079,87.2341 55.0413,87.5674 56.5,87.5C 56.8333,84.8333 57.1667,82.1667 57.5,79.5C 56.5,79.5 55.5,79.5 54.5,79.5C 54.5,78.5 54.5,77.5 54.5,76.5C 53.5,76.5 52.5,76.5 51.5,76.5C 51.5079,79.5448 51.8413,82.5448 52.5,85.5C 50.7376,84.7377 49.7376,83.4044 49.5,81.5C 48.0877,79.0024 46.9211,76.3358 46,73.5C 42.8333,71 40,68.1667 37.5,65C 36.5,64.6667 35.5,64.3333 34.5,64C 36.5444,63.5017 37.8777,62.335 38.5,60.5C 40.1667,60.5 41.8333,60.5 43.5,60.5C 43.3367,58.1432 43.5034,55.8098 44,53.5C 44.3826,54.056 44.8826,54.3893 45.5,54.5 Z"/></g>
<g><path style="opacity:1" fill="#3e79a3" d="M 52.5,86.5 C 52.5,86.1667 52.5,85.8333 52.5,85.5C 51.8413,82.5448 51.5079,79.5448 51.5,76.5C 52.5,76.5 53.5,76.5 54.5,76.5C 54.5,77.5 54.5,78.5 54.5,79.5C 55.5,79.5 56.5,79.5 57.5,79.5C 57.1667,82.1667 56.8333,84.8333 56.5,87.5C 55.0413,87.5674 53.7079,87.2341 52.5,86.5 Z"/></g>
<g><path style="opacity:1" fill="#22323c" d="M 69.5,54.5 C 70.1174,54.6107 70.6174,54.944 71,55.5C 71.6152,62.7826 73.2819,69.7826 76,76.5C 76.7768,72.2506 79.2768,69.9173 83.5,69.5C 83.6287,71.2161 83.962,72.8828 84.5,74.5C 84.5,74.8333 84.5,75.1667 84.5,75.5C 83.3882,77.5994 82.7215,79.9327 82.5,82.5C 79.6415,81.2524 76.8081,79.9191 74,78.5C 72.0493,70.5802 70.5493,62.5802 69.5,54.5 Z"/></g>
<g><path style="opacity:1" fill="#212e32" d="M 147.5,59.5 C 149.713,60.7729 152.046,61.7729 154.5,62.5C 154.833,62.5 155.167,62.5 155.5,62.5C 155.038,64.7567 154.038,66.7567 152.5,68.5C 154.167,69.1667 155.833,69.8333 157.5,70.5C 154.852,73.7678 154.852,77.1012 157.5,80.5C 154.105,83.8898 151.105,87.5565 148.5,91.5C 147.539,89.7354 147.205,87.7354 147.5,85.5C 145.058,85.1192 144.391,85.7859 145.5,87.5C 145.058,88.7387 144.391,89.7387 143.5,90.5C 142.64,88.7121 141.64,87.0455 140.5,85.5C 140.932,82.1226 140.265,79.1226 138.5,76.5C 137.596,71.3196 135.096,70.3196 131,73.5C 129.589,76.579 128.089,79.579 126.5,82.5C 125.575,81.6431 124.908,80.6431 124.5,79.5C 126.185,78.8163 127.185,77.483 127.5,75.5C 126.191,71.8929 125.191,68.2262 124.5,64.5C 126.527,64.3379 128.527,64.5045 130.5,65C 134.745,68.0213 139.078,70.8547 143.5,73.5C 144.99,75.2798 146.99,75.9465 149.5,75.5C 150.524,69.9528 149.857,64.6194 147.5,59.5 Z"/></g>
<g><path style="opacity:1" fill="#3991b8" d="M 7.5,76.5 C 5.37094,78.9501 2.70427,80.6167 -0.5,81.5C -0.5,80.8333 -0.5,80.1667 -0.5,79.5C 1.92778,77.9565 4.59444,76.9565 7.5,76.5 Z"/></g>
<g><path style="opacity:1" fill="#6999a0" d="M 138.5,76.5 C 137.312,75.3157 136.145,75.3157 135,76.5C 133.798,78.6775 133.298,81.0108 133.5,83.5C 133.167,83.5 132.833,83.5 132.5,83.5C 131.292,82.7659 129.959,82.4326 128.5,82.5C 128.461,85.3214 127.795,87.9881 126.5,90.5C 124.731,87.2939 123.231,83.9606 122,80.5C 121.867,83.5251 120.867,86.1918 119,88.5C 118.283,87.9558 117.783,87.2891 117.5,86.5C 118.765,85.4855 119.431,83.9855 119.5,82C 119.333,80.5 119.167,79 119,77.5C 118.617,76.944 118.117,76.6107 117.5,76.5C 120.741,74.9452 123.074,75.9452 124.5,79.5C 124.908,80.6431 125.575,81.6431 126.5,82.5C 128.089,79.579 129.589,76.579 131,73.5C 135.096,70.3196 137.596,71.3196 138.5,76.5 Z"/></g>
<g><path style="opacity:1" fill="#041d43" d="M 163.5,68.5 C 165.035,70.0519 166.869,71.3852 169,72.5C 171.091,71.5004 172.757,72.1671 174,74.5C 174.718,73.5494 175.551,73.3828 176.5,74C 177.876,76.5425 179.043,76.7092 180,74.5C 181.976,75.9607 183.976,76.294 186,75.5C 189.383,76.814 192.883,77.6473 196.5,78C 201.807,83.9868 208.474,87.3202 216.5,88C 229.951,94.3074 242.951,99.8074 255.5,104.5C 255.5,107.167 255.5,109.833 255.5,112.5C 241.677,106.841 228.177,100.508 215,93.5C 214.667,93.8333 214.333,94.1667 214,94.5C 209.689,91.3165 205.022,90.3165 200,91.5C 199.333,90.8333 198.667,90.1667 198,89.5C 194.851,90.8016 191.684,90.135 188.5,87.5C 187.325,88.8549 186.325,88.6883 185.5,87C 189.901,86.1895 190.234,85.0228 186.5,83.5C 184.632,83.9461 182.799,84.2795 181,84.5C 177.831,84.1368 175.164,82.8034 173,80.5C 172.586,80.9574 172.086,81.2907 171.5,81.5C 168.145,80.4845 164.812,79.4845 161.5,78.5C 161.334,74.4862 161.501,70.4862 162,66.5C 162.333,66.1667 162.667,65.8333 163,65.5C 163.483,66.448 163.649,67.448 163.5,68.5 Z"/></g>
<g><path style="opacity:1" fill="#92bfc7" d="M 115.5,76.5 C 116.167,76.5 116.833,76.5 117.5,76.5C 118.117,76.6107 118.617,76.944 119,77.5C 119.167,79 119.333,80.5 119.5,82C 119.431,83.9855 118.765,85.4855 117.5,86.5C 116.952,84.3736 116.285,82.3736 115.5,80.5C 115.5,79.1667 115.5,77.8333 115.5,76.5 Z"/></g>
<g><path style="opacity:1" fill="#7fabc0" d="M 95.5,80.5 C 98.878,81.0231 101.878,82.3565 104.5,84.5C 104.643,87.3852 105.643,89.7185 107.5,91.5C 107.5,91.8333 107.5,92.1667 107.5,92.5C 106.167,92.5 104.833,92.5 103.5,92.5C 103.5,91.1667 102.833,90.5 101.5,90.5C 99.8333,90.5 98.1667,90.5 96.5,90.5C 96.6576,87.0977 96.3242,83.7644 95.5,80.5 Z"/></g>
<g><path style="opacity:1" fill="#93bfc5" d="M 138.5,76.5 C 140.265,79.1226 140.932,82.1226 140.5,85.5C 139.833,86.8333 139.167,88.1667 138.5,89.5C 137.18,91.4632 135.846,93.4632 134.5,95.5C 133.517,91.7016 133.183,87.7016 133.5,83.5C 133.298,81.0108 133.798,78.6775 135,76.5C 136.145,75.3157 137.312,75.3157 138.5,76.5 Z"/></g>
<g><path style="opacity:1" fill="#193841" d="M 115.5,76.5 C 115.5,77.8333 115.5,79.1667 115.5,80.5C 113.027,80.7991 110.86,81.7991 109,83.5C 106.84,81.881 105.34,82.2144 104.5,84.5C 101.878,82.3565 98.878,81.0231 95.5,80.5C 94.8333,80.8333 94.1667,81.1667 93.5,81.5C 93.6415,78.5201 95.1415,76.5201 98,75.5C 99.7674,77.1641 99.2674,78.3308 96.5,79C 99.2017,79.6066 101.868,79.4399 104.5,78.5C 106.397,78.7282 107.73,79.7282 108.5,81.5C 110.592,79.3951 112.925,77.7284 115.5,76.5 Z"/></g>
<g><path style="opacity:1" fill="#1e5291" d="M 20.5,78.5 C 23.2067,81.2466 24.8734,84.5799 25.5,88.5C 24.4107,90.1171 22.744,90.9504 20.5,91C 19.1667,91.6667 19.1667,92.3333 20.5,93C 19.2068,93.49 17.8734,93.6567 16.5,93.5C 16.8134,90.7531 16.48,88.0865 15.5,85.5C 13.5914,84.6518 11.5914,84.3184 9.5,84.5C 9.76781,86.099 9.43448,87.4324 8.5,88.5C 7.63638,87.3117 6.63638,86.1451 5.5,85C 3.18867,84.7641 1.18867,83.9307 -0.5,82.5C -0.5,82.1667 -0.5,81.8333 -0.5,81.5C 2.70427,80.6167 5.37094,78.9501 7.5,76.5C 7.83333,76.5 8.16667,76.5 8.5,76.5C 12.5592,76.0554 16.5592,76.722 20.5,78.5 Z"/></g>
<g><path style="opacity:1" fill="#154894" d="M 16.5,93.5 C 13.8915,93.5997 11.5582,92.9331 9.5,91.5C 8.89022,90.609 8.55688,89.609 8.5,88.5C 9.43448,87.4324 9.76781,86.099 9.5,84.5C 11.5914,84.3184 13.5914,84.6518 15.5,85.5C 16.48,88.0865 16.8134,90.7531 16.5,93.5 Z"/></g>
<g><path style="opacity:1" fill="#58acbc" d="M 23.5,68.5 C 24.4822,69.1408 25.4822,69.8075 26.5,70.5C 30.5362,67.8001 33.5362,68.8001 35.5,73.5C 34.9387,75.908 34.4387,78.2413 34,80.5C 35.7398,81.7158 36.7398,83.3825 37,85.5C 38.4413,86.87 40.108,87.87 42,88.5C 43.1396,91.1019 43.9729,93.7686 44.5,96.5C 42.5509,95.2753 41.2175,95.942 40.5,98.5C 39.914,98.2907 39.414,97.9574 39,97.5C 38.7508,98.624 38.2508,99.624 37.5,100.5C 34.4645,98.4483 31.4645,96.4483 28.5,94.5C 27.8698,92.2504 26.8698,90.2504 25.5,88.5C 24.8734,84.5799 23.2067,81.2466 20.5,78.5C 20.5462,75.4485 19.5462,72.7819 17.5,70.5C 19.2358,67.8953 21.0692,67.8953 23,70.5C 23.4643,69.9056 23.631,69.2389 23.5,68.5 Z"/></g>
<g><path style="opacity:1" fill="#0e1f3e" d="M 115.5,80.5 C 116.285,82.3736 116.952,84.3736 117.5,86.5C 117.783,87.2891 118.283,87.9558 119,88.5C 120.867,86.1918 121.867,83.5251 122,80.5C 123.231,83.9606 124.731,87.2939 126.5,90.5C 127.795,87.9881 128.461,85.3214 128.5,82.5C 129.959,82.4326 131.292,82.7659 132.5,83.5C 133.164,88.3932 132.164,92.7265 129.5,96.5C 127.5,96.5 126.5,97.5 126.5,99.5C 124.751,101.531 122.751,101.865 120.5,100.5C 121.01,95.8308 119.677,94.8308 116.5,97.5C 113.09,97.6162 111.756,95.9496 112.5,92.5C 110.784,92.3713 109.117,92.038 107.5,91.5C 105.643,89.7185 104.643,87.3852 104.5,84.5C 105.34,82.2144 106.84,81.881 109,83.5C 110.86,81.7991 113.027,80.7991 115.5,80.5 Z"/></g>
<g><path style="opacity:1" fill="#062252" d="M 160.5,78.5 C 160.833,78.5 161.167,78.5 161.5,78.5C 164.812,79.4845 168.145,80.4845 171.5,81.5C 172.086,81.2907 172.586,80.9574 173,80.5C 175.164,82.8034 177.831,84.1368 181,84.5C 182.799,84.2795 184.632,83.9461 186.5,83.5C 190.234,85.0228 189.901,86.1895 185.5,87C 186.325,88.6883 187.325,88.8549 188.5,87.5C 191.684,90.135 194.851,90.8016 198,89.5C 198.667,90.1667 199.333,90.8333 200,91.5C 205.022,90.3165 209.689,91.3165 214,94.5C 214.333,94.1667 214.667,93.8333 215,93.5C 228.177,100.508 241.677,106.841 255.5,112.5C 255.5,115.5 255.5,118.5 255.5,121.5C 252.562,120.372 249.562,119.205 246.5,118C 243.06,114.866 239.227,112.366 235,110.5C 233.667,110.5 232.333,110.5 231,110.5C 227.984,107.529 224.817,105.529 221.5,104.5C 215.506,102.424 209.839,100.591 204.5,99C 201.636,96.7942 198.803,94.6275 196,92.5C 193.482,93.7914 191.149,93.4581 189,91.5C 180.313,92.4967 171.979,91.1634 164,87.5C 162.312,88.3247 162.145,89.3247 163.5,90.5C 161.713,90.9427 160.046,91.2761 158.5,91.5C 157.5,91.1667 156.833,90.5 156.5,89.5C 158.119,85.931 159.452,82.2644 160.5,78.5 Z"/></g>
<g><path style="opacity:1" fill="#5b695b" d="M 155.5,62.5 C 156.478,62.811 157.145,63.4777 157.5,64.5C 156.167,65.6199 155.667,66.9532 156,68.5C 157.039,67.2899 158.206,66.2899 159.5,65.5C 160.2,69.7978 160.533,74.1311 160.5,78.5C 159.452,82.2644 158.119,85.931 156.5,89.5C 155.167,90.1667 154.167,91.1667 153.5,92.5C 152.5,94.1667 151.167,95.5 149.5,96.5C 149.167,96.5 148.833,96.5 148.5,96.5C 148.5,94.8333 148.5,93.1667 148.5,91.5C 151.105,87.5565 154.105,83.8898 157.5,80.5C 154.852,77.1012 154.852,73.7678 157.5,70.5C 155.833,69.8333 154.167,69.1667 152.5,68.5C 154.038,66.7567 155.038,64.7567 155.5,62.5 Z"/></g>
<g><path style="opacity:1" fill="#68b9cf" d="M 35.5,73.5 C 40.404,75.7342 45.0707,78.4009 49.5,81.5C 49.7376,83.4044 50.7376,84.7377 52.5,85.5C 52.5,85.8333 52.5,86.1667 52.5,86.5C 52.8215,88.958 53.8215,91.1246 55.5,93C 54.1306,96.7165 53.4639,100.55 53.5,104.5C 53.5,107.5 53.5,110.5 53.5,113.5C 51.5,113.5 49.5,113.5 47.5,113.5C 43.8931,113.435 41.5597,111.769 40.5,108.5C 40.281,107.325 40.6143,106.325 41.5,105.5C 45.2004,108.525 48.2004,108.025 50.5,104C 47.8876,101.915 45.8876,99.4153 44.5,96.5C 43.9729,93.7686 43.1396,91.1019 42,88.5C 40.108,87.87 38.4413,86.87 37,85.5C 36.7398,83.3825 35.7398,81.7158 34,80.5C 34.4387,78.2413 34.9387,75.908 35.5,73.5 Z"/></g>
<g><path style="opacity:1" fill="#5d8ca3" d="M 95.5,80.5 C 96.3242,83.7644 96.6576,87.0977 96.5,90.5C 98.1667,90.5 99.8333,90.5 101.5,90.5C 92.792,93.4509 90.1254,90.4509 93.5,81.5C 94.1667,81.1667 94.8333,80.8333 95.5,80.5 Z"/></g>
<g><path style="opacity:1" fill="#5c7b92" d="M 79.5,98.5 C 77.73,100.502 76.3966,102.836 75.5,105.5C 75.5,104.5 75.5,103.5 75.5,102.5C 74.1591,100.88 72.3258,99.88 70,99.5C 69.51,98.2068 69.3433,96.8734 69.5,95.5C 70.2488,91.9176 71.5821,88.5843 73.5,85.5C 74.1667,85.8333 74.8333,86.1667 75.5,86.5C 76.0121,90.8951 77.3455,94.8951 79.5,98.5 Z"/></g>
<g><path style="opacity:1" fill="#0a1d3c" d="M 138.5,89.5 C 140.484,89.484 141.484,90.484 141.5,92.5C 139.646,95.3973 137.979,98.3973 136.5,101.5C 136.167,101.5 135.833,101.5 135.5,101.5C 133.155,100.012 132.821,98.0121 134.5,95.5C 135.846,93.4632 137.18,91.4632 138.5,89.5 Z"/></g>
<g><path style="opacity:1" fill="#83b7bc" d="M 148.5,91.5 C 148.5,93.1667 148.5,94.8333 148.5,96.5C 147.078,97.925 145.411,98.925 143.5,99.5C 144.823,97.5286 146.156,95.5286 147.5,93.5C 147.167,93.1667 146.833,92.8333 146.5,92.5C 145.148,93.5244 143.815,94.5244 142.5,95.5C 143.038,93.8828 143.371,92.2161 143.5,90.5C 144.391,89.7387 145.058,88.7387 145.5,87.5C 144.391,85.7859 145.058,85.1192 147.5,85.5C 147.205,87.7354 147.539,89.7354 148.5,91.5 Z"/></g>
<g><path style="opacity:1" fill="#0e1516" d="M -0.5,87.5 C 1.80356,88.1632 4.13689,88.8298 6.5,89.5C 8.06123,93.4342 7.39456,94.1009 4.5,91.5C 4.16667,92 3.83333,92.5 3.5,93C 4.76654,94.6665 6.26654,96.1665 8,97.5C 8.33333,96.8333 8.66667,96.1667 9,95.5C 9.6839,97.359 10.6839,99.0257 12,100.5C 12.2256,103.095 12.7256,105.595 13.5,108C 12.552,108.483 11.552,108.649 10.5,108.5C 6.83333,108.5 3.16667,108.5 -0.5,108.5C -0.5,101.5 -0.5,94.5 -0.5,87.5 Z"/></g>
<g><path style="opacity:1" fill="#16222a" d="M -0.5,82.5 C 1.18867,83.9307 3.18867,84.7641 5.5,85C 6.63638,86.1451 7.63638,87.3117 8.5,88.5C 8.55688,89.609 8.89022,90.609 9.5,91.5C 11.0672,94.9667 12.9005,98.3001 15,101.5C 15.4974,104.146 15.6641,106.813 15.5,109.5C 13.5853,109.784 11.9187,109.451 10.5,108.5C 11.552,108.649 12.552,108.483 13.5,108C 12.7256,105.595 12.2256,103.095 12,100.5C 10.6839,99.0257 9.6839,97.359 9,95.5C 8.66667,96.1667 8.33333,96.8333 8,97.5C 6.26654,96.1665 4.76654,94.6665 3.5,93C 3.83333,92.5 4.16667,92 4.5,91.5C 7.39456,94.1009 8.06123,93.4342 6.5,89.5C 4.13689,88.8298 1.80356,88.1632 -0.5,87.5C -0.5,85.8333 -0.5,84.1667 -0.5,82.5 Z"/></g>
<g><path style="opacity:1" fill="#a4d0da" d="M 103.5,92.5 C 104.833,92.5 106.167,92.5 107.5,92.5C 108.708,93.2341 110.041,93.5674 111.5,93.5C 111.5,94.8333 111.5,96.1667 111.5,97.5C 108.937,98.1999 106.437,99.1999 104,100.5C 103.098,100.257 102.265,99.9234 101.5,99.5C 101.166,96.812 101.832,94.4786 103.5,92.5 Z"/></g>
<g><path style="opacity:1" fill="#bbf0f0" d="M 143.5,99.5 C 142.448,99.6495 141.448,99.4828 140.5,99C 141.305,97.8873 141.972,96.7206 142.5,95.5C 143.815,94.5244 145.148,93.5244 146.5,92.5C 146.833,92.8333 147.167,93.1667 147.5,93.5C 146.156,95.5286 144.823,97.5286 143.5,99.5 Z"/></g>
<g><path style="opacity:1" fill="#3b4e71" d="M 156.5,89.5 C 156.833,90.5 157.5,91.1667 158.5,91.5C 159.234,92.7079 159.567,94.0413 159.5,95.5C 159.025,97.7837 158.025,99.7837 156.5,101.5C 153.757,103.239 151.757,105.573 150.5,108.5C 149.857,106.924 148.857,105.59 147.5,104.5C 147.167,103.833 146.833,103.167 146.5,102.5C 149.289,99.9337 152.289,97.6004 155.5,95.5C 156.386,94.675 156.719,93.675 156.5,92.5C 155.5,92.5 154.5,92.5 153.5,92.5C 154.167,91.1667 155.167,90.1667 156.5,89.5 Z"/></g>
<g><path style="opacity:1" fill="#263b45" d="M 93.5,81.5 C 90.1254,90.4509 92.792,93.4509 101.5,90.5C 102.833,90.5 103.5,91.1667 103.5,92.5C 101.832,94.4786 101.166,96.812 101.5,99.5C 100.069,99.8807 99.2355,100.881 99,102.5C 98.6924,101.692 98.1924,101.025 97.5,100.5C 96.6365,98.2287 96.6365,95.8954 97.5,93.5C 89.8254,91.8648 88.4921,87.8648 93.5,81.5 Z"/></g>
<g><path style="opacity:1" fill="#111f59" d="M 153.5,92.5 C 154.5,92.5 155.5,92.5 156.5,92.5C 156.719,93.675 156.386,94.675 155.5,95.5C 152.289,97.6004 149.289,99.9337 146.5,102.5C 146.615,100.053 147.615,98.0532 149.5,96.5C 151.167,95.5 152.5,94.1667 153.5,92.5 Z"/></g>
<g><path style="opacity:1" fill="#2c5271" d="M 69.5,95.5 C 69.3433,96.8734 69.51,98.2068 70,99.5C 72.3258,99.88 74.1591,100.88 75.5,102.5C 73.1305,102.149 70.7972,101.982 68.5,102C 67.1657,104.66 66.3324,107.494 66,110.5C 64.7318,110.616 63.3985,110.949 62,111.5C 59.1225,107.663 57.6225,103.33 57.5,98.5C 58.2216,98.9175 58.7216,99.5842 59,100.5C 60.8098,98.5156 60.9765,96.349 59.5,94C 59.7804,92.605 60.4471,91.4383 61.5,90.5C 62.731,91.6507 62.731,92.8173 61.5,94C 62.4491,94.6172 63.2825,94.4506 64,93.5C 65.0847,95.373 66.418,97.0397 68,98.5C 68.2321,97.2625 68.7321,96.2625 69.5,95.5 Z"/></g>
<g><path style="opacity:1" fill="#2669a7" d="M 25.5,88.5 C 26.8698,90.2504 27.8698,92.2504 28.5,94.5C 29.9213,97.0094 31.5879,99.3428 33.5,101.5C 32.791,102.404 31.791,102.737 30.5,102.5C 30.615,104.947 31.615,106.947 33.5,108.5C 28.0976,105.551 22.4309,104.551 16.5,105.5C 16.5,106.833 16.5,108.167 16.5,109.5C 16.1667,109.5 15.8333,109.5 15.5,109.5C 15.6641,106.813 15.4974,104.146 15,101.5C 12.9005,98.3001 11.0672,94.9667 9.5,91.5C 11.5582,92.9331 13.8915,93.5997 16.5,93.5C 17.8734,93.6567 19.2068,93.49 20.5,93C 19.1667,92.3333 19.1667,91.6667 20.5,91C 22.744,90.9504 24.4107,90.1171 25.5,88.5 Z"/></g>
<g><path style="opacity:1" fill="#4ca6c5" d="M 28.5,94.5 C 31.4645,96.4483 34.4645,98.4483 37.5,100.5C 38.2508,99.624 38.7508,98.624 39,97.5C 39.414,97.9574 39.914,98.2907 40.5,98.5C 41.2175,95.942 42.5509,95.2753 44.5,96.5C 45.8876,99.4153 47.8876,101.915 50.5,104C 48.2004,108.025 45.2004,108.525 41.5,105.5C 40.6143,106.325 40.281,107.325 40.5,108.5C 38.3946,105.973 36.0613,103.64 33.5,101.5C 31.5879,99.3428 29.9213,97.0094 28.5,94.5 Z"/></g>
<g><path style="opacity:1" fill="#17303f" d="M 140.5,85.5 C 141.64,87.0455 142.64,88.7121 143.5,90.5C 143.371,92.2161 143.038,93.8828 142.5,95.5C 141.972,96.7206 141.305,97.8873 140.5,99C 141.448,99.4828 142.448,99.6495 143.5,99.5C 145.411,98.925 147.078,97.925 148.5,96.5C 148.833,96.5 149.167,96.5 149.5,96.5C 147.615,98.0532 146.615,100.053 146.5,102.5C 146.833,103.167 147.167,103.833 147.5,104.5C 146.833,104.5 146.5,104.833 146.5,105.5C 145.833,105.5 145.167,105.5 144.5,105.5C 142.975,104.611 141.975,105.278 141.5,107.5C 140.833,107.5 140.167,107.5 139.5,107.5C 139.539,104.911 138.539,102.911 136.5,101.5C 137.979,98.3973 139.646,95.3973 141.5,92.5C 141.484,90.484 140.484,89.484 138.5,89.5C 139.167,88.1667 139.833,86.8333 140.5,85.5 Z"/></g>
<g><path style="opacity:1" fill="#18293a" d="M 83.5,85.5 C 85.7451,87.4171 86.0785,89.7504 84.5,92.5C 86.4906,95.3108 89.1573,97.3108 92.5,98.5C 93.9454,96.6064 95.6121,94.9397 97.5,93.5C 96.6365,95.8954 96.6365,98.2287 97.5,100.5C 98.1924,101.025 98.6924,101.692 99,102.5C 99.2355,100.881 100.069,99.8807 101.5,99.5C 102.833,101.167 104.167,102.833 105.5,104.5C 104.655,105.671 103.989,107.005 103.5,108.5C 100.049,109.599 97.5491,109.599 96,108.5C 94.6667,107.167 93.3333,105.833 92,104.5C 91.0656,105.858 90.2323,107.192 89.5,108.5C 86.5,106.167 83.8333,103.5 81.5,100.5C 80.1048,95.2077 80.7715,90.2077 83.5,85.5 Z"/></g>
<g><path style="opacity:1" fill="#495d67" d="M 107.5,92.5 C 107.5,92.1667 107.5,91.8333 107.5,91.5C 109.117,92.038 110.784,92.3713 112.5,92.5C 111.756,95.9496 113.09,97.6162 116.5,97.5C 112.991,99.3791 111.658,102.379 112.5,106.5C 110.933,105.319 110.099,103.653 110,101.5C 108.731,102.905 108.231,104.571 108.5,106.5C 106.821,106.715 105.821,106.048 105.5,104.5C 104.167,102.833 102.833,101.167 101.5,99.5C 102.265,99.9234 103.098,100.257 104,100.5C 106.437,99.1999 108.937,98.1999 111.5,97.5C 111.5,96.1667 111.5,94.8333 111.5,93.5C 110.041,93.5674 108.708,93.2341 107.5,92.5 Z"/></g>
<g><path style="opacity:1" fill="#07275d" d="M 255.5,121.5 C 255.5,125.167 255.5,128.833 255.5,132.5C 254.751,131.469 254.085,130.302 253.5,129C 253.833,128.667 254.167,128.333 254.5,128C 250.779,125.473 246.779,123.473 242.5,122C 236.098,120.989 229.765,119.655 223.5,118C 221.833,115.83 219.833,113.996 217.5,112.5C 215.1,112.652 212.766,112.152 210.5,111C 212.394,109.921 212.727,108.587 211.5,107C 209.213,107.465 207.047,107.632 205,107.5C 203.041,102.694 200.041,101.027 196,102.5C 194.43,101.642 192.763,100.975 191,100.5C 186.207,101.236 181.54,101.236 177,100.5C 173,98.5 169,96.5 165,94.5C 164.213,95.7107 163.546,96.7107 163,97.5C 161.697,97.0217 160.531,96.355 159.5,95.5C 159.567,94.0413 159.234,92.7079 158.5,91.5C 160.046,91.2761 161.713,90.9427 163.5,90.5C 162.145,89.3247 162.312,88.3247 164,87.5C 171.979,91.1634 180.313,92.4967 189,91.5C 191.149,93.4581 193.482,93.7914 196,92.5C 198.803,94.6275 201.636,96.7942 204.5,99C 209.839,100.591 215.506,102.424 221.5,104.5C 224.817,105.529 227.984,107.529 231,110.5C 232.333,110.5 233.667,110.5 235,110.5C 239.227,112.366 243.06,114.866 246.5,118C 249.562,119.205 252.562,120.372 255.5,121.5 Z"/></g>
<g><path style="opacity:1" fill="#65c4d6" d="M 79.5,98.5 C 79.8333,99.5 80.5,100.167 81.5,100.5C 83.8333,103.5 86.5,106.167 89.5,108.5C 90.8333,110.833 92.1667,113.167 93.5,115.5C 92.9467,117.657 91.9467,117.49 90.5,115C 88.5,114.333 86.5,114.333 84.5,115C 85.2524,115.671 85.5858,116.504 85.5,117.5C 83.3549,116.011 81.0215,115.011 78.5,114.5C 78.6621,116.527 78.4955,118.527 78,120.5C 77.6174,121.056 77.1174,121.389 76.5,121.5C 76.0196,118.315 76.6863,115.481 78.5,113C 77.9056,112.536 77.2389,112.369 76.5,112.5C 75.5318,110.393 75.1984,108.059 75.5,105.5C 76.3966,102.836 77.73,100.502 79.5,98.5 Z"/></g>
<g><path style="opacity:1" fill="#96c6cd" d="M 120.5,100.5 C 118.787,101.635 118.12,103.302 118.5,105.5C 119.552,105.351 120.552,105.517 121.5,106C 118.644,109.122 115.644,109.289 112.5,106.5C 111.658,102.379 112.991,99.3791 116.5,97.5C 119.677,94.8308 121.01,95.8308 120.5,100.5 Z"/></g>
<g><path style="opacity:1" fill="#8abdce" d="M 135.5,101.5 C 135.833,101.5 136.167,101.5 136.5,101.5C 138.539,102.911 139.539,104.911 139.5,107.5C 138.5,108.833 137.5,110.167 136.5,111.5C 134.361,108.434 134.027,105.101 135.5,101.5 Z"/></g>
<g><path style="opacity:1" fill="#516065" d="M 129.5,96.5 C 130.693,96.9704 131.36,97.9704 131.5,99.5C 132.169,103.18 132.836,106.846 133.5,110.5C 132.5,110.5 131.5,110.5 130.5,110.5C 130.657,111.873 130.49,113.207 130,114.5C 127.836,112.52 126.336,110.187 125.5,107.5C 126.958,104.61 127.791,101.61 128,98.5C 127.617,99.056 127.117,99.3893 126.5,99.5C 126.5,97.5 127.5,96.5 129.5,96.5 Z"/></g>
<g><path style="opacity:1" fill="#c0edee" d="M 144.5,105.5 C 145.101,108.998 143.935,111.998 141,114.5C 140.5,114.167 140,113.833 139.5,113.5C 140.172,111.47 140.838,109.47 141.5,107.5C 141.975,105.278 142.975,104.611 144.5,105.5 Z"/></g>
<g><path style="opacity:1" fill="#0a2f6e" d="M 255.5,132.5 C 255.5,133.167 255.5,133.833 255.5,134.5C 249.486,132.439 243.486,130.273 237.5,128C 235.517,126.886 233.85,125.386 232.5,123.5C 229.843,122.741 227.177,122.074 224.5,121.5C 222.262,121.277 219.928,121.61 217.5,122.5C 217.265,121.903 216.765,121.57 216,121.5C 213.667,122.167 211.333,122.833 209,123.5C 207.008,120.98 205.008,118.313 203,115.5C 198.681,115.842 194.348,116.175 190,116.5C 187.637,116.473 186.137,115.306 185.5,113C 178.802,111.77 171.802,110.27 164.5,108.5C 163.668,105.839 162.834,103.172 162,100.5C 160.301,101.406 158.467,101.739 156.5,101.5C 158.025,99.7837 159.025,97.7837 159.5,95.5C 160.531,96.355 161.697,97.0217 163,97.5C 163.546,96.7107 164.213,95.7107 165,94.5C 169,96.5 173,98.5 177,100.5C 181.54,101.236 186.207,101.236 191,100.5C 192.763,100.975 194.43,101.642 196,102.5C 200.041,101.027 203.041,102.694 205,107.5C 207.047,107.632 209.213,107.465 211.5,107C 212.727,108.587 212.394,109.921 210.5,111C 212.766,112.152 215.1,112.652 217.5,112.5C 219.833,113.996 221.833,115.83 223.5,118C 229.765,119.655 236.098,120.989 242.5,122C 246.779,123.473 250.779,125.473 254.5,128C 254.167,128.333 253.833,128.667 253.5,129C 254.085,130.302 254.751,131.469 255.5,132.5 Z"/></g>
<g><path style="opacity:1" fill="#364057" d="M -0.5,108.5 C 3.16667,108.5 6.83333,108.5 10.5,108.5C 11.9187,109.451 13.5853,109.784 15.5,109.5C 15.8333,109.5 16.1667,109.5 16.5,109.5C 18.921,109.878 21.2543,110.545 23.5,111.5C 24.6252,113 25.9586,114.333 27.5,115.5C 21.0002,114.291 14.6669,112.624 8.5,110.5C 5.57884,111.407 2.57884,111.74 -0.5,111.5C -0.5,110.5 -0.5,109.5 -0.5,108.5 Z"/></g>
<g><path style="opacity:1" fill="#547596" d="M 23.5,111.5 C 27.5977,112.272 30.931,114.272 33.5,117.5C 32.6618,117.842 32.3284,118.508 32.5,119.5C 30.8089,118.136 29.1423,116.803 27.5,115.5C 25.9586,114.333 24.6252,113 23.5,111.5 Z"/></g>
<g><path style="opacity:1" fill="#2167b8" d="M 33.5,108.5 C 36.0797,109.735 38.413,111.401 40.5,113.5C 41.1128,116.969 39.7794,118.969 36.5,119.5C 35.5,118.833 34.5,118.167 33.5,117.5C 30.931,114.272 27.5977,112.272 23.5,111.5C 21.2543,110.545 18.921,109.878 16.5,109.5C 16.5,108.167 16.5,106.833 16.5,105.5C 22.4309,104.551 28.0976,105.551 33.5,108.5 Z"/></g>
<g><path style="opacity:1" fill="#243647" d="M 125.5,107.5 C 123.757,110.495 122.757,113.829 122.5,117.5C 121.71,118.609 121.21,119.942 121,121.5C 119.221,118.724 118.221,119.057 118,122.5C 117.417,120.998 116.584,119.665 115.5,118.5C 114.575,117.359 113.741,117.359 113,118.5C 110.785,116.805 108.618,115.139 106.5,113.5C 108.782,111.362 109.449,109.029 108.5,106.5C 108.231,104.571 108.731,102.905 110,101.5C 110.099,103.653 110.933,105.319 112.5,106.5C 115.644,109.289 118.644,109.122 121.5,106C 120.552,105.517 119.552,105.351 118.5,105.5C 118.12,103.302 118.787,101.635 120.5,100.5C 122.751,101.865 124.751,101.531 126.5,99.5C 127.117,99.3893 127.617,99.056 128,98.5C 127.791,101.61 126.958,104.61 125.5,107.5 Z"/></g>
<g><path style="opacity:1" fill="#48686d" d="M 144.5,105.5 C 145.167,105.5 145.833,105.5 146.5,105.5C 147.451,108.215 148.117,111.049 148.5,114C 148.494,116.033 148.161,117.866 147.5,119.5C 147.66,117.801 147.494,116.134 147,114.5C 146.196,115.804 145.029,116.471 143.5,116.5C 141.527,115.669 139.527,115.502 137.5,116C 135.504,118.162 134.17,120.662 133.5,123.5C 132.903,123.265 132.57,122.765 132.5,122C 134.298,118.588 135.632,115.088 136.5,111.5C 137.5,110.167 138.5,108.833 139.5,107.5C 140.167,107.5 140.833,107.5 141.5,107.5C 140.838,109.47 140.172,111.47 139.5,113.5C 140,113.833 140.5,114.167 141,114.5C 143.935,111.998 145.101,108.998 144.5,105.5 Z"/></g>
<g><path style="opacity:1" fill="#4696d0" d="M 33.5,101.5 C 36.0613,103.64 38.3946,105.973 40.5,108.5C 41.5597,111.769 43.8931,113.435 47.5,113.5C 46.1879,115.479 44.5212,117.145 42.5,118.5C 41.8302,116.709 41.1635,115.042 40.5,113.5C 38.413,111.401 36.0797,109.735 33.5,108.5C 31.615,106.947 30.615,104.947 30.5,102.5C 31.791,102.737 32.791,102.404 33.5,101.5 Z"/></g>
<g><path style="opacity:1" fill="#0b3280" d="M 170.5,121.5 C 171.326,126.474 171.993,131.474 172.5,136.5C 172.688,138.103 172.188,139.437 171,140.5C 170.708,138.674 170.875,136.841 171.5,135C 171.065,131.937 170.232,131.77 169,134.5C 168.837,132.324 168.004,130.491 166.5,129C 167.406,127.301 167.739,125.467 167.5,123.5C 162.139,124.445 156.805,124.445 151.5,123.5C 151.346,125.97 150.346,127.97 148.5,129.5C 148.873,126.426 149.539,123.426 150.5,120.5C 151.323,117.023 151.823,113.356 152,109.5C 155.541,109.999 159.208,110.999 163,112.5C 163.414,112.043 163.914,111.709 164.5,111.5C 166.165,115.135 168.165,118.469 170.5,121.5 Z"/></g>
<g><path style="opacity:1" fill="#0d377e" d="M 217.5,122.5 C 214.795,123.853 212.128,125.186 209.5,126.5C 205.237,127.125 201.237,128.625 197.5,131C 192.399,131.894 187.565,132.728 183,133.5C 181.933,132.809 180.766,132.309 179.5,132C 179.833,131.667 180.167,131.333 180.5,131C 178.437,127.635 175.437,125.802 171.5,125.5C 171.854,123.233 171.521,121.899 170.5,121.5C 168.165,118.469 166.165,115.135 164.5,111.5C 163.914,111.709 163.414,112.043 163,112.5C 159.208,110.999 155.541,109.999 152,109.5C 151.823,113.356 151.323,117.023 150.5,120.5C 150.5,116.5 150.5,112.5 150.5,108.5C 151.757,105.573 153.757,103.239 156.5,101.5C 158.467,101.739 160.301,101.406 162,100.5C 162.834,103.172 163.668,105.839 164.5,108.5C 171.802,110.27 178.802,111.77 185.5,113C 186.137,115.306 187.637,116.473 190,116.5C 194.348,116.175 198.681,115.842 203,115.5C 205.008,118.313 207.008,120.98 209,123.5C 211.333,122.833 213.667,122.167 216,121.5C 216.765,121.57 217.265,121.903 217.5,122.5 Z"/></g>
<g><path style="opacity:1" fill="#1c2325" d="M 27.5,115.5 C 29.1423,116.803 30.8089,118.136 32.5,119.5C 32.7711,121.821 32.1045,123.821 30.5,125.5C 31.2421,126.287 32.0754,126.953 33,127.5C 33.3534,130.539 34.5201,133.205 36.5,135.5C 35.9984,136.521 35.3317,136.688 34.5,136C 33.3333,134.833 32.1667,133.667 31,132.5C 29.9887,133.337 28.8221,133.67 27.5,133.5C 27.1667,133.5 26.8333,133.5 26.5,133.5C 23.8192,129.66 20.1525,127.66 15.5,127.5C 13.4958,130.721 11.4958,130.888 9.5,128C 8.55198,127.517 7.55198,127.351 6.5,127.5C 6.5,126.5 6.5,125.5 6.5,124.5C 9.24764,124.598 9.9143,123.598 8.5,121.5C 10.4663,120.745 10.7996,119.579 9.5,118C 7.19018,117.503 4.85684,117.337 2.5,117.5C 2.61376,120.216 1.61376,122.216 -0.5,123.5C -0.5,119.5 -0.5,115.5 -0.5,111.5C 2.57884,111.74 5.57884,111.407 8.5,110.5C 14.6669,112.624 21.0002,114.291 27.5,115.5 Z"/></g>
<g><path style="opacity:1" fill="#317cca" d="M 40.5,113.5 C 41.1635,115.042 41.8302,116.709 42.5,118.5C 44.5212,117.145 46.1879,115.479 47.5,113.5C 49.5,113.5 51.5,113.5 53.5,113.5C 53.5,113.833 53.5,114.167 53.5,114.5C 53.5,116.5 53.5,118.5 53.5,120.5C 49.4788,121.824 45.4788,122.824 41.5,123.5C 39.6115,122.396 37.9448,121.063 36.5,119.5C 39.7794,118.969 41.1128,116.969 40.5,113.5 Z"/></g>
<g><path style="opacity:1" fill="#1e3957" d="M 103.5,108.5 C 102.272,112.15 102.272,115.816 103.5,119.5C 105.124,119.64 106.29,118.973 107,117.5C 109.179,120.011 111.679,122.178 114.5,124C 112.158,125.392 112.158,126.225 114.5,126.5C 112.504,129.389 111.004,129.056 110,125.5C 109.107,126.711 108.274,126.711 107.5,125.5C 108.641,124.575 108.641,123.741 107.5,123C 104.808,122.57 102.141,122.737 99.5,123.5C 98.7784,123.082 98.2784,122.416 98,121.5C 97.6174,122.056 97.1174,122.389 96.5,122.5C 96.3404,120.847 95.6737,119.514 94.5,118.5C 94.7373,117.209 94.404,116.209 93.5,115.5C 92.1667,113.167 90.8333,110.833 89.5,108.5C 90.2323,107.192 91.0656,105.858 92,104.5C 93.3333,105.833 94.6667,107.167 96,108.5C 97.5491,109.599 100.049,109.599 103.5,108.5 Z"/></g>
<g><path style="opacity:1" fill="#273b53" d="M 105.5,104.5 C 105.821,106.048 106.821,106.715 108.5,106.5C 109.449,109.029 108.782,111.362 106.5,113.5C 108.618,115.139 110.785,116.805 113,118.5C 113.741,117.359 114.575,117.359 115.5,118.5C 116.584,119.665 117.417,120.998 118,122.5C 118.221,119.057 119.221,118.724 121,121.5C 121.21,119.942 121.71,118.609 122.5,117.5C 122.5,118.833 122.5,120.167 122.5,121.5C 125.407,121.575 128.073,122.409 130.5,124C 128.681,125.415 128.015,126.915 128.5,128.5C 131.362,129.132 134.196,130.132 137,131.5C 138.154,130.257 139.488,129.257 141,128.5C 140.244,131.061 139.411,133.728 138.5,136.5C 134.24,134.333 129.74,132.666 125,131.5C 123.541,131.808 122.374,132.475 121.5,133.5C 120.532,131.393 120.198,129.059 120.5,126.5C 118.5,126.5 116.5,126.5 114.5,126.5C 112.158,126.225 112.158,125.392 114.5,124C 111.679,122.178 109.179,120.011 107,117.5C 106.29,118.973 105.124,119.64 103.5,119.5C 102.272,115.816 102.272,112.15 103.5,108.5C 103.989,107.005 104.655,105.671 105.5,104.5 Z"/></g>
<g><path style="opacity:1" fill="#394c5a" d="M 132.5,83.5 C 132.833,83.5 133.167,83.5 133.5,83.5C 133.183,87.7016 133.517,91.7016 134.5,95.5C 132.821,98.0121 133.155,100.012 135.5,101.5C 134.027,105.101 134.361,108.434 136.5,111.5C 135.632,115.088 134.298,118.588 132.5,122C 132.57,122.765 132.903,123.265 133.5,123.5C 132.167,125.5 130.5,127.167 128.5,128.5C 128.015,126.915 128.681,125.415 130.5,124C 128.073,122.409 125.407,121.575 122.5,121.5C 122.5,120.167 122.5,118.833 122.5,117.5C 122.757,113.829 123.757,110.495 125.5,107.5C 126.336,110.187 127.836,112.52 130,114.5C 130.49,113.207 130.657,111.873 130.5,110.5C 131.5,110.5 132.5,110.5 133.5,110.5C 132.836,106.846 132.169,103.18 131.5,99.5C 131.36,97.9704 130.693,96.9704 129.5,96.5C 132.164,92.7265 133.164,88.3932 132.5,83.5 Z"/></g>
<g><path style="opacity:1" fill="#325751" d="M 8.5,121.5 C 5.14159,122.534 3.14159,124.867 2.5,128.5C 1.89992,127.1 0.899922,126.1 -0.5,125.5C -0.5,124.833 -0.5,124.167 -0.5,123.5C 1.61376,122.216 2.61376,120.216 2.5,117.5C 4.85684,117.337 7.19018,117.503 9.5,118C 10.7996,119.579 10.4663,120.745 8.5,121.5 Z"/></g>
<g><path style="opacity:1" fill="#5282ac" d="M 57.5,91.5 C 57.5,93.8333 57.5,96.1667 57.5,98.5C 57.6225,103.33 59.1225,107.663 62,111.5C 63.3985,110.949 64.7318,110.616 66,110.5C 66.3324,107.494 67.1657,104.66 68.5,102C 70.7972,101.982 73.1305,102.149 75.5,102.5C 75.5,103.5 75.5,104.5 75.5,105.5C 74.6029,111.526 73.1029,117.526 71,123.5C 70.5026,126.146 70.3359,128.813 70.5,131.5C 69.7279,135.452 69.3946,139.452 69.5,143.5C 67.5,143.5 65.5,143.5 63.5,143.5C 63.5,139.833 63.5,136.167 63.5,132.5C 63.665,129.15 63.4983,125.817 63,122.5C 60.2532,119.246 57.0865,116.58 53.5,114.5C 53.5,114.167 53.5,113.833 53.5,113.5C 53.5,110.5 53.5,107.5 53.5,104.5C 54.1174,104.389 54.6174,104.056 55,103.5C 55.7054,99.3347 56.5387,95.3347 57.5,91.5 Z"/></g>
<g><path style="opacity:1" fill="#7092a1" d="M 75.5,105.5 C 75.1984,108.059 75.5318,110.393 76.5,112.5C 75.7287,115.454 75.062,118.454 74.5,121.5C 74.6716,122.492 74.3382,123.158 73.5,123.5C 73.6495,122.448 73.4828,121.448 73,120.5C 72.2045,124.312 71.3712,127.979 70.5,131.5C 70.3359,128.813 70.5026,126.146 71,123.5C 73.1029,117.526 74.6029,111.526 75.5,105.5 Z"/></g>
<g><path style="opacity:1" fill="#a1b3c7" d="M 33.5,117.5 C 34.5,118.167 35.5,118.833 36.5,119.5C 37.9448,121.063 39.6115,122.396 41.5,123.5C 42.4577,124.962 43.6244,126.295 45,127.5C 45.49,128.793 45.6567,130.127 45.5,131.5C 41.1667,127.5 36.8333,123.5 32.5,119.5C 32.3284,118.508 32.6618,117.842 33.5,117.5 Z"/></g>
<g><path style="opacity:1" fill="#1b5acb" d="M 53.5,120.5 C 53.5,121.5 53.5,122.5 53.5,123.5C 53.7129,130.174 54.0462,136.841 54.5,143.5C 52.5,143.5 50.5,143.5 48.5,143.5C 47.4876,139.484 46.4876,135.484 45.5,131.5C 45.6567,130.127 45.49,128.793 45,127.5C 43.6244,126.295 42.4577,124.962 41.5,123.5C 45.4788,122.824 49.4788,121.824 53.5,120.5 Z"/></g>
<g><path style="opacity:1" fill="#1c4d89" d="M 53.5,114.5 C 57.0865,116.58 60.2532,119.246 63,122.5C 63.4983,125.817 63.665,129.15 63.5,132.5C 61.5163,131.017 59.683,129.351 58,127.5C 57.1268,127.735 56.2935,128.069 55.5,128.5C 54.8302,126.709 54.1635,125.042 53.5,123.5C 53.5,122.5 53.5,121.5 53.5,120.5C 53.5,118.5 53.5,116.5 53.5,114.5 Z"/></g>
<g><path style="opacity:1" fill="#778f9d" d="M 147.5,104.5 C 148.857,105.59 149.857,106.924 150.5,108.5C 150.5,112.5 150.5,116.5 150.5,120.5C 149.539,123.426 148.873,126.426 148.5,129.5C 148.167,129.5 147.833,129.5 147.5,129.5C 147.768,127.901 147.434,126.568 146.5,125.5C 147.15,123.565 147.483,121.565 147.5,119.5C 148.161,117.866 148.494,116.033 148.5,114C 148.117,111.049 147.451,108.215 146.5,105.5C 146.5,104.833 146.833,104.5 147.5,104.5 Z"/></g>
<g><path style="opacity:1" fill="#489fd9" d="M 76.5,112.5 C 77.2389,112.369 77.9056,112.536 78.5,113C 76.6863,115.481 76.0196,118.315 76.5,121.5C 76.8016,124.059 76.4682,126.393 75.5,128.5C 75.8016,125.941 75.4682,123.607 74.5,121.5C 75.062,118.454 75.7287,115.454 76.5,112.5 Z"/></g>
<g><path style="opacity:1" fill="#37a1c9" d="M 93.5,115.5 C 94.404,116.209 94.7373,117.209 94.5,118.5C 94.0526,121.314 93.8859,124.314 94,127.5C 92.7949,126.929 91.6283,126.262 90.5,125.5C 89.3118,122.979 87.9784,120.645 86.5,118.5C 85.8333,118.5 85.5,118.167 85.5,117.5C 85.5858,116.504 85.2524,115.671 84.5,115C 86.5,114.333 88.5,114.333 90.5,115C 91.9467,117.49 92.9467,117.657 93.5,115.5 Z"/></g>
<g><path style="opacity:1" fill="#2d3c49" d="M 147.5,119.5 C 147.483,121.565 147.15,123.565 146.5,125.5C 144.769,129.295 142.769,132.962 140.5,136.5C 139.833,136.5 139.167,136.5 138.5,136.5C 139.411,133.728 140.244,131.061 141,128.5C 139.488,129.257 138.154,130.257 137,131.5C 134.196,130.132 131.362,129.132 128.5,128.5C 130.5,127.167 132.167,125.5 133.5,123.5C 134.17,120.662 135.504,118.162 137.5,116C 139.527,115.502 141.527,115.669 143.5,116.5C 145.029,116.471 146.196,115.804 147,114.5C 147.494,116.134 147.66,117.801 147.5,119.5 Z"/></g>
<g><path style="opacity:1" fill="#144383" d="M 255.5,134.5 C 255.5,135.5 255.5,136.5 255.5,137.5C 250.435,136.312 245.435,134.812 240.5,133C 233.833,132.333 227.167,132.333 220.5,133C 218.478,135.018 215.978,135.852 213,135.5C 208.273,134.276 203.773,134.943 199.5,137.5C 199.64,135.876 198.973,134.71 197.5,134C 201.455,131.168 205.455,128.668 209.5,126.5C 212.128,125.186 214.795,123.853 217.5,122.5C 219.928,121.61 222.262,121.277 224.5,121.5C 227.177,122.074 229.843,122.741 232.5,123.5C 233.85,125.386 235.517,126.886 237.5,128C 243.486,130.273 249.486,132.439 255.5,134.5 Z"/></g>
<g><path style="opacity:1" fill="#222f37" d="M 8.5,121.5 C 9.9143,123.598 9.24764,124.598 6.5,124.5C 6.5,125.5 6.5,126.5 6.5,127.5C 7.55198,127.351 8.55198,127.517 9.5,128C 11.4958,130.888 13.4958,130.721 15.5,127.5C 16.3198,131.1 18.6531,133.1 22.5,133.5C 22.5,134.5 22.5,135.5 22.5,136.5C 20.0504,136.702 17.717,136.369 15.5,135.5C 13.3509,134.252 11.3509,132.752 9.5,131C 7.07307,130.098 4.73974,129.264 2.5,128.5C 3.14159,124.867 5.14159,122.534 8.5,121.5 Z"/></g>
<g><path style="opacity:1" fill="#1f5096" d="M 53.5,123.5 C 54.1635,125.042 54.8302,126.709 55.5,128.5C 56.2935,128.069 57.1268,127.735 58,127.5C 59.683,129.351 61.5163,131.017 63.5,132.5C 63.5,136.167 63.5,139.833 63.5,143.5C 60.5,143.5 57.5,143.5 54.5,143.5C 54.0462,136.841 53.7129,130.174 53.5,123.5 Z"/></g>
<g><path style="opacity:1" fill="#1d395d" d="M 114.5,126.5 C 116.5,126.5 118.5,126.5 120.5,126.5C 120.198,129.059 120.532,131.393 121.5,133.5C 122.811,136.797 124.145,140.13 125.5,143.5C 123.833,143.5 122.167,143.5 120.5,143.5C 120.5,142.167 120.5,140.833 120.5,139.5C 116.366,138.314 112.366,136.814 108.5,135C 109.38,133.644 109.714,132.144 109.5,130.5C 106.314,130.105 103.314,129.105 100.5,127.5C 99.914,127.709 99.414,128.043 99,128.5C 98.3603,126.735 98.5269,125.068 99.5,123.5C 102.141,122.737 104.808,122.57 107.5,123C 108.641,123.741 108.641,124.575 107.5,125.5C 108.274,126.711 109.107,126.711 110,125.5C 111.004,129.056 112.504,129.389 114.5,126.5 Z"/></g>
<g><path style="opacity:1" fill="#0e388d" d="M 172.5,136.5 C 173.612,138.599 174.279,140.933 174.5,143.5C 163.833,143.5 153.167,143.5 142.5,143.5C 142.054,140.99 142.72,138.99 144.5,137.5C 146.834,135.824 147.834,133.491 147.5,130.5C 147.5,130.167 147.5,129.833 147.5,129.5C 147.833,129.5 148.167,129.5 148.5,129.5C 150.346,127.97 151.346,125.97 151.5,123.5C 156.805,124.445 162.139,124.445 167.5,123.5C 167.739,125.467 167.406,127.301 166.5,129C 168.004,130.491 168.837,132.324 169,134.5C 170.232,131.77 171.065,131.937 171.5,135C 170.875,136.841 170.708,138.674 171,140.5C 172.188,139.437 172.688,138.103 172.5,136.5 Z"/></g>
<g><path style="opacity:1" fill="#527a7d" d="M 15.5,127.5 C 20.1525,127.66 23.8192,129.66 26.5,133.5C 26.8841,135.665 26.2174,137.332 24.5,138.5C 23.8302,136.709 23.1635,135.042 22.5,133.5C 18.6531,133.1 16.3198,131.1 15.5,127.5 Z"/></g>
<g><path style="opacity:1" fill="#3fb5d2" d="M 86.5,118.5 C 87.9784,120.645 89.3118,122.979 90.5,125.5C 91.6283,126.262 92.7949,126.929 94,127.5C 93.8859,124.314 94.0526,121.314 94.5,118.5C 95.6737,119.514 96.3404,120.847 96.5,122.5C 97.2859,126.545 98.2859,130.545 99.5,134.5C 98.2438,134.539 97.2438,134.039 96.5,133C 97.8333,132.333 97.8333,131.667 96.5,131C 93.8896,130.853 91.5563,130.019 89.5,128.5C 88.0926,125.279 87.0926,121.945 86.5,118.5 Z"/></g>
<g><path style="opacity:1" fill="#134691" d="M 209.5,126.5 C 205.455,128.668 201.455,131.168 197.5,134C 198.973,134.71 199.64,135.876 199.5,137.5C 198.833,139.5 198.167,141.5 197.5,143.5C 189.833,143.5 182.167,143.5 174.5,143.5C 174.279,140.933 173.612,138.599 172.5,136.5C 171.993,131.474 171.326,126.474 170.5,121.5C 171.521,121.899 171.854,123.233 171.5,125.5C 175.437,125.802 178.437,127.635 180.5,131C 180.167,131.333 179.833,131.667 179.5,132C 180.766,132.309 181.933,132.809 183,133.5C 187.565,132.728 192.399,131.894 197.5,131C 201.237,128.625 205.237,127.125 209.5,126.5 Z"/></g>
<g><path style="opacity:1" fill="#4c7675" d="M -0.5,125.5 C 0.899922,126.1 1.89992,127.1 2.5,128.5C 4.73974,129.264 7.07307,130.098 9.5,131C 11.3509,132.752 13.3509,134.252 15.5,135.5C 15.6716,136.492 15.3382,137.158 14.5,137.5C 11.8554,136.509 9.52203,135.009 7.5,133C 4.88317,132.178 2.2165,131.678 -0.5,131.5C -0.5,129.5 -0.5,127.5 -0.5,125.5 Z"/></g>
<g><path style="opacity:1" fill="#889c97" d="M 73.5,123.5 C 72.9457,130.153 72.6123,136.82 72.5,143.5C 71.5,143.5 70.5,143.5 69.5,143.5C 69.3946,139.452 69.7279,135.452 70.5,131.5C 71.3712,127.979 72.2045,124.312 73,120.5C 73.4828,121.448 73.6495,122.448 73.5,123.5 Z"/></g>
<g><path style="opacity:1" fill="#5cd4e6" d="M 85.5,117.5 C 85.5,118.167 85.8333,118.5 86.5,118.5C 87.0926,121.945 88.0926,125.279 89.5,128.5C 91.5563,130.019 93.8896,130.853 96.5,131C 97.8333,131.667 97.8333,132.333 96.5,133C 97.2438,134.039 98.2438,134.539 99.5,134.5C 100.512,135.872 101.512,137.205 102.5,138.5C 103.562,140.099 103.562,141.766 102.5,143.5C 93.5,143.5 84.5,143.5 75.5,143.5C 75.5,138.5 75.5,133.5 75.5,128.5C 76.4682,126.393 76.8016,124.059 76.5,121.5C 77.1174,121.389 77.6174,121.056 78,120.5C 78.4955,118.527 78.6621,116.527 78.5,114.5C 81.0215,115.011 83.3549,116.011 85.5,117.5 Z"/></g>
<g><path style="opacity:1" fill="#4a6798" d="M 147.5,130.5 C 147.834,133.491 146.834,135.824 144.5,137.5C 145.264,134.982 146.264,132.649 147.5,130.5 Z"/></g>
<g><path style="opacity:1" fill="#1b518f" d="M 255.5,137.5 C 255.5,139.5 255.5,141.5 255.5,143.5C 236.167,143.5 216.833,143.5 197.5,143.5C 198.167,141.5 198.833,139.5 199.5,137.5C 203.773,134.943 208.273,134.276 213,135.5C 215.978,135.852 218.478,135.018 220.5,133C 227.167,132.333 233.833,132.333 240.5,133C 245.435,134.812 250.435,136.312 255.5,137.5 Z"/></g>
<g><path style="opacity:1" fill="#939c81" d="M 146.5,125.5 C 147.434,126.568 147.768,127.901 147.5,129.5C 147.5,129.833 147.5,130.167 147.5,130.5C 146.264,132.649 145.264,134.982 144.5,137.5C 142.72,138.99 142.054,140.99 142.5,143.5C 141.5,143.5 140.5,143.5 139.5,143.5C 139.298,141.05 139.631,138.717 140.5,136.5C 142.769,132.962 144.769,129.295 146.5,125.5 Z"/></g>
<g><path style="opacity:1" fill="#1c2b3a" d="M 32.5,119.5 C 36.8333,123.5 41.1667,127.5 45.5,131.5C 46.4876,135.484 47.4876,139.484 48.5,143.5C 44.1667,143.5 39.8333,143.5 35.5,143.5C 36.0906,142.849 36.7573,142.182 37.5,141.5C 35.4659,138.631 32.9659,136.298 30,134.5C 28.1886,135.424 28.3553,136.257 30.5,137C 29.552,137.483 28.552,137.649 27.5,137.5C 27.5,136.167 27.5,134.833 27.5,133.5C 28.8221,133.67 29.9887,133.337 31,132.5C 32.1667,133.667 33.3333,134.833 34.5,136C 35.3317,136.688 35.9984,136.521 36.5,135.5C 34.5201,133.205 33.3534,130.539 33,127.5C 32.0754,126.953 31.2421,126.287 30.5,125.5C 32.1045,123.821 32.7711,121.821 32.5,119.5 Z"/></g>
<g><path style="opacity:1" fill="#2e5050" d="M 22.5,133.5 C 23.1635,135.042 23.8302,136.709 24.5,138.5C 26.2174,137.332 26.8841,135.665 26.5,133.5C 26.8333,133.5 27.1667,133.5 27.5,133.5C 27.5,134.833 27.5,136.167 27.5,137.5C 26.3077,139.922 24.3077,140.922 21.5,140.5C 18.4995,140.828 16.1661,139.828 14.5,137.5C 15.3382,137.158 15.6716,136.492 15.5,135.5C 17.717,136.369 20.0504,136.702 22.5,136.5C 22.5,135.5 22.5,134.5 22.5,133.5 Z"/></g>
<g><path style="opacity:1" fill="#193966" d="M 99.5,123.5 C 98.5269,125.068 98.3603,126.735 99,128.5C 99.414,128.043 99.914,127.709 100.5,127.5C 103.314,129.105 106.314,130.105 109.5,130.5C 109.714,132.144 109.38,133.644 108.5,135C 112.366,136.814 116.366,138.314 120.5,139.5C 120.5,140.833 120.5,142.167 120.5,143.5C 118.167,143.5 115.833,143.5 113.5,143.5C 112.766,142.292 112.433,140.959 112.5,139.5C 110.723,139.214 109.056,138.547 107.5,137.5C 105.865,138.046 104.199,138.38 102.5,138.5C 101.512,137.205 100.512,135.872 99.5,134.5C 98.2859,130.545 97.2859,126.545 96.5,122.5C 97.1174,122.389 97.6174,122.056 98,121.5C 98.2784,122.416 98.7784,123.082 99.5,123.5 Z"/></g>
<g><path style="opacity:1" fill="#4482d6" d="M 74.5,121.5 C 75.4682,123.607 75.8016,125.941 75.5,128.5C 75.5,133.5 75.5,138.5 75.5,143.5C 74.5,143.5 73.5,143.5 72.5,143.5C 72.6123,136.82 72.9457,130.153 73.5,123.5C 74.3382,123.158 74.6716,122.492 74.5,121.5 Z"/></g>
<g><path style="opacity:1" fill="#556876" d="M 138.5,136.5 C 139.167,136.5 139.833,136.5 140.5,136.5C 139.631,138.717 139.298,141.05 139.5,143.5C 134.833,143.5 130.167,143.5 125.5,143.5C 124.145,140.13 122.811,136.797 121.5,133.5C 122.374,132.475 123.541,131.808 125,131.5C 129.74,132.666 134.24,134.333 138.5,136.5 Z"/></g>
<g><path style="opacity:1" fill="#292a29" d="M -0.5,131.5 C 2.2165,131.678 4.88317,132.178 7.5,133C 9.52203,135.009 11.8554,136.509 14.5,137.5C 16.1661,139.828 18.4995,140.828 21.5,140.5C 24.3077,140.922 26.3077,139.922 27.5,137.5C 28.552,137.649 29.552,137.483 30.5,137C 28.3553,136.257 28.1886,135.424 30,134.5C 32.9659,136.298 35.4659,138.631 37.5,141.5C 36.7573,142.182 36.0906,142.849 35.5,143.5C 23.5,143.5 11.5,143.5 -0.5,143.5C -0.5,139.5 -0.5,135.5 -0.5,131.5 Z"/></g>
<g><path style="opacity:1" fill="#33558a" d="M 113.5,143.5 C 109.833,143.5 106.167,143.5 102.5,143.5C 103.562,141.766 103.562,140.099 102.5,138.5C 104.199,138.38 105.865,138.046 107.5,137.5C 109.056,138.547 110.723,139.214 112.5,139.5C 112.433,140.959 112.766,142.292 113.5,143.5 Z"/></g>
</svg>
