<?xml version="1.0" encoding="UTF-8"?>
<!DOCTYPE svg PUBLIC "-//W3C//DTD SVG 1.1//EN" "http://www.w3.org/Graphics/SVG/1.1/DTD/svg11.dtd">
<svg xmlns="http://www.w3.org/2000/svg" version="1.1" width="256px" height="144px" style="shape-rendering:geometricPrecision; text-rendering:geometricPrecision; image-rendering:optimizeQuality; fill-rule:evenodd; clip-rule:evenodd" xmlns:xlink="http://www.w3.org/1999/xlink">
<g><path style="opacity:1" fill="#0a0314" d="M -0.5,-0.5 C 11.5,-0.5 23.5,-0.5 35.5,-0.5C 37.631,0.313823 39.9644,0.813823 42.5,1C 38.99,6.69028 35.6566,12.5236 32.5,18.5C 32.7093,19.086 33.0426,19.586 33.5,20C 29.5866,23.3254 26.2532,27.1587 23.5,31.5C 18.0051,34.7479 12.6718,38.2479 7.5,42C 4.56655,44.2643 2.39988,47.0976 1,50.5C 0.821287,46.9748 0.321287,43.6414 -0.5,40.5C -0.5,26.8333 -0.5,13.1667 -0.5,-0.5 Z"/></g>
<g><path style="opacity:1" fill="#0e031c" d="M 35.5,-0.5 C 39.1667,-0.5 42.8333,-0.5 46.5,-0.5C 48.2922,0.309116 50.2922,0.809116 52.5,1C 47.2399,3.50653 43.5732,7.50653 41.5,13C 41.2241,18.3916 41.5574,23.8916 42.5,29.5C 42.1822,30.6473 41.5156,31.4806 40.5,32C 41.4506,32.7175 41.6172,33.5509 41,34.5C 39.1667,36.3333 37.3333,38.1667 35.5,40C 35.8333,40.3333 36.1667,40.6667 36.5,41C 35.451,41.4922 34.451,41.3256 33.5,40.5C 32.5,41.1667 31.5,41.8333 30.5,42.5C 20.1648,38.2569 12.9981,41.2569 9,51.5C 8.66667,51.1667 8.33333,50.8333 8,50.5C 5.12055,52.5949 2.95388,55.2616 1.5,58.5C 2.30388,60.136 3.30388,61.636 4.5,63C 7.77347,63.4855 10.4401,64.3188 12.5,65.5C 11.2889,66.7202 11.2889,67.8869 12.5,69C 11.3128,70.0195 10.3128,71.1861 9.5,72.5C 10.1667,72.8333 10.8333,73.1667 11.5,73.5C 10.0521,75.6667 8.88543,78 8,80.5C 7.66667,79.1667 7.33333,77.8333 7,76.5C 5.24523,79.0439 3.24523,81.3773 1,83.5C 0.830269,72.9919 0.330269,62.6585 -0.5,52.5C -0.5,48.5 -0.5,44.5 -0.5,40.5C 0.321287,43.6414 0.821287,46.9748 1,50.5C 2.39988,47.0976 4.56655,44.2643 7.5,42C 12.6718,38.2479 18.0051,34.7479 23.5,31.5C 26.2532,27.1587 29.5866,23.3254 33.5,20C 33.0426,19.586 32.7093,19.086 32.5,18.5C 35.6566,12.5236 38.99,6.69028 42.5,1C 39.9644,0.813823 37.631,0.313823 35.5,-0.5 Z"/></g>
<g><path style="opacity:1" fill="#120523" d="M 46.5,-0.5 C 69.1667,-0.5 91.8333,-0.5 114.5,-0.5C 114.027,0.906316 113.027,1.57298 111.5,1.5C 109.598,0.489053 107.598,0.322386 105.5,1C 100.053,3.63402 95.3864,7.13402 91.5,11.5C 91.1667,11.5 90.8333,11.5 90.5,11.5C 90.84,9.32099 91.84,7.48765 93.5,6C 93.1667,5.83333 92.8333,5.66667 92.5,5.5C 89.086,7.95738 85.586,10.2907 82,12.5C 81,11.1667 80,11.1667 79,12.5C 78.6667,11.5 78.3333,10.5 78,9.5C 77.6667,9.83333 77.3333,10.1667 77,10.5C 76.6258,9.58377 76.1258,8.75044 75.5,8C 72.5029,7.137 69.8362,5.47033 67.5,3C 52.998,-0.398181 45.3313,5.10182 44.5,19.5C 46.7338,23.2277 48.7338,27.061 50.5,31C 50.1929,33.5711 49.6929,36.4044 49,39.5C 43.6448,43.5219 38.9781,48.1885 35,53.5C 31.7582,51.4417 28.5915,48.9417 25.5,46C 23.2462,44.8495 20.9129,44.5162 18.5,45C 16.7166,46.7387 15.0499,48.5721 13.5,50.5C 14.5,51.8333 15.5,53.1667 16.5,54.5C 15.508,56.9807 16.508,58.4807 19.5,59C 19.1667,59.3333 18.8333,59.6667 18.5,60C 19.5634,61.1882 20.8967,61.6882 22.5,61.5C 25.6949,72.6602 21.5283,80.6602 10,85.5C 8.05314,89.9763 5.71981,94.3097 3,98.5C 2.32924,99.2524 1.4959,99.5858 0.5,99.5C 0.818222,94.9677 0.484888,90.6344 -0.5,86.5C -0.5,75.1667 -0.5,63.8333 -0.5,52.5C 0.330269,62.6585 0.830269,72.9919 1,83.5C 3.24523,81.3773 5.24523,79.0439 7,76.5C 7.33333,77.8333 7.66667,79.1667 8,80.5C 8.88543,78 10.0521,75.6667 11.5,73.5C 10.8333,73.1667 10.1667,72.8333 9.5,72.5C 10.3128,71.1861 11.3128,70.0195 12.5,69C 11.2889,67.8869 11.2889,66.7202 12.5,65.5C 10.4401,64.3188 7.77347,63.4855 4.5,63C 3.30388,61.636 2.30388,60.136 1.5,58.5C 2.95388,55.2616 5.12055,52.5949 8,50.5C 8.33333,50.8333 8.66667,51.1667 9,51.5C 12.9981,41.2569 20.1648,38.2569 30.5,42.5C 31.5,41.8333 32.5,41.1667 33.5,40.5C 34.451,41.3256 35.451,41.4922 36.5,41C 36.1667,40.6667 35.8333,40.3333 35.5,40C 37.3333,38.1667 39.1667,36.3333 41,34.5C 41.6172,33.5509 41.4506,32.7175 40.5,32C 41.5156,31.4806 42.1822,30.6473 42.5,29.5C 41.5574,23.8916 41.2241,18.3916 41.5,13C 43.5732,7.50653 47.2399,3.50653 52.5,1C 50.2922,0.809116 48.2922,0.309116 46.5,-0.5 Z"/></g>
<g><path style="opacity:1" fill="#e4ddec" d="M 116.5,-0.5 C 130.167,-0.5 143.833,-0.5 157.5,-0.5C 161.172,0.240816 164.839,1.40748 168.5,3C 164.728,3.40602 161.061,4.23935 157.5,5.5C 164.085,6.69491 170.585,8.02824 177,9.5C 177.81,13.3575 177.643,17.0242 176.5,20.5C 176.762,19.0222 176.429,17.6888 175.5,16.5C 169.885,13.5953 163.885,11.9286 157.5,11.5C 157.068,10.2905 156.401,9.29049 155.5,8.5C 154.974,6.76967 153.974,5.43634 152.5,4.5C 151.564,3.02561 150.23,2.02561 148.5,1.5C 144.869,0.588014 141.203,0.421348 137.5,1C 136.833,1.66667 136.167,2.33333 135.5,3C 136.823,3.81595 137.489,4.98261 137.5,6.5C 132.038,0.67132 126.038,0.00465375 119.5,4.5C 119.062,4.43456 118.728,4.60123 118.5,5C 120.114,7.12669 122.114,8.62669 124.5,9.5C 124.5,10.1667 124.167,10.5 123.5,10.5C 119.818,10.6653 116.152,10.4986 112.5,10C 114.285,8.83716 116.285,8.17049 118.5,8C 116.68,6.31145 114.68,6.14479 112.5,7.5C 113.228,5.26544 114.561,3.43211 116.5,2C 115.402,1.23029 115.402,0.396953 116.5,-0.5 Z"/></g>
<g><path style="opacity:1" fill="#865b48" d="M 218.5,-0.5 C 224.5,-0.5 230.5,-0.5 236.5,-0.5C 235.44,2.54064 235.44,5.20731 236.5,7.5C 231.547,4.59083 226.214,2.59083 220.5,1.5C 219.167,1.5 218.5,0.833333 218.5,-0.5 Z"/></g>
<g><path style="opacity:1" fill="#331351" d="M 242.5,-0.5 C 246.833,-0.5 251.167,-0.5 255.5,-0.5C 255.5,2.5 255.5,5.5 255.5,8.5C 253.184,7.19444 250.85,5.86111 248.5,4.5C 246.5,2.83333 244.5,1.16667 242.5,-0.5 Z"/></g>
<g><path style="opacity:1" fill="#604a2f" d="M 148.5,1.5 C 146.064,3.07877 144.731,5.4121 144.5,8.5C 142.685,7.37023 140.685,6.70356 138.5,6.5C 138.167,6.5 137.833,6.5 137.5,6.5C 137.489,4.98261 136.823,3.81595 135.5,3C 136.167,2.33333 136.833,1.66667 137.5,1C 141.203,0.421348 144.869,0.588014 148.5,1.5 Z"/></g>
<g><path style="opacity:1" fill="#cea285" d="M 148.5,1.5 C 150.23,2.02561 151.564,3.02561 152.5,4.5C 151.416,7.00411 150.083,9.33744 148.5,11.5C 147.564,10.0256 146.23,9.02561 144.5,8.5C 144.731,5.4121 146.064,3.07877 148.5,1.5 Z"/></g>
<g><path style="opacity:1" fill="#2f1152" d="M 176.5,-0.5 C 190.5,-0.5 204.5,-0.5 218.5,-0.5C 218.5,0.833333 219.167,1.5 220.5,1.5C 222.619,3.39976 224.953,5.06643 227.5,6.5C 227.833,7.83333 228.167,9.16667 228.5,10.5C 227.596,11.209 227.263,12.209 227.5,13.5C 224.833,14.1667 222.167,14.8333 219.5,15.5C 219.473,17.1993 218.806,18.5326 217.5,19.5C 216.571,20.9361 215.405,22.2695 214,23.5C 212.951,22.4829 211.784,22.3162 210.5,23C 211.815,24.3946 211.481,25.3946 209.5,26C 210.76,27.8138 210.76,29.6471 209.5,31.5C 208.738,30.3717 208.071,29.2051 207.5,28C 205.392,27.6401 203.392,26.9734 201.5,26C 202.236,22.8012 201.403,22.6345 199,25.5C 196.288,24.6663 193.621,24.9997 191,26.5C 188.869,24.4564 186.369,23.623 183.5,24C 184.252,24.6708 184.586,25.5041 184.5,26.5C 182.674,24.8525 181.34,22.8525 180.5,20.5C 181.11,19.609 181.443,18.609 181.5,17.5C 182.561,10.6802 180.894,4.68022 176.5,-0.5 Z"/></g>
<g><path style="opacity:1" fill="#16052f" d="M 74.5,18.5 C 73.3172,19.5045 71.9839,20.3378 70.5,21C 70.8333,21.3333 71.1667,21.6667 71.5,22C 70.552,22.4828 69.552,22.6495 68.5,22.5C 68.3537,24.9424 69.187,25.6091 71,24.5C 74.2829,26.2806 74.2829,27.9473 71,29.5C 70.0546,29.0946 69.3879,28.428 69,27.5C 66.606,28.951 64.4393,28.6176 62.5,26.5C 60.6396,27.2599 58.973,28.2599 57.5,29.5C 54.8045,29.067 52.6379,27.7337 51,25.5C 50.7584,22.4128 49.9251,19.2461 48.5,16C 49.1086,11.4464 51.4419,8.11302 55.5,6C 59.7546,5.8029 63.7546,6.13624 67.5,7C 71.7331,9.68261 74.0664,13.5159 74.5,18.5 Z"/></g>
<g><path style="opacity:1" fill="#8271a8" d="M 109.5,3.5 C 109.489,5.01739 108.823,6.18405 107.5,7C 104.888,7.63949 102.554,8.80616 100.5,10.5C 100.957,11.2975 101.624,11.6309 102.5,11.5C 102.5,11.8333 102.5,12.1667 102.5,12.5C 100.012,12.3167 98.0122,11.3167 96.5,9.5C 99.655,5.09089 103.988,3.09089 109.5,3.5 Z"/></g>
<g><path style="opacity:1" fill="#c5bbd0" d="M 114.5,-0.5 C 115.167,-0.5 115.833,-0.5 116.5,-0.5C 115.402,0.396953 115.402,1.23029 116.5,2C 114.561,3.43211 113.228,5.26544 112.5,7.5C 111.5,8.83333 110.5,10.1667 109.5,11.5C 108.833,11.5 108.5,11.8333 108.5,12.5C 107.735,12.9234 106.902,13.2568 106,13.5C 104.923,12.5705 103.756,11.9038 102.5,11.5C 101.624,11.6309 100.957,11.2975 100.5,10.5C 102.554,8.80616 104.888,7.63949 107.5,7C 108.823,6.18405 109.489,5.01739 109.5,3.5C 110.833,3.5 111.5,2.83333 111.5,1.5C 113.027,1.57298 114.027,0.906316 114.5,-0.5 Z"/></g>
<g><path style="opacity:1" fill="#130b28" d="M 127.5,3.5 C 127.379,6.10478 126.379,8.10478 124.5,9.5C 122.114,8.62669 120.114,7.12669 118.5,5C 118.728,4.60123 119.062,4.43456 119.5,4.5C 122.167,4.16667 124.833,3.83333 127.5,3.5 Z"/></g>
<g><path style="opacity:1" fill="#e4e0e8" d="M 111.5,1.5 C 111.5,2.83333 110.833,3.5 109.5,3.5C 103.988,3.09089 99.655,5.09089 96.5,9.5C 95.1147,10.6138 93.6147,11.6138 92,12.5C 91.6012,12.2716 91.4346,11.9382 91.5,11.5C 95.3864,7.13402 100.053,3.63402 105.5,1C 107.598,0.322386 109.598,0.489053 111.5,1.5 Z"/></g>
<g><path style="opacity:1" fill="#442419" d="M 248.5,4.5 C 250.85,5.86111 253.184,7.19444 255.5,8.5C 255.5,21.5 255.5,34.5 255.5,47.5C 255.888,36.5106 252.888,26.5106 246.5,17.5C 247.043,17.44 247.376,17.1067 247.5,16.5C 244.942,12.2817 245.275,8.28167 248.5,4.5 Z"/></g>
<g><path style="opacity:1" fill="#5e3727" d="M 236.5,-0.5 C 238.5,-0.5 240.5,-0.5 242.5,-0.5C 244.5,1.16667 246.5,2.83333 248.5,4.5C 245.275,8.28167 244.942,12.2817 247.5,16.5C 247.376,17.1067 247.043,17.44 246.5,17.5C 243.473,13.8062 240.14,10.4729 236.5,7.5C 235.44,5.20731 235.44,2.54064 236.5,-0.5 Z"/></g>
<g><path style="opacity:1" fill="#56448e" d="M 137.5,6.5 C 137.821,11.6946 137.487,16.6946 136.5,21.5C 135.167,19.8333 133.833,18.1667 132.5,16.5C 133.767,13.9387 133.767,11.272 132.5,8.5C 131.811,5.81057 130.144,4.1439 127.5,3.5C 124.833,3.83333 122.167,4.16667 119.5,4.5C 126.038,0.00465375 132.038,0.67132 137.5,6.5 Z"/></g>
<g><path style="opacity:1" fill="#725540" d="M 152.5,4.5 C 153.974,5.43634 154.974,6.76967 155.5,8.5C 152.163,9.48398 150.663,11.8173 151,15.5C 149.905,14.3066 149.072,12.9733 148.5,11.5C 150.083,9.33744 151.416,7.00411 152.5,4.5 Z"/></g>
<g><path style="opacity:1" fill="#1d0538" d="M 58.5,7.5 C 70.4762,12.9076 70.4762,18.2409 58.5,23.5C 49.4012,18.1403 49.4012,12.807 58.5,7.5 Z"/></g>
<g><path style="opacity:1" fill="#9682bd" d="M 123.5,10.5 C 125.378,11.2076 127.045,12.3743 128.5,14C 126.005,13.9223 123.505,13.4223 121,12.5C 120.235,12.5699 119.735,12.9033 119.5,13.5C 116.017,13.3094 112.684,12.6427 109.5,11.5C 110.5,10.1667 111.5,8.83333 112.5,7.5C 114.68,6.14479 116.68,6.31145 118.5,8C 116.285,8.17049 114.285,8.83716 112.5,10C 116.152,10.4986 119.818,10.6653 123.5,10.5 Z"/></g>
<g><path style="opacity:1" fill="#beb3d0" d="M 127.5,3.5 C 130.144,4.1439 131.811,5.81057 132.5,8.5C 131.167,11.1667 131.167,13.8333 132.5,16.5C 133.833,18.1667 135.167,19.8333 136.5,21.5C 136.167,21.5 135.833,21.5 135.5,21.5C 130.714,17.7737 125.381,15.1071 119.5,13.5C 119.735,12.9033 120.235,12.5699 121,12.5C 123.505,13.4223 126.005,13.9223 128.5,14C 127.045,12.3743 125.378,11.2076 123.5,10.5C 124.167,10.5 124.5,10.1667 124.5,9.5C 126.379,8.10478 127.379,6.10478 127.5,3.5 Z"/></g>
<g><path style="opacity:1" fill="#1a0411" d="M 227.5,6.5 C 228.239,6.36899 228.906,6.53566 229.5,7C 234.307,11.2896 237.641,16.4563 239.5,22.5C 238.108,25.0067 237.108,27.6733 236.5,30.5C 235.883,30.6107 235.383,30.944 235,31.5C 234.821,27.9748 234.321,24.6414 233.5,21.5C 232.624,17.4179 230.957,13.7512 228.5,10.5C 228.167,9.16667 227.833,7.83333 227.5,6.5 Z"/></g>
<g><path style="opacity:1" fill="#35251e" d="M 132.5,8.5 C 133.767,11.272 133.767,13.9387 132.5,16.5C 131.167,13.8333 131.167,11.1667 132.5,8.5 Z"/></g>
<g><path style="opacity:1" fill="#f3f0f6" d="M 157.5,-0.5 C 163.833,-0.5 170.167,-0.5 176.5,-0.5C 180.894,4.68022 182.561,10.6802 181.5,17.5C 180.842,16.6016 180.176,15.6016 179.5,14.5C 178.051,16.9119 178.384,18.9119 180.5,20.5C 181.34,22.8525 182.674,24.8525 184.5,26.5C 186.5,29.5 188.5,32.5 190.5,35.5C 190.176,36.8121 189.509,37.6454 188.5,38C 192.528,48.7241 194.195,59.8908 193.5,71.5C 193.523,79.1834 193.857,86.8501 194.5,94.5C 193.229,91.0322 191.229,88.0322 188.5,85.5C 188.5,85.1667 188.5,84.8333 188.5,84.5C 189.604,81.9208 189.271,79.4208 187.5,77C 188.794,76.8939 189.461,75.8939 189.5,74C 188.978,69.3347 188.311,64.8347 187.5,60.5C 186.68,53.1605 185.513,45.8271 184,38.5C 183.667,38.1667 183.333,37.8333 183,37.5C 182.667,39.1667 182.333,40.8333 182,42.5C 180.051,38.3707 178.884,34.0373 178.5,29.5C 178.6,26.8915 177.933,24.5582 176.5,22.5C 176.5,21.8333 176.5,21.1667 176.5,20.5C 177.643,17.0242 177.81,13.3575 177,9.5C 170.585,8.02824 164.085,6.69491 157.5,5.5C 161.061,4.23935 164.728,3.40602 168.5,3C 164.839,1.40748 161.172,0.240816 157.5,-0.5 Z"/></g>
<g><path style="opacity:1" fill="#635174" d="M 96.5,9.5 C 98.0122,11.3167 100.012,12.3167 102.5,12.5C 100.35,15.472 99.3502,18.8053 99.5,22.5C 98.8826,22.6107 98.3826,22.944 98,23.5C 97.2585,20.438 97.4252,17.438 98.5,14.5C 97.675,13.6143 96.675,13.281 95.5,13.5C 95.6621,15.5273 95.4955,17.5273 95,19.5C 94.7216,18.5842 94.2216,17.9175 93.5,17.5C 93.6716,16.5084 93.3382,15.8417 92.5,15.5C 91.3995,14.3951 90.7329,13.0618 90.5,11.5C 90.8333,11.5 91.1667,11.5 91.5,11.5C 91.4346,11.9382 91.6012,12.2716 92,12.5C 93.6147,11.6138 95.1147,10.6138 96.5,9.5 Z"/></g>
<g><path style="opacity:1" fill="#3c3937" d="M 138.5,6.5 C 140.685,6.70356 142.685,7.37023 144.5,8.5C 146.23,9.02561 147.564,10.0256 148.5,11.5C 146.289,15.7282 143.623,19.7282 140.5,23.5C 139.732,22.7375 139.232,21.7375 139,20.5C 138.501,15.8452 138.334,11.1785 138.5,6.5 Z"/></g>
<g><path style="opacity:1" fill="#1f1513" d="M 155.5,8.5 C 156.401,9.29049 157.068,10.2905 157.5,11.5C 157.5,13.8333 157.5,16.1667 157.5,18.5C 156.512,19.795 155.512,21.1283 154.5,22.5C 151.419,25.1925 147.753,26.1925 143.5,25.5C 142.791,24.596 141.791,24.2627 140.5,24.5C 140.5,24.1667 140.5,23.8333 140.5,23.5C 143.623,19.7282 146.289,15.7282 148.5,11.5C 149.072,12.9733 149.905,14.3066 151,15.5C 150.663,11.8173 152.163,9.48398 155.5,8.5 Z"/></g>
<g><path style="opacity:1" fill="#bbaacb" d="M 157.5,11.5 C 163.885,11.9286 169.885,13.5953 175.5,16.5C 176.429,17.6888 176.762,19.0222 176.5,20.5C 176.5,21.1667 176.5,21.8333 176.5,22.5C 175.523,25.2869 175.19,28.2869 175.5,31.5C 171.416,24.2873 165.416,19.9539 157.5,18.5C 157.5,16.1667 157.5,13.8333 157.5,11.5 Z"/></g>
<g><path style="opacity:1" fill="#9b90ac" d="M 181.5,17.5 C 181.443,18.609 181.11,19.609 180.5,20.5C 178.384,18.9119 178.051,16.9119 179.5,14.5C 180.176,15.6016 180.842,16.6016 181.5,17.5 Z"/></g>
<g><path style="opacity:1" fill="#433051" d="M 102.5,11.5 C 103.756,11.9038 104.923,12.5705 106,13.5C 106.902,13.2568 107.735,12.9234 108.5,12.5C 106.823,15.0245 105.323,17.6912 104,20.5C 102.89,22.0368 101.39,22.7035 99.5,22.5C 99.3502,18.8053 100.35,15.472 102.5,12.5C 102.5,12.1667 102.5,11.8333 102.5,11.5 Z"/></g>
<g><path style="opacity:1" fill="#50268a" d="M 113.5,19.5 C 117.054,18.3483 120.72,18.515 124.5,20C 126.324,22.5047 128.657,24.0047 131.5,24.5C 130.5,25.1667 129.5,25.8333 128.5,26.5C 124.378,22.2719 119.378,19.9386 113.5,19.5 Z"/></g>
<g><path style="opacity:1" fill="#68577c" d="M 137.5,6.5 C 137.833,6.5 138.167,6.5 138.5,6.5C 138.334,11.1785 138.501,15.8452 139,20.5C 139.232,21.7375 139.732,22.7375 140.5,23.5C 140.5,23.8333 140.5,24.1667 140.5,24.5C 138.167,24.5 135.833,24.5 133.5,24.5C 134.551,23.7777 135.218,22.7777 135.5,21.5C 135.833,21.5 136.167,21.5 136.5,21.5C 137.487,16.6946 137.821,11.6946 137.5,6.5 Z"/></g>
<g><path style="opacity:1" fill="#3c1364" d="M 228.5,10.5 C 230.957,13.7512 232.624,17.4179 233.5,21.5C 233.666,25.5138 233.499,29.5138 233,33.5C 232.147,31.8753 231.147,31.5419 230,32.5C 227.615,30.4612 225.448,30.4612 223.5,32.5C 220.833,31.8333 218.167,31.1667 215.5,30.5C 214.914,30.7093 214.414,31.0426 214,31.5C 213.516,29.0871 213.85,26.7538 215,24.5C 217.588,23.3385 218.422,21.6718 217.5,19.5C 218.806,18.5326 219.473,17.1993 219.5,15.5C 222.167,14.8333 224.833,14.1667 227.5,13.5C 227.263,12.209 227.596,11.209 228.5,10.5 Z"/></g>
<g><path style="opacity:1" fill="#3e235a" d="M 109.5,11.5 C 112.684,12.6427 116.017,13.3094 119.5,13.5C 125.381,15.1071 130.714,17.7737 135.5,21.5C 135.218,22.7777 134.551,23.7777 133.5,24.5C 132.833,24.5 132.167,24.5 131.5,24.5C 128.657,24.0047 126.324,22.5047 124.5,20C 120.72,18.515 117.054,18.3483 113.5,19.5C 111.77,20.0256 110.436,21.0256 109.5,22.5C 104.963,26.9003 101.963,32.2337 100.5,38.5C 99.4625,39.9303 98.7959,41.597 98.5,43.5C 97.7784,43.9175 97.2784,44.5842 97,45.5C 96.6924,44.6919 96.1924,44.0253 95.5,43.5C 92.7523,44.8129 89.919,45.8129 87,46.5C 86.5357,45.9056 86.369,45.2389 86.5,44.5C 88.9914,38.4885 89.9914,32.1552 89.5,25.5C 89.6716,24.5084 89.3382,23.8417 88.5,23.5C 90.2194,21.4559 91.8861,19.4559 93.5,17.5C 94.2216,17.9175 94.7216,18.5842 95,19.5C 95.4955,17.5273 95.6621,15.5273 95.5,13.5C 96.675,13.281 97.675,13.6143 98.5,14.5C 97.4252,17.438 97.2585,20.438 98,23.5C 98.3826,22.944 98.8826,22.6107 99.5,22.5C 101.39,22.7035 102.89,22.0368 104,20.5C 105.323,17.6912 106.823,15.0245 108.5,12.5C 108.5,11.8333 108.833,11.5 109.5,11.5 Z"/></g>
<g><path style="opacity:1" fill="#9e4dd9" d="M 118.5,22.5 C 118.108,24.1789 117.608,25.8455 117,27.5C 112.095,31.5128 107.595,35.8461 103.5,40.5C 102.222,40.2178 101.222,39.5511 100.5,38.5C 101.963,32.2337 104.963,26.9003 109.5,22.5C 112.638,21.3187 115.638,21.3187 118.5,22.5 Z"/></g>
<g><path style="opacity:1" fill="#ece8ee" d="M 78.5,36.5 C 78.5,36.8333 78.5,37.1667 78.5,37.5C 78.631,38.2389 78.4643,38.9056 78,39.5C 76.2866,38.1218 74.9533,36.4552 74,34.5C 73.5034,36.8098 73.3367,39.1432 73.5,41.5C 72.2028,39.6287 71.2028,37.6287 70.5,35.5C 70.2671,33.9382 69.6005,32.6049 68.5,31.5C 70.288,31.7852 71.9547,31.4519 73.5,30.5C 74.1237,28.246 75.457,26.5794 77.5,25.5C 77.8333,25.8333 78.1667,26.1667 78.5,26.5C 75.9895,30.0506 75.9895,33.384 78.5,36.5 Z"/></g>
<g><path style="opacity:1" fill="#321953" d="M 142.5,26.5 C 142.833,27.1667 143.167,27.8333 143.5,28.5C 140.061,28.2529 136.728,28.5863 133.5,29.5C 133.577,28.2502 134.244,27.4169 135.5,27C 137.81,26.5034 140.143,26.3367 142.5,26.5 Z"/></g>
<g><path style="opacity:1" fill="#140628" d="M 90.5,11.5 C 90.7329,13.0618 91.3995,14.3951 92.5,15.5C 91.5041,15.5858 90.6708,15.2524 90,14.5C 88.2907,17.1156 86.124,18.1156 83.5,17.5C 81.1622,18.6162 78.9955,19.9496 77,21.5C 76.1482,20.4293 75.3149,19.4293 74.5,18.5C 74.0664,13.5159 71.7331,9.68261 67.5,7C 63.7546,6.13624 59.7546,5.8029 55.5,6C 51.4419,8.11302 49.1086,11.4464 48.5,16C 49.9251,19.2461 50.7584,22.4128 51,25.5C 52.6379,27.7337 54.8045,29.067 57.5,29.5C 56.0474,30.8249 56.3808,31.6582 58.5,32C 57.2889,33.1131 57.2889,34.2798 58.5,35.5C 52.1851,43.6484 45.0184,50.9818 37,57.5C 36.7508,58.624 36.2508,59.624 35.5,60.5C 34.011,60.5331 32.6776,61.0331 31.5,62C 31.8333,62.3333 32.1667,62.6667 32.5,63C 30.992,64.5067 29.6587,66.1733 28.5,68C 28.8333,68.3333 29.1667,68.6667 29.5,69C 28.0936,71.4449 26.7602,73.9449 25.5,76.5C 27.3969,77.6681 27.5636,79.3348 26,81.5C 22.6667,83.5 20,86.1667 18,89.5C 17.6667,89.1667 17.3333,88.8333 17,88.5C 12.2302,96.5936 6.89683,103.594 1,109.5C 0.501655,106.183 0.334989,102.85 0.5,99.5C 1.4959,99.5858 2.32924,99.2524 3,98.5C 5.71981,94.3097 8.05314,89.9763 10,85.5C 21.5283,80.6602 25.6949,72.6602 22.5,61.5C 20.8967,61.6882 19.5634,61.1882 18.5,60C 18.8333,59.6667 19.1667,59.3333 19.5,59C 16.508,58.4807 15.508,56.9807 16.5,54.5C 15.5,53.1667 14.5,51.8333 13.5,50.5C 15.0499,48.5721 16.7166,46.7387 18.5,45C 20.9129,44.5162 23.2462,44.8495 25.5,46C 28.5915,48.9417 31.7582,51.4417 35,53.5C 38.9781,48.1885 43.6448,43.5219 49,39.5C 49.6929,36.4044 50.1929,33.5711 50.5,31C 48.7338,27.061 46.7338,23.2277 44.5,19.5C 45.3313,5.10182 52.998,-0.398181 67.5,3C 69.8362,5.47033 72.5029,7.137 75.5,8C 76.1258,8.75044 76.6258,9.58377 77,10.5C 77.3333,10.1667 77.6667,9.83333 78,9.5C 78.3333,10.5 78.6667,11.5 79,12.5C 80,11.1667 81,11.1667 82,12.5C 85.586,10.2907 89.086,7.95738 92.5,5.5C 92.8333,5.66667 93.1667,5.83333 93.5,6C 91.84,7.48765 90.84,9.32099 90.5,11.5 Z"/></g>
<g><path style="opacity:1" fill="#7a39be" d="M 113.5,19.5 C 119.378,19.9386 124.378,22.2719 128.5,26.5C 124.81,29.1985 121.143,31.8652 117.5,34.5C 116.833,34.8333 116.167,35.1667 115.5,35.5C 114.833,35.5 114.5,35.1667 114.5,34.5C 115.989,32.1949 117.489,29.8616 119,27.5C 119.78,25.6131 119.613,23.9464 118.5,22.5C 115.638,21.3187 112.638,21.3187 109.5,22.5C 110.436,21.0256 111.77,20.0256 113.5,19.5 Z"/></g>
<g><path style="opacity:1" fill="#cab6e5" d="M 131.5,24.5 C 132.167,24.5 132.833,24.5 133.5,24.5C 135.833,24.5 138.167,24.5 140.5,24.5C 141.791,24.2627 142.791,24.596 143.5,25.5C 143.5,26.1667 143.167,26.5 142.5,26.5C 140.143,26.3367 137.81,26.5034 135.5,27C 134.244,27.4169 133.577,28.2502 133.5,29.5C 128.578,32.0712 123.244,33.7379 117.5,34.5C 121.143,31.8652 124.81,29.1985 128.5,26.5C 129.5,25.8333 130.5,25.1667 131.5,24.5 Z"/></g>
<g><path style="opacity:1" fill="#e1d6ea" d="M 176.5,22.5 C 177.933,24.5582 178.6,26.8915 178.5,29.5C 177.359,32.6399 177.192,35.9733 178,39.5C 180.802,49.5707 183.802,59.5707 187,69.5C 187.498,66.5184 187.665,63.5184 187.5,60.5C 188.311,64.8347 188.978,69.3347 189.5,74C 189.461,75.8939 188.794,76.8939 187.5,77C 189.271,79.4208 189.604,81.9208 188.5,84.5C 185.925,81.681 183.592,78.681 181.5,75.5C 181.167,74.1667 180.833,72.8333 180.5,71.5C 180.81,70.2617 181.31,70.2617 182,71.5C 183.586,73.6705 184.92,76.0038 186,78.5C 183.315,65.0932 179.982,51.7598 176,38.5C 175.503,36.1902 175.337,33.8568 175.5,31.5C 175.19,28.2869 175.523,25.2869 176.5,22.5 Z"/></g>
<g><path style="opacity:1" fill="#4e146b" d="M 239.5,22.5 C 242.266,24.5096 243.933,27.3429 244.5,31C 244.43,31.7648 244.097,32.2648 243.5,32.5C 243.19,31.2617 242.69,31.2617 242,32.5C 240.194,37.4455 237.861,42.1122 235,46.5C 234.997,43.9676 235.497,41.4676 236.5,39C 236.475,37.124 235.809,35.624 234.5,34.5C 235.6,33.3951 236.267,32.0618 236.5,30.5C 237.108,27.6733 238.108,25.0067 239.5,22.5 Z"/></g>
<g><path style="opacity:1" fill="#3b1f65" d="M 217.5,19.5 C 218.422,21.6718 217.588,23.3385 215,24.5C 213.85,26.7538 213.516,29.0871 214,31.5C 214.414,31.0426 214.914,30.7093 215.5,30.5C 218.167,31.1667 220.833,31.8333 223.5,32.5C 225.448,30.4612 227.615,30.4612 230,32.5C 231.147,31.5419 232.147,31.8753 233,33.5C 233.499,29.5138 233.666,25.5138 233.5,21.5C 234.321,24.6414 234.821,27.9748 235,31.5C 235.383,30.944 235.883,30.6107 236.5,30.5C 236.267,32.0618 235.6,33.3951 234.5,34.5C 233.264,36.649 232.264,38.9823 231.5,41.5C 228.896,46.3752 226.562,51.3752 224.5,56.5C 223.599,57.2905 222.932,58.2905 222.5,59.5C 219.432,59.4533 216.432,58.9533 213.5,58C 214.624,57.7508 215.624,57.2508 216.5,56.5C 214.585,55.2913 212.752,53.958 211,52.5C 210.228,52.6448 209.561,52.9781 209,53.5C 206.521,50.931 203.854,48.5977 201,46.5C 200.517,45.552 200.351,44.552 200.5,43.5C 199.167,43.5 197.833,43.5 196.5,43.5C 196.768,45.099 196.434,46.4324 195.5,47.5C 194.903,42.9831 193.237,38.9831 190.5,35.5C 188.5,32.5 186.5,29.5 184.5,26.5C 184.586,25.5041 184.252,24.6708 183.5,24C 186.369,23.623 188.869,24.4564 191,26.5C 193.621,24.9997 196.288,24.6663 199,25.5C 201.403,22.6345 202.236,22.8012 201.5,26C 203.392,26.9734 205.392,27.6401 207.5,28C 208.071,29.2051 208.738,30.3717 209.5,31.5C 210.76,29.6471 210.76,27.8138 209.5,26C 211.481,25.3946 211.815,24.3946 210.5,23C 211.784,22.3162 212.951,22.4829 214,23.5C 215.405,22.2695 216.571,20.9361 217.5,19.5 Z"/></g>
<g><path style="opacity:1" fill="#eae1f1" d="M 143.5,28.5 C 151.02,32.0138 157.02,37.3471 161.5,44.5C 161.376,45.1067 161.043,45.44 160.5,45.5C 156.644,38.4521 150.977,33.9521 143.5,32C 148.669,36.3371 153.669,40.8371 158.5,45.5C 159.811,48.1354 161.478,50.4687 163.5,52.5C 164.88,55.9108 166.214,59.2441 167.5,62.5C 167.672,63.4916 167.338,64.1583 166.5,64.5C 166.5,63.8333 166.167,63.5 165.5,63.5C 164.752,61.6675 163.752,60.0009 162.5,58.5C 162.804,57.8501 163.137,57.1835 163.5,56.5C 160.309,50.4125 155.976,45.4125 150.5,41.5C 146.637,35.9013 141.303,32.9013 134.5,32.5C 125.636,33.7409 117.636,37.0742 110.5,42.5C 110.062,42.5654 109.728,42.3988 109.5,42C 111.409,39.6232 113.409,37.4565 115.5,35.5C 116.167,35.1667 116.833,34.8333 117.5,34.5C 123.244,33.7379 128.578,32.0712 133.5,29.5C 136.728,28.5863 140.061,28.2529 143.5,28.5 Z"/></g>
<g><path style="opacity:1" fill="#9a54cf" d="M 88.5,23.5 C 89.3382,23.8417 89.6716,24.5084 89.5,25.5C 88.1773,31.4051 86.844,37.4051 85.5,43.5C 84.8423,42.6016 84.1757,41.6016 83.5,40.5C 82.2638,41.2458 80.9305,41.5792 79.5,41.5C 79.7678,39.901 79.4345,38.5676 78.5,37.5C 78.5,37.1667 78.5,36.8333 78.5,36.5C 81.1068,31.6257 84.4401,27.2924 88.5,23.5 Z"/></g>
<g><path style="opacity:1" fill="#5b2c8e" d="M 89.5,25.5 C 89.9914,32.1552 88.9914,38.4885 86.5,44.5C 86.1667,44.5 85.8333,44.5 85.5,44.5C 85.5,44.1667 85.5,43.8333 85.5,43.5C 86.844,37.4051 88.1773,31.4051 89.5,25.5 Z"/></g>
<g><path style="opacity:1" fill="#bba2e0" d="M 68.5,31.5 C 69.6005,32.6049 70.2671,33.9382 70.5,35.5C 70.6495,36.552 70.4828,37.552 70,38.5C 69.2917,37.6195 68.4584,36.9528 67.5,36.5C 67.67,35.1779 67.3366,34.0113 66.5,33C 67.0442,32.2828 67.7109,31.7828 68.5,31.5 Z"/></g>
<g><path style="opacity:1" fill="#7f61a1" d="M 150.5,41.5 C 149.833,43.1667 149.167,44.8333 148.5,46.5C 144.796,42.3726 140.129,40.3726 134.5,40.5C 131.941,40.1984 129.607,40.5318 127.5,41.5C 124.99,41.9267 122.657,42.5933 120.5,43.5C 118.143,43.3367 115.81,43.5034 113.5,44C 109.855,45.9779 106.021,47.4779 102,48.5C 100.697,48.0217 99.5307,47.355 98.5,46.5C 98.5,46.1667 98.5,45.8333 98.5,45.5C 101.009,43.8428 103.175,44.1762 105,46.5C 106.856,45.0999 108.689,43.7665 110.5,42.5C 117.636,37.0742 125.636,33.7409 134.5,32.5C 141.303,32.9013 146.637,35.9013 150.5,41.5 Z"/></g>
<g><path style="opacity:1" fill="#6d577f" d="M 154.5,22.5 C 154.539,23.5832 154.873,24.5832 155.5,25.5C 153.771,26.5968 152.104,27.7635 150.5,29C 154.167,29.3333 157.833,29.6667 161.5,30C 165.612,34.3911 169.112,39.2245 172,44.5C 175.195,53.3056 177.695,62.3056 179.5,71.5C 177.554,69.2931 175.388,67.2931 173,65.5C 172.5,67 172,68.5 171.5,70C 172.856,71.5671 173.523,73.4004 173.5,75.5C 171.712,75.2148 170.045,75.5481 168.5,76.5C 168.709,77.086 169.043,77.586 169.5,78C 166.997,79.22 164.331,79.5533 161.5,79C 164.276,80.7787 163.943,81.7787 160.5,82C 161.737,82.2321 162.737,82.7321 163.5,83.5C 162.508,83.3284 161.842,83.6618 161.5,84.5C 159.167,83.8333 156.833,83.1667 154.5,82.5C 157.462,79.0359 160.629,75.7025 164,72.5C 165.707,70.0912 166.54,67.4245 166.5,64.5C 167.338,64.1583 167.672,63.4916 167.5,62.5C 168.643,59.0242 168.81,55.3575 168,51.5C 167.667,51.1667 167.333,50.8333 167,50.5C 166.184,51.8228 165.017,52.4894 163.5,52.5C 161.478,50.4687 159.811,48.1354 158.5,45.5C 159.167,45.5 159.833,45.5 160.5,45.5C 161.043,45.44 161.376,45.1067 161.5,44.5C 157.02,37.3471 151.02,32.0138 143.5,28.5C 143.167,27.8333 142.833,27.1667 142.5,26.5C 143.167,26.5 143.5,26.1667 143.5,25.5C 147.753,26.1925 151.419,25.1925 154.5,22.5 Z"/></g>
<g><path style="opacity:1" fill="#ddceeb" d="M 118.5,22.5 C 119.613,23.9464 119.78,25.6131 119,27.5C 117.489,29.8616 115.989,32.1949 114.5,34.5C 111.333,37.498 108,40.3314 104.5,43C 101.033,43.3089 100.7,42.4756 103.5,40.5C 107.595,35.8461 112.095,31.5128 117,27.5C 117.608,25.8455 118.108,24.1789 118.5,22.5 Z"/></g>
<g><path style="opacity:1" fill="#190c2e" d="M 92.5,15.5 C 93.3382,15.8417 93.6716,16.5084 93.5,17.5C 91.8861,19.4559 90.2194,21.4559 88.5,23.5C 84.4401,27.2924 81.1068,31.6257 78.5,36.5C 75.9895,33.384 75.9895,30.0506 78.5,26.5C 78.1667,26.1667 77.8333,25.8333 77.5,25.5C 75.457,26.5794 74.1237,28.246 73.5,30.5C 71.9547,31.4519 70.288,31.7852 68.5,31.5C 67.7109,31.7828 67.0442,32.2828 66.5,33C 67.3366,34.0113 67.67,35.1779 67.5,36.5C 65.1853,37.5439 63.1853,38.8772 61.5,40.5C 57.9539,42.7568 56.2872,46.0901 56.5,50.5C 55.5269,52.9479 55.1936,55.6146 55.5,58.5C 54.4455,54.6103 54.2788,50.6103 55,46.5C 46.5686,54.2591 38.9019,62.5925 32,71.5C 30.7688,75.2292 30.1021,78.8958 30,82.5C 24.114,87.9302 18.4473,93.5969 13,99.5C 12.2217,101.584 11.055,103.417 9.5,105C 9.95735,105.414 10.2907,105.914 10.5,106.5C 9.7261,107.711 8.89277,107.711 8,106.5C 5.96452,111.256 3.46452,115.589 0.5,119.5C 0.794717,117.265 0.461384,115.265 -0.5,113.5C -0.5,104.5 -0.5,95.5 -0.5,86.5C 0.484888,90.6344 0.818222,94.9677 0.5,99.5C 0.334989,102.85 0.501655,106.183 1,109.5C 6.89683,103.594 12.2302,96.5936 17,88.5C 17.3333,88.8333 17.6667,89.1667 18,89.5C 20,86.1667 22.6667,83.5 26,81.5C 27.5636,79.3348 27.3969,77.6681 25.5,76.5C 26.7602,73.9449 28.0936,71.4449 29.5,69C 29.1667,68.6667 28.8333,68.3333 28.5,68C 29.6587,66.1733 30.992,64.5067 32.5,63C 32.1667,62.6667 31.8333,62.3333 31.5,62C 32.6776,61.0331 34.011,60.5331 35.5,60.5C 36.2508,59.624 36.7508,58.624 37,57.5C 45.0184,50.9818 52.1851,43.6484 58.5,35.5C 57.2889,34.2798 57.2889,33.1131 58.5,32C 56.3808,31.6582 56.0474,30.8249 57.5,29.5C 58.973,28.2599 60.6396,27.2599 62.5,26.5C 64.4393,28.6176 66.606,28.951 69,27.5C 69.3879,28.428 70.0546,29.0946 71,29.5C 74.2829,27.9473 74.2829,26.2806 71,24.5C 69.187,25.6091 68.3537,24.9424 68.5,22.5C 69.552,22.6495 70.552,22.4828 71.5,22C 71.1667,21.6667 70.8333,21.3333 70.5,21C 71.9839,20.3378 73.3172,19.5045 74.5,18.5C 75.3149,19.4293 76.1482,20.4293 77,21.5C 78.9955,19.9496 81.1622,18.6162 83.5,17.5C 86.124,18.1156 88.2907,17.1156 90,14.5C 90.6708,15.2524 91.5041,15.5858 92.5,15.5 Z"/></g>
<g><path style="opacity:1" fill="#e2d7f2" d="M 70.5,35.5 C 71.2028,37.6287 72.2028,39.6287 73.5,41.5C 75.5567,43.0433 75.5567,44.0433 73.5,44.5C 70.3657,41.7689 66.699,40.4355 62.5,40.5C 62.1667,40.5 61.8333,40.5 61.5,40.5C 63.1853,38.8772 65.1853,37.5439 67.5,36.5C 68.4584,36.9528 69.2917,37.6195 70,38.5C 70.4828,37.552 70.6495,36.552 70.5,35.5 Z"/></g>
<g><path style="opacity:1" fill="#755da3" d="M 160.5,45.5 C 159.833,45.5 159.167,45.5 158.5,45.5C 153.669,40.8371 148.669,36.3371 143.5,32C 150.977,33.9521 156.644,38.4521 160.5,45.5 Z"/></g>
<g><path style="opacity:1" fill="#722499" d="M 243.5,32.5 C 243.5,33.5 243.5,34.5 243.5,35.5C 240.847,40.1346 238.181,44.8013 235.5,49.5C 234.021,47.5293 232.688,44.8627 231.5,41.5C 232.264,38.9823 233.264,36.649 234.5,34.5C 235.809,35.624 236.475,37.124 236.5,39C 235.497,41.4676 234.997,43.9676 235,46.5C 237.861,42.1122 240.194,37.4455 242,32.5C 242.69,31.2617 243.19,31.2617 243.5,32.5 Z"/></g>
<g><path style="opacity:1" fill="#9e87c0" d="M 114.5,34.5 C 114.5,35.1667 114.833,35.5 115.5,35.5C 113.409,37.4565 111.409,39.6232 109.5,42C 109.728,42.3988 110.062,42.5654 110.5,42.5C 108.689,43.7665 106.856,45.0999 105,46.5C 103.175,44.1762 101.009,43.8428 98.5,45.5C 98.5,44.8333 98.5,44.1667 98.5,43.5C 98.7959,41.597 99.4625,39.9303 100.5,38.5C 101.222,39.5511 102.222,40.2178 103.5,40.5C 100.7,42.4756 101.033,43.3089 104.5,43C 108,40.3314 111.333,37.498 114.5,34.5 Z"/></g>
<g><path style="opacity:1" fill="#604780" d="M 62.5,40.5 C 66.699,40.4355 70.3657,41.7689 73.5,44.5C 75.8952,45.7658 78.5619,46.4324 81.5,46.5C 83.3328,46.4146 84.6661,45.7479 85.5,44.5C 85.8333,44.5 86.1667,44.5 86.5,44.5C 86.369,45.2389 86.5357,45.9056 87,46.5C 89.919,45.8129 92.7523,44.8129 95.5,43.5C 96.1924,44.0253 96.6924,44.6919 97,45.5C 97.2784,44.5842 97.7784,43.9175 98.5,43.5C 98.5,44.1667 98.5,44.8333 98.5,45.5C 98.5,45.8333 98.5,46.1667 98.5,46.5C 97.4489,47.2223 96.7822,48.2223 96.5,49.5C 94.5446,48.6803 93.0446,47.6803 92,46.5C 87.3342,48.3367 82.5009,49.3367 77.5,49.5C 76.713,47.8958 75.3797,47.2291 73.5,47.5C 72.4324,46.5655 71.099,46.2322 69.5,46.5C 69.5,45.8333 69.1667,45.5 68.5,45.5C 65.1847,45.9717 62.8514,47.805 61.5,51C 60.8333,51.6667 60.1667,51.6667 59.5,51C 57.9851,46.8434 58.9851,43.3434 62.5,40.5 Z"/></g>
<g><path style="opacity:1" fill="#c9b3dd" d="M 78.5,37.5 C 79.4345,38.5676 79.7678,39.901 79.5,41.5C 80.9305,41.5792 82.2638,41.2458 83.5,40.5C 84.1757,41.6016 84.8423,42.6016 85.5,43.5C 85.5,43.8333 85.5,44.1667 85.5,44.5C 84.6661,45.7479 83.3328,46.4146 81.5,46.5C 78.5619,46.4324 75.8952,45.7658 73.5,44.5C 75.5567,44.0433 75.5567,43.0433 73.5,41.5C 73.3367,39.1432 73.5034,36.8098 74,34.5C 74.9533,36.4552 76.2866,38.1218 78,39.5C 78.4643,38.9056 78.631,38.2389 78.5,37.5 Z"/></g>
<g><path style="opacity:1" fill="#8f40ce" d="M 127.5,41.5 C 131.62,43.9753 134.287,47.642 135.5,52.5C 134.833,53.5 134.167,54.5 133.5,55.5C 131.435,55.4828 129.435,55.1495 127.5,54.5C 127.611,53.8826 127.944,53.3826 128.5,53C 123.716,50.9676 118.716,50.1343 113.5,50.5C 115.597,47.9473 117.93,45.614 120.5,43.5C 122.657,42.5933 124.99,41.9267 127.5,41.5 Z"/></g>
<g><path style="opacity:1" fill="#a38fb9" d="M 150.5,41.5 C 155.976,45.4125 160.309,50.4125 163.5,56.5C 163.137,57.1835 162.804,57.8501 162.5,58.5C 162.167,58.5 161.833,58.5 161.5,58.5C 161.167,57.5 160.5,56.8333 159.5,56.5C 155.892,53.2308 152.225,49.8975 148.5,46.5C 149.167,44.8333 149.833,43.1667 150.5,41.5 Z"/></g>
<g><path style="opacity:1" fill="#89739e" d="M 157.5,18.5 C 165.416,19.9539 171.416,24.2873 175.5,31.5C 175.337,33.8568 175.503,36.1902 176,38.5C 179.982,51.7598 183.315,65.0932 186,78.5C 184.92,76.0038 183.586,73.6705 182,71.5C 181.31,70.2617 180.81,70.2617 180.5,71.5C 180.167,71.5 179.833,71.5 179.5,71.5C 177.695,62.3056 175.195,53.3056 172,44.5C 169.112,39.2245 165.612,34.3911 161.5,30C 157.833,29.6667 154.167,29.3333 150.5,29C 152.104,27.7635 153.771,26.5968 155.5,25.5C 154.873,24.5832 154.539,23.5832 154.5,22.5C 155.512,21.1283 156.512,19.795 157.5,18.5 Z"/></g>
<g><path style="opacity:1" fill="#922fc6" d="M 231.5,41.5 C 232.688,44.8627 234.021,47.5293 235.5,49.5C 234.142,52.874 232.809,56.2073 231.5,59.5C 229.138,62.8735 227.138,66.5402 225.5,70.5C 224.833,70.5 224.167,70.5 223.5,70.5C 225.109,67.8593 226.443,65.026 227.5,62C 227.105,59.7516 226.105,57.9183 224.5,56.5C 226.562,51.3752 228.896,46.3752 231.5,41.5 Z"/></g>
<g><path style="opacity:1" fill="#240835" d="M 243.5,35.5 C 243.5,39.1667 243.5,42.8333 243.5,46.5C 241.501,52.4124 239.501,58.4124 237.5,64.5C 237.5,65.1667 237.167,65.5 236.5,65.5C 235.766,64.2921 235.433,62.9587 235.5,61.5C 233.517,61.8432 232.183,61.1765 231.5,59.5C 232.809,56.2073 234.142,52.874 235.5,49.5C 238.181,44.8013 240.847,40.1346 243.5,35.5 Z"/></g>
<g><path style="opacity:1" fill="#321414" d="M 220.5,1.5 C 226.214,2.59083 231.547,4.59083 236.5,7.5C 240.14,10.4729 243.473,13.8062 246.5,17.5C 252.888,26.5106 255.888,36.5106 255.5,47.5C 255.5,58.8333 255.5,70.1667 255.5,81.5C 254.833,81.8333 254.167,82.1667 253.5,82.5C 254.795,72.3718 254.795,62.3718 253.5,52.5C 252.393,56.8624 250.393,60.8624 247.5,64.5C 246.914,64.7093 246.414,65.0426 246,65.5C 245.751,64.376 245.251,63.376 244.5,62.5C 243.005,63.7053 241.672,63.7053 240.5,62.5C 242.144,57.3033 243.144,51.9699 243.5,46.5C 243.5,42.8333 243.5,39.1667 243.5,35.5C 243.5,34.5 243.5,33.5 243.5,32.5C 244.097,32.2648 244.43,31.7648 244.5,31C 243.933,27.3429 242.266,24.5096 239.5,22.5C 237.641,16.4563 234.307,11.2896 229.5,7C 228.906,6.53566 228.239,6.36899 227.5,6.5C 224.953,5.06643 222.619,3.39976 220.5,1.5 Z"/></g>
<g><path style="opacity:1" fill="#3f235f" d="M 96.5,49.5 C 97.4972,49.4701 98.1639,49.9701 98.5,51C 99.4826,53.9303 100.149,56.9303 100.5,60C 100.693,62.0081 100.026,63.5081 98.5,64.5C 97.1938,63.5326 96.5271,62.1993 96.5,60.5C 97.1032,58.3743 97.1032,56.0409 96.5,53.5C 95.1779,53.67 94.0113,53.3366 93,52.5C 92.6667,53.1667 92.3333,53.8333 92,54.5C 89.0011,53.5095 86.6677,54.5095 85,57.5C 84.3162,56.2161 84.4829,55.0495 85.5,54C 84.9056,53.5357 84.2389,53.369 83.5,53.5C 83.6106,51.3523 82.944,51.019 81.5,52.5C 79.517,52.1852 78.1837,51.1852 77.5,49.5C 82.5009,49.3367 87.3342,48.3367 92,46.5C 93.0446,47.6803 94.5446,48.6803 96.5,49.5 Z"/></g>
<g><path style="opacity:1" fill="#45236b" d="M 134.5,40.5 C 140.129,40.3726 144.796,42.3726 148.5,46.5C 152.225,49.8975 155.892,53.2308 159.5,56.5C 157.095,57.3981 155.095,58.8981 153.5,61C 152.552,61.4828 151.552,61.6495 150.5,61.5C 150.997,57.8377 149.831,54.8377 147,52.5C 146.536,53.0944 146.369,53.7611 146.5,54.5C 144.396,54.7989 142.396,54.4656 140.5,53.5C 140.709,52.914 141.043,52.414 141.5,52C 139.447,48.0258 137.114,44.1924 134.5,40.5 Z"/></g>
<g><path style="opacity:1" fill="#271746" d="M 69.5,46.5 C 71.099,46.2322 72.4324,46.5655 73.5,47.5C 73.5,48.1667 73.5,48.8333 73.5,49.5C 72.6981,50.9516 72.1981,52.6183 72,54.5C 71.6667,54.1667 71.3333,53.8333 71,53.5C 68.3248,56.2094 65.6581,58.8761 63,61.5C 62.6174,60.944 62.1174,60.6107 61.5,60.5C 62.8452,55.1366 65.5119,50.4699 69.5,46.5 Z"/></g>
<g><path style="opacity:1" fill="#7d639a" d="M 61.5,40.5 C 61.8333,40.5 62.1667,40.5 62.5,40.5C 58.9851,43.3434 57.9851,46.8434 59.5,51C 60.1667,51.6667 60.8333,51.6667 61.5,51C 62.8514,47.805 65.1847,45.9717 68.5,45.5C 64.7601,49.3105 61.7601,53.6439 59.5,58.5C 59.0276,56.4687 58.0276,54.8021 56.5,53.5C 56.5,52.5 56.5,51.5 56.5,50.5C 56.2872,46.0901 57.9539,42.7568 61.5,40.5 Z"/></g>
<g><path style="opacity:1" fill="#b09acb" d="M 178.5,29.5 C 178.884,34.0373 180.051,38.3707 182,42.5C 182.333,40.8333 182.667,39.1667 183,37.5C 183.333,37.8333 183.667,38.1667 184,38.5C 185.513,45.8271 186.68,53.1605 187.5,60.5C 187.665,63.5184 187.498,66.5184 187,69.5C 183.802,59.5707 180.802,49.5707 178,39.5C 177.192,35.9733 177.359,32.6399 178.5,29.5 Z"/></g>
<g><path style="opacity:1" fill="#ded4e4" d="M 68.5,45.5 C 69.1667,45.5 69.5,45.8333 69.5,46.5C 65.5119,50.4699 62.8452,55.1366 61.5,60.5C 60.8339,63.6893 60.1672,67.0227 59.5,70.5C 58.5713,69.3112 58.238,67.9778 58.5,66.5C 58.8333,63.8333 59.1667,61.1667 59.5,58.5C 61.7601,53.6439 64.7601,49.3105 68.5,45.5 Z"/></g>
<g><path style="opacity:1" fill="#843fa7" d="M 73.5,47.5 C 75.3797,47.2291 76.713,47.8958 77.5,49.5C 78.1837,51.1852 79.517,52.1852 81.5,52.5C 82.944,51.019 83.6106,51.3523 83.5,53.5C 83.5,54.1667 83.1667,54.5 82.5,54.5C 79.5983,52.8846 77.265,53.5512 75.5,56.5C 74.5933,54.3432 73.9267,52.0098 73.5,49.5C 73.5,48.8333 73.5,48.1667 73.5,47.5 Z"/></g>
<g><path style="opacity:1" fill="#fef2fe" d="M 127.5,54.5 C 127.5,55.5 127.5,56.5 127.5,57.5C 124.886,57.0684 122.22,56.7351 119.5,56.5C 116.708,56.7606 114.375,57.7606 112.5,59.5C 111.5,59.5 110.5,59.5 109.5,59.5C 109.457,56.9122 108.457,54.7456 106.5,53C 108.579,52.1923 110.579,52.359 112.5,53.5C 111.674,54.451 111.508,55.451 112,56.5C 115.878,51.525 120.212,51.1917 125,55.5C 125.671,54.7476 126.504,54.4142 127.5,54.5 Z"/></g>
<g><path style="opacity:1" fill="#c2b4d3" d="M 190.5,35.5 C 193.237,38.9831 194.903,42.9831 195.5,47.5C 195.674,54.5352 195.341,61.5352 194.5,68.5C 194.737,69.791 194.404,70.791 193.5,71.5C 194.195,59.8908 192.528,48.7241 188.5,38C 189.509,37.6454 190.176,36.8121 190.5,35.5 Z"/></g>
<g><path style="opacity:1" fill="#eb9df5" d="M 82.5,54.5 C 82.5,55.1667 82.5,55.8333 82.5,56.5C 79.8026,54.9546 77.8026,55.6213 76.5,58.5C 75.6618,58.1583 75.3284,57.4916 75.5,56.5C 77.265,53.5512 79.5983,52.8846 82.5,54.5 Z"/></g>
<g><path style="opacity:1" fill="#f5ebf7" d="M 82.5,56.5 C 82.5,58.1667 82.5,59.8333 82.5,61.5C 82.1667,61.5 81.8333,61.5 81.5,61.5C 79.8333,61.5 78.1667,61.5 76.5,61.5C 76.5,60.5 76.5,59.5 76.5,58.5C 77.8026,55.6213 79.8026,54.9546 82.5,56.5 Z"/></g>
<g><path style="opacity:1" fill="#a294b4" d="M 56.5,53.5 C 58.0276,54.8021 59.0276,56.4687 59.5,58.5C 59.1667,61.1667 58.8333,63.8333 58.5,66.5C 58.1667,66.5 57.8333,66.5 57.5,66.5C 57.5,66.1667 57.5,65.8333 57.5,65.5C 56.6403,61.5662 56.307,57.5662 56.5,53.5 Z"/></g>
<g><path style="opacity:1" fill="#3b2553" d="M 96.5,60.5 C 96.5271,62.1993 97.1938,63.5326 98.5,64.5C 100.042,65.1635 101.709,65.8302 103.5,66.5C 101.581,67.6125 99.9142,68.9458 98.5,70.5C 97.8333,70.5 97.1667,70.5 96.5,70.5C 96.9528,69.5416 97.6195,68.7083 98.5,68C 96.5,67.6667 94.5,67.3333 92.5,67C 91.8742,66.2496 91.3742,65.4162 91,64.5C 88.1476,64.2975 85.3142,64.9641 82.5,66.5C 82.5,64.8333 82.5,63.1667 82.5,61.5C 82.5,59.8333 82.5,58.1667 82.5,56.5C 82.5,55.8333 82.5,55.1667 82.5,54.5C 83.1667,54.5 83.5,54.1667 83.5,53.5C 84.2389,53.369 84.9056,53.5357 85.5,54C 84.4829,55.0495 84.3162,56.2161 85,57.5C 86.6677,54.5095 89.0011,53.5095 92,54.5C 92.3333,53.8333 92.6667,53.1667 93,52.5C 94.0113,53.3366 95.1779,53.67 96.5,53.5C 97.1032,56.0409 97.1032,58.3743 96.5,60.5 Z"/></g>
<g><path style="opacity:1" fill="#f3a2fe" d="M 127.5,54.5 C 129.435,55.1495 131.435,55.4828 133.5,55.5C 134.338,55.8417 134.672,56.5084 134.5,57.5C 132.097,57.448 129.764,57.7814 127.5,58.5C 127.5,58.1667 127.5,57.8333 127.5,57.5C 127.5,56.5 127.5,55.5 127.5,54.5 Z"/></g>
<g><path style="opacity:1" fill="#44265a" d="M 159.5,56.5 C 160.5,56.8333 161.167,57.5 161.5,58.5C 160.01,60.2798 158.01,60.9465 155.5,60.5C 155.5,61.8333 155.5,63.1667 155.5,64.5C 154.849,63.9094 154.182,63.2427 153.5,62.5C 153.167,63.1667 152.833,63.8333 152.5,64.5C 154.108,72.1156 153.108,72.4489 149.5,65.5C 148.516,68.4281 148.183,71.4281 148.5,74.5C 148.5,75.8333 148.5,77.1667 148.5,78.5C 147.514,74.03 147.181,69.3633 147.5,64.5C 149.093,60.8541 148.76,57.5207 146.5,54.5C 146.369,53.7611 146.536,53.0944 147,52.5C 149.831,54.8377 150.997,57.8377 150.5,61.5C 151.552,61.6495 152.552,61.4828 153.5,61C 155.095,58.8981 157.095,57.3981 159.5,56.5 Z"/></g>
<g><path style="opacity:1" fill="#ec96fa" d="M 113.5,50.5 C 118.716,50.1343 123.716,50.9676 128.5,53C 127.944,53.3826 127.611,53.8826 127.5,54.5C 126.504,54.4142 125.671,54.7476 125,55.5C 120.212,51.1917 115.878,51.525 112,56.5C 111.508,55.451 111.674,54.451 112.5,53.5C 110.579,52.359 108.579,52.1923 106.5,53C 108.457,54.7456 109.457,56.9122 109.5,59.5C 110.5,59.5 111.5,59.5 112.5,59.5C 117.181,59.3314 121.848,58.9981 126.5,58.5C 126.5,59.1667 126.167,59.5 125.5,59.5C 122.441,59.7862 119.441,60.7862 116.5,62.5C 116.657,63.8734 116.49,65.2068 116,66.5C 114.283,65.0118 113.116,63.1785 112.5,61C 110.527,60.5045 108.527,60.3379 106.5,60.5C 105.957,60.44 105.624,60.1067 105.5,59.5C 106.376,58.7492 107.376,58.2492 108.5,58C 107.747,56.513 106.914,56.3463 106,57.5C 105.505,55.5273 105.338,53.5273 105.5,51.5C 108.237,51.5987 110.904,51.2653 113.5,50.5 Z"/></g>
<g><path style="opacity:1" fill="#fed5ff" d="M 127.5,57.5 C 127.5,57.8333 127.5,58.1667 127.5,58.5C 127.167,58.5 126.833,58.5 126.5,58.5C 121.848,58.9981 117.181,59.3314 112.5,59.5C 114.375,57.7606 116.708,56.7606 119.5,56.5C 122.22,56.7351 124.886,57.0684 127.5,57.5 Z"/></g>
<g><path style="opacity:1" fill="#622f9a" d="M 127.5,41.5 C 129.607,40.5318 131.941,40.1984 134.5,40.5C 137.114,44.1924 139.447,48.0258 141.5,52C 141.043,52.414 140.709,52.914 140.5,53.5C 142.396,54.4656 144.396,54.7989 146.5,54.5C 146.76,58.9938 145.427,62.8271 142.5,66C 143.459,68.1199 143.626,70.2865 143,72.5C 142.64,70.3921 141.973,68.3921 141,66.5C 140.329,67.2524 139.496,67.5858 138.5,67.5C 140.594,65.5261 142.594,63.3594 144.5,61C 144.022,59.3576 143.022,58.1909 141.5,57.5C 138.224,57.2153 136.224,55.5487 135.5,52.5C 134.287,47.642 131.62,43.9753 127.5,41.5 Z"/></g>
<g><path style="opacity:1" fill="#944e9d" d="M 167.5,62.5 C 166.214,59.2441 164.88,55.9108 163.5,52.5C 165.017,52.4894 166.184,51.8228 167,50.5C 167.333,50.8333 167.667,51.1667 168,51.5C 168.81,55.3575 168.643,59.0242 167.5,62.5 Z"/></g>
<g><path style="opacity:1" fill="#af66e6" d="M 135.5,52.5 C 136.224,55.5487 138.224,57.2153 141.5,57.5C 141.623,61.0399 139.957,63.0399 136.5,63.5C 135.833,61.5 135.167,59.5 134.5,57.5C 134.672,56.5084 134.338,55.8417 133.5,55.5C 134.167,54.5 134.833,53.5 135.5,52.5 Z"/></g>
<g><path style="opacity:1" fill="#37104e" d="M 231.5,59.5 C 232.183,61.1765 233.517,61.8432 235.5,61.5C 235.433,62.9587 235.766,64.2921 236.5,65.5C 236.461,66.5832 236.127,67.5832 235.5,68.5C 233.369,69.1687 231.369,69.8354 229.5,70.5C 228.167,70.5 226.833,70.5 225.5,70.5C 227.138,66.5402 229.138,62.8735 231.5,59.5 Z"/></g>
<g><path style="opacity:1" fill="#674634" d="M 243.5,46.5 C 243.144,51.9699 242.144,57.3033 240.5,62.5C 239.833,63.1667 239.167,63.8333 238.5,64.5C 238.167,64.5 237.833,64.5 237.5,64.5C 239.501,58.4124 241.501,52.4124 243.5,46.5 Z"/></g>
<g><path style="opacity:1" fill="#e494f0" d="M 76.5,61.5 C 78.1667,61.5 79.8333,61.5 81.5,61.5C 81.853,63.6348 81.0197,64.9681 79,65.5C 77.2509,65.2517 76.4176,64.2517 76.5,62.5C 76.5,62.1667 76.5,61.8333 76.5,61.5 Z"/></g>
<g><path style="opacity:1" fill="#907588" d="M 96.5,60.5 C 95.5207,61.7653 94.5207,63.0986 93.5,64.5C 92.0042,61.825 92.6708,59.825 95.5,58.5C 96.2975,58.9569 96.6309,59.6236 96.5,60.5 Z"/></g>
<g><path style="opacity:1" fill="#492b78" d="M 222.5,59.5 C 221.833,60.8333 221.167,62.1667 220.5,63.5C 216.099,64.4056 212.099,66.0723 208.5,68.5C 207.508,68.3284 206.842,68.6618 206.5,69.5C 204.461,70.911 203.461,72.911 203.5,75.5C 202.226,73.0834 200.726,70.75 199,68.5C 197.284,69.5523 196.284,68.8856 196,66.5C 195.722,67.4158 195.222,68.0825 194.5,68.5C 195.341,61.5352 195.674,54.5352 195.5,47.5C 196.434,46.4324 196.768,45.099 196.5,43.5C 197.833,43.5 199.167,43.5 200.5,43.5C 200.351,44.552 200.517,45.552 201,46.5C 203.854,48.5977 206.521,50.931 209,53.5C 209.561,52.9781 210.228,52.6448 211,52.5C 212.752,53.958 214.585,55.2913 216.5,56.5C 215.624,57.2508 214.624,57.7508 213.5,58C 216.432,58.9533 219.432,59.4533 222.5,59.5 Z"/></g>
<g><path style="opacity:1" fill="#65348e" d="M 120.5,43.5 C 117.93,45.614 115.597,47.9473 113.5,50.5C 110.904,51.2653 108.237,51.5987 105.5,51.5C 104.518,50.8592 103.518,50.1925 102.5,49.5C 101.185,53.1358 101.518,56.6358 103.5,60C 103.05,61.2853 102.383,62.452 101.5,63.5C 102.689,64.4287 104.022,64.762 105.5,64.5C 105.5,66.1667 105.5,67.8333 105.5,69.5C 104.833,69.5 104.5,69.8333 104.5,70.5C 103.167,70.5 101.833,70.5 100.5,70.5C 99.8333,70.5 99.1667,70.5 98.5,70.5C 99.9142,68.9458 101.581,67.6125 103.5,66.5C 101.709,65.8302 100.042,65.1635 98.5,64.5C 100.026,63.5081 100.693,62.0081 100.5,60C 100.149,56.9303 99.4826,53.9303 98.5,51C 98.1639,49.9701 97.4972,49.4701 96.5,49.5C 96.7822,48.2223 97.4489,47.2223 98.5,46.5C 99.5307,47.355 100.697,48.0217 102,48.5C 106.021,47.4779 109.855,45.9779 113.5,44C 115.81,43.5034 118.143,43.3367 120.5,43.5 Z"/></g>
<g><path style="opacity:1" fill="#582f87" d="M 146.5,54.5 C 148.76,57.5207 149.093,60.8541 147.5,64.5C 146.463,65.9303 145.796,67.597 145.5,69.5C 145.192,74.1478 143.692,78.4812 141,82.5C 139.101,79.3344 137.267,76.3344 135.5,73.5C 136.123,71.2895 137.123,69.2895 138.5,67.5C 139.496,67.5858 140.329,67.2524 141,66.5C 141.973,68.3921 142.64,70.3921 143,72.5C 143.626,70.2865 143.459,68.1199 142.5,66C 145.427,62.8271 146.76,58.9938 146.5,54.5 Z"/></g>
<g><path style="opacity:1" fill="#a97956" d="M 220.5,63.5 C 220.672,64.4916 220.338,65.1583 219.5,65.5C 216.533,65.9886 213.867,67.1552 211.5,69C 213.382,69.1981 215.048,69.6981 216.5,70.5C 213.583,70.6349 210.916,69.9682 208.5,68.5C 212.099,66.0723 216.099,64.4056 220.5,63.5 Z"/></g>
<g><path style="opacity:1" fill="#643281" d="M 161.5,58.5 C 161.833,58.5 162.167,58.5 162.5,58.5C 163.752,60.0009 164.752,61.6675 165.5,63.5C 164.624,63.3691 163.957,63.7025 163.5,64.5C 161.628,69.7405 158.628,74.2405 154.5,78C 153.231,77.8915 152.231,78.0582 151.5,78.5C 150.508,78.3284 149.842,78.6618 149.5,79.5C 149.167,79.5 148.833,79.5 148.5,79.5C 148.5,79.1667 148.5,78.8333 148.5,78.5C 148.5,77.1667 148.5,75.8333 148.5,74.5C 150.288,74.7852 151.955,74.4519 153.5,73.5C 154.347,72.1552 155.513,71.1552 157,70.5C 157.743,68.1261 157.243,66.1261 155.5,64.5C 155.5,63.1667 155.5,61.8333 155.5,60.5C 158.01,60.9465 160.01,60.2798 161.5,58.5 Z"/></g>
<g><path style="opacity:1" fill="#1b130f" d="M 219.5,65.5 C 218.833,67.1667 218.167,68.8333 217.5,70.5C 217.167,70.5 216.833,70.5 216.5,70.5C 215.048,69.6981 213.382,69.1981 211.5,69C 213.867,67.1552 216.533,65.9886 219.5,65.5 Z"/></g>
<g><path style="opacity:1" fill="#9f55bd" d="M 81.5,61.5 C 81.8333,61.5 82.1667,61.5 82.5,61.5C 82.5,63.1667 82.5,64.8333 82.5,66.5C 81.6236,66.3691 80.9569,66.7025 80.5,67.5C 78.8821,73.7253 76.8821,73.7253 74.5,67.5C 74.4021,65.4471 75.0687,63.7804 76.5,62.5C 76.4176,64.2517 77.2509,65.2517 79,65.5C 81.0197,64.9681 81.853,63.6348 81.5,61.5 Z"/></g>
<g><path style="opacity:1" fill="#671e8e" d="M 224.5,56.5 C 226.105,57.9183 227.105,59.7516 227.5,62C 226.443,65.026 225.109,67.8593 223.5,70.5C 221.5,70.5 219.5,70.5 217.5,70.5C 218.167,68.8333 218.833,67.1667 219.5,65.5C 220.338,65.1583 220.672,64.4916 220.5,63.5C 221.167,62.1667 221.833,60.8333 222.5,59.5C 222.932,58.2905 223.599,57.2905 224.5,56.5 Z"/></g>
<g><path style="opacity:1" fill="#1b0e2a" d="M 96.5,70.5 C 94.7117,70.9705 92.8784,71.3038 91,71.5C 88.4098,71.0552 85.9098,70.3886 83.5,69.5C 82.8902,68.609 82.5569,67.609 82.5,66.5C 85.3142,64.9641 88.1476,64.2975 91,64.5C 91.3742,65.4162 91.8742,66.2496 92.5,67C 94.5,67.3333 96.5,67.6667 98.5,68C 97.6195,68.7083 96.9528,69.5416 96.5,70.5 Z"/></g>
<g><path style="opacity:1" fill="#281632" d="M 155.5,64.5 C 157.243,66.1261 157.743,68.1261 157,70.5C 155.513,71.1552 154.347,72.1552 153.5,73.5C 151.955,74.4519 150.288,74.7852 148.5,74.5C 148.183,71.4281 148.516,68.4281 149.5,65.5C 153.108,72.4489 154.108,72.1156 152.5,64.5C 152.833,63.8333 153.167,63.1667 153.5,62.5C 154.182,63.2427 154.849,63.9094 155.5,64.5 Z"/></g>
<g><path style="opacity:1" fill="#cb90e5" d="M 83.5,69.5 C 84.1667,70.1667 84.8333,70.8333 85.5,71.5C 85.6716,72.4916 85.3382,73.1583 84.5,73.5C 84.5654,73.0618 84.3988,72.7284 84,72.5C 83.1841,73.8228 82.0174,74.4894 80.5,74.5C 80.5923,72.1523 81.5923,70.4856 83.5,69.5 Z"/></g>
<g><path style="opacity:1" fill="#e79efb" d="M 116.5,74.5 C 112.208,72.6313 111.208,73.2979 113.5,76.5C 113.167,76.5 112.833,76.5 112.5,76.5C 109.304,75.0713 106.304,73.4046 103.5,71.5C 104.167,71.5 104.5,71.1667 104.5,70.5C 104.5,69.8333 104.833,69.5 105.5,69.5C 107.776,69.2435 108.943,67.9102 109,65.5C 111.335,68.6653 113.835,71.6653 116.5,74.5 Z"/></g>
<g><path style="opacity:1" fill="#e6b886" d="M 208.5,68.5 C 210.916,69.9682 213.583,70.6349 216.5,70.5C 216.833,70.5 217.167,70.5 217.5,70.5C 219.5,70.5 221.5,70.5 223.5,70.5C 224.167,70.5 224.833,70.5 225.5,70.5C 226.833,70.5 228.167,70.5 229.5,70.5C 231.199,70.3398 232.866,70.5065 234.5,71C 233.584,71.2784 232.918,71.7784 232.5,72.5C 226.591,73.4553 220.591,73.7886 214.5,73.5C 211.079,73.4824 208.412,72.149 206.5,69.5C 206.842,68.6618 207.508,68.3284 208.5,68.5 Z"/></g>
<g><path style="opacity:1" fill="#1f0e08" d="M 253.5,52.5 C 254.795,62.3718 254.795,72.3718 253.5,82.5C 247.506,95.1642 240.506,107.164 232.5,118.5C 224.525,119.276 216.525,119.61 208.5,119.5C 208.167,119.5 207.833,119.5 207.5,119.5C 209.137,115.882 211.137,112.549 213.5,109.5C 216.39,106.078 219.057,102.411 221.5,98.5C 223.332,99.2485 224.999,100.248 226.5,101.5C 227.833,100.167 229.167,100.167 230.5,101.5C 239.845,88.4761 247.345,74.4761 253,59.5C 253.497,57.1902 253.663,54.8568 253.5,52.5 Z"/></g>
<g><path style="opacity:1" fill="#4b2674" d="M 83.5,69.5 C 85.9098,70.3886 88.4098,71.0552 91,71.5C 92.8784,71.3038 94.7117,70.9705 96.5,70.5C 97.1667,70.5 97.8333,70.5 98.5,70.5C 96.0342,72.3415 93.3675,74.0082 90.5,75.5C 88.2127,74.8733 86.546,73.54 85.5,71.5C 84.8333,70.8333 84.1667,70.1667 83.5,69.5 Z"/></g>
<g><path style="opacity:1" fill="#5e486d" d="M 179.5,71.5 C 179.833,71.5 180.167,71.5 180.5,71.5C 180.833,72.8333 181.167,74.1667 181.5,75.5C 180.255,78.5355 180.255,81.8688 181.5,85.5C 179.278,85.822 177.444,85.1554 176,83.5C 174.591,84.7811 173.091,85.7811 171.5,86.5C 168.833,85.5 166.167,84.5 163.5,83.5C 162.737,82.7321 161.737,82.2321 160.5,82C 163.943,81.7787 164.276,80.7787 161.5,79C 164.331,79.5533 166.997,79.22 169.5,78C 169.043,77.586 168.709,77.086 168.5,76.5C 170.045,75.5481 171.712,75.2148 173.5,75.5C 173.523,73.4004 172.856,71.5671 171.5,70C 172,68.5 172.5,67 173,65.5C 175.388,67.2931 177.554,69.2931 179.5,71.5 Z"/></g>
<g><path style="opacity:1" fill="#68388f" d="M 133.5,77.5 C 134.557,93.0613 132.724,93.3947 128,78.5C 127.667,78.1667 127.333,77.8333 127,77.5C 126.517,78.448 126.351,79.448 126.5,80.5C 125.495,77.637 124.995,74.637 125,71.5C 125.414,71.0426 125.914,70.7093 126.5,70.5C 128.173,72.0863 130.173,72.7529 132.5,72.5C 132.714,74.1439 132.38,75.6439 131.5,77C 132.094,77.4643 132.761,77.631 133.5,77.5 Z"/></g>
<g><path style="opacity:1" fill="#502c7e" d="M 82.5,66.5 C 82.5569,67.609 82.8902,68.609 83.5,69.5C 81.5923,70.4856 80.5923,72.1523 80.5,74.5C 80.1667,75.1667 79.8333,75.8333 79.5,76.5C 75.728,79.3603 72.3947,82.6936 69.5,86.5C 67.8151,80.8298 64.4817,79.4964 59.5,82.5C 57.7567,85.2616 57.4233,88.095 58.5,91C 57.8333,91.6667 57.1667,92.3333 56.5,93C 57.2291,95.0581 58.2291,96.8914 59.5,98.5C 59.1667,99.5 58.5,100.167 57.5,100.5C 53.0231,96.2599 51.8565,91.2599 54,85.5C 58.6247,77.1319 65.4581,72.7986 74.5,72.5C 74.5,71.5 74.5,70.5 74.5,69.5C 74.5,68.8333 74.5,68.1667 74.5,67.5C 76.8821,73.7253 78.8821,73.7253 80.5,67.5C 80.9569,66.7025 81.6236,66.3691 82.5,66.5 Z"/></g>
<g><path style="opacity:1" fill="#8a48b8" d="M 105.5,51.5 C 105.338,53.5273 105.505,55.5273 106,57.5C 106.914,56.3463 107.747,56.513 108.5,58C 107.376,58.2492 106.376,58.7492 105.5,59.5C 105.624,60.1067 105.957,60.44 106.5,60.5C 109.939,64.1152 113.273,67.9486 116.5,72C 118.657,72.0781 120.657,72.2448 122.5,72.5C 122.833,72.1667 123.167,71.8333 123.5,71.5C 119.255,67.4891 120.255,65.8224 126.5,66.5C 130.832,69.579 134.166,68.579 136.5,63.5C 139.957,63.0399 141.623,61.0399 141.5,57.5C 143.022,58.1909 144.022,59.3576 144.5,61C 142.594,63.3594 140.594,65.5261 138.5,67.5C 137.123,69.2895 136.123,71.2895 135.5,73.5C 134.833,74.8333 134.167,76.1667 133.5,77.5C 132.761,77.631 132.094,77.4643 131.5,77C 132.38,75.6439 132.714,74.1439 132.5,72.5C 130.173,72.7529 128.173,72.0863 126.5,70.5C 125.914,70.7093 125.414,71.0426 125,71.5C 124.995,74.637 125.495,77.637 126.5,80.5C 126.672,81.4916 126.338,82.1583 125.5,82.5C 122.5,79.8333 119.5,77.1667 116.5,74.5C 113.835,71.6653 111.335,68.6653 109,65.5C 108.943,67.9102 107.776,69.2435 105.5,69.5C 105.5,67.8333 105.5,66.1667 105.5,64.5C 104.022,64.762 102.689,64.4287 101.5,63.5C 102.383,62.452 103.05,61.2853 103.5,60C 101.518,56.6358 101.185,53.1358 102.5,49.5C 103.518,50.1925 104.518,50.8592 105.5,51.5 Z"/></g>
<g><path style="opacity:1" fill="#c462ed" d="M 134.5,57.5 C 135.167,59.5 135.833,61.5 136.5,63.5C 134.166,68.579 130.832,69.579 126.5,66.5C 125.22,65.0687 123.553,64.4021 121.5,64.5C 121.5,63.5 121.5,62.5 121.5,61.5C 123.483,61.8432 124.817,61.1765 125.5,59.5C 126.167,59.5 126.5,59.1667 126.5,58.5C 126.833,58.5 127.167,58.5 127.5,58.5C 129.764,57.7814 132.097,57.448 134.5,57.5 Z"/></g>
<g><path style="opacity:1" fill="#cb6fe9" d="M 125.5,59.5 C 124.817,61.1765 123.483,61.8432 121.5,61.5C 121.5,62.5 121.5,63.5 121.5,64.5C 123.553,64.4021 125.22,65.0687 126.5,66.5C 120.255,65.8224 119.255,67.4891 123.5,71.5C 123.167,71.8333 122.833,72.1667 122.5,72.5C 120.657,72.2448 118.657,72.0781 116.5,72C 113.273,67.9486 109.939,64.1152 106.5,60.5C 108.527,60.3379 110.527,60.5045 112.5,61C 113.116,63.1785 114.283,65.0118 116,66.5C 116.49,65.2068 116.657,63.8734 116.5,62.5C 119.441,60.7862 122.441,59.7862 125.5,59.5 Z"/></g>
<g><path style="opacity:1" fill="#cb77f2" d="M 100.5,70.5 C 101.833,70.5 103.167,70.5 104.5,70.5C 104.5,71.1667 104.167,71.5 103.5,71.5C 102.624,71.3691 101.957,71.7025 101.5,72.5C 102.77,73.2876 103.77,74.2876 104.5,75.5C 105.827,78.4707 107.16,81.4707 108.5,84.5C 107.508,84.6716 106.842,84.3382 106.5,83.5C 104.709,80.6789 102.209,78.6789 99,77.5C 98.7607,75.0405 99.2607,72.7072 100.5,70.5 Z"/></g>
<g><path style="opacity:1" fill="#c6b5df" d="M 147.5,64.5 C 147.181,69.3633 147.514,74.03 148.5,78.5C 148.5,78.8333 148.5,79.1667 148.5,79.5C 148.298,81.9496 148.631,84.283 149.5,86.5C 149.662,88.5273 149.495,90.5273 149,92.5C 146.965,84.9575 145.798,77.2909 145.5,69.5C 145.796,67.597 146.463,65.9303 147.5,64.5 Z"/></g>
<g><path style="opacity:1" fill="#3f236c" d="M 74.5,69.5 C 74.5,70.5 74.5,71.5 74.5,72.5C 65.4581,72.7986 58.6247,77.1319 54,85.5C 51.8565,91.2599 53.0231,96.2599 57.5,100.5C 54.8333,103.833 51.8333,106.833 48.5,109.5C 48.072,106.292 48.7387,103.125 50.5,100C 45.9395,92.565 46.1061,85.065 51,77.5C 54.5255,74.1997 58.3589,71.533 62.5,69.5C 66.0832,69.0509 69.2498,67.7176 72,65.5C 72.6082,67.0664 73.4415,68.3998 74.5,69.5 Z"/></g>
<g><path style="opacity:1" fill="#371d53" d="M 98.5,80.5 C 94.1161,80.1744 89.7828,80.5078 85.5,81.5C 90.3181,82.8124 94.9848,82.8124 99.5,81.5C 101.833,82.1667 104.167,82.8333 106.5,83.5C 106.842,84.3382 107.508,84.6716 108.5,84.5C 109.11,85.391 109.443,86.391 109.5,87.5C 109.167,87.5 108.833,87.5 108.5,87.5C 107.713,85.8958 106.38,85.2291 104.5,85.5C 100.966,83.9524 97.1327,83.2857 93,83.5C 90.1667,83.6667 87.3333,83.8333 84.5,84C 84,84.5 83.5,85 83,85.5C 83.7687,82.6454 84.2687,79.6454 84.5,76.5C 88.8839,76.1744 93.2172,76.5078 97.5,77.5C 98.1272,78.4168 98.4606,79.4168 98.5,80.5 Z"/></g>
<g><path style="opacity:1" fill="#783aa3" d="M 165.5,63.5 C 166.167,63.5 166.5,63.8333 166.5,64.5C 166.54,67.4245 165.707,70.0912 164,72.5C 160.629,75.7025 157.462,79.0359 154.5,82.5C 153.512,81.205 152.512,79.8717 151.5,78.5C 152.231,78.0582 153.231,77.8915 154.5,78C 158.628,74.2405 161.628,69.7405 163.5,64.5C 163.957,63.7025 164.624,63.3691 165.5,63.5 Z"/></g>
<g><path style="opacity:1" fill="#683f9f" d="M 203.5,75.5 C 204.167,75.5 204.5,75.8333 204.5,76.5C 202.335,82.9755 199.335,88.9755 195.5,94.5C 195.167,94.5 194.833,94.5 194.5,94.5C 193.857,86.8501 193.523,79.1834 193.5,71.5C 194.404,70.791 194.737,69.791 194.5,68.5C 195.222,68.0825 195.722,67.4158 196,66.5C 196.284,68.8856 197.284,69.5523 199,68.5C 200.726,70.75 202.226,73.0834 203.5,75.5 Z"/></g>
<g><path style="opacity:1" fill="#110705" d="M 205.5,78.5 C 206.117,78.6107 206.617,78.944 207,79.5C 207.667,81.5 207.667,83.5 207,85.5C 201.552,95.3966 196.386,105.397 191.5,115.5C 189.447,115.598 187.78,114.931 186.5,113.5C 186.5,113.167 186.5,112.833 186.5,112.5C 187.822,112.67 188.989,112.337 190,111.5C 196.287,100.931 201.453,89.9314 205.5,78.5 Z"/></g>
<g><path style="opacity:1" fill="#d4c3ba" d="M 149.5,79.5 C 149.842,78.6618 150.508,78.3284 151.5,78.5C 152.512,79.8717 153.512,81.205 154.5,82.5C 154.833,83.8333 155.167,85.1667 155.5,86.5C 155.649,87.552 155.483,88.552 155,89.5C 154.333,88.1667 153.333,87.1667 152,86.5C 151.508,85.451 151.674,84.451 152.5,83.5C 151.479,82.0986 150.479,80.7653 149.5,79.5 Z"/></g>
<g><path style="opacity:1" fill="#4d2e1e" d="M 232.5,72.5 C 231.144,77.5689 228.81,82.5689 225.5,87.5C 222.813,87.3359 220.146,87.5026 217.5,88C 216.619,88.7083 215.953,89.5416 215.5,90.5C 213.833,91.8333 212.167,93.1667 210.5,94.5C 212.178,91.4484 212.845,88.1151 212.5,84.5C 211.448,84.6495 210.448,84.4828 209.5,84C 211.05,80.4021 212.716,76.9021 214.5,73.5C 220.591,73.7886 226.591,73.4553 232.5,72.5 Z"/></g>
<g><path style="opacity:1" fill="#b1a4be" d="M 79.5,76.5 C 79.2969,78.0443 78.6302,79.3777 77.5,80.5C 77.8333,81.1667 78.1667,81.8333 78.5,82.5C 77.1128,84.21 75.7794,85.8767 74.5,87.5C 74.6309,86.6236 74.2975,85.9569 73.5,85.5C 71.8084,88.2308 70.1417,90.8975 68.5,93.5C 68.5,92.8333 68.1667,92.5 67.5,92.5C 69.0808,90.8583 69.7475,88.8583 69.5,86.5C 72.3947,82.6936 75.728,79.3603 79.5,76.5 Z"/></g>
<g><path style="opacity:1" fill="#6e3ca1" d="M 98.5,70.5 C 99.1667,70.5 99.8333,70.5 100.5,70.5C 99.2607,72.7072 98.7607,75.0405 99,77.5C 102.209,78.6789 104.709,80.6789 106.5,83.5C 104.167,82.8333 101.833,82.1667 99.5,81.5C 99.5,80.8333 99.1667,80.5 98.5,80.5C 98.4606,79.4168 98.1272,78.4168 97.5,77.5C 93.2172,76.5078 88.8839,76.1744 84.5,76.5C 84.2687,79.6454 83.7687,82.6454 83,85.5C 83.5,85 84,84.5 84.5,84C 87.3333,83.8333 90.1667,83.6667 93,83.5C 97.1327,83.2857 100.966,83.9524 104.5,85.5C 101.997,86.2555 99.6634,87.2555 97.5,88.5C 94.7814,88.6025 92.1147,88.2692 89.5,87.5C 87.1807,88.0639 84.8474,88.5639 82.5,89C 81.7734,90.3988 81.2734,91.8988 81,93.5C 80.51,92.2068 80.3433,90.8734 80.5,89.5C 81.6857,88.0387 81.6857,86.7054 80.5,85.5C 79.7418,80.7291 81.0751,76.7291 84.5,73.5C 85.3382,73.1583 85.6716,72.4916 85.5,71.5C 86.546,73.54 88.2127,74.8733 90.5,75.5C 93.3675,74.0082 96.0342,72.3415 98.5,70.5 Z"/></g>
<g><path style="opacity:1" fill="#170f1c" d="M 98.5,80.5 C 99.1667,80.5 99.5,80.8333 99.5,81.5C 94.9848,82.8124 90.3181,82.8124 85.5,81.5C 89.7828,80.5078 94.1161,80.1744 98.5,80.5 Z"/></g>
<g><path style="opacity:1" fill="#4e392e" d="M 148.5,79.5 C 148.833,79.5 149.167,79.5 149.5,79.5C 150.479,80.7653 151.479,82.0986 152.5,83.5C 151.674,84.451 151.508,85.451 152,86.5C 153.333,87.1667 154.333,88.1667 155,89.5C 155.483,88.552 155.649,87.552 155.5,86.5C 156.764,88.7721 156.598,91.1055 155,93.5C 153.312,91.8679 151.812,90.2012 150.5,88.5C 150.672,87.5084 150.338,86.8417 149.5,86.5C 148.631,84.283 148.298,81.9496 148.5,79.5 Z"/></g>
<g><path style="opacity:1" fill="#8d6849" d="M 237.5,64.5 C 237.833,64.5 238.167,64.5 238.5,64.5C 234.732,74.7023 229.899,84.369 224,93.5C 223.536,92.9056 223.369,92.2389 223.5,91.5C 224.167,90.1667 224.833,88.8333 225.5,87.5C 228.81,82.5689 231.144,77.5689 232.5,72.5C 232.918,71.7784 233.584,71.2784 234.5,71C 232.866,70.5065 231.199,70.3398 229.5,70.5C 231.369,69.8354 233.369,69.1687 235.5,68.5C 236.127,67.5832 236.461,66.5832 236.5,65.5C 237.167,65.5 237.5,65.1667 237.5,64.5 Z"/></g>
<g><path style="opacity:1" fill="#5a2f90" d="M 69.5,86.5 C 69.7475,88.8583 69.0808,90.8583 67.5,92.5C 64.8333,94.5 62.1667,96.5 59.5,98.5C 58.2291,96.8914 57.2291,95.0581 56.5,93C 57.1667,92.3333 57.8333,91.6667 58.5,91C 57.4233,88.095 57.7567,85.2616 59.5,82.5C 64.4817,79.4964 67.8151,80.8298 69.5,86.5 Z"/></g>
<g><path style="opacity:1" fill="#e5d4ee" d="M 116.5,74.5 C 119.5,77.1667 122.5,79.8333 125.5,82.5C 127.488,84.4649 128.988,86.7982 130,89.5C 131.011,90.3366 132.178,90.67 133.5,90.5C 135.577,94.9892 137.911,99.3226 140.5,103.5C 140.5,104.167 140.5,104.833 140.5,105.5C 138.943,107.185 138.11,109.852 138,113.5C 137.274,109.249 135.941,105.249 134,101.5C 132.812,107.778 132.312,114.112 132.5,120.5C 132.713,123.451 132.046,126.118 130.5,128.5C 130.812,117.624 130.312,106.624 129,95.5C 127.413,88.4881 123.913,82.6547 118.5,78C 117.563,77.3083 116.897,77.475 116.5,78.5C 115.5,77.8333 114.5,77.1667 113.5,76.5C 111.208,73.2979 112.208,72.6313 116.5,74.5 Z"/></g>
<g><path style="opacity:1" fill="#4d3c5b" d="M 181.5,75.5 C 183.592,78.681 185.925,81.681 188.5,84.5C 188.5,84.8333 188.5,85.1667 188.5,85.5C 188.783,91.4335 189.783,97.1002 191.5,102.5C 189.833,105.833 188.167,109.167 186.5,112.5C 186.5,112.833 186.5,113.167 186.5,113.5C 181.295,111.733 176.962,108.733 173.5,104.5C 175.833,101.167 178.167,97.8333 180.5,94.5C 180.833,93.8333 181.167,93.1667 181.5,92.5C 181.631,91.6236 181.298,90.9569 180.5,90.5C 177.356,89.4267 174.356,88.0934 171.5,86.5C 173.091,85.7811 174.591,84.7811 176,83.5C 177.444,85.1554 179.278,85.822 181.5,85.5C 180.255,81.8688 180.255,78.5355 181.5,75.5 Z"/></g>
<g><path style="opacity:1" fill="#cec5ca" d="M 161.5,84.5 C 161.842,83.6618 162.508,83.3284 163.5,83.5C 166.167,84.5 168.833,85.5 171.5,86.5C 174.356,88.0934 177.356,89.4267 180.5,90.5C 181.298,90.9569 181.631,91.6236 181.5,92.5C 179.421,92.0293 177.421,91.3627 175.5,90.5C 171.07,87.9517 166.403,85.9517 161.5,84.5 Z"/></g>
<g><path style="opacity:1" fill="#352058" d="M 73.5,49.5 C 73.9267,52.0098 74.5933,54.3432 75.5,56.5C 75.3284,57.4916 75.6618,58.1583 76.5,58.5C 76.5,59.5 76.5,60.5 76.5,61.5C 76.5,61.8333 76.5,62.1667 76.5,62.5C 75.0687,63.7804 74.4021,65.4471 74.5,67.5C 74.5,68.1667 74.5,68.8333 74.5,69.5C 73.4415,68.3998 72.6082,67.0664 72,65.5C 69.2498,67.7176 66.0832,69.0509 62.5,69.5C 58.3589,71.533 54.5255,74.1997 51,77.5C 46.1061,85.065 45.9395,92.565 50.5,100C 48.7387,103.125 48.072,106.292 48.5,109.5C 48.5,109.833 48.5,110.167 48.5,110.5C 44.6307,111.999 40.964,113.666 37.5,115.5C 33.7622,122.422 30.9289,129.755 29,137.5C 27.668,139.66 26.168,141.66 24.5,143.5C 16.1667,143.5 7.83333,143.5 -0.5,143.5C -0.5,143.167 -0.5,142.833 -0.5,142.5C 3.48136,140.649 7.48136,138.649 11.5,136.5C 14.4249,127.223 20.0916,120.223 28.5,115.5C 29.9722,112.195 32.3055,109.695 35.5,108C 35.1667,107.667 34.8333,107.333 34.5,107C 36.3211,105.257 38.3211,103.757 40.5,102.5C 39.0977,101.158 39.4311,100.324 41.5,100C 41.1667,99.6667 40.8333,99.3333 40.5,99C 42.4875,97.6811 43.6541,95.8477 44,93.5C 42.1937,81.1114 46.6937,72.1114 57.5,66.5C 57.8333,66.5 58.1667,66.5 58.5,66.5C 58.238,67.9778 58.5713,69.3112 59.5,70.5C 60.1672,67.0227 60.8339,63.6893 61.5,60.5C 62.1174,60.6107 62.6174,60.944 63,61.5C 65.6581,58.8761 68.3248,56.2094 71,53.5C 71.3333,53.8333 71.6667,54.1667 72,54.5C 72.1981,52.6183 72.6981,50.9516 73.5,49.5 Z"/></g>
<g><path style="opacity:1" fill="#45291c" d="M 253.5,52.5 C 253.663,54.8568 253.497,57.1902 253,59.5C 247.345,74.4761 239.845,88.4761 230.5,101.5C 229.167,100.167 227.833,100.167 226.5,101.5C 224.999,100.248 223.332,99.2485 221.5,98.5C 219.057,102.411 216.39,106.078 213.5,109.5C 216.33,103.17 219.663,97.1698 223.5,91.5C 223.369,92.2389 223.536,92.9056 224,93.5C 229.899,84.369 234.732,74.7023 238.5,64.5C 239.167,63.8333 239.833,63.1667 240.5,62.5C 241.672,63.7053 243.005,63.7053 244.5,62.5C 245.251,63.376 245.751,64.376 246,65.5C 246.414,65.0426 246.914,64.7093 247.5,64.5C 250.393,60.8624 252.393,56.8624 253.5,52.5 Z"/></g>
<g><path style="opacity:1" fill="#1f0f37" d="M 55.5,58.5 C 55.6068,60.3786 55.1068,60.7119 54,59.5C 48.1127,64.3914 42.6127,69.5581 37.5,75C 38.8031,78.4684 38.8031,81.9684 37.5,85.5C 34.4932,89.6682 31.3265,93.6682 28,97.5C 27,96.1667 26,96.1667 25,97.5C 23.37,101.059 21.37,104.392 19,107.5C 15.4355,109.445 12.6021,112.112 10.5,115.5C 9.16667,116.5 9.16667,117.5 10.5,118.5C 10.1543,119.696 9.65431,119.696 9,118.5C 8.52532,123.145 6.02532,125.811 1.5,126.5C 0.525774,124.257 0.192441,121.924 0.5,119.5C 3.46452,115.589 5.96452,111.256 8,106.5C 8.89277,107.711 9.7261,107.711 10.5,106.5C 10.2907,105.914 9.95735,105.414 9.5,105C 11.055,103.417 12.2217,101.584 13,99.5C 18.4473,93.5969 24.114,87.9302 30,82.5C 30.1021,78.8958 30.7688,75.2292 32,71.5C 38.9019,62.5925 46.5686,54.2591 55,46.5C 54.2788,50.6103 54.4455,54.6103 55.5,58.5 Z"/></g>
<g><path style="opacity:1" fill="#4f2b76" d="M 97.5,88.5 C 98.4345,89.5676 98.7678,90.901 98.5,92.5C 101.365,92.0548 103.865,92.7215 106,94.5C 107.289,92.3554 108.122,90.0221 108.5,87.5C 108.833,87.5 109.167,87.5 109.5,87.5C 109.5,91.8333 109.5,96.1667 109.5,100.5C 108.515,102.506 107.182,104.173 105.5,105.5C 102.675,99.6937 98.0083,96.027 91.5,94.5C 90.2867,94.7472 89.62,95.4138 89.5,96.5C 88.5,98.1667 87.1667,99.5 85.5,100.5C 84.8333,100.833 84.1667,101.167 83.5,101.5C 83.5,100.167 83.5,98.8333 83.5,97.5C 82.1779,97.67 81.0113,97.3366 80,96.5C 79.2042,93.9615 79.3709,91.6282 80.5,89.5C 80.3433,90.8734 80.51,92.2068 81,93.5C 81.2734,91.8988 81.7734,90.3988 82.5,89C 84.8474,88.5639 87.1807,88.0639 89.5,87.5C 92.1147,88.2692 94.7814,88.6025 97.5,88.5 Z"/></g>
<g><path style="opacity:1" fill="#2e1911" d="M 206.5,69.5 C 208.412,72.149 211.079,73.4824 214.5,73.5C 212.716,76.9021 211.05,80.4021 209.5,84C 210.448,84.4828 211.448,84.6495 212.5,84.5C 212.845,88.1151 212.178,91.4484 210.5,94.5C 206.258,101.982 202.258,109.649 198.5,117.5C 195.921,117.606 193.588,116.939 191.5,115.5C 196.386,105.397 201.552,95.3966 207,85.5C 207.667,83.5 207.667,81.5 207,79.5C 206.617,78.944 206.117,78.6107 205.5,78.5C 205.672,77.5084 205.338,76.8417 204.5,76.5C 204.5,75.8333 204.167,75.5 203.5,75.5C 203.461,72.911 204.461,70.911 206.5,69.5 Z"/></g>
<g><path style="opacity:1" fill="#9557c3" d="M 104.5,85.5 C 106.38,85.2291 107.713,85.8958 108.5,87.5C 108.122,90.0221 107.289,92.3554 106,94.5C 103.865,92.7215 101.365,92.0548 98.5,92.5C 98.7678,90.901 98.4345,89.5676 97.5,88.5C 99.6634,87.2555 101.997,86.2555 104.5,85.5 Z"/></g>
<g><path style="opacity:1" fill="#e3d6ec" d="M 147.5,113.5 C 146.736,110.982 145.736,108.649 144.5,106.5C 142.707,101.283 141.207,95.9496 140,90.5C 139.333,88.5 139.333,86.5 140,84.5C 143.109,89.8212 145.442,95.4879 147,101.5C 148.308,103.641 149.808,105.641 151.5,107.5C 150.998,108.521 150.332,108.688 149.5,108C 148.789,106.745 147.956,105.579 147,104.5C 147.583,107.316 148.416,110.149 149.5,113C 148.906,113.464 148.239,113.631 147.5,113.5 Z"/></g>
<g><path style="opacity:1" fill="#17120b" d="M 154.5,82.5 C 156.833,83.1667 159.167,83.8333 161.5,84.5C 166.403,85.9517 171.07,87.9517 175.5,90.5C 172.536,95.1314 168.869,99.1314 164.5,102.5C 161.94,104.273 159.607,106.273 157.5,108.5C 157.167,108.5 156.833,108.5 156.5,108.5C 153.491,102.139 151.491,95.472 150.5,88.5C 151.812,90.2012 153.312,91.8679 155,93.5C 156.598,91.1055 156.764,88.7721 155.5,86.5C 155.167,85.1667 154.833,83.8333 154.5,82.5 Z"/></g>
<g><path style="opacity:1" fill="#281642" d="M 56.5,50.5 C 56.5,51.5 56.5,52.5 56.5,53.5C 56.307,57.5662 56.6403,61.5662 57.5,65.5C 56.2876,64.7701 55.2876,63.7701 54.5,62.5C 50.5259,66.1384 46.5259,69.8051 42.5,73.5C 41.5539,76.6883 40.5539,80.1883 39.5,84C 39.5852,85.1074 39.9186,86.1074 40.5,87C 36.72,90.0211 34.22,93.8545 33,98.5C 31.6667,99.1667 30.3333,99.8333 29,100.5C 28.4641,102.869 27.2974,104.869 25.5,106.5C 24.1521,104.539 22.8187,104.372 21.5,106C 23.9621,107.85 23.4621,109.017 20,109.5C 18.887,110.76 18.7203,111.927 19.5,113C 15.1119,116.722 11.4452,121.055 8.5,126C 9.25668,127.512 10.2567,128.846 11.5,130C 9.23829,132.829 6.90495,132.996 4.5,130.5C 1.4306,138.476 -0.236071,138.142 -0.5,129.5C -0.5,124.167 -0.5,118.833 -0.5,113.5C 0.461384,115.265 0.794717,117.265 0.5,119.5C 0.192441,121.924 0.525774,124.257 1.5,126.5C 6.02532,125.811 8.52532,123.145 9,118.5C 9.65431,119.696 10.1543,119.696 10.5,118.5C 9.16667,117.5 9.16667,116.5 10.5,115.5C 12.6021,112.112 15.4355,109.445 19,107.5C 21.37,104.392 23.37,101.059 25,97.5C 26,96.1667 27,96.1667 28,97.5C 31.3265,93.6682 34.4932,89.6682 37.5,85.5C 38.8031,81.9684 38.8031,78.4684 37.5,75C 42.6127,69.5581 48.1127,64.3914 54,59.5C 55.1068,60.7119 55.6068,60.3786 55.5,58.5C 55.1936,55.6146 55.5269,52.9479 56.5,50.5 Z"/></g>
<g><path style="opacity:1" fill="#ccc4d6" d="M 74.5,87.5 C 70.3739,99.0817 65.7072,110.415 60.5,121.5C 59.0755,123.031 58.4088,122.698 58.5,120.5C 61.5026,113.162 64.5026,105.829 67.5,98.5C 68.4511,97.0813 68.7845,95.4147 68.5,93.5C 70.1417,90.8975 71.8084,88.2308 73.5,85.5C 74.2975,85.9569 74.6309,86.6236 74.5,87.5 Z"/></g>
<g><path style="opacity:1" fill="#9276aa" d="M 104.5,75.5 C 107.324,77.7996 109.157,80.7996 110,84.5C 110.817,90.0164 110.651,95.3497 109.5,100.5C 109.5,96.1667 109.5,91.8333 109.5,87.5C 109.443,86.391 109.11,85.391 108.5,84.5C 107.16,81.4707 105.827,78.4707 104.5,75.5 Z"/></g>
<g><path style="opacity:1" fill="#2d194b" d="M 57.5,65.5 C 57.5,65.8333 57.5,66.1667 57.5,66.5C 46.6937,72.1114 42.1937,81.1114 44,93.5C 43.6541,95.8477 42.4875,97.6811 40.5,99C 40.8333,99.3333 41.1667,99.6667 41.5,100C 39.4311,100.324 39.0977,101.158 40.5,102.5C 38.3211,103.757 36.3211,105.257 34.5,107C 34.8333,107.333 35.1667,107.667 35.5,108C 32.3055,109.695 29.9722,112.195 28.5,115.5C 20.0916,120.223 14.4249,127.223 11.5,136.5C 7.48136,138.649 3.48136,140.649 -0.5,142.5C -0.5,138.167 -0.5,133.833 -0.5,129.5C -0.236071,138.142 1.4306,138.476 4.5,130.5C 6.90495,132.996 9.23829,132.829 11.5,130C 10.2567,128.846 9.25668,127.512 8.5,126C 11.4452,121.055 15.1119,116.722 19.5,113C 18.7203,111.927 18.887,110.76 20,109.5C 23.4621,109.017 23.9621,107.85 21.5,106C 22.8187,104.372 24.1521,104.539 25.5,106.5C 27.2974,104.869 28.4641,102.869 29,100.5C 30.3333,99.8333 31.6667,99.1667 33,98.5C 34.22,93.8545 36.72,90.0211 40.5,87C 39.9186,86.1074 39.5852,85.1074 39.5,84C 40.5539,80.1883 41.5539,76.6883 42.5,73.5C 46.5259,69.8051 50.5259,66.1384 54.5,62.5C 55.2876,63.7701 56.2876,64.7701 57.5,65.5 Z"/></g>
<g><path style="opacity:1" fill="#b7a1c5" d="M 130.5,128.5 C 129.968,130.63 129.135,132.63 128,134.5C 128.533,129.346 128.366,124.346 127.5,119.5C 127.666,113.824 127.499,108.157 127,102.5C 126.302,99.9963 125.469,97.663 124.5,95.5C 124.66,93.8008 124.494,92.1341 124,90.5C 121.249,86.598 118.749,82.598 116.5,78.5C 116.897,77.475 117.563,77.3083 118.5,78C 123.913,82.6547 127.413,88.4881 129,95.5C 130.312,106.624 130.812,117.624 130.5,128.5 Z"/></g>
<g><path style="opacity:1" fill="#573a21" d="M 175.5,90.5 C 177.421,91.3627 179.421,92.0293 181.5,92.5C 181.167,93.1667 180.833,93.8333 180.5,94.5C 175.118,99.2167 169.451,103.55 163.5,107.5C 162.781,105.305 163.781,103.805 166.5,103C 165.906,102.536 165.239,102.369 164.5,102.5C 168.869,99.1314 172.536,95.1314 175.5,90.5 Z"/></g>
<g><path style="opacity:1" fill="#7f6b98" d="M 188.5,85.5 C 191.229,88.0322 193.229,91.0322 194.5,94.5C 194.833,94.5 195.167,94.5 195.5,94.5C 194.345,97.3283 193.011,99.9949 191.5,102.5C 189.783,97.1002 188.783,91.4335 188.5,85.5 Z"/></g>
<g><path style="opacity:1" fill="#7925a9" d="M 215.5,90.5 C 216.097,90.7352 216.43,91.2352 216.5,92C 212.683,98.4899 208.849,104.99 205,111.5C 202.943,113.728 200.776,115.728 198.5,117.5C 202.258,109.649 206.258,101.982 210.5,94.5C 212.167,93.1667 213.833,91.8333 215.5,90.5 Z"/></g>
<g><path style="opacity:1" fill="#f7f3fc" d="M 103.5,71.5 C 106.304,73.4046 109.304,75.0713 112.5,76.5C 118.992,84.2567 121.325,93.2567 119.5,103.5C 118.698,102.048 118.198,100.382 118,98.5C 116.296,103.334 114.962,108.334 114,113.5C 113.667,111.167 113.333,108.833 113,106.5C 112.667,106.833 112.333,107.167 112,107.5C 111.069,112.832 109.402,117.832 107,122.5C 107.158,118.541 107.325,114.541 107.5,110.5C 108.482,107.237 109.149,103.903 109.5,100.5C 110.651,95.3497 110.817,90.0164 110,84.5C 109.157,80.7996 107.324,77.7996 104.5,75.5C 103.77,74.2876 102.77,73.2876 101.5,72.5C 101.957,71.7025 102.624,71.3691 103.5,71.5 Z"/></g>
<g><path style="opacity:1" fill="#8f79ac" d="M 145.5,69.5 C 145.798,77.2909 146.965,84.9575 149,92.5C 149.495,90.5273 149.662,88.5273 149.5,86.5C 150.338,86.8417 150.672,87.5084 150.5,88.5C 151.491,95.472 153.491,102.139 156.5,108.5C 154.5,111.167 152.167,113.5 149.5,115.5C 148.833,114.833 148.167,114.167 147.5,113.5C 148.239,113.631 148.906,113.464 149.5,113C 148.416,110.149 147.583,107.316 147,104.5C 147.956,105.579 148.789,106.745 149.5,108C 150.332,108.688 150.998,108.521 151.5,107.5C 149.808,105.641 148.308,103.641 147,101.5C 145.442,95.4879 143.109,89.8212 140,84.5C 139.333,86.5 139.333,88.5 140,90.5C 141.207,95.9496 142.707,101.283 144.5,106.5C 142.665,105.878 141.498,104.544 141,102.5C 140.601,102.728 140.435,103.062 140.5,103.5C 137.911,99.3226 135.577,94.9892 133.5,90.5C 132.178,90.67 131.011,90.3366 130,89.5C 128.988,86.7982 127.488,84.4649 125.5,82.5C 126.338,82.1583 126.672,81.4916 126.5,80.5C 126.351,79.448 126.517,78.448 127,77.5C 127.333,77.8333 127.667,78.1667 128,78.5C 132.724,93.3947 134.557,93.0613 133.5,77.5C 134.167,76.1667 134.833,74.8333 135.5,73.5C 137.267,76.3344 139.101,79.3344 141,82.5C 143.692,78.4812 145.192,74.1478 145.5,69.5 Z"/></g>
<g><path style="opacity:1" fill="#825f3f" d="M 255.5,92.5 C 255.5,93.5 255.5,94.5 255.5,95.5C 252.747,100.008 249.747,104.341 246.5,108.5C 248.997,102.835 251.997,97.5016 255.5,92.5 Z"/></g>
<g><path style="opacity:1" fill="#0a0605" d="M 67.5,98.5 C 64.5026,105.829 61.5026,113.162 58.5,120.5C 53.495,127.511 49.8283,135.177 47.5,143.5C 45.8333,143.5 44.1667,143.5 42.5,143.5C 40.4212,125.081 39.4212,125.081 39.5,143.5C 37.8333,143.5 36.1667,143.5 34.5,143.5C 34.5,142.167 34.5,140.833 34.5,139.5C 35.5,139.5 36.5,139.5 37.5,139.5C 37.0157,135.173 37.6823,131.173 39.5,127.5C 46.601,114.888 55.7677,103.888 67,94.5C 67.49,95.7932 67.6567,97.1266 67.5,98.5 Z"/></g>
<g><path style="opacity:1" fill="#492b16" d="M 204.5,76.5 C 205.338,76.8417 205.672,77.5084 205.5,78.5C 201.453,89.9314 196.287,100.931 190,111.5C 188.989,112.337 187.822,112.67 186.5,112.5C 188.167,109.167 189.833,105.833 191.5,102.5C 193.011,99.9949 194.345,97.3283 195.5,94.5C 199.335,88.9755 202.335,82.9755 204.5,76.5 Z"/></g>
<g><path style="opacity:1" fill="#280b39" d="M 225.5,87.5 C 224.833,88.8333 224.167,90.1667 223.5,91.5C 219.663,97.1698 216.33,103.17 213.5,109.5C 211.137,112.549 209.137,115.882 207.5,119.5C 204.219,119.58 201.219,118.913 198.5,117.5C 200.776,115.728 202.943,113.728 205,111.5C 208.849,104.99 212.683,98.4899 216.5,92C 216.43,91.2352 216.097,90.7352 215.5,90.5C 215.953,89.5416 216.619,88.7083 217.5,88C 220.146,87.5026 222.813,87.3359 225.5,87.5 Z"/></g>
<g><path style="opacity:1" fill="#241410" d="M 255.5,95.5 C 255.5,100.833 255.5,106.167 255.5,111.5C 249.805,119.88 244.471,128.546 239.5,137.5C 236.795,135.488 234.128,133.488 231.5,131.5C 232.043,131.44 232.376,131.107 232.5,130.5C 231.743,129.227 231.077,129.227 230.5,130.5C 229.391,130.443 228.391,130.11 227.5,129.5C 227.44,128.957 227.107,128.624 226.5,128.5C 221.31,131.168 215.977,132.335 210.5,132C 208.863,135.285 208.196,138.785 208.5,142.5C 208.5,142.833 208.5,143.167 208.5,143.5C 201.833,143.5 195.167,143.5 188.5,143.5C 196.268,135.427 205.602,129.76 216.5,126.5C 224.36,124.663 232.36,123.663 240.5,123.5C 241.873,123.657 243.207,123.49 244.5,123C 242.498,121.981 240.498,121.148 238.5,120.5C 239.674,119.486 240.34,118.153 240.5,116.5C 242.5,113.833 244.5,111.167 246.5,108.5C 249.747,104.341 252.747,100.008 255.5,95.5 Z"/></g>
<g><path style="opacity:1" fill="#7a4da9" d="M 105.5,105.5 C 104.778,106.551 103.778,107.218 102.5,107.5C 100.424,105.416 98.0903,103.749 95.5,102.5C 95.1788,100.952 94.1788,100.285 92.5,100.5C 92.9118,98.0274 91.9118,96.6941 89.5,96.5C 89.62,95.4138 90.2867,94.7472 91.5,94.5C 98.0083,96.027 102.675,99.6937 105.5,105.5 Z"/></g>
<g><path style="opacity:1" fill="#4c3a70" d="M 80.5,85.5 C 81.6857,86.7054 81.6857,88.0387 80.5,89.5C 79.3709,91.6282 79.2042,93.9615 80,96.5C 81.0113,97.3366 82.1779,97.67 83.5,97.5C 83.5,98.8333 83.5,100.167 83.5,101.5C 80.4411,105.228 77.7744,109.228 75.5,113.5C 74.3065,113.03 73.6399,112.03 73.5,110.5C 74.2101,107.411 75.2101,104.411 76.5,101.5C 76.1543,100.151 75.821,98.8175 75.5,97.5C 76.3171,95.0314 76.8171,92.3647 77,89.5C 77.4983,87.4556 78.665,86.1223 80.5,85.5 Z"/></g>
<g><path style="opacity:1" fill="#210630" d="M 255.5,81.5 C 255.5,84.5 255.5,87.5 255.5,90.5C 253.871,91.6253 252.371,92.9586 251,94.5C 246.665,101.501 243.165,108.834 240.5,116.5C 239.078,117.925 237.411,118.925 235.5,119.5C 234.5,119.5 233.5,119.5 232.5,119.5C 232.5,119.167 232.5,118.833 232.5,118.5C 240.506,107.164 247.506,95.1642 253.5,82.5C 254.167,82.1667 254.833,81.8333 255.5,81.5 Z"/></g>
<g><path style="opacity:1" fill="#936c47" d="M 164.5,102.5 C 165.239,102.369 165.906,102.536 166.5,103C 163.781,103.805 162.781,105.305 163.5,107.5C 162.564,108.974 161.23,109.974 159.5,110.5C 159.5,109.167 158.833,108.5 157.5,108.5C 159.607,106.273 161.94,104.273 164.5,102.5 Z"/></g>
<g><path style="opacity:1" fill="#5d1e7b" d="M 255.5,90.5 C 255.5,91.1667 255.5,91.8333 255.5,92.5C 251.997,97.5016 248.997,102.835 246.5,108.5C 244.5,111.167 242.5,113.833 240.5,116.5C 243.165,108.834 246.665,101.501 251,94.5C 252.371,92.9586 253.871,91.6253 255.5,90.5 Z"/></g>
<g><path style="opacity:1" fill="#bea5d9" d="M 95.5,102.5 C 98.0903,103.749 100.424,105.416 102.5,107.5C 103.455,113.409 103.789,119.409 103.5,125.5C 102.061,128.206 100.394,130.873 98.5,133.5C 100.728,115.266 99.0612,114.933 93.5,132.5C 92.7492,131.624 92.2492,130.624 92,129.5C 91.3448,131.628 90.5114,133.628 89.5,135.5C 88.8333,133.5 88.1667,131.5 87.5,129.5C 87.6287,127.784 87.962,126.117 88.5,124.5C 88.9518,120.837 89.4518,117.17 90,113.5C 90.81,109.213 92.6433,105.546 95.5,102.5 Z"/></g>
<g><path style="opacity:1" fill="#f6f0f9" d="M 89.5,96.5 C 91.9118,96.6941 92.9118,98.0274 92.5,100.5C 94.1788,100.285 95.1788,100.952 95.5,102.5C 92.6433,105.546 90.81,109.213 90,113.5C 89.4518,117.17 88.9518,120.837 88.5,124.5C 87.0527,125.622 86.0527,127.122 85.5,129C 83.324,129.163 81.4907,129.996 80,131.5C 79.6667,129.833 79.3333,128.167 79,126.5C 77.2285,130.43 76.0618,130.097 75.5,125.5C 76.5148,120.624 78.0148,115.957 80,111.5C 82.5111,108.16 84.3445,104.494 85.5,100.5C 87.1667,99.5 88.5,98.1667 89.5,96.5 Z"/></g>
<g><path style="opacity:1" fill="#937cb6" d="M 109.5,100.5 C 109.149,103.903 108.482,107.237 107.5,110.5C 106.193,115.316 105.193,120.316 104.5,125.5C 104.167,125.5 103.833,125.5 103.5,125.5C 103.789,119.409 103.455,113.409 102.5,107.5C 103.778,107.218 104.778,106.551 105.5,105.5C 107.182,104.173 108.515,102.506 109.5,100.5 Z"/></g>
<g><path style="opacity:1" fill="#e4b47e" d="M 156.5,108.5 C 156.833,108.5 157.167,108.5 157.5,108.5C 158.833,108.5 159.5,109.167 159.5,110.5C 158.694,111.728 157.694,112.728 156.5,113.5C 154.5,115.167 152.5,116.833 150.5,118.5C 149.202,119.116 148.202,119.116 147.5,118.5C 148.167,117.5 148.833,116.5 149.5,115.5C 152.167,113.5 154.5,111.167 156.5,108.5 Z"/></g>
<g><path style="opacity:1" fill="#ece6e6" d="M 173.5,104.5 C 176.962,108.733 181.295,111.733 186.5,113.5C 187.78,114.931 189.447,115.598 191.5,115.5C 193.588,116.939 195.921,117.606 198.5,117.5C 201.219,118.913 204.219,119.58 207.5,119.5C 207.833,119.5 208.167,119.5 208.5,119.5C 210.833,120.167 213.167,120.833 215.5,121.5C 214.5,121.5 213.5,121.5 212.5,121.5C 208.731,121.244 205.064,121.577 201.5,122.5C 201.217,121.711 200.717,121.044 200,120.5C 196.33,125.336 192.164,129.669 187.5,133.5C 187.5,133.167 187.5,132.833 187.5,132.5C 190.5,129.167 193.5,125.833 196.5,122.5C 196.938,122.565 197.272,122.399 197.5,122C 192.909,120.515 188.243,119.349 183.5,118.5C 183.727,116.067 182.727,114.401 180.5,113.5C 179.833,113.167 179.167,112.833 178.5,112.5C 177.167,110.5 175.5,108.833 173.5,107.5C 173.5,106.5 173.5,105.5 173.5,104.5 Z"/></g>
<g><path style="opacity:1" fill="#977a8c" d="M 48.5,110.5 C 48.631,111.239 48.4643,111.906 48,112.5C 46.6976,113.085 45.531,113.751 44.5,114.5C 42.2362,115.219 39.9029,115.552 37.5,115.5C 40.964,113.666 44.6307,111.999 48.5,110.5 Z"/></g>
<g><path style="opacity:1" fill="#927ba8" d="M 112.5,76.5 C 112.833,76.5 113.167,76.5 113.5,76.5C 114.5,77.1667 115.5,77.8333 116.5,78.5C 118.749,82.598 121.249,86.598 124,90.5C 124.494,92.1341 124.66,93.8008 124.5,95.5C 123.883,95.3893 123.383,95.056 123,94.5C 123.159,104.682 121.993,114.682 119.5,124.5C 119.936,127.179 120.436,129.845 121,132.5C 124.198,128.768 126.365,124.435 127.5,119.5C 128.366,124.346 128.533,129.346 128,134.5C 129.135,132.63 129.968,130.63 130.5,128.5C 132.046,126.118 132.713,123.451 132.5,120.5C 134.577,121.523 136.577,121.19 138.5,119.5C 134.927,127.732 130.927,135.732 126.5,143.5C 125.5,143.5 124.5,143.5 123.5,143.5C 126.269,139.916 126.102,136.583 123,133.5C 121.715,133.95 120.548,134.617 119.5,135.5C 118.749,134.624 118.249,133.624 118,132.5C 115.723,135.699 114.89,139.365 115.5,143.5C 113.833,143.5 112.167,143.5 110.5,143.5C 116.446,132.718 119.446,121.052 119.5,108.5C 119.5,106.833 119.5,105.167 119.5,103.5C 121.325,93.2567 118.992,84.2567 112.5,76.5 Z"/></g>
<g><path style="opacity:1" fill="#8c6b51" d="M 67.5,92.5 C 68.1667,92.5 68.5,92.8333 68.5,93.5C 68.7845,95.4147 68.4511,97.0813 67.5,98.5C 67.6567,97.1266 67.49,95.7932 67,94.5C 55.7677,103.888 46.601,114.888 39.5,127.5C 39.0618,127.565 38.7284,127.399 38.5,127C 41.6152,122.953 43.6152,118.787 44.5,114.5C 45.531,113.751 46.6976,113.085 48,112.5C 48.4643,111.906 48.631,111.239 48.5,110.5C 48.5,110.167 48.5,109.833 48.5,109.5C 51.8333,106.833 54.8333,103.833 57.5,100.5C 58.5,100.167 59.1667,99.5 59.5,98.5C 62.1667,96.5 64.8333,94.5 67.5,92.5 Z"/></g>
<g><path style="opacity:1" fill="#bda9d0" d="M 140.5,105.5 C 141.147,106.274 141.48,107.274 141.5,108.5C 139.869,111.275 138.869,114.942 138.5,119.5C 136.577,121.19 134.577,121.523 132.5,120.5C 132.312,114.112 132.812,107.778 134,101.5C 135.941,105.249 137.274,109.249 138,113.5C 138.11,109.852 138.943,107.185 140.5,105.5 Z"/></g>
<g><path style="opacity:1" fill="#b79dd3" d="M 124.5,95.5 C 125.469,97.663 126.302,99.9963 127,102.5C 127.499,108.157 127.666,113.824 127.5,119.5C 126.365,124.435 124.198,128.768 121,132.5C 120.436,129.845 119.936,127.179 119.5,124.5C 121.993,114.682 123.159,104.682 123,94.5C 123.383,95.056 123.883,95.3893 124.5,95.5 Z"/></g>
<g><path style="opacity:1" fill="#cfc2dc" d="M 85.5,100.5 C 84.3445,104.494 82.5111,108.16 80,111.5C 78.0148,115.957 76.5148,120.624 75.5,125.5C 76.0618,130.097 77.2285,130.43 79,126.5C 79.3333,128.167 79.6667,129.833 80,131.5C 81.4907,129.996 83.324,129.163 85.5,129C 86.0527,127.122 87.0527,125.622 88.5,124.5C 87.962,126.117 87.6287,127.784 87.5,129.5C 86.8333,129.5 86.5,129.833 86.5,130.5C 84.4099,132.39 82.0765,134.057 79.5,135.5C 78.7022,133.922 78.2022,132.256 78,130.5C 77.3848,132.116 76.3848,133.449 75,134.5C 73.2915,129.72 72.4582,124.72 72.5,119.5C 73.5,117.5 74.5,115.5 75.5,113.5C 77.7744,109.228 80.4411,105.228 83.5,101.5C 84.1667,101.167 84.8333,100.833 85.5,100.5 Z"/></g>
<g><path style="opacity:1" fill="#332b26" d="M 173.5,107.5 C 175.5,108.833 177.167,110.5 178.5,112.5C 178.414,113.496 178.748,114.329 179.5,115C 176.388,115.851 176.054,117.017 178.5,118.5C 178.023,119.478 177.357,120.311 176.5,121C 177.5,121.333 178.5,121.667 179.5,122C 176.727,123.769 174.06,125.602 171.5,127.5C 170.048,126.698 168.382,126.198 166.5,126C 168.747,119.753 171.08,113.587 173.5,107.5 Z"/></g>
<g><path style="opacity:1" fill="#75348e" d="M 240.5,116.5 C 240.34,118.153 239.674,119.486 238.5,120.5C 237.209,120.737 236.209,120.404 235.5,119.5C 237.411,118.925 239.078,117.925 240.5,116.5 Z"/></g>
<g><path style="opacity:1" fill="#16100d" d="M 180.5,94.5 C 178.167,97.8333 175.833,101.167 173.5,104.5C 173.5,105.5 173.5,106.5 173.5,107.5C 171.08,113.587 168.747,119.753 166.5,126C 168.382,126.198 170.048,126.698 171.5,127.5C 169.199,128.06 166.866,128.56 164.5,129C 165.609,130.813 164.942,131.646 162.5,131.5C 162.719,132.675 162.386,133.675 161.5,134.5C 160.358,135.826 159.024,136.826 157.5,137.5C 155.896,136.713 155.229,135.38 155.5,133.5C 154.94,125.348 157.273,118.181 162.5,112C 160.583,112.027 158.916,112.861 157.5,114.5C 156.893,114.376 156.56,114.043 156.5,113.5C 157.694,112.728 158.694,111.728 159.5,110.5C 161.23,109.974 162.564,108.974 163.5,107.5C 169.451,103.55 175.118,99.2167 180.5,94.5 Z"/></g>
<g><path style="opacity:1" fill="#9b908e" d="M 180.5,113.5 C 182.727,114.401 183.727,116.067 183.5,118.5C 188.243,119.349 192.909,120.515 197.5,122C 197.272,122.399 196.938,122.565 196.5,122.5C 194.983,122.511 193.816,123.177 193,124.5C 188.957,121.982 184.457,120.649 179.5,120.5C 179.36,118.876 180.027,117.71 181.5,117C 180.663,115.989 180.33,114.822 180.5,113.5 Z"/></g>
<g><path style="opacity:1" fill="#97867e" d="M 232.5,118.5 C 232.5,118.833 232.5,119.167 232.5,119.5C 230.901,119.232 229.568,119.566 228.5,120.5C 224.102,120.294 219.768,120.627 215.5,121.5C 213.167,120.833 210.833,120.167 208.5,119.5C 216.525,119.61 224.525,119.276 232.5,118.5 Z"/></g>
<g><path style="opacity:1" fill="#e3d4ed" d="M 119.5,103.5 C 119.5,105.167 119.5,106.833 119.5,108.5C 118.129,118.415 114.296,127.415 108,135.5C 107.667,132.833 107.333,130.167 107,127.5C 104.841,129.956 104.008,129.29 104.5,125.5C 105.193,120.316 106.193,115.316 107.5,110.5C 107.325,114.541 107.158,118.541 107,122.5C 109.402,117.832 111.069,112.832 112,107.5C 112.333,107.167 112.667,106.833 113,106.5C 113.333,108.833 113.667,111.167 114,113.5C 114.962,108.334 116.296,103.334 118,98.5C 118.198,100.382 118.698,102.048 119.5,103.5 Z"/></g>
<g><path style="opacity:1" fill="#28170c" d="M 155.5,133.5 C 154.71,132.391 154.21,131.058 154,129.5C 152.835,133.932 151.335,134.265 149.5,130.5C 149.167,132 148.833,133.5 148.5,135C 148.481,138.073 149.147,140.907 150.5,143.5C 147.5,143.5 144.5,143.5 141.5,143.5C 141.5,141.5 141.5,139.5 141.5,137.5C 140.041,137.433 138.708,137.766 137.5,138.5C 137.238,135.252 137.238,132.252 137.5,129.5C 138.002,131.085 139.002,131.585 140.5,131C 144.047,126.959 147.38,122.792 150.5,118.5C 152.5,116.833 154.5,115.167 156.5,113.5C 156.56,114.043 156.893,114.376 157.5,114.5C 158.916,112.861 160.583,112.027 162.5,112C 157.273,118.181 154.94,125.348 155.5,133.5 Z"/></g>
<g><path style="opacity:1" fill="#dcd1cc" d="M 228.5,120.5 C 229.568,119.566 230.901,119.232 232.5,119.5C 233.5,119.5 234.5,119.5 235.5,119.5C 236.209,120.404 237.209,120.737 238.5,120.5C 240.498,121.148 242.498,121.981 244.5,123C 243.207,123.49 241.873,123.657 240.5,123.5C 236.557,122.688 232.557,121.688 228.5,120.5 Z"/></g>
<g><path style="opacity:1" fill="#655187" d="M 75.5,97.5 C 75.821,98.8175 76.1543,100.151 76.5,101.5C 75.2101,104.411 74.2101,107.411 73.5,110.5C 73.6399,112.03 74.3065,113.03 75.5,113.5C 74.5,115.5 73.5,117.5 72.5,119.5C 68.3158,126.865 65.6491,134.865 64.5,143.5C 62.1667,143.5 59.8333,143.5 57.5,143.5C 58.2095,135.944 60.5428,128.944 64.5,122.5C 65.086,122.709 65.586,123.043 66,123.5C 68.0624,121.099 69.7291,118.433 71,115.5C 71.8545,109.203 73.3545,103.203 75.5,97.5 Z"/></g>
<g><path style="opacity:1" fill="#a08c81" d="M 212.5,121.5 C 211.167,122.167 209.833,122.833 208.5,123.5C 205.71,123.222 203.21,123.889 201,125.5C 200.5,125.167 200,124.833 199.5,124.5C 200.243,123.818 200.909,123.151 201.5,122.5C 205.064,121.577 208.731,121.244 212.5,121.5 Z"/></g>
<g><path style="opacity:1" fill="#5a3d2b" d="M 228.5,120.5 C 232.557,121.688 236.557,122.688 240.5,123.5C 232.36,123.663 224.36,124.663 216.5,126.5C 214.293,124.485 211.626,123.485 208.5,123.5C 209.833,122.833 211.167,122.167 212.5,121.5C 213.5,121.5 214.5,121.5 215.5,121.5C 219.768,120.627 224.102,120.294 228.5,120.5 Z"/></g>
<g><path style="opacity:1" fill="#9c7257" d="M 147.5,118.5 C 148.202,119.116 149.202,119.116 150.5,118.5C 147.38,122.792 144.047,126.959 140.5,131C 139.002,131.585 138.002,131.085 137.5,129.5C 140.123,125.209 143.456,121.543 147.5,118.5 Z"/></g>
<g><path style="opacity:1" fill="#3a2119" d="M 44.5,114.5 C 43.6152,118.787 41.6152,122.953 38.5,127C 38.7284,127.399 39.0618,127.565 39.5,127.5C 37.6823,131.173 37.0157,135.173 37.5,139.5C 36.5,139.5 35.5,139.5 34.5,139.5C 34.5,140.833 34.5,142.167 34.5,143.5C 31.1667,143.5 27.8333,143.5 24.5,143.5C 26.168,141.66 27.668,139.66 29,137.5C 30.9289,129.755 33.7622,122.422 37.5,115.5C 39.9029,115.552 42.2362,115.219 44.5,114.5 Z"/></g>
<g><path style="opacity:1" fill="#9f7450" d="M 201.5,122.5 C 200.909,123.151 200.243,123.818 199.5,124.5C 200,124.833 200.5,125.167 201,125.5C 203.21,123.889 205.71,123.222 208.5,123.5C 211.626,123.485 214.293,124.485 216.5,126.5C 205.602,129.76 196.268,135.427 188.5,143.5C 187.5,143.5 186.5,143.5 185.5,143.5C 186.871,141.741 187.871,139.741 188.5,137.5C 186.824,136.272 186.491,134.939 187.5,133.5C 192.164,129.669 196.33,125.336 200,120.5C 200.717,121.044 201.217,121.711 201.5,122.5 Z"/></g>
<g><path style="opacity:1" fill="#64118f" d="M 231.5,131.5 C 230.833,131.5 230.5,131.167 230.5,130.5C 231.077,129.227 231.743,129.227 232.5,130.5C 232.376,131.107 232.043,131.44 231.5,131.5 Z"/></g>
<g><path style="opacity:1" fill="#786497" d="M 84.5,73.5 C 81.0751,76.7291 79.7418,80.7291 80.5,85.5C 78.665,86.1223 77.4983,87.4556 77,89.5C 76.8171,92.3647 76.3171,95.0314 75.5,97.5C 73.3545,103.203 71.8545,109.203 71,115.5C 69.7291,118.433 68.0624,121.099 66,123.5C 65.586,123.043 65.086,122.709 64.5,122.5C 60.5428,128.944 58.2095,135.944 57.5,143.5C 55.1667,143.5 52.8333,143.5 50.5,143.5C 54.13,136.339 57.4633,129.005 60.5,121.5C 65.7072,110.415 70.3739,99.0817 74.5,87.5C 75.7794,85.8767 77.1128,84.21 78.5,82.5C 78.1667,81.8333 77.8333,81.1667 77.5,80.5C 78.6302,79.3777 79.2969,78.0443 79.5,76.5C 79.8333,75.8333 80.1667,75.1667 80.5,74.5C 82.0174,74.4894 83.1841,73.8228 84,72.5C 84.3988,72.7284 84.5654,73.0618 84.5,73.5 Z"/></g>
<g><path style="opacity:1" fill="#6b3fa8" d="M 255.5,111.5 C 255.5,122.167 255.5,132.833 255.5,143.5C 252.167,143.5 248.833,143.5 245.5,143.5C 243.481,141.81 241.481,140.144 239.5,138.5C 239.5,138.167 239.5,137.833 239.5,137.5C 244.471,128.546 249.805,119.88 255.5,111.5 Z"/></g>
<g><path style="opacity:1" fill="#1e1716" d="M 227.5,129.5 C 227.062,129.435 226.728,129.601 226.5,130C 227.381,130.708 228.047,131.542 228.5,132.5C 227.127,132.343 225.793,132.51 224.5,133C 228.112,134.139 231.446,135.806 234.5,138C 231.937,138.154 229.437,137.654 227,136.5C 223.585,137.918 220.418,139.751 217.5,142C 214.518,142.498 211.518,142.665 208.5,142.5C 208.196,138.785 208.863,135.285 210.5,132C 215.977,132.335 221.31,131.168 226.5,128.5C 227.107,128.624 227.44,128.957 227.5,129.5 Z"/></g>
<g><path style="opacity:1" fill="#9378bc" d="M 98.5,133.5 C 98.1077,135.179 97.6077,136.846 97,138.5C 95.392,136.9 93.5586,135.567 91.5,134.5C 90.8165,134.863 90.1499,135.196 89.5,135.5C 90.5114,133.628 91.3448,131.628 92,129.5C 92.2492,130.624 92.7492,131.624 93.5,132.5C 99.0612,114.933 100.728,115.266 98.5,133.5 Z"/></g>
<g><path style="opacity:1" fill="#a090b2" d="M 58.5,120.5 C 58.4088,122.698 59.0755,123.031 60.5,121.5C 57.4633,129.005 54.13,136.339 50.5,143.5C 49.5,143.5 48.5,143.5 47.5,143.5C 49.8283,135.177 53.495,127.511 58.5,120.5 Z"/></g>
<g><path style="opacity:1" fill="#453c36" d="M 178.5,112.5 C 179.167,112.833 179.833,113.167 180.5,113.5C 180.33,114.822 180.663,115.989 181.5,117C 180.027,117.71 179.36,118.876 179.5,120.5C 184.457,120.649 188.957,121.982 193,124.5C 193.816,123.177 194.983,122.511 196.5,122.5C 193.5,125.833 190.5,129.167 187.5,132.5C 180.821,139.895 172.487,143.061 162.5,142C 161.016,141.338 159.683,140.504 158.5,139.5C 158.167,138.833 157.833,138.167 157.5,137.5C 159.024,136.826 160.358,135.826 161.5,134.5C 162.386,133.675 162.719,132.675 162.5,131.5C 164.942,131.646 165.609,130.813 164.5,129C 166.866,128.56 169.199,128.06 171.5,127.5C 174.06,125.602 176.727,123.769 179.5,122C 178.5,121.667 177.5,121.333 176.5,121C 177.357,120.311 178.023,119.478 178.5,118.5C 176.054,117.017 176.388,115.851 179.5,115C 178.748,114.329 178.414,113.496 178.5,112.5 Z"/></g>
<g><path style="opacity:1" fill="#786c70" d="M 227.5,129.5 C 228.391,130.11 229.391,130.443 230.5,130.5C 230.5,131.167 230.833,131.5 231.5,131.5C 234.128,133.488 236.795,135.488 239.5,137.5C 239.5,137.833 239.5,138.167 239.5,138.5C 235.673,136.754 232.007,134.754 228.5,132.5C 228.047,131.542 227.381,130.708 226.5,130C 226.728,129.601 227.062,129.435 227.5,129.5 Z"/></g>
<g><path style="opacity:1" fill="#6d5586" d="M 144.5,106.5 C 145.736,108.649 146.736,110.982 147.5,113.5C 148.167,114.167 148.833,114.833 149.5,115.5C 148.833,116.5 148.167,117.5 147.5,118.5C 143.456,121.543 140.123,125.209 137.5,129.5C 137.238,132.252 137.238,135.252 137.5,138.5C 136.833,140.167 136.167,141.833 135.5,143.5C 132.5,143.5 129.5,143.5 126.5,143.5C 130.927,135.732 134.927,127.732 138.5,119.5C 138.869,114.942 139.869,111.275 141.5,108.5C 141.48,107.274 141.147,106.274 140.5,105.5C 140.5,104.833 140.5,104.167 140.5,103.5C 140.435,103.062 140.601,102.728 141,102.5C 141.498,104.544 142.665,105.878 144.5,106.5 Z"/></g>
<g><path style="opacity:1" fill="#60432f" d="M 155.5,133.5 C 155.229,135.38 155.896,136.713 157.5,137.5C 157.833,138.167 158.167,138.833 158.5,139.5C 157.646,140.632 157.646,141.965 158.5,143.5C 155.833,143.5 153.167,143.5 150.5,143.5C 149.147,140.907 148.481,138.073 148.5,135C 148.833,133.5 149.167,132 149.5,130.5C 151.335,134.265 152.835,133.932 154,129.5C 154.21,131.058 154.71,132.391 155.5,133.5 Z"/></g>
<g><path style="opacity:1" fill="#7a6190" d="M 123.5,143.5 C 120.833,143.5 118.167,143.5 115.5,143.5C 114.89,139.365 115.723,135.699 118,132.5C 118.249,133.624 118.749,134.624 119.5,135.5C 120.548,134.617 121.715,133.95 123,133.5C 126.102,136.583 126.269,139.916 123.5,143.5 Z"/></g>
<g><path style="opacity:1" fill="#33201a" d="M 42.5,143.5 C 41.5,143.5 40.5,143.5 39.5,143.5C 39.4212,125.081 40.4212,125.081 42.5,143.5 Z"/></g>
<g><path style="opacity:1" fill="#a895b9" d="M 72.5,119.5 C 72.4582,124.72 73.2915,129.72 75,134.5C 76.3848,133.449 77.3848,132.116 78,130.5C 78.2022,132.256 78.7022,133.922 79.5,135.5C 82.0765,134.057 84.4099,132.39 86.5,130.5C 84.868,134.758 83.5347,139.091 82.5,143.5C 76.5,143.5 70.5,143.5 64.5,143.5C 65.6491,134.865 68.3158,126.865 72.5,119.5 Z"/></g>
<g><path style="opacity:1" fill="#b9a7c8" d="M 119.5,108.5 C 119.446,121.052 116.446,132.718 110.5,143.5C 107.167,143.5 103.833,143.5 100.5,143.5C 101.93,137.584 102.93,131.584 103.5,125.5C 103.833,125.5 104.167,125.5 104.5,125.5C 104.008,129.29 104.841,129.956 107,127.5C 107.333,130.167 107.667,132.833 108,135.5C 114.296,127.415 118.129,118.415 119.5,108.5 Z"/></g>
<g><path style="opacity:1" fill="#e6ad89" d="M 187.5,132.5 C 187.5,132.833 187.5,133.167 187.5,133.5C 186.491,134.939 186.824,136.272 188.5,137.5C 187.871,139.741 186.871,141.741 185.5,143.5C 176.5,143.5 167.5,143.5 158.5,143.5C 157.646,141.965 157.646,140.632 158.5,139.5C 159.683,140.504 161.016,141.338 162.5,142C 172.487,143.061 180.821,139.895 187.5,132.5 Z"/></g>
<g><path style="opacity:1" fill="#332b27" d="M 228.5,132.5 C 232.007,134.754 235.673,136.754 239.5,138.5C 241.481,140.144 243.481,141.81 245.5,143.5C 233.167,143.5 220.833,143.5 208.5,143.5C 208.5,143.167 208.5,142.833 208.5,142.5C 211.518,142.665 214.518,142.498 217.5,142C 220.418,139.751 223.585,137.918 227,136.5C 229.437,137.654 231.937,138.154 234.5,138C 231.446,135.806 228.112,134.139 224.5,133C 225.793,132.51 227.127,132.343 228.5,132.5 Z"/></g>
<g><path style="opacity:1" fill="#8e664f" d="M 141.5,143.5 C 139.5,143.5 137.5,143.5 135.5,143.5C 136.167,141.833 136.833,140.167 137.5,138.5C 138.708,137.766 140.041,137.433 141.5,137.5C 141.5,139.5 141.5,141.5 141.5,143.5 Z"/></g>
<g><path style="opacity:1" fill="#7b6198" d="M 103.5,125.5 C 102.93,131.584 101.93,137.584 100.5,143.5C 94.5,143.5 88.5,143.5 82.5,143.5C 83.5347,139.091 84.868,134.758 86.5,130.5C 86.5,129.833 86.8333,129.5 87.5,129.5C 88.1667,131.5 88.8333,133.5 89.5,135.5C 90.1499,135.196 90.8165,134.863 91.5,134.5C 93.5586,135.567 95.392,136.9 97,138.5C 97.6077,136.846 98.1077,135.179 98.5,133.5C 100.394,130.873 102.061,128.206 103.5,125.5 Z"/></g>
</svg>
