<?xml version="1.0" encoding="UTF-8"?>
<!DOCTYPE svg PUBLIC "-//W3C//DTD SVG 1.1//EN" "http://www.w3.org/Graphics/SVG/1.1/DTD/svg11.dtd">
<svg xmlns="http://www.w3.org/2000/svg" version="1.1" width="256px" height="144px" style="shape-rendering:geometricPrecision; text-rendering:geometricPrecision; image-rendering:optimizeQuality; fill-rule:evenodd; clip-rule:evenodd" xmlns:xlink="http://www.w3.org/1999/xlink">
<g><path style="opacity:1" fill="#73818d" d="M 48.5,-0.5 C 50.1667,-0.5 51.8333,-0.5 53.5,-0.5C 53.5,-0.166667 53.5,0.166667 53.5,0.5C 52.5084,0.32842 51.8417,0.661754 51.5,1.5C 51.1667,1.5 50.8333,1.5 50.5,1.5C 48.0065,1.86932 47.3398,1.20266 48.5,-0.5 Z"/></g>
<g><path style="opacity:1" fill="#000101" d="M -0.5,-0.5 C 11.8333,-0.5 24.1667,-0.5 36.5,-0.5C 37.5115,3.69592 36.6782,7.69592 34,11.5C 33.1872,16.8149 32.5206,22.1483 32,27.5C 31.3918,29.0664 30.5585,30.3998 29.5,31.5C 29.0425,25.5371 26.0425,21.3705 20.5,19C 16.5931,18.9377 13.0931,17.7711 10,15.5C 6.80178,17.6389 3.30178,18.9722 -0.5,19.5C -0.5,12.8333 -0.5,6.16667 -0.5,-0.5 Z"/></g>
<g><path style="opacity:1" fill="#051612" d="M 51.5,1.5 C 51.8417,0.661754 52.5084,0.32842 53.5,0.5C 57.0071,-0.00647424 60.1737,0.660192 63,2.5C 64.1667,9.33333 65.3333,16.1667 66.5,23C 65.4182,25.5048 65.7515,27.5048 67.5,29C 67.1523,34.8776 66.9856,41.0443 67,47.5C 65.1964,50.794 62.6964,51.294 59.5,49C 61.3008,48.6827 61.6341,48.016 60.5,47C 56.7413,45.4009 53.0746,44.4009 49.5,44C 50.6341,42.984 50.3008,42.3173 48.5,42C 49.9455,39.5068 49.2789,37.6735 46.5,36.5C 43.9135,35.52 41.2469,35.1866 38.5,35.5C 41.5128,34.4872 43.5128,32.4872 44.5,29.5C 45.8734,29.3433 47.2068,29.51 48.5,30C 51.415,33.591 54.915,35.4243 59,35.5C 59.299,31.193 59.4657,27.0263 59.5,23C 58.2494,20.075 57.2494,17.075 56.5,14C 57.3452,12.4419 56.6785,11.4419 54.5,11C 55.0219,10.4387 55.3552,9.77203 55.5,9C 54.6756,6.02767 53.3423,3.52767 51.5,1.5 Z"/></g>
<g><path style="opacity:1" fill="#071c16" d="M 53.5,0.5 C 53.5,0.166667 53.5,-0.166667 53.5,-0.5C 58.8333,-0.5 64.1667,-0.5 69.5,-0.5C 70.0906,0.151487 70.7573,0.818153 71.5,1.5C 70.9984,2.71644 70.6651,3.8831 70.5,5C 72.3348,5.92773 72.6682,7.0944 71.5,8.5C 72.0736,10.0589 72.7402,11.5589 73.5,13C 70.8333,13.6667 70.8333,14.3333 73.5,15C 73.6759,16.6597 73.0093,18.3264 71.5,20C 72.6841,21.1803 73.3507,22.6803 73.5,24.5C 73.3521,30.6867 73.3521,36.8534 73.5,43C 71.029,48.3405 70.3623,53.5072 71.5,58.5C 67.543,60.4726 63.8763,62.8059 60.5,65.5C 60.1667,65.5 59.8333,65.5 59.5,65.5C 59.8079,61.9909 61.8079,60.3243 65.5,60.5C 65.8719,57.9783 65.0386,55.9783 63,54.5C 62.5756,58.19 61.7423,58.3567 60.5,55C 56.7876,52.6757 54.9543,53.8424 55,58.5C 54.0853,57.6721 53.4186,56.6721 53,55.5C 51.4345,56.0606 50.1011,55.3939 49,53.5C 46.67,55.0317 44.67,54.6983 43,52.5C 42.2825,53.4506 41.4491,53.6172 40.5,53C 41.9718,49.3194 42.6384,45.6528 42.5,42C 41.3488,40.1769 40.1821,38.3436 39,36.5C 38.1404,39.6328 36.6404,42.2995 34.5,44.5C 35.4629,41.2558 36.7962,38.2558 38.5,35.5C 41.2469,35.1866 43.9135,35.52 46.5,36.5C 49.2789,37.6735 49.9455,39.5068 48.5,42C 50.3008,42.3173 50.6341,42.984 49.5,44C 53.0746,44.4009 56.7413,45.4009 60.5,47C 61.6341,48.016 61.3008,48.6827 59.5,49C 62.6964,51.294 65.1964,50.794 67,47.5C 66.9856,41.0443 67.1523,34.8776 67.5,29C 65.7515,27.5048 65.4182,25.5048 66.5,23C 65.3333,16.1667 64.1667,9.33333 63,2.5C 60.1737,0.660192 57.0071,-0.00647424 53.5,0.5 Z"/></g>
<g><path style="opacity:1" fill="#0a2821" d="M 69.5,-0.5 C 77.1667,-0.5 84.8333,-0.5 92.5,-0.5C 92.5,-0.166667 92.5,0.166667 92.5,0.5C 91.1331,3.46628 90.1331,6.63294 89.5,10C 89.5,13.6667 89.5,17.3333 89.5,21C 88.0267,21.7096 87.3601,22.8762 87.5,24.5C 86.6236,24.3691 85.9569,24.7025 85.5,25.5C 88.7328,30.9618 91.7328,36.6284 94.5,42.5C 92.8061,44.8606 90.8061,46.8606 88.5,48.5C 82.9979,52.0855 77.3312,55.4188 71.5,58.5C 70.3623,53.5072 71.029,48.3405 73.5,43C 73.3521,36.8534 73.3521,30.6867 73.5,24.5C 73.3507,22.6803 72.6841,21.1803 71.5,20C 73.0093,18.3264 73.6759,16.6597 73.5,15C 70.8333,14.3333 70.8333,13.6667 73.5,13C 72.7402,11.5589 72.0736,10.0589 71.5,8.5C 72.6682,7.0944 72.3348,5.92773 70.5,5C 70.6651,3.8831 70.9984,2.71644 71.5,1.5C 70.7573,0.818153 70.0906,0.151487 69.5,-0.5 Z"/></g>
<g><path style="opacity:1" fill="#1a5647" d="M 108.5,-0.5 C 117.5,-0.5 126.5,-0.5 135.5,-0.5C 133.167,2.16667 130.833,4.83333 128.5,7.5C 127.167,7.5 125.833,7.5 124.5,7.5C 118.849,5.34115 113.516,2.67448 108.5,-0.5 Z"/></g>
<g><path style="opacity:1" fill="#1e715c" d="M 166.5,-0.5 C 196.167,-0.5 225.833,-0.5 255.5,-0.5C 255.5,25.8333 255.5,52.1667 255.5,78.5C 254.883,78.3893 254.383,78.056 254,77.5C 251.491,79.9997 248.491,81.6663 245,82.5C 242.923,83.3783 240.59,83.3783 238,82.5C 237.667,83.5 237.333,84.5 237,85.5C 233.683,85.3249 230.016,85.3249 226,85.5C 225,86.1667 224,86.8333 223,87.5C 221.306,86.3012 219.806,84.9678 218.5,83.5C 216.214,78.5688 213.214,74.2354 209.5,70.5C 209.833,69.8333 210.167,69.1667 210.5,68.5C 208.579,66.0515 206.079,63.3848 203,60.5C 201.404,57.6305 199.57,54.9639 197.5,52.5C 200.416,52.8933 203.083,53.8933 205.5,55.5C 207.042,54.2532 208.542,54.2532 210,55.5C 211.402,53.0266 212.902,53.0266 214.5,55.5C 216.548,54.917 218.381,54.917 220,55.5C 219.923,54.2624 220.089,53.2624 220.5,52.5C 221.251,53.376 221.751,54.376 222,55.5C 223.126,51.4227 225.126,50.756 228,53.5C 229.512,52.7433 230.846,51.7433 232,50.5C 233.43,50.3062 234.93,50.3062 236.5,50.5C 238.52,46.9808 241.52,44.8141 245.5,44C 246.167,43.3333 246.833,42.6667 247.5,42C 247.165,40.4974 247.165,39.164 247.5,38C 250.464,37.1597 250.797,36.1597 248.5,35C 249.212,32.1359 249.545,29.1359 249.5,26C 248.016,24.4263 246.349,23.093 244.5,22C 245.167,21.3333 245.833,20.6667 246.5,20C 244.199,18.884 241.865,18.0507 239.5,17.5C 239.5,16.5 239.5,15.5 239.5,14.5C 238.5,14.5 237.5,14.5 236.5,14.5C 236.587,11.4017 236.087,11.0684 235,13.5C 234.667,12.8333 234.333,12.1667 234,11.5C 231.774,13.1587 230.107,12.492 229,9.5C 228,10.1667 227,10.8333 226,11.5C 222.44,9.92621 218.94,8.25954 215.5,6.5C 213.833,7.83333 212.167,7.83333 210.5,6.5C 209.808,7.02527 209.308,7.69194 209,8.5C 208.692,7.69194 208.192,7.02527 207.5,6.5C 206.167,7.83333 204.833,7.83333 203.5,6.5C 202.252,7.04022 201.085,7.70689 200,8.5C 199.333,5.83333 198.667,5.83333 198,8.5C 197.667,7.83333 197.333,7.16667 197,6.5C 194.1,9.22536 191.1,9.55869 188,7.5C 186.855,8.63638 185.688,9.63638 184.5,10.5C 179.429,9.31024 174.429,7.81024 169.5,6C 168.871,3.62522 167.871,1.45855 166.5,-0.5 Z"/></g>
<g><path style="opacity:1" fill="#123b31" d="M 92.5,0.5 C 96.4736,2.11682 100.474,3.78349 104.5,5.5C 106.284,5.89254 107.95,6.5592 109.5,7.5C 112.34,9.91509 115.673,11.2484 119.5,11.5C 119.859,14.2367 121.193,16.2367 123.5,17.5C 118.297,15.3506 112.964,15.0172 107.5,16.5C 100.852,16.2479 99.8519,18.2479 104.5,22.5C 104.737,23.791 104.404,24.791 103.5,25.5C 98.3909,26.1973 93.7242,25.1973 89.5,22.5C 88.537,22.9698 88.537,23.6365 89.5,24.5C 89.2144,26.9327 88.5477,26.9327 87.5,24.5C 87.3601,22.8762 88.0267,21.7096 89.5,21C 89.5,17.3333 89.5,13.6667 89.5,10C 90.1331,6.63294 91.1331,3.46628 92.5,0.5 Z"/></g>
<g><path style="opacity:1" fill="#5c2e2c" d="M 92.5,0.5 C 92.5,0.166667 92.5,-0.166667 92.5,-0.5C 94.1667,-0.5 95.8333,-0.5 97.5,-0.5C 98.209,0.403972 99.209,0.737305 100.5,0.5C 102.183,1.85341 103.516,3.52007 104.5,5.5C 100.474,3.78349 96.4736,2.11682 92.5,0.5 Z"/></g>
<g><path style="opacity:1" fill="#4ca1a3" d="M 135.5,-0.5 C 140.833,-0.5 146.167,-0.5 151.5,-0.5C 150.297,1.63449 148.463,2.96782 146,3.5C 145.26,4.74943 145.427,5.74943 146.5,6.5C 144.046,9.28132 141.046,11.2813 137.5,12.5C 138.697,8.96872 140.697,5.96872 143.5,3.5C 143.167,3.16667 142.833,2.83333 142.5,2.5C 139.815,5.18965 137.482,8.18965 135.5,11.5C 134.155,10.6533 133.155,9.4866 132.5,8C 131.207,7.50999 129.873,7.34332 128.5,7.5C 130.833,4.83333 133.167,2.16667 135.5,-0.5 Z"/></g>
<g><path style="opacity:1" fill="#161c28" d="M 40.5,-0.5 C 43.1667,-0.5 45.8333,-0.5 48.5,-0.5C 47.3398,1.20266 48.0065,1.86932 50.5,1.5C 48.9767,4.36437 46.6433,6.03104 43.5,6.5C 41.1137,6.25873 39.1137,6.9254 37.5,8.5C 37.9143,5.25691 38.9143,2.25691 40.5,-0.5 Z"/></g>
<g><path style="opacity:1" fill="#e06564" d="M 97.5,-0.5 C 100.167,-0.5 102.833,-0.5 105.5,-0.5C 109.5,1.83333 113.5,4.16667 117.5,6.5C 111.94,4.2212 106.274,2.2212 100.5,0.5C 99.209,0.737305 98.209,0.403972 97.5,-0.5 Z"/></g>
<g><path style="opacity:1" fill="#765852" d="M 151.5,-0.5 C 152.167,-0.5 152.833,-0.5 153.5,-0.5C 151.5,2.16667 149.167,4.5 146.5,6.5C 145.427,5.74943 145.26,4.74943 146,3.5C 148.463,2.96782 150.297,1.63449 151.5,-0.5 Z"/></g>
<g><path style="opacity:1" fill="#dfe8f3" d="M 161.5,-0.5 C 163.167,-0.5 164.833,-0.5 166.5,-0.5C 167.871,1.45855 168.871,3.62522 169.5,6C 174.429,7.81024 179.429,9.31024 184.5,10.5C 186.892,13.3412 188.392,16.6746 189,20.5C 191.586,22.5448 194.42,24.2115 197.5,25.5C 198.386,26.325 198.719,27.325 198.5,28.5C 198.5,29.8333 197.833,30.5 196.5,30.5C 192.221,30.5443 189.888,28.5443 189.5,24.5C 187.67,22.1737 186.337,19.507 185.5,16.5C 184.15,15.0499 182.484,14.3832 180.5,14.5C 179.735,14.9234 178.902,15.2568 178,15.5C 174.705,12.6026 170.872,10.936 166.5,10.5C 166.082,9.77842 165.416,9.27842 164.5,9C 160.514,8.50115 156.514,8.33449 152.5,8.5C 149.961,7.09321 150.294,5.92654 153.5,5C 156.146,4.50258 158.813,4.33591 161.5,4.5C 161.5,2.83333 161.5,1.16667 161.5,-0.5 Z"/></g>
<g><path style="opacity:1" fill="#1f7861" d="M 197.5,52.5 C 196.124,50.9184 195.124,49.0851 194.5,47C 197.983,41.0702 199.317,34.9035 198.5,28.5C 198.719,27.325 198.386,26.325 197.5,25.5C 194.42,24.2115 191.586,22.5448 189,20.5C 188.392,16.6746 186.892,13.3412 184.5,10.5C 185.688,9.63638 186.855,8.63638 188,7.5C 191.1,9.55869 194.1,9.22536 197,6.5C 197.333,7.16667 197.667,7.83333 198,8.5C 198.667,5.83333 199.333,5.83333 200,8.5C 201.085,7.70689 202.252,7.04022 203.5,6.5C 204.833,7.83333 206.167,7.83333 207.5,6.5C 208.192,7.02527 208.692,7.69194 209,8.5C 209.308,7.69194 209.808,7.02527 210.5,6.5C 212.167,7.83333 213.833,7.83333 215.5,6.5C 218.94,8.25954 222.44,9.92621 226,11.5C 227,10.8333 228,10.1667 229,9.5C 230.107,12.492 231.774,13.1587 234,11.5C 234.333,12.1667 234.667,12.8333 235,13.5C 236.087,11.0684 236.587,11.4017 236.5,14.5C 237.5,14.5 238.5,14.5 239.5,14.5C 239.5,15.5 239.5,16.5 239.5,17.5C 241.865,18.0507 244.199,18.884 246.5,20C 245.833,20.6667 245.167,21.3333 244.5,22C 246.349,23.093 248.016,24.4263 249.5,26C 249.545,29.1359 249.212,32.1359 248.5,35C 250.797,36.1597 250.464,37.1597 247.5,38C 247.165,39.164 247.165,40.4974 247.5,42C 246.833,42.6667 246.167,43.3333 245.5,44C 241.52,44.8141 238.52,46.9808 236.5,50.5C 234.93,50.3062 233.43,50.3062 232,50.5C 230.846,51.7433 229.512,52.7433 228,53.5C 225.126,50.756 223.126,51.4227 222,55.5C 221.751,54.376 221.251,53.376 220.5,52.5C 220.089,53.2624 219.923,54.2624 220,55.5C 218.381,54.917 216.548,54.917 214.5,55.5C 212.902,53.0266 211.402,53.0266 210,55.5C 208.542,54.2532 207.042,54.2532 205.5,55.5C 203.083,53.8933 200.416,52.8933 197.5,52.5 Z"/></g>
<g><path style="opacity:1" fill="#050f0e" d="M 50.5,1.5 C 50.8333,1.5 51.1667,1.5 51.5,1.5C 53.3423,3.52767 54.6756,6.02767 55.5,9C 55.3552,9.77203 55.0219,10.4387 54.5,11C 56.6785,11.4419 57.3452,12.4419 56.5,14C 57.2494,17.075 58.2494,20.075 59.5,23C 59.4657,27.0263 59.299,31.193 59,35.5C 54.915,35.4243 51.415,33.591 48.5,30C 47.2068,29.51 45.8734,29.3433 44.5,29.5C 43.5128,32.4872 41.5128,34.4872 38.5,35.5C 36.7962,38.2558 35.4629,41.2558 34.5,44.5C 34.6148,52.3828 31.4481,58.3828 25,62.5C 23.9701,62.1639 23.4701,61.4972 23.5,60.5C 25.451,60.7733 26.951,60.1066 28,58.5C 31.9012,46.2919 36.0679,34.2919 40.5,22.5C 40.4928,19.9621 40.1595,17.4621 39.5,15C 39.8046,11.5399 41.138,8.70656 43.5,6.5C 46.6433,6.03104 48.9767,4.36437 50.5,1.5 Z"/></g>
<g><path style="opacity:1" fill="#97413b" d="M 100.5,0.5 C 106.274,2.2212 111.94,4.2212 117.5,6.5C 118.209,7.40397 119.209,7.73731 120.5,7.5C 120.5,9.16667 120.5,10.8333 120.5,12.5C 121.822,12.67 122.989,12.3366 124,11.5C 124.698,12.6906 125.531,13.6906 126.5,14.5C 125.596,15.209 125.263,16.209 125.5,17.5C 124.833,17.5 124.167,17.5 123.5,17.5C 121.193,16.2367 119.859,14.2367 119.5,11.5C 119.578,8.51331 118.411,7.84664 116,9.5C 113.953,8.39057 111.787,7.7239 109.5,7.5C 107.95,6.5592 106.284,5.89254 104.5,5.5C 103.516,3.52007 102.183,1.85341 100.5,0.5 Z"/></g>
<g><path style="opacity:1" fill="#481e21" d="M 109.5,7.5 C 111.787,7.7239 113.953,8.39057 116,9.5C 118.411,7.84664 119.578,8.51331 119.5,11.5C 115.673,11.2484 112.34,9.91509 109.5,7.5 Z"/></g>
<g><path style="opacity:1" fill="#8db9c0" d="M 153.5,-0.5 C 154.167,-0.5 154.833,-0.5 155.5,-0.5C 154.71,0.794229 153.71,1.9609 152.5,3C 154.473,3.49546 156.473,3.66212 158.5,3.5C 158.567,2.04125 158.234,0.707917 157.5,-0.5C 158.833,-0.5 160.167,-0.5 161.5,-0.5C 161.5,1.16667 161.5,2.83333 161.5,4.5C 158.813,4.33591 156.146,4.50258 153.5,5C 150.294,5.92654 149.961,7.09321 152.5,8.5C 150.091,8.02397 147.758,8.69063 145.5,10.5C 144.9,11.9002 143.9,12.9002 142.5,13.5C 141.833,13.5 141.167,13.5 140.5,13.5C 139.833,13.5 139.167,13.5 138.5,13.5C 136.5,13.5 134.5,13.5 132.5,13.5C 132.5,13.1667 132.5,12.8333 132.5,12.5C 134.167,12.5 135.833,12.5 137.5,12.5C 141.046,11.2813 144.046,9.28132 146.5,6.5C 149.167,4.5 151.5,2.16667 153.5,-0.5 Z"/></g>
<g><path style="opacity:1" fill="#4e878f" d="M 155.5,-0.5 C 156.167,-0.5 156.833,-0.5 157.5,-0.5C 158.234,0.707917 158.567,2.04125 158.5,3.5C 156.473,3.66212 154.473,3.49546 152.5,3C 153.71,1.9609 154.71,0.794229 155.5,-0.5 Z"/></g>
<g><path style="opacity:1" fill="#e99b9b" d="M 105.5,-0.5 C 106.5,-0.5 107.5,-0.5 108.5,-0.5C 113.516,2.67448 118.849,5.34115 124.5,7.5C 126.631,8.31382 128.964,8.81382 131.5,9C 132.337,10.0113 132.67,11.1779 132.5,12.5C 132.5,12.8333 132.5,13.1667 132.5,13.5C 131.209,13.2627 130.209,13.596 129.5,14.5C 128.5,14.5 127.5,14.5 126.5,14.5C 125.531,13.6906 124.698,12.6906 124,11.5C 122.989,12.3366 121.822,12.67 120.5,12.5C 120.5,10.8333 120.5,9.16667 120.5,7.5C 119.209,7.73731 118.209,7.40397 117.5,6.5C 113.5,4.16667 109.5,1.83333 105.5,-0.5 Z"/></g>
<g><path style="opacity:1" fill="#4d676a" d="M 137.5,12.5 C 135.833,12.5 134.167,12.5 132.5,12.5C 132.67,11.1779 132.337,10.0113 131.5,9C 128.964,8.81382 126.631,8.31382 124.5,7.5C 125.833,7.5 127.167,7.5 128.5,7.5C 129.873,7.34332 131.207,7.50999 132.5,8C 133.155,9.4866 134.155,10.6533 135.5,11.5C 137.482,8.18965 139.815,5.18965 142.5,2.5C 142.833,2.83333 143.167,3.16667 143.5,3.5C 140.697,5.96872 138.697,8.96872 137.5,12.5 Z"/></g>
<g><path style="opacity:1" fill="#dde5f0" d="M 132.5,13.5 C 134.5,13.5 136.5,13.5 138.5,13.5C 138.611,14.1174 138.944,14.6174 139.5,15C 135.973,15.8075 132.64,15.6408 129.5,14.5C 130.209,13.596 131.209,13.2627 132.5,13.5 Z"/></g>
<g><path style="opacity:1" fill="#d4dee7" d="M 123.5,17.5 C 124.167,17.5 124.833,17.5 125.5,17.5C 125.5,19.1667 125.5,20.8333 125.5,22.5C 124.833,22.5 124.167,22.5 123.5,22.5C 121.5,21.5 119.5,20.5 117.5,19.5C 116.081,18.5489 114.415,18.2155 112.5,18.5C 110.219,18.9227 108.552,18.256 107.5,16.5C 112.964,15.0172 118.297,15.3506 123.5,17.5 Z"/></g>
<g><path style="opacity:1" fill="#44b7ba" d="M 152.5,8.5 C 156.514,8.33449 160.514,8.50115 164.5,9C 165.416,9.27842 166.082,9.77842 166.5,10.5C 165.424,13.8705 164.424,17.2039 163.5,20.5C 162.853,21.2739 162.52,22.2739 162.5,23.5C 162.875,25.9162 163.541,28.2496 164.5,30.5C 163.176,40.9955 161.176,41.1621 158.5,31C 160.379,29.0027 160.712,26.836 159.5,24.5C 158.914,24.7093 158.414,25.0426 158,25.5C 157.023,23.26 156.523,20.9267 156.5,18.5C 154.928,13.3585 151.262,10.6918 145.5,10.5C 147.758,8.69063 150.091,8.02397 152.5,8.5 Z"/></g>
<g><path style="opacity:1" fill="#672828" d="M 36.5,-0.5 C 37.8333,-0.5 39.1667,-0.5 40.5,-0.5C 38.9143,2.25691 37.9143,5.25691 37.5,8.5C 37.0962,9.75644 36.4295,10.9231 35.5,12C 36.2293,17.4742 36.0627,22.9742 35,28.5C 33.3677,32.0325 32.2011,35.6992 31.5,39.5C 29.1904,42.1019 27.3571,45.1019 26,48.5C 23.6232,50.4095 21.4565,52.4095 19.5,54.5C 19.3433,53.1266 19.51,51.7932 20,50.5C 23.0171,46.466 25.5171,42.1327 27.5,37.5C 29.0739,35.8984 29.7406,33.8984 29.5,31.5C 30.5585,30.3998 31.3918,29.0664 32,27.5C 32.5206,22.1483 33.1872,16.8149 34,11.5C 36.6782,7.69592 37.5115,3.69592 36.5,-0.5 Z"/></g>
<g><path style="opacity:1" fill="#47d0d6" d="M 166.5,10.5 C 170.872,10.936 174.705,12.6026 178,15.5C 178.902,15.2568 179.735,14.9234 180.5,14.5C 181.473,16.0683 181.64,17.735 181,19.5C 180.085,18.6721 179.419,17.6721 179,16.5C 178.667,18.8333 178.333,21.1667 178,23.5C 177.107,22.2888 176.274,22.2888 175.5,23.5C 174.252,26.4937 174.252,29.4937 175.5,32.5C 176.417,33.1272 177.417,33.4606 178.5,33.5C 178.785,35.288 178.452,36.9547 177.5,38.5C 175.202,35.5695 173.035,33.2362 171,31.5C 170.71,33.9519 170.044,36.2852 169,38.5C 168.009,37.5704 167.509,36.4038 167.5,35C 169.689,30.2032 168.523,26.7032 164,24.5C 163.51,23.2068 163.343,21.8734 163.5,20.5C 164.424,17.2039 165.424,13.8705 166.5,10.5 Z"/></g>
<g><path style="opacity:1" fill="#47dde0" d="M 156.5,18.5 C 156.5,17.1667 156.5,15.8333 156.5,14.5C 158.5,14.5 160.5,14.5 162.5,14.5C 162.067,17.1656 161.567,19.8323 161,22.5C 159.306,21.3012 157.806,19.9678 156.5,18.5 Z"/></g>
<g><path style="opacity:1" fill="#04100d" d="M 29.5,31.5 C 29.7406,33.8984 29.0739,35.8984 27.5,37.5C 27.5,36.1667 27.5,34.8333 27.5,33.5C 25.8762,33.6399 24.7096,32.9733 24,31.5C 23.6667,31.8333 23.3333,32.1667 23,32.5C 22.6667,31.1667 22.3333,29.8333 22,28.5C 19.2017,30.698 16.035,32.0314 12.5,32.5C 9.59407,31.4717 6.76074,31.4717 4,32.5C 3.66667,31.8333 3.33333,31.1667 3,30.5C 1.20598,33.7091 0.0393089,37.0425 -0.5,40.5C -0.5,33.5 -0.5,26.5 -0.5,19.5C 3.30178,18.9722 6.80178,17.6389 10,15.5C 13.0931,17.7711 16.5931,18.9377 20.5,19C 26.0425,21.3705 29.0425,25.5371 29.5,31.5 Z"/></g>
<g><path style="opacity:1" fill="#64aeb3" d="M 138.5,13.5 C 139.167,13.5 139.833,13.5 140.5,13.5C 142.692,16.5498 144.358,19.8832 145.5,23.5C 143.883,22.962 142.216,22.6287 140.5,22.5C 137.417,25.1431 136.083,24.1431 136.5,19.5C 133.32,18.674 130.32,17.3407 127.5,15.5C 126.893,15.6236 126.56,15.9569 126.5,16.5C 126.5,17.1667 126.167,17.5 125.5,17.5C 125.263,16.209 125.596,15.209 126.5,14.5C 127.5,14.5 128.5,14.5 129.5,14.5C 132.64,15.6408 135.973,15.8075 139.5,15C 138.944,14.6174 138.611,14.1174 138.5,13.5 Z"/></g>
<g><path style="opacity:1" fill="#06252b" d="M 108.5,34.5 C 107.833,34.5 107.167,34.5 106.5,34.5C 105.871,31.6027 104.871,28.936 103.5,26.5C 103.5,26.1667 103.5,25.8333 103.5,25.5C 104.404,24.791 104.737,23.791 104.5,22.5C 104.5,21.5 104.5,20.5 104.5,19.5C 106.833,19.5 109.167,19.5 111.5,19.5C 112.329,22.4686 112.495,25.4686 112,28.5C 109.772,29.8915 108.606,31.8915 108.5,34.5 Z"/></g>
<g><path style="opacity:1" fill="#326663" d="M 126.5,16.5 C 126.56,15.9569 126.893,15.6236 127.5,15.5C 130.32,17.3407 133.32,18.674 136.5,19.5C 136.083,24.1431 137.417,25.1431 140.5,22.5C 140.5,23.5 140.5,24.5 140.5,25.5C 139.325,25.281 138.325,25.6143 137.5,26.5C 138.77,27.2876 139.77,28.2876 140.5,29.5C 139.833,29.5 139.167,29.5 138.5,29.5C 136.49,28.0519 134.323,26.7185 132,25.5C 131.157,21.7996 129.324,18.7996 126.5,16.5 Z"/></g>
<g><path style="opacity:1" fill="#61bac4" d="M 103.5,25.5 C 103.5,25.8333 103.5,26.1667 103.5,26.5C 103.53,27.4972 103.03,28.1639 102,28.5C 99.9289,29.0609 97.9289,29.3943 96,29.5C 93.683,28.0148 91.5164,26.3481 89.5,24.5C 88.537,23.6365 88.537,22.9698 89.5,22.5C 93.7242,25.1973 98.3909,26.1973 103.5,25.5 Z"/></g>
<g><path style="opacity:1" fill="#223535" d="M 126.5,16.5 C 129.324,18.7996 131.157,21.7996 132,25.5C 134.323,26.7185 136.49,28.0519 138.5,29.5C 138.287,32.4509 138.954,35.1175 140.5,37.5C 138.833,37.5 137.167,37.5 135.5,37.5C 135.5,40.1667 135.5,42.8333 135.5,45.5C 135.167,45.5 134.833,45.5 134.5,45.5C 134.665,41.8183 134.499,38.1516 134,34.5C 133.617,35.056 133.117,35.3893 132.5,35.5C 133.323,33.5454 133.49,31.5454 133,29.5C 132.768,30.7375 132.268,31.7375 131.5,32.5C 131.5,31.8333 131.167,31.5 130.5,31.5C 130.66,29.8008 130.494,28.1341 130,26.5C 129.31,25.2617 128.81,25.2617 128.5,26.5C 127.504,26.4142 126.671,26.7476 126,27.5C 125.506,25.8659 125.34,24.1992 125.5,22.5C 125.5,20.8333 125.5,19.1667 125.5,17.5C 126.167,17.5 126.5,17.1667 126.5,16.5 Z"/></g>
<g><path style="opacity:1" fill="#5d3938" d="M 130.5,31.5 C 129.21,32.0577 128.377,33.0577 128,34.5C 128.083,31.8806 128.25,29.214 128.5,26.5C 128.81,25.2617 129.31,25.2617 130,26.5C 130.494,28.1341 130.66,29.8008 130.5,31.5 Z"/></g>
<g><path style="opacity:1" fill="#16484b" d="M 140.5,25.5 C 142.939,29.2746 144.939,33.2746 146.5,37.5C 148.224,40.4543 149.557,43.621 150.5,47C 150.613,48.6991 149.947,49.8658 148.5,50.5C 147.62,46.6347 146.287,42.9681 144.5,39.5C 143.607,35.9575 142.274,32.6242 140.5,29.5C 139.77,28.2876 138.77,27.2876 137.5,26.5C 138.325,25.6143 139.325,25.281 140.5,25.5 Z"/></g>
<g><path style="opacity:1" fill="#081c17" d="M 27.5,37.5 C 25.5171,42.1327 23.0171,46.466 20,50.5C 19.51,51.7932 19.3433,53.1266 19.5,54.5C 18.8243,51.9938 17.8243,49.4938 16.5,47C 16.9444,45.2382 17.4444,45.4049 18,47.5C 18.6667,46.1667 18.6667,44.8333 18,43.5C 16.2215,44.4791 14.5548,44.1458 13,42.5C 10.6068,44.994 9.44014,44.3273 9.5,40.5C 8.5,40.5 7.5,40.5 6.5,40.5C 6.76164,43.9209 5.4283,44.9209 2.5,43.5C 1.74917,44.376 1.24917,45.376 1,46.5C 0.500649,51.8229 0.333983,57.1563 0.5,62.5C 0.737305,63.791 0.403972,64.791 -0.5,65.5C -0.5,57.1667 -0.5,48.8333 -0.5,40.5C 0.0393089,37.0425 1.20598,33.7091 3,30.5C 3.33333,31.1667 3.66667,31.8333 4,32.5C 6.76074,31.4717 9.59407,31.4717 12.5,32.5C 16.035,32.0314 19.2017,30.698 22,28.5C 22.3333,29.8333 22.6667,31.1667 23,32.5C 23.3333,32.1667 23.6667,31.8333 24,31.5C 24.7096,32.9733 25.8762,33.6399 27.5,33.5C 27.5,34.8333 27.5,36.1667 27.5,37.5 Z"/></g>
<g><path style="opacity:1" fill="#215257" d="M 107.5,16.5 C 108.552,18.256 110.219,18.9227 112.5,18.5C 112.75,19.9221 113.583,20.9221 115,21.5C 115.498,24.8168 115.665,28.1501 115.5,31.5C 114.209,31.2627 113.209,31.596 112.5,32.5C 111.5,33.1667 110.5,33.8333 109.5,34.5C 109.167,34.5 108.833,34.5 108.5,34.5C 108.606,31.8915 109.772,29.8915 112,28.5C 112.495,25.4686 112.329,22.4686 111.5,19.5C 109.167,19.5 106.833,19.5 104.5,19.5C 104.5,20.5 104.5,21.5 104.5,22.5C 99.8519,18.2479 100.852,16.2479 107.5,16.5 Z"/></g>
<g><path style="opacity:1" fill="#2a9597" d="M 140.5,22.5 C 142.216,22.6287 143.883,22.962 145.5,23.5C 148.551,29.1462 150.051,35.1462 150,41.5C 149.584,39.4497 148.417,38.1164 146.5,37.5C 144.939,33.2746 142.939,29.2746 140.5,25.5C 140.5,24.5 140.5,23.5 140.5,22.5 Z"/></g>
<g><path style="opacity:1" fill="#333244" d="M 43.5,6.5 C 41.138,8.70656 39.8046,11.5399 39.5,15C 40.1595,17.4621 40.4928,19.9621 40.5,22.5C 37.7032,28.1807 34.7032,33.8474 31.5,39.5C 32.2011,35.6992 33.3677,32.0325 35,28.5C 36.0627,22.9742 36.2293,17.4742 35.5,12C 36.4295,10.9231 37.0962,9.75644 37.5,8.5C 39.1137,6.9254 41.1137,6.25873 43.5,6.5 Z"/></g>
<g><path style="opacity:1" fill="#15656e" d="M 87.5,24.5 C 88.5477,26.9327 89.2144,26.9327 89.5,24.5C 91.5164,26.3481 93.683,28.0148 96,29.5C 97.9289,29.3943 99.9289,29.0609 102,28.5C 103.03,28.1639 103.53,27.4972 103.5,26.5C 104.871,28.936 105.871,31.6027 106.5,34.5C 102.228,36.7744 98.228,39.4411 94.5,42.5C 91.7328,36.6284 88.7328,30.9618 85.5,25.5C 85.9569,24.7025 86.6236,24.3691 87.5,24.5 Z"/></g>
<g><path style="opacity:1" fill="#2b494b" d="M 117.5,19.5 C 119.5,20.5 121.5,21.5 123.5,22.5C 123.762,23.9778 123.429,25.3112 122.5,26.5C 118.358,29.0629 118.691,30.8963 123.5,32C 122.619,32.7083 121.953,33.5416 121.5,34.5C 120.035,35.7368 118.368,36.7368 116.5,37.5C 116.074,36.4721 116.074,35.1388 116.5,33.5C 117.873,33.6567 119.207,33.49 120.5,33C 118.487,32.3203 117.154,30.987 116.5,29C 117.367,25.8948 117.701,22.7281 117.5,19.5 Z"/></g>
<g><path style="opacity:1" fill="#3ab0b5" d="M 180.5,14.5 C 182.484,14.3832 184.15,15.0499 185.5,16.5C 186.337,19.507 187.67,22.1737 189.5,24.5C 189.146,30.0391 188.146,35.3725 186.5,40.5C 185.963,45.2214 185.296,49.888 184.5,54.5C 183.883,54.3893 183.383,54.056 183,53.5C 182.045,45.1845 181.211,36.8512 180.5,28.5C 179.438,30.0217 178.771,31.6883 178.5,33.5C 177.417,33.4606 176.417,33.1272 175.5,32.5C 174.252,29.4937 174.252,26.4937 175.5,23.5C 176.274,22.2888 177.107,22.2888 178,23.5C 178.333,21.1667 178.667,18.8333 179,16.5C 179.419,17.6721 180.085,18.6721 181,19.5C 181.64,17.735 181.473,16.0683 180.5,14.5 Z"/></g>
<g><path style="opacity:1" fill="#673230" d="M 132.5,35.5 C 132.167,35.5 131.833,35.5 131.5,35.5C 131.167,35.5 130.833,35.5 130.5,35.5C 130.557,34.391 130.89,33.391 131.5,32.5C 132.268,31.7375 132.768,30.7375 133,29.5C 133.49,31.5454 133.323,33.5454 132.5,35.5 Z"/></g>
<g><path style="opacity:1" fill="#516751" d="M 138.5,29.5 C 139.167,29.5 139.833,29.5 140.5,29.5C 142.274,32.6242 143.607,35.9575 144.5,39.5C 142.801,39.4729 141.467,38.8062 140.5,37.5C 138.954,35.1175 138.287,32.4509 138.5,29.5 Z"/></g>
<g><path style="opacity:1" fill="#578588" d="M 123.5,22.5 C 124.167,22.5 124.833,22.5 125.5,22.5C 125.34,24.1992 125.506,25.8659 126,27.5C 126.671,26.7476 127.504,26.4142 128.5,26.5C 128.25,29.214 128.083,31.8806 128,34.5C 128.377,33.0577 129.21,32.0577 130.5,31.5C 131.167,31.5 131.5,31.8333 131.5,32.5C 130.89,33.391 130.557,34.391 130.5,35.5C 129.662,35.8417 129.328,36.5084 129.5,37.5C 128.749,40.246 127.749,42.9127 126.5,45.5C 127.01,42.6122 126.344,40.2789 124.5,38.5C 124.158,37.6618 123.492,37.3284 122.5,37.5C 125.1,36.0311 124.767,35.0311 121.5,34.5C 121.953,33.5416 122.619,32.7083 123.5,32C 118.691,30.8963 118.358,29.0629 122.5,26.5C 123.429,25.3112 123.762,23.9778 123.5,22.5 Z"/></g>
<g><path style="opacity:1" fill="#496f78" d="M 189.5,24.5 C 189.888,28.5443 192.221,30.5443 196.5,30.5C 196.5,30.8333 196.5,31.1667 196.5,31.5C 194.193,31.0137 192.027,31.0137 190,31.5C 190.598,34.0268 191.098,36.6934 191.5,39.5C 190.696,48.2862 189.029,48.6196 186.5,40.5C 188.146,35.3725 189.146,30.0391 189.5,24.5 Z"/></g>
<g><path style="opacity:1" fill="#788e97" d="M 198.5,28.5 C 199.317,34.9035 197.983,41.0702 194.5,47C 195.124,49.0851 196.124,50.9184 197.5,52.5C 199.57,54.9639 201.404,57.6305 203,60.5C 206.079,63.3848 208.579,66.0515 210.5,68.5C 209.527,68.0133 208.527,67.5133 207.5,67C 202.968,61.6382 198.301,56.4716 193.5,51.5C 194.909,44.9233 195.909,38.2566 196.5,31.5C 196.5,31.1667 196.5,30.8333 196.5,30.5C 197.833,30.5 198.5,29.8333 198.5,28.5 Z"/></g>
<g><path style="opacity:1" fill="#2b7075" d="M 134.5,45.5 C 134.631,46.3764 134.298,47.0431 133.5,47.5C 132.509,43.5546 132.176,39.5546 132.5,35.5C 133.117,35.3893 133.617,35.056 134,34.5C 134.499,38.1516 134.665,41.8183 134.5,45.5 Z"/></g>
<g><path style="opacity:1" fill="#6eb4ba" d="M 106.5,34.5 C 107.167,34.5 107.833,34.5 108.5,34.5C 108.833,34.5 109.167,34.5 109.5,34.5C 103.5,39.5 97.5,44.5 91.5,49.5C 91.5,50.1667 91.1667,50.5 90.5,50.5C 90.631,49.7611 90.4643,49.0944 90,48.5C 89.31,49.7383 88.81,49.7383 88.5,48.5C 90.8061,46.8606 92.8061,44.8606 94.5,42.5C 98.228,39.4411 102.228,36.7744 106.5,34.5 Z"/></g>
<g><path style="opacity:1" fill="#a3cfde" d="M 112.5,32.5 C 113.239,32.369 113.906,32.5357 114.5,33C 109.429,37.1851 104.429,41.3518 99.5,45.5C 97.2048,46.4746 95.2048,47.8079 93.5,49.5C 92.8333,49.5 92.1667,49.5 91.5,49.5C 97.5,44.5 103.5,39.5 109.5,34.5C 110.5,33.8333 111.5,33.1667 112.5,32.5 Z"/></g>
<g><path style="opacity:1" fill="#a44036" d="M 130.5,35.5 C 130.833,35.5 131.167,35.5 131.5,35.5C 131.888,40.6278 131.388,45.6278 130,50.5C 129.501,46.1794 129.334,41.8461 129.5,37.5C 129.328,36.5084 129.662,35.8417 130.5,35.5 Z"/></g>
<g><path style="opacity:1" fill="#277677" d="M 140.5,13.5 C 141.167,13.5 141.833,13.5 142.5,13.5C 145.279,17.1485 148.112,20.8152 151,24.5C 151.219,23.062 151.719,21.7287 152.5,20.5C 153.318,23.1071 153.818,25.7737 154,28.5C 155.229,26.0532 156.729,25.8865 158.5,28C 157.391,29.8761 156.391,31.7095 155.5,33.5C 154.538,35.5371 153.204,38.0371 151.5,41C 154.425,44.4562 155.092,48.2895 153.5,52.5C 152.542,52.0472 151.708,51.3805 151,50.5C 150.487,51.5266 149.987,52.5266 149.5,53.5C 149.167,53.5 148.833,53.5 148.5,53.5C 147.833,53.5 147.167,53.5 146.5,53.5C 147.167,52.5 147.833,51.5 148.5,50.5C 149.947,49.8658 150.613,48.6991 150.5,47C 149.557,43.621 148.224,40.4543 146.5,37.5C 148.417,38.1164 149.584,39.4497 150,41.5C 150.051,35.1462 148.551,29.1462 145.5,23.5C 144.358,19.8832 142.692,16.5498 140.5,13.5 Z"/></g>
<g><path style="opacity:1" fill="#349f9c" d="M 145.5,10.5 C 151.262,10.6918 154.928,13.3585 156.5,18.5C 156.523,20.9267 157.023,23.26 158,25.5C 158.414,25.0426 158.914,24.7093 159.5,24.5C 160.712,26.836 160.379,29.0027 158.5,31C 161.176,41.1621 163.176,40.9955 164.5,30.5C 163.541,28.2496 162.875,25.9162 162.5,23.5C 162.52,22.2739 162.853,21.2739 163.5,20.5C 163.343,21.8734 163.51,23.2068 164,24.5C 168.523,26.7032 169.689,30.2032 167.5,35C 167.509,36.4038 168.009,37.5704 169,38.5C 170.044,36.2852 170.71,33.9519 171,31.5C 173.035,33.2362 175.202,35.5695 177.5,38.5C 178.452,36.9547 178.785,35.288 178.5,33.5C 178.771,31.6883 179.438,30.0217 180.5,28.5C 181.211,36.8512 182.045,45.1845 183,53.5C 183.383,54.056 183.883,54.3893 184.5,54.5C 184.5,54.8333 184.5,55.1667 184.5,55.5C 183.89,56.391 183.557,57.391 183.5,58.5C 182.209,58.2627 181.209,58.596 180.5,59.5C 178.579,57.6081 177.246,55.2747 176.5,52.5C 177.338,48.1458 177.838,43.8125 178,39.5C 176.795,40.0712 175.628,40.7379 174.5,41.5C 175.167,41.8333 175.833,42.1667 176.5,42.5C 175.217,46.9781 172.884,47.6447 169.5,44.5C 169.719,43.325 169.386,42.325 168.5,41.5C 167.777,48.1863 166.943,54.853 166,61.5C 164.599,59.8078 162.766,59.1412 160.5,59.5C 160.395,55.4517 160.728,51.4517 161.5,47.5C 160.5,47.5 159.5,47.5 158.5,47.5C 158.715,49.1788 158.048,50.1788 156.5,50.5C 155.593,44.8936 155.26,39.227 155.5,33.5C 156.391,31.7095 157.391,29.8761 158.5,28C 156.729,25.8865 155.229,26.0532 154,28.5C 153.818,25.7737 153.318,23.1071 152.5,20.5C 151.719,21.7287 151.219,23.062 151,24.5C 148.112,20.8152 145.279,17.1485 142.5,13.5C 143.9,12.9002 144.9,11.9002 145.5,10.5 Z"/></g>
<g><path style="opacity:1" fill="#88b6c2" d="M 121.5,34.5 C 124.767,35.0311 125.1,36.0311 122.5,37.5C 117.504,39.6623 112.838,42.3289 108.5,45.5C 105.886,46.5448 103.22,47.0448 100.5,47C 105.188,44.9935 109.521,42.4935 113.5,39.5C 114.71,39.0679 115.71,38.4013 116.5,37.5C 118.368,36.7368 120.035,35.7368 121.5,34.5 Z"/></g>
<g><path style="opacity:1" fill="#462322" d="M 140.5,37.5 C 141.295,41.7853 141.628,46.1186 141.5,50.5C 141.167,50.5 140.833,50.5 140.5,50.5C 140.5,50.8333 140.5,51.1667 140.5,51.5C 138.708,51.366 137.042,51.6993 135.5,52.5C 135.5,50.1667 135.5,47.8333 135.5,45.5C 135.5,42.8333 135.5,40.1667 135.5,37.5C 137.167,37.5 138.833,37.5 140.5,37.5 Z"/></g>
<g><path style="opacity:1" fill="#48211e" d="M 124.5,38.5 C 126.344,40.2789 127.01,42.6122 126.5,45.5C 126.802,48.0593 126.468,50.3926 125.5,52.5C 123.318,48.0054 122.985,43.3388 124.5,38.5 Z"/></g>
<g><path style="opacity:1" fill="#578690" d="M 112.5,18.5 C 114.415,18.2155 116.081,18.5489 117.5,19.5C 117.701,22.7281 117.367,25.8948 116.5,29C 117.154,30.987 118.487,32.3203 120.5,33C 119.207,33.49 117.873,33.6567 116.5,33.5C 116.074,35.1388 116.074,36.4721 116.5,37.5C 115.71,38.4013 114.71,39.0679 113.5,39.5C 113.44,38.9569 113.107,38.6236 112.5,38.5C 108.272,41.1127 103.939,43.446 99.5,45.5C 104.429,41.3518 109.429,37.1851 114.5,33C 113.906,32.5357 113.239,32.369 112.5,32.5C 113.209,31.596 114.209,31.2627 115.5,31.5C 115.665,28.1501 115.498,24.8168 115,21.5C 113.583,20.9221 112.75,19.9221 112.5,18.5 Z"/></g>
<g><path style="opacity:1" fill="#2e3e46" d="M 122.5,37.5 C 121.686,42.1191 121.353,46.7858 121.5,51.5C 116.926,51.0857 112.426,50.419 108,49.5C 107.617,50.056 107.117,50.3893 106.5,50.5C 106.392,48.4862 107.058,46.8195 108.5,45.5C 112.838,42.3289 117.504,39.6623 122.5,37.5 Z"/></g>
<g><path style="opacity:1" fill="#20484e" d="M 196.5,31.5 C 195.909,38.2566 194.909,44.9233 193.5,51.5C 193.5,54.5 193.5,57.5 193.5,60.5C 192.691,58.7078 192.191,56.7078 192,54.5C 191.692,55.3081 191.192,55.9747 190.5,56.5C 189.148,55.4825 188.148,54.1492 187.5,52.5C 186.534,54.396 186.201,56.396 186.5,58.5C 185.833,57.5 185.167,56.5 184.5,55.5C 184.5,55.1667 184.5,54.8333 184.5,54.5C 185.296,49.888 185.963,45.2214 186.5,40.5C 189.029,48.6196 190.696,48.2862 191.5,39.5C 191.098,36.6934 190.598,34.0268 190,31.5C 192.027,31.0137 194.193,31.0137 196.5,31.5 Z"/></g>
<g><path style="opacity:1" fill="#171a23" d="M 40.5,22.5 C 36.0679,34.2919 31.9012,46.2919 28,58.5C 26.951,60.1066 25.451,60.7733 23.5,60.5C 21.2621,59.1473 19.9287,57.1473 19.5,54.5C 21.4565,52.4095 23.6232,50.4095 26,48.5C 27.3571,45.1019 29.1904,42.1019 31.5,39.5C 34.7032,33.8474 37.7032,28.1807 40.5,22.5 Z"/></g>
<g><path style="opacity:1" fill="#34565c" d="M 113.5,39.5 C 109.521,42.4935 105.188,44.9935 100.5,47C 103.22,47.0448 105.886,46.5448 108.5,45.5C 107.058,46.8195 106.392,48.4862 106.5,50.5C 105.167,50.5 103.833,50.5 102.5,50.5C 102.134,49.3054 101.301,48.6387 100,48.5C 97.9011,49.2865 95.7345,49.6199 93.5,49.5C 95.2048,47.8079 97.2048,46.4746 99.5,45.5C 103.939,43.446 108.272,41.1127 112.5,38.5C 113.107,38.6236 113.44,38.9569 113.5,39.5 Z"/></g>
<g><path style="opacity:1" fill="#923027" d="M 140.5,50.5 C 139.167,50.5 137.833,50.5 136.5,50.5C 136.18,47.1016 136.513,43.7683 137.5,40.5C 138.478,40.9767 139.311,41.6433 140,42.5C 140.497,45.146 140.664,47.8127 140.5,50.5 Z"/></g>
<g><path style="opacity:1" fill="#2e8686" d="M 180.5,59.5 C 180.5,60.1667 180.5,60.8333 180.5,61.5C 179.07,61.5792 177.736,61.2458 176.5,60.5C 175.692,58.5767 175.192,56.5767 175,54.5C 174.641,57.5443 173.974,57.8776 173,55.5C 172.751,56.624 172.251,57.624 171.5,58.5C 170.686,56.2338 170.186,53.9005 170,51.5C 169.351,54.9374 168.851,55.104 168.5,52C 169.159,49.5379 169.493,47.0379 169.5,44.5C 172.884,47.6447 175.217,46.9781 176.5,42.5C 175.833,42.1667 175.167,41.8333 174.5,41.5C 175.628,40.7379 176.795,40.0712 178,39.5C 177.838,43.8125 177.338,48.1458 176.5,52.5C 177.246,55.2747 178.579,57.6081 180.5,59.5 Z"/></g>
<g><path style="opacity:1" fill="#3b6b72" d="M 142.5,53.5 C 142.5,52.1667 141.833,51.5 140.5,51.5C 140.5,51.1667 140.5,50.8333 140.5,50.5C 140.833,50.5 141.167,50.5 141.5,50.5C 142.161,49.2825 142.828,47.9492 143.5,46.5C 145.446,48.0437 145.946,50.0437 145,52.5C 144.329,53.2524 143.496,53.5858 142.5,53.5 Z"/></g>
<g><path style="opacity:1" fill="#3f5e6b" d="M 88.5,48.5 C 88.81,49.7383 89.31,49.7383 90,48.5C 90.4643,49.0944 90.631,49.7611 90.5,50.5C 90.6107,51.1174 90.944,51.6174 91.5,52C 85.7679,52.8269 80.7679,54.9936 76.5,58.5C 71.2818,59.4431 66.9485,61.9431 63.5,66C 62.2506,66.7401 61.2506,66.5735 60.5,65.5C 63.8763,62.8059 67.543,60.4726 71.5,58.5C 77.3312,55.4188 82.9979,52.0855 88.5,48.5 Z"/></g>
<g><path style="opacity:1" fill="#434749" d="M 131.5,35.5 C 131.833,35.5 132.167,35.5 132.5,35.5C 132.176,39.5546 132.509,43.5546 133.5,47.5C 134.298,47.0431 134.631,46.3764 134.5,45.5C 134.833,45.5 135.167,45.5 135.5,45.5C 135.5,47.8333 135.5,50.1667 135.5,52.5C 133.285,53.2679 130.952,53.9346 128.5,54.5C 127.167,54.8333 125.833,55.1667 124.5,55.5C 125.11,54.609 125.443,53.609 125.5,52.5C 126.468,50.3926 126.802,48.0593 126.5,45.5C 127.749,42.9127 128.749,40.246 129.5,37.5C 129.334,41.8461 129.501,46.1794 130,50.5C 131.388,45.6278 131.888,40.6278 131.5,35.5 Z"/></g>
<g><path style="opacity:1" fill="#060e12" d="M 193.5,51.5 C 198.301,56.4716 202.968,61.6382 207.5,67C 208.527,67.5133 209.527,68.0133 210.5,68.5C 210.167,69.1667 209.833,69.8333 209.5,70.5C 208.102,68.8912 206.435,68.0579 204.5,68C 208.389,72.9564 212.389,77.7897 216.5,82.5C 215.5,82.5 214.5,82.5 213.5,82.5C 212.425,81.4376 211.425,81.4376 210.5,82.5C 211.63,83.6223 212.297,84.9557 212.5,86.5C 210.554,87.0347 209.554,88.368 209.5,90.5C 208.045,88.8657 206.378,87.5324 204.5,86.5C 202.819,84.9925 200.819,83.9925 198.5,83.5C 198.5,82.8333 198.167,82.5 197.5,82.5C 197.608,80.4862 196.942,78.8195 195.5,77.5C 195.817,73.2984 195.483,69.2984 194.5,65.5C 194.371,63.7839 194.038,62.1172 193.5,60.5C 193.5,57.5 193.5,54.5 193.5,51.5 Z"/></g>
<g><path style="opacity:1" fill="#162f38" d="M 102.5,50.5 C 100.473,50.3379 98.4727,50.5045 96.5,51C 99.1193,51.1515 101.453,51.9848 103.5,53.5C 97.3556,54.9109 91.1889,56.2443 85,57.5C 83.7741,57.3552 82.6074,57.0219 81.5,56.5C 80.1502,57.9501 78.4835,58.6168 76.5,58.5C 80.7679,54.9936 85.7679,52.8269 91.5,52C 90.944,51.6174 90.6107,51.1174 90.5,50.5C 91.1667,50.5 91.5,50.1667 91.5,49.5C 92.1667,49.5 92.8333,49.5 93.5,49.5C 95.7345,49.6199 97.9011,49.2865 100,48.5C 101.301,48.6387 102.134,49.3054 102.5,50.5 Z"/></g>
<g><path style="opacity:1" fill="#61989e" d="M 140.5,51.5 C 141.833,51.5 142.5,52.1667 142.5,53.5C 139.75,56.0551 136.75,58.3884 133.5,60.5C 131.435,59.1433 129.435,57.81 127.5,56.5C 127.833,55.8333 128.167,55.1667 128.5,54.5C 130.952,53.9346 133.285,53.2679 135.5,52.5C 137.042,51.6993 138.708,51.366 140.5,51.5 Z"/></g>
<g><path style="opacity:1" fill="#133d42" d="M 155.5,33.5 C 155.26,39.227 155.593,44.8936 156.5,50.5C 156.84,52.9912 157.84,55.1579 159.5,57C 158.786,61.6119 157.453,65.9453 155.5,70C 157.807,70.2713 158.974,69.1047 159,66.5C 160,65.8333 161,65.1667 162,64.5C 161.508,67.319 161.674,69.9856 162.5,72.5C 162.5,72.8333 162.5,73.1667 162.5,73.5C 162.167,73.5 161.833,73.5 161.5,73.5C 160.71,72.3915 160.21,71.0581 160,69.5C 159.401,72.2542 157.901,74.2542 155.5,75.5C 155.167,75.5 154.833,75.5 154.5,75.5C 154.719,74.325 154.386,73.325 153.5,72.5C 153.264,73.2472 152.93,74.0805 152.5,75C 151.069,75.4652 149.903,76.2986 149,77.5C 148.221,74.9028 147.721,74.9028 147.5,77.5C 146.387,76.0536 146.22,74.3869 147,72.5C 149.381,69.5748 152.048,66.9082 155,64.5C 155.659,60.2854 155.159,56.2854 153.5,52.5C 155.092,48.2895 154.425,44.4562 151.5,41C 153.204,38.0371 154.538,35.5371 155.5,33.5 Z"/></g>
<g><path style="opacity:1" fill="#3b2a2b" d="M 114.5,57.5 C 114.369,58.3764 114.702,59.0431 115.5,59.5C 116.768,58.5721 118.101,58.4054 119.5,59C 118.069,59.4652 116.903,60.2986 116,61.5C 113.567,65.4126 111.401,69.4126 109.5,73.5C 108.963,68.7593 109.963,64.426 112.5,60.5C 111.726,59.2888 110.893,59.2888 110,60.5C 107.568,65.8047 107.068,71.138 108.5,76.5C 108.5,76.8333 108.5,77.1667 108.5,77.5C 107.833,78.1667 107.167,78.8333 106.5,79.5C 105.922,76.7196 105.255,74.0529 104.5,71.5C 104.187,68.7531 104.52,66.0865 105.5,63.5C 106.086,63.7093 106.586,64.0426 107,64.5C 108.71,61.5766 108.877,58.5766 107.5,55.5C 106.575,54.4376 105.575,54.4376 104.5,55.5C 104.5,54.5 104.5,53.5 104.5,52.5C 107.167,52.1667 109.833,51.8333 112.5,51.5C 112.225,56.2203 113.059,56.5537 115,52.5C 115.384,54.1966 115.218,55.8632 114.5,57.5 Z"/></g>
<g><path style="opacity:1" fill="#0a251e" d="M 59.5,65.5 C 59.3893,66.1174 59.056,66.6174 58.5,67C 62.3617,67.0554 66.0283,67.2221 69.5,67.5C 65.1941,69.9883 60.8608,72.4883 56.5,75C 55.7476,75.6708 55.4142,76.5041 55.5,77.5C 54.609,78.1098 53.609,78.4431 52.5,78.5C 51.085,79.2894 49.585,79.9561 48,80.5C 46.6293,79.4188 45.1293,78.5855 43.5,78C 44.8802,76.6764 45.2135,75.3431 44.5,74C 45.1667,73.6667 45.8333,73.3333 46.5,73C 45.1667,72 45.1667,71 46.5,70C 46,69.8333 45.5,69.6667 45,69.5C 42.993,72.2593 40.6597,73.9259 38,74.5C 39.0309,69.6224 38.0309,69.2891 35,73.5C 35.5406,70.6354 34.2073,68.6354 31,67.5C 27.7053,68.5315 25.0387,67.5315 23,64.5C 21.4419,65.3452 20.4419,64.6785 20,62.5C 19.5065,60.8659 19.3398,59.1992 19.5,57.5C 17.8008,57.6602 16.1341,57.4935 14.5,57C 14.8333,56.6667 15.1667,56.3333 15.5,56C 14.1095,54.98 12.6095,54.1466 11,53.5C 7.31809,57.0718 3.81809,60.0718 0.5,62.5C 0.333983,57.1563 0.500649,51.8229 1,46.5C 1.24917,45.376 1.74917,44.376 2.5,43.5C 5.4283,44.9209 6.76164,43.9209 6.5,40.5C 7.5,40.5 8.5,40.5 9.5,40.5C 9.44014,44.3273 10.6068,44.994 13,42.5C 14.5548,44.1458 16.2215,44.4791 18,43.5C 18.6667,44.8333 18.6667,46.1667 18,47.5C 17.4444,45.4049 16.9444,45.2382 16.5,47C 17.8243,49.4938 18.8243,51.9938 19.5,54.5C 19.9287,57.1473 21.2621,59.1473 23.5,60.5C 23.4701,61.4972 23.9701,62.1639 25,62.5C 31.4481,58.3828 34.6148,52.3828 34.5,44.5C 36.6404,42.2995 38.1404,39.6328 39,36.5C 40.1821,38.3436 41.3488,40.1769 42.5,42C 42.6384,45.6528 41.9718,49.3194 40.5,53C 41.4491,53.6172 42.2825,53.4506 43,52.5C 44.67,54.6983 46.67,55.0317 49,53.5C 50.1011,55.3939 51.4345,56.0606 53,55.5C 53.4186,56.6721 54.0853,57.6721 55,58.5C 54.9543,53.8424 56.7876,52.6757 60.5,55C 61.7423,58.3567 62.5756,58.19 63,54.5C 65.0386,55.9783 65.8719,57.9783 65.5,60.5C 61.8079,60.3243 59.8079,61.9909 59.5,65.5 Z"/></g>
<g><path style="opacity:1" fill="#6b5d35" d="M 128.5,64.5 C 127.18,63.0582 125.514,62.3915 123.5,62.5C 123.5,62.1667 123.5,61.8333 123.5,61.5C 123.694,59.0882 125.027,58.0882 127.5,58.5C 127.227,60.451 127.893,61.951 129.5,63C 128.944,63.3826 128.611,63.8826 128.5,64.5 Z"/></g>
<g><path style="opacity:1" fill="#89b6b1" d="M 146.5,53.5 C 147.167,53.5 147.833,53.5 148.5,53.5C 146.099,55.9572 144.432,58.9572 143.5,62.5C 140.133,63.1767 137.466,64.8433 135.5,67.5C 133.46,69.1953 131.626,71.1953 130,73.5C 129.517,72.552 129.351,71.552 129.5,70.5C 132.366,68.4541 134.533,65.7874 136,62.5C 139.347,59.3194 142.847,56.3194 146.5,53.5 Z"/></g>
<g><path style="opacity:1" fill="#d1d1dd" d="M 193.5,60.5 C 194.038,62.1172 194.371,63.7839 194.5,65.5C 194.512,68.5516 194.179,71.5516 193.5,74.5C 192.014,68.8808 190.014,63.5475 187.5,58.5C 187.167,58.5 186.833,58.5 186.5,58.5C 186.201,56.396 186.534,54.396 187.5,52.5C 188.148,54.1492 189.148,55.4825 190.5,56.5C 191.192,55.9747 191.692,55.3081 192,54.5C 192.191,56.7078 192.691,58.7078 193.5,60.5 Z"/></g>
<g><path style="opacity:1" fill="#557076" d="M 128.5,54.5 C 128.167,55.1667 127.833,55.8333 127.5,56.5C 123.979,57.6817 120.979,59.6817 118.5,62.5C 117.596,63.209 117.263,64.209 117.5,65.5C 116.883,65.6107 116.383,65.944 116,66.5C 115.503,68.8098 115.337,71.1432 115.5,73.5C 112.703,73.9666 111.369,75.6333 111.5,78.5C 110.883,78.6107 110.383,78.944 110,79.5C 109.722,78.5842 109.222,77.9175 108.5,77.5C 108.5,77.1667 108.5,76.8333 108.5,76.5C 108.557,75.391 108.89,74.391 109.5,73.5C 111.401,69.4126 113.567,65.4126 116,61.5C 116.903,60.2986 118.069,59.4652 119.5,59C 118.101,58.4054 116.768,58.5721 115.5,59.5C 114.702,59.0431 114.369,58.3764 114.5,57.5C 117.505,55.7006 120.838,55.0339 124.5,55.5C 125.833,55.1667 127.167,54.8333 128.5,54.5 Z"/></g>
<g><path style="opacity:1" fill="#0c191e" d="M 122.5,37.5 C 123.492,37.3284 124.158,37.6618 124.5,38.5C 122.985,43.3388 123.318,48.0054 125.5,52.5C 125.443,53.609 125.11,54.609 124.5,55.5C 120.838,55.0339 117.505,55.7006 114.5,57.5C 115.218,55.8632 115.384,54.1966 115,52.5C 113.059,56.5537 112.225,56.2203 112.5,51.5C 109.833,51.8333 107.167,52.1667 104.5,52.5C 104.5,53.5 104.5,54.5 104.5,55.5C 101.041,57.1249 98.3742,59.6249 96.5,63C 91.6372,64.6726 86.6372,65.506 81.5,65.5C 77.1869,64.9905 73.1869,65.6571 69.5,67.5C 66.0283,67.2221 62.3617,67.0554 58.5,67C 59.056,66.6174 59.3893,66.1174 59.5,65.5C 59.8333,65.5 60.1667,65.5 60.5,65.5C 61.2506,66.5735 62.2506,66.7401 63.5,66C 66.9485,61.9431 71.2818,59.4431 76.5,58.5C 78.4835,58.6168 80.1502,57.9501 81.5,56.5C 82.6074,57.0219 83.7741,57.3552 85,57.5C 91.1889,56.2443 97.3556,54.9109 103.5,53.5C 101.453,51.9848 99.1193,51.1515 96.5,51C 98.4727,50.5045 100.473,50.3379 102.5,50.5C 103.833,50.5 105.167,50.5 106.5,50.5C 107.117,50.3893 107.617,50.056 108,49.5C 112.426,50.419 116.926,51.0857 121.5,51.5C 121.353,46.7858 121.686,42.1191 122.5,37.5 Z"/></g>
<g><path style="opacity:1" fill="#2e8f98" d="M 148.5,53.5 C 148.833,53.5 149.167,53.5 149.5,53.5C 150.823,55.4714 152.156,57.4714 153.5,59.5C 151.878,61.3255 150.211,63.1588 148.5,65C 147.207,65.49 145.873,65.6567 144.5,65.5C 144.663,67.8568 144.497,70.1902 144,72.5C 143.292,71.6195 142.458,70.9528 141.5,70.5C 140.313,68.0246 138.313,67.0246 135.5,67.5C 137.466,64.8433 140.133,63.1767 143.5,62.5C 144.432,58.9572 146.099,55.9572 148.5,53.5 Z"/></g>
<g><path style="opacity:1" fill="#0b414a" d="M 183.5,58.5 C 182.003,65.0289 181.003,71.6956 180.5,78.5C 179.717,76.7118 178.384,75.7118 176.5,75.5C 176.167,75.5 175.833,75.5 175.5,75.5C 175.5,75.1667 175.5,74.8333 175.5,74.5C 176.693,74.0296 177.36,73.0296 177.5,71.5C 176.157,68.9907 175.657,66.3241 176,63.5C 178.108,64.6123 179.608,63.9457 180.5,61.5C 180.5,60.8333 180.5,60.1667 180.5,59.5C 181.209,58.596 182.209,58.2627 183.5,58.5 Z"/></g>
<g><path style="opacity:1" fill="#313f3e" d="M 140.5,37.5 C 141.467,38.8062 142.801,39.4729 144.5,39.5C 146.287,42.9681 147.62,46.6347 148.5,50.5C 147.833,51.5 147.167,52.5 146.5,53.5C 142.847,56.3194 139.347,59.3194 136,62.5C 134.533,65.7874 132.366,68.4541 129.5,70.5C 129.675,68.3792 129.341,66.3792 128.5,64.5C 128.611,63.8826 128.944,63.3826 129.5,63C 127.893,61.951 127.227,60.451 127.5,58.5C 125.027,58.0882 123.694,59.0882 123.5,61.5C 121.883,62.038 120.216,62.3713 118.5,62.5C 120.979,59.6817 123.979,57.6817 127.5,56.5C 129.435,57.81 131.435,59.1433 133.5,60.5C 136.75,58.3884 139.75,56.0551 142.5,53.5C 143.496,53.5858 144.329,53.2524 145,52.5C 145.946,50.0437 145.446,48.0437 143.5,46.5C 142.828,47.9492 142.161,49.2825 141.5,50.5C 141.628,46.1186 141.295,41.7853 140.5,37.5 Z"/></g>
<g><path style="opacity:1" fill="#2d706f" d="M 169.5,44.5 C 169.493,47.0379 169.159,49.5379 168.5,52C 168.851,55.104 169.351,54.9374 170,51.5C 170.186,53.9005 170.686,56.2338 171.5,58.5C 172.251,57.624 172.751,56.624 173,55.5C 173.974,57.8776 174.641,57.5443 175,54.5C 175.192,56.5767 175.692,58.5767 176.5,60.5C 177.736,61.2458 179.07,61.5792 180.5,61.5C 179.608,63.9457 178.108,64.6123 176,63.5C 175.657,66.3241 176.157,68.9907 177.5,71.5C 177.36,73.0296 176.693,74.0296 175.5,74.5C 175.5,74.1667 175.5,73.8333 175.5,73.5C 175.082,72.7784 174.416,72.2784 173.5,72C 174.308,71.6924 174.975,71.1924 175.5,70.5C 174.16,69.3122 173.493,67.8122 173.5,66C 174.252,63.8463 174.419,61.6797 174,59.5C 172.676,60.8802 171.343,61.2135 170,60.5C 169.667,61.1667 169.333,61.8333 169,62.5C 168.667,61.1667 168.333,59.8333 168,58.5C 167.682,62.1954 167.182,65.8621 166.5,69.5C 166.253,70.7133 165.586,71.38 164.5,71.5C 163.833,71.8333 163.167,72.1667 162.5,72.5C 161.674,69.9856 161.508,67.319 162,64.5C 161,65.1667 160,65.8333 159,66.5C 158.974,69.1047 157.807,70.2713 155.5,70C 157.453,65.9453 158.786,61.6119 159.5,57C 157.84,55.1579 156.84,52.9912 156.5,50.5C 158.048,50.1788 158.715,49.1788 158.5,47.5C 159.5,47.5 160.5,47.5 161.5,47.5C 160.728,51.4517 160.395,55.4517 160.5,59.5C 162.766,59.1412 164.599,59.8078 166,61.5C 166.943,54.853 167.777,48.1863 168.5,41.5C 169.386,42.325 169.719,43.325 169.5,44.5 Z"/></g>
<g><path style="opacity:1" fill="#0e382c" d="M 25.5,95.5 C 24.5266,95.0133 23.5266,94.5133 22.5,94C 19.6352,90.3081 16.6352,86.8081 13.5,83.5C 13.9643,80.9983 12.9643,78.8316 10.5,77C 7.50561,76.0938 4.50561,74.7604 1.5,73C 2.16667,72.6667 2.83333,72.3333 3.5,72C 2.31277,70.9805 1.31277,69.8139 0.5,68.5C 1.53119,67.2997 2.36453,65.9663 3,64.5C 3.33333,65.1667 3.66667,65.8333 4,66.5C 6.48665,64.1911 8.48665,61.5244 10,58.5C 10.6667,59.8333 11.3333,59.8333 12,58.5C 12.8403,61.4637 13.8403,61.797 15,59.5C 17.7307,61.9464 19.7307,64.9464 21,68.5C 21.3333,68.1667 21.6667,67.8333 22,67.5C 23.4896,69.558 25.4896,70.8913 28,71.5C 28.3333,71.1667 28.6667,70.8333 29,70.5C 30.0674,71.1905 31.2341,71.6905 32.5,72C 32.5197,73.715 33.1864,75.5484 34.5,77.5C 33.9488,80.0561 32.9488,82.3894 31.5,84.5C 31.7093,85.086 32.0426,85.586 32.5,86C 30.6949,88.5675 29.3615,91.4008 28.5,94.5C 27.675,95.3857 26.675,95.719 25.5,95.5 Z"/></g>
<g><path style="opacity:1" fill="#0e2f27" d="M 52.5,78.5 C 53.209,79.404 54.209,79.7373 55.5,79.5C 48.6312,81.4552 41.9646,83.7885 35.5,86.5C 34.2502,86.5774 33.4169,87.244 33,88.5C 32.0467,91.4318 31.5467,94.4318 31.5,97.5C 28.9899,97.9465 26.9899,97.2798 25.5,95.5C 26.675,95.719 27.675,95.3857 28.5,94.5C 29.3615,91.4008 30.6949,88.5675 32.5,86C 32.0426,85.586 31.7093,85.086 31.5,84.5C 32.9488,82.3894 33.9488,80.0561 34.5,77.5C 33.1864,75.5484 32.5197,73.715 32.5,72C 31.2341,71.6905 30.0674,71.1905 29,70.5C 28.6667,70.8333 28.3333,71.1667 28,71.5C 25.4896,70.8913 23.4896,69.558 22,67.5C 21.6667,67.8333 21.3333,68.1667 21,68.5C 19.7307,64.9464 17.7307,61.9464 15,59.5C 13.8403,61.797 12.8403,61.4637 12,58.5C 11.3333,59.8333 10.6667,59.8333 10,58.5C 8.48665,61.5244 6.48665,64.1911 4,66.5C 3.66667,65.8333 3.33333,65.1667 3,64.5C 2.36453,65.9663 1.53119,67.2997 0.5,68.5C 1.31277,69.8139 2.31277,70.9805 3.5,72C 2.83333,72.3333 2.16667,72.6667 1.5,73C 4.50561,74.7604 7.50561,76.0938 10.5,77C 12.9643,78.8316 13.9643,80.9983 13.5,83.5C 10.8361,79.9837 7.50275,77.1503 3.5,75C 2.1807,74.805 0.847364,74.9717 -0.5,75.5C -0.5,72.1667 -0.5,68.8333 -0.5,65.5C 0.403972,64.791 0.737305,63.791 0.5,62.5C 3.81809,60.0718 7.31809,57.0718 11,53.5C 12.6095,54.1466 14.1095,54.98 15.5,56C 15.1667,56.3333 14.8333,56.6667 14.5,57C 16.1341,57.4935 17.8008,57.6602 19.5,57.5C 19.3398,59.1992 19.5065,60.8659 20,62.5C 20.4419,64.6785 21.4419,65.3452 23,64.5C 25.0387,67.5315 27.7053,68.5315 31,67.5C 34.2073,68.6354 35.5406,70.6354 35,73.5C 38.0309,69.2891 39.0309,69.6224 38,74.5C 40.6597,73.9259 42.993,72.2593 45,69.5C 45.5,69.6667 46,69.8333 46.5,70C 45.1667,71 45.1667,72 46.5,73C 45.8333,73.3333 45.1667,73.6667 44.5,74C 45.2135,75.3431 44.8802,76.6764 43.5,78C 45.1293,78.5855 46.6293,79.4188 48,80.5C 49.585,79.9561 51.085,79.2894 52.5,78.5 Z"/></g>
<g><path style="opacity:1" fill="#1d5961" d="M 153.5,52.5 C 155.159,56.2854 155.659,60.2854 155,64.5C 152.048,66.9082 149.381,69.5748 147,72.5C 146.22,74.3869 146.387,76.0536 147.5,77.5C 147.5,78.8333 146.833,79.5 145.5,79.5C 144.913,76.1204 143.579,73.1204 141.5,70.5C 142.458,70.9528 143.292,71.6195 144,72.5C 144.497,70.1902 144.663,67.8568 144.5,65.5C 145.873,65.6567 147.207,65.49 148.5,65C 150.211,63.1588 151.878,61.3255 153.5,59.5C 152.156,57.4714 150.823,55.4714 149.5,53.5C 149.987,52.5266 150.487,51.5266 151,50.5C 151.708,51.3805 152.542,52.0472 153.5,52.5 Z"/></g>
<g><path style="opacity:1" fill="#453827" d="M 123.5,61.5 C 123.5,61.8333 123.5,62.1667 123.5,62.5C 122.007,63.3121 121.34,64.6455 121.5,66.5C 122.421,69.1257 124.087,71.1257 126.5,72.5C 125.833,72.5 125.5,72.8333 125.5,73.5C 121.789,71.7892 119.122,69.1225 117.5,65.5C 117.263,64.209 117.596,63.209 118.5,62.5C 120.216,62.3713 121.883,62.038 123.5,61.5 Z"/></g>
<g><path style="opacity:1" fill="#83909a" d="M 194.5,65.5 C 195.483,69.2984 195.817,73.2984 195.5,77.5C 193.204,77.8041 192.871,78.8041 194.5,80.5C 193.167,80.5 192.5,79.8333 192.5,78.5C 192.833,77.1667 193.167,75.8333 193.5,74.5C 194.179,71.5516 194.512,68.5516 194.5,65.5 Z"/></g>
<g><path style="opacity:1" fill="#2d7e91" d="M 187.5,58.5 C 190.014,63.5475 192.014,68.8808 193.5,74.5C 193.167,75.8333 192.833,77.1667 192.5,78.5C 191.833,78.5 191.5,78.8333 191.5,79.5C 190.596,78.791 190.263,77.791 190.5,76.5C 190.5,76.1667 190.5,75.8333 190.5,75.5C 191.886,73.2431 191.219,71.5764 188.5,70.5C 187.509,66.5546 187.176,62.5546 187.5,58.5 Z"/></g>
<g><path style="opacity:1" fill="#140205" d="M 109.5,73.5 C 108.89,74.391 108.557,75.391 108.5,76.5C 107.068,71.138 107.568,65.8047 110,60.5C 110.893,59.2888 111.726,59.2888 112.5,60.5C 109.963,64.426 108.963,68.7593 109.5,73.5 Z"/></g>
<g><path style="opacity:1" fill="#d0731f" d="M 123.5,62.5 C 125.514,62.3915 127.18,63.0582 128.5,64.5C 129.341,66.3792 129.675,68.3792 129.5,70.5C 128.778,71.5511 127.778,72.2178 126.5,72.5C 124.087,71.1257 122.421,69.1257 121.5,66.5C 121.34,64.6455 122.007,63.3121 123.5,62.5 Z"/></g>
<g><path style="opacity:1" fill="#fad664" d="M 123.5,63.5 C 125.701,63.8584 127.035,65.1917 127.5,67.5C 123.14,69.1403 121.807,67.807 123.5,63.5 Z"/></g>
<g><path style="opacity:1" fill="#263f41" d="M 175.5,73.5 C 174.5,73.5 173.5,73.5 172.5,73.5C 172.307,69.551 171.807,69.551 171,73.5C 168.696,73.7881 166.529,73.1214 164.5,71.5C 165.586,71.38 166.253,70.7133 166.5,69.5C 167.182,65.8621 167.682,62.1954 168,58.5C 168.333,59.8333 168.667,61.1667 169,62.5C 169.333,61.8333 169.667,61.1667 170,60.5C 171.343,61.2135 172.676,60.8802 174,59.5C 174.419,61.6797 174.252,63.8463 173.5,66C 173.493,67.8122 174.16,69.3122 175.5,70.5C 174.975,71.1924 174.308,71.6924 173.5,72C 174.416,72.2784 175.082,72.7784 175.5,73.5 Z"/></g>
<g><path style="opacity:1" fill="#1b2532" d="M 81.5,65.5 C 81.3893,66.1174 81.056,66.6174 80.5,67C 81.6721,67.4186 82.6721,68.0853 83.5,69C 80.3943,70.4486 78.061,71.9486 76.5,73.5C 76.5,73.8333 76.5,74.1667 76.5,74.5C 75.209,74.2627 74.209,74.596 73.5,75.5C 70.9327,75.7215 68.5994,76.3882 66.5,77.5C 62.8333,77.5 59.1667,77.5 55.5,77.5C 55.4142,76.5041 55.7476,75.6708 56.5,75C 60.8608,72.4883 65.1941,69.9883 69.5,67.5C 73.1869,65.6571 77.1869,64.9905 81.5,65.5 Z"/></g>
<g><path style="opacity:1" fill="#030203" d="M 104.5,71.5 C 103.679,68.3586 103.179,65.0252 103,61.5C 101.912,63.2875 101.412,65.2875 101.5,67.5C 102.157,73.1053 103.157,78.772 104.5,84.5C 101.861,86.4728 99.5272,88.8061 97.5,91.5C 96.0687,92.7804 95.4021,94.4471 95.5,96.5C 95.5,97.8333 95.5,99.1667 95.5,100.5C 94.5098,94.3554 94.1765,88.0221 94.5,81.5C 93.8366,78.577 92.1699,77.9103 89.5,79.5C 91.1298,82.2761 91.7965,85.2761 91.5,88.5C 91.5,89.1667 91.5,89.8333 91.5,90.5C 90.5875,94.484 89.9208,98.6507 89.5,103C 89.3068,105.008 89.9735,106.508 91.5,107.5C 91.5,108.167 91.8333,108.5 92.5,108.5C 94.334,110.505 96.0007,112.672 97.5,115C 98.7932,115.49 100.127,115.657 101.5,115.5C 101.5,114.167 101.5,112.833 101.5,111.5C 102.674,112.514 103.34,113.847 103.5,115.5C 106.5,120.5 110.5,124.5 115.5,127.5C 117.794,129.388 120.461,130.722 123.5,131.5C 123.306,133.912 121.973,134.912 119.5,134.5C 119.5,135.5 119.5,136.5 119.5,137.5C 117.409,137.682 115.409,137.348 113.5,136.5C 114.257,138.629 114.257,140.962 113.5,143.5C 75.5,143.5 37.5,143.5 -0.5,143.5C -0.5,120.833 -0.5,98.1667 -0.5,75.5C 0.847364,74.9717 2.1807,74.805 3.5,75C 7.50275,77.1503 10.8361,79.9837 13.5,83.5C 16.6352,86.8081 19.6352,90.3081 22.5,94C 23.5266,94.5133 24.5266,95.0133 25.5,95.5C 26.9899,97.2798 28.9899,97.9465 31.5,97.5C 31.5467,94.4318 32.0467,91.4318 33,88.5C 33.4169,87.244 34.2502,86.5774 35.5,86.5C 40.2137,86.1734 44.8804,86.5067 49.5,87.5C 46.5967,91.4144 42.5967,93.2477 37.5,93C 35.0768,93.7319 33.9101,95.2319 34,97.5C 35.152,99.6487 36.652,101.482 38.5,103C 35.8333,103.667 35.8333,104.333 38.5,105C 37.8333,105.333 37.1667,105.667 36.5,106C 45.5,106.667 54.5,106.667 63.5,106C 65.5767,105.808 67.5767,105.308 69.5,104.5C 68.675,103.614 67.675,103.281 66.5,103.5C 66.238,102.022 66.5713,100.689 67.5,99.5C 70.0361,99.1556 72.2028,98.1556 74,96.5C 74.3694,92.1371 74.8694,87.8038 75.5,83.5C 75.3284,82.5084 75.6618,81.8417 76.5,81.5C 77.1495,83.4352 77.4828,85.4352 77.5,87.5C 77.25,90.214 77.0833,92.8806 77,95.5C 79.6444,92.6704 80.4777,93.0037 79.5,96.5C 80.1449,97.646 80.9783,98.646 82,99.5C 83.0793,96.9373 83.5793,94.2706 83.5,91.5C 84.8333,89.1667 84.8333,86.8333 83.5,84.5C 83.8128,80.9581 83.4794,77.6248 82.5,74.5C 80.7354,73.5386 78.7354,73.2053 76.5,73.5C 78.061,71.9486 80.3943,70.4486 83.5,69C 82.6721,68.0853 81.6721,67.4186 80.5,67C 81.056,66.6174 81.3893,66.1174 81.5,65.5C 86.6372,65.506 91.6372,64.6726 96.5,63C 98.3742,59.6249 101.041,57.1249 104.5,55.5C 105.575,54.4376 106.575,54.4376 107.5,55.5C 108.877,58.5766 108.71,61.5766 107,64.5C 106.586,64.0426 106.086,63.7093 105.5,63.5C 104.52,66.0865 104.187,68.7531 104.5,71.5 Z"/></g>
<g><path style="opacity:1" fill="#023f4b" d="M 186.5,58.5 C 186.833,58.5 187.167,58.5 187.5,58.5C 187.176,62.5546 187.509,66.5546 188.5,70.5C 191.219,71.5764 191.886,73.2431 190.5,75.5C 190.5,74.5 190.5,73.5 190.5,72.5C 188.179,72.2289 186.179,72.8955 184.5,74.5C 181.617,68.706 182.284,63.3727 186.5,58.5 Z"/></g>
<g><path style="opacity:1" fill="#707e62" d="M 117.5,65.5 C 119.122,69.1225 121.789,71.7892 125.5,73.5C 125.157,75.0778 123.657,75.7445 121,75.5C 118.779,75.6068 116.946,74.9402 115.5,73.5C 115.337,71.1432 115.503,68.8098 116,66.5C 116.383,65.944 116.883,65.6107 117.5,65.5 Z"/></g>
<g><path style="opacity:1" fill="#445052" d="M 135.5,67.5 C 138.313,67.0246 140.313,68.0246 141.5,70.5C 139.901,70.2322 138.568,70.5655 137.5,71.5C 136.662,71.8417 136.328,72.5084 136.5,73.5C 134.278,73.178 132.444,73.8446 131,75.5C 130.338,77.8127 129.838,80.146 129.5,82.5C 128.85,82.8039 128.183,83.1373 127.5,83.5C 126.388,81.5808 125.054,79.9142 123.5,78.5C 120.167,77.1667 116.833,77.1667 113.5,78.5C 112.833,78.5 112.167,78.5 111.5,78.5C 111.369,75.6333 112.703,73.9666 115.5,73.5C 116.946,74.9402 118.779,75.6068 121,75.5C 123.657,75.7445 125.157,75.0778 125.5,73.5C 125.5,72.8333 125.833,72.5 126.5,72.5C 127.778,72.2178 128.778,71.5511 129.5,70.5C 129.351,71.552 129.517,72.552 130,73.5C 131.626,71.1953 133.46,69.1953 135.5,67.5 Z"/></g>
<g><path style="opacity:1" fill="#05060a" d="M 184.5,55.5 C 185.167,56.5 185.833,57.5 186.5,58.5C 182.284,63.3727 181.617,68.706 184.5,74.5C 186.179,72.8955 188.179,72.2289 190.5,72.5C 190.5,73.5 190.5,74.5 190.5,75.5C 190.5,75.8333 190.5,76.1667 190.5,76.5C 188.258,79.057 187.091,82.057 187,85.5C 189.102,83.9052 190.602,81.9052 191.5,79.5C 191.5,78.8333 191.833,78.5 192.5,78.5C 192.5,79.8333 193.167,80.5 194.5,80.5C 194.5,81.1667 194.5,81.8333 194.5,82.5C 194.932,86.3884 194.432,90.3884 193,94.5C 191.301,95.4061 189.467,95.7394 187.5,95.5C 187.414,94.5041 187.748,93.6708 188.5,93C 187.874,92.2496 187.374,91.4162 187,90.5C 184.561,93.0591 181.895,95.3925 179,97.5C 179.707,99.3109 180.207,101.311 180.5,103.5C 179.5,103.5 178.5,103.5 177.5,103.5C 177.481,105.06 177.148,106.56 176.5,108C 177.071,109.599 178.071,110.766 179.5,111.5C 179.56,112.043 179.893,112.376 180.5,112.5C 181.622,111.37 182.956,110.703 184.5,110.5C 185.496,110.586 186.329,110.252 187,109.5C 187.167,110 187.333,110.5 187.5,111C 185.672,112.163 184.672,113.83 184.5,116C 185.16,119.154 186.494,121.987 188.5,124.5C 183.112,128.886 178.445,133.886 174.5,139.5C 172.833,140.5 171.5,141.833 170.5,143.5C 169.833,143.5 169.167,143.5 168.5,143.5C 168.669,138.819 169.002,134.152 169.5,129.5C 170.167,128.5 170.833,127.5 171.5,126.5C 172.434,125.432 172.768,124.099 172.5,122.5C 180.051,118.309 180.384,113.642 173.5,108.5C 172.855,107.188 171.855,106.188 170.5,105.5C 164.335,111.664 157.335,116.664 149.5,120.5C 148.526,122.743 148.192,125.076 148.5,127.5C 141.386,124.055 136.386,118.722 133.5,111.5C 133.913,105.88 133.913,100.214 133.5,94.5C 139.513,99.8398 146.18,104.173 153.5,107.5C 149.654,108.569 146.321,110.569 143.5,113.5C 145.765,114.647 148.098,114.814 150.5,114C 159.459,109.846 167.792,104.68 175.5,98.5C 177.415,96.9288 178.415,94.9288 178.5,92.5C 180.34,88.446 180.84,84.1126 180,79.5C 178.295,83.6641 176.962,87.9974 176,92.5C 175.919,88.3045 176.419,84.1379 177.5,80C 177.486,78.6153 177.152,77.4486 176.5,76.5C 176.5,76.1667 176.5,75.8333 176.5,75.5C 178.384,75.7118 179.717,76.7118 180.5,78.5C 181.003,71.6956 182.003,65.0289 183.5,58.5C 183.557,57.391 183.89,56.391 184.5,55.5 Z"/></g>
<g><path style="opacity:1" fill="#dc342d" d="M 76.5,73.5 C 78.7354,73.2053 80.7354,73.5386 82.5,74.5C 82.762,75.9778 82.4287,77.3112 81.5,78.5C 79.6396,77.7401 77.973,76.7401 76.5,75.5C 76.5,75.1667 76.5,74.8333 76.5,74.5C 76.5,74.1667 76.5,73.8333 76.5,73.5 Z"/></g>
<g><path style="opacity:1" fill="#0d2528" d="M 104.5,71.5 C 105.255,74.0529 105.922,76.7196 106.5,79.5C 106.598,81.5529 105.931,83.2196 104.5,84.5C 103.157,78.772 102.157,73.1053 101.5,67.5C 101.412,65.2875 101.912,63.2875 103,61.5C 103.179,65.0252 103.679,68.3586 104.5,71.5 Z"/></g>
<g><path style="opacity:1" fill="#56717e" d="M 209.5,70.5 C 213.214,74.2354 216.214,78.5688 218.5,83.5C 217.833,83.1667 217.167,82.8333 216.5,82.5C 212.389,77.7897 208.389,72.9564 204.5,68C 206.435,68.0579 208.102,68.8912 209.5,70.5 Z"/></g>
<g><path style="opacity:1" fill="#ef6149" d="M 137.5,71.5 C 140.728,74.069 142.728,77.4023 143.5,81.5C 145.611,86.3271 147.444,91.3271 149,96.5C 150.277,98.7472 151.777,100.747 153.5,102.5C 153.728,104.355 153.061,105.188 151.5,105C 148.866,101.682 145.533,99.3485 141.5,98C 140.281,95.7218 138.948,93.5551 137.5,91.5C 138.209,90.596 139.209,90.2627 140.5,90.5C 141.458,90.9528 142.292,91.6195 143,92.5C 143.167,92.1667 143.333,91.8333 143.5,91.5C 140.005,86.5669 138.339,81.2336 138.5,75.5C 137.914,75.7093 137.414,76.0426 137,76.5C 136.666,78.8473 136.833,81.1806 137.5,83.5C 136.504,83.5858 135.671,83.2524 135,82.5C 134.094,79.1562 134.594,76.1562 136.5,73.5C 136.328,72.5084 136.662,71.8417 137.5,71.5 Z"/></g>
<g><path style="opacity:1" fill="#ff9467" d="M 140.5,90.5 C 138.688,88.5395 137.688,86.2061 137.5,83.5C 136.833,81.1806 136.666,78.8473 137,76.5C 137.414,76.0426 137.914,75.7093 138.5,75.5C 138.339,81.2336 140.005,86.5669 143.5,91.5C 143.333,91.8333 143.167,92.1667 143,92.5C 142.292,91.6195 141.458,90.9528 140.5,90.5 Z"/></g>
<g><path style="opacity:1" fill="#2f6d84" d="M 73.5,75.5 C 74.4345,76.5676 74.7678,77.901 74.5,79.5C 71.4682,79.505 68.4682,79.8384 65.5,80.5C 64.5,80.1667 63.5,79.8333 62.5,79.5C 63.9492,78.8281 65.2825,78.1614 66.5,77.5C 68.5994,76.3882 70.9327,75.7215 73.5,75.5 Z"/></g>
<g><path style="opacity:1" fill="#69322f" d="M 137.5,71.5 C 138.568,70.5655 139.901,70.2322 141.5,70.5C 143.579,73.1204 144.913,76.1204 145.5,79.5C 146.301,81.0418 146.634,82.7085 146.5,84.5C 145.272,83.6935 144.272,82.6935 143.5,81.5C 142.728,77.4023 140.728,74.069 137.5,71.5 Z"/></g>
<g><path style="opacity:1" fill="#4d393a" d="M 175.5,73.5 C 175.5,73.8333 175.5,74.1667 175.5,74.5C 175.5,74.8333 175.5,75.1667 175.5,75.5C 173.876,75.3601 172.71,76.0267 172,77.5C 170.801,80.7256 170.301,84.059 170.5,87.5C 168.549,89.48 167.049,91.8133 166,94.5C 166.526,88.5519 166.526,82.5519 166,76.5C 165.722,75.5842 165.222,74.9175 164.5,74.5C 164.158,73.6618 163.492,73.3284 162.5,73.5C 162.5,73.1667 162.5,72.8333 162.5,72.5C 163.167,72.1667 163.833,71.8333 164.5,71.5C 166.529,73.1214 168.696,73.7881 171,73.5C 171.807,69.551 172.307,69.551 172.5,73.5C 173.5,73.5 174.5,73.5 175.5,73.5 Z"/></g>
<g><path style="opacity:1" fill="#384857" d="M 73.5,75.5 C 74.209,74.596 75.209,74.2627 76.5,74.5C 76.5,74.8333 76.5,75.1667 76.5,75.5C 76.5,76.1667 76.5,76.8333 76.5,77.5C 76.5,78.8333 76.5,80.1667 76.5,81.5C 75.6618,81.8417 75.3284,82.5084 75.5,83.5C 72.6038,80.2538 69.1038,79.5872 65,81.5C 61.8336,80.6949 58.6669,80.0282 55.5,79.5C 54.209,79.7373 53.209,79.404 52.5,78.5C 53.609,78.4431 54.609,78.1098 55.5,77.5C 59.1667,77.5 62.8333,77.5 66.5,77.5C 65.2825,78.1614 63.9492,78.8281 62.5,79.5C 63.5,79.8333 64.5,80.1667 65.5,80.5C 68.4682,79.8384 71.4682,79.505 74.5,79.5C 74.7678,77.901 74.4345,76.5676 73.5,75.5 Z"/></g>
<g><path style="opacity:1" fill="#212e35" d="M 154.5,75.5 C 154.167,76.1667 153.833,76.8333 153.5,77.5C 152.833,77.5 152.5,77.8333 152.5,78.5C 151.522,78.811 150.855,79.4777 150.5,80.5C 151.213,83.0963 151.213,85.7629 150.5,88.5C 150.167,88.5 149.833,88.5 149.5,88.5C 148.026,87.5637 147.026,86.2303 146.5,84.5C 146.634,82.7085 146.301,81.0418 145.5,79.5C 146.833,79.5 147.5,78.8333 147.5,77.5C 147.721,74.9028 148.221,74.9028 149,77.5C 149.903,76.2986 151.069,75.4652 152.5,75C 152.93,74.0805 153.264,73.2472 153.5,72.5C 154.386,73.325 154.719,74.325 154.5,75.5 Z"/></g>
<g><path style="opacity:1" fill="#aa523b" d="M 175.5,75.5 C 175.833,75.5 176.167,75.5 176.5,75.5C 176.5,75.8333 176.5,76.1667 176.5,76.5C 176.795,78.7354 176.461,80.7354 175.5,82.5C 175.799,80.396 175.466,78.396 174.5,76.5C 173.279,81.3183 171.946,85.985 170.5,90.5C 170.5,89.5 170.5,88.5 170.5,87.5C 170.301,84.059 170.801,80.7256 172,77.5C 172.71,76.0267 173.876,75.3601 175.5,75.5 Z"/></g>
<g><path style="opacity:1" fill="#074350" d="M 190.5,76.5 C 190.263,77.791 190.596,78.791 191.5,79.5C 190.602,81.9052 189.102,83.9052 187,85.5C 187.091,82.057 188.258,79.057 190.5,76.5 Z"/></g>
<g><path style="opacity:1" fill="#738e92" d="M 113.5,78.5 C 116.833,77.1667 120.167,77.1667 123.5,78.5C 121.712,78.2148 120.045,78.5481 118.5,79.5C 119.243,80.1818 119.909,80.8485 120.5,81.5C 119.391,82.29 118.058,82.79 116.5,83C 118.116,83.6152 119.449,84.6152 120.5,86C 118.005,85.5885 115.671,85.7551 113.5,86.5C 112.609,87.1098 111.609,87.4431 110.5,87.5C 112.897,85.5436 112.897,83.7102 110.5,82C 112.377,80.8147 114.377,79.8147 116.5,79C 115.552,78.5172 114.552,78.3505 113.5,78.5 Z"/></g>
<g><path style="opacity:1" fill="#d25834" d="M 154.5,75.5 C 154.833,75.5 155.167,75.5 155.5,75.5C 156.818,78.2575 157.485,81.4242 157.5,85C 157.498,88.3518 157.165,91.5185 156.5,94.5C 154.272,89.076 153.272,83.4094 153.5,77.5C 153.833,76.8333 154.167,76.1667 154.5,75.5 Z"/></g>
<g><path style="opacity:1" fill="#cec5ce" d="M 195.5,77.5 C 196.942,78.8195 197.608,80.4862 197.5,82.5C 197.66,84.1992 197.494,85.8659 197,87.5C 196.844,84.8091 196.011,82.4758 194.5,80.5C 192.871,78.8041 193.204,77.8041 195.5,77.5 Z"/></g>
<g><path style="opacity:1" fill="#740d10" d="M 82.5,74.5 C 83.4794,77.6248 83.8128,80.9581 83.5,84.5C 83.6106,86.6477 82.944,86.981 81.5,85.5C 80.5713,84.3112 80.238,82.9778 80.5,81.5C 79.5,81.5 78.5,81.5 77.5,81.5C 77.7678,79.901 77.4345,78.5676 76.5,77.5C 76.5,76.8333 76.5,76.1667 76.5,75.5C 77.973,76.7401 79.6396,77.7401 81.5,78.5C 82.4287,77.3112 82.762,75.9778 82.5,74.5 Z"/></g>
<g><path style="opacity:1" fill="#3e151c" d="M 152.5,78.5 C 152.5,82.1667 152.5,85.8333 152.5,89.5C 151.508,89.6716 150.842,89.3382 150.5,88.5C 151.213,85.7629 151.213,83.0963 150.5,80.5C 150.855,79.4777 151.522,78.811 152.5,78.5 Z"/></g>
<g><path style="opacity:1" fill="#91a9b1" d="M 108.5,77.5 C 109.222,77.9175 109.722,78.5842 110,79.5C 110.383,78.944 110.883,78.6107 111.5,78.5C 112.167,78.5 112.833,78.5 113.5,78.5C 114.552,78.3505 115.552,78.5172 116.5,79C 114.377,79.8147 112.377,80.8147 110.5,82C 112.897,83.7102 112.897,85.5436 110.5,87.5C 105.616,87.5019 101.449,89.1686 98,92.5C 97.6012,92.2716 97.4346,91.9382 97.5,91.5C 99.5272,88.8061 101.861,86.4728 104.5,84.5C 105.931,83.2196 106.598,81.5529 106.5,79.5C 107.167,78.8333 107.833,78.1667 108.5,77.5 Z"/></g>
<g><path style="opacity:1" fill="#4e060b" d="M 76.5,77.5 C 77.4345,78.5676 77.7678,79.901 77.5,81.5C 78.5,81.5 79.5,81.5 80.5,81.5C 80.238,82.9778 80.5713,84.3112 81.5,85.5C 82.944,86.981 83.6106,86.6477 83.5,84.5C 84.8333,86.8333 84.8333,89.1667 83.5,91.5C 82.5655,90.4324 82.2322,89.099 82.5,87.5C 80.8333,87.5 79.1667,87.5 77.5,87.5C 77.4828,85.4352 77.1495,83.4352 76.5,81.5C 76.5,80.1667 76.5,78.8333 76.5,77.5 Z"/></g>
<g><path style="opacity:1" fill="#791813" d="M 94.5,81.5 C 92.9174,83.5078 91.9174,85.8411 91.5,88.5C 91.7965,85.2761 91.1298,82.2761 89.5,79.5C 92.1699,77.9103 93.8366,78.577 94.5,81.5 Z"/></g>
<g><path style="opacity:1" fill="#772d1e" d="M 161.5,73.5 C 160.766,74.7079 160.433,76.0413 160.5,77.5C 160.5,78.1667 160.5,78.8333 160.5,79.5C 158.903,86.2117 159.403,92.8783 162,99.5C 162.333,99.1667 162.667,98.8333 163,98.5C 164.435,90.6112 164.935,82.6112 164.5,74.5C 165.222,74.9175 165.722,75.5842 166,76.5C 166.526,82.5519 166.526,88.5519 166,94.5C 167.049,91.8133 168.549,89.48 170.5,87.5C 170.5,88.5 170.5,89.5 170.5,90.5C 168.977,93.6348 168.31,96.9682 168.5,100.5C 168.217,101.289 167.717,101.956 167,102.5C 166.667,101.167 166.333,99.8333 166,98.5C 165.051,100.093 163.885,101.426 162.5,102.5C 160.885,99.5505 158.885,96.8838 156.5,94.5C 157.165,91.5185 157.498,88.3518 157.5,85C 157.485,81.4242 156.818,78.2575 155.5,75.5C 157.901,74.2542 159.401,72.2542 160,69.5C 160.21,71.0581 160.71,72.3915 161.5,73.5 Z"/></g>
<g><path style="opacity:1" fill="#ee663f" d="M 160.5,79.5 C 160.5,78.8333 160.5,78.1667 160.5,77.5C 161.79,76.9423 162.623,75.9423 163,74.5C 163.667,81.1667 163.667,87.8333 163,94.5C 162.586,94.9574 162.086,95.2907 161.5,95.5C 160.505,90.2079 160.172,84.8746 160.5,79.5 Z"/></g>
<g><path style="opacity:1" fill="#0a1c2b" d="M 198.5,83.5 C 200.819,83.9925 202.819,84.9925 204.5,86.5C 203.957,86.56 203.624,86.8933 203.5,87.5C 204.795,89.3279 205.795,91.3279 206.5,93.5C 208.216,94.5487 209.549,95.882 210.5,97.5C 209.5,98.5 208.5,99.5 207.5,100.5C 204.833,97.1667 202.167,93.8333 199.5,90.5C 198.631,88.283 198.298,85.9496 198.5,83.5 Z"/></g>
<g><path style="opacity:1" fill="#e36f49" d="M 175.5,82.5 C 174.659,87.5322 173.659,92.5322 172.5,97.5C 171.167,98.5 169.833,99.5 168.5,100.5C 168.31,96.9682 168.977,93.6348 170.5,90.5C 171.946,85.985 173.279,81.3183 174.5,76.5C 175.466,78.396 175.799,80.396 175.5,82.5 Z"/></g>
<g><path style="opacity:1" fill="#3f6871" d="M 213.5,82.5 C 215.274,85.3626 216.441,88.3626 217,91.5C 215.483,89.7605 213.983,88.0938 212.5,86.5C 212.297,84.9557 211.63,83.6223 210.5,82.5C 211.425,81.4376 212.425,81.4376 213.5,82.5 Z"/></g>
<g><path style="opacity:1" fill="#185d4b" d="M 255.5,78.5 C 255.5,83.5 255.5,88.5 255.5,93.5C 252.492,93.8774 249.992,95.2107 248,97.5C 247.586,97.0426 247.086,96.7093 246.5,96.5C 243.287,97.4269 240.12,98.4269 237,99.5C 235.984,98.3659 235.317,98.6992 235,100.5C 233.455,100.634 231.788,100.3 230,99.5C 228.908,100.296 227.741,100.963 226.5,101.5C 222.59,101.129 218.256,100.962 213.5,101C 212.364,99.8549 211.364,98.6883 210.5,97.5C 210.007,95.1944 209.674,92.861 209.5,90.5C 209.554,88.368 210.554,87.0347 212.5,86.5C 213.983,88.0938 215.483,89.7605 217,91.5C 216.441,88.3626 215.274,85.3626 213.5,82.5C 214.5,82.5 215.5,82.5 216.5,82.5C 217.167,82.8333 217.833,83.1667 218.5,83.5C 219.806,84.9678 221.306,86.3012 223,87.5C 224,86.8333 225,86.1667 226,85.5C 230.016,85.3249 233.683,85.3249 237,85.5C 237.333,84.5 237.667,83.5 238,82.5C 240.59,83.3783 242.923,83.3783 245,82.5C 248.491,81.6663 251.491,79.9997 254,77.5C 254.383,78.056 254.883,78.3893 255.5,78.5 Z"/></g>
<g><path style="opacity:1" fill="#2d0406" d="M 77.5,87.5 C 79.1667,87.5 80.8333,87.5 82.5,87.5C 82.2322,89.099 82.5655,90.4324 83.5,91.5C 83.5793,94.2706 83.0793,96.9373 82,99.5C 80.9783,98.646 80.1449,97.646 79.5,96.5C 80.4777,93.0037 79.6444,92.6704 77,95.5C 77.0833,92.8806 77.25,90.214 77.5,87.5 Z"/></g>
<g><path style="opacity:1" fill="#4a595e" d="M 120.5,81.5 C 122.483,81.1568 123.817,81.8235 124.5,83.5C 123.761,83.369 123.094,83.5357 122.5,84C 124.394,85.0793 124.727,86.4126 123.5,88C 127.099,88.7636 129.099,90.9302 129.5,94.5C 127.053,94.385 125.053,93.385 123.5,91.5C 120.413,89.4309 117.08,87.7642 113.5,86.5C 115.671,85.7551 118.005,85.5885 120.5,86C 119.449,84.6152 118.116,83.6152 116.5,83C 118.058,82.79 119.391,82.29 120.5,81.5 Z"/></g>
<g><path style="opacity:1" fill="#dd6f5d" d="M 136.5,73.5 C 134.594,76.1562 134.094,79.1562 135,82.5C 135.671,83.2524 136.504,83.5858 137.5,83.5C 137.688,86.2061 138.688,88.5395 140.5,90.5C 139.209,90.2627 138.209,90.596 137.5,91.5C 134.806,89.4728 132.473,87.1395 130.5,84.5C 129.662,84.1583 129.328,83.4916 129.5,82.5C 129.838,80.146 130.338,77.8127 131,75.5C 132.444,73.8446 134.278,73.178 136.5,73.5 Z"/></g>
<g><path style="opacity:1" fill="#762317" d="M 153.5,77.5 C 153.272,83.4094 154.272,89.076 156.5,94.5C 154.124,93.7939 152.79,92.1273 152.5,89.5C 152.5,85.8333 152.5,82.1667 152.5,78.5C 152.5,77.8333 152.833,77.5 153.5,77.5 Z"/></g>
<g><path style="opacity:1" fill="#ca2e19" d="M 94.5,81.5 C 94.1765,88.0221 94.5098,94.3554 95.5,100.5C 96.6737,101.514 97.3404,102.847 97.5,104.5C 97.7989,106.604 97.4656,108.604 96.5,110.5C 95.3777,109.37 94.0443,108.703 92.5,108.5C 91.8333,108.5 91.5,108.167 91.5,107.5C 91.0204,101.898 91.0204,96.2312 91.5,90.5C 91.5,89.8333 91.5,89.1667 91.5,88.5C 91.9174,85.8411 92.9174,83.5078 94.5,81.5 Z"/></g>
<g><path style="opacity:1" fill="#0a0405" d="M 149.5,88.5 C 149.833,88.5 150.167,88.5 150.5,88.5C 150.842,89.3382 151.508,89.6716 152.5,89.5C 152.79,92.1273 154.124,93.7939 156.5,94.5C 158.885,96.8838 160.885,99.5505 162.5,102.5C 163.091,103.151 163.757,103.818 164.5,104.5C 162.027,105.996 159.36,106.996 156.5,107.5C 155.737,105.632 154.737,103.965 153.5,102.5C 152.62,99.7378 151.454,97.0711 150,94.5C 149.505,92.5273 149.338,90.5273 149.5,88.5 Z"/></g>
<g><path style="opacity:1" fill="#265859" d="M 113.5,86.5 C 117.08,87.7642 120.413,89.4309 123.5,91.5C 119.987,91.6925 116.654,91.0259 113.5,89.5C 108.52,92.1024 103.187,93.6024 97.5,94C 96.9341,94.9947 96.2674,95.828 95.5,96.5C 95.4021,94.4471 96.0687,92.7804 97.5,91.5C 97.4346,91.9382 97.6012,92.2716 98,92.5C 101.449,89.1686 105.616,87.5019 110.5,87.5C 111.609,87.4431 112.609,87.1098 113.5,86.5 Z"/></g>
<g><path style="opacity:1" fill="#9f8e8f" d="M 194.5,80.5 C 196.011,82.4758 196.844,84.8091 197,87.5C 197.494,85.8659 197.66,84.1992 197.5,82.5C 198.167,82.5 198.5,82.8333 198.5,83.5C 198.298,85.9496 198.631,88.283 199.5,90.5C 198.596,91.209 198.263,92.209 198.5,93.5C 197.778,93.9175 197.278,94.5842 197,95.5C 195.905,91.1995 195.072,86.8661 194.5,82.5C 194.5,81.8333 194.5,81.1667 194.5,80.5 Z"/></g>
<g><path style="opacity:1" fill="#50555e" d="M 204.5,86.5 C 206.378,87.5324 208.045,88.8657 209.5,90.5C 209.674,92.861 210.007,95.1944 210.5,97.5C 209.549,95.882 208.216,94.5487 206.5,93.5C 205.795,91.3279 204.795,89.3279 203.5,87.5C 203.624,86.8933 203.957,86.56 204.5,86.5 Z"/></g>
<g><path style="opacity:1" fill="#050b0f" d="M 55.5,79.5 C 58.6669,80.0282 61.8336,80.6949 65,81.5C 69.1038,79.5872 72.6038,80.2538 75.5,83.5C 74.8694,87.8038 74.3694,92.1371 74,96.5C 72.2028,98.1556 70.0361,99.1556 67.5,99.5C 66.5713,100.689 66.238,102.022 66.5,103.5C 67.675,103.281 68.675,103.614 69.5,104.5C 67.5767,105.308 65.5767,105.808 63.5,106C 54.5,106.667 45.5,106.667 36.5,106C 37.1667,105.667 37.8333,105.333 38.5,105C 35.8333,104.333 35.8333,103.667 38.5,103C 36.652,101.482 35.152,99.6487 34,97.5C 33.9101,95.2319 35.0768,93.7319 37.5,93C 42.5967,93.2477 46.5967,91.4144 49.5,87.5C 44.8804,86.5067 40.2137,86.1734 35.5,86.5C 41.9646,83.7885 48.6312,81.4552 55.5,79.5 Z"/></g>
<g><path style="opacity:1" fill="#284145" d="M 124.5,83.5 C 128.724,86.39 130.724,90.39 130.5,95.5C 129.448,95.3505 128.448,95.5172 127.5,96C 128.641,96.7412 128.641,97.5745 127.5,98.5C 128.325,99.3857 129.325,99.719 130.5,99.5C 130.343,100.873 130.51,102.207 131,103.5C 131.204,100.203 132.037,97.2026 133.5,94.5C 133.913,100.214 133.913,105.88 133.5,111.5C 130.292,106.14 126.625,100.973 122.5,96C 118.978,94.7886 115.478,93.6219 112,92.5C 108.338,92.9212 105.171,94.2545 102.5,96.5C 100.856,96.2865 99.3561,96.6198 98,97.5C 98.2068,99.7513 98.3735,102.085 98.5,104.5C 98.1667,104.5 97.8333,104.5 97.5,104.5C 97.3404,102.847 96.6737,101.514 95.5,100.5C 95.5,99.1667 95.5,97.8333 95.5,96.5C 96.2674,95.828 96.9341,94.9947 97.5,94C 103.187,93.6024 108.52,92.1024 113.5,89.5C 116.654,91.0259 119.987,91.6925 123.5,91.5C 125.053,93.385 127.053,94.385 129.5,94.5C 129.099,90.9302 127.099,88.7636 123.5,88C 124.727,86.4126 124.394,85.0793 122.5,84C 123.094,83.5357 123.761,83.369 124.5,83.5 Z"/></g>
<g><path style="opacity:1" fill="#131c1f" d="M 123.5,78.5 C 125.054,79.9142 126.388,81.5808 127.5,83.5C 128.183,83.1373 128.85,82.8039 129.5,82.5C 129.328,83.4916 129.662,84.1583 130.5,84.5C 130.583,88.1758 131.583,91.5092 133.5,94.5C 132.037,97.2026 131.204,100.203 131,103.5C 130.51,102.207 130.343,100.873 130.5,99.5C 129.325,99.719 128.325,99.3857 127.5,98.5C 128.641,97.5745 128.641,96.7412 127.5,96C 128.448,95.5172 129.448,95.3505 130.5,95.5C 130.724,90.39 128.724,86.39 124.5,83.5C 123.817,81.8235 122.483,81.1568 120.5,81.5C 119.909,80.8485 119.243,80.1818 118.5,79.5C 120.045,78.5481 121.712,78.2148 123.5,78.5 Z"/></g>
<g><path style="opacity:1" fill="#ad6c6d" d="M 143.5,81.5 C 144.272,82.6935 145.272,83.6935 146.5,84.5C 147.026,86.2303 148.026,87.5637 149.5,88.5C 149.338,90.5273 149.505,92.5273 150,94.5C 151.454,97.0711 152.62,99.7378 153.5,102.5C 151.777,100.747 150.277,98.7472 149,96.5C 147.444,91.3271 145.611,86.3271 143.5,81.5 Z"/></g>
<g><path style="opacity:1" fill="#c85130" d="M 161.5,73.5 C 161.833,73.5 162.167,73.5 162.5,73.5C 163.492,73.3284 164.158,73.6618 164.5,74.5C 164.935,82.6112 164.435,90.6112 163,98.5C 162.667,98.8333 162.333,99.1667 162,99.5C 159.403,92.8783 158.903,86.2117 160.5,79.5C 160.172,84.8746 160.505,90.2079 161.5,95.5C 162.086,95.2907 162.586,94.9574 163,94.5C 163.667,87.8333 163.667,81.1667 163,74.5C 162.623,75.9423 161.79,76.9423 160.5,77.5C 160.433,76.0413 160.766,74.7079 161.5,73.5 Z"/></g>
<g><path style="opacity:1" fill="#6e5753" d="M 194.5,82.5 C 195.072,86.8661 195.905,91.1995 197,95.5C 197.278,94.5842 197.778,93.9175 198.5,93.5C 200.262,94.2623 201.262,95.5956 201.5,97.5C 199.801,97.3398 198.134,97.5065 196.5,98C 195.601,99.6516 194.601,101.152 193.5,102.5C 194.5,97.5 192.5,95.5 187.5,96.5C 187.5,96.1667 187.5,95.8333 187.5,95.5C 189.467,95.7394 191.301,95.4061 193,94.5C 194.432,90.3884 194.932,86.3884 194.5,82.5 Z"/></g>
<g><path style="opacity:1" fill="#5e3624" d="M 176.5,76.5 C 177.152,77.4486 177.486,78.6153 177.5,80C 176.419,84.1379 175.919,88.3045 176,92.5C 176.962,87.9974 178.295,83.6641 180,79.5C 180.84,84.1126 180.34,88.446 178.5,92.5C 177.115,94.8835 175.115,96.5501 172.5,97.5C 173.659,92.5322 174.659,87.5322 175.5,82.5C 176.461,80.7354 176.795,78.7354 176.5,76.5 Z"/></g>
<g><path style="opacity:1" fill="#96392d" d="M 130.5,84.5 C 132.473,87.1395 134.806,89.4728 137.5,91.5C 138.948,93.5551 140.281,95.7218 141.5,98C 145.533,99.3485 148.866,101.682 151.5,105C 153.061,105.188 153.728,104.355 153.5,102.5C 154.737,103.965 155.737,105.632 156.5,107.5C 155.652,108.625 154.652,108.625 153.5,107.5C 146.18,104.173 139.513,99.8398 133.5,94.5C 131.583,91.5092 130.583,88.1758 130.5,84.5 Z"/></g>
<g><path style="opacity:1" fill="#600b04" d="M 91.5,90.5 C 91.0204,96.2312 91.0204,101.898 91.5,107.5C 89.9735,106.508 89.3068,105.008 89.5,103C 89.9208,98.6507 90.5875,94.484 91.5,90.5 Z"/></g>
<g><path style="opacity:1" fill="#d55446" d="M 187.5,96.5 C 192.5,95.5 194.5,97.5 193.5,102.5C 191.998,104.175 190.665,106.008 189.5,108C 187.753,108.352 186.086,108.852 184.5,109.5C 183.12,109.038 182.453,108.038 182.5,106.5C 182.93,103.862 183.93,101.529 185.5,99.5C 185.932,98.2905 186.599,97.2905 187.5,96.5 Z"/></g>
<g><path style="opacity:1" fill="#373b40" d="M 187.5,95.5 C 187.5,95.8333 187.5,96.1667 187.5,96.5C 186.599,97.2905 185.932,98.2905 185.5,99.5C 183.983,99.5106 182.816,100.177 182,101.5C 181.974,105.179 181.14,108.512 179.5,111.5C 178.071,110.766 177.071,109.599 176.5,108C 177.148,106.56 177.481,105.06 177.5,103.5C 178.5,103.5 179.5,103.5 180.5,103.5C 180.207,101.311 179.707,99.3109 179,97.5C 181.895,95.3925 184.561,93.0591 187,90.5C 187.374,91.4162 187.874,92.2496 188.5,93C 187.748,93.6708 187.414,94.5041 187.5,95.5 Z"/></g>
<g><path style="opacity:1" fill="#9aaab7" d="M 199.5,90.5 C 202.167,93.8333 204.833,97.1667 207.5,100.5C 213.262,105.887 219.595,110.554 226.5,114.5C 226.5,114.833 226.5,115.167 226.5,115.5C 221.062,113.615 216.062,110.948 211.5,107.5C 209.477,104.48 206.81,102.146 203.5,100.5C 203.573,98.9731 202.906,97.9731 201.5,97.5C 201.262,95.5956 200.262,94.2623 198.5,93.5C 198.263,92.209 198.596,91.209 199.5,90.5 Z"/></g>
<g><path style="opacity:1" fill="#154f41" d="M 255.5,93.5 C 255.5,96.8333 255.5,100.167 255.5,103.5C 252.404,104.76 250.071,106.926 248.5,110C 245.543,112.312 242.209,113.812 238.5,114.5C 237.479,116.188 236.145,117.521 234.5,118.5C 234.631,117.761 234.464,117.094 234,116.5C 232.256,117.036 230.423,117.37 228.5,117.5C 227.824,116.398 227.158,115.398 226.5,114.5C 219.595,110.554 213.262,105.887 207.5,100.5C 208.5,99.5 209.5,98.5 210.5,97.5C 211.364,98.6883 212.364,99.8549 213.5,101C 218.256,100.962 222.59,101.129 226.5,101.5C 227.741,100.963 228.908,100.296 230,99.5C 231.788,100.3 233.455,100.634 235,100.5C 235.317,98.6992 235.984,98.3659 237,99.5C 240.12,98.4269 243.287,97.4269 246.5,96.5C 247.086,96.7093 247.586,97.0426 248,97.5C 249.992,95.2107 252.492,93.8774 255.5,93.5 Z"/></g>
<g><path style="opacity:1" fill="#2e1c21" d="M 178.5,92.5 C 178.415,94.9288 177.415,96.9288 175.5,98.5C 167.792,104.68 159.459,109.846 150.5,114C 148.098,114.814 145.765,114.647 143.5,113.5C 146.321,110.569 149.654,108.569 153.5,107.5C 154.652,108.625 155.652,108.625 156.5,107.5C 159.36,106.996 162.027,105.996 164.5,104.5C 163.757,103.818 163.091,103.151 162.5,102.5C 163.885,101.426 165.051,100.093 166,98.5C 166.333,99.8333 166.667,101.167 167,102.5C 167.717,101.956 168.217,101.289 168.5,100.5C 169.833,99.5 171.167,98.5 172.5,97.5C 175.115,96.5501 177.115,94.8835 178.5,92.5 Z"/></g>
<g><path style="opacity:1" fill="#8f1808" d="M 97.5,104.5 C 97.8333,104.5 98.1667,104.5 98.5,104.5C 99.0115,107.022 100.011,109.355 101.5,111.5C 101.5,112.833 101.5,114.167 101.5,115.5C 100.127,115.657 98.7932,115.49 97.5,115C 96.0007,112.672 94.334,110.505 92.5,108.5C 94.0443,108.703 95.3777,109.37 96.5,110.5C 97.4656,108.604 97.7989,106.604 97.5,104.5 Z"/></g>
<g><path style="opacity:1" fill="#a95d56" d="M 185.5,99.5 C 183.93,101.529 182.93,103.862 182.5,106.5C 182.453,108.038 183.12,109.038 184.5,109.5C 184.5,109.833 184.5,110.167 184.5,110.5C 182.956,110.703 181.622,111.37 180.5,112.5C 179.893,112.376 179.56,112.043 179.5,111.5C 181.14,108.512 181.974,105.179 182,101.5C 182.816,100.177 183.983,99.5106 185.5,99.5 Z"/></g>
<g><path style="opacity:1" fill="#3b4a51" d="M 203.5,100.5 C 206.81,102.146 209.477,104.48 211.5,107.5C 210.5,107.833 209.833,108.5 209.5,109.5C 207.967,107.645 206.3,105.812 204.5,104C 203.552,103.517 202.552,103.351 201.5,103.5C 201.5,104.833 201.5,106.167 201.5,107.5C 200.71,106.391 200.21,105.058 200,103.5C 198.961,104.244 198.461,105.244 198.5,106.5C 197.957,106.56 197.624,106.893 197.5,107.5C 199.607,111.353 200.274,115.353 199.5,119.5C 198.311,120.429 196.978,120.762 195.5,120.5C 195.326,122.861 194.993,125.194 194.5,127.5C 194.027,128.906 193.027,129.573 191.5,129.5C 191.337,127.143 191.503,124.81 192,122.5C 193.603,121.114 194.437,119.281 194.5,117C 193.584,113.568 192.917,110.068 192.5,106.5C 194.308,106.509 195.975,106.009 197.5,105C 194.057,104.779 193.724,103.779 196.5,102C 198.92,101.71 201.254,101.21 203.5,100.5 Z"/></g>
<g><path style="opacity:1" fill="#090a0c" d="M 255.5,106.5 C 255.5,118.833 255.5,131.167 255.5,143.5C 234.167,143.5 212.833,143.5 191.5,143.5C 191.5,141.833 191.5,140.167 191.5,138.5C 196.456,141.302 201.123,140.969 205.5,137.5C 207.578,135.61 208.911,133.276 209.5,130.5C 209.557,129.391 209.89,128.391 210.5,127.5C 212.099,126.438 213.766,126.438 215.5,127.5C 214.24,130.844 213.406,134.178 213,137.5C 215.373,138.543 217.54,138.21 219.5,136.5C 227.782,132.885 233.782,126.885 237.5,118.5C 244.68,116.139 250.18,111.805 254,105.5C 254.383,106.056 254.883,106.389 255.5,106.5 Z"/></g>
<g><path style="opacity:1" fill="#4e9999" d="M 141.5,126.5 C 134.781,126.823 128.781,124.99 123.5,121C 120.071,120.467 116.738,119.633 113.5,118.5C 113.5,118.167 113.5,117.833 113.5,117.5C 113.423,116.25 112.756,115.417 111.5,115C 112.624,114.751 113.624,114.251 114.5,113.5C 114.333,113.167 114.167,112.833 114,112.5C 111.196,111.358 109.029,109.525 107.5,107C 107.905,106.055 108.572,105.388 109.5,105C 107.787,102.581 107.121,100.081 107.5,97.5C 109.041,94.1269 111.374,93.6269 114.5,96C 114.167,96.3333 113.833,96.6667 113.5,97C 114.264,99.0693 114.764,101.236 115,103.5C 116.314,104.313 117.481,105.313 118.5,106.5C 118.712,103.348 118.712,100.015 118.5,96.5C 119.5,96.5 120.5,96.5 121.5,96.5C 122.112,103.542 124.112,110.209 127.5,116.5C 131.93,120.279 136.597,123.612 141.5,126.5 Z"/></g>
<g><path style="opacity:1" fill="#4f5c59" d="M 102.5,96.5 C 101.482,98.2568 101.816,99.9235 103.5,101.5C 103.081,102.672 102.415,103.672 101.5,104.5C 103.432,110.764 107.432,115.098 113.5,117.5C 113.5,117.833 113.5,118.167 113.5,118.5C 113.833,119.167 114.167,119.833 114.5,120.5C 112.801,120.66 111.134,120.494 109.5,120C 107.911,117.905 105.911,116.405 103.5,115.5C 103.34,113.847 102.674,112.514 101.5,111.5C 100.011,109.355 99.0115,107.022 98.5,104.5C 98.3735,102.085 98.2068,99.7513 98,97.5C 99.3561,96.6198 100.856,96.2865 102.5,96.5 Z"/></g>
<g><path style="opacity:1" fill="#0f1517" d="M 201.5,107.5 C 202.167,107.5 202.5,107.833 202.5,108.5C 203.468,111.445 203.634,114.445 203,117.5C 202.176,113.46 200.676,109.793 198.5,106.5C 198.461,105.244 198.961,104.244 200,103.5C 200.21,105.058 200.71,106.391 201.5,107.5 Z"/></g>
<g><path style="opacity:1" fill="#272d31" d="M 201.5,97.5 C 202.906,97.9731 203.573,98.9731 203.5,100.5C 201.254,101.21 198.92,101.71 196.5,102C 193.724,103.779 194.057,104.779 197.5,105C 195.975,106.009 194.308,106.509 192.5,106.5C 192.917,110.068 193.584,113.568 194.5,117C 194.437,119.281 193.603,121.114 192,122.5C 191.503,124.81 191.337,127.143 191.5,129.5C 191.5,130.5 191.5,131.5 191.5,132.5C 191.167,132.5 190.833,132.5 190.5,132.5C 190.167,132.5 189.833,132.5 189.5,132.5C 189.785,130.712 189.452,129.045 188.5,127.5C 183.519,131.148 178.853,135.148 174.5,139.5C 178.445,133.886 183.112,128.886 188.5,124.5C 186.494,121.987 185.16,119.154 184.5,116C 184.672,113.83 185.672,112.163 187.5,111C 187.333,110.5 187.167,110 187,109.5C 186.329,110.252 185.496,110.586 184.5,110.5C 184.5,110.167 184.5,109.833 184.5,109.5C 186.086,108.852 187.753,108.352 189.5,108C 190.665,106.008 191.998,104.175 193.5,102.5C 194.601,101.152 195.601,99.6516 196.5,98C 198.134,97.5065 199.801,97.3398 201.5,97.5 Z"/></g>
<g><path style="opacity:1" fill="#e5deea" d="M 209.5,109.5 C 209.5,110.167 209.833,110.5 210.5,110.5C 210.5,114.167 210.5,117.833 210.5,121.5C 209.167,121.5 207.833,121.5 206.5,121.5C 206.737,120.209 206.404,119.209 205.5,118.5C 205.802,115.941 205.468,113.607 204.5,111.5C 204.573,109.973 203.906,108.973 202.5,108.5C 202.5,107.833 202.167,107.5 201.5,107.5C 201.5,106.167 201.5,104.833 201.5,103.5C 202.552,103.351 203.552,103.517 204.5,104C 206.3,105.812 207.967,107.645 209.5,109.5 Z"/></g>
<g><path style="opacity:1" fill="#061724" d="M 211.5,107.5 C 216.062,110.948 221.062,113.615 226.5,115.5C 222.862,119.474 219.195,123.474 215.5,127.5C 213.766,126.438 212.099,126.438 210.5,127.5C 210.5,127.167 210.5,126.833 210.5,126.5C 211.802,121.067 211.802,115.734 210.5,110.5C 209.833,110.5 209.5,110.167 209.5,109.5C 209.833,108.5 210.5,107.833 211.5,107.5 Z"/></g>
<g><path style="opacity:1" fill="#6c8381" d="M 133.5,111.5 C 136.386,118.722 141.386,124.055 148.5,127.5C 150.933,128.548 150.933,129.214 148.5,129.5C 146.833,129.5 145.167,129.5 143.5,129.5C 143.5,128.833 143.167,128.5 142.5,128.5C 142.672,127.508 142.338,126.842 141.5,126.5C 136.597,123.612 131.93,120.279 127.5,116.5C 124.112,110.209 122.112,103.542 121.5,96.5C 120.5,96.5 119.5,96.5 118.5,96.5C 118.712,100.015 118.712,103.348 118.5,106.5C 117.481,105.313 116.314,104.313 115,103.5C 114.764,101.236 114.264,99.0693 113.5,97C 113.833,96.6667 114.167,96.3333 114.5,96C 111.374,93.6269 109.041,94.1269 107.5,97.5C 107.121,100.081 107.787,102.581 109.5,105C 108.572,105.388 107.905,106.055 107.5,107C 109.029,109.525 111.196,111.358 114,112.5C 114.167,112.833 114.333,113.167 114.5,113.5C 113.624,114.251 112.624,114.751 111.5,115C 112.756,115.417 113.423,116.25 113.5,117.5C 107.432,115.098 103.432,110.764 101.5,104.5C 102.415,103.672 103.081,102.672 103.5,101.5C 101.816,99.9235 101.482,98.2568 102.5,96.5C 105.171,94.2545 108.338,92.9212 112,92.5C 115.478,93.6219 118.978,94.7886 122.5,96C 126.625,100.973 130.292,106.14 133.5,111.5 Z"/></g>
<g><path style="opacity:1" fill="#5f1b0b" d="M 173.5,108.5 C 180.384,113.642 180.051,118.309 172.5,122.5C 170.621,123.341 168.621,123.675 166.5,123.5C 166.031,120.661 166.031,117.995 166.5,115.5C 168.605,112.973 170.939,110.64 173.5,108.5 Z"/></g>
<g><path style="opacity:1" fill="#144036" d="M 226.5,114.5 C 227.158,115.398 227.824,116.398 228.5,117.5C 230.423,117.37 232.256,117.036 234,116.5C 234.464,117.094 234.631,117.761 234.5,118.5C 231.1,126.068 225.767,131.901 218.5,136C 218.728,136.399 219.062,136.565 219.5,136.5C 217.54,138.21 215.373,138.543 213,137.5C 213.406,134.178 214.24,130.844 215.5,127.5C 219.195,123.474 222.862,119.474 226.5,115.5C 226.5,115.167 226.5,114.833 226.5,114.5 Z"/></g>
<g><path style="opacity:1" fill="#420d06" d="M 166.5,115.5 C 166.031,117.995 166.031,120.661 166.5,123.5C 168.621,123.675 170.621,123.341 172.5,122.5C 172.768,124.099 172.434,125.432 171.5,126.5C 167.846,128.331 164.513,130.664 161.5,133.5C 161.44,132.957 161.107,132.624 160.5,132.5C 157.851,133.972 155.018,134.972 152,135.5C 153.214,130.459 154.88,125.792 157,121.5C 160.415,119.877 163.582,117.877 166.5,115.5 Z"/></g>
<g><path style="opacity:1" fill="#5a757e" d="M 198.5,106.5 C 200.676,109.793 202.176,113.46 203,117.5C 203.634,114.445 203.468,111.445 202.5,108.5C 203.906,108.973 204.573,109.973 204.5,111.5C 204.785,116.897 204.451,122.23 203.5,127.5C 200.586,127.113 197.586,127.113 194.5,127.5C 194.993,125.194 195.326,122.861 195.5,120.5C 196.978,120.762 198.311,120.429 199.5,119.5C 200.274,115.353 199.607,111.353 197.5,107.5C 197.624,106.893 197.957,106.56 198.5,106.5 Z"/></g>
<g><path style="opacity:1" fill="#afb6c1" d="M 210.5,110.5 C 211.802,115.734 211.802,121.067 210.5,126.5C 209.288,127.23 208.288,128.23 207.5,129.5C 206.914,129.291 206.414,128.957 206,128.5C 205.502,125.183 205.335,121.85 205.5,118.5C 206.404,119.209 206.737,120.209 206.5,121.5C 207.833,121.5 209.167,121.5 210.5,121.5C 210.5,117.833 210.5,114.167 210.5,110.5 Z"/></g>
<g><path style="opacity:1" fill="#3c5853" d="M 103.5,115.5 C 105.911,116.405 107.911,117.905 109.5,120C 111.134,120.494 112.801,120.66 114.5,120.5C 120.461,122.184 126.128,124.684 131.5,128C 135.152,128.499 138.818,128.665 142.5,128.5C 143.167,128.5 143.5,128.833 143.5,129.5C 134.013,130.981 124.68,130.314 115.5,127.5C 110.5,124.5 106.5,120.5 103.5,115.5 Z"/></g>
<g><path style="opacity:1" fill="#307182" d="M 255.5,103.5 C 255.5,104.5 255.5,105.5 255.5,106.5C 254.883,106.389 254.383,106.056 254,105.5C 250.18,111.805 244.68,116.139 237.5,118.5C 233.782,126.885 227.782,132.885 219.5,136.5C 219.062,136.565 218.728,136.399 218.5,136C 225.767,131.901 231.1,126.068 234.5,118.5C 236.145,117.521 237.479,116.188 238.5,114.5C 242.209,113.812 245.543,112.312 248.5,110C 250.071,106.926 252.404,104.76 255.5,103.5 Z"/></g>
<g><path style="opacity:1" fill="#3d7c77" d="M 113.5,118.5 C 116.738,119.633 120.071,120.467 123.5,121C 128.781,124.99 134.781,126.823 141.5,126.5C 142.338,126.842 142.672,127.508 142.5,128.5C 138.818,128.665 135.152,128.499 131.5,128C 126.128,124.684 120.461,122.184 114.5,120.5C 114.167,119.833 113.833,119.167 113.5,118.5 Z"/></g>
<g><path style="opacity:1" fill="#78a4a8" d="M 204.5,111.5 C 205.468,113.607 205.802,115.941 205.5,118.5C 205.335,121.85 205.502,125.183 206,128.5C 206.414,128.957 206.914,129.291 207.5,129.5C 208.288,128.23 209.288,127.23 210.5,126.5C 210.5,126.833 210.5,127.167 210.5,127.5C 209.89,128.391 209.557,129.391 209.5,130.5C 204.298,131.676 198.965,132.676 193.5,133.5C 192.584,133.457 191.917,133.124 191.5,132.5C 191.5,131.5 191.5,130.5 191.5,129.5C 193.027,129.573 194.027,128.906 194.5,127.5C 197.586,127.113 200.586,127.113 203.5,127.5C 204.451,122.23 204.785,116.897 204.5,111.5 Z"/></g>
<g><path style="opacity:1" fill="#44453a" d="M 115.5,127.5 C 124.68,130.314 134.013,130.981 143.5,129.5C 145.167,129.5 146.833,129.5 148.5,129.5C 146.967,131.245 144.967,132.245 142.5,132.5C 136.773,132.74 131.106,132.407 125.5,131.5C 124.833,131.5 124.167,131.5 123.5,131.5C 120.461,130.722 117.794,129.388 115.5,127.5 Z"/></g>
<g><path style="opacity:1" fill="#020202" d="M 125.5,131.5 C 131.106,132.407 136.773,132.74 142.5,132.5C 141.589,134.803 139.923,136.303 137.5,137C 141.25,138.319 144.917,138.819 148.5,138.5C 147.508,138.328 146.842,138.662 146.5,139.5C 144.518,139.995 142.518,140.495 140.5,141C 139.748,141.671 139.414,142.504 139.5,143.5C 132.833,143.5 126.167,143.5 119.5,143.5C 121.061,140.659 122.895,137.992 125,135.5C 125.49,134.207 125.657,132.873 125.5,131.5 Z"/></g>
<g><path style="opacity:1" fill="#0f3028" d="M 189.5,132.5 C 189.704,134.685 190.37,136.685 191.5,138.5C 191.5,140.167 191.5,141.833 191.5,143.5C 184.5,143.5 177.5,143.5 170.5,143.5C 171.5,141.833 172.833,140.5 174.5,139.5C 178.853,135.148 183.519,131.148 188.5,127.5C 189.452,129.045 189.785,130.712 189.5,132.5 Z"/></g>
<g><path style="opacity:1" fill="#47898a" d="M 209.5,130.5 C 208.911,133.276 207.578,135.61 205.5,137.5C 203.266,137.38 201.099,137.713 199,138.5C 196.711,136.94 194.211,135.773 191.5,135C 190.748,134.329 190.414,133.496 190.5,132.5C 190.833,132.5 191.167,132.5 191.5,132.5C 191.917,133.124 192.584,133.457 193.5,133.5C 198.965,132.676 204.298,131.676 209.5,130.5 Z"/></g>
<g><path style="opacity:1" fill="#210202" d="M 173.5,108.5 C 170.939,110.64 168.605,112.973 166.5,115.5C 163.582,117.877 160.415,119.877 157,121.5C 154.88,125.792 153.214,130.459 152,135.5C 155.018,134.972 157.851,133.972 160.5,132.5C 161.107,132.624 161.44,132.957 161.5,133.5C 157.512,135.92 153.179,137.587 148.5,138.5C 144.917,138.819 141.25,138.319 137.5,137C 139.923,136.303 141.589,134.803 142.5,132.5C 144.967,132.245 146.967,131.245 148.5,129.5C 150.933,129.214 150.933,128.548 148.5,127.5C 148.192,125.076 148.526,122.743 149.5,120.5C 157.335,116.664 164.335,111.664 170.5,105.5C 171.855,106.188 172.855,107.188 173.5,108.5 Z"/></g>
<g><path style="opacity:1" fill="#5f1b0e" d="M 171.5,126.5 C 170.833,127.5 170.167,128.5 169.5,129.5C 166.167,132.5 162.833,135.5 159.5,138.5C 156.307,139.011 153.141,139.678 150,140.5C 148.615,140.486 147.449,140.152 146.5,139.5C 146.842,138.662 147.508,138.328 148.5,138.5C 153.179,137.587 157.512,135.92 161.5,133.5C 164.513,130.664 167.846,128.331 171.5,126.5 Z"/></g>
<g><path style="opacity:1" fill="#1f0000" d="M 123.5,131.5 C 124.167,131.5 124.833,131.5 125.5,131.5C 125.657,132.873 125.49,134.207 125,135.5C 122.895,137.992 121.061,140.659 119.5,143.5C 117.5,143.5 115.5,143.5 113.5,143.5C 114.257,140.962 114.257,138.629 113.5,136.5C 115.409,137.348 117.409,137.682 119.5,137.5C 119.5,136.5 119.5,135.5 119.5,134.5C 121.973,134.912 123.306,133.912 123.5,131.5 Z"/></g>
<g><path style="opacity:1" fill="#33504b" d="M 189.5,132.5 C 189.833,132.5 190.167,132.5 190.5,132.5C 190.414,133.496 190.748,134.329 191.5,135C 194.211,135.773 196.711,136.94 199,138.5C 201.099,137.713 203.266,137.38 205.5,137.5C 201.123,140.969 196.456,141.302 191.5,138.5C 190.37,136.685 189.704,134.685 189.5,132.5 Z"/></g>
<g><path style="opacity:1" fill="#3c0a07" d="M 159.5,138.5 C 158.167,140.167 156.833,141.833 155.5,143.5C 150.167,143.5 144.833,143.5 139.5,143.5C 139.414,142.504 139.748,141.671 140.5,141C 142.518,140.495 144.518,139.995 146.5,139.5C 147.449,140.152 148.615,140.486 150,140.5C 153.141,139.678 156.307,139.011 159.5,138.5 Z"/></g>
<g><path style="opacity:1" fill="#183355" d="M 169.5,129.5 C 169.002,134.152 168.669,138.819 168.5,143.5C 164.167,143.5 159.833,143.5 155.5,143.5C 156.833,141.833 158.167,140.167 159.5,138.5C 162.833,135.5 166.167,132.5 169.5,129.5 Z"/></g>
</svg>
