<?xml version="1.0" encoding="UTF-8"?>
<!DOCTYPE svg PUBLIC "-//W3C//DTD SVG 1.1//EN" "http://www.w3.org/Graphics/SVG/1.1/DTD/svg11.dtd">
<svg xmlns="http://www.w3.org/2000/svg" version="1.1" width="256px" height="144px" style="shape-rendering:geometricPrecision; text-rendering:geometricPrecision; image-rendering:optimizeQuality; fill-rule:evenodd; clip-rule:evenodd" xmlns:xlink="http://www.w3.org/1999/xlink">
<g><path style="opacity:1" fill="#18252c" d="M -0.5,-0.5 C 2.83333,-0.5 6.16667,-0.5 9.5,-0.5C 11.002,1.17496 12.3353,3.0083 13.5,5C 12.552,5.48278 11.552,5.64945 10.5,5.5C 6.93595,4.57734 3.26928,4.24401 -0.5,4.5C -0.5,2.83333 -0.5,1.16667 -0.5,-0.5 Z"/></g>
<g><path style="opacity:1" fill="#1b272d" d="M 170.5,-0.5 C 183.833,-0.5 197.167,-0.5 210.5,-0.5C 210.5,-0.166667 210.5,0.166667 210.5,0.5C 203.364,2.96045 198.031,7.62711 194.5,14.5C 194.808,15.3081 195.308,15.9747 196,16.5C 198.129,15.1373 198.629,15.4706 197.5,17.5C 198.806,18.9122 199.64,20.5789 200,22.5C 200.333,22.1667 200.667,21.8333 201,21.5C 202.074,22.6184 203.24,23.6184 204.5,24.5C 206.036,28.6224 207.37,32.4557 208.5,36C 210.289,36.5205 211.956,36.1871 213.5,35C 218.02,28.655 223.02,22.8217 228.5,17.5C 229.807,16.8466 231.14,16.1799 232.5,15.5C 234.251,23.4181 239.084,28.0847 247,29.5C 249.246,33.8974 250.413,38.5641 250.5,43.5C 249.215,41.9378 247.715,40.6045 246,39.5C 244.467,40.6953 242.967,40.6953 241.5,39.5C 240.186,40.3128 239.019,41.3128 238,42.5C 237.5,42 237,41.5 236.5,41C 238.41,40.5917 239.41,39.4251 239.5,37.5C 238.349,35.6746 237.682,33.6746 237.5,31.5C 235.692,31.4914 234.025,31.9914 232.5,33C 230.7,36.7837 228.033,37.4504 224.5,35C 225.167,33.6667 225.833,32.3333 226.5,31C 224.782,30.654 223.115,30.154 221.5,29.5C 218.644,31.522 216.311,34.022 214.5,37C 214.833,37.3333 215.167,37.6667 215.5,38C 213.618,38.1981 211.952,38.6981 210.5,39.5C 208.194,39.9926 205.861,40.3259 203.5,40.5C 203.167,40.5 202.833,40.5 202.5,40.5C 200.167,40.5 197.833,40.5 195.5,40.5C 195.662,38.4727 195.495,36.4727 195,34.5C 193.199,31.2891 191.699,27.9558 190.5,24.5C 186.512,23.03 183.178,20.53 180.5,17C 177.321,15.5387 173.988,14.7054 170.5,14.5C 170.5,9.5 170.5,4.5 170.5,-0.5 Z"/></g>
<g><path style="opacity:1" fill="#192329" d="M 210.5,0.5 C 210.5,0.166667 210.5,-0.166667 210.5,-0.5C 225.5,-0.5 240.5,-0.5 255.5,-0.5C 255.5,15.8333 255.5,32.1667 255.5,48.5C 253.548,47.2153 251.882,45.5486 250.5,43.5C 250.413,38.5641 249.246,33.8974 247,29.5C 239.084,28.0847 234.251,23.4181 232.5,15.5C 231.14,16.1799 229.807,16.8466 228.5,17.5C 228.649,16.448 228.483,15.448 228,14.5C 225.215,12.2894 222.882,9.62272 221,6.5C 220.439,7.02186 219.772,7.3552 219,7.5C 217.34,6.17088 215.507,5.17088 213.5,4.5C 212.943,2.6684 211.943,1.33507 210.5,0.5 Z"/></g>
<g><path style="opacity:1" fill="#3f586b" d="M 50.5,-0.5 C 55.5,-0.5 60.5,-0.5 65.5,-0.5C 65.369,0.238911 65.5357,0.905578 66,1.5C 68.5212,1.99951 70.3545,3.33284 71.5,5.5C 67.6365,9.67982 64.6365,14.3465 62.5,19.5C 62.5,18.5 62.5,17.5 62.5,16.5C 59.9321,15.5504 57.4321,15.5504 55,16.5C 54.6667,12.8333 54.3333,9.16667 54,5.5C 51.8123,4.11128 50.6456,2.11128 50.5,-0.5 Z"/></g>
<g><path style="opacity:1" fill="#1b252c" d="M 210.5,0.5 C 211.943,1.33507 212.943,2.6684 213.5,4.5C 215.507,5.17088 217.34,6.17088 219,7.5C 219.772,7.3552 220.439,7.02186 221,6.5C 222.882,9.62272 225.215,12.2894 228,14.5C 228.483,15.448 228.649,16.448 228.5,17.5C 223.02,22.8217 218.02,28.655 213.5,35C 211.956,36.1871 210.289,36.5205 208.5,36C 207.37,32.4557 206.036,28.6224 204.5,24.5C 203.24,23.6184 202.074,22.6184 201,21.5C 200.667,21.8333 200.333,22.1667 200,22.5C 199.64,20.5789 198.806,18.9122 197.5,17.5C 198.629,15.4706 198.129,15.1373 196,16.5C 195.308,15.9747 194.808,15.3081 194.5,14.5C 198.031,7.62711 203.364,2.96045 210.5,0.5 Z"/></g>
<g><path style="opacity:1" fill="#5495af" d="M 9.5,-0.5 C 16.5,-0.5 23.5,-0.5 30.5,-0.5C 32.5278,3.5278 35.5278,6.5278 39.5,8.5C 38.5386,10.2646 38.2053,12.2646 38.5,14.5C 34.8837,15.5235 31.3837,16.8569 28,18.5C 27.3333,17.8333 26.6667,17.1667 26,16.5C 25.7645,18.1193 24.9311,19.1193 23.5,19.5C 22.8333,19.5 22.5,19.1667 22.5,18.5C 20.303,14.7623 17.6363,11.429 14.5,8.5C 13.5525,7.02211 12.2191,6.02211 10.5,5.5C 11.552,5.64945 12.552,5.48278 13.5,5C 12.3353,3.0083 11.002,1.17496 9.5,-0.5 Z"/></g>
<g><path style="opacity:1" fill="#92ddd9" d="M 30.5,-0.5 C 32.8333,-0.5 35.1667,-0.5 37.5,-0.5C 39.6133,2.21649 41.6133,5.04982 43.5,8C 42.552,8.48278 41.552,8.64945 40.5,8.5C 40.1667,8.5 39.8333,8.5 39.5,8.5C 35.5278,6.5278 32.5278,3.5278 30.5,-0.5 Z"/></g>
<g><path style="opacity:1" fill="#3a616c" d="M 104.5,-0.5 C 105.5,-0.5 106.5,-0.5 107.5,-0.5C 110.86,3.52711 114.527,7.19377 118.5,10.5C 113.645,9.18818 108.645,8.18818 103.5,7.5C 103.401,4.76275 103.735,2.09609 104.5,-0.5 Z"/></g>
<g><path style="opacity:1" fill="#6b8e90" d="M 169.5,0.5 C 169.779,5.59467 169.445,10.5947 168.5,15.5C 167.957,15.44 167.624,15.1067 167.5,14.5C 168.117,9.70063 168.784,5.03396 169.5,0.5 Z"/></g>
<g><path style="opacity:1" fill="#64ade4" d="M 146.5,4.5 C 150.041,7.68103 152.707,11.3477 154.5,15.5C 154.5,15.8333 154.5,16.1667 154.5,16.5C 154.217,17.2891 153.717,17.9558 153,18.5C 150.557,16.6991 148.057,15.0324 145.5,13.5C 143.507,11.8368 141.174,10.6701 138.5,10C 136.833,7 134.5,4.66667 131.5,3C 136.546,2.83966 141.546,3.33966 146.5,4.5 Z"/></g>
<g><path style="opacity:1" fill="#3b7373" d="M 65.5,-0.5 C 78.5,-0.5 91.5,-0.5 104.5,-0.5C 103.735,2.09609 103.401,4.76275 103.5,7.5C 101.236,6.78138 98.9029,6.44805 96.5,6.5C 94.3281,7.80112 91.9948,8.80112 89.5,9.5C 88.1984,8.19314 86.865,8.19314 85.5,9.5C 83.8669,7.49702 81.8669,6.16369 79.5,5.5C 79.5,6.5 79.5,7.5 79.5,8.5C 78.5,8.5 77.5,8.5 76.5,8.5C 76.5,7.5 76.5,6.5 76.5,5.5C 75.5,5.5 74.5,5.5 73.5,5.5C 72.8333,5.5 72.1667,5.5 71.5,5.5C 70.3545,3.33284 68.5212,1.99951 66,1.5C 65.5357,0.905578 65.369,0.238911 65.5,-0.5 Z"/></g>
<g><path style="opacity:1" fill="#2e7772" d="M 73.5,5.5 C 74.5,5.5 75.5,5.5 76.5,5.5C 76.5,6.5 76.5,7.5 76.5,8.5C 77.5,8.5 78.5,8.5 79.5,8.5C 79.5,7.5 79.5,6.5 79.5,5.5C 81.8669,6.16369 83.8669,7.49702 85.5,9.5C 86.865,8.19314 88.1984,8.19314 89.5,9.5C 88.2517,10.569 86.9183,11.569 85.5,12.5C 85.6799,13.5539 86.0133,14.5539 86.5,15.5C 85.8653,19.3669 85.1987,23.2002 84.5,27C 80.5003,27.5001 77.5003,26.0001 75.5,22.5C 78.5022,18.8113 77.5022,16.8113 72.5,16.5C 72.423,12.7852 72.7564,9.11853 73.5,5.5 Z"/></g>
<g><path style="opacity:1" fill="#77e3fc" d="M 139.5,-0.5 C 141.833,-0.5 144.167,-0.5 146.5,-0.5C 149.453,4.56543 152.787,9.39877 156.5,14C 155.584,14.2784 154.918,14.7784 154.5,15.5C 152.707,11.3477 150.041,7.68103 146.5,4.5C 144.161,2.82498 141.827,1.15831 139.5,-0.5 Z"/></g>
<g><path style="opacity:1" fill="#60949b" d="M 96.5,6.5 C 98.9029,6.44805 101.236,6.78138 103.5,7.5C 108.645,8.18818 113.645,9.18818 118.5,10.5C 118.5,10.8333 118.5,11.1667 118.5,11.5C 117.694,12.7281 116.694,13.7281 115.5,14.5C 114.5,14.5 113.5,14.5 112.5,14.5C 112.5,14.1667 112.5,13.8333 112.5,13.5C 113.756,13.5386 114.756,13.0386 115.5,12C 110.487,12.6658 105.487,12.4991 100.5,11.5C 98.3121,10.5557 96.9788,8.88905 96.5,6.5 Z"/></g>
<g><path style="opacity:1" fill="#528e9f" d="M 37.5,-0.5 C 40.5,-0.5 43.5,-0.5 46.5,-0.5C 46.7895,4.17286 48.1228,8.5062 50.5,12.5C 50,12.8333 49.5,13.1667 49,13.5C 47.5936,12.5862 46.0936,11.9195 44.5,11.5C 43.4097,10.1429 42.0764,9.14294 40.5,8.5C 41.552,8.64945 42.552,8.48278 43.5,8C 41.6133,5.04982 39.6133,2.21649 37.5,-0.5 Z"/></g>
<g><path style="opacity:1" fill="#41617b" d="M 46.5,-0.5 C 47.8333,-0.5 49.1667,-0.5 50.5,-0.5C 50.6456,2.11128 51.8123,4.11128 54,5.5C 54.3333,9.16667 54.6667,12.8333 55,16.5C 57.4321,15.5504 59.9321,15.5504 62.5,16.5C 62.5,17.5 62.5,18.5 62.5,19.5C 56.9114,19.0016 51.5781,19.6683 46.5,21.5C 45.609,22.1098 44.609,22.4431 43.5,22.5C 42.0907,20.5831 40.424,18.7498 38.5,17C 39.7234,14.9479 40.7234,12.7812 41.5,10.5C 42.4168,11.1272 43.4168,11.4606 44.5,11.5C 46.0936,11.9195 47.5936,12.5862 49,13.5C 49.5,13.1667 50,12.8333 50.5,12.5C 48.1228,8.5062 46.7895,4.17286 46.5,-0.5 Z"/></g>
<g><path style="opacity:1" fill="#2f6064" d="M 71.5,5.5 C 72.1667,5.5 72.8333,5.5 73.5,5.5C 72.7564,9.11853 72.423,12.7852 72.5,16.5C 77.5022,16.8113 78.5022,18.8113 75.5,22.5C 72.4736,21.1179 69.4736,19.7846 66.5,18.5C 65.0372,24.4022 67.3705,28.0688 73.5,29.5C 73.9577,32.3938 73.291,34.8938 71.5,37C 72.8228,37.8159 73.4894,38.9826 73.5,40.5C 71.2426,38.0767 68.5759,36.2433 65.5,35C 64.1772,34.1841 63.5106,33.0174 63.5,31.5C 63.5191,29.9397 63.8524,28.4397 64.5,27C 63.1439,25.4329 62.4772,23.5996 62.5,21.5C 61.325,21.281 60.325,21.6143 59.5,22.5C 60.5318,27.1947 59.6985,27.5281 57,23.5C 56.586,23.9574 56.086,24.2907 55.5,24.5C 54.1667,23.5 52.8333,22.5 51.5,21.5C 49.6837,22.7349 48.017,22.7349 46.5,21.5C 51.5781,19.6683 56.9114,19.0016 62.5,19.5C 64.6365,14.3465 67.6365,9.67982 71.5,5.5 Z"/></g>
<g><path style="opacity:1" fill="#4990be" d="M 107.5,-0.5 C 109.167,-0.5 110.833,-0.5 112.5,-0.5C 115.821,5.10199 120.321,6.76866 126,4.5C 132.337,8.00432 137.17,13.0043 140.5,19.5C 145.645,22.8115 149.978,26.9781 153.5,32C 156.898,33.3571 159.898,35.1904 162.5,37.5C 156.597,35.8819 151.264,33.2152 146.5,29.5C 142.635,25.8761 137.968,24.2095 132.5,24.5C 134.042,23.8365 135.709,23.1698 137.5,22.5C 136.352,20.8513 135.019,19.3513 133.5,18C 129.323,16.7483 125.656,14.7483 122.5,12C 121.207,11.51 119.873,11.3433 118.5,11.5C 118.5,11.1667 118.5,10.8333 118.5,10.5C 114.527,7.19377 110.86,3.52711 107.5,-0.5 Z"/></g>
<g><path style="opacity:1" fill="#25dd90" d="M -0.5,4.5 C 3.26928,4.24401 6.93595,4.57734 10.5,5.5C 12.2191,6.02211 13.5525,7.02211 14.5,8.5C 13.1667,9.16667 12.1667,10.1667 11.5,11.5C 9.50819,11.3285 7.84152,11.9951 6.5,13.5C 4.89008,16.6839 3.89008,20.0172 3.5,23.5C 2.0357,24.4054 0.702365,24.4054 -0.5,23.5C -0.5,17.1667 -0.5,10.8333 -0.5,4.5 Z"/></g>
<g><path style="opacity:1" fill="#16b682" d="M 11.5,11.5 C 9.12892,13.9966 8.12892,16.9966 8.5,20.5C 6.66754,21.2485 5.00087,22.2485 3.5,23.5C 3.89008,20.0172 4.89008,16.6839 6.5,13.5C 7.84152,11.9951 9.50819,11.3285 11.5,11.5 Z"/></g>
<g><path style="opacity:1" fill="#52b4db" d="M 118.5,11.5 C 119.873,11.3433 121.207,11.51 122.5,12C 125.656,14.7483 129.323,16.7483 133.5,18C 135.019,19.3513 136.352,20.8513 137.5,22.5C 135.709,23.1698 134.042,23.8365 132.5,24.5C 131.833,24.5 131.167,24.5 130.5,24.5C 125.523,21.2 120.523,17.8666 115.5,14.5C 116.694,13.7281 117.694,12.7281 118.5,11.5 Z"/></g>
<g><path style="opacity:1" fill="#163139" d="M 22.5,18.5 C 22.5,19.1667 22.8333,19.5 23.5,19.5C 25.3805,23.5585 26.3805,27.8918 26.5,32.5C 26.8476,36.0847 26.181,39.418 24.5,42.5C 23.71,43.6085 23.21,44.9419 23,46.5C 21.9887,45.6634 20.8221,45.33 19.5,45.5C 19.5,46.5 19.5,47.5 19.5,48.5C 18.1779,48.33 17.0113,48.6634 16,49.5C 15.5034,51.8098 15.3367,54.1432 15.5,56.5C 13.3364,56.2785 11.6697,55.2785 10.5,53.5C 10.5,52.8333 10.5,52.1667 10.5,51.5C 12.543,45.4997 14.2096,39.333 15.5,33C 14.1251,30.6846 13.1251,28.1846 12.5,25.5C 15.0807,22.1126 18.414,19.7792 22.5,18.5 Z"/></g>
<g><path style="opacity:1" fill="#b6f3f5" d="M 146.5,-0.5 C 148.167,-0.5 149.833,-0.5 151.5,-0.5C 152.604,1.38855 153.937,3.05522 155.5,4.5C 157.736,10.6315 161.236,15.9649 166,20.5C 165.27,17.9792 164.77,15.3126 164.5,12.5C 165.248,8.18777 165.914,3.85444 166.5,-0.5C 167.5,-0.5 168.5,-0.5 169.5,-0.5C 169.5,-0.166667 169.5,0.166667 169.5,0.5C 168.784,5.03396 168.117,9.70063 167.5,14.5C 167.624,15.1067 167.957,15.44 168.5,15.5C 169.089,19.4665 170.422,23.1332 172.5,26.5C 172.5,26.8333 172.5,27.1667 172.5,27.5C 170.677,28.4933 169.344,29.9933 168.5,32C 169.878,34.3458 170.878,36.8458 171.5,39.5C 169.5,38.1667 167.5,36.8333 165.5,35.5C 165.099,34.009 164.932,32.3423 165,30.5C 162.894,28.6234 161.561,26.29 161,23.5C 159.281,20.7121 157.115,18.3788 154.5,16.5C 154.5,16.1667 154.5,15.8333 154.5,15.5C 154.918,14.7784 155.584,14.2784 156.5,14C 152.787,9.39877 149.453,4.56543 146.5,-0.5 Z"/></g>
<g><path style="opacity:1" fill="#5fe4ee" d="M 155.5,4.5 C 158.933,6.72502 161.933,9.39168 164.5,12.5C 164.77,15.3126 165.27,17.9792 166,20.5C 161.236,15.9649 157.736,10.6315 155.5,4.5 Z"/></g>
<g><path style="opacity:1" fill="#4ff5da" d="M 151.5,-0.5 C 156.5,-0.5 161.5,-0.5 166.5,-0.5C 165.914,3.85444 165.248,8.18777 164.5,12.5C 161.933,9.39168 158.933,6.72502 155.5,4.5C 153.937,3.05522 152.604,1.38855 151.5,-0.5 Z"/></g>
<g><path style="opacity:1" fill="#306f6f" d="M 100.5,11.5 C 105.487,12.4991 110.487,12.6658 115.5,12C 114.756,13.0386 113.756,13.5386 112.5,13.5C 109.648,14.7232 108.981,16.7232 110.5,19.5C 109.265,19.2786 108.265,18.6119 107.5,17.5C 104.155,19.145 100.988,21.145 98,23.5C 97.2748,25.1575 97.7748,26.1575 99.5,26.5C 97.6136,27.0652 95.9469,28.0652 94.5,29.5C 95.6888,30.4287 97.0222,30.762 98.5,30.5C 98.5,31.5 98.5,32.5 98.5,33.5C 94.9966,33.8711 91.9966,32.8711 89.5,30.5C 90.3984,29.8423 91.3984,29.1757 92.5,28.5C 90.6841,27.1851 89.0175,25.6851 87.5,24C 88.6765,22.3257 90.0098,20.8257 91.5,19.5C 90.1413,17.694 90.4746,16.194 92.5,15C 95.5535,14.8214 98.5535,14.3214 101.5,13.5C 101.137,12.8165 100.804,12.1499 100.5,11.5 Z"/></g>
<g><path style="opacity:1" fill="#39697e" d="M 112.5,13.5 C 112.5,13.8333 112.5,14.1667 112.5,14.5C 112.5,16.1667 112.5,17.8333 112.5,19.5C 113.833,19.5 115.167,19.5 116.5,19.5C 116.5,20.5 116.5,21.5 116.5,22.5C 121.566,23.9027 124.566,27.2361 125.5,32.5C 125.5,32.8333 125.5,33.1667 125.5,33.5C 125.167,33.5 124.833,33.5 124.5,33.5C 124.5,32.8333 124.167,32.5 123.5,32.5C 123.167,31.5 122.5,30.8333 121.5,30.5C 121.5,30.1667 121.5,29.8333 121.5,29.5C 119.765,24.938 116.431,22.438 111.5,22C 110.748,21.3292 110.414,20.4959 110.5,19.5C 108.981,16.7232 109.648,14.7232 112.5,13.5 Z"/></g>
<g><path style="opacity:1" fill="#1e474e" d="M 14.5,8.5 C 17.6363,11.429 20.303,14.7623 22.5,18.5C 18.414,19.7792 15.0807,22.1126 12.5,25.5C 13.1251,28.1846 14.1251,30.6846 15.5,33C 14.2096,39.333 12.543,45.4997 10.5,51.5C 9.48102,44.9725 9.31435,38.3058 10,31.5C 5.96159,41.4549 2.46159,51.4549 -0.5,61.5C -0.5,52.1667 -0.5,42.8333 -0.5,33.5C 1.31369,31.2359 3.14702,28.9025 5,26.5C 5.33333,28.1667 5.66667,29.8333 6,31.5C 7.04901,27.8675 7.88234,24.2008 8.5,20.5C 8.12892,16.9966 9.12892,13.9966 11.5,11.5C 12.1667,10.1667 13.1667,9.16667 14.5,8.5 Z"/></g>
<g><path style="opacity:1" fill="#4d6f91" d="M 39.5,8.5 C 39.8333,8.5 40.1667,8.5 40.5,8.5C 42.0764,9.14294 43.4097,10.1429 44.5,11.5C 43.4168,11.4606 42.4168,11.1272 41.5,10.5C 40.7234,12.7812 39.7234,14.9479 38.5,17C 40.424,18.7498 42.0907,20.5831 43.5,22.5C 39.5617,23.765 37.5617,26.4316 37.5,30.5C 34.0136,30.2953 33.0136,31.6286 34.5,34.5C 33.8333,34.5 33.5,34.8333 33.5,35.5C 32.1196,34.2935 30.9529,34.6269 30,36.5C 28.4499,35.4092 27.2832,34.0758 26.5,32.5C 26.3805,27.8918 25.3805,23.5585 23.5,19.5C 24.9311,19.1193 25.7645,18.1193 26,16.5C 26.6667,17.1667 27.3333,17.8333 28,18.5C 31.3837,16.8569 34.8837,15.5235 38.5,14.5C 38.2053,12.2646 38.5386,10.2646 39.5,8.5 Z"/></g>
<g><path style="opacity:1" fill="#37838d" d="M 110.5,19.5 C 110.414,20.4959 110.748,21.3292 111.5,22C 116.431,22.438 119.765,24.938 121.5,29.5C 120.417,29.4606 119.417,29.1272 118.5,28.5C 117.719,29.7366 116.719,30.7366 115.5,31.5C 114.246,29.7408 114.579,28.2408 116.5,27C 114.172,26.1699 111.838,25.3366 109.5,24.5C 105.774,24.7983 104.607,26.7983 106,30.5C 108.029,33.5956 110.862,35.2623 114.5,35.5C 118.631,38.7798 121.965,38.1131 124.5,33.5C 124.833,33.5 125.167,33.5 125.5,33.5C 125.5,34.5 125.5,35.5 125.5,36.5C 123.767,37.0076 123.434,37.841 124.5,39C 123.667,39.1667 122.833,39.3333 122,39.5C 118.067,38.0284 114.233,38.1951 110.5,40C 111.517,41.0495 111.684,42.2161 111,43.5C 108.905,41.8753 106.739,40.5419 104.5,39.5C 106.179,39.1077 107.846,38.6077 109.5,38C 104.069,35.607 102.069,31.4404 103.5,25.5C 101.901,25.2322 100.568,25.5655 99.5,26.5C 97.7748,26.1575 97.2748,25.1575 98,23.5C 100.988,21.145 104.155,19.145 107.5,17.5C 108.265,18.6119 109.265,19.2786 110.5,19.5 Z"/></g>
<g><path style="opacity:1" fill="#80d4f8" d="M 145.5,13.5 C 148.057,15.0324 150.557,16.6991 153,18.5C 153.717,17.9558 154.217,17.2891 154.5,16.5C 157.115,18.3788 159.281,20.7121 161,23.5C 161.561,26.29 162.894,28.6234 165,30.5C 164.932,32.3423 165.099,34.009 165.5,35.5C 164.504,35.5858 163.671,35.2524 163,34.5C 161.43,31.7775 160.264,29.2775 159.5,27C 152.885,22.7193 146.552,18.0526 140.5,13C 142.107,13.0187 143.774,13.1854 145.5,13.5 Z"/></g>
<g><path style="opacity:1" fill="#2f4965" d="M 112.5,14.5 C 113.5,14.5 114.5,14.5 115.5,14.5C 120.523,17.8666 125.523,21.2 130.5,24.5C 130.5,24.8333 130.5,25.1667 130.5,25.5C 128.5,25.5 126.5,25.5 124.5,25.5C 126.834,29.2142 128.834,33.2142 130.5,37.5C 129.675,38.3857 128.675,38.719 127.5,38.5C 127.741,36.1016 127.074,34.1016 125.5,32.5C 124.566,27.2361 121.566,23.9027 116.5,22.5C 116.5,21.5 116.5,20.5 116.5,19.5C 115.167,19.5 113.833,19.5 112.5,19.5C 112.5,17.8333 112.5,16.1667 112.5,14.5 Z"/></g>
<g><path style="opacity:1" fill="#3a596c" d="M 46.5,21.5 C 48.017,22.7349 49.6837,22.7349 51.5,21.5C 52.8333,22.5 54.1667,23.5 55.5,24.5C 56.086,24.2907 56.586,23.9574 57,23.5C 59.6985,27.5281 60.5318,27.1947 59.5,22.5C 60.325,21.6143 61.325,21.281 62.5,21.5C 62.4772,23.5996 63.1439,25.4329 64.5,27C 63.8524,28.4397 63.5191,29.9397 63.5,31.5C 60.5825,30.5462 57.5825,29.8795 54.5,29.5C 51.5619,29.5676 48.8952,30.2342 46.5,31.5C 43.9752,32.64 41.3085,33.3067 38.5,33.5C 37.0413,33.4326 35.7079,33.7659 34.5,34.5C 33.0136,31.6286 34.0136,30.2953 37.5,30.5C 37.5617,26.4316 39.5617,23.765 43.5,22.5C 44.609,22.4431 45.609,22.1098 46.5,21.5 Z"/></g>
<g><path style="opacity:1" fill="#61b4df" d="M 112.5,-0.5 C 121.5,-0.5 130.5,-0.5 139.5,-0.5C 141.827,1.15831 144.161,2.82498 146.5,4.5C 141.546,3.33966 136.546,2.83966 131.5,3C 134.5,4.66667 136.833,7 138.5,10C 141.174,10.6701 143.507,11.8368 145.5,13.5C 143.774,13.1854 142.107,13.0187 140.5,13C 146.552,18.0526 152.885,22.7193 159.5,27C 160.264,29.2775 161.43,31.7775 163,34.5C 163.671,35.2524 164.504,35.5858 165.5,35.5C 167.5,36.8333 169.5,38.1667 171.5,39.5C 173.104,40.287 173.771,41.6203 173.5,43.5C 170.588,42.5711 167.921,41.2378 165.5,39.5C 164.29,39.0679 163.29,38.4013 162.5,37.5C 159.898,35.1904 156.898,33.3571 153.5,32C 149.978,26.9781 145.645,22.8115 140.5,19.5C 137.17,13.0043 132.337,8.00432 126,4.5C 120.321,6.76866 115.821,5.10199 112.5,-0.5 Z"/></g>
<g><path style="opacity:1" fill="#50d9ce" d="M 121.5,29.5 C 121.5,29.8333 121.5,30.1667 121.5,30.5C 120.596,31.209 120.263,32.209 120.5,33.5C 118.102,33.2594 116.102,33.9261 114.5,35.5C 110.862,35.2623 108.029,33.5956 106,30.5C 104.607,26.7983 105.774,24.7983 109.5,24.5C 111.838,25.3366 114.172,26.1699 116.5,27C 114.579,28.2408 114.246,29.7408 115.5,31.5C 116.719,30.7366 117.719,29.7366 118.5,28.5C 119.417,29.1272 120.417,29.4606 121.5,29.5 Z"/></g>
<g><path style="opacity:1" fill="#407c83" d="M 8.5,20.5 C 7.88234,24.2008 7.04901,27.8675 6,31.5C 5.66667,29.8333 5.33333,28.1667 5,26.5C 3.14702,28.9025 1.31369,31.2359 -0.5,33.5C -0.5,30.1667 -0.5,26.8333 -0.5,23.5C 0.702365,24.4054 2.0357,24.4054 3.5,23.5C 5.00087,22.2485 6.66754,21.2485 8.5,20.5 Z"/></g>
<g><path style="opacity:1" fill="#368d89" d="M 96.5,6.5 C 96.9788,8.88905 98.3121,10.5557 100.5,11.5C 100.804,12.1499 101.137,12.8165 101.5,13.5C 98.5535,14.3214 95.5535,14.8214 92.5,15C 90.4746,16.194 90.1413,17.694 91.5,19.5C 90.0098,20.8257 88.6765,22.3257 87.5,24C 89.0175,25.6851 90.6841,27.1851 92.5,28.5C 91.3984,29.1757 90.3984,29.8423 89.5,30.5C 87.3193,30.2837 85.6526,31.117 84.5,33C 82.4325,33.6869 80.4325,33.5202 78.5,32.5C 77.5,33 76.5,33.5 75.5,34C 75.9662,35.2988 75.9662,36.7988 75.5,38.5C 78.5,38.5 81.5,38.5 84.5,38.5C 85.1239,38.9169 85.4573,39.5836 85.5,40.5C 84.4529,42.0564 83.7863,43.7231 83.5,45.5C 82.5,45.5 81.5,45.5 80.5,45.5C 78.4268,43.4202 76.0934,41.7536 73.5,40.5C 73.4894,38.9826 72.8228,37.8159 71.5,37C 73.291,34.8938 73.9577,32.3938 73.5,29.5C 67.3705,28.0688 65.0372,24.4022 66.5,18.5C 69.4736,19.7846 72.4736,21.1179 75.5,22.5C 77.5003,26.0001 80.5003,27.5001 84.5,27C 85.1987,23.2002 85.8653,19.3669 86.5,15.5C 86.0133,14.5539 85.6799,13.5539 85.5,12.5C 86.9183,11.569 88.2517,10.569 89.5,9.5C 91.9948,8.80112 94.3281,7.80112 96.5,6.5 Z"/></g>
<g><path style="opacity:1" fill="#2d6d68" d="M 191.5,41.5 C 191.167,41.5 190.833,41.5 190.5,41.5C 188.143,41.6633 185.81,41.4966 183.5,41C 179.591,36.6014 175.924,32.1014 172.5,27.5C 172.5,27.1667 172.5,26.8333 172.5,26.5C 179.829,24.1468 184.163,26.8135 185.5,34.5C 185.16,36.5122 184.827,38.5122 184.5,40.5C 187.059,40.1984 189.393,40.5318 191.5,41.5 Z"/></g>
<g><path style="opacity:1" fill="#c2e3e6" d="M 121.5,30.5 C 122.5,30.8333 123.167,31.5 123.5,32.5C 122.791,33.404 121.791,33.7373 120.5,33.5C 120.263,32.209 120.596,31.209 121.5,30.5 Z"/></g>
<g><path style="opacity:1" fill="#232f37" d="M 250.5,43.5 C 251.882,45.5486 253.548,47.2153 255.5,48.5C 255.5,51.8333 255.5,55.1667 255.5,58.5C 251.488,55.3267 247.321,52.3267 243,49.5C 240.123,50.568 237.623,52.2346 235.5,54.5C 235.57,51.1985 235.236,47.8651 234.5,44.5C 229.616,44.8964 229.282,46.3964 233.5,49C 231.978,51.3051 229.978,52.8051 227.5,53.5C 226.476,47.942 223.81,43.442 219.5,40C 216.518,39.502 213.518,39.3354 210.5,39.5C 211.952,38.6981 213.618,38.1981 215.5,38C 215.167,37.6667 214.833,37.3333 214.5,37C 216.311,34.022 218.644,31.522 221.5,29.5C 223.115,30.154 224.782,30.654 226.5,31C 225.833,32.3333 225.167,33.6667 224.5,35C 228.033,37.4504 230.7,36.7837 232.5,33C 234.025,31.9914 235.692,31.4914 237.5,31.5C 237.682,33.6746 238.349,35.6746 239.5,37.5C 239.41,39.4251 238.41,40.5917 236.5,41C 237,41.5 237.5,42 238,42.5C 239.019,41.3128 240.186,40.3128 241.5,39.5C 242.967,40.6953 244.467,40.6953 246,39.5C 247.715,40.6045 249.215,41.9378 250.5,43.5 Z"/></g>
<g><path style="opacity:1" fill="#92efe7" d="M 172.5,27.5 C 175.924,32.1014 179.591,36.6014 183.5,41C 185.81,41.4966 188.143,41.6633 190.5,41.5C 185.04,42.7373 179.373,43.404 173.5,43.5C 173.771,41.6203 173.104,40.287 171.5,39.5C 170.878,36.8458 169.878,34.3458 168.5,32C 169.344,29.9933 170.677,28.4933 172.5,27.5 Z"/></g>
<g><path style="opacity:1" fill="#303047" d="M 46.5,31.5 C 46.0825,32.2216 45.4158,32.7216 44.5,33C 49.4299,32.9554 54.0966,33.9554 58.5,36C 63.3699,40.7021 68.0366,45.5354 72.5,50.5C 69.6145,51.2463 66.6145,51.0796 63.5,50C 61.4631,47.1366 58.7964,44.9699 55.5,43.5C 54.6143,42.675 54.281,41.675 54.5,40.5C 50.7504,41.0264 47.5837,40.0264 45,37.5C 43.2894,37.4393 41.956,38.1059 41,39.5C 39.6439,38.6198 38.1439,38.2865 36.5,38.5C 37.1667,36.8333 37.8333,35.1667 38.5,33.5C 41.3085,33.3067 43.9752,32.64 46.5,31.5 Z"/></g>
<g><path style="opacity:1" fill="#36b09d" d="M 123.5,32.5 C 124.167,32.5 124.5,32.8333 124.5,33.5C 121.965,38.1131 118.631,38.7798 114.5,35.5C 116.102,33.9261 118.102,33.2594 120.5,33.5C 121.791,33.7373 122.791,33.404 123.5,32.5 Z"/></g>
<g><path style="opacity:1" fill="#284e57" d="M 130.5,24.5 C 131.167,24.5 131.833,24.5 132.5,24.5C 137.968,24.2095 142.635,25.8761 146.5,29.5C 145.325,29.281 144.325,29.6143 143.5,30.5C 145.167,32.5 146.833,34.5 148.5,36.5C 149.086,36.2907 149.586,35.9574 150,35.5C 150.415,37.2909 151.415,38.6243 153,39.5C 153.667,40.5 153.667,41.5 153,42.5C 149.764,41.8467 146.264,41.1801 142.5,40.5C 141.764,38.7706 140.43,37.7706 138.5,37.5C 137.071,34.6916 136.405,31.6916 136.5,28.5C 133.238,30.263 131.238,29.263 130.5,25.5C 130.5,25.1667 130.5,24.8333 130.5,24.5 Z"/></g>
<g><path style="opacity:1" fill="#224244" d="M 169.5,-0.5 C 169.833,-0.5 170.167,-0.5 170.5,-0.5C 170.5,4.5 170.5,9.5 170.5,14.5C 173.988,14.7054 177.321,15.5387 180.5,17C 183.178,20.53 186.512,23.03 190.5,24.5C 191.699,27.9558 193.199,31.2891 195,34.5C 195.495,36.4727 195.662,38.4727 195.5,40.5C 197.833,40.5 200.167,40.5 202.5,40.5C 199.038,41.4816 195.371,41.815 191.5,41.5C 189.393,40.5318 187.059,40.1984 184.5,40.5C 184.827,38.5122 185.16,36.5122 185.5,34.5C 184.163,26.8135 179.829,24.1468 172.5,26.5C 170.422,23.1332 169.089,19.4665 168.5,15.5C 169.445,10.5947 169.779,5.59467 169.5,0.5C 169.5,0.166667 169.5,-0.166667 169.5,-0.5 Z"/></g>
<g><path style="opacity:1" fill="#2e6476" d="M 104.5,39.5 C 102.198,37.9227 100.698,38.5894 100,41.5C 99.0975,40.2986 97.9308,39.4652 96.5,39C 92.8689,38.646 89.3689,37.8126 86,36.5C 83.6405,36.324 83.1405,36.9907 84.5,38.5C 81.5,38.5 78.5,38.5 75.5,38.5C 75.9662,36.7988 75.9662,35.2988 75.5,34C 76.5,33.5 77.5,33 78.5,32.5C 80.4325,33.5202 82.4325,33.6869 84.5,33C 85.6526,31.117 87.3193,30.2837 89.5,30.5C 91.9966,32.8711 94.9966,33.8711 98.5,33.5C 98.5,32.5 98.5,31.5 98.5,30.5C 97.0222,30.762 95.6888,30.4287 94.5,29.5C 95.9469,28.0652 97.6136,27.0652 99.5,26.5C 100.568,25.5655 101.901,25.2322 103.5,25.5C 102.069,31.4404 104.069,35.607 109.5,38C 107.846,38.6077 106.179,39.1077 104.5,39.5 Z"/></g>
<g><path style="opacity:1" fill="#5d7daf" d="M 204.5,41.5 C 211.576,40.0412 216.909,42.3746 220.5,48.5C 220.703,50.0443 221.37,51.3777 222.5,52.5C 221.147,53.6853 219.98,55.0186 219,56.5C 216.836,54.5203 215.336,52.187 214.5,49.5C 213.167,49.5 211.833,49.5 210.5,49.5C 208.975,46.437 206.975,43.7703 204.5,41.5 Z"/></g>
<g><path style="opacity:1" fill="#2c5168" d="M 104.5,39.5 C 106.739,40.5419 108.905,41.8753 111,43.5C 111.684,42.2161 111.517,41.0495 110.5,40C 114.233,38.1951 118.067,38.0284 122,39.5C 122.833,39.3333 123.667,39.1667 124.5,39C 123.434,37.841 123.767,37.0076 125.5,36.5C 125.5,37.8333 125.5,39.1667 125.5,40.5C 123.801,40.3398 122.134,40.5065 120.5,41C 120.833,42 121.167,43 121.5,44C 119.527,44.4955 117.527,44.6621 115.5,44.5C 115.204,47.4624 113.538,49.1291 110.5,49.5C 105.844,49.0985 101.344,48.0985 97,46.5C 95.902,47.3839 95.402,48.3839 95.5,49.5C 93.9136,46.6595 92.0803,43.9928 90,41.5C 89.8348,43.678 90.6682,45.5114 92.5,47C 90.4324,46.9827 88.7657,45.9827 87.5,44C 86.552,43.5172 85.552,43.3505 84.5,43.5C 84.33,44.8221 84.6634,45.9887 85.5,47C 88.543,48.1185 91.2097,49.7852 93.5,52C 91.4183,51.0677 89.085,50.5677 86.5,50.5C 84.0905,49.2993 82.0905,47.6326 80.5,45.5C 81.5,45.5 82.5,45.5 83.5,45.5C 83.7863,43.7231 84.4529,42.0564 85.5,40.5C 85.4573,39.5836 85.1239,38.9169 84.5,38.5C 83.1405,36.9907 83.6405,36.324 86,36.5C 89.3689,37.8126 92.8689,38.646 96.5,39C 97.9308,39.4652 99.0975,40.2986 100,41.5C 100.698,38.5894 102.198,37.9227 104.5,39.5 Z"/></g>
<g><path style="opacity:1" fill="#464778" d="M 196.5,57.5 C 191.451,53.6582 185.951,50.3248 180,47.5C 179.167,47.6667 178.333,47.8333 177.5,48C 179.036,51.0363 181.369,53.203 184.5,54.5C 183.635,55.5827 182.635,55.7494 181.5,55C 178.283,53.2845 175.95,50.7845 174.5,47.5C 175.312,46.0069 176.645,45.3402 178.5,45.5C 187.151,46.3226 194.151,49.9892 199.5,56.5C 198.675,57.3857 197.675,57.719 196.5,57.5 Z"/></g>
<g><path style="opacity:1" fill="#283b4b" d="M 130.5,25.5 C 131.238,29.263 133.238,30.263 136.5,28.5C 136.405,31.6916 137.071,34.6916 138.5,37.5C 136.661,38.7525 134.828,38.7525 133,37.5C 132.289,39.3668 132.789,40.8668 134.5,42C 132.799,42.3446 131.466,41.6779 130.5,40C 129.167,39.3333 127.833,39.3333 126.5,40C 127.167,40.3333 127.833,40.6667 128.5,41C 128.034,42.2988 128.034,43.7988 128.5,45.5C 133.502,44.8351 137.835,46.1684 141.5,49.5C 142.328,48.5853 143.328,47.9186 144.5,47.5C 146.453,48.1556 148.453,48.4889 150.5,48.5C 150.5,47.5 150.5,46.5 150.5,45.5C 149.448,45.6495 148.448,45.4828 147.5,45C 145.602,43.583 143.936,42.083 142.5,40.5C 146.264,41.1801 149.764,41.8467 153,42.5C 153.667,41.5 153.667,40.5 153,39.5C 151.415,38.6243 150.415,37.2909 150,35.5C 149.586,35.9574 149.086,36.2907 148.5,36.5C 146.833,34.5 145.167,32.5 143.5,30.5C 144.325,29.6143 145.325,29.281 146.5,29.5C 151.264,33.2152 156.597,35.8819 162.5,37.5C 163.29,38.4013 164.29,39.0679 165.5,39.5C 165.5,40.5 165.5,41.5 165.5,42.5C 166.5,42.5 167.5,42.5 168.5,42.5C 168.5,43.5 168.5,44.5 168.5,45.5C 169.148,48.7842 170.481,51.7842 172.5,54.5C 172.376,55.1067 172.043,55.44 171.5,55.5C 171.167,55.5 170.833,55.5 170.5,55.5C 167.841,53.4021 164.841,51.7354 161.5,50.5C 160.15,51.9501 158.484,52.6168 156.5,52.5C 151.235,51.6437 145.901,51.3104 140.5,51.5C 129.877,54.1625 119.211,54.6625 108.5,53C 107.027,52.2904 106.36,51.1238 106.5,49.5C 104.508,49.3285 102.842,49.9951 101.5,51.5C 100.914,51.2907 100.414,50.9574 100,50.5C 99.2204,52.3869 99.3871,54.0536 100.5,55.5C 102.229,56.2362 103.229,57.5695 103.5,59.5C 100.648,57.9091 97.6484,56.5758 94.5,55.5C 91.8129,53.8021 89.1462,52.1354 86.5,50.5C 89.085,50.5677 91.4183,51.0677 93.5,52C 91.2097,49.7852 88.543,48.1185 85.5,47C 84.6634,45.9887 84.33,44.8221 84.5,43.5C 85.552,43.3505 86.552,43.5172 87.5,44C 88.7657,45.9827 90.4324,46.9827 92.5,47C 90.6682,45.5114 89.8348,43.678 90,41.5C 92.0803,43.9928 93.9136,46.6595 95.5,49.5C 95.402,48.3839 95.902,47.3839 97,46.5C 101.344,48.0985 105.844,49.0985 110.5,49.5C 113.538,49.1291 115.204,47.4624 115.5,44.5C 117.527,44.6621 119.527,44.4955 121.5,44C 121.167,43 120.833,42 120.5,41C 122.134,40.5065 123.801,40.3398 125.5,40.5C 125.5,39.1667 125.5,37.8333 125.5,36.5C 125.5,35.5 125.5,34.5 125.5,33.5C 125.5,33.1667 125.5,32.8333 125.5,32.5C 127.074,34.1016 127.741,36.1016 127.5,38.5C 128.675,38.719 129.675,38.3857 130.5,37.5C 128.834,33.2142 126.834,29.2142 124.5,25.5C 126.5,25.5 128.5,25.5 130.5,25.5 Z"/></g>
<g><path style="opacity:1" fill="#222739" d="M 138.5,37.5 C 140.43,37.7706 141.764,38.7706 142.5,40.5C 143.936,42.083 145.602,43.583 147.5,45C 148.448,45.4828 149.448,45.6495 150.5,45.5C 150.5,46.5 150.5,47.5 150.5,48.5C 148.453,48.4889 146.453,48.1556 144.5,47.5C 143.328,47.9186 142.328,48.5853 141.5,49.5C 137.835,46.1684 133.502,44.8351 128.5,45.5C 128.034,43.7988 128.034,42.2988 128.5,41C 127.833,40.6667 127.167,40.3333 126.5,40C 127.833,39.3333 129.167,39.3333 130.5,40C 131.466,41.6779 132.799,42.3446 134.5,42C 132.789,40.8668 132.289,39.3668 133,37.5C 134.828,38.7525 136.661,38.7525 138.5,37.5 Z"/></g>
<g><path style="opacity:1" fill="#435164" d="M 165.5,39.5 C 167.921,41.2378 170.588,42.5711 173.5,43.5C 179.373,43.404 185.04,42.7373 190.5,41.5C 190.833,41.5 191.167,41.5 191.5,41.5C 195.371,41.815 199.038,41.4816 202.5,40.5C 202.833,40.5 203.167,40.5 203.5,40.5C 203.5,41.1667 203.833,41.5 204.5,41.5C 206.975,43.7703 208.975,46.437 210.5,49.5C 211.193,52.9415 212.193,56.2748 213.5,59.5C 213.5,59.8333 213.5,60.1667 213.5,60.5C 211.771,59.8825 210.271,58.8825 209,57.5C 203.524,62.4393 197.024,64.4393 189.5,63.5C 184.225,63.6776 178.892,63.1776 173.5,62C 171.855,60.1997 170.522,58.1997 169.5,56C 169.728,55.6012 170.062,55.4346 170.5,55.5C 170.833,55.5 171.167,55.5 171.5,55.5C 171.281,56.675 171.614,57.675 172.5,58.5C 175.125,59.9685 177.958,60.6352 181,60.5C 186.13,59.427 191.297,58.427 196.5,57.5C 197.675,57.719 198.675,57.3857 199.5,56.5C 194.151,49.9892 187.151,46.3226 178.5,45.5C 176.645,45.3402 175.312,46.0069 174.5,47.5C 172.886,45.9254 170.886,45.2587 168.5,45.5C 168.5,44.5 168.5,43.5 168.5,42.5C 167.5,42.5 166.5,42.5 165.5,42.5C 165.5,41.5 165.5,40.5 165.5,39.5 Z"/></g>
<g><path style="opacity:1" fill="#323f56" d="M 72.5,50.5 C 75.9484,51.3901 78.9484,53.0568 81.5,55.5C 80.3473,56.3132 80.3473,57.3132 81.5,58.5C 83.3885,59.604 85.0552,60.9373 86.5,62.5C 86.0302,63.463 85.3635,63.463 84.5,62.5C 79.1667,59.5 73.8333,56.5 68.5,53.5C 63.1765,50.9122 57.8432,48.2456 52.5,45.5C 52.1913,42.6545 50.5246,41.1545 47.5,41C 46.8742,40.2496 46.3742,39.4162 46,38.5C 42.1337,39.701 38.3004,40.701 34.5,41.5C 34.1667,41.3333 33.8333,41.1667 33.5,41C 34.0779,39.583 35.0779,38.7496 36.5,38.5C 38.1439,38.2865 39.6439,38.6198 41,39.5C 41.956,38.1059 43.2894,37.4393 45,37.5C 47.5837,40.0264 50.7504,41.0264 54.5,40.5C 54.281,41.675 54.6143,42.675 55.5,43.5C 58.7964,44.9699 61.4631,47.1366 63.5,50C 66.6145,51.0796 69.6145,51.2463 72.5,50.5 Z"/></g>
<g><path style="opacity:1" fill="#303e48" d="M 255.5,58.5 C 255.5,62.5 255.5,66.5 255.5,70.5C 252.645,68.0031 249.312,66.3365 245.5,65.5C 243.559,63.1659 241.893,60.6659 240.5,58C 238.167,57.3333 235.833,57.3333 233.5,58C 234.576,59.7261 234.743,61.5594 234,63.5C 233.329,62.7476 232.496,62.4142 231.5,62.5C 229.892,59.6179 228.559,56.6179 227.5,53.5C 229.978,52.8051 231.978,51.3051 233.5,49C 229.282,46.3964 229.616,44.8964 234.5,44.5C 235.236,47.8651 235.57,51.1985 235.5,54.5C 237.623,52.2346 240.123,50.568 243,49.5C 247.321,52.3267 251.488,55.3267 255.5,58.5 Z"/></g>
<g><path style="opacity:1" fill="#395572" d="M 38.5,33.5 C 37.8333,35.1667 37.1667,36.8333 36.5,38.5C 35.0779,38.7496 34.0779,39.583 33.5,41C 33.8333,41.1667 34.1667,41.3333 34.5,41.5C 38.3004,40.701 42.1337,39.701 46,38.5C 46.3742,39.4162 46.8742,40.2496 47.5,41C 50.5246,41.1545 52.1913,42.6545 52.5,45.5C 57.8432,48.2456 63.1765,50.9122 68.5,53.5C 68.2976,54.3636 67.9643,55.3636 67.5,56.5C 66.2507,54.5245 64.7507,54.1912 63,55.5C 62,54.1667 61,52.8333 60,51.5C 58.5772,54.0704 56.7439,56.0704 54.5,57.5C 51.3751,57.8647 48.3751,58.698 45.5,60C 48.5399,60.3201 51.5399,60.3201 54.5,60C 48.6931,62.6805 42.6931,63.1805 36.5,61.5C 36.6399,59.8762 35.9733,58.7096 34.5,58C 35.5914,55.9361 35.7581,53.7695 35,51.5C 32.9071,49.8864 30.7405,49.0531 28.5,49C 29.5505,47.6152 30.8839,46.6152 32.5,46C 30.7788,44.5629 29.2788,45.0629 28,47.5C 25.6951,43.0994 27.1951,40.9327 32.5,41C 31.5,40.6667 30.5,40.3333 29.5,40C 31.751,39.2525 33.0844,37.7525 33.5,35.5C 33.5,34.8333 33.8333,34.5 34.5,34.5C 35.7079,33.7659 37.0413,33.4326 38.5,33.5 Z"/></g>
<g><path style="opacity:1" fill="#5f8ebb" d="M 220.5,48.5 C 221.458,48.9528 222.292,49.6195 223,50.5C 224.847,55.5211 226.68,60.5211 228.5,65.5C 228.631,66.3764 228.298,67.0431 227.5,67.5C 225.812,66.4787 224.479,65.1454 223.5,63.5C 220.869,60.6635 217.535,59.3302 213.5,59.5C 212.193,56.2748 211.193,52.9415 210.5,49.5C 211.833,49.5 213.167,49.5 214.5,49.5C 215.336,52.187 216.836,54.5203 219,56.5C 219.98,55.0186 221.147,53.6853 222.5,52.5C 221.37,51.3777 220.703,50.0443 220.5,48.5 Z"/></g>
<g><path style="opacity:1" fill="#1f1c2c" d="M 63.5,31.5 C 63.5106,33.0174 64.1772,34.1841 65.5,35C 68.5759,36.2433 71.2426,38.0767 73.5,40.5C 76.0934,41.7536 78.4268,43.4202 80.5,45.5C 82.0905,47.6326 84.0905,49.2993 86.5,50.5C 89.1462,52.1354 91.8129,53.8021 94.5,55.5C 93.4324,56.4345 92.099,56.7678 90.5,56.5C 90.5,57.5 90.5,58.5 90.5,59.5C 89.391,59.4431 88.391,59.1098 87.5,58.5C 85.5739,57.5139 83.5739,56.5139 81.5,55.5C 78.9484,53.0568 75.9484,51.3901 72.5,50.5C 68.0366,45.5354 63.3699,40.7021 58.5,36C 54.0966,33.9554 49.4299,32.9554 44.5,33C 45.4158,32.7216 46.0825,32.2216 46.5,31.5C 48.8952,30.2342 51.5619,29.5676 54.5,29.5C 57.5825,29.8795 60.5825,30.5462 63.5,31.5 Z"/></g>
<g><path style="opacity:1" fill="#295b61" d="M 170.5,55.5 C 170.062,55.4346 169.728,55.6012 169.5,56C 170.522,58.1997 171.855,60.1997 173.5,62C 178.892,63.1776 184.225,63.6776 189.5,63.5C 184.35,65.9748 184.35,68.4748 189.5,71C 188.915,72.3024 188.249,73.469 187.5,74.5C 187.365,70.7255 185.698,69.3922 182.5,70.5C 180.742,69.0015 178.909,68.6681 177,69.5C 175.667,68.1667 174.333,66.8333 173,65.5C 172.51,66.7932 172.343,68.1266 172.5,69.5C 171.167,69.5 169.833,69.5 168.5,69.5C 168.516,67.5159 167.516,66.5159 165.5,66.5C 163.239,67.0953 161.572,68.4286 160.5,70.5C 160.167,70.5 159.833,70.5 159.5,70.5C 157.883,69.4107 157.05,67.744 157,65.5C 156.751,66.624 156.251,67.624 155.5,68.5C 153.768,66.7173 152.268,64.7173 151,62.5C 151.649,64.8324 151.482,67.1657 150.5,69.5C 151.34,70.735 152.34,71.735 153.5,72.5C 151.097,72.448 148.764,72.7814 146.5,73.5C 146.833,72.5 147.5,71.8333 148.5,71.5C 150.027,68.2044 149.693,65.0377 147.5,62C 143.964,61.3619 141.964,62.8619 141.5,66.5C 140.89,68.4341 139.89,70.1007 138.5,71.5C 135.663,69.5977 132.329,68.931 128.5,69.5C 130.192,67.5094 131.526,65.3428 132.5,63C 132.459,59.0963 130.792,57.9296 127.5,59.5C 128.602,57.9081 127.935,57.0748 125.5,57C 127.953,56.2733 130.286,55.2733 132.5,54C 140.495,53.3574 148.495,52.8574 156.5,52.5C 158.484,52.6168 160.15,51.9501 161.5,50.5C 164.841,51.7354 167.841,53.4021 170.5,55.5 Z"/></g>
<g><path style="opacity:1" fill="#395872" d="M 68.5,53.5 C 73.8333,56.5 79.1667,59.5 84.5,62.5C 84.0889,65.2763 84.9223,65.943 87,64.5C 88.6349,64.8777 90.1349,65.5444 91.5,66.5C 91.3333,66.8333 91.1667,67.1667 91,67.5C 87.9203,67.9686 84.7537,68.1353 81.5,68C 80.0506,69.117 78.3839,69.7837 76.5,70C 75.6634,71.0113 75.33,72.1779 75.5,73.5C 74.448,73.6495 73.448,73.4828 72.5,73C 73.4506,72.2825 73.6172,71.4491 73,70.5C 70.0703,71.0244 67.5703,72.3578 65.5,74.5C 64.6143,73.675 64.281,72.675 64.5,71.5C 63.5,71.5 62.5,71.5 61.5,71.5C 59.2603,68.2801 56.427,65.6134 53,63.5C 52.51,64.7932 52.3433,66.1266 52.5,67.5C 50.2841,67.7254 48.6174,66.8921 47.5,65C 50.8635,63.5931 54.1968,62.0931 57.5,60.5C 58.3857,59.675 58.719,58.675 58.5,57.5C 57.1667,57.5 55.8333,57.5 54.5,57.5C 56.7439,56.0704 58.5772,54.0704 60,51.5C 61,52.8333 62,54.1667 63,55.5C 64.7507,54.1912 66.2507,54.5245 67.5,56.5C 67.9643,55.3636 68.2976,54.3636 68.5,53.5 Z"/></g>
<g><path style="opacity:1" fill="#2c4751" d="M 156.5,52.5 C 148.495,52.8574 140.495,53.3574 132.5,54C 130.286,55.2733 127.953,56.2733 125.5,57C 127.935,57.0748 128.602,57.9081 127.5,59.5C 125.81,59.8564 124.81,60.8564 124.5,62.5C 123.735,62.9234 122.902,63.2568 122,63.5C 115.216,60.5613 108.383,57.5613 101.5,54.5C 100.893,54.6236 100.56,54.9569 100.5,55.5C 99.3871,54.0536 99.2204,52.3869 100,50.5C 100.414,50.9574 100.914,51.2907 101.5,51.5C 102.842,49.9951 104.508,49.3285 106.5,49.5C 106.36,51.1238 107.027,52.2904 108.5,53C 119.211,54.6625 129.877,54.1625 140.5,51.5C 145.901,51.3104 151.235,51.6437 156.5,52.5 Z"/></g>
<g><path style="opacity:1" fill="#333953" d="M 168.5,45.5 C 170.886,45.2587 172.886,45.9254 174.5,47.5C 175.95,50.7845 178.283,53.2845 181.5,55C 182.635,55.7494 183.635,55.5827 184.5,54.5C 181.369,53.203 179.036,51.0363 177.5,48C 178.333,47.8333 179.167,47.6667 180,47.5C 185.951,50.3248 191.451,53.6582 196.5,57.5C 191.297,58.427 186.13,59.427 181,60.5C 177.958,60.6352 175.125,59.9685 172.5,58.5C 171.614,57.675 171.281,56.675 171.5,55.5C 172.043,55.44 172.376,55.1067 172.5,54.5C 170.481,51.7842 169.148,48.7842 168.5,45.5 Z"/></g>
<g><path style="opacity:1" fill="#589bba" d="M 213.5,59.5 C 217.535,59.3302 220.869,60.6635 223.5,63.5C 222.761,63.369 222.094,63.5357 221.5,64C 222.38,65.3561 222.714,66.8561 222.5,68.5C 220.588,68.5123 218.588,68.179 216.5,67.5C 215.051,65.3894 214.051,63.0561 213.5,60.5C 213.5,60.1667 213.5,59.8333 213.5,59.5 Z"/></g>
<g><path style="opacity:1" fill="#375f74" d="M 124.5,62.5 C 124.119,63.9311 123.119,64.7645 121.5,65C 122.774,65.9772 122.774,66.8106 121.5,67.5C 121.047,66.5416 120.381,65.7083 119.5,65C 114.288,62.8737 108.955,61.0404 103.5,59.5C 103.229,57.5695 102.229,56.2362 100.5,55.5C 100.56,54.9569 100.893,54.6236 101.5,54.5C 108.383,57.5613 115.216,60.5613 122,63.5C 122.902,63.2568 123.735,62.9234 124.5,62.5 Z"/></g>
<g><path style="opacity:1" fill="#23595c" d="M 10.5,53.5 C 11.6697,55.2785 13.3364,56.2785 15.5,56.5C 16.4959,56.4142 17.3292,56.7476 18,57.5C 19.1096,55.9632 20.6096,55.2965 22.5,55.5C 22.5,60.5 22.5,65.5 22.5,70.5C 21.017,68.9062 19.517,67.2395 18,65.5C 16.3548,71.079 15.1881,76.7457 14.5,82.5C 12.745,84.7612 11.5784,87.4278 11,90.5C 11.2803,79.7614 13.1136,69.2614 16.5,59C 15.3521,57.274 14.1855,57.4407 13,59.5C 12.4208,62.5881 11.0875,65.2548 9,67.5C 8.52251,62.7381 9.02251,58.0714 10.5,53.5 Z"/></g>
<g><path style="opacity:1" fill="#0e1518" d="M 94.5,55.5 C 97.6484,56.5758 100.648,57.9091 103.5,59.5C 108.955,61.0404 114.288,62.8737 119.5,65C 120.381,65.7083 121.047,66.5416 121.5,67.5C 121.5,68.1667 121.167,68.5 120.5,68.5C 117.258,67.7878 113.925,67.7878 110.5,68.5C 103.666,65.8879 96.9991,62.8879 90.5,59.5C 90.5,58.5 90.5,57.5 90.5,56.5C 92.099,56.7678 93.4324,56.4345 94.5,55.5 Z"/></g>
<g><path style="opacity:1" fill="#35bcb1" d="M 128.5,69.5 C 127.833,69.8333 127.167,70.1667 126.5,70.5C 123.525,71.6551 120.858,73.3218 118.5,75.5C 118.167,75.1667 117.833,74.8333 117.5,74.5C 119.038,72.7567 120.038,70.7567 120.5,68.5C 121.167,68.5 121.5,68.1667 121.5,67.5C 122.774,66.8106 122.774,65.9772 121.5,65C 123.119,64.7645 124.119,63.9311 124.5,62.5C 124.81,60.8564 125.81,59.8564 127.5,59.5C 130.792,57.9296 132.459,59.0963 132.5,63C 131.526,65.3428 130.192,67.5094 128.5,69.5 Z"/></g>
<g><path style="opacity:1" fill="#39646f" d="M 213.5,60.5 C 214.051,63.0561 215.051,65.3894 216.5,67.5C 216.5,68.1667 216.5,68.8333 216.5,69.5C 215.153,68.9717 213.819,68.805 212.5,69C 211.475,71.0715 210.642,73.2381 210,75.5C 209.292,76.3805 208.458,77.0472 207.5,77.5C 204.085,69.2192 199.752,68.5525 194.5,75.5C 193.571,76.6888 193.238,78.0222 193.5,79.5C 193.5,80.8333 193.5,82.1667 193.5,83.5C 191.816,82.4728 190.149,81.4728 188.5,80.5C 188.5,79.5 188.5,78.5 188.5,77.5C 187.89,76.609 187.557,75.609 187.5,74.5C 188.249,73.469 188.915,72.3024 189.5,71C 184.35,68.4748 184.35,65.9748 189.5,63.5C 197.024,64.4393 203.524,62.4393 209,57.5C 210.271,58.8825 211.771,59.8825 213.5,60.5 Z"/></g>
<g><path style="opacity:1" fill="#1b8d88" d="M 148.5,71.5 C 147.435,69.1458 146.268,66.8125 145,64.5C 144.184,65.8228 143.017,66.4894 141.5,66.5C 141.964,62.8619 143.964,61.3619 147.5,62C 149.693,65.0377 150.027,68.2044 148.5,71.5 Z"/></g>
<g><path style="opacity:1" fill="#376981" d="M 87.5,58.5 C 88.391,59.1098 89.391,59.4431 90.5,59.5C 96.9991,62.8879 103.666,65.8879 110.5,68.5C 110.179,70.0481 109.179,70.7148 107.5,70.5C 99.494,67.9966 92.1607,64.1633 85.5,59C 86.0944,58.5357 86.7611,58.369 87.5,58.5 Z"/></g>
<g><path style="opacity:1" fill="#3d4f5d" d="M 255.5,70.5 C 255.5,72.5 255.5,74.5 255.5,76.5C 254.504,76.4142 253.671,76.7476 253,77.5C 250.968,75.2318 249.635,75.8985 249,79.5C 247.806,80.4303 246.473,81.0969 245,81.5C 243.158,79.7846 241.325,78.1179 239.5,76.5C 236.343,72.1944 233.676,67.5278 231.5,62.5C 232.496,62.4142 233.329,62.7476 234,63.5C 234.743,61.5594 234.576,59.7261 233.5,58C 235.833,57.3333 238.167,57.3333 240.5,58C 241.893,60.6659 243.559,63.1659 245.5,65.5C 249.312,66.3365 252.645,68.0031 255.5,70.5 Z"/></g>
<g><path style="opacity:1" fill="#b2e3e9" d="M 210.5,39.5 C 213.518,39.3354 216.518,39.502 219.5,40C 223.81,43.442 226.476,47.942 227.5,53.5C 228.559,56.6179 229.892,59.6179 231.5,62.5C 233.676,67.5278 236.343,72.1944 239.5,76.5C 240.765,84.8441 239.098,92.5108 234.5,99.5C 235.22,94.6716 236.553,90.005 238.5,85.5C 236.565,82.3135 235.232,78.9802 234.5,75.5C 232.472,72.0985 230.472,68.7651 228.5,65.5C 226.68,60.5211 224.847,55.5211 223,50.5C 222.292,49.6195 221.458,48.9528 220.5,48.5C 216.909,42.3746 211.576,40.0412 204.5,41.5C 203.833,41.5 203.5,41.1667 203.5,40.5C 205.861,40.3259 208.194,39.9926 210.5,39.5 Z"/></g>
<g><path style="opacity:1" fill="#3a586c" d="M 26.5,32.5 C 27.2832,34.0758 28.4499,35.4092 30,36.5C 30.9529,34.6269 32.1196,34.2935 33.5,35.5C 33.0844,37.7525 31.751,39.2525 29.5,40C 30.5,40.3333 31.5,40.6667 32.5,41C 27.1951,40.9327 25.6951,43.0994 28,47.5C 29.2788,45.0629 30.7788,44.5629 32.5,46C 30.8839,46.6152 29.5505,47.6152 28.5,49C 30.7405,49.0531 32.9071,49.8864 35,51.5C 35.7581,53.7695 35.5914,55.9361 34.5,58C 35.9733,58.7096 36.6399,59.8762 36.5,61.5C 42.6931,63.1805 48.6931,62.6805 54.5,60C 51.5399,60.3201 48.5399,60.3201 45.5,60C 48.3751,58.698 51.3751,57.8647 54.5,57.5C 55.8333,57.5 57.1667,57.5 58.5,57.5C 58.719,58.675 58.3857,59.675 57.5,60.5C 54.1968,62.0931 50.8635,63.5931 47.5,65C 48.6174,66.8921 50.2841,67.7254 52.5,67.5C 52.3433,66.1266 52.51,64.7932 53,63.5C 56.427,65.6134 59.2603,68.2801 61.5,71.5C 57.5972,74.3744 54.0972,74.0411 51,70.5C 51.3333,72.1667 51.6667,73.8333 52,75.5C 47.9735,76.0183 44.4735,77.6849 41.5,80.5C 41.8333,80.8333 42.1667,81.1667 42.5,81.5C 44.1727,79.9137 46.1727,79.2471 48.5,79.5C 48.281,80.675 48.6143,81.675 49.5,82.5C 50.5896,81.6086 50.5896,80.6086 49.5,79.5C 51.1667,78.1667 52.8333,78.1667 54.5,79.5C 56.1558,81.3294 58.1558,82.6628 60.5,83.5C 60.9766,84.931 61.6433,86.2643 62.5,87.5C 65.9301,86.2578 67.2634,87.5911 66.5,91.5C 67.8333,91.5 69.1667,91.5 70.5,91.5C 70.2865,93.1439 70.6198,94.6439 71.5,96C 70.9747,96.6924 70.3081,97.1924 69.5,97.5C 64.9477,93.9637 60.4477,90.297 56,86.5C 57.5345,89.2547 58.7012,92.2547 59.5,95.5C 61.7937,97.2373 64.4604,98.404 67.5,99C 68.0611,100.676 69.0611,102.009 70.5,103C 68.9651,103.496 67.4651,103.33 66,102.5C 61.9807,99.8052 57.9807,97.1386 54,94.5C 53.5172,95.448 53.3505,96.448 53.5,97.5C 51.5012,96.1435 50.3345,96.8101 50,99.5C 49.4867,98.4734 48.9867,97.4734 48.5,96.5C 49.4345,95.4324 49.7678,94.099 49.5,92.5C 48.448,92.6495 47.448,92.4828 46.5,92C 45,89.8333 43.1667,88 41,86.5C 40.8849,88.1068 41.3849,89.6068 42.5,91C 42.1667,91.5 41.8333,92 41.5,92.5C 38.5768,88.2407 35.7435,83.9074 33,79.5C 32.5172,80.448 32.3505,81.448 32.5,82.5C 30.2312,76.1889 29.0645,69.5223 29,62.5C 25.7854,56.2658 24.2854,49.5992 24.5,42.5C 26.181,39.418 26.8476,36.0847 26.5,32.5 Z"/></g>
<g><path style="opacity:1" fill="#2e7884" d="M 182.5,70.5 C 179.179,73.7186 177.346,77.7186 177,82.5C 176.333,81.1667 175.667,79.8333 175,78.5C 174.292,79.3805 173.458,80.0472 172.5,80.5C 171.626,79.4749 170.459,78.8082 169,78.5C 167.588,79.6856 166.421,81.019 165.5,82.5C 165.604,80.2972 166.27,78.2972 167.5,76.5C 168.468,74.3926 168.802,72.0593 168.5,69.5C 169.833,69.5 171.167,69.5 172.5,69.5C 172.343,68.1266 172.51,66.7932 173,65.5C 174.333,66.8333 175.667,68.1667 177,69.5C 178.909,68.6681 180.742,69.0015 182.5,70.5 Z"/></g>
<g><path style="opacity:1" fill="#3c7f8d" d="M 216.5,67.5 C 218.588,68.179 220.588,68.5123 222.5,68.5C 225.088,70.7205 226.754,73.5538 227.5,77C 227.693,79.0081 227.026,80.5081 225.5,81.5C 226.39,75.0668 223.723,71.0668 217.5,69.5C 217.167,69.5 216.833,69.5 216.5,69.5C 216.5,68.8333 216.5,68.1667 216.5,67.5 Z"/></g>
<g><path style="opacity:1" fill="#1b4143" d="M 24.5,42.5 C 24.2854,49.5992 25.7854,56.2658 29,62.5C 29.0645,69.5223 30.2312,76.1889 32.5,82.5C 32.423,86.2148 32.7564,89.8815 33.5,93.5C 32.8485,92.9094 32.1818,92.2427 31.5,91.5C 30.639,94.5273 29.139,97.194 27,99.5C 26.3333,92.8333 25.6667,86.1667 25,79.5C 22.8951,76.8934 22.0617,73.8934 22.5,70.5C 22.5,65.5 22.5,60.5 22.5,55.5C 20.6096,55.2965 19.1096,55.9632 18,57.5C 17.3292,56.7476 16.4959,56.4142 15.5,56.5C 15.3367,54.1432 15.5034,51.8098 16,49.5C 17.0113,48.6634 18.1779,48.33 19.5,48.5C 19.5,47.5 19.5,46.5 19.5,45.5C 20.8221,45.33 21.9887,45.6634 23,46.5C 23.21,44.9419 23.71,43.6085 24.5,42.5 Z"/></g>
<g><path style="opacity:1" fill="#13141b" d="M 128.5,69.5 C 132.329,68.931 135.663,69.5977 138.5,71.5C 137.694,72.7281 136.694,73.7281 135.5,74.5C 133.102,76.5647 130.435,76.898 127.5,75.5C 126.691,73.9291 126.357,72.2624 126.5,70.5C 127.167,70.1667 127.833,69.8333 128.5,69.5 Z"/></g>
<g><path style="opacity:1" fill="#37c9c5" d="M 148.5,71.5 C 147.5,71.8333 146.833,72.5 146.5,73.5C 144.5,74.8333 142.833,76.5 141.5,78.5C 139.203,80.2941 137.037,82.2941 135,84.5C 134.536,83.9056 134.369,83.2389 134.5,82.5C 134.833,79.8333 135.167,77.1667 135.5,74.5C 136.694,73.7281 137.694,72.7281 138.5,71.5C 139.89,70.1007 140.89,68.4341 141.5,66.5C 143.017,66.4894 144.184,65.8228 145,64.5C 146.268,66.8125 147.435,69.1458 148.5,71.5 Z"/></g>
<g><path style="opacity:1" fill="#13171e" d="M 153.5,72.5 C 154.209,73.404 155.209,73.7373 156.5,73.5C 154.959,76.3931 152.959,79.0597 150.5,81.5C 147.146,81.2525 144.146,80.2525 141.5,78.5C 142.833,76.5 144.5,74.8333 146.5,73.5C 148.764,72.7814 151.097,72.448 153.5,72.5 Z"/></g>
<g><path style="opacity:1" fill="#24a89d" d="M 168.5,69.5 C 168.802,72.0593 168.468,74.3926 167.5,76.5C 166.213,74.1952 164.88,71.8618 163.5,69.5C 162.583,70.1272 161.583,70.4606 160.5,70.5C 161.572,68.4286 163.239,67.0953 165.5,66.5C 167.516,66.5159 168.516,67.5159 168.5,69.5 Z"/></g>
<g><path style="opacity:1" fill="#32afa7" d="M 207.5,77.5 C 204.454,77.1826 202.787,78.5159 202.5,81.5C 201.167,81.5 199.833,81.5 198.5,81.5C 198.649,80.448 198.483,79.448 198,78.5C 196.644,79.3802 195.144,79.7135 193.5,79.5C 193.238,78.0222 193.571,76.6888 194.5,75.5C 199.752,68.5525 204.085,69.2192 207.5,77.5 Z"/></g>
<g><path style="opacity:1" fill="#359ba5" d="M 25.5,105.5 C 24.6201,107.389 24.6201,109.389 25.5,111.5C 25.5,112.5 25.5,113.5 25.5,114.5C 24.7784,114.918 24.2784,115.584 24,116.5C 23.6667,114.167 23.3333,111.833 23,109.5C 20.9646,111.912 19.9646,111.245 20,107.5C 18.6667,106.833 17.6667,105.833 17,104.5C 15.7225,106.747 14.2225,108.747 12.5,110.5C 13.0885,103.515 13.4218,96.515 13.5,89.5C 14.7715,86.2606 15.9381,82.9273 17,79.5C 17.958,82.0747 18.458,84.7414 18.5,87.5C 17.667,92.489 17.5004,97.489 18,102.5C 18.2492,103.624 18.7492,104.624 19.5,105.5C 21.4159,104.752 23.4159,104.752 25.5,105.5 Z"/></g>
<g><path style="opacity:1" fill="#3fd8d9" d="M 188.5,77.5 C 188.5,78.5 188.5,79.5 188.5,80.5C 185.363,83.2985 183.029,86.6319 181.5,90.5C 180.833,90.5 180.5,90.8333 180.5,91.5C 179.167,91.5 177.833,91.5 176.5,91.5C 176.785,85.9767 178.452,80.9767 181.5,76.5C 183.903,76.448 186.236,76.7814 188.5,77.5 Z"/></g>
<g><path style="opacity:1" fill="#50e9ed" d="M 217.5,69.5 C 223.723,71.0668 226.39,75.0668 225.5,81.5C 224.833,83.5 224.167,85.5 223.5,87.5C 222.027,90.4519 222.36,93.1186 224.5,95.5C 224.5,95.8333 224.5,96.1667 224.5,96.5C 224.674,99.8738 225.174,103.207 226,106.5C 227.319,104.713 228.152,102.713 228.5,100.5C 228.5,99.8333 228.5,99.1667 228.5,98.5C 229.268,97.7375 229.768,96.7375 230,95.5C 230.333,97.1667 230.667,98.8333 231,100.5C 231.333,99.8333 231.667,99.1667 232,98.5C 232.811,93.0721 232.644,88.4054 231.5,84.5C 230.624,84.6309 229.957,84.2975 229.5,83.5C 230.833,82.1667 230.833,80.8333 229.5,79.5C 230.783,75.0579 232.283,74.7246 234,78.5C 234.483,77.552 234.649,76.552 234.5,75.5C 235.232,78.9802 236.565,82.3135 238.5,85.5C 236.553,90.005 235.22,94.6716 234.5,99.5C 233.833,101.167 233.167,102.833 232.5,104.5C 229.48,105.282 227.48,107.615 226.5,111.5C 226.631,112.376 226.298,113.043 225.5,113.5C 224.832,111.031 224.165,108.698 223.5,106.5C 223.21,103.873 221.876,102.206 219.5,101.5C 219.649,100.448 219.483,99.448 219,98.5C 218.667,98.8333 218.333,99.1667 218,99.5C 217.5,89.5056 217.334,79.5056 217.5,69.5 Z"/></g>
<g><path style="opacity:1" fill="#53beda" d="M 223.5,63.5 C 224.479,65.1454 225.812,66.4787 227.5,67.5C 228.298,67.0431 228.631,66.3764 228.5,65.5C 230.472,68.7651 232.472,72.0985 234.5,75.5C 234.649,76.552 234.483,77.552 234,78.5C 232.283,74.7246 230.783,75.0579 229.5,79.5C 230.833,80.8333 230.833,82.1667 229.5,83.5C 229.957,84.2975 230.624,84.6309 231.5,84.5C 231.047,86.5652 230.047,88.2318 228.5,89.5C 227.833,89.1667 227.167,88.8333 226.5,88.5C 225.791,87.596 224.791,87.2627 223.5,87.5C 224.167,85.5 224.833,83.5 225.5,81.5C 227.026,80.5081 227.693,79.0081 227.5,77C 226.754,73.5538 225.088,70.7205 222.5,68.5C 222.714,66.8561 222.38,65.3561 221.5,64C 222.094,63.5357 222.761,63.369 223.5,63.5 Z"/></g>
<g><path style="opacity:1" fill="#4fc9ca" d="M 202.5,81.5 C 200.909,82.2189 199.409,83.2189 198,84.5C 195.937,89.672 194.937,95.0054 195,100.5C 196.011,101.337 197.178,101.67 198.5,101.5C 196.522,104.333 194.689,107.333 193,110.5C 192.31,111.738 191.81,111.738 191.5,110.5C 191.5,109.833 191.5,109.167 191.5,108.5C 191.552,104.802 191.886,101.135 192.5,97.5C 190.563,96.0686 188.73,94.4019 187,92.5C 186.805,91.1807 186.972,89.8474 187.5,88.5C 189.083,86.1368 190.916,86.1368 193,88.5C 193.494,86.8659 193.66,85.1992 193.5,83.5C 193.5,82.1667 193.5,80.8333 193.5,79.5C 195.144,79.7135 196.644,79.3802 198,78.5C 198.483,79.448 198.649,80.448 198.5,81.5C 199.833,81.5 201.167,81.5 202.5,81.5 Z"/></g>
<g><path style="opacity:1" fill="#40adb8" d="M 216.5,69.5 C 216.833,69.5 217.167,69.5 217.5,69.5C 217.334,79.5056 217.5,89.5056 218,99.5C 218.333,99.1667 218.667,98.8333 219,98.5C 219.483,99.448 219.649,100.448 219.5,101.5C 218.609,100.89 217.609,100.557 216.5,100.5C 216.192,96.6403 215.525,92.9736 214.5,89.5C 214.608,87.4862 213.942,85.8195 212.5,84.5C 210.955,83.3604 209.288,82.3604 207.5,81.5C 207.5,80.1667 207.5,78.8333 207.5,77.5C 208.458,77.0472 209.292,76.3805 210,75.5C 210.642,73.2381 211.475,71.0715 212.5,69C 213.819,68.805 215.153,68.9717 216.5,69.5 Z"/></g>
<g><path style="opacity:1" fill="#2f5058" d="M 120.5,68.5 C 120.038,70.7567 119.038,72.7567 117.5,74.5C 117.833,74.8333 118.167,75.1667 118.5,75.5C 120.858,73.3218 123.525,71.6551 126.5,70.5C 126.357,72.2624 126.691,73.9291 127.5,75.5C 130.435,76.898 133.102,76.5647 135.5,74.5C 135.167,77.1667 134.833,79.8333 134.5,82.5C 133.596,83.209 133.263,84.209 133.5,85.5C 131.21,83.9671 130.544,84.3004 131.5,86.5C 130.667,86.8333 129.833,87.1667 129,87.5C 127.052,86.5444 125.218,86.2111 123.5,86.5C 121.712,87.2826 120.712,88.6159 120.5,90.5C 116.132,90.2491 113.965,87.9158 114,83.5C 111.821,81.6518 109.987,79.4852 108.5,77C 105.823,76.8324 103.49,75.999 101.5,74.5C 101.119,73.0689 100.119,72.2355 98.5,72C 101.827,70.8365 103.827,72.0032 104.5,75.5C 105.731,74.3493 105.731,73.1827 104.5,72C 105.244,70.9614 106.244,70.4614 107.5,70.5C 109.179,70.7148 110.179,70.0481 110.5,68.5C 113.925,67.7878 117.258,67.7878 120.5,68.5 Z"/></g>
<g><path style="opacity:1" fill="#3ed5d1" d="M 167.5,76.5 C 166.27,78.2972 165.604,80.2972 165.5,82.5C 164.974,84.2303 163.974,85.5637 162.5,86.5C 161.18,88.4632 159.846,90.4632 158.5,92.5C 157.167,93.1667 156.167,94.1667 155.5,95.5C 155.024,97.0664 154.357,97.3998 153.5,96.5C 154.482,93.9044 155.149,91.2377 155.5,88.5C 157.803,82.8339 159.136,76.8339 159.5,70.5C 159.833,70.5 160.167,70.5 160.5,70.5C 161.583,70.4606 162.583,70.1272 163.5,69.5C 164.88,71.8618 166.213,74.1952 167.5,76.5 Z"/></g>
<g><path style="opacity:1" fill="#151f27" d="M 172.5,80.5 C 170.833,83.1667 169.167,85.8333 167.5,88.5C 164.837,90.1697 163.17,89.5031 162.5,86.5C 163.974,85.5637 164.974,84.2303 165.5,82.5C 166.421,81.019 167.588,79.6856 169,78.5C 170.459,78.8082 171.626,79.4749 172.5,80.5 Z"/></g>
<g><path style="opacity:1" fill="#3eaeab" d="M 187.5,74.5 C 187.557,75.609 187.89,76.609 188.5,77.5C 186.236,76.7814 183.903,76.448 181.5,76.5C 178.452,80.9767 176.785,85.9767 176.5,91.5C 177.833,91.5 179.167,91.5 180.5,91.5C 179.167,93.5 177.833,95.5 176.5,97.5C 174.5,98.8333 172.833,100.5 171.5,102.5C 170.957,102.44 170.624,102.107 170.5,101.5C 171.976,98.5851 172.81,95.5851 173,92.5C 168.848,94.4919 167.015,93.1585 167.5,88.5C 169.167,85.8333 170.833,83.1667 172.5,80.5C 173.458,80.0472 174.292,79.3805 175,78.5C 175.667,79.8333 176.333,81.1667 177,82.5C 177.346,77.7186 179.179,73.7186 182.5,70.5C 185.698,69.3922 187.365,70.7255 187.5,74.5 Z"/></g>
<g><path style="opacity:1" fill="#16282a" d="M 188.5,80.5 C 190.149,81.4728 191.816,82.4728 193.5,83.5C 193.66,85.1992 193.494,86.8659 193,88.5C 190.916,86.1368 189.083,86.1368 187.5,88.5C 185.833,89.8333 184.167,91.1667 182.5,92.5C 181.662,92.1583 181.328,91.4916 181.5,90.5C 183.029,86.6319 185.363,83.2985 188.5,80.5 Z"/></g>
<g><path style="opacity:1" fill="#344b5a" d="M 81.5,55.5 C 83.5739,56.5139 85.5739,57.5139 87.5,58.5C 86.7611,58.369 86.0944,58.5357 85.5,59C 92.1607,64.1633 99.494,67.9966 107.5,70.5C 106.244,70.4614 105.244,70.9614 104.5,72C 105.731,73.1827 105.731,74.3493 104.5,75.5C 103.827,72.0032 101.827,70.8365 98.5,72C 100.119,72.2355 101.119,73.0689 101.5,74.5C 96.8595,75.264 92.8595,74.0974 89.5,71C 91.7597,70.9558 93.7597,71.7892 95.5,73.5C 95.8333,73.1667 96.1667,72.8333 96.5,72.5C 94.0135,69.536 91.0135,68.8693 87.5,70.5C 83.8516,67.4268 81.685,68.0935 81,72.5C 83.5875,74.1958 86.4208,75.1958 89.5,75.5C 89.5,76.5 89.5,77.5 89.5,78.5C 90.9778,78.238 92.3112,78.5713 93.5,79.5C 97.1809,81.3401 100.514,83.6735 103.5,86.5C 103.192,87.3081 102.692,87.9747 102,88.5C 100.174,84.9626 97.8402,84.6293 95,87.5C 94.5078,86.451 94.6744,85.451 95.5,84.5C 95.1667,83.5 94.5,82.8333 93.5,82.5C 92.1502,83.9501 90.4835,84.6168 88.5,84.5C 88.5,85.5 88.5,86.5 88.5,87.5C 84.8493,87.8383 83.1826,86.1716 83.5,82.5C 80.7118,82.0769 78.7118,83.0769 77.5,85.5C 84.5372,92.7904 83.8705,93.7904 75.5,88.5C 71.8549,89.4886 71.8549,90.9886 75.5,93C 78.0023,94.4316 80.5023,94.5982 83,93.5C 83.1667,93.8333 83.3333,94.1667 83.5,94.5C 82.0921,95.2432 80.7588,96.0766 79.5,97C 80.448,97.4828 81.448,97.6495 82.5,97.5C 83.2891,97.7828 83.9558,98.2828 84.5,99C 81.1309,100.403 77.7976,101.07 74.5,101C 75.3128,102.314 76.3128,103.481 77.5,104.5C 77.1667,105.167 76.8333,105.833 76.5,106.5C 77.8333,107.167 79.1667,107.833 80.5,108.5C 80.1373,109.183 79.8039,109.85 79.5,110.5C 78.8333,110.5 78.1667,110.5 77.5,110.5C 75.8791,108.883 73.8791,107.716 71.5,107C 67.1174,105.988 62.7841,104.821 58.5,103.5C 58.3903,101.902 58.057,100.235 57.5,98.5C 56.3112,97.5713 54.9778,97.238 53.5,97.5C 53.3505,96.448 53.5172,95.448 54,94.5C 57.9807,97.1386 61.9807,99.8052 66,102.5C 67.4651,103.33 68.9651,103.496 70.5,103C 69.0611,102.009 68.0611,100.676 67.5,99C 64.4604,98.404 61.7937,97.2373 59.5,95.5C 58.7012,92.2547 57.5345,89.2547 56,86.5C 60.4477,90.297 64.9477,93.9637 69.5,97.5C 70.3081,97.1924 70.9747,96.6924 71.5,96C 70.6198,94.6439 70.2865,93.1439 70.5,91.5C 69.1667,91.5 67.8333,91.5 66.5,91.5C 67.2634,87.5911 65.9301,86.2578 62.5,87.5C 61.6433,86.2643 60.9766,84.931 60.5,83.5C 58.1558,82.6628 56.1558,81.3294 54.5,79.5C 52.8333,78.1667 51.1667,78.1667 49.5,79.5C 50.5896,80.6086 50.5896,81.6086 49.5,82.5C 48.6143,81.675 48.281,80.675 48.5,79.5C 46.1727,79.2471 44.1727,79.9137 42.5,81.5C 42.1667,81.1667 41.8333,80.8333 41.5,80.5C 44.4735,77.6849 47.9735,76.0183 52,75.5C 51.6667,73.8333 51.3333,72.1667 51,70.5C 54.0972,74.0411 57.5972,74.3744 61.5,71.5C 62.5,71.5 63.5,71.5 64.5,71.5C 64.281,72.675 64.6143,73.675 65.5,74.5C 67.5703,72.3578 70.0703,71.0244 73,70.5C 73.6172,71.4491 73.4506,72.2825 72.5,73C 73.448,73.4828 74.448,73.6495 75.5,73.5C 75.33,72.1779 75.6634,71.0113 76.5,70C 78.3839,69.7837 80.0506,69.117 81.5,68C 84.7537,68.1353 87.9203,67.9686 91,67.5C 91.1667,67.1667 91.3333,66.8333 91.5,66.5C 90.1349,65.5444 88.6349,64.8777 87,64.5C 84.9223,65.943 84.0889,65.2763 84.5,62.5C 85.3635,63.463 86.0302,63.463 86.5,62.5C 85.0552,60.9373 83.3885,59.604 81.5,58.5C 80.3473,57.3132 80.3473,56.3132 81.5,55.5 Z"/></g>
<g><path style="opacity:1" fill="#287f80" d="M 159.5,70.5 C 159.136,76.8339 157.803,82.8339 155.5,88.5C 153.031,87.6829 150.365,87.1829 147.5,87C 146.62,85.6439 146.286,84.1439 146.5,82.5C 148.099,82.7678 149.432,82.4345 150.5,81.5C 152.959,79.0597 154.959,76.3931 156.5,73.5C 155.209,73.7373 154.209,73.404 153.5,72.5C 152.34,71.735 151.34,70.735 150.5,69.5C 151.482,67.1657 151.649,64.8324 151,62.5C 152.268,64.7173 153.768,66.7173 155.5,68.5C 156.251,67.624 156.751,66.624 157,65.5C 157.05,67.744 157.883,69.4107 159.5,70.5 Z"/></g>
<g><path style="opacity:1" fill="#3c657d" d="M 207.5,81.5 C 209.288,82.3604 210.955,83.3604 212.5,84.5C 211.167,84.5 209.833,84.5 208.5,84.5C 208.5,86.1667 208.5,87.8333 208.5,89.5C 206.416,87.007 206.083,84.3404 207.5,81.5 Z"/></g>
<g><path style="opacity:1" fill="#418d9d" d="M 228.5,98.5 C 228.5,95.5 228.5,92.5 228.5,89.5C 230.047,88.2318 231.047,86.5652 231.5,84.5C 232.644,88.4054 232.811,93.0721 232,98.5C 231.667,99.1667 231.333,99.8333 231,100.5C 230.667,98.8333 230.333,97.1667 230,95.5C 229.768,96.7375 229.268,97.7375 228.5,98.5 Z"/></g>
<g><path style="opacity:1" fill="#319094" d="M 4.5,124.5 C 3.57861,126.269 2.41194,127.935 1,129.5C 0.458311,126.202 0.958311,123.035 2.5,120C 2.10812,118.989 1.44145,118.489 0.5,118.5C 1.57483,115.562 1.7415,112.562 1,109.5C 0.617425,108.944 0.117425,108.611 -0.5,108.5C -0.5,99.1667 -0.5,89.8333 -0.5,80.5C 0.117425,80.3893 0.617425,80.056 1,79.5C 2.18055,75.1089 3.51388,70.7755 5,66.5C 4.42383,76.7309 3.25717,86.8976 1.5,97C 1.94585,100.175 2.44585,103.342 3,106.5C 3.61891,103.968 4.61891,101.635 6,99.5C 6.6903,101.715 7.52363,103.882 8.5,106C 6.59225,112.038 5.25892,118.205 4.5,124.5 Z"/></g>
<g><path style="opacity:1" fill="#455f75" d="M 255.5,76.5 C 255.5,83.1667 255.5,89.8333 255.5,96.5C 254.85,96.8039 254.183,97.1373 253.5,97.5C 252.304,97.1543 252.304,96.6543 253.5,96C 250.883,96.2605 249.05,97.7605 248,100.5C 247.667,100.167 247.333,99.8333 247,99.5C 246.781,100.938 246.281,102.271 245.5,103.5C 243.085,104.305 240.751,105.305 238.5,106.5C 237.136,109.363 234.97,111.363 232,112.5C 230.462,110.671 230.962,109.171 233.5,108C 233.347,106.791 233.014,105.625 232.5,104.5C 233.167,102.833 233.833,101.167 234.5,99.5C 239.098,92.5108 240.765,84.8441 239.5,76.5C 241.325,78.1179 243.158,79.7846 245,81.5C 246.473,81.0969 247.806,80.4303 249,79.5C 249.635,75.8985 250.968,75.2318 253,77.5C 253.671,76.7476 254.504,76.4142 255.5,76.5 Z"/></g>
<g><path style="opacity:1" fill="#4f6688" d="M 48.5,96.5 C 46.6096,96.7035 45.1096,96.0368 44,94.5C 43.6667,95.1667 43.3333,95.8333 43,96.5C 42.2825,95.5494 41.4491,95.3828 40.5,96C 48.5901,105.874 58.5901,111.041 70.5,111.5C 68.6568,112.283 66.6568,112.95 64.5,113.5C 59.8282,112.776 55.1615,111.943 50.5,111C 52.9454,107.283 52.2787,106.783 48.5,109.5C 44.1519,103.659 39.6519,97.992 35,92.5C 34.6012,92.7284 34.4346,93.0618 34.5,93.5C 34.1667,93.5 33.8333,93.5 33.5,93.5C 32.7564,89.8815 32.423,86.2148 32.5,82.5C 32.3505,81.448 32.5172,80.448 33,79.5C 35.7435,83.9074 38.5768,88.2407 41.5,92.5C 41.8333,92 42.1667,91.5 42.5,91C 41.3849,89.6068 40.8849,88.1068 41,86.5C 43.1667,88 45,89.8333 46.5,92C 47.448,92.4828 48.448,92.6495 49.5,92.5C 49.7678,94.099 49.4345,95.4324 48.5,96.5 Z"/></g>
<g><path style="opacity:1" fill="#2a7478" d="M 10.5,51.5 C 10.5,52.1667 10.5,52.8333 10.5,53.5C 9.02251,58.0714 8.52251,62.7381 9,67.5C 11.0875,65.2548 12.4208,62.5881 13,59.5C 14.1855,57.4407 15.3521,57.274 16.5,59C 13.1136,69.2614 11.2803,79.7614 11,90.5C 11.5784,87.4278 12.745,84.7612 14.5,82.5C 14.0074,84.8056 13.6741,87.139 13.5,89.5C 13.4218,96.515 13.0885,103.515 12.5,110.5C 9.32756,114.841 6.66089,119.508 4.5,124.5C 5.25892,118.205 6.59225,112.038 8.5,106C 7.52363,103.882 6.6903,101.715 6,99.5C 4.61891,101.635 3.61891,103.968 3,106.5C 2.44585,103.342 1.94585,100.175 1.5,97C 3.25717,86.8976 4.42383,76.7309 5,66.5C 3.51388,70.7755 2.18055,75.1089 1,79.5C 0.617425,80.056 0.117425,80.3893 -0.5,80.5C -0.5,74.1667 -0.5,67.8333 -0.5,61.5C 2.46159,51.4549 5.96159,41.4549 10,31.5C 9.31435,38.3058 9.48102,44.9725 10.5,51.5 Z"/></g>
<g><path style="opacity:1" fill="#2f4351" d="M 133.5,85.5 C 135.256,86.5521 135.923,88.2188 135.5,90.5C 134.022,90.238 132.689,90.5713 131.5,91.5C 132.624,92.914 133.624,94.414 134.5,96C 133.29,97.0391 132.29,98.2058 131.5,99.5C 129.767,100.008 129.434,100.841 130.5,102C 128.134,102.562 125.801,102.396 123.5,101.5C 122.833,101.833 122.167,102.167 121.5,102.5C 122.506,103.396 122.506,104.062 121.5,104.5C 118.979,103.215 116.313,102.548 113.5,102.5C 114.64,99.9752 115.307,97.3085 115.5,94.5C 117.831,94.5023 119.831,93.669 121.5,92C 120.944,91.6174 120.611,91.1174 120.5,90.5C 120.712,88.6159 121.712,87.2826 123.5,86.5C 125.218,86.2111 127.052,86.5444 129,87.5C 129.833,87.1667 130.667,86.8333 131.5,86.5C 130.544,84.3004 131.21,83.9671 133.5,85.5 Z"/></g>
<g><path style="opacity:1" fill="#2e5a69" d="M 223.5,87.5 C 224.791,87.2627 225.791,87.596 226.5,88.5C 224.656,90.2789 223.99,92.6122 224.5,95.5C 222.36,93.1186 222.027,90.4519 223.5,87.5 Z"/></g>
<g><path style="opacity:1" fill="#385a6c" d="M 101.5,74.5 C 103.49,75.999 105.823,76.8324 108.5,77C 109.987,79.4852 111.821,81.6518 114,83.5C 113.965,87.9158 116.132,90.2491 120.5,90.5C 120.611,91.1174 120.944,91.6174 121.5,92C 119.831,93.669 117.831,94.5023 115.5,94.5C 115.307,97.3085 114.64,99.9752 113.5,102.5C 116.313,102.548 118.979,103.215 121.5,104.5C 122.506,104.062 122.506,103.396 121.5,102.5C 122.167,102.167 122.833,101.833 123.5,101.5C 125.801,102.396 128.134,102.562 130.5,102C 129.434,100.841 129.767,100.008 131.5,99.5C 132.167,101.5 132.833,103.5 133.5,105.5C 135.5,105.833 137.5,106.167 139.5,106.5C 139.338,104.473 139.505,102.473 140,100.5C 140.414,100.043 140.914,99.7093 141.5,99.5C 145.6,100.716 149.6,102.216 153.5,104C 148.73,104.639 148.397,105.805 152.5,107.5C 150.11,108.456 147.61,109.456 145,110.5C 142.201,108.834 139.701,109.167 137.5,111.5C 132.048,108.252 126.048,106.918 119.5,107.5C 113.322,106.617 106.988,105.784 100.5,105C 99.3595,104.259 99.3595,103.425 100.5,102.5C 97.0136,101.724 93.5136,101.058 90,100.5C 88.0772,98.7877 85.9106,97.4544 83.5,96.5C 82.8933,96.6236 82.56,96.9569 82.5,97.5C 81.448,97.6495 80.448,97.4828 79.5,97C 80.7588,96.0766 82.0921,95.2432 83.5,94.5C 83.3333,94.1667 83.1667,93.8333 83,93.5C 80.5023,94.5982 78.0023,94.4316 75.5,93C 71.8549,90.9886 71.8549,89.4886 75.5,88.5C 83.8705,93.7904 84.5372,92.7904 77.5,85.5C 78.7118,83.0769 80.7118,82.0769 83.5,82.5C 83.1826,86.1716 84.8493,87.8383 88.5,87.5C 88.5,86.5 88.5,85.5 88.5,84.5C 90.4835,84.6168 92.1502,83.9501 93.5,82.5C 94.5,82.8333 95.1667,83.5 95.5,84.5C 94.6744,85.451 94.5078,86.451 95,87.5C 97.8402,84.6293 100.174,84.9626 102,88.5C 102.692,87.9747 103.192,87.3081 103.5,86.5C 100.514,83.6735 97.1809,81.3401 93.5,79.5C 92.3112,78.5713 90.9778,78.238 89.5,78.5C 89.5,77.5 89.5,76.5 89.5,75.5C 86.4208,75.1958 83.5875,74.1958 81,72.5C 81.685,68.0935 83.8516,67.4268 87.5,70.5C 91.0135,68.8693 94.0135,69.536 96.5,72.5C 96.1667,72.8333 95.8333,73.1667 95.5,73.5C 93.7597,71.7892 91.7597,70.9558 89.5,71C 92.8595,74.0974 96.8595,75.264 101.5,74.5 Z"/></g>
<g><path style="opacity:1" fill="#33a9a9" d="M 187.5,88.5 C 186.972,89.8474 186.805,91.1807 187,92.5C 188.73,94.4019 190.563,96.0686 192.5,97.5C 189.438,98.0538 186.438,98.5538 183.5,99C 181.542,96.9972 181.209,94.8305 182.5,92.5C 184.167,91.1667 185.833,89.8333 187.5,88.5 Z"/></g>
<g><path style="opacity:1" fill="#55ebee" d="M 207.5,77.5 C 207.5,78.8333 207.5,80.1667 207.5,81.5C 206.083,84.3404 206.416,87.007 208.5,89.5C 209.92,92.2613 210.587,95.2613 210.5,98.5C 210.5,98.8333 210.5,99.1667 210.5,99.5C 208.512,99.8271 206.512,100.16 204.5,100.5C 203.006,100.291 201.839,99.6241 201,98.5C 200.283,99.0442 199.783,99.7109 199.5,100.5C 199.5,101.167 199.167,101.5 198.5,101.5C 197.178,101.67 196.011,101.337 195,100.5C 194.937,95.0054 195.937,89.672 198,84.5C 199.409,83.2189 200.909,82.2189 202.5,81.5C 202.787,78.5159 204.454,77.1826 207.5,77.5 Z"/></g>
<g><path style="opacity:1" fill="#162126" d="M 212.5,84.5 C 213.942,85.8195 214.608,87.4862 214.5,89.5C 214.854,93.6372 214.354,97.6372 213,101.5C 212.148,100.429 211.315,99.4293 210.5,98.5C 210.587,95.2613 209.92,92.2613 208.5,89.5C 208.5,87.8333 208.5,86.1667 208.5,84.5C 209.833,84.5 211.167,84.5 212.5,84.5 Z"/></g>
<g><path style="opacity:1" fill="#152025" d="M 226.5,88.5 C 227.167,88.8333 227.833,89.1667 228.5,89.5C 228.5,92.5 228.5,95.5 228.5,98.5C 228.5,99.1667 228.5,99.8333 228.5,100.5C 226.726,99.6304 225.393,98.297 224.5,96.5C 224.5,96.1667 224.5,95.8333 224.5,95.5C 223.99,92.6122 224.656,90.2789 226.5,88.5 Z"/></g>
<g><path style="opacity:1" fill="#2e868d" d="M 22.5,70.5 C 22.0617,73.8934 22.8951,76.8934 25,79.5C 25.6667,86.1667 26.3333,92.8333 27,99.5C 29.139,97.194 30.639,94.5273 31.5,91.5C 32.1818,92.2427 32.8485,92.9094 33.5,93.5C 33.5,94.8333 33.5,96.1667 33.5,97.5C 32.5768,96.6971 31.5768,96.5304 30.5,97C 28.9203,99.9334 27.2537,102.767 25.5,105.5C 23.4159,104.752 21.4159,104.752 19.5,105.5C 18.7492,104.624 18.2492,103.624 18,102.5C 17.5004,97.489 17.667,92.489 18.5,87.5C 18.458,84.7414 17.958,82.0747 17,79.5C 15.9381,82.9273 14.7715,86.2606 13.5,89.5C 13.6741,87.139 14.0074,84.8056 14.5,82.5C 15.1881,76.7457 16.3548,71.079 18,65.5C 19.517,67.2395 21.017,68.9062 22.5,70.5 Z"/></g>
<g><path style="opacity:1" fill="#3a6477" d="M 141.5,78.5 C 144.146,80.2525 147.146,81.2525 150.5,81.5C 149.432,82.4345 148.099,82.7678 146.5,82.5C 146.286,84.1439 146.62,85.6439 147.5,87C 150.365,87.1829 153.031,87.6829 155.5,88.5C 155.149,91.2377 154.482,93.9044 153.5,96.5C 154.357,97.3998 155.024,97.0664 155.5,95.5C 156.586,95.62 157.253,96.2867 157.5,97.5C 157.311,101.641 155.644,104.975 152.5,107.5C 148.397,105.805 148.73,104.639 153.5,104C 149.6,102.216 145.6,100.716 141.5,99.5C 140.914,99.7093 140.414,100.043 140,100.5C 139.505,102.473 139.338,104.473 139.5,106.5C 137.5,106.167 135.5,105.833 133.5,105.5C 132.833,103.5 132.167,101.5 131.5,99.5C 132.29,98.2058 133.29,97.0391 134.5,96C 133.624,94.414 132.624,92.914 131.5,91.5C 132.689,90.5713 134.022,90.238 135.5,90.5C 135.923,88.2188 135.256,86.5521 133.5,85.5C 133.263,84.209 133.596,83.209 134.5,82.5C 134.369,83.2389 134.536,83.9056 135,84.5C 137.037,82.2941 139.203,80.2941 141.5,78.5 Z"/></g>
<g><path style="opacity:1" fill="#355969" d="M 162.5,86.5 C 163.17,89.5031 164.837,90.1697 167.5,88.5C 167.015,93.1585 168.848,94.4919 173,92.5C 172.81,95.5851 171.976,98.5851 170.5,101.5C 170.624,102.107 170.957,102.44 171.5,102.5C 172.695,102.866 173.361,103.699 173.5,105C 172.2,107.437 171.2,109.937 170.5,112.5C 168.5,112.5 166.5,112.5 164.5,112.5C 164.981,108.798 165.648,105.131 166.5,101.5C 165.928,97.9291 163.928,95.5958 160.5,94.5C 161.609,92.7859 160.942,92.1192 158.5,92.5C 159.846,90.4632 161.18,88.4632 162.5,86.5 Z"/></g>
<g><path style="opacity:1" fill="#3bafb3" d="M 33.5,97.5 C 33.5,104.167 33.5,110.833 33.5,117.5C 32.7011,123.747 31.7011,130.08 30.5,136.5C 30.3259,138.861 29.9926,141.194 29.5,143.5C 27.5,143.5 25.5,143.5 23.5,143.5C 23.7215,140.933 24.3882,138.599 25.5,136.5C 25.4125,139.598 25.9125,139.932 27,137.5C 29.2166,127.601 29.8833,117.601 29,107.5C 28.0513,109.093 26.8846,110.426 25.5,111.5C 24.6201,109.389 24.6201,107.389 25.5,105.5C 27.2537,102.767 28.9203,99.9334 30.5,97C 31.5768,96.5304 32.5768,96.6971 33.5,97.5 Z"/></g>
<g><path style="opacity:1" fill="#2a2f3c" d="M 35.5,97.5 C 38.1097,102.109 41.443,106.109 45.5,109.5C 45.5,110.167 45.5,110.833 45.5,111.5C 45.8333,113.5 46.1667,115.5 46.5,117.5C 42.3301,117.333 38.3301,118 34.5,119.5C 34.175,111.981 34.5084,104.648 35.5,97.5 Z"/></g>
<g><path style="opacity:1" fill="#3f6f8a" d="M 214.5,89.5 C 215.525,92.9736 216.192,96.6403 216.5,100.5C 213.658,106.013 211.658,105.679 210.5,99.5C 210.5,99.1667 210.5,98.8333 210.5,98.5C 211.315,99.4293 212.148,100.429 213,101.5C 214.354,97.6372 214.854,93.6372 214.5,89.5 Z"/></g>
<g><path style="opacity:1" fill="#3a5f72" d="M 181.5,90.5 C 181.328,91.4916 181.662,92.1583 182.5,92.5C 181.209,94.8305 181.542,96.9972 183.5,99C 186.438,98.5538 189.438,98.0538 192.5,97.5C 191.886,101.135 191.552,104.802 191.5,108.5C 189.309,109.845 187.975,111.845 187.5,114.5C 185.533,113.318 184.2,113.985 183.5,116.5C 182.779,112.587 181.779,108.754 180.5,105C 182.068,101.047 180.734,98.5466 176.5,97.5C 177.833,95.5 179.167,93.5 180.5,91.5C 180.5,90.8333 180.833,90.5 181.5,90.5 Z"/></g>
<g><path style="opacity:1" fill="#468fa1" d="M 224.5,96.5 C 225.393,98.297 226.726,99.6304 228.5,100.5C 228.152,102.713 227.319,104.713 226,106.5C 225.174,103.207 224.674,99.8738 224.5,96.5 Z"/></g>
<g><path style="opacity:1" fill="#415977" d="M 82.5,97.5 C 82.56,96.9569 82.8933,96.6236 83.5,96.5C 85.9106,97.4544 88.0772,98.7877 90,100.5C 93.5136,101.058 97.0136,101.724 100.5,102.5C 99.3595,103.425 99.3595,104.259 100.5,105C 106.988,105.784 113.322,106.617 119.5,107.5C 114.322,107.712 109.322,108.712 104.5,110.5C 101.882,110.221 99.3822,109.554 97,108.5C 96.6924,109.308 96.1924,109.975 95.5,110.5C 90.1814,109.275 84.8481,109.275 79.5,110.5C 79.8039,109.85 80.1373,109.183 80.5,108.5C 79.1667,107.833 77.8333,107.167 76.5,106.5C 76.8333,105.833 77.1667,105.167 77.5,104.5C 76.3128,103.481 75.3128,102.314 74.5,101C 77.7976,101.07 81.1309,100.403 84.5,99C 83.9558,98.2828 83.2891,97.7828 82.5,97.5 Z"/></g>
<g><path style="opacity:1" fill="#476885" d="M 255.5,96.5 C 255.5,106.5 255.5,116.5 255.5,126.5C 253.533,126.261 251.699,126.594 250,127.5C 248.59,126.213 247.09,125.046 245.5,124C 247.686,123.396 247.852,122.23 246,120.5C 244.307,122.027 242.473,123.36 240.5,124.5C 240.025,122.894 238.691,121.394 236.5,120C 235.256,119.544 234.423,120.044 234,121.5C 233.085,120.672 232.419,119.672 232,118.5C 229.146,123.18 224.98,125.847 219.5,126.5C 224.714,122.405 227.547,117.071 228,110.5C 227.617,111.056 227.117,111.389 226.5,111.5C 227.48,107.615 229.48,105.282 232.5,104.5C 233.014,105.625 233.347,106.791 233.5,108C 230.962,109.171 230.462,110.671 232,112.5C 234.97,111.363 237.136,109.363 238.5,106.5C 240.751,105.305 243.085,104.305 245.5,103.5C 246.281,102.271 246.781,100.938 247,99.5C 247.333,99.8333 247.667,100.167 248,100.5C 249.05,97.7605 250.883,96.2605 253.5,96C 252.304,96.6543 252.304,97.1543 253.5,97.5C 254.183,97.1373 254.85,96.8039 255.5,96.5 Z"/></g>
<g><path style="opacity:1" fill="#5fb8d9" d="M 210.5,99.5 C 211.658,105.679 213.658,106.013 216.5,100.5C 217.609,100.557 218.609,100.89 219.5,101.5C 221.876,102.206 223.21,103.873 223.5,106.5C 222.817,108.176 221.483,108.843 219.5,108.5C 219.162,114.22 218.495,119.886 217.5,125.5C 217.624,126.107 217.957,126.44 218.5,126.5C 217.415,128.587 215.749,129.92 213.5,130.5C 211.057,129.891 209.39,128.391 208.5,126C 209.793,125.51 211.127,125.343 212.5,125.5C 212.167,123.5 211.833,121.5 211.5,119.5C 212.5,119.5 213.5,119.5 214.5,119.5C 213.931,115.755 213.597,112.089 213.5,108.5C 210.5,108.5 207.5,108.5 204.5,108.5C 203.292,107.766 201.959,107.433 200.5,107.5C 200.802,104.941 200.468,102.607 199.5,100.5C 199.783,99.7109 200.283,99.0442 201,98.5C 201.839,99.6241 203.006,100.291 204.5,100.5C 206.512,100.16 208.512,99.8271 210.5,99.5 Z"/></g>
<g><path style="opacity:1" fill="#425674" d="M 48.5,96.5 C 48.9867,97.4734 49.4867,98.4734 50,99.5C 50.3345,96.8101 51.5012,96.1435 53.5,97.5C 54.9778,97.238 56.3112,97.5713 57.5,98.5C 58.057,100.235 58.3903,101.902 58.5,103.5C 62.7841,104.821 67.1174,105.988 71.5,107C 73.8791,107.716 75.8791,108.883 77.5,110.5C 75.0504,110.298 72.717,110.631 70.5,111.5C 58.5901,111.041 48.5901,105.874 40.5,96C 41.4491,95.3828 42.2825,95.5494 43,96.5C 43.3333,95.8333 43.6667,95.1667 44,94.5C 45.1096,96.0368 46.6096,96.7035 48.5,96.5 Z"/></g>
<g><path style="opacity:1" fill="#41d0de" d="M 25.5,114.5 C 24.3642,117.425 22.6975,120.092 20.5,122.5C 18.5839,119.895 17.5839,120.395 17.5,124C 17.6667,125.167 17.8333,126.333 18,127.5C 18.3333,126.833 18.6667,126.167 19,125.5C 19.0781,127.657 19.2448,129.657 19.5,131.5C 17.2299,135.245 15.5632,139.245 14.5,143.5C 14.1667,143.5 13.8333,143.5 13.5,143.5C 15.0027,138.511 16.1694,133.511 17,128.5C 15.6152,127.449 14.6152,126.116 14,124.5C 13.6667,124.833 13.3333,125.167 13,125.5C 12.6008,130.218 12.1008,134.552 11.5,138.5C 10.713,136.896 9.3797,136.229 7.5,136.5C 8.49799,132.672 8.49799,129.006 7.5,125.5C 10.1628,120.845 11.8294,115.845 12.5,110.5C 14.2225,108.747 15.7225,106.747 17,104.5C 17.6667,105.833 18.6667,106.833 20,107.5C 19.9646,111.245 20.9646,111.912 23,109.5C 23.3333,111.833 23.6667,114.167 24,116.5C 24.2784,115.584 24.7784,114.918 25.5,114.5 Z"/></g>
<g><path style="opacity:1" fill="#526991" d="M 119.5,107.5 C 126.048,106.918 132.048,108.252 137.5,111.5C 139.701,109.167 142.201,108.834 145,110.5C 147.61,109.456 150.11,108.456 152.5,107.5C 155.177,110.336 158.51,111.836 162.5,112C 160.117,112.065 159.45,112.898 160.5,114.5C 164.104,115.685 167.438,117.351 170.5,119.5C 175.288,118.852 179.955,119.519 184.5,121.5C 184.719,122.675 184.386,123.675 183.5,124.5C 182.264,123.754 180.93,123.421 179.5,123.5C 171.529,122.424 163.863,120.257 156.5,117C 145.087,116.845 133.754,116.012 122.5,114.5C 116.452,112.818 110.452,111.485 104.5,110.5C 109.322,108.712 114.322,107.712 119.5,107.5 Z"/></g>
<g><path style="opacity:1" fill="#416985" d="M 203.5,112.5 C 202.833,115.167 202.167,117.833 201.5,120.5C 199.883,119.962 198.216,119.629 196.5,119.5C 196.911,116.447 197.577,113.447 198.5,110.5C 200.045,109.548 201.712,109.215 203.5,109.5C 203.5,110.5 203.5,111.5 203.5,112.5 Z"/></g>
<g><path style="opacity:1" fill="#7cd1e8" d="M 223.5,106.5 C 224.165,108.698 224.832,111.031 225.5,113.5C 226.298,113.043 226.631,112.376 226.5,111.5C 227.117,111.389 227.617,111.056 228,110.5C 227.547,117.071 224.714,122.405 219.5,126.5C 219.167,126.5 218.833,126.5 218.5,126.5C 217.957,126.44 217.624,126.107 217.5,125.5C 218.495,119.886 219.162,114.22 219.5,108.5C 221.483,108.843 222.817,108.176 223.5,106.5 Z"/></g>
<g><path style="opacity:1" fill="#293647" d="M 52.5,114.5 C 57.3344,115.539 62.001,116.872 66.5,118.5C 66.5,119.167 66.1667,119.5 65.5,119.5C 63.1353,120.594 60.6353,121.261 58,121.5C 55.7794,121.607 53.9461,120.94 52.5,119.5C 51.645,118.469 50.9783,117.303 50.5,116C 50.8361,114.97 51.5028,114.47 52.5,114.5 Z"/></g>
<g><path style="opacity:1" fill="#4c82a3" d="M 199.5,100.5 C 200.468,102.607 200.802,104.941 200.5,107.5C 201.959,107.433 203.292,107.766 204.5,108.5C 204.768,110.099 204.434,111.432 203.5,112.5C 203.5,111.5 203.5,110.5 203.5,109.5C 201.712,109.215 200.045,109.548 198.5,110.5C 197.577,113.447 196.911,116.447 196.5,119.5C 198.216,119.629 199.883,119.962 201.5,120.5C 199.51,121.934 197.843,123.768 196.5,126C 194.299,126.825 192.466,126.325 191,124.5C 189.272,125.352 189.105,126.352 190.5,127.5C 184.684,125.701 178.684,125.035 172.5,125.5C 174.833,124.833 177.167,124.167 179.5,123.5C 180.93,123.421 182.264,123.754 183.5,124.5C 184.386,123.675 184.719,122.675 184.5,121.5C 185.873,121.657 187.207,121.49 188.5,121C 186.122,120.026 186.456,119.359 189.5,119C 188.207,118.51 186.873,118.343 185.5,118.5C 185.5,117.5 185.5,116.5 185.5,115.5C 187.527,115.662 189.527,115.495 191.5,115C 190.199,113.384 190.199,111.884 191.5,110.5C 191.81,111.738 192.31,111.738 193,110.5C 194.689,107.333 196.522,104.333 198.5,101.5C 199.167,101.5 199.5,101.167 199.5,100.5 Z"/></g>
<g><path style="opacity:1" fill="#6587b6" d="M 70.5,111.5 C 72.717,110.631 75.0504,110.298 77.5,110.5C 78.1667,110.5 78.8333,110.5 79.5,110.5C 84.8481,109.275 90.1814,109.275 95.5,110.5C 96.1924,109.975 96.6924,109.308 97,108.5C 99.3822,109.554 101.882,110.221 104.5,110.5C 110.452,111.485 116.452,112.818 122.5,114.5C 120.735,115.461 118.735,115.795 116.5,115.5C 106.954,115.848 97.621,116.848 88.5,118.5C 84.9581,118.187 81.6248,118.521 78.5,119.5C 76.4916,120.301 75.9916,121.634 77,123.5C 76.4387,124.022 75.772,124.355 75,124.5C 71.7194,123.04 68.8861,121.04 66.5,118.5C 62.001,116.872 57.3344,115.539 52.5,114.5C 49.9333,113.283 47.6,111.616 45.5,109.5C 41.443,106.109 38.1097,102.109 35.5,97.5C 34.7659,96.2921 34.4326,94.9587 34.5,93.5C 34.4346,93.0618 34.6012,92.7284 35,92.5C 39.6519,97.992 44.1519,103.659 48.5,109.5C 52.2787,106.783 52.9454,107.283 50.5,111C 55.1615,111.943 59.8282,112.776 64.5,113.5C 66.6568,112.95 68.6568,112.283 70.5,111.5 Z"/></g>
<g><path style="opacity:1" fill="#3d5170" d="M 116.5,115.5 C 118.265,116.461 120.265,116.795 122.5,116.5C 112.82,117.724 103.153,119.058 93.5,120.5C 92.1805,119.058 90.5138,118.392 88.5,118.5C 97.621,116.848 106.954,115.848 116.5,115.5 Z"/></g>
<g><path style="opacity:1" fill="#457392" d="M 158.5,92.5 C 160.942,92.1192 161.609,92.7859 160.5,94.5C 163.928,95.5958 165.928,97.9291 166.5,101.5C 165.648,105.131 164.981,108.798 164.5,112.5C 166.5,112.5 168.5,112.5 170.5,112.5C 171.2,109.937 172.2,107.437 173.5,105C 173.361,103.699 172.695,102.866 171.5,102.5C 172.833,100.5 174.5,98.8333 176.5,97.5C 180.734,98.5466 182.068,101.047 180.5,105C 181.779,108.754 182.779,112.587 183.5,116.5C 184.2,113.985 185.533,113.318 187.5,114.5C 187.975,111.845 189.309,109.845 191.5,108.5C 191.5,109.167 191.5,109.833 191.5,110.5C 190.199,111.884 190.199,113.384 191.5,115C 189.527,115.495 187.527,115.662 185.5,115.5C 185.5,116.5 185.5,117.5 185.5,118.5C 186.873,118.343 188.207,118.51 189.5,119C 186.456,119.359 186.122,120.026 188.5,121C 187.207,121.49 185.873,121.657 184.5,121.5C 179.955,119.519 175.288,118.852 170.5,119.5C 167.438,117.351 164.104,115.685 160.5,114.5C 159.45,112.898 160.117,112.065 162.5,112C 158.51,111.836 155.177,110.336 152.5,107.5C 155.644,104.975 157.311,101.641 157.5,97.5C 157.253,96.2867 156.586,95.62 155.5,95.5C 156.167,94.1667 157.167,93.1667 158.5,92.5 Z"/></g>
<g><path style="opacity:1" fill="#33495d" d="M 33.5,93.5 C 33.8333,93.5 34.1667,93.5 34.5,93.5C 34.4326,94.9587 34.7659,96.2921 35.5,97.5C 34.5084,104.648 34.175,111.981 34.5,119.5C 38.3301,118 42.3301,117.333 46.5,117.5C 46.1667,115.5 45.8333,113.5 45.5,111.5C 47.8337,113.176 48.8337,115.509 48.5,118.5C 43.6571,119.869 38.6571,120.869 33.5,121.5C 33.5,120.167 33.5,118.833 33.5,117.5C 33.5,110.833 33.5,104.167 33.5,97.5C 33.5,96.1667 33.5,94.8333 33.5,93.5 Z"/></g>
<g><path style="opacity:1" fill="#5679a6" d="M 122.5,116.5 C 126.148,117.165 129.815,117.831 133.5,118.5C 136.001,120.256 138.834,120.59 142,119.5C 147.21,120.063 152.376,120.896 157.5,122C 148.396,122.928 139.396,122.428 130.5,120.5C 128.77,121.026 127.436,122.026 126.5,123.5C 128.484,124.706 130.484,124.706 132.5,123.5C 135.64,125.473 138.64,127.64 141.5,130C 139.134,130.44 136.801,130.94 134.5,131.5C 133.167,131.5 131.833,131.5 130.5,131.5C 127.435,130.273 125.101,128.107 123.5,125C 121.866,124.506 120.199,124.34 118.5,124.5C 116.167,124.5 113.833,124.5 111.5,124.5C 105.151,124.564 99.1505,123.231 93.5,120.5C 103.153,119.058 112.82,117.724 122.5,116.5 Z"/></g>
<g><path style="opacity:1" fill="#39aab8" d="M 74.5,127.5 C 72.8608,128.473 71.5274,129.806 70.5,131.5C 68.264,132.389 66.264,133.722 64.5,135.5C 64.1667,135 63.8333,134.5 63.5,134C 66.5934,130.851 68.4267,127.018 69,122.5C 71.1906,123.833 73.024,125.5 74.5,127.5 Z"/></g>
<g><path style="opacity:1" fill="#29545a" d="M 78.5,119.5 C 81.6248,118.521 84.9581,118.187 88.5,118.5C 90.5138,118.392 92.1805,119.058 93.5,120.5C 99.1505,123.231 105.151,124.564 111.5,124.5C 111.5,125.833 111.5,127.167 111.5,128.5C 111.5,128.833 111.5,129.167 111.5,129.5C 109.5,130.833 107.833,132.5 106.5,134.5C 104.143,134.337 101.81,134.503 99.5,135C 98.6747,137.778 98.008,140.611 97.5,143.5C 95.5,143.5 93.5,143.5 91.5,143.5C 93.5214,139.59 94.8547,135.424 95.5,131C 95.6125,129.338 94.9458,128.171 93.5,127.5C 92.3395,129.875 91.3395,132.208 90.5,134.5C 89.0414,132.007 87.7081,129.341 86.5,126.5C 85.7022,128.078 85.2022,129.744 85,131.5C 84.7679,130.263 84.2679,129.263 83.5,128.5C 83.1034,127.475 82.4368,127.308 81.5,128C 80.5014,131.445 79.0014,131.945 77,129.5C 74.0805,132.819 71.0805,136.153 68,139.5C 67.51,140.793 67.3433,142.127 67.5,143.5C 65.1667,143.5 62.8333,143.5 60.5,143.5C 64.2101,139.792 67.5434,135.792 70.5,131.5C 71.5274,129.806 72.8608,128.473 74.5,127.5C 79.0311,125.318 83.6977,123.318 88.5,121.5C 85.3978,119.817 82.0644,119.151 78.5,119.5 Z"/></g>
<g><path style="opacity:1" fill="#5a92bc" d="M 122.5,114.5 C 133.754,116.012 145.087,116.845 156.5,117C 163.863,120.257 171.529,122.424 179.5,123.5C 177.167,124.167 174.833,124.833 172.5,125.5C 163.865,127.101 155.532,129.601 147.5,133C 144.739,133.722 142.073,133.555 139.5,132.5C 137.585,132.784 135.919,132.451 134.5,131.5C 136.801,130.94 139.134,130.44 141.5,130C 138.64,127.64 135.64,125.473 132.5,123.5C 130.484,124.706 128.484,124.706 126.5,123.5C 127.436,122.026 128.77,121.026 130.5,120.5C 139.396,122.428 148.396,122.928 157.5,122C 152.376,120.896 147.21,120.063 142,119.5C 138.834,120.59 136.001,120.256 133.5,118.5C 129.815,117.831 126.148,117.165 122.5,116.5C 120.265,116.795 118.265,116.461 116.5,115.5C 118.735,115.795 120.735,115.461 122.5,114.5 Z"/></g>
<g><path style="opacity:1" fill="#5aa4cb" d="M 204.5,108.5 C 207.5,108.5 210.5,108.5 213.5,108.5C 213.597,112.089 213.931,115.755 214.5,119.5C 213.5,119.5 212.5,119.5 211.5,119.5C 211.833,121.5 212.167,123.5 212.5,125.5C 211.127,125.343 209.793,125.51 208.5,126C 209.39,128.391 211.057,129.891 213.5,130.5C 209.781,133.023 205.615,134.69 201,135.5C 198.429,134.75 196.262,133.417 194.5,131.5C 193.167,130.167 191.833,128.833 190.5,127.5C 189.105,126.352 189.272,125.352 191,124.5C 192.466,126.325 194.299,126.825 196.5,126C 197.843,123.768 199.51,121.934 201.5,120.5C 202.167,117.833 202.833,115.167 203.5,112.5C 204.434,111.432 204.768,110.099 204.5,108.5 Z"/></g>
<g><path style="opacity:1" fill="#466187" d="M 45.5,109.5 C 47.6,111.616 49.9333,113.283 52.5,114.5C 51.5028,114.47 50.8361,114.97 50.5,116C 50.9783,117.303 51.645,118.469 52.5,119.5C 50.2417,119.775 49.9084,120.775 51.5,122.5C 50.624,123.251 49.624,123.751 48.5,124C 49.7214,127.446 49.7214,130.946 48.5,134.5C 49.0372,135.741 49.7039,136.908 50.5,138C 49.8524,139.44 49.5191,140.94 49.5,142.5C 48.448,142.649 47.448,142.483 46.5,142C 45.5119,139.833 44.1786,138 42.5,136.5C 39.241,134.052 36.4077,131.052 34,127.5C 33.5045,125.527 33.3379,123.527 33.5,121.5C 38.6571,120.869 43.6571,119.869 48.5,118.5C 48.8337,115.509 47.8337,113.176 45.5,111.5C 45.5,110.833 45.5,110.167 45.5,109.5 Z"/></g>
<g><path style="opacity:1" fill="#4af7f9" d="M 13.5,143.5 C 13.1667,143.5 12.8333,143.5 12.5,143.5C 12.3713,141.784 12.038,140.117 11.5,138.5C 12.1008,134.552 12.6008,130.218 13,125.5C 13.3333,125.167 13.6667,124.833 14,124.5C 14.6152,126.116 15.6152,127.449 17,128.5C 16.1694,133.511 15.0027,138.511 13.5,143.5 Z"/></g>
<g><path style="opacity:1" fill="#448b9e" d="M 111.5,124.5 C 113.833,124.5 116.167,124.5 118.5,124.5C 118.496,126.842 117.663,128.842 116,130.5C 115.583,129.244 114.75,128.577 113.5,128.5C 113.062,127.494 112.396,127.494 111.5,128.5C 111.5,127.167 111.5,125.833 111.5,124.5 Z"/></g>
<g><path style="opacity:1" fill="#48f0f5" d="M 7.5,125.5 C 8.49799,129.006 8.49799,132.672 7.5,136.5C 6.07874,139.009 4.41207,141.343 2.5,143.5C 1.5,143.5 0.5,143.5 -0.5,143.5C -0.5,141.833 -0.5,140.167 -0.5,138.5C 3.41677,135.012 6.08344,130.679 7.5,125.5 Z"/></g>
<g><path style="opacity:1" fill="#328b9d" d="M 33.5,117.5 C 33.5,118.833 33.5,120.167 33.5,121.5C 33.3379,123.527 33.5045,125.527 34,127.5C 36.4077,131.052 39.241,134.052 42.5,136.5C 42.4003,139.108 43.0669,141.442 44.5,143.5C 42.8333,143.5 41.1667,143.5 39.5,143.5C 37.2915,140.949 35.6248,137.949 34.5,134.5C 33.675,133.614 32.675,133.281 31.5,133.5C 31.7373,134.791 31.404,135.791 30.5,136.5C 31.7011,130.08 32.7011,123.747 33.5,117.5 Z"/></g>
<g><path style="opacity:1" fill="#3f8ea8" d="M 66.5,118.5 C 68.8861,121.04 71.7194,123.04 75,124.5C 75.772,124.355 76.4387,124.022 77,123.5C 75.9916,121.634 76.4916,120.301 78.5,119.5C 82.0644,119.151 85.3978,119.817 88.5,121.5C 83.6977,123.318 79.0311,125.318 74.5,127.5C 73.024,125.5 71.1906,123.833 69,122.5C 68.4267,127.018 66.5934,130.851 63.5,134C 63.8333,134.5 64.1667,135 64.5,135.5C 66.264,133.722 68.264,132.389 70.5,131.5C 67.5434,135.792 64.2101,139.792 60.5,143.5C 59.8333,143.5 59.1667,143.5 58.5,143.5C 59.0944,141.145 60.0944,138.978 61.5,137C 60.615,134.843 58.9484,134.01 56.5,134.5C 56.5,137.5 56.5,140.5 56.5,143.5C 54.5,143.5 52.5,143.5 50.5,143.5C 51.0525,137.741 51.3858,132.074 51.5,126.5C 53.604,126.201 55.604,126.534 57.5,127.5C 58.2162,129.908 59.5495,131.908 61.5,133.5C 65.4827,129.552 66.816,124.885 65.5,119.5C 66.1667,119.5 66.5,119.167 66.5,118.5 Z"/></g>
<g><path style="opacity:1" fill="#47e3e9" d="M 25.5,136.5 C 25.5111,134.453 25.8444,132.453 26.5,130.5C 26.2547,128.337 25.2547,126.67 23.5,125.5C 21.541,131.721 19.2077,137.721 16.5,143.5C 15.8333,143.5 15.1667,143.5 14.5,143.5C 15.5632,139.245 17.2299,135.245 19.5,131.5C 19.2448,129.657 19.0781,127.657 19,125.5C 18.6667,126.167 18.3333,126.833 18,127.5C 17.8333,126.333 17.6667,125.167 17.5,124C 17.5839,120.395 18.5839,119.895 20.5,122.5C 22.6975,120.092 24.3642,117.425 25.5,114.5C 25.5,113.5 25.5,112.5 25.5,111.5C 26.8846,110.426 28.0513,109.093 29,107.5C 29.8833,117.601 29.2166,127.601 27,137.5C 25.9125,139.932 25.4125,139.598 25.5,136.5 Z"/></g>
<g><path style="opacity:1" fill="#3d678b" d="M 255.5,126.5 C 255.5,132.167 255.5,137.833 255.5,143.5C 225.833,143.5 196.167,143.5 166.5,143.5C 168.218,142.776 170.052,142.109 172,141.5C 172.333,141.833 172.667,142.167 173,142.5C 173.456,141.256 172.956,140.423 171.5,140C 173.874,137.935 176.04,138.101 178,140.5C 181.29,139.128 184.456,139.462 187.5,141.5C 192.319,139.851 194.652,136.518 194.5,131.5C 196.262,133.417 198.429,134.75 201,135.5C 205.615,134.69 209.781,133.023 213.5,130.5C 215.749,129.92 217.415,128.587 218.5,126.5C 218.833,126.5 219.167,126.5 219.5,126.5C 224.98,125.847 229.146,123.18 232,118.5C 232.419,119.672 233.085,120.672 234,121.5C 234.423,120.044 235.256,119.544 236.5,120C 238.691,121.394 240.025,122.894 240.5,124.5C 242.473,123.36 244.307,122.027 246,120.5C 247.852,122.23 247.686,123.396 245.5,124C 247.09,125.046 248.59,126.213 250,127.5C 251.699,126.594 253.533,126.261 255.5,126.5 Z"/></g>
<g><path style="opacity:1" fill="#37b3bf" d="M -0.5,108.5 C 0.117425,108.611 0.617425,108.944 1,109.5C 1.7415,112.562 1.57483,115.562 0.5,118.5C 1.44145,118.489 2.10812,118.989 2.5,120C 0.958311,123.035 0.458311,126.202 1,129.5C 2.41194,127.935 3.57861,126.269 4.5,124.5C 6.66089,119.508 9.32756,114.841 12.5,110.5C 11.8294,115.845 10.1628,120.845 7.5,125.5C 6.08344,130.679 3.41677,135.012 -0.5,138.5C -0.5,128.5 -0.5,118.5 -0.5,108.5 Z"/></g>
<g><path style="opacity:1" fill="#44789b" d="M 52.5,119.5 C 53.9461,120.94 55.7794,121.607 58,121.5C 60.6353,121.261 63.1353,120.594 65.5,119.5C 66.816,124.885 65.4827,129.552 61.5,133.5C 59.5495,131.908 58.2162,129.908 57.5,127.5C 55.604,126.534 53.604,126.201 51.5,126.5C 51.3858,132.074 51.0525,137.741 50.5,143.5C 48.5,143.5 46.5,143.5 44.5,143.5C 43.0669,141.442 42.4003,139.108 42.5,136.5C 44.1786,138 45.5119,139.833 46.5,142C 47.448,142.483 48.448,142.649 49.5,142.5C 49.5191,140.94 49.8524,139.44 50.5,138C 49.7039,136.908 49.0372,135.741 48.5,134.5C 49.7214,130.946 49.7214,127.446 48.5,124C 49.624,123.751 50.624,123.251 51.5,122.5C 49.9084,120.775 50.2417,119.775 52.5,119.5 Z"/></g>
<g><path style="opacity:1" fill="#36a2aa" d="M 83.5,128.5 C 82.6827,133.797 81.016,138.797 78.5,143.5C 74.8333,143.5 71.1667,143.5 67.5,143.5C 67.3433,142.127 67.51,140.793 68,139.5C 71.0805,136.153 74.0805,132.819 77,129.5C 79.0014,131.945 80.5014,131.445 81.5,128C 82.4368,127.308 83.1034,127.475 83.5,128.5 Z"/></g>
<g><path style="opacity:1" fill="#2b6e75" d="M 90.5,134.5 C 89.4222,137.402 88.7556,140.402 88.5,143.5C 85.1667,143.5 81.8333,143.5 78.5,143.5C 81.016,138.797 82.6827,133.797 83.5,128.5C 84.2679,129.263 84.7679,130.263 85,131.5C 85.2022,129.744 85.7022,128.078 86.5,126.5C 87.7081,129.341 89.0414,132.007 90.5,134.5 Z"/></g>
<g><path style="opacity:1" fill="#348c97" d="M 91.5,143.5 C 90.5,143.5 89.5,143.5 88.5,143.5C 88.7556,140.402 89.4222,137.402 90.5,134.5C 91.3395,132.208 92.3395,129.875 93.5,127.5C 94.9458,128.171 95.6125,129.338 95.5,131C 94.8547,135.424 93.5214,139.59 91.5,143.5 Z"/></g>
<g><path style="opacity:1" fill="#4fdee5" d="M 130.5,131.5 C 131.833,131.5 133.167,131.5 134.5,131.5C 135.919,132.451 137.585,132.784 139.5,132.5C 139.677,136.234 139.344,139.901 138.5,143.5C 133.5,143.5 128.5,143.5 123.5,143.5C 125.49,140.311 126.823,136.811 127.5,133C 128.421,131.936 129.421,131.436 130.5,131.5 Z"/></g>
<g><path style="opacity:1" fill="#377996" d="M 39.5,143.5 C 36.1667,143.5 32.8333,143.5 29.5,143.5C 29.9926,141.194 30.3259,138.861 30.5,136.5C 31.404,135.791 31.7373,134.791 31.5,133.5C 32.675,133.281 33.675,133.614 34.5,134.5C 35.6248,137.949 37.2915,140.949 39.5,143.5 Z"/></g>
<g><path style="opacity:1" fill="#345c74" d="M 172.5,125.5 C 178.684,125.035 184.684,125.701 190.5,127.5C 191.833,128.833 193.167,130.167 194.5,131.5C 194.652,136.518 192.319,139.851 187.5,141.5C 184.456,139.462 181.29,139.128 178,140.5C 176.04,138.101 173.874,137.935 171.5,140C 172.956,140.423 173.456,141.256 173,142.5C 172.667,142.167 172.333,141.833 172,141.5C 170.052,142.109 168.218,142.776 166.5,143.5C 157.167,143.5 147.833,143.5 138.5,143.5C 139.344,139.901 139.677,136.234 139.5,132.5C 142.073,133.555 144.739,133.722 147.5,133C 155.532,129.601 163.865,127.101 172.5,125.5 Z"/></g>
<g><path style="opacity:1" fill="#1d3847" d="M 7.5,136.5 C 9.3797,136.229 10.713,136.896 11.5,138.5C 12.038,140.117 12.3713,141.784 12.5,143.5C 9.16667,143.5 5.83333,143.5 2.5,143.5C 4.41207,141.343 6.07874,139.009 7.5,136.5 Z"/></g>
<g><path style="opacity:1" fill="#2c8588" d="M 106.5,134.5 C 105.841,137.455 105.508,140.455 105.5,143.5C 102.833,143.5 100.167,143.5 97.5,143.5C 98.008,140.611 98.6747,137.778 99.5,135C 101.81,134.503 104.143,134.337 106.5,134.5 Z"/></g>
<g><path style="opacity:1" fill="#225f62" d="M 118.5,124.5 C 120.199,124.34 121.866,124.506 123.5,125C 125.101,128.107 127.435,130.273 130.5,131.5C 129.421,131.436 128.421,131.936 127.5,133C 126.823,136.811 125.49,140.311 123.5,143.5C 119.5,143.5 115.5,143.5 111.5,143.5C 111.183,138.324 111.849,133.324 113.5,128.5C 114.75,128.577 115.583,129.244 116,130.5C 117.663,128.842 118.496,126.842 118.5,124.5 Z"/></g>
<g><path style="opacity:1" fill="#32d0d0" d="M 58.5,143.5 C 57.8333,143.5 57.1667,143.5 56.5,143.5C 56.5,140.5 56.5,137.5 56.5,134.5C 58.9484,134.01 60.615,134.843 61.5,137C 60.0944,138.978 59.0944,141.145 58.5,143.5 Z"/></g>
<g><path style="opacity:1" fill="#50d8ed" d="M 113.5,128.5 C 111.849,133.324 111.183,138.324 111.5,143.5C 110.167,143.5 108.833,143.5 107.5,143.5C 109.413,139.006 110.746,134.339 111.5,129.5C 111.5,129.167 111.5,128.833 111.5,128.5C 112.396,127.494 113.062,127.494 113.5,128.5 Z"/></g>
<g><path style="opacity:1" fill="#274f61" d="M 25.5,136.5 C 24.3882,138.599 23.7215,140.933 23.5,143.5C 21.1667,143.5 18.8333,143.5 16.5,143.5C 19.2077,137.721 21.541,131.721 23.5,125.5C 25.2547,126.67 26.2547,128.337 26.5,130.5C 25.8444,132.453 25.5111,134.453 25.5,136.5 Z"/></g>
<g><path style="opacity:1" fill="#348ba7" d="M 111.5,129.5 C 110.746,134.339 109.413,139.006 107.5,143.5C 106.833,143.5 106.167,143.5 105.5,143.5C 105.508,140.455 105.841,137.455 106.5,134.5C 107.833,132.5 109.5,130.833 111.5,129.5 Z"/></g>
</svg>
