<?xml version="1.0" encoding="UTF-8"?>
<!DOCTYPE svg PUBLIC "-//W3C//DTD SVG 1.1//EN" "http://www.w3.org/Graphics/SVG/1.1/DTD/svg11.dtd">
<svg xmlns="http://www.w3.org/2000/svg" version="1.1" width="128px" height="128px" style="shape-rendering:geometricPrecision; text-rendering:geometricPrecision; image-rendering:optimizeQuality; fill-rule:evenodd; clip-rule:evenodd" xmlns:xlink="http://www.w3.org/1999/xlink">
<g><path style="opacity:1" fill="#f3a187" d="M -0.5,-0.5 C 12.8333,-0.5 26.1667,-0.5 39.5,-0.5C 38.762,5.54334 35.4286,7.54334 29.5,5.5C 27.1921,6.64113 25.3587,8.30779 24,10.5C 23.0922,8.56138 21.5922,7.56138 19.5,7.5C 19.6567,8.87344 19.49,10.2068 19,11.5C 18.6667,10.8333 18.3333,10.1667 18,9.5C 14.9028,12.6976 12.5695,16.3642 11,20.5C 8.33333,22.5 5.66667,24.5 3,26.5C 2.50649,28.1341 2.33982,29.8008 2.5,31.5C 1.5,31.5 0.5,31.5 -0.5,31.5C -0.5,20.8333 -0.5,10.1667 -0.5,-0.5 Z"/></g>
<g><path style="opacity:1" fill="#fcd844" d="M 71.5,-0.5 C 72.5,-0.5 73.5,-0.5 74.5,-0.5C 75.0754,2.61597 75.4087,5.78264 75.5,9C 74.2204,18.4571 73.5537,27.9571 73.5,37.5C 73.2175,42.9265 73.5509,48.2599 74.5,53.5C 74.5,59.5 74.5,65.5 74.5,71.5C 73.8333,71.5 73.5,71.1667 73.5,70.5C 73.3862,68.2821 72.7196,66.2821 71.5,64.5C 70.9765,58.8126 70.3098,53.1459 69.5,47.5C 69.5,44.5 69.5,41.5 69.5,38.5C 70.5853,34.2396 71.252,29.9062 71.5,25.5C 74.1106,16.9229 74.1106,8.25619 71.5,-0.5 Z"/></g>
<g><path style="opacity:1" fill="#060100" d="M 79.5,-0.5 C 81.1667,-0.5 82.8333,-0.5 84.5,-0.5C 85.1245,5.32976 85.7911,11.1631 86.5,17C 88.2139,22.9622 89.8806,28.7955 91.5,34.5C 91.5,35.1667 91.5,35.8333 91.5,36.5C 90.9106,40.9707 91.5772,44.9707 93.5,48.5C 96.2313,51.247 95.898,53.5803 92.5,55.5C 91.8333,55.5 91.5,55.8333 91.5,56.5C 89.7273,58.6002 89.394,60.9335 90.5,63.5C 91.7387,63.0576 92.7387,62.3909 93.5,61.5C 94.1499,61.1961 94.8165,60.8627 95.5,60.5C 96.4656,62.396 96.7989,64.396 96.5,66.5C 95.209,66.2627 94.209,66.596 93.5,67.5C 92.5318,69.6074 92.1984,71.9407 92.5,74.5C 93.791,74.7373 94.791,74.404 95.5,73.5C 96.8267,72.1999 98.16,70.8665 99.5,69.5C 100.474,71.7427 100.808,74.076 100.5,76.5C 96.9316,77.9692 96.5983,80.1358 99.5,83C 101.473,83.4955 103.473,83.6621 105.5,83.5C 105.733,85.0618 106.4,86.3951 107.5,87.5C 109.151,91.7648 110.485,96.0981 111.5,100.5C 112.038,102.117 112.371,103.784 112.5,105.5C 112.126,114.517 114.459,115.517 119.5,108.5C 120.117,108.389 120.617,108.056 121,107.5C 121.689,111.292 123.856,113.292 127.5,113.5C 127.5,118.167 127.5,122.833 127.5,127.5C 84.8333,127.5 42.1667,127.5 -0.5,127.5C -0.5,122.167 -0.5,116.833 -0.5,111.5C 4.52056,111.021 7.18723,108.354 7.5,103.5C 8.5,103.5 9.5,103.5 10.5,103.5C 9.93296,100.089 11.2663,98.0886 14.5,97.5C 20.0047,94.8288 19.6713,93.1622 13.5,92.5C 11.5853,92.7845 9.91866,92.4511 8.5,91.5C 8.5,91.1667 8.5,90.8333 8.5,90.5C 10.685,86.7868 12.3517,82.7868 13.5,78.5C 15.1993,78.5271 16.5326,79.1938 17.5,80.5C 19.438,84.1692 22.438,85.3359 26.5,84C 27.4506,83.2825 27.6172,82.4491 27,81.5C 24.9592,80.5769 22.7925,80.2436 20.5,80.5C 20.5,78.8333 20.5,77.1667 20.5,75.5C 22.1002,74.488 23.4335,74.988 24.5,77C 26.1341,77.4935 27.8008,77.6602 29.5,77.5C 29.938,73.0917 27.938,71.4251 23.5,72.5C 23.1043,69.9556 23.771,67.7889 25.5,66C 27.9141,67.2067 30.5807,67.54 33.5,67C 34.3802,65.6439 34.7135,64.1439 34.5,62.5C 32.0268,62.264 30.3601,60.9307 29.5,58.5C 29.6236,57.8933 29.9569,57.56 30.5,57.5C 31.3382,57.1583 31.6716,56.4916 31.5,55.5C 33.0109,56.5025 34.6776,57.1692 36.5,57.5C 37.2436,54.0504 35.9103,52.3838 32.5,52.5C 32.2865,50.8561 32.6198,49.3561 33.5,48C 36.0356,47.8138 38.369,47.3138 40.5,46.5C 41.5,46.1667 42.1667,45.5 42.5,44.5C 43.4959,44.5858 44.3292,44.2524 45,43.5C 45.8333,41.5 46.6667,39.5 47.5,37.5C 47.8333,38.3333 48.1667,39.1667 48.5,40C 46.6959,44.0177 46.1959,48.1843 47,52.5C 48.6487,53.9528 50.4821,54.9528 52.5,55.5C 51.5335,57.7918 50.8669,60.2918 50.5,63C 51.6912,65.8382 52.6912,68.6715 53.5,71.5C 53.8417,72.3382 54.5084,72.6716 55.5,72.5C 54.8902,73.391 54.5569,74.391 54.5,75.5C 53.6288,79.0212 52.7955,82.6879 52,86.5C 51,87.1667 50,87.8333 49,88.5C 47.4893,91.7961 46.3226,95.1294 45.5,98.5C 43.8996,100.571 43.3996,102.905 44,105.5C 46.9309,106.716 49.7642,108.05 52.5,109.5C 52.8333,110.5 53.5,111.167 54.5,111.5C 55.4363,112.974 56.7697,113.974 58.5,114.5C 62.2095,116.136 66.2095,116.802 70.5,116.5C 70.5,112.5 70.5,108.5 70.5,104.5C 73.9078,103.422 75.9078,101.089 76.5,97.5C 78.1417,99.0808 80.1417,99.7475 82.5,99.5C 82.6653,95.8183 82.4986,92.1516 82,88.5C 80.1717,88.3103 78.3384,87.9769 76.5,87.5C 75.6586,85.6208 75.3253,83.6208 75.5,81.5C 76.4511,80.0813 76.7845,78.4147 76.5,76.5C 77.1558,75.3784 77.4892,74.0451 77.5,72.5C 76.0769,66.1769 75.0769,59.8436 74.5,53.5C 73.5509,48.2599 73.2175,42.9265 73.5,37.5C 74.4959,37.5858 75.3292,37.2524 76,36.5C 76.4845,23.972 77.6511,11.6387 79.5,-0.5 Z"/></g>
<g><path style="opacity:1" fill="#fee594" d="M 65.5,-0.5 C 67.5,-0.5 69.5,-0.5 71.5,-0.5C 74.1106,8.25619 74.1106,16.9229 71.5,25.5C 72.014,19.1783 72.3473,12.845 72.5,6.5C 71.209,6.26269 70.209,6.59603 69.5,7.5C 68.4168,7.53944 67.4168,7.87277 66.5,8.5C 65.5159,5.57186 65.1826,2.57186 65.5,-0.5 Z"/></g>
<g><path style="opacity:1" fill="#fa9e1a" d="M 51.5,6.5 C 51.6938,10.7069 53.6938,12.0402 57.5,10.5C 58.4977,18.4723 58.831,26.4723 58.5,34.5C 58.2041,36.403 57.5375,38.0697 56.5,39.5C 56.9843,35.1726 56.3177,31.1726 54.5,27.5C 54.5394,26.4168 54.8728,25.4168 55.5,24.5C 55.0302,23.537 54.3635,23.537 53.5,24.5C 53.5654,24.0618 53.3988,23.7284 53,23.5C 52.2904,24.9733 51.1238,25.6399 49.5,25.5C 49.3718,21.1186 49.7051,16.7853 50.5,12.5C 50.2053,10.2646 50.5386,8.26465 51.5,6.5 Z"/></g>
<g><path style="opacity:1" fill="#f0b425" d="M 74.5,-0.5 C 76.1667,-0.5 77.8333,-0.5 79.5,-0.5C 77.6511,11.6387 76.4845,23.972 76,36.5C 75.3292,37.2524 74.4959,37.5858 73.5,37.5C 73.5537,27.9571 74.2204,18.4571 75.5,9C 75.4087,5.78264 75.0754,2.61597 74.5,-0.5 Z"/></g>
<g><path style="opacity:1" fill="#f29f84" d="M 95.5,-0.5 C 106.167,-0.5 116.833,-0.5 127.5,-0.5C 127.5,14.5 127.5,29.5 127.5,44.5C 126.206,43.7101 125.039,42.7101 124,41.5C 121.905,35.5424 119.239,29.8757 116,24.5C 114.301,23.5939 112.467,23.2606 110.5,23.5C 110.5,24.5 110.5,25.5 110.5,26.5C 111.5,26.5 112.5,26.5 113.5,26.5C 113.5,29.1667 113.5,31.8333 113.5,34.5C 113.038,31.3127 111.538,28.646 109,26.5C 109.043,21.8205 107.876,17.4871 105.5,13.5C 101.761,11.8771 99.7611,13.2104 99.5,17.5C 100.63,18.6223 101.297,19.9557 101.5,21.5C 100.542,21.0472 99.7083,20.3805 99,19.5C 97.4014,12.8121 96.2348,6.14545 95.5,-0.5 Z"/></g>
<g><path style="opacity:1" fill="#ee9466" d="M 46.5,7.5 C 46.7886,10.6492 46.2886,13.6492 45,16.5C 41.0251,19.474 37.3584,22.8073 34,26.5C 34.3825,29.2706 34.5492,31.9373 34.5,34.5C 32.2407,33.656 31.2407,31.9893 31.5,29.5C 33.213,25.0761 33.8796,20.4094 33.5,15.5C 34.5,15.5 35.5,15.5 36.5,15.5C 38.6848,13.2384 41.3515,11.7384 44.5,11C 45.0848,9.69762 45.7515,8.53095 46.5,7.5 Z"/></g>
<g><path style="opacity:1" fill="#fbc76c" d="M 59.5,-0.5 C 60.1667,-0.5 60.8333,-0.5 61.5,-0.5C 61.3342,4.17853 61.5008,8.8452 62,13.5C 62.9947,14.0659 63.828,14.7326 64.5,15.5C 64.5,16.5 64.5,17.5 64.5,18.5C 63.7321,19.2625 63.2321,20.2625 63,21.5C 62.5017,24.8168 62.335,28.1501 62.5,31.5C 62.1667,31.5 61.8333,31.5 61.5,31.5C 61.5,30.8333 61.5,30.1667 61.5,29.5C 59.9483,19.5728 59.2817,9.5728 59.5,-0.5 Z"/></g>
<g><path style="opacity:1" fill="#ed9a3b" d="M 84.5,-0.5 C 86.8333,-0.5 89.1667,-0.5 91.5,-0.5C 91.3359,2.1873 91.5026,4.85397 92,7.5C 94.2108,14.2154 96.0441,21.0488 97.5,28C 97.3613,29.301 96.6946,30.1344 95.5,30.5C 95.5189,26.6478 94.6855,22.9812 93,19.5C 92.6667,20.8333 92.3333,22.1667 92,23.5C 91.6667,22.8333 91.3333,22.1667 91,21.5C 90.3708,25.8706 90.5375,30.204 91.5,34.5C 89.8806,28.7955 88.2139,22.9622 86.5,17C 85.7911,11.1631 85.1245,5.32976 84.5,-0.5 Z"/></g>
<g><path style="opacity:1" fill="#1a0503" d="M 36.5,15.5 C 35.5,15.5 34.5,15.5 33.5,15.5C 33.8796,20.4094 33.213,25.0761 31.5,29.5C 30.5386,31.2646 30.2053,33.2646 30.5,35.5C 28.2776,35.178 26.4443,35.8446 25,37.5C 24.3918,35.9336 23.5585,34.6002 22.5,33.5C 22.8212,31.9519 23.8212,31.2852 25.5,31.5C 24.8828,23.4165 27.5495,16.7499 33.5,11.5C 35.2882,12.2826 36.2882,13.6159 36.5,15.5 Z"/></g>
<g><path style="opacity:1" fill="#f39c7a" d="M 39.5,-0.5 C 42.1667,-0.5 44.8333,-0.5 47.5,-0.5C 47.8064,2.38544 47.4731,5.0521 46.5,7.5C 45.7515,8.53095 45.0848,9.69762 44.5,11C 41.3515,11.7384 38.6848,13.2384 36.5,15.5C 36.2882,13.6159 35.2882,12.2826 33.5,11.5C 27.5495,16.7499 24.8828,23.4165 25.5,31.5C 23.8212,31.2852 22.8212,31.9519 22.5,33.5C 22.7678,35.099 22.4345,36.4324 21.5,37.5C 21.5,35.1667 21.5,32.8333 21.5,30.5C 22.5,30.5 23.5,30.5 24.5,30.5C 24.8076,28.076 24.4742,25.7427 23.5,23.5C 17.675,29.1234 11.8416,34.7901 6,40.5C 3.70621,45.9044 1.53954,51.2377 -0.5,56.5C -0.5,48.1667 -0.5,39.8333 -0.5,31.5C 0.5,31.5 1.5,31.5 2.5,31.5C 2.33982,29.8008 2.50649,28.1341 3,26.5C 5.66667,24.5 8.33333,22.5 11,20.5C 12.5695,16.3642 14.9028,12.6976 18,9.5C 18.3333,10.1667 18.6667,10.8333 19,11.5C 19.49,10.2068 19.6567,8.87344 19.5,7.5C 21.5922,7.56138 23.0922,8.56138 24,10.5C 25.3587,8.30779 27.1921,6.64113 29.5,5.5C 35.4286,7.54334 38.762,5.54334 39.5,-0.5 Z"/></g>
<g><path style="opacity:1" fill="#fff8d4" d="M 71.5,25.5 C 71.252,29.9062 70.5853,34.2396 69.5,38.5C 68.71,39.6085 68.21,40.9419 68,42.5C 67.3333,32.1667 67.3333,21.8333 68,11.5C 69.1882,10.4366 69.6882,9.10326 69.5,7.5C 70.209,6.59603 71.209,6.26269 72.5,6.5C 72.3473,12.845 72.014,19.1783 71.5,25.5 Z"/></g>
<g><path style="opacity:1" fill="#f79326" d="M 50.5,12.5 C 49.7051,16.7853 49.3718,21.1186 49.5,25.5C 51.1238,25.6399 52.2904,24.9733 53,23.5C 53.3988,23.7284 53.5654,24.0618 53.5,24.5C 52.9853,26.8945 52.3186,29.2278 51.5,31.5C 50.713,33.1042 49.3797,33.7709 47.5,33.5C 46.5041,33.5858 45.6708,33.2524 45,32.5C 44.6667,34.1667 44.3333,35.8333 44,37.5C 43.3076,36.9747 42.8076,36.3081 42.5,35.5C 43.8138,31.217 44.8138,26.8837 45.5,22.5C 47.0669,19.0741 48.7336,15.7408 50.5,12.5 Z"/></g>
<g><path style="opacity:1" fill="#eb955e" d="M 91.5,-0.5 C 92.8333,-0.5 94.1667,-0.5 95.5,-0.5C 96.2348,6.14545 97.4014,12.8121 99,19.5C 99.7083,20.3805 100.542,21.0472 101.5,21.5C 104.787,26.0504 103.787,29.3838 98.5,31.5C 97.209,31.2627 96.209,31.596 95.5,32.5C 94.1667,31.8333 94.1667,31.1667 95.5,30.5C 96.6946,30.1344 97.3613,29.301 97.5,28C 96.0441,21.0488 94.2108,14.2154 92,7.5C 91.5026,4.85397 91.3359,2.1873 91.5,-0.5 Z"/></g>
<g><path style="opacity:1" fill="#160401" d="M 113.5,34.5 C 114.124,34.9169 114.457,35.5836 114.5,36.5C 113.822,38.516 113.156,40.516 112.5,42.5C 110.218,43.3897 107.885,43.5564 105.5,43C 102.077,39.7621 99.7433,35.9287 98.5,31.5C 103.787,29.3838 104.787,26.0504 101.5,21.5C 101.297,19.9557 100.63,18.6223 99.5,17.5C 99.7611,13.2104 101.761,11.8771 105.5,13.5C 107.876,17.4871 109.043,21.8205 109,26.5C 111.538,28.646 113.038,31.3127 113.5,34.5 Z"/></g>
<g><path style="opacity:1" fill="#f79751" d="M 47.5,-0.5 C 48.8333,-0.5 50.1667,-0.5 51.5,-0.5C 51.5,1.83333 51.5,4.16667 51.5,6.5C 50.5386,8.26465 50.2053,10.2646 50.5,12.5C 48.7336,15.7408 47.0669,19.0741 45.5,22.5C 44.5902,24.0188 43.7568,25.6854 43,27.5C 40.9287,28.3639 39.262,29.6972 38,31.5C 37.6667,31.1667 37.3333,30.8333 37,30.5C 36.3918,32.0664 35.5585,33.3998 34.5,34.5C 34.5492,31.9373 34.3825,29.2706 34,26.5C 37.3584,22.8073 41.0251,19.474 45,16.5C 46.2886,13.6492 46.7886,10.6492 46.5,7.5C 47.4731,5.0521 47.8064,2.38544 47.5,-0.5 Z"/></g>
<g><path style="opacity:1" fill="#fbb231" d="M 51.5,-0.5 C 54.1667,-0.5 56.8333,-0.5 59.5,-0.5C 59.2817,9.5728 59.9483,19.5728 61.5,29.5C 60.3127,31.0725 59.3127,32.7392 58.5,34.5C 58.831,26.4723 58.4977,18.4723 57.5,10.5C 53.6938,12.0402 51.6938,10.7069 51.5,6.5C 51.5,4.16667 51.5,1.83333 51.5,-0.5 Z"/></g>
<g><path style="opacity:1" fill="#691d03" d="M 54.5,27.5 C 53.5489,28.9187 53.2155,30.5853 53.5,32.5C 52.8333,32.1667 52.1667,31.8333 51.5,31.5C 52.3186,29.2278 52.9853,26.8945 53.5,24.5C 54.3635,23.537 55.0302,23.537 55.5,24.5C 54.8728,25.4168 54.5394,26.4168 54.5,27.5 Z"/></g>
<g><path style="opacity:1" fill="#8e4000" d="M 64.5,18.5 C 64.4135,22.8566 64.0802,27.19 63.5,31.5C 63.1667,31.5 62.8333,31.5 62.5,31.5C 62.335,28.1501 62.5017,24.8168 63,21.5C 63.2321,20.2625 63.7321,19.2625 64.5,18.5 Z"/></g>
<g><path style="opacity:1" fill="#fef0b9" d="M 61.5,-0.5 C 62.8333,-0.5 64.1667,-0.5 65.5,-0.5C 65.1826,2.57186 65.5159,5.57186 66.5,8.5C 67.4168,7.87277 68.4168,7.53944 69.5,7.5C 69.6882,9.10326 69.1882,10.4366 68,11.5C 67.3333,21.8333 67.3333,32.1667 68,42.5C 68.21,40.9419 68.71,39.6085 69.5,38.5C 69.5,41.5 69.5,44.5 69.5,47.5C 68.5655,48.5676 68.2322,49.901 68.5,51.5C 67.7321,52.2625 67.2321,53.2625 67,54.5C 67.1517,41.128 66.3183,28.128 64.5,15.5C 63.828,14.7326 62.9947,14.0659 62,13.5C 61.5008,8.8452 61.3342,4.17853 61.5,-0.5 Z"/></g>
<g><path style="opacity:1" fill="#fdeb9a" d="M 64.5,15.5 C 66.3183,28.128 67.1517,41.128 67,54.5C 67.2321,53.2625 67.7321,52.2625 68.5,51.5C 68.6567,52.8734 68.49,54.2068 68,55.5C 67.2303,56.5981 66.397,56.5981 65.5,55.5C 66.1128,49.7291 65.4461,44.3958 63.5,39.5C 63.5,36.8333 63.5,34.1667 63.5,31.5C 64.0802,27.19 64.4135,22.8566 64.5,18.5C 64.5,17.5 64.5,16.5 64.5,15.5 Z"/></g>
<g><path style="opacity:1" fill="#f8942a" d="M 95.5,30.5 C 94.1667,31.1667 94.1667,31.8333 95.5,32.5C 97.2798,33.9899 97.9465,35.9899 97.5,38.5C 97.1949,40.9193 97.1949,43.586 97.5,46.5C 96.3951,47.6005 95.0618,48.2671 93.5,48.5C 92.8914,44.3953 92.2248,40.3953 91.5,36.5C 91.5,35.8333 91.5,35.1667 91.5,34.5C 90.5375,30.204 90.3708,25.8706 91,21.5C 91.3333,22.1667 91.6667,22.8333 92,23.5C 92.3333,22.1667 92.6667,20.8333 93,19.5C 94.6855,22.9812 95.5189,26.6478 95.5,30.5 Z"/></g>
<g><path style="opacity:1" fill="#ef8739" d="M 45.5,22.5 C 44.8138,26.8837 43.8138,31.217 42.5,35.5C 42.8076,36.3081 43.3076,36.9747 44,37.5C 44.3333,35.8333 44.6667,34.1667 45,32.5C 45.6708,33.2524 46.5041,33.5858 47.5,33.5C 45.5617,37.0432 43.8951,40.7099 42.5,44.5C 42.1667,45.5 41.5,46.1667 40.5,46.5C 39.5,46.5 38.5,46.5 37.5,46.5C 38.2071,43.2139 38.5405,39.8806 38.5,36.5C 37.791,35.596 36.791,35.2627 35.5,35.5C 34.8333,35.5 34.5,35.1667 34.5,34.5C 35.5585,33.3998 36.3918,32.0664 37,30.5C 37.3333,30.8333 37.6667,31.1667 38,31.5C 39.262,29.6972 40.9287,28.3639 43,27.5C 43.7568,25.6854 44.5902,24.0188 45.5,22.5 Z"/></g>
<g><path style="opacity:1" fill="#250c02" d="M 51.5,31.5 C 52.1667,31.8333 52.8333,32.1667 53.5,32.5C 51.4402,37.5835 49.4402,42.7501 47.5,48C 47.014,51.8871 48.6807,53.7204 52.5,53.5C 54.9327,53.7856 54.9327,54.4523 52.5,55.5C 50.4821,54.9528 48.6487,53.9528 47,52.5C 46.1959,48.1843 46.6959,44.0177 48.5,40C 48.1667,39.1667 47.8333,38.3333 47.5,37.5C 46.6667,39.5 45.8333,41.5 45,43.5C 44.3292,44.2524 43.4959,44.5858 42.5,44.5C 43.8951,40.7099 45.5617,37.0432 47.5,33.5C 49.3797,33.7709 50.713,33.1042 51.5,31.5 Z"/></g>
<g><path style="opacity:1" fill="#f39566" d="M 21.5,37.5 C 20.596,38.209 20.2627,39.209 20.5,40.5C 19.5416,40.0472 18.7083,39.3805 18,38.5C 8.58806,49.1677 3.08806,61.6677 1.5,76C 2.83333,80.6667 2.83333,85.3333 1.5,90C 3.4727,90.4955 5.4727,90.6621 7.5,90.5C 7.5,89.1667 7.5,87.8333 7.5,86.5C 8.43448,87.5676 8.76781,88.901 8.5,90.5C 8.5,90.8333 8.5,91.1667 8.5,91.5C 6.14316,91.3367 3.80982,91.5034 1.5,92C 0.934056,92.9947 0.267389,93.828 -0.5,94.5C -0.5,81.8333 -0.5,69.1667 -0.5,56.5C 1.53954,51.2377 3.70621,45.9044 6,40.5C 11.8416,34.7901 17.675,29.1234 23.5,23.5C 24.4742,25.7427 24.8076,28.076 24.5,30.5C 23.5,30.5 22.5,30.5 21.5,30.5C 21.5,32.8333 21.5,35.1667 21.5,37.5 Z"/></g>
<g><path style="opacity:1" fill="#3a0902" d="M 31.5,29.5 C 31.2407,31.9893 32.2407,33.656 34.5,34.5C 34.5,35.1667 34.8333,35.5 35.5,35.5C 36.3739,38.231 35.3739,40.3976 32.5,42C 29.7583,43.0704 27.2583,44.5704 25,46.5C 24.3292,45.7476 23.4959,45.4142 22.5,45.5C 22.6085,43.4862 21.9418,41.8195 20.5,40.5C 20.2627,39.209 20.596,38.209 21.5,37.5C 22.4345,36.4324 22.7678,35.099 22.5,33.5C 23.5585,34.6002 24.3918,35.9336 25,37.5C 26.4443,35.8446 28.2776,35.178 30.5,35.5C 30.2053,33.2646 30.5386,31.2646 31.5,29.5 Z"/></g>
<g><path style="opacity:1" fill="#5b0f04" d="M 35.5,35.5 C 36.791,35.2627 37.791,35.596 38.5,36.5C 37.7171,38.3432 37.0505,40.3432 36.5,42.5C 32.8077,43.69 29.8077,45.8566 27.5,49C 26.552,49.4828 25.552,49.6495 24.5,49.5C 23.8333,48.1667 23.1667,46.8333 22.5,45.5C 23.4959,45.4142 24.3292,45.7476 25,46.5C 27.2583,44.5704 29.7583,43.0704 32.5,42C 35.3739,40.3976 36.3739,38.231 35.5,35.5 Z"/></g>
<g><path style="opacity:1" fill="#f48615" d="M 54.5,27.5 C 56.3177,31.1726 56.9843,35.1726 56.5,39.5C 55.7328,44.3566 54.3995,49.0233 52.5,53.5C 48.6807,53.7204 47.014,51.8871 47.5,48C 49.4402,42.7501 51.4402,37.5835 53.5,32.5C 53.2155,30.5853 53.5489,28.9187 54.5,27.5 Z"/></g>
<g><path style="opacity:1" fill="#a45817" d="M 91.5,36.5 C 92.2248,40.3953 92.8914,44.3953 93.5,48.5C 91.5772,44.9707 90.9106,40.9707 91.5,36.5 Z"/></g>
<g><path style="opacity:1" fill="#f07310" d="M 61.5,31.5 C 61.8333,31.5 62.1667,31.5 62.5,31.5C 62.8333,31.5 63.1667,31.5 63.5,31.5C 63.5,34.1667 63.5,36.8333 63.5,39.5C 63.5,40.5 63.5,41.5 63.5,42.5C 63.2426,46.8917 62.5759,51.225 61.5,55.5C 60.5046,49.8722 60.1712,44.2055 60.5,38.5C 60.6741,36.139 61.0074,33.8056 61.5,31.5 Z"/></g>
<g><path style="opacity:1" fill="#fcdd66" d="M 61.5,29.5 C 61.5,30.1667 61.5,30.8333 61.5,31.5C 61.0074,33.8056 60.6741,36.139 60.5,38.5C 59.5489,39.9187 59.2155,41.5853 59.5,43.5C 57.9152,45.8307 56.7486,48.4974 56,51.5C 55.5004,58.4921 55.3337,65.4921 55.5,72.5C 54.5084,72.6716 53.8417,72.3382 53.5,71.5C 53.0199,66.1779 52.6865,60.8446 52.5,55.5C 54.9327,54.4523 54.9327,53.7856 52.5,53.5C 54.3995,49.0233 55.7328,44.3566 56.5,39.5C 57.5375,38.0697 58.2041,36.403 58.5,34.5C 59.3127,32.7392 60.3127,31.0725 61.5,29.5 Z"/></g>
<g><path style="opacity:1" fill="#310901" d="M 95.5,32.5 C 96.209,31.596 97.209,31.2627 98.5,31.5C 99.7433,35.9287 102.077,39.7621 105.5,43C 107.885,43.5564 110.218,43.3897 112.5,42.5C 111.008,45.3789 111.341,48.0456 113.5,50.5C 114.228,47.7875 115.061,45.1209 116,42.5C 116.667,41.1667 117.333,41.1667 118,42.5C 117.84,46.837 117.34,51.1703 116.5,55.5C 118.903,55.607 120.736,54.607 122,52.5C 122.805,55.6965 122.638,58.6965 121.5,61.5C 118.984,61.2447 116.65,60.4114 114.5,59C 112.195,55.551 110.028,52.051 108,48.5C 106.829,47.1068 105.329,46.2735 103.5,46C 102.418,43.3129 100.751,41.1462 98.5,39.5C 97.8333,39.5 97.5,39.1667 97.5,38.5C 97.9465,35.9899 97.2798,33.9899 95.5,32.5 Z"/></g>
<g><path style="opacity:1" fill="#ed966f" d="M 127.5,44.5 C 127.5,55.1667 127.5,65.8333 127.5,76.5C 124.944,76.8678 122.944,76.0345 121.5,74C 123.27,72.1744 124.603,70.0077 125.5,67.5C 121.191,67.223 119.858,65.223 121.5,61.5C 122.638,58.6965 122.805,55.6965 122,52.5C 120.736,54.607 118.903,55.607 116.5,55.5C 117.34,51.1703 117.84,46.837 118,42.5C 117.333,41.1667 116.667,41.1667 116,42.5C 115.061,45.1209 114.228,47.7875 113.5,50.5C 111.341,48.0456 111.008,45.3789 112.5,42.5C 113.156,40.516 113.822,38.516 114.5,36.5C 114.457,35.5836 114.124,34.9169 113.5,34.5C 113.5,31.8333 113.5,29.1667 113.5,26.5C 112.5,26.5 111.5,26.5 110.5,26.5C 110.5,25.5 110.5,24.5 110.5,23.5C 112.467,23.2606 114.301,23.5939 116,24.5C 119.239,29.8757 121.905,35.5424 124,41.5C 125.039,42.7101 126.206,43.7101 127.5,44.5 Z"/></g>
<g><path style="opacity:1" fill="#d93312" d="M 107.5,87.5 C 106.4,86.3951 105.733,85.0618 105.5,83.5C 100.304,83.6412 98.637,81.3079 100.5,76.5C 100.808,74.076 100.474,71.7427 99.5,69.5C 98.16,70.8665 96.8267,72.1999 95.5,73.5C 93.6921,72.0821 93.0254,70.0821 93.5,67.5C 94.8333,67.5 96.1667,67.5 97.5,67.5C 97.8204,64.1016 97.487,60.7683 96.5,57.5C 94.7118,58.2826 93.7118,59.6159 93.5,61.5C 91.744,60.4479 91.0773,58.7812 91.5,56.5C 91.5,55.8333 91.8333,55.5 92.5,55.5C 94.451,55.7733 95.951,55.1066 97,53.5C 99.6799,55.8756 101.013,58.8756 101,62.5C 103.345,64.5136 105.345,66.847 107,69.5C 108.8,75.3684 109.967,81.3684 110.5,87.5C 109.5,87.5 108.5,87.5 107.5,87.5 Z"/></g>
<g><path style="opacity:1" fill="#f48c53" d="M 20.5,40.5 C 21.9418,41.8195 22.6085,43.4862 22.5,45.5C 23.1667,46.8333 23.8333,48.1667 24.5,49.5C 24.5,50.8333 24.5,52.1667 24.5,53.5C 23.5,53.5 22.5,53.5 21.5,53.5C 21.313,51.4357 20.813,49.4357 20,47.5C 17.9455,46.505 16.7788,47.3384 16.5,50C 17.8001,52.4373 18.8001,54.9373 19.5,57.5C 17.2776,57.822 15.4443,57.1554 14,55.5C 13.8333,56.8333 13.6667,58.1667 13.5,59.5C 13.5854,61.3328 14.2521,62.6661 15.5,63.5C 16.2341,64.7079 16.5674,66.0413 16.5,67.5C 14.1667,67.5 11.8333,67.5 9.5,67.5C 9.5,69.5 9.5,71.5 9.5,73.5C 11.5648,73.5172 13.5648,73.8505 15.5,74.5C 15.5,75.5 15.5,76.5 15.5,77.5C 12.8333,77.5 10.1667,77.5 7.5,77.5C 7.11787,80.6463 7.11787,83.6463 7.5,86.5C 7.5,87.8333 7.5,89.1667 7.5,90.5C 5.4727,90.6621 3.4727,90.4955 1.5,90C 2.83333,85.3333 2.83333,80.6667 1.5,76C 3.08806,61.6677 8.58806,49.1677 18,38.5C 18.7083,39.3805 19.5416,40.0472 20.5,40.5 Z"/></g>
<g><path style="opacity:1" fill="#741807" d="M 38.5,36.5 C 38.5405,39.8806 38.2071,43.2139 37.5,46.5C 38.5,46.5 39.5,46.5 40.5,46.5C 38.369,47.3138 36.0356,47.8138 33.5,48C 32.6198,49.3561 32.2865,50.8561 32.5,52.5C 35.9103,52.3838 37.2436,54.0504 36.5,57.5C 34.6776,57.1692 33.0109,56.5025 31.5,55.5C 31.7692,53.5714 31.2692,51.9047 30,50.5C 25.9991,54.0049 22.4991,58.0049 19.5,62.5C 18.3112,63.4287 16.9778,63.762 15.5,63.5C 14.2521,62.6661 13.5854,61.3328 13.5,59.5C 13.6667,58.1667 13.8333,56.8333 14,55.5C 15.4443,57.1554 17.2776,57.822 19.5,57.5C 18.8001,54.9373 17.8001,52.4373 16.5,50C 16.7788,47.3384 17.9455,46.505 20,47.5C 20.813,49.4357 21.313,51.4357 21.5,53.5C 22.5,53.5 23.5,53.5 24.5,53.5C 24.5,52.1667 24.5,50.8333 24.5,49.5C 25.552,49.6495 26.552,49.4828 27.5,49C 29.8077,45.8566 32.8077,43.69 36.5,42.5C 37.0505,40.3432 37.7171,38.3432 38.5,36.5 Z"/></g>
<g><path style="opacity:1" fill="#f5960d" d="M 60.5,38.5 C 60.1712,44.2055 60.5046,49.8722 61.5,55.5C 62.5759,51.225 63.2426,46.8917 63.5,42.5C 64.5817,48.0099 64.5817,53.6765 63.5,59.5C 62.2876,60.2299 61.2876,61.2299 60.5,62.5C 59.5078,58.2172 59.1744,53.8839 59.5,49.5C 59.5,47.5 59.5,45.5 59.5,43.5C 59.2155,41.5853 59.5489,39.9187 60.5,38.5 Z"/></g>
<g><path style="opacity:1" fill="#872c18" d="M 91.5,56.5 C 91.0773,58.7812 91.744,60.4479 93.5,61.5C 92.7387,62.3909 91.7387,63.0576 90.5,63.5C 89.394,60.9335 89.7273,58.6002 91.5,56.5 Z"/></g>
<g><path style="opacity:1" fill="#6a190f" d="M 93.5,67.5 C 94.209,66.596 95.209,66.2627 96.5,66.5C 96.7989,64.396 96.4656,62.396 95.5,60.5C 94.8165,60.8627 94.1499,61.1961 93.5,61.5C 93.7118,59.6159 94.7118,58.2826 96.5,57.5C 97.487,60.7683 97.8204,64.1016 97.5,67.5C 96.1667,67.5 94.8333,67.5 93.5,67.5 Z"/></g>
<g><path style="opacity:1" fill="#961e07" d="M 31.5,55.5 C 31.6716,56.4916 31.3382,57.1583 30.5,57.5C 30.6602,55.8008 30.4935,54.1341 30,52.5C 28.3917,56.0427 26.0584,59.0427 23,61.5C 20.876,65.2969 19.2093,69.2969 18,73.5C 17.3292,74.2524 16.4959,74.5858 15.5,74.5C 13.5648,73.8505 11.5648,73.5172 9.5,73.5C 9.5,71.5 9.5,69.5 9.5,67.5C 11.8333,67.5 14.1667,67.5 16.5,67.5C 16.5674,66.0413 16.2341,64.7079 15.5,63.5C 16.9778,63.762 18.3112,63.4287 19.5,62.5C 22.4991,58.0049 25.9991,54.0049 30,50.5C 31.2692,51.9047 31.7692,53.5714 31.5,55.5 Z"/></g>
<g><path style="opacity:1" fill="#e0c577" d="M 52.5,55.5 C 52.6865,60.8446 53.0199,66.1779 53.5,71.5C 52.6912,68.6715 51.6912,65.8382 50.5,63C 50.8669,60.2918 51.5335,57.7918 52.5,55.5 Z"/></g>
<g><path style="opacity:1" fill="#fada4a" d="M 63.5,39.5 C 65.4461,44.3958 66.1128,49.7291 65.5,55.5C 64.9724,74.3023 61.3058,92.6356 54.5,110.5C 54.5,110.833 54.5,111.167 54.5,111.5C 53.5,111.167 52.8333,110.5 52.5,109.5C 52.1667,108.833 51.8333,108.167 51.5,107.5C 52.3383,104.487 53.8383,101.82 56,99.5C 56.3386,96.1204 56.8386,92.7871 57.5,89.5C 59.3764,86.2631 59.7097,82.9298 58.5,79.5C 60.6723,72.9756 62.339,66.3089 63.5,59.5C 64.5817,53.6765 64.5817,48.0099 63.5,42.5C 63.5,41.5 63.5,40.5 63.5,39.5 Z"/></g>
<g><path style="opacity:1" fill="#fde148" d="M 59.5,43.5 C 59.5,45.5 59.5,47.5 59.5,49.5C 58.2023,59.3277 57.2023,69.3277 56.5,79.5C 56.5386,80.7562 56.0386,81.7562 55,82.5C 54.5034,80.1902 54.3367,77.8568 54.5,75.5C 54.5569,74.391 54.8902,73.391 55.5,72.5C 55.3337,65.4921 55.5004,58.4921 56,51.5C 56.7486,48.4974 57.9152,45.8307 59.5,43.5 Z"/></g>
<g><path style="opacity:1" fill="#fef4a4" d="M 71.5,64.5 C 72.7196,66.2821 73.3862,68.2821 73.5,70.5C 71.3379,70.1028 70.0046,68.7695 69.5,66.5C 68.8182,67.2427 68.1515,67.9094 67.5,68.5C 67.6553,65.3908 68.3219,62.3908 69.5,59.5C 70.1698,61.2914 70.8365,62.9581 71.5,64.5 Z"/></g>
<g><path style="opacity:1" fill="#bd2e12" d="M 30.5,57.5 C 29.9569,57.56 29.6236,57.8933 29.5,58.5C 30.3601,60.9307 32.0268,62.264 34.5,62.5C 34.7135,64.1439 34.3802,65.6439 33.5,67C 30.5807,67.54 27.9141,67.2067 25.5,66C 23.771,67.7889 23.1043,69.9556 23.5,72.5C 27.938,71.4251 29.938,73.0917 29.5,77.5C 27.8008,77.6602 26.1341,77.4935 24.5,77C 23.4335,74.988 22.1002,74.488 20.5,75.5C 20.0276,77.5313 19.0276,79.1979 17.5,80.5C 17.7148,78.8212 17.0481,77.8212 15.5,77.5C 15.5,76.5 15.5,75.5 15.5,74.5C 16.4959,74.5858 17.3292,74.2524 18,73.5C 19.2093,69.2969 20.876,65.2969 23,61.5C 26.0584,59.0427 28.3917,56.0427 30,52.5C 30.4935,54.1341 30.6602,55.8008 30.5,57.5 Z"/></g>
<g><path style="opacity:1" fill="#963e27" d="M 93.5,67.5 C 93.0254,70.0821 93.6921,72.0821 95.5,73.5C 94.791,74.404 93.791,74.7373 92.5,74.5C 92.1984,71.9407 92.5318,69.6074 93.5,67.5 Z"/></g>
<g><path style="opacity:1" fill="#f7b81f" d="M 59.5,49.5 C 59.1744,53.8839 59.5078,58.2172 60.5,62.5C 61.2876,61.2299 62.2876,60.2299 63.5,59.5C 62.339,66.3089 60.6723,72.9756 58.5,79.5C 57.8333,79.5 57.1667,79.5 56.5,79.5C 57.2023,69.3277 58.2023,59.3277 59.5,49.5 Z"/></g>
<g><path style="opacity:1" fill="#c26b0f" d="M 74.5,53.5 C 75.0769,59.8436 76.0769,66.1769 77.5,72.5C 77.4892,74.0451 77.1558,75.3784 76.5,76.5C 76.2041,74.597 75.5375,72.9303 74.5,71.5C 74.5,65.5 74.5,59.5 74.5,53.5 Z"/></g>
<g><path style="opacity:1" fill="#651203" d="M 97.5,38.5 C 97.5,39.1667 97.8333,39.5 98.5,39.5C 99.4987,43.1421 100.665,46.8088 102,50.5C 105.58,54.3105 109.58,57.6438 114,60.5C 119.262,74.269 120.929,88.6023 119,103.5C 118.802,105.382 118.302,107.048 117.5,108.5C 119.948,94.665 118.614,81.3316 113.5,68.5C 109.954,62.7023 105.954,57.369 101.5,52.5C 99.3703,51.0359 98.037,49.0359 97.5,46.5C 97.1949,43.586 97.1949,40.9193 97.5,38.5 Z"/></g>
<g><path style="opacity:1" fill="#eebd4e" d="M 74.5,71.5 C 75.5375,72.9303 76.2041,74.597 76.5,76.5C 76.7845,78.4147 76.4511,80.0813 75.5,81.5C 74.6758,78.2356 74.3424,74.9023 74.5,71.5 Z"/></g>
<g><path style="opacity:1" fill="#91311b" d="M 100.5,76.5 C 98.637,81.3079 100.304,83.6412 105.5,83.5C 103.473,83.6621 101.473,83.4955 99.5,83C 96.5983,80.1358 96.9316,77.9692 100.5,76.5 Z"/></g>
<g><path style="opacity:1" fill="#731b0a" d="M 15.5,77.5 C 17.0481,77.8212 17.7148,78.8212 17.5,80.5C 16.5326,79.1938 15.1993,78.5271 13.5,78.5C 12.3517,82.7868 10.685,86.7868 8.5,90.5C 8.76781,88.901 8.43448,87.5676 7.5,86.5C 7.11787,83.6463 7.11787,80.6463 7.5,77.5C 10.1667,77.5 12.8333,77.5 15.5,77.5 Z"/></g>
<g><path style="opacity:1" fill="#db8c67" d="M 127.5,79.5 C 127.5,80.8333 127.5,82.1667 127.5,83.5C 126.5,83.5 125.5,83.5 124.5,83.5C 123.046,80.6001 124.046,79.2668 127.5,79.5 Z"/></g>
<g><path style="opacity:1" fill="#b74931" d="M 20.5,75.5 C 20.5,77.1667 20.5,78.8333 20.5,80.5C 22.7925,80.2436 24.9592,80.5769 27,81.5C 27.6172,82.4491 27.4506,83.2825 26.5,84C 22.438,85.3359 19.438,84.1692 17.5,80.5C 19.0276,79.1979 20.0276,77.5313 20.5,75.5 Z"/></g>
<g><path style="opacity:1" fill="#a41f0a" d="M 97.5,46.5 C 98.037,49.0359 99.3703,51.0359 101.5,52.5C 101.195,56.227 102.695,58.8937 106,60.5C 109.768,67.7946 112.768,75.4613 115,83.5C 115.831,89.8595 115.664,96.1928 114.5,102.5C 113.482,101.807 112.482,101.141 111.5,100.5C 110.485,96.0981 109.151,91.7648 107.5,87.5C 108.5,87.5 109.5,87.5 110.5,87.5C 109.967,81.3684 108.8,75.3684 107,69.5C 105.345,66.847 103.345,64.5136 101,62.5C 101.013,58.8756 99.6799,55.8756 97,53.5C 95.951,55.1066 94.451,55.7733 92.5,55.5C 95.898,53.5803 96.2313,51.247 93.5,48.5C 95.0618,48.2671 96.3951,47.6005 97.5,46.5 Z"/></g>
<g><path style="opacity:1" fill="#fcf0a7" d="M 67.5,71.5 C 67.1667,74.1667 66.8333,76.8333 66.5,79.5C 65.9375,84.9105 64.9375,90.2439 63.5,95.5C 63.7888,88.8223 64.2888,82.1556 65,75.5C 65.1216,73.563 65.955,72.2297 67.5,71.5 Z"/></g>
<g><path style="opacity:1" fill="#811706" d="M 101.5,52.5 C 105.954,57.369 109.954,62.7023 113.5,68.5C 118.614,81.3316 119.948,94.665 117.5,108.5C 116.732,107.737 116.232,106.737 116,105.5C 115.03,111.857 113.864,111.857 112.5,105.5C 112.371,103.784 112.038,102.117 111.5,100.5C 112.482,101.141 113.482,101.807 114.5,102.5C 115.664,96.1928 115.831,89.8595 115,83.5C 112.768,75.4613 109.768,67.7946 106,60.5C 102.695,58.8937 101.195,56.227 101.5,52.5 Z"/></g>
<g><path style="opacity:1" fill="#4d0e05" d="M 98.5,39.5 C 100.751,41.1462 102.418,43.3129 103.5,46C 105.329,46.2735 106.829,47.1068 108,48.5C 110.028,52.051 112.195,55.551 114.5,59C 116.65,60.4114 118.984,61.2447 121.5,61.5C 119.858,65.223 121.191,67.223 125.5,67.5C 124.603,70.0077 123.27,72.1744 121.5,74C 122.944,76.0345 124.944,76.8678 127.5,76.5C 127.5,77.5 127.5,78.5 127.5,79.5C 124.046,79.2668 123.046,80.6001 124.5,83.5C 123.701,90.7544 123.201,98.0877 123,105.5C 121.271,105.974 120.105,106.974 119.5,108.5C 114.459,115.517 112.126,114.517 112.5,105.5C 113.864,111.857 115.03,111.857 116,105.5C 116.232,106.737 116.732,107.737 117.5,108.5C 118.302,107.048 118.802,105.382 119,103.5C 120.929,88.6023 119.262,74.269 114,60.5C 109.58,57.6438 105.58,54.3105 102,50.5C 100.665,46.8088 99.4987,43.1421 98.5,39.5 Z"/></g>
<g><path style="opacity:1" fill="#5a190f" d="M 8.5,91.5 C 9.91866,92.4511 11.5853,92.7845 13.5,92.5C 12.4324,93.4345 11.099,93.7678 9.5,93.5C 9.33982,95.1992 9.50649,96.8659 10,98.5C 11.3561,97.6198 12.8561,97.2865 14.5,97.5C 11.2663,98.0886 9.93296,100.089 10.5,103.5C 9.5,103.5 8.5,103.5 7.5,103.5C 5.83333,103.5 4.16667,103.5 2.5,103.5C 3.30071,101.958 3.63404,100.292 3.5,98.5C 2.04125,98.4326 0.707917,98.7659 -0.5,99.5C -0.5,97.8333 -0.5,96.1667 -0.5,94.5C 0.267389,93.828 0.934056,92.9947 1.5,92C 3.80982,91.5034 6.14316,91.3367 8.5,91.5 Z"/></g>
<g><path style="opacity:1" fill="#deb79b" d="M 38.5,92.5 C 39.8333,92.5 41.1667,92.5 42.5,92.5C 42.9492,94.9775 42.2825,96.9775 40.5,98.5C 38.7175,96.9775 38.0508,94.9775 38.5,92.5 Z"/></g>
<g><path style="opacity:1" fill="#fefce4" d="M 69.5,103.5 C 68.6704,95.0097 68.1704,86.343 68,77.5C 67.7216,78.4158 67.2216,79.0825 66.5,79.5C 66.8333,76.8333 67.1667,74.1667 67.5,71.5C 68.2216,71.0825 68.7216,70.4158 69,69.5C 69.1764,72.8818 69.6764,76.2152 70.5,79.5C 71.3184,76.8929 71.8184,74.2263 72,71.5C 72.3097,77.2806 73.143,82.9473 74.5,88.5C 74.3333,90.1667 74.1667,91.8333 74,93.5C 72.8869,92.2889 71.7202,92.2889 70.5,93.5C 69.513,96.7683 69.1796,100.102 69.5,103.5 Z"/></g>
<g><path style="opacity:1" fill="#fbb119" d="M 76.5,89.5 C 78.1667,89.5 79.8333,89.5 81.5,89.5C 81.5,92.1667 81.5,94.8333 81.5,97.5C 80.0413,97.5674 78.7079,97.2341 77.5,96.5C 77.3259,94.139 76.9926,91.8056 76.5,89.5 Z"/></g>
<g><path style="opacity:1" fill="#e29f3b" d="M 76.5,87.5 C 78.3384,87.9769 80.1717,88.3103 82,88.5C 82.4986,92.1516 82.6653,95.8183 82.5,99.5C 80.1417,99.7475 78.1417,99.0808 76.5,97.5C 76.5,96.8333 76.8333,96.5 77.5,96.5C 78.7079,97.2341 80.0413,97.5674 81.5,97.5C 81.5,94.8333 81.5,92.1667 81.5,89.5C 79.8333,89.5 78.1667,89.5 76.5,89.5C 76.5,88.8333 76.5,88.1667 76.5,87.5 Z"/></g>
<g><path style="opacity:1" fill="#9b3c27" d="M 13.5,92.5 C 19.6713,93.1622 20.0047,94.8288 14.5,97.5C 12.8561,97.2865 11.3561,97.6198 10,98.5C 9.50649,96.8659 9.33982,95.1992 9.5,93.5C 11.099,93.7678 12.4324,93.4345 13.5,92.5 Z"/></g>
<g><path style="opacity:1" fill="#fdee6c" d="M 69.5,47.5 C 70.3098,53.1459 70.9765,58.8126 71.5,64.5C 70.8365,62.9581 70.1698,61.2914 69.5,59.5C 68.3219,62.3908 67.6553,65.3908 67.5,68.5C 67.5,69.5 67.5,70.5 67.5,71.5C 65.955,72.2297 65.1216,73.563 65,75.5C 64.2888,82.1556 63.7888,88.8223 63.5,95.5C 63.5,96.1667 63.5,96.8333 63.5,97.5C 62.2921,98.2341 60.9587,98.5674 59.5,98.5C 59.9311,103.555 58.2644,107.555 54.5,110.5C 61.3058,92.6356 64.9724,74.3023 65.5,55.5C 66.397,56.5981 67.2303,56.5981 68,55.5C 68.49,54.2068 68.6567,52.8734 68.5,51.5C 68.2322,49.901 68.5655,48.5676 69.5,47.5 Z"/></g>
<g><path style="opacity:1" fill="#f9f1b3" d="M 73.5,70.5 C 73.5,71.1667 73.8333,71.5 74.5,71.5C 74.3424,74.9023 74.6758,78.2356 75.5,81.5C 75.3253,83.6208 75.6586,85.6208 76.5,87.5C 76.5,88.1667 76.5,88.8333 76.5,89.5C 76.9926,91.8056 77.3259,94.139 77.5,96.5C 76.8333,96.5 76.5,96.8333 76.5,97.5C 75.9078,101.089 73.9078,103.422 70.5,104.5C 69.8333,104.5 69.5,104.167 69.5,103.5C 69.1796,100.102 69.513,96.7683 70.5,93.5C 71.7202,92.2889 72.8869,92.2889 74,93.5C 74.1667,91.8333 74.3333,90.1667 74.5,88.5C 73.143,82.9473 72.3097,77.2806 72,71.5C 71.8184,74.2263 71.3184,76.8929 70.5,79.5C 69.6764,76.2152 69.1764,72.8818 69,69.5C 68.7216,70.4158 68.2216,71.0825 67.5,71.5C 67.5,70.5 67.5,69.5 67.5,68.5C 68.1515,67.9094 68.8182,67.2427 69.5,66.5C 70.0046,68.7695 71.3379,70.1028 73.5,70.5 Z"/></g>
<g><path style="opacity:1" fill="#f9f8f0" d="M 69.5,103.5 C 69.5,104.167 69.8333,104.5 70.5,104.5C 70.5,108.5 70.5,112.5 70.5,116.5C 66.2095,116.802 62.2095,116.136 58.5,114.5C 59.5585,113.4 60.3918,112.066 61,110.5C 61.4198,106.048 62.2532,101.715 63.5,97.5C 63.5,96.8333 63.5,96.1667 63.5,95.5C 64.9375,90.2439 65.9375,84.9105 66.5,79.5C 67.2216,79.0825 67.7216,78.4158 68,77.5C 68.1704,86.343 68.6704,95.0097 69.5,103.5 Z"/></g>
<g><path style="opacity:1" fill="#e59e7f" d="M 2.5,103.5 C 1.5,104.833 0.5,106.167 -0.5,107.5C -0.5,104.833 -0.5,102.167 -0.5,99.5C 0.707917,98.7659 2.04125,98.4326 3.5,98.5C 3.63404,100.292 3.30071,101.958 2.5,103.5 Z"/></g>
<g><path style="opacity:1" fill="#e1af54" d="M 45.5,98.5 C 46.397,99.5981 47.2303,99.5981 48,98.5C 48.1816,101.226 48.6816,103.893 49.5,106.5C 50.1835,106.863 50.8501,107.196 51.5,107.5C 51.8333,108.167 52.1667,108.833 52.5,109.5C 49.7642,108.05 46.9309,106.716 44,105.5C 43.3996,102.905 43.8996,100.571 45.5,98.5 Z"/></g>
<g><path style="opacity:1" fill="#fbeb8c" d="M 54.5,75.5 C 54.3367,77.8568 54.5034,80.1902 55,82.5C 56.0386,81.7562 56.5386,80.7562 56.5,79.5C 57.1667,79.5 57.8333,79.5 58.5,79.5C 59.7097,82.9298 59.3764,86.2631 57.5,89.5C 56.8386,92.7871 56.3386,96.1204 56,99.5C 53.8383,101.82 52.3383,104.487 51.5,107.5C 50.8501,107.196 50.1835,106.863 49.5,106.5C 48.6816,103.893 48.1816,101.226 48,98.5C 47.2303,99.5981 46.397,99.5981 45.5,98.5C 46.3226,95.1294 47.4893,91.7961 49,88.5C 50,87.8333 51,87.1667 52,86.5C 52.7955,82.6879 53.6288,79.0212 54.5,75.5 Z"/></g>
<g><path style="opacity:1" fill="#fef4c0" d="M 57.5,89.5 C 55.4149,92.1194 53.9149,95.1194 53,98.5C 51.9887,99.3366 50.8221,99.67 49.5,99.5C 49.3398,97.8008 49.5065,96.1341 50,94.5C 52.4356,91.6901 54.6023,88.6901 56.5,85.5C 57.4287,86.6888 57.762,88.0222 57.5,89.5 Z"/></g>
<g><path style="opacity:1" fill="#350d07" d="M 124.5,83.5 C 125.5,83.5 126.5,83.5 127.5,83.5C 127.5,93.5 127.5,103.5 127.5,113.5C 123.856,113.292 121.689,111.292 121,107.5C 120.617,108.056 120.117,108.389 119.5,108.5C 120.105,106.974 121.271,105.974 123,105.5C 123.201,98.0877 123.701,90.7544 124.5,83.5 Z"/></g>
<g><path style="opacity:1" fill="#3a1914" d="M 2.5,103.5 C 4.16667,103.5 5.83333,103.5 7.5,103.5C 7.18723,108.354 4.52056,111.021 -0.5,111.5C -0.5,110.167 -0.5,108.833 -0.5,107.5C 0.5,106.167 1.5,104.833 2.5,103.5 Z"/></g>
<g><path style="opacity:1" fill="#fbf39a" d="M 63.5,97.5 C 62.2532,101.715 61.4198,106.048 61,110.5C 60.3918,112.066 59.5585,113.4 58.5,114.5C 56.7697,113.974 55.4363,112.974 54.5,111.5C 54.5,111.167 54.5,110.833 54.5,110.5C 58.2644,107.555 59.9311,103.555 59.5,98.5C 60.9587,98.5674 62.2921,98.2341 63.5,97.5 Z"/></g>
</svg>
