<?xml version="1.0" encoding="UTF-8"?>
<!DOCTYPE svg PUBLIC "-//W3C//DTD SVG 1.1//EN" "http://www.w3.org/Graphics/SVG/1.1/DTD/svg11.dtd">
<svg xmlns="http://www.w3.org/2000/svg" version="1.1" width="128px" height="128px" style="shape-rendering:geometricPrecision; text-rendering:geometricPrecision; image-rendering:optimizeQuality; fill-rule:evenodd; clip-rule:evenodd" xmlns:xlink="http://www.w3.org/1999/xlink">
<g><path style="opacity:1" fill="#35a7f9" d="M 107.5,-0.5 C 110.5,-0.5 113.5,-0.5 116.5,-0.5C 116.316,2.47709 116.316,5.14376 116.5,7.5C 115.739,8.39092 114.739,9.05758 113.5,9.5C 112.513,12.7683 112.18,16.1016 112.5,19.5C 111.691,17.7078 111.191,15.7078 111,13.5C 109.887,14.305 108.721,14.9717 107.5,15.5C 107.5,13.5 107.5,11.5 107.5,9.5C 108.048,7.60638 109.048,5.93972 110.5,4.5C 109.006,3.09532 108.006,1.42866 107.5,-0.5 Z"/></g>
<g><path style="opacity:1" fill="#55b4f8" d="M 116.5,-0.5 C 120.167,-0.5 123.833,-0.5 127.5,-0.5C 127.5,4.16667 127.5,8.83333 127.5,13.5C 125.852,11.5707 124.185,9.57073 122.5,7.5C 120.54,6.48083 118.54,6.48083 116.5,7.5C 116.316,5.14376 116.316,2.47709 116.5,-0.5 Z"/></g>
<g><path style="opacity:1" fill="#69b9f6" d="M -0.5,-0.5 C 5.83333,-0.5 12.1667,-0.5 18.5,-0.5C 18.0557,1.11318 17.0557,2.27985 15.5,3C 16.6405,3.74117 16.6405,4.57451 15.5,5.5C 13.8917,6.31844 12.2251,6.9851 10.5,7.5C 9.88494,10.4362 8.71827,13.1029 7,15.5C 6.62562,17.898 6.62562,20.2313 7,22.5C 6.58605,22.9574 6.08605,23.2907 5.5,23.5C 4.71893,22.2713 4.21893,20.938 4,19.5C 3.09216,21.4386 1.59216,22.4386 -0.5,22.5C -0.5,14.8333 -0.5,7.16667 -0.5,-0.5 Z"/></g>
<g><path style="opacity:1" fill="#5dc6f4" d="M 93.5,-0.5 C 95.1667,-0.5 96.8333,-0.5 98.5,-0.5C 98.7471,2.93869 98.4137,6.27203 97.5,9.5C 95.8958,10.287 95.2291,11.6203 95.5,13.5C 93.8793,13.2131 92.8793,12.2131 92.5,10.5C 93.7349,8.68367 93.7349,7.017 92.5,5.5C 93.1495,3.56475 93.4828,1.56475 93.5,-0.5 Z"/></g>
<g><path style="opacity:1" fill="#42baf8" d="M 89.5,-0.5 C 90.8333,-0.5 92.1667,-0.5 93.5,-0.5C 93.4828,1.56475 93.1495,3.56475 92.5,5.5C 90.7601,7.97422 89.2601,10.6409 88,13.5C 85.6614,14.5569 83.4948,15.8903 81.5,17.5C 81.1667,19.1667 80.8333,20.8333 80.5,22.5C 80.5561,24.6397 81.2227,26.3064 82.5,27.5C 81.791,28.404 80.791,28.7373 79.5,28.5C 79.3342,23.8215 79.5008,19.1548 80,14.5C 82.2379,12.6909 83.4046,10.3576 83.5,7.5C 84.3149,6.16337 85.4815,5.16337 87,4.5C 87.3661,2.54826 88.1995,0.88159 89.5,-0.5 Z"/></g>
<g><path style="opacity:1" fill="#02050d" d="M 76.5,4.5 C 76.427,6.02694 77.0937,7.02694 78.5,7.5C 78.5,8.16667 78.5,8.83333 78.5,9.5C 77.3467,15.6529 77.18,21.9863 78,28.5C 79.6667,29.1667 81.3333,29.8333 83,30.5C 83.5022,33.5131 84.0022,36.5131 84.5,39.5C 83.1667,39.5 81.8333,39.5 80.5,39.5C 80.5,42.1667 80.5,44.8333 80.5,47.5C 80.7857,53.2586 80.4524,58.9252 79.5,64.5C 78.5084,64.3284 77.8417,64.6618 77.5,65.5C 76.5,65.5 75.5,65.5 74.5,65.5C 74.628,63.3453 74.128,61.3453 73,59.5C 70.9604,57.6298 69.1271,55.6298 67.5,53.5C 65.4296,45.9212 64.0962,38.2545 63.5,30.5C 62.8333,29.5 62.1667,28.5 61.5,27.5C 63.1201,25.0103 64.6201,22.3437 66,19.5C 66.499,15.1794 66.6657,10.8461 66.5,6.5C 69.513,6.62827 72.013,5.62827 74,3.5C 74.9021,3.74325 75.7354,4.07658 76.5,4.5 Z"/></g>
<g><path style="opacity:1" fill="#08132b" d="M 76.5,4.5 C 75.7354,4.07658 74.9021,3.74325 74,3.5C 72.013,5.62827 69.513,6.62827 66.5,6.5C 66.6657,10.8461 66.499,15.1794 66,19.5C 64.6201,22.3437 63.1201,25.0103 61.5,27.5C 60.8333,27.5 60.5,27.1667 60.5,26.5C 60.5271,24.8007 61.1938,23.4674 62.5,22.5C 62.5569,21.391 62.8902,20.391 63.5,19.5C 64.4219,15.0051 65.0886,10.3384 65.5,5.5C 68.691,5.23784 71.3577,3.90451 73.5,1.5C 75.2131,1.87929 76.2131,2.87929 76.5,4.5 Z"/></g>
<g><path style="opacity:1" fill="#065391" d="M 98.5,-0.5 C 99.8333,-0.5 101.167,-0.5 102.5,-0.5C 102.323,3.23426 102.656,6.90093 103.5,10.5C 103.949,12.9775 103.283,14.9775 101.5,16.5C 100.889,13.5735 99.5558,11.2401 97.5,9.5C 98.4137,6.27203 98.7471,2.93869 98.5,-0.5 Z"/></g>
<g><path style="opacity:1" fill="#43aafc" d="M 19.5,-0.5 C 25.8333,-0.5 32.1667,-0.5 38.5,-0.5C 38.5,0.5 38.5,1.5 38.5,2.5C 37.5041,2.41423 36.6708,2.74756 36,3.5C 35.6667,6.5 34,8.16667 31,8.5C 30.5291,10.2464 29.8624,11.913 29,13.5C 25.7259,12.5075 24.8926,13.6742 26.5,17C 26.3613,18.301 25.6946,19.1344 24.5,19.5C 22.8958,20.287 22.2291,21.6203 22.5,23.5C 21.325,23.281 20.325,23.6143 19.5,24.5C 18.9817,26.8998 17.815,28.8998 16,30.5C 15.0797,33.1013 14.413,35.7679 14,38.5C 13.5983,37.1279 13.0983,35.7946 12.5,34.5C 12.8947,28.645 13.3947,22.645 14,16.5C 15.5267,10.6569 17.36,4.99019 19.5,-0.5 Z"/></g>
<g><path style="opacity:1" fill="#30a8f4" d="M 56.5,-0.5 C 67.5,-0.5 78.5,-0.5 89.5,-0.5C 88.1995,0.88159 87.3661,2.54826 87,4.5C 85.4815,5.16337 84.3149,6.16337 83.5,7.5C 81.8333,7.5 80.1667,7.5 78.5,7.5C 77.0937,7.02694 76.427,6.02694 76.5,4.5C 76.2131,2.87929 75.2131,1.87929 73.5,1.5C 71.3577,3.90451 68.691,5.23784 65.5,5.5C 65.0886,10.3384 64.4219,15.0051 63.5,19.5C 64.1197,15.6983 63.2863,12.365 61,9.5C 60.6805,12.6717 59.1805,15.005 56.5,16.5C 55.5272,10.8503 55.5272,5.18367 56.5,-0.5 Z"/></g>
<g><path style="opacity:1" fill="#0646cb" d="M 104.5,-0.5 C 105.5,-0.5 106.5,-0.5 107.5,-0.5C 108.006,1.42866 109.006,3.09532 110.5,4.5C 109.048,5.93972 108.048,7.60638 107.5,9.5C 106.778,9.91753 106.278,10.5842 106,11.5C 104.734,7.60486 104.234,3.60486 104.5,-0.5 Z"/></g>
<g><path style="opacity:1" fill="#051530" d="M 78.5,7.5 C 80.1667,7.5 81.8333,7.5 83.5,7.5C 83.4046,10.3576 82.2379,12.6909 80,14.5C 79.5008,19.1548 79.3342,23.8215 79.5,28.5C 80.791,28.7373 81.791,28.404 82.5,27.5C 83.1515,26.9094 83.8182,26.2427 84.5,25.5C 85.2975,25.9569 85.6309,26.6236 85.5,27.5C 83.7785,30.7575 84.4451,32.0908 87.5,31.5C 87.8039,32.1499 88.1373,32.8165 88.5,33.5C 87.3984,34.1757 86.3984,34.8423 85.5,35.5C 86.038,37.1172 86.3713,38.7839 86.5,40.5C 84.901,40.2322 83.5676,40.5655 82.5,41.5C 81.5386,43.2646 81.2053,45.2646 81.5,47.5C 81.1667,47.5 80.8333,47.5 80.5,47.5C 80.5,44.8333 80.5,42.1667 80.5,39.5C 81.8333,39.5 83.1667,39.5 84.5,39.5C 84.0022,36.5131 83.5022,33.5131 83,30.5C 81.3333,29.8333 79.6667,29.1667 78,28.5C 77.18,21.9863 77.3467,15.6529 78.5,9.5C 78.5,8.83333 78.5,8.16667 78.5,7.5 Z"/></g>
<g><path style="opacity:1" fill="#588fbb" d="M 78.5,9.5 C 81.9571,9.66721 82.2904,10.6672 79.5,12.5C 78.6143,11.675 78.281,10.675 78.5,9.5 Z"/></g>
<g><path style="opacity:1" fill="#08509c" d="M 97.5,9.5 C 99.5558,11.2401 100.889,13.5735 101.5,16.5C 103.283,14.9775 103.949,12.9775 103.5,10.5C 104.314,12.631 104.814,14.9644 105,17.5C 105.333,17.8333 105.667,18.1667 106,18.5C 106.278,17.5842 106.778,16.9175 107.5,16.5C 106.495,19.7209 105.661,23.0543 105,26.5C 104.148,27.5707 103.315,28.5707 102.5,29.5C 102.559,26.0382 101.559,23.0382 99.5,20.5C 98.5078,24.7828 98.1744,29.1161 98.5,33.5C 96.5441,31.8516 94.2108,31.1849 91.5,31.5C 90.9694,34.7794 88.9694,36.1128 85.5,35.5C 86.3984,34.8423 87.3984,34.1757 88.5,33.5C 88.1373,32.8165 87.8039,32.1499 87.5,31.5C 88.7997,30.8921 90.1331,30.2255 91.5,29.5C 93.4534,30.1556 95.4534,30.4889 97.5,30.5C 97.7912,24.6965 97.1246,19.0299 95.5,13.5C 95.2291,11.6203 95.8958,10.287 97.5,9.5 Z"/></g>
<g><path style="opacity:1" fill="#0549a8" d="M 102.5,-0.5 C 103.167,-0.5 103.833,-0.5 104.5,-0.5C 104.234,3.60486 104.734,7.60486 106,11.5C 106.278,10.5842 106.778,9.91753 107.5,9.5C 107.5,11.5 107.5,13.5 107.5,15.5C 107.5,15.8333 107.5,16.1667 107.5,16.5C 106.778,16.9175 106.278,17.5842 106,18.5C 105.667,18.1667 105.333,17.8333 105,17.5C 104.814,14.9644 104.314,12.631 103.5,10.5C 102.656,6.90093 102.323,3.23426 102.5,-0.5 Z"/></g>
<g><path style="opacity:1" fill="#044d79" d="M 127.5,13.5 C 127.5,20.1667 127.5,26.8333 127.5,33.5C 126.662,33.8417 126.328,34.5084 126.5,35.5C 124.991,27.3291 120.325,21.9957 112.5,19.5C 112.18,16.1016 112.513,12.7683 113.5,9.5C 114.739,9.05758 115.739,8.39092 116.5,7.5C 118.54,6.48083 120.54,6.48083 122.5,7.5C 124.185,9.57073 125.852,11.5707 127.5,13.5 Z"/></g>
<g><path style="opacity:1" fill="#58e5fe" d="M 52.5,-0.5 C 53.5,-0.5 54.5,-0.5 55.5,-0.5C 54.6287,7.7996 54.2953,16.1329 54.5,24.5C 53.9177,21.1677 53.0844,17.8344 52,14.5C 50.9985,23.3143 51.4985,31.9809 53.5,40.5C 53.5,41.1667 53.1667,41.5 52.5,41.5C 52.2172,40.7109 51.7172,40.0442 51,39.5C 50.1213,26.102 50.6213,12.7686 52.5,-0.5 Z"/></g>
<g><path style="opacity:1" fill="#26b7f5" d="M 55.5,-0.5 C 55.8333,-0.5 56.1667,-0.5 56.5,-0.5C 55.5272,5.18367 55.5272,10.8503 56.5,16.5C 59.1805,15.005 60.6805,12.6717 61,9.5C 63.2863,12.365 64.1197,15.6983 63.5,19.5C 62.8902,20.391 62.5569,21.391 62.5,22.5C 61.1266,22.3433 59.7932,22.51 58.5,23C 59.6956,23.6543 59.6956,24.1543 58.5,24.5C 56.7751,22.9084 55.7751,23.2417 55.5,25.5C 55.1583,26.3382 54.4916,26.6716 53.5,26.5C 53.8333,25.8333 54.1667,25.1667 54.5,24.5C 54.2953,16.1329 54.6287,7.7996 55.5,-0.5 Z"/></g>
<g><path style="opacity:1" fill="#2fd1fd" d="M 38.5,-0.5 C 40.1667,-0.5 41.8333,-0.5 43.5,-0.5C 43.8064,2.38544 43.4731,5.0521 42.5,7.5C 41.3503,12.3158 41.1837,17.3158 42,22.5C 43.5489,25.3117 44.3822,28.3117 44.5,31.5C 45.8333,31.5 47.1667,31.5 48.5,31.5C 49.072,22.1582 49.7387,12.8248 50.5,3.5C 50.8333,2.16667 51.1667,0.833333 51.5,-0.5C 51.8333,-0.5 52.1667,-0.5 52.5,-0.5C 50.6213,12.7686 50.1213,26.102 51,39.5C 51.7172,40.0442 52.2172,40.7109 52.5,41.5C 52.5,41.8333 52.5,42.1667 52.5,42.5C 51.5655,43.5676 51.2322,44.901 51.5,46.5C 51.1667,46.5 50.8333,46.5 50.5,46.5C 51.0509,41.882 49.0509,39.0487 44.5,38C 41.628,35.4634 39.128,32.6301 37,29.5C 36.6667,33.8333 36.3333,38.1667 36,42.5C 35.7508,41.376 35.2508,40.376 34.5,39.5C 34.1667,40.1667 33.8333,40.8333 33.5,41.5C 35.3936,47.173 37.0603,52.8396 38.5,58.5C 38.5,58.8333 38.5,59.1667 38.5,59.5C 38.1667,59.5 37.8333,59.5 37.5,59.5C 33.1301,56.7718 30.7968,52.7718 30.5,47.5C 32.4228,43.9707 33.0894,39.9707 32.5,35.5C 34.8227,25.3164 36.3227,14.983 37,4.5C 37.7172,3.9558 38.2172,3.28913 38.5,2.5C 38.5,1.5 38.5,0.5 38.5,-0.5 Z"/></g>
<g><path style="opacity:1" fill="#06a5fc" d="M 43.5,-0.5 C 46.1667,-0.5 48.8333,-0.5 51.5,-0.5C 51.1667,0.833333 50.8333,2.16667 50.5,3.5C 48.8539,9.72805 47.0205,16.0614 45,22.5C 42.9669,17.7046 42.1336,12.7046 42.5,7.5C 43.4731,5.0521 43.8064,2.38544 43.5,-0.5 Z"/></g>
<g><path style="opacity:1" fill="#9df7fe" d="M 54.5,24.5 C 54.1667,25.1667 53.8333,25.8333 53.5,26.5C 53.5,27.8333 54.1667,28.5 55.5,28.5C 56.3705,31.1123 57.0372,33.779 57.5,36.5C 56.8333,36.5 56.5,36.8333 56.5,37.5C 55.7281,38.6935 54.7281,39.6935 53.5,40.5C 51.4985,31.9809 50.9985,23.3143 52,14.5C 53.0844,17.8344 53.9177,21.1677 54.5,24.5 Z"/></g>
<g><path style="opacity:1" fill="#46dafc" d="M 92.5,5.5 C 93.7349,7.017 93.7349,8.68367 92.5,10.5C 92.8793,12.2131 93.8793,13.2131 95.5,13.5C 97.1246,19.0299 97.7912,24.6965 97.5,30.5C 95.4534,30.4889 93.4534,30.1556 91.5,29.5C 90.1331,30.2255 88.7997,30.8921 87.5,31.5C 87.0825,30.7784 86.4158,30.2784 85.5,30C 87.9856,29.2949 87.9856,28.4616 85.5,27.5C 85.6309,26.6236 85.2975,25.9569 84.5,25.5C 83.8182,26.2427 83.1515,26.9094 82.5,27.5C 81.2227,26.3064 80.5561,24.6397 80.5,22.5C 80.8333,20.8333 81.1667,19.1667 81.5,17.5C 83.4948,15.8903 85.6614,14.5569 88,13.5C 89.2601,10.6409 90.7601,7.97422 92.5,5.5 Z"/></g>
<g><path style="opacity:1" fill="#15b8f9" d="M 50.5,3.5 C 49.7387,12.8248 49.072,22.1582 48.5,31.5C 47.1667,31.5 45.8333,31.5 44.5,31.5C 44.3822,28.3117 43.5489,25.3117 42,22.5C 41.1837,17.3158 41.3503,12.3158 42.5,7.5C 42.1336,12.7046 42.9669,17.7046 45,22.5C 47.0205,16.0614 48.8539,9.72805 50.5,3.5 Z"/></g>
<g><path style="opacity:1" fill="#042059" d="M 62.5,22.5 C 61.1938,23.4674 60.5271,24.8007 60.5,26.5C 59.8333,26.5 59.5,26.8333 59.5,27.5C 57.8007,27.4729 56.4674,26.8062 55.5,25.5C 55.7751,23.2417 56.7751,22.9084 58.5,24.5C 59.6956,24.1543 59.6956,23.6543 58.5,23C 59.7932,22.51 61.1266,22.3433 62.5,22.5 Z"/></g>
<g><path style="opacity:1" fill="#1d82c4" d="M 55.5,25.5 C 56.4674,26.8062 57.8007,27.4729 59.5,27.5C 58.4324,28.4345 57.099,28.7678 55.5,28.5C 54.1667,28.5 53.5,27.8333 53.5,26.5C 54.4916,26.6716 55.1583,26.3382 55.5,25.5 Z"/></g>
<g><path style="opacity:1" fill="#6ad4f9" d="M 112.5,19.5 C 120.325,21.9957 124.991,27.3291 126.5,35.5C 127.674,41.8486 125.341,45.8486 119.5,47.5C 117.588,41.9706 116.088,36.304 115,30.5C 113.114,27.758 110.614,26.0913 107.5,25.5C 107.665,28.5184 107.498,31.5184 107,34.5C 106.617,35.056 106.117,35.3893 105.5,35.5C 103.717,34.8254 102.05,34.4921 100.5,34.5C 101.309,32.9724 101.976,31.3057 102.5,29.5C 103.315,28.5707 104.148,27.5707 105,26.5C 105.661,23.0543 106.495,19.7209 107.5,16.5C 107.5,16.1667 107.5,15.8333 107.5,15.5C 108.721,14.9717 109.887,14.305 111,13.5C 111.191,15.7078 111.691,17.7078 112.5,19.5 Z"/></g>
<g><path style="opacity:1" fill="#36b6fc" d="M 38.5,2.5 C 38.2172,3.28913 37.7172,3.9558 37,4.5C 36.3227,14.983 34.8227,25.3164 32.5,35.5C 31.71,36.6085 31.21,37.9419 31,39.5C 30.3333,40.8333 29.6667,40.8333 29,39.5C 28.6444,33.145 28.6444,26.8117 29,20.5C 27.2196,21.6394 25.3863,22.6394 23.5,23.5C 23.8333,22.1667 24.1667,20.8333 24.5,19.5C 25.6946,19.1344 26.3613,18.301 26.5,17C 24.8926,13.6742 25.7259,12.5075 29,13.5C 29.8624,11.913 30.5291,10.2464 31,8.5C 34,8.16667 35.6667,6.5 36,3.5C 36.6708,2.74756 37.5041,2.41423 38.5,2.5 Z"/></g>
<g><path style="opacity:1" fill="#194568" d="M 85.5,27.5 C 87.9856,28.4616 87.9856,29.2949 85.5,30C 86.4158,30.2784 87.0825,30.7784 87.5,31.5C 84.4451,32.0908 83.7785,30.7575 85.5,27.5 Z"/></g>
<g><path style="opacity:1" fill="#0249ae" d="M 102.5,29.5 C 101.976,31.3057 101.309,32.9724 100.5,34.5C 99.8333,34.1667 99.1667,33.8333 98.5,33.5C 98.1744,29.1161 98.5078,24.7828 99.5,20.5C 101.559,23.0382 102.559,26.0382 102.5,29.5 Z"/></g>
<g><path style="opacity:1" fill="#085197" d="M 126.5,35.5 C 126.328,34.5084 126.662,33.8417 127.5,33.5C 127.5,40.5 127.5,47.5 127.5,54.5C 123.833,54.1667 121.833,52.1667 121.5,48.5C 119.784,48.3713 118.117,48.038 116.5,47.5C 114.287,45.042 113.121,42.042 113,38.5C 110.959,37.5769 108.792,37.2436 106.5,37.5C 106.5,41.5 106.5,45.5 106.5,49.5C 105.514,45.03 105.181,40.3633 105.5,35.5C 106.117,35.3893 106.617,35.056 107,34.5C 107.498,31.5184 107.665,28.5184 107.5,25.5C 110.614,26.0913 113.114,27.758 115,30.5C 116.088,36.304 117.588,41.9706 119.5,47.5C 125.341,45.8486 127.674,41.8486 126.5,35.5 Z"/></g>
<g><path style="opacity:1" fill="#21d6f9" d="M 60.5,26.5 C 60.5,27.1667 60.8333,27.5 61.5,27.5C 62.1667,28.5 62.8333,29.5 63.5,30.5C 63.8076,32.924 63.4742,35.2573 62.5,37.5C 60.9291,36.6906 59.2624,36.3573 57.5,36.5C 57.0372,33.779 56.3705,31.1123 55.5,28.5C 57.099,28.7678 58.4324,28.4345 59.5,27.5C 59.5,26.8333 59.8333,26.5 60.5,26.5 Z"/></g>
<g><path style="opacity:1" fill="#59b3fb" d="M 18.5,-0.5 C 18.8333,-0.5 19.1667,-0.5 19.5,-0.5C 17.36,4.99019 15.5267,10.6569 14,16.5C 13.3947,22.645 12.8947,28.645 12.5,34.5C 13.0983,35.7946 13.5983,37.1279 14,38.5C 14.413,35.7679 15.0797,33.1013 16,30.5C 17.815,28.8998 18.9817,26.8998 19.5,24.5C 20.325,23.6143 21.325,23.281 22.5,23.5C 22.2291,21.6203 22.8958,20.287 24.5,19.5C 24.1667,20.8333 23.8333,22.1667 23.5,23.5C 20.6537,29.2456 18.487,35.2456 17,41.5C 16.502,44.4816 16.3354,47.4816 16.5,50.5C 14.3618,50.297 12.6951,49.297 11.5,47.5C 10.8133,45.7256 9.97993,44.0589 9,42.5C 8.7305,45.2241 8.2305,47.8908 7.5,50.5C 8.9738,54.5429 9.64046,59.0429 9.5,64C 9.22495,69.1764 8.89162,74.343 8.5,79.5C 10.1439,79.2865 11.6439,79.6198 13,80.5C 13.8215,83.1168 14.3215,85.7835 14.5,88.5C 12.9731,88.427 11.9731,89.0937 11.5,90.5C 10.4155,88.6814 9.08217,87.0147 7.5,85.5C 5.92221,86.6405 4.25554,87.1405 2.5,87C 2.15373,84.0597 1.15373,81.5597 -0.5,79.5C -0.5,60.5 -0.5,41.5 -0.5,22.5C 1.59216,22.4386 3.09216,21.4386 4,19.5C 4.21893,20.938 4.71893,22.2713 5.5,23.5C 6.08605,23.2907 6.58605,22.9574 7,22.5C 6.62562,20.2313 6.62562,17.898 7,15.5C 8.71827,13.1029 9.88494,10.4362 10.5,7.5C 12.2251,6.9851 13.8917,6.31844 15.5,5.5C 16.6405,4.57451 16.6405,3.74117 15.5,3C 17.0557,2.27985 18.0557,1.11318 18.5,-0.5 Z"/></g>
<g><path style="opacity:1" fill="#2ec5f4" d="M 63.5,30.5 C 64.0962,38.2545 65.4296,45.9212 67.5,53.5C 65.2282,51.9819 63.8949,49.8152 63.5,47C 61.9387,46.8119 61.272,47.6453 61.5,49.5C 60.5041,49.5858 59.6708,49.2524 59,48.5C 58.9738,52.1391 58.1405,55.4725 56.5,58.5C 55.5269,60.9479 55.1936,63.6146 55.5,66.5C 53.7867,68.8504 51.4534,69.8504 48.5,69.5C 48.9754,73.0839 49.9754,76.4172 51.5,79.5C 51.5569,80.609 51.8902,81.609 52.5,82.5C 52.1924,84.924 52.5258,87.2573 53.5,89.5C 54.1667,86.1667 54.8333,82.8333 55.5,79.5C 56.3624,80.7658 57.0291,82.0992 57.5,83.5C 55.6565,85.2789 54.9898,87.6122 55.5,90.5C 53.8235,91.1834 53.1568,92.5168 53.5,94.5C 53.1667,94.5 52.8333,94.5 52.5,94.5C 51.391,94.5569 50.391,94.8902 49.5,95.5C 49.6662,89.4908 49.4995,83.4908 49,77.5C 48.7216,76.5842 48.2216,75.9175 47.5,75.5C 47.634,73.7085 47.3007,72.0418 46.5,70.5C 46.5,69.1667 46.5,67.8333 46.5,66.5C 49.0821,66.9746 51.0821,66.3079 52.5,64.5C 52.5,61.1667 52.5,57.8333 52.5,54.5C 56.968,54.2517 58.468,51.9183 57,47.5C 56.6174,46.944 56.1174,46.6107 55.5,46.5C 55.4456,44.368 54.4456,43.0347 52.5,42.5C 52.5,42.1667 52.5,41.8333 52.5,41.5C 53.1667,41.5 53.5,41.1667 53.5,40.5C 54.7281,39.6935 55.7281,38.6935 56.5,37.5C 56.5,36.8333 56.8333,36.5 57.5,36.5C 59.2624,36.3573 60.9291,36.6906 62.5,37.5C 63.4742,35.2573 63.8076,32.924 63.5,30.5 Z"/></g>
<g><path style="opacity:1" fill="#047cdf" d="M 56.5,37.5 C 57.8333,37.5 59.1667,37.5 60.5,37.5C 61.205,40.2443 61.205,42.911 60.5,45.5C 58.6664,43.0234 57.333,40.3567 56.5,37.5 Z"/></g>
<g><path style="opacity:1" fill="#034dc1" d="M 116.5,47.5 C 116.5,48.8333 116.5,50.1667 116.5,51.5C 115.056,47.1935 112.056,44.5269 107.5,43.5C 107.517,45.5648 107.85,47.5648 108.5,49.5C 107.833,49.5 107.167,49.5 106.5,49.5C 106.5,45.5 106.5,41.5 106.5,37.5C 108.792,37.2436 110.959,37.5769 113,38.5C 113.121,42.042 114.287,45.042 116.5,47.5 Z"/></g>
<g><path style="opacity:1" fill="#50defc" d="M 98.5,33.5 C 99.1667,33.8333 99.8333,34.1667 100.5,34.5C 102.05,34.4921 103.717,34.8254 105.5,35.5C 105.181,40.3633 105.514,45.03 106.5,49.5C 107.096,51.7454 108.096,53.7454 109.5,55.5C 107.5,55.5 105.5,55.5 103.5,55.5C 103.776,52.1475 102.609,49.4809 100,47.5C 99.51,48.7932 99.3433,50.1266 99.5,51.5C 95.1967,50.3722 91.8633,47.8722 89.5,44C 88.1456,42.7063 86.8123,42.5396 85.5,43.5C 84.8182,42.7573 84.1515,42.0906 83.5,41.5C 83.1667,41.5 82.8333,41.5 82.5,41.5C 83.5676,40.5655 84.901,40.2322 86.5,40.5C 86.3713,38.7839 86.038,37.1172 85.5,35.5C 88.9694,36.1128 90.9694,34.7794 91.5,31.5C 94.2108,31.1849 96.5441,31.8516 98.5,33.5 Z"/></g>
<g><path style="opacity:1" fill="#49e7fc" d="M 50.5,46.5 C 49.0813,47.4511 47.4147,47.7845 45.5,47.5C 45.5,48.5 45.5,49.5 45.5,50.5C 43.8235,51.1834 43.1568,52.5168 43.5,54.5C 42.2402,56.3671 40.5735,57.7005 38.5,58.5C 37.0603,52.8396 35.3936,47.173 33.5,41.5C 33.8333,40.8333 34.1667,40.1667 34.5,39.5C 35.2508,40.376 35.7508,41.376 36,42.5C 36.3333,38.1667 36.6667,33.8333 37,29.5C 39.128,32.6301 41.628,35.4634 44.5,38C 49.0509,39.0487 51.0509,41.882 50.5,46.5 Z"/></g>
<g><path style="opacity:1" fill="#59e4fc" d="M 83.5,41.5 C 84.1515,42.0906 84.8182,42.7573 85.5,43.5C 86.8123,42.5396 88.1456,42.7063 89.5,44C 91.8633,47.8722 95.1967,50.3722 99.5,51.5C 99.3433,50.1266 99.51,48.7932 100,47.5C 102.609,49.4809 103.776,52.1475 103.5,55.5C 105.5,55.5 107.5,55.5 109.5,55.5C 110.167,55.5 110.5,55.8333 110.5,56.5C 110.5,57.8333 110.5,59.1667 110.5,60.5C 110.5,62.5 110.5,64.5 110.5,66.5C 108.61,66.2965 107.11,66.9632 106,68.5C 105.333,67.8333 104.667,67.1667 104,66.5C 104.656,71.474 105.489,76.474 106.5,81.5C 103.43,79.3981 100.43,77.3981 97.5,75.5C 98.5,75.5 99.5,75.5 100.5,75.5C 100.666,71.4862 100.499,67.4862 100,63.5C 98.6439,62.6198 97.1439,62.2865 95.5,62.5C 95.5,65.5 95.5,68.5 95.5,71.5C 88.207,62.9818 84.207,52.9818 83.5,41.5 Z"/></g>
<g><path style="opacity:1" fill="#085dd8" d="M 52.5,42.5 C 54.4456,43.0347 55.4456,44.368 55.5,46.5C 56.038,48.1172 56.3713,49.7839 56.5,51.5C 52.8493,51.8383 51.1826,50.1716 51.5,46.5C 51.2322,44.901 51.5655,43.5676 52.5,42.5 Z"/></g>
<g><path style="opacity:1" fill="#055ee1" d="M 116.5,51.5 C 117.434,52.5676 117.768,53.901 117.5,55.5C 115.883,54.962 114.216,54.6287 112.5,54.5C 112.5,53.5 112.5,52.5 112.5,51.5C 110.517,51.8432 109.183,51.1765 108.5,49.5C 107.85,47.5648 107.517,45.5648 107.5,43.5C 112.056,44.5269 115.056,47.1935 116.5,51.5 Z"/></g>
<g><path style="opacity:1" fill="#0c81e4" d="M 50.5,46.5 C 50.8333,46.5 51.1667,46.5 51.5,46.5C 51.1826,50.1716 52.8493,51.8383 56.5,51.5C 56.3713,49.7839 56.038,48.1172 55.5,46.5C 56.1174,46.6107 56.6174,46.944 57,47.5C 58.468,51.9183 56.968,54.2517 52.5,54.5C 52.5,57.8333 52.5,61.1667 52.5,64.5C 50.4727,64.6621 48.4727,64.4955 46.5,64C 45.7476,63.3292 45.4142,62.4959 45.5,61.5C 47.1417,63.0808 49.1417,63.7475 51.5,63.5C 51.634,61.7085 51.3007,60.0418 50.5,58.5C 49.2504,55.994 48.5838,53.3274 48.5,50.5C 47.5,50.5 46.5,50.5 45.5,50.5C 45.5,49.5 45.5,48.5 45.5,47.5C 47.4147,47.7845 49.0813,47.4511 50.5,46.5 Z"/></g>
<g><path style="opacity:1" fill="#0558ca" d="M 45.5,50.5 C 46.5,50.5 47.5,50.5 48.5,50.5C 48.5838,53.3274 49.2504,55.994 50.5,58.5C 48.8414,56.5309 47.1747,54.5309 45.5,52.5C 45.1244,55.3733 45.1244,58.3733 45.5,61.5C 44.3882,59.4006 43.7215,57.0673 43.5,54.5C 43.1568,52.5168 43.8235,51.1834 45.5,50.5 Z"/></g>
<g><path style="opacity:1" fill="#0769d2" d="M 116.5,47.5 C 118.117,48.038 119.784,48.3713 121.5,48.5C 121.833,52.1667 123.833,54.1667 127.5,54.5C 127.5,56.8333 127.5,59.1667 127.5,61.5C 124.205,62.8245 122.872,61.4911 123.5,57.5C 121.214,57.405 119.214,56.7384 117.5,55.5C 117.768,53.901 117.434,52.5676 116.5,51.5C 116.5,50.1667 116.5,48.8333 116.5,47.5 Z"/></g>
<g><path style="opacity:1" fill="#54e1f1" d="M 61.5,49.5 C 60.645,50.5307 59.9783,51.6974 59.5,53C 62.4193,58.0964 64.7527,63.4297 66.5,69C 66.8361,70.0299 67.5028,70.5299 68.5,70.5C 67.8333,71.8333 66.8333,72.8333 65.5,73.5C 64.4469,68.9951 62.4469,64.9951 59.5,61.5C 59.5,59.5 58.5,58.5 56.5,58.5C 58.1405,55.4725 58.9738,52.1391 59,48.5C 59.6708,49.2524 60.5041,49.5858 61.5,49.5 Z"/></g>
<g><path style="opacity:1" fill="#0883f4" d="M 106.5,49.5 C 107.167,49.5 107.833,49.5 108.5,49.5C 109.183,51.1765 110.517,51.8432 112.5,51.5C 112.5,52.5 112.5,53.5 112.5,54.5C 114.216,54.6287 115.883,54.962 117.5,55.5C 119.214,56.7384 121.214,57.405 123.5,57.5C 122.872,61.4911 124.205,62.8245 127.5,61.5C 127.5,63.8333 127.5,66.1667 127.5,68.5C 126.5,68.5 125.5,68.5 124.5,68.5C 124.488,65.0949 122.821,62.9283 119.5,62C 117.866,61.5065 116.199,61.3398 114.5,61.5C 112.461,60.3282 111.128,58.6616 110.5,56.5C 110.5,55.8333 110.167,55.5 109.5,55.5C 108.096,53.7454 107.096,51.7454 106.5,49.5 Z"/></g>
<g><path style="opacity:1" fill="#0345e8" d="M 50.5,58.5 C 51.3007,60.0418 51.634,61.7085 51.5,63.5C 49.1417,63.7475 47.1417,63.0808 45.5,61.5C 45.1244,58.3733 45.1244,55.3733 45.5,52.5C 47.1747,54.5309 48.8414,56.5309 50.5,58.5 Z"/></g>
<g><path style="opacity:1" fill="#b1f7fb" d="M 67.5,53.5 C 69.1271,55.6298 70.9604,57.6298 73,59.5C 74.128,61.3453 74.628,63.3453 74.5,65.5C 75.5,65.5 76.5,65.5 77.5,65.5C 77.5,66.5 77.5,67.5 77.5,68.5C 74.9407,68.1984 72.6074,68.5318 70.5,69.5C 69.8333,69.8333 69.1667,70.1667 68.5,70.5C 67.5028,70.5299 66.8361,70.0299 66.5,69C 64.7527,63.4297 62.4193,58.0964 59.5,53C 59.9783,51.6974 60.645,50.5307 61.5,49.5C 61.272,47.6453 61.9387,46.8119 63.5,47C 63.8949,49.8152 65.2282,51.9819 67.5,53.5 Z"/></g>
<g><path style="opacity:1" fill="#defdfd" d="M 59.5,61.5 C 62.4469,64.9951 64.4469,68.9951 65.5,73.5C 64.8333,74.5 64.1667,75.5 63.5,76.5C 63.1667,76.5 62.8333,76.5 62.5,76.5C 60.5,76.5 58.5,76.5 56.5,76.5C 56.3339,70.8236 56.5006,65.1569 57,59.5C 57.7083,60.3805 58.5416,61.0472 59.5,61.5 Z"/></g>
<g><path style="opacity:1" fill="#0c9afb" d="M 114.5,61.5 C 116.199,61.3398 117.866,61.5065 119.5,62C 122.821,62.9283 124.488,65.0949 124.5,68.5C 125.5,68.5 126.5,68.5 127.5,68.5C 127.5,70.5 127.5,72.5 127.5,74.5C 124.632,71.3121 121.632,68.1454 118.5,65C 116.09,64.9428 114.756,63.7761 114.5,61.5 Z"/></g>
<g><path style="opacity:1" fill="#7fdafc" d="M 30.5,47.5 C 30.7968,52.7718 33.1301,56.7718 37.5,59.5C 37.5,59.8333 37.5,60.1667 37.5,60.5C 36.5954,64.6852 36.4287,69.0185 37,73.5C 35.3333,74.7332 33.8333,76.0665 32.5,77.5C 31.5041,77.4142 30.6708,77.7476 30,78.5C 29.5045,80.4727 29.3379,82.4727 29.5,84.5C 29.6716,85.4916 29.3382,86.1583 28.5,86.5C 26.0504,86.702 23.717,86.3686 21.5,85.5C 21.5,85.1667 21.5,84.8333 21.5,84.5C 19.9581,83.8365 18.2914,83.1698 16.5,82.5C 15.403,78.5848 14.7364,74.5848 14.5,70.5C 16.227,60.7399 18.0604,51.0733 20,41.5C 21.7315,37.705 23.7315,34.0383 26,30.5C 25.6411,35.8073 25.6411,41.1406 26,46.5C 26.3333,47.1667 26.6667,47.8333 27,48.5C 27.8387,42.7433 29.0054,42.41 30.5,47.5 Z"/></g>
<g><path style="opacity:1" fill="#1395eb" d="M 43.5,54.5 C 43.7215,57.0673 44.3882,59.4006 45.5,61.5C 45.4142,62.4959 45.7476,63.3292 46.5,64C 48.4727,64.4955 50.4727,64.6621 52.5,64.5C 51.0821,66.3079 49.0821,66.9746 46.5,66.5C 46.5,67.8333 46.5,69.1667 46.5,70.5C 44.2617,67.1292 42.595,63.4625 41.5,59.5C 40.5,59.5 39.5,59.5 38.5,59.5C 38.5,59.1667 38.5,58.8333 38.5,58.5C 40.5735,57.7005 42.2402,56.3671 43.5,54.5 Z"/></g>
<g><path style="opacity:1" fill="#46bde5" d="M 80.5,47.5 C 80.8333,47.5 81.1667,47.5 81.5,47.5C 81.5,49.1667 81.5,50.8333 81.5,52.5C 82.0894,56.9707 81.4228,60.9707 79.5,64.5C 80.4524,58.9252 80.7857,53.2586 80.5,47.5 Z"/></g>
<g><path style="opacity:1" fill="#086fd8" d="M 37.5,60.5 C 37.5,60.1667 37.5,59.8333 37.5,59.5C 37.8333,59.5 38.1667,59.5 38.5,59.5C 39.5,59.5 40.5,59.5 41.5,59.5C 42.595,63.4625 44.2617,67.1292 46.5,70.5C 47.3007,72.0418 47.634,73.7085 47.5,75.5C 47.665,78.8499 47.4983,82.1832 47,85.5C 45.9673,81.2242 44.4673,77.2242 42.5,73.5C 41.3216,69.7991 40.3216,65.9657 39.5,62C 39.1639,60.9701 38.4972,60.4701 37.5,60.5 Z"/></g>
<g><path style="opacity:1" fill="#2abbf5" d="M 97.5,75.5 C 96.6554,74.3285 95.9887,72.9952 95.5,71.5C 95.5,68.5 95.5,65.5 95.5,62.5C 97.1439,62.2865 98.6439,62.6198 100,63.5C 100.499,67.4862 100.666,71.4862 100.5,75.5C 99.5,75.5 98.5,75.5 97.5,75.5 Z"/></g>
<g><path style="opacity:1" fill="#0a4c89" d="M 37.5,60.5 C 38.4972,60.4701 39.1639,60.9701 39.5,62C 40.3216,65.9657 41.3216,69.7991 42.5,73.5C 41.8333,73.5 41.5,73.8333 41.5,74.5C 39.2521,77.8346 37.5855,81.5013 36.5,85.5C 34.9878,90.4378 35.3212,95.1044 37.5,99.5C 36.0695,99.4208 34.7362,99.7542 33.5,100.5C 33.4258,95.2595 33.2591,89.9262 33,84.5C 31.9076,82.0688 30.7409,82.0688 29.5,84.5C 29.3379,82.4727 29.5045,80.4727 30,78.5C 30.6708,77.7476 31.5041,77.4142 32.5,77.5C 33.8333,76.0665 35.3333,74.7332 37,73.5C 36.4287,69.0185 36.5954,64.6852 37.5,60.5 Z"/></g>
<g><path style="opacity:1" fill="#000206" d="M 70.5,69.5 C 72.8333,69.5 75.1667,69.5 77.5,69.5C 77.2291,71.3797 77.8958,72.713 79.5,73.5C 81.7457,74.4552 84.079,75.1218 86.5,75.5C 87.0241,77.3057 87.6908,78.9724 88.5,80.5C 88.5,81.1667 88.8333,81.5 89.5,81.5C 90.8496,86.1384 91.5163,90.9718 91.5,96C 91.3208,99.8576 90.9875,103.691 90.5,107.5C 90.5,107.833 90.5,108.167 90.5,108.5C 89.6942,109.997 89.0276,111.664 88.5,113.5C 88.6236,114.107 88.9569,114.44 89.5,114.5C 89.8417,115.338 90.5084,115.672 91.5,115.5C 93.1667,115.5 94.8333,115.5 96.5,115.5C 96.5,113.5 96.5,111.5 96.5,109.5C 99.3121,109.233 101.645,108.233 103.5,106.5C 105.167,105.833 106.833,105.167 108.5,104.5C 110.048,104.179 110.715,103.179 110.5,101.5C 110.833,101.5 111.167,101.5 111.5,101.5C 114.399,100.506 115.066,101.506 113.5,104.5C 114.807,105.802 114.807,107.135 113.5,108.5C 114.325,109.386 115.325,109.719 116.5,109.5C 117.404,108.791 117.737,107.791 117.5,106.5C 119.167,106.5 120.833,106.5 122.5,106.5C 122.338,108.527 122.505,110.527 123,112.5C 124.356,113.38 125.856,113.714 127.5,113.5C 127.5,118.167 127.5,122.833 127.5,127.5C 84.8333,127.5 42.1667,127.5 -0.5,127.5C -0.5,126.167 -0.5,124.833 -0.5,123.5C 0.833333,123.5 2.16667,123.5 3.5,123.5C 4.31382,121.369 4.81382,119.036 5,116.5C 8.07353,116.559 11.2402,117.226 14.5,118.5C 14.6463,120.942 13.813,121.609 12,120.5C 11.5172,121.448 11.3505,122.448 11.5,123.5C 14.9059,123.302 17.9059,124.302 20.5,126.5C 21.3857,125.675 21.719,124.675 21.5,123.5C 20.325,123.719 19.325,123.386 18.5,122.5C 19.5244,121.148 20.5244,119.815 21.5,118.5C 22.6016,116.908 21.935,116.075 19.5,116C 20.3805,115.292 21.0472,114.458 21.5,113.5C 22.287,111.896 23.6203,111.229 25.5,111.5C 25.5,110.5 25.5,109.5 25.5,108.5C 22.3198,108.824 21.1531,107.49 22,104.5C 25.2082,103.597 28.3749,102.597 31.5,101.5C 33.7345,101.38 35.9011,101.713 38,102.5C 39.301,102.361 40.1344,101.695 40.5,100.5C 43.0048,101.417 45.3382,101.417 47.5,100.5C 47.5,100.167 47.5,99.8333 47.5,99.5C 49.8234,98.9416 52.1568,98.2749 54.5,97.5C 53.624,96.7492 52.624,96.2492 51.5,96C 52.056,95.6174 52.3893,95.1174 52.5,94.5C 52.8333,94.5 53.1667,94.5 53.5,94.5C 54.2679,93.7375 54.7679,92.7375 55,91.5C 56.7546,94.3384 59.088,95.005 62,93.5C 63.1314,87.888 63.6314,82.2213 63.5,76.5C 64.1667,75.5 64.8333,74.5 65.5,73.5C 66.8333,72.8333 67.8333,71.8333 68.5,70.5C 69.1667,70.1667 69.8333,69.8333 70.5,69.5 Z"/></g>
<g><path style="opacity:1" fill="#02326b" d="M 77.5,69.5 C 79.1765,70.1834 79.8432,71.5168 79.5,73.5C 77.8958,72.713 77.2291,71.3797 77.5,69.5 Z"/></g>
<g><path style="opacity:1" fill="#17a8fa" d="M 110.5,56.5 C 111.128,58.6616 112.461,60.3282 114.5,61.5C 114.756,63.7761 116.09,64.9428 118.5,65C 121.632,68.1454 124.632,71.3121 127.5,74.5C 127.5,75.5 127.5,76.5 127.5,77.5C 126.18,76.0582 124.514,75.3915 122.5,75.5C 122.101,70.4579 119.434,67.2912 114.5,66C 113.251,64.02 111.918,62.1867 110.5,60.5C 110.5,59.1667 110.5,57.8333 110.5,56.5 Z"/></g>
<g><path style="opacity:1" fill="#60c1f9" d="M 32.5,35.5 C 33.0894,39.9707 32.4228,43.9707 30.5,47.5C 29.0054,42.41 27.8387,42.7433 27,48.5C 26.6667,47.8333 26.3333,47.1667 26,46.5C 25.6411,41.1406 25.6411,35.8073 26,30.5C 23.7315,34.0383 21.7315,37.705 20,41.5C 18.0604,51.0733 16.227,60.7399 14.5,70.5C 14.7364,74.5848 15.403,78.5848 16.5,82.5C 18.2914,83.1698 19.9581,83.8365 21.5,84.5C 19.8333,84.5 18.1667,84.5 16.5,84.5C 16.8432,86.4832 16.1765,87.8166 14.5,88.5C 14.3215,85.7835 13.8215,83.1168 13,80.5C 11.6439,79.6198 10.1439,79.2865 8.5,79.5C 8.89162,74.343 9.22495,69.1764 9.5,64C 9.64046,59.0429 8.9738,54.5429 7.5,50.5C 8.2305,47.8908 8.7305,45.2241 9,42.5C 9.97993,44.0589 10.8133,45.7256 11.5,47.5C 12.6951,49.297 14.3618,50.297 16.5,50.5C 16.3354,47.4816 16.502,44.4816 17,41.5C 18.487,35.2456 20.6537,29.2456 23.5,23.5C 25.3863,22.6394 27.2196,21.6394 29,20.5C 28.6444,26.8117 28.6444,33.145 29,39.5C 29.6667,40.8333 30.3333,40.8333 31,39.5C 31.21,37.9419 31.71,36.6085 32.5,35.5 Z"/></g>
<g><path style="opacity:1" fill="#64edfe" d="M 55.5,66.5 C 53.6985,70.7103 52.3652,75.0436 51.5,79.5C 49.9754,76.4172 48.9754,73.0839 48.5,69.5C 51.4534,69.8504 53.7867,68.8504 55.5,66.5 Z"/></g>
<g><path style="opacity:1" fill="#23b7fb" d="M 110.5,60.5 C 111.918,62.1867 113.251,64.02 114.5,66C 119.434,67.2912 122.101,70.4579 122.5,75.5C 124.514,75.3915 126.18,76.0582 127.5,77.5C 127.5,85.5 127.5,93.5 127.5,101.5C 121.56,104.44 118.227,102.44 117.5,95.5C 116.549,93.528 115.549,91.528 114.5,89.5C 111.452,87.1185 108.785,84.4518 106.5,81.5C 105.489,76.474 104.656,71.474 104,66.5C 104.667,67.1667 105.333,67.8333 106,68.5C 107.11,66.9632 108.61,66.2965 110.5,66.5C 110.5,64.5 110.5,62.5 110.5,60.5 Z"/></g>
<g><path style="opacity:1" fill="#a6f4fd" d="M 56.5,58.5 C 58.5,58.5 59.5,59.5 59.5,61.5C 58.5416,61.0472 57.7083,60.3805 57,59.5C 56.5006,65.1569 56.3339,70.8236 56.5,76.5C 58.5,76.5 60.5,76.5 62.5,76.5C 62.5,77.1667 62.1667,77.5 61.5,77.5C 58.8333,77.5 56.1667,77.5 53.5,77.5C 53.7845,79.4147 53.4511,81.0813 52.5,82.5C 51.8902,81.609 51.5569,80.609 51.5,79.5C 52.3652,75.0436 53.6985,70.7103 55.5,66.5C 55.1936,63.6146 55.5269,60.9479 56.5,58.5 Z"/></g>
<g><path style="opacity:1" fill="#0776ae" d="M 86.5,75.5 C 88.256,76.5521 88.9227,78.2188 88.5,80.5C 87.6908,78.9724 87.0241,77.3057 86.5,75.5 Z"/></g>
<g><path style="opacity:1" fill="#78d6f8" d="M 32.5,77.5 C 33.8333,77.5 35.1667,77.5 36.5,77.5C 36.5,78.5 36.5,79.5 36.5,80.5C 34.7988,80.0338 33.2988,80.0338 32,80.5C 31.5304,79.4232 31.6971,78.4232 32.5,77.5 Z"/></g>
<g><path style="opacity:1" fill="#57e5f9" d="M 61.5,77.5 C 61.3135,82.8446 60.9801,88.1779 60.5,93.5C 58.8212,93.7148 57.8212,93.0481 57.5,91.5C 57.2471,89.1727 57.9137,87.1727 59.5,85.5C 59.1445,84.4777 58.4778,83.811 57.5,83.5C 57.0291,82.0992 56.3624,80.7658 55.5,79.5C 54.8333,82.8333 54.1667,86.1667 53.5,89.5C 52.5258,87.2573 52.1924,84.924 52.5,82.5C 53.4511,81.0813 53.7845,79.4147 53.5,77.5C 56.1667,77.5 58.8333,77.5 61.5,77.5 Z"/></g>
<g><path style="opacity:1" fill="#bbfdfe" d="M 82.5,41.5 C 82.8333,41.5 83.1667,41.5 83.5,41.5C 84.207,52.9818 88.207,62.9818 95.5,71.5C 95.9887,72.9952 96.6554,74.3285 97.5,75.5C 100.43,77.3981 103.43,79.3981 106.5,81.5C 106.662,83.5273 106.495,85.5273 106,87.5C 105.764,89.1193 104.931,90.1193 103.5,90.5C 98.2736,83.7346 93.2736,76.7346 88.5,69.5C 87.8324,66.2959 86.3324,63.6292 84,61.5C 83.7963,58.2026 82.963,55.2026 81.5,52.5C 81.5,50.8333 81.5,49.1667 81.5,47.5C 81.2053,45.2646 81.5386,43.2646 82.5,41.5 Z"/></g>
<g><path style="opacity:1" fill="#0a1e31" d="M 62.5,76.5 C 62.8333,76.5 63.1667,76.5 63.5,76.5C 63.6314,82.2213 63.1314,87.888 62,93.5C 59.088,95.005 56.7546,94.3384 55,91.5C 54.7679,92.7375 54.2679,93.7375 53.5,94.5C 53.1568,92.5168 53.8235,91.1834 55.5,90.5C 56.1667,90.8333 56.8333,91.1667 57.5,91.5C 57.8212,93.0481 58.8212,93.7148 60.5,93.5C 60.9801,88.1779 61.3135,82.8446 61.5,77.5C 62.1667,77.5 62.5,77.1667 62.5,76.5 Z"/></g>
<g><path style="opacity:1" fill="#0bb1f3" d="M 57.5,83.5 C 58.4778,83.811 59.1445,84.4777 59.5,85.5C 57.9137,87.1727 57.2471,89.1727 57.5,91.5C 56.8333,91.1667 56.1667,90.8333 55.5,90.5C 54.9898,87.6122 55.6565,85.2789 57.5,83.5 Z"/></g>
<g><path style="opacity:1" fill="#022d58" d="M 37.5,99.5 C 38.209,100.404 39.209,100.737 40.5,100.5C 40.1344,101.695 39.301,102.361 38,102.5C 35.9011,101.713 33.7345,101.38 31.5,101.5C 31.5,101.167 31.5,100.833 31.5,100.5C 31.5,96.1667 31.5,91.8333 31.5,87.5C 30.209,87.7373 29.209,87.404 28.5,86.5C 29.3382,86.1583 29.6716,85.4916 29.5,84.5C 30.7409,82.0688 31.9076,82.0688 33,84.5C 33.2591,89.9262 33.4258,95.2595 33.5,100.5C 34.7362,99.7542 36.0695,99.4208 37.5,99.5 Z"/></g>
<g><path style="opacity:1" fill="#70bff9" d="M -0.5,79.5 C 1.15373,81.5597 2.15373,84.0597 2.5,87C 4.25554,87.1405 5.92221,86.6405 7.5,85.5C 9.08217,87.0147 10.4155,88.6814 11.5,90.5C 10.3915,91.29 9.05814,91.79 7.5,92C 8.38053,92.7083 9.0472,93.5416 9.5,94.5C 8.83333,94.5 8.16667,94.5 7.5,94.5C 6.41683,94.4606 5.41683,94.1272 4.5,93.5C 3.28882,94.2739 3.28882,95.1072 4.5,96C 3.67209,96.9147 2.67209,97.5814 1.5,98C 4.42846,101.257 5.26179,105.091 4,109.5C 3.85516,106.509 2.35516,104.842 -0.5,104.5C -0.5,96.1667 -0.5,87.8333 -0.5,79.5 Z"/></g>
<g><path style="opacity:1" fill="#42ebfc" d="M 106.5,81.5 C 108.785,84.4518 111.452,87.1185 114.5,89.5C 115.549,91.528 116.549,93.528 117.5,95.5C 116.5,95.5 115.5,95.5 114.5,95.5C 113.388,92.0536 111.055,90.0536 107.5,89.5C 107.77,93.3576 109.103,96.691 111.5,99.5C 111.5,100.167 111.5,100.833 111.5,101.5C 111.167,101.5 110.833,101.5 110.5,101.5C 108.674,99.8525 107.34,97.8525 106.5,95.5C 106.25,93.326 105.25,91.6594 103.5,90.5C 104.931,90.1193 105.764,89.1193 106,87.5C 106.495,85.5273 106.662,83.5273 106.5,81.5 Z"/></g>
<g><path style="opacity:1" fill="#1488ea" d="M 42.5,73.5 C 44.4673,77.2242 45.9673,81.2242 47,85.5C 47.4983,82.1832 47.665,78.8499 47.5,75.5C 48.2216,75.9175 48.7216,76.5842 49,77.5C 49.4995,83.4908 49.6662,89.4908 49.5,95.5C 48.8333,96.8333 48.1667,98.1667 47.5,99.5C 47.5,99.8333 47.5,100.167 47.5,100.5C 45.1944,100.007 42.861,99.6741 40.5,99.5C 40.7546,93.1288 41.4213,86.7954 42.5,80.5C 42.1604,78.4878 41.8271,76.4878 41.5,74.5C 41.5,73.8333 41.8333,73.5 42.5,73.5 Z"/></g>
<g><path style="opacity:1" fill="#2ce6fb" d="M 81.5,52.5 C 82.963,55.2026 83.7963,58.2026 84,61.5C 86.3324,63.6292 87.8324,66.2959 88.5,69.5C 93.2736,76.7346 98.2736,83.7346 103.5,90.5C 102.883,90.3893 102.383,90.056 102,89.5C 101.805,91.2072 101.805,92.8739 102,94.5C 101.311,93.6433 100.478,92.9767 99.5,92.5C 97.8499,100.04 96.1833,99.7071 94.5,91.5C 93.9469,88.1833 93.6135,84.85 93.5,81.5C 92.5,81.5 91.5,81.5 90.5,81.5C 90.1667,81.5 89.8333,81.5 89.5,81.5C 88.8333,81.5 88.5,81.1667 88.5,80.5C 88.9227,78.2188 88.256,76.5521 86.5,75.5C 84.079,75.1218 81.7457,74.4552 79.5,73.5C 79.8432,71.5168 79.1765,70.1834 77.5,69.5C 75.1667,69.5 72.8333,69.5 70.5,69.5C 72.6074,68.5318 74.9407,68.1984 77.5,68.5C 77.5,67.5 77.5,66.5 77.5,65.5C 77.8417,64.6618 78.5084,64.3284 79.5,64.5C 81.4228,60.9707 82.0894,56.9707 81.5,52.5 Z"/></g>
<g><path style="opacity:1" fill="#040e19" d="M 21.5,84.5 C 21.5,84.8333 21.5,85.1667 21.5,85.5C 22.9527,87.229 24.9527,88.229 27.5,88.5C 28.4742,90.7427 28.8076,93.076 28.5,95.5C 26.857,95.4802 25.5237,96.1468 24.5,97.5C 23.8933,97.3764 23.56,97.0431 23.5,96.5C 22.4324,95.5655 21.099,95.2322 19.5,95.5C 19.1788,93.9519 18.1788,93.2852 16.5,93.5C 14.0532,93.615 12.0532,94.615 10.5,96.5C 9.66175,96.1583 9.32842,95.4916 9.5,94.5C 9.0472,93.5416 8.38053,92.7083 7.5,92C 9.05814,91.79 10.3915,91.29 11.5,90.5C 11.9731,89.0937 12.9731,88.427 14.5,88.5C 16.1765,87.8166 16.8432,86.4832 16.5,84.5C 18.1667,84.5 19.8333,84.5 21.5,84.5 Z"/></g>
<g><path style="opacity:1" fill="#064e9f" d="M 41.5,74.5 C 41.8271,76.4878 42.1604,78.4878 42.5,80.5C 41.4213,86.7954 40.7546,93.1288 40.5,99.5C 42.861,99.6741 45.1944,100.007 47.5,100.5C 45.3382,101.417 43.0048,101.417 40.5,100.5C 39.209,100.737 38.209,100.404 37.5,99.5C 35.3212,95.1044 34.9878,90.4378 36.5,85.5C 37.5855,81.5013 39.2521,77.8346 41.5,74.5 Z"/></g>
<g><path style="opacity:1" fill="#19c5fa" d="M 114.5,95.5 C 113.518,94.8592 112.518,94.1925 111.5,93.5C 111.167,93.8333 110.833,94.1667 110.5,94.5C 111.309,96.0709 111.643,97.7376 111.5,99.5C 109.103,96.691 107.77,93.3576 107.5,89.5C 111.055,90.0536 113.388,92.0536 114.5,95.5 Z"/></g>
<g><path style="opacity:1" fill="#26d4f5" d="M 90.5,81.5 C 91.5,81.5 92.5,81.5 93.5,81.5C 93.6135,84.85 93.9469,88.1833 94.5,91.5C 96.1833,99.7071 97.8499,100.04 99.5,92.5C 100.478,92.9767 101.311,93.6433 102,94.5C 101.805,92.8739 101.805,91.2072 102,89.5C 102.383,90.056 102.883,90.3893 103.5,90.5C 105.25,91.6594 106.25,93.326 106.5,95.5C 103.993,94.4771 101.827,95.1438 100,97.5C 99.0467,99.4552 97.7134,101.122 96,102.5C 95.5065,104.134 95.3398,105.801 95.5,107.5C 94.1667,107.5 92.8333,107.5 91.5,107.5C 93.0089,98.684 92.6756,90.0173 90.5,81.5 Z"/></g>
<g><path style="opacity:1" fill="#021d38" d="M 21.5,85.5 C 23.717,86.3686 26.0504,86.702 28.5,86.5C 29.209,87.404 30.209,87.7373 31.5,87.5C 31.5,91.8333 31.5,96.1667 31.5,100.5C 30.1667,100.5 28.8333,100.5 27.5,100.5C 24.9442,100.868 22.9442,100.034 21.5,98C 21.8361,96.9701 22.5028,96.4701 23.5,96.5C 23.56,97.0431 23.8933,97.3764 24.5,97.5C 25.5237,96.1468 26.857,95.4802 28.5,95.5C 28.8076,93.076 28.4742,90.7427 27.5,88.5C 24.9527,88.229 22.9527,87.229 21.5,85.5 Z"/></g>
<g><path style="opacity:1" fill="#57a7e8" d="M 7.5,94.5 C 7.08247,95.2216 6.4158,95.7216 5.5,96C 6.8721,96.4017 8.20543,96.9017 9.5,97.5C 10.1067,97.3764 10.44,97.0431 10.5,96.5C 12.0532,94.615 14.0532,93.615 16.5,93.5C 16.369,94.2389 16.5357,94.9056 17,95.5C 17.6543,94.3044 18.1543,94.3044 18.5,95.5C 18.0233,96.4776 17.3567,97.3109 16.5,98C 12.9268,99.371 9.42681,100.871 6,102.5C 5.1925,106.027 5.35916,109.36 6.5,112.5C 6.5,112.833 6.5,113.167 6.5,113.5C 4.71199,113.215 3.04533,113.548 1.5,114.5C 3.26034,117.212 3.92701,120.212 3.5,123.5C 2.16667,123.5 0.833333,123.5 -0.5,123.5C -0.5,117.167 -0.5,110.833 -0.5,104.5C 2.35516,104.842 3.85516,106.509 4,109.5C 5.26179,105.091 4.42846,101.257 1.5,98C 2.67209,97.5814 3.67209,96.9147 4.5,96C 3.28882,95.1072 3.28882,94.2739 4.5,93.5C 5.41683,94.1272 6.41683,94.4606 7.5,94.5 Z"/></g>
<g><path style="opacity:1" fill="#114070" d="M 7.5,94.5 C 8.16667,94.5 8.83333,94.5 9.5,94.5C 9.32842,95.4916 9.66175,96.1583 10.5,96.5C 10.44,97.0431 10.1067,97.3764 9.5,97.5C 8.20543,96.9017 6.8721,96.4017 5.5,96C 6.4158,95.7216 7.08247,95.2216 7.5,94.5 Z"/></g>
<g><path style="opacity:1" fill="#031b3b" d="M 89.5,81.5 C 89.8333,81.5 90.1667,81.5 90.5,81.5C 92.6756,90.0173 93.0089,98.684 91.5,107.5C 91.1667,107.5 90.8333,107.5 90.5,107.5C 90.9875,103.691 91.3208,99.8576 91.5,96C 91.5163,90.9718 90.8496,86.1384 89.5,81.5 Z"/></g>
<g><path style="opacity:1" fill="#3775a4" d="M 52.5,94.5 C 52.3893,95.1174 52.056,95.6174 51.5,96C 52.624,96.2492 53.624,96.7492 54.5,97.5C 52.1568,98.2749 49.8234,98.9416 47.5,99.5C 48.1667,98.1667 48.8333,96.8333 49.5,95.5C 50.391,94.8902 51.391,94.5569 52.5,94.5 Z"/></g>
<g><path style="opacity:1" fill="#5cabea" d="M 19.5,95.5 C 21.099,95.2322 22.4324,95.5655 23.5,96.5C 22.5028,96.4701 21.8361,96.9701 21.5,98C 22.9442,100.034 24.9442,100.868 27.5,100.5C 24.5724,101.257 21.9058,102.59 19.5,104.5C 15.8905,104.402 12.5571,105.236 9.5,107C 12.6019,106.924 15.6019,107.09 18.5,107.5C 19.3764,107.369 20.0431,107.702 20.5,108.5C 18.3691,109.169 16.3691,109.835 14.5,110.5C 7.91807,112.716 5.75141,110.382 8,103.5C 11.1493,102.004 14.3159,100.504 17.5,99C 18.8228,98.1841 19.4894,97.0174 19.5,95.5 Z"/></g>
<g><path style="opacity:1" fill="#1f9fe4" d="M 106.5,95.5 C 107.34,97.8525 108.674,99.8525 110.5,101.5C 110.715,103.179 110.048,104.179 108.5,104.5C 107.811,103.226 106.977,103.226 106,104.5C 105.508,103.451 105.674,102.451 106.5,101.5C 105.635,100.417 104.635,100.251 103.5,101C 102.248,102.828 102.248,104.661 103.5,106.5C 102.883,106.611 102.383,106.944 102,107.5C 99.1642,104.823 97.3308,105.49 96.5,109.5C 95.1667,109.5 94.5,110.167 94.5,111.5C 93.596,110.791 93.2627,109.791 93.5,108.5C 92.5,108.5 91.5,108.5 90.5,108.5C 90.5,108.167 90.5,107.833 90.5,107.5C 90.8333,107.5 91.1667,107.5 91.5,107.5C 92.8333,107.5 94.1667,107.5 95.5,107.5C 95.3398,105.801 95.5065,104.134 96,102.5C 97.7134,101.122 99.0467,99.4552 100,97.5C 101.827,95.1438 103.993,94.4771 106.5,95.5 Z"/></g>
<g><path style="opacity:1" fill="#2b9cda" d="M 114.5,95.5 C 115.5,95.5 116.5,95.5 117.5,95.5C 118.227,102.44 121.56,104.44 127.5,101.5C 127.5,102.833 127.5,104.167 127.5,105.5C 126.504,105.414 125.671,105.748 125,106.5C 124.692,105.692 124.192,105.025 123.5,104.5C 120.669,106.129 118.335,105.629 116.5,103C 118.878,102.026 118.544,101.359 115.5,101C 116.554,99.6124 116.72,98.1124 116,96.5C 114.729,97.8825 113.229,98.8825 111.5,99.5C 111.643,97.7376 111.309,96.0709 110.5,94.5C 110.833,94.1667 111.167,93.8333 111.5,93.5C 112.518,94.1925 113.518,94.8592 114.5,95.5 Z"/></g>
<g><path style="opacity:1" fill="#052250" d="M 16.5,93.5 C 18.1788,93.2852 19.1788,93.9519 19.5,95.5C 19.4894,97.0174 18.8228,98.1841 17.5,99C 14.3159,100.504 11.1493,102.004 8,103.5C 5.75141,110.382 7.91807,112.716 14.5,110.5C 14.5,111.167 14.8333,111.5 15.5,111.5C 15.5,112.167 15.1667,112.5 14.5,112.5C 11.8333,112.5 9.16667,112.5 6.5,112.5C 5.35916,109.36 5.1925,106.027 6,102.5C 9.42681,100.871 12.9268,99.371 16.5,98C 17.3567,97.3109 18.0233,96.4776 18.5,95.5C 18.1543,94.3044 17.6543,94.3044 17,95.5C 16.5357,94.9056 16.369,94.2389 16.5,93.5 Z"/></g>
<g><path style="opacity:1" fill="#05163b" d="M 108.5,104.5 C 106.833,105.167 105.167,105.833 103.5,106.5C 102.248,104.661 102.248,102.828 103.5,101C 104.635,100.251 105.635,100.417 106.5,101.5C 105.674,102.451 105.508,103.451 106,104.5C 106.977,103.226 107.811,103.226 108.5,104.5 Z"/></g>
<g><path style="opacity:1" fill="#3c89c6" d="M 113.5,104.5 C 116.084,105.048 117.084,106.715 116.5,109.5C 115.325,109.719 114.325,109.386 113.5,108.5C 114.807,107.135 114.807,105.802 113.5,104.5 Z"/></g>
<g><path style="opacity:1" fill="#080f1e" d="M 27.5,100.5 C 28.8333,100.5 30.1667,100.5 31.5,100.5C 31.5,100.833 31.5,101.167 31.5,101.5C 28.3749,102.597 25.2082,103.597 22,104.5C 21.1531,107.49 22.3198,108.824 25.5,108.5C 25.5,109.5 25.5,110.5 25.5,111.5C 23.6203,111.229 22.287,111.896 21.5,113.5C 19.6854,112.37 17.6854,111.704 15.5,111.5C 14.8333,111.5 14.5,111.167 14.5,110.5C 16.3691,109.835 18.3691,109.169 20.5,108.5C 20.0431,107.702 19.3764,107.369 18.5,107.5C 18.5569,106.391 18.8902,105.391 19.5,104.5C 21.9058,102.59 24.5724,101.257 27.5,100.5 Z"/></g>
<g><path style="opacity:1" fill="#0a2f5d" d="M 19.5,104.5 C 18.8902,105.391 18.5569,106.391 18.5,107.5C 15.6019,107.09 12.6019,106.924 9.5,107C 12.5571,105.236 15.8905,104.402 19.5,104.5 Z"/></g>
<g><path style="opacity:1" fill="#041739" d="M 103.5,106.5 C 101.645,108.233 99.3121,109.233 96.5,109.5C 97.3308,105.49 99.1642,104.823 102,107.5C 102.383,106.944 102.883,106.611 103.5,106.5 Z"/></g>
<g><path style="opacity:1" fill="#081633" d="M 127.5,105.5 C 127.5,106.833 127.5,108.167 127.5,109.5C 124.038,109.807 124.038,110.807 127.5,112.5C 127.5,112.833 127.5,113.167 127.5,113.5C 125.856,113.714 124.356,113.38 123,112.5C 122.505,110.527 122.338,108.527 122.5,106.5C 120.833,106.5 119.167,106.5 117.5,106.5C 117.737,107.791 117.404,108.791 116.5,109.5C 117.084,106.715 116.084,105.048 113.5,104.5C 115.066,101.506 114.399,100.506 111.5,101.5C 111.5,100.833 111.5,100.167 111.5,99.5C 113.229,98.8825 114.729,97.8825 116,96.5C 116.72,98.1124 116.554,99.6124 115.5,101C 118.544,101.359 118.878,102.026 116.5,103C 118.335,105.629 120.669,106.129 123.5,104.5C 124.192,105.025 124.692,105.692 125,106.5C 125.671,105.748 126.504,105.414 127.5,105.5 Z"/></g>
<g><path style="opacity:1" fill="#6fcbee" d="M 90.5,108.5 C 91.5,108.5 92.5,108.5 93.5,108.5C 93.2627,109.791 93.596,110.791 94.5,111.5C 95.0967,111.735 95.4301,112.235 95.5,113C 95.1501,114.257 94.4835,114.591 93.5,114C 91.393,112.736 90.393,110.903 90.5,108.5 Z"/></g>
<g><path style="opacity:1" fill="#0a2649" d="M 90.5,108.5 C 90.393,110.903 91.393,112.736 93.5,114C 94.4835,114.591 95.1501,114.257 95.5,113C 95.4301,112.235 95.0967,111.735 94.5,111.5C 94.5,110.167 95.1667,109.5 96.5,109.5C 96.5,111.5 96.5,113.5 96.5,115.5C 94.8333,115.5 93.1667,115.5 91.5,115.5C 91.2893,113.576 90.6226,113.243 89.5,114.5C 88.9569,114.44 88.6236,114.107 88.5,113.5C 89.0276,111.664 89.6942,109.997 90.5,108.5 Z"/></g>
<g><path style="opacity:1" fill="#2657ba" d="M 127.5,109.5 C 127.5,110.5 127.5,111.5 127.5,112.5C 124.038,110.807 124.038,109.807 127.5,109.5 Z"/></g>
<g><path style="opacity:1" fill="#315b85" d="M 6.5,113.5 C 6.5,113.167 6.5,112.833 6.5,112.5C 9.16667,112.5 11.8333,112.5 14.5,112.5C 12.1944,113.038 10.5277,113.705 9.5,114.5C 9.44001,115.043 9.10667,115.376 8.5,115.5C 7.81815,114.757 7.15149,114.091 6.5,113.5 Z"/></g>
<g><path style="opacity:1" fill="#5c95b8" d="M 91.5,115.5 C 90.5084,115.672 89.8417,115.338 89.5,114.5C 90.6226,113.243 91.2893,113.576 91.5,115.5 Z"/></g>
<g><path style="opacity:1" fill="#55a2e4" d="M 15.5,111.5 C 17.6854,111.704 19.6854,112.37 21.5,113.5C 21.0472,114.458 20.3805,115.292 19.5,116C 21.935,116.075 22.6016,116.908 21.5,118.5C 19.9557,118.703 18.6223,119.37 17.5,120.5C 15.8888,119.68 15.2222,118.346 15.5,116.5C 13.2821,116.386 11.2821,115.72 9.5,114.5C 10.5277,113.705 12.1944,113.038 14.5,112.5C 15.1667,112.5 15.5,112.167 15.5,111.5 Z"/></g>
<g><path style="opacity:1" fill="#101a2a" d="M 6.5,113.5 C 7.15149,114.091 7.81815,114.757 8.5,115.5C 9.10667,115.376 9.44001,115.043 9.5,114.5C 11.2821,115.72 13.2821,116.386 15.5,116.5C 15.2222,118.346 15.8888,119.68 17.5,120.5C 18.6223,119.37 19.9557,118.703 21.5,118.5C 20.5244,119.815 19.5244,121.148 18.5,122.5C 19.325,123.386 20.325,123.719 21.5,123.5C 21.719,124.675 21.3857,125.675 20.5,126.5C 17.9059,124.302 14.9059,123.302 11.5,123.5C 11.3505,122.448 11.5172,121.448 12,120.5C 13.813,121.609 14.6463,120.942 14.5,118.5C 11.2402,117.226 8.07353,116.559 5,116.5C 4.81382,119.036 4.31382,121.369 3.5,123.5C 3.92701,120.212 3.26034,117.212 1.5,114.5C 3.04533,113.548 4.71199,113.215 6.5,113.5 Z"/></g>
</svg>
